<svg viewBox="8.75 126.875 660.625 686.875" xmlns="http://www.w3.org/2000/svg" overflow="visible">
    <g id="Master/Comps/Kid Playing" stroke="none" stroke-width="1" fill="none" fill-rule="evenodd">
        <g id="Blob" transform="translate(91.819165, 130.000000) scale(1 1)">
            <g id="Blob/1" stroke="none" stroke-width="1" fill="none" fill-rule="evenodd">
                <path d="M401.585261,21.6222798 C324.480555,-31.52887 222.870403,16.932234 174.632994,129.863439 L174.597201,129.946864 C172.326687,135.265262 168.470358,139.362296 163.383595,141.797362 C138.79467,153.568592 115.027495,169.312662 93.1803724,188.9839 C-8.18826819,280.256634 -29.8672135,421.434904 44.7573226,504.313847 C119.381859,587.192791 262.052375,580.389274 363.421016,489.11654 C415.428222,442.289041 446.459628,382.324815 454.270845,323.837497 C454.584993,321.484187 455.157405,319.254112 455.993441,317.193644 C501.367798,205.348682 477.522035,73.9680571 401.585261,21.6222798" id="Fill-3" fill="#CDEEEC" opacity=".465"/>
            </g>
        </g>
        <g id="Group" opacity=".887" transform="translate(8.000000, 572.000000)">
            <path d="M662,153.564103 C662,132.81789 513.806114,116 331,116 C148.193886,116 0,132.81789 0,153.564103 C0,165.576882 49.6933249,176.274038 127.022685,183.149709 C120.22833,188.127882 116.470488,193.598751 116.470488,199.342457 C116.470488,222.349069 176.765739,241 251.144482,241 C312.42277,241 364.141944,212.723836 380.459245,202.763958 C384.039266,200.577729 387.909124,199.922567 391.69158,200.885885 C409.140604,205.330746 462.261747,217.842401 507.355848,217.842401 C581.734089,217.842401 642.029842,199.19147 642.029842,176.183092 C642.029842,173.153629 640.973969,170.199219 638.987301,167.35253 C653.83934,163.08338 662,158.431906 662,153.564103" id="Fill-6" fill="#96DAD5" opacity=".709"/>
            <path d="M387,136.056977 C387,117.309553 374.424085,102.111586 358.911185,102.111586 C355.730109,102.111586 352.676347,102.75951 349.826287,103.937072 C343.696812,93.2781045 334.851614,85.0810715 324.498852,80.7945334 C319.528367,53.1121131 299.1521,32.3714834 274.757125,32.3714834 C267.687289,32.3714834 260.956369,34.1157583 254.837431,37.2626916 C247.046738,15.3497961 229.031474,0 208.04586,0 C183.529718,0 163.067405,20.9436577 158.225111,48.8308714 C157.860732,48.8220441 157.499865,48.7973277 157.13373,48.7973277 C133.543901,48.7973277 113.708497,68.1909111 107.930231,94.5033341 C97.1173848,96.3191102 87.3976766,102.236934 79.8703904,110.917703 C75.3722815,107.21818 69.9399568,105.053726 64.0888153,105.053726 C48.5759152,105.053726 36,120.252575 36,139 L386.888491,139 C386.956977,138.028997 387,137.050049 387,136.056977" id="Fill-11" fill="#2A4D52"/>
            <path d="M245,132.569463 C245,136.385811 243.120872,139.785446 240.17384,142 L132.827036,142 C129.879128,139.785446 128,136.385811 128,132.569463 C128,125.87481 133.776675,120.456669 140.891954,120.456669 C142.878836,120.456669 147.337931,120.88569 152.715126,121.640871 C147.748798,119.062353 143.710207,116.730873 141.982636,115.532605 C135.817871,111.247676 133.074958,103.067276 135.838897,97.284292 C138.614223,91.4881206 145.859158,90.2775446 152.01341,94.575661 C153.740981,95.7739291 157.42302,98.8350953 161.774361,102.729686 C158.534728,97.4935273 155.997686,93.052111 155.004245,90.9676696 C151.451862,83.5310227 152.455816,74.7906108 157.249562,71.456032 C162.054697,68.1091453 168.824812,71.4305369 172.387708,78.8671839 C173.381149,80.9384382 175.303203,85.8097541 177.452154,91.8142816 C176.81439,85.3279852 176.469226,79.9494055 176.469226,77.5388031 C176.469226,68.9557573 180.960735,62 186.5,62 C192.039265,62 196.530774,68.9557573 196.530774,77.5388031 C196.530774,79.9494055 196.18561,85.3279852 195.548722,91.8142816 C197.696797,85.8097541 199.618851,80.9384382 200.612292,78.8671839 C204.175188,71.4305369 210.945303,68.1091453 215.750438,71.456032 C220.544184,74.7906108 221.559526,83.5310227 217.995755,90.9676696 C217.002314,93.052111 214.465272,97.4935273 211.225639,102.729686 C215.577856,98.8350953 219.259019,95.7739291 220.98659,94.575661 C227.152231,90.2775446 234.386653,91.4881206 237.161103,97.284292 C239.93643,103.067276 237.183005,111.247676 231.017364,115.532605 C229.289793,116.730873 225.252078,119.062353 220.284874,121.640871 C225.662069,120.88569 230.121164,120.456669 232.108046,120.456669 C239.223325,120.456669 245,125.87481 245,132.569463" id="Fill-13" fill="#96DAD5"/>
            <path d="M411,139 C411,128.898723 404.190579,120.710792 395.79031,120.710792 C395.410745,120.710792 395.035554,120.732664 394.662986,120.765909 C391.295882,107.029537 380.736293,97 368.22291,97 C355.448904,97 344.708279,107.449476 341.579934,121.625909 C337.567395,122.296061 333.833845,124.005562 330.567317,126.519945 C325.510539,119.144771 317.855406,114.442331 309.284595,114.442331 C301.174684,114.442331 293.884248,118.653967 288.839714,125.356365 C284.514078,113.857042 274.89553,105.850209 263.716744,105.850209 C253.388043,105.850209 244.392191,112.684713 239.670374,122.793863 C238.539551,122.471035 237.361502,122.295186 236.149345,122.295186 C228.194233,122.295186 221.669048,129.642365 221,139 L411,139 Z" id="Fill-15" fill="#EDFBFB"/>
            <path d="M315.951905,167.328114 C315.546689,166.342718 312.660959,166.480076 308.889205,167.517515 C312.563391,162.478771 314.044492,157.817123 312.194214,156.203804 C310.058264,154.341363 304.236701,157.196025 298.751791,162.640871 C297.999374,158.037238 296.708135,155 295.241098,155 C293.522669,155 292.045083,159.166817 291.392871,165.137208 C288.868407,159.930392 285.697004,156.662802 283.429205,157.346181 C280.669171,158.178009 280.22528,164.573271 282.281242,172 L310.51534,172 C314.0902,170.204958 316.364152,168.330573 315.951905,167.328114" id="Fill-17" fill="#2A8C79"/>
            <path d="M183,203.500442 C183,208.747312 165.315701,213 143.5,213 C121.685177,213 104,208.747312 104,203.500442 C104,198.252688 121.685177,194 143.5,194 C165.315701,194 183,198.252688 183,203.500442" id="Fill-19" fill="#96DAD5"/>
            <path d="M54,189.5 C54,191.985475 45.9413361,194 35.99956,194 C26.0595439,194 18,191.985475 18,189.5 C18,187.014525 26.0595439,185 35.99956,185 C45.9413361,185 54,187.014525 54,189.5" id="Fill-23" fill="#96DAD5"/>
            <path d="M342,202 C342,203.65864 336.179655,205 329,205 C321.820345,205 316,203.65864 316,202 C316,200.342336 321.820345,199 329,199 C336.179655,199 342,200.342336 342,202" id="Fill-43" fill="#2A8C79"/>
            <path d="M268.005221,104.476963 C268.004351,104.467212 268.00174,104.458348 268,104.448598 C271.580533,98.2534012 277.490371,94.0579706 284.221599,93.1777545 C289.138633,92.5350993 294.013901,93.6422392 298.361008,96.3821665 C300.437978,94.8796829 302.830801,93.9188025 305.322818,93.5925996 C314.399013,92.4065683 322.82262,99.6938354 324.100822,109.840697 C324.217418,110.758142 324.271365,111.686225 324.264404,112.610762 C325.997678,111.609993 327.870171,110.972656 329.845337,110.714708 C337.844327,109.668731 345.463075,115.161882 347.961183,123.775235 C348.108232,124.280495 347.824574,124.810575 347.328607,124.959493 C347.27901,124.975449 347.230284,124.986086 347.181557,124.992291 C346.732577,125.050795 346.297518,124.771572 346.16526,124.315952 C343.929058,116.605862 337.165635,111.681793 330.08375,112.607217 C327.998078,112.879348 326.042054,113.634579 324.268755,114.850748 C323.885903,115.113129 323.373404,115.052852 323.059291,114.709807 C322.917462,114.554684 322.773023,114.39956 322.627713,114.247982 C322.442378,114.056515 322.344925,113.792361 322.360587,113.523776 C322.425846,112.380293 322.386691,111.222627 322.243121,110.08269 C321.097177,100.980919 313.613297,94.4329267 305.5621,95.4851084 C303.184939,95.7962422 300.906972,96.7677596 298.974441,98.2941766 C298.658588,98.5441473 298.220919,98.5618757 297.886794,98.3376112 C293.78071,95.5888197 289.137763,94.4586329 284.460012,95.0711498 C277.506033,95.9797313 271.493522,100.777928 268.429838,107.739879 C268.308892,106.653127 268.14966,105.562829 268.005221,104.476963" id="Fill-45" fill="#EDFBFB"/>
            <path d="M349.861666,138.241463 C349.693834,138.047094 348.502855,138.336134 347.422268,139.145446 C347.188021,139.322221 346.971724,139.504023 346.781455,139.683311 C346.886462,139.493131 346.986084,139.27698 347.073142,139.041559 C347.393548,138.176115 347.316363,137.36429 347.135966,137.30732 C346.957364,137.248674 346.359631,137.841834 346.039225,138.708954 C345.91178,139.05245 345.831005,139.380867 345.7969,139.659853 C345.774463,139.597856 345.75023,139.535021 345.7251,139.472187 C345.576116,139.104394 345.376872,138.794409 345.184807,138.55815 C345.927037,137.230243 346.222314,135.952603 345.167755,135.647645 C344.791703,135.538731 343.533412,136.7217 342.818106,138.474371 C342.766052,138.605067 342.716689,138.734088 342.670019,138.863108 C342.600015,138.28838 342.434875,137.608089 342.171908,136.898475 C341.509555,135.11313 340.277291,133.888271 339.907523,134.008076 C339.535959,134.127044 339.376204,135.800961 340.038557,137.587144 C340.217159,138.072228 340.423583,138.517936 340.63988,138.910863 C340.246777,138.540557 339.801618,138.166061 339.316072,137.80162 C337.088483,136.131053 334.631135,135.53538 334.285599,135.936684 C332.427779,138.091498 340.166899,142.494119 342.134213,141.954578 C342.663737,141.809639 343.727271,140.739773 344.581689,139.519103 C345.008,140.278985 345.734973,141.070703 346.057175,141.158671 C347.010317,141.420902 350.761856,139.286196 349.861666,138.241463" id="Fill-125" fill="#96DAD5"/>
            <path d="M236.5245,140.624 C236.5235,140.546 236.5225,140.459 236.5215,140.376 L236.4755,140.379 C236.4915,140.461 236.5075,140.54 236.5245,140.624" id="Fill-127" fill="#96DAD5"/>
            <path d="M225.598,141.8345 C225.614,141.6015 225.628,141.3805 225.641,141.1655 L225.359,141.1795 C225.437,141.3925 225.516,141.6085 225.598,141.8345" id="Fill-129" fill="#96DAD5"/>
            <path d="M234.404668,134.045896 C234.403808,140.179103 233.467322,138.254212 233.32113,140.39325 C232.309828,136.107873 231.262408,136.061637 231.262408,136.061637 C231.262408,136.061637 230.963145,136.36339 230,141 L237,140.680402 C235.372973,133.018963 234.404668,134.045896 234.404668,134.045896" id="Fill-131" fill="#96DAD5"/>
            <path d="M225.00186,133 C225.00093,137.916239 225.218554,137.711111 225,141 L229,140.821368 C227.429203,134.942735 225.00186,133 225.00186,133" id="Fill-133" fill="#96DAD5"/>
            <path d="M237.353888,135.028086 C237.086099,137.190595 236.975833,137.728902 237.004384,140 L239,139.909973 C238.616038,136.832343 237.412959,134.730161 237.353888,135.028086" id="Fill-135" fill="#96DAD5"/>
            <path d="M249.508,141.593 C249.512,141.534 249.517,141.469 249.521,141.407 L249.479,141.409 C249.489,141.471 249.498,141.531 249.508,141.593" id="Fill-137" fill="#96DAD5"/>
            <path d="M238.5465,141.751 C238.5755,141.575 238.6035,141.409 238.6285,141.249 L238.3715,141.263 C238.4285,141.421 238.4865,141.582 238.5465,141.751" id="Fill-139" fill="#96DAD5"/>
            <path d="M245.452082,140.829553 L249,140.654499 C247.8919,134.153548 246.789789,135.040795 246.789789,135.040795 C246.330576,139.949676 246.115944,138.851443 245.304335,140.176325 C244.626497,137.182903 242.678836,135.572407 243.131061,137.569864 C242.960354,138.157677 242.632915,139.185888 242,141 L243.887764,140.906945 L245.452082,140.829553 Z" id="Fill-141" fill="#96DAD5"/>
            <path d="M239.219401,135 C239.029412,137.401169 238.458531,138.174291 238.40464,139.094057 C238.289551,139.466154 238.121483,140.112584 238,140.507624 L238.864998,140.462733 C238.820241,140.880718 238.759043,141.363546 238.665875,142 L243,140.9296 C242.003471,135.808038 239.219401,135 239.219401,135" id="Fill-143" fill="#96DAD5"/>
            <path d="M249.723634,138.01714 C249.294213,139.315326 249.14278,139.639501 249,141 L251,140.92656 C250.848567,139.086103 249.804759,137.837619 249.723634,138.01714" id="Fill-145" fill="#96DAD5"/>
            <path d="M252.709563,139.008424 C252.782763,138.896785 251.913813,139.912558 251,141 L253,140.937289 C252.800472,139.910491 252.652893,139.095254 252.709563,139.008424" id="Fill-147" fill="#96DAD5"/>
            <path d="M122.5245,139.6235 C122.5235,139.5465 122.5225,139.4595 122.5215,139.3765 L122.4755,139.3795 C122.4915,139.4615 122.5075,139.5405 122.5245,139.6235" id="Fill-149" fill="#96DAD5"/>
            <path d="M111.598,140.8345 C111.614,140.6015 111.628,140.3795 111.641,140.1655 L111.359,140.1795 C111.437,140.3925 111.516,140.6085 111.598,140.8345" id="Fill-151" fill="#96DAD5"/>
            <path d="M119.404668,133.045981 C119.403808,139.178302 118.467322,137.254245 118.32113,139.393257 C117.309828,135.107122 116.262408,135.061698 116.262408,135.061698 C116.262408,135.061698 115.963145,135.363447 115,140 L122,139.680406 C120.372113,132.01825 119.404668,133.045981 119.404668,133.045981" id="Fill-153" fill="#96DAD5"/>
            <path d="M111.00093,132 C111,136.916239 111.217624,136.710256 111,140 L115,139.821368 C113.428272,133.942735 111.00093,132 111.00093,132" id="Fill-155" fill="#96DAD5"/>
            <path d="M122.353888,134.028251 C122.086099,136.190688 121.975833,136.728977 122.004384,139 L124,138.909048 C123.616038,135.831519 122.412959,133.729408 122.353888,134.028251" id="Fill-157" fill="#96DAD5"/>
            <path d="M134.508,140.5925 C134.512,140.5345 134.517,140.4695 134.521,140.4075 L134.479,140.4095 C134.488,140.4715 134.498,140.5305 134.508,140.5925" id="Fill-159" fill="#96DAD5"/>
            <path d="M124.5465,141.751 C124.5755,141.576 124.6035,141.41 124.6285,141.249 L124.3715,141.263 C124.4285,141.421 124.4865,141.583 124.5465,141.751" id="Fill-161" fill="#96DAD5"/>
            <path d="M131.452082,140.829553 L135,140.654499 C133.8919,134.153548 132.789789,135.040795 132.789789,135.040795 C132.330576,139.949676 132.115944,138.851443 131.304335,140.176325 C130.626497,137.182903 128.678836,135.572407 129.131061,137.569864 C128.960354,138.157677 128.632915,139.184967 128,141 L129.887764,140.906024 L131.452082,140.829553 Z" id="Fill-163" fill="#96DAD5"/>
            <path d="M125.219401,134 C125.029412,136.402166 124.458531,137.175289 124.40464,138.094057 C124.289551,138.467151 124.121483,139.113581 124,139.507624 L124.864998,139.462733 C124.820241,139.881716 124.759043,140.363546 124.665875,141 L129,139.930597 C128.003471,134.809035 125.219401,134 125.219401,134" id="Fill-165" fill="#96DAD5"/>
            <path d="M134.722944,137.01714 C134.29329,138.315326 134.141775,138.638759 134,140 L136,139.925818 C135.848485,138.086103 134.805195,136.837619 134.722944,137.01714" id="Fill-167" fill="#96DAD5"/>
            <path d="M138.709563,138.008429 C138.781582,137.896791 137.913813,138.911872 137,140 L139,139.93729 C138.800472,138.910493 138.652893,138.095259 138.709563,138.008429" id="Fill-169" fill="#96DAD5"/>
            <path d="M262.730258,171.149414 C262.673374,172.462066 262.615641,173.773029 262.557908,175.085681 C262.553663,175.190356 262.548569,175.294186 262.544324,175.398016 C262.809216,175.105096 263.300795,174.763216 263.905293,174.478738 C264.910526,174.007703 265.898779,173.988287 265.991321,174.181597 C266.083015,174.374908 265.440311,175.121979 264.434229,175.593859 C263.622572,175.975414 262.858459,176.134958 262.517155,176.020998 C262.46112,177.294819 262.405085,178.569484 262.34905,179.843305 C262.34056,180.051809 261.847283,180.052654 261.857471,179.843305 L261.973786,177.171573 C262.006898,176.409307 262.040858,175.648728 262.07397,174.887306 C261.610408,175.086525 260.533858,174.965812 259.361369,174.547958 C257.900216,174.027118 256.90602,173.076606 257.007053,172.795505 C257.108086,172.514403 258.484338,172.40804 259.944642,172.92888 C260.937989,173.282579 261.742005,173.758679 262.105383,174.168091 C262.130854,173.583096 262.157173,172.998101 262.182644,172.413105 C262.20302,171.94207 262.223396,171.471879 262.244622,171 L262.730258,171.149414 Z" id="Fill-171" fill="#2A4D52"/>
            <path d="M263.544001,170.850566 C263.460923,170.862131 263.378729,170.873696 263.294767,170.884371 C259.984908,171.298041 257.170865,170.566779 257.007361,169.249262 C256.844741,167.933524 259.396293,166.530605 262.705268,166.116045 C266.015127,165.701485 268.829169,166.432747 268.992674,167.750264 C269.142037,168.961917 266.99085,170.246519 264.066331,170.766053 L263.544001,170.850566 Z" id="Fill-173" fill="#EDFBFB"/>
            <path d="M277.816316,185.083425 C277.848528,185.812337 277.88074,186.540406 277.912105,187.270161 C277.914648,187.327463 277.917191,187.385607 277.919734,187.443752 C277.772236,187.280273 277.499281,187.090672 277.163597,186.933092 C276.604972,186.67102 276.055671,186.660066 276.00481,186.767928 C275.953948,186.874947 276.310824,187.289542 276.86945,187.552456 C277.320419,187.763967 277.74511,187.852448 277.934992,187.789247 C277.966357,188.497935 277.996873,189.205781 278.028238,189.912783 C278.033324,190.029072 278.307127,190.029072 278.302041,189.912783 L278.236769,188.428836 C278.21812,188.005814 278.199471,187.582793 278.180821,187.159771 C278.438518,187.271004 279.036985,187.20359 279.688008,186.971012 C280.50094,186.681975 281.052784,186.154462 280.995989,185.997725 C280.940042,185.840988 280.176276,185.782001 279.364192,186.07188 C278.812348,186.268223 278.364769,186.532822 278.163868,186.759501 C278.149457,186.435072 278.135046,186.110643 278.120636,185.785371 L278.08588,185 L277.816316,185.083425 Z" id="Fill-175" fill="#2A4D52"/>
            <path d="M277.182714,184.940283 C277.230886,184.944759 277.279058,184.949874 277.328157,184.95371 C279.258755,185.119318 280.900319,184.826467 280.995737,184.30023 C281.090229,183.773354 279.602446,183.211949 277.671848,183.046341 C275.74125,182.880733 274.099686,183.172945 274.004268,183.700461 C273.917187,184.184496 275.172446,184.698585 276.877931,184.906394 L277.182714,184.940283 Z" id="Fill-177" fill="#EDFBFB"/>
            <path d="M361.183591,172.08343 C361.15138,172.811545 361.120017,173.540503 361.087805,174.270304 C361.085262,174.32761 361.082719,174.385758 361.080176,174.443906 C361.22767,174.279574 361.500618,174.090804 361.836292,173.932371 C362.394903,173.671126 362.944189,173.660171 362.995048,173.767197 C363.046756,173.875066 362.689042,174.289687 362.130432,174.552618 C361.679475,174.764142 361.254795,174.852628 361.064918,174.789424 C361.033555,175.497314 361.003039,176.205204 360.971675,176.913094 C360.96659,177.028547 360.692794,177.02939 360.698728,176.913094 L360.76315,175.429053 C360.781799,175.006004 360.800447,174.582956 360.819096,174.159907 C360.561406,174.270304 359.962956,174.203729 359.31195,173.971137 C358.499889,173.681239 357.947212,173.153692 358.004005,172.997788 C358.059951,172.841041 358.823696,172.78205 359.635758,173.071948 C360.187587,173.268303 360.635153,173.532919 360.836049,173.759612 C360.85046,173.435163 360.86487,173.110713 360.87928,172.785421 C360.8903,172.523333 360.902167,172.262088 360.914034,172 L361.183591,172.08343 Z" id="Fill-179" fill="#2A4D52"/>
            <path d="M361.817285,171.940287 C361.769113,171.944763 361.72094,171.949878 361.671842,171.953715 C359.741245,172.119323 358.099681,171.826471 358.004263,171.299594 C357.909771,170.773355 359.397554,170.21195 361.328151,170.046341 C363.258748,169.880733 364.900311,170.172945 364.995729,170.700462 C365.08281,171.184499 363.828478,171.698588 362.122067,171.906398 L361.817285,171.940287 Z" id="Fill-181" fill="#EDFBFB"/>
        </g>
        <g transform="translate(111.000000, -16.000000) scale(1.1514423076923077 1.1517857142857142)" id="Master/Character/Child">
            <g id="Master/Character/Child" stroke="none" stroke-width="1" fill="none" fill-rule="evenodd">
                <g id="Lower Body/Child Legs" transform="translate(109.000000, 531.000000) scale(1 1)">
                    <g id="Lower Body/Child Legs/Skirt 1" stroke="none" stroke-width="1" fill="none" fill-rule="evenodd">
                        <g id="Group-136" transform="translate(18.000000, 0.000000)">
                            <path d="M139.3099,134.4248 C139.4099,134.2548 139.4799,134.0748 139.5199,133.8748 C139.5999,134.0648 139.5299,134.3048 139.3099,134.4248" id="Fill-1" fill="#e2bcab"/>
                            <path d="M139.5199,133.8648 L139.5199,133.8748 C139.4799,134.0748 139.4099,134.2548 139.3099,134.4248 L139.2999,134.4248 C139.0099,134.9248 138.4699,135.2948 137.7899,135.2948 L113.7399,139.3748 C113.6799,139.3148 113.6399,139.2448 113.5799,139.1748 C112.2399,137.4248 112.1899,133.4448 110.5399,129.8048 C110.5399,129.6448 98.7399,107.1848 98.7399,107.1848 L102.7699,106.7048 L103.3499,106.6348 L118.4699,104.8248 L119.2699,104.7248 L121.4399,104.4648 L123.8099,129.0248 C129.4499,129.1948 136.6099,129.0748 139.1899,132.4748 C139.5199,132.9048 139.6099,133.4048 139.5199,133.8648" id="Fill-4" fill="#2A4D52"/>
                            <path d="M115.3402,73.1045 L112.0902,73.2545 L108.1102,73.4445 C109.3602,72.9845 110.6002,72.4645 111.8202,71.9045 C112.0102,71.8245 112.1902,71.7345 112.3702,71.6445 L115.1102,71.5145 C115.1902,72.0445 115.2602,72.5645 115.3402,73.1045" id="Fill-6" fill="#EDFBFB"/>
                            <path d="M112.37,71.6445 C112.19,71.7345 112.01,71.8245 111.82,71.9045 C111.8,71.8245 111.79,71.7445 111.77,71.6745 L112.37,71.6445 Z" id="Fill-8" fill="#EDFBFB"/>
                            <path d="M115.1102,71.5147 L112.3702,71.6447 C113.2402,71.2447 114.1002,70.8247 114.9402,70.3747 C115.0002,70.7547 115.0502,71.1347 115.1102,71.5147" id="Fill-10" fill="#EDFBFB"/>
                            <path d="M115.8202,76.3247 L112.7402,76.4647 L93.8702,77.3547 C93.8502,77.2947 93.8302,77.2347 93.8102,77.1747 C95.6802,76.9047 97.5302,76.5447 99.3502,76.1247 C100.3202,75.8947 101.2902,75.6447 102.2602,75.3647 C102.2702,75.3547 102.2702,75.3547 102.2802,75.3547 L102.3002,75.3547 L102.3102,75.3547 L112.4302,74.8847 L115.5902,74.7347 C115.6702,75.2547 115.7302,75.7847 115.8202,76.3247" id="Fill-12" fill="#EDFBFB"/>
                            <path d="M93.87,77.3545 L92.45,77.4245 C92.44,77.4045 92.44,77.3945 92.43,77.3745 C92.89,77.3145 93.35,77.2545 93.81,77.1745 C93.83,77.2345 93.85,77.2945 93.87,77.3545" id="Fill-14" fill="#EDFBFB"/>
                            <path d="M116.2801,79.5347 L113.3901,79.6747 L94.9001,80.5547 L93.5201,80.6247 C93.3401,80.0947 93.1601,79.5747 92.9901,79.0447 L94.3901,78.9747 L113.0601,78.0847 L116.0601,77.9447 C116.1301,78.4747 116.2101,78.9947 116.2801,79.5347" id="Fill-16" fill="#EDFBFB"/>
                            <path d="M116.7201,82.7744 L114.0301,82.9044 L95.9401,83.7644 L94.6001,83.8244 C94.4201,83.2944 94.2401,82.7744 94.0601,82.2444 L95.4301,82.1844 L113.7201,81.3144 L116.5101,81.1844 C116.5901,81.7044 116.6501,82.2444 116.7201,82.7744" id="Fill-18" fill="#EDFBFB"/>
                            <path d="M117.1497,86.0044 L114.6897,86.1244 L96.9797,86.9644 L95.6997,87.0244 C95.5197,86.4844 95.3397,85.9544 95.1597,85.4344 L96.4597,85.3744 L114.3697,84.5344 L116.9497,84.4144 C117.0097,84.9544 117.0997,85.4744 117.1497,86.0044" id="Fill-20" fill="#EDFBFB"/>
                            <path d="M117.5599,89.2246 L115.3399,89.3246 L98.0099,90.1246 L96.8199,90.1846 C96.6199,89.6646 96.4399,89.1346 96.2599,88.6146 L97.4999,88.5546 L115.0099,87.7246 L117.3599,87.6146 C117.4399,88.1346 117.5099,88.6746 117.5599,89.2246" id="Fill-22" fill="#EDFBFB"/>
                            <path d="M117.9701,92.4346 L115.9801,92.5246 L99.0401,93.3346 L97.9501,93.3846 C97.7501,92.8646 97.5701,92.3346 97.3901,91.8146 L98.5401,91.7646 L115.6601,90.9446 L117.7701,90.8446 C117.8401,91.3746 117.9001,91.9146 117.9701,92.4346" id="Fill-24" fill="#EDFBFB"/>
                            <path d="M118.3402,95.6646 L116.6302,95.7446 L100.0802,96.5346 L99.0802,96.5846 C98.9002,96.0646 98.7002,95.5346 98.5202,95.0146 L99.5702,94.9646 L116.3102,94.1646 L118.1602,94.0746 C118.2302,94.6146 118.2802,95.1446 118.3402,95.6646" id="Fill-26" fill="#EDFBFB"/>
                            <path d="M118.6898,98.8848 L117.2798,98.9548 L101.1198,99.7348 L100.2498,99.7748 C100.0498,99.2448 99.8498,98.7248 99.6498,98.1948 L100.5998,98.1548 L116.9598,97.3848 L118.5198,97.3148 C118.5898,97.8348 118.6398,98.3648 118.6898,98.8848" id="Fill-28" fill="#EDFBFB"/>
                            <path d="M119.0301,102.1148 L117.9301,102.1648 L102.1501,102.9148 L101.3901,102.9548 C101.2001,102.4248 101.0001,101.9048 100.8201,101.3748 L101.6301,101.3348 L117.6101,100.5848 L118.8701,100.5248 C118.9201,101.0548 118.9701,101.5948 119.0301,102.1148" id="Fill-30" fill="#EDFBFB"/>
                            <path d="M119.2699,104.7246 L118.4699,104.8246 L103.3499,106.6346 L102.7699,106.7046 C102.5099,105.9946 102.2399,105.2846 101.9799,104.5646 L102.6699,104.5346 L118.2599,103.7946 L119.1799,103.7546 C119.2099,104.0746 119.2399,104.4046 119.2699,104.7246" id="Fill-32" fill="#EDFBFB"/>
                            <path d="M115.1102,71.5147 L112.3702,71.6447 C113.2402,71.2447 114.1002,70.8247 114.9402,70.3747 C115.0002,70.7547 115.0502,71.1347 115.1102,71.5147" id="Fill-34" fill="#2A4D52"/>
                            <path d="M115.5902,74.7344 L112.4302,74.8844 L102.3102,75.3544 C104.2602,74.8244 106.1902,74.1844 108.1002,73.4544 L108.1102,73.4444 L112.0902,73.2544 L115.3402,73.1044 L115.5902,74.7344 Z" id="Fill-36" fill="#2A4D52"/>
                            <path d="M116.0599,77.9448 L113.0599,78.0848 L94.3899,78.9748 L92.9899,79.0448 C92.7999,78.5048 92.6199,77.9448 92.4499,77.4248 L93.8699,77.3548 L112.7399,76.4648 L115.8199,76.3248 C115.8999,76.8648 115.9799,77.4048 116.0599,77.9448" id="Fill-38" fill="#2A4D52"/>
                            <path d="M116.5101,81.1846 L113.7201,81.3146 L95.4301,82.1846 L94.0601,82.2446 C93.8801,81.7046 93.7001,81.1646 93.5201,80.6246 L94.9001,80.5546 L113.3901,79.6746 L116.2801,79.5346 C116.3601,80.0846 116.4401,80.6246 116.5101,81.1846" id="Fill-40" fill="#2A4D52"/>
                            <path d="M116.95,84.4146 L114.37,84.5346 L96.46,85.3746 L95.16,85.4346 C94.96,84.8846 94.78,84.3446 94.6,83.8246 L95.94,83.7646 L114.03,82.9046 L116.72,82.7746 C116.8,83.3146 116.88,83.8746 116.95,84.4146" id="Fill-42" fill="#2A4D52"/>
                            <path d="M117.3602,87.6148 L115.0102,87.7248 L97.5002,88.5548 L96.2602,88.6148 C96.0602,88.0748 95.8802,87.5448 95.7002,87.0248 L96.9802,86.9648 L114.6902,86.1248 L117.1502,86.0048 C117.2302,86.5448 117.2902,87.0748 117.3602,87.6148" id="Fill-44" fill="#2A4D52"/>
                            <path d="M117.7699,90.8447 L115.6599,90.9447 L98.5399,91.7647 L97.3899,91.8147 C97.1899,91.2747 96.9999,90.7347 96.8199,90.1847 L98.0099,90.1247 L115.3399,89.3247 L117.5599,89.2247 C117.6399,89.7647 117.6999,90.3047 117.7699,90.8447" id="Fill-46" fill="#2A4D52"/>
                            <path d="M118.16,94.0747 L116.31,94.1647 L99.57,94.9647 L98.52,95.0147 C98.33,94.4747 98.13,93.9247 97.95,93.3847 L99.04,93.3347 L115.98,92.5247 L117.97,92.4347 C118.03,92.9947 118.1,93.5347 118.16,94.0747" id="Fill-48" fill="#2A4D52"/>
                            <path d="M118.5199,97.3145 L116.9599,97.3845 L100.5999,98.1545 L99.6499,98.1945 C99.4699,97.6545 99.2799,97.1145 99.0799,96.5845 L100.0799,96.5345 L116.6299,95.7445 L118.3399,95.6645 C118.4099,96.2145 118.4599,96.7645 118.5199,97.3145" id="Fill-50" fill="#2A4D52"/>
                            <path d="M118.87,100.5244 L117.61,100.5844 L101.63,101.3344 L100.82,101.3744 C100.62,100.8544 100.43,100.3144 100.25,99.7744 L101.12,99.7344 L117.28,98.9544 L118.69,98.8844 C118.75,99.4444 118.82,99.9844 118.87,100.5244" id="Fill-52" fill="#2A4D52"/>
                            <path d="M119.18,103.7544 L118.26,103.7944 L102.67,104.5344 L101.98,104.5644 C101.79,104.0244 101.59,103.4944 101.39,102.9544 L102.15,102.9144 L117.93,102.1644 L119.03,102.1144 C119.08,102.6544 119.13,103.2144 119.18,103.7544" id="Fill-54" fill="#2A4D52"/>
                            <path d="M37.1302,107.5947 C36.4402,108.1947 35.7402,108.7847 35.0402,109.3747 L26.2702,96.5747 L25.5602,95.5547 L25.5602,95.5447 C25.8702,95.0947 26.1702,94.6547 26.4902,94.1947 L27.4202,95.3747 L37.1302,107.5947 Z" id="Fill-56" fill="#EDFBFB"/>
                            <path d="M39.5702,105.4649 C39.1702,105.8249 38.7702,106.1749 38.3702,106.5149 L28.5602,94.1749 L27.4502,92.7749 L27.4502,92.7649 C27.7602,92.2949 28.0702,91.8349 28.3902,91.3749 L29.6602,92.9749 L39.5702,105.4649 Z" id="Fill-58" fill="#EDFBFB"/>
                            <path d="M41.9901,103.3145 C41.5901,103.6645 41.2001,104.0145 40.8101,104.3645 L30.7701,91.7545 L29.3601,89.9745 C29.6701,89.5045 29.9801,89.0345 30.2901,88.5745 L31.8501,90.5345 L41.9901,103.3145 Z" id="Fill-60" fill="#EDFBFB"/>
                            <path d="M44.39,101.1148 C44,101.4748 43.6,101.8348 43.21,102.1948 L32.94,89.2848 L31.26,87.1648 C31.58,86.7148 31.89,86.2448 32.21,85.7948 L34,88.0448 L44.39,101.1148 Z" id="Fill-62" fill="#EDFBFB"/>
                            <path d="M44.4398,101.1846 C44.0398,101.5646 43.6498,101.9046 43.2598,102.2646 C42.8598,102.6346 42.4298,102.9946 42.0298,103.3646 C41.6398,103.7346 41.2498,104.0746 40.8498,104.4246 C40.4398,104.7946 40.0298,105.1646 39.6198,105.5246 C39.2198,105.8846 38.8198,106.2346 38.4298,106.5946 C38.0198,106.9446 37.5998,107.3146 37.1898,107.6646 L37.1798,107.6646 C36.4898,108.2846 35.7898,108.8846 35.0998,109.4746 L35.0398,109.3746 C35.7398,108.7846 36.4398,108.1946 37.1298,107.5946 C37.5498,107.2346 37.9598,106.8746 38.3698,106.5146 C38.7698,106.1746 39.1698,105.8246 39.5698,105.4646 C39.9798,105.1046 40.3998,104.7346 40.8098,104.3646 C41.1998,104.0146 41.5898,103.6646 41.9898,103.3146 C42.3898,102.9446 42.7998,102.5746 43.2098,102.1946 C43.5998,101.8346 43.9998,101.4746 44.3898,101.1146 L44.4398,101.1846 Z" id="Fill-64" fill="#EDFBFB"/>
                            <path d="M46.7699,98.8848 C46.3899,99.2448 45.9999,99.6148 45.5999,99.9848 L35.0699,86.7448 L33.1999,84.3848 L33.1999,84.3748 C33.5099,83.9148 33.8299,83.4548 34.1499,83.0048 L36.1099,85.4748 L46.7699,98.8848 Z" id="Fill-66" fill="#EDFBFB"/>
                            <path d="M48.0301,97.8545 C47.6301,98.2545 47.2401,98.6145 46.8401,98.9845 C46.4501,99.3445 46.0501,99.7045 45.6601,100.0645 L45.6001,99.9845 C46.0001,99.6145 46.3901,99.2445 46.7701,98.8845 L46.8401,98.9745 C47.2401,98.6045 47.6401,98.2345 48.0301,97.8545" id="Fill-68" fill="#EDFBFB"/>
                            <path d="M49.2201,96.7544 C48.8401,97.1444 48.4501,97.5044 48.0401,97.8544 L48.0301,97.8544 L47.9501,97.7444 L37.1601,84.1444 L35.1301,81.5944 L35.1301,81.5844 C35.4401,81.1244 35.7601,80.6744 36.0901,80.2244 L38.1701,82.8444 L49.1101,96.6244 L49.2201,96.7544 Z" id="Fill-70" fill="#EDFBFB"/>
                            <path d="M51.5799,94.5547 C51.1799,94.9247 50.7999,95.2947 50.4099,95.6447 L50.3999,95.6447 L50.2699,95.4847 L39.1899,81.5247 L37.0499,78.8347 C37.3799,78.3747 37.7099,77.9247 38.0299,77.4747 L40.1899,80.1947 L51.4199,94.3547 L51.5799,94.5547 Z" id="Fill-72" fill="#EDFBFB"/>
                            <path d="M53.9398,92.3047 C53.5598,92.6947 53.1698,93.0547 52.7798,93.4147 C52.5798,93.6047 52.3798,93.7947 52.1798,93.9847 C52.3798,93.7947 52.5798,93.5947 52.7798,93.4047 L52.5898,93.1647 L41.1898,78.8347 L39.0098,76.0847 L39.0098,76.0747 C39.3298,75.6247 39.6498,75.1747 39.9698,74.7247 L42.1598,77.4847 L53.7198,92.0247 L53.9398,92.3047 Z" id="Fill-74" fill="#EDFBFB"/>
                            <path d="M58.64,87.7944 C58.27,88.1644 57.88,88.5244 57.49,88.9144 C57.09,89.2944 56.7,89.6744 56.31,90.0644 C55.92,90.4244 55.55,90.7944 55.14,91.1644 L54.87,90.8244 L43.16,76.0744 L40.97,73.3244 C41.29,72.8744 41.61,72.4144 41.94,71.9744 L44.11,74.7044 L55.99,89.6544 L56.31,90.0544 C56.7,89.6744 57.09,89.2944 57.48,88.9044 L57.13,88.4544 L45.08,73.2744 L42.94,70.5944 L42.94,70.5844 C43.28,70.1144 43.58,69.6844 43.91,69.2444 L46,71.8844 L58.23,87.2744 L58.64,87.7944 Z" id="Fill-76" fill="#EDFBFB"/>
                            <path d="M63.2899,83.2344 C62.9199,83.6244 62.5399,83.9944 62.1499,84.3844 C61.7599,84.7644 61.3699,85.1444 60.9799,85.5344 C60.5999,85.9044 60.2099,86.2644 59.8199,86.6444 L46.9499,70.4444 C47.0599,70.2744 47.1699,70.0944 47.2799,69.9244 C48.0099,70.3244 48.7499,70.7044 49.4899,71.0844 L49.4999,71.0944 L49.5099,71.0944 L60.9699,85.5244 C61.3599,85.1444 61.7599,84.7644 62.1499,84.3744 L52.7799,72.5744 C53.7599,73.0044 54.7599,73.3944 55.7599,73.7544 L62.6199,82.3944 L63.2899,83.2344 Z" id="Fill-78" fill="#EDFBFB"/>
                            <path d="M47.2801,69.9248 C47.1701,70.0948 47.0601,70.2748 46.9501,70.4448 L45.9401,69.1648 C46.3801,69.4248 46.8301,69.6848 47.2801,69.9248" id="Fill-80" fill="#EDFBFB"/>
                            <path d="M65.6898,80.8648 C65.2898,81.2748 64.8898,81.6748 64.4798,82.0848 C64.0798,82.4648 63.6898,82.8448 63.2898,83.2348 C63.6898,82.8448 64.0798,82.4648 64.4698,82.0748 L63.7198,81.1248 L58.6398,74.7348 C59.5798,75.0448 60.5298,75.3148 61.4698,75.5648 L61.4798,75.5648 L64.8498,79.8048 L65.6898,80.8648 Z" id="Fill-82" fill="#EDFBFB"/>
                            <path d="M68.4398,78.1348 C68.0198,78.5548 67.6198,78.9748 67.1798,79.3848 C67.0798,79.4848 66.9698,79.5948 66.8698,79.6948 L65.9298,78.5248 L64.0898,76.2048 C65.1598,76.4648 66.2298,76.6748 67.3098,76.8648 C67.3398,76.8748 67.3598,76.8848 67.3898,76.8748 L67.3998,76.8748 C67.4098,76.8848 67.4098,76.8948 67.4198,76.8848 L67.4298,76.8948 L68.4398,78.1348 Z" id="Fill-84" fill="#EDFBFB"/>
                            <path d="M67.39,76.8745 C67.36,76.8845 67.34,76.8745 67.31,76.8645 C67.32,76.8545 67.33,76.8445 67.33,76.8345 C67.35,76.8445 67.37,76.8645 67.39,76.8745" id="Fill-86" fill="#EDFBFB"/>
                            <path d="M64.4701,82.0747 C64.0801,82.4647 63.6901,82.8447 63.2901,83.2347 L62.6201,82.3947 L55.7601,73.7547 C56.7101,74.1147 57.6801,74.4347 58.6401,74.7347 L63.7201,81.1247 L64.4701,82.0747 Z" id="Fill-88" fill="#2A4D52"/>
                            <path d="M62.1497,84.3745 C61.7597,84.7645 61.3597,85.1445 60.9697,85.5245 L49.5097,71.0945 C50.5897,71.6145 51.6697,72.1145 52.7797,72.5745 L62.1497,84.3745 Z" id="Fill-90" fill="#2A4D52"/>
                            <path d="M59.8202,86.6445 L58.6402,87.7945 L46.0002,71.8845 L43.9102,69.2445 C44.1302,68.9345 44.3602,68.6345 44.5802,68.3445 C45.0302,68.6345 45.4702,68.9045 45.9302,69.1645 L45.9402,69.1645 L46.9502,70.4445 L59.8202,86.6445 Z" id="Fill-92" fill="#2A4D52"/>
                            <path d="M57.4798,88.9048 C57.0898,89.2948 56.6998,89.6748 56.3098,90.0548 L55.9898,89.6548 L44.1098,74.7048 L41.9398,71.9748 C42.2598,71.5048 42.5998,71.0348 42.9398,70.5948 L45.0798,73.2748 L57.1298,88.4548 L57.4798,88.9048 Z" id="Fill-94" fill="#2A4D52"/>
                            <path d="M55.14,91.1646 C54.75,91.5446 54.36,91.9246 53.94,92.3046 L53.72,92.0246 L42.16,77.4846 L39.97,74.7246 L39.97,74.7146 C40.3,74.2546 40.64,73.7846 40.97,73.3246 L43.16,76.0746 L54.87,90.8246 L55.14,91.1646 Z" id="Fill-96" fill="#2A4D52"/>
                            <path d="M40.9701,73.3247 C40.6401,73.7847 40.3001,74.2547 39.9701,74.7147 L39.9701,74.7247 L39.9601,74.7147 C40.3001,74.2447 40.6301,73.7847 40.9701,73.3247" id="Fill-98" fill="#2A4D52"/>
                            <path d="M52.7801,93.4048 C52.5801,93.5948 52.3801,93.7948 52.1801,93.9848 C51.9801,94.1748 51.7801,94.3748 51.5801,94.5548 L51.4201,94.3548 L40.1901,80.1948 L38.0301,77.4748 L38.0301,77.4648 C38.3501,76.9948 38.6801,76.5348 39.0101,76.0848 L41.1901,78.8348 L52.5901,93.1648 L52.7801,93.4048 Z" id="Fill-100" fill="#2A4D52"/>
                            <path d="M39.0101,76.0845 C38.6801,76.5345 38.3501,76.9945 38.0301,77.4645 L38.0301,77.4745 L38.0201,77.4645 C38.3501,76.9845 38.6801,76.5245 39.0001,76.0745 L39.0101,76.0845 Z" id="Fill-102" fill="#2A4D52"/>
                            <path d="M50.3997,95.6445 C50.0097,96.0245 49.6197,96.3845 49.2197,96.7545 L49.1097,96.6245 L38.1697,82.8445 L36.0897,80.2245 L36.0897,80.2145 C36.2497,79.9745 36.4097,79.7445 36.5697,79.5145 C36.7297,79.2845 36.8897,79.0545 37.0497,78.8345 L39.1897,81.5245 L50.2697,95.4845 L50.3997,95.6445 Z" id="Fill-104" fill="#2A4D52"/>
                            <path d="M36.5702,79.5147 C36.4102,79.7447 36.2502,79.9747 36.0902,80.2147 L36.0902,80.2247 L36.0802,80.2147 C36.2402,79.9747 36.4102,79.7447 36.5702,79.5147" id="Fill-106" fill="#2A4D52"/>
                            <path d="M48.0301,97.8545 C47.6401,98.2345 47.2401,98.6045 46.8401,98.9745 L46.7701,98.8845 L36.1101,85.4745 L34.1501,83.0045 C34.4701,82.5245 34.8001,82.0645 35.1301,81.5945 L37.1601,84.1445 L47.9501,97.7445 L48.0301,97.8545 Z" id="Fill-108" fill="#2A4D52"/>
                            <path d="M45.66,100.0645 C45.25,100.4445 44.85,100.8145 44.44,101.1845 L44.39,101.1145 L34,88.0445 L32.21,85.7945 C32.38,85.5545 32.54,85.3145 32.7,85.0745 C32.87,84.8445 33.03,84.6145 33.2,84.3845 L35.07,86.7445 L45.6,99.9845 L45.66,100.0645 Z" id="Fill-110" fill="#2A4D52"/>
                            <path d="M33.2,84.3848 C33.03,84.6148 32.87,84.8448 32.7,85.0748 C32.86,84.8348 33.02,84.6048 33.19,84.3748 L33.2,84.3848 Z" id="Fill-112" fill="#2A4D52"/>
                            <path d="M43.2098,102.1948 C42.7998,102.5748 42.3898,102.9448 41.9898,103.3148 L31.8498,90.5348 L30.2898,88.5748 C30.6298,88.1148 30.9498,87.6348 31.2598,87.1648 L32.9398,89.2848 L43.2098,102.1948 Z" id="Fill-114" fill="#2A4D52"/>
                            <path d="M43.2601,102.2647 C42.8601,102.6347 42.4301,102.9947 42.0301,103.3647 L41.9901,103.3147 C42.3901,102.9447 42.8001,102.5747 43.2101,102.1947 L43.2601,102.2647 Z" id="Fill-116" fill="#2A4D52"/>
                            <path d="M40.8099,104.3648 C40.3999,104.7348 39.9799,105.1048 39.5699,105.4648 L29.6599,92.9748 L28.3899,91.3748 C28.6999,90.9148 29.0299,90.4348 29.3599,89.9748 L30.7699,91.7548 L40.8099,104.3648 Z" id="Fill-118" fill="#2A4D52"/>
                            <path d="M40.8499,104.4248 C40.4399,104.7948 40.0299,105.1648 39.6199,105.5248 L39.5699,105.4648 C39.9799,105.1048 40.3999,104.7348 40.8099,104.3648 L40.8499,104.4248 Z" id="Fill-120" fill="#2A4D52"/>
                            <path d="M38.37,106.5147 C37.96,106.8747 37.55,107.2347 37.13,107.5947 L27.42,95.3747 L26.49,94.1947 L26.49,94.1847 C26.81,93.7047 27.12,93.2547 27.45,92.7747 L28.56,94.1747 L38.37,106.5147 Z" id="Fill-122" fill="#2A4D52"/>
                            <path d="M27.4398,92.7647 L27.4498,92.7747 C27.1198,93.2547 26.8098,93.7047 26.4898,94.1847 L26.4898,94.1947 L26.4798,94.1847 C26.8098,93.7047 27.1198,93.2347 27.4398,92.7647" id="Fill-124" fill="#2A4D52"/>
                            <path d="M38.43,106.5845 C38.02,106.9445 37.6,107.3045 37.19,107.6645 L37.18,107.6645 L37.13,107.5945 C37.55,107.2345 37.96,106.8745 38.37,106.5145 L38.43,106.5845 Z" id="Fill-126" fill="#2A4D52"/>
                            <path d="M66.87,79.6948 C66.48,80.0848 66.09,80.4748 65.69,80.8648 L64.85,79.8048 L61.48,75.5648 C62.22,75.7648 62.96,75.9548 63.7,76.1248 C63.83,76.1548 63.96,76.1848 64.09,76.2048 L65.93,78.5248 L66.87,79.6948 Z" id="Fill-128" fill="#2A4D52"/>
                            <path d="M69.45,77.2149 L68.66,77.9149 C68.64,77.9249 68.64,77.9249 68.63,77.9349 C68.56,78.0049 68.5,78.0649 68.44,78.1349 L67.43,76.8949 L67.42,76.8849 C68.08,77.0049 68.75,77.1149 69.42,77.2049 L69.44,77.2049 C69.44,77.2049 69.44,77.2149 69.45,77.2149" id="Fill-130" fill="#2A4D52"/>
                            <path d="M15.37,124.5044 C17.83,129.5744 20.95,135.2444 19.13,139.1044 C18.5,140.4144 16.65,140.4544 15.98,139.1644 L0,119.2644 C0.03,119.1844 0.07,119.1044 0.1,119.0344 C1.03,117.0344 5.77,115.6144 8.24,112.4644 C8.32,112.4644 22.82,91.5444 22.82,91.5444 L25.56,95.5444 L25.56,95.5544 L26.27,96.5744 L35.04,109.3744 L35.1,109.4744 L35.74,110.4044 L15.37,124.5044 Z" id="Fill-132" fill="#2A4D52"/>
                            <path d="M30.5899,55.0329 C31.5299,56.5729 34.1799,59.7829 34.2599,59.8429 C38.5099,64.4729 49.5199,71.0329 49.5199,71.0329 C54.0699,73.2729 58.8999,74.9529 63.7199,76.0729 C66.5399,76.7429 69.4199,77.2229 72.3199,77.5129 C72.5099,77.5429 72.7099,77.5629 72.8999,77.5829 C75.7599,77.8729 78.6599,77.9829 81.5499,77.9329 C84.5199,77.9829 87.4899,77.8629 90.4299,77.5529 C91.6199,77.4329 92.8099,77.2829 93.9899,77.0929 C95.7999,76.8329 97.5999,76.4829 99.3699,76.0729 C105.2699,74.7029 111.1999,72.4929 116.5999,69.4229 C116.5999,69.4029 125.3299,63.6429 128.8099,59.8429 C128.8699,59.7829 128.9199,59.7129 128.9899,59.6529 C131.8299,56.4929 133.7599,53.2829 134.6399,50.3129 C134.6399,50.3129 112.301372,0 112.301372,0 L55.2601,0 C51.3631,10.065 35.2869,43.8159 33.0199,49.2329 C31.4899,52.8729 30.5999,55.0029 30.5899,55.0329 Z" id="Fill-134" fill="#2A4D52"/>
                        </g>
                    </g>
                </g>
                <g id="Upper Body/Child Torso" transform="translate(150.000000, 472.000000) scale(1 1)">
                    <g id="Upper Body/Child Torso/Tshirt" stroke="none" stroke-width="1" fill="none" fill-rule="evenodd">
                        <g id="Group-62" transform="translate(18.000000, -2.000000)">
                            <path d="M20.8414035,50.6946 C20.5888092,50.7946 20.3362148,50.8846 20.0937242,50.9746 C18.0123469,51.7346 16.3755356,52.2946 15.4156771,52.4846 C15.3045356,52.5046 15.1933941,52.5046 15.0721488,52.4646 L15.0721488,52.4546 C17.2343563,51.6546 19.1338658,51.1246 20.1341393,50.8646 C20.507979,50.7646 20.7504695,50.7146 20.8414035,50.6946" id="Fill-1" fill="#e2bcab"/>
                            <path d="M104.824071,7.6248 C104.510854,8.0748 104.056184,8.4148 103.581306,8.7048 C103.096325,8.9748 102.540618,9.1048 101.995014,9.1948 C100.903806,9.3848 99.7822875,9.2848 98.7618064,8.9148 C98.7517026,8.9148 98.7517026,8.8948 98.7517026,8.8848 C98.7517026,8.8748 98.7618064,8.8648 98.782014,8.8648 C99.8227026,9.0948 100.903806,9.0648 101.914184,8.8048 C102.419372,8.6748 102.884146,8.4548 103.359023,8.2548 C103.844005,8.0648 104.298674,7.8148 104.793759,7.5848 C104.803863,7.5748 104.813967,7.5848 104.824071,7.5848 C104.834174,7.5948 104.834174,7.6048 104.824071,7.6248 M106.784203,0.3848 C105.359571,-1.1552 98.2162026,2.2948 97.1350989,4.2648 C96.0438913,6.2348 98.4586932,8.7348 98.4586932,8.7348 L93.8311649,9.6448 C90.9313819,10.2248 89.0217687,12.9948 89.5673725,15.8748 C89.7694479,16.9448 89.9917309,18.0048 90.1938064,18.8348 L90.1938064,18.8448 C90.2645328,19.1648 85.6774196,30.4348 84.4952781,36.4948 C83.0302309,35.4748 81.5651838,34.4548 80.1001366,33.4348 L79.2615234,34.5648 L72.5526177,43.6748 L72.5526177,43.6848 C72.4212687,43.8748 72.3101272,44.0748 72.3000234,44.3048 C72.2798158,44.4948 72.3303347,44.6748 72.4010611,44.8448 L72.4616838,45.0048 L72.8860423,46.0848 L75.7252026,53.1748 L75.7757215,53.2848 C76.0283158,53.8548 76.3011177,54.4248 76.6143347,54.9648 C77.7762687,56.9648 79.41308,58.6348 81.0397875,60.2848 C83.3939668,62.6848 85.9502215,65.1948 89.2541555,65.9348 C91.4971932,66.4348 93.8513725,66.0448 96.0640989,65.4048 C98.9032592,64.5848 101.782835,63.2348 103.399438,60.7848 C104.41992,59.2348 104.854382,57.3848 104.915005,55.5248 C104.925108,55.2148 104.925108,54.8948 104.915005,54.5748 C104.854382,52.4248 104.379505,50.2948 103.975354,48.1748 C103.035703,43.2948 102.479995,38.3648 101.712108,33.4648 C101.328165,30.9548 100.883599,28.4548 100.29758,25.9848 C100.014674,24.7548 99.6913536,23.5248 99.3276177,22.3148 C99.22658,21.9848 98.6405611,20.7548 98.782014,20.6548 C102.97508,17.7048 111.421835,11.6748 111.957335,10.4048 C112.674703,8.6948 108.208835,1.9248 106.784203,0.3848" id="Fill-3" fill="#e2bcab"/>
                            <path d="M75.7250006,53.1731 C75.4521987,52.5631 75.2097081,51.9431 74.9672175,51.3231 C74.2700572,49.5731 73.5830006,47.8331 72.8858402,46.0831 L75.7250006,53.1731 Z" id="Fill-5" fill="#e2bcab"/>
                            <path d="M80.1004397,33.4348 L79.2618265,34.5648 C79.5346284,34.1848 79.8175341,33.8148 80.0903359,33.4348 L80.1004397,33.4348 Z" id="Fill-7" fill="#e2bcab"/>
                            <path d="M76.4526743,54.9749 C76.3718442,54.8749 76.291014,54.7649 76.2101838,54.6549 L76.1899762,54.6149 C75.8666555,54.1949 75.5534385,53.7649 75.2301177,53.3149 L75.220014,53.3049 L74.1793253,50.9649 C73.3205045,48.9449 72.4818913,46.9249 71.6634857,44.8949 C71.4108913,44.2949 71.158297,43.6849 70.9158064,43.0749 C70.3904102,41.7549 69.7942875,40.4549 69.3194102,39.1149 L67.8644668,35.0949 C67.3592781,33.7649 67.5714574,33.7049 68.1069574,35.0149 L69.6326272,38.9949 C70.1277121,40.3249 70.7440423,41.6149 71.289646,42.9249 C71.5119291,43.4449 71.7443158,43.9549 71.9665989,44.4749 L72.1484668,44.2349 L72.4010611,44.8449 L72.4616838,45.0049 L72.8860423,46.0849 L75.7252026,53.1749 L75.7757215,53.2849 L76.4526743,54.9749 Z" id="Fill-9" fill="#e2bcab"/>
                            <path d="M80.1004397,33.4348 L79.2618265,34.5648 C79.5346284,34.1848 79.8175341,33.8148 80.0903359,33.4348 L80.1004397,33.4348 Z" id="Fill-11" fill="#e2bcab"/>
                            <path d="M104.823666,7.5828 C104.83377,7.5928 104.83377,7.6028 104.823666,7.6228 C104.510449,8.0728 104.05578,8.4128 103.580902,8.7028 C103.095921,8.9728 102.540214,9.1028 101.99461,9.1928 C100.903402,9.3828 99.7818834,9.2828 98.7614023,8.9128 C98.7512985,8.9128 98.7512985,8.8928 98.7512985,8.8828 C98.7512985,8.8728 98.7614023,8.8628 98.7816098,8.8628 C99.8222985,9.0928 100.903402,9.0628 101.91378,8.8028 C102.418968,8.6728 102.883742,8.4528 103.358619,8.2528 C103.8436,8.0628 104.29827,7.8128 104.793355,7.5828 C104.803459,7.5728 104.813563,7.5828 104.823666,7.5828" id="Fill-13" fill="#e2bcab"/>
                            <path d="M58.750762,40.8445 C58.750762,40.8545 58.7305544,40.8645 58.7204507,40.8545 C58.5789978,40.8145 58.437545,40.7745 58.2960922,40.7245 C57.4170639,40.4145 56.5986582,39.8945 55.9318092,39.2245 C55.537762,38.8345 55.1639224,38.4145 54.9315356,37.9045 C54.7092525,37.4045 54.5475922,36.8645 54.5576959,36.3145 C54.5576959,36.2945 54.5677997,36.2845 54.5880073,36.2845 C54.598111,36.2845 54.6082148,36.2945 54.6082148,36.2945 C54.8810167,36.7745 55.0931959,37.2445 55.3761016,37.6745 C55.6489035,38.1045 55.9014978,38.5545 56.2248186,38.9545 C56.7906299,39.6245 57.5079978,40.1945 58.3061959,40.6045 C58.4476488,40.6745 58.5891016,40.7445 58.7406582,40.8045 C58.750762,40.8145 58.7608658,40.8345 58.750762,40.8445" id="Fill-15" fill="#2A8C79"/>
                            <path d="M71.9665989,44.4749 L71.9665989,44.4849 L71.6634857,44.8949 C71.4108913,44.2949 71.158297,43.6849 70.9158064,43.0749 C70.3904102,41.7549 69.7942875,40.4549 69.3194102,39.1149 L67.8644668,35.0949 C67.3592781,33.7649 67.5714574,33.7049 68.1069574,35.0149 L69.6326272,38.9949 C70.1277121,40.3249 70.7440423,41.6149 71.289646,42.9249 C71.5119291,43.4449 71.7443158,43.9549 71.9665989,44.4749" id="Fill-17" fill="#2A8C79"/>
                            <path d="M80.1004397,33.4348 L79.2618265,34.5648 C79.5346284,34.1848 79.8175341,33.8148 80.0903359,33.4348 L80.1004397,33.4348 Z" id="Fill-19" fill="#2A8C79"/>
                            <path d="M44.5551622,40.3045 L41.8776622,43.6445 C41.8574546,43.6745 41.8372471,43.7145 41.8069358,43.7445 C41.6654829,43.7545 41.5139263,43.7545 41.3724735,43.7745 C41.4533037,43.6645 41.5341339,43.5545 41.6250678,43.4445 L44.3530867,40.1545 C45.2523225,39.0345 45.4240867,39.1845 44.5551622,40.3045" id="Fill-21" fill="#2A8C79"/>
                            <path d="M58.750762,40.8445 C58.750762,40.8545 58.7305544,40.8645 58.7204507,40.8545 C58.5789978,40.8145 58.437545,40.7745 58.2960922,40.7245 C57.4170639,40.4145 56.5986582,39.8945 55.9318092,39.2245 C55.537762,38.8345 55.1639224,38.4145 54.9315356,37.9045 C54.7092525,37.4045 54.5475922,36.8645 54.5576959,36.3145 C54.5576959,36.2945 54.5677997,36.2845 54.5880073,36.2845 C54.598111,36.2845 54.6082148,36.2945 54.6082148,36.2945 C54.8810167,36.7745 55.0931959,37.2445 55.3761016,37.6745 C55.6489035,38.1045 55.9014978,38.5545 56.2248186,38.9545 C56.7906299,39.6245 57.5079978,40.1945 58.3061959,40.6045 C58.4476488,40.6745 58.5891016,40.7445 58.7406582,40.8045 C58.750762,40.8145 58.7608658,40.8345 58.750762,40.8445" id="Fill-23" fill="#2A8C79"/>
                            <path d="M57.5687215,86.6848 C57.4979951,86.9748 57.4171649,87.2648 57.3363347,87.5748 C57.4171649,87.2948 63.4996366,86.8648 64.6110517,86.7948 C64.6716743,86.7948 64.7221932,86.7848 64.7828158,86.7748 L57.5687215,86.6848 Z" id="Fill-25" fill="#2A8C79"/>
                            <path d="M41.8776622,43.6445 C41.8574546,43.6745 41.8372471,43.7145 41.8069358,43.7445 C41.6654829,43.7545 41.5139263,43.7545 41.3724735,43.7745 C41.4533037,43.6645 41.5341339,43.5545 41.6250678,43.4445 L44.3530867,40.1545 C45.2523225,39.0345 45.4240867,39.1845 44.5551622,40.3045 L41.8776622,43.6445 Z M86.243332,79.3845 L85.8088697,78.3345 L85.7280395,78.1045 L85.4350301,77.3645 L84.9904641,76.2745 L84.6873508,75.5445 L83.4243792,72.3845 L83.1212659,71.6245 L82.9292942,71.1545 L82.6362848,70.4145 L81.6562188,67.9745 L81.3632093,67.2245 L81.019681,66.3845 L80.7266716,65.6445 L76.4527754,54.9845 L76.4527754,54.9745 C76.3719452,54.8745 76.291115,54.7645 76.2102848,54.6545 L76.2405961,54.7345 C76.4931905,55.4045 76.200181,55.5145 75.9172754,54.8645 L75.2302188,53.3145 L75.220115,53.3045 L74.1794263,50.9645 C73.3206056,48.9445 72.4819924,46.9245 71.6635867,44.8945 C71.4109924,44.2945 71.158398,43.6845 70.9159075,43.0745 C70.3905112,41.7545 69.7943886,40.4545 69.3195112,39.1145 L67.8645678,35.0945 C67.3593792,33.7645 67.5715584,33.7045 68.1070584,35.0145 L69.6327282,38.9945 C70.1278131,40.3245 70.7441433,41.6145 71.2897471,42.9245 C71.5120301,43.4445 71.7444169,43.9545 71.9666999,44.4745 L72.1485678,44.2345 L72.1485678,44.2245 L72.5527188,43.6845 L72.5527188,43.6745 L79.2616244,34.5645 C79.5344263,34.1845 79.817332,33.8145 80.0901339,33.4345 L80.1002376,33.4345 L80.1406527,33.3745 C81.019681,32.1645 64.8031244,19.6645 63.3178697,18.3445 C59.9735207,15.3445 57.4846066,14.7832408 56.6560972,14.2032408 C56.1037576,13.8165741 50.1035335,13.8165741 38.6554248,14.2032408 C34.6038116,15.0332408 31.0767282,18.0945 28.1971527,21.0845 C26.6310678,22.7245 25.1559169,24.4045 23.7413886,26.1245 C20.0130961,30.6345 16.6586433,35.3445 12.8697282,39.9145 L13.1728414,40.1545 L13.1728414,40.1645 L13.7992754,40.6545 C9.94364489,54.4880829 8.01582965,61.4048743 8.01582965,61.4048743 L0,78.1045 C0.0303113208,78.1245 11.7684169,82.2745 13.4860584,82.8645 C16.4565678,83.8945 19.4876999,84.7345 22.5592471,85.4045 C23.2867188,85.5645 26.267332,86.1445 27.025115,86.2745 L27.0453225,86.2745 C33.5521527,87.4145 40.2004358,87.8845 46.7779924,88.0045 L46.7880961,88.0045 C47.0912093,87.9945 52.1127848,87.8745 55.5682754,87.6945 C55.8309735,87.6745 56.0936716,87.6645 56.3361622,87.6445 C56.699898,87.6245 57.0333225,87.5945 57.3364358,87.5745 C57.4172659,87.2645 57.4980961,86.9745 57.5688225,86.6845 L64.7829169,86.7745 L64.8031244,86.7745 C64.9748886,86.7545 65.1668603,86.7145 65.3992471,86.6845 C65.5204924,86.6645 65.6518414,86.6445 65.7831905,86.6245 C67.7938414,86.2845 71.1685018,85.6445 72.4011622,85.3945 C72.5527188,85.3545 72.6739641,85.3345 72.7547942,85.3145 C74.7452376,84.8845 76.7255773,84.3645 78.6857093,83.7645 C81.3531056,82.9645 83.9800867,82.0045 86.5464452,80.8845 C86.5969641,80.8645 86.6575867,80.8445 86.7081056,80.8145 C86.7485207,80.8045 86.7586244,80.8045 86.7889358,80.7845 L86.243332,79.3845 Z" id="Fill-27" fill="#2A8C79"/>
                            <path d="M20.8414035,50.6946 C20.5888092,50.7946 20.3362148,50.8846 20.0937242,50.9746 L20.1341393,50.8646 C20.507979,50.7646 20.7504695,50.7146 20.8414035,50.6946" id="Fill-29" fill="#2A8C79"/>
                            <path d="M44.5551622,40.3045 L41.8776622,43.6445 C41.8574546,43.6745 41.8372471,43.7145 41.8069358,43.7445 C41.6654829,43.7545 41.5139263,43.7545 41.3724735,43.7745 C41.4533037,43.6645 41.5341339,43.5545 41.6250678,43.4445 L44.3530867,40.1545 C45.2523225,39.0345 45.4240867,39.1845 44.5551622,40.3045" id="Fill-31" fill="#2A8C79"/>
                            <path d="M58.750762,40.8445 C58.750762,40.8545 58.7305544,40.8645 58.7204507,40.8545 C58.5789978,40.8145 58.437545,40.7745 58.2960922,40.7245 C57.4170639,40.4145 56.5986582,39.8945 55.9318092,39.2245 C55.537762,38.8345 55.1639224,38.4145 54.9315356,37.9045 C54.7092525,37.4045 54.5475922,36.8645 54.5576959,36.3145 C54.5576959,36.2945 54.5677997,36.2845 54.5880073,36.2845 C54.598111,36.2845 54.6082148,36.2945 54.6082148,36.2945 C54.8810167,36.7745 55.0931959,37.2445 55.3761016,37.6745 C55.6489035,38.1045 55.9014978,38.5545 56.2248186,38.9545 C56.7906299,39.6245 57.5079978,40.1945 58.3061959,40.6045 C58.4476488,40.6745 58.5891016,40.7445 58.7406582,40.8045 C58.750762,40.8145 58.7608658,40.8345 58.750762,40.8445" id="Fill-33" fill="#2A8C79"/>
                            <path d="M76.2404951,54.7346 C76.4930894,55.4046 76.20008,55.5146 75.9171743,54.8646 L75.2301177,53.3146 L75.220014,53.3046 L74.1793253,50.9646 C73.3205045,48.9446 72.4818913,46.9246 71.6634857,44.8946 C71.4108913,44.2946 71.158297,43.6846 70.9158064,43.0746 C70.3904102,41.7546 69.7942875,40.4546 69.3194102,39.1146 L67.8644668,35.0946 C67.3592781,33.7646 67.5714574,33.7046 68.1069574,35.0146 L69.6326272,38.9946 C70.1277121,40.3246 70.7440423,41.6146 71.289646,42.9246 C71.5119291,43.4446 71.7443158,43.9546 71.9665989,44.4746 L72.1484668,44.2346 L72.4010611,44.8446 L72.4616838,45.0046 L72.8860423,46.0846 L75.7252026,53.1746 L75.7757215,53.2846 L76.4526743,54.9746 C76.3718442,54.8746 76.291014,54.7646 76.2101838,54.6546 L76.2404951,54.7346 Z" id="Fill-35" fill="#2A8C79"/>
                            <path d="M64.7830179,86.7747 C64.7223953,86.7847 64.6718764,86.7947 64.6112538,86.7947 C62.1863481,87.1347 59.7715462,87.3847 57.3365368,87.5747 C57.417367,87.2647 57.4981972,86.9747 57.5689236,86.6847 L64.7830179,86.7747 Z" id="Fill-37" fill="#2A8C79"/>
                            <path d="M44.5551622,40.3045 L41.8776622,43.6445 C41.8574546,43.6745 41.8372471,43.7145 41.8069358,43.7445 C41.6654829,43.7545 41.5139263,43.7545 41.3724735,43.7745 C41.4533037,43.6645 41.5341339,43.5545 41.6250678,43.4445 L44.3530867,40.1545 C45.2523225,39.0345 45.4240867,39.1845 44.5551622,40.3045" id="Fill-39" fill="#2A8C79"/>
                            <path d="M58.306297,40.6028 L58.2961932,40.7228 C57.4171649,40.4128 56.5987592,39.8928 55.9319102,39.2228 C55.537863,38.8328 55.1640234,38.4128 54.9316366,37.9028 C54.7093536,37.4028 54.5476932,36.8628 54.557797,36.3128 C54.557797,36.2928 54.5679008,36.2828 54.5881083,36.2828 C54.5982121,36.2828 54.6083158,36.2928 54.6083158,36.2928 C54.8811177,36.7728 55.093297,37.2428 55.3762026,37.6728 C55.6490045,38.1028 55.9015989,38.5528 56.2249196,38.9528 C56.7907309,39.6228 57.5080989,40.1928 58.306297,40.6028" id="Fill-41" fill="#e2bcab"/>
                            <path d="M65.217076,36.8445 L65.217076,36.8545 C64.9139628,37.8045 64.5401232,38.7145 64.1359723,39.4745 C63.7419251,40.2345 63.3276704,40.8245 62.9336232,41.1245 C61.1452553,42.4745 58.3060949,40.5145 58.3060949,40.5145 L58.3060949,40.6045 C57.5078968,40.1945 56.7905289,39.6245 56.2247175,38.9545 C55.9013968,38.5545 55.6488025,38.1045 55.3760006,37.6745 C55.0930949,37.2445 54.8809157,36.7745 54.6081138,36.2945 C54.6081138,36.2945 54.59801,36.2845 54.5879062,36.2845 C54.5676987,36.2845 54.5575949,36.2945 54.5575949,36.3145 C54.5474911,36.8645 54.7091515,37.4045 54.9314345,37.9045 C55.1638213,38.4145 55.5376609,38.8345 55.9317081,39.2245 C56.5985572,39.8945 57.4169628,40.4145 58.2959911,40.7245 L58.1040194,45.1445 C58.0636043,45.9845 57.8312175,46.7745 57.4472742,47.4645 C56.7198025,48.7745 55.4568308,49.7445 53.9513685,50.0745 C53.5169062,50.1845 53.0622364,50.2345 52.5873591,50.2145 C51.9811326,50.1945 51.3749062,50.1745 50.8090949,50.1445 C50.1422458,50.1145 49.5360194,50.0745 49.0409345,50.0245 C48.4145006,50.8245 47.6870289,51.6645 46.8686232,52.5445 C46.6665477,52.7645 46.4543685,52.9845 46.2421892,53.2045 C45.5955477,53.8745 44.9084911,54.5645 44.1810194,55.2645 C43.9688402,55.4745 43.7465572,55.6745 43.5242742,55.8945 C43.0595006,56.3345 42.5745194,56.7845 42.0794345,57.2445 C41.7561138,57.5345 41.4428968,57.8245 41.1094723,58.1245 L41.0993685,58.1245 C34.9057553,63.6745 27.6613496,69.1745 24.832293,71.1745 C24.1452364,71.6645 23.7208779,71.9445 23.629944,71.9745 C20.0835194,74.8045 15.1528779,75.2545 11.1921987,73.1945 C10.3434817,72.7545 9.53517981,72.1945 8.79760434,71.5245 C5.31180245,68.3545 3.93768925,58.3245 5.89782132,51.7845 C5.88771755,51.7745 5.89782132,51.7645 5.89782132,51.7645 C6.22114208,50.4845 6.68591566,49.3745 7.27193453,48.5445 C7.35276472,48.2545 9.7675666,44.7045 13.1725383,40.1645 L13.7989723,40.6545 L21.6900194,46.9845 L20.1340383,50.8645 C19.1337647,51.1245 17.2342553,51.6545 15.0720477,52.4545 L15.0720477,52.4645 C15.193293,52.5045 15.3044345,52.5045 15.415576,52.4845 C16.3754345,52.2945 18.0122458,51.7345 20.0936232,50.9745 C20.3361138,50.8845 20.5887081,50.7945 20.8413025,50.6945 C20.86151,50.6845 20.8716138,50.6845 20.8716138,50.6845 C22.0133402,50.2645 23.2561043,49.7945 24.5796987,49.3045 C25.8527742,48.8345 27.1864723,48.3445 28.5504817,47.8445 C29.5305477,47.4945 30.5207175,47.1445 31.5108874,46.8145 C35.2189723,45.5345 38.9977836,44.3845 42.2511987,43.7445 C43.5444817,43.4945 44.736727,43.3245 45.8178308,43.2545 L45.8279345,43.2545 C46.2118779,42.4845 46.7473779,41.4245 47.3738119,40.2045 C49.7987175,35.4245 53.5573213,28.3045 54.59801,27.6745 C55.6589062,27.0345 59.3467836,28.3145 62.1758402,29.5645 C62.1758402,29.5745 62.1758402,29.5745 62.185944,29.5645 C62.4587458,29.6945 62.7315477,29.8245 62.9841421,29.9445 C64.014727,30.4245 64.8533402,30.8745 65.30801,31.1745 C66.2779723,31.8145 65.9748591,34.4245 65.217076,36.8445" id="Fill-43" fill="#e2bcab"/>
                            <path d="M104.823666,7.5828 C104.83377,7.5928 104.83377,7.6028 104.823666,7.6228 C104.510449,8.0728 104.05578,8.4128 103.580902,8.7028 C103.095921,8.9728 102.540214,9.1028 101.99461,9.1928 C100.903402,9.3828 99.7818834,9.2828 98.7614023,8.9128 C98.7512985,8.9128 98.7512985,8.8928 98.7512985,8.8828 C98.7512985,8.8728 98.7614023,8.8628 98.7816098,8.8628 C99.8222985,9.0928 100.903402,9.0628 101.91378,8.8028 C102.418968,8.6728 102.883742,8.4528 103.358619,8.2528 C103.8436,8.0628 104.29827,7.8128 104.793355,7.5828 C104.803459,7.5728 104.813563,7.5828 104.823666,7.5828" id="Fill-46" fill="#672448"/>
                            <path d="M58.750762,40.8445 C58.750762,40.8545 58.7305544,40.8645 58.7204507,40.8545 C58.5789978,40.8145 58.437545,40.7745 58.2960922,40.7245 C57.4170639,40.4145 56.5986582,39.8945 55.9318092,39.2245 C55.537762,38.8345 55.1639224,38.4145 54.9315356,37.9045 C54.7092525,37.4045 54.5475922,36.8645 54.5576959,36.3145 C54.5576959,36.2945 54.5677997,36.2845 54.5880073,36.2845 C54.598111,36.2845 54.6082148,36.2945 54.6082148,36.2945 C54.8810167,36.7745 55.0931959,37.2445 55.3761016,37.6745 C55.6489035,38.1045 55.9014978,38.5545 56.2248186,38.9545 C56.7906299,39.6245 57.5079978,40.1945 58.3061959,40.6045 C58.4476488,40.6745 58.5891016,40.7445 58.7406582,40.8045 C58.750762,40.8145 58.7608658,40.8345 58.750762,40.8445" id="Fill-48" fill="#672448"/>
                            <path d="M83.7551767,36.8967 C83.2509984,40.6037 82.8549305,44.3257 82.6023361,48.0547 C82.4810908,49.9197 82.4083437,51.7877 82.3911673,53.6527 C82.3487314,55.5187 82.3941984,57.3897 82.690239,59.2377 C82.6912493,59.2447 82.6861975,59.2507 82.6801352,59.2518531 C82.6730625,59.2527 82.6670003,59.2487 82.6649795,59.2427 C82.2204135,57.4147 82.1749465,55.5217 82.1385729,53.6527 C82.1466559,51.7777 82.2375899,49.9057 82.401271,48.0407 C82.698322,44.3077 83.1540022,40.5907 83.7299173,36.8927 C83.7309276,36.8867 83.7369899,36.8817 83.7440625,36.8825719 C83.7511352,36.8837 83.7561871,36.8897 83.7551767,36.8967" id="Fill-50" fill="#672448"/>
                            <path d="M5.41294123,58.5354 C6.55163651,56.9794 8.12984594,55.7954 9.77676104,54.8024 C11.4226658,53.7884 13.2069922,53.0034 15.0569931,52.4514 C15.0640658,52.4494 15.0711384,52.4524 15.0731592,52.4594 C15.0751799,52.4654 15.0721488,52.4724 15.0660865,52.4744 C13.311061,53.2724 11.5600771,54.0524 9.87981953,54.9744 C8.22381104,55.9224 6.62640443,57.0444 5.43314877,58.5504 C5.42910726,58.5564 5.42102425,58.5564 5.41496198,58.5534 C5.40991009,58.5484 5.40889972,58.5404 5.41294123,58.5354" id="Fill-52" fill="#672448"/>
                            <path d="M75.9173764,54.8645 L75.2303198,53.3145 L75.220216,53.3045 L74.1795274,50.9645 C73.3207066,48.9445 72.4820934,46.9245 71.6636877,44.8945 C71.4110934,44.2945 71.1584991,43.6845 70.9160085,43.0745 C70.3906123,41.7545 69.7944896,40.4545 69.3196123,39.1145 L67.8646689,35.0945 C67.3594802,33.7645 67.5716594,33.7045 68.1071594,35.0145 L69.6328292,38.9945 C70.1279142,40.3245 70.7442443,41.6145 71.2898481,42.9245 C71.5121311,43.4445 71.7445179,43.9545 71.9668009,44.4745 L71.9668009,44.4845 C72.8761406,46.5745 73.7753764,48.6645 74.6544047,50.7745 L76.1901783,54.6145 L76.2103858,54.6545 L76.2406972,54.7345 C76.4932915,55.4045 76.2002821,55.5145 75.9173764,54.8645" id="Fill-54" fill="#2A4D52"/>
                            <path d="M26.1826887,41.9187556 L23.5051887,45.2587556 C23.4849811,45.2887556 23.4647736,45.3287556 23.4344623,45.3587556 C23.2930094,45.3687556 23.1414528,45.3687556 23,45.3887556 C23.0808302,45.2787556 23.1616604,45.1687556 23.2525943,45.0587556 L25.9806132,41.7687556 C26.8798491,40.6487556 27.0516132,40.7987556 26.1826887,41.9187556" id="Fill-56" fill="#2A4D52"/>
                            <path d="M72.0371232,68.5745 C71.9866043,68.7345 71.9057742,68.8845 71.8350477,69.0345 C71.6632836,68.9145 71.5016232,68.7945 71.3399628,68.6545 C70.5114534,67.9545 69.6728402,67.0945 69.1878591,66.1045 C69.1373402,66.0245 69.1070289,65.9445 69.0666138,65.8545 C68.8847458,65.4145 68.6927742,64.7945 68.8544345,64.2945 C68.8645383,64.2245 68.8948496,64.1545 68.9352647,64.0845 C69.2990006,63.4545 70.1376138,63.6345 70.6731138,63.9145 C72.3301326,64.7945 72.6029345,66.9645 72.0371232,68.5745 M64.23701,69.6545 C64.2066987,70.0245 64.1662836,70.4145 64.0753496,70.7945 C63.3377742,70.3845 62.6709251,69.8645 62.1051138,69.2645 C61.337227,68.4345 60.579444,67.3145 60.6905855,66.1345 C60.7815194,65.1345 61.7312742,64.1845 62.7719628,64.6445 C63.5701609,64.9945 63.923793,65.9845 64.1056609,66.7545 C64.3178402,67.7045 64.3178402,68.6845 64.23701,69.6545 M52.8500572,64.6145 C53.8705383,64.5545 54.8506043,64.7945 55.7296326,65.3045 C56.0630572,67.2845 54.9617458,69.0845 53.3249345,70.1045 C52.2135194,68.5145 51.8699911,66.3245 52.8500572,64.6145 M43.6859345,66.5745 C43.9991515,65.6945 45.2015006,65.2445 45.9794911,65.8545 C46.9696609,66.6245 46.1916704,68.0445 45.5147175,68.7245 C45.2520194,68.9845 44.9691138,69.2145 44.6660006,69.4245 C43.8779062,68.7145 43.3221987,67.6245 43.6859345,66.5745 M78.4429157,71.1645 C76.331227,71.2245 74.2296421,70.6045 72.4614817,69.4745 C72.7241798,68.9645 72.9262553,68.4245 73.0373968,67.8745 C73.3607175,66.2545 72.9363591,64.3845 71.511727,63.3845 C70.7337364,62.8345 69.6627364,62.6045 68.8241232,63.1745 C68.7635006,63.2145 68.7129817,63.2545 68.6624628,63.2945 C68.0158213,63.8445 67.8743685,64.7445 68.0562364,65.5545 C68.2785194,66.5545 68.8544345,67.4645 69.59201,68.2645 L69.59201,68.2745 L69.6021138,68.2845 C70.1376138,68.8745 70.753944,69.3945 71.3803779,69.8345 C71.0267458,70.3145 70.5922836,70.7045 70.0971987,71.0045 C69.4404534,71.4145 68.6624628,71.6645 67.8238496,71.7145 C66.7831609,71.7745 65.7424723,71.5545 64.7826138,71.1445 C65.1160383,70.0745 65.1463496,68.8645 65.1059345,67.8345 C65.0352081,66.3645 64.5603308,64.1145 62.8325855,63.7545 C60.6905855,63.3045 59.4983402,65.7645 60.0035289,67.5145 C60.5188213,69.3045 62.1152175,70.7845 63.7823402,71.6345 C63.6206798,71.9845 63.3983968,72.2945 63.075076,72.5345 C62.1455289,73.2345 60.6400666,73.1845 59.5286515,73.1145 C57.4270666,72.9845 55.2345477,72.2545 53.7998119,70.6845 C55.2143402,69.7545 56.2752364,68.3145 56.5581421,66.6345 C56.649076,66.1345 56.649076,65.6045 56.5682458,65.1045 C56.4773119,64.5545 56.0024345,64.3845 55.5174534,64.1845 C54.9516421,63.9545 54.3555194,63.8145 53.749293,63.7745 C53.3451421,63.7545 52.7086043,63.6645 52.3852836,63.9545 C52.0518591,64.2545 51.8396798,64.8545 51.7083308,65.2645 C51.5567742,65.7145 51.4658402,66.1945 51.4456326,66.6645 C51.3951138,67.6545 51.5870855,68.6545 51.9912364,69.5645 C52.142793,69.9045 52.3246609,70.2145 52.5267364,70.5145 C52.3347647,70.5945 52.1326892,70.6745 51.9306138,70.7345 C49.869444,71.3445 47.1414251,71.0445 45.2823308,69.8745 C46.5958213,68.8345 48.0608685,66.9745 46.8686232,65.4545 C45.6561704,63.9245 43.261576,65.0845 42.8473213,66.6845 C42.5138968,67.9745 43.0291892,69.0745 43.88801,69.9045 C43.5242742,70.0945 43.1504345,70.2745 42.7664911,70.4145 C40.6851138,71.1545 38.3511421,71.0745 36.3505949,70.1345 C35.9262364,69.9445 35.4008402,70.6745 35.85551,70.8845 C36.7951609,71.3245 37.7954345,71.6045 38.8260194,71.6945 C40.7861515,71.8745 42.81701,71.4145 44.5043402,70.4045 C45.0196326,70.7745 45.6056515,71.0645 46.1916704,71.2645 C48.3336704,71.9845 50.7989911,72.1245 52.8904723,71.1845 C52.9308874,71.1745 52.9611987,71.1445 53.0016138,71.1345 C53.9614723,72.2345 55.2749628,73.0245 56.6995949,73.4645 C57.8211138,73.8145 58.9931515,73.9545 60.1651892,73.9445 C61.2665006,73.9445 62.4789534,73.8545 63.4085006,73.1945 C63.8732742,72.8645 64.2066987,72.4345 64.459293,71.9445 C66.2476609,72.6745 68.3290383,72.7845 70.0870949,71.9045 C70.1477175,71.8745 70.1982364,71.8445 70.2487553,71.8045 C70.9459157,71.4345 71.5420383,70.8845 71.9967081,70.2445 C72.0068119,70.2545 72.0169157,70.2645 72.0270194,70.2645 C73.9164251,71.4445 76.1291515,72.0345 78.3519817,71.9745 C78.8268591,71.9645 79.0188308,71.1545 78.4429157,71.1645" id="Fill-58" fill="#EDFBFB"/>
                            <path d="M67.8239507,52.5945 C67.7835356,52.7045 67.7229129,52.8145 67.6723941,52.9245 C67.5309412,52.7745 67.3894884,52.6245 67.2581393,52.4645 C67.0762714,52.2245 66.8741959,51.9245 66.7125356,51.6145 C66.470045,51.1445 66.3285922,50.6145 66.5003563,50.1345 C66.6114978,49.8345 67.1065827,49.2445 67.4905261,49.4545 C67.6420827,49.5345 67.7734318,49.8145 67.854262,50.0645 C67.9047808,50.2045 67.9451959,50.3445 67.9654035,50.4345 C68.1472714,51.1445 68.0866488,51.9045 67.8239507,52.5945 M61.0746299,54.5045 C60.7311016,54.3445 60.4077808,54.1445 60.1147714,53.9245 C59.1043941,53.1345 58.2859884,51.8245 58.8416959,50.5445 C59.1144978,49.9045 59.6803092,49.4745 60.2865356,49.3845 L60.2966393,49.3845 C60.7513092,49.3245 61.2160827,49.4745 61.5899224,49.9045 C61.7515827,50.0945 61.8829318,50.2745 61.9536582,50.5045 L61.9536582,50.5145 L61.963762,50.5245 L61.9738658,50.5345 C62.2668752,51.2745 62.2264601,52.1845 62.0041771,52.9045 C61.8223092,53.5145 61.4888846,54.0445 61.0746299,54.5045 M50.5262903,52.6345 C50.4353563,51.8745 50.6879507,51.1445 51.3143846,50.6745 C51.8296771,50.2945 52.5268375,50.1645 53.0926488,50.5145 C54.1333375,51.1645 53.9918846,52.6845 53.5776299,53.6545 C53.2947242,54.3145 52.860262,54.8945 52.3348658,55.3945 C51.385111,54.7345 50.6778469,53.8145 50.5262903,52.6345 M73.8963186,55.9145 C72.1483658,55.8145 70.4610356,55.2345 69.056611,54.2045 C68.7636016,53.9945 68.4806959,53.7545 68.2179978,53.5045 C68.7636016,52.5845 69.0161959,51.4845 68.8444318,50.4345 C68.7838092,50.0845 68.6726676,49.6145 68.4604884,49.2445 L68.4604884,49.2345 C68.2584129,48.9045 68.0058186,48.6645 67.6420827,48.6345 C67.0156488,48.5845 66.4296299,48.9445 66.0557903,49.4345 C65.9446488,49.5745 65.8638186,49.7145 65.7930922,49.8645 C65.4091488,50.7245 65.6314318,51.6045 66.1164129,52.4245 L66.1164129,52.4345 C66.3083846,52.7545 66.5407714,53.0645 66.7933658,53.3545 C66.9045073,53.4845 67.0257525,53.6045 67.1368941,53.7245 C67.0661676,53.8045 66.9853375,53.8845 66.9045073,53.9545 C66.2174507,54.6045 65.2879035,54.9945 64.2977337,55.0945 C63.4490167,55.1745 62.5800922,55.0445 61.7616865,54.7745 C62.6104035,53.7845 63.1155922,52.5845 62.9943469,51.2445 L62.9943469,51.2345 C62.9741393,51.0245 62.943828,50.8245 62.8933092,50.6045 C62.5800922,49.2645 61.4181582,48.2145 59.953111,48.6345 C59.7813469,48.6845 59.6196865,48.7445 59.4681299,48.8245 C58.2556771,49.4645 57.588828,51.0145 57.9222525,52.3245 C58.2556771,53.5945 59.2256393,54.5345 60.3774695,55.1345 C59.2559507,55.9845 57.7807997,56.4645 56.4471016,56.5345 C55.3457903,56.5945 54.0727148,56.3345 52.991611,55.7745 C53.9413658,54.8545 54.5880073,53.6845 54.6991488,52.3545 C54.7597714,51.5145 54.5071771,50.6445 53.9615733,50.0845 L53.9514695,50.0745 C53.5170073,50.1845 53.0623375,50.2345 52.5874601,50.2145 C51.9812337,50.1945 51.3750073,50.1745 50.8091959,50.1445 L50.7990922,50.1545 C49.9503752,50.8645 49.5159129,52.0445 49.7482997,53.1645 C50.0109978,54.3645 50.6980544,55.2945 51.6073941,55.9745 C50.1019318,57.0045 48.1215922,57.4345 46.4140544,56.9945 C46.1614601,56.9345 45.9088658,56.8245 45.6663752,56.7045 C45.9290733,56.5145 46.1816676,56.3145 46.4039507,56.0945 C47.0000733,55.5245 47.5153658,54.7345 47.505262,53.8845 C47.505262,53.5645 47.4244318,53.2745 47.2627714,53.0145 C47.1617337,52.8345 47.0404884,52.6745 46.8687242,52.5445 C46.6666488,52.7645 46.4544695,52.9845 46.2422903,53.2045 C46.4241582,53.3445 46.5555073,53.5245 46.6262337,53.7445 C46.6868563,53.9145 46.6969601,54.1045 46.656545,54.3245 C46.4948846,55.1745 45.7977242,55.8145 44.9894224,56.2745 C44.8479695,56.1545 44.7065167,56.0345 44.5953752,55.8945 C44.423611,55.7045 44.2821582,55.4845 44.1811205,55.2645 C43.9689412,55.4745 43.7466582,55.6745 43.5243752,55.8945 C43.6456205,56.1245 43.7870733,56.3345 43.9588375,56.5245 L43.9588375,56.5345 L44.1204978,56.6945 C43.9386299,56.7745 43.756762,56.8345 43.5951016,56.8945 L43.5849978,56.8945 C43.5041676,56.9245 43.443545,56.9445 43.3728186,56.9645 C42.9484601,57.0945 42.5139978,57.1845 42.0795356,57.2445 C41.7562148,57.5345 41.4429978,57.8245 41.1095733,58.1245 C41.5440356,58.1145 42.0088092,58.0645 42.4533752,57.9845 L42.4735827,57.9845 C43.2616771,57.8345 44.0497714,57.5845 44.7772431,57.2245 C45.363262,57.5945 46.0503186,57.8345 46.747479,57.9245 C48.5661582,58.1745 50.6677431,57.5745 52.2540356,56.3945 C53.8807431,57.3145 56.0025356,57.5545 57.7504884,57.1545 C58.9326299,56.8745 60.1248752,56.2845 61.0746299,55.4545 C61.2868092,55.5445 61.5090922,55.6145 61.7212714,55.6745 C63.5096393,56.1745 65.5607054,55.9645 67.0560639,54.8245 L67.0661676,54.8145 C67.2884507,54.6345 67.4804224,54.4545 67.6622903,54.2445 C67.8239507,54.3745 67.9755073,54.5045 68.1270639,54.6245 C69.683045,55.8645 71.602762,56.6045 73.5932054,56.7245 C74.0478752,56.7445 74.4217148,55.9445 73.8963186,55.9145" id="Fill-60" fill="#EDFBFB"/>
                        </g>
                    </g>
                </g>
                <g id="Head/Kid Head" transform="translate(108.000000, 310.000000) scale(1 1)">
                    <g id="Head/Kid Head/Double Bun" stroke="none" stroke-width="1" fill="none" fill-rule="evenodd">
                        <g id="Group-26" transform="translate(0.000000, 1.000000)">
                            <path d="M99.1318,161.2809 L99.1318,161.4109 C99.1618,161.4309 99.2018,161.4609 99.2318,161.4809 L99.1318,161.2809 Z M82.1118,151.2609 C82.0618,151.2509 82.0118,151.2409 81.9618,151.2309 C82.0118,151.2409 82.0618,151.2809 82.1118,151.2909 C85.1418,151.7509 89.2518,151.0609 89.2818,151.0909 L89.2918,151.0909 C89.3318,151.0809 89.3818,151.0809 89.4218,151.0609 C88.9118,151.1309 84.3518,151.7109 82.1118,151.2609 L82.1118,151.2609 Z" id="Fill-1" fill="#e2bcab"/>
                            <path d="M121.2119,154.8009 C116.3019,154.8009 112.3319,150.8309 112.3319,145.9209 C112.3319,141.0209 116.3019,137.0509 121.2119,137.0509 C126.1119,137.0509 130.0819,141.0209 130.0819,145.9209 C130.0819,150.8309 126.1119,154.8009 121.2119,154.8009 M89.3319,137.4509 L89.2119,137.6909 L88.9919,137.5609 C88.3419,137.1509 87.5319,136.9309 86.7319,136.9309 C85.9419,136.9109 85.1019,137.1009 84.5419,137.6509 C83.9619,138.1909 83.9219,139.1109 84.1419,139.8609 C84.4019,140.6109 85.0619,141.2409 85.8519,141.4309 L85.8319,141.5209 C85.0019,141.3509 84.2819,140.7309 83.9719,139.9209 C83.7019,139.1309 83.6919,138.1209 84.3519,137.4609 C84.9719,136.8109 85.8819,136.5809 86.7319,136.5609 C87.5019,136.5409 88.2819,136.6909 88.9919,137.0409 C89.3619,135.9309 89.2419,134.7109 88.5719,133.7909 C87.8719,132.7909 86.7119,132.1509 85.5419,131.7209 C84.3619,131.3009 83.0919,131.0609 81.8319,131.0909 C80.5919,131.1009 79.3619,131.4409 78.3019,132.0009 C76.1319,133.2009 75.1619,135.7509 75.2019,138.2409 C75.2319,140.7509 76.1319,143.2709 77.6619,145.3709 L77.5819,145.4309 C76.6619,144.5009 75.9019,143.3809 75.3619,142.1609 C74.8019,140.9509 74.4519,139.6209 74.3919,138.2709 C74.3119,136.9209 74.4719,135.5209 75.0519,134.2409 C75.6019,132.9609 76.6019,131.8509 77.8519,131.2009 C79.1019,130.5809 80.4719,130.2709 81.8419,130.3009 C83.1919,130.3309 84.5219,130.6109 85.7819,131.0909 C87.0219,131.5909 88.2519,132.3009 89.0419,133.4709 C89.8419,134.6409 89.8919,136.2209 89.3319,137.4509 M163.3519,133.7709 C162.6419,133.1109 161.7519,132.6709 160.8219,132.4309 C160.8619,131.6609 160.9019,130.8709 160.9019,130.0809 C160.9019,126.3009 160.4619,122.6309 159.6519,119.1309 C159.6519,119.1409 159.6419,119.1409 159.6419,119.1409 C158.5519,115.4609 157.3919,111.9609 155.7919,108.7109 C155.5519,108.2309 155.3219,107.7509 155.0619,107.2809 C154.8919,106.9609 154.7119,106.6409 154.5219,106.3209 C154.4419,106.1809 154.3519,106.0309 154.2619,105.8909 C154.2319,105.8409 154.2019,105.7909 154.1719,105.7409 C154.0619,105.5509 153.9519,105.3609 153.8319,105.1809 C153.7919,105.1309 153.7619,105.0909 153.7319,105.0409 C153.7019,104.9909 153.6819,104.9409 153.6419,104.8909 C153.6119,104.8509 153.5819,104.8009 153.5519,104.7509 C153.4819,104.6509 153.4219,104.5509 153.3519,104.4509 C153.2919,104.3709 153.2419,104.2809 153.1819,104.2009 L153.1819,104.1909 C152.8219,103.6609 152.4319,103.1609 152.0619,102.6509 L152.0519,102.6409 C151.6519,102.1209 151.2619,101.6009 150.8519,101.0909 C150.8519,101.0809 150.8419,101.0809 150.8419,101.0709 C150.6219,100.8009 150.4119,100.5409 150.1919,100.2709 C149.9819,100.0009 149.7519,99.7509 149.5219,99.4909 L149.5219,99.4809 C149.2419,99.1809 148.9619,98.8809 148.6919,98.5909 C148.4219,98.3009 148.1319,98.0109 147.8419,97.7309 C147.6419,101.6009 145.9219,105.2109 142.7519,107.9109 C142.2819,108.3309 141.7919,108.6909 141.2819,109.0309 C135.2019,113.0709 126.9119,112.0209 122.0319,106.3409 C121.8319,106.1009 121.6619,105.8709 121.4719,105.6209 C120.8519,106.9209 119.9619,108.1109 118.8019,109.1109 C117.9919,109.8109 117.1019,110.3509 116.1819,110.7609 C116.5419,112.0009 116.6519,113.3209 116.4619,114.6209 C116.4119,115.0009 116.3419,115.3809 116.2319,115.7509 C116.1519,116.0309 116.0719,116.2909 115.9519,116.5509 C114.2419,121.0709 109.2819,123.5209 104.6219,122.0609 C103.3619,121.6709 102.2519,121.0309 101.3319,120.2209 C101.2619,120.4709 101.2119,120.7209 101.1319,120.9709 C100.0319,124.4709 97.5619,127.1609 94.4819,128.6109 C95.9419,129.4409 97.1419,130.5909 97.4519,132.2609 C97.6019,133.0609 97.4719,133.8609 97.0519,134.4709 C97.4319,135.1809 97.5519,136.0009 97.1519,136.7809 C96.7819,137.5009 94.5919,139.3409 95.7919,140.1609 C96.1219,140.3809 96.5919,140.9109 96.5019,141.3509 C96.4119,141.7809 96.0019,141.7609 95.6819,141.5509 C94.7119,140.8809 93.9519,139.7809 93.9719,138.5609 C94.0019,137.3409 94.9119,136.6709 95.5319,135.7509 C95.6019,135.6409 95.6719,135.5209 95.7319,135.4009 C94.5219,135.8009 93.1219,135.5509 92.2419,134.5909 C91.4719,133.7509 91.3219,132.2309 92.7719,132.0909 C93.7119,132.0109 94.8319,132.4409 95.6719,133.0109 C96.1019,132.3809 96.1219,131.5109 95.5419,130.8709 C94.8519,130.1009 93.7219,129.6509 92.7219,129.2909 L92.7119,129.2909 C90.3819,129.9909 87.8319,130.0309 85.3219,129.2409 C82.4819,128.3609 80.1719,126.5609 78.6419,124.2609 C77.4019,124.8009 76.2319,125.5009 75.1419,126.3709 C72.1119,128.7909 70.3519,132.0609 69.9119,135.4809 C69.8419,136.0009 69.8019,136.5109 69.7909555,137.0309 C69.7519,140.4409 70.9819,143.8609 73.5819,146.6309 C75.8519,149.0509 78.8119,150.6009 81.9619,151.2309 C82.0119,151.2409 82.0619,151.2509 82.1119,151.2609 C84.3519,151.7109 88.9119,151.1309 89.4219,151.0609 C89.4519,151.0509 89.4719,151.0509 89.4719,151.0509 C92.1019,155.1809 95.3319,158.5909 99.1319,161.2809 L99.2319,161.4809 L99.2219,161.8709 C99.7719,162.2709 100.3419,162.6309 100.9119,162.9809 C100.9219,162.9809 100.9219,162.9909 100.9319,162.9909 L101.1919,163.0809 L102.8219,163.6709 L102.8319,163.6809 C106.2719,165.5309 110.0719,166.9109 114.2119,167.8109 L114.2819,167.8309 C115.0219,168.0009 115.7719,168.1509 116.5319,168.2709 C120.0119,168.8809 123.7019,169.1809 127.5819,169.1809 C134.6919,169.1809 143.3319,167.7509 149.0219,161.7609 C152.2019,158.4309 154.9319,154.3009 156.9619,149.5709 C157.8119,147.6109 158.5419,145.5509 159.1219,143.4009 C159.1619,143.4009 159.1719,143.4309 159.2119,143.4309 C162.1919,143.4609 164.6419,140.7809 164.8719,137.8409 C165.0019,136.3309 164.4519,134.7909 163.3519,133.7709" id="Fill-3" fill="#e2bcab"/>
                            <path d="M173.4917,103.8009 C172.0317,108.6209 168.6817,112.8909 164.2117,115.1909 C168.7617,110.3709 171.5717,104.1209 171.5717,97.4309 C171.5717,87.9309 166.1117,79.5709 157.8417,74.6509 C157.8417,74.6509 157.8317,74.6409 157.8117,74.6309 C157.4317,74.3309 157.0317,74.0509 156.6217,73.8009 C156.8717,73.9109 157.1117,74.0209 157.3617,74.1409 C162.9217,76.7609 167.9217,80.7909 171.0117,86.1509 C174.0517,91.4109 175.2817,97.9109 173.4917,103.8009 M81.9417,165.3709 C76.8317,164.9509 71.8517,162.9609 67.9217,159.4309 C61.2617,153.4309 58.0617,143.7009 60.0317,134.6909 C60.4817,132.6209 61.1917,130.6209 62.1217,128.7409 L62.1317,128.7509 C61.5917,131.0609 61.3017,133.4809 61.3017,135.9609 C61.3017,149.5909 69.9317,161.1609 81.9417,165.3709 M25.2417,116.3409 C16.2617,112.6409 7.2517,106.0209 5.0917,96.0109 C4.8617,94.9309 4.7117,93.8409 4.6517,92.7409 C6.3417,101.6009 15.7517,110.6109 28.8017,114.8409 C32.8817,116.1509 36.9117,116.8809 40.7417,117.0509 C43.1517,118.1709 46.1217,119.0409 49.4517,119.5909 C41.3417,120.8909 32.8317,119.4709 25.2417,116.3409 M172.6917,88.1409 C167.3317,76.6709 154.3717,70.1109 142.1017,69.5309 C135.2417,69.2109 128.2217,70.8109 122.6517,74.9609 C122.6417,74.9709 122.6217,74.9809 122.6317,74.9909 C122.3317,74.9809 122.0617,74.9809 121.7717,74.9909 C121.5417,74.8909 121.3317,74.7809 121.1017,74.6809 C117.0317,73.0409 112.8617,73.5909 109.4317,75.7809 C109.3417,74.6709 109.1817,73.4909 108.9417,72.2809 C116.7617,73.0609 125.4017,69.5709 131.5517,62.3009 C139.0417,53.4409 140.5017,41.6909 135.9617,33.2709 C142.6617,30.8809 147.4217,25.9609 147.9517,19.8209 C148.7917,10.3009 139.1817,1.5009 126.4717,0.1709 C114.3317,-1.1091 103.7817,4.9309 102.1617,13.8009 C100.7917,13.4609 99.3817,13.3509 97.9617,13.5109 C87.8117,14.6109 81.1317,28.4909 83.0517,44.5109 C83.5317,48.5109 84.5017,52.2509 85.8417,55.6109 C85.8417,58.3309 86.3417,61.5209 87.3617,64.9209 C87.8717,66.6809 88.5317,68.5009 89.3317,70.3209 C89.7817,71.3509 90.2717,72.3209 90.7717,73.2709 L90.7717,73.2809 C91.0317,73.7809 91.2917,74.2709 91.5717,74.7409 C84.7417,76.3609 78.9017,82.2009 76.7017,90.7409 C76.1917,92.7309 75.9317,94.7209 75.8517,96.7209 C73.1417,95.9609 71.0717,96.0909 70.5517,97.3409 C70.0617,98.4809 71.0317,100.3009 72.9117,102.1609 C72.2217,102.3909 71.5617,102.6209 70.9217,102.9009 C69.6217,102.3709 68.1917,101.9209 66.6517,101.5509 C70.7017,94.1009 70.9517,83.9309 66.4517,74.5409 C61.0017,63.1009 50.2217,56.3409 40.1217,57.0809 C40.6217,49.3309 37.8317,42.3909 32.1117,39.0909 C23.1917,33.9809 10.6117,39.5909 3.9717,51.6409 C-2.2083,62.8709 -1.0083,75.7209 6.4017,81.5409 C4.1917,85.1609 3.4917,89.5209 4.0117,93.7409 C4.6317,98.7409 6.9717,103.3109 10.3217,107.0309 C13.7717,110.8509 18.1217,113.7609 22.7517,115.9709 C27.8317,118.4009 33.3217,120.0409 38.9217,120.6609 C43.4117,121.1609 47.9817,120.9709 52.3717,119.9609 L52.3817,119.9609 C53.7217,120.0909 55.1017,120.1709 56.5217,120.1809 C58.9317,120.2109 61.2417,120.0609 63.4117,119.7709 C63.7617,120.4709 64.1717,121.1609 64.6417,121.8209 C64.1117,122.8709 63.6417,123.9309 63.2417,125.0509 C63.2317,125.0609 63.2217,125.0709 63.2317,125.0809 C63.2217,125.0909 63.2117,125.1109 63.2117,125.1209 L63.2117,125.1309 C59.0817,131.3309 57.6717,139.2909 59.6717,146.6909 C60.8917,151.2009 63.2117,155.3509 66.3617,158.6509 C69.6517,162.0909 73.8417,164.4509 78.3517,165.5509 C80.5317,166.0809 82.7617,166.3209 84.9917,166.2509 L85.0017,166.2509 C85.0017,166.2509 85.0017,166.2609 85.0117,166.2609 C85.0217,166.2709 85.0217,166.2709 85.0317,166.2609 C85.0417,166.2709 85.0517,166.2709 85.0617,166.2609 C87.2917,166.7909 89.5717,167.0709 91.9617,167.0709 C94.3617,167.0709 96.8117,166.8009 99.0417,166.2609 L99.0517,166.2609 L99.2217,161.8709 L99.2317,161.4809 L99.1317,161.2809 C95.3317,158.5909 92.1017,155.1809 89.4717,151.0509 C89.4717,151.0509 89.4517,151.0509 89.4217,151.0609 C88.9117,151.1309 84.3517,151.7109 82.1117,151.2609 C82.0617,151.2509 82.0117,151.2409 81.9617,151.2309 C78.8117,150.6009 75.8517,149.0509 73.5817,146.6309 C70.9817,143.8609 69.7517,140.4409 69.7917,137.0309 C69.8017,136.5109 69.8417,136.0009 69.9117,135.4809 C70.3517,132.0609 72.1117,128.7909 75.1417,126.3709 C76.2317,125.5009 77.4017,124.8009 78.6417,124.2609 C80.1717,126.5609 82.4817,128.3609 85.3217,129.2409 C87.8317,130.0309 90.3817,129.9909 92.7117,129.2909 L92.7217,129.2909 C93.7217,129.6509 94.8517,130.1009 95.5417,130.8709 C96.1217,131.5109 96.1017,132.3809 95.6717,133.0109 C94.8317,132.4409 93.7117,132.0109 92.7717,132.0909 C91.3217,132.2309 91.4717,133.7509 92.2417,134.5909 C93.1217,135.5509 94.5217,135.8009 95.7317,135.4009 C95.6717,135.5209 95.6017,135.6409 95.5317,135.7509 C94.9117,136.6709 94.0017,137.3409 93.9717,138.5609 C93.9517,139.7809 94.7117,140.8809 95.6817,141.5509 C96.0017,141.7609 96.4117,141.7809 96.5017,141.3509 C96.5917,140.9109 96.1217,140.3809 95.7917,140.1609 C94.5917,139.3409 96.7817,137.5009 97.1517,136.7809 C97.5517,136.0009 97.4317,135.1809 97.0517,134.4709 C97.4717,133.8609 97.6017,133.0609 97.4517,132.2609 C97.1417,130.5909 95.9417,129.4409 94.4817,128.6109 C97.5617,127.1609 100.0317,124.4709 101.1317,120.9709 C101.2117,120.7209 101.2617,120.4709 101.3317,120.2209 C102.2517,121.0309 103.3617,121.6709 104.6217,122.0609 C109.2817,123.5209 114.2417,121.0709 115.9517,116.5509 C116.0717,116.2909 116.1517,116.0309 116.2317,115.7509 C116.3417,115.3809 116.4117,115.0009 116.4617,114.6209 C116.6517,113.3209 116.5417,112.0009 116.1817,110.7609 C117.1017,110.3509 117.9917,109.8109 118.8017,109.1109 C119.9617,108.1109 120.8517,106.9209 121.4717,105.6209 C121.6617,105.8709 121.8317,106.1009 122.0317,106.3409 C126.9117,112.0209 135.2017,113.0709 141.2817,109.0309 C141.7917,108.6909 142.2817,108.3309 142.7517,107.9109 C145.9217,105.2109 147.6417,101.6009 147.8417,97.7309 C148.1317,98.0109 148.4217,98.3009 148.6917,98.5909 C148.9817,98.8809 149.2517,99.1809 149.5217,99.4809 L149.5217,99.4909 C149.7517,99.7509 149.9817,100.0009 150.1917,100.2709 C151.0517,101.2709 151.8717,102.3109 152.6317,103.3909 C152.8217,103.6609 153.0017,103.9209 153.1817,104.1909 L153.1817,104.2009 C153.2417,104.2809 153.2917,104.3709 153.3517,104.4509 C153.4217,104.5509 153.4817,104.6509 153.5517,104.7509 C153.5817,104.8009 153.6117,104.8509 153.6417,104.8909 C153.6817,104.9409 153.7017,104.9909 153.7317,105.0409 C153.7617,105.0909 153.7917,105.1309 153.8317,105.1809 C153.9517,105.3609 154.0617,105.5509 154.1717,105.7409 C154.2017,105.7909 154.2317,105.8409 154.2617,105.8909 C154.3517,106.0309 154.4417,106.1809 154.5217,106.3209 C154.7117,106.6409 154.8917,106.9609 155.0617,107.2809 C157.1017,110.9109 158.6617,114.9009 159.6517,119.1309 C160.5817,118.4809 161.4717,117.7709 162.3217,117.0209 C167.4917,115.3509 171.5717,111.1609 173.6117,106.1609 C175.9717,100.3609 175.3117,93.7309 172.6917,88.1409" id="Fill-5" fill="#672448"/>
                            <path d="M89.332,137.4509 L89.212,137.6909 L88.992,137.5609 C88.342,137.1509 87.532,136.9309 86.732,136.9309 C85.942,136.9109 85.102,137.1009 84.542,137.6509 C83.962,138.1909 83.922,139.1109 84.142,139.8609 C84.402,140.6109 85.062,141.2409 85.852,141.4309 L85.832,141.5209 C85.002,141.3509 84.282,140.7309 83.972,139.9209 C83.702,139.1309 83.692,138.1209 84.352,137.4609 C84.972,136.8109 85.882,136.5809 86.732,136.5609 C87.502,136.5409 88.282,136.6909 88.992,137.0409 C89.362,135.9309 89.242,134.7109 88.572,133.7909 C87.872,132.7909 86.712,132.1509 85.542,131.7209 C84.362,131.3009 83.092,131.0609 81.832,131.0909 C80.592,131.1009 79.362,131.4409 78.302,132.0009 C76.132,133.2009 75.162,135.7509 75.202,138.2409 C75.232,140.7509 76.132,143.2709 77.662,145.3709 L77.582,145.4309 C76.662,144.5009 75.902,143.3809 75.362,142.1609 C74.802,140.9509 74.452,139.6209 74.392,138.2709 C74.312,136.9209 74.472,135.5209 75.052,134.2409 C75.602,132.9609 76.602,131.8509 77.852,131.2009 C79.102,130.5809 80.472,130.2709 81.842,130.3009 C83.192,130.3309 84.522,130.6109 85.782,131.0909 C87.022,131.5909 88.252,132.3009 89.042,133.4709 C89.842,134.6409 89.892,136.2209 89.332,137.4509" id="Fill-8" fill="#e2bcab"/>
                            <path d="M130.082,145.9206 C130.082,150.8306 126.112,154.8006 121.212,154.8006 C116.302,154.8006 112.332,150.8306 112.332,145.9206 C112.332,141.0206 116.302,137.0506 121.212,137.0506 C126.112,137.0506 130.082,141.0206 130.082,145.9206" id="Fill-10" fill="#e2bcab"/>
                            <path d="M153.1816,104.1906 C152.8216,103.6606 152.4316,103.1606 152.0616,102.6506 C152.2516,102.9006 152.4516,103.1406 152.6316,103.3906 C152.8216,103.6606 153.0016,103.9206 153.1816,104.1906" id="Fill-12" fill="#e2bcab"/>
                            <path d="M159.6518,119.131 C159.6518,119.141 159.6418,119.141 159.6418,119.141 C158.5518,115.461 157.3918,111.961 155.7918,108.711 C155.5518,108.231 155.3218,107.751 155.0618,107.281 C157.1018,110.911 158.6618,114.901 159.6518,119.131" id="Fill-14" fill="#e2bcab"/>
                            <path d="M89.332,137.4509 L89.212,137.6909 L88.992,137.5609 C88.342,137.1509 87.532,136.9309 86.732,136.9309 C85.942,136.9109 85.102,137.1009 84.542,137.6509 C83.962,138.1909 83.922,139.1109 84.142,139.8609 C84.402,140.6109 85.062,141.2409 85.852,141.4309 L85.832,141.5209 C85.002,141.3509 84.282,140.7309 83.972,139.9209 C83.702,139.1309 83.692,138.1209 84.352,137.4609 C84.972,136.8109 85.882,136.5809 86.732,136.5609 C87.502,136.5409 88.282,136.6909 88.992,137.0409 C89.362,135.9309 89.242,134.7109 88.572,133.7909 C87.872,132.7909 86.712,132.1509 85.542,131.7209 C84.362,131.3009 83.092,131.0609 81.832,131.0909 C80.592,131.1009 79.362,131.4409 78.302,132.0009 C76.132,133.2009 75.162,135.7509 75.202,138.2409 C75.232,140.7509 76.132,143.2709 77.662,145.3709 L77.582,145.4309 C76.662,144.5009 75.902,143.3809 75.362,142.1609 C74.802,140.9509 74.452,139.6209 74.392,138.2709 C74.312,136.9209 74.472,135.5209 75.052,134.2409 C75.602,132.9609 76.602,131.8509 77.852,131.2009 C79.102,130.5809 80.472,130.2709 81.842,130.3009 C83.192,130.3309 84.522,130.6109 85.782,131.0909 C87.022,131.5909 88.252,132.3009 89.042,133.4709 C89.842,134.6409 89.892,136.2209 89.332,137.4509" id="Fill-16" fill="#672448"/>
                            <path d="M155.062,107.2809 C155.322,107.7509 155.552,108.2309 155.792,108.7109 C157.392,111.9609 158.552,115.4609 159.642,119.1409 C159.642,119.1409 159.652,119.1409 159.652,119.1309 C158.662,114.9009 157.102,110.9109 155.062,107.2809 M152.632,103.3909 C152.452,103.1409 152.252,102.9009 152.062,102.6509 C152.432,103.1609 152.822,103.6609 153.182,104.1909 C153.002,103.9209 152.822,103.6609 152.632,103.3909" id="Fill-18" fill="#672448"/>
                            <path d="M130.082,145.9206 C130.082,150.8306 126.112,154.8006 121.212,154.8006 C116.302,154.8006 112.332,150.8306 112.332,145.9206 C112.332,141.0206 116.302,137.0506 121.212,137.0506 C126.112,137.0506 130.082,141.0206 130.082,145.9206" id="Fill-20" fill="#C57450"/>
                            <path d="M99.2217,161.8708 L99.0517,166.2608 L98.7817,173.2608 L98.7717,173.2608 L98.7417,173.8908 L98.6817,175.4608 L98.5217,179.5708 C99.5417,180.4908 100.9817,181.3808 102.6117,182.1508 C105.1617,183.3708 108.1717,184.3108 110.7317,184.7008 C113.9817,185.1708 116.5317,184.7408 116.5317,182.7808 L116.5317,168.2108 C113.2417,166.9508 99.7717,162.2708 99.2217,161.8708" id="Fill-22" fill="#e2bcab"/>
                            <path d="M116.5317,168.2106 L116.5317,173.5006 C113.2417,172.2406 100.0617,162.2306 100.0617,162.2306 L100.9117,162.5406 C100.9217,162.5406 100.9217,162.5506 100.9317,162.5506 L101.1917,162.6406 L102.8217,163.2306 L102.8317,163.2406 L114.2117,167.3706 L114.2817,167.3906 L116.5317,168.2106 Z" id="Fill-24" fill="#e2bcab"/>
                        </g>
                    </g>
                </g>
                <g id="Expression/Child" transform="translate(201.000000, 425.000000) scale(1 1)">
                    <g id="Expression/Child/Smile 1" stroke="none" stroke-width="1" fill="none" fill-rule="evenodd">
                        <path d="M38.879967,1.11851736 C38.6999176,1.31386921 38.4398461,1.28456643 38.2297885,1.14782014 C38.129761,1.079447 37.9397088,0.991538664 37.7996703,0.962235887 C37.5996154,0.913397926 37.4695797,0.903630334 37.2495192,0.913397926 C37.099478,0.93293311 36.9194286,0.97200348 36.7393791,1.05014422 C36.7293764,1.05991181 36.6593571,1.08921459 36.6593571,1.08921459 C36.6093434,1.11851736 36.5693324,1.14782014 36.5293214,1.17712292 C36.4392967,1.23572847 36.4192912,1.24549606 36.3592747,1.30410162 C35.8191264,1.8315516 35.7891181,2.70086732 36.2192362,3.29669045 C36.3692775,3.50180989 36.2792527,3.80460525 36.0791978,3.93158395 C35.8591373,4.06833025 35.5890632,3.99018951 35.439022,3.78507007 C34.7688379,2.86691639 34.8688654,1.43108032 35.7190989,0.649672933 C36.5893379,-0.151269637 37.8996978,-0.209875191 38.8499588,0.464088679 C39.0600165,0.610602564 39.0300082,0.952468295 38.879967,1.11851736" id="Fill-169" fill="#672448"/>
                        <path d="M43.7262497,25.9903323 C42.114444,26.1840735 40.4838963,23.4426347 40.0903159,19.8584213 C39.6873645,16.274208 40.6713156,13.2130961 42.2737503,13.0096677 C43.885556,12.8159265 45.5161037,15.5573653 45.9096841,19.1415787 C46.3126355,22.725792 45.3286844,25.7869039 43.7262497,25.9903323" id="Fill-171" fill="#672448"/>
                        <path d="M41.9996663,10.4953765 C42.008952,10.7909286 41.8232393,10.9989098 41.5910986,11.0317489 C40.3839665,11.1740518 39.2604051,12.2139576 38.8518373,13.593201 C38.7775523,13.8559141 38.5918397,14.0529488 38.3411276,13.9872706 C38.1368437,13.9325387 37.9418455,13.6260402 38.0161305,13.3742735 C38.5639828,11.5243359 39.9382562,10.1998243 41.5632417,10.0027895 C41.7953824,9.96995038 41.9996663,10.2326634 41.9996663,10.4953765" id="Fill-173" fill="#672448"/>
                        <path d="M64,34.4898008 C61.9734415,39.0688468 59.2480698,43.0670412 56.073461,46.290767 C55.1051055,46.6683205 54.0668687,46.9200228 52.9687335,46.978108 C45.7609739,47.4137466 39.1821462,41.237359 39.0024514,38.2846972 C38.9924683,38.0426758 39.0124344,37.8296969 39.0723327,37.6263989 C39.7611629,35.361078 45.2618216,35.4869292 51.8905645,35.090014 C57.9003585,34.7318222 62.5225091,33.2409701 64,34.4898008" id="Fill-175" fill="#672448"/>
                    </g>
                </g>
            </g>
        </g>
    </g>
</svg>
