<svg viewBox="-43.75 175 798.437 601.563" xmlns="http://www.w3.org/2000/svg" xmlns:xlink="http://www.w3.org/1999/xlink" overflow="visible">
    <defs>
        <path d="M0,33.141013 L0,308.529041 L76.4322618,375.829642 L76.4322618,376.858987 C76.4322618,420.386455 112.136463,456 155.774732,456 L312.65753,456 C324.646438,456 304.89196,496.751413 348.5,501 C463.620299,512.215789 697,523.194188 697,501 C697,445.019186 697,289.06619 697,33.141013 C697,-10.386455 0,-10.386455 0,33.141013 Z" id="mastercompsonline-classes-path-1"/>
        <path d="M1,0 C-1,0 1,261.196429 1,447 C1,447 158.936065,447 166,447 L311.65753,446 C319.878456,446 488.248199,447 488.248199,444.7602 C488.248199,321.814676 495.32118,0 502.072982,0 L1,0 Z" id="mastercompsonline-classes-path-3"/>
    </defs>
    <g id="Master/Comps/Online Classes" stroke="none" stroke-width="1" fill="none" fill-rule="evenodd">
        <g id="adult" transform="translate(-39.000000, 101.000000)">
            <path d="M155.774732,106 C112.136463,106 76.4322618,141.613545 76.4322618,185.141013 L76.4322618,308.529041 L0,308.529041 L76.4322618,375.829642 L76.4322618,376.858987 C76.4322618,420.386455 112.136463,456 155.774732,456 L312.65753,456 C356.295799,456 392,420.386455 392,376.858987 L392,185.141013 C392,141.613545 356.295799,106 312.65753,106 L155.774732,106 Z" id="Fill-4" fill="#CDEEEC"/>
            <mask id="mastercompsonline-classes-mask-2" fill="#fff">
                <use xlink:href="#mastercompsonline-classes-path-1"/>
            </mask>
            <g id="mask"/>
            <g mask="url(#mastercompsonline-classes-mask-2)">
                <g transform="translate(174.571429, 524.000000) rotate(18.000000) translate(-174.571429, -524.000000) translate(-143.000000, 11.000000) scale(1.5267860576923078 1.5267857142857142)" id="Master/Character/Adult">
                    <g id="Master/Character/Adult" stroke="none" stroke-width="1" fill="none" fill-rule="evenodd">
                        <g id="Lower Body/Adult Legs" transform="translate(-68.000000, 301.000000) scale(1 1)">
                            <g id="Lower Body/Adult Legs/Jeans" stroke="none" stroke-width="1" fill="none" fill-rule="evenodd">
                                <g id="Group-89" transform="translate(173.000000, -1.000000)">
                                    <path d="M141.5098,11.2103 C141.5098,11.3703 141.3798,11.4903 141.2298,11.4903 L105.4098,11.6903 L100.7498,11.7203 C100.5898,11.7203 100.4698,11.6003 100.4598,11.4403 C100.4598,11.2903 100.5898,11.1603 100.7398,11.1603 L105.3698,11.1303 L141.2198,10.9303 C141.3798,10.9303 141.4998,11.0603 141.5098,11.2103" id="Fill-1" fill="#eed3c7"/>
                                    <path d="M57.3497,238.9002 L57.3497,238.9102 C57.3297,239.0302 57.2997,239.1302 57.2807,239.2402 C54.2597,238.9402 51.2897,238.4102 48.3297,237.8202 C44.8597,237.1002 41.4107,236.2902 38.0197,235.1502 C41.5797,235.4202 45.0797,236.0302 48.5597,236.7202 C51.5097,237.3402 54.4507,238.0102 57.3497,238.9002" id="Fill-3" fill="#eed3c7"/>
                                    <path d="M33.5997,346.6004 L33.5997,346.6104 C33.5707,346.7904 33.5307,346.9504 33.4907,347.1204 C33.4197,347.1204 33.3397,347.1304 33.2697,347.1304 L28.5197,347.2904 C25.3497,347.3904 22.1797,347.4104 19.0097,347.4204 C15.8397,347.4004 12.6697,347.3904 9.5097,347.2904 C8.9107,347.2704 8.3097,347.2604 7.7097,347.2404 C7.7297,346.9904 7.7597,346.7404 7.7807,346.4804 C8.3597,346.4604 8.9297,346.4504 9.5097,346.4304 C12.6697,346.3204 15.8397,346.3104 19.0097,346.3004 C22.1797,346.3104 25.3497,346.3204 28.5197,346.4304 L33.2697,346.5804 C33.3797,346.5904 33.4907,346.5904 33.5997,346.6004" id="Fill-5" fill="#eed3c7"/>
                                    <path d="M106.3595,25.0902 L106.3595,47.4802 C106.3595,47.6302 106.2295,47.7602 106.0705,47.7602 C106.0495,47.7602 106.0405,47.7602 106.0195,47.7502 L100.8995,55.8602 L94.2005,86.6502 C94.1795,86.1002 94.1495,85.5702 94.1205,85.0302 L100.6205,55.7602 C100.6205,55.7502 100.6305,55.7302 100.6395,55.7202 L105.8495,47.6402 C105.8095,47.5902 105.7905,47.5402 105.7905,47.4802 L105.7905,25.0902 C105.7905,24.9302 105.9205,24.8102 106.0705,24.8102 C106.1495,24.8102 106.2295,24.8402 106.2905,24.9002 C106.3305,24.9502 106.3595,25.0102 106.3595,25.0902" id="Fill-7" fill="#eed3c7"/>
                                    <path d="M128.5196,14.4305 L128.5196,14.4405 C128.5096,14.7505 128.2696,14.9905 127.9596,14.9905 L109.2096,14.9905 L109.2096,18.7705 L111.3206,18.7705 C111.6296,18.7705 111.8796,19.0205 111.8796,19.3405 C111.8796,19.6505 111.6296,19.9005 111.3206,19.9005 L105.9596,19.9005 C105.6606,19.8805 105.4296,19.6405 105.4296,19.3405 C105.4296,19.0605 105.6206,18.8305 105.8796,18.7805 C105.9106,18.7705 105.9506,18.7705 105.9906,18.7705 L108.0896,18.7705 L108.0896,14.4305 C108.0896,14.1205 108.3396,13.8705 108.6496,13.8705 L127.9596,13.8705 C128.2696,13.8705 128.5196,14.1205 128.5196,14.4305" id="Fill-9" fill="#EDFBFB"/>
                                    <path d="M136.1202,14.4403 L136.1202,24.2603 L128.5192,24.2603 L128.5192,24.2503 C128.5192,23.9403 128.2692,23.6903 127.9602,23.6903 L109.2102,23.6903 L109.2102,19.9003 L111.3202,19.9003 C111.6302,19.9003 111.8802,19.6503 111.8802,19.3403 C111.8802,19.0203 111.6302,18.7703 111.3202,18.7703 L109.2102,18.7703 L109.2102,14.9903 L127.9602,14.9903 C128.2692,14.9903 128.5102,14.7503 128.5192,14.4403 L136.1202,14.4403 Z" id="Fill-11" fill="#eed3c7"/>
                                    <path d="M136.4395,229.6502 C134.0005,230.5102 131.5305,231.2502 129.0495,231.9802 C126.5805,232.7102 124.0805,233.3602 121.5805,234.0102 C119.0805,234.6302 116.5805,235.2502 114.0495,235.7802 L110.2695,236.5802 C108.9905,236.8102 107.7295,237.0802 106.4505,237.2702 C107.6695,236.8302 108.8995,236.4602 110.1295,236.0502 L113.8395,234.9502 C116.3095,234.2102 118.8095,233.5602 121.3095,232.9202 C123.8095,232.3002 126.3095,231.6802 128.8395,231.1402 C131.3595,230.5902 133.8895,230.0602 136.4395,229.6502" id="Fill-13" fill="#eed3c7"/>
                                    <path d="M144.5997,140.8904 C144.1397,156.2504 143.7097,168.7304 143.3397,175.5204 L144.3497,146.7704 L144.5997,140.8904 Z" id="Fill-15" fill="#eed3c7"/>
                                    <path d="M136.2501,343.3504 L136.2501,343.3604 C135.9101,350.6304 135.7001,355.0204 135.6701,355.7904 L135.2801,355.9104 L105.8201,355.9104 C105.8201,355.8104 105.6001,351.3704 105.2301,343.5904 C105.6891,343.6104 106.1401,343.6304 106.6001,343.6504 C107.3301,343.6704 108.0701,343.6904 108.8001,343.7104 C109.2501,343.7204 109.6891,343.7404 110.1401,343.7404 C112.8591,343.8204 115.5901,343.8304 118.3101,343.8404 C121.4801,343.8304 124.6401,343.8104 127.8101,343.7104 L132.5701,343.5604 C133.0801,343.5304 133.5901,343.5004 134.1001,343.4704 C134.8101,343.4404 135.5301,343.4004 136.2501,343.3504" id="Fill-17" fill="#96DAD5"/>
                                    <path d="M134.1202,343.0901 C134.1202,343.2201 134.1092,343.3401 134.0992,343.4701 C133.5902,343.5001 133.0802,343.5301 132.5702,343.5601 L127.8092,343.7101 C124.6402,343.8101 121.4792,343.8301 118.3092,343.8401 C115.5902,343.8301 112.8592,343.8201 110.1402,343.7401 C109.6892,343.7401 109.2502,343.7201 108.8002,343.7101 C108.0702,343.6901 107.3302,343.6701 106.6002,343.6501 C106.5902,343.4101 106.5702,343.1701 106.5592,342.9201 C107.3092,342.8901 108.0502,342.8701 108.8002,342.8501 C110.1092,342.8101 111.4202,342.7801 112.7402,342.7601 C114.5902,342.7401 116.4502,342.7301 118.3092,342.7201 C121.4792,342.7301 124.6402,342.7501 127.8092,342.8501 L132.5702,343.0001 C133.0902,343.0301 133.5992,343.0601 134.1202,343.0901" id="Fill-19" fill="#eed3c7"/>
                                    <path d="M35.4102,346.7005 C35.4102,346.8105 35.3992,346.9205 35.3992,347.0205 C34.7602,347.0505 34.1302,347.0805 33.4902,347.1205 C33.4202,347.1205 33.3402,347.1305 33.2692,347.1305 L28.5192,347.2905 C25.3492,347.3905 22.1802,347.4105 19.0102,347.4205 C15.8402,347.4005 12.6702,347.3905 9.5102,347.2905 C8.9102,347.2705 8.3092,347.2605 7.7102,347.2405 C6.8092,347.2105 5.9102,347.1805 5.0192,347.1405 C5.0102,346.9505 5.0002,346.7705 4.9902,346.5805 C5.9202,346.5405 6.8492,346.5105 7.7802,346.4805 C8.3592,346.4605 8.9302,346.4505 9.5102,346.4305 C12.6702,346.3205 15.8402,346.3105 19.0102,346.3005 C22.1802,346.3105 25.3492,346.3205 28.5192,346.4305 L33.2692,346.5805 C33.3802,346.5905 33.4902,346.5905 33.5992,346.6005 C34.2002,346.6405 34.8092,346.6705 35.4102,346.7005" id="Fill-21" fill="#2A4D52"/>
                                    <path d="M5.9501,371.49 C5.9391,370.62 5.7601,366.47 5.4391,359.65 L5.4391,356.3305 L34.88,355.5605 L34.4391,359 L32.7901,359.51 L32.7801,359.51 L28.8101,360.73 C28.5101,360.82 28.3401,361.13 28.4301,361.42 C28.5101,361.67 28.7291,361.82 28.9701,361.82 C29.0301,361.82 29.0801,361.82 29.1401,361.79 L34.6201,360.11 L36.4201,359.56 L41.4791,361.23 L39.7001,361.78 L39.6891,361.78 L33.5901,363.65 C33.2901,363.74 33.1301,364.06 33.2201,364.36 C33.2801,364.59 33.5101,364.75 33.7601,364.75 C33.8001,364.75 33.8591,364.75 33.9101,364.73 L41.5301,362.39 L43.3301,361.84 L70.3501,370.73 C71.5901,371.31 71.1601,373.18 69.7901,373.14 L5.9501,371.49 Z" id="Fill-23" fill="#2A4D52"/>
                                    <path d="M34.4395,355.6302 L34.8795,355.4902 C34.8595,355.5702 34.8495,355.6102 34.8495,355.6202 L34.4395,355.6302 Z" id="Fill-25" fill="#2A4D52"/>
                                    <path d="M36.42,356.1902 L35,355.7302 C35,355.6702 35,355.5802 34.99,355.4602 L34.88,355.4902 C34.91,355.3502 34.96,355.1102 35.03,354.7602 C35.03,354.7502 35.04,354.7302 35.04,354.7202 C35.02,355.2402 35.01,355.5702 35.01,355.7202 L36.42,356.1902 Z" id="Fill-27" fill="#2A4D52"/>
                                    <path d="M36.42,356.1902 L34.62,356.7402 L29.14,358.4202 C29.08,358.4502 29.03,358.4502 28.97,358.4502 C28.73,358.4502 28.51,358.3002 28.43,358.0502 C28.34,357.7602 28.51,357.4502 28.81,357.3602 L32.78,356.1402 L32.79,356.1402 L34.44,355.6302 L34.85,355.6202 C34.85,355.6102 34.859,355.5702 34.88,355.4902 L34.99,355.4602 C35,355.5802 35,355.6702 35,355.7302 L36.42,356.1902 Z" id="Fill-29" fill="#EDFBFB"/>
                                    <path d="M34.88,355.4905 C34.859,355.5705 34.85,355.6105 34.85,355.6205 L34.44,355.6305 L34.88,355.4905 Z" id="Fill-31" fill="#EDFBFB"/>
                                    <path d="M43.3302,358.4705 L41.5302,359.0205 L33.9102,361.3605 C33.8592,361.3805 33.8002,361.3805 33.7602,361.3805 C33.5102,361.3805 33.2802,361.2205 33.2202,360.9905 C33.1302,360.6905 33.2902,360.3705 33.5902,360.2805 L39.6892,358.4105 L39.7002,358.4105 L41.4792,357.8605 L43.3302,358.4705 Z" id="Fill-33" fill="#EDFBFB"/>
                                    <path d="M106.6893,371.49 C106.6793,370.6 106.321,362.9604 106,355.9104 C125.666867,355.9104 135.5003,355.9104 135.5003,355.9104 C135.484902,355.912201 135.411568,357.035401 135.2803,359.28 L134.0993,359.64 L130.5593,360.73 C130.2503,360.82 130.0903,361.13 130.1793,361.42 C130.2503,361.67 130.4793,361.82 130.7193,361.82 C130.7693,361.82 130.8303,361.82 130.8803,361.79 L135.9103,360.25 L135.9293,360.25 L137.6393,359.72 L137.6493,359.72 L142.7103,361.39 L141.0003,361.91 L140.9903,361.91 L135.3303,363.65 C135.0403,363.74 134.8703,364.06 134.9603,364.36 C135.0303,364.59 135.2503,364.75 135.5003,364.75 C135.5503,364.75 135.5993,364.75 135.6603,364.73 L142.8403,362.52 L142.8493,362.52 L144.5703,361.99 L144.5803,361.99 L171.0903,370.73 C172.3403,371.31 171.8993,373.18 170.5303,373.14 L106.6893,371.49 Z" id="Fill-35" fill="#2A4D52"/>
                                    <path d="M135.2803,355.9105 L135.6703,355.7905 C135.6603,355.8705 135.6603,355.9105 135.6603,355.9105 L135.2803,355.9105 Z" id="Fill-38" fill="#2A4D52"/>
                                    <path d="M136.5596,338.9803 C136.4796,340.4803 136.4106,341.8903 136.3396,343.2103 C136.3396,343.2603 136.3396,343.3103 136.3306,343.3503 C136.1206,347.4803 135.9596,350.6703 135.8706,352.7903 C135.7896,354.4303 135.7496,355.4303 135.7496,355.7203 L135.8206,355.7403 L135.6696,355.7903 C135.7006,355.0203 135.9106,350.6303 136.2496,343.3603 L136.2496,343.3503 C135.5306,343.4003 134.8096,343.4403 134.0996,343.4703 C133.5896,343.5003 133.0806,343.5303 132.5706,343.5603 L127.8096,343.7103 C124.6396,343.8103 121.4796,343.8303 118.3096,343.8403 C115.5896,343.8303 112.8596,343.8203 110.1396,343.7403 C110.9796,343.4003 111.8496,343.0703 112.7406,342.7603 C114.5896,342.7403 116.4506,342.7303 118.3096,342.7203 C121.4796,342.7303 124.6396,342.7503 127.8096,342.8503 L132.5706,343.0003 C133.0896,343.0303 133.5996,343.0603 134.1206,343.0903 C134.8306,343.1203 135.5396,343.1603 136.2596,343.2103 C136.3206,341.9003 136.3796,340.4903 136.4506,338.9903 L136.4506,338.9803 L136.5596,338.9803 Z" id="Fill-40" fill="#2A4D52"/>
                                    <path d="M137.6397,356.3504 L135.9297,356.8804 L135.9107,356.8804 L130.8797,358.4204 C130.8297,358.4504 130.7697,358.4504 130.7197,358.4504 C130.4797,358.4504 130.2497,358.3004 130.1797,358.0504 C130.0897,357.7604 130.2497,357.4504 130.5597,357.3604 L134.0997,356.2704 L135.2807,355.9104 L135.6607,355.9104 C135.6607,355.9104 135.6607,355.8704 135.6697,355.7904 L135.8207,355.7404 L137.6397,356.3504 Z" id="Fill-42" fill="#EDFBFB"/>
                                    <path d="M135.67,355.7903 C135.66,355.8703 135.66,355.9103 135.66,355.9103 L135.28,355.9103 L135.67,355.7903 Z" id="Fill-44" fill="#EDFBFB"/>
                                    <path d="M144.5704,358.6204 L142.8494,359.1504 L142.8404,359.1504 L135.6604,361.3604 C135.5994,361.3804 135.5494,361.3804 135.5004,361.3804 C135.2504,361.3804 135.0304,361.2204 134.9604,360.9904 C134.8704,360.6904 135.0404,360.3704 135.3304,360.2804 L140.9904,358.5404 L141.0004,358.5404 L142.7104,358.0204 L142.7194,358.0204 L144.5704,358.6204 Z" id="Fill-46" fill="#EDFBFB"/>
                                    <path d="M141.5098,11.2103 C141.5098,11.3703 141.3798,11.4903 141.2298,11.4903 L105.4098,11.6903 L100.7498,11.7203 C100.5898,11.7203 100.4698,11.6003 100.4598,11.4403 C100.4598,11.2903 100.5898,11.1603 100.7398,11.1603 L105.3698,11.1303 L141.2198,10.9303 C141.3798,10.9303 141.4998,11.0603 141.5098,11.2103" id="Fill-48" fill="#96DAD5"/>
                                    <path d="M136.4395,229.6502 C134.0005,230.5102 131.5305,231.2502 129.0495,231.9802 C126.5805,232.7102 124.0805,233.3602 121.5805,234.0102 C119.0805,234.6302 116.5805,235.2502 114.0495,235.7802 L110.2695,236.5802 C108.9905,236.8102 107.7295,237.0802 106.4505,237.2702 C107.6695,236.8302 108.8995,236.4602 110.1295,236.0502 L113.8395,234.9502 C116.3095,234.2102 118.8095,233.5602 121.3095,232.9202 C123.8095,232.3002 126.3095,231.6802 128.8395,231.1402 C131.3595,230.5902 133.8895,230.0602 136.4395,229.6502" id="Fill-50" fill="#96DAD5"/>
                                    <path d="M106.3595,25.0902 L106.3595,47.4802 C106.3595,47.6302 106.2295,47.7602 106.0705,47.7602 C106.0495,47.7602 106.0405,47.7602 106.0195,47.7502 L100.8995,55.8602 L94.2005,86.6502 L94.2005,86.6802 L93.0805,91.8102 C93.0495,91.2302 93.0305,90.6502 93.0005,90.0802 L93.0005,90.0502 L94.1205,85.0302 L100.6205,55.7602 C100.6205,55.7502 100.6305,55.7302 100.6395,55.7202 L105.8495,47.6402 C105.8095,47.5902 105.7905,47.5402 105.7905,47.4802 L105.7905,25.0902 C105.7905,24.9302 105.9205,24.8102 106.0705,24.8102 C106.1495,24.8102 106.2295,24.8402 106.2905,24.9002 C106.3305,24.9502 106.3595,25.0102 106.3595,25.0902" id="Fill-52" fill="#96DAD5"/>
                                    <path d="M135.67,355.7903 C135.66,355.8703 135.66,355.9103 135.66,355.9103 L135.28,355.9103 L135.67,355.7903 Z" id="Fill-54" fill="#96DAD5"/>
                                    <path d="M136.2598,343.2103 C136.2598,343.2603 136.2498,343.3003 136.2498,343.3503 C135.5308,343.4003 134.8098,343.4403 134.0998,343.4703 C133.5898,343.5003 133.0798,343.5303 132.5708,343.5603 L127.8098,343.7103 C124.6398,343.8103 121.4798,343.8303 118.3098,343.8403 C115.5898,343.8303 112.8598,343.8203 110.1398,343.7403 C109.6898,343.7403 109.2498,343.7203 108.7998,343.7103 C108.0708,343.6903 107.3298,343.6703 106.5998,343.6503 C106.1398,343.6303 105.6898,343.6103 105.2298,343.5903 C105.2198,343.3803 105.2098,343.1803 105.1998,342.9703 C105.6498,342.9503 106.1098,342.9303 106.5598,342.9203 C107.3098,342.8903 108.0498,342.8703 108.7998,342.8503 C110.1098,342.8103 111.4198,342.7803 112.7398,342.7603 C114.5898,342.7403 116.4498,342.7303 118.3098,342.7203 C121.4798,342.7303 124.6398,342.7503 127.8098,342.8503 L132.5708,343.0003 C133.0898,343.0303 133.5998,343.0603 134.1198,343.0903 C134.8298,343.1203 135.5398,343.1603 136.2598,343.2103" id="Fill-56" fill="#96DAD5"/>
                                    <path d="M147.0196,85.7405 C145.7496,123.1405 143.9696,167.5405 142.2096,209.4305 L142.4296,201.3205 L143.0706,183.1405 L143.3096,176.1605 L143.3306,175.6805 L143.3396,175.5205 L144.3496,146.7705 L144.5996,140.8905 L144.6096,140.6105 L145.9106,110.4105 L146.6896,92.2205 L147.0196,85.7405 Z" id="Fill-58" fill="#96DAD5"/>
                                    <path d="M136.1202,14.4403 L136.1202,24.2603 L128.5192,24.2603 L128.5192,24.2503 C128.5192,23.9403 128.2692,23.6903 127.9602,23.6903 L109.2102,23.6903 L109.2102,19.9003 L111.3202,19.9003 C111.6302,19.9003 111.8802,19.6503 111.8802,19.3403 C111.8802,19.0203 111.6302,18.7703 111.3202,18.7703 L109.2102,18.7703 L109.2102,14.9903 L127.9602,14.9903 C128.2692,14.9903 128.5102,14.7503 128.5192,14.4403 L136.1202,14.4403 Z" id="Fill-60" fill="#96DAD5"/>
                                    <path d="M105.4102,11.6903 L100.7502,11.7203 C100.5902,11.7203 100.4702,11.6003 100.4602,11.4403 C100.4602,11.2903 100.5902,11.1603 100.7402,11.1603 L105.3702,11.1303 L105.4102,11.6903 Z" id="Fill-62" fill="#96DAD5"/>
                                    <path d="M121.5799,234.0103 C119.0799,234.6303 116.5799,235.2503 114.0499,235.7803 L110.2699,236.5803 C108.9899,236.8103 107.7299,237.0803 106.4499,237.2703 C107.6699,236.8303 108.8999,236.4603 110.1299,236.0503 L113.8399,234.9503 C116.3099,234.2103 118.8099,233.5603 121.3099,232.9203 C123.8099,232.3003 126.3099,231.6803 128.8399,231.1403 C131.3599,230.5903 133.8899,230.0603 136.4399,229.6503 C133.9999,230.5103 131.5299,231.2503 129.0499,231.9803 C126.5799,232.7103 124.0799,233.3603 121.5799,234.0103 Z M48.3299,237.8203 C44.8599,237.1003 41.4099,236.2903 38.0199,235.1503 C41.5799,235.4203 45.0799,236.0303 48.5599,236.7203 C51.5099,237.3403 54.4499,238.0103 57.3499,238.9003 L57.3499,238.9103 C57.8599,239.0603 58.3599,239.2203 58.8699,239.3903 C58.3399,239.3503 57.8099,239.3003 57.2799,239.2403 C54.2599,238.9403 51.2899,238.4103 48.3299,237.8203 Z M147.8399,14.4403 C147.9599,8.9703 147.4798,4.3903 147.5488,1.0003 L62.9488,1.0003 C61.5884479,0.802810957 58.6151123,4.43603002 58.6151123,4.43851501 C58.6151123,4.441 54.3856037,14.4403 54.3856037,14.2603 C48.9855559,28.3637676 41.9599,55.7302 37.0199,86.1003 C32.0799,116.4704 9.6799,297.6403 4.1999,346.6203 C4.4599,346.6103 4.7199,346.5903 4.9899,346.5803 C5.9199,346.5403 6.8499,346.5103 7.7799,346.4803 C8.3599,346.4603 8.9299,346.4503 9.5099,346.4303 C12.6699,346.3203 15.8399,346.3103 19.0099,346.3003 C22.1799,346.3103 25.3499,346.3203 28.5199,346.4303 L33.2699,346.5803 C33.3799,346.5903 33.4899,346.5903 33.5999,346.6003 C34.1999,346.6403 34.8099,346.6703 35.4099,346.7003 C35.8599,346.7203 36.2999,346.7403 36.7399,346.7703 L41.9599,322.4703 L50.2599,284.3503 L55.1599,261.8803 L56.6999,254.7903 C68.5099,200.3503 93.0799,91.8103 93.0799,91.8103 L93.0799,91.8303 C97.0099,173.1903 103.2199,302.0203 105.1999,342.9703 C105.6499,342.9503 106.1099,342.9303 106.5599,342.9203 C107.3099,342.8903 108.0499,342.8703 108.7999,342.8503 C110.1099,342.8103 111.4199,342.7803 112.7399,342.7603 C114.5899,342.7403 116.4499,342.7303 118.3099,342.7203 C121.4799,342.7303 124.6399,342.7503 127.8099,342.8503 L132.5709,343.0003 C133.0899,343.0303 133.5999,343.0603 134.1199,343.0903 C134.8299,343.1203 135.5399,343.1603 136.2599,343.2103 C136.3209,341.9003 136.3799,340.4903 136.4499,338.9903 L136.4499,338.9803 C137.6199,313.9103 139.8999,263.9703 142.1899,209.7903 L142.1999,209.6003 L142.2099,209.4303 L142.4299,201.3203 L143.0709,183.1403 L143.3099,176.1603 L143.3299,175.6803 L143.3399,175.5203 L144.3499,146.7703 L144.5999,140.8903 L144.6099,140.6103 L145.9099,110.4103 L146.6899,92.2203 L147.0199,85.7403 L147.0199,85.6903 C147.8399,61.3803 148.4399,40.0303 148.6899,24.2603 L147.8399,14.4403 Z" id="Fill-64" fill="#96DAD5"/>
                                    <path d="M34.88,355.4905 C34.859,355.5705 34.85,355.6105 34.85,355.6205 L34.44,355.6305 L34.88,355.4905 Z" id="Fill-66" fill="#96DAD5"/>
                                    <path d="M55.1602,261.8802 C46.8802,300.0902 39.9602,332.0002 36.7602,346.7802 C36.7502,346.8402 36.7402,346.9002 36.7202,346.9502 C36.5702,347.6502 36.4302,348.3102 36.2902,348.9302 L36.7102,346.9502 C36.2802,346.9702 35.8402,347.0002 35.3992,347.0202 C34.7602,347.0502 34.1302,347.0802 33.4902,347.1202 C33.4202,347.1202 33.3402,347.1302 33.2692,347.1302 L28.5192,347.2902 C25.3492,347.3902 22.1802,347.4102 19.0102,347.4202 C15.8402,347.4002 12.6702,347.3902 9.5102,347.2902 C8.9102,347.2702 8.3092,347.2602 7.7102,347.2402 C6.8092,347.2102 5.9102,347.1802 5.0192,347.1402 C4.7292,347.1302 4.4392,347.1102 4.1492,347.1002 C4.1702,346.9402 4.1802,346.7802 4.2002,346.6202 C4.4602,346.6102 4.7202,346.5902 4.9902,346.5802 C5.9202,346.5402 6.8492,346.5102 7.7802,346.4802 C8.3592,346.4602 8.9302,346.4502 9.5102,346.4302 C12.6702,346.3202 15.8402,346.3102 19.0102,346.3002 C22.1802,346.3102 25.3492,346.3202 28.5192,346.4302 L33.2692,346.5802 C33.3802,346.5902 33.4902,346.5902 33.5992,346.6002 C34.2002,346.6402 34.8092,346.6702 35.4102,346.7002 C35.8592,346.7202 36.3002,346.7402 36.7402,346.7702 L41.9602,322.4702 L50.2602,284.3502 L55.1602,261.8802 Z" id="Fill-68" fill="#96DAD5"/>
                                    <path d="M58.8702,239.3904 C58.3402,239.3504 57.8092,239.3004 57.2802,239.2404 C54.2602,238.9404 51.2902,238.4104 48.3302,237.8204 C44.8592,237.1004 41.4102,236.2904 38.0192,235.1504 C41.5802,235.4204 45.0802,236.0304 48.5592,236.7204 C51.5102,237.3404 54.4502,238.0104 57.3492,238.9004 L57.3492,238.9104 C57.8592,239.0604 58.3592,239.2204 58.8702,239.3904" id="Fill-70" fill="#96DAD5"/>
                                    <path d="M67.0001,4.4403 L67.0001,14.2603 L54.3856037,14.2603 C54.3856037,14.4403 58.5140801,4.4403 58.5140801,4.4403 L67.0001,4.4403 Z" id="Fill-72" fill="#672448"/>
                                    <polygon id="Fill-74" fill="#672448" points="69.25 14.261 100.74 14.261 100.74 4.441 69.25 4.441"/>
                                    <path d="M105.4298,9.3402 C105.4298,9.6402 105.6598,9.8802 105.9598,9.9002 L108.0898,9.9002 L108.0898,14.2602 L102.9908,14.2602 L102.9908,4.4402 L108.0898,4.4402 L108.0898,8.7702 L105.9908,8.7702 C105.9508,8.7702 105.9098,8.7702 105.8798,8.7802 C105.6198,8.8302 105.4298,9.0602 105.4298,9.3402" id="Fill-76" fill="#672448"/>
                                    <path d="M128.5196,14.2503 L128.5196,14.2603 C128.5096,14.5703 128.2696,14.8103 127.9596,14.8103 L108.6496,14.8103 C108.3396,14.8103 108.0996,14.5703 108.0896,14.2603 L108.0896,9.9003 L109.2096,9.9003 L109.2096,13.6903 L127.9596,13.6903 C128.2696,13.6903 128.5196,13.9403 128.5196,14.2503" id="Fill-77" fill="#EDFBFB"/>
                                    <path d="M136.1202,4.4403 L136.1202,14.2603 L128.5192,14.2603 L128.5192,14.2503 C128.5192,13.9403 128.2692,13.6903 127.9602,13.6903 L109.2102,13.6903 L109.2102,9.9003 L111.3202,9.9003 C111.6302,9.9003 111.8802,9.6503 111.8802,9.3403 C111.8802,9.0203 111.6302,8.7703 111.3202,8.7703 L109.2102,8.7703 L109.2102,4.9903 L127.9602,4.9903 C128.2692,4.9903 128.5102,4.7503 128.5192,4.4403 L136.1202,4.4403 Z" id="Fill-78" fill="#672448"/>
                                    <path d="M148.7999,4.4403 C148.7799,7.4003 148.7399,10.6903 148.6899,14.2603 L138.3699,14.2603 L138.3699,4.4403 L148.7999,4.4403 Z" id="Fill-79" fill="#672448"/>
                                    <path d="M141.5098,11.2103 C141.5098,11.3703 141.3798,11.4903 141.2298,11.4903 L105.4098,11.6903 L100.7498,11.7203 C100.5898,11.7203 100.4698,11.6003 100.4598,11.4403 C100.4598,11.2903 100.5898,11.1603 100.7398,11.1603 L105.3698,11.1303 L141.2198,10.9303 C141.3798,10.9303 141.4998,11.0603 141.5098,11.2103" id="Fill-80" fill="#2A4D52"/>
                                    <path d="M36.71,346.9505 L36.29,348.9305 L35.75,351.4405 L35.33,353.3805 L35.07,354.5805 L35.04,354.7005 L35.04,354.7205 C35.04,354.7305 35.03,354.7505 35.03,354.7605 C34.96,355.1105 34.91,355.3505 34.88,355.4905 L34.439,355.6305 L31.859,355.6905 L6.859,356.2505 L5.439,356.2805 L3.12,356.3305 C3.12,356.3205 3.49,353.0005 4.149,347.1005 C4.439,347.1105 4.73,347.1305 5.02,347.1405 C5.91,347.1805 6.81,347.2105 7.71,347.2405 C8.31,347.2605 8.91,347.2705 9.51,347.2905 C12.67,347.3905 15.84,347.4005 19.01,347.4205 C22.18,347.4105 25.35,347.3905 28.52,347.2905 L33.27,347.1305 C33.34,347.1305 33.42,347.1205 33.49,347.1205 C34.13,347.0805 34.76,347.0505 35.399,347.0205 C35.84,347.0005 36.28,346.9705 36.71,346.9505" id="Fill-81" fill="#96DAD5"/>
                                    <path d="M106.1798,47.4603 C106.1798,47.4903 106.1798,47.5103 106.1598,47.5303 L106.0198,47.7503 L100.8998,55.8603 L94.2008,86.6503 L94.2008,86.6803 L93.0798,91.8103 L93.0798,91.8303 L84.3298,132.0703 L67.6498,208.2903 L50.7808,284.4703 L42.3298,322.5503 L36.8398,346.7803 L36.7998,346.9403 L35.0708,354.5803 L35.3298,353.3803 L35.7498,351.4403 L36.2898,348.9303 L36.7098,346.9503 L36.7408,346.7703 L41.9598,322.4703 L50.2598,284.3503 L55.1598,261.8803 L56.6998,254.7903 L66.8798,208.1203 L83.7098,131.9303 L92.9998,90.0803 L92.9998,90.0503 L94.1198,85.0303 L100.6198,55.7603 C100.6198,55.7503 100.6298,55.7303 100.6398,55.7203 L105.8498,47.6403 L105.9698,47.4603 L105.7898,46.2603 L105.7898,44.9603 L106.1798,47.4603 Z" id="Fill-82" fill="#2A4D52"/>
                                    <path d="M106.3595,25.0902 L106.3595,47.4802 C106.3595,47.6302 106.2295,47.7602 106.0705,47.7602 C106.0495,47.7602 106.0405,47.7602 106.0195,47.7502 C105.9505,47.7402 105.8805,47.7002 105.8495,47.6402 C105.8095,47.5902 105.7905,47.5402 105.7905,47.4802 L105.7905,25.0902 C105.7905,24.9302 105.9205,24.8102 106.0705,24.8102 C106.1495,24.8102 106.2295,24.8402 106.2905,24.9002 C106.3305,24.9502 106.3595,25.0102 106.3595,25.0902" id="Fill-83" fill="#2A4D52"/>
                                    <path d="M136.4395,229.6502 C134.0005,230.5102 131.5305,231.2502 129.0495,231.9802 C126.5805,232.7102 124.0805,233.3602 121.5805,234.0102 C119.0805,234.6302 116.5805,235.2502 114.0495,235.7802 L110.2695,236.5802 C108.9905,236.8102 107.7295,237.0802 106.4505,237.2702 C107.6695,236.8302 108.8995,236.4602 110.1295,236.0502 L113.8395,234.9502 C116.3095,234.2102 118.8095,233.5602 121.3095,232.9202 C123.8095,232.3002 126.3095,231.6802 128.8395,231.1402 C131.3595,230.5902 133.8895,230.0602 136.4395,229.6502" id="Fill-84" fill="#2A4D52"/>
                                    <path d="M58.8702,239.3904 C58.3402,239.3504 57.8092,239.3004 57.2802,239.2404 C54.2602,238.9404 51.2902,238.4104 48.3302,237.8204 C44.8592,237.1004 41.4102,236.2904 38.0192,235.1504 C41.5802,235.4204 45.0802,236.0304 48.5592,236.7204 C51.5102,237.3404 54.4502,238.0104 57.3492,238.9004 L57.3492,238.9104 C57.8592,239.0604 58.3592,239.2204 58.8702,239.3904" id="Fill-85" fill="#2A4D52"/>
                                    <polygon id="Fill-86" fill="#2A4D52" points="147.6095 74.0403 147.0995 92.2203 146.4695 110.4103 145.1895 146.7703 143.6305 183.1403 142.8395 201.3203 141.9295 219.5103 142.1895 209.7903 142.2005 209.6003 142.2105 209.4303 142.4295 201.3203 143.0705 183.1403 143.3095 176.1603 143.3305 175.6803 143.3395 175.5203 144.3495 146.7703 144.5995 140.8903 144.6095 140.6103 145.9105 110.4103 146.6895 92.2203 147.0195 85.7403 147.0195 85.6903"/>
                                    <path d="M38.0196,346.8602 C37.6206,346.8902 37.2096,346.9202 36.7996,346.9402 C36.7806,346.9402 36.7496,346.9502 36.7196,346.9502 L36.7096,346.9502 C36.2806,346.9702 35.8396,347.0002 35.3996,347.0202 C34.7596,347.0502 34.1296,347.0802 33.4906,347.1202 C33.4196,347.1202 33.3396,347.1302 33.2696,347.1302 L28.5196,347.2902 C25.3496,347.3902 22.1796,347.4102 19.0096,347.4202 C15.8396,347.4002 12.6696,347.3902 9.5096,347.2902 C8.9106,347.2702 8.3096,347.2602 7.7096,347.2402 C6.8096,347.2102 5.9106,347.1802 5.0196,347.1402 C4.7296,347.1302 4.4396,347.1102 4.1496,347.1002 C2.7596,347.0402 1.3796,346.9602 -0.0004,346.8602 C1.3996,346.7602 2.7996,346.6802 4.2006,346.6202 C4.4596,346.6102 4.7196,346.5902 4.9906,346.5802 C5.9196,346.5402 6.8496,346.5102 7.7806,346.4802 C8.3596,346.4602 8.9296,346.4502 9.5096,346.4302 C12.6696,346.3202 15.8396,346.3102 19.0096,346.3002 C22.1796,346.3102 25.3496,346.3202 28.5196,346.4302 L33.2696,346.5802 C33.3796,346.5902 33.4906,346.5902 33.5996,346.6002 C34.2006,346.6402 34.8096,346.6702 35.4106,346.7002 C35.8596,346.7202 36.2996,346.7402 36.7406,346.7702 C36.7496,346.7702 36.7596,346.7802 36.7596,346.7802 C36.7906,346.7702 36.8206,346.7702 36.8396,346.7802 C37.2406,346.8002 37.6296,346.8302 38.0196,346.8602" id="Fill-87" fill="#2A4D52"/>
                                    <path d="M137.3204,343.2806 C136.9904,343.3106 136.6604,343.3306 136.3304,343.3506 C136.2994,343.3506 136.2804,343.3606 136.2504,343.3506 C135.5304,343.4006 134.8094,343.4406 134.0994,343.4706 C133.5904,343.5006 133.0804,343.5306 132.5704,343.5606 L127.8094,343.7106 C124.6394,343.8106 121.4794,343.8306 118.3094,343.8406 C115.5904,343.8306 112.8594,343.8206 110.1394,343.7406 C109.6894,343.7406 109.2504,343.7206 108.8004,343.7106 C108.0704,343.6906 107.3304,343.6706 106.5994,343.6506 C106.1394,343.6306 105.6894,343.6106 105.2294,343.5906 C103.2594,343.5206 101.2804,343.4206 99.3004,343.2806 C101.2694,343.1406 103.2404,343.0406 105.2004,342.9706 C105.6494,342.9506 106.1094,342.9306 106.5594,342.9206 C107.3094,342.8906 108.0504,342.8706 108.8004,342.8506 C110.1094,342.8106 111.4204,342.7806 112.7404,342.7606 C114.5904,342.7406 116.4504,342.7306 118.3094,342.7206 C121.4794,342.7306 124.6394,342.7506 127.8094,342.8506 L132.5704,343.0006 C133.0904,343.0306 133.5994,343.0606 134.1204,343.0906 C134.8304,343.1206 135.5404,343.1606 136.2594,343.2106 L136.3404,343.2106 C136.6704,343.2306 136.9904,343.2506 137.3204,343.2806" id="Fill-88" fill="#2A4D52"/>
                                </g>
                            </g>
                        </g>
                        <g id="Upper Body/Adult Torso" transform="translate(0.000000, 55.000000) scale(1 1)">
                            <g id="Upper Body/Adult Torso/Tank Top" stroke="none" stroke-width="1" fill="none" fill-rule="evenodd">
                                <g id="Group-46" transform="translate(-11.000000, 95.000000)">
                                    <path d="M180.8263,5.388 C181.1363,5.199 182.8653,4.288 184.6263,3.468 C182.4663,4.279 180.4553,5.328 178.5763,6.688 C176.8263,7.938 175.1953,9.458 173.6763,11.298 C175.7163,9.029 178.2163,6.968 180.8263,5.388" id="Fill-1" fill="#eed3c7"/>
                                    <path d="M261.2159,101.3382 C260.8059,96.3482 260.3649,91.2982 259.9259,86.3582 C260.2959,90.9782 260.6459,95.7382 261.2159,101.3382" id="Fill-3" fill="#eed3c7"/>
                                    <path d="M263.8761,137.1185 L176.6461,136.4985 C176.7051,136.8385 176.7661,137.1685 176.8261,137.4985 L263.9261,138.1185 C263.9061,137.7885 263.8861,137.4585 263.8761,137.1185" id="Fill-5" fill="#eed3c7"/>
                                    <path d="M253.1056,150.4886 L253.0956,150.4886 L179.0666,149.9586 C179.1266,150.2786 179.1566,150.4486 179.1566,150.4486 C179.1666,150.6386 179.4866,150.8086 180.0856,150.9676 L251.9656,151.4786 L260.6266,151.5386 L264.3766,151.5586 C264.3956,151.2786 264.4066,150.9486 264.4066,150.5586 L260.9456,150.5386 L253.1056,150.4886 Z" id="Fill-7" fill="#eed3c7"/>
                                    <path d="M443.0353,26.5985 C441.5253,26.2685 437.6363,28.0385 433.7753,29.9185 C433.7653,29.9285 433.7653,29.9285 433.7563,29.9285 C432.1563,30.7085 430.5663,31.4985 429.1563,32.1685 L428.9753,32.2485 C427.7753,32.8285 426.7163,33.2985 425.8863,33.5885 C425.8553,33.5985 425.8263,33.6085 425.7853,33.6285 C425.4063,33.7485 425.0963,33.8385 424.8363,33.8785 C427.1453,31.3185 437.3263,21.9085 436.6953,21.0185 C435.6053,19.5185 429.8553,22.1685 423.8063,26.9585 C423.4063,27.2685 422.7463,27.7185 421.8863,28.2485 C421.5253,28.4685 421.1363,28.6985 420.7163,28.9385 C420.3863,29.1385 420.0663,29.3285 419.7363,29.4985 C418.0353,30.4385 416.0353,31.4285 414.0763,32.2085 C413.7563,32.3385 413.4263,32.4585 413.1053,32.5685 C411.3063,33.2385 409.5863,33.6785 408.2253,33.6785 C408.1563,33.6785 408.0863,33.6785 408.0153,33.6685 C406.4663,33.6185 405.4553,32.9485 405.3953,31.3185 C405.2853,28.5485 408.6453,25.3785 410.2253,23.4085 C411.4063,21.9385 412.6663,20.2685 413.5863,18.5385 C414.0963,17.5885 416.1263,13.8285 415.0663,12.8485 C414.8263,12.6385 414.4553,12.6785 414.1453,12.7485 C406.2363,14.4285 399.9453,20.0985 394.3553,25.5985 C383.1953,36.5685 376.4963,50.7985 366.6263,62.8185 C356.9453,74.6185 343.3553,93.5985 326.4553,93.1785 C314.0663,92.8785 301.6563,82.9585 290.3463,70.0185 C290.1363,69.7785 289.9163,69.5285 289.7053,69.2785 C289.5063,69.0485 289.3163,68.8185 289.1053,68.5985 C286.8763,65.9785 284.6853,63.2485 282.5563,60.4585 C278.4163,55.0585 274.4863,49.4385 270.8263,43.9885 C269.2463,41.6485 267.7253,39.3385 266.2563,37.0885 C266.0863,36.8385 265.9263,36.5785 265.7653,36.3285 C265.6363,36.1385 265.5153,35.9585 265.4063,35.7685 L265.3953,35.7685 C260.5963,28.3885 256.8813,21.3595 253.0253,16.8485 C241.5753,3.4485 222.8463,1.0285 222.8463,1.0285 C219.9753,0.2685 216.8263,-0.1115 213.4063,0.0285 C211.8763,0.0885 210.3863,0.1485 208.9263,0.2085 C208.6853,0.2285 208.4553,0.2285 208.2163,0.2385 C207.6053,0.2685 207.0063,0.2885 206.4163,0.3085 C205.8263,0.3285 205.2363,0.3585 204.6563,0.3785 C204.5253,0.3885 204.3863,0.3885 204.2563,0.3985 C203.8163,0.4185 203.3953,0.4385 202.9663,0.4585 C202.8463,0.4585 202.7253,0.4685 202.6053,0.4785 C197.4663,0.7485 192.8363,1.1785 188.6763,2.2085 C188.2523,2.8965 173.6763,11.3275 173.6763,11.2985 L173.6663,11.3085 C170.3463,15.3085 167.5353,20.8185 165.1563,28.4485 C165.0153,28.8985 164.8863,29.3985 164.7853,29.9585 C164.7753,29.9685 164.7753,29.9785 164.7753,29.9885 C162.3363,34.5785 159.7053,39.0585 156.8953,43.4285 C156.8863,43.4485 156.8653,43.4685 156.8553,43.4885 C152.6853,49.9985 148.1153,56.2485 143.1763,62.1985 C141.6853,64.0085 140.1563,65.7885 138.5863,67.5385 C138.4263,67.7085 138.2753,67.8885 138.1053,68.0585 C133.4553,73.2185 128.5063,78.1285 123.3163,82.7185 C112.5463,92.2885 100.6763,100.6085 88.0063,107.4885 C84.7463,109.2585 81.4263,110.9285 78.0663,112.5085 C77.0463,112.9885 76.0153,113.4585 74.9863,113.9185 C69.0253,116.5885 62.9263,118.9485 56.7163,120.9785 C55.2463,121.4685 53.7753,121.9285 52.2963,122.3785 C44.7463,124.6585 32.4753,126.0185 28.4063,127.8485 C22.4353,130.5185 16.4453,133.2285 10.6563,136.2485 C9.6563,136.7585 -2.2437,143.4385 0.3763,144.4985 C3.8553,145.9385 20.3263,139.5485 24.2653,139.6385 C20.8653,142.2585 6.3163,151.4985 6.8863,152.7285 C7.7563,154.5385 13.6663,153.2785 20.7853,149.9385 C17.1763,152.6985 15.1763,155.0385 15.7363,156.1885 C16.7753,158.3185 26.1853,155.6085 36.7363,150.1285 C40.3953,148.2285 50.0863,143.7585 49.8953,145.0485 C49.3363,149.0185 34.2363,154.5785 33.9753,158.5585 C33.7463,161.9685 46.0563,158.1385 57.6563,153.8785 C65.3263,151.0685 72.6763,148.0685 75.8763,146.8485 C79.3063,145.5485 82.6953,144.1685 86.0353,142.6985 C87.1953,142.1885 88.3463,141.6685 89.4963,141.1385 C93.9663,139.1085 98.3463,136.9085 102.6663,134.5785 C106.9553,132.2485 111.1853,129.7685 115.2963,127.1585 C117.4963,125.7785 119.6663,124.3585 121.8063,122.8985 C121.9453,122.7985 122.0863,122.7085 122.2253,122.5985 C123.9663,121.4085 125.6953,120.1885 127.4063,118.9485 C131.3363,116.0785 135.1853,113.0685 138.9063,109.9385 C140.6953,108.4385 142.4753,106.9085 144.2163,105.3485 C146.1053,103.6585 147.9663,101.9385 149.7963,100.1885 C150.9863,99.0585 152.1563,97.9085 153.3163,96.7385 C154.5063,95.5485 155.6853,94.3385 156.8553,93.1185 C157.1363,92.8285 157.4163,92.5385 157.6853,92.2385 C158.4753,91.3985 159.2563,90.5685 160.0353,89.7185 C162.4663,87.0485 164.8363,84.3285 167.1263,81.5485 C167.3863,81.2385 167.6263,80.9385 167.8953,80.6285 C168.1453,82.5585 168.4163,84.4885 168.6853,86.4285 C169.1663,84.8985 258.5393,72.1625 259.0763,77.1785 C259.1953,78.2685 259.3063,79.3385 259.4063,80.4085 C259.3063,79.3385 259.2163,78.2785 259.1153,77.2285 C259.1953,77.3185 259.2653,77.4185 259.3463,77.5085 C259.8063,78.0585 260.2563,78.6085 260.7163,79.1585 C263.9353,82.9885 267.2853,86.7785 270.8263,90.5385 C272.2463,92.0485 273.6953,93.5485 275.1763,95.0485 C280.9553,100.9085 287.2653,106.7385 294.3263,112.6285 C299.9963,117.3585 306.4163,120.6785 313.1363,122.5985 C329.1363,127.1685 346.8463,123.8085 360.2563,112.5185 C363.9163,109.4385 367.4863,106.2685 370.9663,102.9985 C373.3553,100.7385 375.7053,98.4385 377.9863,96.0785 C379.7053,94.3285 381.3863,92.5385 383.0253,90.7285 C389.2053,83.9285 398.2163,71.3685 404.8953,61.9185 C409.7163,55.0985 413.3363,49.8885 413.7853,49.6585 C417.1053,47.9185 420.3063,45.8385 423.2563,43.8085 C427.5963,40.8285 431.9453,37.8185 436.0863,34.5985 C436.8063,34.0585 445.2653,27.0485 443.0353,26.5985" id="Fill-9" fill="#eed3c7"/>
                                    <path d="M313.756,90.5584 C313.746,90.5784 313.735,90.5984 313.716,90.5984 C312.496,91.0184 311.366,91.4884 310.336,92.1384 C309.316,92.7684 308.316,93.4684 307.506,94.3884 C305.896,96.2384 305.026,98.7484 305.166,101.2884 C305.166,101.3084 305.146,101.3384 305.116,101.3384 C305.096,101.3384 305.066,101.3184 305.066,101.2984 C304.856,100.0284 304.896,98.7084 305.206,97.4384 C305.516,96.1684 306.086,94.9584 306.876,93.8884 C307.655,92.8284 308.646,91.8484 309.856,91.2584 C311.056,90.6784 312.405,90.3684 313.706,90.4984 C313.735,90.5084 313.756,90.5284 313.756,90.5584" id="Fill-12" fill="#672348"/>
                                    <path d="M433.756,29.9286 C432.786,30.8886 431.536,31.4586 430.356,32.0686 C429.146,32.6686 427.916,33.1986 426.695,33.7586 C424.226,34.8186 421.786,35.9286 419.366,37.1086 C420.476,36.3386 421.646,35.6686 422.846,35.0386 C423.806,34.5386 424.796,34.0786 425.786,33.6286 C425.826,33.6086 425.856,33.5986 425.886,33.5886 C426.086,33.4886 426.286,33.3986 426.485,33.3086 L428.976,32.2486 L429.155,32.1686 L430.195,31.7286 C430.816,31.4686 431.436,31.1986 432.036,30.9086 C432.626,30.6286 433.235,30.3486 433.756,29.9286" id="Fill-14" fill="#672348"/>
                                    <path d="M421.9357,28.2083 C421.9157,28.2183 421.9057,28.2383 421.8857,28.2483 C420.8757,29.1083 419.7757,29.8483 418.6357,30.5383 C417.4857,31.2383 416.2757,31.8483 415.0257,32.3683 C413.7557,32.8583 412.4757,33.2983 411.1257,33.5183 C410.1657,33.6783 409.1957,33.7483 408.2257,33.6783 C408.1557,33.6783 408.0857,33.6783 408.0157,33.6683 C407.7067,33.6383 407.3957,33.5983 407.0857,33.5283 C409.1557,33.6083 411.1657,33.2183 413.1057,32.5683 C413.4257,32.4583 413.7557,32.3383 414.0767,32.2083 C414.3267,32.1183 414.5857,32.0083 414.8357,31.9083 C416.0767,31.4383 417.2657,30.8183 418.4567,30.2083 C418.8857,29.9783 419.3157,29.7483 419.7357,29.4983 C420.0657,29.3283 420.3857,29.1383 420.7157,28.9383 C421.1257,28.7083 421.5367,28.4583 421.9357,28.2083" id="Fill-16" fill="#672348"/>
                                    <path d="M411.256,40.7684 C411.256,40.7784 411.235,40.7784 411.226,40.7784 C410.326,40.4684 409.445,40.1384 408.566,39.8084 C407.666,39.5284 406.786,39.1884 405.876,38.9484 C404.076,38.4284 402.266,37.9184 400.416,37.6284 C398.556,37.3384 396.676,37.1884 394.796,37.2784 C392.926,37.3684 391.026,37.6184 389.266,38.2884 C389.256,38.2884 389.246,38.2884 389.235,38.2784 C389.226,38.2584 389.235,38.2484 389.246,38.2384 C390.996,37.4984 392.896,37.1884 394.786,37.0284 C396.676,36.8884 398.586,36.9884 400.466,37.2284 C402.356,37.4684 404.216,37.8784 406.026,38.4684 C406.936,38.7684 407.806,39.1384 408.695,39.4784 C409.556,39.8684 410.405,40.2984 411.246,40.7284 C411.256,40.7384 411.266,40.7484 411.256,40.7684" id="Fill-18" fill="#672348"/>
                                    <path d="M265.6759,137.1283 L263.8759,137.1183 L176.6459,136.4983 L160.7359,136.3783 L168.0059,89.4383 C168.1459,88.4083 168.3659,87.4083 168.6859,86.4283 C169.1659,84.8983 169.8559,83.4283 170.7359,82.0783 C173.6859,77.5183 176.0359,72.6583 177.7559,67.5983 L177.7559,67.5883 C177.7559,67.5783 177.7559,67.5783 177.7659,67.5683 C180.0459,60.8283 181.2159,53.7583 181.2159,46.6583 C181.2159,40.6083 180.3659,34.5283 178.6549,28.5883 L173.8459,11.9483 L173.8459,11.9383 C173.8159,11.8483 173.6759,11.3383 173.6759,11.2983 C175.7159,9.0283 178.2159,6.9683 180.8259,5.3883 C181.1359,5.1983 182.8659,4.2883 184.6259,3.4683 C184.6459,3.4683 184.6549,3.4583 184.6659,3.4483 C185.9459,2.9583 187.2859,2.5483 188.6759,2.2083 C189.3759,3.3683 190.6259,6.8083 190.6259,6.8083 C192.8059,13.2783 227.9259,44.8383 234.9959,44.8683 C234.9959,44.8683 231.0559,9.7883 224.5259,2.7583 C224.0959,2.2983 223.7759,1.9583 223.5859,1.7583 C223.5559,1.7283 223.5259,1.6883 223.4959,1.6683 L222.8459,1.0283 C222.8959,1.0383 225.5709,1.4853 225.7719,1.5763 C229.5619,3.0963 232.3459,6.1283 234.7759,8.2183 C236.5659,9.7383 238.0659,11.3183 239.2659,12.7783 C248.2759,23.7783 252.2659,38.9983 255.3659,53.9483 C257.3459,63.4983 258.3759,70.6383 259.0759,77.1783 C259.1959,78.2683 259.3059,79.3383 259.4049,80.4083 C259.5259,81.7383 259.6459,83.0583 259.7559,84.3883 C259.8159,85.0483 259.8659,85.6983 259.9259,86.3583 C260.2959,90.9783 260.6459,95.7383 261.2159,101.3383 C261.2259,101.4283 261.2359,101.5483 261.2459,101.6983 C261.3959,103.9883 261.6959,113.5283 262.7859,121.2583 C263.4959,126.3883 264.5859,131.8583 265.6759,137.1283" id="Fill-20" fill="#2A8C79"/>
                                    <path d="M188.6759,2.2083 C187.2859,2.5483 185.9459,2.9583 184.6659,3.4483 C186.5459,2.5783 188.4459,1.8283 188.6759,2.2083" id="Fill-22" fill="#2A8C79"/>
                                    <path d="M267.6163,164.6283 C267.2963,164.8183 266.8553,164.9983 266.2963,165.1583 C264.2163,165.7583 260.5463,166.1583 255.7753,166.4083 C250.0063,166.7083 242.6263,166.7783 234.4963,166.7183 L234.4853,166.7183 C204.2163,166.4383 163.5953,164.1283 157.3363,163.7583 C156.7963,163.7283 156.5063,163.7083 156.5063,163.7083 L158.5063,150.8183 L163.8453,150.8583 L163.8553,150.8583 L165.3663,150.8683 L180.0863,150.9683 L251.9663,151.4783 L260.6263,151.5383 L264.3763,151.5583 L265.0463,151.5683 L265.6763,151.5683 L268.4963,151.5883 C269.5863,158.3283 269.7653,163.3383 267.6163,164.6283" id="Fill-24" fill="#2A8C79"/>
                                    <path d="M268.3263,150.5882 L265.5253,150.5682 L264.9563,150.5682 L264.4053,150.5582 L260.9453,150.5382 L253.1053,150.4882 L253.0963,150.4882 L179.0653,149.9582 L166.1763,149.8682 L164.6553,149.8582 L158.6553,149.8182 L160.5863,137.3782 L176.8263,137.4982 L263.9263,138.1182 L265.8763,138.1282 C266.7963,142.5482 267.6853,146.8082 268.3263,150.5882" id="Fill-26" fill="#2A8C79"/>
                                    <path d="M265.8761,138.1283 L263.9261,138.1183 L176.8261,137.4983 L160.5861,137.3783 L160.7351,136.3783 L176.6461,136.4983 L263.8761,137.1183 L265.6761,137.1283 C265.7461,137.4683 265.8061,137.7983 265.8761,138.1283" id="Fill-28" fill="#2A8C79"/>
                                    <path d="M268.4962,151.5882 L265.6762,151.5682 L265.0462,151.5682 L264.3762,151.5582 L260.6262,151.5382 L251.9662,151.4782 L180.0862,150.9682 L165.3662,150.8682 L163.8552,150.8582 L163.8462,150.8582 L158.5062,150.8182 L158.6552,149.8182 L164.6552,149.8582 L166.1762,149.8682 L179.0652,149.9582 L253.0962,150.4882 L253.1052,150.4882 L260.9452,150.5382 L264.4052,150.5582 L264.9562,150.5682 L265.5252,150.5682 L268.3262,150.5882 C268.3862,150.9182 268.4452,151.2582 268.4962,151.5882" id="Fill-30" fill="#2A8C79"/>
                                    <path d="M130.796,91.2083 C130.816,91.2283 130.816,91.2583 130.796,91.2783 C130.775,91.2883 130.756,91.2883 130.735,91.2883 C129.556,90.7483 128.416,90.3283 127.226,90.0883 C126.046,89.8583 124.836,89.6783 123.616,89.7983 C121.186,90.0483 118.826,91.2783 117.195,93.2283 C117.176,93.2483 117.146,93.2483 117.126,93.2283 C117.106,93.2183 117.096,93.1883 117.116,93.1683 C117.826,92.1083 118.756,91.1683 119.846,90.4483 C120.945,89.7383 122.195,89.2383 123.496,89.0083 C124.796,88.7583 126.176,88.7283 127.466,89.1183 C128.746,89.5183 129.936,90.2183 130.796,91.2083" id="Fill-32" fill="#672348"/>
                                    <path d="M50.086,141.8685 C50.076,141.8785 50.065,141.8885 50.056,141.8885 C47.856,141.5485 45.676,141.1285 43.516,140.6185 C41.356,140.1285 39.206,139.5685 37.046,139.0485 C34.905,138.5185 32.716,138.0085 30.516,138.3385 C28.326,138.6385 26.126,138.9785 23.916,139.1685 C23.896,139.1685 23.886,139.1585 23.886,139.1485 C23.886,139.1385 23.896,139.1185 23.905,139.1185 C26.116,138.8885 28.296,138.4985 30.496,138.1485 C32.716,137.7685 34.966,138.2685 37.116,138.7385 C39.286,139.2185 41.466,139.6485 43.626,140.1385 C45.796,140.6185 47.936,141.1885 50.065,141.8385 C50.076,141.8385 50.086,141.8585 50.086,141.8685" id="Fill-34" fill="#672348"/>
                                    <path d="M35.006,141.9085 C35.006,141.9185 35.006,141.9285 34.996,141.9385 C33.826,142.7285 32.616,143.4285 31.405,144.1385 C30.186,144.8385 28.926,145.4585 27.686,146.0985 L20.206,149.9585 C20.195,149.9685 20.186,149.9585 20.176,149.9485 C20.166,149.9385 20.176,149.9185 20.186,149.9185 L27.496,145.7485 C28.716,145.0585 29.916,144.3385 31.166,143.6985 C32.416,143.0685 33.666,142.4285 34.966,141.8885 C34.985,141.8885 34.996,141.8885 35.006,141.9085" id="Fill-36" fill="#672348"/>
                                    <path d="M265.8761,138.1283 L263.9261,138.1183 L176.8261,137.4983 L160.5861,137.3783 L160.7351,136.3783 L176.6461,136.4983 L263.8761,137.1183 L265.6761,137.1283 C265.7461,137.4683 265.8061,137.7983 265.8761,138.1283" id="Fill-38" fill="#EDFBFB"/>
                                    <path d="M268.4962,151.5882 L265.6762,151.5682 L265.0462,151.5682 L264.3762,151.5582 L260.6262,151.5382 L251.9662,151.4782 L180.0862,150.9682 L165.3662,150.8682 L163.8552,150.8582 L163.8462,150.8582 L158.5062,150.8182 L158.6552,149.8182 L164.6552,149.8582 L166.1762,149.8682 L179.0652,149.9582 L253.0962,150.4882 L253.1052,150.4882 L260.9452,150.5382 L264.4052,150.5582 L264.9562,150.5682 L265.5252,150.5682 L268.3262,150.5882 C268.3862,150.9182 268.4452,151.2582 268.4962,151.5882" id="Fill-40" fill="#EDFBFB"/>
                                    <path d="M225.4454,21.8084 C225.4454,21.8184 225.4454,21.8284 225.4354,21.8284 C224.7464,22.0584 224.0554,22.2684 223.3664,22.4684 C223.0254,22.5784 222.6854,22.7084 222.3264,22.7684 C221.9754,22.8284 221.6164,22.8784 221.2464,22.8584 C221.2254,22.8584 221.2254,22.8584 221.2254,22.8384 C221.2254,22.8384 221.2254,22.8284 221.2354,22.8284 C221.5554,22.6384 221.8954,22.5184 222.2464,22.4084 C222.5864,22.2984 222.9454,22.2584 223.2964,22.1884 C224.0064,22.0484 224.7164,21.9184 225.4254,21.7984 C225.4354,21.7984 225.4454,21.7984 225.4454,21.8084" id="Fill-42" fill="#672448"/>
                                    <path d="M216.4386,23.9178 C216.4496,23.9278 216.4496,23.9478 216.4386,23.9578 C216.4386,23.9678 216.4286,23.9778 216.4186,23.9778 C215.8296,23.9478 215.2686,23.8278 214.7286,23.6778 C214.4596,23.6078 214.1886,23.5078 213.9286,23.4178 L213.9286,23.4078 C213.6686,23.3078 213.3986,23.1878 213.1386,23.0878 C212.0796,22.6778 211.0296,22.2478 209.9896,21.8078 C209.9686,21.7978 209.9596,21.7778 209.9686,21.7678 C209.9786,21.7578 209.9896,21.7478 209.9996,21.7478 C211.0986,22.0378 212.1996,22.3278 213.2796,22.6478 C213.5296,22.7178 213.7686,22.7778 214.0186,22.8378 C214.3186,22.9178 214.6196,23.0078 214.9096,23.1278 C215.4286,23.3478 215.9496,23.5878 216.4386,23.9178" id="Fill-44" fill="#672448"/>
                                </g>
                            </g>
                        </g>
                        <g id="Head/Adult Head" transform="translate(123.000000, 0.000000) scale(1 1)">
                            <g id="Head/Adult Head/Short" stroke="none" stroke-width="1" fill="none" fill-rule="evenodd">
                                <g id="Group-25" transform="translate(30.000000, 30.000000)">
                                    <path d="M21.9092,85.1037 C23.0392,85.5637 24.1992,85.9437 25.3882,86.2637 C24.1882,86.1137 23.0282,85.7037 21.9092,85.1037" id="Fill-1" fill="#eed3c7"/>
                                    <path d="M92.0801,70.9508 C91.7041,70.8358 90.1341,69.7328 91.1811,69.8008 C91.7611,70.2458 94.8161,71.8338 92.0801,70.9508 M30.3911,68.8908 L30.3001,69.0908 C27.7131,67.0138 23.9761,70.5188 27.6501,72.1208 L27.6411,72.2008 C23.8671,70.8028 27.1791,66.8278 30.1101,68.5708 C30.1371,59.6078 12.9231,64.0018 21.1301,75.3708 L21.0701,75.4208 C10.7381,63.0268 31.7901,58.7458 30.3911,68.8908 M96.9801,63.5408 C88.3441,51.6058 92.7261,34.1788 84.6411,22.1208 C78.2601,25.0068 65.4751,27.0648 56.2801,27.2008 C56.5281,40.5328 47.4261,55.5718 35.3801,61.8808 C14.3111,48.3148 4.1011,86.5008 29.1201,85.2908 C29.2851,85.3448 52.1681,100.3688 52.3511,100.3308 L52.3511,100.3708 C60.4841,104.2388 71.0661,110.6598 79.8601,104.7508 C89.1401,97.0808 94.6721,83.7158 94.1101,71.8508 C99.8411,73.6258 101.2151,66.5438 96.9801,63.5408" id="Fill-3" fill="#eed3c7"/>
                                    <path d="M30.3906,68.8908 L30.2996,69.0908 C27.7126,67.0148 23.9756,70.5188 27.6506,72.1208 L27.6406,72.2008 C23.8676,70.8028 27.1786,66.8278 30.1106,68.5708 C30.1366,59.6078 12.9226,64.0018 21.1296,75.3708 L21.0706,75.4208 C10.7386,63.0268 31.7896,58.7458 30.3906,68.8908" id="Fill-6" fill="#eed3c7"/>
                                    <path d="M52.3506,100.3307 L52.3506,100.3707 C46.1156,97.4117 39.5136,94.7587 34.1106,90.7507 C34.1106,90.7507 34.0896,90.7507 34.0896,90.7407 C32.4156,89.1407 29.3406,87.7017 29.1206,85.2907 C29.2856,85.3447 52.1676,100.3697 52.3506,100.3307" id="Fill-8" fill="#eed3c7"/>
                                    <path d="M92.0801,70.9508 C91.7041,70.8358 90.1341,69.7328 91.1811,69.8008 C91.7611,70.2458 94.8161,71.8338 92.0801,70.9508" id="Fill-10" fill="#eed3c7"/>
                                    <path d="M92.0801,70.9508 C91.7041,70.8358 90.1341,69.7328 91.1811,69.8008 C91.7611,70.2458 94.8161,71.8338 92.0801,70.9508" id="Fill-12" fill="#672348"/>
                                    <path d="M30.3906,68.8908 L30.2996,69.0908 C27.7126,67.0148 23.9756,70.5188 27.6506,72.1208 L27.6406,72.2008 C23.8676,70.8028 27.1786,66.8278 30.1106,68.5708 C30.1366,59.6078 12.9226,64.0018 21.1296,75.3708 L21.0706,75.4208 C10.7386,63.0268 31.7896,58.7458 30.3906,68.8908" id="Fill-14" fill="#672348"/>
                                    <path d="M85.1504,21.901 C78.4754,25.004 65.7914,27.031 56.2804,27.201 C56.5284,40.533 47.4254,55.572 35.3794,61.881 C14.3114,48.315 4.1004,86.501 29.1204,85.291 L29.1204,86.181 L28.9104,85.941 C-9.4296,83.287 -9.3166,19.293 27.3504,13.231 C32.2904,7.971 45.7194,3.231 61.8394,1.621 C89.3784,-1.875 107.6214,9.996 85.1504,21.901" id="Fill-16" fill="#672348"/>
                                    <path d="M29.1192,86.1837 L29.1082,87.0037 C27.8482,86.8337 26.5982,86.5837 25.3892,86.2637 C26.5392,86.4137 27.7092,86.3237 28.9092,85.9437 C28.9782,86.0237 29.0492,86.1037 29.1192,86.1837" id="Fill-19" fill="#672348"/>
                                    <path d="M52.4404,108.2208 C52.4404,108.1648 52.3384,100.3808 52.3394,100.3308 C52.1954,100.3748 29.2514,85.3288 29.1204,85.2908 C29.3114,94.7658 29.7584,115.2998 30.1294,124.5508 L52.6404,124.5508 L52.4404,108.2208 Z" id="Fill-21" fill="#eed3c7"/>
                                    <path d="M52.5,108.2511 C49.429,107.0301 40.057,97.1921 34.11,90.7511 C34.11,90.7511 34.09,90.7511 34.09,90.7411 C31.311,87.7311 29.311,85.4911 29.12,85.2911 C29.285,85.3451 52.168,100.3691 52.351,100.3311 C52.368,101.4621 52.428,107.2501 52.5,108.2511" id="Fill-23" fill="#eed3c7"/>
                                </g>
                            </g>
                        </g>
                        <g id="Expression/Adult" transform="translate(186.000000, 68.000000) scale(1 1)">
                            <g id="Expression/Adult/Confident" stroke="none" stroke-width="1" fill="none" fill-rule="evenodd">
                                <path d="M48.6308653,2.76258507 C44.9970044,1.92337021 39.9866495,3.92115632 38,7 C40.7227926,-3.65141421 54.2961482,0.397900836 48.6308653,2.76258507" id="Fill-35" fill="#672348"/>
                                <g id="Group-11" transform="translate(37.000000, 11.000000)" fill="#672348">
                                    <path d="M10.3393,4.8093 C10.4253,7.0043 9.3213,8.8293 7.8763,8.8853 C6.4303,8.9413 5.1893,7.2073 5.1043,5.0123 C5.0193,2.8173 6.1223,0.9923 7.5683,0.9363 C9.0143,0.8803 10.2543,2.6143 10.3393,4.8093" id="Fill-1"/>
                                    <path d="M0.5005,7.2468 C0.4535,7.2468 0.4055,7.2408 0.3585,7.2258 C0.0945,7.1478 -0.0575,6.8698 0.0215,6.6048 C1.3715,2.0368 6.1885,-0.5782 10.7545,0.7708 C11.0195,0.8488 11.1705,1.1268 11.0925,1.3918 C11.0145,1.6568 10.7345,1.8098 10.4715,1.7298 C6.4325,0.5348 2.1745,2.8508 0.9795,6.8888 C0.9155,7.1058 0.7165,7.2468 0.5005,7.2468" id="Fill-3"/>
                                </g>
                                <path d="M54,45.2198783 C44.0020721,48.3614585 41,41 41,41 C41,41 45.4587107,42.3271362 53.28066,42.0264569 C53.3714505,42.48266 53.7705295,44.1623167 54,45.2198783" id="Fill-31" fill="#EDFBFB"/>
                            </g>
                        </g>
                    </g>
                </g>
            </g>
        </g>
        <g id="Kid-Bottom" transform="translate(495.500000, 551.500000) scale(-1, 1) translate(-495.500000, -551.500000) translate(244.000000, 328.000000)">
            <path d="M156.774732,97 C113.136463,97 77.4322618,132.613545 77.4322618,176.141013 L77.4322618,299.529041 L1,299.529041 L77.4322618,366.829642 L77.4322618,367.858987 C77.4322618,411.386455 113.136463,447 156.774732,447 L313.65753,447 C357.295799,447 393,411.386455 393,367.858987 L393,176.141013 C393,132.613545 357.295799,97 313.65753,97 L156.774732,97 Z" id="Fill-4" fill="#CDEEEC"/>
            <mask id="mastercompsonline-classes-mask-4" fill="#fff">
                <use xlink:href="#mastercompsonline-classes-path-3"/>
            </mask>
            <g id="Fill-4"/>
            <g mask="url(#mastercompsonline-classes-mask-4)">
                <g transform="translate(196.500000, 145.500000) rotate(-10.000000) translate(-196.500000, -145.500000) translate(-73.000000, -290.000000) scale(1.2956730769230769 1.2961309523809523)" id="Master/Character/Child">
                    <g id="Master/Character/Child" stroke="none" stroke-width="1" fill="none" fill-rule="evenodd">
                        <g id="Lower Body/Child Legs" transform="translate(109.000000, 531.000000) scale(1 1)">
                            <g id="Lower Body/Child Legs/Shorts 1" stroke="none" stroke-width="1" fill="none" fill-rule="evenodd">
                                <g id="Group-23">
                                    <path d="M142.2126,139.1603 C142.0726,139.2603 141.8926,139.3003 141.6826,139.2603 L112.0026,132.9303 L111.9126,132.9103 L111.9026,132.9103 L107.6226,132.0003 C107.6326,131.9503 107.6426,131.9103 107.6426,131.8603 L107.6426,131.8503 C107.7126,131.4503 107.7826,131.0703 107.8426,130.6703 C108.1226,128.9503 108.3926,127.2303 108.6426,125.5103 C108.7026,125.1403 108.7526,124.7803 108.8026,124.4103 C111.5026,105.8003 112.6426,86.6703 111.0626,67.9403 C118.2526,68.0103 125.0426,66.9703 132.1426,65.1603 L133.0626,65.3403 C133.0626,65.3403 133.2926,69.2703 131.1126,85.6803 L130.9726,86.7603 C129.7026,96.1903 127.6726,109.5303 124.4426,128.2603 L130.5226,131.6003 L131.6726,132.2303 L142.2226,138.0203 C142.6526,138.3303 142.5626,138.9003 142.2126,139.1603" id="Fill-1" fill="#765040"/>
                                    <path d="M90.7625,69.2203 C89.2625,74.5703 87.1825,78.7303 82.7525,83.6603 C82.7325,83.6903 82.7025,83.7103 82.6825,83.7403 C81.0325,85.5703 79.2325,87.0203 77.3025,88.1303 L77.2725,88.1403 L77.1825,88.1903 C76.4825,88.5903 75.7525,88.9403 75.0225,89.2503 L74.7725,89.3703 L74.7425,89.3703 C57.6025,96.4903 32.5525,81.4303 19.1625,73.8703 C19.1425,73.8703 2.3325,84.2203 2.3325,84.2203 C2.1425,84.3403 1.9425,84.3303 1.7825,84.2403 C1.4925,84.1003 1.3225,83.7403 1.5325,83.4203 L18.7025,58.1003 L18.7825,57.9803 L19.7025,56.6203 C19.6825,56.6503 19.6725,56.6803 19.6725,56.7203 C19.6225,56.9503 19.9125,57.2703 20.4725,57.6603 C21.3225,58.2703 22.8125,59.0403 24.6825,59.9003 C24.8125,59.9603 24.9525,60.0203 25.0825,60.0903 C25.3625,60.2103 25.6525,60.3403 25.9525,60.4803 C26.0325,60.5203 26.1125,60.5503 26.2025,60.5903 C34.9725,64.4403 49.6925,69.5703 51.8425,70.0103 C60.2125,71.7103 68.1825,70.4803 71.2025,63.1603 C71.2625,63.1903 71.3325,63.2203 71.3925,63.2503 C77.6125,66.1303 83.9325,67.9503 90.7625,69.2203" id="Fill-3" fill="#765040"/>
                                    <path d="M132.1428,65.1602 C125.0428,66.9702 118.2528,68.0102 111.0628,67.9402 L111.0128,67.9402 C106.4128,67.8902 101.6528,67.3802 96.5328,66.3102 C96.6128,65.7702 96.9428,65.3002 97.1628,64.7702 C97.4428,64.1102 97.6628,63.4302 97.8628,62.7402 L98.9028,58.6002 C99.5528,55.8402 100.1828,53.0702 100.7928,50.2902 C100.7928,50.2802 100.8028,50.2602 100.8028,50.2502 C100.9528,49.7202 101.1128,49.1802 101.2628,48.6402 C101.6828,47.2202 103.3928,40.5602 105.0928,33.8602 C105.0928,33.8602 105.1028,33.8502 105.1028,33.8402 C105.1028,33.8402 105.0928,33.8402 105.0928,33.8302 C105.0828,33.8202 105.0628,33.8202 105.0528,33.8302 C104.5328,34.3602 104.4128,35.1102 104.2028,35.7802 C104.0128,36.4702 103.8728,37.1602 103.7228,37.8602 C103.4728,39.2502 102.9928,40.5902 102.6228,41.9602 L101.4428,46.0602 C101.0328,47.4302 100.7528,48.8202 100.4028,50.2002 C99.7128,52.9602 99.0528,55.7202 98.4128,58.4902 L98.4028,58.5302 C97.6428,61.1002 96.9028,63.6702 96.1528,66.2302 C95.7928,67.4702 95.4328,68.7002 95.0728,69.9402 C93.6128,69.7202 92.1728,69.4802 90.7628,69.2202 C83.9328,67.9502 77.6128,66.1302 71.3928,63.2502 C71.3328,63.2202 71.2628,63.1902 71.2028,63.1602 C60.5374936,58.6002 49.8254691,50.0802 49.8352613,48.6402 C49.8554691,47.4702 73.7601,0 73.7601,0 L130.57,0 C130.57,0 134.809,21.0834 143.287,63.2502 C142.207413,63.5502 133.2028,64.9002 132.1428,65.1602 Z" id="Fill-5" fill="#FF90A0"/>
                                    <path d="M105.1028,33.8399 C105.1028,33.8499 105.0928,33.8599 105.0928,33.8599 C103.3928,40.5599 101.6828,47.2199 101.2628,48.6399 C101.1128,49.1799 100.9528,49.7199 100.8028,50.2499 C100.8028,50.2599 100.7928,50.2799 100.7928,50.2899 C100.6128,50.9499 100.4128,51.5799 100.2328,52.2399 L100.2328,52.2499 C100.0328,52.9299 99.8228,53.5899 99.6528,54.2599 L99.6528,54.2699 C99.2428,55.6799 98.8228,57.0799 98.4128,58.4899 C99.0528,55.7199 99.7128,52.9599 100.4028,50.1999 C100.7528,48.8199 101.0328,47.4299 101.4428,46.0599 L102.6228,41.9599 C102.9928,40.5899 103.4728,39.2499 103.7228,37.8599 C103.8728,37.1599 104.0128,36.4699 104.2028,35.7799 C104.4128,35.1099 104.5328,34.3599 105.0528,33.8299 C105.0628,33.8199 105.0828,33.8199 105.0928,33.8299 C105.0928,33.8399 105.1028,33.8399 105.1028,33.8399" id="Fill-7" fill="#FF90A0"/>
                                    <path d="M105.1028,33.8399 C105.1028,33.8499 105.0928,33.8599 105.0928,33.8599 C103.3928,40.5599 101.6828,47.2199 101.2628,48.6399 C101.1128,49.1799 100.9528,49.7199 100.8028,50.2499 C100.8028,50.2599 100.7928,50.2799 100.7928,50.2899 C100.1828,53.0699 99.5528,55.8399 98.9028,58.5999 L97.8628,62.7399 C97.6628,63.4299 97.4428,64.1099 97.1628,64.7699 C96.9428,65.2999 96.6128,65.7699 96.5328,66.3099 C96.5028,66.2999 96.4728,66.2999 96.4428,66.2899 C96.3528,66.2699 96.2528,66.2499 96.1528,66.2299 C96.9028,63.6699 97.6428,61.0999 98.4028,58.5299 L98.4128,58.4899 C99.0528,55.7199 99.7128,52.9599 100.4028,50.1999 C100.7528,48.8199 101.0328,47.4299 101.4428,46.0599 L102.6228,41.9599 C102.9928,40.5899 103.4728,39.2499 103.7228,37.8599 C103.8728,37.1599 104.0128,36.4699 104.2028,35.7799 C104.4128,35.1099 104.5328,34.3599 105.0528,33.8299 C105.0628,33.8199 105.0828,33.8199 105.0928,33.8299 C105.0928,33.8399 105.1028,33.8399 105.1028,33.8399" id="Fill-9" fill="#FF90A0"/>
                                    <path d="M130.9719,86.7569 C130.7819,86.8669 130.5919,86.9769 130.3919,87.0669 C129.1819,87.6369 127.8219,87.7869 126.5219,87.7369 C125.2019,87.6869 123.9119,87.3769 122.7419,86.8369 C121.5719,86.2769 120.5219,85.4969 119.6719,84.5469 C119.6619,84.5369 119.6619,84.5069 119.6719,84.4869 C119.6919,84.4669 119.7219,84.4669 119.7419,84.4769 C121.6219,86.1569 124.1019,87.0369 126.5219,86.9369 C127.7319,86.8769 128.8919,86.5369 130.0119,86.1369 C130.3819,86.0069 130.7519,85.8569 131.1119,85.6769 L130.9719,86.7569 Z" id="Fill-11" fill="#672448"/>
                                    <path d="M74.7717,89.3668 C73.4917,89.3168 72.2317,89.0068 71.0817,88.4768 C69.9117,87.9168 68.8717,87.1268 68.0217,86.1868 C68.0017,86.1668 68.0017,86.1468 68.0217,86.1268 C68.0417,86.1068 68.0717,86.0968 68.0917,86.1168 C69.9617,87.7968 72.4517,88.6768 74.8617,88.5768 C75.7017,88.5368 76.5117,88.3568 77.3017,88.1268 L74.7717,89.3668 Z" id="Fill-13" fill="#672448"/>
                                    <path d="M142.8313,139.3058 L126.5993,135.2988 L131.9243,132.0828 L130.7663,131.4618 L124.9523,134.8918 L113.5463,132.0768 C113.5683,132.0138 113.5843,131.9498 113.6003,131.8858 C114.3923,128.6778 112.5013,125.4258 109.3733,124.4858 C109.2753,124.4558 109.1763,124.4308 109.0783,124.4068 C108.7573,124.3278 108.4323,124.5198 108.3523,124.8458 C108.2723,125.1658 108.4703,125.4928 108.7903,125.5718 C108.9073,125.5998 109.0213,125.6348 109.1363,125.6698 C111.5953,126.4678 113.0653,129.0478 112.4353,131.5978 C112.4193,131.6618 112.4043,131.7258 112.3823,131.7888 L107.5503,130.5958 C107.2293,130.5168 106.9033,130.7138 106.8243,131.0348 C106.7453,131.3548 106.9423,131.6808 107.2623,131.7608 L111.9083,132.9078 L113.1073,133.2028 L123.4993,135.7688 L125.1423,136.1738 L142.5433,140.4708 C142.8703,140.5508 143.1903,140.3518 143.2693,140.0318 C143.3493,139.7118 143.1573,139.3868 142.8313,139.3058" id="Fill-15" fill="#2A8C79"/>
                                    <path d="M1.0823,85.2403 L10.2603,72.1873 L11.4433,78.1513 L12.4093,77.3443 L11.1923,70.8623 L17.6413,61.6913 C17.6923,61.7333 17.7463,61.7713 17.8003,61.8093 C20.5023,63.7103 24.1503,63.2243 26.0743,60.7703 C26.1353,60.6943 26.1903,60.6153 26.2473,60.5353 C26.4283,60.2783 26.3603,59.9153 26.0853,59.7223 C25.8153,59.5323 25.4463,59.5883 25.2653,59.8453 C25.2003,59.9393 25.1293,60.0293 25.0583,60.1193 C23.4903,62.0263 20.6073,62.3843 18.4583,60.8733 C18.4043,60.8353 18.3503,60.7973 18.3003,60.7543 L21.0323,56.8683 C21.2133,56.6113 21.1413,56.2453 20.8713,56.0553 C20.6013,55.8653 20.2323,55.9213 20.0513,56.1783 L17.4243,59.9153 L16.7463,60.8793 L10.8693,69.2363 L9.9413,70.5563 L0.1013,84.5503 C-0.0837,84.8123 -0.0077,85.1743 0.2623,85.3633 C0.5323,85.5533 0.8973,85.5023 1.0823,85.2403" id="Fill-18" fill="#2A8C79"/>
                                    <path d="M105.1028,33.8399 C105.1028,33.8499 105.0928,33.8599 105.0928,33.8599 L105.0828,33.8699 C104.6128,34.3799 104.4828,35.1299 104.2928,35.7999 C104.1328,36.4899 104.0028,37.1899 103.8728,37.8899 C103.6528,39.2999 103.2028,40.6599 102.8628,42.0299 L101.7628,46.1499 C101.3728,47.4999 101.1228,48.8799 100.8028,50.2499 C100.8028,50.2599 100.7928,50.2799 100.7928,50.2899 C100.1828,53.0699 99.5528,55.8399 98.9028,58.5999 L97.8628,62.7399 C97.6628,63.4299 97.4428,64.1099 97.1628,64.7699 C96.9428,65.2999 96.6128,65.7699 96.5328,66.3099 C96.5028,66.4499 96.5028,66.5999 96.5228,66.7499 C96.5228,66.7599 96.5128,66.7799 96.5028,66.7799 C96.4828,66.7799 96.4728,66.7699 96.4728,66.7599 C96.4328,66.5999 96.4228,66.4499 96.4428,66.2899 C96.4728,65.7299 96.7728,65.1899 96.9528,64.6899 C97.1928,64.0299 97.3728,63.3499 97.5228,62.6599 L98.4028,58.5299 L98.4128,58.4899 C99.0528,55.7199 99.7128,52.9599 100.4028,50.1999 C100.7528,48.8199 101.0328,47.4299 101.4428,46.0599 L102.6228,41.9599 C102.9928,40.5899 103.4728,39.2499 103.7228,37.8599 C103.8728,37.1599 104.0128,36.4699 104.2028,35.7799 C104.4128,35.1099 104.5328,34.3599 105.0528,33.8299 C105.0628,33.8199 105.0828,33.8199 105.0928,33.8299 C105.0928,33.8399 105.1028,33.8399 105.1028,33.8399" id="Fill-21" fill="#672448"/>
                                </g>
                            </g>
                        </g>
                        <g id="Upper Body/Child Torso" transform="translate(150.000000, 472.000000) scale(1 1)">
                            <g id="Upper Body/Child Torso/Tshirt 2" stroke="none" stroke-width="1" fill="none" fill-rule="evenodd">
                                <g id="Group-49" transform="translate(68.534878, 56.001218) rotate(4.000000) translate(-68.534878, -56.001218) translate(-9.965122, 9.001218)">
                                    <path d="M145.655,62.819 C145.301,63.235 144.997,63.648 144.638,64.016 C144.291,64.388 143.961,64.779 143.562,65.108 C142.762,65.755 141.798,66.22 140.761,66.441 C140.747,66.444 140.739,66.457 140.742,66.471 C140.744,66.483 140.756,66.491 140.768,66.491 C141.834,66.411 142.893,66.046 143.8,65.43 C144.255,65.128 144.7,64.781 145.025,64.332 C145.338,63.878 145.603,63.385 145.7,62.84 C145.703,62.826 145.694,62.813 145.679,62.81 C145.67,62.809 145.661,62.812 145.655,62.819" id="Fill-1" fill="#672448"/>
                                    <path d="M34.7756,64.6598 L34.7156,64.8198 L34.6756,64.9098 C34.7156,64.8098 34.7456,64.7298 34.7756,64.6598" id="Fill-3" fill="#2A4D52"/>
                                    <path d="M33.4753,67.9098 L33.1753,68.6698 L32.6253,70.0598 C32.9253,69.3398 33.2053,68.6298 33.4753,67.9098" id="Fill-7" fill="#2A4D52"/>
                                    <path d="M145.0256,64.3302 C144.6956,64.7802 144.2556,65.1302 143.7956,65.4302 C142.8956,66.0502 141.8356,66.4102 140.7656,66.4902 C140.7556,66.4902 140.7456,66.4802 140.7456,66.4702 C140.7356,66.4602 140.7456,66.4402 140.7656,66.4402 C141.7956,66.2202 142.7656,65.7502 143.5656,65.1102 C143.9656,64.7802 144.2956,64.3902 144.6356,64.0202 C144.9956,63.6502 145.3056,63.2402 145.6556,62.8202 C145.6656,62.8102 145.6656,62.8102 145.6756,62.8102 C145.6956,62.8102 145.7056,62.8302 145.7056,62.8402 C145.6056,63.3902 145.3356,63.8802 145.0256,64.3302 M156.0556,66.9102 C154.9956,65.9102 151.0056,64.4902 148.3956,63.6302 C149.3356,63.4902 150.3156,63.3102 151.2156,63.1402 C153.2856,62.7102 155.0156,62.2002 155.0156,61.6602 C155.0156,60.7902 149.1356,60.6902 145.8056,60.5302 L145.7856,60.5202 L145.7556,60.5202 C145.6756,60.5202 145.5756,60.5102 145.4956,60.5102 C145.5556,60.4802 145.6156,60.4502 145.6856,60.4102 C147.8456,59.3602 149.6956,57.5202 149.6956,56.7202 C149.6956,56.6602 149.6856,56.6102 149.6656,56.5602 C149.0256,55.1202 145.4256,56.4902 142.7856,57.7202 C138.5256,53.8202 132.3656,48.3802 129.0556,45.4702 C122.3656,39.6002 112.1456,31.2302 103.0156,23.8502 L96.2156,33.1702 C96.2156,33.1802 96.2256,33.1802 96.2256,33.1902 C96.3256,33.4102 96.4956,33.7802 96.6456,34.1002 C96.7356,34.3002 96.8156,34.4902 96.8756,34.6302 C97.2356,35.4702 97.5956,36.3302 97.9656,37.2102 C99.0256,39.7502 100.1256,42.4302 101.1956,44.9802 C101.2456,45.1002 101.2856,45.2102 101.3356,45.3202 C101.7556,46.3502 102.1856,47.3702 102.6156,48.4102 C102.7956,48.8402 102.9756,49.2602 103.1556,49.6902 C109.4056,53.5902 115.4356,57.2302 120.2056,59.8302 C124.4356,62.1402 132.3356,66.1502 137.4956,68.6902 C137.5056,68.7002 137.5156,68.7102 137.5256,68.7102 C138.0756,69.2202 138.6356,69.6802 138.8256,69.8602 C139.6956,70.6002 149.0056,76.7702 149.8256,75.4402 C150.1756,74.8402 147.6156,72.4602 145.2856,70.4302 C148.1856,71.1502 152.4256,72.0502 153.3456,71.5402 C153.4356,71.4902 153.4856,71.4302 153.5156,71.3602 C153.6756,70.8702 152.3756,69.9802 150.7056,69.0502 C149.7656,68.5302 148.6956,68.0002 147.6856,67.5102 C147.7156,67.4602 147.7356,67.4002 147.7556,67.3302 C150.1456,67.6702 153.5356,68.0402 155.2556,67.8502 C155.8656,67.7902 156.2556,67.6402 156.3156,67.4002 C156.3556,67.2602 156.2556,67.0902 156.0556,66.9102" id="Fill-9" fill="#765040"/>
                                    <path d="M145.759,60.5192 C145.768,60.5192 145.777,60.5202 145.785,60.5202 C145.762,60.4772 145.734,60.4522 145.689,60.4212 L145.683,60.4112 C145.617,60.4492 145.559,60.4772 145.493,60.5062 C145.58,60.5072 145.671,60.5162 145.759,60.5192" id="Fill-12" fill="#765040"/>
                                    <path d="M145.7854,60.5206 L145.7854,60.5206 C145.7764,60.5206 145.7674,60.5196 145.7594,60.5196 C145.7674,60.5196 145.7774,60.5206 145.7854,60.5206" id="Fill-14" fill="#765040"/>
                                    <path d="M145.4865,60.5055 C145.4885,60.5055 145.4905,60.5055 145.4935,60.5055 C145.5595,60.4775 145.6175,60.4485 145.6835,60.4105 C145.6195,60.4455 145.5555,60.4815 145.4865,60.5055" id="Fill-16" fill="#765040"/>
                                    <path d="M62.635,6.4303 L62.625,6.4503 C62.115,6.1103 61.655,5.7603 61.255,5.4103 L61.355,2.7703 C61.365,2.7703 61.385,2.7603 61.395,2.7703 L61.295,5.4103 C61.685,5.7603 62.135,6.1003 62.635,6.4303" id="Fill-18" fill="#96DAD5"/>
                                    <path d="M56.5954,39.63 C56.3154,40.31 56.0254,41.02 55.5654,41.6 C55.1454,42.12 54.5454,42.35 54.1054,42.83 L52.1654,41.26 L46.0254,36.28 L37.2154,29.13 L36.2854,28.39 C41.4654,22.08 45.8154,15.49 51.4654,9.55 C53.8654,7.02 56.6854,4.46 59.9154,3.22 C59.9554,5.98 59.2154,33.11 56.5954,39.63" id="Fill-20" fill="#96DAD5"/>
                                    <path d="M103.8757,22.65 L103.0157,23.85 L96.2157,33.17 C95.9757,32.62 95.7657,32.09 95.5457,31.58 C95.3857,31.2 95.2257,30.83 95.0657,30.46 C95.0357,30.39 95.0057,30.31 94.9757,30.24 C94.9357,30.14 94.8857,30.04 94.8357,29.93 C94.7957,29.83 94.7457,29.74 94.7057,29.63 C94.6557,29.53 94.6157,29.43 94.5657,29.32 C91.8857,23.46 84.7757,7.97 82.7057,3.78 C90.7957,8.98 105.5857,20.27 103.8757,22.65" id="Fill-22" fill="#96DAD5"/>
                                    <path d="M36.7355,59.6901 L38.3355,55.6601 L38.6355,54.9201 L46.0255,36.2801 L37.2155,29.1301 C30.0755,38.9801 22.0955,50.3001 17.2755,58.1401 C14.7555,62.2501 10.3455,69.9301 7.5355,74.9501 C7.5355,74.9601 7.5255,74.9701 7.5155,74.9801 C6.9855,75.5001 6.4855,76.0401 6.3055,76.2201 C5.5255,77.0501 -1.1245,86.0301 0.1655,86.9101 C0.7455,87.2901 3.2555,84.8701 5.3955,82.6401 C4.5355,85.5001 3.4155,89.6901 3.8855,90.6401 C3.9255,90.7201 3.9755,90.7801 4.0455,90.8101 C4.5255,91.0001 5.4855,89.7501 6.5055,88.1201 C7.0655,87.2101 7.6555,86.1701 8.1955,85.1901 C8.2455,85.2201 8.3055,85.2501 8.3655,85.2701 C7.9155,87.6401 7.3655,91.0001 7.4655,92.7301 C7.4955,93.3401 7.6155,93.7401 7.8555,93.8101 C7.9955,93.8501 8.1755,93.7701 8.3655,93.5801 C9.4055,92.5701 11.0455,88.6601 12.0355,86.1001 C12.1255,87.0401 12.2455,88.0301 12.3755,88.9401 C12.6955,91.0401 13.1155,92.7901 13.6555,92.8101 C14.5255,92.8801 14.9255,87.0001 15.2655,83.6701 L15.2655,83.6501 C15.2755,83.5501 15.2955,83.4501 15.2955,83.3501 C15.2965,83.3521 15.2975,83.3541 15.2985,83.3561 C15.2985,83.3531 15.2985,83.3511 15.2985,83.3491 C15.3125,83.3941 15.3335,83.4351 15.3525,83.4771 C15.3645,83.5011 15.3745,83.5241 15.3855,83.5501 C16.3955,85.9401 18.3255,87.9901 19.0255,87.7301 C20.4955,87.1601 19.3155,83.5001 18.2255,80.8001 C22.3355,76.7401 28.0955,70.8801 31.1655,67.7201 C32.4255,66.4201 33.8055,64.9801 35.2655,63.4301 L36.4455,60.4301 L36.7355,59.6901 Z" id="Fill-24" fill="#765040"/>
                                    <path d="M54.1057,42.8302 C54.0957,42.8402 54.0557,42.8902 53.9657,42.9802 C53.9357,43.0102 53.9157,43.0402 53.8657,43.0802 C53.8357,43.1202 53.7957,43.1602 53.7557,43.2102 C53.7257,43.2402 53.7057,43.2702 53.6757,43.3002 C53.6557,43.3202 53.6357,43.3502 53.6057,43.3702 C53.5957,43.3902 53.5857,43.4102 53.5657,43.4302 L53.5157,43.4802 C53.4957,43.5002 53.4757,43.5302 53.4457,43.5502 C50.3457,46.8902 37.3757,60.9702 35.5157,63.1502 C35.4657,63.2102 35.4057,63.2802 35.3357,63.3402 C35.3257,63.3602 35.3057,63.3802 35.2857,63.4002 C35.2757,63.4102 35.2657,63.4202 35.2657,63.4302 L36.4457,60.4302 L36.7357,59.6902 L38.3357,55.6602 L38.6357,54.9202 L46.0257,36.2802 L52.1657,41.2602 L54.1057,42.8302 Z" id="Fill-27" fill="#765040"/>
                                    <path d="M61.4147,2.2403 L61.4147,2.2703 C61.4047,2.2703 61.3847,2.2803 61.3747,2.2803 L61.3747,2.2703 C61.3547,2.2803 61.3447,2.2803 61.3247,2.2803 L61.3347,2.2603 C61.3547,2.2503 61.3647,2.2503 61.3747,2.2503 C61.3847,2.2503 61.3947,2.2503 61.4147,2.2403" id="Fill-29" fill="#765040"/>
                                    <path d="M74.4548,10.61 L74.4348,10.61 L74.4348,10.59 C74.4448,10.6 74.4448,10.6 74.4548,10.61" id="Fill-34" fill="#765040"/>
                                    <path d="M61.3723,2.2682 C61.3523,2.2782 61.3423,2.2782 61.3223,2.2782 L61.3223,2.2882 C61.3423,2.2782 61.3523,2.2782 61.3723,2.2782 L61.3723,2.2682 Z" id="Fill-36" fill="#2A4D52"/>
                                    <path d="M53.4455,43.5499 C53.2355,43.7999 53.0155,44.0499 52.7855,44.2999 C52.3455,44.7899 51.8955,45.2899 51.4455,45.7899 C50.0655,47.3099 48.6755,48.8599 47.2855,50.3899 C45.5455,52.2999 43.8155,54.1999 42.1155,56.0599 C41.0855,57.1799 40.0755,58.2699 39.0855,59.3399 C38.4455,60.0199 37.8255,60.6899 37.2155,61.3499 C36.8355,61.7599 36.4555,62.1599 36.0955,62.5499 C35.8955,62.7499 35.7155,62.9499 35.5155,63.1499 C37.3755,60.9699 50.3455,46.8899 53.4455,43.5499" id="Fill-39" fill="#2A4D52"/>
                                    <path d="M92.2451,38.92 C92.1951,39.06 92.1451,39.18 92.0851,39.31 C91.0751,41.54 89.5751,43.14 87.7751,43.75 L87.7651,43.75 C87.5151,43.83 87.2551,43.9 86.9851,43.95 C86.8551,43.98 86.7251,44 86.5951,44.01 C86.1751,44.05 85.7551,44.03 85.3451,43.97 C85.2251,43.95 85.0951,43.93 84.9751,43.9 C84.8551,43.87 84.7451,43.84 84.6251,43.81 C84.5151,43.78 84.3951,43.74 84.2851,43.7 C80.8251,42.42 77.9551,37.66 77.4251,31.78 L81.3251,31.43 L93.3751,30.33 L93.4151,30.33 C93.6951,33.52 93.2551,36.5 92.2751,38.86 C92.2751,38.88 92.2651,38.9 92.2451,38.92 Z M103.1551,49.69 C102.9751,49.26 102.7951,48.84 102.6151,48.41 C102.1851,47.37 101.7551,46.35 101.3351,45.32 C101.2851,45.21 101.2451,45.1 101.1951,44.98 C100.1251,42.43 99.0251,39.75 97.9651,37.21 C97.5951,36.33 97.2351,35.47 96.8751,34.63 C96.8151,34.49 96.7351,34.3 96.6451,34.1 C96.5651,33.94 96.4851,33.77 96.4151,33.61 C96.3451,33.44 96.2651,33.29 96.2151,33.17 C95.9751,32.62 95.7651,32.09 95.5451,31.58 C95.3851,31.2 95.2251,30.83 95.0651,30.46 C95.0351,30.39 95.0051,30.31 94.9751,30.24 C94.9351,30.14 94.8851,30.04 94.8351,29.93 C94.7951,29.83 94.7451,29.74 94.7051,29.63 C94.6551,29.53 94.6151,29.43 94.5651,29.32 C91.8851,23.46 84.7751,7.97 82.7051,3.78 C82.3864069,3.57979537 81.7580933,3.29779095 81.1273739,3.03425223 C80.2144103,2.65278104 79.2964061,2.31 79.3051,2.31 C73.5740289,1.43666667 67.5906956,1.59 61.3551,2.77 C60.8651,2.89 60.3851,3.04 59.9151,3.22 C59.9551,5.98 59.2151,33.11 56.5951,39.63 C56.3151,40.31 56.0251,41.02 55.5651,41.6 C55.1451,42.12 54.5451,42.35 54.1051,42.83 C54.0951,42.84 54.0551,42.89 53.9651,42.98 C53.9351,43.01 53.9151,43.04 53.8651,43.08 C53.8351,43.12 53.7951,43.16 53.7551,43.21 C53.7251,43.24 53.7051,43.27 53.6751,43.3 C53.6451,43.34 53.6051,43.38 53.5651,43.43 L53.5151,43.48 C53.4951,43.5 53.4751,43.53 53.4451,43.55 C53.2351,43.8 53.0151,44.05 52.7851,44.3 C52.3451,44.79 51.8951,45.29 51.4451,45.79 C50.0651,47.31 48.6751,48.86 47.2851,50.39 C45.5451,52.3 43.8151,54.2 42.1151,56.06 C41.0851,57.18 40.0751,58.27 39.0851,59.34 C38.4451,60.02 37.8251,60.69 37.2151,61.35 C36.8351,61.76 36.4551,62.16 36.0951,62.55 C35.8951,62.75 35.7151,62.95 35.5151,63.15 C35.4651,63.21 35.4051,63.28 35.3351,63.34 C35.3251,63.36 35.3051,63.38 35.2851,63.4 C35.2751,63.41 35.2651,63.42 35.2651,63.43 C35.2151,63.55 35.1751,63.64 35.1351,63.73 L35.0151,64.03 L34.9551,64.18 L34.9051,64.32 C34.8651,64.41 34.8251,64.52 34.7751,64.66 L34.7151,64.82 L34.6751,64.91 C34.6551,64.96 34.6251,65.01 34.6051,65.07 C34.5851,65.13 34.5551,65.18 34.5351,65.24 C34.3751,65.61 34.2351,65.98 34.0951,66.34 C33.8851,66.87 33.6851,67.39 33.4751,67.91 C33.2051,68.63 32.9251,69.34 32.6251,70.06 C32.2051,71.07 31.7851,72.07 31.3751,73.06 L31.4751,73.06 C31.3751,73.37 31.1814438,73.8047531 31.4351,73.92 C62.2953193,87.9411243 108.510615,72.2719489 108.661358,72.2019489 C108.690615,72.1919489 105.1451,54.48 103.1551,49.69 Z" id="Fill-43" fill="#2A4D52"/>
                                    <path d="M92.2756,38.86 C92.2756,38.88 92.2656,38.9 92.2456,38.92 C92.1956,39.06 92.1456,39.18 92.0856,39.31 C91.0756,41.54 89.5756,43.14 87.7756,43.75 L87.7656,43.75 C87.5156,43.83 87.2556,43.9 86.9856,43.95 C86.8556,43.98 86.7256,44 86.5956,44.01 C86.1756,44.05 85.7556,44.03 85.3456,43.97 C85.2256,43.95 85.0956,43.93 84.9756,43.9 C84.8556,43.87 84.7456,43.84 84.6256,43.81 C84.5156,43.78 84.3956,43.74 84.2856,43.7 C80.8256,42.42 77.9556,37.66 77.4256,31.78 L81.3256,31.43 L93.3756,30.33 L93.4156,30.33 C93.6956,33.52 93.2556,36.5 92.2756,38.86" id="Fill-45" fill="#2A8C79"/>
                                </g>
                            </g>
                        </g>
                        <g id="Head/Kid Head" transform="translate(108.000000, 310.000000) scale(1 1)">
                            <g id="Head/Kid Head/Double Bun" stroke="none" stroke-width="1" fill="none" fill-rule="evenodd">
                                <g id="Group-26" transform="translate(0.000000, 1.000000)">
                                    <path d="M99.1318,161.2809 L99.1318,161.4109 C99.1618,161.4309 99.2018,161.4609 99.2318,161.4809 L99.1318,161.2809 Z M82.1118,151.2609 C82.0618,151.2509 82.0118,151.2409 81.9618,151.2309 C82.0118,151.2409 82.0618,151.2809 82.1118,151.2909 C85.1418,151.7509 89.2518,151.0609 89.2818,151.0909 L89.2918,151.0909 C89.3318,151.0809 89.3818,151.0809 89.4218,151.0609 C88.9118,151.1309 84.3518,151.7109 82.1118,151.2609 L82.1118,151.2609 Z" id="Fill-1" fill="#765040"/>
                                    <path d="M121.2119,154.8009 C116.3019,154.8009 112.3319,150.8309 112.3319,145.9209 C112.3319,141.0209 116.3019,137.0509 121.2119,137.0509 C126.1119,137.0509 130.0819,141.0209 130.0819,145.9209 C130.0819,150.8309 126.1119,154.8009 121.2119,154.8009 M89.3319,137.4509 L89.2119,137.6909 L88.9919,137.5609 C88.3419,137.1509 87.5319,136.9309 86.7319,136.9309 C85.9419,136.9109 85.1019,137.1009 84.5419,137.6509 C83.9619,138.1909 83.9219,139.1109 84.1419,139.8609 C84.4019,140.6109 85.0619,141.2409 85.8519,141.4309 L85.8319,141.5209 C85.0019,141.3509 84.2819,140.7309 83.9719,139.9209 C83.7019,139.1309 83.6919,138.1209 84.3519,137.4609 C84.9719,136.8109 85.8819,136.5809 86.7319,136.5609 C87.5019,136.5409 88.2819,136.6909 88.9919,137.0409 C89.3619,135.9309 89.2419,134.7109 88.5719,133.7909 C87.8719,132.7909 86.7119,132.1509 85.5419,131.7209 C84.3619,131.3009 83.0919,131.0609 81.8319,131.0909 C80.5919,131.1009 79.3619,131.4409 78.3019,132.0009 C76.1319,133.2009 75.1619,135.7509 75.2019,138.2409 C75.2319,140.7509 76.1319,143.2709 77.6619,145.3709 L77.5819,145.4309 C76.6619,144.5009 75.9019,143.3809 75.3619,142.1609 C74.8019,140.9509 74.4519,139.6209 74.3919,138.2709 C74.3119,136.9209 74.4719,135.5209 75.0519,134.2409 C75.6019,132.9609 76.6019,131.8509 77.8519,131.2009 C79.1019,130.5809 80.4719,130.2709 81.8419,130.3009 C83.1919,130.3309 84.5219,130.6109 85.7819,131.0909 C87.0219,131.5909 88.2519,132.3009 89.0419,133.4709 C89.8419,134.6409 89.8919,136.2209 89.3319,137.4509 M163.3519,133.7709 C162.6419,133.1109 161.7519,132.6709 160.8219,132.4309 C160.8619,131.6609 160.9019,130.8709 160.9019,130.0809 C160.9019,126.3009 160.4619,122.6309 159.6519,119.1309 C159.6519,119.1409 159.6419,119.1409 159.6419,119.1409 C158.5519,115.4609 157.3919,111.9609 155.7919,108.7109 C155.5519,108.2309 155.3219,107.7509 155.0619,107.2809 C154.8919,106.9609 154.7119,106.6409 154.5219,106.3209 C154.4419,106.1809 154.3519,106.0309 154.2619,105.8909 C154.2319,105.8409 154.2019,105.7909 154.1719,105.7409 C154.0619,105.5509 153.9519,105.3609 153.8319,105.1809 C153.7919,105.1309 153.7619,105.0909 153.7319,105.0409 C153.7019,104.9909 153.6819,104.9409 153.6419,104.8909 C153.6119,104.8509 153.5819,104.8009 153.5519,104.7509 C153.4819,104.6509 153.4219,104.5509 153.3519,104.4509 C153.2919,104.3709 153.2419,104.2809 153.1819,104.2009 L153.1819,104.1909 C152.8219,103.6609 152.4319,103.1609 152.0619,102.6509 L152.0519,102.6409 C151.6519,102.1209 151.2619,101.6009 150.8519,101.0909 C150.8519,101.0809 150.8419,101.0809 150.8419,101.0709 C150.6219,100.8009 150.4119,100.5409 150.1919,100.2709 C149.9819,100.0009 149.7519,99.7509 149.5219,99.4909 L149.5219,99.4809 C149.2419,99.1809 148.9619,98.8809 148.6919,98.5909 C148.4219,98.3009 148.1319,98.0109 147.8419,97.7309 C147.6419,101.6009 145.9219,105.2109 142.7519,107.9109 C142.2819,108.3309 141.7919,108.6909 141.2819,109.0309 C135.2019,113.0709 126.9119,112.0209 122.0319,106.3409 C121.8319,106.1009 121.6619,105.8709 121.4719,105.6209 C120.8519,106.9209 119.9619,108.1109 118.8019,109.1109 C117.9919,109.8109 117.1019,110.3509 116.1819,110.7609 C116.5419,112.0009 116.6519,113.3209 116.4619,114.6209 C116.4119,115.0009 116.3419,115.3809 116.2319,115.7509 C116.1519,116.0309 116.0719,116.2909 115.9519,116.5509 C114.2419,121.0709 109.2819,123.5209 104.6219,122.0609 C103.3619,121.6709 102.2519,121.0309 101.3319,120.2209 C101.2619,120.4709 101.2119,120.7209 101.1319,120.9709 C100.0319,124.4709 97.5619,127.1609 94.4819,128.6109 C95.9419,129.4409 97.1419,130.5909 97.4519,132.2609 C97.6019,133.0609 97.4719,133.8609 97.0519,134.4709 C97.4319,135.1809 97.5519,136.0009 97.1519,136.7809 C96.7819,137.5009 94.5919,139.3409 95.7919,140.1609 C96.1219,140.3809 96.5919,140.9109 96.5019,141.3509 C96.4119,141.7809 96.0019,141.7609 95.6819,141.5509 C94.7119,140.8809 93.9519,139.7809 93.9719,138.5609 C94.0019,137.3409 94.9119,136.6709 95.5319,135.7509 C95.6019,135.6409 95.6719,135.5209 95.7319,135.4009 C94.5219,135.8009 93.1219,135.5509 92.2419,134.5909 C91.4719,133.7509 91.3219,132.2309 92.7719,132.0909 C93.7119,132.0109 94.8319,132.4409 95.6719,133.0109 C96.1019,132.3809 96.1219,131.5109 95.5419,130.8709 C94.8519,130.1009 93.7219,129.6509 92.7219,129.2909 L92.7119,129.2909 C90.3819,129.9909 87.8319,130.0309 85.3219,129.2409 C82.4819,128.3609 80.1719,126.5609 78.6419,124.2609 C77.4019,124.8009 76.2319,125.5009 75.1419,126.3709 C72.1119,128.7909 70.3519,132.0609 69.9119,135.4809 C69.8419,136.0009 69.8019,136.5109 69.7909555,137.0309 C69.7519,140.4409 70.9819,143.8609 73.5819,146.6309 C75.8519,149.0509 78.8119,150.6009 81.9619,151.2309 C82.0119,151.2409 82.0619,151.2509 82.1119,151.2609 C84.3519,151.7109 88.9119,151.1309 89.4219,151.0609 C89.4519,151.0509 89.4719,151.0509 89.4719,151.0509 C92.1019,155.1809 95.3319,158.5909 99.1319,161.2809 L99.2319,161.4809 L99.2219,161.8709 C99.7719,162.2709 100.3419,162.6309 100.9119,162.9809 C100.9219,162.9809 100.9219,162.9909 100.9319,162.9909 L101.1919,163.0809 L102.8219,163.6709 L102.8319,163.6809 C106.2719,165.5309 110.0719,166.9109 114.2119,167.8109 L114.2819,167.8309 C115.0219,168.0009 115.7719,168.1509 116.5319,168.2709 C120.0119,168.8809 123.7019,169.1809 127.5819,169.1809 C134.6919,169.1809 143.3319,167.7509 149.0219,161.7609 C152.2019,158.4309 154.9319,154.3009 156.9619,149.5709 C157.8119,147.6109 158.5419,145.5509 159.1219,143.4009 C159.1619,143.4009 159.1719,143.4309 159.2119,143.4309 C162.1919,143.4609 164.6419,140.7809 164.8719,137.8409 C165.0019,136.3309 164.4519,134.7909 163.3519,133.7709" id="Fill-3" fill="#765040"/>
                                    <path d="M173.4917,103.8009 C172.0317,108.6209 168.6817,112.8909 164.2117,115.1909 C168.7617,110.3709 171.5717,104.1209 171.5717,97.4309 C171.5717,87.9309 166.1117,79.5709 157.8417,74.6509 C157.8417,74.6509 157.8317,74.6409 157.8117,74.6309 C157.4317,74.3309 157.0317,74.0509 156.6217,73.8009 C156.8717,73.9109 157.1117,74.0209 157.3617,74.1409 C162.9217,76.7609 167.9217,80.7909 171.0117,86.1509 C174.0517,91.4109 175.2817,97.9109 173.4917,103.8009 M81.9417,165.3709 C76.8317,164.9509 71.8517,162.9609 67.9217,159.4309 C61.2617,153.4309 58.0617,143.7009 60.0317,134.6909 C60.4817,132.6209 61.1917,130.6209 62.1217,128.7409 L62.1317,128.7509 C61.5917,131.0609 61.3017,133.4809 61.3017,135.9609 C61.3017,149.5909 69.9317,161.1609 81.9417,165.3709 M25.2417,116.3409 C16.2617,112.6409 7.2517,106.0209 5.0917,96.0109 C4.8617,94.9309 4.7117,93.8409 4.6517,92.7409 C6.3417,101.6009 15.7517,110.6109 28.8017,114.8409 C32.8817,116.1509 36.9117,116.8809 40.7417,117.0509 C43.1517,118.1709 46.1217,119.0409 49.4517,119.5909 C41.3417,120.8909 32.8317,119.4709 25.2417,116.3409 M172.6917,88.1409 C167.3317,76.6709 154.3717,70.1109 142.1017,69.5309 C135.2417,69.2109 128.2217,70.8109 122.6517,74.9609 C122.6417,74.9709 122.6217,74.9809 122.6317,74.9909 C122.3317,74.9809 122.0617,74.9809 121.7717,74.9909 C121.5417,74.8909 121.3317,74.7809 121.1017,74.6809 C117.0317,73.0409 112.8617,73.5909 109.4317,75.7809 C109.3417,74.6709 109.1817,73.4909 108.9417,72.2809 C116.7617,73.0609 125.4017,69.5709 131.5517,62.3009 C139.0417,53.4409 140.5017,41.6909 135.9617,33.2709 C142.6617,30.8809 147.4217,25.9609 147.9517,19.8209 C148.7917,10.3009 139.1817,1.5009 126.4717,0.1709 C114.3317,-1.1091 103.7817,4.9309 102.1617,13.8009 C100.7917,13.4609 99.3817,13.3509 97.9617,13.5109 C87.8117,14.6109 81.1317,28.4909 83.0517,44.5109 C83.5317,48.5109 84.5017,52.2509 85.8417,55.6109 C85.8417,58.3309 86.3417,61.5209 87.3617,64.9209 C87.8717,66.6809 88.5317,68.5009 89.3317,70.3209 C89.7817,71.3509 90.2717,72.3209 90.7717,73.2709 L90.7717,73.2809 C91.0317,73.7809 91.2917,74.2709 91.5717,74.7409 C84.7417,76.3609 78.9017,82.2009 76.7017,90.7409 C76.1917,92.7309 75.9317,94.7209 75.8517,96.7209 C73.1417,95.9609 71.0717,96.0909 70.5517,97.3409 C70.0617,98.4809 71.0317,100.3009 72.9117,102.1609 C72.2217,102.3909 71.5617,102.6209 70.9217,102.9009 C69.6217,102.3709 68.1917,101.9209 66.6517,101.5509 C70.7017,94.1009 70.9517,83.9309 66.4517,74.5409 C61.0017,63.1009 50.2217,56.3409 40.1217,57.0809 C40.6217,49.3309 37.8317,42.3909 32.1117,39.0909 C23.1917,33.9809 10.6117,39.5909 3.9717,51.6409 C-2.2083,62.8709 -1.0083,75.7209 6.4017,81.5409 C4.1917,85.1609 3.4917,89.5209 4.0117,93.7409 C4.6317,98.7409 6.9717,103.3109 10.3217,107.0309 C13.7717,110.8509 18.1217,113.7609 22.7517,115.9709 C27.8317,118.4009 33.3217,120.0409 38.9217,120.6609 C43.4117,121.1609 47.9817,120.9709 52.3717,119.9609 L52.3817,119.9609 C53.7217,120.0909 55.1017,120.1709 56.5217,120.1809 C58.9317,120.2109 61.2417,120.0609 63.4117,119.7709 C63.7617,120.4709 64.1717,121.1609 64.6417,121.8209 C64.1117,122.8709 63.6417,123.9309 63.2417,125.0509 C63.2317,125.0609 63.2217,125.0709 63.2317,125.0809 C63.2217,125.0909 63.2117,125.1109 63.2117,125.1209 L63.2117,125.1309 C59.0817,131.3309 57.6717,139.2909 59.6717,146.6909 C60.8917,151.2009 63.2117,155.3509 66.3617,158.6509 C69.6517,162.0909 73.8417,164.4509 78.3517,165.5509 C80.5317,166.0809 82.7617,166.3209 84.9917,166.2509 L85.0017,166.2509 C85.0017,166.2509 85.0017,166.2609 85.0117,166.2609 C85.0217,166.2709 85.0217,166.2709 85.0317,166.2609 C85.0417,166.2709 85.0517,166.2709 85.0617,166.2609 C87.2917,166.7909 89.5717,167.0709 91.9617,167.0709 C94.3617,167.0709 96.8117,166.8009 99.0417,166.2609 L99.0517,166.2609 L99.2217,161.8709 L99.2317,161.4809 L99.1317,161.2809 C95.3317,158.5909 92.1017,155.1809 89.4717,151.0509 C89.4717,151.0509 89.4517,151.0509 89.4217,151.0609 C88.9117,151.1309 84.3517,151.7109 82.1117,151.2609 C82.0617,151.2509 82.0117,151.2409 81.9617,151.2309 C78.8117,150.6009 75.8517,149.0509 73.5817,146.6309 C70.9817,143.8609 69.7517,140.4409 69.7917,137.0309 C69.8017,136.5109 69.8417,136.0009 69.9117,135.4809 C70.3517,132.0609 72.1117,128.7909 75.1417,126.3709 C76.2317,125.5009 77.4017,124.8009 78.6417,124.2609 C80.1717,126.5609 82.4817,128.3609 85.3217,129.2409 C87.8317,130.0309 90.3817,129.9909 92.7117,129.2909 L92.7217,129.2909 C93.7217,129.6509 94.8517,130.1009 95.5417,130.8709 C96.1217,131.5109 96.1017,132.3809 95.6717,133.0109 C94.8317,132.4409 93.7117,132.0109 92.7717,132.0909 C91.3217,132.2309 91.4717,133.7509 92.2417,134.5909 C93.1217,135.5509 94.5217,135.8009 95.7317,135.4009 C95.6717,135.5209 95.6017,135.6409 95.5317,135.7509 C94.9117,136.6709 94.0017,137.3409 93.9717,138.5609 C93.9517,139.7809 94.7117,140.8809 95.6817,141.5509 C96.0017,141.7609 96.4117,141.7809 96.5017,141.3509 C96.5917,140.9109 96.1217,140.3809 95.7917,140.1609 C94.5917,139.3409 96.7817,137.5009 97.1517,136.7809 C97.5517,136.0009 97.4317,135.1809 97.0517,134.4709 C97.4717,133.8609 97.6017,133.0609 97.4517,132.2609 C97.1417,130.5909 95.9417,129.4409 94.4817,128.6109 C97.5617,127.1609 100.0317,124.4709 101.1317,120.9709 C101.2117,120.7209 101.2617,120.4709 101.3317,120.2209 C102.2517,121.0309 103.3617,121.6709 104.6217,122.0609 C109.2817,123.5209 114.2417,121.0709 115.9517,116.5509 C116.0717,116.2909 116.1517,116.0309 116.2317,115.7509 C116.3417,115.3809 116.4117,115.0009 116.4617,114.6209 C116.6517,113.3209 116.5417,112.0009 116.1817,110.7609 C117.1017,110.3509 117.9917,109.8109 118.8017,109.1109 C119.9617,108.1109 120.8517,106.9209 121.4717,105.6209 C121.6617,105.8709 121.8317,106.1009 122.0317,106.3409 C126.9117,112.0209 135.2017,113.0709 141.2817,109.0309 C141.7917,108.6909 142.2817,108.3309 142.7517,107.9109 C145.9217,105.2109 147.6417,101.6009 147.8417,97.7309 C148.1317,98.0109 148.4217,98.3009 148.6917,98.5909 C148.9817,98.8809 149.2517,99.1809 149.5217,99.4809 L149.5217,99.4909 C149.7517,99.7509 149.9817,100.0009 150.1917,100.2709 C151.0517,101.2709 151.8717,102.3109 152.6317,103.3909 C152.8217,103.6609 153.0017,103.9209 153.1817,104.1909 L153.1817,104.2009 C153.2417,104.2809 153.2917,104.3709 153.3517,104.4509 C153.4217,104.5509 153.4817,104.6509 153.5517,104.7509 C153.5817,104.8009 153.6117,104.8509 153.6417,104.8909 C153.6817,104.9409 153.7017,104.9909 153.7317,105.0409 C153.7617,105.0909 153.7917,105.1309 153.8317,105.1809 C153.9517,105.3609 154.0617,105.5509 154.1717,105.7409 C154.2017,105.7909 154.2317,105.8409 154.2617,105.8909 C154.3517,106.0309 154.4417,106.1809 154.5217,106.3209 C154.7117,106.6409 154.8917,106.9609 155.0617,107.2809 C157.1017,110.9109 158.6617,114.9009 159.6517,119.1309 C160.5817,118.4809 161.4717,117.7709 162.3217,117.0209 C167.4917,115.3509 171.5717,111.1609 173.6117,106.1609 C175.9717,100.3609 175.3117,93.7309 172.6917,88.1409" id="Fill-5" fill="#672448"/>
                                    <path d="M89.332,137.4509 L89.212,137.6909 L88.992,137.5609 C88.342,137.1509 87.532,136.9309 86.732,136.9309 C85.942,136.9109 85.102,137.1009 84.542,137.6509 C83.962,138.1909 83.922,139.1109 84.142,139.8609 C84.402,140.6109 85.062,141.2409 85.852,141.4309 L85.832,141.5209 C85.002,141.3509 84.282,140.7309 83.972,139.9209 C83.702,139.1309 83.692,138.1209 84.352,137.4609 C84.972,136.8109 85.882,136.5809 86.732,136.5609 C87.502,136.5409 88.282,136.6909 88.992,137.0409 C89.362,135.9309 89.242,134.7109 88.572,133.7909 C87.872,132.7909 86.712,132.1509 85.542,131.7209 C84.362,131.3009 83.092,131.0609 81.832,131.0909 C80.592,131.1009 79.362,131.4409 78.302,132.0009 C76.132,133.2009 75.162,135.7509 75.202,138.2409 C75.232,140.7509 76.132,143.2709 77.662,145.3709 L77.582,145.4309 C76.662,144.5009 75.902,143.3809 75.362,142.1609 C74.802,140.9509 74.452,139.6209 74.392,138.2709 C74.312,136.9209 74.472,135.5209 75.052,134.2409 C75.602,132.9609 76.602,131.8509 77.852,131.2009 C79.102,130.5809 80.472,130.2709 81.842,130.3009 C83.192,130.3309 84.522,130.6109 85.782,131.0909 C87.022,131.5909 88.252,132.3009 89.042,133.4709 C89.842,134.6409 89.892,136.2209 89.332,137.4509" id="Fill-8" fill="#765040"/>
                                    <path d="M130.082,145.9206 C130.082,150.8306 126.112,154.8006 121.212,154.8006 C116.302,154.8006 112.332,150.8306 112.332,145.9206 C112.332,141.0206 116.302,137.0506 121.212,137.0506 C126.112,137.0506 130.082,141.0206 130.082,145.9206" id="Fill-10" fill="#765040"/>
                                    <path d="M153.1816,104.1906 C152.8216,103.6606 152.4316,103.1606 152.0616,102.6506 C152.2516,102.9006 152.4516,103.1406 152.6316,103.3906 C152.8216,103.6606 153.0016,103.9206 153.1816,104.1906" id="Fill-12" fill="#765040"/>
                                    <path d="M159.6518,119.131 C159.6518,119.141 159.6418,119.141 159.6418,119.141 C158.5518,115.461 157.3918,111.961 155.7918,108.711 C155.5518,108.231 155.3218,107.751 155.0618,107.281 C157.1018,110.911 158.6618,114.901 159.6518,119.131" id="Fill-14" fill="#765040"/>
                                    <path d="M89.332,137.4509 L89.212,137.6909 L88.992,137.5609 C88.342,137.1509 87.532,136.9309 86.732,136.9309 C85.942,136.9109 85.102,137.1009 84.542,137.6509 C83.962,138.1909 83.922,139.1109 84.142,139.8609 C84.402,140.6109 85.062,141.2409 85.852,141.4309 L85.832,141.5209 C85.002,141.3509 84.282,140.7309 83.972,139.9209 C83.702,139.1309 83.692,138.1209 84.352,137.4609 C84.972,136.8109 85.882,136.5809 86.732,136.5609 C87.502,136.5409 88.282,136.6909 88.992,137.0409 C89.362,135.9309 89.242,134.7109 88.572,133.7909 C87.872,132.7909 86.712,132.1509 85.542,131.7209 C84.362,131.3009 83.092,131.0609 81.832,131.0909 C80.592,131.1009 79.362,131.4409 78.302,132.0009 C76.132,133.2009 75.162,135.7509 75.202,138.2409 C75.232,140.7509 76.132,143.2709 77.662,145.3709 L77.582,145.4309 C76.662,144.5009 75.902,143.3809 75.362,142.1609 C74.802,140.9509 74.452,139.6209 74.392,138.2709 C74.312,136.9209 74.472,135.5209 75.052,134.2409 C75.602,132.9609 76.602,131.8509 77.852,131.2009 C79.102,130.5809 80.472,130.2709 81.842,130.3009 C83.192,130.3309 84.522,130.6109 85.782,131.0909 C87.022,131.5909 88.252,132.3009 89.042,133.4709 C89.842,134.6409 89.892,136.2209 89.332,137.4509" id="Fill-16" fill="#672448"/>
                                    <path d="M155.062,107.2809 C155.322,107.7509 155.552,108.2309 155.792,108.7109 C157.392,111.9609 158.552,115.4609 159.642,119.1409 C159.642,119.1409 159.652,119.1409 159.652,119.1309 C158.662,114.9009 157.102,110.9109 155.062,107.2809 M152.632,103.3909 C152.452,103.1409 152.252,102.9009 152.062,102.6509 C152.432,103.1609 152.822,103.6609 153.182,104.1909 C153.002,103.9209 152.822,103.6609 152.632,103.3909" id="Fill-18" fill="#672448"/>
                                    <path d="M130.082,145.9206 C130.082,150.8306 126.112,154.8006 121.212,154.8006 C116.302,154.8006 112.332,150.8306 112.332,145.9206 C112.332,141.0206 116.302,137.0506 121.212,137.0506 C126.112,137.0506 130.082,141.0206 130.082,145.9206" id="Fill-20" fill="#C57450"/>
                                    <path d="M99.2217,161.8708 L99.0517,166.2608 L98.7817,173.2608 L98.7717,173.2608 L98.7417,173.8908 L98.6817,175.4608 L98.5217,179.5708 C99.5417,180.4908 100.9817,181.3808 102.6117,182.1508 C105.1617,183.3708 108.1717,184.3108 110.7317,184.7008 C113.9817,185.1708 116.5317,184.7408 116.5317,182.7808 L116.5317,168.2108 C113.2417,166.9508 99.7717,162.2708 99.2217,161.8708" id="Fill-22" fill="#765040"/>
                                    <path d="M116.5317,168.2106 L116.5317,173.5006 C113.2417,172.2406 100.0617,162.2306 100.0617,162.2306 L100.9117,162.5406 C100.9217,162.5406 100.9217,162.5506 100.9317,162.5506 L101.1917,162.6406 L102.8217,163.2306 L102.8317,163.2406 L114.2117,167.3706 L114.2817,167.3906 L116.5317,168.2106 Z" id="Fill-24" fill="#765040"/>
                                </g>
                            </g>
                        </g>
                        <g id="Expression/Child" transform="translate(201.000000, 425.000000) scale(1 1)">
                            <g id="Expression/Child/Smile 1" stroke="none" stroke-width="1" fill="none" fill-rule="evenodd">
                                <path d="M38.879967,1.11851736 C38.6999176,1.31386921 38.4398461,1.28456643 38.2297885,1.14782014 C38.129761,1.079447 37.9397088,0.991538664 37.7996703,0.962235887 C37.5996154,0.913397926 37.4695797,0.903630334 37.2495192,0.913397926 C37.099478,0.93293311 36.9194286,0.97200348 36.7393791,1.05014422 C36.7293764,1.05991181 36.6593571,1.08921459 36.6593571,1.08921459 C36.6093434,1.11851736 36.5693324,1.14782014 36.5293214,1.17712292 C36.4392967,1.23572847 36.4192912,1.24549606 36.3592747,1.30410162 C35.8191264,1.8315516 35.7891181,2.70086732 36.2192362,3.29669045 C36.3692775,3.50180989 36.2792527,3.80460525 36.0791978,3.93158395 C35.8591373,4.06833025 35.5890632,3.99018951 35.439022,3.78507007 C34.7688379,2.86691639 34.8688654,1.43108032 35.7190989,0.649672933 C36.5893379,-0.151269637 37.8996978,-0.209875191 38.8499588,0.464088679 C39.0600165,0.610602564 39.0300082,0.952468295 38.879967,1.11851736" id="Fill-169" fill="#672448"/>
                                <path d="M43.7262497,25.9903323 C42.114444,26.1840735 40.4838963,23.4426347 40.0903159,19.8584213 C39.6873645,16.274208 40.6713156,13.2130961 42.2737503,13.0096677 C43.885556,12.8159265 45.5161037,15.5573653 45.9096841,19.1415787 C46.3126355,22.725792 45.3286844,25.7869039 43.7262497,25.9903323" id="Fill-171" fill="#672448"/>
                                <path d="M41.9996663,10.4953765 C42.008952,10.7909286 41.8232393,10.9989098 41.5910986,11.0317489 C40.3839665,11.1740518 39.2604051,12.2139576 38.8518373,13.593201 C38.7775523,13.8559141 38.5918397,14.0529488 38.3411276,13.9872706 C38.1368437,13.9325387 37.9418455,13.6260402 38.0161305,13.3742735 C38.5639828,11.5243359 39.9382562,10.1998243 41.5632417,10.0027895 C41.7953824,9.96995038 41.9996663,10.2326634 41.9996663,10.4953765" id="Fill-173" fill="#672448"/>
                                <path d="M64,34.4898008 C61.9734415,39.0688468 59.2480698,43.0670412 56.073461,46.290767 C55.1051055,46.6683205 54.0668687,46.9200228 52.9687335,46.978108 C45.7609739,47.4137466 39.1821462,41.237359 39.0024514,38.2846972 C38.9924683,38.0426758 39.0124344,37.8296969 39.0723327,37.6263989 C39.7611629,35.361078 45.2618216,35.4869292 51.8905645,35.090014 C57.9003585,34.7318222 62.5225091,33.2409701 64,34.4898008" id="Fill-175" fill="#672448"/>
                            </g>
                        </g>
                    </g>
                </g>
            </g>
        </g>
    </g>
</svg>
