<svg viewBox="96.25 4.128 838.75 605.505" xmlns="http://www.w3.org/2000/svg" overflow="visible">
    <g id="Master/Horizontal Scenes/Procrastinating" stroke="none" stroke-width="1" fill="none" fill-rule="evenodd">
        <g id="Background" style="mix-blend-mode:soft-light" transform="translate(250.000000, 0.000000) scale(1 1)">
            <g id="Background/2021" stroke="none" stroke-width="1" fill="none" fill-rule="evenodd">
                <path d="M440.0452,417.443 C434.5612,408.718 424.8552,402.915 413.7882,402.915 C398.9512,402.915 384.0342,403.247 369.6082,403.568 C368.1302,403.6 366.6452,403.633 365.1542,403.666 C365.5392,400.594 365.9332,397.546 366.3422,394.504 C370.6962,362.111 382.9632,327.81 394.8262,294.637 C398.0762,285.548 401.4372,276.15 404.5752,266.953 C406.2222,262.126 409.2992,255.809 412.5572,249.121 C419.3582,235.16 426.9252,219.594 429.1782,202.794 C429.9302,206.361 431.3222,209.856 433.4052,213.109 C442.6382,227.527 461.8122,231.73 476.2292,222.498 C477.7202,221.543 479.5232,220.423 481.5032,219.206 C482.8612,248.611 484.0432,279.575 484.0432,311.115 C484.0432,326.894 483.7342,343.022 483.4362,358.618 C483.2262,369.627 483.0082,381.01 482.8972,392.299 C482.8722,394.713 482.7982,397.863 482.6952,401.309 C477.7492,401.082 472.6932,400.91 467.4622,400.91 C455.5672,400.91 445.2432,407.612 440.0452,417.443 M345.8962,246.933 C342.9042,255.7 339.7682,264.473 336.4462,273.76 C326.9092,300.43 317.1442,327.772 310.5682,355.862 C310.8462,343.814 310.5052,332.043 310.1852,321.094 C309.9652,313.573 309.7572,306.469 309.7632,299.973 C309.7822,278.454 309.8072,246.625 302.5792,215.557 C307.2582,220.437 313.5522,223.834 320.7722,224.813 C337.3372,227.062 352.6102,215.784 355.4692,199.465 C356.5262,197.246 359.6922,194.342 361.1492,194.342 C363.9032,194.342 366.1492,194.793 367.6482,195.269 C366.5022,202.091 360.9702,213.449 356.8192,221.968 C352.8722,230.07 348.7912,238.447 345.8962,246.933 M238.6702,403.485 C238.2802,404.127 238.2002,404.26 237.0982,404.343 C234.6362,404.526 231.4602,403.262 230.0062,401.52 C229.5182,400.934 229.0802,400.278 228.7052,399.572 C210.4552,365.173 212.5232,311.193 214.1842,267.818 C214.3072,264.611 214.4282,261.448 214.5392,258.337 L214.6492,255.249 C215.3322,235.67 216.3432,206.761 226.7862,195.124 C247.8362,219.259 247.7862,273.421 247.7632,299.918 C247.7562,307.347 247.9772,314.904 248.2112,322.906 C249.0592,351.905 250.0192,384.774 238.6702,403.485 M80.5692,403.508 C86.8942,382.771 95.0642,361.825 103.3192,341.675 C108.9062,328.04 115.0012,314.2 120.8962,300.816 C131.4662,276.814 142.3962,251.995 151.4062,226.216 L152.0432,224.403 C153.1662,221.214 154.4532,217.559 155.6622,213.555 C153.5822,227.685 153.0932,241.443 152.6872,253.085 L152.5802,256.104 C152.4692,259.17 152.3502,262.286 152.2292,265.446 C150.5392,309.561 148.5042,363.037 165.0632,408.534 C160.1102,405.18 154.1362,403.221 147.7042,403.221 C126.9132,403.221 103.9902,403.252 80.5692,403.508 M587.8942,421.104 C581.9262,405.057 564.0822,396.888 548.0312,402.855 C547.1462,403.184 545.9952,403.441 544.6522,403.638 C544.7732,399.598 544.8632,395.832 544.8932,392.913 C545.0022,381.909 545.2172,370.672 545.4252,359.804 C545.7292,343.916 546.0432,327.487 546.0432,311.115 C546.0432,273.543 544.4512,237.254 542.8202,203.304 C542.2492,191.394 540.3362,162.286 540.2542,161.052 C539.4642,149.044 531.7952,138.577 520.5822,134.206 C509.3672,129.833 496.6402,132.347 487.9302,140.651 C482.0902,146.219 464.7932,156.768 454.4592,163.071 C450.1602,165.693 446.1002,168.169 442.7952,170.285 C436.1112,174.565 431.6282,180.982 429.6542,188.07 C428.5772,174.395 423.0942,162.191 413.5822,152.485 C401.0382,139.684 381.9272,132.342 361.1492,132.342 C326.1162,132.342 298.5282,161.56 294.3462,189.143 C288.2212,173.997 279.6682,159.877 267.7192,148.252 C247.5292,128.609 214.1832,126.491 191.8032,143.432 C174.3842,156.615 164.9502,174.893 159.7092,193.955 C160.6772,183.667 159.6342,172.54 154.1702,161.706 C143.4882,140.526 122.0522,129.627 96.8162,132.547 C80.9512,134.384 67.5882,138.601 57.0982,145.079 C38.5782,156.516 28.7412,174.667 29.3992,196.19 C29.9222,213.302 44.2382,226.788 61.3312,226.228 C77.5332,225.733 90.4512,212.891 91.3372,197.002 C92.4342,196.538 94.0592,195.969 96.3612,195.423 C95.4262,198.524 94.3032,201.711 93.5662,203.803 L92.8792,205.758 C84.6722,229.236 74.7052,251.867 64.1532,275.828 C58.1002,289.574 51.8402,303.789 45.9482,318.169 C31.3932,353.695 17.0182,391.823 10.4502,429.932 C8.8752,439.073 11.4772,448.44 17.5392,455.46 C23.4362,462.286 32.0032,466.197 40.9982,466.196 C41.2532,466.196 41.5092,466.193 41.7652,466.187 C77.9122,465.296 115.4022,465.221 147.7042,465.221 C164.1382,465.221 177.5762,452.432 178.6302,436.265 C179.8172,437.967 181.0592,439.63 182.3812,441.216 C182.3812,441.217 182.3822,441.218 182.3832,441.219 C195.5362,456.997 215.9632,466.359 236.6542,466.359 C238.3482,466.359 240.0422,466.297 241.7342,466.17 C262.6602,464.6 280.8652,453.471 291.6822,435.637 C295.6912,429.026 298.8752,422.039 301.4052,414.816 C300.7822,420.341 300.1642,425.988 299.5272,431.847 C298.5742,440.618 301.4032,449.38 307.3062,455.937 C313.1862,462.469 321.5602,466.197 330.3462,466.196 L330.4472,466.196 C344.0232,466.151 357.7312,465.847 370.9872,465.552 C385.0732,465.239 399.6402,464.915 413.7882,464.915 C425.6832,464.915 436.0072,458.213 441.2052,448.382 C446.6902,457.107 456.3962,462.91 467.4622,462.91 C474.5522,462.91 481.6992,463.309 489.2682,463.731 L493.1692,463.946 C496.3382,464.118 500.0932,464.405 504.0682,464.71 C513.2212,465.412 523.3692,466.19 533.5432,466.19 C546.1622,466.19 558.8192,464.992 569.6452,460.966 C585.6912,454.998 593.8612,437.151 587.8942,421.104" id="Fill-1" fill="#EAF3F3"/>
            </g>
        </g>
        <g transform="translate(800.000000, 300.000000) scale(-1, 1) translate(-800.000000, -300.000000) translate(500.000000, -0.000000) scale(1 1)" id="Master/Hands/Point">
            <g id="Master/Hands/Point" stroke="none" stroke-width="1" fill="none" fill-rule="evenodd">
                <g id="base" transform="translate(177.000000, 189.000000)" fill-rule="nonzero">
                    <path d="M123.080449,57.8373733 C122.230961,56.9306201 122.405161,55.4768772 123.444832,54.7964987 C123.548706,54.7285217 123.548706,54.7285217 124.041439,54.4062473 C124.527684,54.0882627 125.091918,53.7194196 125.727734,53.3039556 C127.544246,52.1169823 129.570188,50.7943823 131.754304,49.370054 C137.994761,45.3004629 144.252722,41.2308348 150.118299,37.4322648 L150.546023,37.1552997 C161.933092,29.7826397 170.368085,24.3862981 174.642601,21.7661936 C176.268351,20.7667795 177.993989,19.6596861 180.206362,18.2061506 C181.128293,17.6004389 185.028181,15.0190946 186.05272,14.3461085 C194.930091,8.51485275 200.760884,5.17320653 206.867377,2.80274779 C209.588395,1.74648486 212.204366,0.975608357 214.744675,0.503648662 C228.99705,-2.14427595 238.385091,14.0205896 232.899542,26.8449116 C231.509996,30.1014928 229.328877,33.5922956 226.430743,37.3245256 C223.262374,41.4047652 219.30685,45.6909691 214.582814,50.2860659 C210.742119,54.0219311 208.129125,56.3857107 201.46438,62.2786723 C197.652308,65.6474076 192.062472,70.2906649 185.119982,75.8934082 C184.665838,76.2599127 184.206788,76.6298028 183.743013,77.0029445 C178.685236,81.0723 173.267617,85.3670295 167.850193,89.6188432 C165.954242,91.1068627 164.193661,92.4832927 162.613516,93.7145452 C162.060335,94.145585 161.569175,94.5277251 161.145671,94.8567659 C160.891345,95.0543633 160.716242,95.1902307 160.625117,95.2608502 C159.809223,95.8931467 158.646165,95.8006638 157.940449,95.0473733 L123.080449,57.8373733 Z" id="Path" fill="#fcb7a0"/>
                    <path d="M166.217865,107.377129 C165.426823,101.546365 164.177903,95.6964648 162.184953,87.8327249 C161.824505,86.4104761 161.752106,86.1297313 160.846225,82.6289695 C155.161067,60.6194411 145.048528,52.3246226 124.346658,54.4403638 C108.553808,56.0536119 94.8666172,59.5385014 68.8153919,67.6504343 C66.7805248,68.2846209 65.009891,68.82178 61.5054198,69.8743892 C60.8555756,70.0695618 60.8555756,70.0695618 60.2052488,70.2649571 C41.8927262,75.7686146 33.3529692,79.0015672 24.7587017,84.6118715 C13.3343771,92.0696261 6.30467545,102.124878 3.84020622,116.143716 C1.73319692,128.039184 0.950155898,140.341132 0.871512683,157.087558 C0.854225185,160.768789 0.863978611,163.721599 0.903409266,170.313829 C0.939016267,176.266799 0.949012818,178.888088 0.940007554,182.164503 C0.935899929,186.63816 0.878926407,192.717206 0.700195808,209.392366 L0.69565027,209.8165 C0.522735619,225.952945 0.46,232.832335 0.46,237.44 L0.46,408.74 C0.46,409.844569 1.3554305,410.74 2.46,410.74 L186.81,410.74 C187.914569,410.74 188.81,409.844569 188.81,408.74 L188.81,160.29 C188.81,159.719508 188.810866,159.293243 188.813881,158.143523 C188.836023,149.700019 188.721811,145.278491 188.15936,139.928661 C186.636569,125.444432 182.161638,115.403777 173.066847,110.712532 C171.030308,109.566491 168.741413,108.840198 166.374973,108.588729 C166.325389,108.187454 166.273012,107.783617 166.217865,107.377129 Z" id="Path" fill="#fcb7a0"/>
                    <path d="M31.4464458,125.25224 C33.5792918,126.539683 35.3763205,127.98243 37.6146003,130.114688 C38.0727843,130.551169 38.5477838,131.013779 39.1634141,131.620945 C39.3546395,131.809541 40.4649082,132.908341 40.7967573,133.2351 C41.5838184,134.01009 42.8501105,134.000304 43.6251,133.213243 C44.4000895,132.426182 44.3903037,131.15989 43.6032427,130.3849 C43.27589,130.062568 42.1671775,128.965309 41.9721962,128.773008 C41.3415158,128.150999 40.8513037,127.673574 40.3736028,127.2185 C37.9414879,124.901589 35.92864,123.285571 33.5135542,121.82776 C32.5679102,121.256944 31.3385762,121.560802 30.76776,122.506446 C30.1969438,123.45209 30.5008018,124.681424 31.4464458,125.25224 Z" id="Path" fill="#dc8173"/>
                    <path d="M96.0661529,64.6052215 C101.855544,65.5251102 110.905075,72.9187027 114.00547,78.8825205 C118.688378,87.893954 122.633784,100.790896 125.986427,116.07843 C126.18405,116.98281 126.341368,117.786568 126.638067,119.369702 C126.981936,121.204525 127.108327,121.858973 127.311455,122.813893 C127.428048,123.362007 127.544962,123.879552 127.666057,124.380196 C127.925738,125.453806 129.006585,126.113625 130.080196,125.853943 C131.153806,125.594262 131.813625,124.513415 131.553943,123.439804 C131.441977,122.976898 131.333139,122.495103 131.223917,121.981645 C131.030036,121.070195 130.907175,120.434023 130.569619,118.632881 C130.265817,117.011847 130.102934,116.179659 129.893894,115.223038 C126.471151,99.6158537 122.440063,86.4388295 117.554678,77.0377654 C113.904935,70.0172391 103.834223,61.7893281 96.6938471,60.6547785 C95.6029624,60.4814455 94.5781115,61.2252681 94.4047785,62.3161529 C94.2314455,63.4070376 94.9752681,64.4318885 96.0661529,64.6052215 Z" id="Path" fill="#dc8173"/>
                    <path d="M90.3963596,175.78692 C98.9351389,168.221058 98.9729663,138.287015 90.5192567,107.352773 C86.4336134,92.4213963 73.613199,76.6755392 60.2515038,71.9925645 C59.209102,71.627226 58.067903,72.1760943 57.7025645,73.2184962 C57.337226,74.260898 57.8860943,75.402097 58.9284962,75.7674355 C70.9440462,79.9786165 82.8998042,94.6625145 86.6609141,108.407852 C94.7257077,137.918953 94.6894148,166.638714 87.7436404,172.79308 C86.9169142,173.525608 86.8405516,174.789633 87.5730798,175.61636 C88.305608,176.443086 89.5696334,176.519448 90.3963596,175.78692 Z" id="Path" fill="#dc8173"/>
                    <path d="M100.342308,259.471538 C94.7688106,258.056047 89.6243615,258.157618 85.2271485,260.290519 C84.2333228,260.772582 83.8184569,261.969026 84.3005194,262.962851 C84.782582,263.956677 85.9790258,264.371543 86.9728515,263.889481 C90.397689,262.228238 94.6186655,262.144899 99.3576923,263.348462 C100.428275,263.620356 101.516568,262.97289 101.788462,261.902308 C102.060356,260.831725 101.41289,259.743432 100.342308,259.471538 Z" id="Path" fill="#dc8173"/>
                    <path d="M145.653776,166.516926 C148.065253,165.711235 147.046851,162.098842 144.569639,162.671366 C142.086471,163.245266 140.041645,163.905314 136.659089,165.216788 C134.001057,166.082131 131.926961,166.798906 130.064551,167.512346 C127.702771,168.425738 125.656127,169.252612 123.821639,170.052439 C121.694803,170.681695 119.918655,171.021623 117.987741,171.198322 C112.28676,171.720021 110.062676,169.429614 106.858361,161.549786 C106.779759,161.356495 106.068164,159.592384 105.85061,159.061553 C103.176132,152.483975 103.842278,147.338567 107.383576,142.632598 C110.207001,138.880596 113.851382,136.122167 122.184087,130.850758 L123.319648,130.132515 C123.817636,129.817313 124.219246,129.56243 124.605066,129.316485 C128.439866,126.873806 132.608903,124.401147 137.897711,121.39494 C139.34863,120.570225 140.841155,119.729005 142.780355,118.641268 C142.997279,118.519591 146.576361,116.514187 147.609651,115.933641 C154.346406,112.141035 161.40071,109.935715 165.348326,109.879796 C166.452784,109.864156 167.335443,108.956133 167.320204,107.851674 C167.304156,106.747216 166.396133,105.864557 165.291674,105.879796 C160.614167,105.946454 152.927735,108.349391 145.648852,112.447201 C144.61948,113.025545 141.042212,115.029932 140.823496,115.152614 C138.878258,116.243739 137.379687,117.088366 135.921076,117.917454 C130.578907,120.953992 126.356558,123.458269 122.455513,125.943146 C122.073253,126.186821 121.675029,126.439554 121.180361,126.752656 L120.045608,127.470388 C111.289576,133.0096 107.408254,135.947369 104.187433,140.227463 C99.799864,146.058029 98.9414118,152.688832 102.147297,160.573321 C102.361856,161.096863 103.070562,162.853812 103.153009,163.05656 C104.952651,167.482113 106.179416,169.800791 108.102883,171.781617 C109.82958,173.559805 111.910655,174.668899 114.422605,175.078737 C113.277661,175.844406 112.134996,176.672844 110.93798,177.596754 C99.2769994,186.649582 93.1351155,196.308766 85.3164836,214.89447 C84.88817,215.912616 85.3663237,217.085203 86.3844697,217.513516 C87.4026157,217.94183 88.5752029,217.463676 89.0035164,216.44553 C96.5790009,198.437813 102.392823,189.294564 113.386461,180.759808 C117.181058,177.830976 120.381931,175.933671 125.168356,173.829233 C127.616019,173.090319 130.461792,172.011959 134.342858,170.442893 C135.743734,169.876536 136.945533,169.396793 138.006252,168.984944 C138.810045,168.725217 144.195036,167.004301 145.653776,166.516926 Z" id="Path" fill="#dc8173"/>
                    <path d="M107.252762,166.534835 C91.5140886,172.874184 78.7204633,175.131882 66.3811133,172.736648 C56.3690655,170.785709 49.9314105,162.391272 46.5299847,148.821229 C43.9539859,138.54424 43.3441593,126.246691 44.0765033,113.878214 C44.1417911,112.775576 43.3008523,111.828784 42.198214,111.763497 C41.0955757,111.698209 40.1487845,112.539148 40.0834967,113.641786 C39.3291892,126.381201 39.9575273,139.052047 42.6500153,149.793771 C46.3888999,164.710111 53.7877879,174.357956 65.6174765,176.663078 C78.8464877,179.231009 92.3576829,176.84668 108.747238,170.245165 C109.771817,169.832476 110.267853,168.667341 109.855165,167.642762 C109.442476,166.618183 108.277341,166.122147 107.252762,166.534835 Z" id="Path" fill="#dc8173"/>
                    <path d="M128.484823,54.2099451 C145.767098,54.0818552 155.346398,61.205874 159.599408,78.2638417 C159.896007,79.4409954 160.342137,81.2741858 161.0292,84.1268707 L161.049772,84.2122881 C161.208885,84.8730073 161.758876,87.1596616 161.738291,87.0741114 C161.998463,88.1553845 162.176315,88.8927694 162.326345,89.5113849 C162.586683,90.5848361 163.667934,91.2439941 164.741385,90.9836554 C165.814836,90.7233167 166.473994,89.6420664 166.213655,88.5686151 C166.064336,87.95293 165.886943,87.217447 165.627295,86.138352 C165.647997,86.2243904 165.097866,83.937151 164.938597,83.2757858 L164.918,83.1902611 C164.227478,80.323217 163.779454,78.4822403 163.479383,77.2913365 C158.772401,58.4125481 147.552606,50.0685118 128.455177,50.2100549 C127.350638,50.2182414 126.461868,51.1202837 126.469999,52.2248229 C126.478241,53.329362 127.380284,54.2181315 128.484823,54.2099451 Z" id="Path" fill="#dc8173"/>
                </g>
                <g id="Point/Wear" transform="scale(1 1)">
                    <g id="Point/Wear/Empty" stroke="none" stroke-width="1" fill="none" fill-rule="evenodd" fill-opacity="0"/>
                </g>
                <g id="Point/Item" transform="scale(1 1)">
                    <g id="Point/Item/Star" stroke="none" stroke-width="1" fill="none" fill-rule="evenodd">
                        <g id="items" transform="translate(248.000000, 108.000000)" fill-rule="nonzero">
                            <path d="M183.768912,22.218359 C184.807196,21.0391008 186.737377,21.4626243 187.186537,22.96826 C188.276575,26.622192 189.296849,31.9905295 190.077077,38.0154709 C192.12448,39.355169 193.195415,40.0458913 194.53436,40.8846659 C196.840104,42.3290867 198.952785,43.5704456 201.106935,44.7283772 C202.670127,45.5686486 202.445853,47.8772652 200.750157,48.4009462 C197.606884,49.3716816 194.449275,50.2947268 191.278419,51.1697815 C191.551808,56.497791 191.495,61.0984701 191.073959,64.402798 C190.848437,66.1726913 188.593872,66.783864 187.505341,65.3701872 C185.093597,62.2380516 182.777311,59.1011742 179.26253,54.241052 C172.290367,55.8825132 165.265422,57.2938789 158.199107,58.4727363 C156.245006,58.7987346 155.057046,56.3900939 156.505125,55.038112 C157.236618,54.3551624 161.651876,50.3248483 162.96912,49.0895423 C164.38247,47.7641076 165.60067,46.5811437 166.698964,45.4584692 C168.050372,44.0770616 169.195126,42.8111632 170.131302,41.6515602 C166.473784,36.6893504 163.204062,32.4156104 159.842791,28.2450296 C158.67528,26.7964112 159.94504,24.6781462 161.772939,25.0250785 C167.592371,26.129597 172.621015,27.8984526 177.670894,30.4792046 C180.080759,26.8222011 181.833602,24.4164371 183.768912,22.218359 Z" id="Path" fill="#FCD400"/>
                            <path d="M151.870358,14.0727915 C137.628613,7.94606692 122.648598,3.22445088 110.137537,1.34225586 C97.1027991,-0.624738829 84.2154146,-0.32045654 67.1341655,1.79516615 C66.0379721,1.93093677 65.2593955,2.92964099 65.3951661,4.02583445 C65.5309368,5.12202792 66.529641,5.90060447 67.6258345,5.76483385 C84.3764682,3.69016 96.9259172,3.39385666 109.541571,5.29760966 C121.671219,7.12242419 136.338229,11.7453828 150.289642,17.7472085 C151.304305,18.1837109 152.480706,17.7150198 152.917208,16.7003575 C153.353711,15.6856953 152.88502,14.5092939 151.870358,14.0727915 Z" id="Path" fill="#E2B420"/>
                            <path d="M127.616258,25.3904221 C105.889233,20.4171128 81.2699806,20.3445584 56.5089811,24.6292879 C39.4504794,27.5817209 20.2660615,33.537744 1.62100292,41.3037488 C0.601346536,41.7284542 0.11904344,42.8993407 0.543748802,43.9189971 C0.968454163,44.9386535 2.1393407,45.4209566 3.15899708,44.9962512 C21.5469773,37.3373242 40.4534018,31.4676073 57.1910829,28.570701 C81.4572439,24.3716001 105.548619,24.4425988 126.723742,29.2895779 C127.800464,29.5360393 128.873117,28.8629799 129.119578,27.7862578 C129.366039,26.7095356 128.69298,25.6368835 127.616258,25.3904221 Z" id="Path" fill="#E2B420"/>
                            <path d="M129.54556,46.3119594 C104.634112,42.5896822 74.5971588,47.7617222 53.6603512,60.169443 C52.7101138,60.7325795 52.3963065,61.9594114 52.959443,62.9096488 C53.5225795,63.8598862 54.7494114,64.1736935 55.6996488,63.610557 C75.815562,51.6893205 104.923245,46.6772909 128.95444,50.2680406 C130.046882,50.4312736 131.064808,49.6780012 131.228041,48.5855595 C131.391274,47.4931179 130.638001,46.4751924 129.54556,46.3119594 Z" id="Path" fill="#E2B420"/>
                        </g>
                    </g>
                </g>
            </g>
        </g>
        <g transform="translate(0.000000, -0.000000) scale(1 1)" id="Master/Hands/Phone">
            <g id="Master/Hands/Phone" stroke="none" stroke-width="1" fill="none" fill-rule="evenodd">
                <g id="base" transform="translate(170.000000, 85.000000)" fill-rule="nonzero">
                    <path d="M198.288013,122.311919 C198.42426,121.623109 198.911741,121.056198 199.572366,120.818295 C204.554953,119.02398 209.652357,117.566123 214.801062,116.461038 C215.046695,116.404457 215.298862,116.345414 215.628286,116.267575 C219.869539,115.265428 221.334087,115.012478 223.490284,115.146658 C226.535115,115.336137 229.091077,116.640261 231.245806,119.303232 C234.338077,123.131283 236.386581,128.221341 237.428949,133.918947 C238.028338,137.280738 237.382802,142.079109 235.682449,144.799603 C233.779906,147.885515 230.686981,150.62464 226.220111,153.610507 C225.422484,154.143679 224.589736,154.679595 223.628295,155.282431 C223.251826,155.518482 222.867077,155.757718 222.389478,156.053191 C222.220534,156.157711 221.426201,156.648369 221.211565,156.781238 C219.427163,157.884208 217.9231,158.886568 214.966203,160.911387 C214.642819,161.132861 214.642819,161.132861 214.318992,161.354596 C209.830636,164.427261 207.464215,165.948085 204.519544,167.531216 C199.820058,169.93092 195.373325,172.796302 191.246217,176.084271 C189.789428,177.24486 187.676597,175.959098 188.038013,174.131919 L198.288013,122.311919 Z" id="Path" fill="#f5da2d"/>
                    <path d="M211.172231,240.750502 C224.318662,238.467268 248.825546,230.922374 253.53903,226.038954 C258.14643,221.3263 259.856329,214.870655 259.78774,206.104845 C259.768112,203.596308 259.635595,201.35222 259.323201,197.413345 L259.22377,196.162265 C258.468014,187.874612 256.898898,179.705681 254.537294,171.750803 C251.797163,162.128754 247.531266,159.933641 235.751617,160.572939 C223.563209,161.376311 211.472289,163.060752 199.551088,165.614364 C198.516321,165.836019 197.833316,166.825382 197.99286,167.871527 L208.85286,239.081527 C209.021822,240.189427 210.06805,240.942273 211.172231,240.750502 Z" id="Path" fill="#f5da2d"/>
                    <path d="M254.567975,193.197239 C251.53808,193.597644 248.03133,194.020023 243.841266,194.494355 C240.734014,194.846109 237.577128,195.191034 232.751264,195.70983 C219.277066,197.158347 216.563979,197.456909 211.536,198.07494 C210.439681,198.209697 209.660182,199.207682 209.79494,200.304 C209.929697,201.400319 210.927682,202.179818 212.024,202.04506 C217.022401,201.430665 219.731723,201.132518 233.178812,199.686914 C238.011601,199.167375 241.17467,198.821773 244.291208,198.468969 C248.503991,197.992065 252.034016,197.566882 255.092025,197.162761 C256.187074,197.018049 256.957474,196.013024 256.812761,194.917975 C256.668049,193.822926 255.663024,193.052526 254.567975,193.197239 Z" id="Path" fill="#fc6e47"/>
                    <path d="M183.647477,216.285913 C176.27238,207.093596 168.897472,200.361278 161.188935,196.373611 C150.379212,190.769814 137.952009,187.160317 126.514028,186.743825 C112.868727,186.246957 101.213163,190.223087 92.8931004,199.200513 C91.0737687,201.167704 89.6227038,203.641503 88.2539879,206.962549 L82.4616924,188.122265 C82.0416595,186.756047 80.3655766,186.25868 79.2683185,187.174652 C75.4381812,190.371984 69.8999884,198.143202 63.0203997,209.383434 C58.3912695,216.946748 53.9799311,224.696071 49.5263216,232.818433 C48.3846545,234.904303 47.2115054,237.237315 46.0036188,239.813344 C43.031622,246.151645 39.9095444,253.816177 36.4681973,263.037132 C34.8344444,267.414708 33.1905431,271.971584 31.2494494,277.467067 C30.4469352,279.739087 27.439992,288.315947 26.754578,290.252779 C17.1392054,317.428141 11.3600226,347.211384 4.94812658,394.511341 C3.69030638,403.803944 2.66766035,417.602445 1.85170246,434.734048 C1.30183536,446.27889 0.878169094,483.64485 0.56472179,496.010318 C0.455025022,500.337846 0.36693523,504.35638 0.298470149,507.963066 C0.274501774,509.225701 0.254697173,510.346773 0.238808831,511.313422 C0.233244809,511.651938 0.230128051,511.848552 0.224744726,512.19707 C0.22094827,512.449065 0.22094827,512.449065 0.218194738,512.501586 C0.204363183,513.616318 1.10301649,514.528806 2.21786069,514.529999 L161.147861,514.7 C162.253265,514.7 163.15,513.805405 163.15,512.7 C163.15,470.141163 165.41429,389.746084 169.425958,370.947405 C172.645309,355.902062 178.526908,337.443709 185.166036,320.905071 C188.281494,313.124894 191.992255,304.707226 196.989543,293.89453 C198.49,293.662806 199.98042,293.369297 201.457,293.014714 C208.578424,291.25795 210.671832,290.707762 214.336265,289.521832 C228.537123,284.925971 237.062171,278.399724 238.579722,267.82408 C239.815719,259.225841 235.878203,247.630218 229.754423,241.756611 C225.363541,237.548681 219.265019,236.450175 211.163281,237.408854 C208.747,237.694773 206.393169,238.116367 202.984897,238.825162 C202.471087,238.932015 200.765702,239.290726 200.524895,239.34104 C200.18307,239.412462 199.872039,239.47693 199.58268,239.536226 C193.363043,229.466034 188.907959,222.842574 183.647477,216.285913 Z" id="Path" fill="#f5da2d"/>
                    <path d="M186.092337,256.94081 C173.884626,258.215242 166.841252,268.196252 170.391476,279.527942 C170.419872,279.619411 171.697036,284.031565 172.183195,285.500178 C173.505538,289.494772 174.896443,292.230829 176.827447,293.866207 C182.134799,298.368164 187.326545,299.233038 194.598316,297.441961 C195.670831,297.177795 196.326128,296.0942 196.061961,295.021684 C195.797795,293.949169 194.7142,293.293872 193.641684,293.558039 C187.535521,295.06202 183.659597,294.416343 179.413746,290.814804 C178.2142,289.798902 177.083209,287.574124 175.980541,284.243131 C175.523219,282.861632 174.260658,278.499923 174.21003,278.336885 C171.433661,269.475182 176.752794,261.937555 186.507663,260.91919 C187.606262,260.804501 188.403879,259.820937 188.28919,258.722337 C188.174501,257.623738 187.190937,256.826121 186.092337,256.94081 Z" id="Path" fill="#fc6e47"/>
                    <path d="M176.232218,262.778741 L176.225599,262.779914 C165.900548,264.591326 135.760604,266.109217 122.3471,265.80954 C120.975512,265.780113 119.592223,265.76465 117.615869,265.752684 C117.27926,265.750645 117.009487,265.749145 116.402385,265.745866 C103.273546,265.674957 97.7082324,265.207538 91.5926127,262.922789 C83.3023441,259.825607 77.9588039,253.654973 75.6493036,243.451343 C73.17576,232.518494 71.4086788,220.741722 69.8144322,205.839536 C69.2198732,200.281907 68.9105938,197.056892 67.8332076,185.473699 C67.612872,183.104827 67.4564712,181.43574 67.2989278,179.778763 C65.8929297,164.948312 64.6236078,148.572835 62.8050456,122.837572 C62.977358,125.276039 61.0885583,98.380368 60.5844093,91.3794013 C59.8823547,81.6301788 59.280397,73.6601097 58.6964108,66.4800061 C57.2447756,48.3934164 57.0303859,30.304287 59.4479415,23.0517982 C62.3907835,13.9973799 70.3051423,7.46219897 79.7033191,6.29212729 C103.592776,2.70870878 133.615969,-0.00115940172 149.541922,0.330439415 C150.966881,0.360314656 152.226429,0.373126052 154.961925,0.391324166 C163.026693,0.444975708 166.783422,0.541236832 171.532576,0.930363541 C186.574746,2.16285895 197.078452,6.02075615 203.117884,14.3142232 C206.410186,18.8444739 208.357339,25.3857318 209.573992,34.2039471 C209.8786,36.4117213 210.132935,38.7189021 210.379545,41.3951015 C210.474079,42.420982 210.56345,43.452888 210.675109,44.7904371 C210.654497,44.5435294 210.880163,47.264582 210.939288,47.958191 C211.013179,48.8250282 211.077597,49.5467287 211.14165,50.2174321 C211.190412,50.7495501 211.190412,50.7495501 211.239167,51.2821836 C213.248386,73.2376938 213.307264,73.8708707 214.137298,82.0732005 C214.702691,87.6603791 215.260653,92.8281824 215.836172,97.7652243 C221.064074,141.992592 224.197849,179.300002 225.36893,215.48458 C225.903372,231.814758 223.467011,242.919485 214.998845,250.190855 C210.981161,253.62205 204.438026,256.373641 195.854463,258.690105 C192.320571,259.643803 188.58983,260.482929 184.542411,261.27158 C183.019046,261.568412 181.520591,261.844984 179.827256,262.145829 C179.132054,262.269341 176.722573,262.691014 176.232218,262.778741 Z" id="Path" fill="#1A4E66"/>
                    <path d="M171.79,254.43 C159.933944,255.745924 148.007827,256.327034 136.08,256.17 C118.67,255.79 104.02,258.11 99.29,237.22 C95.08,218.62 93.53,194.53 91.72,175.47 C88.78,144.47 86.42,101.47 83.89,70.31 C83.21,61.91 81.24,33.04 84.49,25.47 C87.74,17.9 95.71,15.55 101.44,14.47 C115.21,11.81 131.99,9.74 147.74,10.07 C162.07,10.37 185.51,8.88 195.07,22.07 C200.69,29.81 201.16,48.71 202.07,57.86 C203.43,72.09 204.7,86.76 206.41,101.2 C210.61,136.74 213.91,177.2 215.08,213.2 C215.41,223.2 214.78,236.06 206.27,243.36 C198.32,250.15 178.66,253.59 171.79,254.43 Z" id="Path" fill="#FFF"/>
                    <path d="M76.7881757,12.3375179 C71.8904036,15.6130191 70.3166479,23.9603027 70.5390231,37.137083 C70.5954498,40.4806288 70.7552664,43.7853813 71.0477839,48.3769931 C71.0892379,49.027692 71.2655284,51.7330203 71.3080981,52.4061529 C71.3988993,53.8419415 71.4597356,54.9071252 71.5020519,55.8405736 C71.89653,64.3846251 72.4931522,74.2960025 73.4043509,87.9685221 C73.5325794,89.8925876 73.6679944,91.9067457 73.8229602,94.1976211 C73.9250633,95.707023 74.5346073,104.677899 74.7045316,107.197838 C75.0318729,112.052236 75.2830827,115.857886 75.5040212,119.336762 C77.5619528,152.069005 80.673107,186.986615 84.8415089,225.67425 C85.9837223,236.363885 88.3723137,246.376881 91.9824828,253.376751 C92.4887904,254.358447 93.6950554,254.743825 94.676751,254.237517 C95.6584467,253.73121 96.0438249,252.524945 95.5375172,251.543249 C92.1978287,245.067822 89.9131707,235.490516 88.8186794,225.247505 C84.6560199,186.613159 81.5499789,151.752935 79.4960588,119.084504 C79.274655,115.598295 79.0231302,111.787873 78.6954684,106.928722 C78.5254596,104.40753 77.9158759,95.4360699 77.8138398,93.9276589 C77.6589576,91.6380173 77.5236288,89.6251426 77.3954974,87.702534 C76.4859703,74.055097 75.890723,64.1665599 75.4978717,55.6577583 C75.4543423,54.6975344 75.3922991,53.6112202 75.3001231,52.1536921 C75.2572482,51.4757342 75.0808765,48.7691599 75.0396913,48.122681 C74.7508134,43.5881975 74.5936002,40.3372797 74.5384536,37.0695874 C74.3408123,25.358406 75.75865,17.8381195 79.0118243,15.6624821 C79.9299878,15.0484385 80.1765257,13.8063392 79.5624821,12.8881757 C78.9484385,11.9700122 77.7063392,11.7234743 76.7881757,12.3375179 Z" id="Path" fill="#0D323F"/>
                    <path d="M51.2333477,296.359456 C49.7183993,296.324108 48.791554,294.682419 49.5439143,293.367021 C52.1390052,288.829864 55.0915964,284.029122 58.7512059,278.335795 C60.2541149,275.997689 61.8126785,273.605596 63.8856071,270.447472 C64.547735,269.438715 66.9751976,265.746037 66.782301,266.039591 C67.9415576,264.275414 68.8062492,262.956438 69.6448847,261.671681 C71.7856,258.392189 73.5346642,255.672648 75.146124,253.106617 C87.6808035,233.139977 100.731275,217.213471 114.800292,206.242718 C122.85813,199.960527 132.413943,201.578929 138.462049,210.133965 C141.631112,214.607936 141.77772,219.678492 139.67312,225.715111 C138.845954,228.087666 137.829269,230.292249 136.025898,233.830576 C133.697807,238.398435 133.704648,238.384748 133.041039,239.894547 C130.629865,245.382046 129.080954,254.831478 128.738559,263.635919 C128.595668,267.397505 129.033892,271.686435 129.989018,276.567164 C130.730002,280.35362 131.730072,284.289617 133.133681,289.167282 C133.427207,290.187312 133.730879,291.224064 134.115086,292.522178 C134.215955,292.862982 134.874137,295.080426 135.058148,295.70369 C135.44199,297.003799 134.448567,298.301076 133.093348,298.270022 L51.2333477,296.359456 Z" id="Path" fill="#f5da2d"/>
                    <path d="M68.2053619,81.3938712 C67.823324,75.7940001 67.5363258,70.238714 67.3488206,64.7813244 C67.3108921,63.6774063 66.3852425,62.813251 65.2813244,62.8511794 C64.1774063,62.8891079 63.313251,63.8147575 63.3511794,64.9186756 C63.540249,70.4215949 63.8295694,76.0218319 64.2146381,81.6661288 C64.28982,82.7681367 65.2441209,83.6005437 66.3461288,83.5253619 C67.4481367,83.45018 68.2805437,82.4958791 68.2053619,81.3938712 Z" id="Path" fill="#0D323F"/>
                    <path d="M70.2314934,108.935734 C69.7363296,103.584155 69.3505696,97.901614 69.0576894,91.8138912 C69.00461,90.7105978 68.0671846,89.8592312 66.9638912,89.9123106 C65.8605978,89.96539 65.0092312,90.9028154 65.0623106,92.0061088 C65.3578878,98.1498923 65.747592,103.890535 66.2485066,109.304266 C66.3502741,110.404138 67.3243949,111.213261 68.4242663,111.111493 C69.5241377,111.009726 70.3332609,110.035605 70.2314934,108.935734 Z" id="Path" fill="#0D323F"/>
                    <path d="M128.299043,267.779977 C128.953199,274.635526 130.571305,280.016487 133.810201,287.790092 C133.98855,288.218145 134.169496,288.64938 134.414513,289.231108 C134.564421,289.586901 134.564421,289.586901 134.713376,289.940325 C134.861788,290.292607 134.921969,290.435575 135.008986,290.642689 C135.480178,291.7642 135.821522,292.590095 136.143405,293.393678 C136.554127,294.419047 137.718309,294.917316 138.743678,294.506595 C139.769047,294.095873 140.267316,292.931691 139.856595,291.906322 C139.524842,291.0781 139.175836,290.233667 138.69673,289.093319 C138.609074,288.884684 138.548402,288.74055 138.39949,288.387084 C138.25035,288.03322 138.25035,288.03322 138.100878,287.678462 C137.857686,287.101066 137.678532,286.6741 137.502526,286.251674 C134.404226,278.815509 132.889609,273.778698 132.280957,267.400023 C132.176035,266.300448 131.199598,265.494122 130.100023,265.599043 C129.000448,265.703965 128.194122,266.680402 128.299043,267.779977 Z" id="Path" fill="#fc6e47"/>
                    <path d="M51.3060857,290.422979 C53.8469498,285.980629 56.7480184,281.263577 60.347445,275.66429 C61.8464418,273.332443 63.4032637,270.943635 65.4765595,267.786066 C66.1393545,266.776649 68.5598219,263.095978 68.3843614,263.362901 C69.5499738,261.589687 70.4205742,260.262114 71.2653047,258.968326 C73.4260423,255.658944 75.193381,252.910917 76.823931,250.313296 C77.411173,249.377763 77.128828,248.143311 76.1932957,247.556069 C75.2577634,246.968827 74.023311,247.251172 73.436069,248.186704 C71.8199126,250.761395 70.0647517,253.490487 67.9159948,256.78152 C67.0739365,258.071215 66.2053851,259.395663 65.041849,261.165718 C65.2180281,260.897702 62.7966249,264.579796 62.1329222,265.590596 C60.0531461,268.758034 58.4899299,271.156653 56.9826996,273.501309 C53.3489543,279.153982 50.4137319,283.926567 47.8339143,288.437021 C47.2855074,289.395835 47.6182078,290.617679 48.5770214,291.166086 C49.5358351,291.714493 50.7576788,291.381792 51.3060857,290.422979 Z" id="Path" fill="#fc6e47"/>
                    <path d="M134.373182,348.86945 C136.42131,349.338884 138.427675,349.974816 140.372268,350.770903 C141.394494,351.189387 142.56242,350.699957 142.980903,349.677732 C143.399387,348.655506 142.909957,347.48758 141.887732,347.069097 C139.741574,346.190493 137.527242,345.488644 135.266818,344.97055 C134.190166,344.72378 133.117321,345.396531 132.87055,346.473182 C132.62378,347.549834 133.296531,348.622679 134.373182,348.86945 Z" id="Path" fill="#fc6e47"/>
                </g>
                <g id="Phone/Wear" transform="scale(1 1)">
                    <g id="Phone/Wear/Phone" stroke="none" stroke-width="1" fill="none" fill-rule="evenodd">
                        <g id="clothing" transform="translate(102.000000, 465.000000)" fill-rule="nonzero">
                            <path d="M299.66,46 C298.61,37.72 296.42,20.5 288.79,12.43 C280.09,3.24 263.92,1.43 250.79,0.96 C246.163333,0.78 241.48,0.62 236.74,0.48 C236.07,4.48 235.47,9.43 234.93,15 C237.038202,15.446944 238.974444,16.4879344 240.51,18 C243.64,21.41 242.93,27.87 242.51,32.14 C242.22,34.77 241.84,37.43 241.51,40.01 C240.91,44.26 240.28,48.65 240.04,53.09 C239.69,59.4 239.75,65.77 239.8,71.93 C239.8,74.93 239.85,77.93 239.8,80.93 C239.8,81.69 239.8,82.47 239.8,83.26 C239.8,87.4 239.88,91.68 238.13,95.07 C238.050032,95.2136864 237.992692,95.3688418 237.96,95.53 C237.624488,96.9761116 237.148909,98.3861028 236.54,99.74 C234.15,105.01 229.37,106.48 222.43,107.14 C217.105734,107.531493 211.762707,107.60162 206.43,107.35 C202.69,107.24 198.81,107.13 194.98,107.26 C175.04,107.9 154.77,107.5 135.18,107.12 L125.69,106.94 L123,106.94 C120.26,106.94 117.46,107.01 114.73,107.07 C104.59,107.3 94.11,107.53 84.73,104.71 C84.5505404,104.659837 84.3660882,104.629654 84.18,104.62 C67.82,104.34 53.85,103.09 48.6,90.62 C46.32,85.19 48.06,69.32 53.15,49.2 C58.24,29.08 63.68,16.04 65.48,14.75 C68.1144833,13.4182746 71.028103,12.7327171 73.98,12.75 C74.5,9.00333333 75.0433333,5.20666667 75.61,1.36 L74.2,1.36 L62.89,1.46 L58.02,1.46 C46.69,1.46 31.15,1.46 21.96,5.78 C5.63,13.47 3.59,32.78 2.1,46.9 C1.92,48.6 1.75,50.22 1.56,51.74 C-0.33,66.87 0.56,94.15 2.37,113.26 C3.2,121.93 9.62,129.06 19.55,132.34 C30.49,135.94 64.47,136.1 68.31,136.1 C83.83,136.1 101.01,136.3 119.19,136.48 C139.41,136.69 160.19,136.89 179.1,136.89 C185.3,136.89 191.3,136.89 197.04,136.82 L205.12,136.76 C226.53,136.6 248.67,136.43 269.59,134.16 C294.81,131.42 296.59,114.74 298.09,100.02 C298.27,98.29 298.45,96.56 298.67,94.84 C299.87,85.27 301.2,58.05 299.8,47.43 L299.66,46 Z" id="Path" fill="#1A4E66"/>
                            <path d="M290.32,49.8 C289.96,44.03 287.72,27.45 280.72,20.41 C273.18,12.82 258.72,11.41 247.38,10.97 C243.44,10.82 239.44,10.69 235.38,10.57 C233.31,29.41 232.12,57.71 231.55,81.5 C214.64,92.25 185.18,99.13 151.74,98.67 C116,98.17 85.02,89.42 69.16,76.93 C69.87,57.29 71.05,34.34 72.92,20.51 C73.3533333,17.35 73.7933333,14.15 74.24,10.91 L70.68,10.91 C60.28,11 38.87,10.07 29.68,14.2 C13.99,21.2 13.68,40.81 12.15,52.7 C10.45,65.76 11.38,79.86 13.23,91.48 C14,96.33 15.98,103.11 24.23,106.34 C32.48,109.57 65.33,110 74.88,110 C110.26,110.08 159.05,111.12 194.35,110.84 C216.05,110.67 243.35,111.06 264.77,108.84 C288.77,106.38 287.38,94.03 289.28,79.59 C290.460469,69.7066591 290.808359,59.7416014 290.32,49.8 L290.32,49.8 Z" id="Path" fill="#FFF"/>
                            <path d="M69.1,79.47 C69.59,65.2 70.34,48.85 71.42,35.39 C68.7563902,37.0906582 66.2646417,39.0465469 63.98,41.23 C58.69,46.38 55.98,51.96 55.89,57.79 C55.79,65.71 60.59,73.11 69.1,79.47 Z" id="Path" fill="#0D323F"/>
                            <path d="M233.3,37.27 C232.43,52.47 231.85,69.16 231.52,83.9 C234.785138,81.9610828 237.821018,79.6598525 240.57,77.04 C245.87,71.89 248.57,66.31 248.67,60.47 C248.78,51.91 243.15,44 233.3,37.27 Z" id="Path" fill="#0D323F"/>
                            <path d="M8.98324149,112.552581 C12.2443109,117.891118 21.5882603,120.193758 36.6286966,121.019265 C41.0818906,121.263683 44.3266784,121.334127 52.0740071,121.421759 C54.7248236,121.451743 56.0894853,121.472697 57.4252902,121.509252 C67.0666222,121.812792 78.2279351,122.018447 93.8530308,122.214403 C96.1765646,122.243543 98.6033167,122.272648 101.491218,122.306261 C102.611902,122.319305 103.750251,122.332434 105.282604,122.350022 C107.168219,122.371644 108.164647,122.383073 109.041043,122.393162 C118.565454,122.502804 124.016347,122.572418 129.44785,122.659742 C166.586993,123.243516 206.304972,122.924338 250.379671,121.829383 C262.482238,121.520959 273.972763,119.857161 282.15117,116.695453 C283.181431,116.297162 283.693744,115.139092 283.295453,114.10883 C282.897162,113.078569 281.739092,112.566256 280.70883,112.964547 C273.041873,115.928533 261.961594,117.532929 250.279048,117.830649 C206.256013,118.92432 166.590478,119.243076 129.511433,118.660247 C124.072776,118.572809 118.617327,118.503136 109.087086,118.393427 C108.210592,118.383337 107.214063,118.371907 105.328511,118.350286 C103.796355,118.3327 102.6582,118.319572 101.537771,118.306532 C98.6509788,118.272932 96.2253711,118.243841 93.9031914,118.214718 C78.3014666,118.019054 67.1611724,117.813787 57.5429318,117.51099 C56.1704505,117.473415 54.7913794,117.45224 52.1192491,117.422015 C44.4313526,117.335055 41.2228372,117.265398 36.8479102,117.025277 C23.2822396,116.280713 14.6481092,114.152995 12.3967585,110.467419 C11.8209569,109.524802 10.5900356,109.22744 9.64741888,109.803241 C8.70480218,110.379043 8.40743984,111.609964 8.98324149,112.552581 Z" id="Path" fill="#0D323F"/>
                            <path d="M61.76,126.34 C56.3971983,126.34 49.2316966,126.194425 46.7328633,126.053187 C45.630054,125.990854 44.6855198,126.834327 44.6231871,127.937137 C44.5608544,129.039946 45.4043273,129.98448 46.5071367,130.046813 C49.0939906,130.193026 56.3283573,130.34 61.76,130.34 C62.8645695,130.34 63.76,129.444569 63.76,128.34 C63.76,127.235431 62.8645695,126.34 61.76,126.34 Z" id="Path" fill="#0D323F"/>
                            <path d="M88.4405452,126.130612 C83.5489484,126.251605 78.929924,126.323777 72.624852,126.340007 C71.5202862,126.34285 70.6271635,127.240582 70.6299999,128.345148 C70.6328498,129.449714 71.5305821,130.342837 72.635148,130.34 C78.9727879,130.32368 83.6203849,130.251062 88.5394548,130.129388 C89.6436866,130.102075 90.5167016,129.184777 90.4893885,128.080545 C90.4620753,126.976313 89.5447769,126.103298 88.4405452,126.130612 Z" id="Path" fill="#0D323F"/>
                            <path d="M237.293783,45.6316661 C242.231264,50.3792446 244.732771,55.3933483 244.681031,60.4294534 C244.411193,80.6764095 202.929636,97.3860754 151.808004,96.6701961 C100.66065,95.9539565 59.6400486,78.110434 59.8984465,57.8454999 C59.9696475,52.6754958 62.7457762,47.5992054 68.0832433,42.8896757 C68.9114913,42.1588686 68.9904828,40.8950048 68.2596757,40.0667567 C67.5288686,39.2385087 66.2650048,39.1595172 65.4367567,39.8903243 C59.3148407,45.2920149 55.9871526,51.376859 55.8972524,57.7924592 C55.6001112,81.2170355 98.60942,99.9256244 151.751996,100.669804 C204.870836,101.413651 248.368698,83.8917742 248.681757,60.4766513 C248.744987,54.2248377 245.742256,48.2060633 240.066217,42.7483339 C239.270007,41.9827471 238.003921,42.0075723 237.238334,42.8037826 C236.472747,43.5999928 236.497572,44.8660794 237.293783,45.6316661 Z" id="Path" fill="#0D323F"/>
                        </g>
                    </g>
                </g>
                <g id="Phone/Item" transform="scale(1 1)">
                    <g id="Phone/Item/Empty" stroke="none" stroke-width="1" fill="none" fill-rule="evenodd" fill-opacity="0"/>
                </g>
                <g id="Phone/Effect" transform="scale(1 1)">
                    <g id="Phone/Effect/Glitter" stroke="none" stroke-width="1" fill="none" fill-rule="evenodd">
                        <g id="addons" transform="translate(163.000000, 11.000000)" fill-rule="nonzero">
                            <path d="M111.44156,43.9289762 C111.538102,46.3719182 111.556228,48.3110105 111.552332,52.6635361 C111.551991,53.0442639 111.551991,53.0442639 111.551729,53.4253754 C111.549705,56.8908363 111.570574,58.9202124 111.651319,61.1426164 C111.691424,62.2464576 112.618775,63.1087862 113.722616,63.0686813 C114.826458,63.0285763 115.688786,62.1012247 115.648681,60.9973836 C115.570197,58.8371984 115.549732,56.8470275 115.551728,53.427711 C115.551989,53.0476374 115.551989,53.0476374 115.55233,52.6671168 C115.556274,48.2611079 115.537807,46.285428 115.43844,43.7710238 C115.394823,42.6673159 114.464732,41.8079426 113.361024,41.8515599 C112.257316,41.8951772 111.397943,42.8252682 111.44156,43.9289762 Z" id="Path" fill="#FCD400"/>
                            <path d="M107.112188,54.107092 C108.259076,54.1690063 109.386935,54.2097386 111.076735,54.2566376 C111.294616,54.2626847 111.470291,54.2674638 111.862766,54.2780699 C115.3406,54.3720655 116.870828,54.4368923 118.711298,54.6020004 C119.81145,54.7006947 120.783306,53.8888533 120.882,52.7887019 C120.980695,51.6885504 120.168853,50.7166939 119.068702,50.6179996 C117.117025,50.4429151 115.532712,50.375797 111.970834,50.2795301 C111.57882,50.2689362 111.404289,50.2641882 111.187709,50.2581773 C109.530077,50.212171 108.431847,50.1725088 107.327812,50.112908 C106.224849,50.053365 105.282451,50.8992244 105.222908,52.0021878 C105.163365,53.1051513 106.009224,54.047549 107.112188,54.107092 Z" id="Path" fill="#FCD400"/>
                            <path d="M244.600149,149.728393 C246.071348,149.669388 247.251172,149.676607 249.902967,149.734521 C250.319523,149.74362 250.505881,149.747621 250.737986,149.752344 C252.84278,149.795176 254.222462,149.794304 255.671548,149.727904 C256.77496,149.677343 257.628464,148.741864 257.577904,147.638452 C257.527343,146.53504 256.591864,145.681536 255.488452,145.732096 C254.147888,145.793524 252.842828,145.794349 250.819368,145.753172 C250.589918,145.748503 250.405889,145.744552 249.990304,145.735475 C247.256586,145.675771 246.020572,145.668209 244.439851,145.731607 C243.336168,145.775872 242.477341,146.706467 242.521607,147.810149 C242.565872,148.913832 243.496467,149.772659 244.600149,149.728393 Z" id="Path" fill="#EAF3F3"/>
                            <path d="M251.909535,153.803117 C251.931557,152.781849 251.942614,151.756101 251.950478,150.299322 C251.951824,150.050048 251.952798,149.85017 251.954904,149.402102 C251.970801,146.019899 251.993154,144.536287 252.077774,142.744339 C252.129876,141.640999 251.277679,140.704328 250.174339,140.652226 C249.070999,140.600124 248.134328,141.452321 248.082226,142.555661 C247.994018,144.423596 247.971115,145.943733 247.954948,149.383301 C247.952844,149.830909 247.951875,150.029699 247.950536,150.277729 C247.942779,151.714753 247.931925,152.721661 247.910465,153.716883 C247.886652,154.821196 248.762571,155.735723 249.866883,155.759535 C250.971196,155.783348 251.885723,154.907429 251.909535,153.803117 Z" id="Path" fill="#EAF3F3"/>
                            <path d="M228.702506,20.0100832 C228.764947,21.2563015 228.837913,22.4244694 228.968097,24.3454305 C228.986497,24.6166398 228.986497,24.6166398 229.004917,24.8875607 C229.323806,29.577911 229.43,31.6722663 229.43,34.3 C229.43,35.4045695 230.325431,36.3 231.43,36.3 C232.534569,36.3 233.43,35.4045695 233.43,34.3 C233.43,31.5520782 233.320688,29.3962315 232.995704,24.616234 C232.977293,24.3454466 232.977293,24.3454466 232.958943,24.0749695 C232.83024,22.1758612 232.758459,21.0266725 232.697494,19.8099168 C232.64222,18.7067312 231.703102,17.8572313 230.599917,17.9125057 C229.496731,17.9677802 228.647231,18.9068976 228.702506,20.0100832 Z" id="Path" fill="#90BFFF"/>
                            <path d="M225.560897,29.1979622 C227.647636,29.4279523 229.289643,29.3966588 232.988025,29.1713802 C233.85478,29.1185838 234.248921,29.0955967 234.730626,29.0711806 C235.663138,29.0239146 236.442589,29 237.18,29 C238.284569,29 239.18,28.1045695 239.18,27 C239.18,25.8954305 238.284569,25 237.18,25 C236.36668,25 235.522875,25.0258891 234.528139,25.0763091 C234.028403,25.1016391 233.62506,25.1251628 232.744825,25.1787803 C229.275785,25.3900891 227.782138,25.4185551 225.999103,25.2220378 C224.901182,25.1010304 223.913045,25.8929754 223.792038,26.9908966 C223.67103,28.0888178 224.462975,29.0769548 225.560897,29.1979622 Z" id="Path" fill="#90BFFF"/>
                            <path d="M46.6525057,203.450083 C46.7149467,204.696302 46.7879129,205.864469 46.9180971,207.78543 C46.9364971,208.05664 46.9364971,208.05664 46.9549169,208.327561 C47.2738057,213.017911 47.38,215.112266 47.38,217.74 C47.38,218.844569 48.2754305,219.74 49.38,219.74 C50.4845695,219.74 51.38,218.844569 51.38,217.74 C51.38,214.992078 51.2706877,212.836232 50.945704,208.056234 C50.9272933,207.785447 50.9272933,207.785447 50.9089429,207.51497 C50.7802398,205.615861 50.7084591,204.466672 50.6474943,203.249917 C50.5922198,202.146731 49.6531024,201.297231 48.5499168,201.352506 C47.4467312,201.40778 46.5972313,202.346898 46.6525057,203.450083 Z" id="Path" fill="#90BFFF"/>
                            <path d="M43.5108966,212.637962 C45.5977007,212.867959 47.244061,212.83661 50.9423925,212.611382 C51.4516133,212.58037 51.6844005,212.566402 51.9690563,212.550069 C53.2688444,212.47549 54.2145074,212.44 55.13,212.44 C56.2345695,212.44 57.13,211.544569 57.13,210.44 C57.13,209.335431 56.2345695,208.44 55.13,208.44 C54.1234843,208.44 53.1094892,208.478055 51.7399233,208.556637 C51.4490649,208.573326 51.2131005,208.587485 50.6992425,208.618779 C47.2302159,208.830043 45.7322405,208.858566 43.9491034,208.662038 C42.8511822,208.54103 41.8630452,209.332975 41.7420378,210.430897 C41.6210304,211.528818 42.4129754,212.516955 43.5108966,212.637962 Z" id="Path" fill="#90BFFF"/>
                            <path d="M255.772447,102.353654 C255.55781,104.816326 251.943533,104.775807 251.784161,102.308942 C251.617542,99.7299092 250.922088,97.2127358 249.748104,94.9275696 C249.364763,94.1952888 247.664378,93.5110777 244.340725,93.2119489 C241.780815,92.981557 241.982332,89.1788097 244.552254,89.2202601 C247.362591,89.2655881 249.652839,88.3175418 250.593514,86.6777221 C251.125785,85.7462467 251.369627,84.946111 251.473804,83.9498572 C251.516785,83.5388265 251.534357,83.1787272 251.558258,82.370998 C251.575982,81.7720615 251.584498,81.5304113 251.602789,81.1844205 C251.726737,78.8397363 255.090784,78.5899131 255.559708,80.8905691 C255.629203,81.2315305 255.689475,81.5461566 255.791064,82.0904369 C255.901075,82.6798349 255.907771,82.7155477 255.950688,82.9390521 C256.877334,87.764844 258.034455,89.2513865 262.154198,89.2177302 C262.483377,89.1925666 262.818671,89.18 263.16,89.18 C265.738944,89.18 265.86685,93.003162 263.293672,93.175528 C262.969217,93.1972617 262.652693,93.210647 262.343899,93.215702 C258.471364,93.566676 256.270648,96.6374495 255.772447,102.353654 Z M263.026328,89.184472 C262.74715,89.203173 262.478299,89.2139781 262.219606,89.2170713 C262.526634,89.2134001 262.799602,89.2643942 263.037914,89.3574252 L263.026328,89.184472 Z M262.407979,93.2101551 C262.650754,93.1901239 262.901405,93.18 263.16,93.18 L263.16,93.0173952 C262.942695,93.1190805 262.692181,93.1867058 262.407979,93.2101551 Z M253.791832,89.1066953 C253.229612,89.9522421 252.517454,90.6675972 251.68926,91.2526583 C252.386248,91.7588303 252.921783,92.365507 253.298949,93.0860296 C253.521309,93.5188305 253.729471,93.9580175 253.923238,94.4028799 C254.521463,93.3546713 255.238309,92.4490113 256.072908,91.6999255 C255.139805,91.0489066 254.395685,90.1860733 253.791832,89.1066953 Z" id="Path" fill="#FCD400"/>
                            <path d="M27.86,145.65 C30.4404813,145.65 30.56621,149.476283 27.9912951,149.645686 C27.6721355,149.666683 27.360663,149.679635 27.0566861,149.684558 C23.1757199,150.03025 20.9711785,153.101364 20.4724468,158.823654 C20.2579807,161.28437 16.6475182,161.246754 16.4843676,158.782103 C16.3135527,156.201671 15.6177601,153.683272 14.4481042,151.39757 C14.0648845,150.665522 12.3643007,149.979386 9.03578641,149.671498 C6.47550109,149.434672 6.68796869,145.630618 9.25870243,145.680375 C12.0613233,145.734619 14.3524016,144.788304 15.2935137,143.147722 C15.8299673,142.208928 16.073705,141.401345 16.176652,140.38815 C16.217758,139.983587 16.2347678,139.629788 16.2582617,138.83733 C16.275944,138.240901 16.2845026,137.998808 16.3028134,137.653955 C16.4273197,135.309085 19.791861,135.060321 20.2598733,137.361382 C20.3292545,137.702506 20.3891301,138.015565 20.4911397,138.56272 C20.5951388,139.120547 20.6019758,139.157067 20.6426709,139.369812 C21.5735969,144.236478 22.724414,145.720624 26.8698899,145.686541 C27.1940309,145.662171 27.5240933,145.65 27.86,145.65 Z M27.7287049,145.654314 C27.4538939,145.672394 27.1890823,145.682863 26.9341096,145.685894 C27.2357041,145.682308 27.5044174,145.731446 27.7396938,145.821346 L27.7287049,145.654314 Z M27.1196025,149.679204 C27.3587528,149.659804 27.6055311,149.65 27.86,149.65 L27.86,149.493016 C27.6453302,149.591312 27.3986793,149.656565 27.1196025,149.679204 Z M18.4914986,145.577181 C17.9291936,146.422657 17.2168831,147.137894 16.3887372,147.722568 C17.0866019,148.229672 17.6226452,148.837194 18.0003943,149.558849 C18.2217784,149.991435 18.4290927,150.430329 18.6221443,150.874834 C19.2205665,149.825838 19.9377328,148.919556 20.7727627,148.170032 C19.8393063,147.51954 19.0953112,146.657052 18.4914986,145.577181 Z" id="Path" fill="#EAF3F3"/>
                            <path d="M145.61,26.38 L145.61,25.79 C145.61,24.6854305 144.714569,23.79 143.61,23.79 C142.505431,23.79 141.61,24.6854305 141.61,25.79 L141.61,26.38 C141.61,27.4845695 142.505431,28.38 143.61,28.38 C144.714569,28.38 145.61,27.4845695 145.61,26.38 Z" id="Path" fill="#90BFFF"/>
                            <path d="M291.22,128.86 L291.22,128.27 C291.22,127.165431 290.324569,126.27 289.22,126.27 C288.115431,126.27 287.22,127.165431 287.22,128.27 L287.22,128.86 C287.22,129.964569 288.115431,130.86 289.22,130.86 C290.324569,130.86 291.22,129.964569 291.22,128.86 Z" id="Path" fill="#90BFFF"/>
                            <path d="M284.63,56.52 L284.63,55.94 C284.63,54.8354305 283.734569,53.94 282.63,53.94 C281.525431,53.94 280.63,54.8354305 280.63,55.94 L280.63,56.52 C280.63,57.6245695 281.525431,58.52 282.63,58.52 C283.734569,58.52 284.63,57.6245695 284.63,56.52 Z" id="Path" fill="#EAF3F3"/>
                            <path d="M299.27,75.84 L299.27,75.25 C299.27,74.1454305 298.374569,73.25 297.27,73.25 C296.165431,73.25 295.27,74.1454305 295.27,75.25 L295.27,75.84 C295.27,76.9445695 296.165431,77.84 297.27,77.84 C298.374569,77.84 299.27,76.9445695 299.27,75.84 Z" id="Path" fill="#4E6AF0"/>
                            <path d="M271.75,12.33 L271.75,11.74 C271.75,10.6354305 270.854569,9.74 269.75,9.74 C268.645431,9.74 267.75,10.6354305 267.75,11.74 L267.75,12.33 C267.75,13.4345695 268.645431,14.33 269.75,14.33 C270.854569,14.33 271.75,13.4345695 271.75,12.33 Z" id="Path" fill="#FCD400"/>
                            <path d="M4.47,171.79 L4.47,171.21 C4.47,170.105431 3.5745695,169.21 2.47,169.21 C1.3654305,169.21 0.47,170.105431 0.47,171.21 L0.47,171.79 C0.47,172.894569 1.3654305,173.79 2.47,173.79 C3.5745695,173.79 4.47,172.894569 4.47,171.79 Z" id="Path" fill="#FCD400"/>
                            <path d="M73.61,61.79 L73.61,61.5 C73.61,60.3954305 72.7145695,59.5 71.61,59.5 C70.5054305,59.5 69.61,60.3954305 69.61,61.5 L69.61,61.79 C69.61,62.8945695 70.5054305,63.79 71.61,63.79 C72.7145695,63.79 73.61,62.8945695 73.61,61.79 Z" id="Path" fill="#EAF3F3"/>
                            <path d="M85.61,13.21 L85.61,12.91 C85.61,11.8054305 84.7145695,10.91 83.61,10.91 C82.5054305,10.91 81.61,11.8054305 81.61,12.91 L81.61,13.21 C81.61,14.3145695 82.5054305,15.21 83.61,15.21 C84.7145695,15.21 85.61,14.3145695 85.61,13.21 Z" id="Path" fill="#4E6AF0"/>
                            <path d="M207.07,31.94 L207.07,31.06 C207.07,29.9554305 206.174569,29.06 205.07,29.06 C203.965431,29.06 203.07,29.9554305 203.07,31.06 L203.07,31.94 C203.07,33.0445695 203.965431,33.94 205.07,33.94 C206.174569,33.94 207.07,33.0445695 207.07,31.94 Z" id="Path" fill="#EAF3F3"/>
                            <path d="M185.12,3.25 L185.12,2.67 C185.12,1.5654305 184.224569,0.67 183.12,0.67 C182.015431,0.67 181.12,1.5654305 181.12,2.67 L181.12,3.25 C181.12,4.3545695 182.015431,5.25 183.12,5.25 C184.224569,5.25 185.12,4.3545695 185.12,3.25 Z" id="Path" fill="#FCD400"/>
                            <path d="M275,203.45 L275,202.86 C275,201.755431 274.104569,200.86 273,200.86 C271.895431,200.86 271,201.755431 271,202.86 L271,203.45 C271,204.554569 271.895431,205.45 273,205.45 C274.104569,205.45 275,204.554569 275,203.45 Z" id="Path" fill="#FCD400"/>
                            <path d="M32.12,99.2 L32.12,98.76 C32.12,97.6554305 31.2245695,96.76 30.12,96.76 C29.0154305,96.76 28.12,97.6554305 28.12,98.76 L28.12,99.2 C28.12,100.304569 29.0154305,101.2 30.12,101.2 C31.2245695,101.2 32.12,100.304569 32.12,99.2 Z" id="Path" fill="#90BFFF"/>
                            <path d="M260.05,174.74 L260.05,174.3 C260.05,173.195431 259.154569,172.3 258.05,172.3 C256.945431,172.3 256.05,173.195431 256.05,174.3 L256.05,174.74 C256.05,175.844569 256.945431,176.74 258.05,176.74 C259.154569,176.74 260.05,175.844569 260.05,174.74 Z" id="Path" fill="#4E6AF0"/>
                            <path d="M51.43,158.94 L51.43,158.51 C51.43,157.405431 50.5345695,156.51 49.43,156.51 C48.3254305,156.51 47.43,157.405431 47.43,158.51 L47.43,158.94 C47.43,160.044569 48.3254305,160.94 49.43,160.94 C50.5345695,160.94 51.43,160.044569 51.43,158.94 Z" id="Path" fill="#4E6AF0"/>
                            <path d="M235.46,124 L235.46,123.56 C235.46,122.455431 234.564569,121.56 233.46,121.56 C232.355431,121.56 231.46,122.455431 231.46,123.56 L231.46,124 C231.46,125.104569 232.355431,126 233.46,126 C234.564569,126 235.46,125.104569 235.46,124 Z" id="Path" fill="#EAF3F3"/>
                            <path d="M11.22,203.08 L11.22,202.64 C11.22,201.535431 10.3245695,200.64 9.22,200.64 C8.1154305,200.64 7.22,201.535431 7.22,202.64 L7.22,203.08 C7.22,204.184569 8.1154305,205.08 9.22,205.08 C10.3245695,205.08 11.22,204.184569 11.22,203.08 Z" id="Path" fill="#EAF3F3"/>
                        </g>
                    </g>
                </g>
            </g>
        </g>
    </g>
</svg>
