<svg viewBox="0 31.651 1100 536.697" xmlns="http://www.w3.org/2000/svg" overflow="visible">
    <g id="Master/Horizontal Scenes/Exchange" stroke="none" stroke-width="1" fill="none" fill-rule="evenodd">
        <g id="Background" style="mix-blend-mode:soft-light" transform="translate(250.000000, 0.000000) scale(1 1)">
            <g id="Background/ArrowDown" stroke="none" stroke-width="1" fill="none" fill-rule="evenodd">
                <path d="M469.52,385.73 C469.227985,384.995 468.530272,384.501113 467.74,384.47 C467.74,384.47 452.56,383.87 433.22,383.16 L433.28,381.87 C433.44,378.42 433.62,374.51 434.02,369.87 C435.4,353.67 435.94,338.22 436.51,321.87 C436.63,318.276667 436.756667,314.666667 436.89,311.04 C437.66,290.54 437.89,269.72 438.03,249.58 C438.16,236.36 438.28,222.68 438.57,209.19 C438.76,200.19 439.83,189.65 440.95,178.46 C443.21,156.06 445.78,130.67 441.3,113.33 C434.72,87.84 384,87.88 350.36,87.9 C344.04,87.9 338.59,87.9 334.28,87.73 C292.16,86.03 247.88,91.73 205.05,97.19 L189.9,99.12 C180.467059,100.30913 173.198294,108.013853 172.56,117.5 L171.67,131.15 C166.24,213.38 160.67,298.39 168.94,381.9 C154.72,382.14 143.01,382.5 132.24,383.04 C131.419316,383.083059 130.708504,383.623766 130.447962,384.403186 C130.187419,385.182605 130.430184,386.042071 131.06,386.57 C131.47,386.91 172.64,421.24 193.06,436.12 C204.51,444.45 216.73,454.26 228.54,463.74 C242.87,475.23 257.69,487.12 271.79,496.97 L275.14,499.31 C286.95,507.61 294.03,512.59 302.14,512.59 C308.91,512.59 316.41,509.15 327.95,501.31 C342.45,491.47 356.95,481.03 370.95,470.93 C381.95,462.99 393.39,454.77 404.66,446.93 C423.48,433.86 467.18,389.72 469.03,387.85 C469.597082,387.301779 469.788994,386.471465 469.52,385.73 Z" id="Path" fill="#EAF3F3" fill-rule="nonzero"/>
            </g>
        </g>
        <g transform="translate(800.000000, 300.000000) scale(-1, 1) translate(-800.000000, -300.000000) translate(500.000000, -0.000000) scale(1 1)" id="Master/Hands/Pinch">
            <g id="Master/Hands/Pinch" stroke="none" stroke-width="1" fill="none" fill-rule="evenodd">
                <g id="base" transform="translate(0.000000, 186.000000)" fill-rule="nonzero">
                    <path d="M331.769319,25.773249 C338.264498,13.1426256 333.937276,4.52721178 322.135018,1.47976305 C312.899704,-0.904877807 299.667379,0.494687563 291.03072,4.43002889 C283.666856,7.79359731 277.797657,13.1643197 269.765776,22.7084861 C268.82741,23.8235326 265.384052,27.979205 264.59904,28.9130806 C262.496355,31.4173589 255.792223,39.5940856 254.902395,40.6645361 C253.876775,41.8983411 252.923991,43.0307145 252.013624,44.0954839 C252.453521,38.5340944 252.613165,34.0918735 252.438163,29.6028748 C251.858216,14.7265198 247.467634,4.77577674 237.371594,1.64949844 C232.041145,0.0451366934 226.392608,2.82098925 224.411694,8.00625552 C222.4154,13.5856216 220.782435,19.2434063 219.507528,24.9865777 C217.860437,31.5402294 215.874101,37.3703185 211.923876,47.8395539 C211.728283,48.3579333 211.678153,48.4906086 211.189335,49.7839914 C209.113403,55.2767771 208.130612,57.9295631 207.011993,61.1301291 C206.952235,61.3017883 206.952235,61.3017883 206.893058,61.4727155 C206.328559,63.1053895 204.346623,69.1403448 203.995854,70.1770375 C201.980952,76.1320556 200.337879,80.0973054 198.435919,83.1930483 C195.150466,88.5447735 181.549494,92.0904013 140.821247,98.6655642 C133.013758,99.9280218 119.297931,100.962357 101.406447,101.78167 C91.1406422,102.251776 28.13838,102.622306 17.1356715,102.90398 C13.2843732,103.002575 9.70827263,103.083015 6.49923114,103.146653 C5.37633382,103.168921 4.3796225,103.187497 3.52057676,103.202551 C3.00560999,103.211574 2.65125696,103.217415 2.46899597,103.22024 C1.37664671,103.237176 0.5,104.127519 0.5,105.22 L0.5,224.72 C0.5,225.824569 1.3954305,226.72 2.5,226.72 C7.0222819,226.72 12.0523949,226.820893 18.870142,227.031848 C22.5025087,227.144241 88.730793,227.636075 91.2839604,227.719899 C110.719732,228.358001 127.249402,228.690442 146.997007,228.719998 C154.362821,228.72 160.379038,228.772169 176.602204,228.950279 C180.060169,228.988244 182.130438,229.01053 184.339892,229.033196 C201.288875,229.207066 212.338665,229.237075 222.032457,229.079737 C246.094643,228.719091 270.085636,226.32268 293.746179,221.916192 C307.63098,219.392713 363.986435,200.277361 377.917835,192.981757 C383.818182,189.899679 389.974487,185.314252 393.84376,180.58822 C399.21158,174.031823 400.139129,167.37231 395.030045,161.665922 C392.382949,158.71381 388.836729,157.408392 384.21956,157.315155 C380.946888,157.249068 378.791803,157.538717 371.13319,158.843858 C364.329486,160.003309 360.521697,160.434302 356.303168,160.300998 C342.290226,159.858484 329.250118,147.226311 323.861693,130.680675 C317.624211,111.168212 330.974885,86.7403379 350.43804,82.3714407 C357.144097,80.8490728 363.907175,82.6148562 376.223577,87.8031406 C377.353284,88.2792314 377.986218,88.6020454 380.659966,90.0222079 C384.104155,91.8515907 386.006237,92.705454 388.244051,93.2316831 C390.933691,93.8641608 393.426213,93.7064309 395.772804,92.5843197 C404.028146,88.6304459 404.420998,76.4444047 398.543341,68.8281032 C392.363109,60.8263293 383.520362,53.7860881 374.945021,50.3439441 C359.385439,44.1161687 344.316181,44.3418233 327.461662,50.4185491 C324.717857,51.4175911 322.010399,52.5053699 319.342105,53.6805982 C324.775414,40.3385782 327.6857,33.7295258 331.769319,25.773249 Z" id="Path" fill="#fcb7a0"/>
                    <path d="M290.546102,70.2699878 C297.773898,64.2807149 308.146003,58.3158335 318.654214,53.9040697 C319.672665,53.4764834 320.151656,52.3042379 319.72407,51.2857863 C319.296483,50.2673348 318.124238,49.7883439 317.105786,50.2159303 C306.258113,54.7702141 295.551419,60.9275136 287.993898,67.1900122 C287.143386,67.8947841 287.02524,69.1555907 287.730012,70.0061025 C288.434784,70.8566142 289.695591,70.9747598 290.546102,70.2699878 Z" id="Path" fill="#dc8173"/>
                    <path d="M237.439917,59.7032573 C242.651952,55.4755396 247.504809,50.8233264 251.948706,45.7943416 C252.68012,44.9666292 252.602054,43.7027078 251.774342,42.9712941 C250.946629,42.2398805 249.682708,42.317946 248.951294,43.1456584 C244.653675,48.0091071 239.960556,52.5081863 234.920083,56.5967427 C234.062242,57.2925759 233.93091,58.552077 234.626743,59.4099174 C235.322576,60.2677577 236.582077,60.3990904 237.439917,59.7032573 Z" id="Path" fill="#dc8173"/>
                    <path d="M314.748504,0.549468003 C311.547647,1.54044535 307.261,6.01287423 303.236235,11.3217308 C301.868464,13.1272733 300.460956,15.0208057 298.69313,17.4257542 C297.921409,18.4756031 295.226049,22.1547104 295.213495,22.1718259 C290.063677,29.1932574 286.936178,33.3085314 283.489024,37.4750915 C281.81629,39.4975131 280.471655,41.1933001 277.640107,44.8171298 L277.424188,45.0934653 C273.770324,49.769627 272.016805,51.9579678 269.824199,54.5052598 C269.156247,55.2829449 268.506185,56.0736029 267.574736,57.2308184 C267.389601,57.4608271 266.746624,58.2615084 266.740189,58.2695144 C264.335614,61.2614717 263.012282,62.7869964 261.441179,64.261806 C260.635841,65.0177849 260.595827,66.2834825 261.351806,67.0888208 C262.107785,67.8941591 263.373482,67.9341728 264.178821,67.178194 C265.927733,65.5364732 267.340254,63.9081325 269.85806,60.7752837 C269.865753,60.7657119 270.507294,59.9668195 270.690742,59.7389067 C271.597674,58.6121505 272.224448,57.8498179 272.857198,57.1131152 C275.102882,54.5041612 276.883895,52.2815085 280.576085,47.556298 L280.792023,47.2799386 C283.601076,43.684897 284.929819,42.0091523 286.571161,40.0246856 C290.081114,35.7822206 293.245849,31.6179512 298.438947,24.53751 C298.453183,24.5180995 301.146595,20.8416517 301.916065,19.7948653 C303.673461,17.4041075 305.07033,15.5248859 306.424211,13.7376798 C309.847003,9.22285423 313.892809,5.00170438 315.931496,4.370532 C316.986654,4.04385779 317.577206,2.92366171 317.250532,1.86850403 C316.923858,0.81334634 315.803662,0.222793797 314.748504,0.549468003 Z" id="Path" fill="#dc8173"/>
                </g>
                <g id="Pinch/Wear" transform="scale(1 1)">
                    <g id="Pinch/Wear/Nails" stroke="none" stroke-width="1" fill="none" fill-rule="evenodd">
                        <g id="clothing" transform="translate(221.000000, 188.000000)" fill="#A02E28" fill-rule="nonzero">
                            <path d="M7,19.1 C7.72990817,19.0982453 8.45864351,19.0414173 9.18,18.93 C12.69,18.38 13.37,15.76 13.77,13.12 C14.29,9.66 13.84,6.97 12.37,4.66 C11.3910808,2.4987119 9.07990167,1.26717775 6.74,1.66 C5.27844462,2.79721603 4.1547804,4.31156966 3.49,6.04 C2.21947499,9.42024338 1.15092528,12.8729946 0.29,16.38 C2,18.62 4.86,19.1 7,19.1 Z" id="Path"/>
                            <path d="M181.43,76.84 C181.090693,73.2160436 179.758522,69.7558586 177.58,66.84 C174.354687,62.6880438 170.626143,58.9527825 166.48,55.72 C163.08,56.84 157.98,60.36 158.55,64.47 C158.924752,66.062156 159.671875,67.542694 160.73,68.79 L161.11,69.33 C162.81,71.75 164.88,74.48 168.02,76.18 C170.505722,77.5234832 173.275148,78.25697 176.1,78.32 C177.228653,78.3297432 178.351994,78.1644468 179.43,77.83 C180.143406,77.6043054 180.817931,77.2704156 181.43,76.84 L181.43,76.84 Z" id="Path"/>
                            <path d="M174.44,166.24 C173.870309,165.178258 172.936367,164.357951 171.81,163.93 C169.49,162.93 166.17,163.4 164.71,163.7 C161.224374,164.431438 157.92619,165.871203 155.02,167.93 C153.76,168.86 151.69,169.93 151.86,173.09 C152.185669,175.552974 153.082899,177.905636 154.48,179.96 C156.025284,182.321439 158.602063,183.806614 161.42,183.96 C161.543135,183.969893 161.666865,183.969893 161.79,183.96 C164.533558,183.528928 167.0784,182.265235 169.08,180.34 C174.25,175.53 176.73,170.83 174.44,166.24 Z" id="Path"/>
                            <path d="M89.21,7.21 L89.21,7.21 C86.75,10.89 87.11,13.99 90.28,16.4 C92.28,17.94 94.53,18.68 98.12,18.48 C99.3715466,18.4491197 100.590019,18.0718086 101.64,17.39 C104.39,15.5 106.59,12.39 107.03,9.74 C107.49,6.88 107.17,1.9 102.87,0.63 C97.88,-0.83 94.34,0.46 89.21,7.21 Z" id="Path"/>
                            <path d="M80,6.31 C80.77,4.42 80.78,0.47 76.37,0.23 C73.73,0.08 70.5,1.36 68.83,2.23 C66.3771097,3.41533754 64.0908257,4.91823307 62.03,6.7 C61.024199,7.51440889 60.3633797,8.67887963 60.18,9.96 C60.18,12.6 63.51,13.43 66.11,13.85 C69.0164234,14.2403141 71.9733916,13.7637204 74.61,12.48 C76.9150945,10.9298239 78.7735334,8.80244583 80,6.31 Z" id="Path"/>
                        </g>
                    </g>
                </g>
                <g id="Pinch/Item" transform="scale(1 1)">
                    <g id="Pinch/Item/Tea" stroke="none" stroke-width="1" fill="none" fill-rule="evenodd">
                        <g id="items" transform="translate(359.000000, 281.000000)" fill-rule="nonzero">
                            <path d="M125.23,257.6 L125.07,256.6 C123.28,245.25 122.07,234.6 121.43,224.1 C121.11,218.94 120.69,213.93 120.28,209.1 C119.77,203.03 119.28,196.75 118.92,190.25 C118.92,189.56 118.87,188.87 118.86,188.19 C118.81,184.79 118.74,180.95 115.73,178.1 C111.5,174.1 105.2,171.78 99.1,169.52 C96.22,168.45 93.5,167.44 91.1,166.3 C85.9564696,163.840121 80.6894713,161.647208 75.32,159.73 C74.9153101,159.569623 74.4646899,159.569623 74.06,159.73 C69.57,161.63 64.84,163.5 60.26,165.32 C56.78,166.69 53.19,168.11 49.71,169.54 C41.08,173.09 40.08,176.92 37.88,185.3 L37.74,185.81 C34.86,196.81 32.64,208.29 30.79,218.23 C29.7052762,223.586515 28.3332955,228.880826 26.68,234.09 C24.68,240.87 22.57,247.88 21.74,255.57 C21.67,256.25 21.57,257.04 21.45,257.91 C20.65,264.24 19.45,273.82 23.45,277.48 C27.45,281.14 37.57,281.7 46.6,281.87 L47.91,281.87 C50.35,281.87 52.78,281.79 55.13,281.67 C58.8920883,281.338837 62.6780277,281.389092 66.43,281.82 C70.2935851,282.212352 74.1772235,282.372639 78.06,282.3 C88.7,282.3 102.89,281.64 108.54,280.35 C110.245417,280.063967 111.970815,279.913496 113.7,279.9 C117.4,279.75 120.91,279.6 122.77,278.23 C128,274.52 126.19,263.52 125.23,257.6 Z" id="Path" fill="#EBE8E5"/>
                            <path d="M115.65,253.34 C114.58,249.72 112.17,248.75 110.23,247.97 C108.51,247.27 107.02,246.67 105.87,244.28 C105.592412,243.677624 104.993204,243.288528 104.33,243.28 C101.83,243.28 98.44,243.39 95.86,244.96 C95.47,244.58 95.09,244.2 94.73,243.82 C92.82,241.82 90.85,239.82 87,239.47 C83.15,239.12 81,240.87 79.18,242.47 C78.5565499,243.055217 77.8877988,243.590218 77.18,244.07 C73.98,239.49 66.39,236.73 61.04,237.34 C58.7107084,237.470533 56.5566907,238.618855 55.15,240.48 C54.7473836,241.125243 54.1147238,241.593482 53.38,241.79 C51.7708885,241.994591 50.1368755,241.865232 48.58,241.41 C46.4628805,240.816751 44.2438227,240.680404 42.07,241.01 C30.64,243.45 29.8,254.35 29.19,262.3 C29.08,263.66 28.98,264.95 28.84,266.13 C28.7759908,266.651672 28.9526044,267.174155 29.32,267.55 C35.01,273.55 45.65,272.87 55.03,272.31 C58.4614081,272.003403 61.9107365,271.949925 65.35,272.15 C70.18,272.63 76.77,273.15 83.96,273.15 C94.15,273.15 105.54,272.15 114.86,268.93 C115.369973,268.748879 115.768266,268.34321 115.94,267.83 C117.22,263.85 117.11,258.32 115.65,253.34 Z" id="Path" fill="#3B3B3B"/>
                            <path d="M62.58,41.15 L58.4,23.3 C56.8989042,16.9123098 52.38583,11.6532729 46.3,9.2 C41.39,7.2 37.91,5.85 35.95,5.13 C33.15,4.13 30.32,3.24 27.58,2.41 C25.58,1.8 23.7,1.22 21.81,0.59 C20.9607299,0.298924637 20.0294294,0.70176621 19.66,1.52 C17.66,5.83 15.42,10.24 13.22,14.52 C8.08,24.52 2.76,34.8 0.45,45.6 C0.286362702,46.3484259 0.631487638,47.1158213 1.3,47.49 C3.83,48.92 11.09,52.2 22.89,57.24 C30.672594,60.5570314 39.6299711,59.5029985 46.43,54.47 L61.92,43 C62.500306,42.5783318 62.7623701,41.8437581 62.58,41.15 L62.58,41.15 Z" id="Path" fill="#CCC9C6"/>
                            <path d="M59.4210289,42.9602771 C67.053956,47.1948923 72.7045242,55.6612078 74.1393435,69.4905957 C74.6389436,74.3475847 74.6923179,85.9853303 74.4282195,104.05407 C74.3761808,107.614382 74.3140168,111.314276 74.2320252,115.842959 C74.2367546,115.58174 74.0345303,126.530379 73.9901711,129.139706 C73.9160992,133.496821 73.88,136.410575 73.88,138.39 C73.88,141.624754 73.7168052,144.20084 73.2262713,149.979479 L73.1896046,150.411615 C72.7304937,155.827381 72.56,158.585413 72.56,161.85 C72.56,162.816498 73.3435017,163.6 74.31,163.6 C75.2764983,163.6 76.06,162.816498 76.06,161.85 C76.06,158.713967 76.2260345,156.028069 76.6770956,150.70726 L76.7137287,150.275521 C77.2125705,144.399013 77.38,141.75608 77.38,138.39 C77.38,136.436369 77.4159185,133.537194 77.4896655,129.199199 C77.5339732,126.592898 77.7361364,115.647567 77.7314518,115.906316 C77.8135108,111.373905 77.8757385,107.67022 77.9278457,104.105221 C78.1946438,85.8517738 78.1411574,74.1895712 77.6208148,69.1309359 C76.067231,54.1568398 69.7461977,44.6859581 61.1189711,39.8997229 C60.2738224,39.4308491 59.2085967,39.7358802 58.7397229,40.5810289 C58.2708491,41.4261776 58.5758802,42.4914033 59.4210289,42.9602771 Z" id="Path" fill="#3B3B3B"/>
                            <path d="M66.5333972,173.000871 C64.1082669,175.041122 61.967761,177.397447 60.1691348,180.006819 C59.6206164,180.802587 59.8210516,181.892347 60.6168195,182.440865 C61.4125873,182.989384 62.5023467,182.788948 63.0508652,181.993181 C64.6718618,179.641506 66.6009746,177.517887 68.7866028,175.679129 C69.5261832,175.056923 69.6213344,173.952978 68.9991289,173.213397 C68.3769234,172.473817 67.2729777,172.378666 66.5333972,173.000871 Z" id="Path" fill="#CCC9C6"/>
                            <path d="M74.5501001,176.068716 C74.5511015,176.162352 74.5533563,176.335536 74.5571406,176.576951 C74.5634277,176.978034 74.5717972,177.424641 74.5825277,177.905488 C74.6132088,179.280346 74.6566854,180.655653 74.7152997,181.942267 C74.810042,184.021908 74.9345223,185.665344 75.0998793,186.753025 C75.245144,187.708544 76.1375058,188.365386 77.0930251,188.220121 C78.0485444,188.074856 78.7053855,187.182494 78.5601207,186.226975 C78.4184002,185.294768 78.3011211,183.746406 78.2116734,181.782983 C78.1544351,180.526573 78.1117787,179.177213 78.0816566,177.827402 C78.071106,177.354616 78.0628807,176.915706 78.0567106,176.522094 C78.0530206,176.286692 78.0508412,176.119292 78.0498999,176.031284 C78.0395636,175.064841 77.2477275,174.289764 76.2812845,174.299998 C75.3148415,174.310436 74.5397638,175.102272 74.5501001,176.068716 Z" id="Path" fill="#CCC9C6"/>
                            <path d="M84.7630809,176.872023 C85.5847149,177.204784 86.362722,177.713437 87.5733334,178.656984 C87.6312398,178.702117 88.3750711,179.286645 88.5955398,179.45657 C89.0031357,179.770722 89.341055,180.018501 89.6729622,180.24186 C90.4748023,180.781463 91.5622568,180.568878 92.1018599,179.767038 C92.641463,178.965198 92.4288779,177.877743 91.6270378,177.33814 C91.3669263,177.163096 91.085323,176.956612 90.7321642,176.684416 C90.5272828,176.526505 89.7943338,175.950528 89.7249107,175.89642 C88.2762116,174.767308 87.276904,174.113971 86.0769191,173.627977 C85.1811008,173.265171 84.1607838,173.697263 83.7979774,174.593081 C83.435171,175.488899 83.8672625,176.509216 84.7630809,176.872023 Z" id="Path" fill="#CCC9C6"/>
                            <path d="M47.070566,180.544506 C47.1955144,185.45594 47.1937692,189.842493 47.1092306,197.892687 C47.1030427,198.479225 47.1030427,198.479225 47.0967962,199.065945 C46.9518544,212.680262 47.0049779,218.773163 47.5137769,226.504913 C48.5131725,242.399913 48.6927338,258.340971 48.0514185,274.259555 C48.0125125,275.225269 48.7638396,276.039676 49.7295545,276.078582 C50.6952694,276.117488 51.5096756,275.36616 51.5485815,274.400445 C52.194738,258.361699 52.0138212,242.300307 51.0065511,226.280185 C50.5051929,218.661394 50.4525977,212.629075 50.5965979,199.103205 C50.6028453,198.516401 50.6028453,198.516401 50.6090376,197.92944 C50.6939951,189.839356 50.6957531,185.420807 50.569434,180.455494 C50.5448539,179.489308 49.7416796,178.725986 48.7754939,178.749989 C47.8093082,178.775146 47.045986,179.57832 47.070566,180.544506 Z" id="Path" fill="#CCC9C6"/>
                        </g>
                    </g>
                </g>
            </g>
        </g>
        <g transform="translate(0.000000, -0.000000) scale(1 1)" id="Master/Hands/Grip">
            <g id="Master/Hands/Grip" stroke="none" stroke-width="1" fill="none" fill-rule="evenodd">
                <g id="base" transform="translate(-1.000000, 265.000000)" fill-rule="nonzero">
                    <path d="M431.32891,98.5203262 C432.521196,87.2066637 432.601612,75.4334069 431.968673,58.0671554 C431.954159,57.6598773 431.939641,57.2267451 431.921493,56.6652626 C431.705837,49.9931141 431.590388,47.6099354 431.210233,43.9657234 C430.365671,35.8696479 428.620961,29.7573512 425.399902,25.5366534 C419.159559,17.3706216 408.702389,15.6509559 391.926016,17.5700821 C389.553242,17.8415146 387.28767,18.1470863 383.721354,18.6604845 C375.243241,19.8809732 372.065439,20.287338 368.929872,20.3917902 C366.655535,14.6589239 361.976792,10.3076767 354.782994,7.94950563 C350.857041,6.66117254 346.835974,5.61374184 342.600919,4.75388076 C335.200848,3.25141294 328.949839,2.52184045 316.01966,1.40984586 C315.914578,1.40080881 314.290643,1.26131567 313.813438,1.2202075 C312.967867,1.14736709 312.267975,1.08666406 311.594651,1.0276403 C303.92934,0.353092886 295.76582,0.140016586 285.340538,0.230444933 C281.966858,0.259708055 279.180833,0.305320002 273.277077,0.417732699 C269.07402,0.497762591 267.384511,0.52809125 265.161113,0.56020863 C256.978682,0.683990365 245.85413,1.73238996 222.598596,4.32908861 C221.834572,4.41442283 221.834572,4.41442283 221.070816,4.49979752 C196.459102,7.25132846 187.966681,8.10111845 180.359026,8.37125971 C172.73714,8.64632163 161.085355,9.01077251 146.305828,9.44280003 C143.938757,9.51199304 141.502513,9.58258967 139.002627,9.6544563 C127.777495,9.97715608 30.7503244,10.3118551 18.7231199,10.6391833 C14.5135716,10.7537489 10.6047132,10.8592096 7.09678455,10.9531444 C5.86902978,10.986021 4.77909532,11.0151084 3.83951092,11.0401039 C2.88744216,11.0654008 2.88744216,11.0654008 2.68711951,11.0706992 C1.60352639,11.0993597 0.74,11.9860279 0.74,13.07 L0.74,159.4 C0.74,160.489345 1.61180162,161.378343 2.70093863,161.399619 L186.500939,163.329619 C196.179481,163.511747 203.731648,163.70021 221.642029,164.182403 C242.100467,164.733196 251.567337,164.960452 263.140289,165.139647 C300.402752,165.716617 329.447874,164.989783 357.092205,162.320743 C362.018071,161.845638 365.783805,161.491866 374.901855,160.642538 C401.687134,158.147544 413.835399,156.918175 428.818172,155.044543 C439.476885,153.819953 449.965627,151.293244 460.03153,147.522927 C472.081587,142.949121 474.606494,123.582098 463.583944,119.504249 C459.34788,117.93774 453.31894,116.833016 447.073226,116.258411 C446.083843,116.167168 445.030533,116.065818 443.734684,115.937953 C442.98452,115.863932 440.337018,115.600018 440.269796,115.593341 C437.727402,115.340807 435.964428,115.172127 434.187386,115.015355 C430.33035,114.675086 427.01408,114.452731 424.049375,114.357304 C428.165982,110.668927 430.585094,105.554082 431.32891,98.5203262 Z" id="Path" fill="#90bfff"/>
                    <path d="M427.429531,45.4798336 C423.174607,47.4789215 418.810574,49.2370221 414.358123,50.7458 C401.799811,55.2998034 392.080448,58.0350385 371.623965,63.1599562 C370.552508,63.4283858 369.901527,64.5145783 370.169956,65.5860349 C370.438386,66.6574915 371.524578,67.3084735 372.596035,67.0400438 C393.178494,61.8835657 402.998524,59.1200007 415.681876,54.5201717 C420.236432,52.9772683 424.739746,51.1630566 429.130469,49.1001664 C430.130196,48.6304652 430.559867,47.4392582 430.090166,46.4395309 C429.620465,45.4398036 428.429258,45.0101325 427.429531,45.4798336 Z" id="Path" fill="#4e6af0"/>
                    <path d="M369.239592,99.6943002 C376.17747,98.5712245 382.765102,97.3041801 389.135166,95.8498275 C400.580337,93.2623782 413.380136,88.928371 430.015407,82.4538091 C431.044761,82.0531777 431.55444,80.893946 431.153809,79.8645927 C430.753178,78.8352394 429.593946,78.3255595 428.564593,78.7261909 C412.10186,85.1335994 399.454816,89.415884 388.248982,91.9492301 C381.961366,93.3847543 375.457036,94.6357767 368.600408,95.7456998 C367.510032,95.9222055 366.769194,96.9492158 366.9457,98.0395917 C367.122205,99.1299676 368.149216,99.8708058 369.239592,99.6943002 Z" id="Path" fill="#4e6af0"/>
                    <path d="M320.456563,104.875332 C326.361933,104.471162 331.40529,104.086173 336.215565,103.662279 C337.31587,103.565318 338.129241,102.594741 338.032279,101.494435 C337.935318,100.39413 336.964741,99.5807589 335.864435,99.6777207 C331.083122,100.099062 326.064721,100.482146 320.183437,100.884668 C319.081446,100.960089 318.249246,101.914571 318.324668,103.016563 C318.400089,104.118554 319.354571,104.950754 320.456563,104.875332 Z" id="Path" fill="#4e6af0"/>
                    <path d="M246.20674,103.765561 C247.329327,106.0388 247.277986,108.094963 246.348308,113.147546 C246.25504,113.654434 246.210684,113.897482 246.158464,114.190486 C246.074937,114.659153 246.005717,115.067531 245.944147,115.46015 C245.773022,116.551384 246.518917,117.574727 247.61015,117.745853 C248.701384,117.916978 249.724727,117.171083 249.895853,116.07985 C249.952658,115.717615 250.017405,115.335619 250.096412,114.892315 C250.146906,114.608997 250.190326,114.371076 250.282267,113.871397 C251.366877,107.9768 251.433326,105.315573 249.79326,101.994439 C249.304179,101.004049 248.10483,100.597658 247.114439,101.08674 C246.124049,101.575821 245.717658,102.77517 246.20674,103.765561 Z" id="Path" fill="#4e6af0"/>
                    <path d="M422.848508,114.035462 C417.235799,117.030195 404.556916,121.300269 396.696233,122.837165 C395.390212,123.095472 390.709518,124.034857 390.778583,124.021058 C380.642657,126.046159 374.541931,127.055339 368.023144,127.59845 C355.047244,128.679534 344.470418,127.193867 335.402939,122.346235 C329.778924,119.345079 325.598566,112.978524 322.630281,103.613234 C320.262359,96.1421584 318.818656,87.5174171 317.700318,76.1934393 C317.59176,75.0942173 316.612661,74.291125 315.513439,74.3996825 C314.414217,74.5082399 313.611125,75.4873387 313.719682,76.5865607 C314.863149,88.1649804 316.346421,97.0261089 318.817219,104.821766 C322.070899,115.087515 326.799532,122.289075 333.518413,125.874487 C343.357338,131.134548 354.675581,132.724358 368.355252,131.584639 C375.066606,131.025485 381.286077,129.996662 391.562272,127.943536 C391.498143,127.956349 396.172809,127.018173 397.468054,126.761992 C405.694507,125.153587 418.74676,120.757768 424.731492,117.564538 C425.706019,117.044566 426.074509,115.833036 425.554538,114.858508 C425.034566,113.883981 423.823036,113.515491 422.848508,114.035462 Z" id="Path" fill="#4e6af0"/>
                    <path d="M325.723474,67.1486888 C325.754221,67.5257506 325.786601,67.9089746 325.820664,68.2979657 C326.287954,73.6343613 326.972289,78.972826 327.917156,83.9688587 C329.629113,93.0209199 331.992202,99.9414889 335.247092,104.017926 C341.114803,111.349614 359.705009,113.379626 366.794658,106.940505 C369.832761,104.182669 371.33993,98.3357355 372.142549,89.4402588 C372.31331,87.5476958 372.446559,85.5656702 372.564627,83.3005091 C372.609786,82.4341079 372.650953,81.5652186 372.699674,80.4726621 C372.702209,80.4158109 372.788737,78.4481986 372.812727,77.9254873 C372.894614,76.1413001 372.960256,75.0347272 373.040936,74.1901972 C374.135299,62.145536 374.488352,50.0542898 374.098962,37.975558 C373.922798,33.9897507 373.613503,30.6160832 373.057693,25.9155132 C373.022432,25.6173001 372.680302,22.7668274 372.586684,21.9595968 C372.459436,20.8623814 371.466812,20.0760676 370.369597,20.2033157 C369.272381,20.3305639 368.486068,21.3231878 368.613316,22.4204032 C368.708037,23.2371523 369.050942,26.0940803 369.085366,26.3852129 C369.630655,30.9968102 369.93179,34.2814723 370.101954,38.1283812 C370.48515,50.0194276 370.136883,61.946758 369.058204,73.8190315 C368.97024,74.7395938 368.901731,75.8944873 368.816933,77.7420966 C368.792735,78.26934 368.706028,80.2410335 368.703645,80.2944645 C368.655332,81.3778589 368.614606,82.23747 368.570049,83.0922985 C368.454412,85.3108328 368.324404,87.2446543 368.158732,89.080808 C367.451143,96.9230588 366.098607,102.17011 364.105743,103.979131 C358.764921,108.829893 342.828806,107.089703 338.371492,101.520303 C335.637398,98.0961111 333.446247,91.6790801 331.847484,83.2255413 C330.930071,78.374674 330.261976,73.1628887 329.805416,67.9490343 C329.645489,66.1226863 329.523522,64.4273514 329.434523,62.9073119 C329.403453,62.3766485 329.378736,61.9062868 329.359746,61.5017483 C329.34846,61.2613395 329.341638,61.0977427 329.338648,61.0164733 C329.266156,59.0459615 326.687395,58.3582829 325.64335,60.0310478 C321.798814,66.1907515 317.332467,71.9397747 312.31446,77.1878229 C307.366668,82.1505041 301.282764,85.8992383 294.585634,88.099956 C293.536269,88.4447839 292.965128,89.5750007 293.309956,90.624366 C293.654784,91.6737313 294.785001,92.2448718 295.834366,91.900044 C303.128921,89.5030088 309.755545,85.4198648 315.176424,79.9819996 C319.022415,75.9601587 322.543867,71.6739516 325.723474,67.1486888 Z" id="Path" fill="#4e6af0"/>
                </g>
                <g id="Grip/Wear" transform="scale(1 1)">
                    <g id="Grip/Wear/Tattoo" stroke="none" stroke-width="1" fill="none" fill-rule="evenodd">
                        <g id="clothing" transform="translate(86.000000, 280.000000)" fill="#000" fill-rule="nonzero" opacity=".4">
                            <g id="Group">
                                <path d="M122.211517,2.43567252 C122.386028,0.816596753 124.318934,0.0736236416 125.532974,1.15896632 C125.86819,1.45864719 127.102453,2.54818751 127.353411,2.77169427 C130.609295,5.67142715 132.448303,7.70507272 133.86877,10.3964828 C134.702746,11.9766486 135.298297,13.6733775 135.78193,15.6737945 C136.043591,16.7560854 136.162179,17.3592401 136.568696,19.5570676 C136.67915,20.1542351 136.766747,20.6155867 136.847265,21.0161833 C139.887536,19.8890974 143.155218,19.5499955 147.368962,19.6998271 C148.551219,19.7418657 149.540791,19.803403 151.542856,19.9469316 C152.865686,20.0417657 153.336053,20.0741847 153.99853,20.1135154 C156.222604,20.245557 156.597312,23.3670447 154.467674,24.021711 C152.59603,24.5970684 151.954172,26.125699 151.546058,30.3283216 C151.529892,30.4947943 151.516603,30.6346503 151.48735,30.9445483 C151.233006,33.6368701 151.052582,34.8172452 150.557753,36.1685093 C148.450745,41.9148927 143.807223,44.8619484 136.677233,46.5235586 C136.669149,47.4873133 136.548873,48.0553845 135.949845,50.6739628 C135.781961,51.4078488 135.667837,51.9633065 135.573268,52.5359018 C135.545789,52.7022844 135.498511,52.8604564 135.434244,53.0084062 C136.507538,54.3731297 137.427288,55.8574816 138.17223,57.43284 C138.391046,57.8876069 138.592896,58.3351524 138.838024,58.9005903 C138.813085,58.8430642 139.268958,59.9026422 139.386802,60.1685539 C140.338718,62.3165191 140.996316,63.0493669 142.717134,63.6075948 C143.91455,63.9960326 144.459663,65.3808582 143.848315,66.4812859 C143.334652,67.4058776 141.567521,70.3241141 141.242467,70.9537537 C140.525482,72.3425775 140.196732,73.5725981 140.096035,75.5658761 C139.937946,78.0727143 139.824592,79.3880399 139.576016,81.0276717 L139.598957,80.872414 L139.648422,80.8880303 C145.136624,82.7689636 148.882046,86.916738 149.166576,92.5823692 L149.179308,92.9173866 C149.211181,94.1285836 149.201231,95.0825108 149.153035,97.1950312 C149.129802,98.2133551 149.120944,98.6596851 149.114882,99.2167641 C149.088732,101.619592 149.18137,103.375473 149.470359,105.076946 C149.573628,105.670084 149.736829,106.189933 150.15529,107.338311 C150.261415,107.629548 150.292968,107.71648 150.344621,107.860916 C150.947091,109.545584 151.207241,110.68059 151.148045,112.018409 C151.068731,113.810894 148.851681,114.600262 147.657409,113.26123 C146.656828,112.139366 145.224722,111.670204 141.889995,111.196566 C141.713242,111.171525 141.713242,111.171525 141.535054,111.146395 C138.53467,110.723158 137.216036,110.433382 135.697031,109.659463 C132.707713,108.125767 130.256148,105.74086 128.6404,102.823635 L128.635703,102.827314 L128.527279,102.884169 C124.62604,104.931795 123.177992,106.163277 122.572546,108.435042 C122.184562,109.89084 120.387205,110.411179 119.281495,109.38781 C119.165084,109.280067 119.004727,109.197634 118.791809,109.141843 C119.887826,112.086644 119.574818,114.742174 117.848854,118.254427 C117.516901,118.918333 117.294204,119.29731 116.505274,120.588872 C115.47813,122.270415 115.055134,123.113643 114.853289,124.009724 C114.7242,124.596492 114.721841,125.141955 114.810614,126.480113 C114.824396,126.687862 114.832991,126.820141 114.840121,126.938516 L114.850181,127.113346 C114.915228,128.29581 114.884374,129.166582 114.684178,130.085663 C114.493512,130.960991 113.744029,131.602755 112.849785,131.65641 C110.139308,131.819038 105.7948,129.332815 102.994476,126.569456 C102.583532,128.341606 101.632934,130.127089 100.142314,132.153226 C97.6340704,135.397785 95.5965791,138.980293 94.0901894,142.79464 C93.399983,144.542319 90.8988844,144.459771 90.3254183,142.670384 C89.934471,141.450511 89.3389699,140.521211 87.8824066,138.678305 L87.6904881,138.435638 C85.4521739,135.605064 84.5098867,133.991333 84.049921,131.404657 C83.9884887,131.053508 83.9217506,130.692963 83.8388873,130.260646 C83.1162603,126.490539 83.0355323,125.970287 83.086011,124.456973 C83.1600519,122.237281 83.9319022,120.36518 85.5834353,118.708141 L85.5947683,118.696861 C86.371761,117.929645 87.2389667,117.259532 88.1425047,116.722442 C89.7859108,115.698681 91.5490574,115.068436 93.267377,114.861125 C93.8383992,113.33622 94.4295873,111.966051 94.99577,110.899069 C94.9612883,110.873847 94.9278438,110.845959 94.8947674,110.817708 C92.0034331,114.284687 85.1399268,114.807655 80.293133,113.100639 C79.2871069,117.562519 75.5174342,120.54261 70.4913511,121.61293 C69.1013075,121.919954 68.0075856,121.908146 65.1630986,121.708516 C64.1070715,121.634402 63.5734924,121.603402 62.9683687,121.588159 C59.906445,121.51103 58.1188937,122.078142 56.85,123.77 C55.6409003,125.382133 53.0761837,124.396313 53.2581725,122.389381 C53.3233252,121.670892 53.3705332,120.99691 53.4390261,119.845272 C51.1098445,121.28109 48.0988802,121.897114 43.6952442,122.278183 C37.9874813,122.521681 32.285335,121.680206 26.8892992,119.797717 C22.8345128,118.378541 20.6420784,114.180376 19.1366906,107.93963 C17.1353152,98.8404012 16.3838678,89.5107863 16.9012713,80.2487017 C17.0965588,74.7741418 17.8518866,69.3781184 19.2896006,62.067252 C19.2912376,62.0589282 19.2928717,62.0506195 19.2945032,62.0423255 C19.041753,61.8033991 18.8480759,61.4954062 18.7461293,61.1365542 C18.6842513,60.9187436 18.3645832,59.6108855 18.2639755,59.2409271 C18.1458195,58.8064398 18.0362532,58.4581463 17.935445,58.2016738 C17.9233962,58.1710197 17.9117708,58.1424643 17.9006855,58.1161518 C17.8742714,58.1205421 17.8363308,58.1272664 17.7809324,58.1366907 C17.4227748,58.1976203 16.9311361,58.3928726 16.1507461,58.7825697 C16.0324108,58.8416618 15.9161098,58.9005766 15.7331876,58.9938376 C15.09778,59.3177937 14.9037487,59.4148565 14.5713384,59.5690317 C10.8750404,61.2583231 7.01218278,62.5563543 3.04581603,63.4419386 C1.44633025,63.7990613 0.119821687,62.18635 0.778805714,60.6858063 C1.71012248,58.5651456 2.60596998,57.0534028 4.7078399,53.8244597 L4.7078399,53.8244597 C7.08878702,50.1667918 8.03722942,48.496324 8.88523667,46.1433922 C10.9687541,40.5360734 11.6398312,37.9508289 11.5419014,34.6371898 C11.513218,33.9798623 11.514364,33.9863857 10.8446966,30.4556149 C10.6946926,29.6647302 10.5811435,29.0336905 10.4807819,28.4184024 C9.90043068,24.8604348 9.86583572,22.4963785 10.7617468,20.7546773 C11.4308349,19.4547991 12.37216,18.6071007 13.4444352,18.3079989 C14.303588,17.9332899 15.7212503,17.3111121 16.0960392,17.1478049 C19.84782,15.5130371 22.3917567,14.5127954 25.0218237,13.7173204 C25.8196582,13.476012 26.596835,13.2648692 27.3496769,13.0860874 C32.0600487,11.9464288 36.9008253,11.4368734 41.7838053,11.5722011 C47.5843629,11.8445623 50.9499768,16.4038649 53.6332853,24.5911266 C54.1814701,26.2637379 55.6630772,31.4269144 55.8010472,31.8701706 C56.3466442,33.637905 56.7021402,35.4222242 57.0064592,37.6734877 C57.096408,38.3389029 57.1628712,38.883416 57.2989728,40.0414492 C57.4853084,41.626902 57.5983802,42.5301182 57.7267679,43.3673515 C59.6470418,43.0428955 61.6301431,41.9894225 64.8564414,39.878543 C65.0768957,39.7342604 65.2155007,39.6435855 65.336158,39.5647998 L65.4764215,39.4732937 C67.955239,37.8576113 69.7225585,36.8649312 71.4694294,36.2852674 C67.3782912,34.6145975 64.5624293,30.2741246 63.201906,24.9337525 C61.6263533,18.7493403 63.2123121,8.06036019 67.6733327,5.46181573 C68.6944005,4.86704369 70.0057831,5.28248002 70.4981296,6.35669058 C71.6869128,8.95039926 73.1406494,10.6741545 76.2495424,13.5522501 C76.429748,13.7190778 77.0588924,14.2993186 77.0837624,14.3222878 C77.4228717,14.6354788 77.6833391,14.8776119 77.9382017,15.1172815 C78.879408,16.0023799 79.6343075,16.7538085 80.3513011,17.5352774 C82.1445909,19.482886 82.9737488,21.6019609 83.0196006,24.0122869 C83.0405385,25.1129411 82.9683366,25.9199417 82.6903433,27.2797523 C82.822005,27.0733775 82.9655309,26.841556 83.117558,26.5898709 C83.2014709,26.4509507 83.2885874,26.3052706 83.3802346,26.1507239 C83.5182246,25.9180282 83.6601178,25.6760952 83.8373547,25.371936 C83.8847282,25.2906375 84.1853572,24.7737897 84.2678754,24.6324138 C84.6124246,24.0421081 84.8183857,23.699444 84.9909302,23.4380898 C85.5150184,22.6442503 86.5257211,22.329385 87.4079367,22.6851171 C87.7033089,22.8042188 87.987744,22.9175162 88.2624013,23.0252318 C88.0770029,20.2542656 89.041563,17.0830413 90.6853852,13.987643 C93.6767854,8.23218899 97.1457927,5.31967915 102.694918,4.577645 C104.138548,4.38460139 105.297786,5.75000653 104.873084,7.14319071 C104.05905,9.81352617 104.364089,12.2595577 105.737245,15.5633933 C107.425437,19.6313267 107.437794,22.3909278 106.195112,27.5853378 L106.253299,27.3360539 C106.775177,27.7678257 107.299382,28.2687617 107.845223,28.8480209 C107.96603,28.9761577 108.083144,29.1053401 108.196594,29.2355047 C109.275126,28.588883 110.455862,28.2541643 111.880308,28.1487666 L111.884653,28.0236513 C112.327567,21.5419798 113.228565,18.9770849 116.90296,13.9694443 C120.291811,9.39509454 121.787174,6.3726306 122.211517,2.43567252 Z M96.0519642,119.061981 L95.9909532,119.256674 C94.8097751,123.025377 93.885735,127.130571 93.9197492,129.27833 C93.9372402,130.382761 93.0561012,131.292258 91.9516702,131.309749 C90.8472392,131.32724 89.9377418,130.446101 89.9202508,129.34167 C89.8834053,127.015141 90.6763714,123.128703 91.7841544,119.344658 C91.2658212,119.550323 90.742108,119.815252 90.222623,120.138791 C89.5645505,120.530322 88.956238,120.999976 88.4109231,121.537524 C86.7847226,123.171452 86.7515316,124.207779 87.7673749,129.507662 C87.8539822,129.959512 87.9244556,130.340236 87.9891092,130.709845 C88.2992484,132.453921 88.9750174,133.611222 90.82805,135.954569 L91.0205807,136.19801 C91.4099126,136.690609 91.7518306,137.134939 92.0545672,137.548236 C93.4331065,134.786389 95.0749842,132.168318 96.9488849,129.744965 C99.4434911,126.353422 99.8079844,124.502479 98.4507058,121.335491 C97.9605105,120.187658 97.1100876,119.430191 96.0519642,119.061981 Z M114.599992,109.520101 L114.529691,109.534285 C113.250929,109.801133 111.669834,110.1834 109.724904,110.690607 C109.439187,110.765118 109.201718,110.826853 108.983215,110.883343 C109.020487,112.774366 109.2914,114.655565 109.789654,116.484229 C110.080029,117.549948 109.451489,118.649279 108.385771,118.939654 C107.320052,119.230029 106.220721,118.601489 105.930346,117.535771 C105.421701,115.66897 105.115021,113.755499 105.013984,111.828215 C104.275934,111.982675 103.593055,112.10738 102.9547,112.202686 C102.609762,115.453779 103.066602,118.7465 104.29088,121.782212 C104.967531,123.434916 108.413597,126.139599 110.849187,127.209765 C110.84227,127.092916 110.83391,126.963812 110.819386,126.744887 C110.705669,125.030698 110.70913,124.230191 110.948875,123.140557 C111.280417,121.668509 111.840086,120.552826 113.091726,118.50376 C113.813366,117.32236 114.010429,116.987006 114.265014,116.477943 C115.695435,113.567036 115.816623,111.917098 114.599992,109.520101 Z M64.8445114,101.435757 L64.7382119,101.492435 C62.2624073,102.885909 59.8048423,106.581248 58.6240071,110.450152 C58.1275901,112.087904 57.8400617,114.029207 57.6417311,116.706074 C57.6022706,117.238672 57.5759486,117.635276 57.5325009,118.364662 C59.0992089,117.753153 60.9252788,117.535425 63.0690962,117.589428 C63.7523176,117.606638 64.3292859,117.640159 65.4431361,117.71833 C67.8586242,117.887853 68.7658143,117.897647 69.643416,117.703867 C73.6231286,116.856335 76.2176623,114.616444 76.5285521,111.320405 C76.3772909,111.238717 76.2204465,111.152944 76.057631,111.063377 C75.9017661,110.977634 75.0125238,110.485629 74.761817,110.34822 C74.2824988,110.085513 73.8969098,109.879473 73.5302545,109.691709 C70.5936564,108.187884 68.5805271,107.793126 66.1050513,108.494297 C64.6747849,108.899416 63.318103,107.657971 63.5950039,106.197454 C63.7382592,105.441853 63.9161115,104.793225 64.1954402,103.926539 C64.2371971,103.796978 64.3737487,103.378885 64.3890399,103.331737 C64.4591512,103.11556 64.5105513,102.952483 64.5567235,102.798154 C64.708789,102.289882 64.804676,101.858442 64.8445114,101.435757 Z M41.6347452,15.5692366 C37.1440528,15.4451231 32.6567466,15.9174711 28.2821449,16.9758731 C27.6021641,17.1373685 26.9026043,17.3274244 26.1798331,17.5460296 C23.8805287,18.241464 21.599962,19.1257965 18.3245525,20.541113 C18.7426669,21.046581 19.1552077,21.6263518 19.5681,22.2762211 C21.2139415,24.8666828 22.9408128,28.902551 23.3431591,30.7396866 C25.4462475,40.2854413 26.0689083,48.8873852 24.6090248,55.9927679 C24.5409969,56.3236491 24.4927938,56.5576216 24.3765223,57.1214982 C23.7305252,60.2537781 23.5209262,61.2805249 23.2144282,62.8390866 C21.814009,69.9603066 21.0850567,75.1679043 20.8968915,80.4314641 C20.3979139,89.3707 21.1200365,98.3362323 23.0342054,107.040889 C24.2214325,111.961286 25.9243227,115.222051 28.208791,116.021616 C33.1252437,117.736794 38.3224402,118.503753 43.436967,118.287499 C48.6412657,117.835547 51.3043543,117.039878 53.0684841,114.905744 C53.2827864,114.646494 53.5487305,114.455094 53.8390329,114.334133 C53.9158086,113.625201 54.0037353,112.961585 54.1061277,112.332797 C51.8783672,110.724122 50.6613466,108.399203 50.2841444,105.167439 C49.9748893,102.580942 50.2639732,100.475879 51.1019736,97.7008802 C51.1834758,97.4309892 51.2700916,97.1531592 51.3791469,96.8098928 C51.4302092,96.6491671 51.6176424,96.0630778 51.6581363,95.9357915 C51.7669253,95.5938309 51.8634714,95.2844527 51.9503612,94.9973936 C51.6880275,94.9218253 51.4272279,94.8399859 51.1682569,94.752389 C50.9262104,94.6829195 51.0779608,94.7271506 50.2426307,94.4832024 C49.5487102,94.2805512 49.143284,94.1653236 48.7141229,94.0514291 C45.9823215,93.3264395 44.3663812,93.3157504 43.1667834,94.1024432 C41.5218772,95.1811679 39.4713014,93.48647 40.2209184,91.6678338 C40.7362152,90.4176789 41.1942203,89.1299272 41.8298718,87.200373 C41.8916473,87.0128502 41.9558696,86.8170899 42.0334884,86.5798723 C42.1352543,86.2686635 42.1352543,86.2686635 42.2372285,85.9566802 C43.8746898,80.9489923 44.8089013,78.6297845 46.445845,76.1717892 C48.3183421,73.3600927 50.734112,71.3454449 53.8996969,70.1510491 C51.4675823,67.3994467 49.9721842,63.477637 50.0706082,59.5406791 C50.1247147,57.3472868 50.6997491,55.8075305 52.1928102,52.9317439 C52.4607498,52.4156652 52.4583961,52.4202076 52.550669,52.2400335 C53.951691,49.5043657 54.2294968,48.0917161 53.4560243,46.1801827 C53.1545477,45.4351237 53.3337914,44.6604938 53.7952562,44.1238818 C53.649217,43.1871779 53.5290265,42.2331316 53.3263157,40.5083489 C53.1928809,39.3730069 53.1283579,38.8443891 53.0425115,38.2093222 C52.7652302,36.1580755 52.4500911,34.5763174 51.980377,33.054424 C51.8221875,32.5462309 50.351939,27.4226374 49.8322243,25.8368934 C47.6270256,19.1084317 45.1360755,15.7340116 41.6347452,15.5692366 Z M98.7651607,112.351235 L98.6805831,112.495789 C98.2744457,113.211933 97.8393847,114.160394 97.4033979,115.249542 C97.9258939,115.430015 98.4266701,115.661447 98.8994641,115.946402 C98.8177311,114.757404 98.8250455,113.561181 98.9219851,112.368003 C98.8697266,112.363298 98.8173458,112.357445 98.7651607,112.351235 Z M36.5693291,107.000608 C37.3915541,107.020894 38.1739399,107.358962 38.7522104,107.943829 C39.5288173,108.729294 39.5216364,109.995603 38.7361712,110.77221 C38.0282295,111.472168 36.9296755,111.535419 36.1511146,110.965992 C35.2028676,110.789267 34.4960536,109.945919 34.5206084,108.950671 C34.5478521,107.846437 35.4650956,106.973365 36.5693291,107.000608 Z M67.4200618,79.9556007 L67.3861956,79.9937214 C64.8231483,82.9685671 64.3562504,86.670127 65.8263314,90.8976268 C66.047875,91.4980101 66.2579851,92.0237095 66.6759046,93.0396361 C66.8108084,93.3674244 66.8753842,93.5245274 66.9465995,93.6986764 C67.9314453,96.1070039 68.4282462,97.596217 68.7224138,99.3489655 C69.0023538,101.016941 68.8685,102.341595 68.3888913,103.944666 C68.368705,104.012138 68.3480805,104.079774 68.326308,104.149942 C70.6040807,104.135045 72.7996456,104.823581 75.353483,106.131395 C75.7583414,106.338722 76.174881,106.561301 76.6843334,106.840524 C76.9436381,106.982646 77.8366304,107.476725 77.9856114,107.558682 C79.2332411,108.24502 80.0792514,108.679153 80.9647532,109.069052 C84.6319314,110.680879 91.1347265,110.146959 92.1119663,107.785296 C92.2708444,107.401341 92.535498,107.093186 92.8581964,106.880622 C92.7859904,106.409268 92.7475423,105.90821 92.7438437,105.379415 C91.8424413,105.3633 90.7340593,105.272163 88.8616154,105.093458 C88.108842,105.021613 87.6739107,104.982072 87.2067327,104.944763 C83.3335909,104.635453 81.2415311,104.962602 80.2597045,106.110192 C79.091578,107.475534 76.8554224,106.727563 76.7438587,104.934177 C76.5876584,102.423257 75.7710376,100.710446 73.5517106,97.5642255 C73.4563517,97.4290404 73.3374424,97.2609982 73.1194074,96.952876 C71.1596685,94.1805799 70.2317485,92.5879532 69.5161707,90.3527267 C68.5393049,87.3174651 68.6843929,84.5501925 69.7991715,81.88005 C68.9273194,81.2948879 68.1333227,80.6522876 67.4200618,79.9556007 Z M120.022578,87.9464855 L119.989122,87.9942524 C118.451921,90.1082839 116.44456,91.8592376 114.105869,93.0975264 C114.010034,93.148269 113.911942,93.1904413 113.812471,93.2243134 C113.73333,93.5224553 113.676304,93.7391812 113.652063,93.8319988 C113.585858,94.0854948 113.522146,94.3303092 113.460375,94.5686137 C112.347637,98.8614675 111.693807,101.822679 111.739429,102.26464 C112.009934,104.885154 108.100295,105.336835 107.766153,102.723672 C107.627072,101.635992 107.102579,100.017591 106.199266,97.7839541 C106.122744,97.5947367 106.043484,97.400901 105.960172,97.1991215 C105.923403,97.1962507 105.886989,97.1931784 105.850614,97.1900859 C104.287107,101.005499 100.812882,103.824226 96.7449683,104.899858 C96.6002956,107.175673 97.2543004,108.013003 98.7566513,108.304273 C100.542655,108.650537 103.10804,108.261037 107.607694,107.107068 C107.932383,107.023799 108.261918,106.938351 108.715525,106.820058 C112.705912,105.779427 114.031863,105.467394 115.808362,105.234723 C117.238815,105.047375 118.471503,105.028863 119.524863,105.238894 C120.744885,102.878228 122.875852,101.332916 126.668316,99.3423817 C126.889817,99.2262298 126.889817,99.2262298 127.108954,99.1114027 C131.901362,96.5988278 133.287689,95.1381908 132.805962,91.5285153 C128.554954,93.303647 123.520141,91.7700001 120.022578,87.9464855 Z M138.730656,84.8077488 L138.636937,85.0940245 C138.192781,86.3974636 137.628101,87.492877 136.907547,88.3746109 C136.689083,88.6458246 136.464044,88.9019869 136.233041,89.1433657 C136.415922,89.3810512 136.546094,89.6647695 136.60543,89.9797517 C136.6229,90.072488 136.639476,90.1647134 136.65516,90.2564309 C136.685233,90.3014565 136.714681,90.3489583 136.742364,90.3980804 C138.348808,93.2486305 140.22183,95.9404943 142.336299,98.4375561 C143.050096,99.2805078 142.945396,100.542502 142.102444,101.256299 C141.259492,101.970096 139.997498,101.865396 139.283701,101.022444 C138.10976,99.6360896 137.004906,98.1939954 135.972845,96.7014871 C135.668967,97.3349027 135.285579,97.9292027 134.825816,98.4865649 C134.061876,99.4126765 133.265144,100.11434 132.127008,100.857113 C133.356563,103.09592 135.232284,104.925283 137.517924,106.097958 C138.492233,106.594354 139.549722,106.826742 142.093767,107.185608 C142.272318,107.210788 142.272318,107.210788 142.452477,107.236312 C143.900721,107.442009 145.097896,107.656992 146.120132,107.933046 C145.812429,107.047778 145.653555,106.474745 145.528242,105.754916 C145.1907,103.767697 145.086593,101.794427 145.115118,99.1732359 C145.121412,98.5949209 145.130479,98.1380603 145.154075,97.103796 C145.200784,95.0564863 145.210274,94.1467134 145.180669,93.0217387 C145.080272,89.1421037 142.641084,86.2702572 138.730656,84.8077488 Z M63.098489,94.8574722 L63.0670237,94.865417 C60.7367642,95.5919679 58.3045636,95.86879 55.9147785,95.7011185 C55.787913,96.1345941 55.6424236,96.6061156 55.4698933,97.148437 C55.4280838,97.2798584 55.2409731,97.8649395 55.1913817,98.0210352 C55.0876357,98.3475897 55.0063438,98.6083431 54.9311832,98.8572337 C54.2392247,101.148621 54.0215999,102.733331 54.2565143,104.698136 C54.4147763,106.054057 54.7336795,107.076735 55.2712182,107.881649 C57.0490626,103.096938 60.2968563,98.8040858 64.0841704,97.397277 C63.8651673,96.7670946 63.5901726,96.0587264 63.2442075,95.2127085 C63.1997586,95.1040137 63.1579859,95.0021857 63.098489,94.8574722 Z M40.8646279,80.039948 C41.9691679,80.0480268 42.8580253,80.9499824 42.8499465,82.0545224 C42.8418677,83.1590624 41.939912,84.0479198 40.8353721,84.039841 C40.020207,84.0338788 37.8786119,84.4194725 35.0151803,85.0742781 C34.5771062,85.1744563 34.1255693,85.2800391 33.6626694,85.3903838 C32.8938935,85.5736424 32.1146529,85.7649516 31.3405927,85.9594664 C31.8180763,86.4749754 32.2962803,86.9814155 32.7661287,87.4671281 C33.0165009,87.7259541 33.2611058,87.9753179 33.4990376,88.214087 C35.0066997,89.7270541 36.2226926,90.7683006 36.6205029,90.9343767 C37.8019812,91.4276152 38.2222141,92.8885152 37.4833934,93.9341343 C37.0041861,94.6123345 35.9516944,95.9626437 34.4617741,97.8281534 L34.4617741,97.8281534 L34.3614374,97.9537329 C34.1263872,98.2477998 33.8859391,98.547823 33.6418521,98.8516882 C34.4104736,98.864855 35.1739755,98.877799 35.9197181,98.89028 C36.2543344,98.8958728 36.2543344,98.8958728 36.5898415,98.9014482 C40.067035,98.9591425 42.4725428,98.9949903 43.2894518,98.9995136 L43.44,99 C44.5445695,99 45.44,99.8954305 45.44,101 C45.44,102.104569 44.5445695,103 43.44,103 C42.77629,103 40.2920399,102.963426 36.5234817,102.900898 C36.1876746,102.895317 36.1876746,102.895317 35.8527819,102.88972 C34.414537,102.865649 32.9104573,102.83986 31.4309259,102.814071 C30.5945839,102.799458 30.5945839,102.799458 30.008887,102.789142 L30.008887,102.789142 L29.4744069,102.779683 C27.8056657,102.749981 26.905258,100.809976 27.9597966,99.5163271 C28.0103914,99.4542605 28.0103914,99.4542605 28.2407104,99.1710953 C28.4648093,98.8954041 28.7145833,98.5875926 28.9835948,98.2554019 C29.7520183,97.3065091 30.5203586,96.3527325 31.2369085,95.4562703 L31.2369085,95.4562703 L31.3362669,95.3319152 C31.9778604,94.5285845 32.538776,93.8198967 32.9999762,93.2293202 C32.3183007,92.6527996 31.5466063,91.9216011 30.6656475,91.0375424 C30.4132911,90.7842981 30.1548787,90.5208579 29.8911402,90.2482144 C29.0250435,89.3528743 28.138174,88.3969758 27.2768819,87.4414903 C26.9756744,87.1073418 26.6989645,86.7968772 26.4526972,86.5178473 C26.3039749,86.3493395 26.1977368,86.2279316 26.1399616,86.1614054 C25.1721123,85.04696 25.7035926,83.3039667 27.1285996,82.9191604 C27.2128401,82.8964122 27.3696438,82.8544409 27.5902285,82.7959838 C27.9564298,82.6989368 28.3687857,82.5908965 28.8185338,82.4745963 C30.103544,82.142306 31.4322438,81.8099892 32.7351493,81.4994063 C33.2096253,81.386302 33.6730546,81.2779384 34.1234839,81.1749349 C37.3319567,80.4412258 39.6115643,80.0307829 40.8646279,80.039948 Z M76.5017922,79.0170708 L76.4858658,79.0334824 C73.2745613,82.5268328 72.1809263,85.5761109 73.3247721,89.1302106 C73.8821598,90.8712978 74.6479122,92.1855895 76.3857105,94.643923 C76.6018917,94.9494232 76.7229519,95.1205051 76.8203331,95.2585571 C78.5399639,97.6963855 79.5996116,99.5193558 80.1840963,101.4613 C82.0347057,100.791029 84.3993395,100.707829 87.5251598,100.957457 C88.0184727,100.996853 88.4695451,101.037862 89.2416469,101.111552 C91.917077,101.366894 92.8749974,101.425453 93.8831809,101.346158 C97.1326799,101.090579 100.098508,99.302055 101.630986,96.7127894 C93.3486667,95.5090446 87.4041122,92.8770527 83.6501557,87.6786862 L83.4537828,87.792994 L83.4537828,87.792994 L83.1977298,87.9318119 C82.2229591,88.4422069 81.5001763,88.7084514 79.8760616,89.2242565 C78.1455615,89.7738486 77.4171123,90.0752246 76.5644772,90.6701744 C75.220913,91.6076836 73.3818258,90.6205767 73.420559,88.9827159 C73.4600483,87.3128823 74.2689762,85.4800231 75.7157232,83.2270397 C76.1397152,82.5667675 76.6133761,81.8802561 77.1653914,81.1172336 C77.298156,80.9337199 77.6345085,80.4804467 78.0252924,79.9538658 C77.5172408,79.7381223 77.0050212,79.4177084 76.5017922,79.0170708 Z M99.8191319,45.2627929 C104.07209,54.815359 106.270402,65.1742188 106.249985,75.6677369 C106.247965,76.1899879 106.244425,76.5979696 106.234598,77.5597689 C106.214415,79.5351308 106.211675,80.4339316 106.231579,81.5337412 C106.300205,85.3256833 106.675157,88.1400109 107.556355,90.6076898 C107.740911,91.1078893 107.984818,91.7109793 108.341882,92.5583472 C108.453831,92.8240184 109.018686,94.150872 109.278892,94.7665254 C109.37717,94.3820638 109.480306,93.9817357 109.588339,93.5649538 C109.650744,93.3242009 109.715071,93.0770271 109.781876,92.8212323 C109.919322,92.2949547 111.046419,88.0285706 111.281379,87.1083208 C112.179039,83.5689747 112.398991,81.3713225 111.833181,79.6540952 C111.82338,79.6247787 111.26643,77.9801028 111.135622,77.5739369 C110.905299,76.8587689 110.750206,76.2994288 110.635236,75.738149 C110.339493,74.2943519 110.329329,72.8934849 110.582497,70.666766 C110.95103,67.3856338 110.859573,66.4730894 109.827864,65.059904 C109.308795,64.3401866 107.558959,62.2634304 107.230281,61.7947784 C105.964213,59.9895348 105.646612,58.17808 106.222716,55.4788546 C106.870585,52.3946354 106.596023,50.9316944 104.841647,48.7636087 C103.960486,47.6682431 101.802769,46.2447561 99.8191319,45.2627929 Z M99.6063674,74.9660743 L99.5986569,74.9826793 C98.4264725,77.2575373 96.6139574,78.3838075 92.7106976,80.0527519 L92.7106976,80.0527519 L92.6128059,80.0946085 C90.2717318,81.0957186 89.289072,81.6179902 88.4385047,82.4178096 C88.0177438,82.8072373 87.6561176,83.2459628 87.151968,83.9523807 C87.0609827,84.0798699 86.9692775,84.2100478 86.7793474,84.4801803 C86.6965848,84.5976163 86.6156297,84.7111891 86.5361766,84.8211211 C89.7384625,89.6540011 95.5525413,92.0307051 104.198,93.0078328 C104.043867,92.6251819 103.913556,92.290052 103.796516,91.9726728 C102.735314,89.0013058 102.308028,85.7941713 102.232234,81.6061208 C102.211422,80.456169 102.214241,79.5317788 102.234807,77.5189016 C102.241006,76.9121489 102.244675,76.5285073 102.247029,76.1990156 C102.111435,76.1378103 101.940813,76.0593955 101.739016,75.966171 C101.126537,75.6832223 100.444596,75.3641332 99.7104138,75.0155111 C99.6757316,74.9990425 99.6410493,74.9825635 99.6063674,74.9660743 Z M57.5885538,73.0038221 L57.536309,73.048669 C57.317636,73.2277096 57.0573528,73.363015 56.7654982,73.4376485 C51.144484,74.875062 49.0319746,78.0471554 46.0391352,87.1998637 C45.9374162,87.5110665 45.9374162,87.5110665 45.8351528,87.8237967 C45.7567681,88.0633551 45.691756,88.2615227 45.6290312,88.4519271 C45.5077407,88.820111 45.3923877,89.1666366 45.281431,89.4954252 C46.5959513,89.4888172 48.0543837,89.7378758 49.7401604,90.1852621 C50.2097563,90.3098876 50.6402755,90.4322469 51.3639448,90.6435859 C52.1876907,90.8841511 52.0389556,90.8407988 52.3598621,90.9351184 C52.895796,91.1160921 53.4392033,91.266738 53.9875793,91.3870561 C54.2740417,91.316213 54.5809839,91.3089208 54.8889231,91.3765351 C55.1257479,91.4285349 55.3434765,91.5205163 55.5365752,91.6438324 C57.5971449,91.8809259 59.6936119,91.6996009 61.6983961,91.1010396 C60.6490046,87.4230234 60.7733785,83.9222778 62.1558929,80.8202968 C57.182303,81.7646404 53.0678019,83.5979709 50.7805985,86.3173493 C50.0696151,87.1626755 48.8079769,87.2715819 47.9626507,86.5605985 C47.1173245,85.8496151 47.0084181,84.5879769 47.7194015,83.7426507 C51.0848258,79.7413177 56.8309792,77.4692628 63.5663105,76.538815 C64.0396255,76.4734292 64.4971032,76.579377 64.8761127,76.8092316 L64.9248327,76.7563272 C64.3722455,75.8010222 63.9265484,74.7809025 63.5900154,73.7000137 C61.4560922,74.1892641 59.4120657,73.8810195 57.5885538,73.0038221 Z M129.383477,52.5060048 C126.420992,50.1137049 124.64316,50.3588711 119.793327,53.5275155 L119.51722,53.7077218 C120.377741,55.2099212 121.141266,56.8725809 121.807431,58.670613 C125.035146,67.460759 125.228414,76.3918019 122.06594,84.222856 C122.183505,84.3178723 122.292546,84.428282 122.389684,84.5533791 C125.611518,88.7025665 130.768634,89.6193333 133.801313,85.8544687 C134.619719,84.8529494 135.234614,82.9781087 135.621206,80.4281047 C135.846809,78.9400067 135.953047,77.7072535 136.102539,75.3392509 C136.230386,72.8045546 136.708063,71.0173207 137.688165,69.1188323 C137.919724,68.6702955 138.621718,67.483083 139.260455,66.4035504 C137.696797,65.4149199 136.703986,63.9873674 135.72983,61.7892187 C135.617649,61.5360866 135.246282,60.6738742 135.177409,60.513522 L135.168049,60.4915926 C134.94206,59.9703004 134.760281,59.5672594 134.561967,59.1549961 C133.343827,56.5790345 131.570688,54.3045885 129.383477,52.5060048 Z M109.982652,49.6622953 L110.026666,49.7833862 C110.697243,51.6927569 110.681286,53.7113674 110.135947,56.3074564 C109.782864,57.9617927 109.901225,58.6368755 110.505164,59.4980117 C110.702839,59.7798704 112.429875,61.8295659 113.065306,62.7106837 C114.855405,65.1625771 115.030097,66.9056172 114.557197,71.1159346 C114.347366,72.9614937 114.354632,73.9627941 114.553871,74.9354698 C114.695703,75.6278832 114.455562,74.8822292 115.629539,78.3940984 C116.454428,80.8975411 116.268795,83.470683 115.363413,87.2609335 C116.543505,86.0938103 117.499344,84.7090339 118.170238,83.1756053 C121.132537,76.227667 121.020679,68.1325385 118.05458,60.0548382 C116.128176,54.8553318 113.372993,51.1725339 109.982652,49.6622953 Z M92.1207982,71.210025 L92.0450355,71.2745437 L92.0450355,71.2745437 L91.9294373,71.3704708 C91.5861577,71.6557151 91.2031309,71.9774757 90.7904147,72.3285626 C89.6120757,73.3309447 88.4341949,74.3654807 87.3383813,75.3733512 C86.9626028,75.7189721 86.6024586,76.0560647 86.2600264,76.3830891 C84.7346802,77.8398018 83.6160298,79.0458093 83.0667427,79.8450059 C82.6545961,80.4429759 80.7287196,83.0160335 80.4062052,83.4618287 C79.9342072,84.1142473 79.5290125,84.6990581 79.1711878,85.2495961 C80.2207884,84.9084788 80.7309741,84.7082659 81.3422702,84.3881881 C82.1158731,83.9831257 82.595818,83.4727189 83.5097267,82.1759276 C83.6967806,81.9098561 83.7967935,81.7678851 83.896087,81.6287544 C84.545,80.7194932 85.0609341,80.0935609 85.7098406,79.4930638 C87.0104845,78.2698877 88.2617238,77.6048694 91.0400588,76.416774 L91.0400588,76.416774 L91.1381107,76.3748489 C94.0834703,75.1154806 95.3284255,74.3670534 96.0002359,73.2102726 C95.1654942,72.7945801 94.3455595,72.3776594 93.547993,71.9630079 C93.0578249,71.7081716 92.5816956,71.457031 92.1207982,71.210025 Z M83.9894252,47.979972 C80.7049092,46.8398125 78.851861,46.6176522 76.7962558,47.3685774 C75.182118,47.9582318 74.0061155,48.8200497 71.4535152,51.0884733 L71.4535152,51.0884733 L71.4045486,51.1319885 C69.1257737,53.1570354 67.6290469,54.3317633 66.031774,55.0980625 C66.1244712,55.3066443 66.1988955,55.4761034 66.2375001,55.5691702 C66.7637799,56.8379054 67.0453568,57.9574525 67.1364097,59.3902154 C67.2281819,60.9197527 67.1814744,62.1099134 66.9933547,64.6804901 C66.8560447,66.5567729 66.8131906,67.3589837 66.82,68.36 C66.82,72.8634962 68.5766402,76.2487104 72.0422828,78.5678246 L71.8116931,78.409769 C72.3983759,77.6163737 73.0679975,76.8250196 73.8163191,76.0309504 C72.5512069,74.1862705 71.5869704,72.0460804 71.2708132,70.279719 C70.6284487,66.6627124 72.0997047,63.8541396 75.464673,60.3630872 C75.1364736,60.1713113 74.8229664,59.9887621 74.735887,59.9372522 C72.0350089,58.3396077 70.5525057,57.0422651 69.7700049,54.9793085 C69.1389955,53.3157381 70.8313689,51.718186 72.4558344,52.4439621 C74.7785453,53.4816994 77.191332,54.3046404 79.6639924,54.9025063 C79.9079297,54.9469152 80.0346901,54.969233 80.6726354,55.0810188 C80.795304,55.1025137 80.9160732,55.1239276 81.0350062,55.1452931 C81.106492,54.9806966 81.2031018,54.824178 81.3235574,54.6796312 C82.8621063,52.8333726 85.1278805,50.872147 87.5721912,49.2004589 C86.8744364,48.9921312 86.0761099,48.7193818 84.9851709,48.3314487 C84.435862,48.1361169 84.2587103,48.0734494 83.9894252,47.979972 Z M75.4489228,67.1963176 L75.377985,67.3985316 C75.133467,68.1403266 75.0800195,68.852977 75.208713,69.5776234 C75.6258299,71.9080374 78.2773711,75.9411553 79.6141496,76.2820072 C79.9262509,76.3615868 80.2023095,76.5105487 80.4300414,76.7082006 C80.7318166,76.3391389 81.0802068,75.9438955 81.4722445,75.5236565 C80.2830798,71.2723097 77.8518902,67.6837095 75.4489228,67.1963176 Z M28.8388811,63.9645469 C30.5486688,61.5212898 33.7545526,60.0140184 36.793038,60.2144297 C40.4560836,60.4586327 43.1756749,63.0376193 43.7681699,67.3253069 C44.8956732,74.8938353 35.3009898,78.3496628 30.2598014,73.438091 C27.2261781,70.4637182 26.8041929,66.8720811 28.8388811,63.9645469 Z M78.9063648,62.5683965 L78.6603046,62.8160604 C78.3458969,63.1353163 78.0533212,63.4436253 77.7822725,63.7423935 C80.8281659,65.0539913 83.1933885,68.3811022 84.6665423,72.3951888 C85.793742,71.3604757 86.9964101,70.3045151 88.1986294,69.2818186 C88.2695608,69.2214791 88.3396523,69.161971 88.4088579,69.103327 C87.5625797,68.5893786 86.8279562,68.1069209 86.210314,67.6576838 C84.4127775,66.3275068 82.4767286,64.9755895 79.9990665,63.3034494 C79.6309321,63.0550006 79.2953564,62.8292219 78.9063648,62.5683965 Z M81.1053229,59.2268736 C81.5097479,59.498008 81.8557174,59.7307607 82.2366988,59.9878799 C84.7582541,61.6896429 86.7381104,63.0721503 88.5763434,64.4325278 C89.620924,65.1922228 91.1717943,66.132826 93.1198684,67.2017203 C93.832839,67.5929222 94.5926901,67.997853 95.3931128,68.4139893 C97.309568,69.4103463 99.3675665,70.4246614 101.426182,71.402183 C101.673718,71.5197241 101.91516,71.6338245 102.149802,71.7442121 C102.069095,70.2592028 101.942424,68.7791603 101.769349,67.3059905 C101.619293,67.2732453 101.471529,67.2232726 101.327865,67.1546392 C100.499662,66.7589796 99.608446,66.6426705 97.3866637,66.5696431 C97.1262805,66.56109 97.0074923,66.5570755 96.8604617,66.5516841 C95.2619507,66.4930687 94.232623,66.3871529 93.1537448,66.1048658 C91.2479738,65.6062232 90.0372929,64.7738692 88.4631854,63.1895594 C88.3379665,63.0635289 87.905082,62.6225347 87.9158657,62.6334794 C87.7064509,62.4209382 87.5463404,62.2614787 87.3880853,62.1090072 C87.1133181,61.8442816 86.8613388,61.6181742 86.611945,61.4147661 C85.1938129,60.2672699 83.8771648,59.7626943 81.1053229,59.2268736 Z M36.5276665,64.2056173 C34.8751795,64.0969067 33.0169401,64.9706952 32.1161189,66.2579531 C31.2273201,67.5280313 31.3942073,68.9484566 33.0556756,70.5774884 C35.5745587,73.0316002 40.3195085,71.322557 39.808833,67.8938198 C39.4710929,65.4501712 38.2826604,64.3228973 36.5276665,64.2056173 Z M73.351493,39.9034431 L73.3320143,39.9103154 C71.7855718,40.3142459 70.1912895,41.1748257 67.6606032,42.824316 C67.5004464,42.9287055 67.3550682,43.0237771 67.0464393,43.2257672 C63.1102855,45.8010857 60.6038626,47.0930812 57.8671506,47.4081306 C58.0664216,49.4908135 57.4339701,51.4799676 56.1109341,54.0633579 C56.0135707,54.2534719 56.0160082,54.2487679 55.7428631,54.7748729 C54.5196264,57.1309504 54.1038017,58.2443945 54.0693753,59.6399844 C53.9272233,65.3260652 58.339327,70.8287078 62.7310855,69.7933625 C62.7769411,69.7825522 62.8228003,69.7734147 62.8685989,69.7659104 C62.8359664,69.3106674 62.8200431,68.846046 62.8200469,68.3736983 C62.8123071,67.2436858 62.8588797,66.3718652 63.004023,64.3885432 C63.179315,61.993252 63.221264,60.9243455 63.1440276,59.6368627 C63.0830625,58.6776779 62.9084192,57.9832981 62.5427571,57.1017738 C62.425866,56.8199771 61.719469,55.2712446 61.4935849,54.7286034 C61.0293183,53.6132964 61.652266,52.3441389 62.8185626,52.0291704 C64.6509514,51.5343178 65.9521252,50.6261162 68.7474823,48.1420055 L68.7474823,48.1420055 L68.7964227,48.0985135 C71.3316835,45.8454991 72.7618773,44.7445708 74.5595837,43.9568789 C74.4208247,43.4048352 74.2652583,42.8813715 73.9818756,41.9847811 C73.7206885,41.1584149 73.513349,40.4829279 73.351493,39.9034431 Z M97.0789162,49.0377606 L96.8339066,49.0823898 C93.6450065,49.7260331 88.4279322,53.0672454 85.3592527,56.183707 C86.783957,56.6799002 87.9141143,57.3229701 89.1340157,58.310076 C89.4816056,58.5935474 89.8139599,58.8917774 90.1633856,59.2284329 C90.3507834,59.4089821 90.533484,59.5909397 90.7651718,59.8260866 C90.7620289,59.8228967 91.1856003,60.2544033 91.3007341,60.3702834 C92.4168693,61.4936526 93.0831841,61.95175 94.1662552,62.2351342 C94.8890745,62.424259 95.6809986,62.5057463 97.0070383,62.5543706 C97.1472772,62.559513 97.2600882,62.5633254 97.5180681,62.571802 C99.1047401,62.6239541 100.189215,62.698709 101.107066,62.8861517 C100.243265,58.1501553 98.8944182,53.5089961 97.0789162,49.0377606 Z M14.4662334,22.3202447 C14.4256959,22.3866153 14.3757185,22.4736813 14.3185013,22.5848406 C13.9632287,23.2755103 13.9896872,25.0835561 14.428609,27.77446 C14.5225401,28.350325 14.6304848,28.9502183 14.7746349,29.7102391 C14.8297511,30.0008349 15.0157516,30.9683228 15.026692,31.0255607 C15.1245776,31.5376741 15.1946807,31.9148289 15.2566793,32.2677591 C15.4205833,33.2007912 15.5129953,33.8875259 15.5391237,34.4908004 C15.6581615,38.5106181 14.8923458,41.4608323 12.6415586,47.5180391 C11.6626886,50.2344036 10.6053513,52.0966651 8.0631543,56.0020491 L8.0631543,56.0020491 C7.46222291,56.9252143 6.9701316,57.6924128 6.55208389,58.3668463 C8.71718061,57.6896547 10.8375772,56.8775147 12.898327,55.935727 C13.1574108,55.8155335 13.3305609,55.7289164 13.9163364,55.4302647 C14.1084435,55.3323209 14.2330216,55.2692131 14.3637188,55.203948 C17.0955047,53.8397982 18.9006665,53.5320284 20.6914442,55.1849488 C22.0155302,48.7376359 21.4295729,40.6451687 19.4363054,31.5978753 C19.1378208,30.2349835 17.5955501,26.6305452 16.1919,24.4212789 C15.5232423,23.3688495 14.899187,22.6363697 14.4662334,22.3202447 Z M42.6794623,33.7161393 C43.7530269,33.4562685 44.8339899,34.1158977 45.0938607,35.1894623 C45.3537315,36.2630269 44.6941023,37.3439899 43.6205377,37.6038607 C43.0051914,37.7528135 42.1327482,37.8998913 40.9609809,38.0615893 C39.9910062,38.1954409 38.8963926,38.3293107 37.3056577,38.5130906 C35.8981118,38.6757063 34.8336976,38.799214 34.0183327,38.8960806 C34.727535,39.8118445 35.6121562,40.8555928 36.8391088,42.2581295 L36.8391088,42.2581295 L37.1530536,42.6169805 C37.99708,43.5821023 38.4901858,44.1552463 39.011342,44.7855335 C39.5396703,45.4244946 39.6189855,46.3231795 39.210738,47.0448 C38.4295694,48.4255981 37.5081705,49.1201109 35.3016464,50.3977873 L35.3016464,50.3977873 L35.270458,50.4158466 C34.8385967,50.665915 34.4769234,50.8840181 34.1738944,51.0799347 C34.829164,51.2390154 35.5611913,51.3829819 36.3568282,51.5096629 C37.8105002,51.7411159 39.3818129,51.9023048 40.955111,52.0042924 C41.5072308,52.040083 42.0194025,52.0658461 42.4777306,52.0831957 C42.7491635,52.0934705 42.9395907,52.0986245 43.0352472,52.1003106 C44.1396451,52.1197771 45.0191559,53.0308492 44.9996894,54.1352472 C44.9802229,55.2396451 44.0691508,56.1191559 42.9647528,56.0996894 C42.8429827,56.097543 42.6257352,56.091663 42.3264233,56.0803329 C41.8335103,56.0616742 41.2857275,56.0341198 40.6963578,55.9959145 C39.0082576,55.8864849 37.318172,55.7131121 35.7278722,55.4599052 C33.2917771,55.0720311 31.3023299,54.5339755 29.8494906,53.7703537 C28.998105,53.3228599 28.5858241,52.3327164 28.8680148,51.4132183 C29.4746561,49.4365222 30.5761382,48.5118815 33.2660522,46.9542924 L33.2660522,46.9542924 L33.2972487,46.9362284 C33.9558442,46.5548721 34.4380844,46.2580443 34.7979311,46.002996 C34.6040365,45.7792774 34.3886988,45.5322388 34.1420432,45.2501946 L34.1420432,45.2501946 L33.8285181,44.8918233 C31.2482306,41.9422816 30.0528159,40.4363834 28.8502905,38.4110775 C28.1732209,37.2707497 28.7732669,35.7992389 30.0546747,35.4575301 C30.918061,35.2272938 31.2096728,35.1907618 36.8465856,34.5395213 C38.4100318,34.3588941 39.4808373,34.2279361 40.4141827,34.0991391 C41.4619915,33.9545468 42.228136,33.825389 42.6794623,33.7161393 Z M116.276471,32.3738657 C113.238124,31.9855785 111.545728,32.0089807 110.29491,32.6840093 C111.898613,36.9239925 110.445616,41.5641591 106.649299,44.9298009 C106.761865,45.0260343 106.870098,45.1227663 106.974726,45.2193338 C107.324003,45.0382627 107.731615,44.9609097 108.151834,45.0185595 C111.752184,45.5124919 114.788146,47.4290407 117.254495,50.4095451 C120.225498,48.4315351 121.689575,47.6485828 123.624949,47.1911308 C126.470574,46.5185284 129.182231,47.2021196 131.910257,49.4051869 C131.974278,49.4578294 132.037999,49.5107976 132.101417,49.5640886 C132.64023,47.2009412 132.686455,46.9306006 132.674034,46.141356 C132.656115,45.0027365 132.22995,43.9637291 131.080008,42.6098553 C130.294646,41.6914888 127.820427,39.0876646 127.381599,38.574203 C125.806204,36.7308731 124.897119,34.9377754 124.484714,32.4870156 C123.514951,32.7446248 122.568806,32.8727827 121.588587,32.8916063 C120.843583,32.9059129 120.089659,32.8596279 119.179123,32.7563505 C118.829348,32.7166773 118.468685,32.6704087 117.978481,32.6036781 C117.99741,32.6062548 117.017975,32.4715228 116.727475,32.4327847 C116.570404,32.4118393 116.42184,32.3924154 116.276471,32.3738657 Z M87.5056601,27.0206589 C87.1787594,27.5765434 86.870918,28.1038337 86.8233642,28.1861214 L86.8179568,28.195414 C86.7723059,28.2727235 86.724914,28.3523156 86.6784158,28.430055 L86.541417,28.6580076 C85.7182813,30.020732 85.1410084,30.8625729 84.5957678,31.3710539 C83.6557903,32.2497284 82.7753493,32.5879024 80.7833744,33.1082418 L80.7833744,33.1082418 L80.5572967,33.1673551 C79.4408,33.4602881 78.9144289,33.650991 78.5451773,33.9096856 C76.4556043,35.3690699 76.4186722,36.4218953 77.7959021,40.7792929 C78.1016958,41.7467889 78.2750492,42.3301427 78.4392041,42.9806254 L78.4304433,42.9434231 C80.463329,42.7943233 82.5628969,43.2506313 85.3011666,44.2011714 C85.5835886,44.299209 85.7657736,44.363657 86.3253435,44.5626375 C88.2470629,45.2459925 89.1378203,45.5265853 90.1946804,45.7393299 C90.8265419,45.8665228 91.3284267,46.2785555 91.5935692,46.8148461 C92.9371734,46.1396495 94.247572,45.6147849 95.4356971,45.304176 C95.0760792,44.5482338 94.7026371,43.7973031 94.3154493,43.0524802 C93.6631356,41.7976417 94.4837507,40.2806498 95.8909926,40.1399256 C97.684715,39.9605534 100.624108,41.0509523 103.241822,42.5540194 L103.266038,42.5329794 C107.331762,39.4679102 108.182088,35.0363175 104.934422,31.5916023 C102.708524,29.2294251 101.373521,28.8080283 97.1338116,28.8797142 C93.635543,28.9388636 91.316159,28.468662 87.5056601,27.0206589 Z M147.22682,23.6973008 C143.465889,23.5635702 140.666275,23.8572958 138.191747,24.7828456 C133.873746,26.4007828 129.677665,30.7488561 129.779101,34.130027 C129.787746,34.4182113 129.734985,34.6939825 129.632651,34.9447754 C129.861028,35.286449 130.123485,35.6256945 130.422374,35.9754164 L130.351702,35.8921363 C131.950897,33.3171166 134.826649,30.8485332 138.4306,28.4458994 C139.349657,27.8331945 140.591396,28.0815422 141.204101,29.0005996 C141.816806,29.919657 141.568458,31.1613957 140.6494,31.7741006 C136.958952,34.2343996 134.084982,36.8731609 133.23223,39.0168057 C133.590156,39.4083503 133.906144,39.7600936 134.124343,40.0152495 C134.870686,40.8939378 135.441332,41.7501982 135.851637,42.6092713 C141.741101,41.222568 145.273104,38.9618812 146.801963,34.792268 C147.134112,33.8852448 147.284969,32.898304 147.505081,30.5683414 C147.534439,30.2573168 147.548147,30.113043 147.564786,29.9417028 C147.819683,27.3168554 148.206223,25.3059611 148.93753,23.7799088 C148.31022,23.7422483 147.789175,23.7172969 147.22682,23.6973008 Z M68.3099996,10.6789177 C66.7781,13.8843254 66.1399148,20.2636749 67.078094,23.9462475 C68.2291718,28.4644967 70.5944794,31.9128542 73.544818,32.7814118 C73.6280425,32.8059125 73.7084693,32.8353478 73.7858734,32.8693049 L73.729729,32.7985406 C70.6647954,28.4856383 68.5124071,23.5925424 67.4043494,18.4188443 C67.173028,17.3387683 67.8610797,16.2756707 68.9411557,16.0443494 C70.0212317,15.813028 71.0843293,16.5010797 71.3156506,17.5811557 C72.3097107,22.2225803 74.2406598,26.6122713 76.990271,30.4814594 L76.8394406,30.2636709 C77.1810281,30.0741793 77.5410396,29.9163757 77.9612733,29.7673959 L78.0133021,29.7484669 C78.0562876,29.5663481 78.1029404,29.3716527 78.1571573,29.1475019 C79.432575,23.8745042 79.4047642,22.412556 77.4063036,20.2421165 C76.7624058,19.5403205 76.0733351,18.854418 75.1979626,18.0312289 C74.9533203,17.8011704 74.7009077,17.566525 74.3698608,17.2607803 C74.3474322,17.2400659 73.7156643,16.6574054 73.5321689,16.4875323 C71.1180615,14.2526429 69.5396462,12.5714386 68.3099996,10.6789177 Z M35.11,25.41 C36.2145695,25.41 37.11,26.3054305 37.11,27.41 L37.11,27.41 L37.11,28 C37.11,29.1045695 36.2145695,30 35.11,30 C34.0054305,30 33.11,29.1045695 33.11,28 L33.11,28 L33.11,27.41 C33.11,26.3054305 34.0054305,25.41 35.11,25.41 Z M125.495212,6.48284819 C124.585078,9.67501593 122.889751,12.6078763 120.122488,16.3431669 C116.912979,20.7172685 116.267733,22.5541083 115.875347,28.2963487 C115.875301,28.2970211 115.875255,28.2976933 115.875208,28.2983655 C116.168862,28.3299825 116.471493,28.3662575 116.783156,28.4060866 C116.936002,28.4255905 117.091969,28.4459823 117.256194,28.4678817 C120.584544,28.9117163 120.559255,28.9117222 121.392808,28.8947197 L121.42922,28.8203019 C122.980754,25.8651211 123.902067,22.6200888 124.134871,19.290501 C124.211914,18.1886217 125.16762,17.3578278 126.269499,17.4348709 C127.371378,17.5119141 128.202172,18.4676196 128.125129,19.569499 C127.929708,22.3644365 127.318151,25.1082686 126.315824,27.7116546 C126.818764,27.7313912 127.294686,27.9465726 127.645986,28.2964338 C128.990128,26.2085506 130.950438,24.319279 133.158194,22.8845666 L133.1499,22.8539709 C132.985295,22.1309605 132.850578,21.4478717 132.635412,20.2845808 C132.243673,18.1666512 132.131751,17.5974023 131.893944,16.6137778 C131.482491,14.9119112 130.99305,13.5174909 130.33123,12.2635172 C129.300245,10.3100707 127.914319,8.69974176 125.495212,6.48284819 Z M100.445297,9.24721529 C97.9009239,10.2740445 96.0650452,12.3105668 94.2263891,15.8480135 C92.435024,19.2213636 91.7283925,22.6677968 92.7188187,24.484169 C93.5226471,24.6652123 94.2899044,24.7771582 95.09988,24.8351263 C94.6293019,22.8325392 95.0625302,20.640206 96.1658599,18.1025478 C96.6062806,17.0895802 97.7844846,16.6254392 98.7974522,17.0658599 C99.8104198,17.5062806 100.274561,18.6844846 99.8341401,19.6974522 C98.975048,21.6733642 98.7246674,23.1552462 99.0662864,24.1743131 C99.1470719,24.4153002 99.1793846,24.6608576 99.1684948,24.9003993 C100.4791,24.9544241 101.591788,25.101175 102.593821,25.380901 C103.353091,21.8058465 103.226616,19.9492839 102.043164,17.0975913 C100.856667,14.2428613 100.294704,11.7462026 100.445297,9.24721529 Z" id="Combined-Shape"/>
                            </g>
                        </g>
                    </g>
                </g>
                <g id="Grip/Item" transform="scale(1 1)">
                    <g id="Grip/Item/Cigarette" stroke="none" stroke-width="1" fill="none" fill-rule="evenodd">
                        <g id="items" transform="translate(428.000000, 36.000000)" fill-rule="nonzero">
                            <path d="M57.77,248.67 C57.4063653,247.656621 56.3057722,247.112954 55.28,247.44 C54.72,247.62 41.49,251.87 37.66,253.44 C27.09,257.76 14.02,263.1 1.31,266.61 L1.43,267.2 C1.76975991,269.946743 1.37644081,272.734478 0.29,275.28 C2.29,277.04 2.8,280.76 2.89,283.46 C7.83,282.02 12.73,280.46 17.51,279 L20.36,278.11 C30.57,274.92 38.64,272.23 47.29,268.69 C51.48,267 61,264 61.07,264 C61.5852718,263.840749 62.0143882,263.480147 62.26,263 C62.5031182,262.51091 62.5356352,261.943668 62.35,261.43 L57.77,248.67 Z" id="Path" fill="#EBE8E5"/>
                            <path d="M64.53,260.52 L60.84,247.25 C60.6870902,246.705026 60.3104215,246.250364 59.8033982,245.998758 C59.2963748,245.747153 58.7064826,245.722168 58.18,245.93 L50.25,249.08 C49.2961562,249.461128 48.786105,250.502842 49.07,251.49 C49.07,251.58 51.65,260.49 52.25,264.39 C52.3496983,264.990919 52.717817,265.513648 53.25,265.81 C53.5528656,265.989753 53.8978276,266.086343 54.25,266.09 C54.4922645,266.086608 54.7322504,266.042666 54.96,265.96 C58.33,264.68 63.24,262.96 63.29,262.96 C64.2822777,262.60112 64.825045,261.533094 64.53,260.52 Z" id="Path" fill="#3B3B3B"/>
                            <path d="M131.078319,122.452151 C133.774156,111.614888 132.896389,98.9798302 128.485458,89.326449 C123.35459,78.0974788 114.03504,71.7564602 101.475932,72.4325301 C87.2800361,73.2014743 73.0852912,81.0366368 63.2302383,92.7641498 C62.7136227,93.3794645 60.7347035,95.7186204 60.2616633,96.2823708 C59.1556784,97.6004394 58.3087181,98.6362663 57.5223311,99.6422717 C53.8432125,104.348877 51.5533669,108.431275 49.8995231,113.728457 C48.5826893,117.877219 48.3013106,121.632006 48.5389204,128.289374 C39.3096744,126.291923 27.6907774,131.118723 23.2553766,139.44742 C18.5831646,148.229221 20.0467511,158.166897 26.274551,168.986747 C30.7079436,176.689089 36.5569437,183.579815 45.4741882,192.619005 C46.8173043,193.979064 48.272607,195.388115 50.1336656,197.14349 C51.0036422,197.964063 54.2722871,201.019446 55.0009502,201.705528 C63.591172,209.793767 68.2247529,215.051394 71.4197405,221.151909 C73.9793137,226.028935 74.590482,231.126831 74.2073344,239.476246 C74.1689757,240.312145 74.1324795,240.999915 74.0500057,242.485225 C73.9154307,244.90885 73.863412,245.954284 73.8208938,247.284075 C73.7875703,248.326298 74.667356,249.166218 75.7069155,249.084636 C84.9219559,248.361458 96.2519344,242.700451 108.443507,232.491727 C119.811654,222.972506 129.531667,209.3081 135.301392,196.215723 C142.096159,180.794885 141.293773,166.678422 130.173882,157.906064 C125.832454,154.464268 118.738157,154.28895 112.298603,156.031069 C122.876804,143.551303 128.040551,134.673146 131.078319,122.452151 Z M77.5446226,242.679268 C77.6277118,241.182877 77.6646152,240.487432 77.703655,239.63669 C78.1129519,230.717439 77.4380092,225.087586 74.5195594,219.526756 C71.0919621,212.982094 66.2598383,207.499186 57.4002495,199.15732 C56.6650188,198.465054 53.397872,195.411072 52.5351905,194.597379 C50.7016985,192.868005 49.2739231,191.485607 47.9651684,190.160343 C39.245946,181.321883 33.5514357,174.613162 29.307949,167.240753 C23.6222708,157.362756 22.3357773,148.627532 26.3449507,141.091965 C30.3531891,133.565385 41.8980848,129.327615 49.7742729,132.288103 C50.9518644,132.730734 52.1978577,131.823369 52.1380192,130.566761 C51.7653508,122.740723 51.9324268,118.892753 53.2379967,114.779422 C54.7572402,109.913423 56.8438873,106.193292 60.2798241,101.797784 C61.0372976,100.828767 61.8606211,99.8218475 62.9428249,98.5321202 C63.4099169,97.9754586 65.3883934,95.636826 65.9102506,95.0152682 C75.1724141,83.9932938 88.4924845,76.6409308 101.664653,75.9274384 C112.707418,75.3329949 120.740927,80.798992 125.302042,90.781051 C129.371289,99.6866496 130.192866,111.512885 127.681755,121.607551 C124.389408,134.85272 118.432455,144.027475 104.924295,159.164824 C103.612288,160.63507 105.354136,162.815628 107.077914,161.860863 C113.497407,158.305239 123.395974,156.999118 128.002833,160.651338 C137.615813,168.234918 138.32307,180.677757 132.098566,194.804372 C126.534579,207.4299 117.126248,220.656143 106.196493,229.808273 C95.4100467,238.840402 85.4600548,244.091333 77.4018296,245.361362 C77.4359045,244.661751 77.4808554,243.827683 77.5446226,242.679268 Z" id="Path" fill="#CCC9C6"/>
                            <path d="M137.00956,51.0271074 C140.95019,48.4399463 144.847956,49.941679 147.149891,53.9616353 C149.088143,57.3464772 149.563486,61.9239739 148.088837,64.9154024 C145.723267,69.701556 142.04526,71.4268346 138.430661,69.7114527 C131.883512,66.6141455 130.018651,55.6077335 137.00956,51.0271074 Z M139.928118,66.54797 L139.930578,66.5491357 C141.65602,67.3683579 143.369442,66.5648219 144.950356,63.3662318 C145.862165,61.5165625 145.512019,58.1447069 144.112609,55.7008647 C142.723511,53.275031 140.983834,52.6047676 138.929101,53.9537709 C134.39843,56.922385 135.690105,64.5438769 139.928118,66.54797 Z" id="Path" fill="#CCC9C6"/>
                            <path d="M55.5832463,63.2582681 C63.5446346,52.1305335 69.5880367,35.7636375 69.4398039,25.8637997 C69.2271043,11.3293196 60.5529994,-1.62237816 49.7990803,0.513528689 C37.0517664,3.04251383 27.2044126,15.602087 23.480425,32.6260305 C21.5118859,41.6324182 20.9672438,50.5947468 22.6139648,57.0712362 C24.4253736,64.205645 27.4360083,71.4483211 30.4890728,73.6741037 C38.3250954,79.3768701 47.3874165,74.7420317 55.5844357,63.2566036 L55.5832463,63.2582681 Z M32.549754,70.8450418 C30.4328665,69.3017618 27.5999964,62.4867333 26.0061825,56.2093434 C24.5219923,50.3720811 25.0371553,41.8948443 26.8996387,33.3736782 C30.3547268,17.5789901 39.3048839,6.16372504 50.4805514,3.94654442 C58.4628305,2.36113133 65.7548244,13.2491368 65.9401874,25.915607 C66.0761693,34.9972635 60.2923292,50.6612071 52.7367537,61.2217319 C45.5203525,71.3331441 38.2968271,75.0275478 32.549754,70.8450418 Z" id="Path" fill="#CCC9C6"/>
                            <path d="M52.62,266.630007 C51.7283253,266.628712 50.9452099,266.037297 50.7,265.18 C49.4,260.68 47.16,252.18 47.14,252.08 C46.9298798,251.37811 47.1203664,250.617509 47.6365006,250.097503 C48.1526349,249.577498 48.9117918,249.381333 49.6152322,249.586203 C50.3186727,249.791073 50.853787,250.36418 51.01,251.08 C51.01,251.17 53.26,259.64 54.54,264.08 C54.8492795,265.140387 54.2403867,266.250721 53.18,266.56 C52.9970511,266.606955 52.8088779,266.630477 52.62,266.630007 L52.62,266.630007 Z" id="Path" fill="#FC7D67"/>
                        </g>
                    </g>
                </g>
            </g>
        </g>
    </g>
</svg>
