<svg viewBox="202.5 52.5 202.5 352.5" xmlns="http://www.w3.org/2000/svg" overflow="visible">
    <g id="Master/Stickers/Coffee" stroke="none" stroke-width="1" fill="none" fill-rule="evenodd">
        <g id="coffee" transform="translate(203.000000, 58.000000)" fill-rule="nonzero">
            <g id="stickers_expanded">
                <path d="M151.12,258.09 C151.198104,256.955584 151.009753,255.818626 150.57,254.77 C148.35,249.28 137.76,246.84 131.65,245.87 C122.948519,244.626725 114.169852,244.001826 105.38,244 C89.38,244.13 76.92,245.05 60.76,249.38 C56.76,250.44 51.76,252.9 50.07,256.38 C49.9523271,256.529953 49.854829,256.694691 49.78,256.87 C49.4235167,257.97208 49.2051816,259.114141 49.13,260.27 C43.04,260.12 30.58,259.91 24.67,260.44 C9.67,261.78 1.27,270.25 0.92,284.29 C0.36,306.56 21.99,314.82 28.64,316.82 C36.3,319.12 47.21,321.82 57.88,322.43 C61.041154,327.745847 65.5724184,332.114788 71,335.08 C79.2865637,339.249696 88.4542206,341.365837 97.73,341.25 C109.039297,341.208212 120.174999,338.465428 130.21,333.25 C145.41,325.36 149.41,304.04 150.43,295.25 C151.77,283.67 152.06,265.42 151.12,258.09 Z M31.88,307.27 C25.65,305.4 11.18,299.42 11.55,284.51 C11.78,275.59 16.13,271.23 25.68,270.37 C30.97,269.9 42.9,270.11 48.8,270.25 C48.8,281.13 49.73,294.9 50.08,298.64 C50.530835,303.159077 51.510882,307.609564 53,311.9 C45.84811,310.920577 38.7857213,309.372335 31.88,307.27 L31.88,307.27 Z" id="Shape" fill="#EBE8E5"/>
                <path d="M147.38,257.38 C143.21,251.13 123.67,246.8 100.89,247.08 C80.34,247.34 56.34,252.4 53.37,259.51 C53.0867599,260.172997 53.1822758,260.937124 53.62,261.51 C55.1414585,263.284222 57.0053318,264.733146 59.1,265.77 L59.2,265.83 C65.61,268.88 80.83,272.17 99.13,272.17 C115.22,272.17 127.78,270.17 138.63,265.88 L138.8,265.81 C141.848065,264.265896 144.654333,262.285001 147.13,259.93 C147.818344,259.251974 147.923557,258.178801 147.38,257.38 Z" id="Path" fill="#CCC9C6"/>
                <path d="M98.83,237.550109 C89.01,237.550109 79.07,234.24 69.98,227.74 C63.23,222.92 50.98,210.74 52.82,199.01 C54.06,191.24 58.87,189.26 61.62,188.77 C64.0756652,188.403781 66.5830211,188.619578 68.94,189.4 L67.29,187.73 C62.66,183.06 57.87,178.23 54.41,172.36 C45.41,157.09 42.41,143.17 45.63,130.99 C48.63,119.45 62.63,102.99 78.54,96.82 C81.2234189,95.7705889 84.0183513,95.0324315 86.87,94.62 C68.54,86.02 53.56,74.62 56.87,40.7 C58.1869947,25.5289108 68.4112355,12.5991787 82.87,7.82 C94.79,3.82 107.09,6 115.87,13.51 C117.75409,7.45866489 122.699265,2.85584819 128.87,1.41 C137.76,-0.84 147.98,2.85 153.72,10.41 C156.59,14.18 158.3,21.28 158.19,28.94 C158.06,37.08 156.02,43.81 152.58,47.4 C151.82016,48.2035099 150.935412,48.87889 149.96,49.4 C174.96,63.17 204.01,83.57 192.6,119.4 C187.8,134.46 179.29,143.83 164.13,150.73 C153.94,155.38 145.91,156.73 137.44,154.58 C145.16,164.24 147.49,177.36 146.78,187.58 C145.37,208 134.19,225.58 117.59,233.37 C111.723813,236.136682 105.315867,237.564465 98.83,237.550109 Z M63.83,192.55 C63.3237598,192.547304 62.81833,192.590817 62.32,192.68 C59.24,193.23 57.43,195.49 56.77,199.61 C55.34,208.61 65.54,219.61 72.3,224.46 C86.09,234.32 101.95,236.22 115.82,229.68 C131.11,222.47 141.42,206.21 142.73,187.23 C144.07,167.78 134.92,155.23 126.1,149.88 C125.58,149.6 125.06,149.31 124.54,149.01 C123.567979,148.482568 123.207568,147.267021 123.735,146.295 C124.262432,145.322979 125.477979,144.962568 126.45,145.49 C127.08,145.82 127.7,146.16 128.29,146.49 C140.29,152.95 149.15,153.01 162.41,146.96 C176.62,140.49 184.25,132.11 188.73,118.06 C200.1,82.38 168,63.38 142.08,49.62 C140.563717,49.0598231 139.130602,48.2961678 137.82,47.35 C136.967207,46.741975 136.727929,45.5790098 137.271414,44.6837032 C137.8149,43.7883965 138.957055,43.4640137 139.89,43.94 L143.67,45.94 C147.2,47.08 148.95,45.26 149.67,44.55 C152.34,41.76 154.06,35.73 154.17,28.8 C154.27,22.09 152.84,15.8 150.52,12.8 C145.72,6.5 137.21,3.41 129.83,5.27 C126.35,6.15 120.31,8.93 118.93,17.67 C118.795445,18.4174245 118.249178,19.0241553 117.519926,19.236147 C116.790675,19.4481387 116.004274,19.2288114 115.49,18.67 C107.8,10.36 95.8,7.67 84.16,11.55 C71.204757,15.8466368 62.0432709,27.4331065 60.85,41.03 C57.32,77.57 76.03,85.63 97.69,94.97 L98.08,95.14 C100.980221,95.8955839 103.736831,97.12187 106.24,98.77 C107.112624,99.3445658 107.395959,100.493995 106.890341,101.408298 C106.384724,102.322601 105.260545,102.693662 104.31,102.26 C101.84,101.12 99.31,100.02 96.85,98.96 C90.56,97.42 84.5,98.76 80.02,100.49 C65.21,106.2 52.3,121.36 49.54,131.94 C46.64,143.05 49.45,155.94 57.89,170.27 C61.1,175.71 65.71,180.36 70.17,184.85 C74.42,189.14 78.81,193.57 82.03,198.72 C82.21,199 82.38,199.28 82.53,199.55 C83.0268034,200.499701 82.6866474,201.672213 81.7587205,202.208586 C80.8307936,202.74496 79.644992,202.454505 79.07,201.55 L78.67,200.89 C75.9,196.8 69.1,192.58 63.83,192.58 L63.83,192.55 Z" id="Shape" fill="#CCC9C6"/>
                <path d="M139,262.3 C134.083496,259.365942 128.653593,257.394209 123,256.49 C109.514093,254.661224 95.853821,254.506718 82.33,256.03 C74.3596975,256.874572 66.5677621,258.945675 59.23,262.17 C58.5227766,262.497351 58.0701042,263.20569 58.0701042,263.985 C58.0701042,264.76431 58.5227766,265.472649 59.23,265.8 C65.64,268.85 80.86,272.14 99.16,272.14 C115.25,272.14 127.81,270.14 138.66,265.85 C139.360762,265.57454 139.847429,264.928848 139.919215,264.179319 C139.991001,263.429791 139.635739,262.703463 139,262.3 L139,262.3 Z" id="Path" fill="#3B3B3B"/>
            </g>
        </g>
    </g>
</svg>
