<svg viewBox="0 31.651 1100 564.22" xmlns="http://www.w3.org/2000/svg" overflow="visible">
    <g id="Master/Horizontal Scenes/Exchange" stroke="none" stroke-width="1" fill="none" fill-rule="evenodd">
        <g id="Background" style="mix-blend-mode:soft-light" transform="translate(250.000000, 0.000000) scale(1 1)">
            <g id="Background/Window" stroke="none" stroke-width="1" fill="none" fill-rule="evenodd">
                <g id="Group" transform="translate(28.000000, 39.000000)" fill="#EAF3F3" fill-rule="nonzero">
                    <path d="M45.46,49.92 C65.89,48.72 87.02,47.47 104.22,47.47 C121.42,47.47 139,47.26 156,47.05 C195.94,46.56 237.24,46.05 278.26,48.37 C340.39154,51.9814299 402.668663,52.3652797 464.84,49.52 C478.38,48.88 507.84,50.33 524.94,51.3 C524.1,39.3 522.06,27.65 516.21,19.12 C507,5.68 489.64,5.53 474.36,5.4 C469.76,5.4 465.41,5.33 461.46,4.95 C441.54,3.03 421.27,3.42 401.66,3.79 C385.89,4.08 369.59,4.39 353.66,3.5 C320.87,1.66 281.94,-0.07 241.82,1.06 C229.27,1.41 216.51,1.6 204.18,1.78 C176.92,2.19 148.74,2.6 121.04,4.78 C115.34,5.24 108.15,5.34 99.83,5.46 C71.63,5.86 36.53,6.36 20.83,20.69 C20.35,21.12 19.83,21.59 19.42,22.08 L19.42,22.08 C13.09,28.87 9.86,39.89 8.11,51.8 C19.45,51.45 32.14,50.71 45.46,49.92 Z M89.46,24.8 L89.46,24.8 C91.3034161,22.7704356 94.0383004,21.795031 96.75,22.2 C99.0458519,22.5461108 100.996528,24.0611995 101.9,26.2 C102.805579,28.3601886 102.580812,30.8288759 101.3,32.79 C100.027321,34.9337175 97.7864804,36.3193041 95.3,36.5 L94.84,36.5 C92.0590523,36.5369564 89.5007176,34.9840977 88.25,32.5 C87.0255187,29.9263277 87.5146747,26.8641318 89.48,24.8 L89.46,24.8 Z M61.24,26.47 C62.3580861,25.1104211 63.8886358,24.1520724 65.6,23.74 C67.972205,23.0196251 70.5464392,23.7551205 72.18,25.62 C73.8905227,27.7874475 74.2420136,30.7307011 73.09,33.24 C72.038204,35.8241984 69.5863587,37.5666067 66.8,37.71 L66.27,37.71 C63.7412867,37.8334462 61.3672422,36.4907489 60.17,34.26 C58.9600256,31.6794167 59.3790483,28.6287744 61.24,26.47 L61.24,26.47 Z M32.73,31.67 C32.9450234,28.8255731 34.8080191,26.3715851 37.49,25.4 C40.0351653,24.3542702 42.9544307,24.8596024 45,26.7 C46.8240904,28.5168185 47.3974466,31.2422242 46.46,33.64 C45.759149,35.6170667 44.2500918,37.2024859 42.31,38 C41.4254075,38.3804236 40.472923,38.577724 39.51,38.58 C38.5578591,38.5991227 37.6139056,38.4007557 36.75,38 C34.2053053,36.9535118 32.5951824,34.418169 32.73,31.67 L32.73,31.67 Z" id="Shape"/>
                    <path d="M527.34,122.71 C527.34,109.46 527.34,95.71 526.22,82.91 C525.82,78.33 525.69,73.11 525.56,67.58 C525.5,64.88 525.43,62.12 525.33,59.34 C508.47,58.34 478.44,56.88 465.2,57.51 C402.752097,60.3653143 340.19816,59.9814659 277.79,56.36 C237.05,54.05 195.89,54.56 156.08,55.05 C139.08,55.26 121.58,55.47 104.22,55.47 C87.22,55.47 66.22,56.71 45.93,57.91 C32.08,58.72 18.93,59.5 7.13,59.91 C6.34,68.26 6.08,76.68 5.86,84.11 C5.7,89.59 5.56,94.33 5.24,98.18 C-2.11,186.52 1.49,270.18 5.3,358.65 C6.04,375.65 6.79,393.25 7.46,410.73 C7.54,412.73 7.53,415.18 7.52,417.73 C7.46,430.05 7.39,446.91 16.09,454.4 C25.32,462.35 39.86,463.4 54.2,463.4 C89.63,463.4 123.91,463.78 157.06,464.15 C183.58,464.45 211,464.75 239.15,464.87 C249.67,464.91 259.87,464.93 269.75,464.93 C335.93,464.93 388.85,463.93 438.3,461.88 C440.6,461.79 443.3,461.72 446.19,461.65 C466.95,461.12 498.32,460.33 510.78,447.85 C521.86,436.76 523.07,410.68 523.96,391.64 C524.18,386.84 524.39,382.31 524.73,378.77 C531.27,311.2 532.23,241.67 527.84,153.33 C527.34,143.3 527.34,132.83 527.34,122.71 Z" id="Path"/>
                </g>
            </g>
        </g>
        <g transform="translate(800.000000, 300.000000) scale(-1, 1) translate(-800.000000, -300.000000) translate(500.000000, -0.000000) scale(1 1)" id="Master/Hands/Pinch">
            <g id="Master/Hands/Pinch" stroke="none" stroke-width="1" fill="none" fill-rule="evenodd">
                <g id="base" transform="translate(0.000000, 186.000000)" fill-rule="nonzero">
                    <path d="M331.769319,25.773249 C338.264498,13.1426256 333.937276,4.52721178 322.135018,1.47976305 C312.899704,-0.904877807 299.667379,0.494687563 291.03072,4.43002889 C283.666856,7.79359731 277.797657,13.1643197 269.765776,22.7084861 C268.82741,23.8235326 265.384052,27.979205 264.59904,28.9130806 C262.496355,31.4173589 255.792223,39.5940856 254.902395,40.6645361 C253.876775,41.8983411 252.923991,43.0307145 252.013624,44.0954839 C252.453521,38.5340944 252.613165,34.0918735 252.438163,29.6028748 C251.858216,14.7265198 247.467634,4.77577674 237.371594,1.64949844 C232.041145,0.0451366934 226.392608,2.82098925 224.411694,8.00625552 C222.4154,13.5856216 220.782435,19.2434063 219.507528,24.9865777 C217.860437,31.5402294 215.874101,37.3703185 211.923876,47.8395539 C211.728283,48.3579333 211.678153,48.4906086 211.189335,49.7839914 C209.113403,55.2767771 208.130612,57.9295631 207.011993,61.1301291 C206.952235,61.3017883 206.952235,61.3017883 206.893058,61.4727155 C206.328559,63.1053895 204.346623,69.1403448 203.995854,70.1770375 C201.980952,76.1320556 200.337879,80.0973054 198.435919,83.1930483 C195.150466,88.5447735 181.549494,92.0904013 140.821247,98.6655642 C133.013758,99.9280218 119.297931,100.962357 101.406447,101.78167 C91.1406422,102.251776 28.13838,102.622306 17.1356715,102.90398 C13.2843732,103.002575 9.70827263,103.083015 6.49923114,103.146653 C5.37633382,103.168921 4.3796225,103.187497 3.52057676,103.202551 C3.00560999,103.211574 2.65125696,103.217415 2.46899597,103.22024 C1.37664671,103.237176 0.5,104.127519 0.5,105.22 L0.5,224.72 C0.5,225.824569 1.3954305,226.72 2.5,226.72 C7.0222819,226.72 12.0523949,226.820893 18.870142,227.031848 C22.5025087,227.144241 88.730793,227.636075 91.2839604,227.719899 C110.719732,228.358001 127.249402,228.690442 146.997007,228.719998 C154.362821,228.72 160.379038,228.772169 176.602204,228.950279 C180.060169,228.988244 182.130438,229.01053 184.339892,229.033196 C201.288875,229.207066 212.338665,229.237075 222.032457,229.079737 C246.094643,228.719091 270.085636,226.32268 293.746179,221.916192 C307.63098,219.392713 363.986435,200.277361 377.917835,192.981757 C383.818182,189.899679 389.974487,185.314252 393.84376,180.58822 C399.21158,174.031823 400.139129,167.37231 395.030045,161.665922 C392.382949,158.71381 388.836729,157.408392 384.21956,157.315155 C380.946888,157.249068 378.791803,157.538717 371.13319,158.843858 C364.329486,160.003309 360.521697,160.434302 356.303168,160.300998 C342.290226,159.858484 329.250118,147.226311 323.861693,130.680675 C317.624211,111.168212 330.974885,86.7403379 350.43804,82.3714407 C357.144097,80.8490728 363.907175,82.6148562 376.223577,87.8031406 C377.353284,88.2792314 377.986218,88.6020454 380.659966,90.0222079 C384.104155,91.8515907 386.006237,92.705454 388.244051,93.2316831 C390.933691,93.8641608 393.426213,93.7064309 395.772804,92.5843197 C404.028146,88.6304459 404.420998,76.4444047 398.543341,68.8281032 C392.363109,60.8263293 383.520362,53.7860881 374.945021,50.3439441 C359.385439,44.1161687 344.316181,44.3418233 327.461662,50.4185491 C324.717857,51.4175911 322.010399,52.5053699 319.342105,53.6805982 C324.775414,40.3385782 327.6857,33.7295258 331.769319,25.773249 Z" id="Path" fill="#90bfff"/>
                    <path d="M290.546102,70.2699878 C297.773898,64.2807149 308.146003,58.3158335 318.654214,53.9040697 C319.672665,53.4764834 320.151656,52.3042379 319.72407,51.2857863 C319.296483,50.2673348 318.124238,49.7883439 317.105786,50.2159303 C306.258113,54.7702141 295.551419,60.9275136 287.993898,67.1900122 C287.143386,67.8947841 287.02524,69.1555907 287.730012,70.0061025 C288.434784,70.8566142 289.695591,70.9747598 290.546102,70.2699878 Z" id="Path" fill="#4e6af0"/>
                    <path d="M237.439917,59.7032573 C242.651952,55.4755396 247.504809,50.8233264 251.948706,45.7943416 C252.68012,44.9666292 252.602054,43.7027078 251.774342,42.9712941 C250.946629,42.2398805 249.682708,42.317946 248.951294,43.1456584 C244.653675,48.0091071 239.960556,52.5081863 234.920083,56.5967427 C234.062242,57.2925759 233.93091,58.552077 234.626743,59.4099174 C235.322576,60.2677577 236.582077,60.3990904 237.439917,59.7032573 Z" id="Path" fill="#4e6af0"/>
                    <path d="M314.748504,0.549468003 C311.547647,1.54044535 307.261,6.01287423 303.236235,11.3217308 C301.868464,13.1272733 300.460956,15.0208057 298.69313,17.4257542 C297.921409,18.4756031 295.226049,22.1547104 295.213495,22.1718259 C290.063677,29.1932574 286.936178,33.3085314 283.489024,37.4750915 C281.81629,39.4975131 280.471655,41.1933001 277.640107,44.8171298 L277.424188,45.0934653 C273.770324,49.769627 272.016805,51.9579678 269.824199,54.5052598 C269.156247,55.2829449 268.506185,56.0736029 267.574736,57.2308184 C267.389601,57.4608271 266.746624,58.2615084 266.740189,58.2695144 C264.335614,61.2614717 263.012282,62.7869964 261.441179,64.261806 C260.635841,65.0177849 260.595827,66.2834825 261.351806,67.0888208 C262.107785,67.8941591 263.373482,67.9341728 264.178821,67.178194 C265.927733,65.5364732 267.340254,63.9081325 269.85806,60.7752837 C269.865753,60.7657119 270.507294,59.9668195 270.690742,59.7389067 C271.597674,58.6121505 272.224448,57.8498179 272.857198,57.1131152 C275.102882,54.5041612 276.883895,52.2815085 280.576085,47.556298 L280.792023,47.2799386 C283.601076,43.684897 284.929819,42.0091523 286.571161,40.0246856 C290.081114,35.7822206 293.245849,31.6179512 298.438947,24.53751 C298.453183,24.5180995 301.146595,20.8416517 301.916065,19.7948653 C303.673461,17.4041075 305.07033,15.5248859 306.424211,13.7376798 C309.847003,9.22285423 313.892809,5.00170438 315.931496,4.370532 C316.986654,4.04385779 317.577206,2.92366171 317.250532,1.86850403 C316.923858,0.81334634 315.803662,0.222793797 314.748504,0.549468003 Z" id="Path" fill="#4e6af0"/>
                </g>
                <g id="Pinch/Wear" transform="scale(1 1)">
                    <g id="Pinch/Wear/Gloves 1" stroke="none" stroke-width="1" fill="none" fill-rule="evenodd">
                        <g id="clothing" transform="translate(119.000000, 185.000000)" fill-rule="nonzero">
                            <path d="M280.25,69.36 C273.85,61.08 264.91,54.08 256.34,50.65 C240.89,44.45 225.63,44.47 208.34,50.71 C206.22,51.47 204.05,52.32 201.86,53.26 C205.53,44.26 209.16,35.69 213.57,27.11 C218.99,16.54 216.28,10.29 213.05,6.91 C204.54,-2 182.96,-0.32 171.85,4.75 C161.85,9.33 154.26,18.44 147.6,26.49 C146.77,27.49 145.96,28.49 145.15,29.43 C143.15,31.77 141.3,34.07 139.45,36.33 C137.6,38.59 135.84,40.72 134.06,42.84 C135.06,27.74 134.66,6.84 118.72,1.92 C113.025017,0.183897681 106.958538,3.15594792 104.84,8.72 C103.00495,13.769072 101.491914,18.929426 100.31,24.17 L99.92,25.74 C97.654932,34.0670175 94.9137569,42.2571544 91.71,50.27 C90.28,54.05 88.8,57.96 87.43,61.87 C86.86,63.51 86.29,65.25 85.7,67.03 C83.7,73.03 81.7,79.32 78.92,83.79 C75.19,89.87 52.92,93.9 21.92,98.92 C20.9666667,99.0666667 19.9166667,99.2166667 18.77,99.37 C18.1620859,98.4240962 17.3654651,97.6138579 16.43,96.99 C14.8800901,96.0853021 12.957754,96.1083701 11.43,97.05 C10.9661713,97.1568006 10.5469001,97.4048694 10.23,97.76 C3.72,104.51 3.05,114.29 2.12,123.14 C0.854079695,134.30913 0.386226542,145.554315 0.72,156.79 C1.47,176.88 5.72,197.12 15.72,214.72 C18.3,219.25 21.79,225.57 24.56,228.57 C24.97,229.02 25.34,229.42 25.69,229.82 L25.77,230.46 L26.26,230.46 C27.5430245,232.117166 29.1232642,233.52107 30.92,234.6 C35.37,236.95 39.21,235.25 41.8,231.91 C45.4029601,234.548715 50.4231462,234.006813 53.38,230.66 L55.38,230.66 C66.58,230.78 78.03,230.9 88.6,230.9 C93.76,230.9 98.72,230.9 103.33,230.8 C127.429049,230.425995 151.453857,228.024184 175.15,223.62 C187.62,221.35 243.99,202.72 259.54,194.62 C261.43,193.62 278.11,184.62 280.2,173.16 C280.903239,169.170585 279.662674,165.084892 276.86,162.16 C271.22,155.86 262.45,157.36 253.16,158.95 C248.043107,160.0013 242.83376,160.53731 237.61,160.55 C222.14,160.06 210.31,145.13 205.85,131.46 C202.85,122.25 204.29,111.08 209.71,101.57 C214.9,92.46 222.94,86.1 231.79,84.11 L231.79,84.11 C239.98,82.27 250.3,86.62 257.13,89.5 C258.38,90.02 259.71,90.73 261.13,91.5 C265.77,93.97 271.55,97.04 277.32,94.28 C280.7665,92.6305809 283.242168,89.4629107 284.01,85.72 C285.15841,79.9798296 283.789312,74.0227966 280.25,69.36 Z" id="Path" fill="#2AC28B"/>
                            <path d="M20.7780955,191.565809 C21.8242281,191.211295 22.9596766,191.771963 23.3141907,192.818095 C25.6767151,199.789649 28.6413471,206.542422 32.1386735,212.93718 C36.0602413,219.526699 39.6870993,225.258916 41.9989323,228.232412 C42.6769106,229.104432 42.5196084,230.360954 41.6475881,231.038932 C40.7755679,231.716911 39.5190459,231.559608 38.8410677,230.687588 C36.3890123,227.533738 32.7138582,221.725189 28.6654524,214.919981 C25.0208823,208.258834 21.9628025,201.293207 19.5258093,194.101905 C19.1712952,193.055772 19.7319628,191.920323 20.7780955,191.565809 Z M50.3427537,219.274007 C51.4285419,219.071182 52.4731689,219.786966 52.6759934,220.872754 C53.0113338,222.667944 53.4749772,224.436775 54.0633566,226.165639 C54.4192272,227.211311 53.8600327,228.347486 52.8143607,228.703357 C51.7686887,229.059227 50.632514,228.500033 50.2766434,227.454361 C49.6266536,225.544464 49.1144611,223.590414 48.7440066,221.607246 C48.541182,220.521458 49.2569655,219.476831 50.3427537,219.274007 Z M15.2924618,101.2341 C15.7154567,100.213733 16.8855328,99.729467 17.9058999,100.152462 C18.9262671,100.575457 19.410533,101.745533 18.9875382,102.7659 C18.5915721,103.721067 18.2211908,104.693535 17.8701522,105.695695 C16.8444361,108.623952 16.074711,111.457266 14.972219,116.111391 C14.9178924,116.340728 14.1371815,119.663888 13.8948646,120.676371 C12.0742518,128.268713 12.2094396,142.488011 13.2607634,150.013276 C13.413594,151.107221 12.6506697,152.117933 11.5567243,152.270763 C10.4627789,152.423594 9.45206721,151.66067 9.2992366,150.566724 C8.18477184,142.589503 8.04527219,127.916676 10.0049297,119.744488 C10.2447152,118.742582 11.023893,115.425947 11.0799352,115.189367 C12.212074,110.410091 13.0123931,107.464162 14.0950509,104.373345 C14.4703563,103.301907 14.8673119,102.259666 15.2924618,101.2341 Z M196.987369,51.5314511 C197.958589,51.0053275 199.172425,51.3661492 199.698549,52.337369 C200.224672,53.3085887 199.863851,54.5224253 198.892631,55.0485489 C189.697188,60.0298516 181.063811,66.0553642 174.976568,71.9113294 C174.180543,72.6771095 172.914451,72.6525918 172.148671,71.8565676 C171.382891,71.0605434 171.407408,69.7944508 172.203432,69.0286706 C178.574305,62.8998522 187.496334,56.6728802 196.987369,51.5314511 Z M198.365021,1.46075582 C199.469173,1.43039164 200.38888,2.30086871 200.419244,3.40502079 C200.449608,4.50917286 199.579131,5.42888 198.474979,5.45924418 C195.730282,5.53472336 193.094625,7.39131066 189.64934,11.2936234 C186.090042,15.3254344 183.356822,18.9600875 177.618605,27.0215086 L177.618605,27.0215086 L177.326312,27.4321485 C172.479,34.2419548 170.146352,37.3945432 167.152275,41.0133373 C165.337409,43.2115154 164.935272,43.720456 159.240613,50.9770371 C159.072317,51.1914733 159.072317,51.1914733 158.903955,51.4059006 C155.233116,56.0805714 152.957426,58.9111449 150.891042,61.3150034 C150.302857,61.9535593 149.703,62.5809482 149.091798,63.1968629 L149.09,67.46 C149.09,68.5645695 148.194569,69.46 147.09,69.46 C145.985431,69.46 145.09,68.5645695 145.09,67.46 L145.09,67.46 L145.090976,66.9252611 C144.460502,67.4683724 143.820231,68.0003375 143.170454,68.5208858 C142.308401,69.2114925 141.049721,69.0725076 140.359114,68.2104542 C139.668507,67.3484008 139.807492,66.089721 140.669546,65.3991142 C143.263636,63.320941 145.69703,61.0497731 147.902843,58.6568364 C149.872799,56.3633926 152.122652,53.5649566 155.75799,48.9354949 C155.925933,48.7216009 155.925933,48.7216009 156.093878,48.507612 C161.821849,41.2085829 162.220857,40.703602 164.069047,38.4650638 C166.98249,34.9437264 169.276003,31.8440281 174.067572,25.1125333 L174.067572,25.1125333 L174.359863,24.7018964 C180.178948,16.5268675 182.968212,12.8176848 186.650719,8.64631005 C190.776731,3.9729689 194.179738,1.5758511 198.365021,1.46075582 Z M132.223406,41.0947778 C132.850372,40.1853893 134.095834,39.9564405 135.005222,40.5834063 C135.914611,41.2103722 136.14356,42.4558336 135.516594,43.3652222 C130.209165,51.0634322 124.133836,58.2028785 117.38407,64.6737281 C116.586721,65.4381287 115.320673,65.4114188 114.556272,64.6140698 C113.791871,63.8167208 113.818581,62.5506725 114.61593,61.7862719 C121.170249,55.5027931 127.06966,48.5700775 132.223406,41.0947778 Z" id="Combined-Shape" fill="#1CB377"/>
                        </g>
                    </g>
                </g>
                <g id="Pinch/Item" transform="scale(1 1)">
                    <g id="Pinch/Item/Arrow" stroke="none" stroke-width="1" fill="none" fill-rule="evenodd">
                        <g id="items" transform="translate(357.000000, 279.000000)" fill-rule="nonzero">
                            <path d="M16.0307154,31.846808 C15.8142752,32.708252 15.5728964,33.6681659 15.3126999,34.7019264 C14.5692967,37.6554657 13.8240549,40.6089774 13.1259587,43.3654041 L13.0808325,43.5435688 C11.9801243,47.8889401 11.1068273,51.3087412 10.5465569,53.4586946 C10.2023524,54.7889879 9.89601055,56.0713442 9.46088751,57.9693376 C9.41097028,58.187075 9.37475732,58.3454367 9.28896254,58.7210087 C8.89163557,60.4606426 8.75102554,61.0701135 8.53778157,61.9638567 C8.2825697,63.0334946 9.06550544,64.0706825 10.1641345,64.1183548 C14.4181204,64.3029459 18.5773392,64.2836458 24.3474729,64.1098327 C25.4241216,64.0774009 26.2329801,64.0507734 28.2457126,63.9827538 C34.0378698,63.7870096 36.716551,63.72 40.07,63.72 C41.6228047,63.72 43.9348202,63.7818381 46.7961056,63.8920706 C47.7329011,63.9281612 48.7126109,63.9688511 49.7230796,64.0133087 C51.1860291,64.0776741 52.6406454,64.146652 54.019772,64.2156279 C54.5024023,64.2397662 54.9410584,64.2621767 55.3273596,64.2822829 C55.5588536,64.2943317 55.7216557,64.3029453 55.806186,64.3074836 C56.451954,64.3421518 57.0642023,64.0178584 57.3983284,63.4641637 C57.4853289,63.3199914 57.6480596,63.0498691 57.8757095,62.6712587 C58.254913,62.0405958 58.6774013,61.3363893 59.1323681,60.5760934 C60.4324118,58.4035874 61.7325205,56.2164539 62.9464059,54.1540372 C63.0543461,53.9706055 63.0543461,53.9706055 63.1622464,53.7870812 C65.2267026,50.2749247 66.7981614,47.5351251 67.7026859,45.8462083 C68.4048253,44.5277216 69.3817303,42.6319158 70.5666857,40.2968441 L70.6904163,40.0529142 C71.54731,38.3628545 72.4576596,36.552742 73.3630207,34.7427221 C73.679861,34.1092872 73.9734636,33.5210749 74.2365076,32.9931326 C74.3944146,32.6762053 74.5071069,32.4496717 74.5672603,32.3285853 C74.7801435,31.9000602 74.8082755,31.4030556 74.6451089,30.9532448 C74.5899971,30.8013152 74.4867305,30.5186157 74.3413563,30.1237844 C74.0994952,29.4668983 73.8276457,28.7352274 73.5318439,27.9473841 C72.6863912,25.695592 71.8178935,23.4434261 70.9742066,21.338854 C70.7406213,20.7561766 70.5116954,20.1918239 70.2880332,19.6476832 C69.3972693,17.4805719 68.6080836,15.6770178 67.9429599,14.3129948 C67.3879028,13.1802178 66.3123394,11.3421576 64.8345256,8.95453453 C64.7355986,8.79470364 64.6351822,8.6329315 64.5333482,8.46932183 C63.7237431,7.16858489 62.8572866,5.80375084 61.9909549,4.45727231 C61.6878265,3.98614111 61.4063039,3.55085989 61.1535482,3.16180378 C61.0016071,2.92792726 60.8928009,2.76109809 60.8342998,2.67170673 C60.530073,2.20683939 60.0231864,1.91404453 59.4684993,1.88277423 C59.3284018,1.87487628 59.0623293,1.86012149 58.6833215,1.83948908 C58.0522155,1.80513296 57.3342703,1.76685865 56.5425214,1.72564527 C54.280655,1.60790698 51.8801714,1.49017256 49.4452435,1.38027319 C47.4459875,1.29003768 45.5079549,1.20898951 43.661438,1.13941348 C37.0121667,0.888871557 32.088285,0.804645588 29.5259656,0.942528243 C17.5005992,1.5768323 9.47709013,2.1490182 1.76118352,3.03133039 C0.494519585,3.17617313 -0.197106719,4.58343219 0.462022926,5.67474565 C1.7283811,7.77144046 4.40493651,12.1835594 8.07326859,18.2235465 L8.08584283,18.2442502 C9.92746974,21.2765222 11.9006203,24.5240589 13.8737678,27.7707297 C14.5643672,28.9070607 15.2056387,29.9621187 15.7811406,30.9088859 C15.9285722,31.1514203 16.0392844,31.3335489 16.1244552,31.4736599 C16.1027851,31.5599273 16.0748157,31.6712624 16.0307154,31.846808 Z" id="Path" fill="#DDB493"/>
                            <path d="M8.11716376,5.04897509 C8.15200529,5.10553375 8.15200529,5.10553375 8.31494773,5.36927567 C8.47562748,5.62915412 8.66229974,5.93046129 8.87295855,6.26974969 C9.47450864,7.23861001 10.1479047,8.31797836 10.8771099,9.4802905 C12.9609278,12.8017795 15.075103,16.1235458 17.0918295,19.2257678 C17.3658697,19.6473091 17.6366077,20.0624582 17.9038401,20.4708646 C21.100044,25.3555655 23.6729374,29.0935068 25.4248896,31.3324882 C26.105574,32.2023977 27.3625787,32.3557949 28.2324882,31.6751104 C29.1023977,30.994426 29.2557949,29.7374213 28.5751104,28.8675118 C26.9129189,26.7432439 24.3881515,23.0752207 21.2509773,18.2807339 C20.9859484,17.875695 20.7173743,17.4638641 20.4454645,17.0455999 C18.4417933,13.9634601 16.3387121,10.6591246 14.2654819,7.35451188 C13.5397202,6.19768839 12.8696018,5.12357366 12.2712229,4.15982096 C12.0619066,3.8226948 11.8765502,3.5235115 11.7171643,3.26572575 C11.5560245,3.00490128 11.5560245,3.00490128 11.5228362,2.95102491 C10.9435033,2.01057442 9.71147539,1.71783082 8.77102491,2.29716376 C7.83057442,2.87649671 7.53783082,4.10852461 8.11716376,5.04897509 Z" id="Path" fill="#BF9375"/>
                            <path d="M16.8357864,5.81421356 C17.5997528,6.57817995 18.1832272,7.42113385 19.3896307,9.39575637 L19.4651246,9.51933052 C20.8128835,11.7252783 21.5051939,12.7298047 22.5500569,13.7983071 C23.3223207,14.5880429 24.5885714,14.6022068 25.3783071,13.8299431 C26.1680429,13.0576793 26.1822068,11.7914286 25.4099431,11.0016929 C24.6485056,10.2230283 24.0673248,9.37974846 22.8784724,7.43389132 L22.8029966,7.31034688 C21.4287407,5.06098609 20.7301522,4.05172505 19.6642136,2.98578644 C18.883165,2.20473785 17.616835,2.20473785 16.8357864,2.98578644 C16.0547379,3.76683502 16.0547379,5.03316498 16.8357864,5.81421356 Z" id="Path" fill="#BF9375"/>
                            <path d="M45.4342053,15.656855 L55.4742053,30.766855 C56.0855044,31.686848 57.326862,31.9370938 58.246855,31.3257947 C59.166848,30.7144956 59.4170938,29.473138 58.8057947,28.553145 L48.7657947,13.443145 C48.1544956,12.523152 46.913138,12.2729062 45.993145,12.8842053 C45.073152,13.4955044 44.8229062,14.736862 45.4342053,15.656855 Z" id="Path" fill="#BF9375"/>
                            <path d="M50.6495556,5.0774869 C51.1408579,5.58754122 51.5066507,6.11561522 52.1987153,7.25718357 L52.2816426,7.39404557 C52.8753255,8.37394455 53.180377,8.84590961 53.6159796,9.41101572 C54.290328,10.285846 55.5461854,10.4483688 56.4210157,9.77402039 C57.295846,9.09967203 57.4583688,7.84381459 56.7840204,6.96898428 C56.4686583,6.5598659 56.2204533,6.17585175 55.7027361,5.32133733 L55.6192343,5.18352754 C54.7801621,3.79946845 54.2880511,3.08903611 53.5304444,2.3025131 C52.7641566,1.50697762 51.4980486,1.48326773 50.7025131,2.24955559 C49.9069776,3.01584344 49.8832677,4.28195142 50.6495556,5.0774869 Z" id="Path" fill="#BF9375"/>
                            <path d="M16.0739938,61.5824855 C16.0930892,61.526193 16.0930892,61.526193 16.1823386,61.2622112 C16.270297,61.0018166 16.3722836,60.6991882 16.4871307,60.3575491 C16.8151029,59.3819198 17.1804908,58.2889594 17.5739558,57.1044391 C18.6982433,53.7197891 19.8225867,50.2786924 20.8724205,46.9868126 C21.038453,46.4661975 21.2015355,45.9526778 21.3614811,45.446768 C23.0254726,40.1835432 24.287326,35.9464867 25.0178586,33.0846758 C25.2910605,32.0144261 24.6449256,30.9253434 23.5746758,30.6521414 C22.5044261,30.3789395 21.4153434,31.0250744 21.1421414,32.0953242 C20.4350048,34.8654833 19.1903908,39.0446533 17.5475503,44.2409771 C17.3886293,44.743646 17.2265583,45.2539807 17.0615268,45.771457 C16.0170595,49.0465096 14.8975091,52.4729371 13.7779027,55.8434948 C13.3860048,57.0232973 13.0221273,58.1117398 12.6956304,59.0829802 C12.5814133,59.4227455 12.480047,59.7235331 12.3927012,59.9821143 C12.304309,60.2435601 12.304309,60.2435601 12.2860062,60.2975145 C11.9311713,61.3435384 12.4914906,62.4791588 13.5375145,62.8339938 C14.5835384,63.1888287 15.7191588,62.6285094 16.0739938,61.5824855 Z" id="Path" fill="#BF9375"/>
                            <path d="M29.9101331,49.0866058 C32.177773,43.941487 33.8966743,38.5716395 35.0383382,33.066093 C35.2626172,31.9845327 34.5676533,30.9259408 33.486093,30.7016618 C32.4045327,30.4773828 31.3459408,31.1723467 31.1216618,32.253907 C30.0370811,37.4841762 28.4041249,42.5855313 26.2498669,47.4733942 C25.8043908,48.4841487 26.2626396,49.664657 27.2733942,50.1101331 C28.2841487,50.5556092 29.464657,50.0973604 29.9101331,49.0866058 Z" id="Path" fill="#BF9375"/>
                            <path d="M40.9347932,61.5805508 C41.0136458,61.4103039 41.1622101,61.090227 41.3708803,60.641742 C41.7188797,59.8938037 42.1077867,59.0602727 42.5279907,58.1625816 C43.7284106,55.5980978 44.9388666,53.0337708 46.0822738,50.6414562 C46.211522,50.3711262 46.211522,50.3711262 46.3408423,50.101025 C47.7806642,47.0948722 48.9929691,44.6178263 49.9011344,42.8397034 C50.4035497,41.85601 50.0133967,40.6512809 49.0297034,40.1488656 C48.04601,39.6464503 46.8412809,40.0366033 46.3388656,41.0202966 C45.4119545,42.8351225 44.1865934,45.3388455 42.7332853,48.3731556 C42.6032409,48.6447693 42.6032409,48.6447693 42.4733006,48.9165469 C41.3247279,51.3196691 40.1098752,53.8933102 38.9052424,56.4667943 C38.4836779,57.367392 38.0934748,58.2037007 37.7442204,58.9543364 C37.6219358,59.2171567 37.5496674,59.3726746 37.4200764,59.651783 L37.3052068,59.8994492 C36.8409834,60.9017318 37.2771666,62.0905698 38.2794492,62.5547932 C39.2817318,63.0190166 40.4705698,62.5828334 40.9347932,61.5805508 Z" id="Path" fill="#BF9375"/>
                            <path d="M48.1459966,62.0599979 C48.8758948,60.8921608 49.7440266,59.3618416 50.725879,57.5316243 C50.943535,57.1259037 51.1658036,56.7072215 51.3922174,56.2766702 C52.3145493,54.5227526 53.2669955,52.6467346 54.1964992,50.7711458 C54.5216667,50.1150102 54.8208306,49.5056155 55.0872781,48.9584115 C55.2475565,48.6292475 55.3616204,48.3933169 55.4227402,48.2660991 C55.9010736,47.2704732 55.481725,46.0755931 54.4860991,45.5972598 C53.4904732,45.1189264 52.2955931,45.538275 51.8172598,46.5339009 C51.7590847,46.6549892 51.6480605,46.8846326 51.4909591,47.2072722 C51.2284404,47.7464074 50.9333496,48.3475051 50.6124759,48.9949766 C49.6961475,50.8439797 48.7576346,52.6925536 47.8518936,54.4149217 C47.6304814,54.8359619 47.4133661,55.2449369 47.201065,55.6406757 C46.2573659,57.3997737 45.4289201,58.8601355 44.7540034,59.9400021 C44.1685827,60.8766752 44.4533291,62.1105759 45.3900021,62.6959966 C46.3266752,63.2814173 47.5605759,62.9966709 48.1459966,62.0599979 Z" id="Path" fill="#BF9375"/>
                            <path d="M181.242375,26.240369 L180.887554,26.2448702 C180.483041,26.2499648 180.483041,26.2499648 179.869374,26.2576092 C178.764331,26.2713317 177.509935,26.2866235 176.130118,26.3030922 C172.187673,26.3501469 168.030648,26.3972019 163.850577,26.4411178 C160.984284,26.4712311 158.204681,26.4988178 155.545571,26.5233241 C141.706398,26.6508659 132.437212,26.6825957 130.527902,26.5857747 C124.560444,26.2823446 84.7461462,26.7191226 72.9531111,27.0517893 C70.9534099,27.1086635 67.3710272,27.1781087 61.8276283,27.270646 C59.6420389,27.3071305 57.2569829,27.3455746 53.8514552,27.3995364 C52.8917051,27.414744 51.7285913,27.4331224 49.5626895,27.4673429 C47.8103318,27.4950523 46.4839765,27.5161124 45.1875391,27.5368522 C39.572077,27.6266857 35.3303181,27.6978209 31.5662876,27.7667068 C24.6157598,27.893909 19.8973486,28.0034637 17.3811359,28.1035561 C14.8978185,28.20234 12.9647722,30.2955467 13.0635561,32.7788641 C13.16234,35.2621815 15.2555467,37.1952278 17.7388641,37.0964439 C20.1671947,36.9998473 24.8479967,36.8911659 31.7309699,36.7652 C35.4866747,36.6964664 39.722365,36.6254331 45.3314985,36.5357008 C46.6272826,36.5149714 47.9531345,36.4939193 49.7049853,36.466218 C51.8706992,36.4320004 53.0340606,36.4136181 53.9940455,36.3984068 C57.401913,36.3444079 59.7891446,36.3059288 61.9778466,36.2693922 C67.5581995,36.176238 71.1611805,36.1063936 73.2079346,36.048181 C84.7435118,35.722777 124.431006,35.2873901 130.071482,35.574194 C132.265548,35.685455 141.380229,35.654254 155.628511,35.5229419 C158.291699,35.498398 161.075134,35.4707734 163.945126,35.4406212 C168.129816,35.3966567 172.291046,35.3495541 176.237529,35.3024512 C177.618837,35.2859648 178.874677,35.2706553 179.981128,35.2569153 C180.595746,35.2492591 180.595746,35.2492591 181.001146,35.2441533 L181.357625,35.239631 C183.842703,35.2078056 185.831456,33.1674526 185.800008,30.682375 C185.767806,28.1972974 183.727453,26.2085436 181.242375,26.240369 Z" id="Path" fill="#B17606"/>
                            <path d="M228.479084,32.426545 C228.418014,32.9794761 228.098817,33.506933 227.522959,33.7950802 C227.400059,33.8565631 227.178363,33.9670686 226.860697,34.1247628 C226.334493,34.3859777 225.736129,34.681661 225.076197,35.0061073 C223.193856,35.9315326 221.192588,36.9034164 219.156961,37.8761833 C213.327053,40.6621266 208.386681,42.898481 204.983605,44.2312708 C201.983998,45.3963542 197.616412,47.1544756 192.242798,49.3517732 C191.987846,49.4560385 191.987846,49.4560385 191.732954,49.5603344 C188.042412,51.070617 184.118334,52.6890051 180.214603,54.307424 C178.848241,54.8738938 177.582051,55.3998925 176.447743,55.8719206 C176.050786,56.0371093 175.816019,56.1348802 175.395407,56.3101403 L175.023964,56.4650147 C173.717931,57.0100371 172.33873,55.8599821 172.640156,54.4772625 C173.858032,48.8905459 175.527779,43.4120075 177.608101,38.1623065 C178.421314,35.8369454 179.051328,33.4518332 179.492517,31.0288169 C179.361561,30.7818849 179.21488,30.5055117 179.053507,30.2017031 C178.479756,29.1215351 177.838913,27.9178322 177.146902,26.6215045 C175.16987,22.9179761 173.179128,19.2145673 171.302258,15.7588585 C171.128068,15.4382131 171.128068,15.4382131 170.953807,15.117741 C168.234908,10.1188255 166.018831,6.12903673 164.487855,3.50086132 C163.693931,2.13795961 164.966533,0.502864762 166.482642,0.937871251 C178.006864,4.24443671 188.506518,9.23489104 203.146478,17.7253098 C205.450946,19.0587943 210.522378,21.7749383 217.300781,25.3337101 C219.681659,26.5837093 222.10891,27.8513429 224.454272,29.0714998 C225.276529,29.4992733 226.030275,29.8907928 226.699487,30.2379254 C227.091951,30.4415038 227.371688,30.5864386 227.531097,30.6689462 C227.56275,30.6849564 227.593945,30.7019391 227.624631,30.7198777 C228.11783,31.0066594 228.399774,31.4768136 228.471536,31.9735876 C228.493993,32.1250388 228.496092,32.2772763 228.479084,32.426545 Z" id="Path" fill="#EAF3F3"/>
                            <path d="M190.483282,32.0771508 C191.732877,32.143923 192.780916,32.171771 195.134386,32.2143146 C195.567634,32.222142 195.76164,32.2256964 195.999916,32.2302514 C199.122865,32.2899507 200.931878,32.3754623 202.63585,32.5850418 C203.732159,32.7198819 204.730202,31.9404579 204.865042,30.8441495 C204.999882,29.7478412 204.220458,28.7497982 203.12415,28.6149582 C201.242582,28.3835355 199.331825,28.2932145 196.076368,28.2309821 C195.836212,28.2263912 195.64054,28.2228062 195.206682,28.214968 C192.901253,28.1732928 191.882925,28.1462343 190.696718,28.0828492 C189.593722,28.0239105 188.651788,28.8702861 188.592849,29.973282 C188.53391,31.0762779 189.380286,32.0182121 190.483282,32.0771508 Z" id="Path" fill="#A1AFAE"/>
                        </g>
                    </g>
                </g>
            </g>
        </g>
        <g transform="translate(0.000000, -0.000000) scale(1 1)" id="Master/Hands/Grip">
            <g id="Master/Hands/Grip" stroke="none" stroke-width="1" fill="none" fill-rule="evenodd">
                <g id="base" transform="translate(-1.000000, 265.000000)" fill-rule="nonzero">
                    <path d="M431.32891,98.5203262 C432.521196,87.2066637 432.601612,75.4334069 431.968673,58.0671554 C431.954159,57.6598773 431.939641,57.2267451 431.921493,56.6652626 C431.705837,49.9931141 431.590388,47.6099354 431.210233,43.9657234 C430.365671,35.8696479 428.620961,29.7573512 425.399902,25.5366534 C419.159559,17.3706216 408.702389,15.6509559 391.926016,17.5700821 C389.553242,17.8415146 387.28767,18.1470863 383.721354,18.6604845 C375.243241,19.8809732 372.065439,20.287338 368.929872,20.3917902 C366.655535,14.6589239 361.976792,10.3076767 354.782994,7.94950563 C350.857041,6.66117254 346.835974,5.61374184 342.600919,4.75388076 C335.200848,3.25141294 328.949839,2.52184045 316.01966,1.40984586 C315.914578,1.40080881 314.290643,1.26131567 313.813438,1.2202075 C312.967867,1.14736709 312.267975,1.08666406 311.594651,1.0276403 C303.92934,0.353092886 295.76582,0.140016586 285.340538,0.230444933 C281.966858,0.259708055 279.180833,0.305320002 273.277077,0.417732699 C269.07402,0.497762591 267.384511,0.52809125 265.161113,0.56020863 C256.978682,0.683990365 245.85413,1.73238996 222.598596,4.32908861 C221.834572,4.41442283 221.834572,4.41442283 221.070816,4.49979752 C196.459102,7.25132846 187.966681,8.10111845 180.359026,8.37125971 C172.73714,8.64632163 161.085355,9.01077251 146.305828,9.44280003 C143.938757,9.51199304 141.502513,9.58258967 139.002627,9.6544563 C127.777495,9.97715608 30.7503244,10.3118551 18.7231199,10.6391833 C14.5135716,10.7537489 10.6047132,10.8592096 7.09678455,10.9531444 C5.86902978,10.986021 4.77909532,11.0151084 3.83951092,11.0401039 C2.88744216,11.0654008 2.88744216,11.0654008 2.68711951,11.0706992 C1.60352639,11.0993597 0.74,11.9860279 0.74,13.07 L0.74,159.4 C0.74,160.489345 1.61180162,161.378343 2.70093863,161.399619 L186.500939,163.329619 C196.179481,163.511747 203.731648,163.70021 221.642029,164.182403 C242.100467,164.733196 251.567337,164.960452 263.140289,165.139647 C300.402752,165.716617 329.447874,164.989783 357.092205,162.320743 C362.018071,161.845638 365.783805,161.491866 374.901855,160.642538 C401.687134,158.147544 413.835399,156.918175 428.818172,155.044543 C439.476885,153.819953 449.965627,151.293244 460.03153,147.522927 C472.081587,142.949121 474.606494,123.582098 463.583944,119.504249 C459.34788,117.93774 453.31894,116.833016 447.073226,116.258411 C446.083843,116.167168 445.030533,116.065818 443.734684,115.937953 C442.98452,115.863932 440.337018,115.600018 440.269796,115.593341 C437.727402,115.340807 435.964428,115.172127 434.187386,115.015355 C430.33035,114.675086 427.01408,114.452731 424.049375,114.357304 C428.165982,110.668927 430.585094,105.554082 431.32891,98.5203262 Z" id="Path" fill="#fcb7a0"/>
                    <path d="M427.429531,45.4798336 C423.174607,47.4789215 418.810574,49.2370221 414.358123,50.7458 C401.799811,55.2998034 392.080448,58.0350385 371.623965,63.1599562 C370.552508,63.4283858 369.901527,64.5145783 370.169956,65.5860349 C370.438386,66.6574915 371.524578,67.3084735 372.596035,67.0400438 C393.178494,61.8835657 402.998524,59.1200007 415.681876,54.5201717 C420.236432,52.9772683 424.739746,51.1630566 429.130469,49.1001664 C430.130196,48.6304652 430.559867,47.4392582 430.090166,46.4395309 C429.620465,45.4398036 428.429258,45.0101325 427.429531,45.4798336 Z" id="Path" fill="#dc8173"/>
                    <path d="M369.239592,99.6943002 C376.17747,98.5712245 382.765102,97.3041801 389.135166,95.8498275 C400.580337,93.2623782 413.380136,88.928371 430.015407,82.4538091 C431.044761,82.0531777 431.55444,80.893946 431.153809,79.8645927 C430.753178,78.8352394 429.593946,78.3255595 428.564593,78.7261909 C412.10186,85.1335994 399.454816,89.415884 388.248982,91.9492301 C381.961366,93.3847543 375.457036,94.6357767 368.600408,95.7456998 C367.510032,95.9222055 366.769194,96.9492158 366.9457,98.0395917 C367.122205,99.1299676 368.149216,99.8708058 369.239592,99.6943002 Z" id="Path" fill="#dc8173"/>
                    <path d="M320.456563,104.875332 C326.361933,104.471162 331.40529,104.086173 336.215565,103.662279 C337.31587,103.565318 338.129241,102.594741 338.032279,101.494435 C337.935318,100.39413 336.964741,99.5807589 335.864435,99.6777207 C331.083122,100.099062 326.064721,100.482146 320.183437,100.884668 C319.081446,100.960089 318.249246,101.914571 318.324668,103.016563 C318.400089,104.118554 319.354571,104.950754 320.456563,104.875332 Z" id="Path" fill="#dc8173"/>
                    <path d="M246.20674,103.765561 C247.329327,106.0388 247.277986,108.094963 246.348308,113.147546 C246.25504,113.654434 246.210684,113.897482 246.158464,114.190486 C246.074937,114.659153 246.005717,115.067531 245.944147,115.46015 C245.773022,116.551384 246.518917,117.574727 247.61015,117.745853 C248.701384,117.916978 249.724727,117.171083 249.895853,116.07985 C249.952658,115.717615 250.017405,115.335619 250.096412,114.892315 C250.146906,114.608997 250.190326,114.371076 250.282267,113.871397 C251.366877,107.9768 251.433326,105.315573 249.79326,101.994439 C249.304179,101.004049 248.10483,100.597658 247.114439,101.08674 C246.124049,101.575821 245.717658,102.77517 246.20674,103.765561 Z" id="Path" fill="#dc8173"/>
                    <path d="M422.848508,114.035462 C417.235799,117.030195 404.556916,121.300269 396.696233,122.837165 C395.390212,123.095472 390.709518,124.034857 390.778583,124.021058 C380.642657,126.046159 374.541931,127.055339 368.023144,127.59845 C355.047244,128.679534 344.470418,127.193867 335.402939,122.346235 C329.778924,119.345079 325.598566,112.978524 322.630281,103.613234 C320.262359,96.1421584 318.818656,87.5174171 317.700318,76.1934393 C317.59176,75.0942173 316.612661,74.291125 315.513439,74.3996825 C314.414217,74.5082399 313.611125,75.4873387 313.719682,76.5865607 C314.863149,88.1649804 316.346421,97.0261089 318.817219,104.821766 C322.070899,115.087515 326.799532,122.289075 333.518413,125.874487 C343.357338,131.134548 354.675581,132.724358 368.355252,131.584639 C375.066606,131.025485 381.286077,129.996662 391.562272,127.943536 C391.498143,127.956349 396.172809,127.018173 397.468054,126.761992 C405.694507,125.153587 418.74676,120.757768 424.731492,117.564538 C425.706019,117.044566 426.074509,115.833036 425.554538,114.858508 C425.034566,113.883981 423.823036,113.515491 422.848508,114.035462 Z" id="Path" fill="#dc8173"/>
                    <path d="M325.723474,67.1486888 C325.754221,67.5257506 325.786601,67.9089746 325.820664,68.2979657 C326.287954,73.6343613 326.972289,78.972826 327.917156,83.9688587 C329.629113,93.0209199 331.992202,99.9414889 335.247092,104.017926 C341.114803,111.349614 359.705009,113.379626 366.794658,106.940505 C369.832761,104.182669 371.33993,98.3357355 372.142549,89.4402588 C372.31331,87.5476958 372.446559,85.5656702 372.564627,83.3005091 C372.609786,82.4341079 372.650953,81.5652186 372.699674,80.4726621 C372.702209,80.4158109 372.788737,78.4481986 372.812727,77.9254873 C372.894614,76.1413001 372.960256,75.0347272 373.040936,74.1901972 C374.135299,62.145536 374.488352,50.0542898 374.098962,37.975558 C373.922798,33.9897507 373.613503,30.6160832 373.057693,25.9155132 C373.022432,25.6173001 372.680302,22.7668274 372.586684,21.9595968 C372.459436,20.8623814 371.466812,20.0760676 370.369597,20.2033157 C369.272381,20.3305639 368.486068,21.3231878 368.613316,22.4204032 C368.708037,23.2371523 369.050942,26.0940803 369.085366,26.3852129 C369.630655,30.9968102 369.93179,34.2814723 370.101954,38.1283812 C370.48515,50.0194276 370.136883,61.946758 369.058204,73.8190315 C368.97024,74.7395938 368.901731,75.8944873 368.816933,77.7420966 C368.792735,78.26934 368.706028,80.2410335 368.703645,80.2944645 C368.655332,81.3778589 368.614606,82.23747 368.570049,83.0922985 C368.454412,85.3108328 368.324404,87.2446543 368.158732,89.080808 C367.451143,96.9230588 366.098607,102.17011 364.105743,103.979131 C358.764921,108.829893 342.828806,107.089703 338.371492,101.520303 C335.637398,98.0961111 333.446247,91.6790801 331.847484,83.2255413 C330.930071,78.374674 330.261976,73.1628887 329.805416,67.9490343 C329.645489,66.1226863 329.523522,64.4273514 329.434523,62.9073119 C329.403453,62.3766485 329.378736,61.9062868 329.359746,61.5017483 C329.34846,61.2613395 329.341638,61.0977427 329.338648,61.0164733 C329.266156,59.0459615 326.687395,58.3582829 325.64335,60.0310478 C321.798814,66.1907515 317.332467,71.9397747 312.31446,77.1878229 C307.366668,82.1505041 301.282764,85.8992383 294.585634,88.099956 C293.536269,88.4447839 292.965128,89.5750007 293.309956,90.624366 C293.654784,91.6737313 294.785001,92.2448718 295.834366,91.900044 C303.128921,89.5030088 309.755545,85.4198648 315.176424,79.9819996 C319.022415,75.9601587 322.543867,71.6739516 325.723474,67.1486888 Z" id="Path" fill="#dc8173"/>
                </g>
                <g id="Grip/Wear" transform="scale(1 1)">
                    <g id="Grip/Wear/Gloves 1" stroke="none" stroke-width="1" fill="none" fill-rule="evenodd">
                        <g id="clothing" transform="translate(142.000000, 263.000000)" fill-rule="nonzero">
                            <path d="M321.27,119.63 C315.68,117.55 308.27,116.63 304.27,116.27 L298.88,115.75 C294.63,115.32 289.94,114.85 285.39,114.57 C288.11,110.92 289.73,106.35 290.33,100.73 C291.71,87.59 291.46,73.39 290.98,60 L290.91,57.88 C290.59,47.96 290.15,34.38 283.99,26.32 C274.42,13.78 255.79,16.47 239.34,18.84 C234.97,19.48 230.81,20.08 227.21,20.31 C225.16,16.03 220.97,10.85 212.41,8.05 C198.95,3.63 186.02,2.52 172.33,1.34 L168.78,1.03 C156.13,-0.08 142.83,0.18 129.88,0.42 C127.28,0.48 124.7,0.52 122.14,0.56 C111.78,0.72 93.78,2.73 76.38,4.68 C60.83,6.42 46.14,8.06 37.29,8.38 L36.8,8.38 C36.56,5.47 35.41,2.96 32.43,1.66 C30.3,0.72 23.98,0.47 21.31,3 C13.18,10.71 10.85,20.1 8.07,30.47 C4.56,43.55 3.66,56.84 2,70.31 C-0.95,94.41 0.17,119.38 8.51,142.31 C10.65,148.21 13.51,156.43 16.19,160.55 C18.87,164.67 19.98,167.05 22.47,168.98 C27.21,172.65 32.02,171.37 35.69,167.89 C39.69,172.22 46.58,172 50.69,167.45 C59.83,167.65 69.06,167.89 78.1,168.14 C99.1,168.71 120.82,169.29 142.36,169.29 C170.13,169.29 192.98,168.29 214.26,166.29 C220.093333,165.73 225.923333,165.18 231.75,164.64 L231.99,164.64 C249.7,162.99 267.99,161.28 286.04,159.03 C296.870713,157.777263 307.508836,155.211756 317.72,151.39 C325.88,148.3 329.57,139.74 329.540181,133.1 C329.51,126.46 326.47,121.55 321.27,119.63 Z" id="Path" fill="#2AC28B"/>
                            <path d="M19.7406298,115.891044 C20.8335767,115.73123 21.8491408,116.487683 22.0089555,117.58063 C23.2977756,126.39466 25.3391603,135.082106 28.0866269,143.478428 C31.3261946,152.269215 34.3171426,159.778404 36.3903304,163.828724 C36.8936142,164.811973 36.5045252,166.017047 35.5212758,166.52033 C34.5380265,167.023614 33.3329533,166.634525 32.8296696,165.651276 C30.6553338,161.403346 27.6331258,153.815674 24.3092723,144.792282 C21.4666391,136.109602 19.3729112,127.199401 18.0510445,118.15937 C17.8912297,117.066423 18.6476829,116.050859 19.7406298,115.891044 Z M49.1593902,151.950412 C50.263732,151.927984 51.1771595,152.805048 51.1995877,153.90939 C51.2446663,156.129021 51.4496789,158.342516 51.8130317,160.532668 C51.993812,161.622344 51.2570071,162.652251 50.1673318,162.833032 C49.0776565,163.013812 48.0477487,162.277007 47.8669683,161.187332 C47.4721565,158.807556 47.2493939,156.402416 47.2004123,153.99061 C47.1779842,152.886268 48.0550484,151.972841 49.1593902,151.950412 Z M229.369597,22.2033157 C230.466812,22.0760676 231.459436,22.8623814 231.586684,23.9595968 C231.680302,24.7668274 232.022432,27.6173001 232.057693,27.9155132 C232.613503,32.6160832 232.922798,35.9897507 233.098962,39.975558 C233.363558,48.1832094 233.285339,56.3966392 232.864662,64.5973045 C251.808122,59.8288419 261.267379,57.1302497 273.358123,52.7458 C277.810574,51.2370221 282.174607,49.4789215 286.429531,47.4798336 C287.429258,47.0101325 288.620465,47.4398036 289.090166,48.4395309 C289.559867,49.4392582 289.130196,50.6304652 288.130469,51.1001664 C283.739746,53.1630566 279.236432,54.9772683 274.681876,56.5201717 C262.210539,61.0431098 252.507598,63.7906608 232.619248,68.7834423 C232.458164,71.2538598 232.265102,73.7230059 232.040936,76.1901972 C231.960256,77.0347272 231.894614,78.1413001 231.812727,79.9254873 C231.788737,80.4481986 231.702209,82.4158109 231.699674,82.4726621 C231.650953,83.5652186 231.609786,84.4341079 231.564627,85.3005091 C231.446559,87.5656702 231.31331,89.5476958 231.142549,91.4402588 C230.951449,93.5582294 230.720409,95.5033802 230.438274,97.2751637 C236.260464,96.2845438 241.835058,95.1852817 247.248982,93.9492301 C258.454816,91.415884 271.10186,87.1335994 287.564593,80.7261909 C288.593946,80.3255595 289.753178,80.8352394 290.153809,81.8645927 C290.55444,82.893946 290.044761,84.0531777 289.015407,84.4538091 C272.380136,90.928371 259.580337,95.2623782 248.135166,97.8498275 C241.765102,99.3041801 235.17747,100.571225 228.239592,101.6943 L229.586574,101.474305 C228.701707,104.914859 227.485194,107.405922 225.794658,108.940505 C218.705009,115.379626 200.114803,113.349614 194.247092,106.017926 C194.180303,105.934278 194.113888,105.849433 194.047847,105.763396 C190.294956,106.087349 186.371249,106.390268 181.986426,106.6996 C184.928043,115.471782 188.999066,121.462553 194.402939,124.346235 C203.470418,129.193867 214.047244,130.679534 227.023144,129.59845 C233.541931,129.055339 239.642657,128.046159 249.778583,126.021058 C249.709518,126.034857 254.390212,125.095472 255.696233,124.837165 C263.556916,123.300269 276.235799,119.030195 281.848508,116.035462 C282.823036,115.515491 284.034566,115.883981 284.554538,116.858508 C285.074509,117.833036 284.706019,119.044566 283.731492,119.564538 C277.74676,122.757768 264.694507,127.153587 256.468054,128.761992 C255.172809,129.018173 250.498143,129.956349 250.562272,129.943536 C240.286077,131.996662 234.066606,133.025485 227.355252,133.584639 C213.675581,134.724358 202.357338,133.134548 192.518413,127.874487 C185.799532,124.289075 181.070899,117.087515 177.817219,106.821766 C175.666326,100.035444 174.263794,92.441692 173.182325,82.950807 C167.953881,87.9061996 161.689024,91.6475616 154.834366,93.900044 C153.785001,94.2448718 152.654784,93.6737313 152.309956,92.624366 C151.965128,91.5750007 152.536269,90.4447839 153.585634,90.099956 C160.282764,87.8992383 166.366668,84.1505041 171.31446,79.1878229 C171.868249,78.6086464 172.415319,78.0233684 172.955576,77.4321101 C173.105922,77.1545659 173.321664,76.9157034 173.583694,76.7368387 C177.68835,72.1659923 181.388671,67.2456843 184.64335,62.0310478 C185.687395,60.3582829 188.266156,61.0459615 188.338648,63.0164733 C188.341638,63.0977427 188.34846,63.2613395 188.359746,63.5017483 C188.378736,63.9062868 188.403453,64.3766485 188.434523,64.9073119 C188.523522,66.4273514 188.645489,68.1226863 188.805416,69.9490343 C189.261976,75.1628887 189.930071,80.374674 190.847484,85.2255413 C192.274715,92.7720989 194.174039,98.6957004 196.510279,102.315985 C196.648186,102.463429 196.763655,102.633787 196.851314,102.820695 C197.021736,103.067047 197.195489,103.299876 197.371492,103.520303 C201.828806,109.089703 217.764921,110.829893 223.105743,105.979131 C224.265212,104.926624 225.207928,102.710332 225.932981,99.4962459 C225.947593,99.3577769 225.977341,99.2232912 226.020053,99.0940186 C226.500537,96.8611481 226.87976,94.1726758 227.158732,91.080808 C227.324404,89.2446543 227.454412,87.3108328 227.570049,85.0922985 C227.614606,84.23747 227.655332,83.3778589 227.703645,82.2944645 C227.706028,82.2410335 227.792735,80.26934 227.816933,79.7420966 C227.901731,77.8944873 227.97024,76.7395938 228.058204,75.8190315 C229.136883,63.946758 229.48515,52.0194276 229.101954,40.1283812 C228.93179,36.2814723 228.630655,32.9968102 228.085366,28.3852129 C228.050942,28.0940803 227.708037,25.2371523 227.613316,24.4204032 C227.486068,23.3231878 228.272381,22.3305639 229.369597,22.2033157 Z M184.723474,69.1486888 C182.280168,72.6260379 179.635007,75.9622282 176.795844,79.1457751 C177.759695,88.6160896 178.96947,96.1783259 180.789809,102.773859 C184.751277,102.497422 188.325423,102.228067 191.721599,101.946396 C189.721417,97.9040174 188.150352,92.4894473 186.917156,85.9688587 C185.972289,80.972826 185.287954,75.6343613 184.820664,70.2979657 C184.786601,69.9089746 184.754221,69.5257506 184.723474,69.1486888 Z M33.2917033,12.8199411 C33.866112,11.8764749 35.0965927,11.5772947 36.0400589,12.1517033 C36.9835251,12.726112 37.2827053,13.9565927 36.7082967,14.9000589 C34.300329,18.8551458 32.4512116,22.7606457 29.9095179,28.9433908 C29.5164927,29.8994361 27.7904826,34.1521603 27.3099361,35.3200896 C23.7090324,44.0841112 21.123068,61.2483338 20.939592,70.3303958 C20.917282,71.43474 20.0039484,72.311902 18.8996042,72.2900083 C17.79526,72.267282 16.918098,71.3539484 16.940408,70.2496042 C17.132988,60.7168962 19.786138,43.106732 23.6104399,33.7989959 C24.0865756,32.6417858 25.8122796,28.3898159 26.2099334,27.4225113 C28.8245321,21.0624225 30.7520759,16.9912792 33.2917033,12.8199411 Z" id="Combined-Shape" fill="#1CB377"/>
                        </g>
                    </g>
                </g>
                <g id="Grip/Item" transform="scale(1 1)">
                    <g id="Grip/Item/Pie" stroke="none" stroke-width="1" fill="none" fill-rule="evenodd">
                        <g id="items" transform="translate(312.000000, 235.000000)" fill-rule="nonzero">
                            <path d="M34.6171171,328.901362 C33.1991839,329.050931 31.9775849,329.153127 29.4267878,329.347186 C26.7172375,329.553323 25.636957,329.641711 24.1774671,329.788115 C19.4753956,330.259788 15.8073044,330.94879 12.3443083,332.150538 C9.16500903,333.256784 7.28602284,334.037933 5.29013904,335.289233 C2.14925991,337.258376 0.27,339.709602 0.27,342.8 C0.27,348.509321 6.26424202,352.168866 14.5206868,353.763701 C19.9215694,354.806948 32.5194927,355.923295 44.0387103,356.507433 C60.330423,357.351642 73.966283,357.96318 83.1909684,358.189399 C104.87995,358.717325 121.759681,358.551011 140.07494,357.496694 C158.381928,356.405698 174.558304,354.401797 180.43844,352.281414 L180.671,352.197645 C180.967986,352.09084 180.967986,352.09084 181.265992,351.98373 C185.573946,350.434774 187.530209,349.596266 189.483307,348.244633 C192.283193,346.306984 193.82,343.802639 193.82,340.56 C193.82,332.934246 185.902522,329.116011 165.838059,326.813045 C145.629821,324.601947 125.263385,324.389551 105.02398,326.177761 C98.0328291,326.744703 92.3960008,326.890759 79.6760575,326.987041 C75.5761262,327.018075 73.7542007,327.035288 71.4730953,327.069703 C69.452454,327.100188 67.6000406,327.139343 65.8220975,327.190838 C57.2097367,327.449467 40.6936201,328.250875 34.6171171,328.901362 Z" id="Path" fill="#EBE8E5"/>
                            <path d="M19.5471175,306.016187 C19.3117108,305.248261 19.0721012,304.461429 18.8286343,303.657027 C17.5686478,299.494099 16.2575923,295.035784 14.9721722,290.577741 C14.522336,289.017637 14.1078054,287.568901 13.7381973,286.268575 C13.6087862,285.813292 13.4942169,285.409018 13.3956922,285.060388 C13.2958578,284.706746 13.2958578,284.706746 13.2746589,284.631352 L12.6056163,282.251872 L15.072323,282.09408 L15.5647967,282.062645 C16.1221868,282.027126 16.4334098,282.00732 16.9603157,281.973854 C18.4656778,281.878241 20.1503775,281.771703 21.9738646,281.656972 C27.183887,281.329163 32.4623592,281.001351 37.4849693,280.695379 C38.0980472,280.658031 38.7042972,280.621194 39.3033398,280.584894 C51.7559503,279.830297 60.1647565,279.362303 62.7815403,279.300587 C76.9149575,278.958036 122.749366,278.939299 138.809919,279.410898 C141.707965,279.49776 148.229061,280.052503 157.348251,280.947187 C158.213486,281.032075 159.096532,281.119502 159.995663,281.209262 C163.945394,281.603563 168.038835,282.025961 172.040384,282.448353 C173.440896,282.596187 174.729941,282.733467 175.87804,282.856677 C176.279963,282.89981 176.516991,282.925335 176.941234,282.971127 C177.250752,283.004607 177.250752,283.004607 177.316077,283.011707 L179.385193,283.236567 L179.078111,285.295087 C178.224907,291.014535 176.894697,296.652577 175.10797,302.129709 C170.850588,315.674546 168.595042,321.865153 164.878692,328.923664 C160.24801,337.695824 151.490364,341.689956 138.381189,343.080466 C135.076069,343.431045 132.753152,343.55766 126.683087,343.79436 C126.347411,343.80745 126.077795,343.818072 125.82025,343.828389 C114.078997,344.299888 98.9463884,344.455067 84.7185169,344.309885 C83.6429953,344.298331 82.5644135,344.2952 79.887485,344.292823 C71.6649744,344.285522 67.2813234,344.247547 61.9249384,344.084525 C46.6040581,343.618231 37.6929141,342.431919 35.161018,339.429269 C31.5084854,335.097622 26.9970205,326.937048 24.4791752,320.757931 C23.3543728,318.024475 21.6664651,312.929766 19.5471175,306.016187 Z" id="Path" fill="#FDA100"/>
                            <path d="M132.613581,307.651032 C128.015885,311.626112 125.160246,313.309622 121.616804,313.117336 C117.903224,312.925468 116.086172,311.452802 113.451757,307.773839 L113.341142,307.619351 C111.945276,305.670419 111.230364,304.90245 110.147377,304.354733 C109.438377,303.996158 108.680782,303.903489 107.795095,304.054732 C106.423872,304.288887 104.945354,305.024554 102.693814,306.483467 C102.424114,306.658222 101.295639,307.400242 101.005338,307.587871 C100.342898,308.016022 99.8253433,308.33253 99.3334107,308.602666 C93.1363911,312.009062 86.804756,312.873124 81.5297022,310.009811 C80.0982465,309.236825 79.1715453,308.235598 77.2709905,305.785979 C77.1257797,305.598772 77.1257797,305.598772 76.9824011,305.414292 C75.3603215,303.329807 74.4876616,302.523842 73.8849015,302.459456 C73.3453778,302.403835 72.1325952,303.032643 70.2552927,304.448504 C69.9863172,304.651366 69.7086815,304.865001 69.3389187,305.152631 C66.5339048,307.334587 65.8416014,307.827425 64.5867287,308.329363 C59.6067506,310.302562 55.158354,309.388136 51.3057864,305.594214 C51.1134743,305.401901 49.979924,304.25258 49.6700043,303.946209 C49.1029405,303.385637 48.6568065,302.974583 48.2439539,302.639131 C47.5411408,302.068079 46.9718481,301.751666 46.4809756,301.64122 L46.4755184,301.639984 C45.7058102,301.464535 44.8371442,301.751733 43.583749,302.838 C43.1268846,303.236014 41.4856962,304.760073 41.0875776,305.106364 C38.6110268,307.260515 36.3803322,308.160248 32.9975059,307.924917 C28.3911521,307.595892 22.5553682,304.588197 17.4305134,300.617455 C9.85983629,294.71678 7.53492115,281.786208 13.4629855,276.932527 C18.1120835,273.126016 33.9056811,268.48104 44.4952942,267.233819 C61.0112356,265.282141 75.3738709,264.059376 88.9495979,263.571239 C111.203697,262.787386 129.302811,263.632043 145.226447,266.859686 C158.733495,269.591307 175.005112,275.140866 178.834321,279.197065 C183.808055,284.465633 182.393444,292.760935 174.77124,302.781592 C169.772571,309.346575 162.113498,308.727098 157.868774,303.242528 C157.224699,304.105839 156.574294,304.974191 156.235463,305.405324 C153.293981,309.148101 150.812998,311.34094 148.033672,311.874262 C147.874097,311.904883 147.714366,311.929298 147.559248,311.946818 C144.34171,312.318072 142.298935,310.977914 138.723556,307.363176 C138.493601,307.130494 138.370346,307.005787 138.267582,306.902106 C138.097725,306.730735 137.957011,306.589676 137.823027,306.456719 C137.079603,305.718988 136.484675,305.18185 135.961497,304.791462 C135.454164,305.193442 134.652124,305.888546 132.613581,307.651032 Z" id="Path" fill="#FDA100"/>
                            <path d="M15.9391432,286.350009 C17.5553717,289.695488 21.2806953,291.829666 26.601169,293.189005 C30.172815,294.101532 33.7937488,294.551666 38.6015848,294.885205 C41.2769909,295.060541 43.4258221,295.286848 48.2025937,295.854443 C49.0561225,295.955862 49.4064797,295.997364 49.8670049,296.051382 C54.8912296,296.640705 58.0533255,296.920189 61.4128309,296.999444 C63.1685492,297.03892 65.0002613,297.051293 67.0737059,297.04206 C68.6239353,297.035157 69.8627311,297.021404 72.6431187,296.98437 C81.0204327,296.872786 84.7257817,296.899274 89.3228371,297.215291 C109.929369,298.638855 130.316624,297.494338 159.694477,294.026208 C166.371388,293.238249 172.433815,291.03373 175.598513,287.341583 C176.317358,286.502931 176.220234,285.240331 175.381583,284.521487 C174.542931,283.802642 173.280331,283.899766 172.561487,284.738417 C170.217505,287.473062 164.991876,289.373291 159.225602,290.053783 C130.074277,293.495172 109.90351,294.627535 89.5978378,293.224755 C84.854664,292.898694 81.0764635,292.871685 72.5898441,292.984725 C69.8212733,293.021602 68.5903645,293.035267 67.0558941,293.0421 C65.0159554,293.051184 63.219116,293.039046 61.5049565,293.000505 C58.3025635,292.924956 55.2426804,292.654506 50.3329951,292.078618 C49.8751596,292.024916 49.5260619,291.983563 48.6745686,291.882385 C43.8281909,291.30652 41.6320163,291.075226 38.8707811,290.894281 C28.343985,290.16398 21.3622802,288.380211 19.5408568,284.609991 C19.0603644,283.615406 17.8645772,283.198651 16.8699915,283.679143 C15.8754057,284.159636 15.4586508,285.355423 15.9391432,286.350009 Z" id="Path" fill="#C65D00"/>
                            <path d="M56,50.38 C59.8,50.23 64.27,49.61 69,48.93 C67.49,38.29 66,28.61 65.25,23.59 C64.65,19.59 63.36,12.02 62.4,6.37 C61.8,2.86 57.61,0.51 54.2,0.78 L42,2 C40.0436777,2.14928495 38.2491185,3.14238774 37.0836193,4.72070792 C35.9181201,6.29902809 35.4970302,8.30635945 35.93,10.22 C36.98,14.83 38.85,24.69 40.66,34.22 C40.88,35.4 41.11,36.58 41.33,37.74 L41.86,37.91 C50.35,40.74 54.21,46 56,50.38 Z" id="Path" fill="#E2B420"/>
                            <path d="M58.72,203.09 C59.99,212.31 61.55,221.94 64.42,229.92 C64.5643822,230.319416 64.9453089,230.584059 65.37,230.580046 L65.51,230.580046 C65.9775512,230.509906 66.3321307,230.121954 66.36,229.65 L67.9,203.65 C70.36,212 74.9,227.11 75.8,229.55 C75.9569245,229.959539 76.3623881,230.219035 76.8,230.19 C77.2295498,230.172703 77.5999767,229.882803 77.72,229.47 C79.3,224.16 79.91,210.9 80.14,203.01 L87.54,226.84 C87.5900172,227.197266 87.8268339,227.500709 88.1612436,227.636025 C88.4956532,227.771342 88.8768511,227.717974 89.1612436,227.496025 C89.445636,227.274076 89.5900172,226.917266 89.54,226.56 L89.85,199.56 L99.39,224.68 C99.568724,225.140854 100.057343,225.401988 100.53981,225.294495 C101.022276,225.187003 101.353823,224.743138 101.32,224.25 C101.32,224.1 100.32,209.25 99.68,202.43 C99.53,200.89 99.4,199.29 99.26,197.65 C98.88,193.25 98.49,188.7 97.88,184.65 C97.32,181.31 95.05,171 86,171 L85.65,171 L82.76,171.32 L81.54,171.45 C81.36,169.33 80.89,163.86 80.35,157.65 C75.71,158.58 70.92,159.53 66.07,160.3 C67.3,166.64 68.26,171.49 68.62,173.3 C68.17,173.4 67.73,173.51 67.34,173.62 C63.52,174.71 57.97,178.72 57.56,184.25 C57.07,191 57.77,196.11 58.66,202.59 L58.72,203.09 Z" id="Path" fill="#E2B420"/>
                            <path d="M48.2176145,7.0941307 L51.6276145,6.5941307 C55.4765677,6.01348268 56.8730941,6.86813922 57.2315832,9.7360521 C57.3328744,10.5329021 57.4239195,10.9423226 57.8499789,12.6854828 C57.951734,13.1017989 58.0208704,13.393575 58.0857194,13.6853957 C58.2654305,14.4940955 59.0666958,15.0039917 59.8753957,14.8242806 C60.6840955,14.6445695 61.1939917,13.8433042 61.0142806,13.0346043 C60.9439272,12.7180142 60.8705277,12.4082463 60.7641938,11.9731967 C60.3710354,10.364646 60.2883763,9.99293673 60.2080256,9.36084421 C59.6223543,4.67544746 56.5793506,2.81316759 51.1862389,3.62678357 L47.7823855,4.1258693 C46.9627228,4.24605445 46.3956841,5.00795172 46.5158693,5.82761447 C46.6360545,6.64727723 47.3979517,7.21431586 48.2176145,7.0941307 Z" id="Path" fill="#FCD400"/>
                            <path d="M41.7239439,8.04164445 L42.4839439,7.92164445 C43.3022335,7.79244082 43.8608481,7.02434577 43.7316444,6.20605614 C43.6024408,5.38776651 42.8343458,4.82915193 42.0160561,4.95835555 L41.2560561,5.07835555 C40.4377665,5.20755918 39.8791519,5.97565423 40.0083556,6.79394386 C40.1375592,7.61223349 40.9056542,8.17084807 41.7239439,8.04164445 Z" id="Path" fill="#FCD400"/>
                            <path d="M79.8938165,177.02837 C84.0312168,176.318033 86.362464,176.506668 88.2580717,178.090954 C90.6711214,180.109926 91.3446524,182.001875 91.9484738,186.919757 C92.2143611,189.085302 92.3270396,189.880449 92.5704153,191.070534 C92.7363958,191.882163 93.528905,192.405565 94.3405342,192.239585 C95.1521634,192.073604 95.6755652,191.281095 95.5095847,190.469466 C95.287871,189.385306 95.1819506,188.637849 94.9261136,186.55416 C94.2365914,180.93828 93.3458897,178.436298 90.1825531,175.789569 C87.4120344,173.474062 84.3227407,173.224089 79.3861835,174.07163 C78.5697024,174.211809 78.0214512,174.987335 78.1616302,175.803816 C78.3018092,176.620298 79.0773354,177.168549 79.8938165,177.02837 Z" id="Path" fill="#FCD400"/>
                            <path d="M137.843027,310.456719 C137.977011,310.589676 138.117725,310.730735 138.287582,310.902106 C138.390346,311.005787 138.513601,311.130494 138.743556,311.363176 C142.318935,314.977914 144.36171,316.318072 147.579248,315.946818 C147.734366,315.929298 147.894097,315.904883 148.053672,315.874262 C150.832998,315.34094 153.313981,313.148101 156.255463,309.405324 C156.585852,308.984932 157.212484,308.148836 157.840627,307.307057 C161.938438,313.133224 168.7965,314.341415 173.79124,307.781592 C174.460384,306.902775 174.29041,305.647904 173.411592,304.97876 C172.532775,304.309616 171.277904,304.47959 170.60876,305.358408 C167.040034,310.045381 162.462372,308.546382 159.893264,302.847986 C159.278862,301.485214 157.441098,301.253573 156.507744,302.421258 C156.071788,302.966666 153.800227,306.056025 153.110487,306.933659 C150.749599,309.937682 148.804017,311.657302 147.299868,311.945931 C147.240418,311.957339 147.182304,311.966222 147.125467,311.972644 C145.606382,312.147917 144.294808,311.287462 141.587424,308.550274 C141.359369,308.319512 141.233646,308.19231 141.128541,308.086267 C140.951526,307.907673 140.803417,307.759202 140.660562,307.617441 C139.138493,306.107028 138.040373,305.210673 136.767487,304.597927 C136.129734,304.290924 135.377211,304.34387 134.788728,304.737148 C134.061757,305.222978 133.304325,305.809287 132.391472,306.575767 C132.041965,306.869232 131.683233,307.177234 131.204925,307.5928 C131.233892,307.567633 130.285449,308.39346 130.017464,308.625154 C126.209564,311.917392 123.969436,313.238035 121.848368,313.122938 C119.68731,313.011277 118.711062,312.220057 116.723935,309.445033 L116.613097,309.290233 C114.855664,306.836474 113.812299,305.715678 111.972623,304.785267 C110.461231,304.020885 108.837403,303.822258 107.141788,304.111807 C105.078207,304.464192 103.222595,305.38749 100.538671,307.126571 C100.253238,307.311521 99.1273425,308.051844 98.8540714,308.228466 C98.2649559,308.609226 97.8206083,308.880964 97.4273297,309.096927 C92.3038857,311.913196 87.3239299,312.592797 83.4541083,310.492252 C82.7071235,310.088875 81.9751512,309.298037 80.4513384,307.334 C80.306121,307.146783 80.306121,307.146783 80.1592133,306.957763 C77.806095,303.933841 76.4832291,302.712079 74.3223845,302.481309 C72.3706755,302.280088 70.5803052,303.208367 67.8667178,305.254953 C67.5789687,305.471974 67.2870808,305.696576 66.9029614,305.995374 C64.5261196,307.844264 63.8552836,308.321821 63.1272186,308.613047 C59.6297885,309.998809 56.858973,309.429232 54.1433103,306.754967 C53.7855847,306.410802 52.6287353,305.269148 52.4329593,305.079191 C51.7481079,304.414693 51.2116099,303.927322 50.6727764,303.495671 C49.5672775,302.610075 48.522118,302.027715 47.3867459,301.755225 C45.2304636,301.263586 43.1114136,301.964184 40.9601389,303.828622 C40.4351581,304.285969 38.7954904,305.808616 38.4624266,306.098322 C36.732032,307.603452 35.5022021,308.099494 33.278795,307.944822 C29.6744735,307.687367 26.479115,306.028574 21.8849447,302.469016 C21.0117914,301.792498 19.7555343,301.951902 19.079016,302.825055 C18.4024977,303.698209 18.5619019,304.954466 19.4350553,305.630984 C24.6033885,309.635403 28.4004524,311.606556 32.9975059,311.934917 C36.3803322,312.170248 38.6110268,311.270515 41.0875776,309.116364 C41.4856962,308.770073 43.1268846,307.246014 43.583749,306.848 C44.8371442,305.761733 45.7058102,305.474535 46.4755184,305.649984 C46.9322936,305.759744 47.4870757,306.068867 48.1719347,306.617496 C48.5932009,306.954965 49.0457245,307.366052 49.6475129,307.949955 C49.8243334,308.121521 50.9899664,309.271843 51.3537826,309.621666 C55.178354,313.388136 59.6267506,314.302562 64.6067287,312.329363 C65.8616014,311.827425 66.5539048,311.334587 69.3589187,309.152631 C69.7286815,308.865001 70.0063172,308.651366 70.2752927,308.448504 C72.1525952,307.032643 73.3653778,306.403835 73.9049015,306.459456 C74.5076616,306.523842 75.3803215,307.329807 77.0024011,309.414292 C77.1457797,309.598772 77.1457797,309.598772 77.2909905,309.785979 C79.1915453,312.235598 80.1182465,313.236825 81.5497022,314.009811 C86.824756,316.873124 93.1563911,316.009062 99.3534107,312.602666 C99.8453433,312.33253 100.362898,312.016022 101.025338,311.587871 C101.315639,311.400242 102.444114,310.658222 102.713814,310.483467 C104.965354,309.024554 106.443872,308.288887 107.815095,308.054732 C108.700782,307.903489 109.458377,307.996158 110.167377,308.354733 C111.250364,308.90245 111.965276,309.670419 113.361142,311.619351 L113.471757,311.773839 C116.106172,315.452802 117.923224,316.925468 121.636804,317.117336 C125.180246,317.309622 128.035885,315.626112 132.633581,311.651032 C134.672124,309.888546 135.474164,309.193442 135.981497,308.791462 C136.504675,309.18185 137.099603,309.718988 137.843027,310.456719 Z" id="Path" fill="#C65D00"/>
                            <path d="M92.8001181,269.841738 L92.8401181,273.521738 C92.8521236,274.626242 93.7572336,275.511887 94.8617378,275.499882 C95.9662421,275.487876 96.8518873,274.582766 96.8398819,273.478262 L96.7998819,269.798262 C96.7878764,268.693758 95.8827664,267.808113 94.7782622,267.820118 C93.6737579,267.832124 92.7881127,268.737234 92.8001181,269.841738 Z" id="Path" fill="#F23D25"/>
                            <path d="M88.7618398,280.497265 C88.1405681,280.740125 87.1539389,281.271153 85.6783354,282.122369 C85.5677594,282.186207 85.5677594,282.186207 85.4575006,282.250056 C84.9088778,282.567976 83.1266421,283.616988 82.8877221,283.753514 C81.9286872,284.301534 81.5954938,285.523243 82.1435137,286.482278 C82.6915337,287.441313 83.913243,287.774506 84.8722779,287.226486 C85.1382572,287.074498 86.9351379,286.016866 87.4630463,285.71095 C87.5700586,285.648981 87.5700586,285.648981 87.6770592,285.587207 C88.9495446,284.853162 89.862643,284.36171 90.2181602,284.222735 C91.2469205,283.820584 91.754887,282.6606 91.3527353,281.63184 C90.9505835,280.60308 89.7906001,280.095113 88.7618398,280.497265 Z" id="Path" fill="#F23D25"/>
                            <path d="M106.964522,284.013401 C105.14838,282.64325 103.25329,281.38101 101.289052,280.233207 C100.33537,279.675923 99.1104906,279.997267 98.5532068,280.950948 C97.995923,281.90463 98.3172668,283.129509 99.2709484,283.686793 C101.099885,284.755533 102.864437,285.930827 104.555478,287.206599 C105.437256,287.871838 106.69136,287.696299 107.356599,286.814522 C108.021838,285.932744 107.846299,284.67864 106.964522,284.013401 Z" id="Path" fill="#F23D25"/>
                            <path d="M86.4224915,273.967831 C83.2602229,273.434699 80.0559118,273.191157 76.8493928,273.240234 C75.7449526,273.257138 74.8633303,274.166167 74.8802342,275.270607 C74.8971381,276.375047 75.8061671,277.25667 76.9106072,277.239766 C79.8738857,277.194412 82.8351237,277.419479 85.7575085,277.912169 C86.8467072,278.095799 87.8785387,277.36169 88.0621687,276.272492 C88.2457987,275.183293 87.5116902,274.151461 86.4224915,273.967831 Z" id="Path" fill="#F23D25"/>
                            <path d="M104.564792,278.391779 C107.321378,277.923733 110.100239,277.597958 112.890334,277.415749 C113.992556,277.343767 114.82773,276.391888 114.755749,275.289666 C114.683767,274.187444 113.731888,273.35227 112.629666,273.424251 C109.702533,273.61541 106.787186,273.957186 103.895208,274.448221 C102.806224,274.633121 102.07332,275.665809 102.258221,276.754792 C102.443121,277.843776 103.475809,278.57668 104.564792,278.391779 Z" id="Path" fill="#F23D25"/>
                            <path d="M25.6502909,335.316483 C21.2163979,338.160123 19.162442,340.910507 20.3321105,343.874602 C21.3680155,346.499721 24.8274063,348.176875 30.8397403,349.469097 C41.9121661,351.848877 62.786698,353 94.8,353 C125.120624,353 147.516339,351.13833 160.039523,347.864992 C166.181025,346.259712 169.934873,344.34159 171.250794,341.827897 C172.887168,338.702069 170.820027,335.860579 166.369303,333.588661 C165.385496,333.086467 164.180855,333.476891 163.678661,334.460697 C163.176467,335.444504 163.566891,336.649145 164.550697,337.151339 C166.084275,337.934169 167.09201,338.688143 167.551539,339.31981 C167.797982,339.658571 167.811094,339.773921 167.707018,339.972728 C167.092313,341.146949 164.126739,342.662282 159.027977,343.995008 C146.908594,347.1628 124.807247,349 94.8,349 C63.0634662,349 42.3883297,347.859872 31.6802597,345.558403 C29.1242508,345.009044 27.1699953,344.3991 25.8263999,343.747709 C24.738349,343.220209 24.1824364,342.734625 24.0528895,342.406336 C23.9922784,342.25274 24.0481666,342.006223 24.4348104,341.488481 C25.0260226,340.696809 26.1552607,339.744583 27.8097091,338.683517 C28.7394897,338.08721 29.0098235,336.850071 28.4135166,335.920291 C27.8172097,334.99051 26.5800714,334.720176 25.6502909,335.316483 Z" id="Path" fill="#CCC9C6"/>
                        </g>
                    </g>
                </g>
            </g>
        </g>
    </g>
</svg>
