<svg viewBox="60 22.5 472.5 555" xmlns="http://www.w3.org/2000/svg" overflow="visible">
    <g id="Master/Spot Illustrations/Random Stuff" stroke="none" stroke-width="1" fill="none" fill-rule="evenodd">
        <g id="Background" style="mix-blend-mode:soft-light" transform="scale(1 1)">
            <g id="Background/Mountains" stroke="none" stroke-width="1" fill="none" fill-rule="evenodd">
                <path d="M530,543.67 C527.29,519.43 523.15,497 518.77,473.26 C516.98,463.55 515.13,453.51 513.4,443.41 C510.51,426.58 507.51,409.88 504.61,393.73 C500.68,371.85 496.61,349.23 492.86,326.32 C491.98,320.95 491.06,315.26 490.12,309.32 C485.3,279.25 479.31,241.82 471.84,214.75 C471.607142,213.916497 470.864614,213.327317 470,213.29 C469.122191,213.233396 468.310446,213.756972 468,214.58 C465,222.51 461.29,231.09 457.35,240.18 C450.17,256.75 442.78,273.78 438.42,289.83 C436.42,277.37 434.54,263.47 432.58,248.93 C428.33,217.35 423.94,184.68 417.28,160.33 C417.051458,159.499704 416.317087,158.908927 415.457108,158.863546 C414.59713,158.818164 413.804659,159.328369 413.49,160.13 C406.22,178.82 400.31,201.53 394.6,223.48 C391.6,235.2 388.67,246.26 385.68,256.39 C382.94,265.66 380.4,275.13 377.94,284.29 C372.24,305.54 366.36,327.45 357.14,350.58 C355.76,331.29 352.67,311.04 349.68,291.37 C348.78,285.43 347.84,279.3 346.99,273.42 C345.79,265.08 344.22,255.33 342.56,245 C339.87,228.32 336.83,209.4 334.29,190.11 C334.170146,189.197543 333.443099,188.484653 332.528462,188.382763 C331.613824,188.280873 330.747717,188.816288 330.43,189.68 C325.23,203.76 321.72,218.8 318.34,233.35 C316.34,242.01 314.24,250.96 311.82,259.59 C310.82,263.06 309.82,266.59 308.82,270.21 C303.02,290.6 296.62,313.07 293.35,334.48 C289.9,300.48 282.98,231.55 281.53,210.4 C277.13,146.03 271.53,89.12 263.88,31.31 C263.756897,30.3802912 263.004321,29.6609785 262.07,29.58 C261.131878,29.5074767 260.270068,30.0986699 260,31 C249.4,64.27 233.93,106 220.27,142.85 C217.62,150 215.07,156.85 212.67,163.4 C210.08,170.4 207.57,177.17 205.13,183.72 C191.39,220.58 179.45,252.6 168.71,295.93 C160.43,280.57 154.88,262.5 149.49,244.93 C146.49,235.13 143.36,224.99 139.86,215.71 C139.546151,214.890923 138.735224,214.371929 137.86,214.43 C136.956258,214.472392 136.193524,215.116205 136,216 C133.6,225.72 130.56,235.74 127.62,245.43 C124.68,255.12 121.57,265.35 119.15,275.22 C112.24,303.36 104.41,335.22 97.85,367.71 C96.37,375.06 93.44,387.71 90.04,402.29 C78.28,453 60.45,529.71 63.28,552.88 L63.53,554.88 C63.9,557.98 64.19,560.43 64.61,562.4 C66.35,570.54 71.06,570.81 82.44,571.47 C92.32,572.05 102.26,572.08 111.87,572.1 C120.45,572.1 129.33,572.1 138.1,572.57 C161.66,573.68 184.85,574.13 207.97,574.13 C252.48,574.13 296.69,572.48 342.58,570.76 C383.1,569.25 414.11,568.65 443.14,568.76 C452.14,568.76 461.51,569.36 470.6,569.89 C483.19,570.63 496.22,571.39 508.85,570.89 C514.779347,570.703022 520.356989,568.03214 524.22,563.53 C528.796318,557.986814 530.887012,550.803219 530,543.67 L530,543.67 Z" id="Path" fill="#EAF3F3" fill-rule="nonzero"/>
            </g>
        </g>
        <g id="Random" transform="scale(1 1)">
            <g id="Random/Element 35" stroke="none" stroke-width="1" fill="none" fill-rule="evenodd">
                <g id="crystal" transform="translate(181.000000, 200.000000)" fill-rule="nonzero">
                    <g id="stickers_expanded">
                        <path d="M179.85,109.51 C179.63,104.84 179.4,100.01 179.33,95.24 C179.19,86.62 178.99,77.47 178.22,68.62 C177.43,59.48 172.69,53.71 167.05,47.62 C154.870357,34.6466785 141.366857,22.983194 126.76,12.82 C124.18,11.04 116.47,6.51 112.1,3.96 L112.1,3.96 C109.42931,2.40134757 106.018792,3.04508283 104.1,5.47 C98.18,12.88 84.1,30.66 80.77,35.58 C78.36,39.16 75.67,42.65 73.07,46.01 C67.35,53.42 61.44,61.07 58.07,70.34 C55.48,77.56 55.35,86.52 55.25,94.43 C55.25,96.98 55.18,99.43 55.07,101.68 C54.86,106.12 54.53,110.68 54.22,115.01 C53.67,122.59 53.1,130.43 53.1,138.24 C53.1,140.81 52.95,143.44 52.79,146.24 C52.46,151.87 52.13,157.69 53.14,163.16 C54.02,167.98 56.48,170.16 59.87,173.26 C62.05,175.26 64.22,177.21 66.4,179.2 C70.99,183.4 75.73,187.74 80.46,191.84 C82.39,193.51 85.13,195.72 87.08,197.28 C88.5446386,198.444656 90.3587625,199.082241 92.23,199.09 L93.38,199.09 C97.45,199.09 103.65,198.98 106.76,198.4 C109.87,197.82 113.11,197.31 116.23,196.83 C119.88,196.26 123.67,195.68 127.38,194.94 L127.54,194.94 C132.63,193.94 140.33,192.38 144.79,189.78 C149.25,187.18 154.87,182.59 161.99,175.72 C169.7,168.28 174.99,161.82 177.75,156.5 C180.08,151.98 180.12,145.32 180.15,139.45 C180.15,137.75 180.15,136.15 180.23,134.76 C180.64,126.21 180.24,117.72 179.85,109.51 Z" id="Path" fill="#9F0A42"/>
                        <path d="M145.15,186.57 C137.88,179.71 129.3,169.65 121,159.92 C116.39,154.52 112,149.42 108.21,145.23 C107.768851,144.74847 107.120391,144.512648 106.472976,144.598306 C105.82556,144.683964 105.260742,145.080312 104.96,145.66 L81.57,190.72 C81.1349378,191.55326 81.3388615,192.57704 82.06,193.18 C83.81,194.65 85.76,196.18 87.06,197.27 C88.5246386,198.434656 90.3387625,199.072241 92.21,199.08 L93.36,199.08 C97.43,199.08 103.63,198.97 106.74,198.39 C109.85,197.81 113.09,197.3 116.2,196.82 C119.86,196.26 123.65,195.67 127.36,194.93 L127.5,194.93 C132.6,193.93 140.3,192.37 144.77,189.77 C145.313024,189.451364 145.674306,188.895625 145.745129,188.270015 C145.815953,187.644405 145.58805,187.021965 145.13,186.59 L145.15,186.57 Z" id="Path" fill="#8B0651"/>
                        <path d="M129,170 L106.9,167 C107.19,161.84 108.23,143.74 108.63,139.33 C109.63,128.7 110.85,102.63 110.86,102.33 C110.881819,101.897239 110.762501,101.469098 110.52,101.11 C110.39,100.93 98.12,82.78 92.11,74.98 C86.3092414,67.3211402 80.0687428,60.0054995 73.42,53.07 L72.07,51.39 C71.6870509,50.8999441 71.0914118,50.624461 70.47,50.65 C69.8510642,50.6593379 69.2713333,50.9547422 68.9,51.45 C65.04,56.65 60.73,62.96 58.07,70.36 C55.48,77.58 55.35,86.54 55.25,94.45 C55.25,97.01 55.18,99.45 55.07,101.7 C54.86,106.14 54.53,110.7 54.22,115.03 C53.67,122.61 53.1,130.45 53.1,138.26 C53.1,140.83 52.95,143.46 52.79,146.26 C52.46,151.89 52.13,157.71 53.14,163.18 C54.02,168 56.48,170.18 59.87,173.28 C62.04,175.28 64.21,177.23 66.39,179.22 C70.98,183.41 75.73,187.75 80.46,191.86 C82.39,193.53 85.13,195.74 87.08,197.3 C87.765466,197.847622 88.5355468,198.279948 89.36,198.58 C89.5829907,198.667288 89.8205381,198.710032 90.06,198.710032 C90.3722807,198.710032 90.680509,198.639304 90.96,198.5 C91.4485245,198.245242 91.8103164,197.800238 91.96,197.27 C94.13,189.87 102.7,175.52 105.56,170.84 L128.49,174 L128.77,174 C129.874569,174.074558 130.830441,173.239569 130.905,172.135 C130.979558,171.030431 130.144569,170.074559 129.04,170 L129,170 Z" id="Path" fill="#D72269"/>
                        <path d="M179.85,109.51 C179.63,104.84 179.4,100.01 179.33,95.24 C179.19,86.62 178.99,77.47 178.22,68.62 C177.43,59.48 172.69,53.71 167.05,47.62 C156.602055,36.4927891 145.17989,26.3222765 132.92,17.23 C132.284993,16.7537282 131.428426,16.698063 130.737118,17.0881425 C130.04581,17.478222 129.650615,18.2402113 129.73,19.03 L133,51.89 L129,60.05 C128.713191,60.6377511 128.731863,61.3285988 129.05,61.9 C129.18,62.13 141.96,85.01 147.05,97.18 C152.7,110.77 159.75,124.29 166.57,137.36 L167.69,139.51 C168.33,140.73 168.96,142.03 169.59,143.35 C171.158831,146.918641 173.096001,150.313715 175.37,153.48 L175.44,153.57 L175.62,153.76 C175.996831,154.188963 176.539038,154.436413 177.11,154.440004 C177.268598,154.440004 177.426574,154.420172 177.58,154.38 C178.300902,154.206529 178.866671,153.648458 179.05,152.93 C180.11,148.82 180.13,143.81 180.16,139.4 C180.16,137.71 180.16,136.12 180.24,134.73 C180.64,126.21 180.24,117.72 179.85,109.51 Z" id="Path" fill="#E04636"/>
                        <path d="M133.79,21.65 L133.72,18.81 C133.707596,18.1945999 133.412514,17.61919 132.92,17.25 C130.77,15.66 128.69,14.17 126.76,12.84 C124.18,11.06 116.47,6.53 112.1,3.98 C109.42931,2.42134757 106.018792,3.06508283 104.1,5.49 C98.18,12.9 84.1,30.68 80.77,35.6 C78.36,39.18 75.67,42.67 73.07,46.03 C67.35,53.44 61.44,61.09 58.07,70.36 C57.94,70.74 57.81,71.13 57.69,71.51 L57.69,71.65 C57.4187548,72.525446 57.7772656,73.4732333 58.56,73.95 L107.86,103.95 C108.161884,104.13326 108.506909,104.233317 108.86,104.24 C109.055993,104.238709 109.250976,104.211815 109.44,104.16 C109.98529,103.991942 110.432834,103.598977 110.67,103.08 C110.74,102.93 117.67,88.08 121.47,81.13 C125.47,73.87 136.77,53.23 136.77,53.23 C136.980419,52.8566584 137.061294,52.4241498 137,52 C137,51.85 134.87,32.84 133.79,21.65 Z" id="Path" fill="#F4629D"/>
                        <path d="M151.05,99.82 C150.20142,99.8193388 149.445634,99.2832491 149.164504,98.48259 C148.883373,97.6819309 149.138107,96.7910241 149.8,96.26 C150.43,95.75 165.52,83.6 174.17,78.14 C174.774276,77.7162966 175.562782,77.6598099 176.221284,77.9930509 C176.879785,78.3262919 177.301251,78.9950966 177.317718,79.7329331 C177.334186,80.4707696 176.942978,81.1577119 176.3,81.52 C167.85,86.86 152.46,99.25 152.3,99.37 C151.946781,99.6580497 151.50577,99.8168135 151.05,99.82 L151.05,99.82 Z" id="Path" fill="#F26D84"/>
                        <path d="M94.85,172.850001 C94.3780122,172.850457 93.9210706,172.683975 93.56,172.38 C91.5387054,170.697144 89.7646012,168.737886 88.29,166.56 C87.7438736,165.632152 88.0302504,164.438481 88.937905,163.859414 C89.8455597,163.280346 91.0487372,163.523708 91.66,164.41 C92.9265369,166.240047 94.4333673,167.891507 96.14,169.32 C96.7830271,169.861344 97.0189489,170.746985 96.7304374,171.536477 C96.441926,172.32597 95.6905573,172.850816 94.85,172.850001 L94.85,172.850001 Z" id="Path" fill="#FEA5BA"/>
                        <path d="M91,179.460046 C90.4899045,179.458084 89.9998183,179.261334 89.63,178.91 C88.63,177.99 87.54,176.98 86.35,175.91 C82.22,172.2 77.07,167.58 74.59,163.28 C74.0931966,162.330299 74.4333526,161.157787 75.3612795,160.621414 C76.2892064,160.08504 77.475008,160.375495 78.05,161.28 C80.22,165.03 85.1,169.41 89.05,172.93 C90.27,174.02 91.42,175.06 92.41,175.99 C92.7949813,176.355764 93.0186962,176.859616 93.0318272,177.390485 C93.0449583,177.921353 92.8464272,178.43565 92.48,178.82 C92.098331,179.231562 91.5612839,179.463798 91,179.460046 L91,179.460046 Z" id="Path" fill="#FEA5BA"/>
                        <path d="M108.61,187.87 C107.661966,187.82563 106.875665,187.121085 106.727894,186.183588 C106.580123,185.246091 107.11158,184.333837 108,184 C109.365806,183.597161 110.764603,183.316063 112.18,183.16 C113.284569,183.046782 114.271782,183.850431 114.385,184.955 C114.498218,186.059569 113.694569,187.046782 112.59,187.16 C111.452897,187.286813 110.328774,187.510969 109.23,187.83 C109.026341,187.873141 108.817514,187.886614 108.61,187.87 Z" id="Path" fill="#D72269"/>
                        <path d="M150.19,157.170009 C149.940845,157.170739 149.693583,157.126706 149.46,157.04 C148.01,156.46 146.46,155.91 145.01,155.47 C143.955136,155.141391 143.366391,154.019864 143.695,152.965 C144.023609,151.910136 145.145136,151.321391 146.2,151.65 C147.71,152.12 149.39,152.71 150.93,153.31 C151.823931,153.663296 152.340105,154.602547 152.159126,155.546568 C151.978148,156.49059 151.15121,157.172353 150.19,157.170009 L150.19,157.170009 Z" id="Path" fill="#C5104B"/>
                        <path d="M66.62,109.69 C65.7779398,109.689642 65.0263004,109.161895 64.74,108.37 C64.21,106.91 63.58,105.37 62.97,103.99 C62.5665429,102.991812 63.0256692,101.853364 64.0087373,101.41435 C64.9918054,100.975336 66.1459945,101.393318 66.62,102.36 C67.27,103.81 67.94,105.46 68.5,107.01 C68.8750761,108.048273 68.3379731,109.194093 67.3,109.57 C67.0816024,109.647607 66.8517694,109.688166 66.62,109.69 Z" id="Path" fill="#FE01FE"/>
                        <path d="M138.7,104.36 L138.7,104.36 C137.595431,104.36 136.7,103.464569 136.7,102.36 C136.740274,100.921391 136.907591,99.4891542 137.2,98.08 C137.28,97.58 137.38,97.08 137.45,96.53 C137.610163,95.4254305 138.635431,94.6598374 139.74,94.82 C140.844569,94.9801626 141.610163,96.0054305 141.45,97.11 C141.37,97.69 141.27,98.23 141.18,98.77 C140.929519,99.9685196 140.782313,101.186317 140.74,102.41 C140.7127,103.510728 139.800839,104.38236 138.7,104.36 Z" id="Path" fill="#E04680"/>
                        <path d="M129.55,110.460003 C128.636698,110.461602 127.838325,109.844303 127.61,108.96 C125.83,102.04 126.38,93.3 127.16,87.19 C127.300833,86.0854305 128.310431,85.3041674 129.415,85.445 C130.519569,85.5858326 131.300833,86.5954305 131.16,87.7 C130.43,93.46 129.89,101.7 131.51,107.96 C131.641558,108.484312 131.555276,109.039548 131.270812,109.499212 C130.986349,109.958875 130.527931,110.283815 130,110.4 C129.852684,110.436599 129.701759,110.456722 129.55,110.460003 Z" id="Path" fill="#E04680"/>
                        <path d="M106.55,34.7100229 C105.66493,34.7142194 104.882341,34.1362033 104.62611,33.289024 C104.369878,32.4418447 104.700948,31.5270002 105.44,31.04 C107.12,29.93 108.77,28.91 110.31,27.96 C111.250199,27.4034974 112.462998,27.7044717 113.033924,28.6359823 C113.604849,29.567493 113.322601,30.7847864 112.4,31.37 C110.9,32.3 109.28,33.3 107.65,34.37 C107.324587,34.588705 106.942067,34.7069384 106.55,34.7100229 Z" id="Path" fill="#FEA5BA"/>
                        <path d="M79.26,78.68 C78.3604544,78.6857625 77.5677477,78.0902519 77.3227763,77.224686 C77.0778048,76.35912 77.4408543,75.4365087 78.21,74.97 C80.366222,73.6634841 82.3775129,72.1315509 84.21,70.4 C85.0134897,69.6942774 86.2299827,69.7454955 86.9713078,70.5162595 C87.7126329,71.2870235 87.7164623,72.5045882 86.98,73.28 C84.9537914,75.2106645 82.7279321,76.9202854 80.34,78.38 C80.0159543,78.5808983 79.641236,78.6849867 79.26,78.68 Z" id="Path" fill="#E04680"/>
                        <path d="M87.75,85.21 C86.8596622,85.1936593 86.0873725,84.5906455 85.8556199,83.7308437 C85.6238674,82.8710418 85.988483,81.9615846 86.75,81.5 L91.07,78.9 C92.0171683,78.3311469 93.2461465,78.6378319 93.8149998,79.5850001 C94.383853,80.5321684 94.0771682,81.7611466 93.13,82.33 L88.81,84.93 C88.4896454,85.1202468 88.1225167,85.2172242 87.75,85.21 Z" id="Path" fill="#E04680"/>
                        <path d="M160.7,63.67 C159.684647,63.6627965 158.835821,62.8959082 158.725935,61.8864931 C158.616049,60.8770781 159.27998,59.9455099 160.27,59.72 C161.37,59.48 162.43,59.23 163.52,58.96 C164.591432,58.6838576 165.683858,59.3285676 165.96,60.4 C166.236142,61.4714324 165.591432,62.5638576 164.52,62.84 C163.4,63.12 162.31,63.37 161.17,63.63 C161.015345,63.6610266 160.857674,63.6744453 160.7,63.67 L160.7,63.67 Z" id="Path" fill="#FEA5BA"/>
                        <path d="M161.71,79.59 C160.359938,79.6069237 159.021267,79.3412332 157.78,78.81 C156.763796,78.3736949 156.293695,77.196204 156.73,76.1800001 C157.166305,75.1637963 158.343796,74.6936952 159.36,75.13 C160.123617,75.4689039 160.955348,75.6263509 161.79,75.59 C162.894569,75.59 163.79,76.4854305 163.79,77.59 C163.79,78.6945695 162.894569,79.59 161.79,79.59 L161.71,79.59 Z" id="Path" fill="#FEA5BA"/>
                        <path d="M170.16,17.9 C169.445469,17.9214359 168.773779,17.5600457 168.397949,16.9519615 C168.02212,16.3438773 167.999248,15.5814816 168.337949,14.9519615 C168.676651,14.3224414 169.325469,13.9214359 170.04,13.9 L176.46,13.51 C177.564569,13.4437258 178.513726,14.2854305 178.58,15.39 C178.646274,16.4945695 177.804569,17.4437258 176.7,17.51 L170.29,17.9 L170.16,17.9 Z" id="Path" fill="#FEA5BA"/>
                        <path d="M195.07,17.84 L195,17.84 L190.11,17.59 C189.395469,17.5542735 188.754275,17.140063 188.427949,16.5033975 C188.101624,15.866732 188.139743,15.1043363 188.527949,14.5033974 C188.916155,13.9024585 189.595469,13.5542734 190.31,13.59 L195.21,13.84 C196.314569,13.8676143 197.187614,14.7854306 197.16,15.89 C197.132386,16.9945694 196.214569,17.8676142 195.11,17.84 L195.07,17.84 Z" id="Path" fill="#FEA5BA"/>
                        <path d="M183,11.3300622 L182.86,11.3300622 C182.330867,11.2916115 181.838665,11.0445627 181.491709,10.6432187 C181.144753,10.2418747 180.971473,9.71912314 181.01,9.19 L181.47,2.77 C181.550081,1.6654305 182.510431,0.834918711 183.615,0.915 C184.719569,0.995081289 185.550081,1.9554305 185.47,3.06 L185.01,9.48 C184.931101,10.5294594 184.052389,11.3382238 183,11.3300622 Z" id="Path" fill="#FEA5BA"/>
                        <path d="M183.06,28.8800023 L183,28.8800023 C181.918931,28.8475534 181.059513,27.9615561 181.06,26.88 L181.21,21.88 C181.240376,20.7754305 182.160431,19.9046243 183.265,19.935 C184.369569,19.9653757 185.240376,20.8854305 185.21,21.99 L185.06,26.99 C185.001536,28.0513921 184.123,28.8816089 183.06,28.8800023 Z" id="Path" fill="#FEA5BA"/>
                        <path d="M21.24,143.5 C20.173333,143.501334 19.2933326,142.665334 19.24,141.6 C18.84,133.43 18.11,130.41 15.99,128.11 C13.87,125.81 8.99,124.48 2.13,124.06 C1.0254305,124.06 0.13,123.164569 0.13,122.06 C0.13,120.955431 1.0254305,120.06 2.13,120.06 C5.91,119.85 10.87,118.92 13.48,116.96 C15.78,115.23 16.25,113.73 17.02,111.26 C17.25,110.52 17.51,109.69 17.84,108.8 C18.15,107.21 18.34,105.9 18.56,104.4 C18.7,103.45 18.85,102.45 19.04,101.29 C19.0667949,100.575469 19.4727523,99.9295097 20.1049519,99.5954492 C20.7371515,99.2613887 21.4995472,99.2899785 22.1049519,99.6704492 C22.7103566,100.05092 23.0667949,100.725469 23.04,101.44 C23.3201351,105.957738 24.3684895,110.394645 26.14,114.56 C28.09,119.1 30.38,119.26 35.39,119.62 C36.22,119.69 37.1,119.75 38.04,119.84 C39.1445694,119.900751 39.9907511,120.845431 39.9299998,121.95 C39.8692484,123.054569 38.9245694,123.900751 37.82,123.84 C31.73,123.77 28.32,124.72 26.82,126.92 C24.15,130.73 23,135.48 23.29,141.42 L23.29,141.51 C23.2913341,142.576667 22.4553337,143.456667 21.39,143.51 L21.24,143.5 Z M12.84,121.86 C15.1299444,122.516676 17.2220147,123.729321 18.93,125.39 C19.8616187,126.403304 20.6216089,127.561867 21.18,128.82 C21.7967227,127.341003 22.5712037,125.932856 23.49,124.62 C24.3444409,123.388934 25.4878616,122.386295 26.82,121.7 C24.8180792,120.353274 23.2895286,118.411979 22.45,116.15 C21.8789468,114.844402 21.3782297,113.509157 20.95,112.15 C20.95,112.26 20.88,112.37 20.85,112.48 C20.02,115.15 19.23,117.68 15.85,120.19 C14.9199595,120.869581 13.9088301,121.430573 12.84,121.86 L12.84,121.86 Z" id="Shape" fill="#E04680"/>
                        <path d="M185.38,125 C184.338552,125.003768 183.468517,124.207687 183.38,123.17 C183.11,119.92 182.32,115.7 180.92,113.58 C180.13455,112.245386 178.804682,111.321055 177.28,111.05 C176.78,110.89 176.28,110.71 175.61,110.48 C174.61,110.3 173.73,110.2 172.74,110.09 L170.6,109.82 C169.62469,109.688656 168.889865,108.86731 168.867448,107.883451 C168.845031,106.899591 169.541684,106.045629 170.51,105.87 C173.534698,105.398787 176.430858,104.313152 179.02,102.68 C181.71,100.98 181.88,99.28 181.96,94.62 C181.96,93.9 181.96,93.14 182.02,92.34 C182.057723,91.2628598 182.9422,90.4093397 184.02,90.4099996 L184.02,90.4099996 C185.101556,90.4095132 185.987553,91.2689306 186.02,92.35 C186.17,97.51 186.92,100.44 188.35,101.57 C190.85,103.57 193.9,104.25 197.66,103.74 C198.753269,103.59185 199.760019,104.35698 199.91,105.45 C199.914983,105.539931 199.914983,105.630069 199.91,105.72 C199.919215,106.727182 199.178009,107.584067 198.18,107.72 C192.91,108.43 190.99,109.15 189.62,110.93 C188.25,112.71 187.42,117.22 187.37,123.04 C187.37066,124.1178 186.51714,125.002277 185.44,125.04 L185.38,125 Z M178.87,107.36 C181.114298,107.944995 183.043415,109.379282 184.25,111.36 C184.41,111.6 184.56,111.86 184.71,112.12 C185.078797,110.808546 185.670789,109.570437 186.46,108.46 C187.05947,107.667556 187.777974,106.972665 188.59,106.4 C187.625885,105.936552 186.716857,105.366313 185.88,104.7 C185.273946,104.225701 184.750254,103.654707 184.33,103.01 C183.506282,104.234036 182.419904,105.258921 181.15,106.01 C180.413151,106.494938 179.652172,106.942179 178.87,107.35 L178.87,107.36 Z" id="Shape" fill="#8B0651"/>
                        <path d="M221.26,54.94 C220.155431,54.94 219.26,54.0445695 219.26,52.94 L219.26,52.35 C219.26,51.2454305 220.155431,50.35 221.26,50.35 C222.364569,50.35 223.26,51.2454305 223.26,52.35 L223.26,52.94 C223.26,54.0445695 222.364569,54.94 221.26,54.94 Z" id="Path" fill="#E04636"/>
                        <path d="M235.74,61 C234.635431,61 233.74,60.1045695 233.74,59 L233.74,58.41 C233.74,57.3054305 234.635431,56.41 235.74,56.41 C236.844569,56.41 237.74,57.3054305 237.74,58.41 L237.74,59 C237.74,60.1045695 236.844569,61 235.74,61 Z" id="Path" fill="#FE01FE"/>
                        <path d="M35.11,34.81 C34.0054305,34.81 33.11,33.9145695 33.11,32.81 L33.11,31.06 C33.11,29.9554305 34.0054305,29.06 35.11,29.06 C36.2145695,29.06 37.11,29.9554305 37.11,31.06 L37.11,32.81 C37.11,33.9145695 36.2145695,34.81 35.11,34.81 Z" id="Path" fill="#F4629D"/>
                        <path d="M46.82,48.57 C45.7154305,48.57 44.82,47.6745695 44.82,46.57 L44.82,46 C44.82,44.8954305 45.7154305,44 46.82,44 C47.9245695,44 48.82,44.8954305 48.82,46 L48.82,46.59 C48.8090319,47.6867511 47.9168059,48.5700548 46.82,48.57 Z" id="Path" fill="#FE01FE"/>
                    </g>
                </g>
            </g>
        </g>
    </g>
</svg>
