<svg viewBox="225 225 150 150" xmlns="http://www.w3.org/2000/svg" overflow="visible">
    <g id="Master/Stickers/Compass" stroke="none" stroke-width="1" fill="none" fill-rule="evenodd">
        <g id="compass" transform="translate(231.000000, 225.000000)" fill-rule="nonzero">
            <g id="stickers_expanded">
                <path d="M122.71,6.67 C120.3,4.22 115.63,1.97 111.1,1.06 C108.42,0.530040201 102.16,-0.72 99.1,4.37 C98.009992,6.17237659 97.7304284,8.35079403 98.33,10.37 C99.33,13.88 102.54,16.37 104.57,17.6 C103.337797,19.9703662 101.937555,22.2495199 100.38,24.42 C99.0876537,26.212164 99.492836,28.7126537 101.285,30.005 C103.077164,31.2973463 105.577654,30.892164 106.87,29.1 C108.76527,26.4555374 110.456808,23.6708508 111.93,20.77 C113.576504,21.2613742 115.282053,21.5271304 117,21.56 C119.184686,21.6421087 121.322302,20.9117565 123,19.51 C124.619707,18.0709788 125.571695,16.025833 125.63,13.86 C125.664209,11.1679807 124.611509,8.57588616 122.71,6.67 L122.71,6.67 Z M109.58,11.25 C108.268108,10.6144497 107.121422,9.68340868 106.23,8.53 C107.341785,8.51380596 108.450994,8.64153296 109.53,8.91 C112.72,9.55 115.9,11.16 117.01,12.29 C117.376266,12.6168937 117.62267,13.056902 117.71,13.54 C116.7,13.83 113.42,13.23 109.58,11.25 Z" id="Shape" fill="#E2B420"/>
                <path d="M134.46,59.87 C129.81,44.93 120.67,31.2 111.17,24.87 C103.41,19.72 94.08,16.66 82.64,15.51 C75.75,14.82 61.89,14.92 51.97,18.01 C42.05,21.1 26.53,30.23 16.47,41.56 C6.17,53.17 0.65,73.62 0.689784136,86.97 C0.726475861,90.4720717 1.06101706,93.9646818 1.69,97.41 C3.88171998,108.931479 9.10032665,119.662067 16.81,128.5 C24.25,137.13 32.34,143.15 49.7,146.5 C53.2300905,147.173059 56.8163271,147.507909 60.41,147.500137 C74.41,147.500137 88.67,143.34 95.06,141.2 C109.22,136.47 128.54,119.72 133.62,103.2 C138.26,88 138.56,73.05 134.46,59.87 Z" id="Path" fill="#E2B420"/>
                <path d="M122.89,58.21 C118.38517,45.5145252 108.929318,35.1856029 96.68,29.58 C80.61,22.08 66.62,24.49 55.05,27.84 L54.63,27.97 C47.29,29.89 41.12,34.97 36.56,39.12 C33.2590598,42.1518808 30.2646186,45.5013676 27.62,49.12 C21.89,57.06 15.57,66.56 13.08,79 C11.1835883,88.8571112 12.0842338,99.0482614 15.68,108.42 C20.37,120.11 29.46,129.01 40,132.22 C46.7407449,134.344325 53.7625358,135.443271 60.83,135.48 C64.9957612,135.472185 69.1524222,135.090656 73.25,134.34 C80.3773996,133.061564 87.2458352,130.618929 93.58,127.11 C100.12,123.34 106.58,117.79 110.85,113.94 C116.11,109.23 120.07,101.28 122.94,94.94 C125.149372,89.8846021 126.374582,84.4543086 126.55,78.94 C126.75,72.84 125.51,65.89 122.89,58.21 Z" id="Path" fill="#FFF"/>
                <path d="M89.62,96.09 C88.7592819,93.0885401 87.7412074,90.1344552 86.57,87.24 C86.24,86.39 85.95,85.65 85.73,85.03 C84.7335289,82.2998199 83.4847966,79.6684429 82,77.17 C81.82,76.86 81.56,76.4 81.28,75.89 C79.48,72.59 79.01,71.89 78.36,71.46 C77.946963,71.1981825 77.4542546,71.0918426 76.97,71.16 C74.3219013,71.6972702 71.8255367,72.813975 69.66,74.43 L68.6,75.11 L62,79.29 C61.4581573,79.6311517 61.1124124,80.211111 61.07,80.85 C61.0283985,81.4899026 61.2961549,82.1109487 61.79,82.52 C62.28,82.93 66.63,86.52 67.6,87.23 C68.35,87.77 69.09,88.32 69.82,88.86 C72.08,90.53 74.42,92.26 76.98,93.86 C80.1788103,95.6898401 83.5235567,97.2518366 86.98,98.53 C87.2130729,98.6197024 87.4602778,98.6671116 87.71,98.6700046 C88.3366077,98.6713411 88.9276249,98.3789325 89.3067258,97.8800121 C89.6858267,97.3810918 89.8091859,96.7333367 89.64,96.13 L89.62,96.09 Z" id="Path" fill="#FC6E47"/>
                <path d="M78.54,71.45 C76.4678956,69.7514897 74.3082722,68.1626477 72.07,66.69 C71.07,66.04 70.29,65.48 69.75,65.07 C65.3459468,61.5576237 60.441805,58.722996 55.2,56.66 C54.5415969,56.3952102 53.7921824,56.4991449 53.2306893,56.9331194 C52.6691963,57.3670938 52.3797185,58.0661125 52.47,58.77 C52.7262896,60.5063132 53.1482143,62.2141035 53.73,63.87 C53.87,64.29 54,64.7 54.13,65.11 C54.46,66.2 54.83,67.26 55.2,68.29 C55.62,69.49 56.02,70.62 56.35,71.8 C57.3654039,74.8963012 58.7592854,77.8553604 60.5,80.61 L61.28,81.97 C61.7884365,82.869001 62.8977804,83.2330045 63.84,82.81 C66.49,81.62 69.34,80.32 72.33,78.69 C74.4769996,77.477575 76.5265062,76.1000926 78.46,74.57 C78.9430963,74.202683 79.2332783,73.6358819 79.2488342,73.0292009 C79.2643901,72.4225199 79.0036371,71.8415922 78.54,71.45 L78.54,71.45 Z" id="Path" fill="#90BFFF"/>
                <path d="M21.79,98.05 C20.8720195,98.0647922 20.0618666,97.4526849 19.8253066,96.5655849 C19.5887466,95.6784849 19.9865436,94.7442577 20.79,94.3 C23.2428371,92.9262284 25.8894793,91.9316304 28.64,91.35 C29.3505522,91.1571819 30.1095853,91.3703448 30.6158679,91.9048926 C31.1221504,92.4394403 31.2938044,93.2089236 31.0627069,93.9079638 C30.8316093,94.607004 30.2351342,95.1225496 29.51,95.25 C27.1265483,95.7532869 24.8336107,96.6165105 22.71,97.81 C22.4270841,97.9627905 22.1115004,98.0451167 21.79,98.05 Z" id="Path" fill="#EBE8E5"/>
                <path d="M61.67,40.21 C60.8674396,40.2093459 60.1429984,39.7290099 59.83,38.99 C59.4293839,37.9899975 59.2093088,36.9268655 59.18,35.85 C59.1677292,35.2827396 59.0734182,34.7202417 58.9,34.18 C58.5106393,33.1444661 59.0344661,31.9893607 60.07,31.6 C61.1055339,31.2106393 62.2606393,31.7344661 62.65,32.77 C62.9627911,33.6685212 63.138101,34.6091261 63.17,35.56 C63.1730594,36.1951711 63.2881568,36.8248216 63.51,37.42 C63.7195957,37.909176 63.7255849,38.4617152 63.5266417,38.9553195 C63.3276986,39.4489237 62.9402308,39.8428834 62.45,40.05 C62.2033518,40.1550731 61.9380959,40.2094845 61.67,40.21 Z" id="Path" fill="#EBE8E5"/>
                <path d="M80.29,124.11 C79.2894342,124.120567 78.4350343,123.390055 78.29,122.4 C78.1929545,121.886385 78.0660729,121.378858 77.91,120.88 C77.4704813,119.646763 77.2900557,118.336124 77.38,117.03 C77.5235942,115.925431 78.5354306,115.146406 79.64,115.29 C80.7445693,115.433594 81.5235939,116.445431 81.38,117.55 C81.3891779,118.311209 81.5278236,119.065306 81.79,119.78 C81.9961866,120.434729 82.1565738,121.103009 82.27,121.78 C82.3472215,122.305176 82.2124976,122.839508 81.8955064,123.265289 C81.5785153,123.69107 81.1052624,123.973369 80.58,124.05 L80.29,124.11 Z" id="Path" fill="#EBE8E5"/>
                <path d="M109.23,68.33 C108.214647,68.3227965 107.365821,67.5559082 107.255935,66.5464931 C107.146049,65.5370781 107.80998,64.6055099 108.8,64.38 C110.93,63.9 113.07,63.53 115.14,63.16 L117,62.83 C118.088001,62.6339389 119.128939,63.356999 119.325,64.445 C119.521061,65.533001 118.798001,66.5739389 117.71,66.77 L115.83,67.1 C113.83,67.46 111.71,67.83 109.67,68.28 C109.526336,68.3168538 109.37827,68.3336796 109.23,68.33 Z" id="Path" fill="#EBE8E5"/>
            </g>
        </g>
    </g>
</svg>
