<svg viewBox="60.61 145.35 239.024 538.65" xmlns="http://www.w3.org/2000/svg" xmlns:xlink="http://www.w3.org/1999/xlink" overflow="visible">
    <defs>
        <polygon id="mastercharactersitting-in-chair-path-3" points="0.497175962 -0.0043 61.9637037 -0.0043 61.9637037 29 0.497175962 29"/>
        <path d="M11.844,1.097 C19.404,17.367 19.901,39.293 13.826,56.759 L13.826,56.759 C12.317,62.044 6.817,65.045 0.77,65.771 L0.77,65.771 C2.608,73.157 4.454,80.544 5.15,84.567 L5.15,84.567 C6.788,94.013 9.762,109.634 7.808,116.289 L7.808,116.289 C48.851,128.592 68.686,126.089 80.7,119.665 L80.7,119.665 C78.507,108.324 82.192,84.478 81.396,74.186 L81.396,74.186 C81.396,74.186 85.202,70.827 85.987,64.501 L85.987,64.501 C88.032,53.75 63.06,5.75 61.911,3.284 L61.911,3.284 C61.266,3.059 59.93,2.582 59.283,2.279 L59.283,2.279 C67.464,17.391 73.206,52.715 61.743,60.728 L61.743,60.728 C49.455,59.399 14.512,3.311 13.169,0.571 L13.169,0.571 C12.558,0.793 12.129,0.968 11.844,1.097" id="mastercharactersitting-in-chair-path-1"/>
    </defs>
    <g id="Master/Character/Sitting In Chair" stroke="none" stroke-width="1" fill="none" fill-rule="evenodd">
        <g id="Body/Sitting In Chair" transform="translate(3.000000, 247.000000) scale(1 1)">
            <defs>
                <polygon id="bodysitting-in-chairstripes-n-skirt-path-3" points="0.497175962 -0.0043 61.9637037 -0.0043 61.9637037 29 0.497175962 29"/>
                <path d="M11.844,1.097 C19.404,17.367 19.901,39.293 13.826,56.759 L13.826,56.759 C12.317,62.044 6.817,65.045 0.77,65.771 L0.77,65.771 C2.608,73.157 4.454,80.544 5.15,84.567 L5.15,84.567 C6.788,94.013 9.762,109.634 7.808,116.289 L7.808,116.289 C48.851,128.592 68.686,126.089 80.7,119.665 L80.7,119.665 C78.507,108.324 82.192,84.478 81.396,74.186 L81.396,74.186 C81.396,74.186 85.202,70.827 85.987,64.501 L85.987,64.501 C88.032,53.75 63.06,5.75 61.911,3.284 L61.911,3.284 C61.266,3.059 59.93,2.582 59.283,2.279 L59.283,2.279 C67.464,17.391 73.206,52.715 61.743,60.728 L61.743,60.728 C49.455,59.399 14.512,3.311 13.169,0.571 L13.169,0.571 C12.558,0.793 12.129,0.968 11.844,1.097" id="bodysitting-in-chairstripes-n-skirt-path-1"/>
            </defs>
            <g id="Body/Sitting In Chair/Stripes N Skirt" stroke="none" stroke-width="1" fill="none" fill-rule="evenodd">
                <g id="Stripes-N-Skirt" transform="translate(64.500000, -5.500000)">
                    <g id="Group-104" transform="translate(12.000000, 0.910000)">
                        <path d="M70.1633,8.2267 C70.2123,8.2487 70.2473,8.2647 70.2683,8.2737 C70.2333,8.2587 70.1983,8.2427 70.1633,8.2267" id="Fill-1" fill="#c47357"/>
                        <path d="M70.1633,8.2267 C70.2123,8.2487 70.2473,8.2647 70.2683,8.2737 C70.2333,8.2587 70.1983,8.2427 70.1633,8.2267" id="Fill-3" fill="#c47357"/>
                        <path d="M176.8459,256.1651 C166.2339,270.8071 162.1019,298.0891 160.3519,305.1791 C157.2479,317.7511 154.1399,330.4891 150.5639,339.3931 C148.7539,343.8981 146.7889,348.5941 144.6639,352.3781 C140.4739,359.8401 142.1889,377.1561 158.1889,370.7511 C158.1889,370.7511 189.5209,310.5001 209.9889,269.0191 C216.0009,256.8331 215.8979,246.9471 213.3119,239.2651 C210.2519,230.1741 189.3889,238.8591 176.8459,256.1651" id="SKIN" fill="#c47357"/>
                        <path d="M151.9836,344.1861 C164.9836,319.1861 169.9836,294.1861 184.9836,269.1861 C189.5066,261.0451 195.6646,250.4491 193.8376,240.3591 C187.9436,243.9431 181.7566,249.3891 176.8456,256.1651 C166.2336,270.8071 162.1016,298.0891 160.3516,305.1791 C157.2486,317.7511 154.1396,330.4891 150.5636,339.3931 C149.4426,342.1841 148.2606,345.0481 147.0196,347.7241 C149.0866,347.1911 150.8766,346.0311 151.9836,344.1861" id="Fill-7" fill-opacity=".15" fill="#000" style="mix-blend-mode:overlay"/>
                        <path d="M206.6438,228.9747 C200.3388,223.0847 172.2688,191.7977 135.6808,162.2817 C116.4188,146.7417 91.9338,133.0937 75.9658,124.0787 C64.8428,135.1297 59.2448,163.8977 70.8358,184.7427 C71.5908,185.2127 170.6698,244.5457 188.6998,257.5517 C189.3338,258.0097 189.9388,258.4577 190.5248,258.9007 C199.6918,253.9137 211.2648,259.4347 214.7858,249.7037 C214.9858,245.4587 214.2358,236.0677 206.6438,228.9747" id="SKIN" fill="#c47357"/>
                        <path d="M190.3752,235.8009 C175.9622,217.6269 124.2782,187.2079 82.4832,158.7279 C77.0412,155.0199 71.4862,145.6069 67.2262,139.7619 C63.0262,153.1459 63.0442,170.7309 70.8362,184.7429 C71.5912,185.2129 170.6702,244.5459 188.6982,257.5509 C188.8082,257.6299 190.2842,258.7329 190.3912,258.8109 C191.9852,256.0059 195.8472,243.0719 190.3752,235.8009" id="Fill-11" fill-opacity=".15" fill="#000" style="mix-blend-mode:overlay"/>
                        <path d="M149.3752,20.4127 C144.1832,25.5167 145.3942,33.2757 140.0562,45.3997 C138.6762,48.5347 148.6032,59.1737 152.2202,45.4887 C155.8112,31.8977 164.3192,32.9507 170.5812,27.0947 C172.7142,25.1007 175.8732,21.0797 177.9232,18.2377 C180.1822,15.1077 181.6812,11.2757 180.8922,10.6787 C180.0922,9.9747 178.4422,12.6337 176.2372,15.0207 C174.6042,16.7897 171.2372,19.9627 170.8972,19.3117 C175.9792,13.9117 182.0972,5.5717 180.1162,4.2157 C178.4912,3.1037 169.8092,16.9867 168.6772,15.1987 C168.5702,14.8637 172.9712,9.2927 174.4882,6.5537 C175.6192,4.5137 177.1952,1.8967 176.0152,1.1707 C174.8062,0.4267 173.1042,3.0677 171.6592,5.0327 C169.5832,7.8557 165.8762,13.4937 165.3222,12.9007 C165.0722,12.6487 167.5062,9.5177 168.9942,6.1087 C170.3142,3.0837 170.8072,0.3647 169.8712,0.1107 C168.9072,-0.1513 167.8692,2.1187 166.5182,4.8137 C164.0932,9.6527 158.6402,15.6317 158.4772,15.7767 C158.4142,15.8317 159.3292,13.4697 159.5892,11.5927 C160.0052,8.5887 160.2132,6.0477 158.7892,5.8127 C157.0302,5.5217 156.2052,13.6987 149.3752,20.4127" id="SKIN" fill="#c47357"/>
                        <path d="M157.1936,20.6612 C156.4056,22.3312 153.0916,23.9882 154.6366,25.3432 C157.3386,27.7102 162.4266,25.2652 166.0486,24.4222 C171.6956,23.1072 167.7496,18.2652 165.1286,16.4322 C162.0786,14.3002 159.7336,15.2812 157.1936,20.6612" id="Fill-15" fill-opacity=".15" fill="#000" style="mix-blend-mode:overlay"/>
                        <path d="M131.9328,107.2569 C131.6898,106.6829 131.5678,106.3649 131.5678,106.3649 C126.8588,74.8299 108.0828,18.3999 83.0508,12.1869 C81.9188,11.9059 81.0578,11.7359 79.7158,11.4189 C77.5188,10.8999 76.6308,10.6239 74.3748,10.1409 C61.4548,7.3719 90.7368,56.1159 98.1978,71.3489 C105.6768,86.6189 110.2718,96.0049 116.6068,109.8729 C117.1068,110.9669 119.6178,112.0419 120.5338,112.4399 C123.2868,109.1869 127.5978,107.1989 131.9328,107.2569" id="SKIN" fill="#c47357"/>
                        <path d="M116.4172,86.4835 C111.9382,62.9565 104.4282,34.0695 74.4892,24.8115 C80.6602,39.7525 93.5862,61.9355 98.1952,71.3455 C98.1962,71.3465 98.1962,71.3475 98.1972,71.3485 C98.6452,72.2615 99.0792,73.1495 99.5072,74.0225 C99.6062,74.2275 99.7042,74.4245 99.8032,74.6275 C100.1002,75.2335 100.3962,75.8375 100.6842,76.4275 C100.8782,76.8235 101.0672,77.2115 101.2582,77.6005 C101.4532,77.9995 101.6482,78.4005 101.8402,78.7925 C102.0632,79.2495 102.2842,79.7015 102.5032,80.1495 C102.6472,80.4445 102.7912,80.7385 102.9332,81.0295 C103.1662,81.5075 103.3982,81.9835 103.6272,82.4525 C103.7712,82.7485 103.9142,83.0425 104.0572,83.3355 C104.2722,83.7795 104.4892,84.2245 104.7022,84.6625 C104.8372,84.9405 104.9702,85.2155 105.1052,85.4915 C105.3292,85.9555 105.5562,86.4215 105.7782,86.8805 C105.8342,86.9965 105.8892,87.1105 105.9442,87.2255 C106.8252,89.0455 107.6842,90.8285 108.5322,92.6015 C108.5872,92.7155 108.6422,92.8295 108.6962,92.9425 C108.9412,93.4565 109.1872,93.9705 109.4312,94.4835 C109.5132,94.6555 109.5952,94.8275 109.6772,95.0005 C109.9172,95.5055 110.1582,96.0145 110.3982,96.5225 C110.4812,96.6965 110.5642,96.8725 110.6472,97.0475 C110.8962,97.5715 111.1452,98.1005 111.3942,98.6295 C111.4592,98.7685 111.5252,98.9085 111.5912,99.0475 C111.8552,99.6085 112.1182,100.1715 112.3842,100.7395 C112.4292,100.8355 112.4742,100.9315 112.5192,101.0265 C113.1202,102.3145 113.7292,103.6215 114.3522,104.9675 C115.6672,104.2695 117.6532,95.1755 116.4172,86.4835" id="Fill-19" fill-opacity=".15" fill="#000" style="mix-blend-mode:overlay"/>
                        <path d="M117.8909,103.795 C117.4369,106.588 116.9589,108.705 116.6529,109.945 C120.5589,117.503 128.1539,117.503 131.9599,111.882 C148.9649,82.208 151.0209,48.256 153.6779,37.818 C154.4709,34.703 145.2319,32.209 143.8289,35.09 C142.4369,37.951 140.8909,44.649 137.1059,51.975 C125.5629,74.319 118.6409,99.177 117.8909,103.795" id="SKIN" fill="#c47357"/>
                        <path d="M143.177,36.6554 C141.915,40.0074 140.316,45.7594 137.106,51.9754 C131.244,63.3204 126.578,75.3084 123.303,84.9714 C137.535,75.5014 138.64,54.6864 144.093,38.4584 C144.062,38.0814 144.031,37.7034 143.984,37.3214 C143.984,37.3214 143.644,36.9844 143.177,36.6554" id="Fill-23" fill-opacity=".15" fill="#000" style="mix-blend-mode:overlay"/>
                        <path d="M90.0618,119.4908 C90.1578,105.9508 93.0948,93.5158 91.9048,78.1118 C91.9048,78.1118 95.7098,74.7538 96.4958,68.4278 C96.9538,64.7328 93.3138,55.3778 86.7498,39.0578 C79.3358,20.6228 83.7408,14.1298 83.5228,12.5988 C83.4368,12.0028 75.2318,10.4328 70.2958,8.2858 C64.5028,15.6378 52.7248,16.3058 52.7248,16.3058 C34.3438,16.9698 26.8678,5.6488 26.7778,5.5108 C24.1528,6.6098 20.8768,7.8748 14.8938,10.1988 C22.4408,28.2328 10.2898,43.5228 6.7088,49.0558 C7.1468,54.9198 14.1358,79.7148 15.6588,88.4938 C17.6298,99.8658 20.7248,110.9268 19.9118,118.5218 C19.1858,125.2948 9.9768,142.7618 4.9098,159.1318 C27.3298,161.8208 57.8058,161.0168 66.7478,181.8628 C66.9408,181.8178 67.1458,181.7748 67.3588,181.7348 C71.7388,180.9138 77.0288,178.4228 77.2238,173.9698 C78.4648,145.5758 88.1398,135.0948 90.7778,132.5038 C90.0618,129.7248 90.0128,126.4028 90.0618,119.4908" id="SKIN" fill="#c47357"/>
                        <path d="M70.1633,8.2267 C70.2123,8.2487 70.2473,8.2647 70.2683,8.2737 C70.2333,8.2587 70.1983,8.2427 70.1633,8.2267" id="Fill-27" fill="#c47357"/>
                        <path d="M29.3987,110.2662 C29.3987,105.2662 37.4877,85.7282 34.1597,79.2942 C24.4647,75.0032 27.0927,62.3502 15.7047,52.3572 C12.2807,49.2332 8.3857,48.8052 6.7087,49.0562 C7.1457,54.9192 14.1357,79.7142 15.6587,88.4942 C17.6297,99.8652 20.7247,110.9262 19.9117,118.5212 C19.1857,125.2952 9.9757,142.7622 4.9097,159.1312 C8.9057,159.5902 15.0447,160.1662 19.4157,160.5772 C19.1897,151.3722 28.7217,132.2482 29.1087,114.3552 C29.1807,113.0522 29.2747,111.6992 29.3987,110.2662" id="Fill-31" fill-opacity=".15" fill="#000" style="mix-blend-mode:overlay"/>
                        <path d="M47.7737,24.1515 C47.6677,24.1515 47.5597,24.1175 47.4677,24.0475 C42.1967,19.9645 35.6277,17.5025 28.9707,17.1135 C28.6957,17.0975 28.4857,16.8615 28.5017,16.5855 C28.5167,16.3105 28.7367,16.1035 29.0297,16.1155 C35.8847,16.5155 42.6517,19.0515 48.0807,23.2555 C48.2987,23.4255 48.3387,23.7395 48.1697,23.9575 C48.0717,24.0855 47.9227,24.1515 47.7737,24.1515" id="Fill-33" fill-opacity=".25" fill="#000" style="mix-blend-mode:overlay"/>
                        <path d="M66.0051,23.1334 C65.9991,23.1334 65.9921,23.1334 65.9861,23.1334 C65.7671,23.1244 65.5781,22.9734 65.5221,22.7614 C65.4361,22.4344 65.5341,22.0804 65.7661,21.8414 C67.2111,18.1554 69.9411,14.9204 73.3361,12.8954 C73.5741,12.7544 73.8821,12.8314 74.0221,13.0684 C74.1631,13.3054 74.0861,13.6124 73.8491,13.7534 C70.6331,15.6724 68.0491,18.7384 66.6871,22.2324 C66.6751,22.2834 66.6561,22.3334 66.6291,22.3794 C66.5771,22.5184 66.5261,22.6574 66.4781,22.7974 C66.4071,22.9994 66.2181,23.1334 66.0051,23.1334" id="Fill-35" fill-opacity=".25" fill="#000" style="mix-blend-mode:overlay"/>
                        <path d="M46.8137,81.9229 C44.7687,81.9229 42.4857,81.7749 40.3437,81.3749 C37.5827,80.8579 33.7887,79.5199 31.5397,77.6949 C28.7507,75.4329 26.2477,70.3859 25.5127,67.6119 C25.4427,67.3449 25.6017,67.0709 25.8687,67.0009 C26.1357,66.9319 26.4087,67.0889 26.4797,67.3559 C27.2687,70.3359 29.7997,74.9969 32.1687,76.9189 C34.2827,78.6329 37.8897,79.8979 40.5277,80.3909 C44.3117,81.0999 48.5487,80.9939 51.0287,80.6909 C51.3077,80.6489 51.5517,80.8519 51.5847,81.1259 C51.6197,81.3999 51.4237,81.6499 51.1507,81.6829 C50.0017,81.8239 48.4877,81.9229 46.8137,81.9229" id="Fill-37" fill="#000"/>
                        <path d="M69.7385,126.922 C69.5555,126.922 69.3805,126.822 69.2925,126.648 C68.5445,125.172 68.3825,123.415 68.8485,121.827 L68.8955,121.672 C68.9855,121.377 69.0705,121.099 69.0185,120.885 C68.9535,120.616 69.1175,120.346 69.3855,120.28 C69.6525,120.216 69.9255,120.379 69.9905,120.648 C70.1075,121.129 69.9715,121.573 69.8515,121.964 L69.8075,122.11 C69.4125,123.455 69.5505,124.944 70.1835,126.196 C70.3085,126.442 70.2105,126.743 69.9645,126.868 C69.8915,126.905 69.8145,126.922 69.7385,126.922" id="Fill-39" fill="#000"/>
                        <path d="M167.2444,403.9527 C167.4484,404.1867 169.1134,409.4507 165.5434,413.8497 L156.9224,414.8927 C156.9224,414.8927 148.5694,410.3917 148.4024,410.2527 C148.2344,410.1127 136.4224,389.6817 136.4224,389.6817 L146.4934,375.0977 L156.4924,399.4077 L167.2444,403.9527 Z" id="Fill-41" fill="#D7595E"/>
                        <path d="M142.5168,351.879 C142.5168,351.879 142.2758,351.804 141.7358,351.954 C140.8448,352.203 139.3898,353.08 138.0578,354.574 C138.0578,354.574 134.5418,360.932 139.6958,368.865 C144.0488,375.567 143.8508,377.051 143.5738,380.457 C143.5738,380.457 146.6738,382.233 146.7148,389.138 C146.7548,396.043 156.4438,406.405 161.5598,407.704 C166.6748,409.002 167.0988,405.583 167.2448,403.953 C167.3908,402.323 166.5548,398.797 165.8268,395.63 C165.0968,392.462 165.0308,389.308 165.4138,387.877 L142.5168,351.879 Z" id="Fill-43" fill="#FFF"/>
                        <path d="M164.6575,369.0577 C164.6575,369.0577 169.4815,364.7237 170.9925,361.9407 C172.5035,359.1577 171.7075,356.8777 168.9645,355.8047 C166.2205,354.7307 166.2465,352.5977 163.7685,352.8227 C161.2905,353.0487 159.8325,352.3727 157.9245,356.4417 C156.0155,360.5107 152.4915,363.7707 151.4705,363.8637 C151.4705,363.8637 148.2505,362.3927 147.4805,357.9797 C146.7125,353.5667 148.5135,349.9487 144.7505,348.9677 C144.7505,348.9677 143.7965,351.4067 141.7155,351.9627 C141.7155,351.9627 142.7355,351.8707 143.1605,354.1097 C143.5845,356.3497 140.8145,362.2607 144.3805,365.0967 C147.9455,367.9327 149.6375,365.3557 151.8025,367.5087 C154.4615,370.1517 150.9685,373.6837 150.9015,377.8057 C150.8365,381.9277 153.2135,390.6757 161.2085,392.4117 C161.2085,392.4117 165.9855,394.0657 165.4675,385.2257 C165.0345,377.8437 164.7775,377.6457 165.4005,375.6047 C166.0225,373.5637 165.8105,370.4227 164.6575,369.0577" id="Fill-45" fill="#366"/>
                        <path d="M164.0598,368.5919 C164.0598,368.5919 169.0478,363.3419 168.2098,362.3659 C167.4158,361.4979 166.5548,361.8769 165.3548,361.3939 C164.1128,360.8929 163.8038,359.4189 162.0838,359.9469 C160.7648,360.3529 160.3098,365.3259 158.3548,367.1359 C160.6758,366.6779 163.6428,367.6959 164.0598,368.5919" id="Fill-47" fill="#323c84"/>
                        <path d="M138.0578,354.5743 C138.0578,354.5743 135.3598,355.3263 133.0718,359.0933 C133.0718,359.0933 130.1018,366.7723 136.1878,374.9283 C140.8978,381.2383 138.4498,386.4533 140.5238,391.1133 C140.5238,391.1133 143.0108,385.1053 143.6728,379.7603 C144.3358,374.4163 142.6638,373.7253 139.3638,367.7463 C134.8598,359.5873 138.0578,354.5743 138.0578,354.5743" id="Fill-49" fill="#EC769C"/>
                        <path d="M133.0715,359.0934 C133.0715,359.0934 129.4445,362.3114 127.5755,365.0084 C125.7065,367.7054 128.4325,373.5424 131.5345,377.6484 C135.5395,382.9514 132.6085,387.4494 135.1675,394.5924 C137.7245,401.7344 146.1145,414.5864 157.3865,417.7384 C157.3865,417.7384 162.2415,418.9474 165.543594,413.8504 C165.543594,413.8504 165.6075,412.2974 162.3895,411.5074 C159.1725,410.7164 158.3825,413.3674 155.2655,412.0004 C152.1505,410.6334 143.2195,405.0744 140.5235,391.1134 C140.5235,391.1134 142.4975,382.3384 138.4385,376.9434 C132.7765,369.4174 131.4495,362.4164 133.0715,359.0934" id="Fill-51" fill="#393960"/>
                        <path d="M144.7502,348.9679 C144.7322,348.9589 147.2162,344.7409 148.1602,343.5599 C149.1042,342.3799 151.2852,342.3059 154.1932,344.9089 C154.1932,344.9089 149.5782,347.9449 146.5192,351.2059 C146.5192,351.2059 146.1192,349.6349 144.7502,348.9679" id="Fill-53" fill="#366"/>
                        <path d="M156.0539,373.0611 C156.0089,373.0231 155.9679,372.9781 155.9349,372.9251 C155.7669,372.6561 155.8489,372.3031 156.1169,372.1351 C159.0489,370.3011 164.0709,371.0621 166.2599,373.6731 C166.4629,373.9161 166.4309,374.2771 166.1889,374.4811 C165.9459,374.6841 165.5879,374.6481 165.3799,374.4101 C163.5879,372.2601 159.1369,371.5981 156.7259,373.1071 C156.5099,373.2411 156.2399,373.2151 156.0539,373.0611" id="Fill-55" fill="#FFF"/>
                        <path d="M156.5295,376.3668 C156.4675,376.3158 156.4165,376.2508 156.3795,376.1728 C156.2425,375.8878 156.3645,375.5448 156.6495,375.4088 C157.8395,374.8418 160.0705,374.3528 162.0355,374.5158 C163.3595,374.6268 165.2855,375.6558 165.7845,376.8138 C165.9095,377.1048 165.7755,377.4428 165.4845,377.5678 C165.1935,377.6928 164.8555,377.5568 164.7305,377.2678 C164.4385,376.5878 162.9785,375.7458 161.9395,375.6588 C160.1965,375.5148 158.1675,375.9558 157.1435,376.4438 C156.9345,376.5438 156.6965,376.5058 156.5295,376.3668" id="Fill-57" fill="#FFF"/>
                        <path d="M157.1282,379.837 C157.0692,379.789 157.0202,379.728 156.9842,379.656 C156.8412,379.374 156.9532,379.029 157.2352,378.886 C158.7612,378.111 160.5232,377.712 161.9482,377.817 C163.3972,377.924 164.8572,378.607 165.7622,379.595 C165.9762,379.829 165.9592,380.191 165.7252,380.405 C165.4912,380.619 165.1332,380.599 164.9152,380.369 C164.2142,379.598 163.0142,379.045 161.8622,378.961 C160.6552,378.872 159.0812,379.235 157.7552,379.908 C157.5442,380.015 157.2982,379.979 157.1282,379.837" id="Fill-59" fill="#FFF"/>
                        <path d="M157.3049,383.3634 C157.2329,383.3034 157.1739,383.2244 157.1379,383.1304 C157.0239,382.8354 157.1689,382.5034 157.4649,382.3884 C158.2859,382.0704 160.3909,381.3424 162.1819,381.4554 C164.0179,381.5714 165.0379,382.4184 165.8009,383.2284 C166.0159,383.4604 166.0039,383.8224 165.7729,384.0394 C165.5419,384.2554 165.1809,384.2474 164.9619,384.0114 C164.2289,383.2234 163.4609,382.6854 162.1089,382.5994 C160.5459,382.5004 158.6299,383.1674 157.8789,383.4584 C157.6779,383.5354 157.4599,383.4924 157.3049,383.3634" id="Fill-61" fill="#FFF"/>
                        <path d="M158.0793,386.7745 C158.0453,386.7465 158.0153,386.7135 157.9873,386.6775 C157.7973,386.4235 157.8493,386.0655 158.1013,385.8745 C159.1593,385.0825 160.7393,384.8025 162.4383,385.1045 C164.0343,385.3875 165.4013,386.1445 166.0083,387.0785 C166.1813,387.3445 166.1053,387.6995 165.8393,387.8725 C165.5733,388.0455 165.2163,387.9685 165.0463,387.7035 C164.6143,387.0375 163.5123,386.4605 162.2373,386.2335 C160.8713,385.9895 159.5813,386.1995 158.7893,386.7935 C158.5723,386.9555 158.2783,386.9415 158.0793,386.7745" id="Fill-63" fill="#FFF"/>
                        <g id="Leg" transform="translate(0.589475, 147.110100)">
                            <path d="M8.38832547,0.0003 C-6.60767453,34.0613 0.667325472,57.4923 13.3013255,65.6133 C33.2633255,78.4453 72.7383255,87.6153 94.3243255,93.2403 C115.909325,98.8653 140.982325,100.4353 147.216325,105.7123 C148.052325,106.4193 190.819325,125.1693 182.639325,91.8043 C179.097325,83.7163 170.144325,78.7113 162.143325,73.9283 C154.142325,69.1453 107.733325,43.5353 98.3653255,38.9953 C66.9343255,23.7593 19.8923255,2.0863 8.38832547,0.0003" id="SKIN" fill="#c47357"/>
                            <path d="M47.3941255,57.076 C23.8271255,48.918 15.8711255,25.15 19.8011255,3.644 C14.7621255,1.736 10.7921255,0.436 8.38812547,0 C-6.60787453,34.06 0.667125472,57.493 13.3011255,65.614 C33.2631255,78.446 72.7381255,87.615 94.3241255,93.241 C108.467125,96.927 124.108125,98.871 134.965125,101.258 C132.560125,91.649 74.3941255,66.076 47.3941255,57.076" id="Fill-73" fill-opacity=".15" fill="#000" style="mix-blend-mode:overlay"/>
                        </g>
                        <path d="M70.2834,8.2794 C78.4634,23.3914 84.2054,58.7154 72.7434,66.7274 C60.4554,65.3994 25.5124,9.3114 24.1694,6.5714 C23.5574,6.7934 23.1294,6.9674 22.8444,7.0974 C30.4044,23.3664 30.9014,45.2934 24.8264,62.7584 C23.3164,68.0434 17.8164,71.0454 11.7694,71.7704 C13.6074,79.1564 15.4534,86.5434 16.1504,90.5674 C17.7884,100.0124 20.7624,115.6334 18.8074,122.2894 C73.7654,137.5554 75.5054,135.7254 91.6994,125.6654 C89.5074,114.3244 93.1914,90.4774 92.3964,80.1854 C92.3964,80.1854 96.2024,76.8264 96.9874,70.5014 C99.0324,59.7504 74.0594,11.7504 72.9114,9.2844 C72.2654,9.0594 70.9294,8.5814 70.2834,8.2794" id="Fill-102" fill="#323c84"/>
                    </g>
                    <g id="Pattern" transform="translate(23.000000, 6.910000)">
                        <mask id="bodysitting-in-chairstripes-n-skirt-mask-2" fill="#fff">
                            <use xlink:href="#bodysitting-in-chairstripes-n-skirt-path-1"/>
                        </mask>
                        <g id="Clip-106"/>
                        <path d="M95.2057311,107.474224 L96.1758689,109.223176 L94.8249472,109.968071 C82.6250686,116.652673 75.3744645,119.417576 64.9123989,120.689401 C59.8253504,121.307404 48.011424,120.345718 38.2381662,118.820535 L24.6575676,116.613631 C23.3623644,116.409146 22.2673601,116.240508 21.5621896,116.139858 L21.4064643,116.117852 C16.3445402,115.410517 11.669548,114.998539 5.64805516,114.775704 L4.77849485,114.745145 L4.84510515,112.746255 L6.58494661,112.81067 C11.9808175,113.031384 16.3422722,113.413817 20.9529827,114.036732 L22.1956134,114.210858 C26.0746975,114.781775 37.8949329,116.74147 38.0122499,116.760173 L39.0596771,116.923678 C48.5588847,118.375479 59.9077465,119.28269 64.671123,118.704008 C75.0202915,117.445907 82.1308695,114.685577 94.5360541,107.844622 L95.2057311,107.474224 Z M90.5139245,102.323662 L91.4150755,104.109138 C79.4783519,110.133743 65.9362057,112.931211 52.5895677,112.129602 L51.6225573,112.068361 C47.900694,111.819888 44.5506249,111.443228 38.7694184,110.66257 L32.0369446,109.739083 L30.5417862,109.540217 C19.5047852,108.096586 12.3806699,107.732292 4.94631249,108.604264 L3.95285561,108.727867 L3.69214439,106.744933 C11.8756254,105.668989 19.4219273,106.04281 31.5412601,107.654735 L39.5100569,108.744242 C45.4375719,109.540129 48.7435016,109.895082 52.7094527,110.133199 C65.4483199,110.898305 78.3757466,108.294423 89.8285397,102.665052 L90.5139245,102.323662 Z M85.62049,94.739635 L86.83511,96.328565 L86.2494263,96.7701169 C81.1404608,100.565399 77.6493933,101.61213 68.3583521,102.805932 C60.9174843,103.762846 50.6975507,103.959445 43.2506891,103.286032 L41.5089194,103.135784 C38.738687,102.908751 35.6838997,102.715367 30.5314112,102.426757 L22.1605435,101.95908 C12.9163376,101.421686 8.31876622,101.031852 4.83527563,100.415416 L4.07806961,100.274548 L4.46153039,98.3116524 L5.20737676,98.4501007 C8.77535738,99.0787872 13.6610357,99.4737239 23.8375587,100.052075 L34.0648084,100.625888 C38.1926562,100.869219 40.7598674,101.052495 43.4308616,101.294164 C50.7324796,101.954443 60.8064759,101.760651 68.1033582,100.822254 L69.0962026,100.69226 C77.4933591,99.5704297 80.5850272,98.5391099 85.3440326,94.9495803 L85.62049,94.739635 Z M89.5459602,84.5347593 L90.9794398,85.9294407 C87.1451038,89.870443 83.3875604,91.1539171 74.5192499,92.2516295 L69.2071685,92.8828918 C68.5896109,92.9582899 68.0151845,93.0303624 67.4468742,93.1039739 L67.0212098,93.159547 C57.1472199,94.4593165 42.9689638,94.6464466 33.4177343,93.5487126 L32.6327007,93.4542568 C29.9077546,93.1109477 27.0199746,92.9897152 23.2061903,93.0109544 L21.030108,93.0358242 L16.0347036,93.1290875 C10.0852251,93.2183217 6.99355276,93.1025035 3.80421221,92.5576183 L3.04556163,92.4204336 L3.41983837,90.4557664 L3.90244888,90.5445413 C6.95078769,91.0848698 9.89350284,91.2125142 15.5845468,91.1352536 L21.9451001,91.0224616 L23.2051184,91.0109191 C26.890053,90.9905673 29.7436959,91.101375 32.4353822,91.4156556 L32.8826118,91.4699321 C41.9991802,92.6176881 55.995089,92.498476 65.9409788,91.2806701 L68.058161,91.0098375 C68.646269,90.9359896 69.2586891,90.8613036 69.9326564,90.7808826 L73.7820005,90.3268028 L74.7387013,90.2084648 C82.5325119,89.2176751 85.9158427,88.0857027 89.1573828,84.9240242 L89.5459602,84.5347593 Z M71.0473181,78.6886521 L75.6550541,79.4939433 C81.8315771,80.5886444 86.0431465,81.009826 90.5068679,80.7079117 L90.9861896,80.6727946 L91.1434104,82.6666054 C86.4567423,83.0361697 82.1634054,82.6527127 75.9762793,81.5807381 L71.1162021,80.7293739 C67.8140961,80.1671321 66.8798236,80.0842402 65.6556072,80.1606679 L64.4824613,80.2557594 C62.899898,80.3992932 62.0595902,80.5632209 57.8341466,81.6709354 L53.6533617,82.7759585 C47.1224147,84.5074624 42.6177639,85.3500097 37.7251603,85.4677582 L24.3658958,85.6860126 C9.54582389,85.8984531 3.77346401,85.7074398 -1.09679691,84.6790985 L-1.27458947,84.6411019 L-0.851810527,82.6862981 L-0.155850559,82.8292534 C4.48514505,83.7323717 10.4186908,83.8911873 24.8840645,83.6781354 L37.1723579,83.4777903 C41.7319954,83.4164939 45.9062868,82.706186 51.8015741,81.1924269 L53.1408232,80.8427476 C60.919396,78.7804695 62.0363263,78.4848881 63.9579398,78.2957424 L65.4460606,78.1693376 C66.8403692,78.0713292 67.7495694,78.132766 71.0473181,78.6886521 Z M66.6183167,66.9133308 L66.9323767,66.9733351 C67.9019188,67.166252 68.6719859,67.3975736 70.3212034,67.9758081 L72.3694704,68.7000749 C73.1707845,68.9777043 73.7641704,69.1663682 74.3945855,69.3410164 C80.881496,71.1359888 84.4129428,71.0413043 88.9268894,69.5140173 L89.7252557,69.2332122 C90.4275195,68.9799752 91.5253238,68.5783147 91.5266118,68.5778498 C93.3166357,67.9316948 94.6925228,67.504942 96.2289871,67.1635315 L96.6953184,67.0635346 L97.1004816,69.0220654 C95.7476516,69.3019267 94.5610019,69.6401437 93.110835,70.1393647 L92.0889115,70.5017492 C91.6868087,70.6487354 90.3613202,71.1326692 89.937569,71.2811706 C84.8737088,73.0557739 80.9129048,73.2198345 73.8609192,71.2685018 L73.4156069,71.1412913 C72.8241096,70.9670786 72.2266042,70.7699132 71.442877,70.4951052 L69.4576513,69.792713 C67.9698058,69.2745802 67.2847428,69.0765584 66.398309,68.9069261 L66.2565259,68.8803355 C64.2682881,68.5146393 62.5965616,68.7241598 60.8924746,69.6709953 C50.6724792,75.3477244 34.3487222,78.6917872 17.4441808,75.339524 L16.7766072,75.2037098 C14.7953975,74.7902429 12.9103071,75.0614914 8.63060087,76.1599739 L7.36321066,76.4854722 C2.30855655,77.7608453 -0.0796716219,77.9799589 -2.63387151,76.9345946 L-2.84138842,76.8470602 L-2.04481158,75.0125398 C0.0353472632,75.9157766 2.14834259,75.7378097 6.88929753,74.5422483 L8.98709783,74.0065794 C12.8636734,73.0406634 14.813582,72.7946459 16.9620514,73.201461 L17.1851023,73.2458713 C33.8186781,76.7155976 49.9610074,73.4550953 59.9212099,67.9226689 C62.0564618,66.736267 64.1970354,66.467985 66.6183167,66.9133308 Z M61.2712208,58.4990346 L61.7352773,58.6299834 C75.610839,62.5454268 88.9214377,62.8840135 92.0625245,60.7465427 L92.1691482,60.6700762 L93.3762518,62.2647238 C89.8628348,64.9242825 76.4313162,64.6878727 62.1980376,60.8329483 L61.651,60.683 L61.2640925,60.945806 C48.3084024,69.5557445 21.479397,71.0902527 -0.526907847,65.0871429 L-1.20595704,64.8990758 L-0.66464296,62.9737242 C21.1671847,69.111759 48.1523247,67.574493 60.5098106,59.0413093 L60.8797821,58.7805873 L61.2712208,58.4990346 Z M90.8205183,50.8131054 L92.2948817,52.1644946 C90.3438625,54.2930533 87.6384152,55.2967682 84.0843331,55.4692954 L83.4046903,55.4945436 C81.4559302,55.5436714 79.5727975,55.383095 76.1599472,54.9260258 L72.6074175,54.4322485 C67.5715163,53.7381603 64.596216,53.5736406 61.8329923,54.0275427 L61.1106326,54.1499884 C58.6006519,54.5884252 56.2379885,55.1395062 52.6176109,56.0847982 L49.0391658,57.0237653 C46.359951,57.7189059 44.6610833,58.1238638 42.6725842,58.5296195 C31.5463964,60.7993736 18.8236129,60.0780372 7.55423758,56.654482 L6.80513256,56.4222448 L7.40826744,54.5153552 C18.2998622,57.9602848 30.6877749,58.7854905 41.5508554,56.712487 L42.2727686,56.5699901 C44.2217351,56.1723011 45.8946862,55.7734555 48.5463288,55.0854077 L52.6321501,54.0144224 C56.353623,53.0496847 58.7655138,52.5051885 61.5086069,52.0540245 C64.3208199,51.5920752 67.2237431,51.7100099 71.8285356,52.3098 L73.8539919,52.586935 L75.2371062,52.7802115 C84.3614705,54.0252768 87.9791935,53.7893411 90.6837625,50.9592495 L90.8205183,50.8131054 Z M69.1251049,44.8495671 L71.3980417,45.0597852 L74.7335828,45.3954396 C82.3775884,46.1494883 85.5608178,46.2047003 88.3203246,45.3635331 L88.64969,45.2582778 L89.28371,47.1551222 L88.9192516,47.2721528 C85.8163355,48.2272512 82.5267239,48.1745499 74.5605739,47.388179 L70.5553231,46.9875539 L69.0207776,46.8479702 C65.7640931,46.5682241 63.2644335,46.4707566 60.9891426,46.5748927 L60.6119135,46.5941188 C57.07179,46.7934368 53.3235324,47.1689165 48.6242853,47.7646207 L44.5913499,48.2959807 L38.9475548,49.0660712 C23.6132905,51.1240104 17.2317346,51.4914912 10.8366455,50.141613 L10.3445377,50.0343884 L10.7828623,48.0830116 L11.2516059,48.1850314 C17.3482004,49.4689978 23.6326523,49.103536 38.7234558,47.0781406 L46.3710519,46.0397305 L48.3771836,45.7799369 C53.1170178,45.1791352 56.906717,44.7995634 60.4995737,44.5972763 C62.9731835,44.4582227 65.6330818,44.5512219 69.1251049,44.8495671 Z M86.1947001,38.7206103 L86.5178163,38.9319508 L85.3979837,40.5890492 C82.4627249,38.6054626 78.5049695,38.0732317 73.7940741,38.709852 L73.3204841,38.7773998 C72.1054173,38.9599659 71.0948822,39.1540564 69.2257511,39.5554204 L66.6290821,40.1153617 C63.8086959,40.709611 62.141217,40.9761356 60.2042137,41.1014297 L59.6571351,41.1325974 C57.4919181,41.2390722 55.5573276,41.1260333 52.1778714,40.7515089 L47.7621084,40.2459674 L47.4459112,40.2133876 C34.7478602,38.9244368 21.7661778,40.498811 9.74094076,44.7797746 L8.94068885,45.0691803 L8.25111115,43.1918197 C20.5118285,38.6883068 33.7757709,36.9512128 46.7813365,38.1400305 L48.2875722,38.2905213 L52.3666435,38.7601383 C55.7932999,39.1403348 57.6685883,39.2433851 59.8162117,39.1213116 L60.0753504,39.1055855 C61.8114273,38.9932882 63.3439891,38.7557655 65.8543281,38.2341418 L69.9701148,37.3538987 C71.1932449,37.1007747 72.0400647,36.9473356 73.0235374,36.799567 C78.2297313,36.0185186 82.716515,36.5195728 86.1947001,38.7206103 Z M83.9855168,28.7684893 L84.2974561,28.9285922 L83.3655439,30.6982078 C79.9861164,28.9185389 76.2759099,28.7009155 70.2899886,29.4979166 L68.4452433,29.760674 L65.0606465,30.2621267 C64.5690332,30.3309783 64.1547334,30.3849827 63.6876864,30.4420298 L63.0583257,30.5162371 C59.2058059,30.9539179 55.8240445,31.0255047 49.7385552,30.8771023 L43.4465951,30.6987796 C38.7710498,30.5809796 35.7436267,30.6078164 32.5501637,30.8436831 C25.3469196,31.3757463 18.2305907,33.0942278 11.5733116,35.9062837 L10.8072224,36.2355995 L10.0057776,34.4032005 C17.0891055,31.3051327 24.6968414,29.4183154 32.4028414,28.8491165 L33.5304167,28.773928 C36.5319812,28.5956806 39.5515516,28.5932598 44.039425,28.7135195 L48.762449,28.8513351 C55.5818193,29.0349117 59.0603138,28.9743216 63.1382279,28.4936202 L64.2725807,28.3513087 C64.7713926,28.2847901 65.3083319,28.2077919 66.0657863,28.0951915 L69.1915401,27.6306112 L69.5095074,27.5858539 C76.0015608,26.6801439 80.1313245,26.8417631 83.9855168,28.7684893 Z M80.4481273,18.6234179 L80.9360727,20.5629821 C73.178465,22.5146006 65.8651382,23.0465056 53.4623462,22.9712919 L45.9504126,22.8935319 C28.6723154,22.7585033 20.4752305,23.5555847 11.3133791,27.1349177 L10.5878876,27.4233107 L9.83831237,25.5690893 L10.5787527,25.2746343 C20.4192943,21.426961 29.075938,20.6969145 48.0635338,20.9139074 L51.2857441,20.952488 L53.4578486,20.9712145 C65.4737736,21.0444332 72.614967,20.5439112 80.0126358,18.7315463 L80.4481273,18.6234179 Z M79.5191898,9.92582747 L80.3956102,11.7235725 C72.260981,15.6892934 62.8445008,17.1931125 50.9925838,17.0567609 L49.3271016,17.0281983 C46.3987909,16.9639959 43.7238988,16.8325249 38.3318415,16.5232878 L33.4125425,16.251995 C31.792052,16.1692903 30.531421,16.116001 29.1521373,16.0707915 L28.8920144,16.0624043 C25.575922,15.9572126 22.6391368,15.9542026 19.8349237,16.0708375 C15.0119904,16.2712765 10.790911,16.8272602 6.90555223,17.8541677 L6.2233315,18.0402986 L5.6814685,16.1151014 C9.91973592,14.9222053 14.5009794,14.2907874 19.7518432,14.0725639 C22.3495881,13.9645165 25.0521407,13.9572219 28.0477597,14.0369082 L30.2457373,14.1079036 C31.8609933,14.1684067 33.474193,14.2478037 35.8909832,14.3819607 L42.218466,14.7371331 C45.6621313,14.9214454 47.7703773,15.0031023 50.2507305,15.0458502 C61.9224784,15.2481574 71.1324227,13.8772154 78.9968741,10.1760335 L79.5191898,9.92582747 Z M23.4936233,7.26485596 L37.1181581,9.05199363 C44.7301109,10.0504707 48.3635289,10.2189979 52.4461578,9.34102748 L53.057975,9.20231446 C53.4339164,9.11244489 53.8032562,9.01485456 54.2665751,8.88303236 L56.7753615,8.14075143 C58.125217,7.74680199 58.9483136,7.54406975 59.9240897,7.37688571 C63.5146346,6.76118957 67.2827102,7.25641998 70.595472,8.77136486 L71.00715,8.96603739 L70.12905,10.7629626 C67.0959081,9.2807629 63.5885702,8.77770266 60.2619737,9.3481377 L59.886513,9.41614163 C59.0806744,9.57038299 58.2983554,9.77559867 57.0273342,10.1512731 L55.2315566,10.6861908 C54.4545172,10.9132105 53.9290102,11.0539255 53.3484132,11.1886443 L53.1722748,11.2289604 C48.7660115,12.2235146 45.0515697,12.0937984 37.3982259,11.1053304 L24.2539516,9.37899452 C17.7217189,8.52154155 14.5377751,8.42580967 11.1073242,9.40466759 L10.8359215,9.48418407 L10.2602785,7.56881593 C13.9641848,6.45564732 17.1937184,6.47441659 23.4936233,7.26485596 Z" id="Combined-Shape" fill-opacity=".5" fill="#000" style="mix-blend-mode:overlay" mask="url(#bodysitting-in-chairstripes-n-skirt-mask-2)"/>
                    </g>
                    <g id="Group-168" transform="translate(0.000000, 10.910000)">
                        <path d="M36.1663,54.4459 C34.0693,58.6839 29.1393,61.1259 23.7703,61.7699 C25.6073,69.1569 27.4533,76.5439 28.1503,80.5669 C29.7883,90.0119 32.7623,105.6339 30.8083,112.2889 C33.0633,112.9159 35.2213,113.5109 37.3023,114.0809 C38.4733,113.0889 42.9873,106.8839 44.5563,100.9219 C47.0913,91.2899 48.4423,85.7139 46.7533,74.2229 C38.6423,71.5189 38.2953,61.3189 36.1663,54.4459" id="Fill-148" fill-opacity=".25" fill="#000" style="mix-blend-mode:overlay"/>
                        <path d="M30.8078,112.2892 C30.8078,112.2892 17.8508,142.6372 14.2228,150.2232 C10.5948,157.8082 6.9668,176.6062 14.8818,192.1072 C22.7968,207.6072 34.9998,212.5542 83.8098,226.0762 C129.0798,238.6172 139.4548,238.3922 143.8798,239.6092 C144.2258,239.7042 145.8048,239.8342 146.9488,238.2412 C146.3488,238.0722 144.3798,237.6852 144.2018,237.6852 C142.6708,231.2672 139.7168,212.4342 154.0568,201.3412 C165.0898,192.8062 179.3638,187.5182 190.7758,190.8282 C191.0268,191.0842 191.1528,191.2102 191.5458,191.5572 C192.5548,191.1942 192.0978,189.8872 191.8428,189.6572 C177.8248,176.2422 162.7608,161.1082 144.6498,148.9672 C119.1758,131.8892 106.5298,124.1462 104.8428,122.6122 C102.9028,120.8462 102.8058,118.6692 102.9698,115.9982 C102.9698,115.9982 97.4778,119.7542 87.2568,120.5472 C64.9168,122.2812 41.2308,116.3112 30.8078,112.2892" id="Fill-150" fill="#393960"/>
                        <path d="M30.8076,112.2901 C32.5516,112.7051 34.7906,113.3081 37.3696,114.0171 C24.5336,129.2341 19.2196,153.9751 24.9836,173.1861 C27.9836,182.1861 35.9836,188.1861 43.9836,193.1861 C75.8656,207.9011 113.0886,206.5861 143.0976,222.0021 C142.4006,228.6091 143.4636,234.5911 144.2016,237.6851 C144.3796,237.6851 146.3486,238.0721 146.9486,238.2411 C145.8046,239.8341 144.2256,239.7041 143.8796,239.6091 C139.4556,238.3921 129.0796,238.6171 83.8096,226.0761 C35.0006,212.5541 22.7976,207.6071 14.8816,192.1071 C6.9666,176.6061 10.5946,157.8081 14.2226,150.2231 C17.8506,142.6371 30.8076,112.2901 30.8076,112.2901 Z M142.4084,191.6583 C135.5414,187.7043 158.6384,184.7913 171.6994,191.8373 C169.4524,192.5653 167.2154,193.4733 165.0194,194.5333 C162.0334,195.9753 159.1794,197.6563 155.6214,200.1533 C153.0124,198.6373 147.9014,194.8213 142.4084,191.6583 Z" id="Combined-Shape" fill-opacity=".25" fill="#000" style="mix-blend-mode:overlay"/>
                        <path d="M2.135,109.9127 C1.485,112.1757 0.281,110.9267 0,113.4667 C0.275,115.2567 1.837,116.5937 2.005,116.6837 C3.884,117.6837 5.678,118.8857 7.756,120.3257 C14.322,124.8727 23.721,131.7877 47.578,142.1787 C78.989,155.8587 88.452,154.8517 92.28,157.5237 L95.922,150.1777 C95.922,150.1777 74.093,131.2367 43.747,116.1237 C43.747,116.1237 21.827,106.7887 17.505,104.0927 C17.037,103.8007 16.415,103.3397 15.663,102.7477 C9.826,102.3737 3.898,103.5947 2.135,109.9127" id="SKIN" fill="#c47357"/>
                        <path d="M64.2805,144.2628 C45.6375,138.8338 33.9445,124.6468 15.3025,119.2188 C13.7685,118.3988 9.5255,117.8478 7.7835,120.3458 C14.3475,124.8928 23.7515,131.8008 47.5785,142.1788 C60.9525,148.0038 70.3365,151.1608 77.0115,153.0778 C74.1355,148.7828 69.3045,145.6648 64.2805,144.2628" id="Fill-158" fill-opacity=".15" fill="#000" style="mix-blend-mode:overlay"/>
                        <path d="M26.8869,0.2091 C21.0579,3.3331 17.4499,6.2071 13.9699,10.3271 C4.9419,21.0111 1.1889,35.2571 0.5729,48.7401 C0.0289,60.6331 0.0399,72.5661 0.1049,84.4691 C0.1269,88.6181 0.1719,92.7671 0.2569,96.9151 C0.2939,98.7271 0.3389,100.5391 0.3979,102.3501 C0.4069,102.6161 0.3109,107.5021 0.1979,111.7051 C0.1819,112.2561 3.9409,110.7121 6.1719,110.1131 C12.4939,108.3651 16.6959,108.4791 19.3849,113.6721 C29.9409,73.4301 29.1249,48.1611 29.0769,43.8471 C34.4539,33.9241 31.5849,7.2991 26.8869,0.2091" id="SKIN" fill="#c47357"/>
                        <path d="M8.3186,72.5304 C8.0916,48.5104 21.4116,39.9994 22.8286,19.1644 C22.7356,12.2484 21.6676,5.4004 19.3486,5.0594 C17.3706,6.6374 15.6526,8.3354 13.9696,10.3264 C4.9416,21.0104 1.1886,35.2574 0.5726,48.7404 C0.0286,60.6334 0.0406,72.5664 0.1046,84.4694 C0.1276,88.6184 0.1726,92.7674 0.2566,96.9154 C0.2946,98.7264 0.3396,100.5384 0.3976,102.3504 C0.4146,102.8684 0.9106,106.5394 0.5766,106.7804 C2.2506,105.5724 4.5426,103.4094 6.7576,98.2034 C8.9726,92.9984 8.1446,81.1044 8.3186,72.5304" id="Fill-162" fill-opacity=".15" fill="#000" style="mix-blend-mode:overlay"/>
                        <path d="M105.6223,148.0836 C110.8383,148.4106 118.2903,149.7166 119.2973,151.4686 C119.8593,152.9916 116.3893,153.5276 112.4003,153.7546 C110.4353,153.8656 106.8673,153.4366 106.7703,154.4486 C106.6703,155.5186 108.7433,157.5946 111.2693,159.0056 C118.5003,163.0446 123.9683,162.5706 131.9683,164.9566 C132.6943,165.1726 133.5323,165.5336 133.6683,166.2786 C133.8923,167.5126 132.1363,168.0086 130.8823,167.9686 C126.8263,167.8406 122.4603,167.2896 118.4043,167.1616 C122.8973,168.5776 127.7033,170.4166 132.1963,171.8336 C132.6883,171.9876 133.4973,172.2986 133.6873,172.7776 C134.1043,173.8236 132.2673,174.3556 131.1413,174.3566 C126.8783,174.3586 121.5863,173.8456 116.3773,172.8496 C120.6743,174.7246 130.3533,177.1026 129.7773,179.2916 C129.8163,181.2006 111.7333,177.0796 104.4303,172.0886 C97.8813,167.6146 94.5733,163.6366 92.7753,161.1606 C91.0433,158.7736 86.3253,155.6006 82.6783,154.6216 C79.8293,153.8576 86.8203,143.2416 89.2123,144.9706 C92.9733,147.6896 94.8613,147.4246 97.0263,147.6506 C99.8813,147.9496 102.7603,147.9046 105.6223,148.0836" id="SKIN" fill="#c47357"/>
                        <path d="M110.4817,164.1983 C105.0207,158.6693 90.6597,157.5523 89.2817,157.9373 C90.7757,159.0013 92.0437,160.1513 92.7757,161.1603 C94.5737,163.6363 97.8797,167.6153 104.4297,172.0893 C106.6027,173.5733 109.7317,174.9803 113.0517,176.1753 C107.7197,172.1023 115.8957,170.0803 110.4817,164.1983" id="Fill-166" fill-opacity=".15" fill="#000" style="mix-blend-mode:overlay"/>
                    </g>
                    <g id="Leg" transform="translate(152.700000, 245.350000)">
                        <path d="M7.31418184,8.454 C5.18218184,16.279 2.08418184,26.077 0.784181836,36.971 C-1.93881816,59.778 3.07218184,80.616 6.05818184,92.726 C8.73718184,103.584 13.2101818,118.766 14.7361818,128.257 C15.8681818,138.144 14.9555029,150.931839 14.1765029,154.038839 C14.1765029,154.038839 20.5121818,165.521 33.7211818,155.938 C33.7211818,155.938 34.7441818,97.874 35.0281818,94.059 C35.8091818,83.572 40.9551818,17.084 43.2761818,6.056 C43.7101818,3.999 42.8481818,4.987 42.5891818,5.144 C31.9631818,10.042 18.9321818,7.264 9.24218184,2.84217094e-14 C8.87818184,2.458 8.17518184,5.295 7.31418184,8.454 Z" id="SKIN" fill="#c47357"/>
                        <path d="M4.46678184,18.7427 C2.98978184,24.2987 1.56378184,30.4377 0.783781836,36.9717 C-1.73121816,58.0417 2.35178184,77.4147 5.34378184,89.7937 C9.52878184,86.4087 4.33378184,70.0187 9.05278184,54.6757 C14.1017818,38.2607 10.6507818,21.7847 4.46678184,18.7427" id="Fill-69" fill-opacity=".15" fill="#000" style="mix-blend-mode:overlay"/>
                    </g>
                    <g id="Shoe" transform="translate(160.168482, 385.793475)">
                        <path d="M56.2864,36.7728252 C56.5954,36.8048252 61.4044,39.5168252 61.7964,45.1688252 L56.2054,51.8138252 C56.2054,51.8138252 47.0294,54.2238252 46.8114,54.2358436 C46.5944,54.2488252 24.0164,47.3748252 24.0164,47.3748252 L21.4264,29.8418252 L45.3244,40.7878252 L56.2864,36.7728252 Z" id="Fill-75" fill="#D7595E"/>
                        <path d="M2.6741,15.5839252 C2.6741,15.5839252 2.4461,15.6929252 2.1551,16.1719252 C1.6731,16.9619252 1.2081,18.5949252 1.2541,20.5969252 C1.2541,20.5969252 3.0231,27.6429252 12.2031,29.9249252 C19.9591,31.8539252 20.8271,33.0729252 22.9481,35.7519252 C22.9481,35.7519252 26.4281,34.9339252 31.1691,39.9539252 C35.9101,44.9739252 50.0651,45.9369252 54.6901,43.3949252 C59.3161,40.8529252 57.2921,38.0639252 56.2861,36.7729252 C55.2791,35.4819252 52.2641,33.4749252 49.5701,31.6579252 C46.8751,29.8399252 44.6741,27.5799252 43.9781,26.2709252 L2.6741,15.5839252 Z" id="Fill-77" fill="#FFF"/>
                        <path d="M30.3543,3.5066252 C29.5603,0.440625197 27.4233,-0.682374803 24.6853,0.405625197 C21.9473,1.4926252 20.5113,-0.0843748032 18.8533,1.7716252 C17.1953,3.6276252 15.6683,4.1286252 17.0503,8.4046252 C18.4323,12.6806252 18.0803,17.4696252 17.3973,18.2336252 C17.3973,18.2336252 14.0403,19.3566252 10.4663,16.6556252 C6.8933,13.9546252 5.7403,10.0796252 2.3203,11.9316252 C2.3203,11.9316252 3.2873,14.3656252 2.1453,16.1926252 C2.1453,16.1926252 2.8283,15.4276252 4.6673,16.7756252 C6.5063,18.1236252 8.5163,24.3336252 13.0573,23.9736252 C17.5983,23.6136252 17.0773,20.5756252 20.1273,20.6716252 C23.8753,20.7896252 23.7313,25.7556252 26.4963,28.8136252 C29.2613,31.8706252 36.9693,36.6426252 43.9973,32.4556252 C43.9973,32.4556252 48.6183,30.4056252 42.2073,24.2976252 C36.8533,19.1966252 36.5303,19.2266252 35.5923,17.3106252 C34.6543,15.3936252 32.3563,13.2426252 30.5823,13.0316252 C30.5823,13.0316252 31.1493,6.5716252 30.3543,3.5066252 Z" id="Fill-79" fill="#366"/>
                        <path d="M29.8909,12.9286252 C29.8909,12.9286252 30.3639,5.7016252 29.0949,5.4886252 C27.9289,5.3296252 27.5099,6.1726252 26.2789,6.5696252 C25.0039,6.9796252 23.8229,6.0456252 22.8399,7.5516252 C22.0859,8.7086252 24.9199,12.8206252 24.5769,15.4616252 C26.0669,13.6236252 28.9969,12.5066252 29.8909,12.9286252" id="Fill-81" fill="#323c84"/>
                        <path d="M1.2541,20.5970252 C1.2541,20.5970252 -0.2049,22.9880252 0.6931,27.3030252 C0.6931,27.3030252 3.7631,34.9430252 13.7761,36.7500252 C21.5261,38.1490252 23.2961,43.6330252 27.9911,45.6230252 C27.9911,45.6230252 25.7101,39.5340252 22.5471,35.1750252 C19.3841,30.8160252 17.6911,31.4520252 11.1971,29.3340252 C2.3371,26.4440252 1.2541,20.5970252 1.2541,20.5970252" id="Fill-83" fill="#EC769C"/>
                        <g id="Group-87" transform="translate(0.000000, 27.306925)">
                            <mask id="bodysitting-in-chairstripes-n-skirt-mask-4" fill="#fff">
                                <use xlink:href="#bodysitting-in-chairstripes-n-skirt-path-3"/>
                            </mask>
                            <g id="Clip-86"/>
                            <path d="M0.6936,-0.0043 C0.6936,-0.0043 0.2386,4.8237 0.7136,8.0707 C1.1876,11.3177 7.1636,13.7237 12.2326,14.6087 C18.7786,15.7507 19.7066,21.0387 26.4506,24.5147 C33.1946,27.9897 48.0966,31.6587 58.4876,26.2697 C58.4876,26.2697 62.8616,23.8407 61.7966,17.8617 C61.7966,17.8617 60.7836,16.6827 57.8916,18.3007 C55.0016,19.9187 56.2316,22.3957 53.0216,23.5227 C49.8116,24.6497 39.4896,26.6817 27.9916,18.3157 C27.9916,18.3157 23.4466,10.5547 16.7976,9.3807 C7.5236,7.7447 1.7756,3.5317 0.6936,-0.0043" id="Fill-85" fill="#393960" mask="url(#bodysitting-in-chairstripes-n-skirt-mask-4)"/>
                        </g>
                        <path d="M1.1235,5.6520252 C1.0085,4.1440252 2.5035,2.8300252 6.1225,2.5650252 C6.1225,2.5650252 7.47169222,2.43614882 7.94669222,2.73414882 C7.92769222,5.27014882 7.79978009,9.97660094 7.10678009,13.4646009 C7.10678009,13.4646009 4.5825,10.6040252 2.3205,11.9320252 C2.3035,11.9420252 1.2385,7.1590252 1.1235,5.6520252 Z" id="Fill-88" fill="#366"/>
                        <path d="M26.9934,21.8304252 C26.9434,21.8304252 26.8944,21.8244252 26.8454,21.8104252 C26.5384,21.7294252 26.3564,21.4154252 26.4384,21.1094252 C27.3314,17.7684252 31.5254,14.9074252 34.9024,15.3114252 C35.2174,15.3514252 35.4404,15.6374252 35.4024,15.9514252 C35.3634,16.2654252 35.0804,16.4904252 34.7634,16.4504252 C31.9834,16.1144252 28.2804,18.6564252 27.5474,21.4044252 C27.4774,21.6614252 27.2464,21.8304252 26.9934,21.8304252" id="Fill-90" fill="#FFF"/>
                        <path d="M29.5969,23.9213252 C29.5269,23.9213252 29.4549,23.9083252 29.3869,23.8813252 C29.0919,23.7663252 28.9479,23.4333252 29.0629,23.1383252 C29.5459,21.9113252 30.8439,20.0313252 32.3899,18.8113252 C33.4329,17.9873252 35.5449,17.4263252 36.6999,17.9333252 C36.9899,18.0613252 37.1209,18.3993252 36.9929,18.6893252 C36.8669,18.9793252 36.5299,19.1093252 36.2389,18.9843252 C35.5599,18.6863252 33.9169,19.0673252 33.0999,19.7113252 C31.7289,20.7943252 30.5459,22.5013252 30.1299,23.5583252 C30.0409,23.7833252 29.8259,23.9213252 29.5969,23.9213252" id="Fill-92" fill="#FFF"/>
                        <path d="M32.4026,26.0502252 C32.3376,26.0502252 32.2706,26.0392252 32.2066,26.0162252 C31.9086,25.9062252 31.7556,25.5772252 31.8636,25.2802252 C32.4496,23.6732252 33.4646,22.1802252 34.5786,21.2832252 C35.7106,20.3752252 37.2496,19.8712252 38.5796,19.9812252 C38.8956,20.0052252 39.1316,20.2812252 39.1066,20.5972252 C39.0816,20.9132252 38.7986,21.1692252 38.4896,21.1232252 C37.4496,21.0452252 36.1956,21.4552252 35.2976,22.1782252 C34.3536,22.9372252 33.4506,24.2762252 32.9406,25.6732252 C32.8556,25.9052252 32.6356,26.0502252 32.4026,26.0502252" id="Fill-94" fill="#FFF"/>
                        <path d="M34.9377,28.5072252 C34.8537,28.5072252 34.7687,28.4882252 34.6887,28.4502252 C34.4037,28.3132252 34.2837,27.9702252 34.4217,27.6852252 C34.8047,26.8912252 35.8457,24.9222252 37.2327,23.7832252 C38.6537,22.6152252 39.9797,22.5402252 41.0877,22.6112252 C41.4037,22.6322252 41.6427,22.9062252 41.6217,23.2222252 C41.5987,23.5382252 41.3247,23.7802252 41.0097,23.7552252 C39.9387,23.6812252 39.0067,23.8092252 37.9597,24.6702252 C36.7497,25.6632252 35.8047,27.4582252 35.4547,28.1832252 C35.3557,28.3882252 35.1507,28.5072252 34.9377,28.5072252" id="Fill-96" fill="#FFF"/>
                        <path d="M37.8313,30.4720252 C37.7983,30.4720252 37.7643,30.4690252 37.7293,30.4630252 C37.4183,30.4080252 37.2113,30.1100252 37.2673,29.7980252 C37.4993,28.4970252 38.4623,27.2140252 39.9103,26.2760252 C41.2693,25.3940252 42.7853,25.0150252 43.8673,25.2830252 C44.1743,25.3600252 44.3613,25.6700252 44.2853,25.9780252 C44.2083,26.2850252 43.8993,26.4740252 43.5903,26.3960252 C42.8203,26.2030252 41.6193,26.5340252 40.5333,27.2380252 C39.3693,27.9930252 38.5693,29.0260252 38.3953,29.9990252 C38.3463,30.2780252 38.1033,30.4720252 37.8313,30.4720252" id="Fill-98" fill="#FFF"/>
                    </g>
                </g>
            </g>
        </g>
        <g id="Head" transform="translate(73.000000, 136.000000) scale(1 1)">
            <g id="Head/Beyonce" stroke="none" stroke-width="1" fill="none" fill-rule="evenodd">
                <g id="Face" transform="translate(32.500000, 25.500000)">
                    <path d="M30.7767,0.5676 C45.7477,-1.3684 55.5807,16.5326 54.5617,32.3626 C54.4857,33.5426 54.9987,35.8566 55.1797,36.9336 C56.7807,46.4006 48.3307,70.7006 38.7557,71.4606 C38.3803183,71.4903702 38.0020397,71.5077643 37.6213478,71.5132798 C33.4398567,84.9144331 44.1499,89.254 44.1499,89.254 C38.3569,96.607 26.5789,97.275 26.5789,97.275 C8.0839,97.943 0.6259,86.473 0.6259,86.473 C16.6550083,81.083045 10.1556786,56.0912938 7.99144992,49.115552 C7.7631801,48.4631396 7.60716858,47.9590756 7.51793398,47.6565987 C7.46420413,47.4985927 7.42642476,47.3913952 7.40791403,47.3393646 C2.83753962,48.4696808 2.0687,43.8703838 2.0687,41.5796 C2.0687,39.2856 -0.2433,37.1386 1.4947,34.1256 C4.0567,29.6826 8.9497,32.4046 8.9497,32.4046 C11.2427,16.3496 14.7147,2.6446 30.7767,0.5676 Z" id="sk_face" fill="#c47357"/>
                    <path d="M10.9747,55.6816 C15.2012616,63.0778418 27.2956206,71.6606229 37.6173544,71.5133372 C33.1096076,84.9575519 22.1724502,92.1250987 9.6239,90.429 C3.2939,89.574 0.6259,86.473 0.6259,86.473 C16.6609027,81.0810629 10.1508955,56.0729104 7.9890641,49.1078636 C8.53782006,50.6782986 9.50619578,53.1121587 10.9747,55.6816 Z" id="sd_face" fill-opacity=".25" fill="#000" style="mix-blend-mode:overlay"/>
                </g>
                <g id="Hair" transform="translate(0.200000, 10.100000)">
                    <path d="M87.0421,29.69 C86.8961,28.961 86.7871,28.321 86.7101,27.807 C86.9031,27.628 87.0531,27.421 87.1121,27.164 C87.2151,26.718 87.2701,26.294 87.3021,25.875 C87.4911,26.11 87.7911,26.598 87.9251,27.199 C87.9301,27.224 87.9351,27.25 87.9381,27.276 C87.9761,27.467 87.9991,27.669 87.9911,27.878 C87.9831,28.078 87.9441,28.27 87.8871,28.457 C87.8701,28.509 87.8471,28.559 87.8251,28.611 C87.7741,28.742 87.7121,28.87 87.6361,28.994 C87.5991,29.054 87.5601,29.114 87.5171,29.173 C87.4301,29.293 87.3271,29.409 87.2161,29.521 C87.1711,29.567 87.1321,29.615 87.0821,29.66 C87.0701,29.67 87.0541,29.68 87.0421,29.69 M84.5321,30.76 C84.4441,30.773 84.3531,30.784 84.2611,30.795 C84.2431,30.797 84.2261,30.798 84.2101,30.8 C84.3231,30.787 84.4361,30.774 84.5441,30.757 C84.5401,30.758 84.5361,30.759 84.5321,30.76 M83.6491,30.849 C83.5691,30.854 83.4911,30.859 83.4101,30.862 C83.1421,30.871 82.8631,30.872 82.5751,30.861 C82.5441,30.86 82.5151,30.861 82.4831,30.86 C81.4461,30.815 80.2941,30.643 79.0751,30.316 L79.0461,30.307 C77.0071,29.755 74.7911,28.768 72.6421,27.222 C72.6201,27.207 72.5991,27.19 72.5761,27.174 C72.1771,26.884 71.7791,26.574 71.3861,26.244 C71.3531,26.216 71.3181,26.188 71.2841,26.16 C70.4481,25.451 69.6301,24.651 68.8471,23.75 C66.5971,21.159 64.1771,19.982 61.9471,19.559 C65.6241,19.994 69.5801,21.982 73.9191,24.953 C76.6161,26.798 80.0841,28.03 82.7961,28.375 C83.2041,29.169 83.5831,29.987 83.9341,30.824 C83.8391,30.833 83.7471,30.844 83.6491,30.849 M94.3431,71.223 C92.9821,68.616 95.4131,65.491 95.9101,62.947 C96.7501,58.658 93.3961,55.453 93.8671,51.15 C94.1241,48.808 95.1481,46.337 94.1501,44.203 C93.2181,42.206 91.2631,40.738 90.1871,38.753 C88.8581,36.303 87.9481,33.647 87.3131,30.939 C87.2411,30.99 87.1791,31.043 87.1011,31.093 C88.8081,30.006 89.1521,28.671 89.1401,27.732 C89.1281,26.827 88.7721,25.988 88.3941,25.419 C88.1271,24.981 87.8471,24.651 87.6571,24.53 C87.4771,24.413 87.3561,24.356 87.2611,24.322 C87.0261,22.669 86.2081,21.003 84.7481,18.786 C80.3051,12.037 74.7201,8.077 64.9651,3.734 C54.0151,-1.14 44.5261,-1.492 34.5881,4.162 C34.5341,4.192 34.4671,4.241 34.4071,4.278 C32.2711,2.329 28.5111,1.426 25.3291,1.826 C20.7981,2.395 16.6421,4.329 14.4331,9.483 C12.0091,15.136 13.1551,20.43 10.1121,24.701 C7.6671,28.132 4.0461,31.156 1.5711,34.567 C-0.6789,37.668 -0.0729,41.524 0.7371,45.268 C1.4081,48.374 2.3081,50.029 1.2761,53.858 C0.2651,57.619 -0.5649,60.614 0.4911,64.363 C0.6141,64.799 0.7641,65.211 0.9271,65.609 C0.6571,67.629 1.4381,69.489 2.2021,71.294 C2.8131,72.742 3.4461,74.238 3.5671,75.844 C3.7671,78.498 2.5001,81.309 0.2631,83.18 C0.0201,83.383 -0.0129,83.746 0.1901,83.988 C0.3041,84.124 0.4671,84.194 0.6311,84.194 C0.7611,84.194 0.8921,84.15 0.9981,84.06 C3.5151,81.956 4.9371,78.775 4.7111,75.758 C4.5761,73.964 3.9061,72.38 3.2591,70.848 C2.8391,69.857 2.4351,68.894 2.2061,67.93 C3.4421,69.668 4.9991,70.863 6.3121,71.57 C6.8751,72.681 7.6531,74.861 7.7901,77.744 C7.9891,81.92 6.0261,86.026 6.4781,90.498 C7.2551,98.198 14.2581,100.227 14.8561,108.703 C15.0871,110.346 19.3971,108.366 21.6771,110.429 C22.7771,111.95 22.5571,113.916 22.9441,115.786 C23.6571,119.222 24.6621,122.672 26.6491,125.564 C28.6381,128.456 31.7491,130.742 35.2481,131.019 C34.1941,127.327 32.7461,123.119 34.5661,119.739 C36.7761,115.635 38.2491,116.898 40.5631,111.953 C42.2001,108.456 41.6161,105.008 40.1431,102.378 C37.9051,98.382 40.8861,96.459 42.4171,91.547 C42.5601,91.09 42.6341,90.63 42.6831,90.16 C45.4841,78.235 39.7181,62.409 39.7181,62.409 C39.7181,62.409 35.9631,63.646 34.7441,59.312 C34.5011,58.449 34.4461,57.728 34.4291,57.064 C34.4111,56.431 34.3591,55.771 34.1031,55.023 C33.7871,54.102 33.4831,53.34 33.3351,52.721 C32.9021,50.906 33.7611,49.165 35.2551,47.966 C36.6161,46.875 38.2551,46.863 39.4791,47.136 C40.0051,47.259 40.5501,47.46 41.1031,47.778 C44.7921,46.601 48.7751,42.904 51.9311,36.751 C54.7351,31.282 54.1861,23.817 54.0001,22.003 C54.0291,22.005 54.0591,22 54.1141,21.996 C54.1851,21.987 54.2551,21.971 54.3191,21.931 C54.6261,21.747 61.8681,17.478 67.9811,24.512 C72.5931,29.82 78.6531,32.057 82.9991,32.057 C83.2471,32.057 83.4681,32.027 83.7021,32.011 C83.8991,31.999 84.1011,31.994 84.2881,31.972 C84.3211,31.968 84.3581,31.969 84.3901,31.965 C86.2611,36.901 87.1391,42.42 86.7981,47.712 C86.7221,48.892 87.2351,51.207 87.4171,52.283 C89.0171,61.75 80.5671,86.05 70.9931,86.81 C70.6201,86.839 70.2431,86.854 69.8651,86.86 C68.8101,89.565 68.6491,92.94 69.2001,95.788 C70.6671,102.223 76.3981,104.601 76.3981,104.601 C76.3111,104.713 76.2431,104.798 76.1671,104.896 C76.2431,104.798 76.3101,104.713 76.3981,104.601 C81.1281,106.658 88.8391,108.184 89.5521,108.833 C90.5181,109.213 91.4521,109.685 92.3611,110.223 C92.2531,108.258 91.6111,106.377 90.5691,104.814 C86.0371,98.015 94.9631,95.681 93.3451,87.473 C92.0631,80.978 98.5471,79.266 94.3431,71.223" id="color_hair" fill="#e27955"/>
                    <path d="M22.1928,15.7968 C21.6728,24.8788 23.2288,31.6658 26.2798,36.7028 C25.7328,38.4378 24.4408,39.9708 23.7098,40.7368 C23.3798,41.0828 23.0368,41.4258 22.6938,41.7708 C20.9088,43.5608 19.0648,45.4108 18.5338,47.9398 C18.1358,49.8428 18.5798,51.7588 19.0108,53.6118 C19.4818,55.6378 19.9258,57.5508 19.2888,59.3308 C18.8918,60.4418 18.1098,61.3708 17.2808,62.3548 C16.3908,63.4138 15.4688,64.5098 15.0238,65.8848 C14.3268,68.0338 14.9598,70.2008 15.5728,72.2978 C15.8038,73.0848 16.0408,73.8988 16.1988,74.6958 C16.4288,75.8508 16.6648,77.0458 14.4028,78.7328 C14.1478,78.9228 14.0958,79.2838 14.2848,79.5378 C14.3988,79.6888 14.5718,79.7688 14.7458,79.7688 C14.8658,79.7688 14.9868,79.7318 15.0898,79.6548 C17.9348,77.5338 17.5698,75.6918 17.3248,74.4598 C17.1588,73.6248 16.9138,72.7868 16.6768,71.9758 C16.0868,69.9568 15.5308,68.0508 16.1168,66.2398 C16.4938,65.0778 17.3038,64.1148 18.1618,63.0958 C19.0188,62.0768 19.9048,61.0248 20.3708,59.7188 C21.1218,57.6198 20.6178,55.4508 20.1308,53.3518 C19.7098,51.5408 19.3128,49.8298 19.6588,48.1758 C20.0758952,46.1898476 21.5252376,44.5869973 23.0314139,43.0621083 L23.5078,42.5828 C23.8578,42.2318 24.2058,41.8828 24.5418,41.5308 C25.2318,40.8078 26.3548,39.4748 27.0568,37.8768 C30.1878,42.4038 34.6228,45.3978 39.9138,47.2698 C39.7688,47.2248 39.6218,47.1698 39.4798,47.1368 C38.2548,46.8638 36.6158,46.8748 35.2548,47.9668 C33.7608,49.1648 32.9028,50.9058 33.3348,52.7208 C33.4838,53.3398 33.7868,54.1018 34.1028,55.0238 C34.3598,55.7708 34.4108,56.4308 34.4288,57.0638 C34.4468,57.7278 34.5008,58.4488 34.7438,59.3118 C34.8698,59.7598 35.0288,60.1358 35.2008,60.4718 C35.0288,60.7628 34.8308,61.0388 34.6258,61.2828 C34.4268,61.5188 34.2158,61.7528 34.0038,61.9868 C33.0918,62.9988 32.1488,64.0448 31.9158,65.4608 C31.6878,66.8498 32.2158,68.1828 32.7278,69.4718 C33.3028,70.9188 33.7988,72.1688 33.2048,73.2738 C32.9308,73.7848 32.4418,74.1788 31.9218,74.5968 C31.3798,75.0328 30.8198,75.4838 30.4298,76.1218 C29.7218,77.2788 29.7078,78.8128 30.3888,80.6808 C30.5068,81.0058 30.6368,81.3288 30.7678,81.6528 C31.1608,82.6288 31.5328,83.5498 31.5698,84.5118 C31.6468,86.5298 30.6258,88.2318 28.4478,89.7168 C28.1868,89.8948 28.1178,90.2528 28.2978,90.5148 C28.4078,90.6788 28.5888,90.7668 28.7738,90.7668 C28.8848,90.7668 28.9968,90.7338 29.0968,90.6668 C31.5918,88.9648 32.8108,86.8798 32.7178,84.4688 C32.6748,83.3058 32.2468,82.2468 31.8338,81.2228 C31.7078,80.9108 31.5828,80.6008 31.4688,80.2878 C30.9148,78.7648 30.8948,77.5648 31.4098,76.7218 C31.6968,76.2548 32.1558,75.8848 32.6438,75.4918 C33.2288,75.0208 33.8338,74.5338 34.2188,73.8178 C35.0648,72.2418 34.4198,70.6178 33.7968,69.0478 C33.3218,67.8518 32.8738,66.7218 33.0508,65.6468 C33.2288,64.5648 34.0208,63.6868 34.8588,62.7568 C35.0778,62.5128 35.2978,62.2698 35.5048,62.0228 C35.6468,61.8548 35.7828,61.6758 35.9128,61.4898 C37.4938,63.1328 39.7178,62.4088 39.7178,62.4088 C39.7178,62.4088 45.4848,78.2348 42.6828,90.1598 C42.6338,90.6308 42.5598,91.0898 42.4168,91.5478 C40.8858,96.4588 37.9058,98.3828 40.1428,102.3778 C41.6158,105.0078 42.1998,108.4558 40.5638,111.9528 C38.2488,116.8978 36.7768,115.6358 34.5668,119.7388 C32.7458,123.1188 34.1948,127.3268 35.2478,131.0188 C31.7488,130.7418 28.6378,128.4558 26.6498,125.5638 C24.6618,122.6718 23.6568,119.2218 22.9448,115.7858 C22.5568,113.9158 22.7778,111.9498 21.6768,110.4298 C19.3978,108.3668 15.0868,110.3468 14.8568,108.7028 C14.2578,100.2268 7.2548,98.1978 6.4778,90.4978 C6.0268,86.0258 7.9888,81.9208 7.7898,77.7438 C7.6648,75.1158 7.0088,73.0818 6.4658,71.8998 C5.1678,66.8158 11.5878,62.3218 8.9708,54.3068 C8.9238,54.1638 8.8888,54.0278 8.8488,53.8888 C8.4328,55.2958 7.5728,56.9298 5.4788,59.0258 C2.9958,61.5088 1.8818,64.1048 2.0698,66.9618 C2.1018,67.4228 2.1588,67.7248 2.2058,67.9298 C2.4348,68.8938 2.8388,69.8568 3.2588,70.8478 C3.9058,72.3808 4.5758,73.9648 4.7108,75.7588 C4.9368,78.7748 3.5148,81.9558 0.9978,84.0598 C0.8918,84.1498 0.7608,84.1938 0.6308,84.1938 C0.4668,84.1938 0.3038,84.1238 0.1908,83.9878 C-0.0122,83.7458 0.0198,83.3838 0.2628,83.1798 C2.4998,81.3088 3.7668,78.4978 3.5678,75.8448 C3.4468,74.2378 2.8138,72.7418 2.2018,71.2948 C1.4758,69.5768 0.7448,67.8078 0.9048,65.9018 L0.9048,65.9018 L0.9068,65.8758 C0.9148,65.7868 0.9148,65.6988 0.9268,65.6088 L0.9268,65.6088 L0.9368,65.5968 C1.1298,62.9568 2.3508,60.5268 4.6658,58.2128 C7.6348,55.2428 7.8718,53.4698 8.1238,51.5908 C8.3238,50.0998 8.5468,48.5568 10.1318,46.5618 C12.1768,43.6838 15.2758,41.1998 14.6958,35.4978 C14.0188,28.8358 18.2918,26.3248 22.1928,15.7968 Z M87.3102,30.948 C87.3572,31.132 87.4032,31.379 87.5342,31.777 C88.1552,34.193 88.9962,36.557 90.1862,38.753 C91.2632,40.738 93.2182,42.206 94.1512,44.203 C95.1482,46.338 94.1242,48.808 93.8672,51.15 C93.3952,55.453 96.7492,58.658 95.9102,62.947 C95.4132,65.491 92.9812,68.617 94.3432,71.223 C98.5462,79.266 92.0632,80.978 93.3452,87.473 C94.9632,95.681 86.0372,98.015 90.5692,104.814 C91.6112,106.377 92.2532,108.258 92.3612,110.223 C91.4522,109.685 90.5172,109.213 89.5522,108.833 C88.8392,108.184 81.1282,106.658 76.3982,104.601 L76.3982,104.601 C76.1948811,104.514778 70.6410036,102.108089 69.2002,95.788 C68.6492,92.94 68.8092,89.566 69.8652,86.86 C70.2432,86.854 70.6202,86.839 70.9932,86.81 C74.6702,86.518 78.1792,82.749 81.0182,77.687 C81.3692,78.191 81.6502,78.761 81.8382,79.385 C82.2962,80.914 82.1382,82.496 81.4032,83.724 C81.2842,83.923 81.1512,84.117 81.0192,84.312 C80.6492,84.854 80.2672,85.414 80.1082,86.112 C79.8672,87.168 80.2122,88.143 80.5462,89.085 C80.7872,89.769 81.0152,90.415 81.0082,91.047 C80.9982,91.875 80.5882,92.655 80.1532,93.482 C79.8672,94.027 79.5712,94.591 79.3752,95.2 C78.6872,97.329 79.4072,99.817 81.1242,101.249 C81.2312,101.339 81.3622,101.383 81.4922,101.383 C81.6562,101.383 81.8202,101.313 81.9332,101.176 C82.1372,100.932 82.1042,100.57 81.8602,100.366 C80.5162,99.244 79.9302,97.22 80.4692,95.553 C80.6362,95.038 80.8962,94.542 81.1722,94.017 C81.6492,93.106 82.1442,92.165 82.1582,91.062 C82.1682,90.224 81.8942,89.45 81.6302,88.702 C81.3382,87.878 81.0622,87.099 81.2292,86.368 C81.3412,85.882 81.6462,85.434 81.9702,84.959 C82.1142,84.746 82.2592,84.533 82.3892,84.315 C83.2902,82.81 83.4902,80.892 82.9392,79.055 C82.6592,78.123 82.2052,77.281 81.6212,76.577 C85.8192,68.553 88.3582,57.853 87.4172,52.283 C87.2352,51.207 86.7212,48.892 86.7982,47.712 C87.1092,42.874 86.3922,37.849 84.8382,33.25 C84.7532,32.935 84.5372,32.365 84.3982,31.964 C85.5772,31.788 86.9712,31.152 87.3102,30.948 Z M28.0191,18.087 C28.3421,18.07 28.6491,18.356 28.6561,18.701 C28.7701,25.04 31.4181,29.439 32.9861,31.497 C35.0261,34.174 40.7811,38.583 43.7891,39.773 C44.1091,39.9 44.2671,40.263 44.1401,40.584 C44.0431,40.83 43.8081,40.979 43.5591,40.979 C43.4811,40.979 43.4041,40.965 43.3281,40.935 C40.1061,39.66 34.1741,35.117 31.9921,32.254 C30.3311,30.075 27.5271,25.419 27.4060037,18.724 C27.4001,18.378 27.6751,18.094 28.0191,18.087 Z M32.5944,16.7449 C32.9104,16.6049 33.2794,16.7499 33.4184,17.0669 C35.9304,22.7979 41.8024,27.0609 48.0294,27.6759 C48.3734,27.7099 48.6244,28.0159 48.5904,28.3599 C48.5574,28.6819 48.2864,28.9229 47.9684,28.9229 C47.9484,28.9229 47.9274,28.9219 47.9064,28.9199 C41.1394,28.2519 35.0044,23.7959 32.2734,17.5689 C32.1344,17.2519 32.2784,16.8839 32.5944,16.7449 Z" id="sd_hair" fill-opacity=".25" fill="#000" style="mix-blend-mode:overlay"/>
                </g>
            </g>
        </g>
        <g id="Expression" transform="translate(109.000000, 186.000000) scale(1 1)">
            <g id="Expression/Smile" stroke="none" stroke-width="1" fill="none" fill-rule="evenodd">
                <g id="Smile" transform="translate(0.000000, -2.500000)">
                    <path d="M38.9079,29.4061 C39.8149,29.3951 40.6439,30.4911 41.4799,31.1401 C41.6942866,31.3065317 41.8679,31.4493544 42.0075536,31.5697318 C42.3922291,31.4028683 42.7442076,31.2193513 43.0677,31.0183 C43.3367,30.8523 43.6907,30.9343 43.8577,31.2023 C44.0247,31.4713 43.9427,31.8253 43.6737,31.9923 C43.2729997,32.2412762 42.836785,32.4655407 42.3595214,32.6667255 C41.936342,33.8144479 40.5916948,36.2686734 36.7609,36.5441 C32.7272105,36.834099 30.4826665,34.5164171 29.5657701,33.2460097 C28.9600172,33.1035598 28.419628,32.9388751 27.9847,32.7553 C27.6927,32.6323 27.5557,32.2963 27.6787,32.0043 C27.8017,31.7123 28.1367,31.5743 28.4297,31.6983 C28.9321107,31.910294 29.6007855,32.0954734 30.3553101,32.2497096 C31.8214269,31.6053192 33.3765535,29.8155995 34.5859,29.6011 C36.1229,29.3291 36.3309,30.0181 37.0449,29.9421 C37.6679,29.8751 38.0009,29.4171 38.9079,29.4061 Z M37.832,3.6284 C38.0746667,3.77151111 38.1735309,4.06474568 38.0794294,4.31987874 L38.035,4.4134 C38.021,4.4374 36.636,6.7954 36.401,8.1414 C36.031,10.2684 36.522,12.3824 37.902,14.6044 C38.429,15.4524 39.099,16.1804 39.747,16.8854 L40.0642703,17.2315378 C41.0570136,18.3235156 41.9049048,19.3845429 41.714,20.6494 C41.53,21.8744 40.433,23.0114 38.159,24.3384 C38.068,24.3924 37.968,24.4174 37.87,24.4174 C37.673,24.4174 37.481,24.3154 37.374,24.1324 C37.215,23.8594 37.307,23.5074 37.58,23.3484 C39.475,22.2434 40.456,21.3044 40.58,20.4794 C40.6862353,19.7752824 40.1373287,19.0338637 39.3990845,18.2059943 L38.903,17.6614 C38.251,16.9524 37.511,16.1494 36.928,15.2094 C35.414,12.7714 34.857,10.3274 35.271,7.9444 C35.541,6.3924 36.986,3.9344 37.047,3.8304 C37.208,3.5584 37.561,3.4664 37.832,3.6284 Z M3.8394,13.5176 C4.0534,13.7506 4.0384,14.1136 3.8044,14.3276 C3.59728889,14.5169333 3.28746173,14.5269086 3.07086914,14.3617399 L2.9944,14.2916 C2.8114,14.0926 2.0834,13.9736 1.5754,14.3356 C1.4234,14.4446 1.2244,14.7266 1.1654,15.1626 C1.09649115,15.6640219 1.23125534,16.2256321 1.54960111,16.7895199 C2.58705544,15.708066 3.66287126,16.0233943 4.0054,16.1664 C4.5214,16.3814 4.7594,16.6954 4.6764,17.0514 C4.6044,17.3594 4.2974,17.5534 3.9874,17.4804 C3.8554,17.4494 3.7454,17.3754 3.6684,17.2764 C3.5814,17.2224 3.3564,17.1224 3.0824,17.1664 C2.78596725,17.2144702 2.48889263,17.4242923 2.21123184,17.7778676 C2.55561607,18.4602817 2.40958576,19.1591085 2.25338434,19.7564477 L2.2144,19.9036 C1.9994,20.7086 1.9564,21.0446 2.3614,21.3726 C2.6074,21.5726 2.6444,21.9336 2.4454,22.1796 C2.3314,22.3196 2.1664,22.3916 1.9994,22.3916 C1.8724,22.3916 1.7444,22.3496 1.6384,22.2636 C0.7204,21.5175 0.85702,20.58753 1.043698,19.846938 L1.1064,19.6076 C1.2864,18.9336 1.3804,18.5016 1.0764,18.1226 C0.0344,16.8296 -0.0686,15.7146 0.0284,15.0066 C0.1214,14.3296 0.4504,13.7306 0.9084,13.4036 C1.8864,12.7036 3.2614,12.8866 3.8394,13.5176 Z M28.4976,11.466 C28.5846,11.578 28.5766,11.736 28.4806,11.838 C28.3826,11.941 28.2256,11.958 28.1096,11.879 C27.344153,11.3545072 26.6141492,11.0500464 25.9230771,10.9092332 C26.2268538,11.3190798 26.4066,11.8282946 26.4066,12.3795 C26.4066,13.7325 25.3236,14.8335 23.9926,14.8335 C22.6616,14.8335 21.5786,13.7325 21.5786,12.3795 C21.5786,12.2442 21.58943,12.11143 21.610255,11.982037 C21.0191856,12.3786111 20.4984778,12.8159071 20.0566,13.187 L19.6908216,13.4924869 C19.4039265,13.7282449 19.1597429,13.9138571 18.9426,14.026 C18.5386,14.234 18.1766,14.314 17.8596,14.314 C17.1826,14.314 16.7196,13.945 16.5286,13.665 C16.4456,13.543 16.4676,13.38 16.5786,13.285 C16.7812667,13.1123333 16.9706,12.925 17.1608222,12.7277407 L17.7891528,12.0660012 C18.7603194,11.0616212 19.9913143,10.0263214 22.7306,9.679 C26.6766,9.182 28.4256,11.373 28.4976,11.466 Z M50.7005959,9.60652427 L51.0524,9.8674 C51.4244,10.1484 51.7744,10.4124 52.1914,10.5764 C52.2714,10.6074 52.3334,10.6734 52.3594,10.7554 C52.3854,10.8374 52.3734,10.9274 52.3264,10.9994 L52.2740212,11.0661462 C52.1391647,11.2158291 51.7364588,11.5434 50.8034,11.5434 C50.6904,11.5434 50.5704,11.5384 50.4414,11.5274 C50.0469,11.4959 49.6372125,11.3367125 49.187025,11.1278844 L48.5079113,10.8016322 L48.5079113,10.8016322 C48.5705819,11.0178444 48.6038,11.2470422 48.6038,11.484 C48.6038,12.837 47.5208,13.938 46.1898,13.938 C44.8588,13.938 43.7758,12.837 43.7758,11.484 C43.7758,10.9396165 43.9511246,10.4361906 44.2473851,10.0288926 C43.4336375,10.1872735 42.5339983,10.540041 41.5344,11.1814 C41.4094,11.2614 41.2424,11.2324 41.1524,11.1154 C41.0614,10.9974 41.0754,10.8294 41.1854,10.7294 L41.3678647,10.5741028 C41.9665561,10.0898307 43.9808848,8.65270303 46.9124,8.5424 C48.8837043,8.47283478 49.8939501,9.02633195 50.7005959,9.60652427 L50.7005959,9.60652427 Z" id="Shape" fill="#3F1B13"/>
                    <path d="M28.6288,1.5241 C28.9848,1.5241 29.3248,1.9351 29.6388,2.7471 C29.9348,3.5131 30.2858,4.9441 29.7238,5.4541 C29.4717565,5.68323043 28.7340401,5.84461796 27.4274684,6.04526882 L24.4034546,6.48164545 C22.7893455,6.72206901 21.2578,6.99473636 20.6458,7.3301 L20.3677805,7.48871836 C18.4334788,8.62922433 14.1324585,11.8158561 14.0868,11.8501 C14.0368,11.8881 13.9768,11.9061 13.9168,11.9061 C13.8568,11.9061 13.7978,11.8881 13.7468,11.8511 C13.6458,11.7771 13.6048,11.6451 13.6458,11.5271 L13.7617759,11.2137323 C14.2478979,9.96540112 16.2545347,5.41614082 20.2588,3.5961 C24.37705,1.72365 27.641535,1.538875 28.50898,1.52507862 L28.6288,1.5241 Z" id="Path" fill="#e27955"/>
                    <path d="M48.4459,2.1719 C49.6989,2.7099 51.1269,3.7749 51.3289,4.3249 L51.3706411,4.50095048 C51.4658343,4.95285156 51.6596059,6.11901765 51.3549,6.3669 C51.3019,6.4089 51.2239,6.4309 51.1459,6.4309 C51.0819,6.4309 51.0189,6.4159 50.9719,6.3869 C50.7860667,6.27023333 50.4391222,6.13203889 50.1544463,6.0238213 L49.7462438,5.86868125 L49.7462438,5.86868125 L49.6909,5.8459 C49.0189952,5.55042381 47.3346075,5.46399751 45.7051113,5.42216477 L43.275265,5.36828054 C41.8841684,5.32776389 41.1019,5.25824783 40.8139,5.0399 C40.2099,4.5809 40.4329,3.1249 40.6609,2.3359 C40.9019,1.4999 41.2049,1.0599 41.5599,1.0279 L41.7910006,1.0124067 C42.9622353,0.953625327 45.8557621,1.06303793 48.4459,2.1719 Z" id="Path" fill="#e27955"/>
                    <g id="Group-11" transform="translate(40.000000, 0.569100)"/>
                    <g id="Group-34" transform="translate(0.000000, 12.569100)"/>
                </g>
            </g>
        </g>
        <g id="Accesory" transform="translate(73.000000, 136.000000) scale(1 1)">
            <g id="Accesory/Pin" stroke="none" stroke-width="1" fill="none" fill-rule="evenodd">
                <g id="Pin" transform="translate(28.000000, 36.000000)" fill="#323c84">
                    <path d="M12.353868,-0.801030138 C12.353868,-0.801030138 11.1747843,-1.62326066 10.353868,-0.801030138 C9.53295174,0.021200387 3.33086802,7.19096986 2.35386802,8.69896986 C0.773868018,11.1419699 4.91486802,13.5739699 6.32286802,12.0249699 C7.29932244,10.9498977 11.3563408,5.30052334 12.8504258,1.69911293 C13.5076788,0.114840395 12.353868,-0.801030138 12.353868,-0.801030138 Z" id="color_pin" transform="translate(7.526419, 5.672551) rotate(-270.000000) translate(-7.526419, -5.672551)"/>
                </g>
            </g>
        </g>
    </g>
</svg>
