<svg viewBox="120.366 68.4 179.268 615.6" xmlns="http://www.w3.org/2000/svg" overflow="visible">
    <g id="Master/Character/Standing" stroke="none" stroke-width="1" fill="none" fill-rule="evenodd">
        <g id="Body/Standing" transform="translate(45.000000, 163.000000) scale(1 1)">
            <g id="Body/Standing/Tee N Jeans" stroke="none" stroke-width="1" fill="none" fill-rule="evenodd">
                <g id="Adidas" transform="translate(81.000000, -1.000000)">
                    <g id="Leg-R" transform="translate(86.027200, 149.322283)">
                        <path d="M0.000100000001,36.3647172 C7.9681,13.8837172 34.8421,-0.983282766 50.4881,0.0507172342 C54.2871,17.9897172 58.6501,45.4207172 59.7351,70.1467172 C61.7951,117.109717 54.9441,161.533717 56.0691,170.087717 C56.1711,170.858717 56.1941,172.501717 56.1511,174.868717 C56.1362056,174.875036 56.121304,174.881344 56.1063952,174.887642 C55.9138724,177.728641 55.1381543,179.44479 55.0574,181.993817 C53.8574,219.583817 49.1794,326.254817 49.1794,326.254817 C34.6114,339.346817 27.8824,325.397817 27.8824,325.397817 C28.9004,321.937817 29.6974,310.866817 29.2434,300.876817 C28.841025,292.011617 26.71371,280.324566 24.508469,268.548551 L23.9714,265.683817 C22.6254,258.505817 15.0784,231.964817 18.6684,214.241817 C22.9114,193.293817 24.3644,186.497817 23.3924,173.607817 C23.3977049,173.609754 23.4030106,173.611689 23.4083171,173.613624 L23.3431,172.921717 C21.1731,150.797717 0.1471,37.2417172 0.000100000001,36.3647172 Z" id="SKIN" fill="#894730"/>
                        <path d="M23.1207,189.818717 C31.8157,200.717717 21.0657,216.461717 25.7537,234.360717 C32.5087,260.151717 34.2537,281.101717 32.5537,287.978717 C30.8227,294.982717 30.2887,300.769717 29.2437,300.876717 C28.8077,291.292717 26.3577,278.410717 23.9717,265.683717 C22.6257,258.506717 15.0787,231.964717 18.6687,214.241717 C20.9207,203.122717 22.3857,195.990717 23.1207,189.818717 Z M13.847,17.2875172 C36.138,58.8315172 39.131,110.633517 20.573,153.297517 C14.285,113.596517 0.121,37.0845172 -2.55795385e-13,36.3655172 C2.742,28.6315172 7.78,22.2675172 13.847,17.2875172 Z" id="sd_legr" fill-opacity=".15" fill="#000" style="mix-blend-mode:overlay"/>
                    </g>
                    <g id="Leg-L" transform="translate(10.815500, 155.617900)">
                        <path d="M60.428037,170.405893 L60.698,170.2803 C60.484,171.1593 60.315,171.8623 60.212,172.3093 C58.902,177.9953 36.082,245.6693 33.023,255.7293 C31.91,259.3903 18.197,315.8203 18.197,315.8203 C3.209,322.2793 -1.56319402e-13,309.1963 -1.56319402e-13,309.1963 C1.439,306.3353 4.674,294.5493 5.734,284.6543 C6.323,275.0593 5.284,259.2673 5.048,248.0853 C4.786,235.6153 4.46,214.1863 12.111,192.5293 C17.24,178.0083 25.354,166.3703 28.46,158.3073 L28.46,158.3073 L28.6305791,157.855776 C29.0726642,156.664556 29.4058,155.571222 29.5738,154.613 C30.8848,147.177 27.6418,123.952 27.6348,101.646 C27.6298,79.34 24.2508,61.003 25.1208,45.257 C25.9918,29.51 28.4828,16.688 32.9628,1.681 C33.1288,1.124 33.3008,0.563 33.4748,4.26325641e-13 C55.8878,2.689 78.0008,19.047 86.9478,39.883 C85.5168,53.97 76.8108,106.649 75.3648,112.217 C72.7478,122.294 63.2078,159.97 60.6978,170.28 C60.4288,170.407 60.1588,170.533 59.8708,170.629 L60.428037,170.405893 L60.428037,170.405893 Z" id="SKIN" fill="#894730"/>
                        <path d="M19.6964,175.549 C25.0644,179.871 24.8224,196.704 16.3024,211.614 C8.3384,225.552 9.8164,242.681 4.9924,245.068 C4.7834,232.334 5.0424,212.537 12.1114,192.529 C14.3024,186.325 17.0384,180.647 19.6964,175.549 Z M33.4028,0.18 C39.5718,0.92 45.7168,2.701 51.5728,5.321 C35.8988,50.052 50.1918,75.407 45.9258,123.049 C43.6498,148.457 29.3118,155.871 29.5018,154.793 C30.8118,147.357 27.5698,124.133 27.5638,101.826 C27.5568,79.52 24.1788,61.182 25.0498,45.437 C25.9198,29.691 28.4108,16.868 32.8908,1.861 C33.0568,1.304 33.2278,0.743 33.4028,0.18 Z" id="sd_legl" fill-opacity=".15" fill="#000" style="mix-blend-mode:overlay"/>
                    </g>
                    <g id="Arm-R" transform="translate(111.558448, 7.862878)">
                        <path d="M9.62225243,0.56662248 C35.3532524,8.00762248 41.8872524,71.1566225 39.4262524,104.391622 C39.4262524,104.391622 39.4752524,104.729622 39.5852524,105.342622 C39.8001524,106.536622 40.2541524,108.795622 41.0671524,111.777622 C42.2981524,116.290622 46.3021524,141.781622 45.0581524,166.900622 C44.7293408,173.538105 45.5546772,179.201349 45.8450432,182.814699 C46.6047931,188.317306 48.7609551,194.002104 51.4251524,197.931422 C54.8161524,202.933422 56.1961524,215.382422 54.3141524,215.758422 C52.4941524,216.072422 52.2701524,210.051422 50.8001524,207.411422 C50.0751524,206.112422 49.5251524,205.657422 49.4771524,206.449422 C49.4341524,207.169422 49.4461524,207.551422 49.4621524,208.387422 C49.5821524,214.856422 49.4981524,216.617422 48.5051524,221.993422 C48.1081524,224.139422 47.6841524,226.232422 45.8381524,226.301422 C44.8901524,226.335422 44.8811524,225.001422 44.8631524,223.868422 C44.8141524,220.801422 45.3631524,216.758422 44.1111524,213.956422 C43.9241524,218.301422 42.9881524,220.550422 42.0091524,223.976422 C41.4621524,225.890422 40.3681524,227.599422 38.9321524,227.463422 C37.5291524,227.329422 38.2491524,225.070422 38.5221524,223.771422 C39.1861524,220.616422 40.0271524,216.933422 39.5721524,214.454422 C39.0011524,216.523422 34.5571524,225.890422 32.3001524,225.070422 C30.5821524,224.445422 32.9041524,219.701422 34.5451524,214.552422 C33.4241524,215.798422 32.2431524,216.962422 31.1821524,217.648422 C30.5171524,218.078422 29.7361524,218.516422 28.9751524,218.296422 C28.8471524,218.259422 28.7171524,218.198422 28.6481524,218.084422 C28.5761524,217.968422 28.5831524,217.822422 28.6001524,217.687422 C28.7281524,216.719422 29.3161524,215.884422 29.8631524,215.074422 C31.5211524,212.614422 32.9551524,209.972422 33.7891524,207.124422 C34.3211524,205.309422 34.6021524,203.421422 34.6291524,201.530422 C34.6341524,201.143422 34.6401524,200.467422 34.6581524,199.738422 C34.6541524,199.290422 34.6751524,198.804422 34.7171524,198.286422 C34.7511524,197.694422 34.8001524,197.162422 34.8751524,196.845422 C34.8831524,196.813422 34.8951524,196.789422 34.9031524,196.759422 C35.0161524,196.029422 35.1631524,195.250422 35.3771524,194.370422 C35.9674779,191.95034 36.4527382,190.303086 35.905676,186.87959 C35.8779093,186.806761 35.8582986,186.731146 35.8441524,186.652622 C33.9552324,176.158622 21.977163,144.935507 24.8204305,111.270503 L24.9111524,110.249622 L24.8996876,109.890988 C24.8918635,109.294206 24.9282524,108.703789 24.8132524,108.144622 C21.3072524,91.1586225 18.8332524,80.7326225 14.5912524,62.8836225 C10.2482524,44.6066225 -12.7147476,-5.89137752 9.62225243,0.56662248 Z" id="SKIN" fill="#894730"/>
                        <path d="M39.4066524,195.805822 C41.9846524,195.805822 45.4916524,197.499822 45.5926524,199.509822 C45.8196524,204.044822 49.2756524,203.957822 45.7786524,208.686822 C42.8806524,212.607822 34.3586524,210.804822 33.7896524,207.124822 C34.3206524,205.309822 34.6026524,203.421822 34.6296524,201.530822 C34.6346524,201.143822 34.6406524,200.467822 34.6586524,199.737822 C34.6566524,199.508822 34.6756524,198.731822 34.7386524,197.938822 C34.7886524,197.316822 37.5976524,195.805822 39.4066524,195.805822 Z M31.5105524,124.069622 C27.2915524,145.748622 40.3705524,164.755622 34.0345524,179.249622 C30.3585524,165.688622 23.1745524,141.308622 24.5745524,114.989622 C27.0345524,112.520622 32.6625524,118.148622 31.5105524,124.069622 Z M0.111152429,11.3521225 C28.8641524,26.7101225 31.2021524,58.5711225 29.5461524,86.0081225 C28.8371524,94.7591225 27.7171524,104.216122 24.2701524,105.529122 C21.0431524,90.0521225 18.6101524,79.7941225 14.5911524,62.8831225 C11.7971524,51.1261225 1.29915243,26.0361225 0.111152429,11.3521225 Z" id="sd_armr" fill-opacity=".15" fill="#000" style="mix-blend-mode:overlay"/>
                    </g>
                    <g id="Torso" transform="translate(44.290400, 1.997100)">
                        <path d="M92.7293,150.097 C89.3543,129.811 85.9213,118.774 85.7193,114.323 C85.1043,100.796 88.1853,88.006 86.9943,72.601 C86.9943,72.601 90.8003,69.243 91.5853,62.918 C92.0433,59.222 92.4273,49.216 85.8633,32.895 C78.4493,14.461 78.8313,8.619 78.6123,7.089 C78.5273,6.493 70.3223,4.922 65.3863,2.775 C59.5933,10.128 47.8153,10.795 47.8153,10.795 C29.4343,11.46 21.9583,0.138 21.8683,0 C19.2433,1.099 15.9673,2.365 9.9833,4.688 C17.5313,22.722 5.3803,38.013 1.7993,43.546 C2.2363,49.409 9.2263,74.204 10.7483,82.983 C12.7203,94.355 14.8153,104.416 14.0013,112.011 C13.2753,118.785 5.0663,137.252 0.0003,153.621 C22.4203,156.31 44.5403,172.679 53.4813,193.524 C53.6753,193.479 53.8793,193.437 54.0923,193.397 C58.4733,192.576 62.1633,189.712 63.9583,185.632 C70.3363,171.136 79.6123,157.93 92.7293,150.097 C92.7293,150.097 92.7293,150.097 92.7293,150.097" id="sk_torso" fill="#894730"/>
                        <path d="M24.489,104.7557 C24.489,99.7557 32.577,80.2177 29.249,73.7837 C19.555,69.4927 22.183,56.8397 10.794,46.8467 C7.37,43.7227 3.476,43.2947 1.799,43.5457 C2.236,49.4087 9.226,74.2037 10.748,82.9837 C12.72,94.3547 14.815,104.4157 14.002,112.0107 C13.276,118.7847 5.067,137.2517 -5.68434189e-14,153.6207 C6.156,154.3597 12.289,156.1327 18.133,158.7457 C26.7,130.9527 22.742,124.8417 24.489,104.7557" id="sd_torso" fill-opacity=".15" fill="#000" style="mix-blend-mode:overlay"/>
                        <path d="M65.0799,115.1375 C65.1979,115.6185 65.0619,116.0625 64.9419,116.4535 L64.8979,116.5995 C64.5029,117.9455 64.6399,119.4345 65.2739,120.6855 C65.3989,120.9315 65.3009,121.2325 65.0549,121.3575 C64.9819,121.3945 64.9049,121.4115 64.8289,121.4115 C64.6459,121.4115 64.4709,121.3115 64.3829,121.1375 C63.6339,119.6615 63.4729,117.9055 63.9389,116.3165 L63.9859,116.1615 C64.0759,115.8665 64.1609,115.5885 64.1089,115.3745 C64.0429,115.1055 64.2079,114.8355 64.4759,114.7695 C64.7439,114.7055 65.0149,114.8685 65.0799,115.1375 Z M21.5711,61.8455 C22.3591,64.8255 24.8891,69.4855 27.2601,71.4085 C29.3721,73.1225 32.9801,74.3875 35.6181,74.8805 C39.4011,75.5895 43.6391,75.4835 46.1181,75.1805 C46.4001,75.1385 46.6421,75.3415 46.6751,75.6155 C46.7091,75.8895 46.5141,76.1395 46.2401,76.1725 C45.0921,76.3135 43.5771,76.4125 41.9041,76.4125 C39.8591,76.4125 37.5761,76.2645 35.4351,75.8645 C32.6721,75.3475 28.8791,74.0095 26.6301,72.1845 C23.8401,69.9215 21.3381,64.8745 20.6041,62.1015 C20.5331,61.8345 20.6921,61.5605 20.9591,61.4905 C21.2251,61.4215 21.4991,61.5785 21.5711,61.8455 Z M23.5899,10.6568 C30.2849,12.1848 36.5369,15.8058 41.1959,20.8518 C41.3839,21.0548 41.3709,21.3708 41.1679,21.5578 C41.0719,21.6468 40.9509,21.6908 40.8289,21.6908 C40.6939,21.6908 40.5599,21.6368 40.4619,21.5298 C35.9379,16.6308 29.8679,13.1158 23.3679,11.6308 C23.0989,11.5698 22.9299,11.3018 22.9919,11.0328 C23.0529,10.7628 23.3199,10.5928 23.5899,10.6568 Z M69.1125,7.5579 C69.2535,7.7949 69.1765,8.1019 68.9395,8.2429 C65.7245,10.1619 63.1405,13.2269 61.7775,16.7189 C61.7665,16.7719 61.7465,16.8239 61.7195,16.8709 C61.6665,17.0089 61.6165,17.1479 61.5675,17.2879 C61.4975,17.4889 61.3075,17.6229 61.0955,17.6229 L61.0765,17.6229 L61.0765,17.6229 C60.8565,17.6139 60.6685,17.4629 60.6125,17.2509 C60.5255,16.9239 60.6245,16.5699 60.8555,16.3309 C62.3015,12.6449 65.0315,9.4099 68.4265,7.3849 C68.6645,7.2439 68.9705,7.3209 69.1125,7.5579 Z" id="shadow-lines" fill-opacity=".5" fill="#000" style="mix-blend-mode:overlay"/>
                    </g>
                    <g id="Bottom" transform="translate(4.376514, 123.873827)">
                        <path d="M43.1275857,320.510373 C34.9965857,324.853373 11.0555857,320.598373 0.932585673,315.389373 C0.932585673,315.389373 0.325585673,312.560373 2.94658567,308.628373 C3.46158567,307.855373 1.94358567,305.806373 2.12358567,304.245373 C3.65258567,290.971373 6.67358567,267.722373 11.2955857,244.959373 C14.4765857,229.291373 19.3565857,215.597373 23.7695857,202.547373 C23.7995857,199.988373 23.6705857,194.968373 26.2445857,189.948373 C25.7305857,185.828373 27.1465857,182.611373 29.0765857,179.650373 C30.6115857,162.762373 28.0905857,141.626373 28.0905857,98.7023729 C28.0905857,65.1453729 32.6105857,47.6823729 35.5175857,38.1893729 C39.6425857,24.7113729 46.3865857,5.64337286 47.8945857,1.33137286 C70.1745857,1.88137286 85.1185857,8.55437286 105.474586,7.76137286 C117.008586,7.31137286 125.419586,1.40637286 129.825586,0.0203728638 C129.825586,0.0203728638 133.934586,14.9513729 136.331586,32.9253729 C139.426586,56.3593729 138.723586,66.2923729 143.137586,115.804373 C144.470586,130.761373 143.486586,155.200373 142.369586,170.395373 C140.991586,189.128373 137.935586,208.919373 138.531586,227.303373 C139.659586,262.109373 140.120586,294.662373 138.981586,311.438373 C138.914586,312.419373 138.085586,312.958373 138.007586,313.829373 C139.115586,314.752373 138.383586,317.869373 138.147586,319.227373 C135.262586,323.056373 124.304586,327.622373 110.303586,325.796373 C105.337586,325.148373 100.101586,324.014373 98.7365857,321.382373 C98.7365857,321.382373 98.5055857,320.531373 98.5985857,317.848373 C98.6465857,316.457373 99.4145857,316.936373 99.4615857,316.552373 C99.5575857,315.785373 98.3585857,316.025373 98.3585857,314.873373 C98.3585857,299.074373 97.0505857,256.178373 99.1955857,216.635373 C99.3245857,214.274373 99.3545857,210.414373 98.9925857,207.153373 C98.6295857,203.893373 100.003586,201.375373 100.901586,199.580373 C100.868586,198.232373 99.6795857,197.605373 99.6445857,196.258373 C98.8435857,165.163373 92.4265857,125.768373 89.4005857,110.892373 C88.1405857,124.508373 80.2135857,161.777373 71.5555857,199.093373 C72.2255857,202.520373 71.4355857,205.093373 71.2095857,206.790373 C70.8155857,209.747373 69.2525857,210.765373 68.0885857,213.704373 C62.5495857,245.344373 47.6635857,291.202373 43.1275857,320.510373" id="color_bottom" fill="#323C84"/>
                        <path d="M108.237886,239.717873 C108.237886,236.717873 108.464886,230.978873 108.244886,226.027873 C103.953886,222.506873 103.953886,214.363873 104.393886,211.503873 C104.833886,208.642873 106.593886,205.891873 107.735886,205.122873 C107.756886,196.675873 107.571886,188.158873 109.237886,178.717873 C114.237886,149.717873 116.727886,114.568873 98.7278857,90.5688729 C95.5198857,96.8278729 92.5698857,103.327873 89.4158857,110.911873 C89.4258857,110.990873 89.5078857,111.423873 89.5478857,111.625873 C92.6278857,127.015873 98.8558857,165.649873 99.6448857,196.258873 C99.6798857,197.604873 100.868886,198.231873 100.901886,199.579873 C100.003886,201.374873 98.6298857,203.892873 98.9918857,207.153873 C99.3548857,210.413873 99.3238857,214.274873 99.1958857,216.635873 C97.1598857,254.152873 98.2508857,295.514873 98.3488857,312.452873 C98.3508857,312.797873 98.3678857,314.617873 98.3778857,314.944873 C98.4068857,315.963873 99.4578857,315.650873 99.4578857,316.470873 C99.4578857,316.976873 98.6888857,316.408873 98.6048857,317.703873 C98.4558857,320.026873 98.7368857,321.381873 98.7368857,321.381873 C99.7048857,323.249873 102.626886,324.361873 106.014886,325.081873 C115.915886,297.749873 108.237886,267.452873 108.237886,239.717873" id="sd_bottomr" fill-opacity=".25" fill="#000" style="mix-blend-mode:overlay"/>
                        <path d="M38.1543857,114.067973 C38.7103857,79.3759729 45.5153857,38.5019729 61.0423857,2.36697286 C56.9003857,1.83897286 52.5643857,1.44597286 47.8943857,1.33097286 C46.5593857,5.06597286 39.6423857,24.7109729 35.5173857,38.1889729 C32.6113857,47.6829729 28.0903857,65.1449729 28.0903857,98.7019729 C28.0903857,141.625973 30.6123857,162.761973 29.0763857,179.650973 C27.1463857,182.610973 25.7303857,185.828973 26.2443857,189.947973 C23.6703857,194.967973 23.7993857,199.987973 23.7703857,202.546973 C19.3563857,215.596973 14.4763857,229.291973 11.2953857,244.958973 C6.67438567,267.721973 3.65238567,290.971973 2.12338567,304.244973 C1.94338567,305.805973 3.46138567,307.855973 2.94638567,308.627973 C0.325385673,312.559973 0.932385673,315.389973 0.932385673,315.389973 C3.75838567,316.842973 7.96138567,318.271973 12.7283857,319.481973 C14.7703857,303.564973 22.3483857,246.579973 26.8953857,230.556973 C28.6703857,224.299973 30.2163857,218.594973 31.5633857,213.316973 C32.3543857,210.218973 30.5643857,203.938973 31.2253857,201.109973 C32.2923857,196.545973 35.7103857,195.628973 36.4823857,191.594973 C41.7233857,164.206973 37.5043857,154.557973 38.1543857,114.067973" id="sd_bottoml" fill-opacity=".25" fill="#000" style="mix-blend-mode:overlay"/>
                        <path d="M105.451786,13.5313729 C105.451786,15.3033729 104.140786,16.7403729 102.523786,16.7403729 C100.907786,16.7403729 99.5967857,15.3033729 99.5967857,13.5313729 C99.5967857,11.7593729 100.907786,10.3223729 102.523786,10.3223729 C104.140786,10.3223729 105.451786,11.7593729 105.451786,13.5313729" id="Button" fill-opacity=".5" fill="#000" style="mix-blend-mode:overlay"/>
                        <path d="M138.408186,309.815973 C138.730186,309.797973 138.992186,310.046973 139.006186,310.362973 C139.133186,313.237973 137.182186,315.498973 132.867186,317.476973 C129.831186,318.867973 122.912186,320.752973 116.913186,320.752973 C116.464186,320.752973 116.021186,320.741973 115.585186,320.719973 C115.268186,320.703973 115.025186,320.434973 115.041186,320.118973 C115.057186,319.801973 115.324186,319.551973 115.642186,319.574973 C121.728186,319.884973 129.229186,317.882973 132.390186,316.433973 C136.278186,314.650973 137.965186,312.794973 137.860186,310.413973 C137.846186,310.097973 138.091186,309.829973 138.408186,309.815973 Z M100.423786,316.386773 C101.935786,317.761773 104.825786,318.252773 105.674786,318.370773 C105.988786,318.413773 106.207786,318.703773 106.163786,319.016773 C106.124786,319.303773 105.878786,319.511773 105.596786,319.511773 C105.570786,319.511773 105.543786,319.510773 105.517786,319.506773 C104.322786,319.340773 101.360786,318.787773 99.6527857,317.235773 C99.4177857,317.022773 99.4007857,316.659773 99.6137857,316.425773 C99.8267857,316.189773 100.188786,316.173773 100.423786,316.386773 Z M17.9709857,312.058173 C24.2839857,313.944173 30.8209857,314.711173 37.4019857,314.342173 C37.7239857,314.314173 37.9889857,314.566173 38.0069857,314.882173 C38.0249857,315.199173 37.7829857,315.469173 37.4669857,315.487173 C36.3739857,315.549173 35.2809857,315.579173 34.1909857,315.579173 C28.5869857,315.579173 23.0339857,314.767173 17.6429857,313.156173 C17.3389857,313.065173 17.1669857,312.746173 17.2579857,312.443173 C17.3479857,312.140173 17.6669857,311.964173 17.9709857,312.058173 Z M3.13898567,304.370173 C3.37198567,305.857173 4.20798567,309.456173 6.94098567,310.759173 C7.22698567,310.895173 7.34798567,311.237173 7.21198567,311.523173 C7.11398567,311.729173 6.90798567,311.850173 6.69398567,311.850173 C6.61098567,311.850173 6.52698567,311.832173 6.44798567,311.794173 C4.17598567,310.712173 2.55698567,308.070173 2.00698567,304.547173 C1.95798567,304.234173 2.17198567,303.941173 2.48498567,303.892173 C2.79598567,303.838173 3.08998567,304.057173 3.13898567,304.370173 Z M100.645486,190.259573 C100.766486,191.256573 100.769486,192.178573 100.771486,193.069573 C100.777486,195.543573 100.783486,197.681573 103.237486,200.731573 C105.360486,203.370573 108.109486,205.124573 110.519486,206.492573 C110.794486,206.648573 110.890486,206.998573 110.734486,207.273573 C110.629486,207.460573 110.435486,207.564573 110.235486,207.564573 C110.139486,207.564573 110.042486,207.540573 109.952486,207.489573 C107.449486,206.068573 104.587486,204.239573 102.343486,201.450573 C102.120001,201.172745 101.914933,200.900476 101.726759,200.633354 C99.4503132,204.124604 99.5175837,208.808338 101.929786,214.926673 C103.828786,219.748673 107.482786,224.531673 110.706786,228.751673 L110.906786,229.013673 C111.098786,229.265673 111.050786,229.624673 110.799786,229.816673 C110.695786,229.896673 110.572786,229.934673 110.451786,229.934673 C110.278786,229.934673 110.108786,229.856673 109.995786,229.709673 L109.795786,229.448673 C106.526786,225.168673 102.820786,220.317673 100.861786,215.347673 C98.2080033,208.61222 98.2710898,203.454016 101.056957,199.583412 C99.6351248,197.102674 99.6301304,195.060313 99.6244857,193.072573 C99.6224857,192.214573 99.6204857,191.327573 99.5064857,190.398573 C99.4684857,190.084573 99.6924857,189.798573 100.006486,189.759573 C100.322486,189.724573 100.607486,189.945573 100.645486,190.259573 Z M24.4304857,202.468973 C28.1734857,209.402973 33.5354857,214.566973 39.9754857,217.449973 C39.9774857,217.441973 39.9794857,217.433973 39.9824857,217.424973 C40.0684857,217.120973 40.4034857,216.995973 40.7074857,217.081973 C41.0394857,217.175973 41.3064857,217.438973 41.4214857,217.786973 C41.5374857,218.133973 41.4805974,218.504973 41.2704857,218.778973 C41.1594857,218.922973 40.9894857,219.002973 40.8154857,219.002973 C40.7434857,219.002973 40.6714857,218.989973 40.6024857,218.961973 L40.2794857,218.829973 C33.2624857,215.915973 27.4334857,210.446973 23.4214857,203.013973 C23.2714857,202.734973 23.3754857,202.386973 23.6534857,202.236973 C23.9344857,202.085973 24.2804857,202.189973 24.4304857,202.468973 Z M69.7504857,212.367573 C69.9484857,212.614573 69.9094857,212.975573 69.6624857,213.173573 C68.0184857,214.492573 66.1674857,215.489573 64.1604857,216.138573 C64.1024857,216.157573 64.0424857,216.166573 63.9844857,216.166573 C63.7424857,216.166573 63.5174857,216.011573 63.4394857,215.769573 C63.3414857,215.467573 63.5064857,215.144573 63.8084857,215.047573 C65.6814857,214.441573 67.4094857,213.510573 68.9444857,212.278573 C69.1914857,212.080573 69.5514857,212.120573 69.7504857,212.367573 Z M132.812286,205.947573 C134.796286,206.908573 136.583286,207.003573 138.608286,206.255573 C138.905286,206.145573 139.235286,206.297573 139.345286,206.594573 C139.454286,206.892573 139.303286,207.221573 139.006286,207.331573 C137.988286,207.707573 137.006286,207.895573 136.033286,207.895573 C134.797286,207.895573 133.575286,207.591573 132.312286,206.979573 C132.027286,206.841573 131.908286,206.499573 132.046286,206.213573 C132.184286,205.928573 132.527286,205.809573 132.812286,205.947573 Z M62.5054857,189.653973 C63.7854857,190.525973 65.0414857,191.464973 66.2374857,192.445973 C67.6844857,193.632973 69.5144857,195.254973 70.8294857,197.283973 C71.2404857,197.919973 71.5904857,198.581973 71.8694857,199.253973 C71.9904857,199.545973 71.8514857,199.880973 71.5594857,200.002973 C71.4874857,200.032973 71.4124857,200.046973 71.3394857,200.046973 C71.1144857,200.046973 70.9014857,199.913973 70.8094857,199.692973 C70.5584857,199.085973 70.2404857,198.484973 69.8664857,197.907973 C68.6384857,196.011973 66.8934857,194.466973 65.5094857,193.332973 C64.3394857,192.373973 63.1114857,191.454973 61.8604857,190.600973 C61.5984857,190.422973 61.5304857,190.066973 61.7094857,189.804973 C61.8874857,189.542973 62.2444857,189.474973 62.5054857,189.653973 Z M26.8715857,189.287873 C29.0465857,190.471873 31.6375857,191.155873 34.5715857,191.319873 C36.9175857,191.452873 39.4195857,191.267873 42.6915857,190.723873 C43.0085857,190.670873 43.2995857,190.883873 43.3515857,191.195873 C43.4035857,191.507873 43.1915857,191.802873 42.8795857,191.854873 C40.2155857,192.297873 38.0405857,192.506873 36.0415857,192.506873 C35.5205857,192.506873 35.0115857,192.492873 34.5075857,192.464873 C31.4025857,192.291873 28.6485857,191.560873 26.3225857,190.294873 C26.0445857,190.142873 25.9425857,189.794873 26.0935857,189.516873 C26.2455857,189.237873 26.5935857,189.136873 26.8715857,189.287873 Z M107.292386,7.45287286 C107.602386,7.42687286 107.879386,7.67487286 107.897386,7.99187286 C108.076193,11.0510479 108.28311,14.8183456 108.480862,18.9428795 C110.336818,18.5059377 112.158908,17.7603043 114.003586,16.9651729 C119.214586,14.7181729 124.394586,12.2301729 129.399586,9.57017286 C129.917586,9.29517286 130.986586,8.72817286 131.294586,8.45417286 C131.531586,8.24517286 131.893586,8.26617286 132.104586,8.50217286 C132.314586,8.73917286 132.293586,9.10117286 132.056586,9.31217286 C131.677586,9.64917286 130.795586,10.1281729 129.998586,10.5511729 C126.489255,12.4153754 122.92582,14.1822843 119.335745,15.839802 L119.277686,15.6001729 C120.264686,19.7341729 123.201686,28.9371729 127.258686,34.1741729 C129.607686,37.2051729 132.472686,37.4781729 133.619686,37.4531729 C135.070686,37.4221729 136.072686,36.9261729 136.389686,36.4781729 C136.573686,36.2191729 136.930686,36.1591729 137.188686,36.3421729 C137.447686,36.5251729 137.508686,36.8831729 137.325686,37.1411729 C136.713686,38.0051729 135.302686,38.5641729 133.643686,38.6001729 C133.597686,38.6011729 133.546686,38.6011729 133.494686,38.6011729 C132.100686,38.6011729 128.923686,38.1961729 126.351686,34.8761729 C122.31999,29.670497 119.377899,20.7290334 118.273209,16.3225242 C117.005153,16.9038253 115.732757,17.4676591 114.458586,18.0171729 C112.492905,18.8645964 110.547543,19.6581752 108.535611,20.1093638 C108.744508,24.5695587 108.938659,29.3997235 109.073386,34.1738729 C109.346386,43.8948729 109.150386,50.3098729 108.294386,59.5948729 C108.016521,62.6142664 107.56671,66.9085088 107.055789,70.7414844 C107.092086,70.8518562 107.095239,70.9743775 107.057286,71.0937729 C107.041367,71.1442152 107.019081,71.1908966 106.991593,71.2332163 C106.719385,73.2178232 106.433646,75.0562036 106.148375,76.4980209 L106.135886,76.5641479 C106.215386,76.6872729 106.247886,76.8407729 106.214886,76.9952729 C106.181705,77.1497323 106.089945,77.2760469 105.967873,77.3558689 C105.825617,77.9880858 105.684017,78.5086468 105.545386,78.8848729 C105.533451,78.9173078 105.518854,78.9480275 105.501934,78.9768742 C105.540933,79.219246 105.418209,79.4698099 105.185086,79.5818729 C103.382086,80.4548729 100.123086,81.1128729 97.2490857,81.1128729 C96.2170857,81.1128729 95.2350857,81.0278729 94.3880857,80.8378729 C94.0790857,80.7688729 93.8850857,80.4618729 93.9540857,80.1528729 C94.0230857,79.8438729 94.3250857,79.6498729 94.6390857,79.7188729 C97.4695278,80.3532158 102.10298,79.6826998 104.434993,78.6651195 C104.436692,78.6053245 104.448065,78.5459674 104.469386,78.4878729 C104.579617,78.1886365 104.694503,77.7758233 104.812497,77.2675713 C104.753102,77.2535627 104.693955,77.2385357 104.634886,77.2232729 C100.342886,76.1122729 96.5858857,73.8232729 94.0558857,70.7792729 C93.5678857,70.1902729 93.1018857,69.5512729 92.6738857,68.8782729 C90.1538857,64.9202729 89.1518857,60.3402729 88.5048857,56.3822729 C87.8278857,52.2482729 87.5008857,47.6542729 87.5048494,42.3372729 C87.5088857,36.7992729 87.7668857,31.3072729 88.0158857,25.9972729 C88.1374671,23.4091908 88.2599368,20.8104493 88.355667,18.1776066 L77.93,16.581 L77.8278107,17.1695729 C77.7631857,17.5468229 77.6991857,17.9245729 77.6351857,18.3025729 C76.5391857,24.7825729 75.4051857,31.4825729 70.5381857,36.5495729 C66.5091857,40.7455729 60.8191857,43.0435729 55.0181857,43.0435729 C52.9671857,43.0435729 50.9031857,42.7565729 48.8931857,42.1645729 L48.8531977,42.1480291 C44.8773794,56.2826076 41.6009791,71.2712403 40.3400857,86.5595729 C39.7670857,93.5165729 39.6080857,100.614573 39.4540857,107.478573 L38.6790857,142.022573 C38.6720857,142.335573 38.4170857,142.583573 38.1060857,142.583573 L38.0930857,142.583573 C37.7760857,142.576573 37.5250857,142.313573 37.5319427,141.997573 L38.3080857,107.453573 C38.4620857,100.571573 38.6220857,93.4565729 39.1980857,86.4655729 C41.359621,60.2472093 49.4036268,34.9524486 56.7753314,13.3005366 C52.8072257,12.5972649 48.9608089,11.755718 45.6765857,10.8671729 C45.3705857,10.7841729 45.1895857,10.4691729 45.2725857,10.1631729 C45.3555857,9.85817286 45.6685857,9.68017286 45.9765857,9.76017286 C50.1935857,10.9021729 55.3525857,11.9651729 60.4995857,12.7531729 L94.3654823,17.9373954 C94.5055702,14.690715 94.6350847,11.3978064 94.7172857,8.14077286 C94.7252857,7.82377286 95.0002857,7.56077286 95.3052857,7.58177286 C95.6212857,7.58977286 95.8712857,7.85277286 95.8642857,8.16977286 C95.7802708,11.4777675 95.6482207,14.8199205 95.5059577,18.1123992 L100.504586,18.8751729 C102.306586,19.1511729 104.167586,19.4371729 105.994586,19.3241729 C106.447438,19.2963458 106.896998,19.244485 107.344025,19.1721033 C107.143963,14.9826647 106.934223,11.1570082 106.753386,8.05787286 C106.734386,7.74187286 106.975386,7.47087286 107.292386,7.45287286 Z M102.909586,82.8092729 C103.180586,83.0032729 103.242586,83.3812729 103.048586,83.6522729 C98.4145857,90.1152729 93.0055857,101.711273 89.9415857,109.750273 C89.8495857,109.991273 89.6195857,110.139273 89.3765857,110.139273 C89.3045857,110.139273 89.2315857,110.126273 89.1615857,110.099273 C88.8495857,109.980273 88.6925857,109.631273 88.8115857,109.319273 C91.9025857,101.210273 97.3695857,89.4982729 102.065586,82.9482729 C102.261586,82.6762729 102.638586,82.6142729 102.909586,82.8092729 Z M60.0940857,90.7297729 C62.8790857,92.9587729 71.3940857,93.5437729 75.2860857,92.2747729 C75.5870857,92.1747729 75.9110857,92.3407729 76.0080857,92.6417729 C76.1070857,92.9437729 75.9420857,93.2667729 75.6410857,93.3647729 C74.1390857,93.8547729 72.0770857,94.0977729 69.8960857,94.0977729 C65.8650857,94.0977729 61.4290857,93.2667729 59.3770857,91.6257729 C59.1300857,91.4277729 59.0900857,91.0667729 59.2880857,90.8197729 C59.4850857,90.5737729 59.8460857,90.5317729 60.0940857,90.7297729 Z M134.475686,83.7475729 C134.760686,83.8835729 134.881686,84.2265729 134.744686,84.5115729 C133.980686,86.1095729 130.898686,86.7925729 128.204686,86.7925729 C126.788686,86.7925729 125.480686,86.6045729 124.670686,86.2615729 C124.379686,86.1385729 124.243686,85.8015729 124.366686,85.5095729 C124.489686,85.2185729 124.823686,85.0805729 125.118686,85.2055729 C127.298686,86.1285729 132.976686,85.5505729 133.710686,84.0165729 C133.846686,83.7305729 134.188686,83.6095729 134.475686,83.7475729 Z M55.4195857,80.5677729 C59.6545857,83.8977729 72.3825857,86.0447729 81.1195857,84.9047729 C81.4425857,84.8607729 81.7215857,85.0847729 81.7625857,85.3987729 C81.8035857,85.7127729 81.5825857,85.9997729 81.2685857,86.0407729 C79.5735857,86.2627729 77.7495857,86.3667729 75.8745857,86.3667729 C67.6295857,86.3667729 58.3835857,84.3567729 54.7105857,81.4687729 C54.4615857,81.2727729 54.4185857,80.9127729 54.6145857,80.6637729 C54.8105857,80.4147729 55.1705857,80.3717729 55.4195857,80.5677729 Z M135.186886,77.9238729 C135.395886,78.1618729 135.371886,78.5248729 135.133886,78.7328729 C133.400886,80.2508729 128.804886,81.5308729 125.447886,81.5308729 C124.212886,81.5308729 123.145886,81.3578729 122.448886,80.9598729 C122.174886,80.8028729 122.078886,80.4518729 122.235886,80.1768729 C122.392886,79.9028729 122.742886,79.8068729 123.018886,79.9638729 C125.199886,81.2128729 132.335886,79.6588729 134.377886,77.8708729 C134.615886,77.6618729 134.978886,77.6858729 135.186886,77.9238729 Z M89.495,18.35 L89.5188857,17.7352729 C89.4208857,20.5372729 89.2908857,23.3012729 89.1618857,26.0512729 C88.9128857,31.3482729 88.6548857,36.8262729 88.6518857,42.3382729 C88.6478857,47.5922729 88.9698857,52.1252729 89.6358857,56.1962729 C90.2648857,60.0402729 91.2328857,64.4792729 93.6408857,68.2612729 C94.0438857,68.8942729 94.4798857,69.4942729 94.9378857,70.0462729 C97.3158857,72.9072729 100.860886,75.0612729 104.921886,76.1132729 L105.049013,76.1455043 C105.302659,74.8377705 105.565437,73.1656143 105.823259,71.2943995 C101.772866,69.8718731 98.7420572,67.1193931 96.8072857,63.1087729 C95.4692857,60.3327729 94.5602857,56.3917729 94.0282857,51.0627729 C93.4902857,45.6947729 93.5432857,41.1727729 93.6692857,35.8197729 C93.7802857,31.1037729 93.9932857,26.3127729 94.2002857,21.6797729 C94.2385974,20.8214361 94.2771711,19.9574834 94.315297,19.0895013 L89.495,18.35 Z M95.3462857,21.7307729 C95.1392857,26.3577729 94.9262857,31.1427729 94.8152857,35.8467729 C94.6872857,41.3377729 94.6372857,45.6347729 95.1682857,50.9487729 C95.6872857,56.1427729 96.5612857,59.9577729 97.8412857,62.6107729 C99.6014814,66.262803 102.337744,68.7902349 105.97941,70.1323828 C106.417548,66.7934229 106.832583,62.9673944 107.153386,59.4898729 C108.003386,50.2558729 108.198386,43.8758729 107.926386,34.2058729 C107.793779,29.4968649 107.603178,24.732715 107.398036,20.3218843 C106.958111,20.3923698 106.513718,20.4414677 106.064586,20.4691729 C105.757586,20.4881729 105.451586,20.4961729 105.146586,20.4961729 C103.512586,20.4961729 101.899586,20.2491729 100.331586,20.0091729 L95.4557277,19.26445 C95.4194131,20.0907797 95.3827308,20.9133342 95.3462857,21.7307729 Z M57.894432,13.4946019 L57.8889477,13.5650429 C57.8838657,13.5953129 57.8762857,13.6255729 57.8660857,13.6555729 C54.9335383,22.2689084 51.8940445,31.4597867 49.1630102,41.0532332 C49.1806718,41.0547555 49.198952,41.0591924 49.2171857,41.0645729 C56.5071857,43.2115729 64.5511857,41.1285729 69.7111857,35.7555729 C74.3331857,30.9435729 75.4361857,24.4195729 76.5041857,18.1105729 C76.6001011,17.5425737 76.696578,16.9740131 76.7952995,16.4069948 L60.3255857,13.8871729 C59.5143444,13.7628597 58.7027363,13.6317491 57.894432,13.4946019 Z" id="sd_linesbottom" fill-opacity=".5" fill="#000" style="mix-blend-mode:overlay"/>
                    </g>
                    <g id="Arm-L" transform="translate(20.650083, 6.621000)">
                        <path d="M33.717717,1.42108547e-13 C41.264717,18.034 36.049717,39.249 31.335717,57.334 C31.2125807,55.6826364 31.1432026,54.6581488 31.1371499,54.5684254 L31.12875,54.7249151 C30.8179163,60.390119 25.778747,94.51235 20.732717,111.179 L20.4856469,110.64904 L20.4856469,110.64904 L20.4424268,110.561 L20.732117,111.179 L20.732117,111.179 C20.565117,112.122 20.452117,112.888 20.414117,113.439 C20.074117,118.521 22.174117,142.253 22.174117,142.253 C22.9557196,169.390468 18.9973523,192.867942 17.3895083,201.143727 C17.2618218,203.711168 17.9828276,204.914347 18.516417,206.3878 C19.384417,208.7848 20.535417,211.0678 21.501417,213.4238 C23.261417,217.7178 25.105417,224.1788 24.096417,225.6608 C23.097417,226.7008 21.323417,224.1358 19.597417,221.0368 C18.747417,219.5108 17.707417,216.4928 16.860417,216.8088 C15.967417,217.1418 15.111417,219.6028 14.963417,222.1688 C14.537417,229.5108 17.035417,233.6958 18.229417,241.0118 C18.337417,241.6758 18.374417,242.4858 17.831417,242.8828 C16.932417,243.5398 15.855417,242.3288 15.401417,241.3118 C13.932417,238.0218 12.680417,234.3198 11.211417,231.0298 C11.821417,235.1688 12.213417,239.7198 12.823417,243.8588 C12.890417,244.3128 12.955417,245.0788 12.646417,245.4168 C11.972417,246.1548 10.834417,244.8928 10.397417,243.9938 C8.74441702,240.5888 7.10441702,236.1608 5.88141702,231.6138 C6.04841702,235.7738 7.89841702,244.4288 5.92641702,244.8168 C4.41641702,245.5878 0.702417015,229.5428 1.85941702,221.7728 C2.89641702,214.8068 4.79341702,210.6228 6.07541702,208.2268 C7.25147112,206.028007 7.94963153,201.389871 7.46870605,198.108501 C5.8493423,191.894691 2.83897738,180.811152 1.00111702,157.914 C-1.73888298,123.764 2.01811702,114.557 2.00411702,105.703 C2.00411702,105.512 2.00311702,105.299 2.00211702,105.089 L2.00409357,105.087724 C2.34713421,104.858991 2.04072651,101.173508 2.05071702,100.656 C2.08471702,98.844 2.13271702,97.032 2.18771702,95.221 C2.31371702,91.074 2.48071702,86.928 2.67071702,82.784 C3.21271702,70.893 3.81071702,58.975 4.96071702,47.125 C6.26471702,33.691 10.739717,19.655 20.300717,9.445 C23.987717,5.509 27.736717,2.822 33.717717,1.42108547e-13 Z" id="SKIN" fill="#894730"/>
                        <path d="M7.29721702,204.1858 C8.13721702,205.1378 12.811217,217.0458 10.509217,223.5508 C7.90621702,230.1558 3.12321702,224.4068 1.93621702,230.2458 C1.60421702,227.1298 1.51521702,224.0848 1.85921702,221.7728 C2.89621702,214.8068 4.79321702,210.6228 6.07521702,208.2268 C6.59821702,207.2498 7.02521702,205.7928 7.29721702,204.1858 Z M1.49811702,112.525 C4.52211702,112.884 6.03611702,116.887 6.03611702,118.626 C10.036117,137.626 3.03611702,154.626 7.03611702,173.626 C8.16811702,178.718 7.69511702,184.448 5.26311702,189.01 C3.80711702,182.219 2.16811702,172.454 1.00111702,157.914 C-1.07788298,132.007 0.582117015,120.459 1.49811702,112.525 Z M25.941417,4.4593 C28.239417,4.9183 28.957417,11.8123 28.696417,18.7233 C26.218417,39.4593 12.482417,47.2793 11.482417,71.2793 C10.871417,79.8343 11.091417,91.7543 8.61341702,96.8403 C6.13541702,101.9253 3.73541702,103.9693 2.00241702,105.0893 C2.34841702,104.8663 2.04141702,101.1743 2.05041702,100.6563 C2.08441702,98.8443 2.13241702,97.0323 2.18741702,95.2203 C2.31441702,91.0733 2.48141702,86.9283 2.67041702,82.7833 C3.21241702,70.8933 3.81041702,58.9753 4.96141702,47.1253 C6.26441702,33.6913 10.739417,19.6543 20.301417,9.4453 C22.083417,7.5423 23.885417,5.9343 25.941417,4.4593 Z" id="sd_arml" fill-opacity=".15" fill="#000" style="mix-blend-mode:overlay"/>
                    </g>
                    <g id="Top" transform="translate(13.000000, 0.451000)">
                        <path d="M52.0180647,1.18375766 C49.0706994,2.33815381 42.0423659,4.79299097 34.2770285,10.1184627 C28.0780167,14.3697476 20.3485,22.6459 15.9195,30.1419 C11.4795,37.6539 3.6245,56.2329 0.9585,70.4359 C4.8935,72.5149 17.7145,77.4079 35.5975,78.2519 C35.5975,78.2519 32.2235,113.6789 30.1555,119.4929 C41.0445,123.0599 97.9945,128.7549 130.6845,116.4529 C128.7485,105.5189 126.4145,91.2069 123.8505,76.2469 C123.8505,76.2469 138.8855,69.2989 144.5805,58.9339 C144.5805,58.9339 126.4355,23.6579 122.3615,17.9539 C116.911045,10.3232623 107.62087,4.99993654 97.0358394,3.5250413 C96.5609229,3.45886746 96.2822519,3.39198949 95.9573945,3.42542848 C95.6325371,3.45886746 95.2411544,3.60373656 95.1689331,3.74861284 C94.4921,5.10634364 88.947308,11.7658336 77.0897019,11.631807 C65.5269557,11.5020085 56.4755775,4.60597702 54.2851262,1.27044452 C53.9397717,0.744552371 53.490715,0.812488884 53.490715,0.812488884 C53.490715,0.812488884 53.1248261,0.75027183 52.0180647,1.18375766 Z" id="color_top" fill="#323c84"/>
                        <path d="M129.1679,111.1363 C129.2559,111.4403 129.0799,111.7583 128.7759,111.8453 C122.8539,113.5523 115.9219,115.0113 110.2319,115.7503 C97.1199,117.4513 83.9089,118.3023 70.6989,118.3023 C58.3079,118.3023 45.9169,117.5533 33.6069,116.0563 C33.2919,116.0173 33.0689,115.7323 33.1069,115.4173 C33.1449,115.1033 33.4279,114.8753 33.7449,114.9173 C59.0859,118.0013 84.7689,117.8983 110.0839,114.6123 C115.7199,113.8813 122.5889,112.4353 128.4579,110.7443 C128.7619,110.6563 129.0799,110.8313 129.1679,111.1363 Z M41.1328,42.3489 C41.4418,42.4209 41.6348,42.7279 41.5638,43.0369 C39.9898,49.8889 38.9148,56.4899 38.1798,63.8119 C37.8988,66.6209 37.6928,68.7959 37.4868,70.9719 C37.2808,73.1489 37.0738,75.3269 36.7918,78.1379 C36.7628,78.4339 36.5128,78.6539 36.2218,78.6539 C36.2028,78.6539 36.1838,78.6529 36.1638,78.6509 C35.8488,78.6199 35.6188,78.3389 35.6508,78.0239 C35.9328,75.2149 36.1388,73.0389 36.3448,70.8629 C36.5508,68.6859 36.7578,66.5079 37.0398,63.6969 C37.7788,56.3269 38.8618,49.6799 40.4458,42.7799 C40.5158,42.4709 40.8218,42.2789 41.1328,42.3489 Z M117.4277,36.2837 C121.3577,49.3837 122.7717,61.4087 124.2697,74.1397 L124.3397,74.7297 C124.3767,75.0437 124.1517,75.3287 123.8367,75.3657 C123.8147,75.3687 123.7917,75.3697 123.7697,75.3697 C123.4827,75.3697 123.2347,75.1557 123.2007,74.8637 L123.1317,74.2737 C121.6397,61.5937 120.2297,49.6177 116.3287,36.6127 C116.2377,36.3097 116.4097,35.9907 116.7137,35.8987 C117.0167,35.8057 117.3357,35.9807 117.4277,36.2837 Z" id="sd_linestop" fill-opacity=".5" fill="#000" style="mix-blend-mode:overlay"/>
                        <path d="M49.976269,3.40245256 C57.6953835,10.9098018 66.4208846,14.6545775 76.1754908,14.6545775 C85.9309007,14.6545775 93.7827486,11.5026334 99.764584,5.19557031 C99.954612,4.99521068 100.271084,4.98683521 100.471443,5.17686317 C100.671803,5.36689114 100.680178,5.68336282 100.49015,5.88372245 C94.3131442,12.3965675 86.1970745,15.6545775 76.1754908,15.6545775 C66.9613405,15.6545775 58.6341092,12.3996325 51.2114505,5.90357237 C43.6988,10.5484 30.3458,19.6414 25.3408,28.3234 C20.2094708,36.6332087 13.5520469,56.5520251 10.6211977,67.5358573 C18.8628506,69.9608736 27.3076573,71.7163762 35.8256,72.7729 C36.0616,72.8019 36.2296,73.0169 36.1996,73.2529 C36.1726,73.4699 35.9876,73.6299 35.7736,73.6299 C35.7556,73.6299 35.7376,73.6289 35.7206,73.6269 C24.2576,72.2049 12.9276,69.5239 2.0436,65.6569 C1.8196,65.5769 1.7026,65.3309 1.7826,65.1079 C1.8626,64.8839 2.1066,64.7659 2.3316,64.8459 C3.3269947,65.1996444 4.3261436,65.543403 5.32880334,65.8771205 L5.2672,66.111 C8.7002,52.868 15.9372,34.253 23.1272,24.298 C30.0639503,15.0679606 41.0779323,8.58562086 49.1385622,3.85016109 C49.107655,3.69780954 49.1518293,3.53299873 49.2692306,3.41228585 C49.4617584,3.2143272 49.7783103,3.20992468 49.976269,3.40245256 Z M141.8446,54.8182 C142.0296,54.9672 142.0586,55.2382 141.9106,55.4232 C136.8776,61.6872 130.8056,66.9142 123.8626,70.9582 C123.7946,70.9982 123.7196,71.0172 123.6466,71.0172 C123.4986,71.0172 123.3546,70.9402 123.2746,70.8032 C123.1546,70.5982 123.2246,70.3352 123.4296,70.2152 C130.2816,66.2242 136.2736,61.0662 141.2396,54.8842 C141.3886,54.7012 141.6586,54.6702 141.8446,54.8182 Z M49.6890373,4.51369501 L49.6232,4.562 L49.6232,4.562 C41.6222,9.264 30.6622,15.703 23.8202,24.808 C16.7294421,34.6253599 9.57823521,52.9947695 6.14677806,66.1479005 C7.35866564,66.5428959 8.57543789,66.9242302 9.79679537,67.2908352 L9.7448,67.4854 C12.7508,56.1644 19.3478,36.3914 24.6028,27.8824 C29.6464603,19.1312729 42.922561,10.0338163 50.5442267,5.3051539 C50.2566476,5.04752725 49.9721608,4.7830495 49.6890373,4.51369501 Z M109.0021,38.4752 C109.4171,38.5872 109.7341,38.8382 109.8721,39.1632 C109.9921,39.4482 109.9651,39.7702 109.7971,40.0722 C109.6121,40.4022 109.2021,40.6852 108.4661,40.9902 C107.2521,41.4942 106.5741,41.6672 105.1521,41.9302 C104.1171,42.1222 102.8751,42.2292 101.8561,42.2292 C101.4021,42.2292 100.9921,42.2082 100.6651,42.1632 C100.1181,42.0892 99.7231,41.8962 99.4921,41.5892 C99.2671,41.2902 99.2711,40.9822 99.2941,40.8262 C99.3941,40.1432 100.0041,39.8532 100.6211,39.6142 C102.1551,39.0192 103.1701,38.7512 104.9651,38.4692 C106.6741,38.2012 107.9941,38.2022 109.0021,38.4752 Z M102.4951,29.0656 C103.0561,29.3676 104.3331,31.6306 104.9231,33.3846 C105.4191,31.9376 106.5041,30.1616 106.9981,29.8676 C107.1441,29.7806 107.2601,29.7926 107.3331,29.8206 C107.3641,29.8306 107.3921,29.8456 107.4161,29.8636 C107.6891,30.0776 107.9251,31.7736 107.9451,32.0406 C108.0051,32.8046 107.9701,33.4986 107.8371,34.1636 C107.4461,36.1236 105.9441,37.4526 103.9181,37.6306 C103.7791,37.6436 103.6381,37.6496 103.4951,37.6496 C101.7861,37.6496 99.8391,36.7616 99.0201,34.6706 C99.0181,34.6646 99.0161,34.6596 99.0141,34.6536 C98.9561,34.4656 99.0111,34.2876 99.1621,34.1766 C99.6381,33.8276 101.1911,34.2336 102.2561,34.7516 C101.6241,32.7516 101.6191,29.7476 101.9671,29.2016 C102.0471,29.0766 102.1461,29.0356 102.2181,29.0226 C102.2861,29.0066 102.3811,29.0056 102.4951,29.0656 Z" id="decorativelines_top" fill="#FFF"/>
                    </g>
                    <g id="Sneaker-L" transform="translate(0.000106, 454.573481)">
                        <path d="M53.7109938,45.2867189 C54.0039938,45.3907189 58.0439938,49.1527189 57.1009938,54.7397189 L50.1089938,59.8907189 C50.1089938,59.8907189 40.6239938,60.0827189 40.4089938,60.0437189 C40.1939938,60.0057189 19.8559938,48.0327189 19.8559938,48.0327189 L21.4449938,30.3817189 L42.1139938,46.6217189 L53.7109938,45.2867189 Z" id="Fill-103" fill="#F9A8AC"/>
                        <path d="M6.55669382,12.1266189 C6.55669382,12.1266189 6.30969382,12.1796189 5.91369382,12.5756189 C5.26069382,13.2306189 4.42569382,14.7096189 4.00169382,16.6666189 C4.00169382,16.6666189 4.07069382,23.9316189 12.4596938,28.3016189 C19.5486938,31.9926189 20.1066938,33.3816189 21.5406938,36.4836189 C21.5406938,36.4836189 25.1146938,36.5036189 28.5476938,42.4936189 C31.9816938,48.4846189 45.5156938,52.7376189 50.6076938,51.3506189 C55.7006938,49.9626189 54.3866938,46.7776189 53.7106938,45.2866189 C53.0356938,43.7966189 50.5736938,41.1386189 48.3796938,38.7396189 C46.1866938,36.3416189 44.5766938,33.6286189 44.2056938,32.1936189 L6.55669382,12.1266189 Z" id="Fill-105" fill="#FFF"/>
                        <path d="M34.2851938,16.1832189 C34.2851938,16.1832189 36.3511938,10.0372189 36.2961938,6.87021889 C36.2421938,3.70421889 34.4281938,2.11121889 31.5111938,2.52721889 C28.5951938,2.94321889 27.5671938,1.07321889 25.5211938,2.48921889 C23.4741938,3.90521889 21.8731938,4.03421889 22.2141938,8.51521889 C22.5561938,12.9952189 21.0921938,17.5692189 20.2491938,18.1522189 C20.2491938,18.1522189 16.7221938,18.4562189 13.8801938,14.9942189 C11.0391938,11.5312189 10.8271938,7.49421889 7.06819382,8.49321889 C7.06819382,8.49321889 7.43819382,11.0852189 5.90019382,12.5932189 C5.90019382,12.5932189 6.74319382,12.0102189 8.21519382,13.7512189 C9.68619382,15.4932189 10.1851938,22.0012189 14.6841938,22.7152189 C19.1831938,23.4292189 19.3891938,20.3532189 22.3311938,21.1622189 C25.9471938,22.1552189 24.6451938,26.9492189 26.6161938,30.5692189 C28.5871938,34.1892189 34.9621938,40.6342189 42.7751938,38.2102189 C42.7751938,38.2102189 47.7491938,37.3002189 42.9481938,29.8602189 C38.9371938,23.6462189 38.6161938,23.6002189 38.1541938,21.5172189 C37.6911938,19.4342189 35.9611938,16.8042189 34.2851938,16.1832189" id="Fill-107" fill="#FD868F"/>
                        <path d="M33.6840938,15.9235189 C33.6840938,15.9235189 35.6790938,8.96151889 34.4850938,8.48451889 C33.3790938,8.08051889 32.7910938,8.81651889 31.5030938,8.94251889 C30.1700938,9.07251889 29.2150938,7.90851889 27.9350938,9.17251889 C26.9520938,10.1425189 28.8490938,14.7625189 27.9530938,17.2715189 C29.7990938,15.7915189 32.9000938,15.3205189 33.6840938,15.9235189" id="Fill-109" fill="#323C84"/>
                        <path d="M4.00149382,16.6666189 C4.00149382,16.6666189 2.02249382,18.6496189 1.88549382,23.0546189 C1.88549382,23.0546189 3.07949382,31.2006189 12.3904938,35.3056189 C19.5964938,38.4806189 20.0324938,44.2266189 24.1304938,47.2606189 C24.1304938,47.2606189 23.3394938,40.8066189 21.2854938,35.8276189 C19.2314938,30.8496189 17.4374938,31.0706189 11.6214938,27.4906189 C3.68449382,22.6046189 4.00149382,16.6666189 4.00149382,16.6666189" id="Fill-111" fill="#D7595E"/>
                        <path d="M1.88529382,23.0543189 C1.88529382,23.0543189 0.311293818,27.6413189 0.0122938179,30.9083189 C-0.287706182,34.1763189 4.95829382,37.9163189 9.67829382,39.9643189 C15.7752938,42.6093189 15.4382938,47.9663189 21.1802938,52.9253189 C26.9222938,57.8833189 40.5512938,64.9433189 51.9142938,62.1393189 C51.9142938,62.1393189 56.7352938,60.8013189 57.1002938,54.7403189 C57.1002938,54.7403189 56.3932938,53.3563189 53.2022938,54.2513189 C50.0122938,55.1483189 50.6292938,57.8443189 47.2442938,58.1883189 C43.8592938,58.5313189 33.3492938,58.0873189 24.1312938,47.2603189 C24.1312938,47.2603189 21.5312938,38.6503189 15.3432938,35.9513189 C6.70929382,32.1873189 2.10929382,26.7453189 1.88529382,23.0543189" id="Fill-113" fill="#10145F"/>
                        <path d="M7.04349382,8.56701889 C7.02449382,8.57301889 5.84149382,3.83801889 6.18949382,2.42201889 C6.54949382,0.955018891 9.61449382,-0.666981109 13.9264938,0.284018891 C13.9264938,0.284018891 12.7764938,5.74601889 10.8304938,10.3010189 C10.8304938,10.3010189 9.55349382,7.80601889 7.04349382,8.56701889" id="Fill-115" fill="#FD868F"/>
                        <path d="M28.8681938,23.9127189 C28.7761938,23.9127189 28.6821938,23.8907189 28.5951938,23.8437189 C28.3171938,23.6917189 28.2141938,23.3447189 28.3651938,23.0657189 C30.0151938,20.0257189 34.7641938,18.2177189 37.9511938,19.4127189 C38.2481938,19.5237189 38.3981938,19.8547189 38.2871938,20.1507189 C38.1751938,20.4477189 37.8451938,20.5957189 37.5491938,20.4867189 C34.9341938,19.5077189 30.7301938,21.1117189 29.3721938,23.6127189 C29.2681938,23.8047189 29.0721938,23.9127189 28.8681938,23.9127189" id="Fill-117" fill="#323C84"/>
                        <path d="M30.9091938,26.5553189 C30.7951938,26.5553189 30.6801938,26.5223189 30.5801938,26.4513189 C30.3211938,26.2693189 30.2581938,25.9113189 30.4401938,25.6533189 C31.1971938,24.5743189 32.9001938,23.0493189 34.6881938,22.2263189 C35.8951938,21.6693189 38.0781938,21.6163189 39.0841938,22.3823189 C39.3361938,22.5743189 39.3851938,22.9343189 39.1931938,23.1863189 C39.0011938,23.4373189 38.6401938,23.4873189 38.3891938,23.2943189 C37.7991938,22.8473189 36.1141938,22.8303189 35.1681938,23.2673189 C33.5811938,23.9983189 32.0321938,25.3813189 31.3791938,26.3113189 C31.2671938,26.4703189 31.0901938,26.5553189 30.9091938,26.5553189" id="Fill-119" fill="#323C84"/>
                        <path d="M33.1381938,29.2819189 C33.0291938,29.2819189 32.9191938,29.2509189 32.8211938,29.1859189 C32.5571938,29.0109189 32.4861938,28.6549189 32.6611938,28.3909189 C33.6071938,26.9679189 34.9441938,25.7529189 36.2371938,25.1419189 C37.5511938,24.5239189 39.1581938,24.3959189 40.4321938,24.8129189 C40.7331938,24.9119189 40.8981938,25.2349189 40.7991938,25.5359189 C40.7011938,25.8379189 40.3811938,26.0049189 40.0761938,25.9029189 C39.0851938,25.5799189 37.7701938,25.6879189 36.7261938,26.1789189 C35.6311938,26.6969189 34.4391938,27.7869189 33.6161938,29.0259189 C33.5061938,29.1919189 33.3241938,29.2819189 33.1381938,29.2819189" id="Fill-121" fill="#323C84"/>
                        <path d="M35.0278938,32.2653189 C34.8998938,32.2653189 34.7718938,32.2233189 34.6648938,32.1353189 C34.4198938,31.9353189 34.3838938,31.5743189 34.5848938,31.3283189 C35.1438938,30.6473189 36.6178938,28.9763189 38.2308938,28.1953189 C39.8888938,27.3913189 41.1948938,27.6253189 42.2538938,27.9573189 C42.5558938,28.0523189 42.7238938,28.3743189 42.6288938,28.6763189 C42.5338938,28.9783189 42.2148938,29.1493189 41.9098938,29.0513189 C40.8838938,28.7273189 39.9508938,28.6353189 38.7308938,29.2263189 C37.3228938,29.9093189 35.9828938,31.4323189 35.4718938,32.0553189 C35.3588938,32.1943189 35.1938938,32.2653189 35.0278938,32.2653189" id="Fill-123" fill="#323C84"/>
                        <path d="M37.3798938,34.8531189 C37.3028938,34.8531189 37.2248938,34.8371189 37.1498938,34.8051189 C36.8598938,34.6781189 36.7278938,34.3391189 36.8558938,34.0491189 C37.3848938,32.8401189 38.6228938,31.8181189 40.2498938,31.2451189 C41.7788938,30.7061189 43.3418938,30.6931189 44.3298938,31.2061189 C44.6108938,31.3521189 44.7198938,31.6991189 44.5728938,31.9791189 C44.4268938,32.2591189 44.0818938,32.3691189 43.7998938,32.2231189 C43.0958938,31.8571189 41.8518938,31.8971189 40.6298938,32.3271189 C39.3208938,32.7881189 38.3028938,33.6041189 37.9048938,34.5101189 C37.8108938,34.7251189 37.6008938,34.8531189 37.3798938,34.8531189" id="Fill-125" fill="#323C84"/>
                    </g>
                    <g id="Sneaker-R" transform="translate(107.009549, 463.075933)">
                        <path d="M55.4725507,38.4024674 C55.7795507,38.4524674 60.4275507,41.4314674 60.4975507,47.0964674 L54.5395507,53.4144674 C54.5395507,53.4144674 45.2415507,55.2994674 45.0235507,55.2994674 C44.8055507,55.2994674 22.6545507,47.1584674 22.6545507,47.1584674 L21.0615507,29.5064674 L44.3015507,41.7894674 L55.4725507,38.4024674 Z" id="Fill-168" fill="#F9A8AC"/>
                        <path d="M3.14835072,14.2081674 C3.14835072,14.2081674 2.91535072,14.3051674 2.59635072,14.7661674 C2.07035072,15.5271674 1.51435072,17.1321674 1.44635072,19.1331674 C1.44635072,19.1331674 2.81335072,26.2681674 11.8493507,29.0661674 C19.4833507,31.4321674 20.2813507,32.6981674 22.2473507,35.4931674 C22.2473507,35.4931674 25.7663507,34.8741674 30.2153507,40.1541674 C34.6653507,45.4351674 48.7413507,47.1981674 53.5033507,44.9231674 C58.2663507,42.6461674 56.4033507,39.7481674 55.4723507,38.4021674 C54.5413507,37.0571674 51.6443507,34.8821674 49.0563507,32.9141674 C46.4693507,30.9461674 44.4003507,28.5651674 43.7793507,27.2201674 L3.14835072,14.2081674 Z" id="Fill-170" fill="#FFF"/>
                        <path d="M31.1556507,13.2422674 C31.1556507,13.2422674 32.0896507,6.82426744 31.4686507,3.71926744 C30.8486507,0.613267438 28.7796507,-0.628732562 25.9846507,0.302267438 C23.1896507,1.23226744 21.8436507,-0.424732562 20.0836507,1.33526744 C18.3236507,3.09426744 16.7706507,3.50826744 17.9076507,7.85526744 C19.0456507,12.2032674 18.4226507,16.9642674 17.6976507,17.6882674 C17.6976507,17.6882674 14.2816507,18.6192674 10.8666507,15.7202674 C7.45165072,12.8202674 6.52165072,8.88726744 3.00165072,10.5422674 C3.00165072,10.5422674 3.82965072,13.0262674 2.58665072,14.7852674 C2.58665072,14.7852674 3.31165072,14.0612674 5.07065072,15.5112674 C6.82965072,16.9612674 8.48365072,23.2752674 13.0386507,23.1732674 C17.5926507,23.0712674 17.2446507,20.0082674 20.2846507,20.2772674 C24.0196507,20.6072674 23.5956507,25.5562674 26.1826507,28.7662674 C28.7686507,31.9762674 36.1936507,37.1782674 43.4476507,33.3952674 C43.4476507,33.3952674 48.1786507,31.6102674 42.1236507,25.1482674 C37.0676507,19.7522674 36.7426507,19.7642674 35.9156507,17.7982674 C35.0886507,15.8312674 32.9156507,13.5532674 31.1556507,13.2422674" id="Fill-172" fill="#FD868F"/>
                        <path d="M30.2401507,13.0079674 C30.2401507,13.0079674 31.2471507,5.83596744 29.9981507,5.52896744 C28.8471507,5.28396744 28.3661507,6.09396744 27.1091507,6.39796744 C25.8071507,6.71296744 24.6991507,5.69396744 23.6081507,7.12196744 C22.7691507,8.21996744 25.2901507,12.5309674 24.7521507,15.1399674 C26.3741507,13.4179674 29.3801507,12.5209674 30.2401507,13.0079674" id="Fill-174" fill="#323C84"/>
                        <path d="M1.44665072,19.1329674 C1.44665072,19.1329674 -0.146349284,21.4379674 0.506650716,25.7959674 C0.506650716,25.7959674 3.13765072,33.5979674 13.0336507,35.9699674 C20.6906507,37.8059674 22.1466507,43.3809674 26.7216507,45.6339674 C26.7216507,45.6339674 24.7886507,39.4249674 21.8786507,34.8949674 C18.9676507,30.3629674 17.2416507,30.9029674 10.8786507,28.4189674 C2.19665072,25.0309674 1.44665072,19.1329674 1.44665072,19.1329674" id="Fill-176" fill="#E44E46"/>
                        <path d="M0.506250716,25.7960674 C0.506250716,25.7960674 -0.221749284,30.5900674 0.0682507161,33.8590674 C0.358250716,37.1270674 6.18825072,39.8680674 11.1982507,41.0390674 C17.6692507,42.5510674 18.2962507,47.8830674 24.8322507,51.7340674 C31.3682507,55.5870674 46.0392507,60.0950674 56.7182507,55.3040674 C56.7182507,55.3040674 61.2222507,53.1260674 60.4982507,47.0970674 C60.4982507,47.0970674 59.5542507,45.8620674 56.5752507,47.3140674 C53.5972507,48.7660674 54.6862507,51.3090674 51.4172507,52.2510674 C48.1482507,53.1940674 37.7272507,54.6380674 26.7222507,45.6340674 C26.7222507,45.6340674 22.6242507,37.6270674 16.0532507,36.0790674 C6.88625072,33.9190674 1.38625072,29.3870674 0.506250716,25.7960674" id="Fill-178" fill="#10145F"/>
                        <path d="M2.99065072,10.6192674 C2.97365072,10.6282674 0.962650716,6.18126744 1.05165072,4.72626744 C1.14365072,3.21826744 3.86865072,1.07426744 8.28165072,1.23826744 C8.28165072,1.23826744 8.12665072,6.81826744 7.02665072,11.6482674 C7.02665072,11.6482674 5.32465072,9.42226744 2.99065072,10.6192674" id="Fill-181" fill="#FD868F"/>
                        <path d="M27.1058507,21.8243674 C27.0468507,21.8243674 26.9858507,21.8153674 26.9268507,21.7963674 C26.6258507,21.6973674 26.4618507,21.3733674 26.5608507,21.0723674 C27.6408507,17.7873674 31.9908507,15.1593674 35.3398507,15.7633674 C35.6518507,15.8203674 35.8588507,16.1183674 35.8028507,16.4303674 C35.7468507,16.7413674 35.4528507,16.9463674 35.1358507,16.8923674 C32.3908507,16.3903674 28.5388507,18.7273674 27.6508507,21.4293674 C27.5708507,21.6713674 27.3468507,21.8243674 27.1058507,21.8243674" id="Fill-183" fill="#393960"/>
                        <path d="M29.5863507,24.0596674 C29.5063507,24.0596674 29.4243507,24.0426674 29.3473507,24.0066674 C29.0593507,23.8746674 28.9333507,23.5346674 29.0653507,23.2466674 C29.6173507,22.0496674 31.0193507,20.2456674 32.6333507,19.1146674 C33.7203507,18.3516674 35.8583507,17.9086674 36.9843507,18.4826674 C37.2673507,18.6256674 37.3793507,18.9706674 37.2363507,19.2526674 C37.0923507,19.5356674 36.7473507,19.6496674 36.4653507,19.5036674 C35.8053507,19.1676674 34.1433507,19.4556674 33.2913507,20.0536674 C31.8593507,21.0566674 30.5823507,22.6946674 30.1073507,23.7266674 C30.0113507,23.9366674 29.8033507,24.0596674 29.5863507,24.0596674" id="Fill-185" fill="#393960"/>
                        <path d="M32.2669507,26.3428674 C32.1909507,26.3428674 32.1149507,26.3278674 32.0409507,26.2958674 C31.7499507,26.1708674 31.6159507,25.8338674 31.7409507,25.5428674 C32.4169507,23.9718674 33.5159507,22.5378674 34.6779507,21.7068674 C35.8599507,20.8628674 37.4209507,20.4528674 38.7469507,20.6328674 C39.0609507,20.6758674 39.2799507,20.9648674 39.2369507,21.2798674 C39.1949507,21.5928674 38.9049507,21.8048674 38.5919507,21.7698674 C37.5559507,21.6258674 36.2829507,21.9698674 35.3449507,22.6408674 C34.3599507,23.3438674 33.3829507,24.6298674 32.7939507,25.9958674 C32.7009507,26.2128674 32.4889507,26.3428674 32.2669507,26.3428674" id="Fill-187" fill="#393960"/>
                        <path d="M34.6595507,28.9405674 C34.5655507,28.9405674 34.4705507,28.9175674 34.3815507,28.8685674 C34.1045507,28.7145674 34.0045507,28.3665674 34.1585507,28.0885674 C34.5865507,27.3185674 35.7385507,25.4115674 37.1855507,24.3535674 C38.6705507,23.2695674 39.9975507,23.2655674 41.1015507,23.4005674 C41.4155507,23.4405674 41.6385507,23.7265674 41.5985507,24.0415674 C41.5595507,24.3545674 41.2805507,24.5755674 40.9585507,24.5395674 C39.8925507,24.4035674 38.9555507,24.4805674 37.8625507,25.2795674 C36.5985507,26.2035674 35.5525507,27.9415674 35.1615507,28.6455674 C35.0565507,28.8345674 34.8615507,28.9405674 34.6595507,28.9405674" id="Fill-189" fill="#393960"/>
                        <path d="M37.4373507,31.0665674 C37.3933507,31.0665674 37.3493507,31.0615674 37.3043507,31.0505674 C36.9963507,30.9775674 36.8063507,30.6695674 36.8793507,30.3605674 C37.1843507,29.0765674 38.2193507,27.8485674 39.7173507,26.9945674 C41.1253507,26.1905674 42.6613507,25.8995674 43.7253507,26.2255674 C44.0273507,26.3195674 44.1963507,26.6405674 44.1033507,26.9435674 C44.0093507,27.2465674 43.6873507,27.4165674 43.3853507,27.3215674 C42.6263507,27.0865674 41.4103507,27.3485674 40.2853507,27.9905674 C39.0803507,28.6775674 38.2233507,29.6635674 37.9943507,30.6265674 C37.9323507,30.8895674 37.6963507,31.0665674 37.4373507,31.0665674" id="Fill-191" fill="#393960"/>
                    </g>
                </g>
            </g>
        </g>
        <g id="Head" transform="translate(159.000000, 52.000000) scale(1 1)">
            <g id="Head/Updo" stroke="none" stroke-width="1" fill="none" fill-rule="evenodd">
                <path d="M17.7806446,67.8171604 C14.2691911,78.4838271 15.7821961,83.8171604 22.3196597,83.8171604 C28.8571232,83.8171604 33.3972707,81.9612893 35.9401021,78.2495469 L17.7806446,67.8171604 Z" id="Path-15" fill="#b5d3ff"/>
                <path d="M38.2477902,47.8171604 C22.497905,48.6676784 14.6229624,51.7260117 14.6229624,56.9921603 C14.6229624,64.8913833 8.58102124,73.4417831 19.3937235,79.3497506 C30.2064257,85.2577181 35.5195531,89.2062716 39.887223,81.6928109 C42.7990029,76.683837 45.8166292,73.8382541 48.9401021,73.1560622 L38.2477902,47.8171604 Z" id="Path-14" fill="#b5d3ff"/>
                <path d="M15.942649,58.0103972 C18.7251904,52.8019979 25.2950252,51.1919135 35.5440339,53.0816245 L36.0348625,53.1742557 L35.8453418,54.1561324 C25.6958803,52.1970953 19.3934395,53.6733493 16.8246693,58.4816088 C14.1901176,63.4129989 13.7369871,68.9577395 15.4411034,75.0587683 C17.2309606,78.7264129 17.2851987,81.8279573 15.5575921,84.2968264 L15.3904074,84.5264273 C14.5629468,85.6194668 14.5410837,86.3124905 15.1037508,87.4166022 L15.5470283,88.2249831 C16.4679102,89.9375867 16.5819449,91.1173791 15.5500083,92.8622025 L15.415023,93.0833277 L14.568489,92.5509932 C15.5184094,91.0404018 15.4706377,90.1915006 14.6696439,88.7044694 L14.3184043,88.071266 C13.5267059,86.6117022 13.4609372,85.5225565 14.4514557,84.1165975 L14.5931047,83.9228476 C16.2362265,81.7523547 16.2362265,78.9681909 14.5103612,75.4131816 C12.7069168,68.9882999 13.1817218,63.1783389 15.942649,58.0103972 Z" id="Path-19" fill-opacity=".25" fill="#000" style="mix-blend-mode:overlay"/>
                <path d="M35.8969983,55.3190218 L35.9832059,56.315299 C25.5424685,57.2187331 20.4401021,60.6550741 20.4401021,66.5928381 C20.4401021,72.5567885 22.5350262,77.3977614 26.7360648,81.1511362 L27.0633758,81.4377128 L26.4121631,82.1966081 C21.7681469,78.2115492 19.4401021,72.9975688 19.4401021,66.5928381 C19.4401021,60.1030541 24.846558,56.3692038 35.4334357,55.3611335 L35.8969983,55.3190218 Z" id="Path-20" fill-opacity=".25" fill="#000" style="mix-blend-mode:overlay"/>
                <path d="M79.1673768,55.1467073 C78.5282469,59.2332586 79.7195098,61.7756985 82.7411655,62.7740271 C87.2736491,64.27152 86.1023856,66.9038992 85.5767073,68.0406462 C85.0510291,69.1773933 86.3064947,73.9215954 86.8576731,74.3108827 C87.4088516,74.7001701 88.4690981,76.0477031 86.8576731,78.9067659 C85.2462482,81.7658286 90.5011592,77.8853545 89.6451482,73.739117 C88.7891372,69.5928794 93.483955,67.1509436 91.7762734,63.8188406 C90.0685917,60.4867376 87.0787527,57.7018359 89.6451482,52.9347038 C91.3560785,49.7566157 87.863488,50.4939502 79.1673768,55.1467073 Z" id="Path-13-Copy" fill="#b5d3ff"/>
                <g id="Face" transform="translate(32.500000, 25.500000)">
                    <path d="M30.7767,0.5676 C45.7477,-1.3684 55.5807,16.5326 54.5617,32.3626 C54.4857,33.5426 54.9987,35.8566 55.1797,36.9336 C56.7807,46.4006 48.3307,70.7006 38.7557,71.4606 C38.3803183,71.4903702 38.0020397,71.5077643 37.6213478,71.5132798 C33.4398567,84.9144331 44.1499,89.254 44.1499,89.254 C38.3569,96.607 26.5789,97.275 26.5789,97.275 C8.0839,97.943 0.6259,86.473 0.6259,86.473 C16.6550083,81.083045 10.1556786,56.0912938 7.99144992,49.115552 C7.7631801,48.4631396 7.60716858,47.9590756 7.51793398,47.6565987 C7.46420413,47.4985927 7.42642476,47.3913952 7.40791403,47.3393646 C2.83753962,48.4696808 2.0687,43.8703838 2.0687,41.5796 C2.0687,39.2856 -0.2433,37.1386 1.4947,34.1256 C4.0567,29.6826 8.9497,32.4046 8.9497,32.4046 C11.2427,16.3496 14.7147,2.6446 30.7767,0.5676 Z" id="sk_face" fill="#894730"/>
                    <path d="M10.9747,55.6816 C15.2012616,63.0778418 27.2956206,71.6606229 37.6173544,71.5133372 C33.1096076,84.9575519 22.1724502,92.1250987 9.6239,90.429 C3.2939,89.574 0.6259,86.473 0.6259,86.473 C16.6609027,81.0810629 10.1508955,56.0729104 7.9890641,49.1078636 C8.53782006,50.6782986 9.50619578,53.1121587 10.9747,55.6816 Z" id="sd_face" fill-opacity=".25" fill="#000" style="mix-blend-mode:overlay"/>
                </g>
                <path d="M66.4489252,21.3885953 C83.5852515,22.3352164 92.1534146,28.0241918 92.1534146,38.4555216 C92.1534146,48.8868514 90.523706,54.3970432 87.2642887,54.9860971 C83.1139462,39.92766 78.9818278,32.3984414 74.8679337,32.3984414 C70.7540395,32.3984414 67.9477034,28.7284927 66.4489252,21.3885953 Z" id="Path-16" fill="#b5d3ff"/>
                <path d="M40.1434431,59.7206553 C44.7154597,58.4310066 65.7618887,62.4310066 73.7849743,31.2155033 L73.5356966,29.4684373 C72.5237474,21.7910666 65.6269729,18.8377555 52.8453729,20.6085041 C33.6729729,23.264627 31.0821853,30.2293703 31.0821853,41.693801 C31.0821853,53.1582317 32.4882479,55.0855876 31.6227534,57.3062429 C30.7572588,59.5268983 35.5714264,61.010304 40.1434431,59.7206553 Z" id="Path-12" fill="#b5d3ff"/>
                <path d="M40.1673768,57.1467073 C39.5282469,61.2332586 40.7195098,63.7756985 43.7411655,64.7740271 C48.2736491,66.27152 47.1023856,68.9038992 46.5767073,70.0406462 C46.0510291,71.1773933 47.3064947,75.9215954 47.8576731,76.3108827 C48.4088516,76.7001701 49.4690981,78.0477031 47.8576731,80.9067659 C46.2462482,83.7658286 51.5011592,79.8853545 50.6451482,75.739117 C49.7891372,71.5928794 54.483955,69.1509436 52.7762734,65.8188406 C51.0685917,62.4867376 48.0787527,59.7018359 50.6451482,54.9347038 C52.3560785,51.7566157 48.863488,52.4939502 40.1673768,57.1467073 Z" id="Path-13" fill="#b5d3ff" transform="translate(46.576707, 67.445097) scale(-1, 1) translate(-46.576707, -67.445097)"/>
                <path d="M65.9690321,30.3736572 C66.7061626,27.8535058 69.3037879,27.0587687 73.5634769,27.8748383 L73.8860668,27.939062 L73.6838818,28.9184093 C69.6776688,28.0913317 67.4972105,28.7111316 66.9288182,30.6543894 C66.8795377,30.8228729 66.8336558,31.0717705 66.783559,31.4384523 L66.4780204,33.998419 C66.3321418,35.1269727 66.163608,36.1576131 65.9408504,37.2067317 C65.3508201,39.9855912 64.4401552,42.5754312 63.0745863,45.0220182 C58.3046092,53.5680265 48.8355093,58.9333028 33.1239146,59.8181085 L32.524268,59.8495523 L32.475732,58.8507309 C48.2174078,58.0857929 57.5482857,52.8712655 62.2013935,44.5346433 C63.5142794,42.1824445 64.3921919,39.6857487 64.9626575,36.9990337 C65.1359637,36.1828151 65.2757888,35.3764596 65.3978299,34.5214849 L65.4862715,33.8702239 C65.5590869,33.3069055 65.7405111,31.7071165 65.7661004,31.5057294 L65.8220925,31.0976872 C65.8682686,30.7904191 65.9143817,30.5604994 65.9690321,30.3736572 Z" id="Path-17" fill-opacity=".25" fill="#000" style="mix-blend-mode:overlay"/>
                <path d="M59.5407863,30.9231116 L60.5288919,31.0768884 C58.8860852,41.6328811 54.1912615,47.802098 46.4603778,49.4699984 L46.095769,49.5448839 L45.904231,48.5633987 C53.2748132,47.1250203 57.7891599,41.4435252 59.4632161,31.4044567 L59.5407863,30.9231116 Z" id="Path-18" fill-opacity=".25" fill="#000" style="mix-blend-mode:overlay"/>
                <path d="M73.2896259,31.2104563 L74.2803227,31.3465437 L74.1222921,32.441729 C71.6050597,49.0723172 64.7593654,58.2382912 53.5808535,59.7981889 L53.2148011,59.846359 L53.0920282,58.8539242 C64.0862144,57.4938478 70.7945212,48.5126381 73.2123059,31.7595088 L73.2896259,31.2104563 Z" id="Path-21" fill-opacity=".25" fill="#000" style="mix-blend-mode:overlay"/>
            </g>
        </g>
        <g id="Expression" transform="translate(195.000000, 102.000000) scale(1 1)">
            <g id="Expression/Smile" stroke="none" stroke-width="1" fill="none" fill-rule="evenodd">
                <g id="Smile" transform="translate(0.000000, -2.500000)">
                    <path d="M38.9079,29.4061 C39.8149,29.3951 40.6439,30.4911 41.4799,31.1401 C41.6942866,31.3065317 41.8679,31.4493544 42.0075536,31.5697318 C42.3922291,31.4028683 42.7442076,31.2193513 43.0677,31.0183 C43.3367,30.8523 43.6907,30.9343 43.8577,31.2023 C44.0247,31.4713 43.9427,31.8253 43.6737,31.9923 C43.2729997,32.2412762 42.836785,32.4655407 42.3595214,32.6667255 C41.936342,33.8144479 40.5916948,36.2686734 36.7609,36.5441 C32.7272105,36.834099 30.4826665,34.5164171 29.5657701,33.2460097 C28.9600172,33.1035598 28.419628,32.9388751 27.9847,32.7553 C27.6927,32.6323 27.5557,32.2963 27.6787,32.0043 C27.8017,31.7123 28.1367,31.5743 28.4297,31.6983 C28.9321107,31.910294 29.6007855,32.0954734 30.3553101,32.2497096 C31.8214269,31.6053192 33.3765535,29.8155995 34.5859,29.6011 C36.1229,29.3291 36.3309,30.0181 37.0449,29.9421 C37.6679,29.8751 38.0009,29.4171 38.9079,29.4061 Z M37.832,3.6284 C38.0746667,3.77151111 38.1735309,4.06474568 38.0794294,4.31987874 L38.035,4.4134 C38.021,4.4374 36.636,6.7954 36.401,8.1414 C36.031,10.2684 36.522,12.3824 37.902,14.6044 C38.429,15.4524 39.099,16.1804 39.747,16.8854 L40.0642703,17.2315378 C41.0570136,18.3235156 41.9049048,19.3845429 41.714,20.6494 C41.53,21.8744 40.433,23.0114 38.159,24.3384 C38.068,24.3924 37.968,24.4174 37.87,24.4174 C37.673,24.4174 37.481,24.3154 37.374,24.1324 C37.215,23.8594 37.307,23.5074 37.58,23.3484 C39.475,22.2434 40.456,21.3044 40.58,20.4794 C40.6862353,19.7752824 40.1373287,19.0338637 39.3990845,18.2059943 L38.903,17.6614 C38.251,16.9524 37.511,16.1494 36.928,15.2094 C35.414,12.7714 34.857,10.3274 35.271,7.9444 C35.541,6.3924 36.986,3.9344 37.047,3.8304 C37.208,3.5584 37.561,3.4664 37.832,3.6284 Z M3.8394,13.5176 C4.0534,13.7506 4.0384,14.1136 3.8044,14.3276 C3.59728889,14.5169333 3.28746173,14.5269086 3.07086914,14.3617399 L2.9944,14.2916 C2.8114,14.0926 2.0834,13.9736 1.5754,14.3356 C1.4234,14.4446 1.2244,14.7266 1.1654,15.1626 C1.09649115,15.6640219 1.23125534,16.2256321 1.54960111,16.7895199 C2.58705544,15.708066 3.66287126,16.0233943 4.0054,16.1664 C4.5214,16.3814 4.7594,16.6954 4.6764,17.0514 C4.6044,17.3594 4.2974,17.5534 3.9874,17.4804 C3.8554,17.4494 3.7454,17.3754 3.6684,17.2764 C3.5814,17.2224 3.3564,17.1224 3.0824,17.1664 C2.78596725,17.2144702 2.48889263,17.4242923 2.21123184,17.7778676 C2.55561607,18.4602817 2.40958576,19.1591085 2.25338434,19.7564477 L2.2144,19.9036 C1.9994,20.7086 1.9564,21.0446 2.3614,21.3726 C2.6074,21.5726 2.6444,21.9336 2.4454,22.1796 C2.3314,22.3196 2.1664,22.3916 1.9994,22.3916 C1.8724,22.3916 1.7444,22.3496 1.6384,22.2636 C0.7204,21.5175 0.85702,20.58753 1.043698,19.846938 L1.1064,19.6076 C1.2864,18.9336 1.3804,18.5016 1.0764,18.1226 C0.0344,16.8296 -0.0686,15.7146 0.0284,15.0066 C0.1214,14.3296 0.4504,13.7306 0.9084,13.4036 C1.8864,12.7036 3.2614,12.8866 3.8394,13.5176 Z M28.4976,11.466 C28.5846,11.578 28.5766,11.736 28.4806,11.838 C28.3826,11.941 28.2256,11.958 28.1096,11.879 C27.344153,11.3545072 26.6141492,11.0500464 25.9230771,10.9092332 C26.2268538,11.3190798 26.4066,11.8282946 26.4066,12.3795 C26.4066,13.7325 25.3236,14.8335 23.9926,14.8335 C22.6616,14.8335 21.5786,13.7325 21.5786,12.3795 C21.5786,12.2442 21.58943,12.11143 21.610255,11.982037 C21.0191856,12.3786111 20.4984778,12.8159071 20.0566,13.187 L19.6908216,13.4924869 C19.4039265,13.7282449 19.1597429,13.9138571 18.9426,14.026 C18.5386,14.234 18.1766,14.314 17.8596,14.314 C17.1826,14.314 16.7196,13.945 16.5286,13.665 C16.4456,13.543 16.4676,13.38 16.5786,13.285 C16.7812667,13.1123333 16.9706,12.925 17.1608222,12.7277407 L17.7891528,12.0660012 C18.7603194,11.0616212 19.9913143,10.0263214 22.7306,9.679 C26.6766,9.182 28.4256,11.373 28.4976,11.466 Z M50.7005959,9.60652427 L51.0524,9.8674 C51.4244,10.1484 51.7744,10.4124 52.1914,10.5764 C52.2714,10.6074 52.3334,10.6734 52.3594,10.7554 C52.3854,10.8374 52.3734,10.9274 52.3264,10.9994 L52.2740212,11.0661462 C52.1391647,11.2158291 51.7364588,11.5434 50.8034,11.5434 C50.6904,11.5434 50.5704,11.5384 50.4414,11.5274 C50.0469,11.4959 49.6372125,11.3367125 49.187025,11.1278844 L48.5079113,10.8016322 L48.5079113,10.8016322 C48.5705819,11.0178444 48.6038,11.2470422 48.6038,11.484 C48.6038,12.837 47.5208,13.938 46.1898,13.938 C44.8588,13.938 43.7758,12.837 43.7758,11.484 C43.7758,10.9396165 43.9511246,10.4361906 44.2473851,10.0288926 C43.4336375,10.1872735 42.5339983,10.540041 41.5344,11.1814 C41.4094,11.2614 41.2424,11.2324 41.1524,11.1154 C41.0614,10.9974 41.0754,10.8294 41.1854,10.7294 L41.3678647,10.5741028 C41.9665561,10.0898307 43.9808848,8.65270303 46.9124,8.5424 C48.8837043,8.47283478 49.8939501,9.02633195 50.7005959,9.60652427 L50.7005959,9.60652427 Z" id="Shape" fill="#3F1B13"/>
                    <path d="M28.6288,1.5241 C28.9848,1.5241 29.3248,1.9351 29.6388,2.7471 C29.9348,3.5131 30.2858,4.9441 29.7238,5.4541 C29.4717565,5.68323043 28.7340401,5.84461796 27.4274684,6.04526882 L24.4034546,6.48164545 C22.7893455,6.72206901 21.2578,6.99473636 20.6458,7.3301 L20.3677805,7.48871836 C18.4334788,8.62922433 14.1324585,11.8158561 14.0868,11.8501 C14.0368,11.8881 13.9768,11.9061 13.9168,11.9061 C13.8568,11.9061 13.7978,11.8881 13.7468,11.8511 C13.6458,11.7771 13.6048,11.6451 13.6458,11.5271 L13.7617759,11.2137323 C14.2478979,9.96540112 16.2545347,5.41614082 20.2588,3.5961 C24.37705,1.72365 27.641535,1.538875 28.50898,1.52507862 L28.6288,1.5241 Z" id="Path" fill="#b5d3ff"/>
                    <path d="M48.4459,2.1719 C49.6989,2.7099 51.1269,3.7749 51.3289,4.3249 L51.3706411,4.50095048 C51.4658343,4.95285156 51.6596059,6.11901765 51.3549,6.3669 C51.3019,6.4089 51.2239,6.4309 51.1459,6.4309 C51.0819,6.4309 51.0189,6.4159 50.9719,6.3869 C50.7860667,6.27023333 50.4391222,6.13203889 50.1544463,6.0238213 L49.7462438,5.86868125 L49.7462438,5.86868125 L49.6909,5.8459 C49.0189952,5.55042381 47.3346075,5.46399751 45.7051113,5.42216477 L43.275265,5.36828054 C41.8841684,5.32776389 41.1019,5.25824783 40.8139,5.0399 C40.2099,4.5809 40.4329,3.1249 40.6609,2.3359 C40.9019,1.4999 41.2049,1.0599 41.5599,1.0279 L41.7910006,1.0124067 C42.9622353,0.953625327 45.8557621,1.06303793 48.4459,2.1719 Z" id="Path" fill="#b5d3ff"/>
                    <g id="Group-11" transform="translate(40.000000, 0.569100)"/>
                    <g id="Group-34" transform="translate(0.000000, 12.569100)"/>
                </g>
            </g>
        </g>
        <g id="Accesory" transform="translate(159.000000, 52.000000) scale(1 1)">
            <g id="Accesory/Pin" stroke="none" stroke-width="1" fill="none" fill-rule="evenodd">
                <g id="Pin" transform="translate(28.000000, 36.000000)" fill="#323c84">
                    <path d="M12.353868,-0.801030138 C12.353868,-0.801030138 11.1747843,-1.62326066 10.353868,-0.801030138 C9.53295174,0.021200387 3.33086802,7.19096986 2.35386802,8.69896986 C0.773868018,11.1419699 4.91486802,13.5739699 6.32286802,12.0249699 C7.29932244,10.9498977 11.3563408,5.30052334 12.8504258,1.69911293 C13.5076788,0.114840395 12.353868,-0.801030138 12.353868,-0.801030138 Z" id="color_pin" transform="translate(7.526419, 5.672551) rotate(-270.000000) translate(-7.526419, -5.672551)"/>
                </g>
            </g>
        </g>
    </g>
</svg>
