<?xml version="1.0" encoding="UTF-8"?>
<svg width="100px" height="100px" viewBox="0 0 100 100" version="1.1" xmlns="http://www.w3.org/2000/svg" xmlns:xlink="http://www.w3.org/1999/xlink">
    <!-- Generator: Sketch 64 (93537) - https://sketch.com -->
    <title>folder</title>
    <desc>Created with Sketch.</desc>
    <defs>
        <circle id="path-1" cx="50" cy="50" r="50"></circle>
        <circle id="path-3" cx="50" cy="50" r="50"></circle>
    </defs>
    <g id="Page-1" stroke="none" stroke-width="1" fill="none" fill-rule="evenodd">
        <g id="folder">
            <g id="a-link" fill="#6691FF" fill-rule="nonzero">
                <circle id="a" cx="50" cy="50" r="50"></circle>
            </g>
            <g id="Clipped">
                <mask id="mask-2" fill="white">
                    <use xlink:href="#path-1"></use>
                </mask>
                <g id="a"></g>
                <g id="Group" mask="url(#mask-2)">
                    <g transform="translate(1.540617, 7.563025)">
                        <g id="Group" stroke-width="1" fill="none" fill-rule="evenodd">
                            <path d="M48.0337242,57.9951881 L48.0337242,53.5548071 C48.0337242,51.0758114 46.0299002,49.066179 43.5578881,49.066179 L21.5946133,49.066179 C19.1227827,49.066179 17.1187774,51.0758114 17.1187774,53.5548071 L17.1187774,111.315262 C17.1187774,113.79444 19.1227827,115.804072 21.5946133,115.804072 L97.3448923,115.804072 C99.8169044,115.804072 101.820728,113.79444 101.820728,111.315262 L101.820728,66.9728086 C101.820728,64.4936307 99.8169044,62.4839983 97.3448923,62.4839983 L52.5095601,62.4839983 C50.0377295,62.4839983 48.0337242,60.474366 48.0337242,57.9951881" id="Path" fill="#DCB758" fill-rule="nonzero"></path>
                            <path d="M34.1810387,0.838445095 C34.1803645,0.442576179 34.4991896,0.121074393 34.8934308,0.120394202 L98.5162004,8.26058798e-17 C98.9102158,8.26058798e-17 99.2303957,0.319689036 99.2312989,0.715331226 L99.3832658,81.8185786 C99.3841633,82.2144475 99.0651125,82.5359493 98.671097,82.5366295 L35.0483275,82.6570237 C34.6540862,82.6570237 34.3339063,82.3375614 34.3332289,81.9416925 L34.1810387,0.838445095 Z" id="Path" fill="#F7F7F7" fill-rule="nonzero"></path>
                            <g transform="translate(40.476190, 33.333333)" fill="#E4E7E7" fill-rule="nonzero" id="Path">
                                <polygon points="24.3708179 1.5046606 24.3697479 0.352480119 49.5786282 0.280112024 49.5798319 1.4322925"></polygon>
                                <polygon points="24.3708179 8.22734964 24.3697479 7.07516917 49.5786282 7.00280107 49.5798319 8.15498155"></polygon>
                                <polygon points="24.3707724 14.1097026 24.3697479 12.9858912 49.5789213 12.885154 49.5798319 14.0089654"></polygon>
                                <polygon points="0.409912976 20.2406635 0.4078825 19.1168521 50.3739093 19.016115 50.3759399 20.1399263"></polygon>
                            </g>
                            <polygon id="Path" fill="#E6E6E7" fill-rule="nonzero" points="72.2664505 71.264674 40.8860992 71.3299501 40.884073 70.1709268 72.2646494 70.1054015"></polygon>
                            <polygon id="Path" fill="#E4E7E7" fill-rule="nonzero" points="40.8869406 59.6967393 40.884073 58.537716 90.8489042 58.4721908 90.8521304 59.6314633"></polygon>
                            <polygon id="Path" fill="#E4E7E7" fill-rule="nonzero" points="40.8869406 65.8194818 40.884073 64.6604585 90.8489042 64.5949333 90.8521304 65.7542058"></polygon>
                            <polygon id="Path" fill="#E6E6E7" fill-rule="nonzero" points="90.8521304 76.7397011 40.8861035 76.8404183 40.884073 75.7165871 90.8503254 75.6158698"></polygon>
                            <polygon id="Path" fill="#E4E7E7" fill-rule="nonzero" points="90.8521304 74.7652193 40.8861035 74.8659365 40.884073 73.7423469 90.8500998 73.6413881"></polygon>
                            <polygon id="Path" fill="#E6E6E7" fill-rule="nonzero" points="90.8521304 81.5002162 40.8861035 81.6009533 40.884073 80.477142 90.8503254 80.3764049"></polygon>
                            <path d="M31.3564798,53.5548071 C31.3564798,51.0758114 29.3598596,49.066179 26.8969152,49.066179 L5.01241725,49.066179 C2.54947287,49.066179 0.552852726,51.0758114 0.552852726,53.5548071 L0.552852726,111.315262 C0.552852726,113.79444 2.54947287,115.804072 5.01241725,115.804072 L80.490375,115.804072 C82.9535002,115.804072 84.9501204,113.79444 84.9501204,111.315262 L84.9501204,66.9728086 C84.9501204,64.4936307 82.9535002,62.4839983 80.490375,62.4839983 L35.8162252,62.4839983 C33.3532808,62.4839983 31.3564798,60.474366 31.3564798,57.9951881 L31.3564798,53.5548071 Z" id="Path" fill="#EFC84B" fill-rule="nonzero"></path>
                        </g>
                        <polygon id="Path" fill="#DCDDDD" fill-rule="nonzero" points="40.7686429 8.3165369 90.8038107 8.3165369 90.8038107 28.1838202 40.7686429 28.1838202"></polygon>
                        <g id="Group" stroke-width="1" fill="none" fill-rule="evenodd" transform="translate(59.589211, 10.164656)">
                            <path d="M-1.05735526e-15,8.0853074 C-1.05735526e-15,12.5437589 3.60368861,16.171044 8.03331137,16.171044 C12.462792,16.171044 16.0663385,12.5437589 16.0663385,8.0853074 C16.0663385,3.62714205 12.462792,1.05735526e-15 8.03331137,1.05735526e-15 C3.60368861,1.05735526e-15 -1.05735526e-15,3.62714205 -1.05735526e-15,8.0853074 Z" id="Path" fill="#40C4E4" fill-rule="nonzero"></path>
                            <path d="M7.46391307,10.9125762 L10.5752027,9.34572438 C11.1624238,9.04999862 11.3987275,8.33422874 11.1030017,7.74700762 C10.9930306,7.52863856 10.8184904,7.34942524 10.6031025,7.23372414 L7.49181293,5.5624155 C6.91260852,5.25128107 6.19084629,5.46859473 5.87971186,6.04779912 C5.7866723,6.22100054 5.73797801,6.41454888 5.73797801,6.61115785 L5.73797801,9.84931832 C5.73797801,10.5068002 6.27097236,11.0397945 6.9284542,11.0397945 C7.11442723,11.0397945 7.29781374,10.9962242 7.46391307,10.9125762 L7.46391307,10.9125762 Z" id="Path" stroke="#FFFFFF"></path>
                        </g>
                    </g>
                </g>
            </g>
            <g id="Clipped">
                <mask id="mask-4" fill="white">
                    <use xlink:href="#path-3"></use>
                </mask>
                <g id="a"></g>
                <g id="Group" mask="url(#mask-4)" fill-rule="nonzero">
                    <g transform="translate(41.666667, 39.285714)" id="Path">
                        <polygon fill="#FEFEFE" points="21.3585438 18.6878792 0.361049775 18.6974795 0.350140287 0.219684741 21.3476344 0.210084396"></polygon>
                        <polygon fill="#B7DDCF" points="20.5182074 17.0168074 1.22948173 16.9938011 1.19047618 1.0504207 20.4790155 1.07340837"></polygon>
                        <path d="M1.19126375,14.7696033 C1.19126375,14.7696033 4.02042932,10.2946281 5.0574395,11.9342452 C6.09463635,13.5738802 6.74289974,14.4549201 7.9110849,11.9307212 C9.07943696,9.40671149 10.1186204,4.884826 12.0632506,7.97544731 C14.0079006,11.0658974 14.2662005,14.5750032 15.5635186,13.532604 C16.8610631,12.4898802 19.1180226,12.487279 20.5182079,14.7457427 L20.517401,16.993118 L1.19047665,17.0168072 L1.19126375,14.7696033 Z" fill="#349986"></path>
                        <path d="M17.9971995,4.83083417 C17.9978856,5.99114234 17.057763,6.93208488 15.8974549,6.93277439 C14.7371468,6.93346238 13.7960279,5.99332245 13.795518,4.83303297 C13.7948131,3.67290265 14.7349543,2.73178225 15.8952625,2.73109309 C17.0555519,2.73058261 17.9965117,3.67052598 17.9971995,4.83083417" fill="#E2AC2D"></path>
                    </g>
                </g>
            </g>
        </g>
    </g>
</svg>