<svg viewBox="188.459 432.15 129.082 83.85" xmlns="http://www.w3.org/2000/svg" overflow="visible">
    <g id="Master/Stickers/PopCorn Bowl" stroke="none" stroke-width="1" fill="none" fill-rule="evenodd">
        <path d="M264.36729,516 L244.63271,516 C222.191555,516 204,497.644412 204,475 L305,475 C305,497.644412 286.808445,516 264.36729,516" id="Pop-Corn-Bowl" fill="#94B1EB"/>
        <path d="M197.505415,507.569932 C198.78541,507.074742 200.223395,507.716157 200.716113,509.003473 C200.734858,509.050121 200.740213,509.099461 200.75628,509.147903 C201.78099,509.115608 202.761962,509.719346 203.15203,510.735742 C203.643856,512.023058 203.006536,513.467363 201.725649,513.963451 C200.999961,514.244238 200.227858,514.149147 199.60125,513.788519 C199.326328,514.246032 198.912159,514.624602 198.376597,514.832725 C197.095709,515.327916 195.658616,514.686501 195.165006,513.399185 C194.756193,512.332552 195.133765,511.164548 196.002269,510.511471 C195.696106,509.303099 196.318251,508.029239 197.505415,507.569932 Z M198.620456,493.890924 C199.135489,493.199272 200.090576,492.982178 200.85286,493.42444 C201.676734,493.902586 201.958797,494.961145 201.483039,495.788257 C201.466079,495.819655 201.441979,495.843876 201.423234,495.872583 C201.886496,496.415319 201.990038,497.208341 201.614252,497.863212 C201.138493,498.691221 200.08522,498.973803 199.261346,498.496554 C198.794514,498.224737 198.508881,497.76543 198.429439,497.268446 C198.064364,497.319579 197.680544,497.259475 197.336891,497.059425 C196.513017,496.581279 196.230062,495.523617 196.706712,494.695608 C197.101244,494.009339 197.892091,493.70433 198.620456,493.890924 Z M270.280614,438.533386 C272.097064,438.533386 273.719819,439.3596 274.799871,440.658578 C274.843608,440.655887 274.886453,440.647813 274.929298,440.647813 C276.015598,440.647813 276.928732,441.352024 277.267029,442.328052 C277.329512,442.320875 277.390209,442.309213 277.454476,442.309213 C278.439019,442.309213 279.238792,443.111206 279.238792,444.101587 C279.238792,444.899992 278.714834,445.569217 277.996287,445.800665 C279.086157,446.197176 279.930561,447.078112 280.288495,448.1896 C280.891003,447.963535 281.541712,447.834354 282.221876,447.834354 C284.403402,447.834354 286.285012,449.103728 287.190113,450.945442 C287.200824,450.944545 287.211535,450.941854 287.224032,450.941854 C287.274017,450.941854 287.321325,450.952619 287.372204,450.956207 C287.711394,449.982871 288.623635,449.280454 289.70815,449.280454 C291.080083,449.280454 292.192268,450.398221 292.192268,451.777039 C292.192268,452.559297 291.8263,453.249154 291.265744,453.707564 C291.592438,454.129194 291.795059,454.653988 291.795059,455.230813 C291.795059,455.809433 291.590652,456.335124 291.262174,456.759445 C293.00186,457.628719 294.330948,459.197719 294.880792,461.10492 C294.910248,461.104023 294.937919,461.097744 294.968268,461.097744 C296.340201,461.097744 297.452386,462.21551 297.452386,463.594329 C297.452386,464.376586 297.087311,465.066444 296.526755,465.523957 C296.557104,465.563428 296.581204,465.60918 296.608875,465.650446 C298.260193,465.849598 299.556254,467.154856 299.749057,468.814461 C300.806793,468.942744 301.703861,469.736664 301.901126,470.844563 C301.910052,470.8948 301.906482,470.944139 301.91273,470.994376 C302.925836,471.159439 303.77381,471.939006 303.963935,473.011918 C304.042484,473.456872 303.988035,473.891958 303.846111,474.289366 L303.846111,474.289366 L295.672533,474.289366 C295.655573,474.225673 295.631473,474.165568 295.618976,474.100081 C295.539534,473.652436 295.58952,473.214659 295.735015,472.817251 C293.955162,472.593877 292.572517,471.084981 292.572517,469.235194 C292.572517,469.013614 292.599295,468.799211 292.636785,468.589293 C292.620718,468.566866 292.601973,468.54713 292.585906,468.523806 C292.163705,468.871875 291.696872,469.164324 291.200584,469.40564 C291.392494,470.733324 290.508816,471.98386 289.184191,472.219793 C289.169909,472.222484 289.157413,472.22069 289.143131,472.222484 L289.143131,472.222484 L289.143131,474.109052 C289.568011,473.350119 290.366892,472.833398 291.2952,472.833398 C292.296703,472.833398 293.154495,473.431754 293.548134,474.289366 L293.548134,474.289366 L214.994481,474.289366 C214.932891,474.196966 214.862376,474.113538 214.804356,474.018447 C214.695459,474.119817 214.567816,474.197863 214.450885,474.289366 L214.450885,474.289366 L206.994068,474.289366 C206.812869,473.88209 206.752172,473.452387 206.793232,473.037037 C206.229106,472.187498 205.897057,471.167513 205.897057,470.068585 C205.897057,467.502027 207.69744,465.358893 210.096761,464.839482 C209.834335,464.542547 209.637962,464.179228 209.541561,463.764775 C209.229149,462.42184 210.059271,461.078905 211.3955,460.765822 C212.153321,460.5882 212.904894,460.78825 213.476161,461.233203 C213.81178,460.816956 214.273257,460.499388 214.832027,460.368414 C216.168256,460.055332 217.503592,460.888723 217.816004,462.232555 C217.895446,462.573447 217.892768,462.911648 217.833856,463.235495 C218.522054,462.882941 219.270949,462.636243 220.060904,462.50796 C220.09393,462.389545 220.124279,462.272027 220.161768,462.1572 C219.910054,461.858471 219.755633,461.474519 219.755633,461.051992 C219.755633,460.096598 220.526843,459.32062 221.47836,459.32062 C221.513171,459.32062 221.546198,459.329591 221.581009,459.331385 C221.781845,458.752766 222.283489,458.33293 222.89403,458.219001 C224.299882,457.103028 226.069917,456.432009 227.999728,456.432009 C228.934285,456.432009 229.829567,456.595278 230.66683,456.883242 C230.999771,456.132383 231.745096,455.607589 232.614493,455.607589 C232.782302,455.607589 232.942971,455.630913 233.099177,455.667693 C233.269664,455.147384 233.605284,454.704225 234.041767,454.396525 C234.499673,452.76742 235.679696,451.443324 237.214976,450.800115 C237.513106,450.088727 238.12811,449.546888 238.882361,449.34953 C238.946628,448.886634 239.136753,448.464107 239.414353,448.11873 C239.850837,446.259075 241.502155,444.871285 243.485522,444.871285 C244.651263,444.871285 245.704537,445.351225 246.465036,446.124512 C246.558759,446.088629 246.649805,446.050054 246.749776,446.025833 C247.50849,445.84821 248.25917,446.049157 248.830437,446.494111 C249.165164,446.077864 249.628426,445.759399 250.187196,445.629322 C250.859327,445.471435 251.531458,445.6051 252.073269,445.946889 C253.463054,444.595881 255.35359,443.760695 257.4405,443.760695 C258.185824,443.760695 258.903478,443.872831 259.586321,444.070189 C259.566683,443.947289 259.551509,443.823491 259.551509,443.695208 C259.551509,442.315493 260.663694,441.197726 262.035627,441.197726 C262.086506,441.197726 262.132921,441.210285 262.1838,441.212976 C262.522989,440.23964 263.435231,439.537223 264.519745,439.537223 C265.165991,439.537223 265.748862,439.791098 266.190701,440.197477 C267.251115,439.169419 268.690886,438.533386 270.280614,438.533386 Z M227.799874,449.651309 C228.315799,448.95876 229.269993,448.741665 230.03317,449.183928 C230.857044,449.662074 231.139107,450.720633 230.663349,451.548642 C230.645497,451.579142 230.622289,451.604261 230.602652,451.632968 C231.066806,452.174806 231.170348,452.968726 230.794561,453.623597 C230.318803,454.450709 229.26553,454.734187 228.441656,454.256939 C227.974824,453.985122 227.689191,453.524918 227.610641,453.027933 C227.243781,453.079067 226.861746,453.01986 226.516308,452.81981 C225.693327,452.341664 225.411264,451.283105 225.887022,450.455096 C226.280661,449.769724 227.072401,449.464715 227.799874,449.651309 Z M285.957783,442.081264 C286.472816,441.388715 287.427902,441.171621 288.190187,441.61478 C289.014061,442.092029 289.296124,443.151485 288.821258,443.978597 C288.803406,444.009098 288.780198,444.034216 288.760561,444.06382 C289.224715,444.604762 289.327365,445.399578 288.951578,446.053553 C288.47582,446.880664 287.422547,447.16504 286.598673,446.686894 C286.131841,446.415078 285.846207,445.95577 285.767658,445.458786 C285.40169,445.509023 285.018763,445.449815 284.674218,445.249765 C283.850344,444.772517 283.568281,443.71306 284.044039,442.885949 C284.437678,442.199679 285.229418,441.895568 285.957783,442.081264 Z M249.367339,437 C250.318855,437 251.090065,437.775081 251.090065,438.731372 C251.090065,439.273211 250.836566,439.751357 250.44739,440.068925 C250.674112,440.361374 250.814251,440.724693 250.814251,441.124793 C250.814251,442.081085 250.043933,442.855268 249.093309,442.855268 C248.304247,442.855268 247.646398,442.319709 247.441991,441.592174 C246.588661,441.489906 245.923671,440.767753 245.923671,439.882331 C245.923671,438.92604 246.694881,438.151856 247.646398,438.151856 C247.681209,438.151856 247.714235,438.15993 247.749047,438.162621 C247.982909,437.487117 248.615766,437 249.367339,437 Z" id="Fill-6" fill="#F1EFEF"/>
        <path d="M196.560943,497.985397 C196.861431,498.159556 197.19322,498.25651 197.539317,498.270874 C197.71013,498.755647 198.043707,499.164113 198.490862,499.424453 C198.561512,499.463953 198.638423,499.483703 198.714439,499.483703 C198.869154,499.483703 199.019398,499.402908 199.102569,499.259272 C199.225089,499.044715 199.151756,498.77001 198.938016,498.645226 C198.608016,498.454908 198.384439,498.123647 198.323626,497.736726 C198.285171,497.49434 198.060699,497.338135 197.82013,497.362374 C197.53574,497.402772 197.25135,497.348908 197.008992,497.207965 C196.712976,497.036499 196.501919,496.760897 196.413382,496.429635 C196.324846,496.098374 196.370455,495.752749 196.541268,495.456499 C196.82387,494.965442 197.406959,494.720363 197.961431,494.861306 C198.139398,494.90709 198.321837,494.840658 198.430049,494.695226 C198.81639,494.175442 199.526472,494.026419 200.085415,494.347806 C200.695333,494.702408 200.904602,495.488817 200.554927,496.096578 C200.545984,496.106453 200.511106,496.154931 200.503951,496.166601 C200.374276,496.367692 200.438667,496.618158 200.633626,496.757306 C200.828585,496.897351 201.112081,496.839897 201.258748,496.649578 C201.272163,496.633419 201.315984,496.568783 201.326715,496.549931 C201.925902,495.509465 201.570862,494.172749 200.532569,493.571272 C199.668667,493.068544 198.582976,493.235522 197.899724,493.938442 C197.051024,493.843283 196.202325,494.252647 195.766797,495.007635 C195.477041,495.51126 195.399236,496.098374 195.54948,496.661249 C195.699724,497.224124 196.059236,497.695431 196.560943,497.985397 L196.560943,497.985397 Z M200.506634,509.251874 C200.386797,509.11901 200.193626,509.071431 200.014764,509.140556 C199.784033,509.228533 199.67135,509.497851 199.758992,509.730363 C199.761675,509.743828 199.783138,509.821033 199.785821,509.832703 C199.847528,510.022124 199.995984,510.146908 200.225821,510.142419 C201.090618,510.110101 201.884764,510.638863 202.194195,511.444124 C202.390943,511.955828 202.376634,512.512419 202.15574,513.012453 C201.933951,513.513385 201.532407,513.897613 201.02265,514.093317 C200.454764,514.31326 199.818911,514.260294 199.276959,513.947885 C199.06948,513.828488 198.79761,513.896715 198.670618,514.105885 C198.431837,514.505374 198.083951,514.801624 197.666309,514.963215 C196.613707,515.368988 195.431431,514.842022 195.027203,513.78809 C194.702569,512.941533 194.986065,511.966601 195.716715,511.41809 C195.913463,511.269067 195.953707,510.987181 195.806146,510.789681 C195.657691,510.590385 195.376878,510.550885 195.18013,510.69901 C194.131106,511.488113 193.725089,512.89126 194.192813,514.110374 C194.47452,514.844715 195.02452,515.425544 195.741756,515.745135 C196.122732,515.914806 196.526959,515.999192 196.931187,515.999192 C197.287122,515.999192 197.644846,515.933658 197.98826,515.801692 C198.466715,515.61676 198.88078,515.311533 199.201837,514.908453 C199.890455,515.188544 200.650618,515.200215 201.344602,514.931794 C202.076146,514.64901 202.65387,514.096908 202.973138,513.377828 C203.290618,512.657851 203.311187,511.856181 203.028585,511.12184 C202.619886,510.057135 201.629886,509.335363 200.506634,509.251874 L200.506634,509.251874 Z M210.265333,466.967124 C210.629317,468.248181 211.801756,469.104613 213.088667,469.104613 C213.309561,469.104613 213.533138,469.079476 213.755821,469.027408 C213.99639,468.970851 214.14574,468.729363 214.090293,468.488772 C214.033951,468.247283 213.796959,468.096465 213.552813,468.153022 C212.452813,468.415158 211.35639,467.72301 211.098829,466.600851 C211.097935,466.587385 211.088098,466.509283 211.085415,466.497613 C211.050537,466.30101 210.890455,466.151988 210.693707,466.130442 C209.829805,466.036181 209.117935,465.407772 208.922081,464.567499 C208.665415,463.466885 209.349561,462.362681 210.445089,462.105931 C210.686553,462.049374 210.835902,461.807885 210.779561,461.567294 C210.724114,461.325806 210.483545,461.174988 210.242976,461.231544 C208.665415,461.601408 207.683463,463.18859 208.051024,464.772181 C208.307691,465.872794 209.176065,466.721147 210.265333,466.967124 L210.265333,466.967124 Z M213.889967,461.709135 C214.419398,461.584351 214.96761,461.674124 215.431756,461.963192 C215.894114,462.25226 216.216959,462.704715 216.341268,463.237965 C216.390455,463.44534 216.573789,463.585385 216.776797,463.585385 C216.81078,463.585385 216.844764,463.581794 216.878748,463.573715 C217.119317,463.51626 217.268667,463.275669 217.21322,463.034181 C217.034358,462.267522 216.569317,461.615772 215.903057,461.200124 C215.238585,460.785374 214.455171,460.657897 213.685171,460.833851 C213.445496,460.891306 213.296146,461.131897 213.351593,461.374283 C213.409724,461.613976 213.642244,461.765692 213.889967,461.709135 L213.889967,461.709135 Z M218.72013,462.403976 C218.967854,462.403976 219.167285,462.203783 219.167285,461.955113 C219.167285,461.247703 219.740537,460.67226 220.427366,460.671363 C220.436309,460.67226 220.515902,460.681238 220.52574,460.681238 C220.710862,460.710863 220.904927,460.569022 220.970211,460.381397 C221.149967,459.866101 221.632894,459.519578 222.171268,459.519578 C222.875984,459.519578 223.448341,460.095022 223.448341,460.802431 C223.448341,461.184863 223.274846,461.544851 222.97078,461.792624 C222.782081,461.946135 222.75078,462.223533 222.90013,462.416544 C223.078992,462.648158 223.173789,462.918374 223.173789,463.198465 C223.173789,463.905874 222.599642,464.482215 221.894927,464.482215 C221.648098,464.482215 221.447772,464.682408 221.447772,464.931078 C221.447772,465.178851 221.648098,465.379942 221.894927,465.379942 C223.093301,465.379942 224.068098,464.401419 224.068098,463.198465 C224.068098,462.851044 223.984927,462.513499 223.823951,462.206476 C224.157528,461.815067 224.34265,461.321317 224.34265,460.802431 C224.34265,459.600374 223.368748,458.621851 222.171268,458.621851 C221.363707,458.621851 220.631268,459.076999 220.258341,459.781715 C219.14761,459.877772 218.272976,460.815897 218.272976,461.955113 C218.272976,462.203783 218.473301,462.403976 218.72013,462.403976 L218.72013,462.403976 Z M234.046797,463.746078 C234.293626,463.746078 234.493951,463.545885 234.493951,463.297215 C234.493951,463.049442 234.293626,462.848351 234.046797,462.848351 C232.920862,462.848351 232.005089,461.929078 232.005089,460.79884 C232.005089,460.551067 231.804764,460.349976 231.557935,460.349976 C231.319154,460.349976 231.128667,460.538499 231.115252,460.775499 C230.642163,460.448726 230.071593,460.254817 229.455415,460.254817 C229.208585,460.254817 229.00826,460.45501 229.00826,460.703681 C229.00826,460.951453 229.208585,461.152544 229.455415,461.152544 C230.58135,461.152544 231.497122,462.071817 231.497122,463.202056 C231.497122,463.813408 231.219886,464.389749 230.735171,464.784749 C230.546472,464.93826 230.515171,465.215658 230.66452,465.408669 C230.948911,465.777635 231.100049,466.209442 231.100049,466.658306 C231.100049,466.906976 231.300374,467.107169 231.547203,467.107169 C231.794033,467.107169 231.994358,466.906976 231.994358,466.658306 C231.994358,466.143908 231.859317,465.647465 231.600862,465.199499 C232.10078,464.663556 232.382488,463.965124 232.389642,463.228988 C232.861837,463.553965 233.431512,463.746078 234.046797,463.746078 L234.046797,463.746078 Z M296.615333,467.955522 C296.615333,467.441124 296.480293,466.943783 296.220943,466.497613 C296.728016,465.952692 297.012407,465.244385 297.012407,464.499272 C297.012407,462.874385 295.695984,461.552033 294.07639,461.552033 C292.835984,461.552033 291.726146,462.347419 291.31387,463.529726 C291.231593,463.764033 291.355008,464.019885 291.588423,464.101578 C291.823626,464.185965 292.076715,464.060283 292.158098,463.825976 C292.445171,463.00276 293.216065,462.44976 294.07639,462.44976 C295.202325,462.44976 296.118098,463.369033 296.118098,464.499272 C296.118098,465.109726 295.840862,465.686965 295.356146,466.082863 C295.167447,466.237272 295.136146,466.513772 295.285496,466.705885 C295.569886,467.073953 295.721024,467.506658 295.721024,467.955522 C295.721024,469.08576 294.805252,470.005033 293.679317,470.005033 C292.775171,470.005033 291.972081,469.389192 291.723463,468.508522 C291.675171,468.334363 291.525821,468.205988 291.346065,468.18534 C290.319398,468.061453 289.545821,467.191556 289.545821,466.161863 C289.545821,465.913192 289.345496,465.712999 289.098667,465.712999 C288.850943,465.712999 288.651512,465.913192 288.651512,466.161863 C288.651512,467.026374 289.028911,467.810988 289.634358,468.351419 C289.341024,468.125192 289.007447,467.949238 288.64078,467.845101 C288.293789,466.323453 286.81013,465.330567 285.26387,465.601681 C283.807041,465.862022 282.77322,467.181681 282.859967,468.671908 C282.874276,468.917885 283.085333,469.124363 283.332163,469.092942 C283.578992,469.079476 283.767691,468.865817 283.752488,468.618942 C283.692569,467.583863 284.408911,466.665488 285.420374,466.485044 C286.533789,466.292931 287.591756,467.03176 287.789398,468.16559 C287.790293,468.179056 287.795659,468.257158 287.797447,468.268828 C287.821593,468.467226 287.972732,468.626124 288.16948,468.657544 C289.027122,468.796692 289.704114,469.462806 289.855252,470.312953 C289.893707,470.530203 290.082407,470.682817 290.295252,470.682817 C290.321187,470.682817 290.347122,470.680124 290.373951,470.675635 C290.617203,470.632544 290.779967,470.399135 290.736146,470.154953 C290.613626,469.468192 290.25322,468.866715 289.742569,468.43401 C290.089561,468.715897 290.499154,468.92776 290.955252,469.027408 C291.391675,470.144181 292.473789,470.90276 293.679317,470.90276 C295.298016,470.90276 296.615333,469.580408 296.615333,467.955522 L296.615333,467.955522 Z M226.966553,461.91651 C225.346959,461.91651 224.030537,463.238863 224.030537,464.863749 C224.030537,465.112419 224.229967,465.312613 224.477691,465.312613 C224.72452,465.312613 224.924846,465.112419 224.924846,464.863749 C224.924846,463.734408 225.840618,462.814238 226.966553,462.814238 C227.213382,462.814238 227.413707,462.614044 227.413707,462.365374 C227.413707,462.117601 227.213382,461.91651 226.966553,461.91651 L226.966553,461.91651 Z M225.796797,453.713976 C226.097285,453.888135 226.429073,453.984192 226.775171,453.999453 C226.945984,454.485124 227.279561,454.892692 227.726715,455.151238 C228.067447,455.349635 228.440374,455.442999 228.809724,455.442999 C229.560049,455.442999 230.292488,455.053385 230.694033,454.354056 C231.152813,453.556874 231.056228,452.548726 230.454358,451.845806 C230.295171,451.657283 230.012569,451.637533 229.82387,451.798226 C229.636959,451.958919 229.615496,452.242601 229.777366,452.431124 C230.131512,452.844976 230.189642,453.437476 229.920455,453.905192 C229.567203,454.517442 228.782,454.726613 228.17387,454.373806 C227.84387,454.183488 227.620293,453.852226 227.558585,453.46351 C227.519236,453.222022 227.290293,453.060431 227.055984,453.090056 C226.764439,453.128658 226.487203,453.07659 226.244846,452.935647 C225.948829,452.765078 225.737772,452.488578 225.649236,452.157317 C225.561593,451.826056 225.607203,451.480431 225.777122,451.184181 C226.060618,450.693124 226.643707,450.44984 227.198179,450.588988 C227.375252,450.635669 227.558585,450.569238 227.665902,450.423806 C228.054927,449.902226 228.767691,449.754101 229.321268,450.076385 C229.53322,450.201169 229.807772,450.127556 229.931187,449.912101 C230.055496,449.698442 229.982163,449.42284 229.768423,449.299851 C228.902732,448.796226 227.819724,448.964101 227.135577,449.667022 C226.29135,449.570965 225.437285,449.980328 225.003545,450.735317 C224.712894,451.23984 224.635984,451.826953 224.786228,452.389828 C224.936472,452.952703 225.295089,453.422215 225.796797,453.713976 L225.796797,453.713976 Z M249.720455,471.675703 C248.207285,471.549124 247.017854,472.691033 246.94452,474.124703 C246.885496,473.964908 246.83452,473.803317 246.747772,473.653397 C247.254846,473.109374 247.539236,472.401067 247.539236,471.655953 C247.539236,471.298658 247.465902,470.961113 247.349642,470.644215 C247.827203,470.982658 248.403138,471.189135 249.030943,471.189135 C249.466472,471.189135 249.877854,471.087692 250.25078,470.915328 C250.038829,471.137965 249.857285,471.391124 249.720455,471.675703 L249.720455,471.675703 Z M256.403626,465.519988 C256.49574,465.536147 256.595902,465.525374 256.685333,465.480488 C256.81948,465.413158 256.910699,465.282988 256.92948,465.133067 C257.042163,464.208408 257.864033,463.564738 258.771756,463.647328 C259.700049,463.740692 260.378829,464.574681 260.28761,465.505624 C260.275089,465.622328 260.247366,465.746215 260.199967,465.885363 C260.12574,466.104408 260.230374,466.345897 260.44322,466.43926 C261.253463,466.800147 261.739967,467.630544 261.652325,468.507624 C261.627285,468.753601 261.807041,468.974442 262.052081,468.998681 C262.296228,469.023817 262.518016,468.843374 262.541268,468.597397 C262.654846,467.462669 262.103951,466.382703 261.147935,465.798283 C261.160455,465.729158 261.170293,465.661828 261.176553,465.595397 C261.317854,464.171601 260.279561,462.897726 258.861187,462.754988 C257.582325,462.614044 256.460862,463.424692 256.123707,464.617772 C255.347447,464.646499 254.642732,464.990328 254.12761,465.525374 C254.050699,465.389817 253.911187,465.294658 253.744846,465.294658 C253.498016,465.294658 253.297691,465.495749 253.297691,465.743522 C253.297691,466.485044 252.696715,467.088317 251.957122,467.088317 C251.819398,467.088317 251.676309,467.062283 251.519805,467.007522 C251.358829,466.951863 251.177285,466.993158 251.058341,467.114351 C250.936715,467.236442 250.895577,467.416885 250.951024,467.579374 C251.033301,467.815476 251.07265,468.031828 251.07265,468.241897 C251.07265,469.372135 250.156878,470.291408 249.030943,470.291408 C247.912163,470.291408 246.999967,469.383806 246.989236,468.263442 C246.99013,468.254465 246.99013,468.246385 246.99013,468.237408 C246.99013,467.994124 246.796065,467.793931 246.551919,467.788544 C245.623626,467.768794 244.897447,467.025476 244.897447,466.096328 C244.897447,465.159999 245.654927,464.398726 246.587691,464.398726 C246.706634,464.398726 246.832732,464.413988 246.97135,464.447203 C247.201187,464.507351 247.425659,464.370897 247.498098,464.150953 C247.775333,463.304397 248.550699,462.736135 249.428016,462.736135 C249.67574,462.736135 249.875171,462.535942 249.875171,462.287272 C249.875171,462.039499 249.67574,461.838408 249.428016,461.838408 C248.293138,461.838408 247.277203,462.496442 246.793382,463.509976 C245.231919,463.371726 244.002244,464.598022 244.003138,466.096328 C244.003138,467.354044 244.921593,468.419647 246.121756,468.643181 C246.14948,468.850556 246.204927,469.047158 246.272894,469.237476 C245.798016,468.905317 245.22387,468.708715 244.60322,468.708715 C243.475496,468.708715 242.455089,469.365851 241.968585,470.373999 C240.416959,470.450306 239.177447,471.742135 239.177447,473.317647 C239.177447,473.566317 239.377772,473.76651 239.624602,473.76651 C239.872325,473.76651 240.071756,473.566317 240.071756,473.317647 C240.071756,472.190101 240.983951,471.271726 242.134033,471.271726 L242.141187,471.271726 C242.151919,471.273522 242.221675,471.281601 242.230618,471.282499 C242.431837,471.294169 242.617854,471.174772 242.684033,470.982658 C242.972,470.159442 243.742894,469.606442 244.60322,469.606442 C245.729154,469.606442 246.644927,470.525715 246.644927,471.655953 C246.644927,472.266408 246.366797,472.842749 245.882081,473.239544 C245.693382,473.393056 245.662081,473.670453 245.811431,473.862567 C246.096715,474.230635 246.247854,474.66334 246.247854,475.112203 C246.247854,475.359976 246.447285,475.561067 246.695008,475.561067 C246.941837,475.561067 247.142163,475.359976 247.142163,475.112203 C247.142163,474.932658 247.104602,474.761192 247.071512,474.587931 C247.152,474.66334 247.258423,474.710919 247.377366,474.710919 C247.625089,474.710919 247.82452,474.510726 247.82452,474.262056 C247.82452,473.325726 248.582894,472.565351 249.515659,472.565351 C249.634602,472.565351 249.759805,472.580613 249.899317,472.612931 C250.125577,472.673078 250.353626,472.537522 250.425171,472.316681 C250.702407,471.471022 251.477772,470.90276 252.355984,470.90276 C253.217203,470.90276 253.988098,471.457556 254.274276,472.282567 C254.344033,472.481863 254.532732,472.603056 254.747366,472.58151 C254.750049,472.580613 254.881512,472.566249 254.885089,472.565351 C255.623789,472.565351 256.225659,473.167726 256.225659,473.910147 C256.225659,474.157919 256.425089,474.35901 256.672813,474.35901 C256.919642,474.35901 257.119967,474.157919 257.119967,473.910147 C257.119967,472.70809 256.172,471.724181 254.987935,471.670317 C254.501431,470.661272 253.481919,470.005033 252.355984,470.005033 C251.931187,470.005033 251.525171,470.097499 251.155821,470.264476 C251.654846,469.735715 251.966959,469.02651 251.966959,468.241897 C251.966959,468.156613 251.962488,468.072226 251.954439,467.986044 L251.957122,467.986044 C252.469561,467.986044 252.935496,467.806499 253.312894,467.514738 C253.287854,469.030101 254.413789,470.344374 255.941268,470.49609 C256.027122,470.505067 256.114764,470.509556 256.201512,470.509556 C256.426878,470.509556 256.660293,470.479931 256.908016,470.421578 C257.147691,470.364124 257.296146,470.122635 257.239805,469.881147 C257.181675,469.640556 256.943789,469.486147 256.701431,469.54809 C256.457285,469.606442 256.238179,469.623499 256.031593,469.603749 C254.911024,469.491533 254.090943,468.485181 254.201837,467.360328 C254.310943,466.259715 255.29826,465.456249 256.403626,465.519988 L256.403626,465.519988 Z M242.078585,467.955522 C242.078585,467.706851 241.879154,467.506658 241.631431,467.506658 C241.384602,467.506658 241.184276,467.706851 241.184276,467.955522 C241.184276,469.08576 240.268504,470.005033 239.142569,470.005033 C238.239317,470.005033 237.435333,469.389192 237.188504,468.508522 C237.139317,468.334363 236.989967,468.205988 236.811106,468.18534 C235.783545,468.061453 235.009073,467.191556 235.009073,466.161863 C235.009073,465.031624 235.92574,464.112351 237.05078,464.112351 C237.298504,464.112351 237.497935,463.91126 237.497935,463.663488 C237.497935,463.414817 237.298504,463.214624 237.05078,463.214624 C235.432081,463.214624 234.114764,464.536078 234.114764,466.161863 C234.114764,467.548851 235.086878,468.733851 236.419398,469.027408 C236.498098,469.230294 236.60452,469.415226 236.722569,469.591181 C236.289724,469.098328 235.701268,468.787715 235.046634,468.721283 C233.782976,468.585726 232.649886,469.408942 232.310943,470.584965 C231.554358,470.612794 230.863057,470.938669 230.351512,471.450374 C230.226309,470.370408 229.342732,469.52026 228.247203,469.46909 C227.760699,468.460942 226.741187,467.804703 225.614358,467.804703 C224.47948,467.804703 223.46265,468.46184 222.978829,469.476272 C222.512,469.430488 222.076472,469.526544 221.688341,469.706988 C221.52826,468.231124 220.295008,467.074851 218.78452,467.074851 C217.656797,467.074851 216.63639,467.732885 216.149886,468.741033 C214.867447,468.803874 213.810374,469.702499 213.477691,470.900067 C212.943789,470.402726 212.238179,470.110067 211.490537,470.107374 C211.143545,469.462806 210.576553,468.977135 209.882569,468.731158 C209.141187,468.470817 208.346146,468.515703 207.637854,468.855044 C206.304439,469.497817 205.660537,471.047294 206.14078,472.458522 C206.221268,472.693726 206.478829,472.814919 206.708667,472.73951 C206.942081,472.658715 207.067285,472.40376 206.987691,472.169453 C206.65322,471.186442 207.09948,470.110067 208.025089,469.664794 C209.039236,469.174635 210.261756,469.606442 210.755415,470.64601 C210.759886,470.658578 210.785821,470.73309 210.790293,470.743863 C210.866309,470.927897 211.058585,471.037419 211.253545,471.018567 C212.109398,470.926101 212.947366,471.379453 213.318504,472.158681 C213.805902,473.177601 213.377528,474.404794 212.361593,474.893158 C212.139805,475.000885 212.045008,475.269306 212.152325,475.49284 C212.229236,475.653533 212.389317,475.747794 212.555659,475.747794 C212.620943,475.747794 212.686228,475.733431 212.749724,475.703806 C213.546553,475.319578 214.080455,474.61576 214.296878,473.819476 C214.740455,474.234226 215.305659,474.522397 215.948667,474.598703 C215.965659,474.601397 215.983545,474.602294 216.001431,474.602294 C216.224114,474.602294 216.417285,474.435317 216.444114,474.206397 C216.47452,473.960419 216.298341,473.736885 216.053301,473.708158 C215.026634,473.585169 214.253057,472.716169 214.253057,471.684681 C214.253057,470.556238 215.166146,469.63876 216.309967,469.63876 L216.316228,469.63876 C216.328748,469.640556 216.407447,469.649533 216.420862,469.649533 C216.588098,469.671078 216.799154,469.538215 216.865333,469.349692 C217.152407,468.526476 217.924195,467.972578 218.78452,467.972578 C219.909561,467.972578 220.826228,468.892749 220.826228,470.022988 C220.826228,470.155851 220.806553,470.286919 220.781512,470.415294 C220.556146,470.694488 220.388016,471.017669 220.291431,471.374067 C220.218992,471.453965 220.148341,471.535658 220.062488,471.604783 C219.873789,471.759192 219.842488,472.03659 219.991837,472.229601 C220.277122,472.598567 220.427366,473.030374 220.427366,473.479238 C220.427366,473.727908 220.627691,473.928101 220.87452,473.928101 C220.912081,473.928101 220.944276,473.915533 220.97826,473.908351 C221.420049,474.340158 222.009398,474.622942 222.664033,474.650772 C222.921593,474.678601 223.175577,474.473919 223.175577,474.203703 C223.175577,473.959522 222.981512,473.760226 222.73826,473.75484 C222.051431,473.739578 221.47639,473.327522 221.223301,472.73951 C221.216146,472.711681 221.202732,472.686544 221.194683,472.659613 C221.125821,472.473783 221.083789,472.27359 221.083789,472.061726 C221.083789,471.967465 221.096309,471.874999 221.111512,471.783431 C221.324358,471.50334 221.483545,471.191828 221.583707,470.857874 C221.889561,470.553544 222.31078,470.364124 222.774927,470.364124 C222.889398,470.364124 223.01639,470.380283 223.160374,470.413499 C223.383057,470.466465 223.612894,470.336294 223.684439,470.116351 C223.961675,469.270692 224.737041,468.702431 225.614358,468.702431 C226.475577,468.702431 227.247366,469.257226 227.533545,470.082238 C227.602407,470.280635 227.787528,470.400931 228.00574,470.381181 C228.009317,470.380283 228.139886,470.365022 228.143463,470.364124 C228.883057,470.364124 229.483138,470.968294 229.483138,471.709817 C229.483138,472.452238 228.883057,473.054613 228.143463,473.054613 C228.007528,473.054613 227.864439,473.028578 227.706146,472.973817 C227.545171,472.916363 227.36452,472.958556 227.244683,473.080647 C227.123057,473.202738 227.081919,473.383181 227.137366,473.544772 C227.219642,473.780874 227.258992,473.997226 227.258992,474.20909 C227.258992,474.456863 227.459317,474.657953 227.706146,474.657953 C227.95387,474.657953 228.153301,474.456863 228.153301,474.20909 C228.153301,474.123806 228.148829,474.038522 228.141675,473.95234 L228.143463,473.95234 C228.672,473.95234 229.15135,473.760226 229.535008,473.45051 C229.595821,473.598635 229.729073,473.711749 229.898992,473.727908 C230.159236,473.763817 230.364927,473.574397 230.388179,473.326624 C230.499073,472.202669 231.497122,471.381249 232.543463,471.47551 C232.801024,471.544635 233.083626,471.366885 233.115821,471.099363 C233.228504,470.174703 234.05574,469.537317 234.958098,469.613624 C235.407935,469.659408 235.813057,469.876658 236.099236,470.228567 C236.38452,470.579578 236.517772,471.02126 236.473057,471.471919 C236.460537,471.591317 236.432813,471.714306 236.386309,471.85076 C236.311187,472.070703 236.415821,472.312192 236.628667,472.406453 C237.439805,472.766442 237.926309,473.597738 237.838667,474.473919 C237.813626,474.719897 237.993382,474.93984 238.239317,474.964078 C238.253626,474.965874 238.269724,474.966772 238.284033,474.966772 C238.510293,474.966772 238.705252,474.794408 238.72761,474.562794 C238.841187,473.428965 238.290293,472.348999 237.333382,471.765476 C237.345902,471.697249 237.35574,471.629022 237.362,471.560794 C237.421919,470.955726 237.262732,470.365919 236.92826,469.866783 C237.472894,470.505067 238.273301,470.90276 239.142569,470.90276 C240.762163,470.90276 242.078585,469.580408 242.078585,467.955522 L242.078585,467.955522 Z M290.397203,473.295203 C289.156797,473.295203 288.046959,474.09059 287.634683,475.273794 C287.552407,475.508101 287.675821,475.763953 287.909236,475.845647 C287.957528,475.862703 288.00761,475.870783 288.056797,475.870783 C288.241919,475.870783 288.413626,475.754976 288.478016,475.570044 C288.765984,474.745931 289.536878,474.192931 290.397203,474.192931 C290.644033,474.192931 290.844358,473.99184 290.844358,473.744067 C290.844358,473.496294 290.644033,473.295203 290.397203,473.295203 L290.397203,473.295203 Z M280.878179,467.609897 C281.524764,466.777703 281.677691,465.656442 281.286878,464.68959 C281.469317,464.725499 281.655333,464.747942 281.845821,464.747942 C282.016634,464.747942 282.188341,464.732681 282.361837,464.702158 C282.605089,464.659067 282.767854,464.425658 282.724033,464.181476 C282.681106,463.937294 282.452163,463.778397 282.205333,463.817897 C281.099967,464.025272 280.034846,463.272976 279.836309,462.159794 C279.792488,461.914715 279.567122,461.759408 279.31761,461.796215 C279.075252,461.840203 278.912488,462.072715 278.956309,462.317794 C278.99387,462.532351 279.060943,462.732544 279.140537,462.926453 C278.454602,462.789101 277.720374,462.88426 277.073789,463.269385 C276.632894,463.531522 276.276959,463.902283 276.025659,464.35384 C275.701024,464.282022 275.371919,464.273044 275.049073,464.310749 C275.742163,463.771215 276.197366,462.936328 276.197366,461.989226 C276.197366,461.741453 275.997041,461.540363 275.750211,461.540363 C275.502488,461.540363 275.303057,461.741453 275.303057,461.989226 C275.303057,463.119465 274.38639,464.039635 273.26135,464.039635 C272.357203,464.039635 271.55322,463.423794 271.30639,462.542226 C271.257203,462.367169 271.107854,462.239692 270.928098,462.218147 C269.902325,462.095158 269.127854,461.226158 269.127854,460.194669 C269.127854,459.066226 270.040049,458.148749 271.184764,458.148749 L271.191024,458.148749 C271.204439,458.150544 271.283138,458.159522 271.295659,458.159522 C271.458423,458.179272 271.674846,458.048203 271.74013,457.859681 C272.028098,457.036465 272.798098,456.483465 273.658423,456.483465 C273.905252,456.483465 274.105577,456.282374 274.105577,456.034601 C274.105577,455.785931 273.905252,455.585738 273.658423,455.585738 C272.531593,455.585738 271.512081,456.242874 271.026472,457.251022 C269.473057,457.326431 268.233545,458.617363 268.233545,460.194669 C268.233545,461.582556 269.205659,462.768453 270.538179,463.061113 C270.973707,464.178783 272.054927,464.937363 273.26135,464.937363 C273.424114,464.937363 273.583301,464.914919 273.739805,464.888885 C273.678992,465.018158 273.675415,465.171669 273.75322,465.303635 C273.879317,465.518192 274.154764,465.587317 274.365821,465.460738 C274.889886,465.150124 275.524846,465.09626 276.111512,465.311715 C276.335089,465.396999 276.59265,465.282988 276.682081,465.055863 C276.852894,464.621363 277.145333,464.269453 277.529886,464.041431 C277.999398,463.762238 278.544927,463.684135 279.077935,463.818794 C279.605577,463.955249 280.049154,464.289203 280.328179,464.759613 C280.788748,465.539738 280.671593,466.546988 280.042,467.211306 C279.916797,467.342374 279.883707,467.536283 279.957041,467.702363 C280.375577,468.65126 280.025008,469.763544 279.141431,470.288715 C278.671919,470.567908 278.123707,470.646908 277.594276,470.511351 C277.066634,470.375794 276.621268,470.04184 276.335984,469.552578 C276.330618,469.54001 276.297528,469.465499 276.291268,469.453828 C276.17948,469.241965 275.937122,469.188999 275.718911,469.289544 C275.502488,469.391885 275.419317,469.679158 275.511431,469.899999 C275.51948,469.918851 275.564195,470.011317 275.574927,470.028374 C275.974683,470.706158 276.61322,471.186442 277.372488,471.381249 C277.61574,471.44409 277.86078,471.474613 278.104927,471.474613 C278.625415,471.474613 279.137854,471.334567 279.597528,471.061658 C280.786959,470.354249 281.307447,468.909806 280.878179,467.609897 L280.878179,467.609897 Z M288.359967,473.573499 C288.60322,473.52951 288.765984,473.296101 288.722163,473.052817 C288.678341,472.807738 288.444927,472.649738 288.203463,472.689238 C287.605171,472.79876 286.989886,472.623703 286.517691,472.213442 C286.332569,472.051851 286.056228,472.069806 285.893463,472.252044 C285.58135,472.599465 285.184276,472.823897 284.744276,472.902897 C284.501024,472.94509 284.33826,473.178499 284.382081,473.422681 C284.420537,473.640828 284.609236,473.793442 284.821187,473.793442 C284.848016,473.793442 284.873951,473.790749 284.899886,473.78626 C285.405171,473.696488 285.869317,473.475647 286.261919,473.140794 C286.883463,473.547465 287.628423,473.705465 288.359967,473.573499 L288.359967,473.573499 Z M281.125902,472.397476 C279.989236,472.397476 278.962569,473.065385 278.481431,474.088794 C278.314195,474.152533 278.200618,474.317715 278.200618,474.510726 C278.200618,474.758499 278.411675,474.961385 278.659398,474.961385 C278.67013,474.962283 278.744358,474.97126 278.755089,474.972158 C278.95452,474.991908 279.141431,474.863533 279.20761,474.672317 C279.494683,473.848203 280.265577,473.295203 281.125902,473.295203 C282.250943,473.295203 283.16761,474.214476 283.16761,475.344715 C283.16761,475.593385 283.367041,475.793578 283.614764,475.793578 C283.861593,475.793578 284.061919,475.593385 284.061919,475.344715 C284.061919,473.719828 282.744602,472.397476 281.125902,472.397476 L281.125902,472.397476 Z M238.444114,455.600101 L238.453951,455.600101 C238.696309,455.600101 238.89574,455.405294 238.901106,455.161113 C238.906472,454.91334 238.709724,454.70776 238.462894,454.702374 C237.917366,454.690703 237.409398,454.467169 237.032,454.072169 C236.654602,453.677169 236.452488,453.157385 236.464114,452.610669 C236.482894,451.703067 237.112488,450.909476 237.996065,450.679658 C238.170455,450.633874 238.301024,450.486647 238.326065,450.307101 C238.469154,449.279203 239.374195,448.531397 240.378504,448.542169 C241.504439,448.56551 242.400537,449.504533 242.374602,450.653624 C242.371919,450.66709 242.361187,450.747885 242.360293,450.761351 C242.343301,451.000147 242.522163,451.176999 242.759154,451.204828 C242.989886,451.229965 243.218829,451.03426 243.25639,450.79726 C243.259967,450.776613 243.270699,450.673374 243.271593,450.651828 C243.305577,449.02784 242.015089,447.678556 240.398179,447.644442 C240.376715,447.644442 240.357041,447.643544 240.336472,447.643544 C238.979805,447.643544 237.809154,448.586158 237.494358,449.897738 C236.372894,450.312488 235.594846,451.381681 235.569805,452.591817 C235.553707,453.379124 235.843463,454.125135 236.386309,454.692499 C236.929154,455.261658 237.659805,455.583942 238.444114,455.600101 L238.444114,455.600101 Z M301.43387,471.53476 C301.271106,470.818374 300.855252,470.198942 300.251593,469.775215 C299.608585,469.324556 298.827854,469.151294 298.056959,469.29134 C296.696715,469.535522 295.704033,470.702567 295.650374,472.070703 C294.630862,472.697317 294.077285,473.899374 294.288341,475.091556 C294.326797,475.308806 294.515496,475.461419 294.728341,475.461419 C294.754276,475.461419 294.780211,475.458726 294.807041,475.454238 C295.050293,475.411147 295.213057,475.178635 295.169236,474.933556 C295.010049,474.040317 295.473301,473.138101 296.294276,472.73951 C296.456146,472.66051 296.556309,472.49084 296.545577,472.309499 C296.485659,471.273522 297.202894,470.356044 298.214358,470.174703 C298.751837,470.079544 299.292,470.198044 299.740049,470.511351 C300.187203,470.824658 300.485902,471.295067 300.582488,471.859738 C300.583382,471.87051 300.587854,471.940533 300.588748,471.951306 C300.610211,472.153294 300.763138,472.315783 300.961675,472.347203 C301.820211,472.487249 302.498098,473.151567 302.649236,474.001715 C302.693057,474.245897 302.917528,474.404794 303.167935,474.364397 C303.411187,474.321306 303.573057,474.088794 303.529236,473.843715 C303.332488,472.730533 302.508829,471.838192 301.43387,471.53476 L301.43387,471.53476 Z M260.242894,470.467363 C259.986228,470.435942 259.777854,470.622669 259.753707,470.868647 C259.717935,471.225942 259.546228,471.549124 259.268992,471.777147 C258.991756,472.005169 258.644764,472.109306 258.287041,472.074294 C258.053626,472.042874 257.822894,472.228703 257.798748,472.475578 C257.772813,472.721556 257.951675,472.942397 258.198504,472.966635 C258.27452,472.974715 258.350537,472.979203 258.425659,472.979203 C258.938992,472.979203 259.43265,472.801453 259.835089,472.47109 C260.297447,472.091351 260.58452,471.55451 260.64265,470.958419 C260.667691,470.710647 260.487935,470.491601 260.242894,470.467363 L260.242894,470.467363 Z M263.708341,470.097499 C262.343626,469.951169 261.099642,470.94226 260.898423,472.296033 C260.887691,472.335533 260.881431,472.376828 260.881431,472.419022 C260.881431,472.641658 261.042407,472.82659 261.252569,472.862499 C261.507447,472.904692 261.746228,472.726044 261.776634,472.474681 C261.886634,471.565283 262.723707,470.901863 263.618911,470.98984 C264.547203,471.082306 265.225984,471.916294 265.134764,472.847238 C265.122244,472.96484 265.095415,473.086033 265.047122,473.227874 C264.967528,473.463078 265.093626,473.718033 265.327935,473.797033 C265.375333,473.812294 265.423626,473.820374 265.471024,473.820374 C265.657935,473.820374 265.831431,473.701874 265.894033,473.515147 C265.963789,473.310465 266.005821,473.121044 266.023707,472.93701 C266.165008,471.512317 265.126715,470.238442 263.708341,470.097499 L263.708341,470.097499 Z M273.264033,470.084033 C272.137203,470.084033 271.116797,470.741169 270.631187,471.749317 C269.078667,471.824726 267.83826,473.116556 267.83826,474.693863 C267.83826,474.941635 268.038585,475.142726 268.285415,475.142726 C268.533138,475.142726 268.732569,474.941635 268.732569,474.693863 C268.732569,473.565419 269.644764,472.647044 270.794846,472.647044 L270.802894,472.647044 C270.811837,472.64884 270.882488,472.656919 270.89322,472.657817 C271.089073,472.676669 271.279561,472.549192 271.34574,472.357976 C271.632813,471.53476 272.403707,470.98176 273.264033,470.98176 C274.389073,470.98176 275.30574,471.901033 275.30574,473.031272 C275.30574,473.641726 275.02761,474.218067 274.542894,474.614863 C274.351512,474.771067 274.322,475.053851 274.478504,475.245965 C274.567041,475.35459 274.695821,475.411147 274.825496,475.411147 C274.924764,475.411147 275.024033,475.377931 275.107203,475.310601 C275.801187,474.744135 276.200049,473.913738 276.200049,473.031272 C276.200049,471.406385 274.882732,470.084033 273.264033,470.084033 L273.264033,470.084033 Z M229.018992,458.653272 C229.018992,458.901044 229.219317,459.102135 229.466146,459.102135 C229.712976,459.102135 229.913301,458.901044 229.913301,458.653272 C229.913301,457.716942 230.671675,456.955669 231.604439,456.955669 C231.722488,456.955669 231.848585,456.970931 231.987203,457.004147 C232.215252,457.061601 232.442407,456.92784 232.513951,456.707897 C232.791187,455.86134 233.566553,455.293078 234.44387,455.293078 C235.305089,455.293078 236.076878,455.847874 236.363951,456.672885 C236.431024,456.867692 236.615252,456.988885 236.828992,456.971828 C236.833463,456.970931 236.968504,456.956567 236.972976,456.955669 C237.712569,456.955669 238.314439,457.558942 238.314439,458.300465 C238.314439,459.041988 237.712569,459.64526 236.972976,459.64526 C236.726146,459.64526 236.525821,459.846351 236.525821,460.094124 C236.525821,460.341897 236.726146,460.542988 236.972976,460.542988 C238.205333,460.542988 239.208748,459.536635 239.208748,458.300465 C239.208748,457.098408 238.261675,456.114499 237.076715,456.060635 C236.591106,455.052488 235.571593,454.395351 234.44387,454.395351 C233.308992,454.395351 232.293057,455.053385 231.809236,456.066919 C231.73948,456.060635 231.671512,456.057942 231.604439,456.057942 C230.178911,456.057942 229.018992,457.222294 229.018992,458.653272 L229.018992,458.653272 Z M276.013138,451.396942 C274.459724,451.258692 273.222894,452.48409 273.222,453.983294 C273.222,454.231965 273.421431,454.432158 273.669154,454.432158 C273.915984,454.432158 274.116309,454.231965 274.116309,453.983294 C274.116309,453.046965 274.874683,452.285692 275.807447,452.285692 C275.924602,452.285692 276.047122,452.300953 276.192,452.335067 C276.421837,452.388033 276.645415,452.25876 276.717854,452.037919 C276.994195,451.19226 277.770455,450.623999 278.646878,450.623999 C278.893707,450.623999 279.094033,450.423806 279.094033,450.175135 C279.094033,449.927363 278.893707,449.726272 278.646878,449.726272 C277.512894,449.726272 276.496959,450.384306 276.013138,451.396942 L276.013138,451.396942 Z M271.105171,447.935306 L271.114114,447.935306 C271.357366,447.935306 271.555902,447.740499 271.561268,447.496317 C271.566634,447.247647 271.37078,447.042965 271.123951,447.037578 C270.195659,447.017828 269.468585,446.273613 269.468585,445.344465 C269.468585,444.408135 270.226959,443.64776 271.159724,443.64776 C271.406553,443.64776 271.606878,443.446669 271.606878,443.198897 C271.606878,442.950226 271.406553,442.750033 271.159724,442.750033 C269.734195,442.750033 268.574276,443.914385 268.574276,445.344465 C268.574276,446.742226 269.710049,447.904783 271.105171,447.935306 L271.105171,447.935306 Z M273.602081,450.438169 C275.221675,450.438169 276.538992,449.115817 276.538992,447.490931 C276.538992,447.405647 276.53452,447.320363 276.526472,447.235078 L276.529154,447.235078 C277.761512,447.235078 278.764033,446.228726 278.764033,444.992556 C278.764033,443.790499 277.816959,442.80659 276.632,442.752726 C276.14639,441.744578 275.127772,441.087442 274.000049,441.087442 C273.752325,441.087442 273.552894,441.288533 273.552894,441.536306 C273.552894,441.784078 273.752325,441.985169 274.000049,441.985169 C274.861268,441.985169 275.632163,442.539067 275.919236,443.364976 C275.987203,443.559783 276.163382,443.679181 276.385171,443.663919 C276.389642,443.663022 276.523789,443.648658 276.529154,443.64776 C277.267854,443.64776 277.869724,444.251033 277.869724,444.992556 C277.869724,445.734078 277.267854,446.337351 276.529154,446.337351 C276.391431,446.337351 276.248341,446.310419 276.091837,446.256556 C275.930862,446.199101 275.750211,446.241294 275.62948,446.363385 C275.507854,446.485476 275.466715,446.665919 275.523057,446.828408 C275.605333,447.063613 275.644683,447.280863 275.644683,447.490931 C275.644683,448.621169 274.728016,449.540442 273.602081,449.540442 C273.355252,449.540442 273.154927,449.741533 273.154927,449.989306 C273.154927,450.237078 273.355252,450.438169 273.602081,450.438169 L273.602081,450.438169 Z M278.249805,458.179272 C278.002081,458.179272 277.80265,458.380363 277.80265,458.628135 C277.80265,458.876806 278.002081,459.076999 278.249805,459.076999 C279.868504,459.076999 281.185821,457.755544 281.185821,456.12976 C281.185821,456.044476 281.18135,455.96009 281.173301,455.873908 L281.176878,455.873908 C282.408341,455.873908 283.410862,454.867556 283.410862,453.631385 C283.410862,452.394317 282.408341,451.387965 281.176878,451.387965 C281.114276,451.387965 281.053463,451.395147 280.944358,451.408613 C280.699317,451.433749 280.519561,451.652794 280.542813,451.899669 C280.567854,452.146544 280.79322,452.323397 281.032,452.302749 C281.037366,452.301851 281.170618,452.28659 281.176878,452.285692 C281.915577,452.285692 282.516553,452.889863 282.516553,453.631385 C282.516553,454.372908 281.915577,454.976181 281.176878,454.976181 C281.040049,454.976181 280.896959,454.950147 280.740455,454.894488 C280.577691,454.837931 280.398829,454.879226 280.278098,455.000419 C280.157366,455.121613 280.115333,455.302056 280.17078,455.464544 C280.252163,455.702442 280.291512,455.92059 280.291512,456.12976 C280.291512,457.259999 279.37574,458.179272 278.249805,458.179272 L278.249805,458.179272 Z M288.358179,450.175135 C288.358179,450.423806 288.558504,450.623999 288.805333,450.623999 C289.931268,450.623999 290.847935,451.544169 290.847935,452.67351 C290.847935,453.284863 290.569805,453.861203 290.085089,454.255306 C289.89639,454.409715 289.865089,454.687113 290.014439,454.879226 C290.298829,455.24909 290.449967,455.680897 290.449967,456.12976 C290.449967,456.377533 290.650293,456.578624 290.897122,456.578624 C291.144846,456.578624 291.344276,456.377533 291.344276,456.12976 C291.344276,455.615363 291.209236,455.118022 290.95078,454.670953 C291.456959,454.127828 291.742244,453.418624 291.742244,452.67351 C291.742244,451.048624 290.424927,449.726272 288.805333,449.726272 C288.558504,449.726272 288.358179,449.927363 288.358179,450.175135 L288.358179,450.175135 Z M239.540537,461.552033 C239.292813,461.552033 239.093382,461.753124 239.093382,462.000897 C239.093382,462.248669 239.292813,462.44976 239.540537,462.44976 C240.665577,462.44976 241.582244,463.369033 241.582244,464.499272 C241.582244,464.747942 241.781675,464.948135 242.029398,464.948135 C242.276228,464.948135 242.476553,464.747942 242.476553,464.499272 C242.476553,462.874385 241.159236,461.552033 239.540537,461.552033 L239.540537,461.552033 Z M283.435008,443.772544 C283.643382,443.895533 283.920618,443.823715 284.044927,443.609158 C284.329317,443.118101 284.909724,442.875715 285.465984,443.014863 C285.643057,443.059749 285.825496,442.994215 285.934602,442.848783 C286.322732,442.328101 287.035496,442.180874 287.589073,442.500465 C287.885089,442.672828 288.097041,442.949328 288.184683,443.279692 C288.27322,443.611851 288.22761,443.956578 288.064846,444.241158 C288.061268,444.246544 288.015659,444.308488 288.012081,444.313874 C287.901187,444.480851 287.913707,444.70259 288.045171,444.855203 C288.399317,445.269056 288.457447,445.861556 288.187366,446.330169 C288.017447,446.627317 287.742,446.839181 287.412,446.928056 C287.081106,447.014238 286.736797,446.970249 286.442569,446.799681 C286.229724,446.67759 285.955171,446.749408 285.831756,446.963965 C285.708341,447.178522 285.781675,447.453226 285.995415,447.577113 C286.329886,447.771022 286.701024,447.870669 287.077528,447.870669 C287.266228,447.870669 287.456715,447.844635 287.643626,447.79526 C288.204358,447.644442 288.672976,447.282658 288.961837,446.779033 C289.365171,446.07701 289.34013,445.212499 288.918016,444.53651 C289.136228,444.071488 289.182732,443.549908 289.048585,443.048078 C288.898341,442.486101 288.539724,442.014794 288.036228,441.723931 C287.17322,441.222999 286.088423,441.389078 285.404276,442.091999 C284.557366,441.998635 283.705089,442.406203 283.27135,443.160294 C283.147041,443.373953 283.220374,443.649556 283.435008,443.772544 L283.435008,443.772544 Z M285.66452,463.605135 C285.421268,463.649124 285.259398,463.881635 285.30322,464.125817 C285.34078,464.343067 285.52948,464.495681 285.742325,464.495681 C285.76826,464.495681 285.794195,464.492988 285.821919,464.488499 C287.415577,464.203919 288.480699,462.669703 288.197203,461.069953 C287.999561,459.956772 287.175902,459.064431 286.101837,458.760999 C285.939073,458.044613 285.524114,457.423385 284.920455,457.001453 C284.276553,456.550794 283.498504,456.378431 282.724927,456.517578 C282.481675,456.560669 282.319805,456.793181 282.362732,457.03826 C282.405659,457.282442 282.634602,457.444033 282.881431,457.400942 C283.417122,457.304885 283.961756,457.424283 284.408911,457.73759 C284.856065,458.050897 285.15387,458.520408 285.250455,459.081488 C285.25135,459.094056 285.256715,459.172158 285.258504,459.183828 C285.281756,459.383124 285.433789,459.542022 285.630537,459.573442 C286.488179,459.71259 287.166065,460.376908 287.316309,461.227953 C287.513951,462.340238 286.772569,463.406738 285.66452,463.605135 L285.66452,463.605135 Z M286.316472,452.285692 C286.564195,452.285692 286.763626,452.084601 286.763626,451.836828 C286.763626,451.588158 286.564195,451.387965 286.316472,451.387965 C284.697772,451.387965 283.380455,452.710317 283.380455,454.336101 C283.380455,455.820044 284.49387,457.073272 285.970374,457.250124 C285.98826,457.252817 286.006146,457.253715 286.024033,457.253715 C286.246715,457.253715 286.439886,457.08584 286.466715,456.857817 C286.496228,456.61184 286.321837,456.388306 286.076797,456.359578 C285.049236,456.235692 284.274764,455.365794 284.274764,454.336101 C284.274764,453.204965 285.191431,452.285692 286.316472,452.285692 L286.316472,452.285692 Z M265.686553,455.062363 C264.659886,454.939374 263.885415,454.069476 263.885415,453.038885 C263.885415,451.908647 264.802081,450.988476 265.927122,450.988476 C266.174846,450.988476 266.374276,450.788283 266.374276,450.539613 C266.374276,450.29184 266.174846,450.090749 265.927122,450.090749 C264.308423,450.090749 262.991106,451.413101 262.991106,453.038885 C262.991106,454.426772 263.96322,455.611772 265.29574,455.904431 C265.732163,457.022101 266.813382,457.780681 268.018911,457.780681 C269.638504,457.780681 270.955821,456.458328 270.955821,454.833442 C270.955821,454.318147 270.819886,453.821703 270.561431,453.374635 C271.068504,452.830613 271.352894,452.122306 271.352894,451.376294 C271.352894,451.128522 271.152569,450.927431 270.90574,450.927431 C270.658911,450.927431 270.458585,451.128522 270.458585,451.376294 C270.458585,451.987647 270.180455,452.563988 269.69574,452.959885 C269.507041,453.113397 269.47574,453.389897 269.625089,453.582908 C269.910374,453.951874 270.061512,454.384578 270.061512,454.833442 C270.061512,455.962783 269.144846,456.882953 268.018911,456.882953 C267.115659,456.882953 266.311675,456.267113 266.064846,455.385544 C266.015659,455.211385 265.866309,455.08301 265.686553,455.062363 L265.686553,455.062363 Z M269.630455,467.903453 C269.719886,468.012078 269.847772,468.069533 269.978341,468.069533 C270.07761,468.069533 270.176878,468.037215 270.260049,467.96809 C270.954927,467.403419 271.352894,466.572124 271.352894,465.68876 C271.352894,464.063874 270.035577,462.741522 268.416878,462.741522 C267.280211,462.741522 266.253545,463.409431 265.772407,464.43284 C265.605171,464.496578 265.491593,464.66176 265.491593,464.854772 C265.491593,465.102544 265.70265,465.305431 265.94948,465.305431 C265.962894,465.307226 266.040699,465.315306 266.054114,465.315306 C266.217772,465.334158 266.433301,465.20309 266.498585,465.015465 C266.785659,464.192249 267.556553,463.639249 268.416878,463.639249 C269.541919,463.639249 270.458585,464.559419 270.458585,465.68876 C270.458585,466.300113 270.180455,466.877351 269.69574,467.271453 C269.504358,467.428556 269.474846,467.710442 269.630455,467.903453 L269.630455,467.903453 Z M247.142163,460.79884 C247.142163,460.148885 246.92574,459.525863 246.517041,458.998897 C246.364114,458.803192 246.082407,458.766385 245.89013,458.919897 C245.694276,459.07251 245.659398,459.354397 245.811431,459.550101 C246.096715,459.918169 246.247854,460.349976 246.247854,460.79884 C246.247854,461.929078 245.331187,462.848351 244.205252,462.848351 C243.302,462.848351 242.498016,462.233408 242.250293,461.35184 C242.201106,461.177681 242.051756,461.049306 241.872894,461.028658 C240.846228,460.904772 240.071756,460.035772 240.071756,459.005181 C240.071756,457.877635 240.983951,456.95926 242.134033,456.95926 L242.141187,456.95926 C242.151919,456.961056 242.221675,456.969135 242.230618,456.970033 C242.431837,456.985294 242.617854,456.861408 242.684033,456.670192 C242.972,455.846976 243.742894,455.293078 244.60322,455.293078 C244.850049,455.293078 245.050374,455.092885 245.050374,454.844215 C245.050374,454.596442 244.850049,454.395351 244.60322,454.395351 C243.475496,454.395351 242.455089,455.053385 241.968585,456.061533 C240.416959,456.13784 239.177447,457.428772 239.177447,459.005181 C239.177447,460.392169 240.149561,461.577169 241.481187,461.870726 C241.918504,462.988397 243.000618,463.746078 244.205252,463.746078 C245.824846,463.746078 247.142163,462.424624 247.142163,460.79884 L247.142163,460.79884 Z M245.71574,452.222851 C245.796228,452.341351 245.933057,452.412272 246.080618,452.412272 C246.115496,452.412272 246.151268,452.408681 246.187041,452.400601 C246.42761,452.344044 246.576959,452.091783 246.520618,451.850294 C246.518829,451.837726 246.51078,451.759624 246.508098,451.747056 C246.47322,451.550453 246.313138,451.400533 246.115496,451.379885 C245.250699,451.285624 244.538829,450.657215 244.344764,449.81784 C244.220455,449.283692 244.31078,448.734283 244.597854,448.26926 C244.885821,447.805135 245.336553,447.480158 245.867772,447.356272 C246.458911,447.216226 247.082244,447.357169 247.577691,447.740499 C247.769073,447.888624 248.04452,447.858101 248.198341,447.667783 C248.49078,447.305101 248.876228,447.059124 249.311756,446.958578 C249.841187,446.833794 250.389398,446.923567 250.853545,447.212635 C251.316797,447.502601 251.639642,447.955056 251.763951,448.488306 C251.969642,449.371669 251.554683,450.297226 250.756959,450.739806 C250.539642,450.859203 250.461837,451.13301 250.58078,451.349363 C250.700618,451.568408 250.975171,451.64651 251.188016,451.525317 C252.336309,450.889726 252.931024,449.556601 252.635008,448.284522 C252.456146,447.516965 251.991106,446.866113 251.324846,446.450465 C250.658585,446.035715 249.874276,445.90734 249.108748,446.084192 C248.609724,446.199999 248.157203,446.445976 247.782488,446.799681 C247.141268,446.428919 246.387366,446.311317 245.664764,446.480988 C244.901024,446.660533 244.251756,447.127351 243.837691,447.796158 C243.42452,448.464067 243.294846,449.254965 243.472813,450.020726 C243.730374,451.132113 244.612163,451.984953 245.71574,452.222851 L245.71574,452.222851 Z M252.821919,454.737385 C252.821919,454.986056 253.022244,455.186249 253.269073,455.186249 C254.395008,455.186249 255.31078,456.106419 255.31078,457.23576 C255.31078,457.846215 255.033545,458.424351 254.548829,458.819351 C254.36013,458.97376 254.328829,459.251158 254.478179,459.442374 C254.762569,459.81134 254.913707,460.243147 254.913707,460.69201 C254.913707,461.822249 253.997935,462.741522 252.872,462.741522 C251.967854,462.741522 251.164764,462.126578 250.917041,461.24501 C250.868748,461.070851 250.719398,460.942476 250.538748,460.921828 C249.512976,460.79884 248.738504,459.928942 248.738504,458.898351 C248.738504,458.650578 248.538179,458.449488 248.29135,458.449488 C248.043626,458.449488 247.844195,458.650578 247.844195,458.898351 C247.844195,460.286238 248.816309,461.471238 250.148829,461.763897 C250.584358,462.881567 251.665577,463.639249 252.872,463.639249 C254.490699,463.639249 255.808016,462.317794 255.808016,460.69201 C255.808016,460.177613 255.672976,459.680272 255.41452,459.234101 C255.920699,458.690078 256.205089,457.980874 256.205089,457.23576 C256.205089,456.478078 255.909967,455.792215 255.439561,455.269738 C255.632732,455.239215 255.786553,455.091988 255.814276,454.897181 C255.817854,454.874738 255.819642,454.850499 255.819642,454.828056 C255.819642,454.583874 255.625577,454.384578 255.381431,454.379192 C254.469236,454.358544 253.726959,453.599965 253.726959,452.686078 C253.726959,451.749749 254.486228,450.988476 255.418098,450.988476 C255.536146,450.988476 255.662244,451.004635 255.80265,451.037851 C256.032488,451.090817 256.256959,450.960647 256.328504,450.740703 C256.60574,449.895044 257.381106,449.326783 258.257528,449.326783 C259.119642,449.326783 259.890537,449.881578 260.176715,450.70659 C260.244683,450.904988 260.430699,451.024385 260.648911,451.005533 C260.652488,451.004635 260.783951,450.989374 260.787528,450.988476 C261.527122,450.988476 262.127203,451.591749 262.127203,452.333272 C262.127203,453.075692 261.527122,453.678965 260.787528,453.678965 C260.540699,453.678965 260.340374,453.880056 260.340374,454.127828 C260.340374,454.376499 260.540699,454.576692 260.787528,454.576692 C262.018992,454.576692 263.021512,453.57034 263.021512,452.333272 C263.021512,451.132113 262.075333,450.147306 260.890374,450.093442 C260.404764,449.085294 259.385252,448.429056 258.257528,448.429056 C257.123545,448.429056 256.106715,449.086192 255.623789,450.100624 C254.074846,449.954294 252.83265,451.188669 252.83265,452.686078 C252.83265,453.298328 253.058016,453.85851 253.419317,454.304681 C253.368341,454.301988 253.320943,454.288522 253.269073,454.288522 C253.022244,454.288522 252.821919,454.489613 252.821919,454.737385 L252.821919,454.737385 Z M246.933789,442.535476 C246.952569,442.538169 246.969561,442.539067 246.988341,442.539067 C247.211024,442.539067 247.404195,442.37209 247.431024,442.144067 C247.460537,441.897192 247.285252,441.673658 247.040211,441.644931 C246.398098,441.567726 245.913382,441.023703 245.913382,440.379135 C245.913382,439.671726 246.48574,439.095385 247.172569,439.094488 C247.182407,439.095385 247.262,439.10526 247.270943,439.10526 C247.476634,439.122317 247.65013,438.993044 247.715415,438.805419 C247.895171,438.290124 248.378098,437.943601 248.916472,437.943601 C249.621187,437.943601 250.194439,438.519044 250.194439,439.226453 C250.194439,439.474226 250.39387,439.675317 250.641593,439.675317 C250.888423,439.675317 251.088748,439.474226 251.088748,439.226453 C251.088748,438.024397 250.113951,437.045874 248.916472,437.045874 C248.109805,437.045874 247.376472,437.501022 247.003545,438.205738 C245.892813,438.301794 245.019073,439.239919 245.019073,440.379135 C245.019073,441.477953 245.841837,442.405306 246.933789,442.535476 L246.933789,442.535476 Z M260.448585,447.451431 C260.885902,448.569101 261.967122,449.326783 263.171756,449.326783 C263.41948,449.326783 263.618911,449.125692 263.618911,448.877919 C263.618911,448.629249 263.41948,448.429056 263.171756,448.429056 C262.269398,448.429056 261.465415,447.813215 261.217691,446.932544 C261.168504,446.758385 261.019154,446.63001 260.839398,446.609363 C259.813626,446.486374 259.039154,445.616476 259.039154,444.585885 C259.039154,443.455647 259.955821,442.535476 261.081756,442.535476 C261.328585,442.535476 261.528911,442.335283 261.528911,442.086613 C261.528911,441.83884 261.328585,441.637749 261.081756,441.637749 C259.462163,441.637749 258.144846,442.960101 258.144846,444.585885 C258.144846,445.972874 259.116959,447.158772 260.448585,447.451431 L260.448585,447.451431 Z M268.018911,472.093147 C268.266634,472.093147 268.466065,471.892953 268.466065,471.644283 C268.466065,471.39651 268.266634,471.195419 268.018911,471.195419 C267.115659,471.195419 266.311675,470.580476 266.064846,469.69801 C265.997772,469.461908 265.753626,469.323658 265.513057,469.388294 C265.275171,469.455624 265.137447,469.702499 265.203626,469.942192 C265.558667,471.208885 266.715902,472.093147 268.018911,472.093147 L268.018911,472.093147 Z M263.588504,461.832124 C263.405171,461.672328 263.127935,461.688488 262.965171,461.870726 C262.653057,462.217249 262.255984,462.442578 261.815984,462.521578 C261.282081,462.619431 260.737447,462.498238 260.289398,462.184033 C259.842244,461.870726 259.543545,461.401215 259.446959,460.861681 C259.289561,459.96934 259.751024,459.067124 260.572,458.668533 C260.734764,458.589533 260.834033,458.419863 260.823301,458.239419 C260.764276,457.201647 261.481512,456.284169 262.492976,456.103726 C262.612813,456.081283 262.734439,456.071408 262.855171,456.071408 C263.269236,456.071408 263.672569,456.197988 264.019561,456.441272 C264.466715,456.753681 264.765415,457.22409 264.861106,457.785169 C264.862,457.79684 264.867366,457.874942 264.869154,457.88751 C264.893301,458.085908 265.044439,458.243908 265.241187,458.276226 C266.098829,458.415374 266.776715,459.08059 266.927854,459.930738 C267.124602,461.043919 266.384114,462.110419 265.276065,462.308817 C264.679561,462.413851 264.062488,462.242385 263.588504,461.832124 L263.588504,461.832124 Z M265.432569,463.192181 C267.026228,462.907601 268.09135,461.373385 267.807854,459.773635 C267.610211,458.658658 266.786553,457.766317 265.712488,457.462885 C265.550618,456.747397 265.134764,456.127067 264.531106,455.704238 C263.888098,455.254476 263.10826,455.085703 262.335577,455.219465 C260.974439,455.463647 259.98265,456.632488 259.928098,457.999726 C258.90948,458.62634 258.355902,459.828397 258.566959,461.019681 C258.703789,461.795317 259.134846,462.46951 259.777854,462.920169 C260.275984,463.269385 260.85639,463.451624 261.452,463.451624 C261.624602,463.451624 261.798992,463.436363 261.973382,463.404942 C262.477772,463.315169 262.941919,463.094328 263.333626,462.760374 C263.955171,463.165249 264.701024,463.324147 265.431675,463.192181 L265.432569,463.192181 Z M263.570618,440.873783 C264.696553,440.873783 265.612325,441.793056 265.612325,442.923294 C265.612325,443.533749 265.333301,444.11009 264.848585,444.506885 C264.659886,444.661294 264.628585,444.937794 264.777935,445.129908 C265.06322,445.497976 265.214358,445.930681 265.214358,446.379544 C265.214358,446.627317 265.413789,446.828408 265.661512,446.828408 C265.908341,446.828408 266.108667,446.627317 266.108667,446.379544 C266.108667,445.864249 265.972732,445.367806 265.714276,444.921635 C266.222244,444.376715 266.506634,443.668408 266.506634,442.923294 C266.506634,441.29751 265.189317,439.976056 263.570618,439.976056 C263.322894,439.976056 263.123463,440.176249 263.123463,440.424919 C263.123463,440.672692 263.322894,440.873783 263.570618,440.873783 L263.570618,440.873783 Z" id="Fill-15" fill="#000"/>
        <path d="M305.510081,476 L204.489919,476 C204.218938,476 204,475.776557 204,475.5 C204,475.223443 204.218938,475 204.489919,475 L305.510081,475 C305.781062,475 306,475.223443 306,475.5 C306,475.776557 305.781062,476 305.510081,476" id="Fill-18" fill="#000"/>
        <path d="M313.110053,516 L268.890841,516 C267.847033,516 267,515.173197 267,514.153241 L267,511.846759 C267,510.825929 267.847033,510 268.890841,510 L313.110053,510 C314.154756,510 315,510.825929 315,511.846759 L315,514.153241 C315,515.173197 314.154756,516 313.110053,516" id="Fill-20" fill="#000"/>
        <path d="M303.33935,508 L301.774368,508 C301.407942,508 301.111913,508.283614 301.111913,508.633809 L301.111913,510 L304,510 L304,508.633809 C304,508.283614 303.703971,508 303.33935,508 M294.307762,508 L292.74278,508 C292.377256,508 292.080325,508.283614 292.080325,508.633809 L292.080325,510 L294.970217,510 L294.970217,508.633809 C294.970217,508.283614 294.673285,508 294.307762,508 M273.226534,508 L271.661552,508 C271.296029,508 271,508.283614 271,508.633809 L271,510 L273.888087,510 L273.888087,508.633809 C273.888087,508.283614 273.592058,508 273.226534,508" id="Fill-22" fill="#EC7068"/>
        <path d="M300,510 L295,510 L295,508.877648 C295,508.393428 295.403054,508 295.901101,508 L299.098899,508 C299.596946,508 300,508.393428 300,508.877648 L300,510 Z" id="Fill-24" fill="#83BB9E"/>
        <path d="M288.541458,509 L287.457795,509 C287.204344,509 286.999254,509.141884 286.999254,509.317224 C286.999254,509.141884 286.794164,509 286.541608,509 L285.457945,509 C285.204493,509 284.999403,509.141884 284.999403,509.317224 C284.999403,509.141884 284.794313,509 284.540861,509 L283.457198,509 C283.204642,509 283.000448,509.141884 283.000448,509.317224 C283.000448,509.141884 282.794462,509 282.541906,509 L281.458243,509 C281.204791,509 280.999701,509.141884 280.999701,509.317224 C280.999701,509.141884 280.794612,509 280.54116,509 L279.457497,509 C279.204941,509 278.999851,509.141884 278.999851,509.317224 C278.999851,509.141884 278.794761,509 278.542205,509 L277.457646,509 C277.20509,509 277,509.141884 277,509.317224 L277,510 L289,510 L289,509.317224 C289,509.141884 288.794014,509 288.541458,509" id="Fill-26" fill="#F1EFEF"/>
    </g>
</svg>
