<svg viewBox="175.551 432.15 154.898 83.85" xmlns="http://www.w3.org/2000/svg" overflow="visible">
    <g id="Master/Stickers/Plates Shelf" stroke="none" stroke-width="1" fill="none" fill-rule="evenodd">
        <path d="M284.211,446.7276 C281.357,446.7276 276.732,459.6856 273.879,475.6696 C271.025,491.6546 271.025,504.6116 273.879,504.6116 C276.732,504.6116 281.357,491.6546 284.211,475.6696 C287.064,459.6856 287.064,446.7276 284.211,446.7276 M266.879,446.7276 C264.025,446.7276 259.399,459.6856 256.547,475.6696 C253.693,491.6546 253.693,504.6116 256.547,504.6116 C259.399,504.6116 264.025,491.6546 266.879,475.6696 C269.732,459.6856 269.732,446.7276 266.879,446.7276 M249.547,446.7276 C246.693,446.7276 242.067,459.6856 239.214,475.6696 C236.361,491.6546 236.361,504.6116 239.214,504.6116 C242.067,504.6116 246.693,491.6546 249.547,475.6696 C252.399,459.6856 252.399,446.7276 249.547,446.7276 M232.214,446.7276 C229.361,446.7276 224.735,459.6856 221.882,475.6696 C219.029,491.6546 219.029,504.6116 221.882,504.6116 C224.735,504.6116 229.361,491.6546 232.214,475.6696 C235.067,459.6856 235.067,446.7276 232.214,446.7276" id="Plates" fill="#83BB9E"/>
        <path d="M315.5479,457.482 L314.8389,457.275 C310.8419,456.111 308.5459,451.927 309.7099,447.931 L313.4759,435 L328.6579,439.422 L324.8929,452.353 C323.7289,456.349 319.5449,458.646 315.5479,457.482" id="Fill-3" fill="#E2A2B5"/>
        <polygon id="Shelf" fill="#94B1EB" points="178 515.6484 320.14 515.6484 320.14 504.6114 178 504.6114"/>
        <path d="M282.9063,498.8829 C282.9063,501.7539 280.5713,504.0889 277.7013,504.0889 L275.6193,504.0889 C278.1013,501.3409 280.8063,493.3869 282.9063,484.4539 L282.9063,498.8829 Z M285.4163,446.8449 C284.9883,446.3349 284.5243,446.2279 284.2103,446.2279 C283.9333,446.2279 283.7103,446.4509 283.7103,446.7279 C283.7103,447.0039 283.9333,447.2279 284.2103,447.2279 C284.3053,447.2279 284.4543,447.2549 284.6483,447.4869 C286.2813,449.4359 286.5093,459.9449 283.7183,475.5819 C280.7813,492.0419 276.3183,503.6099 274.0243,504.0889 L267.9563,504.0889 L267.9563,481.0059 C267.9563,480.7299 267.7323,480.5059 267.4563,480.5059 C267.1793,480.5059 266.9563,480.7299 266.9563,481.0059 L266.9563,504.0889 L258.2873,504.0889 C261.5603,500.4659 265.2223,487.7929 267.3703,475.7579 C269.9493,461.3129 270.2423,449.4229 268.0843,446.8449 C267.6563,446.3349 267.1923,446.2279 266.8783,446.2279 C266.6013,446.2279 266.3783,446.4509 266.3783,446.7279 C266.3783,447.0039 266.6013,447.2279 266.8783,447.2279 C266.9733,447.2279 267.1223,447.2549 267.3163,447.4869 C268.9493,449.4359 269.1773,459.9449 266.3853,475.5819 C263.4493,492.0419 258.9863,503.6099 256.6923,504.0889 L250.3853,504.0889 L250.3853,481.0059 C250.3853,480.7299 250.1613,480.5059 249.8853,480.5059 C249.6083,480.5059 249.3853,480.7299 249.3853,481.0059 L249.3853,504.0889 L240.9553,504.0889 C244.2283,500.4659 247.8903,487.7929 250.0383,475.7579 C252.6173,461.3129 252.9103,449.4229 250.7523,446.8449 C250.3243,446.3349 249.8603,446.2279 249.5463,446.2279 C249.2693,446.2279 249.0463,446.4509 249.0463,446.7279 C249.0463,447.0039 249.2693,447.2279 249.5463,447.2279 C249.6413,447.2279 249.7903,447.2549 249.9843,447.4869 C251.6173,449.4359 251.8443,459.9449 249.0533,475.5819 C246.1173,492.0419 241.6543,503.6099 239.3603,504.0889 L232.8133,504.0889 L232.8133,481.0059 C232.8133,480.7299 232.5903,480.5059 232.3133,480.5059 C232.0373,480.5059 231.8133,480.7299 231.8133,481.0059 L231.8133,504.0889 L223.6233,504.0889 C226.8963,500.4659 230.5583,487.7929 232.7063,475.7579 C235.2853,461.3129 235.5783,449.4229 233.4203,446.8449 C232.9923,446.3349 232.5283,446.2279 232.2143,446.2279 C231.9373,446.2279 231.7143,446.4509 231.7143,446.7279 C231.7143,447.0039 231.9373,447.2279 232.2143,447.2279 C232.3093,447.2279 232.4583,447.2549 232.6523,447.4869 C234.2853,449.4359 234.5123,459.9449 231.7213,475.5819 C228.7853,492.0419 224.3223,503.6099 222.0283,504.0889 L215.2423,504.0889 L215.2423,481.0059 C215.2423,480.7299 215.0183,480.5059 214.7423,480.5059 C214.4663,480.5059 214.2423,480.7299 214.2423,481.0059 L214.2423,504.0889 L197.6713,504.0889 L197.6713,481.0059 C197.6713,480.7299 197.4473,480.5059 197.1713,480.5059 C196.8943,480.5059 196.6713,480.7299 196.6713,481.0059 L196.6713,504.0889 L186.9263,504.0889 C184.0553,504.0889 181.7203,501.7539 181.7203,498.8829 L181.7203,481.0059 C181.7203,480.7169 181.4863,480.4829 181.1973,480.4829 C180.9083,480.4829 180.6743,480.7169 180.6743,481.0059 L180.6743,498.8829 C180.6743,502.3299 183.4783,505.1349 186.9263,505.1349 L277.7013,505.1349 C281.1483,505.1349 283.9533,502.3299 283.9533,498.8829 L283.9533,482.2639 C283.9533,482.0049 283.7613,481.7999 283.5153,481.7579 C283.9463,479.7699 284.3453,477.7559 284.7023,475.7579 C287.2813,461.3129 287.5743,449.4229 285.4163,446.8449 L285.4163,446.8449 Z M274.4723,499.7809 C274.5413,499.8139 274.6133,499.8289 274.6843,499.8289 C274.8723,499.8289 275.0523,499.7219 275.1373,499.5409 C276.0613,497.5709 279.2823,489.9959 281.9123,475.2589 C284.3573,461.5589 284.0543,453.9719 283.9043,451.9729 C283.8833,451.6979 283.6523,451.4879 283.3673,451.5119 C283.0923,451.5329 282.8853,451.7729 282.9063,452.0489 C283.0553,454.0179 283.3523,461.4989 280.9273,475.0839 C278.3193,489.6999 275.1433,497.1739 274.2313,499.1159 C274.1143,499.3659 274.2223,499.6639 274.4723,499.7809 L274.4723,499.7809 Z M257.1383,499.7809 C257.2083,499.8139 257.2803,499.8289 257.351291,499.8289 C257.5393,499.8289 257.7193,499.7219 257.8033,499.5409 C258.7283,497.5729 261.9473,490.0039 264.5803,475.2589 C267.0263,461.5549 266.7223,453.9709 266.5713,451.9729 C266.5503,451.6979 266.2993,451.4879 266.0343,451.5119 C265.7593,451.5329 265.5523,451.7729 265.5733,452.0489 C265.7223,454.0169 266.0213,461.4949 263.5953,475.0839 C260.9843,489.7079 257.8093,497.1759 256.8993,499.1159 C256.7813,499.3659 256.8883,499.6639 257.1383,499.7809 L257.1383,499.7809 Z M239.8063,499.7809 C239.8763,499.8139 239.9483,499.8289 240.019291,499.8289 C240.2073,499.8289 240.3863,499.7219 240.4713,499.5409 C241.3963,497.5729 244.6153,490.0039 247.2483,475.2589 C249.6943,461.5549 249.3903,453.9709 249.2393,451.9729 C249.2183,451.6979 248.9663,451.4879 248.7023,451.5119 C248.4273,451.5329 248.2203,451.7729 248.2413,452.0489 C248.3903,454.0169 248.6893,461.4949 246.2633,475.0839 C243.6523,489.7079 240.4773,497.1759 239.5673,499.1159 C239.4493,499.3659 239.5563,499.6639 239.8063,499.7809 L239.8063,499.7809 Z M222.4743,499.7809 C222.5443,499.8139 222.6163,499.8289 222.687291,499.8289 C222.8753,499.8289 223.0543,499.7219 223.1393,499.5409 C224.0643,497.5729 227.2833,490.0039 229.9163,475.2589 C232.3623,461.5549 232.0583,453.9709 231.9073,451.9729 C231.8853,451.6979 231.6323,451.4879 231.3703,451.5119 C231.0943,451.5329 230.8883,451.7729 230.9093,452.0489 C231.0583,454.0169 231.3573,461.4949 228.9313,475.0839 C226.3203,489.7079 223.1453,497.1759 222.2353,499.1159 C222.1173,499.3659 222.2243,499.6639 222.4743,499.7809 L222.4743,499.7809 Z" id="Fill-8" fill="#000"/>
        <path d="M306.5079,504.6119 L305.1689,504.6119 C298.2519,504.6119 292.6449,499.0049 292.6449,492.0869 L292.6449,475.6699 L319.0319,475.6699 L319.0319,492.0869 C319.0319,499.0049 313.4249,504.6119 306.5079,504.6119" id="Pot" fill="#EC7068"/>
        <path d="M311.3956,447.0636 C311.9766,453.8916 308.4876,459.7636 303.6006,460.1806 C298.7136,460.5966 294.2806,455.3986 293.6996,448.5706 C293.1176,441.7426 296.6076,435.8706 301.4946,435.4546 C306.3806,435.0376 310.8136,440.2356 311.3956,447.0636" id="Fill-10" fill="#94B1EB"/>
        <path d="M319.0323,475.1715 L310.6573,475.1715 L317.8293,450.5465 C317.9063,450.2825 317.7553,450.0055 317.4903,449.9285 C317.2243,449.8505 316.9493,450.0035 316.8723,450.2675 L309.6193,475.1715 L305.4023,475.1715 L302.9843,446.7785 C302.9603,446.4895 302.6833,446.2885 302.4193,446.3015 C302.1313,446.3265 301.9173,446.5795 301.9413,446.8675 L304.3523,475.1715 L292.6443,475.1715 C292.3693,475.1715 292.1453,475.3945 292.1453,475.6705 C292.1453,475.9455 292.3693,476.1685 292.6443,476.1685 L304.7883,476.1685 C304.8313,476.1795 304.8733,476.1935 304.9193,476.1935 C304.9343,476.1935 304.9493,476.1925 304.9643,476.1915 C304.9923,476.1895 305.0153,476.1755 305.0423,476.1685 L309.9903,476.1685 C309.9913,476.1685 309.9923,476.1695 309.9933,476.1695 C309.9943,476.1695 309.9943,476.1685 309.9943,476.1685 L319.0323,476.1685 C319.3073,476.1685 319.5313,475.9455 319.5313,475.6705 C319.5313,475.3945 319.3073,475.1715 319.0323,475.1715" id="Fill-11" fill="#000"/>
    </g>
</svg>
