<svg viewBox="156 90.242 530.4 508.261" xmlns="http://www.w3.org/2000/svg" overflow="visible">
    <g id="Master/Spot Illustration/Online Shopping" stroke="none" stroke-width="1" fill="none" fill-rule="evenodd">
        <path d="M626.099,573 L194.5,573 C194.224,573 194,572.776 194,572.5 C194,572.224 194.224,572 194.5,572 L626.099,572 C626.375,572 626.599,572.224 626.599,572.5 C626.599,572.776 626.375,573 626.099,573" id="Fill-32" fill="#000"/>
        <path d="M540.937,596 L441.5,596 C441.224,596 441,595.776 441,595.5 C441,595.224 441.224,595 441.5,595 L540.937,595 C541.213,595 541.437,595.224 541.437,595.5 C541.437,595.776 541.213,596 540.937,596" id="Fill-33" fill="#000"/>
        <g id="User Interface" transform="translate(156.000000, 72.994000) scale(1 1)">
            <g id="User Interface/Online Shopping" stroke="none" stroke-width="1" fill="none" fill-rule="evenodd">
                <g id="Group-46" transform="translate(71.000000, 22.000000)">
                    <path d="M365.542,315.2299 C365.173,316.2499 364.594,317.1719 363.818,317.9709 C363.042,318.7719 362.03,319.4379 360.81,319.9479 C359.578,320.4619 358.081,320.7749 356.358,320.8759 C356.094,320.8919 355.888,321.1099 355.888,321.3749 L355.888,325.8059 L353.693,325.8059 L353.693,321.3749 C353.693,321.1119 353.49,320.8939 353.228,320.8759 C349.917,320.6489 347.401,319.7399 345.747,318.1719 C344.218,316.7249 343.335,314.8269 343.12,312.5279 L349.994,312.5279 C350.121,313.2649 350.382,313.9159 350.774,314.4659 C351.266,315.1589 352.042,315.6309 353.083,315.8679 C353.23,315.9029 353.387,315.8659 353.505,315.7709 C353.624,315.6759 353.693,315.5319 353.693,315.3799 L353.693,310.2519 C353.693,310.0009 353.507,309.7889 353.258,309.7569 C351.487,309.5249 349.971,309.1829 348.75,308.7379 C347.552,308.3009 346.556,307.7419 345.791,307.0749 C345.044,306.4249 344.494,305.6249 344.157,304.6979 C343.811,303.7459 343.635,302.5889 343.635,301.2589 C343.635,300.0999 343.852,299.0269 344.281,298.0719 C344.71,297.1149 345.339,296.2629 346.151,295.5379 C346.969,294.8059 347.979,294.2079 349.151,293.7589 C350.335,293.3059 351.707,293.0239 353.227,292.9229 C353.489,292.9049 353.693,292.6869 353.693,292.4239 L353.693,289.4139 L355.888,289.4139 L355.888,292.4639 C355.888,292.7249 356.088,292.9409 356.348,292.9619 C359.177,293.1889 361.427,293.9679 363.034,295.2769 C364.502,296.4719 365.384,298.2749 365.659,300.6419 L358.946,300.6419 C358.834,300.0709 358.637,299.5759 358.36,299.1659 C357.992,298.6209 357.375,298.2209 356.525,297.9779 C356.375,297.9359 356.212,297.9659 356.086,298.0599 C355.961,298.1539 355.888,298.3019 355.888,298.4589 L355.888,303.3109 C355.888,303.5599 356.072,303.7719 356.319,303.8059 C357.814,304.0129 359.195,304.3059 360.424,304.6759 C361.625,305.0389 362.662,305.5379 363.507,306.1589 C364.33,306.7639 364.975,307.5389 365.424,308.4589 C365.875,309.3859 366.104,310.5459 366.104,311.9089 C366.104,313.0819 365.915,314.1989 365.542,315.2299 L365.542,315.2299 Z M364.099,305.3529 C363.162,304.6649 362.023,304.1149 360.713,303.7189 C359.554,303.3689 358.269,303.0869 356.888,302.8779 L356.888,299.1869 C357.174,299.3349 357.39,299.5149 357.532,299.7249 C357.788,300.1039 357.952,300.5999 358.021,301.1989 C358.05,301.4509 358.264,301.6419 358.518,301.6419 L366.209,301.6419 C366.349,301.6419 366.481,301.5839 366.576,301.4809 C366.671,301.3789 366.719,301.2429 366.708,301.1039 C366.487,298.1869 365.463,295.9659 363.666,294.5009 C361.988,293.1359 359.709,292.2979 356.888,292.0069 L356.888,288.9139 C356.888,288.6379 356.664,288.4139 356.388,288.4139 L353.193,288.4139 C352.917,288.4139 352.693,288.6379 352.693,288.9139 L352.693,291.9619 C351.257,292.0939 349.947,292.3829 348.794,292.8249 C347.507,293.3169 346.394,293.9799 345.484,294.7929 C344.567,295.6109 343.856,296.5769 343.369,297.6629 C342.882,298.7479 342.635,299.9579 342.635,301.2589 C342.635,302.7059 342.831,303.9779 343.217,305.0399 C343.613,306.1279 344.258,307.0659 345.134,307.8289 C345.992,308.5769 347.093,309.1989 348.407,309.6769 C349.594,310.1099 351.034,310.4499 352.693,310.6879 L352.693,314.7059 C352.209,314.5129 351.838,314.2379 351.589,313.8869 C351.222,313.3709 351,312.7299 350.93,311.9809 C350.906,311.7239 350.69,311.5279 350.432,311.5279 L342.583,311.5279 C342.446,311.5279 342.315,311.5839 342.221,311.6829 C342.126,311.7819 342.077,311.9159 342.084,312.0519 C342.221,314.8549 343.222,317.1589 345.06,318.8979 C346.806,320.5529 349.372,321.5409 352.693,321.8369 L352.693,326.3059 C352.693,326.5819 352.917,326.8059 353.193,326.8059 L356.388,326.8059 C356.664,326.8059 356.888,326.5819 356.888,326.3059 L356.888,321.8409 C358.528,321.7069 359.975,321.3799 361.196,320.8709 C362.542,320.3079 363.666,319.5659 364.537,318.6669 C365.411,317.7659 366.065,316.7239 366.482,315.5699 C366.895,314.4299 367.104,313.1979 367.104,311.9089 C367.104,310.3929 366.841,309.0849 366.323,308.0219 C365.803,306.9529 365.054,306.0549 364.099,305.3529 L364.099,305.3529 Z M382.433,285.9689 C382.361,286.0499 382.268,286.1239 382.154,286.1879 L382.154,284.5779 C382.351,284.6599 382.45,284.7329 382.499,284.7799 C382.575,284.8539 382.677,284.9869 382.677,285.2959 C382.677,285.5619 382.597,285.7819 382.433,285.9689 L382.433,285.9689 Z M381.769,283.4139 C381.621,283.3799 381.463,283.4129 381.344,283.5079 C381.224,283.6029 381.154,283.7479 381.154,283.8999 L381.154,286.8959 C381.154,287.0469 381.223,287.1909 381.341,287.2859 C381.431,287.3569 381.542,287.3959 381.654,287.3959 C381.69,287.3959 381.728,287.3919 381.764,287.3829 C382.39,287.2419 382.868,286.9879 383.185,286.6279 C383.511,286.2559 383.677,285.8079 383.677,285.2959 C383.677,284.7859 383.514,284.3709 383.192,284.0599 C382.904,283.7829 382.438,283.5719 381.769,283.4139 L381.769,283.4139 Z M379.098,278.1279 C378.879,278.0389 378.768,277.9579 378.713,277.9049 C378.586,277.7829 378.524,277.5939 378.524,277.3269 C378.524,277.1499 378.524,276.7859 379.098,276.5389 L379.098,278.1279 Z M379.511,275.3889 C377.869,275.6799 377.524,276.6039 377.524,277.3269 C377.524,277.8739 377.691,278.3109 378.02,278.6259 C378.319,278.9139 378.798,279.1299 379.487,279.2859 C379.524,279.2949 379.561,279.2989 379.598,279.2989 C379.71,279.2989 379.821,279.2609 379.91,279.1889 C380.029,279.0949 380.098,278.9509 380.098,278.7989 L380.098,275.8809 C380.098,275.7329 380.033,275.5929 379.919,275.4979 C379.807,275.4029 379.661,275.3629 379.511,275.3889 L379.511,275.3889 Z M357.807,314.2019 C357.596,314.4419 357.288,314.6389 356.888,314.7909 L356.888,311.4609 C357.462,311.6469 357.75,311.8339 357.895,311.9729 C358.137,312.2069 358.255,312.5339 358.255,312.9739 C358.255,313.4569 358.108,313.8579 357.807,314.2019 L357.807,314.2019 Z M356.502,310.3179 C356.352,310.2819 356.197,310.3179 356.077,310.4129 C355.958,310.5069 355.888,310.6519 355.888,310.8049 L355.888,315.4589 C355.888,315.6109 355.957,315.7549 356.076,315.8499 C356.165,315.9209 356.275,315.9589 356.388,315.9589 C356.424,315.9589 356.461,315.9549 356.498,315.9469 C357.415,315.7399 358.108,315.3749 358.559,314.8609 C359.021,314.3349 359.255,313.6999 359.255,312.9739 C359.255,312.2589 359.031,311.6799 358.588,311.2519 C358.176,310.8569 357.494,310.5509 356.502,310.3179 L356.502,310.3179 Z M352.693,302.2259 C352.085,302.0339 351.78,301.8349 351.626,301.6879 C351.372,301.4429 351.248,301.0839 351.248,300.5889 C351.248,300.0619 351.411,299.3529 352.693,298.9699 L352.693,302.2259 Z M353.106,297.8489 C350.744,298.2679 350.248,299.5699 350.248,300.5889 C350.248,301.3589 350.478,301.9709 350.933,302.4089 C351.359,302.8189 352.062,303.1309 353.082,303.3639 C353.119,303.3729 353.156,303.3759 353.193,303.3759 C353.306,303.3759 353.416,303.3389 353.505,303.2679 C353.624,303.1719 353.693,303.0289 353.693,302.8759 L353.693,298.3409 C353.693,298.1929 353.628,298.0529 353.515,297.9579 C353.401,297.8619 353.251,297.8209 353.106,297.8489 L353.106,297.8489 Z M387.376,286.6879 C387.148,287.3189 386.788,287.8909 386.307,288.3879 C385.824,288.8859 385.193,289.2999 384.43,289.6189 C383.656,289.9429 382.712,290.1389 381.625,290.2029 C381.36,290.2179 381.154,290.4379 381.154,290.7019 L381.154,293.3749 L380.098,293.3749 L380.098,290.7019 C380.098,290.4389 379.895,290.2209 379.632,290.2029 C377.545,290.0609 375.963,289.4909 374.929,288.5119 C374.007,287.6389 373.476,286.5469 373.314,285.1879 L377.393,285.1879 C377.486,285.6279 377.655,286.0219 377.896,286.3599 C378.239,286.8419 378.774,287.1689 379.487,287.3319 C379.637,287.3689 379.791,287.3309 379.91,287.2359 C380.029,287.1409 380.098,286.9969 380.098,286.8449 L380.098,283.5449 C380.098,283.2939 379.912,283.0819 379.663,283.0499 C378.537,282.9029 377.573,282.6849 376.8,282.4029 C376.049,282.1289 375.427,281.7799 374.952,281.3659 C374.495,280.9679 374.158,280.4779 373.951,279.9099 C373.735,279.3179 373.626,278.5939 373.626,277.7589 C373.626,277.0379 373.761,276.3729 374.026,275.7809 C374.292,275.1879 374.682,274.6599 375.186,274.2099 C375.695,273.7539 376.327,273.3799 377.061,273.0989 C377.806,272.8139 378.67,272.6369 379.632,272.5719 C379.894,272.5539 380.098,272.3359 380.098,272.0729 L380.098,270.3149 L381.154,270.3149 L381.154,272.0989 C381.154,272.3599 381.354,272.5769 381.614,272.5979 C383.396,272.7399 384.811,273.2279 385.818,274.0469 C386.697,274.7629 387.223,275.7919 387.417,277.1829 L383.443,277.1829 C383.363,276.8519 383.238,276.5599 383.07,276.3109 C382.809,275.9249 382.379,275.6449 381.792,275.4759 C381.643,275.4319 381.478,275.4629 381.353,275.5569 C381.228,275.6519 381.154,275.7989 381.154,275.9569 L381.154,279.0789 C381.154,279.3279 381.338,279.5399 381.585,279.5739 C382.539,279.7059 383.419,279.8929 384.2,280.1279 C384.952,280.3549 385.601,280.6669 386.129,281.0549 C386.635,281.4269 387.032,281.9029 387.308,282.4699 C387.586,283.0419 387.727,283.7619 387.727,284.6109 C387.727,285.3439 387.609,286.0429 387.376,286.6879 L387.376,286.6879 Z M388.207,282.0319 C387.859,281.3179 387.359,280.7179 386.721,280.2489 C386.102,279.7929 385.35,279.4309 384.489,279.1709 C383.778,278.9569 382.995,278.7809 382.154,278.6469 L382.154,276.7659 C382.188,276.7989 382.217,276.8339 382.242,276.8709 C382.39,277.0909 382.487,277.3839 382.528,277.7399 C382.557,277.9919 382.771,278.1829 383.024,278.1829 L387.974,278.1829 C388.113,278.1829 388.246,278.1249 388.34,278.0219 C388.435,277.9199 388.483,277.7839 388.472,277.6449 C388.326,275.7169 387.645,274.2449 386.449,273.2719 C385.374,272.3969 383.93,271.8509 382.154,271.6459 L382.154,269.8149 C382.154,269.5389 381.93,269.3149 381.654,269.3149 L379.598,269.3149 C379.322,269.3149 379.098,269.5389 379.098,269.8149 L379.098,271.6149 C378.221,271.7079 377.417,271.8919 376.704,272.1649 C375.855,272.4899 375.12,272.9269 374.519,273.4639 C373.911,274.0079 373.438,274.6489 373.114,275.3709 C372.79,276.0919 372.626,276.8959 372.626,277.7589 C372.626,278.7109 372.756,279.5499 373.012,280.2519 C373.276,280.9809 373.709,281.6089 374.295,282.1199 C374.863,282.6149 375.591,283.0269 376.457,283.3419 C377.196,283.6119 378.083,283.8259 379.098,283.9799 L379.098,286.1279 C378.937,286.0329 378.809,285.9179 378.711,285.7799 C378.493,285.4749 378.361,285.0909 378.32,284.6409 C378.296,284.3839 378.08,284.1879 377.822,284.1879 L372.771,284.1879 C372.634,284.1879 372.503,284.2439 372.409,284.3429 C372.314,284.4419 372.265,284.5749 372.271,284.7119 C372.362,286.5629 373.025,288.0859 374.242,289.2379 C375.366,290.3039 376.999,290.9499 379.098,291.1619 L379.098,293.8749 C379.098,294.1509 379.322,294.3749 379.598,294.3749 L381.654,294.3749 C381.93,294.3749 382.154,294.1509 382.154,293.8749 L382.154,291.1649 C383.161,291.0689 384.054,290.8599 384.816,290.5419 C385.705,290.1699 386.448,289.6799 387.025,289.0839 C387.605,288.4849 388.04,287.7929 388.317,287.0269 C388.589,286.2729 388.727,285.4599 388.727,284.6109 C388.727,283.6089 388.552,282.7419 388.207,282.0319 L388.207,282.0319 Z" id="Fill-1" fill="#B5B6B7"/>
                    <polygon id="Fill-3" fill="#E1E1E1" points="0.618 305.514 154.951 305.514 154.951 168.786 0.618 168.786"/>
                    <polygon id="Fill-5" fill="#F1EFEF" points="0.618 305.514 154.951 305.514 154.951 250.411 0.618 250.411"/>
                    <path d="M25.5391,226.9218 C16.6801,226.9218 9.4731,219.7148 9.4731,210.8558 C9.4731,201.9978 16.6801,194.7908 25.5391,194.7908 C34.3981,194.7908 41.6051,201.9978 41.6051,210.8558 C41.6051,219.7148 34.3981,226.9218 25.5391,226.9218 L25.5391,226.9218 Z M42.3981,210.8558 C42.3981,201.5598 34.8351,193.9978 25.5391,193.9978 C16.2431,193.9978 8.6801,201.5598 8.6801,210.8558 C8.6801,220.1518 16.2431,227.7148 25.5391,227.7148 C34.8351,227.7148 42.3981,220.1518 42.3981,210.8558 L42.3981,210.8558 Z M143.5181,232.4088 L53.8911,232.4088 C53.6711,232.4088 53.4941,232.5868 53.4941,232.8058 C53.4941,233.0248 53.6711,233.2018 53.8911,233.2018 L143.5181,233.2018 C143.7381,233.2018 143.9151,233.0248 143.9151,232.8058 C143.9151,232.5868 143.7381,232.4088 143.5181,232.4088 L143.5181,232.4088 Z M143.5181,213.2038 L53.8911,213.2038 C53.6711,213.2038 53.4941,213.3808 53.4941,213.5998 C53.4941,213.8188 53.6711,213.9968 53.8911,213.9968 L143.5181,213.9968 C143.7381,213.9968 143.9151,213.8188 143.9151,213.5998 C143.9151,213.3808 143.7381,213.2038 143.5181,213.2038 L143.5181,213.2038 Z M143.5181,193.9978 L53.8911,193.9978 C53.6711,193.9978 53.4941,194.1748 53.4941,194.3938 C53.4941,194.6128 53.6711,194.7908 53.8911,194.7908 L143.5181,194.7908 C143.7381,194.7908 143.9151,194.6128 143.9151,194.3938 C143.9151,194.1748 143.7381,193.9978 143.5181,193.9978 L143.5181,193.9978 Z M32.9091,289.3408 L122.6591,289.3408 L122.6591,270.0128 L32.9091,270.0128 L32.9091,289.3408 Z M123.0551,269.2208 L32.5131,269.2208 C32.2931,269.2208 32.1161,269.3978 32.1161,269.6168 L32.1161,289.7378 C32.1161,289.9568 32.2931,290.1338 32.5131,290.1338 L123.0551,290.1338 C123.2741,290.1338 123.4521,289.9568 123.4521,289.7378 L123.4521,269.6168 C123.4521,269.3978 123.2741,269.2208 123.0551,269.2208 L123.0551,269.2208 Z M154.9511,250.0148 L31.0261,250.0148 C30.8071,250.0148 30.6301,250.1918 30.6301,250.4108 C30.6301,250.6298 30.8071,250.8078 31.0261,250.8078 L154.9511,250.8078 C155.1701,250.8078 155.3471,250.6298 155.3471,250.4108 C155.3471,250.1918 155.1701,250.0148 154.9511,250.0148 L154.9511,250.0148 Z M155.3471,168.7858 C155.3471,168.5668 155.1701,168.3898 154.9511,168.3898 L0.6171,168.3898 C0.3981,168.3898 0.2211,168.5668 0.2211,168.7858 L0.2211,285.8508 C0.2211,286.0698 0.3981,286.2478 0.6171,286.2478 C0.8361,286.2478 1.0141,286.0698 1.0141,285.8508 L1.0141,169.1828 L154.9511,169.1828 C155.1701,169.1828 155.3471,169.0048 155.3471,168.7858 L155.3471,168.7858 Z" id="Fill-6" fill="#B5B6B7"/>
                    <polygon id="Fill-7" fill="#E1E1E1" points="271.413 114.722 427.248 114.722 427.248 103.802 271.413 103.802"/>
                    <polygon id="Fill-8" fill="#F1EFEF" points="271.413 238.477 427.248 238.477 427.248 114.722 271.413 114.722"/>
                    <path d="M427.248,103.4052 C427.029,103.4052 426.852,103.5822 426.852,103.8012 L426.852,114.3252 L271.413,114.3252 C271.193,114.3252 271.016,114.5022 271.016,114.7212 C271.016,114.9412 271.193,115.1182 271.413,115.1182 L427.248,115.1182 C427.467,115.1182 427.644,114.9412 427.644,114.7212 L427.644,103.8012 C427.644,103.5822 427.467,103.4052 427.248,103.4052 L427.248,103.4052 Z M416.328,159.5632 L368.649,159.5632 C368.43,159.5632 368.253,159.7402 368.253,159.9602 C368.253,160.1792 368.43,160.3562 368.649,160.3562 L416.328,160.3562 C416.547,160.3562 416.725,160.1792 416.725,159.9602 C416.725,159.7402 416.547,159.5632 416.328,159.5632 L416.328,159.5632 Z M416.328,149.5102 L368.649,149.5102 C368.43,149.5102 368.253,149.6872 368.253,149.9062 C368.253,150.1262 368.43,150.3032 368.649,150.3032 L416.328,150.3032 C416.547,150.3032 416.725,150.1262 416.725,149.9062 C416.725,149.6872 416.547,149.5102 416.328,149.5102 L416.328,149.5102 Z M416.328,139.4572 L368.649,139.4572 C368.43,139.4572 368.253,139.6342 368.253,139.8542 C368.253,140.0732 368.43,140.2502 368.649,140.2502 L416.328,140.2502 C416.547,140.2502 416.725,140.0732 416.725,139.8542 C416.725,139.6342 416.547,139.4572 416.328,139.4572 L416.328,139.4572 Z M416.328,129.4042 L368.649,129.4042 C368.43,129.4042 368.253,129.5812 368.253,129.8012 C368.253,130.0202 368.43,130.1972 368.649,130.1972 L416.328,130.1972 C416.547,130.1972 416.725,130.0202 416.725,129.8012 C416.725,129.5812 416.547,129.4042 416.328,129.4042 L416.328,129.4042 Z M283.075,224.7342 L357.853,224.7342 L357.853,130.1972 L283.075,130.1972 L283.075,224.7342 Z M358.249,129.4042 L282.679,129.4042 C282.459,129.4042 282.282,129.5812 282.282,129.8012 L282.282,225.1312 C282.282,225.3502 282.459,225.5272 282.679,225.5272 L358.249,225.5272 C358.469,225.5272 358.646,225.3502 358.646,225.1312 L358.646,129.8012 C358.646,129.5812 358.469,129.4042 358.249,129.4042 L358.249,129.4042 Z" id="Fill-9" fill="#B5B6B7"/>
                    <polygon id="Fill-10" fill="#FFF" points="108.244 464.58 316.029 464.58 316.029 11.319 108.244 11.319"/>
                    <path d="M108.744,464.08 L315.529,464.08 L315.529,11.819 L108.744,11.819 L108.744,464.08 Z M107.744,465.08 L316.529,465.08 L316.529,10.819 L107.744,10.819 L107.744,465.08 Z" id="Fill-11" fill="#000"/>
                    <path d="M301.5068,459.4057 L122.7668,459.4057 C117.3528,459.4057 112.9638,455.0167 112.9638,449.6027 L112.9638,28.0887 C112.9638,22.6737 117.3528,18.2847 122.7668,18.2847 L160.7338,18.2847 C167.6918,18.2847 173.3318,23.9247 173.3318,30.8827 C173.3318,37.8397 178.9718,43.4797 185.9288,43.4797 L238.3438,43.4797 C245.3018,43.4797 250.9418,37.8397 250.9418,30.8827 C250.9418,23.9247 256.5818,18.2847 263.5398,18.2847 L301.5068,18.2847 C306.9208,18.2847 311.3098,22.6737 311.3098,28.0887 L311.3098,449.6027 C311.3098,455.0167 306.9208,459.4057 301.5068,459.4057 M97.1408,26.9227 L97.1408,450.7677 C97.1408,465.3607 108.9708,477.1897 123.5638,477.1897 L300.7098,477.1897 C315.3028,477.1897 327.1318,465.3607 327.1318,450.7677 L327.1318,26.9227 C327.1318,12.3297 315.3028,0.4997 300.7098,0.4997 L123.5638,0.4997 C108.9708,0.4997 97.1408,12.3297 97.1408,26.9227" id="Fill-12" fill="#000"/>
                    <path d="M301.5068,459.4057 L122.7668,459.4057 C117.3528,459.4057 112.9638,455.0167 112.9638,449.6027 L112.9638,28.0887 C112.9638,22.6737 117.3528,18.2847 122.7668,18.2847 L160.7338,18.2847 C167.6918,18.2847 173.3318,23.9247 173.3318,30.8827 C173.3318,37.8397 178.9718,43.4797 185.9288,43.4797 L238.3438,43.4797 C245.3018,43.4797 250.9418,37.8397 250.9418,30.8827 C250.9418,23.9247 256.5818,18.2847 263.5398,18.2847 L301.5068,18.2847 C306.9208,18.2847 311.3098,22.6737 311.3098,28.0887 L311.3098,449.6027 C311.3098,455.0167 306.9208,459.4057 301.5068,459.4057 Z M97.1408,26.9227 L97.1408,450.7677 C97.1408,465.3607 108.9708,477.1897 123.5638,477.1897 L300.7098,477.1897 C315.3028,477.1897 327.1318,465.3607 327.1318,450.7677 L327.1318,26.9227 C327.1318,12.3297 315.3028,0.4997 300.7098,0.4997 L123.5638,0.4997 C108.9708,0.4997 97.1408,12.3297 97.1408,26.9227 Z" id="Stroke-13" stroke="#FFF" stroke-width=".893"/>
                    <path d="M194.5435,441.7851 C194.5435,443.9231 192.8105,445.6561 190.6735,445.6561 C188.5355,445.6561 186.8025,443.9231 186.8025,441.7851 C186.8025,439.6471 188.5355,437.9151 190.6735,437.9151 C192.8105,437.9151 194.5435,439.6471 194.5435,441.7851" id="Fill-14" fill="#000"/>
                    <path d="M194.5435,441.7851 C194.5435,443.9231 192.8105,445.6561 190.6735,445.6561 C188.5355,445.6561 186.8025,443.9231 186.8025,441.7851 C186.8025,439.6471 188.5355,437.9151 190.6735,437.9151 C192.8105,437.9151 194.5435,439.6471 194.5435,441.7851 Z" id="Stroke-15" stroke="#FFF" stroke-width=".893"/>
                    <path d="M216.0073,441.7851 C216.0073,443.9231 214.2743,445.6561 212.1363,445.6561 C209.9993,445.6561 208.2663,443.9231 208.2663,441.7851 C208.2663,439.6471 209.9993,437.9151 212.1363,437.9151 C214.2743,437.9151 216.0073,439.6471 216.0073,441.7851" id="Fill-16" fill="#000"/>
                    <path d="M216.0073,441.7851 C216.0073,443.9231 214.2743,445.6561 212.1363,445.6561 C209.9993,445.6561 208.2663,443.9231 208.2663,441.7851 C208.2663,439.6471 209.9993,437.9151 212.1363,437.9151 C214.2743,437.9151 216.0073,439.6471 216.0073,441.7851 Z" id="Stroke-17" stroke="#FFF" stroke-width=".893"/>
                    <path d="M237.4707,441.7851 C237.4707,443.9231 235.7377,445.6561 233.5997,445.6561 C231.4627,445.6561 229.7297,443.9231 229.7297,441.7851 C229.7297,439.6471 231.4627,437.9151 233.5997,437.9151 C235.7377,437.9151 237.4707,439.6471 237.4707,441.7851" id="Fill-18" fill="#000"/>
                    <path d="M237.4707,441.7851 C237.4707,443.9231 235.7377,445.6561 233.5997,445.6561 C231.4627,445.6561 229.7297,443.9231 229.7297,441.7851 C229.7297,439.6471 231.4627,437.9151 233.5997,437.9151 C235.7377,437.9151 237.4707,439.6471 237.4707,441.7851 Z" id="Stroke-19" stroke="#FFF" stroke-width=".893"/>
                    <path d="M159.355,42.4965 L122.191,42.4965 L112.46,76.3675 L112.462,76.3675 C112.462,87.7985 121.73,97.0665 133.161,97.0665 C144.592,97.0665 153.859,87.7985 153.859,76.3675 L153.858,76.3675 L159.355,42.4965 Z" id="Fill-34" fill="#F1EFEF"/>
                    <path d="M195.2559,42.4965 L195.2559,76.3675 L195.3279,76.3675 C195.3279,87.7985 204.5959,97.0665 216.0269,97.0665 C227.4589,97.0665 236.7259,87.7985 236.7259,76.3675 L236.8009,76.3675 L236.8009,42.4965 L195.2559,42.4965 Z" id="Fill-35" fill="#F1EFEF"/>
                    <path d="M309.8652,42.4965 L272.7012,42.4965 L278.1982,76.3675 C278.1982,87.7985 287.4662,97.0665 298.8972,97.0665 C310.3292,97.0665 319.5962,87.7985 319.5962,76.3675 L309.8652,42.4965 Z" id="Fill-36" fill="#F1EFEF"/>
                    <path d="M347.4668,42.4965 L347.1958,42.4965 L347.1958,26.9165 C347.1958,12.3275 335.3678,0.4995 320.7788,0.4995 L111.2788,0.4995 C96.6888,0.4995 84.8618,12.3275 84.8618,26.9165 L84.8618,42.4965 L84.5478,42.4965 L71.0198,76.3675 C71.0198,87.7985 80.2888,97.0665 91.7208,97.0665 C103.1528,97.0665 112.4198,87.7985 112.4198,76.3675 L121.9198,43.4375 L159.2018,43.4375 L153.8578,76.3675 C153.8598,87.7995 163.1268,97.0665 174.5588,97.0665 C185.9898,97.0665 195.2578,87.7995 195.2578,76.3675 L195.3278,76.3675 L195.2578,43.4375 L236.7998,43.4375 L236.7258,76.3675 L236.8008,76.3675 C236.8008,87.7985 246.0688,97.0665 257.4998,97.0665 C268.9308,97.0665 278.1988,87.7985 278.1988,76.3675 L272.8548,43.4375 L310.1358,43.4375 L319.5968,76.3675 C319.5968,87.7985 328.8638,97.0665 340.2958,97.0665 C351.7268,97.0665 360.9938,87.7985 360.9938,76.3675 L347.4668,42.4965 Z" id="Fill-37" fill="#EC7068"/>
                    <path d="M285.0811,375.4316 L146.1231,375.4316 C141.4631,375.4316 137.6851,371.6536 137.6851,366.9926 L137.6851,162.5046 C137.6851,157.8446 141.4631,154.0656 146.1231,154.0656 L285.0811,154.0656 C289.7421,154.0656 293.5201,157.8446 293.5201,162.5046 L293.5201,366.9926 C293.5201,371.6536 289.7421,375.4316 285.0811,375.4316" id="Fill-38" fill="#F1EFEF"/>
                    <path d="M245.3237,245.185 L230.7797,245.185 L230.7797,254.01 L243.2627,254.01 C243.9487,251.072 244.6257,248.174 245.3237,245.185 L245.3237,245.185 Z M210.9307,253.991 L224.7057,253.991 L224.7057,245.157 L210.9307,245.157 L210.9307,253.991 Z M210.9087,239.134 L224.7237,239.134 L224.7237,230.312 L210.9087,230.312 L210.9087,239.134 Z M204.8677,245.191 L190.0197,245.191 C190.6477,248.182 191.2587,251.085 191.8727,254.006 L204.8677,254.006 L204.8677,245.191 Z M248.7877,230.307 L230.7787,230.307 L230.7787,239.179 L231.7237,239.179 C235.9577,239.179 240.1927,239.183 244.4277,239.176 C245.1737,239.174 246.1357,239.399 246.6057,239.026 C247.0757,238.654 247.0727,237.665 247.2447,236.94 C247.7627,234.752 248.2647,232.56 248.7877,230.307 L248.7877,230.307 Z M186.8347,230.289 C187.4397,233.089 188.0427,235.771 188.5827,238.466 C188.7047,239.074 188.9587,239.194 189.5257,239.191054 C194.3967,239.17 199.2687,239.18 204.1407,239.177 C204.3837,239.177 204.6257,239.15 204.8637,239.137 L204.8637,230.289 L186.8347,230.289 Z M178.5947,220.293 L177.6667,220.293 C174.2117,220.293 170.7577,220.301 167.3027,220.289 C165.5197,220.283 164.2207,219.045 164.196336,217.368 C164.1717,215.701 165.4357,214.384 167.2217,214.37 C171.7907,214.335 176.3597,214.336 180.9287,214.367 C182.7107,214.379 183.6977,215.293 184.0847,217.104 C184.5907,219.47 185.0947,221.836 185.6157,224.273 L186.7277,224.273 C208.4577,224.273 230.1877,224.274 251.9187,224.267 C252.9307,224.267 253.8557,224.424 254.5917,225.193 C255.3587,225.997 255.6847,226.932 255.4317,228.025 C253.1597,237.808 250.8857,247.591 248.5997,257.372 C248.1717,259.204 247.0397,260.049 245.1007,260.049 C228.1617,260.051 211.2237,260.05 194.2857,260.05 L193.1417,260.05 C193.5517,261.927 193.9287,263.718 194.3517,265.497 C194.3957,265.682 194.6897,265.854 194.9047,265.936 C195.0997,266.01 195.3447,265.953 195.5677,265.953 C210.7227,265.953 225.8777,265.956 241.0337,265.947 C242.5577,265.946 243.7917,266.428 244.4237,267.887 C245.1947,269.666 243.8777,271.761 241.9277,271.932 C241.5947,271.961 241.2597,271.946 240.9247,271.946 C224.9057,271.947 208.8867,271.924 192.8677,271.973028 C190.7227,271.979 189.5907,271.022 189.0837,269.164 C188.4327,266.778 187.9727,264.339 187.4577,261.916 C184.5597,248.273 181.6707,234.629 178.7767,220.985 C178.7307,220.77 178.6657,220.56 178.5947,220.293 L178.5947,220.293 Z" id="Fill-39" fill="#83BB9E"/>
                    <path d="M206.865704,285.8393 C206.8627,283.5773 205.1627,281.8923 202.8977,281.903246 C200.6997,281.9153 198.9887,283.6223 198.974628,285.8153 C198.9617,288.0313 200.7177,289.8203 202.9127,289.826311 C205.1327,289.8313 206.8687,288.0803 206.865704,285.8393 M202.9597,295.7613 C197.5597,295.7993 193.0367,291.3393 192.9747,285.9183 C192.9127,280.5023 197.4297,275.9483 202.8827,275.929246 C208.3457,275.9113 212.8527,280.3863 212.865724,285.8413 C212.8777,291.2253 208.3867,295.7223 202.9597,295.7613" id="Fill-40" fill="#83BB9E"/>
                    <path d="M230.6992,281.905136 C228.4822,281.9172 226.7242,283.6942 226.7512,285.8962 C226.7772,288.0332 228.5752,289.8162 230.7122,289.824227 C232.9222,289.8322 234.6732,288.0652 234.661261,285.8392 C234.6502,283.5662 232.9652,281.8932 230.6992,281.905136 M220.8172,285.7342 C220.9222,280.1842 225.4252,275.8352 230.9622,275.9352 C236.4012,276.0332 240.7452,280.6002 240.6422,286.1132 C240.5412,291.4412 235.9172,295.8732 230.5822,295.7552 C225.1092,295.6342 220.7152,291.1252 220.8172,285.7342" id="Fill-41" fill="#83BB9E"/>
                    <path d="M271.4126,298.06 C271.4126,309.636 262.0286,319.02 250.4526,319.02 C238.8766,319.02 229.4926,309.636 229.4926,298.06 C229.4926,286.484 238.8766,277.101 250.4526,277.101 C262.0286,277.101 271.4126,286.484 271.4126,298.06" id="Fill-42" fill="#EC7068"/>
                    <path d="M250.1548,307.4999 C250.0018,307.4999 249.8578,307.4299 249.7618,307.3099 L241.9218,297.3729 C241.7508,297.1559 241.7878,296.8419 242.0048,296.6709 C242.2218,296.4999 242.5358,296.5379 242.7068,296.7539 L250.1128,306.1409 L272.2808,271.7019 C272.4308,271.4699 272.7398,271.4029 272.9718,271.5519 C273.2048,271.7019 273.2718,272.0109 273.1218,272.2429 L250.5748,307.2709 C250.4878,307.4059 250.3408,307.4919 250.1788,307.4999 C250.1708,307.4999 250.1628,307.4999 250.1548,307.4999" id="Fill-43" fill="#000"/>
                    <path d="M74.0796,117.7226 C73.2826,118.5786 71.9366,118.6266 71.0806,117.8286 C70.2256,117.0316 70.1776,115.6866 70.9756,114.8306 C71.3926,114.3826 71.9596,114.1566 72.5286,114.1566 C73.0466,114.1566 73.5656,114.3446 73.9736,114.7236 C74.3886,115.1106 74.6276,115.6356 74.6476,116.2016 C74.6676,116.7676 74.4656,117.3076 74.0796,117.7226 L74.0796,117.7226 Z M70.3946,114.2896 C69.2996,115.4656 69.3646,117.3136 70.5396,118.4096 C71.1006,118.9316 71.8146,119.1896 72.5256,119.1896 C73.3076,119.1896 74.0866,118.8786 74.6596,118.2636 C75.1906,117.6946 75.4676,116.9516 75.4406,116.1736 C75.4126,115.3956 75.0836,114.6746 74.5146,114.1436 C73.3376,113.0476 71.4906,113.1136 70.3946,114.2896 L70.3946,114.2896 Z M54.4546,151.5386 L38.6276,136.7896 L64.2326,109.3106 L77.2956,111.1596 L80.0606,124.0596 L54.4546,151.5386 Z M78.0136,110.7226 C77.9786,110.5596 77.8456,110.4356 77.6816,110.4126 L64.1396,108.4966 C64.0126,108.4746 63.8816,108.5236 63.7936,108.6186 L37.7766,136.5386 C37.6276,136.6996 37.6366,136.9506 37.7966,137.0996 L54.2046,152.3896 C54.2786,152.4576 54.3746,152.4956 54.4756,152.4956 L54.4896,152.4956 C54.5946,152.4916 54.6936,152.4466 54.7656,152.3696 L80.7816,124.4496 C80.8706,124.3546 80.9066,124.2226 80.8796,124.0956 L78.0136,110.7226 Z" id="Fill-44" fill="#B5B6B7"/>
                    <path d="M272.7744,42.9438 C272.5024,42.9878 272.3164,43.2448 272.3604,43.5178 L277.6984,76.3678 C277.6984,87.5058 268.6374,96.5668 257.5004,96.5668 C246.3624,96.5668 237.3014,87.5058 237.3014,76.3678 L237.3014,75.8678 L237.2274,75.8678 L237.3004,42.9378 L194.7564,42.9378 L194.8284,76.3688 C194.8284,76.6448 195.0524,76.8678 195.3284,76.8678 L195.3294,76.8678 C195.6054,76.8668 195.8284,76.6428 195.8284,76.3668 L195.7584,43.9378 L236.2984,43.9378 L236.2264,76.3668 C236.2264,76.4628 236.2594,76.5478 236.3064,76.6238 C236.4444,88.1948 245.8974,97.5668 257.5004,97.5668 C269.1894,97.5668 278.6984,88.0568 278.692403,76.2878 L273.3484,43.3578 C273.3034,43.0848 273.0484,42.8968 272.7744,42.9438 M320.7784,-0.0002 L111.2784,-0.0002 C96.4364,-0.0002 84.3614,12.0748 84.3614,26.9168 L84.3614,42.0328 C84.3594,42.0328 84.3594,42.0348 84.3584,42.0348 C84.2794,42.0678 84.2144,42.1248 84.1604,42.1938 C84.1464,42.2118 84.1364,42.2278 84.1254,42.2468 C84.1124,42.2698 84.0934,42.2868 84.0834,42.3108 L70.5554,76.1818 L70.5584,76.1838 C70.5354,76.2408 70.5214,76.3018 70.5214,76.3678 C70.5214,88.0568 80.0314,97.5668 91.7204,97.5668 C103.4094,97.5668 112.9194,88.0568 112.9194,76.3678 C112.9194,76.0908 112.6954,75.8678 112.4194,75.8678 C112.1434,75.8678 111.9194,76.0908 111.9194,76.3678 C111.9194,87.5058 102.8584,96.5668 91.7204,96.5668 C80.6104,96.5668 71.5704,87.5488 71.5254,76.4498 L84.8864,42.9968 L85.3614,42.9968 L85.3614,26.9168 C85.3614,12.6268 96.9874,0.9998 111.2784,0.9998 L320.7784,0.9998 C321.0544,0.9998 321.2784,0.7768 321.2784,0.4998 C321.2784,0.2238 321.0544,-0.0002 320.7784,-0.0002" id="Fill-45" fill="#000"/>
                </g>
            </g>
        </g>
        <g id="Side Decoration" transform="translate(355.358404, 56.125212) scale(1 1)">
            <g id="Side Decoration/Wavy Leaves Copy" stroke="none" stroke-width="1" fill="none" fill-rule="evenodd">
                <path d="M234.980996,515.403988 C234.980996,515.403988 290.172996,490.801988 277.584996,484.102988 C264.997996,477.403988 265.784996,476.223988 278.371996,464.028988 C290.959996,451.835988 285.059996,449.868988 276.011996,445.934988 C266.964996,442.000988 281.971996,434.527988 288.599996,431.380988 C295.227996,428.233988 317.314996,421.152988 302.760996,408.958988 C288.206996,396.764988 334.622996,400.697988 317.314996,383.783988 C300.006996,366.868988 278.105996,392.437988 278.105996,392.437988 C278.105996,392.437988 258.874996,368.944988 250.134996,412.749988 C250.134996,412.749988 227.830996,397.209988 234.980996,432.953988 C234.980996,432.953988 216.693996,430.199988 229.464996,471.109988 C229.464996,471.109988 215.146996,471.531988 221.937996,492.621988 C223.921996,498.784988 226.990996,504.545988 230.828996,509.760988 L234.980996,515.403988 Z" id="Fill-20" fill="#83BB9E"/>
                <path d="M234.980496,515.903988 C234.710496,515.903988 234.488496,515.688988 234.480496,515.417988 C234.476496,515.222988 234.029496,495.696988 240.795496,471.499988 C247.044496,449.153988 260.897496,418.125988 291.403496,397.213988 C291.631496,397.057988 291.942496,397.115988 292.099496,397.343988 C292.254496,397.571988 292.196496,397.882988 291.969496,398.038988 C261.720496,418.773988 247.973496,449.561988 241.767496,471.738988 C235.035496,495.796988 235.475496,515.196988 235.480496,515.389988 C235.488496,515.665988 235.270496,515.895988 234.994496,515.903988 L234.980496,515.903988 Z" id="Fill-21" fill="#000"/>
                <path d="M277.584996,484.602788 C277.505996,484.602788 277.424996,484.583788 277.350996,484.543788 C271.215996,481.279788 268.418996,479.398788 268.063996,476.885788 C267.640996,473.880788 270.998996,470.476788 278.023996,463.670788 C283.246996,458.611788 285.473996,455.133788 285.033996,452.725788 C284.569996,450.182788 281.085996,448.675788 276.675996,446.767788 L275.812996,446.393788 C273.762996,445.501788 272.711996,444.339788 272.688996,442.939788 C272.621996,438.885788 281.614996,434.143788 288.384996,430.928788 C288.634996,430.811788 288.932996,430.916788 289.050996,431.165788 C289.169996,431.415788 289.063996,431.713788 288.813996,431.831788 C278.734996,436.617788 273.645996,440.349788 273.688996,442.922788 C273.704996,443.895788 274.553996,444.755788 276.210996,445.476788 L277.072996,445.849788 C281.757996,447.876788 285.457996,449.477788 286.017996,452.545788 C286.529996,455.350788 284.278996,459.002788 278.719996,464.388788 C272.124996,470.777788 268.699996,474.228788 269.054996,476.745788 C269.346996,478.814788 272.113996,480.624788 277.819996,483.661788 C278.063996,483.790788 278.156996,484.093788 278.026996,484.337788 C277.936996,484.506788 277.763996,484.602788 277.584996,484.602788" id="Fill-22" fill="#000"/>
                <path d="M234.981396,515.903988 C234.827396,515.903988 234.676396,515.833988 234.578396,515.699988 L230.425396,510.056988 C226.415396,504.607988 223.399396,498.792988 221.461396,492.774988 C218.891396,484.793988 218.988396,478.763988 221.750396,474.853988 C224.018396,471.643988 227.398396,470.859988 228.805396,470.669988 C224.995396,458.290988 221.818396,442.368988 227.733396,435.469988 C230.103396,432.706988 233.060396,432.403988 234.364396,432.412988 C232.002396,420.199988 232.883396,412.647988 236.985396,409.960988 C242.091396,406.613988 250.082396,412.103988 250.420396,412.339988 C250.647396,412.497988 250.703396,412.808988 250.545396,413.035988 C250.387396,413.261988 250.075396,413.317988 249.849396,413.159988 C249.772396,413.106988 242.074396,407.819988 237.532396,410.797988 C233.788396,413.251988 233.075396,420.879988 235.471396,432.855988 C235.502396,433.014988 235.455396,433.179988 235.343396,433.297988 C235.231396,433.415988 235.068396,433.469988 234.907396,433.447988 C234.757396,433.426988 231.198396,432.949988 228.479396,436.136988 C225.336396,439.820988 223.040396,448.851988 229.942396,470.960988 C229.989396,471.109988 229.962396,471.271988 229.872396,471.399988 C229.782396,471.526988 229.636396,471.604988 229.481396,471.609988 C229.437396,471.610988 225.127396,471.793988 222.558396,475.442988 C219.997396,479.082988 219.947396,484.810988 222.413396,492.467988 C224.318396,498.382988 227.285396,504.101988 231.231396,509.464988 L235.383396,515.107988 C235.547396,515.329988 235.499396,515.642988 235.277396,515.806988 C235.188396,515.871988 235.084396,515.903988 234.981396,515.903988" id="Fill-23" fill="#000"/>
                <path d="M224.287096,515.403988 C223.951096,515.858988 221.945096,508.313988 202.739096,500.388988 C183.534096,492.464988 189.477096,481.426988 203.910096,481.992988 C218.344096,482.559988 178.439096,470.140988 184.665096,462.182988 C190.892096,454.224988 201.002096,461.899988 202.739096,459.918988 C204.476096,457.937988 177.024096,442.937988 195.420096,432.465988 C213.816096,421.994988 219.759096,441.737988 222.023096,454.224988 C222.023096,454.224988 250.890096,444.635988 233.060096,479.162988 C233.060096,479.162988 257.117096,470.986988 224.287096,515.403988" id="Fill-24" fill="#83BB9E"/>
                <path d="M224.287596,515.903988 C224.279596,515.903988 224.270596,515.903988 224.262596,515.903988 C223.986596,515.889988 223.774596,515.654988 223.787596,515.379988 C225.737596,475.557988 206.041596,444.191988 205.842596,443.879988 C205.693596,443.646988 205.761596,443.337988 205.994596,443.188988 C206.227596,443.039988 206.537596,443.108988 206.684596,443.340988 C206.886596,443.655988 226.752596,475.277988 224.786596,515.427988 C224.773596,515.695988 224.552596,515.903988 224.287596,515.903988" id="Fill-25" fill="#000"/>
                <path d="M214.400896,506.793688 C214.308896,506.793688 214.216896,506.768688 214.132896,506.715688 C210.888896,504.657688 206.990896,502.684688 202.547896,500.851688 C193.840896,497.258688 189.223896,492.457688 190.196896,488.006688 C191.110896,483.824688 196.627896,481.203688 203.929896,481.493688 C204.205896,481.504688 204.420896,481.736688 204.409896,482.012688 C204.399896,482.289688 204.175896,482.509688 203.890896,482.492688 C197.192896,482.226688 191.968896,484.585688 191.173896,488.219688 C190.313896,492.158688 194.707896,496.534688 202.929896,499.926688 C207.425896,501.781688 211.375896,503.781688 214.669896,505.871688 C214.901896,506.019688 214.971896,506.328688 214.823896,506.561688 C214.728896,506.711688 214.566896,506.793688 214.400896,506.793688" id="Fill-26" fill="#000"/>
                <path d="M227.949196,510.835188 C227.849196,510.835188 227.749196,510.805188 227.661196,510.744188 C227.436196,510.585188 227.382196,510.273188 227.541196,510.047188 C241.522196,490.211188 242.198196,483.023188 240.303196,480.486188 C238.389196,477.925188 233.272196,479.619188 233.221196,479.637188 C233.026196,479.701188 232.814196,479.644188 232.681196,479.489188 C232.549196,479.335188 232.523196,479.115188 232.616196,478.934188 C237.711196,469.068188 239.440196,461.947188 237.756196,457.768188 C237.043196,455.999188 235.689196,454.764188 233.730196,454.097188 C228.981196,452.481188 222.248196,454.676188 222.180196,454.699188 C221.918196,454.784188 221.635196,454.644188 221.548196,454.382188 C221.461196,454.120188 221.603196,453.837188 221.865196,453.750188 C222.154196,453.655188 228.981196,451.425188 234.052196,453.151188 C236.299196,453.916188 237.857196,455.343188 238.684196,457.395188 C240.421196,461.707188 238.851196,468.765188 234.017196,478.386188 C235.829196,477.979188 239.363196,477.559188 241.102196,479.885188 C244.150196,483.960188 239.863196,494.302188 228.358196,510.623188 C228.261196,510.761188 228.106196,510.835188 227.949196,510.835188" id="Fill-27" fill="#000"/>
                <path d="M230.263696,483.507088 C230.151696,483.507088 230.037696,483.469088 229.944696,483.392088 C229.732696,483.216088 229.702696,482.901088 229.878696,482.688088 C229.930696,482.625088 235.136696,476.275088 236.698696,469.660088 C236.762696,469.390088 237.029696,469.227088 237.299696,469.288088 C237.568696,469.351088 237.735696,469.621088 237.671696,469.889088 C236.054696,476.736088 230.868696,483.060088 230.648696,483.326088 C230.550696,483.445088 230.407696,483.507088 230.263696,483.507088" id="Fill-28" fill="#000"/>
                <path d="M222.023396,458.912288 C222.006396,458.912288 221.989396,458.911288 221.973396,458.910288 C221.698396,458.882288 221.498396,458.637288 221.525396,458.362288 C221.716396,456.460288 221.487396,453.945288 220.845396,450.885288 C220.788396,450.615288 220.961396,450.350288 221.231396,450.293288 C221.503396,450.238288 221.767396,450.410288 221.823396,450.680288 C222.487396,453.840288 222.721396,456.458288 222.520396,458.462288 C222.494396,458.720288 222.277396,458.912288 222.023396,458.912288" id="Fill-29" fill="#000"/>
                <path d="M237.185496,441.481688 C236.998496,441.481688 236.819496,441.377688 236.733496,441.197688 C234.865496,437.295688 233.294496,425.007688 233.228496,424.486688 C233.193496,424.212688 233.387496,423.961688 233.661496,423.927688 C233.940496,423.897688 234.185496,424.086688 234.220496,424.360688 C234.236496,424.486688 235.836496,437.008688 237.636496,440.765688 C237.755496,441.014688 237.649496,441.313688 237.400496,441.432688 C237.331496,441.465688 237.257496,441.481688 237.185496,441.481688" id="Fill-30" fill="#000"/>
                <path d="M274.338396,398.126688 C274.284396,398.126688 274.229396,398.117688 274.174396,398.099688 C273.913396,398.008688 273.775396,397.723688 273.865396,397.462688 C274.971396,394.270688 283.773396,386.356688 284.148396,386.021688 C284.352396,385.836688 284.669396,385.854688 284.854396,386.060688 C285.038396,386.265688 285.021396,386.581688 284.815396,386.766688 C284.725396,386.846688 275.832396,394.840688 274.811396,397.790688 C274.739396,397.997688 274.545396,398.126688 274.338396,398.126688" id="Fill-31" fill="#000"/>
            </g>
        </g>
        <g transform="translate(0.408400, -174.000000) scale(1 1)" id="Master/Character/Sitting on Floor">
            <g id="Master/Character/Sitting on Floor" stroke="none" stroke-width="1" fill="none" fill-rule="evenodd">
                <g id="Lower Body/Sitting on Floor" transform="translate(71.000000, 391.000000) scale(1 1)">
                    <g id="Lower Body/Sitting on Floor/Legs Crossed Gray Pants" stroke="none" stroke-width="1" fill="none" fill-rule="evenodd">
                        <g id="Group" transform="translate(89.000191, 284.999729)">
                            <path d="M177.409809,69.8658712 C174.545809,67.5478712 162.134809,64.9558712 151.904809,55.8178712 C141.675809,46.6788712 140.448809,54.0448712 137.993809,54.1808712 C135.538809,54.3178712 125.190809,54.9428712 125.190809,54.9428712 C125.190809,54.9428712 126.169809,58.1708712 122.538809,63.4828712 C122.538809,63.4828712 122.475809,64.5698712 121.932809,65.7978712 C126.151809,65.3638712 143.312809,66.0468712 143.312809,66.0468712 C175.090809,76.4128712 180.273809,72.1838712 177.409809,69.8658712 M77.4538094,65.8048712 C75.2588094,65.1348712 74.7688094,61.2748712 74.7688094,61.2748712 L77.4578094,62.1748712 L77.4538094,62.1528712 L53.8118094,54.1778712 C52.2928094,54.8268712 50.4258094,56.0528712 48.0888094,58.1398712 C37.8598094,67.2788712 25.4488094,69.8698712 22.5838094,72.1878712 C19.7198094,74.5078712 24.9028094,78.7348712 56.6808094,68.3698712 C56.6808094,68.3698712 74.5998094,67.6558712 78.3248094,68.1488712 L78.2908094,67.9178712 C77.5658094,66.6678712 77.4538094,65.8048712 77.4538094,65.8048712" id="Socks" fill="#53627B"/>
                            <path d="M125.958209,53.5841712 C125.945209,53.6011712 125.937209,53.6151712 125.925209,53.6321712 C127.014209,51.5741712 127.625209,49.7281712 127.851209,48.1241712 C127.599209,50.3931712 126.732209,52.5551712 125.958209,53.5841712 L125.958209,53.5841712 Z M189.487209,5.07817124 C177.899209,-2.50582876 157.977209,7.06317124 142.829209,15.7201712 L142.829209,15.7191712 L143.555209,8.29417124 C143.701209,6.79417124 142.522209,5.49417124 141.014209,5.49417124 L57.7312094,5.49417124 C56.4632094,5.49417124 55.4862094,6.61417124 55.6602094,7.87017124 L56.3322094,12.7421712 L56.3392094,12.9271712 C41.2992094,4.40017124 21.8842094,-4.69182876 10.5062094,2.75517124 C-7.21079057,14.3531712 0.520209428,31.1051712 11.4732094,37.7091712 C22.4262094,44.3131712 96.8422094,68.1511712 106.345209,72.5011712 C115.849209,76.8491712 118.909209,68.7961712 118.909209,68.7961712 C122.326209,67.4571712 122.539209,63.4831712 122.539209,63.4831712 C126.169209,58.1701712 125.191209,54.9431712 125.191209,54.9431712 C125.329209,54.7151712 125.438209,54.4981712 125.565209,54.2741712 C125.230209,55.2841712 126.861209,54.9431712 126.861209,54.9431712 L134.917209,54.3601712 C138.203209,54.1651712 139.189209,53.6001712 139.189209,53.6001712 L141.811209,51.6171712 C145.646209,49.9631712 150.774209,54.7071712 150.774209,54.7071712 C168.203209,48.5901712 183.932209,42.7981712 188.520209,40.0311712 C199.474209,33.4271712 207.205209,16.6751712 189.487209,5.07817124 L189.487209,5.07817124 Z M74.7692094,61.2741712 C74.7692094,61.2741712 75.2582094,65.1351712 77.4542094,65.8061712 C77.4542094,65.8061712 77.7772094,68.3881712 81.0842094,71.1181712 C81.0842094,71.1181712 84.1452094,79.1721712 93.6482094,74.8231712 C95.1772094,74.1231712 98.3862094,72.9191712 102.740209,71.3631712 L79.6262094,62.9001712 L74.7692094,61.2741712 Z" id="Pants" fill="#F1EFEF"/>
                            <path d="M125.190609,55.4435712 C125.102609,55.4435712 125.013609,55.4205712 124.932609,55.3715712 C124.696609,55.2285712 124.620609,54.9215712 124.762609,54.6855712 C127.440609,50.2505712 128.172609,46.2505712 126.771609,43.7115712 C126.010609,42.3325712 124.686609,41.5555712 123.044609,41.5245712 C120.084609,41.4675712 84.2246094,27.9105712 75.0686094,24.1575712 C74.8136094,24.0525712 74.6906094,23.7605712 74.7956094,23.5055712 C74.9006094,23.2495712 75.1936094,23.1295712 75.4476094,23.2325712 C85.6556094,27.4165712 120.397609,40.4735712 123.063609,40.5245712 C125.048609,40.5625712 126.719609,41.5475712 127.647609,43.2285712 C129.225609,46.0885712 128.486609,50.4525712 125.619609,55.2015712 C125.524609,55.3575712 125.359609,55.4435712 125.190609,55.4435712" id="Fill-8" fill="#000"/>
                            <path d="M111.565609,74.2911712 C109.897609,74.2911712 108.082609,73.8451712 106.137609,72.9551712 C102.532609,71.3051712 89.3436094,66.7701712 74.0716094,61.5181712 C66.3326094,58.8561712 58.3296094,56.1041712 50.4666094,53.3511712 C50.2066094,53.2601712 50.0686094,52.9751712 50.1606094,52.7141712 C50.2516094,52.4541712 50.5376094,52.3161712 50.7966094,52.4081712 C58.6566094,55.1601712 66.6586094,57.9121712 74.3976094,60.5721712 C89.6936094,65.8331712 102.903609,70.3751712 106.553609,72.0461712 C109.539609,73.4121712 112.156609,73.6541712 114.335609,72.7661712 C117.281609,71.5631712 118.430609,68.6461712 118.441609,68.6171712 C118.541609,68.3591712 118.830609,68.2291712 119.087609,68.3291712 C119.345609,68.4271712 119.474609,68.7151712 119.376609,68.9731712 C119.325609,69.1091712 118.075609,72.3121712 114.725609,73.6861712 C113.742609,74.0891712 112.687609,74.2911712 111.565609,74.2911712" id="Fill-12" fill="#000"/>
                            <path d="M124.898609,60.3878712 C124.835609,60.3878712 124.770609,60.3758712 124.708609,60.3498712 C124.452609,60.2448712 124.331609,59.9528712 124.436609,59.6978712 C125.540609,57.0148712 125.020609,54.6948712 122.892609,52.7988712 C122.686609,52.6158712 122.668609,52.2988712 122.851609,52.0928712 C123.036609,51.8878712 123.352609,51.8688712 123.557609,52.0518712 C126.646609,54.8028712 126.242609,57.9348712 125.360609,60.0778712 C125.281609,60.2708712 125.094609,60.3878712 124.898609,60.3878712" id="Fill-14" fill="#000"/>
                            <path d="M117.256009,69.1442712 C116.153009,69.1442712 115.347009,68.8422712 115.330009,68.8352712 C115.073009,68.7362712 114.945009,68.4482712 115.044009,68.1902712 C115.144009,67.9332712 115.433009,67.8052712 115.690009,67.9022712 C115.810009,67.9482712 118.654009,68.9922712 120.628009,66.5172712 C120.800009,66.3022712 121.114009,66.2652712 121.330009,66.4372712 C121.547009,66.6102712 121.582009,66.9242712 121.410009,67.1402712 C120.118009,68.7612712 118.498009,69.1442712 117.256009,69.1442712" id="Fill-16" fill="#000"/>
                            <path d="M121.669109,66.3263712 C121.615109,66.3263712 121.561109,66.3173712 121.507109,66.2993712 C121.246109,66.2103712 121.107109,65.9263712 121.196109,65.6643712 C122.615109,61.5143712 120.658109,59.6443712 120.574109,59.5673712 C120.372109,59.3803712 120.357109,59.0653712 120.543109,58.8623712 C120.727109,58.6583712 121.040109,58.6403712 121.245109,58.8253712 C121.349109,58.9193712 123.786109,61.1793712 122.142109,65.9883712 C122.071109,66.1963712 121.877109,66.3263712 121.669109,66.3263712" id="Fill-18" fill="#000"/>
                            <path d="M147.078309,57.4464712 C142.254309,57.4464712 137.964309,54.7564712 137.724309,54.6024712 C137.492309,54.4544712 137.423309,54.1454712 137.572309,53.9124712 C137.720309,53.6794712 138.030309,53.6124712 138.262309,53.7594712 C138.336309,53.8064712 145.764309,58.4564712 151.673309,55.3744712 C151.920309,55.2454712 152.220309,55.3424712 152.348309,55.5864712 C152.475309,55.8314712 152.381309,56.1334712 152.136309,56.2614712 C150.483309,57.1234712 148.748309,57.4464712 147.078309,57.4464712" id="Fill-20" fill="#000"/>
                            <path d="M167.620809,72.7633712 C167.369809,72.7633712 167.152809,72.5743712 167.123809,72.3183712 C166.642809,67.9673712 170.252809,66.2593712 170.288809,66.2423712 C170.538809,66.1283712 170.834809,66.2373712 170.950809,66.4873712 C171.066809,66.7373712 170.956809,67.0343712 170.707809,67.1503712 C170.584809,67.2073712 167.717809,68.5893712 168.118809,72.2083712 C168.148809,72.4833712 167.950809,72.7303712 167.676809,72.7603712 C167.657809,72.7623712 167.638809,72.7633712 167.620809,72.7633712" id="Fill-22" fill="#000"/>
                            <path d="M103.133009,34.8409712 C102.930009,34.8409712 102.739009,34.7169712 102.665009,34.5159712 C102.568009,34.2569712 102.699009,33.9689712 102.958009,33.8729712 C111.643009,30.6299712 120.319009,27.2869712 124.546009,25.5549712 C126.702009,24.6709712 130.194009,22.5919712 134.615009,19.9599712 C139.334009,17.1499712 145.206009,13.6539712 151.336009,10.5309712 C151.582009,10.4039712 151.883009,10.5039712 152.008009,10.7499712 C152.134009,10.9959712 152.036009,11.2969712 151.790009,11.4219712 C145.689009,14.5299712 139.833009,18.0169712 135.127009,20.8189712 C130.670009,23.4719712 127.150009,25.5689712 124.925009,26.4799712 C120.689009,28.2159712 112.002009,31.5639712 103.308009,34.8089712 C103.250009,34.8309712 103.191009,34.8409712 103.133009,34.8409712" id="Fill-24" fill="#000"/>
                            <path d="M93.6486094,75.3229712 C93.4586094,75.3229712 93.2776094,75.2149712 93.1936094,75.0309712 C93.0786094,74.7799712 93.1896094,74.4829712 93.4406094,74.3679712 C94.8706094,73.7139712 97.8576094,72.5769712 102.572609,70.8929712 C102.830609,70.7989712 103.118609,70.9359712 103.211609,71.1959712 C103.304609,71.4559712 103.168609,71.7419712 102.908609,71.8349712 C98.2216094,73.5089712 95.2606094,74.6349712 93.8566094,75.2779712 C93.7886094,75.3079712 93.7176094,75.3229712 93.6486094,75.3229712" id="Fill-26" fill="#000"/>
                            <path d="M82.7355094,71.4781712 C82.0095094,71.4781712 81.1525094,71.3431712 80.3005094,70.9001712 C78.6995094,70.0671712 77.5785094,68.3931712 76.9685094,65.9251712 C76.9025094,65.6571712 77.0665094,65.3861712 77.3345094,65.3201712 C77.6045094,65.2561712 77.8735094,65.4181712 77.9395094,65.6861712 C78.4755094,67.8561712 79.4225094,69.3111712 80.7525094,70.0081712 C82.4655094,70.9061712 84.2865094,70.2311712 84.3045094,70.2251712 C84.5605094,70.1261712 84.8505094,70.2561712 84.9495094,70.5131712 C85.0485094,70.7701712 84.9215094,71.0591712 84.6645094,71.1581712 C84.6105094,71.1791712 83.8175094,71.4781712 82.7355094,71.4781712" id="Fill-28" fill="#000"/>
                            <path d="M53.1100094,59.8375712 C51.4160094,59.8375712 49.6160094,59.5015712 47.8570094,58.5835712 C47.6120094,58.4555712 47.5180094,58.1535712 47.6450094,57.9085712 C47.7740094,57.6645712 48.0740094,57.5695712 48.3200094,57.6965712 C54.2240094,60.7785712 60.9530094,56.5355712 61.0200094,56.4915712 C61.2510094,56.3425712 61.5610094,56.4085712 61.7110094,56.6415712 C61.8600094,56.8735712 61.7940094,57.1825712 61.5620094,57.3325712 C61.3480094,57.4705712 57.6050094,59.8375712 53.1100094,59.8375712" id="Fill-30" fill="#000"/>
                            <path d="M32.3732094,75.0856712 C32.3552094,75.0856712 32.3362094,75.0846712 32.3172094,75.0826712 C32.0432094,75.0526712 31.8452094,74.8046712 31.8752094,74.5306712 C32.2762094,70.9126712 29.4082094,69.5296712 29.2862094,69.4726712 C29.0372094,69.3566712 28.9272094,69.0596712 29.0432094,68.8096712 C29.1582094,68.5596712 29.4562094,68.4516712 29.7052094,68.5646712 C29.7412094,68.5816712 33.3512094,70.2906712 32.8702094,74.6406712 C32.8412094,74.8966712 32.6242094,75.0856712 32.3732094,75.0856712" id="Fill-32" fill="#000"/>
                        </g>
                    </g>
                </g>
                <g id="Upper Body" transform="translate(8.000000, 378.000000) scale(1 1)">
                    <g id="Upper Body/Reading" stroke="none" stroke-width="1" fill="none" fill-rule="evenodd">
                        <path d="M235.909,184.1141 C235.909,184.1141 184.446,188.0601 168.5,254.2611 C168.5,254.2611 168.5,277.8481 203.533,290.9401 C203.533,290.9401 199.61,306.1481 203.263,306.6571 C207.389,307.2321 299.016,306.6571 299.016,306.6571 C299.016,306.6571 303.316,306.8211 302.728,299.1671 C302.005,289.7691 299.453,262.1121 297.278,247.9181 L301.948,249.1531 C301.948,249.1531 303.963,274.6251 307.748,277.3691 C311.533,280.1141 337.386,270.6911 338.835,248.9461 C340.285,227.2011 298.845,183.7111 263.453,184.6781 L263.49,184.1051 C263.731,180.4481 260.83,177.3491 257.165,177.3491 L242.249,177.3491 C238.747,177.3491 235.909,180.1871 235.909,183.6881 L235.909,184.1141 Z" id="Sweater" fill="#F0BE91"/>
                        <polygon id="Fill-4" fill="#F1EFEF" points="290.6423 233.0508 290.6423 230.2538 272.2393 246.6528 272.2393 246.6898 248.2293 231.1898 248.2293 233.7438 246.2983 232.5188 246.2983 280.4788 272.3113 290.9408 272.3113 288.5118 272.3863 288.4618 272.3863 288.6158 292.1683 277.0678 292.1683 231.1608"/>
                        <path d="M236.0632,297.8951 C235.9992,297.8951 235.9532,297.8881 235.9312,297.8841 C235.8632,297.8711 235.7972,297.8441 235.7402,297.8041 C233.6172,296.3271 232.5752,290.8181 232.5552,280.9631 C232.5422,274.6571 232.9862,268.5941 233.0922,267.2281 C225.1692,261.7311 195.1012,254.9871 194.7952,254.9181 C194.5262,254.8581 194.3562,254.5911 194.4162,254.3221 C194.4752,254.0541 194.7422,253.8801 195.0122,253.9431 C196.2822,254.2261 226.1832,260.9341 233.9092,266.5821 C234.0492,266.6851 234.1262,266.8541 234.1122,267.0281 C233.4892,274.3961 232.6672,293.9071 236.1672,296.8721 C236.4522,296.6841 237.8612,295.3681 237.3772,286.6091 C237.3622,286.3331 237.5732,286.0981 237.8492,286.0821 C238.1402,286.0631 238.3612,286.2791 238.3762,286.5541 C238.7142,292.6921 238.2172,296.3901 236.8972,297.5451 C236.5552,297.8441 236.2402,297.8951 236.0632,297.8951" id="Fill-6" fill="#000"/>
                        <path d="M236.0252,297.8931 C236.0182,297.8931 236.0102,297.8931 236.0032,297.8931 C235.8452,297.8861 220.0852,297.1251 203.9322,291.4251 C182.4542,283.8471 170.0302,271.0161 168.0042,254.3211 C167.9702,254.0471 168.1662,253.7981 168.4392,253.7651 C168.7052,253.7321 168.9622,253.9261 168.9962,254.2011 C173.7852,293.6541 235.4252,296.8661 236.0472,296.8931 C236.3232,296.9061 236.5372,297.1401 236.524762,297.4151 C236.5122,297.6841 236.2922,297.8931 236.0252,297.8931" id="Fill-8" fill="#000"/>
                        <path d="M206.6775,257.8204 C206.6525,257.8204 206.6275,257.8184 206.6025,257.8154 C206.3285,257.7744 206.1415,257.5194 206.1825,257.2464 C207.9295,245.6064 217.1365,234.4814 217.2295,234.3704 C217.4065,234.1584 217.7225,234.1314 217.9335,234.3074 C218.1455,234.4844 218.1735,234.7994 217.9965,235.0114 C217.9065,235.1204 208.8765,246.0364 207.1705,257.3944 C207.1335,257.6424 206.9205,257.8204 206.6775,257.8204" id="Fill-10" fill="#000"/>
                        <path d="M300.7381,282.754 C300.4791,282.768 300.2371,282.529 300.2381,282.252 C300.3481,256.608 293.6941,227.185 293.6461,226.891 C293.6031,226.618 293.7891,226.362 294.0611,226.318 C294.3391,226.271 294.5901,226.461 294.6341,226.733 C294.6811,227.028 301.3481,256.531 301.2381,282.256 C301.2371,282.531 301.0131,282.754 300.7381,282.754" id="Fill-12" fill="#000"/>
                        <path d="M306.7683,279.0684 C306.5863,279.0684 306.4083,278.9804 306.2813,278.8134 C304.2073,276.0834 303.3543,269.2454 303.3193,268.9564 C303.2863,268.6824 303.4803,268.4324 303.7543,268.3994 C304.0223,268.3574 304.2783,268.5604 304.3113,268.8354 C304.3193,268.8984 305.0413,274.6854 306.6543,277.5554 C307.4583,273.5224 308.6293,253.2054 306.4013,248.1194 C305.7743,246.6884 305.4093,246.6374 305.4023,246.6374 C305.0963,246.6804 304.5413,248.0934 304.3103,249.7854 C304.2733,250.0584 304.0133,250.2554 303.7473,250.2134 C303.4743,250.1754 303.2833,249.9234 303.3203,249.6504 C303.4753,248.5064 303.9763,245.8274 305.2633,245.6474 C306.2383,245.5154 306.8993,246.7644 307.3173,247.7184 C308.8273,251.1644 308.7473,261.0004 308.6413,265.0694 C308.6073,266.4194 308.2673,278.2794 307.0633,278.9864 C306.9693,279.0424 306.8693,279.0684 306.7683,279.0684" id="Fill-14" fill="#000"/>
                        <path d="M305.365,246.5054 C305.262,246.5054 305.159,246.4744 305.07,246.4094 C304.847,246.2464 304.799,245.9334 304.962,245.7104 C305.141,245.4644 309.477,239.6504 319.726,235.7554 C319.982,235.6574 320.273,235.7864 320.372,236.0454 C320.469,236.3034 320.34,236.5914 320.082,236.6904 C310.107,240.4814 305.811,246.2424 305.768,246.3004 C305.671,246.4344 305.518,246.5054 305.365,246.5054" id="Fill-16" fill="#000"/>
                        <polygon id="Book" fill="#E2A2B5" points="272.3123 247.046 272.3123 247.053 272.3113 247.046 242.9963 234.692 242.9963 280.597 272.3113 292.146 272.3123 292.145 272.3123 292.147 293.0953 280.598 293.0953 234.692"/>
                        <path d="M307.2263,250.7393 C307.2263,250.7393 300.9123,247.9693 293.1713,247.9193 L293.0743,251.9683 C294.5633,252.4473 295.7533,252.8203 295.8293,252.9723 C295.8293,252.9723 276.9013,254.5103 276.9313,257.3203 C276.9613,260.1303 292.5303,259.2353 292.5303,259.2353 C292.5303,259.2353 273.3883,261.0723 273.8013,263.2913 C274.1163,264.9753 280.8623,265.8583 287.2903,265.3853 C282.7573,266.1723 277.1213,267.4183 276.4873,268.8363 C275.4103,271.2473 287.2563,271.2683 294.1403,268.5713 C294.1403,268.5713 280.9003,273.6703 282.2853,275.9513 C283.6703,278.2313 294.3373,273.3693 296.2353,272.5753 L307.7473,266.9863 C308.2623,261.7373 307.2263,250.7393 307.2263,250.7393 L307.2263,250.7393 Z M256.9683,275.6033 C262.9523,273.2013 268.6223,269.4423 268.1633,267.7923 C267.5603,265.6173 249.5603,272.3823 249.5603,272.3823 C249.5603,272.3823 263.9363,266.3423 262.7283,263.8043 C261.5203,261.2683 245.4533,268.2743 245.4533,268.2743 C245.4533,267.6713 255.2313,258.3443 247.5333,261.0153 C238.4463,264.1673 233.6143,272.3823 233.6143,272.3823 L233.6143,286.7583 L252.0973,285.9933 C254.1513,285.8723 265.8693,285.5503 266.1103,282.8923 C266.3523,280.2343 252.2173,281.4763 252.2173,281.4763 C259.5863,280.8723 270.2173,275.6433 268.1903,273.9523 C266.9973,272.9583 261.3863,274.3163 256.9683,275.6033 L256.9683,275.6033 Z M243.3523,178.1543 L257.5263,178.1543 L257.5263,171.1543 L243.3523,171.1543 L243.3523,178.1543 Z" id="Skin" fill="#c3986a"/>
                        <path d="M243.1913,234.2301 L272.5053,246.5841 C272.6913,246.6631 272.8113,246.8441 272.8113,247.0451 L272.8113,292.1461 C272.8113,292.4221 272.5873,292.6461 272.3113,292.6461 C272.0353,292.6461 271.8113,292.4221 271.8113,292.1461 L271.8113,247.3771 L242.8023,235.1521 C242.5483,235.0441 242.4283,234.7511 242.5363,234.4971 C242.6443,234.2421 242.9383,234.1251 243.1913,234.2301 Z M268.5104,273.5688 C268.8994,273.8928 269.0334,274.3588 268.8784,274.8458 C268.3154,276.6258 263.5114,279.1488 258.5054,280.6818 C261.7624,280.6628 265.2034,280.9118 266.2264,281.9368 C266.5094,282.2218 266.6414,282.5678 266.6084,282.9378 C266.4254,284.9488 262.3034,286.0008 252.8254,286.4568 L252.1264,286.4918 C252.1174,286.4928 252.1074,286.4928 252.0974,286.4928 C251.8334,286.4928 251.6144,286.2878 251.5984,286.0218 C251.5814,285.7458 251.7924,285.5098 252.0684,285.4938 L252.7774,285.4578 C264.1974,284.9088 265.5574,283.4498 265.6124,282.8468 C265.6154,282.8118 265.6204,282.7468 265.5184,282.6428 C264.3084,281.4298 256.9204,281.5768 252.4254,281.9598 C252.3694,281.9648 252.3134,281.9698 252.2584,281.9748 C251.9894,281.9918 251.7434,281.7938 251.7194,281.5188 C251.6964,281.2438 251.8994,281.0018 252.1734,280.9778 C252.2144,280.9748 252.2674,280.9698 252.3284,280.9648 C258.7894,280.3828 267.3634,276.3198 267.9254,274.5438 C267.9604,274.4338 267.9444,274.3988 267.8694,274.3368 C267.6584,274.1598 267.6294,273.8448 267.8064,273.6328 C267.9844,273.4198 268.2994,273.3928 268.5104,273.5688 Z M263.1799,263.5902 C263.2879,263.8172 263.3789,264.1912 263.1919,264.6782 C262.7009,265.9672 260.2649,267.6082 257.5889,269.0842 C262.1749,267.6342 267.0899,266.3502 268.2459,267.0812 C268.4909,267.2372 268.6389,267.4742 268.6619,267.7502 C268.9099,270.6812 258.2149,276.5412 251.4679,277.8602 C251.4349,277.8662 251.4029,277.8692 251.3709,277.8692 C251.1369,277.8692 250.9279,277.7032 250.8809,277.4652 C250.8279,277.1942 251.0049,276.9312 251.2759,276.8782 C258.6119,275.4452 267.6129,269.8162 267.6679,267.8992 C266.4889,267.2812 257.5179,269.9592 249.7339,272.8502 C249.4809,272.9462 249.1949,272.8182 249.0959,272.5662 C248.9949,272.3132 249.1159,272.0262 249.3669,271.9212 C254.1499,269.9102 261.5309,266.2282 262.2589,264.3222 C262.3309,264.1322 262.2919,264.0502 262.2769,264.0192 C262.1579,263.7702 262.2649,263.4722 262.5139,263.3532 C262.7619,263.2342 263.0609,263.3402 263.1799,263.5902 Z M308.0255,266.7681 C308.1455,267.0161 308.0415,267.3151 307.7935,267.4351 L295.6115,273.3111 C289.7445,275.8411 285.9405,277.0611 283.7595,277.0611 C282.7015,277.0611 282.0275,276.7741 281.6845,276.2101 C281.5415,275.9741 281.6155,275.6671 281.8525,275.5231 C282.0855,275.3801 282.3945,275.4541 282.5395,275.6911 C282.8525,276.2081 284.7175,276.9191 295.2145,272.3931 L295.8675,272.1131 L307.3565,266.5361 C307.6065,266.4161 307.9045,266.5191 308.0255,266.7681 Z M250.8081,260.5299 C251.5821,261.6739 249.6851,264.0199 247.1251,266.9679 C246.6231,267.5469 246.0551,268.1989 245.9371,268.4019 C245.8811,268.6159 245.6851,268.7749 245.4531,268.7749 C245.1761,268.7749 244.9531,268.5509 244.9531,268.2749 C244.9531,267.9669 245.1491,267.7189 246.3701,266.3129 C247.3461,265.1889 250.3171,261.7669 249.9791,261.0899 C249.9781,261.0899 249.6431,260.8139 247.6971,261.4869 C238.8981,264.5399 234.0921,272.5549 234.0451,272.6359 C233.9521,272.7939 233.7851,272.8819 233.6131,272.8819 C233.5271,272.8819 233.4401,272.8599 233.3601,272.8129 C233.1231,272.6729 233.0431,272.3659 233.1831,272.1289 C233.3841,271.7869 238.2141,263.7189 247.3691,260.5429 C249.3011,259.8739 250.3601,259.8689 250.8081,260.5299 Z M294.6064,268.3885 C294.7064,268.6465 294.5794,268.9365 294.3234,269.0365 C290.8734,270.3885 285.9404,271.1275 282.0574,271.1275 C279.2744,271.1275 277.0314,270.7485 276.2614,269.9415 C275.9084,269.5715 275.8244,269.0945 276.0314,268.6315 C276.1434,268.3805 276.4394,268.2655 276.6914,268.3795 C276.9434,268.4925 277.0564,268.7875 276.9434,269.0405 C276.9044,269.1285 276.9054,269.1675 276.9854,269.2515 C278.2814,270.6085 287.9064,270.4775 293.9574,268.1065 C294.2174,268.0055 294.5054,268.1315 294.6064,268.3885 Z M274.2923,263.1992 C274.3033,263.2542 274.3633,263.4062 274.6903,263.6162 C277.0813,265.1492 286.5553,265.6312 292.9733,264.0252 C293.2363,263.9552 293.5113,264.1212 293.5803,264.3892 C293.6463,264.6572 293.4843,264.9282 293.2153,264.9952 C290.4663,265.6832 286.9963,266.0142 283.7293,266.0142 C279.5693,266.0142 275.7403,265.4772 274.1503,264.4572 C273.6673,264.1482 273.3853,263.7862 273.3103,263.3832 C273.2593,263.1112 273.4383,262.8502 273.7093,262.7992 C273.9753,262.7512 274.2423,262.9272 274.2923,263.1992 Z M276.9312,256.8205 C277.2052,256.8205 277.4282,257.0405 277.4312,257.3155 C277.4312,257.3495 277.4322,257.4395 277.5812,257.5785 C279.0732,258.9705 287.3192,259.0325 292.5012,258.7355 C292.8142,258.7265 293.0132,258.9315 293.0292,259.2065 C293.0442,259.4825 292.8342,259.7185 292.5582,259.7335 C292.0242,259.7645 289.8522,259.8795 287.2722,259.8795 C283.2692,259.8795 278.2842,259.6035 276.8982,258.3095 C276.5172,257.9535 276.4342,257.5775 276.43117,257.3255 C276.4282,257.0495 276.6502,256.8235 276.9252,256.8205 L276.9312,256.8205 Z M256.5261,178.1544 L242.3521,178.1544" id="Combined-Shape" fill="#000"/>
                        <path d="M267.0886,206.546 C266.5606,206.546 266.1316,206.975 266.1316,207.503 C266.1316,208.031 266.5606,208.46 267.0886,208.46 C267.6166,208.46 268.0456,208.031 268.0456,207.503 C268.0456,206.975 267.6166,206.546 267.0886,206.546 M272.8446,225.855 C272.8446,225.326 272.4156,224.898 271.8876,224.898 C271.3586,224.898 270.9306,225.326 270.9306,225.855 C270.9306,226.384 271.3586,226.813 271.8876,226.813 C272.4156,226.813 272.8446,226.384 272.8446,225.855 M266.1316,294.382 C265.6026,294.382 265.1736,294.811 265.1736,295.34 C265.1736,295.868 265.6026,296.297 266.1316,296.297 C266.6596,296.297 267.0886,295.868 267.0886,295.34 C267.0886,294.811 266.6596,294.382 266.1316,294.382 M272.3116,240.157 C271.7826,240.157 271.3546,240.586 271.3546,241.114 C271.3546,241.643 271.7826,242.071 272.3116,242.071 C272.8406,242.071 273.2696,241.643 273.2696,241.114 C273.2696,240.586 272.8406,240.157 272.3116,240.157 M274.7596,302.948 C274.2306,302.948 273.8016,303.377 273.8016,303.905 C273.8016,304.435 274.2306,304.863 274.7596,304.863 C275.2876,304.863 275.7166,304.435 275.7166,303.905 C275.7166,303.377 275.2876,302.948 274.7596,302.948 M253.6866,296.439 C253.1566,296.439 252.7286,296.867 252.7286,297.396 C252.7286,297.925 253.1566,298.354 253.6866,298.354 C254.2146,298.354 254.6436,297.925 254.6436,297.396 C254.6436,296.867 254.2146,296.439 253.6866,296.439 M249.4396,199.999 C248.9106,199.999 248.4826,200.427 248.4826,200.956 C248.4826,201.484 248.9106,201.913 249.4396,201.913 C249.9676,201.913 250.3966,201.484 250.3966,200.956 C250.3966,200.427 249.9676,199.999 249.4396,199.999 M246.2986,289.026 C245.7696,289.026 245.3416,289.454 245.3416,289.984 C245.3416,290.512 245.7696,290.941 246.2986,290.941 C246.8266,290.941 247.2556,290.512 247.2556,289.984 C247.2556,289.454 246.8266,289.026 246.2986,289.026 M261.2276,188.887 C260.6976,188.887 260.2706,189.316 260.2706,189.845 C260.2706,190.373 260.6976,190.802 261.2276,190.802 C261.7556,190.802 262.1846,190.373 262.1846,189.845 C262.1846,189.316 261.7556,188.887 261.2276,188.887 M258.8636,223.941 C258.3346,223.941 257.9056,224.369 257.9056,224.898 C257.9056,225.427 258.3346,225.855 258.8636,225.855 C259.3926,225.855 259.8206,225.427 259.8206,224.898 C259.8206,224.369 259.3926,223.941 258.8636,223.941 M249.4396,182.521 C248.9106,182.521 248.4826,182.948 248.4826,183.478 C248.4826,184.006 248.9106,184.435 249.4396,184.435 C249.9676,184.435 250.3966,184.006 250.3966,183.478 C250.3966,182.948 249.9676,182.521 249.4396,182.521 M282.2846,223.941 C281.7566,223.941 281.3276,224.369 281.3276,224.898 C281.3276,225.427 281.7566,225.855 282.2846,225.855 C282.8146,225.855 283.2426,225.427 283.2426,224.898 C283.2426,224.369 282.8146,223.941 282.2846,223.941 M310.8596,230.254 C310.3316,230.254 309.9026,230.683 309.9026,231.211 C309.9026,231.74 310.3316,232.168 310.8596,232.168 C311.3886,232.168 311.8176,231.74 311.8176,231.211 C311.8176,230.683 311.3886,230.254 310.8596,230.254 M314.5656,246.962 C314.0366,246.962 313.6086,247.391 313.6086,247.919 C313.6086,248.447 314.0366,248.876 314.5656,248.876 C315.0936,248.876 315.5226,248.447 315.5226,247.919 C315.5226,247.391 315.0936,246.962 314.5656,246.962 M242.9956,218.388 C242.4676,218.388 242.0386,218.817 242.0386,219.345 C242.0386,219.874 242.4676,220.303 242.9956,220.303 C243.5256,220.303 243.9536,219.874 243.9536,219.345 C243.9536,218.817 243.5256,218.388 242.9956,218.388 M318.9466,269.663 C318.4186,269.663 317.9896,270.092 317.9896,270.62 C317.9896,271.149 318.4186,271.577 318.9466,271.577 C319.4756,271.577 319.9036,271.149 319.9036,270.62 C319.9036,270.092 319.4756,269.663 318.9466,269.663 M324.9126,256.363 C324.3846,256.363 323.9556,256.792 323.9556,257.32 C323.9556,257.849 324.3846,258.277 324.9126,258.277 C325.4426,258.277 325.8706,257.849 325.8706,257.32 C325.8706,256.792 325.4426,256.363 324.9126,256.363 M335.7756,246.962 C335.2456,246.962 334.8176,247.391 334.8176,247.919 C334.8176,248.447 335.2456,248.876 335.7756,248.876 C336.3036,248.876 336.7326,248.447 336.7326,247.919 C336.7326,247.391 336.3036,246.962 335.7756,246.962 M326.8276,233.734 C326.2996,233.734 325.8706,234.163 325.8706,234.692 C325.8706,235.22 326.2996,235.649 326.8276,235.649 C327.3566,235.649 327.7846,235.22 327.7846,234.692 C327.7846,234.163 327.3566,233.734 326.8276,233.734 M287.1936,193.146 C286.6656,193.146 286.2366,193.574 286.2366,194.104 C286.2366,194.632 286.6656,195.061 287.1936,195.061 C287.7226,195.061 288.1506,194.632 288.1506,194.104 C288.1506,193.574 287.7226,193.146 287.1936,193.146 M285.2786,291.19 C284.7506,291.19 284.3216,291.618 284.3216,292.147 C284.3216,292.675 284.7506,293.104 285.2786,293.104 C285.8086,293.104 286.2366,292.675 286.2366,292.147 C286.2366,291.618 285.8086,291.19 285.2786,291.19 M307.7476,215.563 C307.2196,215.563 306.7906,215.991 306.7906,216.52 C306.7906,217.049 307.2196,217.478 307.7476,217.478 C308.2766,217.478 308.7046,217.049 308.7046,216.52 C308.7046,215.991 308.2766,215.563 307.7476,215.563 M290.7716,205.589 C290.2426,205.589 289.8146,206.017 289.8146,206.546 C289.8146,207.074 290.2426,207.503 290.7716,207.503 C291.3006,207.503 291.7296,207.074 291.7296,206.546 C291.7296,206.017 291.3006,205.589 290.7716,205.589 M293.1686,302.948 C292.6406,302.948 292.2116,303.377 292.2116,303.905 C292.2116,304.435 292.6406,304.863 293.1686,304.863 C293.6966,304.863 294.1256,304.435 294.1256,303.905 C294.1256,303.377 293.6966,302.948 293.1686,302.948 M301.3596,237.231 C300.8306,237.231 300.4016,237.659 300.4016,238.188 C300.4016,238.716 300.8306,239.145 301.3596,239.145 C301.8886,239.145 302.3166,238.716 302.3166,238.188 C302.3166,237.659 301.8886,237.231 301.3596,237.231 M295.0166,285.036 C294.4876,285.036 294.0596,285.464 294.0596,285.993 C294.0596,286.522 294.4876,286.95 295.0166,286.95 C295.5456,286.95 295.9736,286.522 295.9736,285.993 C295.9736,285.464 295.5456,285.036 295.0166,285.036 M234.5706,231.211 C234.0426,231.211 233.6136,231.64 233.6136,232.168 C233.6136,232.697 234.0426,233.126 234.5706,233.126 C235.0996,233.126 235.5276,232.697 235.5276,232.168 C235.5276,231.64 235.0996,231.211 234.5706,231.211 M194.9036,275.597 C194.3756,275.597 193.9466,276.026 193.9466,276.555 C193.9466,277.083 194.3756,277.512 194.9036,277.512 C195.4336,277.512 195.8616,277.083 195.8616,276.555 C195.8616,276.026 195.4336,275.597 194.9036,275.597 M194.9036,244.091 C194.3756,244.091 193.9466,244.52 193.9466,245.049 C193.9466,245.577 194.3756,246.006 194.9036,246.006 C195.4336,246.006 195.8616,245.577 195.8616,245.049 C195.8616,244.52 195.4336,244.091 194.9036,244.091 M197.7756,227.77 C197.2476,227.77 196.8186,228.198 196.8186,228.727 C196.8186,229.255 197.2476,229.684 197.7756,229.684 C198.3046,229.684 198.7336,229.255 198.7336,228.727 C198.7336,228.198 198.3046,227.77 197.7756,227.77 M195.8616,208.46 C195.3326,208.46 194.9036,208.889 194.9036,209.417 C194.9036,209.946 195.3326,210.375 195.8616,210.375 C196.3906,210.375 196.8186,209.946 196.8186,209.417 C196.8186,208.889 196.3906,208.46 195.8616,208.46 M187.5006,238.188 C186.9716,238.188 186.5436,238.616 186.5436,239.145 C186.5436,239.673 186.9716,240.102 187.5006,240.102 C188.0286,240.102 188.4576,239.673 188.4576,239.145 C188.4576,238.616 188.0286,238.188 187.5006,238.188 M237.9776,303.905 C237.4486,303.905 237.0206,304.334 237.0206,304.863 C237.0206,305.392 237.4486,305.82 237.9776,305.82 C238.5056,305.82 238.9346,305.392 238.9346,304.863 C238.9346,304.334 238.5056,303.905 237.9776,303.905 M185.5856,226.813 C185.0576,226.813 184.6286,227.241 184.6286,227.77 C184.6286,228.298 185.0576,228.727 185.5856,228.727 C186.1146,228.727 186.5436,228.298 186.5436,227.77 C186.5436,227.241 186.1146,226.813 185.5856,226.813 M224.5106,208.46 C225.0386,208.46 225.4676,208.031 225.4676,207.503 C225.4676,206.975 225.0386,206.546 224.5106,206.546 C223.9816,206.546 223.5526,206.975 223.5526,207.503 C223.5526,208.031 223.9816,208.46 224.5106,208.46 M205.7196,266.029 C205.1906,266.029 204.7616,266.458 204.7616,266.986 C204.7616,267.515 205.1906,267.943 205.7196,267.943 C206.2476,267.943 206.6766,267.515 206.6766,266.986 C206.6766,266.458 206.2476,266.029 205.7196,266.029 M211.1876,215.563 C211.7166,215.563 212.1446,215.134 212.1446,214.606 C212.1446,214.077 211.7166,213.649 211.1876,213.649 C210.6586,213.649 210.2306,214.077 210.2306,214.606 C210.2306,215.134 210.6586,215.563 211.1876,215.563 M182.4916,262.848 C181.9636,262.848 181.5346,263.276 181.5346,263.805 C181.5346,264.334 181.9636,264.763 182.4916,264.763 C183.0216,264.763 183.4496,264.334 183.4496,263.805 C183.4496,263.276 183.0216,262.848 182.4916,262.848 M176.3606,245.049 C175.8326,245.049 175.4036,245.477 175.4036,246.006 C175.4036,246.534 175.8326,246.963 176.3606,246.963 C176.8896,246.963 177.3176,246.534 177.3176,246.006 C177.3176,245.477 176.8896,245.049 176.3606,245.049 M273.8016,199.999 C274.3306,199.999 274.7596,199.57 274.7596,199.041 C274.7596,198.513 274.3306,198.084 273.8016,198.084 C273.2736,198.084 272.8446,198.513 272.8446,199.041 C272.8446,199.57 273.2736,199.999 273.8016,199.999 M226.4246,219.345 C225.8966,219.345 225.4676,219.774 225.4676,220.303 C225.4676,220.831 225.8966,221.26 226.4246,221.26 C226.9536,221.26 227.3816,220.831 227.3816,220.303 C227.3816,219.774 226.9536,219.345 226.4246,219.345 M224.5106,245.049 C223.9816,245.049 223.5526,245.477 223.5526,246.006 C223.5526,246.534 223.9816,246.963 224.5106,246.963 C225.0386,246.963 225.4676,246.534 225.4676,246.006 C225.4676,245.477 225.0386,245.049 224.5106,245.049 M226.4246,279.016 C225.8966,279.016 225.4676,279.444 225.4676,279.973 C225.4676,280.501 225.8966,280.93 226.4246,280.93 C226.9536,280.93 227.3816,280.501 227.3816,279.973 C227.3816,279.444 226.9536,279.016 226.4246,279.016 M234.5706,193.146 C234.5706,192.617 234.1426,192.189 233.6136,192.189 C233.0846,192.189 232.6566,192.617 232.6566,193.146 C232.6566,193.675 233.0846,194.104 233.6136,194.104 C234.1426,194.104 234.5706,193.675 234.5706,193.146 M229.1846,256.363 C228.6556,256.363 228.2276,256.792 228.2276,257.32 C228.2276,257.849 228.6556,258.277 229.1846,258.277 C229.7136,258.277 230.1426,257.849 230.1426,257.32 C230.1426,256.792 229.7136,256.363 229.1846,256.363 M216.4416,197.127 C215.9116,197.127 215.4836,197.556 215.4836,198.084 C215.4836,198.612 215.9116,199.041 216.4416,199.041 C216.9696,199.041 217.3986,198.612 217.3986,198.084 C217.3986,197.556 216.9696,197.127 216.4416,197.127 M213.1026,231.211 C213.1026,230.683 212.6736,230.254 212.1446,230.254 C211.6156,230.254 211.1876,230.683 211.1876,231.211 C211.1876,231.74 211.6156,232.168 212.1446,232.168 C212.6736,232.168 213.1026,231.74 213.1026,231.211 M209.6256,282.254 C209.0976,282.254 208.6686,282.683 208.6686,283.212 C208.6686,283.74 209.0976,284.169 209.6256,284.169 C210.1536,284.169 210.5826,283.74 210.5826,283.212 C210.5826,282.683 210.1536,282.254 209.6256,282.254 M222.5956,266.986 C222.0676,266.986 221.6386,267.415 221.6386,267.943 C221.6386,268.472 222.0676,268.9 222.5956,268.9 C223.1246,268.9 223.5526,268.472 223.5526,267.943 C223.5526,267.415 223.1246,266.986 222.5956,266.986 M213.1026,253.576 C212.5726,253.576 212.1446,254.005 212.1446,254.533 C212.1446,255.062 212.5726,255.49 213.1026,255.49 C213.6306,255.49 214.0596,255.062 214.0596,254.533 C214.0596,254.005 213.6306,253.576 213.1026,253.576 M222.5956,289.984 C222.0676,289.984 221.6386,290.412 221.6386,290.941 C221.6386,291.469 222.0676,291.898 222.5956,291.898 C223.1246,291.898 223.5526,291.469 223.5526,290.941 C223.5526,290.412 223.1246,289.984 222.5956,289.984 M209.6256,299.958 C209.0976,299.958 208.6686,300.387 208.6686,300.915 C208.6686,301.444 209.0976,301.872 209.6256,301.872 C210.1536,301.872 210.5826,301.444 210.5826,300.915 C210.5826,300.387 210.1536,299.958 209.6256,299.958" id="Dots" fill="#000"/>
                    </g>
                </g>
                <g id="Hair" transform="translate(104.000000, 398.000000) scale(1 1)">
                    <g id="Hair/Long Wavy" stroke="none" stroke-width="1" fill="none" fill-rule="evenodd">
                        <g id="Head" transform="translate(132.000000, 111.000000)">
                            <path d="M44.1789,24.3663 C44.5879,35.6913 33.3599,45.0883 22.4569,45.0883 C11.5539,45.0883 0.4939,36.9643 0.0189,25.3903 C-0.4461,14.0673 7.7449,1.3583 15.9329,0.2613 C32.6079,-1.9747 43.6789,10.5083 44.1789,24.3663" id="Fill-1" fill="#000"/>
                            <path d="M22.4567,44.088 C12.4757,44.088 1.4787,36.559 1.0177,25.35 C0.5797,14.678 8.3147,2.291 16.0657,1.252 C17.3127,1.085 18.5577,1 19.7657,1 C34.4247,1 42.7697,13.058 43.1797,24.402 C43.3447,28.984 41.4627,33.553 37.8807,37.268 C33.7607,41.538 27.9947,44.088 22.4567,44.088" id="Skin" fill="#c3986a"/>
                        </g>
                        <path d="M148.8104,126.0757 C140.8924,126.3017 141.5704,133.6357 141.5704,133.6357 C141.5704,133.6357 139.2794,126.9507 141.5564,123.6847 C141.5564,123.6847 133.436034,134.1847 137.055034,140.9717 C140.675034,147.7577 142.853659,154.0917 138.328659,161.7827 C133.804659,169.4747 138.2364,170.8317 143.4404,179.6537 C148.6434,188.4757 134.1644,199.5607 124.2114,204.7637 C124.2114,204.7637 131.6764,198.4297 124.2114,193.0007 C116.7454,187.5717 100.4584,177.6177 105.4354,163.3657 C110.4114,149.1137 118.7234,152.1857 116.4604,135.8977 C114.1984,119.6107 128.9614,96.9887 148.8684,99.7037 C148.8684,99.7037 150.8454,95.1787 154.2684,94.5007 C154.2684,94.5007 151.9774,99.2507 154.2684,99.7037 C156.5604,100.1557 171.0764,99.7037 180.5394,115.7466 C190.0024,131.7895 178.5034,143.9107 191.3984,152.0547 C204.2924,160.1987 201.3524,182.3687 191.3984,187.3447 C181.4444,192.3217 182.5754,201.1437 182.5754,201.1437 C182.5754,201.1437 176.2414,192.5477 180.5394,185.9877 C180.5394,185.9877 173.5274,185.0827 169.0024,179.2017 C164.4784,173.3197 168.5504,166.0807 167.1934,161.7827 C165.8354,157.4837 162.755,154.174032 162.755,154.174032 C162.755,154.174032 174.663747,149.738762 176.189747,137.295762 C176.189747,137.295762 176.400463,126.336558 171.753427,123.312722 C171.753427,123.312722 162.6094,124.3007 160.7154,115.7347 C160.7154,115.7347 156.7274,125.8487 148.8104,126.0757 Z" id="Hair" fill="#e7b460"/>
                        <path d="M190.066,167.4027 C190.086,167.7987 190.105,168.2017 190.129,168.6127 C190.145,168.8777 190.366,169.0827 190.628,169.0827 C190.638,169.0827 190.648,169.0827 190.659,169.0817 C190.934,169.0647 191.144,168.8287 191.128,168.5517 C191.103,168.1457 191.084,167.7467 191.064,167.3527 C190.831,162.5987 190.629,158.4937 182.781,150.6447 C174.781,142.6437 179.67,126.4987 180.293,125.4147 C180.451,125.2207 180.442,124.9357 180.265,124.7527 C180.073,124.5517 179.756,124.5487 179.558,124.7387 C179.122,125.1597 177.337,130.8037 177.278,137.0747 C177.219,143.3067 178.833,148.1107 182.074,151.3517 C189.649,158.9267 189.833,162.6677 190.066,167.4027 M121.42,170.7137 C124.245,172.9107 127.447,175.4007 127.363,182.3757 C127.36,182.6517 127.581,182.8787 127.857,182.8817 L127.863,182.8817 C128.136,182.8817 128.36,182.6617 128.363,182.3867 C128.453,174.9167 124.894,172.1477 122.034,169.9237 C120.48,168.7147 119.138,167.6727 118.723,166.1127 C117.537,161.6647 122.795,154.1477 122.848,154.0717 C123.007,153.8467 122.954,153.5347 122.728,153.3757 C122.506,153.2167 122.193,153.2687 122.032,153.4947 C121.803,153.8187 116.45,161.4697 117.756,166.3707 C118.259,168.2547 119.795,169.4487 121.42,170.7137 M148.869,100.2037 C149.061,100.2037 149.245,100.0907 149.327,99.9037 C149.343,99.8657 150.842,96.4937 153.38,95.3157 C152.952,96.4537 152.449,98.2357 152.986,99.3107 C153.221,99.7817 153.63,100.0877 154.171,100.1937 C154.435,100.2477 154.705,100.0707 154.758,99.7997 C154.812,99.5297 154.636,99.2667 154.365,99.2137 C154.127,99.1657 153.977,99.0577 153.88,98.8647 C153.451,98.0047 154.167,95.8647 154.718,94.7167 C154.8,94.5467 154.78,94.3437 154.664,94.1947 C154.548,94.0447 154.365,93.9707 154.17,94.0097 C150.534,94.7307 148.496,99.3087 148.411,99.5037 C148.3,99.7567 148.416,100.0507 148.669,100.1617 C148.734,100.1897 148.801,100.2037 148.869,100.2037 Z M161.963,154.0627 C161.959,154.0647 161.954,154.0667 161.951,154.0677 C161.948,154.0687 161.944,154.0707 161.941,154.0717 C159.511,155.0997 156.929,155.6207 154.268,155.6207 C152.111,155.6207 147.648,154.063663 145.379,153.304663 C145.367,153.188663 142.860028,151.795227 142.846028,151.679227 C142.817028,151.444227 142.106,151.612577 142.066,151.378577 C142.028,151.154577 141.105,150.803656 141.057,150.580656 C141.014,150.381656 140.559845,147.987174 140.366845,147.500174 C140.290845,147.307174 139.632418,143.327797 139.154418,142.452797 C138.832418,141.861797 138.509418,141.267797 138.191418,140.670797 C137.448418,139.279797 137.125418,137.691797 137.078418,136.057797 C137.012418,133.367797 139.927376,126.2897 140.036376,128.7817 C140.145376,131.2737 140.883,133.1427 141.057,133.6737 C141.076,133.7337 141.091,133.7797 141.096,133.7957 C141.157,133.9757 141.311,134.0987 141.492,134.1277 C141.53,134.1337 141.57,134.1297 141.609,134.1267 C141.631,134.1257 141.652,134.1297 141.674,134.1257 C141.911,134.0747 142.071,133.8637 142.066,133.6257 C142.065,133.6137 142.07,133.6027 142.069,133.5907 C142.069,133.5887 142.068,133.5757 142.066,133.5537 C142.046,133.2367 141.954,130.8897 143.323,129.0227 C143.382,128.9407 143.451,128.8617 143.517,128.7817 C143.557,128.7327 143.594,128.6817 143.637,128.6327 C143.727,128.5317 143.828,128.4397 143.925,128.3447 C143.984,128.2897 144.037,128.2267 144.098,128.1737 C144.182,128.0987 144.275,128.0347 144.364,127.9647 C144.448,127.9007 144.526,127.8317 144.614,127.7707 C144.685,127.7217 144.764,127.6817 144.837,127.6347 C144.952,127.5647 145.063,127.4907 145.183,127.4267 C145.246,127.3937 145.315,127.3677 145.379,127.3367 C145.52,127.2687 145.659,127.1997 145.806,127.1407 C145.856,127.1217 145.91,127.1067 145.96,127.0887 C146.13,127.0257 146.302,126.9637 146.483,126.9127 C146.506,126.9057 146.532,126.9017 146.555,126.8947 C147.003,126.7717 147.481,126.6817 147.993,126.6297 C148.261,126.6017 148.539,126.5837 148.825,126.5757 C155.351,126.3887 159.197,120.0757 160.601,117.1967 C162.015,121.4247 165.12,123.0937 167.589,123.7507 C168.94,124.1167 170.087,124.1747 170.676,124.1677 C170.72,124.1677 170.775,124.1687 170.812,124.1687 C172.85764,124.1687 173.071534,126.1967 173.555534,127.4267 C174.151534,129.2807 174.665491,131.756 174.862491,133.544 C174.875491,133.669 174.859491,133.972 174.862491,134 C174.959491,135.052 175.156698,135.6957 175.189698,136.4087 C175.132698,138.1737 174.83182,140.33547 174.35182,141.92747 C174.13082,142.61447 173.21464,144.140366 172.93964,144.762366 C172.91264,144.825366 172.88564,144.887366 172.85764,144.949366 C172.73564,145.218366 172.60864,145.483366 172.47664,145.741366 C169.73464,151.117366 164.675,152.6937 162.799,153.6637 C162.524,153.8027 162.249,153.9407 161.963,154.0627 Z M191.174,186.8977 C183.746,190.6127 182.313,196.5037 182.084,199.4317 C180.558,196.7827 177.906,190.9207 180.958,186.2617 C181.052,186.1177 181.066,185.9347 180.994,185.7787 C180.921,185.6227 180.774,185.5137 180.604,185.4917 C180.536,185.4827 173.747,184.5477 169.399,178.8967 C166.698,175.3847 167.212,171.3007 167.665,167.6977 C167.946,165.4617 168.212,163.3487 167.67,161.6317 C166.601,158.2487 163.89,155.220032 162.755,154.174032 C162.796,154.153032 162.851,154.124032 162.893,154.100032 C162.925,154.086032 162.957,154.072032 162.987,154.057032 L163.232,153.933032 C165.384,152.792032 171.363,150.386785 174.004,143.804785 L174.404952,143.136474 C174.494286,142.906474 174.755868,142.410466 175.189698,141.64845 C175.205698,141.60045 176.018747,138.30107 176.189747,136.90407 C176.190747,136.71107 176.127976,134.891535 175.795976,132.187535 C175.618976,130.610535 175.598698,130.5197 175.189698,129.1127 C175.112698,128.8917 174.488952,127.2137 174.404952,126.9967 C173.900952,125.4207 172.990365,124.2677 172.068365,123.2187 C172.026365,123.1707 171.356,123.2477 171.301,123.2187 C171.295,123.2147 171.291,123.2097 171.284,123.2077 C171.209,123.1717 171.126,123.1507 171.04,123.1587 C171.003,123.1617 170.858,123.1697 170.647,123.1707 C170.627,123.1707 170.616,123.1717 170.594,123.1717 C170.544,123.1717 170.473,123.1687 170.415,123.1667 C170.332,123.1657 170.256,123.1647 170.16,123.1607 C168.511,123.0837 164.954,122.5247 162.743,119.3047 C162.718,119.2697 162.699,119.2267 162.675,119.1917 C162.482,118.9007 162.295,118.5957 162.126,118.2607 C161.985,117.9837 161.864,117.6737 161.743,117.3637 C161.7,117.2537 161.648,117.1587 161.607,117.0447 C161.453,116.6077 161.319,116.1397 161.208,115.6397 C161.207,115.6347 161.205,115.6317 161.204,115.6267 C161.202,115.6197 161.196,115.6157 161.194,115.6097 C161.171,115.5337 161.129,115.4667 161.075,115.4107 C161.048,115.3817 161.024,115.3577 160.992,115.3367 C160.983,115.3307 160.977,115.3207 160.968,115.3147 C160.937,115.2977 160.903,115.2967 160.871,115.2857 C160.831,115.2707 160.798,115.2407 160.754,115.2367 C160.744,115.2357 160.735,115.2447 160.724,115.2447 C160.628,115.2387 160.538,115.2657 160.457,115.3087 C160.452,115.3117 160.449,115.3157 160.444,115.3187 C160.362,115.3657 160.304,115.4367 160.27,115.5277 C160.265,115.5377 160.254,115.5417 160.251,115.5507 C160.212,115.6497 156.296,125.3607 148.795,125.5757 C146.217,125.6497 144.229,126.4557 142.886,127.9707 C142.687,128.1967 142.508,128.4297 142.35,128.6677 C142.305,128.7347 142.272,128.8027 142.23,128.8717 C142.124,129.0437 142.016,129.2147 141.928,129.3877 C141.885,129.4727 141.855,129.5577 141.816,129.6427 C141.744,129.8007 141.668,129.9587 141.609,130.1137 C141.578,130.1957 141.557,130.2747 141.53,130.3557 C141.477,130.5087 141.421,130.6647 141.379,130.8137 C141.293,130.3557 141.214,129.8607 141.156,129.3497 C141.18,129.2747 141.192,129.1957 141.177,129.1127 C141.126,128.8227 141.091,128.5397 141.068,128.2617 C141.059,128.0787 141.052,127.8947 141.051,127.7117 C141.051,127.6357 141.052,127.5617 141.054,127.4867 C141.056,127.3227 141.062,127.1587 141.072,126.9967 C141.081,126.8597 141.091,126.7247 141.106,126.5897 C141.117,126.4877 141.129,126.3857 141.143,126.2857 C141.161,126.1627 141.183,126.0417 141.206,125.9217 C141.216,125.8727 141.222,125.8227 141.233,125.7737 C141.247,125.7097 141.262,125.6467 141.278,125.5837 C141.32,125.4147 141.37,125.2507 141.422,125.0867 C141.441,125.0327 141.462,124.9817 141.482,124.9287 C141.779,124.3157 141.981,123.9497 141.992,123.9297 C142.007,123.9017 142.011,123.8717 142.021,123.8407 C142.031,123.8127 142.045,123.7857 142.049,123.7567 C142.054,123.7197 142.049,123.6837 142.046,123.6477 C142.045,123.6357 142.046,123.6237 142.045,123.6117 C143.147,121.5427 144.952,119.9487 146.445,118.6347 L146.98,118.1627 C149.25,116.1357 148.336,113.0347 147.536,111.6777 C147.395,111.4397 147.088,111.3617 146.851,111.5017 C146.613,111.6417 146.534,111.9477 146.674,112.1857 C146.693,112.2177 148.545,115.4247 146.314,117.4167 L145.784,117.8847 C144.06,119.4017 141.767,121.4327 140.672,124.2297 C140.217,125.0957 134.634398,132.506375 136.173398,138.714375 C136.188398,138.771375 136.579398,139.999375 136.603398,140.059375 C136.735398,140.396375 137.680398,142.212375 137.994398,142.789375 C139.534398,145.616375 138.932481,148.376837 139.698481,151.150837 C139.706481,151.176837 140.073481,153.5377 140.107481,153.9997 C140.285481,156.3767 139.809481,158.8227 138.279481,161.4247 C133.680481,169.2417 137.742,170.9757 143.009,179.9077 C144.088,181.7367 144.315,183.7827 143.685,185.9887 C141.902,192.2367 133.782,198.7207 126.465,202.9527 C127.308,201.7247 128.093,200.0747 128.025,198.2407 C127.946,196.1367 126.762,194.2377 124.505,192.5957 C123.894,192.1517 123.223,191.6757 122.51,191.1717 C114.637,185.5947 101.461,176.2617 105.907,163.5307 C105.999,163.2697 105.861,162.9847 105.6,162.8937 C105.338,162.7997 105.054,162.9397 104.963,163.2007 C100.269,176.6437 113.83,186.2487 121.932,191.9867 C122.642,192.4897 123.309,192.9627 123.918,193.4047 C125.912,194.8547 126.958,196.4937 127.026,198.2737 C127.152,201.5637 123.92,204.3547 123.887,204.3827 C123.694,204.5487 123.655,204.8327 123.797,205.0437 C123.893,205.1857 124.05,205.2637 124.212,205.2637 C124.291,205.2637 124.37,205.2457 124.443,205.2077 C132.465,201.0127 142.571,193.5357 144.647,186.2627 C145.355,183.7837 145.094,181.4737 143.871,179.3997 C138.771,170.7537 134.724481,169.4407 139.140481,161.9327 C140.634481,159.3947 141.816,155.401364 141.051,151.729671 C144.647,155.088 151.838,156.129032 153.99,156.129032 C156.676,156.129032 159.279,155.610032 161.743,154.615032 C162.524,155.294032 165.602,158.4057 166.716,161.9327 C167.193,163.4407 166.94,165.4477 166.672,167.5727 C166.195,171.3677 165.654,175.6687 168.606,179.5067 C172.387,184.4217 177.777,185.9457 179.737,186.3527 C176.066,193.0147 181.915,201.0897 182.173,201.4407 C182.307,201.6237 182.548,201.6937 182.761,201.6077 C182.972,201.5237 183.1,201.3067 183.072,201.0817 C183.029,200.7347 182.122,192.5427 191.622,187.7927 C191.869,187.6687 191.968,187.3687 191.845,187.1217 C191.721,186.8747 191.422,186.7747 191.174,186.8977 Z" id="Fill-8" fill="#000"/>
                    </g>
                </g>
                <g id="Expression" transform="translate(201.000000, 501.000000) scale(1 1)">
                    <g id="Expression/Wink" stroke="none" stroke-width="1" fill="none" fill-rule="evenodd">
                        <path d="M51.845,25.6138 C51.691,25.6138 51.538,25.5428 51.441,25.4088 C51.278,25.1858 51.326,24.8728 51.549,24.7108 C51.67,24.6218 54.556,22.5398 57.541,23.0938 C57.813,23.1438 57.992,23.4048 57.942,23.6758 C57.892,23.9478 57.626,24.1268 57.36,24.0768 C54.802,23.6018 52.165,25.4988 52.139,25.5178 C52.05,25.5828 51.947,25.6138 51.845,25.6138" id="Fill-1" fill="#000"/>
                        <path d="M51.844,31.4245 C51.641,31.4245 51.449,31.2995 51.375,31.0975 C51.28,30.8385 51.411,30.5515 51.671,30.4555 L55.03,29.2145 C53.553,28.7275 52.203,28.3085 51.89,28.2625 C51.689,28.2805 51.492,28.1785 51.397,27.9875 C51.274,27.7405 51.373,27.4405 51.62,27.3175 C51.841,27.2085 52.007,27.1205 56.695,28.7185 C56.895,28.7865 57.031,28.9735 57.0330508,29.1855 C57.036,29.3965 56.906,29.5875 56.706,29.6605 L52.017,31.3935 C51.96,31.4145 51.902,31.4245 51.844,31.4245" id="Fill-3" fill="#000"/>
                        <path d="M59.8049,44.662 C55.4209,44.662 53.3729,41.954 53.2759,41.822 C53.1129,41.6 53.1599,41.288 53.3819,41.124 C53.6029,40.961 53.9169,41.007 54.0799,41.228 C54.1789,41.359 56.5309,44.428 61.7429,43.48 C62.0089,43.431 62.2759,43.61 62.3259,43.883 C62.3739,44.154 62.1949,44.415 61.9229,44.464 C61.1639,44.602 60.4579,44.662 59.8049,44.662" id="Fill-5" fill="#000"/>
                        <path d="M67.5784,29.1983 C67.5784,30.1633 68.1114,30.9463 68.7694,30.9463 C69.4284,30.9463 69.9614,30.1633 69.9614,29.1983 C69.9614,28.2333 69.4284,27.4503 68.7694,27.4503 C68.1114,27.4503 67.5784,28.2333 67.5784,29.1983" id="Fill-7" fill="#000"/>
                        <path d="M71.9475,26.2019 C71.8195,26.2019 71.6925,26.1539 71.5945,26.0579 C71.5805,26.0429 70.1005,24.6139 67.5785,24.6139 C67.3015,24.6139 67.0785,24.3899 67.0785,24.1139 C67.0785,23.8379 67.3015,23.6139 67.5785,23.6139 C70.5315,23.6139 72.2295,25.2789 72.3015,25.3489 C72.4955,25.5439 72.4955,25.8589 72.3015,26.0549 C72.2045,26.1529 72.0755,26.2019 71.9475,26.2019" id="Fill-9" fill="#000"/>
                        <path d="M52.4996066,33 C54.4327301,33 56,33.8954741 56,35 C56,36.1045259 54.4327301,37 52.4996066,37 C50.5664831,37 49,36.1045259 49,35 C49,33.8954741 50.5664831,33 52.4996066,33 Z M70.5,33 C72.4329063,33 74,33.8954741 74,35 C74,36.1045259 72.4329063,37 70.5,37 C68.5670937,37 67,36.1045259 67,35 C67,33.8954741 68.5670937,33 70.5,33 Z" id="Cheeks" fill="#E2A2B5"/>
                        <path d="M61.7893,30.0117 C60.6373,31.5517 58.7333,34.5887 59.4293,36.0527 C59.7183,36.6617 60.5123,36.9707 61.7893,36.9707 C63.0663,36.9707 63.8603,36.6617 64.1493,36.0527 C64.8453,34.5887 62.9413,31.5517 61.7893,30.0117 M61.7893,37.9707 C60.0923,37.9707 58.9943,37.4697 58.5253,36.4817 C57.3363,33.9737 60.9823,29.3957 61.4023,28.8817 C61.5923,28.6497 61.9863,28.6497 62.1763,28.8817 C62.5963,29.3957 66.2423,33.9737 65.0533,36.4817 C64.5843,37.4697 63.4863,37.9707 61.7893,37.9707" id="Fill-13" fill="#000"/>
                    </g>
                </g>
                <g id="Facial Hair" transform="translate(200.000000, 500.000000) scale(1 1)" fill="#000">
                    <g id="Facial Hair/None" stroke="none" stroke-width="1" fill="none" fill-rule="evenodd" fill-opacity="0"/>
                </g>
                <g id="Accesories" transform="translate(104.500000, 399.000000) scale(1 1)">
                    <g id="Accesories/Simple Glases" stroke="none" stroke-width="1" fill="none" fill-rule="evenodd">
                        <path d="M153.6922,129 C154.5482,129 155.3622,129.369 155.9252,130.013 C156.4882,130.657 156.7462,131.513 156.6332,132.361 L156.547997,132.998134 C156.879673,132.976172 157.215343,132.9622 157.558,132.9622 C158.066,132.9622 158.558,132.9922 159.04,133.0402 L159.038766,133.04 L158.9677,132.231 C158.8947,131.403 159.1737,130.577 159.7347,129.964 C160.2957,129.352 161.0927,129 161.9237,129 L169.6487,129 C170.5047,129 171.3187,129.369 171.8817,130.013 C172.4447,130.657 172.7027,131.513 172.5897,132.361 L171.8617,137.792 C171.6827,139.129 170.6237,140.178 169.2837,140.342 L166.1967,140.721 C166.0767,140.736 165.9567,140.744 165.8357,140.744 C165.7237,140.744 165.6117,140.737 165.5017,140.725 L162.0737,140.337 C160.6737,140.179 159.5777,139.057 159.4517,137.653 L159.130009,134.055083 C158.620319,133.995157 158.094652,133.9622 157.558,133.9622 C157.168,133.9622 156.787,133.9842 156.411,134.0162 L156.411,134.0162 L155.9052,137.792 C155.7262,139.129 154.6672,140.178 153.3272,140.342 L150.2402,140.721 C150.1202,140.736 150.0002,140.744 149.8792,140.744 C149.7672,140.744 149.6552,140.737 149.5452,140.725 L146.1172,140.337 C144.7172,140.179 143.6212,139.057 143.4952,137.653 L143.0112,132.231 C142.9382,131.403 143.2172,130.577 143.7782,129.964 C144.3392,129.352 145.1362,129 145.9672,129 L153.6922,129 Z M153.6922,130 L145.9672,130 C145.4082,130 144.8932,130.227 144.5162,130.639 C144.1382,131.052 143.9582,131.585 144.0082,132.142 L144.4912,137.564 C144.5742,138.495 145.3012,139.239 146.2302,139.344 L148.2162,139.568 L151.5602,139.552 L151.5602,139.552 L153.2052,139.35 C154.0932,139.241 154.7962,138.546 154.9142,137.659 L155.6412,132.228 C155.7172,131.666 155.5462,131.099 155.1722,130.671 C154.7992,130.245 154.2592,130 153.6922,130 Z M169.6487,130 L161.9237,130 C161.3647,130 160.8497,130.227 160.4727,130.639 C160.0947,131.052 159.9147,131.585 159.9647,132.142 L160.4477,137.564 C160.5307,138.495 161.2577,139.239 162.1867,139.344 L164.1747,139.568 L167.5147,139.552 L167.5147,139.552 L169.1617,139.35 C170.0497,139.241 170.7527,138.546 170.8707,137.659 L171.5977,132.228 C171.6737,131.666 171.5027,131.099 171.1287,130.671 C170.7557,130.245 170.2157,130 169.6487,130 Z" id="Combined-Shape" fill="#000"/>
                    </g>
                </g>
            </g>
        </g>
    </g>
</svg>
