<svg viewBox="114.4 183.596 613.6 394.161" xmlns="http://www.w3.org/2000/svg" overflow="visible">
    <g id="Master/Spot Illustration/Entertainment" stroke="none" stroke-width="1" fill="none" fill-rule="evenodd">
        <g id="Sofa" transform="translate(71.000000, 200.740000) scale(1 1)">
            <g id="Sofa/Blanket" stroke="none" stroke-width="1" fill="none" fill-rule="evenodd">
                <g id="Sofa-With-Blanket" transform="translate(81.000000, 104.000000)">
                    <path d="M421.0928,83.0632 L410.0428,83.0632 L410.0428,26.6612 C410.0428,16.3732 401.7018,8.0322 391.4128,8.0322 L219.8288,8.0322 C216.5038,8.0322 213.8078,10.7282 213.8078,14.0532 C213.8078,10.7282 211.1118,8.0322 207.7858,8.0322 L36.2008,8.0322 C25.9128,8.0322 17.5718,16.3732 17.5718,26.6612 L17.5718,83.0632 L6.5228,83.0632 C3.1968,83.0632 0.4998,85.7592 0.4998,89.0842 L0.4998,228.3642 C0.4998,231.6892 3.1968,234.3852 6.5218,234.3852 L35.9258,234.3852 C39.2518,234.3852 41.9468,231.6892 41.9468,228.3642 C41.9468,231.6892 44.6438,234.3852 47.9688,234.3852 L379.6458,234.3852 C382.9718,234.3852 385.6678,231.6892 385.6678,228.3642 C385.6678,231.6892 388.3638,234.3852 391.6898,234.3852 L421.0928,234.3852 C424.4188,234.3852 427.1148,231.6892 427.1148,228.3642 L427.1148,89.0842 C427.1148,85.7592 424.4188,83.0632 421.0928,83.0632" id="Sofa" fill="#F5E8A4"/>
                    <path d="M34.0811,235.7752 L24.1011,269.7422 C23.9921,270.1092 23.6851,270.2402 23.4351,270.2402 C23.1841,270.2402 22.8771,270.1092 22.7681,269.7422 L12.7881,235.7752 C12.7261,235.5632 12.7671,235.3392 12.8981,235.1632 C13.0301,234.9872 13.2321,234.8852 13.4531,234.8852 L33.4161,234.8852 C33.6371,234.8852 33.8391,234.9872 33.9711,235.1632 C34.1021,235.3392 34.1431,235.5632 34.0811,235.7752 L34.0811,235.7752 Z M33.4161,233.8852 L13.4531,233.8852 C12.9141,233.8852 12.4211,234.1322 12.0981,234.5642 C11.7751,234.9952 11.6771,235.5402 11.8291,236.0562 L21.8101,270.0232 C22.0261,270.7622 22.6641,271.2402 23.4351,271.2402 C24.2051,271.2402 24.8431,270.7622 25.0601,270.0232 L35.0401,236.0562 C35.1921,235.5402 35.0941,234.9952 34.7711,234.5642 C34.4481,234.1322 33.9551,233.8852 33.4161,233.8852 L33.4161,233.8852 Z M420.6891,235.7752 L410.7081,269.7422 C410.6001,270.1092 410.2931,270.2402 410.0421,270.2402 C409.7921,270.2402 409.4851,270.1092 409.3771,269.7422 L399.3951,235.7752 C399.3341,235.5632 399.3741,235.3402 399.5061,235.1642 C399.6391,234.9872 399.8411,234.8852 400.0611,234.8852 L420.0231,234.8852 C420.2441,234.8852 420.4461,234.9872 420.5791,235.1642 C420.7111,235.3402 420.7511,235.5632 420.6891,235.7752 L420.6891,235.7752 Z M385.1671,201.6052 C384.4431,200.4402 383.3741,199.5102 382.0981,198.9722 C383.3721,198.4532 384.4431,197.5412 385.1671,196.3872 L385.1671,201.6052 Z M211.2401,198.4552 C212.3791,197.7402 213.2851,196.6872 213.8081,195.4332 C214.3301,196.6872 215.2361,197.7402 216.3751,198.4552 L211.2401,198.4552 Z M42.4471,201.6062 L42.4471,196.3872 C43.1721,197.5412 44.2421,198.4532 45.5181,198.9722 C44.2401,199.5102 43.1711,200.4402 42.4471,201.6062 L42.4471,201.6062 Z M427.1151,88.5852 C426.8391,88.5852 426.6151,88.8082 426.6151,89.0852 L426.6151,228.3642 C426.6151,231.4092 424.1381,233.8852 421.0931,233.8852 L391.6891,233.8852 C388.6441,233.8852 386.1671,231.4092 386.1671,228.3642 L386.1671,89.0892 C386.1671,89.0882 386.1681,89.0872 386.1681,89.0852 C386.1681,86.2302 388.3451,83.8752 391.1261,83.5912 C391.3101,83.5732 391.4991,83.5632 391.6891,83.5632 L410.0431,83.5632 C410.3191,83.5632 410.5431,83.3392 410.5431,83.0632 C410.5431,82.7872 410.3191,82.5632 410.0431,82.5632 L391.6891,82.5632 C388.0931,82.5632 385.1671,85.4892 385.1671,89.0852 L385.1671,160.6622 C384.0131,158.8232 381.9731,157.5942 379.6451,157.5942 L219.8291,157.5942 C217.5021,157.5942 215.4621,158.8232 214.3081,160.6622 L214.3081,14.0532 C214.3081,13.7772 214.0841,13.5532 213.8081,13.5532 C213.5311,13.5532 213.3081,13.7772 213.3081,14.0532 L213.3081,160.6622 C212.1531,158.8232 210.1131,157.5942 207.7861,157.5942 L47.9701,157.5942 C45.6431,157.5942 43.6021,158.8232 42.4471,160.6622 L42.4471,89.0852 C42.4471,85.4892 39.5211,82.5632 35.9261,82.5632 L6.5211,82.5632 C2.9261,82.5632 0.000100000001,85.4892 0.000100000001,89.0852 C0.000100000001,89.3612 0.2241,89.5852 0.5001,89.5852 C0.7761,89.5852 1.0001,89.3612 1.0001,89.0852 C1.0001,86.0402 3.4771,83.5632 6.5211,83.5632 L35.9261,83.5632 C38.9711,83.5632 41.4471,86.0402 41.4471,89.0852 L41.4471,228.3642 C41.4471,231.4092 38.9711,233.8852 35.9261,233.8852 C35.6491,233.8852 35.4261,234.1092 35.4261,234.3852 C35.4261,234.6622 35.6491,234.8852 35.9261,234.8852 C38.6541,234.8852 40.9931,233.1992 41.9651,230.8162 C42.9711,233.2042 45.3351,234.8852 48.0851,234.8852 C48.3611,234.8852 48.5851,234.6622 48.5851,234.3852 C48.5851,234.1092 48.3611,233.8852 48.0851,233.8852 C44.9771,233.8852 42.4471,231.3572 42.4471,228.2492 L42.4471,205.0912 C42.4471,201.9832 44.9771,199.4552 48.0851,199.4552 L379.5301,199.4552 C382.6391,199.4552 385.1671,201.9832 385.1671,205.0912 L385.1671,228.2492 C385.1671,231.3572 382.6391,233.8852 379.5301,233.8852 C379.2541,233.8852 379.0301,234.1092 379.0301,234.3852 C379.0301,234.6622 379.2541,234.8852 379.5301,234.8852 C382.2791,234.8852 384.6431,233.2042 385.6491,230.8162 C386.6211,233.1992 388.9611,234.8852 391.6891,234.8852 L398.5181,234.8852 C398.3521,235.2512 398.3201,235.6612 398.4361,236.0562 L408.4181,270.0232 C408.6351,270.7622 409.2721,271.2402 410.0421,271.2402 C410.8121,271.2402 411.4501,270.7622 411.6671,270.0232 L421.6481,236.0562 C421.7681,235.6522 421.7281,235.2332 421.5531,234.8622 C424.9351,234.6252 427.6151,231.8042 427.6151,228.3642 L427.6151,89.0852 C427.6151,88.8082 427.3921,88.5852 427.1151,88.5852 L427.1151,88.5852 Z" id="Fill-3" fill="#000"/>
                    <path d="M207.7861,148.4552 C210.8311,148.4552 213.3081,151.562247 213.3081,155.38177 L213.3081,191.52863 C213.3081,195.348153 210.8311,198.4552 207.7861,198.4552 L47.9701,198.4552 C44.9251,198.4552 42.4471,195.348153 42.4471,191.52863 L42.4471,155.38177 C42.4471,151.562247 44.9251,148.4552 47.9701,148.4552 L207.7861,148.4552 Z M379.6451,148.4552 C382.6901,148.4552 385.1671,151.562247 385.1671,155.38177 L385.1671,191.52863 C385.1671,195.348153 382.6901,198.4552 379.6451,198.4552 L219.8291,198.4552 C216.7841,198.4552 214.3081,195.348153 214.3081,191.52863 L214.3081,155.38177 C214.3081,151.562247 216.7841,148.4552 219.8291,148.4552 L379.6451,148.4552 Z" id="Cushions" fill="#F5E8A4"/>
                    <path d="M207.7861,148.4552 C210.8311,148.4552 213.3081,151.562247 213.3081,155.38177 L213.3081,191.52863 C213.3081,195.348153 210.8311,198.4552 207.7861,198.4552 L47.9701,198.4552 C44.9251,198.4552 42.4471,195.348153 42.4471,191.52863 L42.4471,155.38177 C42.4471,151.562247 44.9251,148.4552 47.9701,148.4552 L207.7861,148.4552 Z M379.6451,148.4552 C382.6901,148.4552 385.1671,151.562247 385.1671,155.38177 L385.1671,191.52863 C385.1671,195.348153 382.6901,198.4552 379.6451,198.4552 L219.8291,198.4552 C216.7841,198.4552 214.3081,195.348153 214.3081,191.52863 L214.3081,155.38177 C214.3081,151.562247 216.7841,148.4552 219.8291,148.4552 L379.6451,148.4552 Z" id="Cushions" stroke="#000"/>
                    <path d="M145.7148,106.3494 L75.2588,106.3494 C69.6748,106.3494 65.8818,100.6764 68.0168,95.5164 C68.3458,94.7184 68.5418,93.8724 68.5958,93.0114 L73.6898,11.9364 C73.9288,8.1224 76.8828,5.0374 80.6828,4.6334 L100.9938,2.4714 C101.4748,2.4204 101.9488,2.3254 102.4118,2.1864 L106.8288,0.8644 C108.4658,0.3734 110.2188,0.4324 111.8188,1.0304 L137.4528,3.4954 C137.8828,3.6564 138.3268,3.7784 138.7778,3.8614 L145.6638,5.1264 C149.3678,5.8074 152.0648,9.0274 152.0848,12.7934 L152.4168,75.9014 C152.4188,76.2244 152.4408,76.5464 152.4818,76.8674 L154.8668,95.2824 C155.0998,97.0734 154.7058,98.8894 153.7528,100.4234 L152.3728,102.6464 C150.9438,104.9494 148.4248,106.3494 145.7148,106.3494" id="Blanket" fill="#F48569"/>
                    <path d="M152.417,75.9011 L152.383,69.4031 L70.079,69.4031 L69.639,76.4101 L152.451,76.4101 C152.439,76.2401 152.418,76.0711 152.417,75.9011 L152.417,75.9011 Z M153.853,87.4451 L68.945,87.4451 L68.596,93.0111 C68.565,93.5001 68.478,93.9791 68.356,94.4521 L154.76,94.4521 L153.853,87.4451 Z M152.192,33.3181 L72.347,33.3181 L71.906,40.3251 L152.23,40.3251 L152.192,33.3181 Z M152.098,15.2761 L73.479,15.2761 L73.04,22.2831 L152.135,22.2831 L152.098,15.2761 Z M152.288,51.3601 L71.213,51.3601 L70.772,58.3671 L152.324,58.3671 L152.288,51.3601 Z" id="Lines" fill="#F1EFEF"/>
                    <path d="M102.0234,2.4978 C102.0544,2.5358 102.0864,2.5638 102.1284,2.5908 C102.1864,2.6318 102.2524,2.6618 102.3274,2.6748 C102.3324,2.6758 102.3354,2.6808 102.3394,2.6808 C102.3744,2.6878 105.7744,3.6838 102.9654,21.5778 C102.9224,21.8508 103.1094,22.1058 103.3824,22.1488 C103.4094,22.1528 103.4344,22.1548 103.4604,22.1548 C103.7024,22.1548 103.9154,21.9788 103.9544,21.7318 C105.7694,10.1618 105.0794,5.1968 103.9904,3.0928 C106.8984,4.0258 112.7714,6.9098 114.1234,15.1678 C114.1634,15.4128 114.3754,15.5868 114.6154,15.5868 C114.6424,15.5868 114.6694,15.5848 114.6974,15.5798 C114.9694,15.5358 115.1544,15.2778 115.1094,15.0058 C113.6184,5.8918 106.9104,2.9158 103.9224,2.0318 C105.4954,1.3918 108.3044,0.5498 111.0114,1.2948 C111.4444,1.4138 111.9504,1.5448 112.4774,1.5958 L135.6804,3.8278 C135.9524,3.8428 136.2004,3.6538 136.2264,3.3778 C136.2524,3.1028 136.0514,2.8578 135.7764,2.8318 L112.5734,0.5998 C112.1254,0.5568 111.6694,0.4378 111.2774,0.3298 C106.8414,-0.8872 102.3514,1.6438 102.1634,1.7528 C102.1534,1.7588 102.1464,1.7678 102.1364,1.7738 C102.1204,1.7848 102.1054,1.7968 102.0904,1.8108 C101.9474,1.9288 101.8664,2.1098 101.9074,2.2948 C101.9194,2.3508 101.9604,2.3888 101.9874,2.4348 C102.0004,2.4558 102.0074,2.4778 102.0234,2.4978 M72.1644,93.5188 C71.9794,93.7238 71.9954,94.0388 72.2004,94.2238 C72.2944,94.3108 72.4154,94.3528 72.5354,94.3528 C72.6704,94.3528 72.8064,94.2978 72.9054,94.1888 C73.1124,93.9608 78.0794,88.6338 86.9994,91.2338 C89.7324,92.0318 92.2114,91.6198 94.3634,90.0078 C103.8504,82.8928 103.9604,54.6418 103.9604,53.4418 C103.9604,53.1658 103.7364,52.9418 103.4604,52.9418 C103.1834,52.9418 102.9604,53.1658 102.9604,53.4418 C102.9604,53.7308 102.8544,82.3898 93.7624,89.2078 C91.8514,90.6418 89.7304,90.9898 87.2784,90.2728 C77.7494,87.4928 72.2174,93.4578 72.1644,93.5188 M145.7144,105.8498 L75.2584,105.8498 C72.8034,105.8498 70.5234,104.6308 69.1584,102.5898 C67.7944,100.5488 67.5404,97.9768 68.4784,95.7078 L68.4784,95.7048 C68.8304,94.8528 69.0384,93.9568 69.0944,93.0428 L74.1884,11.9678 C74.2064,11.6918 73.9964,11.4548 73.7204,11.4368 C73.4194,11.4128 73.2074,11.6308 73.1904,11.9048 L68.0964,92.9798 C68.0464,93.7848 67.8644,94.5738 67.5554,95.3238 C67.5544,95.3238 67.5544,95.3248 67.5544,95.3248 C66.4884,97.9028 66.7774,100.8268 68.3274,103.1448 C69.8774,105.4648 72.4684,106.8498 75.2584,106.8498 L145.7144,106.8498 C145.9914,106.8498 146.2144,106.6258 146.2144,106.3498 C146.2144,106.0728 145.9914,105.8498 145.7144,105.8498" id="Fill-10" fill="#000"/>
                    <path d="M385.167,131.4998 C385.167,145.9118 373.484,157.5948 359.072,157.5948 C344.661,157.5948 332.978,145.9118 332.978,131.4998 C332.978,117.0888 344.661,105.4048 359.072,105.4048 C373.484,105.4048 385.167,117.0888 385.167,131.4998" id="Round-Pillow" fill="#83BB9E"/>
                    <path d="M359.0723,158.0945 C344.4083,158.0945 332.4773,146.1635 332.4773,131.4995 L333.4773,131.4995 C333.4773,145.6135 344.9593,157.0945 359.0723,157.0945 C373.1853,157.0945 384.6673,145.6135 384.6673,131.4995 L385.6673,131.4995 C385.6673,146.1635 373.7363,158.0945 359.0723,158.0945" id="Fill-15" fill="#231F20"/>
                </g>
            </g>
        </g>
        <g id="Object" transform="translate(525.000000, 137.740000) scale(1 1)">
            <g id="Object/Flat Plant" stroke="none" stroke-width="1" fill="none" fill-rule="evenodd">
                <g id="Flat-Plant" transform="translate(64.000000, 182.881600)">
                    <path d="M79.2958,254.8384 L33.6428,254.8384 C24.8998,254.8384 17.8118,247.7504 17.8118,239.0074 L17.8118,152.8644 L95.1268,152.8644 L95.1268,239.0074 C95.1268,247.7504 88.0388,254.8384 79.2958,254.8384" id="Pot" fill="#F5E8A4"/>
                    <path d="M18.3114,239.0073 L18.3114,152.8653 L17.3114,152.8653 L17.3114,239.0073 C17.3114,248.0123 24.6374,255.3383 33.6424,255.3383 L33.6424,254.3383 C25.1894,254.3383 18.3114,247.4603 18.3114,239.0073" id="Fill-6" fill="#000"/>
                    <path d="M47.3067311,85.6995736 C30.3229609,64.7951274 1,52.4144255 1,52.4144255 C0.760466844,154.716962 46.0016408,146.86074 46.0016408,146.86074 C50.90966,140.936664 54.2574365,135.209177 56.3455809,129.698819 C59.0686738,134.372941 62.3768576,139.135088 66.3962424,143.986727 C66.3962424,143.986727 135.366597,155.963981 134.998532,2.84217094e-14 C134.998532,2.84217094e-14 56.5376785,33.120835 47.3067311,85.6995736" id="Fill-133" fill="#83BB9E"/>
                    <path d="M46.1031393,152.534839 L29.7857915,152.534839 C29.3810473,152.534839 29.0525593,152.86157 29.0525593,153.267419 L30.5190236,154 L86.9485683,154 C87.3533124,154 87.6818004,153.671804 87.6818004,153.267419 C87.6818004,152.86157 87.3533124,152.534839 86.9485683,152.534839 L65.171574,152.534839 C66.4019376,143.452305 78.7466337,60.7117292 123.770019,18.2645478 C124.064779,17.9876323 124.077977,17.5231763 123.799349,17.2286789 C123.522187,16.9356467 123.058784,16.9224602 122.762558,17.1993757 C77.0660657,60.282437 64.7873604,144.348984 63.6904451,152.534839 L47.5857346,152.534839 C47.4713504,151.783211 47.1692588,149.862385 46.6369323,147.043415 C57.7776612,133.429139 61.7547123,119.647833 58.4331708,106.076046 C50.3749497,73.1480164 1.51089407,52.2093995 1.01816208,52.0013467 C0.645680159,51.8431093 0.216006131,52.0189286 0.0576279911,52.3925447 C-0.0992836847,52.7646956 0.0752255622,53.1939878 0.447707484,53.35076 C0.933107154,53.5573477 49.128455,74.2146537 57.009234,106.427685 C60.1357358,119.208285 56.5091697,132.227706 46.2717827,145.150427 C42.8402563,127.782408 32.3872991,85.5169062 8.75669398,63.5526766 C8.46193466,63.2801566 7.99853196,63.2948082 7.71990375,63.5907708 C7.44420847,63.8867333 7.46033957,64.3511893 7.75803182,64.6266396 C31.6877956,86.8692499 41.9574448,130.375743 45.0810137,146.700568 C44.9534313,146.980413 45.0076905,147.308609 45.2364589,147.526918 C45.6939957,149.969342 45.9740904,151.702627 46.1031393,152.534839 Z" id="Fill-164" fill="#000"/>
                </g>
            </g>
        </g>
        <g transform="translate(46.826100, -287.860000) scale(1 1)" id="Master/Character/Sitting on Floor">
            <g id="Master/Character/Sitting on Floor" stroke="none" stroke-width="1" fill="none" fill-rule="evenodd">
                <g id="Lower Body/Sitting on Floor" transform="translate(71.000000, 391.000000) scale(1 1)">
                    <g id="Lower Body/Sitting on Floor/Legs Extended Blue Pants" stroke="none" stroke-width="1" fill="none" fill-rule="evenodd">
                        <g id="Group" transform="translate(139.000293, 277.999829)">
                            <path d="M180.508907,49.4644707 L143.951907,47.3804707 C141.687907,47.2504707 139.416907,47.2644707 137.154907,47.4224707 L107.769907,49.4644707 L141.779907,33.2634707 C141.779907,33.2634707 154.532907,37.1254707 165.992907,42.9144707 L180.508907,49.4644707 Z M183.530907,26.2144707 L160.351907,5.1544707 C160.351907,5.1544707 149.805907,-4.2805293 135.928907,2.3794707 C122.052907,9.0404707 92.0169075,19.7874707 92.0169075,19.7874707 L90.6979075,13.8164707 L3.88890749,13.1514707 C3.88890749,13.1514707 -17.2040925,75.7484707 38.8579075,76.3044707 C94.9179075,76.8594707 149.525907,73.1484707 149.525907,73.1484707 L181.039907,73.5894707 L184.756907,51.9724707 L167.718907,41.8904707 L183.530907,26.2144707 Z" id="Pants" fill="#94B1EB"/>
                            <path d="M181.040107,73.5889707 L230.775107,69.3779707 C230.775107,69.3779707 236.505107,83.2139707 246.831107,74.3059707 C251.670107,70.1309707 258.346107,64.6249707 264.287107,59.7569707 C264.287107,59.7569707 273.680107,52.2239707 276.437107,49.3159707 C277.041107,47.6489707 275.899107,45.6059707 273.850107,45.6059707 C271.392107,45.6069707 272.794107,45.6769707 260.311107,51.2979707 C248.291107,56.7109707 230.797107,56.8399707 230.797107,56.8399707 L184.592107,51.7529707 L181.040107,73.5889707 Z" id="Fill-4" fill="#f2e4c6"/>
                            <path d="M165.993307,42.9146707 L210.529307,67.6226707 C210.529307,67.6226707 207.030307,82.1836707 220.620307,81.0486707 C226.989307,80.5166707 235.626307,79.9856707 243.294307,79.5416707 C243.294307,79.5416707 255.321307,78.9706707 259.262307,78.2386707 C260.730307,77.2446707 261.008307,74.9206707 259.349307,73.7166707 C257.360307,72.2716707 258.453307,73.1526707 245.052307,70.3616707 C232.145307,67.6736707 217.918307,57.4936707 217.918307,57.4936707 L183.531307,26.2136707 L165.993307,42.9146707 Z" id="Fill-8" fill="#f2e4c6"/>
                            <path d="M234.298907,66.6094707 C233.559907,66.6094707 232.824907,66.5174707 232.105907,66.3334707 L230.096907,65.8194707 C229.828907,65.7514707 229.667907,65.4794707 229.736907,65.2124707 C229.804907,64.9444707 230.072907,64.7814707 230.344907,64.8514707 L232.353907,65.3644707 C233.218907,65.5854707 234.108907,65.6584707 234.999907,65.5784707 L237.084907,65.3924707 C237.342907,65.3664707 237.601907,65.5704707 237.626907,65.8464707 C237.651907,66.1214707 237.447907,66.3644707 237.172907,66.3884707 L235.087907,66.5744707 C234.824907,66.5974707 234.561907,66.6094707 234.298907,66.6094707" id="Fill-6" fill="#000"/>
                            <path d="M219.163207,81.6114707 C215.949207,81.6114707 213.501207,80.6544707 211.873207,78.7574707 C208.793207,75.1674707 209.663207,69.4114707 209.964207,67.8814707 L165.751207,43.3514707 C165.509207,43.2174707 165.422207,42.9134707 165.556207,42.6724707 C165.690207,42.4304707 165.995207,42.3434707 166.235207,42.4774707 L210.772207,67.1864707 C210.969207,67.2954707 211.068207,67.5214707 211.017207,67.7394707 C211.001207,67.8064707 209.465207,74.4194707 212.635207,78.1084707 C214.286207,80.0314707 216.962207,80.8524707 220.578207,80.5504707 C228.975207,79.8494707 241.208207,79.1574707 250.141207,78.6524707 C253.156207,78.4814707 255.775207,78.3334707 257.711207,78.2154707 C258.714207,78.1534707 259.540207,77.4814707 259.814207,76.5014707 C260.024207,75.7514707 259.907207,74.7114707 258.947207,74.0444707 C258.721207,73.8864707 258.664207,73.5744707 258.822207,73.3474707 C258.979207,73.1204707 259.291207,73.0644707 259.517207,73.2224707 C260.664207,74.0194707 261.158207,75.4124707 260.777207,76.7714707 C260.387207,78.1664707 259.206207,79.1254707 257.771207,79.2134707 C255.836207,79.3314707 253.215207,79.4794707 250.197207,79.6504707 C241.270207,80.1554707 229.044207,80.8464707 220.662207,81.5464707 C220.145207,81.5904707 219.645207,81.6114707 219.163207,81.6114707" id="Fill-10" fill="#000"/>
                            <path d="M217.833107,68.8814707 C217.745107,68.8814707 217.656107,68.8584707 217.576107,68.8104707 L215.780107,67.7344707 C214.915107,67.2164707 214.151107,66.5604707 213.510107,65.7854707 L212.186107,64.1904707 C212.009107,63.9774707 212.038107,63.6624707 212.251107,63.4854707 C212.464107,63.3084707 212.778107,63.3384707 212.955107,63.5514707 L214.279107,65.1474707 C214.849107,65.8354707 215.526107,66.4174707 216.294107,66.8774707 L218.090107,67.9524707 C218.327107,68.0944707 218.404107,68.4014707 218.262107,68.6384707 C218.168107,68.7954707 218.003107,68.8814707 217.833107,68.8814707" id="Fill-12" fill="#000"/>
                            <path d="M259.349707,74.2164707 C259.246707,74.2164707 259.144707,74.1854707 259.055707,74.1214707 C257.928707,73.3024707 257.928707,73.3024707 255.020707,72.7904707 C253.192707,72.4684707 250.133707,71.9304707 244.950707,70.8504707 C232.088707,68.1724707 217.770707,58.0034707 217.626707,57.9004707 C217.402707,57.7394707 217.350707,57.4274707 217.511707,57.2024707 C217.672707,56.9774707 217.986707,56.9274707 218.208707,57.0874707 C218.350707,57.1884707 232.501707,67.2374707 245.153707,69.8724707 C250.322707,70.9484707 253.371707,71.4854707 255.193707,71.8054707 C258.152707,72.3264707 258.328707,72.3574707 259.643707,73.3114707 C259.867707,73.4744707 259.915707,73.7864707 259.753707,74.0104707 C259.656707,74.1454707 259.503707,74.2164707 259.349707,74.2164707" id="Fill-18" fill="#000"/>
                            <path d="M39.8487075,76.8135707 C39.5997075,76.8135707 39.3837075,76.6275707 39.3537075,76.3735707 C39.3207075,76.0995707 39.5157075,75.8505707 39.7887075,75.8165707 C51.2147075,74.4345707 63.9207075,70.3265707 75.5667075,64.2495707 L141.565707,32.8125707 C141.812707,32.6925707 142.111707,32.7985707 142.231707,33.0485707 C142.350707,33.2975707 142.244707,33.5965707 141.994707,33.7145707 L76.0127075,65.1445707 C64.2797075,71.2675707 51.4527075,75.4135707 39.9107075,76.8105707 C39.8897075,76.8125707 39.8697075,76.8135707 39.8487075,76.8135707" id="Fill-20" fill="#000"/>
                        </g>
                        <path d="M199.2532,310.1287 C213.247539,304.942122 223.743294,301.052189 230.740464,298.4589 C233.547294,297.418633 233.447873,297.0999 230.4422,297.5027 L198.9052,309.1917 C198.6472,309.2867 198.5152,309.5757 198.6112,309.8337 C198.6852,310.0357 198.8762,310.1597 199.0792,310.1597 C199.1372,310.1597 199.1952,310.1507 199.2532,310.1287 Z" id="Path" fill="#000"/>
                    </g>
                </g>
                <g id="Upper Body" transform="translate(8.000000, 378.000000) scale(1 1)">
                    <g id="Upper Body/Talking Sweater" stroke="none" stroke-width="1" fill="none" fill-rule="evenodd">
                        <path d="M290.4505,261.2694 L289.0435,232.1364 C298.2035,240.0584 301.5395,260.1604 301.5395,260.1604 L290.4505,261.2694 Z M262.2385,183.7774 C250.3185,194.0514 236.644805,183.7774 236.644805,183.7774 C236.644805,183.7774 196.8585,180.3764 176.8345,230.2474 C176.8345,230.2474 168.9015,209.4674 160.9675,199.6454 L140.5655,221.1794 C140.5655,221.1794 154.1665,282.0064 186.8465,285.0294 C186.8465,285.0294 199.1045,282.6494 208.5705,234.3784 L204.769642,298.976042 C203.281763,306.552947 203.824795,310.894267 206.398736,312 C208.972678,313.105733 216.932718,313.7724 230.278856,314 L273.406333,314 C286.867911,313.302409 294.201844,312.635742 295.40813,312 C296.614416,311.364258 297.280108,308.324556 297.405205,302.880894 L295.832575,289.811554 C310.839575,288.555554 316.4795,285.6744 322.6615,282.2574 C330.3055,278.0334 334.1195,269.1504 332.2575,260.6174 C313.4095,174.2364 262.2385,183.7774 262.2385,183.7774 Z" id="Sweater" fill="#F0BE91"/>
                        <path d="M238.2556,262.4774 C238.2556,262.4774 237.0746,265.1464 247.8436,268.5064 C258.6136,271.8684 224.2396,270.7914 225.3176,274.0674 C226.0766,276.3774 234.5246,276.4984 239.4346,276.3704 C233.3826,276.6974 221.6436,277.6524 222.4446,280.1244 C223.5226,283.4454 243.4996,281.1314 243.4996,281.1314 C243.4996,281.1314 226.3946,283.0854 227.0226,285.8684 C227.6506,288.6504 244.0196,285.6394 244.0196,285.6394 C244.0196,285.6394 232.1376,289.1894 232.4966,291.3424 C232.8566,293.4974 256.5306,288.4794 258.6936,286.4114 L259.5006,268.5064 C259.5006,268.5064 241.5266,259.0344 238.2556,262.4774 M152.6996,190.9964 C152.1196,192.2154 150.5536,192.5784 149.4656,191.7784 C144.2476,187.9414 131.5336,178.9104 127.0976,178.6574 C121.4596,178.3344 139.4996,191.9454 139.4996,191.9454 C139.4996,191.9454 122.9096,180.8644 119.8486,183.4644 C116.7886,186.0664 137.2446,196.6974 137.2446,196.6974 C137.2446,196.6974 120.1916,187.9984 119.5366,190.8984 C118.8826,193.7974 134.6196,200.9664 134.6196,200.9664 C134.6196,200.9664 119.9846,196.9554 119.5146,199.6454 C119.0436,202.3344 131.9296,204.9124 135.1516,206.5224 C138.3726,208.1334 144.9076,216.5964 144.9076,216.5964 L155.6416,205.2664 C155.6416,205.2664 161.0116,189.4494 160.966881,184.7784 C160.9286,180.6954 155.3856,185.3494 152.6996,190.9964 M256.914435,183.136137 L256.914435,172.9994 L243.862808,172.9994 L243.862808,183.4644 L236.644805,183.7774 C236.644805,183.7774 250.3186,194.0514 262.2376,183.7774 L256.914435,183.136137 Z" id="Skin" fill="#f2e4c6"/>
                        <path d="M289.050212,231.636476 L289.135119,231.645056 C289.219489,231.660611 289.300933,231.698167 289.3706,231.7585 C291.117781,233.269555 292.653335,235.199708 293.99552,237.340683 C294.090694,237.492843 294.18542,237.646566 294.279171,237.801286 C294.705351,238.504352 295.111236,239.228127 295.497573,239.965397 C295.515714,240.000211 295.534186,240.035575 295.552613,240.070969 L295.497573,239.965397 C295.890048,240.714382 296.262348,241.477293 296.615125,242.246699 C297.055772,243.207754 297.466113,244.179272 297.84724,245.146436 C297.866614,245.195671 297.885717,245.244328 297.904747,245.292972 L298.048584,245.663947 C298.602455,247.105853 299.091628,248.532263 299.520349,249.894833 C299.596426,250.136929 299.670586,250.376678 299.742866,250.614146 C301.092134,255.046404 301.786584,258.684765 301.98037,259.77258 C307.91508,259.113352 312.351557,258.534531 313.3376,258.1865 C313.5986,258.0945 313.8826,258.2315 313.9756,258.4925 C314.0676,258.7515 313.9306,259.0385 313.6706,259.1295 C310.0946,260.3915 265.4116,264.3455 260.1436,264.8085 L259.280315,287.230107 L259.1936,289.4955 C259.184711,289.734611 259.008316,289.927895 258.781704,289.967895 L258.6946,289.9755 L258.6946,289.9755 L258.6746,289.9755 C258.3996,289.9645 258.1836,289.7325 258.194198,289.4555 L258.278684,287.267847 C254.378135,289.262534 239.65546,292.3387 234.3186,292.3387 C233.6316,292.3387 233.1006,292.2877 232.7676,292.1777 C232.2086,291.9907 232.0436,291.6657 232.0036,291.4257 C231.9586,291.1527 232.1426,290.8967 232.4146,290.8507 C232.6596,290.8037 232.8956,290.9557 232.9716,291.1867 C234.66052,292.386381 256.11687,288.065877 258.325499,286.071151 L259.1606,264.3295 L259.164315,264.299107 L259.170608,264.247658 C259.170966,264.24593 259.171332,264.244205 259.171707,264.242484 L259.1606,264.3295 C259.162286,264.287349 259.169146,264.246505 259.180576,264.207612 C259.185262,264.191857 259.190729,264.176214 259.196926,264.160936 C259.202561,264.146782 259.209105,264.132562 259.216275,264.11872 C259.221425,264.108972 259.226789,264.099402 259.23245,264.090031 C259.239663,264.077935 259.247476,264.066167 259.255759,264.054763 C259.265555,264.041374 259.275757,264.028668 259.286545,264.016489 C259.293907,264.008158 259.302073,263.99957 259.310533,263.99128 C259.32133,263.980603 259.332826,263.97029 259.344785,263.96052 C259.354017,263.953159 259.363523,263.945968 259.373289,263.939118 C259.389172,263.927701 259.405855,263.917358 259.423161,263.908012 C259.429777,263.904803 259.436234,263.901513 259.442772,263.898362 C259.462355,263.888485 259.483062,263.880106 259.504422,263.873136 C259.51105,263.871436 259.518149,263.869293 259.525315,263.867306 C259.555082,263.858592 259.585408,263.85311 259.6166,263.8505 C259.624412,263.849814 259.644167,263.848081 259.675505,263.845329 L300.9516,259.7165 L300.927215,259.588101 L300.927215,259.588101 L300.910999,259.50642 C300.788104,258.868484 300.57965,257.845945 300.277575,256.555618 C300.210603,256.268424 300.13904,255.969332 300.062793,255.658366 L299.985428,255.34612 C299.787306,254.550285 299.559789,253.683013 299.30151,252.764096 C299.234856,252.526787 299.165975,252.285629 299.095012,252.041358 C298.947709,251.534282 298.791584,251.014216 298.62629,250.483814 C298.412024,249.796586 298.18232,249.091673 297.93675,248.37605 C297.878874,248.206862 297.819972,248.037174 297.760178,247.866975 C297.746101,247.827479 297.732199,247.788022 297.718248,247.748538 L297.590086,247.388229 C297.559948,247.304349 297.529595,247.220366 297.499024,247.13629 C297.321408,246.6485 297.136423,246.156775 296.943986,245.663956 C296.751193,245.169376 296.550694,244.673952 296.342555,244.179479 C296.185552,243.807445 296.024631,243.435999 295.859326,243.065964 C295.856699,243.059097 295.853872,243.05277 295.851043,243.046443 L295.859326,243.065964 C295.500224,242.262114 295.120438,241.464927 294.719349,240.683354 C294.687941,240.621043 294.655777,240.558726 294.623478,240.496512 L294.719349,240.683354 C293.865112,239.018766 292.914247,237.425005 291.860785,235.988556 C291.838777,235.957368 291.816132,235.926625 291.79344,235.895955 L291.860785,235.988556 C291.776959,235.874254 291.692483,235.760949 291.607354,235.648682 L291.79344,235.895955 C291.712012,235.785901 291.629976,235.67679 291.547328,235.568662 L291.607354,235.648682 C290.716117,234.473338 289.753349,233.411944 288.7156,232.5145 C288.563956,232.383172 288.510758,232.1813 288.561737,232.000557 C288.580793,231.931771 288.614902,231.866356 288.6643,231.809 C288.765411,231.693444 288.90788,231.634679 289.050212,231.636476 Z M323.0993,282.0153 C323.2323,282.2573 323.1443,282.5613 322.9033,282.6953 C312.8423,288.2563 297.0153,291.0643 275.7893,291.0643 C273.3113,291.0643 270.7593,291.0263 268.1343,290.9503 C267.8583,290.9423 267.6413,290.7113 267.649086,290.4353 C267.6573,290.1603 267.9273,289.9563 268.1643,289.9503 C293.0873,290.6823 311.3433,287.9423 322.4193,281.8203 C322.6623,281.6873 322.9653,281.7743 323.0993,282.0153 Z M244.5113,285.5488 C244.5613,285.8198 244.3813,286.0808 244.1093,286.1318 C241.6963,286.5748 235.9253,287.5458 231.6453,287.5458 C228.9203,287.5458 226.7993,287.1518 226.5343,285.9798 C226.4743,285.7098 226.6433,285.4418 226.9123,285.3818 C227.1793,285.3178 227.4483,285.4888 227.5103,285.7588 C227.8213,287.1418 236.2513,286.5598 243.9293,285.1478 C244.1993,285.1078 244.4613,285.2778 244.5113,285.5488 Z M209.9635,225.4755 C210.2325,225.5365 210.4005,225.8055 210.3385,226.0755 C208.6315,233.5135 208.9655,244.5945 208.9685,244.7055 C208.9775,244.9815 208.7605,245.2125 208.4855,245.2215 L208.4685,245.2215 C208.1995,245.2215 207.9775,245.0085 207.9695,244.7375 C207.967817,244.689959 207.907015,242.678726 207.966489,239.801033 C206.757455,245.418451 205.513419,250.345751 204.263189,254.668716 C204.16769,254.998094 204.072166,255.324749 203.976618,255.647916 C203.564152,257.043777 203.151138,258.374176 202.738718,259.642566 C202.627473,259.98398 202.516414,260.321175 202.405419,260.65393 C201.9986,261.874219 201.592542,263.034392 201.188326,264.137793 C200.876174,264.989286 200.565152,265.807458 200.255686,266.593122 C199.417999,268.720316 198.591755,270.608656 197.78596,272.285413 C197.345499,273.20153 196.91144,274.054314 196.484958,274.848299 C196.399158,275.008387 196.313832,275.16543 196.228823,275.320138 C196.093506,275.566059 195.959247,275.805963 195.825838,276.040111 C195.466651,276.67082 195.11388,277.259081 194.768189,277.808429 C194.732302,277.865185 194.696425,277.921901 194.660625,277.9782 L194.405018,278.375415 C193.561929,279.668188 192.764245,280.728434 192.026122,281.597708 C191.872543,281.778421 191.721832,281.9507 191.573817,282.115115 L191.360832,282.348458 C189.881336,283.945071 188.687355,284.745924 187.912499,285.143258 L187.804371,285.197517 C187.314613,285.437379 187.01396,285.5062 186.942,285.5202 C186.909,285.5262 186.878,285.5292 186.846,285.5292 C186.611,285.5292 186.402,285.3632 186.356,285.1252 C186.30801,284.876024 186.452505,284.633661 186.68573,284.555314 C186.705688,284.549039 186.726202,284.543392 186.7473,284.539 C186.749615,284.538479 186.754706,284.537217 186.76252,284.535068 C186.802625,284.523872 186.905136,284.492149 187.06469,284.423334 L187.132215,284.393622 C187.143409,284.388557 187.154834,284.383331 187.166489,284.377938 C187.24026,284.343681 187.323748,284.302659 187.416137,284.253822 C187.449367,284.236391 187.48376,284.217808 187.519289,284.198161 C187.557536,284.176877 187.59694,284.154584 187.637626,284.131006 C187.668129,284.113462 187.699655,284.094881 187.731906,284.075536 C187.784051,284.044123 187.837656,284.011117 187.893084,283.976029 L188.012156,283.899367 C188.1723,283.794212 188.346158,283.672551 188.532874,283.53198 C188.699367,283.406521 188.876041,283.266176 189.062317,283.109106 C189.114641,283.065087 189.167707,283.019659 189.221516,282.972875 C189.321856,282.885545 189.425044,282.793355 189.530743,282.696178 C190.043057,282.22528 190.614885,281.636568 191.235801,280.902364 C192.747741,279.113923 194.546376,276.469907 196.490615,272.563644 C196.627038,272.289417 196.764376,272.008699 196.902383,271.721609 C197.146331,271.214168 197.389707,270.692543 197.63486,270.150683 C198.509861,268.216525 199.407578,266.024571 200.315805,263.540777 C200.515918,262.993656 200.716761,262.431599 200.917985,261.854979 C201.168981,261.135628 201.420672,260.393425 201.672704,259.627835 C202.379733,257.480163 203.089493,255.148136 203.796331,252.616357 C204.010675,251.84877 204.224938,251.061994 204.438775,250.256381 C204.669504,249.386891 204.899962,248.494793 205.129726,247.580168 C205.217207,247.232299 205.304608,246.880734 205.391898,246.525871 C205.5009,246.08231 205.609674,245.634235 205.718253,245.180964 C205.818093,244.764683 205.917734,244.343673 206.017195,243.918226 C206.111196,243.515548 206.20515,243.108968 206.298927,242.698377 C206.437036,242.094363 206.574573,241.481868 206.711685,240.860574 C207.16094,238.824 207.605901,236.692359 208.044732,234.46175 C208.05667,234.402388 208.068487,234.34223 208.0803,234.282 C208.101925,234.171836 208.157677,234.076156 208.234787,234.005555 C208.44361,231.244762 208.790929,228.349183 209.3645,225.8505 C209.4265,225.5805 209.6945,225.4115 209.9635,225.4755 Z M222.9208,279.9705 C223.5758,281.9915 235.3148,281.5765 243.4418,280.6345 C243.7208,280.6115 243.9638,280.7995 243.9958,281.0745 C244.0278,281.3485 243.8318,281.5965 243.5568,281.6285 C241.7638,281.8355 236.1888,282.4305 231.1458,282.4305 C226.6138,282.4305 222.5118,281.9505 221.9698,280.2795 C221.8838,280.0165 222.0278,279.7345 222.2908,279.6495 C222.5568,279.5645 222.8358,279.7085 222.9208,279.9705 Z M225.7923,273.9106 C226.4513,275.9156 236.1863,276.1796 242.8883,275.7206 C243.1643,275.7076 243.4013,275.9106 243.4203,276.1856 C243.4393,276.4606 243.2313,276.7006 242.9553,276.7186 C241.9523,276.7866 239.5183,276.9296 236.7473,276.9296 C231.7193,276.9296 225.5773,276.4596 224.8423,274.2236 C224.7563,273.9606 224.8983,273.6786 225.1613,273.5926 C225.4223,273.5026 225.7063,273.6496 225.7923,273.9106 Z M238.458,262.0217 C238.701,262.1287 238.816,262.4067 238.724,262.6527 C238.709,262.7437 238.499,265.0677 247.993,268.0287 C248.257,268.1107 248.404,268.3927 248.322,268.6547 C248.255,268.8697 248.057,269.0067 247.844,269.0067 C247.795,269.0067 247.745,268.9997 247.695,268.9847 C240.652,266.7857 238.486,264.8087 237.908,263.5367 C237.587,262.8267 237.761,262.3617 237.799,262.2767 C237.91,262.0247 238.206,261.9087 238.458,262.0217 Z M161.3539,199.3281 C161.4599,199.4581 172.0959,212.6961 185.0939,252.1251 C185.1809,252.3861 185.0379,252.6701 184.7759,252.7561 C184.7229,252.7731 184.6709,252.7811 184.6189,252.7811 C184.4089,252.7811 184.2129,252.6481 184.1439,252.4371 C171.2179,213.2291 160.6849,200.0911 160.5799,199.9631 C160.4059,199.7491 160.4369,199.4331 160.6499,199.2591 C160.8639,199.0841 161.1779,199.1151 161.3539,199.3281 Z M119.6011,199.1536 C119.8731,199.1996 120.0541,199.4596 120.0071,199.7316 C119.7631,201.1216 126.4041,203.1396 129.9721,204.2236 C131.7471,204.7626 133.4231,205.2726 134.5621,205.7206 C135.0861,205.9266 135.5981,206.2166 136.0821,206.5836 C137.2561,207.4746 139.5551,209.3606 141.7431,211.9836 C141.9211,212.1956 141.8921,212.5106 141.6801,212.6876 C141.5871,212.7656 141.4731,212.8036 141.3601,212.8036 C141.2161,212.8036 141.0741,212.7416 140.9761,212.6236 C138.8511,210.0766 136.6191,208.2456 135.4771,207.3806 C135.0671,207.0696 134.6351,206.8246 134.1951,206.6506 C133.0941,206.2176 131.4361,205.7136 129.6811,205.1806 C123.0031,203.1516 118.6531,201.6636 119.0221,199.5596 C119.0691,199.2876 119.3251,199.0976 119.6011,199.1536 Z M246.3723,191.4463 C246.6483,191.4463 246.8723,191.6703 246.8723,191.9463 L246.8723,203.5433 C246.8723,205.5323 248.4903,207.1503 250.4793,207.1503 C250.7553,207.1503 250.9793,207.3743 250.9793,207.6503 C250.9793,207.9263 250.7553,208.1503 250.4793,208.1503 C247.9383,208.1503 245.8723,206.0843 245.8723,203.5433 L245.8723,191.9463 C245.8723,191.6703 246.0953,191.4463 246.3723,191.4463 Z M249.885,201.7538 C250.75,201.7538 251.453,202.4568 251.453,203.3208 C251.453,204.1868 250.75,204.8898 249.885,204.8898 C249.021,204.8898 248.318,204.1868 248.318,203.3208 C248.318,202.4568 249.021,201.7538 249.885,201.7538 Z M147.3316,195.4651 C147.5906,195.5621 147.7206,195.8501 147.6236,196.1081 C147.5596,196.2811 146.0766,200.3711 149.1216,203.2501 C149.3216,203.4391 149.3306,203.7561 149.1406,203.9571 C149.0426,204.0601 148.9096,204.1131 148.7776,204.1131 C148.6536,204.1131 148.5306,204.0681 148.4336,203.9761 C144.8996,200.6341 146.6136,195.9531 146.6886,195.7561 C146.7866,195.4981 147.0736,195.3701 147.3316,195.4651 Z M249.885,202.7538 C249.572,202.7538 249.318,203.0088 249.318,203.3208 C249.318,203.6348 249.572,203.8898 249.885,203.8898 C250.198,203.8898 250.453,203.6348 250.453,203.3208 C250.453,203.0088 250.198,202.7538 249.885,202.7538 Z M119.6464,190.4107 C119.9164,190.4717 120.0854,190.7387 120.0244,191.0087 C119.6754,192.5547 127.4364,197.1457 134.8274,200.5117 C135.0784,200.6257 135.1894,200.9227 135.0754,201.1737 C134.9914,201.3587 134.8094,201.4667 134.6194,201.4667 C134.5504,201.4667 134.4794,201.4517 134.4124,201.4217 C130.6344,199.6997 118.3594,193.8467 119.0494,190.7877 C119.1094,190.5187 119.3814,190.3457 119.6464,190.4107 Z M249.885,197.1835 C250.75,197.1835 251.453,197.8865 251.453,198.7505 C251.453,199.6165 250.75,200.3195 249.885,200.3195 C249.021,200.3195 248.318,199.6165 248.318,198.7505 C248.318,197.8865 249.021,197.1835 249.885,197.1835 Z M249.885,198.1835 C249.572,198.1835 249.318,198.4385 249.318,198.7505 C249.318,199.0645 249.572,199.3195 249.885,199.3195 C250.198,199.3195 250.453,199.0645 250.453,198.7505 C250.453,198.4385 250.198,198.1835 249.885,198.1835 Z M120.2294,183.1401 C120.4084,183.3511 120.3834,183.6671 120.1724,183.8451 C120.0614,183.9401 120.0244,184.0341 120.0404,184.1781 C120.3044,186.5111 130.8744,192.8231 137.4754,196.2541 C137.7204,196.3811 137.8154,196.6821 137.6884,196.9271 C137.5994,197.0991 137.4254,197.1971 137.2444,197.1971 C137.1664,197.1971 137.0884,197.1791 137.0144,197.1401 C135.2184,196.2081 119.4564,187.9181 119.0464,184.2921 C118.9924,183.8131 119.1584,183.3951 119.5254,183.0841 C119.7354,182.9061 120.0514,182.9301 120.2294,183.1401 Z M127.1253,178.1582 C127.4013,178.1742 127.6123,178.4102 127.5963,178.6852 C127.5803,178.9622 127.3213,179.1832 127.0683,179.1562 C126.6153,179.1332 126.4953,179.2192 126.4943,179.2202 C126.1883,180.3892 133.1593,186.5362 139.8013,191.5472 C140.0213,191.7142 140.0653,192.0272 139.8983,192.2472 C139.8003,192.3782 139.6513,192.4462 139.4993,192.4462 C139.3943,192.4462 139.2893,192.4132 139.1983,192.3452 C126.0643,182.4352 125.2913,179.6102 125.5683,178.8552 C125.7563,178.3442 126.2793,178.1152 127.1253,178.1582 Z" id="Combined-Shape" fill="#000"/>
                    </g>
                </g>
                <g id="Hair" transform="translate(104.000000, 398.000000) scale(1 1)">
                    <g id="Hair/Long Wavy" stroke="none" stroke-width="1" fill="none" fill-rule="evenodd">
                        <g id="Head" transform="translate(132.000000, 111.000000)">
                            <path d="M44.1789,24.3663 C44.5879,35.6913 33.3599,45.0883 22.4569,45.0883 C11.5539,45.0883 0.4939,36.9643 0.0189,25.3903 C-0.4461,14.0673 7.7449,1.3583 15.9329,0.2613 C32.6079,-1.9747 43.6789,10.5083 44.1789,24.3663" id="Fill-1" fill="#000"/>
                            <path d="M22.4567,44.088 C12.4757,44.088 1.4787,36.559 1.0177,25.35 C0.5797,14.678 8.3147,2.291 16.0657,1.252 C17.3127,1.085 18.5577,1 19.7657,1 C34.4247,1 42.7697,13.058 43.1797,24.402 C43.3447,28.984 41.4627,33.553 37.8807,37.268 C33.7607,41.538 27.9947,44.088 22.4567,44.088" id="Skin" fill="#f2e4c6"/>
                        </g>
                        <path d="M148.8104,126.0757 C140.8924,126.3017 141.5704,133.6357 141.5704,133.6357 C141.5704,133.6357 139.2794,126.9507 141.5564,123.6847 C141.5564,123.6847 133.436034,134.1847 137.055034,140.9717 C140.675034,147.7577 142.853659,154.0917 138.328659,161.7827 C133.804659,169.4747 138.2364,170.8317 143.4404,179.6537 C148.6434,188.4757 134.1644,199.5607 124.2114,204.7637 C124.2114,204.7637 131.6764,198.4297 124.2114,193.0007 C116.7454,187.5717 100.4584,177.6177 105.4354,163.3657 C110.4114,149.1137 118.7234,152.1857 116.4604,135.8977 C114.1984,119.6107 128.9614,96.9887 148.8684,99.7037 C148.8684,99.7037 150.8454,95.1787 154.2684,94.5007 C154.2684,94.5007 151.9774,99.2507 154.2684,99.7037 C156.5604,100.1557 171.0764,99.7037 180.5394,115.7466 C190.0024,131.7895 178.5034,143.9107 191.3984,152.0547 C204.2924,160.1987 201.3524,182.3687 191.3984,187.3447 C181.4444,192.3217 182.5754,201.1437 182.5754,201.1437 C182.5754,201.1437 176.2414,192.5477 180.5394,185.9877 C180.5394,185.9877 173.5274,185.0827 169.0024,179.2017 C164.4784,173.3197 168.5504,166.0807 167.1934,161.7827 C165.8354,157.4837 162.755,154.174032 162.755,154.174032 C162.755,154.174032 174.663747,149.738762 176.189747,137.295762 C176.189747,137.295762 176.400463,126.336558 171.753427,123.312722 C171.753427,123.312722 162.6094,124.3007 160.7154,115.7347 C160.7154,115.7347 156.7274,125.8487 148.8104,126.0757 Z" id="Hair" fill="#d5d5d5"/>
                        <path d="M190.066,167.4027 C190.086,167.7987 190.105,168.2017 190.129,168.6127 C190.145,168.8777 190.366,169.0827 190.628,169.0827 C190.638,169.0827 190.648,169.0827 190.659,169.0817 C190.934,169.0647 191.144,168.8287 191.128,168.5517 C191.103,168.1457 191.084,167.7467 191.064,167.3527 C190.831,162.5987 190.629,158.4937 182.781,150.6447 C174.781,142.6437 179.67,126.4987 180.293,125.4147 C180.451,125.2207 180.442,124.9357 180.265,124.7527 C180.073,124.5517 179.756,124.5487 179.558,124.7387 C179.122,125.1597 177.337,130.8037 177.278,137.0747 C177.219,143.3067 178.833,148.1107 182.074,151.3517 C189.649,158.9267 189.833,162.6677 190.066,167.4027 M121.42,170.7137 C124.245,172.9107 127.447,175.4007 127.363,182.3757 C127.36,182.6517 127.581,182.8787 127.857,182.8817 L127.863,182.8817 C128.136,182.8817 128.36,182.6617 128.363,182.3867 C128.453,174.9167 124.894,172.1477 122.034,169.9237 C120.48,168.7147 119.138,167.6727 118.723,166.1127 C117.537,161.6647 122.795,154.1477 122.848,154.0717 C123.007,153.8467 122.954,153.5347 122.728,153.3757 C122.506,153.2167 122.193,153.2687 122.032,153.4947 C121.803,153.8187 116.45,161.4697 117.756,166.3707 C118.259,168.2547 119.795,169.4487 121.42,170.7137 M148.869,100.2037 C149.061,100.2037 149.245,100.0907 149.327,99.9037 C149.343,99.8657 150.842,96.4937 153.38,95.3157 C152.952,96.4537 152.449,98.2357 152.986,99.3107 C153.221,99.7817 153.63,100.0877 154.171,100.1937 C154.435,100.2477 154.705,100.0707 154.758,99.7997 C154.812,99.5297 154.636,99.2667 154.365,99.2137 C154.127,99.1657 153.977,99.0577 153.88,98.8647 C153.451,98.0047 154.167,95.8647 154.718,94.7167 C154.8,94.5467 154.78,94.3437 154.664,94.1947 C154.548,94.0447 154.365,93.9707 154.17,94.0097 C150.534,94.7307 148.496,99.3087 148.411,99.5037 C148.3,99.7567 148.416,100.0507 148.669,100.1617 C148.734,100.1897 148.801,100.2037 148.869,100.2037 Z M161.963,154.0627 C161.959,154.0647 161.954,154.0667 161.951,154.0677 C161.948,154.0687 161.944,154.0707 161.941,154.0717 C159.511,155.0997 156.929,155.6207 154.268,155.6207 C152.111,155.6207 147.648,154.063663 145.379,153.304663 C145.367,153.188663 142.860028,151.795227 142.846028,151.679227 C142.817028,151.444227 142.106,151.612577 142.066,151.378577 C142.028,151.154577 141.105,150.803656 141.057,150.580656 C141.014,150.381656 140.559845,147.987174 140.366845,147.500174 C140.290845,147.307174 139.632418,143.327797 139.154418,142.452797 C138.832418,141.861797 138.509418,141.267797 138.191418,140.670797 C137.448418,139.279797 137.125418,137.691797 137.078418,136.057797 C137.012418,133.367797 139.927376,126.2897 140.036376,128.7817 C140.145376,131.2737 140.883,133.1427 141.057,133.6737 C141.076,133.7337 141.091,133.7797 141.096,133.7957 C141.157,133.9757 141.311,134.0987 141.492,134.1277 C141.53,134.1337 141.57,134.1297 141.609,134.1267 C141.631,134.1257 141.652,134.1297 141.674,134.1257 C141.911,134.0747 142.071,133.8637 142.066,133.6257 C142.065,133.6137 142.07,133.6027 142.069,133.5907 C142.069,133.5887 142.068,133.5757 142.066,133.5537 C142.046,133.2367 141.954,130.8897 143.323,129.0227 C143.382,128.9407 143.451,128.8617 143.517,128.7817 C143.557,128.7327 143.594,128.6817 143.637,128.6327 C143.727,128.5317 143.828,128.4397 143.925,128.3447 C143.984,128.2897 144.037,128.2267 144.098,128.1737 C144.182,128.0987 144.275,128.0347 144.364,127.9647 C144.448,127.9007 144.526,127.8317 144.614,127.7707 C144.685,127.7217 144.764,127.6817 144.837,127.6347 C144.952,127.5647 145.063,127.4907 145.183,127.4267 C145.246,127.3937 145.315,127.3677 145.379,127.3367 C145.52,127.2687 145.659,127.1997 145.806,127.1407 C145.856,127.1217 145.91,127.1067 145.96,127.0887 C146.13,127.0257 146.302,126.9637 146.483,126.9127 C146.506,126.9057 146.532,126.9017 146.555,126.8947 C147.003,126.7717 147.481,126.6817 147.993,126.6297 C148.261,126.6017 148.539,126.5837 148.825,126.5757 C155.351,126.3887 159.197,120.0757 160.601,117.1967 C162.015,121.4247 165.12,123.0937 167.589,123.7507 C168.94,124.1167 170.087,124.1747 170.676,124.1677 C170.72,124.1677 170.775,124.1687 170.812,124.1687 C172.85764,124.1687 173.071534,126.1967 173.555534,127.4267 C174.151534,129.2807 174.665491,131.756 174.862491,133.544 C174.875491,133.669 174.859491,133.972 174.862491,134 C174.959491,135.052 175.156698,135.6957 175.189698,136.4087 C175.132698,138.1737 174.83182,140.33547 174.35182,141.92747 C174.13082,142.61447 173.21464,144.140366 172.93964,144.762366 C172.91264,144.825366 172.88564,144.887366 172.85764,144.949366 C172.73564,145.218366 172.60864,145.483366 172.47664,145.741366 C169.73464,151.117366 164.675,152.6937 162.799,153.6637 C162.524,153.8027 162.249,153.9407 161.963,154.0627 Z M191.174,186.8977 C183.746,190.6127 182.313,196.5037 182.084,199.4317 C180.558,196.7827 177.906,190.9207 180.958,186.2617 C181.052,186.1177 181.066,185.9347 180.994,185.7787 C180.921,185.6227 180.774,185.5137 180.604,185.4917 C180.536,185.4827 173.747,184.5477 169.399,178.8967 C166.698,175.3847 167.212,171.3007 167.665,167.6977 C167.946,165.4617 168.212,163.3487 167.67,161.6317 C166.601,158.2487 163.89,155.220032 162.755,154.174032 C162.796,154.153032 162.851,154.124032 162.893,154.100032 C162.925,154.086032 162.957,154.072032 162.987,154.057032 L163.232,153.933032 C165.384,152.792032 171.363,150.386785 174.004,143.804785 L174.404952,143.136474 C174.494286,142.906474 174.755868,142.410466 175.189698,141.64845 C175.205698,141.60045 176.018747,138.30107 176.189747,136.90407 C176.190747,136.71107 176.127976,134.891535 175.795976,132.187535 C175.618976,130.610535 175.598698,130.5197 175.189698,129.1127 C175.112698,128.8917 174.488952,127.2137 174.404952,126.9967 C173.900952,125.4207 172.990365,124.2677 172.068365,123.2187 C172.026365,123.1707 171.356,123.2477 171.301,123.2187 C171.295,123.2147 171.291,123.2097 171.284,123.2077 C171.209,123.1717 171.126,123.1507 171.04,123.1587 C171.003,123.1617 170.858,123.1697 170.647,123.1707 C170.627,123.1707 170.616,123.1717 170.594,123.1717 C170.544,123.1717 170.473,123.1687 170.415,123.1667 C170.332,123.1657 170.256,123.1647 170.16,123.1607 C168.511,123.0837 164.954,122.5247 162.743,119.3047 C162.718,119.2697 162.699,119.2267 162.675,119.1917 C162.482,118.9007 162.295,118.5957 162.126,118.2607 C161.985,117.9837 161.864,117.6737 161.743,117.3637 C161.7,117.2537 161.648,117.1587 161.607,117.0447 C161.453,116.6077 161.319,116.1397 161.208,115.6397 C161.207,115.6347 161.205,115.6317 161.204,115.6267 C161.202,115.6197 161.196,115.6157 161.194,115.6097 C161.171,115.5337 161.129,115.4667 161.075,115.4107 C161.048,115.3817 161.024,115.3577 160.992,115.3367 C160.983,115.3307 160.977,115.3207 160.968,115.3147 C160.937,115.2977 160.903,115.2967 160.871,115.2857 C160.831,115.2707 160.798,115.2407 160.754,115.2367 C160.744,115.2357 160.735,115.2447 160.724,115.2447 C160.628,115.2387 160.538,115.2657 160.457,115.3087 C160.452,115.3117 160.449,115.3157 160.444,115.3187 C160.362,115.3657 160.304,115.4367 160.27,115.5277 C160.265,115.5377 160.254,115.5417 160.251,115.5507 C160.212,115.6497 156.296,125.3607 148.795,125.5757 C146.217,125.6497 144.229,126.4557 142.886,127.9707 C142.687,128.1967 142.508,128.4297 142.35,128.6677 C142.305,128.7347 142.272,128.8027 142.23,128.8717 C142.124,129.0437 142.016,129.2147 141.928,129.3877 C141.885,129.4727 141.855,129.5577 141.816,129.6427 C141.744,129.8007 141.668,129.9587 141.609,130.1137 C141.578,130.1957 141.557,130.2747 141.53,130.3557 C141.477,130.5087 141.421,130.6647 141.379,130.8137 C141.293,130.3557 141.214,129.8607 141.156,129.3497 C141.18,129.2747 141.192,129.1957 141.177,129.1127 C141.126,128.8227 141.091,128.5397 141.068,128.2617 C141.059,128.0787 141.052,127.8947 141.051,127.7117 C141.051,127.6357 141.052,127.5617 141.054,127.4867 C141.056,127.3227 141.062,127.1587 141.072,126.9967 C141.081,126.8597 141.091,126.7247 141.106,126.5897 C141.117,126.4877 141.129,126.3857 141.143,126.2857 C141.161,126.1627 141.183,126.0417 141.206,125.9217 C141.216,125.8727 141.222,125.8227 141.233,125.7737 C141.247,125.7097 141.262,125.6467 141.278,125.5837 C141.32,125.4147 141.37,125.2507 141.422,125.0867 C141.441,125.0327 141.462,124.9817 141.482,124.9287 C141.779,124.3157 141.981,123.9497 141.992,123.9297 C142.007,123.9017 142.011,123.8717 142.021,123.8407 C142.031,123.8127 142.045,123.7857 142.049,123.7567 C142.054,123.7197 142.049,123.6837 142.046,123.6477 C142.045,123.6357 142.046,123.6237 142.045,123.6117 C143.147,121.5427 144.952,119.9487 146.445,118.6347 L146.98,118.1627 C149.25,116.1357 148.336,113.0347 147.536,111.6777 C147.395,111.4397 147.088,111.3617 146.851,111.5017 C146.613,111.6417 146.534,111.9477 146.674,112.1857 C146.693,112.2177 148.545,115.4247 146.314,117.4167 L145.784,117.8847 C144.06,119.4017 141.767,121.4327 140.672,124.2297 C140.217,125.0957 134.634398,132.506375 136.173398,138.714375 C136.188398,138.771375 136.579398,139.999375 136.603398,140.059375 C136.735398,140.396375 137.680398,142.212375 137.994398,142.789375 C139.534398,145.616375 138.932481,148.376837 139.698481,151.150837 C139.706481,151.176837 140.073481,153.5377 140.107481,153.9997 C140.285481,156.3767 139.809481,158.8227 138.279481,161.4247 C133.680481,169.2417 137.742,170.9757 143.009,179.9077 C144.088,181.7367 144.315,183.7827 143.685,185.9887 C141.902,192.2367 133.782,198.7207 126.465,202.9527 C127.308,201.7247 128.093,200.0747 128.025,198.2407 C127.946,196.1367 126.762,194.2377 124.505,192.5957 C123.894,192.1517 123.223,191.6757 122.51,191.1717 C114.637,185.5947 101.461,176.2617 105.907,163.5307 C105.999,163.2697 105.861,162.9847 105.6,162.8937 C105.338,162.7997 105.054,162.9397 104.963,163.2007 C100.269,176.6437 113.83,186.2487 121.932,191.9867 C122.642,192.4897 123.309,192.9627 123.918,193.4047 C125.912,194.8547 126.958,196.4937 127.026,198.2737 C127.152,201.5637 123.92,204.3547 123.887,204.3827 C123.694,204.5487 123.655,204.8327 123.797,205.0437 C123.893,205.1857 124.05,205.2637 124.212,205.2637 C124.291,205.2637 124.37,205.2457 124.443,205.2077 C132.465,201.0127 142.571,193.5357 144.647,186.2627 C145.355,183.7837 145.094,181.4737 143.871,179.3997 C138.771,170.7537 134.724481,169.4407 139.140481,161.9327 C140.634481,159.3947 141.816,155.401364 141.051,151.729671 C144.647,155.088 151.838,156.129032 153.99,156.129032 C156.676,156.129032 159.279,155.610032 161.743,154.615032 C162.524,155.294032 165.602,158.4057 166.716,161.9327 C167.193,163.4407 166.94,165.4477 166.672,167.5727 C166.195,171.3677 165.654,175.6687 168.606,179.5067 C172.387,184.4217 177.777,185.9457 179.737,186.3527 C176.066,193.0147 181.915,201.0897 182.173,201.4407 C182.307,201.6237 182.548,201.6937 182.761,201.6077 C182.972,201.5237 183.1,201.3067 183.072,201.0817 C183.029,200.7347 182.122,192.5427 191.622,187.7927 C191.869,187.6687 191.968,187.3687 191.845,187.1217 C191.721,186.8747 191.422,186.7747 191.174,186.8977 Z" id="Fill-8" fill="#000"/>
                    </g>
                </g>
                <g id="Expression" transform="translate(201.000000, 501.000000) scale(1 1)">
                    <g id="Expression/Happy" stroke="none" stroke-width="1" fill="none" fill-rule="evenodd">
                        <path d="M65.5638,42.4847 C65.7318,42.7047 65.6888,43.0187 65.4678,43.1857 C63.3578,44.7897 61.4758,45.3127 59.9198,45.3127 C57.0168,45.3127 55.2448,43.4917 55.2178,43.4637 C55.0288,43.2627 55.0378,42.9477 55.2368,42.7577 C55.4378,42.5677 55.7538,42.5767 55.9438,42.7747 C56.0888,42.9257 59.5458,46.4277 64.8638,42.3897 C65.0828,42.2217 65.3978,42.2647 65.5638,42.4847 Z M61.1759,29.2677 C61.5959,29.7817 65.2429,34.3587 64.0529,36.8667 C63.5839,37.8557 62.4859,38.3567 60.7889,38.3567 C59.0919,38.3567 57.9939,37.8557 57.5249,36.8677 C56.3349,34.3597 59.9819,29.7817 60.4019,29.2677 C60.5909,29.0357 60.9859,29.0357 61.1759,29.2677 Z M60.7889,30.3977 C59.6359,31.9377 57.7339,34.9747 58.4289,36.4387 C58.7179,37.0477 59.5119,37.3567 60.7889,37.3567 C62.0659,37.3567 62.8599,37.0477 63.1489,36.4387 C63.8449,34.9747 61.9419,31.9377 60.7889,30.3977 Z M53.8972,27.8363 C54.5552,27.8363 55.0892,28.6193 55.0892,29.5843 C55.0892,30.5493 54.5552,31.3323 53.8972,31.3323 C53.2392,31.3323 52.7062,30.5493 52.7062,29.5843 C52.7062,28.6193 53.2392,27.8363 53.8972,27.8363 Z M67.769,27.8363 C68.428,27.8363 68.961,28.6193 68.961,29.5843 C68.961,30.5493 68.428,31.3323 67.769,31.3323 C67.112,31.3323 66.578,30.5493 66.578,29.5843 C66.578,28.6193 67.112,27.8363 67.769,27.8363 Z M55.0896,23.9998 C55.3656,23.9998 55.5896,24.2238 55.5896,24.4998 C55.5896,24.7758 55.3656,24.9998 55.0896,24.9998 C52.5666,24.9998 51.0876,26.4288 51.0726,26.4438 C50.9746,26.5398 50.8476,26.5878 50.7206,26.5878 C50.5916,26.5878 50.4636,26.5388 50.3666,26.4408 C50.1716,26.2448 50.1716,25.9298 50.3666,25.7348 C50.4376,25.6648 52.1356,23.9998 55.0896,23.9998 Z M66.5776,23.9998 C69.5316,23.9998 71.2296,25.6648 71.3006,25.7348 C71.4956,25.9298 71.4956,26.2448 71.3006,26.4408 C71.2036,26.5388 71.0746,26.5878 70.9466,26.5878 C70.8196,26.5878 70.6926,26.5398 70.5946,26.4438 C70.5806,26.4288 69.1006,24.9998 66.5776,24.9998 C66.3016,24.9998 66.0776,24.7758 66.0776,24.4998 C66.0776,24.2238 66.3016,23.9998 66.5776,23.9998 Z" id="Combined-Shape" fill="#000"/>
                        <path d="M51.4996066,33 C53.4327301,33 55,33.8954741 55,35 C55,36.1045259 53.4327301,37 51.4996066,37 C49.5664831,37 48,36.1045259 48,35 C48,33.8954741 49.5664831,33 51.4996066,33 Z M69.5,33 C71.4329063,33 73,33.8954741 73,35 C73,36.1045259 71.4329063,37 69.5,37 C67.5670937,37 66,36.1045259 66,35 C66,33.8954741 67.5670937,33 69.5,33 Z" id="Cheeks" fill="#E2A2B5"/>
                    </g>
                </g>
                <g id="Facial Hair" transform="translate(200.000000, 500.000000) scale(1 1)" fill="#000">
                    <g id="Facial Hair/None" stroke="none" stroke-width="1" fill="none" fill-rule="evenodd" fill-opacity="0"/>
                </g>
                <g id="Accesories" transform="translate(104.500000, 399.000000) scale(1 1)">
                    <g id="Accesories/None" stroke="none" stroke-width="1" fill="none" fill-rule="evenodd" fill-opacity="0"/>
                </g>
            </g>
        </g>
        <g id="Side-table" transform="translate(119.000000, 429.740000)">
            <path d="M24.3118,16.2632 L67.6438,76.4862 L110.9759,16.2632 L117.8769,16.2632 L71.0948,81.2822 L117.8768,146.3012 L110.9768,146.3012 L67.6438,86.0772 L24.3119,146.3012 L17.4109,146.3012 L64.1938,81.2822 L17.4108,16.2632 L24.3118,16.2632 Z M134.7423,0.5461 L134.7423,16.2631 L0.5463,16.2631 L0.5463,0.5461 L134.7423,0.5461 Z" id="Table" fill="#E2A2B5"/>
            <path d="M134.742,15.717 C135.044,15.717 135.288,15.961 135.288,16.263 C135.288,16.565 135.044,16.809 134.742,16.809 L25.376,16.809 L118.3198,145.9821 C118.4398,146.1491 118.4568,146.3681 118.3628,146.5501 C118.2698,146.7331 118.0818,146.8471 117.8768,146.8471 L110.9768,146.8471 C110.6748,146.8471 110.4308,146.6031 110.4308,146.3011 C110.4308,145.9991 110.6748,145.7551 110.9768,145.7551 L116.8118,145.7551 L24.0318,16.8091 L0.546,16.809 C0.244,16.809 -4.40536496e-13,16.565 -4.40536496e-13,16.263 L-4.40536496e-13,0.546 C-4.40536496e-13,0.245 0.244,4.12114787e-13 0.546,4.12114787e-13 C0.848,4.12114787e-13 1.092,0.245 1.092,0.546 L1.092,15.717 L134.742,15.717 Z" id="Combined-Shape" fill="#000"/>
        </g>
        <g id="Table top" transform="translate(95.000000, 275.000000) scale(1 1)">
            <g id="Table top/Tea Cup" stroke="none" stroke-width="1" fill="none" fill-rule="evenodd">
                <g id="Tea-Cup" transform="translate(72.000000, 116.000000)">
                    <path d="M18.4248,39.6089 L15.4658,39.6089 C9.1788,39.6089 3.9128,34.8489 3.2808,28.5939 L0.3958,0.0699 L33.4958,0.0699 L30.6108,28.5939 C29.9778,34.8489 24.7118,39.6089 18.4248,39.6089" id="Cup" fill="#EC7068"/>
                    <path d="M31.5225,31.2446 C30.5605,31.2446 29.5285,31.1966 28.4185,31.1146 C28.0865,31.0896 27.8375,30.8016 27.8625,30.4706 C27.8865,30.1386 28.2005,29.8926 28.5065,29.9136 C36.9305,30.5396 40.0665,29.1476 42.0875,19.7136 C43.2185,14.4406 43.0415,10.9136 41.5465,8.9316 C39.7545,6.5536 36.0225,6.2986 31.7005,6.0036 L30.2835,5.9046 C29.9515,5.8806 29.7025,5.5916 29.7265,5.2606 C29.7515,4.9286 30.0605,4.6826 30.3715,4.7036 L31.7815,4.8036 C36.3985,5.1176 40.3845,5.3896 42.5085,8.2066 C44.2495,10.5166 44.4895,14.2536 43.2655,19.9656 C41.3265,29.0136 38.0565,31.2446 31.5225,31.2446" id="Fill-9" fill="#000"/>
                    <path d="M28.4629,9.2476 C27.5509,9.2476 26.8129,9.9866 26.8129,10.8986 C26.8129,11.8106 27.5509,12.5506 28.4629,12.5506 C29.3749,12.5506 30.1139,11.8106 30.1139,10.8986 C30.1139,9.9866 29.3749,9.2476 28.4629,9.2476 M8.4889,26.4826 C7.5769,26.4826 6.8379,27.2226 6.8379,28.1346 C6.8379,29.0456 7.5769,29.7846 8.4889,29.7846 C9.4009,29.7846 10.1399,29.0456 10.1399,28.1346 C10.1399,27.2226 9.4009,26.4826 8.4889,26.4826 M20.2469,4.2956 C20.2469,3.3836 19.5079,2.6436 18.5969,2.6436 C17.6849,2.6436 16.9449,3.3836 16.9449,4.2956 C16.9449,5.2066 17.6849,5.9456 18.5969,5.9456 C19.5079,5.9456 20.2469,5.2066 20.2469,4.2956 M22.5429,20.9346 C21.6309,20.9346 20.8919,21.6736 20.8919,22.5846 C20.8919,23.4966 21.6309,24.2356 22.5429,24.2356 C23.4539,24.2356 24.1929,23.4966 24.1929,22.5846 C24.1929,21.6736 23.4539,20.9346 22.5429,20.9346 M20.2469,32.5626 C19.3359,32.5626 18.5969,33.3026 18.5969,34.2146 C18.5969,35.1266 19.3359,35.8656 20.2469,35.8656 C21.1589,35.8656 21.8989,35.1266 21.8989,34.2146 C21.8989,33.3026 21.1589,32.5626 20.2469,32.5626 M13.8049,12.3046 C12.8929,12.3046 12.1529,13.0436 12.1529,13.9556 C12.1529,14.8676 12.8929,15.6056 13.8049,15.6056 C14.7159,15.6056 15.4549,14.8676 15.4549,13.9556 C15.4549,13.0436 14.7159,12.3046 13.8049,12.3046 M5.1869,4.2956 C4.2759,4.2956 3.5359,5.0336 3.5359,5.9456 C3.5359,6.8576 4.2759,7.5976 5.1869,7.5976 C6.0989,7.5976 6.8379,6.8576 6.8379,5.9456 C6.8379,5.0336 6.0989,4.2956 5.1869,4.2956" id="Dots" fill="#F1EFEF"/>
                </g>
            </g>
        </g>
    </g>
</svg>
