<svg viewBox="145.6 69.497 540.8 529.006" xmlns="http://www.w3.org/2000/svg" overflow="visible">
    <g id="Master/Spot Illustration/Process" stroke="none" stroke-width="1" fill="none" fill-rule="evenodd">
        <path d="M586.099,574 L154.5,574 C154.224,574 154,573.776 154,573.5 C154,573.224 154.224,573 154.5,573 L586.099,573 C586.375,573 586.599,573.224 586.599,573.5 C586.599,573.776 586.375,574 586.099,574" id="Fill-32" fill="#000"/>
        <path d="M500.937,597 L401.5,597 C401.224,597 401,596.776 401,596.5 C401,596.224 401.224,596 401.5,596 L500.937,596 C501.213,596 501.437,596.224 501.437,596.5 C501.437,596.776 501.213,597 500.937,597" id="Fill-33" fill="#000"/>
        <g id="User Interface" transform="translate(116.000000, 56.240000) scale(1 1)">
            <g id="User Interface/Online Shopping" stroke="none" stroke-width="1" fill="none" fill-rule="evenodd">
                <g id="Group-46" transform="translate(71.000000, 22.000000)">
                    <path d="M365.542,315.2299 C365.173,316.2499 364.594,317.1719 363.818,317.9709 C363.042,318.7719 362.03,319.4379 360.81,319.9479 C359.578,320.4619 358.081,320.7749 356.358,320.8759 C356.094,320.8919 355.888,321.1099 355.888,321.3749 L355.888,325.8059 L353.693,325.8059 L353.693,321.3749 C353.693,321.1119 353.49,320.8939 353.228,320.8759 C349.917,320.6489 347.401,319.7399 345.747,318.1719 C344.218,316.7249 343.335,314.8269 343.12,312.5279 L349.994,312.5279 C350.121,313.2649 350.382,313.9159 350.774,314.4659 C351.266,315.1589 352.042,315.6309 353.083,315.8679 C353.23,315.9029 353.387,315.8659 353.505,315.7709 C353.624,315.6759 353.693,315.5319 353.693,315.3799 L353.693,310.2519 C353.693,310.0009 353.507,309.7889 353.258,309.7569 C351.487,309.5249 349.971,309.1829 348.75,308.7379 C347.552,308.3009 346.556,307.7419 345.791,307.0749 C345.044,306.4249 344.494,305.6249 344.157,304.6979 C343.811,303.7459 343.635,302.5889 343.635,301.2589 C343.635,300.0999 343.852,299.0269 344.281,298.0719 C344.71,297.1149 345.339,296.2629 346.151,295.5379 C346.969,294.8059 347.979,294.2079 349.151,293.7589 C350.335,293.3059 351.707,293.0239 353.227,292.9229 C353.489,292.9049 353.693,292.6869 353.693,292.4239 L353.693,289.4139 L355.888,289.4139 L355.888,292.4639 C355.888,292.7249 356.088,292.9409 356.348,292.9619 C359.177,293.1889 361.427,293.9679 363.034,295.2769 C364.502,296.4719 365.384,298.2749 365.659,300.6419 L358.946,300.6419 C358.834,300.0709 358.637,299.5759 358.36,299.1659 C357.992,298.6209 357.375,298.2209 356.525,297.9779 C356.375,297.9359 356.212,297.9659 356.086,298.0599 C355.961,298.1539 355.888,298.3019 355.888,298.4589 L355.888,303.3109 C355.888,303.5599 356.072,303.7719 356.319,303.8059 C357.814,304.0129 359.195,304.3059 360.424,304.6759 C361.625,305.0389 362.662,305.5379 363.507,306.1589 C364.33,306.7639 364.975,307.5389 365.424,308.4589 C365.875,309.3859 366.104,310.5459 366.104,311.9089 C366.104,313.0819 365.915,314.1989 365.542,315.2299 L365.542,315.2299 Z M364.099,305.3529 C363.162,304.6649 362.023,304.1149 360.713,303.7189 C359.554,303.3689 358.269,303.0869 356.888,302.8779 L356.888,299.1869 C357.174,299.3349 357.39,299.5149 357.532,299.7249 C357.788,300.1039 357.952,300.5999 358.021,301.1989 C358.05,301.4509 358.264,301.6419 358.518,301.6419 L366.209,301.6419 C366.349,301.6419 366.481,301.5839 366.576,301.4809 C366.671,301.3789 366.719,301.2429 366.708,301.1039 C366.487,298.1869 365.463,295.9659 363.666,294.5009 C361.988,293.1359 359.709,292.2979 356.888,292.0069 L356.888,288.9139 C356.888,288.6379 356.664,288.4139 356.388,288.4139 L353.193,288.4139 C352.917,288.4139 352.693,288.6379 352.693,288.9139 L352.693,291.9619 C351.257,292.0939 349.947,292.3829 348.794,292.8249 C347.507,293.3169 346.394,293.9799 345.484,294.7929 C344.567,295.6109 343.856,296.5769 343.369,297.6629 C342.882,298.7479 342.635,299.9579 342.635,301.2589 C342.635,302.7059 342.831,303.9779 343.217,305.0399 C343.613,306.1279 344.258,307.0659 345.134,307.8289 C345.992,308.5769 347.093,309.1989 348.407,309.6769 C349.594,310.1099 351.034,310.4499 352.693,310.6879 L352.693,314.7059 C352.209,314.5129 351.838,314.2379 351.589,313.8869 C351.222,313.3709 351,312.7299 350.93,311.9809 C350.906,311.7239 350.69,311.5279 350.432,311.5279 L342.583,311.5279 C342.446,311.5279 342.315,311.5839 342.221,311.6829 C342.126,311.7819 342.077,311.9159 342.084,312.0519 C342.221,314.8549 343.222,317.1589 345.06,318.8979 C346.806,320.5529 349.372,321.5409 352.693,321.8369 L352.693,326.3059 C352.693,326.5819 352.917,326.8059 353.193,326.8059 L356.388,326.8059 C356.664,326.8059 356.888,326.5819 356.888,326.3059 L356.888,321.8409 C358.528,321.7069 359.975,321.3799 361.196,320.8709 C362.542,320.3079 363.666,319.5659 364.537,318.6669 C365.411,317.7659 366.065,316.7239 366.482,315.5699 C366.895,314.4299 367.104,313.1979 367.104,311.9089 C367.104,310.3929 366.841,309.0849 366.323,308.0219 C365.803,306.9529 365.054,306.0549 364.099,305.3529 L364.099,305.3529 Z M382.433,285.9689 C382.361,286.0499 382.268,286.1239 382.154,286.1879 L382.154,284.5779 C382.351,284.6599 382.45,284.7329 382.499,284.7799 C382.575,284.8539 382.677,284.9869 382.677,285.2959 C382.677,285.5619 382.597,285.7819 382.433,285.9689 L382.433,285.9689 Z M381.769,283.4139 C381.621,283.3799 381.463,283.4129 381.344,283.5079 C381.224,283.6029 381.154,283.7479 381.154,283.8999 L381.154,286.8959 C381.154,287.0469 381.223,287.1909 381.341,287.2859 C381.431,287.3569 381.542,287.3959 381.654,287.3959 C381.69,287.3959 381.728,287.3919 381.764,287.3829 C382.39,287.2419 382.868,286.9879 383.185,286.6279 C383.511,286.2559 383.677,285.8079 383.677,285.2959 C383.677,284.7859 383.514,284.3709 383.192,284.0599 C382.904,283.7829 382.438,283.5719 381.769,283.4139 L381.769,283.4139 Z M379.098,278.1279 C378.879,278.0389 378.768,277.9579 378.713,277.9049 C378.586,277.7829 378.524,277.5939 378.524,277.3269 C378.524,277.1499 378.524,276.7859 379.098,276.5389 L379.098,278.1279 Z M379.511,275.3889 C377.869,275.6799 377.524,276.6039 377.524,277.3269 C377.524,277.8739 377.691,278.3109 378.02,278.6259 C378.319,278.9139 378.798,279.1299 379.487,279.2859 C379.524,279.2949 379.561,279.2989 379.598,279.2989 C379.71,279.2989 379.821,279.2609 379.91,279.1889 C380.029,279.0949 380.098,278.9509 380.098,278.7989 L380.098,275.8809 C380.098,275.7329 380.033,275.5929 379.919,275.4979 C379.807,275.4029 379.661,275.3629 379.511,275.3889 L379.511,275.3889 Z M357.807,314.2019 C357.596,314.4419 357.288,314.6389 356.888,314.7909 L356.888,311.4609 C357.462,311.6469 357.75,311.8339 357.895,311.9729 C358.137,312.2069 358.255,312.5339 358.255,312.9739 C358.255,313.4569 358.108,313.8579 357.807,314.2019 L357.807,314.2019 Z M356.502,310.3179 C356.352,310.2819 356.197,310.3179 356.077,310.4129 C355.958,310.5069 355.888,310.6519 355.888,310.8049 L355.888,315.4589 C355.888,315.6109 355.957,315.7549 356.076,315.8499 C356.165,315.9209 356.275,315.9589 356.388,315.9589 C356.424,315.9589 356.461,315.9549 356.498,315.9469 C357.415,315.7399 358.108,315.3749 358.559,314.8609 C359.021,314.3349 359.255,313.6999 359.255,312.9739 C359.255,312.2589 359.031,311.6799 358.588,311.2519 C358.176,310.8569 357.494,310.5509 356.502,310.3179 L356.502,310.3179 Z M352.693,302.2259 C352.085,302.0339 351.78,301.8349 351.626,301.6879 C351.372,301.4429 351.248,301.0839 351.248,300.5889 C351.248,300.0619 351.411,299.3529 352.693,298.9699 L352.693,302.2259 Z M353.106,297.8489 C350.744,298.2679 350.248,299.5699 350.248,300.5889 C350.248,301.3589 350.478,301.9709 350.933,302.4089 C351.359,302.8189 352.062,303.1309 353.082,303.3639 C353.119,303.3729 353.156,303.3759 353.193,303.3759 C353.306,303.3759 353.416,303.3389 353.505,303.2679 C353.624,303.1719 353.693,303.0289 353.693,302.8759 L353.693,298.3409 C353.693,298.1929 353.628,298.0529 353.515,297.9579 C353.401,297.8619 353.251,297.8209 353.106,297.8489 L353.106,297.8489 Z M387.376,286.6879 C387.148,287.3189 386.788,287.8909 386.307,288.3879 C385.824,288.8859 385.193,289.2999 384.43,289.6189 C383.656,289.9429 382.712,290.1389 381.625,290.2029 C381.36,290.2179 381.154,290.4379 381.154,290.7019 L381.154,293.3749 L380.098,293.3749 L380.098,290.7019 C380.098,290.4389 379.895,290.2209 379.632,290.2029 C377.545,290.0609 375.963,289.4909 374.929,288.5119 C374.007,287.6389 373.476,286.5469 373.314,285.1879 L377.393,285.1879 C377.486,285.6279 377.655,286.0219 377.896,286.3599 C378.239,286.8419 378.774,287.1689 379.487,287.3319 C379.637,287.3689 379.791,287.3309 379.91,287.2359 C380.029,287.1409 380.098,286.9969 380.098,286.8449 L380.098,283.5449 C380.098,283.2939 379.912,283.0819 379.663,283.0499 C378.537,282.9029 377.573,282.6849 376.8,282.4029 C376.049,282.1289 375.427,281.7799 374.952,281.3659 C374.495,280.9679 374.158,280.4779 373.951,279.9099 C373.735,279.3179 373.626,278.5939 373.626,277.7589 C373.626,277.0379 373.761,276.3729 374.026,275.7809 C374.292,275.1879 374.682,274.6599 375.186,274.2099 C375.695,273.7539 376.327,273.3799 377.061,273.0989 C377.806,272.8139 378.67,272.6369 379.632,272.5719 C379.894,272.5539 380.098,272.3359 380.098,272.0729 L380.098,270.3149 L381.154,270.3149 L381.154,272.0989 C381.154,272.3599 381.354,272.5769 381.614,272.5979 C383.396,272.7399 384.811,273.2279 385.818,274.0469 C386.697,274.7629 387.223,275.7919 387.417,277.1829 L383.443,277.1829 C383.363,276.8519 383.238,276.5599 383.07,276.3109 C382.809,275.9249 382.379,275.6449 381.792,275.4759 C381.643,275.4319 381.478,275.4629 381.353,275.5569 C381.228,275.6519 381.154,275.7989 381.154,275.9569 L381.154,279.0789 C381.154,279.3279 381.338,279.5399 381.585,279.5739 C382.539,279.7059 383.419,279.8929 384.2,280.1279 C384.952,280.3549 385.601,280.6669 386.129,281.0549 C386.635,281.4269 387.032,281.9029 387.308,282.4699 C387.586,283.0419 387.727,283.7619 387.727,284.6109 C387.727,285.3439 387.609,286.0429 387.376,286.6879 L387.376,286.6879 Z M388.207,282.0319 C387.859,281.3179 387.359,280.7179 386.721,280.2489 C386.102,279.7929 385.35,279.4309 384.489,279.1709 C383.778,278.9569 382.995,278.7809 382.154,278.6469 L382.154,276.7659 C382.188,276.7989 382.217,276.8339 382.242,276.8709 C382.39,277.0909 382.487,277.3839 382.528,277.7399 C382.557,277.9919 382.771,278.1829 383.024,278.1829 L387.974,278.1829 C388.113,278.1829 388.246,278.1249 388.34,278.0219 C388.435,277.9199 388.483,277.7839 388.472,277.6449 C388.326,275.7169 387.645,274.2449 386.449,273.2719 C385.374,272.3969 383.93,271.8509 382.154,271.6459 L382.154,269.8149 C382.154,269.5389 381.93,269.3149 381.654,269.3149 L379.598,269.3149 C379.322,269.3149 379.098,269.5389 379.098,269.8149 L379.098,271.6149 C378.221,271.7079 377.417,271.8919 376.704,272.1649 C375.855,272.4899 375.12,272.9269 374.519,273.4639 C373.911,274.0079 373.438,274.6489 373.114,275.3709 C372.79,276.0919 372.626,276.8959 372.626,277.7589 C372.626,278.7109 372.756,279.5499 373.012,280.2519 C373.276,280.9809 373.709,281.6089 374.295,282.1199 C374.863,282.6149 375.591,283.0269 376.457,283.3419 C377.196,283.6119 378.083,283.8259 379.098,283.9799 L379.098,286.1279 C378.937,286.0329 378.809,285.9179 378.711,285.7799 C378.493,285.4749 378.361,285.0909 378.32,284.6409 C378.296,284.3839 378.08,284.1879 377.822,284.1879 L372.771,284.1879 C372.634,284.1879 372.503,284.2439 372.409,284.3429 C372.314,284.4419 372.265,284.5749 372.271,284.7119 C372.362,286.5629 373.025,288.0859 374.242,289.2379 C375.366,290.3039 376.999,290.9499 379.098,291.1619 L379.098,293.8749 C379.098,294.1509 379.322,294.3749 379.598,294.3749 L381.654,294.3749 C381.93,294.3749 382.154,294.1509 382.154,293.8749 L382.154,291.1649 C383.161,291.0689 384.054,290.8599 384.816,290.5419 C385.705,290.1699 386.448,289.6799 387.025,289.0839 C387.605,288.4849 388.04,287.7929 388.317,287.0269 C388.589,286.2729 388.727,285.4599 388.727,284.6109 C388.727,283.6089 388.552,282.7419 388.207,282.0319 L388.207,282.0319 Z" id="Fill-1" fill="#B5B6B7"/>
                    <polygon id="Fill-3" fill="#E1E1E1" points="0.618 305.514 154.951 305.514 154.951 168.786 0.618 168.786"/>
                    <polygon id="Fill-5" fill="#F1EFEF" points="0.618 305.514 154.951 305.514 154.951 250.411 0.618 250.411"/>
                    <path d="M25.5391,226.9218 C16.6801,226.9218 9.4731,219.7148 9.4731,210.8558 C9.4731,201.9978 16.6801,194.7908 25.5391,194.7908 C34.3981,194.7908 41.6051,201.9978 41.6051,210.8558 C41.6051,219.7148 34.3981,226.9218 25.5391,226.9218 L25.5391,226.9218 Z M42.3981,210.8558 C42.3981,201.5598 34.8351,193.9978 25.5391,193.9978 C16.2431,193.9978 8.6801,201.5598 8.6801,210.8558 C8.6801,220.1518 16.2431,227.7148 25.5391,227.7148 C34.8351,227.7148 42.3981,220.1518 42.3981,210.8558 L42.3981,210.8558 Z M143.5181,232.4088 L53.8911,232.4088 C53.6711,232.4088 53.4941,232.5868 53.4941,232.8058 C53.4941,233.0248 53.6711,233.2018 53.8911,233.2018 L143.5181,233.2018 C143.7381,233.2018 143.9151,233.0248 143.9151,232.8058 C143.9151,232.5868 143.7381,232.4088 143.5181,232.4088 L143.5181,232.4088 Z M143.5181,213.2038 L53.8911,213.2038 C53.6711,213.2038 53.4941,213.3808 53.4941,213.5998 C53.4941,213.8188 53.6711,213.9968 53.8911,213.9968 L143.5181,213.9968 C143.7381,213.9968 143.9151,213.8188 143.9151,213.5998 C143.9151,213.3808 143.7381,213.2038 143.5181,213.2038 L143.5181,213.2038 Z M143.5181,193.9978 L53.8911,193.9978 C53.6711,193.9978 53.4941,194.1748 53.4941,194.3938 C53.4941,194.6128 53.6711,194.7908 53.8911,194.7908 L143.5181,194.7908 C143.7381,194.7908 143.9151,194.6128 143.9151,194.3938 C143.9151,194.1748 143.7381,193.9978 143.5181,193.9978 L143.5181,193.9978 Z M32.9091,289.3408 L122.6591,289.3408 L122.6591,270.0128 L32.9091,270.0128 L32.9091,289.3408 Z M123.0551,269.2208 L32.5131,269.2208 C32.2931,269.2208 32.1161,269.3978 32.1161,269.6168 L32.1161,289.7378 C32.1161,289.9568 32.2931,290.1338 32.5131,290.1338 L123.0551,290.1338 C123.2741,290.1338 123.4521,289.9568 123.4521,289.7378 L123.4521,269.6168 C123.4521,269.3978 123.2741,269.2208 123.0551,269.2208 L123.0551,269.2208 Z M154.9511,250.0148 L31.0261,250.0148 C30.8071,250.0148 30.6301,250.1918 30.6301,250.4108 C30.6301,250.6298 30.8071,250.8078 31.0261,250.8078 L154.9511,250.8078 C155.1701,250.8078 155.3471,250.6298 155.3471,250.4108 C155.3471,250.1918 155.1701,250.0148 154.9511,250.0148 L154.9511,250.0148 Z M155.3471,168.7858 C155.3471,168.5668 155.1701,168.3898 154.9511,168.3898 L0.6171,168.3898 C0.3981,168.3898 0.2211,168.5668 0.2211,168.7858 L0.2211,285.8508 C0.2211,286.0698 0.3981,286.2478 0.6171,286.2478 C0.8361,286.2478 1.0141,286.0698 1.0141,285.8508 L1.0141,169.1828 L154.9511,169.1828 C155.1701,169.1828 155.3471,169.0048 155.3471,168.7858 L155.3471,168.7858 Z" id="Fill-6" fill="#B5B6B7"/>
                    <polygon id="Fill-7" fill="#E1E1E1" points="271.413 114.722 427.248 114.722 427.248 103.802 271.413 103.802"/>
                    <polygon id="Fill-8" fill="#F1EFEF" points="271.413 238.477 427.248 238.477 427.248 114.722 271.413 114.722"/>
                    <path d="M427.248,103.4052 C427.029,103.4052 426.852,103.5822 426.852,103.8012 L426.852,114.3252 L271.413,114.3252 C271.193,114.3252 271.016,114.5022 271.016,114.7212 C271.016,114.9412 271.193,115.1182 271.413,115.1182 L427.248,115.1182 C427.467,115.1182 427.644,114.9412 427.644,114.7212 L427.644,103.8012 C427.644,103.5822 427.467,103.4052 427.248,103.4052 L427.248,103.4052 Z M416.328,159.5632 L368.649,159.5632 C368.43,159.5632 368.253,159.7402 368.253,159.9602 C368.253,160.1792 368.43,160.3562 368.649,160.3562 L416.328,160.3562 C416.547,160.3562 416.725,160.1792 416.725,159.9602 C416.725,159.7402 416.547,159.5632 416.328,159.5632 L416.328,159.5632 Z M416.328,149.5102 L368.649,149.5102 C368.43,149.5102 368.253,149.6872 368.253,149.9062 C368.253,150.1262 368.43,150.3032 368.649,150.3032 L416.328,150.3032 C416.547,150.3032 416.725,150.1262 416.725,149.9062 C416.725,149.6872 416.547,149.5102 416.328,149.5102 L416.328,149.5102 Z M416.328,139.4572 L368.649,139.4572 C368.43,139.4572 368.253,139.6342 368.253,139.8542 C368.253,140.0732 368.43,140.2502 368.649,140.2502 L416.328,140.2502 C416.547,140.2502 416.725,140.0732 416.725,139.8542 C416.725,139.6342 416.547,139.4572 416.328,139.4572 L416.328,139.4572 Z M416.328,129.4042 L368.649,129.4042 C368.43,129.4042 368.253,129.5812 368.253,129.8012 C368.253,130.0202 368.43,130.1972 368.649,130.1972 L416.328,130.1972 C416.547,130.1972 416.725,130.0202 416.725,129.8012 C416.725,129.5812 416.547,129.4042 416.328,129.4042 L416.328,129.4042 Z M283.075,224.7342 L357.853,224.7342 L357.853,130.1972 L283.075,130.1972 L283.075,224.7342 Z M358.249,129.4042 L282.679,129.4042 C282.459,129.4042 282.282,129.5812 282.282,129.8012 L282.282,225.1312 C282.282,225.3502 282.459,225.5272 282.679,225.5272 L358.249,225.5272 C358.469,225.5272 358.646,225.3502 358.646,225.1312 L358.646,129.8012 C358.646,129.5812 358.469,129.4042 358.249,129.4042 L358.249,129.4042 Z" id="Fill-9" fill="#B5B6B7"/>
                    <polygon id="Fill-10" fill="#FFF" points="108.244 464.58 316.029 464.58 316.029 11.319 108.244 11.319"/>
                    <path d="M108.744,464.08 L315.529,464.08 L315.529,11.819 L108.744,11.819 L108.744,464.08 Z M107.744,465.08 L316.529,465.08 L316.529,10.819 L107.744,10.819 L107.744,465.08 Z" id="Fill-11" fill="#000"/>
                    <path d="M301.5068,459.4057 L122.7668,459.4057 C117.3528,459.4057 112.9638,455.0167 112.9638,449.6027 L112.9638,28.0887 C112.9638,22.6737 117.3528,18.2847 122.7668,18.2847 L160.7338,18.2847 C167.6918,18.2847 173.3318,23.9247 173.3318,30.8827 C173.3318,37.8397 178.9718,43.4797 185.9288,43.4797 L238.3438,43.4797 C245.3018,43.4797 250.9418,37.8397 250.9418,30.8827 C250.9418,23.9247 256.5818,18.2847 263.5398,18.2847 L301.5068,18.2847 C306.9208,18.2847 311.3098,22.6737 311.3098,28.0887 L311.3098,449.6027 C311.3098,455.0167 306.9208,459.4057 301.5068,459.4057 M97.1408,26.9227 L97.1408,450.7677 C97.1408,465.3607 108.9708,477.1897 123.5638,477.1897 L300.7098,477.1897 C315.3028,477.1897 327.1318,465.3607 327.1318,450.7677 L327.1318,26.9227 C327.1318,12.3297 315.3028,0.4997 300.7098,0.4997 L123.5638,0.4997 C108.9708,0.4997 97.1408,12.3297 97.1408,26.9227" id="Fill-12" fill="#000"/>
                    <path d="M301.5068,459.4057 L122.7668,459.4057 C117.3528,459.4057 112.9638,455.0167 112.9638,449.6027 L112.9638,28.0887 C112.9638,22.6737 117.3528,18.2847 122.7668,18.2847 L160.7338,18.2847 C167.6918,18.2847 173.3318,23.9247 173.3318,30.8827 C173.3318,37.8397 178.9718,43.4797 185.9288,43.4797 L238.3438,43.4797 C245.3018,43.4797 250.9418,37.8397 250.9418,30.8827 C250.9418,23.9247 256.5818,18.2847 263.5398,18.2847 L301.5068,18.2847 C306.9208,18.2847 311.3098,22.6737 311.3098,28.0887 L311.3098,449.6027 C311.3098,455.0167 306.9208,459.4057 301.5068,459.4057 Z M97.1408,26.9227 L97.1408,450.7677 C97.1408,465.3607 108.9708,477.1897 123.5638,477.1897 L300.7098,477.1897 C315.3028,477.1897 327.1318,465.3607 327.1318,450.7677 L327.1318,26.9227 C327.1318,12.3297 315.3028,0.4997 300.7098,0.4997 L123.5638,0.4997 C108.9708,0.4997 97.1408,12.3297 97.1408,26.9227 Z" id="Stroke-13" stroke="#FFF" stroke-width=".893"/>
                    <path d="M194.5435,441.7851 C194.5435,443.9231 192.8105,445.6561 190.6735,445.6561 C188.5355,445.6561 186.8025,443.9231 186.8025,441.7851 C186.8025,439.6471 188.5355,437.9151 190.6735,437.9151 C192.8105,437.9151 194.5435,439.6471 194.5435,441.7851" id="Fill-14" fill="#000"/>
                    <path d="M194.5435,441.7851 C194.5435,443.9231 192.8105,445.6561 190.6735,445.6561 C188.5355,445.6561 186.8025,443.9231 186.8025,441.7851 C186.8025,439.6471 188.5355,437.9151 190.6735,437.9151 C192.8105,437.9151 194.5435,439.6471 194.5435,441.7851 Z" id="Stroke-15" stroke="#FFF" stroke-width=".893"/>
                    <path d="M216.0073,441.7851 C216.0073,443.9231 214.2743,445.6561 212.1363,445.6561 C209.9993,445.6561 208.2663,443.9231 208.2663,441.7851 C208.2663,439.6471 209.9993,437.9151 212.1363,437.9151 C214.2743,437.9151 216.0073,439.6471 216.0073,441.7851" id="Fill-16" fill="#000"/>
                    <path d="M216.0073,441.7851 C216.0073,443.9231 214.2743,445.6561 212.1363,445.6561 C209.9993,445.6561 208.2663,443.9231 208.2663,441.7851 C208.2663,439.6471 209.9993,437.9151 212.1363,437.9151 C214.2743,437.9151 216.0073,439.6471 216.0073,441.7851 Z" id="Stroke-17" stroke="#FFF" stroke-width=".893"/>
                    <path d="M237.4707,441.7851 C237.4707,443.9231 235.7377,445.6561 233.5997,445.6561 C231.4627,445.6561 229.7297,443.9231 229.7297,441.7851 C229.7297,439.6471 231.4627,437.9151 233.5997,437.9151 C235.7377,437.9151 237.4707,439.6471 237.4707,441.7851" id="Fill-18" fill="#000"/>
                    <path d="M237.4707,441.7851 C237.4707,443.9231 235.7377,445.6561 233.5997,445.6561 C231.4627,445.6561 229.7297,443.9231 229.7297,441.7851 C229.7297,439.6471 231.4627,437.9151 233.5997,437.9151 C235.7377,437.9151 237.4707,439.6471 237.4707,441.7851 Z" id="Stroke-19" stroke="#FFF" stroke-width=".893"/>
                    <path d="M159.355,42.4965 L122.191,42.4965 L112.46,76.3675 L112.462,76.3675 C112.462,87.7985 121.73,97.0665 133.161,97.0665 C144.592,97.0665 153.859,87.7985 153.859,76.3675 L153.858,76.3675 L159.355,42.4965 Z" id="Fill-34" fill="#F1EFEF"/>
                    <path d="M195.2559,42.4965 L195.2559,76.3675 L195.3279,76.3675 C195.3279,87.7985 204.5959,97.0665 216.0269,97.0665 C227.4589,97.0665 236.7259,87.7985 236.7259,76.3675 L236.8009,76.3675 L236.8009,42.4965 L195.2559,42.4965 Z" id="Fill-35" fill="#F1EFEF"/>
                    <path d="M309.8652,42.4965 L272.7012,42.4965 L278.1982,76.3675 C278.1982,87.7985 287.4662,97.0665 298.8972,97.0665 C310.3292,97.0665 319.5962,87.7985 319.5962,76.3675 L309.8652,42.4965 Z" id="Fill-36" fill="#F1EFEF"/>
                    <path d="M347.4668,42.4965 L347.1958,42.4965 L347.1958,26.9165 C347.1958,12.3275 335.3678,0.4995 320.7788,0.4995 L111.2788,0.4995 C96.6888,0.4995 84.8618,12.3275 84.8618,26.9165 L84.8618,42.4965 L84.5478,42.4965 L71.0198,76.3675 C71.0198,87.7985 80.2888,97.0665 91.7208,97.0665 C103.1528,97.0665 112.4198,87.7985 112.4198,76.3675 L121.9198,43.4375 L159.2018,43.4375 L153.8578,76.3675 C153.8598,87.7995 163.1268,97.0665 174.5588,97.0665 C185.9898,97.0665 195.2578,87.7995 195.2578,76.3675 L195.3278,76.3675 L195.2578,43.4375 L236.7998,43.4375 L236.7258,76.3675 L236.8008,76.3675 C236.8008,87.7985 246.0688,97.0665 257.4998,97.0665 C268.9308,97.0665 278.1988,87.7985 278.1988,76.3675 L272.8548,43.4375 L310.1358,43.4375 L319.5968,76.3675 C319.5968,87.7985 328.8638,97.0665 340.2958,97.0665 C351.7268,97.0665 360.9938,87.7985 360.9938,76.3675 L347.4668,42.4965 Z" id="Fill-37" fill="#EC7068"/>
                    <path d="M285.0811,375.4316 L146.1231,375.4316 C141.4631,375.4316 137.6851,371.6536 137.6851,366.9926 L137.6851,162.5046 C137.6851,157.8446 141.4631,154.0656 146.1231,154.0656 L285.0811,154.0656 C289.7421,154.0656 293.5201,157.8446 293.5201,162.5046 L293.5201,366.9926 C293.5201,371.6536 289.7421,375.4316 285.0811,375.4316" id="Fill-38" fill="#F1EFEF"/>
                    <path d="M245.3237,245.185 L230.7797,245.185 L230.7797,254.01 L243.2627,254.01 C243.9487,251.072 244.6257,248.174 245.3237,245.185 L245.3237,245.185 Z M210.9307,253.991 L224.7057,253.991 L224.7057,245.157 L210.9307,245.157 L210.9307,253.991 Z M210.9087,239.134 L224.7237,239.134 L224.7237,230.312 L210.9087,230.312 L210.9087,239.134 Z M204.8677,245.191 L190.0197,245.191 C190.6477,248.182 191.2587,251.085 191.8727,254.006 L204.8677,254.006 L204.8677,245.191 Z M248.7877,230.307 L230.7787,230.307 L230.7787,239.179 L231.7237,239.179 C235.9577,239.179 240.1927,239.183 244.4277,239.176 C245.1737,239.174 246.1357,239.399 246.6057,239.026 C247.0757,238.654 247.0727,237.665 247.2447,236.94 C247.7627,234.752 248.2647,232.56 248.7877,230.307 L248.7877,230.307 Z M186.8347,230.289 C187.4397,233.089 188.0427,235.771 188.5827,238.466 C188.7047,239.074 188.9587,239.194 189.5257,239.191054 C194.3967,239.17 199.2687,239.18 204.1407,239.177 C204.3837,239.177 204.6257,239.15 204.8637,239.137 L204.8637,230.289 L186.8347,230.289 Z M178.5947,220.293 L177.6667,220.293 C174.2117,220.293 170.7577,220.301 167.3027,220.289 C165.5197,220.283 164.2207,219.045 164.196336,217.368 C164.1717,215.701 165.4357,214.384 167.2217,214.37 C171.7907,214.335 176.3597,214.336 180.9287,214.367 C182.7107,214.379 183.6977,215.293 184.0847,217.104 C184.5907,219.47 185.0947,221.836 185.6157,224.273 L186.7277,224.273 C208.4577,224.273 230.1877,224.274 251.9187,224.267 C252.9307,224.267 253.8557,224.424 254.5917,225.193 C255.3587,225.997 255.6847,226.932 255.4317,228.025 C253.1597,237.808 250.8857,247.591 248.5997,257.372 C248.1717,259.204 247.0397,260.049 245.1007,260.049 C228.1617,260.051 211.2237,260.05 194.2857,260.05 L193.1417,260.05 C193.5517,261.927 193.9287,263.718 194.3517,265.497 C194.3957,265.682 194.6897,265.854 194.9047,265.936 C195.0997,266.01 195.3447,265.953 195.5677,265.953 C210.7227,265.953 225.8777,265.956 241.0337,265.947 C242.5577,265.946 243.7917,266.428 244.4237,267.887 C245.1947,269.666 243.8777,271.761 241.9277,271.932 C241.5947,271.961 241.2597,271.946 240.9247,271.946 C224.9057,271.947 208.8867,271.924 192.8677,271.973028 C190.7227,271.979 189.5907,271.022 189.0837,269.164 C188.4327,266.778 187.9727,264.339 187.4577,261.916 C184.5597,248.273 181.6707,234.629 178.7767,220.985 C178.7307,220.77 178.6657,220.56 178.5947,220.293 L178.5947,220.293 Z" id="Fill-39" fill="#83BB9E"/>
                    <path d="M206.865704,285.8393 C206.8627,283.5773 205.1627,281.8923 202.8977,281.903246 C200.6997,281.9153 198.9887,283.6223 198.974628,285.8153 C198.9617,288.0313 200.7177,289.8203 202.9127,289.826311 C205.1327,289.8313 206.8687,288.0803 206.865704,285.8393 M202.9597,295.7613 C197.5597,295.7993 193.0367,291.3393 192.9747,285.9183 C192.9127,280.5023 197.4297,275.9483 202.8827,275.929246 C208.3457,275.9113 212.8527,280.3863 212.865724,285.8413 C212.8777,291.2253 208.3867,295.7223 202.9597,295.7613" id="Fill-40" fill="#83BB9E"/>
                    <path d="M230.6992,281.905136 C228.4822,281.9172 226.7242,283.6942 226.7512,285.8962 C226.7772,288.0332 228.5752,289.8162 230.7122,289.824227 C232.9222,289.8322 234.6732,288.0652 234.661261,285.8392 C234.6502,283.5662 232.9652,281.8932 230.6992,281.905136 M220.8172,285.7342 C220.9222,280.1842 225.4252,275.8352 230.9622,275.9352 C236.4012,276.0332 240.7452,280.6002 240.6422,286.1132 C240.5412,291.4412 235.9172,295.8732 230.5822,295.7552 C225.1092,295.6342 220.7152,291.1252 220.8172,285.7342" id="Fill-41" fill="#83BB9E"/>
                    <path d="M271.4126,298.06 C271.4126,309.636 262.0286,319.02 250.4526,319.02 C238.8766,319.02 229.4926,309.636 229.4926,298.06 C229.4926,286.484 238.8766,277.101 250.4526,277.101 C262.0286,277.101 271.4126,286.484 271.4126,298.06" id="Fill-42" fill="#EC7068"/>
                    <path d="M250.1548,307.4999 C250.0018,307.4999 249.8578,307.4299 249.7618,307.3099 L241.9218,297.3729 C241.7508,297.1559 241.7878,296.8419 242.0048,296.6709 C242.2218,296.4999 242.5358,296.5379 242.7068,296.7539 L250.1128,306.1409 L272.2808,271.7019 C272.4308,271.4699 272.7398,271.4029 272.9718,271.5519 C273.2048,271.7019 273.2718,272.0109 273.1218,272.2429 L250.5748,307.2709 C250.4878,307.4059 250.3408,307.4919 250.1788,307.4999 C250.1708,307.4999 250.1628,307.4999 250.1548,307.4999" id="Fill-43" fill="#000"/>
                    <path d="M74.0796,117.7226 C73.2826,118.5786 71.9366,118.6266 71.0806,117.8286 C70.2256,117.0316 70.1776,115.6866 70.9756,114.8306 C71.3926,114.3826 71.9596,114.1566 72.5286,114.1566 C73.0466,114.1566 73.5656,114.3446 73.9736,114.7236 C74.3886,115.1106 74.6276,115.6356 74.6476,116.2016 C74.6676,116.7676 74.4656,117.3076 74.0796,117.7226 L74.0796,117.7226 Z M70.3946,114.2896 C69.2996,115.4656 69.3646,117.3136 70.5396,118.4096 C71.1006,118.9316 71.8146,119.1896 72.5256,119.1896 C73.3076,119.1896 74.0866,118.8786 74.6596,118.2636 C75.1906,117.6946 75.4676,116.9516 75.4406,116.1736 C75.4126,115.3956 75.0836,114.6746 74.5146,114.1436 C73.3376,113.0476 71.4906,113.1136 70.3946,114.2896 L70.3946,114.2896 Z M54.4546,151.5386 L38.6276,136.7896 L64.2326,109.3106 L77.2956,111.1596 L80.0606,124.0596 L54.4546,151.5386 Z M78.0136,110.7226 C77.9786,110.5596 77.8456,110.4356 77.6816,110.4126 L64.1396,108.4966 C64.0126,108.4746 63.8816,108.5236 63.7936,108.6186 L37.7766,136.5386 C37.6276,136.6996 37.6366,136.9506 37.7966,137.0996 L54.2046,152.3896 C54.2786,152.4576 54.3746,152.4956 54.4756,152.4956 L54.4896,152.4956 C54.5946,152.4916 54.6936,152.4466 54.7656,152.3696 L80.7816,124.4496 C80.8706,124.3546 80.9066,124.2226 80.8796,124.0956 L78.0136,110.7226 Z" id="Fill-44" fill="#B5B6B7"/>
                    <path d="M272.7744,42.9438 C272.5024,42.9878 272.3164,43.2448 272.3604,43.5178 L277.6984,76.3678 C277.6984,87.5058 268.6374,96.5668 257.5004,96.5668 C246.3624,96.5668 237.3014,87.5058 237.3014,76.3678 L237.3014,75.8678 L237.2274,75.8678 L237.3004,42.9378 L194.7564,42.9378 L194.8284,76.3688 C194.8284,76.6448 195.0524,76.8678 195.3284,76.8678 L195.3294,76.8678 C195.6054,76.8668 195.8284,76.6428 195.8284,76.3668 L195.7584,43.9378 L236.2984,43.9378 L236.2264,76.3668 C236.2264,76.4628 236.2594,76.5478 236.3064,76.6238 C236.4444,88.1948 245.8974,97.5668 257.5004,97.5668 C269.1894,97.5668 278.6984,88.0568 278.692403,76.2878 L273.3484,43.3578 C273.3034,43.0848 273.0484,42.8968 272.7744,42.9438 M320.7784,-0.0002 L111.2784,-0.0002 C96.4364,-0.0002 84.3614,12.0748 84.3614,26.9168 L84.3614,42.0328 C84.3594,42.0328 84.3594,42.0348 84.3584,42.0348 C84.2794,42.0678 84.2144,42.1248 84.1604,42.1938 C84.1464,42.2118 84.1364,42.2278 84.1254,42.2468 C84.1124,42.2698 84.0934,42.2868 84.0834,42.3108 L70.5554,76.1818 L70.5584,76.1838 C70.5354,76.2408 70.5214,76.3018 70.5214,76.3678 C70.5214,88.0568 80.0314,97.5668 91.7204,97.5668 C103.4094,97.5668 112.9194,88.0568 112.9194,76.3678 C112.9194,76.0908 112.6954,75.8678 112.4194,75.8678 C112.1434,75.8678 111.9194,76.0908 111.9194,76.3678 C111.9194,87.5058 102.8584,96.5668 91.7204,96.5668 C80.6104,96.5668 71.5704,87.5488 71.5254,76.4498 L84.8864,42.9968 L85.3614,42.9968 L85.3614,26.9168 C85.3614,12.6268 96.9874,0.9998 111.2784,0.9998 L320.7784,0.9998 C321.0544,0.9998 321.2784,0.7768 321.2784,0.4998 C321.2784,0.2238 321.0544,-0.0002 320.7784,-0.0002" id="Fill-45" fill="#000"/>
                </g>
            </g>
        </g>
        <g id="Side Decoration" transform="translate(355.000000, 55.994000) scale(1 1)">
            <g id="Side Decoration/Wavy Leaves Copy" stroke="none" stroke-width="1" fill="none" fill-rule="evenodd">
                <path d="M234.980996,515.403988 C234.980996,515.403988 290.172996,490.801988 277.584996,484.102988 C264.997996,477.403988 265.784996,476.223988 278.371996,464.028988 C290.959996,451.835988 285.059996,449.868988 276.011996,445.934988 C266.964996,442.000988 281.971996,434.527988 288.599996,431.380988 C295.227996,428.233988 317.314996,421.152988 302.760996,408.958988 C288.206996,396.764988 334.622996,400.697988 317.314996,383.783988 C300.006996,366.868988 278.105996,392.437988 278.105996,392.437988 C278.105996,392.437988 258.874996,368.944988 250.134996,412.749988 C250.134996,412.749988 227.830996,397.209988 234.980996,432.953988 C234.980996,432.953988 216.693996,430.199988 229.464996,471.109988 C229.464996,471.109988 215.146996,471.531988 221.937996,492.621988 C223.921996,498.784988 226.990996,504.545988 230.828996,509.760988 L234.980996,515.403988 Z" id="Fill-20" fill="#83BB9E"/>
                <path d="M234.980496,515.903988 C234.710496,515.903988 234.488496,515.688988 234.480496,515.417988 C234.476496,515.222988 234.029496,495.696988 240.795496,471.499988 C247.044496,449.153988 260.897496,418.125988 291.403496,397.213988 C291.631496,397.057988 291.942496,397.115988 292.099496,397.343988 C292.254496,397.571988 292.196496,397.882988 291.969496,398.038988 C261.720496,418.773988 247.973496,449.561988 241.767496,471.738988 C235.035496,495.796988 235.475496,515.196988 235.480496,515.389988 C235.488496,515.665988 235.270496,515.895988 234.994496,515.903988 L234.980496,515.903988 Z" id="Fill-21" fill="#000"/>
                <path d="M277.584996,484.602788 C277.505996,484.602788 277.424996,484.583788 277.350996,484.543788 C271.215996,481.279788 268.418996,479.398788 268.063996,476.885788 C267.640996,473.880788 270.998996,470.476788 278.023996,463.670788 C283.246996,458.611788 285.473996,455.133788 285.033996,452.725788 C284.569996,450.182788 281.085996,448.675788 276.675996,446.767788 L275.812996,446.393788 C273.762996,445.501788 272.711996,444.339788 272.688996,442.939788 C272.621996,438.885788 281.614996,434.143788 288.384996,430.928788 C288.634996,430.811788 288.932996,430.916788 289.050996,431.165788 C289.169996,431.415788 289.063996,431.713788 288.813996,431.831788 C278.734996,436.617788 273.645996,440.349788 273.688996,442.922788 C273.704996,443.895788 274.553996,444.755788 276.210996,445.476788 L277.072996,445.849788 C281.757996,447.876788 285.457996,449.477788 286.017996,452.545788 C286.529996,455.350788 284.278996,459.002788 278.719996,464.388788 C272.124996,470.777788 268.699996,474.228788 269.054996,476.745788 C269.346996,478.814788 272.113996,480.624788 277.819996,483.661788 C278.063996,483.790788 278.156996,484.093788 278.026996,484.337788 C277.936996,484.506788 277.763996,484.602788 277.584996,484.602788" id="Fill-22" fill="#000"/>
                <path d="M234.981396,515.903988 C234.827396,515.903988 234.676396,515.833988 234.578396,515.699988 L230.425396,510.056988 C226.415396,504.607988 223.399396,498.792988 221.461396,492.774988 C218.891396,484.793988 218.988396,478.763988 221.750396,474.853988 C224.018396,471.643988 227.398396,470.859988 228.805396,470.669988 C224.995396,458.290988 221.818396,442.368988 227.733396,435.469988 C230.103396,432.706988 233.060396,432.403988 234.364396,432.412988 C232.002396,420.199988 232.883396,412.647988 236.985396,409.960988 C242.091396,406.613988 250.082396,412.103988 250.420396,412.339988 C250.647396,412.497988 250.703396,412.808988 250.545396,413.035988 C250.387396,413.261988 250.075396,413.317988 249.849396,413.159988 C249.772396,413.106988 242.074396,407.819988 237.532396,410.797988 C233.788396,413.251988 233.075396,420.879988 235.471396,432.855988 C235.502396,433.014988 235.455396,433.179988 235.343396,433.297988 C235.231396,433.415988 235.068396,433.469988 234.907396,433.447988 C234.757396,433.426988 231.198396,432.949988 228.479396,436.136988 C225.336396,439.820988 223.040396,448.851988 229.942396,470.960988 C229.989396,471.109988 229.962396,471.271988 229.872396,471.399988 C229.782396,471.526988 229.636396,471.604988 229.481396,471.609988 C229.437396,471.610988 225.127396,471.793988 222.558396,475.442988 C219.997396,479.082988 219.947396,484.810988 222.413396,492.467988 C224.318396,498.382988 227.285396,504.101988 231.231396,509.464988 L235.383396,515.107988 C235.547396,515.329988 235.499396,515.642988 235.277396,515.806988 C235.188396,515.871988 235.084396,515.903988 234.981396,515.903988" id="Fill-23" fill="#000"/>
                <path d="M224.287096,515.403988 C223.951096,515.858988 221.945096,508.313988 202.739096,500.388988 C183.534096,492.464988 189.477096,481.426988 203.910096,481.992988 C218.344096,482.559988 178.439096,470.140988 184.665096,462.182988 C190.892096,454.224988 201.002096,461.899988 202.739096,459.918988 C204.476096,457.937988 177.024096,442.937988 195.420096,432.465988 C213.816096,421.994988 219.759096,441.737988 222.023096,454.224988 C222.023096,454.224988 250.890096,444.635988 233.060096,479.162988 C233.060096,479.162988 257.117096,470.986988 224.287096,515.403988" id="Fill-24" fill="#83BB9E"/>
                <path d="M224.287596,515.903988 C224.279596,515.903988 224.270596,515.903988 224.262596,515.903988 C223.986596,515.889988 223.774596,515.654988 223.787596,515.379988 C225.737596,475.557988 206.041596,444.191988 205.842596,443.879988 C205.693596,443.646988 205.761596,443.337988 205.994596,443.188988 C206.227596,443.039988 206.537596,443.108988 206.684596,443.340988 C206.886596,443.655988 226.752596,475.277988 224.786596,515.427988 C224.773596,515.695988 224.552596,515.903988 224.287596,515.903988" id="Fill-25" fill="#000"/>
                <path d="M214.400896,506.793688 C214.308896,506.793688 214.216896,506.768688 214.132896,506.715688 C210.888896,504.657688 206.990896,502.684688 202.547896,500.851688 C193.840896,497.258688 189.223896,492.457688 190.196896,488.006688 C191.110896,483.824688 196.627896,481.203688 203.929896,481.493688 C204.205896,481.504688 204.420896,481.736688 204.409896,482.012688 C204.399896,482.289688 204.175896,482.509688 203.890896,482.492688 C197.192896,482.226688 191.968896,484.585688 191.173896,488.219688 C190.313896,492.158688 194.707896,496.534688 202.929896,499.926688 C207.425896,501.781688 211.375896,503.781688 214.669896,505.871688 C214.901896,506.019688 214.971896,506.328688 214.823896,506.561688 C214.728896,506.711688 214.566896,506.793688 214.400896,506.793688" id="Fill-26" fill="#000"/>
                <path d="M227.949196,510.835188 C227.849196,510.835188 227.749196,510.805188 227.661196,510.744188 C227.436196,510.585188 227.382196,510.273188 227.541196,510.047188 C241.522196,490.211188 242.198196,483.023188 240.303196,480.486188 C238.389196,477.925188 233.272196,479.619188 233.221196,479.637188 C233.026196,479.701188 232.814196,479.644188 232.681196,479.489188 C232.549196,479.335188 232.523196,479.115188 232.616196,478.934188 C237.711196,469.068188 239.440196,461.947188 237.756196,457.768188 C237.043196,455.999188 235.689196,454.764188 233.730196,454.097188 C228.981196,452.481188 222.248196,454.676188 222.180196,454.699188 C221.918196,454.784188 221.635196,454.644188 221.548196,454.382188 C221.461196,454.120188 221.603196,453.837188 221.865196,453.750188 C222.154196,453.655188 228.981196,451.425188 234.052196,453.151188 C236.299196,453.916188 237.857196,455.343188 238.684196,457.395188 C240.421196,461.707188 238.851196,468.765188 234.017196,478.386188 C235.829196,477.979188 239.363196,477.559188 241.102196,479.885188 C244.150196,483.960188 239.863196,494.302188 228.358196,510.623188 C228.261196,510.761188 228.106196,510.835188 227.949196,510.835188" id="Fill-27" fill="#000"/>
                <path d="M230.263696,483.507088 C230.151696,483.507088 230.037696,483.469088 229.944696,483.392088 C229.732696,483.216088 229.702696,482.901088 229.878696,482.688088 C229.930696,482.625088 235.136696,476.275088 236.698696,469.660088 C236.762696,469.390088 237.029696,469.227088 237.299696,469.288088 C237.568696,469.351088 237.735696,469.621088 237.671696,469.889088 C236.054696,476.736088 230.868696,483.060088 230.648696,483.326088 C230.550696,483.445088 230.407696,483.507088 230.263696,483.507088" id="Fill-28" fill="#000"/>
                <path d="M222.023396,458.912288 C222.006396,458.912288 221.989396,458.911288 221.973396,458.910288 C221.698396,458.882288 221.498396,458.637288 221.525396,458.362288 C221.716396,456.460288 221.487396,453.945288 220.845396,450.885288 C220.788396,450.615288 220.961396,450.350288 221.231396,450.293288 C221.503396,450.238288 221.767396,450.410288 221.823396,450.680288 C222.487396,453.840288 222.721396,456.458288 222.520396,458.462288 C222.494396,458.720288 222.277396,458.912288 222.023396,458.912288" id="Fill-29" fill="#000"/>
                <path d="M237.185496,441.481688 C236.998496,441.481688 236.819496,441.377688 236.733496,441.197688 C234.865496,437.295688 233.294496,425.007688 233.228496,424.486688 C233.193496,424.212688 233.387496,423.961688 233.661496,423.927688 C233.940496,423.897688 234.185496,424.086688 234.220496,424.360688 C234.236496,424.486688 235.836496,437.008688 237.636496,440.765688 C237.755496,441.014688 237.649496,441.313688 237.400496,441.432688 C237.331496,441.465688 237.257496,441.481688 237.185496,441.481688" id="Fill-30" fill="#000"/>
                <path d="M274.338396,398.126688 C274.284396,398.126688 274.229396,398.117688 274.174396,398.099688 C273.913396,398.008688 273.775396,397.723688 273.865396,397.462688 C274.971396,394.270688 283.773396,386.356688 284.148396,386.021688 C284.352396,385.836688 284.669396,385.854688 284.854396,386.060688 C285.038396,386.265688 285.021396,386.581688 284.815396,386.766688 C284.725396,386.846688 275.832396,394.840688 274.811396,397.790688 C274.739396,397.997688 274.545396,398.126688 274.338396,398.126688" id="Fill-31" fill="#000"/>
            </g>
        </g>
        <g transform="translate(-12.792927, -178.006000) scale(1 1)" id="Master/Character/Standing">
            <defs>
                <polygon id="mastercharacterstanding-path-1" points="0 -0.000126433058 71.516 -0.000126433058 71.516 59.6565 0 59.6565"/>
            </defs>
            <g id="Master/Character/Standing" stroke="none" stroke-width="1" fill="none" fill-rule="evenodd">
                <g id="Lower Body/Standing" transform="translate(47.000000, 444.000000) scale(1 1)">
                    <g id="Lower Body/Standing/Walking Sandals" stroke="none" stroke-width="1" fill="none" fill-rule="evenodd">
                        <g id="Group" transform="translate(139.999700, 42.999700)">
                            <path d="M156.0471,255.6928 C150.0501,252.0178 122.4011,241.7388 121.7721,233.3678 C120.7951,220.3758 120.8291,199.6038 121.0021,184.6638 C112.9471,185.5128 103.6741,186.3978 93.8121,187.1618 L104.9741,233.5678 C105.5141,237.7548 106.2411,238.1558 101.6891,247.6538 C97.3751,256.6508 107.9271,258.0748 107.9271,258.0748 L155.3301,258.193805 C156.0771,258.1958 156.6851,257.5898 156.6851,256.8428 C156.6851,256.3728 156.4471,255.9378 156.0471,255.6928 M60.6161,255.6928 C54.6201,252.0178 26.7401,242.9988 29.5071,235.0738 C32.3611,226.8978 44.2831,204.8448 52.5781,189.1588 C42.3751,188.9188 32.8271,188.2328 24.6451,186.9268 L13.6411,231.0778 C12.3481,235.4198 9.9451,237.6568 6.0091,247.6718 C2.3591,256.9588 12.4971,258.0748 12.4971,258.0748 L59.9001,258.193805 C60.6471,258.1958 61.2541,257.5898 61.2541,256.8428 C61.2541,256.3728 61.0171,255.9378 60.6161,255.6928" id="Skin" fill="#673a18"/>
                            <path d="M156.4397,258.143 L149.0577,258.143 L149.0577,250.543 C149.0577,250.039 148.7497,249.583 148.2797,249.397 L141.9607,246.89 C141.1517,246.569 140.2727,247.165 140.2727,248.037 L140.2727,258.143 L102.3947,258.143 C101.1547,258.143 100.1497,259.148 100.1497,260.387 L100.1497,260.779 C100.1497,262.018 101.1547,263.023 102.3947,263.023 L156.4397,263.023 C157.6797,263.023 158.6847,262.018 158.6847,260.779 L158.6847,260.387 C158.6847,259.148 157.6797,258.143 156.4397,258.143 M60.5707,258.143 L55.1897,258.143 L55.1897,250.543 C55.1897,250.039 54.8807,249.583 54.4107,249.397 L48.0927,246.89 C47.2827,246.569 46.4037,247.165 46.4037,248.037 L46.4037,258.143 L6.9747,258.143 C5.7337,258.143 4.7297,259.148 4.7297,260.387 L4.7297,260.779 C4.7297,262.018 5.7337,263.023 6.9747,263.023 L60.5707,263.023 C61.8107,263.023 62.8157,262.018 62.8157,260.779 L62.8157,260.387 C62.8157,259.148 61.8107,258.143 60.5707,258.143" id="Sandals" fill="#83BB9E"/>
                            <path d="M28.445,0.5004 L114.553,0.5004 C114.553,0.5004 143.579,104.5614 145.612,136.3924 C147.643,168.2234 132.743,232.3044 132.743,232.3044 L81.272,232.3044 C81.272,232.3044 100.235,150.6144 98.203,135.7144 C96.171,120.8144 81.949,86.2744 81.949,86.2744 L60.277,232.5944 L5.1159077e-13,228.5304 C5.1159077e-13,228.5304 25.736,127.5874 25.736,99.1434 C25.736,70.6974 28.445,0.5004 28.445,0.5004" id="Pants" fill="#94B1EB"/>
                            <path d="M25.7361,99.643 C26.0121,99.643 26.2361,99.419 26.2361,99.143 C26.2361,72.264 28.6881,7.26 28.9261,1 L114.5531,1 C114.8291,1 115.0531,0.777 115.0531,0.5 C115.0531,0.224 114.8291,8.52651283e-14 114.5531,8.52651283e-14 L28.4451,8.52651283e-14 C28.1761,8.52651283e-14 27.9561,0.212 27.9451,0.481 C27.9181,1.183 25.2361,71.013 25.2361,99.143 C25.2361,99.419 25.4601,99.643 25.7361,99.643 L25.7361,99.643 Z M87.9911,47.744 L87.0021,47.601 C87.0021,47.601 82.6511,77.664 79.6751,98.213 L59.7821,232.521 C59.7411,232.794 59.9301,233.048 60.2031,233.088 C60.2281,233.092 60.2531,233.094 60.2771,233.094 C60.5211,233.094 60.7351,232.915 60.7711,232.667 L77.8561,117.323 C77.9011,117.259 77.9371,117.19 77.9491,117.108 C78.0261,116.584 79.1601,108.748 80.6411,98.522 L82.1751,88.163 C85.0431,95.29 95.9641,122.997 97.7081,135.782 C97.7451,136.056 97.9981,136.244 98.2711,136.209 C98.5441,136.172 98.7361,135.92 98.6981,135.647 C96.7071,121.045 82.9251,87.337 82.4331,86.138 C85.1101,67.649 87.9911,47.744 87.9911,47.744 L87.9911,47.744 Z M46.4041,257.643 L6.9741,257.643 C6.6981,257.643 6.4741,257.867 6.4741,258.143 C6.4741,258.419 6.6981,258.643 6.9741,258.643 L46.4041,258.643 C46.6801,258.643 46.9041,258.419 46.9041,258.143 C46.9041,257.867 46.6801,257.643 46.4041,257.643 L46.4041,257.643 Z M140.2731,247.537 C139.9961,247.537 139.7731,247.76 139.7731,248.037 L139.7731,257.643 L102.3951,257.643 C100.8811,257.643 99.6501,258.874 99.6501,260.387 C99.6501,260.664 99.8731,260.887 100.1501,260.887 C100.4261,260.887 100.6501,260.664 100.6501,260.387 C100.6501,259.425 101.4331,258.643 102.3951,258.643 L140.7731,258.643 L140.7731,248.037 C140.7731,247.76 140.5491,247.537 140.2731,247.537 L140.2731,247.537 Z M112.5041,236.854 C112.5671,236.584 112.4001,236.316 112.1311,236.252 C111.8551,236.192 111.5931,236.357 111.5291,236.625 L111.1491,238.254 C110.6791,240.27 111.2711,242.345 112.7341,243.807 C112.8311,243.905 112.9591,243.954 113.0871,243.954 C113.2151,243.954 113.3431,243.905 113.4411,243.807 C113.6361,243.612 113.6361,243.295 113.4411,243.1 C112.2241,241.884 111.7321,240.158 112.1231,238.482 L112.5041,236.854 Z M17.6561,243.954 C17.7841,243.954 17.9121,243.905 18.0101,243.807 C18.2051,243.612 18.2051,243.295 18.0101,243.1 C16.7931,241.883 16.3011,240.157 16.6941,238.481 L17.0731,236.853 C17.1361,236.584 16.9691,236.316 16.6991,236.252 C16.4311,236.192 16.1621,236.357 16.0991,236.626 L15.7191,238.253 C15.2481,240.268 15.8401,242.344 17.3031,243.807 C17.4011,243.905 17.5281,243.954 17.6561,243.954 L17.6561,243.954 Z" id="Fill-9" fill="#000"/>
                        </g>
                    </g>
                </g>
                <g id="Upper Body" transform="translate(8.000000, 189.000000) scale(1 1)">
                    <g id="Upper Body/Breakfast" stroke="none" stroke-width="1" fill="none" fill-rule="evenodd">
                        <path d="M337.4198,268.2802 C337.2328,266.7612 336.8848,264.8132 336.2558,262.4562 C336.2558,262.4562 333.2188,269.5592 331.3878,272.2002 C329.6708,274.6752 317.0598,246.7252 319.2038,231.1592 C320.5568,225.0312 322.2808,223.1122 318.9588,220.1332 C318.4168,219.6462 317.9208,219.4842 317.4678,219.5462 C295.4728,181.3792 260.8368,183.5122 260.8368,183.5122 C264.5978,178.5792 260.1178,178.7892 260.1178,178.7892 C260.1178,178.7892 248.3258,178.3652 242.0478,178.5112 C235.7698,178.6582 239.0068,183.1322 239.0068,183.1322 C208.1958,182.9522 160.8388,215.6422 158.1768,255.5862 C155.9818,288.5162 174.8548,292.7412 181.5498,293.2102 C182.1208,293.2982 182.8468,293.3182 183.7628,293.2452 C183.8198,293.2422 183.8528,293.2392 183.8528,293.2392 C190.9858,292.6322 197.5818,281.3092 196.0278,281.3292 C194.4828,281.3472 186.0858,280.9562 186.0058,280.9532 C190.1838,272.1912 198.7028,265.4872 200.9688,261.5112 C204.2018,255.8412 196.6288,256.9102 196.6288,256.9102 C193.8098,247.3982 212.5698,225.5042 212.5698,225.5042 C212.5698,225.5042 209.5978,265.8532 200.3988,285.6322 C191.1988,305.4102 201.7298,304.4612 201.7298,304.4612 C213.7118,311.8782 250.6648,306.1722 250.6648,306.1722 C273.7348,310.9262 284.6518,304.6502 284.6518,304.6502 C284.6518,304.6502 303.8608,305.7922 297.0148,292.2882 C290.1678,278.7852 287.6948,229.7172 287.6948,229.7172 C288.4558,239.0362 297.5848,284.6802 313.4978,287.9142 C325.2508,290.3012 332.7908,280.5912 335.9298,275.3492 C337.2048,273.2212 337.7258,270.7432 337.4198,268.2802" id="Sweater" fill="#F9E272"/>
                        <path d="M347.5194,178.8652 C347.5194,177.9562 340.7424,177.2192 332.3814,177.2192 C324.0214,177.2192 317.244393,177.9562 317.244393,178.8652 C317.244393,178.8902 317.2684,180.8432 317.2794,180.8682 L317.244393,203.1512 C317.2394,206.4922 319.9454,209.2032 323.2864,209.2032 L340.8444,209.2032 C344.1154,209.2032 346.7914,206.6002 346.8834,203.3322 L347.5194,180.8042 L347.5134,178.8772 C347.5144,178.8732 347.5194,178.8692 347.5194,178.8652" id="Cup" fill="#EC7068"/>
                        <path d="M340.8446,209.2031 L323.9226,209.2031 C323.3266,214.7251 322.0706,220.3661 320.6296,225.5041 L320.6056,225.5871 C320.3636,226.4511 320.1156,227.3001 319.8646,228.1321 L319.8366,228.2241 C315.3466,242.8131 329.4516,274.6011 331.3646,272.2171 C331.6916,271.7061 332.0146,271.1911 332.3236,270.6631 C333.9286,267.8011 335.8376,263.4251 336.1926,262.6041 C343.9506,242.7871 343.1976,217.1051 342.7106,208.9051 C342.1226,209.0961 341.4956,209.2031 340.8446,209.2031 L340.8446,209.2031 Z M353.0686,193.2701 C356.6626,189.9261 352.1666,188.5701 352.1666,188.5701 C356.2626,186.6551 353.7896,183.9191 350.5326,183.5971 C347.2736,183.2741 337.4936,183.8271 336.4536,186.0831 C335.4126,188.3401 338.8216,188.6031 338.8216,188.6031 C341.0576,188.7561 340.8286,189.2091 340.8286,189.2091 C339.5216,189.5761 337.3076,190.1411 336.3806,191.7651 C336.3776,191.8101 335.5976,193.7401 338.4326,194.2901 C338.4326,194.2901 335.2846,197.4681 339.7656,198.8051 C339.7656,198.8051 334.8076,200.9861 341.5796,203.0411 C344.4736,203.9191 347.8626,203.3141 350.7956,202.3351 C352.3586,201.8121 353.5446,200.4991 353.8776,198.8861 C354.0206,198.1901 354.0386,197.7851 354.0386,197.7851 C357.4286,195.6441 353.0686,193.2701 353.0686,193.2701 L353.0686,193.2701 Z M347.5196,178.8651 C347.5196,178.8691 347.5146,178.8731 347.5136,178.8771 L347.5166,179.7631 C348.9756,177.9941 350.6816,175.3511 349.6776,173.5711 C348.0476,170.6821 341.1566,177.2191 341.1566,177.2191 C341.0866,177.3191 341.0296,177.4121 340.9656,177.5101 C344.9216,177.8071 347.5196,178.3031 347.5196,178.8651 L347.5196,178.8651 Z M244.9746,273.6341 C227.8496,272.1511 226.8566,268.9371 226.8566,268.9371 C226.8566,268.9371 237.1836,269.4071 237.5306,266.8201 C237.7756,264.9991 224.6566,265.5681 216.8686,266.0641 L216.8676,266.0641 C209.0856,266.3981 202.5356,264.8101 199.2806,263.8171 C195.8806,267.8691 189.4626,273.7041 186.0066,280.9511 L186.0356,280.9541 C186.3856,280.9701 194.3696,281.3411 195.9826,281.3291 C213.2476,281.2081 233.9076,277.9481 233.9446,277.9401 C234.5386,277.8741 235.0326,277.8241 235.3906,277.7951 C237.6626,277.6141 241.3656,277.2551 244.9216,276.8201 C260.4536,276.6911 259.1026,274.2661 259.1026,274.2661 L244.9746,273.6341 Z M256.8656,169.6861 L241.8526,169.6861 L241.7716,178.376338 L243.2946,178.320017 L255.2006,178.599742 L256.8656,178.6861 L256.8656,169.6861 Z" id="Skin" fill="#673a18"/>
                        <path d="M360.7561,181.5506 C364.7481,184.8936 365.9681,190.5836 363.8671,196.0476 C361.8481,201.2956 356.2381,206.7616 346.4891,206.7626 C346.1601,206.7626 345.8281,206.7566 345.4891,206.7436 C345.2131,206.7336 344.9981,206.5006 345.0081,206.2256 C345.0181,205.9506 345.2541,205.7406 345.5261,205.7436 C355.3761,206.1196 360.9711,200.7906 362.9331,195.6896 C364.8801,190.6296 363.7721,185.3806 360.1131,182.3186 C353.2771,176.5936 346.5791,183.1896 346.2991,183.4746 C346.1031,183.6686 345.7871,183.6706 345.5921,183.4766 C345.3951,183.2826 345.3931,182.9666 345.5881,182.7706 C345.6631,182.6946 353.2091,175.2326 360.7561,181.5506 Z M359.187,183.2696 C362.523,186.0636 363.527,190.8636 361.744,195.4976 C360.007,200.0136 355.222,204.7196 346.952,204.7206 C346.678,204.7206 346.399,204.7146 346.117,204.7046 C345.841,204.6946 345.626,204.4616 345.636,204.1866 C345.647,203.9106 345.891,203.7116 346.154,203.7046 C354.407,204.0386 359.14,199.4836 360.81,195.1386 C362.437,190.9086 361.549,186.5506 358.545,184.0366 C352.881,179.2896 347.117,184.8336 346.873,185.0716 C346.677,185.2636 346.36,185.2636 346.166,185.0656 C345.973,184.8686 345.974,184.5526 346.171,184.3586 C346.238,184.2946 352.819,177.9406 359.187,183.2696 Z" id="Fill-9" fill="#000"/>
                        <path d="M244.9179,277.3212 C244.6439,277.3212 244.4199,277.1002 244.417887,276.8252 C244.4159,276.5492 244.6379,276.3232 244.9139,276.3212 C254.5759,276.2412 257.4419,275.2582 258.2859,274.7302 L244.8959,274.1312 C244.6199,274.1192 244.4059,273.8852 244.4189,273.6092 C244.4309,273.3412 244.6509,273.1322 244.9179,273.1322 C244.9249,273.1322 244.9329,273.1322 244.9399,273.1332 L259.1249,273.7672 C259.2979,273.7742 259.4549,273.8722 259.5389,274.0232 C259.6509,274.2242 259.6949,274.5702 259.4819,274.9362 C258.6049,276.4462 253.7049,277.2482 244.9219,277.3212 L244.9179,277.3212 Z" id="Fill-12" fill="#000"/>
                        <path d="M259.705,263.6093 C248.993,263.6093 239.465,264.4133 233.346,265.6623 C235.917,265.8083 237.62,266.1543 237.53,266.8203 C237.184,269.4073 226.856,268.9373 226.856,268.9373 L226.431,269.4633 C228.089,272.1603 242.351,274.2663 259.705,274.2663 C278.172,274.2663 293.142,271.8803 293.142,268.9383 C293.142,265.9953 278.172,263.6093 259.705,263.6093" id="Fill-14" fill="#F1EFEF"/>
                        <path d="M207.4325,281.374 C207.1785,281.374 206.9615,281.182 206.9365,280.924 C206.9085,280.649 207.1095,280.404 207.3835,280.377 C207.5785,280.357 226.8875,278.425 234.9205,277.233 C236.4855,277.001 238.7495,276.728 241.1485,276.439 C245.1085,275.962 250.7475,275.283 252.9745,274.742 C252.3045,274.638 251.1615,274.515 249.2125,274.401 C227.8505,273.164 226.1095,269.436 225.9805,269.016 C225.9335,268.86 225.9645,268.691 226.0645,268.563 C226.1635,268.435 226.3135,268.352 226.4815,268.371 C231.2225,268.582 236.4615,268.003 236.6385,266.686 C236.6745,266.413 236.9325,266.212 237.2005,266.258 C237.4735,266.294 237.6655,266.546 237.6285,266.819 C237.3015,269.268 230.7985,269.457 227.7235,269.408 C229.3985,270.486 234.4665,272.546 249.2715,273.403 C254.4755,273.704 254.7505,274.08 254.769896,274.667 C254.7965,275.572 253.4745,275.962 241.2675,277.432 C238.8765,277.72 236.6185,277.992 235.0675,278.222 C227.0105,279.417 207.6775,281.353 207.4835,281.371 C207.4665,281.373 207.4495,281.374 207.4325,281.374" id="Fill-16" fill="#000"/>
                        <path d="M272.7606,268.3652 L243.6916,268.3652 C242.2286,268.3652 241.5716,267.7092 241.5716,266.2462 L241.7936,265.4482 C241.7936,263.9852 242.2286,263.0672 243.6916,263.0672 L254.2336,263.6662 C254.9206,263.7052 255.6116,263.7122 256.2996,263.6872 L273.7446,263.0672 C275.2076,263.0672 276.0166,264.2542 276.0166,265.7172 L276.7186,266.7532 C276.7186,268.2162 274.2236,268.3652 272.7606,268.3652" id="Fill-18" fill="#F9BB8A"/>
                        <path d="M272.7606,268.8652 L243.6916,268.8652 C241.9526,268.8652 241.0716,267.9842 241.0716,266.2462 C241.0716,265.9692 241.2946,265.7462 241.5716,265.7462 C241.8476,265.7462 242.0716,265.9692 242.0716,266.2462 C242.0716,267.4272 242.5106,267.8652 243.6916,267.8652 L272.7606,267.8652 C274.9896,267.8652 276.2186,267.4692 276.2186,266.7532 C276.2186,266.4762 276.4426,266.2532 276.7186,266.2532 C276.9946,266.2532 277.2186,266.4762 277.2186,266.7532 C277.2186,268.8652 273.8636,268.8652 272.7606,268.8652" id="Fill-20" fill="#000"/>
                        <path d="M272.0575,262.6093 L256.3505,263.3083 C255.5425,263.3443 254.7335,263.3383 253.9265,263.2883 L242.9885,262.6093 C241.5255,262.6093 240.8695,261.9533 240.8695,260.4903 L241.0915,259.6923 C241.0915,258.2293 241.5255,257.3123 242.9885,257.3123 L253.5305,257.9103 C254.2185,257.9493 254.9085,257.9573 255.5975,257.9323 L273.0425,257.3123 C274.5055,257.3123 275.3145,258.4983 275.3145,259.9613 C275.9445,260.8903 275.4425,262.1683 274.3455,262.4113 C273.5885,262.5793 272.7185,262.6093 272.0575,262.6093" id="Fill-22" fill="#F9BB8A"/>
                        <path d="M255.3329,263.831 C254.8529,263.831 254.3719,263.816 253.8959,263.787 L242.9569,263.108 L242.9539,263.108 C241.2489,263.108 240.3689,262.227 240.3689,260.49 C240.3689,260.444 240.3749,260.399 240.3879,260.355 L240.6099,259.558 C240.6849,259.293 240.9599,259.137 241.2269,259.211 C241.4919,259.285 241.6469,259.56 241.5729,259.827 L241.3689,260.557 C241.3859,261.687 241.8299,262.109 242.9879,262.109 L253.9579,262.789 C254.7419,262.839 255.5419,262.846 256.3279,262.81 L272.0349,262.11 C272.9589,262.109 273.6719,262.049 274.2369,261.923 C274.5939,261.844 274.8759,261.603 275.0119,261.263 C275.1469,260.919 275.1069,260.547 274.8999,260.241 C274.7459,260.013 274.8059,259.702 275.0339,259.547 C275.2629,259.394 275.5739,259.452 275.7289,259.681 C276.1179,260.256 276.1969,260.985 275.9399,261.633 C275.6849,262.276 275.1289,262.75 274.4539,262.899 C273.8169,263.041 273.0329,263.109 272.0579,263.109 L256.3729,263.808 C256.0269,263.823 255.6799,263.831 255.3329,263.831" id="Fill-24" fill="#000"/>
                        <path d="M245.3036,252.9374 L274.3726,252.9374 C275.8356,252.9374 276.4926,253.5944 276.4926,255.0574 L276.2706,255.8544 C276.2706,257.3174 275.8356,258.2354 274.3726,258.2354 L263.8306,257.6364 C263.1426,257.5974 262.4526,257.5904 261.7646,257.6154 L244.3196,258.2354 C242.8566,258.2354 242.0476,257.0484 242.0476,255.5854 C241.4176,254.6564 241.9196,253.3784 243.0166,253.1354 C243.7726,252.9674 244.6436,252.9374 245.3036,252.9374" id="Fill-26" fill="#F9BB8A"/>
                        <path d="M274.3729,258.7353 L263.8029,258.1353 C263.1359,258.0973 262.4559,258.0903 261.7819,258.1153 L244.3369,258.7353 C242.6869,258.7353 241.5479,257.4403 241.5479,255.5863 C241.5479,255.3093 241.7709,255.0863 242.0479,255.0863 C242.3239,255.0863 242.5479,255.3093 242.5479,255.5863 C242.5479,256.5773 243.0119,257.7353 244.3189,257.7353 L261.7469,257.1153 C262.4479,257.0893 263.1609,257.0973 263.8589,257.1373 L274.4009,257.7363 C275.2579,257.7353 275.7699,257.4273 275.7699,255.8543 C275.7699,255.5783 275.9939,255.3543 276.2699,255.3543 C276.5469,255.3543 276.7699,255.5783 276.7699,255.8543 C276.7699,256.5673 276.7699,258.7353 274.3729,258.7353" id="Fill-28" fill="#000"/>
                        <path d="M262.5897,253.288 L256.3077,253.288 L255.9967,253.288 C254.9107,253.28 254.0947,252.292 254.2697,251.22 C254.2697,250.343 255.4297,250.11 256.3077,250.11 L257.7507,250.319 C258.1917,250.383 258.6367,250.383 259.0807,250.36 C261.5507,250.237 264.1787,250.937 264.1787,251.699 C264.1787,252.576 263.4677,253.288 262.5897,253.288" id="Fill-30" fill="#FEE15C"/>
                        <path d="M247.6161,248.2968 L242.1761,234.2238 C241.7981,233.2448 242.2841,232.1458 243.2621,231.7668 C244.2411,231.3888 245.3411,231.8758 245.7191,232.8538 C245.7611,232.9618 245.7931,233.0808 245.8141,233.1908 L248.5781,248.0248 C248.6291,248.2968 248.4491,248.5598 248.1771,248.6098 C247.9341,248.6548 247.7021,248.5188 247.6161,248.2968" id="Fill-32" fill="#ED9FB5"/>
                        <path d="M243.828,238.999 C243.61,238.999 243.41,238.855 243.348,238.636 C243.272,238.37 243.427,238.094 243.692,238.019 L246.508,237.219 C246.775,237.144 247.051,237.298 247.126,237.563 C247.201,237.829 247.047,238.105 246.781,238.181 L243.965,238.98 C243.92,238.993 243.874,238.999 243.828,238.999" id="Fill-34" fill="#000"/>
                        <path d="M246.3661,250.3183 C246.5331,249.5833 247.0671,248.9723 247.8081,248.7623 L248.6001,248.5373 C249.3511,248.3253 250.1391,248.5563 250.6651,249.0983 L248.4561,249.7253 L246.3661,250.3183 Z M248.8391,252.9043 C249.0021,252.9043 249.3831,252.9023 249.8771,252.9003 L249.2101,250.5503 L249.8021,250.3823 L250.9791,252.8973 C251.3331,252.8973 251.6981,252.8963 252.0581,252.8963 C252.0511,252.8593 252.0491,252.8213 252.0321,252.7863 L250.7771,250.1063 L251.2551,249.9703 L252.8981,252.7563 C252.9311,252.8123 252.9761,252.8593 253.0261,252.8973 C253.2361,252.8983 253.4371,252.8983 253.6191,252.8993 C253.8241,252.7503 253.8911,252.4703 253.7601,252.2473 L251.8291,248.9763 C251.1161,247.7683 249.6751,247.1923 248.3271,247.5753 L247.5351,247.8003 C246.2871,248.1543 245.3871,249.2623 245.2981,250.5563 L245.0841,253.6443 C245.3931,253.5143 245.7391,253.4083 246.1071,253.3453 L246.2421,251.3933 L246.6801,251.2683 L246.9151,253.2963 C247.2541,253.3153 247.6011,253.3933 247.9491,253.5383 L247.6551,250.9923 L248.2481,250.8243 L248.8391,252.9043 Z" id="Fill-36" fill="#000"/>
                        <path d="M250.0448,252.9003 L249.6718,252.8963 L249.6708,252.9013 C249.1158,252.9033 248.7438,252.9053 248.7438,252.9053 C247.6718,254.7303 250.3108,254.9773 251.5478,254.9983 C252.0518,255.5323 251.6108,256.9253 252.7148,256.8693 C254.1428,256.7963 251.8138,261.9063 254.5938,261.6433 C257.3738,261.3803 255.6068,256.4963 256.9228,256.0453 C258.2378,255.5943 259.8908,257.2853 261.2058,256.0453 C262.5218,254.8053 267.9318,257.3713 268.0438,252.9003 C268.0438,252.9003 251.7508,252.8943 250.0448,252.9003" id="Fill-38" fill="#FEE15C"/>
                        <path d="M341.1571,177.7187 C341.0241,177.7187 340.8921,177.6657 340.7951,177.5627 C340.6041,177.3627 340.6121,177.0457 340.8131,176.8567 C341.3421,176.3537 346.0581,171.9777 348.7161,172.3607 C349.3251,172.4517 349.8081,172.7857 350.1131,173.3247 C350.2491,173.5667 350.1641,173.8707 349.9241,174.0067 C349.6831,174.1417 349.3781,174.0577 349.2421,173.8177 C349.0881,173.5437 348.8741,173.3957 348.5671,173.3497 C346.7491,173.0657 342.8421,176.3117 341.5011,177.5807 C341.4041,177.6727 341.2811,177.7187 341.1571,177.7187" id="Fill-40" fill="#000"/>
                        <path d="M335.0057,160.2924 C335.0057,160.2924 335.6007,163.8044 333.7937,167.6404 C331.9867,171.4774 335.1757,177.8564 335.1757,177.8564 C335.1757,177.8564 335.3027,172.3894 337.1347,170.1254 C339.1627,167.6184 335.0057,160.2924 335.0057,160.2924 M330.3677,151.0004 C330.3677,151.0004 331.1727,155.7434 328.7327,160.9264 C326.2917,166.1074 330.5977,174.7234 330.5977,174.7234 C330.5977,174.7234 330.7697,167.3394 333.2427,164.2814 C335.9847,160.8954 330.3677,151.0004 330.3677,151.0004" id="Fill-42" fill="#F1EFEF"/>
                        <path d="M344.7362,199.8056 C342.1792,199.8056 339.8082,199.4936 338.4632,198.7356 C337.3852,198.1276 337.1562,197.3536 337.154173,196.8116 C337.1512,196.0686 337.4012,195.4516 337.8982,194.9766 C338.9992,193.9246 340.9342,194.0066 341.0152,194.0126 C341.2912,194.0266 341.5032,194.2606 341.4892,194.5356 C341.4762,194.8126 341.2142,195.0456 340.9652,195.0106 C340.9512,195.0116 339.3732,194.9476 338.5872,195.7016 C338.2942,195.9826 338.1522,196.3436 338.1542,196.8076 C338.1552,196.9576 338.1572,197.4146 338.9542,197.8646 C342.0332,199.6006 351.9032,198.6516 354.3722,197.1736 C355.1642,196.6996 355.1622,196.2816 355.1622,196.1446 C355.1572,195.1496 353.4482,193.9226 352.8492,193.5716 C352.6112,193.4316 352.5322,193.1246 352.6712,192.8866 C352.8112,192.6506 353.1142,192.5696 353.3552,192.7076 C353.6412,192.8756 356.1532,194.3956 356.162228,196.1386 C356.1662,196.8846 355.7362,197.5216 354.8852,198.0316 C353.2012,199.0406 348.7412,199.8056 344.7362,199.8056" id="Fill-44" fill="#000"/>
                        <path d="M338.4569,185.5117 C337.6349,185.8517 337.1129,186.2467 336.9879,186.6257 C336.9219,186.8267 336.9619,187.0467 337.1119,187.2967 C337.3769,187.7357 337.8829,188.0217 338.4659,188.0627 C346.9959,188.6607 353.2729,188.1467 354.0899,186.7867 C354.1409,186.7017 354.2759,186.4767 353.9709,185.9867 C351.2269,181.5827 339.0089,185.3387 338.4569,185.5117 M345.1419,189.3187 C342.7499,189.3187 340.3309,189.1957 338.3949,189.0607 C337.4879,188.9957 336.6889,188.5307 336.2569,187.8127 C335.9549,187.3127 335.8799,186.7937 336.0389,186.3117 C336.2679,185.6197 336.9399,185.0527 338.0969,184.5777 C338.1079,184.5737 338.1209,184.5697 338.1339,184.5647 C338.6819,184.3897 351.6149,180.3197 354.8179,185.4567 C355.3399,186.2917 355.1759,186.9217 354.9469,187.3027 C353.9929,188.8887 349.6139,189.3187 345.1419,189.3187" id="Fill-46" fill="#000"/>
                        <path d="M349.4802,188.9173 C348.7992,188.9173 348.1252,188.9673 347.5132,189.0663 C346.8692,189.1713 346.1712,189.2393 345.4312,189.3113 C343.4172,189.5073 341.1332,189.7293 338.4632,190.7813 C337.3772,191.2093 337.0642,191.9513 337.1332,192.5043 C337.2182,193.1843 337.8332,193.6783 338.7372,193.7943 C345.9452,194.7123 354.1182,193.0433 354.4412,191.1793 C354.5102,190.7763 354.4012,190.4443 354.0932,190.1333 C353.2712,189.3013 351.3492,188.9173 349.4802,188.9173 L349.4802,188.9173 Z M342.8482,195.0323 C341.3522,195.0323 339.9012,194.9503 338.6112,194.7863 C337.2542,194.6133 336.2842,193.7663 336.1412,192.6283 C335.9962,191.4653 336.7632,190.3763 338.0952,189.8513 C340.8962,188.7483 343.3572,188.5083 345.3352,188.3163 C346.0602,188.2453 346.7332,188.1803 347.3532,188.0803 C349.9062,187.6643 353.3882,187.9993 354.8052,189.4313 C355.3372,189.9683 355.5502,190.6323 355.4252,191.3513 C354.9982,193.8183 348.5932,195.0323 342.8482,195.0323 L342.8482,195.0323 Z" id="Fill-48" fill="#000"/>
                        <path d="M344.4735,203.788 C342.4745,203.788 340.0815,203.46 338.7605,202.094 C338.1085,201.42 337.8975,200.786 338.1335,200.21 C338.6905,198.851 341.6925,198.709 342.2885,198.694 C342.5575,198.708 342.7935,198.906 342.8005,199.182 C342.8075,199.458 342.5885,199.687 342.3135,199.694 C340.9045,199.729 339.2605,200.098 339.0595,200.589 C338.9915,200.757 339.1435,201.052 339.4795,201.398 C341.6025,203.593 347.6025,202.533 347.6625,202.521 C347.9355,202.477 348.1955,202.653 348.2445,202.924 C348.2935,203.195 348.1145,203.456 347.8425,203.506 C347.7165,203.528 346.2505,203.788 344.4735,203.788" id="Fill-50" fill="#000"/>
                        <path d="M264.1786,252.1992 C263.9026,252.1992 263.6786,251.9752 263.6786,251.6992 C263.4856,251.3802 261.4176,250.7492 259.1056,250.8592 C258.5446,250.8892 258.0906,250.8742 257.6796,250.8142 L256.2366,250.6052 C255.7756,250.6102 254.7696,250.7372 254.7696,251.2202 C254.7696,251.4962 254.5456,251.7202 254.2696,251.7202 C253.9926,251.7202 253.7696,251.4962 253.7696,251.2202 C253.7696,250.2262 254.7416,249.6102 256.3076,249.6102 L257.8226,249.8242 C258.1726,249.8742 258.5516,249.8862 259.0556,249.8612 C261.2406,249.7452 263.5616,250.2452 264.3376,250.9832 C264.6186,251.2522 264.6786,251.5202 264.6786,251.6992 C264.6786,251.9752 264.4546,252.1992 264.1786,252.1992" id="Fill-52" fill="#000"/>
                        <path d="M254.3944,262.1533 C253.9134,262.1533 253.5204,262.0073 253.2244,261.7193 C252.5254,261.0393 252.6104,259.7903 252.6844,258.6883 C252.7174,258.2083 252.7664,257.4823 252.6614,257.3183 C251.6084,257.4333 251.4454,256.4553 251.3564,255.9323 C251.3314,255.7863 251.3014,255.6163 251.2604,255.4903 C249.5994,255.4253 248.5584,255.0373 248.1634,254.3333 C247.9764,254.0003 247.8504,253.4383 248.3134,252.6523 C248.4534,252.4123 248.7614,252.3363 248.9974,252.4743 C249.2354,252.6143 249.3154,252.9213 249.1744,253.1583 C248.9974,253.4623 248.9504,253.6923 249.0354,253.8423 C249.1954,254.1293 249.9514,254.4713 251.5554,254.4983 C251.6904,254.5003 251.8194,254.5563 251.9114,254.6553 C252.2064,254.9663 252.2784,255.3903 252.3414,255.7643 C252.4464,256.3813 252.4834,256.3773 252.6894,256.3703 C253.0264,256.3503 253.2574,256.5003 253.3824,256.6283 C253.7974,257.0503 253.7474,257.8033 253.6824,258.7563 C253.6244,259.5973 253.5544,260.6453 253.9214,261.0043 C253.9684,261.0483 254.1134,261.1883 254.5464,261.1453 C255.6714,261.0393 255.7874,259.8993 255.8334,258.1733 C255.8674,256.9873 255.8974,255.8683 256.7604,255.5723 C257.4624,255.3313 258.1684,255.5473 258.8494,255.7553 C259.7564,256.0333 260.3354,256.1763 260.8634,255.6803 C261.4724,255.1073 262.5024,255.1393 263.6924,255.1763 C264.8884,255.2133 266.2414,255.2573 266.9494,254.5893 C267.3304,254.2293 267.5244,253.6733 267.5434,252.8873 C267.5504,252.6163 267.7734,252.4003 268.0434,252.4003 L268.0564,252.4003 C268.3324,252.4073 268.5504,252.6363 268.543564,252.9133 C268.5174,253.9633 268.2114,254.7713 267.6354,255.3153 C266.6254,256.2713 265.0514,256.2173 263.6604,256.1763 C262.7724,256.1463 261.8564,256.1193 261.5484,256.4093 C260.5734,257.3313 259.4554,256.9873 258.5564,256.7113 C258.0034,256.5423 257.4804,256.3823 257.0844,256.5173 C256.8774,256.5893 256.8484,257.6763 256.8334,258.2003 C256.7904,259.7803 256.7304,261.9443 254.6404,262.1413 C254.5564,262.1493 254.4734,262.1533 254.3944,262.1533" id="Fill-54" fill="#000"/>
                        <path d="M317.0409,288.7704 C315.6679,288.7704 314.4369,288.6154 313.3979,288.4044 C313.1279,288.3484 312.9529,288.0844 313.0079,287.8144 C313.0629,287.5424 313.3299,287.3694 313.5979,287.4234 C324.8579,289.7134 332.1539,280.6794 335.5009,275.0924 C336.7089,273.0774 337.2139,270.6794 336.9239,268.3414 C336.7549,266.9754 336.4879,265.5194 336.1279,263.9964 C335.1489,266.1994 333.1659,270.5134 331.7989,272.4854 C331.5399,272.8574 331.1079,272.9554 330.6689,272.7434 C327.4399,271.1724 315.1199,241.8484 319.3589,228.0774 C319.3939,227.9894 321.1559,223.6714 319.6779,221.6544 C319.1759,220.9704 318.2049,219.8524 317.3689,220.0654 C316.7129,220.2274 315.4859,221.3394 314.6409,226.9724 C314.5999,227.2464 314.3369,227.4314 314.0719,227.3924 C313.7989,227.3514 313.6109,227.0974 313.6519,226.8244 C314.3719,222.0224 315.5099,219.4944 317.1299,219.0944 C318.2059,218.8284 319.3329,219.4934 320.4839,221.0624 C322.2949,223.5354 320.3809,228.2184 320.2989,228.4164 C316.9829,239.1924 324.2709,260.6794 329.1119,269.1644 C330.2409,271.1424 330.8399,271.6714 331.0489,271.8094 C332.8379,269.1594 335.7669,262.3294 335.7959,262.2594 C335.8799,262.0634 336.0619,261.9394 336.2919,261.9574 C336.5039,261.9724 336.6839,262.1214 336.7389,262.3274 C337.2949,264.4094 337.6899,266.3914 337.9159,268.2184 C338.2329,270.7774 337.6809,273.4014 336.3579,275.6064 C329.8999,286.3904 322.3999,288.7704 317.0409,288.7704" id="Fill-56" fill="#000"/>
                        <path d="M290.2723,260.8222 C290.0223,260.8222 289.8063,260.6352 289.7763,260.3802 C287.9703,244.8802 287.2033,229.8912 287.1963,229.7422 C287.1813,229.4662 287.3943,229.2312 287.6693,229.2182 C287.9673,229.1832 288.1803,229.4172 288.1943,229.6912 C288.2023,229.8412 288.9673,244.7982 290.7703,260.2642 C290.8013,260.5392 290.6053,260.7872 290.3313,260.8192 C290.3113,260.8212 290.2923,260.8222 290.2723,260.8222" id="Fill-58" fill="#000"/>
                        <path d="M223.7792,308.789 C215.0932,308.789 206.4662,307.899 201.5992,304.968 C200.9512,304.989 198.7002,304.88 197.2752,302.853 C195.1032,299.764 196.0022,293.898 199.9452,285.421 C200.0622,285.17 200.3592,285.06 200.6092,285.179 C200.8592,285.295 200.9672,285.593 200.8512,285.843 C196.1482,295.955 196.7512,300.355 198.0862,302.268 C199.3862,304.132 201.5902,303.97 201.6862,303.963 C201.7862,303.954 201.9002,303.978 201.9922,304.036 C213.6832,311.271 250.2212,305.734 250.5892,305.678 C250.6482,305.668 250.7082,305.67 250.7652,305.683 C273.3422,310.335 284.2952,304.277 284.4032,304.217 C284.4882,304.168 284.5822,304.14 284.6812,304.151 C284.7772,304.156 294.3242,304.667 297.1842,300.304 C298.4312,298.4 298.2242,295.78 296.5682,292.515 C296.4432,292.268 296.5422,291.967 296.7882,291.842 C297.0372,291.72 297.3352,291.815 297.4612,292.061 C299.2902,295.671 299.4782,298.629 298.0192,300.853 C295.0132,305.436 286.0762,305.209 284.7682,305.157 C283.4042,305.888 272.5072,311.164 250.6522,306.68 C249.1912,306.902 236.4242,308.789 223.7792,308.789" id="Fill-60" fill="#000"/>
                        <path d="M185.2636,293.1845 C184.1746,293.1845 183.5886,292.6885 183.2846,292.2555 C182.1416,290.6245 182.8176,287.0075 185.3506,281.1955 C185.4946,280.8665 185.6476,280.5835 185.8256,280.3105 C186.7846,278.8375 191.7926,271.2455 196.2896,266.4125 C199.9926,262.4335 200.4876,261.3645 200.5066,261.3215 C201.2986,259.9235 201.4716,258.9285 201.0476,258.3045 C200.2836,257.1755 197.6506,257.2695 196.6986,257.4055 C196.4136,257.4365 196.1716,257.2515 196.1336,256.9795 C196.0956,256.7055 196.2856,256.4545 196.5586,256.4145 C196.9716,256.3565 200.6236,255.8995 201.8746,257.7425 C202.5316,258.7075 202.3716,260.0595 201.4036,261.7595 C201.3936,261.8025 200.9036,262.9225 197.0226,267.0935 C192.5806,271.8665 187.6146,279.3955 186.6636,280.8565 C186.5146,281.0845 186.3886,281.3185 186.2776,281.5735 C183.1866,288.6635 183.5896,290.9485 184.1036,291.6815 C184.3676,292.0565 184.7976,292.2195 185.4436,292.1785 C186.0136,292.1425 186.6166,291.9345 187.2326,291.5595 L188.3556,290.8755 C188.8826,290.5545 189.2686,290.2865 189.6056,290.0075 C193.2836,286.9745 195.6316,282.7605 195.7546,281.7475 C195.6196,281.6605 195.5306,281.5085 195.5286,281.3345 C195.5246,281.0595 195.7456,280.8325 196.0226,280.8295 L196.0326,280.8295 C196.3396,280.8295 196.5956,281.0065 196.7016,281.2955 C197.1846,282.6145 193.9246,287.7415 190.2426,290.7795 C189.8676,291.0885 189.4456,291.3825 188.8756,291.7305 L187.7516,292.4135 C186.9956,292.8735 186.2406,293.1305 185.5056,293.1765 C185.4226,293.1815 185.3416,293.1845 185.2636,293.1845" id="Fill-62" fill="#000"/>
                        <path d="M184.1513,268.5019 C184.0463,268.5019 183.9403,268.4689 183.8503,268.4009 C183.6303,268.2339 183.5863,267.9209 183.7523,267.7009 C191.3823,257.5849 196.3213,256.4629 196.5273,256.4209 C196.7913,256.3579 197.0623,256.5369 197.1183,256.8089 C197.1743,257.0779 197.0023,257.3419 196.7323,257.3989 C196.6653,257.4139 191.8893,258.5739 184.5503,268.3029 C184.4523,268.4339 184.3023,268.5019 184.1513,268.5019" id="Fill-64" fill="#000"/>
                        <path d="M240.1649,183.7197 C239.6099,183.7197 238.9259,183.5867 238.3979,183.1037 C237.7029,182.4637 237.5019,181.4297 237.8019,180.0307 C237.8599,179.7587 238.1309,179.5947 238.3949,179.6457 C238.6659,179.7037 238.8379,179.9697 238.7799,180.2397 C238.6279,180.9477 238.5569,181.8907 239.0749,182.3667 C239.6029,182.8537 240.5189,182.7147 240.7189,182.6537 C240.9819,182.5727 241.2619,182.7227 241.3429,182.9867 C241.4229,183.2497 241.2739,183.5297 241.0099,183.6107 C240.8389,183.6617 240.5299,183.7197 240.1649,183.7197" id="Fill-66" fill="#000"/>
                        <path d="M230.3143,184.3671 C230.0803,184.3671 229.8713,184.2021 229.8243,183.9641 C229.7703,183.6921 229.9473,183.4301 230.2173,183.3771 C230.3693,183.3461 233.9743,182.6481 239.0043,182.6321 L239.0063,182.6321 C239.2823,182.6321 239.5053,182.8541 239.506303,183.1301 C239.5073,183.4061 239.2843,183.6311 239.0083,183.6321 C234.0803,183.6481 230.4473,184.3501 230.4113,184.3571 C230.3773,184.3641 230.3453,184.3671 230.3143,184.3671" id="Fill-68" fill="#000"/>
                        <path d="M255.1483,184.624 C252.9993,184.624 251.5563,184.378 251.4533,184.359 C251.1813,184.312 251.0003,184.053 251.0473,183.78 C251.0943,183.51 251.3483,183.318 251.6273,183.375 C251.6683,183.382 255.8223,184.089 260.5653,183.061 C261.2753,182.205 262.1813,180.709 261.8513,179.953 C261.6283,179.441 260.7773,179.31 260.1023,179.289 C259.8273,179.28 259.6103,179.05 259.6183,178.773 C259.6273,178.503 259.8483,178.289 260.1183,178.289 L260.1333,178.289 C261.5353,178.332 262.4213,178.758 262.7683,179.554 C263.4773,181.181 261.4473,183.574 261.2133,183.842 C261.1433,183.922 261.0493,183.978 260.9463,184.001 C258.7923,184.484 256.7693,184.624 255.1483,184.624" id="Fill-70" fill="#000"/>
                        <path d="M200.8485,304.7724 C200.1225,304.7724 199.6455,304.6374 199.6315,304.6334 C199.3665,304.5554 199.2155,304.2774 199.2935,304.0124 C199.3715,303.7494 199.6515,303.5974 199.9125,303.6744 C200.0525,303.7134 203.3715,304.6154 205.5315,300.6214 C205.6615,300.3764 205.9675,300.2884 206.2075,300.4184 C206.4515,300.5494 206.5415,300.8534 206.4105,301.0954 C204.7105,304.2404 202.2895,304.7724 200.8485,304.7724" id="Fill-72" fill="#000"/>
                        <path d="M255.1434,307.4833 C255.1104,307.4833 255.0764,307.4803 255.0424,307.4733 C247.5034,305.9383 247.2314,303.7633 247.2534,303.3423 C247.2684,303.0673 247.5154,302.8403 247.7794,302.8703 C248.0434,302.8833 248.2484,303.1003 248.252397,303.3613 C248.2694,303.4563 248.6754,305.1573 255.2424,306.4933 C255.5124,306.5483 255.6874,306.8123 255.6324,307.0833 C255.5834,307.3203 255.3754,307.4833 255.1434,307.4833" id="Fill-74" fill="#000"/>
                        <path d="M281.1483,306.5439 C280.9073,306.5439 280.6953,306.3679 280.6563,306.1219 C280.6133,305.8499 280.7983,305.5939 281.0713,305.5499 C281.2243,305.5249 284.8353,304.9059 285.5863,301.4699 C285.6453,301.1999 285.9173,301.0289 286.1813,301.0879 C286.4523,301.1469 286.6233,301.4129 286.5633,301.6829 C285.6643,305.7959 281.4073,306.5099 281.2263,306.5379 C281.2013,306.5419 281.1743,306.5439 281.1483,306.5439" id="Fill-76" fill="#000"/>
                        <path d="M210.039,247.9579 C210.018,247.9579 209.995,247.9569 209.974,247.9539 C209.7,247.9179 209.507,247.6669 209.542,247.3939 C209.572,247.1659 212.502,224.5779 212.834,218.9319 C212.851,218.6559 213.099,218.4379 213.362,218.4619 C213.638,218.4779 213.849,218.7149 213.832,218.9899 C213.498,224.6719 210.563,247.2949 210.534,247.5219 C210.501,247.7739 210.286,247.9579 210.039,247.9579" id="Fill-78" fill="#000"/>
                        <path d="M288.9677,247.9579 C288.7097,247.9579 288.4907,247.7599 288.4707,247.4979 C288.3847,246.4309 286.3667,221.2909 286.5437,216.5079 C286.5547,216.2379 286.7767,216.0259 287.0437,216.0259 L287.0627,216.0259 C287.3377,216.0369 287.5537,216.2689 287.5437,216.5449 C287.3687,221.2699 289.4467,247.1569 289.4667,247.4179 C289.4887,247.6929 289.2837,247.9349 289.0087,247.9559 C288.9947,247.9569 288.9817,247.9579 288.9677,247.9579" id="Fill-80" fill="#000"/>
                        <path d="M334.83,275.4072 C334.629,275.4072 334.424,275.3862 334.215,275.3462 C331.024,274.7302 328.098,269.4032 327.975,269.1772 C327.843,268.9342 327.933,268.6312 328.175,268.4992 C328.418,268.3692 328.721,268.4572 328.853,268.6992 C328.881,268.7512 331.677,273.8392 334.405,274.3652 C335.061,274.4902 335.636,274.3322 336.179,273.8822 C336.392,273.7062 336.707,273.7342 336.883,273.9472 C337.059,274.1602 337.029,274.4752 336.817,274.6512 C336.21,275.1542 335.544,275.4072 334.83,275.4072" id="Fill-82" fill="#000"/>
                        <path d="M323.1825,277.3212 C323.0925,277.3212 323.0025,277.2982 322.9215,277.2482 C313.2485,271.3302 313.0035,248.4322 312.997487,247.4612 C312.9955,247.1842 313.2185,246.9602 313.4945,246.9582 L313.4975,246.9582 C313.7725,246.9582 313.9955,247.1792 313.9975,247.4552 C313.9985,247.6872 314.2445,270.7662 323.4435,276.3942 C323.6785,276.5392 323.7525,276.8462 323.6095,277.0822 C323.5145,277.2362 323.3505,277.3212 323.1825,277.3212" id="Fill-84" fill="#000"/>
                        <path d="M318.003,178.7888 C319.369,179.3168 324.538,179.9368 332.382,179.9368 C340.225,179.9368 345.394,179.3168 346.761,178.7888 C345.393,178.2618 340.225,177.6428 332.382,177.6428 C324.538,177.6428 319.37,178.2618 318.003,178.7888 L318.003,178.7888 Z M332.382,180.9368 C328.714,180.9368 316.744,180.7808 316.744,178.7888 C316.744,176.7978 328.714,176.6428 332.382,176.6428 C336.05,176.6428 348.019,176.7978 348.019,178.7888 C348.019,180.7808 336.05,180.9368 332.382,180.9368 L332.382,180.9368 Z" id="Fill-86" fill="#000"/>
                        <path d="M259.705,274.7665 L254.246,274.7665 C253.97,274.7665 253.746,274.5425 253.746,274.2665 C253.746,273.9905 253.97,273.7665 254.246,273.7665 L259.705,273.7665 C280.112,273.7665 292.642,270.9535 292.642,268.9385 C292.642,268.1685 290.172,266.5395 280.909,265.3225 C280.636,265.2865 280.442,265.0355 280.478,264.7605 C280.515,264.4875 280.77,264.2915 281.04,264.3295 C289.402,265.4305 293.642,266.9805 293.642,268.9385 C293.642,272.7645 276.57,274.7665 259.705,274.7665" id="Fill-88" fill="#000"/>
                    </g>
                </g>
                <g id="Hair" transform="translate(107.000000, 209.000000) scale(1 1)">
                    <g id="Hair/Short Fluffy" stroke="none" stroke-width="1" fill="none" fill-rule="evenodd">
                        <g id="Head" transform="translate(132.000000, 111.000000)">
                            <path d="M44.1789,24.3663 C44.5879,35.6913 33.3599,45.0883 22.4569,45.0883 C11.5539,45.0883 0.4939,36.9643 0.0189,25.3903 C-0.4461,14.0673 7.7449,1.3583 15.9329,0.2613 C32.6079,-1.9747 43.6789,10.5083 44.1789,24.3663" id="Fill-1" fill="#000"/>
                            <path d="M22.4567,44.088 C12.4757,44.088 1.4787,36.559 1.0177,25.35 C0.5797,14.678 8.3147,2.291 16.0657,1.252 C17.3127,1.085 18.5577,1 19.7657,1 C34.4247,1 42.7697,13.058 43.1797,24.402 C43.3447,28.984 41.4627,33.553 37.8807,37.268 C33.7607,41.538 27.9947,44.088 22.4567,44.088" id="Skin" fill="#673a18"/>
                        </g>
                        <path d="M139.126934,149.05208 L139.5209,142.3024 C135.0399,142.1284 133.6239,134.1034 137.0049,134.2774 C140.3859,134.4524 140.2529,137.9414 140.2529,137.9414 L142.5199,137.9414 C140.8639,132.7084 144.9729,121.2864 144.9729,121.2864 C144.9729,121.2864 161.023212,127.224856 172.274212,122.419856 C172.274212,122.419856 176.586376,130.03331 176.1079,137.2574 C176.1079,137.2574 193.9259,118.9374 182.8899,106.4394 C171.8529,93.9424 151.2409,104.6544 151.2409,104.6544 C151.2409,104.6544 160.0049,97.3514 154.3249,96.5394 C148.6439,95.7274 135.9059,107.2264 135.9059,107.2264 C135.9059,107.2264 115.6579,110.4024 120.8519,131.3554 C124.4789,145.9834 137.946055,149.2904 137.946055,149.2904 L139.126934,149.05208 Z" id="Hair" fill="#e7b460"/>
                        <path d="M149.875662,104.903579 C164.555605,97.2048135 175.730313,97.5774012 183.264695,106.108448 C185.849925,109.036159 187.039258,112.424689 186.9945,116.164479 C186.938217,120.867281 184.966316,125.868111 181.721077,130.862786 C180.573357,132.629216 179.34429,134.269673 178.114906,135.743059 C177.94264,135.949515 177.775247,136.146776 177.613374,136.33451 L177.144966,136.868799 L176.728109,137.328225 L176.46633,137.606008 L175.519217,138.579805 L175.608993,137.224356 C175.631304,136.887509 175.64315,136.545576 175.644772,136.198792 C175.65859,133.243212 174.943602,130.058419 173.741744,126.871098 C173.324021,125.7633 172.876427,124.734987 172.42917,123.813169 L172.314212,123.578634 L172.046,123.053 L171.966558,123.086803 C169.763035,123.957486 167.308535,124.479926 164.644584,124.689883 L164.026127,124.732805 C159.544085,125.002292 154.753532,124.417316 150.017205,123.277602 C148.83462,122.993034 147.731325,122.690989 146.725693,122.386301 L145.941263,122.141874 L145.281,121.923 L145.089401,122.501071 L145.004188,122.764236 C144.673159,123.794337 144.342038,124.912684 144.033082,126.07928 C143.584193,127.774254 143.221285,129.424728 142.975227,130.974052 C142.539847,133.71546 142.498003,135.968665 142.925234,137.546975 L142.9966,137.790547 L143.202565,138.4414 L139.733477,138.4414 L139.753263,137.922354 C139.76185,137.487916 139.675613,136.889005 139.411608,136.31489 C138.990426,135.398973 138.232017,134.841585 136.979202,134.776739 C135.849196,134.718584 135.328354,136.11404 135.800289,138.040426 C136.299477,140.078058 137.665294,141.620377 139.351638,141.789662 L139.540301,141.802777 L140.049758,141.822559 L139.626085,149.081215 C139.609994,149.356888 139.373473,149.567321 139.0978,149.551231 C138.852757,149.536928 138.659262,149.348458 138.630589,149.113138 L138.627784,149.022946 L138.993,142.75 L138.852481,142.725614 C136.952378,142.347976 135.490594,140.66575 134.891953,138.518794 L134.829011,138.278374 C134.222314,135.801903 135.016385,133.674401 137.030745,133.778068 C138.670649,133.86295 139.749294,134.655695 140.320151,135.897099 C140.545434,136.387008 140.667771,136.878409 140.720975,137.319725 L140.732,137.441 L141.871,137.441 L141.830254,137.248835 C141.520165,135.666081 141.571264,133.644086 141.918953,131.267038 L141.987605,130.817201 C142.239457,129.231395 142.609432,127.548779 143.066408,125.823271 C143.317347,124.875741 143.582564,123.959983 143.850684,123.096131 L144.138828,122.19057 L144.502418,121.117147 L144.673209,120.642391 L145.318136,120.879012 L145.732581,121.021133 L146.247143,121.189804 C146.338731,121.219175 146.433195,121.249145 146.530477,121.279669 C147.644324,121.629157 148.89442,121.978879 150.251159,122.305354 C154.899115,123.423803 159.596126,123.997357 163.966109,123.734607 C166.768717,123.566098 169.329359,123.053169 171.596524,122.157773 L172.077834,121.960035 L172.488958,121.784455 L172.836327,122.406185 L172.986563,122.692266 L173.21005,123.134253 C173.248909,123.212708 173.288533,123.293522 173.328864,123.376646 C173.788814,124.324627 174.248429,125.380557 174.677433,126.518273 C175.845769,129.616693 176.570386,132.720513 176.639529,135.655231 L176.641,135.927 L176.976256,135.541477 L177.347085,135.102394 C178.552344,133.657921 179.75792,132.048819 180.882534,130.317951 C184.034005,125.467591 185.940967,120.631448 185.994572,116.152512 C186.036437,112.654467 184.931773,109.507169 182.515133,106.770383 C177.306467,100.872702 170.257601,99.0651474 161.316985,101.380939 L160.498989,101.602825 C158.16656,102.263693 155.708519,103.198192 153.123984,104.406889 L152.206541,104.844875 C151.59141,105.144457 150.969269,105.459223 150.340108,105.789181 C150.095556,105.917434 149.793338,105.823155 149.665084,105.578603 C149.536831,105.334051 149.63111,105.031833 149.875662,104.903579 Z" id="Hair" fill="#000" fill-rule="nonzero"/>
                        <path d="M136.1261,107.6683 C136.1321,107.6643 136.1401,107.6663 136.1471,107.6623 C136.1601,107.6543 136.1681,107.6433 136.1801,107.6343 C136.2001,107.6213 136.2231,107.6133 136.2401,107.5973 C136.3661,107.4833 148.8901,96.2683 154.2541,97.0343 C155.1001,97.1553 155.5891,97.4263 155.7061,97.8393 C156.1101,99.2633 153.0531,102.4773 150.9861,104.2143 C145.5881,106.9073 143.0951,109.8563 142.9651,110.0133 C142.7901,110.2263 142.8201,110.5403 143.0331,110.7163 C143.1261,110.7933 143.2391,110.8313 143.3511,110.8313 C143.4951,110.8313 143.6381,110.7693 143.7361,110.6493 C143.7761,110.6033 147.7141,105.9373 156.3811,103.0733 C156.6431,102.9863 156.7851,102.7043 156.6981,102.4413 C156.6121,102.1803 156.3291,102.0343 156.0671,102.1243 C155.2581,102.3913 154.5041,102.6763 153.7761,102.9683 C155.3541,101.3323 157.1031,99.0993 156.6681,97.5663 C156.4331,96.7383 155.6691,96.2263 154.3951,96.0443 C149.1431,95.2973 138.5741,104.2213 136.0871,106.3973 C135.5671,105.0973 134.5931,101.9283 136.3081,99.6013 C136.4721,99.3783 136.4241,99.0643 136.2021,98.9013 C135.9801,98.7353 135.6671,98.7853 135.5031,99.0073 C134.0351,100.9993 134.1991,103.4113 134.6281,105.1483 C133.2961,104.1173 131.1081,103.0493 127.8321,103.1243 C127.5561,103.1303 127.3371,103.3593 127.34298,103.6353 C127.3491,103.9113 127.5541,104.1493 127.8541,104.1243 C131.8401,104.0443 134.0071,105.7733 134.9291,106.7813 C133.8001,106.8793 131.8161,107.1503 129.6141,107.9123 C129.3531,108.0023 129.2141,108.2873 129.3041,108.5483 C129.3761,108.7553 129.5691,108.8853 129.7771,108.8853 C129.8311,108.8853 129.8861,108.8763 129.9401,108.8573 C133.1011,107.7653 135.8821,107.7263 135.9101,107.7263 C135.9861,107.7253 136.0581,107.7013 136.1261,107.6683" id="Fill-6" fill="#000"/>
                    </g>
                </g>
                <g id="Expression" transform="translate(204.000000, 312.000000) scale(1 1)">
                    <g id="Expression/Relax" stroke="none" stroke-width="1" fill="none" fill-rule="evenodd">
                        <path d="M49.0105,26.3156 C49.1135,26.3156 49.2155,26.2846 49.3045,26.2206 C51.3455,24.7386 53.3825,25.0236 53.4035,25.0266 C53.6715,25.0706 53.9305,24.8826 53.9725,24.6086 C54.0145,24.3366 53.8295,24.0826 53.5575,24.0396 C53.4575,24.0226 51.1065,23.6746 48.7165,25.4106 C48.4925,25.5736 48.4445,25.8856 48.6065,26.1096 C48.7035,26.2446 48.8565,26.3156 49.0105,26.3156 M72.5845,28.7776 C72.4075,28.5666 72.0935,28.5366 71.8805,28.7156 C71.7205,28.8486 67.9305,31.9406 64.7345,28.7456 C64.5385,28.5496 64.2225,28.5496 64.0275,28.7456 C63.8315,28.9406 63.8315,29.2566 64.0275,29.4526 C65.3225,30.7486 66.7045,31.1796 67.9685,31.1796 C70.4585,31.1796 72.4925,29.5076 72.5235,29.4816 C72.7355,29.3046 72.7625,28.9896 72.5845,28.7776 M56.6395,28.7456 C56.4445,28.5496 56.1275,28.5496 55.9325,28.7456 C52.7375,31.9416 48.9455,28.8486 48.7855,28.7156 C48.5735,28.5376 48.2585,28.5676 48.0815,28.7776 C47.9045,28.9896 47.9315,29.3046 48.1435,29.4816 C48.1735,29.5076 50.2075,31.1796 52.6985,31.1796 C53.9615,31.1796 55.3435,30.7486 56.6395,29.4526 C56.8345,29.2566 56.8345,28.9406 56.6395,28.7456 M67.2635,25.0266 C67.2845,25.0236 69.3215,24.7386 71.3625,26.2206 C71.4505,26.2846 71.5535,26.3156 71.6565,26.3156 C71.8105,26.3156 71.9625,26.2446 72.0605,26.1096 C72.2225,25.8856 72.1735,25.5736 71.9495,25.4106 C69.5585,23.6746 67.2075,24.0226 67.1095,24.0396 C66.8365,24.0826 66.6525,24.3366 66.6945,24.6086 C66.7365,24.8826 66.9995,25.0716 67.2635,25.0266 M66.2575,42.7706 C60.6925,48.3346 54.6455,42.9836 54.3915,42.7536 C54.1885,42.5696 53.8705,42.5836 53.6855,42.7886 C53.4995,42.9926 53.5155,43.3086 53.7195,43.4946 C53.7655,43.5366 56.8405,46.2706 60.7315,46.2706 C62.6975,46.2706 64.8695,45.5726 66.9645,43.4776 C67.1595,43.2826 67.1595,42.9656 66.9645,42.7706 C66.7695,42.5756 66.4525,42.5756 66.2575,42.7706 M59.7885,31.1176 C60.9415,32.6566 62.8445,35.6946 62.1495,37.1586 C61.8605,37.7676 61.0665,38.0766 59.7885,38.0766 C58.5115,38.0766 57.7175,37.7676 57.4285,37.1586 C56.7335,35.6946 58.6365,32.6566 59.7885,31.1176 M56.5255,37.5866 C56.9935,38.5756 58.0915,39.0766 59.7885,39.0766 C61.4865,39.0766 62.5835,38.5756 63.0525,37.5866 C64.2415,35.0786 60.5955,30.5016 60.1755,29.9876 C59.9865,29.7546 59.5915,29.7546 59.4025,29.9876 C58.9825,30.5016 55.3355,35.0786 56.5255,37.5866" id="Fill-4" fill="#000"/>
                        <path d="M50.4996066,33 C52.4327301,33 54,33.8954741 54,35 C54,36.1045259 52.4327301,37 50.4996066,37 C48.5664831,37 47,36.1045259 47,35 C47,33.8954741 48.5664831,33 50.4996066,33 Z M68.5,33 C70.4329063,33 72,33.8954741 72,35 C72,36.1045259 70.4329063,37 68.5,37 C66.5670937,37 65,36.1045259 65,35 C65,33.8954741 66.5670937,33 68.5,33 Z" id="Cheeks" fill="#E2A2B5"/>
                    </g>
                </g>
                <g id="Facial Hair" transform="translate(204.167262, 311.700000) scale(1 1)">
                    <g id="Facial Hair/None" stroke="none" stroke-width="1" fill="none" fill-rule="evenodd" fill-opacity="0"/>
                </g>
                <g id="Accesories" transform="translate(107.500000, 210.000000) scale(1 1)" fill="#000">
                    <g id="Accesories/None" stroke="none" stroke-width="1" fill="none" fill-rule="evenodd" fill-opacity="0"/>
                </g>
            </g>
        </g>
    </g>
</svg>
