<svg viewBox="90.975 105.963 1046.212 1044.487" xmlns="http://www.w3.org/2000/svg" overflow="visible">
    <g id="Master/Character/Avatar" stroke="none" stroke-width="1" fill="none" fill-rule="evenodd">
        <g id="Backdrop" opacity=".75" transform="translate(57.000000, 66.000000) scale(4 4)">
            <g id="Backdrop/Pattern 6" stroke="none" stroke-width="1" fill="none" fill-rule="evenodd">
                <g id="Group-34" transform="translate(10.000000, 11.000000)">
                    <path d="M117.128593,126.716147 L14.7245739,11.3730421 C12.2245521,8.55833851 12.4726848,4.24154933 15.2735249,1.73238361 C18.0743651,-0.776782114 22.372499,-0.532693204 24.8708213,2.28542421 L127.27484,117.628529 C129.774862,120.441526 129.528429,124.760022 126.725889,127.267481 C125.429141,128.428183 123.812879,129 122.203416,129 C120.332223,129 118.471228,128.230181 117.128593,126.716147 Z" id="Fill-3-Copy" fill="#CDF267"/>
                    <path d="M70.1188303,259 L5.63099123,247.565965 C1.92311623,246.91008 -0.549791481,243.365867 0.105130728,239.650166 C0.763165787,235.933075 4.29531594,233.455297 8.00249798,234.109622 L63.4303323,243.939357 L95.6707797,192.155168 L155.62827,202.786273 L187.873387,151 L252.369871,162.428306 C256.076883,163.086447 258.54979,166.630659 257.894868,170.34636 C257.23856,174.058941 253.707796,176.53984 249.996808,175.885344 L194.561885,166.060643 L162.316768,217.846916 L102.359278,207.215811 L70.1188303,259 Z" id="Fill-12-Copy" fill="#FA0"/>
                </g>
            </g>
        </g>
        <g id="Head" transform="translate(-19.000000, 170.000000) scale(4 4)">
            <g id="Head/Low Bun" stroke="none" stroke-width="1" fill="none" fill-rule="evenodd">
                <g id="Group-28" transform="translate(127.281982, 25.280273)">
                    <path d="M49.1302,87.0232 C49.1302,100.5892 38.1322,111.5872 24.5652,111.5872 C10.9982,111.5872 0.0002,100.5892 0.0002,87.0232 C0.0002,73.4562 10.9982,62.4582 24.5652,62.4582 C38.1322,62.4582 49.1302,73.4562 49.1302,87.0232" id="Fill-1" fill="#6072F4"/>
                    <path d="M47.2083,167.4226 C58.3773,172.1156 88.9733,170.4256 88.9733,170.4256 C88.9733,170.4256 84.4683,149.4496 84.0463,133.9176 C83.9883,131.8026 85.6893,129.7676 87.8033,129.6776 C89.6863,129.5976 94.4643,129.5996 96.5903,129.0506 C129.3483,120.5996 124.7313,60.8056 116.4723,37.3416 C110.8543,21.3836 98.5953,10.8836 88.3163,7.3096 C67.2513,-0.0174 53.4023,4.3056 40.2643,11.6266 C38.7113,12.4906 16.1893,27.6746 15.3453,57.5206 C14.7903,77.1406 27.2973,95.7736 27.3123,95.8126 C28.1093,97.9246 22.6663,105.5266 16.4723,116.5066 C13.4753,121.8186 8.5413,129.5526 4.9283,136.2166 C4.9283,136.2166 24.8713,161.4166 47.2083,167.4226" id="SKIN" fill="#f8648e"/>
                    <path d="M37.3909,74.633 C39.4119,78.134 39.5779,81.824 37.7599,82.873 C35.9419,83.923 32.8289,81.935 30.8079,78.434 C28.7869,74.933 28.6209,71.243 30.4389,70.194 C32.2569,69.144 35.3699,71.132 37.3909,74.633" id="Fill-5" fill="#CDF267"/>
                    <path d="M82.4476,131.1887 C82.4276,131.1727 82.4046,131.1617 82.3856,131.1497 C82.3576,131.1337 82.3346,131.1187 82.3106,131.1067 C82.3656,131.0437 82.4086,130.9697 82.4396,130.8837 C82.4436,130.8717 82.4406,130.8577 82.4446,130.8447 C82.4666,130.8497 82.4916,130.8537 82.5146,130.8577 C82.4806,130.9637 82.4526,131.0727 82.4476,131.1887" id="Fill-7" fill="#d42d66"/>
                    <polygon id="Fill-9" fill="#45B248" points="81.8558 131.2141 81.8558 131.2311 81.8558 131.2301"/>
                    <path d="M84.5735,131.9577 C85.2175,130.7387 86.6855,129.8817 86.6855,129.8817 C86.6855,129.8817 77.0965,127.4247 68.5915,122.0337 C68.2945,121.8447 67.9705,122.2347 68.2125,122.4917 C75.7975,130.5607 84.0115,134.9497 84.0115,134.9497 C84.0115,134.9497 83.8825,133.2697 84.5735,131.9577" id="Fill-11" fill="#d42d66"/>
                    <g id="Group-15" transform="translate(11.000000, 0.722000)" fill="#6072F4">
                        <path d="M113.0657,48.6918 C113.0487,48.3958 113.0467,48.1008 113.0367,47.8048 C112.9977,46.8938 112.9317,45.9798 112.8407,45.0708 C112.8307,44.9638 112.8177,44.8568 112.8057,44.7488 C112.7547,44.3078 112.7027,43.8668 112.6467,43.4278 C112.6137,43.2658 112.5777,43.1038 112.5407,42.9448 C112.4777,42.6548 112.4157,42.3698 112.3527,42.0848 C112.3017,41.8598 112.2397,41.6388 112.1847,41.4148 C112.1257,41.1748 112.0617,40.9358 112.0097,40.7218 C112.0077,40.7128 112.0047,40.7028 112.0027,40.6938 C112.0047,40.7038 112.0077,40.7128 112.0117,40.7208 C111.9377,40.4658 111.8647,40.2078 111.7947,39.9488 C111.7317,39.7318 111.6727,39.5108 111.6067,39.2938 C111.5127,38.9818 111.4197,38.6698 111.3217,38.3578 C111.1657,37.8438 110.9977,37.3378 110.8337,36.8278 C110.6697,36.3208 110.5017,35.8108 110.3367,35.3008 C110.3257,35.2648 105.2697,16.9578 90.0947,8.2348 C90.0767,8.2248 90.0607,8.2118 90.0427,8.2018 C81.6197,3.7248 44.6557,-12.3712 15.5517,20.2808 C4.2347,32.9788 -7.6213,56.7988 6.7387,83.1708 C12.6907,94.1028 25.2117,100.4298 27.2927,98.1878 C24.3687,94.0578 21.3627,90.6278 18.3617,87.7118 C11.2287,80.7778 11.0717,72.5458 10.9617,71.4688 C10.9337,71.0128 10.9067,70.5558 10.8997,70.1068 C10.9017,70.0638 10.9027,70.0208 10.9037,69.9768 C10.9267,69.6348 10.9687,69.2928 11.0107,68.9558 C11.0657,68.6268 11.1207,68.2998 11.1887,67.9738 C11.2587,67.6468 11.3567,67.3268 11.4547,67.0068 C11.6307,66.4288 11.8447,65.8608 12.0797,65.2828 C12.4607,64.5628 12.9107,63.8828 13.4107,63.2368 C13.6617,62.9318 13.9147,62.6308 14.1967,62.3558 C14.2257,62.3268 14.2577,62.3018 14.2887,62.2738 C14.3287,62.2458 14.3667,62.2148 14.4077,62.1878 C14.6107,62.0508 14.8097,61.9138 15.0127,61.7728 C15.1657,61.6698 15.3337,61.5788 15.4897,61.4798 C15.5677,61.4328 15.6447,61.3838 15.7227,61.3368 C15.7837,61.3068 15.8427,61.2768 15.9037,61.2478 C16.0017,61.1978 16.0987,61.1408 16.2007,61.0988 C16.3177,61.0508 16.4327,61.0018 16.5467,60.9538 C16.7847,60.8738 17.0217,60.7948 17.2667,60.7298 C17.4987,60.6668 17.7337,60.6188 17.9677,60.5698 C18.0757,60.5568 18.1827,60.5418 18.2907,60.5278 C18.4307,60.5088 18.5797,60.5088 18.7197,60.4978 C18.9937,60.4828 19.2707,60.4898 19.5477,60.4938 C19.7977,60.4978 20.0557,60.5018 20.3057,60.5208 C20.5737,60.5408 20.8367,60.5678 21.1027,60.6008 C21.5717,60.6868 22.0407,60.7748 22.5047,60.8748 C22.7627,60.9278 23.0207,60.9848 23.2707,61.0568 C23.5407,61.1368 23.8057,61.2168 24.0717,61.3008 C24.3137,61.3778 24.5527,61.4648 24.7937,61.5468 C24.9287,61.6038 25.0647,61.6598 25.2017,61.7158 C26.1277,62.1428 27.0257,62.6038 27.8777,63.1548 C28.4907,63.5508 29.0567,64.0388 29.6347,64.4838 C30.5447,65.1878 31.4477,65.9038 32.4087,66.5358 C33.3417,67.1488 34.6277,67.7458 35.7287,67.1638 C36.6387,66.6838 36.7987,65.7098 36.8267,64.8038 C36.8497,63.8518 36.8617,62.8888 36.9707,61.9378 C37.0337,61.6398 37.1197,61.3548 37.2287,61.0688 C37.3417,60.8788 37.4597,60.6918 37.5877,60.5138 C37.6937,60.4028 37.8027,60.2958 37.9197,60.1978 C38.0957,60.0908 38.2717,59.9998 38.4597,59.9198 C38.7757,59.8288 39.0917,59.7558 39.4167,59.7068 C39.9167,59.6718 40.4127,59.6838 40.9127,59.7368 C42.3497,60.0338 43.7447,60.5398 45.1197,61.0618 C46.1237,61.4418 47.1157,61.8498 48.1117,62.2458 C49.9167,62.9618 51.7327,63.7568 53.6307,64.2128 C54.9597,64.5368 56.2837,64.7128 57.6507,64.7888 C59.1237,64.8678 60.6307,64.7808 61.9627,64.0998 C63.3577,63.3838 64.2757,61.8998 64.4127,60.3918 C64.5297,59.0938 64.2837,57.7418 64.0137,56.4708 C63.9047,55.9528 63.7487,55.4428 63.6157,54.9288 C63.2447,53.4828 62.8307,52.0548 62.5997,50.5778 C62.5687,50.1938 62.5647,49.8208 62.5997,49.4368 C62.6427,49.2608 62.6897,49.0938 62.7487,48.9298 C62.8457,48.7698 62.9437,48.6218 63.0527,48.4768 C63.2327,48.2908 63.4237,48.1228 63.6277,47.9628 C63.9277,47.7878 64.2327,47.6318 64.5527,47.4948 C65.0727,47.3318 65.5957,47.2168 66.1387,47.1328 C67.5057,47.0268 68.8697,47.1138 70.2287,47.3008 C71.3697,47.5088 72.4777,47.8298 73.5617,48.2168 C73.6317,48.2528 73.7017,48.2868 73.7717,48.3228 C74.2117,48.6158 74.6597,48.9088 75.1077,49.2018 C76.9597,50.4158 78.7677,51.7248 80.5377,53.0538 C82.4087,54.4508 84.2987,55.8138 86.2527,57.0998 C87.3737,57.8418 88.5257,58.5008 89.7327,59.1028 C90.6157,59.5448 91.5407,59.9268 92.4607,60.3018 C93.5447,60.7428 95.3707,61.2748 96.5237,61.4708 C97.0107,61.5528 97.5027,61.6238 97.9977,61.6808 C98.1617,61.7138 98.3247,61.7508 98.4887,61.7798 C98.9687,61.8678 99.4577,61.9248 99.9457,61.9328 C100.4497,61.9398 100.9537,61.9438 101.4617,61.9398 C102.1527,61.9328 102.9577,61.6928 103.6097,61.4988 C104.9587,61.0928 106.2017,60.4198 107.3777,59.6608 C107.7707,59.4058 108.1417,59.1188 108.4927,58.8078 C109.2057,58.1758 109.9287,57.4908 110.5007,56.6978 C111.1527,55.7928 111.7387,54.8028 112.1757,53.7748 C112.4217,53.1958 112.3837,53.8818 112.5677,53.2768 C112.5717,53.2428 112.8207,51.9208 112.8247,51.8868 L112.9067,51.2928 C112.9867,50.7268 113.0327,50.1548 113.0747,49.5848 C113.0717,49.2868 113.0687,48.9898 113.0657,48.6918" id="Fill-13"/>
                    </g>
                    <path d="M123.012,41.4411 L123.012,41.4431 L123.013,41.4431 C123.012,41.4421 123.012,41.4411 123.012,41.4411" id="Fill-16" fill="#2E0BFF"/>
                    <path d="M123.012,41.4431 L123.012,41.4431 C123.012,41.4431 123.013,41.4431 123.013,41.4431 C123.013,41.4431 123.013,41.4431 123.012,41.4431" id="Fill-18" fill="#2E0BFF"/>
                    <path d="M25.6653,149.6657 C25.6753,149.6667 25.6843,149.6677 25.6933,149.6687 C25.7433,149.6777 25.7943,149.6867 25.8453,149.6957 C25.7853,149.6857 25.7263,149.6757 25.6653,149.6657" id="Fill-20" fill="#2E0BFF"/>
                    <path d="M33.4915,93.5749 C33.2235,93.5749 32.9575,93.4689 32.7615,93.2579 C23.2215,83.0449 19.2825,74.6139 21.0525,68.1969 C22.7125,62.1739 28.7565,60.3639 29.0125,60.2899 C29.5445,60.1359 30.0965,60.4429 30.2515,60.9719 C30.4045,61.5019 30.0995,62.0559 29.5705,62.2099 C29.5175,62.2259 24.3245,63.8069 22.9735,68.7489 C21.4395,74.3679 25.3295,82.3709 34.2215,91.8919 C34.5985,92.2959 34.5775,92.9289 34.1745,93.3059 C33.9815,93.4859 33.7365,93.5749 33.4915,93.5749" id="Fill-22" fill="#FFF"/>
                    <path d="M117.5833,50.3088 C117.0803,50.3088 116.6463,49.9308 116.5903,49.4188 C115.1303,36.2568 107.5033,19.6528 95.7503,13.3868 C95.2633,13.1268 95.0783,12.5208 95.3383,12.0338 C95.5993,11.5468 96.2013,11.3608 96.6913,11.6218 C109.0553,18.2138 117.0613,35.5158 118.5783,49.1988 C118.6393,49.7468 118.2433,50.2418 117.6943,50.3028 C117.6573,50.3068 117.6193,50.3088 117.5833,50.3088" id="Fill-24" fill="#FFF"/>
                    <path d="M4.50071171,83.1648526 L4.6174234,83.1697648 C5.16696618,83.22473 5.56790048,83.7147806 5.51293522,84.2643234 L5.48478729,84.6656895 C5.33256915,87.4401359 5.64475896,90.7638945 6.79532829,93.9145931 C8.27789162,97.9744182 10.9149217,100.923191 14.9882658,102.368357 C15.5087629,102.553022 15.7810085,103.124669 15.5963434,103.645166 C15.4116783,104.165663 14.8400313,104.437908 14.3195342,104.253243 C9.63782283,102.592238 6.59078053,99.1849819 4.91667403,94.6006384 C3.65793828,91.1537388 3.32202821,87.5774402 3.4877906,84.5561256 L3.52286478,84.0652766 C3.57390394,83.5549869 4.00009322,83.1728341 4.50071171,83.1648526 Z" id="Stroke-26" fill="#FFF" fill-rule="nonzero"/>
                </g>
            </g>
        </g>
        <g id="Face" transform="translate(753.000000, 466.000000) scale(4 4)">
            <g id="Face/Unisex Happy" stroke="none" stroke-width="1" fill="none" fill-rule="evenodd">
                <g id="Group-17" transform="translate(11.000000, 10.000000)">
                    <path d="M45.7649,8.472 C45.6599,5.95 45.4719,5.445 45.4719,5.445 C43.6849,5.526 42.9649,5.624 41.7229,5.743 C40.1829,5.892 38.8679,6.953 38.4569,8.445 C38.4529,8.461 38.4489,8.477 38.4439,8.494 C38.0039,10.126 38.0178499,11.551 38.0178499,11.551 L45.7529,11.405 C45.7529,11.405 45.8389,10.234 45.7649,8.472" id="Fill-1" fill="#2E0BFF"/>
                    <path d="M29.0745,42.1434 L23.3405,41.1924 C23.0685,41.1474 22.8835,40.8904 22.9285,40.6184 C22.9735,40.3454 23.2295,40.1584 23.5035,40.2064 L28.2455,40.9924 L32.5335,14.1744 C32.5765,13.9024 32.8345,13.7154 33.1065,13.7604 C33.3785,13.8034 33.5645,14.0604 33.5205,14.3324 L29.0745,42.1434 Z" id="Fill-3" fill="#FFF"/>
                    <g id="Group-7" transform="translate(0.000000, 0.687400)" fill="#2E0BFF">
                        <path d="M0.2527,3.829 C-0.0533,3.774 -0.0943,3.35 0.1997,3.246 C2.3717,2.481 7.4667,0.798 11.3617,0.376 C15.0407,-0.023 21.6697,1.557 25.0547,2.46 C26.5497,2.86 27.6727,4.122 27.8327,5.662 C27.8347,5.678 27.8357,5.695 27.8377,5.712 C28.0037,7.393 27.7557,8.797 27.7557,8.797 L0.2527,3.829 Z" id="Fill-5"/>
                    </g>
                    <path d="M23.4549,16.4886 C23.3769,16.3906 21.4899,14.0766 16.9139,12.2546 C11.1149,9.9436 1.0939,11.5236 0.6709,11.5916 C0.3979,11.6356 0.2129,11.8926 0.2569,12.1646 C0.3009,12.4376 0.5559,12.6206 0.8299,12.5786 C0.9139,12.5646 7.9819,11.4526 13.5339,12.3846 C13.5179,12.3896 13.4939,12.4006 13.4909,12.4016 C13.5569,12.4186 10.7339,14.4196 12.3509,17.3586 C13.6629,19.7456 17.9229,19.8836 19.5569,17.2356 C20.0919,16.3676 20.2589,15.4766 20.3089,15.1346 C21.9329,16.2166 22.6629,17.1006 22.6749,17.1146 C22.7729,17.2366 22.9179,17.3006 23.0639,17.3006 C23.1749,17.3006 23.2849,17.2646 23.3769,17.1906 C23.5919,17.0176 23.6269,16.7036 23.4549,16.4886" id="Fill-8" fill="#000"/>
                    <g id="Group-12" transform="translate(37.000000, 14.687400)" fill="#000">
                        <path d="M8.9055,4.0849 C8.8295,6.0029 8.4825,8.1369 8.4825,8.1369 C6.7015,8.0049 4.8765,6.8129 4.4205,4.8819 C4.1865,3.8899 4.3085,2.9909 4.3685,2.6509 C2.4865,3.1659 1.5145,3.7739 1.4995,3.7839 C1.3675,3.8679 1.2095,3.8829 1.0715,3.8369 C0.9665,3.8019 0.8725,3.7329 0.8085,3.6339 C0.6595,3.4019 0.7255,3.0929 0.9565,2.9429 C1.0615,2.8759 3.5825,1.2749 8.4995,0.9889 C8.5885,0.9839 8.6765,0.9799 8.7665,0.9769 C8.7665,0.9769 8.9705,2.4449 8.9055,4.0849" id="Fill-10"/>
                    </g>
                    <path d="M10.429,48.3709 C10.429,48.3709 18.043,53.7319 21.938,54.5299 C25.833,55.3279 28.918,52.8289 28.918,52.8289 L10.429,48.3709 Z" id="Fill-13" fill="#D7D8FF"/>
                    <path d="M10.429,48.3709 C10.429,48.3709 12.7,48.7289 14.265,48.6529 C17.395,48.4999 22.097,48.4959 22.747,48.6529 C23.304,48.7879 27.015,49.6639 27.639,50.5529 C27.958,51.0069 28.097,51.3739 28.261,51.8909 C28.482,52.5829 28.918,52.8289 28.918,52.8289 L10.429,48.3709 Z" id="Fill-15" fill="#7881FC"/>
                </g>
            </g>
        </g>
        <g id="Facial Hair" transform="translate(781.000000, 654.000000) scale(4 4)" fill="#000">
            <g id="Facial Hair/Goatee" stroke="none" stroke-width="1" fill="none" fill-rule="evenodd">
                <g id="Group-3" transform="translate(20.500000, 23.000000) rotate(7.000000) translate(-20.500000, -23.000000) translate(-3.000000, 2.500000)" fill="#7CE8FF">
                    <path d="M38.2474,22.3718 C31.6774,25.2818 28.9554,19.4618 28.9554,19.4618 C28.9554,19.4618 25.2954,19.1808 21.8224,18.8988 C18.5374,23.8728 8.3084,22.2778 8.4954,15.1448 C8.6844,8.0118 16.9424,8.0118 23.0434,7.6368 C28.6364,7.2918 29.2574,4.5098 29.3224,4.0478 C29.2814,4.4228 29.2084,6.3168 31.5034,8.1478 C32.6074,9.0288 34.6924,9.5678 36.1044,9.5568 C41.7694,9.5108 44.8314,19.4558 38.2474,22.3718 M46.2714,12.5168 C46.2014,11.1098 47.1164,4.2108 30.0044,0.7998 C28.7724,0.5538 9.7164,-2.9682 6.0084,7.0268 C5.2154,8.4818 4.4794,9.7388 3.5474,10.4408 C2.4344,13.4028 0.8174,14.9738 0.1134,19.9008 C-0.3516,23.1548 0.7034,26.8478 1.5214,30.0378 C2.5914,34.2078 5.3304,36.5548 6.9784,37.8638 C8.0674,38.7278 9.2344,39.4928 10.5124,40.0398 C12.8084,41.0238 15.0624,41.2808 19.2414,40.6728 C26.9844,39.5468 32.1934,38.7028 35.0094,34.4788 C37.8244,30.2548 41.6254,31.0998 43.7374,23.6388 C45.8494,16.1778 46.3384,13.8508 46.2714,12.5168" id="Fill-1"/>
                </g>
            </g>
        </g>
        <g id="Earrings" transform="translate(541.000000, 566.000000) scale(4 4)">
            <g id="Earrings/Bubble Hoops" stroke="none" stroke-width="1" fill="none" fill-rule="evenodd">
                <g id="Group-33" transform="translate(8.500000, 13.500000)" fill="#FFF" fill-rule="nonzero">
                    <path d="M19.5044,0.0001 C17.9070707,0.0001 16.6124,1.29514457 16.6124,2.8931 C16.6124,4.4911816 17.9071967,5.7871 19.5044,5.7871 C21.1032293,5.7871 22.3984,4.49155554 22.3984,2.8931 C22.3984,1.29477077 21.1033555,0.0001 19.5044,0.0001 Z M19.5044,1.0001 C20.5511353,1.0001 21.3984,1.84712014 21.3984,2.8931 C21.3984,3.93933537 20.55088,4.7871 19.5044,4.7871 C18.4596754,4.7871 17.6124,3.9390906 17.6124,2.8931 C17.6124,1.8473647 18.4594201,1.0001 19.5044,1.0001 Z" id="Stroke-1"/>
                    <path d="M24.4321,0.8448 C22.8346445,0.8448 21.5391,2.13997062 21.5391,3.7378 C21.5391,5.33575539 22.8347707,6.6318 24.4321,6.6318 C26.0309293,6.6318 27.3261,5.33625554 27.3261,3.7378 C27.3261,2.13947077 26.0310555,0.8448 24.4321,0.8448 Z M24.4321,1.8448 C25.4788353,1.8448 26.3261,2.69182014 26.3261,3.7378 C26.3261,4.78403537 25.47858,5.6318 24.4321,5.6318 C23.38712,5.6318 22.5391,4.78353523 22.5391,3.7378 C22.5391,2.69232 23.3868647,1.8448 24.4321,1.8448 Z" id="Stroke-3"/>
                    <path d="M28.937,3.1676 C27.3395445,3.1676 26.044,4.46277062 26.044,6.0606 C26.044,7.65855539 27.3396707,8.9546 28.937,8.9546 C30.5358293,8.9546 31.831,7.65905554 31.831,6.0606 C31.831,4.46227077 30.5359555,3.1676 28.937,3.1676 Z M28.937,4.1676 C29.9837353,4.1676 30.831,5.01462014 30.831,6.0606 C30.831,7.10683537 29.98348,7.9546 28.937,7.9546 C27.89202,7.9546 27.044,7.10633523 27.044,6.0606 C27.044,5.01512 27.8917647,4.1676 28.937,4.1676 Z" id="Stroke-5"/>
                    <path d="M31.9644,6.9689 C30.3662576,6.9689 29.0714,8.26375763 29.0714,9.8619 C29.0714,11.4600424 30.3662576,12.7549 31.9644,12.7549 C33.5625424,12.7549 34.8574,11.4600424 34.8574,9.8619 C34.8574,8.26375763 33.5625424,6.9689 31.9644,6.9689 Z M31.9644,7.9689 C33.0102576,7.9689 33.8574,8.81604237 33.8574,9.8619 C33.8574,10.9077576 33.0102576,11.7549 31.9644,11.7549 C30.9185424,11.7549 30.0714,10.9077576 30.0714,9.8619 C30.0714,8.81604237 30.9185424,7.9689 31.9644,7.9689 Z" id="Stroke-7"/>
                    <path d="M33.8648,11.3321 C32.2667837,11.3321 30.9718,12.6278314 30.9718,14.2261 C30.9718,15.8242424 32.2666576,17.1191 33.8648,17.1191 C35.4629424,17.1191 36.7578,15.8242424 36.7578,14.2261 C36.7578,12.6278314 35.4628163,11.3321 33.8648,11.3321 Z M33.8648,12.3321 C34.9104023,12.3321 35.7578,13.179987 35.7578,14.2261 C35.7578,15.2719576 34.9106576,16.1191 33.8648,16.1191 C32.8189424,16.1191 31.9718,15.2719576 31.9718,14.2261 C31.9718,13.179987 32.8191977,12.3321 33.8648,12.3321 Z" id="Stroke-9"/>
                    <path d="M34.4272,16.3307 C32.8298707,16.3307 31.5352,17.6257446 31.5352,19.2237 C31.5352,20.8216554 32.8298707,22.1167 34.4272,22.1167 C36.0261555,22.1167 37.3212,20.8220292 37.3212,19.2237 C37.3212,17.6253708 36.0261555,16.3307 34.4272,16.3307 Z M34.4272,17.3307 C35.4739353,17.3307 36.3212,18.1777201 36.3212,19.2237 C36.3212,20.2696799 35.4739353,21.1167 34.4272,21.1167 C33.3822201,21.1167 32.5352,20.2694353 32.5352,19.2237 C32.5352,18.1779647 33.3822201,17.3307 34.4272,17.3307 Z" id="Stroke-11"/>
                    <path d="M33.3013,21.1163 C31.7039707,21.1163 30.4083,22.4123446 30.4083,24.0103 C30.4083,25.6081294 31.7038445,26.9033 33.3013,26.9033 C34.8995686,26.9033 36.1953,25.6083163 36.1953,24.0103 C36.1953,22.4121576 34.8994424,21.1163 33.3013,21.1163 Z M33.3013,22.1163 C34.3471576,22.1163 35.1953,22.9644424 35.1953,24.0103 C35.1953,25.0559023 34.347413,25.9033 33.3013,25.9033 C32.2560647,25.9033 31.4083,25.05578 31.4083,24.0103 C31.4083,22.9645648 32.25632,22.1163 33.3013,22.1163 Z" id="Stroke-13"/>
                    <path d="M30.4858,25.3404 C28.8876576,25.3404 27.5928,26.6352576 27.5928,28.2334 C27.5928,29.8316686 28.8877837,31.1274 30.4858,31.1274 C32.0839424,31.1274 33.3798,29.8315424 33.3798,28.2334 C33.3798,26.6353837 32.0840686,25.3404 30.4858,25.3404 Z M30.4858,26.3404 C31.531913,26.3404 32.3798,27.1877977 32.3798,28.2334 C32.3798,29.2792576 31.5316576,30.1274 30.4858,30.1274 C29.4401977,30.1274 28.5928,29.279513 28.5928,28.2334 C28.5928,27.1875424 29.4399424,26.3404 30.4858,26.3404 Z" id="Stroke-15"/>
                    <path d="M26.685,28.7897 C25.0868576,28.7897 23.792,30.0845576 23.792,31.6827 C23.792,33.2809686 25.0869837,34.5767 26.685,34.5767 C28.2830163,34.5767 29.578,33.2809686 29.578,31.6827 C29.578,30.0845576 28.2831424,28.7897 26.685,28.7897 Z M26.685,29.7897 C27.7308576,29.7897 28.578,30.6368424 28.578,31.6827 C28.578,32.728813 27.7306023,33.5767 26.685,33.5767 C25.6393977,33.5767 24.792,32.728813 24.792,31.6827 C24.792,30.6368424 25.6391424,29.7897 26.685,29.7897 Z" id="Stroke-17"/>
                    <path d="M21.7573,30.2677 C20.1601576,30.2677 18.8643,31.5635576 18.8643,33.1607 C18.8643,34.7586554 20.1599707,36.0547 21.7573,36.0547 C23.3554424,36.0547 24.6513,34.7588424 24.6513,33.1607 C24.6513,31.5633707 23.3552554,30.2677 21.7573,30.2677 Z M21.7573,31.2677 C22.8030352,31.2677 23.6513,32.11572 23.6513,33.1607 C23.6513,34.2065576 22.8031576,35.0547 21.7573,35.0547 C20.71232,35.0547 19.8643,34.2064352 19.8643,33.1607 C19.8643,32.1158424 20.7124424,31.2677 21.7573,31.2677 Z" id="Stroke-19"/>
                    <path d="M16.6186,30.8302 C15.0213967,30.8302 13.7266,32.1261184 13.7266,33.7242 C13.7266,35.3221554 15.0212707,36.6172 16.6186,36.6172 C18.2175555,36.6172 19.5126,35.3225292 19.5126,33.7242 C19.5126,32.1257445 18.2174293,30.8302 16.6186,30.8302 Z M16.6186,31.8302 C17.66508,31.8302 18.5126,32.6779646 18.5126,33.7242 C18.5126,34.7701799 17.6653353,35.6172 16.6186,35.6172 C15.5736201,35.6172 14.7266,34.7699353 14.7266,33.7242 C14.7266,32.6782094 15.5738754,31.8302 16.6186,31.8302 Z" id="Stroke-21"/>
                    <path d="M11.9731,29.2823 C10.3756445,29.2823 9.0801,30.5774706 9.0801,32.1753 C9.0801,33.7732554 10.3757707,35.0693 11.9731,35.0693 C13.5712424,35.0693 14.8671,33.7734424 14.8671,32.1753 C14.8671,30.5772837 13.5713686,29.2823 11.9731,29.2823 Z M11.9731,30.2823 C13.019213,30.2823 13.8671,31.1296977 13.8671,32.1753 C13.8671,33.2211576 13.0189576,34.0693 11.9731,34.0693 C10.92812,34.0693 10.0801,33.2210352 10.0801,32.1753 C10.0801,31.12982 10.9278647,30.2823 11.9731,30.2823 Z" id="Stroke-23"/>
                    <path d="M7.7495,26.5372 C6.15217071,26.5372 4.8575,27.8322446 4.8575,29.4302 C4.8575,31.0281554 6.15217071,32.3232 7.7495,32.3232 C9.34845548,32.3232 10.6435,31.0285292 10.6435,29.4302 C10.6435,27.8318708 9.34845548,26.5372 7.7495,26.5372 Z M7.7495,27.5372 C8.79623534,27.5372 9.6435,28.3842201 9.6435,29.4302 C9.6435,30.4761799 8.79623534,31.3232 7.7495,31.3232 C6.70452011,31.3232 5.8575,30.4759353 5.8575,29.4302 C5.8575,28.3844647 6.70452011,27.5372 7.7495,27.5372 Z" id="Stroke-25"/>
                    <path d="M4.7934,22.6656 C3.19525763,22.6656 1.9004,23.9604576 1.9004,25.5586 C1.9004,27.1568686 3.19538371,28.4526 4.7934,28.4526 C6.39154237,28.4526 7.6874,27.1567424 7.6874,25.5586 C7.6874,23.9605837 6.39166861,22.6656 4.7934,22.6656 Z M4.7934,23.6656 C5.83951303,23.6656 6.6874,24.5129977 6.6874,25.5586 C6.6874,26.6044576 5.83925763,27.4526 4.7934,27.4526 C3.74779771,27.4526 2.9004,26.604713 2.9004,25.5586 C2.9004,24.5127424 3.74754237,23.6656 4.7934,23.6656 Z" id="Stroke-27"/>
                    <path d="M3.3149,17.8785 C1.71769672,17.8785 0.4229,19.1744184 0.4229,20.7725 C0.4229,22.3704554 1.71757071,23.6655 3.3149,23.6655 C4.91385548,23.6655 6.2089,22.3708292 6.2089,20.7725 C6.2089,19.1740445 4.91372932,17.8785 3.3149,17.8785 Z M3.3149,18.8785 C4.36137997,18.8785 5.2089,19.7262646 5.2089,20.7725 C5.2089,21.8184799 4.36163534,22.6655 3.3149,22.6655 C2.26992011,22.6655 1.4229,21.8182353 1.4229,20.7725 C1.4229,19.7265094 2.27017541,18.8785 3.3149,18.8785 Z" id="Stroke-29"/>
                    <path d="M2.8931,12.7408 C1.29495763,12.7408 0.0001,14.0356576 0.0001,15.6338 C0.0001,17.2319424 1.29495763,18.5268 2.8931,18.5268 C4.49124237,18.5268 5.7861,17.2319424 5.7861,15.6338 C5.7861,14.0356576 4.49124237,12.7408 2.8931,12.7408 Z M2.8931,13.7408 C3.93895763,13.7408 4.7861,14.5879424 4.7861,15.6338 C4.7861,16.6796576 3.93895763,17.5268 2.8931,17.5268 C1.84724237,17.5268 1.0001,16.6796576 1.0001,15.6338 C1.0001,14.5879424 1.84724237,13.7408 2.8931,13.7408 Z" id="Stroke-31"/>
                </g>
            </g>
        </g>
    </g>
</svg>
