<svg viewBox="90.975 105.963 1046.212 1044.487" xmlns="http://www.w3.org/2000/svg" overflow="visible">
    <g id="Master/Character/Avatar" stroke="none" stroke-width="1" fill="none" fill-rule="evenodd">
        <g id="Backdrop" opacity=".75" transform="translate(57.000000, 66.000000) scale(4 4)">
            <g id="Backdrop/Pattern 6" stroke="none" stroke-width="1" fill="none" fill-rule="evenodd">
                <g id="Group-34" transform="translate(10.000000, 11.000000)">
                    <path d="M117.128593,126.716147 L14.7245739,11.3730421 C12.2245521,8.55833851 12.4726848,4.24154933 15.2735249,1.73238361 C18.0743651,-0.776782114 22.372499,-0.532693204 24.8708213,2.28542421 L127.27484,117.628529 C129.774862,120.441526 129.528429,124.760022 126.725889,127.267481 C125.429141,128.428183 123.812879,129 122.203416,129 C120.332223,129 118.471228,128.230181 117.128593,126.716147 Z" id="Fill-3-Copy" fill="#CDF267"/>
                    <path d="M70.1188303,259 L5.63099123,247.565965 C1.92311623,246.91008 -0.549791481,243.365867 0.105130728,239.650166 C0.763165787,235.933075 4.29531594,233.455297 8.00249798,234.109622 L63.4303323,243.939357 L95.6707797,192.155168 L155.62827,202.786273 L187.873387,151 L252.369871,162.428306 C256.076883,163.086447 258.54979,166.630659 257.894868,170.34636 C257.23856,174.058941 253.707796,176.53984 249.996808,175.885344 L194.561885,166.060643 L162.316768,217.846916 L102.359278,207.215811 L70.1188303,259 Z" id="Fill-12-Copy" fill="#FA0"/>
                </g>
            </g>
        </g>
        <g id="Head" transform="translate(-19.000000, 170.000000) scale(4 4)">
            <g id="Head/Bad Bunny" stroke="none" stroke-width="1" fill="none" fill-rule="evenodd">
                <g id="Group-19" transform="translate(132.261963, 26.813721)">
                    <g id="Group-3" transform="translate(0.000000, 1.010000)" fill="#f6d2ab">
                        <path d="M42.2806,164.7008 C53.4496,169.3928 84.0456,167.7038 84.0456,167.7038 C84.0456,167.7038 79.5406,146.7278 79.1176,131.1948 C79.0606,129.0808 80.7616,127.0458 82.8756,126.9558 C84.7586,126.8758 89.5356,126.8778 91.6616,126.3298 C124.4206,117.8778 119.8036,58.0838 111.5446,34.6198 C105.9266,18.6618 93.6676,8.1618 83.3886,4.5868 C62.3226,-2.7402 48.4746,1.5838 35.3356,8.9048 C33.7836,9.7688 11.2626,24.9528 10.4176,54.7988 C9.8626,74.4188 22.3686,93.0518 22.3846,93.0908 C23.1816,95.2028 17.7386,102.8048 11.5436,113.7858 C8.5476,119.0968 3.6136,126.8308 -0.0004,133.4948 C-0.0004,133.4948 19.9436,158.6938 42.2806,164.7008" id="SKIN"/>
                    </g>
                    <path d="M32.4633,72.9207 C34.4843,76.4227 34.6503,80.1117 32.8323,81.1607 C31.0143,82.2107 27.9013,80.2237 25.8803,76.7227 C23.8583,73.2207 23.6933,69.5307 25.5113,68.4827 C27.3293,67.4327 30.4423,69.4197 32.4633,72.9207" id="Fill-4" fill="#CDF267"/>
                    <path d="M78.5194,131.4774 C78.4994,131.4614 78.4764,131.4504 78.4574,131.4384 C78.4294,131.4224 78.4064,131.4074 78.3824,131.3954 C78.4374,131.3324 78.4804,131.2584 78.5114,131.1724 C78.5164,131.1604 78.5134,131.1464 78.5164,131.1324 C78.5394,131.1374 78.5634,131.1414 78.5874,131.1464 C78.5524,131.2524 78.5244,131.3604 78.5194,131.4774" id="Fill-6" fill="#ebbc88"/>
                    <path d="M77.9276,131.5018 C77.9276,131.5078 77.9276,131.5138 77.9286,131.5188 L77.9276,131.5188 C77.9276,131.5128 77.9276,131.5078 77.9276,131.5018" id="Fill-8" fill="#45B248"/>
                    <path d="M79.7606,130.5311 C80.4046,129.3121 81.8726,128.4551 81.8726,128.4551 C81.8726,128.4551 72.2836,125.9981 63.7786,120.6071 C63.4816,120.4191 63.1576,120.8081 63.3986,121.0651 C70.9836,129.1341 79.1976,133.5231 79.1976,133.5231 C79.1976,133.5231 79.0686,131.8431 79.7606,130.5311" id="Fill-10" fill="#ebbc88"/>
                    <path d="M28.0594,93.0184 C27.7894,93.0184 27.5204,92.9104 27.3244,92.6954 C27.1214,92.4744 22.3184,87.2304 19.6354,82.0324 C17.4514,77.8004 16.6654,73.3404 17.3664,69.1354 C17.9254,65.7734 19.3134,63.3334 21.4904,61.8834 C24.6404,59.7874 28.2514,60.6024 28.4034,60.6374 C28.9414,60.7644 29.2744,61.3024 29.1484,61.8404 C29.0224,62.3774 28.4864,62.7084 27.9494,62.5854 C27.9184,62.5794 24.9974,61.9394 22.5814,63.5604 C20.8934,64.6934 19.8024,66.6784 19.3384,69.4634 C18.7094,73.2414 19.4274,77.2694 21.4134,81.1154 C23.9694,86.0704 28.7464,91.2894 28.7954,91.3404 C29.1684,91.7474 29.1424,92.3794 28.7364,92.7534 C28.5444,92.9304 28.3014,93.0184 28.0594,93.0184" id="Fill-12" fill="#FFF"/>
                    <g id="Group-16" transform="translate(15.000000, 0.010000)" fill="#CEF367">
                        <path d="M0.6879,32.5518 L64.0799,34.2638 L23.7539,18.4878 C23.7539,18.4878 66.6549,29.3578 76.7099,35.1318 C86.9649,26.8288 90.1639,21.6788 90.1639,21.6788 L84.9209,33.9948 L95.8549,33.8658 C95.8549,33.8658 84.8749,-0.1092 46.8639,1.0168 C22.8609,1.7288 8.8019,16.3348 0.6879,32.5518" id="Fill-14"/>
                    </g>
                    <path d="M20.0364419,31.5622881 L68.0894419,33.0642881 C68.641457,33.0815426 69.0749663,33.5430267 69.0582096,34.0950419 C69.0416899,34.6076274 68.6426331,35.0180318 68.1437325,35.0602309 L68.0269581,35.0633119 L19.9739581,33.5613119 C19.421943,33.5440574 18.9884337,33.0825733 19.0051904,32.5305581 C19.0217101,32.0179726 19.4207669,31.6075682 19.9196675,31.5653691 L20.0364419,31.5622881 Z" id="Stroke-17" fill="#FFF" fill-rule="nonzero"/>
                </g>
            </g>
        </g>
        <g id="Face" transform="translate(753.000000, 466.000000) scale(4 4)">
            <g id="Face/Unisex Calm" stroke="none" stroke-width="1" fill="none" fill-rule="evenodd">
                <g id="Group-16" transform="translate(10.501221, 11.500000)">
                    <path d="M45.7649,8.4716 C45.6599,5.9496 45.4719,5.4446 45.4719,5.4446 C43.6849,5.5266 42.9649,5.6236 41.7229,5.7436 C40.1829,5.8916 38.8679,6.9526 38.4569,8.4456 L38.4439,8.4936 C38.0039,10.1256 38.0178499,11.5506 38.0178499,11.5506 L45.7529,11.4046 C45.7529,11.4046 45.8389,10.2346 45.7649,8.4716" id="Fill-1" fill="#2E0BFF"/>
                    <path d="M29.0744,42.1435 L23.3404,41.1925 C23.0684,41.1475 22.8834,40.8905 22.9284,40.6185 C22.9734,40.3455 23.2294,40.1585 23.5034,40.2065 L28.2454,40.9925 L32.5334,14.1745 C32.5764,13.9025 32.8344,13.7155 33.1064,13.7605 C33.3784,13.8035 33.5644,14.0595 33.5204,14.3325 L29.0744,42.1435 Z" id="Fill-3" fill="#FFF"/>
                    <g id="Group-7" transform="translate(0.000000, 0.687400)" fill="#2E0BFF">
                        <path d="M0.2527,3.8292 C-0.0533,3.7742 -0.0943,3.3502 0.1997,3.2462 C2.3717,2.4812 7.4667,0.7972 11.3617,0.3762 C15.0407,-0.0228 21.6697,1.5562 25.0547,2.4602 C26.5497,2.8592 27.6727,4.1222 27.8327,5.6622 C27.8347,5.6782 27.8357,5.6952 27.8377,5.7112 C28.0037,7.3932 27.7557,8.7972 27.7557,8.7972 L0.2527,3.8292 Z" id="Fill-5"/>
                    </g>
                    <path d="M17.7473,18.851 C20.1823,18.815 22.4443,18.092 22.4443,18.092 C22.5873,18.027 22.7453,18.035 22.8753,18.1 C22.9753,18.149 23.0573,18.23 23.1063,18.338 C23.2223,18.589 23.1133,18.885 22.8633,19.001 C22.7493,19.053 20.0273,20.281 15.1193,19.869 C8.8993,19.347 0.6383,13.459 0.2893,13.209 C0.0653,13.048 0.0143,12.736 0.1753,12.512 C0.3353,12.288 0.6463,12.238 0.8723,12.397 C0.9383,12.445 6.2703,16.243 11.4443,18.014 C11.9823,18.198 12.5323,18.327 13.0933,18.426 C14.1653,18.614 15.9983,18.877 17.7473,18.851" id="Fill-8" fill="#000"/>
                    <path d="M41.3513,20.144 C39.4803,19.631 38.5143,19.027 38.4993,19.017 C38.3673,18.933 38.2093,18.917 38.0713,18.964 C37.9663,18.998 37.8723,19.068 37.8093,19.167 C37.6593,19.399 37.7253,19.707 37.9563,19.857 C38.0613,19.925 40.6423,21.527 45.5593,21.813 C45.6473,21.818 45.4693,21.81 45.5593,21.813 C45.5593,21.813 45.5853,21.485 45.6113,20.777 C45.3543,20.801 41.8213,20.383 41.3513,20.144" id="Fill-10" fill="#000"/>
                    <path d="M10.4289,48.3711 C10.4289,48.3711 18.0429,53.7321 21.9379,54.5301 C25.8329,55.3281 28.9179,52.8291 28.9179,52.8291 L10.4289,48.3711 Z" id="Fill-12" fill="#D7D8FF"/>
                    <path d="M10.4289,48.3711 C10.4289,48.3711 12.6999,48.7291 14.2649,48.6531 C17.3949,48.5001 22.0969,48.4961 22.7469,48.6531 C23.3039,48.7881 27.0149,49.6641 27.6389,50.5531 C27.9579,51.0071 28.0969,51.3741 28.2609,51.8911 C28.4819,52.5831 28.9179,52.8291 28.9179,52.8291 L10.4289,48.3711 Z" id="Fill-14" fill="#7881FC"/>
                </g>
            </g>
        </g>
        <g id="Facial Hair" transform="translate(781.000000, 654.000000) scale(4 4)" fill="#000">
            <g id="Facial Hair/Full Beard" stroke="none" stroke-width="1" fill="none" fill-rule="evenodd">
                <g id="Group-3" transform="translate(10.000000, 19.000000) rotate(10.000000) translate(-10.000000, -19.000000) translate(-24.500000, -4.000000)" fill="#CEF367">
                    <path d="M60.1892,26.8433 C53.6192,29.7533 50.8972,23.9333 50.8972,23.9333 C50.8972,23.9333 47.2372,23.6523 43.7642,23.3703 C40.4802,28.3443 30.2502,26.7493 30.4372,19.6163 C30.6252,12.4833 38.8842,12.4843 44.9842,12.1083 C51.0852,11.7333 51.2722,8.4483 51.2722,8.4483 C51.2722,8.4483 50.8672,10.6693 53.6152,12.7513 C54.6872,13.5643 56.7022,14.0383 58.0482,14.0283 C63.7122,13.9853 66.7722,23.9273 60.1892,26.8433 M68.2132,16.9893 C68.1432,15.5803 69.0582,8.6823 51.9462,5.2713 C50.7142,5.0253 31.6572,1.5033 27.9502,11.4983 C26.2612,14.5953 24.8532,16.8473 21.1932,14.5953 C18.4742,12.9223 12.8882,7.2113 9.6742,1.7863 C9.0222,0.6883 7.8592,0.0003 6.5822,0.0003 L3.7312,0.0003 C1.3702,0.0003 -0.3988,2.1703 0.0782,4.4823 C0.8542,8.2413 1.5552,11.2203 2.0462,12.4833 C4.0182,17.5513 5.4252,21.7753 10.3532,26.5613 C15.2802,31.3483 11.4792,31.2073 16.8292,34.0233 C22.1782,36.8393 18.2362,36.5573 25.2752,40.4993 C32.3142,44.4403 33.4402,46.2703 41.1842,45.1443 C48.9262,44.0183 54.1352,43.1743 56.9512,38.9503 C59.7662,34.7263 63.5672,35.5713 65.6792,28.1103 C67.7912,20.6493 68.2802,18.3223 68.2132,16.9893" id="Fill-1"/>
                </g>
            </g>
        </g>
        <g id="Earrings" transform="translate(541.000000, 566.000000) scale(4 4)">
            <g id="Earrings/Bubble Hoops" stroke="none" stroke-width="1" fill="none" fill-rule="evenodd">
                <g id="Group-33" transform="translate(8.500000, 13.500000)" fill="#FFF" fill-rule="nonzero">
                    <path d="M19.5044,0.0001 C17.9070707,0.0001 16.6124,1.29514457 16.6124,2.8931 C16.6124,4.4911816 17.9071967,5.7871 19.5044,5.7871 C21.1032293,5.7871 22.3984,4.49155554 22.3984,2.8931 C22.3984,1.29477077 21.1033555,0.0001 19.5044,0.0001 Z M19.5044,1.0001 C20.5511353,1.0001 21.3984,1.84712014 21.3984,2.8931 C21.3984,3.93933537 20.55088,4.7871 19.5044,4.7871 C18.4596754,4.7871 17.6124,3.9390906 17.6124,2.8931 C17.6124,1.8473647 18.4594201,1.0001 19.5044,1.0001 Z" id="Stroke-1"/>
                    <path d="M24.4321,0.8448 C22.8346445,0.8448 21.5391,2.13997062 21.5391,3.7378 C21.5391,5.33575539 22.8347707,6.6318 24.4321,6.6318 C26.0309293,6.6318 27.3261,5.33625554 27.3261,3.7378 C27.3261,2.13947077 26.0310555,0.8448 24.4321,0.8448 Z M24.4321,1.8448 C25.4788353,1.8448 26.3261,2.69182014 26.3261,3.7378 C26.3261,4.78403537 25.47858,5.6318 24.4321,5.6318 C23.38712,5.6318 22.5391,4.78353523 22.5391,3.7378 C22.5391,2.69232 23.3868647,1.8448 24.4321,1.8448 Z" id="Stroke-3"/>
                    <path d="M28.937,3.1676 C27.3395445,3.1676 26.044,4.46277062 26.044,6.0606 C26.044,7.65855539 27.3396707,8.9546 28.937,8.9546 C30.5358293,8.9546 31.831,7.65905554 31.831,6.0606 C31.831,4.46227077 30.5359555,3.1676 28.937,3.1676 Z M28.937,4.1676 C29.9837353,4.1676 30.831,5.01462014 30.831,6.0606 C30.831,7.10683537 29.98348,7.9546 28.937,7.9546 C27.89202,7.9546 27.044,7.10633523 27.044,6.0606 C27.044,5.01512 27.8917647,4.1676 28.937,4.1676 Z" id="Stroke-5"/>
                    <path d="M31.9644,6.9689 C30.3662576,6.9689 29.0714,8.26375763 29.0714,9.8619 C29.0714,11.4600424 30.3662576,12.7549 31.9644,12.7549 C33.5625424,12.7549 34.8574,11.4600424 34.8574,9.8619 C34.8574,8.26375763 33.5625424,6.9689 31.9644,6.9689 Z M31.9644,7.9689 C33.0102576,7.9689 33.8574,8.81604237 33.8574,9.8619 C33.8574,10.9077576 33.0102576,11.7549 31.9644,11.7549 C30.9185424,11.7549 30.0714,10.9077576 30.0714,9.8619 C30.0714,8.81604237 30.9185424,7.9689 31.9644,7.9689 Z" id="Stroke-7"/>
                    <path d="M33.8648,11.3321 C32.2667837,11.3321 30.9718,12.6278314 30.9718,14.2261 C30.9718,15.8242424 32.2666576,17.1191 33.8648,17.1191 C35.4629424,17.1191 36.7578,15.8242424 36.7578,14.2261 C36.7578,12.6278314 35.4628163,11.3321 33.8648,11.3321 Z M33.8648,12.3321 C34.9104023,12.3321 35.7578,13.179987 35.7578,14.2261 C35.7578,15.2719576 34.9106576,16.1191 33.8648,16.1191 C32.8189424,16.1191 31.9718,15.2719576 31.9718,14.2261 C31.9718,13.179987 32.8191977,12.3321 33.8648,12.3321 Z" id="Stroke-9"/>
                    <path d="M34.4272,16.3307 C32.8298707,16.3307 31.5352,17.6257446 31.5352,19.2237 C31.5352,20.8216554 32.8298707,22.1167 34.4272,22.1167 C36.0261555,22.1167 37.3212,20.8220292 37.3212,19.2237 C37.3212,17.6253708 36.0261555,16.3307 34.4272,16.3307 Z M34.4272,17.3307 C35.4739353,17.3307 36.3212,18.1777201 36.3212,19.2237 C36.3212,20.2696799 35.4739353,21.1167 34.4272,21.1167 C33.3822201,21.1167 32.5352,20.2694353 32.5352,19.2237 C32.5352,18.1779647 33.3822201,17.3307 34.4272,17.3307 Z" id="Stroke-11"/>
                    <path d="M33.3013,21.1163 C31.7039707,21.1163 30.4083,22.4123446 30.4083,24.0103 C30.4083,25.6081294 31.7038445,26.9033 33.3013,26.9033 C34.8995686,26.9033 36.1953,25.6083163 36.1953,24.0103 C36.1953,22.4121576 34.8994424,21.1163 33.3013,21.1163 Z M33.3013,22.1163 C34.3471576,22.1163 35.1953,22.9644424 35.1953,24.0103 C35.1953,25.0559023 34.347413,25.9033 33.3013,25.9033 C32.2560647,25.9033 31.4083,25.05578 31.4083,24.0103 C31.4083,22.9645648 32.25632,22.1163 33.3013,22.1163 Z" id="Stroke-13"/>
                    <path d="M30.4858,25.3404 C28.8876576,25.3404 27.5928,26.6352576 27.5928,28.2334 C27.5928,29.8316686 28.8877837,31.1274 30.4858,31.1274 C32.0839424,31.1274 33.3798,29.8315424 33.3798,28.2334 C33.3798,26.6353837 32.0840686,25.3404 30.4858,25.3404 Z M30.4858,26.3404 C31.531913,26.3404 32.3798,27.1877977 32.3798,28.2334 C32.3798,29.2792576 31.5316576,30.1274 30.4858,30.1274 C29.4401977,30.1274 28.5928,29.279513 28.5928,28.2334 C28.5928,27.1875424 29.4399424,26.3404 30.4858,26.3404 Z" id="Stroke-15"/>
                    <path d="M26.685,28.7897 C25.0868576,28.7897 23.792,30.0845576 23.792,31.6827 C23.792,33.2809686 25.0869837,34.5767 26.685,34.5767 C28.2830163,34.5767 29.578,33.2809686 29.578,31.6827 C29.578,30.0845576 28.2831424,28.7897 26.685,28.7897 Z M26.685,29.7897 C27.7308576,29.7897 28.578,30.6368424 28.578,31.6827 C28.578,32.728813 27.7306023,33.5767 26.685,33.5767 C25.6393977,33.5767 24.792,32.728813 24.792,31.6827 C24.792,30.6368424 25.6391424,29.7897 26.685,29.7897 Z" id="Stroke-17"/>
                    <path d="M21.7573,30.2677 C20.1601576,30.2677 18.8643,31.5635576 18.8643,33.1607 C18.8643,34.7586554 20.1599707,36.0547 21.7573,36.0547 C23.3554424,36.0547 24.6513,34.7588424 24.6513,33.1607 C24.6513,31.5633707 23.3552554,30.2677 21.7573,30.2677 Z M21.7573,31.2677 C22.8030352,31.2677 23.6513,32.11572 23.6513,33.1607 C23.6513,34.2065576 22.8031576,35.0547 21.7573,35.0547 C20.71232,35.0547 19.8643,34.2064352 19.8643,33.1607 C19.8643,32.1158424 20.7124424,31.2677 21.7573,31.2677 Z" id="Stroke-19"/>
                    <path d="M16.6186,30.8302 C15.0213967,30.8302 13.7266,32.1261184 13.7266,33.7242 C13.7266,35.3221554 15.0212707,36.6172 16.6186,36.6172 C18.2175555,36.6172 19.5126,35.3225292 19.5126,33.7242 C19.5126,32.1257445 18.2174293,30.8302 16.6186,30.8302 Z M16.6186,31.8302 C17.66508,31.8302 18.5126,32.6779646 18.5126,33.7242 C18.5126,34.7701799 17.6653353,35.6172 16.6186,35.6172 C15.5736201,35.6172 14.7266,34.7699353 14.7266,33.7242 C14.7266,32.6782094 15.5738754,31.8302 16.6186,31.8302 Z" id="Stroke-21"/>
                    <path d="M11.9731,29.2823 C10.3756445,29.2823 9.0801,30.5774706 9.0801,32.1753 C9.0801,33.7732554 10.3757707,35.0693 11.9731,35.0693 C13.5712424,35.0693 14.8671,33.7734424 14.8671,32.1753 C14.8671,30.5772837 13.5713686,29.2823 11.9731,29.2823 Z M11.9731,30.2823 C13.019213,30.2823 13.8671,31.1296977 13.8671,32.1753 C13.8671,33.2211576 13.0189576,34.0693 11.9731,34.0693 C10.92812,34.0693 10.0801,33.2210352 10.0801,32.1753 C10.0801,31.12982 10.9278647,30.2823 11.9731,30.2823 Z" id="Stroke-23"/>
                    <path d="M7.7495,26.5372 C6.15217071,26.5372 4.8575,27.8322446 4.8575,29.4302 C4.8575,31.0281554 6.15217071,32.3232 7.7495,32.3232 C9.34845548,32.3232 10.6435,31.0285292 10.6435,29.4302 C10.6435,27.8318708 9.34845548,26.5372 7.7495,26.5372 Z M7.7495,27.5372 C8.79623534,27.5372 9.6435,28.3842201 9.6435,29.4302 C9.6435,30.4761799 8.79623534,31.3232 7.7495,31.3232 C6.70452011,31.3232 5.8575,30.4759353 5.8575,29.4302 C5.8575,28.3844647 6.70452011,27.5372 7.7495,27.5372 Z" id="Stroke-25"/>
                    <path d="M4.7934,22.6656 C3.19525763,22.6656 1.9004,23.9604576 1.9004,25.5586 C1.9004,27.1568686 3.19538371,28.4526 4.7934,28.4526 C6.39154237,28.4526 7.6874,27.1567424 7.6874,25.5586 C7.6874,23.9605837 6.39166861,22.6656 4.7934,22.6656 Z M4.7934,23.6656 C5.83951303,23.6656 6.6874,24.5129977 6.6874,25.5586 C6.6874,26.6044576 5.83925763,27.4526 4.7934,27.4526 C3.74779771,27.4526 2.9004,26.604713 2.9004,25.5586 C2.9004,24.5127424 3.74754237,23.6656 4.7934,23.6656 Z" id="Stroke-27"/>
                    <path d="M3.3149,17.8785 C1.71769672,17.8785 0.4229,19.1744184 0.4229,20.7725 C0.4229,22.3704554 1.71757071,23.6655 3.3149,23.6655 C4.91385548,23.6655 6.2089,22.3708292 6.2089,20.7725 C6.2089,19.1740445 4.91372932,17.8785 3.3149,17.8785 Z M3.3149,18.8785 C4.36137997,18.8785 5.2089,19.7262646 5.2089,20.7725 C5.2089,21.8184799 4.36163534,22.6655 3.3149,22.6655 C2.26992011,22.6655 1.4229,21.8182353 1.4229,20.7725 C1.4229,19.7265094 2.27017541,18.8785 3.3149,18.8785 Z" id="Stroke-29"/>
                    <path d="M2.8931,12.7408 C1.29495763,12.7408 0.0001,14.0356576 0.0001,15.6338 C0.0001,17.2319424 1.29495763,18.5268 2.8931,18.5268 C4.49124237,18.5268 5.7861,17.2319424 5.7861,15.6338 C5.7861,14.0356576 4.49124237,12.7408 2.8931,12.7408 Z M2.8931,13.7408 C3.93895763,13.7408 4.7861,14.5879424 4.7861,15.6338 C4.7861,16.6796576 3.93895763,17.5268 2.8931,17.5268 C1.84724237,17.5268 1.0001,16.6796576 1.0001,15.6338 C1.0001,14.5879424 1.84724237,13.7408 2.8931,13.7408 Z" id="Stroke-31"/>
                </g>
            </g>
        </g>
    </g>
</svg>
