<svg viewBox="439.713 90.825 379.063 1135.313" xmlns="http://www.w3.org/2000/svg" xmlns:xlink="http://www.w3.org/1999/xlink" overflow="visible">
    <defs>
        <polygon id="mastercharacterfull-body-path-1" points="0.1156 0.710158292 153.6826 0.710158292 153.6826 44.6457311 0.1156 44.6457311"/>
        <polygon id="mastercharacterfull-body-path-3" points="0 0.217405299 313.929419 0.217405299 313.929419 820.029204 0 820.029204"/>
        <polygon id="mastercharacterfull-body-path-5" points="0.0809 0.710158292 153.6479 0.710158292 153.6479 44.6457311 0.0809 44.6457311"/>
    </defs>
    <g id="Master/Character/Full Body" stroke="none" stroke-width="1" fill="none" fill-rule="evenodd">
        <g id="Body" transform="translate(236.000000, -24.000000) scale(1 1)">
            <defs>
                <polygon id="bodyboilersuit-path-1" points="0.1156 0.710158292 153.6826 0.710158292 153.6826 44.6457311 0.1156 44.6457311"/>
                <polygon id="bodyboilersuit-path-3" points="0 0.217405299 313.929419 0.217405299 313.929419 820.029204 0 820.029204"/>
                <polygon id="bodyboilersuit-path-5" points="0.0809 0.710158292 153.6479 0.710158292 153.6479 44.6457311 0.0809 44.6457311"/>
            </defs>
            <g id="Body/Boilersuit" stroke="none" stroke-width="1" fill="none" fill-rule="evenodd">
                <g id="Group-104" transform="translate(209.000000, 252.000000)">
                    <polygon id="Fill-1" fill="#f8648e" points="14.1737 771.050799 24.2497 867.424433 89.0687 872.160763 104.2727 747.549675"/>
                    <g id="Group-103" transform="translate(0.000000, 0.757036)">
                        <g id="Group-4" transform="translate(18.000000, 943.383710)">
                            <mask id="bodyboilersuit-mask-2" fill="#fff">
                                <use xlink:href="#bodyboilersuit-path-1"/>
                            </mask>
                            <g id="Clip-3"/>
                            <path d="M151.9936,14.1456117 L153.6826,38.3300101 C153.6826,38.3300101 115.9886,52.5409404 80.7746,38.3300101 C47.7276,35.05049 46.1026,38.0572829 28.4956,37.7835852 C10.8896,37.5098874 0.1156,33.5024478 0.1156,33.5024478 L1.8046,0.710158292 L142.5346,11.0029404 L151.9936,14.1456117 Z" id="Fill-2" fill="#CEF367" mask="url(#bodyboilersuit-mask-2)"/>
                        </g>
                        <path d="M79.8002,866.302369 C79.8002,866.302369 39.6412,875.776 24.2492,866.6673 C23.1232,873.95426 27.2522,899.459589 26.8772,907.839399 C26.5022,916.220179 28.7442,937.717099 28.7442,945.005029 C29.1192,949.741359 29.8702,952.655948 48.6412,954.113729 C67.4112,955.571509 86.9332,957.029289 98.9462,961.400688 C110.9602,965.773058 161.8282,963.222428 168.5852,960.671798 C171.4012,949.741359 166.8962,948.101113 164.2682,944.640099 C162.2232,941.946796 146.0732,936.525252 132.5662,932.800245 C120.9542,929.597399 111.3122,921.724221 106.0712,911.170359 C99.9792,898.9054 92.8922,882.904758 92.0122,873.302044 L91.4382,867.03126 C91.4382,867.03126 89.1862,864.84556 79.8002,866.302369" id="Fill-5" fill="#15098C"/>
                        <path d="M110.5844,917.76861 C110.5844,917.76861 94.5354,909.980841 84.2584,883.200196 C79.6694,871.242905 79.8004,866.302758 79.8004,866.302758 C79.8004,866.302758 55.7494,867.789655 46.6704,867.48684 C39.3224,867.241289 23.0294,865.847565 23.0294,865.847565 C23.0294,865.847565 24.6204,903.997343 23.7464,909.935225 C22.6104,917.650201 19.9814,930.205357 19.0934,941.059123 C18.3964,949.559282 28.7334,952.102147 33.8824,953.931652 C45.6494,958.11088 64.7464,955.589367 70.6034,956.026119 C77.3524,956.53081 90.9224,958.54472 101.4944,961.960119 C103.4284,962.58613 105.4204,963.006382 107.4494,963.191759 C114.0334,963.793505 163.3764,965.454133 168.5854,960.672187 C173.3584,956.290111 169.3864,945.966271 158.7994,940.685457 C156.8644,939.720721 154.6064,938.813248 151.9734,937.990214 C127.4784,930.339295 110.5844,917.76861 110.5844,917.76861" id="Fill-7" fill="#00F"/>
                        <polygon id="Fill-9" fill="#f8648e" points="133.8129 930.97637 124.1929 949.922659 116.4029 946.097685 125.9759 927.151395"/>
                        <polygon id="Fill-11" fill="#f8648e" points="118.9843 923.324674 109.3643 942.635894 101.5743 938.445989 111.7103 918.588344"/>
                        <polygon id="Fill-13" fill="#f8648e" points="106.4545 911.847615 94.6995 934.802315 86.2525 930.634733 101.8085 902.419601"/>
                        <polygon id="Fill-15" fill="#f8648e" points="97.8202 893.538692 78.9552 927.606296 69.8522 922.960229 93.9722 882.334554"/>
                        <path d="M36.9914364,953.801284 C37.1637803,953.276578 37.7288506,952.990933 38.2535563,953.163277 C41.7162427,954.300625 46.1683353,954.880729 50.4808768,954.710696 C68.6401079,953.990604 85.5534974,955.954528 101.791517,961.005441 C102.318879,961.169479 102.61341,961.729969 102.449372,962.25733 C102.285334,962.784692 101.724844,963.079223 101.197483,962.915185 C85.1879332,957.935339 68.5008828,955.997697 50.559897,956.709134 C46.0148546,956.888335 41.3250496,956.277257 37.6294437,955.063404 C37.1047381,954.89106 36.8190925,954.32599 36.9914364,953.801284 Z" id="Stroke-17" fill="#FFF" fill-rule="nonzero"/>
                        <path d="M25.9375431,869.949858 C26.0868634,869.418142 26.6389524,869.108149 27.1706684,869.25747 C30.9727511,870.325198 38.2654817,870.772218 47.9590359,870.707378 C52.5038484,870.676977 57.3406507,870.536076 62.2315627,870.316706 L63.8635444,870.24072 C65.4715081,870.16314 66.9990429,870.081407 68.4230876,869.998642 L70.8704204,869.849075 L72.080298,869.768205 C72.6311889,869.728991 73.1095628,870.143788 73.1487762,870.694679 C73.1879895,871.24557 72.7731929,871.723944 72.222302,871.763157 L69.9344415,871.911885 L68.5393723,871.995259 C67.108896,872.078398 65.5747522,872.160485 63.959927,872.238396 C58.4898616,872.502312 53.0529833,872.673348 47.9724137,872.707333 L46.1102732,872.713588 C37.156326,872.712652 30.4169628,872.246485 26.6299316,871.182983 C26.0982156,871.033663 25.7882227,870.481574 25.9375431,869.949858 Z" id="Stroke-19" fill="#FFF" fill-rule="nonzero"/>
                        <path d="M149.6977,28.8195959 C149.6977,28.8195959 163.3377,31.215907 175.0847,30.9606499 C181.6057,30.8189482 193.6097,33.40743 193.6097,33.40743 L205.8217,187.681724 L189.3037,192.054094 L119.4767,63.617061 L149.6977,28.8195959 Z" id="Fill-21" fill="#f8648e"/>
                        <polygon id="Fill-23" fill="#d42d66" points="210.1391 770.293763 220.2151 866.667397 285.0341 871.403727 300.2381 746.792638"/>
                        <g id="Group-27">
                            <mask id="bodyboilersuit-mask-4" fill="#fff">
                                <use xlink:href="#bodyboilersuit-path-3"/>
                            </mask>
                            <g id="Clip-26"/>
                            <path d="M313.7528,564.247988 C313.2258,547.859122 250.1208,256.545726 250.1208,256.545726 C259.4798,240.515968 263.1538,221.62403 261.6648,203.258135 L254.6258,64.7098138 L194.2348,36.6965587 L193.5268,182.761862 C193.5268,187.49528 149.6978,28.8194988 149.6978,28.8194988 L139.0338,23.7968541 C137.5268,23.0873752 136.0558,22.2934576 134.6488,21.4131603 C123.2528,14.2795489 118.9438,8.7890945 111.7078,0.96056261 C111.4748,0.708217174 111.2488,0.459753974 111.0298,0.217114132 L27.6888,38.475594 C27.6888,38.475594 38.3878,211.729177 25.7178,277.313756 C3.7088,391.238015 36.9798,522.164533 41.2028,570.259632 C43.0298,591.067455 -4.6912,682.301006 0.3768,815.11041 C46.8348,820.029204 97.5148,820.029204 97.5148,820.029204 L191.2738,565.887262 L202.2548,818.38993 L304.4608,818.38993 C304.4608,818.38993 315.4418,616.716427 313.7528,564.247988" id="Fill-25" fill="#FA0" mask="url(#bodyboilersuit-mask-4)"/>
                        </g>
                        <path d="M190.9931,557.689141 C190.9931,557.689141 177.2961,604.96703 179.1671,646.229391 C182.6661,723.353921 196.0611,819.878962 196.0611,819.878962 L305.0251,822.611086 C305.0251,822.611086 319.3841,610.157581 314.3161,564.248182 C309.2481,518.337812 257.4411,257.091375 257.4411,257.091375 L191.8381,255.998525 L190.9931,557.689141 Z" id="Fill-28" fill="#E08D0A"/>
                        <path d="M115.1654,204.077578 L106.8224,204.077578 C89.5534,204.077578 75.5534,190.489747 75.5534,173.729157 L75.5534,119.909699 L144.2544,119.909699 L144.2544,175.844976 C144.2544,191.437983 131.2304,204.077578 115.1654,204.077578" id="Fill-30" fill="#00F"/>
                        <path d="M237.1689,298.082562 C237.1689,298.082562 246.7419,344.720851 274.6159,346.360126 C280.5289,366.036276 304.7429,504.219667 304.7429,504.219667 L278.6449,505.394044 C254.0749,506.796502 233.1549,488.242318 232.3869,464.365587 L227.0329,298.082562 L237.1689,298.082562 Z" id="Fill-32" fill="#00F"/>
                        <path d="M81.1845,301.087996 C81.1845,301.087996 47.1165,347.817518 19.2415,349.457763 C18.1155,466.416962 32.1935,507.680293 32.1935,507.680293 L48.6765,506.305011 C68.1665,506.004137 84.0075,490.955614 84.7355,472.049118 L91.3205,301.087996 L81.1845,301.087996 Z" id="Fill-34" fill="#00F"/>
                        <path d="M245.8973,255.818551 C246.449585,255.818551 246.8973,256.266266 246.8973,256.818551 C246.8973,257.331387 246.51126,257.754058 246.013921,257.811823 L245.8973,257.818551 L134.3993,257.818551 C133.847015,257.818551 133.3993,257.370835 133.3993,256.818551 C133.3993,256.305715 133.78534,255.883044 134.282679,255.825278 L134.3993,255.818551 L245.8973,255.818551 Z" id="Stroke-36" fill="#FFF" fill-rule="nonzero"/>
                        <g id="Group-40" transform="translate(214.000000, 943.383710)">
                            <mask id="bodyboilersuit-mask-6" fill="#fff">
                                <use xlink:href="#bodyboilersuit-path-5"/>
                            </mask>
                            <g id="Clip-39"/>
                            <path d="M151.9589,14.1456117 L153.6479,38.3300101 C153.6479,38.3300101 115.9539,52.5409404 80.7399,38.3300101 C47.6939,35.05049 46.0679,38.0572829 28.4609,37.7835852 C10.8549,37.5098874 0.0809,33.5024478 0.0809,33.5024478 L1.7709,0.710158292 L142.4999,11.0029404 L151.9589,14.1456117 Z" id="Fill-38" fill="#CEF367" mask="url(#bodyboilersuit-mask-6)"/>
                        </g>
                        <path d="M275.766,866.302369 C275.766,866.302369 235.607,875.776 220.215,866.6673 C219.088,873.95426 223.218,899.459589 222.843,907.839399 C222.467,916.220179 224.71,937.717099 224.71,945.005029 C225.085,949.741359 225.836,952.655948 244.607,954.113729 C263.377,955.571509 282.899,957.029289 294.912,961.400688 C306.925,965.773058 357.794,963.222428 364.551,960.671798 C367.367,949.741359 362.862,948.101113 360.234,944.640099 C358.189,941.946796 342.039,936.525252 328.532,932.800245 C316.92,929.597399 307.278,921.724221 302.036,911.170359 C295.945,898.9054 288.857,882.904758 287.978,873.302044 L287.404,867.03126 C287.404,867.03126 285.151,864.84556 275.766,866.302369" id="Fill-41" fill="#15098C"/>
                        <path d="M306.5497,917.76861 C306.5497,917.76861 290.5007,909.980841 280.2237,883.200196 C275.6357,871.242905 275.7657,866.302758 275.7657,866.302758 C275.7657,866.302758 251.7147,867.789655 242.6357,867.48684 C235.2877,867.241289 218.9947,865.847565 218.9947,865.847565 C218.9947,865.847565 220.5867,903.997343 219.7127,909.935225 C218.5767,917.650201 215.9467,930.205357 215.0587,941.059123 C214.3617,949.559282 224.6997,952.102147 229.8477,953.931652 C241.6147,958.11088 260.7117,955.589367 266.5687,956.026119 C273.3177,956.53081 286.8877,958.54472 297.4597,961.960119 C299.3937,962.58613 301.3857,963.006382 303.4147,963.191759 C309.9987,963.793505 359.3417,965.454133 364.5507,960.672187 C369.3237,956.290111 365.3517,945.966271 354.7647,940.685457 C352.8307,939.720721 350.5717,938.813248 347.9387,937.990214 C323.4437,930.339295 306.5497,917.76861 306.5497,917.76861" id="Fill-43" fill="#00F"/>
                        <polygon id="Fill-45" fill="#f8648e" points="329.7782 930.97637 320.1582 949.922659 312.3682 946.097685 321.9422 927.151395"/>
                        <polygon id="Fill-47" fill="#f8648e" points="314.9496 923.324674 305.3296 942.635894 297.5396 938.445989 307.6766 918.588344"/>
                        <polygon id="Fill-49" fill="#f8648e" points="302.4203 911.847615 290.6653 934.802315 282.2183 930.634733 297.7743 902.419601"/>
                        <polygon id="Fill-51" fill="#f8648e" points="293.7856 893.538692 274.9216 927.606296 265.8176 922.960229 289.9376 882.334554"/>
                        <path d="M232.957836,953.801284 C233.13018,953.276578 233.695251,952.990933 234.219956,953.163277 C237.68281,954.30068 242.133908,954.880722 246.446277,954.710696 C264.605508,953.990604 281.518897,955.954528 297.756917,961.005441 C298.284279,961.169479 298.57881,961.729969 298.414772,962.25733 C298.250734,962.784692 297.690244,963.079223 297.162883,962.915185 C281.153333,957.935339 264.466283,955.997697 246.525297,956.709134 C241.980419,956.888328 237.291607,956.277308 233.595844,955.063404 C233.071138,954.89106 232.785492,954.32599 232.957836,953.801284 Z" id="Stroke-53" fill="#FFF" fill-rule="nonzero"/>
                        <path d="M221.90335,869.949835 C222.052683,869.418122 222.604779,869.108143 223.136492,869.257476 C226.938307,870.325229 234.231216,870.772244 243.925218,870.707372 C248.469861,870.67696 253.306482,870.53606 258.197222,870.316702 L259.829146,870.24072 C261.705143,870.15021 263.471669,870.054047 265.092102,869.957189 L268.0461,869.768205 C268.596991,869.728992 269.075364,870.14379 269.114576,870.694681 C269.153789,871.245572 268.738991,871.723945 268.1881,871.763157 L265.900179,871.911885 L264.505075,871.995259 C263.074564,872.078398 261.540386,872.160485 259.925527,872.238396 C254.455653,872.502298 249.01898,872.67333 243.938601,872.707327 L242.076374,872.713588 C233.122018,872.712679 226.382515,872.246515 222.595708,871.182977 C222.063996,871.033644 221.754016,870.481547 221.90335,869.949835 Z" id="Stroke-55" fill="#FFF" fill-rule="nonzero"/>
                        <path d="M139.164944,161.541126 C139.717101,161.529511 140.17432,161.967517 140.18617,162.519675 C140.442098,174.444752 138.74051,182.972354 135.717552,188.669721 C134.710778,190.567186 133.620925,192.017541 132.518243,193.077772 C131.828628,193.740838 131.266781,194.132856 130.904544,194.313939 C130.410546,194.56089 129.809889,194.360619 129.562938,193.866621 C129.333627,193.407909 129.48993,192.85723 129.908951,192.58318 L130.131597,192.456034 C130.343784,192.324153 130.689124,192.061957 131.132053,191.636079 C132.080993,190.723672 133.042763,189.443768 133.950837,187.732322 C136.800671,182.361241 138.435682,174.167291 138.18663,162.562587 C138.17478,162.01043 138.612786,161.553211 139.164944,161.541126 Z" id="Stroke-57" fill="#FFF" fill-rule="nonzero"/>
                        <path d="M96.9174,75.3533561 C97.2844,132.274722 103.1464,228.67165 103.1464,228.67165 L168.1864,295.076351 L104.5544,354.102861 C104.5544,354.102861 15.5814,278.679721 6.8534,237.690087 C3.0754,219.949232 3.3214,157.921754 1.9614,121.319048 C1.1504,99.4824327 -1.5826,81.6105524 7.6974,61.7043797 C35.8534,1.31132277 96.6704,37.1094346 96.9174,75.3533561" id="Fill-59" fill="#E08D0A"/>
                        <polygon id="Fill-61" fill="#B06B04" points="103.5688 224.573074 78.9318 208.450142 110.7488 235.914061 103.8508 228.398049"/>
                        <path d="M61.4410803,32.0498555 C61.5687372,31.5125268 62.1078146,31.1804222 62.6451433,31.3080791 L62.9647304,31.3908759 L63.5150758,31.5478356 C63.6675205,31.5931718 63.8280627,31.6423356 63.9964246,31.6954312 L64.2547975,31.7780365 C65.5049223,32.1830285 66.8946323,32.707117 68.3891893,33.3634371 C72.6521623,35.23548 76.9133035,37.7938299 80.8921611,41.1450891 C92.4009426,50.8385523 99.2463655,65.0570302 99.0789632,84.5755496 C99.0742267,85.127814 98.6226882,85.5716731 98.0704237,85.5670474 C97.5181593,85.5622 97.0743002,85.1106615 97.0790368,84.558397 C97.2412139,65.6491024 90.666234,51.9923556 79.6037452,42.6747899 C75.7802483,39.4543859 71.6817239,36.9936695 67.5850314,35.1946471 C66.1537055,34.5660943 64.8265242,34.0655867 63.6384132,33.6806848 L63.1659059,33.5315985 C63.016235,33.4857058 62.874489,33.4435825 62.7409474,33.4051281 L62.1828567,33.2539185 C61.6455279,33.1262616 61.3134234,32.5871842 61.4410803,32.0498555 Z" id="Stroke-63" fill="#FFF" fill-rule="nonzero"/>
                        <path d="M320.2851,208.216723 L287.6501,102.271432 L287.6121,102.419928 C279.5331,76.8223948 253.1661,63.8663977 253.1661,63.8663977 L258.7091,205.803912 L218.0231,283.052674 L271.2381,357.65569 L312.4681,283.155553 C325.1911,260.163972 328.0021,233.216391 320.2851,208.216723" id="Fill-65" fill="#E08D0A"/>
                        <polygon id="Fill-67" fill="#B06B04" points="258.7548 206.172239 279.1208 167.277072 258.2858 195.150567"/>
                        <path d="M235.5732,307.737881 L237.5112,329.782196 C237.5112,329.782196 235.8232,334.154566 233.5702,334.33606 C231.3172,334.518525 209.5432,342.35191 209.5432,342.35191 L216.8962,368.95009 L182.6872,388.739795 C182.6872,388.739795 177.8302,390.926465 178.4642,394.683501 C178.9952,397.838789 180.9272,398.783144 182.6872,399.19272 C183.9382,399.483887 187.4232,398.955903 189.6932,398.492946 L192.6822,397.895082 C192.6822,397.895082 187.2622,400.695146 190.8522,405.204364 C193.7362,408.826492 203.9122,405.204364 203.9122,405.204364 C203.9122,405.204364 198.5252,405.819699 199.0882,410.260008 C199.3712,412.498118 202.0552,413.47353 204.1502,413.28233 C205.8222,413.128982 207.2262,412.835873 208.5432,412.582557 C211.1602,412.079807 216.2192,410.66279 221.5562,408.847844 C233.8842,404.657939 241.4862,397.917405 246.5642,390.41304 C253.7122,379.848501 259.7552,368.2212 259.7552,368.2212 L267.0142,351.734307 L235.5732,307.737881 Z" id="Fill-69" fill="#d42d66"/>
                        <path d="M122.2924,337.797754 L143.5694,351.763133 C146.6914,353.811984 149.4674,356.32088 151.7894,359.203441 C154.4454,362.501402 158.2724,366.867949 160.8664,369.952386 C170.8614,381.839797 180.7164,389.764415 180.7164,389.764415 C180.7164,389.764415 207.1354,383.888648 214.4564,375.143908 C221.7764,366.400139 222.7154,360.206029 222.7154,360.206029 L212.6734,343.445439 C212.6734,343.445439 225.7184,338.161714 235.2924,333.789344 C233.8834,327.231274 229.4964,326.023899 213.8934,330.145864 C202.4694,333.164304 191.2744,327.595234 187.8964,324.86311 C184.5174,322.130014 165.4644,297.717534 165.4644,297.717534 L122.2924,337.797754 Z" id="Fill-71" fill="#f8648e"/>
                        <polygon id="Fill-73" fill="#E08D0A" points="149.6977 28.8195959 196.3317 187.804985 119.4767 63.617061"/>
                        <polygon id="Fill-75" fill="#E08D0A" points="193.6098 33.4069447 193.5268 182.762444 222.5838 53.3606749"/>
                        <path d="M187.5673,390.174767 L188.9753,395.958331 L183.7473,397.220058 C182.0383,397.632545 180.3053,396.639663 179.8503,394.988742 C179.4013,393.358202 180.4453,391.693693 182.1433,391.330703 L187.5673,390.174767 Z" id="Fill-77" fill="#CEF367"/>
                        <path d="M232.3485,329.092031 C232.3385,329.040591 232.3395,328.991093 232.3275,328.939653 C231.9075,327.279996 230.1945,326.253145 228.4775,326.631663 L223.2245,327.78857 L224.0055,331.147676 C224.1455,331.13797 229.6575,329.721924 232.3485,329.092031" id="Fill-79" fill="#CEF367"/>
                        <path d="M198.6889,398.679488 L199.9939,404.039887 L195.1479,405.209411 C193.5649,405.590841 191.9589,404.671721 191.5369,403.141149 C191.1209,401.629988 192.0879,400.087769 193.6629,399.750985 L198.6889,398.679488 Z" id="Fill-81" fill="#CEF367"/>
                        <path d="M206.808,406.35768 L207.887,410.789254 L203.881,411.755931 C202.573,412.071363 201.244,411.311415 200.896,410.046776 C200.552,408.797666 201.352,407.521381 202.653,407.244771 L206.808,406.35768 Z" id="Fill-83" fill="#CEF367"/>
                        <path d="M194.747,397.188612 L209.201,392.725009 C217.647,389.809449 222.809,386.348434 225.715,382.869949 L227.971,379.972829 L225.203,382.659338 C220.99,386.604662 215.868,389.164997 210.984,391.19929 L194.747,397.188612 Z" id="Fill-85" fill="#9c154a"/>
                        <path d="M204.1088,404.566319 L218.5628,400.102716 C227.0088,397.188126 232.1708,393.727112 235.0778,390.248627 L237.3328,387.350537 L234.5648,390.038015 C230.3518,393.983339 225.2298,396.542704 220.3458,398.577967 L204.1088,404.566319 Z" id="Fill-87" fill="#9c154a"/>
                        <polygon id="Fill-89" fill="#9c154a" points="235.2919 333.789441 249.7449 329.599536 237.5119 329.782001"/>
                        <polygon id="Fill-91" fill="#d42d66" points="127.3607 340.986139 165.4647 297.717632 122.2927 337.797851"/>
                        <path d="M219.268178,285.520281 C219.681746,285.222188 220.246095,285.285669 220.584467,285.649589 L220.664134,285.746792 L251.260134,328.195177 C251.583067,328.643209 251.481654,329.2682 251.033622,329.591133 C250.620054,329.889225 250.055705,329.825744 249.717333,329.461825 L249.637666,329.364621 L219.041666,286.916236 C218.718733,286.468204 218.820146,285.843214 219.268178,285.520281 Z" id="Stroke-93" fill="#FFF" fill-rule="nonzero"/>
                        <path d="M32.4910311,280.553572 C32.8824654,280.226959 33.4498923,280.25034 33.8131708,280.589399 L33.9860704,280.784217 L36.062646,283.245722 L38.3272272,285.903167 C40.1654268,288.051214 42.1666211,290.368673 44.3058699,292.820939 C52.251288,301.928941 60.4730382,311.036712 68.5320798,319.535463 C71.1788381,322.326631 73.7690437,325.010067 76.2933684,327.572865 L77.3711611,328.663783 C88.481119,339.874653 97.9152642,348.328545 105.11997,353.278447 C105.575174,353.591189 105.690662,354.213732 105.37792,354.668936 C105.065178,355.12414 104.442634,355.239629 103.98743,354.926886 C96.7908415,349.982561 87.4935517,341.679166 76.5705827,330.696128 L75.9505684,330.071589 C73.0766023,327.171518 70.1154448,324.11183 67.0808219,320.911635 C59.6222812,313.046149 52.0277669,304.663734 44.6409276,296.241737 L42.7987432,294.13569 C40.2264164,291.186977 37.8531251,288.432587 35.7218935,285.932246 L33.3637256,283.152029 L32.3638827,281.962059 C32.0100511,281.538005 32.0669774,280.907404 32.4910311,280.553572 Z" id="Stroke-95" fill="#FFF" fill-rule="nonzero"/>
                        <path d="M86.6670252,422.605379 C87.1794704,422.626169 87.5867544,423.02841 87.6250668,423.527624 L87.6272382,423.644419 L85.7337384,472.117111 C84.9956275,483.07332 80.5938989,491.417254 73.7256372,497.463211 C71.0773488,499.794433 68.2416761,501.616783 65.4041066,502.990838 C64.5507143,503.404081 63.7482177,503.751212 63.0110508,504.036888 L62.6479784,504.174627 C62.1403289,504.363007 61.7710954,504.483311 61.5631684,504.542823 C61.032204,504.694794 60.4785752,504.38756 60.3266039,503.856595 C60.1746327,503.325631 60.4818673,502.772002 61.0128316,502.620031 L61.2595291,502.54335 C61.3982237,502.49794 61.5749309,502.437209 61.7867616,502.360296 L61.9521751,502.299564 C62.728143,502.011616 63.5959295,501.644276 64.5324516,501.190777 C67.2153007,499.891644 69.9000466,498.166287 72.404149,495.961989 C78.7697561,490.358506 82.8826347,482.681806 83.6943484,472.584975 L83.7367618,472.010869 L85.6287618,423.566368 C85.6503148,423.014504 86.1151612,422.584602 86.6670252,422.605379 Z" id="Stroke-97" fill="#FFF" fill-rule="nonzero"/>
                        <path d="M167.6938,295.55474 L184.3088,317.217625 C188.2348,322.103421 193.2538,326.721342 199.0878,329.235091 L203.9448,330.943276 C203.9448,330.943276 191.8378,330.875337 184.3768,321.72005 C176.9148,312.565734 164.3858,299.174926 164.3858,299.174926 L167.6938,295.55474 Z" id="Fill-99" fill="#B06B04"/>
                        <path d="M40.6288,564.46219 L72.1638,575.575095 L40.6288,577.305602 C40.6288,577.305602 41.8258,572.090787 40.6288,564.46219" id="Fill-101" fill="#E08D0A"/>
                    </g>
                </g>
            </g>
        </g>
        <g id="Head" transform="translate(422.000000, 72.000000) scale(1 1)">
            <g id="Head/Bad Bunny" stroke="none" stroke-width="1" fill="none" fill-rule="evenodd">
                <g id="Group-19" transform="translate(132.261963, 26.813721)">
                    <g id="Group-3" transform="translate(0.000000, 1.010000)" fill="#f8648e">
                        <path d="M42.2806,164.7008 C53.4496,169.3928 84.0456,167.7038 84.0456,167.7038 C84.0456,167.7038 79.5406,146.7278 79.1176,131.1948 C79.0606,129.0808 80.7616,127.0458 82.8756,126.9558 C84.7586,126.8758 89.5356,126.8778 91.6616,126.3298 C124.4206,117.8778 119.8036,58.0838 111.5446,34.6198 C105.9266,18.6618 93.6676,8.1618 83.3886,4.5868 C62.3226,-2.7402 48.4746,1.5838 35.3356,8.9048 C33.7836,9.7688 11.2626,24.9528 10.4176,54.7988 C9.8626,74.4188 22.3686,93.0518 22.3846,93.0908 C23.1816,95.2028 17.7386,102.8048 11.5436,113.7858 C8.5476,119.0968 3.6136,126.8308 -0.0004,133.4948 C-0.0004,133.4948 19.9436,158.6938 42.2806,164.7008" id="SKIN"/>
                    </g>
                    <path d="M32.4633,72.9207 C34.4843,76.4227 34.6503,80.1117 32.8323,81.1607 C31.0143,82.2107 27.9013,80.2237 25.8803,76.7227 C23.8583,73.2207 23.6933,69.5307 25.5113,68.4827 C27.3293,67.4327 30.4423,69.4197 32.4633,72.9207" id="Fill-4" fill="#CDF267"/>
                    <path d="M78.5194,131.4774 C78.4994,131.4614 78.4764,131.4504 78.4574,131.4384 C78.4294,131.4224 78.4064,131.4074 78.3824,131.3954 C78.4374,131.3324 78.4804,131.2584 78.5114,131.1724 C78.5164,131.1604 78.5134,131.1464 78.5164,131.1324 C78.5394,131.1374 78.5634,131.1414 78.5874,131.1464 C78.5524,131.2524 78.5244,131.3604 78.5194,131.4774" id="Fill-6" fill="#d42d66"/>
                    <path d="M77.9276,131.5018 C77.9276,131.5078 77.9276,131.5138 77.9286,131.5188 L77.9276,131.5188 C77.9276,131.5128 77.9276,131.5078 77.9276,131.5018" id="Fill-8" fill="#45B248"/>
                    <path d="M79.7606,130.5311 C80.4046,129.3121 81.8726,128.4551 81.8726,128.4551 C81.8726,128.4551 72.2836,125.9981 63.7786,120.6071 C63.4816,120.4191 63.1576,120.8081 63.3986,121.0651 C70.9836,129.1341 79.1976,133.5231 79.1976,133.5231 C79.1976,133.5231 79.0686,131.8431 79.7606,130.5311" id="Fill-10" fill="#d42d66"/>
                    <path d="M28.0594,93.0184 C27.7894,93.0184 27.5204,92.9104 27.3244,92.6954 C27.1214,92.4744 22.3184,87.2304 19.6354,82.0324 C17.4514,77.8004 16.6654,73.3404 17.3664,69.1354 C17.9254,65.7734 19.3134,63.3334 21.4904,61.8834 C24.6404,59.7874 28.2514,60.6024 28.4034,60.6374 C28.9414,60.7644 29.2744,61.3024 29.1484,61.8404 C29.0224,62.3774 28.4864,62.7084 27.9494,62.5854 C27.9184,62.5794 24.9974,61.9394 22.5814,63.5604 C20.8934,64.6934 19.8024,66.6784 19.3384,69.4634 C18.7094,73.2414 19.4274,77.2694 21.4134,81.1154 C23.9694,86.0704 28.7464,91.2894 28.7954,91.3404 C29.1684,91.7474 29.1424,92.3794 28.7364,92.7534 C28.5444,92.9304 28.3014,93.0184 28.0594,93.0184" id="Fill-12" fill="#FFF"/>
                    <g id="Group-16" transform="translate(15.000000, 0.010000)" fill="#CEF367">
                        <path d="M0.6879,32.5518 L64.0799,34.2638 L23.7539,18.4878 C23.7539,18.4878 66.6549,29.3578 76.7099,35.1318 C86.9649,26.8288 90.1639,21.6788 90.1639,21.6788 L84.9209,33.9948 L95.8549,33.8658 C95.8549,33.8658 84.8749,-0.1092 46.8639,1.0168 C22.8609,1.7288 8.8019,16.3348 0.6879,32.5518" id="Fill-14"/>
                    </g>
                    <path d="M20.0364419,31.5622881 L68.0894419,33.0642881 C68.641457,33.0815426 69.0749663,33.5430267 69.0582096,34.0950419 C69.0416899,34.6076274 68.6426331,35.0180318 68.1437325,35.0602309 L68.0269581,35.0633119 L19.9739581,33.5613119 C19.421943,33.5440574 18.9884337,33.0825733 19.0051904,32.5305581 C19.0217101,32.0179726 19.4207669,31.6075682 19.9196675,31.5653691 L20.0364419,31.5622881 Z" id="Stroke-17" fill="#FFF" fill-rule="nonzero"/>
                </g>
            </g>
        </g>
        <g id="Face" transform="translate(615.000000, 146.000000) scale(1 1)">
            <g id="Face/Happy" stroke="none" stroke-width="1" fill="none" fill-rule="evenodd">
                <g id="Face" transform="translate(9.000000, 11.000000)">
                    <path d="M0.5006,18.6061 C0.3256,18.6061 0.1546,18.5141 0.0636,18.3501 C-0.0714,18.1081 0.0156,17.8041 0.2566,17.6691 L3.5366,15.8391 C3.7766,15.7061 4.0826,15.7911 4.2166,16.0321 C4.3516,16.2731 4.2646,16.5781 4.0236,16.7121 L0.7436,18.5431 C0.6666,18.5851 0.5836,18.6061 0.5006,18.6061" id="Fill-1" fill="#CEF367"/>
                    <path d="M5.9552,23.1389 C5.8602,23.1389 5.7652,23.1119 5.6802,23.0559 C5.4492,22.9029 5.3862,22.5929 5.5382,22.3629 L7.6132,19.2319 C7.7652,19.0009 8.0752,18.9379 8.3062,19.0909 C8.5362,19.2429 8.5992,19.5539 8.4472,19.7839 L6.3722,22.9149 C6.2762,23.0599 6.1172,23.1389 5.9552,23.1389" id="Fill-4" fill="#CEF367"/>
                    <path d="M12.274,25.6833 C12.243,25.6833 12.212,25.6803 12.181,25.6743 C11.909,25.6233 11.731,25.3623 11.782,25.0903 L12.479,21.3993 C12.53,21.1293 12.792,20.9493 13.063,21.0013 C13.335,21.0523 13.513,21.3133 13.461,21.5853 L12.765,25.2763 C12.719,25.5163 12.51,25.6833 12.274,25.6833" id="Fill-6" fill="#CEF367"/>
                    <path d="M19.3199,26.2194 C19.0709,26.2194 18.8549,26.0334 18.8239,25.7804 L18.3679,22.0524 C18.3339,21.7784 18.5289,21.5284 18.8029,21.4954 C19.0749,21.4544 19.3269,21.6564 19.3599,21.9304 L19.8169,25.6584 C19.8499,25.9324 19.6549,26.1824 19.3809,26.2154 C19.3609,26.2184 19.3399,26.2194 19.3199,26.2194" id="Fill-8" fill="#CEF367"/>
                    <path d="M25.9957,24.0329 C25.8457,24.0329 25.6977,23.9659 25.5987,23.8379 L23.3097,20.8599 C23.1417,20.6409 23.1827,20.3269 23.4017,20.1579 C23.6197,19.9899 23.9337,20.0319 24.1027,20.2499 L26.3917,23.2279 C26.5597,23.4469 26.5187,23.7609 26.2997,23.9289 C26.2087,23.9989 26.1017,24.0329 25.9957,24.0329" id="Fill-10" fill="#CEF367"/>
                    <path d="M44.715,28.9279 C44.648,28.9279 44.58,28.9139 44.514,28.8859 C44.261,28.7749 44.147,28.4799 44.258,28.2269 L45.77,24.7879 C45.88,24.5359 46.175,24.4199 46.428,24.5319 C46.681,24.6429 46.796,24.9379 46.685,25.1909 L45.173,28.6289 C45.091,28.8169 44.907,28.9279 44.715,28.9279" id="Fill-12" fill="#CEF367"/>
                    <path d="M38.9547,24.9103 C38.7987,24.9103 38.6457,24.8383 38.5477,24.7023 C38.3867,24.4773 38.4377,24.1653 38.6627,24.0043 L41.7127,21.8113 C41.9367,21.6493 42.2487,21.7023 42.4107,21.9263 C42.5717,22.1503 42.5207,22.4623 42.2967,22.6243 L39.2467,24.8163 C39.1577,24.8803 39.0557,24.9103 38.9547,24.9103" id="Fill-14" fill="#CEF367"/>
                    <path d="M31.8029,41.4406 L26.0689,40.4896 C25.7969,40.4446 25.6119,40.1876 25.6569,39.9156 C25.7019,39.6426 25.9579,39.4556 26.2319,39.5036 L30.9739,40.2896 L35.2619,13.4716 C35.3049,13.1996 35.5629,13.0126 35.8349,13.0576 C36.1069,13.1006 36.2929,13.3576 36.2489,13.6296 L31.8029,41.4406 Z" id="Fill-16" fill="#FFF"/>
                    <path d="M17.3536,47.5539 C19.7906,47.5569 21.6156,47.0829 22.5276,46.7829 C23.2726,46.5369 24.0566,46.4299 24.8336,46.5309 C25.4536,46.6109 26.0076,46.8829 26.7216,47.5619 L27.6466,48.7409 C27.6996,48.8059 28.9736,47.6089 28.9736,47.6089 C30.1406,47.0849 31.4786,48.4679 31.8606,49.3199 C32.2186,49.9879 32.1896,50.7959 31.7846,51.4359 C31.4166,52.0149 31.0266,52.6099 31.0266,52.6099 C29.7156,54.2169 28.8466,55.7759 25.7126,55.8919 C23.5616,55.9709 21.4326,55.2859 19.5646,54.0769 L13.3946,47.7969 C13.0726,47.5139 13.0416,47.3629 13.0416,47.3629 C13.1576,47.3339 15.8946,47.5519 17.3536,47.5539" id="Fill-18" fill="#7882FD"/>
                    <path d="M30.6603,52.1833 C28.9653,52.1373 27.2943,51.9813 25.6353,51.5763 C21.4993,50.5643 13.1223,47.3803 13.0423,47.3623 C13.0743,47.4963 13.2763,47.7213 13.3893,47.8293 L19.1383,54.2073 C19.3543,54.4483 19.5953,54.6653 19.8613,54.8383 C21.6013,55.9693 23.5513,56.5983 25.5173,56.5183 C28.6033,56.3933 29.4593,54.7203 30.7493,52.9953 C30.7493,52.9953 30.9663,52.6363 31.2263,52.1953 C31.0323,52.1933 30.8433,52.1883 30.6603,52.1833" id="Fill-20" fill="#D7D8FF"/>
                    <path d="M2.8512,5.9675 C3.0952,5.6875 3.3172,5.3745 3.5872,5.1315 C5.4782,3.4285 7.6412,2.2985 9.8422,1.2875 C10.8262,0.8365 11.8922,0.6405 12.9132,0.2995 C14.5282,-0.2405 16.1012,0.0515 17.6642,0.3785 C18.6022,0.5745 19.5312,0.8425 20.4432,1.1465 C21.7132,1.5705 22.9622,2.0665 24.2262,2.5165 C25.3622,2.9215 26.5122,3.2875 27.6442,3.7055 C29.4082,4.3545 29.9272,5.2045 29.7612,7.3275 C29.6872,8.2795 29.4552,9.2215 29.2762,10.2825 C29.1182,10.2555 28.8502,10.2795 28.6462,10.1655 C25.5182,8.4005 22.3892,6.6445 19.0572,5.3525 C17.4192,4.7175 15.8412,3.9575 14.0682,3.7375 C11.7342,3.4465 9.4592,3.6975 7.2072,4.5295 C5.9672,4.9875 4.7472,5.5265 3.5162,6.0245 C3.3442,6.0935 3.1622,6.1335 2.9852,6.1865 C2.9402,6.1135 2.8962,6.0405 2.8512,5.9675" id="Fill-23" fill="#2E0BFF"/>
                    <path d="M48.2853,6.3107 C47.6463,6.3327 48.4513,6.2787 47.8123,6.2917 C46.6063,6.3167 45.4003,6.3017 44.1933,6.3397 C42.3153,6.3987 41.5543,7.0417 41.0403,9.1077 C40.8103,10.0337 40.7323,11.0017 40.5673,12.0647 C40.7263,12.0887 40.9733,12.1967 41.2023,12.1527 C43.8313,11.6407 45.7793,11.1127 48.4263,10.8157 C48.4313,10.7947 48.2443,6.4397 48.2853,6.3107" id="Fill-26" fill="#2E0BFF"/>
                    <path d="M24.7926,16.9382 C24.1686,16.2992 23.5456,15.6602 22.8356,14.9322 C22.5346,15.5002 22.2456,16.0062 21.9916,16.5302 C20.7396,19.1202 16.2346,19.1232 15.0786,16.6562 C14.4276,15.2662 14.6046,14.1252 16.0916,12.4672 C12.0216,11.3812 7.7006,12.3062 3.5906,11.3542 C3.5966,11.1882 3.6036,11.0222 3.6086,10.8572 C5.1616,10.7512 6.7126,10.6272 8.2666,10.5422 C12.2586,10.3212 16.2686,10.2092 20.0786,11.6492 C22.4836,12.5602 24.1706,14.3382 25.0106,16.8322 C24.9356,16.8632 24.8636,16.8982 24.7926,16.9382" id="Fill-29" fill="#000"/>
                    <path d="M48.399,14.9479 C48.399,14.9339 48.403,14.9209 48.404,14.9069 C48.225,14.8979 48.048,14.8759 47.867,14.8719 C45.295,14.8209 43.068,15.8439 41.36,17.8449 C41.418,17.9019 41.471,17.9619 41.523,18.0249 C42.339,17.6639 43.156,17.3019 44.085,16.8909 C44.153,17.5309 44.234,18.1089 44.274,18.6889 C44.432,20.9789 46.127,21.8899 48.003,22.0779 C48.332,19.7319 48.312,17.3579 48.399,14.9479" id="Fill-31" fill="#000"/>
                </g>
            </g>
        </g>
        <g id="Hat" transform="translate(503.000000, 64.000000) scale(1 1)">
            <g id="Hat/Yarmulke" stroke="none" stroke-width="1" fill="none" fill-rule="evenodd">
                <g id="Group-22" transform="translate(93.500000, 61.500000) rotate(7.000000) translate(-93.500000, -61.500000) translate(64.000000, 31.000000)">
                    <g id="Group-3" transform="translate(0.000000, 0.064000)" fill="#7CE8FF">
                        <path d="M58.1514,1.6234 C48.7664,-1.3796 -4.7306,3.3124 0.3384,59.9994 L58.1514,1.6234 Z" id="Fill-1"/>
                    </g>
                    <path d="M5.5938,50.4911 C5.5938,51.6311 4.6688,52.5551 3.5288,52.5551 C2.3878,52.5551 1.4638,51.6311 1.4638,50.4911 C1.4638,49.3501 2.3878,48.4261 3.5288,48.4261 C4.6688,48.4261 5.5938,49.3501 5.5938,50.4911" id="Fill-4" fill="#FFF"/>
                    <path d="M10.6617,45.4227 C10.6617,46.5637 9.7377,47.4877 8.5967,47.4877 C7.4567,47.4877 6.5327,46.5637 6.5327,45.4227 C6.5327,44.2827 7.4567,43.3587 8.5967,43.3587 C9.7377,43.3587 10.6617,44.2827 10.6617,45.4227" id="Fill-6" fill="#FFF"/>
                    <path d="M16.293,40.3549 C16.293,41.4949 15.368,42.4199 14.228,42.4199 C13.088,42.4199 12.163,41.4949 12.163,40.3549 C12.163,39.2139 13.088,38.2899 14.228,38.2899 C15.368,38.2899 16.293,39.2139 16.293,40.3549" id="Fill-8" fill="#FFF"/>
                    <path d="M22.4873,34.348 C22.4873,35.489 21.5623,36.413 20.4223,36.413 C19.2823,36.413 18.3573,35.489 18.3573,34.348 C18.3573,33.208 19.2823,32.284 20.4223,32.284 C21.5623,32.284 22.4873,33.208 22.4873,34.348" id="Fill-10" fill="#FFF"/>
                    <path d="M27.7427,28.3417 C27.7427,29.4817 26.8187,30.4057 25.6787,30.4057 C24.5377,30.4057 23.6137,29.4817 23.6137,28.3417 C23.6137,27.2007 24.5377,26.2767 25.6787,26.2767 C26.8187,26.2767 27.7427,27.2007 27.7427,28.3417" id="Fill-12" fill="#FFF"/>
                    <path d="M33.562,22.7103 C33.562,23.8513 32.637,24.7753 31.497,24.7753 C30.356,24.7753 29.432,23.8513 29.432,22.7103 C29.432,21.5703 30.356,20.6453 31.497,20.6453 C32.637,20.6453 33.562,21.5703 33.562,22.7103" id="Fill-14" fill="#FFF"/>
                    <path d="M40.1314,17.079 C40.1314,18.22 39.2074,19.144 38.0674,19.144 C36.9264,19.144 36.0024,18.22 36.0024,17.079 C36.0024,15.939 36.9264,15.015 38.0674,15.015 C39.2074,15.015 40.1314,15.939 40.1314,17.079" id="Fill-16" fill="#FFF"/>
                    <path d="M46.3257,11.0727 C46.3257,12.2127 45.4017,13.1377 44.2617,13.1377 C43.1207,13.1377 42.1967,12.2127 42.1967,11.0727 C42.1967,9.9327 43.1207,9.0077 44.2617,9.0077 C45.4017,9.0077 46.3257,9.9327 46.3257,11.0727" id="Fill-18" fill="#FFF"/>
                    <path d="M52.5201,5.0658 C52.5201,6.2068 51.5961,7.1308 50.4561,7.1308 C49.3151,7.1308 48.3911,6.2068 48.3911,5.0658 C48.3911,3.9258 49.3151,3.0018 50.4561,3.0018 C51.5961,3.0018 52.5201,3.9258 52.5201,5.0658" id="Fill-20" fill="#FFF"/>
                </g>
            </g>
        </g>
        <g id="Glasses" transform="translate(568.000000, 152.000000)" fill="#000" fill-opacity="0"/>
        <g id="Facial Hair" transform="translate(622.000000, 193.000000) scale(1 1)" fill="#000">
            <g id="Facial Hair/None" stroke="none" stroke-width="1" fill="none" fill-rule="evenodd" fill-opacity="0"/>
        </g>
        <g id="Earrings" transform="translate(562.000000, 171.000000) scale(1 1)">
            <g id="Earrings/Hoops and Studs" stroke="none" stroke-width="1" fill="none" fill-rule="evenodd">
                <path d="M54.9427879,36.3957179 C56.8369338,49.8732663 47.3810706,62.3840219 33.865892,64.2834564 C20.3507134,66.1828909 7.81272278,56.7631698 5.91857687,43.2856214 C5.08868767,37.3806529 6.42828852,31.3777972 9.69119374,26.3850999 C10.1467383,25.6889253 11.0812783,25.4909356 11.7801454,25.9440821 C12.4791518,26.3982188 12.6758728,27.3309175 12.2204674,28.0280825 C9.35662403,32.4113097 8.18146635,37.6801359 8.91017671,42.8651795 C10.5732953,54.6988829 21.5804596,62.9694705 33.4468418,61.3017592 C45.3132241,59.634048 53.6143066,48.6498633 51.951188,36.8161598 C50.2882087,24.9834467 39.2810444,16.7128591 27.4146621,18.3805703 C26.5887785,18.4966407 25.8256938,17.9242713 25.7099018,17.1003683 C25.5941098,16.2764653 26.1697283,15.5149436 26.9956119,15.3988732 C40.5107905,13.4994387 53.0487812,22.9191597 54.9427879,36.3957179 Z M22.9663935,11.8428248 C23.1232416,12.9588569 22.3453408,13.9911661 21.2293087,14.1480142 C20.1122863,14.3050015 19.0799771,13.5271007 18.923129,12.4110686 C18.7662809,11.2950364 19.5440426,10.2617369 20.6610649,10.1047497 C21.7770971,9.9479016 22.8095455,10.7267927 22.9663935,11.8428248 Z M18.6771052,6.75890196 C18.7891395,7.55606775 18.2343648,8.29345367 17.4362087,8.40562718 C16.6390429,8.51766153 15.9025081,7.96175734 15.7904738,7.16459155 C15.6784394,6.36742575 16.2332142,5.63003984 17.03038,5.5180055 C17.828536,5.40583198 18.5650708,5.96173616 18.6771052,6.75890196 Z" id="Shape" fill="#FA0"/>
            </g>
        </g>
    </g>
</svg>
