<svg viewBox="121.3 272.475 955.237 832.563" xmlns="http://www.w3.org/2000/svg" overflow="visible">
    <g id="Master/Character/Avatar" stroke="none" stroke-width="1" fill="none" fill-rule="evenodd">
        <g id="Backdrop" opacity=".75" transform="translate(57.000000, 66.000000) scale(4 4)">
            <g id="Backdrop/Pattern 4" stroke="none" stroke-width="1" fill="none" fill-rule="evenodd">
                <g id="Group-31" transform="translate(135.000000, 176.500000) rotate(35.000000) translate(-135.000000, -176.500000) translate(30.000000, 42.000000)">
                    <polygon id="Fill-1-Copy" fill="#7782FD" points="0 65 55.0333121 269 210 117.084232"/>
                    <path d="M184,65 C184,100.900431 154.676588,130 118.5,130 C82.326001,130 53,100.900431 53,65 C53,29.0995692 82.326001,0 118.5,0 C154.676588,0 184,29.0995692 184,65" id="Fill-8-Copy" fill="#7CE8FF"/>
                </g>
            </g>
        </g>
        <g id="Head" transform="translate(-19.000000, 170.000000) scale(4 4)">
            <g id="Head/Low Bun" stroke="none" stroke-width="1" fill="none" fill-rule="evenodd">
                <g id="Group-28" transform="translate(127.281982, 25.280273)">
                    <path d="M49.1302,87.0232 C49.1302,100.5892 38.1322,111.5872 24.5652,111.5872 C10.9982,111.5872 0.0002,100.5892 0.0002,87.0232 C0.0002,73.4562 10.9982,62.4582 24.5652,62.4582 C38.1322,62.4582 49.1302,73.4562 49.1302,87.0232" id="Fill-1" fill="#6072F4"/>
                    <path d="M47.2083,167.4226 C58.3773,172.1156 88.9733,170.4256 88.9733,170.4256 C88.9733,170.4256 84.4683,149.4496 84.0463,133.9176 C83.9883,131.8026 85.6893,129.7676 87.8033,129.6776 C89.6863,129.5976 94.4643,129.5996 96.5903,129.0506 C129.3483,120.5996 124.7313,60.8056 116.4723,37.3416 C110.8543,21.3836 98.5953,10.8836 88.3163,7.3096 C67.2513,-0.0174 53.4023,4.3056 40.2643,11.6266 C38.7113,12.4906 16.1893,27.6746 15.3453,57.5206 C14.7903,77.1406 27.2973,95.7736 27.3123,95.8126 C28.1093,97.9246 22.6663,105.5266 16.4723,116.5066 C13.4753,121.8186 8.5413,129.5526 4.9283,136.2166 C4.9283,136.2166 24.8713,161.4166 47.2083,167.4226" id="SKIN" fill="#c7763c"/>
                    <path d="M37.3909,74.633 C39.4119,78.134 39.5779,81.824 37.7599,82.873 C35.9419,83.923 32.8289,81.935 30.8079,78.434 C28.7869,74.933 28.6209,71.243 30.4389,70.194 C32.2569,69.144 35.3699,71.132 37.3909,74.633" id="Fill-5" fill="#CDF267"/>
                    <path d="M82.4476,131.1887 C82.4276,131.1727 82.4046,131.1617 82.3856,131.1497 C82.3576,131.1337 82.3346,131.1187 82.3106,131.1067 C82.3656,131.0437 82.4086,130.9697 82.4396,130.8837 C82.4436,130.8717 82.4406,130.8577 82.4446,130.8447 C82.4666,130.8497 82.4916,130.8537 82.5146,130.8577 C82.4806,130.9637 82.4526,131.0727 82.4476,131.1887" id="Fill-7" fill="#a05c2f"/>
                    <polygon id="Fill-9" fill="#45B248" points="81.8558 131.2141 81.8558 131.2311 81.8558 131.2301"/>
                    <path d="M84.5735,131.9577 C85.2175,130.7387 86.6855,129.8817 86.6855,129.8817 C86.6855,129.8817 77.0965,127.4247 68.5915,122.0337 C68.2945,121.8447 67.9705,122.2347 68.2125,122.4917 C75.7975,130.5607 84.0115,134.9497 84.0115,134.9497 C84.0115,134.9497 83.8825,133.2697 84.5735,131.9577" id="Fill-11" fill="#a05c2f"/>
                    <g id="Group-15" transform="translate(11.000000, 0.722000)" fill="#6072F4">
                        <path d="M113.0657,48.6918 C113.0487,48.3958 113.0467,48.1008 113.0367,47.8048 C112.9977,46.8938 112.9317,45.9798 112.8407,45.0708 C112.8307,44.9638 112.8177,44.8568 112.8057,44.7488 C112.7547,44.3078 112.7027,43.8668 112.6467,43.4278 C112.6137,43.2658 112.5777,43.1038 112.5407,42.9448 C112.4777,42.6548 112.4157,42.3698 112.3527,42.0848 C112.3017,41.8598 112.2397,41.6388 112.1847,41.4148 C112.1257,41.1748 112.0617,40.9358 112.0097,40.7218 C112.0077,40.7128 112.0047,40.7028 112.0027,40.6938 C112.0047,40.7038 112.0077,40.7128 112.0117,40.7208 C111.9377,40.4658 111.8647,40.2078 111.7947,39.9488 C111.7317,39.7318 111.6727,39.5108 111.6067,39.2938 C111.5127,38.9818 111.4197,38.6698 111.3217,38.3578 C111.1657,37.8438 110.9977,37.3378 110.8337,36.8278 C110.6697,36.3208 110.5017,35.8108 110.3367,35.3008 C110.3257,35.2648 105.2697,16.9578 90.0947,8.2348 C90.0767,8.2248 90.0607,8.2118 90.0427,8.2018 C81.6197,3.7248 44.6557,-12.3712 15.5517,20.2808 C4.2347,32.9788 -7.6213,56.7988 6.7387,83.1708 C12.6907,94.1028 25.2117,100.4298 27.2927,98.1878 C24.3687,94.0578 21.3627,90.6278 18.3617,87.7118 C11.2287,80.7778 11.0717,72.5458 10.9617,71.4688 C10.9337,71.0128 10.9067,70.5558 10.8997,70.1068 C10.9017,70.0638 10.9027,70.0208 10.9037,69.9768 C10.9267,69.6348 10.9687,69.2928 11.0107,68.9558 C11.0657,68.6268 11.1207,68.2998 11.1887,67.9738 C11.2587,67.6468 11.3567,67.3268 11.4547,67.0068 C11.6307,66.4288 11.8447,65.8608 12.0797,65.2828 C12.4607,64.5628 12.9107,63.8828 13.4107,63.2368 C13.6617,62.9318 13.9147,62.6308 14.1967,62.3558 C14.2257,62.3268 14.2577,62.3018 14.2887,62.2738 C14.3287,62.2458 14.3667,62.2148 14.4077,62.1878 C14.6107,62.0508 14.8097,61.9138 15.0127,61.7728 C15.1657,61.6698 15.3337,61.5788 15.4897,61.4798 C15.5677,61.4328 15.6447,61.3838 15.7227,61.3368 C15.7837,61.3068 15.8427,61.2768 15.9037,61.2478 C16.0017,61.1978 16.0987,61.1408 16.2007,61.0988 C16.3177,61.0508 16.4327,61.0018 16.5467,60.9538 C16.7847,60.8738 17.0217,60.7948 17.2667,60.7298 C17.4987,60.6668 17.7337,60.6188 17.9677,60.5698 C18.0757,60.5568 18.1827,60.5418 18.2907,60.5278 C18.4307,60.5088 18.5797,60.5088 18.7197,60.4978 C18.9937,60.4828 19.2707,60.4898 19.5477,60.4938 C19.7977,60.4978 20.0557,60.5018 20.3057,60.5208 C20.5737,60.5408 20.8367,60.5678 21.1027,60.6008 C21.5717,60.6868 22.0407,60.7748 22.5047,60.8748 C22.7627,60.9278 23.0207,60.9848 23.2707,61.0568 C23.5407,61.1368 23.8057,61.2168 24.0717,61.3008 C24.3137,61.3778 24.5527,61.4648 24.7937,61.5468 C24.9287,61.6038 25.0647,61.6598 25.2017,61.7158 C26.1277,62.1428 27.0257,62.6038 27.8777,63.1548 C28.4907,63.5508 29.0567,64.0388 29.6347,64.4838 C30.5447,65.1878 31.4477,65.9038 32.4087,66.5358 C33.3417,67.1488 34.6277,67.7458 35.7287,67.1638 C36.6387,66.6838 36.7987,65.7098 36.8267,64.8038 C36.8497,63.8518 36.8617,62.8888 36.9707,61.9378 C37.0337,61.6398 37.1197,61.3548 37.2287,61.0688 C37.3417,60.8788 37.4597,60.6918 37.5877,60.5138 C37.6937,60.4028 37.8027,60.2958 37.9197,60.1978 C38.0957,60.0908 38.2717,59.9998 38.4597,59.9198 C38.7757,59.8288 39.0917,59.7558 39.4167,59.7068 C39.9167,59.6718 40.4127,59.6838 40.9127,59.7368 C42.3497,60.0338 43.7447,60.5398 45.1197,61.0618 C46.1237,61.4418 47.1157,61.8498 48.1117,62.2458 C49.9167,62.9618 51.7327,63.7568 53.6307,64.2128 C54.9597,64.5368 56.2837,64.7128 57.6507,64.7888 C59.1237,64.8678 60.6307,64.7808 61.9627,64.0998 C63.3577,63.3838 64.2757,61.8998 64.4127,60.3918 C64.5297,59.0938 64.2837,57.7418 64.0137,56.4708 C63.9047,55.9528 63.7487,55.4428 63.6157,54.9288 C63.2447,53.4828 62.8307,52.0548 62.5997,50.5778 C62.5687,50.1938 62.5647,49.8208 62.5997,49.4368 C62.6427,49.2608 62.6897,49.0938 62.7487,48.9298 C62.8457,48.7698 62.9437,48.6218 63.0527,48.4768 C63.2327,48.2908 63.4237,48.1228 63.6277,47.9628 C63.9277,47.7878 64.2327,47.6318 64.5527,47.4948 C65.0727,47.3318 65.5957,47.2168 66.1387,47.1328 C67.5057,47.0268 68.8697,47.1138 70.2287,47.3008 C71.3697,47.5088 72.4777,47.8298 73.5617,48.2168 C73.6317,48.2528 73.7017,48.2868 73.7717,48.3228 C74.2117,48.6158 74.6597,48.9088 75.1077,49.2018 C76.9597,50.4158 78.7677,51.7248 80.5377,53.0538 C82.4087,54.4508 84.2987,55.8138 86.2527,57.0998 C87.3737,57.8418 88.5257,58.5008 89.7327,59.1028 C90.6157,59.5448 91.5407,59.9268 92.4607,60.3018 C93.5447,60.7428 95.3707,61.2748 96.5237,61.4708 C97.0107,61.5528 97.5027,61.6238 97.9977,61.6808 C98.1617,61.7138 98.3247,61.7508 98.4887,61.7798 C98.9687,61.8678 99.4577,61.9248 99.9457,61.9328 C100.4497,61.9398 100.9537,61.9438 101.4617,61.9398 C102.1527,61.9328 102.9577,61.6928 103.6097,61.4988 C104.9587,61.0928 106.2017,60.4198 107.3777,59.6608 C107.7707,59.4058 108.1417,59.1188 108.4927,58.8078 C109.2057,58.1758 109.9287,57.4908 110.5007,56.6978 C111.1527,55.7928 111.7387,54.8028 112.1757,53.7748 C112.4217,53.1958 112.3837,53.8818 112.5677,53.2768 C112.5717,53.2428 112.8207,51.9208 112.8247,51.8868 L112.9067,51.2928 C112.9867,50.7268 113.0327,50.1548 113.0747,49.5848 C113.0717,49.2868 113.0687,48.9898 113.0657,48.6918" id="Fill-13"/>
                    </g>
                    <path d="M123.012,41.4411 L123.012,41.4431 L123.013,41.4431 C123.012,41.4421 123.012,41.4411 123.012,41.4411" id="Fill-16" fill="#2E0BFF"/>
                    <path d="M123.012,41.4431 L123.012,41.4431 C123.012,41.4431 123.013,41.4431 123.013,41.4431 C123.013,41.4431 123.013,41.4431 123.012,41.4431" id="Fill-18" fill="#2E0BFF"/>
                    <path d="M25.6653,149.6657 C25.6753,149.6667 25.6843,149.6677 25.6933,149.6687 C25.7433,149.6777 25.7943,149.6867 25.8453,149.6957 C25.7853,149.6857 25.7263,149.6757 25.6653,149.6657" id="Fill-20" fill="#2E0BFF"/>
                    <path d="M33.4915,93.5749 C33.2235,93.5749 32.9575,93.4689 32.7615,93.2579 C23.2215,83.0449 19.2825,74.6139 21.0525,68.1969 C22.7125,62.1739 28.7565,60.3639 29.0125,60.2899 C29.5445,60.1359 30.0965,60.4429 30.2515,60.9719 C30.4045,61.5019 30.0995,62.0559 29.5705,62.2099 C29.5175,62.2259 24.3245,63.8069 22.9735,68.7489 C21.4395,74.3679 25.3295,82.3709 34.2215,91.8919 C34.5985,92.2959 34.5775,92.9289 34.1745,93.3059 C33.9815,93.4859 33.7365,93.5749 33.4915,93.5749" id="Fill-22" fill="#FFF"/>
                    <path d="M117.5833,50.3088 C117.0803,50.3088 116.6463,49.9308 116.5903,49.4188 C115.1303,36.2568 107.5033,19.6528 95.7503,13.3868 C95.2633,13.1268 95.0783,12.5208 95.3383,12.0338 C95.5993,11.5468 96.2013,11.3608 96.6913,11.6218 C109.0553,18.2138 117.0613,35.5158 118.5783,49.1988 C118.6393,49.7468 118.2433,50.2418 117.6943,50.3028 C117.6573,50.3068 117.6193,50.3088 117.5833,50.3088" id="Fill-24" fill="#FFF"/>
                    <path d="M4.50071171,83.1648526 L4.6174234,83.1697648 C5.16696618,83.22473 5.56790048,83.7147806 5.51293522,84.2643234 L5.48478729,84.6656895 C5.33256915,87.4401359 5.64475896,90.7638945 6.79532829,93.9145931 C8.27789162,97.9744182 10.9149217,100.923191 14.9882658,102.368357 C15.5087629,102.553022 15.7810085,103.124669 15.5963434,103.645166 C15.4116783,104.165663 14.8400313,104.437908 14.3195342,104.253243 C9.63782283,102.592238 6.59078053,99.1849819 4.91667403,94.6006384 C3.65793828,91.1537388 3.32202821,87.5774402 3.4877906,84.5561256 L3.52286478,84.0652766 C3.57390394,83.5549869 4.00009322,83.1728341 4.50071171,83.1648526 Z" id="Stroke-26" fill="#FFF" fill-rule="nonzero"/>
                </g>
            </g>
        </g>
        <g id="Face" transform="translate(753.000000, 466.000000) scale(4 4)">
            <g id="Face/Unisex Hearts" stroke="none" stroke-width="1" fill="none" fill-rule="evenodd">
                <g id="Group-16" transform="translate(10.598267, 11.500000)">
                    <path d="M23.6149,12.2411 C21.0189,8.8371 17.6579,13.0011 16.9699,13.9291 C16.5689,12.9481 14.3189,7.9751 10.9339,10.6781 C7.2569,13.6161 15.5849,22.3701 15.8839,22.6811 L15.8819,22.6951 C15.8819,22.6951 15.8889,22.6901 15.8909,22.6891 C15.8919,22.6901 15.8979,22.6971 15.8979,22.6971 L15.8999,22.6831 C16.2629,22.4541 26.4689,15.9831 23.6149,12.2411" id="Fill-1" fill="#7881FC"/>
                    <path d="M45.7478,15.681 C45.0438,15.486 44.6588,15.323 43.7678,16.034 C41.6318,17.74 43.3498,21.334 45.3788,23.999 C45.7388,21.155 45.6528,15.958 45.7478,15.681" id="Fill-3" fill="#7881FC"/>
                    <path d="M45.7648,8.4715 C45.6598,5.9495 45.4718,5.4455 45.4718,5.4455 C43.6848,5.5265 42.9648,5.6235 41.7228,5.7435 C40.1828,5.8915 38.8678,6.9525 38.4568,8.4455 C38.4528,8.4615 38.4488,8.4775 38.4438,8.4935 C38.0038,10.1255 38.0177499,11.5505 38.0177499,11.5505 L45.7528,11.4045 C45.7528,11.4045 45.8388,10.2345 45.7648,8.4715" id="Fill-5" fill="#2E0BFF"/>
                    <path d="M29.0744,42.1434 L23.3404,41.1924 C23.0684,41.1474 22.8834,40.8904 22.9284,40.6184 C22.9734,40.3454 23.2294,40.1584 23.5034,40.2064 L28.2454,40.9924 L32.5334,14.1744 C32.5764,13.9024 32.8344,13.7154 33.1064,13.7604 C33.3784,13.8034 33.5644,14.0604 33.5204,14.3324 L29.0744,42.1434 Z" id="Fill-7" fill="#FFF"/>
                    <g id="Group-11" transform="translate(0.000000, 0.687400)" fill="#2E0BFF">
                        <path d="M0.2526,3.8291 C-0.0534,3.7741 -0.0944,3.3501 0.1996,3.2461 C2.3716,2.4811 7.4666,0.7981 11.3616,0.3761 C15.0406,-0.0229 21.6696,1.5571 25.0546,2.4601 C26.5496,2.8601 27.6726,4.1221 27.8326,5.6621 C27.8346,5.6781 27.8356,5.6951 27.8376,5.7121 C28.0036,7.3931 27.7556,8.7971 27.7556,8.7971 L0.2526,3.8291 Z" id="Fill-9"/>
                    </g>
                    <path d="M10.9582,47.9667 C10.9582,47.9667 18.0422,53.7327 21.9372,54.5297 C25.8332,55.3277 28.9182,52.8287 28.9182,52.8287 L10.9582,47.9667 Z" id="Fill-12" fill="#D7D8FF"/>
                    <path d="M10.6765,47.8612 C10.6765,47.8612 13.4765,48.3602 15.0405,48.2832 C18.1705,48.1312 22.0975,48.4952 22.7475,48.6532 C23.3045,48.7872 27.0155,49.6642 27.6395,50.5532 C27.9575,51.0072 28.0965,51.3742 28.2615,51.8902 C28.4815,52.5832 28.9185,52.8292 28.9185,52.8292 L10.6765,47.8612 Z" id="Fill-14" fill="#7881FC"/>
                </g>
            </g>
        </g>
        <g id="Facial Hair" transform="translate(781.000000, 654.000000) scale(4 4)" fill="#000">
            <g id="Facial Hair/Curly Mustache" stroke="none" stroke-width="1" fill="none" fill-rule="evenodd">
                <g id="Group-6" fill="#2E0BFF">
                    <path d="M30.761,8.2165 C30.761,8.2165 36.396,4.3485 44.876,8.9705 C53.356,13.5915 54.09,14.4105 61.713,14.8375 C38.441,17.9385 30.761,8.2165 30.761,8.2165" id="Fill-1"/>
                    <g id="Group-5" transform="translate(0.000000, 0.448100)">
                        <path d="M30.82,7.7586 C30.82,7.7586 27.372,1.8576 17.731,2.4236 C8.09,2.9876 7.077,3.4156 0,0.5516 C19.729,13.2796 30.82,7.7586 30.82,7.7586" id="Fill-3"/>
                    </g>
                </g>
            </g>
        </g>
        <g id="Earrings" transform="translate(541.000000, 566.000000) scale(4 4)">
            <g id="Earrings/Circular Drops" stroke="none" stroke-width="1" fill="none" fill-rule="evenodd">
                <g id="Group-13" transform="translate(18.000000, 14.500000)">
                    <path d="M23.38,11.6902 C23.38,18.1472 18.147,23.3802 11.691,23.3802 C5.234,23.3802 0,18.1472 0,11.6902 C0,5.2342 5.234,0.0002 11.691,0.0002 C18.147,0.0002 23.38,5.2342 23.38,11.6902" id="Fill-1" fill="#CEF367"/>
                    <path d="M19.3302,29.7102 C19.3302,34.0072 15.8472,37.4902 11.5502,37.4902 C7.2522,37.4902 3.7692,34.0072 3.7692,29.7102 C3.7692,25.4132 7.2522,21.9302 11.5502,21.9302 C15.8472,21.9302 19.3302,25.4132 19.3302,29.7102" id="Fill-3" fill="#CEF367"/>
                    <path d="M16.5128,41.8171 C16.5128,44.5581 14.2908,46.7801 11.5498,46.7801 C8.8078,46.7801 6.5858,44.5581 6.5858,41.8171 C6.5858,39.0761 8.8078,36.8541 11.5498,36.8541 C14.2908,36.8541 16.5128,39.0761 16.5128,41.8171" id="Fill-5" fill="#CEF367"/>
                    <path d="M17.3214,11.6902 C17.3214,14.8002 14.8004,17.3212 11.6904,17.3212 C8.5804,17.3212 6.0584,14.8002 6.0584,11.6902 C6.0584,8.5802 8.5804,6.0592 11.6904,6.0592 C14.8004,6.0592 17.3214,8.5802 17.3214,11.6902" id="Fill-7" fill="#2E0BFF"/>
                    <path d="M15.3556,29.7102 C15.3556,31.7342 13.7146,33.3752 11.6906,33.3752 C9.6666,33.3752 8.0246,31.7342 8.0246,29.7102 C8.0246,27.6862 9.6666,26.0442 11.6906,26.0442 C13.7146,26.0442 15.3556,27.6862 15.3556,29.7102" id="Fill-9" fill="#c7763c"/>
                    <path d="M13.712,41.9577 C13.712,43.0747 12.807,43.9787 11.691,43.9787 C10.573,43.9787 9.669,43.0747 9.669,41.9577 C9.669,40.8417 10.573,39.9367 11.691,39.9367 C12.807,39.9367 13.712,40.8417 13.712,41.9577" id="Fill-11" fill="#5350D1"/>
                </g>
            </g>
        </g>
    </g>
</svg>
