<svg viewBox="623.14 0 1422.384 2708" xmlns="http://www.w3.org/2000/svg" overflow="visible">
    <g id="Master/Women Character/Standing" stroke="none" stroke-width="1" fill="none" fill-rule="evenodd">
        <g id="Women Lower Body" transform="translate(268.000000, 1031.000000) scale(1 1)">
            <g id="Women Lower Body/Lower 4" stroke="none" stroke-width="1" fill="none" fill-rule="evenodd">
                <g id="Lower" transform="translate(597.000000, -1.000000)">
                    <g id="Group-46-Copy" transform="translate(12.000000, 109.000000)">
                        <path d="M47.408863,0 C47.408863,0 -22.7170238,228.446076 7.60714335,499.725051 C37.9323107,771.004026 89.105093,1321.72165 89.105093,1321.72165 L204.719231,1321.72165 C204.719231,1321.72165 214.195783,799.559651 231.253377,622.106147 C248.310971,444.652643 255.892013,318.191711 255.892013,318.191711 L278.650853,106.996286 L335.184206,523.508677 C335.184206,523.508677 490.90931,1174.86369 506.072394,1336 L616,1333.95901 C616,1333.95901 553.454155,365.105523 542.083092,291.676004 C530.711029,218.246485 447.317569,22.4369469 447.317569,22.4369469 L47.408863,0 Z" id="Fill-1" fill="#7d4439"/>
                        <path d="M64.0786607,1051 C56.8556484,1051 51,1045.68588 51,1039.1322 L51,1024.78041 C51,1018.22673 56.8556484,1008 64.0786607,1008 L210.44482,1008 C217.667833,1008 220,1018.22673 220,1024.78041 C220,1039.1322 211.323115,1051 204.100103,1051 L64.0786607,1051 Z" id="Fill-3" fill="#8C5AFF"/>
                        <path d="M218.068418,1057.47881 C216.877443,1058.76434 215.226091,1059.55816 213.404599,1059.55816 L211.432985,1059.55816 L208.61881,1431 L87.8899474,1431 L61.5069662,1058.1312 L59.5954008,1058.1312 C55.9524177,1058.1312 53,1054.96022 53,1051.06078 C53,1049.11106 53.7406065,1047.34238 54.9315817,1046.06863 C56.122557,1044.79274 57.7739093,1044 59.5954008,1044 L213.404599,1045.42696 C217.047582,1045.42696 220,1048.58722 220,1052.48774 C220,1054.43639 219.259394,1056.20506 218.068418,1057.47881 Z" id="Fill-5" fill="#8B94FF"/>
                        <path d="M28.1807148,1555.98457 C28.1807148,1555.98457 26.0457886,1519.49436 36.4519261,1515.47129 C46.8580637,1511.44931 223,1506 223,1506 L222.689429,1543.91646 C222.689429,1543.91646 169.860273,1558.85865 123.967874,1560.58266 C78.0754745,1562.3056 29.515169,1558.28362 28.1807148,1555.98457" id="Fill-7" fill="#000"/>
                        <path d="M222.849558,1506.70355 C222.87957,1508.76969 222.899577,1509.94621 222.899577,1509.94621 C222.899577,1509.94621 188.296291,1517.85857 158.724937,1521.10123 C129.153583,1524.33533 42.1301697,1528.28455 36.4179765,1520.37433 C31.6961635,1513.83227 68.2702064,1460.17792 81.1151383,1441.73253 C78.3240666,1440.34083 76.3833215,1437.3005 76.3833215,1433.77842 C76.3833215,1431.35793 77.3036749,1429.15369 78.7842433,1427.56929 C80.2648118,1425.9849 82.3256031,1425 84.5864711,1425 L215.79685,1425 C220.32859,1425 224,1428.92888 224,1433.77842 C224,1436.19784 223.079647,1438.40208 221.599078,1439.98755 C221.038863,1440.58598 220.398617,1441.10091 219.698348,1441.50771 C221.829166,1458.06788 222.639478,1495.47359 222.849558,1506.70355" id="Fill-9" fill="#C54ABB"/>
                        <path d="M47.5982968,1494.6239 C47.5982968,1494.6239 27.9018882,1517.69276 37.7645612,1521.41671 C47.6272342,1525.14283 125.009902,1528.45409 153.459383,1523.48774 L181.908864,1518.51922 C181.908864,1518.51922 184.100126,1504.85822 166.993118,1491.07309 C154.766557,1481.21988 146.807767,1467.64816 135.428373,1465.16444 C124.047982,1462.68073 102.095452,1461.35448 92.2327794,1466.73569 C82.3711042,1472.1169 65.3159841,1483.10145 47.5982968,1494.6239" id="Fill-11" fill="#FC7FF2"/>
                        <path d="M187,1472.78955 C187,1472.78955 188.478338,1502.77312 199.198026,1501.98472 C209.917715,1501.19526 214.454991,1455.42992 220,1442.01652 C220,1442.01652 214.652566,1440.47999 205.601841,1467.04292 C201.022865,1480.48281 202.155695,1494.88382 187,1472.78955" id="Fill-13" fill="#FFF"/>
                        <path d="M82.6860403,1458.00616 C91.4946467,1455.31138 101.299682,1453.78516 111.824758,1454.02393 C125.45409,1454.33313 139.217958,1457.60587 152.795377,1464.42556 C154.769486,1465.41712 155.565999,1467.82127 154.57444,1469.79538 C153.582881,1471.76949 151.178732,1472.566 149.204623,1471.57444 C136.713825,1465.30054 124.114946,1462.30481 111.643317,1462.02187 C102.023315,1461.80363 93.057694,1463.19919 85.0263827,1465.65618 C82.4272149,1466.45133 80.1255792,1467.30006 78.1515533,1468.14345 L77.5032947,1468.42562 C77.2976166,1468.5169 77.1023927,1468.6053 76.9177621,1468.69056 L76.2835864,1468.99093 L75.8811701,1469.19238 C73.9315815,1470.23132 71.5088991,1469.4931 70.4699576,1467.54351 C69.4310161,1465.59392 70.1692414,1463.17124 72.1188299,1462.1323 L72.5292218,1461.92089 C73.1016531,1461.6342 73.9326001,1461.24641 75.0084664,1460.78675 C77.2378261,1459.83428 79.8063176,1458.88714 82.6860403,1458.00616 Z" id="Stroke-15" fill="#FFF" fill-rule="nonzero"/>
                        <path d="M93.6857916,1432.0057 C102.494373,1429.31114 112.299409,1427.78509 122.824502,1428.02395 C136.453899,1428.33326 150.21784,1431.60599 163.795338,1438.42554 C165.769457,1439.41708 166.565997,1441.82122 165.57446,1443.79534 C164.582922,1445.76946 162.178782,1446.566 160.204662,1445.57446 C147.713746,1439.30067 135.114741,1436.30493 122.642994,1436.02189 C113.022934,1435.80357 104.057279,1437.19898 96.0259645,1439.65578 C93.4268797,1440.45084 91.1253197,1441.29948 89.1513604,1442.14277 L88.5031241,1442.42491 C88.091782,1442.60744 87.7222559,1442.77849 87.3956568,1442.93584 L86.8810579,1443.19158 C84.9314363,1444.23046 82.5087774,1443.49216 81.4698978,1441.54254 C80.4310183,1439.59292 81.1693205,1437.17026 83.1189421,1436.13138 L83.5293201,1435.91999 C84.1017321,1435.63333 84.9326506,1435.24559 86.0084802,1434.78598 C88.2377625,1433.83361 90.8061661,1432.88659 93.6857916,1432.0057 Z" id="Stroke-17" fill="#FFF" fill-rule="nonzero"/>
                        <path d="M89.7033784,1439.78906 C98.5146002,1436.9883 108.363976,1435.53137 118.934686,1436.13086 C132.746965,1436.91419 146.60063,1441.17932 160.116217,1449.60565 C161.990866,1450.7744 162.563106,1453.24157 161.394352,1455.11622 C160.225597,1456.99087 157.758432,1457.56311 155.883783,1456.39435 C143.527747,1448.69095 130.975874,1444.82661 118.481714,1444.11803 C108.947553,1443.57732 100.057181,1444.8924 92.1267928,1447.41317 C89.7926485,1448.1551 87.7267972,1448.9467 85.9565573,1449.73271 C85.4499557,1449.95764 85.0015353,1450.16726 84.613266,1450.35752 L83.9382282,1450.70126 C82.0057625,1451.77171 79.5714152,1451.07292 78.5009614,1449.14045 C77.4305075,1447.20798 78.1293061,1444.77364 80.0617718,1443.70318 L80.3226805,1443.56218 C80.8027677,1443.30823 81.5082902,1442.96131 82.4278218,1442.54725 L82.7100901,1442.42104 C84.7415961,1441.51903 87.0810115,1440.62261 89.7033784,1439.78906 Z" id="Stroke-19" fill="#FFF" fill-rule="nonzero"/>
                        <path d="M88.8410046,1452.33992 C108.605981,1443.62605 131.290953,1441.78671 155.442087,1451.12147 C157.502663,1451.91791 158.527446,1454.23399 157.731003,1456.29456 C156.934561,1458.35514 154.61849,1459.37992 152.557913,1458.58348 C130.556473,1450.0796 110.02246,1451.74454 92.0682754,1459.66008 C88.7708326,1461.11384 85.8541618,1462.66771 83.3548953,1464.21406 L82.643853,1464.66122 C82.1891346,1464.95203 81.7731769,1465.22782 81.3968263,1465.48606 L80.7768389,1465.92089 L80.4503739,1466.16159 C78.7042745,1467.5149 76.1917115,1467.19647 74.8384074,1465.45037 C73.4851033,1463.70427 73.8035267,1461.19171 75.5496261,1459.83841 C76.2215829,1459.31761 77.4309931,1458.47185 79.1456684,1457.41094 C81.9496869,1455.67604 85.1920251,1453.94866 88.8410046,1452.33992 Z" id="Stroke-21" fill="#FFF" fill-rule="nonzero"/>
                        <path d="M591.398704,1042.25242 C598.219258,1041.65098 603.399895,1030.76967 602.968683,1017.95161 L602.962839,1017.75432 C602.531614,1004.93411 596.653556,995.032464 589.831859,995.633892 L451.922555,1008.57882 C445.100859,1009.18025 441.762508,1018.99818 442.193734,1031.81839 C442.623804,1044.63644 452.352882,1054.53614 459.173423,1053.93256 L591.398704,1042.25242 Z" id="Fill-23" fill="#8C5AFF" transform="translate(522.575223, 1024.783320) rotate(3.000000) translate(-522.575223, -1024.783320)"/>
                        <path d="M449.18228,1063.13212 C450.436224,1064.35184 452.128899,1065.05556 453.953091,1064.95686 L455.928881,1064.84852 L512.049105,1443 L633,1436.41549 L597.808454,1058.24577 L599.724007,1058.14171 C603.373396,1057.94218 606.180464,1054.61023 605.994732,1050.7108 C605.901364,1048.76055 605.075106,1047.03236 603.821162,1045.82338 C602.567218,1044.61332 600.874544,1043.9096 599.050351,1044.00936 L453.279435,1050.82452 C449.630046,1051.02405 446.822978,1054.34419 447.00871,1058.24577 C447.102078,1060.19387 447.928336,1061.92314 449.18228,1063.13212 Z" id="Fill-25" fill="#8B94FF"/>
                        <path d="M698.997912,1557.16978 C698.997912,1557.16978 699.405806,1520.78022 688.819596,1517.35055 C678.233386,1513.9198 502,1518.10757 502,1518.10757 L504.101608,1555.78138 C504.101608,1555.78138 557.587875,1567.75088 603.518576,1566.96272 C649.449278,1566.17348 697.773227,1559.52674 698.997912,1557.16978" id="Fill-27" fill="#000"/>
                        <path d="M501.631215,1518.27747 C501.699308,1520.36895 501.735358,1521.56053 501.735358,1521.56053 C501.735358,1521.56053 536.705274,1527.65501 566.420992,1529.30522 C596.137711,1530.94566 683.322174,1530.14116 688.655481,1521.824 C693.064523,1514.94778 653.948925,1462.69417 640.230128,1444.74466 C642.95386,1443.18336 644.74932,1440.00222 644.582091,1436.43942 C644.466933,1433.99122 643.441528,1431.81191 641.886397,1430.29181 C640.330265,1428.76954 638.223378,1427.88698 635.963281,1428.01166 L504.793548,1435.24676 C500.263341,1435.49614 496.779567,1439.67369 497.010884,1444.57877 C497.126042,1447.02589 498.150445,1449.2052 499.706578,1450.72638 C500.294383,1451.30211 500.959294,1451.78677 501.678279,1452.15974 C500.336441,1469.02827 501.30677,1506.90709 501.631215,1518.27747" id="Fill-29" fill="#C54ABB"/>
                        <path d="M676.344257,1496.79462 C676.344257,1496.79462 697.111731,1518.52873 687.425704,1522.75628 C677.739676,1526.98383 600.533138,1534.51468 571.858621,1531.165 L543.185103,1527.81747 C543.185103,1527.81747 540.356308,1514.42413 556.815662,1499.84773 C568.579336,1489.42985 575.902041,1475.5663 587.163284,1472.48408 C598.423528,1469.40293 620.308736,1466.88366 630.420281,1471.66337 C640.530828,1476.44417 658.093932,1486.37135 676.344257,1496.79462" id="Fill-31" fill="#FC7FF2"/>
                        <path d="M536,1482.07304 C536,1482.07304 535.951546,1512.20526 525.028178,1511.99895 C514.10582,1511.79157 507.279851,1466.16998 501,1453.02768 C501,1453.02768 506.355186,1451.19639 516.832372,1477.32679 C522.134056,1490.54779 521.681818,1505.04282 536,1482.07304" id="Fill-33" fill="#FFF"/>
                        <path d="M611.268984,1459.18739 C621.860443,1458.48936 631.731091,1459.74774 640.545467,1462.27813 C642.807966,1462.92764 644.850857,1463.62138 646.656615,1464.32317 L647.249728,1464.55735 C648.44953,1465.03864 649.304511,1465.42552 649.790532,1465.66882 C651.765983,1466.6577 652.565753,1469.06077 651.576869,1471.03622 C650.618888,1472.94994 648.333729,1473.76031 646.395863,1472.91004 L645.778587,1472.62158 L645.234967,1472.38198 C644.943239,1472.25651 644.621791,1472.12284 644.271319,1471.98225 C642.569725,1471.29967 640.583321,1470.61212 638.338024,1469.96755 C630.365916,1467.67896 621.405911,1466.53667 611.795082,1467.17007 C599.148599,1468.00354 586.483276,1471.8679 574.079575,1479.41692 C572.19246,1480.56544 569.731594,1479.96669 568.583076,1478.07957 C567.434559,1476.19246 568.03331,1473.73159 569.920425,1472.58308 C583.449623,1464.34907 597.363167,1460.10385 611.268984,1459.18739 Z" id="Stroke-35" fill="#FFF" fill-rule="nonzero"/>
                        <path d="M599.26874,1434.18735 C609.860184,1433.48939 619.730836,1434.7479 628.54524,1437.27848 C631.059215,1438.00023 633.30206,1438.77659 635.249736,1439.55793 L636.025008,1439.87548 C636.82455,1440.2102 637.416753,1440.48234 637.790628,1440.66951 C639.766052,1441.65845 640.565758,1444.06154 639.576821,1446.03696 C638.618789,1447.95065 636.333608,1448.76096 634.395764,1447.91065 L633.983154,1447.71579 L633.778474,1447.62215 C633.35881,1447.43224 632.855292,1447.21709 632.271152,1446.98276 C630.569499,1446.30011 628.583027,1445.61249 626.337656,1444.96786 C618.365543,1442.6791 609.405566,1441.5367 599.794788,1442.17003 C587.148415,1443.00341 574.483206,1446.86778 562.079609,1454.4169 C560.192505,1455.56544 557.731633,1454.96671 556.583097,1453.07961 C555.434561,1451.19251 556.033288,1448.73163 557.920391,1447.5831 C571.449514,1439.34895 585.362987,1435.10372 599.26874,1434.18735 Z" id="Stroke-37" fill="#FFF" fill-rule="nonzero"/>
                        <path d="M603.725533,1442.39074 C614.439358,1441.36768 624.421966,1442.383 633.287837,1444.70622 C635.563832,1445.30262 637.593934,1445.94444 639.356751,1446.59073 L640.114167,1446.87477 C640.812528,1447.14302 641.332719,1447.36196 641.665685,1447.51447 C643.674171,1448.4344 644.55662,1450.80835 643.636687,1452.81684 C642.745503,1454.76256 640.489755,1455.65152 638.523626,1454.86883 L637.954436,1454.62586 L637.467482,1454.42963 C637.205995,1454.32681 636.917631,1454.21719 636.603006,1454.10185 C635.072785,1453.54083 633.28414,1452.97535 631.259979,1452.44494 C623.255811,1450.34752 614.202342,1449.4267 604.485992,1450.35451 C591.557667,1451.58904 578.693217,1456.01344 566.218521,1464.32839 C564.380303,1465.55364 561.896867,1465.05674 560.671612,1463.21852 C559.446357,1461.3803 559.943261,1458.89687 561.781479,1457.67161 C575.379544,1448.60789 589.509584,1443.74822 603.725533,1442.39074 Z" id="Stroke-39" fill="#FFF" fill-rule="nonzero"/>
                        <path d="M566.424789,1458.72746 C590.955701,1448.21789 614.381255,1449.04203 634.9044,1456.75574 C638.266174,1458.01927 641.259793,1459.37676 643.853976,1460.74089 L644.464801,1461.06598 C645.734243,1461.75001 646.651549,1462.29905 647.196183,1462.65683 C649.042564,1463.86975 649.556088,1466.3498 648.343169,1468.19618 C647.169377,1469.983 644.808883,1470.52157 642.984413,1469.45517 L642.543461,1469.1799 C642.448095,1469.12151 642.330171,1469.0503 642.190028,1468.96712 L641.669452,1468.66395 C641.212821,1468.40275 640.699357,1468.12067 640.130631,1467.82161 C637.821965,1466.60762 635.130121,1465.38698 632.089807,1464.24426 C613.368989,1457.20797 592.037908,1456.45752 569.575211,1466.08102 C567.544582,1466.95098 565.193185,1466.01008 564.32322,1463.97945 C563.453255,1461.94882 564.394159,1459.59742 566.424789,1458.72746 Z" id="Stroke-41" fill="#FFF" fill-rule="nonzero"/>
                    </g>
                    <path d="M60.0653598,1.14056788 C43.4305297,62.7537555 27.3102003,154.560086 11.7043715,276.55956 C-3.90145718,398.559033 -3.90145718,520.372514 11.7043715,642 L257.54805,642 C272.766871,418.713209 284.390348,307.069813 292.41848,307.069813 C300.446613,307.069813 317.058964,418.713209 342.255534,642 L581,625.421568 C571.528166,476.12712 559.655116,352.815665 545.380851,255.487206 C531.106585,158.158747 512.722964,72.9963446 490.229988,0 L60.0653598,1.14056788 Z" id="Path-56" fill="#000"/>
                </g>
            </g>
        </g>
        <g id="Women Head" transform="translate(654.000000, 0.000000) scale(1 1)">
            <g id="Women Head/Head 4" stroke="none" stroke-width="1" fill="none" fill-rule="evenodd">
                <g id="Head" transform="translate(310.000000, -9.000000)">
                    <g id="Group-281">
                        <g id="Group-2">
                            <path d="M218.7389,380.5533 C155.1799,372.8833 109.3099,331.1853 102.8859,262.0123 C84.4099,264.9473 80.0519,216.9083 85.1969,201.4763 C90.3479,186.0223 107.1619,195.0583 107.1619,195.0583 L106.8989,199.2513 C107.6769,195.3513 108.5579,191.3953 109.5359,187.3883 C137.2999,73.7503 215.0659,78.2573 215.0659,78.2573 C357.9619,85.6853 324.4799,231.2543 316.3159,269.8723 C308.1509,308.4943 280.1809,387.9603 218.7389,380.5533 Z" id="Fill-246" fill="#7d4439"/>
                            <g id="Group-3" transform="translate(178.487878, 203.286739)">
                                <path d="M35.7176221,25.4146614 C35.7176221,28.7276614 33.0316221,31.4146614 29.7176221,31.4146614 C26.4046221,31.4146614 23.7176221,28.7276614 23.7176221,25.4146614 C23.7176221,22.1006614 26.4046221,19.4146614 29.7176221,19.4146614 C33.0316221,19.4146614 35.7176221,22.1006614 35.7176221,25.4146614" id="Fill-248" fill="#000"/>
                                <path d="M109.217622,36.9146614 C109.217622,40.2276614 106.531622,42.9146614 103.217622,42.9146614 C99.9046221,42.9146614 97.2176221,40.2276614 97.2176221,36.9146614 C97.2176221,33.6006614 99.9046221,30.9146614 103.217622,30.9146614 C106.531622,30.9146614 109.217622,33.6006614 109.217622,36.9146614" id="Fill-250" fill="#000"/>
                                <path d="M9.81063337,22.0007128 C-2.78367258,11.2696695 -3.25211445,4.32503765 8.40530777,1.16681739 C25.8914411,-3.570513 49.5121221,7.01006142 49.5121221,16.8616614 C49.5121221,23.4293948 48.7248051,27.2445427 47.1501712,28.3071051 C41.7903931,21.8378725 37.0107738,18.6032562 32.8113131,18.6032562 C28.6118525,18.6032562 20.9449592,19.7357417 9.81063337,22.0007128 Z" id="Path-125" fill="#DE8383"/>
                                <path d="M98.387853,34.7173859 C85.793547,23.9863425 85.3251052,17.0417107 96.9825274,13.8834904 C114.468661,9.14616004 138.089342,19.7267345 138.089342,29.5783345 C138.089342,36.1460678 137.008369,39.5460338 134.846422,39.7782325 C130.073957,34.1393636 125.587993,31.3199292 121.388533,31.3199292 C117.189072,31.3199292 109.522179,32.4524148 98.387853,34.7173859 Z" id="Path-125" fill="#DE8383" transform="translate(113.333281, 26.247453) scale(-1, 1) rotate(-6.000000) translate(-113.333281, -26.247453)"/>
                                <path d="M46.7951352,76.9369345 C48.6446024,80.8091548 52.6455517,83.2636137 59.1033478,84.2466942 C65.5266506,85.2245237 70.0207456,84.6138154 72.6484083,82.6311229 L72.8419844,82.4798518 L75.9875264,86.3664398 C72.09136,89.5197339 66.1899368,90.3831011 58.3508592,89.1897459 C50.5449956,88.001447 45.1473747,84.7621805 42.4454033,79.4214825 L42.2833471,79.0918749 L46.7951352,76.9369345 Z" id="Path-108" fill="#000" fill-rule="nonzero"/>
                                <ellipse id="Oval" fill="#000" transform="translate(49.512122, 121.713261) rotate(13.000000) translate(-49.512122, -121.713261)" cx="49.512" cy="121.713" rx="10" ry="15"/>
                                <path d="M109.217622,28.9146614 C116.626,28.9146614 122.684618,31.0548426 127.256652,35.3577779 L127.580696,35.6688089 L124.083162,39.2419388 C120.46313,35.6984952 115.556894,33.9146614 109.217622,33.9146614 C102.922406,33.9146614 97.0937501,35.5141693 91.685768,38.726891 L91.1637266,39.0428361 L88.540086,34.7864867 C94.8825341,30.8769617 101.79187,28.9146614 109.217622,28.9146614 Z" id="Path-110" fill="#000" fill-rule="nonzero"/>
                                <path d="M7.59158395,19.485013 C17.4285815,16.0987781 26.2661017,15.2430168 34.0840304,16.9737599 C41.9791939,18.7216013 47.1566777,22.0370712 49.3381152,27.060398 L49.4679268,27.3700837 L44.8324156,29.2441265 C43.4522307,25.8301902 39.6077755,23.3176723 33.0032906,21.855563 C26.3273438,20.3776333 18.6248308,21.0716747 9.8770735,23.9897173 L9.21903158,24.2127413 L7.59158395,19.485013 Z" id="Path-111" fill="#000" fill-rule="nonzero"/>
                            </g>
                            <path d="M234.7006,209.0334 C234.7006,209.0334 205.8096,201.0274 198.2786,198.7504 C190.7476,196.4734 189.1706,194.8974 180.2386,195.7724 C171.3056,196.6484 161.1476,198.5754 159.5716,196.8234 C157.9946,195.0724 177.9616,186.3144 184.6176,185.4394 C191.2726,184.5634 230.5816,188.6604 235.6186,198.4094 C239.6846,206.2794 234.7006,209.0334 234.7006,209.0334" id="Fill-252" fill="#000"/>
                            <path d="M269.0551,212.8704 C269.0551,212.8704 269.6821,206.5954 277.3381,203.8344 C284.9931,201.0734 311.7231,205.5914 313.7311,207.0974 C315.7391,208.6034 319.3781,212.2424 320.0051,220.1484 C320.0051,220.1484 317.1111,214.1264 311.8401,213.1224 C306.5691,212.1184 290.1381,216.6354 279.7221,216.5094 C269.3061,216.3844 268.8041,215.1294 269.0551,212.8704" id="Fill-260" fill="#000"/>
                            <path d="M163.695726,364.567216 L165.163474,361.950784 L166.092749,362.455175 L166.544365,362.69449 C167.682402,363.293944 168.999861,363.962793 170.479801,364.683692 C174.713092,366.745786 179.394086,368.808679 184.386639,370.733711 C195.874021,375.163024 207.228225,378.18714 217.804137,379.169299 C222.605425,379.615183 227.15867,379.626208 231.426537,379.168124 L232.276294,379.070242 L232.642906,382.047758 C227.905584,382.631049 222.852737,382.651059 217.526728,382.156446 C206.640628,381.145481 195.031656,378.053508 183.307349,373.532841 C178.230685,371.575378 173.472467,369.478453 169.166036,367.380731 C167.845693,366.737574 166.650491,366.134187 165.591646,365.582174 L164.679928,365.10167 L163.695726,364.567216 Z" id="Stroke-262" fill="#000" fill-rule="nonzero"/>
                            <path d="M269.011516,101.992753 C232.88849,149.684437 196.379062,177.461562 159.483234,185.324128 C103.854246,197.178764 134.785591,203.525766 142.008187,240.2014 C146.114128,261.05097 109.580971,259.437264 135.537473,314.766937 C161.493976,370.09661 109.580971,371.353084 123.3357,410.324557 C130.462971,430.518357 116.059178,454.149766 123.3357,469.01886 C142.999172,509.199872 178.178447,523.687835 142.008187,523.687835 C121.136865,523.687835 52,523.687835 2.45711268,523.687835 C-6.71727737,523.687835 26.7111156,500.151489 29.7367791,469.01886 C32.5728862,439.836674 9.43276005,428.750493 9.43276005,402.148111 C9.43276005,346.377203 40.4154005,356.751822 52,326.187351 C59.0200089,307.665964 43.6838563,273.483103 41.4555129,254.853317 C34.0086576,192.594818 84.1840341,187.89122 100,168.371662 C143.945467,114.135578 131.2921,72.105695 192.097367,61.7507761 C232.634211,54.8474968 266.771192,64.6829948 294.508308,91.2572701 C330.004586,76.4639319 347.752724,98.8781752 347.752724,158.5 C347.752724,204.256038 365.121406,211.205809 365.121406,246.2014 C365.121406,295.040123 347.752724,296.915005 347.752724,326.187351 C347.752724,355.459697 365.971818,355.459697 370.726645,372.133276 C381.707654,410.639989 344.521434,410.639989 358.131637,440.960229 C370.726645,469.01886 381.707654,472.187285 389.166723,493.073292 C390.575243,497.017262 387.345446,507.22211 379.477335,523.687835 L202.2055,523.687835 C199.634572,509.523466 201.634572,496.313457 208.2055,484.057809 C221.960933,458.402111 234.928449,441.493471 237.214981,429.950427 C243.300001,399.231565 228.921368,383.084363 232.4596,382 C264.654311,372.133276 284.081324,346.234321 294.508308,326.187351 C327.419879,262.911409 325.149979,216.625329 320.0051,185.324128 C312.665582,140.670846 295.667721,112.893721 269.011516,101.992753 Z" id="Path-57" fill="#c38741"/>
                            <path d="M22.027119,237.033465 C52.7724182,259.587154 80.3371352,265.225576 104.72127,253.948731 C141.297472,237.033465 153.891207,181.624597 212.203619,170.055687 C270.516032,158.486778 347.084007,177.746042 378.806614,177.746042 C399.955019,177.746042 419.028521,168.602694 436.027119,150.315996 L396.541548,161.773766 L244.649299,118.587154 L126.753483,181.887003 L56.353268,237.033465 L22.027119,237.033465 Z" id="Path-106" fill="#000" transform="translate(229.027119, 189.087154) scale(-1, 1) rotate(8.000000) translate(-229.027119, -189.087154)"/>
                            <path d="M85.9712634,209.439896 C85.9712634,209.439896 92.9393004,202.182682 85.9712634,180.364475 C79.0032264,158.546267 93.2370293,83.9692209 113.528781,68.7476689 C142.45878,47.0462657 245.262558,15.0230871 287.852397,34.7579378 C334.766535,56.4965388 346.857179,136.512556 371.353644,145.453473 C387.684621,151.414084 407.242446,153.066768 430.027119,150.411525 C412.394422,162.701925 393.932518,168.847125 374.641407,168.847125 C345.704742,168.847125 281.459325,126.171483 210.566925,150.411525 C139.674524,174.651567 130.053407,225.92759 97.2139685,245.567909 C75.3210097,258.661454 48.2587266,255.720984 16.027119,236.746497 C31.9791821,232.360005 46.4501318,227.662651 59.4399679,222.654433 C78.9247222,215.142107 85.9712634,209.439896 85.9712634,209.439896 Z" id="Path-105" fill="#2E2E2E" transform="translate(223.027119, 141.087154) scale(-1, 1) rotate(8.000000) translate(-223.027119, -141.087154)"/>
                            <path d="M156.28545,106.542727 C134.755013,82.3362608 127.5782,68.3580228 134.755013,64.6080125 C141.931825,60.8580023 149.108637,70.6890291 156.28545,94.1010928 C150.070463,71.3670309 150.070463,60 156.28545,60 C162.500437,60 165.331331,68.7552238 164.778134,86.2656715 C168.859992,71.8272322 173.202959,64.6080125 177.807036,64.6080125 C182.411112,64.6080125 180.522865,74.4390393 172.142296,94.1010928 C185.994355,77.1282466 195.058677,70.6770291 199.33526,74.7474402 C203.611844,78.8178512 194.547522,87.8802759 172.142296,101.934714 C194.047432,96.8395003 205,96.8395003 205,101.934714 C205,107.029928 194.047432,109.948336 172.142296,110.689938 C193.972197,116.382754 203.036519,122.218969 199.33526,128.198586 C195.634002,134.178202 186.56968,131.260394 172.142296,119.445162 C185.740622,130.000391 190.084327,136.451608 185.17341,138.798815 C180.262494,141.146021 174.715309,137.612611 168.531854,128.198586 C175.848256,147.245038 177.051737,156.768263 172.142296,156.768263 C167.232855,156.768263 164.778134,149.242443 164.778134,134.190802 C163.06396,150.929648 158.909818,158.455468 152.315706,156.768263 C145.721595,155.081059 147.044843,145.557833 156.28545,128.198586 C147.516905,144.174229 140.340092,152.162051 134.755013,152.162051 C129.169933,152.162051 132.568777,144.174229 144.951544,128.198586 C132.996583,138.337413 124.121824,141.870823 118.327267,138.798815 C112.53271,135.726806 118.008625,130.563063 134.755013,123.307586 C116.251671,125.882536 107,125.882536 107,123.307586 C107,120.732637 116.251671,117.601957 134.755013,113.915547 C120.781988,114.682039 113.795475,112.876857 113.795475,108.5 C113.795475,104.123143 119.649777,101.934714 131.358382,101.934714 C116.628583,98.6059051 110.77428,94.150893 113.795475,88.5696778 C116.81667,82.9884626 125.691429,84.8322676 140.419753,94.1010928 C127.581151,85.4994694 122.861272,80.1234548 126.260116,77.9730489 C129.65896,75.8226431 139.667404,85.345869 156.28545,106.542727 Z" id="Path-107" fill="#FFF"/>
                            <circle id="Oval" fill="#FFCB2E" cx="156.5" cy="109.5" r="10.5"/>
                            <path d="M273.867975,205.713522 L277.543025,209.103803 L276.720198,210.00091 C268.888167,218.590534 264.593996,224.785803 263.905392,228.194639 C263.492665,230.237781 263.396535,232.817337 263.531071,236.423226 L263.58771,237.741763 L263.867132,242.988669 C263.922493,244.140361 263.946529,244.91098 263.953003,245.713069 L263.95489,246.2014 L258.95489,246.2014 L258.94718,245.30598 C258.936327,244.704086 258.912903,244.059117 258.870037,243.17201 L258.626947,238.652561 C258.60642,238.255636 258.589219,237.901684 258.573503,237.551672 L258.555238,237.131053 C258.377164,232.888978 258.473029,229.835022 259.004388,227.204608 C259.930366,222.620692 264.567617,215.909019 272.983847,206.67751 L273.867975,205.713522 Z" id="Path-109" fill="#000" fill-rule="nonzero"/>
                        </g>
                    </g>
                    <g id="Group-110" transform="translate(223.000000, 144.000000) scale(-1, 1) rotate(8.000000) translate(-223.000000, -144.000000) translate(15.000000, 28.000000)"/>
                    <g id="Group" transform="translate(107.000000, 60.000000)"/>
                </g>
            </g>
        </g>
        <g id="Women Upper Body" transform="translate(517.000000, -551.000000) scale(1 1)">
            <g id="Women Upper Body/Upper 10" stroke="none" stroke-width="1" fill="none" fill-rule="evenodd">
                <g id="Upper" transform="translate(122.000000, 572.980856)">
                    <path d="M1136.05565,468.27166 C1143.04356,412.149915 1137.54809,375.760073 1119.56924,359.102135 C1118.63585,358.237327 1071.71551,314 1102.34623,314 C1132.97695,314 1158.27492,356.349055 1170.23175,359.102135 C1182.18859,361.855215 1210.25277,387.704631 1317.23586,359.102135 C1371.51659,344.589892 1337.93619,383.973644 1286.83909,412.808894 C1235.01413,442.054888 1228.58485,431.07669 1202.16023,475.468419 C1184.54382,505.062905 1162.50896,502.663985 1136.05565,468.27166 Z" id="Path-123" fill="#7d4439" transform="translate(1218.480856, 405.000000) rotate(-13.000000) translate(-1218.480856, -405.000000)"/>
                    <g id="Group-2" transform="translate(104.000000, 296.019144)">
                        <path d="M274.594617,69.6647177 C290.390612,126.899666 337.370796,155.51714 415.535169,155.51714 C493.699542,155.51714 519.689241,137.098774 493.504268,100.262042 L683.52597,115.595043 L668.264539,589 L150.069309,588.679828 L37.1523662,190.5 L274.594617,69.6647177 Z" id="Path-29" fill="#7d4439"/>
                        <path d="M357.994995,0 C357.994995,0 362.204154,48.5841775 309.041823,58.5893917 C80.7865654,101.547303 305.263042,248.376301 403.163083,241.784994 C456.753366,238.17662 543,68.6522433 543,68.6522433 C543,68.6522433 462.491419,57.7861083 484.953349,0 C457.92755,8.82633232 437.6582,13.2394985 424.145301,13.2394985 C409.445233,13.2394985 387.395131,8.82633232 357.994995,0 Z" id="Fill-105" fill="#7d4439"/>
                        <g id="Group" transform="translate(150.000000, 404.000000)" fill="#7d4439">
                            <path d="M492,184.678083 L0,184.678083 L0,42.6432115 C0,19.3214824 11.634,0.415134743 25.984,0.415134743 L468.471,0.415134743 C481.466,0.415134743 492,17.5338786 492,38.6536048 L492,184.678083 Z" id="Fill-22" transform="translate(246.000000, 92.546609) scale(1, -1) translate(-246.000000, -92.546609)"/>
                        </g>
                        <path d="M82.9065858,838.12137 C153.890947,851.37379 264.853923,858 415.795512,858 C566.737101,858 664.320324,838.623687 708.545182,799.871062 C755.515061,754.103483 778.718429,711.6748 778.155286,672.585014 C777.310573,613.950334 781.73334,471.768768 735.461527,403.464384 C704.613652,357.928129 627.625111,367.856325 504.495905,433.248974 L314.280602,496.278745 L75.8883972,335 C24.5156041,480.451292 -0.774507415,577.15279 0.0180627758,625.104494 C1.20074104,696.65833 75.5867861,746.355071 82.9065858,766.255633 C97.5844158,806.160695 97.5844158,830.115941 82.9065858,838.12137 Z" id="Path-54" fill="#FC7FF2"/>
                        <path d="M442.297195,40 C428.432746,40 414.097943,37.050365 403.818196,34.3262774 C390.649272,30.8364964 381.095072,26.9489051 381,26.910219 L382.469107,25 C382.840387,25.1518248 419.965365,40.1518248 449.632723,37.4963504 L450,39.6693431 C447.469093,39.8963504 444.89115,40 442.297195,40" id="Fill-123" fill="#000"/>
                    </g>
                    <path d="M141.152366,534.783028 C95.8333839,619.434277 59.3305922,680.379927 31.6439913,717.619978 C-9.88591021,773.480054 26.7371225,819.942156 8.42560615,884.295346 C-9.88591021,948.648536 -5.36823972,1162.01545 94.2721484,1186.256 C160.699074,1202.41637 195.67936,1195.40873 199.213007,1165.23307 C217.459001,1194.58974 226.581998,1217.4768 226.581998,1233.89424 C226.581998,1258.52041 256.58643,1207.27893 283.41146,1186.256 C310.23649,1165.23307 382.220699,1150.92944 352.90281,1125.64546 C333.357551,1108.78948 316.794853,1091.24569 303.214717,1073.01408 C328.916009,1020.55889 328.916009,989.014041 303.214717,978.379517 C264.662778,962.427731 280.805904,844.484869 253.693951,781.052423 C235.619316,738.764126 198.105454,656.674328 141.152366,534.783028 Z" id="Path-51" fill="#C54ABB"/>
                    <path d="M240.466234,794.019144 C239.262366,877.733734 279.040085,943.857368 359.799389,992.390046 C480.938346,1065.18906 451.737249,1099.82503 515.389011,1107.1601 C579.040774,1114.49517 549.869674,1065.18906 665.78218,992.390046 C781.694687,919.591029 761.674351,822.360066 820.390437,735.954674 C859.534495,678.35108 839.250739,583.525425 759.539169,451.477709 L603.739062,737.519144 L500.438346,897.873518 L254.438346,592.856558 L141.152366,534.783028 L141.152366,763.82686 L240.466234,794.019144 Z" id="Path" fill="#C54ABB"/>
                    <path d="M393.399509,358.755043 C390.169083,339.541726 364.14951,341.324452 315.340787,364.103219 C266.532065,386.881987 196.393773,417.10859 104.925909,454.783028 C100.386791,518.224356 121.662082,560.333003 168.751781,581.108968 C215.84148,601.884933 310.681418,719.236355 453.271593,933.163234 L515.389011,898.95952 C375.65149,698.151452 311.816561,568.092621 323.884224,508.783028 C335.951888,449.473436 359.123649,399.464107 393.399509,358.755043 Z" id="Path-50" fill="#C3A9FF"/>
                    <path d="M688.866104,376.019144 C832.885683,406.465751 914.391553,467.522389 933.383714,559.189055 C961.871955,696.689055 961.871955,697.519144 966.008918,758.791804 C970.110809,819.545025 1038.28606,592.933441 1058.24238,559.189055 C1113.51975,465.719889 1058.3832,394.544653 1179.42654,431.545851 C1260.1221,456.213316 1284.28116,498.761051 1251.90373,559.189055 C1209.29705,836.255772 1132.36798,1005.4558 1021.11651,1066.78913 C854.239311,1158.78913 811.46053,1011.71705 768.88071,915.87886 C740.494163,851.986734 713.822628,672.033495 688.866104,376.019144 Z" id="Path-52" fill="#C54ABB"/>
                    <path d="M771.014265,357.220267 C732.025692,338.068564 688.127045,339.882096 639.318323,362.660864 C590.509601,385.439631 538.615844,415.401647 483.637052,452.546913 C558.894787,475.195067 610.788544,502.607105 639.318323,534.783028 C667.848102,566.958951 746.666444,688.351115 875.773348,898.95952 L907.525307,912.490156 C758.837811,701.17092 690.527895,565.856506 702.595559,506.546913 C714.663222,447.23732 737.469457,397.461771 771.014265,357.220267 Z" id="Path-50-Copy" fill="#C3A9FF" transform="translate(695.581180, 628.294570) scale(-1, 1) translate(-695.581180, -628.294570)"/>
                    <path d="M348.521703,429.976566 C357.632205,461.102486 361.391433,488.16921 359.799389,511.176737 C358.207345,534.184264 353.68094,567.356443 346.220175,610.693274 C371.35549,667.19733 393.498463,711.890346 412.649095,744.772323 C431.799726,777.654299 463.416694,825.268066 507.5,887.613622 C552.279622,820.509678 584.359309,770.478185 603.739062,737.519144 C623.118815,704.560102 646.281807,657.263445 673.228038,595.629172 C660.294847,569.450286 653.828252,543.973002 653.828252,519.197319 C653.828252,494.421637 657.760512,465.125613 665.625031,431.309248 C653.208344,403.125298 641.815123,383.075186 631.445369,371.15891 C623.648212,362.198902 630.659736,490.044868 519.938346,486.519144 C446.124085,484.16866 402.337594,443.454307 388.57887,364.376082 C379.590518,375.651908 371.844901,386.584418 365.34202,397.173614 C358.839139,407.762809 353.232367,418.697126 348.521703,429.976566 Z" id="Path-53" fill="#000"/>
                    <path d="M554.438346,1154.21176 C511.386475,985.647652 504.24036,885.297888 533,853.162465 C561.75964,821.027043 595.092973,770.117647 633,700.434278 L575.184432,799.353165 L494.29838,879.94058 C493.683921,896.221936 495.730576,932.529158 500.438346,988.862246 C505.146115,1045.19533 513.115974,1100.31184 524.347923,1154.21176 L554.438346,1154.21176 Z" id="Path-55" fill="#C3A9FF"/>
                    <circle id="Oval" fill="#FF7243" transform="translate(1206.480856, 210.500000) rotate(-13.000000) translate(-1206.480856, -210.500000)" cx="1206.481" cy="210.5" r="175.5"/>
                    <g id="Group-113" transform="translate(1030.000000, 34.019144)" fill="#000" fill-rule="nonzero">
                        <path d="M242.7215,67.1581615 L245.393687,66.6277931 C288.229234,58.2287133 313.377317,58.3326212 321.672718,67.7195114 L321.923904,68.0127883 L318.076096,71.2056503 C311.645269,63.4556788 286.550356,63.4556788 243.706012,72.0602771 C230.099333,74.79296 216.581445,80.5215942 202.059799,89.2747193 L200.609351,90.1557649 C190.173793,96.5440191 180.497813,103.547082 164.767808,115.712351 L147.896218,128.756661 C145.158975,130.850199 143.470582,132.106304 141.209347,133.761063 L139.285648,135.165472 C112.018133,155.044389 91.4820959,164.5 69.5755445,164.5 C28.3032806,164.5 12.8887014,141.173524 24.0490519,96.2565443 L24.3953794,94.8888169 L29.2369391,96.1375361 C18.1882986,138.975549 31.3881004,159.5 69.5755445,159.5 C89.7527666,159.5 109.066978,150.792774 134.759121,132.27141 L140.358739,128.179012 C142.110494,126.880679 143.842319,125.56985 146.57027,123.472008 L163.164425,110.632953 C178.662049,98.6781277 188.298998,91.7647882 198.984668,85.290981 L199.478622,84.9924852 C214.458071,75.9634136 228.492728,70.0157818 242.7215,67.1581615 Z" id="Path-127"/>
                        <path d="M162.988011,0.713982086 L165.011989,5.28601791 C90.6963712,38.1845358 55.349696,96.2643073 58.7198046,179.994803 C62.0651562,263.110211 83.3557598,315.399862 122.276999,337.148706 L123.461826,337.798414 L121.092846,342.201586 C79.5148897,319.831952 57.16664,265.732163 53.7238497,180.195888 C50.3065432,95.2927583 86.0513519,35.6536124 160.713606,1.73397684 L162.988011,0.713982086 Z" id="Path-128"/>
                        <path d="M352.230517,175.621367 L353.769483,180.378633 C271.102328,207.12128 196.049526,220.5 128.605428,220.5 C61.4871806,220.5 18.9796086,212.165865 0.797979015,195.08909 L0.254466206,194.568936 L3.74553379,190.989488 C20.3556599,207.189493 62.0734408,215.5 128.605428,215.5 C194.820685,215.5 268.543,202.476483 349.766891,176.415096 L352.230517,175.621367 Z" id="Path-129"/>
                        <path d="M29.6549151,266.343144 C38.0161048,243.710828 60.3239132,240.598826 95.1563261,256.261965 L97.5022464,257.321624 C110.404142,263.17638 121.258991,268.558047 136.876983,276.680759 L152.790545,284.980141 C165.496823,291.572693 170.765313,294.127366 178.462692,297.48295 C188.283898,301.764392 197.350501,304.938778 206.733387,307.27402 C229.76797,313.00694 259.615576,311.10755 296.246741,301.50731 L297.358852,301.214036 L298.641148,306.046812 L296.376209,306.640355 C259.516617,316.178023 229.242677,318.028734 205.52581,312.126005 C196.25877,309.819595 187.306765,306.724422 177.718884,302.608965 L175.594908,301.6861 C166.419282,297.661781 160.301459,294.566949 140.03268,283.967233 L135.519031,281.610628 C118.517525,272.757081 107.228763,267.172848 93.1057491,260.822133 C60.8849333,246.333355 41.8301881,248.801708 34.5617348,267.504152 L34.3450849,268.075861 L29.6549151,266.343144 Z" id="Path-130"/>
                    </g>
                </g>
            </g>
        </g>
    </g>
</svg>
