<svg viewBox="67.3 787.008 2557.4 1008.984" xmlns="http://www.w3.org/2000/svg" overflow="visible">
    <g id="Master/Stickers/Fight" stroke="none" stroke-width="1" fill="none" fill-rule="evenodd">
        <g id="Sticker" transform="translate(94.000000, 799.000000)">
            <g id="Group" fill="#0087FC">
                <path d="M227.768439,585.428766 C202.921461,649.09957 183.902438,703.570633 183.902438,772.356988 L183.902438,959.285209 C183.902438,972.382409 173.284442,983 160.186743,983 L27.4227157,983 C14.3250167,983 3.70702121,972.382409 3.70702121,959.285209 C3.70702121,879.275475 -4.96977015,793.455378 5.34206223,714.027549 C15.3520743,636.927338 68.4420515,570.5142 68.4420515,491.498914 C68.4420515,416.793633 20.5698745,353.279162 7.73925384,281.248905 C-6.88491779,199.148222 3.70702121,106.929344 3.70702121,23.7147906 C3.70702121,10.6175907 14.3250167,0 27.4227157,0 L340.38216,0 C353.479859,0 364.097854,10.6175907 364.097854,23.7147906 L364.097854,116.71316 C364.097854,129.81036 353.479859,140.427951 340.38216,140.427951 L207.618132,140.427951 C194.520433,140.427951 183.902438,151.045542 183.902438,164.142742 C183.902438,202.67222 180.580243,242.769367 187.509082,280.858073 C194.846139,321.170178 213.003128,359.6736 227.768439,397.571234 C232.688761,410.668434 246.746206,421.286024 259.843905,421.286024 L392.610104,421.286024 C405.707803,421.286024 419.930271,431.903615 423.126526,445.000815 C429.38007,478.223669 429.38007,504.77416 423.124355,537.999185 C419.930271,551.096385 405.707803,561.713976 392.610104,561.713976 L259.843905,561.713976 C246.746206,561.713976 232.68659,572.331566 227.768439,585.428766" id="Fill-1"/>
                <path d="M611.232896,983 L478.22281,983 C465.100836,983 454.463162,972.382409 454.463162,959.285209 C454.463162,879.275475 445.770289,793.455378 456.101233,714.027549 C466.129797,636.927338 519.318169,570.5142 519.318169,491.501086 C519.318169,416.793633 471.357268,353.281333 458.502868,281.251076 C443.851592,199.148222 454.463162,106.931515 454.463162,23.7147906 C454.463162,10.619762 465.100836,0 478.22281,0 L611.232896,0 C624.35487,0 634.992544,10.619762 634.992544,23.7147906 C634.992544,106.931515 624.378799,199.148222 639.03225,281.251076 C651.88665,353.281333 699.847551,416.793633 699.847551,491.501086 C699.847551,570.5142 646.659179,636.927338 636.630615,714.027549 C626.299672,793.455378 634.992544,879.275475 634.992544,959.285209 C634.992544,972.382409 624.35487,983 611.232896,983" id="Fill-3"/>
                <path d="M1265.88829,210.644851 C1265.88829,229.244041 1264.98564,238.543636 1266.29503,257.144997 C1267.21725,270.23999 1258.86502,280.857552 1245.74722,280.857552 L1112.75746,280.857552 C1099.63532,280.857552 1086.71546,270.23999 1085.79323,257.144997 C1084.48384,238.543636 1085.38649,229.244041 1085.38649,210.644851 C1086.3718,158.7621 1039.92119,140.429978 995.136683,140.429978 C950.345649,140.429978 903.897219,158.757758 904.884697,210.644851 C904.884697,268.368346 915.977508,313.891416 937.077776,367.537246 C952.746917,407.375903 969.755894,448.017934 969.755894,491.5 C969.755894,535.027663 952.753442,575.604555 937.077776,615.462754 C916.39947,668.0338 904.884697,715.708609 904.884697,772.357321 C903.895044,824.246585 950.343474,842.572193 995.136683,842.572193 C1039.92337,842.572193 1086.37397,824.242242 1085.38649,772.357321 C1085.38649,703.269342 1104.4335,649.226167 1129.32708,585.4296 C1134.25359,572.332435 1127.06501,561.714873 1113.94505,561.714873 L1071.20727,561.714873 C1058.0873,561.714873 1051.06185,551.097311 1054.26354,538.000146 C1060.52772,504.77521 1060.52772,478.22479 1054.26354,445.002025 C1051.06185,431.904861 1058.0873,421.287298 1071.20727,421.287298 L1294.44902,421.287298 C1307.56681,421.287298 1321.81564,431.904861 1325.01733,445.002025 C1346.01102,559.52188 1265.88829,657.629023 1265.88829,772.357321 C1266.27328,928.524508 1133.10516,983.418825 995.136683,983 C858.508044,982.582882 722.42317,929.184578 724.3829,772.357321 C724.3829,715.708609 735.897674,668.0338 756.57598,615.462754 C772.251645,575.604555 789.254098,535.027663 789.254098,491.5 C789.254098,448.017934 772.24512,407.375903 756.57598,367.537246 C735.475712,313.891416 724.3829,268.368346 724.3829,210.644851 C722.42317,53.8154223 858.508044,0.419289094 995.136683,0 C1133.10733,-0.418825229 1266.27328,54.4754916 1265.88829,210.644851" id="Fill-5"/>
                <path d="M1581.05825,585.428766 C1556.18402,649.09957 1537.14413,703.570633 1537.14413,772.356988 L1537.14413,959.285209 C1537.14413,972.382409 1526.51449,983 1513.40243,983 L1380.4906,983 C1367.37854,983 1356.75107,972.382409 1356.75107,959.285209 C1356.75107,879.275475 1348.06259,793.455378 1358.38573,714.027549 C1368.40889,636.927338 1421.5571,570.5142 1421.5571,491.498914 C1421.5571,416.793633 1373.63024,353.279162 1360.78555,281.248905 C1346.14534,199.148222 1356.75107,106.929344 1356.75107,23.7147906 C1356.75107,10.6175907 1367.37854,0 1380.4906,0 L1513.40243,0 C1526.51449,0 1537.14413,10.6175907 1537.14413,23.7147906 L1537.14413,210.643012 C1537.14413,279.429367 1556.18402,333.90043 1581.05825,397.571234 C1585.98397,410.668434 1600.05683,421.286024 1613.1689,421.286024 L1746.07855,421.286024 C1759.18844,421.286024 1766.37486,410.668434 1761.44914,397.571234 C1736.57491,333.90043 1717.53502,279.429367 1717.53502,210.643012 L1717.53502,23.7147906 C1717.53502,10.6175907 1728.16466,0 1741.27673,0 L1874.18855,0 C1887.30062,0 1897.92809,10.6175907 1897.92809,23.7147906 C1897.92809,106.929344 1887.32453,199.148222 1901.96474,281.248905 C1914.80944,353.279162 1962.7363,416.793633 1962.7363,491.498914 C1962.7363,570.5142 1909.58809,636.927338 1899.56492,714.027549 C1889.24178,793.455378 1897.92809,879.275475 1897.92809,959.285209 C1897.92809,972.382409 1887.30062,983 1874.18855,983 L1741.27673,983 C1728.16466,983 1717.53502,972.382409 1717.53502,959.285209 L1717.53502,772.356988 C1717.53502,703.570633 1736.57491,649.09957 1761.44914,585.428766 C1766.37486,572.331566 1759.18844,561.713976 1746.07855,561.713976 L1613.1689,561.713976 C1600.05683,561.713976 1585.98397,572.331566 1581.05825,585.428766" id="Fill-7"/>
                <path d="M2302.77544,164.143104 C2302.77544,243.112967 2310.17759,303.95689 2339.02361,377.837246 C2363.82203,441.3562 2375.31959,495.206394 2355.03373,561.715216 C2335.97324,624.194122 2304.3897,678.743472 2302.77544,745.593187 C2301.05906,816.726859 2302.77544,888.1276 2302.77544,959.287328 C2302.77544,972.384557 2292.15127,983 2279.04596,983 L2146.20477,983 C2133.09729,983 2122.47529,972.384557 2122.47529,959.287328 C2122.47529,888.1276 2120.75891,816.726859 2122.47529,745.593187 C2124.08739,678.743472 2155.6731,624.194122 2174.73142,561.715216 C2195.01728,495.206394 2183.51971,441.3562 2158.7213,377.837246 C2129.87745,303.95689 2122.47529,243.112967 2122.47529,164.143104 C2122.47529,151.045875 2111.85113,140.428261 2098.74582,140.428261 L2010.97803,140.428261 C1997.87272,140.428261 1987.25073,129.810647 1987.25073,116.713418 L1987.25073,23.714843 C1987.25073,10.6176142 1997.87272,0 2010.97803,0 L2414.27052,0 C2427.37801,0 2438,10.6176142 2438,23.714843 L2438,116.713418 C2438,129.810647 2427.37801,140.428261 2414.27052,140.428261 L2326.50491,140.428261 C2313.3996,140.428261 2302.77544,151.045875 2302.77544,164.143104" id="Fill-9"/>
            </g>
            <g id="Group-Copy" transform="translate(65.000000, 2.000000)" fill="#80C4FF">
                <path d="M227.768439,585.428766 C202.921461,649.09957 183.902438,703.570633 183.902438,772.356988 L183.902438,959.285209 C183.902438,972.382409 173.284442,983 160.186743,983 L27.4227157,983 C14.3250167,983 3.70702121,972.382409 3.70702121,959.285209 C3.70702121,879.275475 -4.96977015,793.455378 5.34206223,714.027549 C15.3520743,636.927338 68.4420515,570.5142 68.4420515,491.498914 C68.4420515,416.793633 20.5698745,353.279162 7.73925384,281.248905 C-6.88491779,199.148222 3.70702121,106.929344 3.70702121,23.7147906 C3.70702121,10.6175907 14.3250167,0 27.4227157,0 L340.38216,0 C353.479859,0 364.097854,10.6175907 364.097854,23.7147906 L364.097854,116.71316 C364.097854,129.81036 353.479859,140.427951 340.38216,140.427951 L207.618132,140.427951 C194.520433,140.427951 183.902438,151.045542 183.902438,164.142742 C183.902438,202.67222 180.580243,242.769367 187.509082,280.858073 C194.846139,321.170178 213.003128,359.6736 227.768439,397.571234 C232.688761,410.668434 246.746206,421.286024 259.843905,421.286024 L392.610104,421.286024 C405.707803,421.286024 419.930271,431.903615 423.126526,445.000815 C429.38007,478.223669 429.38007,504.77416 423.124355,537.999185 C419.930271,551.096385 405.707803,561.713976 392.610104,561.713976 L259.843905,561.713976 C246.746206,561.713976 232.68659,572.331566 227.768439,585.428766" id="Fill-1"/>
                <path d="M611.232896,983 L478.22281,983 C465.100836,983 454.463162,972.382409 454.463162,959.285209 C454.463162,879.275475 445.770289,793.455378 456.101233,714.027549 C466.129797,636.927338 519.318169,570.5142 519.318169,491.501086 C519.318169,416.793633 471.357268,353.281333 458.502868,281.251076 C443.851592,199.148222 454.463162,106.931515 454.463162,23.7147906 C454.463162,10.619762 465.100836,0 478.22281,0 L611.232896,0 C624.35487,0 634.992544,10.619762 634.992544,23.7147906 C634.992544,106.931515 624.378799,199.148222 639.03225,281.251076 C651.88665,353.281333 699.847551,416.793633 699.847551,491.501086 C699.847551,570.5142 646.659179,636.927338 636.630615,714.027549 C626.299672,793.455378 634.992544,879.275475 634.992544,959.285209 C634.992544,972.382409 624.35487,983 611.232896,983" id="Fill-3"/>
                <path d="M1265.88829,210.644851 C1265.88829,229.244041 1264.98564,238.543636 1266.29503,257.144997 C1267.21725,270.23999 1258.86502,280.857552 1245.74722,280.857552 L1112.75746,280.857552 C1099.63532,280.857552 1086.71546,270.23999 1085.79323,257.144997 C1084.48384,238.543636 1085.38649,229.244041 1085.38649,210.644851 C1086.3718,158.7621 1039.92119,140.429978 995.136683,140.429978 C950.345649,140.429978 903.897219,158.757758 904.884697,210.644851 C904.884697,268.368346 915.977508,313.891416 937.077776,367.537246 C952.746917,407.375903 969.755894,448.017934 969.755894,491.5 C969.755894,535.027663 952.753442,575.604555 937.077776,615.462754 C916.39947,668.0338 904.884697,715.708609 904.884697,772.357321 C903.895044,824.246585 950.343474,842.572193 995.136683,842.572193 C1039.92337,842.572193 1086.37397,824.242242 1085.38649,772.357321 C1085.38649,703.269342 1104.4335,649.226167 1129.32708,585.4296 C1134.25359,572.332435 1127.06501,561.714873 1113.94505,561.714873 L1071.20727,561.714873 C1058.0873,561.714873 1051.06185,551.097311 1054.26354,538.000146 C1060.52772,504.77521 1060.52772,478.22479 1054.26354,445.002025 C1051.06185,431.904861 1058.0873,421.287298 1071.20727,421.287298 L1294.44902,421.287298 C1307.56681,421.287298 1321.81564,431.904861 1325.01733,445.002025 C1346.01102,559.52188 1265.88829,657.629023 1265.88829,772.357321 C1266.27328,928.524508 1133.10516,983.418825 995.136683,983 C858.508044,982.582882 722.42317,929.184578 724.3829,772.357321 C724.3829,715.708609 735.897674,668.0338 756.57598,615.462754 C772.251645,575.604555 789.254098,535.027663 789.254098,491.5 C789.254098,448.017934 772.24512,407.375903 756.57598,367.537246 C735.475712,313.891416 724.3829,268.368346 724.3829,210.644851 C722.42317,53.8154223 858.508044,0.419289094 995.136683,0 C1133.10733,-0.418825229 1266.27328,54.4754916 1265.88829,210.644851" id="Fill-5"/>
                <path d="M1581.05825,585.428766 C1556.18402,649.09957 1537.14413,703.570633 1537.14413,772.356988 L1537.14413,959.285209 C1537.14413,972.382409 1526.51449,983 1513.40243,983 L1380.4906,983 C1367.37854,983 1356.75107,972.382409 1356.75107,959.285209 C1356.75107,879.275475 1348.06259,793.455378 1358.38573,714.027549 C1368.40889,636.927338 1421.5571,570.5142 1421.5571,491.498914 C1421.5571,416.793633 1373.63024,353.279162 1360.78555,281.248905 C1346.14534,199.148222 1356.75107,106.929344 1356.75107,23.7147906 C1356.75107,10.6175907 1367.37854,0 1380.4906,0 L1513.40243,0 C1526.51449,0 1537.14413,10.6175907 1537.14413,23.7147906 L1537.14413,210.643012 C1537.14413,279.429367 1556.18402,333.90043 1581.05825,397.571234 C1585.98397,410.668434 1600.05683,421.286024 1613.1689,421.286024 L1746.07855,421.286024 C1759.18844,421.286024 1766.37486,410.668434 1761.44914,397.571234 C1736.57491,333.90043 1717.53502,279.429367 1717.53502,210.643012 L1717.53502,23.7147906 C1717.53502,10.6175907 1728.16466,0 1741.27673,0 L1874.18855,0 C1887.30062,0 1897.92809,10.6175907 1897.92809,23.7147906 C1897.92809,106.929344 1887.32453,199.148222 1901.96474,281.248905 C1914.80944,353.279162 1962.7363,416.793633 1962.7363,491.498914 C1962.7363,570.5142 1909.58809,636.927338 1899.56492,714.027549 C1889.24178,793.455378 1897.92809,879.275475 1897.92809,959.285209 C1897.92809,972.382409 1887.30062,983 1874.18855,983 L1741.27673,983 C1728.16466,983 1717.53502,972.382409 1717.53502,959.285209 L1717.53502,772.356988 C1717.53502,703.570633 1736.57491,649.09957 1761.44914,585.428766 C1766.37486,572.331566 1759.18844,561.713976 1746.07855,561.713976 L1613.1689,561.713976 C1600.05683,561.713976 1585.98397,572.331566 1581.05825,585.428766" id="Fill-7"/>
                <path d="M2302.77544,164.143104 C2302.77544,243.112967 2310.17759,303.95689 2339.02361,377.837246 C2363.82203,441.3562 2375.31959,495.206394 2355.03373,561.715216 C2335.97324,624.194122 2304.3897,678.743472 2302.77544,745.593187 C2301.05906,816.726859 2302.77544,888.1276 2302.77544,959.287328 C2302.77544,972.384557 2292.15127,983 2279.04596,983 L2146.20477,983 C2133.09729,983 2122.47529,972.384557 2122.47529,959.287328 C2122.47529,888.1276 2120.75891,816.726859 2122.47529,745.593187 C2124.08739,678.743472 2155.6731,624.194122 2174.73142,561.715216 C2195.01728,495.206394 2183.51971,441.3562 2158.7213,377.837246 C2129.87745,303.95689 2122.47529,243.112967 2122.47529,164.143104 C2122.47529,151.045875 2111.85113,140.428261 2098.74582,140.428261 L2010.97803,140.428261 C1997.87272,140.428261 1987.25073,129.810647 1987.25073,116.713418 L1987.25073,23.714843 C1987.25073,10.6176142 1997.87272,0 2010.97803,0 L2414.27052,0 C2427.37801,0 2438,10.6176142 2438,23.714843 L2438,116.713418 C2438,129.810647 2427.37801,140.428261 2414.27052,140.428261 L2326.50491,140.428261 C2313.3996,140.428261 2302.77544,151.045875 2302.77544,164.143104" id="Fill-9"/>
            </g>
        </g>
    </g>
</svg>
