<svg viewBox="211.293 302.475 147.414 179.85" xmlns="http://www.w3.org/2000/svg" overflow="visible">
    <g id="Master/Stickers/Chair 3 Copy" stroke="none" stroke-width="1" fill="none" fill-rule="evenodd">
        <g id="Group-23-Copy" transform="translate(212.000000, 305.000000)">
            <polygon id="Fill-28" fill="#EFD638" points="30.8476954 133.439 121.597695 133.906 120.327695 113 33.3876954 113"/>
            <polygon id="Fill-30" fill="#EFD638" points="42.4423954 50 75.3493954 50.373 106.710395 50.373 112.256395 71.373 40.7863954 71.373"/>
            <path d="M27.7558954,3.15405628 L6.22289537,166.641082 C6.22289537,166.641082 5.31289537,170.068181 10.3638954,170.068181 L27.7558954,170.068181 C27.7558954,170.068181 29.9918954,170.538568 30.5718954,166.909874 C31.1518954,163.281181 50.3928954,3.15405628 50.3928954,3.15405628 C50.3928954,3.15405628 37.3628954,-3.74430059 27.7558954,3.15405628" id="Fill-32" fill="#70A0E6"/>
            <path d="M123.575195,3.15405628 L145.108195,166.641082 C145.108195,166.641082 146.018195,170.068181 140.967195,170.068181 L123.575195,170.068181 C123.575195,170.068181 121.339195,170.538568 120.759195,166.909874 C120.179195,163.281181 100.938195,3.15405628 100.938195,3.15405628 C100.938195,3.15405628 113.968195,-3.74430059 123.575195,3.15405628" id="Fill-34" fill="#70A0E6"/>
            <path d="M142.771495,23.82275 L142.771495,4.22375 C142.771495,-0.04625 137.774495,0.44375 137.774495,0.44375 C132.860495,0.58375 109.561495,0.23375 102.024495,0.09375 C95.2794954,-0.03125 47.5034954,-0.03125 40.7584954,0.09375 C33.2214954,0.23375 9.92149537,0.58375 5.00849537,0.44375 C5.00849537,0.44375 0.0114953718,-0.04625 0.0114953718,4.22375 L0.0114953718,23.82275 C0.0114953718,23.82275 -0.402504628,26.76275 3.73849537,26.76275 L70.6364954,26.76275 L72.1464954,26.76275 L139.044495,26.76275 C143.186495,26.76275 142.771495,23.82275 142.771495,23.82275" id="Fill-36" fill="#4C4ADC"/>
        </g>
    </g>
</svg>
