<svg viewBox="63.879 196.2 401.293 261.6" xmlns="http://www.w3.org/2000/svg" xmlns:xlink="http://www.w3.org/1999/xlink" overflow="visible">
    <defs>
        <polygon id="masterstickersscreen-2-path-1" points="0 0.223027636 376.459454 0.223027636 376.459454 210.305437 0 210.305437"/>
    </defs>
    <g id="Master/Stickers/Screen 2" stroke="none" stroke-width="1" fill="none" fill-rule="evenodd">
        <path d="M397.994,277.003 L398.006,276.997 L397.994,277.003 Z" id="Fill-46" fill="#FF71DB"/>
        <path d="M397.994,277.003 L398.006,276.997 L397.994,277.003 Z" id="Stroke-48" stroke="#FFF"/>
        <g id="UI-Copy-2" transform="translate(8.000000, 149.000000)">
            <g id="Group-40" transform="translate(61.139276, 52.360000)">
                <path d="M360.917633,0.492919636 C337.146596,-0.617025818 57.4660628,0.495083273 57.4660628,0.495083273 C57.4660628,0.495083273 29.6095344,-0.246611273 26.2668204,28.665196 C25.9168956,31.6903924 25.3553682,36.3188433 24.6308028,42.1736433 L376.459584,42.1736433 C377.653751,31.9102178 378.374847,25.7001487 378.374847,25.7001487 C378.374847,25.7001487 384.68867,1.60329782 360.917633,0.492919636" id="Fill-1" fill="#70A0E6"/>
                <path d="M46.0122916,24.3190996 C46.4237892,29.8225251 55.2308802,29.000776 55.6423779,24.0823978 C56.1895961,17.5438887 45.5067001,17.5594669 46.0122916,24.3190996" id="Fill-3" fill="#3164CF"/>
                <path d="M74.0020688,24.3190996 C74.4135665,29.8225251 83.2206575,29.000776 83.6321552,24.0823978 C84.1793734,17.5438887 73.4964773,17.5594669 74.0020688,24.3190996" id="Fill-5" fill="#3164CF"/>
                <path d="M102.861411,24.3190996 C103.272909,29.8225251 112.08,29.000776 112.491498,24.0823978 C113.038716,17.5438887 102.35582,17.5594669 102.861411,24.3190996" id="Fill-7" fill="#3164CF"/>
                <g id="Group-11" transform="translate(0.000000, 41.950745)">
                    <mask id="masterstickersscreen-2-mask-2" fill="#fff">
                        <use xlink:href="#masterstickersscreen-2-path-1"/>
                    </mask>
                    <g id="Clip-10"/>
                    <path d="M24.6306727,0.223027636 C18.4304564,50.3263549 0.267321727,190.579322 0.267321727,190.579322 C0.267321727,190.579322 -3.81816945,210.966402 19.9524341,210.22514 C20.5672957,210.205668 21.3655752,210.187493 22.3182205,210.170617 C41.0519884,209.832657 123.328543,209.867275 197.73851,209.978053 C265.92051,210.079744 327.489929,210.244613 327.489929,210.244613 C327.489929,210.244613 350.889361,212.613795 354.232075,187.779577 C356.952989,167.567319 371.236598,45.1072313 376.459454,0.223027636 L24.6306727,0.223027636 Z" id="Fill-9" fill="#AFDCFD" mask="url(#masterstickersscreen-2-mask-2)"/>
                </g>
                <path d="M23.6014515,232.017632 C23.3443197,237.95941 22.7476697,250.747367 22.318394,252.121276 C41.0512946,251.783316 123.324814,251.817934 197.733914,251.928712 C197.736516,251.928712 197.738684,251.926548 197.738684,251.923952 L197.738684,234.66073 C197.738684,232.964872 196.374541,231.583174 194.675649,231.558076 L26.7542435,229.053883 C25.0713958,229.029217 23.6738647,230.339516 23.6014515,232.017632" id="Fill-12" fill="#70A0E6"/>
                <polygon id="Fill-14" fill="#232E68" points="24.8419718 195.834622 66.9053599 196.946731 199.899328 199.907018 209.911427 67.3994364 164.403426 67.3994364 160.574633 113.969978 117.18656 112.713338 115.375797 139.40136 73.3124091 138.011007 70.8052652 161.615415 28.7089226 161.615415"/>
                <path d="M231.233814,76.2108887 L220.187985,175.541703 C220.187985,175.541703 216.198322,201.782718 245.71515,201.701365 C275.940934,201.618281 354.279425,203.081765 354.279425,203.081765 C354.279425,203.081765 378.165803,204.51842 379.95662,178.688929 C381.947766,149.977474 390.815563,80.4442596 390.815563,80.4442596 C390.815563,80.4442596 395.757004,53.3083651 367.148159,53.9639469 C337.732362,54.6377033 255.846926,54.5749578 255.846926,54.5749578 C255.846926,54.5749578 232.727607,51.9305615 231.233814,76.2108887" id="Fill-16" fill="#F8FBF8"/>
                <polygon id="Fill-18" fill="#FECB72" points="236.724251 170.359491 235.995783 177.323804 242.805658 177.167589 243.53456 170.203277"/>
                <polygon id="Fill-20" fill="#FEF864" points="237.773115 158.000151 237.044213 164.964897 243.854522 164.808249 244.583423 157.844369"/>
                <polygon id="Fill-22" fill="#FF00BF" points="235.682152 181.593524 234.95325 188.558269 241.763558 188.401622 242.492026 181.437742"/>
                <path d="M24.8419718,213.222339 L24.8419718,216.900954 C24.8419718,218.584696 26.1874695,219.961201 27.8742197,220.003176 L96.6147118,221.705525 C98.3157712,221.747067 99.7349829,220.417296 99.7991575,218.720139 L99.9361788,215.097347 C100.001221,213.369899 98.6396793,211.922427 96.9087006,211.878288 L28.0307536,210.120117 C26.2828641,210.075979 24.8419718,211.477583 24.8419718,213.222339" id="Fill-24" fill="#70A0E6"/>
                <path d="M108.226101,215.477671 L108.226101,218.754281 C108.226101,220.438023 109.571599,221.814961 111.257915,221.856503 L194.552157,223.925805 C196.298745,223.969511 197.73877,222.567907 197.73877,220.823583 L197.73877,216.68498 C197.73877,214.988689 196.37376,213.606991 194.674435,213.582325 L111.380627,212.375016 C109.645746,212.349485 108.226101,213.746329 108.226101,215.477671" id="Fill-26" fill="#70A0E6"/>
                <path d="M234.695078,215.483556 L234.695078,220.24269 C234.695078,221.924268 236.037106,223.299476 237.721255,223.344479 L321.94386,225.58817 C323.69305,225.634472 325.13611,224.232436 325.13611,222.486381 L325.13611,216.863956 C325.13611,215.170261 323.775003,213.789428 322.077846,213.761734 L237.855241,212.380901 C236.118192,212.352774 234.695078,213.75005 234.695078,215.483556" id="Fill-28" fill="#70A0E6"/>
                <path d="M234.695078,234.981641 L234.695078,238.954943 C234.695078,240.638684 236.041009,242.015623 237.727759,242.057164 L321.950364,244.128197 C323.696952,244.170604 325.13611,242.769433 325.13611,241.025975 L325.13611,236.146543 C325.13611,234.449819 323.770233,233.067255 322.070041,233.043888 L237.84787,231.878986 C236.113422,231.854753 234.695078,233.251164 234.695078,234.981641" id="Fill-30" fill="#70A0E6"/>
                <path d="M364.386664,123.756365 C364.388696,122.469434 364.365281,121.167358 364.2907,119.834125 C360.868635,58.7663542 253.985907,56.2561033 255.572493,124.705336 C256.081119,146.668841 266.918381,161.481529 281.565791,169.389187 C288.998332,158.815496 310.012031,124.939441 310.012031,124.939441 L364.386664,123.756365 Z" id="Fill-32" fill="#FECB72"/>
                <path d="M350.90857,159.441999 C359.105135,150.814715 364.358777,138.891348 364.386528,123.756279 L310.012031,124.939788 L350.90857,159.441999 Z" id="Fill-34" fill="#FEF864"/>
                <path d="M350.90857,159.441999 L310.012031,124.939788 C310.012031,124.939788 288.998332,158.815409 281.565791,169.3891 C303.378637,181.16534 333.646047,177.610919 350.90857,159.441999" id="Fill-36" fill="#FF00BF"/>
                <path d="M26.497632,36.8018535 C26.497632,36.8018535 13.0621678,35.8667298 11.8124983,48.962788 C10.5623953,62.0588462 8.68789109,87.0038425 8.68789109,87.0038425 C8.68789109,87.0038425 7.43822163,97.2936644 22.4359895,98.2292207 L41.6515002,98.2292207 C41.6515002,98.2292207 46.6506116,97.9172244 46.338411,103.997475 C46.0257769,110.078159 47.2754463,140.323632 47.2754463,140.323632 C47.2754463,140.323632 48.3690155,145.780755 51.9623572,138.452952 C55.5556989,131.125581 65.8661223,101.971013 65.8661223,101.971013 C65.8661223,101.971013 66.1787565,97.2936644 74.1463748,97.7614425 C82.1139932,98.2292207 88.8315085,98.2292207 88.8315085,98.2292207 C88.8315085,98.2292207 97.1117611,98.9306716 98.0487964,91.2134135 C99.0998716,82.5610316 102.501557,51.4501044 102.501557,51.4501044 C102.501557,51.4501044 104.922846,38.5167516 91.0186469,38.0494062 C77.1144482,37.581628 26.497632,36.8018535 26.497632,36.8018535" id="Fill-38" fill="#FE5C4F"/>
            </g>
        </g>
    </g>
</svg>
