<svg viewBox="73.915 243.425 552.021 514.937" xmlns="http://www.w3.org/2000/svg" xmlns:xlink="http://www.w3.org/1999/xlink" overflow="visible">
    <defs>
        <polygon id="mastercharactersitting-path-1" points="0.644 0.0174503817 98.896 0.0174503817 98.896 28.4488725 0.644 28.4488725"/>
        <path d="M0.611,4.152 C0.516,6.977 4.407,8.141 8.572,9.455 L8.572,9.455 C16.217,11.868 20.367,12.194 21.052,9.038 L21.052,9.038 C21.453,7.193 20.288,5.826 18.679,5.317 L18.679,5.317 C17.91,5.073 16.958,4.844 15.818,4.517 L15.818,4.517 C15.818,4.517 12.448,3.701 6.92,1.517 L6.92,1.517 C6.885,1.502 6.85,1.488 6.813,1.475 L6.813,1.475 C5.923,1.139 5.098,0.988999462 4.36,0.988999462 L4.36,0.988999462 C2.113,0.988 0.672,2.381 0.611,4.152 L0.611,4.152 Z" id="mastercharactersitting-path-3"/>
    </defs>
    <g id="Master/Character/Sitting" stroke="none" stroke-width="1" fill="none" fill-rule="evenodd">
        <g id="Lower Sitting" transform="translate(204.000000, 488.000000) scale(1 1)">
            <defs>
                <polygon id="lower-sittingstraight-legs-1-path-1" points="0.644 0.018 98.896 0.018 98.896 31.1879 0.644 31.1879"/>
            </defs>
            <g id="Lower Sitting/Straight Legs 1" stroke="none" stroke-width="1" fill="none" fill-rule="evenodd">
                <g id="Group-100" transform="translate(51.000000, 6.000000)">
                    <g id="Group-99" transform="translate(0.000000, 0.982000)">
                        <path d="M173.4432,190.5383 C173.4432,190.5383 172.8462,246.4163 173.0112,248.5213 C173.1752,250.6263 173.6182,252.5333 177.9292,252.7263 C182.2392,252.9193 185.0112,252.9973 185.0112,252.9973 C185.0112,252.9973 187.5152,253.1743 188.4332,250.3563 C189.3502,247.5393 193.2712,238.2293 193.2712,238.2293 L198.2452,251.4343 C198.2452,251.4343 198.0862,253.9173 203.2242,254.1633 C208.3622,254.4083 230.2332,254.9633 234.9072,254.8943 C290.6162,254.0753 234.6182,234.9473 220.1072,230.6053 C218.2052,230.0363 216.8962,228.2983 216.8812,226.3123 C216.8102,217.1143 216.6402,192.4983 216.8542,191.7963 L173.4432,190.5383 Z" id="Fill-88" fill="#4D33A2"/>
                        <path d="M137.4939,190.558816 C136.1649,190.5479 135.0779,191.6149 135.0649,192.9429 C134.9529,203.6649 134.5139,246.6789 134.6579,248.5219 C134.8219,250.6259 135.2649,252.5339 139.5759,252.7269 C143.8859,252.9189 146.6579,252.9969 146.6579,252.9969 C146.6579,252.9969 149.1619,253.1739 150.0799,250.3569 C150.5019,249.0589 151.5619,246.3839 152.5829,243.8749 C153.4089,241.8459 156.2959,241.8859 157.0679,243.9369 L158.2049,246.9549 C158.2049,246.9549 160.2879,252.7759 165.3819,253.4919 C172.0879,254.4339 191.8799,254.9629 196.5549,254.8949 C254.3819,254.0439 194.1699,232.7219 182.9729,229.3169 C181.9659,229.0099 181.2819,228.0939 181.2729,227.0419 C181.2229,220.8249 181.0709,200.4079 181.1529,193.3399 C181.1679,192.0049 180.0989,190.9129 178.7639,190.9019 L137.4939,190.558816 Z" id="Fill-90" fill="#8C72CB"/>
                        <path d="M100.2401,25.3509 L86.2371,21.6909 L43.4856803,21.6909 L43.4856803,33.1069 L43.4856803,33.1069 C43.4856803,33.1069 42.3851,89.5889 101.5871,94.3399 L137.9261,99.4089 C137.9261,99.4089 167.2641,99.6319 167.2641,128.8549 C167.2641,140.2879 168.6301,190.3709 168.2881,195.9029 C168.1911,197.4919 168.1451,200.6929 168.1231,203.5739 C168.0991,206.8449 170.8131,209.7549 174.4621,209.8759 C175.4581,209.9099 175.9661,209.8759 176.8821,209.8759 C184.1911,209.8759 213.2091,209.891011 216.2501,209.891011 C221.8211,209.891011 222.1611,205.6819 222.2461,200.0289 C222.9971,150.0159 227.0591,94.9429 204.7451,67.3849 C187.8221,46.4849 164.9031,36.8409 100.2401,25.3509" id="Fill-92" fill="#A2D249"/>
                        <path d="M100.2401,25.3509 L75.2631,21.6909 L0.64368039,21.6909 L0.64368039,33.1069 L0.64368039,33.1069 C0.64368039,33.1069 -0.4569,89.5889 58.7461,94.3399 L95.0841,99.4089 C95.0841,99.4089 124.4231,99.6319 124.4231,128.8549 C124.4231,140.2879 125.7881,190.3709 125.4471,195.9029 C125.3491,197.4919 125.3031,200.6929 125.2821,203.5739 C125.2581,206.8449 127.9711,209.7549 131.6201,209.8759 C132.6161,209.9099 133.1241,209.8759 134.0401,209.8759 L181.9431,209.8759 C187.5131,209.8759 187.7121,205.6629 187.9391,200.0139 C188.1601,194.5249 196.4741,118.8129 181.9431,85.2539 C169.8851,57.4099 133.1621,42.8289 100.2401,25.3509" id="Fill-94" fill="#DDF77D"/>
                        <g id="Group-98">
                            <mask id="lower-sittingstraight-legs-1-mask-2" fill="#fff">
                                <use xlink:href="#lower-sittingstraight-legs-1-path-1"/>
                            </mask>
                            <g id="Clip-97"/>
                            <path d="M77.223,0.0179 L22.318,0.0179 C10.347,0.0179 0.644,9.7209 0.644,21.6909 L0.644,29.3449 L98.707,31.1879 L98.896,21.6909 C98.896,9.7209 89.193,0.0179 77.223,0.0179" id="Fill-96" fill="#DDF77D" mask="url(#lower-sittingstraight-legs-1-mask-2)"/>
                        </g>
                    </g>
                </g>
            </g>
        </g>
        <g id="Upper" transform="translate(-1.000000, 53.000000) scale(1 1)">
            <defs>
                <polygon id="uppersuperhero-path-1" points="0.606828676 0.9535 32.904 0.9535 32.904 6.2565 0.606828676 6.2565"/>
                <polygon id="uppersuperhero-path-3" points="0 0.0324 255.9499 0.0324 255.9499 196.950829 0 196.950829"/>
            </defs>
            <g id="Upper/Superhero" stroke="none" stroke-width="1" fill="none" fill-rule="evenodd">
                <g id="Group-691" transform="translate(81.500000, 271.500000)">
                    <g id="Group-551" transform="translate(0.000000, 0.095000)">
                        <path d="M477.6802,48.0172 L486.0642,48.0172 C486.0642,48.0172 491.1622,60.7632 510.3382,58.5202 C530.8462,56.1212 536.7052,40.6352 534.4042,25.7782 C532.4802,13.3622 525.2272,-6.1348 479.4722,2.0272 L477.6802,48.0172 Z" id="Fill-509" fill="#ef9e89"/>
                        <path d="M532.4048,19.4283 C532.2308,19.4283 532.0538,19.3973 531.8818,19.3333 C522.2468,15.7453 505.3498,16.5203 505.1798,16.5293 C504.3248,16.5813 503.6488,15.9303 503.6088,15.1043 C503.5688,14.2763 504.2068,13.5733 505.0338,13.5323 C505.7498,13.4983 522.7128,12.7173 532.9278,16.5223 C533.7048,16.8113 534.0988,17.6743 533.8098,18.4503 C533.5858,19.0553 533.0128,19.4283 532.4048,19.4283" id="Fill-511" fill="#000"/>
                        <g id="Group-515" transform="translate(503.000000, 23.000000)">
                            <mask id="uppersuperhero-mask-2" fill="#fff">
                                <use xlink:href="#uppersuperhero-path-1"/>
                            </mask>
                            <g id="Clip-514"/>
                            <path d="M31.4039,6.2565 C31.2569,6.2565 31.1049,6.2345 30.9569,6.1875 C24.5469,4.1845 2.3169,3.9555 2.0929,3.9535 C1.2649,3.9455 0.5989,3.2685 0.606828676,2.4405 C0.6149,1.6165 1.2849,0.9535 2.1069,0.9535 L2.1209,0.9535 C3.0519,0.9625 25.0219,1.1905 31.8509,3.3235 C32.6419,3.5705 33.0829,4.4125 32.8359,5.2025 C32.6349,5.8455 32.0429,6.2565 31.4039,6.2565" id="Fill-513" fill="#000" mask="url(#uppersuperhero-mask-2)"/>
                        </g>
                        <path d="M534.107,40.3912 C534.015,40.3912 533.922,40.3822 533.829,40.3652 C521.855,38.1202 506.431,38.0932 506.277,38.0932 C505.449,38.0932 504.777,37.4222 504.777,36.5932 C504.777,35.7652 505.449,35.0932 506.277,35.0932 C506.434,35.0932 522.129,35.1202 534.381,37.4162 C535.196,37.5692 535.732,38.3522 535.58,39.1662 C535.444,39.8872 534.814,40.3912 534.107,40.3912" id="Fill-516" fill="#000"/>
                        <g id="Group-520" transform="translate(0.000000, 31.000000)">
                            <mask id="uppersuperhero-mask-4" fill="#fff">
                                <use xlink:href="#uppersuperhero-path-3"/>
                            </mask>
                            <g id="Clip-519"/>
                            <path d="M121.6539,38.1364 C121.6539,38.1364 0.6689,70.1704 0.0039,106.3624 C-0.3241,124.2184 19.0699,124.3194 19.0699,124.3194 C19.0699,124.3194 32.2119,124.3194 34.6989,130.5264 C37.4979,137.5094 35.6969,145.4904 27.3829,150.9224 C19.0699,156.3534 -2.1711,163.1694 4.5489,184.9514 C10.9779,205.7914 49.6639,193.1554 49.6639,193.1554 L144.3269,164.7784 L255.9499,129.7504 L254.8409,0.0324 L121.6539,38.1364 Z" id="Fill-518" fill="#E2334F" mask="url(#uppersuperhero-mask-4)"/>
                        </g>
                        <path d="M148.6109,195.778 L311.1579,195.778 C312.8769,195.778 314.2779,194.399 314.3049,192.68 L316.9159,31.032 L195.8709,31.032 L145.6059,191.69 C144.9719,193.717 146.4859,195.778 148.6109,195.778" id="Fill-521" fill="#4947D9"/>
                        <path d="M171.3184,108.5416 L162.4244,108.6006 L151.9554,152.0336 C158.1284,152.3516 164.7264,152.3456 164.7264,152.3456 C164.7264,152.3456 211.6664,155.3746 215.1844,130.2046 C218.8464,104.0016 196.3694,92.4796 171.3184,108.5416" id="Fill-523" fill="#ef9e89"/>
                        <path d="M141.9991,108.3199 C141.9991,108.3199 130.5261,108.9849 130.5341,98.9049 C130.5401,91.7549 136.5951,88.7829 141.5001,88.8659 C146.4051,88.9489 183.766543,90.0351673 183.766543,90.0351673 L195.8711,31.0319 C195.8711,31.0319 118.2781,23.7439 84.8021,57.7729 C51.8071,91.3139 64.2501,147.6069 110.0751,159.1989 C120.3361,161.7939 136.0701,163.4069 143.9221,164.0959 C146.7231,164.3419 149.3111,162.5979 150.1451,159.9129 L166.1041,108.4949 L141.9991,108.3199 Z" id="Fill-525" fill="#4947D9"/>
                        <path d="M309.691728,92.5131662 C310.705728,92.2201662 441.7927,70.752 471.4697,65.766 C475.1297,65.152 477.8487,62.054 477.9937,58.346 L480.1937,1.907 L316.9157,31.032 L309.691728,92.5131662 Z" id="Fill-527" fill="#4947D9"/>
                        <path d="M203.6026,31.0319 C203.6026,31.0319 213.4126,37.0729 223.2226,39.9819 C233.0326,42.8919 255.0716,53.3509 255.0716,53.3509 L254.8416,45.9959 L235.1936,31.0319 L203.6026,31.0319 Z" id="Fill-529" fill="#E2334F"/>
                        <path d="M254.8414,45.9957 L272.6874,31.0317 L293.4714,31.0317 C293.4714,31.0317 272.3714,48.5127 255.0714,53.3507 L254.8414,45.9957 Z" id="Fill-531" fill="#E2334F"/>
                        <path d="M254.8414,45.9957 C254.8414,45.9957 246.9994,45.5607 244.7964,53.3507 C242.5924,61.1407 247.4564,64.3417 252.6524,64.5487 C257.8484,64.7567 264.3324,62.5537 263.5844,54.6557 C262.8364,46.7587 254.8414,45.9957 254.8414,45.9957" id="Fill-533" fill="#E2334F"/>
                        <path d="M247.6363,62.8727 C247.6363,62.8727 234.0483,77.6097 235.6653,85.8177 C237.1063,93.1337 243.4243,101.2817 246.0843,101.1707 C248.7443,101.0607 256.2923,92.9967 258.2783,87.7017 C260.2733,82.3817 252.4033,61.9857 252.4033,61.9857 L247.6363,62.8727 Z" id="Fill-535" fill="#E2334F"/>
                        <path d="M256.8585,60.5905 C256.8585,60.5905 269.1655,66.8985 271.6665,74.1025 C274.1565,81.2735 273.3795,90.7825 271.0255,92.0255 C268.6715,93.2685 260.5885,92.0835 256.5585,89.0615 C252.5085,86.0235 252.3405,62.2955 252.3405,62.2955 L256.8585,60.5905 Z" id="Fill-537" fill="#E2334F"/>
                        <path d="M315.4468,93.5172 L315.4218,93.5172 C314.5928,93.5032 313.9328,92.8222 313.9458,91.9942 C313.9628,90.9602 314.3478,90.3602 314.5788,90.0002 C314.7268,89.7692 314.7328,89.7602 314.7358,89.5812 C314.7438,89.1302 314.7068,88.9392 314.6558,88.6732 C314.5918,88.3352 314.5108,87.9142 314.5228,87.1542 C314.5298,86.7652 314.4898,86.6232 314.4188,86.3662 C314.3238,86.0222 314.1928,85.5492 314.2058,84.7282 C314.2218,83.7002 314.6038,83.1012 314.8318,82.7442 C314.9788,82.5112 314.9848,82.5022 314.9878,82.3222 C314.9978,81.7032 315.0088,81.3942 315.0188,81.0842 C315.0298,80.7892 315.0398,80.4942 315.0498,79.9032 C315.0518,79.7592 315.0518,79.7592 314.9048,79.5342 C314.6618,79.1612 314.2548,78.5382 314.2708,77.4742 C314.2838,76.6762 314.4068,76.2402 314.5058,75.8892 C314.5778,75.6312 314.6208,75.4752 314.6278,75.0662 C314.6418,74.1522 314.8818,73.6212 315.0408,73.2702 C315.1468,73.0322 315.1828,72.9522 315.1878,72.6572 C315.1918,72.4152 315.1678,72.3662 315.0518,72.1302 C314.8688,71.7582 314.5918,71.1972 314.6068,70.2302 C314.6198,69.4452 314.7328,69.0142 314.8238,68.6682 C314.8908,68.4122 314.9348,68.2422 314.9418,67.8192 C314.9468,67.5402 314.9158,67.4682 314.8108,67.2302 C314.6538,66.8692 314.4158,66.3232 314.4298,65.3932 C314.4428,64.5912 314.5688,64.1532 314.6698,63.8002 C314.7428,63.5432 314.7868,63.3892 314.7938,62.9832 C314.8068,62.1242 314.9858,61.6402 315.1158,61.2862 C315.2048,61.0442 315.2488,60.9232 315.2548,60.5742 C315.2588,60.3292 315.2348,60.2812 315.1198,60.0432 C314.9388,59.6732 314.6658,59.1132 314.6808,58.1512 C314.6898,57.6192 314.6688,57.3522 314.6468,57.0852 C314.6208,56.7472 314.5928,56.4092 314.6038,55.7332 C314.6148,55.0862 314.6378,54.7632 314.6628,54.4412 C314.6828,54.1612 314.7038,53.8812 314.7128,53.3212 C314.7258,52.5002 315.3948,51.8452 316.2128,51.8452 L316.2368,51.8452 C317.0648,51.8592 317.7258,52.5402 317.7128,53.3702 C317.7018,54.0152 317.6778,54.3382 317.6538,54.6622 C317.6338,54.9412 317.6128,55.2212 317.6038,55.7822 C317.5948,56.3142 317.6168,56.5792 317.6378,56.8462 C317.6648,57.1852 317.6918,57.5242 317.6808,58.2002 C317.6768,58.4442 317.7008,58.4932 317.8158,58.7302 C317.9968,59.1002 318.2698,59.6612 318.2548,60.6222 C318.2408,61.4812 318.0618,61.9662 317.9318,62.3212 C317.8428,62.5612 317.7998,62.6822 317.7938,63.0322 C317.7808,63.8332 317.6548,64.2722 317.5538,64.6242 C317.4808,64.8812 317.4368,65.0362 317.4298,65.4422 C317.4258,65.7202 317.4568,65.7922 317.5608,66.0312 C317.7178,66.3922 317.9568,66.9382 317.9418,67.8682 C317.9288,68.6532 317.8158,69.0832 317.7248,69.4292 C317.6578,69.6862 317.6138,69.8562 317.6068,70.2792 C317.6028,70.5202 317.6278,70.5702 317.7428,70.8052 C317.9258,71.1772 318.2038,71.7392 318.1878,72.7052 C318.1738,73.6202 317.9338,74.1512 317.7748,74.5022 C317.6688,74.7402 317.6328,74.8202 317.6278,75.1152 C317.6148,75.9132 317.4918,76.3492 317.3928,76.7002 C317.3208,76.9572 317.2778,77.1142 317.2708,77.5232 C317.2678,77.6662 317.2678,77.6662 317.4158,77.8922 C317.6588,78.2652 318.0658,78.8882 318.0498,79.9522 C318.0398,80.5712 318.0288,80.8792 318.0178,81.1892 C318.0078,81.4842 317.9978,81.7802 317.9878,82.3712 C317.9708,83.3992 317.5898,83.9972 317.3618,84.3552 C317.2148,84.5872 317.2088,84.5962 317.2058,84.7772 C317.1988,85.1652 317.2388,85.3072 317.3098,85.5652 C317.4048,85.9102 317.5358,86.3812 317.5228,87.2032 C317.5148,87.6542 317.5518,87.8452 317.6028,88.1112 C317.6678,88.4492 317.7478,88.8702 317.7358,89.6302 C317.7188,90.6632 317.3338,91.2632 317.1028,91.6222 C316.9548,91.8542 316.9488,91.8632 316.9458,92.0412 C316.9318,92.8622 316.2628,93.5172 315.4468,93.5172" id="Fill-539" fill="#000"/>
                        <path d="M187.0669,140.6842 C186.3799,140.6842 185.7609,140.2102 185.6039,139.5132 C185.4219,138.7052 185.9299,137.9022 186.7389,137.7202 L214.2499,131.5352 C215.0609,131.3502 215.8599,131.8622 216.0429,132.6692 C216.2239,133.4772 215.7159,134.2802 214.9079,134.4612 L187.3969,140.6472 C187.2869,140.6722 187.1749,140.6842 187.0669,140.6842" id="Fill-541" fill="#000"/>
                        <path d="M185.9576,128.3151 C185.2456,128.3151 184.6136,127.8061 184.4826,127.0811 C184.3366,126.2651 184.8786,125.4851 185.6936,125.3381 L215.0116,120.0621 C215.8236,119.9161 216.6056,120.4571 216.7536,121.2721 C216.8996,122.0871 216.3576,122.8681 215.5426,123.0141 L186.2256,128.2911 C186.1356,128.3071 186.0456,128.3151 185.9576,128.3151" id="Fill-543" fill="#000"/>
                        <path d="M185.9576,116.9635 C185.2616,116.9635 184.6376,116.4765 184.4906,115.7675 C184.3226,114.9555 184.8446,114.1615 185.6546,113.9935 L211.2526,108.6885 C212.0536,108.5195 212.8576,109.0395 213.0256,109.8535 C213.1936,110.6635 212.6726,111.4575 211.8616,111.6255 L186.2646,116.9315 C186.1616,116.9525 186.0596,116.9635 185.9576,116.9635" id="Fill-545" fill="#000"/>
                        <path d="M247.107,1.9069 L235.708,1.9069 C230.554,1.9069 226.168,5.6009 225.252,10.6419 C225.242,10.7049 225.233,10.7649 225.224,10.8289 L225.218,10.8619 L225.218,10.8629 C225.181,11.1079 225.143,11.3579 225.106,11.6069 C223.779,20.3479 222.141,31.0589 222.141,31.0589 L257.574,31.0589 L257.646,23.2939 L257.744,12.6419 C257.799,6.7289 253.021,1.9069 247.107,1.9069" id="Fill-547" fill="#ef9e89"/>
                        <path d="M257.5738,31.0592 C243.6988,30.0832 239.9078,27.1082 240.0418,24.6312 C240.1608,22.4132 242.2458,22.7222 243.1568,22.7432 C247.1708,22.8322 257.6458,23.2932 257.6458,23.2932" id="Fill-549" fill="#000"/>
                    </g>
                </g>
            </g>
        </g>
        <g id="Head" transform="translate(204.000000, 198.000000) scale(1 1)">
            <defs>
                <polygon id="headlong-slick-1-path-1" points="0.371818811 0.914589475 82.838 0.914589475 82.838 95.9937941 0.371818811 95.9937941"/>
            </defs>
            <g id="Head/Long Slick 1" stroke="none" stroke-width="1" fill="none" fill-rule="evenodd">
                <g id="Group-183" transform="translate(92.000000, 45.000000)">
                    <g id="Group-125" transform="translate(0.000000, 0.738000)">
                        <path d="M66.0643,74.9752 C64.4293,70.9292 53.9113,71.9212 50.6773,71.8992 C49.3003,65.9322 47.7933,60.4952 46.4333,57.9502 C43.7283,52.8922 35.4813,47.5782 22.2933,49.6192 C13.5353,50.9732 4.2103,59.1432 10.2673,73.3632 C10.2673,73.3632 12.0003,76.8112 11.1703,82.4962 C11.0783,83.1212 10.9483,83.9962 10.7933,85.0382 L10.7923,85.0442 C10.5283,86.8052 10.1883,89.0612 9.8143,91.5262 C9.8053,91.5882 9.7953,91.6492 9.7863,91.7112 L9.7813,91.7462 L9.7803,91.7462 C9.7433,91.9922 9.7063,92.2422 9.6683,92.4912 C9.4383,95.0802 10.1453,103.5562 29.2223,103.6522 L42.2083,104.1772 L42.4063,104.1862 C42.4063,104.1862 46.7573,104.1372 49.3913,104.1372 C54.8653,104.1372 55.8053,98.9182 55.1913,95.0562 C54.9743,93.6932 54.2633,89.4972 53.2773,84.3502 C64.5953,82.2912 67.5013,78.5332 66.0643,74.9752" id="Fill-120" fill="#ef9e89"/>
                        <g id="Group-124">
                            <mask id="headlong-slick-1-mask-2" fill="#fff">
                                <use xlink:href="#headlong-slick-1-path-1"/>
                            </mask>
                            <g id="Clip-123"/>
                            <path d="M23.0302,68.6823 C22.2562,70.5243 20.5242,71.7773 18.5332,71.9433 C16.7552,72.0923 14.6912,72.9533 13.8772,75.9173 C12.4582,81.0883 15.9592,84.8743 20.6142,84.9853 L19.9742,95.7593 C19.9742,95.7593 10.8842,97.7543 8.1132,90.1063 C5.3422,82.4573 5.4842,71.5943 1.7522,63.6143 C-1.9798,55.6323 1.7522,41.3333 14.2102,38.1193 C27.5622,34.6733 30.5042,21.4923 30.5042,21.4923 C30.5042,21.4923 36.2402,-7.2477 65.7542,3.2023 C88.9212,11.4053 88.0342,38.8953 66.0832,43.8623 C51.6702,47.1233 59.3942,62.0313 40.9242,64.0573 L28.1082,64.4093 C26.0872,64.4643 24.2842,65.6983 23.5002,67.5633 L23.0302,68.6823 Z" id="Fill-122" fill="#d5e1d5" mask="url(#headlong-slick-1-mask-2)"/>
                        </g>
                    </g>
                </g>
            </g>
        </g>
        <g id="Expression" transform="translate(315.000000, 299.000000) scale(1 1)">
            <g id="Expression/Smile" stroke="none" stroke-width="1" fill="none" fill-rule="evenodd">
                <g id="Expression" transform="translate(14.000000, 12.000000)" fill="#000">
                    <path d="M8.5371,3.6102 C8.8431,6.5462 13.2671,6.1902 13.3041,3.3662 C13.3451,0.1732 8.1761,0.1392 8.5371,3.6102" id="Fill-95"/>
                    <path d="M3.8824,24.6669 C10.1784,28.8049 17.2924,27.1859 17.6314,27.1049 C18.4374,26.9129 18.9354,26.1039 18.7434,25.2989 C18.5514,24.4919 17.7444,23.9949 16.9394,24.1859 C16.8054,24.2169 9.0204,25.9289 3.5054,20.5259 C2.9134,19.9499 1.9634,19.9569 1.3834,20.5479 C0.8044,21.1409 0.8144,22.0899 1.4064,22.6699 C2.2044,23.4509 3.0364,24.1109 3.8824,24.6669" id="Fill-97"/>
                </g>
            </g>
        </g>
        <g id="Facial Hair" transform="translate(311.300000, 303.950000) scale(1 1)" fill="#000">
            <g id="Facial Hair/None" stroke="none" stroke-width="1" fill="none" fill-rule="evenodd" fill-opacity="0"/>
        </g>
        <g id="Accesories" transform="translate(311.300000, 303.950000) scale(1 1)" fill="#000">
            <g id="Accesories/None" stroke="none" stroke-width="1" fill="none" fill-rule="evenodd" fill-opacity="0"/>
        </g>
    </g>
</svg>
