<svg viewBox="76.5 102 790.5 828.75" xmlns="http://www.w3.org/2000/svg" xmlns:xlink="http://www.w3.org/1999/xlink" overflow="visible">
    <defs>
        <polygon id="masterspot-illustrationbrowsing-path-1" points="0.788923017 0.381 328.99029 0.381 328.99029 507 0.788923017 507"/>
        <polygon id="masterspot-illustrationbrowsing-path-3" points="0 0.971969833 42.3311467 0.971969833 42.3311467 76.5646 0 76.5646"/>
    </defs>
    <g id="Master/Spot Illustration/Browsing" stroke="none" stroke-width="1" fill="none" fill-rule="evenodd">
        <path d="M442.110214,296.765039 L368.564333,140.330556 C366.027536,134.93677 357.989172,136.357907 357.456657,142.295645 L340.274063,333.763599 C340.002905,336.777389 337.479176,339.085511 334.453968,339.085511 L161.853756,339.085511 C155.95362,339.085511 153.771289,346.833156 158.804046,349.912286 L288.491059,429.263987 C291.552204,431.1376 292.225199,435.294833 289.897487,438.027663 C266.791888,465.179542 161.156259,589.543706 164.895299,589.543706 C168.529796,589.543706 302.222107,545.493368 338.03946,533.668531 C342.114997,532.322535 346.177466,535.690792 345.644951,539.949302 L322.712501,723.413152 C321.985602,729.225111 329.3085,732.372847 333.026305,727.844812 L456.584495,577.372569 C459.055953,574.362046 463.724444,574.567866 465.92311,577.782575 L560.699353,716.395677 C564.105162,721.374556 571.905037,718.555151 571.338219,712.547173 L552.984418,517.998457 C552.696926,514.94873 554.813918,512.194665 557.834226,511.686649 L723.877642,483.811134 C729.681402,482.837574 730.565116,474.86124 725.115821,472.639693 L576.433048,412.022494 C571.465631,409.996966 571.624078,402.909251 576.676437,401.109145 L755.116346,337.460188 C761.101423,335.325216 759.858344,326.520702 753.515534,326.127031 L561.921197,314.225419 C558.938459,314.040835 556.574811,311.63307 556.4474,308.643782 L547.94186,110.597762 C547.677236,104.436236 539.284407,102.833782 536.768845,108.467691 L452.732745,296.662129 C450.69416,301.226102 444.237007,301.289808 442.110214,296.765039" id="Fill-21" fill="#FFE2E9" opacity=".5"/>
        <g id="Phone Screen" transform="translate(367.000000, 101.000000) scale(1 1)">
            <defs>
                <polygon id="phone-screensocial-media-path-1" points="0.788923017 0.381 328.99029 0.381 328.99029 507 0.788923017 507"/>
                <polygon id="phone-screensocial-media-path-3" points="0 0.971969833 42.3311467 0.971969833 42.3311467 76.5646 0 76.5646"/>
            </defs>
            <g id="Phone Screen/Social Media" stroke="none" stroke-width="1" fill="none" fill-rule="evenodd">
                <g id="Group-57" transform="translate(97.000000, 73.000000)">
                    <g id="Group-3" transform="translate(29.000000, 0.619000)">
                        <mask id="phone-screensocial-media-mask-2" fill="#fff">
                            <use xlink:href="#phone-screensocial-media-path-1"/>
                        </mask>
                        <g id="Clip-2"/>
                        <path d="M81.8883,1.0597 C81.8883,1.0597 45.6413,-0.2703 41.9833,32.5397 C37.8763,69.3797 3.4093,419.6187 1.1923,457.3057 C-1.0257,494.9947 5.1823,506.5227 37.9923,506.9657 C70.8033,507.4097 250.8193,503.4177 250.8193,503.4177 C250.8193,503.4177 281.7453,503.0857 284.9593,476.3717 C289.0873,442.0667 325.3083,69.7857 328.4113,39.1917 C331.5153,8.5977 322.6483,1.8547 289.3943,0.7917 C256.1393,-0.2703 81.8883,1.0597 81.8883,1.0597" id="Fill-1" fill="#AFDCFD" mask="url(#phone-screensocial-media-mask-2)"/>
                    </g>
                    <path d="M202.6861,466.2939 L148.6481,466.2939 C148.6481,466.2939 134.1821,465.6289 133.3511,472.4459 C132.5201,479.2639 138.3391,482.0899 148.4821,482.2559 C158.6241,482.4229 202.6861,482.2559 202.6861,482.2559 C202.6861,482.2559 220.8091,482.7989 220.8091,474.9399 C220.8091,466.2169 202.6861,466.2939 202.6861,466.2939" id="Fill-4" fill="#70A0E6"/>
                    <polygon id="Fill-6" fill="#70A0E6" points="68.9879 443.8476 281.4819 445.8426 320.3889 37.8156 108.2279 37.8156"/>
                    <path d="M209.5416,19.414 C209.1876,26.986 220.7546,27.139 220.8486,19.635 C220.9436,11.991 209.9036,11.689 209.5416,19.414" id="Fill-8" fill="#70A0E6"/>
                    <polygon id="Fill-10" fill="#3164CF" points="178.814 379.5058 267.613 380.6018 267.613 370.9598 178.814 369.5348"/>
                    <polygon id="Fill-12" fill="#3164CF" points="178.814 362.5224 267.613 363.9474 267.613 354.1954 181.012 353.2344"/>
                    <polygon id="Fill-14" fill="#3164CF" points="181.1588 346.1963 268.3458 347.6523 268.3458 337.1013 182.0378 335.7863"/>
                    <polygon id="Fill-16" fill="#3164CF" points="178.814 431.5488 267.613 432.6448 267.613 423.0018 178.814 421.5778"/>
                    <polygon id="Fill-18" fill="#3164CF" points="178.814 414.5654 267.613 415.9894 267.613 406.2374 181.012 405.2774"/>
                    <polygon id="Fill-20" fill="#3164CF" points="181.1588 398.2382 268.3458 399.6952 268.3458 389.1442 182.0378 387.8292"/>
                    <path d="M137.5797,237.0068 C137.5797,237.0068 135.9167,227.1968 126.9377,229.3588 C117.9597,231.5208 115.7977,246.6508 138.4107,261.1158 C138.4107,261.1158 169.6697,237.2158 151.7127,229.0478 C151.7127,229.0478 142.7337,226.0328 137.5797,237.0068" id="Fill-22" fill="#FE5C4F"/>
                    <path d="M257.1275,232.6835 L180.8105,231.8525 C180.8105,231.8525 168.5055,230.8555 166.5105,242.6605 C164.5155,254.4655 168.3395,261.4495 179.6465,261.9475 C190.9515,262.4465 260.2865,263.4445 260.2865,263.4445 C260.2865,263.4445 273.0895,264.7745 274.2535,252.1375 C275.4175,239.5005 274.0815,232.8695 257.1275,232.6835" id="Fill-24" fill="#FEF864"/>
                    <polygon id="Fill-26" fill="#F8FBF8" points="118.1392 270.6074 116.9612 285.7244 270.2632 288.2184 271.2612 273.7534"/>
                    <polygon id="Fill-28" fill="#F8FBF8" points="116.1304 296.1992 116.1304 312.6602 268.2954 315.3202 269.4324 299.0262"/>
                    <g id="Group-32" transform="translate(0.000000, 179.619000)">
                        <mask id="phone-screensocial-media-mask-4" fill="#fff">
                            <use xlink:href="#phone-screensocial-media-path-3"/>
                        </mask>
                        <g id="Clip-31"/>
                        <path d="M15.2047,76.5646 C15.2047,76.5646 40.0587,46.5556 42.1407,26.6276 C45.7747,-8.1724 -3.8513,-8.5804 0.2397,31.6166 C3.3997,62.6726 15.2047,76.5646 15.2047,76.5646" id="Fill-30" fill="#FF71DB" mask="url(#phone-screensocial-media-mask-4)"/>
                    </g>
                    <path d="M13.3756,204.9169 C12.4246,215.1169 28.3936,216.6049 28.6726,205.6519 C28.9486,194.7749 14.3206,194.7749 13.3756,204.9169" id="Fill-33" fill="#FF00BF"/>
                    <path d="M184.8004,173.4921 C198.4344,201.4251 212.7344,174.1571 212.7344,174.1571 C212.7344,174.1571 232.0214,123.9431 254.9664,123.9431 C267.7924,123.9431 276.7824,142.9921 282.6264,162.4901 C286.5394,126.8391 291.2134,83.5421 291.2134,83.5421 C291.2134,83.5421 294.2064,71.0691 277.5794,70.0711 C260.9514,69.0741 150.5484,71.7341 150.5484,71.7341 C150.5484,71.7341 138.5504,71.3971 136.2494,83.5421 C133.9474,95.6871 123.1274,201.7421 123.1274,201.7421 L151.8784,168.8361 C151.8784,168.8361 171.1654,145.5581 184.8004,173.4921" id="Fill-35" fill="#3164CF"/>
                    <path d="M136.5816,215.0595 L265.2746,218.0525 C265.2746,218.0525 275.9166,220.3795 277.5796,207.4115 C278.2026,202.5445 280.2776,183.8965 282.6266,162.4905 C276.7826,142.9925 267.7926,123.9435 254.9666,123.9435 C232.0206,123.9435 212.7336,174.1575 212.7336,174.1575 C212.7336,174.1575 198.4346,201.4245 184.8006,173.4925 C171.1656,145.5585 151.8786,168.8355 151.8786,168.8355 L123.1276,201.7425 C123.1276,201.7425 120.2876,215.0595 136.5816,215.0595" id="Fill-37" fill="#00DEB8"/>
                    <path d="M211.7359,106.6513 C213.7309,123.9433 238.8929,120.6193 237.5629,103.8803 C236.2849,87.7933 209.6949,88.9633 211.7359,106.6513" id="Fill-39" fill="#FEF864"/>
                    <path d="M16.357,338.0449 C12.568,341.3799 9.339,346.3099 8.221,353.6179 C5.161,373.6089 4.073,400.2439 3.919,404.3739 C16.863,395.2439 35.922,381.6529 49.655,371.8439 L16.357,338.0449 Z" id="Fill-41" fill="#D5E1D5"/>
                    <path d="M141.5758,401.7177 C143.4278,384.2247 147.2908,349.3767 147.2908,349.3767 C147.2908,349.3767 148.4068,341.9327 144.6898,335.7857 C135.1148,345.1137 118.8908,360.8417 105.6058,373.3367 L141.5758,401.7177 Z" id="Fill-43" fill="#D5E1D5"/>
                    <path d="M22.1881,424.2275 C42.1401,423.8955 120.5631,422.5655 120.5631,422.5655 C120.5631,422.5655 139.5751,420.9025 141.2371,404.9405 C141.3401,403.9525 141.4541,402.8725 141.5761,401.7175 L105.6061,373.3365 C102.9681,375.8175 100.4351,378.1825 98.1051,380.3315 C77.9191,398.9555 59.7651,382.1055 59.7651,382.1055 L49.6551,371.8435 C35.9221,381.6535 16.8631,395.2445 3.9181,404.3735 C3.9051,404.7325 3.8981,404.9405 3.8981,404.9405 C3.8981,404.9405 2.2351,424.5605 22.1881,424.2275" id="Fill-45" fill="#B2C7B2"/>
                    <path d="M127.6031,327.790993 C107.6391,327.804 33.4941,331.116 33.4941,331.116 C33.4941,331.116 23.8321,331.466 16.3571,338.045 L49.6551,371.844 L59.7651,382.105 C59.7651,382.105 77.9191,398.955 98.1051,380.332 C100.4351,378.183 102.9681,375.817 105.6061,373.337 C118.8911,360.842 135.1151,345.114 144.6901,335.786 C142.0771,331.465 137.0771,327.785 127.6031,327.790993" id="Fill-47" fill="#F8FBF8"/>
                    <path d="M280.7935,324.908681 C280.7935,324.908681 247.5395,324.4661 243.1055,352.3981 C238.6715,380.3321 282.5665,381.6621 282.5665,381.6621 C282.5665,381.6621 247.3545,382.5491 242.7905,406.9351 C238.2285,431.3221 287.8885,431.3221 287.8885,431.3221 L351.7355,433.5391 C351.7355,433.5391 389.0095,434.4261 391.2125,414.4731 C393.4145,394.5201 375.6785,383.4351 352.6225,381.6621 C352.6225,381.6621 396.9745,378.5281 398.2915,353.2851 C399.6215,327.7911 357.9905,327.5191 357.9905,327.5191 L280.7935,324.908681 Z" id="Fill-49" fill="#FF71DB"/>
                    <path d="M268.3785,142.2333 C266.0115,225.4913 389.8865,220.5673 391.1965,146.2233 C392.5665,68.5503 270.8135,56.6543 268.3785,142.2333" id="Fill-51" fill="#FEF864"/>
                    <path d="M329.7535,104.4892 C323.6685,104.2882 312.4955,106.6512 307.8415,117.2792 C300.7805,133.4042 312.9945,140.2372 312.9945,140.2372 C312.9945,140.2372 321.7745,145.5032 308.6715,150.8792 C298.9965,154.8482 292.2105,158.9702 293.2085,170.0552 C294.2065,181.1402 306.3995,192.0032 330.8965,191.4492 C355.3945,190.8942 368.1015,181.7212 368.2805,170.2512 C368.4175,161.5202 368.4185,156.3662 348.2435,149.5492 C348.2435,149.5492 339.8655,146.2172 346.0825,141.1242 C355.8925,133.0882 355.5605,105.3432 329.7535,104.4892" id="Fill-53" fill="#FE5C4F"/>
                    <path d="M47.3502,114.9648 C47.6162,106.8208 60.2642,106.1498 60.1532,115.1308 C60.0582,122.8158 47.1162,122.1248 47.3502,114.9648 L47.3502,114.9648 Z M149.7732,96.1758 L58.9892,94.3468 C58.9892,94.3468 31.8872,92.6818 31.8872,115.6298 C31.8872,137.5768 56.3292,136.7458 56.3292,136.7458 L147.1122,140.2368 L174.5462,119.2868 L149.7732,96.1758 Z" id="Fill-55" fill="#FE5C4F"/>
                </g>
            </g>
        </g>
        <g transform="translate(0.000000, 174.000000) scale(1 1)" id="Master/Character/Standing">
            <defs>
                <polygon id="mastercharacterstanding-path-1" points="0.606828676 0.9535 32.904 0.9535 32.904 6.2565 0.606828676 6.2565"/>
                <polygon id="mastercharacterstanding-path-3" points="0 0.0324 255.9499 0.0324 255.9499 196.950829 0 196.950829"/>
            </defs>
            <g id="Master/Character/Standing" stroke="none" stroke-width="1" fill="none" fill-rule="evenodd">
                <g id="Lower" transform="translate(14.000000, 442.000000) scale(1 1)">
                    <g id="Lower/Jean Shorts" stroke="none" stroke-width="1" fill="none" fill-rule="evenodd">
                        <g id="Group-332" transform="translate(236.000000, -1.000000)">
                            <g id="Group-126" transform="translate(0.000000, 0.142000)">
                                <path d="M72.0978,172.4369 L35.7948,172.4369 C9.5208,172.4369 8.5178,190.2879 8.5178,190.2879 L10.6818,271.3909 C10.6818,271.3909 12.9308,287.5639 39.4058,287.5639 L75.7078,287.5639 C102.1828,287.5639 103.8888,268.5599 103.8888,268.5599 L103.928158,189.2869 C103.928158,189.2869 104.3898,172.4369 72.0978,172.4369" id="Fill-98" fill="#5e0606"/>
                                <polygon id="Fill-100" fill="#F8FBF8" points="9.7379 236.017 103.9279 236.017 103.8879 268.56 10.3719 267.807"/>
                                <path d="M64.5915,242.2348 L9.7375,242.2348 L10.1225,250.2568 C10.1225,250.2568 55.2505,250.4588 63.6745,250.2568 C72.0975,250.0568 103.9285,250.3468 103.9285,250.3468 L103.9285,242.3848 C103.9285,242.3848 67.9165,242.2348 64.5915,242.2348" id="Fill-102" fill="#FE5C4F"/>
                                <path d="M126.7531,268.56 L103.8891,267.689 L61.9691,267.689 C61.9691,267.689 16.9911,267.306 10.3721,267.807 C8.3621,267.959 7.3131,268.61 6.9201,271.391 C6.9201,271.391 6.2101,285.107 8.7681,296.539 L46.8391,296.539 L122.4711,296.539 L162.5351,296.539 C162.5431,296.339 162.5551,296.144 162.5551,295.937 C162.5551,284.806 139.5391,273.975 126.7531,268.56" id="Fill-104" fill="#FE5C4F"/>
                                <path d="M122.4709,296.5385 L46.8389,296.5385 L8.7679,296.5385 C8.7679,296.5385 5.8129,302.8815 6.9899,307.2315 L47.0539,307.2315 L111.2079,307.2315 L151.2729,307.2315 C151.2729,307.2315 162.1319,307.0665 162.5349,296.5385 L122.4709,296.5385 Z" id="Fill-106" fill="#D5E1D5"/>
                                <path d="M110.0558,249.7562 C110.0558,249.7562 101.7828,254.8702 102.8348,264.6492 C103.8888,274.4262 116.5408,278.9392 123.8948,273.3732 C141.8798,259.7632 123.4438,242.2352 110.0558,249.7562" id="Fill-108" fill="#FF9786"/>
                                <path d="M126.151,281.8949 C125.678,281.8949 125.205,281.7199 124.836,281.3679 C124.076,280.6409 124.049,279.4369 124.776,278.6769 C128.102,275.1999 135.7,268.4719 136.022,268.1869 C136.809,267.4909 138.012,267.5639 138.708,268.3519 C139.405,269.1389 139.331,270.3409 138.544,271.0379 C138.466,271.1069 130.743,277.9449 127.526,281.3069 C127.152,281.6989 126.652,281.8949 126.151,281.8949" id="Fill-110" fill="#000"/>
                                <path d="M133.6945,284.9115 C133.2225,284.9115 132.7485,284.7355 132.3795,284.3835 C131.6205,283.6565 131.5925,282.4515 132.3195,281.6925 C135.6465,278.2155 143.2435,271.4885 143.5655,271.2035 C144.3525,270.5075 145.5555,270.5805 146.2525,271.3675 C146.9485,272.1545 146.8745,273.3575 146.0875,274.0545 C146.0095,274.1235 138.2865,280.9615 135.0705,284.3235 C134.6965,284.7145 134.1955,284.9115 133.6945,284.9115" id="Fill-112" fill="#000"/>
                                <path d="M140.4128,288.0736 C139.9398,288.0736 139.4658,287.8986 139.0978,287.5466 C138.3378,286.8196 138.3108,285.6146 139.0378,284.8546 C142.3638,281.3786 149.9618,274.6506 150.2838,274.3656 C151.0708,273.6696 152.2738,273.7436 152.9698,274.5306 C153.6658,275.3176 153.5928,276.5206 152.8058,277.2176 C152.7278,277.2856 145.0048,284.1246 141.7878,287.4856 C141.4138,287.8766 140.9138,288.0736 140.4128,288.0736" id="Fill-114" fill="#000"/>
                                <path d="M103.9274,300.5482 C103.4944,300.5482 103.0594,300.4012 102.7024,300.1012 C101.8984,299.4232 101.7954,298.2232 102.4724,297.4192 C102.6664,297.1852 107.2884,291.4682 103.1174,285.2662 C98.6294,278.5912 100.8634,272.4132 100.9604,272.1532 C101.3284,271.1692 102.4234,270.6692 103.4104,271.0382 C104.3904,271.4062 104.8894,272.4962 104.5294,273.4782 C104.4524,273.6912 102.9274,278.1612 106.2764,283.1422 C110.9104,290.0332 107.7194,297.0982 105.3844,299.8702 C105.0074,300.3182 104.4694,300.5482 103.9274,300.5482" id="Fill-116" fill="#000"/>
                                <path d="M106.7956,23.5502 L106.7956,23.5502 C106.7956,10.8472 96.4976,0.5492 83.7946,0.5492 L26.5036,0.5492 C13.8006,0.5492 3.5026,10.8472 3.5026,23.5502 C3.5026,23.5502 4.4566,174.5932 4.4566,184.7952 C4.4566,184.7952 4.1056,190.2872 8.5176,190.2872 L103.8376,190.2872 C103.8376,190.2872 109.7546,190.2872 109.7546,182.7662 C109.7546,175.3452 106.7956,23.5502 106.7956,23.5502" id="Fill-118" fill="#70A0E6"/>
                                <path d="M4.6588,34.9222 L27.6088,34.9222 C29.7318,34.9222 31.4508,36.6402 31.4458109,38.7632 C31.4258,47.1692 30.0098,66.4942 17.4608,67.0342 C5.0078,67.5692 1.6968,47.9422 0.8388,39.1172 C0.6198,36.8652 2.3968,34.9222 4.6588,34.9222" id="Fill-120" fill="#3164CF"/>
                                <path d="M66.0016,34.9222 L88.9516,34.9222 C91.0746,34.9222 92.7936,36.6402 92.7886109,38.7632 C92.7686,47.1692 91.3526,66.4942 78.8036,67.0342 C66.3506,67.5692 63.0396,47.9422 62.1816,39.1172 C61.9626,36.8652 63.7396,34.9222 66.0016,34.9222" id="Fill-122" fill="#3164CF"/>
                                <path d="M44.4865,306.7152 C43.4355,306.7152 42.5835,305.8632 42.5835,304.8122 C42.5835,304.1522 42.6145,303.8222 42.6445,303.4922 C42.6675,303.2502 42.6905,303.0092 42.6905,302.5262 C42.6905,301.9622 42.6875,301.6812 42.6845,301.4002 C42.6815,301.1092 42.6785,300.8182 42.6785,300.2362 C42.6785,299.7852 42.6535,299.5852 42.6215,299.3322 C42.5815,299.0242 42.5325,298.6402 42.5325,297.9452 C42.5325,297.1642 42.6485,296.7042 42.7785,296.2652 C42.8445,296.0392 42.8695,295.9552 42.8695,295.6562 C42.8695,294.9042 42.9485,294.4882 43.0125,294.1542 C43.0605,293.9082 43.0885,293.7602 43.0885,293.3692 C43.0885,293.1642 43.0795,293.1422 42.9965,292.9332 C42.8115,292.4712 42.6315,291.9482 42.6315,291.0822 L42.6285,288.7952 C42.6285,287.7992 42.9085,287.2012 43.0765,286.8432 C43.1645,286.6552 43.1645,286.6552 43.1645,286.5072 C43.1645,285.7522 43.2455,285.3352 43.3105,285.0002 C43.3585,284.7562 43.3865,284.6082 43.3865,284.2192 C43.3865,283.7002 43.3725,283.4412 43.3575,283.1812 C43.3405,282.8682 43.3225,282.5552 43.3225,281.9292 C43.3195,281.9092 43.2875,281.8662 43.2585,281.8212 C43.0205,281.4562 42.5785,280.7762 42.5785,279.6392 C42.5785,278.4672 43.0625,277.7762 43.3225,277.4032 C43.3385,277.3812 43.3555,277.3582 43.3715,277.3352 C43.3555,277.2562 43.3295,277.2182 43.3065,277.1782 C43.0795,276.7962 42.6995,276.1572 42.6995,275.0632 C42.6995,274.2652 42.8255,273.7962 42.9665,273.3482 C43.0355,273.1282 43.0585,273.0542 43.0585,272.7742 C43.0585,272.1052 43.0955,271.7492 43.1275,271.4362 C43.1515,271.1972 43.1755,270.9602 43.1755,270.4852 C43.1755,270.2032 43.1535,270.1282 43.0835,269.9072 C42.9435,269.4602 42.8175,268.9912 42.8175,268.1942 C42.8175,267.4042 42.9235,266.9512 42.9995,266.6202 C43.0535,266.3872 43.0835,266.2592 43.0835,265.9042 C43.0835,265.1162 43.1875,264.6632 43.2625,264.3342 C43.3155,264.1062 43.3445,263.9792 43.3455,263.6422 C43.3275,263.6142 43.3075,263.5882 43.2895,263.5622 C43.0285,263.1912 42.5445,262.4982 42.5445,261.3262 C42.5445,260.6232 42.5985,260.2342 42.6415,259.9212 C42.6765,259.6642 42.7025,259.4792 42.7025,259.0362 C42.7025,258.5912 42.6775,258.4032 42.6425,258.1452 C42.6005,257.8332 42.5485,257.4452 42.5485,256.7452 C42.5485,255.9702 42.6605,255.5142 42.7855,255.0772 C42.8485,254.8542 42.8755,254.7612 42.8755,254.4552 C42.8755,253.8082 42.9015,253.4842 42.9265,253.1592 C42.9465,252.9112 42.9665,252.6632 42.9665,252.1662 C42.9665,251.9822 42.9635,251.9732 42.8755,251.7662 C42.6745,251.2952 42.4795,250.7622 42.4795,249.8752 C42.4795,248.7672 42.8735,248.1222 43.1085,247.7372 C43.1365,247.6922 43.1675,247.6482 43.1915,247.5962 C43.1795,247.2202 43.1505,247.0882 43.0975,246.8512 C43.0255,246.5232 42.9255,246.0752 42.9255,245.2942 C42.9255,244.6982 42.9335,244.4002 42.9415,244.1022 C42.9475,243.8272 42.9545,243.5532 42.9545,243.0042 C42.9545,242.2292 43.0495,241.7822 43.1205,241.4572 C43.1715,241.2242 43.2005,241.0822 43.2005,240.7122 C43.2005,240.6422 43.1945,240.6132 43.1945,240.6132 C43.1765,240.5692 43.1475,240.5242 43.1215,240.4762 C42.9195,240.1032 42.5815,239.4802 42.5815,238.4252 C42.5815,237.5112 42.7815,236.9742 42.9135,236.6182 C42.9925,236.4062 43.0075,236.3682 43.0075,236.1392 C43.0075,235.9802 43.0075,235.9802 42.9175,235.7842 C42.6995,235.3052 42.4865,234.7612 42.4865,233.8522 C42.4865,232.7302 42.8955,232.0812 43.1395,231.6942 C43.1685,231.6482 43.1995,231.6052 43.2245,231.5542 C43.2075,231.1632 43.1775,231.0042 43.1335,230.7632 C43.0715,230.4312 42.9955,230.0182 42.9955,229.2712 C42.9955,228.6052 43.0305,228.2512 43.0625,227.9392 C43.0865,227.6992 43.1095,227.4612 43.1095,226.9832 C43.1095,226.3552 43.1285,226.0402 43.1465,225.7262 C43.1615,225.4682 43.1765,225.2102 43.1765,224.6942 C43.1765,224.1032 43.1815,223.8082 43.1875,223.5132 C43.1925,223.2352 43.1975,222.9572 43.1975,222.4012 C43.1875,222.3502 43.1565,222.3062 43.1285,222.2612 C42.8875,221.8742 42.4855,221.2272 42.4855,220.1112 C42.4855,219.2862 42.6115,218.8162 42.7045,218.4712 C42.7655,218.2442 42.7935,218.1402 42.7935,217.8192 C42.7935,217.2752 42.7845,217.0032 42.7765,216.7322 C42.7665,216.4312 42.7575,216.1292 42.7575,215.5272 C42.7575,214.7052 42.8825,214.2362 42.9735,213.8922 C43.0335,213.6632 43.0615,213.5592 43.0615,213.2342 C43.0615,213.0682 43.0615,213.0682 42.9705,212.8662 C42.7575,212.3882 42.5485,211.8462 42.5485,210.9422 C42.5485,210.0682 42.7335,209.5402 42.9235,209.0752 C43.0075,208.8692 43.0165,208.8482 43.0165,208.6492 C43.0165,208.2922 42.9865,208.1632 42.9325,207.9312 C42.8555,207.5992 42.7505,207.1462 42.7505,206.3542 C42.7505,205.7192 42.7715,205.4022 42.7915,205.0852 C42.8085,204.8302 42.8255,204.5752 42.8255,204.0652 C42.8255,203.1812 43.0005,202.6582 43.1165,202.3132 C43.1885,202.0992 43.2105,202.0342 43.2105,201.7732 C43.2105,201.4972 43.1865,201.4242 43.1165,201.2082 C43.0075,200.8662 42.8405,200.3502 42.8405,199.4782 C42.8405,198.7532 42.9045,198.3522 42.9565,198.0292 C42.9955,197.7832 43.0245,197.6052 43.0245,197.1822 C43.0245,196.3942 43.1435,195.9312 43.2765,195.4872 C43.3435,195.2652 43.3685,195.1812 43.3685,194.8862 C43.3685,194.7372 43.3685,194.7372 43.2785,194.5492 C43.1095,194.1902 42.8255,193.5882 42.8255,192.5872 C42.8255,192.1742 42.7975,192.0092 42.7545,191.7602 C42.6975,191.4322 42.6275,191.0252 42.6275,190.2872 C42.6275,189.3712 42.8275,188.8332 42.9595,188.4772 C43.0375,188.2672 43.0535,188.2232 43.0535,187.9902 C43.0535,187.3702 43.0685,187.0612 43.0845,186.7502 C43.0965,186.4862 43.1095,186.2232 43.1095,185.6942 C43.1095,185.0902 43.1195,184.7872 43.1295,184.4852 C43.1375,184.2132 43.1465,183.9422 43.1465,183.3992 C43.1465,182.9472 43.1205,182.7482 43.0875,182.4952 C43.0475,182.1852 42.9975,181.7982 42.9975,181.1012 C42.9975,180.8372 42.9755,180.7722 42.9035,180.5572 C42.7875,180.2102 42.6115,179.6872 42.6115,178.8012 C42.6115,178.3152 42.5885,178.0712 42.5665,177.8282 C42.5355,177.4972 42.5045,177.1652 42.5045,176.5022 C42.5045,175.8312 42.5405,175.4762 42.5725,175.1612 C42.5965,174.9222 42.6215,174.6832 42.6215,174.2042 C42.6215,173.6422 42.6175,173.3602 42.6145,173.0782 C42.6115,172.7852 42.6075,172.4922 42.6075,171.9062 C42.6075,171.2712 42.6285,170.9522 42.6495,170.6352 C42.6655,170.3782 42.6825,170.1222 42.6825,169.6102 C42.6825,168.8312 42.7965,168.3722 42.9235,167.9342 C42.9875,167.7102 43.0135,167.6172 43.0135,167.3122 C43.0135,166.5632 43.0905,166.1492 43.1525,165.8172 C43.1965,165.5732 43.2265,165.4132 43.2265,165.0122 C43.2265,164.5732 43.1995,164.3892 43.1625,164.1342 C43.1165,163.8182 43.0605,163.4242 43.0605,162.7122 C43.0605,162.0762 43.0805,161.7592 43.1015,161.4412 C43.1175,161.1842 43.1345,160.9272 43.1345,160.4142 C43.1345,160.0452 43.1055,159.9132 43.0525,159.6722 C42.9815,159.3452 42.8835,158.8972 42.8835,158.1162 C42.8835,157.2562 43.0575,156.7362 43.2365,156.2772 C43.3185,156.0672 43.3315,156.0342 43.3315,155.8182 C43.3315,155.4732 43.3025,155.3562 43.2445,155.1222 C43.1615,154.7852 43.0475,154.3222 43.0475,153.5172 C43.0475,153.2302 43.0225,153.1482 42.9545,152.9302 C42.8165,152.4822 42.6925,152.0142 42.6925,151.2182 C42.6925,150.4292 42.8125,149.9652 42.9455,149.5222 C43.0125,149.2982 43.0375,149.2142 43.0375,148.9192 C43.0375,148.4972 43.0085,148.3192 42.9685,148.0732 C42.9165,147.7502 42.8515,147.3482 42.8515,146.6202 C42.8515,145.7112 43.0625,145.1662 43.2785,144.6872 C43.3575,144.5132 43.3685,144.4882 43.3695,144.3792 C43.3535,144.3582 43.3365,144.3372 43.3195,144.3152 C43.0355,143.9362 42.5045,143.2322 42.5045,142.0212 C42.5045,141.3752 42.5285,141.0522 42.5525,140.7292 C42.5715,140.4772 42.5905,140.2252 42.5905,139.7212 C42.5905,139.0642 42.6185,138.7352 42.6475,138.4062 C42.6685,138.1602 42.6905,137.9132 42.6905,137.4202 C42.6905,136.6222 42.8155,136.1532 42.9545,135.7062 C43.0245,135.4832 43.0475,135.4082 43.0475,135.1232 C43.0475,134.8452 43.0245,134.7712 42.9545,134.5512 C42.8125,134.1012 42.6835,133.6302 42.6835,132.8292 C42.6835,132.0132 42.8045,131.5462 42.8925,131.2052 C42.9515,130.9792 42.9805,130.8652 42.9805,130.5322 C42.9805,130.0612 42.9545,129.8242 42.9285,129.5892 C42.8945,129.2712 42.8555,128.9102 42.8555,128.2332 C42.8555,127.3222 43.0685,126.7782 43.2865,126.2962 C43.3775,126.0972 43.3775,126.0972 43.3775,125.9342 C43.3765,125.9282 43.3435,125.8852 43.3145,125.8402 C43.0685,125.4722 42.6115,124.7862 42.6115,123.6362 C42.6115,122.7562 42.8005,122.2262 42.9945,121.7572 C43.0815,121.5502 43.0885,121.5322 43.0885,121.3372 C43.0885,120.7212 43.1015,120.4132 43.1145,120.1052 C43.1255,119.8372 43.1375,119.5692 43.1375,119.0352 C43.1375,118.5482 43.1145,118.3042 43.0925,118.0612 C43.0625,117.7292 43.0315,117.3992 43.0315,116.7362 C43.0315,116.2222 43.0155,115.9642 42.9985,115.7062 C42.9785,115.3892 42.9585,115.0702 42.9585,114.4352 C42.9585,114.2642 42.9585,114.2642 42.8665,114.0572 C42.6545,113.5792 42.4465,113.0372 42.4465,112.1342 C42.4465,111.0532 42.8095,110.4182 43.0265,110.0382 C43.0535,109.9912 43.0845,109.9452 43.1065,109.8922 C43.1045,109.3862 43.0785,109.1982 43.0435,108.9402 C42.9995,108.6262 42.9465,108.2362 42.9465,107.5302 C42.9465,106.8372 42.9935,106.4532 43.0315,106.1462 C43.0635,105.8892 43.0885,105.6862 43.0885,105.2282 C43.0885,105.1012 43.0885,105.1012 43.0015,104.9262 C42.8195,104.5612 42.5135,103.9492 42.5135,102.9242 C42.5135,102.3902 42.5025,102.1222 42.4915,101.8562 C42.4785,101.5482 42.4655,101.2402 42.4655,100.6262 C42.4655,99.5352 42.8395,98.8962 43.0625,98.5142 C43.0895,98.4682 43.1205,98.4232 43.1435,98.3692 C43.1385,97.6872 43.1595,97.3672 43.1805,97.0472 C43.1975,96.7912 43.2145,96.5342 43.2145,96.0202 C43.2145,95.5162 43.1945,95.2642 43.1755,95.0122 C43.1525,94.6882 43.1275,94.3632 43.1275,93.7162 C43.1275,92.9892 43.1915,92.5882 43.2415,92.2662 C43.2815,92.0172 43.3095,91.8372 43.3095,91.4112 C43.2975,91.3512 43.2665,91.3062 43.2375,91.2602 C42.9965,90.8712 42.5935,90.2222 42.5935,89.1032 C42.5935,88.2332 42.7735,87.7082 42.9575,87.2442 C43.0415,87.0332 43.0525,87.0062 43.0525,86.7942 C43.0525,85.7422 43.9045,84.8912 44.9555,84.8912 C46.0065,84.8912 46.8585,85.7422 46.8585,86.7942 C46.8585,87.6622 46.6785,88.1882 46.4945,88.6512 C46.4105,88.8622 46.3995,88.8902 46.3995,89.1032 C46.4115,89.1622 46.4425,89.2072 46.4715,89.2532 C46.7125,89.6422 47.1155,90.2912 47.1155,91.4112 C47.1155,92.1372 47.0525,92.5382 47.0015,92.8612 C46.9615,93.1102 46.9335,93.2892 46.9335,93.7162 C46.9335,94.2212 46.9525,94.4732 46.9715,94.7252 C46.9955,95.0492 47.0205,95.3732 47.0205,96.0202 C47.0205,96.6582 46.9995,96.9782 46.9785,97.2972 C46.9615,97.5542 46.9445,97.8112 46.9445,98.3242 C46.9445,99.4152 46.5705,100.0542 46.3475,100.4362 C46.3205,100.4832 46.2895,100.5282 46.2665,100.5812 C46.2715,101.1602 46.2825,101.4282 46.2945,101.6952 C46.3075,102.0032 46.3195,102.3102 46.3195,102.9242 C46.3195,103.0522 46.3195,103.0522 46.4075,103.2272 C46.5895,103.5922 46.8945,104.2032 46.8945,105.2282 C46.8945,105.9202 46.8475,106.3042 46.8095,106.6122 C46.7775,106.8692 46.7525,107.0712 46.7525,107.5302 C46.7525,107.9762 46.7785,108.1622 46.8145,108.4222 C46.8575,108.7362 46.9105,109.1262 46.9105,109.8312 C46.9105,110.9122 46.5475,111.5482 46.3305,111.9272 C46.3035,111.9752 46.2735,112.0202 46.2505,112.0742 C46.2525,112.3052 46.2525,112.3052 46.3445,112.5112 C46.5565,112.9882 46.7645,113.5302 46.7645,114.4352 C46.7645,114.9492 46.7805,115.2072 46.7975,115.4642 C46.8175,115.7822 46.8375,116.1002 46.8375,116.7362 C46.8375,117.2242 46.8605,117.4682 46.8825,117.7112 C46.9125,118.0422 46.9435,118.3732 46.9435,119.0352 C46.9435,119.6522 46.9305,119.9592 46.9175,120.2682 C46.9055,120.5352 46.8945,120.8022 46.8945,121.3372 C46.8945,122.2172 46.7045,122.7472 46.5105,123.2152 C46.4245,123.4232 46.4175,123.4412 46.4175,123.6362 C46.4185,123.6412 46.4515,123.6842 46.4805,123.7292 C46.7265,124.0972 47.1835,124.7822 47.1835,125.9342 C47.1835,126.8442 46.9705,127.3892 46.7525,127.8692 C46.6615,128.0692 46.6615,128.0692 46.6615,128.2332 C46.6615,128.7052 46.6875,128.9412 46.7125,129.1772 C46.7475,129.4942 46.7865,129.8552 46.7865,130.5322 C46.7865,131.3492 46.6655,131.8162 46.5775,132.1562 C46.5195,132.3832 46.4895,132.4962 46.4895,132.8292 C46.4895,133.1092 46.5135,133.1822 46.5835,133.4012 C46.7255,133.8512 46.8545,134.3212 46.8545,135.1232 C46.8545,135.9212 46.7285,136.3902 46.5895,136.8382 C46.5195,137.0612 46.4965,137.1362 46.4965,137.4202 C46.4965,138.0772 46.4675,138.4052 46.4395,138.7352 C46.4185,138.9812 46.3965,139.2282 46.3965,139.7212 C46.3965,140.3662 46.3725,140.6902 46.3485,141.0122 C46.3305,141.2542 46.3125,141.4962 46.3105,141.9602 C46.3275,141.9822 46.3445,142.0032 46.3615,142.0262 C46.6455,142.4032 47.1765,143.1092 47.1765,144.3192 C47.1765,145.2282 46.9655,145.7732 46.7485,146.2522 C46.6575,146.4542 46.6575,146.4542 46.6575,146.6202 C46.6575,147.0412 46.6865,147.2192 46.7265,147.4652 C46.7785,147.7882 46.8435,148.1922 46.8435,148.9192 C46.8435,149.7082 46.7235,150.1722 46.5905,150.6162 C46.5235,150.8392 46.4985,150.9232 46.4985,151.2182 C46.4985,151.5052 46.5235,151.5872 46.5915,151.8052 C46.7295,152.2522 46.8545,152.7202 46.8545,153.5172 C46.8545,153.8612 46.8825,153.9782 46.9405,154.2122 C47.0235,154.5492 47.1375,155.0112 47.1375,155.8182 C47.1375,156.6782 46.9625,157.1982 46.7835,157.6572 C46.7015,157.8672 46.6895,157.9002 46.6895,158.1162 C46.6895,158.4862 46.7185,158.6172 46.7715,158.8592 C46.8425,159.1862 46.9405,159.6342 46.9405,160.4142 C46.9405,161.0512 46.9205,161.3682 46.8995,161.6862 C46.8825,161.9442 46.8665,162.1992 46.8665,162.7122 C46.8665,163.1522 46.8925,163.3352 46.9305,163.5912 C46.9755,163.9072 47.0325,164.3012 47.0325,165.0122 C47.0325,165.7612 46.9565,166.1752 46.8945,166.5082 C46.8495,166.7502 46.8195,166.9112 46.8195,167.3122 C46.8195,168.0902 46.7065,168.5492 46.5795,168.9882 C46.5155,169.2122 46.4885,169.3042 46.4885,169.6102 C46.4885,170.2462 46.4675,170.5642 46.4475,170.8822 C46.4305,171.1392 46.4135,171.3952 46.4135,171.9062 C46.4135,172.4712 46.4175,172.7522 46.4205,173.0332 C46.4235,173.3262 46.4275,173.6192 46.4275,174.2042 C46.4275,174.8752 46.3915,175.2322 46.3595,175.5462 C46.3355,175.7842 46.3105,176.0242 46.3105,176.5022 C46.3105,176.9882 46.3335,177.2332 46.3555,177.4762 C46.3865,177.8072 46.4175,178.1392 46.4175,178.8012 C46.4175,179.0662 46.4395,179.1312 46.5115,179.3472 C46.6275,179.6932 46.8035,180.2162 46.8035,181.1012 C46.8035,181.5522 46.8295,181.7512 46.8625,182.0042 C46.9025,182.3142 46.9525,182.7002 46.9525,183.3992 C46.9525,184.0032 46.9435,184.3062 46.9335,184.6092 C46.9245,184.8802 46.9155,185.1522 46.9155,185.6942 C46.9155,186.3152 46.9015,186.6252 46.8855,186.9352 C46.8735,187.1992 46.8605,187.4632 46.8605,187.9902 C46.8605,188.9062 46.6605,189.4442 46.5285,189.8012 C46.4505,190.0112 46.4335,190.0552 46.4335,190.2872 C46.4335,190.6992 46.4625,190.8642 46.5055,191.1132 C46.5615,191.4422 46.6325,191.8492 46.6325,192.5872 C46.6325,192.7362 46.6325,192.7362 46.7205,192.9252 C46.8905,193.2832 47.1745,193.8852 47.1745,194.8862 C47.1745,195.6742 47.0555,196.1382 46.9225,196.5812 C46.8555,196.8042 46.8305,196.8872 46.8305,197.1822 C46.8305,197.9072 46.7665,198.3082 46.7145,198.6312 C46.6745,198.8772 46.6465,199.0552 46.6465,199.4782 C46.6465,199.7522 46.6705,199.8252 46.7395,200.0412 C46.8495,200.3832 47.0165,200.9002 47.0165,201.7732 C47.0165,202.6562 46.8405,203.1792 46.7245,203.5242 C46.6535,203.7382 46.6315,203.8032 46.6315,204.0652 C46.6315,204.6992 46.6105,205.0162 46.5905,205.3332 C46.5735,205.5882 46.5565,205.8432 46.5565,206.3542 C46.5565,206.7102 46.5865,206.8392 46.6405,207.0712 C46.7175,207.4032 46.8225,207.8572 46.8225,208.6492 C46.8225,209.5232 46.6365,210.0502 46.4465,210.5152 C46.3615,210.7252 46.3545,210.7412 46.3545,210.9422 C46.3545,211.1072 46.3545,211.1072 46.4445,211.3092 C46.6585,211.7872 46.8675,212.3292 46.8675,213.2342 C46.8675,214.0552 46.7425,214.5262 46.6525,214.8682 C46.5915,215.0972 46.5635,215.2012 46.5635,215.5272 C46.5635,216.0692 46.5715,216.3422 46.5805,216.6122 C46.5905,216.9142 46.5995,217.2152 46.5995,217.8192 C46.5995,218.6422 46.4725,219.1132 46.3805,219.4572 C46.3195,219.6852 46.2915,219.7882 46.2915,220.1112 C46.3015,220.1622 46.3325,220.2062 46.3605,220.2512 C46.6015,220.6382 47.0035,221.2842 47.0035,222.4012 C47.0035,222.9902 46.9985,223.2852 46.9925,223.5812 C46.9885,223.8602 46.9835,224.1372 46.9835,224.6942 C46.9835,225.3212 46.9645,225.6352 46.9455,225.9502 C46.9315,226.2082 46.9155,226.4662 46.9155,226.9832 C46.9155,227.6502 46.8805,228.0032 46.8495,228.3162 C46.8255,228.5552 46.8015,228.7932 46.8015,229.2712 C46.8015,229.6692 46.8315,229.8282 46.8765,230.0702 C46.9375,230.4022 47.0135,230.8152 47.0135,231.5622 C47.0135,232.6842 46.6055,233.3332 46.3605,233.7212 C46.3325,233.7662 46.3005,233.8102 46.2765,233.8612 C46.2925,234.0112 46.2925,234.0112 46.3825,234.2072 C46.6005,234.6872 46.8135,235.2312 46.8135,236.1392 C46.8135,237.0532 46.6135,237.5902 46.4815,237.9452 C46.4025,238.1572 46.3875,238.1952 46.3875,238.4252 C46.3875,238.4952 46.3945,238.5242 46.3945,238.5252 C46.4125,238.5692 46.4425,238.6142 46.4675,238.6632 C46.6695,239.0352 47.0075,239.6582 47.0075,240.7122 C47.0075,241.4872 46.9115,241.9342 46.8415,242.2592 C46.7905,242.4922 46.7605,242.6342 46.7605,243.0042 C46.7605,243.6002 46.7535,243.8992 46.7455,244.1962 C46.7395,244.4712 46.7325,244.7452 46.7325,245.2942 C46.7325,245.6582 46.7605,245.7902 46.8145,246.0282 C46.8865,246.3562 46.9855,246.8042 46.9855,247.5842 C46.9855,248.6932 46.5915,249.3372 46.3555,249.7222 C46.3275,249.7682 46.2975,249.8122 46.2735,249.8632 C46.2855,250.0602 46.2885,250.0682 46.3765,250.2762 C46.5765,250.7462 46.7725,251.2792 46.7725,252.1662 C46.7725,252.8142 46.7475,253.1382 46.7205,253.4612 C46.7015,253.7102 46.6815,253.9582 46.6815,254.4552 C46.6815,255.2312 46.5695,255.6862 46.4445,256.1232 C46.3815,256.3472 46.3545,256.4402 46.3545,256.7452 C46.3545,257.1912 46.3795,257.3782 46.4145,257.6372 C46.4565,257.9482 46.5085,258.3362 46.5085,259.0362 C46.5085,259.7392 46.4545,260.1292 46.4125,260.4422 C46.3775,260.6942 46.3515,260.8772 46.3505,261.3002 C46.3695,261.3262 46.3885,261.3532 46.4075,261.3792 C46.6675,261.7512 47.1525,262.4432 47.1525,263.6152 C47.1525,264.4032 47.0485,264.8562 46.9725,265.1862 C46.9195,265.4192 46.8895,265.5482 46.8895,265.9042 C46.8895,266.6942 46.7845,267.1482 46.7075,267.4802 C46.6535,267.7112 46.6245,267.8392 46.6245,268.1942 C46.6245,268.4772 46.6475,268.5512 46.7165,268.7722 C46.8565,269.2192 46.9825,269.6882 46.9825,270.4852 C46.9825,271.1542 46.9455,271.5102 46.9135,271.8232 C46.8895,272.0622 46.8645,272.2992 46.8645,272.7742 C46.8645,273.5712 46.7385,274.0392 46.5975,274.4882 C46.5285,274.7082 46.5055,274.7812 46.5055,275.0632 C46.5205,275.1442 46.5505,275.1892 46.5785,275.2352 C46.8055,275.6162 47.1855,276.2552 47.1855,277.3502 C47.1855,278.5222 46.7005,279.2142 46.4415,279.5852 C46.4255,279.6082 46.4095,279.6292 46.3945,279.6522 C46.4055,279.6842 46.4285,279.7152 46.4495,279.7472 C46.6875,280.1122 47.1295,280.7922 47.1295,281.9292 C47.1295,282.4482 47.1435,282.7082 47.1585,282.9682 C47.1755,283.2802 47.1935,283.5942 47.1935,284.2192 C47.1935,284.9752 47.1115,285.3922 47.0465,285.7272 C46.9995,285.9712 46.9705,286.1192 46.9705,286.5072 C46.9705,287.5032 46.6905,288.1022 46.5225,288.4592 C46.4345,288.6472 46.4345,288.6472 46.4345,288.7952 L46.4375,291.0822 C46.4375,291.2872 46.4455,291.3092 46.5295,291.5192 C46.7145,291.9802 46.8945,292.5032 46.8945,293.3692 C46.8945,294.1212 46.8155,294.5372 46.7515,294.8712 C46.7035,295.1172 46.6755,295.2662 46.6755,295.6562 C46.6755,296.4392 46.5595,296.8992 46.4295,297.3392 C46.3635,297.5642 46.3385,297.6482 46.3385,297.9452 C46.3385,298.3982 46.3645,298.5972 46.3965,298.8502 C46.4355,299.1582 46.4855,299.5432 46.4855,300.2362 C46.4855,300.8002 46.4875,301.0802 46.4905,301.3622 C46.4935,301.6532 46.4965,301.9442 46.4965,302.5262 C46.4965,303.1852 46.4655,303.5152 46.4345,303.8452 C46.4125,304.0872 46.3895,304.3282 46.3895,304.8122 C46.3895,305.8632 45.5375,306.7152 44.4865,306.7152" id="Fill-124" fill="#000"/>
                            </g>
                        </g>
                    </g>
                </g>
                <g id="Upper" transform="translate(-1.000000, 0.000000) scale(1 1)">
                    <g id="Upper/Holding Puppy" stroke="none" stroke-width="1" fill="none" fill-rule="evenodd">
                        <g id="Group-691" transform="translate(192.500000, 272.500000)">
                            <g id="Group-636" transform="translate(0.000000, 0.095000)">
                                <path d="M65.6822,54.4 L0.6492,234.026 C0.1332,238.765 3.6922,242.971 8.4522,243.238 C26.4432,244.246 112.8102,249.099 133.7552,245.767 C163.0182,241.112 195.6072,246.753 195.6072,246.753 C195.6072,246.753 213.5252,249.527 230.2322,248.894 C241.1942,248.479 248.4332,237.329 244.3372,227.153 L164.9742,30.032 L100.1682,29.926 L93.0622,29.9148354 C79.0152,29.871 70.5322,38.649 65.6822,54.4" id="Fill-592" fill="#CBB1F4"/>
                                <path d="M128.4341,105.9899 L167.7771,174.1359 C167.7771,174.1359 181.7741,205.1819 217.2231,198.1029 C275.0841,186.5489 254.6371,86.7509 231.6881,57.1059 L176.4861,65.4199 L128.4341,105.9899 Z" id="Fill-594" fill="#CBB1F4"/>
                                <path d="M171.6666,46.6627 L173.3536,46.3127 C177.3536,45.4837 180.7256,42.7357 182.2126,38.9317 C184.4686,33.1657 189.8056,25.2427 202.0916,25.3487 C221.3796,25.5147 222.7096,39.1487 222.7096,39.1487 C222.7096,39.1487 223.7076,45.1347 231.0226,44.8027 C238.3386,44.4697 254.7596,42.1187 256.4626,51.9517 C258.2916,62.5097 244.8236,63.7567 244.8236,63.7567 L228.4926,65.1047 C228.4926,65.1047 237.3416,96.3457 237.6736,115.6237 C237.9336,130.6477 231.3556,128.9257 231.3556,128.9257 C231.3556,128.9257 224.5386,129.0917 224.5386,119.7797 C224.5386,110.4697 221.8776,98.0087 221.8776,98.0087 L206.0826,98.6737 C206.0826,98.6737 210.0506,114.6777 207.4126,121.7847 C204.7746,128.8927 200.2636,128.9257 200.2636,128.9257 C200.2636,128.9257 192.2776,129.0827 193.1136,116.9637 C194.4436,97.6767 183.7876,76.7667 183.7876,76.7667 L171.6666,46.6627 Z" id="Fill-596" fill="#FECB72"/>
                                <path d="M193.2798,34.8258 C193.2798,34.8258 188.9748,35.8198 188.2908,42.3398 C187.6078,48.8588 183.0908,73.4558 199.2328,72.0558 C217.3058,70.4908 202.5908,31.9158 193.2798,34.8258" id="Fill-598" fill="#000"/>
                                <path d="M212.627,42.3688 C213.463,45.7858 218.68,44.8238 218.28,41.6588 C217.781,37.7128 211.626,38.2768 212.627,42.3688" id="Fill-600" fill="#000"/>
                                <path d="M252.0352,46.2545 C252.0352,46.2545 250.7262,42.8065 254.0512,40.2295 C256.8892,38.0305 262.1162,37.8935 264.7762,41.3105 C267.4362,44.7275 265.5492,49.8735 262.4482,51.4525 C259.2392,53.0875 253.7602,52.4455 252.0352,46.2545" id="Fill-602" fill="#000"/>
                                <path d="M236.2388,59.9772 C232.5468,59.9772 229.7338,59.6222 229.4988,59.5902 C228.6768,59.4842 228.0988,58.7312 228.2058,57.9102 C228.3118,57.0892 229.0538,56.5062 229.8858,56.6162 C229.9978,56.6302 241.0508,58.0212 247.8168,55.1792 C248.5808,54.8592 249.4608,55.2172 249.7808,55.9812 C250.1018,56.7452 249.7428,57.6232 248.9788,57.9452 C245.1008,59.5742 240.1708,59.9772 236.2388,59.9772" id="Fill-604" fill="#231F20"/>
                                <path d="M196.0894,128.7496 C195.6694,128.7496 195.2524,128.5736 194.9554,128.2316 C194.4164,127.6116 194.4794,126.6736 195.0914,126.1286 C195.1924,126.0346 196.9284,124.3566 196.6604,120.6166 C196.6014,119.7906 197.2234,119.0726 198.0494,119.0146 C198.8844,118.9546 199.5944,119.5766 199.6524,120.4026 C200.0344,125.7456 197.1934,128.2766 197.0714,128.3826 C196.7874,128.6286 196.4374,128.7496 196.0894,128.7496" id="Fill-606" fill="#231F20"/>
                                <path d="M202.5923,129.6637 C202.3073,129.6637 202.0183,129.5827 201.7633,129.4127 C201.0783,128.9577 200.8883,128.0367 201.3333,127.3487 C201.3783,127.2757 202.6283,125.1617 202.5313,120.5417 C202.5153,119.7137 203.1723,119.0277 204.0003,119.0107 C204.8253,118.9547 205.5143,119.6497 205.5313,120.4787 C205.6493,126.1067 204.0283,128.7147 203.8423,128.9937 C203.5543,129.4287 203.0773,129.6637 202.5923,129.6637" id="Fill-608" fill="#231F20"/>
                                <path d="M228.0269,129.3942 C227.8439,129.3942 227.6589,129.3602 227.4789,129.2902 C226.7089,128.9872 226.3299,128.1202 226.6299,127.3492 C226.6399,127.3202 227.7379,124.4212 227.3899,120.6482 C227.3149,119.8232 227.9219,119.0922 228.7469,119.0162 C229.5739,118.9352 230.3009,119.5482 230.3789,120.3732 C230.7939,124.8872 229.4789,128.2982 229.4229,128.4422 C229.1909,129.0332 228.6259,129.3942 228.0269,129.3942" id="Fill-610" fill="#231F20"/>
                                <path d="M233.7261,130.0328 C233.5641,130.0328 233.3991,130.0058 233.2371,129.9498 C232.4551,129.6798 232.0391,128.8298 232.3061,128.0488 C232.3201,128.0088 233.2471,125.1658 233.0161,119.9388 C232.9801,119.1108 233.6221,118.4108 234.4491,118.3748 C235.2731,118.3368 235.9771,118.9788 236.0141,119.8068 C236.2721,125.6788 235.1901,128.8878 235.1441,129.0218 C234.9291,129.6418 234.3481,130.0328 233.7261,130.0328" id="Fill-612" fill="#231F20"/>
                                <path d="M47.336,222.9762 C47.336,222.9762 85.204,224.5402 99.004,223.7082 C112.805,222.8772 122.12,223.1642 130.211,219.6392 C152.544,209.9092 151.047,179.8132 151.047,179.8132 L49.929,199.1532 L47.336,222.9762 Z" id="Fill-614" fill="#8C72CB"/>
                                <path d="M205.0582,201.5192 L205.0232,201.5192 C204.1712,201.5112 203.3342,201.4932 202.5102,201.4432 C202.2222,201.4252 201.9002,201.4462 201.5572,201.4662 C201.0792,201.4962 200.5412,201.5292 199.9802,201.4652 C199.3972,201.4002 198.8692,201.2402 198.4022,201.0982 C198.0822,201.0002 197.7802,200.9102 197.5172,200.8662 C197.2572,200.8222 196.9362,200.8232 196.5982,200.8232 C196.1222,200.8182 195.5532,200.8232 194.9782,200.6952 C194.4252,200.5732 193.9102,200.3832 193.4542,200.2152 C193.1592,200.1072 192.8652,199.9972 192.5692,199.9152 C192.3252,199.8472 192.0052,199.8182 191.6672,199.7882 C191.1742,199.7432 190.6152,199.6932 190.0492,199.5032 C189.4572,199.3052 188.9722,198.9972 188.5432,198.7242 C188.2682,198.5482 188.0082,198.3832 187.7962,198.3002 C187.4932,198.1802 187.1772,198.0922 186.8642,198.0022 C186.3872,197.8652 185.8942,197.7232 185.3962,197.4982 C185.1162,197.3722 184.8292,197.2532 184.5452,197.1372 C184.0632,196.9382 183.5642,196.7332 183.0792,196.4832 C182.5502,196.2122 182.1132,195.8682 181.7272,195.5642 C181.4652,195.3572 181.2172,195.1632 180.9962,195.0352 C180.4302,194.7092 180.0232,194.2892 179.6632,193.9182 C179.4462,193.6932 179.2402,193.4812 179.0732,193.3732 C178.7932,193.1952 178.4962,193.0512 178.2052,192.9072 C177.7702,192.6922 177.3212,192.4702 176.8812,192.1582 C176.3832,191.8052 176.0012,191.3992 175.6642,191.0412 C175.4452,190.8072 175.2372,190.5862 175.0482,190.4382 C174.7752,190.2252 174.4852,190.0472 174.2042,189.8732 C173.7992,189.6212 173.3812,189.3612 172.9862,189.0212 C172.8472,188.9022 172.5432,188.7862 172.2482,188.6722 C171.7462,188.4812 171.1762,188.2622 170.6932,187.8032 C170.1662,187.3042 169.8272,186.7452 169.5532,186.2952 C169.4162,186.0702 169.2752,185.8362 169.1792,185.7352 C168.4502,184.9642 168.2722,184.7162 168.0212,184.3452 C167.9222,184.1992 167.8022,184.0222 167.5652,183.7162 C167.0582,183.0612 167.1782,182.1192 167.8332,181.6122 C168.4872,181.1062 169.4302,181.2242 169.9382,181.8792 C170.2342,182.2622 170.3822,182.4822 170.5062,182.6652 C170.6712,182.9092 170.7612,183.0422 171.3602,183.6742 C171.6742,184.0072 171.9002,184.3782 172.1182,184.7382 C172.3262,185.0802 172.5222,185.4032 172.7582,185.6262 C172.8312,185.6842 173.1252,185.7962 173.3212,185.8712 C173.8052,186.0562 174.4082,186.2872 174.9422,186.7462 C175.1622,186.9352 175.4662,187.1242 175.7892,187.3262 C176.1292,187.5382 176.5162,187.7782 176.8962,188.0752 C177.2662,188.3642 177.5772,188.6952 177.8512,188.9862 C178.1152,189.2672 178.3642,189.5322 178.6162,189.7102 C178.8632,189.8852 179.1902,190.0472 179.5362,190.2182 C179.8912,190.3942 180.2942,190.5942 180.6922,190.8482 C181.1532,191.1442 181.5052,191.5082 181.8182,191.8302 C182.0622,192.0812 182.2922,192.3202 182.4932,192.4352 C182.9032,192.6702 183.2642,192.9562 183.5832,193.2072 C183.8892,193.4482 184.1782,193.6752 184.4482,193.8142 C184.8422,194.0162 185.2632,194.1882 185.6882,194.3632 C186.0032,194.4932 186.3202,194.6232 186.6312,194.7642 C186.9322,194.9002 187.3022,195.0062 187.6942,195.1192 C188.0962,195.2352 188.5012,195.3542 188.8932,195.5072 C189.3742,195.6972 189.7882,195.9602 190.1552,196.1932 C190.4642,196.3902 190.7572,196.5772 191.0002,196.6582 C191.2342,196.7372 191.5762,196.7672 191.9382,196.8002 C192.3712,196.8392 192.8652,196.8832 193.3702,197.0242 C193.7452,197.1272 194.1172,197.2622 194.4902,197.4002 C194.8922,197.5472 195.2712,197.6872 195.6272,197.7662 C195.8822,197.8232 196.2302,197.8232 196.5972,197.8232 C197.0352,197.8222 197.5062,197.8222 198.0102,197.9072 C198.4642,197.9822 198.8752,198.1072 199.2722,198.2272 C199.6502,198.3412 200.0052,198.4502 200.3162,198.4842 C200.6192,198.5202 200.9872,198.4972 201.3752,198.4722 C201.7722,198.4482 202.2212,198.4192 202.6892,198.4492 C203.4632,198.4952 204.2492,198.5122 205.0472,198.5192 C205.2782,198.5092 205.6452,198.4512 206.0022,198.3762 C206.4142,198.2902 206.8822,198.1922 207.3922,198.1702 C207.7882,198.1522 208.1902,198.1692 208.5922,198.1882 C209.0032,198.2072 209.3952,198.2252 209.7512,198.1932 C210.1562,198.1562 210.5652,198.1582 210.9782,198.1572 C211.3922,198.1602 211.7782,198.1612 212.1232,198.1112 C212.3022,198.0852 212.5932,197.9472 212.8742,197.8112 C213.3042,197.6062 213.7902,197.3732 214.3752,197.2612 C215.1392,197.1172 215.8962,196.9572 216.6782,196.7732 C217.2042,196.6492 217.7072,196.6412 218.1512,196.6342 C218.5012,196.6292 218.8322,196.6242 219.0622,196.5602 C219.2782,196.4992 219.5572,196.3362 219.8542,196.1652 C220.2452,195.9372 220.6872,195.6802 221.2172,195.5072 C221.7762,195.3262 222.3132,195.3012 222.7862,195.2802 C223.1202,195.2642 223.4362,195.2502 223.6202,195.1822 C224.0882,195.0092 224.5592,194.9182 224.9732,194.8372 C225.3432,194.7662 225.6932,194.6982 225.9592,194.5882 C226.0832,194.5382 226.3292,194.3092 226.5272,194.1252 C226.8852,193.7912 227.3322,193.3762 227.9252,193.1082 C228.2862,192.9442 228.6312,192.7452 228.9812,192.5452 C229.3232,192.3502 229.6682,192.1552 230.0282,191.9772 C230.3292,191.8292 230.6332,191.6952 230.9352,191.5642 C231.3372,191.3882 231.7182,191.2212 232.0482,191.0302 C232.3582,190.8502 232.6632,190.6082 232.9872,190.3522 C233.2692,190.1282 233.5512,189.9072 233.8482,189.7062 C234.2872,189.4082 234.7382,189.2262 235.1352,189.0662 C235.4402,188.9432 235.7272,188.8282 235.8832,188.7052 C236.0492,188.5752 236.2342,188.3202 236.4292,188.0492 C236.6772,187.7062 236.9582,187.3172 237.3462,186.9692 C237.7132,186.6402 238.1012,186.3962 238.4442,186.1802 C238.7372,185.9962 239.0142,185.8222 239.1812,185.6512 C239.5952,185.2282 240.0612,184.9642 240.4722,184.7312 C240.7062,184.5992 240.9972,184.4342 241.0902,184.3262 C241.2022,184.1972 241.3212,183.9012 241.4362,183.6162 C241.6082,183.1902 241.8022,182.7072 242.1472,182.2552 C242.4822,181.8162 242.7832,181.3592 243.0822,180.9072 L243.4252,180.3932 C243.5482,180.2112 243.6482,179.9132 243.7532,179.5962 C243.8892,179.1932 244.0422,178.7362 244.3112,178.2872 C244.6432,177.7322 245.1042,177.3512 245.4732,177.0452 C245.6402,176.9082 245.8922,176.7002 245.9452,176.6082 L246.2392,176.0582 C246.5052,175.5632 246.7682,175.0752 246.9962,174.5852 C247.3292,173.8752 247.6272,173.1652 247.9082,172.4832 C247.9792,172.3092 248.0012,171.9912 248.0242,171.6822 C248.0562,171.2292 248.0922,170.7172 248.2812,170.1902 C248.3992,169.8592 248.4722,169.4922 248.5502,169.1032 C248.6282,168.7162 248.7062,168.3392 248.8172,167.9812 C249.0242,167.3072 249.4172,166.8062 249.7342,166.4032 C249.8502,166.2552 250.0252,166.0322 250.0612,165.9462 C250.1162,165.7282 250.0912,165.3962 250.0652,165.0452 C250.0352,164.6252 249.9992,164.1502 250.1012,163.6582 C250.2442,162.9642 250.3362,162.6452 250.4082,162.3992 C250.4782,162.1552 250.5072,162.0532 250.5692,161.5232 C250.6642,160.7012 251.4102,160.1132 252.2322,160.2062 C253.0552,160.3012 253.6452,161.0462 253.5492,161.8692 C253.4632,162.6092 253.3942,162.8702 253.2892,163.2322 C253.2312,163.4332 253.1562,163.6952 253.0382,164.2632 C253.0222,164.3542 253.0422,164.6252 253.0572,164.8242 C253.0962,165.3492 253.1442,166.0012 252.9572,166.7222 C252.7902,167.3682 252.4042,167.8602 252.0932,168.2552 C251.9222,168.4742 251.7282,168.7212 251.6842,168.8632 C251.6022,169.1282 251.5492,169.4082 251.4922,169.6932 C251.4012,170.1482 251.2972,170.6642 251.1052,171.2002 C251.0552,171.3392 251.0362,171.6212 251.0162,171.8932 C250.9812,172.3882 250.9382,173.0032 250.6822,173.6232 C250.3852,174.3482 250.0672,175.1032 249.7142,175.8562 C249.4632,176.3932 249.1742,176.9332 248.8812,177.4782 L248.5962,178.0122 C248.2722,178.6252 247.7802,179.0322 247.3842,179.3582 C247.1922,179.5172 246.9532,179.7152 246.8852,179.8272 C246.7842,179.9972 246.6942,180.2652 246.5982,180.5492 C246.4412,181.0202 246.2622,181.5522 245.9112,182.0732 L245.5832,182.5642 C245.2472,183.0712 244.9082,183.5822 244.5332,184.0742 C244.4332,184.2042 244.3242,184.4752 244.2182,184.7382 C244.0322,185.2022 243.7982,185.7792 243.3632,186.2842 C242.9302,186.7872 242.3872,187.0942 241.9512,187.3412 C241.7012,187.4832 241.4422,187.6292 241.3252,187.7492 C240.9122,188.1722 240.4502,188.4622 240.0422,188.7192 C239.7772,188.8862 239.5272,189.0432 239.3482,189.2042 C239.2012,189.3352 239.0362,189.5642 238.8612,189.8062 C238.5662,190.2132 238.2332,190.6752 237.7322,191.0682 C237.2412,191.4512 236.7192,191.6622 236.2582,191.8472 C235.9752,191.9622 235.7062,192.0712 235.5312,192.1902 C235.2942,192.3492 235.0732,192.5272 234.8492,192.7052 C234.4752,193.0002 234.0512,193.3352 233.5572,193.6232 C233.0782,193.9022 232.5982,194.1112 232.1342,194.3132 C231.8752,194.4262 231.6142,194.5402 231.3552,194.6672 C231.0512,194.8182 230.7572,194.9862 230.4662,195.1522 C230.0552,195.3862 229.6292,195.6292 229.1632,195.8402 C229.0162,195.9072 228.7792,196.1272 228.5702,196.3232 C228.1952,196.6702 227.7282,197.1052 227.1012,197.3632 C226.5572,197.5862 226.0192,197.6912 225.5442,197.7832 C225.2122,197.8472 224.8992,197.9082 224.6602,197.9972 C224.0372,198.2262 223.4182,198.2542 222.9212,198.2772 C222.6242,198.2902 222.3182,198.3042 222.1462,198.3602 C221.9192,198.4342 221.6482,198.5912 221.3612,198.7582 C220.9372,199.0042 220.4552,199.2852 219.8742,199.4482 C219.2692,199.6182 218.6992,199.6262 218.1972,199.6342 C217.8772,199.6392 217.5762,199.6442 217.3662,199.6932 C216.5402,199.8882 215.7412,200.0562 214.9332,200.2092 C214.7342,200.2472 214.4612,200.3772 214.1722,200.5162 C213.7072,200.7392 213.1822,200.9912 212.5442,201.0822 C211.9842,201.1622 211.4422,201.1612 210.9642,201.1572 C210.6492,201.1542 210.3342,201.1522 210.0292,201.1802 C209.4662,201.2322 208.9292,201.2072 208.4532,201.1852 C208.1412,201.1702 207.8282,201.1552 207.5212,201.1672 C207.2562,201.1792 206.9462,201.2442 206.6172,201.3132 C206.1532,201.4102 205.6292,201.5192 205.0582,201.5192" id="Fill-616" fill="#231F20"/>
                                <path d="M164.3804,29.3834 C157.4984,24.9844 152.8314,32.5524 152.8304,32.5534 L91.6304,109.9344 L113.6354,109.9344 L165.9594,42.5314 C167.0694,41.1494 173.1374,34.9814 164.3804,29.3834" id="Fill-618" fill="#CB79AA"/>
                                <path d="M8.3868,139.4127 L10.0498,184.4697 C10.0498,184.4697 9.0518,213.7327 39.3128,215.3947 C69.5738,217.0587 107.1518,216.3927 121.4508,213.7327 C135.7498,211.0727 151.3798,203.7567 151.0468,179.8127 C150.7148,155.8707 148.1648,130.5977 148.1648,130.5977 C148.1648,130.5977 148.0538,109.9797 117.7928,109.9797 L39.3128,109.9797 C39.3128,109.9797 8.3868,107.4857 8.3868,139.4127" id="Fill-620" fill="#CB79AA"/>
                                <path d="M58.5855,174.1793 L28.9895,174.1793 C28.9895,174.1793 19.1825,173.8443 19.179499,179.5003 C19.1755,185.9023 30.9085,185.8883 30.9085,185.8883 C30.9085,185.8883 52.8795,186.7933 58.5855,186.4843 C66.2335,186.0683 69.7255,184.1563 70.4595,180.3603 C71.0405,177.3513 68.2295,174.1793 58.5855,174.1793" id="Fill-622" fill="#FECB72"/>
                                <path d="M91.6885,180.3698 C90.9225,185.7288 98.0065,186.1448 102.9945,186.1668 C107.9825,186.1888 131.0655,184.7628 134.7525,184.0278 C138.5085,183.2798 141.8185,182.1988 141.8185,178.6238 C141.8185,175.0498 137.9115,172.6798 129.4315,172.7218 C121.0245,172.7628 92.9355,171.6408 91.6885,180.3698" id="Fill-624" fill="#FECB72"/>
                                <path d="M32.4405,108.9821 C32.4405,108.9821 10.7145,111.4201 8.3865,127.8931 C8.3865,127.8931 6.9455,135.5861 7.3895,144.4541 C7.8325,153.3211 50.5135,157.9771 79.7195,157.0891 C108.9245,156.2031 150.1605,148.9461 150.1605,139.4131 C150.1605,129.8791 152.1555,112.0861 127.3255,108.9821 C102.4965,105.8781 45.5205,106.7651 32.4405,108.9821" id="Fill-626" fill="#FECB72"/>
                                <path d="M75.6709,145.4508 L75.6689,161.5798 C75.6689,161.5798 75.6689,165.4268 79.4949,165.4038 C82.4749,165.3868 85.9239,165.4268 85.9239,165.4268 C85.9239,165.4268 90.0509,165.4268 90.1139,161.5798 C90.1579,158.8728 90.0509,145.4508 90.0509,145.4508 C90.0509,145.4508 90.0509,141.1828 85.9899,140.8528 C83.3289,140.6368 75.6709,139.2438 75.6709,145.4508" id="Fill-628" fill="#000"/>
                                <path d="M136.1626,0.8785 L124.7636,0.8785 C119.6096,0.8785 115.2236,4.5725 114.3076,9.6145 C114.2976,9.6775 114.2886,9.7375 114.2796,9.8005 L114.2736,9.8345 C114.2366,10.0805 114.1986,10.3305 114.1616,10.5795 C112.8356,19.3205 111.1966,30.0315 111.1966,30.0315 L146.6296,30.0315 L146.7016,22.2665 L146.7996,11.6145 C146.8546,5.7015 142.0766,0.8785 136.1626,0.8785" id="Fill-630" fill="#5e0606"/>
                                <path d="M146.6295,30.0319 C132.7545,29.0559 128.9635,26.0809 129.0975,23.6039 C129.2175,21.3859 131.3025,21.6949 132.2125,21.7159 C136.2265,21.8049 146.7015,22.2659 146.7015,22.2659" id="Fill-632" fill="#000"/>
                                <path d="M109.3233,23.9069 C109.3233,23.9069 105.1373,24.1289 105.16615,28.1749 C105.1943,31.9699 110.3213,32.5529 110.3213,32.5529 L149.2833,32.5529 C149.2833,32.5529 152.8233,31.8379 152.830329,28.8949 C152.8393,25.3469 150.7873,24.6699 148.1273,24.5589 C146.4713,24.4899 133.4753,23.7079 122.1813,23.5189 C115.3253,23.4049 109.3233,23.9069 109.3233,23.9069" id="Fill-634" fill="#8C72CB"/>
                            </g>
                        </g>
                    </g>
                </g>
                <g id="Head" transform="translate(204.000000, 145.000000) scale(1 1)">
                    <defs>
                        <polygon id="headlong-slick-1-path-1" points="0.371818811 0.914589475 82.838 0.914589475 82.838 95.9937941 0.371818811 95.9937941"/>
                    </defs>
                    <g id="Head/Long Slick 1" stroke="none" stroke-width="1" fill="none" fill-rule="evenodd">
                        <g id="Group-183" transform="translate(92.000000, 45.000000)">
                            <g id="Group-125" transform="translate(0.000000, 0.738000)">
                                <path d="M66.0643,74.9752 C64.4293,70.9292 53.9113,71.9212 50.6773,71.8992 C49.3003,65.9322 47.7933,60.4952 46.4333,57.9502 C43.7283,52.8922 35.4813,47.5782 22.2933,49.6192 C13.5353,50.9732 4.2103,59.1432 10.2673,73.3632 C10.2673,73.3632 12.0003,76.8112 11.1703,82.4962 C11.0783,83.1212 10.9483,83.9962 10.7933,85.0382 L10.7923,85.0442 C10.5283,86.8052 10.1883,89.0612 9.8143,91.5262 C9.8053,91.5882 9.7953,91.6492 9.7863,91.7112 L9.7813,91.7462 L9.7803,91.7462 C9.7433,91.9922 9.7063,92.2422 9.6683,92.4912 C9.4383,95.0802 10.1453,103.5562 29.2223,103.6522 L42.2083,104.1772 L42.4063,104.1862 C42.4063,104.1862 46.7573,104.1372 49.3913,104.1372 C54.8653,104.1372 55.8053,98.9182 55.1913,95.0562 C54.9743,93.6932 54.2633,89.4972 53.2773,84.3502 C64.5953,82.2912 67.5013,78.5332 66.0643,74.9752" id="Fill-120" fill="#5e0606"/>
                                <g id="Group-124">
                                    <mask id="headlong-slick-1-mask-2" fill="#fff">
                                        <use xlink:href="#headlong-slick-1-path-1"/>
                                    </mask>
                                    <g id="Clip-123"/>
                                    <path d="M23.0302,68.6823 C22.2562,70.5243 20.5242,71.7773 18.5332,71.9433 C16.7552,72.0923 14.6912,72.9533 13.8772,75.9173 C12.4582,81.0883 15.9592,84.8743 20.6142,84.9853 L19.9742,95.7593 C19.9742,95.7593 10.8842,97.7543 8.1132,90.1063 C5.3422,82.4573 5.4842,71.5943 1.7522,63.6143 C-1.9798,55.6323 1.7522,41.3333 14.2102,38.1193 C27.5622,34.6733 30.5042,21.4923 30.5042,21.4923 C30.5042,21.4923 36.2402,-7.2477 65.7542,3.2023 C88.9212,11.4053 88.0342,38.8953 66.0832,43.8623 C51.6702,47.1233 59.3942,62.0313 40.9242,64.0573 L28.1082,64.4093 C26.0872,64.4643 24.2842,65.6983 23.5002,67.5633 L23.0302,68.6823 Z" id="Fill-122" fill="#860a0c" mask="url(#headlong-slick-1-mask-2)"/>
                                </g>
                            </g>
                        </g>
                    </g>
                </g>
                <g id="Expression" transform="translate(315.000000, 246.000000) scale(1 1)">
                    <g id="Expression/Smile" stroke="none" stroke-width="1" fill="none" fill-rule="evenodd">
                        <g id="Expression" transform="translate(14.000000, 12.000000)" fill="#000">
                            <path d="M8.5371,3.6102 C8.8431,6.5462 13.2671,6.1902 13.3041,3.3662 C13.3451,0.1732 8.1761,0.1392 8.5371,3.6102" id="Fill-95"/>
                            <path d="M3.8824,24.6669 C10.1784,28.8049 17.2924,27.1859 17.6314,27.1049 C18.4374,26.9129 18.9354,26.1039 18.7434,25.2989 C18.5514,24.4919 17.7444,23.9949 16.9394,24.1859 C16.8054,24.2169 9.0204,25.9289 3.5054,20.5259 C2.9134,19.9499 1.9634,19.9569 1.3834,20.5479 C0.8044,21.1409 0.8144,22.0899 1.4064,22.6699 C2.2044,23.4509 3.0364,24.1109 3.8824,24.6669" id="Fill-97"/>
                        </g>
                    </g>
                </g>
                <g id="Facial Hair" transform="translate(311.300000, 250.950000) scale(1 1)">
                    <g id="Facial Hair/None" stroke="none" stroke-width="1" fill="none" fill-rule="evenodd" fill-opacity="0"/>
                </g>
                <g id="Accesories" transform="translate(311.300000, 250.950000) scale(1 1)">
                    <g id="Accesories/None" stroke="none" stroke-width="1" fill="none" fill-rule="evenodd" fill-opacity="0"/>
                </g>
            </g>
        </g>
    </g>
</svg>
