<svg viewBox="84.974 86.9 980.474 1564.2" xmlns="http://www.w3.org/2000/svg" overflow="visible">
    <g id="Master/Plants/Plant and Pot" stroke="none" stroke-width="1" fill="none" fill-rule="evenodd">
        <g id="Pots" transform="translate(230.773426, 688.942186) scale(1 1)">
            <g id="Pots/1" stroke="none" stroke-width="1" fill="none" fill-rule="evenodd">
                <path d="M493.480523,476.114882 C493.544549,475.469952 495.902515,476.118882 495.854495,476.753813 C494.564967,474.880016 489.114735,475.250976 493.480523,476.114882 M616.795037,601.928265 C617.751428,605.455883 620.384507,616.732662 618.767845,606.369784 C618.859883,605.845841 616.482909,601.898268 620.6126,603.771065 C621.838102,601.742285 619.327074,596.029903 619.388099,602.059251 C617.543343,600.776389 617.066148,597.941696 616.795037,601.928265 M281.571718,462.606345 C288.70564,463.100291 288.735653,452.8574 282.18597,452.683419 C275.413195,451.697525 275.398189,462.18739 281.571718,462.606345 M512.470302,743.60993 C512.829449,755.276667 528.681943,751.099119 527.282369,740.961216 C526.199926,731.464244 512.346251,735.598797 512.470302,743.60993 M412.145205,646.978389 C401.982042,646.243468 403.192538,662.20874 412.57238,661.349833 C423.119701,662.02576 422.386401,646.143479 412.145205,646.978389 M194.077878,631.856056 C204.073973,631.039114 203.707823,615.622783 193.3996,615.933749 C182.836273,615.509795 182.992337,631.882023 194.077878,631.856056 M348.638191,845.907857 C348.63619,835.181018 333.15985,835.206016 333.519998,846.191826 C332.696661,857.791571 348.398092,856.994657 348.638191,845.907857 M458.347131,774.298608 C469.931877,775.57447 471.50152,758.227347 459.555626,758.632304 C450.060737,758.10836 448.834234,774.65357 458.347131,774.298608 M423.162719,899.638042 C435.662839,900.027999 435.603815,881.399016 423.961046,882.608885 C412.982548,882.222927 413.136611,898.921119 423.162719,899.638042 M583.272305,596.484854 C584.492805,584.054199 565.921197,584.51315 565.925199,595.629947 C565.085855,606.297792 582.718078,606.060817 583.272305,596.484854 M529.89644,652.163827 C529.665345,641.479984 511.129753,645.714526 512.705398,655.37248 C513.094558,668.965009 530.282598,666.271301 529.89644,652.163827 M396.052613,525.484539 C396.53181,511.021104 376.293519,512.607933 377.39297,525.483539 C378.191297,536.135386 395.260289,535.280479 396.052613,525.484539 M357.785938,899.916012 C357.776934,884.727655 339.094281,884.525677 339.050263,898.701143 C338.337972,911.707735 357.613868,910.679846 357.785938,899.916012 M574.170576,732.42814 C573.532315,747.362523 593.657559,747.165545 594.717993,734.388928 C595.610359,722.062262 574.656775,720.174466 574.170576,732.42814 M347.258626,670.455848 C332.662647,669.258977 332.959768,690.717655 345.094739,691.446576 C355.17787,691.604559 361.545478,669.946903 347.258626,670.455848 M182.110976,754.021803 C182.841275,738.769454 159.789832,743.068988 161.115375,755.885601 C163.126199,769.931081 182.587171,769.29315 182.110976,754.021803 M609.231939,692.007515 C608.132488,678.002031 587.226925,679.154906 587.06886,693.603342 C587.201914,709.195655 608.569667,704.932116 609.231939,692.007515 M302.269197,758.11136 C302.708376,774.082631 324.353243,769.607116 323.519902,754.931704 C322.899647,740.763238 300.806597,745.288748 302.269197,758.11136 M524.485224,470.892448 C525.42761,452.795406 502.147073,458.588779 502.055035,471.3374 C503.024433,484.132015 524.007028,485.319886 524.485224,470.892448 M545.857979,800.420781 C530.468675,800.357787 532.534521,823.147321 546.826375,823.024334 C562.102633,822.78036 561.515392,800.323791 545.857979,800.420781 M252.99001,653.230712 C268.602406,652.732766 268.668433,629.128321 250.550011,630.778142 C236.831391,631.705042 239.707569,654.405585 252.99001,653.230712 M309.344095,518.712272 C322.849627,518.655278 322.708569,495.486786 307.862488,495.052833 C290.956563,494.455897 291.674857,518.862256 309.344095,518.712272 M169.421778,654.330593 C152.897009,653.693662 152.500847,679.279892 167.885148,678.435984 C183.277454,679.177904 184.717043,655.501466 169.421778,654.330593 M365.396871,738.566475 C365.320024,756.785504 389.386883,754.825716 390.032147,738.731458 C389.490925,724.157035 365.637154,723.00016 365.396871,738.566475 M524.308151,502.626013 C507.415231,503.057966 506.999061,528.285236 524.861378,527.859282 C538.828099,527.157358 541.352133,502.322046 524.308151,502.626013 M297.251141,866.58162 C297.995446,850.50536 273.059231,850.635346 272.621052,866.175663 C273.749514,883.382801 296.600875,885.534568 297.251141,866.58162 M254.748731,822.374404 C254.117472,837.492768 279.829004,838.1167 280.463264,823.677263 C281.037499,807.283038 254.638686,802.862516 254.748731,822.374404 M189.403963,785.605384 C172.813167,784.915459 174.975053,812.758445 190.228301,812.44048 C208.089617,812.144512 208.209667,785.214426 189.403963,785.605384 M482.603067,863.024005 C465.832197,862.784031 465.598101,889.270164 482.309947,890.382043 C500.496397,889.985086 500.879554,863.420962 482.603067,863.024005 M473.922511,670.264868 C474.561773,654.404585 446.62733,651.542895 446.160139,669.707929 C445.518876,686.913066 473.721429,688.326913 473.922511,670.264868 M254.629682,689.508785 C235.444823,689.287809 237.3426,715.578964 254.431601,716.702842 C272.730096,716.942816 272.891162,688.886853 254.629682,689.508785 M586.1895,627.721473 C567.404805,627.589487 566.73453,655.234495 586.054444,654.618562 C603.408553,655.324485 604.005798,626.943557 586.1895,627.721473 M489.113734,566.992046 C488.81061,548.623034 459.41757,550.072877 459.48548,567.665973 C459.673675,586.950886 489.756998,586.892892 489.113734,566.992046 M402.887413,803.29247 C383.208352,802.542551 384.047696,831.146455 401.256745,832.48131 C420.501628,834.188126 423.326786,803.704425 402.887413,803.29247 M327.841672,606.356785 C346.892476,606.095814 347.237617,576.19505 327.173398,576.84498 C308.245645,577.224939 308.849892,606.235799 327.841672,606.356785 M399.360969,500.648227 C415.77069,502.197059 421.741136,470.921445 400.533449,469.862559 C381.319578,467.91077 378.195298,499.911307 399.360969,500.648227 M224.763448,516.759483 C203.106576,517.498403 206.121811,547.677137 226.973353,547.405166 C245.907109,545.79934 246.485346,516.426519 224.763448,516.759483 M165.254071,809.511797 C171.683704,838.786628 200.907676,884.251707 223.491927,886.554458 C222.799643,886.013516 220.279611,885.388584 220.629754,884.614668 C225.325678,884.146718 221.642169,882.964846 220.864851,882.011949 C220.014502,880.029164 225.001545,881.139044 225.169614,883.292811 C209.001991,867.166556 174.349797,819.770686 163.881508,784.280528 C160.305043,779.203077 157.07372,754.918706 153.809383,770.577011 C152.311769,785.635381 164.884919,795.339331 165.254071,809.511797 M481.516622,916.386229 C513.813852,922.254594 626.59205,794.214452 564.524625,827.423858 C555.180797,867.721496 490.265206,887.579347 481.516622,916.386229 M375.947378,458.789758 C414.230059,457.697876 457.640842,453.377343 487.191947,428.115078 C459.047418,433.848457 430.962914,443.365427 404.203952,449.52476 C369.934915,447.355995 336.569247,442.793489 304.209992,431.337729 C278.948644,454.691201 361.203338,456.910961 375.947378,458.789758 M620.755659,579.210724 C605.4764,531.312908 566.63549,433.323514 495.958538,432.925557 C560.04479,471.169418 604.419967,546.055312 618.325664,619.662345 C618.138587,614.44191 615.144361,594.993015 614.686173,584.997097 C617.165188,584.499151 618.572765,602.219233 623.374732,598.393647 C626.136863,601.522309 622.405335,605.322897 624.07902,608.793522 C628.223718,616.710665 617.386279,582.778338 620.755659,579.210724 M130.303754,644.522655 C140.433903,677.013138 151.105275,619.397374 156.254384,607.79463 C163.869503,564.117357 204.913316,512.176979 219.486286,486.992705 C167.874144,500.633229 131.1491,590.801469 130.303754,644.522655 M646,646.202473 C644.213268,1054.62627 66.0084164,1043.2385 122.944739,627.372511 C140.015732,551.604712 175.351207,471.459386 245.927117,431.623698 C292.643253,407.154347 340.804982,434.47239 388.609564,428.221066 C437.944774,424.132509 495.102187,394.253743 537.911723,431.432719 C607.743329,478.652608 642.497565,560.391761 646,646.202473" id="Fill-151" fill="#081118"/>
            </g>
        </g>
        <g id="Plants" transform="translate(47.000000, -76.000000) scale(1 1)">
            <g id="Plants/1" stroke="none" stroke-width="1" fill="none" fill-rule="evenodd">
                <g id="Group" transform="translate(59.000000, 180.000000)">
                    <path d="M66.9366585,713.53607 C79.081369,706.453633 59.546358,695.725486 55.0000973,688.557056 C45.3301617,680.203721 41.9117099,694.507583 37.596615,700.798083 C40.3625989,711.635221 57.0765866,709.083424 66.9366585,713.53607 M39.3989077,848.55233 C64.4508756,832.120637 84.2250582,821.826456 41.4193568,830.068801 C-2.47912831,821.267501 5.57965165,834.125478 39.3989077,848.55233 M107.085454,862.774199 C111.830858,880.785766 122.669632,884.277489 137.038938,875.08422 C133.258226,871.871476 128.181585,867.386832 131.895248,862.318235 C146.876994,853.688922 152.883302,827.565 133.239212,849.30727 C128.663931,850.576169 140.084122,829.06488 141.301995,822.5364 C130.910542,825.273182 117.224726,851.271114 107.085454,862.774199 M113.755238,673.79923 C73.2521881,667.554727 97.1503285,728.511878 146.682855,704.582782 C171.645759,687.983102 125.465637,679.347789 113.755238,673.79923 M273.300668,743.057721 C281.490542,743.970649 299.957787,717.30177 295.313456,710.474313 C286.428083,712.466155 289.503289,705.622699 288.759756,701.765006 C284.657814,634.547352 210.732793,754.190836 273.300668,743.057721 M76.7947289,760.877304 C58.0542878,745.284544 42.2209317,767.862748 27.1851477,778.040939 C6.04598612,821.90045 114.956099,779.593815 76.7947289,760.877304 M185.267528,744.876577 C168.906794,709.081424 132.335564,801.188098 167.232593,795.916517 C183.567309,785.56734 191.428948,763.499096 185.267528,744.876577 M278.586459,668.173678 C215.514222,688.304077 123.235037,720.222538 84.8605139,780.79072 C119.498357,749.772187 162.175967,730.369731 200.135192,703.97483 C214.147242,697.778323 394.978939,635.442281 278.586459,668.173678 M209.131644,633.842408 C176.100954,627.79289 199.536763,647.235343 209.039578,658.733429 C219.98743,670.91346 258.575107,676.592008 258.51713,654.110796 C250.237126,635.483278 226.481088,631.244615 209.131644,633.842408 M137.596337,569.315541 C176.49924,573.593201 205.7232,605.090695 242.215373,615.483869 C236.628366,581.796548 193.374343,577.989851 179.064079,555.381649 C193.32831,552.684864 203.85486,565.17287 217.334528,564.911891 C224.457637,561.840136 260.306348,574.796105 272.593161,586.692159 C290.978347,593.84659 319.400732,654.699749 325.89439,647.210345 C317.688504,623.807207 327.625631,631.355606 326.600896,614.350959 C340.238678,661.661196 363.237173,698.058301 399.34407,731.195665 C422.949,760.961297 436.896003,797.473393 456.645167,829.617836 L456.605139,829.532843 C470.539133,870.55758 472.453506,914.147113 486.839824,954.582897 C491.613247,982.717659 480.375187,975.339246 476.314275,991 C457.745957,907.420648 445.658287,793.918676 383.292557,732.528559 C386.752038,752.563965 380.470533,772.658367 368.278789,788.244127 C369.964998,778.15693 382.297844,717.526752 362.755828,745.20855 C379.845084,773.038337 306.591545,843.591725 338.458401,824.852215 C352.955799,827.293021 289.250107,881.6217 286.902424,844.734634 C287.293704,824.404251 295.924895,804.077868 291.124452,783.910472 C268.014877,801.737054 273.041482,760.755314 262.37183,815.783937 C257.969672,802.500993 243.952619,844.957616 238.459679,852.930982 C235.96489,861.695285 204.777521,883.603542 222.996589,884.556467 C230.90326,883.320565 245.777928,856.564693 246.479431,865.429988 C238.017362,885.460395 218.918664,896.059552 197.142045,894.389684 C179.160148,902.562034 195.529889,910.822377 209.258736,907.982603 C114.069463,917.70183 238.366612,831.20171 215.217009,800.300168 C175.87279,827.626995 183.830498,916.544922 99.5190274,887.359244 C64.3588096,869.584657 158.540359,814.774017 122.145256,804.495835 C81.3229767,832.96857 55.1672171,887.923199 4.21767481,837.655197 C-2.40307377,800.208176 -10.0095293,712.215175 56.0488495,737.532161 C72.5036513,741.648833 106.468011,747.821343 78.6870862,728.74786 C65.2694627,720.504515 32.8331986,720.885485 33.9279838,701.610018 C32.6180443,676.199039 91.0309395,640.141907 63.5442253,627.945877 C88.8964086,593.455621 175.976865,697.452349 150.573645,635.71226 C157.399541,610.353277 83.9558651,602.339914 137.596337,569.315541" id="Fill-1" fill="#011BA6"/>
                    <path d="M210.353647,144.22621 C204.84036,141.310693 202.202658,135.238862 197.417013,140.799128 C202.683421,143.710649 204.558498,152.086518 210.353647,144.22621 M547.303836,351.141043 C556.27842,333.695896 565.97065,315.384486 571.023164,296.454603 C559.632769,311.826516 552.973046,333.099404 547.303836,351.141043 M198.401528,242.073903 C178.385378,224.930499 144.437084,253.510166 122.912676,261.756146 C116.173992,276.727399 149.970361,251.252089 158.096362,249.767353 C166.695131,239.592016 230.888542,248.186699 198.401528,242.073903 M520.230159,320.700846 C507.786282,320.638014 503.885202,346.689833 507.229556,355.818061 C518.434043,352.944508 528.310183,331.688605 520.230159,320.700846 M228.732603,454.1983 C254.461941,443.029809 285.521657,431.182896 302.495304,408.698039 C299.754653,404.254822 213.345175,458.828358 228.732603,454.1983 M323.403016,546.527691 C359.202399,538.338663 399.490574,524.782205 414.587145,486.917443 C411.989423,465.597595 371.162514,535.339217 349.615117,532.860328 C334.805405,538.021933 281.219774,546.724524 323.403016,546.527691 M462.070779,372.656725 C490.13197,371.986296 506.97768,348.249505 508.871748,322.985015 C504.938684,284.482796 387.531459,365.565762 462.070779,372.656725 M227.712105,397.958183 C254.986683,360.978668 195.301054,397.29275 179.369893,402.764091 C185.191029,387.810823 128.165091,410.396593 114.048038,397.407652 C101.410257,397.3517 83.4800801,355.984919 78.8183741,376.405533 C74.6174413,365.86151 70.0386945,356.600395 59.0021255,350.083943 C47.4528088,343.386645 52.3114179,362.575308 52.6332596,367.642994 C100.782566,538.618425 426.378343,337.671511 227.712105,397.958183 M105.315335,83.9385393 C122.09108,59.2925229 164.232343,65.6111433 181.494848,42.1800924 C184.41641,39.7221851 177.827652,30.5200198 187.771759,33.5184669 C189.774773,33.1128123 187.317982,30.7238463 186.42842,30.2812231 C79.1771975,6.50246835 50.1015054,153.389409 105.315335,83.9385393 M271.323644,217.192087 C288.246316,207.316495 229.579186,136.814521 231.787099,168.096887 C234.506761,173.008705 253.140592,185.204322 247.019604,186.329364 C146.585027,143.781589 215.911911,275.043832 271.323644,217.192087 M314.953174,432.060149 C300.435318,460.616836 379.547388,470.059796 402.583052,431.319779 C403.010842,397.646449 323.29407,410.249718 314.953174,432.060149 M288.525179,162.34978 C288.599143,181.332618 288.046415,201.821174 300.677199,217.414898 C346.118838,260.858909 321.027185,91.7678734 288.525179,162.34978 M403.980365,230.422823 C388.005226,231.255114 385.153629,250.67558 380.800771,262.162799 C377.480405,271.347979 381.958201,277.084095 388.547959,275.565388 C391.640437,284.264982 401.295686,295.345548 410.006399,289.777288 C463.655999,269.774319 466.691505,154.175739 403.980365,230.422823 M347.050379,302.03785 L347.02839,302.011872 C371.256468,322.212673 377.73428,348.075653 392.638946,380.88372 C408.417181,398.641601 412.99293,425.550691 425.966545,427.016443 C421.422781,359.125246 360.385817,310.486656 330.492527,252.156319 C318.758302,240.35037 303.485817,230.177032 291.215855,218.859668 C278.745991,214.971978 266.915813,220.073634 283.683562,229.040999 C297.706661,256.470646 324.238605,280.418257 347.050379,302.03785 M263.781355,306.717865 C211.456104,365.238041 370.524828,335.118685 326.221629,291.018232 C298.355342,269.918196 273.077781,276.299763 263.781355,306.717865 M440.901196,47.2877438 C440.797247,47.2637642 440.694298,47.2397846 440.591349,47.2168042 C447.973716,67.5894589 480.904511,77.8966834 498.013092,93.7332002 C482.600676,73.8970886 462.275678,59.9459666 440.901196,47.2877438 M194.339527,136.813522 C194.360517,137.123258 194.380507,137.431995 194.400497,137.740732 C172.208418,91.6140044 139.44454,111.768845 194.339527,136.813522 M535.785504,363.815252 C537.808509,361.893888 539.830514,359.971525 541.853518,358.050161 C540.188338,356.965085 535.357715,365.188084 535.785504,363.815252 M252.017144,103.907538 C257.966217,90.9655565 256.118126,102.833452 253.299513,110.029326 C256.480948,103.507878 257.453469,96.1081781 261.178636,89.8824787 C262.169149,95.1609845 259.130644,102.571675 264.003246,94.4845605 C267.589481,108.746418 258.606902,128.084953 272.031296,138.831803 C276.590052,105.750968 292.698126,69.858527 290.888016,38.0995666 C277.865425,43.7977152 278.697015,60.7352946 270.713944,70.8047215 C277.169767,54.1019422 275.492592,16.1832262 302.151474,23.5409618 C405.556589,58.5541516 291.766584,-2.88453955 369.355403,22.9644526 C404.674023,45.4842793 368.306919,103.710705 371.405394,138.394176 C371.728236,173.441337 346.387705,263.028063 402.794948,201.840158 C411.084868,190.988397 435.260972,122.235933 431.568788,157.548868 C444.040651,145.657991 432.343407,33.4814984 421.448768,54.5745398 C435.452877,120.933042 411.612609,68.3897775 406.363192,33.572421 C407.72852,17.045492 438.917172,42.4009044 449.567931,43.7977152 C586.020784,107.857175 527.54356,196.172983 458.091737,285.231159 C448.477468,317.616586 488.344849,300.571099 503.32048,294.678116 C513.530456,294.214511 533.648556,296.690403 544.3293,279.741833 C561.301948,263.843368 593.699006,177.574817 562.717251,182.248838 C557.128002,207.678187 555.486809,188.769286 559.553808,174.027837 C581.752884,130.065267 601.802018,266.094452 588.985325,282.313643 C574.318542,359.354051 514.692884,424.848289 437.332952,441.179385 C414.00743,434.815803 453.099194,463.871065 396.525033,523.905951 C381.953204,565.376643 222.289773,576.38527 238.578757,528.720852 C262.955762,512.885334 301.959568,511.50451 315.406951,484.221738 C262.559956,485.72346 174.904091,515.048493 136.217129,463.04277 C125.795257,449.868986 125.42344,469.175549 111.324378,450.963055 C76.4235525,439.9864 140.804871,497.4215 150.068313,510.473388 C132.521947,491.374648 101.617155,475.054543 94.878471,450.094794 C95.6151085,444.143861 106.78861,434.324221 98.5686551,430.827199 C53.6957367,439.988399 24.6420338,303.150902 67.9347298,317.145987 C106.456773,332.642793 152.446142,335.753145 189.696812,315.422454 C211.20123,305.273095 231.654165,257.753553 192.704332,260.60013 C146.755943,258.954531 73.472005,342.990982 43,272.483013 C58.8362071,282.813218 76.4655319,304.231982 95.8340008,288.310537 C99.7880551,284.381882 112.755674,275.220682 102.50072,272.45104 C54.032571,276.043981 72.5174747,240.383342 72.0776911,208.124807 C59.5028791,190.074176 46.8830892,230.432814 59.8247207,178.447075 C139.508509,241.770162 198.701381,175.139891 160.877993,183.725581 C174.088492,161.368615 101.063427,152.487177 84.5635469,151.833733 C76.1876686,151.409095 67.280052,137.563883 68.0356801,126.517288 C61.4309303,16.710777 238.465813,-15.4798159 201.651929,45.5072597 C196.783324,73.5913489 220.617596,149.81745 252.017144,103.907538" id="Fill-3" fill="#011BA6"/>
                    <g id="Group-7" transform="translate(545.000000, 344.000000)" fill="#011BA6">
                        <path d="M155.7544,163.8837 C156.7544,161.9807 155.2974,159.7567 154.2184,161.3677 C154.4944,162.0207 154.9394,162.6027 155.7544,163.8837 M307.8074,98.4607 C309.0424,112.4257 329.7804,74.7557 330.1054,67.8067 C315.5464,68.6597 312.5604,88.7957 307.8074,98.4607 M208.3064,271.8807 C196.9404,284.4607 211.5274,291.0687 221.8574,295.2407 C214.2854,291.3437 196.2034,296.9497 207.0924,304.9487 C218.6804,309.0707 229.4064,314.0227 237.5754,301.2777 C334.9244,289.0547 239.3814,222.2957 208.3064,271.8807 M121.5104,320.7957 C127.4864,297.6327 124.7724,270.3327 114.6434,248.5917 C72.7044,234.6597 100.2734,353.3897 121.5104,320.7957 M156.0584,188.0997 C121.0684,180.9907 137.6574,227.9617 135.9324,247.4497 C136.1354,265.5967 153.4224,258.6917 161.6224,265.0817 C187.4494,254.2037 175.4334,203.7817 156.0584,188.0997 M131.9654,380.0477 C139.9814,399.6437 191.3094,388.8317 189.8694,363.0057 C183.6974,337.2867 75.7284,346.3287 131.9654,380.0477 M157.2504,298.2277 C135.2634,316.4607 104.1954,338.8987 100.9844,368.8157 C140.8664,309.4807 201.8584,264.9917 235.3554,201.3137 C244.6424,188.6227 250.8004,182.8697 247.1444,202.8497 C265.0114,222.2957 306.1944,218.5857 319.3534,191.7027 C330.4104,150.3047 260.2784,184.4927 251.2414,181.0877 C298.0934,129.6487 310.5264,72.5247 248.0424,162.9427 C249.9424,142.6447 241.9124,101.2887 215.0254,125.4637 C203.9894,140.4307 201.9064,196.3087 231.0714,181.3387 C248.4694,202.5397 166.9524,266.7517 157.2504,298.2277 M71.3744,78.7397 C80.4974,75.7087 94.2994,60.0467 101.7034,72.2757 C107.8154,105.4547 112.4184,138.8487 124.5794,170.5577 C134.5074,177.8227 132.8234,148.3647 139.6804,143.1077 C168.9164,188.8797 150.1404,125.0357 147.8114,103.9097 C136.3454,74.5577 185.9634,23.9257 176.9254,60.1667 C160.5224,83.7657 172.9694,155.2907 205.9124,113.9947 C202.9034,88.6167 215.1124,109.2887 220.9974,95.0957 C219.0524,91.1887 231.3144,93.4177 231.9864,89.9207 C241.9574,39.1217 238.8204,34.7207 292.8974,26.9297 C302.3124,22.8207 285.5014,21.9087 281.4834,20.7277 C295.5024,15.6417 312.5804,19.6657 327.6534,17.7507 C340.2264,19.5567 344.3264,8.9637 349.8254,0.0817 C387.8004,16.7157 387.8984,74.9287 384.4944,109.8397 C375.5084,117.2577 351.3334,126.8497 341.2244,122.1767 C344.9914,116.2327 352.5414,111.7087 351.1474,103.8907 C292.1514,111.1207 272.8024,193.7307 383.9514,146.8507 C469.8724,271.4947 251.1264,220.1567 277.7154,248.6677 C261.4764,265.5347 312.5634,277.2657 330.7154,268.1547 C333.7164,264.2737 356.5844,263.3387 346.2434,259.8207 C336.1364,256.1217 377.1224,246.7407 386.4654,244.8627 C427.6134,259.9587 364.4024,313.6867 351.5384,334.5817 C311.3154,371.2817 251.5574,306.2557 210.4254,333.3077 C196.7714,334.7767 198.7834,345.1467 203.7104,353.4137 C231.3134,391.5977 272.5544,372.4977 305.8794,358.6527 C375.3904,362.7497 295.2934,415.2377 274.6534,431.9677 C267.4214,435.3577 281.7834,420.7697 284.3064,417.5697 C292.0424,406.6927 256.1644,423.0897 247.8434,422.2357 C226.5314,428.1747 193.5144,420.9577 177.1414,431.9487 C164.4274,435.2067 148.8124,426.3387 135.7204,424.3947 C124.7744,412.8267 128.2664,426.8627 132.6044,434.4757 C105.8494,424.7487 96.7444,387.6337 81.1924,377.9917 C75.6064,370.0387 48.9214,375.3137 54.0584,365.8097 C71.7364,368.5917 51.6164,361.4547 50.8714,352.9447 C52.8414,348.0387 52.9484,348.1897 48.5834,343.6577 C20.9944,318.6727 9.7324,283.6207 0.0674,248.7887 C1.8644,232.0957 4.3864,215.4267 4.9714,198.6907 C10.3824,185.4307 -5.5336,184.4207 9.3224,172.8147 C23.7854,201.2947 15.7184,268.8957 58.0244,274.7207 C60.5114,265.2417 50.2374,254.6397 47.0914,245.7147 C137.6564,319.7057 15.9954,200.7417 59.1934,116.8937 C63.3684,104.3067 80.6634,95.4827 71.3744,78.7397" id="Fill-5"/>
                    </g>
                    <path d="M684.445567,486.818438 C667.353724,546.64591 661.702157,441.793351 672.528283,416.685798 C681.979031,400.092511 727.687463,345.467037 737.913352,382.781467 C736.613501,411.145385 733.558653,439.611127 741,467.513843 C707.414563,482.33819 711.457218,422.206245 721.453546,404.026703 C722.562593,400.411959 725.4485,393.584773 720.933805,391.468435 C713.431838,391.318694 693.565391,411.665485 693.693587,419.064681 C678.542576,394.899497 682.09729,471.593783 684.445567,486.818438" id="Fill-8" fill="#BA1B2A"/>
                    <path d="M503.544581,294.237501 C488.584727,300.159244 448.907987,317.142564 458.468743,284.794668 C475.281766,278.826989 488.90953,268.543328 499.432738,254.16238 C515.938891,230.504368 535.661189,208.814611 547.023305,182 C576.679982,211.925274 525.17086,264.081549 503.544581,294.237501" id="Fill-10" fill="#BA1B2A"/>
                    <path d="M597.326768,701.027539 C615.434414,742.272766 479.555795,660.300729 527.185932,570.653509 C529.885381,558.641832 550.367507,501.722978 549.525175,542.503832 C542.544286,595.799767 524.109675,682.065263 597.326768,701.027539" id="Fill-12" fill="#BA1B2A"/>
                    <path d="M816.967498,346.898025 C840.551433,347.059953 805.285146,344.039291 795.728042,348.721217 C802.677389,350.969221 809.913039,347.498759 816.967498,346.898025 M895,343.604484 C885.141577,371.234242 852.796379,359.070631 829.93721,362.336184 C817.440998,365.332857 795.819138,374.33087 785.35107,368.929263 C779.477861,368.886282 852.413975,358.069075 822.101926,358.943687 C826.080132,351.176129 822.863732,356.399815 813.835186,354.790528 C799.49102,352.55052 820.726472,353.644036 825.458475,350.394476 C812.94024,350.110601 800.011571,358.263989 787.598446,359.112613 C755.980017,355.131377 748.988625,418.818158 759.783038,444 C756.76785,443.178364 753.747657,442.355729 750.728465,441.535092 C728.171616,405.657989 746.159634,348.954114 791.049095,346.739095 C823.569478,342.578939 865.449757,326.745954 895,343.604484" id="Fill-14" fill="#BA1B2A"/>
                    <path d="M520.879738,988.032852 C461.88754,1065.87184 595.852443,738.698663 618,734 C592.229137,816.104588 538.084416,899.152308 520.879738,988.032852" id="Fill-16" fill="#011BA6"/>
                    <path d="M240.151155,546.283005 C271.072151,561.537099 328.647388,586.610815 324.987886,626.035213 C315.964976,631.430709 331.769551,644.137457 323.535671,651 C306.367771,622.064791 286.804815,594.052982 257.71357,575.709895 C254.943974,569.448961 232.969981,559.420473 260.030722,566.841654 C271.036195,564.600109 224.966817,552.546937 214.157103,550.105522 C203.063737,555.820811 188.895151,559.439461 176,553.541291 C189.06694,536.115608 220.724032,548.289702 240.151155,546.283005" id="Fill-18" fill="#BA1B2A"/>
                    <path d="M484.801734,665.16824 C484.672989,652.175863 481.202863,638.630172 482.169947,626 C505.635462,725.214336 498.866871,833.216662 495.18716,933.900832 C477.507184,1004.14972 496.779007,685.621854 484.801734,665.16824" id="Fill-20" fill="#011BA6"/>
                    <path d="M149.707925,510.598834 C131.786051,495.607962 67.8131371,417.992823 122.938328,462.731689 C158.435421,536.378041 226.614284,505.944711 285.732022,486.534461 C294.419442,490.107363 301.036949,483.915459 309,481.682395 C308.77257,488.700881 298.722575,490.601721 293.585866,493.832452 C247.314409,509.258001 195.817075,544.84777 149.707925,510.598834" id="Fill-22" fill="#BA1B2A"/>
                    <path d="M250.672759,104.247549 C219.165265,149.118215 195.777541,72.1420218 200.641534,45.0242367 C215.490786,8.6096117 223.562128,75.0137524 229.145479,90.8177797 C241.001273,96.1948926 235.474421,42.1084642 240.831774,29 C265.324263,44.519757 235.917336,88.5115869 250.672759,104.247549" id="Fill-24" fill="#BA1B2A"/>
                    <path d="M423.688188,140.883823 C421.927982,137.352677 419.692956,147.685841 420.118108,149.662326 C421.300188,146.758429 422.481275,143.854533 423.688188,140.883823 M422.265719,159.139878 C412.639216,184.529028 397.918843,224.096612 367,222.976738 C388.516837,174.516967 427.640706,125.893654 411.47601,67 C433.957384,91.714034 424.1193,124.997155 422.265719,159.139878" id="Fill-26" fill="#BA1B2A"/>
                    <path d="M774.860995,673.946007 C768.147032,675.567801 773.89059,677.552878 776.871689,679.783468 C782.012239,678.316368 777.585516,675.842259 774.860995,673.946007 M756,677.602779 C782.26083,655.972535 815.389371,694.715952 844.826979,691.179941 C883.144989,693.69996 791.249055,744.466611 756,677.602779" id="Fill-28" fill="#BA1B2A"/>
                    <path d="M602.744953,595 C555.693426,555.655972 561.67499,457.270925 615.84313,423 C623.913382,446.726102 586.877058,476.546322 593.646712,511.93217 C592.563211,501.184543 592.55528,459.584692 588.466127,487.225015 C575.345151,522.905579 584.008207,562.541326 602.744953,595" id="Fill-30" fill="#BA1B2A"/>
                    <path d="M63.8231545,628 C91.8830606,641.846666 27.2661075,679.402979 33.5405029,708.091483 C27.125808,681.863988 55.1987419,665.580245 58.9988549,641.986269 C38.1303019,658.50634 22.0650035,682.756453 16.7165849,709.154463 C19.8152003,729.799816 51.2563251,710.058894 78.9955465,728.528428 C79.7351255,746.305927 -11.9175471,736.150775 10.5454099,697.621226 C24.9341289,673.661289 35.3714118,637.442177 63.8231545,628" id="Fill-32" fill="#BA1B2A"/>
                    <path d="M262.021823,815.400896 C286.170529,714.44715 285.192917,905.729614 209.008108,907.470161 C195.432387,910.151383 178.88189,902.199588 196.932257,893.899284 C248.071633,896.559535 247.286748,851.64782 262.021823,815.400896" id="Fill-34" fill="#BA1B2A"/>
                    <path d="M160.051655,183.2608 C201.731871,175.594975 126.045205,242.803663 61,176.43154 C80.3363367,161.958576 129.63752,198.941352 160.051655,183.2608" id="Fill-36" fill="#BA1B2A"/>
                    <path d="M456,830 C436.273816,797.841235 422.340337,761.304461 398.755682,731.52979 C385.494936,709.859841 353.395655,696.361644 350,671 C406.854473,697.326087 432.80519,773.682143 456,830" id="Fill-38" fill="#BA1B2A"/>
                    <path d="M137.534787,618.592217 C146.817022,617.505482 153.587453,626.637661 150.042079,635.462633 C133.032441,639.047058 123.705441,623.697672 110.040233,619.052529 C72.3850584,613.205573 89.8065329,590.285064 111.832815,575.587118 C140.840421,557.897149 137.39353,570.888939 113.225499,584.527168 C88.6336945,601.683776 120.792744,623.674656 137.534787,618.592217" id="Fill-40" fill="#BA1B2A"/>
                    <path d="M543,915 C565.674729,855.845973 590.910154,795.968065 623.801629,742.310731 C625.337847,739.892787 626.383356,736.138215 620.78127,738.406977 C612.645526,727.945239 635.217106,727.098208 633.948275,722 C609.271657,784.016512 571.149631,854.434254 543,915" id="Fill-42" fill="#BA1B2A"/>
                    <g id="Group-46" transform="translate(239.000000, 0.000000)" fill="#011BA6">
                        <path d="M13.4063,41.4222 C-14.7237,21.8462 8.8673,-7.6968 34.3143,1.8872 C16.3513,9.6842 25.4773,29.5382 13.4063,41.4222" id="Fill-44"/>
                    </g>
                    <path d="M462.829437,550.609637 C459.013787,541.19532 433.728479,471.657727 448.689028,485.920873 C456.650385,522.135407 466.737103,558.457071 472,595 C467.877298,583.357004 458.67773,560.062 462.829437,550.609637" id="Fill-47" fill="#011BA6"/>
                    <path d="M484.169622,665.653264 C481.797876,690.542986 496.983749,752.473981 485.911004,759 C485.025539,727.535123 462.982482,589.391701 484.169622,665.653264" id="Fill-49" fill="#BA1B2A"/>
                    <path d="M432.78239,466.382071 C431.428137,458.12457 418.331358,434.280391 436.723217,441.264678 C439.618621,449.45161 447.538255,463.125984 448,468.561741 C434.88623,466.920777 439.13089,487.556577 432.78239,466.382071" id="Fill-51" fill="#BA1B2A"/>
                    <path d="M474.230972,988 C479.605502,1001.31217 473.456194,994.108505 484.290364,988.368006 C486.517849,995.940663 482.919829,1003.87149 481.469077,1011.33689 C464.997226,1015.25704 466.980148,1001.00616 470.177084,989.350995 C473.959995,988.519538 473.601954,995.087558 474.230972,988" id="Fill-53" fill="#BA1B2A"/>
                    <path d="M602,433 C589.823104,448.203866 581.789354,465.788684 573,483 C574.651173,461.753649 583.435456,444.581597 602,433" id="Fill-55" fill="#011BA6"/>
                    <path d="M484.393644,889 C486.258676,910.639198 485.276301,932.321088 486,954 C479.261598,933.504567 482.702379,910.301628 484.393644,889" id="Fill-57" fill="#BA1B2A"/>
                    <path d="M48.6239761,249.224964 C57.1729399,229.708732 57.6723145,254.988447 53.2765852,263.446835 C46.273011,272.823156 45.7849392,253.686688 48.6239761,249.224964" id="Fill-59" fill="#011BA6"/>
                    <path d="M762.742027,782 C709.044086,775.919877 768.876073,777.764766 791.931555,776 C793.470769,779.98151 768.598379,779.854135 762.742027,782" id="Fill-61" fill="#011BA6"/>
                    <path d="M720,796 C706.387348,789.944426 689.384705,791.799206 679,781 C693.301586,786.486934 705.675549,789.523652 720,796" id="Fill-63" fill="#011BA6"/>
                    <path d="M673,417 C670.777608,428 668.556166,439 666.333774,450 C665.591078,438.351024 665.447667,426.834411 673,417" id="Fill-65" fill="#011BA6"/>
                    <path d="M520.877108,987.317384 C524.456436,983.9732 518.559047,1008.04754 516,1013 C517.503297,1004.53983 519.463529,995.443532 520.877108,987.317384" id="Fill-67" fill="#BA1B2A"/>
                    <path d="M357.167785,808 C355.897407,800.975649 362.13428,797.787597 365.988934,793 C366.307047,796.070645 359.680564,802.839109 357.167785,808" id="Fill-69" fill="#011BA6"/>
                    <path d="M885.795013,466 C891.051107,470.309981 877.627853,472.564662 874,474 C877.616871,470.955735 881.912592,468.720893 885.795013,466" id="Fill-71" fill="#BA1B2A"/>
                    <path d="M535,943 C532.854201,948.911341 531.939196,955.492039 529,961 C529.994443,954.838386 533.440667,948.9506 535,943" id="Fill-73" fill="#BA1B2A"/>
                    <path d="M287,486 C292,484.667 297,483.333 302,482 C297,483.333 292,484.667 287,486" id="Fill-75" fill="#BA1B2A"/>
                    <path d="M48,248.747253 C47.5005951,248.741253 46.749441,249.200253 47.0823776,248.157253 C47.3968935,248.307253 47.7393816,248.866253 48,248.747253" id="Fill-77" fill="#011BA6"/>
                    <path d="M456.7655,831 C456.5885,830.666667 456.4115,830.333333 456.2345,830 C456.4115,830.333333 456.5885,830.666667 456.7655,831" id="Fill-79" fill="#BA1B2A"/>
                    <path d="M535.264456,942 C535.416456,941.628576 535.324456,940.602785 535.760456,941.164783 C535.657456,941.444809 535.118456,941.767617 535.264456,942" id="Fill-81" fill="#BA1B2A"/>
                    <path d="M850.434,702.499 C850.434,702.499 850.565,702.5 850.566,702.501 C850.522,702.5 850.478,702.5 850.434,702.499" id="Fill-83" fill="#BA1B2A"/>
                    <path d="M251.9255,104.1105 C251.6425,104.3695 251.3585,104.6295 251.0745,104.8895 C251.3585,104.6305 251.6415,104.3705 251.9255,104.1105" id="Fill-85" fill="#BA1B2A"/>
                    <path d="M272.687475,742.84944 C218.428319,755.88348 267.894203,653.138844 286,688.416226 C270.574982,705.558244 259.986409,720.84213 272.687475,742.84944" id="Fill-87" fill="#BA1B2A"/>
                    <path d="M58.8693935,795.572798 C1.29449402,804.53598 27.467789,768.898969 61.2851305,755 C105.745604,763.580233 15.8940774,782.438737 58.8693935,795.572798" id="Fill-89" fill="#BA1B2A"/>
                    <path d="M153.442985,778.986493 C149.34965,761.724652 174.705092,717.767338 185,744.325492 C155.30296,769.311542 186.33664,802.463041 153.442985,778.986493" id="Fill-91" fill="#BA1B2A"/>
                    <path d="M184.707015,703 C192.549951,708.529409 184.215251,710.119316 181.953741,712.032644 C132.490934,753.169714 137.441971,720.828515 184.707015,703" id="Fill-93" fill="#BA1B2A"/>
                    <path d="M113,674.250265 C105.448392,683.555644 113.907678,706.055159 98.8288888,699.971522 C85.0251478,691.475306 98.1742663,664.025381 113,674.250265" id="Fill-95" fill="#BA1B2A"/>
                    <path d="M239,686 C247.305629,676.85132 273.962515,657.142607 280,672.933412 C272.032264,678.498063 253.647316,685.85719 239,686" id="Fill-97" fill="#BA1B2A"/>
                    <path d="M219,632.086445 C218.437171,649.248003 211.274615,669.791738 200,646.687497 C217.774194,647.88618 202.501687,630.638077 219,632.086445" id="Fill-99" fill="#BA1B2A"/>
                    <path d="M157.125923,432.25416 C41.2001032,459.157708 30.7904336,276.935552 79.3325977,381.880449 C113.671222,452.230772 182.242585,400.855322 231.391089,379.600215 C243.854523,406.469671 180.549428,424.837885 157.125923,432.25416" id="Fill-101" fill="#BA1B2A"/>
                    <path d="M393,438.330437 C382.23186,466.4526 304.717947,464.48831 314.923528,431.994215 C379.894157,446.86626 386.014723,391.264242 393,438.330437" id="Fill-103" fill="#BA1B2A"/>
                    <path d="M324,213.642754 C300.591321,265.273699 269.090166,137.053413 299.632637,158.427487 C303.669979,179.562002 305.194978,200.096613 324,213.642754" id="Fill-105" fill="#BA1B2A"/>
                    <path d="M196.7814,205.025766 C184.858715,160.278259 235.569129,239.542236 266.024193,210.171359 C275.861229,244.903356 208.355318,231.297058 196.7814,205.025766" id="Fill-107" fill="#BA1B2A"/>
                    <path d="M418.531731,215.31166 C427.268924,212.123342 443.614552,214.330716 436.059724,226.572062 C407.673032,234.768884 411.114896,266.951441 391.038514,281 C385.726309,268.66984 402.326081,254.514504 406.258364,242.001727 C408.447377,226.250735 402.451167,229.866159 418.531731,215.31166" id="Fill-109" fill="#BA1B2A"/>
                    <path d="M283,229 C306.900709,246.573771 326.622524,267.687951 346.312294,289.149858 C359.890445,327.116299 287.204931,244.144689 283,229" id="Fill-111" fill="#BA1B2A"/>
                    <path d="M267.221081,304.57316 C284.395858,309.940392 307.939952,282.872768 314,291.83464 C304.495251,305.836329 279.687238,310.141193 266.045666,322.908399 C251.709982,332.499383 259.362111,306.080654 267.221081,304.57316" id="Fill-113" fill="#BA1B2A"/>
                    <path d="M397.355974,385.94997 C394.392189,335.649902 410.72778,389.018986 417,410.157859 C411.202313,425.275459 402.624926,391.264633 397.355974,385.94997" id="Fill-115" fill="#BA1B2A"/>
                    <path d="M282,228.1075 C282.333333,228.3695 282.666667,228.6305 283,228.8925 C282.666667,228.6305 282.333333,228.3695 282,228.1075" id="Fill-117" fill="#BA1B2A"/>
                    <path d="M766.502533,638.989159 C836.320754,619.353346 806.704254,624.869259 753,615.716568 C781.024333,567.666684 881.341819,631.059349 782.168142,645 C779.506892,636.341242 771.986443,640.311624 766.502533,638.989159" id="Fill-119" fill="#BA1B2A"/>
                    <path d="M791.765904,546.943354 C795.437824,527.089087 789.257108,532.838021 780,545.420761 C781.312754,529.825587 793.330036,506.872534 807.154849,498 C773.413288,553.723562 824.832135,505.220907 855.553166,517.20116 C886.91561,530.776464 839.593632,564.899838 819.28186,559.406987 C801.305314,553.789072 829.48463,550.425271 836.301772,545.760218 C853.96609,537.278754 838.384621,532.929337 825.919446,534.49064 C851.819399,515.960454 812.564472,515.027444 807.032153,531.070263 C816.070801,542.844063 800.664898,539.393909 799.019966,544.171122 C797.760081,546.742856 794.152004,546.196946 791.765904,546.943354" id="Fill-121" fill="#BA1B2A"/>
                    <path d="M792.478153,506.925276 C759.396578,569.059549 796.469785,465.306715 769.725358,484.87134 C764.37944,494.684819 760.064323,505.077394 755.379225,515.261857 C737.096859,459.490612 799.275304,436.36796 792.478153,506.925276" id="Fill-123" fill="#BA1B2A"/>
                    <path d="M669.969284,652.650847 C654.28872,688.892434 663.559124,619.177279 655.695481,608.128148 C644.474909,619.519416 653.770707,649.182596 647.422506,655.533576 C616.573297,586.558554 671.480663,555.11686 669.969284,652.650847" id="Fill-125" fill="#BA1B2A"/>
                    <path d="M718.143459,578.970713 C695.042456,580.499871 716.748863,521.413787 681.943071,573.6693 C673.36911,520.157693 726.294633,525.211859 718.143459,578.970713" id="Fill-127" fill="#BA1B2A"/>
                    <path d="M677.544241,723.862848 C742.444712,736.017367 735.446809,688.744228 675,695.387804 C689.888523,687.255082 716.543046,695.73831 734.138483,700.294877 C739.002795,705.358176 721.093915,727.09751 734.114678,711.978718 C731.528776,733.664976 684.361618,742.474675 677.544241,723.862848" id="Fill-129" fill="#BA1B2A"/>
                    <path d="M704,644 C703.963893,632.001725 721.689408,613.60276 730.618463,602 C734.154325,619.123859 712.160663,630.074473 704,644" id="Fill-131" fill="#BA1B2A"/>
                    <path d="M675,723.134 C675.666667,723.378 676.333333,723.622 677,723.866 C676.333333,723.622 675.666667,723.378 675,723.134" id="Fill-133" fill="#BA1B2A"/>
                    <path d="M143.518546,731.250176 C143.500546,731.403176 143.470546,732.006176 143.424546,731.626176 C143.447546,731.494176 143.680546,731.344176 143.518546,731.250176" id="Fill-135" fill="#BA1B2A"/>
                    <path d="M200,703.752326 C199.333687,704.168615 198.667374,704.584904 198,705 C198.637666,703.727277 198.807427,701.981011 200,703.752326" id="Fill-137" fill="#011BA6"/>
                    <path d="M280,672.8505 C280.61222,672.5825 281.69873,672.4705 282,672.1495 C281.38778,672.4185 280.315789,672.5195 280,672.8505" id="Fill-139" fill="#BA1B2A"/>
                    <path d="M281.48706,672.6265 L281.56206,672.3735 C281.53806,672.4325 281.35106,672.5815 281.48706,672.6265" id="Fill-141" fill="#BA1B2A"/>
                    <path d="M96.815,87.463911 C96.579,87.632911 96.258,88.040911 96.185,87.599911 C96.443,87.395911 96.737,86.896911 96.815,87.463911" id="Fill-143" fill="#011BA6"/>
                    <path d="M104.958117,84 C103.637645,83.7390762 103.81212,83.3008739 104.695252,82 C104.742906,82.670412 105.124905,83.4681648 104.958117,84" id="Fill-145" fill="#011BA6"/>
                    <path d="M768,644.524676 C764.969921,648.487689 760.88188,643.275373 757,642.701446 C760.240263,640.577631 763.835528,643.894389 768,644.524676" id="Fill-147" fill="#011BA6"/>
                    <path d="M774.407759,649 C773.892829,647.943774 770.447907,645.935124 772.832116,645 C776.19299,647.006829 781.690183,648.200546 774.407759,649" id="Fill-149" fill="#011BA6"/>
                </g>
            </g>
        </g>
    </g>
</svg>
