<svg viewBox="2.95 29.5 174.05 206.5" xmlns="http://www.w3.org/2000/svg" xmlns:xlink="http://www.w3.org/1999/xlink" overflow="visible">
    <defs>
        <polygon id="mastercharacterriding-path-1" points="0.140441236 0.0547407407 22.195 0.0547407407 22.195 14.8243288 0.140441236 14.8243288"/>
        <polygon id="mastercharacterriding-path-3" points="0.626723631 0.451655971 4.079 0.451655971 4.079 3.43406473 0.626723631 3.43406473"/>
        <polygon id="mastercharacterriding-path-5" points="0.4051 0.412 11.7473819 0.412 11.7473819 7.1375 0.4051 7.1375"/>
        <polygon id="mastercharacterriding-path-7" points="0 0.9038 31.8940536 0.9038 31.8940536 42.8736336 0 42.8736336"/>
    </defs>
    <g id="Master/Character/Riding" stroke="none" stroke-width="1" fill="none" fill-rule="evenodd">
        <g id="Riding Bike" transform="translate(5.000000, 109.000000) scale(1 1)">
            <g id="Riding Bike/Color 1" stroke="none" stroke-width="1" fill="none" fill-rule="evenodd">
                <g id="Group">
                    <g id="Group-91" transform="translate(71.030100, 12.903700)">
                        <path d="M19.6776,60.9043 L18.6216,70.0243 C18.6216,70.0243 21.5436,71.5503 24.7926,69.8213 L26.8366,62.0973 L19.6776,60.9043 Z" id="Fill-64" fill="#7362a5"/>
                        <path d="M40.2777,80.7666 L16.5977,80.7666 C16.4217,80.4466 16.3247,79.9936 16.2857,79.4516 C16.1377,77.4486 16.7767,74.2516 17.0897,72.2366 C17.1277,71.9996 17.1597,71.7806 17.1847,71.5816 C17.2287,71.2456 17.2557,70.9646 17.2557,70.7586 C17.2557,69.1136 18.7117,69.3956 18.7117,69.3956 C21.1077,71.7456 23.8207,68.2216 25.4057,69.3766 C25.4057,69.3766 26.0877,69.8666 27.9677,71.5576 C29.8467,73.2486 33.0457,74.3656 35.7677,75.5046 C39.2807,76.9736 40.2777,78.4406 40.4727,79.4516 C40.6257,80.2516 40.2777,80.7666 40.2777,80.7666" id="Fill-66" fill="#432C82"/>
                        <path d="M40.2777,80.7666 L16.5977,80.7666 C16.4217,80.4466 16.3247,79.9936 16.2857,79.4516 L40.4727,79.4516 C40.6257,80.2516 40.2777,80.7666 40.2777,80.7666" id="Fill-68" fill="#FF67FF"/>
                        <path d="M19.013,80.7666 L18.31,80.7666 C19.012,79.9646 19.669,78.7346 19.583,76.9746 C19.469,74.6346 18.064,73.0576 17.089,72.2366 C17.127,71.9996 17.159,71.7806 17.185,71.5816 C18.237,72.3856 20.009,74.1446 20.146,76.9466 C20.228,78.6266 19.677,79.8796 19.013,80.7666" id="Fill-70" fill="#FF67FF"/>
                        <path d="M27.5667,72.9551 C27.3917,72.9551 27.2327,72.8361 27.1887,72.6581 C27.1357,72.4491 27.2637,72.2371 27.4727,72.1851 L28.9517,71.8181 C29.1607,71.7671 29.3727,71.8941 29.4247,72.1031 C29.4767,72.3121 29.3497,72.5241 29.1407,72.5761 L27.6607,72.9431 C27.6287,72.9511 27.5977,72.9551 27.5667,72.9551" id="Fill-72" fill="#FF67FF"/>
                        <path d="M29.0457,73.8145 C28.8707,73.8145 28.7117,73.6965 28.6677,73.5185 C28.6157,73.3095 28.7427,73.0975 28.9517,73.0455 L30.4317,72.6785 C30.6407,72.6265 30.8527,72.7535 30.9037,72.9625 C30.9567,73.1715 30.8287,73.3835 30.6197,73.4355 L29.1407,73.8025 C29.1087,73.8105 29.0767,73.8145 29.0457,73.8145" id="Fill-74" fill="#FF67FF"/>
                        <path d="M30.5252,74.6416 C30.3502,74.6416 30.1912,74.5226 30.1472,74.3446 C30.0942,74.1356 30.2222,73.9236 30.4312,73.8716 L31.9112,73.5046 C32.1202,73.4536 32.3312,73.5806 32.3832,73.7896 C32.4352,73.9986 32.3082,74.2106 32.0992,74.2626 L30.6192,74.6296 C30.5872,74.6376 30.5562,74.6416 30.5252,74.6416" id="Fill-76" fill="#FF67FF"/>
                        <path d="M32.138,75.4062 C31.963,75.4062 31.804,75.2872 31.76,75.1092 C31.708,74.9002 31.835,74.6882 32.044,74.6362 L33.524,74.2692 C33.733,74.2182 33.945,74.3442 33.996,74.5542 C34.048,74.7632 33.921,74.9752 33.712,75.0272 L32.232,75.3942 C32.201,75.4022 32.169,75.4062 32.138,75.4062" id="Fill-78" fill="#FF67FF"/>
                        <path d="M33.8875,76.0576 C33.7125,76.0576 33.5535,75.9396 33.5085,75.7616 C33.4565,75.5526 33.5845,75.3406 33.7935,75.2886 L35.2725,74.9216 C35.4825,74.8696 35.6935,74.9966 35.7455,75.2056 C35.7975,75.4146 35.6705,75.6266 35.4605,75.6786 L33.9815,76.0456 C33.9495,76.0536 33.9185,76.0576 33.8875,76.0576" id="Fill-80" fill="#FF67FF"/>
                        <path d="M2.036,4.26325641e-14 C2.036,4.26325641e-14 37.423,20.336 38.586,24.386 C40.512,34.697 26.837,65.775 26.837,65.775 L18.716,64.349 C20.583,54.688 22.281,34.744 24.243,31.585 C17.28,29.185 7.077,24.418 -5.32907052e-14,19.972 L2.036,4.26325641e-14 Z" id="Fill-82" fill="#201B54"/>
                    </g>
                    <path d="M109.8888,95.4584 L93.6298,95.4584 C93.1198,95.4584 92.7068,95.0454 92.7068,94.5364 C92.7068,94.0264 93.1198,93.6134 93.6298,93.6134 L109.8888,93.6134 C110.3978,93.6134 110.8108,94.0264 110.8108,94.5364 C110.8108,95.0454 110.3978,95.4584 109.8888,95.4584" id="Fill-4" fill="#232938"/>
                    <path d="M124.9103,58.0541 L124.3703,56.7821 L124.6403,57.4181 L124.3683,56.7831 C124.3833,56.7761 125.8813,56.1141 127.2263,54.3851 C129.0303,52.0691 129.7273,49.0231 129.2993,45.3321 C128.5333,38.7361 121.4503,36.8161 121.3783,36.7971 L121.7273,35.4591 C121.8093,35.4811 123.7703,36.0021 125.8513,37.4441 C128.6423,39.3761 130.3093,42.0491 130.6723,45.1721 C131.2653,50.2801 129.6913,53.4991 128.2653,55.3011 C126.7013,57.2791 124.9833,58.0241 124.9103,58.0541" id="Fill-6" fill="#232938"/>
                    <path d="M84.8087,96.9242 C83.8507,96.9242 82.9227,96.4122 82.4347,95.5102 C66.5677,66.1532 52.4917,35.0692 52.3507,34.7592 C51.7377,33.4022 52.3407,31.8052 53.6977,31.1922 C55.0547,30.5792 56.6507,31.1822 57.2647,32.5382 C57.4037,32.8472 71.4047,63.7632 87.1777,92.9462 C87.8857,94.2562 87.3977,95.8922 86.0877,96.6002 C85.6807,96.8202 85.2417,96.9242 84.8087,96.9242" id="Fill-8" fill="#2C2263"/>
                    <path d="M102.0656,102.9613 L89.2556,102.9613 C88.8606,102.9613 88.5406,102.6413 88.5406,102.2453 L88.5406,101.5623 C88.5406,101.1673 88.8606,100.8473 89.2556,100.8473 L102.0656,100.8473 C102.4606,100.8473 102.7816,101.1673 102.7816,101.5623 L102.7816,102.2453 C102.7816,102.6413 102.4606,102.9613 102.0656,102.9613" id="Fill-10" fill="#232938"/>
                    <path d="M68.5109,94.4398 L40.2559,94.4398 L66.6419,84.3338 C66.7909,84.2768 66.8659,84.1088 66.8089,83.9588 C66.7519,83.8088 66.5829,83.7338 66.4339,83.7918 L39.8559,93.9718 L59.9809,73.8468 C60.0939,73.7328 60.0939,73.5488 59.9809,73.4358 C59.8669,73.3228 59.6839,73.3228 59.5709,73.4358 L39.3659,93.6408 L50.2209,67.0318 C50.2819,66.8828 50.2109,66.7138 50.0619,66.6538 C49.9139,66.5928 49.7439,66.6648 49.6839,66.8128 L38.9769,93.0578 L38.9769,64.9058 C38.9769,64.7458 38.8469,64.6158 38.6859,64.6158 C38.5259,64.6158 38.3959,64.7458 38.3959,64.9058 L38.3959,93.1618 L28.2889,66.7758 C28.2319,66.6258 28.0639,66.5508 27.9149,66.6078 C27.7649,66.6658 27.6899,66.8338 27.7469,66.9828 L37.9279,93.5618 L17.8029,73.4358 C17.6889,73.3228 17.5059,73.3228 17.3919,73.4358 C17.2789,73.5488 17.2789,73.7328 17.3919,73.8468 L37.1369,93.5908 L11.1809,83.0018 C11.0329,82.9418 10.8639,83.0128 10.8029,83.1618 C10.7419,83.3098 10.8139,83.4798 10.9619,83.5398 L37.6809,94.4398 L8.8619,94.4398 C8.7009,94.4398 8.5719,94.5698 8.5719,94.7308 C8.5719,94.8908 8.7009,95.0208 8.8619,95.0208 L37.1169,95.0208 L10.7309,105.1278 C10.5819,105.1848 10.5069,105.3528 10.5639,105.5028 C10.6079,105.6178 10.7189,105.6888 10.8349,105.6888 C10.8699,105.6888 10.9049,105.6828 10.9389,105.6688 L37.5179,95.4888 L17.3919,115.6148 C17.2789,115.7278 17.2789,115.9118 17.3919,116.0248 C17.4489,116.0818 17.5229,116.1098 17.5969,116.1098 C17.6719,116.1098 17.7459,116.0818 17.8029,116.0248 L37.7409,96.0858 L27.1519,122.0428 C27.0909,122.1908 27.1629,122.3598 27.3109,122.4198 C27.3469,122.4348 27.3839,122.4418 27.4209,122.4418 C27.5349,122.4418 27.6429,122.3748 27.6889,122.2608 L38.3959,96.0168 L38.3959,124.5548 C38.3959,124.7148 38.5259,124.8448 38.6859,124.8448 C38.8469,124.8448 38.9769,124.7148 38.9769,124.5548 L38.9769,96.2988 L49.0839,122.6858 C49.1279,122.8008 49.2379,122.8728 49.3549,122.8728 C49.3889,122.8728 49.4239,122.8658 49.4579,122.8528 C49.6079,122.7948 49.6829,122.6268 49.6259,122.4778 L39.4449,95.8998 L59.5709,116.0248 C59.6269,116.0818 59.7009,116.1098 59.7759,116.1098 C59.8499,116.1098 59.9239,116.0818 59.9809,116.0248 C60.0939,115.9118 60.0939,115.7278 59.9809,115.6148 L39.5819,95.2158 L66.1919,106.0718 C66.2279,106.0858 66.2649,106.0928 66.3019,106.0928 C66.4159,106.0928 66.5239,106.0258 66.5699,105.9128 C66.6309,105.7638 66.5589,105.5948 66.4109,105.5348 L40.6409,95.0208 L68.5109,95.0208 C68.6719,95.0208 68.8019,94.8908 68.8019,94.7308 C68.8019,94.5698 68.6719,94.4398 68.5109,94.4398" id="Fill-12" fill="#B1B096"/>
                    <path d="M44.777,96.2924 C44.777,99.6554 42.05,102.3824 38.687,102.3824 C35.323,102.3824 32.596,99.6554 32.596,96.2924 C32.596,92.9284 35.323,90.2014 38.687,90.2014 C42.05,90.2014 44.777,92.9284 44.777,96.2924" id="Fill-14" fill="#232938"/>
                    <path d="M38.6862,99.5043 C36.9152,99.5043 35.4742,98.0643 35.4742,96.2923 C35.4742,94.5213 36.9152,93.0793 38.6862,93.0793 C40.4572,93.0793 41.8992,94.5213 41.8992,96.2923 C41.8992,98.0643 40.4572,99.5043 38.6862,99.5043" id="Fill-16" fill="#232938"/>
                    <path d="M38.6867,65.1312 C22.6427,65.1312 9.5897,78.1842 9.5897,94.2282 C9.5897,110.2732 22.6427,123.3252 38.6867,123.3252 C54.7307,123.3252 67.7837,110.2732 67.7837,94.2282 C67.7837,78.1842 54.7307,65.1312 38.6867,65.1312 M38.6867,126.3662 C30.1017,126.3662 22.0317,123.0242 15.9607,116.9532 C9.8907,110.8832 6.5477,102.8132 6.5477,94.2282 C6.5477,85.6442 9.8907,77.5732 15.9607,71.5032 C22.0317,65.4332 30.1017,62.0902 38.6867,62.0902 C47.2707,62.0902 55.3417,65.4332 61.4117,71.5032 C67.4817,77.5732 70.8247,85.6442 70.8247,94.2282 C70.8247,102.8132 67.4817,110.8832 61.4117,116.9532 C55.3417,123.0242 47.2707,126.3662 38.6867,126.3662" id="Fill-18" fill="#221B59"/>
                    <path d="M73.193,97.1312 C71.589,97.1312 70.29,95.8312 70.29,94.2282 C70.29,76.6752 56.009,62.3962 38.457,62.3962 C20.904,62.3962 6.624,76.6752 6.624,94.2282 C6.624,95.8312 5.324,97.1312 3.721,97.1312 C2.118,97.1312 0.818,95.8312 0.818,94.2282 C0.818,73.4742 17.703,56.5892 38.457,56.5892 C59.211,56.5892 76.096,73.4742 76.096,94.2282 C76.096,95.8312 74.797,97.1312 73.193,97.1312" id="Fill-20" fill="#FF67FF"/>
                    <path d="M163.5036,92.0316 L135.3406,94.3146 L160.8236,82.1086 C160.9686,82.0396 161.0296,81.8666 160.9606,81.7216 C160.8906,81.5766 160.7166,81.5156 160.5726,81.5856 L134.9036,93.8806 L153.3366,72.1946 C153.4406,72.0726 153.4266,71.8886 153.3046,71.7856 C153.1816,71.6806 152.9986,71.6966 152.8956,71.8186 L134.3886,93.5896 L143.0596,66.1906 C143.1076,66.0376 143.0226,65.8746 142.8696,65.8266 C142.7166,65.7776 142.5546,65.8626 142.5056,66.0146 L133.9546,93.0396 L131.6796,64.9796 C131.6666,64.8196 131.5266,64.7016 131.3666,64.7146 C131.2066,64.7266 131.0876,64.8666 131.1006,65.0266 L133.3836,93.1896 L121.1776,67.7066 C121.1086,67.5616 120.9346,67.5016 120.7916,67.5706 C120.6466,67.6396 120.5856,67.8126 120.6546,67.9576 L132.9496,93.6266 L111.2636,75.1926 C111.1416,75.0896 110.9586,75.1036 110.8546,75.2256 C110.7506,75.3486 110.7656,75.5316 110.8876,75.6356 L132.1636,93.7196 L105.4376,85.2626 C105.2846,85.2146 105.1216,85.2996 105.0726,85.4526 C105.0246,85.6046 105.1096,85.7676 105.2616,85.8166 L132.7746,94.5226 L104.0496,96.8506 C103.8896,96.8636 103.7706,97.0046 103.7836,97.1636 C103.7966,97.3236 103.9366,97.4426 104.0966,97.4296 L132.2596,95.1466 L106.7756,107.3516 C106.6316,107.4216 106.5706,107.5946 106.6396,107.7396 C106.6926,107.8506 106.8086,107.9126 106.9246,107.9036 C106.9596,107.9006 106.9936,107.8916 107.0266,107.8756 L132.6956,95.5816 L114.2626,117.2666 C114.1586,117.3886 114.1736,117.5716 114.2956,117.6766 C114.3566,117.7276 114.4336,117.7506 114.5066,117.7436 C114.5816,117.7376 114.6526,117.7036 114.7046,117.6426 L132.9666,96.1586 L124.5096,122.8856 C124.4616,123.0376 124.5456,123.2006 124.6986,123.2496 C124.7356,123.2606 124.7736,123.2646 124.8106,123.2616 C124.9236,123.2526 125.0266,123.1766 125.0636,123.0596 L133.6146,96.0366 L135.9206,124.4806 C135.9336,124.6406 136.0736,124.7606 136.2326,124.7466 C136.3936,124.7336 136.5116,124.5946 136.4996,124.4336 L134.2156,96.2706 L146.4216,121.7546 C146.4756,121.8656 146.5906,121.9276 146.7066,121.9186 C146.7416,121.9156 146.7756,121.9066 146.8086,121.8906 C146.9536,121.8216 147.0146,121.6476 146.9446,121.5036 L134.6496,95.8346 L156.3366,114.2676 C156.3976,114.3196 156.4736,114.3426 156.5476,114.3366 C156.6216,114.3306 156.6926,114.2966 156.7456,114.2346 C156.8496,114.1126 156.8346,113.9286 156.7116,113.8256 L134.7326,95.1416 L162.1316,103.8116 C162.1686,103.8236 162.2066,103.8276 162.2426,103.8246 C162.3566,103.8156 162.4596,103.7396 162.4956,103.6236 C162.5446,103.4696 162.4596,103.3066 162.3066,103.2596 L135.7716,94.8616 L163.5506,92.6096 C163.7106,92.5966 163.8296,92.4576 163.8156,92.2976 C163.8036,92.1366 163.6636,92.0186 163.5036,92.0316" id="Fill-22" fill="#B1B096"/>
                    <path d="M139.8903,96.2924 C139.8903,99.6554 137.1633,102.3824 133.8003,102.3824 C130.4363,102.3824 127.7093,99.6554 127.7093,96.2924 C127.7093,92.9284 130.4363,90.2014 133.8003,90.2014 C137.1633,90.2014 139.8903,92.9284 139.8903,96.2924" id="Fill-24" fill="#232938"/>
                    <path d="M133.7999,99.5043 C132.0289,99.5043 130.5879,98.0643 130.5879,96.2923 C130.5879,94.5213 132.0289,93.0793 133.7999,93.0793 C135.5709,93.0793 137.0119,94.5213 137.0119,96.2923 C137.0119,98.0643 135.5709,99.5043 133.7999,99.5043" id="Fill-26" fill="#232938"/>
                    <path d="M133.7999,65.1312 C117.7559,65.1312 104.7029,78.1842 104.7029,94.2282 C104.7029,110.2732 117.7559,123.3252 133.7999,123.3252 C149.8439,123.3252 162.8969,110.2732 162.8969,94.2282 C162.8969,78.1842 149.8439,65.1312 133.7999,65.1312 M133.7999,126.3662 C125.2159,126.3662 117.1449,123.0242 111.0739,116.9532 C105.0049,110.8832 101.6609,102.8132 101.6609,94.2282 C101.6609,85.6442 105.0049,77.5732 111.0739,71.5032 C117.1449,65.4332 125.2159,62.0902 133.7999,62.0902 C142.3839,62.0902 150.4549,65.4332 156.5249,71.5032 C162.5949,77.5732 165.9389,85.6442 165.9389,94.2282 C165.9389,102.8132 162.5949,110.8832 156.5249,116.9532 C150.4549,123.0242 142.3839,126.3662 133.7999,126.3662" id="Fill-28" fill="#221B59"/>
                    <path d="M168.3595,97.1312 C166.7555,97.1312 165.4565,95.8312 165.4565,94.2282 C165.4565,76.6752 151.1755,62.3962 133.6235,62.3962 C116.0705,62.3962 101.7905,76.6752 101.7905,94.2282 C101.7905,95.8312 100.4905,97.1312 98.8875,97.1312 C97.2835,97.1312 95.9845,95.8312 95.9845,94.2282 C95.9845,73.4742 112.8695,56.5892 133.6235,56.5892 C154.3775,56.5892 171.2625,73.4742 171.2625,94.2282 C171.2625,95.8312 169.9625,97.1312 168.3595,97.1312" id="Fill-30" fill="#FF67FF"/>
                    <path d="M63.8756,98.0219 L37.7406,98.0219 C36.8866,98.0219 36.1336,97.4619 35.8876,96.6439 C35.6416,95.8269 35.9606,94.9439 36.6726,94.4719 L119.7506,39.5009 C120.6426,38.9109 121.8436,39.1549 122.4336,40.0459 C123.0226,40.9379 122.7786,42.1379 121.8876,42.7279 L44.1736,94.1509 L63.2746,94.1509 L122.4996,53.4919 C123.3806,52.8869 124.5846,53.1109 125.1896,53.9919 C125.7946,54.8739 125.5706,56.0779 124.6896,56.6829 L64.9706,97.6819 C64.6486,97.9039 64.2666,98.0219 63.8756,98.0219" id="Fill-32" fill="#2C2263"/>
                    <path d="M63.3092,100.3724 L38.3962,100.3724 C36.0292,100.3724 34.1102,98.4534 34.1102,96.0864 C34.1102,93.7194 36.0292,91.8014 38.3962,91.8014 L63.3092,91.8014 C65.6762,91.8014 67.5952,93.7194 67.5952,96.0864 C67.5952,98.4534 65.6762,100.3724 63.3092,100.3724" id="Fill-34" fill="#FED21C"/>
                    <path d="M61.8878,97.933 L39.8178,97.933 C38.7948,97.933 37.9658,97.104 37.9658,96.08 C37.9658,95.058 38.7948,94.228 39.8178,94.228 L61.8878,94.228 C62.9108,94.228 63.7408,95.058 63.7408,96.08 C63.7408,97.104 62.9108,97.933 61.8878,97.933" id="Fill-36" fill="#232938"/>
                    <path d="M39.4674,90.015 C35.9784,90.015 33.1404,92.853 33.1404,96.342 C33.1404,99.83 35.9784,102.669 39.4674,102.669 L85.6704,102.669 C89.1584,102.669 91.9974,99.83 91.9974,96.342 C91.9974,92.853 89.1584,90.015 85.6704,90.015 L39.4674,90.015 Z M85.6704,104.219 L39.4674,104.219 C35.1244,104.219 31.5914,100.685 31.5914,96.342 C31.5914,91.998 35.1244,88.465 39.4674,88.465 L85.6704,88.465 C90.0134,88.465 93.5474,91.998 93.5474,96.342 C93.5474,100.685 90.0134,104.219 85.6704,104.219 L85.6704,104.219 Z" id="Fill-38" fill="#232938"/>
                    <path d="M92.527,96.2924 C92.527,100.3694 89.222,103.6754 85.144,103.6754 C81.067,103.6754 77.761,100.3694 77.761,96.2924 C77.761,92.2144 81.067,88.9094 85.144,88.9094 C89.222,88.9094 92.527,92.2144 92.527,96.2924" id="Fill-40" fill="#232938"/>
                    <path d="M85.5133,101.9037 C82.4193,101.9037 79.9013,99.3857 79.9013,96.2927 C79.9013,93.1977 82.4193,90.6797 85.5133,90.6797 C88.6073,90.6797 91.1253,93.1977 91.1253,96.2927 C91.1253,99.3857 88.6073,101.9037 85.5133,101.9037" id="Fill-42" fill="#FED21C"/>
                    <path d="M85.5133,99.6898 C83.6393,99.6898 82.1153,98.1658 82.1153,96.2928 C82.1153,94.4188 83.6393,92.8938 85.5133,92.8938 C87.3873,92.8938 88.9113,94.4188 88.9113,96.2928 C88.9113,98.1658 87.3873,99.6898 85.5133,99.6898" id="Fill-44" fill="#232938"/>
                    <path d="M49.3507,24.6849 C45.8997,24.2119 42.4407,25.8699 40.8507,28.9679 C39.9347,30.7519 39.7547,32.8489 41.6987,34.8789 C46.5577,39.9539 58.7597,34.9539 65.9547,36.8219 C73.1497,38.6899 73.6177,31.7699 63.0587,28.0739 C57.2847,26.0519 52.5007,25.1179 49.3507,24.6849" id="Fill-46" fill="#FF67FF"/>
                    <polygon id="Fill-48" fill="#B1B096" points="85.3439 100.7221 79.6119 114.9611 81.7509 114.9611 87.2229 100.7221"/>
                    <path d="M88.7721,116.806 L75.1861,116.806 C74.6771,116.806 74.2641,116.393 74.2641,115.883 C74.2641,115.373 74.6771,114.961 75.1861,114.961 L88.7721,114.961 C89.2811,114.961 89.6941,115.373 89.6941,115.883 C89.6941,116.393 89.2811,116.806 88.7721,116.806" id="Fill-50" fill="#232938"/>
                    <path d="M134.3908,98.768 C134.1918,98.816 133.9938,98.838 133.7968,98.838 C132.6458,98.838 131.6008,98.05 131.3228,96.882 L118.1018,41.361 C117.7868,40.04 118.5668,38.709 119.8538,38.333 L115.2438,20.614 L117.9158,20.147 L122.9368,39.815 L123.1548,40.602 L136.2768,95.702 C136.6008,97.071 135.7578,98.443 134.3908,98.768" id="Fill-52" fill="#2C2263"/>
                    <path d="M126.9225,86.2963 L121.1705,62.0573 C120.6245,59.7543 122.0475,57.4433 124.3505,56.8983 C126.6535,56.3513 128.9635,57.7753 129.5095,60.0773 L135.2625,84.3173 C135.8085,86.6203 134.3845,88.9313 132.0815,89.4773 C129.7785,90.0243 127.4685,88.6003 126.9225,86.2963" id="Fill-54" fill="#432C82"/>
                    <path d="M126.1754,40.7338 C124.9134,39.8168 123.6544,39.3518 122.7784,39.1198 C122.8724,39.6438 123.0074,40.1598 123.1274,40.6778 C123.8014,40.9198 124.6124,41.2968 125.4154,41.8898 C127.9894,43.7908 129.2944,46.8978 129.2944,51.1278 C129.2944,54.4748 128.4474,57.3328 126.7784,59.6208 C126.7184,59.7018 126.6594,59.7788 126.5994,59.8548 C126.5854,60.4308 126.6484,60.9608 127.4634,61.0088 C129.0044,59.1348 130.6764,55.9838 130.6764,51.1278 C130.6764,45.2398 128.2294,42.2248 126.1754,40.7338" id="Fill-56" fill="#232938"/>
                    <path d="M134.7052,21.3304 L105.4512,21.3304 C104.5732,21.3304 103.8612,20.6184 103.8612,19.7404 C103.8612,18.8624 104.5732,18.1504 105.4512,18.1504 L134.7052,18.1504 C135.5832,18.1504 136.2952,18.8624 136.2952,19.7404 C136.2952,20.6184 135.5832,21.3304 134.7052,21.3304" id="Fill-58" fill="#432C82"/>
                    <path d="M107.4015,22.7123 L96.1105,22.7123 C94.4695,22.7123 93.1385,21.3823 93.1385,19.7403 C93.1385,18.0993 94.4695,16.7683 96.1105,16.7683 L107.4015,16.7683 C109.0435,16.7683 110.3735,18.0993 110.3735,19.7403 C110.3735,21.3823 109.0435,22.7123 107.4015,22.7123" id="Fill-60" fill="#232938"/>
                    <path d="M137.8903,22.7123 L137.8743,22.7123 L126.6773,22.6533 C125.0353,22.6453 123.7113,21.3073 123.720254,19.6663 C123.7283,18.0293 125.0573,16.7093 126.6923,16.7093 L126.7073,16.7093 L137.9063,16.7683 C139.5473,16.7763 140.8703,18.1143 140.862336,19.7563 C140.8533,21.3923 139.5243,22.7123 137.8903,22.7123" id="Fill-62" fill="#232938"/>
                    <path d="M98.2072,76.7933 C98.1862,76.7933 98.1652,76.7913 98.1442,76.7873 L90.5022,75.3803 C90.3142,75.3463 90.1902,75.1653 90.2252,74.9783 C90.2602,74.7903 90.4402,74.6653 90.6272,74.7003 L98.2692,76.1063 C98.4572,76.1423 98.5812,76.3213 98.5462,76.5103 C98.5162,76.6763 98.3712,76.7933 98.2072,76.7933" id="Fill-84" fill="#00337D"/>
                    <path d="M70.8288,4.7367 L49.5808,0.6067 C49.5808,0.6067 37.8438,23.6947 48.4258,32.5947 C54.8618,38.0077 74.5648,35.0417 79.7428,31.0087" id="Fill-86" fill="#403289"/>
                    <path d="M72.2643,95.1557 L71.2083,104.2757 C71.2083,104.2757 74.1303,105.8007 77.3793,104.0717 L79.4233,96.3477 L72.2643,95.1557 Z" id="Fill-88" fill="#7362a5"/>
                    <path d="M92.8644,115.017 L69.1834,115.017 C69.0074,114.698 68.9114,114.244 68.8724,113.703 C68.7244,111.699 69.3634,108.502 69.6764,106.487 C69.7144,106.251 69.7464,106.032 69.7714,105.832 C69.8154,105.496 69.8424,105.215 69.8424,105.009 C69.8424,103.365 71.2984,103.646 71.2984,103.646 C73.6944,105.996 76.4074,102.472 77.9924,103.628 C77.9924,103.628 78.6744,104.118 80.5544,105.809 C82.4334,107.5 85.6324,108.617 88.3534,109.755 C91.8674,111.224 92.8644,112.692 93.0594,113.703 C93.2124,114.502 92.8644,115.017 92.8644,115.017" id="Fill-90" fill="#432C82"/>
                    <path d="M92.8644,115.017 L69.1834,115.017 C69.0074,114.698 68.9114,114.244 68.8724,113.703 L93.0594,113.703 C93.2124,114.502 92.8644,115.017 92.8644,115.017" id="Fill-92" fill="#FF67FF"/>
                    <path d="M71.5998,115.017 L70.8968,115.017 C71.5988,114.215 72.2548,112.985 72.1688,111.226 C72.0558,108.886 70.6508,107.308 69.6758,106.487 C69.7138,106.251 69.7458,106.032 69.7718,105.832 C70.8238,106.636 72.5948,108.395 72.7328,111.198 C72.8148,112.877 72.2638,114.13 71.5998,115.017" id="Fill-94" fill="#FF67FF"/>
                    <path d="M80.1823,107.2348 C80.0073,107.2348 79.8483,107.1158 79.8043,106.9388 C79.7523,106.7298 79.8793,106.5178 80.0893,106.4658 L81.5683,106.0988 C81.7773,106.0468 81.9893,106.1738 82.0403,106.3828 C82.0933,106.5918 81.9653,106.8038 81.7563,106.8558 L80.2773,107.2228 C80.2453,107.2308 80.2133,107.2348 80.1823,107.2348" id="Fill-96" fill="#FF67FF"/>
                    <path d="M81.6618,108.0951 C81.4868,108.0951 81.3278,107.9761 81.2838,107.7981 C81.2308,107.5891 81.3588,107.3771 81.5678,107.3251 L83.0478,106.9581 C83.2568,106.9061 83.4688,107.0331 83.5198,107.2431 C83.5718,107.4521 83.4448,107.6631 83.2358,107.7161 L81.7558,108.0831 C81.7248,108.0911 81.6928,108.0951 81.6618,108.0951" id="Fill-98" fill="#FF67FF"/>
                    <path d="M83.1408,108.9213 C82.9658,108.9213 82.8068,108.8023 82.7628,108.6253 C82.7108,108.4153 82.8378,108.2043 83.0478,108.1513 L84.5268,107.7843 C84.7358,107.7333 84.9478,107.8603 84.9988,108.0693 C85.0518,108.2783 84.9238,108.4903 84.7148,108.5423 L83.2358,108.9093 C83.2038,108.9173 83.1718,108.9213 83.1408,108.9213" id="Fill-100" fill="#FF67FF"/>
                    <path d="M84.7248,109.6566 C84.5498,109.6566 84.3908,109.5376 84.3468,109.3606 C84.2948,109.1506 84.4218,108.9386 84.6308,108.8876 L86.1108,108.5196 C86.3198,108.4686 86.5318,108.5956 86.5828,108.8046 C86.6348,109.0136 86.5078,109.2256 86.2978,109.2776 L84.8188,109.6446 C84.7868,109.6526 84.7558,109.6566 84.7248,109.6566" id="Fill-102" fill="#FF67FF"/>
                    <path d="M86.4738,110.309 C86.2988,110.309 86.1398,110.19 86.0958,110.012 C86.0438,109.803 86.1708,109.591 86.3798,109.539 L87.8598,109.172 C88.0688,109.12 88.2808,109.247 88.3318,109.457 C88.3848,109.665 88.2568,109.877 88.0478,109.929 L86.5678,110.297 C86.5368,110.305 86.5048,110.309 86.4738,110.309" id="Fill-104" fill="#FF67FF"/>
                    <path d="M45.1544,27.6478 C45.1544,27.6478 45.1544,35.6868 77.6574,54.8908 C77.6574,54.8908 75.2304,55.1848 73.7354,66.2618 C72.6854,74.0348 70.7544,98.4508 70.7544,98.4508 L79.6864,99.5608 C79.6864,99.5608 89.3594,69.1108 92.1744,54.4688 C92.7824,51.3058 92.2634,48.1898 90.5594,45.4568 C86.5764,39.0668 79.8704,29.4348 71.0304,23.3488 C58.3814,14.6398 45.1544,27.6478 45.1544,27.6478" id="Fill-106" fill="#403289"/>
                    <path d="M79.7638,97.8275 C79.7458,97.8275 79.7278,97.8265 79.7098,97.8235 L71.1548,96.4845 C70.9668,96.4545 70.8378,96.2775 70.8668,96.0895 C70.8968,95.9005 71.0748,95.7715 71.2618,95.8015 L79.8168,97.1405 C80.0048,97.1705 80.1348,97.3475 80.1048,97.5355 C80.0778,97.7065 79.9308,97.8275 79.7638,97.8275" id="Fill-108" fill="#00337D"/>
                </g>
                <polygon id="Rectangle" fill="#FF67FF" points="119 27 154 27 149 46 124 46"/>
                <rect id="Rectangle" fill="#FED21C" x="124" y="46" width="25" height="3"/>
            </g>
        </g>
        <g id="Head" transform="translate(26.000000, 4.000000) scale(1 1)">
            <defs>
                <polygon id="headshort-wavy-and-beanie-path-1" points="0.140441236 0.0547407407 22.195 0.0547407407 22.195 14.8243288 0.140441236 14.8243288"/>
            </defs>
            <g id="Head/Short Wavy and Beanie" stroke="none" stroke-width="1" fill="none" fill-rule="evenodd">
                <g id="Group-30" transform="translate(28.000000, 25.550000)">
                    <path d="M15.8893,28.3114 L15.6873,35.9804 C15.6213,38.6734 13.9273,40.0734 11.2773,39.9884 C9.0143,39.9154 6.9273,38.6784 6.7193,36.4244 L7.6173,24.3714 L15.8893,28.3114 Z" id="Fill-3" fill="#7362a5"/>
                    <path d="M15.7643,32.0516029 C10.3973,32.0566 6.9903,25.6766 6.9903,25.6766 L15.9253,27.5266 L15.7643,32.0516029 Z" id="Fill-6" fill-opacity=".18" fill="#00023C"/>
                    <path d="M13.5489,28.5415415 L13.5489,28.5415415 C18.0269,28.5555 21.7249,25.0285 21.8589,21.3725 L22.1229,12.7425 C22.2909,8.1595 19.3679,4.2695 14.7929,3.9505 C10.1089,3.6255 4.6519,7.1015 4.3259,11.7845 L4.1889,18.7275 C4.0839,24.0975 8.1909,28.1695 13.5489,28.5415415" id="Fill-6" fill="#7362a5"/>
                    <g id="Group-10" transform="translate(0.000000, 14.080700)" fill="#7362a5">
                        <path d="M0.0084,3.8104 C-0.1246,5.7304 1.3234,7.3954 3.2434,7.5294 C5.1634,7.6624 6.8284,6.2134 6.9624,4.2934 C7.0954,2.3734 5.6474,0.7084 3.7274,0.5754 C1.8074,0.4424 0.1424,1.8904 0.0084,3.8104" id="Fill-8"/>
                    </g>
                    <path d="M4.628,19.2515 C4.628,19.2515 4.804,16.7305 2.366,16.9595" id="Fill-11" fill-opacity=".18" fill="#00023C"/>
                    <g id="Group-15" transform="translate(2.000000, 3.080700)">
                        <mask id="headshort-wavy-and-beanie-mask-2" fill="#fff">
                            <use xlink:href="#headshort-wavy-and-beanie-path-1"/>
                        </mask>
                        <g id="Clip-14"/>
                        <path d="M4.713,14.328 C4.429,14.013 4.192,13.617 3.913,13.354 C2.994,12.493 1.965,12.904 1.076,12.174 C0.356,11.583 -0.023,10.275 0.208,9.373 C0.439,8.471 1.182,7.864 1.305,6.94 C1.38,6.385 1.044,5.581 1.114,5.023 C1.319,3.41 2.545,2.064 3.993,1.323 C5.441,0.582 7.092,0.355 8.713,0.221 C10.331,0.087 11.956,0.034 13.58,0.062 C14.792,0.084 16.193,0.255 16.844,1.277 C17.05,1.603 17.162,1.994 17.433,2.267 C17.896,2.735 17.682,2.918 18.339,2.929 C21.273,2.975 21.446,4.576 21.935,5.556 C22.295,6.277 22.261,7.302 21.961,8.036 C21.782,8.475 21.538,8.674 21.174,8.942 C20.828,9.198 20.565,9.634 20.088,9.636 C19.261,9.639 18.885,9.203 18.376,8.674 C17.984,8.266 17.482,8.195 16.934,8.2 C16.467,8.204 15.947,8.157 15.632,7.812 C15.236,7.379 14.727,7.229 14.143,7.41 C13.767,7.526 13.421,7.728 13.038,7.819 C12.277,8 11.461,7.707 10.861,7.205 C10.517,6.917 10.223,6.558 9.821,6.357 C9.439,6.167 8.978,6.14 8.577,6.287 C8.464,6.329 8.351,6.388 8.29,6.491 C8.188,6.665 8.335,7.016 8.275,7.239 C8.204,7.508 8.047,7.757 7.848,7.949 C7.442,8.342 6.901,8.565 6.457,8.916 C6.343,9.006 6.231,9.112 6.194,9.252 C6.102,9.613 6.527,9.864 6.762,10.153 C7.117,10.593 7.036,11.254 6.765,11.75 C6.445,12.336 5.885,12.786 5.244,12.972 C5.305,13.293 5.598,13.504 5.833,13.731 C6.067,13.958 6.265,14.318 6.094,14.597 C5.956,14.819 5.641,14.863 5.388,14.795 C5.122,14.723 4.907,14.545 4.713,14.328" id="Fill-13" fill="#2C2263" mask="url(#headshort-wavy-and-beanie-mask-2)"/>
                    </g>
                    <path d="M3.2017,20.2124 C3.2057,20.4894 3.4337,20.7114 3.7117,20.7064 C3.9897,20.7024 4.2107,20.4744 4.2067,20.1964 C4.2027,19.9194 3.9737,19.6974 3.6967,19.7014 C3.4187,19.7064 3.1977,19.9354 3.2017,20.2124" id="Fill-16" fill="#EFF2F9"/>
                    <path d="M2.1007,8.1548 C2.1007,8.1548 10.8867,4.5258 17.1657,4.2178 C17.3297,4.2108 17.4927,4.2038 17.6527,4.2018 C18.3087,4.1868 18.9277,4.2168 19.4957,4.2958 C19.4957,4.2958 18.2477,1.1008 13.9367,0.2218 C13.4457,0.1218 12.9147,0.0518 12.3417,0.0188 C11.5867,-0.0222 10.7587,0.0018 9.8497,0.1118 C9.8197,0.1148 9.7897,0.1178 9.7597,0.1218 C9.5227,0.1518 9.2917,0.1868 9.0687,0.2278 C8.3797,0.3498 7.7547,0.5198 7.1887,0.7268 C7.0407,0.7808 6.8967,0.8388 6.7567,0.8968 C5.7097,1.3388 4.8807,1.9108 4.2257,2.5438 C4.0107,2.7508 3.8137,2.9638 3.6357,3.1798 C1.7037,5.5208 2.1007,8.1548 2.1007,8.1548" id="Fill-18" fill="#503890"/>
                    <path d="M12.3419,0.019 C13.7739,0.511 15.9349,1.652 17.1659,4.218 C17.2339,4.36 17.2999,4.506 17.3619,4.657 L17.7769,4.486 C17.7369,4.39 17.6959,4.294 17.6529,4.202 C16.7019,2.098 15.1709,0.892 13.9369,0.222 C13.4459,0.122 12.9149,0.052 12.3419,0.019" id="Fill-20" fill="#816AD8"/>
                    <path d="M9.0689,0.228 C11.2769,1.155 12.3769,3.663 12.3899,3.692 L12.8019,3.515 C12.7529,3.399 11.8029,1.239 9.8499,0.112 C9.8199,0.115 9.7899,0.118 9.7599,0.122 C9.5229,0.152 9.2919,0.187 9.0689,0.228" id="Fill-22" fill="#816AD8"/>
                    <path d="M6.7569,0.897 C6.9289,2.01 7.5109,4.307 9.4269,5.459 L9.6579,5.074 C7.8589,3.994 7.3349,1.722 7.1889,0.727 C7.0409,0.781 6.8969,0.838 6.7569,0.897" id="Fill-24" fill="#816AD8"/>
                    <path d="M4.1969,7.3237 L4.5819,7.0917 C3.7379,5.6997 3.9289,3.8357 4.2249,2.5437 C4.0099,2.7507 3.8139,2.9637 3.6349,3.1797 C3.4299,4.4637 3.4249,6.0497 4.1969,7.3237" id="Fill-26" fill="#816AD8"/>
                    <path d="M20.151,5.9888 C20.151,5.9888 11.031,4.3648 2.946,10.9508 C2.946,10.9508 1.6,9.8828 2.099,8.0478 C2.099,8.0478 9.817,0.8988 19.487,3.7758 C19.487,3.7758 20.519,4.5988 20.151,5.9888" id="Fill-28" fill="#816AD8"/>
                </g>
            </g>
        </g>
        <g id="Expression" transform="translate(57.000000, 40.000000) scale(1 1)">
            <defs>
                <polygon id="expressionexcited-path-1" points="0.626723631 0.451655971 4.079 0.451655971 4.079 3.43406473 0.626723631 3.43406473"/>
            </defs>
            <g id="Expression/Excited" stroke="none" stroke-width="1" fill="none" fill-rule="evenodd">
                <g id="Group-38" transform="translate(12.000000, 8.500000) rotate(6.000000) translate(-12.000000, -8.500000) translate(4.500000, 2.500000)">
                    <path d="M7.96304222,6.50871012 C8.05904222,6.64671012 8.15904222,6.77971012 8.25404222,6.91671012 C8.36904222,7.08571012 8.46404222,7.26171012 8.56104222,7.44171012 C8.57004222,7.46071012 8.56704222,7.45271012 8.55104222,7.41671012 C8.55604222,7.42871012 8.56104222,7.44071012 8.56504222,7.45271012 C8.57104222,7.46971012 8.57704222,7.48771012 8.58304222,7.50471012 C8.58904222,7.52671012 8.59404222,7.54871012 8.60004222,7.57071012 C8.61604222,7.63071012 8.58504222,7.56771012 8.59904222,7.55471012 C8.59904222,7.55571012 8.59904222,7.61071012 8.60004222,7.61171012 C8.59104222,7.60171012 8.62004222,7.52871012 8.60204222,7.58471012 C8.58804222,7.62571012 8.64604222,7.51471012 8.60404222,7.57071012 C8.59704222,7.58271012 8.58904222,7.59371012 8.58104222,7.60571012 C8.59904222,7.58371012 8.59704222,7.58571012 8.57504222,7.61171012 C8.55604222,7.63171012 8.53804222,7.65271012 8.51804222,7.67071012 C8.51004222,7.67871012 8.42904222,7.74471012 8.47104222,7.71371012 C8.41804222,7.75271012 8.36204222,7.78671012 8.30404222,7.81771012 C8.27904222,7.83071012 8.25404222,7.84371012 8.22804222,7.85671012 C8.21904222,7.86071012 8.12004222,7.90471012 8.16804222,7.88471012 C8.10604222,7.90971012 8.04404222,7.93271012 7.98204222,7.95471012 C7.83904222,8.00571012 7.72804222,8.15471012 7.77804222,8.31271012 C7.82404222,8.45271012 7.98304222,8.57071012 8.13604222,8.51571012 C8.43604222,8.40871012 8.74704222,8.28071012 8.96704222,8.04271012 C9.08004222,7.92271012 9.16804222,7.79171012 9.18004222,7.62471012 C9.18804222,7.52471012 9.16704222,7.41871012 9.13504222,7.32371012 C8.99504222,6.91071012 8.71204222,6.56771012 8.46504222,6.21571012 C8.37504222,6.08671012 8.21104222,6.02771012 8.06704222,6.11171012 C7.94004222,6.18571012 7.87204222,6.37971012 7.96304222,6.50871012" id="Fill-1" fill-opacity=".18" fill="#00023C"/>
                    <path d="M5.3437,1.6514 C6.2347,1.2264 5.7807,-0.1466 4.8067,0.0124 C3.9577,0.1524 2.9277,0.4864 2.5127,1.2824 C1.7537,2.7404 4.3537,2.0944 5.3157,1.6644 C5.3247,1.6604 5.3347,1.6554 5.3437,1.6514" id="Fill-3" fill="#2C2263"/>
                    <path d="M10.2089,1.8331 C9.4439,1.5211 9.7579,0.3511 10.5799,0.4371 C11.2959,0.5131 12.1729,0.7431 12.5589,1.3891 C13.2639,2.5711 11.0579,2.1561 10.2329,1.8431 C10.2249,1.8401 10.2169,1.8371 10.2089,1.8331" id="Fill-5" fill="#2C2263"/>
                    <path d="M3.7079,3.4717 C3.7579,3.4647 3.8089,3.4577 3.8589,3.4517 C4.6979,3.3597 5.5799,3.7107 6.2249,4.2307 C6.3979,4.3687 6.4829,4.5637 6.4499,4.8007 C6.4069,5.1087 6.2359,5.2077 5.9919,5.0067 C5.3349,4.4627 4.5759,4.3597 3.7609,4.3927 C3.3519,4.4087 3.0059,4.5457 2.6929,4.7877 C2.4549,4.9717 2.2349,5.1807 1.9989,5.3667 C1.8309,5.4977 1.6259,5.5727 1.4439,5.4227 C1.2459,5.2607 1.2859,5.0497 1.4039,4.8427 C1.8749,4.0207 2.7969,3.6047 3.7079,3.4717" id="Fill-7" fill="#2C2263"/>
                    <path d="M12.5356,5.0889 C11.8676,4.5539 10.9916,3.9529 10.1206,4.3719 C9.6676,4.5899 9.2986,5.0129 8.8336,5.1899 C8.6536,5.2579 8.4466,5.2969 8.3056,5.1379 C8.1586,4.9719 8.2546,4.8109 8.3626,4.6329 C8.8286,3.8639 9.6276,3.5209 10.4826,3.4049 C11.3736,3.2849 12.2286,3.7169 12.8766,4.3239 C13.1516,4.7789 13.0766,4.9489 12.5356,5.0889" id="Fill-9" fill="#2C2263"/>
                    <path d="M9.331,11.1504 C9.552,11.1124 9.983,10.6704 9.914,10.5284 C9.797,10.2914 9.552,10.2754 9.335,10.3054 C8.915,10.3654 9.205,10.7214 9.096,10.8854 C9.13,11.0454 9.144,11.1814 9.331,11.1504 M8.214,10.3814 C7.664,10.4974 7.927,10.9144 7.927,11.1954 C7.927,11.6164 8.278,11.3964 8.472,11.4014 C8.921,11.4124 8.751,11.0914 8.721,10.7904 C8.727,10.5144 8.628,10.2964 8.214,10.3814 M6.564,9.8894 C6.535,9.8974 6.503,9.9104 6.482,9.9304 C6.283,10.1294 6.441,10.9864 6.697,11.0994 C6.741,11.1184 6.788,11.1294 6.833,11.1434 C7.036,11.2124 7.26,11.4334 7.445,11.2664 C7.623,11.1034 7.483,10.8154 7.501,10.6054 C7.466,10.3954 6.73,9.8474 6.564,9.8894 M6.011,10.1014 C6.031,9.5314 5.406,9.0784 4.856,9.2874 C4.643,9.3684 4.603,9.5384 4.717,9.7544 C4.935,10.1654 5.472,10.5814 6.019,10.7124 C6.016,10.4834 6.005,10.2924 6.011,10.1014 M4.351,10.2474 C4.061,9.9404 3.901,9.5644 4.163,9.1544 C4.409,8.7694 4.806,8.7704 5.195,8.8324 C5.674,8.9074 6.109,9.1084 6.52,9.3644 C7.181,9.7764 7.886,9.9704 8.673,9.8164 C8.968,9.7584 9.276,9.7474 9.579,9.7444 C9.965,9.7404 10.267,9.9054 10.4,10.2864 C10.539,10.6814 10.34,10.9884 10.053,11.2094 C9.644,11.5234 9.184,11.7524 8.651,11.8334 C7.002,11.8964 5.522,11.4834 4.351,10.2474" id="Fill-11" fill="#2C2263"/>
                    <path d="M6.019,10.712 C6.016,10.483 6.005,10.292 6.011,10.102 C6.031,9.531 5.406,9.078 4.856,9.287 C4.643,9.368 4.603,9.538 4.717,9.754 C4.935,10.165 5.472,10.581 6.019,10.712" id="Fill-13" fill="#FDFDFD"/>
                    <path d="M7.5009,10.6055 C7.4659,10.3955 6.7299,9.8475 6.5639,9.8895 C6.5349,9.8975 6.5029,9.9105 6.4819,9.9305 C6.2829,10.1295 6.4409,10.9865 6.6969,11.0995 C6.7409,11.1185 6.7879,11.1285 6.8329,11.1435 C7.0359,11.2115 7.2599,11.4335 7.4449,11.2665 C7.6239,11.1035 7.4829,10.8155 7.5009,10.6055" id="Fill-15" fill="#FDFDFD"/>
                    <path d="M8.7211,10.7901 C8.7271,10.5151 8.6281,10.2961 8.2141,10.3821 C7.6641,10.4971 7.9271,10.9141 7.9271,11.1951 C7.9271,11.6161 8.2781,11.3961 8.4721,11.4011 C8.9211,11.4121 8.7511,11.0921 8.7211,10.7901" id="Fill-17" fill="#FDFDFD"/>
                    <path d="M9.0956,10.8858 C9.1296,11.0448 9.1436,11.1818 9.3306,11.1508 C9.5526,11.1128 9.9826,10.6698 9.9136,10.5288 C9.7966,10.2908 9.5526,10.2758 9.3346,10.3058 C8.9156,10.3648 9.2046,10.7218 9.0956,10.8858" id="Fill-19" fill="#FDFDFD"/>
                    <path d="M3.8451,8.4903 C3.5851,8.8543 3.1751,9.1073 2.7371,9.2123 C2.2321,9.3323 1.6941,9.2673 1.2051,9.0923 C0.8861,8.9763 0.5751,8.8093 0.3521,8.5523 C-0.0329,8.1103 -0.0589,7.2973 0.0701,6.7473 C0.1471,6.4183 0.3371,6.1033 0.6321,5.9373 C1.0641,5.6913 1.5341,5.6733 2.0081,5.7613 C2.4271,5.8383 2.8511,5.9273 3.2251,6.1313 C3.9701,6.5393 4.3671,7.5363 3.9541,8.3143 C3.9221,8.3763 3.8851,8.4343 3.8451,8.4903" id="Fill-21" fill-opacity=".5" fill="#FF37B8"/>
                    <path d="M0.7489,7.8379 C0.6979,7.8379 0.6459,7.8219 0.6019,7.7899 C0.4899,7.7079 0.4659,7.5519 0.5469,7.4409 L1.2049,6.5409 C1.2869,6.4289 1.4429,6.4069 1.5539,6.4859 C1.6649,6.5679 1.6889,6.7249 1.6079,6.8359 L0.9509,7.7349 C0.9019,7.8029 0.8259,7.8379 0.7489,7.8379" id="Fill-23" fill="#FFD0F6"/>
                    <path d="M2.6523,8.5889 L2.6383,8.5889 C2.5003,8.5809 2.3953,8.4629 2.4023,8.3249 L2.4653,7.2129 C2.4723,7.0749 2.5763,6.9719 2.7283,6.9769 C2.8663,6.9849 2.9713,7.1029 2.9643,7.2399 L2.9023,8.3529 C2.8943,8.4859 2.7843,8.5889 2.6523,8.5889" id="Fill-25" fill="#FFD0F6"/>
                    <path d="M1.5287,8.3077 C1.4897,8.3077 1.4507,8.2987 1.4147,8.2807 C1.2917,8.2167 1.2427,8.0667 1.3067,7.9437 L1.8867,6.8137 C1.9497,6.6907 2.1007,6.6427 2.2237,6.7047 C2.3467,6.7687 2.3947,6.9187 2.3317,7.0417 L1.7507,8.1717 C1.7067,8.2577 1.6187,8.3077 1.5287,8.3077" id="Fill-27" fill="#FFD0F6"/>
                    <g id="Group-31" transform="translate(10.000000, 5.839600)">
                        <mask id="expressionexcited-mask-2" fill="#fff">
                            <use xlink:href="#expressionexcited-path-1"/>
                        </mask>
                        <g id="Clip-30"/>
                        <path d="M0.8578,2.7786 C1.0758,3.0836 1.4188,3.2956 1.7858,3.3826 C2.2088,3.4836 2.6598,3.4286 3.0688,3.2816 C3.3368,3.1856 3.5968,3.0456 3.7838,2.8306 C4.1068,2.4606 4.1288,1.7786 4.0208,1.3176 C3.9558,1.0426 3.7958,0.7796 3.5498,0.6386 C3.1878,0.4336 2.7938,0.4186 2.3968,0.4916 C2.0458,0.5556 1.6908,0.6316 1.3778,0.8016 C0.7528,1.1436 0.4198,1.9786 0.7668,2.6316 C0.7938,2.6826 0.8238,2.7316 0.8578,2.7786" id="Fill-29" fill-opacity=".5" fill="#FF37B8" mask="url(#expressionexcited-mask-2)"/>
                    </g>
                    <path d="M13.4516,8.1124 C13.3746,8.1124 13.2986,8.0774 13.2496,8.0094 L12.6996,7.2564 C12.6186,7.1444 12.6426,6.9884 12.7536,6.9064 C12.8656,6.8264 13.0216,6.8484 13.1036,6.9614 L13.6536,7.7154 C13.7346,7.8264 13.7106,7.9824 13.5986,8.0644 C13.5546,8.0964 13.5026,8.1124 13.4516,8.1124" id="Fill-32" fill="#FFD0F6"/>
                    <path d="M11.8568,8.7403 C11.7248,8.7403 11.6148,8.6373 11.6068,8.5043 L11.5558,7.5723 C11.5478,7.4343 11.6528,7.3163 11.7918,7.3083 C11.9318,7.3053 12.0468,7.4073 12.0548,7.5453 L12.1068,8.4763 C12.1138,8.6143 12.0088,8.7323 11.8708,8.7403 L11.8568,8.7403 Z" id="Fill-34" fill="#FFD0F6"/>
                    <path d="M12.7982,8.5059 C12.7082,8.5059 12.6202,8.4559 12.5762,8.3699 L12.0902,7.4239 C12.0262,7.3009 12.0742,7.1509 12.1972,7.0869 C12.3202,7.0269 12.4712,7.0719 12.5342,7.1949 L13.0202,8.1419 C13.0842,8.2649 13.0352,8.4149 12.9122,8.4789 C12.8762,8.4969 12.8372,8.5059 12.7982,8.5059" id="Fill-36" fill="#FFD0F6"/>
                </g>
            </g>
        </g>
        <g id="Upper" transform="translate(0.000000, 5.000000) scale(1 1)">
            <defs>
                <polygon id="upperwith-backpack-path-1" points="0.4051 0.412 11.7473819 0.412 11.7473819 7.1375 0.4051 7.1375"/>
                <polygon id="upperwith-backpack-path-3" points="0 0.9038 31.8940536 0.9038 31.8940536 42.8736336 0 42.8736336"/>
            </defs>
            <g id="Upper/With Backpack" stroke="none" stroke-width="1" fill="none" fill-rule="evenodd">
                <g id="Group-39" transform="translate(26.000000, 49.000000)">
                    <path d="M8.8365,15.8636 C3.3455,31.2166 1.6705,66.2506 21.7025,68.4876 C34.0086337,69.8606136 38.502804,49.1188739 35.1850108,6.26238074 C35.2324666,5.5328973 35.2561945,5.16815559 35.2561945,5.16815559 C35.2561945,5.16815559 14.3285,0.5106 8.8365,15.8636 Z" id="Fill-1" fill="#2C2263"/>
                    <g id="Group-5" transform="translate(18.000000, 0.587900)">
                        <mask id="upperwith-backpack-mask-2" fill="#fff">
                            <use xlink:href="#upperwith-backpack-path-1"/>
                        </mask>
                        <g id="Clip-4"/>
                        <path d="M1.7661,7.1375 L0.4051,6.8695 C0.4181,6.8045 0.7291,5.2575 1.6341,3.6985 C2.8881,1.5385 4.6711,0.4025 6.7881,0.411446936 C8.3691,0.4195 9.6121,0.8965 10.4841,1.8295 C11.8631,3.3055 11.7481,5.3675 11.7431,5.4545 L10.3591,5.3665 C10.3601,5.3545 10.4341,3.7995 9.4631,2.7685 C8.8631,2.1305 7.9601,1.8045 6.7821,1.7985 C2.8781,1.7815 1.7771,7.0845 1.7661,7.1375" id="Fill-3" fill="#2C2263" mask="url(#upperwith-backpack-mask-2)"/>
                    </g>
                    <path d="M74.2905,49.0858 C74.3735,48.1938 74.2995,47.2628 74.0625,46.2498 C74.0265,46.0938 73.9865,45.9358 73.9425,45.7748 C72.6265,41.0128 69.6045,34.7018 64.9585,27.0228 C61.6025,21.4718 58.6315,17.2548 58.5075,17.0778 C56.5885,14.3588 52.8305,13.7108 50.1115,15.6298 C47.3945,17.5478 46.7455,21.3068 48.6635,24.0238 C50.0405,25.9768 52.4865,29.6428 54.9605,33.7728 C53.6485,33.9198 52.3745,34.4978 51.3685,35.5048 C49.0195,37.8608 49.0245,41.6758 51.3805,44.0248 C51.4935,44.1368 54.1805,46.8138 57.1615,49.3918 C59.0425,51.0208 60.6105,52.2408 61.9555,53.1248 C62.9895,53.8058 63.9135,54.2968 64.7765,54.6258 C65.4405,54.8788 66.0675,55.0328 66.6515,55.1118 C67.9735,55.2928 69.0785,55.0918 69.9165,54.7958 C70.3725,54.6368 70.7485,54.4498 71.0385,54.2808 C72.8965,53.1958 74.0825,51.3038 74.2905,49.0858" id="Fill-6" fill="#FED21C"/>
                    <path d="M71.0381,54.2811 C70.7491,54.4501 70.3721,54.6361 69.9171,54.7961 C69.6811,50.9751 72.3341,47.8581 74.0631,46.2501 C74.3001,47.2621 74.3741,48.1941 74.2901,49.0861 C74.0831,51.3031 72.8971,53.1961 71.0381,54.2811" id="Fill-8" fill="#AD5CEE"/>
                    <path d="M30.1498,8.3264 C29.9888,8.4154 29.8168,8.5254 29.7658,8.7014 C29.6998,8.9244 29.8558,9.1474 30.0028,9.3284 C31.5548,11.2454 33.1258,13.1804 35.0718,14.6974 C37.0178,16.2124 39.4008,17.2954 41.8668,17.2424 C44.7038,17.1794 47.3298,15.6244 49.3568,13.6384 C49.6288,13.3714 49.9008,13.0844 50.0268,12.7254 C50.3198,11.8914 49.7368,10.9964 49.0498,10.4404 C48.0008,9.5874 45.2118003,8.3834 44.0408003,7.7254 C43.2278003,7.2684 44.9268,9.91084644 40.8711879,9.3284 C37.8273297,8.89125651 35.1872339,6.2664 35.1872339,6.2664 C33.4389446,6.73906667 31.7598,7.42573333 30.1498,8.3264 Z" id="Fill-10" fill="#7B76DD"/>
                    <path d="M19.5376,28.3407 C19.4786,29.2937 19.4296,30.1927 19.3886,31.0457 C19.3736,31.3347 19.3616,31.6167 19.3476,31.8957 C18.9916,39.7937 20.0946,44.0217 17.8346,51.6947 C11.7996,72.1857 19.4196,75.7467 19.4196,75.7467 C30.0866,81.6637 57.4206,76.4467 57.4206,76.4467 C57.4206,76.4467 60.8946,73.2267 60.2926,62.0747 C59.6356,49.8817 57.8906,43.8397 57.3786,36.4737 C56.8676,29.1077 60.1176,16.8447 55.6316,14.4807 C54.0856,13.6657 52.5986,12.7567 51.0876,11.8797 C49.6576,11.0497 48.6206,11.3707 47.4786,12.6167 C46.9056,13.2427 46.4426,13.9687 45.8226,14.5487 C43.9836,16.2677 40.5506,17.3487 38.2336,16.3637 C35.9176,15.3797 34.6026,12.5227 32.9656,10.6107 C32.2496,9.7757 31.5006,8.8847 30.4596,8.5297 C29.1416,8.0817 27.6086,8.5837 26.4346,9.2167 C25.3446,9.8037 24.2096,10.2347 23.0536,10.7267 C17.5046,13.0857 20.1836,17.9367 19.5376,28.3407" id="Fill-12" fill="#FED21C"/>
                    <path d="M21.7329,11.3143 C21.7329,11.3143 28.7969,16.3213 29.9829,26.1763 C31.1679,36.0313 25.4879,49.3373 17.5549,52.6663 C17.5549,52.6663 14.7779,54.5733 16.1789,58.5653 C16.1789,58.5653 32.4549,55.4533 35.3119,34.4893 C38.1689,13.5243 26.5559,9.4063 26.5559,9.4063 C25.0889,8.8803 22.6649,10.1363 21.7329,11.3143" id="Fill-14" fill="#2C2263"/>
                    <path d="M30.4184,27.3739 C29.9604,27.4139 29.5614,27.0609 29.5444,26.6009 C29.5294,26.1649 29.5004,25.7379 29.4534,25.3299 C29.3804,24.6879 29.7664,24.0829 30.3764,23.8719 C31.4304,23.5059 33.1144,23.0429 34.8244,23.0699 C35.5724,23.0819 36.1734,23.6919 36.1814,24.4409 C36.1874,24.9409 36.1894,25.5649 36.1844,26.2549 C36.1814,26.6869 35.8384,27.0419 35.4074,27.0549 C33.7414,27.1039 32.0794,27.2289 30.4184,27.3739" id="Fill-16" fill="#816AD8"/>
                    <path d="M51.06,11.9109596 C51.06,11.9109596 52.103,26.335 53.248,33.881 C54.404,41.509 58.957,52.205 59.471,52.041 C59.471,52.041 60.928,39.807 58.836,32.988 C56.745,26.171 56.619,17.304 55.233,14.586 C53.848,11.868 51.06,11.9109596 51.06,11.9109596" id="Fill-18" fill="#2C2263"/>
                    <path d="M64.1508,44.2967 C64.1508,44.2967 63.3538,41.1027 62.3418,39.7697 C61.3148,38.4157 59.6798,38.7667 59.6798,38.7667 L59.8828,40.1747 C59.8828,40.1747 54.7808,39.7637 54.0848,40.5077 C53.3878,41.2517 54.4518,42.3817 54.4518,42.3817 C54.4518,42.3817 54.1808,42.1547 54.1148,43.1137 C54.0488,44.0737 55.2228,44.7427 55.2228,44.7427 C55.2228,44.7427 54.9268,45.0297 54.9828,45.8887 C55.0388,46.7467 56.1758,47.5687 56.1758,47.5687 C56.1758,47.5687 55.4328,48.5477 56.6428,49.1247 C57.1938,49.3877 58.8688,50.0697 61.3528,49.1247 C62.4888,48.6917 64.6318,47.5727 64.1508,44.2967" id="Fill-20" fill="#7362a5"/>
                    <path d="M57.1523,26.5887 C57.5723,26.5837 57.9043,26.2267 57.8773,25.8067 C57.8523,25.4087 57.8403,25.0187 57.8453,24.6427 C57.8553,24.0527 57.4493,23.5367 56.8753,23.3997 C55.8833,23.1607 54.3093,22.8917 52.7563,23.0697 C52.0763,23.1497 51.5853,23.7587 51.6453,24.4407 C51.6863,24.8957 51.7393,25.4627 51.8063,26.0907 C51.8483,26.4827 52.1923,26.7747 52.5853,26.7477 C54.1053,26.6437 55.6283,26.6067 57.1523,26.5887" id="Fill-22" fill="#816AD8"/>
                    <path d="M59.2343,73.0008 C59.2343,73.0008 59.8823,76.5718 57.9943,78.6558 C57.9943,78.6558 33.4013,83.6068 18.1673,77.6568 C18.1673,77.6568 16.9823,75.7548 17.0643,72.1938 C17.0643,72.1938 35.3673,79.4858 59.2343,73.0008" id="Fill-24" fill="#AD5CEE"/>
                    <path d="M52.8989,54.9198 C52.8989,54.9198 54.6589,64.5738 52.8529,69.5548 C52.8529,69.5548 42.1079,74.1228 27.7029,69.1288 C27.7029,69.1288 28.1189,59.8778 28.3369,53.9238 C28.3369,53.9238 43.7949,53.5328 52.8989,54.9198" id="Fill-26" fill="#AD5CEE"/>
                    <path d="M35.5757,65.659 C35.6897,65.675 35.7957,65.598 35.8167,65.484 C39.4187,45.869 37.9327,15.509 37.9167,15.204 C37.9107,15.085 37.8087,14.994 37.6907,14.9997196 C37.5717,15.006 37.4797,15.107 37.4867,15.225 C37.5017,15.53 38.9857,45.841 35.3927,65.407 C35.3707,65.524 35.4487,65.637 35.5657,65.658 C35.5687,65.658 35.5727,65.659 35.5757,65.659" id="Fill-28" fill="#EFF2F9"/>
                    <path d="M48.9458,66.1258 C48.9478,66.1268 48.9498,66.1268 48.9518,66.1268 C49.0708,66.1398 49.1768,66.0538 49.1898,65.9358 C51.7208,41.9998 46.9408,16.5748 46.8928,16.3208 C46.8698,16.2038 46.7578,16.1268 46.6398,16.1488 C46.5228,16.1718 46.4458,16.2848 46.4678,16.4018 C46.5168,16.6548 51.2848,42.0198 48.7608,65.8898 C48.7478,66.0058 48.8308,66.1098 48.9458,66.1258" id="Fill-30" fill="#EFF2F9"/>
                    <g id="Group-34" transform="translate(0.000000, 10.587900)">
                        <mask id="upperwith-backpack-mask-4" fill="#fff">
                            <use xlink:href="#upperwith-backpack-path-3"/>
                        </mask>
                        <g id="Clip-33"/>
                        <path d="M28.728,36.3338 C28.559,36.4248 24.531,38.5868 19.952,40.3698 C17.086,41.4848 14.55,42.2348 12.416,42.5988 C10.846,42.8658 9.46,42.9378 8.182,42.8168 C8.017,42.8018 7.854,42.7828 7.693,42.7608 C6.722,42.6288 5.822,42.3788 4.999,42.0158 C4.273,41.6928 3.606,41.2808 3.004,40.7818 C1.357,39.4158 0.344,37.5248 0.073,35.3148 C-0.063,34.2088 -0.01,33.0538 0.236,31.8178 C0.346,31.2628 0.496,30.6898 0.685,30.0998 C1.407,27.8338 2.887,24.9918 5.208,21.4118 C6.888,18.8208 9.026,15.8158 11.563,12.4808 C15.828,6.8748 19.733,2.2838 19.897,2.0908 C20.244,1.6848 20.915,1.0738 21.595,0.9038 C23.908,4.4658 25.749,8.2248 27.091,12.2778 C25.583,14.1138 23.386,16.8378 21.119,19.8198 C17.721,24.2878 15.599,27.4468 14.274,29.6298 C15.048,29.3548 15.925,29.0178 16.918,28.6028 C20.226,27.2208 22.986,25.7408 23.014,25.7268 C25.944,24.1508 29.597,25.2478 31.173,28.1758 C32.749,31.1048 31.656,34.7548 28.728,36.3338" id="Fill-32" fill="#FED21C" mask="url(#upperwith-backpack-mask-4)"/>
                    </g>
                    <path d="M4.9995,52.6034 C4.2725,52.2814 3.6065,51.8694 3.0035,51.3704 C1.3575,50.0034 0.3445,48.1134 0.0735,45.9034 C-0.0625,44.7964 -0.0095,43.6414 0.2355,42.4064 C2.4395,43.8884 6.9465,47.6504 4.9995,52.6034" id="Fill-35" fill="#AD5CEE"/>
                    <path d="M21.6504,38.579 C21.6504,38.579 25.9494,34.038 27.4954,33.789 C29.0414,33.539 29.6424,34.081 29.6424,34.081 L29.3604,35.441 C29.3604,35.441 34.8954,34.469 35.5994,35.091 C36.3034,35.712 35.4264,36.842 35.4264,36.842 C35.4264,36.842 35.6554,36.609 35.7994,37.483 C35.9424,38.357 34.9254,39.073 34.9254,39.073 C34.9254,39.073 35.2214,39.311 35.2454,40.102 C35.2684,40.894 34.2974,41.748 34.2974,41.748 C34.2974,41.748 34.6144,42.317 34.0694,43.426 C33.5244,44.535 28.8574,46.462 25.7334,46.233 C22.6094,46.005 20.0614,42.043 21.6504,38.579" id="Fill-37" fill="#7362a5"/>
                </g>
            </g>
        </g>
    </g>
</svg>
