<svg viewBox="55.375 117.242 764.175 652.576" xmlns="http://www.w3.org/2000/svg" overflow="visible">
    <g id="Master/Spot Illustrations/Walking In the Park" stroke="none" stroke-width="1" fill="none" fill-rule="evenodd">
        <g id="Group-8" transform="translate(443.000000, 592.000000) scale(-1, 1) translate(-443.000000, -592.000000) translate(66.000000, 456.000000)">
            <g id="Group-3" transform="translate(37.000000, 0.854000)" fill="#FFC5EB" opacity=".5">
                <path d="M2.0175,229.2163 C39.4065,86.4563 98.1505,59.0853 130.5895,66.3963 C157.5175,72.4663 168.9395,109.4313 170.9885,127.7923 C170.9885,127.7923 196.3385,98.5073 230.6285,105.5603 C261.9235,111.9973 268.5895,173.3943 268.5895,173.3943 C288.4535,111.2183 337.1605,36.9873 398.5335,9.4503 C485.6685,-29.6467 528.9395,62.5813 518.4945,135.3943 C531.9665,104.3803 583.2565,84.6633 609.2565,93.3313 C639.1835,103.3083 641.5225,136.2023 642.8925,163.7413 C665.9235,149.3313 689.5695,142.2363 708.0945,175.9973 C718.3955,194.7713 717.3125,216.7043 714.0505,237.2863 C713.4945,240.8023 711.4825,247.9023 701.4605,248.0563 C649.5795,248.8553 459.2305,249.9973 401.9745,249.9973 C334.1385,249.9973 266.9805,246.9783 199.1985,249.9973 C156.4045,251.9053 54.7245,249.6963 24.2675,249.9663 C-3.9825,250.2163 -0.7325,239.7163 2.0175,229.2163" id="Fill-1"/>
            </g>
            <path d="M0.5936,257.118526 C2.3906,248.204526 6.4666,240.181526 9.6916,231.716526 C16.1916,214.651526 25.5996,193.100526 38.6756,180.218526 C50.2436,168.821526 73.4806,156.919526 89.1896,166.507526 C104.1076,175.614526 108.2346,201.669526 110.0666,217.505526 C110.9026,224.727526 111.6676,239.942526 111.6676,239.942526 C117.8466,233.138526 127.3096,232.057526 135.0916,236.479526 C143.3186,241.155526 145.5986,248.216526 146.0406,257.104526 C146.5086,266.522526 144.0666,271.112526 133.9436,271.604526 C123.2076,272.126526 20.6876,268.741526 15.9216,270.245526 C5.0666,269.604526 -1.6014,268.005526 0.5936,257.118526" id="Fill-6" fill="#AA99F2"/>
        </g>
        <g id="Character" transform="translate(66.000000, 2.000000)">
            <g id="Lower" transform="translate(192.000000, 474.000000) scale(1 1)">
                <g id="Lower/Legs Straight Black" stroke="none" stroke-width="1" fill="none" fill-rule="evenodd">
                    <g id="Group-13" transform="translate(180.000000, -2.000000)">
                        <path d="M44.645,260.9016 C45.529,277.6726 61.733,286.3956 76.307,290.8916 C78.098,291.4436 77.594,292.3736 75.672,292.367629 C55.549,292.2976 39.604,291.1956 33.325,279.4946 C33.284,282.5416 33.731,288.8326 33.731,288.8326 C29.578,289.0766 25.872,288.7796 21.991,287.8176 C20.883,281.0686 19.592,270.3996 18,262.8446" id="Fill-1" fill="#FA0000"/>
                        <path d="M102.1469,259.4016 C103.0299,276.1726 119.2339,284.8956 133.8089,289.3916 C135.5979,289.9436 135.0939,290.8736 133.1719,290.867629 C113.0489,290.7976 97.1059,289.6956 90.8259,277.9946 C90.7859,281.0416 91.2309,287.3326 91.2309,287.3326 C87.0789,287.5766 83.3729,287.2796 79.4929,286.3176 C78.3849,279.5686 77.0919,268.8996 75.5009,261.3436" id="Fill-3" fill="#FA0000"/>
                        <g id="Group-7" transform="translate(0.000000, 5.368000)" fill="#000">
                            <path d="M81.1391,37.5688 C85.2081,64.0088 63.7391,252.7748 57.5711,265.6228 C57.5711,265.6228 24.2641,270.6128 8.0711,258.6228 C-0.1859,252.5098 -0.0359,209.4948 0.0081,198.6228 C0.0631,185.1998 0.5081,100.1248 12.1571,38.9918 C14.7741,25.2488 18.4371,6.9248 33.1551,1.5118 C45.3131,-2.9622 61.3171,4.0558 70.5921,13.8118 C76.4541,19.9758 78.6551,31.3658 81.1391,37.5688" id="Fill-5"/>
                        </g>
                        <g id="Group-10" transform="translate(34.000000, 0.368000)" fill="#000">
                            <path d="M78.0708,269.123 C78.0708,269.123 44.1448,273.367 27.0708,262.623 C18.3638,257.144 18.5178,234.326 18.0388,223.405 C17.4768,210.531 13.6868,79.173 15.7428,44.996 C16.5898,30.954 -9.9332,10.072 4.3198,3.487 C16.0948,-1.955 27.1788,0.546 37.1828,9.595 C40.3308,12.441 43.6838,14.46 46.7888,18.009 C49.9208,21.591 82.8418,93.29 78.0708,269.123" id="Fill-8"/>
                        </g>
                        <path d="M69.3999,83.0506 C66.9859,112.2356 65.0109,140.9646 63.2079,170.4696 C62.2919,185.4306 60.7499,236.5286 62.0299,248.8596 C67.9139,207.6756 68.8859,182.0976 69.1669,152.8316 C69.3699,131.4396 72.0599,106.9946 69.3999,83.0506" id="Fill-11" fill="#0042FF"/>
                    </g>
                </g>
            </g>
            <g id="Dynamic Upper" transform="scale(1 1)">
                <g id="Dynamic Upper/Walking Dog" stroke="none" stroke-width="1" fill="none" fill-rule="evenodd">
                    <g id="Group-56" transform="translate(0.000000, 123.000000)">
                        <g id="Group-3" transform="translate(0.000000, 554.311000)" fill="#FD839D">
                            <path d="M5.4025,14.1864 C10.2615,12.0234 15.6775,19.7954 19.9745,22.4974 C24.9315,25.6204 30.2205,28.4744 35.5765,29.6384 C46.9185,32.1004 57.0995,28.2064 73.2055,29.2784 C90.0705,30.4054 107.9315,40.6474 127.9205,42.5224 C142.8455,43.9164 187.4205,44.9384 186.4085,26.0184 C174.6875,32.1084 160.8265,33.4504 145.9905,32.5754 C117.6755,30.9094 113.0135,17.5824 117.3325,14.0764 C121.8845,10.3754 134.7305,17.8924 142.9065,16.5844 C131.3325,15.8364 123.2035,2.1414 131.3325,0.2634 C138.8885,-1.4806 157.4145,10.5274 180.5935,10.4774 C183.9415,10.4724 189.5885,9.2934 194.3005,9.3584 C206.5475,9.5114 207.3535,13.0024 218.5415,14.2934 C231.5335,15.7914 236.0295,10.2944 240.2755,10.7934 C245.0685,11.3604 240.0235,23.5364 221.1565,26.6204 C210.6425,28.3374 202.5485,33.5284 209.1605,41.6934 C209.1605,41.6934 217.7835,49.9534 217.2595,58.6044 C217.2655,61.1044 216.3985,63.6204 214.3045,66.0244 C225.1445,76.3764 236.3165,87.2844 228.0955,85.4934 C222.0095,84.1714 208.9745,74.3004 199.6895,65.4764 C197.2165,70.7124 191.5235,76.1574 187.4185,79.5854 C181.2545,84.7244 173.5935,87.3994 170.4985,85.2574 C167.7855,83.3944 175.6795,80.9974 179.5195,77.3844 C183.1015,74.0114 181.4905,68.6284 183.7855,62.8944 C183.7855,62.8944 163.3265,66.2694 153.1875,66.7284 C133.5175,67.6164 108.6895,67.6754 89.0955,59.2944 C88.4335,61.6384 87.3865,64.0634 86.9905,66.7984 C86.1175,72.8414 96.7035,79.5484 95.6195,81.8944 C93.9085,85.6224 83.0665,77.5754 79.0415,71.3474 C75.8405,66.3904 74.4475,60.6184 74.0475,54.5774 C69.5885,58.9704 65.4685,64.1364 57.3455,64.7294 C42.5175,65.8174 51.8715,84.6654 47.2715,82.2494 C41.0215,78.9684 40.9725,64.1694 44.9235,60.3584 C50.1405,55.3194 55.7875,56.9524 58.2285,48.8754 C59.3365,45.2024 59.6895,40.8054 60.7225,36.9614 C55.6505,37.4304 49.8305,39.2884 48.6075,39.5484 C43.6175,40.5954 39.9575,42.2684 36.5435,36.5834 C32.7875,40.8804 28.7595,42.5864 25.2895,36.4594 C20.6665,45.4994 17.2755,37.6284 14.1095,32.3174 C13.6175,34.3884 11.1255,42.3974 6.6815,42.2564 C1.0955,42.0804 -4.4215,18.5524 5.4025,14.1864" id="Fill-1"/>
                        </g>
                        <path d="M345.133,454.3666 C321.026,455.3856 314.709,491.3426 310.172,508.4536 C307.438,518.7836 304.955,529.1996 301.158,539.2366 C296.403,551.8016 286.723,562.9756 277.119,572.4886 C261,588.4496 239.02,597.6656 215.828,597.750241 C205.619,597.7846 191.565,596.3996 182.897,590.5216 C180.627,588.9866 181.953,585.6716 184.629,587.4806 C194.252,594.0026 211.324,594.0266 222.434,593.1906 C252.625,590.9266 275.871,570.5456 291.543,547.2686 C303.764,529.1166 305.596,505.0886 312.344,484.8176 C317.162,470.3506 325.145,450.9136 343.707,450.1316 C345.899,450.0386 347.932,454.2506 345.133,454.3666" id="Fill-4" fill="#000"/>
                        <path d="M211.2131,570.5541 C209.3421,572.3271 206.9261,572.9971 204.4381,573.3731 C203.3561,573.5361 202.3301,571.3641 203.7271,571.1531 C205.8991,570.8251 207.9831,570.1801 209.6081,568.6401 C210.4531,567.8371 212.0741,569.7381 211.2131,570.5541" id="Fill-6" fill="#000"/>
                        <path d="M219.8752,566.5541 C218.8772,567.5241 217.6642,568.0011 216.3362,568.3371 C215.2502,568.6121 213.9362,566.4981 215.1432,566.1931 C216.3402,565.8901 217.3692,565.5141 218.2702,564.6401 C219.1042,563.8291 220.7272,565.7271 219.8752,566.5541" id="Fill-8" fill="#000"/>
                        <path d="M240.0002,564.0492 C240.9412,563.9612 241.7852,564.5142 241.7642,565.5462 C241.7232,567.4882 240.7212,568.0772 239.7662,567.9722 C237.2192,567.6902 237.1722,564.3152 240.0002,564.0492" id="Fill-10" fill="#000"/>
                        <path d="M439.2121,255.056 C439.1061,248.194 438.9621,242.912 439.4991,239.5 C439.6461,238.568 436.9681,233.781 427.3051,233.497 C415.9721,233.163 413.0371,237.447 413.4831,239.344 C414.8581,245.191 413.3261,248.197 413.7041,250.953 C413.7041,250.953 413.7011,263.771 428.0811,263.92 C440.0451,264.045 439.2121,255.056 439.2121,255.056" id="Fill-12" fill="#FA0000"/>
                        <path d="M418.9719,235.9134 C420.7219,235.2474 423.7719,234.7754 424.6269,234.7474 C433.2939,234.4544 436.8309,237.4124 437.1589,238.0074 C437.6589,238.9154 437.4619,239.8994 436.8259,240.6514 C436.1699,241.4254 431.7369,243.7204 426.0139,243.4134 C420.5549,243.1224 416.1799,241.7884 415.4719,239.7474 C414.6769,237.4554 417.2109,236.5844 418.9719,235.9134" id="Fill-14" fill="#FA0000"/>
                        <path d="M425.2736,237.7005 C426.2796,237.5985 427.8316,237.5315 428.6256,238.2065 C429.5816,239.0165 429.2876,239.8175 428.0856,240.1285 C427.1626,240.3685 424.8726,240.3865 424.1156,239.8065 C422.9726,238.9325 424.0736,237.7845 425.2736,237.7005" id="Fill-16" fill="#FFC5EB"/>
                        <path d="M352.9826,428.4877 C349.1856,432.6787 339.1626,457.7027 337.8696,455.7727 C334.8346,451.2437 332.1836,456.0427 332.2676,457.3487 C331.8076,463.9837 336.8246,462.4177 336.8246,462.4177 C337.3206,464.6227 339.1836,467.7067 342.8286,465.8527 C346.0236,475.6287 357.8576,462.6757 361.0466,454.8427 C370.5416,431.5247 361.0906,419.5357 352.9826,428.4877" id="Fill-18" fill="#FA0000"/>
                        <path d="M444.9123,255.3519 C470.9653,258.2679 475.9653,272.2679 495.9653,317.2679 C498.1873,303.3649 500.7283,270.7679 510.7233,260.2679 C520.9663,249.5039 539.9653,255.2679 544.9653,270.2679 C548.7093,281.4979 549.1333,304.9779 547.4653,316.2679 C544.3813,337.1559 535.3613,365.8799 510.0963,371.5389 C481.6543,377.9079 453.9793,340.4879 446.5023,318.0989 C442.5163,306.1619 440.3883,293.3219 440.4843,280.9819 C440.5413,273.6659 438.2753,260.6329 443.9653,255.6419" id="Fill-20" fill="#FFC5EB"/>
                        <path d="M348.5724,357.1263 C351.7974,335.4743 354.2224,297.2683 364.2224,279.7683 C373.8264,262.9603 385.2224,259.2683 385.2224,259.2683 C396.9724,244.5183 419.7224,245.5183 426.5354,248.2623 C432.3634,250.6083 435.2874,254.8523 436.9334,260.7203 C438.7444,256.0883 436.5214,247.2323 440.8454,248.3643 C444.0214,249.1963 445.3734,252.0583 445.4884,255.3763 C455.0094,260.4893 460.1664,265.4023 464.5274,276.5183 C469.5414,289.2983 469.5554,304.2083 472.1984,317.4293 C476.4314,338.6083 477.6344,374.2023 451.6384,383.8503 C438.0704,388.8853 414.5294,392.5863 398.4184,387.5813 C398.3994,387.7673 398.3774,387.9513 398.3574,388.1363 C397.2914,398.6283 396.1094,409.0553 392.5864,418.5243 C389.5084,426.7993 385.4194,439.6553 377.3824,444.6713 C368.7884,450.0353 355.0864,449.1083 348.9514,440.7473 C331.4944,416.9493 344.7264,382.9433 348.5724,357.1263" id="Fill-22" fill="#FFC5EB"/>
                        <path d="M409.1662,281.5648 C416.7982,274.1628 431.5982,273.1208 439.7682,280.1558 C449.8632,288.8498 451.1702,305.1008 442.1832,314.8828 C435.3282,322.3448 423.4832,323.1178 415.1902,317.8338 C403.9382,310.6638 400.6562,291.2758 409.4032,281.3308 C410.4282,280.1648 409.0802,279.0478 408.0622,280.2058 C398.4362,291.1518 401.4992,310.3368 412.7452,319.1548 C421.6312,326.1218 434.5322,324.2268 442.5442,316.9778 C452.5682,307.9098 452.7032,291.4788 444.2342,281.3158 C435.6022,270.9578 418.0102,270.5538 408.3012,279.9708 C407.3342,280.9078 407.9792,282.7168 409.1662,281.5648" id="Fill-24" fill="#0042FF"/>
                        <path d="M384.674,261.0511 C393.524,259.7581 402.548,262.3821 409.172,268.4151 C416.836,275.3951 417.479,287.4161 411.067,295.4191 C405.793,302.0021 396.395,304.1291 388.375,303.6741 C378.285,303.1001 370.078,296.9121 366.879,287.2921 C366.432,285.9501 364.469,287.3391 364.815,288.3781 C368.334,298.9601 376.766,304.8971 387.664,305.8951 C397.069,306.7571 407.112,303.1531 413.07,295.7181 C419.063,288.2381 419.153,276.4391 413.067,269.0231 C406.273,260.7441 395.277,257.3791 384.863,258.9021 C383.74,259.0661 383.146,261.2751 384.674,261.0511" id="Fill-26" fill="#FA0000"/>
                        <path d="M475.7795,278.8436 C469.1715,280.4126 463.2175,280.4306 457.7295,275.9636 C451.9905,271.2916 450.1635,263.9946 450.4475,256.9256 C450.5085,255.3816 448.4085,256.3586 448.3635,257.4836 C448.0395,265.5296 450.2795,272.2316 456.1235,277.8786 C461.4225,282.9996 468.9735,282.5646 475.5915,280.9926 C476.6835,280.7336 477.2805,278.4876 475.7795,278.8436" id="Fill-28" fill="#FA0000"/>
                        <path d="M548.6799,283.9969 C534.5349,276.2089 519.9459,289.3279 517.0579,303.0749 C513.9089,318.0609 530.5099,332.8229 545.0359,329.0599 C546.1209,328.7789 546.7159,326.5229 545.2249,326.9099 C532.5919,330.1829 518.3669,318.1509 518.7759,305.3119 C519.2189,291.4449 534.4099,278.9429 547.4869,286.1429 C548.4479,286.6709 549.8109,284.6199 548.6799,283.9969" id="Fill-30" fill="#0042FF"/>
                        <path d="M489.8049,367.8368 C484.8459,361.3688 485.4419,351.6028 488.6859,344.4368 C491.4089,338.4188 497.6529,335.1578 503.8149,333.8368 C517.9359,330.8108 532.0959,339.7548 533.0959,354.6398 C533.1879,355.9998 535.2329,354.6288 535.1599,353.5538 C533.9799,335.9768 516.4379,327.8398 500.8209,332.5018 C486.4349,336.7958 478.3579,356.9378 487.8989,369.3848 C488.6839,370.4088 490.4749,368.7118 489.8049,367.8368" id="Fill-32" fill="#0042FF"/>
                        <path d="M424.7482,391.2284 C436.1072,384.8354 443.0252,374.1654 437.9142,361.2324 C433.0542,348.9384 419.1192,343.2004 406.6972,345.2294 C405.5802,345.4124 404.9842,347.6284 406.5102,347.3784 C417.3672,345.6044 428.0612,350.0234 434.1602,359.2394 C441.9962,371.0814 435.6252,382.9744 424.4002,389.2914 C423.3482,389.8834 423.3182,392.0334 424.7482,391.2284" id="Fill-34" fill="#FA0000"/>
                        <path d="M350.4611,345.5658 C370.2881,333.5238 386.9721,360.9658 378.6411,377.8858 C372.7111,389.9248 352.9611,399.7608 344.3771,385.0728 C343.7341,383.9718 341.9061,385.6538 342.4711,386.6208 C352.4101,403.6288 374.3321,390.7018 380.8451,377.4768 C389.9611,358.9628 370.7891,331.0718 350.1141,343.6288 C349.0911,344.2498 349.0611,346.4158 350.4611,345.5658" id="Fill-36" fill="#0042FF"/>
                        <path d="M343.7717,380.3143 C353.9867,384.7733 359.8937,393.8683 359.3287,405.0233 C358.8067,415.3093 352.5397,425.4293 342.9357,429.4133 C341.7937,429.8863 341.7707,431.9783 343.2817,431.3513 C353.3367,427.1803 359.3357,417.3973 361.1327,406.9613 C363.2987,394.3863 356.4417,383.1793 344.9647,378.1683 C343.9437,377.7233 342.5937,379.8003 343.7717,380.3143" id="Fill-38" fill="#FA0000"/>
                        <path d="M503.216,278.3646 C513.5,271.2316 529.58,274.3366 531.013,288.3076 C532.535,303.1606 511.067,316.5116 498.75,307.9836 C497.773,307.3056 496.191,309.2386 497.143,309.8986 C511.028,319.5136 531.494,305.1586 533.109,289.9886 C534.978,272.4176 513.869,268.7806 502.351,276.7706 C501.205,277.5646 501.871,279.2976 503.216,278.3646" id="Fill-40" fill="#FA0000"/>
                        <path d="M473.5002,324.2518 C463.5462,323.8418 457.6822,333.7898 455.8142,342.3418 C453.4502,353.1818 457.2282,364.5958 467.2852,369.9568 C468.2562,370.4748 469.6182,368.4188 468.4792,367.8118 C459.6092,363.0838 456.3612,353.5848 457.5162,343.9938 C458.4692,336.0668 463.6212,326.0958 472.7892,326.4738 C473.8852,326.5188 474.9032,324.3098 473.5002,324.2518" id="Fill-42" fill="#FA0000"/>
                        <path d="M408.051,313.1419 C406.384,327.8089 404.397,340.0109 403.384,350.1419 C402.217,361.8099 400.217,371.9759 399.352,383.1049 C404.301,370.8199 406.873,360.1559 408.084,347.3429 C409.09,336.7219 409.884,326.4759 408.051,313.1419" id="Fill-44" fill="#FA0000"/>
                        <path d="M472.5685,351.9232 C470.8835,333.6422 473.7165,325.3922 462.9665,292.6422 C471.4535,299.5382 478.7165,328.3922 472.5685,351.9232" id="Fill-46" fill="#FA0000"/>
                        <path d="M687.2687,99.6019 C658.0927,103.2619 642.4407,104.5929 623.7237,124.5479 C592.0697,105.3019 565.9547,110.7659 538.1767,124.2499 C512.9917,108.3169 490.9267,111.4089 470.2217,123.2479 C431.7217,89.8279 414.7827,115.9729 391.2827,109.2599 C363.2997,101.2639 363.2997,82.2729 321.9937,89.2739 C335.7767,79.0809 373.8347,74.2649 393.9407,71.9509 C430.5637,67.7289 465.2097,62.2069 502.7587,62.1324426 C555.7787,62.0309 639.7057,79.0009 687.2687,99.6019" id="Fill-48" fill="#FD839D"/>
                        <path d="M321.4562,88.223 C350.6432,64.622 386.6202,31.975 489.8762,15.989 C500.4522,14.35 486.6792,1.36 497.2062,1.13686838e-13 C505.3312,1.36 505.2612,8.288 503.2002,17.32 C597.1362,31.314 644.4812,58.27 687.2682,99.602 C663.7552,93.267 649.5952,91.18 628.1142,101.264 C589.1422,74.284 588.1732,99.682 554.1652,98.268 C530.1812,97.265 518.5242,66.956 460.2292,97.265 C434.4382,74.381 403.2722,77.28 377.9602,90.606 C361.9702,78.612 337.9832,80.612 321.4562,88.223" id="Fill-50" fill="#AA99F2"/>
                        <path d="M497.2062,79.9456 C489.4742,119.4276 500.1302,168.0976 512.0502,216.9476 C516.4792,235.1146 523.3312,253.6416 520.7902,260.4206 C515.5442,274.4086 497.5792,269.0606 497.3082,264.0416 C496.9362,257.0476 516.9192,268.7896 513.2982,249.6736 C509.1182,227.6306 503.9352,213.5546 498.8722,191.8476 C489.6282,152.1726 478.3922,90.4946 498.3042,54.3116" id="Fill-52" fill="#AA99F2"/>
                        <path d="M528.2883,237.6859 C526.1083,230.8899 519.3863,226.2849 513.2613,225.4159 C501.0563,223.6899 503.3063,231.1869 509.2553,233.1979 C504.8473,232.4219 505.0993,238.8989 509.7473,240.3019 C506.2653,241.4239 507.1123,245.2039 510.2803,247.3439 C513.8433,249.7519 517.2803,251.1239 517.2803,251.1239 C517.7673,257.6129 519.5073,268.1359 526.3933,267.1329 C534.0073,266.0219 529.7143,242.1339 528.2883,237.6859" id="Fill-54" fill="#FA0000"/>
                    </g>
                </g>
            </g>
            <g id="Red Head" transform="translate(388.000000, 308.000000) scale(1 1)">
                <g id="Red Head/Fade 2" stroke="none" stroke-width="1" fill="none" fill-rule="evenodd">
                    <path d="M50.9618,55.2482 C51.2598,52.9642 51.6908,51.4042 52.6578,50.6532 C55.0548,48.7922 61.8138,51.4852 63.2228,47.5382 C63.8478,45.7882 59.6578,40.1532 59.5928,38.3332 C59.5358,36.7542 70.3728,38.1802 68.9958,35.8192 C67.8288,33.8192 55.4958,35.8192 52.8298,18.4872 C52.0878,13.6602 47.6488,10.2622 36.3298,8.3192 C32.8048,7.7152 24.3268,6.8912 17.9368,11.0782 C12.1598,14.8642 10.6238,28.7052 17.7848,39.5332 C22.2708,46.3152 24.1758,51.2072 24.9838,54.9182 C25.1378,55.6222 26.6648,60.5442 38.4148,60.5442 C50.6658,60.5442 50.8988,55.7322 50.9618,55.2482" id="Fill-41" fill="#FA0000"/>
                    <g id="Group-10" transform="translate(13.000000, -3.000000)">
                        <g id="Group-6" transform="translate(0.000000, 9.521790)" fill="#FD839D">
                            <path d="M9.69001935,40.980946 C6.96219677,34.9243476 0.84393871,28.5432349 0.0801483871,19.2434968 C-0.564609677,11.4050746 2.62843065,3.13997619 10.8912532,1.43226984 C13.3899387,0.915450794 15.9729387,0.743177778 18.5241968,1.12077619 C19.7918903,1.30707143 24.4589468,2.11034444 24.9896323,3.6127254 C25.6988661,5.6159 20.7391887,10.2482413 20.5080677,12.6390302 C20.1073258,16.7585587 22.7825758,19.3877254 23.4303097,23.1556968 C24.4202613,28.9208333 18.8614548,21.0603762 17.7246968,20.2080254 C11.8524387,15.804046 15.5404548,28.6093397 15.7904226,30.4232143 C16.1604145,33.1074683 15.4670516,35.0785921 14.1209952,37.4403349 C13.5139306,38.5070254 10.4131403,42.5854889 9.69001935,40.980946" id="Fill-4"/>
                        </g>
                        <g id="Group-9" transform="translate(0.000000, 0.507504)" fill="#000">
                            <path d="M20.75625,20.6519289 C26.1166694,11.555513 36.5240565,16.4903337 43.3088952,16.3951829 C48.093,16.3270749 53.5149194,14.882786 57.1592903,11.5695352 C60.5269113,8.50768286 62.3867903,3.31244952 59.9625,1.96130825 C57.5312661,0.605159048 55.7765323,4.75173048 55.2180726,5.81541619 C54.6179516,0.465938413 49.0343468,-1.12358063 45.0586694,2.3048527 C42.0669919,4.88293841 40.4848548,8.06397968 36.3911371,9.14769714 C32.2587339,10.2404289 25.506629,1.35534794 12.1075645,6.13091619 C2.2616129,9.6404781 0.380903226,20.1841876 0.337961923,22.821367 C0.254927419,27.9975702 18.2724435,24.8656067 20.75625,20.6519289" id="Fill-7"/>
                        </g>
                    </g>
                </g>
            </g>
            <g id="Red Expression" transform="translate(412.000000, 315.000000) scale(1 1)">
                <g id="Red Expression/Mustache 2" stroke="none" stroke-width="1" fill="none" fill-rule="evenodd">
                    <g id="Group-16-Copy" transform="translate(16.194336, 15.055908)">
                        <path d="M9.2803,2.7715 C8.4833,5.1415 5.6043,5.1765 3.6413,4.6195 C1.8763,4.1175 -0.2877,7.5695 1.6883,8.1305 C6.2663,9.4325 10.9453,7.4105 12.5033,2.7795 C12.7743,1.9725 12.4583,0.958496709 11.4733,0.958496709 C10.4563,0.9565 9.5853,1.8665 9.2803,2.7715" id="Fill-4" fill="#000"/>
                        <path d="M18.8447,8.6807 C19.4147,8.7617 20.0737,8.6867 20.5787,8.3857 C21.0827,8.0847 21.5487,7.5027 21.4377,6.8737 C21.3347,6.2957 20.6827,6.1787 20.2317,6.4487 C20.0297,6.5697 20.4817,6.3717 20.2237,6.4557 C20.0667,6.5067 19.8027,6.4937 19.5557,6.4577 C18.4707,6.3037 17.4447,8.4797 18.8447,8.6807" id="Fill-6" fill="#000"/>
                        <path d="M15.2148,4.0704 C15.4268,4.2024 15.6388,4.3354 15.8508,4.4684 C16.6298,4.9584 17.5148,4.5264 18.0618,3.8764 C18.4778,3.3804 19.0358,2.0824 18.2608,1.5954 L17.6248,1.1974 C16.8448,0.7104 15.9618,1.1374 15.4148,1.7904 C14.9988,2.2854 14.4388,3.5854 15.2148,4.0704" id="Fill-8" fill="#000"/>
                        <path d="M11.8115,6.8545 C9.9155,7.1815 8.0285,6.7725 6.2385,6.1445 C5.0495,5.7275 3.5475,8.0835 4.8965,8.5565 C7.0805,9.3235 9.3045,9.6675 11.6005,9.2705 C12.8545,9.0555 13.5245,6.5595 11.8115,6.8545" id="Fill-10" fill="#000"/>
                        <path d="M4.8779,11.7696 C7.7739,11.5596 10.7249,12.6486 12.7079,14.7636 C13.5929,15.7076 15.4299,13.5866 14.5149,12.6106 C12.3149,10.2646 8.8859,9.0406 5.6769,9.2726 C4.4619,9.3606 3.3349,11.8806 4.8779,11.7696" id="Fill-12" fill="#FD839D"/>
                        <path d="M28.7402,15.5362 C27.9482,15.4412 27.4912,17.8502 26.6072,17.9792 C24.8992,18.2292 23.1072,14.5202 20.1492,17.1042 C14.6492,14.5632 13.1902,20.3132 10.2452,19.9072 C8.1362,19.6172 6.9932,15.8662 6.0812,16.8692 C5.1102,17.9382 5.6872,21.5572 9.6472,22.8582 C13.5652,24.1452 20.1782,23.3742 20.6072,18.8952 C22.0982,22.0382 27.1312,22.6512 28.7002,20.1142 C29.8152,18.3132 29.6492,15.6452 28.7402,15.5362" id="Fill-14" fill="#000"/>
                    </g>
                </g>
            </g>
            <g id="Accesories" transform="translate(297.000000, 222.000000) scale(1 1)" fill="#000">
                <g id="Accesories/Bunny Ears" stroke="none" stroke-width="1" fill="none" fill-rule="evenodd">
                    <g id="Group-7" transform="translate(96.000000, 22.000000)" fill="#000">
                        <g id="Group-3" transform="translate(14.000000, 67.228300)">
                            <path d="M14.7504,4.7783 C12.0324,5.9833 10.5724,6.4043 7.9444,8.4343 C6.4304,9.6033 5.2804,10.7173 4.2074,12.1783 C3.3634,13.3273 2.2944,16.1513 1.2694,14.4883 C-0.5326,11.5693 3.9764,5.2323 6.0314,3.7963 C8.9794,1.7373 17.5934,-0.8617 16.1564,2.3563 C15.8914,2.9513 15.2444,4.5593 14.7504,4.7783" id="Fill-1"/>
                        </g>
                        <g id="Group-6" transform="translate(0.000000, 0.228300)">
                            <path d="M24.5683,56.2807 C26.4423,52.8847 30.9743,32.7917 32.7923,27.9907 C35.5653,20.6727 39.2583,12.4617 44.8113,6.7347 C46.2043,5.3007 50.4583,2.1677 52.6343,2.8837 C55.8383,3.9397 54.4243,10.8407 54.0833,13.1627 C52.8643,21.4267 50.0733,28.4907 46.6683,36.2447 C42.7333,45.2147 37.9803,53.7367 33.4193,62.3517 C32.1353,64.7787 29.9493,69.8417 29.9493,69.8417 C29.9493,69.8417 24.2883,72.0987 22.2063,71.8317 C19.7143,71.5107 19.9833,73.5967 18.6673,71.7627 C16.5123,68.7567 7.1283,49.4067 5.0063,44.0817 C0.5233,32.8297 -1.1977,19.3987 0.8653,7.4937 C1.3253,4.8407 2.4923,-0.4353 6.1923,1.0217 C9.5803,2.3557 10.9133,7.0377 12.2553,9.9417 C15.9713,17.9987 18.3853,26.0307 20.2763,34.6257 C21.7233,41.2007 22.8133,49.8027 24.5683,56.2807" id="Fill-4"/>
                        </g>
                    </g>
                </g>
            </g>
        </g>
    </g>
</svg>
