<svg viewBox="93.875 267.095 1314.25 489.048" xmlns="http://www.w3.org/2000/svg" overflow="visible">
    <g id="Master/Scenes/Tea Time" stroke="none" stroke-width="1" fill="none" fill-rule="evenodd">
        <path d="M810.7317,509.5146 C837.6597,515.5836 849.0817,552.5496 851.1307,570.9096 C851.1307,570.9096 876.4807,541.6246 910.7707,548.6776 C942.0657,555.1146 948.7317,616.5116 948.7317,616.5116 C968.5957,554.3356 1017.3027,480.1046 1078.6757,452.5676 C1165.8107,413.4716 1209.0817,505.6986 1198.6367,578.5116 C1212.1087,547.4976 1263.3987,527.7806 1289.3987,536.4486 C1319.3257,546.4256 1321.6647,579.3196 1323.0347,606.8596 C1346.0657,592.4486 1369.7117,585.3546 1388.2367,619.1156 C1398.5377,637.8896 1397.4547,659.8216 1394.1927,680.4036 C1393.6367,683.9206 1391.6247,691.0206 1381.6027,691.1746 C1329.7217,691.9736 1139.3727,693.1156 1082.1167,693.1156 C1014.2807,693.1156 947.1227,690.0956 879.3407,693.1156 C836.5467,695.0226 734.8667,692.8136 704.4097,693.0836 C676.1597,693.3336 679.4097,682.8336 682.1597,672.3336 C719.5487,529.5746 778.2927,502.2026 810.7317,509.5146 Z" id="Big-Bush-1" fill="#FFC5EB"/>
        <path d="M112.272,697.8131 C101.948,688.0281 103.182,667.6301 112.411,654.9261 C121.73,642.0961 137.747,646.9511 147.557,656.1481 C147.557,656.1481 151.475,635.1991 153.661,624.9371 C155.91,614.3711 159.145,605.0271 164.008,595.3011 C173.698,575.9281 191.195,565.4881 212.524,569.2021 C227.522,571.8131 254.522,583.8131 277.911,637.6621 C282.315,615.6641 308.87,608.0541 325.522,619.8131 C334.374,626.0631 339.706,635.3591 345.899,643.8131 C352.09,652.2641 357.312,661.3821 361.645,670.9491 C364.231,676.6611 373.387,689.7011 367.022,693.3131 C348.522,703.8131 235.009,699.8551 190.022,699.3131 C148.522,698.8131 117.493,702.7611 112.272,697.8131" id="Small-Bush-1" fill="#FFC5EB"/>
        <g id="Chair-1" transform="translate(354.945067, 437.765577)" fill="#AA99F2">
            <path d="M33.4431329,164.183323 C30.1061329,159.780323 14.4901329,89.0903233 9.69113285,71.7033233 C6.71113285,60.9083233 3.54813285,49.6043233 1.66213285,38.4723233 C0.40613285,31.0643233 -1.10586715,19.1253233 1.19313285,11.8503233 C4.62513285,0.996323264 18.5351329,-1.29167674 27.5271329,0.850323264 C41.5271329,4.18332326 53.4431329,23.1833233 53.4431329,23.1833233 C53.4431329,23.1833233 64.8611329,2.18332326 77.8681329,0.249323264 C85.4001329,-0.869676736 89.8731329,1.60632326 95.8611329,11.1833233 C106.838133,28.7423233 106.102133,52.5453233 105.443133,72.6833233 C104.861133,90.5173233 103.029133,104.935323 99.9921329,120.664323 C91.5271329,164.517323 83.9661329,162.140323 84.7931329,159.663323 C93.8611329,119.849323 98.8611329,73.8493233 94.8061329,41.1853233 C91.3731329,13.5213233 81.2671329,0.226323264 62.6931329,25.0173233 C59.7161329,28.9893233 57.9551329,33.7503233 54.6751329,37.4863233 C48.0171329,29.0503233 34.4411329,5.94432326 19.6971329,11.0193233 C7.20213285,15.3203233 10.5371329,31.6363233 13.1911329,41.0153233 C18.5191329,59.8413233 35.8631329,151.570323 36.6931329,155.183323" id="Fill-1"/>
            <path d="M80.6384329,152.482123 C65.4824329,151.836123 45.2404329,150.775123 31.3164329,154.615123 C29.8804329,166.374123 37.5934329,168.425123 49.6854329,168.517123 C62.8204329,168.617123 76.2304329,168.941123 89.1094329,167.849123 C101.919433,166.764123 144.693433,167.933123 144.693433,159.683123 C144.693433,152.179123 134.663433,152.413123 128.693433,151.933123 C128.693433,151.933123 89.3264329,152.853123 80.6384329,152.482123" id="Fill-3"/>
            <path d="M64.8611329,167.349323 C64.8611329,195.464323 60.8531329,282.839323 66.9431329,289.316323 C75.3881329,298.296323 76.6931329,272.933323 76.5271329,263.247323 C76.2631329,247.905323 70.6931329,167.933323 70.6931329,167.933323" id="Fill-5"/>
            <path d="M126.527133,165.949923 C126.517133,186.471923 125.858133,206.989923 125.863133,227.512923 C125.867133,245.753923 120.441133,289.874923 129.943133,289.315923 C143.469133,288.520923 132.276133,185.738923 131.861133,163.848923" id="Fill-7"/>
            <path d="M37.6931329,166.933323 C37.6931329,166.933323 32.9431329,229.921323 32.9431329,243.933323 C32.9431329,250.146323 31.0721329,289.242323 37.6951329,289.316519 C48.1931329,289.433323 44.1671329,236.994323 43.9431329,232.183323 C42.4961329,200.997323 43.9431329,166.933323 43.9431329,166.933323" id="Fill-9"/>
            <path d="M73.1941329,235.247723 C73.1941329,235.247723 49.4531329,237.351723 39.8611329,237.347723 C39.8611329,237.347723 37.3771329,241.878723 37.2971329,243.542723 C45.5161329,243.979723 119.486133,242.367723 129.095133,240.743723 C129.740133,238.891723 130.227133,236.491723 130.442133,234.685723 C122.745133,231.734723 83.0231329,234.528723 73.1941329,235.247723" id="Fill-11"/>
        </g>
        <g id="Chair-2" transform="translate(833.431800, 437.765577)" fill="#AA99F2">
            <path d="M111.2503,164.183323 C114.5883,159.780323 130.2033,89.0903233 135.0023,71.7033233 C137.9823,60.9083233 141.1453,49.6043233 143.0313,38.4723233 C144.2873,31.0643233 145.7993,19.1253233 143.5003,11.8503233 C140.0683,0.996323264 126.1583,-1.29167674 117.1663,0.850323264 C103.1663,4.18332326 91.2503,23.1833233 91.2503,23.1833233 C91.2503,23.1833233 79.8323,2.18332326 66.8263,0.249323264 C59.2933,-0.869676736 54.8203,1.60632326 48.8323,11.1833233 C37.8553,28.7423233 38.5923,52.5453233 39.2503,72.6833233 C39.8323,90.5173233 41.6643,104.935323 44.7013,120.664323 C53.1663,164.517323 60.7273,162.140323 59.9003,159.663323 C50.8323,119.849323 45.8323,73.8493233 49.8873,41.1853233 C53.3203,13.5213233 63.4263,0.226323264 82.0003,25.0173233 C84.9773,28.9893233 86.7383,33.7503233 90.0183,37.4863233 C96.6763,29.0503233 110.2523,5.94432326 124.9963,11.0193233 C137.4923,15.3203233 134.1563,31.6363233 131.5023,41.0153233 C126.1743,59.8413233 108.8303,151.570323 108.0003,155.183323" id="Fill-28"/>
            <path d="M64.055,152.482123 C79.211,151.836123 99.453,150.775123 113.377,154.615123 C114.813,166.374123 107.1,168.425123 95.008,168.517123 C81.873,168.617123 68.463,168.941123 55.584,167.849123 C42.774,166.764123 -6.25277607e-13,167.933123 -6.25277607e-13,159.683123 C-6.25277607e-13,152.179123 10.03,152.413123 16,151.933123 C16,151.933123 55.367,152.853123 64.055,152.482123" id="Fill-30"/>
            <path d="M79.8324,167.349323 C79.8324,195.464323 83.8404,282.839323 77.7504,289.316323 C69.3054,298.296323 68.0004,272.933323 68.1664,263.247323 C68.4304,247.905323 74.0004,167.933323 74.0004,167.933323" id="Fill-32"/>
            <path d="M18.1663,165.949923 C18.1763,186.471923 18.8363,206.989923 18.8303,227.512923 C18.8263,245.753923 24.2523,289.874923 14.7503,289.315923 C1.2253,288.520923 12.4183,185.738923 12.8323,163.848923" id="Fill-34"/>
            <path d="M107.0003,166.933323 C107.0003,166.933323 111.7503,229.921323 111.7503,243.933323 C111.7503,250.146323 113.6213,289.242323 106.9983,289.316519 C96.5003,289.433323 100.5273,236.994323 100.7503,232.183323 C102.1973,200.997323 100.7503,166.933323 100.7503,166.933323" id="Fill-36"/>
            <path d="M71.5003,235.247723 C71.5003,235.247723 95.2403,237.351723 104.8323,237.347723 C104.8323,237.347723 107.3163,241.878723 107.3963,243.542723 C99.1783,243.979723 25.2073,242.367723 15.5983,240.743723 C14.9533,238.891723 14.4673,236.491723 14.2523,234.685723 C21.9493,231.734723 61.6703,234.528723 71.5003,235.247723" id="Fill-38"/>
        </g>
        <path d="M640.3882,496.0241 C623.6412,496.2421 541.0172,497.1731 541.5022,514.3071 C541.7122,521.7761 589.6872,524.6831 639.6362,524.3881 C639.6362,524.3881 643.1812,661.8201 643.6172,668.1381 C643.1872,693.4081 635.7912,703.0851 622.5492,713.6981 C604.9792,727.7801 575.3122,722.2811 576.8122,732.1141 C578.3002,741.8681 612.4792,734.9471 628.1452,720.9471 C635.5932,714.2911 643.0402,705.2931 646.4572,695.2461 C646.6072,696.2571 646.7432,697.2671 646.9062,698.2801 C651.9062,729.6131 712.9012,741.8321 714.5732,731.6131 C716.6452,718.9481 667.2402,730.2801 653.5732,694.6131 C648.2482,680.7171 651.3142,524.2611 651.3142,524.2611 C699.9372,523.4971 747.0572,519.8001 750.5092,514.4201 C759.6062,500.2431 666.5702,495.6841 640.3882,496.0241" id="Table-1" fill="#AA99F2"/>
        <path d="M596.6587,487.5827 C596.1797,484.4807 598.4227,485.0137 601.3377,486.2337 C601.8477,488.7747 602.6937,491.4287 603.6257,493.9157 C600.2307,492.4177 597.1347,490.6657 596.6587,487.5827 M637.6027,477.1197 C635.8617,474.2767 603.5837,473.7087 601.7887,477.1197 C601.1997,478.2427 600.9137,479.5897 600.8497,481.0727 C596.0957,479.1147 590.5637,479.5297 591.7157,487.6827 C592.6117,494.0387 598.7677,498.6087 606.3077,500.3247 C606.9327,501.6977 607.4787,502.8487 607.8527,503.6617 C610.1077,508.5767 629.3217,508.5337 631.5517,503.6617 C633.7597,498.8337 641.5697,483.5997 637.6027,477.1197" id="Cup-1" fill="#FFC5EB"/>
        <path d="M723.5776,487.2165 C724.0566,484.1145 721.8136,484.6475 718.8996,485.8675 C718.3886,488.4085 717.5426,491.0625 716.6106,493.5495 C720.0056,492.0515 723.1026,490.2995 723.5776,487.2165 M682.6346,476.7535 C684.3746,473.9105 716.6536,473.3425 718.4486,476.7535 C719.0366,477.8765 719.3236,479.2225 719.3866,480.7065 C724.1416,478.7485 729.6736,479.1635 728.5206,487.3165 C727.6246,493.6735 721.4686,498.2425 713.9296,499.9585 C713.3046,501.3315 712.7576,502.4825 712.3846,503.2955 C710.1286,508.2105 690.9156,508.1675 688.6846,503.2955 C686.4776,498.4675 678.6676,483.2335 682.6346,476.7535" id="Cup-2" fill="#FFC5EB"/>
        <g transform="translate(237.115931, 228.774500) scale(1 1)" id="Master/Characters/Red Sitting On Chair">
            <g id="Master/Characters/Red Sitting On Chair" stroke="none" stroke-width="1" fill="none" fill-rule="evenodd">
                <g id="Lower Sitting" transform="translate(-77.000000, 210.000000) scale(1 1)">
                    <g id="Lower Sitting/On Wooden Chair Blue" stroke="none" stroke-width="1" fill="none" fill-rule="evenodd">
                        <g id="Lower-Sitting" transform="translate(247.000000, 49.000000)">
                            <g id="Group-28" transform="translate(0.000000, 0.793000)">
                                <g id="Group-19" transform="translate(27.000000, 197.000000)" fill="#FA0000">
                                    <path d="M34.3803,15.5082 C24.9333,29.3942 32.5533,46.1452 41.4313,58.5432 C42.5213,60.0672 41.5573,60.5022 40.0313,59.3352 C24.0563,47.0992 12.0303,36.5722 14.1143,23.4542 C12.2383,25.8582 8.7853,31.1362 8.7853,31.1362 C5.3313,28.8162 2.5603,26.3362 0.0543,23.2222 C3.2583,17.1812 8.6873,7.9042 11.9933,0.9282" id="Fill-17"/>
                                </g>
                                <g id="Group-22" transform="translate(83.000000, 197.000000)" fill="#FA0000">
                                    <path d="M35.0473,15.5082 C25.6003,29.3942 33.2203,46.1452 42.0983,58.5432 C43.1883,60.0672 42.2243,60.5022 40.6983,59.3352 C24.7233,47.0992 12.6973,36.5722 14.7813,23.4542 C12.9053,25.8582 9.4523,31.1362 9.4523,31.1362 C5.9983,28.8162 3.2273,26.3362 0.7213,23.2222 C3.9253,17.1812 9.3543,7.9042 12.6603,0.9282" id="Fill-20"/>
                                </g>
                                <g id="Group-25" fill="#0042FF">
                                    <path d="M65.4496,34.0492 C177.4486,41.7162 194.1156,58.0492 200.4496,68.8172 C208.6696,82.7892 200.5956,109.9362 185.0626,139.3502 C162.4076,182.2542 131.7826,222.2332 131.7826,222.2332 C131.7826,222.2332 95.3456,208.3642 88.9076,203.8672 C86.3386,207.5922 75.1156,221.7162 75.1156,221.7162 C75.1156,221.7162 22.6216,205.3112 19.7816,192.7162 C17.1786,181.1732 59.5576,131.2912 76.5886,105.4812 C76.5886,105.4812 50.6546,107.8772 29.6446,105.5812 C18.4926,104.3622 -1.1324,97.8622 0.4086,65.3632 C0.8886,55.2062 2.1666,43.8052 3.9896,32.8202 C9.9636,-3.1658 46.4076,-4.4488 62.4496,7.7332 C69.1046,12.7862 65.4496,34.0492 65.4496,34.0492" id="Fill-23"/>
                                </g>
                                <path d="M55.1157,47.0492 C55.1157,47.0492 147.1857,57.4672 155.3657,82.7992 C163.1157,106.7992 97.0597,195.3852 97.0597,195.3852 C150.8657,128.7992 168.0837,98.1082 164.1167,82.5492 C159.7827,65.5492 135.6157,54.0492 55.1157,47.0492" id="Fill-26" fill="#000"/>
                            </g>
                        </g>
                    </g>
                </g>
                <g id="Red Upper" transform="translate(-19.000000, 41.000000) scale(1 1)">
                    <g id="Red Upper/Taking a Pic Ligh Pink Shirt" stroke="none" stroke-width="1" fill="none" fill-rule="evenodd">
                        <g id="Group-53" transform="translate(124.000000, 76.000000)">
                            <path d="M224.0341,55.0997 C226.8011,45.0767 231.7261,35.0617 235.1571,25.2097 C236.8971,20.2147 242.4601,5.8747 232.9211,8.9617 C229.8111,9.9677 225.1341,12.6557 222.5201,14.5847 C217.6321,18.1997 210.9581,43.3417 208.9101,51.0867 C207.8521,55.0847 205.2841,64.8497 212.5221,62.6107 C216.5931,61.3527 220.8981,57.2417 224.0341,55.0997" id="Fill-1" fill="#000"/>
                            <path d="M235.077,13.0313 C235.962,13.6353 234.477,17.7783 232.82,17.5733 C230.732,17.3133 233.488,11.9483 235.077,13.0313" id="Fill-3" fill="#FFC5EB"/>
                            <g id="Group-7" transform="translate(234.000000, 0.565000)" fill="#FFC5EB">
                                <path d="M1.1571,12.3599 C21.2351,3.7629 44.3271,3.8049 65.7661,0.4349 C59.1981,6.5539 50.0671,5.2679 43.0981,9.7599 C54.7961,10.6109 67.3601,8.9949 78.8331,11.3469 C71.4421,13.1109 63.5251,13.1649 56.0221,14.3599 C51.7621,15.0399 46.8351,16.5299 42.5331,16.3619 C50.8861,17.4939 60.7201,21.5029 68.6361,24.3689 C58.5171,24.5439 48.0111,20.2439 38.0911,19.9349 C49.6201,24.6359 61.8251,29.5539 73.7741,32.7469 C64.2281,33.6899 54.7471,30.1909 45.6921,27.7119 C37.5241,25.4739 29.2121,23.6689 21.0441,21.3719 C16.0581,19.9689 -4.2589,14.6789 1.1571,12.3599" id="Fill-5"/>
                            </g>
                            <path d="M59.7352,174.2755 C68.1792,173.0455 79.0832,174.9615 84.4812,176.9915 C93.1592,180.2555 106.4412,192.4625 104.7652,195.3455 C102.8702,198.6075 92.2952,186.6855 89.8592,184.9945 C93.2822,186.4375 102.2252,200.8715 98.5842,202.5435 C96.4642,203.5145 94.0692,197.9535 94.0692,197.9535 C96.1852,202.1275 98.1322,206.7875 95.6682,207.5155 C92.5432,208.4385 91.0722,196.1255 86.2102,194.1385 C82.5582,192.6455 76.5892,192.3285 72.6872,191.8595 C68.4342,191.3465 63.2992,190.1865 60.2592,187.0265 C56.3582,182.9745 50.5142,175.6195 59.7352,174.2755" id="Fill-8" fill="#FA0000"/>
                            <g id="Group-12" transform="translate(0.000000, 60.565000)" fill="#FFC5EB">
                                <path d="M28.3573,67.5249 C37.3573,58.5249 52.1803,47.2359 67.6903,42.8589 C70.7943,65.1359 58.7190146,117.148107 98.9583,121.8789 C124.170966,124.843066 147.0243,120.5249 146.3593,49.6749 C157.0243,77.5249 180.3573,100.8589 195.0243,97.5249 C211.1953,93.8489 220.3413,18.4039 210.3573,11.5249 C195.3573,1.1919 196.1903,45.3589 186.8573,66.0249 C158.1903,42.0249 167.2663,16.9549 146.2743,7.7219 C123.9393,-2.1001 96.7803,-1.0551 70.3183,7.0559 C55.2603,11.6709 1.0243,43.5249 0.0063,65.8749 C-0.4327,75.5309 20.6903,111.5249 57.9703,124.9979 C67.3573,123.6919 69.8573,113.5249 69.8573,113.5249 C53.8573,102.2749 32.2913,80.1179 28.3573,67.5249 Z" id="Fill-10"/>
                            </g>
                            <path d="M122.7343,62.5431 C122.6273,55.6821 122.4843,50.3991 123.0213,46.9871 C123.1683,46.0561 120.4903,41.2691 110.8273,40.9851 C99.4943,40.6511 96.5593,44.9351 97.0053,46.8311 C98.3793,52.6791 96.8473,55.6851 97.2263,58.4411 C97.2263,58.4411 97.2223,71.2581 111.6033,71.4081 C123.5663,71.5321 122.7343,62.5431 122.7343,62.5431" id="Fill-13" fill="#FA0000"/>
                            <path d="M102.494,43.4015 C104.244,42.7355 107.294,42.2625 108.149,42.2355 C116.816,41.9425 120.353,44.8995 120.681,45.4955 C121.181,46.4035 120.984,47.3875 120.348,48.1385 C119.692,48.9135 115.259,51.2075 109.536,50.9015 C104.077,50.6095 99.702,49.2765 98.994,47.2355 C98.199,44.9435 100.733,44.0715 102.494,43.4015" id="Fill-15" fill="#FA0000"/>
                            <path d="M108.7958,45.1886 C109.8018,45.0846 111.3538,45.0186 112.1468,45.6936 C113.1038,46.5036 112.8098,47.3056 111.6078,47.6166 C110.6848,47.8556 108.3948,47.8736 107.6378,47.2936 C106.4948,46.4186 107.5958,45.2726 108.7958,45.1886" id="Fill-17" fill="#FFC5EB"/>
                            <path d="M119.202,67.7677 C119.425,65.2087 122.764,62.0277 122.607,52.7777 C126.166,53.2007 128.606,59.8547 129.076,63.0587 C129.411,65.3427 130.096,74.8367 129.826,77.0367 C128.82,75.1217 121.679,69.6677 119.576,70.0277 C117.717,70.3457 112.701,79.2517 110.824,81.5387 C109.407,79.8817 94.373,64.9967 91.69,62.9237 C91.003,62.3927 92.086,52.9647 97.69,52.5067 L97.357,55.0277 C100.504,55.6487 117.35,61.1107 119.202,67.7677" id="Fill-19" fill="#FFC5EB"/>
                            <path d="M203.369,71.3253 C208.11,66.4753 214.926,63.4953 218.795,58.1453 C224.95,49.6353 216.247,38.7103 218.995,37.2113 C221.421,35.8873 223.815,42.6903 225.832,47.8703 C224.322,41.7233 220.653,33.7213 222.745,32.7253 C224.301,31.9853 225.945,35.6343 228.015,39.4293 C228.015,39.4293 224.935,30.2353 227.044,29.3553 C230.221,28.0293 235.013,43.8993 235.201,50.2663 C235.733,68.2333 214.879,77.2203 207.392,79.8423 C201.25,81.9913 198.701,76.0993 203.369,71.3253" id="Fill-21" fill="#FA0000"/>
                            <path d="M150.9823,71.3429 C150.9833,70.9289 150.6493,70.5919 150.2353,70.5899 L150.2323,70.5899 C149.8193,70.5899 149.4833,70.9239 149.4823,71.3379 C149.4593,78.0939 145.9743,85.1879 142.7213,89.5719 C140.4873,92.5859 140.0353,95.7519 139.7083,99.2799 C139.6793,99.5929 139.6553,99.9119 139.6303,100.2359 C139.5333,101.4989 139.4333,102.8059 139.0313,103.9119 C138.5693,105.1859 137.5463,105.6129 136.2523,106.1529 C135.7763,106.3509 135.2843,106.5559 134.7893,106.8179 C131.7263,108.4389 129.4673,110.3419 127.9243,112.5859 C127.8363,108.2479 127.6943,103.5569 127.4823,98.4649 C127.2753,93.4899 126.1903,78.5069 123.6073,73.5899 C124.0873,77.5729 125.0813,92.1119 125.4403,96.0069 C125.8323,100.2429 125.9173,103.6799 126.1903,107.9239 C126.4263,111.5819 125.8983,137.9669 125.5453,147.7719 C125.3483,153.2289 124.9393,158.6759 124.7593,164.1329 C124.5973,169.0689 125.1363,174.3179 123.3403,179.0319 C126.6073,176.0899 126.3853,160.3969 126.7743,155.4239 C127.3693,147.8209 128.2903,135.8029 127.9753,115.4359 C128.0363,115.3749 128.0913,115.3069 128.1293,115.2239 C128.4043,114.6289 128.7403,114.0629 129.1123,113.5119 C129.2403,117.4729 130.7273,121.4159 129.6413,125.3389 C129.3793,126.2869 130.6273,126.0509 130.8233,125.3419 C132.0393,120.9469 130.2513,116.7229 130.3573,112.2979 C130.3603,112.1739 130.3383,112.0809 130.3023,112.0079 C131.1583,111.0729 132.1853,110.2069 133.3883,109.4039 C133.5483,113.2039 134.8243,116.9549 134.2323,120.7579 C134.0913,121.6629 135.3803,121.0759 135.4823,120.4229 C136.1003,116.4529 134.6943,112.5939 134.6213,108.6369 C134.9073,108.4709 135.1883,108.3039 135.4913,108.1439 C135.9243,107.9139 136.3843,107.7219 136.8293,107.5369 C137.1953,107.3849 137.5643,107.2299 137.9213,107.0539 C137.7983,108.7329 137.7873,110.3969 137.8963,112.0839 C138.0263,114.0999 139.2533,116.9239 138.2163,118.7929 C137.7353,119.6579 138.8473,119.8599 139.2483,119.1389 C140.0023,117.7799 139.8833,116.4079 139.6483,114.9139 C139.1883,111.9869 138.9643,109.1739 139.2163,106.2149 C139.7213,105.7779 140.1533,105.2149 140.4413,104.4239 C140.7633,103.5369 140.9113,102.5999 141.0083,101.6579 C142.0243,105.8359 142.8023,110.0309 142.6073,114.3829 C142.5653,115.3089 143.8273,114.7229 143.8573,114.0479 C144.1103,108.4249 142.8073,103.0469 141.3943,97.6449 C141.6933,95.2479 142.2213,93.0379 143.5893,90.9749 C143.8053,93.2469 144.0223,95.5199 144.2383,97.7909 C144.5213,100.7619 145.3513,103.6329 145.3573,106.6329 C145.3583,107.5609 146.6083,106.9769 146.6073,106.2979 C146.6033,103.9489 146.1753,101.6799 145.7753,99.3719 C145.2023,96.0689 145.0473,92.6639 144.7323,89.3259 C145.4823,88.2249 146.2283,86.9979 146.9313,85.6779 C147.3953,90.4379 147.6923,95.2109 148.6133,99.9159 C148.7743,100.7399 149.9773,99.9089 149.8513,99.2649 C148.8323,94.0529 148.5763,88.7579 148.0123,83.4889 C148.5163,82.3869 148.9773,81.2399 149.3803,80.0639 C150.8323,84.6289 151.3463,90.0619 150.7323,94.6329 C150.6093,95.5429 151.8943,94.9569 151.9823,94.2979 C152.6883,89.0489 151.9373,82.8339 150.0623,77.8359 C150.3373,76.8009 150.5543,75.7509 150.7113,74.6969 C153.3803,78.9379 155.7453,83.4439 154.9823,88.6329 C154.8483,89.5409 156.1363,88.9529 156.2323,88.2979 C157.1123,82.3119 154.0763,77.2009 150.9473,72.3499 C150.9643,72.0139 150.9813,71.6779 150.9823,71.3429" id="Fill-23" fill="#FA0000"/>
                            <path d="M111.455,82.7208 C114.212,78.4998 118.839,69.5618 118.839,69.5618 C115.69,72.4238 111.357,78.2568 111.357,78.2568 C111.242,78.3208 93.792,64.5748 92.607,63.3398 C92.607,63.3398 94.44,66.6738 111.455,82.7208" id="Fill-25" fill="#FA0000"/>
                            <path d="M129.1698,63.9024 C129.3568,70.2774 128.9408,75.5074 128.9408,75.5074 C125.4238,71.6914 119.9518,69.2674 119.9518,69.2674 C123.4058,72.4144 130.4278,78.8514 130.4278,78.8514 C131.0448,69.4644 129.1698,63.9024 129.1698,63.9024" id="Fill-27" fill="#FA0000"/>
                            <path d="M121.1166,74.5645 C122.0396,72.8475 119.6566,71.7615 119.3346,73.6505 C119.0416,75.3605 120.2996,76.0855 121.1166,74.5645" id="Fill-29" fill="#FA0000"/>
                            <path d="M122.5497,89.8927 C123.6297,88.0657 121.4717,87.4557 121.0757,88.6427 C120.6737,89.8507 121.6327,91.4437 122.5497,89.8927" id="Fill-31" fill="#FA0000"/>
                            <path d="M122.535,102.2286 C121.264,102.4476 121.594,105.4726 123.13,105.0466 C124.548,104.6546 123.663,102.0356 122.535,102.2286" id="Fill-33" fill="#FA0000"/>
                            <path d="M123.9931,117.8692 C122.4001,117.1052 122.5551,119.9682 123.5981,120.2962 C125.1541,120.7862 125.1541,118.4242 123.9931,117.8692" id="Fill-35" fill="#FA0000"/>
                            <path d="M83.1679,85.6427 C81.7719,85.6427 78.1519,85.7727 79.4429,88.1017 C80.9969,90.9047 87.5999,91.5067 90.2549,91.2677 C92.7539,91.0417 95.5079,90.7097 96.7999,88.2687 C97.1639,87.5797 97.4369,86.7287 97.4389,85.9317 C104.6379,90.6947 112.9109,98.7607 114.6899,102.0897 C112.7819,97.9007 105.9119,86.9827 97.7509,83.8387 C99.5849,82.8417 99.7449,79.6507 98.9829,78.0447 C97.6289,75.1927 94.6929,72.8457 91.6989,71.9237 C90.4259,71.5317 86.3219,70.1427 86.3239,72.2677 C86.3259,74.4957 89.8229,76.8347 91.0489,78.4867 C88.7299,76.8217 86.7389,75.2337 83.9519,74.5487 C83.0039,74.3157 80.3929,73.5077 79.6689,74.6087 C78.4389,76.4767 84.1919,80.1587 85.4109,80.9047 C84.0179,80.3337 73.7899,77.6237 74.4079,81.1367 C74.8579,83.6887 81.0859,85.5167 83.1679,85.6427" id="Fill-37" fill="#FA0000"/>
                            <path d="M135.3632,86.3809 C133.4302,87.8219 130.7532,91.5349 130.1072,101.0899 C130.1072,101.0899 132.8922,92.3579 136.2692,87.1059 C140.3342,90.4199 150.0912,76.9519 141.3922,80.9429 C147.1072,76.8399 144.4402,73.5899 138.7152,78.8489 C143.2322,73.0899 139.1912,73.6319 136.7322,76.9649 C135.3742,68.4469 128.7832,87.5919 135.3632,86.3809" id="Fill-39" fill="#FA0000"/>
                            <path d="M117.0761,73.7677 C117.0761,73.7677 116.4821,84.9647 116.9821,90.0897 C117.2871,93.2167 118.4951,107.8357 119.2151,116.5647 C118.8861,116.3847 118.5541,116.2087 118.2101,116.0297 C117.8801,115.8577 117.5381,115.6797 117.1801,115.4867 C114.8181,114.2107 112.9661,112.0077 111.1751,109.8777 C110.8611,109.5047 110.5501,109.1347 110.2401,108.7747 C107.8471,105.9947 105.3081,104.9127 101.9861,104.0687 C100.4931,103.6887 98.8031,103.5937 97.0141,103.4947 C94.0821,103.3297 91.0511,103.1607 89.1401,101.6527 C88.4031,101.0697 87.8641,100.2447 87.2941,99.3717 C86.9801,98.8887 86.6551,98.3907 86.2921,97.9357 C85.2121,96.5787 83.4971,94.7057 81.4601,93.4957 C80.1271,92.7017 78.7101,92.2037 77.3401,91.7207 C76.1451,91.3007 75.0161,90.9047 73.9291,90.3247 C73.5411,90.1177 73.1421,89.9157 72.7411,89.7137 C71.5971,89.1347 70.4121,88.5377 69.4461,87.7787 C68.3491,86.9157 67.6281,85.7897 66.8631,84.5967 C66.6571,84.2757 66.4501,83.9537 66.2331,83.6307 C64.9161,81.6717 61.4181,76.4677 60.8141,73.0357 C60.7421,72.6267 60.3531,72.3537 59.9461,72.4257 C59.5381,72.4977 59.2651,72.8867 59.3371,73.2947 C59.4121,73.7247 59.5281,74.1757 59.6731,74.6427 C56.3831,80.2057 56.5771,87.2977 56.4398637,93.5487 C56.4201,94.4767 57.6761,93.8917 57.6911,93.2147 C57.8141,87.5837 57.5901,81.1677 60.1611,75.9907 C60.5631,76.9797 61.0711,78.0077 61.6281,79.0297 C60.1021,85.1757 60.6481,91.4877 60.3571,97.7577 C60.3141,98.6837 61.5761,98.0977 61.6081,97.4227 C61.8681,91.7927 61.4221,86.0957 62.4931,80.5467 C63.3281,81.9557 64.2091,83.3087 64.9891,84.4667 C65.1701,84.7367 65.3421,85.0057 65.5141,85.2747 C65.4391,85.3747 65.3771,85.4807 65.3571,85.5917 C64.4621,90.6407 65.4011,95.9107 64.6071,101.0077 C64.4661,101.9137 65.7561,101.3267 65.8581,100.6727 C66.5791,96.0377 65.8831,91.2617 66.4221,86.6367 C67.0011,87.4687 67.6511,88.2757 68.5201,88.9577 C68.8821,89.2427 69.2671,89.4967 69.6591,89.7397 C69.6391,89.7877 69.6141,89.8337 69.6071,89.8827 C68.8361,95.1117 69.4641,100.6187 69.4821,105.8827 C69.4851,106.8107 70.7351,106.2267 70.7331,105.5477 C70.7161,100.5587 70.1651,95.3557 70.7631,90.3747 C71.1961,90.6087 71.6331,90.8337 72.0651,91.0527 C72.4561,91.2497 72.8451,91.4467 73.2231,91.6487 C73.4561,91.7717 73.6911,91.8827 73.9271,91.9927 C73.8841,92.0917 73.8561,92.1937 73.8631,92.2907 C74.2961,98.0127 72.0781,103.6287 73.6131,109.2907 C73.8341,110.1077 75.0241,109.2757 74.8511,108.6397 C73.4041,103.2967 75.3131,97.9217 75.1441,92.5147 C75.7131,92.7367 76.2821,92.9397 76.8431,93.1367 C77.2761,93.2887 77.6991,93.4417 78.1171,93.5977 C78.1161,93.6097 78.1081,93.6217 78.1071,93.6327 C77.8261,96.9607 78.0961,100.2197 78.3631,103.5407 C78.6081,106.5767 79.9931,110.7987 78.2161,113.5427 C77.6771,114.3757 78.8061,114.5707 79.2481,113.8887 C80.5181,111.9267 80.2811,109.5277 80.0921,107.2947 C79.7181,102.8747 79.0531,98.5317 79.3131,94.0867 C79.7831,94.2947 80.2451,94.5177 80.6931,94.7847 C81.5281,95.2807 82.3041,95.9087 83.0021,96.5627 C82.9301,96.6637 82.8721,96.7707 82.8571,96.8827 C82.0551,102.8027 83.7311,108.9067 83.2321,114.8827 C83.1551,115.8037 84.4271,115.2167 84.4831,114.5477 C84.9531,108.9127 83.4941,103.1567 83.9961,97.5647 C84.4201,98.0227 84.8011,98.4707 85.1181,98.8697 C85.4371,99.2697 85.7291,99.7167 86.0381,100.1907 C86.5111,100.9137 86.9991,101.6547 87.6251,102.2937 C87.6201,102.3247 87.6061,102.3517 87.6071,102.3827 C87.6881,107.8887 88.7571,113.4127 87.7321,118.8827 C87.5641,119.7787 88.8621,119.1937 88.9831,118.5477 C89.9321,113.4797 89.0971,108.3887 88.9001,103.2907 C89.9961,103.9627 91.2641,104.3477 92.6131,104.5797 C92.6701,109.5217 93.1881,114.4417 93.2321,119.3827 C93.2401,120.3107 94.4891,119.7267 94.4831,119.0477 C94.4401,114.2777 93.9641,109.5277 93.8791,104.7597 C94.8831,104.8717 95.9101,104.9347 96.9301,104.9927 C97.2431,105.0097 97.5481,105.0277 97.8531,105.0467 C97.7231,109.7207 98.4311,114.3437 98.6071,119.0077 C98.6421,119.9337 99.8831,119.3537 99.8581,118.6727 C99.6871,114.1537 99.0211,109.6637 99.0981,105.1387 C100.0001,105.2187 100.8541,105.3287 101.6171,105.5217 C102.0461,105.6307 102.4581,105.7467 102.8601,105.8677 C102.8601,105.8727 102.8571,105.8767 102.8571,105.8827 C102.9481,108.4667 102.8731,111.0487 102.8571,113.6327 C102.8441,115.8237 103.4931,117.9387 103.4821,120.1327 C103.4771,121.0607 104.7291,120.4767 104.7331,119.7977 C104.7431,117.8707 104.3541,116.0057 104.1431,114.0967 C103.8611,111.5507 104.1411,108.8807 104.1201,106.2967 C105.2721,106.7327 106.3221,107.2797 107.3061,108.0407 C107.2871,108.1117 107.2731,108.1817 107.2801,108.2497 C107.7481,112.8657 107.8501,117.4967 107.8571,122.1327 C107.8581,123.0607 109.1091,122.4767 109.1081,121.7977 C109.1021,117.6177 109.0041,113.4437 108.6571,109.2777 C108.8061,109.4357 108.9561,109.5817 109.1031,109.7517 C109.4091,110.1097 109.7171,110.4747 110.0261,110.8437 C110.5391,111.4537 111.0591,112.0687 111.5951,112.6697 C111.5841,112.7127 111.5661,112.7557 111.5651,112.7997 C111.5291,117.3417 112.6381,121.8457 112.1071,126.3827 C112.0001,127.2967 113.2801,126.7107 113.3581,126.0477 C113.8291,122.0167 113.0141,118.0277 112.8471,114.0057 C113.8231,114.9827 114.8801,115.8667 116.0731,116.5707 C116.0731,116.5747 116.0711,116.5787 116.0721,116.5817 C116.6051,120.3147 116.9631,124.1177 116.6071,127.8827 C116.5201,128.8017 117.7941,128.2147 117.8581,127.5477 C118.1781,124.1607 117.9361,120.7287 117.5031,117.3537 L117.5161,117.3597 C118.1961,117.7147 118.7911,118.0367 119.3651,118.3887 C119.5081,120.1287 119.6231,121.5177 119.6911,122.3397 C120.4921,132.0137 118.8671,144.0157 118.5891,153.6957 C118.4511,158.5097 118.4031,172.3207 117.6901,174.7567 C117.0921,176.7987 116.8951,181.7447 116.8951,181.7447 C119.5481,177.5267 119.6891,172.4687 119.6911,167.6407 C119.6931,161.4627 119.9781,151.3907 120.6901,145.2567 C123.5241,120.8397 117.0761,73.7677 117.0761,73.7677" id="Fill-41" fill="#FA0000"/>
                            <path d="M124.0546,133.8897 C123.0546,133.5197 122.2036,135.6947 123.2766,136.4047 C124.6406,137.3067 125.1586,134.2987 124.0546,133.8897" id="Fill-43" fill="#FA0000"/>
                            <path d="M122.8578,151.7852 C121.8868,151.7012 121.1638,154.2622 122.6538,154.4712 C123.8618,154.6402 124.8578,151.9572 122.8578,151.7852" id="Fill-45" fill="#FA0000"/>
                            <path d="M122.35,169.588 C120.774,169.682 120.848,171.907 122.346,172.14 C124.315,172.446 124.044,169.486 122.35,169.588" id="Fill-47" fill="#FA0000"/>
                            <path d="M58.3573,165.0899 C56.2403,163.8359 52.9913,170.8239 49.8013,173.2719 C46.3723,175.9029 45.6893,176.1169 41.9403,177.5899 C52.0243,179.0899 60.6073,166.4239 58.3573,165.0899" id="Fill-49" fill="#FA0000"/>
                            <path d="M205.6063,96.5899 C200.1273,96.3539 198.0263,92.2219 196.8783,88.1809 C193.2513,100.1659 210.9313,103.4279 213.9173,93.6459 C211.5073,95.6489 208.7653,96.7269 205.6063,96.5899" id="Fill-51" fill="#FA0000"/>
                        </g>
                    </g>
                </g>
                <g id="Red Head" transform="translate(177.000000, 111.000000) scale(1 1)">
                    <g id="Red Head/Long Straight Hair 2" stroke="none" stroke-width="1" fill="none" fill-rule="evenodd">
                        <path d="M50.9618,55.2482 C51.2598,52.9642 51.6908,51.4042 52.6578,50.6532 C55.0548,48.7922 61.8138,51.4852 63.2228,47.5382 C63.8478,45.7882 59.6578,40.1532 59.5928,38.3332 C59.5358,36.7542 70.3728,38.1802 68.9958,35.8192 C67.8288,33.8192 55.4958,35.8192 52.8298,18.4872 C52.0878,13.6602 47.6488,10.2622 36.3298,8.3192 C32.8048,7.7152 24.3268,6.8912 17.9368,11.0782 C12.1598,14.8642 10.6238,28.7052 17.7848,39.5332 C22.2708,46.3152 24.1758,51.2072 24.9838,54.9182 C25.1378,55.6222 26.6648,60.5442 38.4148,60.5442 C50.6658,60.5442 50.8988,55.7322 50.9618,55.2482" id="Fill-41" fill="#FA0000"/>
                        <g id="Group-6" transform="translate(4.000000, -2.000000)" fill="#000">
                            <g id="Group-5" transform="translate(0.000000, 0.982618)">
                                <path d="M40.1997851,11.6731247 C44.0926697,20.4969199 46.9809389,40.1613777 30.1536312,47.8496765 C29.2082882,53.586656 31.0145866,74.9351982 29.9024774,79.4902934 C28.3955543,85.6659416 14.4092989,82.9361114 10.3124774,71.0436524 C8.08725431,64.581609 9.69664815,47.2062958 3.90805431,37.3881849 C-2.16082723,27.0920765 -3.869678,1.73198494 19.2716374,0.118490964 C34.9275635,-0.974651205 51.334942,7.68174398 49.3056189,21.9924271 C47.0241374,14.0691633 40.1997851,11.6731247 40.1997851,11.6731247" id="Fill-3"/>
                            </g>
                        </g>
                    </g>
                </g>
                <g id="Red Expression" transform="translate(201.000000, 118.000000) scale(1 1)">
                    <g id="Red Expression/Confident" stroke="none" stroke-width="1" fill="none" fill-rule="evenodd">
                        <g id="Group-15" transform="translate(14.000000, 14.000000)">
                            <g id="Group-3" transform="translate(0.000000, 0.565700)" fill="#000">
                                <path d="M12.8111,1.6413 C10.9791,2.5243 8.5721,1.5023 6.7551,1.0023 C5.1091,0.5493 3.4831,0.2263 1.7911,0.5933 C-0.0109,0.9843 -0.9869,4.6473 1.4831,4.1113 C3.4741,3.6793 5.8411,4.8503 7.7641,5.2843 C9.7131,5.7233 11.5631,5.6873 13.3771,4.8133 C15.1841,3.9433 15.2301,0.4753 12.8111,1.6413" id="Fill-1"/>
                            </g>
                            <path d="M20.4518,9.5557 C21.0208,9.6377 21.6808,9.5627 22.1848,9.2617 C22.6898,8.9607 23.1558,8.3777 23.0448,7.7497 C22.9418,7.1717 22.2898,7.0557 21.8398,7.3247 C21.6368,7.4457 22.0888,7.2477 21.8318,7.3317 C21.6748,7.3827 21.4098,7.3697 21.1628,7.3347 C20.0778,7.1797 19.0518,9.3567 20.4518,9.5557" id="Fill-4" fill="#000"/>
                            <path d="M17.4381,5.376 L18.1881,5.376 C19.1111,5.376 19.9321,4.546 20.1981,3.714 C20.4341,2.974 20.1671,2.044 19.2541,2.044 L18.5041,2.044 C17.5821,2.044 16.7601,2.874 16.4951,3.706 C16.2581,4.446 16.5261,5.376 17.4381,5.376" id="Fill-6" fill="#000"/>
                            <path d="M13.4186,7.7295 C11.5226,8.0565 9.6376,7.6495 7.8476,7.0215 C6.6586,6.6045 5.1566,8.9605 6.5056,9.4335 C8.6886,10.1995 10.9126,10.5425 13.2076,10.1455 C14.4616,9.9285 15.1316,7.4335 13.4186,7.7295" id="Fill-8" fill="#000"/>
                            <path d="M6.4859,12.6455 C9.3819,12.4365 12.3329,13.5255 14.3159,15.6395 C15.2019,16.5835 17.0389,14.4625 16.1229,13.4875 C13.9229,11.1415 10.4949,9.9165 7.2849,10.1475 C6.0699,10.2355 4.9439,12.7555 6.4859,12.6455" id="Fill-10" fill="#FD839D"/>
                            <g id="Group-14" transform="translate(17.000000, 17.565700)" fill="#000">
                                <path d="M1.2252,3.616 C2.1822,3.887 3.4032,4.178 4.3962,3.863 C5.2742,3.585 6.0182,2.771 6.1012,1.832 C6.1722,1.009 5.5032,0.377 4.6792,0.638 C4.6422,0.65 4.6052,0.657 4.5672,0.665 C4.3542,0.706 5.0162,0.612 4.7562,0.637 C4.6832,0.643 4.6092,0.645 4.5352,0.646 C4.3242,0.651 4.1132,0.632 3.9032,0.608 C3.4762,0.56 4.1802,0.666 3.7002,0.57 C3.4682,0.524 3.2412,0.462 3.0142,0.397 C2.1252,0.146 1.2412,0.837 0.8292,1.575 C0.4912,2.183 0.3322,3.364 1.2252,3.616" id="Fill-12"/>
                            </g>
                        </g>
                    </g>
                </g>
                <g id="Accesories" transform="translate(86.000000, 25.000000) scale(1 1)" fill="#000">
                    <g id="Accesories/Bunny Ears" stroke="none" stroke-width="1" fill="none" fill-rule="evenodd">
                        <g id="Group-7" transform="translate(96.000000, 22.000000)" fill="#000">
                            <g id="Group-3" transform="translate(14.000000, 67.228300)">
                                <path d="M14.7504,4.7783 C12.0324,5.9833 10.5724,6.4043 7.9444,8.4343 C6.4304,9.6033 5.2804,10.7173 4.2074,12.1783 C3.3634,13.3273 2.2944,16.1513 1.2694,14.4883 C-0.5326,11.5693 3.9764,5.2323 6.0314,3.7963 C8.9794,1.7373 17.5934,-0.8617 16.1564,2.3563 C15.8914,2.9513 15.2444,4.5593 14.7504,4.7783" id="Fill-1"/>
                            </g>
                            <g id="Group-6" transform="translate(0.000000, 0.228300)">
                                <path d="M24.5683,56.2807 C26.4423,52.8847 30.9743,32.7917 32.7923,27.9907 C35.5653,20.6727 39.2583,12.4617 44.8113,6.7347 C46.2043,5.3007 50.4583,2.1677 52.6343,2.8837 C55.8383,3.9397 54.4243,10.8407 54.0833,13.1627 C52.8643,21.4267 50.0733,28.4907 46.6683,36.2447 C42.7333,45.2147 37.9803,53.7367 33.4193,62.3517 C32.1353,64.7787 29.9493,69.8417 29.9493,69.8417 C29.9493,69.8417 24.2883,72.0987 22.2063,71.8317 C19.7143,71.5107 19.9833,73.5967 18.6673,71.7627 C16.5123,68.7567 7.1283,49.4067 5.0063,44.0817 C0.5233,32.8297 -1.1977,19.3987 0.8653,7.4937 C1.3253,4.8407 2.4923,-0.4353 6.1923,1.0217 C9.5803,2.3557 10.9133,7.0377 12.2553,9.9417 C15.9713,17.9987 18.3853,26.0307 20.2763,34.6257 C21.7233,41.2007 22.8133,49.8027 24.5683,56.2807" id="Fill-4"/>
                            </g>
                        </g>
                    </g>
                </g>
            </g>
        </g>
        <g transform="translate(802.000000, 485.500000) scale(-1, 1) translate(-802.000000, -485.500000) translate(542.000000, 227.000000) scale(1 1)" id="Master/Characters/Pink Sitting On Chair">
            <g id="Master/Characters/Pink Sitting On Chair" stroke="none" stroke-width="1" fill="none" fill-rule="evenodd">
                <g id="Lower Sitting" transform="translate(-113.000000, 210.000000) scale(1 1)">
                    <g id="Lower Sitting/On Rock Blue" stroke="none" stroke-width="1" fill="none" fill-rule="evenodd">
                        <g id="Group-17" transform="translate(248.000000, 26.000000)">
                            <g id="Group-14" transform="translate(0.000000, 0.722000)">
                                <path d="M221.4618,243.0878 C222.2388,259.8648 238.3878,268.6918 252.9298,273.2788 C254.7158,273.8438 254.2058,274.7708 252.2858,274.753058 C232.1628,274.5538 216.2278,273.3518 210.0208,261.6078 C209.9628,264.6548 210.3688,270.9498 210.3688,270.9498 C206.2138,271.1668 202.5088,270.8468 198.6348,269.8588 C197.5718,263.1048 196.3468,252.4258 194.8048,244.8618" id="Fill-3" fill="#000"/>
                                <path d="M116.2577,234.2685 C106.2787,247.7795 113.2477,264.8115 121.6417,277.5425 C122.6717,279.1065 121.6917,279.5045 120.2127,278.2805 C104.7207,265.4365 93.1107,254.4555 95.6977,241.4245 C93.7317,243.7555 90.0777,248.8975 90.0777,248.8975 C86.7157,246.4465 84.0427,243.8605 81.6577,240.6505 C85.0927,234.7385 90.8757,225.6775 94.4477,218.8345" id="Fill-5" fill="#000"/>
                                <g id="Group-9" fill="#0042FF">
                                    <path d="M64.1168,56.501 C174.7828,63.501 191.9488,79.168 199.4408,92.154 C206.7638,104.848 203.2808,124.834 189.6138,146.5 C191.7898,150.327 241.2138,234.949 241.2138,234.949 C230.7808,246.75 184.8988,261.491 175.0158,251.811 C169.6268,246.534 161.0648,230.469 152.0618,212.384 L135.2808,240.834 C117.9478,242.834 75.6898,225.935 78.8668,214.059 C82.9308,198.872 116.6118,156.951 120.6138,150.167 L109.2558,131.489 C109.2558,131.489 56.4268,132.793 25.9838,128.326 C21.0898,127.608 6.8928,123.767 1.9728,108.793 C-1.8602,97.127 3.9378,75.461 10.6028,46.786 C16.8058,20.096 56.6108,-1.316 72.7498,0.371 L64.1168,56.501 Z" id="Fill-7"/>
                                </g>
                                <path d="M41.9608,67.9599 C41.9608,67.9599 122.9608,70.6269 149.2798,87.1679 C170.4158,100.4519 179.3218,134.0329 179.3218,134.0329 C179.3218,134.0329 161.7138,101.9959 145.6138,92.5009 C120.9608,77.9599 53.0118,70.7359 41.9608,67.9599" id="Fill-10" fill="#000"/>
                                <path d="M151.0477,209.1523 C135.6557,186.5003 123.9057,156.3753 123.9057,156.3753 C123.9057,156.3753 151.5307,197.6253 151.0477,209.1523" id="Fill-12" fill="#000"/>
                            </g>
                            <path d="M126.5033,92.7375 C126.5123,92.7395 126.5213,92.7425 126.5283,92.7445 C126.5263,92.7375 126.5243,92.7315 126.5223,92.7255 C126.5153,92.7285 126.5093,92.7335 126.5033,92.7375" id="Fill-15" fill="#FFC5EB"/>
                        </g>
                    </g>
                </g>
                <g id="Pink Upper" transform="translate(-55.000000, 41.000000) scale(1 1)">
                    <g id="Pink Upper/Shrug Red 2" stroke="none" stroke-width="1" fill="none" fill-rule="evenodd">
                        <g id="Group-32" transform="translate(105.000000, 116.000000)">
                            <g id="Group-3" transform="translate(0.000000, 51.577000)" fill="#FFC5EB">
                                <path d="M91.9849,15.1495 C75.1309,10.3115 78.0279,34.7055 66.8609,63.5395 C60.8989,49.0945 58.3639,29.0005 52.5969,18.5625 C47.8769,10.0175 38.3769,11.3305 33.1099,12.7345 C27.6319,14.1955 25.5279,17.6945 22.9939,17.0605 C21.4189,16.6675 20.6389,13.9455 21.2149,12.4945 C22.1119,10.2285 25.2879,8.1115 24.4389,7.0865 C22.5489,4.8025 16.7679,8.6485 17.2139,15.0175 C12.5449,9.4895 20.0039,3.2215 18.2799,2.0715 C14.9899,-0.1245 10.9879,6.8455 11.9889,13.3355 C8.5429,6.6055 13.7859,1.7335 11.4619,0.4845 C8.9869,-0.8455 5.2079,5.8835 7.8759,12.9745 C2.9169,7.2705 4.8739,0.4755 2.0939,0.3555 C-2.1611,0.1715 0.8719,10.9315 4.0959,15.2575 C12.7859,26.9205 27.4579,26.3515 37.2969,23.5895 C37.7499,23.4625 38.3489,23.2715 39.0319,23.0275 L39.0279,23.0395 C41.5279,58.7895 51.5279,95.2055 63.7799,95.0003699 C79.2849,94.7385 114.6719,21.6625 91.9849,15.1495" id="Fill-1"/>
                            </g>
                            <g id="Group-6" transform="translate(164.000000, 12.577000)" fill="#FFC5EB">
                                <path d="M84.2056,0.3751 C81.7346,1.6511 86.3656,6.9951 84.2626,14.2551 C83.7036,6.6991 77.4456,2.1801 75.7606,4.4271 C74.1746,6.5361 80.9806,8.7551 80.6806,16.3101 C78.8616,10.0001 72.3036,5.3561 70.2386,8.7311 C69.1586,10.4991 78.5606,13.0541 76.6466,20.0321 C74.3736,14.0641 67.5126,13.0031 66.7566,15.8691 C66.4166,17.1561 70.1876,17.7431 71.9536,19.4231 C73.0866,20.4981 73.5216,23.2951 72.2586,24.3141 C70.2256,25.9541 66.8886,23.9571 61.2606,24.6391 C55.9116,25.2861 48.3046,27.3611 43.5116,40.6141 C39.7866,50.9141 38.0406,65.9651 33.1946,77.7051 C27.6946,65.2051 24.5176,24.8121 7.6636,29.6491 C-15.0234,36.1621 20.3636,109.2381 35.8686,109.49992 C47.9906,109.7031 58.2296,71.8301 60.8676,36.4011 C61.3136,36.3531 61.7046,36.2991 62.0216,36.2481 C72.1116,34.6211 85.6646,28.9741 88.6506,14.7381 C89.7586,9.4591 87.9906,-1.5809 84.2056,0.3751" id="Fill-4"/>
                            </g>
                            <path d="M180.0868,5.4962 C186.9898,8.7902 193.0138,22.1212 192.1998,29.5322 C191.4438,36.4232 183.5278,46.5322 189.7778,63.0322 C190.6448,65.3222 169.5648,74.5642 168.7778,76.7822 C173.5278,110.2822 160.895782,146.57737 133.248498,146.57737 C116,146.57737 80.9651628,140.6162 98.7778,89.0322 C100.345926,84.4910288 77.8568,81.3142 76.2778,82.0322 C78.0128,72.4802 78.2198,73.1452 77.0278,67.7822 C75.6428,61.5582 67.4018,57.1302 64.6998,51.2822 C60.6288,42.4732 60.9238,25.2842 67.4078,17.9522 C74.2768,10.1842 95.4498,10.2822 104.2778,20.7822 C106.9938,24.0122 114.5648,15.2942 130.7518,13.5942 C140.8768,12.5322 149.8258,17.3002 151.6998,13.0322 C155.8718,3.5322 169.0978,0.2522 180.0868,5.4962 Z" id="Fill-7" fill="#FA0000"/>
                            <path d="M106.8257,38.7714 C108.0997,44.3994 109.5817,50.0174 112.4417,54.9834 C118.9497,66.2824 126.4357,65.2644 132.5457,58.6014 C136.0427,54.7894 137.5607,48.1534 138.1657,43.1554 C138.6767,38.9224 138.2217,37.5434 138.5557,33.8364 C140.6087,36.8444 141.7597,40.9734 143.2227,44.4154 C144.7707,48.0574 146.8717,52.2544 149.7427,55.0104 C152.0707,57.2464 154.9097,57.4744 157.1097,55.0914 C159.5857,52.4084 160.3757,48.4864 160.1997,45.0324 C159.9247,39.6394 158.7547,33.8454 156.7997,28.9064 C155.7507,26.2554 152.6637,19.5864 150.4497,17.7824 C151.1117,25.6824 155.9247,33.9084 156.6997,41.9074 C156.9507,44.5004 157.6777,51.2434 155.3327,53.1744 C152.4987,55.5094 150.1347,51.9584 148.6507,49.8874 C146.3777,46.7174 144.8127,42.9554 142.7987,39.5734 C141.7047,37.7354 140.6037,35.8274 139.7427,33.9684 C139.2057,32.8054 138.4997,30.8724 137.5017,30.0324 C136.1457,32.1114 137.9297,38.9914 134.6317,48.6174 C133.2087,52.7674 128.0507,62.2734 122.1777,60.5744 C115.0527,58.5134 112.8377,49.1014 111.0637,43.0194 C110.0947,39.6934 109.2257,34.0404 108.6887,30.6574 C107.8487,25.3614 106.4497,23.6574 106.4497,23.6574 C106.4497,23.6574 105.8657,34.5324 106.8257,38.7714" id="Fill-9" fill="#FFC5EB"/>
                            <path d="M78.5279,72.4491 C81.9919,70.7041 88.1899,72.7931 91.6319,73.5661 C94.6329,74.2411 99.2499,75.9681 101.0099,78.7491 C99.4349,79.0201 97.1269,77.7831 95.6769,77.2781 C93.8829,76.6541 92.0779,75.9731 90.2229,75.4541 C86.4139,74.3861 82.2989,73.6301 78.5279,72.4491" id="Fill-11" fill="#FFC5EB"/>
                            <path d="M185.6949,52.7822 C182.0499,53.6902 178.5639,55.5752 175.1579,57.2822 C172.8969,58.4152 170.1919,59.4382 168.3519,61.2412 C167.0519,62.5142 166.3569,64.2012 165.5519,65.7572 C169.1709,64.0112 172.8109,61.5852 176.3649,59.5702 C179.8479,57.5942 183.6259,56.3592 185.6949,52.7822" id="Fill-13" fill="#FFC5EB"/>
                            <path d="M143.0406,60.1825 C143.8776,60.0345 144.3726,59.1795 144.2726,58.0575 C144.1776,56.9795 143.5076,55.8025 142.2576,55.9505 C141.3066,56.0655 140.6886,56.9345 140.7576,58.0655 C140.8206,59.1335 141.5076,60.2135 142.6926,60.2135 C142.8046,60.2135 142.9206,60.2035 143.0406,60.1825" id="Fill-15" fill="#FFC5EB"/>
                            <path d="M143.8179,68.6406 C144.2169,68.6406 144.6199,68.4936 145.0129,68.2026 C145.6889,67.7036 145.9479,66.7806 145.6599,65.9026 C145.3799,65.0536 144.6689,64.5266 143.8019,64.5266 C143.7419,64.5266 143.6789,64.5296 143.6339,64.5336 C142.6049,64.5816 141.9309,65.3466 141.9579,66.4366 C141.9819,67.4966 142.7009,68.6406 143.8179,68.6406" id="Fill-17" fill="#FFC5EB"/>
                            <path d="M144.8218,72.454 C144.2248,72.454 143.7048,72.7 143.3538,73.145 C143.0578,73.522 142.8948,74.028 142.895795,74.567 C142.895795,75.661 143.6028,76.824 144.9138,76.824 C144.9138,76.824 147.0968,77.155 147.0518,74.372 C147.0168,72.251 144.8218,72.454 144.8218,72.454" id="Fill-19" fill="#FFC5EB"/>
                            <path d="M146.0445,85.4833 C146.9225,85.4833 147.5775,84.6803 147.6755,83.4853 C147.7615,82.4363 147.3575,81.2253 146.2695,81.0463 C144.9855,80.8313 144.1245,81.5513 143.9915,82.7413 C143.8685,83.8523 144.4785,85.1693 145.7115,85.4443 C145.8235,85.4693 145.9355,85.4833 146.0445,85.4833" id="Fill-21" fill="#FFC5EB"/>
                            <path d="M141.2408,50.8876 C141.3818,50.8876 141.5238,50.8666 141.6648,50.8236 C142.6328,50.5306 143.1758,49.6086 143.0148,48.5266 C142.8838,47.6366 142.2498,46.7356 141.2948,46.7356 L141.1508,46.7426 C140.1328,46.8416 139.4858,47.6706 139.5408,48.8056 C139.5908,49.8286 140.2398,50.8876 141.2408,50.8876" id="Fill-23" fill="#FFC5EB"/>
                            <g id="Group-27" transform="translate(116.000000, 0.577000)" fill="#FFC5EB">
                                <path d="M25.9341,22.0001 C25.8281,15.1381 25.6841,9.8561 26.2201,6.4441 C26.3681,5.5121 23.6901,0.7261 14.0281,0.4411 C2.6941,0.1081 -0.2409,4.3921 0.2051,6.2881 C1.5801,12.1351 0.0471,15.1421 0.4261,17.8981 C0.4261,17.8981 0.4221,30.7151 14.8021,30.8651 C26.7671,30.9891 25.9341,22.0001 25.9341,22.0001" id="Fill-25"/>
                            </g>
                            <path d="M121.6939,3.4355 C123.4439,2.7685 126.4949,2.2965 127.3499,2.2685 C136.0159,1.9765 139.5519,4.9335 139.8809,5.5285 C140.3809,6.4365 140.1839,7.4205 139.5489,8.1715 C138.8929,8.9465 134.4599,11.2405 128.7369,10.9355 C123.2779,10.6435 118.9029,9.3095 118.1939,7.2685 C117.3989,4.9775 119.9339,4.1055 121.6939,3.4355" id="Fill-28" fill="#FA0000"/>
                            <path d="M127.9966,5.2216 C129.0026,5.1186 130.5526,5.0526 131.3476,5.7276 C132.3026,6.5366 132.0096,7.3386 130.8076,7.6506 C129.8846,7.8886 127.5946,7.9076 126.8386,7.3276 C125.6956,6.4526 126.7956,5.3056 127.9966,5.2216" id="Fill-30" fill="#FFC5EB"/>
                        </g>
                        <path d="M237.006,113.7287 C238.251,111.9607 243.237,103.5977 239.514,102.2947 C235.447,100.8737 236.158,112.2367 237.006,113.7287" id="Fill-78" fill="#FA0000"/>
                        <path d="M229.8395,112.8947 C229.6685,109.9107 228.1785,99.6997 225.2725,99.1217 C219.0065,97.8737 227.1005,112.2327 229.8395,112.8947" id="Fill-80" fill="#FA0000"/>
                    </g>
                </g>
                <g id="Head" transform="translate(141.000000, 111.000000) scale(1 1)">
                    <g id="Head/Slick Blue 1" stroke="none" stroke-width="1" fill="none" fill-rule="evenodd">
                        <path d="M50.9618,55.2482 C51.2598,52.9642 51.6908,51.4042 52.6578,50.6532 C55.0548,48.7922 61.8138,51.4852 63.2228,47.5382 C63.8478,45.7882 59.6578,40.1532 59.5928,38.3332 C59.5358,36.7542 70.3728,38.1802 68.9958,35.8192 C67.8288,33.8192 55.4958,35.8192 52.8298,18.4872 C52.0878,13.6602 47.6488,10.2622 36.3298,8.3192 C32.8048,7.7152 24.3268,6.8912 17.9368,11.0782 C12.1598,14.8642 10.6238,28.7052 17.7848,39.5332 C22.2708,46.3152 24.1758,51.2072 24.9838,54.9182 C25.1378,55.6222 26.6648,60.5442 38.4148,60.5442 C50.6658,60.5442 50.8988,55.7322 50.9618,55.2482" id="Fill-41" fill="#FFC5EB"/>
                        <g id="Group-7" transform="translate(3.000000, 5.000000)" fill="#0042FF">
                            <g id="Group-6" transform="translate(0.000000, 0.548300)">
                                <path d="M47.1043623,8.5943 C48.4263623,5.4343 42.1027956,2.2353 35.2113698,1.0943 C30.6434592,0.3343 15.3312941,-0.5817 7.46238955,3.7253 C0.929506212,7.3013 -1.51419076,13.5183 0.929506212,21.3013 C4.18443045,31.6783 16.5781805,34.4283 17.2041274,43.5513 C19.0168698,70.0003 37.0952198,51.6923 32.2298592,37.4283 C30.4832168,32.3013 27.1992486,31.9143 24.0925486,29.6783 C21.208185,27.5983 19.4335002,24.3863 21.9232668,23.3443 C24.7154911,22.1763 31.0430638,27.2623 33.5077926,28.2813 C37.4878138,29.9283 39.6030138,27.2993 36.6295153,24.5373 C32.6705259,20.8623 28.0555441,20.3173 26.2207683,19.4283 C22.2818092,17.5123 23.9132774,13.8503 26.0955789,12.3013 C30.8527759,8.9283 45.499935,12.4283 47.1043623,8.5943" id="Fill-4"/>
                            </g>
                        </g>
                    </g>
                </g>
                <g id="Expression" transform="translate(165.000000, 118.000000) scale(1 1)">
                    <g id="Expression/Gum" stroke="none" stroke-width="1" fill="none" fill-rule="evenodd">
                        <g id="Group-18" transform="translate(15.000000, 11.000000)">
                            <g id="Group-6" transform="translate(0.000000, 0.636880)" fill="#0042FF">
                                <path d="M10.4924,0.873787037 C8.5954,2.33332407 4.7464,1.85665741 2.7204,1.07036111 C1.0084,0.407305556 -1.1866,3.89063889 0.7664,4.64739815 C4.1294,5.95008333 8.9484,5.8054537 11.9084,3.53110185 C13.7184,2.13980556 12.6404,-0.777231481 10.4924,0.873787037" id="Fill-4"/>
                            </g>
                            <path d="M16.8625,5.68221296 L17.6125,5.68221296 C18.5355,5.68221296 19.3565,4.83684259 19.6225,3.98943519 C19.8585,3.23573148 19.5915,2.28850926 18.6785,2.28850926 L17.9285,2.28850926 C17.0065,2.28850926 16.1845,3.13387963 15.9195,3.98128704 C15.6825,4.73499074 15.9505,5.68221296 16.8625,5.68221296" id="Fill-7" fill="#0042FF"/>
                            <path d="M19.6828,12.5283889 C20.2528,12.6119074 20.9118,12.5345 21.4168,12.2289444 C21.9218,11.9233889 22.3868,11.3285741 22.2758,10.6889444 C22.1728,10.1002407 21.5208,9.98311111 21.0698,10.2560741 C20.8668,10.3782963 21.3198,10.1776481 21.0618,10.2632037 C20.9048,10.3151481 20.6408,10.3019074 20.3938,10.2662593 C19.3088,10.1083889 18.2828,12.3246852 19.6828,12.5283889" id="Fill-9" fill="#0042FF"/>
                            <path d="M12.6496,10.6693889 C10.7526,11.003463 8.8666,10.5858704 7.0766,9.94624074 C5.8876,9.52151852 4.3856,11.9211481 5.7346,12.4029074 C7.9186,13.1830926 10.1426,13.5344815 12.4386,13.1301296 C13.6926,12.9091111 14.3626,10.3679074 12.6496,10.6693889" id="Fill-11" fill="#0042FF"/>
                            <path d="M7.633,15.6755093 C10.529,15.4616204 13.48,16.570787 15.463,18.7239352 C16.349,19.6864352 18.185,17.5251389 17.27,16.5320833 C15.07,14.1426389 11.642,12.8959722 8.432,13.13125 C7.217,13.2208796 6.091,15.7885648 7.633,15.6755093" id="Fill-13" fill="#FA0000"/>
                            <g id="Group-17" transform="translate(21.000000, 19.988731)" fill="#0042FF">
                                <path d="M4.5217,0.7425 C2.7127,1.04601852 0.5327,2.87018519 0.9667,4.93166667 C1.2887,6.46046296 3.0327,6.72324074 4.2667,7.07666667 C5.1567,7.3312963 6.0407,6.62851852 6.4517,5.87685185 C6.7897,5.25861111 6.9497,4.0537037 6.0557,3.79805556 C5.7457,3.70944444 5.4307,3.63712963 5.1187,3.55259259 C4.9307,3.50064815 4.7467,3.44055556 4.5617,3.37638889 C4.4717,3.34481481 4.3817,3.30916667 4.2937,3.27046296 C3.9077,3.11055556 4.4587,3.40388889 4.1357,3.19101852 C4.0707,3.14518519 4.0097,3.09425926 3.9537,3.03824074 C4.0557,3.1787963 4.0697,3.18287037 3.9957,3.0525 C4.2157,3.4925 3.8767,3.98342593 3.5777,4.26861111 C3.7377,4.14333333 3.7297,4.14231481 3.5537,4.26555556 C3.6427,4.21157407 3.7337,4.1637037 3.8267,4.11888889 C3.6587,4.18 3.6647,4.17898148 3.8437,4.11685185 C3.9727,4.07407407 4.1057,4.04861111 4.2387,4.02722222 C5.9157,3.74509259 6.8097,0.358518519 4.5217,0.7425" id="Fill-15"/>
                            </g>
                        </g>
                        <g id="Group-6" transform="translate(40.000000, 16.000000)">
                            <g id="Group-3" transform="translate(0.000000, 0.761100)" fill="#FFC5EB">
                                <path d="M0.5586,17.4642 C11.0256,15.1422 9.2816,1.0272 21.4566,0.2692 C34.8106,-0.5608 37.4786,16.0852 29.7516,23.4562 C25.0666,27.9272 18.3126,25.6422 13.3746,23.1512 C8.8436,20.8642 4.4746,18.9502 -0.0004,17.4642" id="Fill-1"/>
                            </g>
                            <path d="M20.8945,5.3361 C23.9675,5.6301 30.0835,8.5511 29.1405,12.4731 C28.7575,14.0651 30.8205,13.6761 31.1095,12.4781 C32.3735,7.2231 26.0815,3.5431 21.6055,3.1141 C20.5135,3.0101 19.4895,5.2011 20.8945,5.3361" id="Fill-4" fill="#FFF"/>
                        </g>
                    </g>
                </g>
                <g id="Accesories" transform="translate(50.000000, 25.000000) scale(1 1)">
                    <g id="Accesories/Captain Cap" stroke="none" stroke-width="1" fill="none" fill-rule="evenodd">
                        <g id="Accesories" transform="translate(83.000000, 54.000000)">
                            <g id="Group-61" fill="#FA0000">
                                <path d="M68.3329,1.4904 C48.1659,-5.4266 24.4859,27.4624 24.4859,27.4624 C24.4859,27.4624 5.9349,18.1554 1.4999,30.5734 C-1.8341,39.9074 8.8329,46.9284 16.9579,47.1154 C25.2389,47.3064 34.2889,45.5024 42.2229,44.1364 C48.1309,43.1184 54.5919,40.5874 60.1019,36.8914 C72.4999,28.5734 87.1729,7.9514 68.3329,1.4904" id="Fill-59"/>
                            </g>
                            <path d="M64.4799,31.9948 C73.9579,39.9278 84.9269,38.5838 85.7019,40.6298 C87.6779,45.8468 19.4319,51.9688 14.2709,49.8658 C11.9889,48.9338 12.7079,45.7408 12.7119,44.5938 C18.6459,45.7408 23.0209,46.6158 36.3819,42.3478 C51.5479,37.5028 57.5869,26.2248 64.4799,31.9948" id="Fill-62" fill="#000"/>
                        </g>
                    </g>
                </g>
                <g id="Glasses" transform="translate(159.000000, 115.000000) scale(1 1)" fill="#000">
                    <g id="Glasses/None" stroke="none" stroke-width="1" fill="none" fill-rule="evenodd" fill-opacity="0"/>
                </g>
            </g>
        </g>
        <g id="Pets" transform="translate(895.664401, 499.067600) scale(1 1)" fill="#000">
            <g id="Pets/Cat 1" stroke="none" stroke-width="1" fill="none" fill-rule="evenodd">
                <path d="M256.435354,121.390343 C249.23649,122.913239 259.40024,139.173063 253.431403,147.829365 C246.713331,157.575299 231.732642,160.343204 221.712128,165.777422 C210.613838,171.799284 203.071407,180.976498 200.17864,192.999305 C198.199378,201.220352 194.167734,221.884522 194.167734,221.884522 C189.791521,210.437406 184.148221,196.084937 174.13572,188.500339 C162.66782,179.814157 150.664037,181.385857 137.760772,177.062188 C121.159412,171.499485 108.101893,163.592181 104.16841,145.856274 L104.16841,145.893126 C101.601179,135.068515 106.0435,124.698084 101.521047,114.041799 C99.2923742,116.846556 97.5054293,120.560669 95.4149841,123.807653 L91.4123876,122.141333 C91.4123876,122.141333 90.8404451,114.696176 87.7884152,110 C85.4215144,113.050771 83.7136998,116.618471 83.2088678,120.296727 C81.5321044,119.461076 73.201375,119.121438 71.3523277,121.222018 C67.5921307,125.492898 72.5913697,130.186086 75.2237079,132.952995 C82.2833425,140.377236 80.3822094,145.572411 80.0586762,155.226713 C79.8573444,161.255547 81.0853682,168.542339 84.12037,175.236506 C95.0323535,199.688492 81.8275914,227.227106 90.5058937,227.227106 C96.6960955,227.227106 101.066298,208.911523 100.280002,192.749307 C101.778471,193.780175 103.301982,194.836939 104.869566,195.910636 C104.921652,212.539978 100.58851,229 106.198756,229 C111.307175,229 115.177554,216.526001 115.932798,203.083882 C124.547997,208.238222 134.867003,213.230212 148.538534,216.937352 C135.403888,217.236154 121.715328,216.205286 121.715328,222.778937 C121.715328,228.754982 136.255291,227.883475 136.255291,227.883475 L194.100623,227.883475 C214.384051,227.883475 214.665515,193.963441 222.733812,183.025285 C231.74967,170.799292 249.21846,169.585159 258.79324,158.322305 C269.725256,145.463847 264.46659,119.69215 256.435354,121.390343" id="Fill-430" fill="#000"/>
            </g>
        </g>
    </g>
</svg>
