<svg viewBox="-45.5 53.908 429 467.638" xmlns="http://www.w3.org/2000/svg" overflow="visible">
    <g id="Master/Characters/Pink Sitting On Chair" stroke="none" stroke-width="1" fill="none" fill-rule="evenodd">
        <g id="Lower Sitting" transform="translate(-113.000000, 210.000000) scale(1 1)">
            <g id="Lower Sitting/On Wooden Chair Light Pink" stroke="none" stroke-width="1" fill="none" fill-rule="evenodd">
                <g id="Lower-Sitting" transform="translate(247.000000, 49.000000)">
                    <g id="Group-28" transform="translate(0.000000, 0.793000)">
                        <g id="Group-19" transform="translate(27.000000, 197.000000)" fill="#FA0000">
                            <path d="M34.3803,15.5082 C24.9333,29.3942 32.5533,46.1452 41.4313,58.5432 C42.5213,60.0672 41.5573,60.5022 40.0313,59.3352 C24.0563,47.0992 12.0303,36.5722 14.1143,23.4542 C12.2383,25.8582 8.7853,31.1362 8.7853,31.1362 C5.3313,28.8162 2.5603,26.3362 0.0543,23.2222 C3.2583,17.1812 8.6873,7.9042 11.9933,0.9282" id="Fill-17"/>
                        </g>
                        <g id="Group-22" transform="translate(83.000000, 197.000000)" fill="#FA0000">
                            <path d="M35.0473,15.5082 C25.6003,29.3942 33.2203,46.1452 42.0983,58.5432 C43.1883,60.0672 42.2243,60.5022 40.6983,59.3352 C24.7233,47.0992 12.6973,36.5722 14.7813,23.4542 C12.9053,25.8582 9.4523,31.1362 9.4523,31.1362 C5.9983,28.8162 3.2273,26.3362 0.7213,23.2222 C3.9253,17.1812 9.3543,7.9042 12.6603,0.9282" id="Fill-20"/>
                        </g>
                        <g id="Group-25" fill="#FFC5EB">
                            <path d="M65.4496,34.0492 C177.4486,41.7162 194.1156,58.0492 200.4496,68.8172 C208.6696,82.7892 200.5956,109.9362 185.0626,139.3502 C162.4076,182.2542 131.7826,222.2332 131.7826,222.2332 C131.7826,222.2332 95.3456,208.3642 88.9076,203.8672 C86.3386,207.5922 75.1156,221.7162 75.1156,221.7162 C75.1156,221.7162 22.6216,205.3112 19.7816,192.7162 C17.1786,181.1732 59.5576,131.2912 76.5886,105.4812 C76.5886,105.4812 50.6546,107.8772 29.6446,105.5812 C18.4926,104.3622 -1.1324,97.8622 0.4086,65.3632 C0.8886,55.2062 2.1666,43.8052 3.9896,32.8202 C9.9636,-3.1658 46.4076,-4.4488 62.4496,7.7332 C69.1046,12.7862 65.4496,34.0492 65.4496,34.0492" id="Fill-23"/>
                        </g>
                        <path d="M55.1157,47.0492 C55.1157,47.0492 147.1857,57.4672 155.3657,82.7992 C163.1157,106.7992 97.0597,195.3852 97.0597,195.3852 C150.8657,128.7992 168.0837,98.1082 164.1167,82.5492 C159.7827,65.5492 135.6157,54.0492 55.1157,47.0492" id="Fill-26" fill="#FA0000"/>
                    </g>
                </g>
            </g>
        </g>
        <g id="Pink Upper" transform="translate(-55.000000, 41.000000) scale(1 1)">
            <g id="Pink Upper/Arms Spread Red" stroke="none" stroke-width="1" fill="none" fill-rule="evenodd">
                <path d="M280.224174,154.672886 C280.224174,182.843005 282.978187,235.834544 256.332306,254.613959 C247.440978,260.881069 221.95933,259.762511 212.163715,255.44964 C196.831971,248.698453 193.126498,227.460801 190.920477,215.911669 C187.19995,196.444983 183.468382,152.903912 203.962898,140.9972 C218.150482,132.752943 282.794519,129.543689 281.992604,154.672886" id="Fill-3" fill="#FA0000"/>
                <g id="Group-250" transform="translate(15.000000, 17.000000)">
                    <path d="M392.1669,38.1591 C370.1779,24.4361 339.0109,69.0431 313.5069,84.6151 C288.4049,99.9431 266.1779,110.5851 237.2059,113.3401 C227.3169,113.3971 217.3599,114.6951 209.7489,116.3141 C205.6929,117.1771 198.8919,119.1651 191.8879,122.3521 C163.8689,134.5861 153.1839,163.9911 119.3479,184.2071 C95.7949,198.2781 28.4459,192.5421 41.1799,221.8901 C47.8479,237.2591 102.4999,240.7531 140.9219,218.6981 C158.3959,208.6691 174.5729,196.5881 185.6619,183.9561 C188.8389,207.8051 195.5739,230.9101 207.1669,236.0731 C223.1389,243.1851 243.3649,244.8941 257.1669,233.6861 C271.7479,221.8461 274.3829,177.8251 270.0709,146.9511 C370.7139,124.7111 409.0639,48.7051 392.1669,38.1591" id="Fill-1" fill="#FA0000"/>
                    <path d="M41.9149,208.4199 C30.0909,207.5169 17.5539,201.1219 15.9329,203.2179 C13.8329,205.9329 23.8479,210.2259 27.9769,211.6499 C19.3989,214.5199 0.5439,209.6169 0.0139,212.4759 C-0.5391,215.4499 15.8969,218.2749 19.9199,217.1749 C13.2509,218.8539 0.2299,217.9379 0.5969,220.8709 C0.9519,223.7009 14.7969,222.8989 22.2539,222.3299 C16.7259,224.8939 1.8209,224.8369 2.4289,227.3699 C3.1529,230.3879 17.3219,229.5689 25.7059,226.4459 C22.7339,229.5359 12.3209,231.6989 13.4949,233.6459 C15.2219,236.5129 36.3449,231.0089 50.9439,222.7179 C57.1979,219.1659 56.7299,209.5519 41.9149,208.4199" id="Fill-3" fill="#FFC5EB"/>
                    <path d="M350.8227,63.2119 C350.7467,61.9689 349.4687,61.2699 348.4517,60.7679 C348.0067,60.5499 347.3097,60.7679 346.9117,60.9669 C346.3357,61.2569 345.8547,61.7259 345.5387,62.2679 C344.9917,63.2049 344.9867,64.3339 346.0657,64.8659 C346.1087,64.8859 346.1307,64.8979 346.1587,64.9099 C346.1817,64.9249 346.2187,64.9469 346.2747,64.9819 C346.4257,65.0729 346.5627,65.1809 346.6967,65.2919 C346.7767,66.4699 348.2897,66.5069 349.1057,66.0979 C350.2357,65.5309 350.8967,64.4099 350.8227,63.2119" id="Fill-5" fill="#FFF"/>
                    <path d="M364.4784,59.5488 C365.0304,58.6028 365.0254,57.4898 363.9524,56.9488 C364.1664,57.0578 363.5944,56.7228 363.5324,56.6828 C363.2484,56.4958 362.9754,56.2928 362.6994,56.0968 C362.1414,55.6988 361.5694,55.3518 360.9524,55.0398 C359.8894,54.5068 358.4874,55.7708 358.0394,56.5398 C357.4874,57.4858 357.4924,58.5978 358.5654,59.1388 C358.3514,59.0298 358.9234,59.3638 358.9854,59.4048 C359.2694,59.5908 359.5424,59.7938 359.8184,59.9908 C360.3754,60.3898 360.9484,60.7358 361.5654,61.0468 C362.6274,61.5798 364.0294,60.3178 364.4784,59.5488" id="Fill-7" fill="#FFF"/>
                    <path d="M377.0995,49.0947 C377.7605,48.3427 378.2775,46.9707 377.3655,46.1937 C377.0215,45.8997 376.5815,45.7067 376.1495,45.5597 C375.9755,45.4987 375.7985,45.4467 375.6235,45.3867 C375.6025,45.3797 375.5825,45.3687 375.5615,45.3627 C375.5315,45.3427 375.4245,45.2877 375.3655,45.2387 C374.4545,44.4607 373.0395,45.2847 372.4175,45.9917 C371.7575,46.7437 371.2395,48.1167 372.1515,48.8947 C372.4955,49.1887 372.9355,49.3797 373.3675,49.5287 C373.5415,49.5877 373.7185,49.6407 373.8935,49.7007 C373.9145,49.7077 373.9345,49.7167 373.9555,49.7257 C373.9865,49.7427 374.0935,49.7997 374.1515,49.8487 C375.0625,50.6247 376.4775,49.8027 377.0995,49.0947" id="Fill-9" fill="#FFF"/>
                    <path d="M365.3656,69.579 C364.3436,68.933 363.1316,69.523 362.4176,70.334 C361.8476,70.982 361.1346,72.594 362.1516,73.236 C363.5606,74.126 364.9396,74.962 366.1516,76.1 C367.0216,76.917 368.5076,76.018 369.0996,75.346 C369.7906,74.558 370.2396,73.263 369.3656,72.444 C368.1536,71.306 366.7746,70.47 365.3656,69.579" id="Fill-11" fill="#FFF"/>
                    <path d="M350.8212,82.121 C350.8442,82.142 350.8532,82.151 350.8702,82.169 C350.8852,82.191 350.9052,82.218 350.9402,82.263 C351.0982,82.466 351.2302,82.684 351.3532,82.908 C351.9242,83.951 353.3792,83.529 354.1242,82.952 C354.9742,82.293 355.7332,80.99 355.1642,79.953 C354.4482,78.644 353.3052,77.671 351.9522,76.995 C351.5092,76.775 350.8072,76.997 350.4122,77.194 C349.8352,77.484 349.3542,77.954 349.0392,78.494 C348.7632,78.968 348.5932,79.537 348.6952,80.081 C348.7922,80.607 349.0972,80.859 349.5652,81.093 C349.3792,80.987 349.3772,80.988 349.5592,81.093 C349.6982,81.173 349.8292,81.267 349.9602,81.36 C350.1842,81.518 350.3892,81.701 350.5892,81.887 C350.6692,81.962 350.7462,82.04 350.8212,82.121" id="Fill-13" fill="#FFF"/>
                    <path d="M355.0126,93.1005 C354.9796,93.0685 354.8676,92.9435 354.8026,92.8715 C354.5576,92.5635 354.3496,92.2285 354.1646,91.8845 C353.5996,90.8375 352.1336,91.2675 351.3926,91.8415 C350.5386,92.5045 349.7906,93.7975 350.3526,94.8405 C350.8126,95.6935 351.4436,96.4235 352.1516,97.0995 C353.0136,97.9235 354.5126,97.0125 355.0996,96.3465 C355.7956,95.5535 356.2316,94.2705 355.3656,93.4435 C355.2466,93.3305 355.1286,93.2165 355.0126,93.1005" id="Fill-15" fill="#FFF"/>
                    <path d="M337.8227,81.3486 C337.7247,80.8236 337.4197,80.5706 336.9517,80.3366 C337.1387,80.4436 337.1407,80.4436 336.9577,80.3386 C336.8207,80.2576 336.6887,80.1686 336.5577,80.0786 C336.3397,79.9326 336.1327,79.7676 335.9277,79.6026 C335.5567,79.3036 335.2097,78.9756 334.8657,78.6476 C334.0027,77.8256 332.5047,78.7346 331.9177,79.4026 C331.2217,80.1946 330.7847,81.4766 331.6517,82.3046 C332.5367,83.1476 333.4507,83.8776 334.5657,84.4346 C335.0087,84.6546 335.7097,84.4336 336.1057,84.2346 C336.6817,83.9466 337.1627,83.4766 337.4787,82.9356 C337.7547,82.4616 337.9247,81.8926 337.8227,81.3486" id="Fill-17" fill="#FFF"/>
                    <path d="M335.5653,70.5937 C336.0163,70.8077 336.7023,70.5957 337.1053,70.3937 C337.6823,70.1047 338.1633,69.6347 338.4783,69.0937 C339.0203,68.1647 339.0393,67.0147 337.9523,66.4947 C337.7183,66.3847 337.4853,66.2727 337.2523,66.1587 C337.2113,66.1387 336.8783,65.9657 336.8013,65.9277 C336.4673,65.7427 336.1463,65.5367 335.8653,65.2837 C334.9793,64.4837 333.5223,65.3517 332.9183,66.0377 C332.2393,66.8097 331.7623,68.1377 332.6513,68.9407 C333.4643,69.6737 334.5763,70.1197 335.5653,70.5937" id="Fill-19" fill="#FFF"/>
                    <path d="M343.6645,100.4765 C343.1015,99.4565 342.2275,98.6325 341.6645,97.6125 C341.0905,96.5715 339.6405,96.9895 338.8935,97.5695 C338.0455,98.2255 337.2815,99.5325 337.8525,100.5685 C338.4155,101.5875 339.2895,102.4115 339.8525,103.4315 C340.4275,104.4725 341.8765,104.0545 342.6245,103.4755 C343.4715,102.8185 344.2365,101.5125 343.6645,100.4765" id="Fill-21" fill="#FFF"/>
                    <path d="M327.8119,92.912 C327.7829,92.872 327.7519,92.835 327.7239,92.796 C327.6009,92.634 327.4869,92.466 327.3709,92.301 C327.0659,91.864 326.7429,91.438 326.3659,91.058 C325.5269,90.213 323.9879,91.164 323.4179,91.811 C322.7049,92.624 322.3089,93.863 323.1519,94.714 C323.1759,94.739 323.1909,94.753 323.2059,94.768 C323.2349,94.808 323.2649,94.845 323.2939,94.884 C323.4159,95.046 323.5309,95.214 323.6469,95.38 C323.9509,95.816 324.2739,96.241 324.6519,96.623 C325.4899,97.469 327.0299,96.516 327.5999,95.868 C328.3129,95.057 328.7079,93.817 327.8659,92.967 C327.8409,92.942 327.8269,92.927 327.8119,92.912" id="Fill-23" fill="#FFF"/>
                    <path d="M313.8656,92.4892 C313.4956,92.1372 313.1266,91.7852 312.7816,91.4112 C312.7136,91.3252 312.6476,91.2352 312.5836,91.1472 C312.4256,90.9272 312.2916,90.6912 312.1646,90.4542 C311.6026,89.4052 310.1316,89.8372 309.3926,90.4092 C308.5366,91.0732 307.7936,92.3642 308.3526,93.4082 C308.9196,94.4652 309.7806,95.3132 310.6516,96.1452 C311.5146,96.9692 313.0126,96.0582 313.5996,95.3912 C314.2956,94.5992 314.7316,93.3162 313.8656,92.4892" id="Fill-25" fill="#FFF"/>
                    <path d="M321.1518,82.7812 C322.0328,83.5882 323.4998,82.7102 324.0998,82.0272 C324.7818,81.2502 325.2498,79.9332 324.3658,79.1262 C324.0878,78.8712 323.7698,78.6582 323.4678,78.4282 C323.2908,78.2952 323.1238,78.1492 322.9628,77.9982 C322.9348,77.9702 322.9208,77.9592 322.9038,77.9452 C322.8998,77.9402 322.8998,77.9382 322.8948,77.9312 C322.8058,77.8172 322.7348,77.6922 322.6648,77.5662 C322.0848,76.5292 320.6448,76.9392 319.8928,77.5222 C319.0498,78.1772 318.2758,79.4892 318.8528,80.5212 C319.4108,81.5192 320.3328,82.0322 321.1518,82.7812" id="Fill-27" fill="#FFF"/>
                    <path d="M332.4521,107.5419 C332.0061,107.3229 331.3101,107.5419 330.9121,107.7409 C330.3351,108.0299 329.8541,108.4999 329.5391,109.0399 C328.9921,109.9799 328.9861,111.1079 330.0651,111.6399 C330.1091,111.6609 330.1411,111.6769 330.1691,111.6899 C330.2531,111.7379 330.3351,111.7879 330.4171,111.8399 C330.5831,111.9419 330.7391,112.0599 330.8941,112.1769 C331.1631,112.3819 331.4081,112.6179 331.6521,112.8509 C332.5151,113.6739 334.0121,112.7639 334.5991,112.0969 C335.2951,111.3039 335.7321,110.0209 334.8661,109.1939 C334.1391,108.5019 333.3681,107.9929 332.4521,107.5419" id="Fill-29" fill="#FFF"/>
                    <path d="M325.1645,117.6591 C324.5905,116.6171 323.1405,117.0351 322.3935,117.6141 C321.5455,118.2721 320.7815,119.5781 321.3525,120.6141 C321.9155,121.6341 322.7895,122.4561 323.3525,123.4761 C323.9275,124.5181 325.3765,124.1011 326.1245,123.5211 C326.9715,122.8631 327.7365,121.5571 327.1645,120.5221 C326.6015,119.5031 325.7275,118.6801 325.1645,117.6591" id="Fill-31" fill="#FFF"/>
                    <path d="M366.4521,86.0644 C366.0051,85.8454 365.3111,86.0634 364.9121,86.2624 C364.3351,86.5514 363.8541,87.0224 363.5391,87.5624 C362.9931,88.5004 362.9841,89.6314 364.0651,90.1624 C364.0841,90.1704 364.0921,90.1734 364.1071,90.1824 C364.1951,90.2324 364.2831,90.2854 364.3691,90.3394 C364.5381,90.4514 364.6921,90.5824 364.8391,90.7164 C364.8431,90.7204 364.8471,90.7244 364.8501,90.7284 C364.8781,90.7614 364.9721,90.8684 365.0061,90.9174 C365.1381,91.1014 365.2461,91.3004 365.3531,91.5004 C365.9151,92.5474 367.3861,92.1154 368.1241,91.5434 C368.9801,90.8784 369.7241,89.5874 369.1641,88.5434 C368.5371,87.3734 367.6601,86.6544 366.4521,86.0644" id="Fill-33" fill="#FFF"/>
                    <path d="M382.0995,66.2763 C382.6695,65.6283 383.3835,64.0163 382.3655,63.3753 C381.1675,62.6193 379.9005,61.9513 378.8655,60.9893 C377.9925,60.1743 376.5125,61.0673 375.9175,61.7433 C375.2295,62.5253 374.7755,63.8293 375.6515,64.6443 C376.6865,65.6093 377.9535,66.2743 379.1515,67.0313 C380.1745,67.6763 381.3865,67.0883 382.0995,66.2763" id="Fill-35" fill="#FFF"/>
                    <path d="M319.0995,109.2324 C319.7955,108.4394 320.2315,107.1574 319.3655,106.3314 L317.8655,104.8984 C317.0025,104.0764 315.5045,104.9854 314.9175,105.6534 C314.2215,106.4454 313.7855,107.7274 314.6515,108.5544 C315.1515,109.0324 315.6515,109.5094 316.1515,109.9864 C317.0145,110.8104 318.5125,109.9004 319.0995,109.2324" id="Fill-37" fill="#FFF"/>
                    <path d="M294.9696,103.1747 C292.7826,103.1747 290.7566,107.4147 293.5476,107.4147 C295.7346,107.4147 297.7616,103.1747 294.9696,103.1747" id="Fill-39" fill="#FFF"/>
                    <path d="M305.6054,119.0761 C306.7034,118.5271 307.4424,117.3781 307.3224,116.1901 C307.2274,115.2431 306.4924,114.9941 305.8654,114.4441 C304.9654,113.6561 303.5314,114.5001 302.9174,115.1981 C302.2494,115.9591 301.7504,117.3111 302.6514,118.1001 C302.8154,118.2441 302.9854,118.3641 303.1734,118.4771 C303.2054,118.4961 303.2354,118.5141 303.2664,118.5351 C303.5714,119.4341 304.8304,119.4661 305.6054,119.0761" id="Fill-41" fill="#FFF"/>
                    <path d="M309.4091,129.9736 C309.3331,129.8446 309.2541,129.7186 309.1801,129.5906 C308.8121,128.9476 308.4011,128.3406 307.8661,127.8086 C307.0211,126.9676 305.4921,127.9106 304.9181,128.5626 C304.2081,129.3696 303.8041,130.6196 304.6521,131.4636 C304.6821,131.4936 304.7101,131.5246 304.7391,131.5546 C304.7471,131.5656 304.7521,131.5726 304.7631,131.5866 C304.8931,131.7556 305.0061,131.9376 305.1181,132.1196 C305.3201,132.4436 305.4981,132.7846 305.7001,133.1096 C305.9741,133.5496 306.2961,133.9166 306.7981,134.1196 C307.5721,134.4316 308.5361,134.0236 309.1241,133.5436 C309.9461,132.8726 310.7591,131.5886 310.1641,130.5446 C309.9831,130.2276 309.7121,130.0566 309.4091,129.9736" id="Fill-43" fill="#FFF"/>
                    <path d="M303.1645,95.2255 C302.6015,94.2055 301.7275,93.3835 301.1645,92.3625 C300.5905,91.3215 299.1405,91.7395 298.3935,92.3185 C297.5455,92.9765 296.7815,94.2815 297.3525,95.3175 C297.9155,96.3365 298.7895,97.1615 299.3525,98.1815 C299.9275,99.2225 301.3765,98.8055 302.1245,98.2245 C302.9715,97.5685 303.7365,96.2615 303.1645,95.2255" id="Fill-45" fill="#FFF"/>
                    <path d="M286.5995,107.3232 C287.3105,106.5132 287.7115,105.2682 286.8655,104.4212 C286.1605,103.7142 285.6755,102.4282 285.1645,101.4302 C284.6215,100.3712 283.1175,100.8252 282.3925,101.3862 C281.5225,102.0612 280.8125,103.3302 281.3525,104.3852 C282.0295,105.7072 282.5685,106.9912 283.6515,108.0782 C284.4935,108.9222 286.0275,107.9732 286.5995,107.3232" id="Fill-47" fill="#FFF"/>
                    <path d="M288.9179,117.1083 C288.2059,117.9193 287.8079,119.1603 288.6519,120.0093 C289.5689,120.9313 290.1529,122.3333 290.1749,123.4883 C290.2289,126.4383 294.3829,124.5843 294.3429,122.4203 C294.2999,120.1013 293.5559,118.0533 291.8659,116.3533 C291.0259,115.5083 289.4879,116.4593 288.9179,117.1083" id="Fill-49" fill="#FFF"/>
                    <path d="M287.393,129.5478 C286.537,130.2108 285.793,131.5008 286.353,132.5448 C286.622,133.0478 286.919,133.5368 287.195,134.0368 C287.345,134.3088 287.476,134.5878 287.598,134.8708 C287.606,134.8998 287.617,134.9368 287.632,134.9868 C287.674,135.1378 287.687,135.2908 287.695,135.4458 C287.754,136.6358 289.297,136.6638 290.105,136.2588 C291.245,135.6888 291.883,134.5748 291.823,133.3728 C291.755,132.0128 290.794,130.7658 290.164,129.5908 C289.603,128.5418 288.131,128.9738 287.393,129.5478" id="Fill-51" fill="#FFF"/>
                    <path d="M271.0653,135.5038 C270.5873,135.2518 270.8783,135.4178 270.9833,135.5048 C271.0103,135.5268 271.0233,135.5368 271.0423,135.5508 C271.2183,135.7838 271.3533,136.0438 271.4783,136.3048 C271.5303,136.4148 271.5773,136.5288 271.6233,136.6438 C271.6483,136.7208 271.6733,136.7998 271.6943,136.8778 C272.3893,139.4828 276.3643,136.8348 275.8223,134.8038 C275.6903,134.3088 275.5033,133.8178 275.2893,133.3488 C274.8993,132.4928 274.3033,131.8558 273.4523,131.4058 C273.0193,131.1788 272.2983,131.4108 271.9123,131.6058 C271.3353,131.8948 270.8543,132.3638 270.5393,132.9038 C270.2633,133.3778 270.0933,133.9478 270.1943,134.4908 C270.2943,135.0248 270.6003,135.2578 271.0653,135.5038" id="Fill-53" fill="#FFF"/>
                    <path d="M273.0478,124.12 C275.2348,124.12 277.2608,119.881 274.4698,119.881 C272.2828,119.881 270.2558,124.12 273.0478,124.12" id="Fill-55" fill="#FFF"/>
                    <path d="M274.3656,105.8535 C273.5036,105.0295 272.0046,105.9395 271.4176,106.6075 C270.7216,107.3995 270.2856,108.6825 271.1516,109.5095 C271.2706,109.6225 271.3886,109.7375 271.5046,109.8525 C271.5376,109.8845 271.6496,110.0095 271.7146,110.0815 C271.9596,110.3895 272.1676,110.7235 272.3526,111.0675 C272.9176,112.1145 274.3846,111.6865 275.1246,111.1125 C275.9786,110.4495 276.7266,109.1555 276.1646,108.1135 C275.7046,107.2595 275.0736,106.5295 274.3656,105.8535" id="Fill-57" fill="#FFF"/>
                    <path d="M258.8896,111.8632 C258.9216,111.9152 259.0666,112.2622 259.0976,112.3082 C259.1336,112.5072 259.1856,112.9002 259.1746,112.5092 C259.1886,113.0052 259.2206,113.4592 259.6516,113.8052 C260.0476,114.1222 260.5916,114.1512 261.0706,114.0282 C262.1436,113.7542 263.3756,112.5772 263.3426,111.4432 C263.2936,109.7492 262.5946,108.4912 261.3656,107.2852 C260.5146,106.4492 258.9956,107.3822 258.4176,108.0392 C257.7126,108.8422 257.2976,110.1022 258.1516,110.9412 C258.4596,111.2452 258.6396,111.4552 258.8896,111.8632" id="Fill-59" fill="#FFF"/>
                    <path d="M251.6518,127.1689 C252.4878,128.0169 254.0308,127.0619 254.5998,126.4149 C255.3048,125.6109 255.6918,124.3979 254.8928,123.5479 C254.8808,123.5229 254.8618,123.4879 254.8278,123.4299 C254.7528,123.3049 254.6988,123.1679 254.6428,123.0339 C254.4898,122.6709 254.3448,122.3079 254.1648,121.9539 C253.6248,120.8929 252.1158,121.3499 251.3928,121.9099 C250.5218,122.5869 249.8148,123.8509 250.3528,124.9089 C250.7688,125.7269 250.9808,126.4889 251.6518,127.1689" id="Fill-61" fill="#FFF"/>
                    <path d="M260.0702,146.0068 C261.1512,145.7308 262.3662,144.5578 262.3422,143.4218 C262.3112,141.8558 261.8942,140.5308 261.1642,139.1368 C260.6132,138.0818 259.1242,138.5268 258.3932,139.0928 C257.5292,139.7638 256.8032,141.0398 257.3532,142.0918 C257.8002,142.9458 258.1552,143.5688 258.1742,144.4878 C258.1962,145.5508 258.8772,146.3118 260.0702,146.0068" id="Fill-63" fill="#FFF"/>
                    <path d="M264.1747,155.9433 C264.1817,156.1543 264.1967,156.3533 264.2387,156.5433 C264.1467,156.3443 264.1877,156.3333 264.1747,155.9433 M264.3507,156.8553 C264.4197,156.9933 264.5077,157.1243 264.6517,157.2383 C265.0477,157.5543 265.5917,157.5833 266.0707,157.4623 C267.1407,157.1883 268.3817,156.0083 268.3427,154.8773 C268.3037,153.7073 267.7817,152.9283 266.4697,152.8123 C264.5057,152.6343 262.6657,155.9893 264.3507,156.8553" id="Fill-65" fill="#FFF"/>
                    <path d="M253.1645,150.5917 C251.7495,148.5447 248.1255,151.7707 249.3525,153.5457 C250.0865,154.6087 250.7635,155.7137 251.1945,156.9237 C251.5755,157.9907 252.5595,158.2607 253.6055,157.7367 C254.5085,157.2827 255.7075,155.9317 255.3225,154.8507 C254.7765,153.3187 254.0995,151.9447 253.1645,150.5917" id="Fill-67" fill="#FFF"/>
                    <path d="M247.6645,137.704 C247.1705,136.761 246.6795,135.806 246.3225,134.804 C245.9425,133.736 244.9585,133.467 243.9125,133.991 C243.0085,134.445 241.8095,135.797 242.1945,136.878 C242.6595,138.183 243.2075,139.427 243.8525,140.659 C244.4045,141.714 245.8935,141.269 246.6245,140.704 C247.4875,140.034 248.2145,138.756 247.6645,137.704" id="Fill-69" fill="#FFF"/>
                    <path d="M188.543983,214.972471 C188.049983,214.029471 187.558983,213.074471 187.201983,212.072471 C186.821983,211.004471 185.837983,210.735471 184.791983,211.259471 C183.887983,211.713471 182.688983,213.065471 183.073983,214.146471 C183.538983,215.451471 184.086983,216.695471 184.731983,217.927471 C185.283983,218.982471 186.772983,218.537471 187.503983,217.972471 C188.366983,217.302471 189.093983,216.024471 188.543983,214.972471" id="Fill-69-Copy" fill="#FFF"/>
                    <path d="M241.3119,121.5488 C241.2829,121.5098 241.2519,121.4728 241.2239,121.4338 C241.1009,121.2708 240.9869,121.1038 240.8709,120.9378 C240.5659,120.5008 240.2429,120.0748 239.8659,119.6948 C239.0269,118.8488 237.4879,119.8008 236.9179,120.4488 C236.2049,121.2608 235.8089,122.4998 236.6519,123.3508 C236.6759,123.3748 236.6909,123.3908 236.7059,123.4048 C236.7349,123.4448 236.7649,123.4828 236.7939,123.5218 C236.9159,123.6838 237.0309,123.8508 237.1469,124.0168 C237.4509,124.4528 237.7739,124.8788 238.1519,125.2598 C238.9899,126.1048 240.5299,125.1528 241.0999,124.5058 C241.8129,123.6948 242.2079,122.4538 241.3659,121.6038 C241.3409,121.5778 241.3269,121.5648 241.3119,121.5488" id="Fill-71" fill="#FFF"/>
                    <path d="M243.6054,117.6445 C244.1824,117.3555 244.6634,116.8855 244.9784,116.3455 C245.2544,115.8725 245.4244,115.3015 245.3224,114.7585 C245.2244,114.2295 244.9184,113.9855 244.4524,113.7465 C244.6454,113.8525 244.6554,113.8525 244.4814,113.7465 C244.3594,113.6665 244.2494,113.5735 244.1384,113.4795 C243.9494,113.3195 243.7814,113.1345 243.6154,112.9535 C243.1984,112.4955 242.8114,112.0155 242.3654,111.5815 C241.5124,110.7485 239.9984,111.6745 239.4184,112.3345 C238.7144,113.1345 238.2944,114.4005 239.1514,115.2365 C239.5974,115.6705 239.9904,116.1455 240.4014,116.6095 C240.8844,117.1525 241.4064,117.5065 242.0654,117.8435 C242.5044,118.0675 243.2134,117.8405 243.6054,117.6445" id="Fill-73" fill="#FFF"/>
                    <path d="M262.8529,171.6825 C263.3969,172.4885 264.0849,173.5315 263.7899,174.4955 C263.5009,175.4405 263.8119,176.6195 265.0479,176.620503 C266.2569,176.6225 267.4019,175.5675 267.7279,174.5055 C268.3609,172.4355 267.8699,170.5115 266.6649,168.7285 C265.2729,166.6705 261.6429,169.8935 262.8529,171.6825" id="Fill-75" fill="#FFF"/>
                    <path d="M251.1747,175.9882 C251.1767,178.9402 255.3447,177.0842 255.342701,174.9232 C255.3417,172.9742 255.1627,171.0422 253.3657,169.8092 C252.3707,169.1282 251.1067,169.7802 250.4177,170.5632 C249.8237,171.2392 249.1607,172.7862 250.1517,173.4652 C251.1747,174.1672 251.1737,174.9792 251.1747,175.9882" id="Fill-77" fill="#FFF"/>
                    <path d="M238.0702,172.2577 C239.1432,171.9817 240.3772,170.8057 240.3422,169.6727 C240.3002,168.2667 239.8912,167.0277 238.8652,165.9907 C238.0282,165.1437 236.4872,166.0987 235.9182,166.7447 C235.2032,167.5577 234.8092,168.7957 235.6522,169.6477 C235.6602,169.6547 235.6622,169.656703 235.6702,169.6647 C235.6802,169.6797 235.6842,169.6867 235.6992,169.7057 C235.8202,169.8717 235.9152,170.0557 236.0072,170.2367 C236.0282,170.2807 236.0412,170.3047 236.0542,170.3257 C236.0602,170.3527 236.0652,170.3717 236.0772,170.4127 C236.1042,170.4997 236.1872,171.1727 236.1742,170.7387 C236.1892,171.2327 236.2202,171.6887 236.6522,172.0337 C237.0482,172.3507 237.5912,172.3787 238.0702,172.2577" id="Fill-79" fill="#FFF"/>
                    <path d="M183.894464,201.600997 C184.967464,201.324997 186.201464,200.148997 186.166464,199.015997 C186.124464,197.609997 185.715464,196.370997 184.689464,195.333997 C183.852464,194.486997 182.311464,195.441997 181.742464,196.087997 C181.027464,196.900997 180.633464,198.138997 181.476464,198.990997 C181.484464,198.997997 181.486464,199 181.494464,199.007997 C181.504464,199.022997 181.508464,199.029997 181.523464,199.048997 C181.644464,199.214997 181.739464,199.398997 181.831464,199.579997 C181.852464,199.623997 181.865464,199.647997 181.878464,199.668997 C181.884464,199.695997 181.889464,199.714997 181.901464,199.755997 C181.928464,199.842997 182.011464,200.515997 181.998464,200.081997 C182.013464,200.575997 182.044464,201.031997 182.476464,201.376997 C182.872464,201.693997 183.415464,201.721997 183.894464,201.600997" id="Fill-79-Copy" fill="#FFF"/>
                    <path d="M236.6517,156.283 C237.5137,157.108 239.0137,156.195 239.5997,155.528 C240.2967,154.736 240.7307,153.455 239.8657,152.627 C239.7777,152.543 239.6897,152.458 239.6037,152.372 C239.5907,152.357 239.5867,152.353 239.5767,152.343 C239.5547,152.313 239.5307,152.285 239.5107,152.254 C239.4557,152.177 239.4167,152.091 239.3757,152.007 C239.3717,151.994 239.3707,151.988 239.3667,151.973 C239.3437,151.792 239.3357,151.789 239.3407,151.942 C239.3397,151.941 239.3397,151.94 239.3397,151.94 C239.3217,151.474 239.2757,151.046 238.8657,150.719 C238.4697,150.401 237.9257,150.372 237.4467,150.494 C236.3747,150.768 235.1387,151.946 235.1747,153.08 C235.1967,153.812 235.2697,154.442 235.6327,155.104 C235.8777,155.55 236.2817,155.93 236.6517,156.283" id="Fill-81" fill="#FFF"/>
                    <path d="M232.828,135.915 C232.795,135.557 232.688,135.226 232.366,134.968 C231.97,134.65 231.426,134.622 230.947,134.744 C229.851,135.024 228.671,136.19 228.675,137.328 C228.676,137.874 228.653,138.477 228.934,138.977 C229.284,139.597 229.843,139.806 230.548,139.87 C232.447,140.045 234.239,136.908 232.828,135.915" id="Fill-83" fill="#FFF"/>
                    <path d="M249.1645,184.0009 C248.6485,182.9259 247.0985,183.4099 246.3935,183.9579 C245.5035,184.6469 244.8385,185.8839 245.3525,186.9569 C245.4595,187.1789 245.5625,187.6419 245.6205,188.0799 C245.6985,188.6709 245.6745,188.7209 245.6745,189.3539 C245.6755,190.4199 246.3935,191.1729 247.5705,190.8709 C248.6675,190.5909 249.8435,189.4269 249.842501,188.2859 C249.842501,186.8189 249.8165,185.3589 249.1645,184.0009" id="Fill-85" fill="#FFF"/>
                    <path d="M263.1244,193.6816 C264.0134,192.9926 264.6794,191.7546 264.1644,190.6826 C264.0394,190.4216 263.9024,189.8316 263.8004,189.3486 C263.6564,188.6606 263.4724,187.9816 263.1644,187.3416 C262.6474,186.2666 261.0984,186.7516 260.3934,187.2986 C259.5044,187.9886 258.8374,189.2256 259.3534,190.2976 C259.4784,190.5576 259.6154,191.1486 259.7164,191.6316 C259.8604,192.3196 260.0454,192.9986 260.3534,193.6386 C260.8694,194.7126 262.4184,194.2286 263.1244,193.6816" id="Fill-87" fill="#FFF"/>
                    <path d="M267.8656,203.6962 C267.0296,202.8482 265.4866,203.8032 264.9176,204.4512 C264.2126,205.2532 263.8256,206.4672 264.6246,207.3182 C264.6366,207.3422 264.6556,207.3772 264.6896,207.4352 C264.7646,207.5602 264.8186,207.6972 264.8746,207.8312 C265.0276,208.1942 265.1726,208.5572 265.3526,208.9112 C265.8926,209.9722 267.4016,209.5152 268.1246,208.9552 C268.9956,208.2782 269.7026,207.0142 269.1646,205.9562 C268.7486,205.1382 268.5366,204.3762 267.8656,203.6962" id="Fill-89" fill="#FFF"/>
                    <path d="M273.1645,184.955 C272.7475,183.829 271.0295,184.418 270.3935,184.912 C269.4355,185.655 268.9355,186.784 269.3525,187.911 C269.9015,189.392 270.8045,190.723 271.3525,192.206 C271.7695,193.333 273.4875,192.744 274.1245,192.25 C275.0815,191.508 275.5815,190.377 275.1645,189.252 C274.6165,187.769 273.7135,186.438 273.1645,184.955" id="Fill-91" fill="#FFF"/>
                    <path d="M252.8656,202.2646 C252.0246,201.4206 250.4896,202.3686 249.9176,203.0186 C249.2066,203.8276 248.8056,205.0736 249.6516,205.9206 C250.3566,206.6276 250.8426,207.9126 251.3526,208.9106 C251.8956,209.9706 253.4006,209.5166 254.1246,208.9546 C254.9946,208.2806 255.7046,207.0126 255.1646,205.9556 C254.4886,204.6346 253.9486,203.3506 252.8656,202.2646" id="Fill-93" fill="#FFF"/>
                    <path d="M250.912,223.2431 C249.994,223.7041 248.829,225.0391 249.195,226.1301 C249.388,226.7061 249.536,227.2841 249.62,227.8851 C249.629,227.9421 249.663,228.4221 249.669,228.4021 C249.673,228.5911 249.674,228.7781 249.675,228.9681 C249.675,230.0361 250.393,230.7871 251.57,230.4871 C252.668,230.2061 253.844,229.0421 253.843001,227.9001 C253.842,226.5771 253.748,225.3241 253.323,224.0561 C252.961,222.9781 251.943,222.7271 250.912,223.2431" id="Fill-95" fill="#FFF"/>
                    <path d="M261.893,220.7079 C261.029,221.3799 260.304,222.6569 260.853,223.7079 C261.064,224.1119 261.272,224.5179 261.456,224.9349 C261.503,225.0389 261.526,225.0879 261.539,225.1099 C261.534,225.1139 261.539,225.1519 261.584,225.3109 C261.581,225.2999 261.686,225.9549 261.675,225.6269 C261.693,226.1219 261.718,226.5749 262.152,226.9219 C262.548,227.2389 263.091,227.2689 263.57,227.1459 C264.638,226.8719 265.884,225.6919 265.843,224.5599 C265.792,223.1639 265.313,221.9929 264.664,220.7529 C264.113,219.6969 262.624,220.1419 261.893,220.7079" id="Fill-97" fill="#FFF"/>
                    <path d="M240.369,202.2695 C240.462,202.3915 240.461,202.3785 240.365,202.2365 C240.353,202.1795 240.346,202.1225 240.34,202.0645 C240.334,201.5975 240.271,201.1575 239.866,200.8325 C239.47,200.5155 238.926,200.4875 238.447,200.6095 C237.351,200.8895 236.171,202.0555 236.17499,203.1935 C236.178,204.2905 236.363,205.0945 237.152,205.9205 C237.483,206.2665 238.148,206.2525 238.57,206.1445 C239.172,205.9905 239.703,205.6175 240.099,205.1665 C240.823,204.3415 241.19,203.1345 240.369,202.2695" id="Fill-99" fill="#FFF"/>
                    <path d="M239.8427,222.6513 C239.8047,220.8333 239.2047,219.3933 238.1647,217.8883 C236.7507,215.8423 233.1257,219.0673 234.3527,220.8443 C234.9667,221.7313 235.6537,222.7053 235.6747,223.7163 C235.7367,226.6693 239.8877,224.8133 239.8427,222.6513" id="Fill-101" fill="#FFF"/>
                    <path d="M239.9145,238.7031 C239.8965,238.6191 239.8305,237.9621 239.8425,238.4011 C239.8285,237.9071 239.7965,237.4521 239.3655,237.1061 C238.9695,236.7901 238.4265,236.7611 237.9475,236.8841 C236.8725,237.1581 235.6415,238.3341 235.6745,239.4671 C235.6855,239.8241 235.7065,240.1701 235.7535,240.5171 C235.5895,241.1151 235.6435,241.7421 236.1515,242.1951 C236.5705,242.5671 237.1935,242.7321 237.7495,242.5461 C238.8435,242.1791 239.5175,241.4741 239.9475,240.4581 C240.1255,240.0341 240.0895,239.5321 239.9985,239.0961 C239.9715,238.9671 239.9415,238.8361 239.9145,238.7031" id="Fill-103" fill="#FFF"/>
                    <path d="M236.3427,184.4687 C236.2917,183.0697 235.8137,181.9017 235.1647,180.6597 C234.6137,179.6067 233.1237,180.0497 232.3927,180.6167 C231.5297,181.2857 230.8037,182.5647 231.3527,183.6147 C231.5647,184.0207 231.7717,184.4247 231.9567,184.8427 C232.0027,184.9477 232.0257,184.9947 232.0387,185.0187 C232.0337,185.0217 232.0387,185.0607 232.0837,185.2197 C232.0807,185.2087 232.1867,185.8627 232.1747,185.5337 C232.1927,186.0307 232.2177,186.4827 232.6517,186.8287 C233.0477,187.1467 233.5917,187.1747 234.0707,187.0537 C235.1377,186.7797 236.3847,185.5997 236.3427,184.4687" id="Fill-105" fill="#FFF"/>
                    <path d="M221.0702,173.6894 C222.1382,173.4164 223.3842,172.2364 223.3422,171.1034 C223.2922,169.7064 222.8132,168.5374 222.1642,167.2954 C221.6132,166.2424 220.1242,166.6854 219.3932,167.2524 C218.5292,167.9224 217.8032,169.2014 218.3532,170.2514 C218.5642,170.6564 218.7722,171.0614 218.9562,171.4784 C219.0032,171.5844 219.0262,171.6314 219.0382,171.6554 C219.0342,171.6584 219.0392,171.6974 219.0842,171.8554 C219.0802,171.8434 219.1862,172.4994 219.1742,172.1704 C219.1932,172.6674 219.2182,173.1184 219.6522,173.4644 C220.0482,173.7824 220.5912,173.8114 221.0702,173.6894" id="Fill-107" fill="#FFF"/>
                    <path d="M220.0395,156.6425 L220.0395,156.6415 C219.9675,156.5705 219.9975,156.6125 220.0455,156.6825 C220.0715,156.7575 220.1295,156.9115 220.1425,156.9875 C220.1575,157.0725 220.1635,157.1615 220.1695,157.2485 C220.1725,157.2965 220.1745,157.3445 220.1745,157.3745 C220.1755,157.8655 220.2285,158.3305 220.6515,158.6685 C221.0475,158.9865 221.5915,159.0155 222.0705,158.8935 C223.1675,158.6135 224.3445,157.4475 224.342503,156.3075 C224.3415,155.1075 224.2365,154.0365 223.3655,153.1045 C223.0395,152.7555 222.3655,152.7725 221.9475,152.8805 C221.3455,153.0345 220.8145,153.4075 220.4175,153.8585 C219.6855,154.6915 219.3345,155.8865 220.1515,156.7605 C220.0975,156.7025 220.0645,156.6675 220.0395,156.6425" id="Fill-109" fill="#FFF"/>
                    <path d="M218.3227,140.0546 C218.2927,139.7186 218.1537,139.4006 218.0147,139.0926 C217.9577,138.9676 217.8877,138.8446 217.8247,138.7216 C217.8267,138.7006 217.8267,138.6706 217.8227,138.6226 C217.7177,137.4456 216.2527,137.3886 215.4117,137.8106 C214.3047,138.3656 213.5877,139.5046 213.6947,140.6956 C213.7247,141.0316 213.8647,141.3506 214.0027,141.6586 C214.0597,141.7826 214.1297,141.9066 214.1927,142.0296 C214.1907,142.0486 214.1907,142.0786 214.1947,142.1276 C214.2997,143.3056 215.7647,143.3616 216.6057,142.9406 C217.7127,142.3846 218.4297,141.2456 218.3227,140.0546" id="Fill-111" fill="#FFF"/>
                    <path d="M203.4565,131.3866 C203.5025,131.4906 203.5255,131.5396 203.5385,131.5626 C203.5345,131.5656 203.5395,131.6056 203.5835,131.7636 C203.5805,131.7526 203.6865,132.4066 203.6745,132.0786 C203.6925,132.5736 203.7185,133.0266 204.1515,133.3736 C204.5475,133.6906 205.0915,133.7186 205.5705,133.5976 C206.6385,133.3236 207.8845,132.1446 207.8425,131.0126 C207.7915,129.6146 207.3135,128.4456 206.6645,127.2036 C206.1135,126.1506 204.6235,126.5936 203.8935,127.1606 C203.0295,127.8306 202.3035,129.1086 202.8525,130.1596 C203.0645,130.5646 203.2715,130.9696 203.4565,131.3866" id="Fill-113" fill="#FFF"/>
                    <path d="M193.9936,122.8446 C194.0456,123.0206 194.0876,123.1996 194.1206,123.3796 C194.1476,123.5286 194.1586,123.6796 194.1706,123.8326 C194.1726,123.8836 194.1746,123.9336 194.1746,123.9646 C194.1756,124.4546 194.2286,124.9206 194.6516,125.2596 C195.0476,125.5766 195.5916,125.6066 196.0706,125.4836 C197.1676,125.2026 198.3446,124.0376 198.342603,122.8986 C198.3416,121.7176 198.1986,120.6476 197.6646,119.5676 C197.1366,118.4986 195.6066,118.9706 194.8926,119.5236 C194.0126,120.2066 193.3266,121.4576 193.8526,122.5226 C193.8566,122.5316 193.9636,122.7896 193.9936,122.8446" id="Fill-115" fill="#FFF"/>
                    <path d="M185.3227,131.4628 C184.8587,130.1588 184.3097,128.9148 183.6647,127.6818 C183.1127,126.6268 181.6237,127.0708 180.8927,127.6378 C180.0297,128.3078 179.3027,129.5858 179.8527,130.6368 C180.3467,131.5808 180.8377,132.5348 181.1947,133.5368 C181.5747,134.6058 182.5587,134.8748 183.6057,134.3498 C184.5087,133.8978 185.7077,132.5438 185.3227,131.4628" id="Fill-117" fill="#FFF"/>
                    <path d="M196.6244,141.6581 C197.4884,140.9881 198.2134,139.7101 197.6644,138.6591 C197.4534,138.2551 197.2454,137.8491 197.0614,137.4301 C197.0144,137.3271 196.9914,137.2781 196.9784,137.2551 C196.9834,137.2521 196.9784,137.2131 196.9334,137.0541 C196.9364,137.0661 196.8314,136.4111 196.8424,136.7401 C196.8244,136.2431 196.7994,135.7931 196.3654,135.4441 C195.9694,135.1281 195.4264,135.0981 194.9474,135.2211 C193.8794,135.4941 192.6334,136.6751 192.6744,137.8051 C192.7254,139.2041 193.2044,140.3741 193.8534,141.6141 C194.4044,142.6691 195.8934,142.2251 196.6244,141.6581" id="Fill-119" fill="#FFF"/>
                    <path d="M205.8529,152.5917 C206.4089,153.6827 206.7969,154.8407 207.3529,155.9327 C207.8939,156.9947 209.4019,156.5367 210.1239,155.9767 C210.9959,155.2997 211.7029,154.0357 211.1649,152.9787 C210.6089,151.8867 210.2199,150.7287 209.6649,149.6357 C209.1239,148.5747 207.6159,149.0317 206.8929,149.5927 C206.0209,150.2697 205.3139,151.5337 205.8529,152.5917" id="Fill-121" fill="#FFF"/>
                    <path d="M202.8227,163.4413 C202.4417,162.3733 201.4587,162.1033 200.4117,162.6293 C199.5097,163.0803 198.3087,164.4323 198.6947,165.5153 C199.1547,166.8033 199.7357,168.0463 200.1947,169.3333 C200.5757,170.4013 201.5587,170.6703 202.6057,170.1453 C203.5087,169.6943 204.7087,168.3403 204.3227,167.2593 C203.8637,165.9713 203.2817,164.7273 202.8227,163.4413" id="Fill-123" fill="#FFF"/>
                    <path d="M212.8227,182.5322 C212.4417,181.4652 211.4587,181.1952 210.4117,181.7202 C209.5097,182.1732 208.3087,183.5252 208.6947,184.6062 C209.1547,185.8942 209.7357,187.1372 210.1947,188.4242 C210.5757,189.4932 211.5587,189.7622 212.6057,189.2372 C213.5087,188.7852 214.7087,187.4322 214.3227,186.3512 C213.8637,185.0622 213.2817,183.8192 212.8227,182.5322" id="Fill-125" fill="#FFF"/>
                    <path d="M221.6747,196.9892 L221.6747,201.2852 C221.6747,204.2362 225.8427,202.3792 225.8427,200.2182 L225.8427,195.9242 C225.8427,192.9712 221.6747,194.8282 221.6747,196.9892" id="Fill-127" fill="#FFF"/>
                    <path d="M225.3485,215.1357 C225.3375,215.1197 225.3335,215.1137 225.3185,215.0917 C225.1965,214.9267 225.1015,214.7437 225.0105,214.5617 C224.9895,214.5187 224.9765,214.4957 224.9635,214.4717 C224.9565,214.4477 224.9525,214.4277 224.9395,214.3877 C224.9135,214.3007 224.8295,213.6257 224.8425,214.0607 C224.8275,213.5657 224.7975,213.1107 224.3655,212.7657 C223.9695,212.4487 223.4265,212.4187 222.9475,212.5417 C221.8735,212.8167 220.6405,213.9937 220.6745,215.1257 C220.7165,216.5317 221.1255,217.7717 222.1515,218.8077 C222.9895,219.6557 224.5305,218.6997 225.0995,218.0527 C225.8135,217.2397 226.2075,216.0017 225.3655,215.1527 C225.3575,215.1437 225.3555,215.1437 225.3485,215.1357" id="Fill-129" fill="#FFF"/>
                    <path d="M222.9472,228.7695 C222.3452,228.9225 221.8142,229.2955 221.4182,229.7475 C220.6862,230.5805 220.3342,231.7755 221.1522,232.6495 C221.0972,232.5905 221.0642,232.5555 221.0392,232.5315 L221.0392,232.5305 C220.9682,232.4595 220.9982,232.5015 221.0462,232.5705 C221.0712,232.6455 221.1292,232.8005 221.1422,232.8745 C221.1572,232.9605 221.1632,233.0505 221.1702,233.1375 C221.1732,233.1855 221.1752,233.2325 221.1752,233.2625 C221.1752,233.7525 221.2282,234.2195 221.6522,234.5585 C222.0482,234.8745 222.5912,234.9055 223.0702,234.7825 C224.1672,234.5005 225.3442,233.3375 225.343201,232.1975 C225.3422,230.9965 225.2362,229.9255 224.3652,228.9945 C224.0402,228.6445 223.3652,228.6625 222.9472,228.7695" id="Fill-131" fill="#FFF"/>
                    <path d="M210.1645,230.2978 C209.6005,229.2498 208.1335,229.6798 207.3935,230.2538 C206.5385,230.9178 205.7905,232.2108 206.3525,233.2538 C206.7985,234.0798 207.4065,234.8118 207.8525,235.6408 C208.4165,236.6868 209.8845,236.2568 210.6245,235.6828 C211.4785,235.0208 212.2265,233.7278 211.6645,232.6848 C211.2185,231.8578 210.6105,231.1258 210.1645,230.2978" id="Fill-133" fill="#FFF"/>
                    <path d="M207.5478,219.5781 C209.5678,219.7631 211.4608,216.2091 209.5168,215.4651 C209.3258,215.1831 209.1038,214.9221 208.8658,214.6751 C208.0418,213.8161 206.4778,214.7921 205.9178,215.4281 C205.1948,216.2531 204.8218,217.4681 205.6518,218.3311 C205.4298,218.1001 205.7208,218.4361 205.7478,218.4781 C205.8148,218.5791 205.8798,218.6751 205.9578,218.7661 C206.4048,219.3041 206.8168,219.5091 207.5478,219.5781" id="Fill-135" fill="#FFF"/>
                    <path d="M199.3817,220.622 C199.3517,220.55 199.3237,220.475 199.2957,220.401 C199.1107,219.87 198.9217,219.349 198.6647,218.844 C198.1247,217.781 196.6147,218.24 195.8927,218.799 C195.0207,219.476 194.3147,220.74 194.8527,221.799 C194.9547,221.998 195.0487,222.199 195.1357,222.404 C195.1657,222.477 195.1937,222.553 195.2217,222.627 C195.4067,223.158 195.5957,223.68 195.8527,224.185 C196.3927,225.245 197.9027,224.789 198.6247,224.227 C199.4967,223.551 200.2027,222.287 199.6647,221.229 C199.5627,221.03 199.4687,220.829 199.3817,220.622" id="Fill-137" fill="#FFF"/>
                    <path d="M207.1425,202.8769 C207.1485,202.9199 207.1635,203.1219 207.1695,203.1769 C207.1725,203.3419 207.1745,203.5069 207.1745,203.6709 C207.1745,204.1619 207.2285,204.6279 207.6515,204.9659 C208.0475,205.2829 208.5915,205.3119 209.0705,205.1899 C210.1675,204.9089 211.3435,203.7449 211.342501,202.6059 C211.342501,201.2609 211.3495,199.9789 210.3655,198.9239 C210.0395,198.5739 209.3645,198.5929 208.9475,198.6999 C208.3455,198.8549 207.8145,199.2269 207.4175,199.6779 C206.6855,200.5119 206.3345,201.7039 207.1515,202.5799 C206.9485,202.3629 206.9795,202.4059 207.0395,202.4949 C207.0485,202.5559 207.1295,202.7929 207.1425,202.8769" id="Fill-139" fill="#FFF"/>
                    <path d="M194.8656,202.7421 C194.6986,202.5821 194.5326,202.4251 194.3656,202.2641 C193.5026,201.4411 192.0046,202.3501 191.4176,203.0181 C190.7216,203.8111 190.2856,205.0941 191.1516,205.9211 C191.3186,206.0801 191.4856,206.2391 191.6516,206.3971 C192.5146,207.2211 194.0126,206.3111 194.5996,205.6431 C195.2956,204.8501 195.7316,203.5681 194.8656,202.7421" id="Fill-141" fill="#FFF"/>
                    <path d="M193.6747,186.9667 C193.6957,188.0287 194.3777,188.7897 195.5707,188.4857 C196.6517,188.2077 197.8657,187.0347 197.8427,185.8997 C197.8107,184.3337 197.3937,183.0107 196.6647,181.6137 C196.1127,180.5607 194.6237,181.0037 193.8927,181.5707 C193.0287,182.2407 192.3037,183.5197 192.8527,184.5707 C193.2997,185.4247 193.6557,186.0487 193.6747,186.9667" id="Fill-143" fill="#FFF"/>
                    <path d="M187.369,167.9042 C187.462,168.0272 187.461,168.0152 187.365,167.8722 C187.353,167.8152 187.346,167.7582 187.34,167.6992 C187.334,167.2332 187.271,166.7922 186.866,166.4682 C186.47,166.1512 185.926,166.1232 185.447,166.2442 C184.351,166.5242 183.171,167.6902 183.17499,168.8302 C183.178,169.9252 183.363,170.7302 184.152,171.5562 C184.483,171.9032 185.148,171.8882 185.57,171.7792 C186.172,171.6262 186.703,171.2542 187.099,170.8012 C187.823,169.9782 188.19,168.7692 187.369,167.9042" id="Fill-145" fill="#FFF"/>
                    <path d="M174.6947,181.7421 C175.1727,183.5971 175.6417,185.5251 175.6747,187.4431 C175.7237,190.3951 179.8797,188.5401 179.8427,186.3771 C179.8047,184.0961 179.3917,181.8801 178.8227,179.6691 C178.1507,177.0581 174.1707,179.7091 174.6947,181.7421" id="Fill-147" fill="#FFF"/>
                    <path d="M188.8275,150.1581 C188.7525,150.0321 188.6985,149.8951 188.6425,149.7621 C188.4895,149.3981 188.3445,149.0361 188.1645,148.6811 C187.6245,147.6211 186.1155,148.0781 185.3925,148.6381 C184.5215,149.3151 183.8145,150.5791 184.3525,151.6371 C184.7685,152.4551 184.9805,153.2181 185.6515,153.8961 C186.4885,154.7441 188.0315,153.7891 188.5995,153.1431 C189.3055,152.3411 189.6915,151.1271 188.8925,150.2741 C188.8805,150.2511 188.8625,150.2161 188.8275,150.1581" id="Fill-149" fill="#FFF"/>
                    <path d="M171.1645,155.8417 C170.6235,154.7797 169.1155,155.2367 168.3935,155.7967 C167.5215,156.4737 166.8145,157.7377 167.3525,158.7957 C167.9085,159.8877 168.2975,161.0457 168.8525,162.1367 C169.3935,163.1987 170.9015,162.7417 171.6245,162.1817 C172.4965,161.5047 173.2035,160.2397 172.6645,159.1827 C172.1085,158.0917 171.7205,156.9327 171.1645,155.8417" id="Fill-151" fill="#FFF"/>
                    <path d="M172.1645,137.2265 C171.6125,136.1725 170.1245,136.6165 169.3935,137.1835 C168.5295,137.8525 167.8025,139.1315 168.3525,140.1825 C168.8525,141.1365 169.3525,142.0915 169.8525,143.0455 C170.4055,144.0995 171.8935,143.6565 172.6245,143.0895 C173.4875,142.4195 174.2145,141.1405 173.6645,140.0905 C173.1645,139.1365 172.6645,138.1825 172.1645,137.2265" id="Fill-153" fill="#FFF"/>
                    <path d="M153.3529,161.1825 C153.7719,162.3075 155.4859,161.7215 156.1239,161.2265 C157.0809,160.4845 157.5829,159.3535 157.1649,158.2275 C156.7029,156.9875 155.7949,156.0365 155.1649,154.8865 C154.5929,153.8445 153.1389,154.2655 152.3929,154.8425 C151.5439,155.5005 150.7839,156.8035 151.3529,157.8415 C151.9839,158.9915 152.8909,159.9415 153.3529,161.1825" id="Fill-155" fill="#FFF"/>
                    <path d="M162.0995,148.8466 C162.8025,148.0466 163.2225,146.7816 162.3655,145.9456 C161.9205,145.5106 161.5265,145.0356 161.1155,144.5726 C160.6335,144.0296 160.1105,143.6746 159.4525,143.3376 C159.0135,143.1156 158.3035,143.3406 157.9125,143.5376 C157.3355,143.8256 156.8545,144.2956 156.5385,144.8366 C156.2635,145.3106 156.0935,145.8796 156.1945,146.4226 C156.2925,146.9516 156.5985,147.1976 157.0655,147.4356 C156.8725,147.3286 156.8625,147.3286 157.0355,147.4356 C157.1575,147.5146 157.2685,147.6086 157.3785,147.7016 C157.5685,147.8636 157.7355,148.0466 157.9015,148.2296 C158.3195,148.6876 158.7055,149.1646 159.1515,149.6006 C160.0045,150.4336 161.5195,149.5076 162.0995,148.8466" id="Fill-157" fill="#FFF"/>
                    <path d="M166.0995,179.3925 C166.8105,178.5835 167.2115,177.3385 166.3655,176.4915 C165.6605,175.7835 165.1755,174.4975 164.6645,173.4995 C164.1215,172.4415 162.6175,172.8955 161.8925,173.4565 C161.0225,174.1315 160.3125,175.4005 160.8525,176.4555 C161.5295,177.7765 162.0685,179.0615 163.1515,180.1475 C163.9935,180.9915 165.5275,180.0435 166.0995,179.3925" id="Fill-159" fill="#FFF"/>
                    <path d="M168.3275,196.3671 C168.2955,196.2841 168.2815,196.2511 168.2795,196.2511 C168.2715,196.2291 168.2645,196.2071 168.2565,196.1851 C168.0305,195.5531 167.8395,195.1341 167.3655,194.6281 C167.0395,194.2791 166.3655,194.2971 165.9475,194.4051 C165.3455,194.5571 164.8145,194.9301 164.4175,195.3831 C163.6855,196.2151 163.3335,197.4111 164.1515,198.2841 C163.8245,197.9341 164.1295,198.3241 164.1895,198.4551 C164.2225,198.5371 164.2365,198.5701 164.2385,198.5701 C164.2455,198.5931 164.2535,198.6131 164.2615,198.6361 C164.4865,199.2691 164.6785,199.6861 165.1515,200.1931 C165.4775,200.5421 166.1525,200.5241 166.5705,200.4171 C167.1725,200.2631 167.7025,199.8891 168.0995,199.4391 C168.8315,198.6051 169.1835,197.4111 168.3655,196.5371 C168.6935,196.8871 168.3875,196.4971 168.3275,196.3671" id="Fill-161" fill="#FFF"/>
                    <path d="M158.3427,203.5595 C158.3417,200.6085 154.1737,202.4655 154.1747,204.6255 C154.1757,206.2445 154.1887,207.8665 154.6947,209.4245 C155.5317,212.0035 159.4727,209.3525 158.8227,207.3515 C158.4177,206.1025 158.3437,204.8575 158.3427,203.5595" id="Fill-163" fill="#FFF"/>
                    <path d="M155.1645,186.8652 C155.0625,186.6652 154.9685,186.4642 154.8815,186.2582 C154.8515,186.1842 154.8235,186.1102 154.7955,186.0362 C154.6105,185.5052 154.4205,184.9822 154.1645,184.4782 C153.6245,183.4172 152.1155,183.8742 151.3935,184.4342 C150.5205,185.1112 149.8145,186.3752 150.3525,187.4332 C150.4545,187.6332 150.5485,187.8352 150.6355,188.0412 C150.6655,188.1142 150.6945,188.1872 150.7215,188.2612 C150.9075,188.7932 151.0965,189.3162 151.3525,189.8202 C151.8925,190.8822 153.4025,190.4252 154.1245,189.8642 C154.9965,189.1872 155.7025,187.9232 155.1645,186.8652" id="Fill-165" fill="#FFF"/>
                    <path d="M150.5058,170.9423 C150.5008,170.9323 150.4868,170.9123 150.4488,170.8633 C150.4028,170.8013 150.3608,170.7363 150.3238,170.6713 C150.3238,170.6513 150.3258,170.6333 150.3228,170.6003 C150.2168,169.4223 148.7528,169.3673 147.9118,169.7883 C146.8048,170.3423 146.0878,171.4833 146.1948,172.6733 C146.2558,173.3503 146.6698,173.9463 147.1518,174.4203 C148.0008,175.2563 149.5228,174.3223 150.0998,173.6653 C150.7588,172.9163 151.1488,171.7743 150.5058,170.9423" id="Fill-167" fill="#FFF"/>
                    <path d="M137.1645,175.4101 C136.5445,174.2261 135.8385,173.1511 134.8655,172.1961 C134.0155,171.3611 132.4965,172.2931 131.9175,172.9501 C131.2125,173.7521 130.7975,175.0141 131.6515,175.8511 C132.3465,176.5331 132.8585,177.4211 133.3525,178.3651 C133.9055,179.4191 135.3935,178.9751 136.1245,178.4091 C136.9875,177.7391 137.7155,176.4601 137.1645,175.4101" id="Fill-169" fill="#FFF"/>
                    <path d="M141.8227,190.1699 C141.4417,189.1009 140.4587,188.8309 139.4117,189.3569 C138.5097,189.8089 137.3087,191.1609 137.6947,192.2419 C138.1547,193.5309 138.7357,194.7749 139.1947,196.0619 C139.5757,197.1289 140.5587,197.3989 141.6057,196.8739 C142.5087,196.4209 143.7087,195.0679 143.3227,193.9869 C142.8637,192.6989 142.2817,191.4559 141.8227,190.1699" id="Fill-171" fill="#FFF"/>
                    <path d="M138.393,212.1171 C137.539,212.7811 136.791,214.0721 137.353,215.1151 C137.553,215.4861 137.778,215.8411 138.007,216.1961 C138.075,216.3031 138.136,216.4101 138.195,216.5211 C138.194,216.5411 138.193,216.5541 138.195,216.5851 C138.266,217.7701 139.789,217.8071 140.605,217.3971 C141.737,216.8301 142.395,215.7121 142.323,214.5111 C142.271,213.6591 141.558,212.8901 141.164,212.1601 C140.601,211.1131 139.133,211.5431 138.393,212.1171" id="Fill-173" fill="#FFF"/>
                    <path d="M129.9696,196.2451 C127.7826,196.2451 125.7566,200.4851 128.5476,200.4851 C130.7346,200.4851 132.7616,196.2451 129.9696,196.2451" id="Fill-175" fill="#FFF"/>
                    <path d="M121.2279,185.0839 C121.3699,185.3209 121.4849,185.5739 121.6029,185.8219 C121.8549,186.3579 122.0819,186.9039 122.3529,187.4339 C122.8949,188.4929 124.3999,188.0389 125.1239,187.4779 C125.9949,186.8029 126.7049,185.5339 126.1649,184.4789 C125.6019,183.3799 125.2449,182.1859 124.3659,181.2649 C123.5439,180.4029 121.9759,181.3839 121.4179,182.0189 C120.6919,182.8449 120.3249,184.0539 121.1519,184.9199 C120.7839,184.5339 121.1559,184.9639 121.2279,185.0839" id="Fill-177" fill="#FFF"/>
                    <path d="M118.3227,197.8056 C117.8587,196.5006 117.3097,195.2576 116.6647,194.0236 C116.1127,192.9696 114.6237,193.4126 113.8927,193.9806 C113.0297,194.6496 112.3027,195.9286 112.8527,196.9796 C113.3467,197.9236 113.8377,198.8776 114.1947,199.8786 C114.5747,200.9486 115.5587,201.2166 116.6057,200.6926 C117.5087,200.2396 118.7077,198.8876 118.3227,197.8056" id="Fill-179" fill="#FFF"/>
                    <path d="M126.8656,210.8564 C126.0026,210.0324 124.5046,210.9424 123.9176,211.6104 C123.2216,212.4014 122.7856,213.6854 123.6516,214.5124 C123.9856,214.8294 124.3186,215.1484 124.6516,215.4664 C125.5146,216.2904 127.0126,215.3794 127.5996,214.7114 C128.2956,213.9194 128.7316,212.6364 127.8656,211.8104 C127.5326,211.4934 127.1986,211.1734 126.8656,210.8564" id="Fill-181" fill="#FFF"/>
                    <path d="M197.694995,230.32774 C196.831995,229.50374 195.333995,230.41374 194.746995,231.08174 C194.050995,231.87274 193.614995,233.15674 194.480995,233.98374 C194.814995,234.30074 195.147995,234.61974 195.480995,234.93774 C196.343995,235.76174 197.841995,234.85074 198.428995,234.18274 C199.124995,233.39074 199.560995,232.10774 198.694995,231.28174 C198.361995,230.96474 198.027995,230.64474 197.694995,230.32774" id="Fill-181-Copy" fill="#FFF"/>
                    <path d="M112.8656,207.037 C112.0136,206.203 110.4966,207.133 109.9176,207.792 C109.2136,208.593 108.7966,209.855 109.6516,210.693 C110.0636,211.098 110.2036,211.274 110.5406,211.835 C110.7986,212.264 111.0566,212.855 111.1946,213.243 C111.5736,214.311 112.5596,214.58 113.6056,214.057 C114.5096,213.602 115.7076,212.251 115.3226,211.17 C114.7606,209.587 114.1036,208.249 112.8656,207.037" id="Fill-183" fill="#FFF"/>
                    <path d="M121.3227,222.1474 C120.6297,219.5414 116.6547,222.1904 117.1947,224.2204 C117.6237,225.8334 118.1437,227.4164 118.6947,228.9944 C119.5887,231.5554 123.5157,228.9064 122.8227,226.9194 C122.2727,225.3424 121.7517,223.7594 121.3227,222.1474" id="Fill-185" fill="#FFF"/>
                    <path d="M103.6947,227.5615 C104.1417,228.9525 104.1737,230.3895 104.1737,231.8315 C104.1757,234.7825 108.3437,232.9245 108.3427,230.7645 C108.3417,229.0065 108.3677,227.1845 107.8227,225.4885 C106.9937,222.9085 103.0507,225.5595 103.6947,227.5615" id="Fill-187" fill="#FFF"/>
                    <path d="M101.8275,213.6376 C101.7525,213.5106 101.6985,213.3746 101.6425,213.2416 C101.4895,212.8776 101.3445,212.5146 101.1645,212.1596 C100.6245,211.0996 99.1155,211.5566 98.3925,212.1166 C97.5205,212.7936 96.8145,214.0586 97.3525,215.1156 C97.7685,215.9336 97.9805,216.6966 98.6515,217.3756 C99.4885,218.2226 101.0315,217.2686 101.5995,216.6216 C102.3055,215.8196 102.6915,214.6066 101.8925,213.7546 C101.8805,213.7296 101.8615,213.6946 101.8275,213.6376" id="Fill-189" fill="#FFF"/>
                    <path d="M100.6244,203.704 C101.4714,203.048 102.2364,201.741 101.6644,200.706 C101.1014,199.685 100.2274,198.863 99.6644,197.843 C99.0904,196.802 97.6404,197.219 96.8934,197.798 C96.0454,198.456 95.2814,199.761 95.8534,200.797 C96.4164,201.816 97.2904,202.641 97.8534,203.661 C98.4274,204.702 99.8764,204.285 100.6244,203.704" id="Fill-191" fill="#FFF"/>
                    <path d="M106.1244,193.6816 C106.9874,193.0126 107.7154,191.7336 107.1644,190.6826 C106.8954,190.1706 106.6234,189.6616 106.2654,189.1986 C105.7444,188.5256 105.2214,188.1186 104.4524,187.7246 C104.0134,187.5016 103.3034,187.7276 102.9124,187.9246 C102.3354,188.2136 101.8544,188.6836 101.5394,189.2246 C101.2634,189.6986 101.0934,190.2676 101.1944,190.8106 C101.2924,191.3406 101.5994,191.5846 102.0654,191.8236 C101.8724,191.7166 101.8614,191.7166 102.0344,191.8236 C102.1544,191.9016 102.2614,191.9956 102.3684,192.0896 C102.3944,192.1146 102.4174,192.1386 102.4424,192.1626 C102.4454,192.1716 102.5914,192.3356 102.6244,192.3796 C102.9094,192.7736 103.1284,193.2106 103.3534,193.6386 C103.9054,194.6926 105.3934,194.2486 106.1244,193.6816" id="Fill-193" fill="#FFF"/>
                    <path d="M82.0922,194.8622 C82.1242,194.9752 82.1882,195.5282 82.1752,195.0812 C82.1892,195.5742 82.2202,196.0292 82.6522,196.3752 C83.0482,196.6912 83.5912,196.7202 84.0702,196.5992 C85.1432,196.3232 86.3772,195.1472 86.3422,194.0132 C86.3212,193.3022 86.2402,192.7612 85.9802,192.0992 C85.9412,191.9992 85.8972,191.8992 85.8552,191.8002 C85.8402,191.7352 85.8272,191.6692 85.8222,191.6002 C85.7532,190.4142 84.2272,190.3792 83.4122,190.7882 C82.2792,191.3552 81.6232,192.4742 81.6952,193.6752 C81.7162,194.0442 81.8912,194.3982 82.0372,194.7372 C82.0622,194.7962 82.0802,194.8362 82.0922,194.8622" id="Fill-195" fill="#FFF"/>
                    <path d="M88.6645,208.3427 C88.1085,207.2517 87.7205,206.0927 87.1645,205.0017 C86.6235,203.9397 85.1155,204.3967 84.3935,204.9577 C83.5215,205.6347 82.8145,206.8987 83.3525,207.9567 C83.9085,209.0477 84.2975,210.2057 84.8525,211.2977 C85.3935,212.3597 86.9015,211.9037 87.6245,211.3417 C88.4965,210.6647 89.2035,209.4007 88.6645,208.3427" id="Fill-197" fill="#FFF"/>
                    <path d="M88.893,221.662 C88.02,222.339 87.315,223.603 87.853,224.662 C87.907,224.768 87.956,224.877 88.006,224.986 C87.994,224.979 88.104,225.28 88.121,225.35 C88.146,225.468 88.153,225.588 88.163,225.706 C88.165,225.814 88.175,226.046 88.175,226.103 C88.175,226.595 88.229,227.059 88.652,227.399 C89.048,227.717 89.591,227.746 90.07,227.623 C91.168,227.342 92.344,226.178 92.3430006,225.037 C92.342,223.821 92.227,222.814 91.664,221.708 C91.125,220.644 89.615,221.103 88.893,221.662" id="Fill-199" fill="#FFF"/>
                    <path d="M84.3275,231.6874 C84.2965,231.6074 84.2825,231.5734 84.2805,231.5714 C84.2725,231.5494 84.2645,231.5274 84.2565,231.5044 C84.0305,230.8704 83.8395,230.4534 83.3655,229.9484 C83.0395,229.5994 82.3655,229.6164 81.9475,229.7234 C81.3455,229.8764 80.8145,230.2504 80.4175,230.7014 C79.6855,231.5344 79.3335,232.7304 80.1515,233.6034 C79.8245,233.2534 80.1295,233.6454 80.1895,233.7744 C80.2215,233.8534 80.2355,233.8854 80.2375,233.8884 C80.2445,233.9114 80.2525,233.9334 80.2615,233.9574 C80.4865,234.5884 80.6785,235.0054 81.1515,235.5124 C81.4775,235.8614 82.1525,235.8434 82.5705,235.7374 C83.1725,235.5824 83.7025,235.2084 84.0995,234.7584 C84.8315,233.9264 85.1835,232.7324 84.3655,231.8574 C84.6935,232.2064 84.3875,231.8154 84.3275,231.6874" id="Fill-201" fill="#FFF"/>
                    <path d="M67.6947,230.9023 C68.0597,232.2763 68.6437,233.7423 68.6747,235.1723 C68.7377,238.1243 72.8887,236.2703 72.8427,234.1053 C72.8037,232.2763 72.2907,230.5903 71.8227,228.8303 C71.1307,226.2233 67.1547,228.8723 67.6947,230.9023" id="Fill-203" fill="#FFF"/>
                    <path d="M76.8876,221.7587 C76.8566,221.6617 76.7716,221.4367 76.7566,221.3847 C76.5966,220.8447 76.4156,220.3057 76.1646,219.7987 C75.6366,218.7297 74.1066,219.1987 73.3926,219.7537 C72.5126,220.4377 71.8256,221.6877 72.3526,222.7537 C72.3796,222.8077 72.5686,223.2837 72.5546,223.2177 C72.6266,223.4457 72.6906,223.6737 72.7616,223.9007 C72.9676,224.5527 73.1766,224.9817 73.6516,225.4897 C73.9776,225.8387 74.6526,225.8207 75.0706,225.7137 C75.6726,225.5597 76.2026,225.1867 76.5996,224.7347 C77.3316,223.9027 77.6826,222.7077 76.8656,221.8337 C77.1246,222.1107 76.9856,221.9167 76.8876,221.7587" id="Fill-205" fill="#FFF"/>
                    <path d="M73.893,206.3896 C73.012,207.0726 72.327,208.3226 72.853,209.3886 C72.857,209.3966 72.963,209.6566 72.994,209.7096 C73.046,209.8866 73.088,210.0666 73.121,210.2446 C73.147,210.3946 73.159,210.5456 73.17,210.6986 C73.173,210.7476 73.175,210.7986 73.175,210.8306 C73.175,211.3206 73.228,211.7866 73.652,212.1246 C74.048,212.4426 74.591,212.4716 75.07,212.3496 C76.167,212.0696 77.344,210.9036 77.3430006,209.7636 C77.342,208.5836 77.198,207.5146 76.664,206.4326 C76.137,205.3646 74.607,205.8356 73.893,206.3896" id="Fill-207" fill="#FFF"/>
                    <path d="M61.8881,210.8632 C61.8851,210.8582 61.8841,210.8582 61.8811,210.8552 C61.8791,210.8402 61.8781,210.8352 61.8751,210.8192 C61.8641,210.7652 61.8621,210.7092 61.8561,210.6552 C61.8551,210.5582 61.8431,210.3052 61.8431,210.2412 C61.8431,209.7512 61.7881,209.2852 61.3661,208.9462 C60.9701,208.6302 60.4261,208.6012 59.9471,208.7222 C58.8491,209.0042 57.6741,210.1682 57.6750994,211.3072 C57.6750994,212.5472 57.7211,213.5672 58.6521,214.5122 C59.4881,215.3592 61.0321,214.4032 61.5991,213.7582 C62.2921,212.9682 62.6701,211.7902 61.9321,210.9422 C61.9281,210.9292 61.9151,210.9052 61.8881,210.8632" id="Fill-209" fill="#FFF"/>
                    <path d="M55.393,225.9589 C54.512,226.6429 53.827,227.8919 54.353,228.9579 C54.355,228.9629 54.457,229.2189 54.488,229.2779 C54.548,229.4869 54.589,229.7019 54.621,229.9139 C54.705,230.4809 54.674,230.6909 54.675,231.3549 C54.675,232.4219 55.393,233.1739 56.57,232.8729 C57.668,232.5909 58.843,231.4289 58.843,230.2869 C58.842,228.8019 58.841,227.3739 58.164,226.0029 C57.637,224.9329 56.106,225.4039 55.393,225.9589" id="Fill-211" fill="#FFF"/>
                    <path d="M48.8656,199.8779 C48.0026,199.0559 46.5046,199.9659 45.9176,200.6319 C45.2216,201.4249 44.7856,202.7079 45.6516,203.5339 C46.3186,204.1709 46.9856,204.8069 47.6516,205.4429 C48.5146,206.2659 50.0126,205.3569 50.5996,204.6899 C51.2956,203.8969 51.7316,202.6139 50.8656,201.7879 C50.1986,201.1509 49.5326,200.5149 48.8656,199.8779" id="Fill-213" fill="#FFF"/>
                    <path d="M61.8656,196.0605 C61.0136,195.2255 59.4966,196.1555 58.9176,196.8145 C58.2136,197.6165 57.7966,198.8775 58.6516,199.7155 C59.0636,200.1195 59.2036,200.2965 59.5406,200.8575 C59.7986,201.2875 60.0566,201.8775 60.1946,202.2655 C60.5736,203.3325 61.5596,203.6015 62.6056,203.0785 C63.5096,202.6245 64.7076,201.2735 64.3226,200.1925 C63.7606,198.6095 63.1036,197.2725 61.8656,196.0605" id="Fill-215" fill="#FFF"/>
                    <path d="M71.0478,197.621 C73.2348,197.621 75.2608,193.382 72.4698,193.382 C70.2828,193.382 68.2558,197.621 71.0478,197.621" id="Fill-217" fill="#FFF"/>
                    <path d="M144.8656,161.6952 C144.0026,160.8732 142.5046,161.7822 141.9176,162.4502 C141.2216,163.2422 140.7856,164.5242 141.6516,165.3512 C141.8186,165.5102 141.9856,165.6692 142.1516,165.8292 C143.0146,166.6512 144.5126,165.7422 145.0996,165.0742 C145.7956,164.2822 146.2316,163.0002 145.3656,162.1732 C145.1986,162.0132 145.0326,161.8542 144.8656,161.6952" id="Fill-219" fill="#FFF"/>
                    <path d="M322.0492,129.332 C321.6382,128.711 321.1172,128.398 320.4522,128.065 C320.0092,127.845 319.3072,128.067 318.9122,128.264 C318.3352,128.554 317.8542,129.023 317.5392,129.563 C317.2632,130.037 317.0932,130.606 317.1952,131.15 C317.2922,131.677 317.5982,131.928 318.0652,132.162 C317.6852,131.971 318.1392,132.237 318.2602,132.329 C318.2862,132.369 318.3152,132.408 318.3402,132.45 C318.5402,132.784 318.6752,133.155 318.8532,133.501 C319.3962,134.56 320.9002,134.106 321.6242,133.544 C322.4942,132.869 323.2062,131.601 322.6642,130.545 C322.4582,130.144 322.3002,129.712 322.0492,129.332" id="Fill-221" fill="#FFF"/>
                    <path d="M344.4472,111.3574 C343.3492,111.6374 342.1752,112.8014 342.1752,113.9424 L342.1752,114.4204 C342.1752,114.9094 342.2292,115.3764 342.6522,115.7134 C343.0482,116.0304 343.5912,116.0594 344.0702,115.9384 C345.1682,115.6574 346.3432,114.4934 346.3432,113.3524 L346.3432,112.8764 C346.3432,112.3844 346.2882,111.9194 345.8652,111.5814 C345.4692,111.2634 344.9262,111.2344 344.4472,111.3574" id="Fill-223" fill="#FFF"/>
                    <path d="M275.3656,162.6503 C274.5026,161.8273 273.0046,162.7363 272.4176,163.4043 C271.7216,164.1963 271.2856,165.4783 272.1516,166.3053 C272.3186,166.4653 272.4856,166.6243 272.6516,166.7833 C273.5146,167.6073 275.0126,166.6973 275.5996,166.0293 C276.2956,165.2363 276.7316,163.9543 275.8656,163.1283 C275.6986,162.9673 275.5326,162.8093 275.3656,162.6503" id="Fill-225" fill="#FFF"/>
                    <path d="M285.3656,142.1269 C284.5046,141.3019 283.0036,142.2149 282.4176,142.8809 C281.7206,143.6749 281.2866,144.9549 282.1516,145.7829 C282.1636,145.7959 282.1796,145.8119 282.1956,145.8289 C282.2326,146.1729 282.3416,146.4879 282.6516,146.7369 C283.0476,147.0549 283.5916,147.0839 284.0706,146.9609 C285.1656,146.6809 286.3466,145.5159 286.34261,144.3759 C286.3416,143.8889 286.3516,143.4349 286.1176,142.9869 C285.9466,142.6609 285.6346,142.3849 285.3656,142.1269" id="Fill-227" fill="#FFF"/>
                    <path d="M134.4472,221.1337 C133.3492,221.4127 132.1742,222.5777 132.1742,223.7167 L132.1742,225.1497 C132.1742,225.6397 132.2292,226.1057 132.6522,226.4447 C133.0482,226.7627 133.5912,226.7907 134.0702,226.6687 C135.1682,226.3867 136.3432,225.2237 136.3432,224.0827 L136.3432,222.6517 C136.3432,222.1617 136.2882,221.6947 135.8652,221.3567 C135.4692,221.0397 134.9262,221.0107 134.4472,221.1337" id="Fill-229" fill="#FFF"/>
                    <path d="M391.6933,57.2714 C391.6733,57.2624 391.6633,57.2584 391.6613,57.2604 C391.7333,57.2734 391.7953,57.2934 391.8743,57.2994 C391.7763,57.2814 391.7223,57.2734 391.6933,57.2714 M395.6923,54.3064 C394.9943,53.6434 394.3083,53.1444 393.2963,53.0594 C391.1713,52.8804 389.1933,56.8194 391.6603,57.2604 C391.6603,57.2604 391.6693,57.2674 391.6713,57.2694 C391.6613,57.2704 391.6663,57.2774 391.6923,57.2874 C391.7143,57.3034 391.7483,57.3264 391.7963,57.3564 C392.0433,57.5344 392.2593,57.7544 392.4783,57.9624 C393.3413,58.7854 394.8383,57.8764 395.4253,57.2084 C396.1213,56.4174 396.5593,55.1314 395.6923,54.3064" id="Fill-231" fill="#FFF"/>
                    <path d="M381.6918,77.2158 C380.8048,76.4148 379.3478,77.2838 378.7438,77.9698 C378.0658,78.7428 377.5888,80.0698 378.4778,80.8718 C379.0868,81.4218 379.8698,81.7558 380.4778,82.3048 C381.3648,83.1058 382.8218,82.2368 383.4258,81.5508 C384.1048,80.7778 384.5808,79.4498 383.6918,78.6478 C383.0838,78.0988 382.2998,77.7648 381.6918,77.2158" id="Fill-233" fill="#FFF"/>
                    <path d="M359.3739,47.2773 C361.5609,47.2773 363.5869,43.0373 360.7959,43.0373 C358.6089,43.0373 356.5819,47.2773 359.3739,47.2773" id="Fill-235" fill="#FFF"/>
                    <path d="M375.9779,37.9169 C376.8409,38.7399 378.3389,37.8299 378.9259,37.1629 C379.6219,36.3699 380.0579,35.0879 379.1919,34.2609 C379.0249,34.1019 378.8579,33.9419 378.6919,33.7839 C377.8289,32.9599 376.3309,33.8699 375.7439,34.5379 C375.0479,35.3289 374.6119,36.6119 375.4779,37.4389 C375.6449,37.5999 375.8109,37.7569 375.9779,37.9169" id="Fill-237" fill="#FFF"/>
                    <path d="M360.1918,103.4667 C359.3288,102.6437 357.8308,103.5537 357.2438,104.2207 C356.5478,105.0137 356.1118,106.2957 356.9778,107.1227 C357.1448,107.2817 357.3118,107.4417 357.4778,107.5997 C358.3408,108.4237 359.8388,107.5137 360.4258,106.8457 C361.1218,106.0547 361.5578,104.7707 360.6918,103.9447 C360.5248,103.7837 360.3588,103.6267 360.1918,103.4667" id="Fill-239" fill="#FFF"/>
                    <g id="Group-243" transform="translate(380.000000, 0.623000)" fill="#FFC5EB">
                        <path d="M3.3964,32.208 C8.8534,22.154 9.8084,8.618 12.5304,8.413 C16.0524,8.151 14.5664,18.534 13.6484,22.632 C20.7394,17.206 26.3634,-0.659 29.1854,0.424 C32.1214,1.551 25.9304,16.357 22.8224,19.031 C27.8454,14.521 33.9254,3.491 36.3364,5.343 C38.6654,7.127 30.6234,17.914 26.1684,23.653 C31.3734,20.532 39.2154,8.434 41.1444,10.267 C43.4424,12.45 35.2134,23.491 28.0004,28.627 C32.3184,27.857 39.7534,20.568 40.8624,22.551 C42.4954,25.466 26.4214,39.657 11.3244,47.092 C4.8564,50.274 -3.4416,44.807 3.3964,32.208" id="Fill-241"/>
                    </g>
                    <path d="M231.7045,120.787 C231.5975,114.236 231.4545,109.195 231.9915,105.938 C232.1385,105.049 229.4605,100.479 219.7975,100.209 C208.4645,99.891 205.5305,103.978 205.9755,105.789 C207.3495,111.371 205.8175,114.24 206.1965,116.872 C206.1965,116.872 206.1925,129.105 220.5735,129.25 C232.5375,129.368 231.7045,120.787 231.7045,120.787" id="Fill-244" fill="#FFC5EB"/>
                    <path d="M211.4643,102.5156 C213.2143,101.8796 216.2643,101.4276 217.1193,101.4026 C225.7863,101.1216 229.3233,103.9456 229.6513,104.5136 C230.1513,105.3806 229.9543,106.3216 229.3193,107.0366 C228.6623,107.7766 224.2293,109.9666 218.5063,109.6746 C213.0473,109.3956 208.6723,108.1226 207.9643,106.1746 C207.1693,103.9876 209.7043,103.1556 211.4643,102.5156" id="Fill-246" fill="#FA0000"/>
                    <path d="M217.766,104.2206 C218.772,104.1216 220.324,104.0586 221.117,104.7016 C222.074,105.4766 221.78,106.2416 220.578,106.5386 C219.655,106.7686 217.365,106.7836 216.608,106.2316 C215.465,105.3956 216.566,104.3016 217.766,104.2206" id="Fill-248" fill="#FFC5EB"/>
                </g>
                <path d="M237.006,113.7287 C238.251,111.9607 243.237,103.5977 239.514,102.2947 C235.447,100.8737 236.158,112.2367 237.006,113.7287" id="Fill-78" fill="#FA0000"/>
                <path d="M229.8395,112.8947 C229.6685,109.9107 228.1785,99.6997 225.2725,99.1217 C219.0065,97.8737 227.1005,112.2327 229.8395,112.8947" id="Fill-80" fill="#FA0000"/>
            </g>
        </g>
        <g id="Head" transform="translate(141.000000, 111.000000) scale(1 1)">
            <g id="Head/Hijab 1" stroke="none" stroke-width="1" fill="none" fill-rule="evenodd">
                <g id="Group-15" transform="translate(-16.000000, -4.000000)">
                    <path d="M67.4356,59.2298 C67.7346,56.9458 68.1646,55.3858 69.1306,54.6348 C71.5296,52.7738 78.2876,55.4668 79.6956,51.5198 C80.3206,49.7698 76.1306,44.1348 76.0666,42.3148 C76.0096,40.7358 86.8456,42.1608 85.4686,39.8008 C84.3026,37.8008 71.9686,39.8008 69.3026,22.4688 C68.5606,17.6418 64.1216,14.2438 52.8026,12.3008 C49.2776,11.6968 40.8006,10.8728 34.4106,15.0598 C28.6326,18.8448 27.0976,32.6868 34.2576,43.5148 C38.7446,50.2968 40.6486,55.1888 41.4566,58.8998 C41.6116,59.6038 43.1386,64.5268 54.8886,64.5268 C67.1406,64.5268 67.3716,59.7128 67.4356,59.2298" id="Fill-1" fill="#FFC5EB"/>
                    <path d="M48.461,30.5042 C50.045,24.9632 63.254,20.0462 68.754,19.7962 C68.754,19.7962 67.711,14.2122 64.961,11.2122 C64.961,11.2122 45.045,18.6712 48.461,30.5042" id="Fill-3" fill="#FFF"/>
                    <g id="Group-7" transform="translate(0.000000, 0.261000)" fill="#0042FF">
                        <path d="M51.0704,22.2012 C43.1294,32.6602 55.1114,54.8262 70.7364,53.7012 C66.2424,56.1212 67.0174,62.2222 71.2674,65.6602 C74.6384,68.3872 85.0334,80.1802 74.6424,84.4722 C60.6204,90.2642 44.5944,82.2652 23.2864,66.9312 C8.2814,56.1342 0.0004,42.8472 0.0004,30.8472 C0.0004,20.0972 7.0604,5.3472 31.0644,1.3902 C44.9064,-0.8918 60.0154,2.8952 65.1294,11.5352 C65.1294,11.5352 57.2424,14.0722 51.0704,22.2012" id="Fill-5"/>
                    </g>
                    <path d="M68.7051,55.9837 C58.4471,57.0087 51.3281,53.4467 42.3731,49.0387 C45.5081,52.7237 57.9591,59.4947 64.9511,58.2887 C59.6371,60.0097 51.1801,59.8607 46.6131,59.8257 C50.4321,60.5417 64.6211,63.5817 67.4731,59.0597 C67.8381,58.4797 68.4691,56.3527 68.7051,55.9837" id="Fill-8" fill="#000"/>
                </g>
            </g>
        </g>
        <g id="Expression" transform="translate(165.000000, 118.000000) scale(1 1)">
            <g id="Expression/Confident" stroke="none" stroke-width="1" fill="none" fill-rule="evenodd">
                <g id="Group-15" transform="translate(14.000000, 14.000000)">
                    <g id="Group-3" transform="translate(0.000000, 0.565700)" fill="#0042FF">
                        <path d="M12.8111,1.6413 C10.9791,2.5243 8.5721,1.5023 6.7551,1.0023 C5.1091,0.5493 3.4831,0.2263 1.7911,0.5933 C-0.0109,0.9843 -0.9869,4.6473 1.4831,4.1113 C3.4741,3.6793 5.8411,4.8503 7.7641,5.2843 C9.7131,5.7233 11.5631,5.6873 13.3771,4.8133 C15.1841,3.9433 15.2301,0.4753 12.8111,1.6413" id="Fill-1"/>
                    </g>
                    <path d="M20.4518,9.5557 C21.0208,9.6377 21.6808,9.5627 22.1848,9.2617 C22.6898,8.9607 23.1558,8.3777 23.0448,7.7497 C22.9418,7.1717 22.2898,7.0557 21.8398,7.3247 C21.6368,7.4457 22.0888,7.2477 21.8318,7.3317 C21.6748,7.3827 21.4098,7.3697 21.1628,7.3347 C20.0778,7.1797 19.0518,9.3567 20.4518,9.5557" id="Fill-4" fill="#0042FF"/>
                    <path d="M17.4381,5.376 L18.1881,5.376 C19.1111,5.376 19.9321,4.546 20.1981,3.714 C20.4341,2.974 20.1671,2.044 19.2541,2.044 L18.5041,2.044 C17.5821,2.044 16.7601,2.874 16.4951,3.706 C16.2581,4.446 16.5261,5.376 17.4381,5.376" id="Fill-6" fill="#0042FF"/>
                    <path d="M13.4186,7.7295 C11.5226,8.0565 9.6376,7.6495 7.8476,7.0215 C6.6586,6.6045 5.1566,8.9605 6.5056,9.4335 C8.6886,10.1995 10.9126,10.5425 13.2076,10.1455 C14.4616,9.9285 15.1316,7.4335 13.4186,7.7295" id="Fill-8" fill="#0042FF"/>
                    <path d="M6.4859,12.6455 C9.3819,12.4365 12.3329,13.5255 14.3159,15.6395 C15.2019,16.5835 17.0389,14.4625 16.1229,13.4875 C13.9229,11.1415 10.4949,9.9165 7.2849,10.1475 C6.0699,10.2355 4.9439,12.7555 6.4859,12.6455" id="Fill-10" fill="#FA0000"/>
                    <g id="Group-14" transform="translate(17.000000, 17.565700)" fill="#0042FF">
                        <path d="M1.2252,3.616 C2.1822,3.887 3.4032,4.178 4.3962,3.863 C5.2742,3.585 6.0182,2.771 6.1012,1.832 C6.1722,1.009 5.5032,0.377 4.6792,0.638 C4.6422,0.65 4.6052,0.657 4.5672,0.665 C4.3542,0.706 5.0162,0.612 4.7562,0.637 C4.6832,0.643 4.6092,0.645 4.5352,0.646 C4.3242,0.651 4.1132,0.632 3.9032,0.608 C3.4762,0.56 4.1802,0.666 3.7002,0.57 C3.4682,0.524 3.2412,0.462 3.0142,0.397 C2.1252,0.146 1.2412,0.837 0.8292,1.575 C0.4912,2.183 0.3322,3.364 1.2252,3.616" id="Fill-12"/>
                    </g>
                </g>
            </g>
        </g>
        <g id="Accesories" transform="translate(50.000000, 25.000000) scale(1 1)">
            <g id="Accesories/None" stroke="none" stroke-width="1" fill="none" fill-rule="evenodd" fill-opacity="0"/>
        </g>
        <g id="Glasses" transform="translate(159.000000, 115.000000) scale(1 1)" fill="#000">
            <g id="Glasses/Round Glasses" stroke="none" stroke-width="1" fill="none" fill-rule="evenodd">
                <g id="Group-17" transform="translate(9.000000, 12.000000)">
                    <path d="M15.7657,9.7207 C15.7657,13.8137 18.2327,17.1297 21.2737,17.1297 C24.3127,17.1297 26.7797,13.8137 26.7797,9.7207 C26.7797,5.6297 24.3127,2.3117 21.2737,2.3117 C18.2327,2.3117 15.7657,5.6297 15.7657,9.7207" id="Fill-1" fill="#FFF"/>
                    <path d="M21.2735,3.2578 C18.7575,3.2578 16.7115,6.1568 16.7115,9.7208 C16.7115,13.2838 18.7575,16.1838 21.2735,16.1838 C23.7885,16.1838 25.8335,13.2838 25.8335,9.7208 C25.8335,6.1568 23.7885,3.2578 21.2735,3.2578 M21.2735,18.0758 C17.7145,18.0758 14.8195,14.3278 14.8195,9.7208 C14.8195,5.1128 17.7145,1.3648 21.2735,1.3648 C24.8315,1.3648 27.7255,5.1128 27.7255,9.7208 C27.7255,14.3278 24.8315,18.0758 21.2735,18.0758" id="Fill-3" fill="#0042FF"/>
                    <path d="M28.4112,9.3555 C28.4112,13.4475 30.8782,16.7645 33.9182,16.7645 C36.9592,16.7645 39.4252,13.4475 39.4252,9.3555 C39.4252,5.2635 36.9592,1.9465 33.9182,1.9465 C30.8782,1.9465 28.4112,5.2635 28.4112,9.3555" id="Fill-5" fill="#FFF"/>
                    <g id="Group-9" transform="translate(27.000000, 0.076200)" fill="#0042FF">
                        <path d="M6.918,2.8164 C4.403,2.8164 2.357,5.7154 2.357,9.2794 C2.357,12.8424 4.403,15.7424 6.918,15.7424 C9.433,15.7424 11.479,12.8424 11.479,9.2794 C11.479,5.7154 9.433,2.8164 6.918,2.8164 M6.918,17.6344 C3.359,17.6344 0.465,13.8864 0.465,9.2794 C0.465,4.6714 3.359,0.9234 6.918,0.9234 C10.477,0.9234 13.371,4.6714 13.371,9.2794 C13.371,13.8864 10.477,17.6344 6.918,17.6344" id="Fill-7"/>
                    </g>
                    <g id="Group-12" transform="translate(0.000000, 10.076200)" fill="#0042FF">
                        <path d="M15.3887,2.1123 L0.8257,2.1123 C0.3697,2.1123 -0.0003,1.7423 -0.0003,1.2863 C-0.0003,0.8293 0.3697,0.4603 0.8257,0.4603 L15.3887,0.4603 C15.8447,0.4603 16.2147,0.8293 16.2147,1.2863 C16.2147,1.7423 15.8447,2.1123 15.3887,2.1123" id="Fill-10"/>
                    </g>
                    <path d="M18.2413,11.9956 C18.3063,12.2996 18.3273,12.6106 18.4083,12.9116 C18.7743,14.2736 20.7583,12.8856 20.4723,11.8256 C20.3913,11.5256 20.3713,11.2136 20.3053,10.9096 C20.0103,9.5376 18.0113,10.9246 18.2413,11.9956" id="Fill-13" fill="#0042FF"/>
                    <path d="M31.4815,11.3159 L31.4815,12.0659 C31.4815,13.6119 33.5655,12.6389 33.5655,11.5069 L33.5655,10.7569 C33.5655,9.2119 31.4815,10.1849 31.4815,11.3159" id="Fill-15" fill="#0042FF"/>
                </g>
            </g>
        </g>
    </g>
</svg>
