<svg viewBox="-10.263 154.275 2052.525 1902.725" xmlns="http://www.w3.org/2000/svg" overflow="visible">
    <g id="Master/Spot Ilustrations/UI Windows" stroke="none" stroke-width="1" fill="none" fill-rule="evenodd">
        <g id="Outdoor Plants" transform="translate(1183.000000, 1085.000000) scale(1 1)">
            <g id="Outdoor Plants/Trees" stroke="none" stroke-width="1" fill="none" fill-rule="evenodd">
                <g id="Group" transform="translate(50.000000, 27.000000)">
                    <path d="M246.327941,707.554023 C202.725234,648.694159 266.995654,634.469818 237.177083,579.041474 C201.045875,511.877502 252.889207,525.364984 230.558991,457.77841 C212.889507,404.298257 182.034281,401.995081 179.286724,325.770544 C176.543382,249.546006 39.2582753,245.25238 68.925141,351.777408 C98.5962208,458.302435 22.2672523,432.071593 35.6974086,509.466735 C53.6492336,612.915227 -18.38566,571.479753 4.55980649,651.097777 C24.0792556,718.828035 -59.1552187,832.362634 138.705486,859 C314.797719,849.998599 289.934862,766.418112 246.327941,707.554023 Z" id="Fill-1" fill="#009BA0"/>
                    <path d="M95,585 C95,585 102.269883,617.395249 137,651" id="Stroke-5" stroke="#090E2B" stroke-width="9.107" stroke-linecap="round" stroke-linejoin="round"/>
                    <path d="M63,713 C63,713 75.8067111,744.89889 137,778" id="Stroke-7" stroke="#090E2B" stroke-width="9.107" stroke-linecap="round" stroke-linejoin="round"/>
                    <path d="M199,637 C199,637 190.990083,687.972701 137,725" id="Stroke-9" stroke="#090E2B" stroke-width="9.107" stroke-linecap="round" stroke-linejoin="round"/>
                    <path d="M608.603445,473.480495 C570.590587,379.998182 626.937388,314.013535 549.627883,136.939688 C472.318378,-40.1341592 367.026875,-40.7590157 351.056381,107.78507 C335.090104,256.329155 210.936686,350.641456 268.195115,484.721371 C324.468099,616.493705 207.88992,647.351714 245.711222,745.061987 C293.787219,869.262883 452.912681,874 452.912681,874 C626.199908,874 654.358401,816.786582 667.882995,767.076651 C703.354583,636.700085 625.009296,513.826235 608.603445,473.480495 Z" id="Fill-11" fill="#FFB201"/>
                    <path d="M535,314 C535,314 520.978644,385.165722 454,459" id="Stroke-15" stroke="#090E2B" stroke-width="9.107" stroke-linecap="round" stroke-linejoin="round"/>
                    <path d="M560,611 C560,611 541.481013,682.167801 453,756" id="Stroke-17" stroke="#090E2B" stroke-width="9.107" stroke-linecap="round" stroke-linejoin="round"/>
                    <path d="M365,465 C365,465 376.498556,549.574282 454,611" id="Stroke-19" stroke="#090E2B" stroke-width="9.107" stroke-linecap="round" stroke-linejoin="round"/>
                    <line x1="136" y1="938" x2="136" y2="511" id="Stroke-3" stroke="#090E2B" stroke-width="9.107" stroke-linecap="round" stroke-linejoin="round"/>
                    <line x1="453" y1="932" x2="453" y2="226" id="Stroke-13" stroke="#090E2B" stroke-width="9.107" stroke-linecap="round" stroke-linejoin="round"/>
                </g>
            </g>
        </g>
        <g id="Chair" transform="translate(76.125000, 1255.000000) scale(1 1)">
            <g id="Chair/Stool" stroke="none" stroke-width="1" fill="none" fill-rule="evenodd">
                <g id="Group" transform="translate(249.000000, 425.000000)" fill="#8E2420">
                    <path d="M32,0.639462324 L21.361,173.639462 L181.639,173.639462 L171,0.639462324 L189,0.639462324 L195.476,173.639462 L196,173.639462 L196,186.639462 L195.963,186.639462 L203,374.639462 L194,374.639462 L182.439,186.639462 L20.561,186.639462 L9,374.639462 L0,374.639462 L14,0.639462324 L32,0.639462324 Z" id="Combined-Shape"/>
                </g>
                <path d="M233.392254,403.051901 L352.708336,399.021055 C353.123705,399.007023 353.539436,399.00738 353.95478,399.022127 L466.638699,403.023039 C476.325148,403.366962 484,411.319151 484,421.011704 L484,430.639462 C484,440.580588 475.941125,448.639462 466,448.639462 L234,448.639462 C224.058875,448.639462 216,440.580588 216,430.639462 L216,421.041638 C216,411.337076 223.693225,403.379563 233.392254,403.051901 Z" id="Rectangle" fill="#FF0057"/>
            </g>
        </g>
        <g id="Floor" transform="translate(1016.500000, 2051.750000) scale(1, -1) translate(-1016.500000, -2051.750000) translate(0.000000, 2050.250000)" fill="#090E2B" fill-rule="nonzero">
            <path d="M0.625861326,-1.99999989 L1016.50086,-1.74999989 C1018.43386,-1.7495242 1020,-0.182135239 1020,1.75086133 C1020,3.61942467 1018.53489,5.14562732 1016.69118,5.24486829 L1016.49914,5.24999989 L0.624138674,5.00000011 C-1.30885789,4.9995242 -2.875,3.43213524 -2.875,1.49913867 C-2.875,-0.369424673 -1.40988682,-1.89562732 0.433824855,-1.99486829 L0.625861326,-1.99999989 Z" id="Path-4-Copy"/>
            <path d="M2032.5,-2.75 C2034.433,-2.75 2036,-1.18299662 2036,0.75 C2036,2.6185634 2034.53572,4.14512645 2032.69204,4.24482114 L2032.5,4.25 L1339.5,4.25 C1337.567,4.25 1336,2.68299662 1336,0.75 C1336,-1.1185634 1337.46428,-2.64512645 1339.30796,-2.74482114 L1339.5,-2.75 L2032.5,-2.75 Z" id="Path-4-Copy-2"/>
        </g>
        <g id="UI Elements" transform="translate(282.000000, 117.000000) scale(1 1)">
            <g id="UI Elements/Graph 1" stroke="none" stroke-width="1" fill="none" fill-rule="evenodd">
                <g id="Interfae-Box-2" transform="translate(74.000000, 54.000000)">
                    <rect id="Rectangle-Copy-5" fill="#090E2B" x="48" y="36" width="903" height="664" rx="64"/>
                    <rect id="Rectangle-Copy" fill="#FFF" x="3" y="3" width="903" height="664" rx="64"/>
                    <path d="M842,0 L67,0 C29.9969218,0 0,29.9969218 0,67 L0,603 C0,640.003078 29.9969218,670 67,670 L842,670 C879.003078,670 909,640.003078 909,603 L909,67 C909,29.9969218 879.003078,0 842,0 Z M67,6 L842,6 C875.68937,6 903,33.3106303 903,67 L903,603 C903,636.68937 875.68937,664 842,664 L67,664 C33.3106303,664 6,636.68937 6,603 L6,67 C6,33.3106303 33.3106303,6 67,6 Z" id="Rectangle-Copy-2" fill="#090E2B" fill-rule="nonzero"/>
                    <path d="M673.652207,196.061892 C725.00645,183.450641 772.647582,240.93242 818.391391,365.938113 C819.53014,369.050011 817.930586,372.495842 814.818687,373.634591 C811.706789,374.77334 808.260958,373.173786 807.122209,370.061887 C763.365428,250.486217 719.224115,197.227172 676.514061,207.715638 C653.029605,213.482802 633.544648,228.317463 615.50167,252.517239 L614.256991,254.199974 C601.505445,271.579633 592.03819,288.909152 573.748724,326.316838 L567.518035,339.080312 C548.883429,377.093389 539.188692,394.511108 525.293009,412.958504 C505.414913,439.34793 483.31028,455.718327 456.236366,461.728764 C436.921829,466.016612 421.1782,458.232532 407.891528,440.305106 L407.489653,439.758748 C397.832146,426.529971 390.901407,411.491459 378.693953,380.142646 L374.912173,370.411723 C363.259876,340.542313 356.421447,325.666408 347.328808,312.632527 C335.853283,296.18289 323.479895,288.462539 308.325917,289.378699 C252.58721,292.748478 192.546484,355.571595 129.337009,478.620265 C127.822868,481.567814 124.205954,482.72982 121.258406,481.21568 C118.310857,479.701539 117.148851,476.084625 118.662991,473.137077 C183.658283,346.611991 246.260115,281.109083 307.601758,277.400569 C327.296605,276.209884 343.195562,285.995214 356.760264,305.18243 L357.170602,305.766737 C366.788118,319.553003 373.7892,334.631431 385.347233,364.145873 L390.576767,377.584411 C401.83789,406.3973 408.399469,420.546673 416.91497,432.316137 L417.181723,432.683171 C427.976656,447.469987 439.337483,453.188184 453.63567,450.013971 C477.606383,444.692448 497.417079,430.02091 515.708027,405.738522 L516.970246,404.049124 C529.761489,386.785973 539.264869,369.500642 557.378277,332.501458 L563.596726,319.761294 C582.202997,281.752737 591.841212,264.2714 605.445769,245.930132 L605.881319,245.344454 C625.460147,219.084752 647.152481,202.569527 673.652207,196.061892 Z" id="Path-9" fill="#FFB201" fill-rule="nonzero"/>
                    <path d="M781.460434,208.362654 C782.299015,205.156808 785.577671,203.237761 788.783517,204.076343 C791.989362,204.914924 793.908409,208.19358 793.069828,211.399425 C755.865734,353.628422 708.054876,420.407249 647.872525,408.893115 C621.818313,403.908403 603.61089,404.829982 590.082856,410.798636 C579.665716,415.394744 572.383618,422.267538 562.160355,435.880495 L560.977924,437.467452 L554.884658,445.787282 C552.262038,449.355987 550.157275,452.139191 548.000044,454.856711 C539.000894,466.193172 530.125211,474.884446 519.015099,482.393565 C505.576907,491.476191 489.491953,498.227654 469.678748,502.626207 C451.420806,506.679489 435.763656,504.612783 421.299351,497.082719 C410.531188,491.476854 401.982197,484.235402 388.562743,470.523341 L382.286237,464.054711 C368.761913,450.109913 360.925256,443.124612 351.081975,437.229012 C338.568307,429.733993 325.246953,426.295033 309.42584,427.251526 C252.303605,430.704948 191.765128,458.910248 127.837444,512.097337 C125.290099,514.216699 121.506985,513.86975 119.387623,511.322404 C117.268261,508.775059 117.61521,504.991945 120.162556,502.872583 C185.906203,448.174633 248.743567,418.898266 308.701682,415.273396 C326.993171,414.167553 342.704286,418.223439 357.247948,426.934316 L358.226563,427.527077 C368.434553,433.780557 376.591104,441.017491 389.642393,454.406395 L395.931778,460.892513 L397.090755,462.080669 C409.692154,474.959181 417.495061,481.573475 426.840579,486.438716 C438.803082,492.666351 451.577524,494.352547 467.078052,490.911413 C485.453067,486.832141 500.138365,480.668166 512.295405,472.451447 C522.283653,465.700574 530.308857,457.84211 538.601368,447.39582 L539.687047,446.016317 C541.139122,444.155487 542.625291,442.18832 544.33855,439.870419 L551.136781,430.593726 L551.570699,430.00654 C563.436279,414.012575 572.147381,405.595804 585.238899,399.819743 C601.276933,392.743662 621.872845,391.701188 650.127475,397.106885 C701.367982,406.910259 745.733878,344.943112 781.460434,208.362654 Z" id="Path-9-Copy" fill="#009BA0" fill-rule="nonzero"/>
                    <circle id="Oval" fill="#FF0057" cx="689.5" cy="200.5" r="25.5"/>
                    <rect id="Rectangle" fill="#C7D2F2" fill-rule="nonzero" x="93" y="546" width="709" height="2"/>
                </g>
            </g>
        </g>
        <g id="UI Elements" transform="translate(833.000000, 623.000000) scale(1 1)">
            <g id="UI Elements/UI Card 2" stroke="none" stroke-width="1" fill="none" fill-rule="evenodd">
                <g id="interface" transform="translate(143.000000, 108.000000)">
                    <path d="M796.095175,592 L61.9048254,592 C52.5681131,592 45,584.43436 45,575.100698 L45,56.9014958 C45,47.5678339 52.5681131,40 61.9048254,40 L796.095175,40 C805.431887,40 813,47.5678339 813,56.9014958 L813,575.100698 C813,584.43436 805.431887,592 796.095175,592 Z" id="Stroke-1-Copy-3" fill="#090E2B"/>
                    <path d="M754.095175,555 L19.9048254,555 C10.5681131,555 3,547.43436 3,538.100698 L3,19.9014958 C3,10.5678339 10.5681131,3 19.9048254,3 L754.095175,3 C763.431887,3 771,10.5678339 771,19.9014958 L771,538.100698 C771,547.43436 763.431887,555 754.095175,555 Z" id="Stroke-1-Copy-2" fill="#FFB201"/>
                    <path d="M754.095175,0 L19.9048254,0 C8.91177633,0 0,8.91046219 0,19.9014958 L0,538.100698 C0,549.091433 8.91147822,558 19.9048254,558 L754.095175,558 C765.088522,558 774,549.091433 774,538.100698 L774,19.9014958 C774,8.91046219 765.088224,0 754.095175,0 Z M19.9048254,6 L754.095175,6 C761.774713,6 768,12.2243688 768,19.9014958 L768,538.100698 C768,545.777286 761.775252,552 754.095175,552 L19.9048254,552 C12.2247479,552 6,545.777286 6,538.100698 L6,19.9014958 C6,12.2243688 12.2252868,6 19.9048254,6 Z" id="Stroke-1-Copy-4" fill="#090E2B" fill-rule="nonzero"/>
                    <rect id="Rectangle-Copy-2" fill="#FFF" x="84" y="341" width="536" height="25" rx="12.5"/>
                    <rect id="Rectangle-Copy-3" fill-opacity=".6" fill="#FFF" x="85" y="424" width="396" height="25" rx="12.5"/>
                    <path d="M235.177833,110.81867 C227.185538,104.768093 217.382289,103.427639 207.809374,106.828905 C197.973601,110.323565 189.221893,118.526773 183.646729,129.991287 C177.384572,142.868502 175.420176,159.052394 178.619243,177.174179 C182.121285,197.012233 190.573939,213.94983 202.695283,227.017574 L203.281,227.643 L204.136979,227.092052 C240.264292,203.530099 256.549408,177.547747 253.293204,149.29804 L253.103783,147.80912 C250.655617,130.214335 244.247467,117.684846 235.177833,110.81867 Z M505.842035,232.426649 L523.827521,217.528033 C528.861168,213.397292 532.435677,210.610149 535.794008,208.241442 C544.837025,201.863199 552.104066,198.860832 560.543814,198.437223 C568.776183,198.024022 578.096647,200.09358 591.815736,205.152633 L595.844784,206.657784 C604.219635,209.820062 609.696003,212.190744 646.595195,228.237346 C648.62106,229.118348 649.549156,231.474829 648.668154,233.500695 C647.787152,235.52656 645.430671,236.454655 643.404805,235.573654 L616.305789,223.807985 C602.625476,217.896342 598.404268,216.172107 592.715497,214.027871 L589.751282,212.919169 C576.56553,208.011399 567.998703,206.073116 560.944847,206.427165 C554.360703,206.757637 548.573312,209.095584 540.929133,214.411813 L540.405031,214.778909 C537.226418,217.020856 533.770971,219.716184 528.850558,223.7549 L511.514534,238.120007 C510.961685,238.574623 510.466703,238.980504 510.047778,239.322454 C496.512415,250.370774 484.631585,251.678075 474.648986,244.098099 C467.468896,238.64612 462.189507,229.836545 455.74709,214.854426 L454.956757,212.979018 C453.652739,209.854431 450.088177,201.329237 448.669142,198.12545 L448.445809,197.626142 C444.897603,189.792141 442.048006,185.569319 439.684227,184.503585 C437.781041,183.645514 434.932355,185.322008 430.499974,191.882993 L429.538477,193.314532 C419.6629,207.895433 412.080714,214.210184 403.216181,215.935344 L402.673279,216.036778 C400.263009,216.467382 398.237762,216.553963 394.262408,216.496152 L391.572079,216.450832 C384.018715,216.356451 379.70279,216.848177 373.315547,218.985577 C364.271413,222.012067 353.865627,228.07077 341.218444,238.220629 L339.854772,239.323817 C310.35146,263.379578 272.018215,270.264603 237.983138,258.861028 C224.727086,254.419541 212.843117,247.464548 202.81987,238.379492 L202.154,237.769 L202.062088,237.825611 C175.845262,253.744999 141.02884,268.371023 97.695117,281.745545 L94.1629089,282.827224 C92.0491915,283.469481 89.8150329,282.276626 89.1727761,280.162909 C88.5305192,278.049191 89.7233737,275.815033 91.8370911,275.172776 C135.055196,262.040877 169.546753,247.807206 195.398066,232.515664 L196.358,231.943 L196.017709,231.570961 C183.545315,217.787504 174.77398,200.185397 170.95583,179.747194 L170.741057,178.564927 C167.257064,158.829121 169.429049,140.934983 176.452313,126.492661 C182.917449,113.198048 193.251996,103.511204 205.131,99.2905822 C217.194332,95.0044681 229.823674,96.7313505 240.006568,104.440322 C250.914953,112.698528 258.306392,127.150586 261.027448,146.706609 C265.47074,178.640215 248.443666,207.22332 210.263218,232.617166 L209.177,233.33 L209.630305,233.727412 C218.289656,241.242055 228.382564,247.069245 239.563664,250.947815 L240.524701,251.275486 C271.965035,261.809683 307.429352,255.439945 334.799364,233.123587 C348.763568,221.737762 360.40769,214.868966 370.776835,211.39908 C378.368938,208.858491 383.541892,208.318965 392.318932,208.460773 L394.263558,208.495215 C397.913687,208.54986 399.585337,208.474657 401.483591,208.121571 L401.687943,208.08267 C408.1818,206.818876 414.291337,201.672247 423.266349,188.307125 L423.608556,187.795629 C430.082118,178.084023 436.43993,174.26535 442.97236,177.210562 C447.611028,179.301953 451.107421,184.309349 455.260164,193.291617 L455.733186,194.325516 C457.283846,197.74918 462.812161,211.03081 462.801668,211.006234 L463.373744,212.336459 C469.153866,225.677214 473.858267,233.452783 479.486901,237.726711 C486.097329,242.746135 493.743837,242.039973 504.226296,233.738326 L505.481564,232.722173 C505.597576,232.627151 505.717824,232.528567 505.842035,232.426649 Z" id="Path-7" fill="#FFF" fill-rule="nonzero"/>
                </g>
            </g>
        </g>
        <g transform="translate(-67.000000, 557.000000) scale(1 1)" id="Master/Character/Sitting">
            <g id="Master/Character/Sitting" stroke="none" stroke-width="1" fill="none" fill-rule="evenodd">
                <g id="Sitting" transform="translate(179.000000, 940.000000) scale(1 1)">
                    <g id="Sitting/On Chair 2" stroke="none" stroke-width="1" fill="none" fill-rule="evenodd">
                        <path d="M410.615323,399.49997 C410.615323,399.49997 400.357969,471.949685 396.171539,502.905682 C391.949971,534.125643 467.0487,503.736716 467.0487,503.736716 C467.0487,503.736716 453.509565,484.44329 453.304761,479.157997 C453.100961,473.870697 476.218696,412 476.218696,412 L410.615323,399.49997 Z" id="Fill-3" fill="#ff8282"/>
                        <path d="M561.035706,7.46069873e-14 C597.897949,16.8477074 635.153618,59.3884812 602.589029,139.128809 C570.024441,218.869137 493.394303,411.87247 481.349448,420.555326 C469.305594,429.239182 405.784608,412 405.784608,412 C405.784608,412 412.732597,330.944505 426.534884,251.242608 C436.641716,192.880271 457.952435,150.325862 457.952435,150.325862 C457.952435,150.325862 286.540837,174.784268 243.98254,146.076381 C188.124727,108.397247 229.480836,6.86053872 261.586066,-5.71064401 C302.858588,-21.8713886 490.854841,-32.0758202 561.035706,7.46069873e-14 Z" id="Fill-5" fill="#090E2B"/>
                        <path d="M559.105053,537.550495 C553.718837,520.869499 514.662001,509.852921 486.4598,501.514412 C476.966506,498.70607 463.702961,484.835405 457.545853,485.001479 C448.581857,485.24512 457.367415,503.898122 427.362791,502.274176 C419.4193,501.844571 418.851908,493.484184 401.591555,491.580796 C398.786673,491.272515 394.499152,490.727553 390.796066,497.394383 C388.732001,501.110663 380.282268,534.66359 388.577622,548.345309 C446.664152,549.845942 506.41276,548.363209 558.020392,547.881892 C563.059757,547.834159 560.482433,541.818697 559.105053,537.550495" id="Fill-17" fill="#FF0057"/>
                        <path d="M654.970564,412 C654.970564,412 665.530533,466.509706 672.596211,475.377601 C679.662889,484.243493 716.32892,494.221378 717.974942,499.698195 C719.618961,505.175012 639.820958,518 639.820958,518 L591,416.698422 L654.970564,412 Z" id="Fill-1" fill="#ff8282"/>
                        <path d="M790.105053,534.5497 C784.718837,517.869641 745.662001,506.853025 717.4598,498.513492 C707.966506,495.706135 694.702961,481.834427 688.545853,482.001496 C679.581857,482.244144 688.367415,500.898205 658.362791,499.274253 C650.420302,498.844647 649.85291,490.483237 632.591555,488.580837 C629.786673,488.27156 625.499152,487.727591 621.796066,494.393449 C619.732001,498.109742 611.282268,531.662786 619.577622,545.345546 C677.664152,546.846185 737.41276,545.362452 789.020392,544.881134 C794.059757,544.8334 791.482433,538.817918 790.105053,534.5497" id="Fill-10" fill="#FF0057"/>
                        <path d="M722.704751,510.429527 C726.392384,503.004274 728.005104,501.713139 726.433049,500.543939 C722.673012,497.748284 703.571309,506.385021 702.069675,511.523009 C700.944937,515.373796 713.664197,504.228541 723.820563,502.565701 C719.658833,506.366337 715.778784,518.019983 719.874061,515.696334 C739.826756,504.381943 742.973841,507.006496 742.998637,506.585624 C743.116665,504.585496 735.565843,502.966906 722.704751,510.429527" id="Fill-15" fill="#FFB201"/>
                        <path d="M180.126096,77 C192.090433,138.955221 247.290014,161.21191 295.189049,159.361921 C368.355288,156.536045 442.938988,124.042498 468.151215,113.183029 C465.930109,129.164147 477.804596,220.024734 497.628146,262.074146 C517.451696,304.123559 582.008895,430.623213 582.008895,430.623213 C582.008895,430.623213 654.850327,431.050084 657.965073,413.369038 C660.014248,401.737852 591.630112,76.8494703 569.008895,20.5961921 C556.018259,-11.7082512 513.975789,-25.6487365 427.5,-33 C340.646127,-40.3834042 214.030282,-26.7715765 214.030282,-26.7715765 C214.030282,-26.7715765 168.16176,15.0447792 180.126096,77 Z" id="Fill-7" fill="#090E2B"/>
                        <path d="M491.704751,514.429893 C495.392384,507.004835 497.005104,505.713735 495.432058,504.543583 C491.67202,501.748984 472.571309,510.385493 471.069675,515.522362 C469.944937,519.373048 482.664197,508.228087 492.820563,506.566274 C488.658833,510.36681 484.777792,522.019165 488.874061,519.69656 C508.826756,508.381485 511.973841,511.005969 511.998637,510.585107 C512.116665,508.585032 504.565843,506.966486 491.704751,514.429893" id="Fill-22" fill="#FFB201"/>
                        <path d="M546.8316,554.3915 L407.0166,556.8575 C397.6626,557.2315 383.6706,554.0145 382.3176,546.2435 C381.3066,540.4375 383.5546,527.7955 384.0206,526.9545 C387.2776,521.0945 415.0326,526.0385 423.1176,545.8275 C474.1316,549.6495 561.0086,545.9125 561.0086,545.9125 C561.0086,545.9125 562.3126,553.5935 546.8316,554.3915" id="Fill-19" fill="#090E2B"/>
                        <path d="M777.7223,550.7851 L637.9073,553.2511 C628.5543,553.6251 614.5613,550.4091 613.2083,542.6381 C612.1983,536.8321 614.4453,524.1901 614.9123,523.3491 C618.1683,517.4891 645.9233,522.4331 654.0083,542.2221 C705.0223,546.0441 791.9003,542.3071 791.9003,542.3071 C791.9003,542.3071 793.2033,549.9881 777.7223,550.7851" id="Fill-12" fill="#090E2B"/>
                    </g>
                </g>
                <g id="Upper Body/Sitting" transform="translate(243.000000, 170.000000) scale(1 1.0010526315789474)">
                    <g id="Upper Body/Sitting/Namaste 1" stroke="none" stroke-width="1" fill="none" fill-rule="evenodd">
                        <path d="M345.929327,635.91287 L330,606.8482 C330,606.8482 352.184069,582.633491 362.545418,578.415219 C378.141346,572.066253 385.087842,573.055897 385.087842,573.055897 C385.087842,573.055897 401.978439,610.370613 405,641.545923 C387.504492,654.183695 345.929327,635.91287 345.929327,635.91287" id="Fill-1" fill="#ff8282"/>
                        <path d="M209.711172,383 C209.711172,383 215.322511,427.556873 206.830431,445.779166 C204.051787,451.742224 183.267011,456.893551 178,460.55286 C197.222289,496.926206 242.954802,504 256.243445,504 C279.98003,504 279.978028,480.329381 281,462.909787 C272.788187,460.485633 264.542341,457.206604 262.728616,450.070601 C261.53548,445.37882 265.807545,410.554684 265.807545,410.554684 L209.711172,383 Z" id="neck" fill="#ff8282"/>
                        <path d="M277.469798,459.358063 C277.469798,459.358063 274.379278,488.896316 261.205641,495.746808 C254.398712,499.284964 193.400886,464.0383 187.094071,455 C182.682893,454.978584 146.816499,465.343251 141.804388,469.223132 C136.791278,473.103013 121.532293,548.550277 127.715328,567.117351 C133.898363,585.684424 154.717747,583.819465 156.724717,619.150077 C160.010332,676.989903 146.732315,748.018187 129.206662,780.915711 C126.654939,785.705569 111.944198,801.592353 133.802542,809.645664 C145.956712,814.123648 217.615948,774.841958 252.68908,766.061181 C315.075727,750.442296 330.053945,755.146912 333.551286,752.994478 C345.006913,745.944128 310.549134,728.031065 322.360189,642.283001 C324.199926,628.92574 326.795323,617.307081 329.073284,607.542931 C330.31009,611.463778 332.923456,622.96753 336.829529,622.417972 C354.124857,619.986926 390.035173,613.325282 400.702256,607.379062 C403.667997,605.725392 383.892067,554.937223 367.465199,527.435333 C355.673111,507.692205 338.863921,481.49027 318.802498,471.510293 C303.59347,463.943376 277.469798,459.358063 277.469798,459.358063 Z" id="Fill-5" fill="#FF0057"/>
                        <path d="M272.909165,551.031393 C272.909165,551.031393 278.360224,544.210092 286.898717,551.032393 C293.069577,555.96361 294.839544,571.376289 295.320078,575.533472 C295.799612,579.690655 298.162238,609.273958 291.311622,617.824335 C311.288831,622.813554 350.790744,634.194056 350.790744,634.194056 C350.790744,634.194056 377.522461,634.231057 404.386326,637.683209 C407.171422,657.323074 409.057518,694.649719 385.943823,696.903818 C375.696431,697.902862 321.051684,692.246613 277.318066,625.44467 C262.361439,621.061477 261.819837,612.854116 261.041972,599.608532 C260.179013,584.928886 272.909165,551.031393 272.909165,551.031393" id="Fill-8" fill="#ff8282"/>
                        <path d="M78.588881,585.435257 C68.0045781,612.001851 62.2000897,666.633959 64.4991145,685.169978 C69.9720321,729.301641 138.888847,723.196964 208.833332,675.247503 C241.199448,653.060677 258.410175,639.03542 268.811715,628.679968 C276.035367,621.488349 284.022031,621.194364 287.446599,606.611136 C290.259959,594.624771 289.16138,566.935237 284.883916,557.62173 C280.605452,548.308223 274.56427,547.593261 271.047821,547.054289 C262.380038,545.726359 258.18247,569.119121 255.682705,577.810661 C255.23029,575.221798 253.115028,571.769981 251.437199,570.558045 C246.954001,567.319216 244.220538,569.040125 247.481318,576.807714 C250.912877,584.978281 241.129538,605.4132 250.724122,614.346727 C234.551051,624.11421 204.112442,627.789015 181.377862,632.61276 C160.513862,637.037526 141.112969,641.237303 138.296614,641.48829 C143.428972,625.364144 155.515331,597.207634 155.515331,597.207634 C155.515331,597.207634 89.1741826,558.867664 78.588881,585.435257" id="Fill-11" fill="#ff8282"/>
                        <path d="M113.074243,649.568517 C121.030207,645.4734 129.581953,641.639798 138.693833,641.000211 C139.027878,640.988458 139.12361,641.470352 138.803824,641.573195 C132.691215,643.814197 125.953291,646.157062 119.781614,648.145363 C118.909839,648.221761 112.225892,651.057294 113.074243,649.568517" id="Fill-23" fill="#090E2B"/>
                        <path d="M144.253856,468 C144.253856,468 182.094239,513.191968 183.938457,535.582525 C185.780678,557.974079 145.664961,629 144.047279,629 C140.231107,628.998006 125.474375,621.871879 98.5416181,618.118347 C71.780509,614.388748 70.6568139,614.105538 70.0510564,610.110679 C68.7876478,601.792876 91.2166427,532.472199 110.1538,500.662909 C124.81872,476.030604 144.253856,468 144.253856,468" id="Fill-13" fill="#FF0057"/>
                        <path d="M183.383367,525.675662 C182.476496,523.094561 184.29645,519.48255 185.709135,530.704295 C187.60457,545.760792 179.91655,561.817428 171.937464,579.967097 C169.516812,584.963128 159.056422,604.015164 154.46337,611.329884 C153.137693,613.441107 154.940331,610.145028 156.31389,607.247272 C163.762596,591.532956 187.60457,550.423153 183.383367,525.675662 Z" id="Fill-15" fill="#090E2B"/>
                        <path d="M328.767253,527.613858 C341.516494,552.935473 334.645663,581.233276 329.096724,607.541616 C329.036638,607.833831 328.788283,608.194096 328.837353,607.875862 C330.602879,592.065239 333.650239,573.229392 333.706319,557.459799 C333.263686,547.425422 330.886285,536.797609 328.02419,527.182541 C327.859955,526.751224 328.578983,527.161525 328.767253,527.613858" id="Fill-17" fill="#090E2B"/>
                        <path d="M277.696495,549.012213 C294.420136,553.093291 294.219968,609.255694 283.513546,619.320149 C280.953027,621.923665 277.391671,624.409977 274,625 C275.26197,623.87004 277.330706,623.239948 278.693268,622.050885 C292.161393,612.467264 289.209684,581.632788 287.356356,566.897231 C286.325036,560.260722 284.561123,552.194733 277.572533,549.383858 C277.339851,549.32175 277.457716,548.926064 277.696495,549.012213" id="Fill-19" fill="#090E2B"/>
                        <path d="M344.17715,632.002775 C352.515963,633.530582 371.520227,637.140192 378.646066,641.981807 C379.120311,642.305056 380.347471,643.183316 379.905653,642.965784 C379.546929,642.789929 378.666333,642.412805 378.037046,642.14953 C368.80345,638.300025 358.137998,636.37883 348.626746,633.575308 L344.111283,632.313825 C343.931921,632.267066 343.980562,631.968213 344.17715,632.002775" id="Fill-21" fill="#090E2B"/>
                    </g>
                </g>
                <g id="Head" transform="translate(341.000000, 346.000000) scale(1 1)">
                    <g id="Head/Short Hair Gray" stroke="none" stroke-width="1" fill="none" fill-rule="evenodd">
                        <path d="M203.3041,80.3781 C203.3041,80.3781 245.325044,106.524642 237.9671,158.0421 C233.30916,190.655184 248.155059,198.619131 237.9671,236.39085 C233.30916,253.6601 223.9421,270.1291 204.9101,273.8721 C190.5291,276.7011 155.4841,270.1421 130.1601,253.6601 C115.741004,244.275411 108.695804,231.120338 102.839951,212.467257 C86.3461236,211.07768 67.2046642,185.016111 81.55,174.4899 C84.9121577,172.023692 88.2985705,171.112896 91.8838097,171.633573 C86.3580791,146.740974 87.2671,137.240294 87.2671,126.0621 C87.2671,110.5371 68.5191,91.9091 103.9891,87.9181 C139.4581,83.9261 195.8531,70.4331 203.3041,80.3781 Z" id="Combined-Shape" fill="#ff8282"/>
                        <path d="M123.991097,197.974758 C127.207892,191.05864 123.657342,175.918238 118.355838,164.003141 C115.785715,158.226807 110.408838,116.248782 130.751715,118.061567 C151.63046,119.922104 160.5076,123.0061 180.4026,122.6081 C193.0006,122.3561 215.366179,111.996593 215.705179,108.447593 C220.759389,111.359054 234.024819,113.974183 238.403543,137.719356 C246.854543,128.547356 246.0036,115.7791 243.8766,103.7461 C240.6826,85.6911 220.0506,84.2101 217.6836,83.9141 C220.3876,77.1091 214.2306,61.5091 206.7796,54.3251 C201.5256,49.2601 186.4756,32.6451 163.7056,35.2811 C151.1626,36.7331 147.0366,50.7761 147.0366,50.7761 C141.9666,47.5221 122.7226,46.0641 110.0236,50.7881 C88.7996,58.6831 104.4456,72.0791 106.8116,74.7421 C101.0646,76.2221 80.2401078,86.8514986 71.692034,103.7461 C60.6046971,125.659357 68.0307556,147.086046 78.446496,160.848214 C88.8622364,174.610382 94.4314772,169.724614 105.882354,179.67861 C112.512678,189.080043 121.004519,204.395906 123.991097,197.974758 Z" id="Fill-3" fill="#E3E4E6"/>
                        <path d="M86.5912,186.8615 C91.2362,181.0155 99.3112,184.2235 102.9222,189.5595 C104.5732,191.9995 105.1982,196.5475 104.3242,197.5495 C104.1152,197.7905 103.5582,195.9695 103.1792,195.2405 C99.7342,188.6025 96.3562,185.4085 87.2562,187.8575 C86.6992,187.9965 86.2372,187.3175 86.5912,186.8615" id="Fill-8" fill="#090E2B"/>
                        <path d="M101.9779,193.4806 C96.6629,193.6326 98.9159,202.7266 96.9999,200.2376 C96.0239,196.4226 97.4289,191.4386 101.8789,190.7476 C103.9009,190.3956 104.0229,193.6846 101.9779,193.4806" id="Fill-10" fill="#090E2B"/>
                        <path d="M164.020452,271.36959 C154.644565,269.470255 148.435203,265.601303 140.050203,261.363303 C139.551203,261.083303 130.571062,255.208763 130.268783,254.3815 C129.882863,253.325333 130.7298,253.9565 131.3648,254.3815 C138.7548,259.3395 158.1098,266.6665 169.8538,269.9605 C170.357039,270.040748 173.552665,271.357952 171.903442,271.675889 C171.278277,271.796408 167.7443,272.123954 164.020452,271.36959 Z" id="Fill-12" fill="#090E2B"/>
                    </g>
                </g>
                <g id="Expressions" transform="translate(462.000000, 479.000000) scale(1 1)">
                    <g id="Expressions/Smile" stroke="none" stroke-width="1" fill="none" fill-rule="evenodd">
                        <g id="eye1" transform="translate(21.027098, 10.213671)">
                            <path d="M0.0487023333,7.96572872 C1.82485498,-0.0171869856 25.1977023,-2.81531309 35.4827023,3.36568691 C39.0387023,5.47868691 45.6427023,11.2837287 39.7957023,14.4437287 C38.2517023,15.1157287 36.7517023,14.4267287 35.4827023,13.6077287 C21.4647023,3.86572872 -1.18942441,13.5304877 0.0487023333,7.96572872 Z" id="Fill-1" fill="#090E2B"/>
                            <path d="M19.0113023,22.3973287 C13.7233023,23.8973287 9.19030233,28.1473287 8.76930233,31.6693287 C8.51430233,33.7973287 16.8643023,38.9063287 24.9173023,39.3033287 C35.5113023,39.8243287 40.8513023,34.0853287 40.8324531,32.2513287 C40.1193023,26.7013287 33.7283023,18.2233287 19.0113023,22.3973287 Z" id="Fill-6" fill="#FFF"/>
                            <path d="M35.3981023,25.5550287 C27.2551023,19.4010287 14.6431023,23.4110287 8.76910233,31.6690287 C8.43210233,32.0970287 8.52910233,31.0200287 8.76310233,30.5290287 C11.5971023,24.5820287 16.7101023,21.7750287 22.6381023,20.5510287 C26.2051023,19.8140287 29.5311023,19.7540287 33.0101023,21.3120287 C34.3551023,21.9130287 36.7311023,23.7450287 38.5671023,25.8170287 C39.9991023,27.4320287 41.2051023,30.2010287 39.5481023,29.2220287 C38.2511023,28.4550287 36.4781023,26.3720287 35.3981023,25.5550287 Z" id="Fill-8" fill="#090E2B"/>
                            <path d="M24.8135023,36.0623287 C29.3405023,36.0623287 33.0105023,32.7143287 33.0105023,28.5833287 C33.0105023,24.4533287 29.3405023,21.1043287 24.8135023,21.1043287 C20.2865023,21.1043287 16.6165023,24.4533287 16.6165023,28.5833287 C16.6165023,32.7143287 20.2865023,36.0623287 24.8135023,36.0623287 Z" id="Fill-10" fill="#090E2B"/>
                        </g>
                        <g id="eye2" transform="translate(81.203378, 15.000183)">
                            <path d="M23.2557812,1.861246 C26.6096324,3.34897691 31.0744206,8.28711729 27.357522,8.28711729 C23.6406234,8.28711729 15.5900245,7.23270759 10.1930245,9.45970759 C8.30802454,9.94170759 6.87752199,10.8641173 4.98452199,11.0891173 C0.67652199,11.9281173 -1.66408888,6.76839233 1.38185604,3.64904337 C4.82290212,0.125071736 16.4397812,-1.545754 23.2557812,1.861246 Z" id="Fill-4" fill="#090E2B"/>
                            <path d="M19.455322,34.2343173 C24.826322,32.9853173 28.843322,28.1153173 28.389322,24.4763173 C27.503322,19.6543173 18.218322,16.5753173 13.017322,19.2083173 C7.86632199,21.8153173 4.64332199,27.6403173 5.05932199,29.9403173 C5.66032199,31.5323173 13.966322,35.5113173 19.455322,34.2343173 Z" id="Fill-12" fill="#FFF"/>
                            <path d="M15.011222,31.6060173 C18.549222,31.6060173 21.417222,28.8520173 21.417222,25.4560173 C21.417222,22.0590173 19.396222,18.8490173 15.011222,19.3060173 C11.492222,19.6720173 8.60422199,22.0590173 8.60422199,25.4560173 C8.60422199,28.8520173 11.473222,31.6060173 15.011222,31.6060173 Z" id="Fill-14" fill="#090E2B"/>
                            <path d="M5.25072199,26.6376173 C7.27972199,19.0636173 16.440722,15.1686173 23.685722,18.7546173 C24.705722,19.2866173 26.361722,20.4806173 27.601722,21.9226173 C28.742722,23.2526173 28.593722,23.9496173 28.127722,23.8116173 C27.355722,23.5816173 25.722722,22.1166173 24.395722,21.4866173 C17.685722,18.3036173 10.704722,20.0896173 5.59372199,27.5586173 C5.34272199,27.9456173 5.10472199,27.0746173 5.25072199,26.6376173" id="Fill-22" fill="#090E2B"/>
                        </g>
                        <path d="M86.9879908,70.3386563 C86.0131141,75.2575144 79.9689699,75.7359636 76.0323155,74.6212963 C72.832522,73.7152719 72.0034674,71.851321 73.0853454,71.2537752 C74.8485675,70.2799076 80.4997296,72.9889887 82.5858367,70.4027854 C86.305606,65.7912866 74.8914605,48.8346319 78.5177277,51.5592059 C83.3102149,55.1600121 87.6386051,67.0559034 86.9879908,70.3386563 Z" id="nose" fill="#090E2B"/>
                        <path d="M89.6387968,90.5818454 C88.8707672,91.1602445 87.0677709,93.5463983 85.244688,95.0617056 C81.1444698,98.4697185 74.4745751,99.2530639 70.5444286,98.4697185 C63.1559339,96.997065 59.9595527,92.178225 58.0067117,90.8585998 C56.0538707,89.5389745 59.7200172,87.8442758 62.5249361,88.0931395 C65.3298551,88.3420033 67.2123883,89.156182 72.5654423,91.4592717 C76.0199316,92.9455259 83.8310598,90.8585998 86.0381944,89.5389745 C90.2484115,87.021725 91.5113061,89.1716685 89.6387968,90.5818454 Z" id="Fill-18" fill="#090E2B"/>
                    </g>
                </g>
                <g id="Facial Accesories" transform="translate(459.000000, 529.000000) scale(1 1)" fill="#000">
                    <g id="Facial Accesories/Beard" stroke="none" stroke-width="1" fill="none" fill-rule="evenodd">
                        <path d="M47.5524,49.2504 C58.9864,33.0464 69.3714,29.3754 77.8704,26.9904 C92.7404,22.8174 105.1154,25.5214 110.9824,36.9084 C119.4024,29.0654 115.256705,14.7298731 119,15.5630077 C124.627509,16.8155065 123.604324,53.0609629 120.0924,70.2964 C116.580476,87.5318371 112.523925,118.592382 93.181309,121.412323 C75.1652092,124.038874 49.014622,118.292379 27.7334265,94.4422293 C2.52642652,66.1923729 -1.71007939,21.3993976 -6.66688926e-14,-1.1326 C1,-14.308595 5.35863063,-3.04762476 6.32610996,-1.1326 C13.242263,12.557206 34.2074,68.1634 47.5524,49.2504 Z" id="beard" fill="#090E2B"/>
                        <path d="M87.0749452,36.9108574 C98.014107,35.207991 103.1476,38.0693 104.6636,39.6043 C108.8206,43.8173 108.151179,53.1470307 100.781401,53.1470307 C97.1868744,53.1470307 93.3346,46.6233 88.3766,48.3823 C80.3146,51.2403 79.5919217,56.2502874 75.9859217,57.5202874 C72.2139217,58.8492874 68.2446,59.2803 68.2405449,52.6253 C68.2405449,46.2514099 76.1357834,38.6137238 87.0749452,36.9108574 Z" id="skin-color" fill="#ff8282"/>
                        <path d="M76.3656,48.054 C78.1656,47.7 79.9546,47.465 81.7356,47.249 C87.6042667,46.531 91.0999333,46.07 92.2226,45.866 C93.8946,45.549 98.3316,44.326 98.6346,44.92 C98.8696,45.381 98.7766,45.925 98.4456,46.285 C96.8886,47.974 94.9656,48.736 93.1366,49.363 C91.2846,49.971 87.5236,51.3488672 81.9446,50.932 C76.3656,50.5151328 75.2696,49.687 75.3936,49.027 C75.4876,48.524 75.8796,48.151 76.3516,48.057 L76.3656,48.054 Z" id="Fill-6" fill="#090E2B"/>
                    </g>
                </g>
                <g id="Glass" transform="translate(462.000000, 484.000000) scale(1 1)" fill="#000">
                    <g id="Glass/None" stroke="none" stroke-width="1" fill="none" fill-rule="evenodd" fill-opacity="0"/>
                </g>
            </g>
        </g>
    </g>
</svg>
