<svg viewBox="246.303 0 1590.707 2082.713" xmlns="http://www.w3.org/2000/svg" xmlns:xlink="http://www.w3.org/1999/xlink" overflow="visible">
    <defs>
        <rect id="masterspot-ilustrationskeeping-in-touch-path-1" x="0" y="0" width="569" height="356"/>
    </defs>
    <g id="Master/Spot Ilustrations/Keeping in Touch" stroke="none" stroke-width="1" fill="none" fill-rule="evenodd">
        <g id="Lamp" transform="translate(599.000000, 0.000000)">
            <path d="M231,621.003035 C231,640.879963 214.884674,657 195,657 C175.115326,657 159,640.879963 159,621.003035 C159,601.120037 175.115326,585 195,585 C214.884674,585 231,601.120037 231,621.003035" id="Fill-5" fill="#FFF"/>
            <polygon id="Fill-3" fill="#090E2B" points="193 490 198 490 198 0 193 0"/>
            <path d="M186.507779,462.266165 C168.684301,497.567794 118.938893,573.423586 2.3418784,627.372619 C-1.53986671,629.171929 -0.31627314,635 3.95726302,635 L386.043944,635 C390.31748,635 391.541074,629.171929 387.653301,627.372619 C271.056287,573.423586 221.316907,497.567794 203.4874,462.266165 C199.943198,455.244612 190.058009,455.244612 186.507779,462.266165" id="Fill-1" fill="#0084FF"/>
        </g>
        <g id="Floor" transform="translate(252.209230, 2052.500000)" fill="#090E2B" fill-rule="nonzero">
            <path d="M0.00273740768,-2.99999893 L639.293507,-2.49999893 C641.226503,-2.4984871 642.79077,-0.930258626 642.79077,1.00273741 C642.79077,2.87130024 641.323836,4.39671758 639.480072,4.49497026 L639.288032,4.50000107 L-0.00273740768,4.00000107 C-1.93573344,3.9984871 -3.50000002,2.43025863 -3.50000002,0.497262592 C-3.50000002,-1.37130024 -2.03306639,-2.89671758 -0.189301787,-2.99497026 L0.00273740768,-2.99999893 Z" id="Path-4"/>
            <path d="M740.002105,-2.99999937 L1571.29288,-2.49999937 C1573.22587,-2.49883672 1574.79077,-0.930891115 1574.79077,1.00210516 C1574.79077,2.87066823 1573.32445,4.39635027 1571.4807,4.49493601 L1571.28866,4.50000063 L739.997895,4.00000063 C738.064899,3.99883672 736.5,2.43089112 736.5,0.49789484 C736.5,-1.37066823 737.96632,-2.89635027 739.810067,-2.99493601 L740.002105,-2.99999937 Z" id="Path-4-Copy-2"/>
            <path d="M0.00273740768,-2.99999893 L639.293507,-2.49999893 C641.226503,-2.4984871 642.79077,-0.930258626 642.79077,1.00273741 C642.79077,2.87130024 641.323836,4.39671758 639.480072,4.49497026 L639.288032,4.50000107 L-0.00273740768,4.00000107 C-1.93573344,3.9984871 -3.50000002,2.43025863 -3.50000002,0.497262592 C-3.50000002,-1.37130024 -2.03306639,-2.89671758 -0.189301787,-2.99497026 L0.00273740768,-2.99999893 Z" id="Path-4-Copy"/>
        </g>
        <g id="Desk" transform="translate(332.000000, 1458.053163)">
            <rect id="Rectangle" fill="#E4E7FF" x="0" y="0" width="1057" height="40" rx="13"/>
            <rect id="Rectangle-Copy-3" fill="#BACCFF" x="0" y="0" width="369" height="40" rx="13"/>
            <rect id="Rectangle" fill="#C7D2F2" x="728" y="40" width="239" height="552"/>
            <rect id="Rectangle-Copy-2" fill="#C7D2F2" x="86" y="40" width="239" height="552"/>
        </g>
        <g id="Medium Plants" transform="translate(0.000000, 1254.000000) scale(1 1)">
            <g id="Medium Plants/Plant 1" stroke="none" stroke-width="1" fill="none" fill-rule="evenodd">
                <g id="Group" transform="translate(277.000000, 297.000000)">
                    <path d="M79.3649352,206.473842 C50.7765177,148.413459 23.0301485,127.298886 14.224871,120.516751 C22.3530117,136.794627 86.5510811,322.095424 95.4325678,370.613777 C65.6285523,311.882812 50.2617937,299.195552 44.704774,293.481844 C29.6640906,278.015923 10.8379374,267.027638 0,261.60168 C4.7449552,268.191148 60.2839187,334.857749 79.9271337,393.190868 L95.5062783,421 L173.400752,421 C173.400752,421 181.528893,393.98781 194.398241,382.057457 C207.267589,370.128355 255.765344,310.408958 263.216347,275.138351 C245.238684,295.953189 188.070874,370.128355 177.900839,382.057457 C202.963647,311.117148 206.726531,304.563028 228.145043,265.22264 C249.563556,225.881001 293.968589,168.279448 296,166.923271 C272.969851,179.132616 205.258042,221.800132 173.147138,306.330171 C159.728386,341.654237 155.521591,364.150668 155.521591,364.150668 C155.521591,364.150668 170.023969,293.547719 169.345583,224.361432 C168.668446,155.175144 173.400752,0 173.400752,0 C173.400752,0 142.526988,54.1850727 131.085715,142.024766 C126.854637,174.508618 123.28513,307.941892 124.639404,340.219902 C124.639404,340.219902 107.121299,262.844008 79.3649352,206.473842 Z" id="Fill-1" fill="#009BA0"/>
                    <path d="M178.622375,503 L88.8828152,503 C75.6927553,503 65,484.764466 65,471.532066 L65,382 L205,382 L205,469.029248 C205,483.583136 193.129694,503 178.622375,503" id="Fill-4" fill="#FFB201"/>
                </g>
            </g>
        </g>
        <g id="Monitor" transform="translate(578.000000, 936.053163)">
            <rect id="Rectangle" fill="#FFB201" x="0" y="0" width="619" height="441" rx="20"/>
            <rect id="Rectangle-Copy-5" fill="#FFF" x="26" y="24" width="569" height="356"/>
            <g id="Character" transform="translate(26.000000, 24.000000)">
                <mask id="masterspot-ilustrationskeeping-in-touch-mask-2" fill="#fff">
                    <use xlink:href="#masterspot-ilustrationskeeping-in-touch-path-1"/>
                </mask>
                <use id="Mask" fill="#FBFDFF" xlink:href="#masterspot-ilustrationskeeping-in-touch-path-1"/>
                <g id="Character-1" mask="url(#masterspot-ilustrationskeeping-in-touch-mask-2)">
                    <g transform="translate(103.247070, 12.000000)">
                        <path d="M213.972307,222.517402 C213.972307,222.517402 207.254058,264.694548 213.762956,277.264565 C218.945634,287.273819 249.523831,300.962858 249.523831,300.962858 L255,330.345184 L141.468913,342 C128.331918,339.085547 80.7772962,326.899195 95.9567113,307.851838 C111.135125,288.804481 143.290964,283.552071 148.517715,275.109448 C158.553518,258.900611 160.387589,225.951401 160.111126,213.505277 C160.111126,210.413978 213.972307,222.517402 213.972307,222.517402" id="neck" fill="#09B9C6"/>
                        <g id="t-shirt" stroke-width="1" fill="none" transform="translate(31.000000, 287.000000)">
                            <path d="M89.4468,0.0136764189 C102.8688,2.67167642 149.2358,34.6536764 177.6858,31.5776764 C192.0658,30.0236764 203.8198,5.46367642 204.2708,4.91467642 C204.576334,4.54492662 218.843092,11.9835019 231.055751,19.7322048 L231.0582,19.7031764 L231.0582,19.7031764 C231.135221,19.7651796 231.222432,19.8308242 231.319419,19.9003197 C231.863961,20.2463015 232.403006,20.5926111 232.936312,20.9387644 C239.599781,25.0355541 258.899602,36.4407721 265.3982,68.0261764 C268.0352,80.8401764 285.0832,128.800176 300.1392,167.597176 C288.335776,185.699803 275.3929,186.242882 241.16511,186.259174 L237.927661,186.259678 L237.927661,186.259678 C229.857644,186.259678 155.328216,189.846496 72.662627,186.259678 C38.2055127,184.764601 8.73269423,183.264728 1.25005975,158 C-2.84486358,144.173704 13.2909823,83.3129264 12.1768,74.8846764 C8.8578,49.7816764 26.8658,32.3416764 33.1348,27.1536764 C54.0788,9.82167642 87.2148,-0.427323581 89.4468,0.0136764189 Z" id="T-Shirt" fill="#FF0057"/>
                            <path d="M255.6453,102.608676 C258.0363,112.136676 258.064419,120.171504 257.606419,129.951504 C256.453079,147.259988 253.873594,145.961005 249.782594,166.732005 C247.698594,177.309005 246.534594,183.736005 245.868594,185.399005 C244.964594,187.656005 245.234594,181.318005 247.753594,166.371005 C250.267594,149.368005 252.892902,151.271638 254.510902,134.292638 C256.128902,117.313638 255.5623,114.940676 252.8243,102.383676 C250.3413,91.3246764 246.4643,81.4866764 243.1413,70.6196764 C242.9503,69.1046764 239.1053,59.6106764 241.0533,61.0176764 C245.5873,74.8956764 251.9913,88.4526764 255.6453,102.608676 Z" id="Fill-15" fill="#090E2B"/>
                            <path d="M96.8404,74.2851764 C93.7574,101.612176 89.1684,128.761176 83.1614,155.596176 C82.2654,157.756176 75.4204,187.256176 75.1164,182.060176 C75.0774,181.382176 75.2134,180.032176 75.3544,179.363176 C80.6594,154.144176 86.1554,126.484176 90.7034,101.126176 C90.7044,101.126176 95.4114,74.0911764 95.4114,74.0911764 C95.5384,73.2221764 96.9564,73.3601764 96.8404,74.2851764" id="Fill-17" fill="#090E2B"/>
                        </g>
                        <g id="Head" fill="none" transform="translate(43.000000, 0.000000) scale(1 1)">
                            <g id="Head/Ponytail Dark" stroke="none" stroke-width="1" fill="none" fill-rule="evenodd">
                                <path d="M186.9964,62.8355 C217.2344,59.0265 198.7284,80.4845 209.6584,91.4535 C220.2254,102.0605 236.9284,103.5395 237.5074,152.7225 C237.7864,176.3945 249.110317,198.629791 229.121449,243.279848 C221.151174,261.083419 203.0324,276.4905 190.8944,276.4905 C159.5154,276.4905 114.5994,224.9675 114.5994,224.9675 C111.678535,222.113515 109.230749,218.089598 107.213306,213.593181 C99.2318415,214.610508 84.28954,210.476592 79.7281,197.7576 C76.4331,188.5696 78.6431,175.6606 85.5011,173.7346 C91.6130979,172.016106 96.5055762,174.28179 100.299595,177.50238 C107.532681,158.534519 158.929296,66.3728944 186.9964,62.8355 Z" id="Combined-Shape" fill="#09B9C6"/>
                                <path d="M150.6438,159.4289 C163.984666,146.458309 179.2618,130.0339 179.2618,124.3129 C176.5508,140.2049 176.4468,144.5609 170.5558,158.0789 C179.5208,154.1709 199.725465,124.3129 201.3348,106.377934 C213.9648,132.779934 228.478637,120.306515 237.1438,152.9279 C246.6318,140.8489 240.4388,89.8279 220.3338,70.9229 C211.6178,62.7269 205.1038,63.8029 201.3348,64.9799 C195.935366,37.9444845 157.374931,41.3367027 147.9268,45.1285 C149.2828,21.6085 130.4668,-22.9851 111.4908,-23.6201 C92.5158,-24.2561 52.2558,-29.6931 26.6028,33.8829 C16.2298,59.5889 16.2568,72.5719 39.1068,138.3549 C48.9488,166.6939 7.8818,175.9439 11.1898,178.9579 C18.8538,185.9379 59.6718,185.0439 65.5088,154.3809 C71.4848,122.9839 70.1318,121.3729 71.5848,111.8539 C70.3138,128.9209 72.127286,151.126397 90.373286,171.901397 C97.223286,177.556397 100.6148,174.0549 110.0338,188.1449 C111.8428,190.8499 117.6018,205.7239 119.8378,200.8289 C122.5318,194.9299 115.5928,174.7089 117.4608,174.5329 C124.2378,173.8969 140.347601,169.439329 150.6438,159.4289 Z" id="Fill-3" fill="#090E2B"/>
                                <path d="M122.036418,49.6342397 C130.50821,45.6673042 140.939866,43.6629013 147.9268,45.1285 C151.0178,37.6225 147.8908,35.6535 147.8908,35.6535 C147.8908,35.6535 140.5188,28.6145 126.1018,34.7965 C111.6838,40.9785 106.434868,52.0960291 106.661062,54.6087238 C106.811407,56.2788379 107.62493,57.5814173 109.9168,57.7575 C109.9168,57.7575 115.59775,52.6491608 122.036418,49.6342397 Z" id="Fill-6" fill="#FF00A4"/>
                                <path d="M102.4979,192.4939 C99.6249,186.7259 92.7039,183.1519 86.7259,187.1879 C85.3729,188.1009 87.2409,188.1409 87.8109,188.0779 C94.9129,187.1489 97.6879,189.6729 100.0209,193.7109 C97.7899,194.2579 95.5609,196.2429 95.2749,198.4849 C95.1019,199.8609 95.8059,204.2659 96.2729,202.6739 C96.5259,201.8099 95.9119,195.5269 101.2009,196.0799 C101.2809,196.0979 103.1299,199.2849 103.6499,199.5149 C104.5389,199.9079 103.8099,195.1309 102.4979,192.4939" id="Fill-10" fill="#090E2B"/>
                                <path d="M138.080287,248.001974 C138.792924,248.108023 144.270382,252.072286 145.939382,253.386286 C152.268382,258.363286 157.59636,262.084659 165.385454,267.257016 C166.885041,268.252818 170.414336,270.174143 170.322336,270.650143 C170.189336,271.322143 165.46035,270.219413 164.070319,269.514911 C155.808854,265.327792 147.737728,257.41647 141.985788,252.274316 C140.105418,250.593292 137.509424,247.917023 138.080287,248.001974 Z" id="Fill-12" fill="#090E2B"/>
                            </g>
                        </g>
                        <g id="Expressions" fill="none" transform="translate(164.000000, 133.000000) scale(1 1)">
                            <g id="Expressions/Calm 1" stroke="none" stroke-width="1" fill="none" fill-rule="evenodd">
                                <g id="eye1" transform="translate(42.527098, 33.213671) rotate(-4.000000) translate(-42.527098, -33.213671) translate(21.027098, 13.213671)">
                                    <path d="M0.0487023333,7.96572872 C1.82485498,-0.0171869856 25.1977023,-2.81531309 35.4827023,3.36568691 C39.0387023,5.47868691 45.6427023,11.2837287 39.7957023,14.4437287 C38.2517023,15.1157287 36.7517023,14.4267287 35.4827023,13.6077287 C21.4647023,3.86572872 -1.18942441,13.5304877 0.0487023333,7.96572872 Z" id="Fill-1" fill="#090E2B"/>
                                    <path d="M19.0113023,22.3973287 C13.7233023,23.8973287 9.19030233,28.1473287 8.76930233,31.6693287 C8.51430233,33.7973287 16.8643023,38.9063287 24.9173023,39.3033287 C35.5113023,39.8243287 40.8513023,34.0853287 40.8324531,32.2513287 C40.1193023,26.7013287 33.7283023,18.2233287 19.0113023,22.3973287 Z" id="Fill-6" fill="#FFF"/>
                                    <path d="M35.3981023,25.5550287 C27.2551023,19.4010287 14.6431023,23.4110287 8.76910233,31.6690287 C8.43210233,32.0970287 8.52910233,31.0200287 8.76310233,30.5290287 C11.5971023,24.5820287 16.7101023,21.7750287 22.6381023,20.5510287 C26.2051023,19.8140287 29.5311023,19.7540287 33.0101023,21.3120287 C34.3551023,21.9130287 36.7311023,23.7450287 38.5671023,25.8170287 C39.9991023,27.4320287 41.2051023,30.2010287 39.5481023,29.2220287 C38.2511023,28.4550287 36.4781023,26.3720287 35.3981023,25.5550287 Z" id="Fill-8" fill="#090E2B"/>
                                    <path d="M24.8135023,36.0623287 C29.3405023,36.0623287 33.0105023,32.7143287 33.0105023,28.5833287 C33.0105023,24.4533287 29.3405023,21.1043287 24.8135023,21.1043287 C20.2865023,21.1043287 16.6165023,24.4533287 16.6165023,28.5833287 C16.6165023,32.7143287 20.2865023,36.0623287 24.8135023,36.0623287 Z" id="Fill-10" fill="#090E2B"/>
                                </g>
                                <g id="eye2" transform="translate(81.203378, 15.000183)">
                                    <path d="M23.2557812,1.861246 C26.6096324,3.34897691 31.0744206,8.28711729 27.357522,8.28711729 C23.6406234,8.28711729 15.5900245,7.23270759 10.1930245,9.45970759 C8.30802454,9.94170759 6.87752199,10.8641173 4.98452199,11.0891173 C0.67652199,11.9281173 -1.66408888,6.76839233 1.38185604,3.64904337 C4.82290212,0.125071736 16.4397812,-1.545754 23.2557812,1.861246 Z" id="Fill-4" fill="#090E2B"/>
                                    <path d="M19.455322,34.2343173 C24.826322,32.9853173 28.843322,28.1153173 28.389322,24.4763173 C27.503322,19.6543173 18.218322,16.5753173 13.017322,19.2083173 C7.86632199,21.8153173 4.64332199,27.6403173 5.05932199,29.9403173 C5.66032199,31.5323173 13.966322,35.5113173 19.455322,34.2343173 Z" id="Fill-12" fill="#FFF"/>
                                    <path d="M15.011222,31.6060173 C18.549222,31.6060173 21.417222,28.8520173 21.417222,25.4560173 C21.417222,22.0590173 19.396222,18.8490173 15.011222,19.3060173 C11.492222,19.6720173 8.60422199,22.0590173 8.60422199,25.4560173 C8.60422199,28.8520173 11.473222,31.6060173 15.011222,31.6060173 Z" id="Fill-14" fill="#090E2B"/>
                                    <path d="M5.25072199,26.6376173 C7.27972199,19.0636173 16.440722,15.1686173 23.685722,18.7546173 C24.705722,19.2866173 26.361722,20.4806173 27.601722,21.9226173 C28.742722,23.2526173 28.593722,23.9496173 28.127722,23.8116173 C27.355722,23.5816173 25.722722,22.1166173 24.395722,21.4866173 C17.685722,18.3036173 10.704722,20.0896173 5.59372199,27.5586173 C5.34272199,27.9456173 5.10472199,27.0746173 5.25072199,26.6376173" id="Fill-22" fill="#090E2B"/>
                                </g>
                                <path d="M85.9879908,71.3386563 C85.0131141,76.2575144 78.9689699,76.7359636 75.0323155,75.6212963 C71.832522,74.7152719 71.0034674,72.851321 72.0853454,72.2537752 C73.8485675,71.2799076 79.4997296,73.9889887 81.5858367,71.4027854 C85.305606,66.7912866 73.8914605,49.8346319 77.5177277,52.5592059 C82.3102149,56.1600121 86.6386051,68.0559034 85.9879908,71.3386563 Z" id="nose" fill="#090E2B"/>
                                <g id="lips" transform="translate(57.561158, 83.472328)" fill="#090E2B">
                                    <path d="M24.6314423,10.2352717 C21.1964423,11.9522717 16.3084423,13.7232717 10.6794423,12.9182717 C5.05144233,12.1142717 2.01844233,8.81927172 0.786442327,6.40327172 C-1.32255767,2.27127172 1.13144233,-0.833728284 4.34844233,0.200271716 C7.56344233,1.23527172 9.40744233,5.68627172 12.5654423,6.45927172 C16.4424423,7.40827172 22.8454423,4.43627172 26.5024423,3.47827172 C30.3364423,2.47327172 36.6974423,2.09918012 36.6974423,8.52727172 C36.6974423,12.1251305 34.5597106,11.3954112 32.84831,9.25710631 C31.1369095,7.11880144 28.0664423,8.51727172 24.6314423,10.2352717 Z" id="Fill-18"/>
                                    <path d="M22.8970423,17.2262717 C18.4760423,16.5892717 14.2940423,17.1472717 14.5340423,20.0932717 C14.7730423,23.0402717 22.3760423,25.5572717 25.7640423,21.0492717 C26.4820423,20.0942717 27.3170423,17.8632717 22.8970423,17.2262717 Z" id="Fill-20"/>
                                </g>
                            </g>
                        </g>
                        <g id="Facial Accesories" fill="none" transform="translate(161.000000, 183.000000) scale(1 1)">
                            <g id="Facial Accesories/None" stroke="none" stroke-width="1" fill="none" fill-rule="evenodd" fill-opacity="0"/>
                        </g>
                        <g id="Glass" fill="none" transform="translate(164.000000, 138.000000) scale(1 1)">
                            <g id="Glass/None" stroke="none" stroke-width="1" fill="none" fill-rule="evenodd" fill-opacity="0"/>
                        </g>
                    </g>
                </g>
                <path d="M49.0625,50 L49.0625,46.71875 L41.5332031,46.71875 L41.5332031,46.6455078 L48.8867188,37.0068359 L48.8867188,34.296875 L36.2158203,34.296875 L36.2158203,37.5634766 L43.9208984,37.5634766 L43.9208984,37.6513672 L36.0986328,47.5683594 L36.0986328,50 L49.0625,50 Z M58.7597656,50.3369141 C63.5058594,50.3369141 66.5380859,47.3046875 66.5380859,42.1337891 C66.5380859,37.0361328 63.4619141,33.9599609 58.7597656,33.9599609 C54.0576172,33.9599609 50.9814453,37.0507812 50.9814453,42.1337891 C50.9814453,47.2900391 54.0136719,50.3369141 58.7597656,50.3369141 Z M58.7597656,47.0703125 C56.6503906,47.0703125 55.3173828,45.2978516 55.3173828,42.1484375 C55.3173828,39.0283203 56.6796875,37.2265625 58.7597656,37.2265625 C60.8398438,37.2265625 62.1875,39.0283203 62.1875,42.1484375 C62.1875,45.2978516 60.8544922,47.0703125 58.7597656,47.0703125 Z M77.1142578,50.46875 C82.4316406,50.46875 85.6542969,46.2060547 85.6542969,39.3798828 C85.6542969,32.5537109 82.4023438,28.3789062 77.1142578,28.3789062 C71.8261719,28.3789062 68.5595703,32.5683594 68.5595703,39.3945312 C68.5595703,46.2353516 71.796875,50.46875 77.1142578,50.46875 Z M77.1142578,46.9238281 C74.5947266,46.9238281 73.0566406,44.1992188 73.0566406,39.3945312 C73.0566406,34.6337891 74.6240234,31.9238281 77.1142578,31.9238281 C79.6191406,31.9238281 81.1572266,34.6191406 81.1572266,39.3945312 C81.1572266,44.2138672 79.6337891,46.9238281 77.1142578,46.9238281 Z M95.46875,50.3369141 C100.214844,50.3369141 103.24707,47.3046875 103.24707,42.1337891 C103.24707,37.0361328 100.170898,33.9599609 95.46875,33.9599609 C90.7666016,33.9599609 87.6904297,37.0507812 87.6904297,42.1337891 C87.6904297,47.2900391 90.7226562,50.3369141 95.46875,50.3369141 Z M95.46875,47.0703125 C93.359375,47.0703125 92.0263672,45.2978516 92.0263672,42.1484375 C92.0263672,39.0283203 93.3886719,37.2265625 95.46875,37.2265625 C97.5488281,37.2265625 98.8964844,39.0283203 98.8964844,42.1484375 C98.8964844,45.2978516 97.5634766,47.0703125 95.46875,47.0703125 Z M109.72168,50 L109.72168,40.5224609 C109.72168,38.7646484 110.820312,37.5341797 112.446289,37.5341797 C114.02832,37.5341797 114.980469,38.5302734 114.980469,40.2148438 L114.980469,50 L119.09668,50 L119.09668,40.4638672 C119.09668,38.7207031 120.166016,37.5341797 121.791992,37.5341797 C123.447266,37.5341797 124.355469,38.5302734 124.355469,40.3466797 L124.355469,50 L128.632812,50 L128.632812,39.2773438 C128.632812,36.1132812 126.567383,34.0039062 123.491211,34.0039062 C121.191406,34.0039062 119.316406,35.2490234 118.613281,37.2265625 L118.525391,37.2265625 C117.998047,35.1757812 116.416016,34.0039062 114.145508,34.0039062 C112.006836,34.0039062 110.322266,35.2490234 109.663086,37.1386719 L109.575195,37.1386719 L109.575195,34.296875 L105.444336,34.296875 L105.444336,50 L109.72168,50 Z" id="zo0om" fill="#000" fill-rule="nonzero" mask="url(#masterspot-ilustrationskeeping-in-touch-mask-2)"/>
            </g>
            <rect id="Rectangle" fill="#F67A49" x="254" y="441" width="119" height="57"/>
            <path d="M198,498 L428,498 C436.284271,498 443,504.715729 443,513 L443,524 L443,524 L183,524 L183,513 C183,504.715729 189.715729,498 198,498 Z" id="Rectangle-Copy-4" fill="#FFB201"/>
        </g>
        <g id="Chair" transform="translate(1563.000000, 1654.000000) scale(-1, 1) translate(-1563.000000, -1654.000000) translate(1263.000000, 1254.000000) scale(0.8571428571428571 1)">
            <g id="Chair/Tall Chair 2" stroke="none" stroke-width="1" fill="none" fill-rule="evenodd">
                <g id="Group" transform="translate(150.000000, 169.000000)">
                    <path d="M322.77787,249.880468 C322.347405,248.021078 320.683897,246.630108 318.692311,246.622411 L318.658182,246.622411 L156.340052,245.99972 L156.32574,245.99972 C154.122775,245.990152 152.127886,247.502075 151.614851,249.737523 L74.0695961,627.630966 C73.7349127,629.095607 74.638778,630.563547 76.1052196,630.917612 C77.5826705,631.273876 79.0700298,630.367822 79.4278327,628.892185 L160.163589,255.682956 L315.32566,255.088083 L395.570401,628.892185 C395.922699,630.356826 397.393544,631.269478 398.866592,630.928608 C400.348446,630.586639 401.271027,629.111001 400.928637,627.630966 L322.77787,249.880468 Z" id="Fill-4" fill="#090E2B"/>
                    <path d="M265.77787,249.880468 C265.347405,248.021078 263.683897,246.630108 261.692311,246.622411 L261.658182,246.622411 L99.3400519,245.99972 L99.3257398,245.99972 C97.1227746,245.990152 95.1278856,247.502075 94.6148512,249.737523 L17.0695961,627.630966 C16.7349127,629.095607 17.638778,630.563547 19.1052196,630.917612 C20.5826705,631.273876 22.0700298,630.367822 22.4278327,628.892185 L103.163589,255.682956 L258.32566,255.088083 L338.570401,628.892185 C338.922699,630.356826 340.393544,631.269478 341.866592,630.928608 C343.348446,630.586639 344.271027,629.111001 343.928637,627.630966 L265.77787,249.880468 Z" id="Fill-4-Copy" fill="#090E2B"/>
                    <path d="M58.1921488,41.2196463 C66.3085398,81.4190302 112.030062,206.924243 136.697616,221.042896 C161.365171,235.160391 305.423549,232.409824 322.322031,233.819837 C339.220514,235.231007 357.527877,245.104572 354.711271,263.44053 C351.894665,281.777645 344.853727,276.135278 295.566004,276.135278 C246.278282,276.135278 130.805511,276.954891 130.805511,276.954891 C130.805511,276.954891 71.0083919,280.665147 46.3951587,220.787056 C23.8530616,165.945883 3.90856718,64.7475273 1.09196081,46.4104117 C-1.72348979,28.0732961 0.311817478,5.58486122 14.2642476,1.0202623 C24.8279662,-2.43531157 50.0757579,1.0202623 58.1921488,41.2196463 Z" id="Fill-1" fill="#008BF2"/>
                </g>
            </g>
        </g>
        <g id="Clock" transform="translate(1254.000000, 353.000000)">
            <path d="M299.456,151.596 C299.456,235.32 232.42,303.192 149.724,303.192 C67.036,303.192 -8.52651283e-13,235.32 -8.52651283e-13,151.596 C-8.52651283e-13,67.872 67.036,0 149.724,0 C232.42,0 299.456,67.872 299.456,151.596" id="Fill-1" fill="#C7D2F2"/>
            <path d="M283.2176,151.596 C283.2176,226.24 223.4536,286.752 149.7256,286.752 C76.0016,286.752 16.2376,226.24 16.2376,151.596 C16.2376,76.952 76.0016,16.44 149.7256,16.44 C223.4536,16.44 283.2176,76.952 283.2176,151.596" id="Fill-3" fill="#F9FAFA"/>
            <path d="M160.9052,151.596 C160.9052,157.844 155.9012,162.912 149.7252,162.912 C143.5532,162.912 138.5492,157.844 138.5492,151.596 C138.5492,145.344 143.5532,140.276 149.7252,140.276 C155.9012,140.276 160.9052,145.344 160.9052,151.596" id="Fill-5" fill="#C7D2F2"/>
            <polygon id="Fill-7" fill="#C7D2F2" points="147.194 46.1016 152.566 46.1016 152.566 21.3776 147.194 21.3776"/>
            <polygon id="Fill-9" fill="#C7D2F2" points="147.194 281.9576 152.566 281.9576 152.566 257.2336 147.194 257.2336"/>
            <polygon id="Fill-10" fill="#C7D2F2" points="254.146 154.3856 278.562 154.3856 278.562 148.9456 254.146 148.9456"/>
            <polygon id="Fill-11" fill="#C7D2F2" points="21.19 154.3856 45.61 154.3856 45.61 148.9456 21.19 148.9456"/>
            <polygon id="Fill-12" fill="#C7D2F2" points="146.9248 147.68 149.9288 61.968 152.9368 147.68"/>
            <polygon id="Fill-13" fill="#C7D2F2" points="146.452 153.1252 88.768 90.3172 150.704 148.8252"/>
        </g>
        <path d="M1746.4854,803 C1748.14225,803 1749.4854,804.343946 1749.4854,806.0008 C1749.4854,807.598481 1748.23648,808.904461 1746.66167,808.995707 L1746.4854,809.0008 L1666.2034,809 L1666.2034,868.462 L1833.4054,868.4628 C1835.00308,868.4628 1836.30906,869.71172 1836.40031,871.286527 L1836.4054,871.4628 C1836.4054,873.060481 1835.15648,874.366461 1833.58167,874.457707 L1833.4054,874.4628 L1749.4854,874.462 L1749.4854,933.926 L1833.4054,933.9266 C1835.06225,933.9266 1836.4054,935.269746 1836.4054,936.9266 C1836.4054,938.524281 1835.15648,939.830261 1833.58167,939.921507 L1833.4054,939.9266 L1666.2034,939.926 L1666.2034,999.386 L1833.4054,999.3866 C1835.00308,999.3866 1836.30906,1000.63552 1836.40031,1002.21033 L1836.4054,1002.3866 C1836.4054,1003.98428 1835.15648,1005.29026 1833.58167,1005.38151 L1833.4054,1005.3866 L1579.2824,1005.387 L1579.2824,1064.849 L1663.2032,1064.8496 C1664.80088,1064.8496 1666.10686,1066.09852 1666.19811,1067.67333 L1666.2032,1067.8496 C1666.2032,1069.44728 1664.95428,1070.75326 1663.37947,1070.84451 L1663.2032,1070.8496 L1576.2832,1070.8496 C1574.68552,1070.8496 1573.37954,1069.60068 1573.28829,1068.02587 L1573.2832,1067.8496 L1573.2824,1005.385 L1526.959,1005.3856 C1525.30215,1005.3856 1523.959,1004.04245 1523.959,1002.3856 C1523.959,1000.78792 1525.20792,999.481939 1526.78273,999.390693 L1526.959,999.3856 L1660.2024,999.385 L1660.2024,939.925 L1526.959,939.9256 C1525.36132,939.9256 1524.05534,938.67668 1523.96409,937.101873 L1523.959,936.9256 C1523.959,935.327919 1525.20792,934.021939 1526.78273,933.930693 L1526.959,933.9256 L1573.2814,933.925 L1573.2814,874.461 L1493.0004,874.462 C1491.34355,874.462 1490.0004,873.118854 1490.0004,871.462 C1490.0004,869.864319 1491.24932,868.558339 1492.82413,868.467093 L1493.0004,868.462 L1660.2024,868.461 L1660.2024,809 L1601.5304,809 C1599.93272,809 1598.62674,807.75108 1598.53549,806.176273 L1598.5304,806 C1598.5304,804.402319 1599.77932,803.096339 1601.35413,803.005093 L1601.5304,803 L1746.4854,803 Z M1743.4854,874.463 L1579.2814,874.463 L1579.2814,933.925 L1743.4854,933.925 L1743.4854,874.463 Z" id="Bricks" fill="#FFF" fill-rule="nonzero"/>
        <path d="M800.485,1606 C802.141854,1606 803.485,1607.34395 803.485,1609.0008 C803.485,1610.59848 802.23608,1611.90446 800.661273,1611.99571 L800.485,1612.0008 L720.202,1612 L720.202,1671.462 L847.650595,1671.4628 C849.248276,1671.4628 850.554256,1672.71172 850.645502,1674.28653 L850.650595,1674.4628 C850.650595,1676.06048 849.401675,1677.36646 847.826868,1677.45771 L847.650595,1677.4628 L803.485,1677.462 L803.485,1736.926 L887.405,1736.9266 C889.061854,1736.9266 890.405,1738.26975 890.405,1739.9266 C890.405,1741.52428 889.15608,1742.83026 887.581273,1742.92151 L887.405,1742.9266 L720.202,1742.926 L720.202,1802.386 L818.159281,1802.3866 C819.756962,1802.3866 821.062942,1803.63552 821.154188,1805.21033 L821.159281,1805.3866 C821.159281,1806.98428 819.910361,1808.29026 818.335554,1808.38151 L818.159281,1808.3866 L629.84,1808.3866 C628.183146,1808.3866 626.84,1807.04245 626.84,1805.3856 C626.84,1803.78792 628.08892,1802.48194 629.663727,1802.39069 L629.84,1802.3856 L714.202,1802.385 L714.202,1742.925 L629.84,1742.9256 C628.242319,1742.9256 626.936339,1741.67668 626.845093,1740.10187 L626.84,1739.9256 C626.84,1739.35179 627.001101,1738.8156 627.280541,1738.3598 L627.280541,1676.0278 C627.001101,1675.572 626.84,1675.03581 626.84,1674.462 C626.84,1672.86432 628.08892,1671.55834 629.663727,1671.46709 L629.84,1671.462 L714.202,1671.461 L714.202,1612 L655.53,1612 C653.932319,1612 652.626339,1610.75108 652.535093,1609.17627 L652.53,1609 C652.53,1607.40232 653.77892,1606.09634 655.353727,1606.00509 L655.53,1606 L800.485,1606 Z M797.485,1677.463 L633.281,1677.463 L633.281,1736.925 L797.485,1736.925 L797.485,1677.463 Z" id="Bricks" fill-opacity=".08" fill="#000" fill-rule="nonzero"/>
        <g transform="translate(1476.500000, 1306.500000) scale(-1, 1) translate(-1476.500000, -1306.500000) translate(921.500000, 556.500000) scale(1 1)" id="Master/Character/Sitting">
            <g id="Master/Character/Sitting" stroke="none" stroke-width="1" fill="none" fill-rule="evenodd">
                <g id="Sitting" transform="translate(179.000000, 940.000000) scale(1 1)">
                    <g id="Sitting/On Chair 3" stroke="none" stroke-width="1" fill="none" fill-rule="evenodd">
                        <path d="M410.615323,399.49997 C410.615323,399.49997 400.357969,471.949685 396.171539,502.905682 C391.949971,534.125643 467.0487,503.736716 467.0487,503.736716 C467.0487,503.736716 453.509565,484.44329 453.304761,479.157997 C453.100961,473.870697 476.218696,412 476.218696,412 L410.615323,399.49997 Z" id="Fill-3" fill="#09b9c6"/>
                        <path d="M561.035706,7.46069873e-14 C597.897949,16.8477074 635.153618,59.3884812 602.589029,139.128809 C570.024441,218.869137 493.394303,411.87247 481.349448,420.555326 C469.305594,429.239182 405.784608,412 405.784608,412 C405.784608,412 412.732597,330.944505 426.534884,251.242608 C436.641716,192.880271 457.952435,150.325862 457.952435,150.325862 C457.952435,150.325862 286.540837,174.784268 243.98254,146.076381 C188.124727,108.397247 229.480836,6.86053872 261.586066,-5.71064401 C302.858588,-21.8713886 490.854841,-32.0758202 561.035706,7.46069873e-14 Z" id="Fill-5" fill="#F67A49"/>
                        <path d="M559.105053,537.550495 C553.718837,520.869499 514.662001,509.852921 486.4598,501.514412 C476.966506,498.70607 463.702961,484.835405 457.545853,485.001479 C448.581857,485.24512 457.367415,503.898122 427.362791,502.274176 C419.4193,501.844571 418.851908,493.484184 401.591555,491.580796 C398.786673,491.272515 394.499152,490.727553 390.796066,497.394383 C388.732001,501.110663 380.282268,534.66359 388.577622,548.345309 C446.664152,549.845942 506.41276,548.363209 558.020392,547.881892 C563.059757,547.834159 560.482433,541.818697 559.105053,537.550495" id="Fill-17" fill="#FF0057"/>
                        <path d="M654.970564,412 C654.970564,412 665.530533,466.509706 672.596211,475.377601 C679.662889,484.243493 716.32892,494.221378 717.974942,499.698195 C719.618961,505.175012 639.820958,518 639.820958,518 L591,416.698422 L654.970564,412 Z" id="Fill-1" fill="#09b9c6"/>
                        <path d="M790.105053,534.5497 C784.718837,517.869641 745.662001,506.853025 717.4598,498.513492 C707.966506,495.706135 694.702961,481.834427 688.545853,482.001496 C679.581857,482.244144 688.367415,500.898205 658.362791,499.274253 C650.420302,498.844647 649.85291,490.483237 632.591555,488.580837 C629.786673,488.27156 625.499152,487.727591 621.796066,494.393449 C619.732001,498.109742 611.282268,531.662786 619.577622,545.345546 C677.664152,546.846185 737.41276,545.362452 789.020392,544.881134 C794.059757,544.8334 791.482433,538.817918 790.105053,534.5497" id="Fill-10" fill="#FF0057"/>
                        <path d="M722.704751,510.429527 C726.392384,503.004274 728.005104,501.713139 726.433049,500.543939 C722.673012,497.748284 703.571309,506.385021 702.069675,511.523009 C700.944937,515.373796 713.664197,504.228541 723.820563,502.565701 C719.658833,506.366337 715.778784,518.019983 719.874061,515.696334 C739.826756,504.381943 742.973841,507.006496 742.998637,506.585624 C743.116665,504.585496 735.565843,502.966906 722.704751,510.429527" id="Fill-15" fill="#FFB201"/>
                        <path d="M180.126096,77 C192.090433,138.955221 247.290014,161.21191 295.189049,159.361921 C368.355288,156.536045 442.938988,124.042498 468.151215,113.183029 C465.930109,129.164147 477.804596,220.024734 497.628146,262.074146 C517.451696,304.123559 582.008895,430.623213 582.008895,430.623213 C582.008895,430.623213 654.850327,431.050084 657.965073,413.369038 C660.014248,401.737852 591.630112,76.8494703 569.008895,20.5961921 C556.018259,-11.7082512 513.975789,-25.6487365 427.5,-33 C340.646127,-40.3834042 214.030282,-26.7715765 214.030282,-26.7715765 C214.030282,-26.7715765 168.16176,15.0447792 180.126096,77 Z" id="Fill-7" fill="#FFB201"/>
                        <path d="M491.704751,514.429893 C495.392384,507.004835 497.005104,505.713735 495.432058,504.543583 C491.67202,501.748984 472.571309,510.385493 471.069675,515.522362 C469.944937,519.373048 482.664197,508.228087 492.820563,506.566274 C488.658833,510.36681 484.777792,522.019165 488.874061,519.69656 C508.826756,508.381485 511.973841,511.005969 511.998637,510.585107 C512.116665,508.585032 504.565843,506.966486 491.704751,514.429893" id="Fill-22" fill="#FFB201"/>
                        <path d="M546.8316,554.3915 L407.0166,556.8575 C397.6626,557.2315 383.6706,554.0145 382.3176,546.2435 C381.3066,540.4375 383.5546,527.7955 384.0206,526.9545 C387.2776,521.0945 415.0326,526.0385 423.1176,545.8275 C474.1316,549.6495 561.0086,545.9125 561.0086,545.9125 C561.0086,545.9125 562.3126,553.5935 546.8316,554.3915" id="Fill-19" fill="#090E2B"/>
                        <path d="M777.7223,550.7851 L637.9073,553.2511 C628.5543,553.6251 614.5613,550.4091 613.2083,542.6381 C612.1983,536.8321 614.4453,524.1901 614.9123,523.3491 C618.1683,517.4891 645.9233,522.4331 654.0083,542.2221 C705.0223,546.0441 791.9003,542.3071 791.9003,542.3071 C791.9003,542.3071 793.2033,549.9881 777.7223,550.7851" id="Fill-12" fill="#090E2B"/>
                    </g>
                </g>
                <g id="Upper Body/Sitting" transform="translate(243.000000, 170.000000) scale(1 1.0010526315789474)">
                    <g id="Upper Body/Sitting/Namaste 1" stroke="none" stroke-width="1" fill="none" fill-rule="evenodd">
                        <path d="M345.929327,635.91287 L330,606.8482 C330,606.8482 352.184069,582.633491 362.545418,578.415219 C378.141346,572.066253 385.087842,573.055897 385.087842,573.055897 C385.087842,573.055897 401.978439,610.370613 405,641.545923 C387.504492,654.183695 345.929327,635.91287 345.929327,635.91287" id="Fill-1" fill="#09b9c6"/>
                        <path d="M209.711172,383 C209.711172,383 215.322511,427.556873 206.830431,445.779166 C204.051787,451.742224 183.267011,456.893551 178,460.55286 C197.222289,496.926206 242.954802,504 256.243445,504 C279.98003,504 279.978028,480.329381 281,462.909787 C272.788187,460.485633 264.542341,457.206604 262.728616,450.070601 C261.53548,445.37882 265.807545,410.554684 265.807545,410.554684 L209.711172,383 Z" id="neck" fill="#09b9c6"/>
                        <path d="M277.469798,459.358063 C277.469798,459.358063 274.379278,488.896316 261.205641,495.746808 C254.398712,499.284964 193.400886,464.0383 187.094071,455 C182.682893,454.978584 146.816499,465.343251 141.804388,469.223132 C136.791278,473.103013 121.532293,548.550277 127.715328,567.117351 C133.898363,585.684424 154.717747,583.819465 156.724717,619.150077 C160.010332,676.989903 146.732315,748.018187 129.206662,780.915711 C126.654939,785.705569 111.944198,801.592353 133.802542,809.645664 C145.956712,814.123648 217.615948,774.841958 252.68908,766.061181 C315.075727,750.442296 330.053945,755.146912 333.551286,752.994478 C345.006913,745.944128 310.549134,728.031065 322.360189,642.283001 C324.199926,628.92574 326.795323,617.307081 329.073284,607.542931 C330.31009,611.463778 332.923456,622.96753 336.829529,622.417972 C354.124857,619.986926 390.035173,613.325282 400.702256,607.379062 C403.667997,605.725392 383.892067,554.937223 367.465199,527.435333 C355.673111,507.692205 338.863921,481.49027 318.802498,471.510293 C303.59347,463.943376 277.469798,459.358063 277.469798,459.358063 Z" id="Fill-5" fill="#FF0057"/>
                        <path d="M272.909165,551.031393 C272.909165,551.031393 278.360224,544.210092 286.898717,551.032393 C293.069577,555.96361 294.839544,571.376289 295.320078,575.533472 C295.799612,579.690655 298.162238,609.273958 291.311622,617.824335 C311.288831,622.813554 350.790744,634.194056 350.790744,634.194056 C350.790744,634.194056 377.522461,634.231057 404.386326,637.683209 C407.171422,657.323074 409.057518,694.649719 385.943823,696.903818 C375.696431,697.902862 321.051684,692.246613 277.318066,625.44467 C262.361439,621.061477 261.819837,612.854116 261.041972,599.608532 C260.179013,584.928886 272.909165,551.031393 272.909165,551.031393" id="Fill-8" fill="#09b9c6"/>
                        <path d="M78.588881,585.435257 C68.0045781,612.001851 62.2000897,666.633959 64.4991145,685.169978 C69.9720321,729.301641 138.888847,723.196964 208.833332,675.247503 C241.199448,653.060677 258.410175,639.03542 268.811715,628.679968 C276.035367,621.488349 284.022031,621.194364 287.446599,606.611136 C290.259959,594.624771 289.16138,566.935237 284.883916,557.62173 C280.605452,548.308223 274.56427,547.593261 271.047821,547.054289 C262.380038,545.726359 258.18247,569.119121 255.682705,577.810661 C255.23029,575.221798 253.115028,571.769981 251.437199,570.558045 C246.954001,567.319216 244.220538,569.040125 247.481318,576.807714 C250.912877,584.978281 241.129538,605.4132 250.724122,614.346727 C234.551051,624.11421 204.112442,627.789015 181.377862,632.61276 C160.513862,637.037526 141.112969,641.237303 138.296614,641.48829 C143.428972,625.364144 155.515331,597.207634 155.515331,597.207634 C155.515331,597.207634 89.1741826,558.867664 78.588881,585.435257" id="Fill-11" fill="#09b9c6"/>
                        <path d="M113.074243,649.568517 C121.030207,645.4734 129.581953,641.639798 138.693833,641.000211 C139.027878,640.988458 139.12361,641.470352 138.803824,641.573195 C132.691215,643.814197 125.953291,646.157062 119.781614,648.145363 C118.909839,648.221761 112.225892,651.057294 113.074243,649.568517" id="Fill-23" fill="#090E2B"/>
                        <path d="M144.253856,468 C144.253856,468 182.094239,513.191968 183.938457,535.582525 C185.780678,557.974079 145.664961,629 144.047279,629 C140.231107,628.998006 125.474375,621.871879 98.5416181,618.118347 C71.780509,614.388748 70.6568139,614.105538 70.0510564,610.110679 C68.7876478,601.792876 91.2166427,532.472199 110.1538,500.662909 C124.81872,476.030604 144.253856,468 144.253856,468" id="Fill-13" fill="#FF0057"/>
                        <path d="M183.383367,525.675662 C182.476496,523.094561 184.29645,519.48255 185.709135,530.704295 C187.60457,545.760792 179.91655,561.817428 171.937464,579.967097 C169.516812,584.963128 159.056422,604.015164 154.46337,611.329884 C153.137693,613.441107 154.940331,610.145028 156.31389,607.247272 C163.762596,591.532956 187.60457,550.423153 183.383367,525.675662 Z" id="Fill-15" fill="#090E2B"/>
                        <path d="M328.767253,527.613858 C341.516494,552.935473 334.645663,581.233276 329.096724,607.541616 C329.036638,607.833831 328.788283,608.194096 328.837353,607.875862 C330.602879,592.065239 333.650239,573.229392 333.706319,557.459799 C333.263686,547.425422 330.886285,536.797609 328.02419,527.182541 C327.859955,526.751224 328.578983,527.161525 328.767253,527.613858" id="Fill-17" fill="#090E2B"/>
                        <path d="M277.696495,549.012213 C294.420136,553.093291 294.219968,609.255694 283.513546,619.320149 C280.953027,621.923665 277.391671,624.409977 274,625 C275.26197,623.87004 277.330706,623.239948 278.693268,622.050885 C292.161393,612.467264 289.209684,581.632788 287.356356,566.897231 C286.325036,560.260722 284.561123,552.194733 277.572533,549.383858 C277.339851,549.32175 277.457716,548.926064 277.696495,549.012213" id="Fill-19" fill="#090E2B"/>
                        <path d="M344.17715,632.002775 C352.515963,633.530582 371.520227,637.140192 378.646066,641.981807 C379.120311,642.305056 380.347471,643.183316 379.905653,642.965784 C379.546929,642.789929 378.666333,642.412805 378.037046,642.14953 C368.80345,638.300025 358.137998,636.37883 348.626746,633.575308 L344.111283,632.313825 C343.931921,632.267066 343.980562,631.968213 344.17715,632.002775" id="Fill-21" fill="#090E2B"/>
                    </g>
                </g>
                <g id="Head" transform="translate(341.000000, 346.000000) scale(1 1)">
                    <g id="Head/Long Hair Hat" stroke="none" stroke-width="1" fill="none" fill-rule="evenodd">
                        <path d="M70.2561019,97.4988116 C55.8815648,61.6950724 65.0293703,37.9505667 97.6995186,26.2652945 C146.704741,8.73738625 185.296388,17.974116 190.235438,59.3051654 C198.157562,125.599223 94.9177557,158.925445 70.2561019,97.4988116 Z" id="Path-10" fill="#FFB201"/>
                        <path d="M146.175763,222.265294 C53.2245817,222.265294 -22,206.483116 -22,143.463659 C-22,80.4451763 31.2016807,46.241742 130.854945,31.590673 C230.508209,16.939604 302,13.2004582 302,96.454099 C302,159.473556 239.129312,222.265294 146.175763,222.265294 Z" id="Fill-1" fill="#FFB201"/>
                        <path d="M-106.281498,235.5 C-66.0679622,209.611032 -17.144614,224.3795 8.88738598,215.1235 C51.195386,200.0805 45.4881941,152.689596 85.35,135.013504 C96.1764599,100.831573 126.660547,83.7612703 171.658946,83.7612703 C242.273176,83.7612703 244.238693,140.447 245.970693,150 C252.335693,185.102 239.1158,253.4885 252.4698,276.9925 C274.8878,316.4545 264.5268,342.2155 252.8368,351.6275 C240.2348,361.7745 203.5688,352.4845 195.6138,345.8925 C180.4328,333.3135 165.1148,328.3775 165.1148,286.6725 C157.1888,274.5035 156.7218,270.9005 158.5118,256.1275 C160.6658,238.3535 162.69106,222.2745 124.43506,215.1235 C127.545511,245.85586 132.654096,267.016784 118.354071,282.575637 C104.054045,298.13449 89.6971105,298.13449 72.0618,304 C35.0070839,316.324411 22.5879437,420.655109 -90.4692058,376.973466 C-151.085206,354.330466 -146.495034,261.388968 -106.281498,235.5 Z" id="Fill-3" fill="#090E2B"/>
                        <path d="M234.766351,156.809989 C243.747501,193.621941 240.591641,218.766488 232.575188,234.654952 C223.138867,253.357571 215.14308,262.203043 198.631249,262.783783 C166.782298,263.903948 146.769876,252.085896 135.517429,241.802756 C123.663779,230.9702 119.685475,218.292019 116.4017,210.0813 C115.990445,209.052937 115.616439,207.955724 115.276593,206.802752 L115.615,206.7175 C104.397,209.6475 85.35,199.8205 85.35,176.7455 C85.35,166.516571 101.568204,153.837822 112.35613,165.811952 C112.490126,163.05239 112.62352,161.390056 112.62352,161.390056 C120.16352,131.230056 163.008694,114.037304 190.5347,110.2713 C238.201544,103.749703 225.785202,119.998038 234.766351,156.809989 Z" id="Combined-Shape" fill="#09b9c6"/>
                        <path d="M110.260906,179.030159 C107.387906,173.262159 100.466906,169.688159 94.4889061,173.724159 C93.1359061,174.637159 94.9599061,175.262159 95.5309061,175.198159 C102.631906,174.269159 105.450906,176.210159 107.783906,180.247159 C105.552906,180.794159 103.323906,182.779159 103.038906,185.021159 C102.864906,186.397159 103.340906,190.470159 104.390906,189.185159 C105.116906,188.297159 103.516906,182.239159 108.805906,182.792159 C108.885906,182.810159 108.957906,182.814159 109.032906,182.821159 C109.281906,183.419159 111.272906,184.657159 112.127906,183.619159 C112.651906,182.985159 111.572906,181.667159 110.260906,179.030159" id="Fill-8" fill="#090E2B"/>
                        <path d="M184.510972,83.8578 C156.443412,85.8888 116.344674,115.8978 109.891199,137.8978 C108.798428,141.6248 109.800397,161.00949 112.187365,165.38949 C115.363503,171.22049 115.016418,184.5168 124.481581,186.0588 C141.168954,188.7758 124.021313,163.9558 126.553271,157.4708 C136.09628,133.0178 166.368842,148.5498 184.510972,143.0138 C209.353739,135.4338 218.55617,130.0448 219.193538,129.0798 C222.416384,141.4558 239.795617,165.1488 245.815099,169.7678 C247.772938,171.2688 245.134915,144.3788 238.851728,122.6218 C235.049899,109.4558 211.193836,81.9268 184.510972,83.8578 Z" id="Fill-9" fill="#090E2B"/>
                        <path d="M107.2742,236.0906 C95.6422,236.0906 86.1782,226.6266 86.1782,214.9946 C86.1782,208.8476 88.8402,202.9286 93.5032,198.9136 C94.2692,199.6966 95.1862,200.5656 95.8692,201.1486 C91.8702,204.5926 89.1782,209.7216 89.1782,214.9946 C89.1782,224.9726 97.2962,233.0906 107.2742,233.0906 C117.2522,233.0906 125.3702,224.9726 125.3702,214.9946 C125.3702,205.0176 117.2522,196.8996 107.2742,196.8996 C106.4462,196.8996 105.7742,196.2276 105.7742,195.3996 C105.7742,194.5706 106.4462,193.8996 107.2742,193.8996 C118.9062,193.8996 128.3702,203.3626 128.3702,214.9946 C128.3702,226.6266 118.9062,236.0906 107.2742,236.0906" id="Fill-11" fill="#FFF"/>
                        <path d="M152.051658,254.807156 C147.761215,252.73178 139.062884,248.94355 137.181884,246.48855 C136.201884,245.20955 139.422217,246.726877 141.112217,247.783877 C143.361217,249.189877 152.489516,253.11955 163.690516,257.23955 C164.661516,257.59655 170.871516,259.58955 171.049516,259.91355 C171.216516,260.21655 170.663516,260.81555 169.946516,260.78355 C165.129516,260.56555 156.78076,257.09472 152.051658,254.807156 Z" id="Fill-4" fill="#090E2B" transform="translate(154.039749, 253.392391) rotate(5.000000) translate(-154.039749, -253.392391)"/>
                    </g>
                </g>
                <g id="Expressions" transform="translate(462.000000, 479.000000) scale(1 1)">
                    <g id="Expressions/In Love" stroke="none" stroke-width="1" fill="none" fill-rule="evenodd">
                        <path d="M89.4189912,77.2399887 C83.9284487,80.2318246 75.3660942,76.0158977 76.7948,74.506 C77.574353,73.6821458 85.5165447,75.6186894 86.4335668,74.0825284 C87.6721194,72.0077515 85.8448629,66.6992367 83.9284487,62.3490252 C82.5348984,59.1857013 79.3846372,52.819168 80.2933512,52.819168 C81.130093,52.819168 87.2937833,61.9085175 88.3962588,64.3781996 C91.7261801,71.8376369 91.7241126,75.9839116 89.4189912,77.2399887 Z" id="Fill-4" fill="#090E2B"/>
                        <path d="M60.5064,23.7959 C47.5804,20.5489 45.4794,19.4539 34.8664,25.0279 C30.5494,27.2959 29.0064,28.3849 30.6324,25.1509 C31.4894,23.4449 33.2274,21.3369 35.8614,19.1299 C43.6104,12.6399 55.3864,12.5789 62.8214,17.9049 C66.5844,20.5999 64.7764,24.8679 60.5064,23.7959" id="Fill-6" fill="#090E2B"/>
                        <path d="M83.771,23.1543 C85.822,15.2143 101.31,10.5023 109.546,17.1923 C111.353,18.6603 112.569,19.4983 109.502,19.9433 C108.406,20.1033 96.527,18.0893 87.738,24.9943 C85.677,26.6133 82.923,26.4353 83.771,23.1543" id="Fill-9" fill="#090E2B"/>
                        <g id="heart-1" transform="translate(52.500000, 43.500000) rotate(3.000000) translate(-52.500000, -43.500000) translate(35.000000, 28.000000)">
                            <path d="M24.1924232,0.715741302 C17.7094082,1.4745763 16.9990832,7.7843413 16.9990832,7.7843413 C16.9990832,7.7843413 12.5095982,2.0670913 6.35344821,4.2373363 C1.31649321,6.0125713 -1.72231179,12.5637313 4.43730321,20.1647863 C9.28599321,26.1476863 21.2148332,28.3098463 24.5805032,29.8910413 C26.0993282,27.6688213 31.0762232,23.6020663 33.0651332,14.0224963 C35.0528882,4.4440813 29.4961832,0.0943513025 24.1924232,0.715741302" id="Fill-11" fill="#FF0057"/>
                            <path d="M24.4699697,29.4832108 C15.2732439,26.5150355 9.37345399,23.808801 5.95760229,20.0089423 C-2.67349674,10.4075429 4.78873932,-0.521763483 17.0052047,8.2150408 C21.0211397,-3.6225542 35.4332297,1.5206608 32.5029947,13.5211108 C31.5986297,19.5987208 28.4408597,24.8874658 24.4699697,29.4832108 Z M16.7326247,6.7204708 C8.45935971,-3.7599992 -5.31863529,7.8396658 2.14150971,18.6192808 C7.26277971,26.0205208 16.6252097,27.5393458 24.4364747,30.1923808 C30.1664297,25.1323258 34.3348247,16.8763858 34.1223047,8.9450008 C34.3902647,-1.3125542 18.6406847,-3.6583592 16.7326247,6.7204708 Z" id="Fill-13" fill="#090E2B"/>
                        </g>
                        <g id="heart-2" transform="translate(99.000000, 40.000000) rotate(11.000000) translate(-99.000000, -40.000000) translate(85.000000, 27.000000)">
                            <path d="M19.5093993,0.637830619 C15.2721993,0.647750446 14.4449993,5.17865045 14.1523993,5.24685045 C13.8597993,5.31615045 10.0812993,1.21095045 5.06859928,2.89615045 C0.969999284,4.27555045 -0.595300716,9.75025045 3.38999928,16.3755504 C6.39409928,21.3706504 15.0147993,24.6233504 17.6030993,25.5132504 C20.6071993,21.8117504 24.6155993,18.3599504 26.2094993,11.5894504 C28.1025993,3.54845045 23.4143993,0.629050446 19.5093993,0.637830619" id="Fill-15" fill="#FF0057"/>
                            <path d="M25.3907693,12.1127204 C23.7132693,17.0693204 21.3064693,21.0711204 17.4960693,25.0850204 C14.5524693,24.0554204 9.87196928,21.6409204 6.67976928,18.6830204 C1.61866928,13.9904204 -0.836530716,7.93712045 4.68436928,3.92872045 C7.37276928,1.97512045 11.5065693,3.10922045 13.7736693,5.38512045 C14.4919693,6.10562045 14.4886693,5.87682045 14.6602693,5.55342045 C18.2275693,-4.00557955 28.1825693,3.86822045 25.3907693,12.1127204 M26.5600693,4.22132045 C24.3688693,-1.03007955 15.6689693,-1.75937955 13.8957693,4.18612045 C3.77906928,-4.10567955 -5.00003072,9.62782045 3.30166928,17.8547204 C7.22426928,21.7003204 12.6461693,24.6945204 17.8579693,25.7527204 C23.1621693,20.2120204 29.5366693,12.4152204 26.5600693,4.22132045" id="Fill-17" fill="#000"/>
                        </g>
                        <g id="lips" transform="translate(61.561158, 86.472328)" fill="#090E2B">
                            <path d="M33.0776392,3.10951711 C32.3096095,3.68791618 30.5066133,6.07407003 28.6835303,7.58937729 C24.5833121,10.9973902 17.9134174,11.7807356 13.983271,10.9973902 C6.59477626,9.52473675 3.39839502,4.70589671 1.44555403,3.38627148 C-0.507286947,2.06664625 3.15885949,0.371947524 5.96377846,0.620811249 C8.76869744,0.869674975 10.6512306,1.68385376 16.0042847,3.98694343 C19.458774,5.47319757 27.2699021,3.38627148 29.4770368,2.06664625 C33.6872538,-0.450603278 34.9501484,1.69934025 33.0776392,3.10951711 Z" id="Fill-18"/>
                            <path d="M22.4708476,13.7892357 C19.5451896,13.0367248 13.2054699,13.8670175 13.4454699,16.8130175 C13.5880982,18.5717023 15.1690297,19.562964 19.6747779,18.2282597 C21.3616833,17.7285602 23.5578877,17.3554298 25.5033258,17.3554298 C26.2213258,16.4004298 25.3965056,14.5417466 22.4708476,13.7892357 Z" id="Fill-20"/>
                        </g>
                    </g>
                </g>
                <g id="Facial Accesories" transform="translate(459.000000, 529.000000) scale(1 1)" fill="#000">
                    <g id="Facial Accesories/None" stroke="none" stroke-width="1" fill="none" fill-rule="evenodd" fill-opacity="0"/>
                </g>
                <g id="Glass" transform="translate(462.000000, 484.000000) scale(1 1)" fill="#000">
                    <g id="Glass/None" stroke="none" stroke-width="1" fill="none" fill-rule="evenodd" fill-opacity="0"/>
                </g>
            </g>
        </g>
    </g>
</svg>
