<svg viewBox="292.5 393.75 693.75 1106.25" xmlns="http://www.w3.org/2000/svg" overflow="visible">
    <g id="Master/Character/Sitting" stroke="none" stroke-width="1" fill="none" fill-rule="evenodd">
        <g id="Sitting" transform="translate(179.000000, 940.000000) scale(1 1)">
            <g id="Sitting/On Chair 1" stroke="none" stroke-width="1" fill="none" fill-rule="evenodd">
                <path d="M410.615323,399.49997 C410.615323,399.49997 400.357969,471.949685 396.171539,502.905682 C391.949971,534.125643 467.0487,503.736716 467.0487,503.736716 C467.0487,503.736716 453.509565,484.44329 453.304761,479.157997 C453.100961,473.870697 476.218696,412 476.218696,412 L410.615323,399.49997 Z" id="Fill-3" fill="#ca8f67"/>
                <path d="M561.035706,7.46069873e-14 C597.897949,16.8477074 635.153618,59.3884812 602.589029,139.128809 C570.024441,218.869137 493.394303,411.87247 481.349448,420.555326 C469.305594,429.239182 405.784608,412 405.784608,412 C405.784608,412 412.732597,330.944505 426.534884,251.242608 C436.641716,192.880271 457.952435,150.325862 457.952435,150.325862 C457.952435,150.325862 286.540837,174.784268 243.98254,146.076381 C188.124727,108.397247 229.480836,6.86053872 261.586066,-5.71064401 C302.858588,-21.8713886 490.854841,-32.0758202 561.035706,7.46069873e-14 Z" id="Fill-5" fill="#090E2B"/>
                <path d="M559.105053,537.550495 C553.718837,520.869499 514.662001,509.852921 486.4598,501.514412 C476.966506,498.70607 463.702961,484.835405 457.545853,485.001479 C448.581857,485.24512 457.367415,503.898122 427.362791,502.274176 C419.4193,501.844571 418.851908,493.484184 401.591555,491.580796 C398.786673,491.272515 394.499152,490.727553 390.796066,497.394383 C388.732001,501.110663 380.282268,534.66359 388.577622,548.345309 C446.664152,549.845942 506.41276,548.363209 558.020392,547.881892 C563.059757,547.834159 560.482433,541.818697 559.105053,537.550495" id="Fill-17" fill="#FF0057"/>
                <path d="M654.970564,412 C654.970564,412 665.530533,466.509706 672.596211,475.377601 C679.662889,484.243493 716.32892,494.221378 717.974942,499.698195 C719.618961,505.175012 639.820958,518 639.820958,518 L591,416.698422 L654.970564,412 Z" id="Fill-1" fill="#ca8f67"/>
                <path d="M790.105053,534.5497 C784.718837,517.869641 745.662001,506.853025 717.4598,498.513492 C707.966506,495.706135 694.702961,481.834427 688.545853,482.001496 C679.581857,482.244144 688.367415,500.898205 658.362791,499.274253 C650.420302,498.844647 649.85291,490.483237 632.591555,488.580837 C629.786673,488.27156 625.499152,487.727591 621.796066,494.393449 C619.732001,498.109742 611.282268,531.662786 619.577622,545.345546 C677.664152,546.846185 737.41276,545.362452 789.020392,544.881134 C794.059757,544.8334 791.482433,538.817918 790.105053,534.5497" id="Fill-10" fill="#FF0057"/>
                <path d="M722.704751,510.429527 C726.392384,503.004274 728.005104,501.713139 726.433049,500.543939 C722.673012,497.748284 703.571309,506.385021 702.069675,511.523009 C700.944937,515.373796 713.664197,504.228541 723.820563,502.565701 C719.658833,506.366337 715.778784,518.019983 719.874061,515.696334 C739.826756,504.381943 742.973841,507.006496 742.998637,506.585624 C743.116665,504.585496 735.565843,502.966906 722.704751,510.429527" id="Fill-15" fill="#FFB201"/>
                <path d="M180.126096,77 C192.090433,138.955221 247.290014,161.21191 295.189049,159.361921 C368.355288,156.536045 442.938988,124.042498 468.151215,113.183029 C465.930109,129.164147 477.804596,220.024734 497.628146,262.074146 C517.451696,304.123559 582.008895,430.623213 582.008895,430.623213 C582.008895,430.623213 654.850327,431.050084 657.965073,413.369038 C660.014248,401.737852 591.630112,76.8494703 569.008895,20.5961921 C556.018259,-11.7082512 513.975789,-25.6487365 427.5,-33 C340.646127,-40.3834042 214.030282,-26.7715765 214.030282,-26.7715765 C214.030282,-26.7715765 168.16176,15.0447792 180.126096,77 Z" id="Fill-7" fill="#001386"/>
                <path d="M491.704751,514.429893 C495.392384,507.004835 497.005104,505.713735 495.432058,504.543583 C491.67202,501.748984 472.571309,510.385493 471.069675,515.522362 C469.944937,519.373048 482.664197,508.228087 492.820563,506.566274 C488.658833,510.36681 484.777792,522.019165 488.874061,519.69656 C508.826756,508.381485 511.973841,511.005969 511.998637,510.585107 C512.116665,508.585032 504.565843,506.966486 491.704751,514.429893" id="Fill-22" fill="#FFB201"/>
                <path d="M546.8316,554.3915 L407.0166,556.8575 C397.6626,557.2315 383.6706,554.0145 382.3176,546.2435 C381.3066,540.4375 383.5546,527.7955 384.0206,526.9545 C387.2776,521.0945 415.0326,526.0385 423.1176,545.8275 C474.1316,549.6495 561.0086,545.9125 561.0086,545.9125 C561.0086,545.9125 562.3126,553.5935 546.8316,554.3915" id="Fill-19" fill="#090E2B"/>
                <path d="M777.7223,550.7851 L637.9073,553.2511 C628.5543,553.6251 614.5613,550.4091 613.2083,542.6381 C612.1983,536.8321 614.4453,524.1901 614.9123,523.3491 C618.1683,517.4891 645.9233,522.4331 654.0083,542.2221 C705.0223,546.0441 791.9003,542.3071 791.9003,542.3071 C791.9003,542.3071 793.2033,549.9881 777.7223,550.7851" id="Fill-12" fill="#090E2B"/>
            </g>
        </g>
        <g id="Upper Body/Sitting" transform="translate(243.000000, 170.000000) scale(1 1.0010526315789474)">
            <g id="Upper Body/Sitting/Talking 1" stroke="none" stroke-width="1" fill="none" fill-rule="evenodd">
                <path d="M362.489116,617 C362.489116,617 384.102925,664.92587 396.434951,673.59818 C405.517356,679.985243 523.763082,668.405945 542.122663,665.044916 C585.761968,657.056011 592.886918,666.284763 593.503151,668.041652 C595.37886,673.395601 581.112738,670.761394 581.112738,670.761394 C581.112738,670.761394 604.120118,679.047766 615.710501,687.36919 C627.300883,695.690615 617.037328,701.072759 611.480227,701.790585 C576.263911,706.337475 569.899161,691.506177 543.185428,691.506177 C517.572865,691.506177 396.434951,752.867755 355.238374,722.61953 C312.407059,691.171014 304,624.652181 304,624.652181 L362.489116,617 Z" id="hand-2" fill="#ca8f67"/>
                <path d="M263.650757,454.264565 C268.847536,464.273819 299.508931,477.962858 299.508931,477.962858 L305,507.345184 L191.160014,519 C177.987275,516.085547 141.022481,488.786399 149.157032,477.962858 C157.291584,467.139316 192.987022,460.552071 198.227995,452.109448 C208.291104,435.900611 210.130165,402.951401 209.852949,390.505277 C209.852949,387.413978 263.860677,399.517402 263.860677,399.517402 C263.860677,399.517402 257.12415,441.694548 263.650757,454.264565 Z" id="neck" fill="#ca8f67"/>
                <path d="M311.870684,484 C315.29908,486.750952 338.904578,496.688494 346.234702,532.19952 C348.873546,544.980776 365.93347,592.818223 381,631.516085 C366.805079,656.259696 347.035261,671.348041 326.111637,678 L288,592.130984 C288,592.130984 310.683854,494.905063 311.870684,484" id="Cloth-2" fill="#FF0057"/>
                <path d="M259.137851,495.59731 C273.53729,494.042344 285.307178,469.467074 285.758788,468.917732 C286.211399,468.370392 317.260313,484.922677 326.982438,494.282493 C336.767647,668.265604 329.760759,667.297575 326.678027,684.211512 C325.250369,692.0446 317.264589,712.582173 323.042388,735.676523 C323.855641,738.92532 294.611906,743.441732 262.740259,753.477622 C208.080422,770.689163 136.867273,793.552245 132.509178,777.614891 C129.926136,768.168823 134.049995,759.163444 137.984508,753.477622 C142.50237,746.948796 174.642142,688.300416 149.321605,625.75819 C134.807011,607.440808 100.172256,590.084023 93.4051212,538.931237 C90.0816347,513.812629 108.113977,496.361785 114.391452,491.17056 C135.363763,473.827783 168.544555,463.572411 170.779572,464.013685 C184.219716,466.673338 230.649393,498.675223 259.137851,495.59731 Z" id="Cloth-1" fill="#FF0057"/>
                <path d="M322.558668,525.141401 C327.170572,538.984546 333.684607,552.507497 337.401391,566.627943 C339.833474,576.132014 340.305446,586.270486 339.839577,596.025924 C338.872237,617.177667 335.133075,638.217691 330.971782,658.936524 C328.851974,669.486959 327.667974,675.897818 326.990531,677.556641 C326.070998,679.807973 326.345637,673.485891 328.907919,658.576431 C331.465115,641.616134 334.640758,622.505253 336.286559,605.568896 C337.523453,592.868873 337.316965,578.928971 334.53192,566.403509 C332.006256,555.372284 328.062641,545.558992 324.682544,534.719285 C324.488262,533.20809 320.577196,523.737934 322.558668,525.141401" id="Fill-15" fill="#090E2B"/>
                <path d="M234.122367,649.743546 C234.122367,649.743546 201.972257,680.750891 201.384311,686.281574 C225.471805,792.152721 219.592907,851.131414 224.677301,866.937911 C230.70624,885.675089 247.113319,899.974574 248.101702,909.929699 C248.869891,917.673574 251.824081,923.496967 251.355795,924.169435 C248.094728,928.852731 239.646642,916.269684 239.646642,916.269684 C239.646642,916.269684 235.726985,931.006027 235.726985,945.302718 C235.726985,959.597411 223.55951,949.666266 219.642842,945.677422 C200.576612,926.258783 208.709732,893.684753 204.02886,876.78612 C192.199149,834.086897 122.554526,700.028319 125.239261,664.101602 C127.923996,628.174885 204.925426,569.135329 204.925426,569.135329 L234.122367,649.743546 Z" id="hand-1" fill="#ca8f67" transform="translate(188.284742, 760.949071) rotate(-40.000000) translate(-188.284742, -760.949071)"/>
                <path d="M62,644.1582 C73.1142051,664.702661 128.054813,667 153.930887,667 C153.930887,667 155.508877,653.408806 160.581146,634.375335 C166.977236,610.374284 98.0039349,511 98.0039349,511 C83.5305931,539.849202 71.140835,588.40843 62,644.1582 Z" id="Cloth-3" fill="#FF0057"/>
                <path d="M157.005302,653.762196 C156.966548,653.083438 157.149044,650.362716 157.266503,649.587554 C161.112624,624.205558 163.459289,615.828873 167.97857,590.442515 C167.979564,590.442515 175.257584,548.726862 177,550.029903 C173.936468,577.387463 157.307382,658.964007 157.005302,653.762196 Z" id="Fill-17" fill="#090E2B"/>
            </g>
        </g>
        <g id="Head" transform="translate(341.000000, 346.000000) scale(1 1)">
            <g id="Head/Long Hair Dark" stroke="none" stroke-width="1" fill="none" fill-rule="evenodd">
                <path d="M202.9604,77.8622 C181.8504,79.5182 184.2014,108.0832 184.2014,108.0832 L160.7914,233.7422 L164.1714,235.8612 C164.1714,235.8612 157.9414,270.7612 161.9164,281.3122 C164.6894,288.6752 176.1664,298.4982 184.1564,300.4462 C187.9064,301.3602 191.2484,298.4592 193.2994,294.2252 C205.5034,269.0352 175.3224,218.2022 216.6524,184.7252 C225.0304,165.6512 231.8324,150.8302 233.9964,147.8302 C241.0224,138.0892 269.2194,72.6632 202.9604,77.8622" id="hair" fill="#090E2B"/>
                <path d="M231.595269,169.854103 C231.717269,186.900103 240.726936,192.187937 233.168864,222.1603 C227.297267,245.444758 204.337313,266.222315 197.587626,266.222315 C160.590562,266.222315 132.3061,237.7663 116.0411,222.1603 C99.7771,206.5543 83.9321,173.9643 94.9881,136.8963 C106.0421,99.8283 189.0941,48.6463 217.2231,106.1073 C225.8691,123.7683 231.336269,133.563103 231.595269,169.854103 Z" id="face" fill="#ca8f67"/>
                <path d="M130.087655,181.78177 C128.899958,173.986917 126.061679,165.704676 126.5405,162.5359 C137.8085,137.9049 220.0525,153.8619 221.6185,97.6449 C222.2235,75.9519 202.4985,58.0299 185.9315,54.0029 C144.8365,44.0129 94.0475,71.7789 71.6945,128.6529 C57.5485,164.6449 86.5035,215.8529 60.7515,217.0079 C-17.4695,220.5169 -34.6575,251.4859 -39.8695,280.6199 C-46.4775,317.5549 -23.3965,354.4209 10.5785,340.6359 C59.7395,379.8769 115.6965,300.6149 120.2235,241.3049 C123.0005,204.9159 95.7905,197.4829 100.6795,184.5109 C105.0535,175.3509 110.5145,161.8199 115.9255,179.9739 C116.6975,182.5669 115.7295,189.8349 118.0735,193.2009 C121.4855,198.1019 126.8645,197.6369 128.6255,195.2909 C130.940106,192.206653 130.899208,187.107992 130.087655,181.78177 Z" id="hair" fill="#090E2B"/>
                <path d="M115.313,181.2645 C114.883,173.3005 111.137,163.3435 100.53,162.5625 C94.807,162.1405 82.16,166.5795 87.755,189.1845 C91.797,205.5085 108.376,210.1455 113.018,209.2605 C121.327,207.6775 115.947,193.0495 115.313,181.2645" id="ear" fill="#ca8f67"/>
                <path d="M160.0464,257.3124 C155.3254,256.3244 150.3684,253.2734 146.5424,250.1684 C143.4234,247.6374 138.6424,242.7114 136.4884,240.1034 C135.4624,238.8614 137.1414,239.9734 138.7704,241.1364 C140.9294,242.6774 148.1634,248.8464 155.4154,252.9594 C156.3164,253.4704 161.2814,256.3174 161.2404,256.8324 C161.2124,257.1764 160.7484,257.4594 160.0464,257.3124" id="Fill-11" fill="#090E2B"/>
                <path d="M97.6772,177.0077 C95.0942,177.1907 95.6262,181.2557 98.1642,180.7767 C101.5882,180.1307 104.4142,181.8047 106.4202,184.3537 C103.9832,184.6467 101.3422,187.2217 99.6492,188.5937 C98.4302,189.7157 100.2972,191.5487 101.3982,190.3177 C102.4102,189.2197 103.5952,188.1137 104.8172,187.2487 C105.6362,186.7047 106.5192,186.1107 107.4222,186.1657 C107.5252,186.1937 107.6202,186.2477 107.7152,186.3107 C108.6512,188.0027 109.2862,189.8777 109.5692,191.6537 C114.8252,195.7947 108.3302,174.4217 97.6772,177.0077" id="Fill-13" fill="#090E2B"/>
            </g>
        </g>
        <g id="Expressions" transform="translate(462.000000, 479.000000) scale(1 1)">
            <g id="Expressions/Calm 1" stroke="none" stroke-width="1" fill="none" fill-rule="evenodd">
                <g id="eye1" transform="translate(42.527098, 33.213671) rotate(-4.000000) translate(-42.527098, -33.213671) translate(21.027098, 13.213671)">
                    <path d="M0.0487023333,7.96572872 C1.82485498,-0.0171869856 25.1977023,-2.81531309 35.4827023,3.36568691 C39.0387023,5.47868691 45.6427023,11.2837287 39.7957023,14.4437287 C38.2517023,15.1157287 36.7517023,14.4267287 35.4827023,13.6077287 C21.4647023,3.86572872 -1.18942441,13.5304877 0.0487023333,7.96572872 Z" id="Fill-1" fill="#090E2B"/>
                    <path d="M19.0113023,22.3973287 C13.7233023,23.8973287 9.19030233,28.1473287 8.76930233,31.6693287 C8.51430233,33.7973287 16.8643023,38.9063287 24.9173023,39.3033287 C35.5113023,39.8243287 40.8513023,34.0853287 40.8324531,32.2513287 C40.1193023,26.7013287 33.7283023,18.2233287 19.0113023,22.3973287 Z" id="Fill-6" fill="#FFF"/>
                    <path d="M35.3981023,25.5550287 C27.2551023,19.4010287 14.6431023,23.4110287 8.76910233,31.6690287 C8.43210233,32.0970287 8.52910233,31.0200287 8.76310233,30.5290287 C11.5971023,24.5820287 16.7101023,21.7750287 22.6381023,20.5510287 C26.2051023,19.8140287 29.5311023,19.7540287 33.0101023,21.3120287 C34.3551023,21.9130287 36.7311023,23.7450287 38.5671023,25.8170287 C39.9991023,27.4320287 41.2051023,30.2010287 39.5481023,29.2220287 C38.2511023,28.4550287 36.4781023,26.3720287 35.3981023,25.5550287 Z" id="Fill-8" fill="#090E2B"/>
                    <path d="M24.8135023,36.0623287 C29.3405023,36.0623287 33.0105023,32.7143287 33.0105023,28.5833287 C33.0105023,24.4533287 29.3405023,21.1043287 24.8135023,21.1043287 C20.2865023,21.1043287 16.6165023,24.4533287 16.6165023,28.5833287 C16.6165023,32.7143287 20.2865023,36.0623287 24.8135023,36.0623287 Z" id="Fill-10" fill="#090E2B"/>
                </g>
                <g id="eye2" transform="translate(81.203378, 15.000183)">
                    <path d="M23.2557812,1.861246 C26.6096324,3.34897691 31.0744206,8.28711729 27.357522,8.28711729 C23.6406234,8.28711729 15.5900245,7.23270759 10.1930245,9.45970759 C8.30802454,9.94170759 6.87752199,10.8641173 4.98452199,11.0891173 C0.67652199,11.9281173 -1.66408888,6.76839233 1.38185604,3.64904337 C4.82290212,0.125071736 16.4397812,-1.545754 23.2557812,1.861246 Z" id="Fill-4" fill="#090E2B"/>
                    <path d="M19.455322,34.2343173 C24.826322,32.9853173 28.843322,28.1153173 28.389322,24.4763173 C27.503322,19.6543173 18.218322,16.5753173 13.017322,19.2083173 C7.86632199,21.8153173 4.64332199,27.6403173 5.05932199,29.9403173 C5.66032199,31.5323173 13.966322,35.5113173 19.455322,34.2343173 Z" id="Fill-12" fill="#FFF"/>
                    <path d="M15.011222,31.6060173 C18.549222,31.6060173 21.417222,28.8520173 21.417222,25.4560173 C21.417222,22.0590173 19.396222,18.8490173 15.011222,19.3060173 C11.492222,19.6720173 8.60422199,22.0590173 8.60422199,25.4560173 C8.60422199,28.8520173 11.473222,31.6060173 15.011222,31.6060173 Z" id="Fill-14" fill="#090E2B"/>
                    <path d="M5.25072199,26.6376173 C7.27972199,19.0636173 16.440722,15.1686173 23.685722,18.7546173 C24.705722,19.2866173 26.361722,20.4806173 27.601722,21.9226173 C28.742722,23.2526173 28.593722,23.9496173 28.127722,23.8116173 C27.355722,23.5816173 25.722722,22.1166173 24.395722,21.4866173 C17.685722,18.3036173 10.704722,20.0896173 5.59372199,27.5586173 C5.34272199,27.9456173 5.10472199,27.0746173 5.25072199,26.6376173" id="Fill-22" fill="#090E2B"/>
                </g>
                <path d="M85.9879908,71.3386563 C85.0131141,76.2575144 78.9689699,76.7359636 75.0323155,75.6212963 C71.832522,74.7152719 71.0034674,72.851321 72.0853454,72.2537752 C73.8485675,71.2799076 79.4997296,73.9889887 81.5858367,71.4027854 C85.305606,66.7912866 73.8914605,49.8346319 77.5177277,52.5592059 C82.3102149,56.1600121 86.6386051,68.0559034 85.9879908,71.3386563 Z" id="nose" fill="#090E2B"/>
                <g id="lips" transform="translate(57.561158, 83.472328)" fill="#090E2B">
                    <path d="M24.6314423,10.2352717 C21.1964423,11.9522717 16.3084423,13.7232717 10.6794423,12.9182717 C5.05144233,12.1142717 2.01844233,8.81927172 0.786442327,6.40327172 C-1.32255767,2.27127172 1.13144233,-0.833728284 4.34844233,0.200271716 C7.56344233,1.23527172 9.40744233,5.68627172 12.5654423,6.45927172 C16.4424423,7.40827172 22.8454423,4.43627172 26.5024423,3.47827172 C30.3364423,2.47327172 36.6974423,2.09918012 36.6974423,8.52727172 C36.6974423,12.1251305 34.5597106,11.3954112 32.84831,9.25710631 C31.1369095,7.11880144 28.0664423,8.51727172 24.6314423,10.2352717 Z" id="Fill-18"/>
                    <path d="M22.8970423,17.2262717 C18.4760423,16.5892717 14.2940423,17.1472717 14.5340423,20.0932717 C14.7730423,23.0402717 22.3760423,25.5572717 25.7640423,21.0492717 C26.4820423,20.0942717 27.3170423,17.8632717 22.8970423,17.2262717 Z" id="Fill-20"/>
                </g>
            </g>
        </g>
        <g id="Facial Accesories" transform="translate(459.000000, 529.000000) scale(1 1)" fill="#000">
            <g id="Facial Accesories/None" stroke="none" stroke-width="1" fill="none" fill-rule="evenodd" fill-opacity="0"/>
        </g>
        <g id="Glass" transform="translate(462.000000, 484.000000) scale(1 1)" fill="#000">
            <g id="Glass/None" stroke="none" stroke-width="1" fill="none" fill-rule="evenodd" fill-opacity="0"/>
        </g>
    </g>
</svg>
