<svg viewBox="-10.263 0 2052.525 2082.713" xmlns="http://www.w3.org/2000/svg" overflow="visible">
    <defs>
        <linearGradient x1="50%" y1="0%" x2="50%" y2="100%" id="masterspot-ilustrationscity-life-linearGradient-1">
            <stop stop-color="#A7B3FE" offset="0%"/>
            <stop stop-color="#FFF" stop-opacity="0" offset="100%"/>
        </linearGradient>
    </defs>
    <g id="Master/Spot Ilustrations/City Life" stroke="none" stroke-width="1" fill="none" fill-rule="evenodd">
        <path d="M2031,545.559694 L2031,434.053025 C2031,429.932649 2026.85558,426.592688 2021.73253,426.592688 L1963.26844,426.592688 C1958.15128,426.592688 1954.00686,423.252727 1954.00686,419.13235 L1954.00686,332.41343 C1954.00686,328.293054 1949.86243,324.953093 1944.73938,324.953093 L1865.37041,324.953093 C1860.24736,324.953093 1856.10294,328.293054 1856.10294,332.41343 L1856.10294,367.619456 C1856.10294,371.739833 1851.95852,375.079794 1846.83546,375.079794 L1743.53142,375.079794 L1743.53142,277.325905 C1743.53142,274.455285 1740.6368,272.119495 1737.06423,272.119495 L1732.05319,272.119495 C1728.48061,272.119495 1725.586,269.789163 1725.586,266.913086 L1725.586,174.80766 C1725.586,171.931583 1722.69139,169.601251 1719.11881,169.601251 L1714.10777,169.601251 C1710.54109,169.601251 1707.64648,167.270918 1707.64648,164.394841 L1513.48934,160.994848 C1513.48934,163.64717 1511.0133,165.879268 1507.73549,166.173971 L1504.54611,166.457758 C1501.2742,166.75246 1498.79815,168.979101 1498.79815,171.63688 L1498.79815,270.804249 L1489.00599,270.804249 L1489.00599,556.823876 C1489.00599,559.094177 1487.72671,561.238955 1485.52185,562.657893 L1477.40396,567.880675 C1475.19911,569.288698 1473.91982,571.438934 1473.91982,573.709234 L1473.91982,580.716603 C1473.02962,580.700231 1472.41061,580.689316 1472.41061,580.689316 L1472.41061,603.157648 C1472.41061,607.278025 1468.26029,610.623443 1463.14314,610.623443 L1460.46076,610.623443 C1455.3495,610.623443 1451.19918,607.278025 1451.19918,603.157648 L1451.19918,323.648762 C1451.19918,319.528385 1447.04886,316.188424 1441.9376,316.188424 L1360.47578,316.188424 C1355.35863,316.188424 1351.20831,319.528385 1351.20831,323.648762 L1351.20831,632.720668 L1302.70145,597.099876 C1300.96232,595.69731 1299.98959,593.803574 1299.98959,591.822519 L1299.98959,371.396014 L1299.98959,345.735072 C1299.98959,341.609238 1295.83927,338.269277 1290.72212,338.269277 L1279.56224,338.269277 C1274.44508,338.269277 1270.30066,334.929316 1270.30066,330.808939 L1270.30066,323.648762 C1270.30066,319.528385 1266.15034,316.188424 1261.03318,316.188424 L1201.39003,316.188424 C1196.27287,316.188424 1192.12255,312.848463 1192.12255,308.722629 L1192.12255,174.976841 C1192.12255,170.851007 1187.97813,167.511046 1182.86097,167.511046 L1132.06082,167.511046 C1126.94367,167.511046 1122.79925,170.851007 1122.79925,174.976841 L1122.79925,466.939634 C1122.79925,471.060011 1118.64893,474.405429 1113.53177,474.405429 L1067.3123,474.405429 C1062.20104,474.405429 1058.05072,471.060011 1058.05072,466.939634 L1058.05072,222.582199 C1058.05072,218.461823 1053.9063,215.121862 1048.78325,215.121862 L983.232959,215.121862 C978.115803,215.121862 973.965484,218.461823 973.965484,222.582199 L973.965484,603.157648 C973.965484,607.278025 969.82106,610.623443 964.703904,610.623443 L962.02742,610.623443 C956.910264,610.623443 952.76584,607.278025 952.76584,603.157648 L952.76584,594.567618 C952.76584,590.29989 948.35023,586.89444 943.056215,587.074535 L925.865402,587.658483 C920.571387,587.833121 916.155777,584.427671 916.155777,580.159943 L916.155777,554.706385 L916.21473,554.706385 L916.21473,540.795338 C916.21473,536.674962 912.070306,533.335001 906.953151,533.335001 L893.488193,533.335001 C888.371038,533.335001 884.220718,529.99504 884.220718,525.874663 L884.220718,514.932471 L873.974617,514.932471 L873.974617,347.061233 C873.974617,342.940856 869.824297,339.600895 864.707142,339.600895 L767.333806,339.600895 C762.216651,339.600895 758.066331,342.940856 758.066331,347.061233 L758.066331,492.742469 C758.066331,496.862846 753.921907,500.208264 748.804752,500.208264 L744.607269,500.208264 C739.490114,500.208264 735.34569,496.862846 735.34569,492.742469 L735.34569,347.061233 C735.34569,342.940856 731.19537,339.600895 726.08411,339.600895 L640.59578,339.600895 C635.478625,339.600895 631.328305,342.940856 631.328305,347.061233 L631.328305,465.138675 C631.328305,469.259051 627.183881,472.60447 622.066726,472.60447 L607.94149,472.60447 C602.824335,472.60447 598.674016,475.944431 598.674016,480.064807 L598.674016,527.173537 L593.64529,524.805003 C589.772052,522.976756 584.837652,523.648023 581.919458,526.393121 L574.509016,533.378661 C573.076448,534.732109 572.292368,536.451206 572.292368,538.230336 L572.292368,552.796276 C572.292368,555.279417 570.116987,557.413281 567.098573,557.904452 L562.836242,558.592091 C559.811932,559.083262 557.642447,561.222583 557.642447,563.700266 L557.642447,669.896834 C557.642447,674.017211 553.498023,677.357172 548.380867,677.357172 L543.882723,677.357172 C538.765567,677.357172 534.621143,674.017211 534.621143,669.896834 L534.621143,479.262562 C534.621143,477.286964 533.642517,475.38777 531.909287,473.990663 L527.440619,470.388744 C525.701493,468.991636 524.728762,467.092443 524.728762,465.116845 L524.728762,430.232809 C524.728762,428.257211 523.750136,426.358017 522.01101,424.96091 L507.567427,413.331078 C505.828301,411.928513 504.849675,410.02932 504.849675,408.053722 L504.849675,320.276056 C504.849675,318.245884 503.823885,316.303031 502.008121,314.895008 L479.81806,297.70949 C478.002295,296.301467 476.97061,294.358614 476.97061,292.333899 L476.97061,266.1545 L472.690593,261.832198 L472.690593,240.051505 C472.690593,238.534333 465.17993,231.597911 465.17993,230.075282 L465.17993,205.669554 C465.17993,203.180956 463.004549,201.041634 459.98024,200.561379 C456.301547,198.778611 454.462201,197.059513 454.462201,195.404086 L454.462201,168.591622 L450.182184,165.993875 L450.182184,146.139662 L443.750368,141.811903 L443.750368,125.357683 C443.750368,124.260735 443.449705,123.174702 442.871962,122.181446 L435.184438,0 L430.898526,0 L425.527871,0 L425.527871,133.24916 C425.527871,134.34065 425.227209,135.421226 424.65536,136.409025 L410.860264,160.187145 C410.288416,161.174944 409.987754,162.250062 409.987754,163.341553 L409.987754,181.47121 C409.987754,183.452265 409.009127,185.346001 407.275897,186.748566 C398.012353,194.949298 393.38058,199.708197 393.38058,201.025262 L393.38058,227.297438 L382.379875,227.297438 L382.379875,256.865916 C382.379875,258.241194 381.701911,259.567355 380.493366,260.544239 L376.502221,263.769593 C375.293676,264.74102 374.615712,266.061723 374.615712,267.442459 L374.615712,290.767611 L368.720372,295.510137 L368.720372,322.268026 L362.388776,322.268026 L362.388776,408.812308 C362.388776,411.688385 359.494164,414.018717 355.921588,414.018717 L352.962127,414.018717 C349.389551,414.018717 346.494939,416.34905 346.494939,419.225127 L346.494939,430.030883 C346.494939,434.15126 342.344619,437.496678 337.227464,437.496678 C332.110308,437.496678 327.965884,440.831181 327.965884,444.957015 L327.965884,653.535392 C327.965884,657.661226 323.815565,660.995729 318.704305,660.995729 L314.760322,660.995729 C309.637271,660.995729 305.492847,657.661226 305.492847,653.535392 L305.492847,644.945362 C305.492847,642.069284 302.598235,639.738952 299.031554,639.738952 L299.025659,639.738952 C295.453082,639.738952 292.55847,637.40862 292.55847,634.532542 L292.55847,451.156681 C292.55847,447.036305 288.408151,443.696344 283.296891,443.696344 L92.0343653,443.696344 C86.9172099,443.696344 82.7727857,447.036305 82.7727857,451.156681 L82.7727857,684.943031 C82.7727857,688.948801 78.8346984,692.277847 73.8590312,692.403368 C67.6807145,692.556177 47.0941862,692.50706 42.8790179,692.092293 C42.3189605,692.043176 41.8060659,692.157783 41.26959,692.2069 L41.26959,618.08378 C41.26959,613.963404 37.1192704,610.623443 32.0080104,610.623443 L8.26157961,610.623443 C3.14442423,610.623443 -1,613.963404 -1,618.08378 L-1,1144.53966 C-1,1148.66004 3.15031957,1152 8.26747495,1152 L2031,1147.67399 C2031,749.011378 2031,548.306612 2031,545.559694 Z" id="City" fill="url(#masterspot-ilustrationscity-life-linearGradient-1)" opacity=".5"/>
        <g id="Floor" transform="translate(-3.793428, 2050.500000)" fill="#090E2B" fill-rule="nonzero">
            <path d="M2035.6211,2.49999995 C2037.55409,2.49784562 2039.125,4.06309978 2039.125,5.9960952 C2039.125,7.86465744 2037.66451,9.39285317 2035.82093,9.49460472 L2035.6289,9.49999995 L1139.29733,10.5 C1137.36434,10.5021544 1135.79343,8.93690022 1135.79343,7.0039048 C1135.79343,5.13534256 1137.25392,3.60714683 1139.09749,3.50539528 L1139.28952,3.49999995 L2035.6211,2.49999995 Z" id="Path-4-Copy-3"/>
            <path d="M837.496232,0 C839.429229,0 840.996232,1.56700338 840.996232,3.5 C840.996232,5.3685634 839.531955,6.89512645 837.688268,6.99482114 L837.496232,7 L3.79342766,7 C1.86043103,7 0.293427658,5.43299662 0.293427658,3.5 C0.293427658,1.6314366 1.75770526,0.104873551 3.60139246,0.00517886273 L3.79342766,0 L837.496232,0 Z" id="Path-4"/>
        </g>
        <g transform="translate(141.000000, 554.000000) scale(1 1)" id="Master/Character/Standing">
            <g id="Master/Character/Standing" stroke="none" stroke-width="1" fill="none" fill-rule="evenodd">
                <g id="Lower Body/Standing" transform="translate(-64.000000, 629.000000) scale(1 1)">
                    <g id="Lower Body/Standing/Jump 1" stroke="none" stroke-width="1" fill="none" fill-rule="evenodd">
                        <g id="shoe-2" transform="translate(347.000000, 90.000000)">
                            <path d="M171.879685,79.6600054 C197.953685,92.3230054 166.088437,171.4 157.996437,169 C149.904437,166.599 69.5206849,78.1000054 69.5206849,78.1000054 C69.5206849,78.1000054 62.9276849,46.8840054 104.095685,36.9270054 C104.095685,36.9270054 144.212685,66.2240054 171.879685,79.6600054 Z" id="leg-1" fill="#b75858"/>
                            <path d="M88.2489849,110.158405 C92.8389849,110.844405 95.1019849,102.615405 90.1249849,92.2214054 C84.9979849,81.5104054 74.1919849,80.8284054 74.4109849,77.8794054 C75.2959849,65.9424054 92.2659849,44.2474054 97.1359849,43.2704054 C103.208985,42.0544054 108.956985,44.6244054 112.126985,41.5234054 C115.296985,38.4244054 98.6149849,4.41640543 82.5239849,5.60040543 C66.4329849,6.78540543 54.9059849,17.6494054 49.4209849,37.3134054 C43.9349849,56.9774054 14.2679849,83.0444054 10.7429849,97.9414054 C7.21698494,112.838405 0.132984938,152.650405 14.5459849,160.063405 C28.9589849,167.476405 32.7809849,160.664405 35.8889849,156.951405 C38.0939849,154.316405 63.6959849,106.489405 88.2489849,110.158405" id="Fill-3" fill="#090E2B"/>
                            <path d="M91.1122849,8.61640543 C91.1122849,8.61640543 80.7032849,27.1024054 68.5992849,35.7134054 C58.1072849,43.1774054 -10.8457151,105.904405 15.2282849,151.938405 C21.7502849,163.454405 29.4032849,162.648405 29.4032849,162.648405 C29.4032849,162.648405 28.1732849,164.873405 22.4502849,164.191405 C16.2002849,163.448405 5.98728494,157.939405 2.96028494,148.222405 C-2.83871506,129.608405 -1.59871506,100.958405 20.2602849,75.3114054 C39.1012849,53.2074054 45.6542849,47.3144054 46.4892849,40.6114054 C47.1662849,35.1734054 56.2992849,12.5734054 73.9852849,0.576405431 C77.9452849,-2.10959457 89.8852849,5.27840543 91.1122849,8.61640543" id="Fill-5" fill="#FFB201"/>
                        </g>
                        <g id="shoe-1" transform="translate(167.000000, 126.000000)">
                            <path d="M185.635329,88.0169034 C211.709329,100.679903 160.946664,160.170785 152.854664,157.770785 C144.762664,155.369785 69.5206849,78.1000054 69.5206849,78.1000054 C69.5206849,78.1000054 62.9276849,46.8840054 104.095685,36.9270054 C104.095685,36.9270054 157.968329,74.5809034 185.635329,88.0169034 Z" id="leg-1" fill="#b75858"/>
                            <path d="M88.2489849,110.158405 C92.8389849,110.844405 95.1019849,102.615405 90.1249849,92.2214054 C84.9979849,81.5104054 74.1919849,80.8284054 74.4109849,77.8794054 C75.2959849,65.9424054 92.2659849,44.2474054 97.1359849,43.2704054 C103.208985,42.0544054 108.956985,44.6244054 112.126985,41.5234054 C115.296985,38.4244054 98.6149849,4.41640543 82.5239849,5.60040543 C66.4329849,6.78540543 54.9059849,17.6494054 49.4209849,37.3134054 C43.9349849,56.9774054 14.2679849,83.0444054 10.7429849,97.9414054 C7.21698494,112.838405 0.132984938,152.650405 14.5459849,160.063405 C28.9589849,167.476405 32.7809849,160.664405 35.8889849,156.951405 C38.0939849,154.316405 63.6959849,106.489405 88.2489849,110.158405" id="Fill-3" fill="#090E2B"/>
                            <path d="M91.1122849,8.61640543 C91.1122849,8.61640543 80.7032849,27.1024054 68.5992849,35.7134054 C58.1072849,43.1774054 -10.8457151,105.904405 15.2282849,151.938405 C21.7502849,163.454405 29.4032849,162.648405 29.4032849,162.648405 C29.4032849,162.648405 28.1732849,164.873405 22.4502849,164.191405 C16.2002849,163.448405 5.98728494,157.939405 2.96028494,148.222405 C-2.83871506,129.608405 -1.59871506,100.958405 20.2602849,75.3114054 C39.1012849,53.2074054 45.6542849,47.3144054 46.4892849,40.6114054 C47.1662849,35.1734054 56.2992849,12.5734054 73.9852849,0.576405431 C77.9452849,-2.10959457 89.8852849,5.27840543 91.1122849,8.61640543" id="Fill-5" fill="#FFB201"/>
                        </g>
                        <path d="M680.1399,-0.0004 C680.1399,-0.0004 705.2299,46.7576 707.5099,104.9196 C708.2129,122.8336 735.0459,302.4436 716.7079,362.2006 C709.5669,385.4766 688.6309,427.0196 659.4159,425.3956 C641.424504,424.396112 619.923591,418.51235 605.679741,411.485525 C596.419309,444.431499 585.234543,455.70941 568.3777,466.9655 C544.3527,483.0075 509.294728,476.591653 462.7137,439.3915 C416.132672,402.191347 333.031145,358.431163 303.074131,335.210702 C283.505131,290.679702 345.7187,219.8705 355.9317,206.7385 C411.4357,225.7885 460.7727,262.4435 498.6107,289.7665 C494.2337,264.9625 472.6787,218.6995 471.2107,129.9025 C469.7717,42.8385 511.1067,0.1895 511.1067,0.1895 L511.1067,0.1895 L601.2847,0.1895 C601.532874,0.287707664 601.779042,0.386666974 602.023222,0.486369746 L680.1399,-0.0004 Z" id="pant" fill="#FFB201"/>
                        <path d="M639.4661,39.7008 C642.691686,57.8550475 649.459339,113.450604 628.373299,121.41884 C630.029575,150.451884 630.189358,179.611134 629.7717,208.4814 C628.1427,268.7734 624.7737,329.7634 611.7757,388.6964 C610.1027,396.2814 606.5847,411.5824 605.8047,411.6064 C605.6097,411.6124 605.2517,412.5594 605.7617,409.4274 C607.2977,399.9974 611.8297,376.7454 613.3007,365.1304 C625.3077,284.5504 630.0067,202.3884 625.9617,120.9894 C625.1237,106.1564 623.7957,89.2734 622.1647,74.5134 C621.6087,67.7064 620.1927,58.1704 619.3347,51.3694 C619.1257,47.9544 617.2247,38.2454 618.8557,39.6354 C623.746664,65.7836806 626.634076,92.3644016 628.233738,119.057871 C643.964892,111.215797 640.448071,76.2153339 640.0641,61.1548 C640.5981,59.0518 636.1841,36.1558 639.4661,39.7008 Z M510.7337,307.7057 C506.7667,301.6957 502.8197,295.7247 498.2637,290.1387 C498.0757,289.9187 498.1067,289.5827 498.3357,289.4037 C500.7567,288.0697 516.0607,309.4637 510.7337,307.7057 Z M528.9381,34.2575 C526.7341,50.2655 517.0601,67.5415 503.3341,76.9555 C502.5021,78.3935 483.9051,86.6045 487.6741,81.8795 C506.1591,76.8505 518.8471,60.1525 525.3641,42.8935 C525.3651,42.8935 528.0231,35.1755 528.0231,35.1755 C528.0851,34.9485 528.7141,34.1785 528.9381,34.2575 Z M671.0989,33.3727 C677.0539,45.1297 684.1469,60.4397 698.5709,62.6697 C699.0449,62.7097 699.3959,63.1377 699.3409,63.6107 C688.5039,67.5517 677.8259,52.9317 673.7349,44.0927 C673.2289,42.9457 667.7639,31.1817 671.0989,33.3727 Z" id="shade" fill="#090E2B"/>
                    </g>
                </g>
                <g id="Upper Body/Standing" transform="translate(69.000000, -172.000000) scale(1 1)">
                    <g id="Upper Body/Standing/Hands Up 2" stroke="none" stroke-width="1" fill="none" fill-rule="evenodd">
                        <path d="M618.80649,189.842661 C618.80649,189.842661 651.924998,118.822147 655.08097,111.742496 C667.567632,83.7317223 658.329949,85.8038774 661.60891,69.8882704 C665.301614,51.9733458 659.673114,42.8264885 661.60891,41.6944412 C672.610069,35.2648517 674.988589,60.7833778 676.437688,56.071343 C681.296667,40.2826292 690.094195,35.1489492 695.278971,29.367814 C702.159692,21.6962696 713.969348,34.81523 717.00446,38.3552511 C723.906168,46.4044777 720.490292,62.3627117 717.00446,75.5216384 C709.531108,103.7309 695.826209,99.6120707 684.204436,122.552766 C679.9291,130.99167 670.017059,181.425678 655.08097,231.763492 C629.412354,318.272216 593.897039,420.031571 582.694898,420.031571 C570.243741,420.031571 532.809412,422.210537 529.566876,420.031571 C524.43225,416.581131 554.178789,339.851495 618.80649,189.842661 Z" id="hand-2" fill="#b75858"/>
                        <path d="M499.588011,502.133487 C495.343107,493.907325 477.913227,476.395032 484.450913,464.212308 C490.988599,452.030576 512.58439,460.589588 515.792507,466.037042 C534.005408,496.959445 507.077567,516.648145 499.588011,502.133487" id="t-4" fill="#3615F6"/>
                        <path d="M293.858856,248.851213 C293.858856,248.851213 285.957527,123.190291 280.435777,105.730071 C274.913026,88.2708496 272.961463,90.3836502 257.712583,77.6677724 C240.061202,62.9460181 240.84177,54.9800579 243.576291,53.9429763 C251.386441,57.1211392 224.26696,27.2688853 244.954573,22.2321847 C272.243288,15.5883495 275.21434,37.7951213 288.625305,41.6529605 C290.931707,42.3155893 284.891417,31.6105852 290.0608,26.3375387 C295.490454,20.7986411 295.826805,29.650683 298.052122,33.2006946 C304.731077,43.8487306 309.652202,62.7531422 309.652202,74.4695797 C309.652202,90.0928291 348.453607,215.336679 348.453607,215.336679 C375.583733,343.1908 387.183934,409.405409 383.254211,413.980509 C367.549054,432.264918 340.96651,437.514299 333.75982,440.965904 C330.149513,442.69504 316.849191,378.65681 293.858856,248.851213 Z" id="hand-1" fill="#b75858"/>
                        <path d="M446.712995,420 C446.712995,420 445.881817,449.599337 440.193919,465.472803 C437.002024,474.380564 421.321889,468.288429 429.178278,486.198077 C443.5211,518.894385 502.541109,560.913797 513.692563,550.334893 C524.841653,539.759062 542.629214,534.779291 529.172344,502.008121 C527.434745,497.778389 497.862778,482.511381 496.490937,477.918414 C487.920186,449.238888 498.61233,420 498.61233,420 L446.712995,420 Z" id="neck" fill="#b75858"/>
                        <g id="tshirt" transform="translate(284.000000, 173.000000)" fill="#3615F6">
                            <path d="M280.213721,105.528538 C295.457321,67.6228011 328.287344,25.9722546 325.304393,14.5177703 C322.321443,3.06328592 327.306872,-0.0397483352 331.532193,1 C339.916957,3.06328592 370.7207,17.0958236 381.0077,22.2388236 C391.2947,27.3828236 386.1517,33.3838236 386.1517,33.3838236 C386.1517,33.3838236 355.205809,120.226593 346.479399,147.882824 C325.304393,214.991844 307.488611,264.097331 295.155027,292.312036 C280.836988,325.066443 280.213721,364.017529 280.213721,364.017529 C280.213721,364.017529 234.592728,362.268392 237.299269,336 C240.435735,305.558968 209.246583,301.068667 209.246583,284.293633 C209.246583,265.700454 264.970121,143.434275 280.213721,105.528538 Z" id="t-3"/>
                            <path d="M218.057498,356.726098 C236.35046,354.646966 229.144391,316.111887 229.144391,316.111887 C229.144391,316.111887 253.732874,330.203285 269.710874,333.757285 C269.710874,356.444285 305.313652,384.127106 302.376,431.569461 C299.438348,479.011817 280.423,582.156644 297.139,608.424644 C313.856,634.694644 309.541,641.146424 302.376,650.698424 C295.212,660.251424 247.262,676.009424 204.758,669.490424 C183.514,666.232424 124.296,646.528424 101.609,651.303424 C90.823,653.575424 75.522,666.252424 75.522,654.978424 C75.522,633.485424 100.559,623.973424 106.367,484.705424 C108.708,428.583424 77.211,381.492424 76.017,365.969424 C74.823,350.447424 78.405,347.461424 96.315,327.163424 C114.227,306.864424 122.897,246.884424 133.699,267.138424 C144.501,287.391424 161.449,289.995424 167.958,328.357424 C167.958,328.357424 209.509083,357.69769 218.057498,356.726098 Z" id="t-2"/>
                            <path d="M0,52.6924236 C0,52.6924236 25.846,27.8874236 51.775,23.9984236 C77.706,20.1084236 69.85,28.7884236 69.85,28.7884236 C69.85,28.7884236 95.402,202.823424 116.146,236.533424 C136.891,270.242424 143.151,283.340424 143.151,283.340424 L79.775,377.169424 C79.775,377.169424 33.77,300.302424 31.176,249.738424 C28.583,199.173424 25.315,181.545424 20.129,163.393424 C14.943,145.243424 2.593,78.6234236 0,52.6924236" id="t-1"/>
                        </g>
                    </g>
                </g>
                <g id="Head" transform="translate(399.000000, 26.000000) scale(1 1)">
                    <g id="Head/Long Hair Dark" stroke="none" stroke-width="1" fill="none" fill-rule="evenodd">
                        <path d="M202.9604,77.8622 C181.8504,79.5182 184.2014,108.0832 184.2014,108.0832 L160.7914,233.7422 L164.1714,235.8612 C164.1714,235.8612 157.9414,270.7612 161.9164,281.3122 C164.6894,288.6752 176.1664,298.4982 184.1564,300.4462 C187.9064,301.3602 191.2484,298.4592 193.2994,294.2252 C205.5034,269.0352 175.3224,218.2022 216.6524,184.7252 C225.0304,165.6512 231.8324,150.8302 233.9964,147.8302 C241.0224,138.0892 269.2194,72.6632 202.9604,77.8622" id="hair" fill="#090E2B"/>
                        <path d="M231.595269,169.854103 C231.717269,186.900103 240.726936,192.187937 233.168864,222.1603 C227.297267,245.444758 204.337313,266.222315 197.587626,266.222315 C160.590562,266.222315 132.3061,237.7663 116.0411,222.1603 C99.7771,206.5543 83.9321,173.9643 94.9881,136.8963 C106.0421,99.8283 189.0941,48.6463 217.2231,106.1073 C225.8691,123.7683 231.336269,133.563103 231.595269,169.854103 Z" id="face" fill="#b75858"/>
                        <path d="M130.087655,181.78177 C128.899958,173.986917 126.061679,165.704676 126.5405,162.5359 C137.8085,137.9049 220.0525,153.8619 221.6185,97.6449 C222.2235,75.9519 202.4985,58.0299 185.9315,54.0029 C144.8365,44.0129 94.0475,71.7789 71.6945,128.6529 C57.5485,164.6449 86.5035,215.8529 60.7515,217.0079 C-17.4695,220.5169 -34.6575,251.4859 -39.8695,280.6199 C-46.4775,317.5549 -23.3965,354.4209 10.5785,340.6359 C59.7395,379.8769 115.6965,300.6149 120.2235,241.3049 C123.0005,204.9159 95.7905,197.4829 100.6795,184.5109 C105.0535,175.3509 110.5145,161.8199 115.9255,179.9739 C116.6975,182.5669 115.7295,189.8349 118.0735,193.2009 C121.4855,198.1019 126.8645,197.6369 128.6255,195.2909 C130.940106,192.206653 130.899208,187.107992 130.087655,181.78177 Z" id="hair" fill="#090E2B"/>
                        <path d="M115.313,181.2645 C114.883,173.3005 111.137,163.3435 100.53,162.5625 C94.807,162.1405 82.16,166.5795 87.755,189.1845 C91.797,205.5085 108.376,210.1455 113.018,209.2605 C121.327,207.6775 115.947,193.0495 115.313,181.2645" id="ear" fill="#b75858"/>
                        <path d="M160.0464,257.3124 C155.3254,256.3244 150.3684,253.2734 146.5424,250.1684 C143.4234,247.6374 138.6424,242.7114 136.4884,240.1034 C135.4624,238.8614 137.1414,239.9734 138.7704,241.1364 C140.9294,242.6774 148.1634,248.8464 155.4154,252.9594 C156.3164,253.4704 161.2814,256.3174 161.2404,256.8324 C161.2124,257.1764 160.7484,257.4594 160.0464,257.3124" id="Fill-11" fill="#090E2B"/>
                        <path d="M97.6772,177.0077 C95.0942,177.1907 95.6262,181.2557 98.1642,180.7767 C101.5882,180.1307 104.4142,181.8047 106.4202,184.3537 C103.9832,184.6467 101.3422,187.2217 99.6492,188.5937 C98.4302,189.7157 100.2972,191.5487 101.3982,190.3177 C102.4102,189.2197 103.5952,188.1137 104.8172,187.2487 C105.6362,186.7047 106.5192,186.1107 107.4222,186.1657 C107.5252,186.1937 107.6202,186.2477 107.7152,186.3107 C108.6512,188.0027 109.2862,189.8777 109.5692,191.6537 C114.8252,195.7947 108.3302,174.4217 97.6772,177.0077" id="Fill-13" fill="#090E2B"/>
                    </g>
                </g>
                <g id="Expressions" transform="translate(520.000000, 159.000000) scale(1 1)">
                    <g id="Expressions/In Love" stroke="none" stroke-width="1" fill="none" fill-rule="evenodd">
                        <path d="M89.4189912,77.2399887 C83.9284487,80.2318246 75.3660942,76.0158977 76.7948,74.506 C77.574353,73.6821458 85.5165447,75.6186894 86.4335668,74.0825284 C87.6721194,72.0077515 85.8448629,66.6992367 83.9284487,62.3490252 C82.5348984,59.1857013 79.3846372,52.819168 80.2933512,52.819168 C81.130093,52.819168 87.2937833,61.9085175 88.3962588,64.3781996 C91.7261801,71.8376369 91.7241126,75.9839116 89.4189912,77.2399887 Z" id="Fill-4" fill="#090E2B"/>
                        <path d="M60.5064,23.7959 C47.5804,20.5489 45.4794,19.4539 34.8664,25.0279 C30.5494,27.2959 29.0064,28.3849 30.6324,25.1509 C31.4894,23.4449 33.2274,21.3369 35.8614,19.1299 C43.6104,12.6399 55.3864,12.5789 62.8214,17.9049 C66.5844,20.5999 64.7764,24.8679 60.5064,23.7959" id="Fill-6" fill="#090E2B"/>
                        <path d="M83.771,23.1543 C85.822,15.2143 101.31,10.5023 109.546,17.1923 C111.353,18.6603 112.569,19.4983 109.502,19.9433 C108.406,20.1033 96.527,18.0893 87.738,24.9943 C85.677,26.6133 82.923,26.4353 83.771,23.1543" id="Fill-9" fill="#090E2B"/>
                        <g id="heart-1" transform="translate(52.500000, 43.500000) rotate(3.000000) translate(-52.500000, -43.500000) translate(35.000000, 28.000000)">
                            <path d="M24.1924232,0.715741302 C17.7094082,1.4745763 16.9990832,7.7843413 16.9990832,7.7843413 C16.9990832,7.7843413 12.5095982,2.0670913 6.35344821,4.2373363 C1.31649321,6.0125713 -1.72231179,12.5637313 4.43730321,20.1647863 C9.28599321,26.1476863 21.2148332,28.3098463 24.5805032,29.8910413 C26.0993282,27.6688213 31.0762232,23.6020663 33.0651332,14.0224963 C35.0528882,4.4440813 29.4961832,0.0943513025 24.1924232,0.715741302" id="Fill-11" fill="#FF0057"/>
                            <path d="M24.4699697,29.4832108 C15.2732439,26.5150355 9.37345399,23.808801 5.95760229,20.0089423 C-2.67349674,10.4075429 4.78873932,-0.521763483 17.0052047,8.2150408 C21.0211397,-3.6225542 35.4332297,1.5206608 32.5029947,13.5211108 C31.5986297,19.5987208 28.4408597,24.8874658 24.4699697,29.4832108 Z M16.7326247,6.7204708 C8.45935971,-3.7599992 -5.31863529,7.8396658 2.14150971,18.6192808 C7.26277971,26.0205208 16.6252097,27.5393458 24.4364747,30.1923808 C30.1664297,25.1323258 34.3348247,16.8763858 34.1223047,8.9450008 C34.3902647,-1.3125542 18.6406847,-3.6583592 16.7326247,6.7204708 Z" id="Fill-13" fill="#090E2B"/>
                        </g>
                        <g id="heart-2" transform="translate(99.000000, 40.000000) rotate(11.000000) translate(-99.000000, -40.000000) translate(85.000000, 27.000000)">
                            <path d="M19.5093993,0.637830619 C15.2721993,0.647750446 14.4449993,5.17865045 14.1523993,5.24685045 C13.8597993,5.31615045 10.0812993,1.21095045 5.06859928,2.89615045 C0.969999284,4.27555045 -0.595300716,9.75025045 3.38999928,16.3755504 C6.39409928,21.3706504 15.0147993,24.6233504 17.6030993,25.5132504 C20.6071993,21.8117504 24.6155993,18.3599504 26.2094993,11.5894504 C28.1025993,3.54845045 23.4143993,0.629050446 19.5093993,0.637830619" id="Fill-15" fill="#FF0057"/>
                            <path d="M25.3907693,12.1127204 C23.7132693,17.0693204 21.3064693,21.0711204 17.4960693,25.0850204 C14.5524693,24.0554204 9.87196928,21.6409204 6.67976928,18.6830204 C1.61866928,13.9904204 -0.836530716,7.93712045 4.68436928,3.92872045 C7.37276928,1.97512045 11.5065693,3.10922045 13.7736693,5.38512045 C14.4919693,6.10562045 14.4886693,5.87682045 14.6602693,5.55342045 C18.2275693,-4.00557955 28.1825693,3.86822045 25.3907693,12.1127204 M26.5600693,4.22132045 C24.3688693,-1.03007955 15.6689693,-1.75937955 13.8957693,4.18612045 C3.77906928,-4.10567955 -5.00003072,9.62782045 3.30166928,17.8547204 C7.22426928,21.7003204 12.6461693,24.6945204 17.8579693,25.7527204 C23.1621693,20.2120204 29.5366693,12.4152204 26.5600693,4.22132045" id="Fill-17" fill="#000"/>
                        </g>
                        <g id="lips" transform="translate(61.561158, 86.472328)" fill="#090E2B">
                            <path d="M33.0776392,3.10951711 C32.3096095,3.68791618 30.5066133,6.07407003 28.6835303,7.58937729 C24.5833121,10.9973902 17.9134174,11.7807356 13.983271,10.9973902 C6.59477626,9.52473675 3.39839502,4.70589671 1.44555403,3.38627148 C-0.507286947,2.06664625 3.15885949,0.371947524 5.96377846,0.620811249 C8.76869744,0.869674975 10.6512306,1.68385376 16.0042847,3.98694343 C19.458774,5.47319757 27.2699021,3.38627148 29.4770368,2.06664625 C33.6872538,-0.450603278 34.9501484,1.69934025 33.0776392,3.10951711 Z" id="Fill-18"/>
                            <path d="M22.4708476,13.7892357 C19.5451896,13.0367248 13.2054699,13.8670175 13.4454699,16.8130175 C13.5880982,18.5717023 15.1690297,19.562964 19.6747779,18.2282597 C21.3616833,17.7285602 23.5578877,17.3554298 25.5033258,17.3554298 C26.2213258,16.4004298 25.3965056,14.5417466 22.4708476,13.7892357 Z" id="Fill-20"/>
                        </g>
                    </g>
                </g>
                <g id="Facial Accesories" transform="translate(517.000000, 209.000000) scale(1 1)" fill="#000">
                    <g id="Facial Accesories/None" stroke="none" stroke-width="1" fill="none" fill-rule="evenodd" fill-opacity="0"/>
                </g>
                <g id="Glass" transform="translate(520.000000, 164.000000) scale(1 1)" fill="#000">
                    <g id="Glass/None" stroke="none" stroke-width="1" fill="none" fill-rule="evenodd" fill-opacity="0"/>
                </g>
            </g>
        </g>
        <g transform="translate(1476.000000, 1304.000000) scale(-1, 1) translate(-1476.000000, -1304.000000) translate(921.000000, 554.000000) scale(1 1)" id="Master/Character/Kneeling">
            <g id="Master/Character/Kneeling" stroke="none" stroke-width="1" fill="none" fill-rule="evenodd">
                <g id="Lower" transform="translate(179.000000, 940.000000) scale(1 1)">
                    <g id="Lower/Kneeling 2" stroke="none" stroke-width="1" fill="none" fill-rule="evenodd">
                        <g id="shoe-2" transform="translate(415.000000, 404.000000)">
                            <path d="M6,1.13686838e-12 L8.67825667,75.8971429 L8.67825667,101.754619 L72.1573854,116 L91,92.8468915 C76.4632756,80.5052057 69.1949135,72.7589833 69.1949135,69.6082242 C69.1949135,55.8548732 73.5573161,35.1606877 82.2821213,7.52566774 L6,1.13686838e-12 Z" id="Fill-5" fill="#757eff"/>
                            <path d="M204,156 L5.19662903,156 C3.3575935,149.749208 1.74843741,143.189781 2.03276198,138 L201.309201,142.629528 C202.498524,146.510398 203.409573,151.113896 204,156" id="Fill-7" fill="#FFB201"/>
                            <path d="M22.2823643,95.0205898 C36.3326217,97.3286584 59.3414862,97.3286584 64.9088788,95.0205898 C72.7184903,91.7829666 72.7444258,76.8047266 78.3278936,76.8047266 C83.9125685,76.8047266 122.879741,104.391721 127.998423,104.391721 C133.117104,104.391721 185.360254,125.318242 191.874501,129.516132 C198.391162,133.714021 201,144 201,144 L1.78549226,144 C1.78549226,144 -5.15732353,91.3321588 8.33837074,76 C8.33837074,76 13.5223618,88.6006085 22.2823643,95.0205898 Z" id="Fill-9" fill="#090E2B"/>
                            <path d="M118.254627,110.030445 C122.725682,100.743879 124.689559,99.1252998 122.766823,97.6712804 C118.169925,94.1934234 94.8974471,105.04699 93.0836143,111.469727 C91.7247523,116.282482 107.202227,102.318248 119.588079,100.204762 C114.522899,104.967166 109.830409,119.533149 114.819356,116.617742 C139.121569,102.415264 142.970669,105.681895 142.9985,105.155059 C143.135233,102.657191 133.917236,100.664055 118.254627,110.030445" id="Fill-19" fill="#FFB201"/>
                        </g>
                        <g id="shoe-1" transform="translate(132.000000, 319.000000)">
                            <path d="M161.484775,1.13686838e-12 C130.445114,12.1713424 84.959247,68.9423831 60.1482204,66.453092 C60.1482204,66.453092 52.6281227,99.452187 54.2216902,109.357466 C55.9777437,120.263047 92.63822,144 92.63822,144 C92.63822,144 93.307422,120.15083 97.7667629,114.339668 C102.227307,108.5273 200,69.3582833 200,69.3582833 L161.484775,1.13686838e-12 Z" id="Fill-1" fill="#757eff"/>
                            <path d="M128.373852,220.70478 C121.103901,201.719787 88.3241021,207.187465 90.691231,159.58636 C91.0416046,152.538407 105.961982,143.95719 99.4325106,132.238326 C89.923058,115.174735 72.2936068,130.272325 70.2852797,88.5571708 C69.8722964,79.9771591 75.1026158,75.108563 75.1929182,69.9289745 C75.2290392,67.8315848 76.9508064,63.7754258 63.1622205,64.0189159 C55.6237699,64.1527149 17.5775311,62.2964044 9,76.0065833 C15.1417723,114.779364 19.1969555,167.003164 44.4936888,199.654943 C61.5187155,221.630525 67.6640999,235.133375 116.740485,236 C122.9846,236.107336 131.368282,228.522981 128.373852,220.70478" id="Fill-18" fill="#090E2B"/>
                            <path d="M86.7272835,238.188517 C55.5264927,233.590076 41.2931206,214.325295 25.4795969,187.580367 C12.2848503,165.265219 6.431325,126.251357 4.28923492,112.968043 C0.90079422,91.9684555 -0.86186735,80.0163642 0.418103517,74.5541343 C0.978841224,72.1627523 8.40411312,71.217042 10.9160259,70.0713471 C17.9018332,66.8896645 25.7281466,171.081638 39.36596,190.486167 C50.8917014,206.889723 62.4726761,220.31399 77.5849775,226.380992 C97.3308696,234.309297 119.592277,232.4492 119.99692,236.382632 C120.318714,239.504078 95.334067,239.457094 86.7272835,238.188517" id="Fill-20" fill="#FFB201"/>
                            <path d="M70.0013273,163.86055 C69.9537045,164.898591 71.1835628,164.303496 74.346906,164.10963 C79.9318677,163.768525 89.3278424,165.390618 89.3397481,166.000436 C89.3409387,166.031111 84.8251084,166.45688 79.5092155,170.005363 C76.3280137,172.126844 76.255389,173.5109 77.4304811,173.182064 C84.3429278,171.245859 90.0421841,176.801712 91.632785,179.247122 C93.5257906,182.160018 93.7162817,175.850788 90.5124591,173.398016 C87.976546,171.456903 86.435949,171.218865 84.9596428,170.80782 C86.5121455,169.410268 92.2066395,167.697377 91.8935197,165.897369 C90.913681,160.293662 70.2084864,159.340284 70.0013273,163.86055" id="Fill-22" fill="#FFB201"/>
                        </g>
                        <path d="M436.826829,206.820983 C322.68096,188.859518 271.919144,193.436842 264.402918,158.627265 C238.528497,38.7714952 430.146237,3 430.146237,3 C430.146237,3 539.331349,77.5026463 600.644424,131.155649 C659.399608,182.57104 708.901829,275.815872 591.673653,312.670434 C484.829641,346.262469 320.762615,405 320.762615,405 C320.762615,405 256.765579,336.30231 264.402918,328.891661 C297.50895,296.764311 409.10787,209.194281 436.826829,206.820983 Z" id="Fill-3" fill="#090E2B"/>
                        <path d="M267.615354,183.540453 C323.938977,194.631882 391.103632,161.73882 451.994785,128.427499 C451.994785,128.427499 388.023434,235.502877 401.5,413.114272 C454.473608,429.173704 499.477409,418.560173 499.477409,418.560173 C499.477409,418.560173 611.305629,111.710384 620.56478,70.6631326 C659.318993,-101.140305 223.017716,-16.6858547 200.918425,13.4901404 C194.876165,21.7406849 174.358334,54.7198855 181.484732,101.017057 C191.617949,166.848255 251.803257,180.426684 267.615354,183.540453 Z" id="Fill-15" fill="#001386"/>
                    </g>
                </g>
                <g id="Upper Body/Sitting" transform="translate(243.000000, 170.000000) scale(1 1.0010526315789474)">
                    <g id="Upper Body/Sitting/Pointing Up 1" stroke="none" stroke-width="1" fill="none" fill-rule="evenodd">
                        <path d="M639.547825,295.147257 C639.547825,295.147257 642.042491,289.628273 644.162657,285.845171 C646.961915,280.850755 644.723907,275.058474 639.174324,282.688748 C637.676326,284.747981 608.594198,317.06202 601.50767,323.038501 C548.121027,368.065325 484.122568,420.148801 469.213496,427.209457 C448.353378,437.087167 412.600166,442.544084 394.461411,458.649548 C385.654183,466.470028 419.531901,531 419.531901,531 C419.531901,531 475.133583,505.649512 492.886854,494.532457 C514.978326,480.696454 580.932171,398.878737 619.231979,346.718177 C627.7456,335.124606 643.730235,333.303632 649.415635,316.857799 C652.915957,306.735823 639.547825,295.147257 639.547825,295.147257" id="hand-2" fill="#757eff"/>
                        <path d="M264.228267,422.571797 C264.228267,422.571797 261.117669,445.789502 263.585937,450.399465 C264.789556,452.645985 273.084818,460.675695 304.523972,465.017835 C308.02377,468.712401 291.294174,505.801967 284.764819,511.95991 C278.236465,518.118853 257.273694,521.40269 217.404208,489.791514 C177.534723,458.17934 183.288679,458.58907 183.288679,458.58907 C183.288679,458.58907 205.631159,458.105389 210.827829,449.96775 C212.649765,447.114629 214.667802,403.542334 210.254535,390.392996 C205.841267,377.243659 264.228267,422.571797 264.228267,422.571797" id="Fill-4" fill="#757eff"/>
                        <path d="M89.1032324,526 C89.1032324,526 9.26300082,603.825096 -10.6262634,623.706208 C-25.7696012,638.843339 -103.581582,713.377755 -152.078487,757.758934 C-167.278859,771.669811 -189.372483,778.909308 -204.580861,787.224028 C-211.56917,791.043818 -236.881778,804.409582 -234.888549,808.949521 C-233.164486,812.876333 -202.181381,808.371402 -193.637113,811.805112 C-201.701085,819.659736 -200.134119,827.055266 -186.276574,822.711368 C-167.134771,816.711127 -158.406388,798.747411 -142.956862,788.0562 C-124.132254,775.029506 12.415945,704.397897 48.7103251,668.949566 C75.3347424,642.944187 139,607.234801 139,607.234801 L89.1032324,526 Z" id="hand-1" fill="#757eff"/>
                        <path d="M113.668953,630.645162 C129.143991,618.190858 159.333034,596.980826 159.333034,596.980826 C159.333034,596.980826 96.5414333,773.558674 109.500967,794.106746 C113.019779,799.686022 143.514801,777.578578 188.285914,770.698783 C261.870939,759.391272 345.020255,752.571335 337.075048,729.397459 C314.438137,663.372117 334.966957,570.036102 334.966957,570.036102 L423.340307,539.027687 C433.526155,520.056608 444.015067,441.643672 430.789086,437.044714 C427.297339,435.830197 329.951995,459.760388 329.951995,459.760388 C329.951995,459.760388 291.077144,457.13627 288.682889,458.425819 C286.289635,459.715369 280.714055,494.976385 272.903436,496.614083 C251.083772,501.192032 183.708173,455.107406 183.708173,455.107406 C183.708173,455.107406 150.636211,460.393657 132.659771,475.923271 C120.337018,486.568805 35,571.112809 35,571.112809 C35,571.112809 98.1929125,643.099466 113.668953,630.645162 Z" id="Fill-8" fill="#FF0057"/>
                        <path d="M159,597.771333 C160.752664,594.262844 173.792041,582.039786 181.777621,575.391058 C188.398907,569.876417 191.546895,568.195013 181.900738,578.49083 C178.416431,581.63714 161.53841,600.263089 159,597.771333" id="Fill-10" fill="#000"/>
                        <path d="M336.789026,541.007767 C337.06561,541.935679 337.432694,559.969878 335.255609,569.235209 C335.075626,569.999604 334.97089,570.89895 334.740064,570.987604 C333.397817,571.503768 334.176727,555.770633 334.773621,548.02227 C335.51084,538.45059 336.320256,539.43662 336.789026,541.007767" id="Fill-12" fill="#000"/>
                    </g>
                </g>
                <g id="Head" transform="translate(341.000000, 346.000000) scale(1 1)">
                    <g id="Head/Short Dark" stroke="none" stroke-width="1" fill="none" fill-rule="evenodd">
                        <path d="M240.4603,89.8187 C240.4603,89.8187 247.1233,114.1517 245.6803,124.1867 C243.8023,137.2407 233.4533,136.1067 234.8383,140.4027 C239.5723,155.0927 226.4003,160.2027 226.4003,160.2027 C226.4003,160.2027 223.6603,145.9857 223.9103,131.6937 C224.1613,117.4007 221.6543,107.1207 221.6543,107.1207 L240.4603,89.8187 Z" id="hair" fill="#090E2B"/>
                        <path d="M192.5908,267.0274 C224.2428,264.4884 238.020209,246.70182 239.5388,229.4834 C241.504327,207.197431 236.0058,190.5654 233.1908,174.2604 C223.4298,117.7414 239.1068,106.6534 187.1538,96.2284 C159.9338,90.7674 99.9898,97.9554 85.2798,132.7664 C79.5308,146.3714 88.6708,170.3194 90.2748,189.9154 C94.4538,240.9794 154.1008,270.1154 192.5908,267.0274 Z" id="face" fill="#757eff"/>
                        <path d="M123.8589,41.6834 C86.5719,47.4364 78.1609,71.7324 76.2619,82.4054 C75.4829,79.1624 74.9369,75.5634 76.4449,72.9134 C76.9879,71.8554 75.3329,71.0214 74.8099,72.0874 C72.6969,76.5784 72.7039,81.6154 73.8029,86.3604 C69.7519,85.7334 65.5239,86.3634 61.9699,88.4944 C61.1589,88.9754 61.9019,90.2394 62.7189,89.7804 C65.1059,88.7554 67.7359,88.4754 70.3069,88.7714 C65.6579,90.4604 58.9819,94.3084 54.3399,103.0204 C49.3439,112.3974 47.7859,126.1464 49.9529,136.9844 C54.0639,157.5394 70.9269,165.4554 68.4039,170.3494 C61.0699,184.5724 69.3379,208.4314 79.1349,218.4284 C92.9599,232.5354 107.8639,235.3934 108.1179,219.3434 C108.3729,203.2944 103.6129,173.2844 107.7139,170.4274 C115.8699,180.5164 119.6079,181.7564 120.5419,175.2714 C122.4569,161.9584 118.0209,155.6414 113.1789,148.5664 C106.7739,139.2044 131.5549,136.0114 131.8529,120.6364 C135.6089,124.7334 138.4359,132.6264 153.2019,136.6944 C165.6119,140.1134 180.8789,140.2074 193.0839,122.5414 C202.3029,138.2494 224.0969,132.0104 230.7859,130.2904 C266.4129,121.1334 253.4839,53.9264 211.3139,60.7074 C184.4609,65.0254 158.9859,36.2624 123.8589,41.6834 Z" id="hair" fill="#090E2B"/>
                        <path d="M113.767,179.4916 C109.26,169.7266 100.831,161.4866 86.463,164.4866 C71.599,167.5916 69.788,197.7756 96.185,208.6956 C104.335,212.0666 107.242,210.4316 109.479,208.2106 C114.731,202.9936 115.788,183.8716 113.767,179.4916" id="ear" fill="#757eff"/>
                        <path d="M89.6861,174.4214 C90.2851,174.4984 90.8771,174.6084 91.4611,174.7554 C92.6281,175.0464 93.7631,175.4654 94.8541,175.9824 C97.0271,177.0314 99.0231,178.5214 100.5801,180.3734 C101.0121,180.7984 101.3281,181.3184 101.6901,181.7984 C102.0461,182.2824 102.3891,182.7724 102.6541,183.3114 C102.9371,183.8354 103.2311,184.3534 103.4921,184.8844 L104.1211,186.5354 L104.4261,187.3594 L104.6281,188.2104 C104.7621,188.7754 104.8961,189.3394 105.0111,189.9034 C105.1831,191.0424 105.2721,192.1864 105.3561,193.3124 C105.3851,193.7104 105.0871,194.0564 104.6901,194.0854 C104.3601,194.1094 104.0661,193.9084 103.9581,193.6114 L103.9251,193.5194 C103.5551,192.4924 103.3001,191.4554 102.9281,190.4634 C102.7101,189.9784 102.5101,189.4924 102.3111,189.0094 L102.0121,188.2864 L101.6351,187.6054 L100.9011,186.2504 L100.0301,184.9974 C99.7641,184.5654 99.4291,184.1884 99.0891,183.8194 C98.7411,183.4584 98.4681,183.0324 98.0751,182.7194 C96.6741,181.3004 94.9981,180.2114 93.2291,179.3164 C92.7861,179.0924 92.3251,178.9044 91.8721,178.6934 C91.4061,178.5204 90.9431,178.3264 90.4701,178.1654 C89.5471,177.8334 88.5011,177.5664 87.6531,177.3764 L87.4811,177.3384 C86.6491,177.1514 86.1261,176.3264 86.3131,175.4954 C86.4731,174.7824 87.1041,174.2964 87.8041,174.2904 C88.5141,174.2844 89.0751,174.3324 89.6861,174.4214 Z" id="Fill-9" fill="#090E2B"/>
                        <path d="M99.0443,183.8384 C98.9553,183.8094 98.7863,183.7934 98.6423,183.7684 C98.3093,183.7504 97.9563,183.7384 97.5883,183.7934 C96.8583,183.8794 96.1273,184.1034 95.4523,184.4294 C94.7723,184.7454 94.1523,185.1914 93.5983,185.7054 C93.0253,186.1984 92.5623,186.8304 92.1123,187.4554 L92.0493,187.5424 C91.3583,188.5044 90.0173,188.7224 89.0563,188.0304 C88.0943,187.3384 87.8763,185.9984 88.5683,185.0364 C88.6163,184.9694 88.6773,184.8954 88.7323,184.8354 C89.4763,184.0294 90.2533,183.2454 91.1863,182.6214 C92.0953,181.9834 93.0963,181.4544 94.1663,181.1164 C95.2323,180.7694 96.3473,180.5834 97.4833,180.6024 C98.0483,180.6024 98.6303,180.6854 99.2183,180.8124 C99.5263,180.9034 99.8173,180.9764 100.1563,181.1384 C100.4673,181.2904 100.8843,181.4634 101.3493,182.0784 C101.7863,182.7264 101.6163,183.6054 100.9693,184.0434 C100.3223,184.4804 99.4423,184.3114 99.0043,183.6644 C99.1613,183.9274 99.1723,183.8464 99.0443,183.8384 Z" id="Fill-11" fill="#090E2B"/>
                        <path d="M145.0532,259.7084 C141.4982,257.8384 132.4912,252.7524 130.5242,250.3674 C129.4982,249.1244 130.9902,250.3784 132.7172,251.3724 C135.0152,252.6964 144.1192,257.8464 155.4622,261.5594 C156.4462,261.8814 162.7232,263.6464 162.9132,263.9644 C163.0902,264.2614 162.5602,264.8804 161.8432,264.8734 C157.0202,264.8304 149.4132,262.0014 145.0532,259.7084 Z" id="Fill-13" fill="#090E2B"/>
                    </g>
                </g>
                <g id="Expressions" transform="translate(462.000000, 479.000000) scale(1 1)">
                    <g id="Expressions/Calm 1" stroke="none" stroke-width="1" fill="none" fill-rule="evenodd">
                        <g id="eye1" transform="translate(42.527098, 33.213671) rotate(-4.000000) translate(-42.527098, -33.213671) translate(21.027098, 13.213671)">
                            <path d="M0.0487023333,7.96572872 C1.82485498,-0.0171869856 25.1977023,-2.81531309 35.4827023,3.36568691 C39.0387023,5.47868691 45.6427023,11.2837287 39.7957023,14.4437287 C38.2517023,15.1157287 36.7517023,14.4267287 35.4827023,13.6077287 C21.4647023,3.86572872 -1.18942441,13.5304877 0.0487023333,7.96572872 Z" id="Fill-1" fill="#090E2B"/>
                            <path d="M19.0113023,22.3973287 C13.7233023,23.8973287 9.19030233,28.1473287 8.76930233,31.6693287 C8.51430233,33.7973287 16.8643023,38.9063287 24.9173023,39.3033287 C35.5113023,39.8243287 40.8513023,34.0853287 40.8324531,32.2513287 C40.1193023,26.7013287 33.7283023,18.2233287 19.0113023,22.3973287 Z" id="Fill-6" fill="#FFF"/>
                            <path d="M35.3981023,25.5550287 C27.2551023,19.4010287 14.6431023,23.4110287 8.76910233,31.6690287 C8.43210233,32.0970287 8.52910233,31.0200287 8.76310233,30.5290287 C11.5971023,24.5820287 16.7101023,21.7750287 22.6381023,20.5510287 C26.2051023,19.8140287 29.5311023,19.7540287 33.0101023,21.3120287 C34.3551023,21.9130287 36.7311023,23.7450287 38.5671023,25.8170287 C39.9991023,27.4320287 41.2051023,30.2010287 39.5481023,29.2220287 C38.2511023,28.4550287 36.4781023,26.3720287 35.3981023,25.5550287 Z" id="Fill-8" fill="#090E2B"/>
                            <path d="M24.8135023,36.0623287 C29.3405023,36.0623287 33.0105023,32.7143287 33.0105023,28.5833287 C33.0105023,24.4533287 29.3405023,21.1043287 24.8135023,21.1043287 C20.2865023,21.1043287 16.6165023,24.4533287 16.6165023,28.5833287 C16.6165023,32.7143287 20.2865023,36.0623287 24.8135023,36.0623287 Z" id="Fill-10" fill="#090E2B"/>
                        </g>
                        <g id="eye2" transform="translate(81.203378, 15.000183)">
                            <path d="M23.2557812,1.861246 C26.6096324,3.34897691 31.0744206,8.28711729 27.357522,8.28711729 C23.6406234,8.28711729 15.5900245,7.23270759 10.1930245,9.45970759 C8.30802454,9.94170759 6.87752199,10.8641173 4.98452199,11.0891173 C0.67652199,11.9281173 -1.66408888,6.76839233 1.38185604,3.64904337 C4.82290212,0.125071736 16.4397812,-1.545754 23.2557812,1.861246 Z" id="Fill-4" fill="#090E2B"/>
                            <path d="M19.455322,34.2343173 C24.826322,32.9853173 28.843322,28.1153173 28.389322,24.4763173 C27.503322,19.6543173 18.218322,16.5753173 13.017322,19.2083173 C7.86632199,21.8153173 4.64332199,27.6403173 5.05932199,29.9403173 C5.66032199,31.5323173 13.966322,35.5113173 19.455322,34.2343173 Z" id="Fill-12" fill="#FFF"/>
                            <path d="M15.011222,31.6060173 C18.549222,31.6060173 21.417222,28.8520173 21.417222,25.4560173 C21.417222,22.0590173 19.396222,18.8490173 15.011222,19.3060173 C11.492222,19.6720173 8.60422199,22.0590173 8.60422199,25.4560173 C8.60422199,28.8520173 11.473222,31.6060173 15.011222,31.6060173 Z" id="Fill-14" fill="#090E2B"/>
                            <path d="M5.25072199,26.6376173 C7.27972199,19.0636173 16.440722,15.1686173 23.685722,18.7546173 C24.705722,19.2866173 26.361722,20.4806173 27.601722,21.9226173 C28.742722,23.2526173 28.593722,23.9496173 28.127722,23.8116173 C27.355722,23.5816173 25.722722,22.1166173 24.395722,21.4866173 C17.685722,18.3036173 10.704722,20.0896173 5.59372199,27.5586173 C5.34272199,27.9456173 5.10472199,27.0746173 5.25072199,26.6376173" id="Fill-22" fill="#090E2B"/>
                        </g>
                        <path d="M85.9879908,71.3386563 C85.0131141,76.2575144 78.9689699,76.7359636 75.0323155,75.6212963 C71.832522,74.7152719 71.0034674,72.851321 72.0853454,72.2537752 C73.8485675,71.2799076 79.4997296,73.9889887 81.5858367,71.4027854 C85.305606,66.7912866 73.8914605,49.8346319 77.5177277,52.5592059 C82.3102149,56.1600121 86.6386051,68.0559034 85.9879908,71.3386563 Z" id="nose" fill="#090E2B"/>
                        <g id="lips" transform="translate(57.561158, 83.472328)" fill="#090E2B">
                            <path d="M24.6314423,10.2352717 C21.1964423,11.9522717 16.3084423,13.7232717 10.6794423,12.9182717 C5.05144233,12.1142717 2.01844233,8.81927172 0.786442327,6.40327172 C-1.32255767,2.27127172 1.13144233,-0.833728284 4.34844233,0.200271716 C7.56344233,1.23527172 9.40744233,5.68627172 12.5654423,6.45927172 C16.4424423,7.40827172 22.8454423,4.43627172 26.5024423,3.47827172 C30.3364423,2.47327172 36.6974423,2.09918012 36.6974423,8.52727172 C36.6974423,12.1251305 34.5597106,11.3954112 32.84831,9.25710631 C31.1369095,7.11880144 28.0664423,8.51727172 24.6314423,10.2352717 Z" id="Fill-18"/>
                            <path d="M22.8970423,17.2262717 C18.4760423,16.5892717 14.2940423,17.1472717 14.5340423,20.0932717 C14.7730423,23.0402717 22.3760423,25.5572717 25.7640423,21.0492717 C26.4820423,20.0942717 27.3170423,17.8632717 22.8970423,17.2262717 Z" id="Fill-20"/>
                        </g>
                    </g>
                </g>
                <g id="Facial Accesories" transform="translate(459.000000, 529.000000) scale(1 1)" fill="#000">
                    <g id="Facial Accesories/None" stroke="none" stroke-width="1" fill="none" fill-rule="evenodd" fill-opacity="0"/>
                </g>
                <g id="Glass" transform="translate(462.000000, 484.000000) scale(1 1)" fill="#000">
                    <g id="Glass/None" stroke="none" stroke-width="1" fill="none" fill-rule="evenodd" fill-opacity="0"/>
                </g>
            </g>
        </g>
    </g>
</svg>
