<svg viewBox="120 120 3120 1960" xmlns="http://www.w3.org/2000/svg" overflow="visible">
    <g id="Master/Scenes/Working Remotely" stroke="none" stroke-width="1" fill="none" fill-rule="evenodd">
        <g id="Background" transform="translate(-1.000000, 0.000000)">
            <g id="Chair" transform="translate(597.000000, 1255.000000) scale(1 1)">
                <g id="Chair/Stool" stroke="none" stroke-width="1" fill="none" fill-rule="evenodd">
                    <g id="Group" transform="translate(249.000000, 425.000000)" fill="#8E2420">
                        <path d="M32,0.639462324 L21.361,173.639462 L181.639,173.639462 L171,0.639462324 L189,0.639462324 L195.476,173.639462 L196,173.639462 L196,186.639462 L195.963,186.639462 L203,374.639462 L194,374.639462 L182.439,186.639462 L20.561,186.639462 L9,374.639462 L0,374.639462 L14,0.639462324 L32,0.639462324 Z" id="Combined-Shape"/>
                    </g>
                    <path d="M233.392254,403.051901 L352.708336,399.021055 C353.123705,399.007023 353.539436,399.00738 353.95478,399.022127 L466.638699,403.023039 C476.325148,403.366962 484,411.319151 484,421.011704 L484,430.639462 C484,440.580588 475.941125,448.639462 466,448.639462 L234,448.639462 C224.058875,448.639462 216,440.580588 216,430.639462 L216,421.041638 C216,411.337076 223.693225,403.379563 233.392254,403.051901 Z" id="Rectangle" fill="#FF0057"/>
                </g>
            </g>
            <g id="Medium Plants" transform="translate(0.000000, 1255.000000) scale(1 1)">
                <g id="Medium Plants/Plant 2" stroke="none" stroke-width="1" fill="none" fill-rule="evenodd">
                    <g id="Group" transform="translate(151.000000, 136.000000)">
                        <path d="M255.803813,361.180941 C255.803813,361.180941 255.967778,303.988941 233.935778,258.656941 C207.751778,204.780941 110.687778,137.420941 53.2517777,154.604941 C27.7837777,162.224941 74.8037777,229.528941 143.291778,299.444941 C172.127778,328.884941 243.071778,373.648941 255.803813,361.180941 Z" id="Stroke-1" fill="#009BA0"/>
                        <path d="M270.711778,221.688541 C270.711778,221.688541 288.451778,194.364541 290.959778,132.728541 C292.855778,86.0165406 272.567778,50.1805406 262.055778,33.4925406 C250.247778,14.7445406 227.031778,-16.2634594 213.123778,10.3165406 C199.211778,36.9045406 191.687778,98.1165406 204.835778,139.812541 C217.983778,181.504541 238.707778,211.308541 270.711778,221.688541 Z" id="Stroke-3" fill="#009BA0"/>
                        <path d="M207.752978,431.895741 C207.752978,431.895741 174.156978,465.051741 102.772978,455.699741 C39.1249777,447.359741 -0.511022309,415.243741 0.00497769134,400.363741 C0.520977691,385.483741 75.8929777,352.563741 137.464978,376.015741 C199.036978,399.471741 207.752978,431.895741 207.752978,431.895741 Z" id="Stroke-5" fill="#009BA0"/>
                        <path d="M343.289778,373.051741 C343.289778,373.051741 316.393778,339.287741 317.117778,259.231741 C317.837778,179.175741 359.169778,83.8237406 372.621778,82.6437406 C386.081778,81.4677406 406.757778,128.711741 401.589778,233.135741 C398.861778,288.251741 384.213778,345.203741 343.289778,373.051741 Z" id="Stroke-7" fill="#009BA0"/>
                        <path d="M390.948178,414.731741 C390.948178,414.731741 433.816178,429.307741 470.388178,408.911741 C522.396178,379.903741 546.200178,338.355741 547.268178,312.915741 C548.332178,287.475741 493.836178,305.979741 468.304178,319.935741 C442.580178,333.995741 386.932178,386.179741 390.948178,414.731741 Z" id="Stroke-9" fill="#009BA0"/>
                        <path d="M368.893378,148.247341 C366.685378,214.139341 361.885378,280.055341 350.533378,345.067341 C344.689378,377.587341 336.417378,409.551341 327.241378,441.227341 C318.061378,472.651341 307.037378,503.979341 307.649378,537.079341 C307.737378,539.627341 303.569378,539.767341 303.649378,537.075341 C303.149378,503.679341 314.429378,471.751341 323.817378,440.223341 C333.101378,408.683341 341.493378,376.811341 347.445378,344.503341 C359.041378,279.767341 364.129378,213.875341 366.617378,148.191341 C366.609378,147.671341 366.941378,141.271341 367.349378,141.131341 C369.349378,140.427341 368.941378,147.287341 368.893378,148.247341" id="Fill-11" fill="#000"/>
                        <path d="M241.034178,64.8057406 C252.378178,123.057741 264.026178,182.021741 276.574178,240.061741 C294.438178,337.957741 300.862178,437.673741 301.178284,537.073741 C301.202178,539.533741 297.150178,539.769741 297.178178,537.073741 C296.862178,437.933741 290.454178,338.429741 272.642178,240.813741 C260.310178,182.789741 249.022178,123.637741 238.666178,65.2497406 C238.518178,64.5337406 237.230178,55.9057406 238.562178,56.2137406 C239.158178,56.3497406 240.902178,64.0217406 241.034178,64.8057406" id="Fill-13" fill="#000"/>
                        <path d="M111.547778,190.485341 C239.671778,290.141341 287.099778,378.629341 293.211883,541.541341 C293.235778,544.069341 289.139778,544.249341 289.211778,541.517341 C286.595778,439.465341 259.911778,335.225341 185.315778,261.625341 C162.091778,236.737341 132.631778,210.377341 105.695778,189.581341 C104.747778,188.949341 102.159778,186.405341 104.131778,186.837341 C105.271778,187.081341 110.983778,190.037341 111.547778,190.485341" id="Fill-15" fill="#000"/>
                        <path d="M44.4229777,401.618141 C94.7429777,397.874141 146.158978,404.266141 193.262978,422.790141 C241.970978,441.422141 272.686978,490.006141 280.614978,540.074141 C281.046978,542.562141 277.154978,543.366141 276.678978,540.782141 C261.426978,453.798141 202.070978,418.202141 119.494978,406.762141 C94.7109777,403.158141 67.2389777,401.422141 42.2069777,403.158141 C41.1149777,403.294141 43.1949777,401.698141 44.4229777,401.618141" id="Fill-17" fill="#000"/>
                        <path d="M499.692178,337.778541 C421.660178,388.194541 329.632178,447.238541 315.512178,546.870541 C315.188178,549.418541 311.040178,548.838541 311.564178,546.218541 C321.700178,471.770541 378.988178,416.470541 437.732178,375.370541 C457.480178,361.414541 477.616178,348.070541 498.092178,335.210541 C498.884178,334.710541 506.144178,330.642541 506.120237,332.094541 C506.112178,332.854541 500.560178,337.242541 499.692178,337.778541" id="Fill-19" fill="#000"/>
                        <path d="M333.766578,663.567341 L259.346578,663.567341 C236.854578,663.567341 218.618578,637.331341 218.618578,614.839341 L218.618578,499.695341 L374.494578,499.695341 L374.494578,614.839341 C374.494578,637.331341 356.258578,663.567341 333.766578,663.567341 Z" id="Stroke-21" fill="#FFB201"/>
                    </g>
                </g>
            </g>
            <g id="Outdoor Plants" transform="translate(2450.000000, 1090.000000) scale(1 1)">
                <g id="Outdoor Plants/Plant 1" stroke="none" stroke-width="1" fill="none" fill-rule="evenodd">
                    <g id="Group-6" transform="translate(3.000000, 208.000000)">
                        <path d="M199.883326,757 C199.883326,757 154.639614,615.704437 63.7021884,486.352218 C-27.2352371,357 -13.9695544,268.907181 63.7021884,246.214912 C141.373931,223.522642 267.592553,290.509829 306.646043,382.031679 C331.898655,441.210897 374.804123,628.371706 268.960535,757 C238.721051,756.165996 199.883326,757 199.883326,757 Z" id="Stroke-8" fill="#017C7F"/>
                        <path d="M180.80074,266.460237 C125.13078,13.4204746 221.50036,-21.2992546 328.620701,9.33958092 C435.741041,39.9784164 507.960342,173.305169 491.620701,300.677192 C466.681525,495.084959 320.447913,757 320.447913,757 L236.4707,757 C236.4707,598.666667 217.914047,435.153412 180.80074,266.460237 Z" id="Stroke-10" fill="#009BA0"/>
                        <path d="M299.869545,92.3392506 C301.326008,91.6825172 303.029928,92.2842179 303.76044,93.6823222 L303.857175,93.8846724 L304.316098,94.9397143 L304.887232,96.295742 C305.10977,96.8312409 305.345953,97.4073406 305.595259,98.0239333 L305.978996,98.9791786 C307.658678,103.18678 309.527498,108.198532 311.537907,114.004614 C317.270818,130.561319 322.999418,150.177346 328.343248,172.774008 C340.981111,226.213867 349.496836,287.717379 351.998041,356.891597 C354.239813,418.890863 350.075029,478.447706 339.405709,544.65636 L339.021897,547.023799 C329.749389,603.877937 316.614263,662.450624 292.750418,757.276586 C292.346063,758.883341 290.715735,759.858079 289.10898,759.453724 C287.502225,759.049369 286.527487,757.419042 286.931842,755.812287 L289.047362,747.388625 C311.539988,657.63471 324.138912,601.00352 333.100137,546.058001 C343.991922,479.275307 348.255457,419.431969 346.001959,357.108403 C343.515192,288.333464 335.05336,227.219184 322.504303,174.154847 L321.81134,171.250364 C316.714465,150.074656 311.289348,131.624212 305.868175,115.96781 L305.247809,114.188627 C303.503926,109.222351 301.87886,104.891689 300.406603,101.203688 L299.855033,99.8349225 C299.678602,99.4014064 299.50967,98.9906447 299.348457,98.6026828 L298.799647,97.2995385 L298.367875,96.3072458 C297.686818,94.7968393 298.359139,93.0203074 299.869545,92.3392506 Z" id="Path-6" fill="#090E2B" fill-rule="nonzero"/>
                        <path d="M589.575739,282.556489 C750.420208,274.363901 760.643075,407.886816 739.778496,462.864438 C715.162837,527.72606 641.307604,570.960237 582.304218,596.642758 C443.495397,657.062349 408.155852,757 408.155852,757 L286.620701,757 C286.620701,757 309.812449,296.806189 589.575739,282.556489 Z" id="Stroke-12" fill="#FFB201"/>
                        <path d="M613.533995,384.77167 C615.068698,384.147289 616.818982,384.88525 617.443363,386.419953 C618.067745,387.954656 617.329784,389.70494 615.795081,390.329322 C475.369379,447.460406 387.980539,569.583887 353.571426,757.085934 C353.272365,758.715574 351.708844,759.794222 350.079203,759.495162 C348.449563,759.196101 347.370914,757.63258 347.669975,756.002939 C382.426899,566.605602 471.067283,442.733123 613.533995,384.77167 Z" id="Path-3" fill="#090E2B" fill-rule="nonzero"/>
                    </g>
                </g>
            </g>
            <g id="Outdoor Plants" transform="translate(2236.000000, 1090.000000) scale(1 1)">
                <g id="Outdoor Plants/Bush" stroke="none" stroke-width="1" fill="none" fill-rule="evenodd">
                    <g id="Group-16-Copy" transform="translate(98.000000, 689.000000)">
                        <path d="M2.39500229,275.969448 C4.95578,275.610539 7.81571397,276.244612 10.3764917,275.885703 L558,275.885703 C557.748709,255.057012 545.866222,224.872758 527.67752,214.67974 C509.500785,204.498686 485.903338,204.821704 468.013793,215.46934 C476.079046,172.735231 481.918576,128.086941 470.155752,86.2022508 C458.41686,44.3175605 424.971188,5.75876099 381.773022,0.590470148 C341.267263,-4.24283888 301.934196,21.2038153 278.611973,54.6661058 C255.28975,88.1283962 244.831246,128.637268 234.815494,168.165122 C235.952288,149.465959 226.678444,130.479668 211.253946,119.855959 C195.817483,109.23225 174.768847,107.365923 157.704973,115.094432 C138.654702,123.720214 125.982442,142.814177 120.107013,162.889159 C114.24355,182.976104 114.255516,204.223522 114.315347,225.135958 C102.109771,197.476031 66.8212974,182.581304 38.4971814,193.133231 C10.1610992,203.697122 -6.48395591,247.077267 2.39500229,275.969448" id="Fill-1" fill="#F67A49"/>
                        <path d="M118.397008,275.974803 C119.891241,275.760692 121.552828,276.153228 123.047061,275.927223 L442,275.927223 C441.856554,263.85377 434.923314,246.356186 424.344146,240.456253 C413.753025,234.556319 400.018038,234.734745 389.59427,240.920159 C394.292138,216.142818 397.687034,190.247344 390.849426,165.969594 C383.999863,141.691845 364.515068,119.341089 339.352189,116.343542 C315.76722,113.536316 292.863621,128.286149 279.27208,147.686938 C265.692493,167.087727 259.607977,190.556615 253.762539,213.478332 C254.420001,202.641962 249.02881,191.639062 240.039506,185.489334 C231.050202,179.32771 218.785539,178.233367 208.85188,182.717792 C197.758697,187.725599 190.37121,198.787974 186.952406,210.42131 C183.545555,222.066541 183.545555,234.389789 183.581417,246.498926 C176.480823,230.476325 155.92018,221.840536 139.423851,227.966474 C122.915568,234.080518 113.220986,259.226605 118.397008,275.974803" id="Fill-4" fill="#FFB201"/>
                    </g>
                </g>
            </g>
            <g id="Floor" transform="translate(210.875000, 2053.250000)" fill="#090E2B" fill-rule="nonzero">
                <path d="M1220.625,-2.25 C1222.558,-2.25 1224.125,-0.682996624 1224.125,1.25 C1224.125,3.1185634 1222.66072,4.64512645 1220.81704,4.74482114 L1220.625,4.75 L0.625,4.75 C-1.30799662,4.75 -2.875,3.18299662 -2.875,1.25 C-2.875,-0.618563404 -1.4107224,-2.14512645 0.432964797,-2.24482114 L0.625,-2.25 L1220.625,-2.25 Z" id="Path-4-Copy"/>
                <path d="M2755.625,-2.25 C2757.558,-2.25 2759.125,-0.682996624 2759.125,1.25 C2759.125,3.1185634 2757.66072,4.64512645 2755.81704,4.74482114 L2755.625,4.75 L1949.625,4.75 C1947.692,4.75 1946.125,3.18299662 1946.125,1.25 C1946.125,-0.618563404 1947.58928,-2.14512645 1949.43296,-2.24482114 L1949.625,-2.25 L2755.625,-2.25 Z" id="Path-4-Copy-2"/>
            </g>
            <g id="UI Elements" transform="translate(947.000000, 117.000000) scale(1 1)">
                <g id="UI Elements/UI Card 1" stroke="none" stroke-width="1" fill="none" fill-rule="evenodd">
                    <g id="userinterface" transform="translate(1.000000, 17.000000)">
                        <path d="M1072.3832,793.4326 L68.6102,793.4326 C55.8452,793.4326 45.4982,783.0856 45.4982,770.3206 L45.4982,61.6156 C45.4982,48.8506 55.8452,38.5006 68.6102,38.5006 L1072.3832,38.5006 C1085.1482,38.5006 1095.4952,48.8506 1095.4952,61.6156 L1095.4952,770.3206 C1095.4952,783.0856 1085.1482,793.4326 1072.3832,793.4326 Z" id="Stroke-1-Copy" fill="#090E2B"/>
                        <path d="M1029.885,757.932 L26.112,757.932 C13.347,757.932 3,747.585 3,734.82 L3,26.115 C3,13.35 13.347,3 26.112,3 L1029.885,3 C1042.65,3 1052.997,13.35 1052.997,26.115 L1052.997,734.82 C1052.997,747.585 1042.65,757.932 1029.885,757.932 Z" id="Stroke-1" fill="#FFF"/>
                        <path d="M1029.885,4.54747351e-13 L26.112,4.54747351e-13 C11.6905975,4.54747351e-13 0,11.6926939 0,26.115 L0,734.82 C0,749.241854 11.6901458,760.932 26.112,760.932 L1029.885,760.932 C1044.30685,760.932 1055.997,749.241854 1055.997,734.82 L1055.997,26.115 C1055.997,11.6926939 1044.3064,4.54747351e-13 1029.885,4.54747351e-13 Z M26.112,6 L1029.885,6 C1040.99245,6 1049.997,15.0061616 1049.997,26.115 L1049.997,734.82 C1049.997,745.928146 1040.99315,754.932 1029.885,754.932 L26.112,754.932 C15.0038542,754.932 6,745.928146 6,734.82 L6,26.115 C6,15.0061616 15.0045468,6 26.112,6 Z" id="Stroke-1-Copy-2" fill="#090E2B" fill-rule="nonzero"/>
                        <path d="M617.1762,372.0626 L197.7822,372.0626 C160.6212,372.0626 130.4982,341.9396 130.4982,304.7786 C130.4982,267.6236 160.6212,237.5006 197.7822,237.5006 L617.1762,237.5006 C654.3342,237.5006 684.4572,267.6236 684.4572,304.7786 C684.4572,341.9396 654.3342,372.0626 617.1762,372.0626 Z" id="Stroke-5" fill="#FFB201"/>
                        <path d="M854.382,370.2114 L854.382,370.2114 C817.224,370.2114 787.098,340.0884 787.098,302.9274 C787.098,265.7724 817.224,235.6494 854.382,235.6494 C891.54,235.6494 921.663,265.7724 921.663,302.9274 C921.663,340.0884 891.54,370.2114 854.382,370.2114 Z" id="Stroke-7" fill="#C7D2F2"/>
                        <g id="cross" transform="translate(945.572500, 53.129500)" fill="#000" fill-rule="nonzero">
                            <path d="M43.8180195,1.81801948 C45.5753788,0.0606601718 48.4246212,0.0606601718 50.1819805,1.81801948 C51.8844223,3.52046132 51.9376237,6.24760984 50.3415844,8.01409585 L50.1819805,8.18198052 L8.18198052,50.1819805 C6.4246212,51.9393398 3.5753788,51.9393398 1.81801948,50.1819805 C0.11557765,48.4795387 0.062376343,45.7523902 1.65841556,43.9859042 L1.81801948,43.8180195 L43.8180195,1.81801948 Z" id="Stroke-9"/>
                            <path d="M1.81801948,1.81801948 C3.52046132,0.11557765 6.24760984,0.062376343 8.01409585,1.65841556 L8.18198052,1.81801948 L50.1819805,43.8180195 C51.9393398,45.5753788 51.9393398,48.4246212 50.1819805,50.1819805 C48.4795387,51.8844223 45.7523902,51.9376237 43.9859042,50.3415844 L43.8180195,50.1819805 L1.81801948,8.18198052 C0.0606601718,6.4246212 0.0606601718,3.5753788 1.81801948,1.81801948 Z" id="Stroke-11"/>
                        </g>
                        <path d="M727.2462,457.5006 C737.187325,457.5006 745.2462,465.559475 745.2462,475.5006 C745.2462,485.331269 737.365417,493.321282 727.576865,493.497624 L727.2462,493.5006 L148.4982,493.5006 C138.557075,493.5006 130.4982,485.441725 130.4982,475.5006 C130.4982,465.669931 138.378983,457.679918 148.167535,457.503576 L148.4982,457.5006 L727.2462,457.5006 Z" id="Stroke-13" fill="#C7D2F2" fill-rule="nonzero"/>
                        <path d="M479.0502,564.5006 C488.991325,564.5006 497.0502,572.559475 497.0502,582.5006 C497.0502,592.331269 489.169417,600.321282 479.380865,600.497624 L479.0502,600.5006 L148.4982,600.5006 C138.557075,600.5006 130.4982,592.441725 130.4982,582.5006 C130.4982,572.669931 138.378983,564.679918 148.167535,564.503576 L148.4982,564.5006 L479.0502,564.5006 Z" id="Stroke-15" fill="#C7D2F2" fill-rule="nonzero"/>
                    </g>
                </g>
            </g>
            <g id="UI Elements" transform="translate(1368.000000, 581.000000) scale(1 1)">
                <g id="UI Elements/Graph 1" stroke="none" stroke-width="1" fill="none" fill-rule="evenodd">
                    <g id="Interfae-Box-2" transform="translate(74.000000, 54.000000)">
                        <rect id="Rectangle-Copy-5" fill="#090E2B" x="48" y="36" width="903" height="664" rx="64"/>
                        <rect id="Rectangle-Copy" fill="#FFF" x="3" y="3" width="903" height="664" rx="64"/>
                        <path d="M842,0 L67,0 C29.9969218,0 0,29.9969218 0,67 L0,603 C0,640.003078 29.9969218,670 67,670 L842,670 C879.003078,670 909,640.003078 909,603 L909,67 C909,29.9969218 879.003078,0 842,0 Z M67,6 L842,6 C875.68937,6 903,33.3106303 903,67 L903,603 C903,636.68937 875.68937,664 842,664 L67,664 C33.3106303,664 6,636.68937 6,603 L6,67 C6,33.3106303 33.3106303,6 67,6 Z" id="Rectangle-Copy-2" fill="#090E2B" fill-rule="nonzero"/>
                        <path d="M673.652207,196.061892 C725.00645,183.450641 772.647582,240.93242 818.391391,365.938113 C819.53014,369.050011 817.930586,372.495842 814.818687,373.634591 C811.706789,374.77334 808.260958,373.173786 807.122209,370.061887 C763.365428,250.486217 719.224115,197.227172 676.514061,207.715638 C653.029605,213.482802 633.544648,228.317463 615.50167,252.517239 L614.256991,254.199974 C601.505445,271.579633 592.03819,288.909152 573.748724,326.316838 L567.518035,339.080312 C548.883429,377.093389 539.188692,394.511108 525.293009,412.958504 C505.414913,439.34793 483.31028,455.718327 456.236366,461.728764 C436.921829,466.016612 421.1782,458.232532 407.891528,440.305106 L407.489653,439.758748 C397.832146,426.529971 390.901407,411.491459 378.693953,380.142646 L374.912173,370.411723 C363.259876,340.542313 356.421447,325.666408 347.328808,312.632527 C335.853283,296.18289 323.479895,288.462539 308.325917,289.378699 C252.58721,292.748478 192.546484,355.571595 129.337009,478.620265 C127.822868,481.567814 124.205954,482.72982 121.258406,481.21568 C118.310857,479.701539 117.148851,476.084625 118.662991,473.137077 C183.658283,346.611991 246.260115,281.109083 307.601758,277.400569 C327.296605,276.209884 343.195562,285.995214 356.760264,305.18243 L357.170602,305.766737 C366.788118,319.553003 373.7892,334.631431 385.347233,364.145873 L390.576767,377.584411 C401.83789,406.3973 408.399469,420.546673 416.91497,432.316137 L417.181723,432.683171 C427.976656,447.469987 439.337483,453.188184 453.63567,450.013971 C477.606383,444.692448 497.417079,430.02091 515.708027,405.738522 L516.970246,404.049124 C529.761489,386.785973 539.264869,369.500642 557.378277,332.501458 L563.596726,319.761294 C582.202997,281.752737 591.841212,264.2714 605.445769,245.930132 L605.881319,245.344454 C625.460147,219.084752 647.152481,202.569527 673.652207,196.061892 Z" id="Path-9" fill="#FFB201" fill-rule="nonzero"/>
                        <path d="M781.460434,208.362654 C782.299015,205.156808 785.577671,203.237761 788.783517,204.076343 C791.989362,204.914924 793.908409,208.19358 793.069828,211.399425 C755.865734,353.628422 708.054876,420.407249 647.872525,408.893115 C621.818313,403.908403 603.61089,404.829982 590.082856,410.798636 C579.665716,415.394744 572.383618,422.267538 562.160355,435.880495 L560.977924,437.467452 L554.884658,445.787282 C552.262038,449.355987 550.157275,452.139191 548.000044,454.856711 C539.000894,466.193172 530.125211,474.884446 519.015099,482.393565 C505.576907,491.476191 489.491953,498.227654 469.678748,502.626207 C451.420806,506.679489 435.763656,504.612783 421.299351,497.082719 C410.531188,491.476854 401.982197,484.235402 388.562743,470.523341 L382.286237,464.054711 C368.761913,450.109913 360.925256,443.124612 351.081975,437.229012 C338.568307,429.733993 325.246953,426.295033 309.42584,427.251526 C252.303605,430.704948 191.765128,458.910248 127.837444,512.097337 C125.290099,514.216699 121.506985,513.86975 119.387623,511.322404 C117.268261,508.775059 117.61521,504.991945 120.162556,502.872583 C185.906203,448.174633 248.743567,418.898266 308.701682,415.273396 C326.993171,414.167553 342.704286,418.223439 357.247948,426.934316 L358.226563,427.527077 C368.434553,433.780557 376.591104,441.017491 389.642393,454.406395 L395.931778,460.892513 L397.090755,462.080669 C409.692154,474.959181 417.495061,481.573475 426.840579,486.438716 C438.803082,492.666351 451.577524,494.352547 467.078052,490.911413 C485.453067,486.832141 500.138365,480.668166 512.295405,472.451447 C522.283653,465.700574 530.308857,457.84211 538.601368,447.39582 L539.687047,446.016317 C541.139122,444.155487 542.625291,442.18832 544.33855,439.870419 L551.136781,430.593726 L551.570699,430.00654 C563.436279,414.012575 572.147381,405.595804 585.238899,399.819743 C601.276933,392.743662 621.872845,391.701188 650.127475,397.106885 C701.367982,406.910259 745.733878,344.943112 781.460434,208.362654 Z" id="Path-9-Copy" fill="#009BA0" fill-rule="nonzero"/>
                        <circle id="Oval" fill="#FF0057" cx="689.5" cy="200.5" r="25.5"/>
                        <rect id="Rectangle" fill="#C7D2F2" fill-rule="nonzero" x="93" y="546" width="709" height="2"/>
                    </g>
                </g>
            </g>
        </g>
        <g transform="translate(409.000000, 557.000000) scale(1 1)" id="Master/Character/Sitting">
            <g id="Master/Character/Sitting" stroke="none" stroke-width="1" fill="none" fill-rule="evenodd">
                <g id="Sitting" transform="translate(179.000000, 940.000000) scale(1 1)">
                    <g id="Sitting/On Chair 1" stroke="none" stroke-width="1" fill="none" fill-rule="evenodd">
                        <path d="M410.615323,399.49997 C410.615323,399.49997 400.357969,471.949685 396.171539,502.905682 C391.949971,534.125643 467.0487,503.736716 467.0487,503.736716 C467.0487,503.736716 453.509565,484.44329 453.304761,479.157997 C453.100961,473.870697 476.218696,412 476.218696,412 L410.615323,399.49997 Z" id="Fill-3" fill="#b75858"/>
                        <path d="M561.035706,7.46069873e-14 C597.897949,16.8477074 635.153618,59.3884812 602.589029,139.128809 C570.024441,218.869137 493.394303,411.87247 481.349448,420.555326 C469.305594,429.239182 405.784608,412 405.784608,412 C405.784608,412 412.732597,330.944505 426.534884,251.242608 C436.641716,192.880271 457.952435,150.325862 457.952435,150.325862 C457.952435,150.325862 286.540837,174.784268 243.98254,146.076381 C188.124727,108.397247 229.480836,6.86053872 261.586066,-5.71064401 C302.858588,-21.8713886 490.854841,-32.0758202 561.035706,7.46069873e-14 Z" id="Fill-5" fill="#090E2B"/>
                        <path d="M559.105053,537.550495 C553.718837,520.869499 514.662001,509.852921 486.4598,501.514412 C476.966506,498.70607 463.702961,484.835405 457.545853,485.001479 C448.581857,485.24512 457.367415,503.898122 427.362791,502.274176 C419.4193,501.844571 418.851908,493.484184 401.591555,491.580796 C398.786673,491.272515 394.499152,490.727553 390.796066,497.394383 C388.732001,501.110663 380.282268,534.66359 388.577622,548.345309 C446.664152,549.845942 506.41276,548.363209 558.020392,547.881892 C563.059757,547.834159 560.482433,541.818697 559.105053,537.550495" id="Fill-17" fill="#FF0057"/>
                        <path d="M654.970564,412 C654.970564,412 665.530533,466.509706 672.596211,475.377601 C679.662889,484.243493 716.32892,494.221378 717.974942,499.698195 C719.618961,505.175012 639.820958,518 639.820958,518 L591,416.698422 L654.970564,412 Z" id="Fill-1" fill="#b75858"/>
                        <path d="M790.105053,534.5497 C784.718837,517.869641 745.662001,506.853025 717.4598,498.513492 C707.966506,495.706135 694.702961,481.834427 688.545853,482.001496 C679.581857,482.244144 688.367415,500.898205 658.362791,499.274253 C650.420302,498.844647 649.85291,490.483237 632.591555,488.580837 C629.786673,488.27156 625.499152,487.727591 621.796066,494.393449 C619.732001,498.109742 611.282268,531.662786 619.577622,545.345546 C677.664152,546.846185 737.41276,545.362452 789.020392,544.881134 C794.059757,544.8334 791.482433,538.817918 790.105053,534.5497" id="Fill-10" fill="#FF0057"/>
                        <path d="M722.704751,510.429527 C726.392384,503.004274 728.005104,501.713139 726.433049,500.543939 C722.673012,497.748284 703.571309,506.385021 702.069675,511.523009 C700.944937,515.373796 713.664197,504.228541 723.820563,502.565701 C719.658833,506.366337 715.778784,518.019983 719.874061,515.696334 C739.826756,504.381943 742.973841,507.006496 742.998637,506.585624 C743.116665,504.585496 735.565843,502.966906 722.704751,510.429527" id="Fill-15" fill="#FFB201"/>
                        <path d="M180.126096,77 C192.090433,138.955221 247.290014,161.21191 295.189049,159.361921 C368.355288,156.536045 442.938988,124.042498 468.151215,113.183029 C465.930109,129.164147 477.804596,220.024734 497.628146,262.074146 C517.451696,304.123559 582.008895,430.623213 582.008895,430.623213 C582.008895,430.623213 654.850327,431.050084 657.965073,413.369038 C660.014248,401.737852 591.630112,76.8494703 569.008895,20.5961921 C556.018259,-11.7082512 513.975789,-25.6487365 427.5,-33 C340.646127,-40.3834042 214.030282,-26.7715765 214.030282,-26.7715765 C214.030282,-26.7715765 168.16176,15.0447792 180.126096,77 Z" id="Fill-7" fill="#001386"/>
                        <path d="M491.704751,514.429893 C495.392384,507.004835 497.005104,505.713735 495.432058,504.543583 C491.67202,501.748984 472.571309,510.385493 471.069675,515.522362 C469.944937,519.373048 482.664197,508.228087 492.820563,506.566274 C488.658833,510.36681 484.777792,522.019165 488.874061,519.69656 C508.826756,508.381485 511.973841,511.005969 511.998637,510.585107 C512.116665,508.585032 504.565843,506.966486 491.704751,514.429893" id="Fill-22" fill="#FFB201"/>
                        <path d="M546.8316,554.3915 L407.0166,556.8575 C397.6626,557.2315 383.6706,554.0145 382.3176,546.2435 C381.3066,540.4375 383.5546,527.7955 384.0206,526.9545 C387.2776,521.0945 415.0326,526.0385 423.1176,545.8275 C474.1316,549.6495 561.0086,545.9125 561.0086,545.9125 C561.0086,545.9125 562.3126,553.5935 546.8316,554.3915" id="Fill-19" fill="#090E2B"/>
                        <path d="M777.7223,550.7851 L637.9073,553.2511 C628.5543,553.6251 614.5613,550.4091 613.2083,542.6381 C612.1983,536.8321 614.4453,524.1901 614.9123,523.3491 C618.1683,517.4891 645.9233,522.4331 654.0083,542.2221 C705.0223,546.0441 791.9003,542.3071 791.9003,542.3071 C791.9003,542.3071 793.2033,549.9881 777.7223,550.7851" id="Fill-12" fill="#090E2B"/>
                    </g>
                </g>
                <g id="Upper Body/Sitting" transform="translate(243.000000, 170.000000) scale(1 1.0010526315789474)">
                    <g id="Upper Body/Sitting/With Laptop 1" stroke="none" stroke-width="1" fill="none" fill-rule="evenodd">
                        <path d="M286,448 C299.897744,455.921341 321.104762,472.380594 333.718296,510.851246 C344.319799,543.182208 368.570426,589.863468 369.354386,594.556818 C381.885714,599.248165 432,624.250335 432,624.250335 C432,624.250335 397.462657,680 394.617544,680 C391.772431,680 374.926316,679.132196 358.611529,677.849007 C305.347368,673.659124 302.614536,637.159298 299.972932,622.270501 C291.423559,574.087849 289.988972,453.178799 286,448" id="Fill-1" fill="#FF00A4"/>
                        <path d="M203.679151,373 C203.679151,373 215.229331,430.303881 207.463916,436.256492 C203.587205,439.227797 187,443.605246 187,443.605246 C187,443.605246 227.844881,476.129585 252.813137,476.96667 C277.781394,477.804756 294.465542,462.609197 291.701174,457.100632 C287.563617,448.857786 258.31289,441.49803 257.220535,434.162277 C255.97527,425.794418 256.520948,389.17366 256.520948,389.17366 L203.679151,373 Z" id="Fill-3" fill="#b75858"/>
                        <path d="M126.184505,468.342476 C125.002186,478.894299 113.435856,610.158935 129.05485,629.825107 C147.759064,653.375262 120.261982,728.82987 108.359845,748.03657 C87.6537852,781.449841 64.3166863,841.502534 140.313976,792.467721 C209.312108,747.948891 301.722567,743.108946 319.78994,737.774737 C325.932837,735.961109 321.713595,730.27781 321.315178,726.364029 C316.679522,680.826473 327.909685,585.790688 328,553.731805 C328.055934,533.118896 305.179977,458.994379 287.180983,448.377871 C283.594436,446.262385 265.900876,438.7287 265.900876,441.674123 C265.900876,456.143958 264.742502,476.667028 257.86395,476.667028 C240.342037,476.667028 195.013598,444.859031 187.990864,441.674123 C171.889149,444.931464 127.535726,456.296121 126.184505,468.342476 Z" id="Fill-8" fill="#FF00A4"/>
                        <path d="M306.704585,490.534972 C316.374503,509.14719 326.773513,528.760225 327.723884,549.893504 C328.925103,576.556303 325.874129,607.021211 324.942113,633.743058 C324.666791,640.721764 324.410844,647.704473 324.396568,654.681177 C324.408804,655.087509 323.712342,655.122538 323.71744,654.687182 C323.051569,622.181606 327.107979,582.533189 325.629398,549.983577 C324.683106,529.178567 314.437052,509.034097 306.020359,490.084604 C305.874541,489.817386 306.554688,490.242733 306.704585,490.534972" id="Fill-13" fill="#090E2B"/>
                        <g id="macbook" transform="translate(272.000000, 506.000000)">
                            <path d="M128.369769,133.885873 L8.73676899,144.014873 C6.69576899,144.183873 0.282768988,146.862873 0.061768988,148.897873 C0.061768988,148.897873 -0.885231012,154.143873 4.63676899,154.143873 L128.369769,154.143873 L128.369769,133.885873 Z" id="Fill-15" fill="#FFF"/>
                            <path d="M291.427369,154.143673 L104.125369,154.143673 L155.804369,16.8866731 C158.941369,9.13767308 165.583369,1.39167308 176.064369,1.39167308 L332.657369,1.50967308 C349.488369,1.38767308 351.600369,7.63367308 347.981369,17.4746731 C337.556369,45.8156731 310.743369,125.167673 301.525369,147.401673 C299.831369,151.484673 295.848369,154.143673 291.427369,154.143673" id="Fill-17" fill="#FFF"/>
                            <path d="M331.825869,0.472773078 C288.588869,0.368773078 228.596869,0.280773078 185.250869,0.171773078 C170.143869,-0.767226922 160.767869,1.79077308 154.508869,16.7147731 C140.546869,53.9127731 124.393869,97.3387731 110.856869,134.831773 L14.822869,143.498773 C23.939869,142.767773 111.379869,136.466773 111.634869,135.662773 C127.012869,97.3197731 143.173869,52.3277731 158.530869,14.1057731 C164.816869,2.51877308 173.500869,2.15277308 185.250869,2.62477308 L217.823869,2.60777308 C239.133869,2.71277308 294.971869,2.40477308 315.545869,2.55477308 C322.945869,3.41577308 346.266869,-0.690226922 348.296869,8.78777308 C348.671869,17.7947731 343.153869,26.7887731 340.525869,35.4077731 C338.150869,43.1977731 329.799869,66.1667731 329.799869,66.1667731 C321.256869,90.2607731 311.655869,119.224773 302.571869,142.877773 C299.154869,153.682773 294.621869,153.788773 284.461869,153.531773 C279.322869,153.570773 265.939869,154.131773 260.653869,154.177773 C260.017869,154.186773 259.380869,154.620773 260.031869,154.638773 C269.386869,154.517773 283.454869,155.017773 292.670869,154.716773 C298.834869,154.369773 302.237869,148.676773 303.891869,143.396773 C313.711869,118.074773 322.541869,92.3867731 331.558869,66.7807731 C335.051869,56.1947731 343.917869,30.7067731 347.853869,20.7337731 C354.162869,4.75377308 346.736869,-0.0142269223 331.825869,0.472773078" id="Fill-19" fill="#090E2B"/>
                        </g>
                        <path d="M258.796,651.4745 C258.431,651.5035 258.215,651.5225 258.204,651.5255 L258.796,651.4745 Z" id="Fill-21" fill="#000"/>
                        <path d="M471,659.77464 L504.34249,659.77464 C516.166804,659.993091 509.981102,635.808751 522.899595,638.161144 C533.929232,640.168668 533.431062,646.637243 532.285968,659.679573 C534.51925,656.887244 538.763185,655.96793 540.215766,656.916573 C542.293307,658.273801 539.968178,658.675306 536.461017,664.296372 C532.405769,670.794276 520.878959,676.87146 507.139833,678.026418 C503.004717,678.37331 479.248268,682 479.248268,682 L471,659.77464 Z" id="Fill-23" fill="#b75858"/>
                        <path d="M276.484788,647.782529 C276.484788,647.782529 285.751639,641.180324 293.699971,642.113704 C304.303446,643.356531 305.148265,638.574721 307.859729,642.742678 C308.45613,643.657915 306.585461,646.596148 301.674452,647.687779 C295.045646,649.160424 297.823489,653.249759 297.823489,653.249759 C297.823489,653.249759 320.845793,658.740173 324.083257,659.318748 C325.871455,659.638274 326.353203,664.726508 312.835105,668.738229 C305.78389,670.830776 295.70742,670.886214 283.829678,671.28537 C280.525835,671.398263 242.530133,683 242.530133,683 L240.187774,664.067295 L239,644.393733 L276.484788,647.782529 Z" id="Fill-25" fill="#b75858"/>
                        <path d="M395,680.024576 C395,680.024576 490.408936,683.88086 496.352355,682.813133 C502.294776,681.745407 490.25232,660 490.25232,660 L404.045808,660 L395,680.024576 Z" id="Fill-27" fill="#FF00A4"/>
                        <g id="blush" transform="translate(471.000000, 571.000000)">
                            <path d="M35.1719616,15.0154 L35.1569616,15.0154 C30.8929616,15.0154 29.0199616,13.2234 28.2829616,12.1544 C27.7349616,11.3584 27.9349616,10.2684 28.7309616,9.7204 C29.5259616,9.1714 30.6169616,9.3734 31.1639616,10.1674 C31.7549616,11.0244 33.2109616,11.5154 35.1579616,11.5154 L35.1709616,11.5154 C38.1609616,11.5154 40.2469616,10.3894 41.2259616,9.7184 C42.0239616,9.1694 43.1119616,9.3744 43.6579616,10.1704 C44.2049616,10.9674 44.0029616,12.0564 43.2059616,12.6034 C40.9419616,14.1594 38.0879616,15.0154 35.1719616,15.0154" id="Fill-29" fill="#090E2B"/>
                            <path d="M23.1172616,17.7987 C20.7432616,23.9947 13.8222616,29.0177 7.66026163,29.0177 C1.49826163,29.0177 -1.57173837,23.9947 0.803261628,17.7987 C3.17726163,11.6037 10.0972616,6.5807 16.2602616,6.5807 C22.4222616,6.5807 25.4922616,11.6037 23.1172616,17.7987" id="Fill-31" fill="#FF00A4"/>
                            <path d="M66.9864616,17.7987 C64.6114616,23.9947 57.6904616,29.0177 51.5284616,29.0177 C45.3664616,29.0177 42.2964616,23.9947 44.6714616,17.7987 C47.0464616,11.6037 53.9654616,6.5807 60.1284616,6.5807 C66.2914616,6.5807 69.3614616,11.6037 66.9864616,17.7987" id="Fill-33" fill="#FF00A4"/>
                            <path d="M26.9229616,2.951 C26.2979616,4.582 24.4769616,5.903 22.8559616,5.903 C21.2339616,5.903 20.4259616,4.582 21.0509616,2.951 C21.6759616,1.321 23.4969616,1.27897692e-13 25.1179616,1.27897692e-13 C26.7389616,1.27897692e-13 27.5479616,1.321 26.9229616,2.951" id="Fill-35" fill="#090E2B"/>
                            <path d="M57.8731616,2.951 C57.2481616,4.582 55.4271616,5.903 53.8061616,5.903 C52.1841616,5.903 51.3761616,4.582 52.0011616,2.951 C52.6261616,1.321 54.4461616,1.27897692e-13 56.0681616,1.27897692e-13 C57.6891616,1.27897692e-13 58.4971616,1.321 57.8731616,2.951" id="Fill-37" fill="#090E2B"/>
                        </g>
                        <path d="M187.019737,561.172044 C178.530191,583.552303 131.3747,633.528851 131.3747,633.528851 C131.3747,633.528851 241.683867,644.975335 257.978722,644.973336 C258.357301,650.702075 253.558644,694.183321 253.558644,694.183321 C205.5531,700.984449 53.1528019,720.653251 41.0842405,680.373183 C15.9392402,596.451959 114.605373,481.936153 127.273267,466.450969 C145.017508,444.759318 198.374094,531.239085 187.019737,561.172044" id="Fill-39" fill="#FF00A4"/>
                        <path d="M257.714312,644.434477 C215.358945,642.422509 176.7689,635.397047 134.316447,631.664801 C149.269639,615.654672 163.80246,599.172661 176.277466,581.150564 C180.554239,574.793103 184.437665,568.47845 186.982911,561.201119 C187.06098,560.96916 187.670517,559.083625 187.438313,559 C177.526568,579.201314 161.244203,598.575343 145.831606,615.385879 C140.65604,620.973794 135.381386,626.497 130.005644,631.864903 C129.11686,632.701149 127.893781,634.197432 130.974499,634.402511 C163.524215,636.572769 196.11797,640.632544 228.597624,643.661945 C239.483228,644.455383 245.18726,644.960117 256.13592,645 C257.896473,645.006907 258.378898,644.418548 257.714312,644.434477" id="Fill-42" fill="#090E2B"/>
                        <path d="M254.944007,679 C254.4264,679 250.564855,694.198599 249.376799,694.362446 C209.234389,699.898561 166.001241,705.665023 125.323956,704.408293 C124.561077,704.330685 125.277147,705.059999 126.113724,705.141586 C155.990477,708.395141 220.893909,701.486064 230.655965,699.595619 C248.854502,696.071433 250.413547,696.344934 251.194352,695.113161 C254.039194,684.371054 255.289079,679 254.944007,679 Z" id="Fill-44" fill="#090E2B"/>
                    </g>
                </g>
                <g id="Head" transform="translate(341.000000, 346.000000) scale(1 1)">
                    <g id="Head/Afro" stroke="none" stroke-width="1" fill="none" fill-rule="evenodd">
                        <path d="M231.6313,151.3019 C236.4543,169.0359 245.8113,200.7169 229.2603,232.6039 C218.0793,254.1449 198.8703,266.8079 180.7813,266.8079 C172.0283,266.8079 143.6393,257.6409 128.9153,246.5709 C111.3193,233.3429 100.9123,219.1829 100.882902,185.5669 C100.8523,150.3759 106.1943,130.0149 125.5053,112.3559 C149.7133,90.2149 222.6933,88.2139 228.7473,116.0439 C228.7473,116.0439 226.8073,133.5669 231.6313,151.3019 Z" id="Fill-1" fill="#b75858"/>
                        <path d="M186.1612,279.8005 C198.3292,282.114043 206.1462,278.402877 210.7822,275.450615 C216.0322,283.751065 242.8552,283.10653 247.3622,258.387393 C265.5082,256.621463 289.3372,245.942532 281.1322,217.989088 C295.6742,218.876899 295.9942,198.910845 290.1182,187.541825 C308.544499,181.777839 310.8892,155.008788 298.1052,142.314837 C308.4822,138.444718 315.1702,119.439167 298.1052,93.7440189 C307.2022,73.4891359 298.1052,59.3432839 287.4802,60.1080031 C288.7652,53.7857425 292.1022,48.3571082 273.8482,46.3905489 C276.5522,29.3544651 269.7432,7.14465354 240.1832,11.9626755 C236.8022,-7.69516429 218.6722,-16.6721346 205.7152,-6.12307987 C194.8972,-24.4705262 161.9962,-24.1371125 153.9452,-3.70873814 C135.2502,-22.8567651 104.9412,-4.71867154 97.5042,12.9735781 C86.5952,-1.53282599 61.1512,-2.25877619 46.2312,30.9575648 C14.3742,29.0016669 -4.8638,42.2238467 2.0722,67.0999988 C-15.3448,69.76537 -33.7798,91.4246613 -15.6978,120.428746 C-25.4898,121.92717 -32.7808,150.208212 -15.9448,153.458996 C-26.1028,160.900713 -24.4868,192.889044 3.2312,194.199438 C-11.0198,199.998316 -11.6418,228.927771 8.6402,233.515117 C3.6952,259.12885 27.2562,267.22964 41.7672,259.069728 C43.7722,281.317339 79.0096927,284.841214 89.4597564,270.390539 C106.654181,276.448135 118.476574,269.409587 121.0792,263.008264 C129.20875,243.013122 118.388956,236.640352 118.388956,236.640352 C125.758956,226.622434 115.4722,207.799198 104.3832,202.760193 C94.4182,198.231 100.8272,178.346779 104.3832,167.200681 C115.5572,171.092123 117.2932,186.284739 121.0792,175.379009 C124.8652,164.473279 123.2632,157.14787 123.2632,157.14787 C131.6472,146.804291 148.1822,151.292776 147.4732,130.633726 C155.2782,136.168975 167.2712,133.585988 169.1942,124.516941 C180.4912,138.343918 195.3552,133.394081 198.3292,126.254763 C200.9172,134.937089 213.4532,138.330349 226.9512,133.000576 C225.3782,143.659153 229.2602,153.740072 235.0712,176.986955 C237.246848,185.690628 243.85663,217.989088 219.038702,248.090856 C205.341331,264.704455 186.0242,270.901068 160.9592,262.426157 C160.9592,262.426157 164.3122,275.642521 186.1612,279.8005 Z" id="Fill-3" fill="#090E2B"/>
                        <path d="M116.452939,175.434825 C115.032939,169.438825 102.362688,156.78726 90.0576876,163.71926 C82.3906876,168.03826 78.9723375,177.245694 83.2974894,187.750725 C87.6226412,198.255755 104.109131,208.330523 113.652528,202.276629 C123.195925,196.222734 117.872939,181.430825 116.452939,175.434825 Z" id="Fill-6" fill="#b75858"/>
                        <path d="M130.844,247.7548 C140.999,254.0438 151.196,257.8948 161.161,261.4238 C162.281,261.8198 161.214,262.5198 160.041,262.4468 C149.714,261.8138 137.573,254.1728 135.002,252.4118 C129.728,248.8018 127.379,245.6088 130.844,247.7548" id="Fill-8" fill="#090E2B"/>
                        <path d="M101.208529,172.634366 C99.3520604,171.272846 97.8524659,170.341859 96.7694659,170.090859 C94.5974659,169.586859 97.4586652,171.219339 99.9656652,174.002339 C101.456665,175.656339 102.967823,177.818816 104.093252,179.919728 C101.461252,181.164728 97.9904659,185.086859 99.1164659,190.593859 C99.9684659,191.423859 99.9880991,188.631411 100.886466,186.891859 C102.46178,183.8415 104.331794,183.400754 105.551466,182.998859 C106.379466,184.813859 107.097466,186.970859 107.634466,189.656859 C107.744466,190.207859 108.895378,191.512406 109.283315,189.390222 C109.595315,183.288222 106.240982,176.32513 101.208529,172.634366 Z" id="Fill-10" fill="#090E2B" transform="translate(102.651692, 180.372220) rotate(-3.000000) translate(-102.651692, -180.372220)"/>
                    </g>
                </g>
                <g id="Expressions" transform="translate(462.000000, 479.000000) scale(1 1)">
                    <g id="Expressions/Calm 1" stroke="none" stroke-width="1" fill="none" fill-rule="evenodd">
                        <g id="eye1" transform="translate(42.527098, 33.213671) rotate(-4.000000) translate(-42.527098, -33.213671) translate(21.027098, 13.213671)">
                            <path d="M0.0487023333,7.96572872 C1.82485498,-0.0171869856 25.1977023,-2.81531309 35.4827023,3.36568691 C39.0387023,5.47868691 45.6427023,11.2837287 39.7957023,14.4437287 C38.2517023,15.1157287 36.7517023,14.4267287 35.4827023,13.6077287 C21.4647023,3.86572872 -1.18942441,13.5304877 0.0487023333,7.96572872 Z" id="Fill-1" fill="#090E2B"/>
                            <path d="M19.0113023,22.3973287 C13.7233023,23.8973287 9.19030233,28.1473287 8.76930233,31.6693287 C8.51430233,33.7973287 16.8643023,38.9063287 24.9173023,39.3033287 C35.5113023,39.8243287 40.8513023,34.0853287 40.8324531,32.2513287 C40.1193023,26.7013287 33.7283023,18.2233287 19.0113023,22.3973287 Z" id="Fill-6" fill="#FFF"/>
                            <path d="M35.3981023,25.5550287 C27.2551023,19.4010287 14.6431023,23.4110287 8.76910233,31.6690287 C8.43210233,32.0970287 8.52910233,31.0200287 8.76310233,30.5290287 C11.5971023,24.5820287 16.7101023,21.7750287 22.6381023,20.5510287 C26.2051023,19.8140287 29.5311023,19.7540287 33.0101023,21.3120287 C34.3551023,21.9130287 36.7311023,23.7450287 38.5671023,25.8170287 C39.9991023,27.4320287 41.2051023,30.2010287 39.5481023,29.2220287 C38.2511023,28.4550287 36.4781023,26.3720287 35.3981023,25.5550287 Z" id="Fill-8" fill="#090E2B"/>
                            <path d="M24.8135023,36.0623287 C29.3405023,36.0623287 33.0105023,32.7143287 33.0105023,28.5833287 C33.0105023,24.4533287 29.3405023,21.1043287 24.8135023,21.1043287 C20.2865023,21.1043287 16.6165023,24.4533287 16.6165023,28.5833287 C16.6165023,32.7143287 20.2865023,36.0623287 24.8135023,36.0623287 Z" id="Fill-10" fill="#090E2B"/>
                        </g>
                        <g id="eye2" transform="translate(81.203378, 15.000183)">
                            <path d="M23.2557812,1.861246 C26.6096324,3.34897691 31.0744206,8.28711729 27.357522,8.28711729 C23.6406234,8.28711729 15.5900245,7.23270759 10.1930245,9.45970759 C8.30802454,9.94170759 6.87752199,10.8641173 4.98452199,11.0891173 C0.67652199,11.9281173 -1.66408888,6.76839233 1.38185604,3.64904337 C4.82290212,0.125071736 16.4397812,-1.545754 23.2557812,1.861246 Z" id="Fill-4" fill="#090E2B"/>
                            <path d="M19.455322,34.2343173 C24.826322,32.9853173 28.843322,28.1153173 28.389322,24.4763173 C27.503322,19.6543173 18.218322,16.5753173 13.017322,19.2083173 C7.86632199,21.8153173 4.64332199,27.6403173 5.05932199,29.9403173 C5.66032199,31.5323173 13.966322,35.5113173 19.455322,34.2343173 Z" id="Fill-12" fill="#FFF"/>
                            <path d="M15.011222,31.6060173 C18.549222,31.6060173 21.417222,28.8520173 21.417222,25.4560173 C21.417222,22.0590173 19.396222,18.8490173 15.011222,19.3060173 C11.492222,19.6720173 8.60422199,22.0590173 8.60422199,25.4560173 C8.60422199,28.8520173 11.473222,31.6060173 15.011222,31.6060173 Z" id="Fill-14" fill="#090E2B"/>
                            <path d="M5.25072199,26.6376173 C7.27972199,19.0636173 16.440722,15.1686173 23.685722,18.7546173 C24.705722,19.2866173 26.361722,20.4806173 27.601722,21.9226173 C28.742722,23.2526173 28.593722,23.9496173 28.127722,23.8116173 C27.355722,23.5816173 25.722722,22.1166173 24.395722,21.4866173 C17.685722,18.3036173 10.704722,20.0896173 5.59372199,27.5586173 C5.34272199,27.9456173 5.10472199,27.0746173 5.25072199,26.6376173" id="Fill-22" fill="#090E2B"/>
                        </g>
                        <path d="M85.9879908,71.3386563 C85.0131141,76.2575144 78.9689699,76.7359636 75.0323155,75.6212963 C71.832522,74.7152719 71.0034674,72.851321 72.0853454,72.2537752 C73.8485675,71.2799076 79.4997296,73.9889887 81.5858367,71.4027854 C85.305606,66.7912866 73.8914605,49.8346319 77.5177277,52.5592059 C82.3102149,56.1600121 86.6386051,68.0559034 85.9879908,71.3386563 Z" id="nose" fill="#090E2B"/>
                        <g id="lips" transform="translate(57.561158, 83.472328)" fill="#090E2B">
                            <path d="M24.6314423,10.2352717 C21.1964423,11.9522717 16.3084423,13.7232717 10.6794423,12.9182717 C5.05144233,12.1142717 2.01844233,8.81927172 0.786442327,6.40327172 C-1.32255767,2.27127172 1.13144233,-0.833728284 4.34844233,0.200271716 C7.56344233,1.23527172 9.40744233,5.68627172 12.5654423,6.45927172 C16.4424423,7.40827172 22.8454423,4.43627172 26.5024423,3.47827172 C30.3364423,2.47327172 36.6974423,2.09918012 36.6974423,8.52727172 C36.6974423,12.1251305 34.5597106,11.3954112 32.84831,9.25710631 C31.1369095,7.11880144 28.0664423,8.51727172 24.6314423,10.2352717 Z" id="Fill-18"/>
                            <path d="M22.8970423,17.2262717 C18.4760423,16.5892717 14.2940423,17.1472717 14.5340423,20.0932717 C14.7730423,23.0402717 22.3760423,25.5572717 25.7640423,21.0492717 C26.4820423,20.0942717 27.3170423,17.8632717 22.8970423,17.2262717 Z" id="Fill-20"/>
                        </g>
                    </g>
                </g>
                <g id="Facial Accesories" transform="translate(459.000000, 529.000000) scale(1 1)" fill="#000">
                    <g id="Facial Accesories/None" stroke="none" stroke-width="1" fill="none" fill-rule="evenodd" fill-opacity="0"/>
                </g>
                <g id="Glass" transform="translate(462.000000, 484.000000) scale(1 1)" fill="#000">
                    <g id="Glass/None" stroke="none" stroke-width="1" fill="none" fill-rule="evenodd" fill-opacity="0"/>
                </g>
            </g>
        </g>
    </g>
</svg>
