<svg viewBox="-10.263 154.275 2052.525 1902.725" xmlns="http://www.w3.org/2000/svg" overflow="visible">
    <g id="Master/Spot Ilustrations/UI Windows" stroke="none" stroke-width="1" fill="none" fill-rule="evenodd">
        <g id="Outdoor Plants" transform="translate(1183.000000, 1085.000000) scale(1 1)">
            <g id="Outdoor Plants/Bush" stroke="none" stroke-width="1" fill="none" fill-rule="evenodd">
                <g id="Group-16-Copy" transform="translate(98.000000, 689.000000)">
                    <path d="M2.39500229,275.969448 C4.95578,275.610539 7.81571397,276.244612 10.3764917,275.885703 L558,275.885703 C557.748709,255.057012 545.866222,224.872758 527.67752,214.67974 C509.500785,204.498686 485.903338,204.821704 468.013793,215.46934 C476.079046,172.735231 481.918576,128.086941 470.155752,86.2022508 C458.41686,44.3175605 424.971188,5.75876099 381.773022,0.590470148 C341.267263,-4.24283888 301.934196,21.2038153 278.611973,54.6661058 C255.28975,88.1283962 244.831246,128.637268 234.815494,168.165122 C235.952288,149.465959 226.678444,130.479668 211.253946,119.855959 C195.817483,109.23225 174.768847,107.365923 157.704973,115.094432 C138.654702,123.720214 125.982442,142.814177 120.107013,162.889159 C114.24355,182.976104 114.255516,204.223522 114.315347,225.135958 C102.109771,197.476031 66.8212974,182.581304 38.4971814,193.133231 C10.1610992,203.697122 -6.48395591,247.077267 2.39500229,275.969448" id="Fill-1" fill="#F67A49"/>
                    <path d="M118.397008,275.974803 C119.891241,275.760692 121.552828,276.153228 123.047061,275.927223 L442,275.927223 C441.856554,263.85377 434.923314,246.356186 424.344146,240.456253 C413.753025,234.556319 400.018038,234.734745 389.59427,240.920159 C394.292138,216.142818 397.687034,190.247344 390.849426,165.969594 C383.999863,141.691845 364.515068,119.341089 339.352189,116.343542 C315.76722,113.536316 292.863621,128.286149 279.27208,147.686938 C265.692493,167.087727 259.607977,190.556615 253.762539,213.478332 C254.420001,202.641962 249.02881,191.639062 240.039506,185.489334 C231.050202,179.32771 218.785539,178.233367 208.85188,182.717792 C197.758697,187.725599 190.37121,198.787974 186.952406,210.42131 C183.545555,222.066541 183.545555,234.389789 183.581417,246.498926 C176.480823,230.476325 155.92018,221.840536 139.423851,227.966474 C122.915568,234.080518 113.220986,259.226605 118.397008,275.974803" id="Fill-4" fill="#FFB201"/>
                </g>
            </g>
        </g>
        <g id="Chair" transform="translate(76.125000, 1255.000000) scale(1 1)">
            <g id="Chair/Tall Chair 1" stroke="none" stroke-width="1" fill="none" fill-rule="evenodd">
                <g id="Chair" transform="translate(172.000000, 165.000000)">
                    <path d="M277.095317,253.880468 C276.726347,252.021078 275.300483,250.630108 273.593409,250.622411 L273.564156,250.622411 L134.43433,249.99972 L134.422063,249.99972 C132.533807,249.990152 130.823902,251.502075 130.384158,253.737523 L63.9167966,631.630966 C63.6299252,633.095607 64.4046668,634.563547 65.6616168,634.917612 C66.9280033,635.273876 68.2028827,634.367822 68.5095709,632.892185 L137.711648,259.682956 L270.707709,259.088083 L339.488915,632.892185 C339.790885,634.356826 341.051609,635.269478 342.314221,634.928608 C343.584382,634.586639 344.375166,633.111001 344.081689,631.630966 L277.095317,253.880468 Z" id="Fill-4" fill="#090E2B"/>
                    <path d="M228.238174,253.880468 C227.869204,252.021078 226.44334,250.630108 224.736266,250.622411 L224.707013,250.622411 L85.5771874,249.99972 L85.5649198,249.99972 C83.676664,249.990152 81.9667591,251.502075 81.5270153,253.737523 L15.0596538,631.630966 C14.7727823,633.095607 15.547524,634.563547 16.8044739,634.917612 C18.0708604,635.273876 19.3457398,634.367822 19.652428,632.892185 L88.854505,259.682956 L221.850566,259.088083 L290.631772,632.892185 C290.933742,634.356826 292.194467,635.269478 293.457079,634.928608 C294.72724,634.586639 295.518023,633.111001 295.224546,631.630966 L228.238174,253.880468 Z" id="Fill-4-Copy" fill="#090E2B"/>
                    <path d="M50.3075561,41.2196463 C57.2644627,81.4190302 96.4543388,206.924243 117.597957,221.042896 C138.741575,235.160391 262.220185,232.409824 276.704598,233.819837 C291.189012,235.231007 306.881038,245.104572 304.466804,263.44053 C302.05257,281.777645 296.01748,276.135278 253.770861,276.135278 C211.524242,276.135278 112.547581,276.954891 112.547581,276.954891 C112.547581,276.954891 61.2929073,280.665147 40.1958503,220.787056 C20.8740528,165.945883 3.77877187,64.7475273 1.36453784,46.4104117 C-1.04870554,28.0732961 0.695843552,5.58486122 12.6550693,1.0202623 C21.7096853,-2.43531157 43.3506496,1.0202623 50.3075561,41.2196463 Z" id="Fill-1" fill="#F0F1FF"/>
                </g>
            </g>
        </g>
        <g id="Floor" transform="translate(1016.500000, 2051.750000) scale(1, -1) translate(-1016.500000, -2051.750000) translate(0.000000, 2050.250000)" fill="#090E2B" fill-rule="nonzero">
            <path d="M0.625861326,-1.99999989 L1016.50086,-1.74999989 C1018.43386,-1.7495242 1020,-0.182135239 1020,1.75086133 C1020,3.61942467 1018.53489,5.14562732 1016.69118,5.24486829 L1016.49914,5.24999989 L0.624138674,5.00000011 C-1.30885789,4.9995242 -2.875,3.43213524 -2.875,1.49913867 C-2.875,-0.369424673 -1.40988682,-1.89562732 0.433824855,-1.99486829 L0.625861326,-1.99999989 Z" id="Path-4-Copy"/>
            <path d="M2032.5,-2.75 C2034.433,-2.75 2036,-1.18299662 2036,0.75 C2036,2.6185634 2034.53572,4.14512645 2032.69204,4.24482114 L2032.5,4.25 L1339.5,4.25 C1337.567,4.25 1336,2.68299662 1336,0.75 C1336,-1.1185634 1337.46428,-2.64512645 1339.30796,-2.74482114 L1339.5,-2.75 L2032.5,-2.75 Z" id="Path-4-Copy-2"/>
        </g>
        <g id="UI Elements" transform="translate(282.000000, 117.000000) scale(1 1)">
            <g id="UI Elements/Chat" stroke="none" stroke-width="1" fill="none" fill-rule="evenodd">
                <g id="Interface--Box-1" transform="translate(74.000000, 54.000000)">
                    <rect id="Rectangle-Copy-4" fill="#090E2B" x="48" y="36" width="903" height="664" rx="64"/>
                    <rect id="Rectangle" fill="#FFF" x="3" y="3" width="903" height="664" rx="64"/>
                    <path d="M842,0 L67,0 C29.9969218,0 0,29.9969218 0,67 L0,603 C0,640.003078 29.9969218,670 67,670 L842,670 C879.003078,670 909,640.003078 909,603 L909,67 C909,29.9969218 879.003078,0 842,0 Z M67,6 L842,6 C875.68937,6 903,33.3106303 903,67 L903,603 C903,636.68937 875.68937,664 842,664 L67,664 C33.3106303,664 6,636.68937 6,603 L6,67 C6,33.3106303 33.3106303,6 67,6 Z" id="Rectangle-Copy" fill="#090E2B" fill-rule="nonzero"/>
                    <path d="M81.6784,559.808 L800.7568,559.808 C807.384217,559.808 812.7568,554.435417 812.7568,547.808 L812.7568,271.1616 C812.7568,264.534183 807.384217,259.1616 800.7568,259.1616 L81.6784,259.1616 C75.050983,259.1616 69.6784,264.534183 69.6784,271.1616 L69.6784,547.808 C69.6784,554.435417 75.050983,559.808 81.6784,559.808 Z" id="Stroke-1" fill="#C7D2F2" fill-rule="nonzero"/>
                    <rect id="Rectangle" fill="#FFF" x="124" y="324" width="625" height="22" rx="8.5"/>
                    <rect id="Rectangle-Copy-2" fill="#FFF" x="124" y="397" width="625" height="22" rx="8.5"/>
                    <rect id="Rectangle-Copy-3" fill="#FFF" x="124" y="470" width="491" height="22" rx="8.5"/>
                    <path d="M81.6784,199.104 L166.664,199.104 C173.291417,199.104 178.664,193.731417 178.664,187.104 L178.664,102.1248 C178.664,95.497383 173.291417,90.1248 166.664,90.1248 L81.6784,90.1248 C75.050983,90.1248 69.6784,95.497383 69.6784,102.1248 L69.6784,187.104 C69.6784,193.731417 75.050983,199.104 81.6784,199.104 Z" id="Stroke-2" fill="#FFB201"/>
                    <path d="M313.138385,84.8967885 C329.447729,79.5153053 348.586818,83.2415764 358.898207,95.1494108 C364.641993,101.78247 365.553157,109.836021 361.675317,118.16689 C358.288646,125.442569 351.252764,133.056341 340.595642,141.27597 C336.31135,144.580361 331.408948,148.004801 325.887118,151.550657 L325.349,151.894 L325.543643,152.04445 C341.792399,164.438624 357.091439,166.862182 376.260449,162.057646 L377.968343,161.616032 C383.787581,160.074404 388.340217,158.490339 398.373445,154.551317 L408.291943,150.622394 C426.652824,143.383698 437.167182,140.154312 449.947188,138.648183 C467.698785,136.55615 484.762574,139.44633 502.330447,148.436475 C578.210251,187.267035 616.68251,193.20019 673.005729,172.413466 C676.114478,171.266146 679.564703,172.8562 680.712023,175.964949 C681.859342,179.073698 680.269289,182.523924 677.160539,183.671243 C645.644812,195.30248 619.114696,198.641981 591.124925,194.325425 L589.544806,194.074065 C563.69996,189.837339 536.014264,179.153744 496.863807,159.118977 C481.451903,151.232123 466.781412,148.747308 451.351673,150.565709 L450.342491,150.689479 C439.117599,152.120689 429.287548,155.218498 411.838757,162.123665 L403.055294,165.605084 C391.669618,170.080433 386.906843,171.710504 379.851947,173.526373 C357.027478,179.401193 337.796987,176.483508 318.265861,161.585618 C317.0727,160.675502 315.864585,159.672344 314.654208,158.592274 L314.545,158.494 L314.017166,158.804659 L312.295102,159.804812 C293.187916,170.838945 268.652234,182.944456 238.653973,196.156684 L237.200946,196.795635 C234.166794,198.12777 230.627219,196.748013 229.295083,193.713861 C227.962948,190.679709 229.342705,187.140134 232.376857,185.807998 L235.096589,184.610328 C263.492115,172.068188 286.795242,160.578237 304.975046,150.172539 L305.979,149.594 L305.732259,149.301723 C299.306434,141.630328 293.812924,132.801442 291.510503,125.686128 L291.361761,125.214344 C285.517654,106.168413 295.144491,90.834111 313.138385,84.8967885 Z M349.826646,103.004777 C342.950235,95.0637364 328.907966,92.3297871 316.898536,96.2924571 C304.724978,100.309283 299.047137,109.353346 302.833845,121.694218 C304.636454,127.568918 309.846003,135.708997 315.788395,142.599086 L316.432,143.336 L316.802823,143.104213 C322.845916,139.317522 328.138527,135.690524 332.678924,132.22501 L333.266883,131.773903 C350.827935,118.229407 355.086995,109.079552 349.826646,103.004777 Z" id="Path-8" fill="#FFB201" fill-rule="nonzero"/>
                </g>
            </g>
        </g>
        <g id="UI Elements" transform="translate(833.000000, 623.000000) scale(1 1)">
            <g id="UI Elements/Chat" stroke="none" stroke-width="1" fill="none" fill-rule="evenodd">
                <g id="Interface--Box-1" transform="translate(74.000000, 54.000000)">
                    <rect id="Rectangle-Copy-4" fill="#090E2B" x="48" y="36" width="903" height="664" rx="64"/>
                    <rect id="Rectangle" fill="#FFF" x="3" y="3" width="903" height="664" rx="64"/>
                    <path d="M842,0 L67,0 C29.9969218,0 0,29.9969218 0,67 L0,603 C0,640.003078 29.9969218,670 67,670 L842,670 C879.003078,670 909,640.003078 909,603 L909,67 C909,29.9969218 879.003078,0 842,0 Z M67,6 L842,6 C875.68937,6 903,33.3106303 903,67 L903,603 C903,636.68937 875.68937,664 842,664 L67,664 C33.3106303,664 6,636.68937 6,603 L6,67 C6,33.3106303 33.3106303,6 67,6 Z" id="Rectangle-Copy" fill="#090E2B" fill-rule="nonzero"/>
                    <path d="M81.6784,559.808 L800.7568,559.808 C807.384217,559.808 812.7568,554.435417 812.7568,547.808 L812.7568,271.1616 C812.7568,264.534183 807.384217,259.1616 800.7568,259.1616 L81.6784,259.1616 C75.050983,259.1616 69.6784,264.534183 69.6784,271.1616 L69.6784,547.808 C69.6784,554.435417 75.050983,559.808 81.6784,559.808 Z" id="Stroke-1" fill="#C7D2F2" fill-rule="nonzero"/>
                    <rect id="Rectangle" fill="#FFF" x="124" y="324" width="625" height="22" rx="8.5"/>
                    <rect id="Rectangle-Copy-2" fill="#FFF" x="124" y="397" width="625" height="22" rx="8.5"/>
                    <rect id="Rectangle-Copy-3" fill="#FFF" x="124" y="470" width="491" height="22" rx="8.5"/>
                    <path d="M81.6784,199.104 L166.664,199.104 C173.291417,199.104 178.664,193.731417 178.664,187.104 L178.664,102.1248 C178.664,95.497383 173.291417,90.1248 166.664,90.1248 L81.6784,90.1248 C75.050983,90.1248 69.6784,95.497383 69.6784,102.1248 L69.6784,187.104 C69.6784,193.731417 75.050983,199.104 81.6784,199.104 Z" id="Stroke-2" fill="#FFB201"/>
                    <path d="M313.138385,84.8967885 C329.447729,79.5153053 348.586818,83.2415764 358.898207,95.1494108 C364.641993,101.78247 365.553157,109.836021 361.675317,118.16689 C358.288646,125.442569 351.252764,133.056341 340.595642,141.27597 C336.31135,144.580361 331.408948,148.004801 325.887118,151.550657 L325.349,151.894 L325.543643,152.04445 C341.792399,164.438624 357.091439,166.862182 376.260449,162.057646 L377.968343,161.616032 C383.787581,160.074404 388.340217,158.490339 398.373445,154.551317 L408.291943,150.622394 C426.652824,143.383698 437.167182,140.154312 449.947188,138.648183 C467.698785,136.55615 484.762574,139.44633 502.330447,148.436475 C578.210251,187.267035 616.68251,193.20019 673.005729,172.413466 C676.114478,171.266146 679.564703,172.8562 680.712023,175.964949 C681.859342,179.073698 680.269289,182.523924 677.160539,183.671243 C645.644812,195.30248 619.114696,198.641981 591.124925,194.325425 L589.544806,194.074065 C563.69996,189.837339 536.014264,179.153744 496.863807,159.118977 C481.451903,151.232123 466.781412,148.747308 451.351673,150.565709 L450.342491,150.689479 C439.117599,152.120689 429.287548,155.218498 411.838757,162.123665 L403.055294,165.605084 C391.669618,170.080433 386.906843,171.710504 379.851947,173.526373 C357.027478,179.401193 337.796987,176.483508 318.265861,161.585618 C317.0727,160.675502 315.864585,159.672344 314.654208,158.592274 L314.545,158.494 L314.017166,158.804659 L312.295102,159.804812 C293.187916,170.838945 268.652234,182.944456 238.653973,196.156684 L237.200946,196.795635 C234.166794,198.12777 230.627219,196.748013 229.295083,193.713861 C227.962948,190.679709 229.342705,187.140134 232.376857,185.807998 L235.096589,184.610328 C263.492115,172.068188 286.795242,160.578237 304.975046,150.172539 L305.979,149.594 L305.732259,149.301723 C299.306434,141.630328 293.812924,132.801442 291.510503,125.686128 L291.361761,125.214344 C285.517654,106.168413 295.144491,90.834111 313.138385,84.8967885 Z M349.826646,103.004777 C342.950235,95.0637364 328.907966,92.3297871 316.898536,96.2924571 C304.724978,100.309283 299.047137,109.353346 302.833845,121.694218 C304.636454,127.568918 309.846003,135.708997 315.788395,142.599086 L316.432,143.336 L316.802823,143.104213 C322.845916,139.317522 328.138527,135.690524 332.678924,132.22501 L333.266883,131.773903 C350.827935,118.229407 355.086995,109.079552 349.826646,103.004777 Z" id="Path-8" fill="#FFB201" fill-rule="nonzero"/>
                </g>
            </g>
        </g>
        <g transform="translate(-67.000000, 557.000000) scale(1 1)" id="Master/Character/Sitting">
            <g id="Master/Character/Sitting" stroke="none" stroke-width="1" fill="none" fill-rule="evenodd">
                <g id="Sitting" transform="translate(179.000000, 940.000000) scale(1 1)">
                    <g id="Sitting/On Chair 3" stroke="none" stroke-width="1" fill="none" fill-rule="evenodd">
                        <path d="M410.615323,399.49997 C410.615323,399.49997 400.357969,471.949685 396.171539,502.905682 C391.949971,534.125643 467.0487,503.736716 467.0487,503.736716 C467.0487,503.736716 453.509565,484.44329 453.304761,479.157997 C453.100961,473.870697 476.218696,412 476.218696,412 L410.615323,399.49997 Z" id="Fill-3" fill="#757eff"/>
                        <path d="M561.035706,7.46069873e-14 C597.897949,16.8477074 635.153618,59.3884812 602.589029,139.128809 C570.024441,218.869137 493.394303,411.87247 481.349448,420.555326 C469.305594,429.239182 405.784608,412 405.784608,412 C405.784608,412 412.732597,330.944505 426.534884,251.242608 C436.641716,192.880271 457.952435,150.325862 457.952435,150.325862 C457.952435,150.325862 286.540837,174.784268 243.98254,146.076381 C188.124727,108.397247 229.480836,6.86053872 261.586066,-5.71064401 C302.858588,-21.8713886 490.854841,-32.0758202 561.035706,7.46069873e-14 Z" id="Fill-5" fill="#F67A49"/>
                        <path d="M559.105053,537.550495 C553.718837,520.869499 514.662001,509.852921 486.4598,501.514412 C476.966506,498.70607 463.702961,484.835405 457.545853,485.001479 C448.581857,485.24512 457.367415,503.898122 427.362791,502.274176 C419.4193,501.844571 418.851908,493.484184 401.591555,491.580796 C398.786673,491.272515 394.499152,490.727553 390.796066,497.394383 C388.732001,501.110663 380.282268,534.66359 388.577622,548.345309 C446.664152,549.845942 506.41276,548.363209 558.020392,547.881892 C563.059757,547.834159 560.482433,541.818697 559.105053,537.550495" id="Fill-17" fill="#FF0057"/>
                        <path d="M654.970564,412 C654.970564,412 665.530533,466.509706 672.596211,475.377601 C679.662889,484.243493 716.32892,494.221378 717.974942,499.698195 C719.618961,505.175012 639.820958,518 639.820958,518 L591,416.698422 L654.970564,412 Z" id="Fill-1" fill="#757eff"/>
                        <path d="M790.105053,534.5497 C784.718837,517.869641 745.662001,506.853025 717.4598,498.513492 C707.966506,495.706135 694.702961,481.834427 688.545853,482.001496 C679.581857,482.244144 688.367415,500.898205 658.362791,499.274253 C650.420302,498.844647 649.85291,490.483237 632.591555,488.580837 C629.786673,488.27156 625.499152,487.727591 621.796066,494.393449 C619.732001,498.109742 611.282268,531.662786 619.577622,545.345546 C677.664152,546.846185 737.41276,545.362452 789.020392,544.881134 C794.059757,544.8334 791.482433,538.817918 790.105053,534.5497" id="Fill-10" fill="#FF0057"/>
                        <path d="M722.704751,510.429527 C726.392384,503.004274 728.005104,501.713139 726.433049,500.543939 C722.673012,497.748284 703.571309,506.385021 702.069675,511.523009 C700.944937,515.373796 713.664197,504.228541 723.820563,502.565701 C719.658833,506.366337 715.778784,518.019983 719.874061,515.696334 C739.826756,504.381943 742.973841,507.006496 742.998637,506.585624 C743.116665,504.585496 735.565843,502.966906 722.704751,510.429527" id="Fill-15" fill="#FFB201"/>
                        <path d="M180.126096,77 C192.090433,138.955221 247.290014,161.21191 295.189049,159.361921 C368.355288,156.536045 442.938988,124.042498 468.151215,113.183029 C465.930109,129.164147 477.804596,220.024734 497.628146,262.074146 C517.451696,304.123559 582.008895,430.623213 582.008895,430.623213 C582.008895,430.623213 654.850327,431.050084 657.965073,413.369038 C660.014248,401.737852 591.630112,76.8494703 569.008895,20.5961921 C556.018259,-11.7082512 513.975789,-25.6487365 427.5,-33 C340.646127,-40.3834042 214.030282,-26.7715765 214.030282,-26.7715765 C214.030282,-26.7715765 168.16176,15.0447792 180.126096,77 Z" id="Fill-7" fill="#FFB201"/>
                        <path d="M491.704751,514.429893 C495.392384,507.004835 497.005104,505.713735 495.432058,504.543583 C491.67202,501.748984 472.571309,510.385493 471.069675,515.522362 C469.944937,519.373048 482.664197,508.228087 492.820563,506.566274 C488.658833,510.36681 484.777792,522.019165 488.874061,519.69656 C508.826756,508.381485 511.973841,511.005969 511.998637,510.585107 C512.116665,508.585032 504.565843,506.966486 491.704751,514.429893" id="Fill-22" fill="#FFB201"/>
                        <path d="M546.8316,554.3915 L407.0166,556.8575 C397.6626,557.2315 383.6706,554.0145 382.3176,546.2435 C381.3066,540.4375 383.5546,527.7955 384.0206,526.9545 C387.2776,521.0945 415.0326,526.0385 423.1176,545.8275 C474.1316,549.6495 561.0086,545.9125 561.0086,545.9125 C561.0086,545.9125 562.3126,553.5935 546.8316,554.3915" id="Fill-19" fill="#090E2B"/>
                        <path d="M777.7223,550.7851 L637.9073,553.2511 C628.5543,553.6251 614.5613,550.4091 613.2083,542.6381 C612.1983,536.8321 614.4453,524.1901 614.9123,523.3491 C618.1683,517.4891 645.9233,522.4331 654.0083,542.2221 C705.0223,546.0441 791.9003,542.3071 791.9003,542.3071 C791.9003,542.3071 793.2033,549.9881 777.7223,550.7851" id="Fill-12" fill="#090E2B"/>
                    </g>
                </g>
                <g id="Upper Body/Sitting" transform="translate(243.000000, 170.000000) scale(1 1.0010526315789474)">
                    <g id="Upper Body/Sitting/Reading Book 2" stroke="none" stroke-width="1" fill="none" fill-rule="evenodd">
                        <path d="M459,586.835192 C459,586.835192 477.747127,576.82565 489.003701,569.661714 C514.007015,553.749045 524.307595,546.820919 526.267274,533.245081 C529.138804,513.380052 537.723397,513.254869 544.72225,513.254869 C548.821578,513.254869 558.433003,509.136852 561.715465,515.820619 C561.558491,521.017212 562.96626,534.245543 560.667637,536.608997 C557.1166,540.260498 526.504749,581.162253 500.905949,610.394851 C484.808536,628.777322 468.591037,639 468.591037,639 C468.591037,639 465.394025,621.611731 459,586.835192 Z" id="Fill-1" fill="#757eff"/>
                        <path d="M366.211468,542.746682 C371.031929,593.150552 385.461867,610.402764 387.45985,618.355772 C387.45985,618.355772 449.07185,584.537316 475.966956,572.798331 C486.73814,611.410755 492.252755,675.201635 493,678.947349 C486.273793,687.187718 369.516303,724.697377 356.830231,721.845666 C352.717956,720.921265 330.896112,722.636909 324.729337,691.157548 C311.553071,623.897035 315.773638,503.983167 333.202648,480 C333.202648,480 361.391006,492.342812 366.211468,542.746682 Z" id="Fill-3" fill="#3615F6"/>
                        <polygon id="Fill-5" fill="#090E2B" points="510.969919 377.281843 454 521.593005 540.179285 528 595 392.763083 565.218314 348 553.78891 384.437785"/>
                        <path d="M208.790041,448.406505 C205.996263,461.316702 156,471.803353 156,471.803353 C156,471.803353 252.987464,531.327979 269.715391,527.853615 C300.560547,521.448378 315.341479,490.273832 321,475.480856 C304.182843,471.025212 285.379589,464.806458 274.396404,459.875134 C263.412216,454.94381 268.561741,418.73679 267.890018,400.336817 C245.135624,395.831312 213.128272,387 213.128272,387 C213.128272,387 211.58382,435.496308 208.790041,448.406505 Z" id="Fill-8" fill="#757eff"/>
                        <path d="M181.312855,464 C181.312855,464 237.839397,505.314096 266.696933,505.992421 C280.837236,506.324091 296.733328,477.513738 299.528993,467.329863 C314.882133,472.44108 329.686323,478.286751 337.082486,483.047236 C342.981778,507.573849 348.969059,563.684059 347.868191,586.968906 C346.814318,609.286716 332.147078,652.366881 333.149958,671.170185 C333.831354,683.959326 334.198135,700.833325 337.779757,735.306821 C338.480609,742.052597 327.186879,767.629873 225,767.629873 C147.18877,767.629873 124.666695,813.744229 102.065692,803.52059 C100.040935,784.647355 145.485481,719.85278 146.65334,701.680849 C147.8202,683.507918 140.963023,650.469768 138.506318,625.831266 C136.050613,601.193763 117.206896,498.743299 121.294796,487.954485 C124.020062,480.761943 144.026082,472.777114 181.312855,464 Z" id="Fill-10" fill="#3615F6"/>
                        <path d="M175.618135,899.320199 C181.881797,905.360124 184.925178,908.521854 187.253434,914.186343 C190.482821,922.041542 191.503878,931.882724 192.386906,934.72745 C195.66859,945.305557 184.84095,938.985163 182.010882,931.782454 C176.441172,944.987615 185.329778,971.383957 176.441172,968.826798 C149.999628,961.219228 152.726151,941.884277 150.455222,910.932779 C149.658687,900.080084 114.563877,866.761143 109.173185,856.523524 C106.308877,851.0817 139.841795,817.78872 145.595554,825.023849 C151.348307,832.258979 164.152859,888.260815 175.618135,899.320199 Z" id="Fill-12" fill="#757eff"/>
                        <path d="M140.304538,476 C140.304538,476 99.4531268,487.045798 88.5149257,532.694102 C77.5767246,578.341406 25.9818326,673.81939 20.5949742,707.479625 C12.0347737,760.963242 24.534572,814.963078 59.8565567,907 C73.8507543,896.869716 145.805583,838.84918 149.972851,823.091516 C133.448204,792.88174 115.75612,738.58778 117.973648,712.329676 C120.191176,686.070571 163.117548,632.607962 165.603867,600.989591 C167.994906,570.569393 159.561796,528.906196 140.304538,476 Z" id="Fill-15" fill="#3615F6"/>
                        <path d="M538.847874,508.082556 C546.83495,522.301006 537.403477,521.610412 535.366586,529.293637 C531.371534,544.354152 561.347549,532.697774 561.347549,532.697774 C561.347549,532.697774 562.367004,521.611409 561.857276,517.212738 C560.861037,508.617691 557.74211,498.266763 549.454243,493.233305 C546.36156,491.354851 534.999178,501.231432 538.847874,508.082556" id="Fill-17" fill="#757eff"/>
                        <path d="M373.720806,642.745385 C373.322387,643.717771 370.094305,651.112734 369.010207,652.989528 C368.650895,653.611569 377.840005,626.345685 386.831465,618.082479 C387.234334,617.713875 386.822144,618.671011 386.558538,619.173284 C382.602454,626.718523 377.072087,634.56623 373.720806,642.745385 Z" id="Fill-19" fill="#090E2B"/>
                        <path d="M333.699946,653.074671 C335.443776,640.667987 339.084492,628.614202 341.483124,616.399112 C345.25961,596.044288 344.133504,574.373636 338.999687,555.113462 C338.937372,554.887941 338.261183,552.058616 338.451096,552.001736 C338.641008,551.944857 339.69801,554.658427 339.762304,554.909894 C351.84053,595.67243 344.066983,614.726014 335.865144,653.420936 C334.060623,666.801978 333.883108,683.711695 334.783021,700.5276 C335.034231,705.221763 335.106604,710.350111 335.557059,712.754462 C335.697074,713.501807 335.727046,713.881154 335.656022,713.979165 C335.472973,714.231769 334.661243,712.233456 333.699946,705.459149 C331.461693,689.686073 331.405186,668.457615 333.699946,653.074671 Z" id="Fill-21" fill="#090E2B"/>
                        <path d="M166.034626,557.921793 C172.614809,592.820294 162.180462,628.246502 142.079421,656.934218 C141.872859,657.237475 142.110207,656.413494 142.324713,656.063352 C157.692709,630.151834 167.001891,601.606767 165.512263,571.030677 C165.302722,566.722233 164.885626,560.520427 164.40398,556.25787 C164.279844,555.369047 165.898573,556.989078 166.034626,557.921793" id="Fill-23" fill="#090E2B"/>
                        <path d="M138.870584,800.49312 C139.916681,803.568288 134.375696,792.007189 131.079256,783.179662 C128.154162,773.278257 123.614607,761.392143 123,752 C128.856671,767.664078 133.460155,784.588303 138.870584,800.49312 Z" id="Fill-25" fill="#090E2B"/>
                        <path d="M534.710282,536.510255 C532.454763,529.677208 535.928745,525.430788 540.109478,521.812478 C540.586587,521.400002 541.506201,520.48306 541.94661,520.025084 C542.125919,519.839124 541.813439,520.735293 541.601623,521.126008 C539.867254,524.324918 536.276878,526.326957 535.233529,531.940383 C535.074144,532.795008 535.439053,538.718037 534.710282,536.510255" id="Fill-27" fill="#090E2B"/>
                        <polygon id="Fill-29" fill="#FFB201" points="543.342219 354 530 380.50771 587.323352 390 588 389.103302"/>
                    </g>
                </g>
                <g id="Head" transform="translate(341.000000, 346.000000) scale(1 1)">
                    <g id="Head/Long Hair Dark" stroke="none" stroke-width="1" fill="none" fill-rule="evenodd">
                        <path d="M202.9604,77.8622 C181.8504,79.5182 184.2014,108.0832 184.2014,108.0832 L160.7914,233.7422 L164.1714,235.8612 C164.1714,235.8612 157.9414,270.7612 161.9164,281.3122 C164.6894,288.6752 176.1664,298.4982 184.1564,300.4462 C187.9064,301.3602 191.2484,298.4592 193.2994,294.2252 C205.5034,269.0352 175.3224,218.2022 216.6524,184.7252 C225.0304,165.6512 231.8324,150.8302 233.9964,147.8302 C241.0224,138.0892 269.2194,72.6632 202.9604,77.8622" id="hair" fill="#090E2B"/>
                        <path d="M231.595269,169.854103 C231.717269,186.900103 240.726936,192.187937 233.168864,222.1603 C227.297267,245.444758 204.337313,266.222315 197.587626,266.222315 C160.590562,266.222315 132.3061,237.7663 116.0411,222.1603 C99.7771,206.5543 83.9321,173.9643 94.9881,136.8963 C106.0421,99.8283 189.0941,48.6463 217.2231,106.1073 C225.8691,123.7683 231.336269,133.563103 231.595269,169.854103 Z" id="face" fill="#757eff"/>
                        <path d="M130.087655,181.78177 C128.899958,173.986917 126.061679,165.704676 126.5405,162.5359 C137.8085,137.9049 220.0525,153.8619 221.6185,97.6449 C222.2235,75.9519 202.4985,58.0299 185.9315,54.0029 C144.8365,44.0129 94.0475,71.7789 71.6945,128.6529 C57.5485,164.6449 86.5035,215.8529 60.7515,217.0079 C-17.4695,220.5169 -34.6575,251.4859 -39.8695,280.6199 C-46.4775,317.5549 -23.3965,354.4209 10.5785,340.6359 C59.7395,379.8769 115.6965,300.6149 120.2235,241.3049 C123.0005,204.9159 95.7905,197.4829 100.6795,184.5109 C105.0535,175.3509 110.5145,161.8199 115.9255,179.9739 C116.6975,182.5669 115.7295,189.8349 118.0735,193.2009 C121.4855,198.1019 126.8645,197.6369 128.6255,195.2909 C130.940106,192.206653 130.899208,187.107992 130.087655,181.78177 Z" id="hair" fill="#090E2B"/>
                        <path d="M115.313,181.2645 C114.883,173.3005 111.137,163.3435 100.53,162.5625 C94.807,162.1405 82.16,166.5795 87.755,189.1845 C91.797,205.5085 108.376,210.1455 113.018,209.2605 C121.327,207.6775 115.947,193.0495 115.313,181.2645" id="ear" fill="#757eff"/>
                        <path d="M160.0464,257.3124 C155.3254,256.3244 150.3684,253.2734 146.5424,250.1684 C143.4234,247.6374 138.6424,242.7114 136.4884,240.1034 C135.4624,238.8614 137.1414,239.9734 138.7704,241.1364 C140.9294,242.6774 148.1634,248.8464 155.4154,252.9594 C156.3164,253.4704 161.2814,256.3174 161.2404,256.8324 C161.2124,257.1764 160.7484,257.4594 160.0464,257.3124" id="Fill-11" fill="#090E2B"/>
                        <path d="M97.6772,177.0077 C95.0942,177.1907 95.6262,181.2557 98.1642,180.7767 C101.5882,180.1307 104.4142,181.8047 106.4202,184.3537 C103.9832,184.6467 101.3422,187.2217 99.6492,188.5937 C98.4302,189.7157 100.2972,191.5487 101.3982,190.3177 C102.4102,189.2197 103.5952,188.1137 104.8172,187.2487 C105.6362,186.7047 106.5192,186.1107 107.4222,186.1657 C107.5252,186.1937 107.6202,186.2477 107.7152,186.3107 C108.6512,188.0027 109.2862,189.8777 109.5692,191.6537 C114.8252,195.7947 108.3302,174.4217 97.6772,177.0077" id="Fill-13" fill="#090E2B"/>
                    </g>
                </g>
                <g id="Expressions" transform="translate(462.000000, 479.000000) scale(1 1)">
                    <g id="Expressions/Smile" stroke="none" stroke-width="1" fill="none" fill-rule="evenodd">
                        <g id="eye1" transform="translate(21.027098, 10.213671)">
                            <path d="M0.0487023333,7.96572872 C1.82485498,-0.0171869856 25.1977023,-2.81531309 35.4827023,3.36568691 C39.0387023,5.47868691 45.6427023,11.2837287 39.7957023,14.4437287 C38.2517023,15.1157287 36.7517023,14.4267287 35.4827023,13.6077287 C21.4647023,3.86572872 -1.18942441,13.5304877 0.0487023333,7.96572872 Z" id="Fill-1" fill="#090E2B"/>
                            <path d="M19.0113023,22.3973287 C13.7233023,23.8973287 9.19030233,28.1473287 8.76930233,31.6693287 C8.51430233,33.7973287 16.8643023,38.9063287 24.9173023,39.3033287 C35.5113023,39.8243287 40.8513023,34.0853287 40.8324531,32.2513287 C40.1193023,26.7013287 33.7283023,18.2233287 19.0113023,22.3973287 Z" id="Fill-6" fill="#FFF"/>
                            <path d="M35.3981023,25.5550287 C27.2551023,19.4010287 14.6431023,23.4110287 8.76910233,31.6690287 C8.43210233,32.0970287 8.52910233,31.0200287 8.76310233,30.5290287 C11.5971023,24.5820287 16.7101023,21.7750287 22.6381023,20.5510287 C26.2051023,19.8140287 29.5311023,19.7540287 33.0101023,21.3120287 C34.3551023,21.9130287 36.7311023,23.7450287 38.5671023,25.8170287 C39.9991023,27.4320287 41.2051023,30.2010287 39.5481023,29.2220287 C38.2511023,28.4550287 36.4781023,26.3720287 35.3981023,25.5550287 Z" id="Fill-8" fill="#090E2B"/>
                            <path d="M24.8135023,36.0623287 C29.3405023,36.0623287 33.0105023,32.7143287 33.0105023,28.5833287 C33.0105023,24.4533287 29.3405023,21.1043287 24.8135023,21.1043287 C20.2865023,21.1043287 16.6165023,24.4533287 16.6165023,28.5833287 C16.6165023,32.7143287 20.2865023,36.0623287 24.8135023,36.0623287 Z" id="Fill-10" fill="#090E2B"/>
                        </g>
                        <g id="eye2" transform="translate(81.203378, 15.000183)">
                            <path d="M23.2557812,1.861246 C26.6096324,3.34897691 31.0744206,8.28711729 27.357522,8.28711729 C23.6406234,8.28711729 15.5900245,7.23270759 10.1930245,9.45970759 C8.30802454,9.94170759 6.87752199,10.8641173 4.98452199,11.0891173 C0.67652199,11.9281173 -1.66408888,6.76839233 1.38185604,3.64904337 C4.82290212,0.125071736 16.4397812,-1.545754 23.2557812,1.861246 Z" id="Fill-4" fill="#090E2B"/>
                            <path d="M19.455322,34.2343173 C24.826322,32.9853173 28.843322,28.1153173 28.389322,24.4763173 C27.503322,19.6543173 18.218322,16.5753173 13.017322,19.2083173 C7.86632199,21.8153173 4.64332199,27.6403173 5.05932199,29.9403173 C5.66032199,31.5323173 13.966322,35.5113173 19.455322,34.2343173 Z" id="Fill-12" fill="#FFF"/>
                            <path d="M15.011222,31.6060173 C18.549222,31.6060173 21.417222,28.8520173 21.417222,25.4560173 C21.417222,22.0590173 19.396222,18.8490173 15.011222,19.3060173 C11.492222,19.6720173 8.60422199,22.0590173 8.60422199,25.4560173 C8.60422199,28.8520173 11.473222,31.6060173 15.011222,31.6060173 Z" id="Fill-14" fill="#090E2B"/>
                            <path d="M5.25072199,26.6376173 C7.27972199,19.0636173 16.440722,15.1686173 23.685722,18.7546173 C24.705722,19.2866173 26.361722,20.4806173 27.601722,21.9226173 C28.742722,23.2526173 28.593722,23.9496173 28.127722,23.8116173 C27.355722,23.5816173 25.722722,22.1166173 24.395722,21.4866173 C17.685722,18.3036173 10.704722,20.0896173 5.59372199,27.5586173 C5.34272199,27.9456173 5.10472199,27.0746173 5.25072199,26.6376173" id="Fill-22" fill="#090E2B"/>
                        </g>
                        <path d="M86.9879908,70.3386563 C86.0131141,75.2575144 79.9689699,75.7359636 76.0323155,74.6212963 C72.832522,73.7152719 72.0034674,71.851321 73.0853454,71.2537752 C74.8485675,70.2799076 80.4997296,72.9889887 82.5858367,70.4027854 C86.305606,65.7912866 74.8914605,48.8346319 78.5177277,51.5592059 C83.3102149,55.1600121 87.6386051,67.0559034 86.9879908,70.3386563 Z" id="nose" fill="#090E2B"/>
                        <path d="M89.6387968,90.5818454 C88.8707672,91.1602445 87.0677709,93.5463983 85.244688,95.0617056 C81.1444698,98.4697185 74.4745751,99.2530639 70.5444286,98.4697185 C63.1559339,96.997065 59.9595527,92.178225 58.0067117,90.8585998 C56.0538707,89.5389745 59.7200172,87.8442758 62.5249361,88.0931395 C65.3298551,88.3420033 67.2123883,89.156182 72.5654423,91.4592717 C76.0199316,92.9455259 83.8310598,90.8585998 86.0381944,89.5389745 C90.2484115,87.021725 91.5113061,89.1716685 89.6387968,90.5818454 Z" id="Fill-18" fill="#090E2B"/>
                    </g>
                </g>
                <g id="Facial Accesories" transform="translate(459.000000, 529.000000) scale(1 1)" fill="#000">
                    <g id="Facial Accesories/None" stroke="none" stroke-width="1" fill="none" fill-rule="evenodd" fill-opacity="0"/>
                </g>
                <g id="Glass" transform="translate(462.000000, 484.000000) scale(1 1)" fill="#000">
                    <g id="Glass/None" stroke="none" stroke-width="1" fill="none" fill-rule="evenodd" fill-opacity="0"/>
                </g>
            </g>
        </g>
    </g>
</svg>
