<svg viewBox="0 240 3080 1840" xmlns="http://www.w3.org/2000/svg" overflow="visible" xmlns:xlink="http://www.w3.org/1999/xlink">
    <g id="Master/Scenes/Feedback Session" stroke="none" stroke-width="1" fill="none" fill-rule="evenodd">
        <g id="Background">
            <g id="Outdoor Plants" transform="translate(2.000000, 1090.000000) scale(1 1)">
                <g id="Outdoor Plants/Plant 1" stroke="none" stroke-width="1" fill="none" fill-rule="evenodd">
                    <g id="Group-6" transform="translate(3.000000, 208.000000)">
                        <path d="M199.883326,757 C199.883326,757 154.639614,615.704437 63.7021884,486.352218 C-27.2352371,357 -13.9695544,268.907181 63.7021884,246.214912 C141.373931,223.522642 267.592553,290.509829 306.646043,382.031679 C331.898655,441.210897 374.804123,628.371706 268.960535,757 C238.721051,756.165996 199.883326,757 199.883326,757 Z" id="Stroke-8" fill="#017C7F"/>
                        <path d="M180.80074,266.460237 C125.13078,13.4204746 221.50036,-21.2992546 328.620701,9.33958092 C435.741041,39.9784164 507.960342,173.305169 491.620701,300.677192 C466.681525,495.084959 320.447913,757 320.447913,757 L236.4707,757 C236.4707,598.666667 217.914047,435.153412 180.80074,266.460237 Z" id="Stroke-10" fill="#009BA0"/>
                        <path d="M299.869545,92.3392506 C301.326008,91.6825172 303.029928,92.2842179 303.76044,93.6823222 L303.857175,93.8846724 L304.316098,94.9397143 L304.887232,96.295742 C305.10977,96.8312409 305.345953,97.4073406 305.595259,98.0239333 L305.978996,98.9791786 C307.658678,103.18678 309.527498,108.198532 311.537907,114.004614 C317.270818,130.561319 322.999418,150.177346 328.343248,172.774008 C340.981111,226.213867 349.496836,287.717379 351.998041,356.891597 C354.239813,418.890863 350.075029,478.447706 339.405709,544.65636 L339.021897,547.023799 C329.749389,603.877937 316.614263,662.450624 292.750418,757.276586 C292.346063,758.883341 290.715735,759.858079 289.10898,759.453724 C287.502225,759.049369 286.527487,757.419042 286.931842,755.812287 L289.047362,747.388625 C311.539988,657.63471 324.138912,601.00352 333.100137,546.058001 C343.991922,479.275307 348.255457,419.431969 346.001959,357.108403 C343.515192,288.333464 335.05336,227.219184 322.504303,174.154847 L321.81134,171.250364 C316.714465,150.074656 311.289348,131.624212 305.868175,115.96781 L305.247809,114.188627 C303.503926,109.222351 301.87886,104.891689 300.406603,101.203688 L299.855033,99.8349225 C299.678602,99.4014064 299.50967,98.9906447 299.348457,98.6026828 L298.799647,97.2995385 L298.367875,96.3072458 C297.686818,94.7968393 298.359139,93.0203074 299.869545,92.3392506 Z" id="Path-6" fill="#090E2B" fill-rule="nonzero"/>
                        <path d="M589.575739,282.556489 C750.420208,274.363901 760.643075,407.886816 739.778496,462.864438 C715.162837,527.72606 641.307604,570.960237 582.304218,596.642758 C443.495397,657.062349 408.155852,757 408.155852,757 L286.620701,757 C286.620701,757 309.812449,296.806189 589.575739,282.556489 Z" id="Stroke-12" fill="#FFB201"/>
                        <path d="M613.533995,384.77167 C615.068698,384.147289 616.818982,384.88525 617.443363,386.419953 C618.067745,387.954656 617.329784,389.70494 615.795081,390.329322 C475.369379,447.460406 387.980539,569.583887 353.571426,757.085934 C353.272365,758.715574 351.708844,759.794222 350.079203,759.495162 C348.449563,759.196101 347.370914,757.63258 347.669975,756.002939 C382.426899,566.605602 471.067283,442.733123 613.533995,384.77167 Z" id="Path-3" fill="#090E2B" fill-rule="nonzero"/>
                    </g>
                </g>
            </g>
            <path d="M2776.5,2051 C2778.433,2051 2780,2052.567 2780,2054.5 C2780,2056.36856 2778.53572,2057.89513 2776.69204,2057.99482 L2776.5,2058 L130.5,2058 C128.567003,2058 127,2056.433 127,2054.5 C127,2052.63144 128.464278,2051.10487 130.307965,2051.00518 L130.5,2051 L2776.5,2051 Z" id="Path-4-Copy" fill="#090E2B" fill-rule="nonzero"/>
            <g id="UI Elements" transform="translate(1050.000000, 1114.000000) scale(1 1)">
                <g id="UI Elements/UI Card 2" stroke="none" stroke-width="1" fill="none" fill-rule="evenodd">
                    <g id="interface" transform="translate(143.000000, 108.000000)">
                        <path d="M796.095175,592 L61.9048254,592 C52.5681131,592 45,584.43436 45,575.100698 L45,56.9014958 C45,47.5678339 52.5681131,40 61.9048254,40 L796.095175,40 C805.431887,40 813,47.5678339 813,56.9014958 L813,575.100698 C813,584.43436 805.431887,592 796.095175,592 Z" id="Stroke-1-Copy-3" fill="#090E2B"/>
                        <path d="M754.095175,555 L19.9048254,555 C10.5681131,555 3,547.43436 3,538.100698 L3,19.9014958 C3,10.5678339 10.5681131,3 19.9048254,3 L754.095175,3 C763.431887,3 771,10.5678339 771,19.9014958 L771,538.100698 C771,547.43436 763.431887,555 754.095175,555 Z" id="Stroke-1-Copy-2" fill="#FFB201"/>
                        <path d="M754.095175,0 L19.9048254,0 C8.91177633,0 0,8.91046219 0,19.9014958 L0,538.100698 C0,549.091433 8.91147822,558 19.9048254,558 L754.095175,558 C765.088522,558 774,549.091433 774,538.100698 L774,19.9014958 C774,8.91046219 765.088224,0 754.095175,0 Z M19.9048254,6 L754.095175,6 C761.774713,6 768,12.2243688 768,19.9014958 L768,538.100698 C768,545.777286 761.775252,552 754.095175,552 L19.9048254,552 C12.2247479,552 6,545.777286 6,538.100698 L6,19.9014958 C6,12.2243688 12.2252868,6 19.9048254,6 Z" id="Stroke-1-Copy-4" fill="#090E2B" fill-rule="nonzero"/>
                        <rect id="Rectangle-Copy-2" fill="#FFF" x="84" y="341" width="536" height="25" rx="12.5"/>
                        <rect id="Rectangle-Copy-3" fill-opacity=".6" fill="#FFF" x="85" y="424" width="396" height="25" rx="12.5"/>
                        <path d="M235.177833,110.81867 C227.185538,104.768093 217.382289,103.427639 207.809374,106.828905 C197.973601,110.323565 189.221893,118.526773 183.646729,129.991287 C177.384572,142.868502 175.420176,159.052394 178.619243,177.174179 C182.121285,197.012233 190.573939,213.94983 202.695283,227.017574 L203.281,227.643 L204.136979,227.092052 C240.264292,203.530099 256.549408,177.547747 253.293204,149.29804 L253.103783,147.80912 C250.655617,130.214335 244.247467,117.684846 235.177833,110.81867 Z M505.842035,232.426649 L523.827521,217.528033 C528.861168,213.397292 532.435677,210.610149 535.794008,208.241442 C544.837025,201.863199 552.104066,198.860832 560.543814,198.437223 C568.776183,198.024022 578.096647,200.09358 591.815736,205.152633 L595.844784,206.657784 C604.219635,209.820062 609.696003,212.190744 646.595195,228.237346 C648.62106,229.118348 649.549156,231.474829 648.668154,233.500695 C647.787152,235.52656 645.430671,236.454655 643.404805,235.573654 L616.305789,223.807985 C602.625476,217.896342 598.404268,216.172107 592.715497,214.027871 L589.751282,212.919169 C576.56553,208.011399 567.998703,206.073116 560.944847,206.427165 C554.360703,206.757637 548.573312,209.095584 540.929133,214.411813 L540.405031,214.778909 C537.226418,217.020856 533.770971,219.716184 528.850558,223.7549 L511.514534,238.120007 C510.961685,238.574623 510.466703,238.980504 510.047778,239.322454 C496.512415,250.370774 484.631585,251.678075 474.648986,244.098099 C467.468896,238.64612 462.189507,229.836545 455.74709,214.854426 L454.956757,212.979018 C453.652739,209.854431 450.088177,201.329237 448.669142,198.12545 L448.445809,197.626142 C444.897603,189.792141 442.048006,185.569319 439.684227,184.503585 C437.781041,183.645514 434.932355,185.322008 430.499974,191.882993 L429.538477,193.314532 C419.6629,207.895433 412.080714,214.210184 403.216181,215.935344 L402.673279,216.036778 C400.263009,216.467382 398.237762,216.553963 394.262408,216.496152 L391.572079,216.450832 C384.018715,216.356451 379.70279,216.848177 373.315547,218.985577 C364.271413,222.012067 353.865627,228.07077 341.218444,238.220629 L339.854772,239.323817 C310.35146,263.379578 272.018215,270.264603 237.983138,258.861028 C224.727086,254.419541 212.843117,247.464548 202.81987,238.379492 L202.154,237.769 L202.062088,237.825611 C175.845262,253.744999 141.02884,268.371023 97.695117,281.745545 L94.1629089,282.827224 C92.0491915,283.469481 89.8150329,282.276626 89.1727761,280.162909 C88.5305192,278.049191 89.7233737,275.815033 91.8370911,275.172776 C135.055196,262.040877 169.546753,247.807206 195.398066,232.515664 L196.358,231.943 L196.017709,231.570961 C183.545315,217.787504 174.77398,200.185397 170.95583,179.747194 L170.741057,178.564927 C167.257064,158.829121 169.429049,140.934983 176.452313,126.492661 C182.917449,113.198048 193.251996,103.511204 205.131,99.2905822 C217.194332,95.0044681 229.823674,96.7313505 240.006568,104.440322 C250.914953,112.698528 258.306392,127.150586 261.027448,146.706609 C265.47074,178.640215 248.443666,207.22332 210.263218,232.617166 L209.177,233.33 L209.630305,233.727412 C218.289656,241.242055 228.382564,247.069245 239.563664,250.947815 L240.524701,251.275486 C271.965035,261.809683 307.429352,255.439945 334.799364,233.123587 C348.763568,221.737762 360.40769,214.868966 370.776835,211.39908 C378.368938,208.858491 383.541892,208.318965 392.318932,208.460773 L394.263558,208.495215 C397.913687,208.54986 399.585337,208.474657 401.483591,208.121571 L401.687943,208.08267 C408.1818,206.818876 414.291337,201.672247 423.266349,188.307125 L423.608556,187.795629 C430.082118,178.084023 436.43993,174.26535 442.97236,177.210562 C447.611028,179.301953 451.107421,184.309349 455.260164,193.291617 L455.733186,194.325516 C457.283846,197.74918 462.812161,211.03081 462.801668,211.006234 L463.373744,212.336459 C469.153866,225.677214 473.858267,233.452783 479.486901,237.726711 C486.097329,242.746135 493.743837,242.039973 504.226296,233.738326 L505.481564,232.722173 C505.597576,232.627151 505.717824,232.528567 505.842035,232.426649 Z" id="Path-7" fill="#FFF" fill-rule="nonzero"/>
                    </g>
                </g>
            </g>
            <g id="UI Elements" transform="translate(1050.000000, 255.000000) scale(1 1)">
                <g id="UI Elements/UI Card 1" stroke="none" stroke-width="1" fill="none" fill-rule="evenodd">
                    <g id="userinterface" transform="translate(1.000000, 17.000000)">
                        <path d="M1072.3832,793.4326 L68.6102,793.4326 C55.8452,793.4326 45.4982,783.0856 45.4982,770.3206 L45.4982,61.6156 C45.4982,48.8506 55.8452,38.5006 68.6102,38.5006 L1072.3832,38.5006 C1085.1482,38.5006 1095.4952,48.8506 1095.4952,61.6156 L1095.4952,770.3206 C1095.4952,783.0856 1085.1482,793.4326 1072.3832,793.4326 Z" id="Stroke-1-Copy" fill="#090E2B"/>
                        <path d="M1029.885,757.932 L26.112,757.932 C13.347,757.932 3,747.585 3,734.82 L3,26.115 C3,13.35 13.347,3 26.112,3 L1029.885,3 C1042.65,3 1052.997,13.35 1052.997,26.115 L1052.997,734.82 C1052.997,747.585 1042.65,757.932 1029.885,757.932 Z" id="Stroke-1" fill="#FFF"/>
                        <path d="M1029.885,4.54747351e-13 L26.112,4.54747351e-13 C11.6905975,4.54747351e-13 0,11.6926939 0,26.115 L0,734.82 C0,749.241854 11.6901458,760.932 26.112,760.932 L1029.885,760.932 C1044.30685,760.932 1055.997,749.241854 1055.997,734.82 L1055.997,26.115 C1055.997,11.6926939 1044.3064,4.54747351e-13 1029.885,4.54747351e-13 Z M26.112,6 L1029.885,6 C1040.99245,6 1049.997,15.0061616 1049.997,26.115 L1049.997,734.82 C1049.997,745.928146 1040.99315,754.932 1029.885,754.932 L26.112,754.932 C15.0038542,754.932 6,745.928146 6,734.82 L6,26.115 C6,15.0061616 15.0045468,6 26.112,6 Z" id="Stroke-1-Copy-2" fill="#090E2B" fill-rule="nonzero"/>
                        <path d="M617.1762,372.0626 L197.7822,372.0626 C160.6212,372.0626 130.4982,341.9396 130.4982,304.7786 C130.4982,267.6236 160.6212,237.5006 197.7822,237.5006 L617.1762,237.5006 C654.3342,237.5006 684.4572,267.6236 684.4572,304.7786 C684.4572,341.9396 654.3342,372.0626 617.1762,372.0626 Z" id="Stroke-5" fill="#FFB201"/>
                        <path d="M854.382,370.2114 L854.382,370.2114 C817.224,370.2114 787.098,340.0884 787.098,302.9274 C787.098,265.7724 817.224,235.6494 854.382,235.6494 C891.54,235.6494 921.663,265.7724 921.663,302.9274 C921.663,340.0884 891.54,370.2114 854.382,370.2114 Z" id="Stroke-7" fill="#C7D2F2"/>
                        <g id="cross" transform="translate(945.572500, 53.129500)" fill="#000" fill-rule="nonzero">
                            <path d="M43.8180195,1.81801948 C45.5753788,0.0606601718 48.4246212,0.0606601718 50.1819805,1.81801948 C51.8844223,3.52046132 51.9376237,6.24760984 50.3415844,8.01409585 L50.1819805,8.18198052 L8.18198052,50.1819805 C6.4246212,51.9393398 3.5753788,51.9393398 1.81801948,50.1819805 C0.11557765,48.4795387 0.062376343,45.7523902 1.65841556,43.9859042 L1.81801948,43.8180195 L43.8180195,1.81801948 Z" id="Stroke-9"/>
                            <path d="M1.81801948,1.81801948 C3.52046132,0.11557765 6.24760984,0.062376343 8.01409585,1.65841556 L8.18198052,1.81801948 L50.1819805,43.8180195 C51.9393398,45.5753788 51.9393398,48.4246212 50.1819805,50.1819805 C48.4795387,51.8844223 45.7523902,51.9376237 43.9859042,50.3415844 L43.8180195,50.1819805 L1.81801948,8.18198052 C0.0606601718,6.4246212 0.0606601718,3.5753788 1.81801948,1.81801948 Z" id="Stroke-11"/>
                        </g>
                        <path d="M727.2462,457.5006 C737.187325,457.5006 745.2462,465.559475 745.2462,475.5006 C745.2462,485.331269 737.365417,493.321282 727.576865,493.497624 L727.2462,493.5006 L148.4982,493.5006 C138.557075,493.5006 130.4982,485.441725 130.4982,475.5006 C130.4982,465.669931 138.378983,457.679918 148.167535,457.503576 L148.4982,457.5006 L727.2462,457.5006 Z" id="Stroke-13" fill="#C7D2F2" fill-rule="nonzero"/>
                        <path d="M479.0502,564.5006 C488.991325,564.5006 497.0502,572.559475 497.0502,582.5006 C497.0502,592.331269 489.169417,600.321282 479.380865,600.497624 L479.0502,600.5006 L148.4982,600.5006 C138.557075,600.5006 130.4982,592.441725 130.4982,582.5006 C130.4982,572.669931 138.378983,564.679918 148.167535,564.503576 L148.4982,564.5006 L479.0502,564.5006 Z" id="Stroke-15" fill="#C7D2F2" fill-rule="nonzero"/>
                    </g>
                </g>
            </g>
        </g>
        <g transform="translate(249.000000, 555.000000) scale(1 1)" id="Master/Character/Standing">
            <g id="Master/Character/Standing" stroke="none" stroke-width="1" fill="none" fill-rule="evenodd">
                <g id="Lower Body/Standing" transform="translate(-64.000000, 629.000000) scale(1 1)">
                    <defs>
                        <polygon id="lower-bodystandingstand-2-path-1" points="0.354636271 0.4782 167.3115 0.4782 167.3115 15 0.354636271 15"/>
                    </defs>
                    <g id="Lower Body/Standing/Stand 2" stroke="none" stroke-width="1" fill="none" fill-rule="evenodd">
                        <g id="leg-1" transform="translate(304.000000, 725.000000)">
                            <path d="M91.0333748,44.9789165 C91.0333748,44.9789165 85.6872689,41.9621529 73.0392377,43.3781438 C69.6230332,43.7607626 64.431439,47.5437681 52.2698706,54.601629 C36.1508081,63.9552029 14.0008039,79.657638 6.47458733,96.7519621 C-11.6650898,137.950267 13.5960828,142.806815 18.1317498,143.955675 C22.6664198,145.102528 45.4334741,123.61361 45.4334741,123.61361 L64.8640719,97.252078 L94,72.2583324 L91.0333748,44.9789165 Z" id="Fill-1" fill="#090E2B"/>
                            <path d="M84.0508903,45.1496795 C75.8984523,46.5005966 39.1312778,65.3815085 23.3467062,82.0235297 C10.98672,95.0537934 3.85584305,109.84005 4.00220999,126.083979 C4.12050656,139.338731 14.6549161,143.12509 19.2303867,143.530165 C39.901208,145.362983 52.5639532,141.839025 64.3464918,132.860515 C72.8097089,126.41223 94.7296618,100.701904 100.688601,95.6155115 C105.604926,91.4180904 118,77.9847466 118,69.5719455 C118,51.5520686 92.2043308,43.7997602 84.0508903,45.1496795" id="Fill-3" fill="#FF0057"/>
                            <path d="M95.110037,0 C95.110037,0 81.2094424,49.8246703 79.8885262,51.562636 C79.2770279,52.366918 57.0982255,66.9684181 60.3195824,67.7079992 C64.1024785,68.576982 76.1485948,55.9025734 88.1157757,68.8775924 C98.6881012,80.3415965 93.2865332,86.0223356 91.5529555,90.1293497 C89.3247838,95.4089431 89.4896485,94.2383546 91.4340531,92.7044455 C106.068046,81.1647911 113.312102,74.1532043 116.048857,66.1442282 C117.986267,60.4774247 150,17.661355 150,17.661355 L95.110037,0 Z" id="Fill-5" fill="#ff8282"/>
                            <path d="M59.0654064,91.0375975 C56.399542,85.9968122 59.4262338,81.1318134 60.6697516,86.0361888 C61.2946691,88.5008338 65.5896974,94.7061466 73.2223272,97.8939425 C74.7535426,98.4754929 77.2429865,101.620631 70.7878029,100.890766 C66.4592139,99.7225545 61.1399892,94.9592303 59.0654064,91.0375975 Z" id="Fill-27" fill="#FFB201"/>
                            <path d="M48.0319639,99.5212193 C46.0413605,94.2028513 47.0615666,90.7852623 49.968849,94.6714293 C50.0461757,94.7740902 53.0549172,104.864439 62.5648422,108.045525 C66.6794049,108.045525 67.5854312,110.278999 66.6794049,110.518573 C56.1870398,113.292989 49.4599301,103.336369 48.0319639,99.5212193 Z" id="Fill-29" fill="#FFB201"/>
                        </g>
                        <g id="leg-2" transform="translate(587.000000, 751.000000)">
                            <path d="M-1.8189894e-12,4.29850491 L11.4020686,79.7632614 C11.4020686,79.7632614 22.4543804,86.3768082 39.9032427,90.6492676 C57.3531043,94.9237306 87.6420349,92.3983214 88.2236303,90.6492676 C88.8052258,88.9002139 99.504783,75.5138422 82.0559207,68.5166255 C64.6060591,61.5194088 59.3527134,57.3511313 57.4610292,47.6071189 C56.6495937,43.4278221 59.0349344,0 59.0349344,0 L-1.8189894e-12,4.29850491 Z" id="Fill-7" fill="#ff8282"/>
                            <g id="Group-11" transform="translate(1.000000, 104.000000)">
                                <mask id="lower-bodystandingstand-2-mask-2" fill="#fff">
                                    <use xlink:href="#lower-bodystandingstand-2-path-1"/>
                                </mask>
                                <g id="Clip-10"/>
                                <path d="M167.3115,15.0002 L2.9965,15.0002 C1.4775,9.9562 0.1475,4.6642 0.3815,0.4782 L165.0875,4.2122 C166.0715,7.3442 166.8235,11.0572 167.3115,15.0002" id="Fill-9" fill="#090E2B" mask="url(#lower-bodystandingstand-2-mask-2)"/>
                            </g>
                            <path d="M6.88677905,53 C6.88677905,53 18.3395331,60.8747197 21.7991881,68.5571057 C29.8700546,70.4784497 60.0757339,71.0375129 58.2382284,68.6647329 C52.3757583,61.0889775 60.0767309,53.6637008 64.6889395,53.6637008 C69.3011481,53.6637008 101.482918,76.3819981 105.710278,76.3819981 C109.937637,76.3819981 153.083622,93.6143005 158.463535,97.0723209 C163.844446,100.528348 166,109 166,109 L1.47496142,109 C1.47496142,109 -4.25989028,65.626259 6.88677905,53" id="Fill-12" fill="#FF0057"/>
                            <path d="M80.0080246,67.6742362 C80.6509994,58.7379553 92.9940067,62.4180896 87.6710189,64.9120564 C85.1707958,64.4567177 83.2798175,65.8133774 82.4945451,68.1025457 C82.105598,69.5392535 79.848862,69.1442108 80.0080246,67.6742362" id="Fill-14" fill="#FFB201"/>
                            <path d="M88.0080241,73.6741596 C88.6509568,64.7384019 100.993157,68.4177093 95.6715713,70.9118201 C93.1704576,70.4574948 91.280657,71.8131932 90.4943819,74.1024938 C90.1054604,75.5392846 87.8488719,75.1442191 88.0080241,73.6741596" id="Fill-16" fill="#FFB201"/>
                        </g>
                        <path d="M692.934985,-0.062903182 C692.934985,-0.062903182 715.512283,24.231404 719.709881,103.634028 C723.907478,183.036652 681.198378,355.819986 679.262495,379.790438 C677.326612,403.761892 677.157662,458.147512 668.804704,484.662168 C662.891461,503.428931 650.314758,749.819758 652.865096,762.535766 C655.347049,774.912947 576.881937,770.011996 565.89115,770.186422 C554.900362,770.360847 556.730652,597.024164 548.644191,567.060097 C548.150599,565.231169 547.691395,562.246796 547.2658,558.247011 C530.73467,596.61414 514.074704,631.299601 503.078701,652.374603 C477.287507,701.808072 460.352669,737.890626 459.854468,750.940846 C459.466532,761.109392 440.794506,758.705826 427.310991,753.610026 C413.828478,748.514226 377.561021,727.27304 376.062407,716.78776 C374.564796,706.301477 400.189589,628.009182 434.784012,487.990952 C446.263694,441.533373 479.82663,405.227302 481.537756,392.975932 C484.972038,368.400024 449.513531,205.969896 454.15773,134.191685 C459.934661,44.8878905 504.5,-5.68434189e-14 504.5,-5.68434189e-14 L504.5,-5.68434189e-14 L586.827,3.28109682 L692.934985,-0.062903182 Z" id="Combined-Shape" fill="#001386"/>
                        <path d="M478.984261,41.7753898 C455.867004,81.8763299 493.664478,58.338375 561.764801,60.0780832 C597.299464,60.9858608 641.022859,40.959833 692.934985,-1.30492839e-13 L505.309705,-0.062903182 C494.226614,16.6112324 485.451466,30.5573301 478.984261,41.7753898 Z" id="Fill-22" fill="#001386"/>
                        <path d="M607.174924,398.025923 C598.532113,450.27234 572.831452,500.800272 553.492597,548.526114 C552.038555,551.504842 548.196228,559.577495 549.150349,556.180542 C549.939488,553.373317 551.007905,550.623259 552.113096,547.935383 C569.338969,502.885382 585.423872,457.16943 598.532113,410.743397 C599.54388,406.961315 600.54372,402.79611 601.139052,398.924767 C608.837622,339.789494 608.598097,279.809748 613.136139,220.3415 C614.337736,203.893305 615.918994,183.613884 618.357968,167.291057 C618.442447,166.564929 619.217671,166.966105 618.94038,171.194494 C612.050825,248.208152 615.817734,345.779506 607.174924,398.025923 Z" id="Fill-25" fill="#090E2B"/>
                    </g>
                </g>
                <g id="Upper Body/Standing" transform="translate(69.000000, -172.000000) scale(1 1)">
                    <g id="Upper Body/Standing/With Laptop 2" stroke="none" stroke-width="1" fill="none" fill-rule="evenodd">
                        <path d="M518,470 C531.897744,477.921341 553.104762,494.380594 565.718296,532.851246 C576.319799,565.182208 600.570426,611.863468 601.354386,616.556818 C613.885714,621.248165 664,646.250335 664,646.250335 C664,646.250335 629.462657,702 626.617544,702 C623.772431,702 606.926316,701.132196 590.611529,699.849007 C537.347368,695.659124 534.614536,659.159298 531.972932,644.270501 C523.423559,596.087849 521.988972,475.178799 518,470" id="Fill-1" fill="#3615F6"/>
                        <path d="M435.679151,395 C435.679151,395 447.229331,452.303881 439.463916,458.256492 C435.587205,461.227797 419,465.605246 419,465.605246 C419,465.605246 459.844881,498.129585 484.813137,498.96667 C509.781394,499.804756 526.465542,484.609197 523.701174,479.100632 C519.563617,470.857786 490.31289,463.49803 489.220535,456.162277 C487.97527,447.794418 488.520948,411.17366 488.520948,411.17366 L435.679151,395 Z" id="Fill-3" fill="#ff8282"/>
                        <path d="M430,469.083895 C430,469.083895 475.140906,498.234962 488.988265,494.707566 C498.467053,492.293241 497.322975,472.625305 498.382752,464 C507.10986,464.848817 524.843071,473.859493 531.117436,486.924072 C539.442109,504.25676 540.330275,542.593671 546.278478,573.411343 C559.567848,642.255627 545.542856,789.001916 545.542856,789.001916 C545.542856,789.001916 471.088461,824.442038 451.166448,807.333566 C440.923939,798.538098 466.94469,752.036325 468.985966,677.213284 C471.027243,602.389243 473.539197,578.885613 465.870863,553.858517 C458.203532,528.831421 430,469.083895 430,469.083895" id="Fill-6" fill="#FFF"/>
                        <path d="M420.261095,464 C404.190301,467.258001 359.922052,478.624962 358.573426,490.673761 C357.393378,501.227723 345.84926,632.518975 361.438259,652.189134 C380.106554,675.744064 350.697131,747.758513 338.817851,766.969107 C318.151554,800.389154 283.215956,827.985047 323.585958,827.260157 C365.636755,826.507232 474.744787,883.934765 474.744787,806.287398 C474.744787,722.087984 485.909854,640.579876 486,608.514493 C486.298881,498.980964 437.07902,471.643388 420.261095,464" id="Fill-8" fill="#3615F6"/>
                        <path d="M519.586342,471.025925 C532.5471,479.038964 566.685354,530.935502 560.0672,579.880712 C555.909093,610.6334 552.21952,711.880605 560.767513,746.298428 C569.317495,780.71525 584.188196,809.521743 583.998197,828.488137 C583.910658,837.129884 550.109629,841.47879 540.243576,837.53334 C516.831845,828.169778 519.024302,806.057836 522.384609,761.942074 C530.297943,658.064902 530.069148,480.953123 498,464 C505.703439,464.287324 516.001219,468.809425 519.586342,471.025925" id="Fill-11" fill="#3615F6"/>
                        <path d="M538.704585,512.534972 C548.374503,531.14719 558.773513,550.760225 559.723884,571.893504 C560.925103,598.556303 557.874129,629.021211 556.942113,655.743058 C556.666791,662.721764 556.410844,669.704473 556.396568,676.681177 C556.408804,677.087509 555.712342,677.122538 555.71744,676.687182 C555.051569,644.181606 559.107979,604.533189 557.629398,571.983577 C556.683106,551.178567 546.437052,531.034097 538.020359,512.084604 C537.874541,511.817386 538.554688,512.242733 538.704585,512.534972" id="Fill-13" fill="#090E2B"/>
                        <g id="macbook" transform="translate(504.000000, 528.000000)">
                            <path d="M128.369769,133.885873 L8.73676899,144.014873 C6.69576899,144.183873 0.282768988,146.862873 0.061768988,148.897873 C0.061768988,148.897873 -0.885231012,154.143873 4.63676899,154.143873 L128.369769,154.143873 L128.369769,133.885873 Z" id="Fill-15" fill="#FFF"/>
                            <path d="M291.427369,154.143673 L104.125369,154.143673 L155.804369,16.8866731 C158.941369,9.13767308 165.583369,1.39167308 176.064369,1.39167308 L332.657369,1.50967308 C349.488369,1.38767308 351.600369,7.63367308 347.981369,17.4746731 C337.556369,45.8156731 310.743369,125.167673 301.525369,147.401673 C299.831369,151.484673 295.848369,154.143673 291.427369,154.143673" id="Fill-17" fill="#FFF"/>
                            <path d="M331.825869,0.472773078 C288.588869,0.368773078 228.596869,0.280773078 185.250869,0.171773078 C170.143869,-0.767226922 160.767869,1.79077308 154.508869,16.7147731 C140.546869,53.9127731 124.393869,97.3387731 110.856869,134.831773 L14.822869,143.498773 C23.939869,142.767773 111.379869,136.466773 111.634869,135.662773 C127.012869,97.3197731 143.173869,52.3277731 158.530869,14.1057731 C164.816869,2.51877308 173.500869,2.15277308 185.250869,2.62477308 L217.823869,2.60777308 C239.133869,2.71277308 294.971869,2.40477308 315.545869,2.55477308 C322.945869,3.41577308 346.266869,-0.690226922 348.296869,8.78777308 C348.671869,17.7947731 343.153869,26.7887731 340.525869,35.4077731 C338.150869,43.1977731 329.799869,66.1667731 329.799869,66.1667731 C321.256869,90.2607731 311.655869,119.224773 302.571869,142.877773 C299.154869,153.682773 294.621869,153.788773 284.461869,153.531773 C279.322869,153.570773 265.939869,154.131773 260.653869,154.177773 C260.017869,154.186773 259.380869,154.620773 260.031869,154.638773 C269.386869,154.517773 283.454869,155.017773 292.670869,154.716773 C298.834869,154.369773 302.237869,148.676773 303.891869,143.396773 C313.711869,118.074773 322.541869,92.3867731 331.558869,66.7807731 C335.051869,56.1947731 343.917869,30.7067731 347.853869,20.7337731 C354.162869,4.75377308 346.736869,-0.0142269223 331.825869,0.472773078" id="Fill-19" fill="#090E2B"/>
                        </g>
                        <path d="M490.796,673.4745 C490.431,673.5035 490.215,673.5225 490.204,673.5255 L490.796,673.4745 Z" id="Fill-21" fill="#000"/>
                        <path d="M703,681.77464 L736.34249,681.77464 C748.166804,681.993091 741.981102,657.808751 754.899595,660.161144 C765.929232,662.168668 765.431062,668.637243 764.285968,681.679573 C766.51925,678.887244 770.763185,677.96793 772.215766,678.916573 C774.293307,680.273801 771.968178,680.675306 768.461017,686.296372 C764.405769,692.794276 752.878959,698.87146 739.139833,700.026418 C735.004717,700.37331 711.248268,704 711.248268,704 L703,681.77464 Z" id="Fill-23" fill="#ff8282"/>
                        <path d="M508.484788,669.782529 C508.484788,669.782529 517.751639,663.180324 525.699971,664.113704 C536.303446,665.356531 537.148265,660.574721 539.859729,664.742678 C540.45613,665.657915 538.585461,668.596148 533.674452,669.687779 C527.045646,671.160424 529.823489,675.249759 529.823489,675.249759 C529.823489,675.249759 552.845793,680.740173 556.083257,681.318748 C557.871455,681.638274 558.353203,686.726508 544.835105,690.738229 C537.78389,692.830776 527.70742,692.886214 515.829678,693.28537 C512.525835,693.398263 474.530133,705 474.530133,705 L472.187774,686.067295 L471,666.393733 L508.484788,669.782529 Z" id="Fill-25" fill="#ff8282"/>
                        <path d="M627,702.024576 C627,702.024576 722.408936,705.88086 728.352355,704.813133 C734.294776,703.745407 722.25232,682 722.25232,682 L636.045808,682 L627,702.024576 Z" id="Fill-27" fill="#3615F6"/>
                        <g id="blush" transform="translate(703.000000, 593.000000)">
                            <path d="M35.1719616,15.0154 L35.1569616,15.0154 C30.8929616,15.0154 29.0199616,13.2234 28.2829616,12.1544 C27.7349616,11.3584 27.9349616,10.2684 28.7309616,9.7204 C29.5259616,9.1714 30.6169616,9.3734 31.1639616,10.1674 C31.7549616,11.0244 33.2109616,11.5154 35.1579616,11.5154 L35.1709616,11.5154 C38.1609616,11.5154 40.2469616,10.3894 41.2259616,9.7184 C42.0239616,9.1694 43.1119616,9.3744 43.6579616,10.1704 C44.2049616,10.9674 44.0029616,12.0564 43.2059616,12.6034 C40.9419616,14.1594 38.0879616,15.0154 35.1719616,15.0154" id="Fill-29" fill="#090E2B"/>
                            <path d="M23.1172616,17.7987 C20.7432616,23.9947 13.8222616,29.0177 7.66026163,29.0177 C1.49826163,29.0177 -1.57173837,23.9947 0.803261628,17.7987 C3.17726163,11.6037 10.0972616,6.5807 16.2602616,6.5807 C22.4222616,6.5807 25.4922616,11.6037 23.1172616,17.7987" id="Fill-31" fill="#FF00A4"/>
                            <path d="M66.9864616,17.7987 C64.6114616,23.9947 57.6904616,29.0177 51.5284616,29.0177 C45.3664616,29.0177 42.2964616,23.9947 44.6714616,17.7987 C47.0464616,11.6037 53.9654616,6.5807 60.1284616,6.5807 C66.2914616,6.5807 69.3614616,11.6037 66.9864616,17.7987" id="Fill-33" fill="#FF00A4"/>
                            <path d="M26.9229616,2.951 C26.2979616,4.582 24.4769616,5.903 22.8559616,5.903 C21.2339616,5.903 20.4259616,4.582 21.0509616,2.951 C21.6759616,1.321 23.4969616,1.27897692e-13 25.1179616,1.27897692e-13 C26.7389616,1.27897692e-13 27.5479616,1.321 26.9229616,2.951" id="Fill-35" fill="#090E2B"/>
                            <path d="M57.8731616,2.951 C57.2481616,4.582 55.4271616,5.903 53.8061616,5.903 C52.1841616,5.903 51.3761616,4.582 52.0011616,2.951 C52.6261616,1.321 54.4461616,1.27897692e-13 56.0681616,1.27897692e-13 C57.6891616,1.27897692e-13 58.4971616,1.321 57.8731616,2.951" id="Fill-37" fill="#090E2B"/>
                        </g>
                        <path d="M419.019737,583.172044 C410.530191,605.552303 363.3747,655.528851 363.3747,655.528851 C363.3747,655.528851 473.683867,666.975335 489.978722,666.973336 C490.357301,672.702075 485.558644,716.183321 485.558644,716.183321 C437.5531,722.984449 285.152802,742.653251 273.084241,702.373183 C247.93924,618.451959 346.605373,503.936153 359.273267,488.450969 C377.017508,466.759318 430.374094,553.239085 419.019737,583.172044" id="Fill-39" fill="#3615F6"/>
                        <path d="M489.714312,666.434477 C447.358945,664.422509 408.7689,657.397047 366.316447,653.664801 C381.269639,637.654672 395.80246,621.172661 408.277466,603.150564 C412.554239,596.793103 416.437665,590.47845 418.982911,583.201119 C419.06098,582.96916 419.670517,581.083625 419.438313,581 C409.526568,601.201314 393.244203,620.575343 377.831606,637.385879 C372.65604,642.973794 367.381386,648.497 362.005644,653.864903 C361.11686,654.701149 359.893781,656.197432 362.974499,656.402511 C395.524215,658.572769 428.11797,662.632544 460.597624,665.661945 C471.483228,666.455383 477.18726,666.960117 488.13592,667 C489.896473,667.006907 490.378898,666.418548 489.714312,666.434477" id="Fill-42" fill="#090E2B"/>
                        <path d="M486,716 C442.895601,721.948976 400.874402,727.750965 357.324742,726.411204 C356.560012,726.333738 357.27782,727.061718 358.116427,727.143156 C388.065678,730.39076 453.126606,723.494319 462.912351,721.607332 C481.155048,718.08959 485.2173,717.229521 486,716" id="Fill-44" fill="#090E2B"/>
                    </g>
                </g>
                <g id="Head" transform="translate(399.000000, 26.000000) scale(1 1)">
                    <g id="Head/Short Dark" stroke="none" stroke-width="1" fill="none" fill-rule="evenodd">
                        <path d="M240.4603,89.8187 C240.4603,89.8187 247.1233,114.1517 245.6803,124.1867 C243.8023,137.2407 233.4533,136.1067 234.8383,140.4027 C239.5723,155.0927 226.4003,160.2027 226.4003,160.2027 C226.4003,160.2027 223.6603,145.9857 223.9103,131.6937 C224.1613,117.4007 221.6543,107.1207 221.6543,107.1207 L240.4603,89.8187 Z" id="hair" fill="#090E2B"/>
                        <path d="M192.5908,267.0274 C224.2428,264.4884 238.020209,246.70182 239.5388,229.4834 C241.504327,207.197431 236.0058,190.5654 233.1908,174.2604 C223.4298,117.7414 239.1068,106.6534 187.1538,96.2284 C159.9338,90.7674 99.9898,97.9554 85.2798,132.7664 C79.5308,146.3714 88.6708,170.3194 90.2748,189.9154 C94.4538,240.9794 154.1008,270.1154 192.5908,267.0274 Z" id="face" fill="#ff8282"/>
                        <path d="M123.8589,41.6834 C86.5719,47.4364 78.1609,71.7324 76.2619,82.4054 C75.4829,79.1624 74.9369,75.5634 76.4449,72.9134 C76.9879,71.8554 75.3329,71.0214 74.8099,72.0874 C72.6969,76.5784 72.7039,81.6154 73.8029,86.3604 C69.7519,85.7334 65.5239,86.3634 61.9699,88.4944 C61.1589,88.9754 61.9019,90.2394 62.7189,89.7804 C65.1059,88.7554 67.7359,88.4754 70.3069,88.7714 C65.6579,90.4604 58.9819,94.3084 54.3399,103.0204 C49.3439,112.3974 47.7859,126.1464 49.9529,136.9844 C54.0639,157.5394 70.9269,165.4554 68.4039,170.3494 C61.0699,184.5724 69.3379,208.4314 79.1349,218.4284 C92.9599,232.5354 107.8639,235.3934 108.1179,219.3434 C108.3729,203.2944 103.6129,173.2844 107.7139,170.4274 C115.8699,180.5164 119.6079,181.7564 120.5419,175.2714 C122.4569,161.9584 118.0209,155.6414 113.1789,148.5664 C106.7739,139.2044 131.5549,136.0114 131.8529,120.6364 C135.6089,124.7334 138.4359,132.6264 153.2019,136.6944 C165.6119,140.1134 180.8789,140.2074 193.0839,122.5414 C202.3029,138.2494 224.0969,132.0104 230.7859,130.2904 C266.4129,121.1334 253.4839,53.9264 211.3139,60.7074 C184.4609,65.0254 158.9859,36.2624 123.8589,41.6834 Z" id="hair" fill="#090E2B"/>
                        <path d="M113.767,179.4916 C109.26,169.7266 100.831,161.4866 86.463,164.4866 C71.599,167.5916 69.788,197.7756 96.185,208.6956 C104.335,212.0666 107.242,210.4316 109.479,208.2106 C114.731,202.9936 115.788,183.8716 113.767,179.4916" id="ear" fill="#ff8282"/>
                        <path d="M89.6861,174.4214 C90.2851,174.4984 90.8771,174.6084 91.4611,174.7554 C92.6281,175.0464 93.7631,175.4654 94.8541,175.9824 C97.0271,177.0314 99.0231,178.5214 100.5801,180.3734 C101.0121,180.7984 101.3281,181.3184 101.6901,181.7984 C102.0461,182.2824 102.3891,182.7724 102.6541,183.3114 C102.9371,183.8354 103.2311,184.3534 103.4921,184.8844 L104.1211,186.5354 L104.4261,187.3594 L104.6281,188.2104 C104.7621,188.7754 104.8961,189.3394 105.0111,189.9034 C105.1831,191.0424 105.2721,192.1864 105.3561,193.3124 C105.3851,193.7104 105.0871,194.0564 104.6901,194.0854 C104.3601,194.1094 104.0661,193.9084 103.9581,193.6114 L103.9251,193.5194 C103.5551,192.4924 103.3001,191.4554 102.9281,190.4634 C102.7101,189.9784 102.5101,189.4924 102.3111,189.0094 L102.0121,188.2864 L101.6351,187.6054 L100.9011,186.2504 L100.0301,184.9974 C99.7641,184.5654 99.4291,184.1884 99.0891,183.8194 C98.7411,183.4584 98.4681,183.0324 98.0751,182.7194 C96.6741,181.3004 94.9981,180.2114 93.2291,179.3164 C92.7861,179.0924 92.3251,178.9044 91.8721,178.6934 C91.4061,178.5204 90.9431,178.3264 90.4701,178.1654 C89.5471,177.8334 88.5011,177.5664 87.6531,177.3764 L87.4811,177.3384 C86.6491,177.1514 86.1261,176.3264 86.3131,175.4954 C86.4731,174.7824 87.1041,174.2964 87.8041,174.2904 C88.5141,174.2844 89.0751,174.3324 89.6861,174.4214 Z" id="Fill-9" fill="#090E2B"/>
                        <path d="M99.0443,183.8384 C98.9553,183.8094 98.7863,183.7934 98.6423,183.7684 C98.3093,183.7504 97.9563,183.7384 97.5883,183.7934 C96.8583,183.8794 96.1273,184.1034 95.4523,184.4294 C94.7723,184.7454 94.1523,185.1914 93.5983,185.7054 C93.0253,186.1984 92.5623,186.8304 92.1123,187.4554 L92.0493,187.5424 C91.3583,188.5044 90.0173,188.7224 89.0563,188.0304 C88.0943,187.3384 87.8763,185.9984 88.5683,185.0364 C88.6163,184.9694 88.6773,184.8954 88.7323,184.8354 C89.4763,184.0294 90.2533,183.2454 91.1863,182.6214 C92.0953,181.9834 93.0963,181.4544 94.1663,181.1164 C95.2323,180.7694 96.3473,180.5834 97.4833,180.6024 C98.0483,180.6024 98.6303,180.6854 99.2183,180.8124 C99.5263,180.9034 99.8173,180.9764 100.1563,181.1384 C100.4673,181.2904 100.8843,181.4634 101.3493,182.0784 C101.7863,182.7264 101.6163,183.6054 100.9693,184.0434 C100.3223,184.4804 99.4423,184.3114 99.0043,183.6644 C99.1613,183.9274 99.1723,183.8464 99.0443,183.8384 Z" id="Fill-11" fill="#090E2B"/>
                        <path d="M145.0532,259.7084 C141.4982,257.8384 132.4912,252.7524 130.5242,250.3674 C129.4982,249.1244 130.9902,250.3784 132.7172,251.3724 C135.0152,252.6964 144.1192,257.8464 155.4622,261.5594 C156.4462,261.8814 162.7232,263.6464 162.9132,263.9644 C163.0902,264.2614 162.5602,264.8804 161.8432,264.8734 C157.0202,264.8304 149.4132,262.0014 145.0532,259.7084 Z" id="Fill-13" fill="#090E2B"/>
                    </g>
                </g>
                <g id="Expressions" transform="translate(520.000000, 159.000000) scale(1 1)">
                    <g id="Expressions/Smile" stroke="none" stroke-width="1" fill="none" fill-rule="evenodd">
                        <g id="eye1" transform="translate(21.027098, 10.213671)">
                            <path d="M0.0487023333,7.96572872 C1.82485498,-0.0171869856 25.1977023,-2.81531309 35.4827023,3.36568691 C39.0387023,5.47868691 45.6427023,11.2837287 39.7957023,14.4437287 C38.2517023,15.1157287 36.7517023,14.4267287 35.4827023,13.6077287 C21.4647023,3.86572872 -1.18942441,13.5304877 0.0487023333,7.96572872 Z" id="Fill-1" fill="#090E2B"/>
                            <path d="M19.0113023,22.3973287 C13.7233023,23.8973287 9.19030233,28.1473287 8.76930233,31.6693287 C8.51430233,33.7973287 16.8643023,38.9063287 24.9173023,39.3033287 C35.5113023,39.8243287 40.8513023,34.0853287 40.8324531,32.2513287 C40.1193023,26.7013287 33.7283023,18.2233287 19.0113023,22.3973287 Z" id="Fill-6" fill="#FFF"/>
                            <path d="M35.3981023,25.5550287 C27.2551023,19.4010287 14.6431023,23.4110287 8.76910233,31.6690287 C8.43210233,32.0970287 8.52910233,31.0200287 8.76310233,30.5290287 C11.5971023,24.5820287 16.7101023,21.7750287 22.6381023,20.5510287 C26.2051023,19.8140287 29.5311023,19.7540287 33.0101023,21.3120287 C34.3551023,21.9130287 36.7311023,23.7450287 38.5671023,25.8170287 C39.9991023,27.4320287 41.2051023,30.2010287 39.5481023,29.2220287 C38.2511023,28.4550287 36.4781023,26.3720287 35.3981023,25.5550287 Z" id="Fill-8" fill="#090E2B"/>
                            <path d="M24.8135023,36.0623287 C29.3405023,36.0623287 33.0105023,32.7143287 33.0105023,28.5833287 C33.0105023,24.4533287 29.3405023,21.1043287 24.8135023,21.1043287 C20.2865023,21.1043287 16.6165023,24.4533287 16.6165023,28.5833287 C16.6165023,32.7143287 20.2865023,36.0623287 24.8135023,36.0623287 Z" id="Fill-10" fill="#090E2B"/>
                        </g>
                        <g id="eye2" transform="translate(81.203378, 15.000183)">
                            <path d="M23.2557812,1.861246 C26.6096324,3.34897691 31.0744206,8.28711729 27.357522,8.28711729 C23.6406234,8.28711729 15.5900245,7.23270759 10.1930245,9.45970759 C8.30802454,9.94170759 6.87752199,10.8641173 4.98452199,11.0891173 C0.67652199,11.9281173 -1.66408888,6.76839233 1.38185604,3.64904337 C4.82290212,0.125071736 16.4397812,-1.545754 23.2557812,1.861246 Z" id="Fill-4" fill="#090E2B"/>
                            <path d="M19.455322,34.2343173 C24.826322,32.9853173 28.843322,28.1153173 28.389322,24.4763173 C27.503322,19.6543173 18.218322,16.5753173 13.017322,19.2083173 C7.86632199,21.8153173 4.64332199,27.6403173 5.05932199,29.9403173 C5.66032199,31.5323173 13.966322,35.5113173 19.455322,34.2343173 Z" id="Fill-12" fill="#FFF"/>
                            <path d="M15.011222,31.6060173 C18.549222,31.6060173 21.417222,28.8520173 21.417222,25.4560173 C21.417222,22.0590173 19.396222,18.8490173 15.011222,19.3060173 C11.492222,19.6720173 8.60422199,22.0590173 8.60422199,25.4560173 C8.60422199,28.8520173 11.473222,31.6060173 15.011222,31.6060173 Z" id="Fill-14" fill="#090E2B"/>
                            <path d="M5.25072199,26.6376173 C7.27972199,19.0636173 16.440722,15.1686173 23.685722,18.7546173 C24.705722,19.2866173 26.361722,20.4806173 27.601722,21.9226173 C28.742722,23.2526173 28.593722,23.9496173 28.127722,23.8116173 C27.355722,23.5816173 25.722722,22.1166173 24.395722,21.4866173 C17.685722,18.3036173 10.704722,20.0896173 5.59372199,27.5586173 C5.34272199,27.9456173 5.10472199,27.0746173 5.25072199,26.6376173" id="Fill-22" fill="#090E2B"/>
                        </g>
                        <path d="M86.9879908,70.3386563 C86.0131141,75.2575144 79.9689699,75.7359636 76.0323155,74.6212963 C72.832522,73.7152719 72.0034674,71.851321 73.0853454,71.2537752 C74.8485675,70.2799076 80.4997296,72.9889887 82.5858367,70.4027854 C86.305606,65.7912866 74.8914605,48.8346319 78.5177277,51.5592059 C83.3102149,55.1600121 87.6386051,67.0559034 86.9879908,70.3386563 Z" id="nose" fill="#090E2B"/>
                        <path d="M89.6387968,90.5818454 C88.8707672,91.1602445 87.0677709,93.5463983 85.244688,95.0617056 C81.1444698,98.4697185 74.4745751,99.2530639 70.5444286,98.4697185 C63.1559339,96.997065 59.9595527,92.178225 58.0067117,90.8585998 C56.0538707,89.5389745 59.7200172,87.8442758 62.5249361,88.0931395 C65.3298551,88.3420033 67.2123883,89.156182 72.5654423,91.4592717 C76.0199316,92.9455259 83.8310598,90.8585998 86.0381944,89.5389745 C90.2484115,87.021725 91.5113061,89.1716685 89.6387968,90.5818454 Z" id="Fill-18" fill="#090E2B"/>
                    </g>
                </g>
                <g id="Facial Accesories" transform="translate(517.000000, 209.000000) scale(1 1)" fill="#000">
                    <g id="Facial Accesories/None" stroke="none" stroke-width="1" fill="none" fill-rule="evenodd" fill-opacity="0"/>
                </g>
                <g id="Glass" transform="translate(520.000000, 164.000000) scale(1 1)" fill="#000">
                    <g id="Glass/None" stroke="none" stroke-width="1" fill="none" fill-rule="evenodd" fill-opacity="0"/>
                </g>
            </g>
        </g>
        <g transform="translate(2564.000000, 1305.000000) scale(-1, 1) translate(-2564.000000, -1305.000000) translate(2009.000000, 555.000000) scale(1 1)" id="Master/Character/Standing">
            <g id="Master/Character/Standing" stroke="none" stroke-width="1" fill="none" fill-rule="evenodd">
                <g id="Lower Body/Standing" transform="translate(-64.000000, 629.000000) scale(1 1)">
                    <g id="Lower Body/Standing/Stand One Leg" stroke="none" stroke-width="1" fill="none" fill-rule="evenodd">
                        <g id="leg-2" transform="translate(542.000000, 726.000000)">
                            <path d="M85.4175702,9.9475983e-14 C85.4175702,9.9475983e-14 70.9765702,50.33 69.1545702,68.549 C68.6725702,73.368 80.6475702,84.092 80.6475702,84.092 L60.3095702,108.001 L16.9515702,102.467 L12.7325702,2.444 L85.4175702,9.9475983e-14 Z" id="leg" fill="#ff8282"/>
                            <g id="shoe-2" transform="translate(0.000000, 75.797772)">
                                <path d="M176.78477,52.5498283 C171.36377,35.7908283 132.37077,24.8268283 104.21377,16.5228283 C94.7357702,13.7268283 81.4637702,-0.183171687 75.3227702,0.00182831299 C66.3817702,0.272828313 75.1987702,19.0038283 45.2637702,17.4578283 C37.3397702,17.0488283 36.7487702,8.64382831 19.5237702,6.77882831 C16.7257702,6.47682831 12.4467702,5.94182831 8.77177019,12.6558283 C6.72377019,16.3998283 -1.60722981,50.1628283 6.70777019,63.8988283 C64.6557702,65.2388283 124.25377,63.5748283 175.73277,62.9418283 C180.75977,62.8798283 178.17177,56.8378283 176.78477,52.5498283" id="Fill-14" fill="#090E2B"/>
                                <path d="M164.80617,68.8359283 L24.9981702,71.7059283 C15.6471702,72.1069283 1.64517019,68.9319283 0.269170191,61.1639283 C-0.757829809,55.3609283 1.45217019,42.7129283 1.91717019,41.8709283 C5.15717019,36.0009283 32.9261702,40.8649283 41.0691702,60.6299283 C92.0921702,64.3049283 178.95817,60.3159283 178.95817,60.3159283 C178.95817,60.3159283 180.28617,67.9929283 164.80617,68.8359283" id="Fill-16" fill="#FF0057"/>
                                <path d="M110.05327,28.5977283 C113.74827,21.0357283 115.37127,19.7177283 113.78227,18.5337283 C109.98327,15.7017283 90.7502702,24.5397283 89.2512702,29.7697283 C88.1282702,33.6887283 100.91927,22.3177283 111.15527,20.5967283 C106.96927,24.4747283 103.09127,36.3357283 107.21427,33.9617283 C127.29827,22.3967283 130.47927,25.0567283 130.50227,24.6277283 C130.61527,22.5937283 122.99727,20.9707283 110.05327,28.5977283" id="Fill-19" fill="#FF0057"/>
                            </g>
                        </g>
                        <g id="leg-1" transform="translate(515.159812, 671.090226) rotate(-8.000000) translate(-515.159812, -671.090226) translate(446.659812, 563.090226)">
                            <path d="M55.1088938,42.095 C55.1088938,42.095 96.7988938,16.759 116.099894,3.41060513e-13 C130.862894,42.935 136.509894,58.94 136.509894,58.94 C136.509894,58.94 100.991894,74.523 88.8768938,82.011 C83.9988938,85.026 87.9838938,104.932 87.9838938,104.932 C87.9838938,104.932 61.7978938,103.857 57.4858938,89.033 C53.1728938,74.211 55.1088938,42.095 55.1088938,42.095" id="Fill-1" fill="#ff8282"/>
                            <g id="shoe-1" transform="translate(-0.000000, 39.429041)">
                                <path d="M82.6333938,169.923759 C95.8113938,158.236759 90.2163938,118.119759 86.5313938,88.995759 C85.2903938,79.192759 92.7103938,61.455759 90.0773938,55.904759 C86.2443938,47.821759 72.6213938,63.411759 62.0313938,35.369759 C59.2293938,27.946759 66.6913938,24.034759 61.4903938,7.50875902 C60.6463938,4.82375902 59.4193938,0.690759021 51.7953938,0.0167590207 C47.5453938,-0.358240979 13.2753938,5.55075902 4.02739384,18.675759 C26.0393938,72.297759 51.4663938,126.224759 72.6933938,173.128759 C74.7663938,177.707759 79.2623938,172.913759 82.6333938,169.923759" id="Fill-6" fill="#090E2B"/>
                                <path d="M62.9116938,165.483359 L4.21069384,38.563359 C0.0926938412,30.157359 -2.61330616,16.057359 3.94969384,11.681359 C8.85269384,8.41335902 21.3256938,5.36635902 22.2846938,5.45435902 C28.9606938,6.06735902 35.6416938,33.456359 20.8026938,48.841359 C37.8996938,97.056359 76.3916938,175.031359 76.3916938,175.031359 C76.3916938,175.031359 69.8916938,179.325359 62.9116938,165.483359" id="Fill-8" fill="#FF0057"/>
                                <path d="M77.8120938,99.188459 C86.2210938,99.541459 88.0800938,100.499459 88.5270938,98.568459 C89.5970938,93.952459 73.7880938,79.878459 68.3960938,80.603459 C64.3550938,81.146459 79.9020938,88.302459 85.5830938,96.989459 C80.3520938,94.709459 67.9310938,95.915459 71.7590938,98.739459 C90.4090938,112.499459 89.2480938,116.479459 89.6500938,116.329459 C91.5590938,115.617459 89.9910938,107.987459 77.8120938,99.188459" id="Fill-10" fill="#FF0057"/>
                            </g>
                        </g>
                        <path d="M559.052071,-17.8288135 L705.122061,2.6999849 C705.122061,2.6999849 705.122105,2.70783391 705.12219,2.72342195 L705.124235,2.75434839 C718.996153,4.64986141 728.813179,6.02955443 728.813179,6.02955443 C733.117322,12.2596974 736.34168,18.6154616 738.486254,25.0968471 C774.74713,134.685377 800.586579,239.136408 820.622201,329.365429 C827.168201,358.843429 848.742046,420.392377 792.679046,463.055377 C764.680462,484.36196 682.743759,532.708034 620.331014,568.731505 C600.874529,658.586344 584.843673,725.913568 581.554546,727.843577 C573.199546,732.745577 491.318546,753.782577 491.318546,727.843577 C488.643546,622.172577 510.498546,512.738577 518.160546,431.823577 C525.281546,356.619577 526.423936,307.838024 518.160546,189.687577 C508.075546,45.4916348 559.052071,-17.8288135 559.052071,-17.8288135 L559.052071,-17.8288135 Z M674.193778,303.741721 L673.274593,308.592512 C666.934585,342.000168 660.02046,377.236768 652.921337,412.511488 C673.457724,396.817012 693.726714,382.688998 711.244046,372.936377 C702.782154,358.759122 689.225769,333.112038 674.193778,303.741721 Z" id="Combined-Shape" fill="#FFB201" transform="translate(660.642203, 361.355918) rotate(-8.000000) translate(-660.642203, -361.355918)"/>
                        <path d="M682.938633,103.929024 C679.897633,136.976024 675.475633,170.259024 670.837633,203.107024 C665.551633,233.822024 661.769633,271.022024 652.449633,300.572024 C651.859633,302.441024 651.949633,300.352024 651.982633,299.741024 C653.505633,271.123024 662.896633,230.941024 666.709633,202.479024 C670.548633,178.740024 674.570633,152.399024 678.269633,128.499024 L682.700633,101.764024 C682.758633,101.297024 683.000633,103.409024 682.938633,103.929024" id="Fill-23" fill="#000" transform="translate(667.453075, 201.514715) rotate(-8.000000) translate(-667.453075, -201.514715)"/>
                        <path d="M671.307247,414.599774 C665.618247,466.142774 653.627247,521.476774 638.583247,570.630774 C638.306247,571.537774 638.835247,568.872774 638.949247,568.145774 C642.483247,545.476774 650.161247,514.120774 654.110247,492.054774 C658.708247,469.187774 664.744247,437.875774 670.629247,415.588774 C670.746247,415.050774 671.374247,414.013774 671.307247,414.599774" id="Fill-25" fill="#000" transform="translate(654.908110, 492.621261) rotate(-8.000000) translate(-654.908110, -492.621261)"/>
                    </g>
                </g>
                <g id="Upper Body/Standing" transform="translate(69.000000, -172.000000) scale(1 1)">
                    <g id="Upper Body/Standing/Pointing Up 1" stroke="none" stroke-width="1" fill="none" fill-rule="evenodd">
                        <path d="M871.547825,317.147257 C871.547825,317.147257 874.042491,311.628273 876.162657,307.845171 C878.961915,302.850755 876.723907,297.058474 871.174324,304.688748 C869.676326,306.747981 840.594198,339.06202 833.50767,345.038501 C780.121027,390.065325 716.122568,442.148801 701.213496,449.209457 C680.353378,459.087167 644.600166,464.544084 626.461411,480.649548 C617.654183,488.470028 651.531901,553 651.531901,553 C651.531901,553 707.133583,527.649512 724.886854,516.532457 C746.978326,502.696454 812.932171,420.878737 851.231979,368.718177 C859.7456,357.124606 875.730235,355.303632 881.415635,338.857799 C884.915957,328.735823 871.547825,317.147257 871.547825,317.147257" id="hand-2" fill="#ff8282"/>
                        <path d="M496.228267,444.571797 C496.228267,444.571797 493.117669,467.789502 495.585937,472.399465 C496.789556,474.645985 505.084818,482.675695 536.523972,487.017835 C540.02377,490.712401 523.294174,527.801967 516.764819,533.95991 C510.236465,540.118853 489.273694,543.40269 449.404208,511.791514 C409.534723,480.17934 415.288679,480.58907 415.288679,480.58907 C415.288679,480.58907 437.631159,480.105389 442.827829,471.96775 C444.649765,469.114629 446.667802,425.542334 442.254535,412.392996 C437.841267,399.243659 496.228267,444.571797 496.228267,444.571797" id="Fill-4" fill="#ff8282"/>
                        <path d="M321.103232,548 C321.103232,548 241.263001,625.825096 221.373737,645.706208 C206.230399,660.843339 128.418418,735.377755 79.9215135,779.758934 C64.7211405,793.669811 42.627517,800.909308 27.4191392,809.224028 C20.43083,813.043818 -4.88177841,826.409582 -2.88854933,830.949521 C-1.16448623,834.876333 29.8186188,830.371402 38.3628874,833.805112 C30.2989149,841.659736 31.8658811,849.055266 45.7234261,844.711368 C64.8652294,838.711127 73.5936115,820.747411 89.0431381,810.0562 C107.867746,797.029506 244.415945,726.397897 280.710325,690.949566 C307.334742,664.944187 371,629.234801 371,629.234801 L321.103232,548 Z" id="hand-1" fill="#ff8282"/>
                        <path d="M345.649408,652.592613 C361.120602,640.141689 391.302145,618.937412 391.302145,618.937412 C391.302145,618.937412 327.884665,785.313124 329.806801,808.71574 C330.586588,818.20576 371.855237,816.149898 420.306951,830.611419 C500.977233,854.689307 586.401187,848.886574 578.251913,810.648039 C564.544679,746.330099 582.166263,592.175276 582.166263,592.175276 L669.02079,557.651941 C679.204107,538.68601 675.91345,463.642412 662.690755,459.044702 C659.199876,457.830514 561.878717,481.754211 561.878717,481.754211 C561.878717,481.754211 523.013523,479.130806 520.619863,480.420005 C518.227204,481.709204 512.653009,516.960652 504.844331,518.597905 C483.030087,523.174612 415.671227,477.102492 415.671227,477.102492 C415.671227,477.102492 382.607482,482.387309 364.635508,497.912708 C352.315817,508.555353 267,593.076415 267,593.076415 C267,593.076415 330.177213,665.043537 345.649408,652.592613 Z" id="Fill-8" fill="#FF0057"/>
                        <path d="M391,619.771333 C392.752664,616.262844 405.792041,604.039786 413.777621,597.391058 C420.398907,591.876417 423.546895,590.195013 413.900738,600.49083 C410.416431,603.63714 393.53841,622.263089 391,619.771333" id="Fill-10" fill="#000"/>
                        <path d="M583.789026,562.007767 C584.06561,562.935679 584.432694,580.969878 582.255609,590.235209 C582.075626,590.999604 581.97089,591.89895 581.740064,591.987604 C580.397817,592.503768 581.176727,576.770633 581.773621,569.02227 C582.51084,559.45059 583.320256,560.43662 583.789026,562.007767" id="Fill-12" fill="#000"/>
                    </g>
                </g>
                <g id="Head" transform="translate(399.000000, 26.000000) scale(1 1)">
                    <g id="Head/Long Hair Hat Blue" stroke="none" stroke-width="1" fill="none" fill-rule="evenodd">
                        <path d="M70.2561019,97.4988116 C55.8815648,61.6950724 65.0293703,37.9505667 97.6995186,26.2652945 C146.704741,8.73738625 185.296388,17.974116 190.235438,59.3051654 C198.157562,125.599223 94.9177557,158.925445 70.2561019,97.4988116 Z" id="Path-10" fill="#090E2B"/>
                        <path d="M146.175763,222.265294 C53.2245817,222.265294 -22,206.483116 -22,143.463659 C-22,80.4451763 31.2016807,46.241742 130.854945,31.590673 C230.508209,16.939604 302,13.2004582 302,96.454099 C302,159.473556 239.129312,222.265294 146.175763,222.265294 Z" id="Fill-1" fill="#090E2B"/>
                        <path d="M-106.281498,235.5 C-66.0679622,209.611032 -17.144614,224.3795 8.88738598,215.1235 C51.195386,200.0805 45.4881941,152.689596 85.35,135.013504 C96.1764599,100.831573 126.660547,83.7612703 171.658946,83.7612703 C242.273176,83.7612703 244.238693,140.447 245.970693,150 C252.335693,185.102 239.1158,253.4885 252.4698,276.9925 C274.8878,316.4545 264.5268,342.2155 252.8368,351.6275 C240.2348,361.7745 203.5688,352.4845 195.6138,345.8925 C180.4328,333.3135 165.1148,328.3775 165.1148,286.6725 C157.1888,274.5035 156.7218,270.9005 158.5118,256.1275 C160.6658,238.3535 162.69106,222.2745 124.43506,215.1235 C127.545511,245.85586 132.654096,267.016784 118.354071,282.575637 C104.054045,298.13449 89.6971105,298.13449 72.0618,304 C35.0070839,316.324411 22.5879437,420.655109 -90.4692058,376.973466 C-151.085206,354.330466 -146.495034,261.388968 -106.281498,235.5 Z" id="Fill-3" fill="#001386"/>
                        <path d="M234.766351,156.809989 C243.747501,193.621941 240.591641,218.766488 232.575188,234.654952 C223.138867,253.357571 215.14308,262.203043 198.631249,262.783783 C166.782298,263.903948 146.769876,252.085896 135.517429,241.802756 C123.663779,230.9702 119.685475,218.292019 116.4017,210.0813 C115.990445,209.052937 115.616439,207.955724 115.276593,206.802752 L115.615,206.7175 C104.397,209.6475 85.35,199.8205 85.35,176.7455 C85.35,166.516571 101.568204,153.837822 112.35613,165.811952 C112.490126,163.05239 112.62352,161.390056 112.62352,161.390056 C120.16352,131.230056 163.008694,114.037304 190.5347,110.2713 C238.201544,103.749703 225.785202,119.998038 234.766351,156.809989 Z" id="Combined-Shape" fill="#ff8282"/>
                        <path d="M110.260906,179.030159 C107.387906,173.262159 100.466906,169.688159 94.4889061,173.724159 C93.1359061,174.637159 94.9599061,175.262159 95.5309061,175.198159 C102.631906,174.269159 105.450906,176.210159 107.783906,180.247159 C105.552906,180.794159 103.323906,182.779159 103.038906,185.021159 C102.864906,186.397159 103.340906,190.470159 104.390906,189.185159 C105.116906,188.297159 103.516906,182.239159 108.805906,182.792159 C108.885906,182.810159 108.957906,182.814159 109.032906,182.821159 C109.281906,183.419159 111.272906,184.657159 112.127906,183.619159 C112.651906,182.985159 111.572906,181.667159 110.260906,179.030159" id="Fill-8" fill="#090E2B"/>
                        <path d="M184.510972,83.8578 C156.443412,85.8888 116.344674,115.8978 109.891199,137.8978 C108.798428,141.6248 109.800397,161.00949 112.187365,165.38949 C115.363503,171.22049 115.016418,184.5168 124.481581,186.0588 C141.168954,188.7758 124.021313,163.9558 126.553271,157.4708 C136.09628,133.0178 166.368842,148.5498 184.510972,143.0138 C209.353739,135.4338 218.55617,130.0448 219.193538,129.0798 C222.416384,141.4558 239.795617,165.1488 245.815099,169.7678 C247.772938,171.2688 245.134915,144.3788 238.851728,122.6218 C235.049899,109.4558 211.193836,81.9268 184.510972,83.8578 Z" id="Fill-9" fill="#001386"/>
                        <path d="M107.2742,236.0906 C95.6422,236.0906 86.1782,226.6266 86.1782,214.9946 C86.1782,208.8476 88.8402,202.9286 93.5032,198.9136 C94.2692,199.6966 95.1862,200.5656 95.8692,201.1486 C91.8702,204.5926 89.1782,209.7216 89.1782,214.9946 C89.1782,224.9726 97.2962,233.0906 107.2742,233.0906 C117.2522,233.0906 125.3702,224.9726 125.3702,214.9946 C125.3702,205.0176 117.2522,196.8996 107.2742,196.8996 C106.4462,196.8996 105.7742,196.2276 105.7742,195.3996 C105.7742,194.5706 106.4462,193.8996 107.2742,193.8996 C118.9062,193.8996 128.3702,203.3626 128.3702,214.9946 C128.3702,226.6266 118.9062,236.0906 107.2742,236.0906" id="Fill-11" fill="#FFF"/>
                        <path d="M152.051658,254.807156 C147.761215,252.73178 139.062884,248.94355 137.181884,246.48855 C136.201884,245.20955 139.422217,246.726877 141.112217,247.783877 C143.361217,249.189877 152.489516,253.11955 163.690516,257.23955 C164.661516,257.59655 170.871516,259.58955 171.049516,259.91355 C171.216516,260.21655 170.663516,260.81555 169.946516,260.78355 C165.129516,260.56555 156.78076,257.09472 152.051658,254.807156 Z" id="Fill-4" fill="#090E2B" transform="translate(154.039749, 253.392391) rotate(5.000000) translate(-154.039749, -253.392391)"/>
                    </g>
                </g>
                <g id="Expressions" transform="translate(520.000000, 159.000000) scale(1 1)">
                    <g id="Expressions/Happy" stroke="none" stroke-width="1" fill="none" fill-rule="evenodd">
                        <g id="eye1" transform="translate(21.027098, 10.213671)">
                            <path d="M0.0487023333,7.96572872 C1.82485498,-0.0171869856 25.1977023,-2.81531309 35.4827023,3.36568691 C39.0387023,5.47868691 45.6427023,11.2837287 39.7957023,14.4437287 C38.2517023,15.1157287 36.7517023,14.4267287 35.4827023,13.6077287 C21.4647023,3.86572872 -1.18942441,13.5304877 0.0487023333,7.96572872 Z" id="Fill-1" fill="#090E2B"/>
                            <path d="M19.0113023,22.3973287 C13.7233023,23.8973287 9.19030233,28.1473287 8.76930233,31.6693287 C8.51430233,33.7973287 16.8643023,38.9063287 24.9173023,39.3033287 C35.5113023,39.8243287 40.8513023,34.0853287 40.8324531,32.2513287 C40.1193023,26.7013287 33.7283023,18.2233287 19.0113023,22.3973287 Z" id="Fill-6" fill="#FFF"/>
                            <path d="M35.3981023,25.5550287 C27.2551023,19.4010287 14.6431023,23.4110287 8.76910233,31.6690287 C8.43210233,32.0970287 8.52910233,31.0200287 8.76310233,30.5290287 C11.5971023,24.5820287 16.7101023,21.7750287 22.6381023,20.5510287 C26.2051023,19.8140287 29.5311023,19.7540287 33.0101023,21.3120287 C34.3551023,21.9130287 36.7311023,23.7450287 38.5671023,25.8170287 C39.9991023,27.4320287 41.2051023,30.2010287 39.5481023,29.2220287 C38.2511023,28.4550287 36.4781023,26.3720287 35.3981023,25.5550287 Z" id="Fill-8" fill="#090E2B"/>
                            <path d="M24.8135023,36.0623287 C29.3405023,36.0623287 33.0105023,32.7143287 33.0105023,28.5833287 C33.0105023,24.4533287 29.3405023,21.1043287 24.8135023,21.1043287 C20.2865023,21.1043287 16.6165023,24.4533287 16.6165023,28.5833287 C16.6165023,32.7143287 20.2865023,36.0623287 24.8135023,36.0623287 Z" id="Fill-10" fill="#090E2B"/>
                        </g>
                        <g id="eye2" transform="translate(81.203378, 15.000183)">
                            <path d="M23.2557812,1.861246 C26.6096324,3.34897691 31.0744206,8.28711729 27.357522,8.28711729 C23.6406234,8.28711729 15.5900245,7.23270759 10.1930245,9.45970759 C8.30802454,9.94170759 6.87752199,10.8641173 4.98452199,11.0891173 C0.67652199,11.9281173 -1.66408888,6.76839233 1.38185604,3.64904337 C4.82290212,0.125071736 16.4397812,-1.545754 23.2557812,1.861246 Z" id="Fill-4" fill="#090E2B"/>
                            <path d="M19.455322,34.2343173 C24.826322,32.9853173 28.843322,28.1153173 28.389322,24.4763173 C27.503322,19.6543173 18.218322,16.5753173 13.017322,19.2083173 C7.86632199,21.8153173 4.64332199,27.6403173 5.05932199,29.9403173 C5.66032199,31.5323173 13.966322,35.5113173 19.455322,34.2343173 Z" id="Fill-12" fill="#FFF"/>
                            <path d="M15.011222,31.6060173 C18.549222,31.6060173 21.417222,28.8520173 21.417222,25.4560173 C21.417222,22.0590173 19.396222,18.8490173 15.011222,19.3060173 C11.492222,19.6720173 8.60422199,22.0590173 8.60422199,25.4560173 C8.60422199,28.8520173 11.473222,31.6060173 15.011222,31.6060173 Z" id="Fill-14" fill="#090E2B"/>
                            <path d="M5.25072199,26.6376173 C7.27972199,19.0636173 16.440722,15.1686173 23.685722,18.7546173 C24.705722,19.2866173 26.361722,20.4806173 27.601722,21.9226173 C28.742722,23.2526173 28.593722,23.9496173 28.127722,23.8116173 C27.355722,23.5816173 25.722722,22.1166173 24.395722,21.4866173 C17.685722,18.3036173 10.704722,20.0896173 5.59372199,27.5586173 C5.34272199,27.9456173 5.10472199,27.0746173 5.25072199,26.6376173" id="Fill-22" fill="#090E2B"/>
                        </g>
                        <path d="M89.773817,88.8585998 C81.203378,89.8585998 88.1482904,99.3833823 83.7083884,100.648667 C72.3411441,103.888108 60,99.9572383 58.0067117,89.8585998 C56.8303329,83.8986871 60.3418642,84.6193542 63.1467832,84.8682179 C65.9517021,85.1170816 79.8038764,85.6292987 87.244688,85.6292987 C94.4593207,85.6292987 90.833428,88.7349642 89.773817,88.8585998 Z" id="Fill-18" fill="#090E2B"/>
                        <path d="M79.5163974,56.0474227 C79.9047316,56.0474227 82.4878873,60.4695558 83.4356699,62.0222568 C86.4544009,66.9676809 89.7813295,72.5049636 84.8702,75.6883 C82.4912,77.2313 75.0122,74.8407787 75.0122,73.0253 C75.0122,70.2632077 81.8382,75.1193 83.4442,72.3153 C84.3857451,70.8872578 80.8590997,63.6440183 79.5163974,59.348811 C78.7670658,56.9517537 79.1280631,56.0474227 79.5163974,56.0474227 Z" id="nose" fill="#090E2B"/>
                    </g>
                </g>
                <g id="Facial Accesories" transform="translate(517.000000, 209.000000) scale(1 1)" fill="#000">
                    <g id="Facial Accesories/None" stroke="none" stroke-width="1" fill="none" fill-rule="evenodd" fill-opacity="0"/>
                </g>
                <g id="Glass" transform="translate(520.000000, 164.000000) scale(1 1)" fill="#000">
                    <g id="Glass/None" stroke="none" stroke-width="1" fill="none" fill-rule="evenodd" fill-opacity="0"/>
                </g>
            </g>
        </g>
    </g>
</svg>
