<svg viewBox="578.475 27.94 557.05 1053.12" xmlns="http://www.w3.org/2000/svg" overflow="visible">
    <g id="Master/Stickers/Frontal Phone" stroke="none" stroke-width="1" fill="none" fill-rule="evenodd">
        <g id="Group" transform="translate(578.000000, 48.000000)">
            <g id="Group-19">
                <path d="M496.119705,1013 L61.8802954,1013 C27.7046449,1013 0,985.330138 0,951.197394 L0,61.802606 C0,27.6698624 27.7046449,0 61.8802954,0 L496.119705,0 C530.295355,0 558,27.6698624 558,61.802606 L558,951.197394 C558,985.330138 530.295355,1013 496.119705,1013 Z" id="Stroke-1" fill="#090E2B"/>
                <path d="M479.96912,41.5589744 L414.209336,41.5589744 L414.209336,58.4974152 C414.209336,81.5904896 395.440128,100.312802 372.286098,100.312802 L185.715294,100.312802 C162.561265,100.312802 143.790664,81.5904896 143.790664,58.4960259 L143.790664,41.5589744 L78.033666,41.5589744 C57.906389,41.5589744 41.5900621,57.8319367 41.5900621,77.9074346 L41.5900621,934.226753 C41.5900621,954.302251 57.906389,970.575214 78.033666,970.575214 L479.967727,970.575214 C500.095004,970.575214 516.409938,954.302251 516.409938,934.226753 L516.409938,77.9074346 C516.409938,57.8319367 500.095004,41.5589744 479.96912,41.5589744 Z" id="Stroke-3" fill="#FFF"/>
                <path d="M163.597492,762.780342 L111.070209,762.780342 C98.5377374,762.780342 88.378882,752.718914 88.378882,740.306634 L88.378882,688.28311 C88.378882,675.870829 98.5377374,665.809402 111.070209,665.809402 L163.597492,665.809402 C176.129964,665.809402 186.28882,675.870829 186.28882,688.28311 L186.28882,740.306634 C186.28882,752.718914 176.129964,762.780342 163.597492,762.780342 Z" id="Stroke-13" stroke="#C7D2F2" stroke-width="5" stroke-linecap="round" stroke-linejoin="round" stroke-dasharray="10,12"/>
            </g>
            <path d="M162.519557,764 L110.480443,764 C98.0644429,764 88,753.8318 88,741.2878 L88,688.7122 C88,676.1682 98.0644429,666 110.480443,666 L162.519557,666 C174.935557,666 185,676.1682 185,688.7122 L185,741.2878 C185,753.8318 174.935557,764 162.519557,764 Z" id="Stroke-13-Copy-2" fill="#A191FF"/>
            <path d="M453.231207,465 L110.768793,465 C98.1935367,465 88,454.937035 88,442.522858 L88,258.477142 C88,246.062965 98.1935367,236 110.768793,236 L453.231207,236 C465.806463,236 476,246.062965 476,258.477142 L476,442.522858 C476,454.937035 465.806463,465 453.231207,465 Z" id="Stroke-5-Copy" fill="#FFB201"/>
            <path d="M162.519557,619 L110.480443,619 C98.0644429,619 88,608.934171 88,596.519557 L88,544.480443 C88,532.064443 98.0644429,522 110.480443,522 L162.519557,522 C174.935557,522 185,532.064443 185,544.480443 L185,596.519557 C185,608.934171 174.935557,619 162.519557,619 Z" id="Stroke-7-Copy" fill="#FF0057"/>
            <rect id="Rectangle" fill="#E7EAFD" x="219" y="522" width="257" height="10" rx="5"/>
            <rect id="Rectangle-Copy-3" fill="#E7EAFD" x="219" y="674" width="257" height="10" rx="5"/>
            <rect id="Rectangle-Copy" fill="#E7EAFD" x="219" y="559" width="192" height="10" rx="5"/>
            <rect id="Rectangle-Copy-4" fill="#E7EAFD" x="219" y="710" width="192" height="10" rx="5"/>
            <rect id="Rectangle-Copy-2" fill="#E7EAFD" x="219" y="596" width="149" height="11" rx="5.5"/>
            <rect id="Rectangle-Copy-5" fill="#E7EAFD" x="219" y="747" width="149" height="10" rx="5"/>
        </g>
    </g>
</svg>
