<svg viewBox="0 -40 3200 2080" xmlns="http://www.w3.org/2000/svg" overflow="visible" xmlns:xlink="http://www.w3.org/1999/xlink">
    <defs>
        <linearGradient x1="50%" y1="0%" x2="50%" y2="100%" id="masterscenesback-in-town-linearGradient-1">
            <stop stop-color="#A7B3FE" offset="0%"/>
            <stop stop-color="#FFF" stop-opacity="0" offset="100%"/>
        </linearGradient>
    </defs>
    <g id="Master/Scenes/Back in Town" stroke="none" stroke-width="1" fill="none" fill-rule="evenodd">
        <path d="M3200.00266,1395.08173 C3196.52214,1395.08173 3193.70787,1397.35681 3193.70787,1400.15814 L3193.70787,1402.66179 C3193.70787,1405.4897 3190.78446,1407.7701 3187.26949,1407.72757 C3177.85602,1407.62658 3172.11259,1407.55748 3172.11259,1407.55748 L3172.11259,1411.84718 L3163.64679,1411.84718 L3163.64679,1360.35482 C3163.64679,1357.55349 3160.82677,1355.28372 3157.34625,1355.28372 L3152.30927,1355.28372 C3148.8345,1355.28372 3146.00874,1353.00864 3146.00874,1350.21262 L3146.00874,1335.90299 C3146.00874,1331.88439 3141.97111,1328.63123 3136.98582,1328.63123 L3032.6393,1328.63123 C3027.65401,1328.63123 3023.61638,1331.88439 3023.61638,1335.90299 L3023.61638,1451.98007 C3023.61638,1455.98804 3019.57301,1459.24651 3014.58772,1459.24651 L2987.94972,1459.24651 C2982.96443,1459.24651 2978.92681,1462.49967 2978.92681,1466.51296 L2978.92681,1557.05382 C2978.92681,1561.06711 2974.88344,1564.32027 2969.89815,1564.32027 L2965.6997,1564.32027 C2960.71441,1564.32027 2956.67678,1561.06711 2956.67678,1557.05382 L2956.67678,1552.5515 C2956.67678,1548.53821 2952.63341,1545.27973 2947.64812,1545.27973 L2925.14539,1545.27973 C2921.67062,1545.27973 2918.8506,1543.01528 2918.8506,1540.20864 L2918.8506,1537.80598 C2918.8506,1535.00465 2916.02483,1532.72957 2912.55006,1532.72957 L2907.33504,1532.72957 C2903.85452,1532.72957 2901.0345,1530.4598 2901.0345,1527.65847 L2901.0345,1522.08239 C2901.0345,1518.06379 2896.99113,1514.81595 2892.00584,1514.81595 L2887.8074,1514.81595 C2882.8221,1514.81595 2878.77873,1518.06379 2878.77873,1522.08239 L2878.77873,1559.24917 C2878.77873,1562.0505 2875.96446,1564.32027 2872.48394,1564.32027 L2869.93386,1564.32027 C2866.45909,1564.32027 2866.51078,1562.0505 2866.51078,1559.24917 L2866.51078,1472.88638 C2866.51078,1472.49302 2866.47058,1472.09967 2866.39591,1471.71163 L2803.76388,1471.71163 C2803.68922,1472.09967 2803.64901,1472.49302 2803.64901,1472.88638 L2803.64901,1554.05581 C2803.64901,1557.39402 2800.82899,1561.04585 2796.81434,1561.85914 L2789.96818,1561.90698 L2789.96818,1179.8897 C2789.96818,1175.87641 2785.92481,1172.61794 2780.93952,1172.61794 L2635.2863,1172.61794 C2630.30101,1172.61794 2626.26338,1175.87641 2626.26338,1179.8897 L2626.26338,1333.68106 C2626.26338,1337.69435 2622.22001,1340.94751 2617.23472,1340.94751 L2611.8359,1340.94751 C2606.85061,1340.94751 2602.81299,1344.20066 2602.81299,1348.21395 L2602.81299,1452.8093 L2595.56479,1452.8093 L2591.43527,1437.05382 C2589.47676,1429.5907 2576.38175,1429.28771 2573.89485,1436.65515 L2570.25926,1447.44585 C2569.19099,1450.61395 2565.62432,1452.8093 2561.54649,1452.8093 L2536.16056,1452.8093 C2531.17527,1452.8093 2527.1319,1449.56146 2527.1319,1445.54286 L2527.1319,1270.76013 C2527.1319,1266.74684 2523.09427,1263.49369 2518.10898,1263.49369 L2504.99674,1263.49369 C2500.01145,1263.49369 2495.96808,1266.74684 2495.96808,1270.76013 L2495.96808,1364.14485 C2495.96808,1368.15814 2491.93046,1371.4113 2486.94516,1371.4113 L2415.96794,1371.4113 C2410.98265,1371.4113 2406.94502,1368.15814 2406.94502,1364.14485 L2406.94502,1362.55017 C2406.94502,1358.53156 2402.90165,1355.28372 2397.91636,1355.28372 L2373.70783,1355.28372 C2368.7168,1355.28372 2364.67917,1358.53156 2364.67917,1362.55017 L2364.67917,1371.31561 C2364.67917,1375.3289 2360.64154,1378.58206 2355.65051,1378.58206 L2342.52678,1378.58206 C2337.54149,1378.58206 2333.50387,1375.3289 2333.50387,1371.31561 L2333.50387,1367.91894 C2333.50387,1363.90565 2329.4605,1360.65249 2324.47521,1360.65249 L2309.16324,1360.65249 C2304.17795,1360.65249 2300.13458,1363.90565 2300.13458,1367.91894 L2300.13458,1446.88771 C2300.13458,1450.81595 2296.25202,1454.03189 2291.37011,1454.15415 C2283.89792,1454.3402 2276.59228,1454.43588 2270.9063,1454.3402 C2265.74296,1454.25515 2261.67087,1457.55083 2261.78574,1461.71296 C2262.10737,1473.24784 2261.01038,1493.11229 2260.34988,1503.55216 C2260.10866,1507.4113 2256.1457,1510.41462 2251.33845,1510.41462 L2244.25681,1510.41462 C2239.27152,1510.41462 2235.22815,1513.66246 2235.22815,1517.68106 L2235.22815,1563.96412 C2235.22815,1567.97741 2231.19052,1571.23056 2226.20523,1571.23056 L2224.24672,1571.23056 C2219.26143,1571.23056 2215.21806,1567.97741 2215.21806,1563.96412 L2215.21806,1476.41595 C2215.21806,1475.22525 2214.85623,1474.0505 2214.16127,1472.99801 L2201.07775,1453.23455 C2197.53981,1447.89236 2187.91957,1448.16877 2184.86407,1453.70233 L2170.29875,1480.08372 C2169.78758,1481.01395 2169.51764,1482.0186 2169.51764,1483.03389 L2169.51764,1545.45515 C2169.51764,1548.25648 2166.70337,1550.52625 2163.22285,1550.52625 L2158.88657,1550.52625 C2155.40605,1550.52625 2152.58603,1548.25648 2152.58603,1545.45515 L2152.58603,1303.89236 C2152.58603,1299.87907 2148.54266,1296.62591 2143.56311,1296.62591 L2043.98364,1296.62591 C2039.00409,1296.62591 2034.96072,1299.87907 2034.96072,1303.89236 L2034.96072,1332.28837 C2034.96072,1335.08439 2032.1407,1337.35947 2028.66019,1337.35947 L2028.22943,1337.35947 C2024.74892,1337.35947 2021.92889,1339.62924 2021.92889,1342.43056 L2021.92889,1417.38073 C2021.92889,1421.39402 2017.89127,1424.64718 2012.90598,1424.64718 L1988.66873,1424.64718 C1983.68344,1424.64718 1979.64007,1421.39402 1979.64007,1417.38073 L1979.64007,1308.77209 C1979.64007,1304.7588 1975.60244,1301.50565 1970.61141,1301.50565 L1913.65388,1301.50565 C1908.66859,1301.50565 1904.63096,1298.25249 1904.63096,1294.2392 L1904.63096,1209.77409 C1904.63096,1205.7608 1900.59333,1202.50764 1895.6023,1202.50764 L1818.27859,1202.50764 C1813.28755,1202.50764 1809.24993,1205.7608 1809.24993,1209.77409 L1809.24993,1244.06512 C1809.24993,1248.07841 1805.2123,1251.33156 1800.22127,1251.33156 L1699.57926,1251.33156 L1699.57926,1156.11827 C1699.57926,1153.32226 1696.75924,1151.04718 1693.27872,1151.04718 L1688.39681,1151.04718 C1684.9163,1151.04718 1682.09628,1148.77741 1682.09628,1145.97608 L1682.09628,1056.26445 C1682.09628,1053.46312 1679.27626,1051.19336 1675.79574,1051.19336 L1670.91383,1051.19336 C1667.43906,1051.19336 1664.61904,1048.92359 1664.61904,1046.12226 L1475.46514,1042.81063 C1475.46514,1045.39402 1473.0529,1047.56811 1469.85956,1047.85515 L1466.75236,1048.13156 C1463.56476,1048.4186 1461.15253,1050.58738 1461.15253,1053.17608 L1461.15253,1149.76611 L1451.6127,1149.76611 L1451.6127,1428.35216 C1451.6127,1430.56346 1450.36638,1432.65249 1448.21834,1434.03455 L1440.30964,1439.12159 C1438.1616,1440.49302 1436.91528,1442.58738 1436.91528,1444.79867 L1436.91528,1451.62392 C1436.04802,1451.60797 1435.44496,1451.59734 1435.44496,1451.59734 L1435.44496,1473.48173 C1435.44496,1477.49502 1431.40159,1480.75349 1426.4163,1480.75349 L1423.80305,1480.75349 C1418.8235,1480.75349 1414.78013,1477.49502 1414.78013,1473.48173 L1414.78013,1201.23721 C1414.78013,1197.22392 1410.73676,1193.97076 1405.75721,1193.97076 L1326.39459,1193.97076 C1321.40929,1193.97076 1317.36592,1197.22392 1317.36592,1201.23721 L1317.36592,1502.27641 L1270.10904,1467.5814 C1268.41473,1466.21528 1267.46706,1464.37076 1267.46706,1462.4412 L1267.46706,1247.74352 L1267.46706,1222.7495 C1267.46706,1218.7309 1263.42369,1215.47774 1258.4384,1215.47774 L1247.5661,1215.47774 C1242.58081,1215.47774 1238.54318,1212.22458 1238.54318,1208.2113 L1238.54318,1201.23721 C1238.54318,1197.22392 1234.49981,1193.97076 1229.51452,1193.97076 L1171.40831,1193.97076 C1166.42302,1193.97076 1162.37965,1190.71761 1162.37965,1186.699 L1162.37965,1056.42924 C1162.37965,1052.41063 1158.34202,1049.15748 1153.35673,1049.15748 L1103.86565,1049.15748 C1098.88036,1049.15748 1094.84273,1052.41063 1094.84273,1056.42924 L1094.84273,1340.80399 C1094.84273,1344.81728 1090.79936,1348.07575 1085.81407,1348.07575 L1040.78563,1348.07575 C1035.80608,1348.07575 1031.76271,1344.81728 1031.76271,1340.80399 L1031.76271,1102.79734 C1031.76271,1098.78405 1027.72509,1095.5309 1022.73405,1095.5309 L958.872926,1095.5309 C953.887635,1095.5309 949.844265,1098.78405 949.844265,1102.79734 L949.844265,1473.48173 C949.844265,1477.49502 945.806638,1480.75349 940.821347,1480.75349 L938.213833,1480.75349 C933.228541,1480.75349 929.190915,1477.49502 929.190915,1473.48173 L929.190915,1465.11495 C929.190915,1460.95814 924.889091,1457.6412 919.731496,1457.81661 L902.983674,1458.38538 C897.82608,1458.55548 893.524256,1455.23854 893.524256,1451.08173 L893.524256,1426.2897 L893.58169,1426.2897 L893.58169,1412.7402 C893.58169,1408.72691 889.544063,1405.47375 884.558772,1405.47375 L871.440793,1405.47375 C866.455502,1405.47375 862.412132,1402.2206 862.412132,1398.20731 L862.412132,1387.5495 L852.430062,1387.5495 L852.430062,1224.0412 C852.430062,1220.02791 848.386692,1216.77475 843.4014,1216.77475 L748.537277,1216.77475 C743.551986,1216.77475 739.508616,1220.02791 739.508616,1224.0412 L739.508616,1365.93621 C739.508616,1369.9495 735.470989,1373.20797 730.485698,1373.20797 L726.39638,1373.20797 C721.411089,1373.20797 717.373462,1369.9495 717.373462,1365.93621 L717.373462,1224.0412 C717.373462,1220.02791 713.330092,1216.77475 708.350544,1216.77475 L625.065162,1216.77475 C620.079871,1216.77475 616.036501,1220.02791 616.036501,1224.0412 L616.036501,1339.04983 C616.036501,1343.06312 611.998874,1346.32159 607.013583,1346.32159 L593.252341,1346.32159 C588.267049,1346.32159 584.223679,1349.57475 584.223679,1353.58804 L584.223679,1399.47243 L579.324539,1397.16545 C575.55111,1395.38472 570.743865,1396.03854 567.90087,1398.71229 L560.681387,1405.51628 C559.285735,1406.83455 558.52186,1408.50897 558.52186,1410.24186 L558.52186,1424.42924 C558.52186,1426.84784 556.402536,1428.92625 553.461904,1429.40465 L549.309409,1430.07442 C546.363032,1430.55282 544.249453,1432.63654 544.249453,1435.04983 L544.249453,1538.48638 C544.249453,1542.49967 540.211826,1545.75282 535.226535,1545.75282 L530.844303,1545.75282 C525.859011,1545.75282 521.821385,1542.49967 521.821385,1538.48638 L521.821385,1352.80664 C521.821385,1350.88239 520.867976,1349.03256 519.17941,1347.67176 L514.825895,1344.16346 C513.131585,1342.80266 512.18392,1340.95282 512.18392,1339.02857 L512.18392,1305.05116 C512.18392,1303.12691 511.230512,1301.27708 509.536202,1299.91628 L495.464815,1288.5887 C493.770505,1287.22259 492.817097,1285.37276 492.817097,1283.4485 L492.817097,1197.95216 C492.817097,1195.97475 491.817741,1194.08239 490.048767,1192.71096 L468.430521,1175.97209 C466.661547,1174.60066 465.656448,1172.70831 465.656448,1170.73621 L465.656448,1145.23721 L461.486722,1141.02724 L461.486722,1119.81262 C461.486722,1118.33488 454.169601,1111.57874 454.169601,1110.09568 L454.169601,1086.32425 C454.169601,1083.90033 452.050278,1081.81661 449.103902,1081.34884 C445.520006,1079.6124 443.728058,1077.93798 443.728058,1076.32558 L443.728058,1050.20997 L439.558332,1047.67973 L439.558332,1028.34153 L433.292257,1024.12625 L433.292257,1008.09967 C433.292257,1007.03123 432.999343,1005.97342 432.436487,1005.00598 L424.947063,886 L420.771595,886 L415.539336,886 L415.539336,1015.78605 C415.539336,1016.84917 415.246421,1017.90166 414.689309,1018.86379 L401.249699,1042.02392 C400.692587,1042.98605 400.399672,1044.03322 400.399672,1045.09635 L400.399672,1062.75482 C400.399672,1064.68439 399.446264,1066.5289 397.757697,1067.89502 C388.732865,1075.88261 384.220448,1080.51783 384.220448,1081.80066 L384.220448,1107.39003 L373.50322,1107.39003 L373.50322,1136.19003 C373.50322,1137.52957 372.842727,1138.82126 371.665325,1139.77276 L367.777027,1142.91429 C366.599626,1143.86047 365.939132,1145.14684 365.939132,1146.49169 L365.939132,1169.21063 L360.195709,1173.8299 L360.195709,1199.89236 L354.027272,1199.89236 L354.027272,1284.18738 C354.027272,1286.9887 351.207251,1289.25847 347.726737,1289.25847 L344.843538,1289.25847 C341.363024,1289.25847 338.543003,1291.52824 338.543003,1294.32957 L338.543003,1304.85449 C338.543003,1308.86777 334.499633,1312.12625 329.514341,1312.12625 C324.52905,1312.12625 320.491423,1315.37409 320.491423,1319.39269 L320.491423,1522.55017 C320.491423,1526.56877 316.448053,1529.81661 311.468505,1529.81661 L307.626155,1529.81661 C302.63512,1529.81661 298.597493,1526.56877 298.597493,1522.55017 L298.597493,1514.18339 C298.597493,1511.38206 295.777473,1509.11229 292.302701,1509.11229 L292.296958,1509.11229 C288.816443,1509.11229 285.996423,1506.84252 285.996423,1504.0412 L285.996423,1325.43123 C285.996423,1321.41794 281.953053,1318.16478 276.973505,1318.16478 L90.6396214,1318.16478 C85.65433,1318.16478 81.6167033,1321.41794 81.6167033,1325.43123 L81.6167033,1553.14153 C81.6167033,1557.04319 77.7800966,1560.28571 72.9326473,1560.40797 C66.9135396,1560.55681 46.8575053,1560.50897 42.7509577,1560.10498 C42.2053324,1560.05714 41.7056546,1560.16877 41.1830031,1560.21661 L41.1830031,1488.01993 C41.1830031,1484.00664 37.1396331,1480.75349 32.160085,1480.75349 L9.02557586,1480.75349 C4.04028441,1480.75349 0.00265780731,1484.00664 0.00265780731,1488.01993 L0.00265780731,2000.79336 C0.00265780731,2004.80664 4.04602783,2008.0598 9.03131928,2008.0598 L3200.00266,2001.42382 L3200.00266,1395.08173 Z" id="City" fill="url(#masterscenesback-in-town-linearGradient-1)" opacity=".5"/>
        <g id="Floor" transform="translate(510.000000, 2005.500000)" fill="#090E2B" fill-rule="nonzero">
            <path d="M833.702805,-3 C835.635801,-3 837.202805,-1.43299662 837.202805,0.5 C837.202805,2.3685634 835.738527,3.89512645 833.89484,3.99482114 L833.702805,4 L0,4 C-1.93299662,4 -3.5,2.43299662 -3.5,0.5 C-3.5,-1.3685634 -2.0357224,-2.89512645 -0.192035203,-2.99482114 L0,-3 L833.702805,-3 Z" id="Path-4"/>
            <path d="M2180.22827,-0.5 C2182.16127,-0.5 2183.72827,1.06700338 2183.72827,3 C2183.72827,4.8685634 2182.26399,6.39512645 2180.42031,6.49482114 L2180.22827,6.5 L1137.29077,6.5 C1135.35777,6.5 1133.79077,4.93299662 1133.79077,3 C1133.79077,1.1314366 1135.25505,-0.395126449 1137.09873,-0.494821137 L1137.29077,-0.5 L2180.22827,-0.5 Z" id="Path-4-Copy-3"/>
        </g>
        <g id="Flying Objects" opacity=".5" transform="translate(132.000000, -107.000000) scale(1 1)">
            <g id="Flying Objects/Cloud 2" stroke="none" stroke-width="1" fill="none" fill-rule="evenodd">
                <path d="M479.95575,473.895048 C489.613069,459.137123 499.099888,436.733126 487.997876,423.547909 C481.436886,415.755283 470.330969,416.37302 462.370839,421.934228 C454.409408,427.495437 448.858402,436.870226 443.55859,445.96136 C452.064059,424.955151 460.742631,403.137375 461.346539,379.753193 C461.950447,356.369012 424.683149,265.573363 301,363.097442 C274.191914,384.2356 253.304938,454.747164 158,473.792617 C160.945352,473.792617 156.578734,478.669903 159.524086,478.669903 L479.95575,473.895048 Z" id="cloud" fill="#E4E8FD" transform="translate(325.500000, 398.771931) scale(-1, 1) translate(-325.500000, -398.771931)"/>
            </g>
        </g>
        <g id="Flying Objects" opacity=".5" transform="translate(2500.000000, -107.000000) scale(1 1)">
            <g id="Flying Objects/Balloon Yellow" stroke="none" stroke-width="1" fill="none" fill-rule="evenodd">
                <g id="Group" transform="translate(255.000000, 104.000000)">
                    <path d="M190,101.527864 C173.391661,-50.3585936 9.95135535,-20.1599229 0.337643154,114.971236 C-4.48660953,171.976224 42.8536945,296.75026 112.350048,233.595581 C156.554168,204.820594 186.627462,154.190975 190,101.527864" id="Fill-1" fill="#FFB201"/>
                    <path d="M104.545353,273.999437 C122.302093,273.870181 123.802927,264.333729 117.875863,260.315954 C110.254794,255.148694 86.7120292,254.450044 79,255.311418 C81.8099759,264.785551 93.0452847,274.083305 104.545353,273.999437 Z M75.0978957,258 C64.3247337,272.884972 47.9033637,308.505443 58.3312759,315.588738 C65.9463317,320.761876 82.6131909,275.753624 75.0978957,258 Z M81.7497565,272.267035 C78.3480164,313.426075 64.8263176,323.325454 56.8514608,323.084172 C47.7895198,322.810783 42.1050968,302.55573 58.7562802,271.44006 C63.7576423,262.762659 70.621193,253.914025 75.4539698,250 C101.099273,251.918582 136.678175,250.720136 122.948793,271.44006 C115.873933,282.117203 91.9142837,277.354751 87.5958271,273.58362 C89.0772457,278.607737 89.5599037,291.108571 91.3688039,312.608952 C94.2173131,346.475043 86.4536722,344.438293 97.6345553,378.263522 C100.265066,386.223888 99.9385535,401.765506 95.9487029,408.462059 C87.6618664,422.47199 106.508533,433.893977 107.152839,448.095572 C108.393006,455.095674 105.309059,461.010978 100.770822,465.78603 C83.475333,507.48309 116.226407,526.171755 60.3810931,570.475246 C7.94623952,596.746787 78.0932008,546.840296 81.9532214,533.48708 C95.8353438,512.78546 81.2895382,486.981889 91.3688039,466.380479 C96.1298836,459.5915 101.917008,452.799601 97.6345553,444.380994 C67.2446438,403.296869 95.1968515,394.691463 90.1325121,374.725364 C80.9116747,338.37251 87.421584,298.304105 81.7497565,272.267035 Z" id="Fill-4" fill="#090E2B"/>
                </g>
            </g>
        </g>
        <g id="Flying Objects" opacity=".5" transform="translate(1599.000000, 214.000000) scale(-1, 1) translate(-1599.000000, -214.000000) translate(1249.000000, -186.000000) scale(1 1)">
            <g id="Flying Objects/Cloud 1" stroke="none" stroke-width="1" fill="none" fill-rule="evenodd">
                <path d="M479.95575,473.895048 C489.613069,459.137123 499.099888,436.733126 487.997876,423.547909 C481.436886,415.755283 470.330969,416.37302 462.370839,421.934228 C454.409408,427.495437 448.858402,436.870226 443.55859,445.96136 C452.064059,424.955151 460.742631,403.137375 461.346539,379.753193 C461.950447,356.369012 452.155166,330.873179 433.86613,323.327963 C414.905507,315.50382 394.716245,328.774134 378.352165,342.761464 C343.415317,372.620853 311.811676,408.189581 284.665759,448.195929 C286.38117,435.63948 288.09658,422.759979 286.097437,410.263412 C284.098294,397.765269 277.573747,385.527143 267.572825,381.604829 C257.656503,377.714031 246.935838,382.62441 237.627328,388.303808 C205.588977,407.842892 177.856072,437.617184 158,473.792617 C160.945352,473.792617 156.578734,478.669903 159.524086,478.669903 L479.95575,473.895048 Z" id="cloud" fill="#F0F1FF" transform="translate(325.500000, 399.834951) scale(-1, 1) translate(-325.500000, -399.834951)"/>
            </g>
        </g>
        <g transform="translate(1687.000000, 509.500000) scale(1 1)" id="Master/Character/Standing">
            <g id="Master/Character/Standing" stroke="none" stroke-width="1" fill="none" fill-rule="evenodd">
                <g id="Lower Body/Standing" transform="translate(-64.000000, 629.000000) scale(1 1)">
                    <g id="Lower Body/Standing/Jeans" stroke="none" stroke-width="1" fill="none" fill-rule="evenodd">
                        <path d="M388.773381,656.005785 C380.012767,673.251861 377,806.114876 377,806.114876 L414.926828,811 L464,654.745848 C464,654.745848 397.532999,638.75971 388.773381,656.005785" id="leg-1" fill="#09b9c6"/>
                        <g id="shoe-1" transform="translate(337.000000, 797.000000)">
                            <path d="M2.79930413,53.6278416 C2.79930413,53.6278416 -4.24369587,74.5478416 4.01330413,74.5478416 C29.9303041,74.5478416 66.2323041,74.7318416 88.8463041,74.7318416 C92.3203041,74.7318416 95.3063041,67.0238416 94.3893041,60.9688416 C93.4713041,54.9128416 91.7523041,51.0708416 91.7523041,51.0708416 L2.79930413,53.6278416 Z" id="Fill-9" fill="#FFB201"/>
                            <path d="M80.9297041,4.21874158 C81.8917041,4.96574158 79.7277041,18.0427416 83.3337041,27.0587416 C86.9407041,36.0747416 93.0917041,49.8227416 91.8897041,55.8337416 C90.6877041,61.8447416 72.7507041,72.6197416 44.4887041,58.2227416 C34.7507041,53.2617416 7.77470413,67.7737416 2.96670413,61.1617416 C-1.84229587,54.5497416 11.2067041,39.6807416 23.8297041,26.4577416 C36.4507041,13.2347416 39.4557041,1.07974158 40.5657041,1.22674158 C41.6737041,1.37274158 40.2987041,8.51374158 45.5907041,5.86074158 C51.1967041,3.04974158 52.9817041,0.235741582 56.8877041,0.0117415819 C64.0877041,-0.402258418 70.0757041,10.2577416 73.1997041,12.0597416 C74.9937041,13.0957416 79.9667041,3.47174158 80.9297041,4.21874158" id="Fill-12" fill="#090E2B"/>
                            <path d="M43.0528041,17.6757416 C44.8418041,16.3237416 46.7128041,15.5247416 48.7648041,14.9897416 C50.7958041,14.4737416 52.9338041,14.3217416 55.0258041,14.5547416 C55.5518041,14.5867416 56.0608041,14.7327416 56.5778041,14.8177416 L57.3508041,14.9697416 L58.0998041,15.2007416 C58.5958041,15.3607416 59.1018041,15.4987416 59.5878041,15.6807416 C60.0648041,15.8857416 60.5398041,16.0937416 61.0098041,16.3137416 C61.2428041,16.4237416 61.4828041,16.5247416 61.7108041,16.6437416 L62.3738041,17.0367416 L63.6948041,17.8267416 C64.5278041,18.4167416 65.3208041,19.0527416 66.1108041,19.6837416 C66.6338041,20.1017416 66.7198041,20.8637416 66.3018041,21.3887416 C65.9198041,21.8657416 65.2498041,21.9797416 64.7388041,21.6767416 L64.6068041,21.5997416 C63.8068041,21.1277416 63.0558041,20.5907416 62.2618041,20.1377416 L61.0518041,19.5037416 L60.4498041,19.1857416 C60.2438041,19.0927416 60.0318041,19.0197416 59.8228041,18.9347416 C58.1808041,18.1777416 56.4358041,17.7687416 54.6888041,17.5297416 C52.9338041,17.2867416 51.1548041,17.4327416 49.4178041,17.7747416 C47.7048041,18.1147416 45.9298041,18.7997416 44.5148041,19.6237416 L44.3958041,19.6937416 C43.8158041,20.0297416 43.0728041,19.8337416 42.7358041,19.2547416 C42.4228041,18.7177416 42.5688041,18.0397416 43.0528041,17.6757416" id="Fill-14" fill="#FF0057"/>
                            <path d="M42.4004041,25.8290416 C43.8294041,24.7290416 45.2904041,24.0880416 46.9194041,23.6550416 C48.5234041,23.2240416 50.2244041,23.1020416 51.8844041,23.2860416 C52.3024041,23.3130416 52.7094041,23.4140416 53.1214041,23.4760416 C53.5364041,23.5360416 53.9364041,23.6470416 54.3284041,23.7820416 C54.7214041,23.9100416 55.1224041,24.0220416 55.5074041,24.1680416 L56.6334041,24.6650416 C57.3944041,24.9850416 58.0414041,25.4850416 58.7414041,25.8890416 C59.3944041,26.3580416 60.0054041,26.8790416 60.6124041,27.3910416 C61.1154041,27.8170416 61.1774041,28.5700416 60.7534041,29.0730416 C60.3794041,29.5140416 59.7564041,29.6160416 59.2704041,29.3500416 L59.1324041,29.2750416 C58.5044041,28.9330416 57.9164041,28.5420416 57.3064041,28.2010416 C56.6744041,27.9130416 56.0844041,27.5290416 55.4344041,27.3150416 C54.1904041,26.7250416 52.8624041,26.4620416 51.5504041,26.2390416 C50.2244041,26.0520416 48.8824041,26.1630416 47.5624041,26.3970416 C46.2684041,26.6430416 44.8964041,27.1550416 43.8374041,27.7450416 L43.7084041,27.8170416 C43.1314041,28.1380416 42.4064041,27.9310416 42.0854041,27.3540416 C41.7944041,26.8310416 41.9384041,26.1830416 42.4004041,25.8290416" id="Fill-16" fill="#FF0057"/>
                        </g>
                        <path d="M577.66901,658.64952 C573.729705,667.847659 588.473391,800.033994 588.473391,800.033994 L582.913429,813.189064 C582.913429,813.189064 593.202554,831.297056 601.259906,840.001704 C609.318257,848.705352 655.150001,826.452242 647.411188,821.5784 C645.028632,820.077909 637.435609,802.886829 637.54545,798.1271 C638.6868,748.902192 651,654.253152 651,654.253152 C651,654.253152 581.609314,649.45038 577.66901,658.64952" id="leg-2" fill="#09b9c6"/>
                        <g id="shoe-2" transform="translate(579.000000, 805.000000)">
                            <path d="M168.415792,65.9942 L4.10079156,65.9942 C2.58079156,60.9502 1.25179156,55.6582 1.48579156,51.4722 L166.191792,55.2062 C167.174792,58.3382 167.927792,62.0512 168.415792,65.9942" id="Fill-18" fill="#FFB201"/>
                            <path d="M6.90699156,-2.13162821e-14 C6.90699156,-2.13162821e-14 18.3949916,7.902 21.8639916,15.611 C29.9589916,17.539 60.2549916,18.1 58.4129916,15.719 C52.5329916,8.117 60.2569916,0.666 64.8829916,0.666 C69.5079916,0.666 101.785992,23.463 106.025992,23.463 C110.265992,23.463 153.540992,40.755 158.937992,44.225 C164.334992,47.693 166.495992,56.194 166.495992,56.194 L1.47899156,56.194 C1.47899156,56.194 -4.27200844,12.67 6.90699156,-2.13162821e-14" id="Fill-20" fill="#090E2B"/>
                            <path d="M81.7536916,16.6895 C81.8366916,15.7605 82.0636916,15.0125 82.4526916,14.2105 C82.8316916,13.4255 83.4076916,12.6595 84.2076916,12.0835 C84.9886916,11.4915 86.0176916,11.1475 86.9606916,11.1535 C87.4466916,11.1145 87.8826916,11.2195 88.3266916,11.2965 C88.7526916,11.4095 89.1446916,11.5735 89.5306916,11.7415 C90.1366916,12.0035 90.4146916,12.7075 90.1516916,13.3125 C89.9516916,13.7735 89.4966916,14.0435 89.0246916,14.0315 L88.8096916,14.0245 C88.1936916,14.0065 87.6306916,13.9605 87.1636916,14.0565 C86.6826916,14.1105 86.3066916,14.2685 85.9386916,14.5165 C85.5736916,14.7675 85.2286916,15.1315 84.9086916,15.5885 C84.6086916,16.0325 84.3166916,16.6315 84.1126916,17.1005 L84.0386916,17.2715 C83.7766916,17.8765 83.0726916,18.1545 82.4686916,17.8915 C81.9836916,17.6815 81.7096916,17.1875 81.7536916,16.6895" id="Fill-22" fill="#FF0057" transform="translate(85.999987, 14.567899) rotate(10.000000) translate(-85.999987, -14.567899)"/>
                            <path d="M90.3464916,22.1016 C90.4294916,21.1726 90.6564916,20.4246 91.0444916,19.6226 C91.4234916,18.8376 92.0004916,18.0726 92.7994916,17.4956 C93.5804916,16.9036 94.6094916,16.5606 95.5524916,16.5656 C96.0384916,16.5266 96.4744916,16.6326 96.9184916,16.7086 C97.3454916,16.8216 97.7364916,16.9856 98.1234916,17.1536 C98.7284916,17.4156 99.0064916,18.1206 98.7434916,18.7246 C98.5444916,19.1856 98.0884916,19.4556 97.6164916,19.4446 L97.4014916,19.4376 C96.7854916,19.4186 96.2224916,19.3726 95.7564916,19.4696 C95.2744916,19.5236 94.8984916,19.6806 94.5304916,19.9286 C94.1664916,20.1796 93.8204916,20.5436 93.5014916,21.0006 C93.2014916,21.4446 92.9094916,22.0446 92.7044916,22.5126 L92.6314916,22.6836 C92.3684916,23.2886 91.6654916,23.5666 91.0604916,23.3036 C90.5754916,23.0936 90.3024916,22.6006 90.3464916,22.1016" id="Fill-24" fill="#FF0057" transform="translate(94.592288, 19.980027) rotate(10.000000) translate(-94.592288, -19.980027)"/>
                        </g>
                        <g id="jeans" transform="translate(353.000000, 0.000000)">
                            <path d="M336.569421,0.125908208 L214.572421,0.125908208 C214.572421,0.125908208 195.769755,0.125908208 158.164421,0.125908208 C133.167421,27.1249082 92.0604213,115.524908 91.1514213,206.775908 C90.6774213,254.281908 96.6264213,310.738908 79.1944213,395.157908 C70.2574213,438.438908 16.9604213,496.904908 0.928421315,665.147908 C26.1254213,685.799908 132.627421,686.221908 142.689421,673.641908 C158.259421,563.490908 188.004421,444.492908 219.036421,322.690908 C221.461421,381.464908 215.575421,411.723908 209.375421,446.540908 C190.467421,552.712908 180.494421,609.334908 179.320421,675.856908 C202.985421,697.830908 266.368421,688.181908 308.495421,668.970908 C308.495421,668.970908 320.224421,552.917908 324.337421,493.163908 C329.616421,416.474908 361.265421,268.272908 359.187421,170.176908 C357.283421,80.2609082 336.569421,0.125908208 336.569421,0.125908208 Z" id="cloth" fill="#FFB201"/>
                            <path d="M276.698121,138.124108 C273.180121,139.201108 268.510121,140.565108 267.166121,144.116108 C266.701121,145.306108 265.944121,147.885108 265.552121,149.147108 C250.213121,204.295108 234.765121,266.542108 219.594121,321.681108 C219.436121,322.344108 218.852121,323.154108 219.035121,322.447108 C222.604121,306.334108 226.032121,290.098108 229.937121,274.067108 C240.234121,232.638108 250.572121,189.257108 262.446121,148.216108 C263.470121,145.187108 264.151121,141.121108 267.052121,139.303108 C267.900121,137.818108 278.876121,135.650108 276.698121,138.124108" id="line" fill="#090E2B"/>
                        </g>
                    </g>
                </g>
                <g id="Upper Body/Standing" transform="translate(69.000000, -172.000000) scale(1 1)">
                    <g id="Upper Body/Standing/Talking 1" stroke="none" stroke-width="1" fill="none" fill-rule="evenodd">
                        <path d="M594.420301,639 C594.420301,639 614.788019,687.538212 628.326197,696.0312 C689.65917,734.505905 760.529518,788.562911 780.54352,788.506964 C815.546539,788.411054 836.843515,807.140386 837.459023,808.910716 C839.332525,814.305627 824.172644,813.785118 824.172644,813.785118 C824.172644,813.785118 836.02417,827.522159 847.600916,835.907249 C859.177662,844.292339 852.578937,849.836109 847.028374,850.559427 C811.853491,855.141105 777.660824,822.657748 761.998344,814.765193 C715.010904,791.085531 651.690521,793.282459 587.17809,745.427602 C544.439254,713.725508 536,646.710726 536,646.710726 L594.420301,639 Z" id="hand-2" fill="#09b9c6"/>
                        <path d="M379.47164,682.719625 C379.47164,682.719625 357.803929,747.534355 359.29846,761.021686 C368.140106,840.825558 365.329391,932.240246 370.413786,948.046742 C376.442724,966.783921 387.707503,987.211762 388.695886,997.166887 C389.464075,1004.91076 392.418264,1010.73415 391.949978,1011.40662 C388.688911,1016.08992 380.240826,1003.50687 380.240826,1003.50687 C380.240826,1003.50687 376.321169,1018.24321 376.321169,1032.53991 C376.321169,1046.8346 364.153693,1036.90345 360.237026,1032.91461 C341.170795,1013.49597 354.446216,974.793585 349.765345,957.894952 C337.935634,915.195729 294.885169,815.453628 294.025315,751.062564 C293.314915,697.851655 307.791939,638 307.791939,638 L379.47164,682.719625 Z" id="hand-1" fill="#09b9c6"/>
                        <path d="M495.972307,421.517402 C495.972307,421.517402 489.254058,463.694548 495.762956,476.264565 C500.945634,486.273819 531.523831,499.962858 531.523831,499.962858 L537,529.345184 L423.468913,541 C410.331918,538.085547 362.777296,525.899195 377.956711,506.851838 C393.135125,487.804481 425.290964,482.552071 430.517715,474.109448 C440.553518,457.900611 442.387589,424.951401 442.111126,412.505277 C442.111126,409.413978 495.972307,421.517402 495.972307,421.517402" id="neck" fill="#09b9c6"/>
                        <g id="t-shirt" transform="translate(292.000000, 486.000000)">
                            <path d="M252.0582,19.7031764 C255.4842,22.4611764 279.0732,32.4241764 286.3982,68.0261764 C289.0352,80.8401764 306.0832,128.800176 321.1392,167.597176 C306.9542,192.404176 287.1982,207.531176 266.2892,214.200176 L228.2042,128.111176 C228.2042,128.111176 250.8722,30.6361764 252.0582,19.7031764" id="Cloth-2" fill="#FF0057"/>
                            <path d="M110.4468,0.0136764189 C123.8688,2.67167642 170.2358,34.6536764 198.6858,31.5776764 C213.0658,30.0236764 224.8198,5.46367642 225.2708,4.91467642 C225.7228,4.36767642 256.7298,20.9096764 266.4388,30.2636764 C276.2108,204.138676 268.7258,203.022676 266.1348,220.074676 C257.9328,274.047676 267.9068,297.775676 273.6768,320.855676 C275.8818,329.670676 70.5158,340.273676 74.9778,314.094676 C86.8838,244.255676 118.0118,233.325676 89.0178,161.657676 C74.5228,143.351676 39.9348,126.005676 33.1768,74.8846764 C29.8578,49.7816764 47.8658,32.3416764 54.1348,27.1536764 C75.0788,9.82167642 108.2148,-0.427323581 110.4468,0.0136764189" id="Cloth-1" fill="#FF0057"/>
                            <path d="M38.316,46.6992764 C23.77,75.5632764 18.599,108.175276 -1.70530257e-13,171.015276 C11.17,191.570276 44.819,201.822276 89.626,209.894276 C89.626,209.894276 94.242,189.162276 99.22,170.770276 C105.706,146.817276 38.316,46.6992764 38.316,46.6992764" id="Cloth-3" fill="#FF0057"/>
                            <path d="M263.0533,61.0176764 C267.5873,74.8956764 273.9913,88.4526764 277.6453,102.608676 C280.0363,112.136676 280.5003,122.300676 280.0423,132.080676 C279.0913,153.285676 275.4153,174.378676 271.3243,195.149676 C269.2403,205.726676 268.0763,212.153676 267.4103,213.816676 C266.5063,216.073676 266.7763,209.735676 269.2953,194.788676 C271.8093,177.785676 274.9313,158.626676 276.5493,141.647676 C277.7653,128.915676 277.5623,114.940676 274.8243,102.383676 C272.3413,91.3246764 268.4643,81.4866764 265.1413,70.6196764 C264.9503,69.1046764 261.1053,59.6106764 263.0533,61.0176764" id="Fill-15" fill="#090E2B"/>
                            <path d="M117.8404,74.2851764 C114.7574,101.612176 110.1684,128.761176 104.1614,155.596176 C103.2654,157.756176 96.4204,187.256176 96.1164,182.060176 C96.0774,181.382176 96.2134,180.032176 96.3544,179.363176 C101.6594,154.144176 107.1554,126.484176 111.7034,101.126176 C111.7044,101.126176 116.4114,74.0911764 116.4114,74.0911764 C116.5384,73.2221764 117.9564,73.3601764 117.8404,74.2851764" id="Fill-17" fill="#090E2B"/>
                        </g>
                    </g>
                </g>
                <g id="Head" transform="translate(399.000000, 26.000000) scale(1 1)">
                    <g id="Head/Short Dark" stroke="none" stroke-width="1" fill="none" fill-rule="evenodd">
                        <path d="M240.4603,89.8187 C240.4603,89.8187 247.1233,114.1517 245.6803,124.1867 C243.8023,137.2407 233.4533,136.1067 234.8383,140.4027 C239.5723,155.0927 226.4003,160.2027 226.4003,160.2027 C226.4003,160.2027 223.6603,145.9857 223.9103,131.6937 C224.1613,117.4007 221.6543,107.1207 221.6543,107.1207 L240.4603,89.8187 Z" id="hair" fill="#090E2B"/>
                        <path d="M192.5908,267.0274 C224.2428,264.4884 238.020209,246.70182 239.5388,229.4834 C241.504327,207.197431 236.0058,190.5654 233.1908,174.2604 C223.4298,117.7414 239.1068,106.6534 187.1538,96.2284 C159.9338,90.7674 99.9898,97.9554 85.2798,132.7664 C79.5308,146.3714 88.6708,170.3194 90.2748,189.9154 C94.4538,240.9794 154.1008,270.1154 192.5908,267.0274 Z" id="face" fill="#09b9c6"/>
                        <path d="M123.8589,41.6834 C86.5719,47.4364 78.1609,71.7324 76.2619,82.4054 C75.4829,79.1624 74.9369,75.5634 76.4449,72.9134 C76.9879,71.8554 75.3329,71.0214 74.8099,72.0874 C72.6969,76.5784 72.7039,81.6154 73.8029,86.3604 C69.7519,85.7334 65.5239,86.3634 61.9699,88.4944 C61.1589,88.9754 61.9019,90.2394 62.7189,89.7804 C65.1059,88.7554 67.7359,88.4754 70.3069,88.7714 C65.6579,90.4604 58.9819,94.3084 54.3399,103.0204 C49.3439,112.3974 47.7859,126.1464 49.9529,136.9844 C54.0639,157.5394 70.9269,165.4554 68.4039,170.3494 C61.0699,184.5724 69.3379,208.4314 79.1349,218.4284 C92.9599,232.5354 107.8639,235.3934 108.1179,219.3434 C108.3729,203.2944 103.6129,173.2844 107.7139,170.4274 C115.8699,180.5164 119.6079,181.7564 120.5419,175.2714 C122.4569,161.9584 118.0209,155.6414 113.1789,148.5664 C106.7739,139.2044 131.5549,136.0114 131.8529,120.6364 C135.6089,124.7334 138.4359,132.6264 153.2019,136.6944 C165.6119,140.1134 180.8789,140.2074 193.0839,122.5414 C202.3029,138.2494 224.0969,132.0104 230.7859,130.2904 C266.4129,121.1334 253.4839,53.9264 211.3139,60.7074 C184.4609,65.0254 158.9859,36.2624 123.8589,41.6834 Z" id="hair" fill="#090E2B"/>
                        <path d="M113.767,179.4916 C109.26,169.7266 100.831,161.4866 86.463,164.4866 C71.599,167.5916 69.788,197.7756 96.185,208.6956 C104.335,212.0666 107.242,210.4316 109.479,208.2106 C114.731,202.9936 115.788,183.8716 113.767,179.4916" id="ear" fill="#09b9c6"/>
                        <path d="M89.6861,174.4214 C90.2851,174.4984 90.8771,174.6084 91.4611,174.7554 C92.6281,175.0464 93.7631,175.4654 94.8541,175.9824 C97.0271,177.0314 99.0231,178.5214 100.5801,180.3734 C101.0121,180.7984 101.3281,181.3184 101.6901,181.7984 C102.0461,182.2824 102.3891,182.7724 102.6541,183.3114 C102.9371,183.8354 103.2311,184.3534 103.4921,184.8844 L104.1211,186.5354 L104.4261,187.3594 L104.6281,188.2104 C104.7621,188.7754 104.8961,189.3394 105.0111,189.9034 C105.1831,191.0424 105.2721,192.1864 105.3561,193.3124 C105.3851,193.7104 105.0871,194.0564 104.6901,194.0854 C104.3601,194.1094 104.0661,193.9084 103.9581,193.6114 L103.9251,193.5194 C103.5551,192.4924 103.3001,191.4554 102.9281,190.4634 C102.7101,189.9784 102.5101,189.4924 102.3111,189.0094 L102.0121,188.2864 L101.6351,187.6054 L100.9011,186.2504 L100.0301,184.9974 C99.7641,184.5654 99.4291,184.1884 99.0891,183.8194 C98.7411,183.4584 98.4681,183.0324 98.0751,182.7194 C96.6741,181.3004 94.9981,180.2114 93.2291,179.3164 C92.7861,179.0924 92.3251,178.9044 91.8721,178.6934 C91.4061,178.5204 90.9431,178.3264 90.4701,178.1654 C89.5471,177.8334 88.5011,177.5664 87.6531,177.3764 L87.4811,177.3384 C86.6491,177.1514 86.1261,176.3264 86.3131,175.4954 C86.4731,174.7824 87.1041,174.2964 87.8041,174.2904 C88.5141,174.2844 89.0751,174.3324 89.6861,174.4214 Z" id="Fill-9" fill="#090E2B"/>
                        <path d="M99.0443,183.8384 C98.9553,183.8094 98.7863,183.7934 98.6423,183.7684 C98.3093,183.7504 97.9563,183.7384 97.5883,183.7934 C96.8583,183.8794 96.1273,184.1034 95.4523,184.4294 C94.7723,184.7454 94.1523,185.1914 93.5983,185.7054 C93.0253,186.1984 92.5623,186.8304 92.1123,187.4554 L92.0493,187.5424 C91.3583,188.5044 90.0173,188.7224 89.0563,188.0304 C88.0943,187.3384 87.8763,185.9984 88.5683,185.0364 C88.6163,184.9694 88.6773,184.8954 88.7323,184.8354 C89.4763,184.0294 90.2533,183.2454 91.1863,182.6214 C92.0953,181.9834 93.0963,181.4544 94.1663,181.1164 C95.2323,180.7694 96.3473,180.5834 97.4833,180.6024 C98.0483,180.6024 98.6303,180.6854 99.2183,180.8124 C99.5263,180.9034 99.8173,180.9764 100.1563,181.1384 C100.4673,181.2904 100.8843,181.4634 101.3493,182.0784 C101.7863,182.7264 101.6163,183.6054 100.9693,184.0434 C100.3223,184.4804 99.4423,184.3114 99.0043,183.6644 C99.1613,183.9274 99.1723,183.8464 99.0443,183.8384 Z" id="Fill-11" fill="#090E2B"/>
                        <path d="M145.0532,259.7084 C141.4982,257.8384 132.4912,252.7524 130.5242,250.3674 C129.4982,249.1244 130.9902,250.3784 132.7172,251.3724 C135.0152,252.6964 144.1192,257.8464 155.4622,261.5594 C156.4462,261.8814 162.7232,263.6464 162.9132,263.9644 C163.0902,264.2614 162.5602,264.8804 161.8432,264.8734 C157.0202,264.8304 149.4132,262.0014 145.0532,259.7084 Z" id="Fill-13" fill="#090E2B"/>
                    </g>
                </g>
                <g id="Expressions" transform="translate(520.000000, 159.000000) scale(1 1)">
                    <g id="Expressions/Smile" stroke="none" stroke-width="1" fill="none" fill-rule="evenodd">
                        <g id="eye1" transform="translate(21.027098, 10.213671)">
                            <path d="M0.0487023333,7.96572872 C1.82485498,-0.0171869856 25.1977023,-2.81531309 35.4827023,3.36568691 C39.0387023,5.47868691 45.6427023,11.2837287 39.7957023,14.4437287 C38.2517023,15.1157287 36.7517023,14.4267287 35.4827023,13.6077287 C21.4647023,3.86572872 -1.18942441,13.5304877 0.0487023333,7.96572872 Z" id="Fill-1" fill="#090E2B"/>
                            <path d="M19.0113023,22.3973287 C13.7233023,23.8973287 9.19030233,28.1473287 8.76930233,31.6693287 C8.51430233,33.7973287 16.8643023,38.9063287 24.9173023,39.3033287 C35.5113023,39.8243287 40.8513023,34.0853287 40.8324531,32.2513287 C40.1193023,26.7013287 33.7283023,18.2233287 19.0113023,22.3973287 Z" id="Fill-6" fill="#FFF"/>
                            <path d="M35.3981023,25.5550287 C27.2551023,19.4010287 14.6431023,23.4110287 8.76910233,31.6690287 C8.43210233,32.0970287 8.52910233,31.0200287 8.76310233,30.5290287 C11.5971023,24.5820287 16.7101023,21.7750287 22.6381023,20.5510287 C26.2051023,19.8140287 29.5311023,19.7540287 33.0101023,21.3120287 C34.3551023,21.9130287 36.7311023,23.7450287 38.5671023,25.8170287 C39.9991023,27.4320287 41.2051023,30.2010287 39.5481023,29.2220287 C38.2511023,28.4550287 36.4781023,26.3720287 35.3981023,25.5550287 Z" id="Fill-8" fill="#090E2B"/>
                            <path d="M24.8135023,36.0623287 C29.3405023,36.0623287 33.0105023,32.7143287 33.0105023,28.5833287 C33.0105023,24.4533287 29.3405023,21.1043287 24.8135023,21.1043287 C20.2865023,21.1043287 16.6165023,24.4533287 16.6165023,28.5833287 C16.6165023,32.7143287 20.2865023,36.0623287 24.8135023,36.0623287 Z" id="Fill-10" fill="#090E2B"/>
                        </g>
                        <g id="eye2" transform="translate(81.203378, 15.000183)">
                            <path d="M23.2557812,1.861246 C26.6096324,3.34897691 31.0744206,8.28711729 27.357522,8.28711729 C23.6406234,8.28711729 15.5900245,7.23270759 10.1930245,9.45970759 C8.30802454,9.94170759 6.87752199,10.8641173 4.98452199,11.0891173 C0.67652199,11.9281173 -1.66408888,6.76839233 1.38185604,3.64904337 C4.82290212,0.125071736 16.4397812,-1.545754 23.2557812,1.861246 Z" id="Fill-4" fill="#090E2B"/>
                            <path d="M19.455322,34.2343173 C24.826322,32.9853173 28.843322,28.1153173 28.389322,24.4763173 C27.503322,19.6543173 18.218322,16.5753173 13.017322,19.2083173 C7.86632199,21.8153173 4.64332199,27.6403173 5.05932199,29.9403173 C5.66032199,31.5323173 13.966322,35.5113173 19.455322,34.2343173 Z" id="Fill-12" fill="#FFF"/>
                            <path d="M15.011222,31.6060173 C18.549222,31.6060173 21.417222,28.8520173 21.417222,25.4560173 C21.417222,22.0590173 19.396222,18.8490173 15.011222,19.3060173 C11.492222,19.6720173 8.60422199,22.0590173 8.60422199,25.4560173 C8.60422199,28.8520173 11.473222,31.6060173 15.011222,31.6060173 Z" id="Fill-14" fill="#090E2B"/>
                            <path d="M5.25072199,26.6376173 C7.27972199,19.0636173 16.440722,15.1686173 23.685722,18.7546173 C24.705722,19.2866173 26.361722,20.4806173 27.601722,21.9226173 C28.742722,23.2526173 28.593722,23.9496173 28.127722,23.8116173 C27.355722,23.5816173 25.722722,22.1166173 24.395722,21.4866173 C17.685722,18.3036173 10.704722,20.0896173 5.59372199,27.5586173 C5.34272199,27.9456173 5.10472199,27.0746173 5.25072199,26.6376173" id="Fill-22" fill="#090E2B"/>
                        </g>
                        <path d="M86.9879908,70.3386563 C86.0131141,75.2575144 79.9689699,75.7359636 76.0323155,74.6212963 C72.832522,73.7152719 72.0034674,71.851321 73.0853454,71.2537752 C74.8485675,70.2799076 80.4997296,72.9889887 82.5858367,70.4027854 C86.305606,65.7912866 74.8914605,48.8346319 78.5177277,51.5592059 C83.3102149,55.1600121 87.6386051,67.0559034 86.9879908,70.3386563 Z" id="nose" fill="#090E2B"/>
                        <path d="M89.6387968,90.5818454 C88.8707672,91.1602445 87.0677709,93.5463983 85.244688,95.0617056 C81.1444698,98.4697185 74.4745751,99.2530639 70.5444286,98.4697185 C63.1559339,96.997065 59.9595527,92.178225 58.0067117,90.8585998 C56.0538707,89.5389745 59.7200172,87.8442758 62.5249361,88.0931395 C65.3298551,88.3420033 67.2123883,89.156182 72.5654423,91.4592717 C76.0199316,92.9455259 83.8310598,90.8585998 86.0381944,89.5389745 C90.2484115,87.021725 91.5113061,89.1716685 89.6387968,90.5818454 Z" id="Fill-18" fill="#090E2B"/>
                    </g>
                </g>
                <g id="Facial Accesories" transform="translate(517.000000, 209.000000) scale(1 1)" fill="#000">
                    <g id="Facial Accesories/None" stroke="none" stroke-width="1" fill="none" fill-rule="evenodd" fill-opacity="0"/>
                </g>
                <g id="Glass" transform="translate(520.000000, 164.000000) scale(1 1)" fill="#000">
                    <g id="Glass/None" stroke="none" stroke-width="1" fill="none" fill-rule="evenodd" fill-opacity="0"/>
                </g>
            </g>
        </g>
        <g transform="translate(1025.000000, 509.500000) scale(1 1)" id="Master/Character/Standing">
            <g id="Master/Character/Standing" stroke="none" stroke-width="1" fill="none" fill-rule="evenodd">
                <g id="Lower Body/Standing" transform="translate(-64.000000, 629.000000) scale(1 1)">
                    <g id="Lower Body/Standing/Skirt 1" stroke="none" stroke-width="1" fill="none" fill-rule="evenodd">
                        <g id="Group" transform="translate(420.000000, 0.000000)">
                            <path d="M97,224.870199 C97,224.870199 130.917774,340.170164 124.313813,386.112835 C117.525006,433.336224 110.63519,485.838515 111.89174,534.993111 C113.016979,579.041051 123.741093,677.537689 115.657351,755.762729 C114.719989,764.832108 111.151345,784.892955 109.663484,793.301711 C101.55146,818.370929 146.085268,847.894286 178.16165,860.064134 C197.405863,867.366448 212.443056,851.657405 212.443056,851.657405 C212.443056,851.657405 161.158824,799.250356 162.634564,781.196709 C166.22543,737.266303 221.734864,506.514389 237.025589,422.211011 C243.360866,387.276018 265,215.317511 265,215.317511 C265,215.317511 153.543765,173.390252 131.687462,175.047888 C114.077572,176.383319 97,224.870199 97,224.870199" id="leg-2" fill="#b75858"/>
                            <path d="M206.293461,845.441838 C206.293461,845.441838 209.974474,852.68751 198.517713,852.984721 C190.350497,853.19774 176.407357,852.918787 166.838139,846.131612 C157.26791,839.343423 108.945382,798.540237 108.945382,793.624581 C108.945382,790.66261 104.698915,798.868894 102.945908,804.938906 C95.0892357,832.13934 113.54589,864.680451 113.779557,871 L129.648679,871 C129.648679,871 133.273045,846.778782 134.206701,844.671928 C135.141369,842.566088 163.575906,871 179.023213,871 L234.312253,871 C242.154763,871 232.840454,857.345514 206.293461,845.441838" id="shoe-2" fill="#090E2B"/>
                            <path d="M64,211.537999 C70.2638572,284.893503 96.5997931,348.947298 94.0954649,395.268509 C91.5091438,443.147094 73.3876877,481.52145 75.0042649,558.340033 C76.1643134,613.478932 93.6885369,733.445249 85.6906805,774.224522 C83.9364361,783.167771 74.492062,785.423835 72.8471415,798.256467 C69.4996018,824.384485 110.886813,847.902031 143.032102,860.065336 C162.31968,867.363117 177.389176,851.663826 177.389176,851.663826 C177.389176,851.663826 123.470202,801.593983 126.061584,781.667104 C131.417445,740.482793 171.769116,541.538025 183.069972,431.235925 C190.062656,362.981881 200,213.17638 200,213.17638 C200,213.17638 85.6096998,182.401557 64,211.537999" id="leg-1" fill="#b75858"/>
                            <path d="M173.12093,846.845385 C157.180506,833.576912 124.357788,803.444397 124,781.962108 C126.986663,755.742091 131.607327,729.72661 135.843701,703.693915 C148.249057,630.364948 172.984339,503.833496 181.38777,431.450252 C189.276435,363.50097 186.744397,294.428768 190.672929,226.104842 C190.700452,225.466935 191.244779,224.97281 191.887982,225 C192.528127,225.030526 193.024545,225.569203 192.999061,226.205085 C189.554714,290.228706 191.946084,368.040238 184.460058,431.906913 C176.047453,503.670476 151.353964,631.432177 139.105586,704.23158 C134.915083,730.555889 130.0457,756.841722 127.303678,783.357404 C129.439193,800.593052 148.15222,819.123754 159.56474,831.880888 C164.170114,836.726959 168.968143,841.402921 173.954749,845.854097 C174.590817,846.339109 173.73865,847.3952 173.12093,846.845385" id="Fill-8" fill="#090E2B"/>
                            <path d="M173.41073,845.721798 C173.41073,845.721798 175.626051,852.63712 164.101699,852.935133 C155.885574,853.148726 141.858936,852.869021 132.231396,846.063547 C122.604873,839.258072 73.6500362,797.510847 73.6500362,792.581938 C73.6500362,789.611981 69.7210717,798.673402 67.957566,804.760797 C60.0538448,832.033549 78.621026,864.662396 78.8550747,871 L94.8202455,871 C94.8202455,871 98.467334,846.713479 99.4055639,844.599927 C100.344811,842.488409 128.950644,871 144.490457,871 L200.110593,871 C208.000068,871 199.936583,856.630289 173.41073,845.721798" id="shoe-1" fill="#090E2B"/>
                            <path d="M265.550356,0 C265.550356,0 311.015243,105.944161 312,222.987995 C229.599188,283.926226 129.0922,255.267197 129.0922,255.267197 C129.0922,255.267197 125.373804,218.531542 120.303265,208.637751 C114.517183,215.575741 102.437965,251.938256 102.437965,251.938256 C102.437965,251.938256 7.47719547,241.656155 0.388561787,231.619782 C-6.7000719,221.583408 85.5492595,0 85.5492595,0 L265.550356,0 Z" id="skirt" fill="#001386"/>
                        </g>
                    </g>
                </g>
                <g id="Upper Body/Standing" transform="translate(69.000000, -172.000000) scale(1 1)">
                    <g id="Upper Body/Standing/With Laptop 1" stroke="none" stroke-width="1" fill="none" fill-rule="evenodd">
                        <path d="M518,470 C531.897744,477.921341 553.104762,494.380594 565.718296,532.851246 C576.319799,565.182208 600.570426,611.863468 601.354386,616.556818 C613.885714,621.248165 664,646.250335 664,646.250335 C664,646.250335 629.462657,702 626.617544,702 C623.772431,702 606.926316,701.132196 590.611529,699.849007 C537.347368,695.659124 534.614536,659.159298 531.972932,644.270501 C523.423559,596.087849 521.988972,475.178799 518,470" id="Fill-1" fill="#FF0057"/>
                        <path d="M435.679151,395 C435.679151,395 447.229331,452.303881 439.463916,458.256492 C435.587205,461.227797 419,465.605246 419,465.605246 C419,465.605246 459.844881,498.129585 484.813137,498.96667 C509.781394,499.804756 526.465542,484.609197 523.701174,479.100632 C519.563617,470.857786 490.31289,463.49803 489.220535,456.162277 C487.97527,447.794418 488.520948,411.17366 488.520948,411.17366 L435.679151,395 Z" id="Fill-3" fill="#b75858"/>
                        <path d="M430,469.083895 C430,469.083895 475.140906,498.234962 488.988265,494.707566 C498.467053,492.293241 497.322975,472.625305 498.382752,464 C507.10986,464.848817 524.843071,473.859493 531.117436,486.924072 C539.442109,504.25676 540.330275,542.593671 546.278478,573.411343 C559.567848,642.255627 545.542856,789.001916 545.542856,789.001916 C545.542856,789.001916 471.088461,824.442038 451.166448,807.333566 C440.923939,798.538098 466.94469,752.036325 468.985966,677.213284 C471.027243,602.389243 473.539197,578.885613 465.870863,553.858517 C458.203532,528.831421 430,469.083895 430,469.083895" id="Fill-6" fill="#FFF"/>
                        <path d="M420.261095,464 C404.190301,467.258001 359.922052,478.624962 358.573426,490.673761 C357.393378,501.227723 345.84926,632.518975 361.438259,652.189134 C380.106554,675.744064 350.697131,747.758513 338.817851,766.969107 C318.151554,800.389154 283.215956,827.985047 323.585958,827.260157 C365.636755,826.507232 474.744787,883.934765 474.744787,806.287398 C474.744787,722.087984 485.909854,640.579876 486,608.514493 C486.298881,498.980964 437.07902,471.643388 420.261095,464" id="Fill-8" fill="#FF0057"/>
                        <path d="M519.586342,471.025925 C532.5471,479.038964 566.685354,530.935502 560.0672,579.880712 C555.909093,610.6334 552.21952,711.880605 560.767513,746.298428 C569.317495,780.71525 584.188196,809.521743 583.998197,828.488137 C583.910658,837.129884 550.109629,841.47879 540.243576,837.53334 C516.831845,828.169778 519.024302,806.057836 522.384609,761.942074 C530.297943,658.064902 530.069148,480.953123 498,464 C505.703439,464.287324 516.001219,468.809425 519.586342,471.025925" id="Fill-11" fill="#FF0057"/>
                        <path d="M538.704585,512.534972 C548.374503,531.14719 558.773513,550.760225 559.723884,571.893504 C560.925103,598.556303 557.874129,629.021211 556.942113,655.743058 C556.666791,662.721764 556.410844,669.704473 556.396568,676.681177 C556.408804,677.087509 555.712342,677.122538 555.71744,676.687182 C555.051569,644.181606 559.107979,604.533189 557.629398,571.983577 C556.683106,551.178567 546.437052,531.034097 538.020359,512.084604 C537.874541,511.817386 538.554688,512.242733 538.704585,512.534972" id="Fill-13" fill="#090E2B"/>
                        <g id="macbook" transform="translate(504.000000, 528.000000)">
                            <path d="M128.369769,133.885873 L8.73676899,144.014873 C6.69576899,144.183873 0.282768988,146.862873 0.061768988,148.897873 C0.061768988,148.897873 -0.885231012,154.143873 4.63676899,154.143873 L128.369769,154.143873 L128.369769,133.885873 Z" id="Fill-15" fill="#FFF"/>
                            <path d="M291.427369,154.143673 L104.125369,154.143673 L155.804369,16.8866731 C158.941369,9.13767308 165.583369,1.39167308 176.064369,1.39167308 L332.657369,1.50967308 C349.488369,1.38767308 351.600369,7.63367308 347.981369,17.4746731 C337.556369,45.8156731 310.743369,125.167673 301.525369,147.401673 C299.831369,151.484673 295.848369,154.143673 291.427369,154.143673" id="Fill-17" fill="#FFF"/>
                            <path d="M331.825869,0.472773078 C288.588869,0.368773078 228.596869,0.280773078 185.250869,0.171773078 C170.143869,-0.767226922 160.767869,1.79077308 154.508869,16.7147731 C140.546869,53.9127731 124.393869,97.3387731 110.856869,134.831773 L14.822869,143.498773 C23.939869,142.767773 111.379869,136.466773 111.634869,135.662773 C127.012869,97.3197731 143.173869,52.3277731 158.530869,14.1057731 C164.816869,2.51877308 173.500869,2.15277308 185.250869,2.62477308 L217.823869,2.60777308 C239.133869,2.71277308 294.971869,2.40477308 315.545869,2.55477308 C322.945869,3.41577308 346.266869,-0.690226922 348.296869,8.78777308 C348.671869,17.7947731 343.153869,26.7887731 340.525869,35.4077731 C338.150869,43.1977731 329.799869,66.1667731 329.799869,66.1667731 C321.256869,90.2607731 311.655869,119.224773 302.571869,142.877773 C299.154869,153.682773 294.621869,153.788773 284.461869,153.531773 C279.322869,153.570773 265.939869,154.131773 260.653869,154.177773 C260.017869,154.186773 259.380869,154.620773 260.031869,154.638773 C269.386869,154.517773 283.454869,155.017773 292.670869,154.716773 C298.834869,154.369773 302.237869,148.676773 303.891869,143.396773 C313.711869,118.074773 322.541869,92.3867731 331.558869,66.7807731 C335.051869,56.1947731 343.917869,30.7067731 347.853869,20.7337731 C354.162869,4.75377308 346.736869,-0.0142269223 331.825869,0.472773078" id="Fill-19" fill="#090E2B"/>
                        </g>
                        <path d="M490.796,673.4745 C490.431,673.5035 490.215,673.5225 490.204,673.5255 L490.796,673.4745 Z" id="Fill-21" fill="#000"/>
                        <path d="M703,681.77464 L736.34249,681.77464 C748.166804,681.993091 741.981102,657.808751 754.899595,660.161144 C765.929232,662.168668 765.431062,668.637243 764.285968,681.679573 C766.51925,678.887244 770.763185,677.96793 772.215766,678.916573 C774.293307,680.273801 771.968178,680.675306 768.461017,686.296372 C764.405769,692.794276 752.878959,698.87146 739.139833,700.026418 C735.004717,700.37331 711.248268,704 711.248268,704 L703,681.77464 Z" id="Fill-23" fill="#b75858"/>
                        <path d="M508.484788,669.782529 C508.484788,669.782529 517.751639,663.180324 525.699971,664.113704 C536.303446,665.356531 537.148265,660.574721 539.859729,664.742678 C540.45613,665.657915 538.585461,668.596148 533.674452,669.687779 C527.045646,671.160424 529.823489,675.249759 529.823489,675.249759 C529.823489,675.249759 552.845793,680.740173 556.083257,681.318748 C557.871455,681.638274 558.353203,686.726508 544.835105,690.738229 C537.78389,692.830776 527.70742,692.886214 515.829678,693.28537 C512.525835,693.398263 474.530133,705 474.530133,705 L472.187774,686.067295 L471,666.393733 L508.484788,669.782529 Z" id="Fill-25" fill="#b75858"/>
                        <path d="M627,702.024576 C627,702.024576 722.408936,705.88086 728.352355,704.813133 C734.294776,703.745407 722.25232,682 722.25232,682 L636.045808,682 L627,702.024576 Z" id="Fill-27" fill="#FF0057"/>
                        <g id="blush" transform="translate(703.000000, 593.000000)">
                            <path d="M35.1719616,15.0154 L35.1569616,15.0154 C30.8929616,15.0154 29.0199616,13.2234 28.2829616,12.1544 C27.7349616,11.3584 27.9349616,10.2684 28.7309616,9.7204 C29.5259616,9.1714 30.6169616,9.3734 31.1639616,10.1674 C31.7549616,11.0244 33.2109616,11.5154 35.1579616,11.5154 L35.1709616,11.5154 C38.1609616,11.5154 40.2469616,10.3894 41.2259616,9.7184 C42.0239616,9.1694 43.1119616,9.3744 43.6579616,10.1704 C44.2049616,10.9674 44.0029616,12.0564 43.2059616,12.6034 C40.9419616,14.1594 38.0879616,15.0154 35.1719616,15.0154" id="Fill-29" fill="#090E2B"/>
                            <path d="M23.1172616,17.7987 C20.7432616,23.9947 13.8222616,29.0177 7.66026163,29.0177 C1.49826163,29.0177 -1.57173837,23.9947 0.803261628,17.7987 C3.17726163,11.6037 10.0972616,6.5807 16.2602616,6.5807 C22.4222616,6.5807 25.4922616,11.6037 23.1172616,17.7987" id="Fill-31" fill="#FF00A4"/>
                            <path d="M66.9864616,17.7987 C64.6114616,23.9947 57.6904616,29.0177 51.5284616,29.0177 C45.3664616,29.0177 42.2964616,23.9947 44.6714616,17.7987 C47.0464616,11.6037 53.9654616,6.5807 60.1284616,6.5807 C66.2914616,6.5807 69.3614616,11.6037 66.9864616,17.7987" id="Fill-33" fill="#FF00A4"/>
                            <path d="M26.9229616,2.951 C26.2979616,4.582 24.4769616,5.903 22.8559616,5.903 C21.2339616,5.903 20.4259616,4.582 21.0509616,2.951 C21.6759616,1.321 23.4969616,1.27897692e-13 25.1179616,1.27897692e-13 C26.7389616,1.27897692e-13 27.5479616,1.321 26.9229616,2.951" id="Fill-35" fill="#090E2B"/>
                            <path d="M57.8731616,2.951 C57.2481616,4.582 55.4271616,5.903 53.8061616,5.903 C52.1841616,5.903 51.3761616,4.582 52.0011616,2.951 C52.6261616,1.321 54.4461616,1.27897692e-13 56.0681616,1.27897692e-13 C57.6891616,1.27897692e-13 58.4971616,1.321 57.8731616,2.951" id="Fill-37" fill="#090E2B"/>
                        </g>
                        <path d="M419.019737,583.172044 C410.530191,605.552303 363.3747,655.528851 363.3747,655.528851 C363.3747,655.528851 473.683867,666.975335 489.978722,666.973336 C490.357301,672.702075 485.558644,716.183321 485.558644,716.183321 C437.5531,722.984449 285.152802,742.653251 273.084241,702.373183 C247.93924,618.451959 346.605373,503.936153 359.273267,488.450969 C377.017508,466.759318 430.374094,553.239085 419.019737,583.172044" id="Fill-39" fill="#FF0057"/>
                        <path d="M489.714312,666.434477 C447.358945,664.422509 408.7689,657.397047 366.316447,653.664801 C381.269639,637.654672 395.80246,621.172661 408.277466,603.150564 C412.554239,596.793103 416.437665,590.47845 418.982911,583.201119 C419.06098,582.96916 419.670517,581.083625 419.438313,581 C409.526568,601.201314 393.244203,620.575343 377.831606,637.385879 C372.65604,642.973794 367.381386,648.497 362.005644,653.864903 C361.11686,654.701149 359.893781,656.197432 362.974499,656.402511 C395.524215,658.572769 428.11797,662.632544 460.597624,665.661945 C471.483228,666.455383 477.18726,666.960117 488.13592,667 C489.896473,667.006907 490.378898,666.418548 489.714312,666.434477" id="Fill-42" fill="#090E2B"/>
                        <path d="M486,716 C442.895601,721.948976 400.874402,727.750965 357.324742,726.411204 C356.560012,726.333738 357.27782,727.061718 358.116427,727.143156 C388.065678,730.39076 453.126606,723.494319 462.912351,721.607332 C481.155048,718.08959 485.2173,717.229521 486,716" id="Fill-44" fill="#090E2B"/>
                    </g>
                </g>
                <g id="Head" transform="translate(399.000000, 26.000000) scale(1 1)">
                    <g id="Head/Curls Gray" stroke="none" stroke-width="1" fill="none" fill-rule="evenodd">
                        <path d="M209.1303,107.5764 C209.1303,107.5764 211.1113,98.2314 225.6773,99.2914 C249.2283,101.0044 253.4783,123.9904 248.0753,146.5114 C244.2703,162.3754 239.1843,174.8744 240.7863,183.6624 C243.8583,200.4974 252.5503,201.2874 259.2603,219.7534 C269.9143,249.0734 243.1013,251.2114 242.8423,256.4734 C241.5893,281.9704 233.2363,293.7004 218.5563,299.2784 C196.9123,307.5034 174.1923,296.7264 162.7063,276.6714 C153.0903,259.8794 162.7063,241.4594 162.7063,241.4594 L215.4033,190.6814 L209.1303,107.5764 Z" id="Fill-1" fill="#E3E4E6"/>
                        <path d="M205.767,97.1399 C205.767,97.1399 221.196,104.7289 228.478,125.9879 C232.573,137.9419 231.011,152.6219 233.289,173.3079 C238.947,224.6639 223.805,264.7349 195.664,263.7749 C162.246,262.6339 133.329,242.6749 117.287,231.0709 C101.244,219.4649 98.301,204.9709 98.138,182.0229 C97.976,159.0749 98.811,109.7529 113.625,108.3019 C128.44,106.8519 175.746,74.3719 205.767,97.1399" id="Fill-4" fill="#b75858"/>
                        <path d="M107.0614,192.6107 C107.0854,200.5017 138.5724,221.4117 121.8314,250.8917 C133.1984,262.7107 129.9914,309.2527 81.1124,302.6407 C59.6644,331.3287 14.1904,319.5797 19.4464,288.8517 C6.0124,286.2407 -0.5626,264.2947 1.3144,251.8917 C6.1784,219.7527 36.7984,215.7527 36.7984,215.7527 C32.9554,178.8287 66.6264,187.5857 61.9484,162.1677 C57.3234,137.0357 62.3714,102.1827 88.8184,98.0927 C92.4274,61.9707 139.0684,45.6877 171.8234,62.8627 C179.5574,55.7807 232.3524,47.4767 231.2474,95.8587 C230.8724,112.2877 218.1174,134.2907 199.5354,138.0467 C186.4244,140.6987 163.1734,136.0767 155.2004,145.8617 C144.2934,159.2467 142.4374,162.5327 125.8774,170.9817 C119.4584,174.2557 114.9164,170.9817 114.9164,170.9817 C114.9164,170.9817 107.0014,173.2507 107.0614,192.6107 Z" id="Fill-6" fill="#E3E4E6"/>
                        <path d="M114.6781,200.632 C107.5681,204.795 97.8471,199.587 92.2141,195.791 C80.0061,187.565 80.4821,174.231 90.2831,167.039 C97.4451,161.785 107.4351,162.844 116.5011,170.503 C124.3141,177.104 122.7091,195.929 114.6781,200.632" id="Fill-9" fill="#b75858"/>
                        <path d="M96.016,174.1125 C101.095,173.1825 106.796,173.8515 110.409,179.1885 C112.059,181.6275 112.088,184.4065 112.941,187.2005 C113.034,187.5055 112.054,188.2285 110.665,184.8685 C108.859,180.5015 105.591,177.7485 102.748,176.5525 C99.045,174.9965 94.592,176.0475 93.924,175.3995 C93.228,174.7245 95.448,174.2165 96.016,174.1125" id="Fill-11" fill="#000"/>
                        <path d="M109.8988,183.5432 C107.3298,182.2192 102.4328,184.5862 102.2328,184.0792 C101.6118,182.5102 108.2128,179.7712 110.3798,181.5362 C111.9708,182.8322 111.7248,184.4842 109.8988,183.5432" id="Fill-13" fill="#000"/>
                        <path d="M133.434,241.6965 C134.317,242.0805 139.01,244.7875 141.079,245.8885 C144.872,247.9095 148.686,249.9045 152.55,251.7265 C154.541,252.6705 159.332,254.3425 158.687,254.9035 C157.447,255.9795 146.676,251.9555 139.861,247.4625 C136.238,245.0745 131.925,241.0425 133.434,241.6965" id="Fill-15" fill="#090E2B"/>
                    </g>
                </g>
                <g id="Expressions" transform="translate(520.000000, 159.000000) scale(1 1)">
                    <g id="Expressions/Happy" stroke="none" stroke-width="1" fill="none" fill-rule="evenodd">
                        <g id="eye1" transform="translate(21.027098, 10.213671)">
                            <path d="M0.0487023333,7.96572872 C1.82485498,-0.0171869856 25.1977023,-2.81531309 35.4827023,3.36568691 C39.0387023,5.47868691 45.6427023,11.2837287 39.7957023,14.4437287 C38.2517023,15.1157287 36.7517023,14.4267287 35.4827023,13.6077287 C21.4647023,3.86572872 -1.18942441,13.5304877 0.0487023333,7.96572872 Z" id="Fill-1" fill="#090E2B"/>
                            <path d="M19.0113023,22.3973287 C13.7233023,23.8973287 9.19030233,28.1473287 8.76930233,31.6693287 C8.51430233,33.7973287 16.8643023,38.9063287 24.9173023,39.3033287 C35.5113023,39.8243287 40.8513023,34.0853287 40.8324531,32.2513287 C40.1193023,26.7013287 33.7283023,18.2233287 19.0113023,22.3973287 Z" id="Fill-6" fill="#FFF"/>
                            <path d="M35.3981023,25.5550287 C27.2551023,19.4010287 14.6431023,23.4110287 8.76910233,31.6690287 C8.43210233,32.0970287 8.52910233,31.0200287 8.76310233,30.5290287 C11.5971023,24.5820287 16.7101023,21.7750287 22.6381023,20.5510287 C26.2051023,19.8140287 29.5311023,19.7540287 33.0101023,21.3120287 C34.3551023,21.9130287 36.7311023,23.7450287 38.5671023,25.8170287 C39.9991023,27.4320287 41.2051023,30.2010287 39.5481023,29.2220287 C38.2511023,28.4550287 36.4781023,26.3720287 35.3981023,25.5550287 Z" id="Fill-8" fill="#090E2B"/>
                            <path d="M24.8135023,36.0623287 C29.3405023,36.0623287 33.0105023,32.7143287 33.0105023,28.5833287 C33.0105023,24.4533287 29.3405023,21.1043287 24.8135023,21.1043287 C20.2865023,21.1043287 16.6165023,24.4533287 16.6165023,28.5833287 C16.6165023,32.7143287 20.2865023,36.0623287 24.8135023,36.0623287 Z" id="Fill-10" fill="#090E2B"/>
                        </g>
                        <g id="eye2" transform="translate(81.203378, 15.000183)">
                            <path d="M23.2557812,1.861246 C26.6096324,3.34897691 31.0744206,8.28711729 27.357522,8.28711729 C23.6406234,8.28711729 15.5900245,7.23270759 10.1930245,9.45970759 C8.30802454,9.94170759 6.87752199,10.8641173 4.98452199,11.0891173 C0.67652199,11.9281173 -1.66408888,6.76839233 1.38185604,3.64904337 C4.82290212,0.125071736 16.4397812,-1.545754 23.2557812,1.861246 Z" id="Fill-4" fill="#090E2B"/>
                            <path d="M19.455322,34.2343173 C24.826322,32.9853173 28.843322,28.1153173 28.389322,24.4763173 C27.503322,19.6543173 18.218322,16.5753173 13.017322,19.2083173 C7.86632199,21.8153173 4.64332199,27.6403173 5.05932199,29.9403173 C5.66032199,31.5323173 13.966322,35.5113173 19.455322,34.2343173 Z" id="Fill-12" fill="#FFF"/>
                            <path d="M15.011222,31.6060173 C18.549222,31.6060173 21.417222,28.8520173 21.417222,25.4560173 C21.417222,22.0590173 19.396222,18.8490173 15.011222,19.3060173 C11.492222,19.6720173 8.60422199,22.0590173 8.60422199,25.4560173 C8.60422199,28.8520173 11.473222,31.6060173 15.011222,31.6060173 Z" id="Fill-14" fill="#090E2B"/>
                            <path d="M5.25072199,26.6376173 C7.27972199,19.0636173 16.440722,15.1686173 23.685722,18.7546173 C24.705722,19.2866173 26.361722,20.4806173 27.601722,21.9226173 C28.742722,23.2526173 28.593722,23.9496173 28.127722,23.8116173 C27.355722,23.5816173 25.722722,22.1166173 24.395722,21.4866173 C17.685722,18.3036173 10.704722,20.0896173 5.59372199,27.5586173 C5.34272199,27.9456173 5.10472199,27.0746173 5.25072199,26.6376173" id="Fill-22" fill="#090E2B"/>
                        </g>
                        <path d="M89.773817,88.8585998 C81.203378,89.8585998 88.1482904,99.3833823 83.7083884,100.648667 C72.3411441,103.888108 60,99.9572383 58.0067117,89.8585998 C56.8303329,83.8986871 60.3418642,84.6193542 63.1467832,84.8682179 C65.9517021,85.1170816 79.8038764,85.6292987 87.244688,85.6292987 C94.4593207,85.6292987 90.833428,88.7349642 89.773817,88.8585998 Z" id="Fill-18" fill="#090E2B"/>
                        <path d="M79.5163974,56.0474227 C79.9047316,56.0474227 82.4878873,60.4695558 83.4356699,62.0222568 C86.4544009,66.9676809 89.7813295,72.5049636 84.8702,75.6883 C82.4912,77.2313 75.0122,74.8407787 75.0122,73.0253 C75.0122,70.2632077 81.8382,75.1193 83.4442,72.3153 C84.3857451,70.8872578 80.8590997,63.6440183 79.5163974,59.348811 C78.7670658,56.9517537 79.1280631,56.0474227 79.5163974,56.0474227 Z" id="nose" fill="#090E2B"/>
                    </g>
                </g>
                <g id="Facial Accesories" transform="translate(517.000000, 209.000000) scale(1 1)" fill="#000">
                    <g id="Facial Accesories/None" stroke="none" stroke-width="1" fill="none" fill-rule="evenodd" fill-opacity="0"/>
                </g>
                <g id="Glass" transform="translate(520.000000, 164.000000) scale(1 1)" fill="#000">
                    <g id="Glass/None" stroke="none" stroke-width="1" fill="none" fill-rule="evenodd" fill-opacity="0"/>
                </g>
            </g>
        </g>
        <g transform="translate(396.000000, 509.500000) scale(1 1)" id="Master/Character/Standing">
            <g id="Master/Character/Standing" stroke="none" stroke-width="1" fill="none" fill-rule="evenodd">
                <g id="Lower Body/Standing" transform="translate(-64.000000, 629.000000) scale(1 1)">
                    <defs>
                        <polygon id="lower-bodystandingstand-2-path-1" points="0.354636271 0.4782 167.3115 0.4782 167.3115 15 0.354636271 15"/>
                    </defs>
                    <g id="Lower Body/Standing/Stand 2" stroke="none" stroke-width="1" fill="none" fill-rule="evenodd">
                        <g id="leg-1" transform="translate(304.000000, 725.000000)">
                            <path d="M91.0333748,44.9789165 C91.0333748,44.9789165 85.6872689,41.9621529 73.0392377,43.3781438 C69.6230332,43.7607626 64.431439,47.5437681 52.2698706,54.601629 C36.1508081,63.9552029 14.0008039,79.657638 6.47458733,96.7519621 C-11.6650898,137.950267 13.5960828,142.806815 18.1317498,143.955675 C22.6664198,145.102528 45.4334741,123.61361 45.4334741,123.61361 L64.8640719,97.252078 L94,72.2583324 L91.0333748,44.9789165 Z" id="Fill-1" fill="#090E2B"/>
                            <path d="M84.0508903,45.1496795 C75.8984523,46.5005966 39.1312778,65.3815085 23.3467062,82.0235297 C10.98672,95.0537934 3.85584305,109.84005 4.00220999,126.083979 C4.12050656,139.338731 14.6549161,143.12509 19.2303867,143.530165 C39.901208,145.362983 52.5639532,141.839025 64.3464918,132.860515 C72.8097089,126.41223 94.7296618,100.701904 100.688601,95.6155115 C105.604926,91.4180904 118,77.9847466 118,69.5719455 C118,51.5520686 92.2043308,43.7997602 84.0508903,45.1496795" id="Fill-3" fill="#FF0057"/>
                            <path d="M95.110037,0 C95.110037,0 81.2094424,49.8246703 79.8885262,51.562636 C79.2770279,52.366918 57.0982255,66.9684181 60.3195824,67.7079992 C64.1024785,68.576982 76.1485948,55.9025734 88.1157757,68.8775924 C98.6881012,80.3415965 93.2865332,86.0223356 91.5529555,90.1293497 C89.3247838,95.4089431 89.4896485,94.2383546 91.4340531,92.7044455 C106.068046,81.1647911 113.312102,74.1532043 116.048857,66.1442282 C117.986267,60.4774247 150,17.661355 150,17.661355 L95.110037,0 Z" id="Fill-5" fill="#757eff"/>
                            <path d="M59.0654064,91.0375975 C56.399542,85.9968122 59.4262338,81.1318134 60.6697516,86.0361888 C61.2946691,88.5008338 65.5896974,94.7061466 73.2223272,97.8939425 C74.7535426,98.4754929 77.2429865,101.620631 70.7878029,100.890766 C66.4592139,99.7225545 61.1399892,94.9592303 59.0654064,91.0375975 Z" id="Fill-27" fill="#FFB201"/>
                            <path d="M48.0319639,99.5212193 C46.0413605,94.2028513 47.0615666,90.7852623 49.968849,94.6714293 C50.0461757,94.7740902 53.0549172,104.864439 62.5648422,108.045525 C66.6794049,108.045525 67.5854312,110.278999 66.6794049,110.518573 C56.1870398,113.292989 49.4599301,103.336369 48.0319639,99.5212193 Z" id="Fill-29" fill="#FFB201"/>
                        </g>
                        <g id="leg-2" transform="translate(587.000000, 751.000000)">
                            <path d="M-1.8189894e-12,4.29850491 L11.4020686,79.7632614 C11.4020686,79.7632614 22.4543804,86.3768082 39.9032427,90.6492676 C57.3531043,94.9237306 87.6420349,92.3983214 88.2236303,90.6492676 C88.8052258,88.9002139 99.504783,75.5138422 82.0559207,68.5166255 C64.6060591,61.5194088 59.3527134,57.3511313 57.4610292,47.6071189 C56.6495937,43.4278221 59.0349344,0 59.0349344,0 L-1.8189894e-12,4.29850491 Z" id="Fill-7" fill="#757eff"/>
                            <g id="Group-11" transform="translate(1.000000, 104.000000)">
                                <mask id="lower-bodystandingstand-2-mask-2" fill="#fff">
                                    <use xlink:href="#lower-bodystandingstand-2-path-1"/>
                                </mask>
                                <g id="Clip-10"/>
                                <path d="M167.3115,15.0002 L2.9965,15.0002 C1.4775,9.9562 0.1475,4.6642 0.3815,0.4782 L165.0875,4.2122 C166.0715,7.3442 166.8235,11.0572 167.3115,15.0002" id="Fill-9" fill="#090E2B" mask="url(#lower-bodystandingstand-2-mask-2)"/>
                            </g>
                            <path d="M6.88677905,53 C6.88677905,53 18.3395331,60.8747197 21.7991881,68.5571057 C29.8700546,70.4784497 60.0757339,71.0375129 58.2382284,68.6647329 C52.3757583,61.0889775 60.0767309,53.6637008 64.6889395,53.6637008 C69.3011481,53.6637008 101.482918,76.3819981 105.710278,76.3819981 C109.937637,76.3819981 153.083622,93.6143005 158.463535,97.0723209 C163.844446,100.528348 166,109 166,109 L1.47496142,109 C1.47496142,109 -4.25989028,65.626259 6.88677905,53" id="Fill-12" fill="#FF0057"/>
                            <path d="M80.0080246,67.6742362 C80.6509994,58.7379553 92.9940067,62.4180896 87.6710189,64.9120564 C85.1707958,64.4567177 83.2798175,65.8133774 82.4945451,68.1025457 C82.105598,69.5392535 79.848862,69.1442108 80.0080246,67.6742362" id="Fill-14" fill="#FFB201"/>
                            <path d="M88.0080241,73.6741596 C88.6509568,64.7384019 100.993157,68.4177093 95.6715713,70.9118201 C93.1704576,70.4574948 91.280657,71.8131932 90.4943819,74.1024938 C90.1054604,75.5392846 87.8488719,75.1442191 88.0080241,73.6741596" id="Fill-16" fill="#FFB201"/>
                        </g>
                        <path d="M692.934985,-0.062903182 C692.934985,-0.062903182 715.512283,24.231404 719.709881,103.634028 C723.907478,183.036652 681.198378,355.819986 679.262495,379.790438 C677.326612,403.761892 677.157662,458.147512 668.804704,484.662168 C662.891461,503.428931 650.314758,749.819758 652.865096,762.535766 C655.347049,774.912947 576.881937,770.011996 565.89115,770.186422 C554.900362,770.360847 556.730652,597.024164 548.644191,567.060097 C548.150599,565.231169 547.691395,562.246796 547.2658,558.247011 C530.73467,596.61414 514.074704,631.299601 503.078701,652.374603 C477.287507,701.808072 460.352669,737.890626 459.854468,750.940846 C459.466532,761.109392 440.794506,758.705826 427.310991,753.610026 C413.828478,748.514226 377.561021,727.27304 376.062407,716.78776 C374.564796,706.301477 400.189589,628.009182 434.784012,487.990952 C446.263694,441.533373 479.82663,405.227302 481.537756,392.975932 C484.972038,368.400024 449.513531,205.969896 454.15773,134.191685 C459.934661,44.8878905 504.5,-5.68434189e-14 504.5,-5.68434189e-14 L504.5,-5.68434189e-14 L586.827,3.28109682 L692.934985,-0.062903182 Z" id="Combined-Shape" fill="#001386"/>
                        <path d="M478.984261,41.7753898 C455.867004,81.8763299 493.664478,58.338375 561.764801,60.0780832 C597.299464,60.9858608 641.022859,40.959833 692.934985,-1.30492839e-13 L505.309705,-0.062903182 C494.226614,16.6112324 485.451466,30.5573301 478.984261,41.7753898 Z" id="Fill-22" fill="#001386"/>
                        <path d="M607.174924,398.025923 C598.532113,450.27234 572.831452,500.800272 553.492597,548.526114 C552.038555,551.504842 548.196228,559.577495 549.150349,556.180542 C549.939488,553.373317 551.007905,550.623259 552.113096,547.935383 C569.338969,502.885382 585.423872,457.16943 598.532113,410.743397 C599.54388,406.961315 600.54372,402.79611 601.139052,398.924767 C608.837622,339.789494 608.598097,279.809748 613.136139,220.3415 C614.337736,203.893305 615.918994,183.613884 618.357968,167.291057 C618.442447,166.564929 619.217671,166.966105 618.94038,171.194494 C612.050825,248.208152 615.817734,345.779506 607.174924,398.025923 Z" id="Fill-25" fill="#090E2B"/>
                    </g>
                </g>
                <g id="Upper Body/Standing" transform="translate(69.000000, -172.000000) scale(1 1)">
                    <g id="Upper Body/Standing/Reading Book 1" stroke="none" stroke-width="1" fill="none" fill-rule="evenodd">
                        <path d="M667.706947,637.526131 C667.706947,637.526131 686.709367,621.889752 719.016378,599.239166 C743.585769,582.013835 753.342202,573.790903 755.300082,560.226767 C758.168975,540.378863 766.745686,540.253787 773.738113,540.253787 C777.833678,540.253787 787.436278,536.13932 790.715726,542.817325 C790.558896,548.009439 791.965373,561.226367 789.66886,563.587783 C783.890118,569.530347 675.264762,709 675.264762,709 C675.264762,709 644.399189,673.129485 667.706947,637.526131" id="Fill-1" fill="#757eff"/>
                        <path d="M600.229735,584.470543 C595.585237,641.542614 606.747381,670.540265 608.748145,678.495999 C608.748145,678.495999 663.607003,633.496377 688.465532,617.982728 C699.251714,656.608389 699.251714,721.786291 700,725.533288 C693.264427,733.776482 633.286518,783.098428 598.068066,786.803359 C588.336348,787.826997 550.414864,786.767301 551.89743,734.313342 C553.380997,681.858381 536.838678,542.219872 562.460465,507 C562.460465,507 604.874233,527.398472 600.229735,584.470543 Z" id="Fill-3" fill="#FF0057"/>
                        <polygon id="Fill-5" fill="#090E2B" points="740.969919 404.281843 684 548.593005 770.179285 555 825 419.763083 795.218314 375 783.78891 411.437785"/>
                        <path d="M438.790041,475.406505 C435.996263,488.316702 386,498.803353 386,498.803353 C386,498.803353 482.987464,558.327979 499.715391,554.853615 C530.560547,548.448378 545.341479,517.273832 551,502.480856 C534.182843,498.025212 515.379589,491.806458 504.396404,486.875134 C493.412216,481.94381 498.561741,445.73679 497.890018,427.336817 C475.135624,422.831312 443.128272,414 443.128272,414 C443.128272,414 441.58382,462.496308 438.790041,475.406505 Z" id="Fill-8" fill="#757eff"/>
                        <path d="M411.312855,491 C411.312855,491 467.839397,532.310272 496.696933,532.988534 C510.837236,533.320174 526.733328,504.512487 529.528993,494.329555 C544.882133,499.440298 558.96115,505.284742 567.082486,510.045473 C572.981778,534.569816 578.969059,590.674832 577.868191,613.957525 C576.814318,636.273268 562.147078,679.349446 563.149958,698.15101 C564.151838,716.953572 568.827276,782.150706 575.592465,826.232791 C579.303019,850.41051 370.769047,847.995136 332.065692,830.489164 C330.040935,811.617677 375.485481,746.829099 376.65334,728.658849 C377.8202,710.487601 370.963023,677.452508 368.506318,652.816287 C366.050613,628.181064 347.206896,525.740083 351.294796,514.952268 C354.020062,507.760391 374.026082,499.776302 411.312855,491 Z" id="Fill-10" fill="#FF0057"/>
                        <path d="M405.618135,926.320199 C411.881797,932.360124 414.925178,935.521854 417.253434,941.186343 C420.482821,949.041542 421.503878,958.882724 422.386906,961.72745 C425.66859,972.305557 414.84095,965.985163 412.010882,958.782454 C406.441172,971.987615 415.329778,998.383957 406.441172,995.826798 C379.999628,988.219228 382.726151,968.884277 380.455222,937.932779 C379.658687,927.080084 344.563877,893.761143 339.173185,883.523524 C336.308877,878.0817 369.841795,844.78872 375.595554,852.023849 C381.348307,859.258979 394.152859,915.260815 405.618135,926.320199 Z" id="Fill-12" fill="#757eff"/>
                        <path d="M370.304538,503 C370.304538,503 329.453127,514.045798 318.514926,559.694102 C307.576725,605.341406 255.981833,700.81939 250.594974,734.479625 C242.034774,787.963242 254.534572,841.963078 289.856557,934 C303.850754,923.869716 375.805583,865.84918 379.972851,850.091516 C363.448204,819.88174 345.75612,765.58778 347.973648,739.329676 C350.191176,713.070571 393.117548,659.607962 395.603867,627.989591 C397.994906,597.569393 389.561796,555.906196 370.304538,503 Z" id="Fill-15" fill="#FF0057"/>
                        <path d="M768.847874,535.082556 C776.83495,549.301006 767.403477,548.610412 765.366586,556.293637 C761.371534,571.354152 791.347549,559.697774 791.347549,559.697774 C791.347549,559.697774 792.367004,548.611409 791.857276,544.212738 C790.861037,535.617691 787.74211,525.266763 779.454243,520.233305 C776.36156,518.354851 764.999178,528.231432 768.847874,535.082556" id="Fill-17" fill="#757eff"/>
                        <path d="M595.720806,702.745385 C595.322387,703.717771 592.094305,711.112734 591.010207,712.989528 C590.650895,713.611569 599.840005,686.345685 608.831465,678.082479 C609.234334,677.713875 608.822144,678.671011 608.558538,679.173284 C604.602454,686.718523 599.072087,694.56623 595.720806,702.745385 Z" id="Fill-19" fill="#090E2B"/>
                        <path d="M563.289599,679.303785 C565.091606,666.868978 568.853781,654.78787 571.332435,642.545091 C575.234909,622.144127 574.071235,600.424352 568.766147,581.12052 C568.701753,580.894487 568.003006,578.058748 568.199254,578 C568.395502,577.944732 569.487767,580.664453 569.554205,580.91649 C582.035378,621.771426 574.002495,640.868201 565.527032,679.650835 C562.381082,702.276993 565.846963,738.523069 568.356833,766.310415 C568.7213,770.345519 569.478553,779.11675 569.404953,778.997621 C569.325146,778.868447 569.095412,777.832976 568.87552,776.405133 C566.523125,761.130132 559.019776,707.065297 563.289599,679.303785 Z" id="Fill-21" fill="#090E2B"/>
                        <path d="M396.034626,584.921793 C402.614809,619.820294 392.180462,655.246502 372.079421,683.934218 C371.872859,684.237475 372.110207,683.413494 372.324713,683.063352 C387.692709,657.151834 397.001891,628.606767 395.512263,598.030677 C395.302722,593.722233 394.885626,587.520427 394.40398,583.25787 C394.279844,582.369047 395.898573,583.989078 396.034626,584.921793" id="Fill-23" fill="#090E2B"/>
                        <path d="M353,779 C359.937619,797.512629 366.399194,817.03696 372.768123,835.563544 C373.197843,836.816458 374.462365,839.829632 373.822712,838.783045 C368.968646,830.840944 364.291987,818.621791 361.019804,809.879301 C358.116235,800.073279 353.610085,788.301667 353,779" id="Fill-25" fill="#090E2B"/>
                        <path d="M764.710282,563.510255 C762.454763,556.677208 765.928745,552.430788 770.109478,548.812478 C770.586587,548.400002 771.506201,547.48306 771.94661,547.025084 C772.125919,546.839124 771.813439,547.735293 771.601623,548.126008 C769.867254,551.324918 766.276878,553.326957 765.233529,558.940383 C765.074144,559.795008 765.439053,565.718037 764.710282,563.510255" id="Fill-27" fill="#090E2B"/>
                        <polygon id="Fill-29" fill="#FFB201" points="776.342219 381 763 407.50771 820.323352 417 821 416.103302"/>
                    </g>
                </g>
                <g id="Head" transform="translate(399.000000, 26.000000) scale(1 1)">
                    <g id="Head/Short Hair Blue" stroke="none" stroke-width="1" fill="none" fill-rule="evenodd">
                        <path d="M203.3041,80.3781 C203.3041,80.3781 245.325044,106.524642 237.9671,158.0421 C233.30916,190.655184 248.155059,198.619131 237.9671,236.39085 C233.30916,253.6601 223.9421,270.1291 204.9101,273.8721 C190.5291,276.7011 155.4841,270.1421 130.1601,253.6601 C115.741004,244.275411 108.695804,231.120338 102.839951,212.467257 C86.3461236,211.07768 67.2046642,185.016111 81.55,174.4899 C84.9121577,172.023692 88.2985705,171.112896 91.8838097,171.633573 C86.3580791,146.740974 87.2671,137.240294 87.2671,126.0621 C87.2671,110.5371 68.5191,91.9091 103.9891,87.9181 C139.4581,83.9261 195.8531,70.4331 203.3041,80.3781 Z" id="Combined-Shape" fill="#757eff"/>
                        <path d="M123.991097,197.974758 C127.207892,191.05864 123.657342,175.918238 118.355838,164.003141 C115.785715,158.226807 110.408838,116.248782 130.751715,118.061567 C151.63046,119.922104 160.5076,123.0061 180.4026,122.6081 C193.0006,122.3561 215.366179,111.996593 215.705179,108.447593 C220.759389,111.359054 234.024819,113.974183 238.403543,137.719356 C246.854543,128.547356 246.0036,115.7791 243.8766,103.7461 C240.6826,85.6911 220.0506,84.2101 217.6836,83.9141 C220.3876,77.1091 214.2306,61.5091 206.7796,54.3251 C201.5256,49.2601 186.4756,32.6451 163.7056,35.2811 C151.1626,36.7331 147.0366,50.7761 147.0366,50.7761 C141.9666,47.5221 122.7226,46.0641 110.0236,50.7881 C88.7996,58.6831 104.4456,72.0791 106.8116,74.7421 C101.0646,76.2221 80.2401078,86.8514986 71.692034,103.7461 C60.6046971,125.659357 68.0307556,147.086046 78.446496,160.848214 C88.8622364,174.610382 94.4314772,169.724614 105.882354,179.67861 C112.512678,189.080043 121.004519,204.395906 123.991097,197.974758 Z" id="Fill-3" fill="#001386"/>
                        <path d="M86.5912,186.8615 C91.2362,181.0155 99.3112,184.2235 102.9222,189.5595 C104.5732,191.9995 105.1982,196.5475 104.3242,197.5495 C104.1152,197.7905 103.5582,195.9695 103.1792,195.2405 C99.7342,188.6025 96.3562,185.4085 87.2562,187.8575 C86.6992,187.9965 86.2372,187.3175 86.5912,186.8615" id="Fill-8" fill="#090E2B"/>
                        <path d="M101.9779,193.4806 C96.6629,193.6326 98.9159,202.7266 96.9999,200.2376 C96.0239,196.4226 97.4289,191.4386 101.8789,190.7476 C103.9009,190.3956 104.0229,193.6846 101.9779,193.4806" id="Fill-10" fill="#090E2B"/>
                        <path d="M164.020452,271.36959 C154.644565,269.470255 148.435203,265.601303 140.050203,261.363303 C139.551203,261.083303 130.571062,255.208763 130.268783,254.3815 C129.882863,253.325333 130.7298,253.9565 131.3648,254.3815 C138.7548,259.3395 158.1098,266.6665 169.8538,269.9605 C170.357039,270.040748 173.552665,271.357952 171.903442,271.675889 C171.278277,271.796408 167.7443,272.123954 164.020452,271.36959 Z" id="Fill-12" fill="#090E2B"/>
                    </g>
                </g>
                <g id="Expressions" transform="translate(520.000000, 159.000000) scale(1 1)">
                    <g id="Expressions/Happy" stroke="none" stroke-width="1" fill="none" fill-rule="evenodd">
                        <g id="eye1" transform="translate(21.027098, 10.213671)">
                            <path d="M0.0487023333,7.96572872 C1.82485498,-0.0171869856 25.1977023,-2.81531309 35.4827023,3.36568691 C39.0387023,5.47868691 45.6427023,11.2837287 39.7957023,14.4437287 C38.2517023,15.1157287 36.7517023,14.4267287 35.4827023,13.6077287 C21.4647023,3.86572872 -1.18942441,13.5304877 0.0487023333,7.96572872 Z" id="Fill-1" fill="#090E2B"/>
                            <path d="M19.0113023,22.3973287 C13.7233023,23.8973287 9.19030233,28.1473287 8.76930233,31.6693287 C8.51430233,33.7973287 16.8643023,38.9063287 24.9173023,39.3033287 C35.5113023,39.8243287 40.8513023,34.0853287 40.8324531,32.2513287 C40.1193023,26.7013287 33.7283023,18.2233287 19.0113023,22.3973287 Z" id="Fill-6" fill="#FFF"/>
                            <path d="M35.3981023,25.5550287 C27.2551023,19.4010287 14.6431023,23.4110287 8.76910233,31.6690287 C8.43210233,32.0970287 8.52910233,31.0200287 8.76310233,30.5290287 C11.5971023,24.5820287 16.7101023,21.7750287 22.6381023,20.5510287 C26.2051023,19.8140287 29.5311023,19.7540287 33.0101023,21.3120287 C34.3551023,21.9130287 36.7311023,23.7450287 38.5671023,25.8170287 C39.9991023,27.4320287 41.2051023,30.2010287 39.5481023,29.2220287 C38.2511023,28.4550287 36.4781023,26.3720287 35.3981023,25.5550287 Z" id="Fill-8" fill="#090E2B"/>
                            <path d="M24.8135023,36.0623287 C29.3405023,36.0623287 33.0105023,32.7143287 33.0105023,28.5833287 C33.0105023,24.4533287 29.3405023,21.1043287 24.8135023,21.1043287 C20.2865023,21.1043287 16.6165023,24.4533287 16.6165023,28.5833287 C16.6165023,32.7143287 20.2865023,36.0623287 24.8135023,36.0623287 Z" id="Fill-10" fill="#090E2B"/>
                        </g>
                        <g id="eye2" transform="translate(81.203378, 15.000183)">
                            <path d="M23.2557812,1.861246 C26.6096324,3.34897691 31.0744206,8.28711729 27.357522,8.28711729 C23.6406234,8.28711729 15.5900245,7.23270759 10.1930245,9.45970759 C8.30802454,9.94170759 6.87752199,10.8641173 4.98452199,11.0891173 C0.67652199,11.9281173 -1.66408888,6.76839233 1.38185604,3.64904337 C4.82290212,0.125071736 16.4397812,-1.545754 23.2557812,1.861246 Z" id="Fill-4" fill="#090E2B"/>
                            <path d="M19.455322,34.2343173 C24.826322,32.9853173 28.843322,28.1153173 28.389322,24.4763173 C27.503322,19.6543173 18.218322,16.5753173 13.017322,19.2083173 C7.86632199,21.8153173 4.64332199,27.6403173 5.05932199,29.9403173 C5.66032199,31.5323173 13.966322,35.5113173 19.455322,34.2343173 Z" id="Fill-12" fill="#FFF"/>
                            <path d="M15.011222,31.6060173 C18.549222,31.6060173 21.417222,28.8520173 21.417222,25.4560173 C21.417222,22.0590173 19.396222,18.8490173 15.011222,19.3060173 C11.492222,19.6720173 8.60422199,22.0590173 8.60422199,25.4560173 C8.60422199,28.8520173 11.473222,31.6060173 15.011222,31.6060173 Z" id="Fill-14" fill="#090E2B"/>
                            <path d="M5.25072199,26.6376173 C7.27972199,19.0636173 16.440722,15.1686173 23.685722,18.7546173 C24.705722,19.2866173 26.361722,20.4806173 27.601722,21.9226173 C28.742722,23.2526173 28.593722,23.9496173 28.127722,23.8116173 C27.355722,23.5816173 25.722722,22.1166173 24.395722,21.4866173 C17.685722,18.3036173 10.704722,20.0896173 5.59372199,27.5586173 C5.34272199,27.9456173 5.10472199,27.0746173 5.25072199,26.6376173" id="Fill-22" fill="#090E2B"/>
                        </g>
                        <path d="M89.773817,88.8585998 C81.203378,89.8585998 88.1482904,99.3833823 83.7083884,100.648667 C72.3411441,103.888108 60,99.9572383 58.0067117,89.8585998 C56.8303329,83.8986871 60.3418642,84.6193542 63.1467832,84.8682179 C65.9517021,85.1170816 79.8038764,85.6292987 87.244688,85.6292987 C94.4593207,85.6292987 90.833428,88.7349642 89.773817,88.8585998 Z" id="Fill-18" fill="#090E2B"/>
                        <path d="M79.5163974,56.0474227 C79.9047316,56.0474227 82.4878873,60.4695558 83.4356699,62.0222568 C86.4544009,66.9676809 89.7813295,72.5049636 84.8702,75.6883 C82.4912,77.2313 75.0122,74.8407787 75.0122,73.0253 C75.0122,70.2632077 81.8382,75.1193 83.4442,72.3153 C84.3857451,70.8872578 80.8590997,63.6440183 79.5163974,59.348811 C78.7670658,56.9517537 79.1280631,56.0474227 79.5163974,56.0474227 Z" id="nose" fill="#090E2B"/>
                    </g>
                </g>
                <g id="Facial Accesories" transform="translate(517.000000, 209.000000) scale(1 1)" fill="#000">
                    <g id="Facial Accesories/None" stroke="none" stroke-width="1" fill="none" fill-rule="evenodd" fill-opacity="0"/>
                </g>
                <g id="Glass" transform="translate(520.000000, 164.000000) scale(1 1)" fill="#000">
                    <g id="Glass/None" stroke="none" stroke-width="1" fill="none" fill-rule="evenodd" fill-opacity="0"/>
                </g>
            </g>
        </g>
    </g>
</svg>
