<svg viewBox="120 120 2960 1960" xmlns="http://www.w3.org/2000/svg" overflow="visible">
    <g id="Master/Scenes/Freelancing" stroke="none" stroke-width="1" fill="none" fill-rule="evenodd">
        <g id="Background" transform="translate(0.000000, -177.000000)">
            <g id="Flying Objects" opacity=".5" transform="translate(2014.000000, 215.000000) scale(1 1)">
                <g id="Flying Objects/Cloud 1" stroke="none" stroke-width="1" fill="none" fill-rule="evenodd">
                    <path d="M479.95575,473.895048 C489.613069,459.137123 499.099888,436.733126 487.997876,423.547909 C481.436886,415.755283 470.330969,416.37302 462.370839,421.934228 C454.409408,427.495437 448.858402,436.870226 443.55859,445.96136 C452.064059,424.955151 460.742631,403.137375 461.346539,379.753193 C461.950447,356.369012 452.155166,330.873179 433.86613,323.327963 C414.905507,315.50382 394.716245,328.774134 378.352165,342.761464 C343.415317,372.620853 311.811676,408.189581 284.665759,448.195929 C286.38117,435.63948 288.09658,422.759979 286.097437,410.263412 C284.098294,397.765269 277.573747,385.527143 267.572825,381.604829 C257.656503,377.714031 246.935838,382.62441 237.627328,388.303808 C205.588977,407.842892 177.856072,437.617184 158,473.792617 C160.945352,473.792617 156.578734,478.669903 159.524086,478.669903 L479.95575,473.895048 Z" id="cloud" fill="#F0F1FF" transform="translate(325.500000, 399.834951) scale(-1, 1) translate(-325.500000, -399.834951)"/>
                </g>
            </g>
            <g id="Phone" transform="translate(1218.000000, 483.000000) scale(1 1)">
                <g id="Phone/Screen 1" stroke="none" stroke-width="1" fill="none" fill-rule="evenodd">
                    <g id="Group-19">
                        <path d="M855.432,1748.85552 L106.6968,1748.85552 C47.7696,1748.85552 0,1701.08592 0,1642.15872 L0,106.69632 C0,47.76912 47.7696,-0.000479999997 106.6968,-0.000479999997 L855.432,-0.000479999997 C914.3592,-0.000479999997 962.1288,47.76912 962.1288,106.69632 L962.1288,1642.15872 C962.1288,1701.08592 914.3592,1748.85552 855.432,1748.85552 Z" id="Stroke-1" fill="#090E2B"/>
                        <path d="M827.33976,71.99976 L714.03336,71.99976 L714.03336,101.26056 C714.03336,141.15336 681.69336,173.49576 641.79816,173.49576 L320.33016,173.49576 C280.43496,173.49576 248.09256,141.15336 248.09256,101.25816 L248.09256,71.99976 L134.79096,71.99976 C100.11096,71.99976 71.99736,100.11096 71.99736,134.79096 L71.99736,1614.06456 C71.99736,1648.74456 100.11096,1676.85576 134.79096,1676.85576 L827.33736,1676.85576 C862.01736,1676.85576 890.12856,1648.74456 890.12856,1614.06456 L890.12856,134.79096 C890.12856,100.11096 862.01736,71.99976 827.33976,71.99976 Z" id="Stroke-3" fill="#FFF"/>
                        <path d="M280.88976,1317.76248 L190.76016,1317.76248 C169.25616,1317.76248 151.82496,1300.33128 151.82496,1278.82728 L151.82496,1188.69768 C151.82496,1167.19368 169.25616,1149.76248 190.76016,1149.76248 L280.88976,1149.76248 C302.39376,1149.76248 319.82496,1167.19368 319.82496,1188.69768 L319.82496,1278.82728 C319.82496,1300.33128 302.39376,1317.76248 280.88976,1317.76248 Z" id="Stroke-13" stroke="#C7D2F2" stroke-width="5" stroke-linecap="round" stroke-linejoin="round" stroke-dasharray="10,12"/>
                    </g>
                    <path d="M281.0648,1318 L190.9352,1318 C169.4312,1318 152,1300.5688 152,1279.0648 L152,1188.9352 C152,1167.4312 169.4312,1150 190.9352,1150 L281.0648,1150 C302.5688,1150 320,1167.4312 320,1188.9352 L320,1279.0648 C320,1300.5688 302.5688,1318 281.0648,1318 Z" id="Stroke-13-Copy-2" fill="#A191FF"/>
                    <path d="M781.741436,802.6768 L191.258564,802.6768 C169.575969,802.6768 152,785.2456 152,763.7416 L152,444.9352 C152,423.4312 169.575969,406 191.258564,406 L781.741436,406 C803.424031,406 821,423.4312 821,444.9352 L821,763.7416 C821,785.2456 803.424031,802.6768 781.741436,802.6768 Z" id="Stroke-5-Copy" fill="#FFB201"/>
                    <path d="M281.0648,1069 L190.9352,1069 C169.4312,1069 152,1051.5664 152,1030.0648 L152,939.9352 C152,918.4312 169.4312,901 190.9352,901 L281.0648,901 C302.5688,901 320,918.4312 320,939.9352 L320,1030.0648 C320,1051.5664 302.5688,1069 281.0648,1069 Z" id="Stroke-7-Copy" fill="#FF0057"/>
                    <rect id="Rectangle" fill="#E7EAFD" x="378" y="901" width="443" height="18" rx="9"/>
                    <rect id="Rectangle-Copy-3" fill="#E7EAFD" x="378" y="1162" width="443" height="18" rx="9"/>
                    <rect id="Rectangle-Copy" fill="#E7EAFD" x="378" y="965" width="332" height="18" rx="9"/>
                    <rect id="Rectangle-Copy-4" fill="#E7EAFD" x="378" y="1226" width="332" height="18" rx="9"/>
                    <rect id="Rectangle-Copy-2" fill="#E7EAFD" x="378" y="1029" width="257" height="18" rx="9"/>
                    <rect id="Rectangle-Copy-5" fill="#E7EAFD" x="378" y="1290" width="257" height="18" rx="9"/>
                </g>
            </g>
            <path d="M2776.5,2228 C2778.433,2228 2780,2229.567 2780,2231.5 C2780,2233.36856 2778.53572,2234.89513 2776.69204,2234.99482 L2776.5,2235 L130.5,2235 C128.567003,2235 127,2233.433 127,2231.5 C127,2229.63144 128.464278,2228.10487 130.307965,2228.00518 L130.5,2228 L2776.5,2228 Z" id="Floor" fill="#090E2B" fill-rule="nonzero"/>
            <g id="Outdoor Plants" transform="translate(2401.000000, 1267.000000) scale(1 1)">
                <g id="Outdoor Plants/Bush" stroke="none" stroke-width="1" fill="none" fill-rule="evenodd">
                    <g id="Group-16-Copy" transform="translate(98.000000, 689.000000)">
                        <path d="M2.39500229,275.969448 C4.95578,275.610539 7.81571397,276.244612 10.3764917,275.885703 L558,275.885703 C557.748709,255.057012 545.866222,224.872758 527.67752,214.67974 C509.500785,204.498686 485.903338,204.821704 468.013793,215.46934 C476.079046,172.735231 481.918576,128.086941 470.155752,86.2022508 C458.41686,44.3175605 424.971188,5.75876099 381.773022,0.590470148 C341.267263,-4.24283888 301.934196,21.2038153 278.611973,54.6661058 C255.28975,88.1283962 244.831246,128.637268 234.815494,168.165122 C235.952288,149.465959 226.678444,130.479668 211.253946,119.855959 C195.817483,109.23225 174.768847,107.365923 157.704973,115.094432 C138.654702,123.720214 125.982442,142.814177 120.107013,162.889159 C114.24355,182.976104 114.255516,204.223522 114.315347,225.135958 C102.109771,197.476031 66.8212974,182.581304 38.4971814,193.133231 C10.1610992,203.697122 -6.48395591,247.077267 2.39500229,275.969448" id="Fill-1" fill="#F67A49"/>
                        <path d="M118.397008,275.974803 C119.891241,275.760692 121.552828,276.153228 123.047061,275.927223 L442,275.927223 C441.856554,263.85377 434.923314,246.356186 424.344146,240.456253 C413.753025,234.556319 400.018038,234.734745 389.59427,240.920159 C394.292138,216.142818 397.687034,190.247344 390.849426,165.969594 C383.999863,141.691845 364.515068,119.341089 339.352189,116.343542 C315.76722,113.536316 292.863621,128.286149 279.27208,147.686938 C265.692493,167.087727 259.607977,190.556615 253.762539,213.478332 C254.420001,202.641962 249.02881,191.639062 240.039506,185.489334 C231.050202,179.32771 218.785539,178.233367 208.85188,182.717792 C197.758697,187.725599 190.37121,198.787974 186.952406,210.42131 C183.545555,222.066541 183.545555,234.389789 183.581417,246.498926 C176.480823,230.476325 155.92018,221.840536 139.423851,227.966474 C122.915568,234.080518 113.220986,259.226605 118.397008,275.974803" id="Fill-4" fill="#FFB201"/>
                    </g>
                </g>
            </g>
            <g id="Outdoor Plants" transform="translate(2106.000000, 1267.000000) scale(1 1)">
                <g id="Outdoor Plants/Trees" stroke="none" stroke-width="1" fill="none" fill-rule="evenodd">
                    <g id="Group" transform="translate(50.000000, 27.000000)">
                        <path d="M246.327941,707.554023 C202.725234,648.694159 266.995654,634.469818 237.177083,579.041474 C201.045875,511.877502 252.889207,525.364984 230.558991,457.77841 C212.889507,404.298257 182.034281,401.995081 179.286724,325.770544 C176.543382,249.546006 39.2582753,245.25238 68.925141,351.777408 C98.5962208,458.302435 22.2672523,432.071593 35.6974086,509.466735 C53.6492336,612.915227 -18.38566,571.479753 4.55980649,651.097777 C24.0792556,718.828035 -59.1552187,832.362634 138.705486,859 C314.797719,849.998599 289.934862,766.418112 246.327941,707.554023 Z" id="Fill-1" fill="#009BA0"/>
                        <path d="M95,585 C95,585 102.269883,617.395249 137,651" id="Stroke-5" stroke="#090E2B" stroke-width="9.107" stroke-linecap="round" stroke-linejoin="round"/>
                        <path d="M63,713 C63,713 75.8067111,744.89889 137,778" id="Stroke-7" stroke="#090E2B" stroke-width="9.107" stroke-linecap="round" stroke-linejoin="round"/>
                        <path d="M199,637 C199,637 190.990083,687.972701 137,725" id="Stroke-9" stroke="#090E2B" stroke-width="9.107" stroke-linecap="round" stroke-linejoin="round"/>
                        <path d="M608.603445,473.480495 C570.590587,379.998182 626.937388,314.013535 549.627883,136.939688 C472.318378,-40.1341592 367.026875,-40.7590157 351.056381,107.78507 C335.090104,256.329155 210.936686,350.641456 268.195115,484.721371 C324.468099,616.493705 207.88992,647.351714 245.711222,745.061987 C293.787219,869.262883 452.912681,874 452.912681,874 C626.199908,874 654.358401,816.786582 667.882995,767.076651 C703.354583,636.700085 625.009296,513.826235 608.603445,473.480495 Z" id="Fill-11" fill="#FFB201"/>
                        <path d="M535,314 C535,314 520.978644,385.165722 454,459" id="Stroke-15" stroke="#090E2B" stroke-width="9.107" stroke-linecap="round" stroke-linejoin="round"/>
                        <path d="M560,611 C560,611 541.481013,682.167801 453,756" id="Stroke-17" stroke="#090E2B" stroke-width="9.107" stroke-linecap="round" stroke-linejoin="round"/>
                        <path d="M365,465 C365,465 376.498556,549.574282 454,611" id="Stroke-19" stroke="#090E2B" stroke-width="9.107" stroke-linecap="round" stroke-linejoin="round"/>
                        <line x1="136" y1="938" x2="136" y2="511" id="Stroke-3" stroke="#090E2B" stroke-width="9.107" stroke-linecap="round" stroke-linejoin="round"/>
                        <line x1="453" y1="932" x2="453" y2="226" id="Stroke-13" stroke="#090E2B" stroke-width="9.107" stroke-linecap="round" stroke-linejoin="round"/>
                    </g>
                </g>
            </g>
            <g id="Flying Objects" opacity=".5" transform="translate(905.000000, 400.000000) scale(-1, 1) translate(-905.000000, -400.000000) translate(555.000000, 0.000000) scale(1 1)">
                <g id="Flying Objects/Cloud 2" stroke="none" stroke-width="1" fill="none" fill-rule="evenodd">
                    <path d="M479.95575,473.895048 C489.613069,459.137123 499.099888,436.733126 487.997876,423.547909 C481.436886,415.755283 470.330969,416.37302 462.370839,421.934228 C454.409408,427.495437 448.858402,436.870226 443.55859,445.96136 C452.064059,424.955151 460.742631,403.137375 461.346539,379.753193 C461.950447,356.369012 424.683149,265.573363 301,363.097442 C274.191914,384.2356 253.304938,454.747164 158,473.792617 C160.945352,473.792617 156.578734,478.669903 159.524086,478.669903 L479.95575,473.895048 Z" id="cloud" fill="#E4E8FD" transform="translate(325.500000, 398.771931) scale(-1, 1) translate(-325.500000, -398.771931)"/>
                </g>
            </g>
        </g>
        <g id="Chair" transform="translate(666.000000, 1259.000000) scale(1 1)">
            <g id="Chair/Tall Chair 2" stroke="none" stroke-width="1" fill="none" fill-rule="evenodd">
                <g id="Group" transform="translate(150.000000, 169.000000)">
                    <path d="M322.77787,249.880468 C322.347405,248.021078 320.683897,246.630108 318.692311,246.622411 L318.658182,246.622411 L156.340052,245.99972 L156.32574,245.99972 C154.122775,245.990152 152.127886,247.502075 151.614851,249.737523 L74.0695961,627.630966 C73.7349127,629.095607 74.638778,630.563547 76.1052196,630.917612 C77.5826705,631.273876 79.0700298,630.367822 79.4278327,628.892185 L160.163589,255.682956 L315.32566,255.088083 L395.570401,628.892185 C395.922699,630.356826 397.393544,631.269478 398.866592,630.928608 C400.348446,630.586639 401.271027,629.111001 400.928637,627.630966 L322.77787,249.880468 Z" id="Fill-4" fill="#090E2B"/>
                    <path d="M265.77787,249.880468 C265.347405,248.021078 263.683897,246.630108 261.692311,246.622411 L261.658182,246.622411 L99.3400519,245.99972 L99.3257398,245.99972 C97.1227746,245.990152 95.1278856,247.502075 94.6148512,249.737523 L17.0695961,627.630966 C16.7349127,629.095607 17.638778,630.563547 19.1052196,630.917612 C20.5826705,631.273876 22.0700298,630.367822 22.4278327,628.892185 L103.163589,255.682956 L258.32566,255.088083 L338.570401,628.892185 C338.922699,630.356826 340.393544,631.269478 341.866592,630.928608 C343.348446,630.586639 344.271027,629.111001 343.928637,627.630966 L265.77787,249.880468 Z" id="Fill-4-Copy" fill="#090E2B"/>
                    <path d="M58.1921488,41.2196463 C66.3085398,81.4190302 112.030062,206.924243 136.697616,221.042896 C161.365171,235.160391 305.423549,232.409824 322.322031,233.819837 C339.220514,235.231007 357.527877,245.104572 354.711271,263.44053 C351.894665,281.777645 344.853727,276.135278 295.566004,276.135278 C246.278282,276.135278 130.805511,276.954891 130.805511,276.954891 C130.805511,276.954891 71.0083919,280.665147 46.3951587,220.787056 C23.8530616,165.945883 3.90856718,64.7475273 1.09196081,46.4104117 C-1.72348979,28.0732961 0.311817478,5.58486122 14.2642476,1.0202623 C24.8279662,-2.43531157 50.0757579,1.0202623 58.1921488,41.2196463 Z" id="Fill-1" fill="#008BF2"/>
                </g>
            </g>
        </g>
        <g transform="translate(501.000000, 557.000000) scale(1 1)" id="Master/Character/Sitting">
            <g id="Master/Character/Sitting" stroke="none" stroke-width="1" fill="none" fill-rule="evenodd">
                <g id="Sitting" transform="translate(179.000000, 940.000000) scale(1 1)">
                    <g id="Sitting/On Chair 1" stroke="none" stroke-width="1" fill="none" fill-rule="evenodd">
                        <path d="M410.615323,399.49997 C410.615323,399.49997 400.357969,471.949685 396.171539,502.905682 C391.949971,534.125643 467.0487,503.736716 467.0487,503.736716 C467.0487,503.736716 453.509565,484.44329 453.304761,479.157997 C453.100961,473.870697 476.218696,412 476.218696,412 L410.615323,399.49997 Z" id="Fill-3" fill="#ff8282"/>
                        <path d="M561.035706,7.46069873e-14 C597.897949,16.8477074 635.153618,59.3884812 602.589029,139.128809 C570.024441,218.869137 493.394303,411.87247 481.349448,420.555326 C469.305594,429.239182 405.784608,412 405.784608,412 C405.784608,412 412.732597,330.944505 426.534884,251.242608 C436.641716,192.880271 457.952435,150.325862 457.952435,150.325862 C457.952435,150.325862 286.540837,174.784268 243.98254,146.076381 C188.124727,108.397247 229.480836,6.86053872 261.586066,-5.71064401 C302.858588,-21.8713886 490.854841,-32.0758202 561.035706,7.46069873e-14 Z" id="Fill-5" fill="#090E2B"/>
                        <path d="M559.105053,537.550495 C553.718837,520.869499 514.662001,509.852921 486.4598,501.514412 C476.966506,498.70607 463.702961,484.835405 457.545853,485.001479 C448.581857,485.24512 457.367415,503.898122 427.362791,502.274176 C419.4193,501.844571 418.851908,493.484184 401.591555,491.580796 C398.786673,491.272515 394.499152,490.727553 390.796066,497.394383 C388.732001,501.110663 380.282268,534.66359 388.577622,548.345309 C446.664152,549.845942 506.41276,548.363209 558.020392,547.881892 C563.059757,547.834159 560.482433,541.818697 559.105053,537.550495" id="Fill-17" fill="#FF0057"/>
                        <path d="M654.970564,412 C654.970564,412 665.530533,466.509706 672.596211,475.377601 C679.662889,484.243493 716.32892,494.221378 717.974942,499.698195 C719.618961,505.175012 639.820958,518 639.820958,518 L591,416.698422 L654.970564,412 Z" id="Fill-1" fill="#ff8282"/>
                        <path d="M790.105053,534.5497 C784.718837,517.869641 745.662001,506.853025 717.4598,498.513492 C707.966506,495.706135 694.702961,481.834427 688.545853,482.001496 C679.581857,482.244144 688.367415,500.898205 658.362791,499.274253 C650.420302,498.844647 649.85291,490.483237 632.591555,488.580837 C629.786673,488.27156 625.499152,487.727591 621.796066,494.393449 C619.732001,498.109742 611.282268,531.662786 619.577622,545.345546 C677.664152,546.846185 737.41276,545.362452 789.020392,544.881134 C794.059757,544.8334 791.482433,538.817918 790.105053,534.5497" id="Fill-10" fill="#FF0057"/>
                        <path d="M722.704751,510.429527 C726.392384,503.004274 728.005104,501.713139 726.433049,500.543939 C722.673012,497.748284 703.571309,506.385021 702.069675,511.523009 C700.944937,515.373796 713.664197,504.228541 723.820563,502.565701 C719.658833,506.366337 715.778784,518.019983 719.874061,515.696334 C739.826756,504.381943 742.973841,507.006496 742.998637,506.585624 C743.116665,504.585496 735.565843,502.966906 722.704751,510.429527" id="Fill-15" fill="#FFB201"/>
                        <path d="M180.126096,77 C192.090433,138.955221 247.290014,161.21191 295.189049,159.361921 C368.355288,156.536045 442.938988,124.042498 468.151215,113.183029 C465.930109,129.164147 477.804596,220.024734 497.628146,262.074146 C517.451696,304.123559 582.008895,430.623213 582.008895,430.623213 C582.008895,430.623213 654.850327,431.050084 657.965073,413.369038 C660.014248,401.737852 591.630112,76.8494703 569.008895,20.5961921 C556.018259,-11.7082512 513.975789,-25.6487365 427.5,-33 C340.646127,-40.3834042 214.030282,-26.7715765 214.030282,-26.7715765 C214.030282,-26.7715765 168.16176,15.0447792 180.126096,77 Z" id="Fill-7" fill="#001386"/>
                        <path d="M491.704751,514.429893 C495.392384,507.004835 497.005104,505.713735 495.432058,504.543583 C491.67202,501.748984 472.571309,510.385493 471.069675,515.522362 C469.944937,519.373048 482.664197,508.228087 492.820563,506.566274 C488.658833,510.36681 484.777792,522.019165 488.874061,519.69656 C508.826756,508.381485 511.973841,511.005969 511.998637,510.585107 C512.116665,508.585032 504.565843,506.966486 491.704751,514.429893" id="Fill-22" fill="#FFB201"/>
                        <path d="M546.8316,554.3915 L407.0166,556.8575 C397.6626,557.2315 383.6706,554.0145 382.3176,546.2435 C381.3066,540.4375 383.5546,527.7955 384.0206,526.9545 C387.2776,521.0945 415.0326,526.0385 423.1176,545.8275 C474.1316,549.6495 561.0086,545.9125 561.0086,545.9125 C561.0086,545.9125 562.3126,553.5935 546.8316,554.3915" id="Fill-19" fill="#090E2B"/>
                        <path d="M777.7223,550.7851 L637.9073,553.2511 C628.5543,553.6251 614.5613,550.4091 613.2083,542.6381 C612.1983,536.8321 614.4453,524.1901 614.9123,523.3491 C618.1683,517.4891 645.9233,522.4331 654.0083,542.2221 C705.0223,546.0441 791.9003,542.3071 791.9003,542.3071 C791.9003,542.3071 793.2033,549.9881 777.7223,550.7851" id="Fill-12" fill="#090E2B"/>
                    </g>
                </g>
                <g id="Upper Body/Sitting" transform="translate(243.000000, 170.000000) scale(1 1.0010526315789474)">
                    <g id="Upper Body/Sitting/Cross Hand 1" stroke="none" stroke-width="1" fill="none" fill-rule="evenodd">
                        <path d="M205.594359,437.099482 C198.459908,444.5 167.670927,448.026042 178.155878,460.00709 C192.434421,476.324894 234.954518,505 246.746408,505 C292.385174,505.002094 285.650251,451.419338 285.650251,451.419338 C285.650251,451.419338 269.97082,446.050683 267.409515,441.928566 C264.129025,436.648445 264.140591,419.73374 264.796689,405.549762 C265.453838,391.366832 208.697155,384 208.697155,384 C208.697155,384 208.593422,433.988575 205.594359,437.099482 Z" id="neck" fill="#ff8282"/>
                        <g id="tshirt" transform="translate(74.000000, 444.000000)">
                            <path d="M207.644654,4.69591742 C207.644654,4.69591742 205.480372,20.7431343 194.074479,36.6360674 C186.087062,47.7657081 173.521735,48.5418798 154.172693,36.6360674 C139.218146,27.4342663 117.359714,8.34743309 113.529314,0.28763309 C103.721993,4.27778837 32.4654428,21.8814084 32.4654428,57.7485691 C32.4654428,93.6157298 51.1817965,146.144412 51.1817965,164.239062 C51.1817965,182.334762 49.7050394,269.314529 39.5926119,308.165965 C28.5172376,350.716994 4.90444009,374.867968 44.4310617,370.648066 C83.9576833,366.428163 226,292.686018 255.585178,292.686018 C265.447815,292.686018 257.623948,271.374815 255.585178,239.263578 C287.331073,231.570394 293.695175,217.314215 295.730792,203.445793 C304.326187,144.886362 279.896587,98.5935238 262.256712,48.5418798 C253.015714,22.3213367 207.644654,4.69591742 207.644654,4.69591742 Z" id="Fill-4" fill="#FF0057"/>
                            <path d="M247.676427,141.37167 C247.812927,142.23267 247.223877,143.04222 246.359727,143.17452 C245.485077,143.31102 244.666077,142.69152 244.557927,141.81372 L242.886327,128.42517 C241.901387,114.38199 242.478677,99.28032 242.837777,85.75107 C242.838827,84.93627 243.992777,87.09612 243.998027,87.93717 C244.019027,105.66327 244.838277,123.87972 247.676427,141.37167 Z" id="Fill-6" fill="#090E2B"/>
                            <path d="M195.999512,155.144636 C195.999512,155.144636 219.774662,136.575386 226.169162,136.56564 C239.005412,136.547036 249.040262,141.001136 249.040262,141.001136 C249.040262,141.001136 261.842078,165.060727 259.372262,172.231286 C257.480828,177.72264 227.687502,173.253197 213.28281,181.201048 C202.649794,187.067861 196.888694,178.38239 195.999512,155.144636 Z" id="hand-2" fill="#ff8282"/>
                            <path d="M90.6061767,165.359865 C90.6061767,165.359865 160.167627,150.784815 184.018377,148.473765 C197.879427,147.131865 210.382827,179.501265 211.485327,187.584165 C212.585727,195.666015 145.030827,241.374615 90.6061767,252.034215 C29.4457767,264.014715 17.1832567,255.825086 2.44922669,199.845015 C-6.62731128,165.359865 22.0179143,75.168348 34.0962109,48.9302258 C44.4303865,26.4809213 103.011927,78.319065 103.011927,78.319065 L90.6061767,165.359865 Z" id="Fill-10" fill="#FF0057"/>
                            <path d="M98.5997217,80.267235 C101.670972,102.660585 98.6658717,125.378385 94.7399217,147.489285 C94.3797717,149.483235 91.2255717,148.900485 91.6476717,146.886585 C95.2470717,130.555935 97.8237717,113.851485 98.3309217,97.108185 C98.4338217,91.532685 98.2910217,85.946685 97.6148217,80.413185 C97.5150717,79.798935 98.5115217,79.618335 98.5997217,80.267235" id="Fill-12" fill="#090E2B"/>
                            <path d="M62.655763,148.723302 C71.310913,141.474102 75.1061763,140.024478 76.6118763,140.501178 C77.9989263,140.941128 75.7497267,137.21514 79.1401767,137.21514 C90.8844267,137.21514 99.5503435,143.348379 102.01248,145.271717 C109.356015,151.008241 113.11292,157.046162 116.56217,160.176212 C107.78522,162.209012 78.8808267,166.96479 78.8808267,166.96479 C78.8808267,166.96479 68.7073698,168.892461 65.7957198,165.463161 C63.8469198,163.167861 62.8002675,157.587908 62.655763,148.723302 Z" id="hand-1" fill="#ff8282"/>
                            <path d="M183.963357,146.64183 C197.193357,145.77348 211.352607,175.83918 213.419007,187.31463 C213.448407,187.48368 213.499857,188.02128 213.402207,188.31003 C210.870657,195.82803 195.803157,205.50168 189.497907,210.20148 C156.955257,231.22248 121.042107,249.13968 82.3989567,254.94618 C69.5763567,256.40883 55.1981286,257.715743 47.1645786,256.620593 C47.0816286,256.609043 47.4457889,256.362912 47.6988389,256.326162 C53.6869889,255.462012 56.6876067,255.24753 62.8553067,254.55138 C94.8939567,250.93098 125.753457,241.50618 154.112907,226.40928 C165.499107,220.48098 176.576607,213.94368 187.233057,206.83833 C194.729007,201.39513 203.767407,196.04958 208.979607,188.60508 C209.312457,188.13153 209.412207,187.52883 209.270457,186.96918 C206.480607,176.07648 200.983857,165.58278 194.115807,156.72918 C189.185007,150.90063 186.406707,149.34978 178.983207,150.94263 C157.146357,154.18083 133.909857,158.31468 112.113957,161.56863 C111.625707,161.66103 111.405207,160.84098 111.952257,160.73073 C135.795657,155.27283 159.718857,150.00498 183.963357,146.64183 Z" id="Fill-16" fill="#090E2B"/>
                            <path d="M254.317231,239.96796 C226.60043,244.344932 188.952901,235.0043 166.745877,224.892135 C164.617527,223.850535 166.293327,220.503135 168.411177,221.627685 C187.194627,229.965735 207.28849,235.733025 228.053277,238.437135 C234.887727,239.565885 247.933826,239.288197 255.496679,239.288197 C255.925079,239.295547 255.37483,239.800947 254.317231,239.96796 Z" id="Fill-18" fill="#090E2B"/>
                        </g>
                    </g>
                </g>
                <g id="Head" transform="translate(341.000000, 346.000000) scale(1 1)">
                    <g id="Head/Bob Gray" stroke="none" stroke-width="1" fill="none" fill-rule="evenodd">
                        <path d="M200.312971,280.831037 L199.0091,269.031172 L203.028919,280.831037 C203.028919,280.831037 272.0771,278.575911 273.1951,266.016847 C274.3131,253.457784 242.6101,197.287292 242.6101,161.552701 C243.277358,170.931064 260.891609,215.864447 266.217104,219.812973 C252.515374,196.698392 239.791189,130.063774 238.841508,125.071693 C234.91774,104.44608 233.705096,104.321796 228.770911,97.8722543 C221.012911,87.7330761 179.3731,65.8174703 166.3801,88.8751841 C152.8761,112.838131 170.5331,143.41152 166.3801,174.020024 C159.3711,225.661402 163.299225,269.031172 171.8301,282.6958 L200.312971,280.831037 Z" id="Fill-1" fill="#E3E4E6"/>
                        <path d="M230.8389,97.6343 C230.8389,97.6343 238.0639,177.5813 238.0639,199.9423 C238.0639,222.3023 236.7369,248.7503 213.1079,256.4113 C187.8319,264.6073 137.3559,250.1773 126.1459,246.9403 C77.9229,233.0193 108.0249,135.0243 114.7329,102.6023 C121.4409,70.1793 230.8389,97.6343 230.8389,97.6343" id="Fill-3" fill="#ff8282"/>
                        <path d="M126.2676,148.6548 C126.2676,148.6548 118.4416,198.1448 126.2676,223.8588 C134.0936,249.5738 135.6756,280.546539 130.9716,287.3348 C126.2676,294.123061 109.348382,288.909511 96.5953269,288.7038 C84.5063209,288.5088 80.5752089,289.415175 78.4296,288.5088 C74.7606,282.8658 74.8386,273.0508 74.8386,273.0508 L74.8386,288.7038 C74.8386,288.7038 30.5292728,285.333758 30.5292728,262.271056 C30.5292728,253.031937 41.6180601,216.214548 53.1670161,177.382874 C66.1654325,133.677601 81.8808794,87.4207056 123.9716,75.0600229 C164.364651,63.1978909 210.215619,67.219891 229.733297,92.9883268 C245.797767,114.197626 235.50972,142.117953 235.50972,142.117953 C229.485526,140.42811 219.351296,139.583188 205.107029,139.583188 C195.288948,139.583188 180.653609,140.42811 161.201011,142.117953 L157.3686,117.0518 L157.3686,143.188942 L126.2676,148.6548 Z" id="Fill-5" fill="#E3E4E6"/>
                        <path d="M142.6573,251.2876 C149.0663,252.9406 154.4483,253.7906 160.4163,255.0806 C161.2683,255.2656 162.7693,255.5526 162.9693,255.7186 C164.1853,256.7296 161.9683,257.8536 157.5003,256.9906 C150.9573,255.7256 140.4883,250.7276 142.6573,251.2876" id="Fill-8" fill="#000"/>
                    </g>
                </g>
                <g id="Expressions" transform="translate(462.000000, 479.000000) scale(1 1)">
                    <g id="Expressions/Happy" stroke="none" stroke-width="1" fill="none" fill-rule="evenodd">
                        <g id="eye1" transform="translate(21.027098, 10.213671)">
                            <path d="M0.0487023333,7.96572872 C1.82485498,-0.0171869856 25.1977023,-2.81531309 35.4827023,3.36568691 C39.0387023,5.47868691 45.6427023,11.2837287 39.7957023,14.4437287 C38.2517023,15.1157287 36.7517023,14.4267287 35.4827023,13.6077287 C21.4647023,3.86572872 -1.18942441,13.5304877 0.0487023333,7.96572872 Z" id="Fill-1" fill="#090E2B"/>
                            <path d="M19.0113023,22.3973287 C13.7233023,23.8973287 9.19030233,28.1473287 8.76930233,31.6693287 C8.51430233,33.7973287 16.8643023,38.9063287 24.9173023,39.3033287 C35.5113023,39.8243287 40.8513023,34.0853287 40.8324531,32.2513287 C40.1193023,26.7013287 33.7283023,18.2233287 19.0113023,22.3973287 Z" id="Fill-6" fill="#FFF"/>
                            <path d="M35.3981023,25.5550287 C27.2551023,19.4010287 14.6431023,23.4110287 8.76910233,31.6690287 C8.43210233,32.0970287 8.52910233,31.0200287 8.76310233,30.5290287 C11.5971023,24.5820287 16.7101023,21.7750287 22.6381023,20.5510287 C26.2051023,19.8140287 29.5311023,19.7540287 33.0101023,21.3120287 C34.3551023,21.9130287 36.7311023,23.7450287 38.5671023,25.8170287 C39.9991023,27.4320287 41.2051023,30.2010287 39.5481023,29.2220287 C38.2511023,28.4550287 36.4781023,26.3720287 35.3981023,25.5550287 Z" id="Fill-8" fill="#090E2B"/>
                            <path d="M24.8135023,36.0623287 C29.3405023,36.0623287 33.0105023,32.7143287 33.0105023,28.5833287 C33.0105023,24.4533287 29.3405023,21.1043287 24.8135023,21.1043287 C20.2865023,21.1043287 16.6165023,24.4533287 16.6165023,28.5833287 C16.6165023,32.7143287 20.2865023,36.0623287 24.8135023,36.0623287 Z" id="Fill-10" fill="#090E2B"/>
                        </g>
                        <g id="eye2" transform="translate(81.203378, 15.000183)">
                            <path d="M23.2557812,1.861246 C26.6096324,3.34897691 31.0744206,8.28711729 27.357522,8.28711729 C23.6406234,8.28711729 15.5900245,7.23270759 10.1930245,9.45970759 C8.30802454,9.94170759 6.87752199,10.8641173 4.98452199,11.0891173 C0.67652199,11.9281173 -1.66408888,6.76839233 1.38185604,3.64904337 C4.82290212,0.125071736 16.4397812,-1.545754 23.2557812,1.861246 Z" id="Fill-4" fill="#090E2B"/>
                            <path d="M19.455322,34.2343173 C24.826322,32.9853173 28.843322,28.1153173 28.389322,24.4763173 C27.503322,19.6543173 18.218322,16.5753173 13.017322,19.2083173 C7.86632199,21.8153173 4.64332199,27.6403173 5.05932199,29.9403173 C5.66032199,31.5323173 13.966322,35.5113173 19.455322,34.2343173 Z" id="Fill-12" fill="#FFF"/>
                            <path d="M15.011222,31.6060173 C18.549222,31.6060173 21.417222,28.8520173 21.417222,25.4560173 C21.417222,22.0590173 19.396222,18.8490173 15.011222,19.3060173 C11.492222,19.6720173 8.60422199,22.0590173 8.60422199,25.4560173 C8.60422199,28.8520173 11.473222,31.6060173 15.011222,31.6060173 Z" id="Fill-14" fill="#090E2B"/>
                            <path d="M5.25072199,26.6376173 C7.27972199,19.0636173 16.440722,15.1686173 23.685722,18.7546173 C24.705722,19.2866173 26.361722,20.4806173 27.601722,21.9226173 C28.742722,23.2526173 28.593722,23.9496173 28.127722,23.8116173 C27.355722,23.5816173 25.722722,22.1166173 24.395722,21.4866173 C17.685722,18.3036173 10.704722,20.0896173 5.59372199,27.5586173 C5.34272199,27.9456173 5.10472199,27.0746173 5.25072199,26.6376173" id="Fill-22" fill="#090E2B"/>
                        </g>
                        <path d="M89.773817,88.8585998 C81.203378,89.8585998 88.1482904,99.3833823 83.7083884,100.648667 C72.3411441,103.888108 60,99.9572383 58.0067117,89.8585998 C56.8303329,83.8986871 60.3418642,84.6193542 63.1467832,84.8682179 C65.9517021,85.1170816 79.8038764,85.6292987 87.244688,85.6292987 C94.4593207,85.6292987 90.833428,88.7349642 89.773817,88.8585998 Z" id="Fill-18" fill="#090E2B"/>
                        <path d="M79.5163974,56.0474227 C79.9047316,56.0474227 82.4878873,60.4695558 83.4356699,62.0222568 C86.4544009,66.9676809 89.7813295,72.5049636 84.8702,75.6883 C82.4912,77.2313 75.0122,74.8407787 75.0122,73.0253 C75.0122,70.2632077 81.8382,75.1193 83.4442,72.3153 C84.3857451,70.8872578 80.8590997,63.6440183 79.5163974,59.348811 C78.7670658,56.9517537 79.1280631,56.0474227 79.5163974,56.0474227 Z" id="nose" fill="#090E2B"/>
                    </g>
                </g>
                <g id="Facial Accesories" transform="translate(459.000000, 529.000000) scale(1 1)" fill="#000">
                    <g id="Facial Accesories/None" stroke="none" stroke-width="1" fill="none" fill-rule="evenodd" fill-opacity="0"/>
                </g>
                <g id="Glass" transform="translate(462.000000, 484.000000) scale(1 1)" fill="#000">
                    <g id="Glass/None" stroke="none" stroke-width="1" fill="none" fill-rule="evenodd" fill-opacity="0"/>
                </g>
            </g>
        </g>
    </g>
</svg>
