<svg viewBox="246.375 169.698 1669.875 957.974" xmlns="http://www.w3.org/2000/svg" overflow="visible">
    <g id="Master/Scene/Chatting" stroke="none" stroke-width="1" fill="none" fill-rule="evenodd">
        <g id="Background" opacity=".4" transform="translate(99.000000, 75.000000) scale(1.0375 1.037037037037037)">
            <g id="Background/Nature" stroke="none" stroke-width="1" fill="none" fill-rule="evenodd">
                <path d="M1349.27292,620.642003 C1409.67194,685.564662 1413.66009,782.317619 1417.2111,866.399974 C1418.59473,879.939506 1416.76049,895.126542 1423.22125,907.439576 C1426.96773,913.109724 1416.24247,919.54499 1411.31553,915.481977 C1403.34886,913.022254 1371.25589,924.531721 1375.94308,909.441766 C1389.18428,849.122317 1377.42491,787.958931 1374.338,727.174259 C1375.81309,702.786569 1355.45253,657.229305 1352.73535,710.70882 C1337.73116,682.131238 1322.06645,661.991113 1327.45844,711.106759 C1323.61472,696.124459 1308.74148,683.301025 1295.38281,696.514708 C1290.53964,708.139519 1301.24564,722.074106 1302.53105,734.330429 C1319.80373,790.523425 1331.1327,848.013087 1328.72171,907.054133 C1327.37564,915.02156 1334.91191,917.038168 1334.56336,907.815408 C1336.56418,856.834064 1330.56077,805.829651 1315.53732,757.012941 C1310.84628,740.3543 1306.00311,723.737951 1301.28415,707.086039 C1296.34085,696.834789 1311.4394,695.025801 1315.11366,700.46526 C1323.78226,710.266665 1321.28075,730.676889 1333.09982,736.496023 C1339.81767,726.956065 1330.48277,703.367137 1333.83448,691.072366 C1342.77556,702.388631 1347.3241,715.253396 1351.22655,728.833298 C1352.23659,731.609258 1352.51871,736.790152 1356.16023,737.062173 C1363.969,730.169373 1356.6898,706.550648 1360.74728,694.907573 C1371.57845,718.094718 1367.80887,745.776456 1371.04406,770.895622 L1371.81798,779.419992 C1375.78108,823.466695 1378.94223,867.566964 1369.58245,911.236336 C1371.29633,925.791861 1319.91157,916.601781 1308.76458,919.729542 C1284.62962,921.504887 1260.41379,919.402732 1236.39437,921.84227 L1235.89049,921.850453 C1231.16426,921.902361 1230.58982,921.127902 1230.60471,916.244213 C1231.38463,900.802457 1230.87816,885.330904 1230.44777,869.87473 C1229.4695,863.648045 1234.61405,860.8519 1237.87813,856.472651 C1248.71989,841.141433 1259.55781,825.807333 1270.28018,810.392491 C1286.61407,784.78311 1273.65788,782.434886 1252.38164,796.391581 C1285.64062,746.063856 1259.30554,749.684715 1224.84779,780.476912 C1286.47061,657.278326 1143.47872,776.268757 1164.81466,911.41512 C1164.67986,916.181734 1167.11011,924.139549 1159.82995,923.225444 C1151.16424,921.449137 1104.99142,929.704925 1106.57821,919.794904 C1105.99761,873.014986 1099.97013,826.496516 1095.54003,779.965551 C1097.19806,743.122569 1079.61534,675.230749 1068.15735,756.09499 C1058.97074,724.74241 1044.46819,691.890351 1038.02187,747.743081 C1029.464,716.266506 998.793174,704.21492 1011.57606,748.514929 C1022.32539,804.211943 1024.53418,861.823678 1022.76445,918.330027 C1023.82937,932.238661 993.976003,922.587204 984.314702,924.525954 C976.958479,922.602583 956.763528,929.314676 957.39131,918.489587 C952.98239,886.744836 951.791337,854.875128 953.068085,822.855473 L953.132077,821.732793 C954.158231,802.715763 954.117675,751.245596 933.456625,794.288465 C927.311675,754.356171 907.776281,803.972603 903.989366,817.853363 C901.514825,801.884866 901.177825,785.250255 896.792014,769.711418 C881.006946,756.249744 869.27454,831.380398 872.959392,842.184341 C875.410824,867.406356 878.370645,892.576466 881.044497,917.774451 L881.077694,918.301995 C881.378544,923.523001 880.523989,924.438194 875.073825,924.341402 C819.030766,918.50785 802.571698,943.285789 817.880152,876.948236 C820.410539,854.481996 817.020321,831.671643 813.049501,809.481268 C804.570588,771.877012 815.745499,734.126653 822.626072,697.175056 C826.709546,673.54864 844.335596,654.99162 866.840439,647.298136 C896.474272,638.234936 921.285156,666.279048 940.769519,684.80531 L941.291971,685.44034 C944.076724,688.75197 946.129839,689.889387 947.586543,684.348738 C956.699016,657.070706 978.095612,633.247244 1005.97127,624.622353 C1039.48638,615.89269 1057.00844,655.806721 1067.83768,680.715384 C1082.09662,650.129846 1098.60769,631.623769 1133.71054,625.188502 C1179.02257,613.747281 1211.81072,647.62014 1224.60034,687.776395 C1231.53483,677.98364 1232.30319,664.725741 1238.16699,653.995811 C1254.65013,612.623633 1314.15562,584.465137 1349.27292,620.642003 Z M1050.18477,725 C1055.49904,729.871464 1071.57225,803.278689 1078.63046,784.761171 C1075.26146,767.786458 1074.3334,750.28723 1078.66018,733.351904 C1088.36738,705.726449 1091.16017,810.197302 1093.14188,815.939116 C1092.32216,828.674473 1109.5468,929.839724 1095.40449,924.816477 C1075.25379,924.552298 1055.13568,925.516792 1035.00895,926 C1024.42738,922.466724 1038.0654,903.2047 1035.64171,895.395564 L1031.10977,896.326435 L1031.10977,896.326435 C1028.21918,849.01723 1029.73494,801.193115 1019.74684,754.540034 C1007.42421,704.190367 1028.8903,733.593989 1035.41257,760.377914 C1039.84481,768.210105 1039.83618,790.79118 1048.01611,792.848896 C1051.54426,791.054399 1049.98631,787.803554 1049.56159,785.156959 C1047.78218,765.441508 1041.82556,743.724059 1050.18477,725 Z M892.507939,778 C896.021989,784.767826 898.479312,866.744378 907.423813,852.892158 L907.555138,851.515785 C909.670073,828.993916 910.421322,804.513589 925.673108,786.257611 C929.141758,791.423415 922.615943,857.274218 933.803331,838.191922 L933.79881,836.680356 C933.785268,819.064743 935.206879,802.132184 944.674861,786.55883 C950.616289,817.488418 944.405366,853.974243 947.906859,886.427192 C946.037786,894.474717 957.684957,926.903684 944.978162,924.379779 C935.699449,922.372934 883.56054,929.91587 887.250388,918.539591 C883.646508,872.625815 867.975277,819.973951 892.507939,778 Z M1234.34062,737 C1235.38131,757.738293 1219.51893,776.167308 1210.12301,793.790337 L1209.50361,794.718133 C1208.15675,796.768984 1206.73794,799.345377 1208.59839,801.341414 C1211.60451,803.13613 1214.67388,799.765989 1216.95745,798.041485 L1223.17504,792.588421 C1232.51075,784.421504 1241.9242,776.354602 1251.89721,768.967676 L1253.56464,767.742918 C1264.33569,759.709017 1261.80296,769.817516 1257.84431,776.506823 C1250.10238,789.152546 1242.03847,801.613603 1233.52321,813.750535 C1229.1343,818.246941 1234.88109,822.852031 1238.70941,818.173845 L1240.045,817.068791 C1250.24203,808.5739 1259.52146,799.613904 1272,794.302013 C1261.39857,821.73346 1236.93468,841.86582 1224.78946,867.18131 C1225.25563,881.8329 1225.13308,896.499241 1225.09263,911.160665 L1225.08085,915.394749 C1225.01865,922.142043 1224.30804,922.607509 1217.47397,922.806909 C1206.70452,923.121898 1195.93773,923.531731 1185.16806,923.822118 L1178.70586,923.980303 C1172.1637,924.122649 1171.72576,923.659062 1171.69797,916.940902 C1167.89265,852.951506 1178.40305,775.998032 1234.34062,737 Z" id="Shape" fill="#EBBF5E"/>
                <path d="M348.326347,708.409448 C347.526562,616.888236 347.903384,521.18639 361.676602,432.539605 C349.821137,431.416421 350.057612,479.937787 347.992783,490.13314 C343.898692,541.235132 341.837707,592.42093 341.939603,643.688606 C342.513487,729.394498 339.533519,815.385521 346.589314,900.864079 C346.752732,905.745017 348.656066,910.994892 341.744463,910.85329 C331.506832,914.241145 328.01258,912.432106 321.635449,904.070837 C259.217623,859.738775 231.439518,778.800155 227.82895,704.687335 C220.464585,642.791793 275.494975,624.796763 282.818006,571.964721 C281.931705,493.814795 269.245695,413.421391 303.382666,339.549392 C322.677476,298.03107 394.880171,196.539912 443.41327,249.350763 C462.538895,283.700357 431.294415,322.282602 424.462598,356.599444 C418.884291,373.910545 441.055251,379.212437 451.002575,388.479188 C531.057004,449.062743 492.262631,509.453642 444.961892,574.993272 C435.132805,592.924725 424.859607,613.387678 431.888486,634.174292 C441.13696,664.239217 439.836348,695.778924 440.918749,726.860109 C440.056481,793.529666 414.537383,869.753032 359.134017,909.483506 C349.761538,913.844274 353.275016,893.888007 351.622575,888.774917 C347.565974,828.724056 349.075184,768.550858 348.921379,708.409448 L348.326347,708.409448 Z" id="Fill-4" fill="#EBBF5E"/>
                <path d="M475.15244,849.993758 C475.265864,834.073493 481.589754,820.711842 492.56116,809.448755 C525.628213,766.026271 458.205106,706.689285 500.467224,666.311398 C537.949177,633.833136 542.791822,619.657031 551.80906,571.695505 C556.217232,543.028271 602.850994,476.1816 628.106183,519.898939 C647.23261,569.186834 587.555043,606.335719 623.56344,670.451858 C640.707824,710.030658 633.504415,755.777408 612.71411,792.559405 C602.183905,813.153174 620.793194,832.426337 620.147252,853.512813 C622.665658,887.174338 595.153516,917.157375 563.621537,925.505526 C558.701995,927.325561 543.793417,930.170386 544.952652,921.656079 C554.742715,843.436829 566.037092,765.482661 578.105254,687.589001 C579.229886,609.656923 539.020941,911.593542 538.787364,919.462433 C538.355775,933.190011 513.057331,917.399406 505.057067,916.99314 C492.763978,913.576852 498.42174,909.904127 492.481379,904.478598 C474.688169,894.070302 477.752549,867.784961 475.15244,849.993758" id="Fill-6" fill="#52DC82"/>
                <path d="M984.530613,192.818068 C1002.06502,214.278206 993.993183,246.896848 1009.33169,270.215935 C1037.34764,323.886958 1054.40627,233.297573 1073.36512,216.523755 C1092.11979,189.393485 1108.28465,253.154572 1112.40291,266.166254 L1112.59039,266.799401 C1113.52443,270.062192 1113.01097,270.383251 1109.47698,271.152623 C1083.59529,273.083699 1067.59319,292.545443 1058.88955,315.283669 L1058.42962,316.117956 C1050.9445,329.882324 1044.68867,350.181442 1025.11324,345.889491 C1005.59867,344.135366 998.997509,326.544111 992.634232,310.938748 C982.128613,285.042328 961.467948,276.034167 954.725205,309.589496 C951.308086,321.602942 954.223424,351.981805 934.906299,347.071409 C904.037616,345.666379 912.275108,268.608949 877.849654,296.553772 C868.53401,308.350967 868.72581,324.066661 865.428558,338.127321 L865.276235,338.765283 C853.469452,390.147481 827.547309,360.56586 805.943758,334.989683 C773.988685,296.194099 761.90549,333.084573 754.895002,308.194082 C752.11161,294.597692 740.544642,280.28388 745.016368,266.486497 C755.704015,243.804049 780.11311,225.142432 790.821946,259.062241 C808.302418,292.722394 852.684517,317.852346 846.214334,258.523694 L844.821675,258.449644 L844.821675,258.449644 C845.733742,248.212441 845.895544,237.837717 847.763981,227.777465 C849.792293,212.840478 870.226627,189.866637 884.399775,205.751852 C903.422188,221.090827 900.197691,303.150012 937.295778,278.912509 C955.619936,264.455405 954.764693,168.91908 984.530613,192.818068 Z M942.585722,137.133335 C990.374417,148.09935 1035.80639,170.158153 1073.54384,201.521453 L1074.09377,201.963971 C1076.78192,204.152867 1076.59636,204.51568 1073.73076,207.083214 C1065.56509,214.401573 1060.26776,223.700308 1055.36161,233.262196 C1032.43124,278.804097 1024.1355,309.639169 1004.72095,238.758649 C1001.04519,223.365123 1001.8131,205.980658 991.9218,192.818175 C984.659892,181.351785 966.188611,179.704674 959.630058,192.983367 C949.008421,206.039243 944.08493,293.833625 919.581168,274.635897 C902.142587,253.823607 907.052461,220.983355 887.336596,201.259379 L886.731559,200.665723 C870.787542,184.55957 847.53055,204.980866 842.784344,221.85151 C831.182826,237.941336 854.259643,309.610357 818.276728,283.224885 C795.927355,272.032213 792.567626,225.183188 766.360394,235.956159 C754.024688,240.611289 747.237786,250.255772 740.090534,261.036426 C729.707846,200.576405 795.706713,175.945611 842.709191,162.532461 C877.752692,148.631419 900.91237,125.592033 942.585722,137.133335 Z" id="Shape" fill="#60D6E1"/>
                <path d="M1742.8488,691.482346 L1742.57496,694.305955 C1740.07406,720.441101 1738.52103,746.722363 1729.31247,771.782256 C1718.13798,802.192049 1696.83391,821.020773 1665.5912,828.821229 L1663.61014,829.306166 C1658.92701,830.474694 1658.5254,831.053729 1658.60752,836.405857 C1660.1664,851.579875 1658.67601,866.776951 1658.29884,881.999007 L1658.2732,883.365375 C1658.17883,890.865005 1659.14942,891.076268 1667.43696,889.841574 C1679.98223,887.397437 1691.67474,893.633638 1704.21422,892.255928 C1712.98674,892.152168 1723.58631,889.825242 1731.4675,894.449311 C1739.51943,902.071867 1728.20698,909.236148 1720.38367,908.113997 C1701.14085,905.832226 1684.83248,918.2441 1665.77198,917.269904 C1640.59077,912.517095 1616.05587,923.412912 1590.82739,921.844015 C1570.75593,921.741215 1571.88457,902.733821 1591.09171,901.989243 C1608.28273,899.529734 1632.41729,902.411971 1644.97027,890.105779 C1642.70528,881.702136 1649.35461,828.347122 1638.69426,832.817472 L1632.26478,832.931486 C1529.92727,834.726943 1557.67104,832.752967 1552.45267,753.846094 L1551.68367,747.30645 C1545.99594,698.487579 1552.04058,731.892016 1612.27637,722.574781 C1655.0001,717.675506 1695.73239,705.749652 1734.8987,688.307091 L1737.09399,687.327416 C1742.56901,684.931267 1743.4169,685.475389 1742.8488,691.482346 L1742.8488,691.482346 Z M1741.68968,576.246352 C1742.9424,599.566877 1743.85303,622.904766 1744.86099,646.237832 L1744.48999,646.254232 L1744.48999,646.254232 C1742.32182,657.235349 1750.19084,674.234231 1737.86406,680.198937 C1702.88252,696.639943 1665.6486,707.961446 1627.61197,714.623872 L1624.98331,715.078374 C1610.23882,717.522008 1550.09699,722.999943 1549.07614,707.089796 C1548.1472,689.132973 1547.21633,671.179043 1546.28257,653.225114 C1547.47844,646.538816 1540.32155,630.292396 1550.8155,630.535499 C1615.14175,632.082869 1681.12448,611.894708 1734.41426,575.947297 L1735.30938,575.269388 C1737.94113,573.312005 1741.77047,570.916154 1741.68968,576.246352 Z M1737.21832,516.734125 C1735.97833,530.817515 1747.14889,558.38373 1736.01205,567.622195 C1686.78411,602.865797 1625.86822,621.289793 1565.78285,625 L1565.74335,624.383076 L1565.74335,624.383076 C1559.2235,623.381175 1545.16154,628.270372 1546.03927,617.801909 C1546.37456,599.862021 1546.81487,581.925021 1547.32262,563.990908 C1548.34776,559.752321 1546.08359,549.804537 1552.4252,550.011462 C1612.50575,554.501246 1671.79432,531.143782 1723.72289,502.8259 C1739.55765,490.09474 1734.62657,505.305147 1737.21832,516.734125 Z" id="Shape" fill="#F55B80"/>
                <path d="M1098,400 C1036.57465,470.120936 913.593151,464.197376 844,412.756341 C928.404441,405.869046 1013.57248,403.342893 1098,400 Z M1111.36408,372 C1119.64518,373.112941 1105.87411,387.173158 1104.70113,391.477424 C1081.57019,396.43298 1055.7183,393.941793 1031.75088,396.168632 C985.766868,397.20112 939.983799,401.629897 894.026704,403.05699 C875.600216,404.576987 856.76895,403.569402 838.740509,407.98477 C829.298917,408.417687 822.880172,399.526611 815,393.384365 C913.531957,384.912796 1012.66098,380.206263 1111.36408,372 Z M1110.09327,277 C1122.6407,277.43442 1116.88476,333.055635 1120,346.584441 C1118.45054,350.312731 1121.63687,366.217332 1112.55627,365.412207 C1092.6237,366.69616 1072.68153,367.827582 1052.76721,369.330676 C991.262513,375.02351 929.652148,379.35323 867.975502,382.723364 C852.969881,383.624062 837.959457,384.447529 822.956718,385.39553 C816.070136,385.186043 808.180682,390.424184 803.731157,383.023596 C788.950318,367.039834 777.381744,348.666761 765.761297,330.316858 C759.37327,322.423928 772.01484,321.276093 777.381744,322.221198 C799.272025,328.582074 809.357424,353.335329 827.159368,366.446127 C857.669164,393.25081 872.531655,345.163405 874.398111,320.931453 C875.738156,311.365524 884.938837,286.215498 896.15679,301.049495 C905.551715,320.39813 907.773431,347.730522 932.521565,353.25476 L933.278435,353.415455 C961.596129,359.798534 955.673995,318.998767 962.995731,302.309313 C975.627695,273.483128 989.691923,327.736402 997.262456,336.471142 C1005.80128,349.423618 1022.17864,355.238089 1036.89032,351.52428 C1056.57697,344.689404 1060.82861,318.961117 1070.98221,302.704153 C1079.18771,286.759005 1092.89171,279.177893 1110.09327,277 Z" id="Shape" fill="#7DB4DB"/>
                <path d="M1729.22795,404 C1729.14134,422.182699 1729.80053,438.434348 1730.54441,456.315471 C1729.10862,468.897454 1739.42283,486.038516 1726.06767,494.338107 C1686.78166,517.998019 1642.90247,534.585711 1597.69334,542.408522 C1588.11723,542.861366 1547.79769,552.564487 1549.02754,538.038049 C1550.58555,518.427886 1552.48807,498.842614 1554.00277,479.227663 L1554.0778,478.818554 C1555.02044,473.234827 1553.21781,465.27417 1560.86897,465.097584 C1620.12228,453.853071 1676.86874,433.944202 1729.22795,404 Z M1727.99137,319 C1729.94586,411.7032 1744.2065,395.175139 1655.57403,432.813592 C1625.12909,444.064535 1593.94976,452.764726 1562.20086,459.475562 L1561.2061,459.655447 C1555.87369,460.585152 1555.63471,459.920254 1556.2227,454.053537 C1557.59252,437.86146 1558.60443,421.632988 1559.75189,405.420018 L1560.26176,398.347607 C1560.60279,394.01081 1561.10327,393.740078 1566.20525,392.525544 L1569.63072,391.599739 C1625.67808,376.490412 1686.37013,361.783293 1727.99137,319 Z M1726.90255,282.332635 C1741.51064,344.056531 1606.24946,375.860656 1561.02876,386 C1561.06924,244.10016 1554.38969,349.413329 1720.50633,257.301219 C1731.62575,249.834984 1724.88163,276.68823 1726.90255,282.332635 Z M1720.41424,185 C1725.0934,203.83798 1724.62039,221.564444 1726,240.379307 C1723.08695,258.542094 1680.78133,269.739125 1665.01431,277.440755 C1633.77542,288.871839 1601.46552,296.279698 1568.39131,299.839631 L1567.27527,299.931272 C1563.38299,300.223378 1563.35146,299.768169 1563.27279,294.890785 C1563.276,283.182464 1563.11363,271.473474 1563.03547,259.76493 L1563,251.923469 C1563.01002,246.565207 1563.40624,246.583822 1569.22388,244.765654 C1620.6936,227.578574 1675.52822,217.144386 1720.41424,185 Z M1706.58126,134.48801 C1707.53576,146.154368 1722.11061,173.034845 1715.09974,181.212781 C1672.46411,212.434406 1619.45861,222.593422 1570.07714,238.627726 L1568.3241,239.152504 C1562.04078,240.991998 1562.13312,240.255582 1561.34836,232.720854 L1560.18691,223.582728 C1558.13383,207.335857 1556.1862,191.077127 1555.02984,174.728812 C1554.32501,154.164821 1566.1756,131.578598 1583.23081,120.958288 C1595.39733,118.789627 1607.78855,119.605985 1619.79855,116.263033 C1646.33923,114.957626 1694.4157,103.123785 1706.58126,134.48801 Z" id="Shape" fill="#7DB4DB"/>
                <path d="M175.39522,851.171501 C174.109188,832.538897 190.991575,818.881426 175.321814,803.260747 C165.73425,790.595019 157.401258,776.197844 159.470921,759.586388 C160.009549,748.823029 170.520882,729.977013 182.622357,738.707636 C200.579139,755.418556 210.272521,779.33434 218.826684,802.00441 C229.479109,827.464301 246.432995,849.965379 256.161651,875.95156 C262.853974,888.352694 258.401005,907.511588 241.93522,906.46287 C239.775945,906.069843 239.143892,903.657599 238.435573,901.853727 C231.849068,880.617677 218.670339,862.39838 210.999906,841.851819 C209.920745,837.628944 202.325625,824.593364 199.513324,834.240408 C208.473602,857.85104 224.865981,878.731724 232.304756,903.402662 C232.971129,905.544518 232.623166,907.021993 229.91001,907.109869 C194.705719,915.523752 175.230295,883.299343 175.39522,851.171501" id="Fill-35" fill="#7DB4DB"/>
            </g>
        </g>
        <g id="Group" transform="translate(437.000000, 246.000000)">
            <g transform="translate(-50.000000, 0.000000) scale(1 1)" id="Master/Character/Standing">
                <g id="Master/Character/Standing" stroke="none" stroke-width="1" fill="none" fill-rule="evenodd">
                    <g id="Legs" transform="translate(50.000000, 263.000000) scale(1 1)">
                        <g id="Legs/Loose Pants Leg Back" stroke="none" stroke-width="1" fill="none" fill-rule="evenodd">
                            <g id="Group-15" transform="translate(174.000000, 0.000000)">
                                <path d="M18.2274,396.9593 L3.3754,332.6043 C3.1864,331.7293 3.0384,330.8963 3.05148259,330.0933 C3.0704,329.2893 3.1854,328.5393 3.3844,327.8873 C3.4834,327.5603 3.6044,327.2583 3.7444,326.9843 C3.8994,326.7033 4.1164,326.4343 4.3334,326.2053 C4.7964,325.7343 5.2634,325.4383 5.9584,325.2303 C9.8974,324.1053 14.4434,322.6483 19.0254,321.1043 C23.6294,319.5513 28.3474,317.8873 33.0924,316.1723 C42.5994,312.7233 52.2234,309.0663 61.8534,305.3113 C81.1234,297.7833 100.4324,289.8623 119.6234,281.7213 C146.1344,270.4433 172.5594,258.7333 198.1234,246.4963 L207.6314,241.8803 L212.3304,239.5533 L212.8744,239.2803 L213.1244,239.1433 L213.6304,238.8753 C213.9694,238.7013 214.3124,238.5353 214.6614,238.3773 C217.2404,237.0793 219.7754,235.7403 222.2884,234.3383 C224.7864,232.9213 227.2894,231.4833 229.5604,229.7153 C230.1134,229.2603 230.6754,228.7973 231.0904,228.2053 C231.5064,227.6013 231.4934,226.8323 231.5384,226.1283 C231.5614,224.6893 231.4354,223.2543 231.2844,221.8253 C230.9704,218.9673 230.5184,216.1263 230.0364,213.2923 L229.2754,209.0473 L227.8224,201.4893 C225.0934,187.5823 222.0964,173.4883 218.9964,159.3773 C212.7764,131.1353 206.1184,102.7623 199.2774,74.4223 L276.0684,55.8713 C283.0024,84.6003 289.7594,113.3813 296.1514,142.4073 C299.3424,156.9293 302.4434,171.5003 305.3454,186.2833 L306.4224,191.8423 L307.8394,199.4343 C308.7944,204.6093 309.6744,209.7933 310.4934,214.9733 C312.0774,225.3163 313.3884,235.7223 313.1464,245.6213 C313.0844,250.5953 312.3594,255.2853 311.5994,260.0533 C311.3594,261.2343 311.0744,262.3953 310.7034,263.5633 C310.5444,264.1473 310.3074,264.7253 310.0884,265.3053 L310.0064,265.5223 C309.6204,265.3803 309.8684,265.5433 309.7684,265.5383 L309.7154,265.6433 L309.5004,266.0613 C309.3534,266.3363 309.2224,266.6253 309.0604,266.8893 C307.7804,269.0283 306.4144,270.9753 304.8804,272.8183 C298.5394,280.0103 290.5544,286.0943 281.7854,291.5803 C273.0154,297.0493 263.7164,302.0313 254.3664,306.8283 L250.8924,308.6023 L247.6054,310.2403 L242.4974,312.7703 L232.2954,317.7233 C205.1144,330.7303 177.9154,342.7713 150.4974,354.4383 C130.6644,362.8523 110.7454,371.0253 90.5734,378.9053 C80.4794,382.8413 70.3254,386.7033 59.9914,390.4513 C54.8154,392.3213 49.5954,394.1643 44.2544,395.9673 C38.8964,397.7683 33.4744,399.5273 27.5324,401.2273 C26.5604,401.5143 25.4634,401.6093 24.4924,401.5373 C23.9944,401.5013 23.5264,401.4223 23.0504,401.3053 C22.5614,401.1883 22.0974,401.0313 21.6624,400.8383 C20.7914,400.4513 20.0424,399.9173 19.4624,399.2623 C18.8804,398.6073 18.4194,397.8313 18.2274,396.9593" id="Fill-1" fill="#964c1c"/>
                                <path d="M48.8686,402.0101 C54.6956,400.0201 60.3776,397.9891 66.0046,395.9251 L34.2916,309.3471 C27.0306,312.0021 19.7736,314.5761 12.9536,316.7961 C9.5746,317.8961 6.2386,318.9301 3.4816,319.6931 L2.4986,319.9591 L2.0076,320.0941 L1.6146,320.1901 L0.8296,320.3871 C0.6766,320.4291 0.6096,320.4401 0.5366,320.4531 L0.3116,320.5021 L0.0876,320.5551 C0.0616,320.5611 -0.0144,320.5821 0.0026,320.5761 L0.0406,320.5631 L0.0606,320.5581 C0.0646,320.5691 0.0586,320.5311 0.0706,320.5821 L0.1796,321.1371 L0.3926,322.2451 L1.2046,326.6911 C1.7226,329.6591 2.1926,332.6391 2.6136,335.6271 C3.5696,340.5821 4.2646,345.4891 4.6756,350.4961 C4.7326,351.0961 4.7636,351.7991 4.8286,352.3171 L5.0286,353.7741 C5.1486,354.7461 5.2426,355.7251 5.3106,356.7061 C5.4446,358.6681 5.4726,360.6451 5.3936,362.6251 C5.4846,360.3621 5.4346,358.1041 5.2456,355.8651 C5.1516,354.7461 5.0226,353.6331 4.8596,352.5251 L4.7986,352.1021 L4.7686,351.6551 L4.7966,351.6701 L4.8536,351.7011 L5.0916,351.8411 C5.1336,351.8651 5.1686,351.8931 5.2196,351.9161 L5.4776,351.9531 C5.8366,351.9961 6.1436,352.0701 6.5586,352.1001 L7.8876,352.1561 C7.7886,353.6421 7.6586,355.1371 7.4946,356.6391 C7.3526,358.1311 7.2376,359.5961 7.0266,361.0941 L6.8676,362.2161 L6.7416,363.3131 C6.6476,364.0451 6.5316,364.7821 6.3926,365.5241 L5.9826,367.7151 C5.8306,368.4381 5.6346,369.1681 5.3936,369.9001 L5.3936,412.3891 L5.3936,448.1861 C6.9356,448.1731 8.4796,448.1261 10.0226,448.0461 L12.3346,447.9011 L13.4886,447.8091 L14.4126,447.7221 C16.2256,447.5261 18.0376,447.2931 19.8426,447.0261 L20.9416,446.8491 L21.8736,446.6871 L23.7356,446.3491 L25.5736,445.9961 L27.0046,445.6901 L29.8606,445.0541 L32.2666,444.4651 L34.5986,443.8741 L36.6826,443.3121 C37.3996,443.1151 38.1136,442.8211 38.6756,442.4571 C39.2356,442.0941 39.7466,441.6511 40.2126,441.1341 C41.1446,440.1021 41.9166,438.7781 42.4486,437.2521 C43.0076,435.7251 43.4416,433.9811 43.7966,432.0941 C44.1496,430.2071 44.3666,428.1831 44.5916,426.0841 C45.4886,417.6881 45.7876,408.1601 48.8686,402.0101" id="Fill-3" fill="#0A1B45"/>
                                <path d="M168.6478,25.3772 C172.3508,41.6722 176.0138,58.1742 179.5948,74.5982 C183.1768,91.0382 186.6898,107.4812 190.0978,123.8872 C193.5048,140.2932 196.8118,156.6722 199.9288,172.9282 C201.4868,181.0552 202.9958,189.1492 204.4198,197.1612 L206.4908,209.1062 L206.7358,210.5822 L206.8548,211.3032 L206.8488,211.3822 L206.8348,211.6912 L206.7958,212.2892 C206.7368,213.0702 206.6578,213.7892 206.5368,214.4482 C206.4738,214.7772 206.4078,215.0922 206.2998,215.3912 C206.2378,215.5352 206.1968,215.6982 206.0358,215.8062 C205.8808,215.9122 205.7018,215.9902 205.5248,216.0612 C204.8058,216.3362 204.0948,216.5032 203.4438,216.6382 C203.1178,216.7052 202.8028,216.7582 202.5028,216.8042 C202.3418,216.8302 202.2448,216.8382 201.9778,216.8652 C201.8478,216.8952 201.8168,216.9012 201.6318,216.9982 L198.9588,218.2422 C184.6688,224.8852 169.7028,231.4222 154.6288,237.8052 C139.5338,244.1902 124.2558,250.4342 108.9238,256.5222 C92.4108,263.1122 75.8148,269.5312 59.2978,275.6602 C51.0428,278.7232 42.8038,281.7122 34.6658,284.5632 C26.5338,287.4162 18.4628,290.1442 10.8338,292.5452 L23.3538,329.3332 C29.2758,331.1822 35.3608,332.9022 41.5028,334.5632 C37.7738,339.5372 34.0058,344.4862 30.1768,349.3832 L55.8348,424.7772 C65.3808,421.3152 74.4428,417.8072 83.3888,414.2402 C92.3328,410.6772 101.1268,407.0592 109.8618,403.3932 C127.3278,396.0632 144.5568,388.5512 161.7128,380.8542 C177.6108,373.6762 193.4318,366.3442 209.2458,358.7772 C225.0698,351.1952 240.8468,343.4322 256.8498,335.0722 L264.7678,330.9612 L274.6838,325.6322 C281.2658,321.9942 287.8338,318.3312 294.0848,314.3812 C300.3308,310.4432 306.4318,306.3522 311.7988,301.7952 C317.1948,297.2552 321.9758,292.3812 325.9578,287.0662 L327.4038,285.0392 C327.8908,284.3672 328.2378,283.6052 328.6618,282.8922 C329.4728,281.4382 330.2808,279.9772 331.0758,278.4452 C331.2758,278.0662 331.4758,277.6882 331.6668,277.2912 L331.9558,276.7042 L332.0998,276.4102 L332.1708,276.2642 C332.1248,276.1802 332.8408,276.4642 332.5668,276.2742 C332.8978,275.4772 333.2438,274.6782 333.5198,273.8872 C333.8248,273.0952 334.0958,272.3032 334.3418,271.5122 L334.7258,270.3242 L334.9978,269.1042 C335.6988,265.8402 336.4668,262.6452 337.0268,259.3342 L337.4058,256.8382 C337.5398,256.0102 337.5678,255.1372 337.6538,254.2872 L337.8708,251.7262 L337.9608,249.1092 C338.3498,235.1062 335.9158,220.2232 333.3098,205.6352 C332.6418,201.9772 331.9538,198.3242 331.2258,194.6782 L330.1408,189.2132 L329.3318,185.3762 L326.4598,172.4082 C324.5188,163.8152 322.5248,155.3162 320.4948,146.8592 C316.4378,129.9492 286.154,33.203 277,0 C277,0 168.3998,24.3932 168.6478,25.3772 Z" id="Fill-5" fill="#CC2935"/>
                                <path d="M253.4472,581.221 L187.5262,585.303 C185.7552,585.459 184.0892,584.967 182.8332,584.069 C181.5792,583.18 180.7422,581.908 180.6202,580.44 L180.4852,578.803 C180.4442,578.265 180.3982,577.717 180.3212,577.096 L179.9142,573.498 L179.5102,569.899 C179.3752,568.7 179.2522,567.514 179.0752,566.248 L178.0942,558.768 L177.6012,555.024 L177.0512,551.213 C175.6202,541.086 174.0342,530.805 172.3932,520.498 C169.1112,499.875 165.5562,479.086 161.9272,458.28 C150.7132,394.093 138.7782,329.658 127.1442,265.051 C121.3222,232.737 115.5492,200.369 109.9692,167.862 C104.4042,135.33 99.0112,102.725 94.2482,69.45 L172.4722,58.403 C177.0292,90.244 182.3342,122.382 187.8332,154.512 C193.3502,186.655 199.0892,218.836 204.8912,251.037 C216.4902,315.455 228.4282,379.897 239.7552,444.716 C243.4222,465.747 247.0262,486.813 250.4082,508.064 C252.1002,518.692 253.7472,529.353 255.2742,540.157 L255.8562,544.196 L256.3972,548.293 L257.4712,556.496 C257.8332,559.223 258.1182,562.096 258.4442,564.889 L258.9162,569.106 C259.0812,570.489 259.1822,572.055 259.3162,573.52 C259.6522,577.56 257.0372,580.945 253.4472,581.221" id="Fill-8" fill="#ae5d29"/>
                                <path d="M264.3109,559.000237 L263.1339,549.924039 L261.8719,540.996432 L170.6109,554.289792 C171.1679,558.214826 171.7549,562.176249 172.2249,565.985037 L172.9729,571.753816 L173.3389,574.621526 L173.6439,577.381079 L174.2599,582.899172 L174.4149,584.278949 C174.4649,584.734831 174.4849,585.114901 174.5219,585.536415 L174.7249,588.009904 L174.9349,590.483393 L175.0429,591.719632 L175.0699,592.027933 L175.0749,592.243239 L175.0829,592.66071 C175.1079,593.772617 175.1579,594.884525 175.2339,595.996432 L178.4879,595.996432 L206.4039,595.996432 L207.5539,590.14982 C213.3289,591.74187 219.1369,593.689729 224.9479,595.996432 L267.4369,595.996432 L303.2339,595.996432 C303.1619,592.730457 303.0569,589.464481 302.9189,586.199516 L302.8089,583.755341 L302.6589,581.872174 L302.3529,578.102808 C302.1319,575.479717 300.3229,573.357995 297.5549,571.716415 C294.7729,570.20321 291.0489,568.986177 287.0229,567.799468 C278.9579,565.452333 269.7499,563.10924 264.3109,559.000237" id="Fill-10" fill="#0A1B45"/>
                                <path d="M68.9989954,-0.00356781757 C68.9989954,-0.00356781757 68.9989954,0.333024023 68.9989954,1.0062077 L69.5659,9.8676846 C69.5869,10.682695 69.5929,11.6124105 69.6399,12.2724683 L70.1139,20.867306 C70.1999,22.2789844 70.2689,23.7802134 70.3739,25.1194465 L70.6969,29.0989107 L71.3519,37.0598514 C71.4559,38.4101525 71.5859,39.6709031 71.7139,40.9427218 L72.0969,44.7622024 L72.8649,52.40217 L74.5459,67.3581133 C76.8849,87.1065187 79.4639,106.454462 82.1629,125.681664 C87.5799,164.097831 93.4119,202.073289 99.3269,239.969259 L117.2989,353.24765 C123.2959,390.899117 129.2779,428.482163 134.9569,465.844854 C137.7109,483.914942 140.3559,501.906547 142.8629,519.75628 L144.7069,533.105345 L146.4339,546.315556 C147.5339,555.046229 148.5869,563.728605 149.4339,571.996432 L187.9879,567.099327 C190.9519,561.532102 193.9349,555.903499 196.7769,550.132018 C200.9229,554.892283 204.9429,559.616324 208.9999,564.42891 L288.0139,554.393214 C286.5749,544.503416 285.0119,535.004017 283.4169,525.555934 L280.9779,511.500527 L278.4609,497.586992 C275.0729,479.092294 271.5889,460.752548 268.0259,442.509397 C260.6899,404.744231 253.1339,367.248723 245.5879,329.810568 L223.0669,217.743625 C215.6749,180.468471 208.3869,143.22451 201.6119,106.196879 C198.2369,87.6951373 195.0119,69.2497423 192.0999,51.0558936 L190.0109,37.5065978 C189.3959,33.0854181 188.7209,28.5767003 188.1489,24.2239412 L187.3559,17.7954212 L186.9569,14.5806581 C186.8269,13.5171199 186.7579,12.5783487 186.6539,11.5711569 L186.0649,5.62459977 L185.7539,0.756673667 C185.7239,-0.0160769009 68.9989954,-0.00356781757 68.9989954,-0.00356781757 Z" id="Fill-13" fill="#FA3239"/>
                            </g>
                            <path d="M243,0 C243,55.228475 289.562386,100 347,100 C404.437614,100 451,55.228475 451,0" id="Waist" fill="#FA3239"/>
                        </g>
                    </g>
                    <g id="Body" transform="translate(17.000000, -31.000000) scale(1 1)">
                        <g id="Body/Sweats Holding Hands" stroke="none" stroke-width="1" fill="none" fill-rule="evenodd">
                            <g id="Body" transform="translate(238.000000, 149.000000)">
                                <path d="M278.106708,192.298647 C205.538716,197.378937 1.44114734,174.139406 3.75109927,161.20524 C8.33256874,135.552114 16.2642525,95.4663653 27.5461506,40.9479927 C27.5461506,18.3333745 47.7038086,-0.000770909091 72.5687342,-0.000770909091 L211.895593,-0.000770909091 C236.760519,-0.000770909091 256.917117,18.3333745 256.917117,40.9479927 C266.870755,93.2351517 274.102974,132.007446 278.613775,157.264876 C280.224412,166.283349 280.055389,177.961273 278.106708,192.298647 Z" id="Sweat-Body" fill="#34D1A1"/>
                                <path d="M0.000317843866,195.189749 C100.650875,230.844295 209.77727,197.117022 284.463162,195.189749 L279.673255,156.30124 C206.510894,158.917513 101.819481,190.863022 3.67459294,157.11744 L0.000317843866,195.189749 Z" id="Bottom" fill="#2DB386"/>
                            </g>
                            <g id="Left-Arm" transform="translate(210.000000, 148.000000)">
                                <path d="M167.0149,188.4875 C122.8529,184.3195 63.0539,163.9905 89.1189,108.5835 C94.4809,94.4315 105.6519,80.4165 114.8899,66.4825 C120.2469,53.4765 116.5779,37.7905 106.1429,27.5315 C96.4849,18.2165 81.8359,16.4955 70.0459,22.1485 C57.5169,29.3365 51.1629,43.2615 42.8739,54.9505 C31.4479,73.5265 22.3519,93.4945 18.5879,115.9255 C9.1929,164.0435 36.8319,210.8645 79.9639,231.8015 C104.2269,244.4385 131.3849,250.9035 157.9049,253.8745 C181.5869,256.5175 205.2599,256.5115 228.9199,254.7605 C237.7139,254.3975 240.9469,242.7675 233.5919,238.3475 L239.1149,237.8225 C248.1429,237.2445 250.2999,224.5565 242.4299,220.8815 C252.4679,215.8635 245.9869,200.9965 235.4419,204.0175 C241.1189,198.7665 236.3639,187.5795 228.6629,188.5885 C223.1289,189.0335 217.5999,189.4215 212.0969,189.6445 C210.5339,175.0255 190.5349,183.0065 180.8079,180.5535 C172.4099,179.4105 173.0889,187.9175 167.0149,188.4875" id="SKIN" fill="#ae5d29"/>
                                <path d="M150.4187,259.0001 C138.9227,257.4341 127.2317,255.2151 115.5787,252.0011 C93.8367,256.0211 68.1477,243.7591 48.8257,230.6081 C15.3077,207.5201 -4.4923,164.0391 0.8727,123.3471 C5.7257,81.2051 28.5517,46.0091 56.8357,18.4321 C72.1697,-0.2989 95.8457279,1 118.069576,1 C133.011576,16.609 137.7547,56.8081 124.9007,74.2111 C114.3337,92.8051 101.0107,115.3241 99.8257,135.7671 C98.5577,157.5811 122.8357,166.8501 135.5207,179.7011 C143.3747,181.8711 151.8247,183.4981 160.4427,184.6731 L150.4187,259.0001 Z" id="Fill-5" fill="#34D1A1"/>
                                <path d="M116.3186,250.6516 L136.1466,178.3196 C143.9146,180.4376 152.1606,182.0316 160.6426,183.1846 L150.6186,257.5116 C139.2886,255.9696 127.8486,253.7966 116.3186,250.6516" id="Fill-8" fill="#2DB386"/>
                            </g>
                            <g id="Right-Arm" transform="translate(419.000000, 148.000000)">
                                <path d="M73.9465406,185.601608 C109.478541,176.222608 63.0185406,117.436608 51.0095406,100.904608 C42.8775406,90.570608 34.1035406,80.455608 24.8955406,70.595608 C22.8205406,68.383608 21.4935406,65.663608 20.8025406,62.638608 C19.3265406,51.041608 21.5705406,38.152608 30.5415406,29.096608 C39.4555406,19.859608 53.0525406,17.724608 64.7715406,20.370608 C80.6515406,28.526608 90.7175406,46.903608 102.929541,60.155608 C123.923541,87.344608 143.999541,117.561608 151.477541,152.309608 C161.781541,196.212608 137.049541,236.776608 93.7195406,248.577608 C69.7745406,255.934608 42.3405406,256.288608 18.6395406,254.658608 C9.9535406,254.471608 6.2795406,242.746608 13.8335406,238.244608 L8.2715406,237.714608 C-0.804459398,237.129608 -2.9194594,224.424608 4.9715406,220.767608 C-5.0304594,215.737608 1.4775406,200.889608 11.9745406,203.913608 C6.3635406,198.683608 11.1005406,187.505608 18.6815406,188.469608 C23.8985406,188.892608 29.5245406,189.252608 34.7565406,189.370608 C35.4825406,175.514608 54.0885406,181.925608 62.2615406,178.974608 C68.1425406,177.149608 69.5905406,185.830608 73.9465406,185.601608" id="SKIN" fill="#ae5d29"/>
                                <path d="M107.167441,250.037008 C123.559441,243.122008 138.135441,231.803008 147.583441,216.665008 C167.276441,202.905008 170.478441,172.298008 166.545441,148.051008 C157.662441,94.987008 115.686441,45.181008 76.7734406,14.816008 C59.9964406,-0.34599201 36.3999301,0.999229091 16.4958359,1 C-3.40825837,1.00077091 0.138440602,58.640008 12.9434406,75.397008 C25.8074406,95.113008 41.4264406,115.434008 54.5944406,134.943008 C62.0804406,146.000008 67.7744406,155.165008 73.5574406,166.246008 C73.9794406,166.881008 74.1604406,167.963008 74.8854406,168.281008 C78.4234406,169.840008 80.2964406,173.633008 82.5514406,176.608008 C81.0674406,178.988008 78.5954406,180.705008 75.9904406,181.751008 L107.167441,250.037008 Z" id="Fill-12" fill="#34D1A1"/>
                                <path d="M146.080241,216.219708 L81.1842406,175.837708 C79.8442406,177.971708 77.6702406,179.448708 75.3652406,180.382708 L106.543241,248.670708 C122.527241,241.928708 136.805241,230.931708 146.080241,216.219708" id="Fill-14" fill="#2DB386"/>
                            </g>
                        </g>
                    </g>
                    <g id="Head" transform="translate(338.000000, -61.000000) scale(1 1)">
                        <g id="Head/Flat Top" stroke="none" stroke-width="1" fill="none" fill-rule="evenodd">
                            <g id="Head" transform="translate(22.000000, 63.000000)">
                                <g id="head" transform="translate(0.000000, 9.000100)" fill="#ae5d29">
                                    <path d="M13,62 L58,62 L58,113.633 C58,127.538 47.926,138.81 35.5,138.81 C23.074,138.81 13,127.538 13,113.633 L13,62 Z" id="SKIN"/>
                                    <path d="M60.0525,94 L55.0655,94 C31.8335,94 13.0005,75.167 13.0005,51.935 L13.0005,32.203 C13.0005,14.418 27.4175,0 45.2035,0 L50.7965,0 C68.5825,0 83.0005,14.418 83.0005,32.203 L83.0005,71.052 C83.0005,83.726 72.7265,94 60.0525,94" id="SKIN"/>
                                    <path d="M25,58.5 C25,65.403 19.404,71 12.5,71 C5.596,71 0,65.403 0,58.5 C0,51.597 5.596,46 12.5,46 C19.404,46 25,51.597 25,58.5" id="SKIN"/>
                                </g>
                                <path d="M10.067,62.1685 C10.9718309,62.1685 12.2239875,62.3771928 13.5088204,63.0196092 C15.6553998,64.0928989 17.0130325,66.055328 17.10411,68.9021045 L17.109,69.2105 L14.109,69.2105 C14.109,67.3751144 13.4076866,66.3231443 12.1671796,65.7028908 C11.7065142,65.4725581 11.1976823,65.3199085 10.686339,65.2346846 C10.4347302,65.1927498 10.2385731,65.1747448 10.1250097,65.169908 L10.067,65.1685 L10.067,62.1685 Z" id="ear-line" fill="#000"/>
                                <path d="M34.7507501,105.331776 C25.4557924,102.043669 20.8185822,93.7387742 18.9822222,82.5681961 C26.2532122,94.6702724 39.4406226,102.813326 54.5439426,102.996833 L55.0655,103 L58,103 C50.0632106,107.229839 42.3134606,108.007098 34.7507501,105.331776 Z" id="SHADOW" fill="#000" opacity=".12"/>
                                <path d="M13,6 C13,2.6862915 15.6862915,0 19,0 L75.0605946,0 C78.3505445,0 81.0268922,2.64931904 81.0602855,5.93909942 L81.3043911,29.9874422 C81.3011548,29.9903978 81.3027734,29.9947366 81.3043911,29.9990758 L25.523517,29.9997374 L17.2669596,55.0001 L13,55.0001 L13,6 Z" id="Path" fill="#000"/>
                            </g>
                        </g>
                    </g>
                    <g id="Expression" transform="translate(385.000000, 34.000000) scale(1 1)" fill="#000">
                        <g id="Expression/Nervous" stroke="none" stroke-width="1" fill="none" fill-rule="evenodd">
                            <polygon id="Stroke-5" fill="#000" fill-rule="nonzero" points="33.1977829 19.396766 36.1476171 18.850434 40.4350211 41.9996 30.5607 41.9996 30.5607 38.9996 36.828 38.999"/>
                            <g id="Group-15" transform="translate(10.500000, 10.000000)">
                                <path d="M31.5736,48.6482 L17.5216,48.6482 C12.5796,48.6482 8.5736,44.6422 8.5736,39.7002 L8.5736,38.6482 L31.5736,38.6482 L31.5736,48.6482 Z" id="Fill-1" fill="#FFF"/>
                                <path d="M33.0736,37.1482 L7.0736,37.1482 L7.0736,39.7002 C7.0736,45.4706271 11.7511729,50.1482 17.5216,50.1482 L33.0736,50.1482 L33.0736,37.1482 Z M30.073,47.148 L17.5216,47.1482 L17.275741,47.1442191 C13.5226414,47.0225101 10.4716025,44.1244238 10.1095716,40.4369075 L10.087,40.148 L30.073,40.148 L30.073,47.148 Z" id="Stroke-3" fill="#000" fill-rule="nonzero"/>
                                <path d="M12.217537,0.00703446063 L14.929663,1.28936554 C13.0501292,5.2645732 4.67306405,8.73300405 0.222702634,7.12052401 L-0.000152056048,7.03413239 L1.14735206,4.26226761 C3.97685595,5.43363333 10.7086708,2.73496424 12.1382016,0.161273944 L12.217537,0.00703446063 Z" id="Stroke-5" fill="#000" fill-rule="nonzero"/>
                                <path d="M28.9263207,1.26576643e-05 C30.338104,2.94630361 36.5798731,5.74767064 39.7221119,4.39091901 L39.8998997,4.30800304 L41.2473003,6.98839696 C36.6301151,9.30939845 28.6038095,5.833801 26.3281217,1.50970985 L26.2208793,1.29638734 L28.9263207,1.26576643e-05 Z" id="Stroke-7" fill="#000" fill-rule="nonzero"/>
                                <path d="M1.68088496,13.591114 C4.17056311,7.36691862 14.9639131,7.2910138 16.4921395,13.6168094 L16.544471,13.8540258 L13.602729,14.4423742 C12.9275751,11.0666049 6.1885145,11.0073809 4.54919365,14.5140178 L4.46631504,14.705286 L1.68088496,13.591114 Z" id="Stroke-11" fill="#000" fill-rule="nonzero"/>
                                <path d="M26.680885,13.591114 C29.1705631,7.36691862 39.9639131,7.2910138 41.4921395,13.6168094 L41.544471,13.8540258 L38.602729,14.4423742 C37.9275751,11.0666049 31.1885145,11.0073809 29.5491937,14.5140178 L29.466315,14.705286 L26.680885,13.591114 Z" id="Stroke-13" fill="#000" fill-rule="nonzero"/>
                            </g>
                        </g>
                    </g>
                    <g id="Accessories" transform="translate(372.000000, 56.000000) scale(1 1)" fill="#000">
                        <g id="Accessories/None" stroke="none" stroke-width="1" fill="none" fill-rule="evenodd" fill-opacity="0"/>
                    </g>
                    <g id="Glasses" transform="translate(364.000000, 42.000000) scale(1 1)" fill="#000">
                        <g id="Glasses/None" stroke="none" stroke-width="1" fill="none" fill-rule="evenodd" fill-opacity="0"/>
                    </g>
                </g>
            </g>
            <g transform="translate(940.000000, 429.500000) scale(-1, 1) translate(-940.000000, -429.500000) translate(488.000000, 0.000000) scale(1 1)" id="Master/Character/Standing">
                <g id="Master/Character/Standing" stroke="none" stroke-width="1" fill="none" fill-rule="evenodd">
                    <g id="Legs" transform="translate(50.000000, 263.000000) scale(1 1)">
                        <g id="Legs/Shorts Stand Forward" stroke="none" stroke-width="1" fill="none" fill-rule="evenodd">
                            <path d="M391,586 C386.273513,586.072629 379.36208,587.004889 370.2657,588.796778 C366.6887,588.8474 363.7447,585.9924 363.6907,582.4164 C361.4657,437.4334 358.0577,215.7704 355.8337,70.8834 L434.8257,69.6714 C437.0487,214.4854 440.4547,436.2964 442.6807,581.2034 C442.7357,584.7794 439.8807,587.7224 436.3047,587.7784 C416.050413,586.439922 400.948846,585.847122 391,586 Z" id="SKIN-DARKER" fill="#543629"/>
                            <path d="M447.1064,6.4747 C443.2684,7.7007 337.3524,5.5117 336.901399,10.2347 C336.901399,10.2367 337.4924,161.1757 337.4924,161.1757 L386.3464,160.4257 L397.0794,144.2107 L407.5234,160.0997 L457.1584,159.3377 L451,3.97903932e-13" id="Fill-3" fill="#CC2935"/>
                            <path d="M448.192,446 L356,447.416 L358.288,596.398 C359.269,596.384 387.639,596.425 389.455,596.398 L390.719,588.899 L407.996,596.398 C427.416,596.098 466.994,596.695 486.273,596.398 L486.095,582.821 C485.97,574.686 459.805,572.294 449.994,563.294 L448.192,446 Z" id="Fill-5" fill="#0A1B45"/>
                            <g id="Left-Leg" transform="translate(122.000200, 0.000000)">
                                <path d="M35.9998,580 C21.3960125,577.945478 9.40846432,580.542348 10.2285,578.6022 C7.5095,573.3632 10.8905,566.3002 11.3575,560.8502 C44.3685,394.6242 82.9735,226.5642 119.4725,60.9372 L196.5745,78.1512 C160.9435,239.3062 123.7225,402.9732 91.0825,564.4732 C90.4335,567.9602 88.6355,577.1702 88.0635,580.5912 C87.6305,585.3602 86.2075,591.5852 79.8475,590.5352 C78.7370929,589.906045 55.268202,582.71076 35.9998,580 Z" id="SKIN" fill="#694d3d"/>
                                <path d="M135.699994,-2.27373675e-13 L114.348033,-2.27373675e-13 C108.617521,24.3791904 81.3398,141.6504 81.3398,141.6504 L129.0378,152.2414 L143.2368,138.9534 L149.7138,156.8324 L198.1748,167.5914 L228.7228,22.9504 C228.9718,21.8384 226.5228,20.3444 223.2518,19.6094 C219.736117,19.7547773 166.161428,6.11529735 135.699994,-2.27373675e-13 Z" id="Fill-10" fill="#FA3239"/>
                                <path d="M121.392,453.8124 L31.227,434.5324 C22.831,474.0054 14.145,514.6314 6.475,554.3814 C4.215,566.8754 0.408,583.199 0.057,596 L31.227,596 C31.783,592.42 33.338,585.4474 34.63,582.0674 C51.672536,592.499671 55.1133399,596.200415 64.4811046,596.0174 C64.7417869,596.012307 65.0070493,596.006505 65.277,596 L128.33713,596 C129.131821,594.029245 129.537444,592.989378 129.554,592.8804 C128.131,583.8384 102.425,576.7794 97.741,567.9854 C104.054,535.1604 114.363,487.1224 121.392,453.8124 Z" id="Fill-13" fill="#0A1B45"/>
                            </g>
                            <path d="M243,0 C243,55.228475 289.562386,100 347,100 C404.437614,100 451,55.228475 451,0" id="Waist" fill="#FA3239"/>
                        </g>
                    </g>
                    <g id="Body" transform="translate(17.000000, -31.000000) scale(1 1)">
                        <g id="Body/Sweats Wave 2" stroke="none" stroke-width="1" fill="none" fill-rule="evenodd">
                            <g id="Right-Arm" transform="translate(385.000000, -23.000000)">
                                <path d="M237.209,85.8142 C238.296,121.2142 234.29,160.3892 211.575,188.6132 C197.679,205.6272 176.363,211.8112 154.699,209.5712 C121.934,210.0432 85.002,171.9332 60.53,210.4872 C37.019,257.4172 116.972,271.1842 149.01,275.3272 C168.618,277.1952 190.767,275.0842 209.893,267.9582 C246.206,255.1802 273.729,223.3502 287.333,188.4112 C295.329,168.5112 299.994,146.7322 302.057,125.6452 C305.617,88.3742 302.075,51.0112 293.808,14.7502 C292.225,6.2512 280.138,4.4102 276.844,12.5852 C276.5,1.2402 263.486,-5.4718 258.206,6.5452 C251.686,-2.5258 238.036,6.2302 242.647,16.0872 C236.606,11.3762 226.314,17.7732 228.43,25.1112 C229.68,30.2512 230.935,35.8922 231.919,41.1072 C217.726,44.7692 228.412,63.1642 227.374,73.2102 C227.48,81.7342 235.792,79.8402 237.209,85.8142" id="SKIN-DARKER" fill="#543629"/>
                                <path d="M237.209,85.8142 C238.296,121.2142 234.29,160.3892 211.575,188.6132 C197.679,205.6272 176.363,211.8112 154.699,209.5712 C121.934,210.0432 85.002,171.9332 60.53,210.4872 C37.019,257.4172 116.972,271.1842 149.01,275.3272 C168.618,277.1952 190.767,275.0842 209.893,267.9582 C246.206,255.1802 273.729,223.3502 287.333,188.4112 C295.329,168.5112 299.994,146.7322 302.057,125.6452 C305.617,88.3742 302.075,51.0112 293.808,14.7502 C292.225,6.2512 280.138,4.4102 276.844,12.5852 C276.5,1.2402 263.486,-5.4718 258.206,6.5452 C251.686,-2.5258 238.036,6.2302 242.647,16.0872 C236.606,11.3762 226.314,17.7732 228.43,25.1112 C229.68,30.2512 230.935,35.8922 231.919,41.1072 C217.726,44.7692 228.412,63.1642 227.374,73.2102 C227.48,81.7342 235.792,79.8402 237.209,85.8142" id="SKIN-DARKER" fill="#543629"/>
                                <path d="M309.4013,91.9265 C309.5543,103.3845 309.1613,114.9735 307.9863,126.6355 C312.9743,141.8765 310.7223,154.9095 307.4483,173.5685 C297.9723,224.1935 256.9603,275.4065 203.9423,287.2975 C168.8973,296.2475 132.9493,291.2095 100.0383,278.3445 C65.0903,264.3595 8.33000335e-13,258.74381 0.75307678,215.948951 C6.02366465,171.999229 57.9497225,160.065566 115.896164,184.253294 C135.725164,189.902294 152.7903,195.3545 173.2663,192.1155 C207.6873,188.8445 221.6513,142.3955 233.3543,119.2165 C234.2243,110.6235 234.5263,101.8425 234.4083,92.9695 L309.4013,91.9265 Z" id="Fill-4" fill="#2DB386"/>
                                <path d="M306.5352,126.0837 L231.8922,118.7747 C232.7222,110.3477 233.0252,101.7077 232.9062,92.9897 L307.8992,91.9467 C308.0532,103.2257 307.6632,114.6047 306.5352,126.0837" id="Fill-6" fill="#25996F"/>
                            </g>
                            <g id="Body" transform="translate(238.000000, 149.000000)">
                                <path d="M278.106708,192.298647 C205.538716,197.378937 1.44114734,174.139406 3.75109927,161.20524 C8.33256874,135.552114 16.2642525,95.4663653 27.5461506,40.9479927 C27.5461506,18.3333745 47.7038086,-0.000770909091 72.5687342,-0.000770909091 L211.895593,-0.000770909091 C236.760519,-0.000770909091 256.917117,18.3333745 256.917117,40.9479927 C266.870755,93.2351517 274.102974,132.007446 278.613775,157.264876 C280.224412,166.283349 280.055389,177.961273 278.106708,192.298647 Z" id="Sweat-Body" fill="#34D1A1"/>
                                <path d="M0.000317843866,195.189749 C100.650875,230.844295 209.77727,197.117022 284.463162,195.189749 L279.673255,156.30124 C206.510894,158.917513 101.819481,190.863022 3.67459294,157.11744 L0.000317843866,195.189749 Z" id="Bottom" fill="#2DB386"/>
                            </g>
                            <g id="Left-Arm" transform="translate(102.000000, 149.000000)">
                                <path d="M166.642458,192.111001 C146.481458,177.990001 122.630458,169.349001 102.429458,156.383001 C84.0684579,145.799001 78.9474579,128.445001 88.6444579,111.203001 C102.928458,90.9710011 132.635458,83.4520011 156.947458,78.3250011 C175.048458,73.6820011 198.646458,77.1820011 212.780458,62.9920011 C234.515458,38.4920011 215.495458,3.92400106 182.093458,8.21300106 C127.985458,14.0390011 65.3814579,26.8270011 32.8544579,75.9390011 C8.8194579,113.289001 14.0254579,167.447001 47.9344579,197.316001 C73.2664579,222.109001 110.668458,230.842001 136.529458,252.278001 C143.287458,257.775001 143.847458,264.513001 145.030458,272.859001 C147.758458,277.268001 156.075458,279.050001 160.118458,275.615001 C156.938458,285.568001 166.462458,294.098001 174.983458,287.320001 C176.991458,299.818001 193.477458,297.033001 193.215458,284.796001 C195.459458,290.004001 202.092458,292.057001 206.282458,287.775001 C213.460458,278.128001 210.047458,264.693001 208.816458,252.565001 C227.937458,242.728001 195.312458,202.272001 184.356458,194.945001 C178.465458,190.147001 172.397458,195.590001 166.642458,192.111001" id="SKIN" fill="#694d3d"/>
                                <path d="M120.849558,248.204101 C114.237558,244.153101 105.866558,239.928101 96.8855579,235.426101 C82.4785579,235.533101 63.3905579,226.231101 49.3105579,217.033101 C10.6805579,193.239101 -7.7734421,141.399101 5.0125579,97.5281011 C25.7265579,19.3471011 150.576377,-4.68407848e-05 191.091791,-4.68407848e-05 C231.607206,-4.68407848e-05 212.008308,-4.68407848e-05 212.009022,-4.68407848e-05 C236,3.54428348 248.540429,63.2411831 213.407558,81.3211011 C196.276558,86.8911011 177.288558,88.0511011 159.820558,93.3771011 C140.996558,99.0681011 107.570558,106.571101 99.7165579,125.779101 C99.0225579,128.582101 98.8695579,131.484101 98.5915579,134.339101 C100.234558,144.713101 113.196558,152.296101 120.415558,159.041101 C133.347558,172.088101 143.905558,174.204101 159.932558,184.191101 L120.849558,248.204101 Z" id="Fill-11" fill="#34D1A1"/>
                                <path d="M97.9032579,234.256501 L131.576258,167.240501 C140.489258,171.737501 150.265258,176.555501 160.715258,182.909501 L121.632258,246.921501 C114.997258,242.860501 106.851258,238.744501 97.9032579,234.256501" id="Fill-13" fill="#2DB386"/>
                            </g>
                        </g>
                    </g>
                    <g id="Head" transform="translate(338.000000, -61.000000) scale(1 1)">
                        <g id="Head/Adventure Times" stroke="none" stroke-width="1" fill="none" fill-rule="evenodd">
                            <g id="Group-15" transform="translate(12.000000, 66.000000)">
                                <path d="M0,49 L103,49 L103,122.773848 C103,136.704992 79.9440222,148 51.5,148 C23.0559778,148 0,136.704992 0,122.773848 L0,49 Z" id="Fill-1" fill="#D7DBE2"/>
                                <path d="M16,51 L0,51 L0,8 C0,3.582 3.582,0 8,0 C12.418,0 16,3.582 16,8 L16,51 Z" id="Fill-4" fill="#D7DBE2"/>
                                <path d="M103,43 L87,43 L87,8 C87,3.582 90.582,0 95,0 C99.418,0 103,3.582 103,8 L103,43 Z" id="Fill-7" fill="#D7DBE2"/>
                                <path d="M69.2336571,135.70122 L61.8956429,135.70122 C27.7114143,135.70122 0,108.773548 0,75.556128 L0,47.3430544 C0,21.9138269 21.2135857,1.29878049 47.3844143,1.29878049 L55.6141143,1.29878049 C81.7849429,1.29878049 103,21.9138269 103,47.3430544 L103,102.891296 C103,121.011319 87.8825429,135.70122 69.2336571,135.70122" id="Fill-10" fill="#D7DBE2"/>
                                <path d="M66.1323455,103 L58.3386765,103 C35.9981741,103 28,88.4253977 28,70.4469318 L28,50.5530682 C28,32.5746023 35.9981741,18 58.3386765,18 C76.9295433,18 92,30.1279545 92,45.0889205 L92,82.1827273 C92,93.6799432 80.4184911,103 66.1323455,103" id="SKIN" fill="#694d3d"/>
                                <path d="M58.3386765,18 C70.5091849,18 81.1709636,23.1976343 87.0835205,30.9851047 C74.7773662,31.7325458 58.6678115,25.0210153 53.0468111,23 C53.0468111,39.0959726 39.9286386,43.5378125 28.3921269,43.9647117 C30.2346112,29.1444033 38.8032458,18 58.3386765,18 Z" id="Combined-Shape" fill="#000"/>
                            </g>
                        </g>
                    </g>
                    <g id="Expression" transform="translate(385.000000, 34.000000) scale(1 1)" fill="#000">
                        <g id="Expression/Confident" stroke="none" stroke-width="1" fill="none" fill-rule="evenodd">
                            <polygon id="Stroke-5" fill="#000" fill-rule="nonzero" points="33.1977829 19.396766 36.1476171 18.850434 40.4350211 41.9996 30.5607 41.9996 30.5607 38.9996 36.828 38.999"/>
                            <g id="Group-19" transform="translate(7.500000, 6.500000)" fill="#000" fill-rule="nonzero">
                                <path d="M15.1954,35.0725 C15.1954,38.7467625 18.9374817,42.1446933 22.9550435,42.2765329 L23.1964,42.2805 L23.1964,45.2805 C17.5987295,45.2805 12.3696019,40.7145163 12.1996594,35.3417911 L12.1954,35.0725 L15.1954,35.0725 Z" id="Stroke-1"/>
                                <polygon id="Stroke-3" points="25.4714706 12.8831993 28.4213294 12.3370007 32.7076381 35.4861 22.8344 35.4861 22.8344 32.4861 29.101 32.486"/>
                                <polygon id="Stroke-5" points="25.4714706 12.8831993 28.4213294 12.3370007 32.7076381 35.4861 22.8344 35.4861 22.8344 32.4861 29.101 32.486"/>
                                <polygon id="Stroke-7" points="25.4714706 12.8831993 28.4213294 12.3370007 32.7076381 35.4861 22.8344 35.4861 22.8344 32.4861 29.101 32.486"/>
                                <path d="M16.8347,0.0006 L16.8347,3.0006 C12.8614229,3.0006 9.23835727,4.06604738 6.03595274,5.84488405 C4.91508362,6.46749218 3.9293314,7.13343565 3.08971515,7.7961842 L2.78614068,8.04060103 C2.50740693,8.26977369 2.30354376,8.45165644 2.17768642,8.57223303 L2.12127275,8.62734759 L0.000127251271,6.50585241 C0.850658012,5.65546184 2.39872067,4.43350326 4.57919726,3.22231595 C8.05718891,1.29039915 11.9861553,0.0986291869 16.2942223,0.0063786563 L16.8347,0.0006 Z" id="Stroke-9"/>
                                <path d="M28.8944,0.3444 C32.8871281,0.3444 36.5186416,1.41233258 39.717187,3.18913498 C41.5297756,4.19603386 42.8489265,5.21247949 43.6282704,5.95899887 L43.7680602,6.09573983 L41.6467398,8.21706017 C41.5206868,8.09100715 41.2403525,7.83943052 40.815131,7.5037443 C40.087555,6.92936785 39.2326886,6.35179507 38.260363,5.81166502 C35.6146324,4.34195302 32.6384875,3.43381034 29.3845651,3.35065325 L28.8944,3.3444 L28.8944,0.3444 Z" id="Stroke-11"/>
                                <path d="M7.22711504,13.179414 C8.68074249,16.8134826 15.4334605,16.8772382 16.3216227,13.6199964 L16.363529,13.4423258 L19.305271,14.0306742 C18.0084908,20.5145751 7.22968836,20.5936471 4.53765904,14.5213 L4.44168496,14.293586 L7.22711504,13.179414 Z" id="Stroke-13"/>
                                <path d="M32.227115,13.179414 C33.6807425,16.8134826 40.4334605,16.8772382 41.3216227,13.6199964 L41.363529,13.4423258 L44.305271,14.0306742 C43.0084908,20.5145751 32.2296884,20.5936471 29.537659,14.5213 L29.441685,14.293586 L32.227115,13.179414 Z" id="Stroke-15"/>
                            </g>
                        </g>
                    </g>
                    <g id="Accessories" transform="translate(372.000000, 56.000000) scale(1 1)" fill="#000">
                        <g id="Accessories/N65" stroke="none" stroke-width="1" fill="none" fill-rule="evenodd">
                            <path d="M55.1977784,0.766509801 C61.8672688,0.766509801 65.5931791,6.91877559 68.3190852,9.67622448 C68.5366389,9.86933778 68.7500465,10.0676638 68.9593821,10.2698541 C69.0753941,10.3682311 69.1897807,10.4565674 69.3026336,10.535583 L69.2915753,10.5973925 C73.2112403,14.5427001 75.6165684,19.8776287 75.6165684,25.7499259 C75.6165684,37.9001904 65.3191176,47.7499259 52.6165684,47.7499259 C39.9140192,47.7499259 29.6165684,37.9001904 29.6165684,25.7499259 C29.6165684,17.6330728 34.2120776,10.5428914 41.0501479,6.73002773 L41.0440543,6.69219525 L41.0440543,6.69219525 C46.4836096,4.14573474 47.6906867,0.766509801 55.1977784,0.766509801 Z" id="Clothe" fill="#D8D8D8"/>
                            <path d="M32.6165684,20.7333421 C32.6165684,32.8836066 42.9140192,42.7333421 55.6165684,42.7333421 C63.0741024,42.7333421 69.702661,39.3383929 73.9051908,34.0761112 C70.4693708,42.0893844 62.2320375,47.7333421 52.6165684,47.7333421 C39.9140192,47.7333421 29.6165684,37.8836066 29.6165684,25.7333421 C29.6165684,20.7166936 31.3720069,16.0922234 34.3273758,12.3912869 C33.2246542,14.9640107 32.6165684,17.7807509 32.6165684,20.7333421 Z" id="SHADOW" fill="#000" opacity=".12"/>
                            <line x1="0" y1="0" x2="34.913" y2="14.229" id="Path-4" stroke="#22252B" stroke-width="2"/>
                            <line x1="33.673" y1="28.173" x2="0" y2="28.173" id="Path-5" stroke="#22252B" stroke-width="2"/>
                        </g>
                    </g>
                    <g id="Glasses" transform="translate(364.000000, 42.000000) scale(1 1)" fill="#000">
                        <g id="Glasses/None" stroke="none" stroke-width="1" fill="none" fill-rule="evenodd" fill-opacity="0"/>
                    </g>
                </g>
            </g>
        </g>
    </g>
</svg>
