<svg viewBox="711.75 197.069 766.5 930.603" xmlns="http://www.w3.org/2000/svg" overflow="visible">
    <g id="Master/Scene/One Character" stroke="none" stroke-width="1" fill="none" fill-rule="evenodd">
        <g id="Background" opacity=".4" transform="translate(99.000000, 75.000000) scale(1.0375 1.037037037037037)">
            <g id="Background/None" stroke="none" stroke-width="1" fill="none" fill-rule="evenodd" fill-opacity="0"/>
        </g>
        <g transform="translate(656.000000, 242.000000) scale(1 1)" id="Master/Character/Standing">
            <g id="Master/Character/Standing" stroke="none" stroke-width="1" fill="none" fill-rule="evenodd">
                <g id="Legs" transform="translate(50.000000, 263.000000) scale(1 1)">
                    <g id="Legs/Jeans Leap" stroke="none" stroke-width="1" fill="none" fill-rule="evenodd">
                        <g id="Group-21" transform="translate(176.000000, -1.000000)">
                            <path d="M4.37839541,266.442 L5.0629,199.958 C5.1159,196.379 8.0989,193.513 11.6489,193.553 C32.8729,193.803 53.8229,193.833 74.7989,193.53 C95.7469,193.227 116.6179,192.606 137.2759,191.526 C155.3909,190.573 173.3609,189.268 190.8819,187.397 C208.3549,185.531 225.5609,183.069 240.8699,179.631 L241.1889,179.569 L241.4269,179.53 C241.5049,179.521 241.5839,179.52 241.6649,179.528 C241.8269,179.544 241.9959,179.591 242.1729,179.671 C242.5249,179.827 242.9099,180.108 243.3299,180.493 C244.0029,181.258 244.7919,182.396 245.7559,183.815 C247.6419,186.649 250.2259,190.555 252.3659,195.081 L271.1739,235.346 C273.2919,239.823 273.2319,244.513 270.8389,248.577 C269.6439,250.565 267.8799,252.399 265.6919,253.922 C264.6339,254.654 263.4689,255.303 262.2179,255.85 C261.5919,256.124 260.9439,256.371 260.2779,256.59 C259.9449,256.7 259.6079,256.802 259.2659,256.897 C258.9099,256.997 258.6989,257.047 258.4029,257.114 C238.3009,261.602 218.7739,264.286 199.3399,266.386 C179.9209,268.458 160.6499,269.844 141.4359,270.858 C97.6699,273.126 54.0969,273.497 10.7649,272.989 C7.1739,272.949 4.3349,270.016 4.37839541,266.442" id="Fill-1" fill="#8c6345"/>
                            <path d="M184.1775,52.2131 C187.8705,58.2601 191.5845,64.5551 195.1975,70.8461 C198.8155,77.1511 202.3585,83.5001 205.7965,89.8641 C212.6725,102.5891 219.1625,115.3871 224.9845,128.0261 C230.7765,140.6261 235.9495,153.1911 239.6995,164.6651 L240.3145,166.5831 C240.2905,166.6081 240.2885,166.6251 240.3065,166.6391 C240.3465,166.6651 240.3235,166.7061 240.3345,166.7371 L240.3425,166.9371 C240.3415,167.0661 240.3305,167.1881 240.2975,167.3011 C240.2595,167.5531 239.9425,167.6391 239.7325,167.6611 L239.5685,167.6721 L239.4905,167.6731 L239.4525,167.6731 L239.3305,167.6761 C239.2605,167.6801 239.1915,167.6881 239.1235,167.7001 C238.9895,167.7231 238.8595,167.7621 238.7325,167.8191 L236.5795,168.2841 L234.2995,168.7731 L231.9465,169.2351 C230.3935,169.5511 228.7895,169.8461 227.1695,170.1331 C225.5715,170.4341 223.9305,170.7111 222.2755,170.9821 C209.0605,173.1731 194.9455,174.8451 180.5665,176.1611 C166.1635,177.4651 151.4665,178.4431 136.6275,179.1651 C110.4385,180.4581 83.8435,181.0041 57.1435,181.0941 L57.7895,288.3661 C85.8135,288.1081 113.9105,287.3771 142.2195,285.8181 C158.2645,284.9261 174.3825,283.7501 190.6425,282.1651 C206.9125,280.5571 223.3115,278.5401 240.1215,275.6361 C242.2205,275.2761 244.3265,274.9041 246.4525,274.4931 C248.5675,274.1001 250.6905,273.6931 252.8365,273.2431 C254.9695,272.8171 257.1165,272.3641 259.2865,271.8701 L262.6115,271.1271 L267.1005,270.0451 C268.6165,269.6611 270.0325,269.3231 271.6215,268.8701 L276.3045,267.5691 L278.6455,266.9181 L280.9535,266.1901 L285.5615,264.7171 C287.1125,264.2541 288.5865,263.6471 290.1025,263.1181 C291.6025,262.5611 293.1255,262.0411 294.6065,261.4551 L298.9955,259.6081 L301.1855,258.6801 L303.3085,257.6591 C314.7195,252.3201 324.9895,245.5261 333.1915,236.7271 C337.2885,232.3381 340.8925,227.3621 343.5605,221.8811 C346.2175,216.4031 347.8505,210.6681 348.9135,204.7271 C350.9265,192.8321 350.5665,180.3051 348.6355,167.7351 C347.6845,161.4501 346.3685,155.1531 344.7245,148.9091 C344.3445,147.3431 343.9065,145.7881 343.4595,144.2331 C343.0135,142.6801 342.5955,141.1201 342.1225,139.5731 L340.6825,134.9381 L339.5755,131.5831 C333.8525,114.5701 327.1805,98.9711 320.1085,83.8151 C313.0125,68.6961 305.4705,54.1111 297.6115,39.7971 C289.7305,25.4711 283,13 274,1 C274,1 182.5505,49.5691 184.1775,52.2131 Z" id="Fill-3" fill="#3E36B9"/>
                            <path d="M35.5767,273.1774 C35.5947,267.6894 35.6577,247.8994 35.7167,229.4464 C35.4777,229.4654 35.2407,229.4944 34.9967,229.4934 C28.6787,229.4714 23.6137,222.2664 23.6887,213.4304 C23.7647,204.5934 28.8837,197.4724 35.1087,197.4934 C35.3487,197.4944 35.5827,197.5264 35.8187,197.5474 C35.8267,195.1314 35.8307,193.7374 35.8307,193.7374 L18.3247,193.6224 L-0.0003,193.4454 L-0.0003,308.7454 L10.7977,308.85261 C20.1367,308.9464 22.7997,277.5044 35.5767,273.1774" id="Fill-6" fill="#D7DBE2"/>
                            <path d="M57.7031,288.4674 L57.0601,180.9584 C68.0701,180.8914 79.0561,180.7424 90.0031,180.4964 L92.4141,287.9814 C80.8241,288.2414 69.2561,288.3974 57.7031,288.4674" id="Fill-9" fill="#D7DBE2"/>
                            <path d="M123.617668,563.491669 L71.9398984,518.409915 C69.1610233,515.983886 68.528771,511.982528 70.5671523,509.340382 C76.7116325,501.36733 82.8156487,492.967338 88.707228,484.458229 C94.6038654,475.936407 100.324484,467.256733 105.824573,458.463704 C116.813622,440.876587 126.98732,422.849818 135.917756,404.550783 C140.380952,395.456884 144.507283,386.289887 148.294726,377.099582 C152.09431,367.908219 155.500379,358.684013 158.475505,349.483115 C161.463782,340.285395 164.007965,331.106744 165.992731,322.041449 C167.99773,312.975094 169.497938,304.011502 170.320372,295.295809 C170.410404,294.335991 170.626888,293.411134 170.955659,292.526534 C171.274314,291.644053 171.666816,290.811364 172.182734,290.014694 C173.204454,288.423474 174.640931,286.998579 176.293891,285.814169 C179.645334,283.443229 184.229921,281.894385 189.183744,282.005622 L233.487935,283.037479 C238.484245,283.146597 242.905965,285.415834 246.022715,289.214847 C247.60284,291.115412 248.766184,293.366639 249.510725,295.858351 C249.878948,297.104206 250.161186,298.414686 250.285613,299.754828 C250.401947,301.091792 250.398913,302.466895 250.265381,303.864245 C249.054491,316.531504 246.95946,328.913783 244.285792,341.01956 C241.625275,353.13487 238.332505,364.953549 234.58249,376.50314 C230.844615,388.061205 226.657588,399.361837 222.094244,410.410331 C217.540004,421.465181 212.651936,432.297557 207.45027,442.904281 C197.023672,464.25545 185.437776,484.748505 173.038551,504.595325 C160.59178,524.445323 147.426771,543.573869 133.07515,562.2331 C130.669557,565.351977 126.39452,565.922994 123.617668,563.491669" id="SKIN" fill="#b18058"/>
                            <path d="M65.3885986,1 C65.3885986,1 65.3885986,5.22875992 65.3885986,7.34313989 C65.3885986,9.45751985 65.312007,11.6999255 65.4647855,13.416802 C66.4239508,29.3444263 69.6252159,44.0583965 73.5964439,56.9465995 C77.589931,69.8813189 82.3098746,81.1594217 87.0328535,91.3909063 C91.7740444,101.619219 96.5587418,110.835802 101.168402,119.523789 L114.468221,144.214461 C122.874071,159.872502 130.394616,174.528326 136.655497,188.986457 C142.985179,203.434015 148.046092,217.681764 152.013273,232.094435 C152.915779,235.711082 153.94678,239.302357 154.702578,242.942262 C155.101219,244.757457 155.55146,246.563137 155.920759,248.385733 L156.976043,253.86092 L157.244164,255.227866 L157.379743,255.911868 C157.428308,256.150793 157.468779,256.36646 157.488003,256.525039 L157.811772,258.643647 C158.068763,260.037024 158.214459,261.494889 158.390509,262.943239 C158.741596,265.839939 158.954069,268.832844 159.091671,271.887066 C159.624878,284.105011 158.49371,297.519694 155.811487,311.514775 C153.146464,325.510914 149.000199,340.045161 143.729848,354.660813 C138.457474,369.284922 132.068097,384.003121 124.85918,398.591285 C113.637552,421.300783 100.445992,443.73224 86.0028637,465.348604 L175.174891,530 C191.948144,504.565066 207.387874,478.062371 221.043839,450.044722 C229.801788,432.039719 237.806974,413.403574 244.690099,393.955507 C251.559058,374.50744 257.32518,354.232651 261.246831,332.966217 C265.157353,311.726213 267.190014,289.40259 266.057835,266.394964 C265.766443,260.648079 265.303049,254.868422 264.577604,249.070792 C264.214376,246.17092 263.856206,243.274219 263.34627,240.369061 L262.625884,236.01661 C262.377999,234.614776 262.112913,233.39055 261.856933,232.069063 L260.294748,224.279687 C259.7494,221.689571 259.116027,219.122714 258.526161,216.543171 C257.385887,211.371397 255.949162,206.295828 254.608557,201.189601 C248.915283,180.89261 241.68613,161.18976 233.392587,142.562073 C225.154692,123.880469 215.91109,106.278256 206.853655,89.6317422 C197.828597,73.0571176 188.934058,57.3715899 182.184488,43.031865 C178.819315,35.8799748 176.039961,29.0991582 174.108477,22.9399694 C172.16384,16.7649227 65.3885986,1 65.3885986,1 Z" id="Fill-13" fill="#694FD9"/>
                            <path d="M148.619093,540.880308 C144.165164,537.435166 128.106968,525.008009 113.134208,513.421335 C113.009898,513.633036 112.893674,513.850003 112.750162,514.051171 C108.993581,519.320522 100.147373,518.880269 93.1021411,513.170664 C86.0488242,507.452634 83.2675191,498.892967 86.8058,493.929055 C86.9422376,493.737366 87.0998988,493.567795 87.2514961,493.391904 C85.2908377,491.875241 84.1599219,491 84.1599219,491 C80.8571221,495.641621 77.4957047,500.223207 74.109021,504.706842 C72.4171952,506.944973 70.7172842,509.163093 69.0284903,511.322231 L66.5200603,514.493532 L64.3694,517.147692 L152.162427,597 L154.797188,593.783411 L157.004445,591.026033 L161.20369,585.66821 C164.49133,581.411021 160.23852,573.627591 155.722942,565.228016 C151.209385,556.816856 146.428007,547.819042 148.619093,540.880308" id="Fill-15" fill="#D7DBE2"/>
                            <path d="M175.153057,530 L85.3694,465.169368 C91.3203463,456.239465 97.0689971,447.172081 102.537077,438 L195.3694,498.005058 C188.883743,508.878727 182.132763,519.526082 175.153057,530" id="Fill-17" fill="#D7DBE2"/>
                            <path d="M165,99.7194 C116.101135,99.7194 75.4822324,64.267213 67.4444651,17.6640124 C66.4948465,12.1580975 66,6.77713517 66,1 L274,0.7194 C274,55.3954 229.676,99.7194 175,99.7194 L165,99.7194 Z" id="Fill-19" fill="#694FD9"/>
                        </g>
                    </g>
                </g>
                <g id="Body" transform="translate(17.000000, -31.000000) scale(1 1)">
                    <g id="Body/Dress Stride" stroke="none" stroke-width="1" fill="none" fill-rule="evenodd">
                        <g id="Right-Arm" transform="translate(407.000000, 149.000000)">
                            <path d="M340.660059,13.0003484 L340.919736,13.0057881 C342.306664,13.052311 343.722719,13.378182 345.040338,13.9433634 L345.286207,14.0521296 C348.244341,15.4207362 349.698938,17.4577383 350.040551,19.9308059 C350.051988,20.0136058 350.062178,20.0968945 350.071135,20.1806633 L350.196144,19.9311842 C350.547544,19.233194 350.892189,18.5317477 351.230007,17.8269296 C353.290791,13.7298707 358.256228,12.178948 362.578473,13.7527473 L362.837007,13.8509296 C366.451348,15.263073 368.593896,18.8448101 368.317656,22.4976077 C368.314174,22.5436514 368.310307,22.5897063 368.306055,22.6357684 C370.791217,21.0384704 373.933815,20.5815681 376.848707,21.7665296 C381.766707,23.8325296 383.332707,29.8035296 380.894707,34.5575296 C379.860372,36.2325626 378.804501,38.1391165 377.708883,40.169062 C380.306311,38.7749792 383.385582,38.4144949 386.111407,39.8114296 C399.127603,47.8860226 376.951048,73.6342309 356.999326,92.0248252 C352.800502,96.4733181 347.734365,100.730308 342.168256,104.738558 C338.245557,107.823055 335.0544,110.07202 333.133407,111.12243 C332.194504,111.75627 331.177208,112.258427 330.127323,112.616191 L330.127575,112.616047 L329.975002,112.707284 C310.407797,124.396406 288.278967,133.10075 275.668707,136.90793 C250.931307,144.36713 225.481467,148.13381 199.948827,148.27817 L198.672129,148.282369 C182.074233,148.297732 165.445787,146.78316 148.959707,143.75793 C115.935707,137.65093 82.857707,124.55793 55.567707,103.67893 C42.217707,92.4149296 25.849707,80.0649296 20.250707,62.6099296 C16.220707,48.9689296 22.084707,33.3769296 35.604707,27.7899296 C40.8116945,25.5962546 46.5585878,24.4624828 52.2899075,24.4586635 L52.8108782,24.461431 C60.7979639,24.5516564 68.722082,26.8415796 75.078707,31.5209296 C81.955707,38.0549296 87.674707,45.5709296 95.725707,51.3019296 C114.721707,65.6829296 137.218707,74.4009296 161.091707,78.8819296 C173.117227,81.0807496 185.510559,82.2250772 197.961081,82.2581067 L199.397916,82.2569828 C234.366214,82.1094697 269.691177,73.1842196 298.497707,54.2239296 C298.865387,53.9984458 299.228969,53.768295 299.58886,53.533973 C292.245921,42.2499137 310.562693,36.2854373 315.227107,27.7775296 C318.036336,24.7626754 322.843637,25.5848082 326.239312,27.9448238 L326.449085,28.0928187 C329.218436,24.3499848 331.730998,20.4477039 333.968207,16.3991296 C335.441023,14.0140275 337.980906,12.9781679 340.660059,13.0003484 Z" id="SKIN" fill="#b18058"/>
                            <path d="M340.660059,13.0003484 L340.919736,13.0057881 C342.306664,13.052311 343.722719,13.378182 345.040338,13.9433634 L345.286207,14.0521296 C348.244341,15.4207362 349.698938,17.4577383 350.040551,19.9308059 C350.051988,20.0136058 350.062178,20.0968945 350.071135,20.1806633 L350.196144,19.9311842 C350.547544,19.233194 350.892189,18.5317477 351.230007,17.8269296 C353.290791,13.7298707 358.256228,12.178948 362.578473,13.7527473 L362.837007,13.8509296 C366.451348,15.263073 368.593896,18.8448101 368.317656,22.4976077 C368.314174,22.5436514 368.310307,22.5897063 368.306055,22.6357684 C370.791217,21.0384704 373.933815,20.5815681 376.848707,21.7665296 C381.766707,23.8325296 383.332707,29.8035296 380.894707,34.5575296 C379.860372,36.2325626 378.804501,38.1391165 377.708883,40.169062 C380.306311,38.7749792 383.385582,38.4144949 386.111407,39.8114296 C399.127603,47.8860226 376.951048,73.6342309 356.999326,92.0248252 C352.800502,96.4733181 347.734365,100.730308 342.168256,104.738558 C338.245557,107.823055 335.0544,110.07202 333.133407,111.12243 C332.194504,111.75627 331.177208,112.258427 330.127323,112.616191 L330.127575,112.616047 L329.975002,112.707284 C310.407797,124.396406 288.278967,133.10075 275.668707,136.90793 C250.931307,144.36713 225.481467,148.13381 199.948827,148.27817 L198.672129,148.282369 C182.074233,148.297732 165.445787,146.78316 148.959707,143.75793 C115.935707,137.65093 82.857707,124.55793 55.567707,103.67893 C42.217707,92.4149296 25.849707,80.0649296 20.250707,62.6099296 C16.220707,48.9689296 22.084707,33.3769296 35.604707,27.7899296 C40.8116945,25.5962546 46.5585878,24.4624828 52.2899075,24.4586635 L52.8108782,24.461431 C60.7979639,24.5516564 68.722082,26.8415796 75.078707,31.5209296 C81.955707,38.0549296 87.674707,45.5709296 95.725707,51.3019296 C114.721707,65.6829296 137.218707,74.4009296 161.091707,78.8819296 C173.117227,81.0807496 185.510559,82.2250772 197.961081,82.2581067 L199.397916,82.2569828 C234.366214,82.1094697 269.691177,73.1842196 298.497707,54.2239296 C298.865387,53.9984458 299.228969,53.768295 299.58886,53.533973 C292.245921,42.2499137 310.562693,36.2854373 315.227107,27.7775296 C318.036336,24.7626754 322.843637,25.5848082 326.239312,27.9448238 L326.449085,28.0928187 C329.218436,24.3499848 331.730998,20.4477039 333.968207,16.3991296 C335.441023,14.0140275 337.980906,12.9781679 340.660059,13.0003484 Z" id="SKIN-DARKER" fill="#8c6345"/>
                            <path d="M37.1520028,90.5321007 C11.0901343,85.4671773 4.01135026,66.6664295 4.57126973,34.1489644 C5.16189047,20.4748209 -13.139233,-4.54747351e-13 24.5,-4.54747351e-13 C62.139233,-4.54747351e-13 78.0013803,38.7276399 100.564523,52.804514 L37.1520028,90.5321007 Z" id="Fill-14" fill="#051026"/>
                        </g>
                        <g id="Body" transform="translate(245.000000, 149.000000)">
                            <rect id="SKIN" fill="#b18058" x="45" y="101" width="180" height="48"/>
                            <path d="M63.5650629,0 C87.6608079,0 127.452193,0 182.939219,0 C212.905387,-4.15317684e-08 238.277035,22.109402 242.375415,51.7939852 C252.306238,123.722978 272.798035,179.037942 303.850803,217.73888 C314.270599,230.725028 322.342897,251.71551 304.947073,257.545803 C236.967179,280.329588 74.3806905,309.669997 12.8985299,281.046439 C6.71400051,278.167177 3.60590921,271.833868 2.17733074,261.282227 C-6.66335774,195.983912 14.8063811,108.376822 27.602126,49.7576216 C33.4393796,23.0162989 40.2553811,0 63.5650629,0 Z" id="body" fill="#0A1B45"/>
                        </g>
                        <path d="M334,149 C334,167.225397 354.594902,182 380,182 C405.405098,182 426,167.225397 426,149" id="SKIN" fill="#b18058"/>
                        <g id="Left-Arm" transform="translate(114.000000, 149.000000)">
                            <path d="M74.3438502,347.540423 C86.3638502,357.343423 97.0938502,355.709423 103.62885,353.103423 C110.40285,350.211423 108.62785,340.007423 101.39785,338.764423 C90.0398502,337.809423 80.4458502,338.449423 70.5808502,326.731423 C67.4648502,323.195423 65.4538502,322.029423 64.2718502,322.513423 C60.1978502,329.036423 67.9648502,341.754423 74.3438502,347.540423" id="SKIN" fill="#b18058"/>
                            <path d="M74.3438502,347.540423 C86.3638502,357.343423 97.0938502,355.709423 103.62885,353.103423 C110.40285,350.211423 108.62785,340.007423 101.39785,338.764423 C90.0398502,337.809423 80.4458502,338.449423 70.5808502,326.731423 C67.4648502,323.195423 65.4538502,322.029423 64.2718502,322.513423 C60.1978502,329.036423 67.9648502,341.754423 74.3438502,347.540423" id="SHADOW" fill="#000" opacity=".12"/>
                            <path d="M65.4327502,315.775823 L65.4327502,315.775823 C38.8037502,326.810823 21.9167502,305.288823 16.3227502,281.046823 C11.7167502,267.188823 7.65175021,252.355823 4.84675021,237.858823 C-5.64124979,188.952823 -0.280249786,133.061823 32.5367502,93.3988231 C54.1337502,65.7928231 84.0177502,45.3078231 114.91175,30.1448231 C141.15875,17.4578231 179.86175,-3.08017689 193.42875,35.8868231 C197.88775,52.7928231 189.20375,70.9428231 173.02975,77.0238231 C127.94975,94.4168231 76.3267502,121.380823 67.4417502,172.408823 C63.9897502,193.749823 67.1697502,215.869823 72.1647502,236.881823 C78.3177502,265.613823 101.40775,296.470823 65.4327502,315.775823" id="SKIN" fill="#b18058"/>
                            <path d="M147.804771,88.726236 L106.5,31.9670066 C128.404668,18.3076792 153.040482,2.27373675e-13 195.888944,2.27373675e-13 C207.780873,2.27373675e-13 210.239179,15.3674181 213.09775,35.8898231 C216.36075,53.2498231 206.51375,71.1108231 189.75275,76.5798231 C175.561417,81.0871564 161.578757,85.1359608 147.804771,88.726236 Z" id="Fill-23" fill="#0A1B45"/>
                            <path d="M82.6250502,270.835323 C73.3400502,261.646323 31.9530502,286.758323 21.0070502,294.480323 C30.3540502,321.843323 48.5280502,351.947323 71.0180502,366.534323 C80.5280502,373.780323 112.02205,385.826323 105.78405,366.609323 C98.7040502,361.083323 63.2780502,331.162323 76.6220502,316.126323 C83.8480502,306.560323 92.4900502,311.154323 99.5690502,316.425323 C106.05505,321.589323 117.97305,313.076323 113.05605,306.059323 C104.25405,295.360323 87.4460502,283.260323 82.6250502,270.835323" id="SKIN" fill="#b18058"/>
                        </g>
                    </g>
                </g>
                <g id="Head" transform="translate(338.000000, -61.000000) scale(1 1)">
                    <g id="Head/Bob" stroke="none" stroke-width="1" fill="none" fill-rule="evenodd">
                        <g id="Group-22" transform="translate(3.000000, 61.000000)">
                            <path d="M32,115.9999 L27.88,115.9999 C12.482,115.9999 0,103.5179 0,88.1199 L0,51.9999 L32,51.9999 L32,115.9999 Z" id="Fill-1" fill="#000"/>
                            <path d="M73,115.9999 L106.358,115.9999 C108.37,115.9999 110,114.3699 110,112.3579 L110,51.9999 L73,51.9999 L73,115.9999 Z" id="Fill-3" fill="#000"/>
                            <path d="M50.8008,104.9999 L64.9998,104.9999 L64.9998,-0.0001 L50.8008,-0.0001 C22.7448,-0.0001 -0.0002,22.7439 -0.0002,50.8009 L-0.0002,54.1989 C-0.0002,82.2559 22.7448,104.9999 50.8008,104.9999" id="Fill-5" fill="#000"/>
                            <path d="M66.1992,57.9994 L57.0002,57.9994 L57.0002,-0.0006 L66.1992,-0.0006 C94.2552,-0.0006 117.0002,9.8554 117.0002,31.5524 L117.0002,41.9134 C117.0002,57.9994 94.2552,57.9994 66.1992,57.9994" id="Fill-8" fill="#000"/>
                            <path d="M32,72.9999 L77,72.9999 L77,124.6329 C77,138.5379 66.927,149.8099 54.5,149.8099 C42.073,149.8099 32,138.5379 32,124.6329 L32,72.9999 Z" id="SKIN" fill="#b18058"/>
                            <path d="M79.0525,104.9999 L74.0655,104.9999 C50.8335,104.9999 32.0005,86.1669 32.0005,62.9349 L32.0005,43.2029 C32.0005,25.4179 46.4175,10.9999 64.2035,10.9999 L69.7965,10.9999 C87.5825,10.9999 102.0005,25.4179 102.0005,43.2029 L102.0005,82.0519 C102.0005,94.7259 91.7265,104.9999 79.0525,104.9999" id="SKIN" fill="#b18058"/>
                            <path d="M53.7507501,107.331676 C44.4557924,104.043569 39.8185822,95.7386742 37.9822222,84.5680961 C45.2532122,96.6701724 58.4406226,104.813226 73.5439426,104.996733 L74.0655,104.9999 L77,104.9999 C69.0632106,109.229739 61.3134606,110.006998 53.7507501,107.331676 Z" id="SHADOW" fill="#000" opacity=".12"/>
                            <path d="M44,69.4999 C44,76.4029 38.404,81.9999 31.5,81.9999 C24.596,81.9999 19,76.4029 19,69.4999 C19,62.5969 24.596,56.9999 31.5,56.9999 C38.404,56.9999 44,62.5969 44,69.4999" id="SKIN" fill="#b18058"/>
                            <path d="M29.0669,64.1684 C29.9717309,64.1684 31.2238875,64.3770928 32.5087204,65.0195092 C34.6552998,66.0927989 36.0129325,68.055228 36.10401,70.9020045 L36.1089,71.2104 L33.1089,71.2104 C33.1089,69.3750144 32.4075866,68.3230443 31.1670796,67.7027908 C30.7064142,67.4724581 30.1975823,67.3198085 29.686239,67.2345846 C29.4346302,67.1926498 29.2384731,67.1746448 29.1249097,67.169808 L29.0669,67.1684 L29.0669,64.1684 Z" id="Stroke-17" fill="#000" fill-rule="nonzero"/>
                            <path d="M31,56.9999 L29.464,56.9999 C23.61,51.3079 21.361,39.7079 20.683,28.4489 C19.754,13.0199 46.542,-0.0001 61.999,-0.0001 L61.999,-0.0001 C73.89,-0.0001 85.025,5.8309 91.797,15.6049 L99,25.9999 L57.697,25.9999 C57.697,42.9999 43,56.9999 31,56.9999" id="Fill-19" fill="#000"/>
                        </g>
                    </g>
                </g>
                <g id="Expression" transform="translate(385.000000, 34.000000) scale(1 1)" fill="#000">
                    <g id="Expression/Laughing" stroke="none" stroke-width="1" fill="none" fill-rule="evenodd">
                        <g id="Group-20" transform="translate(7.500000, 5.500000)" fill="#000">
                            <polygon id="Stroke-1" fill-rule="nonzero" points="25.4714706 13.8830993 28.4213294 13.3369007 32.7076381 36.486 22.8344 36.486 22.8344 33.486 29.101 33.486"/>
                            <polygon id="Stroke-2" fill-rule="nonzero" points="25.4714706 13.8830993 28.4213294 13.3369007 32.7076381 36.486 22.8344 36.486 22.8344 33.486 29.101 33.486"/>
                            <g id="Group-19" transform="translate(0.000000, 0.986500)">
                                <path d="M16.8347,0.0141 L16.8347,3.0141 C12.8614229,3.0141 9.23835727,4.07954738 6.03595274,5.85838405 C4.91508362,6.48099218 3.9293314,7.14693565 3.08971515,7.8096842 L2.65302753,8.16468165 C2.44161937,8.34219833 2.28256753,8.48525254 2.17768642,8.58573303 L2.12127275,8.64084759 L0.000127251271,6.51935241 C0.850658012,5.66896184 2.39872067,4.44700326 4.57919726,3.23581595 C8.05718891,1.30389915 11.9861553,0.112129187 16.2942223,0.0198786563 L16.8347,0.0141 Z" id="Stroke-3" fill-rule="nonzero"/>
                                <path d="M28.8944,0.3579 C32.8871281,0.3579 36.5186416,1.42583258 39.717187,3.20263498 C41.5297756,4.20953386 42.8489265,5.22597949 43.6282704,5.97249887 L43.7680602,6.10923983 L41.6467398,8.23056017 L41.4403381,8.03797919 C41.2900613,7.90399677 41.0808944,7.72704819 40.815131,7.5172443 C40.087555,6.94286785 39.2326886,6.36529507 38.260363,5.82516502 C35.6146324,4.35545302 32.6384875,3.44731034 29.3845651,3.36415325 L28.8944,3.3579 L28.8944,0.3579 Z" id="Stroke-5" fill-rule="nonzero"/>
                                <path d="M4.44168496,16.942914 C6.93136311,10.7187186 17.7247131,10.6428138 19.2529395,16.9686094 L19.305271,17.2058258 L16.363529,17.7941742 C15.6883751,14.4184049 8.9493145,14.3591809 7.30999365,17.8658178 L7.22711504,18.057086 L4.44168496,16.942914 Z" id="Stroke-7" fill-rule="nonzero"/>
                                <path d="M29.441685,16.942914 C31.9313631,10.7187186 42.7247131,10.6428138 44.2529395,16.9686094 L44.305271,17.2058258 L41.363529,17.7941742 C40.6883751,14.4184049 33.9493145,14.3591809 32.3099937,17.8658178 L32.227115,18.057086 L29.441685,16.942914 Z" id="Stroke-9" fill-rule="nonzero"/>
                                <polygon id="Stroke-11" fill-rule="nonzero" points="25.4714706 12.8965993 28.4213294 12.3504007 32.7076381 35.4995 22.8344 35.4995 22.8344 32.4995 29.101 32.499"/>
                                <path d="M33.8344,50.5 L21.0034,50.5 C16.4920522,50.5 12.8344,46.8946 12.8344,42.4468 L12.8344,41.5 L33.8344,41.5 C32.3825742,43.3530787 32.3825742,47.3068471 33.8344,50.5 Z" id="Fill-15"/>
                            </g>
                        </g>
                        <polygon id="Stroke-5" fill="#000" fill-rule="nonzero" points="33.1977829 19.396766 36.1476171 18.850434 40.4350211 41.9996 30.5607 41.9996 30.5607 38.9996 36.828 38.999"/>
                    </g>
                </g>
                <g id="Accessories" transform="translate(372.000000, 56.000000) scale(1 1)" fill="#000">
                    <g id="Accessories/None" stroke="none" stroke-width="1" fill="none" fill-rule="evenodd" fill-opacity="0"/>
                </g>
                <g id="Glasses" transform="translate(364.000000, 42.000000) scale(1 1)" fill="#000">
                    <g id="Glasses/Thick" stroke="none" stroke-width="1" fill="none" fill-rule="evenodd">
                        <path d="M43.5452664,3.00012344 C49.2894512,3.02462661 55.021427,4.35163303 57.0857956,6.97405047 C58.0938547,8.25461237 58.6772219,10.0147386 58.9068842,11.9996703 L62.1143968,11.9996703 C62.3440591,10.0147386 62.9274264,8.25461237 63.9354854,6.97405047 C65.9529365,4.41123343 71.4731799,3.0856142 77.0844275,3.00401411 L77.4760146,3.00012344 L77.8967218,3.00012344 L80.8146938,3.0378718 C91.0822714,3.2070925 94.9796428,3.73089949 95.893837,5.69362755 C96.9046181,7.86372269 97.4724619,10.8486323 96.5699433,12.3975628 L96.4345265,12.6077971 C96.2607766,12.8804731 95.8187885,13.7026763 95.3317143,14.6775352 L95.2267324,14.8886255 L94.7966033,15.7746065 C94.1772527,17.0747485 93.6217104,18.3482986 93.2115536,19.4320065 L93.1438986,19.6872046 L93.1438986,19.6872046 C92.2530855,22.9637972 90.4857872,26.1972123 88.6985341,28.3365739 C85.3492115,32.34575 71.1131799,32.6082999 67.0329763,28.4576053 C64.4038322,25.7830393 62.5077693,20.7417692 62.087653,15.9998009 L58.933628,15.9998009 C58.5135117,20.7417692 56.6174488,25.7830393 53.9883048,28.4576053 C49.9081011,32.6082999 35.6720695,32.34575 32.3227469,28.3365739 C30.5354938,26.1972123 28.7681955,22.9637972 27.8773824,19.6872046 L27.8097274,19.4320065 C27.4233065,18.4110132 26.9078403,17.2215143 26.331547,16.0000268 L0,16 L0,12 L24.2628445,12.0004643 C23.6422666,10.3774347 24.1973223,7.69055104 25.127444,5.69362755 C26.0970439,3.61194627 30.4223758,3.14888604 42.1443686,3.0107703 L43.1245592,3.00012344 L43.5452664,3.00012344 Z M32.8542992,9.57832836 C31.1333273,11.9393787 30.7976239,14.9040914 31.4059083,17.8533932 L31.6334165,18.4663592 L31.5539327,18.4983688 C32.1949786,21.035914 33.5135424,23.5284501 35.226974,25.5794466 C37.0849603,27.8034767 48.7860935,28.0192764 51.3034638,25.4584151 C54.5060095,22.2005411 56.3804317,12.9591713 54.2303847,9.80770023 L54.1067801,9.63896051 L53.9809214,9.49277664 C51.015179,6.32545056 35.1904568,6.373287 32.8542992,9.57832836 Z M88.1669819,9.57832836 C85.8662205,6.42184823 70.4825425,6.32762495 67.1839305,9.35102137 L67.0403596,9.49277664 L66.9145009,9.63896051 L66.7908963,9.80770023 C64.6408493,12.9591713 66.5152715,22.2005411 69.7178172,25.4584151 C72.2351876,28.0192764 83.9363207,27.8034767 85.794307,25.5794466 C87.4069485,23.6490969 88.669811,21.3276257 89.347247,18.9456229 L89.4673483,18.4983688 L89.3878645,18.4663592 L89.6153727,17.8533932 L89.6153727,17.8533932 C90.2236571,14.9040914 89.8879537,11.9393787 88.1669819,9.57832836 Z" id="Shape" fill="#000"/>
                    </g>
                </g>
            </g>
        </g>
    </g>
</svg>
