<svg viewBox="168 97.965 1584 812.389" xmlns="http://www.w3.org/2000/svg" overflow="visible">
    <g id="Master/Background/Background" stroke="none" stroke-width="1" fill="none" fill-rule="evenodd">
        <g id="Background" transform="scale(1 1)">
            <g id="Background/Abstract" stroke="none" stroke-width="1" fill="none" fill-rule="evenodd">
                <path d="M1094.93955,314.230917 C1146.34062,329.317298 1188.70645,363.995622 1235.47768,388.915897 C1326.87547,437.331719 1408.03813,397.597719 1493,358.443596 C1459.26559,460.070738 1423.94954,561.028718 1392.91611,663.524714 C1391.01986,678.586134 1365.11023,670.791408 1354.23822,672.289101 C1304.6442,670.576354 1255.39835,660.067538 1209.45008,641.274366 C1165.66086,624.492518 1124.5496,599.830499 1078.07283,591.054592 C1067.22096,586.767924 1045.86156,592.361233 1040.13541,581.56728 C1030.28106,523.193717 989.746246,462.912515 924.176556,466.764275 C850.592174,471.174791 822.410309,559.177722 809.9931,620.481388 C806.425047,630.079107 812.098443,646.667022 800.850444,650.947929 C791.413327,655.364205 780.285221,637.526292 768.457892,635.324874 C759.246177,634.710436 768.306346,596.384844 765.993826,587.66942 C767.092057,539.476333 735.651946,497.463151 692.548521,478.273474 L691.280058,477.634219 C686.679204,475.277971 686.556311,474.596354 687.174381,468.806323 C689.047609,451.254508 686.207553,434.360333 680.327939,417.864584 L680.22903,417.578284 C679.380805,415.212234 677.62256,412.195807 680.945634,411.028957 C725.764026,392.80222 765.167994,363.627919 810.420883,346.308438 C899.439013,310.43196 1000.58469,283.902624 1094.93955,314.230917 Z M1021.82728,548.116685 C1025.62743,559.8292 1029.26345,571.731124 1032,583.747461 C1032.13924,589.90081 1021.62667,585.794411 1017.62494,586.922204 C975.142715,587.945199 933.012764,597.021388 893.618461,613.018173 C885.568934,613.988287 808.516745,653.261076 815.439376,640.424613 C823.239335,582.183164 847.12011,493.633586 911.180366,476.790716 C960.473878,466.53866 1007.58751,501.635824 1021.82728,548.116685 Z M1297.21804,522.809441 C1301.24665,525.676985 1303.25301,522.88161 1305,519.528986 C1303.83931,509.652904 1292.28811,518.354197 1297.21804,522.809441 Z M1330.65558,509 C1334.34047,508.982782 1334.88358,508.030034 1337,505.898788 C1333.90075,499.789153 1323.04421,504.561498 1330.65558,509 Z M1216,494.080206 C1216.26416,501.525606 1235.96651,492.566689 1222.00166,491.015713 C1219.66076,490.864093 1216.69506,491.804133 1216,494.080206 Z M1352.03947,483 C1346.74161,483.478641 1349.33536,487.424272 1352.53087,490 C1356.48658,487.31165 1357.9655,483.335922 1352.03947,483 Z M1294,484.787642 C1295.56903,488.841139 1298.16174,486.330148 1302,485.045347 C1299.03353,481.758451 1294.72387,480.382476 1294,484.787642 Z M1256,481.019726 L1256.24835,481.31885 C1258.75885,484.25705 1262.044,485.558519 1262.99492,481.113926 C1263.16975,475.661843 1258.78918,478.520534 1256,481.019726 Z M1320.00236,469.962591 C1319.82964,474.925174 1329.19653,473.095638 1328.99685,469.539181 C1328.24407,466.0271 1319.97041,466.14913 1320.00236,469.962591 Z M1364.02577,456 C1359.00482,456.006967 1357.16123,460.64724 1361.21915,462.882772 C1367.67864,463.989589 1368.88545,456.917703 1364.02577,456 Z M1287,454.693875 C1288.06857,459.780841 1292.0272,458.377439 1295,454.656815 L1294.61428,454.241513 C1291.4847,450.961828 1287.36973,448.803918 1287,454.693875 Z M1192.15843,447 C1186.45929,447.558454 1187.06188,452.026087 1191.28367,455 L1191.64211,454.837754 C1196.29547,452.660792 1198.29392,448.904443 1192.15843,447 Z M1327.03291,445 C1319.48542,446.854205 1327.90172,456.520422 1332.01629,453.375858 C1335.2187,449.537713 1329.8147,446.914083 1327.03291,445 Z M1217.50503,447.000189 C1214.54683,449.309357 1216.19737,454.391891 1220.2962,453.975932 C1225.34016,452.456814 1222.70225,446.962871 1217.50503,447.000189 Z M1257.57501,445.035185 C1253.90524,447.507204 1257.3217,452.618148 1260.96107,451.938317 C1265.02968,449.544661 1262.54817,444.532436 1257.57501,445.035185 Z M1393.85754,441.000902 C1390.02266,443.032001 1393.02917,445.120807 1394.83183,448 C1397.86325,445.077526 1397.87392,440.929798 1393.85754,441.000902 Z M1357.01534,437.957086 C1360.57336,436.293427 1361.78964,431.542182 1355.89494,431.003818 C1350.26469,430.802319 1350.82489,438.646316 1357.01534,437.957086 Z M1280.9858,424.006707 L1280.80876,424.023911 C1275.41171,424.417483 1278.75274,432.544006 1282.80372,431.971086 C1286.82242,430.952506 1284.79457,423.7498 1280.9858,424.006707 L1280.9858,424.006707 Z M1308.3857,422.955593 C1314.11546,423.599053 1314.48981,417.0365 1309.61628,417.063195 C1304.46895,416.396722 1305.53127,421.181706 1308.3857,422.955593 Z M1335.0497,421.26892 C1337.814,424.525549 1339.79084,422.666323 1343,419.96792 C1339.50244,417.218102 1334.44428,417.08589 1335.0497,421.26892 Z M1222.07777,417.448849 C1221.30948,422.298431 1226.42487,423.408952 1228.98355,420.119607 C1229.33511,414.876295 1223.95605,413.104968 1222.07777,417.448849 Z M1191,417.878717 C1191.78921,423.173621 1196.34977,420.780751 1200,417.682647 L1199.23934,417.28745 C1195.52192,415.314177 1192.17699,413.061318 1191,417.878717 Z M1380.00343,414.846687 C1379.86093,418.367204 1384.1921,419.017744 1386,416.404462 C1385.77959,411.108396 1380.83091,410.587593 1380.00343,414.846687 Z M1256.84619,409 C1253.31678,412.125039 1252.86719,414.04492 1256.64523,415.980749 C1261.90196,416.337612 1260.20361,411.647561 1256.84619,409 Z M1221,394.602114 C1221.27337,398.570289 1226.06259,399.002417 1228,396.214591 C1227.84569,391.427173 1222.05157,390.482893 1221,394.602114 Z M1184.52534,377.095709 C1181.83926,379.196764 1182.83048,383.318328 1186.48066,382.98043 C1190.89325,382.675929 1189.04374,376.138006 1184.52534,377.095709 Z" id="Shape" fill="#F55B80"/>
                <path d="M1543,337 C1523.20644,398.323931 1499.87831,456.776565 1478.18049,517.223209 C1461.23182,563.258777 1445.65291,609.752143 1431.9457,656.848884 C1428.76267,670.501432 1412.99602,666.323781 1402.66437,669.847297 C1399.38076,670.4047 1398.40565,669.49485 1399.33383,666.143726 C1418.09576,601.497404 1439.80316,537.77434 1461.5211,474.078093 C1474.29438,436.588417 1486.87226,399.031699 1499.31508,361.430926 C1503.73089,348.542652 1530.53324,342.833579 1543,337 Z M1592.72705,322.988027 C1586.65214,345.001153 1581.01847,367.150613 1574.27262,388.954438 C1548.67608,471.705281 1522.00946,554.12009 1495.027,636.424488 C1487.90977,651.92143 1453.90484,656.864974 1437,663 C1466.72052,553.594548 1513.64225,450.222607 1547.48518,342.197788 L1548.67416,338.383198 C1551.50057,328.826383 1564.43906,329.543576 1571.99369,324.965829 C1576.78509,324.446416 1595.46732,313.198868 1592.72705,322.988027 Z M1630.77376,313.722423 C1625.37486,333.099508 1620.38029,352.60592 1614.31359,371.773207 C1589.52753,448.416489 1571.00266,526.703666 1552.07634,604.920911 C1550.33355,614.645378 1510.0186,634.8492 1501,638 C1534.30768,535.041417 1569.97137,432.697973 1597.67923,328.037756 L1599.01369,322.971731 C1600.30041,317.95191 1602.45039,315.333748 1607.97384,314.766623 C1612.93776,315.717898 1633.36542,304.363906 1630.77376,313.722423 Z M1714.43302,311.083821 C1724.46439,316.742417 1744.65285,316.902557 1742.89187,332.173383 C1742.41108,393.621079 1734.61284,454.550956 1733.40271,515.947829 C1730.88743,524.1188 1737.4832,558.333122 1724.1621,553.968111 L1720.8432,553.454102 C1702.76848,550.677472 1683.17921,548.173718 1665.37858,553.238922 L1664.5583,553.478102 C1626.28112,564.608305 1593.34159,584.869359 1559,605 C1579.94756,506.394093 1609.67988,410.219052 1637.41035,313.408247 C1638.60513,309.038441 1640.43137,307.240463 1645.13085,306.376475 C1668.22517,302.618461 1692.34154,302.716271 1714.43302,311.083821 Z" id="Shape" fill="#EBBF5E"/>
                <path d="M689.325493,487.259127 C733.484728,506.557196 759.191102,551.37858 756.853114,599.298137 C754.500752,605.927995 759.549466,634.951204 748.563795,630.278898 C707.374955,619.346665 672.291714,654.483371 654.713683,688.251138 C646.440653,705.231358 615.04741,696.314479 598.858757,698.937714 C596.119286,698.483007 595.399684,697.177651 596.481483,694.582354 L603.505144,681.392596 C623.155882,644.451124 642.555287,607.365598 658.653768,568.654553 C669.048596,543.772546 678.022045,518.4315 682.811235,491.771603 L683.167778,489.762989 C683.97206,485.52316 685.139185,485.136541 689.325493,487.259127 Z M522.035288,405 C550.972786,459.299858 620.482109,456.750591 671.061049,478.657 C695.713074,483.149662 597.305614,696.591925 579.316999,697 C560.665979,694.287504 541.920878,692.158794 523.62026,687.443371 C512.697298,687.031456 519.58247,664.916688 517.771896,656.136841 C518.077179,611.65286 512.245135,559.695831 475.791741,528.766651 L474.926268,528.001129 C471.101584,524.585639 471.317525,524.134606 473.894766,518.905646 C493.098751,482.292226 507.794541,443.52225 522.035288,405 Z M739.321372,636.266165 C763.200474,636.554371 748.727795,654.642658 747.919852,669.75345 C722.543311,683.803031 690.212104,688.525034 661,694 C674.749478,664.690753 703.571574,632.751384 739.321372,636.266165 Z M469.739316,534.526904 C488.748984,550.663759 499.303818,572.323479 504.218103,596.381363 L504.37303,597.149978 C508.289545,616.443213 509.742553,635.951223 509.524171,656.146902 C507.818298,661.859171 514.57091,688.046425 503.287823,682.137679 C480.403653,674.297876 458.760815,663.149753 437.114145,652.391695 C431.049246,646.892275 405.869189,645.049825 413.389012,634.233979 C428.917145,604.88769 444.516157,575.583778 460.075898,546.257715 C463.015439,543.080379 464.311366,531.399651 469.739316,534.526904 Z M784.616181,655.583762 C788.20782,660.555585 765.509967,664.688787 761.607845,667.525412 C758.639089,668.630691 757.844674,667.857769 758.023873,664.654006 L758.272377,662.875935 C762.257751,634.592941 762.808035,643.265505 784.616181,655.583762 Z M373.879331,487 L374.706579,487.23597 C389.68739,491.576785 475.457468,519.519605 456.196938,535.265737 C446.555585,553.541993 436.849452,571.783177 427.12575,590.0147 L404.7628,631.915253 C402.83164,635.476927 402.418489,635.527973 398.491438,634.200815 L397.775703,633.957763 C380.83529,628.194923 363.861782,622.52931 346.940279,616.710308 L338.484255,613.786864 C327.065097,609.816743 329.482144,610.240606 332.543226,601.486202 C346.805912,563.699091 357.98164,523.649777 373.879331,487 Z M244.711807,434.771226 C275.379562,463.775515 318.698831,469.225869 357.262763,482.003795 C377.724221,476.709795 325.415516,589.364843 323.150431,603.355237 L322.816354,604.247625 C321.312251,608.200649 320.857733,608.144885 315.903885,606.8219 C279.207402,595.982582 232.959044,597.847328 204.468224,625.906774 C174.925347,651.721617 185.261953,571.731286 180.039993,557.394609 L180.463499,557.361036 L180.463499,557.361036 C181.094925,542.127478 174.261344,524.959149 180.978988,510.823911 C197.263758,484.335961 216.7289,460.060842 237.434341,436.930048 L239.075731,435.099035 C241.583993,432.324417 242.244959,432.388862 244.711807,434.771226 Z M377.884042,339 C425.558902,347.193755 464.895789,374.853793 507.231519,396.11235 L509.448336,397.222991 C513.439137,399.245873 513.564925,399.705507 512.259918,404.493952 L512.187331,404.759469 C501.877611,442.522475 484.349459,477.573195 467.793921,512.835812 L467.593666,513.317037 C466.225219,516.544305 464.175191,520.033077 460.640649,516.555574 C437.646415,500.94803 412.322794,490.433941 386.102983,481.840024 L384.769007,481.404685 C374.220685,477.9758 374.963322,479.084408 377.893624,468.176508 C386.0588,427.486428 405.133554,375.69774 377.884042,339 Z M232.013225,351 C223.082762,373.566304 219.508283,400.220086 234.040356,421.281136 L234.623303,422.192744 C236.711011,425.499333 236.48895,425.871592 233.512785,429.169285 L229.049961,434.263102 C211.216647,454.685396 193.692414,475.717567 179.834435,499 L178.431404,498.173265 L178.431404,498.173265 C177.761428,461.857559 176.882145,425.5842 177.013081,389.230959 C178.353989,365.64832 213.710746,357.332848 232.013225,351 Z M383.964519,384.791657 C383.813382,396.192418 374.819265,480.472709 363.187465,474.718633 C326.427395,461.808638 284.703859,457.494759 254.03164,431.772571 L252.614384,430.538376 C247.491745,426.02956 247.88948,425.519195 253.329862,419.973887 L255.102856,418.288744 C285.519023,389.306198 386.163596,290.640838 383.964519,384.791657 Z M536,410 C575.709873,425.464882 620.198152,429.9294 661.472321,418.237949 C665.443597,417.201802 669.620498,414.249943 671.085825,419.892692 C674.706383,426.514561 685.955288,474.649006 672.734678,470.778919 C629.46286,450.163265 563.854659,453.314235 536,410 Z M359,335.424528 C313.320904,349.216901 278.743101,384.068049 245.320781,416.374943 L244.988406,416.665126 C242.727703,418.600121 241.817627,418.505533 240.130325,415.893807 L240.008452,415.702968 C227.070904,395.988146 231.430924,370.557191 241.618424,350.650514 C267.323087,331.81302 326.852562,332.809897 359,335.424528 Z" id="Shape" fill="#60D6E1"/>
                <path d="M1345.97473,236.810308 C1346.13596,227.135805 1332.37249,230.755593 1333.02231,238.823268 C1333.65161,247.984518 1346.648,246.658069 1345.97473,236.810308 M1354.14246,151.992336 C1366.36051,151.998058 1362.85163,137.564561 1353.67455,137 C1345.717,137.758152 1343.70939,152.382379 1354.14246,151.992336 M1358.03844,210.085009 C1357.19171,221.749744 1370.5992,219.391316 1372,210.331328 C1371.70071,201.303427 1358.16251,197.418013 1358.03844,210.085009 M1316.53904,204 C1310.64381,204.252529 1306.83242,207.291686 1306.00172,212.401972 C1305.73805,232.755025 1335.83413,205.996741 1316.53904,204 M1284,176.523407 C1284.2852,186.964605 1294.61483,182.834636 1298.67581,177.659663 C1305.31896,167.870979 1284.84984,157.775171 1284,176.523407 M1390,175.960089 C1389.05194,166.331134 1373.38055,164.637508 1372,175.332072 C1372.0916,187.016268 1387.95562,186.552708 1390,175.960089 M1337.2347,167.032071 C1324.03427,166.996926 1325.36962,184.142965 1338.7884,182.939484 C1350.21023,183.512254 1346.83034,166.156294 1337.2347,167.032071 M1307.16419,140.959942 C1318.7918,128.659059 1338.80542,103.646912 1356.81556,116.643532 C1382.49816,136.022028 1397.08735,165.484405 1419.29625,188.177431 C1423.91699,192.763182 1422.67117,204.048615 1415.12626,203.921684 C1409.52824,204.073429 1405.72175,208.046474 1409.30958,213.108456 C1410.93902,215.639447 1410.73858,217.020421 1408.4963,218.658121 C1405.38512,220.859854 1403.29821,225.116347 1398.76474,223.220013 C1390.06321,220.263373 1383.60012,226.133706 1385.74074,235.0523 C1383.29514,245.746024 1370.10043,252.125991 1363.59418,261.071308 C1351.15712,275.329605 1337.17981,292.04159 1320.90077,271.174276 C1317.54023,267.310029 1317.61792,267.243223 1320.15462,262.487594 C1325.35559,254.532914 1315.82064,248.267471 1309.64815,253.297959 C1304.55843,258.774138 1295.13569,242.280704 1290.04405,239.643778 C1284.18037,235.839656 1290.06707,232.086116 1290.86213,226.998366 C1292.96534,221.576587 1285.82899,216.77992 1281.32622,220.106856 C1277.75852,221.944974 1276.73041,229.044537 1272.4674,223.977783 C1268.18233,217.934708 1242.66277,204.980081 1249.00789,198.351976 C1267.9138,178.530652 1286.87532,158.460237 1307.59768,140.525704 C1299.53968,147.465887 1314.75129,157.582216 1318.60383,148.129175 C1320.78472,141.689081 1312.87729,136.558385 1307.16419,140.959942" id="Fill-18" fill="#52DC82"/>
                <path d="M1102.12225,775.24104 C1114.32003,808.452799 1116.53842,844.454755 1119,879.476604 L1118.96362,879.897754 C1118.65148,883.144395 1117.80466,883.474675 1114.36982,882.699004 C1104.93425,881.46646 1095.4824,885.468165 1086.21342,887 C1050.90687,878.314819 1018.97624,859.309351 984,846.589954 C1021.63888,823.353293 1061.07201,803.565651 1093.87869,773.436687 L1095.25796,772.228681 C1099.44094,768.62033 1099.68252,769.234354 1102.12225,775.24104 Z M1085.23731,736 C1087.6898,744.872845 1096.46851,753.279756 1093.33073,762.079888 C1072.45298,782.027046 1048.35334,798.438078 1023.54452,813.177678 C1006.37705,820.72639 989.240161,838.767714 970.79961,840 C965.633694,836.011334 931.500419,826.269765 936.49812,820.478593 C950.934967,810.299792 989.371101,842.005336 982.803076,791.704513 C980.412705,779.129068 991.144047,784.913543 997.018185,789.050505 C1017.88829,799.746904 1039.53066,790.429173 1033.08593,764.646833 C1033.13181,758.627955 1038.69245,763.869956 1040.89263,765.68203 C1055.17177,776.631966 1075.13199,762.139206 1079.51991,747.056135 L1079.7881,746.108699 C1080.75589,742.608896 1081.63733,738.85907 1085.23731,736 Z M1062.87963,700.116109 L1064.421,700 L1064.421,700 L1064.71272,700.409869 C1069.65913,707.255672 1083.32607,721.419603 1079.25201,729.076249 C1070.15975,739.285227 1071.32702,756.290913 1056.09608,760.778871 C1044.17558,766.943216 1022.30939,730.055022 1024.79222,775.727216 C1019.13958,810.132016 965.296913,740.531722 975.23018,803.681716 C972.488055,828.132788 940.276218,798.420336 929.211084,816.266615 C926.290041,819.52631 923.666556,819.762367 920.160923,817.549574 C915.901348,814.764871 908.696812,814.265889 908.641319,807.956647 C905.884842,793.429558 912.065626,786.17321 926.189579,793.351832 C987.712302,810.845944 933.17023,739.407093 971.361927,749.300369 C982.287372,758.897133 1013.6936,770.620329 1014.194,747.041516 C1013.67638,737.816109 1009.50579,728.311464 1011.92548,719.133076 C1017.76948,700.194795 1053.30516,774.227392 1062.87963,700.116109 Z M1035.43993,669.240743 L1037.66798,670.68317 C1045.88107,676.037572 1056.44939,683.558529 1057,693.017425 C1051.15586,701.551097 1056.90158,728.630734 1040.63047,723.486206 C1034.63249,720.335518 1030.21976,714.919974 1025.48501,710.240867 C1012.8297,699.246019 999.553292,715.506059 1003.39938,728.78779 L1003.79338,730.438504 C1007.92231,748.027143 1008.06523,758.918097 986.156482,748.190857 C973.867154,737.060979 953.409785,733.913164 948.75339,753.939665 C943.323,765.077204 960.317456,789.290577 939.796065,787.493057 L935.818129,786.29145 C920.107535,781.602981 899.817804,776.815461 900.202853,801.168384 C903.058992,814.654095 881.151098,795.687719 875.286888,795.131321 C868.41075,790.748129 847.302652,792.936373 857.944612,780.511745 C906.258173,737.741873 965.630314,709.086892 1019.69342,674.274183 C1024.48359,672.283216 1030.17198,667.933543 1035.43993,669.240743 Z" id="Shape" fill="#67C3CC"/>
                <path d="M605.885099,247.548351 C607.320814,255.523213 594.917969,252.273947 590.103764,254 L590.077834,253.745493 L590.077834,253.745493 C576.151884,256.08772 580.947842,233.388784 577.166967,224.607347 C575.349036,216.39807 588.862039,217.135757 594.102637,214.200319 C602.40001,211.272535 602.70732,241.307196 605.885099,247.548351 Z M566.517435,224 C571.386898,230.219041 570.211211,239.431189 572.764957,246.854579 C573.521444,249.184732 572.420924,250.661182 569.90958,249.704622 L569.206239,249.362639 C561.511603,245.587944 551.487444,239.542767 550,231.286872 C555.367684,228.79589 560.815354,226.475087 566.517435,224 Z M626.123024,209.839742 C627.490288,219.96747 628.701543,230.115271 629.972877,240.255425 L629.987892,240.745617 C630.089137,244.612736 629.628253,245.201238 625.790655,246.64117 L625.474798,246.730648 C621.103405,248.020428 614.554061,251.944146 613.679074,244.975199 C613.675198,238.072362 601.152758,209.726956 610.410623,209.390512 C615.094789,208.735785 625.431155,201.828169 626.123024,209.839742 Z M662.858382,203.808236 C661.028612,217.264076 655.236583,229.755713 642.911584,238.623705 L642.574276,238.863113 C639.849236,240.767865 639.243875,240.402376 638.751356,236.826217 C639.504791,228.668237 629.244048,203.257809 639.7979,201.722156 C646.967061,201.732667 664.76215,189.813436 662.858382,203.808236 Z M566.835938,208.079485 C568.69812,219.305513 554.244041,218.565388 546.986158,223.249664 C539.036222,227.293135 538.674773,213.898302 536,209.180601 C535.973067,201.572114 555.686943,201.005799 561.79783,197.202033 C567.650402,195.526962 565.594483,204.720749 566.835938,208.079485 Z M596,202.529601 C595.389859,208.96963 584.537519,207.967806 579.863572,210.869842 C572.9781,212.331395 576.24264,201.087203 575.010003,197.027226 C574.629853,190.363078 585.184725,191.458764 589.621079,189.193644 C596.519855,187.415069 594.448987,198.365227 596,202.529601 Z M624.592901,190.378414 L624.560141,190.3803 L624.560141,190.3803 C627.477775,199.959116 615.156842,198.93901 608.926518,201.548671 C603.301304,205.190696 600.682371,185.60032 605.572395,185.398561 L606.068791,185.300911 C614.268554,183.593861 626.844066,176.571965 624.592901,190.378414 Z M563.692551,170.655621 C569.27985,194.165121 556.256093,188.42152 538.011179,196 C537.427489,188.935061 559.878659,162.133462 563.692551,170.655621 Z M656.248918,177.596959 L656.908744,178.586115 C661.949384,186.217949 661.236222,187.207776 651.707041,189.607108 C643.771245,190.832536 630.212858,198.862417 632.195606,184.821287 L632.162257,183.476189 C632.072154,178.314773 632.69277,177.937961 638.440687,176.594768 C644.478271,176.111246 652.535108,170.424878 656.248918,177.596959 Z M591.927841,175.543475 C592.963694,182.906764 582.580016,181.551881 577.934635,183.958115 C570.395443,184.813176 573.507838,172.346333 572,167.596102 C573.326008,162.293385 581.229828,161.872078 585.376142,159.102946 C592.402727,157.681036 589.821316,171.388818 591.927841,175.543475 Z M621.544977,164.991554 C624.673063,175.298154 610.875045,172.82577 604.522255,175.931714 C596.407406,177.088243 599.489575,163.239891 597.093289,158.194839 C596.04581,152.248183 604.089871,154.688702 607.666604,154.224778 L607.668517,154.247272 L608.54577,154.161604 C617.201867,153.387218 622.338339,155.143495 621.544977,164.991554 Z M630.338941,160 C635.800615,160.442256 640.260328,163.28234 645,165.549129 L644.433204,166.952337 L644.433204,166.952337 L642.803936,167.364733 C634.441891,169.520823 628.487571,171.436594 630.338941,160 Z" id="Shape" fill="#EBBF5E"/>
            </g>
        </g>
    </g>
</svg>
