<svg viewBox="42.308 184.975 766.827 726.688" xmlns="http://www.w3.org/2000/svg" overflow="visible">
    <g id="Master/Comps/Desk" stroke="none" stroke-width="1" fill="none" fill-rule="evenodd">
        <g id="Blob" opacity=".288" transform="translate(8.500000, 153.891534) scale(1.5086372360844529 1.5089820359281436)">
            <g id="Blob/2" stroke="none" stroke-width="1" fill="none" fill-rule="evenodd">
                <path d="M380.215525,29.8169037 C429.018165,42.4852284 468.102531,91.1527091 476.553205,143.515118 C485.003878,195.877527 462.926493,252.040433 433.349135,294.162612 C403.771778,336.284792 366.694447,364.577384 329.088949,395.403641 C291.377817,426.229898 253.032885,459.800958 207.082347,470.463465 C161.026175,481.125971 107.153131,468.985493 86.8715137,432.45849 C66.6955302,395.931488 79.8997079,335.01796 73.3504357,287.195034 C66.8011636,239.266539 40.2871749,204.428646 42.5054767,172.863403 C44.6181451,141.40373 75.3574707,113.322277 108.843265,95.6921922 C142.32906,78.0621069 178.561323,70.8833896 225.885096,55.6814 C273.208869,40.4794103 331.518517,17.148579 380.215525,29.8169037 Z" id="blobs-burgers" fill="#E6D3FF"/>
            </g>
        </g>
        <g id="Chair" transform="translate(35.000000, 285.000000) scale(1 1)">
            <g id="Chair/Stool" stroke="none" stroke-width="1" fill="none" fill-rule="evenodd">
                <g id="Group-13" transform="translate(143.000000, 286.000000)">
                    <path d="M27,336 L12,336 C5.4,336 0,330.343 0,323.429 L60,62.571 C60,55.657 65.4,50 72,50 L87,50 C93.6,50 99,55.657 99,62.571 L39,323.429 C39,330.343 33.6,336 27,336" id="Fill-1" fill="#DBAE84"/>
                    <path d="M130.5,336 L115.5,336 C108.9,336 103.5,330.343 103.5,323.429 L103.5,62.571 C103.5,55.657 108.9,50 115.5,50 L130.5,50 C137.1,50 142.5,55.657 142.5,62.571 L142.5,323.429 C142.5,330.343 137.1,336 130.5,336" id="Fill-3" fill="#C99F79"/>
                    <path d="M234,336 L219,336 C212.4,336 207,330.343 207,323.429 L147,62.571 C147,55.657 152.4,50 159,50 L174,50 C180.6,50 186,55.657 186,62.571 L246,323.429 C246,330.343 240.6,336 234,336" id="Fill-5" fill="#DBAE84"/>
                    <g id="Group-9" fill="#55B0EB">
                        <path d="M218.2568,70 L27.7428,70 C12.4848,70 -0.0002,57.516 -0.0002,42.257 L-0.0002,27.743 C-0.0002,12.484 12.4848,0 27.7428,0 L218.2568,0 C233.5158,0 245.9998,12.484 245.9998,27.743 L245.9998,42.257 C245.9998,57.516 233.5158,70 218.2568,70" id="Fill-7"/>
                    </g>
                    <g id="Group-12" transform="translate(0.000000, 188.000000)" fill="#55B0EB">
                        <path d="M230.9443,31 L15.0553,31 C6.7753,31 0.0003,24.225 0.0003,15.944 C0.0003,7.664 6.7753,0.889 15.0553,0.889 L230.9443,0.889 C239.2253,0.889 246.0003,7.664 246.0003,15.944 C246.0003,24.225 239.2253,31 230.9443,31" id="Fill-10"/>
                    </g>
                </g>
            </g>
        </g>
        <g transform="translate(-111.000000, 211.000000) scale(1 1)" id="Master/Character/Sitting">
            <g id="Master/Character/Sitting" stroke="none" stroke-width="1" fill="none" fill-rule="evenodd">
                <g id="Legs Sitting" transform="translate(317.000000, 266.000000) scale(1 1)">
                    <g id="Legs Sitting/Pants Straight" stroke="none" stroke-width="1" fill="none" fill-rule="evenodd">
                        <g id="Group-23" transform="translate(0.000000, -1.000000)">
                            <path d="M380.369475,419 L317.911273,417.384757 C314.549122,417.267931 311.903002,414.055711 312.012004,410.391165 L312.71206,388.01746 C313.37453,366.648261 313.943032,343.243091 314.189227,322.070599 C314.508716,270.279672 314.713564,218.348952 308.065376,167.548551 C306.060113,146.406014 350.76319,147.473426 362.630323,142.304119 C389.066151,138.17726 382.502534,177.119308 385.917306,194.325703 C389.017288,237.220868 389.274759,280.371653 388.831233,323.065119 C388.652695,338.117718 388.35012,353.144356 387.961096,368.141039 C387.579588,383.115755 387.076863,398.161364 386.623001,412.894439 C386.517758,416.410207 383.726928,419.09621 380.369475,419" id="Fill-1" fill="#edb98a"/>
                            <g id="Group-5" transform="translate(133.000000, 0.000000)" fill="#051026">
                                <path d="M61.6608997,0.7852 L0.879228374,86.9101 C0.100058824,89.8051 2.37030104,92.7951 5.83732526,93.6091 C17.8910969,96.4811 30.0224118,99.6111 42.0659066,102.9161 C82.2576021,114.7431 124.300993,125.8271 160.297879,147.8991 C174.186529,217.9691 169.615215,292.0011 168.907048,363.7641 L269.091062,366.6711 C270.28691,297.2471 271.435111,227.8391 263.025872,158.5291 C255.043588,90.6491 235.45691,64.8831 176.64082,38.9671 C144.711062,24.9291 106.384422,12.2018 61.6608997,0.7852 Z" id="Fill-3"/>
                            </g>
                            <polygon id="Fill-6" fill="#FFF" points="387.127049 405 313 402.352922 313.863614 374 388 376.320522"/>
                            <g id="Group-10" transform="translate(312.000000, 385.000000)" fill="#0A1B45">
                                <path d="M75.609853,3.2549 C70.4998957,3.0779 52.0714427,2.4399 34.8895026,1.8439 C35.5174171,17.8009 3.60929744,16.6369 5.18746838,0.8159 C2.93759658,0.7369 1.63984444,0.6919 1.63984444,0.6919 C1.33520342,11.6849 0.717536752,27.1359 0.612263248,37.9999 L108.029434,37.9999 L108.104896,33.9409 C113.28752,17.7909 81.0961863,18.8119 75.609853,3.2549" id="Fill-8"/>
                            </g>
                            <path d="M102.1875,100 L92.8125,100 C41.55375,100 -4.00177669e-11,55.676 -4.00177669e-11,1 L195,1 C195,55.676 153.44625,100 102.1875,100" id="Fill-11" fill="#0A1B45"/>
                            <path d="M329.234818,419 L267.027592,417.257223 C263.679736,417.150393 261.048809,413.905575 261.164866,410.254406 C263.285705,346.699902 265.155712,282.021194 261.855589,218.851076 C256.195026,150.964491 252.955739,167.30839 313.117938,153.329714 C321.983158,151.479668 330.834339,157.593904 332.039829,167.185586 C334.034316,183.123134 335.216408,198.706248 336.079344,214.205495 C339.034106,270.400752 338.102846,326.472206 336.461208,382.490744 L335.474727,412.906171 C335.363351,416.428546 332.579866,419.094289 329.234818,419" id="Fill-13" fill="#edb98a"/>
                            <path d="M105.631483,1 C105.631483,1 93.8910185,99.4425457 97.7952447,100.072003 C97.7952447,100.072003 164.534613,101.105299 210.86642,138.329406 C257.198227,175.553512 251.819491,293.661699 250.946694,363.942778 L351.149248,367 C351.673487,286.400422 356.130921,203.321042 337.812456,123.935346 C330.164733,92.4094342 310.652947,72.3408488 284.573688,57.1968425 C249.27866,37.0195114 189.631259,18.2872306 105.631483,1 Z" id="Fill-15" fill="#0A1B45"/>
                            <polygon id="Fill-17" fill="#FFF" points="335.018261 407 261 404.236269 261.971483 374 336 376.430229"/>
                            <path d="M336.290772,388.661166 C331.164659,388.477091 312.679813,387.815016 295.443552,387.196485 C296.050087,402.984353 264.044827,401.775002 265.649482,386.127665 C263.393432,386.046513 262.090642,386 262.090642,386 C261.770085,396.914837 261.116821,412.211838 261,423 L368.756775,423 C368.795092,420.786156 368.921259,415.993286 368.997894,413.748763 C369.285741,404.844893 339.976713,401.35737 336.290772,388.661166" id="Fill-19" fill="#0A1B45"/>
                        </g>
                        <path d="M63.3490184,-2 L63.4582674,-1.99438249 C63.9724926,-1.93607996 64.3451244,-1.44336436 64.2905639,-0.893871395 C61.2285646,29.9443025 74.9191481,46.4466139 105.71187,48.9673404 L120.990046,50.2103795 C131.951397,51.126246 137.116072,51.6601875 144.790771,52.6413539 C158.55778,54.4013876 170.799033,56.7446959 182.470762,60.0371156 C212.35204,68.4661756 237.559754,82.9700184 259.17948,106.133833 C290.772152,139.982864 303.974906,226.237074 298.967919,365.03729 C298.948001,365.589458 298.512963,366.019823 297.996235,366 C297.479507,365.977254 297.076764,365.512379 297.096682,364.960212 C302.083904,226.707928 288.942811,140.856554 257.85358,107.54692 C236.482479,84.649487 211.568865,70.3148614 181.992799,61.9718972 C170.812125,58.8179968 159.092595,56.5396081 145.978748,54.8113271 L142.309819,54.343642 C135.085371,53.4480021 129.515959,52.9135752 117.312982,51.9133511 L105.568833,50.9625539 C73.7488094,48.3577314 59.252143,30.8837864 62.4283899,-1.10500353 C62.4790532,-1.615247 62.8802462,-1.99502898 63.3490184,-2 Z" id="Path-6" fill="#FFF" fill-rule="nonzero"/>
                    </g>
                </g>
                <g id="Body" transform="translate(41.000000, -31.000000) scale(1 1)">
                    <g id="Body/Bomber Jacket Grab Up" stroke="none" stroke-width="1" fill="none" fill-rule="evenodd">
                        <g id="Group-42" transform="translate(200.000000, 40.000000)">
                            <path d="M561.059,18.5175 C568.577,17.2505 574.489,17.9875 579.182,19.7995 C583.87,21.6015 587.293,24.4135 589.671,27.0285 C594.437,32.2385 588.286,41.3055 580.731,39.1175 C573.169,36.8845 565.387,28.8265 547.608,34.4445 C543.174,35.8665 540.841,35.6795 540.108,34.6405 C539.374,33.6005 540.249,31.7275 542.095,29.5335 C545.809,25.1725 553.567,19.8195 561.059,18.5175" id="SKIN-DARKER" fill="#d29863"/>
                            <path d="M537.4682,40.8603 L537.4682,40.8603 C532.6142,33.1493 525.1032,28.1023 516.9842,26.1163 C512.9222,25.1243 508.7042,24.9003 504.5632,25.5083 C500.4232,26.1223 496.2912,27.3963 492.4892,29.6603 C484.9522,34.0723 477.4642,38.6143 469.8182,42.7233 C439.6952,59.5613 408.9162,74.6583 377.4982,86.7493 C369.6832,89.9633 361.7342,92.4793 353.8322,95.2233 C349.8912,96.6663 345.8932,97.7433 341.9122,98.9223 L329.9642,102.4143 L317.9472,105.3243 L311.9432,106.7913 C309.9342,107.2083 307.9202,107.5603 305.9092,107.9513 L293.8462,110.2593 C289.8162,110.8743 285.7792,111.3723 281.7472,111.9443 C279.8872,112.2023 278.1002,112.6823 276.3922,113.3643 C275.5382,113.7253 274.7012,114.0643 273.8862,114.4463 C273.0712,114.8353 272.2762,115.2713 271.5022,115.7533 C268.4102,117.6803 265.6602,120.3343 263.3572,123.5223 C261.0552,126.6943 259.2022,130.4733 257.9592,134.4613 C256.7172,138.4423 256.0892,142.8013 256.3002,147.3523 C256.5112,151.9043 257.5522,156.2163 259.3272,160.1143 C261.1002,164.0063 263.5942,167.3133 266.6732,170.0733 C269.7482,172.8173 273.4032,174.9393 277.4222,176.2773 C278.4272,176.6123 279.4542,176.8973 280.5002,177.1313 C281.5472,177.3713 282.6132,177.5543 283.6782,177.6123 C285.8172,177.7663 288.0132,177.7003 290.2322,177.3973 C295.0362,176.7243 299.8592,176.1103 304.6472,175.3703 L318.8842,172.6633 C321.2532,172.2003 323.6342,171.7713 325.9922,171.2783 L332.9962,169.5853 L346.9982,166.1773 C351.5992,164.8813 356.1682,163.5113 360.7532,162.1753 C365.3292,160.8203 369.9472,159.5483 374.3992,157.9373 C383.3642,154.8453 392.4292,151.9273 401.1392,148.3703 C436.3652,134.8073 469.8222,118.3233 502.0042,100.3423 C510.2112,95.9193 518.1232,91.1323 526.1182,86.4483 C530.1472,84.0513 533.5722,81.0483 536.1332,77.4853 C538.6982,73.9263 540.5212,69.9503 541.5312,65.8073 C543.5592,57.5173 542.3222,48.5723 537.4682,40.8603" id="Fill-3" fill="#d29863"/>
                            <path d="M523.4575,88.0146 C518.5615,90.8956 511.4055,80.1736 504.9765,66.9196 C498.5495,53.6626 492.7575,37.9266 490.8145,30.6446 L496.0615,27.5576 C498.0155,26.4046 499.9425,25.3186 501.8285,24.2526 C503.7005,23.1536 505.5435,22.1046 507.3565,21.1036 C510.9825,19.1006 514.4915,17.2896 517.8865,15.6526 C521.2795,14.0136 524.5625,12.5576 527.7255,11.2416 C530.8615,9.8666 533.8875,8.6516 536.8035,7.5806 C548.4585,3.2906 558.4085,1.3686 566.5085,0.4536 C582.7785,-1.2374 592.2455,2.3036 595.0325,2.8266 C600.6205,3.8656 603.2685,12.9486 597.6945,15.5286 C595.0555,16.7286 581.9385,19.3866 569.7715,24.2196 C557.4885,28.9116 546.2675,36.0006 547.0705,46.6666 C548.0085,59.5516 558.9505,59.2676 567.0775,58.2646 C576.8245,57.1406 580.9945,71.1746 572.9325,74.3236 C569.5735,75.6646 565.4605,76.7316 561.0605,77.7226 C556.6635,78.7196 551.9805,79.6426 547.3825,80.6216 C545.0835,81.1116 542.8055,81.6156 540.5945,82.1496 C538.3895,82.6926 536.2365,83.2506 534.1575,83.8136 C530.0245,84.9676 526.3405,86.3186 523.4575,88.0146" id="SKIN-DARKER" fill="#d29863"/>
                            <path d="M532.0932,86.4111 L493.5902,22.0491 L480.9722,29.4731 L474.6642,33.1861 L468.2922,36.7081 C467.7202,36.5981 467.0812,36.5371 466.3602,36.5331 C463.1752,36.3221 458.6422,37.1411 453.0672,38.8061 C451.6722,39.2201 450.2142,39.6941 448.6932,40.2041 C447.1602,40.6751 445.5672,41.1921 443.9172,41.7551 C440.6172,42.8811 437.0942,44.1861 433.3812,45.6501 C425.9842,48.7101 417.7092,51.8311 409.0032,55.5661 C407.9162,56.0341 406.8202,56.5051 405.7152,56.9791 C404.6142,57.4671 403.5022,57.9441 402.3742,58.3721 C400.1322,59.2741 397.8592,60.1881 395.5582,61.1141 C393.2692,62.0631 390.9542,63.0231 388.6172,63.9931 C387.4532,64.4861 386.2832,64.9821 385.1102,65.4801 L383.3472,66.2351 L381.5692,66.9171 C362.6142,74.5751 342.7212,81.9501 324.1762,88.1861 C319.5322,89.6151 314.9792,91.0711 310.5492,92.5411 C308.3372,93.3371 306.1442,93.8381 303.9912,94.4801 C301.8382,95.1081 299.7212,95.7251 297.6442,96.3311 C295.5662,96.9661 293.5292,97.5881 291.5362,98.1961 C289.5402,98.7201 287.5892,99.2301 285.6892,99.7281 C281.8862,100.7451 278.2812,101.7721 274.9112,102.8001 C270.0952,103.2751 236.486894,111.57336 234.036617,115.800871 C220.0385,139.9521 244.6012,171.8351 252.7512,179.5731 C256.8082,183.4311 261.7372,186.6101 267.1702,188.2981 C272.6082,190.0681 278.6192,190.8721 284.7552,190.2471 C308.2792,190.3951 333.8722,186.7461 358.4322,180.3711 C361.4842,179.5271 364.5362,178.6831 367.5852,177.8411 L372.1472,176.5391 C373.6692,176.1071 375.1852,175.6671 376.6522,175.1441 C382.5712,173.1421 388.4422,171.0881 394.2292,168.9981 C395.6682,168.4661 397.1322,167.9741 398.5372,167.4021 C399.9392,166.8231 401.3352,166.2461 402.7282,165.6711 C405.5042,164.5011 408.2612,163.3391 410.9972,162.1861 C413.7192,161.0091 416.4192,159.8411 419.0932,158.6841 L421.0852,157.8051 L423.0212,156.8641 C424.3052,156.2351 425.5822,155.6101 426.8532,154.9871 C431.9272,152.4871 436.8582,149.9981 441.6152,147.5421 C444.0192,146.3441 446.2752,145.0221 448.5142,143.7491 C450.7402,142.4611 452.9302,141.1941 455.0782,139.9521 C459.3572,137.4441 463.4452,135.0031 467.2962,132.6221 C471.0652,130.1421 474.6152,127.7441 477.9192,125.4481 C491.2412,116.3841 500.1422,108.3871 503.8332,103.6171 C504.3112,103.0661 504.6782,102.5761 504.9802,102.1221 L511.8582,98.3131 L518.6052,94.3481 L532.0932,86.4111 Z" id="Fill-8" fill="#CC2935"/>
                            <polygon id="Fill-10" fill="#B52935" points="468.5717 36.5556 506.0157 103.2656 512.8257 99.4896 519.5067 95.5616 532.8647 87.7006 493.5917 22.0496 481.1117 29.3936 474.8727 33.0676"/>
                            <path d="M288.52,258.3037 L74.039,258.3037 L74.039,151.2417 C74.039,127.7737 93.064,108.7477 116.533,108.7477 L246.026,108.7477 C269.495,108.7477 288.52,127.7737 288.52,151.2417 L288.52,258.3037 Z" id="Fill-12" fill="#D7DBE2"/>
                            <path d="M220.0385,108.748 C220.0385,125.304 212.0385,146.304 185.5385,146.304 C154.0385,146.304 141.0385,128.385 141.0385,108.748 L220.0385,108.748 Z" id="SKIN" fill="#edb98a"/>
                            <path d="M227.1733,320.7138 C253.0383,321.3038 275.0383,319.3038 298.4843,311.4598 C300.6483,310.7348 302.4883,309.3568 302.2893,307.0818 L299.1333,270.9948 C275.0523,272.0418 249.9043,276.7188 223.4353,280.8678 C222.9373,293.7878 222.4293,305.7138 221.9623,316.0608 C221.8343,318.9108 224.3203,320.6488 227.1733,320.7138" id="Fill-16" fill="#CC2935"/>
                            <path d="M61.5903,272.1464 L58.7283,304.8694 C58.3913,308.7154 60.7213,312.3214 64.3893,313.5264 C88.9763,321.6044 124.1903,325.7504 147.3063,327.3704 C150.9673,327.6264 154.1883,325.0244 154.7403,321.3954 C156.3073,311.1084 157.4373,299.6834 158.2123,287.5324 C133.5053,286.5704 88.6813,282.2614 61.5903,272.1464" id="Fill-18" fill="#CC2935"/>
                            <path d="M102.4018,110.5507 C84.9098,115.8137 72.1658,132.0357 72.1658,151.2417 L61.5898,272.1467 C88.6808,282.2617 133.5058,286.5707 158.2128,287.5317 C161.2648,239.6267 165.0388,143.3037 136.0388,128.3037 C136.0388,128.3037 115.0388,106.3037 102.4018,110.5507" id="Fill-20" fill="#FA3239"/>
                            <path d="M223.435,280.8681 C251.039,282.3041 274.039,280.3041 299.133,270.9951 L288.659,151.2421 C288.659,129.8471 272.845,112.1531 252.27,109.1911 C249.603,119.5561 239.934,122.8071 226.039,129.3041 C226.692,173.7051 225.16,236.1811 223.435,280.8681" id="Fill-22" fill="#FA3239"/>
                            <path d="M130.0385,68.3037 C89.0385,73.3037 85.1415,108.0677 102.4015,111.5507 C116.0385,114.3037 124.7825,130.3117 136.7425,136.4607 C139.4105,137.8327 142.5525,135.7317 142.3435,132.7387 C142.2845,131.8907 142.2255,131.0477 142.1665,130.2117 C141.5095,120.9407 142.8955,109.0827 152.1895,109.1537 C168.8525,109.2777 193.8035,109.2587 209.8345,109.1177 C218.5305,109.0407 225.6935,116.9457 225.9045,125.6397 C225.9395,127.0667 225.9725,128.5107 226.0015,129.9687 C226.0595,132.9077 229.2465,134.7137 231.7975,133.2527 C242.6065,127.0617 249.9835,119.0747 252.2695,110.1917 C252.7655,108.2667 253.0385,106.3027 253.0385,104.3037 C253.0385,81.1077 171.7065,63.2227 130.0385,68.3037" id="Fill-24" fill="#CC2935"/>
                            <path d="M216.3159,366.9931 L216.3159,366.9931 C217.5639,376.0011 214.9169,384.7831 208.8419,391.3321 C202.8309,397.8621 193.3579,402.1881 182.6379,401.9271 C161.1739,401.4311 139.2219,397.7971 118.1049,389.9871 C95.1659,381.5961 73.2559,367.8471 55.7669,349.0571 C53.6249,346.6711 51.4549,344.3131 49.4629,341.7841 C47.3979,339.3221 45.5039,336.7141 43.6039,334.1131 C39.9239,328.8251 36.4399,323.3721 33.4899,317.6221 L32.3559,315.4821 L31.3069,313.3001 L29.2479,308.9181 C28.0189,305.9381 26.6939,302.9891 25.6519,299.9411 C23.3779,293.9061 21.6719,287.7001 20.2179,281.4681 C17.4769,268.9731 16.2309,256.2471 16.5979,243.7631 C16.9169,231.2721 18.5849,218.9891 21.4709,207.2311 C27.1929,183.6581 37.1599,162.0841 49.3269,142.7511 C54.9829,133.8101 63.5899,128.2471 72.3339,126.7491 C74.5009,126.3441 76.7019,126.2071 78.8869,126.3171 C81.0649,126.4201 83.2109,126.7541 85.2949,127.3181 C89.4659,128.4461 93.3919,130.4981 96.8899,133.4181 C100.3879,136.3371 103.1379,139.8371 105.1819,143.5821 C106.2039,145.4561 107.0479,147.3911 107.7149,149.3521 C108.3739,151.3091 108.8729,153.3041 109.2369,155.3161 C110.5619,163.3271 109.3889,171.2751 105.1979,177.8851 C96.1259,192.2711 89.3249,207.4691 85.6339,222.6961 C81.9279,237.9141 81.5189,253.1071 84.6259,267.0561 C87.7729,280.9871 94.3919,293.6921 104.1229,304.1381 C113.8599,314.5581 126.5269,322.8021 141.0209,328.0951 C154.3149,333.0151 169.0089,335.6021 184.1779,335.9441 C191.6879,336.1301 198.7089,339.3781 204.5869,344.8561 C210.4109,350.3331 215.0639,357.9541 216.3159,366.9931" id="SKIN" fill="#edb98a"/>
                            <path d="M226.0971,389.7998 C226.4971,392.2528 225.7541,394.6588 224.1811,396.5708 C222.5961,398.4298 220.1721,399.7738 217.3481,400.1478 C197.2281,402.5828 176.4151,402.7308 155.5521,399.5648 C154.0851,399.3388 152.7271,398.8738 151.5391,398.2268 C150.3521,397.5388 149.3341,396.6718 148.5401,395.6908 C146.9501,393.7238 146.2621,391.2958 146.7701,388.8638 C147.2791,386.4308 148.8571,384.4458 150.9301,383.1888 C151.9681,382.5588 153.1331,382.1128 154.3691,381.8838 C155.6091,381.6158 156.9211,381.5638 158.2571,381.7688 C177.2731,384.6558 196.4561,384.5458 215.1621,382.2808 C217.7871,381.9308 220.2961,382.6108 222.2821,383.9858 C224.2491,385.3078 225.6971,387.3468 226.0971,389.7998" id="SKIN" fill="#edb98a"/>
                            <path d="M225.5717,373.665 L225.5717,373.665 C226.4377,378.532 222.8827,383.327 217.5367,383.981 C211.2417,384.855 204.8707,385.354 198.4877,385.733 C195.7937,385.821 193.3167,384.888 191.5487,383.311 C189.7737,381.731 188.7037,379.438 188.697665,376.966 C188.6907,374.468 189.7207,372.261 191.3317,370.586 C192.9477,368.907 195.1467,367.831 197.6167,367.754 C203.4897,367.401 209.3627,366.947 215.1947,366.135 C220.0737,365.542 224.6957,368.745 225.5717,373.665" id="SKIN" fill="#edb98a"/>
                            <path d="M224.7778,357.5751 C225.2198,360.0201 224.6498,362.3971 223.3228,364.2711 C221.9988,366.1341 219.9268,367.5521 217.4458,367.8501 L213.0308,368.4421 C211.5588,368.6381 210.0768,368.7521 208.5998,368.9111 C207.1218,369.0471 205.6478,369.2331 204.1658,369.3271 L199.7178,369.6201 C197.2268,369.8211 194.9148,368.8091 193.2588,367.2531 C191.5978,365.6751 190.5898,363.4561 190.5578,360.9711 C190.5258,358.4851 191.4518,356.2051 192.9178,354.5301 C194.3888,352.8331 196.3978,351.8391 198.6758,351.6501 L202.7438,351.3841 C204.0988,351.3001 205.4558,351.1241 206.8118,351.0001 C208.1678,350.8521 209.5248,350.7531 210.8808,350.5711 L214.9458,350.0251 C217.2238,349.7551 219.4278,350.3561 221.2098,351.7201 C222.9858,353.0731 224.3358,355.1301 224.7778,357.5751" id="SKIN" fill="#edb98a"/>
                            <path d="M212.7231,334.1806 C213.0701,336.6416 212.5211,338.9836 211.3021,340.7916 C210.6941,341.6906 209.9201,342.4776 209.0221,343.0356 C208.1241,343.5806 207.1011,343.9356 206.0011,344.0456 C198.9201,344.7356 191.8441,345.1106 184.8451,344.9506 C180.4581,344.8256 177.2161,340.6256 177.5951,335.6356 C177.9581,330.7116 181.3391,326.8406 185.1721,326.9526 C191.4211,327.0986 197.8021,326.7586 204.2231,326.1336 C205.2211,326.0346 206.1981,326.1916 207.1191,326.5596 C208.0401,326.9146 208.9101,327.4446 209.6811,328.1666 C211.2191,329.6026 212.3751,331.7196 212.7231,334.1806" id="SKIN" fill="#edb98a"/>
                            <path d="M243.9809,336.7167 L243.9809,336.7167 C245.3669,341.4787 242.8009,346.3697 238.2349,347.5427 C221.7819,351.6047 205.0059,353.9087 188.3739,353.9637 C183.7359,354.0017 180.2169,349.7467 180.4809,344.7977 C180.7479,339.8207 184.2329,336.0027 188.3329,335.9637 C203.3179,335.9137 218.6779,333.8307 233.9119,330.0707 C238.0859,328.9947 242.5929,331.9327 243.9809,336.7167" id="SKIN" fill="#edb98a"/>
                            <path d="M154.6503,405.4976 C142.3713,403.6166 130.0593,400.7026 118.0073,396.3426 C117.3273,396.4936 116.5483,396.5946 115.6433,396.6366 C114.5603,396.6966 113.3263,396.6936 111.9543,396.5966 C110.5883,396.4706 109.0803,396.2666 107.4383,395.9856 C104.1433,395.4676 100.3563,394.4206 96.0973,393.0716 C87.6133,390.2786 77.3503,385.5866 66.4743,378.3256 C65.1223,377.4016 63.7513,376.4646 62.3593,375.5146 C61.0053,374.4936 59.6333,373.4566 58.2413,372.4076 C57.5503,371.8736 56.8553,371.3366 56.1533,370.7956 C55.4733,370.2256 54.7873,369.6516 54.0973,369.0746 C52.7243,367.9086 51.3243,366.7396 49.9453,365.5036 C44.4553,360.5296 39.0433,354.8726 33.9023,348.5746 C28.7933,342.2466 24.0293,335.2356 19.7753,327.6916 C18.7413,325.7876 17.6503,323.8996 16.6903,321.9306 C15.7383,319.9576 14.7823,317.9756 13.8213,315.9826 C12.9433,313.9556 12.0783,311.9116 11.2243,309.8516 C10.3653,307.7936 9.6503,305.6786 8.8763,303.5736 C5.9133,295.1146 3.6593,286.3166 2.1623,277.4186 C0.6503,268.5176 0.0093,259.5336 0.000298893799,250.6886 C0.000298893799,241.8406 0.6763,233.1186 2.0153,224.7416 C3.3323,216.3606 5.1343,208.2396 7.4753,200.6006 C7.7603,199.6416 8.0443,198.6846 8.3273,197.7296 C8.6423,196.7926 8.9543,195.8596 9.2673,194.9276 C9.9073,193.0756 10.5453,191.2316 11.1783,189.3986 C11.8773,187.6106 12.5713,185.8316 13.2623,184.0646 C13.6123,183.1866 13.9633,182.3096 14.3133,181.4366 C14.6883,180.5826 15.0623,179.7336 15.4353,178.8856 C16.1903,177.1986 16.9393,175.5226 17.6833,173.8596 C18.4823,172.2416 19.2743,170.6356 20.0593,169.0426 C21.6093,165.8396 23.3133,162.8496 24.9553,159.8956 C35.4373865,134.7026 58.2413,104.76111 96.0973,107.7477 C101.5683,109.5747 106.515625,111.9166 110.928625,116.0926 C115.340625,120.2686 117.4733,129.5756 119.9123,134.7026 C122.3523,139.8336 123.8163,145.1876 124.5303,150.5126 C125.1663,155.7976 125.0653,161.0496 124.0383,165.9266 C123.5893,168.3946 122.8133,170.7346 121.9103,173.0126 C121.4633,174.1526 120.9473,175.2626 120.3613,176.3416 C120.0683,176.8816 119.7573,177.4126 119.4293,177.9376 C119.1243,178.4696 118.8023,178.9946 118.4613,179.5096 C114.4043,188.0896 110.5813,196.8786 107.5643,205.6536 C107.1953,206.7456 106.8273,207.8406 106.4573,208.9386 C106.0593,210.0296 105.7953,211.1286 105.4423,212.2176 C104.7163,214.3976 104.2133,216.5756 103.5793,218.7356 C102.5193,223.0576 101.5763,227.3276 100.9083,231.5086 C100.2843,235.6836 99.8573,239.7666 99.6433,243.7336 C99.4593,247.6966 99.5503,251.5226 99.8093,255.2236 C99.9083,256.1376 99.9093,257.0786 100.0463,257.9736 C100.1663,258.8726 100.2693,259.7736 100.3583,260.6746 C100.5183,261.5516 100.6593,262.4306 100.7863,263.3116 C100.9003,264.1976 101.1393,265.0326 101.2853,265.8986 C102.000299,269.3136 102.8853,272.6036 103.9583,275.7606 C105.0723,278.8976 106.3503,281.9096 107.7533,284.8076 C109.1563,287.7066 110.8033,290.4156 112.4593,293.0566 C112.9013,293.6966 113.3333,294.3406 113.7553,294.9896 C114.1633,295.6476 114.6663,296.2296 115.1013,296.8586 C115.9583,298.1286 116.9523,299.2696 117.8503,300.4656 C118.2973,301.0666 118.8173,301.5976 119.2823,302.1696 C119.7693,302.7226 120.1983,303.3206 120.7053,303.8406 C121.7143,304.8836 122.5973,306.0186 123.6123,306.9846 C127.4893,311.0366 131.3523,314.4756 134.6313,317.3986 C136.3033,318.8156 137.7673,320.1936 139.0953,321.3486 C139.7463,321.9456 140.3383,322.5246 140.8683,323.0786 C141.4193,323.5986 141.9053,324.0996 142.3233,324.5776 C142.7003,324.9816 142.9943,325.3576 143.2413,325.7156 C150.4003,328.3286 158.0473,330.1386 165.9213,331.3496 L154.6503,405.4976 Z" id="Fill-38" fill="#FA3239"/>
                            <path d="M118.4028,396.4853 L143.9768,324.3863 C150.9678,326.9243 158.4498,328.6733 166.1468,329.8653 L154.6508,405.4963 C142.5068,403.6273 130.3288,400.7713 118.4028,396.4853" id="Fill-40" fill="#CC2935"/>
                        </g>
                    </g>
                </g>
                <g id="Head" transform="translate(362.000000, -61.000000) scale(1 1)">
                    <g id="Head/Astronaut" stroke="none" stroke-width="1" fill="none" fill-rule="evenodd">
                        <g id="Group-31" transform="translate(-12.000000, 35.000000)">
                            <path d="M10.5,116.1899 C10.5,116.1899 20.5,129.1899 20.5,149.1899 L115.5,149.1899 C115.5,149.1899 115.5,134.1899 125.5,120.1899 C125.5,120.1899 81.241,59.1899 10.5,116.1899" id="Fill-1" fill="#D7DBE2"/>
                            <path d="M50.5,71.3471 L50.5,110.8151 C50.5,110.8151 102.761,146.7581 132.05,110.8151 C161.339,74.8701 127.456,-21.6829 50.5,71.3471" id="Fill-3" fill="#0A1B45"/>
                            <g id="Head" transform="translate(34.000000, 36.689900)">
                                <g id="head" transform="translate(0.000000, 0.000100)" fill="#edb98a">
                                    <path d="M60.0525,94 L55.0655,94 C31.8335,94 13.0005,75.167 13.0005,51.935 L13.0005,32.203 C13.0005,14.418 27.4175,0 45.2035,0 L50.7965,0 C68.5825,0 83.0005,14.418 83.0005,32.203 L83.0005,71.052 C83.0005,83.726 72.7265,94 60.0525,94" id="SKIN"/>
                                    <path d="M25,58.5 C25,65.403 19.404,71 12.5,71 C5.596,71 0,65.403 0,58.5 C0,51.597 5.596,46 12.5,46 C19.404,46 25,51.597 25,58.5" id="SKIN"/>
                                </g>
                                <path d="M10.067,53.1685 C10.9718309,53.1685 12.2239875,53.3771928 13.5088204,54.0196092 C15.6553998,55.0928989 17.0130325,57.055328 17.10411,59.9021045 L17.109,60.2105 L14.109,60.2105 C14.109,58.3751144 13.4076866,57.3231443 12.1671796,56.7028908 C11.7065142,56.4725581 11.1976823,56.3199085 10.686339,56.2346846 C10.4347302,56.1927498 10.2385731,56.1747448 10.1250097,56.169908 L10.067,56.1685 L10.067,53.1685 Z" id="ear-line" fill="#000"/>
                                <path d="M34.7507501,96.3317762 C25.4557924,93.0436693 20.8185822,84.7387742 18.9822222,73.5681961 C26.2532122,85.6702724 39.4406226,93.8133264 54.5439426,93.9968331 L55.0655,94 L58,94 C50.0632106,98.2298391 42.3134606,99.0070978 34.7507501,96.3317762 Z" id="SHADOW" fill="#000" opacity=".12"/>
                            </g>
                            <path d="M58.5,94.6899 C58.5,101.5929 52.904,107.1899 46,107.1899 C39.096,107.1899 33.5,101.5929 33.5,94.6899 C33.5,87.7869 39.096,82.1899 46,82.1899 C52.904,82.1899 58.5,87.7869 58.5,94.6899" id="Fill-11" fill="#edb98a"/>
                            <path d="M43.5669,89.3589 C44.4717309,89.3589 45.7238875,89.5675928 47.0087204,90.2100092 C49.1552998,91.2832989 50.5129325,93.245728 50.60401,96.0925045 L50.6089,96.4009 L47.6089,96.4009 C47.6089,94.5655144 46.9075866,93.5135443 45.6670796,92.8932908 C45.2064142,92.6629581 44.6975823,92.5103085 44.186239,92.4250846 C43.9849519,92.3915368 43.819154,92.373304 43.7027418,92.3648764 L43.5669,92.3589 L43.5669,89.3589 Z" id="Stroke-13" fill="#000" fill-rule="nonzero"/>
                            <path d="M111.334,49.8872 L111.5,49.8882 C105.713,41.3222 95.913,35.6902 84.797,35.6902 L79.203,35.6902 C61.418,35.6902 47,50.1082 47,67.8932 C47,67.8932 46.516,78.3462 46.501,81.6902 C46.501,81.8562 52,81.6902 52,81.6902 L62,56.6902 L59.5,50.1902 L111.5,50.1902 C111.5,50.1902 111.448,50.0792 111.334,49.8872" id="Fill-10" fill="#000"/>
                            <path d="M50.5,103.8198 L50.5,75.8828 C50.5,72.9238 51.556,70.0498 53.486,67.8068 C128.328,-19.1772 160.957,75.3398 132.05,110.8148 C108.997,139.1038 71.715,122.8618 56.882,114.6628 C52.938,112.4818 50.5,108.3278 50.5,103.8198 M72,0.6898 C32.235,0.6898 0,32.9248 0,72.6898 C0,126.1898 32.235,144.6898 72,144.6898 C111.765,144.6898 144,112.4548 144,72.6898 C144,32.9248 111.765,0.6898 72,0.6898" id="Fill-22" fill="#D7DBE2"/>
                            <path d="M43.5,92.6899 C43.5,101.8019 36.113,109.1899 27,109.1899 C17.887,109.1899 10.5,101.8019 10.5,92.6899 C10.5,83.5779 17.887,76.1899 27,76.1899 C36.113,76.1899 43.5,83.5779 43.5,92.6899" id="Fill-25" fill="#FFF"/>
                            <path d="M29.5,92.6899 C29.5,97.3699 26.693,101.1629 23.23,101.1629 C19.767,101.1629 16.959,97.3699 16.959,92.6899 C16.959,88.0099 19.767,84.2169 23.23,84.2169 C26.693,84.2169 29.5,88.0099 29.5,92.6899" id="Fill-27" fill="#D7DBE2"/>
                            <path d="M117.8433,161.1899 L20.1563,161.1899 C18.1373,161.1899 16.5003,159.5529 16.5003,157.5339 L16.5003,140.8459 C16.5003,138.8269 18.1373,137.1899 20.1563,137.1899 L117.8433,137.1899 C119.8633,137.1899 121.5003,138.8269 121.5003,140.8459 L121.5003,157.5339 C121.5003,159.5529 119.8633,161.1899 117.8433,161.1899" id="Fill-29" fill="#000"/>
                        </g>
                    </g>
                </g>
                <g id="Expression" transform="translate(409.000000, 34.000000) scale(1 1)" fill="#000">
                    <g id="Expression/Happy 2" stroke="none" stroke-width="1" fill="none" fill-rule="evenodd">
                        <polygon id="Stroke-5" fill="#000" points="33.1977829 19.396766 36.1476171 18.850434 40.4350211 41.9996 30.5607 41.9996 30.5607 38.9996 36.828 38.999"/>
                        <path d="M21.9219,41.586 C21.9219,45.2602625 25.6639817,48.6581933 29.6815435,48.7900329 L29.9229,48.794 L29.9229,51.794 C24.3252295,51.794 19.0961019,47.2280163 18.9261594,41.8552911 L18.9219,41.586 L21.9219,41.586 Z" id="Stroke-7" fill="#000"/>
                        <path d="M24.8347,7.0006 L24.8347,10.0006 C20.8614229,10.0006 17.2383573,11.0660474 14.0359527,12.8448841 C12.9150836,13.4674922 11.9293314,14.1334356 11.0897152,14.7961842 L10.7861407,15.040601 C10.5074069,15.2697737 10.3035438,15.4516564 10.1776864,15.572233 L10.1212727,15.6273476 L8.00012725,13.5058524 C8.85065801,12.6554618 10.3987207,11.4335033 12.5791973,10.2223159 C16.0571889,8.29039915 19.9861553,7.09862919 24.2942223,7.00637866 L24.8347,7.0006 Z" id="Stroke-4" fill="#000"/>
                        <path d="M36.8954,7.3444 C40.8877089,7.3444 44.5189484,8.41234066 47.7173411,10.1891511 C49.5298313,11.196048 50.8489395,12.2124881 51.6282721,12.9590003 L51.7680602,13.0957398 L49.6467398,15.2170602 C49.5206826,15.0910029 49.2403474,14.8394225 48.8151324,14.5037331 C48.0875713,13.9293541 47.2327349,13.3517796 46.2604589,12.8116489 C43.6148805,11.3419446 40.6390044,10.4338096 37.3855011,10.3506532 L36.8954,10.3444 L36.8954,7.3444 Z" id="Stroke-6" fill="#000"/>
                        <path d="M12.441685,23.929414 C14.9313631,17.7052186 25.7247131,17.6293138 27.2529395,23.9551094 L27.305271,24.1923258 L24.363529,24.7806742 C23.6883751,21.4049049 16.9493145,21.3456809 15.3099937,24.8523178 L15.227115,25.043586 L12.441685,23.929414 Z" id="Stroke-8" fill="#000"/>
                        <path d="M37.441685,23.929414 C39.9313631,17.7052186 50.7247131,17.6293138 52.2529395,23.9551094 L52.305271,24.1923258 L49.363529,24.7806742 C48.6883751,21.4049049 41.9493145,21.3456809 40.3099937,24.8523178 L40.227115,25.043586 L37.441685,23.929414 Z" id="Stroke-10" fill="#000"/>
                    </g>
                </g>
                <g id="Accessories" transform="translate(396.000000, 56.000000) scale(1 1)" fill="#000">
                    <g id="Accessories/None" stroke="none" stroke-width="1" fill="none" fill-rule="evenodd" fill-opacity="0"/>
                </g>
                <g id="Glasses" transform="translate(388.000000, 42.000000) scale(1 1)" fill="#000">
                    <g id="Glasses/Thick" stroke="none" stroke-width="1" fill="none" fill-rule="evenodd">
                        <path d="M43.5452664,3.00012344 C49.2894512,3.02462661 55.021427,4.35163303 57.0857956,6.97405047 C58.0938547,8.25461237 58.6772219,10.0147386 58.9068842,11.9996703 L62.1143968,11.9996703 C62.3440591,10.0147386 62.9274264,8.25461237 63.9354854,6.97405047 C65.9529365,4.41123343 71.4731799,3.0856142 77.0844275,3.00401411 L77.4760146,3.00012344 L77.8967218,3.00012344 L80.8146938,3.0378718 C91.0822714,3.2070925 94.9796428,3.73089949 95.893837,5.69362755 C96.9046181,7.86372269 97.4724619,10.8486323 96.5699433,12.3975628 L96.4345265,12.6077971 C96.2607766,12.8804731 95.8187885,13.7026763 95.3317143,14.6775352 L95.2267324,14.8886255 L94.7966033,15.7746065 C94.1772527,17.0747485 93.6217104,18.3482986 93.2115536,19.4320065 L93.1438986,19.6872046 L93.1438986,19.6872046 C92.2530855,22.9637972 90.4857872,26.1972123 88.6985341,28.3365739 C85.3492115,32.34575 71.1131799,32.6082999 67.0329763,28.4576053 C64.4038322,25.7830393 62.5077693,20.7417692 62.087653,15.9998009 L58.933628,15.9998009 C58.5135117,20.7417692 56.6174488,25.7830393 53.9883048,28.4576053 C49.9081011,32.6082999 35.6720695,32.34575 32.3227469,28.3365739 C30.5354938,26.1972123 28.7681955,22.9637972 27.8773824,19.6872046 L27.8097274,19.4320065 C27.4233065,18.4110132 26.9078403,17.2215143 26.331547,16.0000268 L0,16 L0,12 L24.2628445,12.0004643 C23.6422666,10.3774347 24.1973223,7.69055104 25.127444,5.69362755 C26.0970439,3.61194627 30.4223758,3.14888604 42.1443686,3.0107703 L43.1245592,3.00012344 L43.5452664,3.00012344 Z M32.8542992,9.57832836 C31.1333273,11.9393787 30.7976239,14.9040914 31.4059083,17.8533932 L31.6334165,18.4663592 L31.5539327,18.4983688 C32.1949786,21.035914 33.5135424,23.5284501 35.226974,25.5794466 C37.0849603,27.8034767 48.7860935,28.0192764 51.3034638,25.4584151 C54.5060095,22.2005411 56.3804317,12.9591713 54.2303847,9.80770023 L54.1067801,9.63896051 L53.9809214,9.49277664 C51.015179,6.32545056 35.1904568,6.373287 32.8542992,9.57832836 Z M88.1669819,9.57832836 C85.8662205,6.42184823 70.4825425,6.32762495 67.1839305,9.35102137 L67.0403596,9.49277664 L66.9145009,9.63896051 L66.7908963,9.80770023 C64.6408493,12.9591713 66.5152715,22.2005411 69.7178172,25.4584151 C72.2351876,28.0192764 83.9363207,27.8034767 85.794307,25.5794466 C87.4069485,23.6490969 88.669811,21.3276257 89.347247,18.9456229 L89.4673483,18.4983688 L89.3878645,18.4663592 L89.6153727,17.8533932 L89.6153727,17.8533932 C90.2236571,14.9040914 89.8879537,11.9393787 88.1669819,9.57832836 Z" id="Shape" fill="#000"/>
                    </g>
                </g>
            </g>
        </g>
        <g id="Desk" transform="translate(171.000000, 207.000000)">
            <rect id="Rectangle" fill="#BE6FFB" x="290" y="0" width="257" height="217"/>
            <rect id="Rectangle" fill="#CCA4FF" x="290" y="0" width="26" height="217"/>
            <g id="keyboard" transform="translate(185.000000, 258.000000)">
                <rect id="Rectangle" fill="#C67BFF" x="0" y="0" width="203" height="15"/>
                <rect id="Rectangle" fill="#F2E7FF" x="0" y="0" width="68" height="15"/>
            </g>
            <rect id="Rectangle" fill="#BE6FFB" x="56" y="272" width="520" height="38"/>
            <rect id="Rectangle" fill="#CCA4FF" x="56" y="272" width="174" height="38"/>
            <rect id="Rectangle" fill="#E4CEFF" x="56" y="272" width="257" height="38"/>
            <polygon id="Rectangle" fill="#CCA4FF" points="72 310 106 310 18 700 -6.36626862e-12 700"/>
            <polygon id="Rectangle" fill="#CCA4FF" transform="translate(330.000000, 505.000000) scale(-1, 1) translate(-330.000000, -505.000000)" points="349 310 383 310 295 700 277 700"/>
            <polygon id="Rectangle" fill="#CCA4FF" transform="translate(584.000000, 505.000000) scale(-1, 1) translate(-584.000000, -505.000000)" points="603 310 637 310 549 700 531 700"/>
            <rect id="Rectangle" fill="#870CF7" x="425" y="83" width="63" height="189"/>
            <rect id="Rectangle" fill="#CCA4FF" x="425" y="83" width="18" height="189"/>
        </g>
    </g>
</svg>
