<svg viewBox="29.087 105.7 780.048 805.962" xmlns="http://www.w3.org/2000/svg" overflow="visible">
    <g id="Master/Comps/Desk" stroke="none" stroke-width="1" fill="none" fill-rule="evenodd">
        <g id="Blob" opacity=".288" transform="translate(8.500000, 153.891534) scale(1.5086372360844529 1.5089820359281436)">
            <g id="Blob/6" stroke="none" stroke-width="1" fill="none" fill-rule="evenodd">
                <path d="M412.81247,152.226785 C457.029881,177.065348 499.903297,222.311811 503.532082,271.183361 C507.295266,320.054911 471.545019,372.685812 427.462007,405.3116 C383.378996,437.937387 330.694422,450.826588 278.009848,450.96192 C225.190874,451.095113 172.3719,438.6087 129.095286,405.982912 C85.8186711,373.222862 52.3532144,320.457699 32.7308985,247.955948 C12.9741831,175.454198 7.3294073,83.3501217 50.6060219,58.511559 C93.7482371,33.6729963 185.946242,76.0999467 254.758747,99.5958844 C323.436853,122.95756 368.729459,127.388222 412.81247,152.226785 Z" id="blobs-burgers" fill="#CCA4FF"/>
            </g>
        </g>
        <g id="Chair" transform="translate(35.000000, 285.000000) scale(1 1)">
            <g id="Chair/Stool" stroke="none" stroke-width="1" fill="none" fill-rule="evenodd">
                <g id="Group-13" transform="translate(143.000000, 286.000000)">
                    <path d="M27,336 L12,336 C5.4,336 0,330.343 0,323.429 L60,62.571 C60,55.657 65.4,50 72,50 L87,50 C93.6,50 99,55.657 99,62.571 L39,323.429 C39,330.343 33.6,336 27,336" id="Fill-1" fill="#DBAE84"/>
                    <path d="M130.5,336 L115.5,336 C108.9,336 103.5,330.343 103.5,323.429 L103.5,62.571 C103.5,55.657 108.9,50 115.5,50 L130.5,50 C137.1,50 142.5,55.657 142.5,62.571 L142.5,323.429 C142.5,330.343 137.1,336 130.5,336" id="Fill-3" fill="#C99F79"/>
                    <path d="M234,336 L219,336 C212.4,336 207,330.343 207,323.429 L147,62.571 C147,55.657 152.4,50 159,50 L174,50 C180.6,50 186,55.657 186,62.571 L246,323.429 C246,330.343 240.6,336 234,336" id="Fill-5" fill="#DBAE84"/>
                    <g id="Group-9" fill="#55B0EB">
                        <path d="M218.2568,70 L27.7428,70 C12.4848,70 -0.0002,57.516 -0.0002,42.257 L-0.0002,27.743 C-0.0002,12.484 12.4848,0 27.7428,0 L218.2568,0 C233.5158,0 245.9998,12.484 245.9998,27.743 L245.9998,42.257 C245.9998,57.516 233.5158,70 218.2568,70" id="Fill-7"/>
                    </g>
                    <g id="Group-12" transform="translate(0.000000, 188.000000)" fill="#55B0EB">
                        <path d="M230.9443,31 L15.0553,31 C6.7753,31 0.0003,24.225 0.0003,15.944 C0.0003,7.664 6.7753,0.889 15.0553,0.889 L230.9443,0.889 C239.2253,0.889 246.0003,7.664 246.0003,15.944 C246.0003,24.225 239.2253,31 230.9443,31" id="Fill-10"/>
                    </g>
                </g>
            </g>
        </g>
        <g transform="translate(-111.000000, 211.000000) scale(1 1)" id="Master/Character/Sitting">
            <g id="Master/Character/Sitting" stroke="none" stroke-width="1" fill="none" fill-rule="evenodd">
                <g id="Legs Sitting" transform="translate(317.000000, 266.000000) scale(1 1)">
                    <g id="Legs Sitting/Red Shorts Straight" stroke="none" stroke-width="1" fill="none" fill-rule="evenodd">
                        <g id="Group-16" transform="translate(84.000000, 1.000000)">
                            <path d="M303.37194,414.958971 C303.37194,414.958971 240.397766,413.0201 240.397766,413.0201 C236.9886,412.92601 234.21758,412.908993 234.329184,409.227441 C236.223589,324.836008 241.247672,237.627858 228.341682,154.378527 C226.408168,143.868385 225.292129,138.407115 215.533941,133.577455 C180.39588,114.435985 141.467101,103.451385 103,92.5538699 L121.87823,16 C164.946846,28.0676446 208.373167,40.8850125 248.434201,62.3547295 C277.032464,77.2721239 294.121216,97.0802375 300.445438,130.365356 C314.543778,201.674164 312.02172,274.500437 311.478009,346.65306 C311.186121,365.917649 310.204579,392.329135 309.647514,411.738864 C309.541633,415.260262 306.783967,415.057066 303.37194,414.958971" id="Fill-1" fill="#964c1c"/>
                            <path d="M69.9977161,0 L51.5144603,91.8475674 C50.7536109,95.0963495 50.8553745,97.8862922 51.6961131,98.0728203 C89.1554943,98.2515682 126.5,98.2515682 164.581429,132 L179.858333,85.9714314 C176.845369,81.0119765 173.738251,76.0525217 170.543635,71.130971 C175.816321,69.3564597 181.119441,67.6597516 186.479624,66.0198997 L202,19.2571881 C170.066202,8.11836423 130.862065,0 114.550544,0 C114.550544,0 99.6996011,0 69.9977161,0 Z" id="Fill-3" fill="#CC2935"/>
                            <g id="Group-7" transform="translate(228.000000, 273.000000)" fill="#0A1B45">
                                <path d="M89.6335908,118.4748 C90.8821754,79.4348 91.6690985,39.6858 91.3104523,0.5228 L3.36774462,1.4528 C3.96676,50.4358 2.05811385,100.0058 0.800944615,149.00001 L30.5323292,149.00001 C30.8966985,146.4878 31.4966677,143.7018 31.9821754,141.3058 L48.2204523,149.00001 C66.7470062,148.9978 104.502145,149.00001 122.893252,149.00001 C122.929498,146.7658 123.050637,141.9118 123.124083,139.6448 C123.369222,131.7268 98.5654062,127.9568 89.6335908,118.4748" id="Fill-5"/>
                            </g>
                            <path d="M188.069807,411.895882 C184.652528,411.800944 181.874913,411.762969 181.992519,408.096362 C184.293015,334.544374 181.713515,222.493121 175.947931,165.264183 C170.182348,108.035245 90.3599054,106.2414 51,93.8874639 L71.8287667,18 C115.004666,31.3263012 158.520954,45.4141053 198.41726,68.124281 C226.549098,83.6511458 243.341001,104.245703 249.260524,137.336103 C262.398022,206.106212 260.078403,276.240432 259.414835,345.756055 C259.10313,364.988501 258.078137,391.374277 257.485324,410.753627 C257.372499,414.27333 254.610182,414.05847 251.190034,413.955537 L188.069807,411.895882 Z" id="Fill-10" fill="#ae5d29"/>
                            <path d="M21.2910902,4.16199094 L0.0372395967,91.5874264 C-0.811929517,94.8307055 13.134867,97.3919435 13.9610856,97.5994733 C56.4519916,99.6354583 86.9098188,99.6354583 118.424611,114 L127.244303,88.5506745 C124.399395,83.5067991 121.44356,78.4950055 118.424611,73.4802043 C123.690798,71.8209688 129.000974,70.1978254 134.3494,68.6669174 L151,22.0609469 C138.637568,17.4117475 126.379212,13.1526005 114.115775,9.17135751 C101.616675,5.11360806 70.675113,3.4438192 21.2910902,4.16199094 Z" id="Fill-12" fill="#FA3239"/>
                            <path d="M265.112849,390.602493 C266.423951,351.680317 267.256898,312.048868 266.90115,273 L178.730267,273.930733 C179.342306,322.820625 177.329272,372.079619 176,420.994451 L205.808202,420.994451 C206.173513,418.431695 206.777901,415.694363 207.27327,413.270269 L223.542026,420.994451 C243.226724,420.975497 278.966921,421.033356 298.408716,420.967517 C298.417323,420.098634 298.464182,418.101499 298.489046,417.208674 C302.992313,402.155348 276.558931,402.47856 265.112849,390.602493" id="Fill-14" fill="#0A1B45"/>
                        </g>
                        <path d="M56,99 C25.072054,99 -4.00139793e-11,73.927946 -4.00177669e-11,43 L-4.00177669e-11,0 L199,0 C199,54.676 156.593865,99 104.283654,99 L56,99 Z" id="PELVIS-PLUS" fill="#FA3239"/>
                    </g>
                </g>
                <g id="Body" transform="translate(41.000000, -31.000000) scale(1 1)">
                    <g id="Body/Tee Shake Hand" stroke="none" stroke-width="1" fill="none" fill-rule="evenodd">
                        <path d="M312,149 L448,149 C470.09139,149 488,166.90861 488,189 L488,300 L488,300 L272,300 L272,189 C272,166.90861 289.90861,149 312,149 Z" id="body" fill="#55B0EB"/>
                        <g id="Left-Arm" transform="translate(260.000000, 149.000000)">
                            <polygon id="Rectangle" fill="#3F8FD4" points="12 82.8627594 74.9161 53 95 151 12 151"/>
                            <path d="M294.9928,230.7898 C298.1738,259.0898 275.1528,269.4808 250.2658,269.1938 C222.7918,271.1428 195.0058,271.0458 167.4538,267.5168 C138.1528,263.5998 108.7318,255.3528 83.4818,239.5968 C44.5358,215.5168 21.6198,172.5088 11.9418,129.3648 C7.8328,102.9278 -5.8852,52.7328 13.8558,33.4328 C33.2038,13.6638 70.0368,30.5648 69.7828,57.4898 C70.9938,100.5948 77.7628,149.8478 111.2578,178.4528 C116.8768,182.9468 123.3408,186.6998 129.8488,189.7358 C164.5488,204.8368 203.6318,205.6278 241.0988,203.6448 C246.8258,203.3038 253.1768,202.7828 258.8838,202.2068 C276.3358,200.5518 292.1168,213.3568 294.9928,230.7898" id="SKIN" fill="#ae5d29"/>
                            <path d="M318.4088,250.9934 C319.3848,255.8704 315.9198,260.6674 310.6908,261.5974 C289.0368,265.4434 267.3118,268.1404 245.1848,269.5174 C238.5628,270.8384 229.6278,267.9124 229.6788,261.2544 C229.3158,254.6504 237.4868,251.1034 244.0708,251.5534 C265.4278,250.2254 286.5438,247.6054 307.5258,243.8774 C312.5578,242.9834 317.4298,246.1234 318.4088,250.9934" id="SKIN" fill="#ae5d29"/>
                            <path d="M326.3658,232.9719 C327.4918,237.8119 324.1808,242.7029 319.0958,243.7229 C308.6198,244.0259 281.7208,256.4239 279.1318,241.1559 C277.2128,226.6969 305.7028,229.9849 315.5408,226.0769 C320.4018,225.1029 325.2308,228.1309 326.3658,232.9719" id="SKIN" fill="#ae5d29"/>
                            <path d="M324.6715,216.9387 C327.9435,232.0337 298.8045,229.5437 289.1895,232.6957 C284.2305,233.4177 279.6865,229.9727 279.0455,225.0387 C276.9505,210.6887 304.6205,213.8607 314.2715,210.0037 C318.9605,209.0447 323.5465,212.1017 324.6715,216.9387" id="SKIN" fill="#ae5d29"/>
                            <path d="M286.9791,198.6365 C287.7511,203.5415 284.5431,208.1385 279.7941,208.7825 C269.6441,208.4465 244.4501,218.8195 242.9671,203.5305 C242.2441,188.8175 267.4171,194.2825 277.3301,190.9505 C281.8941,190.3335 286.2051,193.7205 286.9791,198.6365" id="SKIN" fill="#ae5d29"/>
                            <path d="M313.7848,202.9578 C314.8218,207.8188 311.8258,212.5708 307.0448,213.4658 C291.0728,216.4448 274.9058,218.7808 258.7248,220.3058 C253.8848,220.8058 249.6538,217.0288 249.2828,212.0938 C248.9118,207.1158 252.3648,202.8688 257.0098,202.3878 C272.6178,200.9188 288.3058,198.6508 303.7088,195.7778 C308.2848,194.9218 312.7528,198.0958 313.7848,202.9578" id="SKIN" fill="#ae5d29"/>
                            <path d="M5.1021,121.3852 C0.3511,83.0982 -14.7300954,2.27373675e-13 51.3998262,2.27373675e-13 C68.8078262,2.596 75.3101,24.1352 74.9161,41.6912 C74.2301,63.8442 75.5911,86.0132 79.6471,106.5832 L5.1021,121.3852 Z" id="Fill-16" fill="#55B0EB"/>
                        </g>
                        <path d="M334,149 C334,167.225397 354.594902,182 380,182 C405.405098,182 426,167.225397 426,149" id="SKIN" fill="#ae5d29"/>
                    </g>
                </g>
                <g id="Head" transform="translate(362.000000, -61.000000) scale(1 1)">
                    <g id="Head/Cupcake" stroke="none" stroke-width="1" fill="none" fill-rule="evenodd">
                        <g id="Group-25" transform="translate(-28.000000, -44.000000)">
                            <path d="M138.5411,229.1899 L49.4591,229.1899 C44.3061,229.1899 40.0231,224.9859 39.6341,219.5449 L31.6661,108.1899 L156.3331,108.1899 L148.3661,219.5449 C147.9771,224.9859 143.6941,229.1899 138.5411,229.1899" id="Fill-4" fill="#0A1B45"/>
                            <path d="M110.3858,208.1899 L105.3988,208.1899 C82.1668,208.1899 63.3328,189.3569 63.3328,166.1249 L63.3328,146.3929 C63.3328,128.6079 77.7508,114.1899 95.5368,114.1899 L101.1298,114.1899 C118.9158,114.1899 133.3328,128.6079 133.3328,146.3929 L133.3328,185.2429 C133.3328,197.9159 123.0598,208.1899 110.3858,208.1899" id="Fill-6" fill="#0A1B45"/>
                            <path d="M110.3119,208.1899 L103.3759,208.1899 C83.4939,208.1899 76.3759,193.1009 76.3759,174.4879 L76.3759,153.8919 C76.3759,135.2789 83.4939,120.1899 103.3759,120.1899 C119.9209,120.1899 133.3329,132.7459 133.3329,148.2349 L133.3329,186.6379 C133.3329,198.5409 123.0259,208.1899 110.3119,208.1899" id="SKIN" fill="#ae5d29"/>
                            <path d="M86.6029,0.3821 L90.5508184,2.64879388 C96.4949,6.09165102 107.4849,12.5819571 111.5999,15.8391 C115.60851,19.012618 117.752977,23.5115689 118.244953,28.2925861 C140.975492,34.7695518 156.9979,50.3832466 156.9979,68.6147 L156.9952,68.8131 L157.5382,68.8139 C174.3622,68.8139 188.0002,82.4519 188.0002,99.2759 L188.0002,111.6339 C188.0002,124.6439 177.4542,135.1899 164.4442,135.1899 L33.1882,135.1899 C14.8592,135.1899 0.0002,120.3319 0.0002,102.0019 C0.0002,83.8702795 14.5393124,69.1359131 32.5943277,68.8191065 L32.5919,68.6147 L32.5919,68.6147 C32.5919,49.930804 49.4194192,33.9962065 73.0492922,27.8262687 C73.98457,24.9508558 75.3967132,22.1312098 77.2004275,19.4934942 L77.5929,18.9311 C80.5829,14.7321 86.6029,0.3821 86.6029,0.3821 Z" id="Path" fill="#34D1A1"/>
                            <path d="M83.8948,116.5184 C88.3278,118.5904 90.7208,122.8374 89.2408,126.0044 C87.7608,129.1704 82.9668,130.0574 78.5338,127.9844 C74.1008,125.9114 71.7078,121.6644 73.1878,118.4984 C74.6678,115.3324 79.4618,114.4454 83.8948,116.5184 Z M152.3812,98.3745 C155.3332,101.5795 154.2902,107.3445 150.0512,111.2485 C145.8122,115.1525 139.9822,115.7195 137.0292,112.5145 C134.0772,109.3085 135.1202,103.5445 139.3592,99.6405 C143.5992,95.7355 149.4282,95.1685 152.3812,98.3745 Z M53.4782,75.5649 C56.8112,78.5909 56.6432,84.2069 53.1012,88.1069 C49.5592,92.0069 43.9862,92.7159 40.6532,89.6899 C37.3202,86.6639 37.4892,81.0479 41.0302,77.1479 C44.5722,73.2479 50.1452,72.5389 53.4782,75.5649 Z M113.493,53.3579 C117.419,58.0869 117.414,64.5679 113.481,67.8329 C109.549,71.0969 103.178,69.9099 99.252,65.1809 C95.326,60.4519 95.331,53.9709 99.264,50.7069 C103.197,47.4419 109.567,48.6289 113.493,53.3579 Z" id="Shape" fill="#543125"/>
                        </g>
                    </g>
                </g>
                <g id="Expression" transform="translate(409.000000, 34.000000) scale(1 1)" fill="#000">
                    <g id="Expression/Confident" stroke="none" stroke-width="1" fill="none" fill-rule="evenodd">
                        <polygon id="Stroke-5" fill="#000" fill-rule="nonzero" points="33.1977829 19.396766 36.1476171 18.850434 40.4350211 41.9996 30.5607 41.9996 30.5607 38.9996 36.828 38.999"/>
                        <g id="Group-19" transform="translate(7.500000, 6.500000)" fill="#000" fill-rule="nonzero">
                            <path d="M15.1954,35.0725 C15.1954,38.7467625 18.9374817,42.1446933 22.9550435,42.2765329 L23.1964,42.2805 L23.1964,45.2805 C17.5987295,45.2805 12.3696019,40.7145163 12.1996594,35.3417911 L12.1954,35.0725 L15.1954,35.0725 Z" id="Stroke-1"/>
                            <polygon id="Stroke-3" points="25.4714706 12.8831993 28.4213294 12.3370007 32.7076381 35.4861 22.8344 35.4861 22.8344 32.4861 29.101 32.486"/>
                            <polygon id="Stroke-5" points="25.4714706 12.8831993 28.4213294 12.3370007 32.7076381 35.4861 22.8344 35.4861 22.8344 32.4861 29.101 32.486"/>
                            <polygon id="Stroke-7" points="25.4714706 12.8831993 28.4213294 12.3370007 32.7076381 35.4861 22.8344 35.4861 22.8344 32.4861 29.101 32.486"/>
                            <path d="M16.8347,0.0006 L16.8347,3.0006 C12.8614229,3.0006 9.23835727,4.06604738 6.03595274,5.84488405 C4.91508362,6.46749218 3.9293314,7.13343565 3.08971515,7.7961842 L2.78614068,8.04060103 C2.50740693,8.26977369 2.30354376,8.45165644 2.17768642,8.57223303 L2.12127275,8.62734759 L0.000127251271,6.50585241 C0.850658012,5.65546184 2.39872067,4.43350326 4.57919726,3.22231595 C8.05718891,1.29039915 11.9861553,0.0986291869 16.2942223,0.0063786563 L16.8347,0.0006 Z" id="Stroke-9"/>
                            <path d="M28.8944,0.3444 C32.8871281,0.3444 36.5186416,1.41233258 39.717187,3.18913498 C41.5297756,4.19603386 42.8489265,5.21247949 43.6282704,5.95899887 L43.7680602,6.09573983 L41.6467398,8.21706017 C41.5206868,8.09100715 41.2403525,7.83943052 40.815131,7.5037443 C40.087555,6.92936785 39.2326886,6.35179507 38.260363,5.81166502 C35.6146324,4.34195302 32.6384875,3.43381034 29.3845651,3.35065325 L28.8944,3.3444 L28.8944,0.3444 Z" id="Stroke-11"/>
                            <path d="M7.22711504,13.179414 C8.68074249,16.8134826 15.4334605,16.8772382 16.3216227,13.6199964 L16.363529,13.4423258 L19.305271,14.0306742 C18.0084908,20.5145751 7.22968836,20.5936471 4.53765904,14.5213 L4.44168496,14.293586 L7.22711504,13.179414 Z" id="Stroke-13"/>
                            <path d="M32.227115,13.179414 C33.6807425,16.8134826 40.4334605,16.8772382 41.3216227,13.6199964 L41.363529,13.4423258 L44.305271,14.0306742 C43.0084908,20.5145751 32.2296884,20.5936471 29.537659,14.5213 L29.441685,14.293586 L32.227115,13.179414 Z" id="Stroke-15"/>
                        </g>
                    </g>
                </g>
                <g id="Accessories" transform="translate(396.000000, 56.000000) scale(1 1)" fill="#000">
                    <g id="Accessories/None" stroke="none" stroke-width="1" fill="none" fill-rule="evenodd" fill-opacity="0"/>
                </g>
                <g id="Glasses" transform="translate(388.000000, 42.000000) scale(1 1)" fill="#000">
                    <g id="Glasses/Thick" stroke="none" stroke-width="1" fill="none" fill-rule="evenodd">
                        <path d="M43.5452664,3.00012344 C49.2894512,3.02462661 55.021427,4.35163303 57.0857956,6.97405047 C58.0938547,8.25461237 58.6772219,10.0147386 58.9068842,11.9996703 L62.1143968,11.9996703 C62.3440591,10.0147386 62.9274264,8.25461237 63.9354854,6.97405047 C65.9529365,4.41123343 71.4731799,3.0856142 77.0844275,3.00401411 L77.4760146,3.00012344 L77.8967218,3.00012344 L80.8146938,3.0378718 C91.0822714,3.2070925 94.9796428,3.73089949 95.893837,5.69362755 C96.9046181,7.86372269 97.4724619,10.8486323 96.5699433,12.3975628 L96.4345265,12.6077971 C96.2607766,12.8804731 95.8187885,13.7026763 95.3317143,14.6775352 L95.2267324,14.8886255 L94.7966033,15.7746065 C94.1772527,17.0747485 93.6217104,18.3482986 93.2115536,19.4320065 L93.1438986,19.6872046 L93.1438986,19.6872046 C92.2530855,22.9637972 90.4857872,26.1972123 88.6985341,28.3365739 C85.3492115,32.34575 71.1131799,32.6082999 67.0329763,28.4576053 C64.4038322,25.7830393 62.5077693,20.7417692 62.087653,15.9998009 L58.933628,15.9998009 C58.5135117,20.7417692 56.6174488,25.7830393 53.9883048,28.4576053 C49.9081011,32.6082999 35.6720695,32.34575 32.3227469,28.3365739 C30.5354938,26.1972123 28.7681955,22.9637972 27.8773824,19.6872046 L27.8097274,19.4320065 C27.4233065,18.4110132 26.9078403,17.2215143 26.331547,16.0000268 L0,16 L0,12 L24.2628445,12.0004643 C23.6422666,10.3774347 24.1973223,7.69055104 25.127444,5.69362755 C26.0970439,3.61194627 30.4223758,3.14888604 42.1443686,3.0107703 L43.1245592,3.00012344 L43.5452664,3.00012344 Z M32.8542992,9.57832836 C31.1333273,11.9393787 30.7976239,14.9040914 31.4059083,17.8533932 L31.6334165,18.4663592 L31.5539327,18.4983688 C32.1949786,21.035914 33.5135424,23.5284501 35.226974,25.5794466 C37.0849603,27.8034767 48.7860935,28.0192764 51.3034638,25.4584151 C54.5060095,22.2005411 56.3804317,12.9591713 54.2303847,9.80770023 L54.1067801,9.63896051 L53.9809214,9.49277664 C51.015179,6.32545056 35.1904568,6.373287 32.8542992,9.57832836 Z M88.1669819,9.57832836 C85.8662205,6.42184823 70.4825425,6.32762495 67.1839305,9.35102137 L67.0403596,9.49277664 L66.9145009,9.63896051 L66.7908963,9.80770023 C64.6408493,12.9591713 66.5152715,22.2005411 69.7178172,25.4584151 C72.2351876,28.0192764 83.9363207,27.8034767 85.794307,25.5794466 C87.4069485,23.6490969 88.669811,21.3276257 89.347247,18.9456229 L89.4673483,18.4983688 L89.3878645,18.4663592 L89.6153727,17.8533932 L89.6153727,17.8533932 C90.2236571,14.9040914 89.8879537,11.9393787 88.1669819,9.57832836 Z" id="Shape" fill="#000"/>
                    </g>
                </g>
            </g>
        </g>
        <g id="Desk" transform="translate(171.000000, 207.000000)">
            <rect id="Rectangle" fill="#BE6FFB" x="290" y="0" width="257" height="217"/>
            <rect id="Rectangle" fill="#CCA4FF" x="290" y="0" width="26" height="217"/>
            <g id="keyboard" transform="translate(185.000000, 258.000000)">
                <rect id="Rectangle" fill="#C67BFF" x="0" y="0" width="203" height="15"/>
                <rect id="Rectangle" fill="#F2E7FF" x="0" y="0" width="68" height="15"/>
            </g>
            <rect id="Rectangle" fill="#BE6FFB" x="56" y="272" width="520" height="38"/>
            <rect id="Rectangle" fill="#CCA4FF" x="56" y="272" width="174" height="38"/>
            <rect id="Rectangle" fill="#E4CEFF" x="56" y="272" width="257" height="38"/>
            <polygon id="Rectangle" fill="#CCA4FF" points="72 310 106 310 18 700 -6.36626862e-12 700"/>
            <polygon id="Rectangle" fill="#CCA4FF" transform="translate(330.000000, 505.000000) scale(-1, 1) translate(-330.000000, -505.000000)" points="349 310 383 310 295 700 277 700"/>
            <polygon id="Rectangle" fill="#CCA4FF" transform="translate(584.000000, 505.000000) scale(-1, 1) translate(-584.000000, -505.000000)" points="603 310 637 310 549 700 531 700"/>
            <rect id="Rectangle" fill="#870CF7" x="425" y="83" width="63" height="189"/>
            <rect id="Rectangle" fill="#CCA4FF" x="425" y="83" width="18" height="189"/>
        </g>
    </g>
</svg>
