<svg viewBox="169.5 101.724 565 689.461" xmlns="http://www.w3.org/2000/svg" overflow="visible">
    <g id="Master/Character/Avatar" stroke="none" stroke-width="1" fill="none" fill-rule="evenodd">
        <g id="Backdrop" opacity=".5" transform="translate(108.000000, 96.000000) scale(2.2933333333333334 2.2933333333333334)">
            <g id="Backdrop/Pattern 1" stroke="none" stroke-width="1" fill="none" fill-rule="evenodd">
                <path d="M92.1061219,112.097649 C128.069949,145.709936 158.115527,188.745958 156.96819,239.822469 C155.043459,245.542264 159.070221,258.805803 150.810415,260.418316 C136.360442,261.945067 121.636847,259.983557 107.094815,259.984407 C103.299054,259.855338 102.012775,258.578234 102.64526,255.461047 C106.080453,232.199756 97.0935447,209.380016 93.5032141,186.601884 C87.7111208,160.06122 68.1126207,138.411593 46.2833762,123.105028 C36.8796422,119.400238 59.3788771,104.551358 62.2063051,99.536348 C71.7310807,90.768147 84.0065678,107.154816 92.1061219,112.097649 Z M207.402419,34.3973306 C286.666872,65.0553902 325.603076,121.806769 286.882348,203.634535 C265.528829,246.688299 211.160426,254.72706 167.877075,259.831224 C164.934799,260.22731 164.895466,260.141647 165.049378,257.144286 C174.642343,189.186309 130.008846,125.152718 75,88.804424 C102.930673,68.6871663 135.724951,57.2066148 166.434582,42.0891983 C178.874911,35.4804175 193.206643,30.4407132 207.402419,34.3973306 Z M41.1945231,130.990332 C80.3960915,155.231383 88.4244978,201.195245 93,243.659368 C91.9446386,247.675056 94.5251674,258.713285 87.1716817,256.773352 C60.2701799,251.800938 34.0189168,239.368622 14.8675123,219.501177 C-14.4689806,189.222499 4.12325265,153.058248 31.6681845,129.712419 C34.7483077,126.098215 38.150997,129.028189 41.1945231,130.990332 Z" id="Combined-Shape" fill="#EBBF5E" transform="translate(151.000000, 147.000000) rotate(79.000000) translate(-151.000000, -147.000000)"/>
            </g>
        </g>
        <g id="Head" transform="translate(211.000000, -24.000000) scale(3.811023622047244 3.829383886255924)">
            <g id="Head/Bun" stroke="none" stroke-width="1" fill="none" fill-rule="evenodd">
                <circle id="Oval" fill="#000" cx="29" cy="70" r="25"/>
                <g id="Head" transform="translate(22.000000, 72.000000)">
                    <g id="head" transform="translate(0.000000, 0.000100)" fill="#8152ff">
                        <path d="M13,62 L58,62 L58,113.633 C58,127.538 47.926,138.81 35.5,138.81 C23.074,138.81 13,127.538 13,113.633 L13,62 Z" id="SKIN"/>
                        <path d="M60.0525,94 L55.0655,94 C31.8335,94 13.0005,75.167 13.0005,51.935 L13.0005,32.203 C13.0005,14.418 27.4175,0 45.2035,0 L50.7965,0 C68.5825,0 83.0005,14.418 83.0005,32.203 L83.0005,71.052 C83.0005,83.726 72.7265,94 60.0525,94" id="SKIN"/>
                        <path d="M25,58.5 C25,65.403 19.404,71 12.5,71 C5.596,71 0,65.403 0,58.5 C0,51.597 5.596,46 12.5,46 C19.404,46 25,51.597 25,58.5" id="SKIN"/>
                    </g>
                    <path d="M10.067,53.1685 C10.9718309,53.1685 12.2239875,53.3771928 13.5088204,54.0196092 C15.6553998,55.0928989 17.0130325,57.055328 17.10411,59.9021045 L17.109,60.2105 L14.109,60.2105 C14.109,58.3751144 13.4076866,57.3231443 12.1671796,56.7028908 C11.7065142,56.4725581 11.1976823,56.3199085 10.686339,56.2346846 C10.4347302,56.1927498 10.2385731,56.1747448 10.1250097,56.169908 L10.067,56.1685 L10.067,53.1685 Z" id="ear-line" fill="#000"/>
                    <path d="M34.7507501,96.3317762 C25.4557924,93.0436693 20.8185822,84.7387742 18.9822222,73.5681961 C26.2532122,85.6702724 39.4406226,93.8133264 54.5439426,93.9968331 L55.0655,94 L58,94 C50.0632106,98.2298391 42.3134606,99.0070978 34.7507501,96.3317762 Z" id="SHADOW" fill="#000" opacity=".12"/>
                </g>
                <path d="M72.8086245,72 C89.5888073,72 103.384617,84.7181817 104.999901,100.998998 L43.973,100.998 L39.4959832,117.92634 L37.6122668,117.973042 C36.103273,118.003782 34.2071707,118.024615 34.0157661,117.940922 L34,117.92634 L34.0133311,116.935282 C34.0935066,112.893789 34.4987262,104.151433 34.4987262,104.151433 C34.4987262,86.5724777 48.6220557,72.2882344 66.1518229,72.0043074 L66.6840596,72 L72.8086245,72 Z" id="Path" fill="#000"/>
            </g>
        </g>
        <g id="Expression" transform="translate(390.000000, 339.000000) scale(3.8360655737704916 3.8360655737704916)" fill="#000">
            <g id="Expression/Happy" stroke="none" stroke-width="1" fill="none" fill-rule="evenodd">
                <path d="M20.5607,22 C20.5607,20.343 19.2177,19 17.5607,19 C15.9037,19 14.5607,20.343 14.5607,22 C14.5607,23.657 15.9037,25 17.5607,25 C19.2177,25 20.5607,23.657 20.5607,22" id="Fill-1" fill="#000"/>
                <path d="M46.5607,22 C46.5607,20.343 45.2177,19 43.5607,19 C41.9037,19 40.5607,20.343 40.5607,22 C40.5607,23.657 41.9037,25 43.5607,25 C45.2177,25 46.5607,23.657 46.5607,22" id="Fill-3" fill="#000"/>
                <polygon id="Stroke-5" fill="#000" points="33.1977829 19.396766 36.1476171 18.850434 40.4350211 41.9996 30.5607 41.9996 30.5607 38.9996 36.828 38.999"/>
                <path d="M21.9219,41.586 C21.9219,45.2602625 25.6639817,48.6581933 29.6815435,48.7900329 L29.9229,48.794 L29.9229,51.794 C24.3252295,51.794 19.0961019,47.2280163 18.9261594,41.8552911 L18.9219,41.586 L21.9219,41.586 Z" id="Stroke-7" fill="#000"/>
                <path d="M23.0607,9 L23.0607,12 C19.8342736,12 16.8913939,12.8655529 14.2891644,14.3112359 C13.508469,14.7449556 12.8086718,15.2043948 12.1956619,15.6654963 L11.8964164,15.8960741 C11.548672,16.1706093 11.3051282,16.3844813 11.1717567,16.5115787 L11.1213602,16.5606602 L9.00003983,14.4393398 C9.71719288,13.7221868 11.0118484,12.7000903 12.8322356,11.6887641 C15.7235813,10.0824609 18.9894549,9.08904431 22.5704367,9.00569674 L23.0607,9 Z" id="Stroke-9" fill="#000"/>
                <path d="M37.0607,9 C40.8342736,9 44.2663939,10.0094471 47.2891644,11.6887641 C48.9957774,12.6368824 50.2403215,13.5944668 50.980139,14.3013772 L51.1213602,14.4393398 L49.0000398,16.5606602 L48.8084832,16.3819961 C48.6965748,16.2822525 48.549249,16.1566104 48.3676199,16.0099419 L48.2249836,15.8960741 C47.5437467,15.3582556 46.7430469,14.8172422 45.8322356,14.3112359 C43.3601176,12.937837 40.5805627,12.0880056 37.5425302,12.006456 L37.0607,12 L37.0607,9 Z" id="Stroke-11" fill="#000"/>
            </g>
        </g>
        <g id="Accessories" transform="translate(339.000000, 426.000000) scale(3.8421052631578947 3.8333333333333335)" fill="#000">
            <g id="Accessories/None" stroke="none" stroke-width="1" fill="none" fill-rule="evenodd" fill-opacity="0"/>
        </g>
        <g id="Glasses" transform="translate(303.000000, 371.000000) scale(3.831578947368421 3.8125)" fill="#000">
            <g id="Glasses/None" stroke="none" stroke-width="1" fill="none" fill-rule="evenodd" fill-opacity="0"/>
        </g>
    </g>
</svg>
