<svg viewBox="-50.24 39.638 1044.471 938.087" xmlns="http://www.w3.org/2000/svg" overflow="visible">
    <g id="Master/Comps/Plants" stroke="none" stroke-width="1" fill="none" fill-rule="evenodd">
        <path d="M760,800 C723.088341,803.796831 694.591365,836.274693 678,864 C709.090924,847.199116 736.569856,825.034385 760,800 M713,691 C645.603971,707.100635 577.329681,764.130864 541,818 C605.786891,784.585254 659.266593,737.192827 713,691 M292.033263,88 C214.096861,96.3389491 135.632893,199.08316 130,258 C179.610562,235.497649 223.754432,205.969262 261.412337,169.324655 C276.612459,156.124015 321.885942,101.672692 292.033263,88 M444,123.905735 C377.804226,108.22506 214.184918,300.630543 185,354 C288.79178,302.500184 392.249188,222.607523 444,123.905735 M386,769.629493 C387.913349,770.752787 389.826698,771.87608 391.740047,773 C392.163397,770.934266 391.853125,767.666388 393.141791,767.018695 C417.600943,757.340221 439.428293,742.765562 463.391008,731.853028 C504.849664,706.499755 544.009543,677.967467 581.769747,648.244299 C623.909625,611.542317 680.659905,582.345439 707,534 C585.559213,552.462069 437.859001,670.280883 386,769.629493 M701,333 C557.424207,366.410105 388.093005,509.329195 302,617 C373.422674,580.090959 438.084251,537.632897 504.712781,494.430035 C545.799926,471.833968 580.718337,442.956618 617.715546,415.030958 C644.353978,387.829411 684.371001,365.733013 701,333 M646,158.311212 C609.475885,154.6479 577.481507,184.238792 546.492355,199.053926 C429.210055,271.990791 329.725916,368.685748 252,476 C347.781259,426.626844 431.526775,359.570281 512.257306,291.896811 C535.277246,275.490345 554.554208,255.414316 576.662947,238.045925 C603.099548,213.46779 633.395274,192.10982 646,158.311212 M483.894742,884.210629 C484.123686,880.465845 486.568975,872.374873 486.05523,866.528636 C464.546209,871.932462 443.28613,880.704646 421.807452,887.029115 C395.966423,895.173503 362.219237,894.22898 341.571515,875.933016 C324.556556,856.184761 334.882486,831.553645 338.391813,809.45571 C302.597922,813.160903 263.294016,827.713968 226.122323,813.658616 C170.67648,787.734829 212.237416,709.208103 230.299174,670.954619 C203.781656,668.383732 160.138846,682.554715 148.345467,652.856608 C136.983082,604.805979 169.796562,560.937518 193.673637,520.727747 C83.6763489,537.401746 108.172676,455.493465 140.025556,394.500424 C157.048101,368.864456 126.011696,379.328988 111.418579,369.434437 C74.6027157,348.256516 104.349586,302.054085 97.2557673,273.937724 C74.3772195,271.982065 53.2033398,260.562955 54.1404934,237.458911 C51.203527,170.213042 94.6408397,104.797145 153.738755,66.5386338 C167.569185,59.3921852 191.706235,34.947711 205.329787,51.8284623 C142.618417,54.976243 47.8886649,193.795945 76.6563165,250.031181 C101.611222,287.503533 107.663069,246.401399 115.936087,226.575848 C135.279104,165.846745 239.005945,37.5299092 316.151826,87.9459301 C345.311855,136.696625 236.637201,221.396369 191.381438,244.663804 C170.664067,257.975101 147.156613,267.393306 122.970601,273.660588 C115.785067,282.265611 116.816695,296.754577 115.237532,307.371188 C113.474939,330.32441 111.188256,374.058388 150.011518,367.532823 C172.068074,346.1205 184.755162,315.508663 204.92086,292.036991 C251.59649,235.826263 305.376283,184.380882 366.160937,140.786414 C380.687853,131.813763 395.876086,123.560029 410.587123,114.829321 C432.712638,102.576292 478.451114,116.329372 461.844393,145.037709 C437.364616,194.634893 395.306484,234.268398 352.707714,271.442876 C315.305009,301.494786 275.699751,329.983804 232.083834,352.195484 C211.400253,365.366014 177.092431,365.349047 166.281719,388.08609 C154.473169,416.875495 103.833083,512.504178 167.145776,512.817762 C212.204316,503.66978 216.237042,490.676465 239.196961,457.050702 C268.163215,417.248779 299.796805,379.148002 334.205998,343.121656 C390.444181,282.761438 551.762182,148.964108 635.620538,140.366627 C738.179902,162.000156 557.383724,288.519068 526.828654,316.715239 C432.918136,389.887156 336.080995,460.869641 225.800974,512.256578 C191.777263,557.735064 112.824655,711.465405 244.510947,647.131657 C351.56851,516.773697 517.174385,352.028323 698.775315,318.241683 C812.368818,337.903215 504.259043,526.239662 472.049644,545.527909 C424.659598,577.539877 373.925038,605.238964 322.763621,631.939484 C302.431041,644.347734 273.502026,647.936669 262.823715,670.099961 C206.111783,762.756822 193.211611,849.922506 342.171459,787.47529 C358.519584,773.041625 363.733578,750.239854 377.439192,733.599789 C413.397894,682.933655 456.389731,635.02505 508.730348,597.736827 C552.124217,566.923894 600.071452,539.166992 653.783665,526.672647 C679.552287,514.726288 724.973552,506.337444 728.789057,542.671089 C708.450271,599.561773 588.951803,676.171174 534.467249,712.66067 C492.312575,740.083878 447.296789,763.656098 400.774248,784.352018 C389.429104,791.387864 369.200653,791.090618 365.461692,804.811649 C359.543626,828.281436 336.642321,884.351396 383.124177,879.855016 C549.243107,839.642731 479.257246,822.136697 589.642084,733.154865 C622.239721,708.386752 658.738373,688.259557 698.566369,674.762246 C712.96709,668.415154 723.491622,674.277102 733.405176,683.041744 C753.671555,701.073142 689.62031,743.491827 676.475334,757.547808 C629.392845,792.87346 578.672076,825.445983 523.943407,850.085269 C505.109308,858.205776 501.657907,897.078259 509.442695,912.52243 C529.831131,935.955769 612.501323,890.241624 639.813249,882.808613 C663.417246,874.004379 664.701953,843.736291 683.271249,828.336737 C703.114219,807.831859 727.698814,783.060604 760.990869,786.729978 C773.139387,788.571891 780.889007,804.027375 774.973009,813.86034 C752.064119,851.271106 707.32348,867.724529 670.505548,891.116391 C658.199803,904.266812 664.264063,926.347151 661.440189,942.63844 C644.51143,947.085803 651.060472,909.210003 649.078588,900.097212 C607.51972,919.438247 488.410182,968.625697 483.894742,884.210629" id="Fill-1" fill="#FFEECE"/>
        <g id="Plants/Big Plant" transform="translate(415.000000, 100.000000) scale(1.3426724137931034 1.3425925925925926)">
            <g id="Plants/Big Plant/Big Plant 1" stroke="none" stroke-width="1" fill="none" fill-rule="evenodd">
                <g id="Group" transform="translate(46.000000, 70.000000)">
                    <path d="M207.727381,304.6152 C207.727381,304.6152 201.167381,281.8972 206.613381,267.2852 C212.059381,252.6712 218.401381,244.0572 231.889381,228.6952 C245.377381,213.3332 243.877381,203.9692 258.489381,186.7352 C273.101381,169.4992 298.203381,165.7532 316.561381,156.7612 C334.919381,147.7692 335.667381,138.0292 347.281381,131.8112 C358.895381,125.5912 374.631381,131.8112 374.631381,131.8112 C374.631381,131.8112 355.899381,137.2792 337.167381,155.6372 C318.435381,173.9952 323.515381,186.5032 308.529381,210.0552 L298.895381,220.2812 L207.727381,304.6152 Z" id="Fill-70" fill="#000"/>
                    <path d="M181.298781,334.998 C181.298781,334.998 192.728781,295.732 194.298781,276.25 C195.868781,256.768 196.260781,182.956 178.202781,143.302 C160.140781,103.648 143.258781,91.482 135.014781,81.666 C126.768781,71.848 125.984781,61.246 113.028781,50.646 C100.072781,40.046 78.1187807,39.83 69.8407807,32.586 C60.4187807,24.342 23.9047807,3.534 5.45278072,-2.84217094e-14 C5.45278072,-2.84217094e-14 24.6907807,25.912 31.7567807,53.788 C38.8247807,81.662 29.4027807,95.796 35.2907807,109.932 C41.1807807,124.064 53.3507807,137.022 61.5967807,153.51 C69.8407807,170 76.9087807,213.58 83.5827807,224.182 C130.982781,255.596 164.020781,301.33 183.942781,360.79 L181.298781,334.998 Z" id="Fill-71" fill="#870CF7"/>
                    <path d="M175.561381,460.2596 C175.435381,459.5296 162.495381,387.1896 117.457381,383.9316 C93.7873807,382.1696 87.2593807,419.4376 87.1953807,419.8156 L84.3733807,419.3396 C84.4413807,418.9356 86.1033807,409.2916 90.9353807,399.7116 C97.4833807,386.7276 106.725381,380.2976 117.665381,381.0756 C137.303381,382.4976 154.041381,396.6196 166.071381,421.9136 C175.067381,440.8276 178.351381,459.5876 178.381381,459.7756 L175.561381,460.2596 Z" id="Fill-72" fill="#000"/>
                    <path d="M184.468581,459.9628 C185.914581,422.2988 185.058581,384.5348 181.242581,347.0488 C177.424581,309.5748 170.516581,272.3708 159.754581,236.2588 C149.012581,200.1568 134.368581,165.1728 115.652581,132.4508 C114.584581,130.3468 113.280581,128.3808 112.052581,126.3728 L108.332581,120.3648 L100.892581,108.3448 C95.6365807,100.5288 90.1405807,92.8668 84.7745807,85.1148 L67.2645807,62.8988 L48.5445807,41.6688 C54.9385807,48.6028 61.4025807,55.4908 67.7525807,62.4828 L85.5805807,84.5088 C91.0565807,92.2048 96.6665807,99.8168 102.038581,107.5888 L109.564581,119.6028 L113.326581,125.6128 C114.568581,127.6228 115.884581,129.5888 116.966581,131.6928 C135.900581,164.4328 150.768581,199.4768 161.724581,235.6668 C172.702581,271.8648 179.814581,309.1808 183.824581,346.7788 C187.840581,384.3928 188.684581,422.2948 187.328581,460.0728 L184.468581,459.9628 Z" id="Fill-73" fill="#000"/>
                    <path d="M1.50378072,490.0682 C1.50378072,490.0682 0.80978072,475.3122 9.31578072,466.2862 C17.8217807,457.2602 33.0977807,457.9522 38.6517807,453.4422 C44.2077807,448.9282 46.6377807,441.6362 52.5397807,438.6862 C58.4417807,435.7342 65.7337807,441.6362 78.2317807,435.3862 C90.7297807,429.1362 92.9877807,386.6082 95.7637807,380.8782 C98.5417807,375.1502 119.893781,357.6162 119.893781,357.6162 C119.893781,357.6162 113.123781,361.0122 104.617781,360.7902 C96.1117807,360.5682 76.4957807,346.1602 71.2877807,347.0262 C66.0797807,347.8962 51.1457807,359.8722 48.5457807,363.8662 C45.9437807,367.8602 43.6857807,378.6202 32.0557807,389.2102 C20.4257807,399.8002 13.6557807,405.8762 11.2237807,412.2982 C8.79578072,418.7222 3.41378072,426.0142 3.93378072,431.0462 C4.45578072,436.0822 4.67178072,452.9882 3.67778072,456.5342 C2.68578072,460.0822 -2.51621928,481.0402 1.50378072,490.0682" id="Fill-74" fill="#BE6FFB"/>
                    <path d="M87.7673807,419.578 C87.7673807,419.578 88.3813807,417.162 89.5673807,412.854 C92.5193807,402.118 100.055381,382.928 118.055381,384.23 C137.369381,385.626 150.375381,397.402 159.565381,412.754 C159.565381,412.754 153.303381,400.194 154.305381,393.43 C155.307381,386.664 162.697381,378.774 161.445381,371.758 C160.193381,364.742 149.795381,364.368 142.905381,360.86 C136.015381,357.352 132.759381,351.84 125.117381,351.84 C117.475381,351.84 100.939381,373.386 95.9293807,378.022 C90.9193807,382.656 87.7673807,419.578 87.7673807,419.578" id="Fill-75" fill="#870CF7"/>
                    <path d="M186.898381,460.0604 L184.900381,459.9744 C189.132381,362.0744 229.004381,279.8824 306.796381,208.7024 L308.146381,210.1804 C230.766381,280.9824 191.106381,362.7184 186.898381,460.0604" id="Fill-76" fill="#000"/>
                    <path d="M302.534981,216.4178 C279.742981,234.2718 232.224981,247.9638 218.400981,270.2818 C200.552981,299.0978 206.570981,336.9798 208.966981,348.4158 C227.102981,302.1478 258.716981,259.4658 298.894981,220.2818 C300.244981,218.9638 301.328981,217.7978 302.534981,216.4178" id="Fill-77" fill="#BE6FFB"/>
                    <path d="M217.803581,576.494 L153.533581,576.494 C141.297581,576.494 131.377581,566.574 131.377581,554.338 L131.377581,460.018 L239.959581,460.018 L239.959581,554.338 C239.959581,566.574 230.039581,576.494 217.803581,576.494" id="Fill-78" fill="#CCA4FF"/>
                </g>
            </g>
        </g>
        <g id="Character" transform="translate(29.000000, 73.000000)">
            <g id="Legs" transform="translate(32.000000, 315.000000) scale(0.974025974025974 0.9765100671140939)">
                <g id="Legs/Pants Stride" stroke="none" stroke-width="1" fill="none" fill-rule="evenodd">
                    <g id="Right-leg" transform="translate(340.912300, 0.000075)">
                        <path d="M351.570952,557.400568 L292.421642,588.268621 C289.23919,589.928579 285.361168,588.667216 283.759463,585.45079 C246.439243,510.875624 199.230368,417.989682 161.287429,343.131708 C156.535206,333.763189 159.73662,322.39145 168.445702,317.732295 L207.213943,296.98589 C215.92103,292.326735 226.838569,296.144639 231.593785,305.518281 C251.975853,345.704643 292.982488,426.593799 313.314658,466.827296 C327.03044,493.982986 340.71828,521.075146 354.368197,548.438842 C356.005828,551.729043 354.753405,555.740609 351.570952,557.400568" id="SKIN-DARKER" fill="#8C6345"/>
                        <path d="M86.3018681,0.553047184 L3.58722884,44.8848046 C0.925720594,46.310596 0.289077427,50.4516434 2.16502598,54.1345105 C47.1498124,143.092204 210.139458,465.665446 251.855077,548.999925 L347.0877,498.490422 C306.772296,419.027412 139.536031,92.5806506 95.7585677,7.05572162 C94.3243715,3.06432593 89.8698682,-1.62510275 86.3018681,0.553047184" id="Fill-3" fill="#051026"/>
                        <polygon id="Fill-5" fill="#FFF" points="351.0877 540.556344 280.284523 577.999925 267.0877 551.628227 337.798704 513.999925"/>
                        <path d="M343.719319,525.999925 C338.839171,528.596035 321.243031,537.953385 304.83617,546.680031 C313.20814,560.743411 282.702962,576.912582 276.474497,561.764307 C274.326992,562.907008 273.0877,563.566616 273.0877,563.566616 L289.211494,595.999925 L392.0877,542.206257 L386.757446,531.444014 C382.48344,522.799949 353.425603,535.562693 343.719319,525.999925" id="Fill-7" fill="#0A1B45"/>
                    </g>
                    <path d="M243,0 C243,55.228475 289.562386,100 347,100 C404.437614,100 451,55.228475 451,0" id="Path" fill="#0A1B45"/>
                    <g id="Left-Leg" transform="translate(15.000400, 0.000075)">
                        <path d="M30.239127,557.161414 L6.48321118,491.091216 C5.21392545,487.532681 6.52914914,483.643194 9.42224179,482.410903 C17.7749608,479.121599 25.640338,474.891582 33.6914643,471.031892 C59.328839,457.46285 83.4372787,440.300156 104.929252,420.190817 C135.662744,390.774378 160.646002,356.076536 180.175626,316.548494 C182.322726,312.342953 185.979787,309.372897 190.199089,307.916068 C200.492187,302.022777 233.664385,326.382352 243.12361,329.170438 C247.552628,331.433896 250.627475,335.548984 251.969663,340.466445 C253.653389,376.004969 183.860649,458.895203 157.588132,483.422914 C141.92229,498.068881 124.074395,512.379639 106.514112,524.333293 C94.3745071,532.319777 81.4759276,540.045543 68.7441229,546.868906 C60.3704323,549.247293 34.5433138,569.214035 30.239127,557.161414" id="SKIN" fill="#B18058"/>
                        <path d="M327.589239,-7.48875118e-05 L234.263966,2.49908329 C229.168425,2.66739829 228.517611,9.87191949 228.971481,14.5112349 C230.778964,179.189353 185.88582,369.76348 39.9996,452.672467 L91.3448955,552.999925 C227.004045,476.171584 302.743354,318.80132 323.872303,161.436382 C326.849451,141.283324 342.647926,1.01301097 327.589239,-7.48875118e-05" id="Fill-12" fill="#0A1B45"/>
                        <path d="M44.8850906,557.999925 L13.9996,479.217498 C21.9808145,475.635354 30.8073943,471.323017 38.4599114,466.999925 L74.9996,542.961589 C65.5638745,548.266517 54.7138457,553.5865 44.8850906,557.999925" id="Fill-14" fill="#FFF"/>
                        <path d="M62.9996,549.37113 C60.6360448,544.095785 52.1153883,525.069219 44.1695419,507.327972 C31.6000913,515.152677 16.6218644,483.646376 30.4343923,476.662236 C29.3943075,474.338445 28.7933695,472.999925 28.7933695,472.999925 C20.8193856,477.171895 8.37755891,482.485544 -0.00040000003,485.956334 L40.2423423,600.999925 L52.6550265,595.76714 C63.0086442,589.458645 52.9112793,557.402253 62.9996,549.37113" id="Fill-16" fill="#0A1B45"/>
                        <path d="M281.629623,1.99992511 L279.631892,2.05201959 C285.059729,189.839841 231.3627,406.728274 64.9996,501.133029 L65.9555146,502.999925 C233.003836,408.206056 287.085428,190.604248 281.629623,1.99992511" id="Fill-18" fill="#FFF"/>
                    </g>
                </g>
            </g>
            <g id="Body" transform="translate(-0.000000, 29.000000) scale(0.9745075318655851 0.9734848484848485)">
                <g id="Body/Bomber Jacket Wave 2" stroke="none" stroke-width="1" fill="none" fill-rule="evenodd">
                    <g id="Group-49" transform="translate(104.000000, -22.000000)">
                        <path d="M545.5928,31.687 L545.5928,31.687 C550.0588,30.787 554.4918,30.841 558.6998,31.789 C560.8038,32.261 562.8508,32.957 564.8158,33.861 C566.7638,34.769 568.6138,35.89 570.3578,37.203 C577.3508,42.429 582.3748,50.892 583.4028,60.882 C585.6638,82.756 586.0658,105.057 583.6548,127.672 C582.3788,139.416 580.4438,151.234 577.3528,163.07 C574.2928,174.895 570.2518,186.746 564.6738,198.36 C563.3478,201.271 561.7598,204.14 560.2548,207.014 L557.7858,211.281 L556.5308,213.406 L555.1838,215.507 C551.6628,221.125 547.5798,226.564 543.1308,231.78 C534.2108,242.199 523.2758,251.58 510.9028,258.73 C504.7598,262.382 498.2068,265.296 491.5778,267.779 L486.5668,269.513 C484.8868,270.033 483.1968,270.497 481.5088,270.976 C480.6638,271.209 479.8188,271.457 478.9728,271.672 L476.4308,272.248 C474.7358,272.617 473.0348,273.022 471.3398,273.337 C457.7688,275.795 444.2568,276.294 431.4708,275.149 C418.6478,274.057 406.4068,271.619 394.7428,268.368 C383.0738,265.109 371.9648,261.034 361.2848,256.462 C356.3158,254.396 352.1578,251.347 348.7388,247.922 C345.4108,244.388 342.8518,240.443 341.2848,236.233 C339.7258,232.008 339.0678,227.618 339.3708,223.298 C339.6698,218.985 340.9658,214.682 343.1858,210.716 C345.4168,206.731 348.3638,203.458 351.7638,200.795 C355.1618,198.139 358.9838,196.154 362.9578,194.902 C366.9408,193.635 371.1058,192.972 375.1998,193.168 C379.3218,193.223 383.3738,194.187 387.2628,195.791 C404.0618,203.011 421.1338,208.042 436.9258,209.374 C437.9228,209.501 438.8878,209.521 439.8578,209.567 L442.7658,209.717 L445.6068,209.705 C446.5558,209.711 447.5048,209.725 448.4168,209.645 L451.1828,209.503 C452.1008,209.451 452.9778,209.309 453.8778,209.227 C455.6968,209.101 457.3898,208.717 459.1368,208.475 C465.9598,207.138 472.1698,204.926 477.7748,201.646 C483.3918,198.393 488.4908,194.105 493.0818,188.755 C495.3598,186.064 497.5698,183.2 499.5478,180.001 L500.3138,178.829 L501.0298,177.595 L502.4708,175.123 C503.3498,173.382 504.3188,171.724 505.1268,169.897 C506.8708,166.365 508.3518,162.555 509.7728,158.692 C510.4268,156.715 511.1448,154.78 511.7168,152.738 C512.0138,151.724 512.3408,150.729 512.6208,149.703 L513.4388,146.607 C515.6148,138.338 517.0548,129.596 518.0248,120.693 C519.8718,103.519 519.6168,85.601 517.7558,67.707 C516.9198,59.566 519.4698,51.705 524.3738,45.172 C525.6048,43.543 527.0038,42.001 528.5298,40.575 C530.0398,39.152 531.6958,37.841 533.4788,36.675 C537.0468,34.345 541.1258,32.586 545.5928,31.687" id="SKIN-DARKER" fill="#8C6345"/>
                        <path d="M564.6104,7.2221 C567.0144,6.6061 569.4764,7.0891 571.4844,8.4071 C573.4744,9.7281 575.0244,11.8801 575.6514,14.5151 C580.9474,37.5211 584.2304,61.0971 585.0884,85.1111 C585.2114,87.8631 584.1974,90.4011 582.6144,92.2131 C581.0214,94.0311 578.7784,95.1371 576.2864,95.1461 C571.3244,95.1351 567.2584,90.9131 567.0984,85.7251 C566.2874,62.9971 563.1694,40.5211 558.1094,18.5491 C557.5094,16.0351 557.9474,13.5261 559.1314,11.4721 C560.2984,9.4261 562.1994,7.8391 564.6104,7.2221" id="SKIN-DARKER" fill="#8C6345"/>
                        <path d="M546.168,0.3432 C548.556,-0.3438 550.999,0.0302 553.027,1.2202 C555.065,2.4052 556.664,4.4112 557.303,6.9322 C559.859,16.7102 562.039,26.5932 563.817,36.5652 C564.748,41.7122 561.37,46.5022 556.453,47.2252 C551.535,47.9482 546.976,44.5762 546.097,39.7222 C544.404,30.2322 542.326,20.8112 539.888,11.4842 C539.279,9.0822 539.656,6.6592 540.77,4.6482 C541.895,2.6362 543.779,1.0302 546.168,0.3432" id="SKIN-DARKER" fill="#8C6345"/>
                        <path d="M530.2579,2.8754 C535.0109,1.4604 540.0129,4.2054 541.3179,9.0374 C543.8219,18.4004 545.9659,27.8614 547.7229,37.3954 C548.5919,42.3264 545.2789,46.9394 540.3409,47.6954 C535.4519,48.4434 530.8359,45.2904 530.0199,40.6514 C528.3509,31.5974 526.3129,22.5974 523.9279,13.6834 C522.6959,9.1234 525.4829,4.2974 530.2579,2.8754" id="SKIN-DARKER" fill="#8C6345"/>
                        <path d="M513.7628,40.8725 C516.2028,40.4005 518.5888,40.8795 520.4818,42.0635 C522.3468,43.2495 523.6918,45.1455 524.0918,47.4305 C525.5708,56.3155 526.6808,65.2395 527.3888,74.1555 C527.5928,76.4525 525.4788,79.3735 523.3848,81.6485 C521.2518,83.9295 519.0528,85.5795 519.0528,85.5795 C518.9518,82.9035 516.6618,82.1235 514.3138,80.8275 C511.9568,79.5245 509.6618,77.7375 509.2198,72.9755 C508.5508,65.4585 507.5818,57.9165 506.3358,50.3865 C505.9568,48.2295 506.6178,46.1035 507.9658,44.3805 C509.2868,42.6615 511.3238,41.3435 513.7628,40.8725" id="SKIN-DARKER" fill="#8C6345"/>
                        <path d="M516.9297,14.5844 C521.7067,13.2714 526.6187,15.9524 527.7597,20.6054 C531.5677,36.1384 534.2767,51.9154 535.8657,67.7434 C536.2907,72.4914 532.5777,76.6014 527.5927,76.9214 C522.6587,77.2424 518.3457,73.9214 517.9507,69.4974 C516.4507,54.5754 513.8907,39.6224 510.2737,24.8764 C509.2007,20.4994 512.1207,15.9034 516.9297,14.5844" id="SKIN-DARKER" fill="#8C6345"/>
                        <path d="M591.245,91.6918 C591.397,103.1468 591.01,114.7078 589.833,126.3788 C590.225,127.1128 590.589,127.9478 590.908,129.0338 C591.229,130.1128 591.514,131.3498 591.766,132.7398 C592.216,135.5268 592.535,138.9218 592.592,142.8828 C592.723,150.7998 591.934,160.9928 589.398,172.9778 C586.827,184.9428 582.627,198.7538 575.221,213.4388 C571.503,220.7648 567.01,228.2908 561.514,235.7268 C556.037,243.1608 549.483,250.4838 541.898,257.2228 C534.326,263.9638 525.694,270.0908 516.365,275.1138 C507.044,280.1488 497.058,284.0548 487.018,286.7178 C476.971,289.3958 466.897,290.8508 457.202,291.3638 C447.491,291.8818 438.233,291.3448 429.453,290.3098 C420.634,289.3048 412.491,287.5028 404.746,285.5398 C400.956,284.4618 397.149,283.4628 393.628,282.2328 C391.85,281.6358 390.086,281.0438 388.339,280.4568 C386.622,279.8378 384.955,279.1858 383.293,278.5528 C370.034,273.4438 358.857,267.6868 349.612,262.2298 C342.959,259.1898 337.351,254.9838 332.942,250.1518 C330.76,247.7148 328.842,245.1478 327.241,242.4738 C325.678,239.7628 324.409,236.9648 323.449,234.1238 C322.97,232.7028 322.567,231.2708 322.244,229.8348 C321.935,228.3818 321.707,226.9218 321.555,225.4628 C321.252,222.5448 321.264,219.6288 321.595,216.7538 C322.254,210.9998 345.9881,170.8329 348.6671,171.0139 C363.803642,171.0139 406.855,188.2108 416.792,190.0908 C426.737,192.0618 436.232,193.0558 444.374,192.8608 C445.372,192.8018 446.42,192.8538 447.374,192.7568 C448.332,192.6698 449.293,192.6098 450.248,192.5578 C451.154,192.4248 452.06,192.3168 452.968,192.2298 C453.864,192.1228 454.689,191.9228 455.556,191.8128 C458.922,191.2018 461.932,190.3778 464.71,189.3528 C470.231,187.2968 475.067,184.4468 479.883,180.2098 C484.622,175.9408 489.222,170.4418 493.118,164.2508 C497.08,158.1338 500.396,151.5118 503.173,145.3708 C508.736,133.0618 512.301,122.7008 515.2,118.9658 C516.07,110.3928 516.37,101.5988 516.252,92.7348 L591.245,91.6918 Z" id="Fill-13" fill="#CC2935"/>
                        <path d="M589.8721,125.9956 L513.7361,118.5406 C514.5661,110.1126 514.8691,101.4736 514.7501,92.7566 L591.2431,91.6916 C591.3971,103.0206 591.0061,114.4566 589.8721,125.9956" id="Fill-16" fill="#B52935"/>
                        <path d="M384.9171,320.1264 L170.4361,320.1264 L170.4361,213.0644 C170.4361,189.5964 189.4611,170.5704 212.9301,170.5704 L342.4231,170.5704 C365.8921,170.5704 384.9171,189.5964 384.9171,213.0644 L384.9171,320.1264 Z" id="Fill-18" fill="#D7DBE2"/>
                        <path d="M316.4356,170.5707 C316.4356,187.1267 308.4356,208.1267 281.9356,208.1267 C250.4356,208.1267 237.4356,190.2077 237.4356,170.5707 L316.4356,170.5707 Z" id="SKIN" fill="#B18058"/>
                        <path d="M323.5704,382.5366 C349.4354,383.1266 371.4354,381.1266 394.8814,373.2826 C397.0454,372.5576 398.8854,371.1796 398.6864,368.9046 L395.5304,332.8176 C371.4494,333.8646 346.3014,338.5416 319.8324,342.6906 C319.3344,355.6106 318.8264,367.5366 318.3594,377.8836 C318.2314,380.7336 320.7174,382.4716 323.5704,382.5366" id="Fill-22" fill="#CC2935"/>
                        <path d="M157.9874,333.9692 L155.1254,366.6922 C154.7884,370.5382 157.1184,374.1442 160.7864,375.3492 C185.3734,383.4272 220.5874,387.5732 243.7034,389.1932 C247.3644,389.4492 250.5854,386.8472 251.1374,383.2182 C252.7044,372.9312 253.8344,361.5062 254.6094,349.3552 C229.9024,348.3932 185.0784,344.0842 157.9874,333.9692" id="Fill-24" fill="#CC2935"/>
                        <path d="M198.7989,172.3735 C181.3069,177.6365 168.5629,193.8585 168.5629,213.0645 L157.9869,333.9695 C185.0779,344.0845 229.9029,348.3935 254.6099,349.3545 C257.6619,301.4495 261.4359,205.1265 232.4359,190.1265 C232.4359,190.1265 211.4359,168.1265 198.7989,172.3735" id="Fill-26" fill="#FA3239"/>
                        <path d="M319.8321,342.6909 C347.4361,344.1269 370.4361,342.1269 395.5301,332.8179 L385.0561,213.0649 C385.0561,191.6699 369.2421,173.9759 348.6671,171.0139 C346.0001,181.3779 336.3311,184.6299 322.4361,191.1269 C323.0891,235.5279 321.5571,298.0039 319.8321,342.6909" id="Fill-28" fill="#FA3239"/>
                        <path d="M175.7129,433.9565 L175.7119,433.9565 C171.1809,434.5615 166.8039,434.2335 162.6819,433.6755 C160.6059,433.3995 158.6289,433.0525 156.7649,432.6885 C154.8249,432.3605 153.0899,431.9785 151.3979,431.6585 C148.0649,430.9795 145.1779,430.4975 142.9269,429.8605 C140.6489,429.2205 138.9299,428.3805 137.4099,426.6925 C134.0949,422.9895 128.5389,418.7345 121.4509,414.5695 C114.3889,410.3665 106.0239,406.2005 96.9749,401.6535 C86.6849,396.4485 75.4119,390.8115 63.6209,382.9255 C57.7439,378.9915 51.7109,374.3455 45.8689,368.7755 C40.0289,363.2315 34.4069,356.4775 29.7389,348.8045 C25.0719,341.1105 21.5679,332.4245 19.4769,323.7385 C17.3459,315.0225 16.7139,306.4145 16.8969,298.3355 L17.0119,295.3255 C17.0479,294.3295 17.0979,293.3215 17.2089,292.2635 C17.4249,290.1685 17.5509,288.1015 17.8989,285.9905 C18.5029,281.7885 19.3629,277.5615 20.5429,273.3795 C22.8809,265.0115 26.4549,256.8545 30.9629,249.4955 C35.4639,242.1205 40.8459,235.5505 46.6059,229.8845 C52.3789,224.2275 58.5079,219.4325 64.7199,215.2945 C77.1769,207.0365 89.9089,201.2985 102.4679,196.7745 C115.0459,192.2795 127.5249,189.0335 139.8969,186.5145 C152.2709,184.0065 164.5489,182.2285 176.7689,180.9525 C188.0629,179.7745 198.5259,182.8565 205.9829,188.5135 C213.4709,194.1825 217.9489,202.3835 218.0999,211.4885 C218.2499,220.6045 214.2219,228.9035 207.9709,235.1405 C201.6899,241.3895 193.1799,245.5995 183.6009,246.5985 C173.2049,247.6835 162.9549,249.1825 153.0409,251.1925 C143.1349,253.2025 133.5609,255.7455 124.7229,258.9095 C115.9009,262.0635 107.8129,265.8885 101.3119,270.2225 C98.0629,272.3825 95.2229,274.6555 92.8689,276.9565 C90.5289,279.2675 88.6949,281.5915 87.2739,283.9225 C85.8519,286.2605 84.8229,288.6125 84.0939,291.1905 C83.7259,292.4775 83.4559,293.8345 83.2439,295.2575 C83.0979,295.9475 83.1109,296.7295 83.0039,297.4585 C82.9479,297.8115 82.9359,298.2245 82.9289,298.6485 L82.8779,299.8995 C82.8089,303.1735 83.0549,306.0055 83.6539,308.3385 C84.2559,310.6925 85.0319,312.6785 86.2539,314.7155 C87.5259,316.7335 89.1429,318.8735 91.5579,321.1455 C93.9519,323.4145 96.9069,325.8005 100.4839,328.1805 C107.5919,332.9745 116.6389,337.6825 126.6449,342.6985 C135.4529,347.1465 145.0429,351.8355 155.1879,357.8435 C160.2559,360.8575 165.4729,364.2185 170.7469,368.2275 C176.0099,372.2315 181.3419,376.8805 186.3839,382.4485 C190.9839,387.5135 194.3439,393.7795 195.9199,400.0265 C197.5099,406.2865 197.3929,412.3915 195.8389,417.4135 C195.0969,419.9235 193.9439,422.1865 192.6609,424.1365 C191.2949,426.0915 189.7029,427.7515 187.9639,429.1105 C184.4469,431.8355 180.2099,433.3545 175.7129,433.9565" id="SKIN" fill="#B18058"/>
                        <path d="M151.7334,449.6596 C149.2614,449.3256 147.1844,448.2806 145.6294,447.1096 C144.8664,446.5136 144.2694,445.8646 143.8884,445.1846 C143.4474,444.5446 143.2184,443.8826 143.2594,443.1946 C143.3244,440.2646 143.0714,437.8266 142.5424,435.8396 C142.0074,433.8316 141.3304,432.1576 140.2254,430.3586 C139.0784,428.5766 137.5214,426.6246 135.2754,424.5086 C133.0084,422.3996 130.1384,420.1626 126.7734,417.9096 C123.7164,415.8686 122.8024,410.6966 125.2964,406.3916 C126.5414,404.2526 128.4884,402.7496 130.5624,402.1246 C132.6604,401.4846 134.9214,401.7186 136.7654,402.9386 C140.7494,405.6046 144.4124,408.4176 147.6034,411.3916 C150.7764,414.3776 153.4104,417.5356 155.5064,420.8466 C157.5714,424.1726 159.0344,427.6896 160.0024,431.4646 C160.9784,435.2316 161.3514,439.3116 161.2544,443.5956 C161.2084,444.5856 160.9184,445.5206 160.4334,446.3376 C159.8904,447.1716 159.1584,447.8866 158.2884,448.4366 C156.5744,449.5366 154.1854,450.0016 151.7334,449.6596" id="SKIN" fill="#B18058"/>
                        <path d="M165.6456,461.7563 C163.2346,461.1533 161.2676,459.7183 160.0186,457.9823 C159.3886,457.1123 158.8766,456.1733 158.6136,455.1963 C158.3386,454.2223 158.3096,453.2063 158.4296,452.2123 C159.7276,444.3703 159.5316,437.0763 157.7506,430.8043 C157.2906,429.1933 157.7306,427.4663 158.7526,425.7463 C159.8396,424.0213 161.4426,422.3353 163.6906,421.2353 C165.9046,420.1483 168.3906,419.9343 170.4696,420.7753 C172.5986,421.5733 174.3616,423.4123 175.0566,425.8563 C177.7556,435.3553 177.7886,445.4133 176.2086,455.0283 C176.0476,456.2763 175.5436,457.4023 174.8906,458.3753 C174.2286,459.3473 173.4166,460.1623 172.4386,460.7653 C170.4666,461.9723 168.0566,462.3593 165.6456,461.7563" id="SKIN" fill="#B18058"/>
                        <path d="M180.6651,467.6879 C178.2661,467.0429 176.3431,465.4349 175.1501,463.4509 C174.5451,462.4549 174.1671,461.3689 173.9311,460.2199 C173.6931,459.0699 173.6721,457.8749 173.9111,456.6669 C175.5721,447.2749 175.9401,437.5389 173.6461,428.2999 C173.3131,427.1279 173.3021,425.9289 173.3921,424.7779 C173.4791,423.6279 173.7861,422.4869 174.2741,421.4029 C175.1571,419.2829 176.7851,417.3409 179.0571,416.3339 C181.3271,415.3279 183.8601,415.5309 186.1761,416.8919 C187.2811,417.5839 188.3161,418.5599 189.2011,419.7649 C190.0841,420.9679 190.6931,422.4229 191.1281,424.0069 C192.6531,430.1929 193.2811,436.4359 193.2641,442.4449 C193.2471,448.4639 192.6091,454.2669 191.6261,459.8569 C191.3491,461.2799 190.8331,462.5869 190.1441,463.7149 C189.4521,464.8429 188.5191,465.7449 187.5201,466.4489 C185.5021,467.8489 183.0651,468.3319 180.6651,467.6879" id="SKIN" fill="#B18058"/>
                        <path d="M207.6729,424.892 C205.2249,425.343 202.7259,424.215 200.6239,422.24 C199.5249,421.244 198.5169,420.027 197.6559,418.637 C196.7889,417.246 195.9519,415.695 195.3629,413.978 C192.9289,407.317 189.4409,401.03 185.4099,395.501 C181.3749,389.956 176.8169,385.159 172.1469,381.007 C170.9479,379.906 169.9779,378.418 169.1629,376.626 C168.3509,374.906 167.6879,372.96 167.1469,371.147 C166.6109,369.364 166.1979,367.675 165.9159,366.432 C165.6389,365.207 165.4989,364.436 165.4989,364.436 C167.0559,365.48 168.4489,365.849 169.8209,365.788 C171.1959,365.736 172.5749,365.366 174.1509,365.172 C175.7299,364.994 177.4739,364.857 179.6499,365.594 C180.7349,365.954 181.9099,366.462 183.2119,367.271 C184.5209,368.126 185.9389,369.177 187.4879,370.669 C192.3639,375.342 197.1829,380.783 201.4809,387.039 C205.7809,393.278 209.5089,400.335 212.2389,407.716 C212.9789,409.838 213.4709,411.957 213.5599,413.929 C213.6429,415.902 213.4449,417.728 213.0059,419.289 C212.0269,422.406 210.1109,424.441 207.6729,424.892" id="SKIN" fill="#B18058"/>
                        <path d="M198.2793,462.309 L198.2783,462.309 C195.8193,461.828 193.9053,460.247 192.5753,458.06 C191.2603,455.874 190.6683,453.179 190.9013,450.236 C191.3143,445.311 191.4543,440.249 190.9373,435.067 C190.4533,429.901 189.4333,424.654 187.7633,419.548 C186.1033,414.445 183.7893,409.509 180.9753,404.992 C178.1663,400.468 174.8813,396.363 171.3673,392.714 C170.3143,391.636 169.4723,390.469 168.8523,389.217 C168.2143,388.017 167.7913,386.746 167.5913,385.467 C167.1853,382.949 167.6463,380.438 169.2283,378.511 C170.8083,376.604 173.2473,375.668 175.9993,375.913 C177.3733,376.052 178.8213,376.475 180.2493,377.167 C181.6753,377.927 183.0833,378.945 184.3553,380.252 C188.6173,384.679 192.7143,389.775 196.2573,395.48 C199.8043,401.172 202.7623,407.468 204.8693,413.944 C206.9903,420.421 208.2663,427.031 208.8623,433.421 C209.4913,439.845 209.3263,445.958 208.8323,451.814 C208.6543,453.537 208.2823,455.211 207.6083,456.58 C206.9493,457.963 206.1053,459.16 205.1383,460.101 C203.2143,461.999 200.7013,462.759 198.2793,462.309" id="SKIN" fill="#B18058"/>
                        <path d="M158.7891,356.517 L119.7061,420.53 C113.0741,416.47 104.8571,412.323 95.7911,407.777 C95.4301,407.857 95.0231,407.911 94.5981,407.95 C94.1721,407.988 93.7291,408.014 93.1661,407.974 C92.0901,407.921 90.8751,407.779 89.5081,407.537 C86.8161,407.082 83.5151,406.223 79.6851,404.978 C75.8181,403.693 71.3801,401.992 66.3001,399.636 C61.2241,397.271 55.4921,394.258 49.1461,390.092 C42.8261,385.908 35.8261,380.613 28.7651,373.199 C25.2421,369.569 21.7501,365.298 18.4611,360.618 C15.1611,355.913 12.1671,350.63 9.5441,345.037 C6.9991,339.4 4.8711,333.441 3.3391,327.369 C1.8621,321.337 0.7981,315.145 0.3871,309.201 C0.0941,306.156 0.0711,303.286 0.0081,300.32 C-0.0239,298.835 0.0511,297.453 0.0831,296.007 C0.1421,294.554 0.1491,293.185 0.2781,291.655 C0.5501,288.605 0.7441,285.594 1.2731,282.462 C1.5121,280.908 1.7601,279.353 2.0311,277.795 C2.3591,276.224 2.7031,274.653 3.0631,273.081 L3.6161,270.724 L4.2851,268.366 C4.7421,266.793 5.2081,265.221 5.7041,263.655 C6.8241,260.548 7.8951,257.405 9.2881,254.381 C11.9041,248.252 15.2011,242.435 18.8261,236.986 C19.7461,235.64 20.6811,234.301 21.6281,232.972 C22.5951,231.683 23.5861,230.426 24.5821,229.164 C25.5731,227.884 26.6001,226.687 27.6421,225.513 C28.6841,224.342 29.7241,223.123 30.7951,222.017 C35.0671,217.498 39.5391,213.49 44.0791,209.835 C53.1671,202.676 62.4821,197.064 71.5331,192.664 C80.6071,188.222 89.4821,184.828 98.0431,182.129 C115.1891,176.715 131.1491,173.874 145.6751,172.156 C160.1971,170.468 173.2841,170.003 184.5781,170.169 C199.9341,168.871 214.0041,173.383 223.8381,181.304 C233.7031,189.219 239.3921,200.508 238.7711,212.643 C238.1831,224.778 232.5711,235.524 224.1431,243.53 C215.6871,251.528 204.4701,256.802 192.0071,257.856 C180.0091,260.317 167.6841,263.036 155.8351,266.261 C149.9271,267.884 144.1301,269.619 138.6331,271.503 C133.1621,273.404 127.9311,275.417 123.2721,277.563 C118.6271,279.705 114.4491,281.934 111.1671,284.113 C107.7941,286.268 105.4041,288.341 103.6871,289.991 C102.8941,290.827 102.2151,291.559 101.6851,292.211 C101.2151,292.884 100.6931,293.435 100.3811,294.045 C100.3301,294.118 100.2761,294.189 100.2191,294.259 C100.1741,294.335 100.1471,294.418 100.1051,294.496 C100.0271,294.652 99.9341,294.803 99.8251,294.951 C99.7561,295.12 99.6911,295.292 99.6011,295.457 C99.5051,295.619 99.4061,295.785 99.3581,295.987 C99.2921,296.177 99.2111,296.366 99.1161,296.552 C99.0291,296.745 99.0001,296.984 98.9191,297.194 C98.7341,297.598 98.6621,298.12 98.5221,298.621 C98.4901,298.752 98.4411,298.859 98.4141,299.01 L98.3491,299.506 C98.3011,299.837 98.2441,300.167 98.1791,300.498 C98.1231,300.82 98.1211,301.076 98.0741,301.369 C98.0501,301.638 97.9561,301.97 97.9601,302.191 C97.9441,302.653 97.8161,303.194 97.8241,303.55 C97.8131,303.745 97.7691,303.961 97.7501,304.146 C97.7521,304.308 97.7401,304.472 97.7171,304.642 C97.6761,304.826 97.6761,304.966 97.6751,305.1 C97.6701,305.238 97.6381,305.39 97.6161,305.532 C97.6511,305.757 97.5351,306.062 97.5701,306.277 C97.4871,306.783 97.5711,307.24 97.6011,307.839 C97.8211,308.987 98.3471,310.602 99.7001,312.565 C101.0081,314.518 102.9171,316.741 105.1451,318.958 C107.3721,321.183 109.8941,323.409 112.3921,325.531 C114.8791,327.656 117.3891,329.684 119.6631,331.571 C120.8161,332.539 121.8961,333.447 122.9001,334.289 C123.8961,335.153 124.8581,335.987 125.7091,336.767 C126.5511,337.544 127.3291,338.287 128.0001,338.973 C128.6721,339.662 129.0561,340.205 129.4611,340.759 C138.4551,345.297 148.3021,350.14 158.7891,356.517" id="jacket" fill="#FA3239"/>
                        <path d="M226.4356,130.1264 C185.4356,135.1264 181.5386,169.8904 198.7986,173.3734 C212.4356,176.1264 221.1796,192.1344 233.1396,198.2834 C235.8076,199.6554 238.9496,197.5544 238.7406,194.5614 C238.6816,193.7134 238.6226,192.8704 238.5636,192.0344 C237.9066,182.7634 239.2926,170.9054 248.5866,170.9764 C265.2496,171.1004 290.2006,171.0814 306.2316,170.9404 C314.9276,170.8634 322.0906,178.7684 322.3016,187.4624 C322.3366,188.8894 322.3696,190.3334 322.3986,191.7914 C322.4566,194.7304 325.6436,196.5364 328.1946,195.0754 C339.0036,188.8844 346.3806,180.8974 348.6666,172.0144 C349.1626,170.0894 349.4356,168.1254 349.4356,166.1264 C349.4356,142.9304 268.1036,125.0454 226.4356,130.1264" id="Fill-30" fill="#CC2935"/>
                        <path d="M96.087,407.9233 L130.433,339.5673 C139.346,344.0643 149.122,348.8813 159.571,355.2353 L119.707,420.5283 C113.149,416.5133 105.035,412.4103 96.087,407.9233" id="jacket" fill="#B52935"/>
                    </g>
                </g>
            </g>
            <g id="Head" transform="translate(313.000000, 0.000000) scale(0.9763779527559056 0.976303317535545)">
                <g id="Head/Short Wavy" stroke="none" stroke-width="1" fill="none" fill-rule="evenodd">
                    <g id="Group-29" transform="translate(-21.000000, 61.000000)">
                        <path d="M56.5,125.9999 L45.275,125.9999 C20.27,125.9999 0,105.7299 0,80.7249 C0,76.4579 3.459,72.9999 7.725,72.9999 L56.5,72.9999 C57.328,72.9999 58,73.6709 58,74.4999 L58,124.4999 C58,125.3289 57.328,125.9999 56.5,125.9999" id="Fill-1" fill="#000"/>
                        <path d="M55,97.9999 L49.172,97.9999 C28.642,97.9999 12,81.3569 12,60.8279 C12,56.8919 15.191,53.6999 19.128,53.6999 L55,53.6999 L55,97.9999 Z" id="Fill-3" fill="#000"/>
                        <path d="M100.5,125.9999 L111.725,125.9999 C136.73,125.9999 157,105.7299 157,80.7249 C157,76.4579 153.541,72.9999 149.275,72.9999 L100.5,72.9999 C99.672,72.9999 99,73.6709 99,74.4999 L99,124.4999 C99,125.3289 99.672,125.9999 100.5,125.9999" id="Fill-5" fill="#000"/>
                        <path d="M106,97.9999 L111.828,97.9999 C132.358,97.9999 149,81.3569 149,60.8279 C149,56.8919 145.809,53.6999 141.872,53.6999 L106,53.6999 L106,97.9999 Z" id="Fill-7" fill="#000"/>
                        <path d="M77.8008,104.9999 L81.9998,104.9999 L81.9998,-0.0001 L77.8008,-0.0001 C49.7448,-0.0001 26.9998,22.7439 26.9998,50.8009 L26.9998,54.1989 C26.9998,82.2559 49.7448,104.9999 77.8008,104.9999" id="Fill-9" fill="#000"/>
                        <path d="M87.8286,104.9999 L81.8706,104.9999 C73.6576,104.9999 66.9996,98.3419 66.9996,90.1299 L66.9996,14.8699 C66.9996,6.6579 73.6576,-0.0001 81.8706,-0.0001 L87.8286,-0.0001 C114.9846,-0.0001 136.9996,22.0149 136.9996,49.1709 L136.9996,55.8289 C136.9996,82.9849 114.9846,104.9999 87.8286,104.9999" id="Fill-12" fill="#000"/>
                        <path d="M89.1992,74.9999 L80.0002,74.9999 L80.0002,-0.0001 L89.1992,-0.0001 C117.2552,-0.0001 140.0002,12.7439 140.0002,40.8009 L140.0002,54.1989 C140.0002,74.9999 117.2552,74.9999 89.1992,74.9999" id="Fill-15" fill="#000"/>
                        <path d="M56,72.9999 L101,72.9999 L101,124.6329 C101,138.5379 90.927,149.8099 78.5,149.8099 C66.073,149.8099 56,138.5379 56,124.6329 L56,72.9999 Z" id="SKIN" fill="#B18058"/>
                        <path d="M103.0525,104.9999 L98.0655,104.9999 C74.8335,104.9999 56.0005,86.1669 56.0005,62.9349 L56.0005,43.2029 C56.0005,25.4179 70.4175,10.9999 88.2035,10.9999 L93.7965,10.9999 C111.5825,10.9999 126.0005,25.4179 126.0005,43.2029 L126.0005,82.0519 C126.0005,94.7259 115.7265,104.9999 103.0525,104.9999" id="SKIN" fill="#B18058"/>
                        <path d="M77.7507501,107.331676 C68.4557924,104.043569 63.8185822,95.7386742 61.9822222,84.5680961 C69.2532122,96.6701724 82.4406226,104.813226 97.5439426,104.996733 L98.0655,104.9999 L101,104.9999 C93.0632106,109.229739 85.3134606,110.006998 77.7507501,107.331676 Z" id="SHADOW" fill="#000" opacity=".12"/>
                        <path d="M68,69.4999 C68,76.4029 62.404,81.9999 55.5,81.9999 C48.596,81.9999 43,76.4029 43,69.4999 C43,62.5969 48.596,56.9999 55.5,56.9999 C62.404,56.9999 68,62.5969 68,69.4999" id="SKIN" fill="#B18058"/>
                        <path d="M53.0669,64.1684 C53.9717309,64.1684 55.2238875,64.3770928 56.5087204,65.0195092 C58.6552998,66.0927989 60.0129325,68.055228 60.10401,70.9020045 L60.1089,71.2104 L57.1089,71.2104 C57.1089,69.3750144 56.4075866,68.3230443 55.1670796,67.7027908 C54.7064142,67.4724581 54.1975823,67.3198085 53.686239,67.2345846 C53.4346302,67.1926498 53.2384731,67.1746448 53.1249097,67.169808 L53.0669,67.1684 L53.0669,64.1684 Z" id="Stroke-24" fill="#000" fill-rule="nonzero"/>
                        <path d="M54,56.9999 L52.464,56.9999 C46.61,51.3079 44.361,39.7079 43.683,28.4489 C42.754,13.0199 69.542,-0.0001 84.999,-0.0001 L84.999,-0.0001 C96.89,-0.0001 108.025,5.8309 114.797,15.6049 L122,25.9999 L80.697,25.9999 C80.697,42.9999 66,56.9999 54,56.9999" id="Fill-26" fill="#000"/>
                    </g>
                </g>
            </g>
            <g id="Expression" transform="translate(359.000000, 93.000000) scale(0.9836065573770492 0.9836065573770492)" fill="#000">
                <g id="Expression/Happy" stroke="none" stroke-width="1" fill="none" fill-rule="evenodd">
                    <path d="M20.5607,22 C20.5607,20.343 19.2177,19 17.5607,19 C15.9037,19 14.5607,20.343 14.5607,22 C14.5607,23.657 15.9037,25 17.5607,25 C19.2177,25 20.5607,23.657 20.5607,22" id="Fill-1" fill="#000"/>
                    <path d="M46.5607,22 C46.5607,20.343 45.2177,19 43.5607,19 C41.9037,19 40.5607,20.343 40.5607,22 C40.5607,23.657 41.9037,25 43.5607,25 C45.2177,25 46.5607,23.657 46.5607,22" id="Fill-3" fill="#000"/>
                    <polygon id="Stroke-5" fill="#000" points="33.1977829 19.396766 36.1476171 18.850434 40.4350211 41.9996 30.5607 41.9996 30.5607 38.9996 36.828 38.999"/>
                    <path d="M21.9219,41.586 C21.9219,45.2602625 25.6639817,48.6581933 29.6815435,48.7900329 L29.9229,48.794 L29.9229,51.794 C24.3252295,51.794 19.0961019,47.2280163 18.9261594,41.8552911 L18.9219,41.586 L21.9219,41.586 Z" id="Stroke-7" fill="#000"/>
                    <path d="M23.0607,9 L23.0607,12 C19.8342736,12 16.8913939,12.8655529 14.2891644,14.3112359 C13.508469,14.7449556 12.8086718,15.2043948 12.1956619,15.6654963 L11.8964164,15.8960741 C11.548672,16.1706093 11.3051282,16.3844813 11.1717567,16.5115787 L11.1213602,16.5606602 L9.00003983,14.4393398 C9.71719288,13.7221868 11.0118484,12.7000903 12.8322356,11.6887641 C15.7235813,10.0824609 18.9894549,9.08904431 22.5704367,9.00569674 L23.0607,9 Z" id="Stroke-9" fill="#000"/>
                    <path d="M37.0607,9 C40.8342736,9 44.2663939,10.0094471 47.2891644,11.6887641 C48.9957774,12.6368824 50.2403215,13.5944668 50.980139,14.3013772 L51.1213602,14.4393398 L49.0000398,16.5606602 L48.8084832,16.3819961 C48.6965748,16.2822525 48.549249,16.1566104 48.3676199,16.0099419 L48.2249836,15.8960741 C47.5437467,15.3582556 46.7430469,14.8172422 45.8322356,14.3112359 C43.3601176,12.937837 40.5805627,12.0880056 37.5425302,12.006456 L37.0607,12 L37.0607,9 Z" id="Stroke-11" fill="#000"/>
                </g>
            </g>
            <g id="Accessories" transform="translate(346.000000, 115.000000) scale(0.9736842105263158 0.9583333333333334)" fill="#000">
                <g id="Accessories/None" stroke="none" stroke-width="1" fill="none" fill-rule="evenodd" fill-opacity="0"/>
            </g>
            <g id="Glasses" transform="translate(338.000000, 100.000000) scale(0.9789473684210527 0.96875)" fill="#000">
                <g id="Glasses/None" stroke="none" stroke-width="1" fill="none" fill-rule="evenodd" fill-opacity="0"/>
            </g>
        </g>
        <g id="Plants/Small" transform="translate(-40.000000, 555.000000) scale(1.2125 1.213450292397661)">
            <g id="Plants/Small/Plant" stroke="none" stroke-width="1" fill="none" fill-rule="evenodd">
                <path d="M147.040288,342 L94.9597124,342 C85.1222704,342 76.9099521,337.469005 76.0227878,331.553877 L68,278 L174,278 L165.977212,331.553877 C165.090048,337.469005 156.87773,342 147.040288,342" id="Fill-60" fill="#000"/>
                <g id="Group" transform="translate(116.000000, 208.000000)">
                    <path d="M73.720194,92 C73.6183304,91.4104515 63.157093,32.988617 26.7464897,30.357454 C7.61067143,28.9344615 2.33316314,59.0321243 2.28142286,59.3373974 L0,58.9529795 C0.0549740448,58.6267088 1.39860437,50.8382077 5.30499532,43.101393 C10.5986725,32.6155055 18.0702919,27.422633 26.9146456,28.0509464 C42.7908263,29.1993546 56.3225257,40.6042916 66.048081,61.0317437 C73.3208238,76.3067032 75.9757467,91.4572923 76,91.6091213 L73.720194,92 Z" id="Fill-72" fill="#000" transform="translate(38.000000, 60.000000) scale(-1, 1) translate(-38.000000, -60.000000)"/>
                    <path d="M49.2291756,116 C49.2291756,116 48.6619068,104.036751 55.6146278,96.7190303 C62.5673487,89.4013096 75.0538012,89.9623403 79.5935863,86.3059121 C84.1350062,82.6462411 86.1212644,76.73434 90.9455013,74.3426631 C95.7697381,71.9493647 101.730147,76.73434 111.94589,71.6672279 C122.161633,66.6001157 124.0073,32.1210525 126.276375,27.4755241 C128.547085,22.8316172 146,8.6161381 146,8.6161381 C146,8.6161381 140.466268,11.3694042 133.513547,11.1894203 C126.560827,11.0094365 110.526901,-0.671675761 106.269933,0.0304232969 C102.012964,0.735765306 89.8060593,10.4451629 87.6808448,13.6832502 C85.5539956,16.9213376 83.7083285,25.6448778 74.2020806,34.2305926 C64.6958327,42.8163074 59.1621012,47.7423512 57.1742082,52.9489102 C55.1895849,58.1570908 50.7903909,64.0689919 51.2154338,68.1486252 C51.6421114,72.2315015 51.8186677,85.9378371 51.0061819,88.8127139 C50.1953308,91.6892121 45.943267,108.680658 49.2291756,116" id="Fill-74" fill="#BE6FFB" transform="translate(97.000000, 58.000000) scale(-1, 1) translate(-97.000000, -58.000000)"/>
                    <path d="M14,58 C14,58 14.4990493,56.073991 15.4630108,52.6397 C17.8623486,44.0810771 23.9874873,28.7830169 38.6175957,29.8209572 C54.315702,30.9338333 64.8867682,40.321533 72.3562513,52.5599811 C72.3562513,52.5599811 67.2665991,42.5472851 68.0810085,37.1550976 C68.8954179,31.7613157 74.9018901,25.4714931 73.8842848,19.8784139 C72.8666795,14.2853347 64.4153535,13.9871859 58.8152732,11.1906463 C53.2151928,8.39410671 50.5687687,4 44.3574749,4 C38.1461811,4 24.7059882,21.1762379 20.6339414,24.8720068 C16.5618945,28.5661815 14,58 14,58" id="Fill-75" fill="#870CF7" transform="translate(44.000000, 31.000000) scale(-1, 1) translate(-44.000000, -31.000000)"/>
                </g>
                <g id="Group" transform="translate(58.000000, 278.000000) scale(-1, 1) translate(-58.000000, -278.000000) translate(0.000000, 232.000000)">
                    <path d="M58.2001532,72 C58.1197345,71.5394152 49.8608629,25.8973571 21.1156497,23.8417609 C6.00842481,22.7300481 1.8419709,46.2438471 1.80112331,46.4823417 L0,46.1820152 C0.0434005617,45.9271162 1.10416135,39.8423497 4.1881542,33.7979633 C8.36737299,25.6058637 14.2660199,21.5489321 21.2484044,22.0398019 C33.7822313,22.9369958 44.4651519,31.8471028 52.1432219,47.8060497 C57.8848609,59.7396119 59.9808527,71.5760096 60,71.694626 L58.2001532,72 Z" id="Fill-72" fill="#000" transform="translate(30.000000, 47.000000) scale(-1, 1) translate(-30.000000, -47.000000)"/>
                    <path d="M38.9783234,92 C38.9783234,92 38.5268238,82.5119059 44.0606221,76.7081964 C49.5944204,70.9044869 59.5326173,71.3494423 63.1459156,68.4495165 C66.7605151,65.5470188 68.3414145,60.8582696 72.1811132,58.9614224 C76.020812,57.0632892 80.7648112,60.8582696 88.8957083,56.8395255 C97.0266055,52.8207814 98.4956058,25.4753175 100.301604,21.7909329 C102.108904,18.1078343 116,6.83348884 116,6.83348884 C116,6.83348884 111.595601,9.01711364 106.061803,8.87436785 C100.528005,8.73162206 87.7663086,-0.532708362 84.3781095,0.0241288217 C80.9899104,0.583538002 71.2742105,8.28409471 69.5827132,10.8522329 C67.8899148,13.4203712 66.4209145,20.339041 58.8547172,27.1484011 C51.2885199,33.9577611 46.8841213,37.8646234 45.3019208,41.9939633 C43.7223226,46.1245892 40.2209233,50.8133384 40.5592228,54.0489096 C40.8988234,57.2870529 41.0393478,68.1575949 40.3926754,70.4376696 C39.7473041,72.7190303 36.3630085,86.1950045 38.9783234,92" id="Fill-74" fill="#870CF7" transform="translate(77.000000, 46.000000) scale(-1, 1) translate(-77.000000, -46.000000)"/>
                    <path d="M10,46 C10,46 10.3992394,44.501993 11.1704087,41.8308778 C13.0898789,35.1741711 17.9899899,23.2756798 29.6940766,24.0829667 C42.2525616,24.948537 50.7094145,32.2500812 56.685001,41.7688742 C56.685001,41.7688742 52.6132793,33.9812218 53.2648068,29.7872981 C53.9163343,25.5921344 58.7215121,20.7000502 57.9074279,16.3498775 C57.0933436,11.9997047 50.3322828,11.7678113 45.8522185,9.59272491 C41.3721542,7.41763855 39.255015,4 34.2859799,4 C29.3169449,4 18.5647906,17.3592961 15.3071531,20.2337831 C12.0495156,23.10703 10,46 10,46" id="Fill-75" fill="#BE6FFB" transform="translate(34.000000, 25.000000) scale(-1, 1) translate(-34.000000, -25.000000)"/>
                </g>
                <path d="M105.152322,186.001328 C120.848637,222.657564 123.147127,262.298297 121.584642,300.223529 L121.508609,302 L118.723504,301.866908 C120.429306,263.431243 118.263169,223.128896 102,186 L105.152322,186.001328 Z" id="Path" fill="#000"/>
                <path d="M98.9604155,160.454471 C44.5606298,179.879034 13.243978,204.613645 -4.97157364,236 L-6,234.017493 C-6.02715286,195.034866 0.2722715,157.804454 20.0422487,120.687519 C20.0422487,120.687519 67.6556816,93.1460256 118,108.827522 C118,108.827522 110.553059,115.676182 109.366384,122.653338 C108.179708,129.628825 112.042788,149.604084 98.9604155,160.454471" id="Fill-66" fill="#BE6FFB" transform="translate(56.000000, 170.000000) scale(-1, 1) translate(-56.000000, -170.000000)"/>
            </g>
        </g>
    </g>
</svg>
