<svg viewBox="711.75 169.698 821.25 957.974" xmlns="http://www.w3.org/2000/svg" overflow="visible">
    <g id="Master/Scene/One Character" stroke="none" stroke-width="1" fill="none" fill-rule="evenodd">
        <g id="Background" opacity=".4" transform="translate(99.000000, 75.000000) scale(1.0375 1.037037037037037)">
            <g id="Background/None" stroke="none" stroke-width="1" fill="none" fill-rule="evenodd" fill-opacity="0"/>
        </g>
        <g transform="translate(656.000000, 242.000000) scale(1 1)" id="Master/Character/Standing">
            <g id="Master/Character/Standing" stroke="none" stroke-width="1" fill="none" fill-rule="evenodd">
                <g id="Legs" transform="translate(50.000000, 263.000000) scale(1 1)">
                    <g id="Legs/Shorts Prance" stroke="none" stroke-width="1" fill="none" fill-rule="evenodd">
                        <path d="M382,469 C377.740571,458.138168 372.5198,451.4902 372.5198,451.4902 C371.2318,448.1492 372.2448,444.6492 374.9668,443.4982 C420.0378,424.1642 465.0228,392.8522 492.4808,352.8462 C565.5838,242.9262 488.0198,136.1382 389.1578,78.0492 L429.7068,10.2492 C536.2328,72.7782 625.0698,185.5172 594.0068,315.3542 C576.6138,393.8372 516.8668,455.8282 448.8708,494.6992 C440.2928,498.2542 399.8168,525.7522 396.6328,512.9782 C396.632176,512.9782 389.059089,487.001155 382,469 Z" id="SKIN-DARKER" fill="#d29863"/>
                        <path d="M360.908574,2.10210935 C354.565936,15.6281295 345.051977,35.9171597 332.3667,62.9692 C331.5057,64.9872 330.1797,67.9112 331.5207,69.2802 C346.4337,76.6072 360.9657,83.6262 375.2547,91.4972 C397.3557,104.6642 418.8067,120.7482 437.0357,138.0502 L470.1757,102.1482 C468.9437,96.0572 467.5537,89.8942 465.9437,83.7512 C472.1227,84.5132 478.3007,85.4792 484.5417,86.5852 L518.2127,50.1112 C497.15624,31.3219603 474.99461,14.4419175 451.322802,-0.127004069" id="Fill-4" fill="#CC2935"/>
                        <path d="M428.7129,513.6491 C467.2799,494.5201 503.2919,469.6581 533.3509,438.5491 L466.9319,374.5961 C439.3879,402.9851 402.8009,426.2051 365.4749,440.8251 C365.7949,441.7531 375.0669,468.5671 375.6599,470.2841 C377.1169,470.3081 379.9889,469.7111 381.5089,469.5081 C381.7149,475.5951 381.7099,481.7381 381.7189,487.8091 C388.0669,506.1661 400.9989,543.5761 407.3009,561.7981 C409.7429,560.9491 413.2549,559.6041 415.6739,558.6521 C435.6979,555.7441 423.0099,526.8061 428.7129,513.6491" id="Fill-6" fill="#0A1B45"/>
                        <g id="Left-Leg" transform="translate(123.999800, -0.001953)">
                            <path d="M34.0002,586.001953 C29.2568429,585.620519 22.2190763,586.044885 12.8869,587.275053 C9.2639,586.925053 6.8449,582.267053 7.5779,576.795053 C14.1089,534.811053 35.1399,499.791053 49.8509,461.173053 C56.6419,443.578053 63.1139,424.286053 68.7859,406.290053 C104.3759,288.236053 121.3249,163.531053 127.9729,40.2630528 L206.8749,44.1990528 C199.3639,180.005053 180.7419,316.033053 138.9809,446.015053 C129.7299,474.754053 118.0459,505.006053 105.4089,532.447053 C99.6429,545.217053 94.0509,557.997053 89.9849,570.970053 C86.0389,578.346053 88.9799,593.560053 78.7209,592.569053 C58.7935207,588.985996 43.8866207,586.796963 34.0002,586.001953 Z" id="SKIN" fill="#edb98a"/>
                            <path d="M118.129299,0.00195281518 C114.778299,-0.0470471848 111.9785,1.72275282 111.9515,2.81875282 C110.5875,50.1407528 107.2775,97.5937528 102.1645,144.763753 L150.7995,149.456753 C154.9385,144.544753 159.1785,139.610753 163.2445,134.630753 C166.2115,140.228753 168.9985,145.841753 171.8805,151.490753 L221.2915,156.258753 C225.5905,105.843753 227.9575,55.3247528 228.257549,4.66675282 C228.2845,3.49275282 225.5905,2.50175282 222.2385,2.45375282 L118.129299,0.00195281518 Z" id="Fill-10" fill="#FA3239"/>
                            <path d="M139.321,467.512453 L52.342,436.914453 C35.508,490.012453 1.924,538.042953 -4.26325641e-14,596.001953 C0.654666667,596.013286 11.072087,596.013286 31.252261,596.001953 C32.0087537,591.223619 32.6343333,588.001453 33.129,586.335453 C38.376,589.783453 44.198204,593.345953 49.851204,596.001953 C69.254204,596.316953 108.69,596.696453 127.951,597.009453 C127.845,593.162453 128.379904,586.599164 125.360904,584.750164 C119.964904,582.209497 110.76726,577.533451 97.7679707,570.722026 C109.688971,535.167026 127.71,503.791453 139.321,467.512453 Z" id="Fill-12" fill="#0A1B45"/>
                        </g>
                        <path d="M243,0 C243,55.228475 289.562386,100 347,100 C404.437614,100 451,55.228475 451,0" id="Waist" fill="#FA3239"/>
                    </g>
                </g>
                <g id="Body" transform="translate(17.000000, -31.000000) scale(1 1)">
                    <g id="Body/Short Tee Point" stroke="none" stroke-width="1" fill="none" fill-rule="evenodd">
                        <g id="Right-Arm" transform="translate(418.000000, 147.000000)">
                            <path d="M386.871886,0.669885314 C391.842886,0.600885314 395.927886,4.57388531 395.996886,9.54388531 L395.996786,9.544 L420.993986,9.19538531 C425.964986,9.12638531 430.049986,13.0983853 430.118986,18.0683853 C430.187986,23.0393853 426.215986,27.1243853 421.245986,27.1933853 L401.812311,27.4648389 C403.960587,28.8086491 405.330599,30.9767557 405.344486,34.4159853 C405.3987,38.3209853 402.958215,41.6802506 399.499064,42.9740936 L399.263612,43.0590263 C401.850704,44.3524719 403.5527,46.6070291 403.568186,50.4423853 C403.6224,54.3473853 401.181915,57.7066506 397.722279,59.0000085 L397.65926,59.0221557 C400.109396,60.5999885 401.748301,63.336002 401.791786,66.4687853 C401.860786,71.4387853 397.888786,75.5237853 392.917786,75.5937853 L339.922786,76.3327853 C338.857786,76.3477853 337.833423,76.1771374 336.880507,75.8508032 L336.817339,75.8275704 C280.034462,75.0925538 155.764503,72.5958558 118.067724,72.5042878 L116.642762,72.5019459 L116.642762,72.5019459 L115.307486,72.5020943 C113.587811,72.5039765 112.112706,72.5126453 110.903786,72.5286853 L110.903786,72.5286853 C109.180706,72.3960253 107.336374,72.3320353 105.391256,72.3189372 L104.410393,72.3165469 L104.410393,72.3165469 L103.4133,72.3221446 C93.3631246,72.4164171 80.9638301,73.6348364 68.7735588,73.7551405 L67.5553232,73.7634282 L67.5553232,73.7634282 L66.3390495,73.7639013 C42.0369855,73.6919253 19.2531855,68.6348853 18.4527855,40.8146853 C18.5652355,10.6403853 44.981268,6.49124031 71.402793,6.44970369 L72.6221562,6.45062345 C81.9691685,6.47881216 91.2662115,6.97908364 99.3481732,6.98040179 L100.395356,6.97766431 C103.862356,6.95857531 107.090086,6.83718531 109.982786,6.53368531 C139.072993,6.11274799 308.982814,9.81047933 354.004163,10.0319416 L354.000886,10.1298853 C353.931886,5.15988531 357.903886,1.07388531 362.874886,1.00488531 L386.871886,0.669885314 Z" id="SKIN" fill="#edb98a"/>
                            <path d="M386.871886,0.669885314 C391.842886,0.600885314 395.927886,4.57388531 395.996886,9.54388531 L395.996786,9.544 L420.993986,9.19538531 C425.964986,9.12638531 430.049986,13.0983853 430.118986,18.0683853 C430.187986,23.0393853 426.215986,27.1243853 421.245986,27.1933853 L401.812311,27.4648389 C403.960587,28.8086491 405.330599,30.9767557 405.344486,34.4159853 C405.3987,38.3209853 402.958215,41.6802506 399.499064,42.9740936 L399.263612,43.0590263 C401.850704,44.3524719 403.5527,46.6070291 403.568186,50.4423853 C403.6224,54.3473853 401.181915,57.7066506 397.722279,59.0000085 L397.65926,59.0221557 C400.109396,60.5999885 401.748301,63.336002 401.791786,66.4687853 C401.860786,71.4387853 397.888786,75.5237853 392.917786,75.5937853 L339.922786,76.3327853 C338.857786,76.3477853 337.833423,76.1771374 336.880507,75.8508032 L336.817339,75.8275704 C275.608542,75.0352632 135.982144,72.1959446 110.903786,72.5286853 C82.1857855,70.3176853 19.7867855,87.1816853 18.4527855,40.8146853 C18.6257855,-5.60731469 81.0557855,9.56868531 109.982786,6.53368531 C139.072993,6.11274799 308.982814,9.81047933 354.004163,10.0319416 L354.000886,10.1298853 C353.931886,5.15988531 357.903886,1.07388531 362.874886,1.00488531 L386.871886,0.669885314 Z" id="SKIN-DARKER" fill="#d29863"/>
                            <path d="M108.057886,90.5690853 C70.6348855,89.5170853 2.47588553,105.121085 0.454885532,48.0640853 C0.454885532,17.3982322 6.15478302,2 26.1826319,2 C43.4487851,2 68.4105581,2.31500691 106.829886,2.57808531 L108.057886,90.5690853 Z" id="Fill-14" fill="#051026"/>
                        </g>
                        <g id="Body" transform="translate(272.000000, 149.000000)">
                            <rect id="SKIN" fill="#edb98a" x="18" y="101" width="180" height="48"/>
                            <path d="M40,0 L176,0 C198.09139,-4.05812251e-15 216,17.90861 216,40 L216,117 L216,117 L0,117 L0,40 C-2.705415e-15,17.90861 17.90861,4.05812251e-15 40,0 Z" id="body" fill="#0A1B45"/>
                        </g>
                        <path d="M334,149 C334,167.225397 354.594902,182 380,182 C405.405098,182 426,167.225397 426,149" id="SKIN" fill="#edb98a"/>
                        <g id="Left-Arm" transform="translate(182.000000, 149.000000)">
                            <path d="M33.5830661,366.975231 C19.9980661,366.081231 8.75606605,356.820231 4.84206605,344.175231 C1.01906605,328.366231 6.86906605,309.915231 7.92606605,293.855231 C20.1160661,207.065231 41.6200661,121.680231 73.3070661,39.9102314 C78.5290661,26.9562314 90.3570661,18.7422314 103.777066,18.7032314 C126.059066,18.3292314 143.527066,43.0002314 134.792066,63.8982314 C106.494066,137.087231 86.5890661,213.709231 75.0350661,291.336231 C73.3830661,301.545231 71.7140661,315.645231 70.4270661,325.908231 C71.2250661,347.372231 57.2720661,368.827231 33.5830661,366.975231" id="SKIN" fill="#edb98a"/>
                            <path d="M8.52546605,384.806231 C-0.890533949,384.305231 -0.526533949,373.731231 0.518466051,366.665231 C1.17346605,358.533231 1.64946605,349.590231 2.49846605,341.535231 C3.13146605,335.802231 4.33946605,322.035231 5.09246605,316.498231 C5.54146605,309.554231 6.75546605,298.887231 16.2044661,300.155231 C27.3574661,301.815231 23.2574661,315.024231 22.4704661,322.663231 C22.2084661,325.244231 20.7184661,340.252231 20.4224661,343.177231 C19.5974661,351.081231 19.1134661,359.885231 18.4774661,367.854231 C18.3554661,374.891231 17.9844661,385.202231 8.52546605,384.806231" id="SKIN" fill="#edb98a"/>
                            <path d="M23.9892661,396.650031 C11.9392661,396.270031 16.2172661,379.948031 16.1362661,372.417031 C17.1392661,364.961031 14.8612661,348.253031 26.8652661,349.336031 C38.7812661,350.316031 34.2522661,365.934031 34.1022661,373.519031 C33.3212661,381.057031 35.9332661,397.120031 23.9892661,396.650031" id="SKIN" fill="#edb98a"/>
                            <path d="M39.8867661,399.191031 C27.8777661,398.851031 32.0757661,382.883031 31.9917661,375.395031 C33.0727661,367.208031 30.4087661,352.188031 42.6597661,352.685031 C54.7947661,354.216031 49.9747661,368.174031 49.9597661,376.458031 C49.2137661,383.975031 51.7947661,399.642031 39.8867661,399.191031" id="SKIN" fill="#edb98a"/>
                            <path d="M66.7207661,366.331631 C54.6457661,365.085631 59.2347661,350.928631 59.6497661,342.852631 C61.0527661,330.418631 58.9807661,325.086631 71.3887661,318.219631 C71.8127661,324.908631 80.1767661,324.312631 78.6587661,333.602631 C78.2437661,337.713631 77.2067661,348.221631 76.8027661,352.193631 C76.9727661,358.789631 75.1427661,366.935631 66.7207661,366.331631" id="SKIN" fill="#edb98a"/>
                            <path d="M56.2441661,391.940031 C41.0331661,389.767031 50.3191661,368.487031 49.2711661,358.180031 C51.6371661,348.499031 46.5521661,325.104031 61.3621661,325.856031 C76.2781661,329.027031 65.9701661,349.170031 67.2201661,359.591031 C64.6121661,369.438031 70.9621661,391.647031 56.2441661,391.940031" id="SKIN" fill="#edb98a"/>
                            <path d="M43.4127661,90.9630314 C50.0647661,70.4790314 57.8037661,49.0750314 65.7727661,29.1000314 C74.4717661,6.37703138 99.7318017,0 129.199734,0 C158.667666,0 155.808766,49.6310314 142.089766,75.7100314 C136.975766,89.1000314 133.590734,101.33 129.199734,115 L43.4127661,90.9630314 Z" id="Fill-25" fill="#0A1B45"/>
                        </g>
                    </g>
                </g>
                <g id="Head" transform="translate(338.000000, -61.000000) scale(1 1)">
                    <g id="Head/Bunny Ears" stroke="none" stroke-width="1" fill="none" fill-rule="evenodd">
                        <g id="Group-34" transform="translate(16.000000, -1.000000)">
                            <path d="M0,106.1899 L0,106.1899 L0,23.6899 C0,9.1899 6.044,0.1899 13.5,0.1899 C20.956,0.1899 27,8.1899 27,23.6899 L27,79.1899 C27,94.1019 14.912,106.1899 0,106.1899" id="Fill-1" fill="#34D1A1"/>
                            <path d="M22,77.1899 L8,77.1899 L8,26.1899 C8,22.3239 8,9.1899 15,9.1899 C22,9.1899 22,22.3239 22,26.1899 L22,77.1899 Z" id="Fill-4" fill="#2DB386"/>
                            <path d="M52,106.1899 L52,106.1899 L52,23.6899 C52,9.1899 58.044,0.1899 65.5,0.1899 L65.5,0.1899 C72.956,0.1899 79,8.1899 79,23.6899 L79,79.1899 C79,94.1019 66.912,106.1899 52,106.1899" id="Fill-6" fill="#34D1A1"/>
                            <path d="M74,77.1899 L60,77.1899 L60,26.1899 C60,22.3239 60,9.1899 67,9.1899 C74,9.1899 74,22.3239 74,26.1899 L74,77.1899 Z" id="Fill-9" fill="#2DB386"/>
                            <path d="M80.4453,187.1899 L77.5543,187.1899 C70.0683,187.1899 64.0003,181.1219 64.0003,173.6349 L64.0003,91.3609 L94.0003,91.3609 L94.0003,173.6349 C94.0003,181.1219 87.9313,187.1899 80.4453,187.1899" id="Fill-11" fill="#2DB386"/>
                            <path d="M19,135.1899 L64,135.1899 L64,186.8239 C64,200.7279 53.927,212.0009 41.5,212.0009 C29.073,212.0009 19,200.7279 19,186.8239 L19,135.1899 Z" id="SKIN" fill="#edb98a"/>
                            <path d="M66.0525,167.1899 L61.0655,167.1899 C37.8335,167.1899 19.0005,148.3569 19.0005,125.1249 L19.0005,105.3929 C19.0005,87.6079 33.4175,73.1899 51.2035,73.1899 L56.7965,73.1899 C74.5825,73.1899 89.0005,87.6079 89.0005,105.3929 L89.0005,144.2429 C89.0005,156.9159 78.7265,167.1899 66.0525,167.1899" id="SKIN" fill="#edb98a"/>
                            <path d="M31,131.6899 C31,138.5929 25.404,144.1899 18.5,144.1899 C11.596,144.1899 6,138.5929 6,131.6899 C6,124.7869 11.596,119.1899 18.5,119.1899 C25.404,119.1899 31,124.7869 31,131.6899" id="Fill-19" fill="#edb98a"/>
                            <path d="M16.0669,126.3589 C16.9717309,126.3589 18.2238875,126.567593 19.5087204,127.210009 C21.6552998,128.283299 23.0129325,130.245728 23.10401,133.092504 L23.1089,133.4009 L20.1089,133.4009 C20.1089,131.565514 19.4075866,130.513544 18.1670796,129.893291 C17.7064142,129.662958 17.1975823,129.510309 16.686239,129.425085 C16.4849519,129.391537 16.319154,129.373304 16.2027418,129.364876 L16.0669,129.3589 L16.0669,126.3589 Z" id="Stroke-21" fill="#000" fill-rule="nonzero"/>
                            <path d="M18,119.1899 L16.464,119.1899 C10.61,113.4989 8.361,101.8979 7.683,90.6389 C6.754,75.2099 33.542,62.1899 48.999,62.1899 L66.984,62.1899 L87.671,88.1899 L49.697,88.1899 C42.921,106.2759 30,119.1899 18,119.1899" id="Fill-23" fill="#000"/>
                            <path d="M14.3918,187.1899 L14.3918,187.1899 C6.5068,187.1899 0.1148,180.7979 0.1148,172.9139 L0.1148,91.3609 L28.6688,91.3609 L28.6688,172.9139 C28.6688,180.7979 22.2768,187.1899 14.3918,187.1899" id="Fill-25" fill="#34D1A1"/>
                            <path d="M94,98.8755 L94,98.6895 C94,98.7525 93.987,98.8135 93.981,98.8755 L94,98.8755 Z" id="Fill-27" fill="#34D1A1"/>
                            <path d="M47.0576,52.8911 C26.3446,52.9351 0.1156,70.6121 0.1156,92.4131 L0.1156,108.8751 C0.1156,108.8751 27.9996,108.7521 27.9996,108.6901 C27.9996,103.9951 41.6806,90.1901 60.2946,90.1901 C78.9096,90.1901 93.9996,103.9951 93.9996,108.6901 L93.9996,92.4131 C93.9996,70.6121 67.7706,52.9351 47.0576,52.8911" id="Fill-30" fill="#34D1A1"/>
                            <path d="M46.9802,52.8891 C47.0052,52.8891 47.0322,52.8911 47.0572,52.8911 C47.0832,52.8911 47.1092,52.8891 47.1352,52.8891 L46.9802,52.8891 Z" id="Fill-32" fill="#34D1A1"/>
                        </g>
                    </g>
                </g>
                <g id="Expression" transform="translate(385.000000, 34.000000) scale(1 1)" fill="#000">
                    <defs>
                        <filter id="expressionwink-filter-1">
                            <feColorMatrix in="SourceGraphic" values="0 0 0 0 0.000000 0 0 0 0 0.000000 0 0 0 0 0.000000 0 0 0 1.000000 0"/>
                        </filter>
                    </defs>
                    <g id="Expression/Wink" stroke="none" stroke-width="1" fill="none" fill-rule="evenodd">
                        <g filter="url(#expressionwink-filter-1)" id="Group-17">
                            <g transform="translate(9.000000, 3.000000)">
                                <path d="M37.6862,19.0627 C37.6862,17.4057 36.3432,16.0627 34.6862,16.0627 C33.0292,16.0627 31.6862,17.4057 31.6862,19.0627 C31.6862,20.7197 33.0292,22.0627 34.6862,22.0627 C36.3432,22.0627 37.6862,20.7197 37.6862,19.0627" id="Fill-1" fill="#000"/>
                                <path d="M13.0473,38.6487 C13.0473,42.3229625 16.7893817,45.7208933 20.8069435,45.8527329 L21.0483,45.8567 L21.0483,48.8567 C15.4506295,48.8567 10.2215019,44.2907163 10.0515594,38.9179911 L10.0473,38.6487 L13.0473,38.6487 Z" id="Stroke-5" fill="#000" fill-rule="nonzero"/>
                                <path d="M2.57564697,9.21147847 C6.2616177,8.06796663 10.3535814,7.81561498 14.5680667,8.99954871 L15.0368326,9.13703524 L14.1597674,12.0059648 C10.4145271,10.8610011 6.75307649,11.056551 3.46455381,12.0767611 C2.87639473,12.2592278 2.35407493,12.4536573 1.90571976,12.6462124 L1.67798076,12.7466018 L1.40843093,12.875962 L0.000169065366,10.227038 C0.505632486,9.95831572 1.38329457,9.5813862 2.57564697,9.21147847 Z" id="Stroke-7" fill="#000" fill-rule="nonzero"/>
                                <path d="M27.4327673,1.61074391 C31.7294847,0.539609121 35.85137,0.927023851 39.5454285,2.22070874 C40.6627133,2.61198958 41.5287224,3.00892816 42.1054952,3.32415386 L42.3911858,3.48746626 L40.8460142,6.05893374 L40.6830708,5.96779273 C40.5848397,5.91521377 40.4526078,5.84736079 40.2880352,5.76752086 C39.7889686,5.52540617 39.2078998,5.28115198 38.5538553,5.05210108 C35.5067759,3.98499275 32.1271224,3.6348104 28.6169983,4.41363387 L28.1584327,4.52165609 L27.4327673,1.61074391 Z" id="Stroke-9" fill="#000" fill-rule="nonzero"/>
                                <path d="M2.29348496,21.505614 C4.78316311,15.2814186 15.5765131,15.2055138 17.1047395,21.5313094 L17.157071,21.7685258 L14.215329,22.3568742 C13.5401751,18.9811049 6.8011145,18.9218809 5.16179365,22.4285178 L5.07891504,22.619786 L2.29348496,21.505614 Z" id="Stroke-15" fill="#000" fill-rule="nonzero"/>
                            </g>
                        </g>
                        <polygon id="Stroke-5" fill="#000" fill-rule="nonzero" points="33.1977829 19.396766 36.1476171 18.850434 40.4350211 41.9996 30.5607 41.9996 30.5607 38.9996 36.828 38.999"/>
                    </g>
                </g>
                <g id="Accessories" transform="translate(372.000000, 56.000000) scale(1 1)" fill="#000">
                    <g id="Accessories/N65" stroke="none" stroke-width="1" fill="none" fill-rule="evenodd">
                        <path d="M55.1977784,0.766509801 C61.8672688,0.766509801 65.5931791,6.91877559 68.3190852,9.67622448 C68.5366389,9.86933778 68.7500465,10.0676638 68.9593821,10.2698541 C69.0753941,10.3682311 69.1897807,10.4565674 69.3026336,10.535583 L69.2915753,10.5973925 C73.2112403,14.5427001 75.6165684,19.8776287 75.6165684,25.7499259 C75.6165684,37.9001904 65.3191176,47.7499259 52.6165684,47.7499259 C39.9140192,47.7499259 29.6165684,37.9001904 29.6165684,25.7499259 C29.6165684,17.6330728 34.2120776,10.5428914 41.0501479,6.73002773 L41.0440543,6.69219525 L41.0440543,6.69219525 C46.4836096,4.14573474 47.6906867,0.766509801 55.1977784,0.766509801 Z" id="Clothe" fill="#D8D8D8"/>
                        <path d="M32.6165684,20.7333421 C32.6165684,32.8836066 42.9140192,42.7333421 55.6165684,42.7333421 C63.0741024,42.7333421 69.702661,39.3383929 73.9051908,34.0761112 C70.4693708,42.0893844 62.2320375,47.7333421 52.6165684,47.7333421 C39.9140192,47.7333421 29.6165684,37.8836066 29.6165684,25.7333421 C29.6165684,20.7166936 31.3720069,16.0922234 34.3273758,12.3912869 C33.2246542,14.9640107 32.6165684,17.7807509 32.6165684,20.7333421 Z" id="SHADOW" fill="#000" opacity=".12"/>
                        <line x1="0" y1="0" x2="34.913" y2="14.229" id="Path-4" stroke="#22252B" stroke-width="2"/>
                        <line x1="33.673" y1="28.173" x2="0" y2="28.173" id="Path-5" stroke="#22252B" stroke-width="2"/>
                    </g>
                </g>
                <g id="Glasses" transform="translate(364.000000, 42.000000) scale(1 1)" fill="#000">
                    <g id="Glasses/Thick" stroke="none" stroke-width="1" fill="none" fill-rule="evenodd">
                        <path d="M43.5452664,3.00012344 C49.2894512,3.02462661 55.021427,4.35163303 57.0857956,6.97405047 C58.0938547,8.25461237 58.6772219,10.0147386 58.9068842,11.9996703 L62.1143968,11.9996703 C62.3440591,10.0147386 62.9274264,8.25461237 63.9354854,6.97405047 C65.9529365,4.41123343 71.4731799,3.0856142 77.0844275,3.00401411 L77.4760146,3.00012344 L77.8967218,3.00012344 L80.8146938,3.0378718 C91.0822714,3.2070925 94.9796428,3.73089949 95.893837,5.69362755 C96.9046181,7.86372269 97.4724619,10.8486323 96.5699433,12.3975628 L96.4345265,12.6077971 C96.2607766,12.8804731 95.8187885,13.7026763 95.3317143,14.6775352 L95.2267324,14.8886255 L94.7966033,15.7746065 C94.1772527,17.0747485 93.6217104,18.3482986 93.2115536,19.4320065 L93.1438986,19.6872046 L93.1438986,19.6872046 C92.2530855,22.9637972 90.4857872,26.1972123 88.6985341,28.3365739 C85.3492115,32.34575 71.1131799,32.6082999 67.0329763,28.4576053 C64.4038322,25.7830393 62.5077693,20.7417692 62.087653,15.9998009 L58.933628,15.9998009 C58.5135117,20.7417692 56.6174488,25.7830393 53.9883048,28.4576053 C49.9081011,32.6082999 35.6720695,32.34575 32.3227469,28.3365739 C30.5354938,26.1972123 28.7681955,22.9637972 27.8773824,19.6872046 L27.8097274,19.4320065 C27.4233065,18.4110132 26.9078403,17.2215143 26.331547,16.0000268 L0,16 L0,12 L24.2628445,12.0004643 C23.6422666,10.3774347 24.1973223,7.69055104 25.127444,5.69362755 C26.0970439,3.61194627 30.4223758,3.14888604 42.1443686,3.0107703 L43.1245592,3.00012344 L43.5452664,3.00012344 Z M32.8542992,9.57832836 C31.1333273,11.9393787 30.7976239,14.9040914 31.4059083,17.8533932 L31.6334165,18.4663592 L31.5539327,18.4983688 C32.1949786,21.035914 33.5135424,23.5284501 35.226974,25.5794466 C37.0849603,27.8034767 48.7860935,28.0192764 51.3034638,25.4584151 C54.5060095,22.2005411 56.3804317,12.9591713 54.2303847,9.80770023 L54.1067801,9.63896051 L53.9809214,9.49277664 C51.015179,6.32545056 35.1904568,6.373287 32.8542992,9.57832836 Z M88.1669819,9.57832836 C85.8662205,6.42184823 70.4825425,6.32762495 67.1839305,9.35102137 L67.0403596,9.49277664 L66.9145009,9.63896051 L66.7908963,9.80770023 C64.6408493,12.9591713 66.5152715,22.2005411 69.7178172,25.4584151 C72.2351876,28.0192764 83.9363207,27.8034767 85.794307,25.5794466 C87.4069485,23.6490969 88.669811,21.3276257 89.347247,18.9456229 L89.4673483,18.4983688 L89.3878645,18.4663592 L89.6153727,17.8533932 L89.6153727,17.8533932 C90.2236571,14.9040914 89.8879537,11.9393787 88.1669819,9.57832836 Z" id="Shape" fill="#000"/>
                    </g>
                </g>
            </g>
        </g>
    </g>
</svg>
