<svg viewBox="219 142.328 1752 985.345" xmlns="http://www.w3.org/2000/svg" overflow="visible">
    <g id="Master/Scene/Party of Three" stroke="none" stroke-width="1" fill="none" fill-rule="evenodd">
        <g id="Background" opacity=".4" transform="translate(99.000000, 75.000000) scale(1.0375 1.037037037037037)">
            <g id="Background/Flowers" stroke="none" stroke-width="1" fill="none" fill-rule="evenodd">
                <path d="M311.616683,390.521938 C310.964572,415.719834 344.415093,402.823446 330.646292,384.66194 C321.510056,373.928317 314.336836,378.605239 311.616683,390.521938 M381.484208,486.998496 C383.934159,514.209245 389.068936,549.406474 368.417166,570.613995 C358.443593,579.711936 343.705695,577.004898 331.489357,575.031194 C297.87748,568.951578 291.149185,534.256607 285.980037,505.83891 C284.149734,500.607212 280.562647,508.39508 279.066515,510.248471 C263.605854,533.299834 245.955895,555.815518 221.122213,569.28769 C175.897415,593.122041 148.404687,550.876009 157.44831,508.562181 C160.692633,485.611079 179.974302,470.385778 195.613506,455.110824 C203.266977,449.591712 197.538331,448.168011 191.290288,449.162979 C149.073984,456.444769 128.673319,444.735276 132.441814,399.363975 C136.767897,370.05539 169.554849,357.399628 194.341746,348.999692 C202,346.775815 201.994263,346.871301 198.818684,339.480657 C193.483404,327.0617 188.639834,314.515747 185.816566,301.192534 C179.953297,273.342026 194.788581,234.757896 226.187291,233.54331 C265.596558,230.830542 286.64074,268.69375 303.677734,297.586969 C303.735021,241.03326 362.910982,206.937944 415.480859,211.388563 C443.59992,211.734224 457.997917,239.686902 458.249023,264.992699 C458.93837,285.473569 442.468512,300.951909 434.379663,318.327562 C473.764107,321.712554 525.084184,331.337579 539.707509,373.638039 C542.575651,380.931287 540.493288,387.28686 535.211476,392.767777 C521.921971,409.317474 483.225921,409.458794 488.752155,416.295617 C496.796129,442.333794 503.197891,468.717631 506.450807,495.809977 C508.840608,512.289014 500.07005,523.094251 487.089893,531.214412 C446.632283,555.648417 405.524472,515.925135 381.484208,486.998496" id="Fill-1" fill="#F55B80"/>
                <path d="M776,328.499083 C776.928123,279.241073 867.204312,288.428601 871.620535,260.244103 C876.049171,239.660872 881.396381,218.309789 899.478546,205.335458 C940.056234,170.051419 984.534521,178.166814 1023.54338,210.948892 C1055.94365,239.166776 1076.83978,118.044399 1166.48195,179.777875 C1202.27197,198.110962 1212.74964,270.107914 1240.51217,269.236091 C1269.96288,260.981433 1297.65666,277.506011 1315.9613,300.024613 C1322.89167,314.584251 1387.11549,364.010139 1351.10966,369.986993 C1309.20377,370.284595 1267.46497,365.42089 1226.06992,360.991189 C1164.68204,361.207714 1102.88165,362.423879 1041.3324,361.837258 C958.623467,357.107093 875.8878,365.852033 793.541715,360.722202 C788.707264,360.317768 781.033062,359.834163 781.55537,353.341275 C780.436275,344.912061 777.070397,337.034175 776,328.499083" id="Fill-3" fill="#7DB4DB"/>
                <path d="M1349.31365,825.968561 C1393.63263,822.597324 1394.91393,764.613191 1350.69241,756.598029 C1302.42825,744.721841 1296.81289,829.48874 1349.31365,825.968561 M1353.43464,573.180197 C1364.06722,561.34029 1387.3494,519.61753 1403.70339,541.002115 C1426.30049,579.28394 1441.09992,620.760373 1464.53976,658.835971 C1435.38902,646.54733 1404.65792,666.88073 1403.5916,698.012401 C1402.01124,745.216404 1475.96825,744.377175 1486.6037,703.218676 C1489.62493,694.123687 1511.93061,742.903035 1514.4397,747.979463 C1515.58245,750.78644 1516.82649,753.347091 1513.72118,755.478102 C1484.03633,773.346328 1485.52879,818.488062 1522.75429,827.115221 C1527.99127,829.036186 1536.12814,825.54656 1538.55315,832.116223 C1547.58243,852.299727 1555.89893,872.766794 1563.24848,893.626264 C1577.24053,927.693804 1534.3347,919.00554 1514.00209,919.710149 C1510.59389,919.691054 1510.17826,919.011269 1510.29196,915.616163 C1510.80792,900.04985 1504.58679,887.900603 1491.88082,878.926868 C1483.18977,869.884391 1473.67988,861.099697 1460.67866,868.124779 C1443.23829,877.620764 1431.6101,897.262922 1432.73183,917.255476 C1432.94299,920.633396 1430.81036,921.16233 1427.97736,920.986655 C1383.55614,921.526091 1339.04224,923.525347 1294.71084,919.759796 C1284.71556,920.261997 1307.75123,891.245107 1283.87474,871.939022 C1258.52776,832.144866 1201.4149,879.6162 1224.95793,915.548375 C1075.69571,889.640165 1107.39663,924.985166 1152.41407,828.92257 C1157.80871,817.83501 1193.44811,854.234059 1221.33284,815.516867 C1240.323,787.699148 1198.02295,775.596683 1201.74359,758.942905 C1212.65995,746.189299 1223.21514,733.116804 1233.97766,720.230486 C1237.60084,713.955842 1241.61672,723.500519 1245.68134,724.967022 C1286.51282,755.7588 1341.96888,670.237646 1289.85126,652.48781 C1291.59597,647.678713 1327.27168,603.647358 1334.79513,597.171261 C1333.30649,625.738461 1372.49264,647.060033 1390.73562,621.148958 C1415.71091,594.154237 1379.61765,563.605921 1353.43464,573.180197" id="Fill-5" fill="#EBBF5E"/>
                <path d="M1743.83055,211.320812 C1741.16689,238.501962 1741.18888,266.606414 1727.40385,291.084424 C1709.46503,328.848262 1688.7057,369.329547 1651.13136,391.001404 C1558.06969,448.201333 1462.55095,398.33441 1447.23563,292.433132 C1444.03063,273.949912 1442.23923,255.224421 1439.35655,236.676341 C1436.35623,224.526518 1442.61607,211.936983 1438.00033,200.460561 C1436.01861,197.545672 1437.0592,195.250769 1440.43254,192.649688 C1485.4326,167.149178 1533.05425,209.932997 1552.20677,249.042681 C1563.33676,265.729849 1567.4035,166.018895 1576.01807,159.729374 C1585.1692,144.595033 1606.49283,153.304409 1618.92164,159.655929 C1637.69351,170.685007 1636.97714,195.776327 1638.65568,214.908148 C1640.44325,222.222077 1638.3544,252.268517 1650.75931,236.043955 C1671.15711,210.276374 1667.54276,174.398248 1685.84597,147.772224 C1711.87045,116.480089 1746.72757,188.26114 1743.83055,211.320812" id="Fill-7" fill="#60D6E1"/>
                <path d="M1705.40131,670.157542 C1706.02776,726.740654 1714.78946,782.460578 1722.11395,838.437075 C1724.14323,856.508685 1725.57089,874.648969 1727.2793,892.757778 C1727.72717,897.50483 1727.41777,898.040865 1722.42145,898 C1705.92558,898.193472 1690.69024,890.956053 1674.74634,889.479574 C1665.43363,888.469502 1658.73463,884.149751 1654.70568,875.480681 C1639.06353,847.456189 1624.84427,820.132738 1649.86311,792.340972 C1702.57751,718.769764 1601.90915,694.81322 1645.06733,626.297142 C1693.76042,574.16922 1665.27797,558.276084 1659.23311,499.681413 C1663.15415,440.548799 1754.77337,424.878852 1762.92581,491.420568 C1772.19268,527.006771 1725.99011,587.900096 1744.78265,608.902728 C1779.44938,643.5647 1770.46517,688.713682 1772.35598,733.043351 C1779.40641,773.62364 1800.69137,802.645805 1780.55712,845.968264 C1774.6049,858.990468 1773.49429,876.671021 1757.59335,881.419027 C1749.3416,880.985049 1735.08414,903.277216 1733.9105,886.958686 C1730.56911,832.822066 1720.24033,779.561986 1715.18481,725.612311 C1712.78788,696.59873 1713.64065,667.534598 1712.72485,638.520063 C1702.38938,621.145679 1706.69241,665.439103 1705.92844,670.11939 C1705.75273,670.13179 1705.57797,670.145143 1705.40131,670.157542" id="Fill-10" fill="#52DC82"/>
                <path d="M384.878241,925.539393 C390.828034,936.65539 334.053235,934.022302 325.755821,936.642038 C325.740533,936.464655 325.726201,936.287272 325.710913,936.108936 C319.123813,937.133179 310.88755,933.287975 306.08147,939.422945 C300.490939,945.223175 294.40929,933.534976 296.060365,928.398501 C296.601168,926.110642 296.953741,923.625374 296.666141,921.319396 C294.629051,905.05548 290.327467,889.290335 286.024927,873.512791 C285.67522,864.173485 274.843865,846.672657 283.335242,840.387961 C306.623229,826.621711 329.383789,811.99811 352.295316,797.628186 C365.14274,782.854859 379.737743,911.884723 384.878241,925.539393 Z M443.615602,643.899086 C460.265849,660.58071 473.75058,679.512046 483.991447,700.681648 C491.810164,721.438311 509.479911,754.096796 504.879261,775.312175 C479.424238,816.961876 459.246349,865.015482 464.131733,914.692237 C464.694513,923.122694 464.641006,923.672962 456.2232,924.775407 C446.694169,923.7216 392.10647,935.141817 393.488099,925.5269 C385.139088,881.367135 375.912944,837.352329 366.532968,793.408094 C365.583218,782.743184 381.765278,779.352882 387.398805,771.584273 C405.186077,758.155622 425.897126,725.576292 388.381042,724.975479 C379.021131,722.654243 355.525804,733.799803 359.132752,717.248832 C361.181308,690.464964 370.331013,666.334211 386.542693,644.846082 C393.206231,635.985519 405.935175,641.338478 415.444142,639.900341 L415.444142,639.760151 C424.750546,640.960824 436.346288,636.485243 443.615602,643.899086 Z M510.341184,784.635841 C513.758946,805.715799 532.383221,913.122112 516.071215,921.234043 C503.612672,921.732813 491.156996,922.19439 478.700364,922.620681 C472.998042,922.816184 473.164296,922.740844 472.411375,917.127533 C467.646382,870.993668 483.937367,821.443751 510.341184,784.635841 Z M669.913817,775.296058 C672.957031,780.800651 672.937921,780.89411 668.569453,785.23427 C634.939318,818.482124 618.886248,863.196925 616.814761,909.708444 C616.352308,915.602135 615.948138,916.010306 609.846424,916.382238 C584.78315,918.429771 559.676879,919.672405 534.528566,920.08916 C524.823726,921.485335 531.768176,904.043635 530.354061,898.620104 C530.048307,857.203099 524.382293,817.393985 517.211393,776.955447 C521.97352,754.106428 548.233059,732.145278 567.464065,719.388966 C609.759475,695.850443 650.60064,741.477908 669.913817,775.296058 Z M693.27423,866.669339 C691.960441,878.634103 690.779464,890.61508 689.274578,902.555049 C689.106413,912.991077 674.585938,909.298461 667.377774,911.345994 C655.388374,912.46179 643.356932,913.198024 631.372309,914.322403 C625.674764,915.252233 625.031724,914.827849 625.15307,908.875984 C625.466469,893.457021 628.299476,878.422388 632.539909,863.637617 C639.988855,837.670092 652.259167,814.355682 670.955103,794.612772 C683.859856,774.654332 694.191493,858.224577 693.27423,866.669339 Z M769.663279,798.855276 C784.428358,829.17345 799.445684,859.371462 814.420969,889.587594 C817.177537,895.148453 816.76859,896.102125 810.60477,896.673374 C774.413941,899.444744 738.469626,904.527814 702.30555,907.533787 C698.304943,907.697818 697.393412,906.642104 697.901729,902.406848 C704.420034,864.856982 701.120752,827.094446 686.943295,791.697016 C683.43094,782.549398 683.369789,782.600897 691.299342,777.00189 C707.552108,765.527313 725.847696,759.461962 745.368213,756.667704 C754.460589,753.591159 763.686733,791.401378 769.663279,798.855276 Z M766.349951,755.340288 C836.644834,753.537849 882.431579,818.384659 902.834963,878.59567 C903.936634,882.766076 906.626319,887.227352 900.227449,886.946019 C886.814379,885.758698 826.134521,900.676029 823.880537,889.545728 C801.519369,847.731996 782.430729,804.250291 761.782742,761.566811 C758.886673,756.240554 760.736488,754.870128 766.349951,755.340288 Z M861.955865,606.643713 C866.99126,614.314094 907.34704,645.275044 898.964588,651.220232 C879.081942,677.834346 882.189173,712.429738 892.429084,742.243421 C907.454054,779.390838 913.259569,822.843932 940.600714,853.489216 C957.738257,874.040839 1005.93664,880.144338 1007.882,845.051129 C1003.42085,772.902056 965.10312,703.037027 916.386864,650.616558 C916.915246,633.908231 965.722273,643.046313 977.103031,647.535245 C991.812691,651.873497 988.14937,649.162209 994.446958,662.284731 C1005.58407,689.539712 1021.22246,714.88735 1034.11097,740.921632 C1036.5035,765.489167 1041.0086,789.984222 1040.07509,814.717696 C1040.38276,814.734862 1040.69233,814.751074 1041,814.76824 C1040.08465,825.541869 1039.12152,836.311682 1038.29789,847.09294 L1038.37889,847.968626 C1039.20629,856.948146 1039.89483,866.70347 1029.15106,869.428883 C992.888565,879.320365 954.813524,879.764776 917.756071,885.136809 C913.410535,886.145793 912.973879,882.129882 911.955334,879.071457 C901.475597,846.021013 884.603678,816.541116 861.834519,790.437216 C844.985532,771.11869 824.527686,757.344811 799.295291,751.308069 C787.887779,745.576503 756.561314,751.722917 752.998318,742.076528 C736.264945,702.581171 720.218563,662.39631 713.112636,619.879722 C712.544124,616.645821 713.234938,615.686428 716.360323,615.327847 C755.984202,610.912348 795.738028,607.812915 835.525295,605.33623 C844.078778,606.307067 855.176713,600.156839 861.955865,606.643713 Z M911.733662,658.19758 C958.758713,707.654037 990.119575,772.68109 999.795752,840.188644 C1000.70633,872.938681 957.106683,863.50973 943.872288,844.657549 C929.161672,828.037914 924.220869,805.729627 916.271251,785.551843 C903.840417,745.414665 877.979315,698.668543 904.066867,658.745941 C907.292577,654.004286 907.790384,654.039572 911.733662,658.19758 Z M355.743176,780.608772 C356.298312,784.414875 354.530668,786.272628 351.776966,788.032152 C327.294626,803.702884 303.549918,819.372662 278.11305,833.636729 C271.869924,742.400872 247.555749,760.020909 311.524379,743.2134 C364.293794,731.072207 346.800811,735.071905 355.743176,780.608772 Z M383.611844,732.650915 C403.258485,733.063854 406.595032,739.138743 393.096924,754.444219 C389.284547,758.080569 363.635561,786.641126 362.900795,774.107974 C361.114042,737.495567 346.508529,733.889734 383.611844,732.650915 Z M704.757415,622.342674 C707.702214,635.078005 710.24571,647.929684 713.812528,660.490493 C721.587293,687.868498 732.038366,714.30809 743.240448,740.452998 C746.579861,748.248309 746.555974,748.130054 738.35793,749.499527 C719.288401,752.683836 701.671205,759.511171 685.855095,770.735886 C680.883717,775.339259 678.413794,774.78613 675.781438,768.520507 C627.582099,690.473929 568.765433,681.044024 514.707072,759.864984 C499.740386,716.620744 485.182648,672.386593 451.009799,639.250318 C533.660988,632.865487 615.604164,625.06636 698.0891,617.384535 C703.535353,616.769417 703.454137,616.704567 704.757415,622.342674 Z M372.272936,639.469663 C374.167659,639.956989 376.063337,640.443362 377.95806,640.930688 C324.608668,725.433623 384.393238,724.521913 308.80689,735.559708 C301.024481,735.028513 263.481644,753.134923 265.876084,740.784875 C264.960731,727.369577 264.139971,713.91327 261.83248,700.647698 C257.033089,688.751598 242.000475,668.348747 262.451633,662.017321 C298.193385,651.113993 334.272423,638.685745 372.173566,640.351809 C372.207008,640.058078 372.239495,639.764347 372.272936,639.469663 Z M1001.83361,656.676665 C1010.80464,660.591487 1027.80363,662.569402 1030.57931,672.539085 C1032.49888,688.420578 1033.7582,704.084635 1033.54513,720.191195 C1020.45024,700.333844 1011.35499,678.570104 1001.83361,656.676665 Z M1028.23628,657.695091 C1017.21287,651.110942 1002.15828,650.398549 993.693655,641.045891 C992.559497,633.436545 967.658655,593.432882 978.357198,593.1649 C1040.98624,588.491909 1028.88792,584.68962 1028.23628,657.695091 Z M982.868606,639.701024 C887.240047,612.966747 934.221145,675.395045 871.433492,602.693796 C900.905365,599.224339 931.236217,597.772851 960.958426,594.45312 C968.801986,593.036917 979.178531,631.717838 982.868606,639.701024 Z" id="Combined-Shape" fill="#60D6E1"/>
                <path d="M1229.02138,487.671733 C1233.35675,489.127277 1239.63996,492.345699 1234.57822,497.200056 C1210.56265,534.092598 1189.47364,573.972583 1157.85494,605 C1133.01837,589.135052 1138.52168,586.58284 1155.72741,567.930884 C1180.66816,542.073749 1203.5779,512.028466 1229.02138,487.671733 Z M1249.90739,497.956652 C1297.10605,503.609888 1191.75563,582.302778 1179.51894,593.507123 C1179.35168,593.252284 1179.18251,592.997444 1179.0143,592.742605 C1202.87694,564.013515 1221.32421,531.528646 1241.51766,500.239708 C1244.53789,495.553335 1244.68699,495.720365 1249.90739,497.956652 Z M1220.13657,483.584758 C1194.695,516.309196 1166.31253,545.796123 1138.39839,576.31577 C1135.16694,579.831981 1134.67854,579.753716 1132.5099,575.524527 C1123.98733,563.524166 1138.63542,553.064296 1145.45099,543.430984 C1162.16928,523.259536 1178.75662,502.94301 1195.55901,482.859372 C1202.45105,476.65637 1210.95165,483.32801 1220.13657,483.584758 Z M1188.6924,478.845985 C1168.71781,504.960823 1146.99609,529.182023 1126.62773,554.945622 C1121.73707,560.395559 1120.45538,547.267987 1118.93667,544.285316 C1118.1711,541.243469 1118.8927,538.389649 1120.92275,535.678997 C1134.03588,518.172387 1147.12798,500.646688 1159.93622,482.918644 C1166.39434,473.564987 1178.94453,477.727364 1188.6924,478.845985 Z M1154.1654,478.256037 C1141.55404,495.550758 1130.24349,513.331297 1115.60209,530.332046 C1113.63226,513.770346 1102.73077,496.509985 1114.1044,482.624576 C1114.1044,472.021538 1146.64064,477.026699 1154.1654,478.256037 Z" id="Combined-Shape" fill="#F55B80"/>
            </g>
        </g>
        <g transform="translate(1565.000000, 667.500000) scale(-1, 1) translate(-1565.000000, -667.500000) translate(1113.000000, 238.000000) scale(1 1)" id="Master/Character/Standing">
            <g id="Master/Character/Standing" stroke="none" stroke-width="1" fill="none" fill-rule="evenodd">
                <g id="Legs" transform="translate(50.000000, 263.000000) scale(1 1)">
                    <g id="Legs/Pants Stride" stroke="none" stroke-width="1" fill="none" fill-rule="evenodd">
                        <g id="Right-leg" transform="translate(340.912300, 0.000075)">
                            <path d="M351.570952,557.400568 L292.421642,588.268621 C289.23919,589.928579 285.361168,588.667216 283.759463,585.45079 C246.439243,510.875624 199.230368,417.989682 161.287429,343.131708 C156.535206,333.763189 159.73662,322.39145 168.445702,317.732295 L207.213943,296.98589 C215.92103,292.326735 226.838569,296.144639 231.593785,305.518281 C251.975853,345.704643 292.982488,426.593799 313.314658,466.827296 C327.03044,493.982986 340.71828,521.075146 354.368197,548.438842 C356.005828,551.729043 354.753405,555.740609 351.570952,557.400568" id="SKIN-DARKER" fill="#964c1c"/>
                            <path d="M86.3018681,0.553047184 L3.58722884,44.8848046 C0.925720594,46.310596 0.289077427,50.4516434 2.16502598,54.1345105 C47.1498124,143.092204 210.139458,465.665446 251.855077,548.999925 L347.0877,498.490422 C306.772296,419.027412 139.536031,92.5806506 95.7585677,7.05572162 C94.3243715,3.06432593 89.8698682,-1.62510275 86.3018681,0.553047184" id="Fill-3" fill="#051026"/>
                            <polygon id="Fill-5" fill="#FFF" points="351.0877 540.556344 280.284523 577.999925 267.0877 551.628227 337.798704 513.999925"/>
                            <path d="M343.719319,525.999925 C338.839171,528.596035 321.243031,537.953385 304.83617,546.680031 C313.20814,560.743411 282.702962,576.912582 276.474497,561.764307 C274.326992,562.907008 273.0877,563.566616 273.0877,563.566616 L289.211494,595.999925 L392.0877,542.206257 L386.757446,531.444014 C382.48344,522.799949 353.425603,535.562693 343.719319,525.999925" id="Fill-7" fill="#0A1B45"/>
                        </g>
                        <path d="M243,0 C243,55.228475 289.562386,100 347,100 C404.437614,100 451,55.228475 451,0" id="Path" fill="#0A1B45"/>
                        <g id="Left-Leg" transform="translate(15.000400, 0.000075)">
                            <path d="M30.239127,557.161414 L6.48321118,491.091216 C5.21392545,487.532681 6.52914914,483.643194 9.42224179,482.410903 C17.7749608,479.121599 25.640338,474.891582 33.6914643,471.031892 C59.328839,457.46285 83.4372787,440.300156 104.929252,420.190817 C135.662744,390.774378 160.646002,356.076536 180.175626,316.548494 C182.322726,312.342953 185.979787,309.372897 190.199089,307.916068 C200.492187,302.022777 233.664385,326.382352 243.12361,329.170438 C247.552628,331.433896 250.627475,335.548984 251.969663,340.466445 C253.653389,376.004969 183.860649,458.895203 157.588132,483.422914 C141.92229,498.068881 124.074395,512.379639 106.514112,524.333293 C94.3745071,532.319777 81.4759276,540.045543 68.7441229,546.868906 C60.3704323,549.247293 34.5433138,569.214035 30.239127,557.161414" id="SKIN" fill="#ae5d29"/>
                            <path d="M327.589239,-7.48875118e-05 L234.263966,2.49908329 C229.168425,2.66739829 228.517611,9.87191949 228.971481,14.5112349 C230.778964,179.189353 185.88582,369.76348 39.9996,452.672467 L91.3448955,552.999925 C227.004045,476.171584 302.743354,318.80132 323.872303,161.436382 C326.849451,141.283324 342.647926,1.01301097 327.589239,-7.48875118e-05" id="Fill-12" fill="#0A1B45"/>
                            <path d="M44.8850906,557.999925 L13.9996,479.217498 C21.9808145,475.635354 30.8073943,471.323017 38.4599114,466.999925 L74.9996,542.961589 C65.5638745,548.266517 54.7138457,553.5865 44.8850906,557.999925" id="Fill-14" fill="#FFF"/>
                            <path d="M62.9996,549.37113 C60.6360448,544.095785 52.1153883,525.069219 44.1695419,507.327972 C31.6000913,515.152677 16.6218644,483.646376 30.4343923,476.662236 C29.3943075,474.338445 28.7933695,472.999925 28.7933695,472.999925 C20.8193856,477.171895 8.37755891,482.485544 -0.00040000003,485.956334 L40.2423423,600.999925 L52.6550265,595.76714 C63.0086442,589.458645 52.9112793,557.402253 62.9996,549.37113" id="Fill-16" fill="#0A1B45"/>
                            <path d="M281.629623,1.99992511 L279.631892,2.05201959 C285.059729,189.839841 231.3627,406.728274 64.9996,501.133029 L65.9555146,502.999925 C233.003836,408.206056 287.085428,190.604248 281.629623,1.99992511" id="Fill-18" fill="#FFF"/>
                        </g>
                    </g>
                </g>
                <g id="Body" transform="translate(17.000000, -31.000000) scale(1 1)">
                    <g id="Body/Sweats Shake Hand" stroke="none" stroke-width="1" fill="none" fill-rule="evenodd">
                        <g id="Body" transform="translate(238.000000, 149.000000)">
                            <path d="M278.106708,192.298647 C205.538716,197.378937 1.44114734,174.139406 3.75109927,161.20524 C8.33256874,135.552114 16.2642525,95.4663653 27.5461506,40.9479927 C27.5461506,18.3333745 47.7038086,-0.000770909091 72.5687342,-0.000770909091 L211.895593,-0.000770909091 C236.760519,-0.000770909091 256.917117,18.3333745 256.917117,40.9479927 C266.870755,93.2351517 274.102974,132.007446 278.613775,157.264876 C280.224412,166.283349 280.055389,177.961273 278.106708,192.298647 Z" id="Sweat-Body" fill="#34D1A1"/>
                            <path d="M0.000317843866,195.189749 C100.650875,230.844295 209.77727,197.117022 284.463162,195.189749 L279.673255,156.30124 C206.510894,158.917513 101.819481,190.863022 3.67459294,157.11744 L0.000317843866,195.189749 Z" id="Bottom" fill="#2DB386"/>
                        </g>
                        <g id="Left-Arm" transform="translate(254.000000, 149.000000)">
                            <path d="M245.5687,200.7129 C202.2867,202.4529 153.1557,202.3859 117.4977,175.4529 C86.0537,148.3519 78.8097,100.9299 77.3677,59.5679 C77.0107,41.0099 64.3127,25.4009 45.2637,23.9779 C4.3387,22.7319 10.4147,70.4079 14.2027,98.7859 C19.4537,138.8459 31.9467,179.2569 59.3637,210.6699 C87.0537,242.9889 130.1117,258.7759 170.7947,264.1759 C204.2027,268.7699 237.4827,268.1599 270.7497,264.8999 C285.8757,263.3999 300.8897,261.3059 315.8637,258.6359 C324.4857,257.3639 326.5287,245.4949 318.7897,241.8289 L324.2247,240.7709 C333.1917,239.2589 334.0947,226.4599 325.8257,223.5769 C335.1857,217.6839 327.2517,203.4119 317.1797,207.5049 C322.2647,201.6719 316.4757,191.0819 308.8617,192.8189 C303.3517,193.8639 297.7797,194.8109 292.1977,195.6669 C289.1307,181.2449 268.8407,191.6809 258.7357,190.7099 C248.6917,191.5439 251.1567,200.3659 245.5687,200.7129" id="SKIN" fill="#ae5d29"/>
                            <path d="M241.2281,273.0296 C230.2531,273.5006 219.1741,273.6496 207.9731,273.2726 C169.7841,285.1006 121.1261,273.3286 85.0871,253.5276 C43.1591,230.1986 16.4421,185.0866 6.5411,139.4346 C0.0111,111.6556 -1.3869,78.9976 1.2721,52.4246 C-0.0759,26.4086 29.3635772,-0.000770909091 56.5687342,-0.000770909091 C83.7738912,-0.000770909091 89.9951,28.7706 89.2711,52.2216 C94.2691,88.7456 99.9091,131.1416 124.1391,159.4216 C137.4641,174.4466 159.3421,182.4736 178.1701,188.1896 C193.4361,192.7936 205.5911,195.6286 210.3001,198.3076 C219.4261,198.6226 228.6871,198.4986 238.0121,198.0986 L241.2281,273.0296 Z" id="Fill-5" fill="#34D1A1"/>
                            <path d="M208.4388,271.7822 L210.6888,196.8152 C219.6508,197.1232 228.7758,196.9892 237.9478,196.5972 L241.1638,271.5282 C230.3558,271.9892 219.4668,272.1492 208.4388,271.7822" id="Fill-8" fill="#2DB386"/>
                        </g>
                    </g>
                </g>
                <g id="Head" transform="translate(338.000000, -61.000000) scale(1 1)">
                    <g id="Head/Bob" stroke="none" stroke-width="1" fill="none" fill-rule="evenodd">
                        <g id="Group-22" transform="translate(3.000000, 61.000000)">
                            <path d="M32,115.9999 L27.88,115.9999 C12.482,115.9999 0,103.5179 0,88.1199 L0,51.9999 L32,51.9999 L32,115.9999 Z" id="Fill-1" fill="#000"/>
                            <path d="M73,115.9999 L106.358,115.9999 C108.37,115.9999 110,114.3699 110,112.3579 L110,51.9999 L73,51.9999 L73,115.9999 Z" id="Fill-3" fill="#000"/>
                            <path d="M50.8008,104.9999 L64.9998,104.9999 L64.9998,-0.0001 L50.8008,-0.0001 C22.7448,-0.0001 -0.0002,22.7439 -0.0002,50.8009 L-0.0002,54.1989 C-0.0002,82.2559 22.7448,104.9999 50.8008,104.9999" id="Fill-5" fill="#000"/>
                            <path d="M66.1992,57.9994 L57.0002,57.9994 L57.0002,-0.0006 L66.1992,-0.0006 C94.2552,-0.0006 117.0002,9.8554 117.0002,31.5524 L117.0002,41.9134 C117.0002,57.9994 94.2552,57.9994 66.1992,57.9994" id="Fill-8" fill="#000"/>
                            <path d="M32,72.9999 L77,72.9999 L77,124.6329 C77,138.5379 66.927,149.8099 54.5,149.8099 C42.073,149.8099 32,138.5379 32,124.6329 L32,72.9999 Z" id="SKIN" fill="#ae5d29"/>
                            <path d="M79.0525,104.9999 L74.0655,104.9999 C50.8335,104.9999 32.0005,86.1669 32.0005,62.9349 L32.0005,43.2029 C32.0005,25.4179 46.4175,10.9999 64.2035,10.9999 L69.7965,10.9999 C87.5825,10.9999 102.0005,25.4179 102.0005,43.2029 L102.0005,82.0519 C102.0005,94.7259 91.7265,104.9999 79.0525,104.9999" id="SKIN" fill="#ae5d29"/>
                            <path d="M53.7507501,107.331676 C44.4557924,104.043569 39.8185822,95.7386742 37.9822222,84.5680961 C45.2532122,96.6701724 58.4406226,104.813226 73.5439426,104.996733 L74.0655,104.9999 L77,104.9999 C69.0632106,109.229739 61.3134606,110.006998 53.7507501,107.331676 Z" id="SHADOW" fill="#000" opacity=".12"/>
                            <path d="M44,69.4999 C44,76.4029 38.404,81.9999 31.5,81.9999 C24.596,81.9999 19,76.4029 19,69.4999 C19,62.5969 24.596,56.9999 31.5,56.9999 C38.404,56.9999 44,62.5969 44,69.4999" id="SKIN" fill="#ae5d29"/>
                            <path d="M29.0669,64.1684 C29.9717309,64.1684 31.2238875,64.3770928 32.5087204,65.0195092 C34.6552998,66.0927989 36.0129325,68.055228 36.10401,70.9020045 L36.1089,71.2104 L33.1089,71.2104 C33.1089,69.3750144 32.4075866,68.3230443 31.1670796,67.7027908 C30.7064142,67.4724581 30.1975823,67.3198085 29.686239,67.2345846 C29.4346302,67.1926498 29.2384731,67.1746448 29.1249097,67.169808 L29.0669,67.1684 L29.0669,64.1684 Z" id="Stroke-17" fill="#000" fill-rule="nonzero"/>
                            <path d="M31,56.9999 L29.464,56.9999 C23.61,51.3079 21.361,39.7079 20.683,28.4489 C19.754,13.0199 46.542,-0.0001 61.999,-0.0001 L61.999,-0.0001 C73.89,-0.0001 85.025,5.8309 91.797,15.6049 L99,25.9999 L57.697,25.9999 C57.697,42.9999 43,56.9999 31,56.9999" id="Fill-19" fill="#000"/>
                        </g>
                    </g>
                </g>
                <g id="Expression" transform="translate(385.000000, 34.000000) scale(1 1)" fill="#000">
                    <g id="Expression/Confident" stroke="none" stroke-width="1" fill="none" fill-rule="evenodd">
                        <polygon id="Stroke-5" fill="#000" fill-rule="nonzero" points="33.1977829 19.396766 36.1476171 18.850434 40.4350211 41.9996 30.5607 41.9996 30.5607 38.9996 36.828 38.999"/>
                        <g id="Group-19" transform="translate(7.500000, 6.500000)" fill="#000" fill-rule="nonzero">
                            <path d="M15.1954,35.0725 C15.1954,38.7467625 18.9374817,42.1446933 22.9550435,42.2765329 L23.1964,42.2805 L23.1964,45.2805 C17.5987295,45.2805 12.3696019,40.7145163 12.1996594,35.3417911 L12.1954,35.0725 L15.1954,35.0725 Z" id="Stroke-1"/>
                            <polygon id="Stroke-3" points="25.4714706 12.8831993 28.4213294 12.3370007 32.7076381 35.4861 22.8344 35.4861 22.8344 32.4861 29.101 32.486"/>
                            <polygon id="Stroke-5" points="25.4714706 12.8831993 28.4213294 12.3370007 32.7076381 35.4861 22.8344 35.4861 22.8344 32.4861 29.101 32.486"/>
                            <polygon id="Stroke-7" points="25.4714706 12.8831993 28.4213294 12.3370007 32.7076381 35.4861 22.8344 35.4861 22.8344 32.4861 29.101 32.486"/>
                            <path d="M16.8347,0.0006 L16.8347,3.0006 C12.8614229,3.0006 9.23835727,4.06604738 6.03595274,5.84488405 C4.91508362,6.46749218 3.9293314,7.13343565 3.08971515,7.7961842 L2.78614068,8.04060103 C2.50740693,8.26977369 2.30354376,8.45165644 2.17768642,8.57223303 L2.12127275,8.62734759 L0.000127251271,6.50585241 C0.850658012,5.65546184 2.39872067,4.43350326 4.57919726,3.22231595 C8.05718891,1.29039915 11.9861553,0.0986291869 16.2942223,0.0063786563 L16.8347,0.0006 Z" id="Stroke-9"/>
                            <path d="M28.8944,0.3444 C32.8871281,0.3444 36.5186416,1.41233258 39.717187,3.18913498 C41.5297756,4.19603386 42.8489265,5.21247949 43.6282704,5.95899887 L43.7680602,6.09573983 L41.6467398,8.21706017 C41.5206868,8.09100715 41.2403525,7.83943052 40.815131,7.5037443 C40.087555,6.92936785 39.2326886,6.35179507 38.260363,5.81166502 C35.6146324,4.34195302 32.6384875,3.43381034 29.3845651,3.35065325 L28.8944,3.3444 L28.8944,0.3444 Z" id="Stroke-11"/>
                            <path d="M7.22711504,13.179414 C8.68074249,16.8134826 15.4334605,16.8772382 16.3216227,13.6199964 L16.363529,13.4423258 L19.305271,14.0306742 C18.0084908,20.5145751 7.22968836,20.5936471 4.53765904,14.5213 L4.44168496,14.293586 L7.22711504,13.179414 Z" id="Stroke-13"/>
                            <path d="M32.227115,13.179414 C33.6807425,16.8134826 40.4334605,16.8772382 41.3216227,13.6199964 L41.363529,13.4423258 L44.305271,14.0306742 C43.0084908,20.5145751 32.2296884,20.5936471 29.537659,14.5213 L29.441685,14.293586 L32.227115,13.179414 Z" id="Stroke-15"/>
                        </g>
                    </g>
                </g>
                <g id="Accessories" transform="translate(372.000000, 56.000000) scale(1 1)" fill="#000">
                    <g id="Accessories/N65" stroke="none" stroke-width="1" fill="none" fill-rule="evenodd">
                        <path d="M55.1977784,0.766509801 C61.8672688,0.766509801 65.5931791,6.91877559 68.3190852,9.67622448 C68.5366389,9.86933778 68.7500465,10.0676638 68.9593821,10.2698541 C69.0753941,10.3682311 69.1897807,10.4565674 69.3026336,10.535583 L69.2915753,10.5973925 C73.2112403,14.5427001 75.6165684,19.8776287 75.6165684,25.7499259 C75.6165684,37.9001904 65.3191176,47.7499259 52.6165684,47.7499259 C39.9140192,47.7499259 29.6165684,37.9001904 29.6165684,25.7499259 C29.6165684,17.6330728 34.2120776,10.5428914 41.0501479,6.73002773 L41.0440543,6.69219525 L41.0440543,6.69219525 C46.4836096,4.14573474 47.6906867,0.766509801 55.1977784,0.766509801 Z" id="Clothe" fill="#D8D8D8"/>
                        <path d="M32.6165684,20.7333421 C32.6165684,32.8836066 42.9140192,42.7333421 55.6165684,42.7333421 C63.0741024,42.7333421 69.702661,39.3383929 73.9051908,34.0761112 C70.4693708,42.0893844 62.2320375,47.7333421 52.6165684,47.7333421 C39.9140192,47.7333421 29.6165684,37.8836066 29.6165684,25.7333421 C29.6165684,20.7166936 31.3720069,16.0922234 34.3273758,12.3912869 C33.2246542,14.9640107 32.6165684,17.7807509 32.6165684,20.7333421 Z" id="SHADOW" fill="#000" opacity=".12"/>
                        <line x1="0" y1="0" x2="34.913" y2="14.229" id="Path-4" stroke="#22252B" stroke-width="2"/>
                        <line x1="33.673" y1="28.173" x2="0" y2="28.173" id="Path-5" stroke="#22252B" stroke-width="2"/>
                    </g>
                </g>
                <g id="Glasses" transform="translate(364.000000, 42.000000) scale(1 1)" fill="#000">
                    <g id="Glasses/Round Big" stroke="none" stroke-width="1" fill="none" fill-rule="evenodd">
                        <path d="M59,16 C59,25.3888407 51.3888407,33 42,33 C32.719077,33 25.175204,25.5628044 25.0030079,16.3230397 L25,16 L0,16 L0,14 L25.1163521,14.0004624 C26.106,5.55389893 33.2876275,-1 42,-1 C50.7123725,-1 57.894,5.55389893 58.8836479,14.0004624 L61.1163521,14.0004624 C62.106,5.55389893 69.2876275,-1 78,-1 C87.3888407,-1 95,6.61115925 95,16 C95,25.3888407 87.3888407,33 78,33 C68.719077,33 61.175204,25.5628044 61.0030079,16.3230397 L61,16 L59,16 Z M42,1 C33.7157288,1 27,7.71572875 27,16 C27,24.2842712 33.7157288,31 42,31 C50.2842712,31 57,24.2842712 57,16 C57,7.71572875 50.2842712,1 42,1 Z M78,1 C69.7157288,1 63,7.71572875 63,16 C63,24.2842712 69.7157288,31 78,31 C86.2842712,31 93,24.2842712 93,16 C93,7.71572875 86.2842712,1 78,1 Z" id="Shape" fill="#000"/>
                    </g>
                </g>
            </g>
        </g>
        <g transform="translate(515.000000, 238.000000) scale(1 1)" id="Master/Character/Standing">
            <g id="Master/Character/Standing" stroke="none" stroke-width="1" fill="none" fill-rule="evenodd">
                <g id="Legs" transform="translate(50.000000, 263.000000) scale(1 1)">
                    <g id="Legs/Shorts Stand" stroke="none" stroke-width="1" fill="none" fill-rule="evenodd">
                        <g id="Left-Leg" transform="translate(226.999300, 2.140327)">
                            <path d="M33.0007,583.859673 C20.7970775,583.743632 12.5795,587.448673 12.5795,587.448673 C5.7555,587.252673 5.9365,579.470673 6.3905,574.247673 C12.8415,405.800673 22.3625,231.567673 30.8075,63.1526728 L109.7025,67.2226728 C101.4895,229.464673 92.5415,397.767673 85.9365,559.972673 L85.5485,571.077673 C84.7685,577.372673 87.7275,587.657673 78.6235,588.076673 C78.6241112,588.076673 52.1857872,584.042098 33.0007,583.859673 Z" id="SKIN" fill="#8152ff"/>
                            <path d="M126.1948,5.01817279 C122.0968,5.99717279 17.0498,-3.37682721 15.9878,1.33017279 C15.9868,1.33117279 6.6988,149.072173 6.6988,149.072173 L55.4968,151.556173 L67.2778,136.086173 L76.6478,152.633173 L126.2238,155.158173 L132.149793,7.39817279 C132.2088,6.25917279 129.5428,5.19317279 126.1948,5.01817279" id="Fill-3" fill="#FA3239"/>
                            <path d="M93.059,563.094 C94.224,529.997 96.591,479.84 98.1,446.29 L5.996,442 C4.112,486.096 0.747,549.961 0,593.537289 L31.17,593.537289 L32.686,586.211 C38.361,588.73 44.038,591.171 49.714,593.537289 C69.137,593.537289 108.72,593.537289 128,593.537289 C127.67,591.439 129.237,582.481 127.124,581.015 C118.35,573.364 100.798,571.106 93.059,563.094" id="Fill-5" fill="#0A1B45"/>
                        </g>
                        <path d="M471.011505,549.83803 C438.497745,391.577986 401.484032,231.849596 366.3135,74.2341 L443.3705,56.8201 C473.938846,193.400613 531.342383,456.32989 548.19381,533.794146 C551.087813,547.097571 473.186268,560.423647 471.011505,549.83803 Z" id="SKIN-DARKER" fill="#22c024"/>
                        <path d="M335.00088,13.7544224 C335.002771,13.7564186 365.982174,158 365.982174,158 L413.755576,147.304348 L420.964027,129.276645 L434.463964,142.668168 L483,131.801841 C467.314132,73.1731474 455.980798,29.2392004 449,0 L385.063435,0 C359.391894,5.60314896 334.830656,11.426808 335.00088,13.7544224 Z" id="Fill-10" fill="#CC2935"/>
                        <path d="M536.225,441.0519 L446.108,460.5549 C455.357,503.5629 467.227747,558.874 473.810747,596 L505.935,596 C505.989,595.308 504.472957,585.765331 504.521957,585.057331 C512.208827,588.773223 526.90067,595.440578 538.896002,596 L604.139,596 C604.005,588.796 603.064,583.9479 601.856,576.8399 C600.207,564.0949 568.725,563.9009 560.447,556.5569 C553.856,522.7629 543.498,475.0809 536.225,441.0519 Z" id="Fill-13" fill="#0A1B45"/>
                        <path d="M243,0 C243,55.228475 289.562386,100 347,100 C404.437614,100 451,55.228475 451,0" id="Waist" fill="#FA3239"/>
                    </g>
                </g>
                <g id="Body" transform="translate(17.000000, -31.000000) scale(1 1)">
                    <g id="Body/Tee Wave" stroke="none" stroke-width="1" fill="none" fill-rule="evenodd">
                        <g id="Right-Arm" transform="translate(613.724053, 228.721560) rotate(-10.000000) translate(-613.724053, -228.721560) translate(428.224053, 123.721560)">
                            <path d="M51.3964283,21.8427299 L51.8992912,21.8460448 C65.4678035,22.0296362 78.29468,29.82425 83.1401,42.764 C99.5311,84.993 123.4941,133.828 170.9071,142.639 C190.9491,145.926 211.7981,142.896 231.6171,138.273 C243.94111,135.618293 256.433464,130.008939 268.18931,127.347187 C290.104439,119.143228 315.216158,111.387757 336.445202,111.330302 L337.4054,111.333 L337.4054,111.333 L337.973572,111.331288 L337.973572,111.331288 L338.544461,111.333287 C357.235144,111.459188 379.87434,117.5189 367.2294,128.735 C365.348244,129.505221 358.455991,130.601397 350.250003,132.355177 L349.94689,132.420165 C357.532854,136.241382 362.062929,142.377492 357.6402,148.5677 C348.763297,157.848702 339.20238,141.515654 322.447631,141.80163 C322.408445,141.827175 322.370093,141.851504 322.331831,141.875889 C317.31293,145.074561 313.867014,149.228861 313.5354,154.85 C313.1634,161.32 315.6324,164.84 319.3264,166.726 C326.1294,170.54 339.5174,165.85 341.0004,176.31 C343.0134,186.699 330.9204,186.562 323.1434,187.591 C311.057437,188.956241 293.84765,188.688678 283.610342,192.105618 L283.0384,192.303 L283.0384,192.303 C282.889522,192.307488 282.741582,192.305932 282.594574,192.298447 L281.968458,192.508693 C279.65581,193.27641 277.2825,193.9312 274.8771,194.471 C261.3241,198.918 246.9351,202.811 232.8021,205.497 C218.82762,208.22349 204.321094,209.907487 189.827605,209.996374 L188.712756,210.000056 C166.41666,210.0104 144.1845,206.2118 124.0011,196.592 C83.1581,177.298 54.8811,139.313 35.6851,99.827 C23.0641,73.638 3.6141,36.253 42.3221,23.005 C45.32612,22.22218 48.3773792,21.8437768 51.3964283,21.8427299 Z" id="SKIN-DARKER" fill="#22c024"/>
                            <path d="M42.3221,23.005 C59.0111,18.656 77.1581,26.789 83.1401,42.764 C99.5311,84.993 123.4941,133.828 170.9071,142.639 C190.9491,145.926 211.7981,142.896 231.6171,138.273 C243.940411,135.618444 256.432047,130.009575 268.187309,127.347641 C290.434253,119.019669 315.975573,111.153344 337.4054,111.333 C356.2964,111.214 380.1324,117.29 367.2294,128.735 C365.32509,129.514701 358.285563,130.628432 349.946398,132.420237 C357.532854,136.241382 362.062929,142.377492 357.6402,148.5677 C348.763297,157.848702 339.20238,141.515654 322.447631,141.80163 C317.365651,145.011306 313.869542,149.186009 313.5354,154.85 C313.1634,161.32 315.6324,164.84 319.3264,166.726 C326.1294,170.54 339.5174,165.85 341.0004,176.31 C343.0134,186.699 330.9204,186.562 323.1434,187.591 C310.8294,188.982 293.1964,188.678 283.0384,192.303 C282.889522,192.307488 282.741582,192.305932 282.594574,192.298447 C280.085623,193.156809 277.500446,193.88229 274.8771,194.471 C261.3241,198.918 246.9351,202.811 232.8021,205.497 C196.9701,212.488 157.6401,212.625 124.0011,196.592 C83.1581,177.298 54.8811,139.313 35.6851,99.827 C23.0641,73.638 3.6141,36.253 42.3221,23.005 Z" id="SKIN-DARKER" fill="#22c024"/>
                            <path d="M108.0793,84.7891 C99.0854796,69.4308264 94.1923082,54.762552 86.4735468,37.599422 C76.061845,14.4483771 57.8781328,1.00606578 29.9995492,0 C-35.2684508,8.228 25.5863,89.0091 42.5433,123.2741 L108.0793,84.7891 Z" id="Fill-6" fill="#3F8FD4"/>
                        </g>
                        <path d="M312,149 L448,149 C470.09139,149 488,166.90861 488,189 L488,300 L488,300 L272,300 L272,189 C272,166.90861 289.90861,149 312,149 Z" id="body" fill="#55B0EB"/>
                        <path d="M334,149 C334,167.225397 354.594902,182 380,182 C405.405098,182 426,167.225397 426,149" id="SKIN" fill="#8152ff"/>
                        <g id="Left-Arm" transform="translate(9.000000, -43.000000)">
                            <path d="M56.3284042,7.94468523 C61.1746344,7.85761143 65.2242773,11.3345688 65.5433682,15.8902052 C65.9365152,21.512351 66.4189689,27.1497918 66.9931558,32.7838612 L67.2621694,32.7607786 C72.0986226,32.4136197 76.3238682,35.6868052 76.8638682,40.1688052 C76.2637976,49.7329519 86.0285373,70.3295861 76.2080232,75.5767246 C76.3876612,76.5213361 76.5714628,77.4548711 76.7571682,78.3751052 C85.5041682,118.859105 97.3561682,163.161105 129.064168,191.442105 C164.943168,220.040105 216.796168,212.826105 259.800168,202.636105 C276.518168,198.496105 293.834168,208.637105 299.703168,225.039105 C306.114168,243.068105 294.815168,261.929105 276.104168,266.591105 C242.022168,275.220105 205.072168,280.190105 169.010168,275.860105 C136.491168,272.188105 103.054168,258.967105 79.1731682,235.317105 C48.1541682,205.281105 31.0491682,164.453105 19.6881682,123.971105 C17.724075,116.756523 15.9500326,109.546861 14.3457001,102.316887 C11.298743,99.8696836 9.2548126,95.3228443 9.01196824,91.1759052 C4.70396824,69.3869052 1.82396824,47.6629052 0.0879682414,25.7159052 C-0.331031759,20.4179052 3.43996824,15.8519052 8.40496824,15.5689052 C13.3649682,15.2909052 17.6299682,19.2169052 18.0329682,24.3139052 C18.4572781,29.6789885 18.9528194,35.0345785 19.5234521,40.3815115 C24.2324724,36.4031208 30.1560885,33.7709341 36.8571682,33.1451052 C41.0450242,32.7608414 45.1634436,33.1492784 49.0462877,34.1975294 C48.4688037,28.5079656 47.9832373,22.8116651 47.5843682,17.1182052 C47.2453682,12.2662052 51.0913682,8.17220515 56.0583682,7.95320515 L56.0583682,7.95320515 Z" id="SKIN" fill="#8152ff"/>
                            <path d="M23.8444682,3.32680515 C8.38546824,4.44380515 18.3734682,32.6828052 17.7964682,43.0118052 C18.3704682,48.1348052 22.8994682,51.7588052 27.8364682,51.1128052 C32.7554682,50.4688052 36.2394682,45.9538052 35.6874682,41.0198052 C34.6074682,31.3958052 33.7924682,21.7438052 33.2404682,12.0708052 C32.9594682,7.12180515 28.8154682,3.20880515 23.8444682,3.32680515" id="SKIN" fill="#8152ff"/>
                            <path d="M39.7887682,0.937105151 C24.3577682,1.55210515 34.0947682,29.1521052 33.4767682,39.2421052 C34.0357682,44.2231052 38.5097682,47.7501052 43.4537682,47.1211052 C57.8137682,45.5901052 47.8377682,19.5711052 49.1157682,9.25510515 C48.8637682,4.47810515 44.7527682,0.810105151 39.7887682,0.937105151" id="SKIN" fill="#8152ff"/>
                            <path d="M219.0093,282.8579 C257.2193,277.3819 353.014802,273.056971 323.337802,214.041971 C316.306802,197.895971 320.461141,192 297.818076,192 C263,192 233.604959,203.255259 213.7493,207.0409 L219.0093,282.8579 Z" id="Fill-23" fill="#55B0EB"/>
                        </g>
                    </g>
                </g>
                <g id="Head" transform="translate(338.000000, -61.000000) scale(1 1)">
                    <g id="Head/Bunny Ears" stroke="none" stroke-width="1" fill="none" fill-rule="evenodd">
                        <g id="Group-34" transform="translate(16.000000, -1.000000)">
                            <path d="M0,106.1899 L0,106.1899 L0,23.6899 C0,9.1899 6.044,0.1899 13.5,0.1899 C20.956,0.1899 27,8.1899 27,23.6899 L27,79.1899 C27,94.1019 14.912,106.1899 0,106.1899" id="Fill-1" fill="#34D1A1"/>
                            <path d="M22,77.1899 L8,77.1899 L8,26.1899 C8,22.3239 8,9.1899 15,9.1899 C22,9.1899 22,22.3239 22,26.1899 L22,77.1899 Z" id="Fill-4" fill="#2DB386"/>
                            <path d="M52,106.1899 L52,106.1899 L52,23.6899 C52,9.1899 58.044,0.1899 65.5,0.1899 L65.5,0.1899 C72.956,0.1899 79,8.1899 79,23.6899 L79,79.1899 C79,94.1019 66.912,106.1899 52,106.1899" id="Fill-6" fill="#34D1A1"/>
                            <path d="M74,77.1899 L60,77.1899 L60,26.1899 C60,22.3239 60,9.1899 67,9.1899 C74,9.1899 74,22.3239 74,26.1899 L74,77.1899 Z" id="Fill-9" fill="#2DB386"/>
                            <path d="M80.4453,187.1899 L77.5543,187.1899 C70.0683,187.1899 64.0003,181.1219 64.0003,173.6349 L64.0003,91.3609 L94.0003,91.3609 L94.0003,173.6349 C94.0003,181.1219 87.9313,187.1899 80.4453,187.1899" id="Fill-11" fill="#2DB386"/>
                            <path d="M19,135.1899 L64,135.1899 L64,186.8239 C64,200.7279 53.927,212.0009 41.5,212.0009 C29.073,212.0009 19,200.7279 19,186.8239 L19,135.1899 Z" id="SKIN" fill="#8152ff"/>
                            <path d="M66.0525,167.1899 L61.0655,167.1899 C37.8335,167.1899 19.0005,148.3569 19.0005,125.1249 L19.0005,105.3929 C19.0005,87.6079 33.4175,73.1899 51.2035,73.1899 L56.7965,73.1899 C74.5825,73.1899 89.0005,87.6079 89.0005,105.3929 L89.0005,144.2429 C89.0005,156.9159 78.7265,167.1899 66.0525,167.1899" id="SKIN" fill="#8152ff"/>
                            <path d="M31,131.6899 C31,138.5929 25.404,144.1899 18.5,144.1899 C11.596,144.1899 6,138.5929 6,131.6899 C6,124.7869 11.596,119.1899 18.5,119.1899 C25.404,119.1899 31,124.7869 31,131.6899" id="Fill-19" fill="#8152ff"/>
                            <path d="M16.0669,126.3589 C16.9717309,126.3589 18.2238875,126.567593 19.5087204,127.210009 C21.6552998,128.283299 23.0129325,130.245728 23.10401,133.092504 L23.1089,133.4009 L20.1089,133.4009 C20.1089,131.565514 19.4075866,130.513544 18.1670796,129.893291 C17.7064142,129.662958 17.1975823,129.510309 16.686239,129.425085 C16.4849519,129.391537 16.319154,129.373304 16.2027418,129.364876 L16.0669,129.3589 L16.0669,126.3589 Z" id="Stroke-21" fill="#000" fill-rule="nonzero"/>
                            <path d="M18,119.1899 L16.464,119.1899 C10.61,113.4989 8.361,101.8979 7.683,90.6389 C6.754,75.2099 33.542,62.1899 48.999,62.1899 L66.984,62.1899 L87.671,88.1899 L49.697,88.1899 C42.921,106.2759 30,119.1899 18,119.1899" id="Fill-23" fill="#000"/>
                            <path d="M14.3918,187.1899 L14.3918,187.1899 C6.5068,187.1899 0.1148,180.7979 0.1148,172.9139 L0.1148,91.3609 L28.6688,91.3609 L28.6688,172.9139 C28.6688,180.7979 22.2768,187.1899 14.3918,187.1899" id="Fill-25" fill="#34D1A1"/>
                            <path d="M94,98.8755 L94,98.6895 C94,98.7525 93.987,98.8135 93.981,98.8755 L94,98.8755 Z" id="Fill-27" fill="#34D1A1"/>
                            <path d="M47.0576,52.8911 C26.3446,52.9351 0.1156,70.6121 0.1156,92.4131 L0.1156,108.8751 C0.1156,108.8751 27.9996,108.7521 27.9996,108.6901 C27.9996,103.9951 41.6806,90.1901 60.2946,90.1901 C78.9096,90.1901 93.9996,103.9951 93.9996,108.6901 L93.9996,92.4131 C93.9996,70.6121 67.7706,52.9351 47.0576,52.8911" id="Fill-30" fill="#34D1A1"/>
                            <path d="M46.9802,52.8891 C47.0052,52.8891 47.0322,52.8911 47.0572,52.8911 C47.0832,52.8911 47.1092,52.8891 47.1352,52.8891 L46.9802,52.8891 Z" id="Fill-32" fill="#34D1A1"/>
                        </g>
                    </g>
                </g>
                <g id="Expression" transform="translate(385.000000, 34.000000) scale(1 1)" fill="#000">
                    <g id="Expression/Happy 2" stroke="none" stroke-width="1" fill="none" fill-rule="evenodd">
                        <polygon id="Stroke-5" fill="#000" points="33.1977829 19.396766 36.1476171 18.850434 40.4350211 41.9996 30.5607 41.9996 30.5607 38.9996 36.828 38.999"/>
                        <path d="M21.9219,41.586 C21.9219,45.2602625 25.6639817,48.6581933 29.6815435,48.7900329 L29.9229,48.794 L29.9229,51.794 C24.3252295,51.794 19.0961019,47.2280163 18.9261594,41.8552911 L18.9219,41.586 L21.9219,41.586 Z" id="Stroke-7" fill="#000"/>
                        <path d="M24.8347,7.0006 L24.8347,10.0006 C20.8614229,10.0006 17.2383573,11.0660474 14.0359527,12.8448841 C12.9150836,13.4674922 11.9293314,14.1334356 11.0897152,14.7961842 L10.7861407,15.040601 C10.5074069,15.2697737 10.3035438,15.4516564 10.1776864,15.572233 L10.1212727,15.6273476 L8.00012725,13.5058524 C8.85065801,12.6554618 10.3987207,11.4335033 12.5791973,10.2223159 C16.0571889,8.29039915 19.9861553,7.09862919 24.2942223,7.00637866 L24.8347,7.0006 Z" id="Stroke-4" fill="#000"/>
                        <path d="M36.8954,7.3444 C40.8877089,7.3444 44.5189484,8.41234066 47.7173411,10.1891511 C49.5298313,11.196048 50.8489395,12.2124881 51.6282721,12.9590003 L51.7680602,13.0957398 L49.6467398,15.2170602 C49.5206826,15.0910029 49.2403474,14.8394225 48.8151324,14.5037331 C48.0875713,13.9293541 47.2327349,13.3517796 46.2604589,12.8116489 C43.6148805,11.3419446 40.6390044,10.4338096 37.3855011,10.3506532 L36.8954,10.3444 L36.8954,7.3444 Z" id="Stroke-6" fill="#000"/>
                        <path d="M12.441685,23.929414 C14.9313631,17.7052186 25.7247131,17.6293138 27.2529395,23.9551094 L27.305271,24.1923258 L24.363529,24.7806742 C23.6883751,21.4049049 16.9493145,21.3456809 15.3099937,24.8523178 L15.227115,25.043586 L12.441685,23.929414 Z" id="Stroke-8" fill="#000"/>
                        <path d="M37.441685,23.929414 C39.9313631,17.7052186 50.7247131,17.6293138 52.2529395,23.9551094 L52.305271,24.1923258 L49.363529,24.7806742 C48.6883751,21.4049049 41.9493145,21.3456809 40.3099937,24.8523178 L40.227115,25.043586 L37.441685,23.929414 Z" id="Stroke-10" fill="#000"/>
                    </g>
                </g>
                <g id="Accessories" transform="translate(372.000000, 56.000000) scale(1 1)" fill="#000">
                    <g id="Accessories/N65" stroke="none" stroke-width="1" fill="none" fill-rule="evenodd">
                        <path d="M55.1977784,0.766509801 C61.8672688,0.766509801 65.5931791,6.91877559 68.3190852,9.67622448 C68.5366389,9.86933778 68.7500465,10.0676638 68.9593821,10.2698541 C69.0753941,10.3682311 69.1897807,10.4565674 69.3026336,10.535583 L69.2915753,10.5973925 C73.2112403,14.5427001 75.6165684,19.8776287 75.6165684,25.7499259 C75.6165684,37.9001904 65.3191176,47.7499259 52.6165684,47.7499259 C39.9140192,47.7499259 29.6165684,37.9001904 29.6165684,25.7499259 C29.6165684,17.6330728 34.2120776,10.5428914 41.0501479,6.73002773 L41.0440543,6.69219525 L41.0440543,6.69219525 C46.4836096,4.14573474 47.6906867,0.766509801 55.1977784,0.766509801 Z" id="Clothe" fill="#D8D8D8"/>
                        <path d="M32.6165684,20.7333421 C32.6165684,32.8836066 42.9140192,42.7333421 55.6165684,42.7333421 C63.0741024,42.7333421 69.702661,39.3383929 73.9051908,34.0761112 C70.4693708,42.0893844 62.2320375,47.7333421 52.6165684,47.7333421 C39.9140192,47.7333421 29.6165684,37.8836066 29.6165684,25.7333421 C29.6165684,20.7166936 31.3720069,16.0922234 34.3273758,12.3912869 C33.2246542,14.9640107 32.6165684,17.7807509 32.6165684,20.7333421 Z" id="SHADOW" fill="#000" opacity=".12"/>
                        <line x1="0" y1="0" x2="34.913" y2="14.229" id="Path-4" stroke="#22252B" stroke-width="2"/>
                        <line x1="33.673" y1="28.173" x2="0" y2="28.173" id="Path-5" stroke="#22252B" stroke-width="2"/>
                    </g>
                </g>
                <g id="Glasses" transform="translate(364.000000, 42.000000) scale(1 1)" fill="#000">
                    <g id="Glasses/Round Big" stroke="none" stroke-width="1" fill="none" fill-rule="evenodd">
                        <path d="M59,16 C59,25.3888407 51.3888407,33 42,33 C32.719077,33 25.175204,25.5628044 25.0030079,16.3230397 L25,16 L0,16 L0,14 L25.1163521,14.0004624 C26.106,5.55389893 33.2876275,-1 42,-1 C50.7123725,-1 57.894,5.55389893 58.8836479,14.0004624 L61.1163521,14.0004624 C62.106,5.55389893 69.2876275,-1 78,-1 C87.3888407,-1 95,6.61115925 95,16 C95,25.3888407 87.3888407,33 78,33 C68.719077,33 61.175204,25.5628044 61.0030079,16.3230397 L61,16 L59,16 Z M42,1 C33.7157288,1 27,7.71572875 27,16 C27,24.2842712 33.7157288,31 42,31 C50.2842712,31 57,24.2842712 57,16 C57,7.71572875 50.2842712,1 42,1 Z M78,1 C69.7157288,1 63,7.71572875 63,16 C63,24.2842712 69.7157288,31 78,31 C86.2842712,31 93,24.2842712 93,16 C93,7.71572875 86.2842712,1 78,1 Z" id="Shape" fill="#000"/>
                    </g>
                </g>
            </g>
        </g>
        <g transform="translate(199.000000, 238.000000) scale(1 1)" id="Master/Character/Standing">
            <g id="Master/Character/Standing" stroke="none" stroke-width="1" fill="none" fill-rule="evenodd">
                <g id="Legs" transform="translate(50.000000, 263.000000) scale(1 1)">
                    <g id="Legs/Loose Pants Stride" stroke="none" stroke-width="1" fill="none" fill-rule="evenodd">
                        <g id="Group-14" transform="translate(9.000000, 8.000000)">
                            <path d="M681.461533,545.755096 L622.611017,576.283172 C619.423509,577.93566 615.524781,576.633917 613.90156,573.377003 L556.04895,457.230425 L368,79.7024084 L438.298972,43 L626.417845,420.671178 L684.29343,536.861726 C685.916651,540.119663 684.648041,544.101586 681.461533,545.755096" id="Fill-1" fill="#dcb284"/>
                            <path d="M682.815722,516.723088 L674.977792,501 L593,543.506984 L615.183047,588 L618.076791,586.500281 L642.899395,573.636956 L640.949632,566.648124 L659.387657,565.092331 L697.16981,545.514426 L729,529.019558 L723.739825,518.467492 C720.053615,511.074929 695.558962,520.577906 682.815722,516.723088" id="Fill-3" fill="#0A1B45"/>
                            <path d="M322,28.1541059 L531.513769,469.699163 L579.410278,571 L614.071922,553.024069 L616.576896,533.318896 L632.962728,543.225713 L704,506.385697 L651.962534,407.149718 L442.024986,0 C442.024986,0 321.445923,27.038796 322,28.1541059 Z" id="Fill-6" fill="#CC2935"/>
                            <path d="M34.4715308,537.927159 L10.4910626,474.935583 C9.20109118,471.520895 10.5400615,467.773542 13.4829962,466.572873 C48.5412189,452.170997 80.5885082,431.865068 108.837882,406.929453 C153.958881,366.435307 188.400118,313.208757 211.144613,253.788478 C212.675579,250.132224 213.954551,246.343926 215.305521,242.591454 L217.323476,236.958652 C217.987462,235.076275 218.705446,233.220511 219.283433,231.298213 C221.68838,223.650991 224.283322,216.085656 226.370276,208.299226 C230.927175,192.883998 234.522095,177.08083 237.843021,161.208059 C244.134882,129.34685 248.339789,96.8203099 250.140749,64 L329,68.7975547 C326.989045,105.196327 322.337148,141.533683 315.218306,177.513808 C311.476389,195.473674 307.376479,213.392597 302.169595,231.076095 C299.767648,239.961858 296.806714,248.715579 294.016776,257.508195 C293.343791,259.713003 292.520809,261.87789 291.753826,264.056085 L289.419878,270.583502 C287.852912,274.932725 286.355946,279.303444 284.582985,283.587158 L279.444099,296.493573 C278.622117,298.657437 277.614139,300.754768 276.70116,302.885877 L273.894222,309.254638 L271.081284,315.619305 C270.172304,317.752462 269.079329,319.81192 268.086351,321.912321 L261.972486,334.44615 C259.862533,338.590656 257.595583,342.665558 255.408632,346.775262 L252.095705,352.925999 C250.97873,354.970104 249.743757,356.952793 248.570783,358.968236 L241.435942,371.008696 C238.935997,374.952579 236.355054,378.8504 233.812111,382.77074 L229.979196,388.637944 L225.906286,394.353657 L217.719468,405.755398 L209.01966,416.792742 C207.562693,418.625987 206.126725,420.476633 204.648757,422.292478 L200.041859,427.60592 C196.958928,431.137297 193.908995,434.698358 190.788065,438.194933 L181.055281,448.354039 C179.420317,450.035794 177.829352,451.758491 176.156389,453.402373 L171.044502,458.23473 C167.625578,461.442653 164.243653,464.693567 160.78173,467.854405 C125.851505,498.799503 85.8903907,523.941883 43.3133348,541.4483 C39.7204144,542.921242 35.7605023,541.34287 34.4715308,537.927159" id="Fill-8" fill="#ffdbb4"/>
                            <path d="M63.9180824,539.068049 L72.5328335,534.995893 C73.2478209,534.649239 73.9737775,534.330114 74.6797902,533.96205 L76.7868592,532.833388 L81,530.574024 L38.8985079,447 L34.2216723,449.533628 C32.6441129,450.344184 31.0087162,451.054824 29.4072241,451.823578 L19.759381,456.376971 L17.3511597,457.522966 L14.8701433,458.532339 L9.9091077,460.550064 L-2.91038305e-11,464.618142 L1.12682819,467.729865 L10.7956124,494.420128 L17.4438987,493.203783 C17.4578594,499.483305 17.3830699,505.798511 17.2175358,512.149403 L31.9331142,552.774107 L44.3312158,587 L57.0603856,581.824671 C61.5258162,579.996584 62.0293987,572.607772 62.0104521,564.10865 C61.9595952,555.464748 61.3862092,545.689126 63.9180824,539.068049" id="Fill-10" fill="#0A1B45"/>
                            <path d="M233.812626,0 C233.774647,37.224782 230.243262,76.394168 224.689274,112.629821 L223.634846,119.416655 C223.280039,121.67825 222.962211,123.949052 222.520451,126.184053 L220.054788,139.643156 C219.20225,144.116226 218.185802,148.534061 217.268299,152.980536 C216.782563,155.195079 216.36379,157.432126 215.82808,159.627234 L214.22495,166.20949 L212.630814,172.792769 C212.358962,173.886232 212.118092,174.991969 211.822253,176.077249 L210.92474,179.323882 L207.361672,192.311435 C204.696118,200.832056 202.200471,209.420187 199.186106,217.737254 L197.027277,224.022874 C196.311665,226.118763 195.463125,228.142027 194.692543,230.206206 L192.330824,236.368057 L191.155462,239.450006 L190.56778,240.990468 L189.924129,242.496153 L184.807904,254.554929 C183.996344,256.588421 183.016876,258.513488 182.108368,260.481516 L179.351863,266.36412 C178.421368,268.315782 177.552839,270.30836 176.579367,272.228312 L173.614975,277.949301 L170.666574,283.673358 C170.168844,284.622594 169.706095,285.595356 169.181379,286.524134 L167.596239,289.297172 L161.297655,300.401597 L154.587294,311.134715 L152.921198,313.822853 L151.143162,316.409726 L147.591089,321.580403 L144.058005,326.75824 C142.838666,328.444975 141.557361,330.072383 140.316035,331.733546 L136.578062,336.699646 C135.334736,338.357741 134.120395,340.040384 132.767129,341.585961 L124.902394,351.082413 C114.111247,363.40407 102.604487,374.831726 90.4460816,385.353107 L81.7487986,392.348609 L79.5869711,394.107968 C79.2251673,394.398467 78.8723587,394.702264 78.5025592,394.982534 L77.3701734,395.792658 L72.851624,399.043382 L68.3530638,402.312518 L66.1102802,403.952201 C65.3586878,404.494329 64.5551236,404.961787 63.7815432,405.472206 L54.4486049,411.504151 C41.757488,419.155321 28.7895212,426.361536 15,432.146966 L31.2012132,468.272148 C34.1676044,468.933954 37.1679771,469.580416 40.2023314,470.213581 C41.7105135,470.513286 43.2646706,470.881524 44.7588602,471.114742 L49.2874041,471.842012 L47.1105847,475.966279 C46.3839788,477.359446 45.5814141,478.624753 44.8088331,479.966777 L40.0304247,487.962658 L73.2324175,562 C92.4609888,552.800184 110.907984,541.652798 128.735315,529.681991 L141.887182,520.325674 C142.973593,519.531916 144.087989,518.782143 145.149413,517.953607 L148.321693,515.450611 L154.655258,510.432343 L160.970832,505.400779 L162.546978,504.140586 C163.064697,503.711998 163.563426,503.255792 164.07215,502.815952 L167.108504,500.149294 L179.212939,489.450954 C196.174739,473.579891 211.942188,456.527398 226.387354,438.518508 L236.86667,424.769929 C238.647704,422.502196 240.25883,420.125014 241.895942,417.765222 L246.797284,410.681752 C248.417405,408.313777 250.077505,405.969327 251.657648,403.578848 L256.230168,396.316374 L260.785697,389.04674 L263.04847,385.406297 L265.170319,381.695275 L273.61474,366.841982 L281.427502,351.723761 L283.370449,347.941138 C284.011101,346.677876 284.580792,345.386997 285.188463,344.111461 L288.772519,336.434719 L292.342583,328.755932 C293.50895,326.19054 294.551385,323.582186 295.658784,320.996336 L298.927011,313.221398 C299.99843,310.626342 301.144809,308.051744 302.098291,305.42191 L308.034072,289.713486 L308.772672,287.749549 L309.447306,285.769246 L310.791577,281.809664 L313.471123,273.888453 C314.342651,271.243275 315.294135,268.617533 316.0957,265.959058 L318.501395,257.983635 C321.841584,247.377354 324.553113,236.660602 327.393573,225.976582 L331.145538,209.876393 L332.078032,205.851346 C332.384865,204.510346 332.632731,203.160139 332.912579,201.815047 L334.540696,193.739381 L336.161817,185.666783 C336.698526,182.975576 337.112302,180.272095 337.592041,177.575773 C338.495551,172.178016 339.492011,166.790488 340.306569,161.38864 L342.623313,145.181048 C343.036089,142.481658 343.318935,139.776131 343.637762,137.071626 L344.575254,128.960159 C349.459605,85.6993406 351.012687,43.026578 349.367579,0 C349.367579,0 233.812626,0 233.812626,0 Z" id="Fill-12" fill="#FA3239"/>
                        </g>
                        <path d="M243,0 C243,55.228475 289.562386,100 347,100 C404.437614,100 451,55.228475 451,0" id="Waist" fill="#FA3239"/>
                    </g>
                </g>
                <g id="Body" transform="translate(17.000000, -31.000000) scale(1 1)">
                    <g id="Body/Short Tee Open Arms" stroke="none" stroke-width="1" fill="none" fill-rule="evenodd">
                        <g id="Right-Arm" transform="translate(610.773762, 235.791649) rotate(-6.000000) translate(-610.773762, -235.791649) translate(420.273762, 132.791649)">
                            <path d="M51.2848658,20.7253227 L51.7877664,20.7267019 C65.0228347,20.855282 77.5989158,28.2632147 82.7663058,40.7594347 C110.052246,106.382055 141.655209,140.389849 193.487546,139.968669 L195.629071,139.931971 C214.288364,139.445819 235.541466,134.587355 260.107306,125.229435 C264.350776,123.051945 268.721827,121.320306 273.089722,120.15391 L273.150601,120.138429 C296.238024,110.34552 323.70799,100.283572 346.768806,99.6371347 C364.750806,99.8711347 378.501806,101.187135 380.303806,108.965135 C380.932806,111.718135 380.100806,114.690135 377.247806,115.958135 C375.360119,116.811043 368.334251,118.18447 360.028373,120.281424 L360.028729,120.281394 L360.274115,120.395312 C367.861202,123.957657 372.459426,129.874765 368.266506,136.156735 C366.326306,138.324935 364.308306,139.189095 362.153434,139.237671 L361.829169,139.238901 C354.889307,139.137265 346.517631,130.934138 334.778469,130.635247 L334.225722,130.627087 L334.225722,130.627087 L333.667998,130.630872 C333.367172,130.636176 333.064174,130.646806 332.758973,130.663015 L332.757981,130.664134 L332.536754,130.815841 C327.665776,134.185887 324.391023,138.445048 324.241806,144.039135 C324.079806,150.524135 326.670806,153.956135 330.437806,155.709135 C337.372806,159.279135 350.649806,154.095135 352.487806,164.512135 C354.842806,174.841135 342.702806,175.129135 334.947806,176.441135 C322.631806,178.278135 304.931806,178.612135 294.851806,182.605135 L294.816371,182.606789 L294.816371,182.606789 L294.597499,182.711729 C281.608112,188.918696 265.834046,192.752935 253.802306,196.522435 C233.543606,202.050485 212.205586,205.817985 190.929246,205.96586 L189.768786,205.970325 C172.74981,205.982836 155.783586,203.657155 139.454306,198.041435 C112.315306,188.774435 88.5573058,170.235435 70.2703058,148.750435 C49.1723058,124.082435 33.4783058,94.8334347 21.5723058,65.4884347 C14.2883058,47.7174347 22.9833058,27.6604347 41.2203058,22.2084347 C44.5389058,21.2220347 47.9302658,20.7395147 51.2848658,20.7253227 Z" id="SKIN" fill="#ffdbb4"/>
                            <path d="M51.2848658,20.7253227 L51.7877664,20.7267019 C65.0228347,20.855282 77.5989158,28.2632147 82.7663058,40.7594347 C110.052246,106.382055 141.655209,140.389849 193.487546,139.968669 L195.629071,139.931971 C214.288364,139.445819 235.541466,134.587355 260.107306,125.229435 C264.350776,123.051945 268.721827,121.320306 273.089722,120.15391 L273.150601,120.138429 C296.238024,110.34552 323.70799,100.283572 346.768806,99.6371347 C364.750806,99.8711347 378.501806,101.187135 380.303806,108.965135 C380.932806,111.718135 380.100806,114.690135 377.247806,115.958135 C375.360119,116.811043 368.334251,118.18447 360.028373,120.281424 L360.028729,120.281394 L360.274115,120.395312 C367.861202,123.957657 372.459426,129.874765 368.266506,136.156735 C366.326306,138.324935 364.308306,139.189095 362.153434,139.237671 L361.829169,139.238901 C354.889307,139.137265 346.517631,130.934138 334.778469,130.635247 L334.225722,130.627087 L334.225722,130.627087 L333.667998,130.630872 C333.367172,130.636176 333.064174,130.646806 332.758973,130.663015 L332.757981,130.664134 L332.536754,130.815841 C327.665776,134.185887 324.391023,138.445048 324.241806,144.039135 C324.079806,150.524135 326.670806,153.956135 330.437806,155.709135 C337.372806,159.279135 350.649806,154.095135 352.487806,164.512135 C354.842806,174.841135 342.702806,175.129135 334.947806,176.441135 C322.631806,178.278135 304.931806,178.612135 294.851806,182.605135 L294.816371,182.606789 L294.816371,182.606789 L294.597499,182.711729 C281.608112,188.918696 265.834046,192.752935 253.802306,196.522435 C233.543606,202.050485 212.205586,205.817985 190.929246,205.96586 L189.768786,205.970325 C172.74981,205.982836 155.783586,203.657155 139.454306,198.041435 C112.315306,188.774435 88.5573058,170.235435 70.2703058,148.750435 C49.1723058,124.082435 33.4783058,94.8334347 21.5723058,65.4884347 C14.2883058,47.7174347 22.9833058,27.6604347 41.2203058,22.2084347 C44.5389058,21.2220347 47.9302658,20.7395147 51.2848658,20.7253227 Z" id="SKIN-DARKER" fill="#dcb284"/>
                            <path d="M113.560306,79.6312347 C113.560306,79.6312347 100.68354,49.5206074 89.7863058,31.2892347 C80.9465019,16.5 60.892919,8.52651283e-14 35.2935333,8.52651283e-14 C35.2935333,8.52651283e-14 13.7891118,1.22610938 4.12511182,23.2061094 C-10.8788882,54.6701094 24.1363058,98.0652347 39.2493058,126.770235 L113.560306,79.6312347 Z" id="Fill-8" fill="#051026"/>
                        </g>
                        <g id="body" transform="translate(272.000000, 149.000000)">
                            <rect id="SKIN" fill="#ffdbb4" x="18" y="101" width="180" height="48"/>
                            <path d="M40,0 L176,0 C198.09139,-4.05812251e-15 216,17.90861 216,40 L216,117 L216,117 L0,117 L0,40 C-2.705415e-15,17.90861 17.90861,4.05812251e-15 40,0 Z" fill="#0A1B45"/>
                        </g>
                        <path d="M334,149 C334,167.225397 354.594902,182 380,182 C405.405098,182 426,167.225397 426,149" id="SKIN" fill="#ffdbb4"/>
                        <g id="Left-Arm" transform="translate(86.000000, 148.000000)">
                            <path d="M18.0802955,303.309495 C18.4982955,314.068495 25.3112955,324.542495 34.5242955,328.143495 C41.3482955,331.096495 47.2822955,322.166495 43.2452955,316.509495 C36.2042955,308.874495 28.0512955,298.122495 30.2632955,286.060495 C31.0852955,264.647495 15.3582955,293.969495 18.0802955,303.309495" id="SKIN" fill="#ffdbb4"/>
                            <path d="M18.0802955,303.309495 C18.4982955,314.068495 25.3112955,324.542495 34.5242955,328.143495 C41.3482955,331.096495 47.2822955,322.166495 43.2452955,316.509495 C36.2042955,308.874495 28.0512955,298.122495 30.2632955,286.060495 C31.0852955,264.647495 15.3582955,293.969495 18.0802955,303.309495" id="SKIN-DARKER" fill="#dcb284"/>
                            <path d="M34.4591955,274.717695 C16.9091955,268.509695 9.28819552,247.021695 17.0031955,230.508695 C42.0981955,174.714695 74.9911955,122.534695 113.319196,75.5276952 C122.682196,64.0106952 132.825196,52.2356952 142.737196,41.2306952 C148.638196,35.4596952 158.006196,22.7646952 166.158196,20.1876952 C178.312196,14.7696952 192.927196,17.3696952 202.228196,27.0346952 C211.386196,36.2986952 214.296196,50.5676952 209.727196,62.6146952 C207.526196,70.1106952 196.700196,79.7416952 191.613196,85.5836952 C182.509196,95.7206952 173.155196,106.524695 164.553196,117.135695 C129.524196,160.102695 99.8821955,207.196695 77.2581955,257.440695 C70.4611955,273.433695 50.5231955,280.995695 34.4591955,274.717695" id="SKIN" fill="#ffdbb4"/>
                            <path d="M112.378896,68.8128952 C112.378896,68.8128952 127.464117,48.1938254 134.757117,39.8808254 C165.878603,-2.39524957 213.76836,1 225.523649,1 C237.278939,1 230.687896,46.6348952 222.309896,59.6568952 C213.715896,70.5528952 203.058896,79.8888952 193.978896,90.3978952 C187.280896,97.8938952 177.348896,109.321895 171.098896,117.061895 L112.378896,68.8128952 Z" id="Fill-17" fill="#0A1B45"/>
                            <path d="M17.9008955,228.583995 C5.57789552,255.323995 -2.95510448,285.149995 2.07689552,314.143995 C5.49489552,330.932995 11.9818955,338.495995 13.3798955,340.948995 C16.1938955,345.805995 25.7238955,345.077995 26.3178955,339.145995 C26.2348955,332.379995 24.6228955,318.461995 25.8918955,310.161995 C26.9388955,299.695995 29.8768955,284.703995 42.0798955,282.936995 C53.9408955,281.349995 56.8178955,290.774995 57.8928955,299.516995 C58.6438955,307.805995 73.1728955,310.262995 74.7788955,301.870995 C76.4528955,286.901995 72.7908955,269.254995 78.4718955,254.850995 C79.2348955,241.714995 27.0058955,229.897995 17.9008955,228.583995 Z" id="SKIN" fill="#ffdbb4"/>
                        </g>
                    </g>
                </g>
                <g id="Head" transform="translate(338.000000, -61.000000) scale(1 1)">
                    <g id="Head/Afro" stroke="none" stroke-width="1" fill="none" fill-rule="evenodd">
                        <path d="M60,44 C14.0627304,44 -9,67.357571 -9,114.051992 C-9,160.746412 14.0627304,172 60,172 C105.93727,172 129,160.746412 129,114.051992 C129,67.357571 105.93727,44 60,44 Z" id="Fill-3" fill="#000"/>
                        <g id="head" transform="translate(22.000000, 72.000000)">
                            <g fill="#ffdbb4" id="SKIN">
                                <path d="M13,62 L58,62 L58,113.633 C58,127.538 47.926,138.81 35.5,138.81 C23.074,138.81 13,127.538 13,113.633 L13,62 Z"/>
                                <path d="M60.0525,94 L55.0655,94 C31.8335,94 13.0005,75.167 13.0005,51.935 L13.0005,32.203 C13.0005,14.418 27.4175,0 45.2035,0 L50.7965,0 C68.5825,0 83.0005,14.418 83.0005,32.203 L83.0005,71.052 C83.0005,83.726 72.7265,94 60.0525,94"/>
                                <path d="M25,58.5 C25,65.403 19.404,71 12.5,71 C5.596,71 0,65.403 0,58.5 C0,51.597 5.596,46 12.5,46 C19.404,46 25,51.597 25,58.5"/>
                            </g>
                            <path d="M10.067,53.1685 C10.9718309,53.1685 12.2239875,53.3771928 13.5088204,54.0196092 C15.6553998,55.0928989 17.0130325,57.055328 17.10411,59.9021045 L17.109,60.2105 L14.109,60.2105 C14.109,58.3751144 13.4076866,57.3231443 12.1671796,56.7028908 C11.7065142,56.4725581 11.1976823,56.3199085 10.686339,56.2346846 C10.4347302,56.1927498 10.2385731,56.1747448 10.1250097,56.169908 L10.067,56.1685 L10.067,53.1685 Z" id="ear-line" fill="#000"/>
                            <path d="M34.7507501,96.3316762 C25.4557924,93.0435693 20.8185822,84.7386742 18.9822222,73.5680961 C26.2532122,85.6701724 39.4406226,93.8132264 54.5439426,93.9967331 L55.0655,93.9999 L58,93.9999 C50.0632106,98.2297391 42.3134606,99.0069978 34.7507501,96.3316762 Z" id="SHADOW" fill="#000" opacity=".12"/>
                        </g>
                        <path d="M19.0235388,90.2974915 C18.0946008,77.6615932 44.8808128,67 60.3367811,67 L94.3260463,67 L110,94.0239492 L60.0298015,94.0239492 C53.2572536,108.828644 43.3389157,118 34.3395164,118 C25.3401171,118 19.7014935,99.5172542 19.0235388,90.2974915 Z" id="Fill-17" fill="#000"/>
                    </g>
                </g>
                <g id="Expression" transform="translate(385.000000, 34.000000) scale(1 1)" fill="#000">
                    <g id="Expression/Laughing" stroke="none" stroke-width="1" fill="none" fill-rule="evenodd">
                        <g id="Group-20" transform="translate(7.500000, 5.500000)" fill="#000">
                            <polygon id="Stroke-1" fill-rule="nonzero" points="25.4714706 13.8830993 28.4213294 13.3369007 32.7076381 36.486 22.8344 36.486 22.8344 33.486 29.101 33.486"/>
                            <polygon id="Stroke-2" fill-rule="nonzero" points="25.4714706 13.8830993 28.4213294 13.3369007 32.7076381 36.486 22.8344 36.486 22.8344 33.486 29.101 33.486"/>
                            <g id="Group-19" transform="translate(0.000000, 0.986500)">
                                <path d="M16.8347,0.0141 L16.8347,3.0141 C12.8614229,3.0141 9.23835727,4.07954738 6.03595274,5.85838405 C4.91508362,6.48099218 3.9293314,7.14693565 3.08971515,7.8096842 L2.65302753,8.16468165 C2.44161937,8.34219833 2.28256753,8.48525254 2.17768642,8.58573303 L2.12127275,8.64084759 L0.000127251271,6.51935241 C0.850658012,5.66896184 2.39872067,4.44700326 4.57919726,3.23581595 C8.05718891,1.30389915 11.9861553,0.112129187 16.2942223,0.0198786563 L16.8347,0.0141 Z" id="Stroke-3" fill-rule="nonzero"/>
                                <path d="M28.8944,0.3579 C32.8871281,0.3579 36.5186416,1.42583258 39.717187,3.20263498 C41.5297756,4.20953386 42.8489265,5.22597949 43.6282704,5.97249887 L43.7680602,6.10923983 L41.6467398,8.23056017 L41.4403381,8.03797919 C41.2900613,7.90399677 41.0808944,7.72704819 40.815131,7.5172443 C40.087555,6.94286785 39.2326886,6.36529507 38.260363,5.82516502 C35.6146324,4.35545302 32.6384875,3.44731034 29.3845651,3.36415325 L28.8944,3.3579 L28.8944,0.3579 Z" id="Stroke-5" fill-rule="nonzero"/>
                                <path d="M4.44168496,16.942914 C6.93136311,10.7187186 17.7247131,10.6428138 19.2529395,16.9686094 L19.305271,17.2058258 L16.363529,17.7941742 C15.6883751,14.4184049 8.9493145,14.3591809 7.30999365,17.8658178 L7.22711504,18.057086 L4.44168496,16.942914 Z" id="Stroke-7" fill-rule="nonzero"/>
                                <path d="M29.441685,16.942914 C31.9313631,10.7187186 42.7247131,10.6428138 44.2529395,16.9686094 L44.305271,17.2058258 L41.363529,17.7941742 C40.6883751,14.4184049 33.9493145,14.3591809 32.3099937,17.8658178 L32.227115,18.057086 L29.441685,16.942914 Z" id="Stroke-9" fill-rule="nonzero"/>
                                <polygon id="Stroke-11" fill-rule="nonzero" points="25.4714706 12.8965993 28.4213294 12.3504007 32.7076381 35.4995 22.8344 35.4995 22.8344 32.4995 29.101 32.499"/>
                                <path d="M33.8344,50.5 L21.0034,50.5 C16.4920522,50.5 12.8344,46.8946 12.8344,42.4468 L12.8344,41.5 L33.8344,41.5 C32.3825742,43.3530787 32.3825742,47.3068471 33.8344,50.5 Z" id="Fill-15"/>
                            </g>
                        </g>
                        <polygon id="Stroke-5" fill="#000" fill-rule="nonzero" points="33.1977829 19.396766 36.1476171 18.850434 40.4350211 41.9996 30.5607 41.9996 30.5607 38.9996 36.828 38.999"/>
                    </g>
                </g>
                <g id="Accessories" transform="translate(372.000000, 56.000000) scale(1 1)" fill="#000">
                    <g id="Accessories/None" stroke="none" stroke-width="1" fill="none" fill-rule="evenodd" fill-opacity="0"/>
                </g>
                <g id="Glasses" transform="translate(364.000000, 42.000000) scale(1 1)" fill="#000">
                    <g id="Glasses/Round Big" stroke="none" stroke-width="1" fill="none" fill-rule="evenodd">
                        <path d="M59,16 C59,25.3888407 51.3888407,33 42,33 C32.719077,33 25.175204,25.5628044 25.0030079,16.3230397 L25,16 L0,16 L0,14 L25.1163521,14.0004624 C26.106,5.55389893 33.2876275,-1 42,-1 C50.7123725,-1 57.894,5.55389893 58.8836479,14.0004624 L61.1163521,14.0004624 C62.106,5.55389893 69.2876275,-1 78,-1 C87.3888407,-1 95,6.61115925 95,16 C95,25.3888407 87.3888407,33 78,33 C68.719077,33 61.175204,25.5628044 61.0030079,16.3230397 L61,16 L59,16 Z M42,1 C33.7157288,1 27,7.71572875 27,16 C27,24.2842712 33.7157288,31 42,31 C50.2842712,31 57,24.2842712 57,16 C57,7.71572875 50.2842712,1 42,1 Z M78,1 C69.7157288,1 63,7.71572875 63,16 C63,24.2842712 69.7157288,31 78,31 C86.2842712,31 93,24.2842712 93,16 C93,7.71572875 86.2842712,1 78,1 Z" id="Shape" fill="#000"/>
                    </g>
                </g>
            </g>
        </g>
    </g>
</svg>
