<svg viewBox="219 169.698 1724.625 957.974" xmlns="http://www.w3.org/2000/svg" overflow="visible">
    <g id="Master/Scene/One Character" stroke="none" stroke-width="1" fill="none" fill-rule="evenodd">
        <g id="Background" opacity=".4" transform="translate(99.000000, 75.000000) scale(1.0375 1.037037037037037)">
            <g id="Background/Rocks" stroke="none" stroke-width="1" fill="none" fill-rule="evenodd">
                <path d="M1259.24026,889.164029 C1260.25345,894.677537 1266.56217,902.297825 1259.24122,905.49541 C1240.82984,916.764188 1218.60289,918.726103 1197.44291,919.507991 C1184.72272,916.344943 1110.34733,918.359623 1111.7514,906.598688 C1115.1857,856.049403 1153.53834,817.29751 1195.31184,792.99567 C1212.49105,785.240111 1254.18387,872.307872 1259.24026,889.164029 Z M1191.02546,780.880242 C1194.76635,784.435056 1194.73761,784.726121 1190.25908,787.420145 C1173.11327,797.73149 1157.14959,809.541106 1143.2034,823.937863 C1121.33382,846.128489 1106.74483,874.075528 1104.44761,905.414193 C1103.95329,908.947057 1102.843,909.87274 1099.73438,909.388904 C1087.32861,906.210089 991.999667,896.131596 1000.23537,882.377091 C1012.97451,777.886564 1096.08066,688.975186 1191.02546,780.880242 Z M1325.73178,768.5977 C1314.03294,812.029513 1304.82584,859.557531 1272.88821,893.347392 C1267.30163,901.096141 1261.02115,867.65528 1257.20469,863.648955 C1245.63202,837.394618 1230.4178,813.372923 1211.8889,791.457656 C1207.40913,786.160511 1207.41869,786.105053 1213.71828,783.193535 C1237.41034,771.248185 1304.2323,755.160734 1325.73178,768.5977 Z M1235.84469,207.988261 C1233.0445,233.053919 1242.0845,253.393096 1261.196,269.552112 C1292.17453,297.243167 1337.12146,295.055974 1368.97044,270.292658 C1373.01112,267.915066 1373.02742,267.676828 1376.16314,271.067648 C1391.83599,288.009307 1409.42612,302.894852 1426.80631,317.990888 C1430.37438,321.088934 1432.01941,324.226208 1432.02517,329.012966 C1434.1639,364.538116 1431.17006,399.7858 1426.76797,435.021046 C1424.26975,472.976411 1418.76234,510.366321 1407.24713,546.762138 C1393.21739,588.465201 1370.27132,626.422479 1357.37374,668.586709 C1347.51889,696.431805 1337.19623,724.11712 1330.00545,752.794613 C1328.79756,763.999435 1314.15717,756.670519 1307.50227,757.676092 C1271.61261,757.101069 1238.2365,763.571756 1206.72784,778.838098 C1201.56267,781.340071 1201.5157,781.32859 1197.28329,777.224014 C1097.8289,679.55999 1006.76935,769.473159 992.872866,881.624709 C991.778096,886.891769 991.403267,887.233339 986.424077,885.737895 C968.353662,880.308183 950.312007,874.778966 932.291441,869.184687 C927.972756,867.844242 927.748434,867.60122 928.755967,863.007732 C943.923612,779.915429 901.63309,701.4214 859.731776,634.908139 C869.859836,516.984351 981.001035,492.52242 1080.80628,507.272102 C1084.47309,507.631851 1085.70782,510.372061 1086.89846,513.383997 C1112.00243,574.59671 1138.24432,641.050651 1190.30245,684.501746 C1296.31683,755.503251 1349.59531,621.776368 1209.92683,545.886687 C1174.17712,525.420259 1136.06341,510.973875 1095.64703,502.808735 C1091.5613,501.983036 1089.6373,500.178554 1088.36902,496.536101 C1070.68973,445.484366 1055.00058,377.888989 1099.76057,336.138088 C1102.39779,333.731792 1103.10719,333.842779 1104.70525,337.112087 C1151.10259,421.871096 1246.84895,491.185801 1345.81922,489.802301 C1467.40867,472.158367 1413.37381,372.306192 1333.03764,337.674673 C1265.59041,308.302559 1180.74862,280.482339 1111.4445,318.217645 C1099.41162,331.026026 1090.90367,264.085085 1089.28835,255.810873 C1090.06198,248.943124 1082.21645,231.109747 1092.04541,230.996848 C1138.39483,221.396542 1186.60784,220.513436 1231.26621,204.091306 C1235.39796,202.793916 1236.34798,203.480882 1235.84469,207.988261 Z M859.14704,650.507991 C904.913471,708.623799 932.880991,785.502317 922.610427,859.677172 C923.974321,871.818256 889.950074,851.259494 882.959396,850.809044 C870.574701,844.128956 869.0194,775.06432 865.428839,757.760304 C862.397108,721.956182 857.231048,686.562257 859.14704,650.507991 Z M739.254911,561.508887 C779.627571,579.878728 817.161783,604.925994 847.642039,637.243043 C855.091767,645.431939 850.180543,657.850476 851.573893,667.926325 C852.290692,725.004969 860.65271,781.777879 868.344886,838.263208 C871.803346,851.169964 851.088041,836.223388 845.473434,835.981667 C789.155825,816.122327 729.841651,799.516189 685.87158,756.867238 C671.370771,742.878948 642.579018,729.139067 660.347588,706.131621 C677.987747,680.071612 689.562904,650.709674 701.619121,621.833089 C709.605491,602.506873 718.093045,583.422378 728.524006,565.259862 C732.326491,558.408552 732.335116,558.388488 739.254911,561.508887 Z M1093.73178,509.507991 C1161.15722,524.593912 1230.36044,552.493831 1272.27132,609.261341 C1310.06993,657.211756 1273.93006,719.244087 1213.90172,689.951945 C1148.75799,653.344895 1120.71981,575.166221 1093.73178,509.507991 Z M1098.91572,320.57664 C1100.32406,324.113712 1100.03337,326.404378 1097.06606,329.076343 C1050.24721,370.369651 1063.08925,438.613495 1080.17455,491.196309 C1081.07348,494.505369 1084.70754,500.919426 1078.25583,499.230407 C982.151599,483.769607 866.150177,513.262773 854.787477,625.701819 C854.609036,627.817164 854.161013,632.202099 851.161084,629.816587 C820.150622,598.149635 783.869418,573.877769 743.733492,555.369454 C736.512364,552.012493 736.272523,551.952136 740.542649,545.590771 C765.548456,509.685464 788.536721,472.277954 815.032418,437.456186 C817.81841,433.98905 818.100462,433.975638 822.38402,435.685734 C899.537941,467.279875 1013.6734,425.400249 1018.34358,333.537921 C1022.31151,299.911783 983.072588,264.234488 996.437479,263.181606 C1119.19666,216.950576 1061.42379,220.250055 1098.91572,320.57664 Z M1185.94323,306.527457 C1261.01721,312.479732 1344.18608,334.350923 1394.70387,393.426458 C1434.26411,438.907987 1394.29328,481.03545 1343.1759,482.507991 C1247.70255,481.800865 1155.90922,414.902997 1111.41032,333.024586 C1103.03721,317.035911 1174.70746,305.979913 1185.94323,306.527457 Z M986.927572,271.861662 C1054.47849,356.83071 965.954516,441.511997 874.959507,439.471853 C864.619973,439.116214 825.793399,435.957527 824.731776,426.024491 C840.522575,410.149797 857.15883,395.073378 873.414629,379.664266 C891.741795,362.623229 908.555787,344.433057 919.903142,321.852846 C926.994398,307.740095 937.245544,296.487753 950.888118,288.363504 C959.287908,285.652235 980.781688,265.113124 986.927572,271.861662 Z M1401.60747,243.630978 C1418.53909,262.196633 1430.73806,285.882887 1431.73178,311.507991 C1414.79633,298.032174 1400.33847,282.592516 1384.19819,268.240997 C1381.44915,265.090968 1377.12129,262.444637 1381.81076,258.977394 C1386.98943,255.908111 1396.24848,237.884602 1401.60747,243.630978 Z M1313.7295,186.507991 C1313.75816,186.719358 1313.78777,186.928804 1313.81642,187.140171 C1350.1192,183.020429 1337.12773,221.110747 1357.55532,246.32495 C1359.31191,251.722503 1370.56399,258.394986 1365.37638,263.609034 C1350.05807,274.439689 1333.81992,283.429527 1314.45449,282.432257 C1274.22972,281.760686 1235.16072,245.708141 1243.99236,203.436594 C1245.5732,196.354827 1255.54915,198.823982 1260.87145,196.478765 C1278.38955,192.46855 1295.73094,187.680119 1313.7295,186.507991 Z M1346.73178,198.507991 C1351.11198,199.371185 1354.29888,201.46002 1356.43236,204.27947 C1363.95854,214.222896 1374.52318,220.61721 1383.74701,228.568135 C1386.88823,232.047619 1395.445,235.544271 1389.91241,240.507877 C1385.15252,243.910102 1375.83829,262.02669 1370.76247,253.025625 C1358.75235,236.850031 1349.55517,218.671446 1346.73178,198.507991 Z" id="Combined-Shape" fill="#F55B80"/>
                <path d="M544.913881,852.512799 C536.977727,852.242687 536.497138,863.443061 544.549228,863.503519 C552.566637,863.762904 552.889672,852.652243 544.913881,852.512799 M580.799842,872.497542 C588.925257,872.899253 588.536166,861.584408 580.656835,861.511549 C572.82022,861.278202 572.64564,872.600924 580.799842,872.497542 M571.7023,860.170212 C571.539655,851.185726 559.840538,853.676559 560.78615,862.156417 C561.203165,870.734159 572.378413,868.210064 571.7023,860.170212 M504.729802,853.9785 C504.906512,846.563978 493.162911,844.537161 492.771489,853.157683 C491.937343,861.416308 504.51794,861.545349 504.729802,853.9785 M607.722278,864.417114 C608.102803,855.91439 596.924757,857.038064 596.742325,864.908601 C596.33508,873.921121 607.854955,873.650322 607.722278,864.417114 M531.726924,855.776713 C532.00955,849.397829 519.85568,844.624196 518.761706,852.973373 C518.031109,859.954109 530.91077,864.355212 531.726924,855.776713 M629.655924,872.757246 C630.85813,863.442333 617.366401,863.032962 617.739372,871.94245 C617.431185,881.918276 629.786418,884.410999 629.655924,872.757246 M735.319645,945.261868 C637.899812,936.699669 536.032925,956.032373 441.294178,929.122333 C413.916402,921.897143 438.71573,862.07627 446.183443,844.228495 C457.648324,817.775576 478.284534,795.403348 488.061146,769.0764 C506.021066,745.345215 530.304321,773.122736 552.787075,773.989263 C594.308899,788.07032 628.423443,819.348303 667.103028,839.858643 C697.290427,859.185622 738.912972,872.533758 757.840769,904.143846 C760.090196,915.370518 762.17751,926.643953 759.403377,938.144516 C758.269551,949.961916 743.428132,943.622339 735.321563,945.134943 C735.320604,945.176933 735.320604,945.218923 735.319645,945.261868" id="Fill-5" fill="#52DC82"/>
                <path d="M1529.79795,766.538876 C1570.21747,804.455174 1603.98551,853.001906 1602.69603,910.618703 C1600.53283,917.070911 1605.05848,932.032829 1595.77534,933.851823 C1579.5351,935.574072 1562.98735,933.361394 1546.64365,933.362352 C1542.37762,933.216756 1540.93197,931.77612 1541.64282,928.259782 C1545.50361,902.01991 1535.40328,876.27813 1531.36813,850.583286 C1524.85843,820.644123 1502.8318,796.222288 1478.29805,778.955735 C1467.72925,774.776552 1493.016,758.026291 1496.19373,752.369115 C1506.89857,742.478157 1520.69491,760.963118 1529.79795,766.538876 Z M1659.46577,678.083835 C1748.50734,712.658563 1792.24624,776.660118 1748.74939,868.941651 C1724.76196,917.495676 1663.68732,926.561415 1615.06505,932.317653 C1611.75985,932.76434 1611.71567,932.667733 1611.88857,929.28745 C1622.66481,852.647616 1572.52585,780.433523 1510.73178,739.441614 C1542.10764,716.75431 1578.94703,703.80708 1613.44463,686.758364 C1627.41945,679.30529 1643.51897,673.621747 1659.46577,678.083835 Z M1472.24172,787.869216 C1516.50156,815.116909 1525.56589,866.781716 1530.73178,914.512707 C1529.54024,919.026464 1532.45374,931.433776 1524.15142,929.253231 C1493.77875,923.664083 1464.14023,909.689775 1442.51768,887.35815 C1409.39583,853.323978 1430.38706,812.674238 1461.48618,786.432803 C1464.96374,782.370325 1468.80548,785.663707 1472.24172,787.869216 Z" id="Combined-Shape" fill="#EBBF5E"/>
                <path d="M162,660.062488 C211.726087,650.857882 259.355169,645.857826 307.886796,632.932516 C325.825706,628.444201 344.125442,626.099042 362.366795,623.370077 C372.931255,623.461459 385.631961,615.644903 395.148398,620.707484 C405.954047,633.810749 425.153456,643.274111 427.885017,661.172543 C429.93321,709.678285 404.533712,744.852788 358.435988,759.289273 C337.200829,768.825741 316.268114,758.087836 297.329993,748.371489 C248.007802,725.608631 200.933837,698.647957 162,660.062488" id="Fill-14" fill="#EBBF5E"/>
                <path d="M462.35915,205.353804 C474.209569,283.098673 479.40089,361.679765 492.228871,439.308598 C491.843974,451.834698 505.663879,502.293919 496.704973,506.570937 C476.781293,514.044211 457.852409,524.636063 436.964573,529.124055 C432.959539,530.063848 432.055701,529.47408 431.200694,525.140483 C421.942105,483.406954 416.52291,441.035708 411.85053,398.575278 C408.035072,343.509152 401.782891,288.705785 395.731776,233.871731 C397.516472,224.2868 415.29258,222.368855 422.774133,216.804896 C429.521318,215.737559 464.092143,192.547684 462.35915,205.353804 Z M377.361443,244.30417 C380.735482,273.216981 384.813916,302.056037 387.171448,331.078043 C391.686074,396.602892 398.12395,462.087511 411.731776,526.410254 C409.531731,535.764652 367.67361,510.983064 360.273632,507.897817 C341.531731,465.728312 342.633185,413.672801 335.529092,367.569391 C332.504389,335.737043 330.800666,303.733238 326.731776,272.007211 C327.404675,260.937297 363.102671,249.455506 372.854453,241.374096 C375.991784,239.632718 376.904254,240.471797 377.361443,244.30417 Z M555.463395,259.904423 C562.545843,327.051895 572.165374,393.849163 582.731776,460.525868 C566.544277,474.422111 545.190981,482.08643 526.698345,492.738972 C516.067036,500.040648 519.255092,482.775358 517.17522,476.583621 C502.960688,383.599452 494.552428,289.887124 481.056641,196.835019 C480.422848,192.463199 480.295898,192.314889 484.720997,190.582044 C503.787292,183.181814 522.919448,175.952859 541.918928,168.383268 C551.207244,157.531702 552.028121,250.997164 555.463395,259.904423 Z M307.908241,278.507991 C318.608743,349.94496 316.968771,423.074993 334.731776,493.507991 C317.397672,485.524078 301.527384,475.276686 285.572847,464.893389 C269.649903,440.182692 276.418495,404.91164 270.672372,376.15922 C267.676768,297.626503 246.491173,316.38037 307.908241,278.507991 Z M621.232022,145.357588 C625.862326,176.798446 628.421481,208.446868 631.002732,240.101029 C635.954851,298.896485 642.370993,357.604897 651.328998,415.936439 C652.096552,421.046176 652.188774,421.090176 647.690078,423.714871 C632.132449,432.792258 617.30587,441.301473 601.652176,450.507991 C585.087792,355.328376 572.860715,258.592501 565.731776,162.06993 C567.684765,153.875411 593.077468,151.078543 601.092121,146.405936 C606.727258,145.771762 619.924585,136.413157 621.232022,145.357588 Z M248.245088,334.973241 C251.249482,370.318831 255.61503,404.973663 256.731776,440.507991 C235.804385,420.02761 181.676992,384.28251 200.727361,351.749774 C203.271918,348.996319 207.817151,351.724865 209.695139,348.074668 C220.120676,337.718074 232.01653,329.100353 244.000295,320.667536 C249.688356,318.962195 246.727434,331.411186 248.245088,334.973241 Z M703.704607,127.42112 C708.692282,193.87935 706.669089,260.67412 709.273891,327.255684 C709.172492,327.257596 709.071093,327.260464 708.969694,327.262376 C705.833983,380.466438 724.269441,378.896551 673.005629,408.351531 C666.051199,410.143229 668.727745,396.044841 666.789688,391.703272 C660.163369,342.162917 654.313804,292.513569 650.283678,242.69117 C647.074309,208.844904 645.770473,174.777783 639.986912,141.235552 C639.351735,136.992459 639.662627,136.02586 643.731974,135.096548 C652.399662,135.307842 706.690134,115.27314 703.704607,127.42112 Z M723.731776,133.507991 C751.416292,159.068824 770.823238,190.439505 791.311149,221.609779 C801.143558,237.969211 786.655195,256.0249 786.629503,273.470742 C779.260668,310.150735 758.388329,345.237071 728.529512,367.507991 C726.825279,289.35457 729.013853,211.654699 723.731776,133.507991 Z" id="Combined-Shape" fill="#60D6E1"/>
                <path d="M240.330602,551.576389 C227.955762,550.4496 229.95928,567.124 239.857044,567.494878 C249.318635,568.058273 253.654478,550.272182 240.330602,551.576389 M189.719271,570.507991 C202.649544,570.373271 200.541687,553.653851 190.504273,552.510635 C177.734977,552.258273 177.485936,570.155064 189.719271,570.507991 M231.731776,597.114154 C231.597381,589.762986 221.45395,581.792408 214.705723,587.391145 C202.816131,599.560055 230.321113,617.832656 231.731776,597.114154 M215.787116,517.538654 C202.803863,516.579415 202.32144,538.443976 214.758535,538.507991 C227.02894,538.434127 231.168755,517.235322 215.787116,517.538654 M274.352651,597.501218 C288.134086,597.919256 290.052135,578.851091 276.492631,577.570674 C261.848971,576.227316 258.098812,596.915025 274.352651,597.501218 M181.727901,597.86513 C181.985497,587.358322 169.332681,583.441481 163.737403,592.784569 C157.410517,601.523895 167.1752,619.57012 177.406237,609.573749 C180.574947,606.353998 181.746096,602.300978 181.727901,597.86513 M309.677719,549.138299 C317.329418,554.315598 325.238059,559.665185 333.338448,565.146636 C325.467198,572.520365 328.78156,587.165799 340.882768,584.175304 C345.235445,584.038629 349.338849,577.040276 353.278309,580.406146 C363.183046,589.840593 372.727296,598.757213 381.731776,609.197475 C367.145516,611.467055 353.463346,613.59611 338.887631,615.862803 C346.049415,593.106363 316.304526,594.172815 322.011901,614.831963 C323.096235,617.399919 323.02433,618.498134 320.17208,619.133385 C302.731653,623.016119 285.314235,626.996066 267.8786,630.895162 C263.801082,631.807615 263.71096,631.726764 263.435802,627.354117 C263.656312,620.615639 255.050668,616.088991 250.294362,621.34329 C247.857246,624.024822 247.466081,627.085579 248.800646,630.538074 C255.065049,638.068692 221.174571,637.726041 215.39529,640.241059 C216.083665,633.482368 217.999226,626.025864 208.6496,627.529292 C198.970167,628.649645 197.268405,630.190611 195.339421,640.278597 C195.919459,646.244185 162.24278,648.09219 156.212309,648.507991 C163.226446,618.821535 147.675694,642.013988 141.181194,623.110444 C126.339908,588.197601 162.766252,558.996246 186.289881,538.680712 C196.441972,529.641853 203.230805,511.645949 219.09123,512.540114 C229.983468,515.461308 240.7434,518.884929 251.533053,522.183424 C256.878025,523.088176 256.602867,528.782339 259.481002,532.372472 C270.011796,542.783859 265.59009,523.930365 289.809763,538.452599 C292.461637,539.674014 293.718544,540.451716 291.31786,543.471085 C281.224252,559.984736 304.366303,566.184213 309.677719,549.138299" id="Fill-24" fill="#52DC82"/>
                <path d="M1719.70292,367.177122 C1714.45359,383.274792 1713.56129,401.208625 1704.21276,415.697009 C1692.07998,444.008528 1679.9932,433.82984 1666.7036,450.32839 C1664.99663,455.285069 1659.02752,456.688628 1656.55094,461.378054 C1644.72006,471.948008 1623.61445,467.706567 1608.65813,469.109165 C1549.92068,473.630356 1524.436,470.811702 1526.89342,404.190708 C1522.44917,389.615803 1638.6992,379.46211 1655.95958,373.510442 C1664.86245,373.779618 1721.18849,358.50005 1719.70292,367.177122 Z M1727.73178,328.507991 C1724.10828,337.698801 1728.10649,352.896281 1718.37164,356.604042 C1687.74491,361.29636 1657.13255,366.086073 1626.56811,371.160257 C1594.63133,376.644272 1562.60733,381.843815 1531.18901,389.90928 C1520.67695,394.3692 1525.78108,372.64529 1523.96694,366.644407 C1520.45844,356.521111 1557.25211,355.404444 1564.75594,352.525987 C1619.19271,344.963891 1673.14168,334.635198 1727.73178,328.507991 Z" id="Combined-Shape" fill="#60D6E1"/>
                <path d="M1713.73248,272.835652 C1720.85621,296.418538 1734.91349,288.330399 1734.73178,296.915767 C1731.55805,304.293578 1734.70897,318.725713 1725.81817,321.328969 C1694.76199,326.621871 1663.59877,331.195807 1632.41931,335.687191 C1598.76938,340.270726 1565.28861,345.83912 1532.00471,352.611233 C1524.37733,355.600369 1524.46621,350.67127 1524.88384,344.404066 C1539.20012,230.316769 1546.81221,319.783526 1596.84461,313.371377 C1619.97715,313.457768 1623.73875,245.08775 1642.43783,289.242306 C1651.19293,308.222459 1684.11653,306.555109 1685.9419,283.800619 C1684.84955,267.336371 1705.78781,253.712474 1713.73248,272.835652 Z M1716.56156,217.944353 C1721.67989,236.035834 1742.93459,225.062801 1741.67832,235.248204 C1738.19694,256.453705 1741.85154,314.808456 1718.09002,265.500886 C1704.42146,244.467319 1680.67897,260.037422 1679.18383,278.652389 C1680.31637,296.692962 1656.8575,300.524495 1649.239,285.72185 C1644.59462,269.035617 1624.93501,255.882193 1616.99959,278.037653 C1608.73773,292.822048 1605.32012,311.608949 1583.04423,305.227223 C1565.99707,302.093992 1560.72076,277.595812 1541.66928,279.55048 C1538.6276,279.799256 1537.67969,278.402653 1537.60545,275.634421 C1537.3266,265.155098 1536.747,254.677695 1536.73178,244.198372 C1537.18575,233.805496 1551.62329,224.117644 1560.00602,231.888288 C1575.57325,244.537437 1601.32291,277.396984 1610.09012,239.96534 C1611.41586,230.93833 1613.10136,221.375347 1618.66414,213.998518 C1630.20276,199.107505 1646.83497,210.237103 1649.90045,226.545851 C1653.58549,241.043048 1670.99906,252.161121 1680.39536,235.872545 C1684.20413,228.598492 1684.82846,219.547468 1688.02718,211.978534 C1695.47341,197.924139 1714.66193,202.355039 1716.56156,217.944353 Z M1665.0233,141.25688 C1696.48645,153.405286 1743.84297,180.306013 1742.71188,219.10857 C1742.98869,224.832578 1736.69663,222.510738 1733.14685,222.7458 C1724.39314,222.448374 1722.83826,213.49106 1719.87454,206.927543 C1710.83543,186.593211 1679.5565,196.799714 1677.86131,217.470809 C1672.92273,250.121449 1657.94569,234.63228 1651.89798,212.809859 C1644.27726,197.340837 1626.04728,195.515027 1614.31076,206.980313 C1600.14695,214.262448 1608.17429,258.956915 1588.20617,247.699827 C1573.36084,235.949588 1559.0634,211.56163 1538.33836,226.299559 C1532.56555,186.62871 1540.59671,132.641125 1591.53928,136.035618 C1595.12629,135.986686 1598.30477,135.12607 1600.95064,132.383037 C1620.79372,120.281643 1644.00236,140.302239 1665.0233,141.25688 Z" id="Combined-Shape" fill="#7DB4DB"/>
                <path d="M935.132343,148.350513 C932.143109,109.590142 980.530558,117.614063 1005.53714,121.237395 C1019.82635,120.8565 1027.80527,132.91945 1030.51894,145.681351 C1032.00927,154.5531 1030.14326,161.024441 1023.42583,164.328749 C1012.98973,171.770694 1003.37746,180.923764 991.008609,185.249914 C940.870528,207.206455 935.631025,204.350713 935.544256,148.394016 C935.406952,148.379515 935.269647,148.365014 935.132343,148.350513" id="Fill-58" fill="#52DC82"/>
                <path d="M265.974544,831.047916 C267.062067,859.926874 233.073088,873.013115 208.339669,870.749901 C193.331071,872.768987 180.459785,854.669017 178.704654,841.488954 C173.259296,815.592192 200.232588,770.075163 229.974033,789.835206 C252.965867,801.027777 264.734148,800.724292 265.974544,831.047916" id="Fill-61" fill="#7DB4DB"/>
            </g>
        </g>
        <g transform="translate(656.000000, 242.000000) scale(1 1)" id="Master/Character/Standing">
            <g id="Master/Character/Standing" stroke="none" stroke-width="1" fill="none" fill-rule="evenodd">
                <g id="Legs" transform="translate(50.000000, 263.000000) scale(1 1)">
                    <g id="Legs/Jeans Sprint" stroke="none" stroke-width="1" fill="none" fill-rule="evenodd">
                        <g id="Group-20" transform="translate(85.000000, 0.000000)">
                            <path d="M549.434196,568.75038 L485.758787,588.704907 C482.333484,589.777032 478.712992,587.836063 477.672989,584.36894 C474.52195,573.957255 471.477014,563.524932 468.243896,553.128724 L458.493492,521.952485 C451.797034,501.212696 445.126601,480.461557 438.097823,459.802255 C422.599876,413.775175 406.298155,367.956535 389.348809,322.352527 C385.583177,312.316446 389.97241,301.198953 399.152263,297.518232 L440.03369,281.169099 C449.213543,277.489409 459.761715,282.785026 463.59241,292.996526 C480.820024,339.350713 497.411024,385.978348 513.221272,432.933089 C520.387183,453.999984 527.208761,475.210311 534.052361,496.410319 L544.032987,528.325386 C547.34418,538.970277 550.4752,549.686367 553.704314,560.364278 C554.771343,563.923238 552.859499,567.678255 549.434196,568.75038" id="SKIN-DARKER" fill="#d29863"/>
                            <path d="M253.688249,6.17159823 C250.953025,7.46171177 250.176827,11.7751425 251.955573,15.8031407 C268.136561,52.4363886 283.832799,89.3313688 299.211548,126.359276 C306.944489,144.854682 314.44407,163.451071 322.003744,182.020668 C329.417192,200.650031 336.912767,219.24642 344.141931,237.942762 C351.493283,256.595825 358.562199,275.346781 365.727263,294.065792 C372.708043,312.843539 379.807006,331.58419 386.58347,350.425824 C393.500151,369.223149 400.116368,388.109092 406.806699,406.971335 L416.587804,435.332194 C418.2043,440.061923 419.862861,444.781348 421.447308,449.519321 L426.18863,463.73427 L432.780809,483.509485 L439.1857,503.322826 L445.57056,523.141319 L451.735079,543 L554,509.11185 L547.521996,488.655513 L540.835671,468.290885 L534.129315,447.936562 L527.243682,427.661583 L522.297043,413.085979 C520.64349,408.228475 518.92083,403.402914 517.236228,398.559836 L507.055507,369.536404 C500.106776,350.259923 493.22515,330.95459 486.05708,311.778062 C479.023218,292.541768 471.677876,273.446645 464.441701,254.303092 C457.032259,235.236821 449.710954,216.132424 442.116226,197.15065 C434.640682,178.117353 426.903734,159.200497 419.244907,140.248605 C411.441857,121.361632 381.413096,45.9889123 365.727263,0 C365.727263,0 328.380925,2.05719941 253.688249,6.17159823 Z" id="Fill-3" fill="#3E36B9"/>
                            <path d="M545.940827,536 C540.694163,537.694646 521.776106,543.807916 504.134887,549.507808 C504.226089,549.736092 504.32531,549.960262 504.39747,550.199857 C506.269632,556.413901 500.930763,563.631571 492.470956,566.320587 C484.012151,569.01166 475.654571,566.214672 473.804458,560.075694 C473.7333,559.840212 473.692208,559.599589 473.642097,559.361022 C471.332963,560.105515 470,560.537402 470,560.537402 L480.388094,595 L591,560.68445 L587.523271,549.147902 C584.737077,539.903444 553.902527,547.173557 545.940827,536" id="Fill-5" fill="#D7DBE2"/>
                            <path d="M554,509.873671 L451.409887,544 L446.28013,527.561748 C444.580905,522.078879 442.755365,516.622933 441,511.150419 L543.266308,476 C545.074805,481.637155 546.948465,487.244282 548.70383,492.905254 L554,509.873671 Z" id="Fill-8" fill="#D7DBE2"/>
                            <path d="M32.4518534,226.986362 L75.5578755,174.619526 C77.8769843,171.80376 81.602159,171.148955 84.0062718,173.188885 C91.2696125,179.346951 98.9659736,185.391228 106.732338,191.075517 C114.514703,196.766013 122.431074,202.125485 130.378447,207.038076 C138.32482,211.911358 146.313195,216.397757 154.174563,220.152801 C162.029932,223.945086 169.770295,227.040153 176.994634,229.223872 C180.058778,230.175563 182.976915,230.860367 185.792047,231.475864 C188.588178,232.045844 191.2013,232.398591 193.641415,232.648927 C196.045528,232.844438 198.210629,232.854782 200.14172,232.778233 C202.051809,232.674788 203.634884,232.388246 205.017948,232.094463 C206.419014,231.823438 207.449063,231.345523 208.45911,230.9214 C209.468157,230.507621 210.318197,229.942813 211.251241,229.253871 C213.095327,227.969087 215.214427,225.668475 217.607539,222.191697 C218.113563,221.368277 219.018605,220.827261 220.276664,220.576925 C221.546724,220.110389 223.146799,219.861087 224.965884,219.907637 C228.601055,219.994531 233.141268,221.065184 237.519473,223.384415 L276.4663,244.131294 C280.845506,246.450526 283.942651,250.19626 285.263713,254.620592 C285.921744,256.827068 286.162755,259.184574 285.888742,261.556562 C285.477723,263.962687 284.595681,266.389501 283.162614,268.613563 C276.451299,278.628049 268.045905,288.338408 257.538412,296.042973 C252.340168,299.901462 246.710904,303.31307 240.805627,305.978841 C234.922351,308.657026 228.816065,310.832469 222.701778,312.210353 C216.594492,313.622374 210.478205,314.499585 204.498924,314.831643 C198.530644,315.137839 192.674369,315.018878 186.981102,314.535791 C181.314837,314.006154 175.774577,313.192044 170.406325,312.096564 C165.062074,310.967981 159.811828,309.670784 154.74959,308.114975 C142.739027,304.475789 131.455498,299.855946 120.684992,294.671296 C109.893486,289.503196 99.6430053,283.724772 89.6925386,277.620498 C79.768073,271.487258 70.1846234,264.985756 60.8661863,258.173919 C51.5467491,251.349669 42.5063251,244.253359 33.6209082,236.723616 C30.651769,234.205771 30.1257443,229.800059 32.4518534,226.986362" id="SKIN" fill="#edb98a"/>
                            <path d="M159.127501,0 C157.624968,-0.0279988939 157.660229,10.7399664 157.865576,14.1521098 C158.217168,17.755193 158.633871,21.3593083 159.11368,24.9469099 C159.663607,28.3198333 160.310698,31.5224592 160.970811,34.8045573 C162.376181,40.9879063 163.983891,46.9318066 165.729835,52.1666499 L167.040044,56.1928966 L168.393326,59.9053831 C169.299854,62.3432182 170.217401,64.9472224 171.146969,67.1518015 L173.949694,73.9864096 L176.75843,80.3792761 L177.464621,81.9759446 L178.160794,83.4786914 L179.554144,86.4831529 L180.9515,89.4865823 L182.323813,92.3558379 L185.058424,98.0251979 L187.719911,103.441692 C191.209796,110.535359 194.607524,117.313201 197.63563,123.637948 C199.229317,126.89218 200.5836,129.888384 202.053078,133.000185 L204.050446,137.474366 L205.046124,139.703715 L205.946643,141.859785 C208.481917,147.68809 210.414175,153.066396 212.181154,158.257891 C212.933423,160.77623 213.805894,163.335854 214.341797,165.668414 L214.818601,167.452926 L215.057003,168.338473 L215.222282,169.181704 C215.445658,170.303604 215.68406,171.422407 215.934483,172.538114 C216.085738,173.110933 216.127809,173.620793 216.20594,174.147168 L216.442339,175.717001 L216.701776,177.281674 C216.818974,177.816305 216.788923,178.272496 216.847021,178.76894 C216.924151,179.745312 217.022317,180.715492 217.140516,181.686704 C217.176577,182.618696 217.153538,183.50734 217.199616,184.417658 L217.271737,185.775909 L217.18459,187.052625 C217.132502,187.901016 217.121484,188.752504 217.111467,189.600895 C216.976239,190.408003 216.87006,191.21511 216.791928,192.025313 C216.746852,192.430931 216.73383,192.841709 216.682744,193.243199 L216.411286,194.420832 C216.243003,195.208329 216.112783,196.000987 215.992581,196.798805 C215.734145,197.579077 215.500751,198.36451 215.295405,199.157168 L215.006919,200.354411 C214.887718,200.753836 214.691387,201.151197 214.547143,201.553719 C214.23662,202.355665 213.951139,203.164837 213.689698,203.986393 C213.594537,204.397172 213.344115,204.811046 213.151791,205.225953 L212.566804,206.47893 L212.012871,207.745325 C211.81654,208.170552 211.705352,208.596812 211.414862,209.030297 C210.911013,209.89417 210.425194,210.7663 209.956403,211.648751 L209.265238,212.979136 C209.209143,213.084411 209.150044,213.213424 209.097956,213.302185 L208.948704,213.516863 L208.659216,213.95138 C207.151674,216.370637 205.882535,217.755724 205.135275,218.450331 C205.048128,218.588634 204.946957,218.602051 204.86582,218.666042 C204.78268,218.72384 204.71156,218.796087 204.648454,218.881752 C204.571324,218.903426 204.505212,218.931293 204.448116,218.976706 C204.392021,219.021086 204.351954,219.105719 204.287846,219.092301 C204.178662,219.120168 204.117559,219.235764 204.009376,219.227507 C203.959292,219.231636 203.95228,219.316269 203.88717,219.303883 C203.829072,219.303883 203.780991,219.319365 203.73892,219.353424 C203.712876,219.408126 203.623726,219.387484 203.56062,219.406062 C203.4895,219.416383 203.450434,219.473149 203.370299,219.494823 C203.155937,219.475213 203.069792,219.632093 202.779302,219.627965 C202.656095,219.646543 202.542904,219.687827 202.420698,219.733239 C202.256421,219.739432 202.095149,219.756978 201.937884,219.79207 C201.85875,219.808583 201.780618,219.830257 201.702487,219.853996 L201.398975,219.87051 C201.196634,219.884959 200.996296,219.913858 200.794957,219.955142 C199.001933,220.098605 196.261313,220.075899 192.81951,219.626933 C189.333632,219.130489 185.18063,218.197465 180.671027,216.820635 C172.380048,214.308489 162.948145,210.258503 153.355972,205.210471 C143.739759,200.159343 133.896162,194.121521 124.165756,187.470628 L65,279.893685 C77.7064236,288.460167 90.9387339,296.530207 105.047522,303.833391 C119.167329,311.114901 134.142578,317.688386 150.71552,322.6394 C159.773793,325.318748 169.30887,327.511974 179.459985,328.82791 C189.642152,330.088112 200.466403,330.477216 211.803518,329.269651 C223.138629,327.971261 234.995621,325.115423 246.280648,319.955924 C257.533621,314.842869 268.146514,307.724432 276.845181,299.362306 C285.619976,291.039401 292.71594,281.763861 298.409539,272.423299 L299.486355,270.665622 L300.021257,269.785236 L300.485039,268.942005 L302.300099,265.57837 L305.878132,258.822202 C306.493169,257.719913 306.987001,256.487578 307.528915,255.310976 L309.111583,251.73576 L310.673216,248.151255 C311.183076,246.948851 311.731,245.779475 312.151709,244.509984 L314.794165,237.002442 C315.216877,235.743273 315.674649,234.503713 316.057294,233.224933 L317.113074,229.340085 C317.807245,226.746402 318.483385,224.147558 319.141494,221.547682 C319.664376,218.902394 320.1532,216.247816 320.631006,213.593239 L321.332188,209.607244 C321.513494,208.272731 321.645717,206.933057 321.796972,205.596479 C322.088463,202.919195 322.362926,200.238815 322.616353,197.559467 C322.743568,194.892505 322.825706,192.22451 322.905841,189.555483 L323,185.555039 L322.873787,181.608264 C322.771615,178.982586 322.696488,176.338329 322.526201,173.732261 L321.749892,166.021394 C321.520506,163.424615 321.099796,160.945496 320.69311,158.452959 L320.078073,154.713638 C319.866717,153.470982 319.676396,152.206651 319.396925,151.017665 L317.814257,143.789824 L317.408573,141.98467 L316.948797,140.236282 L316.010215,136.751891 C314.805183,132.040326 313.340714,127.6322 311.914309,123.159051 C308.923266,114.43156 305.688813,105.947646 302.210949,98.0592574 L300.921775,95.0589243 L299.603553,92.1514808 L296.960096,86.3520754 C295.179093,82.6292679 293.393081,78.7898324 291.608072,75.2073914 C284.470037,60.6237291 277.361051,47.1568058 271.740574,34.8551305 L269.704141,30.316959 L267.893087,25.9728235 C267.240988,24.4938152 266.813267,23.1861365 266.279366,21.8082745 L265.502056,19.7678003 L264.887019,17.8666605 C263.182144,12.7876653 257.955332,0.0339274854 256.451797,0 L159.127501,0 Z" id="Fill-12" fill="#694FD9"/>
                            <path d="M54.0536333,253.355094 C57.2962112,248.804809 68.9922957,232.40159 79.8972391,217.105891 C79.6982036,216.982605 79.4941673,216.866511 79.3031332,216.722677 C74.3212454,212.965532 74.7813274,204.000576 80.2192965,196.848953 C85.6612664,189.689112 93.6876968,186.787778 98.2545107,190.229516 C98.4305421,190.363076 98.5855697,190.518211 98.7485988,190.666154 C100.174853,188.663782 101,187.507975 101,187.507975 C96.7382405,184.297398 92.5134876,181.002577 88.4007546,177.64303 C86.3443881,175.966339 84.3080252,174.274236 82.3326731,172.591381 L79.4391575,170.090727 L77.0857381,168 L-2.91038305e-11,256.105402 L3.15156166,258.942011 L5.82503813,261.285475 L11.0239647,265.724802 C15.1627023,269.193252 22.6580381,264.96762 30.7054723,260.446101 C38.7739102,255.92561 47.363441,251.099986 54.0536333,253.355094" id="Fill-14" fill="#D7DBE2"/>
                            <path d="M65,279.82601 L123.987578,187 C131.982753,192.478487 140.046663,197.512157 148,201.938601 L97.474796,300 C86.1653985,293.706361 75.393927,286.944112 65,279.82601" id="Fill-16" fill="#D7DBE2"/>
                            <path d="M257,102 C202.324,102 158,56.3328485 158,0 L366,0 C366,56.3328485 321.676,102 267,102 L257,102 Z" id="Fill-18" fill="#694FD9"/>
                        </g>
                    </g>
                </g>
                <g id="Body" transform="translate(17.000000, -31.000000) scale(1 1)">
                    <g id="Body/Tank Top Wave 2" stroke="none" stroke-width="1" fill="none" fill-rule="evenodd">
                        <g id="Group-41" transform="translate(96.000000, -22.000000)">
                            <path d="M560.3373,34.9515 C564.5583,36.0975 568.5273,38.2215 572.0723,41.1795 C579.0623,47.0935 584.1403,56.4875 585.0903,67.4855 C586.4083,82.3825 586.7793,97.4915 586.0443,112.7725 C585.2713,128.0545 583.4063,143.5225 579.8383,159.0945 C576.3283,174.6435 571.0403,190.3465 563.2483,205.6595 C559.3353,213.3045 554.7783,220.8485 549.3693,228.0655 C543.9783,235.2805 520.1243,262.678571 472.905286,262.678571 C425.686271,262.678571 329.116699,238.114197 307.494983,215.1753 C285.873267,192.236403 329.707508,171.6196 342.9453,171.6196 C356.183092,171.6196 446.738297,193.349806 465.502688,193.349806 C484.26708,193.349806 499.7403,184.9715 504.5133,175.5575 C509.2903,166.1565 512.9913,155.5955 515.4953,144.3975 C518.0663,133.2275 519.5223,121.4685 520.1243,109.5225 C520.6983,97.5655 520.4243,85.4015 519.3403,73.2205 C518.5663,64.2695 521.0813,55.7255 526.0123,48.6965 C528.4313,45.1995 531.5123,42.0965 535.0773,39.6365 C538.6203,37.1835 542.6883,35.3685 547.1623,34.5015 C551.6353,33.6345 556.0923,33.8095 560.3373,34.9515 Z" id="SKIN-DARKER" fill="#d29863"/>
                            <path d="M565.9035,8.2866 L565.9035,8.2866 C570.7365,7.0406 575.7905,10.7226 577.1235,16.5286 C582.7665,41.7786 586.1315,67.6876 586.4065,94.1826 C586.4475,100.2966 582.3125,105.1516 577.3245,105.0006 C572.3765,104.8436 568.4455,100.0736 568.4075,94.3566 C568.1485,69.3076 564.9555,44.5996 559.5615,20.4756 C558.2965,14.9726 561.1095,9.5206 565.9035,8.2866" id="SKIN-DARKER" fill="#d29863"/>
                            <path d="M547.1789,0.3159 C551.9259,-1.0701 557.1419,2.2359 558.5399,7.7829 C561.3159,18.5069 563.6439,29.3569 565.4929,40.3139 C566.0049,43.1249 565.3429,45.8569 564.0289,47.9289 C562.6999,50.0079 560.6359,51.4449 558.1679,51.7899 C553.2429,52.4529 548.6339,48.6429 547.7429,43.3039 C545.9829,32.8739 543.7629,22.5269 541.1149,12.2929 C539.7929,7.0429 542.3829,1.7139 547.1789,0.3159" id="SKIN-DARKER" fill="#d29863"/>
                            <path d="M531.217,2.6597 C535.961,1.2447 541.091,4.3577 542.497,9.6637 C545.218,19.9357 547.508,30.3257 549.339,40.8037 C549.82,43.4967 549.233,46.1057 547.873,48.1147 C546.531,50.1247 544.468,51.5247 542.009,51.8827 C539.55,52.2407 537.161,51.5057 535.295,50.0597 C533.445,48.6097 532.065,46.4587 531.608,43.9017 C529.868,33.9487 527.689,24.0577 525.098,14.2727 C523.771,9.2637 526.435,4.0837 531.217,2.6597" id="SKIN-DARKER" fill="#d29863"/>
                            <path d="M515.3371,43.7104 C517.7801,43.2594 520.1651,43.8474 522.0531,45.1954 C523.9291,46.5434 525.3581,48.6474 525.7161,51.1634 C527.2351,60.9344 528.3141,70.7494 528.9051,80.5524 C529.1001,83.0804 526.9191,86.2304 524.7841,88.6674 C523.7211,89.8924 522.5831,90.9384 521.7611,91.6814 C520.9301,92.4234 520.3751,92.8624 520.3751,92.8624 C520.3381,89.9244 518.0521,89.0044 515.7301,87.5194 C513.4141,86.0284 511.1171,84.0034 510.7561,78.7714 C510.1751,70.5114 509.2221,62.2144 507.9311,53.9354 C507.2021,49.2084 510.4311,44.6364 515.3371,43.7104" id="SKIN-DARKER" fill="#d29863"/>
                            <path d="M518.0724,15.0718 C520.4724,14.4268 522.9074,14.8518 524.9134,16.0918 C526.9214,17.3278 528.5024,19.3768 529.0904,21.9278 C533.1964,38.9838 536.0644,56.3308 537.4524,73.7458 C537.6954,76.3418 536.7824,78.7688 535.2824,80.5508 C533.7744,82.3348 531.5674,83.4738 529.0814,83.5948 C526.6024,83.7168 524.3154,82.8138 522.5764,81.2948 C520.8284,79.7708 519.7414,77.6348 519.5094,75.1888 C518.2054,58.7828 515.4894,42.3318 511.5884,26.1318 C511.0314,23.7118 511.4354,21.2928 512.5934,19.2928 C513.7584,17.2958 515.6734,15.7178 518.0724,15.0718" id="SKIN-DARKER" fill="#d29863"/>
                            <path d="M391.5569,321.1753 L167.0759,321.1753 L167.0759,214.1133 C167.0759,205.3133 169.7509,197.1373 174.3329,190.3553 C181.9689,179.0513 194.9019,171.6193 209.5699,171.6193 L339.0629,171.6193 C362.5319,171.6193 381.5569,190.6453 381.5569,214.1133 L391.5569,321.1753 Z" id="Fill-13" fill="#0A1B45"/>
                            <path d="M369.0754,183.6753 C369.903827,183.6753 370.5754,184.346873 370.5754,185.1753 C370.5754,185.954996 369.980512,186.595749 369.21986,186.668433 L369.0754,186.6753 L179.5754,186.6753 C178.746973,186.6753 178.0754,186.003727 178.0754,185.1753 C178.0754,184.395604 178.670288,183.754851 179.43094,183.682167 L179.5754,183.6753 L369.0754,183.6753 Z" id="Stroke-15" fill="#FFF" fill-rule="nonzero"/>
                            <path d="M380.0754,213.6753 C380.903827,213.6753 381.5754,214.346873 381.5754,215.1753 C381.5754,215.954996 380.980512,216.595749 380.21986,216.668433 L380.0754,216.6753 L168.5754,216.6753 C167.746973,216.6753 167.0754,216.003727 167.0754,215.1753 C167.0754,214.395604 167.670288,213.754851 168.43094,213.682167 L168.5754,213.6753 L380.0754,213.6753 Z" id="Stroke-17" fill="#FFF" fill-rule="nonzero"/>
                            <path d="M168.577656,243.675302 L384.502256,244.000002 C385.330682,244.001247 386,244.673829 386,245.502256 C386,246.281951 385.402975,246.921808 384.642215,246.993349 L384.497744,246.999998 L168.573144,246.675302 C167.744718,246.674053 167.0754,246.001471 167.0754,245.173044 C167.0754,244.393349 167.672425,243.753492 168.433185,243.681951 L168.577656,243.675302 Z" id="Stroke-19" fill="#FFF" fill-rule="nonzero"/>
                            <path d="M168.577635,273.675302 L386.502235,274.000002 C387.330661,274.001236 388,274.673809 388,275.502235 C388,276.28193 387.402994,276.921796 386.642235,276.993347 L386.497765,276.999998 L168.573165,276.675302 C167.744739,276.674064 167.0754,276.001491 167.0754,275.173065 C167.0754,274.39337 167.672406,273.753504 168.433165,273.681953 L168.577635,273.675302 Z" id="Stroke-21" fill="#FFF" fill-rule="nonzero"/>
                            <path d="M168.577605,303.675302 L389.502205,304.000002 C390.330631,304.001219 391,304.673778 391,305.502205 C391,306.2819 390.403023,306.921777 389.642265,306.993344 L389.497795,306.999998 L168.573195,306.675302 C167.744769,306.674081 167.0754,306.001522 167.0754,305.173095 C167.0754,304.3934 167.672377,303.753523 168.433135,303.681956 L168.577605,303.675302 Z" id="Stroke-23" fill="#FFF" fill-rule="nonzero"/>
                            <path d="M323.0754,171.6196 C323.0754,188.1756 315.0754,209.1756 288.5754,209.1756 C257.0754,209.1756 244.0754,191.2566 244.0754,171.6196 L323.0754,171.6196 Z" id="SKIN" fill="#edb98a"/>
                            <path d="M145.8938,433.525 C143.8288,433.316 141.8688,433.049 140.0278,432.781 C138.2878,432.55 136.5328,432.317 134.7518,432.082 C131.4968,431.648 128.7308,431.46 126.6448,431.117 C124.5308,430.77 123.0218,430.215 121.7098,428.758 C120.7378,427.644 119.4338,426.42 117.8848,425.128 C116.3518,423.837 114.5568,422.482 112.4928,421.099 C110.4548,419.714 108.2118,418.302 105.7468,416.875 C103.3108,415.448 100.6968,414.006 97.9198,412.541 C87.7318,407.115 75.7138,401.572 62.6978,394.27 C56.1618,390.548 49.3608,386.421 42.3908,381.195 C35.4628,376.031 28.3268,369.718 21.8278,361.863 C18.5678,357.968 15.5448,353.578 12.8158,348.978 C10.0978,344.333 7.8008,339.367 5.8838,334.287 C2.1898,324.087 0.3238,313.464 0.0628,303.67 C0.0238,301.242 -0.0592,298.753 0.0678,296.419 L0.2148,292.869 C0.2778,291.676 0.4178,290.408 0.5288,289.181 C0.6538,287.944 0.7608,286.714 0.9208,285.472 L1.5068,281.728 C1.8658,279.242 2.4778,276.732 3.0478,274.24 C5.4358,264.245 9.6698,254.455 15.0378,245.747 C20.3988,236.978 26.9868,229.478 33.8878,223.091 C40.8148,216.68 48.1158,211.494 55.4298,207.075 C70.1058,198.253 84.8318,192.494 99.2718,188.049 C113.7328,183.64 127.9938,180.605 142.1108,178.371 C156.2298,176.152 186.82838,171.6196 206.279023,171.6196 C225.729666,171.6196 227.529659,186.681531 226.6808,206.201 C226.1688,215.297 221.6028,223.343 214.6818,229.298 C207.7458,235.255 198.4808,239.113 188.1478,239.75 C176.0838,240.477 164.1078,241.723 152.4128,243.561 C140.7268,245.404 129.3178,247.882 118.5918,251.158 C107.8848,254.421 97.8378,258.549 89.5338,263.582 C81.1648,268.582 74.8618,274.435 71.1658,280.466 C67.4238,286.507 65.8458,293.021 66.0268,301.464 C66.1148,305.368 66.8348,308.584 67.8328,311.521 C68.4128,312.957 69.0238,314.359 69.8298,315.73 C70.6768,317.093 71.5558,318.48 72.7398,319.863 C75.0388,322.638 78.0978,325.509 81.9338,328.351 C85.7098,331.205 90.2428,334.009 95.1348,336.791 C105.0298,342.382 116.5148,347.722 128.8288,354.226 C132.1648,355.989 135.5778,357.861 139.0418,359.889 C142.4968,361.894 146.0208,364.087 149.5678,366.496 C153.1098,368.883 156.6938,371.537 160.2458,374.517 C163.7918,377.483 167.3248,380.762 170.6848,384.515 C175.0768,389.348 178.2258,395.33 179.6378,401.284 C181.0628,407.25 180.8258,413.059 179.1938,417.835 C178.4128,420.222 177.2298,422.376 175.9238,424.228 C174.5348,426.089 172.9268,427.667 171.1748,428.959 C167.6348,431.552 163.3898,433.005 158.8918,433.604 C154.3618,434.212 149.9918,433.951 145.8938,433.525 Z" id="SKIN" fill="#edb98a"/>
                            <path d="M134.9143,448.102 L134.9143,448.102 C132.4423,447.769 130.3583,446.769 128.7943,445.689 C128.0263,445.138 127.4243,444.54 127.0393,443.921 C126.5933,443.346 126.3613,442.755 126.4003,442.142 C126.4583,439.551 126.2343,437.524 125.8163,435.982 C125.3913,434.416 124.9093,433.204 124.0453,431.785 C123.1353,430.385 121.8483,428.735 119.8333,426.835 C117.7983,424.944 115.1263,422.851 111.9153,420.703 C109.0003,418.753 108.1613,413.623 110.6553,409.32 C111.8993,407.179 113.8313,405.669 115.8663,405.019 C117.9283,404.358 120.1343,404.556 121.9073,405.73 C125.7363,408.293 129.2013,410.962 132.1603,413.72 C135.1013,416.488 137.4673,419.345 139.3263,422.273 C141.1503,425.218 142.4173,428.275 143.2773,431.607 C144.1413,434.93 144.4843,438.599 144.3953,442.544 C144.3513,443.458 144.0633,444.323 143.5843,445.074 C143.0453,445.849 142.3173,446.511 141.4523,447.017 C139.7483,448.024 137.3663,448.445 134.9143,448.102" id="SKIN" fill="#edb98a"/>
                            <path d="M148.9182,459.7222 C146.5072,459.1182 144.5292,457.7222 143.2682,456.0472 C142.6302,455.2082 142.1092,454.3142 141.8362,453.3832 C141.5532,452.4552 141.5152,451.4892 141.6252,450.5582 C142.8532,443.1592 142.6142,436.5562 141.0642,431.0892 C140.6612,429.6832 141.1722,428.1412 142.2502,426.5532 C143.3932,424.9592 145.0352,423.3512 147.2822,422.2502 C149.4962,421.1632 151.9432,420.8722 153.9672,421.5812 C156.0402,422.2492 157.7312,423.9022 158.3702,426.1422 C160.8392,434.8332 160.9122,444.2022 159.4032,453.3722 C159.2532,454.5582 158.7582,455.6362 158.1142,456.5622 C157.4602,457.4882 156.6582,458.2592 155.6882,458.8292 C153.7302,459.9762 151.3292,460.3242 148.9182,459.7222" id="SKIN" fill="#edb98a"/>
                            <path d="M163.9572,465.5776 C161.5572,464.9326 159.6242,463.3626 158.4172,461.4396 C157.8042,460.4756 157.4172,459.4236 157.1712,458.3196 C156.9242,457.2166 156.8932,456.0716 157.1212,454.9196 C158.7082,445.9556 159.0162,436.8566 156.9162,428.4216 C156.6082,427.3526 156.6232,426.2496 156.7412,425.1866 C156.8572,424.1266 157.1922,423.0636 157.7062,422.0466 C158.6402,420.0596 160.3052,418.1986 162.5752,417.1906 C164.8472,416.1846 167.3432,416.3076 169.6072,417.5346 C170.6872,418.1616 171.6942,419.0576 172.5522,420.1736 C173.4052,421.2886 173.9882,422.6476 174.3972,424.1296 C175.8262,429.9206 176.4212,435.7926 176.4032,441.4896 C176.3872,447.1956 175.7812,452.7386 174.8372,458.1086 C174.5692,459.4766 174.0632,460.7346 173.3842,461.8156 C172.7032,462.8966 171.7782,463.7656 170.7872,464.4366 C168.7832,465.7756 166.3572,466.2216 163.9572,465.5776" id="SKIN" fill="#edb98a"/>
                            <path d="M190.8908,424.7729 C188.4428,425.2239 185.9568,424.1769 183.8858,422.3319 C182.8028,421.4029 181.8158,420.2659 180.9818,418.9629 C180.1408,417.6609 179.3348,416.2089 178.7848,414.5929 C176.4948,408.3279 173.2168,402.4189 169.4098,397.1949 C165.5978,391.9579 161.2698,387.3959 156.7978,383.4199 C155.6538,382.3669 154.7318,380.9209 153.9728,379.1729 C153.2088,377.4939 152.5948,375.5849 152.0958,373.8029 C151.5998,372.0479 151.2208,370.3849 150.9628,369.1589 C150.7078,367.9509 150.5808,367.1879 150.5808,367.1879 C152.0958,368.2029 153.4508,368.5439 154.7978,368.4639 C156.1458,368.3919 157.5018,368.0049 159.0468,367.7889 C160.5948,367.5849 162.3098,367.4249 164.4258,368.1149 C165.4818,368.4519 166.6268,368.9329 167.8868,369.7059 C169.1518,370.5229 170.5238,371.5319 172.0128,372.9659 C176.7028,377.4589 181.3118,382.6689 185.4118,388.6369 C189.5148,394.5889 193.0608,401.3049 195.6608,408.3319 C196.3618,410.3509 196.8218,412.3719 196.8848,414.2549 C196.9418,416.1399 196.7238,417.8859 196.2678,419.3809 C195.2588,422.3669 193.3288,424.3219 190.8908,424.7729" id="SKIN" fill="#edb98a"/>
                            <path d="M181.4982,460.5171 L181.4972,460.5171 C179.0382,460.0381 177.1162,458.4941 175.7732,456.3871 C174.4462,454.2801 173.8372,451.6931 174.0592,448.8901 C174.9332,439.5531 174.2532,429.5481 171.1272,419.9981 C169.5782,415.2381 167.4242,410.6421 164.7952,406.4191 C162.1692,402.1891 159.0862,398.3321 155.7592,394.8781 C154.7622,393.8581 153.9722,392.7421 153.3992,391.5351 C152.8062,390.3771 152.4242,389.1421 152.2582,387.8941 C151.9182,385.4331 152.4172,382.9531 154.0002,381.0271 C155.5792,379.1191 157.9802,378.1541 160.6662,378.3391 C162.0052,378.4491 163.4132,378.8351 164.7962,379.4861 C166.1742,380.1991 167.5302,381.1661 168.7482,382.4161 C172.8232,386.6491 176.7172,391.4971 180.0762,396.9081 C183.4402,402.3061 186.2372,408.2611 188.2322,414.3941 C190.2402,420.5281 191.4532,426.7971 192.0202,432.8811 C192.6212,438.9951 192.4632,444.8451 191.9892,450.4681 C191.8172,452.1241 191.4522,453.7291 190.7862,455.0461 C190.1342,456.3771 189.2972,457.5261 188.3362,458.4281 C186.4252,460.2461 183.9202,460.9701 181.4982,460.5171" id="SKIN" fill="#edb98a"/>
                        </g>
                    </g>
                </g>
                <g id="Head" transform="translate(338.000000, -61.000000) scale(1 1)">
                    <g id="Head/Layered" stroke="none" stroke-width="1" fill="none" fill-rule="evenodd">
                        <path d="M130,125.5 L130,108.367 C130,104.576 127.538,101.504 124.5,101.504 C121.462,101.504 119,98.431 119,94.641 L119,86.457 C119,72.397 101.84,61 90.715,61 L79,61 L79,173 L121.072,173 C133.182,173 143,160.162 143,144.324 L143,138.5 C143,134.91 140.775,132 138.029,132 L134.971,132 C132.225,132 130,129.09 130,125.5" id="Fill-1" fill="#000"/>
                        <path d="M57.801,173 L77,173 L77,61 L57.801,61 C29.744,61 7,83.744 7,111.801 L7,122.199 C7,150.256 29.744,173 57.801,173" id="Fill-4" fill="#000"/>
                        <g id="head" transform="translate(22.000000, 72.000000)">
                            <g fill="#edb98a" id="SKIN">
                                <path d="M13,62 L58,62 L58,113.633 C58,127.538 47.926,138.81 35.5,138.81 C23.074,138.81 13,127.538 13,113.633 L13,62 Z"/>
                                <path d="M60.0525,94 L55.0655,94 C31.8335,94 13.0005,75.167 13.0005,51.935 L13.0005,32.203 C13.0005,14.418 27.4175,0 45.2035,0 L50.7965,0 C68.5825,0 83.0005,14.418 83.0005,32.203 L83.0005,71.052 C83.0005,83.726 72.7265,94 60.0525,94"/>
                                <path d="M25,58.5 C25,65.403 19.404,71 12.5,71 C5.596,71 0,65.403 0,58.5 C0,51.597 5.596,46 12.5,46 C19.404,46 25,51.597 25,58.5"/>
                            </g>
                            <path d="M10.067,53.1685 C10.9718309,53.1685 12.2239875,53.3771928 13.5088204,54.0196092 C15.6553998,55.0928989 17.0130325,57.055328 17.10411,59.9021045 L17.109,60.2105 L14.109,60.2105 C14.109,58.3751144 13.4076866,57.3231443 12.1671796,56.7028908 C11.7065142,56.4725581 11.1976823,56.3199085 10.686339,56.2346846 C10.4347302,56.1927498 10.2385731,56.1747448 10.1250097,56.169908 L10.067,56.1685 L10.067,53.1685 Z" id="ear-line" fill="#000"/>
                            <path d="M34.7507501,96.3317762 C25.4557924,93.0436693 20.8185822,84.7387742 18.9822222,73.5681961 C26.2532122,85.6702724 39.4406226,93.8133264 54.5439426,93.9968331 L55.0655,94 L58,94 C50.0632106,98.2298391 42.3134606,99.0070978 34.7507501,96.3317762 Z" id="SHADOW" fill="#000" opacity=".12"/>
                        </g>
                        <path d="M34.3390489,118 L32.8032704,118 C26.9501148,112.308 24.7014391,100.708 24.0235369,89.449 C23.0946709,74.02 49.8788072,61 65.3335778,61 L83.3159838,61 L104,87 L66.0314771,87 C59.2564544,105.085 46.3373181,118 34.3390489,118" id="Fill-15" fill="#000"/>
                    </g>
                </g>
                <g id="Expression" transform="translate(385.000000, 34.000000) scale(1 1)" fill="#000">
                    <defs>
                        <filter id="expressionwink-filter-1">
                            <feColorMatrix in="SourceGraphic" values="0 0 0 0 0.000000 0 0 0 0 0.000000 0 0 0 0 0.000000 0 0 0 1.000000 0"/>
                        </filter>
                    </defs>
                    <g id="Expression/Wink" stroke="none" stroke-width="1" fill="none" fill-rule="evenodd">
                        <g filter="url(#expressionwink-filter-1)" id="Group-17">
                            <g transform="translate(9.000000, 3.000000)">
                                <path d="M37.6862,19.0627 C37.6862,17.4057 36.3432,16.0627 34.6862,16.0627 C33.0292,16.0627 31.6862,17.4057 31.6862,19.0627 C31.6862,20.7197 33.0292,22.0627 34.6862,22.0627 C36.3432,22.0627 37.6862,20.7197 37.6862,19.0627" id="Fill-1" fill="#000"/>
                                <path d="M13.0473,38.6487 C13.0473,42.3229625 16.7893817,45.7208933 20.8069435,45.8527329 L21.0483,45.8567 L21.0483,48.8567 C15.4506295,48.8567 10.2215019,44.2907163 10.0515594,38.9179911 L10.0473,38.6487 L13.0473,38.6487 Z" id="Stroke-5" fill="#000" fill-rule="nonzero"/>
                                <path d="M2.57564697,9.21147847 C6.2616177,8.06796663 10.3535814,7.81561498 14.5680667,8.99954871 L15.0368326,9.13703524 L14.1597674,12.0059648 C10.4145271,10.8610011 6.75307649,11.056551 3.46455381,12.0767611 C2.87639473,12.2592278 2.35407493,12.4536573 1.90571976,12.6462124 L1.67798076,12.7466018 L1.40843093,12.875962 L0.000169065366,10.227038 C0.505632486,9.95831572 1.38329457,9.5813862 2.57564697,9.21147847 Z" id="Stroke-7" fill="#000" fill-rule="nonzero"/>
                                <path d="M27.4327673,1.61074391 C31.7294847,0.539609121 35.85137,0.927023851 39.5454285,2.22070874 C40.6627133,2.61198958 41.5287224,3.00892816 42.1054952,3.32415386 L42.3911858,3.48746626 L40.8460142,6.05893374 L40.6830708,5.96779273 C40.5848397,5.91521377 40.4526078,5.84736079 40.2880352,5.76752086 C39.7889686,5.52540617 39.2078998,5.28115198 38.5538553,5.05210108 C35.5067759,3.98499275 32.1271224,3.6348104 28.6169983,4.41363387 L28.1584327,4.52165609 L27.4327673,1.61074391 Z" id="Stroke-9" fill="#000" fill-rule="nonzero"/>
                                <path d="M2.29348496,21.505614 C4.78316311,15.2814186 15.5765131,15.2055138 17.1047395,21.5313094 L17.157071,21.7685258 L14.215329,22.3568742 C13.5401751,18.9811049 6.8011145,18.9218809 5.16179365,22.4285178 L5.07891504,22.619786 L2.29348496,21.505614 Z" id="Stroke-15" fill="#000" fill-rule="nonzero"/>
                            </g>
                        </g>
                        <polygon id="Stroke-5" fill="#000" fill-rule="nonzero" points="33.1977829 19.396766 36.1476171 18.850434 40.4350211 41.9996 30.5607 41.9996 30.5607 38.9996 36.828 38.999"/>
                    </g>
                </g>
                <g id="Accessories" transform="translate(372.000000, 56.000000) scale(1 1)" fill="#000">
                    <g id="Accessories/N65" stroke="none" stroke-width="1" fill="none" fill-rule="evenodd">
                        <path d="M55.1977784,0.766509801 C61.8672688,0.766509801 65.5931791,6.91877559 68.3190852,9.67622448 C68.5366389,9.86933778 68.7500465,10.0676638 68.9593821,10.2698541 C69.0753941,10.3682311 69.1897807,10.4565674 69.3026336,10.535583 L69.2915753,10.5973925 C73.2112403,14.5427001 75.6165684,19.8776287 75.6165684,25.7499259 C75.6165684,37.9001904 65.3191176,47.7499259 52.6165684,47.7499259 C39.9140192,47.7499259 29.6165684,37.9001904 29.6165684,25.7499259 C29.6165684,17.6330728 34.2120776,10.5428914 41.0501479,6.73002773 L41.0440543,6.69219525 L41.0440543,6.69219525 C46.4836096,4.14573474 47.6906867,0.766509801 55.1977784,0.766509801 Z" id="Clothe" fill="#D8D8D8"/>
                        <path d="M32.6165684,20.7333421 C32.6165684,32.8836066 42.9140192,42.7333421 55.6165684,42.7333421 C63.0741024,42.7333421 69.702661,39.3383929 73.9051908,34.0761112 C70.4693708,42.0893844 62.2320375,47.7333421 52.6165684,47.7333421 C39.9140192,47.7333421 29.6165684,37.8836066 29.6165684,25.7333421 C29.6165684,20.7166936 31.3720069,16.0922234 34.3273758,12.3912869 C33.2246542,14.9640107 32.6165684,17.7807509 32.6165684,20.7333421 Z" id="SHADOW" fill="#000" opacity=".12"/>
                        <line x1="0" y1="0" x2="34.913" y2="14.229" id="Path-4" stroke="#22252B" stroke-width="2"/>
                        <line x1="33.673" y1="28.173" x2="0" y2="28.173" id="Path-5" stroke="#22252B" stroke-width="2"/>
                    </g>
                </g>
                <g id="Glasses" transform="translate(364.000000, 42.000000) scale(1 1)" fill="#000">
                    <g id="Glasses/Round Big" stroke="none" stroke-width="1" fill="none" fill-rule="evenodd">
                        <path d="M59,16 C59,25.3888407 51.3888407,33 42,33 C32.719077,33 25.175204,25.5628044 25.0030079,16.3230397 L25,16 L0,16 L0,14 L25.1163521,14.0004624 C26.106,5.55389893 33.2876275,-1 42,-1 C50.7123725,-1 57.894,5.55389893 58.8836479,14.0004624 L61.1163521,14.0004624 C62.106,5.55389893 69.2876275,-1 78,-1 C87.3888407,-1 95,6.61115925 95,16 C95,25.3888407 87.3888407,33 78,33 C68.719077,33 61.175204,25.5628044 61.0030079,16.3230397 L61,16 L59,16 Z M42,1 C33.7157288,1 27,7.71572875 27,16 C27,24.2842712 33.7157288,31 42,31 C50.2842712,31 57,24.2842712 57,16 C57,7.71572875 50.2842712,1 42,1 Z M78,1 C69.7157288,1 63,7.71572875 63,16 C63,24.2842712 69.7157288,31 78,31 C86.2842712,31 93,24.2842712 93,16 C93,7.71572875 86.2842712,1 78,1 Z" id="Shape" fill="#000"/>
                    </g>
                </g>
            </g>
        </g>
    </g>
</svg>
