<svg viewBox="29.087 39.638 965.144 938.087" xmlns="http://www.w3.org/2000/svg" overflow="visible">
    <g id="Master/Comps/Plants" stroke="none" stroke-width="1" fill="none" fill-rule="evenodd">
        <path d="M760,800 C723.088341,803.796831 694.591365,836.274693 678,864 C709.090924,847.199116 736.569856,825.034385 760,800 M713,691 C645.603971,707.100635 577.329681,764.130864 541,818 C605.786891,784.585254 659.266593,737.192827 713,691 M292.033263,88 C214.096861,96.3389491 135.632893,199.08316 130,258 C179.610562,235.497649 223.754432,205.969262 261.412337,169.324655 C276.612459,156.124015 321.885942,101.672692 292.033263,88 M444,123.905735 C377.804226,108.22506 214.184918,300.630543 185,354 C288.79178,302.500184 392.249188,222.607523 444,123.905735 M386,769.629493 C387.913349,770.752787 389.826698,771.87608 391.740047,773 C392.163397,770.934266 391.853125,767.666388 393.141791,767.018695 C417.600943,757.340221 439.428293,742.765562 463.391008,731.853028 C504.849664,706.499755 544.009543,677.967467 581.769747,648.244299 C623.909625,611.542317 680.659905,582.345439 707,534 C585.559213,552.462069 437.859001,670.280883 386,769.629493 M701,333 C557.424207,366.410105 388.093005,509.329195 302,617 C373.422674,580.090959 438.084251,537.632897 504.712781,494.430035 C545.799926,471.833968 580.718337,442.956618 617.715546,415.030958 C644.353978,387.829411 684.371001,365.733013 701,333 M646,158.311212 C609.475885,154.6479 577.481507,184.238792 546.492355,199.053926 C429.210055,271.990791 329.725916,368.685748 252,476 C347.781259,426.626844 431.526775,359.570281 512.257306,291.896811 C535.277246,275.490345 554.554208,255.414316 576.662947,238.045925 C603.099548,213.46779 633.395274,192.10982 646,158.311212 M483.894742,884.210629 C484.123686,880.465845 486.568975,872.374873 486.05523,866.528636 C464.546209,871.932462 443.28613,880.704646 421.807452,887.029115 C395.966423,895.173503 362.219237,894.22898 341.571515,875.933016 C324.556556,856.184761 334.882486,831.553645 338.391813,809.45571 C302.597922,813.160903 263.294016,827.713968 226.122323,813.658616 C170.67648,787.734829 212.237416,709.208103 230.299174,670.954619 C203.781656,668.383732 160.138846,682.554715 148.345467,652.856608 C136.983082,604.805979 169.796562,560.937518 193.673637,520.727747 C83.6763489,537.401746 108.172676,455.493465 140.025556,394.500424 C157.048101,368.864456 126.011696,379.328988 111.418579,369.434437 C74.6027157,348.256516 104.349586,302.054085 97.2557673,273.937724 C74.3772195,271.982065 53.2033398,260.562955 54.1404934,237.458911 C51.203527,170.213042 94.6408397,104.797145 153.738755,66.5386338 C167.569185,59.3921852 191.706235,34.947711 205.329787,51.8284623 C142.618417,54.976243 47.8886649,193.795945 76.6563165,250.031181 C101.611222,287.503533 107.663069,246.401399 115.936087,226.575848 C135.279104,165.846745 239.005945,37.5299092 316.151826,87.9459301 C345.311855,136.696625 236.637201,221.396369 191.381438,244.663804 C170.664067,257.975101 147.156613,267.393306 122.970601,273.660588 C115.785067,282.265611 116.816695,296.754577 115.237532,307.371188 C113.474939,330.32441 111.188256,374.058388 150.011518,367.532823 C172.068074,346.1205 184.755162,315.508663 204.92086,292.036991 C251.59649,235.826263 305.376283,184.380882 366.160937,140.786414 C380.687853,131.813763 395.876086,123.560029 410.587123,114.829321 C432.712638,102.576292 478.451114,116.329372 461.844393,145.037709 C437.364616,194.634893 395.306484,234.268398 352.707714,271.442876 C315.305009,301.494786 275.699751,329.983804 232.083834,352.195484 C211.400253,365.366014 177.092431,365.349047 166.281719,388.08609 C154.473169,416.875495 103.833083,512.504178 167.145776,512.817762 C212.204316,503.66978 216.237042,490.676465 239.196961,457.050702 C268.163215,417.248779 299.796805,379.148002 334.205998,343.121656 C390.444181,282.761438 551.762182,148.964108 635.620538,140.366627 C738.179902,162.000156 557.383724,288.519068 526.828654,316.715239 C432.918136,389.887156 336.080995,460.869641 225.800974,512.256578 C191.777263,557.735064 112.824655,711.465405 244.510947,647.131657 C351.56851,516.773697 517.174385,352.028323 698.775315,318.241683 C812.368818,337.903215 504.259043,526.239662 472.049644,545.527909 C424.659598,577.539877 373.925038,605.238964 322.763621,631.939484 C302.431041,644.347734 273.502026,647.936669 262.823715,670.099961 C206.111783,762.756822 193.211611,849.922506 342.171459,787.47529 C358.519584,773.041625 363.733578,750.239854 377.439192,733.599789 C413.397894,682.933655 456.389731,635.02505 508.730348,597.736827 C552.124217,566.923894 600.071452,539.166992 653.783665,526.672647 C679.552287,514.726288 724.973552,506.337444 728.789057,542.671089 C708.450271,599.561773 588.951803,676.171174 534.467249,712.66067 C492.312575,740.083878 447.296789,763.656098 400.774248,784.352018 C389.429104,791.387864 369.200653,791.090618 365.461692,804.811649 C359.543626,828.281436 336.642321,884.351396 383.124177,879.855016 C549.243107,839.642731 479.257246,822.136697 589.642084,733.154865 C622.239721,708.386752 658.738373,688.259557 698.566369,674.762246 C712.96709,668.415154 723.491622,674.277102 733.405176,683.041744 C753.671555,701.073142 689.62031,743.491827 676.475334,757.547808 C629.392845,792.87346 578.672076,825.445983 523.943407,850.085269 C505.109308,858.205776 501.657907,897.078259 509.442695,912.52243 C529.831131,935.955769 612.501323,890.241624 639.813249,882.808613 C663.417246,874.004379 664.701953,843.736291 683.271249,828.336737 C703.114219,807.831859 727.698814,783.060604 760.990869,786.729978 C773.139387,788.571891 780.889007,804.027375 774.973009,813.86034 C752.064119,851.271106 707.32348,867.724529 670.505548,891.116391 C658.199803,904.266812 664.264063,926.347151 661.440189,942.63844 C644.51143,947.085803 651.060472,909.210003 649.078588,900.097212 C607.51972,919.438247 488.410182,968.625697 483.894742,884.210629" id="Fill-1" fill="#FFEECE"/>
        <g id="Plants/Big Plant" transform="translate(415.000000, 100.000000) scale(1.3426724137931034 1.3425925925925926)">
            <g id="Plants/Big Plant/Big Plant 1" stroke="none" stroke-width="1" fill="none" fill-rule="evenodd">
                <g id="Group" transform="translate(46.000000, 70.000000)">
                    <path d="M207.727381,304.6152 C207.727381,304.6152 201.167381,281.8972 206.613381,267.2852 C212.059381,252.6712 218.401381,244.0572 231.889381,228.6952 C245.377381,213.3332 243.877381,203.9692 258.489381,186.7352 C273.101381,169.4992 298.203381,165.7532 316.561381,156.7612 C334.919381,147.7692 335.667381,138.0292 347.281381,131.8112 C358.895381,125.5912 374.631381,131.8112 374.631381,131.8112 C374.631381,131.8112 355.899381,137.2792 337.167381,155.6372 C318.435381,173.9952 323.515381,186.5032 308.529381,210.0552 L298.895381,220.2812 L207.727381,304.6152 Z" id="Fill-70" fill="#000"/>
                    <path d="M181.298781,334.998 C181.298781,334.998 192.728781,295.732 194.298781,276.25 C195.868781,256.768 196.260781,182.956 178.202781,143.302 C160.140781,103.648 143.258781,91.482 135.014781,81.666 C126.768781,71.848 125.984781,61.246 113.028781,50.646 C100.072781,40.046 78.1187807,39.83 69.8407807,32.586 C60.4187807,24.342 23.9047807,3.534 5.45278072,-2.84217094e-14 C5.45278072,-2.84217094e-14 24.6907807,25.912 31.7567807,53.788 C38.8247807,81.662 29.4027807,95.796 35.2907807,109.932 C41.1807807,124.064 53.3507807,137.022 61.5967807,153.51 C69.8407807,170 76.9087807,213.58 83.5827807,224.182 C130.982781,255.596 164.020781,301.33 183.942781,360.79 L181.298781,334.998 Z" id="Fill-71" fill="#870CF7"/>
                    <path d="M175.561381,460.2596 C175.435381,459.5296 162.495381,387.1896 117.457381,383.9316 C93.7873807,382.1696 87.2593807,419.4376 87.1953807,419.8156 L84.3733807,419.3396 C84.4413807,418.9356 86.1033807,409.2916 90.9353807,399.7116 C97.4833807,386.7276 106.725381,380.2976 117.665381,381.0756 C137.303381,382.4976 154.041381,396.6196 166.071381,421.9136 C175.067381,440.8276 178.351381,459.5876 178.381381,459.7756 L175.561381,460.2596 Z" id="Fill-72" fill="#000"/>
                    <path d="M184.468581,459.9628 C185.914581,422.2988 185.058581,384.5348 181.242581,347.0488 C177.424581,309.5748 170.516581,272.3708 159.754581,236.2588 C149.012581,200.1568 134.368581,165.1728 115.652581,132.4508 C114.584581,130.3468 113.280581,128.3808 112.052581,126.3728 L108.332581,120.3648 L100.892581,108.3448 C95.6365807,100.5288 90.1405807,92.8668 84.7745807,85.1148 L67.2645807,62.8988 L48.5445807,41.6688 C54.9385807,48.6028 61.4025807,55.4908 67.7525807,62.4828 L85.5805807,84.5088 C91.0565807,92.2048 96.6665807,99.8168 102.038581,107.5888 L109.564581,119.6028 L113.326581,125.6128 C114.568581,127.6228 115.884581,129.5888 116.966581,131.6928 C135.900581,164.4328 150.768581,199.4768 161.724581,235.6668 C172.702581,271.8648 179.814581,309.1808 183.824581,346.7788 C187.840581,384.3928 188.684581,422.2948 187.328581,460.0728 L184.468581,459.9628 Z" id="Fill-73" fill="#000"/>
                    <path d="M1.50378072,490.0682 C1.50378072,490.0682 0.80978072,475.3122 9.31578072,466.2862 C17.8217807,457.2602 33.0977807,457.9522 38.6517807,453.4422 C44.2077807,448.9282 46.6377807,441.6362 52.5397807,438.6862 C58.4417807,435.7342 65.7337807,441.6362 78.2317807,435.3862 C90.7297807,429.1362 92.9877807,386.6082 95.7637807,380.8782 C98.5417807,375.1502 119.893781,357.6162 119.893781,357.6162 C119.893781,357.6162 113.123781,361.0122 104.617781,360.7902 C96.1117807,360.5682 76.4957807,346.1602 71.2877807,347.0262 C66.0797807,347.8962 51.1457807,359.8722 48.5457807,363.8662 C45.9437807,367.8602 43.6857807,378.6202 32.0557807,389.2102 C20.4257807,399.8002 13.6557807,405.8762 11.2237807,412.2982 C8.79578072,418.7222 3.41378072,426.0142 3.93378072,431.0462 C4.45578072,436.0822 4.67178072,452.9882 3.67778072,456.5342 C2.68578072,460.0822 -2.51621928,481.0402 1.50378072,490.0682" id="Fill-74" fill="#BE6FFB"/>
                    <path d="M87.7673807,419.578 C87.7673807,419.578 88.3813807,417.162 89.5673807,412.854 C92.5193807,402.118 100.055381,382.928 118.055381,384.23 C137.369381,385.626 150.375381,397.402 159.565381,412.754 C159.565381,412.754 153.303381,400.194 154.305381,393.43 C155.307381,386.664 162.697381,378.774 161.445381,371.758 C160.193381,364.742 149.795381,364.368 142.905381,360.86 C136.015381,357.352 132.759381,351.84 125.117381,351.84 C117.475381,351.84 100.939381,373.386 95.9293807,378.022 C90.9193807,382.656 87.7673807,419.578 87.7673807,419.578" id="Fill-75" fill="#870CF7"/>
                    <path d="M186.898381,460.0604 L184.900381,459.9744 C189.132381,362.0744 229.004381,279.8824 306.796381,208.7024 L308.146381,210.1804 C230.766381,280.9824 191.106381,362.7184 186.898381,460.0604" id="Fill-76" fill="#000"/>
                    <path d="M302.534981,216.4178 C279.742981,234.2718 232.224981,247.9638 218.400981,270.2818 C200.552981,299.0978 206.570981,336.9798 208.966981,348.4158 C227.102981,302.1478 258.716981,259.4658 298.894981,220.2818 C300.244981,218.9638 301.328981,217.7978 302.534981,216.4178" id="Fill-77" fill="#BE6FFB"/>
                    <path d="M217.803581,576.494 L153.533581,576.494 C141.297581,576.494 131.377581,566.574 131.377581,554.338 L131.377581,460.018 L239.959581,460.018 L239.959581,554.338 C239.959581,566.574 230.039581,576.494 217.803581,576.494" id="Fill-78" fill="#CCA4FF"/>
                </g>
            </g>
        </g>
        <g id="Character" transform="translate(29.000000, 73.000000)">
            <g id="Legs" transform="translate(32.000000, 315.000000) scale(0.974025974025974 0.9765100671140939)">
                <g id="Legs/Shorts Sprint" stroke="none" stroke-width="1" fill="none" fill-rule="evenodd">
                    <path d="M589,562.618704 C584.558513,563.971083 578.267013,566.843411 570.1255,571.235686 C566.7025,572.275891 563.0855,570.39271 562.0455,567.029814 C544.7795,510.710573 525.8795,454.690679 505.8365,398.995161 C464.6045,284.858944 418.7255,171.710872 369.4765,60.6171795 L441.6795,28.522 C454.3925,57.1741911 468.2585,89.1702557 480.4445,118.076741 C539.2225,257.468214 593.0335,399.093274 637.5815,543.858973 C638.6475,547.311973 636.7375,550.955193 633.3145,551.995398 C613.372013,556.154362 598.600513,559.695464 589,562.618704 Z" id="SKIN-DARKER" fill="#8C6345"/>
                    <path d="M332.9991,8.667 C329.9511,10.064 327.8581,12.029 328.3251,13.055 C348.0591,57.527 367.1901,102.311 385.7281,147.324 L430.6921,128.205 L434.4891,109.189 L450.1841,119.918 L495.8661,100.495 C481.05988,66.7459739 466.47288,33.4517128 451,-4.54747351e-13 L332.9991,8.667 Z" id="Fill-3" fill="#CC2935"/>
                    <path d="M644.4278,538.117386 C633.0658,501.713214 619.6768,461.64268 607.0938,425.522 L520.0528,455.994879 C536.2148,502.296226 551.5258,548.813948 565.6388,595.522 C566.5788,595.237506 593.7368,587.011231 595.4748,586.484317 L594.7368,579.440093 L613.2248,581.107987 C631.8168,575.475213 669.7048,564.001302 688.1598,558.410601 L684.6528,547.042874 C682.1918,539.068036 656.3878,544.064706 644.4278,538.117386" id="Fill-6" fill="#0A1B45"/>
                    <g id="Left-Leg" transform="translate(79.999800, -0.001100)">
                        <path d="M69.0002,187.0011 C91.5825488,158.175252 80.0394086,165.112683 120.491,191.8119 C141.664,205.5929 204.451,244.0259 222.073,215.2629 C227.836,206.3769 232.084,195.6469 232.91,185.4449 C234.828,150.1149 211.669,116.2739 197,85.2189 L267.712,49.9949 C288.454,90.6079 312.252,133.1329 312.177777,180.1489 C311.712,225.1619 289.483,273.9619 247.976,294.5979 C189.856,321.5869 125.45,289.2019 76.813,257.6389 C63.526,248.8089 50.834,239.4399 38.472,229.3449 C35.506,226.9199 34.981,222.6609 37.304,219.9419 C50.7983386,205.179992 62.5392737,195.248324 69.0002,187.0011 Z" id="SKIN" fill="#B18058"/>
                        <path d="M265.24703,1.42108547e-14 L161.188476,1.42108547e-14 C154.739476,-0.0978999611 154.5865,6.50720004 155.0435,10.9802 C156.2675,38.2322 166.3315,64.3132 177.6025,87.9972 C188.7735,111.9212 203.8115,137.6182 210.3665,161.4082 L257.2855,147.7722 C259.4795,142.2412 261.3775,136.3792 262.9945,130.3142 C267.9805,133.8852 272.8625,137.7002 277.6235,141.8612 L325.2915,128.0062 C313.4435,84.8812 285.2475,49.2912 271.9925,8.87020004 C270.979833,5.17286671 268.731343,2.21613336 265.24703,1.42108547e-14 Z" id="Fill-13" fill="#FA3239"/>
                        <path d="M51.096,248.3335 C85.911,273.9935 124.946,297.4935 167.754,307.7295 L188.53,217.8965 C150.911,208.0125 115.553,182.9575 85.561,157.8695 C84.905,158.6005 65.94,179.7015 64.726,181.0535 C65.59,182.4415 67.46,184.7295 68.48,186.0855 C63.152,189.0865 57.721,191.9765 52.33,194.8455 C39.348,209.2915 12.888,238.7295 -1.27897692e-13,253.0715 C3.576,256.2325 7.702,259.7405 11.358,262.7185 C21.13,268.2205 40.294,248.4655 51.096,248.3335" id="Fill-15" fill="#0A1B45"/>
                    </g>
                    <path d="M243,0 C243,55.228475 289.562386,100 347,100 C404.437614,100 451,55.228475 451,0" id="Waist" fill="#FA3239"/>
                </g>
            </g>
            <g id="Body" transform="translate(-0.000000, 29.000000) scale(0.9745075318655851 0.9734848484848485)">
                <g id="Body/Short Tee Wave" stroke="none" stroke-width="1" fill="none" fill-rule="evenodd">
                    <g id="Right-Arm" transform="translate(608.514576, 219.311051) rotate(-12.000000) translate(-608.514576, -219.311051) translate(418.014576, 116.311051)">
                        <path d="M51.2848658,20.7253227 L51.7877664,20.7267019 C65.0228347,20.855282 77.5989158,28.2632147 82.7663058,40.7594347 C110.052246,106.382055 141.655209,140.389849 193.487546,139.968669 L195.629071,139.931971 C214.288364,139.445819 235.541466,134.587355 260.107306,125.229435 C264.350776,123.051945 268.721827,121.320306 273.089722,120.15391 L273.150601,120.138429 C296.238024,110.34552 323.70799,100.283572 346.768806,99.6371347 C364.750806,99.8711347 378.501806,101.187135 380.303806,108.965135 C380.932806,111.718135 380.100806,114.690135 377.247806,115.958135 C375.360119,116.811043 368.334251,118.18447 360.028373,120.281424 L360.028729,120.281394 L360.274115,120.395312 C367.861202,123.957657 372.459426,129.874765 368.266506,136.156735 C366.326306,138.324935 364.308306,139.189095 362.153434,139.237671 L361.829169,139.238901 C354.889307,139.137265 346.517631,130.934138 334.778469,130.635247 L334.225722,130.627087 L334.225722,130.627087 L333.667998,130.630872 C333.367172,130.636176 333.064174,130.646806 332.758973,130.663015 L332.757981,130.664134 L332.536754,130.815841 C327.665776,134.185887 324.391023,138.445048 324.241806,144.039135 C324.079806,150.524135 326.670806,153.956135 330.437806,155.709135 C337.372806,159.279135 350.649806,154.095135 352.487806,164.512135 C354.842806,174.841135 342.702806,175.129135 334.947806,176.441135 C322.631806,178.278135 304.931806,178.612135 294.851806,182.605135 L294.816371,182.606789 L294.816371,182.606789 L294.597499,182.711729 C281.608112,188.918696 265.834046,192.752935 253.802306,196.522435 C233.543606,202.050485 212.205586,205.817985 190.929246,205.96586 L189.768786,205.970325 C172.74981,205.982836 155.783586,203.657155 139.454306,198.041435 C112.315306,188.774435 88.5573058,170.235435 70.2703058,148.750435 C49.1723058,124.082435 33.4783058,94.8334347 21.5723058,65.4884347 C14.2883058,47.7174347 22.9833058,27.6604347 41.2203058,22.2084347 C44.5389058,21.2220347 47.9302658,20.7395147 51.2848658,20.7253227 Z" id="SKIN" fill="#B18058"/>
                        <path d="M51.2848658,20.7253227 L51.7877664,20.7267019 C65.0228347,20.855282 77.5989158,28.2632147 82.7663058,40.7594347 C110.052246,106.382055 141.655209,140.389849 193.487546,139.968669 L195.629071,139.931971 C214.288364,139.445819 235.541466,134.587355 260.107306,125.229435 C264.350776,123.051945 268.721827,121.320306 273.089722,120.15391 L273.150601,120.138429 C296.238024,110.34552 323.70799,100.283572 346.768806,99.6371347 C364.750806,99.8711347 378.501806,101.187135 380.303806,108.965135 C380.932806,111.718135 380.100806,114.690135 377.247806,115.958135 C375.360119,116.811043 368.334251,118.18447 360.028373,120.281424 L360.028729,120.281394 L360.274115,120.395312 C367.861202,123.957657 372.459426,129.874765 368.266506,136.156735 C366.326306,138.324935 364.308306,139.189095 362.153434,139.237671 L361.829169,139.238901 C354.889307,139.137265 346.517631,130.934138 334.778469,130.635247 L334.225722,130.627087 L334.225722,130.627087 L333.667998,130.630872 C333.367172,130.636176 333.064174,130.646806 332.758973,130.663015 L332.757981,130.664134 L332.536754,130.815841 C327.665776,134.185887 324.391023,138.445048 324.241806,144.039135 C324.079806,150.524135 326.670806,153.956135 330.437806,155.709135 C337.372806,159.279135 350.649806,154.095135 352.487806,164.512135 C354.842806,174.841135 342.702806,175.129135 334.947806,176.441135 C322.631806,178.278135 304.931806,178.612135 294.851806,182.605135 L294.816371,182.606789 L294.816371,182.606789 L294.597499,182.711729 C281.608112,188.918696 265.834046,192.752935 253.802306,196.522435 C233.543606,202.050485 212.205586,205.817985 190.929246,205.96586 L189.768786,205.970325 C172.74981,205.982836 155.783586,203.657155 139.454306,198.041435 C112.315306,188.774435 88.5573058,170.235435 70.2703058,148.750435 C49.1723058,124.082435 33.4783058,94.8334347 21.5723058,65.4884347 C14.2883058,47.7174347 22.9833058,27.6604347 41.2203058,22.2084347 C44.5389058,21.2220347 47.9302658,20.7395147 51.2848658,20.7253227 Z" id="SKIN-DARKER" fill="#8C6345"/>
                        <path d="M113.560306,79.6312347 C113.560306,79.6312347 100.68354,49.5206074 89.7863058,31.2892347 C80.9465019,16.5 60.892919,8.52651283e-14 35.2935333,8.52651283e-14 C35.2935333,8.52651283e-14 13.7891118,1.22610938 4.12511182,23.2061094 C-10.8788882,54.6701094 24.1363058,98.0652347 39.2493058,126.770235 L113.560306,79.6312347 Z" id="Fill-8" fill="#051026"/>
                    </g>
                    <g id="body" transform="translate(272.000000, 149.000000)">
                        <rect id="SKIN" fill="#B18058" x="18" y="101" width="180" height="48"/>
                        <path d="M40,0 L176,0 C198.09139,-4.05812251e-15 216,17.90861 216,40 L216,117 L216,117 L0,117 L0,40 C-2.705415e-15,17.90861 17.90861,4.05812251e-15 40,0 Z" fill="#0A1B45"/>
                    </g>
                    <path d="M334,149 C334,167.225397 354.594902,182 380,182 C405.405098,182 426,167.225397 426,149" id="SKIN" fill="#B18058"/>
                    <g id="Left-Arm" transform="translate(21.000000, -40.000000)">
                        <path d="M39.7372203,0.00435699777 C44.7022203,-0.143643002 48.8112203,3.496357 49.0632203,8.250357 C48.9626239,9.02943064 48.9273245,9.89654167 48.94179,10.8346635 C50.4541643,8.60079603 53.0285178,7.08481157 56.0048203,6.953557 C60.9698203,6.728557 65.1648203,10.230557 65.4878203,14.850557 C65.8795347,20.449409 66.3602999,26.0649823 66.9324028,31.6775829 C81.6523929,31.0161755 76.6957002,53.2193756 80.1806203,62.750157 C81.707432,71.4307217 74.8739157,72.3916377 73.8807535,76.1910055 C75.4795376,85.4295746 76.8994789,94.8716161 79.7098203,103.153257 C90.1978203,139.274257 103.87982,178.103257 137.53882,197.313257 C158.60582,208.483257 184.26182,211.061257 208.12582,210.336257 C225.44482,209.837257 243.28282,207.458257 260.99182,203.835257 C277.83782,200.320257 295.00482,211.953257 299.65182,228.278257 C305.06582,246.305257 293.01282,264.811257 274.24282,268.491257 C248.40182,273.792257 220.94382,277.031257 193.92082,276.372257 C162.27582,275.534257 130.10982,269.398257 102.14282,253.077257 C73.4458203,236.746257 52.2768203,209.144257 38.1068203,180.324257 C24.3786975,152.223851 15.7725038,123.39192 9.71134675,93.7232933 C9.64668863,93.4976719 9.58984317,93.2674061 9.54052025,93.033357 C4.91652025,70.281357 1.84052025,47.584357 0.0315202534,24.657357 C-0.385479747,19.377357 3.38552025,14.829357 8.35052025,14.546357 C10.9486155,14.400738 13.3560191,15.4036586 15.1172794,17.1218001 C14.8880895,9.34059653 16.5409108,2.87709885 23.7929203,2.363757 L23.7929203,2.363757 L24.2194268,2.35427419 C27.7919261,2.34567841 30.0837019,4.16078923 31.5681596,7.0332872 C32.5621618,2.96480356 34.9268909,0.171821947 39.7372203,0.00435699777 Z" id="SKIN" fill="#B18058"/>
                        <path d="M213.93742,287.190057 C238.15542,286.148057 261.37342,282.658057 284.02442,277.649057 C309.18742,272.247057 325.64442,246.988057 316.80342,222.825057 C308.83642,201.330057 289.924888,189 289.924888,189 C259.205296,189 222.367655,196.94285 210.31542,199.264057 L213.93742,287.190057 Z" id="Fill-22" fill="#0A1B45"/>
                    </g>
                </g>
            </g>
            <g id="Head" transform="translate(313.000000, 0.000000) scale(0.9763779527559056 0.976303317535545)">
                <g id="Head/Short Hair" stroke="none" stroke-width="1" fill="none" fill-rule="evenodd">
                    <g id="Head" transform="translate(22.000000, 72.000000)">
                        <g id="head" transform="translate(0.000000, 0.000100)" fill="#B18058">
                            <path d="M13,62 L58,62 L58,113.633 C58,127.538 47.926,138.81 35.5,138.81 C23.074,138.81 13,127.538 13,113.633 L13,62 Z" id="SKIN"/>
                            <path d="M60.0525,94 L55.0655,94 C31.8335,94 13.0005,75.167 13.0005,51.935 L13.0005,32.203 C13.0005,14.418 27.4175,0 45.2035,0 L50.7965,0 C68.5825,0 83.0005,14.418 83.0005,32.203 L83.0005,71.052 C83.0005,83.726 72.7265,94 60.0525,94" id="SKIN"/>
                            <path d="M25,58.5 C25,65.403 19.404,71 12.5,71 C5.596,71 0,65.403 0,58.5 C0,51.597 5.596,46 12.5,46 C19.404,46 25,51.597 25,58.5" id="SKIN"/>
                        </g>
                        <path d="M10.067,53.1685 C10.9718309,53.1685 12.2239875,53.3771928 13.5088204,54.0196092 C15.6553998,55.0928989 17.0130325,57.055328 17.10411,59.9021045 L17.109,60.2105 L14.109,60.2105 C14.109,58.3751144 13.4076866,57.3231443 12.1671796,56.7028908 C11.7065142,56.4725581 11.1976823,56.3199085 10.686339,56.2346846 C10.4347302,56.1927498 10.2385731,56.1747448 10.1250097,56.169908 L10.067,56.1685 L10.067,53.1685 Z" id="ear-line" fill="#000"/>
                        <path d="M34.7507501,96.3317762 C25.4557924,93.0436693 20.8185822,84.7387742 18.9822222,73.5681961 C26.2532122,85.6702724 39.4406226,93.8133264 54.5439426,93.9968331 L55.0655,94 L58,94 C50.0632106,98.2298391 42.3134606,99.0070978 34.7507501,96.3317762 Z" id="SHADOW" fill="#000" opacity=".12"/>
                        <path d="M50.8086245,0 C64.717064,0 76.5752072,8.73752555 81.1464316,20.9990758 L25.3655574,20.9997374 L17.109,46.0001 L12.8420404,46 L12.8420404,32.2025974 C12.8420404,14.4178197 27.3241084,0 45.1903817,0 L50.8086245,0 Z" id="Combined-Shape" fill="#000"/>
                    </g>
                </g>
            </g>
            <g id="Expression" transform="translate(359.000000, 93.000000) scale(0.9836065573770492 0.9836065573770492)" fill="#000">
                <g id="Expression/Ouch" stroke="none" stroke-width="1" fill="none" fill-rule="evenodd">
                    <polygon id="Stroke-5" fill="#000" fill-rule="nonzero" points="33.1977829 19.396766 36.1476171 18.850434 40.4350211 41.9996 30.5607 41.9996 30.5607 38.9996 36.828 38.999"/>
                    <path d="M23.217537,10.0070345 L25.929663,11.2893655 C24.0501292,15.2645732 15.6730641,18.733004 11.2227026,17.120524 L10.9998479,17.0341324 L12.1473521,14.2622676 C14.976856,15.4336333 21.7086708,12.7349642 23.1382016,10.1612739 L23.217537,10.0070345 Z" id="Stroke-2" fill="#000"/>
                    <path d="M39.9263207,10.0000127 C41.338104,12.9463036 47.5798731,15.7476706 50.7221119,14.390919 L50.8998997,14.308003 L52.2473003,16.988397 C47.6301151,19.3093985 39.6038095,15.833801 37.3281217,11.5097098 L37.2208793,11.2963873 L39.9263207,10.0000127 Z" id="Stroke-4" fill="#000"/>
                    <path d="M12.680885,23.591114 C15.1705631,17.3669186 25.9639131,17.2910138 27.4921395,23.6168094 L27.544471,23.8540258 L24.602729,24.4423742 C23.9275751,21.0666049 17.1885145,21.0073809 15.5491937,24.5140178 L15.466315,24.705286 L12.680885,23.591114 Z" id="Stroke-8" fill="#000"/>
                    <path d="M37.680885,23.591114 C40.1705631,17.3669186 50.9639131,17.2910138 52.4921395,23.6168094 L52.544471,23.8540258 L49.602729,24.4423742 C48.9275751,21.0666049 42.1885145,21.0073809 40.5491937,24.5140178 L40.466315,24.705286 L37.680885,23.591114 Z" id="Stroke-10" fill="#000"/>
                    <path d="M37.0736,51.1482 C37.0736,52.8052 35.7306,54.1482 34.0736,54.1482 C32.4166,54.1482 31.0736,52.8052 31.0736,51.1482 C31.0736,49.4912 32.4166,48.1482 34.0736,48.1482 C35.7306,48.1482 37.0736,49.4912 37.0736,51.1482" id="Fill-12" fill="#000"/>
                </g>
            </g>
            <g id="Accessories" transform="translate(346.000000, 115.000000) scale(0.9736842105263158 0.9583333333333334)" fill="#000">
                <g id="Accessories/None" stroke="none" stroke-width="1" fill="none" fill-rule="evenodd" fill-opacity="0"/>
            </g>
            <g id="Glasses" transform="translate(338.000000, 100.000000) scale(0.9789473684210527 0.96875)" fill="#000">
                <g id="Glasses/Thick" stroke="none" stroke-width="1" fill="none" fill-rule="evenodd">
                    <path d="M43.5452664,3.00012344 C49.2894512,3.02462661 55.021427,4.35163303 57.0857956,6.97405047 C58.0938547,8.25461237 58.6772219,10.0147386 58.9068842,11.9996703 L62.1143968,11.9996703 C62.3440591,10.0147386 62.9274264,8.25461237 63.9354854,6.97405047 C65.9529365,4.41123343 71.4731799,3.0856142 77.0844275,3.00401411 L77.4760146,3.00012344 L77.8967218,3.00012344 L80.8146938,3.0378718 C91.0822714,3.2070925 94.9796428,3.73089949 95.893837,5.69362755 C96.9046181,7.86372269 97.4724619,10.8486323 96.5699433,12.3975628 L96.4345265,12.6077971 C96.2607766,12.8804731 95.8187885,13.7026763 95.3317143,14.6775352 L95.2267324,14.8886255 L94.7966033,15.7746065 C94.1772527,17.0747485 93.6217104,18.3482986 93.2115536,19.4320065 L93.1438986,19.6872046 L93.1438986,19.6872046 C92.2530855,22.9637972 90.4857872,26.1972123 88.6985341,28.3365739 C85.3492115,32.34575 71.1131799,32.6082999 67.0329763,28.4576053 C64.4038322,25.7830393 62.5077693,20.7417692 62.087653,15.9998009 L58.933628,15.9998009 C58.5135117,20.7417692 56.6174488,25.7830393 53.9883048,28.4576053 C49.9081011,32.6082999 35.6720695,32.34575 32.3227469,28.3365739 C30.5354938,26.1972123 28.7681955,22.9637972 27.8773824,19.6872046 L27.8097274,19.4320065 C27.4233065,18.4110132 26.9078403,17.2215143 26.331547,16.0000268 L0,16 L0,12 L24.2628445,12.0004643 C23.6422666,10.3774347 24.1973223,7.69055104 25.127444,5.69362755 C26.0970439,3.61194627 30.4223758,3.14888604 42.1443686,3.0107703 L43.1245592,3.00012344 L43.5452664,3.00012344 Z M32.8542992,9.57832836 C31.1333273,11.9393787 30.7976239,14.9040914 31.4059083,17.8533932 L31.6334165,18.4663592 L31.5539327,18.4983688 C32.1949786,21.035914 33.5135424,23.5284501 35.226974,25.5794466 C37.0849603,27.8034767 48.7860935,28.0192764 51.3034638,25.4584151 C54.5060095,22.2005411 56.3804317,12.9591713 54.2303847,9.80770023 L54.1067801,9.63896051 L53.9809214,9.49277664 C51.015179,6.32545056 35.1904568,6.373287 32.8542992,9.57832836 Z M88.1669819,9.57832836 C85.8662205,6.42184823 70.4825425,6.32762495 67.1839305,9.35102137 L67.0403596,9.49277664 L66.9145009,9.63896051 L66.7908963,9.80770023 C64.6408493,12.9591713 66.5152715,22.2005411 69.7178172,25.4584151 C72.2351876,28.0192764 83.9363207,27.8034767 85.794307,25.5794466 C87.4069485,23.6490969 88.669811,21.3276257 89.347247,18.9456229 L89.4673483,18.4983688 L89.3878645,18.4663592 L89.6153727,17.8533932 L89.6153727,17.8533932 C90.2236571,14.9040914 89.8879537,11.9393787 88.1669819,9.57832836 Z" id="Shape" fill="#000"/>
                </g>
            </g>
        </g>
        <g id="Plants/Small" transform="translate(-40.000000, 555.000000) scale(1.2125 1.213450292397661)">
            <g id="Plants/Small/Snake Plant" stroke="none" stroke-width="1" fill="none" fill-rule="evenodd">
                <g id="Group" transform="translate(62.000000, -20.000000)">
                    <g id="Group-2">
                        <path d="M57.8854621,290.6522 C57.8854621,290.6522 29.6654621,204.6002 19.8414621,173.2342 C15.5754621,159.6102 27.0514621,124.3002 18.9194621,69.0862 C18.9194621,69.0862 48.2894621,94.5822 55.0594621,125.6542 C61.8334621,156.7262 52.2714621,236.9482 64.6214621,290.6522 L57.8854621,290.6522 Z" id="Fill-66" fill="#CCA4FF"/>
                        <path d="M47.1578621,104.826 C47.1578621,104.826 8.58986209,65.906 2.79786209,41.54 C-2.99213791,17.176 1.99986209,0 1.99986209,0 C1.99986209,0 13.7838621,11.762 16.7798621,20.97 C19.7758621,30.18 19.3738621,42.74 23.1698621,49.13 C26.9638621,55.522 36.3518621,73.496 39.5458621,82.882 C42.7418621,92.27 47.1578621,104.826 47.1578621,104.826" id="Fill-67" fill="#000"/>
                    </g>
                    <path d="M68.9174621,290.6522 C76.0374621,240.0962 62.1354621,198.6042 60.7794621,170.1822 C59.4234621,141.7622 85.1934621,45.8022 85.1934621,45.8022 C85.1934621,45.8022 82.9774621,80.7262 102.147462,117.0082 C116.577462,182.0122 89.1614621,290.6522 89.1614621,290.6522 L68.9174621,290.6522 Z" id="Fill-68" fill="#BE6FFB"/>
                    <path d="M40.0753057,290.6522 C29.9290697,265.461953 32.8563466,244.787973 30.2066217,230.626307 C27.5571376,216.465637 1.31326324,168.6522 1.31326324,168.6522 C1.31326324,168.6522 6.78191761,186.05358 0.224617749,204.131604 C-0.172262965,236.520773 28.536731,290.6522 28.536731,290.6522 L40.0753057,290.6522 Z" id="Fill-68" fill="#BE6FFB"/>
                    <path d="M89.4244621,362.4706 L28.1424621,362.4706 C19.3424621,362.4706 12.0024621,355.7366 11.2464621,346.9686 L6.39046209,290.6526 L111.178462,290.6526 L106.320462,346.9686 C105.564462,355.7366 98.2264621,362.4706 89.4244621,362.4706" id="Fill-69" fill="#CCA4FF"/>
                </g>
            </g>
        </g>
    </g>
</svg>
