<svg viewBox="140.8 25.6 742.4 729.6" xmlns="http://www.w3.org/2000/svg" overflow="visible">
    <g id="Master/Doodles/Strolling" stroke="none" stroke-width="1" fill="none" fill-rule="evenodd">
        <path d="M653,632.476744 C617.539481,640.226635 582.077942,647.976527 546.616404,655.727438 C541.624334,656.817952 536.632265,657.908466 531.640196,659 C533.125069,613.242283 534.610961,567.484566 536.095834,521.726849 C536.309999,515.118478 536.525183,508.509087 536.739347,501.900715 C528.522575,509.092598 519.89787,515.987625 512.035998,523.562054 C501.972313,533.257325 492.294123,543.293316 481.935707,552.699891 C464.116213,568.881118 445.396208,584.574724 424.761982,597.069218 C402.341013,610.644024 376.477097,619.377316 350.442869,622.392806 C340.853405,623.503723 332.17057,623.232369 322.670851,622.242848 C314.404107,621.381862 306.138382,620.519856 297.870618,619.658871 C294.541892,619.312028 291.211126,618.965186 287.88138,618.618343 C287.076734,618.534693 284.45883,618.723416 283.817357,618.181729 C282.651691,617.199349 282.043872,612.739361 281.584948,611.321387 C279.671747,605.423023 277.770783,599.521599 275.882057,593.616094 C270.748232,577.565444 265.685794,561.49133 260.797747,545.364171 C256.612364,531.557796 252.210776,517.692254 249.084997,503.597184 C248.718877,501.944581 247.916271,499.781915 248.051908,498.073206 C248.248736,495.577979 247.066752,496.103344 250.356725,496.067639 C258.091118,495.982969 266.269137,497.86204 274.010669,498.411887 C281.982682,498.977036 289.971013,499.313678 297.963423,499.394268 C340.28536,499.824761 388.996534,495.238278 423.282208,467.835674 C434.776715,458.649446 446.324253,448.028922 455.231451,436.217912 C467.791681,419.563348 474.637802,397.387866 476.306244,376.838463 C478.181712,353.746909 474.288,329.931065 468.615704,307.578081 C467.467375,303.054846 467.726412,301.362458 468.712588,296.629077 C469.531511,292.699555 470.349415,288.770033 471.168339,284.84051 C471.395761,283.749996 471.640521,279.165554 472.54205,278.493291 C474.120748,277.318107 481.731741,278.608565 483.580694,278.632028 L506.511578,278.918683 C521.27974,279.103326 536.046882,279.287969 550.815045,279.472611 C558.484169,279.568503 566.146154,280.76715 573.767345,281.559788 C590.105027,283.257276 606.442708,284.955784 622.780389,286.653273 C626.054044,286.993995 629.328719,287.334716 632.603394,287.674418 C630.504584,306.268241 628.406793,324.861043 626.306962,343.453845 C624.742542,357.319387 630.199654,371.065575 633.10719,384.618958 C639.65858,415.152327 646.040678,446.130469 648.469914,477.312637 C650.756373,506.671841 650.731897,536.346264 651.477393,565.774836 C652.04034,588.007445 652.552295,610.241075 653,632.476744" id="Accent" fill="#FF5678"/>
        <path d="M422.756404,27.0048372 C436.474895,31.0271577 442.976399,43.0645435 449.5095,54.7133634 C451.35324,57.9983265 452.486596,61.4740031 454.158091,64.8079194 C455.870354,68.2254641 457.647847,68.2305634 460.803303,69.6175705 C467.057142,72.3650684 466.527155,80.2903861 463.811995,85.4998216 C460.361988,92.1197209 461.060143,99.7890542 458.087124,106.699613 C455.041741,113.776409 450.31569,115.747795 443.108896,117.333674 C445.856671,119.51617 448.361875,122.369734 451.863862,123.302904 C456.114963,124.434946 461.265003,123.354917 465.665928,123.417128 C474.802076,123.54563 484.041164,124.783738 492.722747,127.704612 C501.248391,130.572453 508.890386,135.161814 516.816738,139.268783 C520.44001,141.146342 523.818672,143.82449 527.958681,144.369094 C531.975365,144.8984 536.021607,143.908118 540.061733,144.427226 C548.919638,145.566407 558.630618,144.130447 567.664845,143.933614 C577.39417,143.721484 587.158148,143.857125 596.868109,143.145264 L598.543632,143.017527 C601.890247,142.756628 605.213596,142.489986 608.573691,142.700082 L609.414515,142.762817 C613.239589,143.094271 615.520568,142.193736 618.827886,144.811712 C621.02631,146.55159 622.778323,150.810518 625.36914,151.390817 C628.131184,152.009871 633.571697,150.278152 636.299088,149.867149 C645.46887,148.484222 654.711015,146.655616 663.823722,144.96979 C668.094188,144.1794 672.119026,142.739361 676.426184,141.995884 C680.870934,141.227931 685.486911,140.978066 689.877644,139.989823 C696.983537,138.390685 704.657126,137.795088 712.065723,136.77319 C720.74221,135.576897 729.665345,133.053768 738.411137,132.734552 L748.393001,132.370473 C782.334067,131.189352 818.970306,131.05197 848.507634,149.522437 C856.128225,154.288234 863.959792,160.373728 869.830409,167.19148 L870.833412,168.364109 C876.015325,174.469184 881.931069,182.250705 883.222755,190.085256 L883.296013,190.553002 C884.411076,198.066939 883.34964,210.586276 873.594331,210.675172 C863.881313,210.7639 853.901264,204.964986 845.543788,200.670363 L845.766458,201.19539 C849.538872,209.957182 859.773124,227.7241 850.545024,235.867708 C840.82691,244.443695 822.934777,225.835363 816.516847,219.861034 C817.784737,229.005083 826.841387,262.235121 809.703465,262.750149 C792.976283,263.251919 783.271419,242.632427 777.312131,230.39107 C774.166866,223.928229 771.818619,216.335385 766.711386,211.075976 C761.676316,205.891697 754.733912,205.958649 747.913539,205.326101 L747.504479,205.287261 C730.609128,203.64427 713.805505,203.558602 696.81231,203.151678 C675.30404,202.63767 654.181029,206.181677 632.64524,204.179695 C632.916349,208.332558 631.33964,215.890727 627.132364,217.480685 C620.933563,219.824319 613.331317,216.455728 606.985751,216.455728 C607.411778,218.995175 611.026896,221.670263 612.549587,223.586576 C615.051564,226.736153 617.234098,230.094829 619.27147,233.554984 L622.641694,239.341771 C626.025664,245.167396 629.338498,251.08009 631.721841,257.366318 C633.253705,261.406996 634.562364,265.574136 635.666162,269.751475 C636.300107,272.153241 636.288896,275.743142 637.575132,277.866487 C639.172225,280.50588 641.62545,278.982212 643.64959,281.051504 C646.566553,284.036629 643.52219,285.60721 642.602867,288.238444 C641.606085,291.084868 642.857668,295.906758 642.477505,299.035683 C641.908789,303.734169 641.30542,308.465291 640.525729,313.133182 C639.100881,321.665315 636.076902,329.556978 634.053781,337.886159 C632.1336,345.787 637.330523,354.141678 639.044825,361.784495 C640.855302,369.849719 641.975079,378.000071 643.699794,386.067747 L644.236652,388.485402 C646.395327,397.833422 647.397205,407.460883 648.886262,416.930266 C650.339648,426.182419 652.433094,435.321368 653.853864,444.57964 C656.380404,461.04695 658.047515,477.795885 659.992933,494.358788 L660.414483,497.904963 C661.53357,507.190772 662.393778,516.597944 662.476334,525.956162 C662.553793,534.718783 663.790088,543.276413 663.970487,552.022717 C664.162098,561.293227 664.271153,570.570877 664.6717,579.834249 C665.067151,588.996654 663.930738,598.120305 663.514903,607.269453 C663.317177,611.630366 663.170412,615.998419 663.235641,620.363412 C663.28864,624.048159 664.29969,628.360119 663.385464,631.966338 C661.580453,639.095146 651.547405,643.377531 645.249741,645.451922 C637.550671,647.98831 629.423535,649.740426 621.541009,651.613905 C617.701666,652.526678 613.812382,653.30381 609.90781,653.87697 C608.390214,654.100319 606.630048,654.009552 605.212335,654.655122 L604.213213,655.097945 C603.224112,655.547988 603.475407,655.623376 603.384902,657.566817 C603.201445,661.492251 604.351107,665.790953 604.94938,669.637858 C605.499751,673.179826 604.798538,679.004236 606.167329,682.179054 C607.725693,685.790372 618.704563,688.747961 621.391185,686.298261 C623.285886,684.570622 623.828103,681.305036 626.060161,679.850718 C629.274731,677.75389 630.751559,680.691081 630.736271,683.845502 C630.72404,686.222792 628.926164,689.090633 631.087896,690.827451 C632.961194,692.332762 636.91163,691.544412 638.721737,690.305284 C641.737563,688.239051 647.995478,675.45309 649.526323,686.328857 C649.887121,688.890741 648.782303,691.874846 650.954228,693.819715 C652.921734,695.581452 657.574027,695.563937 660.201095,695.854685 L660.465443,695.885948 C664.563664,696.405056 668.151264,696.578431 672.288214,696.489704 C676.906229,696.390778 681.268424,697.474887 685.80796,697.678858 C692.292733,697.969603 698.797204,698.798521 705.407727,699.042275 L707.213291,699.093402 C714.597427,699.237202 722.645065,701.165753 728.324072,706.176317 C734.844941,711.928317 733.502649,719.039788 732.25922,726.744816 C731.437741,731.840027 737.938227,737.344202 731.376589,741.799962 C728.926492,743.463526 724.967424,743.252045 721.990869,743.236362 L721.346598,743.236942 C716.175155,743.284875 711.059768,742.682139 705.88221,742.970759 C668.166552,745.070647 630.306166,743.505165 592.598661,742.260938 C583.789678,741.971298 574.64028,742.375162 565.905698,741.31043 C562.014376,740.836196 558.152611,740.15901 554.253135,739.741888 C550.917279,739.385958 546.934228,739.973396 543.748195,738.889287 C535.858534,736.20604 544.300604,728.042075 544.929453,723.379284 C546.098347,714.721575 545.675457,705.570255 545.688208,696.808931 L545.692837,695.616705 C545.755009,685.920914 545.692837,676.224102 545.692837,666.528311 L545.240729,666.567309 C540.70945,667.02296 529.61449,669.805426 526.437009,666.326379 C523.71879,663.349413 528.344959,657.133378 528.572242,653.558775 C529.49666,638.989081 529.184784,624.40409 530.283486,609.821138 C531.41786,594.78231 531.278229,579.877083 531.750121,564.836214 C532.253608,548.769369 533.394098,532.760656 533.394098,516.670353 C521.65694,529.096305 510.446711,542.742007 497.395799,553.818687 C491.805463,558.563067 485.716736,562.667996 479.878733,567.092141 C473.300788,572.076188 467.176388,577.621156 460.637173,582.652117 C448.47093,592.013395 434.003324,597.485953 421.150137,605.807996 C408.15732,614.221826 394.293083,621.150742 379.335239,625.314823 C362.984143,629.86747 345.644419,631.380939 328.724607,630.507941 C320.606644,630.089799 312.529449,629.046484 304.53481,627.588087 C301.202011,626.979231 297.902847,626.185782 294.569029,625.589165 C289.85317,624.743702 287.554864,625.533073 283.139671,626.396892 C277.426258,627.514796 275.938911,619.311586 274.251757,615.171793 L274.17373,614.98366 C271.001966,607.468325 269.629098,599.257447 266.822209,591.571796 C261.91372,578.131085 257.390491,564.842334 253.047661,551.174195 L252.923373,550.766458 C252.000723,547.623991 251.248375,542.6755 247.70805,542.257575 C245.212018,541.962836 240.913014,544.747049 238.465904,545.516022 C234.461031,546.773447 230.652973,547.379518 226.524253,547.538298 L225.746233,547.562877 C222.010849,547.654664 221.564438,549.054929 219.229441,551.71268 C217.089111,554.149121 213.224288,555.546327 213.950981,559.084214 C214.381085,561.179003 216.606009,562.796498 217.021844,565.162569 C218.513959,573.655948 209.988314,566.312969 206.991853,564.457847 C205.17665,568.46079 218.890046,572.906352 213.892886,578.574724 C211.445777,581.349758 206.34364,577.133664 203.90876,576.055674 C198.392011,573.613551 197.419748,579.995793 195.982168,584.42376 L195.853988,584.809117 C193.25215,592.43415 191.456519,600.412349 189.489569,608.23699 L189.093605,609.799721 C187.045004,617.818866 185.378605,626.013426 182.145689,633.668481 C179.367301,640.247659 174.602526,644.623908 171.052606,650.453174 L170.358945,651.618124 C168.671427,654.381052 166.734591,656.330807 163.140585,656.46639 C160.561998,656.564297 155.792121,655.549538 153.356222,654.566395 C151.055878,653.637304 148.561885,650.809237 146.953581,649.034684 C144.720504,646.570707 145.161819,644.188318 143.353751,641.172597 C143.432229,642.687087 143.769586,644.095511 143.851122,645.575325 C140.550939,642.976727 143.84093,638.891175 143.241638,635.597033 C143.053085,634.553718 141.977825,633.6797 141.916672,632.585392 C141.890173,632.136654 142.848225,631.105578 142.912435,630.480405 L142.93984,630.142897 C142.999689,629.228561 143.022764,627.522561 142.839052,627.042463 L142.782376,626.918783 C142.492306,626.341507 141.419464,624.667784 141.444781,625.002746 C141.425416,624.736563 140.976966,624.317402 141.217498,623.439304 C141.581354,622.113488 143.691107,621.877901 143.522939,620.101308 C141.226671,621.100769 141.308207,613.792466 141.20221,612.82258 L141.148317,612.303444 C140.952095,610.294791 140.801833,607.208006 141.711812,605.63462 C142.440543,604.376115 142.654576,605.015566 143.045951,604.684112 C146.251349,601.96517 142.38041,600.802532 141.659833,598.635334 C141.437646,597.969366 141.417262,596.133622 141.748504,595.577799 C142.659295,594.042799 142.936865,595.091485 143.960019,594.574772 L144.081463,594.507968 C144.835674,594.06025 146.3655,595.165776 145.923165,593.12504 C145.55829,591.440234 144.270015,592.47437 143.624859,591.947104 C141.171634,589.942063 141.421339,587.310829 141.814752,584.106434 L142.077637,581.972036 C142.382382,579.578717 142.754302,577.139626 143.443441,574.922612 C143.903102,573.443817 144.529912,574.110805 144.479971,572.363788 C144.453472,571.452034 143.068373,570.5515 143.022509,569.405179 C142.967472,567.980437 144.288361,565.693915 144.362763,564.191664 C144.460607,562.220278 144.478952,560.506917 144.258804,558.642616 C144.124269,557.500375 143.821565,557.085292 143.758375,555.695226 C143.70028,554.385728 143.986677,552.851861 144.014195,551.487291 C144.091655,547.61285 144.608391,543.719031 145.28922,540.013887 C145.688748,539.432568 146.002663,538.808414 146.234022,538.139388 C146.075026,537.444864 145.809014,536.794195 145.437004,536.186359 C145.334065,534.414866 145.367698,532.685186 145.389102,530.888196 C145.425237,527.85829 144.902916,524.968299 144.661393,521.999079 L144.598199,521.105717 C144.541124,520.129712 144.156884,518.502019 144.834655,517.600464 C145.351391,516.91308 147.158441,517.082376 147.357185,516.421508 C147.92794,514.529671 146.218734,515.658654 145.848763,514.701007 C145.585129,514.018382 145.67502,513.143974 145.663891,512.415865 L145.654095,512.150342 C145.516502,510.061673 148.522136,495.871366 151.125184,497.71629 C150.087634,496.980972 152.122985,492.094831 152.78343,491.267727 C155.237674,488.192854 156.70329,491.67567 158.693796,493.837769 C161.479281,496.864708 163.903969,494.917799 167.522144,494.234494 C171.752692,493.436965 176.3787,493.658287 180.704704,493.767818 L181.46486,493.785756 C186.119567,493.886722 190.840522,494.148826 195.476882,494.558809 C200.468945,495.000407 205.304051,496.508778 210.346055,496.433308 C216.98855,496.333589 223.708353,496.460303 230.363733,496.302028 L233.159976,496.220091 C234.790697,496.185738 238.00567,496.211553 238.593305,494.430307 C238.828741,493.716406 237.480334,492.217214 237.277512,491.429884 C236.886137,489.918454 236.858619,487.93381 237.525179,486.453996 C239.538107,481.989057 243.727037,485.63403 246.677634,487.256624 C251.123404,489.700205 255.731227,491.780715 260.641753,493.102451 C280.226785,498.371039 303.332148,498.077319 323.330977,495.589885 C343.638624,493.063697 363.714912,486.948627 383.514996,481.940104 C401.593644,477.36706 418.280058,467.22661 432.156526,454.819016 C446.303083,442.171755 457.466428,424.630195 464.454094,407.020304 C472.238777,387.402312 466.576077,367.650719 466.377332,347.58501 C466.279489,337.578162 464.053546,327.812 463.444062,317.836768 C462.852923,308.162393 463.680517,299.083616 466.582192,289.614233 C467.322135,287.202268 468.361723,284.779085 468.900882,282.311029 C469.400292,280.025527 468.516642,278.191822 468.810173,276.036861 C469.440041,271.423023 474.539121,271.891138 476.76914,268.461355 C478.735051,265.43761 476.814633,260.775957 476.051728,257.458888 L475.992506,257.192942 C474.750096,251.410346 473.204982,245.698121 471.783192,239.958359 C470.314519,243.375904 468.943689,246.78529 468.056981,250.406806 C467.828679,251.334877 467.808295,252.972769 467.173331,253.796814 C466.714689,254.393431 465.555853,254.315922 465.193017,254.865626 C463.968952,256.719728 464.109602,258.578929 463.897608,260.963358 C463.530694,265.074519 462.898838,269.14539 462.228954,273.213217 L461.976408,274.738582 C459.421262,290.113963 457.474582,305.267016 451.434777,319.780617 C440.303026,346.527417 425.266704,371.415016 403.030722,390.387437 C393.177779,398.793788 380.706596,404.091728 368.755554,408.557898 L367.941553,408.861148 C353.39343,414.264356 339.554672,417.192369 323.936384,415.790064 C309.19767,414.467308 294.467109,409.890185 280.965708,403.95563 L274.682108,401.198748 C263.724201,396.364545 253.376587,391.466238 243.828958,383.546229 C231.696349,373.482268 219.580047,361.334738 211.234801,347.866491 L210.735868,347.048765 C207.639819,341.898199 202.843262,332.496746 204.10139,326.668739 C205.80448,318.780136 217.921801,323.982433 222.298265,325.616246 L222.034773,325.193201 C218.170495,319.097113 208.871805,308.683084 213.659489,301.338522 C220.813284,290.367908 239.536069,301.478243 247.202524,305.544417 C243.252088,297.506915 237.213302,290.754434 232.932644,282.911725 L232.732238,282.530568 C230.474037,278.091416 225.209592,263.198713 233.562512,262.368722 C236.169637,262.109678 238.937796,265.086644 240.779498,266.578697 C244.354867,269.477134 247.901698,272.408206 251.447511,275.342338 C259.197541,281.755206 267.377675,287.209407 276.303867,291.852822 C294.166443,301.145769 311.446035,306.080863 331.734317,304.104378 C349.021043,302.421612 368.083222,297.167302 381.525509,285.770388 C389.597608,278.927139 396.015538,271.356732 400.161661,261.52224 C404.740947,250.66177 407.659948,238.73249 410.863308,227.401866 L410.387507,227.284117 C405.756367,226.18255 402.557123,226.657305 403.333326,221.238053 L403.376232,220.957382 C404.467443,214.23055 404.293886,207.428244 404.309629,200.602928 L404.326741,197.580979 L404.343779,195.635492 C404.482564,182.013238 405.081937,168.321527 409.336539,155.268318 L409.994268,153.223901 C410.605562,151.348912 411.277988,149.49089 412.325866,147.811115 C414.08807,144.986108 415.723893,144.565927 413.455144,141.485955 C409.088873,135.5565 404.552394,130.487805 401.313362,123.674132 L400.062639,121.031058 C398.814847,118.40427 397.546128,115.830403 395.989039,113.346029 C392.583877,107.914264 388.131992,103.928658 383.762663,99.2230329 C378.908949,93.9970823 375.072742,89.0576684 372.493286,82.4572663 L372.239538,81.7916173 C371.034838,78.5535677 369.3929,75.3318357 368.770166,71.9112315 C368.065284,68.0367394 368.725433,64.0775684 369.094685,60.1928596 L369.234048,58.671541 C370.524004,45.5554418 375.160005,35.0009949 388.169703,29.8308641 C398.98448,25.532162 411.417755,23.6811194 422.756404,27.0048372 Z M598.788919,691.396758 L598.506989,691.536253 C593.698383,693.951277 588.446423,695.001731 583.086427,695.57897 C576.756148,696.262275 570.849859,695.548375 564.655135,694.281711 L564.2847,694.201046 C561.281642,693.512283 555.979376,691.573509 554.152233,694.510159 C552.00477,697.961359 554.213386,706.412924 554.291864,710.406688 C554.350978,713.382634 554.531378,716.445268 554.248039,719.415095 C554.101273,720.948962 552.975052,723.857597 554.06662,725.230327 C555.375852,726.875326 559.969703,726.417548 561.977179,726.500449 L562.16318,726.510249 C565.758933,726.745836 569.360801,726.746856 572.957574,726.941649 C580.631164,727.357751 588.205891,728.425542 595.902922,728.561183 C602.229124,728.672348 608.783627,728.979325 614.863181,729.411745 C617.859642,729.624895 621.226074,728.326616 624.13998,728.935471 C626.887223,729.51005 628.010043,730.302043 630.823859,730.152047 L631.218354,730.125646 C638.963288,729.505572 646.886583,730.285763 654.644767,730.476477 C661.822004,730.652912 669.060394,730.109328 676.248843,730.014481 C684.336229,729.907396 692.440943,730.203155 700.52731,730.285763 C709.179336,730.374491 718.011762,729.860483 726.554733,731.504494 C725.76383,727.869719 725.817848,723.586315 722.88152,720.868393 C719.873848,718.08418 714.8879,717.450849 711.016962,716.997012 C705.381781,716.335124 699.792464,716.184185 694.168494,715.944518 C690.655297,715.795619 687.273576,714.604424 683.780763,714.20668 C678.771373,713.635559 673.379782,713.965993 668.331663,713.884405 C666.600035,713.856868 665.449353,713.216397 663.861432,712.973671 C661.996288,712.689131 660.173951,713.166424 658.140638,712.669753 C653.925209,711.640717 649.625185,710.562727 645.534099,709.187958 L645.119466,709.041677 C643.041718,708.27407 643.019542,707.751338 641.092406,709.584683 C639.810247,710.805453 639.022402,713.116451 637.940007,714.552412 L637.731693,714.822506 C635.911422,717.129608 632.847985,719.653107 630.195073,716.906244 C627.273014,713.881345 630.40401,710.488277 629.754777,707.349153 C629.253328,704.924951 624.648563,702.796507 622.349238,703.711319 C619.166262,704.975944 618.223498,711.549949 614.816298,712.294446 C610.67106,713.198993 611.617336,707.161665 612.210422,704.580541 L612.484646,703.412537 C613.566488,698.6591 613.140607,697.767377 609.809289,694.943718 L606.923472,692.53111 C604.107567,690.197217 602.767791,689.459727 598.788919,691.396758 L598.788919,691.396758 Z M598.414242,419.585976 C587.541369,441.527205 575.656427,463.038053 560.995172,482.720295 L560.674016,483.142012 C557.742767,486.913338 553.79937,490.062436 556.187585,494.941256 C558.764133,500.202704 562.161142,504.807363 563.151808,510.745997 C563.883597,515.131388 563.499357,521.229119 560.122733,524.562016 C556.850067,527.790887 552.04248,527.058629 548.000316,528.321213 C543.789982,529.637536 544.873707,533.323979 544.88137,537.058888 L544.802501,545.273695 C544.768622,549.270772 544.749054,553.267555 544.773515,557.265807 C544.809187,563.188124 544.890723,569.10942 544.962067,575.030717 C545.03545,581.292646 546.561199,585.731068 548.270405,591.627888 C549.16017,594.697661 549.465932,597.87248 548.482399,600.95857 C547.63646,603.610202 546.247284,604.118091 544.616557,605.99463 C541.515569,609.561809 542.411914,616.266831 542.092482,620.903694 L542.067527,621.231311 C541.788265,624.559108 537.138655,653.66484 540.839386,654.029949 C546.21467,654.561295 553.257372,651.460927 558.181148,649.757763 C564.999626,647.400871 572.090231,645.719125 579.124779,644.148544 C593.255029,640.995142 607.860228,640.555583 622.030227,637.529664 C613.025556,625.812514 602.137395,615.716938 592.985959,604.12421 L592.030346,602.911534 C588.818956,598.807804 584.931092,593.362233 586.328516,588.130795 C587.837958,582.477721 593.67698,583.727047 598.012675,585.030426 C603.344558,586.632793 608.511153,588.81104 613.715002,590.795327 L615.135309,591.33111 C617.82397,592.33261 629.834275,598.100928 632.055121,594.361108 C633.529186,591.876668 625.30012,582.734383 623.851025,580.891862 L623.785297,580.807193 C619.140782,574.734958 614.100816,568.980918 609.022121,563.271752 C599.545559,552.619334 588.789895,541.72011 581.459777,529.428779 L581.134655,528.869683 C575.899349,519.638683 574.423312,505.68281 588.96214,506.252502 C594.795872,506.481728 600.734991,508.21507 606.449337,509.458846 L607.304762,509.641491 C612.825792,510.794951 620.985542,513.345616 626.618685,511.920874 C632.337035,510.474887 626.205452,502.196724 624.082788,498.984729 L623.861737,498.64538 C620.198207,492.913122 615.941484,487.530852 611.872511,482.071511 L610.937206,480.810101 C606.261096,474.468623 601.275148,468.263806 596.903781,461.710197 L596.298113,460.791601 C593.588481,456.625414 589.948948,450.14894 592.243978,445.360851 C594.999383,439.612698 604.271918,442.90064 609.172128,443.915941 L609.592875,443.999341 C618.629142,445.700464 627.493162,448.53159 636.775057,448.53159 C636.684571,443.986505 632.138447,439.977256 629.367049,436.715031 L629.162619,436.471768 C625.039937,431.509138 620.79597,426.703566 616.288029,422.085649 C613.118303,418.8374 609.651989,413.547396 605.943105,411.043644 C602.148607,408.48482 599.906357,416.577395 598.414242,419.585976 Z M162.797113,507.592596 C160.800708,511.106347 161.360276,517.753103 161.395093,521.685495 L161.396726,522.046026 C161.393668,530.200812 161.368188,538.182222 160.59665,546.363524 C158.910886,564.230419 157.646054,582.087115 156.021442,599.95503 C155.232578,608.627904 153.600832,617.199812 152.78241,625.871666 L152.657564,627.214687 C152.189414,632.464808 151.95291,639.219059 157.426925,641.747797 C162.593272,644.134266 168.348719,637.722417 171.098533,634.150874 C175.682914,628.196942 177.722342,621.334317 179.529391,614.164714 C181.52907,606.233277 183.838587,598.393627 185.696597,590.425475 L186.682453,586.159629 C187.177909,584.02713 187.685472,581.897422 188.24257,579.780196 C189.012069,576.860342 191.878072,571.658046 190.671334,568.626007 C188.631906,563.49918 178.613126,562.087697 179.295993,555.211813 C179.922804,548.892772 190.947538,555.641173 193.594412,556.981267 L194.025664,557.195658 C199.278853,559.753998 196.645191,556.397539 193.901066,554.194135 L192.001539,552.736858 C188.483353,549.994495 181.92378,544.301069 186.455904,541.183664 C189.953814,538.776799 197.562174,546.10448 200.460792,547.454772 C203.42059,548.832997 204.550951,548.519426 206.878993,546.205717 L207.081543,546.002494 C208.837633,544.224881 211.447815,541.976094 212.804376,539.937397 C216.156539,534.897258 211.665925,525.018912 210.975923,519.245495 C210.822024,517.960474 211.789249,510.918353 210.891329,510.08411 C209.711091,508.988782 204.657875,509.759795 202.800885,509.481373 C197.092758,508.622944 191.450526,507.945842 185.754808,507.24519 L182.901939,506.891953 C178.495918,506.34123 165.390988,503.023631 162.797113,507.592596 Z M596.13632,449.32402 C605.543576,466.975725 621.586873,480.3838 630.713848,498.269053 L630.936015,498.710989 C634.000534,504.90135 636.621612,514.215783 629.027065,518.246034 C620.489066,522.775904 607.526302,517.191332 598.615694,515.606525 L597.93431,515.487765 C594.42396,514.829455 582.671335,511.525142 582.111048,516.223656 C581.807256,518.765188 586.620645,524.630104 588.017278,526.648761 L588.109066,526.783267 C590.983222,531.065651 594.293598,535.037999 597.403191,539.147007 C603.614222,547.353806 611.002435,554.495873 617.443807,562.529295 C623.061661,569.535721 629.95556,576.401406 634.483885,584.173745 C638.733967,591.46879 639.552388,604.614762 627.602217,603.177782 C615.368707,601.707146 604.728213,592.162294 592.258247,591.881833 C598.631332,600.282405 605.905394,607.930321 612.979692,615.730196 C616.383834,619.483274 619.724786,623.287345 622.951587,627.195441 C625.017515,629.696134 627.85396,635.426717 631.725918,635.090163 C636.176784,634.703637 640.53694,633.523661 644.974556,632.986196 C646.592033,632.791403 650.064463,632.849535 651.401659,631.705254 L651.689034,631.452443 C652.940389,630.313708 652.249538,630.311338 651.93776,628.407033 C650.422018,619.168509 649.800571,610.20876 649.951089,600.858979 L649.97783,599.52057 C650.153133,592.160254 651.589192,580.709287 647.203556,574.307637 C642.03619,566.764766 634.182201,561.183083 628.940432,553.615735 L628.765555,553.356702 C625.948941,549.079297 622.332639,538.542127 631.124587,538.830851 C634.69588,538.947115 638.510762,541.2112 641.977076,542.049524 L642.468365,542.163809 C646.903318,543.150615 647.1682,541.892079 646.748991,537.597843 C645.730805,527.160614 646.033509,516.678512 644.968441,506.237205 C643.873815,495.503197 642.699692,484.762051 641.494992,474.038243 C640.90793,468.827788 640.640899,463.310355 639.629848,458.177409 C638.646316,453.187243 633.801018,455.872529 629.561128,455.669578 C618.333572,455.131092 607.419932,448.24603 596.13632,449.32402 Z M423.729744,474.525735 C421.759622,474.823534 419.786442,477.016229 418.197502,478.151331 C415.4589,480.106399 412.619397,481.916647 409.705491,483.598393 C398.807139,489.884059 386.857958,493.307545 374.75172,496.322646 L371.804338,497.049302 C368.832338,497.775441 354.636859,499.237918 353.242587,502.16899 C352.546471,503.633507 354.149679,507.091846 354.191467,508.675685 C354.253638,511.061134 353.727729,513.536329 352.418051,515.556668 C348.872256,521.02138 341.404618,521.124218 335.447054,520.972595 L331.833934,520.867678 C324.801669,520.652767 317.652174,520.427613 310.68265,521.282152 C318.386816,528.41198 326.381456,535.216474 334.423998,541.956717 C340.091793,546.706196 346.407803,551.20581 350.861726,557.185239 C354.67457,562.302887 357.512035,571.013495 352.642276,576.527868 C347.509038,582.33936 336.035218,579.892125 329.374095,578.856072 L329.070117,578.809291 C321.362893,577.636454 313.723956,576.200494 306.084,574.670707 L304.521478,574.35451 C302.426973,573.931554 300.292677,573.526222 298.175993,573.415261 L296.989698,573.354155 C294.756123,573.258466 294.152414,573.472673 296.043818,576.006721 C301.28096,583.021188 309.056691,588.140393 314.745527,594.856753 L315.417874,595.670606 C318.118766,599.025939 321.268107,601.697968 324.107611,604.91766 C327.646288,608.929782 330.422601,613.553819 333.584173,617.852521 C336.486534,621.798748 341.666725,620.826249 346.006229,620.546199 L346.276325,620.529649 C352.725851,620.15638 359.15805,619.37211 365.489347,618.079949 C371.481314,616.856119 377.491196,615.24327 383.243539,613.11703 L384.390493,612.6849 C385.672652,612.192308 389.663856,611.067405 390.133709,609.524359 C390.559737,608.127153 388.097339,605.262372 387.561238,604.1956 C385.851013,600.789274 385.003035,594.719078 388.865819,592.288756 C391.887063,590.388277 396.273103,592.092367 399.462274,593.082596 L399.982281,593.240284 C404.747062,594.644629 410.431165,597.480854 415.269328,595.323854 C421.443668,592.570237 427.557875,588.612168 433.363264,585.14567 C422.87667,575.617135 412.577609,565.900946 401.825003,556.667151 L397.675016,553.10997 C388.824998,545.498798 379.264894,536.872444 373.95384,526.818962 C371.63515,522.430512 370.133862,516.210397 372.977442,511.639393 C375.526472,507.540583 380.667339,507.396783 385.000996,507.772091 C397.337191,508.841327 409.498347,511.822247 421.636063,514.16832 L423.663908,514.557344 C429.102364,515.643866 454.909409,521.427431 454.980711,514.715285 C454.995877,513.222213 452.155354,509.822006 451.428661,508.635911 C449.781627,505.944505 448.098921,503.281656 446.318371,500.674898 C442.170209,494.600623 437.661249,488.787431 433.18898,482.951803 L432.925784,482.598479 C430.708542,479.545557 427.883002,473.897149 423.729744,474.525735 Z M255.109512,503.010373 C254.467413,505.718097 256.834006,507.526305 257.743136,509.799569 C262.634298,522.032768 266.680539,534.636175 270.912276,547.104961 C272.869148,552.870219 274.674159,558.691569 276.65957,564.445609 C278.561405,569.957942 281.621057,574.922612 283.189612,580.560388 C286.15142,591.205667 288.643375,601.778536 292.151476,612.243301 C292.657002,613.750651 292.360413,617.086607 293.266486,618.152359 C294.380476,619.461857 299.312406,619.266044 301.059323,619.486334 C308.203945,620.385849 315.420932,621.078332 322.629764,620.777474 C316.239675,612.720487 309.113217,605.289586 301.786816,598.063333 L300.563989,596.86078 C293.77303,590.202127 284.60121,582.639878 283.495373,572.49229 C282.054076,559.279415 295.536232,561.617614 304.31428,562.485293 L304.845667,562.536434 C317.055736,563.676636 330.895512,568.626007 343.115773,565.882589 C334.838675,554.688881 322.38957,546.27797 311.904218,537.199252 L311.175945,536.564727 C307.028803,532.927912 302.666608,528.931088 300.548701,523.700236 C299.470383,521.033307 298.934281,517.958434 299.66607,515.127308 C300.554816,511.690386 302.527996,511.065213 305.388903,509.440579 L303.467732,509.437747 C287.131872,509.387501 270.659206,508.615976 255.109512,503.010373 Z M478.638361,278.942784 C473.727903,278.960495 474.838432,283.609769 474.677059,287.729096 L474.667541,287.941666 C474.616581,288.941127 473.271231,297.802674 474.786788,297.942395 L475.284159,292.022118 C479.54953,293.773214 482.715179,297.54159 486.022497,300.604224 C489.322681,303.659719 493.804122,306.771307 495.197375,311.264802 C499.127427,323.949797 483.441871,319.450183 476.869022,318.162102 C478.347888,332.570658 482.032312,346.575351 484.063586,360.886 C484.914622,366.882766 484.568092,372.310451 483.903571,378.273562 C483.525446,381.672749 483.570291,385.103552 483.155475,388.5007 C482.827291,391.195165 481.57265,394.276156 482.074099,396.9849 C482.990364,401.94243 489.249298,407.146766 492.029688,411.341443 C495.720227,416.906809 498.976585,422.93723 500.682733,429.433727 C503.765826,441.161075 498.513866,449.592243 486.245703,450.721226 C480.711423,451.230135 474.588043,450.375494 469.105742,449.593263 C464.39396,448.921176 458.375559,445.427142 454.077574,448.587683 C452.317408,449.880863 451.105574,452.172484 449.562498,453.753264 C447.821697,455.535636 445.913809,457.168706 443.989412,458.76236 L442.339397,460.121258 C440.009495,462.036552 433.639468,465.440839 434.267298,468.37599 C434.740209,470.589083 438.579552,473.749623 439.881076,475.387515 C441.587224,477.534317 443.280122,479.691317 444.927157,481.885031 C449.108952,487.456517 453.09608,493.209536 456.704063,499.169588 L457.140997,499.901007 C461.458771,507.225763 466.955378,519.514346 459.814675,526.742473 C455.538094,531.070751 448.436277,530.307897 442.982515,529.455295 C435.548438,528.293677 428.163283,526.799585 420.861703,524.998515 C413.55095,523.196426 406.180063,521.939961 398.782678,520.567231 C392.463611,519.396434 385.115147,517.157846 378.798118,519.474963 C397.254891,540.963375 419.809884,557.849166 439.603852,577.984226 C443.327006,581.770959 447.529185,576.387128 450.54705,573.920091 C455.071298,570.220046 459.487511,566.390478 464.079026,562.772022 C472.292738,556.300285 480.823727,550.270657 488.633948,543.30592 L490.004528,542.066861 C492.582096,539.70385 496.816891,537.058338 497.600659,533.437841 C498.59846,528.819924 496.200272,524.690518 498.651458,520.047104 C503.296992,511.250827 512.902993,518.446946 519.168043,513.38437 C522.385671,510.783732 524.653401,507.010257 527.190201,503.790565 C530.209084,499.958958 534.063715,496.240555 535.801458,491.624677 L536.023587,491.025243 C537.623214,486.626485 537.703793,484.354802 534.481589,480.469468 C530.85526,476.098356 526.456373,472.105612 523.546545,467.186836 L523.303326,466.76412 C521.417224,463.393988 520.035511,458.681968 523.056308,455.535976 C525.531487,452.957995 529.768494,453.564153 533.027972,453.785738 L533.297273,453.803237 C538.090591,454.100016 542.860468,454.547734 547.57225,455.499261 L548.140631,455.617328 C551.981859,456.433285 558.58279,458.118506 561.982781,456.174407 C570.415678,451.353538 555.255013,438.936765 551.896734,435.253037 C546.439729,429.265914 540.79027,423.460577 535.113025,417.68285 L525.390226,407.793516 C519.278575,401.566929 513.180452,395.291307 507.447192,388.725068 L506.986703,388.193454 C502.054955,382.454484 496.577779,374.548731 499.19979,366.64106 C501.392099,360.031359 508.771139,359.822288 514.642775,360.281224 C522.526151,360.899173 530.374414,362.134137 538.222107,363.122794 L540.998123,363.464196 C547.530975,364.294358 559.203739,366.380535 564.472697,361.471399 C569.92668,356.391454 558.811687,341.607589 555.29275,336.451794 L554.979827,335.988203 C548.416151,326.128214 540.852635,316.977027 533.018011,308.11242 C529.213321,303.806579 525.335249,299.567029 521.454118,295.329518 C518.085648,291.64885 514.996439,287.011555 511.12652,283.851014 C506.892745,280.394715 500.57062,280.800619 495.38287,280.280491 C489.92605,279.731807 484.123719,278.92408 478.638361,278.942784 Z M144.445319,574.93587 L145.44312,577.59668 L145.44312,577.59668 L145.879469,576.787439 C146.80148,575.037416 146.550825,575.026613 144.445319,574.93587 Z M636.711866,549.294596 L638.276235,551.129909 C641.276777,554.626843 647.460704,561.658244 648.275759,560.923019 C648.533618,560.293766 648.582539,559.637997 648.421505,558.956732 C648.151416,555.462698 648.997356,553.51069 645.825591,551.596416 C643.781067,550.363407 638.952077,548.446074 636.711866,549.294596 Z M548.861543,499.166528 C545.748337,501.230474 544.609374,503.937898 544.368491,507.485946 L544.348506,507.821044 C544.21601,510.393127 543.162153,515.218075 544.226202,517.55661 C545.475747,520.303088 554.472264,518.289888 555.919534,516.400091 C559.083144,512.267626 550.988623,502.647304 548.861543,499.166528 Z M328.151923,506.376938 L327.88632,506.423412 C326.245719,506.675704 315.316615,508.042479 315.418893,509.027536 L318.998311,509.308664 C327.863305,509.96765 348.291292,511.065743 347.328144,505.708918 C346.416616,500.64543 331.769062,505.668461 328.151923,506.376938 L328.151923,506.376938 Z M530.795126,464.128281 C532.695943,467.527468 536.37629,470.499335 538.997683,473.332501 C540.646756,475.115213 544.594135,481.731033 547.2777,478.59191 C549.650408,475.816875 552.08121,472.734864 554.18179,469.735461 C556.11624,466.971646 555.958264,465.767193 552.69681,464.906433 C550.665535,464.371007 548.411055,464.894195 546.340032,464.652488 C544.183395,464.400583 542.031855,463.70708 539.920063,463.230806 C537.548375,462.69742 534.887232,461.884593 532.439103,461.890712 L531.051646,461.888297 C529.63919,461.909529 529.692533,462.154508 530.795126,464.128281 Z M517.392589,281.912264 L520.240568,284.985429 C532.110984,297.773457 543.996026,310.389066 554.646468,324.254323 L558.696072,329.580143 C566.778285,340.273666 578.620487,357.232797 569.378128,368.817437 C562.935737,376.890634 550.912183,375.258861 541.918723,374.111521 C536.698067,373.444534 531.519344,372.580485 526.322222,371.783336 L523.721848,371.391559 C517.729945,370.507342 510.461999,368.87251 504.649476,371.340566 C514.074059,384.590563 526.205649,395.5469 537.660487,406.97339 C543.532124,412.832475 549.205015,418.885334 554.850388,424.961649 C560.387726,430.922719 564.803939,438.424796 570.677613,443.948348 C575.662542,434.841014 580.380439,425.59702 585.187007,416.39586 C587.205032,412.530597 589.802984,409.050841 591.875026,405.230453 L592.167861,404.68236 C594.135905,400.934863 594.369069,399.00608 591.785137,395.522067 L589.90446,393.050789 C585.845206,387.670264 581.274154,380.947885 582.036646,374.274698 C583.041098,365.481621 593.369171,364.417962 600.296236,362.54347 L600.557629,362.47188 C604.038212,361.507094 608.033493,360.774836 611.215449,359.01762 C615.257613,356.783111 615.440051,353.095304 616.777247,349.09338 L617.660702,346.501536 C618.842988,342.988819 619.556535,340.138833 618.171519,336.00758 C616.748709,331.76803 614.620611,327.559075 612.654565,323.553073 C608.708577,315.513902 603.820931,308.08339 598.618346,300.820693 L597.873044,299.784258 C594.271176,294.794092 590.023132,284.837217 583.580741,283.504263 C579.009609,282.558854 573.241932,282.94742 568.552572,282.688376 C563.086579,282.386498 557.613452,282.216182 552.144401,281.979575 L549.788402,281.870819 C539.139744,281.353388 527.894225,280.520263 517.392589,281.912264 Z M477.077239,410.616728 L476.99948,410.78358 C474.802076,415.363763 472.770801,420.095905 470.276808,424.525149 C467.768546,428.97887 464.265541,432.974674 462.721446,437.925066 C467.221233,438.25346 471.916708,439.604772 476.377766,439.640467 L477.666789,439.658464 C481.40377,439.727296 485.798647,439.906435 489.258471,439.141756 C499.925464,436.782824 493.618627,427.128847 489.906685,420.828163 C487.852988,417.344328 485.257074,414.226622 483.116745,410.802958 L482.992415,410.58934 C482.39662,409.513274 481.08416,406.601215 480.020402,406.496097 C478.390004,406.334235 477.846792,408.917395 477.077239,410.616728 L477.077239,410.616728 Z M626.679837,363.732424 C622.943434,370.724572 620.431095,378.28784 616.697749,385.284067 C615.365989,387.77847 613.907536,390.20205 612.501694,392.654549 L611.665937,394.130317 C610.537678,396.154735 607.227302,400.50239 607.488218,402.916395 C607.931572,407.037641 616.123937,412.94466 618.776926,415.886951 C624.429434,422.158058 629.963714,428.539311 635.738526,434.700274 C635.007565,423.253641 632.884554,411.958493 631.752842,400.553485 L631.540423,398.270941 C630.958457,391.551095 629.605973,384.906719 629.31448,378.162397 L629.290282,377.449508 C629.174635,372.986295 629.609658,367.340447 626.679837,363.732424 Z M418.710162,246.553782 C416.926554,265.789327 410.464799,286.144675 396.287666,299.877066 C385.355515,310.466039 369.185547,317.149551 354.352173,319.942171 L353.62377,320.076376 C337.8791,322.913622 319.924796,325.015549 304.586789,319.528712 C288.860465,313.902155 274.155384,305.81264 260.841517,295.74664 L260.637539,295.580603 C258.063266,293.39666 240.819494,276.643408 239.389303,278.011307 C244.231657,285.264538 249.286609,292.358218 254.405984,299.413398 L257.096861,303.116945 C260.583876,307.964197 268.542861,319.731429 263.335511,324.207822 C259.661381,327.366832 253.45448,322.414791 250.331646,320.275484 L250.175543,320.169183 C242.790388,315.172898 234.563371,312.482512 225.587238,312.482512 C229.73438,320.097793 236.039179,326.841095 239.411726,334.884717 L239.575953,335.283361 C240.7874,338.281907 240.232905,338.391813 237.672693,337.683999 L234.529051,336.787094 C230.565157,335.665423 226.274385,334.558158 222.2789,334.377847 C220.092707,334.278921 215.654072,335.240647 215.2841,338.09625 C214.938125,340.769054 220.4795,345.758879 222.235813,347.805835 L222.347187,347.937881 C228.277937,355.111563 234.322838,361.918097 241.654995,367.701712 C255.730207,378.802868 272.438025,385.960233 289.44345,391.276753 C306.816808,396.707498 325.384674,398.343351 343.145329,393.972239 C351.94514,391.80606 360.017239,388.867849 367.898747,384.482458 C371.466981,382.497814 375.219692,381.5983 378.651353,379.264864 C381.503494,377.326318 384.386294,375.391035 387.288792,373.513321 L389.469188,372.116678 C396.963398,367.366179 401.608932,362.587124 406.838469,355.448117 C408.942107,352.577216 411.828494,350.448772 413.833269,347.621725 L415.735425,344.936697 C417.322755,342.685487 418.902209,340.397778 420.373504,338.056475 L421.667018,335.988027 C430.708603,321.46017 439.427437,305.914023 444.712105,289.645849 C447.566896,280.858751 449.505423,271.819748 451.900553,262.904148 C452.725089,259.836414 455.766395,253.935515 455.131431,250.819849 C454.518889,247.814327 449.764301,246.594576 447.409939,245.319753 C441.161289,241.93846 434.894109,238.901896 428.767672,235.40628 L426.934122,234.34302 C417.669554,228.8776 419.310474,240.083802 418.710162,246.553782 Z M609.696834,368.2249 L609.349315,368.298672 C604.471227,369.267519 587.877921,370.176556 586.879906,375.560739 C586.401899,378.139961 589.378995,381.252568 590.680519,383.117888 C592.273535,385.401351 594.503554,390.681156 597.01997,391.935582 C600.062295,393.454151 609.288133,370.74191 609.696834,368.2249 Z M594.334367,284.498624 C605.691361,298.55329 615.897674,313.768553 622.570405,330.643127 C625.102109,323.748885 626.768508,316.571124 628.31566,309.401521 C629.101467,305.754508 629.777199,302.093217 630.363242,298.40847 C630.628235,296.742022 632.711489,290.504569 631.701457,289.084927 C630.170497,286.934604 619.667316,287.891475 617.052732,287.730891 L613.004353,287.378001 C606.752528,286.82163 600.244024,286.138955 594.334367,284.498624 Z M474.59212,300.142229 C474.243552,302.173786 472.698438,305.556656 474.651233,307.230243 C476.606067,308.90587 481.552266,309.946125 484.052375,309.181231 C481.587939,305.507702 477.788345,303.097778 474.59212,300.142229 Z M453.897174,135.438196 C440.408004,136.380545 430.231249,141.147362 421.856446,151.670258 C413.645736,161.984084 412.373768,173.36978 412.151582,186.333197 C412.046604,192.493141 411.970164,198.688779 412.030297,204.849742 C412.08941,210.947474 412.881332,214.801518 416.614678,219.498985 C419.688598,223.364247 426.164623,225.316256 430.582874,227.103047 C436.594142,229.533369 442.22015,232.243132 447.827812,235.512797 C450.253519,236.927341 456.015081,242.251 459.007465,241.685999 C463.416543,240.852775 464.4969,233.026383 464.935158,229.553766 C466.577096,216.561793 466.401793,203.276101 465.605795,190.220897 C465.199132,183.535727 462.089539,173.491144 463.851744,166.726424 C464.582513,163.915695 466.252989,162.919294 468.315859,165.400609 C470.791896,168.380094 471.456163,175.254455 472.095099,179.041196 L472.153164,179.376745 C474.47593,192.415631 474.32203,205.523868 474.397452,218.708595 C474.428028,223.947606 477.352125,226.664508 479.269249,231.332399 C481.720435,237.300609 483.727249,243.528883 484.935006,249.870361 C485.637238,253.551029 486.132571,257.301047 486.079572,261.056165 C486.051035,263.118318 485.034888,266.398182 485.82681,268.357329 C487.33772,272.093917 496.58441,270.103301 499.935804,269.966928 L500.103825,269.961566 C514.360456,269.64439 528.576319,268.884596 542.854353,268.701022 C571.761028,268.329793 600.872563,272.624416 629.180965,278.077597 L626.25732,272.070633 C624.304751,268.06735 622.326815,264.076305 620.212985,260.15461 L616.774579,253.749094 C611.816513,244.538825 606.76917,235.560412 599.99197,227.453878 C592.778041,218.824858 586.234749,209.821551 578.747674,201.395483 C563.041734,183.717261 542.657646,170.652878 523.653561,156.917429 C519.354557,153.808901 513.852892,152.114917 509.134995,149.404134 C503.296992,146.05084 497.042135,143.252349 490.724087,140.934212 C479.263133,136.730356 466.103166,134.584575 453.897174,135.438196 Z M348.908085,215 C353.410622,217.669909 353.463354,224.700298 353.783805,229.239851 C354.188425,234.96412 354.152932,240.467835 352.545608,246.045406 C349.236649,257.528341 340.354279,265.699942 328.981317,269.063885 C318.837299,272.064696 307.289577,271.71621 297.699722,267.039824 L296.344559,266.361599 C294.484756,265.414866 291.774542,263.836223 293.612064,262.026414 C295.918093,259.75512 302.3768,263.60772 304.89173,264.101436 C317.09827,266.496159 332.57422,261.750217 341.220307,252.849171 C345.511915,248.433047 347.933549,242.85143 348.955747,236.838823 C349.537832,233.41013 349.836987,229.783141 349.627071,226.306897 C349.406001,222.624264 347.900085,218.665434 348.908085,215 Z M760.640309,148.458744 L759.174369,148.486261 C751.30815,148.595386 744.007589,149.559152 736.234117,150.709552 C720.097054,153.09704 703.925338,155.03885 687.857581,157.424298 C683.556538,158.062729 678.453382,159.327353 674.170685,159.161117 C672.406442,159.092786 671.490177,158.619572 669.73103,159.090746 C668.229742,159.49359 667.149386,160.298258 665.475852,160.568521 C655.954445,162.104427 646.263849,162.703084 636.616061,162.826487 C631.974604,162.884619 627.287283,162.796911 622.680479,162.189075 L622.137804,162.108732 C619.607012,161.700047 617.140084,160.917992 616.426641,163.925894 C615.849771,166.356216 617.77301,170.959856 618.433454,173.30043 C619.782881,178.084585 620.2456,183.354192 621.756061,187.988427 L622.203711,189.370431 C623.238908,192.53081 623.810006,193.524131 627.637739,193.310752 L639.717839,192.510592 C641.689207,192.377557 643.660801,192.241236 645.631943,192.098456 C659.122132,191.122451 672.623533,189.106192 686.11576,188.425946 C697.618501,187.845647 710.039545,186.4566 721.469922,187.654934 C726.805457,188.213816 732.491598,187.137866 737.932111,187.351016 L740.123106,187.429651 C745.968915,187.628228 751.828057,187.806213 757.414203,189.603883 L758.279047,189.878571 C763.135079,191.402686 767.234181,192.444867 770.767819,196.565434 C774.046999,200.385912 776.420647,205.07163 778.631952,209.628128 L779.61859,211.666474 C784.478157,221.68964 788.281827,234.77646 796.829895,242.367264 L797.417372,242.886664 C799.616696,244.816094 802.945296,247.509039 805.817239,247.178955 C810.818902,246.603558 809.495983,240.173262 808.99345,236.611721 L808.946196,236.265453 C807.464178,224.928295 803.106922,215.08232 799.718928,204.316798 L799.394213,203.272022 C798.369912,199.930966 796.339657,191.106134 801.646655,189.876185 C805.466633,188.990948 811.466689,197.394579 813.661036,199.651525 L815.590611,201.631245 C819.446135,205.572079 823.301964,209.39277 827.555212,212.940325 L829.18478,214.27458 C833.463613,217.75814 837.827391,221.393201 843.7347,220.650405 C840.785122,212.692451 837.529784,204.987423 832.697736,197.9657 C828.549574,191.938338 821.558851,186.513712 818.967014,179.580717 L818.839581,179.221975 C817.095033,174.042356 818.880799,167.34177 824.815209,171.830814 C830.088572,175.81948 834.653589,180.699501 840.044161,184.616776 C846.882649,189.584539 854.613526,193.730816 862.696374,196.29743 L864.503285,196.851878 C867.345962,197.707312 871.518267,198.809481 873.8899,197.020291 C877.855624,194.029047 873.810402,187.787515 871.58446,185.037978 C850.707077,159.252904 815.988899,150.00585 784.309988,148.062 C776.538135,147.584947 768.473766,148.277801 760.640309,148.458744 L760.640309,148.458744 Z M546.371627,157.607873 C547.02086,159.703681 549.733982,160.726599 551.438092,161.712802 C553.843839,163.106693 555.901025,164.740534 557.999819,166.531842 L558.573542,167.024223 C563.965133,171.671717 569.341436,175.38706 573.862627,180.932029 C577.948618,185.944631 583.655143,191.305006 588.726704,195.335485 C591.442884,197.492485 593.299874,197.31911 596.590885,197.290553 C600.527052,197.256898 603.948522,198.528661 607.789903,199.156894 C610.054575,199.527102 617.662936,203.687104 618.977709,201.049751 C620.099853,198.795864 614.547228,190.723687 613.717596,188.573826 C611.892683,183.844368 611.377683,178.593172 610.364003,173.622356 L610.190129,172.79662 C609.475667,169.512677 609.40738,163.0223 607.630907,160.096327 C605.645497,156.824622 601.016271,158.467613 597.729336,158.565519 C592.124731,158.732776 586.46407,158.729717 580.855388,158.710339 C575.151921,158.689942 569.451511,158.541043 563.747024,158.55838 C557.917174,158.575718 552.15765,157.607873 546.371627,157.607873 Z M426.329734,50.1127833 L424.573499,50.3474333 C420.162271,50.9499633 415.618436,51.6972829 411.441196,53.163179 C407.381705,54.5879209 405.836591,57.8922613 402.176629,58.4776599 L401.985334,58.5028176 C399.134226,58.8150533 385.617836,58.0677875 387.44301,62.3266045 C388.582073,64.9851255 393.863351,63.5592258 395.991592,63.4182702 L396.131727,63.4107138 C398.719487,63.3077081 401.873925,62.9222017 404.439262,63.4280513 C407.002561,63.9349209 407.243094,64.8946074 408.243952,67.4473123 C405.841688,67.3279889 396.855362,65.9848357 394.892375,67.7522499 C393.150554,69.3197719 394.43679,71.0382329 396.188803,71.6144528 C399.607214,72.7393563 404.227268,70.5568599 407.814867,71.4951294 L408.429636,71.6605687 C410.346248,72.1984168 410.28344,72.4802224 411.242452,74.8188471 L411.614186,75.7158522 C412.049083,76.7686648 412.467196,77.8453328 412.647934,78.9645705 C413.966785,87.09284 406.514362,80.7829776 403.415981,78.9829279 C397.748185,75.689806 391.603402,76.3047804 392.704143,84.21684 C393.067999,86.8348159 394.478578,89.1254173 396.290723,91.0131748 L397.249064,92.0121123 C399.018366,93.8812378 399.524574,94.7341272 399.63779,98.1960357 C399.750922,101.655395 399.379932,105.35646 400.603996,108.678138 C401.953423,112.336369 404.828598,115.454075 407.073906,118.576881 C409.77072,122.327919 412.561302,126.033064 415.162312,129.851413 C416.283436,131.496444 417.883587,135.637068 420.043281,136.185752 C422.076594,136.70078 425.228993,133.437234 426.912719,132.503044 C430.994633,130.238959 435.478113,128.765264 439.674177,126.738806 C436.157922,123.611921 433.027945,120.064854 429.585073,116.923691 L429.028944,116.42643 C426.70827,114.385457 425.567515,113.708005 426.390886,109.862193 C428.35965,100.668066 442.064854,104.305516 448.939011,104.629373 L449.979212,104.67117 C451.55969,104.720367 453.533096,104.626465 453.977692,102.914919 C454.971416,99.0935109 449.865202,101.425927 448.918361,99.0200811 C448.080065,96.8897365 450.183801,96.0151713 451.877703,95.5288792 L453.616824,95.0587876 C456.17663,94.3424516 455.452979,94.3071864 455.535036,91.1641138 C455.612042,88.2388773 456.508153,85.5601663 457.666136,82.9080385 L458.522583,80.9846586 C459.560314,78.5859729 459.138961,78.6740593 455.791875,78.2914641 C449.315324,77.5517856 447.814724,71.9157029 445.450906,66.6656529 L445.325666,66.3897194 C443.82132,63.1027166 442.154921,59.8962826 441.219291,56.3849109 C440.649556,54.2544272 440.729054,50.8684982 438.647838,49.6681251 C435.836873,48.0465506 429.291542,49.7231974 426.329734,50.1127833 Z M783.948055,108.006522 C803.585693,108.07367 821.322455,110.253481 840.397246,114.531923 C845.557345,115.689478 877.288045,128.065791 871.235926,132.700019 C869.187735,134.267478 863.051291,129.22535 861.043739,128.334384 C853.231964,124.863724 844.250811,122.944489 835.855871,121.448187 C819.235657,118.486651 802.200929,116.81897 785.326723,116.287798 C775.605776,115.981121 766.374187,116.285011 756.802615,117.244215 L755.109816,117.420297 C752.574976,117.692899 735.428492,120.554214 735.008897,115.85384 C734.271305,107.600626 779.629177,107.992491 783.948055,108.006522 Z M404.537923,87.9877604 C401.861757,88.2415925 397.45159,84.4682808 401.896227,84.0084542 C403.948113,83.7966021 408.257744,87.6333717 404.537923,87.9877604 Z M426.471781,67 C428.685137,68.9223361 432.151044,78.4549891 435.838596,72.3007478 C436.57157,71.0768144 436.60559,66.5179342 439.121001,67.9404234 C440.050069,68.4651074 440.049317,70.5637879 439.965829,71.9681223 L439.896243,72.9161719 C439.59728,76.798382 437.83443,82.214707 432.826287,81.9934309 C427.804725,81.7721548 424.9673,75.779448 425.000284,71.5421362 L425.004801,71.3168595 C425.004801,69.6098725 425.514069,68.4145864 426.471781,67 Z M434.94904,59.3712546 C434.476392,62.313578 430.529897,62.3725667 428.252924,62.759671 L428.08937,62.7886279 C419.588712,64.3563756 422.981062,56.7097785 429.206618,56.0752893 L429.497218,56.0484546 C431.832449,55.8554181 435.473377,56.1024796 434.94904,59.3712546 Z" id="Ink" fill="#000"/>
    </g>
</svg>
