<svg viewBox="394.25 149.361 749.075 471.667" xmlns="http://www.w3.org/2000/svg" xmlns:xlink="http://www.w3.org/1999/xlink" overflow="visible">
    <defs>
        <polygon id="masterstickersmessage-2-path-1" points="0.769069565 0.3448875 632.978709 0.3448875 632.978709 351 0.769069565 351"/>
        <polygon id="masterstickersmessage-2-path-3" points="0.902206897 0.0583448276 239.548966 0.0583448276 239.548966 238.705241 0.902206897 238.705241"/>
    </defs>
    <g id="Master/Stickers/Message 2" stroke="none" stroke-width="1" fill="none" fill-rule="evenodd">
        <g id="Group-23" transform="translate(400.000000, 162.000000)">
            <g id="Group-15" transform="translate(0.000000, 95.000000)">
                <mask id="masterstickersmessage-2-mask-2" fill="#fff">
                    <use xlink:href="#masterstickersmessage-2-path-1"/>
                </mask>
                <g id="Clip-14"/>
                <path d="M593.786483,351.000137 L39.9599174,351.000137 C18.3157087,351.000137 0.769069565,333.495012 0.769069565,311.900637 L0.769069565,39.4430125 C0.769069565,17.8500125 18.3157087,0.3448875 39.9599174,0.3448875 L593.786483,0.3448875 C615.43207,0.3448875 632.978709,17.8500125 632.978709,39.4430125 L632.978709,311.900637 C632.978709,333.495012 615.43207,351.000137 593.786483,351.000137" id="Fill-13" fill="#EDC829" mask="url(#masterstickersmessage-2-mask-2)"/>
            </g>
            <path d="M325.886192,285 C304.569953,285 283.233041,278.927896 264.425082,266.738167 L15.011165,105.078394 C13.9844244,104.413525 13.690873,103.041025 14.3565317,102.013375 C15.0208123,100.984345 16.3920968,100.690533 17.4188375,101.356782 L266.832754,263.015176 C304.05865,287.144962 351.616727,286.329738 387.992289,260.941943 L611.518558,104.952869 C612.519114,104.252136 613.901424,104.499048 614.601537,105.504628 C615.30165,106.508829 615.054956,107.889605 614.051645,108.590338 L390.526753,264.579412 C371.046244,278.174745 348.477243,285 325.886192,285" id="Fill-16" fill="#21211D"/>
            <g id="Group-20" transform="translate(490.000000, 0.000000)">
                <mask id="masterstickersmessage-2-mask-4" fill="#fff">
                    <use xlink:href="#masterstickersmessage-2-path-3"/>
                </mask>
                <g id="Clip-19"/>
                <path d="M239.549103,119.381103 C239.549103,185.281793 186.127034,238.705241 120.226345,238.705241 C54.3256552,238.705241 0.902206897,185.281793 0.902206897,119.381103 C0.902206897,53.4817931 54.3256552,0.0583448276 120.226345,0.0583448276 C186.127034,0.0583448276 239.549103,53.4817931 239.549103,119.381103" id="Fill-18" fill="#4965CC" mask="url(#masterstickersmessage-2-mask-4)"/>
            </g>
            <path d="M593.355822,156.445394 C593.355822,151.005516 595.216674,146.3861 598.939739,142.588527 C602.661443,138.790954 607.208075,136.892168 612.579634,136.892168 C618.002922,136.892168 622.576779,138.790954 626.299844,142.588527 C630.021548,146.3861 631.8824,151.005516 631.8824,156.445394 C631.8824,161.886652 630.021548,166.504688 626.299844,170.30364 C622.576779,174.101213 618.002922,176 612.579634,176 C607.208075,176 602.661443,174.101213 598.939739,170.30364 C595.216674,166.504688 593.355822,161.886652 593.355822,156.445394 M612.420366,126.630171 C610.824961,126.630171 609.215943,125.75455 607.593313,124.004688 C605.972044,122.254826 604.09758,119.331495 601.971281,115.237452 C598.72602,108.988141 596.253959,102.645063 594.552376,96.2082184 C592.849431,89.7713734 592,83.4282956 592,77.180364 C592,68.8847215 593.807763,62.4478764 597.423288,57.8684501 C601.040174,53.2904026 606.090474,51 612.579634,51 C619.067433,51 624.091869,53.2904026 627.655666,57.8684501 C631.21674,62.4478764 633,68.8847215 633,77.180364 C633,82.2975731 632.428268,87.4699393 631.284804,92.693326 C630.139978,97.9194705 628.426143,103.277992 626.139214,108.773028 C623.639928,114.752068 621.246821,119.223938 618.961254,122.18588 C616.674325,125.1492 614.493575,126.630171 612.420366,126.630171" id="Fill-21" fill="#FFF"/>
        </g>
    </g>
</svg>
