<svg viewBox="571.663 149.361 433.675 550.278" xmlns="http://www.w3.org/2000/svg" xmlns:xlink="http://www.w3.org/1999/xlink" overflow="visible">
    <defs>
        <polygon id="masterstickersimage-path-1" points="0.113639024 0.342254374 363.263883 0.342254374 363.263883 536 0.113639024 536"/>
    </defs>
    <g id="Master/Stickers/Image" stroke="none" stroke-width="1" fill="none" fill-rule="evenodd">
        <g id="IMG" transform="translate(575.000000, 157.000000)">
            <g id="Group-3" transform="translate(63.000000, 0.000000)">
                <mask id="masterstickersimage-mask-2" fill="#fff">
                    <use xlink:href="#masterstickersimage-path-1"/>
                </mask>
                <g id="Clip-2"/>
                <path d="M0.113639024,0.342254374 L0.113639024,536.000127 L322.551688,536.000127 C345.038517,536.000127 363.263883,517.791332 363.263883,495.337621 L363.263883,459.464902 L363.263883,0.342254374 L0.113639024,0.342254374 Z" id="Fill-1" fill="#B6CCFC" mask="url(#masterstickersimage-mask-2)"/>
            </g>
            <polygon id="Fill-4" fill="#4965CC" points="125 251 365 251 365 67 125 67"/>
            <path d="M290.958496,308 L125.041504,308 C123.913405,308 123,307.105165 123,306 C123,304.894835 123.913405,304 125.041504,304 L290.958496,304 C292.086595,304 293,304.894835 293,306 C293,307.105165 292.086595,308 290.958496,308" id="Fill-6" fill="#21211D"/>
            <path d="M290.958496,419 L125.041504,419 C123.913405,419 123,418.105165 123,417 C123,415.894835 123.913405,415 125.041504,415 L290.958496,415 C292.086595,415 293,415.894835 293,417 C293,418.105165 292.086595,419 290.958496,419" id="Fill-7" fill="#21211D"/>
            <path d="M364.96225,363 L125.03775,363 C123.911725,363 123,362.105165 123,361 C123,359.894835 123.911725,359 125.03775,359 L364.96225,359 C366.088275,359 367,359.894835 367,361 C367,362.105165 366.088275,363 364.96225,363" id="Fill-8" fill="#21211D"/>
            <polygon id="Fill-9" fill="#FF6D7B" points="302 250 125 250 125 201.345971 201.213433 104"/>
            <path d="M325,138.5 C325,153.136407 313.135141,165 298.5,165 C283.864859,165 272,153.136407 272,138.5 C272,123.863593 283.864859,112 298.5,112 C313.135141,112 325,123.863593 325,138.5" id="Fill-10" fill="#EDE761"/>
            <path d="M386,536 C374.761961,536 364.58938,531.423344 357.219966,524.016556 C349.850552,516.609768 345.29699,506.385596 345.29699,495.090563 L345.29699,459 L0,459 L0,495.090563 C0,506.385596 4.55356204,516.609768 11.9229758,524.016556 C19.2923896,531.423344 29.4649711,536 40.70301,536 L386,536 Z" id="Fill-11" fill="#4965CC"/>
        </g>
    </g>
</svg>
