<svg viewBox="354.825 149.361 867.35 648.542" xmlns="http://www.w3.org/2000/svg" xmlns:xlink="http://www.w3.org/1999/xlink" overflow="visible">
    <defs>
        <polygon id="masterstickersscreen-path-1" points="0 715 917.44418 715 917.44418 0.289347826 0 0.289347826"/>
        <polygon id="masterstickersscreen-path-3" points="0.026309729 0.361409836 686.074021 0.361409836 686.074021 364.104852 0.026309729 364.104852"/>
        <polygon id="masterstickersscreen-path-5" points="0.70797089 0.361409836 491.225602 0.361409836 491.225602 364.104852 0.70797089 364.104852"/>
    </defs>
    <g id="Master/Stickers/Screen" stroke="none" stroke-width="1" fill="none" fill-rule="evenodd">
        <g id="Screen" transform="translate(330.000000, 67.000000)">
            <g id="Group-8">
                <path d="M844.765474,584.872989 L67.5948023,584.872989 C48.277357,584.872989 32.6187633,569.20875 32.6187633,549.887011 L32.6187633,132.209837 C32.6187633,112.888098 48.277357,97.2238587 67.5948023,97.2238587 L844.765474,97.2238587 C864.08292,97.2238587 879.742709,112.888098 879.742709,132.209837 L879.742709,549.887011 C879.742709,569.20875 864.08292,584.872989 844.765474,584.872989" id="Fill-1" fill="#EDE8D6"/>
                <mask id="masterstickersscreen-mask-2" fill="#fff">
                    <use xlink:href="#masterstickersscreen-path-1"/>
                </mask>
                <g id="Clip-4"/>
                <polygon id="Fill-3" fill="#B6CCFC" mask="url(#masterstickersscreen-mask-2)" points="73.6204922 498.888261 838.738828 498.888261 838.738828 135.469783 73.6204922 135.469783"/>
                <path d="M588.410627,715 L323.947737,715 C316.345549,715 315.006799,704.143478 322.380682,702.302174 L326.493752,701.273913 C364.193909,691.852174 391.291643,659.426087 394.375549,621.213043 C394.566799,618.809783 394.662424,616.382609 394.662424,613.943478 L394.662424,584.877174 L517.707893,584.877174 L517.707893,613.943478 C517.707893,655.253261 545.808495,691.254348 585.864612,701.273913 L589.976487,702.302174 C597.35037,704.143478 596.01162,715 588.410627,715" id="Fill-5" fill="#EDE8D6" mask="url(#masterstickersscreen-mask-2)"/>
                <path d="M456.180377,519.43375 C446.30112,519.43375 438.265034,527.473315 438.265034,537.35538 C438.265034,547.237446 446.30112,555.278207 456.180377,555.278207 C466.059635,555.278207 474.095721,547.237446 474.095721,537.35538 C474.095721,527.473315 466.059635,519.43375 456.180377,519.43375 M456.180377,559.119837 C444.183026,559.119837 434.422104,549.356141 434.422104,537.35538 C434.422104,525.35462 444.183026,515.590924 456.180377,515.590924 C468.177729,515.590924 477.938651,525.35462 477.938651,537.35538 C477.938651,549.356141 468.177729,559.119837 456.180377,559.119837" id="Fill-6" fill="#21211D" mask="url(#masterstickersscreen-mask-2)"/>
                <path d="M517.707415,584.877054 L517.707415,593.987924 L394.375071,621.212924 C394.566321,618.809663 394.663141,616.382489 394.663141,613.943359 L394.663141,584.877054 L517.707415,584.877054 Z" id="Fill-7" fill="#21211D" mask="url(#masterstickersscreen-mask-2)"/>
            </g>
            <g id="Group-15" transform="translate(73.000000, 134.000000)">
                <g id="Group-11" transform="translate(80.125084, 0.000000)">
                    <mask id="masterstickersscreen-mask-4" fill="#fff">
                        <use xlink:href="#masterstickersscreen-path-3"/>
                    </mask>
                    <g id="Clip-10"/>
                    <polygon id="Fill-9" fill="#CDDDF9" mask="url(#masterstickersscreen-mask-4)" points="0.026309729 393.110625 262.950195 445.93869 764.817844 57.0389689 706.532227 -134.940261 560.816988 -83.7780311"/>
                </g>
                <g id="Group-14">
                    <mask id="masterstickersscreen-mask-6" fill="#fff">
                        <use xlink:href="#masterstickersscreen-path-5"/>
                    </mask>
                    <g id="Clip-13"/>
                    <polygon id="Fill-12" fill="#CDDDF9" mask="url(#masterstickersscreen-mask-6)" points="-43.7372936 394.70011 491.225602 -39.1700049 374.557501 -19.9351033 -72.9494641 324.475307"/>
                </g>
            </g>
        </g>
    </g>
</svg>
