<svg viewBox="532.237 267.278 512.525 589.583" xmlns="http://www.w3.org/2000/svg" overflow="visible">
    <g id="Master/Stickers/Search" stroke="none" stroke-width="1" fill="none" fill-rule="evenodd">
        <g id="Group-14" transform="translate(543.000000, 274.000000)">
            <path d="M35.321472,575 C27.7787997,575 20.1820729,572.60099 13.7495954,567.645249 C-1.7037353,555.739435 -4.56030416,533.583871 7.36909332,518.160477 L147.677768,336.723922 C159.603008,321.298453 181.800668,318.44911 197.25192,330.354924 C212.703172,342.260738 215.559741,364.414227 203.632422,379.837621 L63.3237472,561.276251 C56.3611204,570.278765 45.8974297,575 35.321472,575" id="Fill-1" fill="#F73132"/>
            <g id="Group-5" transform="translate(71.000000, 0.000000)" fill="#B6CCFC">
                <path d="M209.581518,0.521257426 C324.955865,0.521257426 418.484132,94.2727426 418.484132,209.922446 C418.484132,325.572149 324.955865,419.323634 209.581518,419.323634 C94.209246,419.323634 0.678904455,325.572149 0.678904455,209.922446 C0.678904455,94.2727426 94.209246,0.521257426 209.581518,0.521257426 Z M209.001038,67 C130.57518,67 67,130.575645 67,209 C67,287.424355 130.57518,351 209.001038,351 C287.42482,351 351,287.424355 351,209 C351,130.575645 287.42482,67 209.001038,67 Z" id="Shape"/>
            </g>
            <path d="M279.998963,28.686361 C180.564406,28.686361 99.6706055,109.798535 99.6706055,209.49896 C99.6706055,309.199384 180.564406,390.313639 279.998963,390.313639 C379.433519,390.313639 460.329394,309.199384 460.329394,209.49896 C460.329394,109.798535 379.433519,28.686361 279.998963,28.686361 M279.998963,397 C176.887792,397 93,312.887909 93,209.49896 C93,106.112091 176.887792,22 279.998963,22 C383.110133,22 467,106.112091 467,209.49896 C467,312.887909 383.110133,397 279.998963,397" id="Fill-6" fill="#FFF"/>
            <path d="M214.327623,187 C212.716744,187 211.300747,185.849242 211.041596,184.233285 C210.753421,182.443897 211.993197,180.764688 213.811395,180.48108 L300.14993,167.04333 C301.980568,166.74952 303.674375,167.981892 303.958404,169.769239 C304.246579,171.558626 303.006803,173.237835 301.188605,173.521444 L214.852143,186.959193 C214.675921,186.987758 214.499699,187 214.327623,187" id="Fill-10" fill="#21211D"/>
            <path d="M186.338384,244 C184.735172,244 183.321184,242.84918 183.046704,241.224371 C182.741033,239.413277 183.967875,237.697396 185.787345,237.393132 L379.102321,205.045975 C380.907234,204.743782 382.647687,205.962906 382.953357,207.773999 C383.259028,209.587162 382.030107,211.303043 380.210637,211.607307 L186.897741,243.954464 C186.710595,243.985511 186.52345,244 186.338384,244" id="Fill-12" fill="#21211D"/>
        </g>
    </g>
</svg>
