<svg viewBox="0 0 280 280" xmlns="http://www.w3.org/2000/svg" xmlns:xlink="http://www.w3.org/1999/xlink" overflow="visible">
    <defs>
        <circle id="masteravataaardefault-with-backdrop-path-1" cx="140" cy="140" r="140"/>
        <path d="M83,36.3476251 C83,52.6289957 105.161905,65.8276544 132.5,65.8276544 C159.838095,65.8276544 182,52.6289957 182,36.3476251 C182,34.9853134 181.844841,33.6445843 181.544472,32.3313638 C210.784239,41.4879251 232,68.792221 232,101.051724 L232,110 L32,110 L32,101.051724 C32,68.3970853 53.7386736,40.8197864 83.5337207,32.0021267 C83.1821692,33.4207025 83,34.871494 83,36.3476251 Z" id="masteravataaardefault-with-backdrop-path-3"/>
    </defs>
    <g id="Master/Avataaar/Default with Backdrop" stroke="none" stroke-width="1" fill="none" fill-rule="evenodd">
        <mask id="masteravataaardefault-with-backdrop-mask-2" fill="#fff">
            <use xlink:href="#masteravataaardefault-with-backdrop-path-1"/>
        </mask>
        <use id="Oval" fill="#ebad7f" xlink:href="#masteravataaardefault-with-backdrop-path-1"/>
        <g id="Group" mask="url(#masteravataaardefault-with-backdrop-mask-2)">
            <g transform="translate(7.000000, 0.000000)">
                <path d="M133,36 C163.927946,36 189,61.072054 189,92 L189.000809,98.1660527 C194.675838,99.1185422 199,104.05429 199,110 L199,124 C199,130.052417 194.519235,135.058294 188.693975,135.881364 C186.627928,155.686472 174.237929,172.421678 157.001014,180.610469 L157,199 L161,199 C200.764502,199 233,231.235498 233,271 L233,280 L33,280 L33,271 C33,231.235498 65.235498,199 105,199 L109,199 L108.999984,180.610943 C91.7625487,172.422324 79.3721119,155.686854 77.3051107,135.88097 C71.480765,135.058294 67,130.052417 67,124 L67,110 C67,104.053942 71.3246685,99.1179645 77.0001873,98.1658855 L77,92 C77,61.072054 102.072054,36 133,36 Z" id="Body" fill="#915b3c" fill-rule="evenodd"/>
                <path d="M108.998216,180.610103 C116.272713,184.066155 124.410519,186 133,186 C141.588785,186 149.725969,184.066469 157.000016,180.610943 L157.000353,185.94579 C150.441661,190.398372 142.524652,193 134,193 C124.589035,193 115.918635,189.829263 108.998807,184.497795 Z" id="shadow" fill-opacity=".24" fill="#000" fill-rule="evenodd"/>
                <g id="Nose" fill="none" transform="translate(105.000000, 122.000000) scale(1 1)" fill-rule="evenodd">
                    <g id="Nose/Medium" stroke="none" stroke-width="1" fill="none" fill-rule="evenodd">
                        <path d="M16,8 C16,12.418278 21.372583,16 28,16 L28,16 C34.627417,16 40,12.418278 40,8" id="Nose" fill-opacity=".16" fill="#000"/>
                    </g>
                </g>
                <g id="Clothing" fill="none" transform="translate(1.000000, 170.000000) scale(1 1)">
                    <defs>
                        <path d="M83,36.3476251 C83,52.6289957 105.161905,65.8276544 132.5,65.8276544 C159.838095,65.8276544 182,52.6289957 182,36.3476251 C182,34.9853134 181.844841,33.6445843 181.544472,32.3313638 C210.784239,41.4879251 232,68.792221 232,101.051724 L232,110 L32,110 L32,101.051724 C32,68.3970853 53.7386736,40.8197864 83.5337207,32.0021267 C83.1821692,33.4207025 83,34.871494 83,36.3476251 Z" id="clothingshirt-scoop-neck-path-1"/>
                    </defs>
                    <g id="Clothing/Shirt Scoop Neck" stroke="none" stroke-width="1" fill="none" fill-rule="evenodd">
                        <mask id="clothingshirt-scoop-neck-mask-2" fill="#fff">
                            <use xlink:href="#clothingshirt-scoop-neck-path-1"/>
                        </mask>
                        <use id="Clothes" fill="#ff4c77" xlink:href="#clothingshirt-scoop-neck-path-1"/>
                    </g>
                </g>
                <g id="Mouth" fill="none" transform="translate(79.000000, 134.000000) scale(1 1)" fill-rule="evenodd">
                    <g id="Mouth/Default" stroke="none" stroke-width="1" fill="none" fill-rule="evenodd">
                        <path d="M40,15 C40,22.7319865 46.2680135,29 54,29 L54,29 C61.7319865,29 68,22.7319865 68,15" id="Mouth" fill-opacity=".7" fill="#000"/>
                    </g>
                </g>
                <g id="Eyes" fill="none" transform="translate(77.000000, 90.000000) scale(1 1)" fill-rule="evenodd">
                    <g id="Eyes/Wink" stroke="none" stroke-width="1" fill="none" fill-rule="evenodd">
                        <circle id="Eye" fill-opacity=".6" fill="#000" cx="30" cy="22" r="6"/>
                        <path d="M70.4123979,24.204889 C72.2589064,20.4060854 76.4166529,17.7575774 81.2498107,17.7575774 C86.065907,17.7575774 90.2113521,20.3874194 92.0675822,24.1647016 C92.618991,25.2867751 91.8343342,26.2050591 91.0428374,25.5246002 C88.5917368,23.4173607 85.1109468,22.1013658 81.2498107,22.1013658 C77.5094365,22.1013658 74.1259889,23.3363293 71.6897696,25.3292186 C70.7990233,26.0578718 69.8723316,25.3159619 70.4123979,24.204889 Z" id="Winky-Wink" fill-opacity=".6" fill="#000" transform="translate(81.252230, 21.757577) rotate(-4.000000) translate(-81.252230, -21.757577)"/>
                    </g>
                </g>
                <g id="Eyebrow/Outline" fill="none" transform="translate(77.000000, 82.000000) scale(1 1)" fill-rule="evenodd">
                    <g id="Eyebrow/Outline/Up Down" stroke="none" stroke-width="1" fill="none" fill-rule="evenodd">
                        <path d="M15.5914402,14.1619718 C20.0874642,7.83556966 29.6031809,4.65350252 39.3473715,7.79575991 C40.3986323,8.13476518 41.5256656,7.55736801 41.8646708,6.50610724 C42.2036761,5.45484647 41.6262789,4.32781316 40.5750182,3.98880789 C29.1665516,0.309863172 17.8358054,4.09887835 12.3309495,11.8448183 C11.6910852,12.7451779 11.9022584,13.9937761 12.8026181,14.6336404 C13.7029777,15.2735046 14.9515759,15.0623314 15.5914402,14.1619718 Z" id="Eyebrow" fill-opacity=".6" fill="#000" fill-rule="nonzero"/>
                        <path d="M73.6376405,21.1577995 C77.5525501,15.6490895 88.2853148,12.56006 97.5304219,14.8304032 C98.6031199,15.0938282 99.6862617,14.4377829 99.9496867,13.3650849 C100.213112,12.2923868 99.5570664,11.2092451 98.4843684,10.9458201 C87.7477584,8.30920485 75.3194947,11.8862211 70.3771498,18.840646 C69.7372855,19.7410057 69.9484587,20.9896038 70.8488184,21.6294681 C71.749178,22.2693324 72.9977762,22.0581591 73.6376405,21.1577995 Z" id="Eyebrow" fill-opacity=".6" fill="#000" fill-rule="nonzero" transform="translate(85.007549, 16.038421) scale(-1, 1) translate(-85.007549, -16.038421)"/>
                    </g>
                </g>
                <g id="Facial Hair" fill="none" transform="translate(50.000000, 72.000000) scale(1 1)" fill-rule="evenodd">
                    <g id="Facial Hair/Blank" stroke="none" stroke-width="1" fill="none" fill-rule="evenodd" fill-opacity="0"/>
                </g>
                <g id="Hairstyle" fill="none" fill-rule="evenodd" transform="scale(1 1)">
                    <defs>
                        <path d="M86,0 C115.850571,0 167.918252,44.1482824 168.000151,91.3235294 C168.044199,116.801277 158.377483,132.360101 139,138 C145.115031,82.1102588 107.402843,69.4138942 83.9702592,55.8163276 C60.5120434,69.4137349 22.8617466,82.1099083 29.0002187,138 C9.62244645,132.999216 -0.0442710553,117.440393 6.61437384e-05,91.3235294 C0.0804892181,44.1482783 52.0737254,0 82.0002187,0 C82.6683765,0 83.3326638,0.0296272423 83.9914566,0.0880458459 C84.6556388,0.0296490547 85.3257817,0 86,0 Z" id="hairstyleturban-path-1"/>
                    </defs>
                    <g id="Hairstyle/Turban" stroke="none" stroke-width="1" fill="none" fill-rule="evenodd">
                        <g id="Turban" transform="translate(49.000000, 3.000000)">
                            <path d="M84,54 C116.5848,54 143,68.7746033 143,87 C143,89.579787 142.470742,92.0904336 141.469644,94.4998241 C135.397224,79.8874705 111.971815,69 84,69 C56.0275463,69 32.6017061,79.8879678 26.5303563,94.5001759 C25.5294049,92.0911291 25,89.5801444 25,87 C25,68.7746033 51.4151998,54 84,54 Z" id="Band" fill="#EDECE3"/>
                            <g>
                                <mask id="hairstyleturban-mask-2" fill="#fff">
                                    <use xlink:href="#hairstyleturban-path-1"/>
                                </mask>
                                <use id="Turban-Mask" fill="#124C74" xlink:href="#hairstyleturban-path-1"/>
                            </g>
                            <path d="M6.61437381e-05,94.0294118 L0.0121930112,93.0944187 C0.401826662,118.14477 10.0645019,133.113297 29.0002187,138 L29.0002187,138 C9.62244645,133.289117 -0.0442710553,118.632254 6.61437381e-05,94.0294118 Z M100.000219,47.135763 C88.8767709,68.5104523 28.8779193,69.0015399 28.3370145,126.226222 C28.4044891,64.7592437 88.8329556,64.3235487 100.000219,41.5441176 C102.669276,36.5679117 104.14065,31.8372142 104.645488,27.4709975 C105.389794,33.1969843 104.125686,39.8901052 100.000219,47.135763 Z" id="Shadow" fill-opacity=".16" fill="#000"/>
                        </g>
                    </g>
                </g>
                <g id="Accesories" fill="none" transform="translate(63.000000, 85.000000) scale(1 1)" fill-rule="evenodd">
                    <g id="Accesories/Prescription 01" stroke="none" stroke-width="1" fill="none" fill-rule="evenodd">
                        <g id="Glasses" transform="translate(8.000000, 8.000000)">
                            <path d="M80.420644,2.03156667 L103.711555,2.4879 L104.418885,2.51739042 C108.716907,2.73064946 111.842183,3.56082362 114.25907,7.0052776 L115.270648,7.06122262 C117.98538,7.22356852 120.815928,7.51990231 123.241565,8.63936667 C126.626236,10.2013667 127.149293,13.7387 122.882414,14.2260333 C120.960673,14.4457 119.036739,14.0827 117.144457,13.7450333 L116.805075,13.6912775 C117.908933,23.1522104 110.598088,34.5597165 102.577413,38.0372333 C91.6003746,42.7965667 79.3375086,37.5292333 73.5337832,28.0035667 C70.9077874,23.6933472 69.3913647,17.4882292 69.0679314,12.1428905 C68.2485064,11.7454964 67.4674464,11.2201465 66.7189648,10.8553 C64.7120473,9.8773 61.3809643,9.75663333 59.2126933,10.8553 C58.4674989,11.2329059 57.6844252,11.7618811 56.860867,12.1592462 C56.5358863,17.500774 55.019749,23.6993553 52.3955746,28.0058333 C46.5921826,37.5318333 34.3293166,42.7991667 23.352278,38.0395 C15.3308758,34.5619527 8.01918948,23.1527353 9.12481053,13.6913039 L8.78716336,13.7450333 L7.91167874,13.9004644 C6.30295502,14.1806014 4.67529677,14.4119051 3.04920921,14.2260333 C-1.2176675,13.7387 -0.69461078,10.2013667 2.69005822,8.63936667 C5.41866332,7.38007813 8.65964371,7.16238412 11.6724863,7.00636982 C14.088769,3.56285878 17.2136434,2.73316872 21.5106444,2.51998225 L22.2178029,2.4905 L46.367281,2.01387049 C51.1910659,1.92297948 55.3004405,2.2797475 56.5415862,6.63986622 C58.6301126,5.82581137 61.0470363,5.38463333 62.8914864,5.38463333 C64.750063,5.38463333 67.2403142,5.83268843 69.3827667,6.65903161 C70.6884926,2.02106814 75.2241204,1.89209727 80.420644,2.03156667 Z M46.6792964,9.28413029 L45.1743719,9.26279162 C40.2545196,9.2171575 20.0180517,9.15303061 17.6158944,11.1491667 C15.2262624,13.1345 16.5340925,19.0731667 17.1565036,21.5561667 C18.2203032,25.7998333 20.6396056,30.0601667 24.1723805,32.7525 C27.160879,35.03 30.9870799,35.1875781 34.598636,34.8394006 L34.8137377,34.8154434 C34.5755438,34.8270989 36.279595,34.5883296 36.6288896,34.5222918 L36.6612747,34.5158333 C37.7297416,34.2861667 38.7985419,33.9835 39.8106684,33.5641667 C41.7165732,32.7748333 43.5084639,31.6188333 44.9776475,30.1685 C47.7666627,27.4145 48.9648125,23.7228333 49.6852359,19.9548333 C50.1572949,17.4871667 50.5553446,14.6705 50.1459601,12.1651667 C49.7671628,9.84641667 48.7581109,9.35491276 46.6792964,9.28413029 L46.6792964,9.28413029 Z M82.2432286,9.24980184 L79.6805515,9.27256667 C77.3089217,9.29523333 76.1877816,9.68923333 75.7837311,12.1625667 C75.3743466,14.6679 75.7723963,17.4845667 76.244122,19.9522333 C76.9648787,23.7202333 78.1630285,27.4119 80.9520437,30.1659 C82.4212273,31.6162333 84.213118,32.7722333 86.1190228,33.5619 C86.9624616,33.9110667 87.8452571,34.1794463 88.7344192,34.392116 L89.2684165,34.5132333 C89.5131654,34.5657289 91.2030063,34.8028032 91.1366495,34.8130415 L90.9855976,34.8019336 C94.6972751,35.192883 98.6733348,35.1001622 101.757311,32.7499 C105.290086,30.0575667 107.709388,25.7975667 108.773188,21.5539 L108.961141,20.7771479 C109.606864,17.9999642 110.480835,12.9475202 108.313797,11.1465667 C106.107164,9.3129068 88.8513244,9.2177679 82.2432286,9.24980184 L82.2432286,9.24980184 Z" id="Shape" fill-opacity=".16" fill="#000"/>
                            <path d="M80.420644,0.0315666667 L103.711555,0.4879 L104.418885,0.517390422 C108.716907,0.73064946 111.842183,1.56082362 114.25907,5.0052776 L115.270648,5.06122262 C117.98538,5.22356852 120.815928,5.51990231 123.241565,6.63936667 C126.626236,8.20136667 127.149293,11.7387 122.882414,12.2260333 C120.960673,12.4457 119.036739,12.0827 117.144457,11.7450333 L116.805075,11.6912775 C117.908933,21.1522104 110.598088,32.5597165 102.577413,36.0372333 C91.6003746,40.7965667 79.3375086,35.5292333 73.5337832,26.0035667 C70.9077874,21.6933472 69.3913647,15.4882292 69.0679314,10.1428905 C68.2485064,9.74549637 67.4674464,9.22014648 66.7189648,8.8553 C64.7120473,7.8773 61.3809643,7.75663333 59.2126933,8.8553 C58.4674989,9.2329059 57.6844252,9.7618811 56.860867,10.1592462 C56.5358863,15.500774 55.019749,21.6993553 52.3955746,26.0058333 C46.5921826,35.5318333 34.3293166,40.7991667 23.352278,36.0395 C15.3308758,32.5619527 8.01918948,21.1527353 9.12481053,11.6913039 L8.78716336,11.7450333 L7.91167874,11.9004644 C6.30295502,12.1806014 4.67529677,12.4119051 3.04920921,12.2260333 C-1.2176675,11.7387 -0.69461078,8.20136667 2.69005822,6.63936667 C5.41866332,5.38007813 8.65964371,5.16238412 11.6724863,5.00636982 C14.088769,1.56285878 17.2136434,0.733168723 21.5106444,0.519982254 L22.2178029,0.4905 L46.367281,0.0138704941 C51.1910659,-0.0770205207 55.3004405,0.279747502 56.5415862,4.63986622 C58.6301126,3.82581137 61.0470363,3.38463333 62.8914864,3.38463333 C64.750063,3.38463333 67.2403142,3.83268843 69.3827667,4.65903161 C70.6884926,0.0210681394 75.2241204,-0.10790273 80.420644,0.0315666667 Z M46.6792964,7.28413029 L45.1743719,7.26279162 C40.2545196,7.2171575 20.0180517,7.15303061 17.6158944,9.14916667 C15.2262624,11.1345 16.5340925,17.0731667 17.1565036,19.5561667 C18.2203032,23.7998333 20.6396056,28.0601667 24.1723805,30.7525 C27.160879,33.03 30.9870799,33.1875781 34.598636,32.8394006 L34.8137377,32.8154434 C34.5755438,32.8270989 36.279595,32.5883296 36.6288896,32.5222918 L36.6612747,32.5158333 C37.7297416,32.2861667 38.7985419,31.9835 39.8106684,31.5641667 C41.7165732,30.7748333 43.5084639,29.6188333 44.9776475,28.1685 C47.7666627,25.4145 48.9648125,21.7228333 49.6852359,17.9548333 C50.1572949,15.4871667 50.5553446,12.6705 50.1459601,10.1651667 C49.7671628,7.84641667 48.7581109,7.35491276 46.6792964,7.28413029 L46.6792964,7.28413029 Z M82.2432286,7.24980184 L79.6805515,7.27256667 C77.3089217,7.29523333 76.1877816,7.68923333 75.7837311,10.1625667 C75.3743466,12.6679 75.7723964,15.4845667 76.244122,17.9522333 C76.9648787,21.7202333 78.1630285,25.4119 80.9520437,28.1659 C82.4212274,29.6162333 84.213118,30.7722333 86.1190229,31.5619 C86.9624616,31.9110667 87.8452571,32.1794463 88.7344192,32.392116 L89.2684165,32.5132333 C89.5131654,32.5657289 91.2030063,32.8028032 91.1366495,32.8130415 L90.9855976,32.8019336 C94.6972751,33.192883 98.6733348,33.1001622 101.757311,30.7499 C105.290086,28.0575667 107.709388,23.7975667 108.773188,19.5539 L108.961141,18.7771479 C109.606864,15.9999642 110.480835,10.9475202 108.313797,9.14656667 C106.107164,7.3129068 88.8513244,7.2177679 82.2432286,7.24980184 L82.2432286,7.24980184 Z" id="Shape-Copy" fill="#D6EAF2"/>
                        </g>
                    </g>
                </g>
            </g>
        </g>
    </g>
</svg>
