<svg viewBox="17.5 7 248.5 276.5" xmlns="http://www.w3.org/2000/svg" xmlns:xlink="http://www.w3.org/1999/xlink" overflow="visible">
    <defs>
        <path d="M83,36.3476251 C83,52.6289957 105.161905,65.8276544 132.5,65.8276544 C159.838095,65.8276544 182,52.6289957 182,36.3476251 C182,34.9853134 181.844841,33.6445843 181.544472,32.3313638 C210.784239,41.4879251 232,68.792221 232,101.051724 L232,110 L32,110 L32,101.051724 C32,68.3970853 53.7386736,40.8197864 83.5337207,32.0021267 C83.1821692,33.4207025 83,34.871494 83,36.3476251 Z" id="masteravataaardefault-path-1"/>
    </defs>
    <g id="Master/Avataaar/Default" stroke="none" stroke-width="1" fill="none" fill-rule="evenodd">
        <path d="M140,36 C170.927946,36 196,61.072054 196,92 L196.000809,98.1660527 C201.675838,99.1185422 206,104.05429 206,110 L206,124 C206,130.052417 201.519235,135.058294 195.693975,135.881364 C193.627928,155.686472 181.237929,172.421678 164.001014,180.610469 L164,199 L168,199 C207.764502,199 240,231.235498 240,271 L240,280 L40,280 L40,271 C40,231.235498 72.235498,199 112,199 L116,199 L115.999984,180.610943 C98.7625487,172.422324 86.3721119,155.686854 84.3051107,135.88097 C78.480765,135.058294 74,130.052417 74,124 L74,110 C74,104.053942 78.3246685,99.1179645 84.0001873,98.1658855 L84,92 C84,61.072054 109.072054,36 140,36 Z" id="Body" fill="#eac7a8"/>
        <path d="M115.998216,180.610103 C123.272713,184.066155 131.410519,186 140,186 C148.588785,186 156.725969,184.066469 164.000016,180.610943 L164.000353,185.94579 C157.441661,190.398372 149.524652,193 141,193 C131.589035,193 122.918635,189.829263 115.998807,184.497795 Z" id="shadow" fill-opacity=".24" fill="#000"/>
        <g id="Nose" transform="translate(112.000000, 122.000000) scale(1 1)" fill="#000">
            <g id="Nose/Medium" stroke="none" stroke-width="1" fill="none" fill-rule="evenodd">
                <path d="M16,8 C16,12.418278 21.372583,16 28,16 L28,16 C34.627417,16 40,12.418278 40,8" id="Nose" fill-opacity=".16" fill="#000"/>
            </g>
        </g>
        <g id="Clothing" transform="translate(8.000000, 170.000000) scale(1 1)">
            <g id="Clothing/Chef" stroke="none" stroke-width="1" fill="none" fill-rule="evenodd">
                <path d="M104,29.0517235 L160,29.0517235 C199.764502,29.0517235 232,61.2872215 232,101.051724 L232,110 L232,110 L32,110 L32,101.051724 C32,61.2872215 64.235498,29.0517235 104,29.0517235 Z" id="Chest" fill="#F7F9F9"/>
                <polyline id="Path-10" stroke-opacity=".206" stroke="#979797" stroke-width="4" points="136 29 97 70 97 110"/>
                <path d="M107.127,19.0853917 C113.854,20.6843917 131.291,23.5633917 158.064,19.1733917 C159.566,18.9273917 160.991,19.7773917 160.991,20.9203917 L160.991,31.3083917 C160.991,32.0803917 160.333,32.7653917 159.346,33.0073917 C152.963,34.5713917 129.018,39.5293917 105.502,32.5903917 C104.591,32.3203917 104,31.6523917 104,30.9243917 L104,20.7953917 C104,19.5853917 105.577,18.7173917 107.127,19.0853917" id="Fill-1" fill="#F7F9F9"/>
                <circle id="Oval" fill-opacity=".502" fill="#D8D8D8" cx="115" cy="79" r="4"/>
                <polygon id="Path-11" fill="#60ade6" points="160.991 75 186.16092 62.6280915 186.16092 75"/>
            </g>
        </g>
        <g id="Mouth" transform="translate(86.000000, 134.000000) scale(1 1)" fill="#000">
            <g id="Mouth/Tongue" stroke="none" stroke-width="1" fill="none" fill-rule="evenodd">
                <path d="M29,15.6086957 C30.410031,25.2313711 41.062182,33 54,33 C66.9681454,33 77.6461342,25.183301 79,14.7391304 C79.1012093,14.3397326 78.775269,13 76.826087,13 C56.838426,13 41.7395748,13 31.173913,13 C29.3833142,13 28.870211,14.2404669 29,15.6086957 Z" id="Mouth" fill-opacity=".7" fill="#000"/>
                <path d="M70,13 C70,15.7614237 67.7614237,18 65,18 L44,18 C41.2385763,18 39,15.7614237 39,13 L70,13 Z" id="Path" fill="#FFF"/>
                <path d="M59.5,20 C63.0898509,20 66,21.5670034 66,23.5 C66,23.5829439 65.9946418,23.6652139 65.9841015,23.7467151 C65.9945755,23.8293228 66,23.9140279 66,24 L66,33 C66,39.0751322 61.0751322,44 55,44 L54,44 C47.9248678,44 43,39.0751322 43,33 L43,24 C43,23.9140279 43.0054245,23.8293228 43.0159499,23.7462082 C43.0053582,23.6652139 43,23.5829439 43,23.5 C43,21.5670034 45.9101491,20 49.5,20 C51.5111815,20 53.3090251,20.4918353 54.5013226,21.2643168 C55.6919663,20.4915641 57.489373,20 59.5,20 Z" id="Path" fill="#FF4F6D"/>
            </g>
        </g>
        <g id="Eyes" transform="translate(84.000000, 90.000000) scale(1 1)" fill="#000">
            <g id="Eyes/Wink" stroke="none" stroke-width="1" fill="none" fill-rule="evenodd">
                <circle id="Eye" fill-opacity=".6" fill="#000" cx="30" cy="22" r="6"/>
                <path d="M70.4123979,24.204889 C72.2589064,20.4060854 76.4166529,17.7575774 81.2498107,17.7575774 C86.065907,17.7575774 90.2113521,20.3874194 92.0675822,24.1647016 C92.618991,25.2867751 91.8343342,26.2050591 91.0428374,25.5246002 C88.5917368,23.4173607 85.1109468,22.1013658 81.2498107,22.1013658 C77.5094365,22.1013658 74.1259889,23.3363293 71.6897696,25.3292186 C70.7990233,26.0578718 69.8723316,25.3159619 70.4123979,24.204889 Z" id="Winky-Wink" fill-opacity=".6" fill="#000" transform="translate(81.252230, 21.757577) rotate(-4.000000) translate(-81.252230, -21.757577)"/>
            </g>
        </g>
        <g id="Eyebrow/Outline" transform="translate(84.000000, 82.000000) scale(1 1)" fill="#000">
            <g id="Eyebrow/Outline/Angry" stroke="none" stroke-width="1" fill="none" fill-rule="evenodd">
                <path d="M15.6114904,15.1845247 C19.8515017,9.41618792 22.4892046,9.70087612 28.9238518,14.5564693 C29.1057771,14.6937504 29.2212592,14.7812575 29.5936891,15.063789 C34.4216439,18.7263562 36.7081807,20 40,20 C41.1045695,20 42,19.1045695 42,18 C42,16.8954305 41.1045695,16 40,16 C37.9337712,16 36.0986396,14.9777974 32.011227,11.8770179 C31.6358269,11.5922331 31.5189458,11.5036659 31.3332441,11.3635351 C27.5737397,8.52660822 25.3739873,7.28738405 22.6379899,6.99208688 C18.9538127,6.59445233 15.5799484,8.47367246 12.3885096,12.8154753 C11.7343147,13.7054768 11.9254737,14.9572954 12.8154753,15.6114904 C13.7054768,16.2656853 14.9572954,16.0745263 15.6114904,15.1845247 Z" id="Eyebrow" fill-opacity=".6" fill="#000" fill-rule="nonzero"/>
                <path d="M73.6114904,15.1845247 C77.8515017,9.41618792 80.4892046,9.70087612 86.9238518,14.5564693 C87.1057771,14.6937504 87.2212592,14.7812575 87.5936891,15.063789 C92.4216439,18.7263562 94.7081807,20 98,20 C99.1045695,20 100,19.1045695 100,18 C100,16.8954305 99.1045695,16 98,16 C95.9337712,16 94.0986396,14.9777974 90.011227,11.8770179 C89.6358269,11.5922331 89.5189458,11.5036659 89.3332441,11.3635351 C85.5737397,8.52660822 83.3739873,7.28738405 80.6379899,6.99208688 C76.9538127,6.59445233 73.5799484,8.47367246 70.3885096,12.8154753 C69.7343147,13.7054768 69.9254737,14.9572954 70.8154753,15.6114904 C71.7054768,16.2656853 72.9572954,16.0745263 73.6114904,15.1845247 Z" id="Eyebrow" fill-opacity=".6" fill="#000" fill-rule="nonzero" transform="translate(84.999934, 13.470064) scale(-1, 1) translate(-84.999934, -13.470064)"/>
            </g>
        </g>
        <g id="Facial Hair" transform="translate(57.000000, 72.000000) scale(1 1)" fill="#000">
            <defs>
                <path d="M64.7214121,63.4643353 C71.8381194,62.1698595 81.796173,63.6461901 84.1074639,67.092174 L83.998,66.939 L84.010445,66.9215199 C86.5309935,63.5977488 96.2765075,62.1914341 103.274279,63.4643353 C112.927938,65.2207224 117.019147,75.7669804 115.780485,77.6791014 C114.655476,79.4153191 111.53642,77.7739966 109.119711,77.6298353 C104.118941,77.3322546 94.948229,81.5102869 86.0463327,76.6891498 C85.2347477,76.2495714 84.5386341,75.6083797 83.9975585,74.8390687 C83.4573866,75.6083797 82.7612729,76.2495714 81.949688,76.6891498 C73.0477917,81.5102869 63.8767499,77.3322546 58.8763101,77.6298353 C56.459601,77.7739966 53.3405442,79.4153191 52.2155358,77.6791014 C50.9768736,75.7669804 55.0680827,65.2207224 64.7214121,63.4643353 Z" id="facial-hairmoustache-magnum-path-1"/>
            </defs>
            <g id="Facial Hair/Moustache Magnum" stroke="none" stroke-width="1" fill="none" fill-rule="evenodd">
                <mask id="facial-hairmoustache-magnum-mask-2" fill="#fff">
                    <use xlink:href="#facial-hairmoustache-magnum-path-1"/>
                </mask>
                <use id="Hey..." fill="#b58143" xlink:href="#facial-hairmoustache-magnum-path-1"/>
            </g>
        </g>
        <g id="Hairstyle" transform="translate(7.000000, 0.000000) scale(1 1)">
            <g id="Hairstyle/Loose hair" stroke="none" stroke-width="1" fill="none" fill-rule="evenodd">
                <path d="M248.9316,185.8679 C227.6806,173.0629 234.2196,160.8039 236.1266,151.8129 C238.0346,142.8219 233.1296,127.2929 226.5916,121.2999 C220.0526,115.3059 207.2476,96.7809 213.5146,80.1619 C216.2336,72.9509 212.2876,54.6889 202.8896,45.2899 C193.4906,35.8899 179.7326,37.9339 174.0106,30.5779 C169.5946,24.9009 157.9366,9.5999 140.2286,9.5999 C122.5196,9.5999 115.4366,19.9529 107.8086,25.1289 C100.1806,30.3059 89.0106,25.1289 80.5646,32.7579 C72.1196,40.3859 68.8496,49.3759 68.8496,69.5359 C68.8496,89.6969 32.9946,100.5949 31.2536,124.1599 C30.2396,137.8809 43.2406,143.3669 43.2406,155.3539 C43.2406,167.3419 12.9996,175.7879 12.9996,194.5859 C12.9996,210.1149 24.9876,217.7429 30.4356,220.4679 C34.3556,222.4279 33.9606,234.3959 39.6786,240.7579 C51.1186,216.1309 76.0526,199.0449 104.9946,199.0449 L108.9946,199.0449 L108.9946,180.6559 C101.7626,177.2209 95.3876,172.2769 90.2666,166.2379 C91.2026,159.9859 89.0526,151.6059 83.7936,137.8259 C81.0146,130.5459 82.6186,119.6039 86.5576,115.3059 C92.5516,108.7679 93.6416,97.5969 93.6416,97.5969 C93.0636,102.2189 93.9556,106.6439 95.1756,110.2089 C95.8526,112.1889 98.7426,112.1079 99.2696,110.0819 C101.6846,100.8209 110.6416,92.5819 113.8026,83.9759 C116.5326,76.5419 113.8026,61.6359 113.8026,61.6359 C116.8476,76.0759 127.0776,84.8769 134.9166,89.6549 C136.8016,90.8029 138.9366,88.7289 137.9026,86.7799 C132.6306,76.8509 134.7236,64.0879 134.7236,64.0879 C136.1526,76.3469 143.2256,85.0659 157.1196,91.6039 C171.0136,98.1419 174.5556,103.0469 174.5556,112.3089 C174.5556,115.8659 175.6396,118.6989 176.9756,120.8399 C178.1776,122.7669 181.1046,122.0129 181.3536,119.7559 C182.0326,113.6089 185.7256,108.2229 185.7256,108.2229 C185.1836,119.0599 186.6816,127.7849 188.7826,134.9479 C187.0276,155.1799 174.5156,172.3319 156.9946,180.6549 L156.9936,199.0449 L160.9936,199.0449 C166.3236,199.0449 171.5146,199.6259 176.5136,200.7229 C176.5076,200.7279 176.5006,200.7319 176.4946,200.7359 C176.4946,200.7359 165.9936,210.3229 161.4646,220.6539 C160.2256,223.4779 163.9666,225.8459 165.9916,223.5189 C166.9636,222.3999 168.0886,221.4269 169.3796,220.7399 C169.3796,220.7399 159.3776,236.3809 166.2696,250.7359 C167.3496,252.9869 170.6496,252.6919 171.3266,250.2889 C172.4966,246.1369 174.4366,240.7879 177.2806,237.4949 C177.2806,237.4949 169.4106,258.1669 188.2456,268.4279 C190.1316,269.4549 192.4046,267.9089 192.1956,265.7709 C191.8326,262.0789 192.0506,257.0079 194.9886,253.2959 C199.1386,248.0539 215.4406,243.1469 225.9256,239.9049 C225.9346,239.9249 225.9456,239.9429 225.9546,239.9629 C228.2436,239.2779 230.3736,238.5709 232.3096,237.8439 C232.3276,237.8379 232.3496,237.8299 232.3686,237.8229 C232.3776,237.8199 232.3876,237.8149 232.3976,237.8119 C234.4236,237.0469 236.2316,236.2599 237.7616,235.4509 C256.8316,225.3709 262.6356,194.1249 248.9316,185.8679" id="Fill-1" fill="#b58143"/>
                <path d="M182.5146,156.2127 C176.8766,166.8587 167.9086,175.4707 156.9946,180.6547 L156.9936,199.0447 L160.9936,199.0447 C166.3186,199.0447 171.5006,199.6397 176.4946,200.7357 C184.6146,192.2167 191.9846,178.0807 182.5146,156.2127" id="Fill-4" fill-opacity=".24" fill="#000"/>
                <path d="M108.9946,199.0447 L108.9946,180.6557 C101.8026,177.2387 95.4556,172.3317 90.3486,166.3367 C90.1316,171.2767 89.0936,177.5687 85.7416,182.5987 C82.4426,187.5457 79.4976,195.4047 81.3696,203.0277 C88.7716,200.4567 96.7166,199.0447 104.9946,199.0447 L108.9946,199.0447 Z" id="Fill-6" fill-opacity=".24" fill="#000"/>
            </g>
        </g>
        <g id="Accesories" transform="translate(70.000000, 85.000000) scale(1 1)">
            <g id="Accesories/Prescription 01" stroke="none" stroke-width="1" fill="none" fill-rule="evenodd">
                <g id="Glasses" transform="translate(8.000000, 8.000000)">
                    <path d="M80.420644,2.03156667 L103.711555,2.4879 L104.418885,2.51739042 C108.716907,2.73064946 111.842183,3.56082362 114.25907,7.0052776 L115.270648,7.06122262 C117.98538,7.22356852 120.815928,7.51990231 123.241565,8.63936667 C126.626236,10.2013667 127.149293,13.7387 122.882414,14.2260333 C120.960673,14.4457 119.036739,14.0827 117.144457,13.7450333 L116.805075,13.6912775 C117.908933,23.1522104 110.598088,34.5597165 102.577413,38.0372333 C91.6003746,42.7965667 79.3375086,37.5292333 73.5337832,28.0035667 C70.9077874,23.6933472 69.3913647,17.4882292 69.0679314,12.1428905 C68.2485064,11.7454964 67.4674464,11.2201465 66.7189648,10.8553 C64.7120473,9.8773 61.3809643,9.75663333 59.2126933,10.8553 C58.4674989,11.2329059 57.6844252,11.7618811 56.860867,12.1592462 C56.5358863,17.500774 55.019749,23.6993553 52.3955746,28.0058333 C46.5921826,37.5318333 34.3293166,42.7991667 23.352278,38.0395 C15.3308758,34.5619527 8.01918948,23.1527353 9.12481053,13.6913039 L8.78716336,13.7450333 L7.91167874,13.9004644 C6.30295502,14.1806014 4.67529677,14.4119051 3.04920921,14.2260333 C-1.2176675,13.7387 -0.69461078,10.2013667 2.69005822,8.63936667 C5.41866332,7.38007813 8.65964371,7.16238412 11.6724863,7.00636982 C14.088769,3.56285878 17.2136434,2.73316872 21.5106444,2.51998225 L22.2178029,2.4905 L46.367281,2.01387049 C51.1910659,1.92297948 55.3004405,2.2797475 56.5415862,6.63986622 C58.6301126,5.82581137 61.0470363,5.38463333 62.8914864,5.38463333 C64.750063,5.38463333 67.2403142,5.83268843 69.3827667,6.65903161 C70.6884926,2.02106814 75.2241204,1.89209727 80.420644,2.03156667 Z M46.6792964,9.28413029 L45.1743719,9.26279162 C40.2545196,9.2171575 20.0180517,9.15303061 17.6158944,11.1491667 C15.2262624,13.1345 16.5340925,19.0731667 17.1565036,21.5561667 C18.2203032,25.7998333 20.6396056,30.0601667 24.1723805,32.7525 C27.160879,35.03 30.9870799,35.1875781 34.598636,34.8394006 L34.8137377,34.8154434 C34.5755438,34.8270989 36.279595,34.5883296 36.6288896,34.5222918 L36.6612747,34.5158333 C37.7297416,34.2861667 38.7985419,33.9835 39.8106684,33.5641667 C41.7165732,32.7748333 43.5084639,31.6188333 44.9776475,30.1685 C47.7666627,27.4145 48.9648125,23.7228333 49.6852359,19.9548333 C50.1572949,17.4871667 50.5553446,14.6705 50.1459601,12.1651667 C49.7671628,9.84641667 48.7581109,9.35491276 46.6792964,9.28413029 L46.6792964,9.28413029 Z M82.2432286,9.24980184 L79.6805515,9.27256667 C77.3089217,9.29523333 76.1877816,9.68923333 75.7837311,12.1625667 C75.3743466,14.6679 75.7723963,17.4845667 76.244122,19.9522333 C76.9648787,23.7202333 78.1630285,27.4119 80.9520437,30.1659 C82.4212273,31.6162333 84.213118,32.7722333 86.1190228,33.5619 C86.9624616,33.9110667 87.8452571,34.1794463 88.7344192,34.392116 L89.2684165,34.5132333 C89.5131654,34.5657289 91.2030063,34.8028032 91.1366495,34.8130415 L90.9855976,34.8019336 C94.6972751,35.192883 98.6733348,35.1001622 101.757311,32.7499 C105.290086,30.0575667 107.709388,25.7975667 108.773188,21.5539 L108.961141,20.7771479 C109.606864,17.9999642 110.480835,12.9475202 108.313797,11.1465667 C106.107164,9.3129068 88.8513244,9.2177679 82.2432286,9.24980184 L82.2432286,9.24980184 Z" id="Shape" fill-opacity=".16" fill="#000"/>
                    <path d="M80.420644,0.0315666667 L103.711555,0.4879 L104.418885,0.517390422 C108.716907,0.73064946 111.842183,1.56082362 114.25907,5.0052776 L115.270648,5.06122262 C117.98538,5.22356852 120.815928,5.51990231 123.241565,6.63936667 C126.626236,8.20136667 127.149293,11.7387 122.882414,12.2260333 C120.960673,12.4457 119.036739,12.0827 117.144457,11.7450333 L116.805075,11.6912775 C117.908933,21.1522104 110.598088,32.5597165 102.577413,36.0372333 C91.6003746,40.7965667 79.3375086,35.5292333 73.5337832,26.0035667 C70.9077874,21.6933472 69.3913647,15.4882292 69.0679314,10.1428905 C68.2485064,9.74549637 67.4674464,9.22014648 66.7189648,8.8553 C64.7120473,7.8773 61.3809643,7.75663333 59.2126933,8.8553 C58.4674989,9.2329059 57.6844252,9.7618811 56.860867,10.1592462 C56.5358863,15.500774 55.019749,21.6993553 52.3955746,26.0058333 C46.5921826,35.5318333 34.3293166,40.7991667 23.352278,36.0395 C15.3308758,32.5619527 8.01918948,21.1527353 9.12481053,11.6913039 L8.78716336,11.7450333 L7.91167874,11.9004644 C6.30295502,12.1806014 4.67529677,12.4119051 3.04920921,12.2260333 C-1.2176675,11.7387 -0.69461078,8.20136667 2.69005822,6.63936667 C5.41866332,5.38007813 8.65964371,5.16238412 11.6724863,5.00636982 C14.088769,1.56285878 17.2136434,0.733168723 21.5106444,0.519982254 L22.2178029,0.4905 L46.367281,0.0138704941 C51.1910659,-0.0770205207 55.3004405,0.279747502 56.5415862,4.63986622 C58.6301126,3.82581137 61.0470363,3.38463333 62.8914864,3.38463333 C64.750063,3.38463333 67.2403142,3.83268843 69.3827667,4.65903161 C70.6884926,0.0210681394 75.2241204,-0.10790273 80.420644,0.0315666667 Z M46.6792964,7.28413029 L45.1743719,7.26279162 C40.2545196,7.2171575 20.0180517,7.15303061 17.6158944,9.14916667 C15.2262624,11.1345 16.5340925,17.0731667 17.1565036,19.5561667 C18.2203032,23.7998333 20.6396056,28.0601667 24.1723805,30.7525 C27.160879,33.03 30.9870799,33.1875781 34.598636,32.8394006 L34.8137377,32.8154434 C34.5755438,32.8270989 36.279595,32.5883296 36.6288896,32.5222918 L36.6612747,32.5158333 C37.7297416,32.2861667 38.7985419,31.9835 39.8106684,31.5641667 C41.7165732,30.7748333 43.5084639,29.6188333 44.9776475,28.1685 C47.7666627,25.4145 48.9648125,21.7228333 49.6852359,17.9548333 C50.1572949,15.4871667 50.5553446,12.6705 50.1459601,10.1651667 C49.7671628,7.84641667 48.7581109,7.35491276 46.6792964,7.28413029 L46.6792964,7.28413029 Z M82.2432286,7.24980184 L79.6805515,7.27256667 C77.3089217,7.29523333 76.1877816,7.68923333 75.7837311,10.1625667 C75.3743466,12.6679 75.7723964,15.4845667 76.244122,17.9522333 C76.9648787,21.7202333 78.1630285,25.4119 80.9520437,28.1659 C82.4212274,29.6162333 84.213118,30.7722333 86.1190229,31.5619 C86.9624616,31.9110667 87.8452571,32.1794463 88.7344192,32.392116 L89.2684165,32.5132333 C89.5131654,32.5657289 91.2030063,32.8028032 91.1366495,32.8130415 L90.9855976,32.8019336 C94.6972751,33.192883 98.6733348,33.1001622 101.757311,30.7499 C105.290086,28.0575667 107.709388,23.7975667 108.773188,19.5539 L108.961141,18.7771479 C109.606864,15.9999642 110.480835,10.9475202 108.313797,9.14656667 C106.107164,7.3129068 88.8513244,7.2177679 82.2432286,7.24980184 L82.2432286,7.24980184 Z" id="Shape-Copy" fill="#D6EAF2"/>
                </g>
            </g>
        </g>
    </g>
</svg>
