<svg viewBox="0 0 280 280" xmlns="http://www.w3.org/2000/svg" xmlns:xlink="http://www.w3.org/1999/xlink" overflow="visible">
    <defs>
        <circle id="masteravataaardefault-with-backdrop-path-1" cx="140" cy="140" r="140"/>
        <path d="M83,36.3476251 C83,52.6289957 105.161905,65.8276544 132.5,65.8276544 C159.838095,65.8276544 182,52.6289957 182,36.3476251 C182,34.9853134 181.844841,33.6445843 181.544472,32.3313638 C210.784239,41.4879251 232,68.792221 232,101.051724 L232,110 L32,110 L32,101.051724 C32,68.3970853 53.7386736,40.8197864 83.5337207,32.0021267 C83.1821692,33.4207025 83,34.871494 83,36.3476251 Z" id="masteravataaardefault-with-backdrop-path-3"/>
    </defs>
    <g id="Master/Avataaar/Default with Backdrop" stroke="none" stroke-width="1" fill="none" fill-rule="evenodd">
        <mask id="masteravataaardefault-with-backdrop-mask-2" fill="#fff">
            <use xlink:href="#masteravataaardefault-with-backdrop-path-1"/>
        </mask>
        <use id="Oval" fill="#e8a4a4" xlink:href="#masteravataaardefault-with-backdrop-path-1"/>
        <g id="Group" mask="url(#masteravataaardefault-with-backdrop-mask-2)">
            <g transform="translate(7.000000, 0.000000)">
                <path d="M133,36 C163.927946,36 189,61.072054 189,92 L189.000809,98.1660527 C194.675838,99.1185422 199,104.05429 199,110 L199,124 C199,130.052417 194.519235,135.058294 188.693975,135.881364 C186.627928,155.686472 174.237929,172.421678 157.001014,180.610469 L157,199 L161,199 C200.764502,199 233,231.235498 233,271 L233,280 L33,280 L33,271 C33,231.235498 65.235498,199 105,199 L109,199 L108.999984,180.610943 C91.7625487,172.422324 79.3721119,155.686854 77.3051107,135.88097 C71.480765,135.058294 67,130.052417 67,124 L67,110 C67,104.053942 71.3246685,99.1179645 77.0001873,98.1658855 L77,92 C77,61.072054 102.072054,36 133,36 Z" id="Body" fill="#d08b5b" fill-rule="evenodd"/>
                <path d="M108.998216,180.610103 C116.272713,184.066155 124.410519,186 133,186 C141.588785,186 149.725969,184.066469 157.000016,180.610943 L157.000353,185.94579 C150.441661,190.398372 142.524652,193 134,193 C124.589035,193 115.918635,189.829263 108.998807,184.497795 Z" id="shadow" fill-opacity=".24" fill="#000" fill-rule="evenodd"/>
                <g id="Nose" fill="none" transform="translate(105.000000, 122.000000) scale(1 1)" fill-rule="evenodd">
                    <g id="Nose/Medium" stroke="none" stroke-width="1" fill="none" fill-rule="evenodd">
                        <path d="M16,8 C16,12.418278 21.372583,16 28,16 L28,16 C34.627417,16 40,12.418278 40,8" id="Nose" fill-opacity=".16" fill="#000"/>
                    </g>
                </g>
                <g id="Clothing" fill="none" transform="translate(1.000000, 170.000000) scale(1 1)">
                    <g id="Clothing/Gladiator" stroke="none" stroke-width="1" fill="none" fill-rule="evenodd">
                        <g id="Armor" transform="translate(56.000000, 27.000000)">
                            <polygon id="Fill-1" fill="#86e65f" points="89.8983 21.7978 62.2013 21.7978 31.6003 21.7978 0.0003 52.3028 0.0003 82.5488 62.2013 82.5488 89.8983 82.5488 152.1003 82.5488 152.1003 52.3028 120.5003 21.7978"/>
                            <path d="M31.6002,21.7976 L11.5112,41.1916 C12.1622,50.0706 19.5552,57.0766 28.6002,57.0766 L28.6002,57.0766 C38.0742,57.0766 45.7542,49.3976 45.7542,39.9236 L45.7542,21.7976 L31.6002,21.7976 Z" id="Fill-2" fill-opacity=".24" fill="#000"/>
                            <path d="M14.1613,5.9939 C14.1613,5.9939 25.3313,-0.0001 43.0393,-0.0001 L43.0393,37.7339 C43.0393,45.7089 36.5753,52.1739 28.6003,52.1739 L28.6003,52.1739 C20.6263,52.1739 14.1613,45.7089 14.1613,37.7339 L14.1613,5.9939 Z" id="Fill-4" fill="#86e65f"/>
                            <path d="M120.756,21.7976 L140.845,41.1916 C140.193,50.0706 132.801,57.0766 123.755,57.0766 C114.281,57.0766 106.602,49.3976 106.602,39.9236 L106.602,21.7976 L120.756,21.7976 Z" id="Fill-6" fill-opacity=".24" fill="#000"/>
                            <path d="M138.1945,5.9939 C138.1945,5.9939 127.0245,-0.0001 109.3165,-0.0001 L109.3165,37.7339 C109.3165,45.7089 115.7805,52.1739 123.7555,52.1739 C131.7295,52.1739 138.1945,45.7089 138.1945,37.7339 L138.1945,5.9939 Z" id="Fill-8" fill="#86e65f"/>
                            <path d="M36.5011,37.0515 C36.5011,40.9635 33.3301,44.1345 29.4181,44.1345 C25.5051,44.1345 22.3341,40.9635 22.3341,37.0515 C22.3341,33.1395 25.5051,29.9685 29.4181,29.9685 C33.3301,29.9685 36.5011,33.1395 36.5011,37.0515" id="Fill-10" fill-opacity=".24" fill="#000"/>
                            <path d="M130.839,37.0515 C130.839,40.9635 127.667,44.1345 123.755,44.1345 C119.843,44.1345 116.672,40.9635 116.672,37.0515 C116.672,33.1395 119.843,29.9685 123.755,29.9685 C127.667,29.9685 130.839,33.1395 130.839,37.0515" id="Fill-12" fill-opacity=".24" fill="#000"/>
                            <path d="M33.6227,82.5486 L62.2017,82.5486 L89.8987,82.5486 L119.0577,82.5486 C112.9127,64.8676 96.1137,52.1736 76.3397,52.1736 C56.5667,52.1736 39.7687,64.8676 33.6227,82.5486" id="Fill-14" fill-opacity=".24" fill="#000"/>
                        </g>
                    </g>
                </g>
                <g id="Mouth" fill="none" transform="translate(79.000000, 134.000000) scale(1 1)" fill-rule="evenodd">
                    <g id="Mouth/Default" stroke="none" stroke-width="1" fill="none" fill-rule="evenodd">
                        <path d="M40,15 C40,22.7319865 46.2680135,29 54,29 L54,29 C61.7319865,29 68,22.7319865 68,15" id="Mouth" fill-opacity=".7" fill="#000"/>
                    </g>
                </g>
                <g id="Eyes" fill="none" transform="translate(77.000000, 90.000000) scale(1 1)" fill-rule="evenodd">
                    <g id="Eyes/Cry" stroke="none" stroke-width="1" fill="none" fill-rule="evenodd">
                        <circle id="Eye" fill-opacity=".6" fill="#000" cx="30" cy="22" r="6"/>
                        <path d="M25,27 C25,27 19,34.2706667 19,38.2706667 C19,41.5846667 21.686,44.2706667 25,44.2706667 C28.314,44.2706667 31,41.5846667 31,38.2706667 C31,34.2706667 25,27 25,27 Z" id="Drop" fill="#92D9FF" fill-rule="nonzero"/>
                        <circle id="Eye" fill-opacity=".6" fill="#000" cx="82" cy="22" r="6"/>
                    </g>
                </g>
                <g id="Eyebrow/Outline" fill="none" transform="translate(77.000000, 82.000000) scale(1 1)" fill-rule="evenodd">
                    <g id="Eyebrow/Outline/Sad Concerned" stroke="none" stroke-width="1" fill="none" fill-rule="evenodd">
                        <path d="M15.9726042,19.4088529 C17.452356,11.0203704 30.0622688,5.22829657 39.2106453,8.9774793 C40.2254706,9.39337449 41.4016967,8.94600219 41.8378196,7.97824531 C42.2739426,7.01048842 41.8048116,5.88881678 40.7899862,5.47292159 C29.3457328,0.782843812 13.9550264,7.85221132 12.0280273,18.7760684 C11.84479,19.8148122 12.5792704,20.798534 13.6685352,20.9732726 C14.7578,21.1480113 15.7893668,20.4475967 15.9726042,19.4088529 Z" id="Eyebrow" fill-opacity=".6" fill="#000" fill-rule="nonzero" transform="translate(27.000414, 12.500000) scale(-1, -1) translate(-27.000414, -12.500000)"/>
                        <path d="M73.9726042,19.4088529 C75.452356,11.0203704 88.0622688,5.22829657 97.2106453,8.9774793 C98.2254706,9.39337449 99.4016967,8.94600219 99.8378196,7.97824531 C100.273943,7.01048842 99.8048116,5.88881678 98.7899862,5.47292159 C87.3457328,0.782843812 71.9550264,7.85221132 70.0280273,18.7760684 C69.84479,19.8148122 70.5792704,20.798534 71.6685352,20.9732726 C72.7578,21.1480113 73.7893668,20.4475967 73.9726042,19.4088529 Z" id="Eyebrow" fill-opacity=".6" fill="#000" fill-rule="nonzero" transform="translate(85.000414, 12.500000) scale(1, -1) translate(-85.000414, -12.500000)"/>
                    </g>
                </g>
                <g id="Facial Hair" fill="none" transform="translate(50.000000, 72.000000) scale(1 1)" fill-rule="evenodd">
                    <defs>
                        <path d="M105.612044,67.1316942 C111.386129,69.3374281 116.495271,75.5829845 125.36175,72.8283797 C125.730639,72.7136458 126.091098,73.0449523 125.980498,73.408662 C124.607113,77.9183313 116.972736,81.0068878 114.378714,81.1080652 C103.039714,81.5495987 93.9060174,72.8306951 84.0009784,72.1615262 C74.0951698,72.8301081 64.9612417,81.5496135 53.6221945,81.1080652 C51.0278347,81.0068878 43.3937943,77.9183313 42.0204089,73.408662 C41.9094725,73.0449523 42.2699314,72.7136458 42.6388201,72.8283797 C51.5052994,75.5829845 56.6144416,69.3374281 62.3885276,67.1316942 C67.5783507,65.1488567 77.2089224,65.7112779 84.0008729,69.2973744 C90.7925576,65.7112249 100.422466,65.1489502 105.612044,67.1316942 Z" id="facial-hairmoustache-fancy-path-1"/>
                    </defs>
                    <g id="Facial Hair/Moustache Fancy" stroke="none" stroke-width="1" fill="none" fill-rule="evenodd">
                        <mask id="facial-hairmoustache-fancy-mask-2" fill="#fff">
                            <use xlink:href="#facial-hairmoustache-fancy-path-1"/>
                        </mask>
                        <use id="Moustache-U-a-Question" fill="#d6b370" xlink:href="#facial-hairmoustache-fancy-path-1"/>
                    </g>
                </g>
                <g id="Hairstyle" fill="none" fill-rule="evenodd" transform="scale(1 1)">
                    <g id="Hairstyle/Straight Curvy" stroke="none" stroke-width="1" fill="none" fill-rule="evenodd">
                        <path d="M90,28 C109.904677,13.2403583 143.442051,8.98170328 155.047127,26.5221924 C163.696621,22.6805652 176.518413,26.1815193 186,35 C195.565732,44.4156112 203.20059,65.1998818 198.656587,82.206592 C198.762179,83.4709859 198.815476,84.7499388 198.815476,86.0408963 L198.81538,107.891574 C197.933901,102.918283 193.989239,99.0033044 189.000809,98.1660527 L189,98 L189,98 C182.96334,76.4623862 165.226514,66.5783743 154.426942,56.7746242 C137.537945,75.673255 84.8230783,75.7388921 67,113 L67,113 L67,123 C67,129.018777 71.4310943,134.002616 77.2090181,134.867253 C78.9518263,155.114813 91.4692242,172.28298 108.999984,180.610943 L109,181 L109,181 C111.930371,224.855112 102.358462,279.797432 40,263 C53.642322,255.016339 60.8468043,203.781043 61.001396,172.286981 L61,84.046252 C61,80.5176475 61.3973049,77.0818385 62.1496203,73.7811194 C65.2010611,53.7368957 76.7729938,37.8125737 90,28 Z M198.81538,125.108426 L198.815476,126.47039 C198.815476,142.298552 202.572711,157.900645 209.7782,171.993609 L236.726668,224.701177 C243.690155,238.320818 241.645331,254.175364 232.789213,265.470883 C229.966979,228.289531 198.903958,199 161,199 L161,199 L157,198.999002 L157.001014,180.610469 C174.531251,172.282329 187.048207,155.114429 188.791415,134.867236 C193.878344,134.105955 197.921578,130.151245 198.81538,125.108426 Z" id="Hair" fill="#d6b370"/>
                        <path d="M154.426942,56.7746242 C165.226514,66.5783743 182.96334,76.4623862 189,98 L188.959163,97.8569124 C182.884245,79.2637728 165.205266,72.6964956 154.429684,64.2083647 C137.535357,80.6069148 84.8226408,80.6646674 67,113 L67,113 C84.6310234,76.140404 136.405924,75.6789885 153.872441,57.3801299 Z" id="Shadow" fill-opacity=".16" fill="#000"/>
                    </g>
                </g>
                <g id="Accesories" fill="none" transform="translate(63.000000, 85.000000) scale(1 1)" fill-rule="evenodd">
                    <g id="Accesories/Eyepatch" stroke="none" stroke-width="1" fill="none" fill-rule="evenodd">
                        <path d="M93.3953074,-39.2189763 C90.3180883,-42.3072021 87.1186502,-35.3613392 85.6233609,-33.5718876 C82.0131217,-29.2513472 78.5402555,-24.817065 74.8684127,-20.5481053 C67.616309,-12.1176456 60.4393157,-3.62568595 53.2339913,4.84015276 C52.1402789,6.12570115 52.2727104,6.26490276 50.8370482,6.38856405 C49.8859796,6.4708947 48.5633124,5.98021728 47.5737003,5.92566083 C44.8236067,5.77455599 42.1120565,6.23481405 39.4357555,6.82270115 C34.0913893,7.99616083 28.4264863,9.92911244 23.7890799,12.898306 C22.5718308,13.677306 21.7874545,14.5971608 20.4670933,14.841177 C19.3183659,15.0534512 17.794416,14.6295641 16.622299,14.5194592 C14.5412806,14.3237173 11.5378542,13.4726366 9.49537926,13.9137173 C6.90275384,14.4738302 5.91742441,17.6109915 8.56045284,19.0003624 C10.570314,20.0564431 14.5706,19.4761608 16.8235816,19.6447899 C19.3971,19.8372253 18.6120649,19.704306 18.2473843,22.164306 C17.7239177,25.6975802 18.5985582,29.6464753 20.0885766,32.8782012 C23.5482655,40.383185 33.1228609,48.3352012 41.8551,47.6031528 C49.1421234,46.9924512 55.5268341,40.4132737 58.5193893,34.099935 C60.050916,30.8688705 60.9545465,27.1920963 61.2503759,23.6284028 C61.4388107,21.3618302 61.3337221,18.9580399 60.6840833,16.7632173 C60.3628876,15.6783705 59.853916,14.5554995 59.3083776,13.5695157 C58.8662806,12.7710076 56.908799,10.9203866 56.7888859,10.1165882 C56.5563074,8.56024147 60.9733241,4.38749954 61.8163391,3.34431405 C65.7889528,-1.57237949 69.7803441,-6.46791175 73.7216619,-11.4110569 C77.6033525,-16.2798069 81.5064562,-21.1359924 85.4896117,-25.9214198 C87.2942371,-28.0901214 96.3180231,-36.2851618 93.3953074,-39.2189763" id="Badass-Eyepatch" fill="#28354B"/>
                    </g>
                </g>
            </g>
        </g>
    </g>
</svg>
