<svg viewBox="45 52.5 210 202.5" xmlns="http://www.w3.org/2000/svg" overflow="visible">
    <g id="Master/Spot Illustrations/Working from Home" stroke="none" stroke-width="1" fill="none" fill-rule="evenodd">
        <g id="Desk" transform="translate(27.000000, 21.000000)">
            <g id="Texture Backgrounds" opacity=".5" transform="scale(1 1)">
                <g id="Texture Backgrounds/Abstract 1" stroke="none" stroke-width="1" fill="none" fill-rule="evenodd">
                    <path d="M184.617192,117.461967 C174.482118,107.177847 153.45464,111.841576 137.647324,127.877431 C121.843872,143.917208 117.247733,165.253914 127.382808,175.538033 C137.517882,185.822153 158.54536,181.158424 174.352676,165.122569 C190.156128,149.082792 194.752267,127.746086 184.617192,117.461967" id="Fill-38" fill="#CDEAFA"/>
                    <path d="M190.120348,52.5022327 C206.608009,78.4850917 187.231913,120.592037 146.850802,146.547208 C106.467725,172.504357 60.3647612,172.480625 43.8790659,146.497766 C27.3933705,120.514907 46.7655362,78.4099395 87.1505775,52.4527905 C127.531689,26.4976192 173.634653,26.5173961 190.120348,52.5022327" id="Fill-10" fill="#DFECFB"/>
                </g>
            </g>
            <g transform="translate(44.000000, 116.000000)">
                <polygon id="Fill-3" fill="#8F8F8F" points="6.83888328 102 0 102 27.1611167 3 34 3"/>
                <polygon id="Fill-5" fill="#8F8F8F" points="53.1611167 102 60 102 32.8388833 3 26 3"/>
                <polygon id="Fill-7" fill="#8F8F8F" points="11 80 50 80 50 75 11 75"/>
                <polygon id="Fill-9" fill="#8F8F8F" points="128.838883 102 122 102 149.161117 3 156 3"/>
                <polygon id="Fill-10" fill="#8F8F8F" points="176.161117 102 183 102 155.838883 3 149 3"/>
                <polygon id="Fill-11" fill="#8F8F8F" points="133 80 172 80 172 75 133 75"/>
                <polygon id="Fill-12" fill="#E2C1A1" points="175.351108 6 7.6488917 6 5 0 178 0"/>
            </g>
            <g id="Laptop" transform="translate(133.000000, 97.500000) scale(-1, 1) translate(-133.000000, -97.500000) translate(92.000000, 77.000000)">
                <path d="M61.8652561,39.1933374 L14.0452561,40.2253374 C12.4392561,40.2593374 11.0022561,39.2343374 10.5122561,37.7043374 L0.175256138,5.36733741 C-0.567743862,3.04733741 1.14325614,0.671337414 3.57925614,0.637337414 L50.1912561,-2.20268248e-13 C51.7362561,-0.020662586 53.1262561,0.940337414 53.6512561,2.39333741 L65.1972561,34.3363374 C66.0412561,36.6683374 64.3452561,39.1393374 61.8652561,39.1933374" id="Fill-21" fill="#BFBAB4"/>
                <path d="M63.4931561,35.4980374 L13.0741561,36.3331282 C12.7581561,36.3380374 12.4761561,36.1360374 12.3801561,35.8350374 L2.38615614,4.68703741 C2.27315614,4.33903741 2.52715614,3.98003741 2.89215614,3.97103741 L51.3281561,2.61503741 L63.4931561,35.4980374 Z" id="Fill-22" fill="#101010"/>
                <path d="M28.2998561,1.89643741 C28.2998561,2.11643741 28.1208561,2.29343741 27.9018561,2.29343741 C27.6818561,2.29343741 27.5038561,2.11643741 27.5038561,1.89643741 C27.5038561,1.67643741 27.6818561,1.49843741 27.9018561,1.49843741 C28.1208561,1.49843741 28.2998561,1.67643741 28.2998561,1.89643741" id="Fill-23" fill="#101010"/>
                <path d="M79.1035561,39.2861374 L15.6915561,40.1851374 C14.1055561,40.2081374 12.8075561,38.9291374 12.8075561,37.3431374 L12.8075561,37.3051374 L81.3255561,36.3331374 L81.3255561,37.0341374 C81.3255561,38.2651374 80.3355561,39.2691374 79.1035561,39.2861374" id="Fill-24" fill="#807A74"/>
            </g>
            <g id="Small Plant" transform="translate(189.000000, 79.000000) scale(-1, 1) translate(-189.000000, -79.000000) translate(167.000000, 41.000000) scale(1 1)">
                <g id="Small Plant/Small Vase 2" stroke="none" stroke-width="1" fill="none" fill-rule="evenodd">
                    <g id="Group-48-Copy" transform="translate(10.000000, 12.000000)">
                        <path d="M20.5539782,12.8957408 C20.1416015,13.1616273 19.7409097,13.4424146 19.3348623,13.7166827 C19.8353619,13.0512681 20.3314798,12.3821283 20.8198078,11.708332 C21.5637412,10.6508397 22.3105958,9.59567566 23,8.5 C22.1250993,9.46622482 21.3071621,10.4729612 20.4858168,11.4764381 C19.6805381,12.4915562 18.8840231,13.5127278 18.1142857,14.5525254 L17.2953748,15.658911 C16.9097758,16.0761339 16.5300192,16.4994102 16.1522101,16.9222208 C15.7373991,17.3878714 15.3367072,17.8642318 14.9321204,18.3377984 C14.5367841,18.8057772 14.1356054,19.2700307 13.7495195,19.7468569 C12.9554388,20.3838668 12.1676874,21.0287927 11.3877258,21.6811691 L9.95244074,22.8839444 C10.1578988,22.6269053 10.3609225,22.3684693 10.5639462,22.1095676 C11.0026137,21.5256418 11.4485842,20.9463726 11.8726457,20.3535995 C12.2923254,19.7575668 12.6433568,19.1205569 13.017271,18.4970509 L14.1273286,16.6223419 L14.1463165,16.590212 L14.1502114,16.5599447 C14.2329789,15.8973241 14.3103908,15.2337721 14.3887764,14.5706857 L14.4515823,14.6279608 L16.3868802,12.3490671 L14.4574247,14.0002639 C14.5869315,12.8971378 14.7140038,11.7930804 14.8396156,10.6894887 L14.7914158,10.6829696 C14.5883921,11.8652563 14.386829,13.0480086 14.1881871,14.2307609 L14.0990903,14.3066619 L14.1653043,14.3671965 C14.0474824,15.0707944 13.9296605,15.774858 13.8152466,16.4789216 L12.6380013,18.2744699 C12.2334145,18.8770217 11.8487892,19.4912147 11.4558873,20.1007512 C11.045458,20.6995778 10.6574247,21.3123739 10.2616015,21.9209791 C9.9694811,22.3926831 9.68076874,22.8662497 9.40081999,23.3463353 L9.03080077,23.6559929 L8.96945548,23.7076801 L8.96117873,23.7807873 L8.37499039,28.9322789 L7.10134529,30.9611182 L6.42265215,26.460606 L5.71279949,23.2871977 C5.7020884,23.2327166 5.60568866,22.7237606 5.45768097,22.0630025 L6.3666624,17.6793686 L6.3666624,16.3029057 L6.00151185,16.3029057 L6.00491992,17.6453761 L5.26001281,21.2243659 C5.01463165,20.2399808 4.70060218,19.1904045 4.39728379,18.7801664 L4,19.0483811 C4.46301089,19.6756123 5.04725176,22.3805762 5.23469571,23.3775339 L5.94308776,26.5425605 L6.68263933,31.4426008 L6.3890583,33.0323317 L5.69429853,38.4436563 L6.17775785,38.5 L6.87057015,33.1012479 L7.17534914,31.4500512 L7.15392697,31.3080278 L8.64081999,29.0510198 L8.65737348,29.0263403 L8.66175529,28.9942104 L9.35262012,23.903719 L11.7012684,22.0327352 C12.5036259,21.3929314 13.2991672,20.7452116 14.0864318,20.08911 L14.1073671,20.0718809 L14.1214862,20.0537205 L16.4272902,17.1331605 C16.9316848,16.4947537 17.4380269,15.8572781 17.9492377,15.2244591 L18.4463293,14.8668395 C19.2253171,14.3080589 19.9950545,13.7385683 20.7521332,13.1518486 C21.1304292,12.8575575 21.5170019,12.574442 21.887508,12.2713035 C22.2594747,11.969562 22.6363101,11.6748052 23,11.3618881 C22.5817809,11.6035607 22.1767072,11.8624624 21.7657912,12.1139136 C21.3543882,12.3648993 20.958565,12.6359079 20.5539782,12.8957408" id="Fill-99" fill="#794A33"/>
                        <path d="M11,41.4004201 C11,39.2459023 9.21332266,37.5 7.00905873,37.5 L3.9904778,37.5 C1.78667734,37.5 0,39.2459023 0,41.4004201 L0,48.5 L11,45.60028 L11,41.4004201 Z" id="Fill-100" fill="#FEC1C7"/>
                        <path d="M3.9904778,63.5 L7.00905873,63.5 C9.21332266,63.5 11,61.7024247 11,59.4847158 L11,45.5 L0,48.4847676 L0,59.4847158 C0,61.7024247 1.78667734,63.5 3.9904778,63.5" id="Fill-101" fill="#FDDCB5"/>
                        <path d="M16.9596686,7.4397617 C16.9596686,7.4397617 16.1089704,7.54930773 16.0379769,7.47294665 C15.9669833,7.39694241 16.0037041,6.855992 16.0808178,6.80032692 C16.1585434,6.74466183 16.6677383,6.5466226 16.791977,6.50737158 C16.9149916,6.46776373 16.6567221,6.59158286 16.8745987,6.7871243 C17.0930874,6.98266574 16.9596686,7.4397617 16.9596686,7.4397617" id="Fill-102" fill="#ECC9C0"/>
                        <path d="M18.7450059,4.5 C18.7450059,4.5 17.9967961,4.80662932 18.0000103,4.88396205 C18.0028675,4.96095708 18.2607231,5.02950967 18.1810807,5.19802072 C18.1014383,5.36653177 18.2689373,5.39759994 18.3510797,5.36788256 C18.433222,5.33816518 18.4567933,5.48810286 18.5307214,5.49924688 C18.6046496,5.5100532 18.5885782,5.40097691 18.6721492,5.40199 C18.7557201,5.4030031 18.8603623,5.41786178 18.8846479,5.37125953 C18.9082192,5.32431958 18.9142906,5.26285864 18.9796473,5.2142302 C19.0453612,5.16593946 18.9353619,4.90287311 18.8839336,4.83128124 C18.8321482,4.76002707 18.9489332,4.66513407 18.7450059,4.5" id="Fill-103" fill="#ECC9C0"/>
                        <path d="M20.7918696,7.04533878 C20.7918696,7.04533878 20.8497617,6.91423411 20.8252816,6.81343194 C20.8004707,6.71262977 20.868618,6.61615653 20.8395065,6.56544623 C20.8103951,6.51411752 20.6611989,6.54813052 20.6340723,6.50422283 C20.6066149,6.46031513 20.321455,6.76890583 20.1322305,6.9612339 C19.943006,7.15418039 19.9939511,7.24570629 20.0584594,7.46833685 C20.1232986,7.68973058 20.1689506,7.67055961 20.1831755,7.89875594 C20.1974005,8.12695227 20.2678634,8.3520565 20.3909255,8.46027969 C20.5139875,8.5691213 20.7015579,8.43245087 20.8103951,8.31247773 C20.9192322,8.1925046 20.5741953,8.2469254 20.7726825,8.05397891 C20.9715005,7.86041401 21.0092131,7.75899342 20.9982963,7.67179645 C20.9870487,7.58398106 20.9840713,7.32610066 20.9777859,7.30507444 C20.9721621,7.28466663 20.8103951,7.42195548 20.8070869,7.36258733 C20.8041096,7.30260076 20.7918696,7.04533878 20.7918696,7.04533878" id="Fill-104" fill="#ECC9C0"/>
                        <path d="M18.9702258,6.59738774 C18.8717553,6.4634574 18.8192378,6.47973913 18.7240496,6.57322775 C18.6291898,6.66671638 18.3321372,6.94298053 18.2346514,6.99865353 C18.1368374,7.0532761 18.1309292,7.15989516 18.1204257,7.25338378 C18.1102504,7.34739763 18.0560917,7.34372111 18.0521528,7.45664277 C18.0485422,7.57008964 18.1391351,7.61788439 18.0318023,7.84687901 C17.9244695,8.07534841 18.1135328,8.07167189 18.232682,8.20455179 C18.3518313,8.33743169 18.5704357,8.63785582 18.705012,8.4272438 C18.8395883,8.217157 18.5911145,8.06116755 18.7949484,7.8836442 C18.9987822,7.70612085 19.0000952,7.47660101 18.9433105,7.35685154 C18.8865259,7.23710206 19.0686963,6.73184329 18.9702258,6.59738774" id="Fill-105" fill="#ECC9C0"/>
                        <path d="M20.9137007,8.57271402 C20.9137007,8.57271402 20.936787,8.79134622 20.8719963,8.85006458 C20.8064608,8.91003227 20.787098,8.88317174 20.8574742,9.04995688 C20.9271057,9.21611735 20.9974819,9.18738284 20.9982266,9.33792672 C20.9989713,9.48722129 21.0123763,9.80330098 20.9520538,9.89387718 C20.8909867,9.98507804 20.7204454,10.0943941 20.7722036,10.2205762 C20.8243341,10.3473828 20.8064608,10.3898599 20.6604953,10.4791868 C20.5152746,10.5672644 20.4985183,10.3530048 20.452718,10.2611793 C20.4072899,10.1699784 20.1983955,10.0150619 20.2862727,9.74895526 C20.2862727,9.74895526 20.1187103,9.88388257 20.0822189,9.70460416 C20.0449829,9.52595042 19.9172631,9.47410335 20.0825913,9.33230475 C20.2475471,9.18988149 20.7818849,8.23227244 20.9137007,8.57271402" id="Fill-106" fill="#ECC9C0"/>
                        <path d="M30.6703133,6.54200723 C30.6703133,6.54200723 30.7855091,6.45857393 30.8395703,6.52687472 C30.8931262,6.5955845 30.8264339,6.73750291 30.8072346,6.74527366 C30.7880353,6.75386238 30.7173011,6.80498573 30.7269007,6.82052723 C30.7375109,6.83565974 30.8557381,6.75672529 30.8774636,6.81316547 C30.8991891,6.87001463 30.9047468,7.01152406 30.9744706,7.05405868 C31.0431838,7.09618432 30.8501804,7.07573498 30.9800282,7.19638608 C31.1103813,7.31703718 30.5616858,7.50598907 30.516719,7.49985427 C30.471247,7.4929015 30.4156701,7.45854661 30.3206841,7.4740881 C30.2251929,7.4896296 30.0230951,7.37061445 30.0715986,7.26223295 C30.1211125,7.15344247 30.0468416,7.06755524 30.0175374,7.06060247 C29.9882332,7.05364969 29.9786336,6.96571754 30.1291964,6.89946168 C30.2802646,6.83279683 30.262581,6.71050979 30.3282628,6.68719754 C30.3939446,6.66388529 30.6162522,6.61848776 30.6703133,6.54200723" id="Fill-107" fill="#ECC9C0"/>
                        <path d="M23.9998494,7.85198531 C23.9998494,7.85198531 23.9314368,7.41518981 23.7563547,7.5147604 C23.5812725,7.61433099 23.5826227,7.73973356 23.4048401,7.75147538 C23.2266074,7.76415654 23.2162555,7.94779851 23.1122864,8.00650759 C23.0083173,8.06568633 22.9736609,8.07977651 23.0204695,8.17089299 C23.0681783,8.26107012 23.0920326,8.40291124 23.0731292,8.42122847 C23.0542257,8.43907603 23.1955517,8.410426 23.2612637,8.37332187 C23.3269758,8.33621773 22.9997657,8.64761065 23.0150685,8.67626068 C23.0299212,8.70444103 23.2563128,8.97591178 23.1906007,9.01301592 C23.1253388,9.05058972 23.1091358,9.15532671 23.1478429,9.23000465 C23.18655,9.30421291 23.1127364,9.51603524 23.3026713,9.44511469 C23.4926062,9.37419413 23.5367143,9.34930148 23.5808224,9.43478189 C23.6258307,9.52073197 23.8067639,9.51368688 23.8495218,9.46014421 C23.8922796,9.40613186 23.8193662,9.26288173 23.9170342,9.21403578 C24.0151522,9.16612918 24.025054,9.11587421 23.9530408,8.97919949 C23.8814776,8.8420551 23.8900292,8.61520324 23.9192846,8.42404651 C23.94899,8.23288977 23.9998494,7.85198531 23.9998494,7.85198531" id="Fill-108" fill="#ECC9C0"/>
                        <path d="M21.9193736,7.02257178 C21.9193736,7.02257178 21.9046937,6.7264935 21.8088665,6.6145899 C21.7134471,6.50210347 21.6530964,6.46305377 21.554007,6.5399875 C21.4545099,6.61750406 21.08425,7.13214406 21.0434724,7.16419978 C21.0026949,7.1962555 20.9790439,7.21432327 21.0255303,7.33496934 C21.0712011,7.45561541 21.064269,7.53662895 21.0181904,7.59432925 C20.9721118,7.65202954 21.1588728,8.01455059 21.0936288,8.0652569 C21.027977,8.11596322 21.089551,8.43593759 21.1503095,8.49596921 C21.2114758,8.55716649 21.7566713,7.90556114 21.8390419,7.6252193 C21.8390419,7.6252193 22.031104,7.47543167 21.9956276,7.36294524 C21.9605589,7.24987597 21.9193736,7.02257178 21.9193736,7.02257178" id="Fill-109" fill="#ECC9C0"/>
                        <path d="M22.9380637,4.86645727 C22.9380637,4.86645727 22.750526,4.59715515 22.7408466,4.56393284 C22.7299573,4.53171726 22.5321352,4.43507051 22.1945673,4.56896652 C21.8563945,4.70386927 21.2121116,5.0048836 21.0421177,5.05371034 C20.8727288,5.10304044 21.2689779,5.62302005 21.2689779,5.62302005 C21.2689779,5.62302005 21.2048521,5.76396322 21.1352816,5.79567543 C21.0657112,5.82688427 20.9810167,6.10826723 21.1667396,6.23863966 C21.3536724,6.36850872 21.572668,6.13846934 21.5896069,6.31766851 C21.6053359,6.49686768 21.7275379,6.56280894 22.0209437,6.4294163 C22.3155594,6.29652703 22.8860371,5.97235775 22.826751,5.69198153 C22.7674648,5.41059857 22.6997093,5.37586614 22.9247546,5.27418572 C23.1497998,5.17200192 22.7831938,4.95555349 22.9380637,4.86645727" id="Fill-110" fill="#ECC9C0"/>
                        <path d="M23.7686242,4.98673022 C23.7686242,4.98673022 23.7393549,4.95550324 23.8598468,4.8967472 C23.979851,4.83840205 24.0281453,4.69007388 23.9837535,4.61447171 C23.9398496,4.53886954 23.9608259,4.46285648 23.8354557,4.51996899 C23.7100856,4.57749238 23.2481184,4.81909062 23.1705547,4.87620313 C23.0939667,4.93372652 23.1217725,5.01713544 23.0539653,5.04836242 C22.9861581,5.07958941 22.9807921,5.14491954 23.0461602,5.23325904 C23.1115283,5.32077677 23.2022631,5.58990406 23.4886145,5.46951582 C23.7749658,5.34953846 23.7437453,5.30105446 23.7686242,5.19710148 C23.7935031,5.09355937 23.9135072,5.07548059 23.8837501,5.0224769 C23.853993,4.9694732 23.7686242,4.98673022 23.7686242,4.98673022" id="Fill-111" fill="#ECC9C0"/>
                        <path d="M29.8491163,11.7898926 C29.8491163,11.7898926 29.7727714,11.653572 29.8772434,11.5578975 C29.9825191,11.4615977 30.0202898,11.4734788 29.9897518,11.2771272 C29.958812,11.079525 29.8768416,10.5311162 29.8422855,10.5011007 C29.8077293,10.4710851 29.1170083,11.0645172 29.1202228,11.1139178 C29.1226337,11.1633183 29.0989266,11.421577 29.0655759,11.4497165 C29.0322252,11.4778561 29.1724588,11.6885901 29.1041502,11.7379907 C29.0358415,11.7873913 28.9775782,11.9631072 29.008518,12.0112571 C29.0394578,12.059407 29.0647722,12.0900479 29.0675849,12.125066 C29.0703976,12.1600841 29.1427245,12.3808233 29.2371511,12.3089111 C29.331176,12.2363736 29.3866265,12.2713917 29.3649285,12.3195416 C29.3432305,12.3670662 29.3122907,12.4827511 29.3801975,12.4996348 C29.4485061,12.5165185 29.8696089,11.9430968 29.8491163,11.7898926" id="Fill-112" fill="#ECC9C0"/>
                        <path d="M24.5185355,7.39819755 C24.5185355,7.39819755 24.4634059,7.44665635 24.439779,7.46772539 C24.4158239,7.48826771 24.329848,7.51881782 24.3121278,7.48458063 C24.2940794,7.45034343 24.2517478,7.22385123 24.2461692,7.15326994 C24.2409188,7.08321537 24.3387081,7.0331764 24.3524905,7.00051938 C24.3666011,6.96891582 23.9862727,6.51435123 24.0003832,6.16355168 C24.0148219,5.8122254 24.8929571,5.35713408 24.9346325,5.54306838 C24.9763078,5.72900268 24.9441489,5.81643921 24.9802456,5.92283787 C24.9802456,5.92283787 25.0261869,6.01132785 24.9779485,6.05346593 C24.9300383,6.09507729 24.8181384,6.14090246 24.8808155,6.31682896 C24.9428363,6.49275546 24.9720418,6.50697707 24.9221627,6.56755056 C24.8722835,6.62865078 24.3948221,7.19382784 24.4266529,7.28811181 C24.4584837,7.38239577 24.5172229,7.23385902 24.5185355,7.39819755" id="Fill-113" fill="#ECC9C0"/>
                        <path d="M26.8875009,9.61801071 C26.8875009,9.61801071 26.7893313,9.47972826 26.7358435,9.50254136 C26.6826818,9.52465251 26.1197553,9.79384701 26.0633322,9.80964069 C26.0065829,9.82543437 25.9866881,9.85000232 26.008866,9.89387365 C26.0307177,9.93739402 26.0793133,10.0651473 26.1262782,10.0858546 C26.172917,10.1065619 26.2172727,10.1539429 26.1944425,10.2283487 C26.1716124,10.3027545 26.1177984,10.3648763 26.2508656,10.5 C26.2508656,10.5 26.5972318,10.3838287 26.6464797,10.3420632 C26.6954015,10.2999467 26.5874474,10.2546715 26.6605039,10.2076414 C26.7335604,10.1602604 26.9859968,10.0040784 26.9990426,9.96582264 C27.0120884,9.92791781 26.8875009,9.61801071 26.8875009,9.61801071" id="Fill-114" fill="#ECC9C0"/>
                        <path d="M26.4235793,5.6566143 C26.4235793,5.6566143 26.4750887,5.47857163 26.2942801,5.50215118 C26.1139972,5.52573073 24.9560864,5.71573403 25.0012886,5.93478461 C25.0464907,6.15417691 25.366585,6.03081146 25.366585,6.03081146 C25.366585,6.03081146 25.4901024,6.29770459 25.5237413,6.31069043 C25.5584313,6.32367626 25.8201832,6.29599593 25.8617061,6.34623061 C25.9037546,6.3964653 25.9016522,6.52222288 26.0877168,6.49659294 C26.2737815,6.47062127 26.7037275,6.41355193 26.7000482,6.35477393 C26.6974202,6.29565419 26.6254121,6.31103216 26.7615442,6.25293762 C26.8971506,6.19450135 26.8367059,6.06600991 26.7836196,5.97955157 C26.7300078,5.89343497 27.0569349,5.89787749 26.9912341,5.80116717 C26.9255333,5.70411512 27.0096304,5.69420488 26.9470832,5.6566143 C26.884536,5.61868198 26.8346034,5.64123633 26.7925549,5.59134338 C26.7505064,5.54076696 26.4235793,5.6566143 26.4235793,5.6566143" id="Fill-115" fill="#ECC9C0"/>
                        <path d="M22,2.53019716 C22,2.53019716 21.8665068,3.75430411 21.7786465,3.95047509 C21.6904457,4.14664608 21.2225385,4.56308906 21.1745218,4.49190702 C21.1265051,4.42072497 20.9511251,3.36924849 21.013104,3.24313857 C21.0747425,3.11758914 21.1156077,3.13104086 21.0618018,2.9679387 C21.0079959,2.80483654 21.8477769,2.38447014 22,2.53019716" id="Fill-116" fill="#ECC9C0"/>
                        <path d="M30.9830012,4.75798785 C30.9830012,4.75798785 31.0146276,4.59454713 30.9896427,4.52796017 C30.9649742,4.46090757 30.0946165,4.5163191 30.0247222,4.6741721 C29.9541954,4.8320251 30.0569811,4.97311495 30.0569811,4.97311495 C30.0569811,4.97311495 30.2328237,5.00105353 30.1806402,5.08347236 C30.1284567,5.16589118 30.2489532,5.45458988 30.2812121,5.45552117 C30.3137872,5.45645246 30.464645,5.4299108 30.4750817,5.48299411 C30.4855184,5.53514614 30.6389063,5.46623096 30.6708489,5.29161481 C30.7027916,5.1174643 30.8014658,5.32234725 30.8416313,5.18218869 C30.8814806,5.04203012 30.858077,4.97963395 30.9184834,5.00524432 C30.9785735,5.03178598 31.0269619,4.86462011 30.9830012,4.75798785" id="Fill-117" fill="#ECC9C0"/>
                        <path d="M29.869739,1.01092499 C29.869739,1.01092499 29.9467919,0.854819549 29.9631787,0.780680977 C29.9795655,0.706542404 29.9471406,0.613523822 29.9300564,0.571619412 C29.9126236,0.529715001 29.8153487,0.521886705 29.6598482,0.502085719 C29.5046964,0.481824246 29.5660598,0.616286751 29.4060268,0.598788205 C29.2463425,0.581750148 29.2916677,0.806007818 29.2595914,0.828571732 C29.2278637,0.851135645 28.983456,0.95750838 29.0008888,0.99941279 C29.0183216,1.04085671 29.0629496,1.38944615 29.1787033,1.32912222 C29.294457,1.26971926 29.453444,1.51239645 29.5364241,1.49950279 C29.6190555,1.48614864 29.9736384,1.43319251 29.997347,1.29182269 C30.0217529,1.15045286 29.869739,1.01092499 29.869739,1.01092499" id="Fill-118" fill="#ECC9C0"/>
                        <path d="M26.0000317,3.9929863 C26.0000317,3.9929863 26.1769057,3.98763536 26.2387959,4.13622683 C26.3003719,4.28440668 26.2545041,4.38936742 26.3804836,4.34450185 C26.5064631,4.29963628 26.2670706,4.55195365 26.5303396,4.49021204 C26.7942369,4.42847043 26.992474,4.34120896 26.9968723,4.20290776 C27.0012706,4.06419495 27.0106955,3.80446859 26.9440928,3.74396182 C26.877176,3.68304343 26.8203124,3.73243672 26.7449132,3.61512766 C26.6691998,3.497407 26.525313,3.48300062 26.3798553,3.51428304 C26.2343976,3.54556545 26.0920816,3.58425686 26.0449571,3.63611981 C25.9972042,3.68798276 26.0000317,3.9929863 26.0000317,3.9929863" id="Fill-119" fill="#ECC9C0"/>
                        <path d="M28.0874923,8.5 C28.0874923,8.5 28.7907846,8.60054256 28.8104375,8.62827844 C28.8297394,8.65601432 28.8093846,8.74303565 28.8785206,8.7527432 C28.9480076,8.76175737 28.9536227,8.80994846 28.920283,8.82763008 C28.8869433,8.8453117 28.8925584,8.92609245 28.9262491,8.93198633 C28.9592378,8.9378802 29.0017021,8.99127177 28.9999473,9.08141338 C28.9981926,9.17155499 28.9409887,9.17675547 28.8683433,9.2155857 C28.7953469,9.25510933 28.9146679,9.30122023 28.7925393,9.36674624 C28.6700598,9.43261896 28.6598824,9.33623678 28.6251389,9.35079811 C28.5903954,9.36535945 28.5296821,9.55916391 28.4054478,9.48185015 C28.2815645,9.40418968 28.2671758,9.38685476 28.2584022,9.3317297 C28.2499795,9.27729803 28.2103228,9.29879334 28.1559265,9.29393956 C28.1018811,9.28908578 28.0716999,9.19513049 28.0787187,9.15352667 C28.0853867,9.11157615 28.2201493,8.88102165 28.1534699,8.80717487 C28.0871414,8.73332809 27.8856994,8.74858282 28.0874923,8.5" id="Fill-120" fill="#ECC9C0"/>
                        <path d="M25.0939066,3.70038626 C25.0939066,3.70038626 25.0378909,3.58426702 25.1433137,3.51342171 C25.2487366,3.4425764 25.5008073,3.6790069 25.7000092,3.60187355 C25.8992111,3.52432099 26.0294948,3.70918952 25.994249,3.76787794 C25.9596326,3.82698557 25.8117259,4.34763571 25.794103,4.4168042 C25.7758507,4.4855535 25.5530466,4.47423502 25.5061571,4.44111798 C25.4589528,4.40800094 25.4539177,4.52956981 25.3802791,4.49309915 C25.3069551,4.45704769 25.3094727,4.3602118 25.2865,4.37656071 C25.2638419,4.39290963 24.9541821,4.28265924 25.005792,4.110786 C25.057402,3.93891277 25.0939066,3.70038626 25.0939066,3.70038626" id="Fill-121" fill="#ECC9C0"/>
                        <path d="M24.4170571,0.5 C24.4170571,0.5 23.980584,0.68981367 24.0006728,0.722469785 C24.021979,0.755806236 24.1936462,1.2929313 24.184515,1.3681084 C24.1753837,1.44260516 24.1583387,1.54601619 24.4907157,1.47764245 C24.8224839,1.40960888 25.2242583,1.42491643 25.2668707,1.37219041 C25.3100919,1.32014473 25.1481646,1.23850444 25.3636618,1.21843454 C25.5791589,1.19904497 25.6029001,1.21129101 25.66621,1.11978585 C25.7295199,1.02862087 25.7356074,0.902418587 25.9437996,0.839147364 C26.1519917,0.775876141 25.7276937,0.629944125 25.549939,0.663960912 C25.3721843,0.698317867 24.4170571,0.5 24.4170571,0.5" id="Fill-122" fill="#ECC9C0"/>
                        <path d="M27,1.64030384 C27,1.64030384 27.0974834,1.94971441 27.1887324,1.98539949 C27.2799814,2.02108456 27.1479254,1.77170887 27.376898,2.04207578 C27.6053039,2.3128625 27.4454765,2.55678047 27.7044876,2.4883491 C27.9634987,2.41991772 28.7932412,2.26584217 28.8255467,2.13233802 C28.8572855,1.99883387 28.6611852,1.9098311 28.82498,1.85567375 C28.9887747,1.80151641 29.0465847,1.67179067 28.9598698,1.54038564 C28.8731549,1.40898061 27,1.64030384 27,1.64030384" id="Fill-123" fill="#ECC9C0"/>
                        <path d="M32.3664545,5.69444692 L32.5942538,5.61913457 C32.8220531,5.54382223 33.6258761,5.53805669 33.7700304,5.50778761 C33.9141846,5.47715819 33.7492674,5.53769634 33.8062173,5.67498822 C33.8625739,5.81264045 33.7777423,5.83498191 33.7261316,5.85191818 C33.675114,5.86885445 34.0417285,5.93840126 33.99605,5.98272383 C33.9497783,6.02668606 33.7789288,6.04830683 33.8287599,6.13623129 C33.8791842,6.2237954 33.6674021,6.34306998 33.4413824,6.4018064 C33.2153628,6.46054282 33.0658695,6.40036502 32.8499348,6.48901017 C32.6345932,6.57765532 32.5023035,6.10091737 32.5023035,6.10091737 C32.5023035,6.10091737 32.3581493,6.14235717 32.3142505,6.0933501 C32.2709449,6.04434302 31.8106004,5.79714557 32.0888241,5.74597641 L32.3664545,5.69444692 Z" id="Fill-124" fill="#ECC9C0"/>
                        <path d="M31.0694838,2.61105627 C31.0694838,2.61105627 31.5383901,2.49448935 31.626845,2.50020342 C31.7149829,2.50629842 31.7619053,2.54705875 31.8142173,2.5840097 C31.8665294,2.62096065 31.9549843,2.76952634 31.9914442,2.97561361 C32.0279042,3.18170088 31.9467412,3.48302257 31.7688802,3.49902195 C31.5913362,3.51502133 31.6455506,3.32912375 31.5634365,3.3508372 C31.4810054,3.37331252 31.2733423,3.45369037 31.2568561,3.34550407 C31.2406869,3.23693684 31.2879263,3.23769872 31.1462082,3.10817991 C31.0048071,2.97866111 31.1563535,2.97256611 31.1053096,2.89180732 C31.0545828,2.81104854 30.9176203,2.74247976 31.0694838,2.61105627" id="Fill-125" fill="#ECC9C0"/>
                        <path d="M30.0548118,2.51973707 C30.0548118,2.51973707 30.3324332,2.6078487 30.4299449,2.54567857 C30.5274566,2.48350844 30.5565189,2.48663931 30.5829044,2.5438895 C30.6096723,2.60113969 30.5752564,2.52331521 30.6926528,2.6431828 C30.8104316,2.76349765 30.9557432,2.90662313 30.9251513,3.02917432 C30.894177,3.15127824 31.0869059,3.52787715 30.950772,3.49835752 C30.8138732,3.46973242 30.7125376,3.53458615 30.5496357,3.39146068 C30.3867339,3.24922974 30.2834862,3.32526514 30.1702962,3.02738525 C30.0571062,2.72995262 29.9225018,3.0497486 30.0548118,2.51973707" id="Fill-126" fill="#ECC9C0"/>
                        <path d="M28,12.0102337 C28,12.0102337 27.7954176,11.7532161 27.8772506,11.6648021 C27.9595433,11.5763881 27.9691977,11.4185793 27.7517427,11.5506863 C27.5338279,11.6833073 27.5108412,11.7994793 27.1655796,11.9079407 C26.8198583,12.0164021 27.1228242,12.5443161 27.1228242,12.5443161 C27.1228242,12.5443161 27.0037526,12.7442758 27.1071932,12.9103091 C27.2106337,13.0758284 27.3099366,12.9519459 27.3361416,13.0758284 C27.3618868,13.1997108 27.3834943,13.5939757 27.6349698,13.4793459 C27.8859855,13.3647161 27.4336055,13.0167143 27.691977,12.8594196 C27.9503485,12.7021249 27.9737951,12.7504442 27.9751743,12.4959968 C27.9760937,12.2410354 27.7577193,12.2595407 28,12.0102337" id="Fill-127" fill="#ECC9C0"/>
                        <path d="M3.98300208,15.7579878 C3.98300208,15.7579878 4.01462682,15.5940815 3.98964328,15.5279602 C3.96497598,15.4609076 3.09466309,15.5163191 3.02477241,15.6741721 C2.95424924,15.8320251 3.0567134,15.9731149 3.0567134,15.9731149 C3.0567134,15.9731149 3.23254697,16.0010535 3.18036614,16.0834724 C3.12850157,16.1658912 3.24899183,16.4545899 3.28124907,16.4555212 C3.31382255,16.4564525 3.46467257,16.4299108 3.47510873,16.4829941 C3.4855449,16.5351461 3.63892489,16.466231 3.67086588,16.2916148 C3.70280687,16.1174643 3.80147607,16.3223473 3.84163949,16.1821887 C3.88148666,16.0420301 3.85808435,15.979634 3.91848761,16.0052443 C3.97857462,16.031786 4.02696047,15.8646201 3.98300208,15.7579878" id="Fill-128" fill="#ECC9C0"/>
                        <path d="M1.76729675,16.5 C1.76729675,16.5 1.25867149,16.5577595 1.19289013,16.5762105 C1.12679403,16.5950625 1.06793702,16.6423933 1.01852232,16.6500143 C0.968792869,16.6576354 1.02953834,16.7627256 1.07926778,16.7924076 C1.12899723,16.8224907 0.998064,17.0342756 1.12522031,17.0603476 C1.25237663,17.0864196 1.30430928,17.009808 1.31626953,17.1497946 C1.32854452,17.2893801 1.28636891,17.5613312 1.39212267,17.4875274 C1.49819118,17.4137236 1.62660647,17.4057014 1.74022882,17.3266832 C1.85416591,17.2472638 1.95488378,17.1979276 1.98730235,17.1012606 C2.02003565,17.0045936 1.98415491,16.7414669 1.94009084,16.6696686 C1.89602678,16.5982714 1.78995827,16.6520199 1.76729675,16.5" id="Fill-129" fill="#ECC9C0"/>
                        <path d="M7,7.77915788 C7,7.77915788 7.17181507,7.8584479 7.18401691,8.00961765 C7.19588897,8.16115792 7.11773125,8.22599788 7.25393014,8.24859924 C7.38946948,8.27083009 7.07782794,8.36642273 7.35154485,8.43941401 C7.62526176,8.51240529 7.8439055,8.5338951 7.8920533,8.42162933 C7.94086065,8.30973407 8.0328691,8.09965258 7.9880191,8.01850999 C7.9431691,7.93662637 7.87259631,7.95070591 7.83763969,7.81806186 C7.80268308,7.68541781 7.66879264,7.60538676 7.51874301,7.56314816 C7.36869338,7.52090955 7.21930331,7.48534019 7.15730478,7.50608898 C7.09497647,7.52609675 7,7.77915788 7,7.77915788" id="Fill-130" fill="#ECC9C0"/>
                        <path d="M10.3051183,7.5 C10.3051183,7.5 10.9376107,7.84418478 10.9442222,7.8748579 C10.9515682,7.90585391 10.8946365,7.97268904 10.957445,8.00594516 C11.0202535,8.03952417 11.0051941,8.08246655 10.9658929,8.08537242 C10.9262244,8.08860117 10.8975749,8.1593108 10.926959,8.17674605 C10.9567104,8.19385843 10.9747081,8.25552756 10.9350396,8.33140319 C10.8950038,8.40792457 10.8377048,8.39145794 10.7517564,8.39791544 C10.6650733,8.40469582 10.7605716,8.48799758 10.6151204,8.49897533 C10.4696692,8.51027595 10.5008898,8.4243912 10.4612213,8.42374545 C10.4215527,8.42342257 10.281611,8.56677908 10.194928,8.45506432 C10.1086122,8.34334957 10.1027354,8.32300844 10.1174275,8.27328568 C10.1321195,8.22324006 10.085105,8.22679168 10.0355193,8.20289893 C9.98556638,8.17900618 9.99585081,8.08763255 10.02046,8.05437642 C10.0447019,8.02112029 10.2713266,7.87388928 10.2386368,7.78639015 C10.2063143,7.69889102 10.0065025,7.63819051 10.3051183,7.5" id="Fill-131" fill="#ECC9C0"/>
                        <path d="M10.4323306,8.62264392 C10.4323306,8.62264392 10.4011025,8.50789232 10.6257042,8.50012452 C10.8509065,8.49306288 11.156581,8.78859238 11.5487332,8.81789818 C11.9420864,8.84720397 12.0639959,9.04846062 11.9697112,9.0781195 C11.874826,9.10813145 11.3187266,9.44391229 11.2472624,9.48910676 C11.1763988,9.53465432 10.7932547,9.42555203 10.7295975,9.37929831 C10.6665409,9.3326915 10.5878703,9.4241397 10.4797732,9.36305654 C10.3716761,9.30232647 10.4317301,9.22853236 10.3824858,9.23135702 C10.3338421,9.23347551 9.85521233,9.00962162 10.0437817,8.89981316 C10.2317505,8.79071088 10.4323306,8.62264392 10.4323306,8.62264392" id="Fill-132" fill="#ECC9C0"/>
                        <path d="M13.8338144,9.5 C13.8338144,9.5 13.3325403,9.57702668 13.3274136,9.61179094 C13.3234262,9.64689602 13.1115239,10.1785846 13.0539913,10.2453865 C12.9958891,10.3121884 12.9127232,10.403189 13.2431084,10.4147771 C13.5734936,10.4263652 13.9084358,10.5299763 13.9796396,10.4914629 C14.0514129,10.4532904 13.9671077,10.3418403 14.1653388,10.3721738 C14.3635699,10.4018257 14.3749625,10.4185262 14.4905974,10.3489977 C14.6056626,10.2791283 14.695664,10.1646108 14.9161107,10.1530227 C15.137127,10.1414346 14.87111,9.9123995 14.6962337,9.9045605 C14.5207877,9.89603985 13.8338144,9.5 13.8338144,9.5" id="Fill-133" fill="#ECC9C0"/>
                        <path d="M3,18.6765067 C3,18.6765067 4.39934138,18.2583463 4.71095695,18.7092779 C5.02198679,19.1606464 4.61196629,18.8989139 4.90718105,19.2279366 C5.20181006,19.5569594 4.7115427,19.4097075 4.59087952,19.3563997 C4.47021635,19.3035288 4.13985698,19.6006543 3.87510089,19.4634522 C3.61093054,19.3258132 3.82941289,19.1759397 3.43637896,19.2742532 C3.04334502,19.3730038 3.47269506,19.3231915 3.23605466,18.9998491 L3,18.6765067 Z" id="Fill-134" fill="#ECC9C0"/>
                        <path d="M5.04097187,9.5 C5.04097187,9.5 4.9588142,9.79981486 5.02717898,9.85696078 C5.09554376,9.9141067 5.10933666,9.65775493 5.17710175,9.96038684 C5.24486684,10.2630188 4.95101821,10.4316395 5.240669,10.4453223 C5.53031979,10.4586027 6.42445919,10.5584068 6.5312042,10.4501515 C6.63794922,10.3418962 6.49882089,10.207885 6.68832327,10.2066777 C6.87782565,10.2054704 7.0085583,10.1084833 6.99956294,9.96803313 C6.98996788,9.82758295 5.04097187,9.5 5.04097187,9.5" id="Fill-135" fill="#ECC9C0"/>
                        <path d="M8.22406324,11.5226261 L8.36077553,11.5079055 C8.49717425,11.493185 8.88881107,11.6969483 8.96939606,11.704696 C9.0496675,11.7120563 8.94901464,11.7287137 8.92831966,11.8790182 C8.9082518,12.0293228 8.8593364,12.0293228 8.82860749,12.0324218 C8.79756502,12.0359083 8.95120957,12.1997712 8.91358233,12.2315366 C8.87595509,12.2629146 8.78564973,12.240059 8.77937852,12.339229 C8.77310732,12.438399 8.6294967,12.5007676 8.49936918,12.5 C8.36924165,12.4992181 8.31781776,12.4008229 8.18235972,12.4318135 C8.04752879,12.4631915 8.14880876,11.9584317 8.14880876,11.9584317 C8.14880876,11.9584317 8.0647746,11.9623055 8.06069832,11.9022612 C8.05630848,11.8426043 7.91928263,11.4792392 8.07198649,11.5009326 L8.22406324,11.5226261 Z" id="Fill-136" fill="#ECC9C0"/>
                        <path d="M6.79176407,12.8106902 C6.79176407,12.8106902 6.92605152,12.81307 6.9273811,12.8287092 C6.92871067,12.8443484 6.99618679,12.8695071 6.99951074,12.775332 C7.00283468,12.6808169 6.99186566,12.6386591 6.88284021,12.6481786 C6.77447955,12.6583781 6.55842303,12.5951414 6.41649051,12.5529836 C6.27489038,12.5108258 6.03490144,12.4815873 6.02991552,12.5135456 C6.0245972,12.545504 6,12.7474535 6,12.7474535 C6,12.7474535 6.11367897,12.8038905 6.12298602,12.8542079 C6.13262547,12.9041853 6.11135221,13.1768511 6.15655788,13.2431477 C6.20209595,13.3101242 6.70800062,13.3978396 6.76184856,13.4437372 C6.81569649,13.4899748 6.93602336,13.5498117 6.92937546,13.428438 C6.92272757,13.3077443 6.88383739,13.3033245 6.87785429,13.2332882 C6.87187119,13.1632518 6.84660919,13.1812709 6.84295285,13.1384331 C6.83929651,13.0955953 6.86821485,13.0340585 6.85093032,13.0082199 C6.83331341,12.9823812 6.69869357,12.8871862 6.79176407,12.8106902" id="Fill-137" fill="#ECC9C0"/>
                        <path d="M10.1425103,13.5 C10.1425103,13.5 10.6859549,13.6019255 10.7778772,13.6425647 C10.8697995,13.6835315 10.9032592,13.7349859 10.9448081,13.7857848 C10.9859893,13.8365837 11.0231259,13.9902914 10.9823124,14.1679237 C10.9418666,14.345556 10.7392699,14.5497348 10.5443946,14.4891039 C10.3491517,14.4284729 10.4785783,14.3039337 10.3822437,14.2872192 C10.2862768,14.2711602 10.0344097,14.2485465 10.0586772,14.156453 C10.0836801,14.0643595 10.1333181,14.0843513 10.032939,13.9237612 C9.93255983,13.7631711 10.0958138,13.8208525 10.0726494,13.7362969 C10.049485,13.6517413 9.93072138,13.5406391 10.1425103,13.5" id="Fill-138" fill="#ECC9C0"/>
                        <path d="M6.23738189,14.5 L7.51358578,14.6679671 C7.51358578,14.6679671 7.79334327,14.9186717 7.89650764,14.932129 C7.999672,14.9455863 7.95901311,15.3961567 7.88922545,15.4529765 C7.81883094,15.5102946 8.06581857,15.440516 7.98268023,15.8527082 C7.90014873,16.264402 7.76360766,16.5245766 7.69685425,16.4981604 C7.63070768,16.4717442 7.09668038,16.2185475 7.09668038,16.2185475 L7.12338174,15.9773129 L6.40244488,15.5411966 L6.43642843,14.8663377 C6.43642843,14.8663377 5.99221481,14.9346211 6.00010385,14.8194864 C6.00859974,14.7043516 6.23738189,14.5 6.23738189,14.5" id="Fill-139" fill="#ECC9C0"/>
                        <path d="M7.19237242,16.5 C7.19237242,16.5 7.47064408,16.6586031 7.60835531,16.649848 C7.74606654,16.6414295 7.77740772,16.6532153 7.78358098,16.702379 C7.78975425,16.7512058 7.78358098,16.6855421 7.86620772,16.8097981 C7.94930933,16.934054 8.05425479,17.083902 7.96735425,17.1576474 C7.88045371,17.2313928 7.94028687,17.5590379 7.79735211,17.4906803 C7.65441735,17.4226594 7.51148258,17.4317513 7.38611787,17.2758421 C7.26122803,17.1202696 7.11117027,17.136433 7.10832108,16.8909517 C7.10594674,16.6461439 6.81722802,16.81889 7.19237242,16.5" id="Fill-140" fill="#ECC9C0"/>
                        <path d="M3.36947966,11.5 C3.36947966,11.5 3.905885,11.7477746 4.30402437,11.7785404 C4.70160845,11.8087568 4.98813553,11.9142395 4.96148185,12.0603771 C4.93482817,12.2059652 4.96037128,12.2559596 4.99535424,12.3960539 C5.03033719,12.5366975 4.85486712,12.4867031 4.89817936,12.67844 C4.94149159,12.8701768 4.73214913,13.3316638 4.73214913,13.3316638 C4.73214913,13.3316638 4.18019581,13.2366195 4.32568048,13.3673741 C4.47005459,13.4981288 4.65274337,13.4690111 4.47005459,13.4981288 C4.28847639,13.526697 3.90532971,13.221786 3.99250946,13.0185119 C4.07968921,12.8152379 3.6054758,12.9608261 3.6126945,12.7515088 L3.62046849,12.5416421 C3.62046849,12.5416421 3.12015668,12.6476742 3.19956244,12.3812204 C3.27952348,12.115316 2.60318631,11.624162 3.36947966,11.5" id="Fill-141" fill="#ECC9C0"/>
                    </g>
                </g>
            </g>
            <g id="Chair" transform="translate(20.500000, 117.000000) scale(1 1)">
                <g id="Chair/Wooden 1" stroke="none" stroke-width="1" fill="none" fill-rule="evenodd">
                    <g id="Chair">
                        <path d="M17.2691839,54.1488091 L3.60818391,109.333809 C3.88418391,110.252809 4.98818391,110.618809 5.75918391,110.045809 L5.82918391,109.994809 L21.0111839,54.4638091 L17.2691839,54.1488091 Z" id="Fill-1" fill="#D69E63"/>
                        <path d="M32.5138839,56.5482091 L33.0108839,116.231209 C33.5118839,117.049209 34.6728839,117.121209 35.2718839,116.372209 L35.3258839,116.304209 L36.2128839,55.8992091 L32.5138839,56.5482091 Z" id="Fill-3" fill="#D69E63"/>
                        <path d="M34.1920839,46.9115091 L41.4460839,106.153509 C42.0370839,106.909509 43.1990839,106.849509 43.7090839,106.037509 L43.7550839,105.964509 L37.7940839,45.8475091 L34.1920839,46.9115091 Z" id="Fill-5" fill="#D69E63"/>
                        <path d="M50.9259839,49.6917091 L66.0869839,107.419709 C66.7739839,108.088709 67.9169839,107.874709 68.3129839,107.000709 L68.3489839,106.920709 L54.3519839,48.1537091 L50.9259839,49.6917091 Z" id="Fill-7" fill="#D69E63"/>
                        <path d="M19.5914839,13.1859091 C19.5914839,13.1859091 6.32548391,15.1539091 1.39648391,10.2249091 C-3.53251609,5.29590909 5.37648391,0.795909093 15.7714839,0.0939090928 C28.1444839,-0.741090907 40.7344839,4.14190909 32.3834839,8.79590909 C24.0314839,13.4509091 19.5914839,13.1859091 19.5914839,13.1859091" id="Fill-9" fill="#D69E63"/>
                        <path d="M8.01088391,11.6722091 C8.01088391,11.6722091 15.8068839,45.8842091 16.6388839,46.7922091 C17.4718839,47.7002091 18.9098839,46.1872091 18.9098839,46.1872091 C18.9098839,46.1872091 11.8708839,14.3972091 10.6598839,12.8082091 C9.44888391,11.2182091 8.01088391,11.6722091 8.01088391,11.6722091" id="Fill-11" fill="#D69E63"/>
                        <path d="M18.1529839,11.1429091 C18.1529839,11.1429091 20.5749839,32.9409091 23.8299839,44.4459091 C23.8299839,44.4459091 24.2079839,45.4299091 25.1169839,45.4299091 C26.0249839,45.4299091 26.0249839,44.5969091 26.0249839,44.5969091 C26.0249839,44.5969091 22.3159839,7.13090909 18.1529839,11.1429091" id="Fill-13" fill="#D69E63"/>
                        <path d="M26.7061839,9.93200909 C26.7061839,9.93200909 29.4311839,42.4030091 30.2631839,43.9160091 C31.0961839,45.4300091 32.4581839,43.8400091 32.4581839,43.8400091 C32.4581839,43.8400091 29.6581839,10.9920091 28.5981839,8.26600909 C27.5391839,5.54100909 26.7061839,9.93200909 26.7061839,9.93200909" id="Fill-15" fill="#D69E63"/>
                        <path d="M57.2848839,48.3822091 C57.2848839,48.3822091 25.4198839,37.4062091 13.9148839,48.9112091 C13.9148839,48.9112091 14.5198839,50.6532091 20.5758839,53.2262091 C26.6308839,55.7992091 36.5458839,55.8752091 41.6928839,54.6642091 C46.8398839,53.4532091 56.4518839,51.1072091 57.2848839,48.3822091" id="Fill-17" fill="#D69E63"/>
                        <path d="M57.2848839,48.3822091 C57.2848839,48.3822091 43.7828839,54.1342091 37.9248839,54.0392091 C32.0668839,53.9442091 13.9148839,48.9112091 13.9148839,48.9112091 L13.9248839,53.2362091 C13.9248839,53.2362091 14.8228839,54.6532091 14.9638839,54.6532091 C15.1058839,54.6532091 33.9088839,59.8032091 41.3738839,58.3862091 C48.8378839,56.9682091 57.5308839,53.2362091 57.5308839,53.2362091 C57.5308839,53.2362091 57.6998839,49.1502091 57.2848839,48.3822091" id="Fill-19" fill="#AA7133"/>
                    </g>
                </g>
            </g>
        </g>
        <g transform="translate(-49.000000, 0.000000) scale(1 1)" id="Master/Female Character/Sitting">
            <g id="Master/Female Character/Sitting" stroke="none" stroke-width="1" fill="none" fill-rule="evenodd">
                <g id="Female Sitting Lower" transform="translate(68.000000, 108.000000) scale(1 1)">
                    <g id="Female Sitting Lower/Jeans 2" stroke="none" stroke-width="1" fill="none" fill-rule="evenodd">
                        <g id="Group-35" transform="translate(41.000000, 30.000000)">
                            <path d="M17.7329,5.215 C17.7329,5.215 22.9959,1.614 28.6739,1.891 C34.3519,2.168 38.6639,3.968 40.2479,12.694 C40.2479,12.694 53.0489,15.048 65.7909,26.958 C78.5319,38.868 79.0859,39.284 77.4239,48.979 C75.7619,58.673 70.9149,70.445 70.9149,70.445 L69.2369,88.667 C69.2369,88.667 71.5849,95.131 74.6619,97.208 C77.7399,99.286 79.6909,100.286 78.0999,101.748 C76.5089,103.211 76.1249,101.441 73.0459,101.748 C69.9679,102.057 69.6609,100.441 69.6609,100.441 C69.6609,100.441 73.2769,109.136 79.6639,112.906 C79.6639,112.906 81.8189,114.907 79.6639,115.83 C77.5089,116.754 71.5069,116.677 68.6599,114.753 C65.8129,112.829 59.9649,107.904 58.0409,107.366 C56.1169,106.827 57.0409,103.98 57.0409,103.98 L59.8109,96.285 C59.8109,96.285 59.0419,95.284 56.8869,94.592 C54.7319,93.9 53.5779,90.976 53.8089,89.899 C54.0399,88.82 57.8869,83.358 57.9639,79.356 C57.9639,79.356 56.0399,73.893 53.4239,69.044 C50.8079,64.196 54.1929,52.423 56.1169,49.268 C56.1169,49.268 53.1159,49.73 47.4219,50.192 C41.7279,50.653 22.3869,52.041 11.0449,45.794 C-0.2971,39.546 0.8189,18.364 17.7329,5.215" id="Fill-1" fill="#a15122"/>
                            <path d="M33.0576,20.8448 C36.7786,21.6988 40.4546,22.7788 44.0486,24.0888 C47.6396,25.4068 51.1766,26.8978 54.5576,28.7118 C57.9296,30.5328 61.1916,32.6088 64.0966,35.1488 C67.0086,37.6598 69.5036,40.7528 71.0376,44.3318 L71.0636,44.3928 L71.0646,44.4598 C71.0916,48.7908 71.0756,53.1208 71.0526,57.4518 C71.0516,61.7828 70.9636,66.1148 70.9146,70.4458 C70.8036,66.1158 70.6516,61.7858 70.5896,57.4548 C70.5026,53.1258 70.4236,48.7958 70.3886,44.4648 L70.4146,44.5928 C68.9146,41.1448 66.4506,38.1798 63.6086,35.7018 C60.7806,33.1898 57.5746,31.1128 54.2476,29.2848 C50.9076,27.4758 47.4506,25.8658 43.8976,24.4878 C40.3476,23.1118 36.7466,21.8328 33.0576,20.8448" id="Fill-3" fill="#782001"/>
                            <path d="M57.9639,79.3556 C58.5879,80.6656 59.0689,82.0366 59.4909,83.4236 C59.9049,84.8156 60.2309,86.2346 60.4599,87.6726 C60.6449,89.1146 60.7979,90.5716 60.7119,92.0326 C60.6249,93.4866 60.3789,94.9466 59.8109,96.2856 C60.1799,94.8816 60.3199,93.4526 60.3279,92.0226 C60.3329,90.5916 60.1869,89.1626 59.9659,87.7476 C59.7819,86.3246 59.4529,84.9236 59.1219,83.5246 C58.7799,82.1266 58.3949,80.7376 57.9639,79.3556" id="Fill-5" fill="#000"/>
                            <path d="M69.2373,88.6671 C69.1113,90.6521 69.0033,92.6191 69.0223,94.5861 C69.0413,96.5531 69.1823,98.5071 69.6603,100.4401 C69.2293,99.5401 68.9673,98.5631 68.7833,97.5791 C68.6053,96.5921 68.5433,95.5901 68.5223,94.5911 C68.5203,93.5911 68.5693,92.5931 68.6923,91.6031 C68.8123,90.6131 68.9703,89.6281 69.2373,88.6671" id="Fill-7" fill="#000"/>
                            <path d="M55.7891,49.3155 C55.8561,48.7505 56.1181,48.2565 56.4321,47.8145 C56.7601,47.3825 57.1611,46.9925 57.6781,46.7605 C57.5621,47.0225 57.4151,47.2425 57.2761,47.4665 C57.1391,47.6925 56.9831,47.8995 56.8331,48.1115 C56.5171,48.5255 56.2011,48.9315 55.7891,49.3155" id="Fill-9" fill="#782001"/>
                            <path d="M69.5625,100.1632 L70.0015,101.1942 C70.0015,101.1942 74.5245,103.9632 80.7715,101.3932 C80.7715,101.3932 81.4505,100.9882 80.9075,100.7452 C80.3645,100.5012 74.8265,96.8532 74.3775,97.0012 C73.9295,97.1472 71.7405,100.4742 69.5625,100.1632" id="Fill-11" fill="#F90606"/>
                            <path d="M59.811,96.2853 C59.434,95.3383 58.373,93.2123 58.104,91.7643 L55.872,85.2203 C55.872,85.2203 50.707,90.2173 52.577,93.1973 C52.577,93.1973 55.369,98.2723 55.721,98.3313 C55.995,98.3773 57.011,96.5473 57.45,95.7283 C58.696,96.2413 59.691,96.6163 59.691,96.6163 L59.811,96.2853 Z" id="Fill-13" fill="#F90606"/>
                            <g id="Group-17" transform="translate(55.000000, 97.000000)" fill="#F90606">
                                <path d="M20.7314,12.7091 C18.4904,12.5511 16.3524,15.2671 15.3144,16.8301 C14.9324,17.4061 14.1604,17.5621 13.5854,17.1771 L7.1544,12.8751 C6.7814,12.6251 6.5444,12.2241 6.5124,11.7751 C6.3384,9.3491 4.7284,3.2761 4.1454,1.1351 C4.1454,1.1351 4.4284,0.5781 4.3924,0.4471 C4.3544,0.3111 3.9344,0.3731 3.9344,0.3731 C3.9344,0.3731 2.1094,3.6581 0.8684,6.5791 C-0.0376,8.7101 0.6534,9.6751 2.0844,10.6641 L2.0694,10.6561 C2.0694,10.6561 4.1064,14.8281 4.3504,14.9451 C4.5554,15.0451 5.3904,13.4701 5.6514,12.9651 C8.9244,15.1681 14.2154,18.9181 14.2154,18.9181 C23.8384,21.6201 29.1254,18.4801 29.1254,17.8961 C29.1254,17.3131 20.7314,12.7091 20.7314,12.7091" id="Fill-15"/>
                            </g>
                            <g id="Group-20" fill="#2B3C59">
                                <path d="M28.6147,0.7198 C28.6147,0.7198 22.8917,-0.5092 16.7847,5.0448 C10.6787,10.6008 -6.0293,25.4968 2.2637,40.6178 C10.5567,55.7398 54.3227,50.3298 54.3227,50.3298 C54.3227,50.3298 49.0997,58.4478 50.8857,64.9448 C52.6727,71.4418 56.3127,80.8428 56.3127,80.8428 C56.3127,80.8428 62.5327,85.2758 71.0787,81.2248 L71.7317,68.3658 C71.7317,68.3658 76.6147,63.8368 77.6487,54.0318 C78.6817,44.2268 79.8487,41.8698 75.6197,36.1908 C71.3767,30.4918 60.9267,18.8198 40.6107,12.2458 L39.1627,6.6758 C39.1627,6.6758 33.4937,-0.2162 28.6147,0.7198" id="Fill-18"/>
                            </g>
                            <path d="M15.2339,8.713 C16.2009,9.125 17.1889,9.482 18.1899,9.792 C19.1829,10.125 20.1889,10.416 21.2029,10.67 C23.2299,11.181 25.2859,11.57 27.3619,11.758 C29.4369,11.986 31.5279,11.928 33.5979,11.713 L35.1449,11.484 C35.6609,11.407 36.1579,11.24 36.6669,11.126 C37.7029,10.939 38.6559,10.492 39.6579,10.166 C37.7679,11.079 35.7529,11.792 33.6509,12.094 C31.5559,12.393 29.4229,12.447 27.3159,12.255 C25.2129,12.024 23.1269,11.635 21.1019,11.039 C19.0779,10.443 17.0989,9.688 15.2339,8.713" id="Fill-21" fill="#000830"/>
                            <path d="M21.894,11.0567 L22.412,9.6277 C22.582,9.1637 22.718,8.6997 22.939,8.1937 C23.11,8.7197 23.054,9.2817 22.883,9.7947 C22.788,10.0487 22.668,10.2957 22.499,10.5107 C22.335,10.7267 22.144,10.9297 21.894,11.0567" id="Fill-23" fill="#000830"/>
                            <path d="M23.6528,11.4601 C23.6388,10.8751 23.7168,10.3421 23.8008,9.8031 C23.8538,9.5361 23.8978,9.2701 23.9698,9.0031 C24.0408,8.7361 24.1018,8.4681 24.2158,8.1931 C24.3958,8.7541 24.3828,9.3331 24.2938,9.8891 C24.1868,10.4411 24.0108,10.9901 23.6528,11.4601" id="Fill-25" fill="#000830"/>
                            <path d="M30.6816,9.004 C30.9926,9.507 31.2116,10.058 31.5256,10.389 C31.6016,10.464 31.6666,10.499 31.7356,10.513 C31.8366,10.531 31.9086,10.512 31.9956,10.471 C32.1676,10.37 32.3016,10.101 32.4106,9.826 C32.4956,10.114 32.5016,10.454 32.2526,10.758 C32.1296,10.914 31.9046,10.985 31.7196,10.985 C31.4986,10.983 31.3056,10.866 31.1746,10.744 C30.9336,10.481 30.8096,10.192 30.7426,9.897 C30.6736,9.603 30.6396,9.307 30.6816,9.004" id="Fill-27" fill="#000830"/>
                            <path d="M35.5825,7.837 C35.9255,8.35 36.0975,8.926 36.1885,9.516 C36.2255,9.813 36.2445,10.116 36.2015,10.421 C36.1615,10.721 36.0935,11.04 35.8925,11.285 C35.8935,10.979 35.8555,10.703 35.8165,10.423 L35.6935,9.583 C35.6255,9.018 35.5495,8.45 35.5825,7.837" id="Fill-29" fill="#000830"/>
                            <path d="M36.4492,7.4962 C36.9112,7.9792 37.1702,8.6082 37.2962,9.2572 C37.4042,9.9042 37.3502,10.6282 36.9792,11.1892 C36.9632,10.8542 36.9652,10.5502 36.9312,10.2442 C36.8902,9.9402 36.8632,9.6422 36.8042,9.3432 C36.7042,8.7402 36.5592,8.1482 36.4492,7.4962" id="Fill-31" fill="#000830"/>
                            <path d="M38.1235,18.7872 C41.7525,19.9732 45.3165,21.3782 48.7785,23.0072 C52.2345,24.6412 55.6245,26.4462 58.8285,28.5582 C62.0225,30.6732 65.0835,33.0342 67.7485,35.8252 C70.4225,38.5902 72.6295,41.8942 73.8355,45.5972 L73.8565,45.6592 L73.8505,45.7262 C73.4885,50.0422 73.0825,54.3532 72.6695,58.6652 C72.2795,62.9772 71.8015,67.2842 71.3635,71.5932 C71.6415,67.2702 71.8805,62.9452 72.2075,58.6272 C72.5115,54.3072 72.8225,49.9872 73.1775,45.6712 L73.1915,45.8012 C72.0085,42.2312 69.8205,39.0572 67.2135,36.3332 C64.6225,33.5762 61.6165,31.2192 58.4685,29.1002 C55.3035,26.9972 52.0055,25.0832 48.5925,23.3902 C45.1795,21.7002 41.7085,20.1022 38.1235,18.7872" id="Fill-33" fill="#000023"/>
                        </g>
                    </g>
                </g>
                <g id="Female Top" transform="translate(82.000000, 93.000000) scale(1 1)">
                    <g id="Female Top/Blouse 4" stroke="none" stroke-width="1" fill="none" fill-rule="evenodd">
                        <g id="Group-19" transform="translate(24.000000, 0.000000)">
                            <path d="M48.3705,28.3971 C48.3705,28.3971 51.2665,35.5821 52.2215,43.3241 C52.2215,43.3241 59.5875,42.0901 63.4505,39.9591 C63.4505,39.9591 65.0125,37.0971 66.5835,36.5921 C68.1545,36.0871 73.3715,34.7441 73.3715,35.6121 C73.3715,36.4801 72.0815,37.2101 72.0815,37.2101 C72.0815,37.2101 73.1475,37.5451 74.8305,37.2651 C76.5135,36.9851 78.5335,37.9071 78.5335,37.9071 C78.5335,37.9071 79.8235,38.1591 80.4965,38.5821 C81.1695,39.0041 80.9455,40.0141 78.2525,39.9021 C78.2525,39.9021 79.0375,40.2391 78.7575,40.7441 C78.4765,41.2491 75.8405,41.1921 74.1005,42.0901 C72.3615,42.9881 67.3685,42.2581 67.3685,42.2581 C67.3685,42.2581 57.6625,50.5051 52.1645,52.4691 C46.6665,54.4321 44.9275,50.0561 43.6375,43.1001 C42.3475,36.1431 41.1535,25.5871 48.3705,28.3971" id="Fill-1" fill="#a15122"/>
                            <path d="M66.6698,36.9362 C66.9938,36.5842 67.4978,36.4582 67.9658,36.4252 C68.4418,36.3902 68.9198,36.4982 69.3718,36.5732 C70.2778,36.7572 71.1848,36.9352 72.0818,37.2082 C71.1548,37.1402 70.2368,36.9752 69.3198,36.8172 C68.8618,36.7192 68.4258,36.6242 67.9708,36.6172 C67.5268,36.6192 67.0498,36.6612 66.6698,36.9362" id="Fill-3" fill="#000"/>
                            <path d="M73.807,38.5817 C74.64,38.2277 75.532,38.0407 76.427,37.9157 C76.878,37.8717 77.331,37.8437 77.784,37.8557 C78.238,37.8717 78.689,37.9357 79.126,38.0487 C77.327,37.9597 75.579,38.2637 73.807,38.5817" id="Fill-5" fill="#000"/>
                            <path d="M66.997,39.3259 C67.846,38.8609 68.814,38.6089 69.802,38.5699 C70.296,38.5429 70.798,38.6029 71.285,38.7149 C71.754,38.8289 72.221,38.9659 72.682,39.1029 C73.143,39.2529 73.574,39.3879 74.028,39.4289 C74.483,39.4799 74.964,39.4709 75.434,39.4719 C75.906,39.4719 76.379,39.4139 76.877,39.4199 C77.378,39.4339 77.869,39.6129 78.253,39.9019 C77.355,39.4319 76.431,39.7599 75.458,39.8569 C74.97,39.9119 74.488,39.9259 73.987,39.8999 C73.48,39.8709 72.986,39.7189 72.534,39.5809 C71.612,39.2999 70.726,38.9819 69.8,38.9529 C68.87,38.9129 67.919,39.0549 66.997,39.3259" id="Fill-7" fill="#000"/>
                            <g id="Group-11" transform="translate(5.000000, 0.190200)" fill="#a15122">
                                <path d="M37.9916,58.0575 C35.7936,57.7985 34.0386,57.7255 33.7666,57.8375 C33.4956,57.9515 32.6586,57.9785 31.8696,57.8945 C31.0806,57.8095 28.4046,59.6135 26.4036,60.3665 C24.4036,61.1205 24.3506,60.7335 24.3506,60.7335 C19.2116,58.0755 11.1016,53.6405 11.1016,53.6405 L10.3716,37.1075 L14.2286,44.6975 L14.6306,49.9575 C19.5076,54.6825 36.1216,51.5785 36.1216,51.5785 L37.4456,44.6135 C37.4456,44.6135 45.2236,32.0265 43.1156,27.3875 C41.0076,22.7485 33.2066,15.7915 27.7606,11.7555 C27.7606,11.7555 29.0366,3.6785 25.8956,1.5275 C22.7546,-0.6255 21.5826,2.7515 21.5826,2.7515 C21.5826,2.7515 21.2346,9.6795 18.4026,11.6835 C15.5706,13.6885 2.6946,19.7775 1.0576,29.3905 C-0.5794,39.0025 2.4706,57.5995 3.6016,58.3695 C4.7326,59.1385 21.7466,67.0885 26.7976,65.8735 C31.8486,64.6595 33.7666,63.1245 33.7666,63.1245 L34.4836,62.7005 C35.3556,62.1835 36.4156,62.0865 37.3666,62.4425 C37.9616,62.6635 38.4456,62.6995 38.5826,62.7505 C38.8346,62.8455 40.7766,63.4595 41.8806,62.7365 C42.1586,62.5545 41.8256,61.9575 41.3036,61.9345 C41.0386,61.9225 41.7426,61.8535 41.8606,61.5335 C41.9456,61.2995 41.3866,61.0585 40.9956,60.8325 C40.7556,60.6935 41.2526,60.5805 41.4686,60.3665 C41.4686,60.3665 40.9136,59.0045 37.9916,58.0575" id="Fill-9"/>
                            </g>
                            <path d="M38.9984,59.3288 C40.3724,59.7558 41.7194,60.2308 43.0614,60.7148 L45.0894,61.4358 C45.4274,61.5628 45.7634,61.6938 46.0984,61.8468 C46.2654,61.9248 46.4324,62.0028 46.5994,62.1018 C46.6834,62.1528 46.7674,62.2058 46.8524,62.2768 C46.9304,62.3598 47.0504,62.4158 47.0894,62.6688 C47.0614,62.9598 46.9384,62.9988 46.8564,63.0878 C46.7654,63.1648 46.6704,63.2168 46.5754,63.2608 C46.3844,63.3458 46.1904,63.4008 45.9984,63.4278 C45.6134,63.4888 45.2344,63.4758 44.8644,63.4358 C44.1264,63.3508 43.4144,63.1418 42.7464,62.8868 C41.4684,62.4038 39.9034,62.3908 38.7674,63.3148 C39.2464,62.7698 39.9564,62.4618 40.6774,62.3298 C41.4094,62.2208 42.1614,62.3118 42.8664,62.5208 C43.5534,62.7198 44.2214,62.9268 44.9114,62.9828 C45.2524,63.0148 45.5954,63.0168 45.9164,62.9568 C46.0794,62.9328 46.2304,62.8818 46.3654,62.8188 C46.4314,62.7868 46.4934,62.7488 46.5384,62.7098 C46.5884,62.6878 46.6094,62.5868 46.5904,62.6938 C46.6324,62.7688 46.4744,62.5768 46.3464,62.5188 C46.2074,62.4328 46.0514,62.3538 45.8964,62.2778 C45.5824,62.1268 45.2544,61.9908 44.9254,61.8588 C44.2684,61.5898 43.5874,61.3768 42.9314,61.0748 C41.6084,60.5138 40.2904,59.9448 38.9984,59.3288" id="Fill-12" fill="#000"/>
                            <path d="M38.2099,58.3551 C39.0469,58.0241 39.9909,58.1511 40.8499,58.3441 C41.7279,58.5431 42.5409,58.9051 43.3429,59.2711 C44.1379,59.6581 44.9129,60.0901 45.6429,60.5801 C46.0179,60.8261 46.3509,61.0651 46.7539,61.2801 C46.8529,61.3501 46.9679,61.4561 46.9829,61.6201 C46.9959,61.7881 46.8749,61.8951 46.7809,61.9581 C46.5759,62.0871 46.3479,62.1151 46.1289,62.1251 C46.3379,62.0641 46.5509,61.9851 46.6999,61.8521 C46.8689,61.7051 46.8079,61.5661 46.6269,61.4901 C46.2349,61.3371 45.8269,61.1071 45.4469,60.9111 C44.6749,60.5011 43.9119,60.0911 43.1279,59.7221 C42.3449,59.3511 41.5559,58.9871 40.7459,58.7121 C39.9349,58.4551 39.0799,58.2311 38.2099,58.3551" id="Fill-14" fill="#000"/>
                            <g id="Group-18" transform="translate(0.000000, 19.190200)" fill="#E73B1F">
                                <path d="M10.0297,0.579 C10.0297,0.579 27.9647,2.913 41.4457,0.108 C41.4457,0.108 47.3137,4.382 48.4787,6.283 C49.6437,8.184 53.2347,15.157 53.2347,15.157 C53.2347,15.157 50.3267,17.346 46.5567,17.624 L43.4717,24.875 C43.4717,24.875 42.7927,27.411 43.4717,29.1 C44.1507,30.791 44.1557,35.345 30.8957,34.917 C17.6357,34.488 17.1077,30.052 17.1077,30.052 C17.1077,30.052 19.1457,26.604 16.7007,20.722 C16.7007,20.722 -0.0003,18.841 -0.0003,17.526 C-0.0003,17.526 3.4807,5.861 10.0297,0.579" id="Fill-16"/>
                            </g>
                        </g>
                    </g>
                </g>
                <g id="Female Head" transform="translate(111.000000, 63.000000) scale(1 1)">
                    <g id="Female Head/Bun 2" stroke="none" stroke-width="1" fill="none" fill-rule="evenodd">
                        <g id="Group" transform="translate(15.400000, -2.500000)">
                            <g id="Group-41" transform="translate(0.600000, 11.900000)">
                                <g id="Group-3" transform="translate(0.000000, 0.753800)" fill="#a15122">
                                    <path d="M4.292,21.9148 C4.292,21.9148 5.426,24.1828 7.905,25.6708 C10.386,27.1588 13.504,29.4268 15.063,28.9308 C16.622,28.4348 20.754,25.2688 21.745,21.7258 C22.737,18.1828 23.354,12.2768 22.717,9.3718 C22.079,6.4658 18.465,0.3718 12.016,0.3718 C5.567,0.3718 -0.173,7.1738 1.386,14.6858 C1.386,14.6858 -0.406,16.8838 1.128,19.1508 C2.662,21.4188 4.292,21.9148 4.292,21.9148" id="Fill-1"/>
                                </g>
                                <path d="M8.1397,17.9205 C8.1397,17.9205 10.9867,17.9905 11.7427,18.5405 C11.7427,18.5405 12.0197,18.6385 11.9127,18.2745 C11.9127,18.2745 12.3207,18.5665 12.3467,18.4075 C12.3727,18.2485 12.1697,16.7065 10.5667,16.4945 C8.9627,16.2815 7.7587,17.7525 8.1397,17.9205" id="Fill-4" fill="#20180F"/>
                                <path d="M20.6113,17.5133 C20.6113,17.5133 18.8053,17.4863 18.0743,18.0343 C18.0743,18.0343 17.8053,18.1323 17.9083,17.7693 C17.9083,17.7693 17.5133,18.0613 17.4883,17.9023 C17.4633,17.7423 18.1973,16.2903 19.7493,16.0773 C21.3013,15.8653 21.7103,17.2233 20.6113,17.5133" id="Fill-6" fill="#20180F"/>
                                <path d="M15.8819,22.8629 C15.8819,22.8629 15.6689,23.0409 15.8819,23.2169 C16.0939,23.3949 17.4929,22.8989 17.8129,22.4379 C18.1319,21.9769 17.9429,21.9249 17.4869,22.1899 C17.0329,22.4559 15.8819,22.8629 15.8819,22.8629" id="Fill-8" fill="#20180F"/>
                                <path d="M13.0117,24.2984 C13.0117,24.2984 12.9227,24.1394 13.6847,24.1394 C14.4467,24.1394 14.3747,24.2804 15.6157,24.2984 C16.8557,24.3164 17.3637,24.2984 16.8787,24.6164 C16.3957,24.9364 16.4307,24.9184 16.3417,25.1664 C16.2537,25.4144 15.1317,25.8584 14.2487,25.5564 C13.3657,25.2554 12.4637,24.4554 13.0117,24.2984" id="Fill-10" fill="#EE4E2F"/>
                                <path d="M7.6904,13.7389 C7.8264,13.6979 7.6434,13.9749 8.2574,13.8699 C8.8714,13.7629 10.5484,13.5739 12.0604,14.5189 C12.0604,14.5189 12.3304,14.3059 12.3484,13.9049 C12.3664,13.5289 9.8204,12.2419 7.6544,13.6689 C7.5064,13.7659 7.5524,13.7819 7.6904,13.7389" id="Fill-12" fill="#20180F"/>
                                <path d="M20.6113,13.8815 C20.6113,13.8815 19.7143,12.9125 18.2023,13.3605 C16.6903,13.8105 16.8313,14.4955 16.8793,14.6845 C16.9263,14.8735 18.0133,13.9515 19.1473,13.9635 C20.2813,13.9755 20.6113,14.2115 20.6113,13.8815" id="Fill-14" fill="#20180F"/>
                                <path d="M8.3311,17.9205 C8.3311,17.9205 11.1781,17.9905 11.9341,18.5405 C11.9341,18.5405 12.2111,18.6385 12.1041,18.2745 C12.1041,18.2745 12.5131,18.5665 12.5391,18.4075 C12.5651,18.2485 12.3611,16.7065 10.7591,16.4945 C9.1551,16.2815 7.9501,17.7525 8.3311,17.9205" id="Fill-16" fill="#000"/>
                                <path d="M20.8037,17.5133 C20.8037,17.5133 18.9977,17.4863 18.2667,18.0343 C18.2667,18.0343 17.9977,18.1323 18.1007,17.7693 C18.1007,17.7693 17.7057,18.0613 17.6807,17.9023 C17.6547,17.7423 18.3897,16.2903 19.9417,16.0773 C21.4937,15.8653 21.9027,17.2233 20.8037,17.5133" id="Fill-18" fill="#000"/>
                                <path d="M16.0733,22.8629 C16.0733,22.8629 15.8603,23.0409 16.0733,23.2169 C16.2863,23.3949 17.6853,22.8989 18.0053,22.4379 C18.3233,21.9769 18.1353,21.9249 17.6793,22.1899 C17.2243,22.4559 16.0733,22.8629 16.0733,22.8629" id="Fill-20" fill="#000"/>
                                <path d="M13.2031,24.2984 C13.2031,24.2984 13.1151,24.1394 13.8771,24.1394 C14.6391,24.1394 14.5671,24.2804 15.8071,24.2984 C17.0481,24.3164 17.5551,24.2984 17.0711,24.6164 C16.5871,24.9364 16.6231,24.9184 16.5341,25.1664 C16.4451,25.4144 15.3241,25.8584 14.4401,25.5564 C13.5571,25.2554 12.6551,24.4554 13.2031,24.2984" id="Fill-22" fill="#EE4E2F"/>
                                <path d="M7.8828,13.7389 C8.0178,13.6979 7.8348,13.9749 8.4488,13.8699 C9.0638,13.7629 10.7408,13.5739 12.2528,14.5189 C12.2528,14.5189 12.5228,14.3059 12.5408,13.9049 C12.5588,13.5289 10.0128,12.2419 7.8468,13.6689 C7.6988,13.7659 7.7438,13.7819 7.8828,13.7389" id="Fill-24" fill="#000"/>
                                <path d="M20.8037,13.8815 C20.8037,13.8815 19.9067,12.9125 18.3947,13.3605 C16.8827,13.8105 17.0237,14.4955 17.0717,14.6845 C17.1187,14.8735 18.2047,13.9515 19.3387,13.9635 C20.4727,13.9755 20.8037,14.2115 20.8037,13.8815" id="Fill-26" fill="#000"/>
                            </g>
                            <g id="Group-67">
                                <g id="Group-30" transform="translate(0.000000, 0.239000)" fill="#ee4e2f">
                                    <path d="M9.3995,20.9309 C10.4025,19.7029 12.9305,17.4359 13.0795,17.5849 C13.2285,17.7339 10.2165,22.9759 7.3175,23.4209 C7.3175,23.4209 8.3955,22.1569 9.3995,20.9309 Z M10.1485,10.8729 C10.1485,10.8729 12.5965,7.8599 9.6465,3.4669 C6.6965,-0.9271 2.7425,1.1449 1.4865,2.0239 C0.2315,2.9009 -2.7815,7.3589 6.4455,11.8769 C6.4455,11.8769 -1.57652525,16.1601021 1.56147475,27.7711021 C1.56147475,27.7711021 2.88907881,27.485153 3.8095,28.6979 C4.72992119,29.910647 4.5625,31.0209 4.9395,31.0209 C5.3155,31.0209 4.1855,27.3169 5.6925,26.3759 C7.1985,25.4349 12.2195,22.9239 14.4165,17.5259 C14.4165,17.5259 15.2955,17.3379 15.7345,17.5889 C16.1735,17.8399 18.6215,21.6059 21.1325,22.6099 C23.6425,23.6139 23.3295,28.5099 23.3295,28.5099 C23.3295,28.5099 24.6475,28.5719 24.7725,26.1879 C24.8985,23.8029 25.5255,21.4169 23.8315,19.0949 C22.1365,16.7729 19.2495,10.8729 10.1485,10.8729 Z" id="Fill-28"/>
                                </g>
                                <path d="M1.862,2.0251 C1.903,2.6901 2.045,3.3291 2.234,3.9461 C2.433,4.5621 2.675,5.1591 2.967,5.7351 C3.254,6.3131 3.599,6.8621 3.954,7.4101 C4.313,7.9561 4.719,8.4701 5.11,9.0161 C4.843,8.8161 4.592,8.5941 4.336,8.3771 C4.107,8.1331 3.863,7.8991 3.647,7.6411 C3.207,7.1301 2.833,6.5621 2.521,5.9601 C2.226,5.3491 1.981,4.7091 1.862,4.0381 C1.742,3.3731 1.695,2.6791 1.862,2.0251" id="Fill-31" fill="#6F3C00"/>
                                <path d="M0.9259,3.1257 C0.8829,3.8877 1.0049,4.6447 1.2029,5.3677 C1.4059,6.0927 1.6999,6.7877 2.0819,7.4367 C2.4679,8.0797 2.9199,8.6867 3.4379,9.2357 C3.9479,9.7937 4.5209,10.2907 5.1099,10.7777 L4.1639,10.1297 C3.8779,9.8767 3.5659,9.6477 3.2999,9.3697 C2.7429,8.8377 2.2789,8.2147 1.8659,7.5627 C1.1169,6.2247 0.6609,4.6467 0.9259,3.1257" id="Fill-33" fill="#6F3C00"/>
                                <path d="M4.5592,1.0339 C5.4272,2.5869 6.0042,4.3149 6.2152,6.0989 C6.2902,6.9919 6.2922,7.9019 6.0892,8.7839 C5.8782,9.6629 5.4672,10.4839 4.8902,11.1639 C5.3942,10.4269 5.7272,9.6029 5.9012,8.7449 C6.0602,7.8819 6.0592,6.9979 5.9662,6.1249 C5.8932,5.2479 5.6842,4.3869 5.4482,3.5369 C5.2012,2.6889 4.9162,1.8479 4.5592,1.0339" id="Fill-35" fill="#6F3C00"/>
                                <path d="M5.2199,1.364 C6.7709,2.566 7.7849,4.483 7.9789,6.48 C8.0449,7.476 7.9979,8.498 7.6879,9.447 C7.5809,9.933 7.3429,10.376 7.1749,10.838 C6.9489,11.275 6.6989,11.701 6.4459,12.116 C6.7899,11.198 7.1399,10.298 7.3139,9.355 C7.5269,8.423 7.5529,7.467 7.4819,6.529 C7.4119,5.585 7.1329,4.67 6.7619,3.795 C6.3789,2.923 5.8579,2.103 5.2199,1.364" id="Fill-37" fill="#6F3C00"/>
                                <path d="M5.7707,1.5291 C7.3507,2.6361 8.6397,4.2211 9.2897,6.0761 C9.6117,7.0031 9.7057,8.0091 9.5837,8.9771 C9.5007,9.9611 9.0797,10.8651 8.6337,11.7141 C8.9977,10.8221 9.3467,9.9151 9.3917,8.9571 C9.4717,8.0131 9.3837,7.0481 9.0527,6.1551 C8.7577,5.2521 8.2867,4.4121 7.7257,3.6381 C7.1567,2.8711 6.5097,2.1501 5.7707,1.5291" id="Fill-39" fill="#6F3C00"/>
                                <path d="M6.4865,12.6501 C5.6525,14.2101 5.0175,15.8381 4.6265,17.5291 C4.4205,18.3721 4.2795,19.2291 4.2005,20.0951 C4.1005,20.9631 4.1235,21.8361 4.1185,22.7241 C3.9175,21.8631 3.7955,20.9701 3.8175,20.0761 C3.8065,19.1791 3.9385,18.2861 4.1395,17.4141 C4.3485,16.5421 4.6405,15.6891 5.0395,14.8881 C5.4295,14.0861 5.8925,13.3141 6.4865,12.6501" id="Fill-41" fill="#6F3C00"/>
                                <path d="M1.9718,23.5505 C1.6438,21.5445 1.7948,19.4575 2.3768,17.4945 C2.6838,16.5175 3.1448,15.5875 3.7298,14.7475 C4.3118,13.8975 5.1048,13.2255 5.9358,12.6505 C5.1588,13.3015 4.4298,14.0065 3.8888,14.8575 C3.3488,15.7005 2.8978,16.6055 2.6148,17.5705 C2.3108,18.5275 2.1288,19.5205 2.0248,20.5225 C1.9288,21.5245 1.8938,22.5385 1.9718,23.5505" id="Fill-43" fill="#6F3C00"/>
                                <path d="M8.0827,12.2644 C8.4437,12.5294 8.7437,12.8554 9.0237,13.1954 C9.3097,13.5334 9.5487,13.9044 9.7687,14.2854 C10.1957,15.0544 10.5207,15.8944 10.6157,16.7794 C10.3737,16.4034 10.1797,16.0194 9.9627,15.6484 L9.3337,14.5314 C8.9217,13.7824 8.4887,13.0514 8.0827,12.2644" id="Fill-45" fill="#6F3C00"/>
                                <path d="M8.9635,12.0994 C9.5165,12.6274 9.9545,13.2604 10.3315,13.9254 C10.6775,14.5994 10.9845,15.3444 10.9455,16.1184 C10.8705,15.7444 10.7415,15.3934 10.6015,15.0484 C10.4605,14.7044 10.2945,14.3704 10.1115,14.0434 C9.9455,13.7084 9.7455,13.3914 9.5545,13.0684 L8.9635,12.0994 Z" id="Fill-47" fill="#6F3C00"/>
                                <path d="M10.6154,11.2732 C11.2454,11.2652 11.8654,11.4562 12.4424,11.7112 C13.0244,11.9662 13.5524,12.3342 14.0354,12.7432 C14.5034,13.1712 14.9334,13.6412 15.2764,14.1702 C15.4554,14.4292 15.5984,14.7112 15.7574,14.9792 C15.8854,15.2662 16.0144,15.5502 16.1204,15.8432 C15.7294,15.3542 15.3734,14.8592 14.9704,14.4042 C14.5704,13.9492 14.1544,13.5152 13.7054,13.1182 C12.8024,12.3352 11.7934,11.6732 10.6154,11.2732" id="Fill-49" fill="#6F3C00"/>
                                <path d="M13.6432,11.5486 C14.4582,11.9116 15.1962,12.4366 15.8462,13.0566 C16.4652,13.6796 17.0582,14.4846 17.056205,15.4026 C16.9672,14.9636 16.7592,14.5756 16.5192,14.2196 C16.2772,13.8616 15.9872,13.5326 15.6712,13.2346 C15.3682,12.9196 15.0312,12.6386 14.6912,12.3606 C14.3492,12.0856 14.0032,11.8106 13.6432,11.5486" id="Fill-51" fill="#6F3C00"/>
                                <path d="M18.8732,13.7507 C19.2902,13.9167 19.5702,14.3107 19.7512,14.7097 C19.8222,14.9207 19.8872,15.1347 19.9032,15.3547 C19.9262,15.5737 19.9062,15.7947 19.8642,16.0087 C19.6842,15.1597 19.4552,14.3977 18.8732,13.7507" id="Fill-53" fill="#6F3C00"/>
                                <path d="M17.8273,15.5681 C18.7723,15.5351 19.7933,15.7241 20.5593,16.4001 C20.8813,16.7931 21.1733,17.1011 21.5743,17.3641 C21.9613,17.6201 22.3853,17.8371 22.8373,17.9901 C22.3623,17.9261 21.8973,17.7661 21.4733,17.5271 C21.0463,17.3041 20.6773,16.9121 20.3853,16.5791 C20.0653,16.2631 19.6403,16.0581 19.2023,15.9041 C18.7613,15.7511 18.2993,15.6381 17.8273,15.5681" id="Fill-55" fill="#6F3C00"/>
                                <path d="M16.506,16.3386 C16.864,16.0426 17.414,16.0326 17.825,16.2676 C18.245,16.4906 18.543,16.8806 18.826,17.2256 C19.401,17.9006 20.182,18.3996 20.928,18.9076 C21.676,19.4246 22.451,19.9106 23.179,20.4686 C23.887,21.0276 24.654,21.6326 24.984,22.5046 C24.572,21.6796 23.788,21.1536 23.066,20.6236 C22.322,20.1046 21.552,19.6186 20.789,19.1146 C20.049,18.5836 19.258,18.0896 18.675,17.3436 C18.402,16.9746 18.147,16.6076 17.765,16.3726 C17.404,16.1236 16.892,16.0776 16.506,16.3386" id="Fill-57" fill="#6F3C00"/>
                                <path d="M16.3405,17.4392 C17.9615,18.6562 19.4885,19.9812 21.0735,21.1992 C21.8805,21.8062 22.6835,22.4592 23.3565,23.2372 C24.0155,24.0012 24.6535,24.9292 24.6535,25.9722 C24.4435,24.9732 23.7715,24.1952 23.0765,23.5012 C22.3615,22.8112 21.5835,22.1952 20.7725,21.5962 C19.9635,20.9712 19.2005,20.3062 18.4675,19.6082 C17.7325,18.9122 17.0135,18.2002 16.3405,17.4392" id="Fill-59" fill="#6F3C00"/>
                                <path d="M1.7306,23.8562 C2.1806,24.0422 2.6486,24.1592 3.1196,24.2402 C3.5896,24.3172 4.0656,24.3642 4.5406,24.3302 C5.4936,24.3082 6.4186,24.0322 7.3176,23.6602 C6.9096,23.9232 6.4756,24.1642 6.0036,24.3102 C5.5386,24.4772 5.0436,24.5442 4.5506,24.5792 C3.5656,24.6052 2.5516,24.3932 1.7306,23.8562" id="Fill-63" fill="#6F3C00"/>
                                <path d="M2.2858,23.7859 C3.6538,23.9889 5.0548,23.4059 5.9538,22.4049 C6.4198,21.9069 6.7528,21.3289 7.1108,20.7219 C7.4818,20.1329 7.8688,19.5529 8.2998,19.0039 C9.1538,17.9049 10.0948,16.8459 11.3008,16.0569 C11.9118,15.6969 12.6398,15.3789 13.4208,15.4979 C14.2128,15.6109 14.7938,16.2259 15.1148,16.8569 L15.1968,17.0179 L15.0418,17.0839 C14.3988,17.3519 13.7448,17.6009 13.0908,17.8469 L13.0688,17.8009 C13.6768,17.4549 14.1492549,17.1789 14.7682549,16.8569 C14.2379516,16.2909 13.7681333,15.9932333 13.3588,15.9639 C12.7558,15.9119 12.1358,16.1659 11.5678,16.4949 C10.4408,17.1999 9.4478,18.1719 8.5868,19.2309 C8.1468,19.7569 7.7478,20.3149 7.3638,20.8829 C6.9998,21.4509 6.6248,22.0739 6.1178,22.5639 C5.1288,23.5709 3.6548,24.1029 2.2748,23.8349 L2.2858,23.7859 Z" id="Fill-65" fill="#6F3C00"/>
                            </g>
                            <path d="M3.16373147,30.1622672 C3.16373147,30.1622672 2.99073147,29.9622672 2.99673147,30.2822672 C3.00373147,30.6022672 2.92373147,30.7762672 2.83073147,30.7492672 C2.73673147,30.7232672 2.29673147,29.9552672 2.95673147,29.5952672 C3.61773147,29.2352672 3.97773147,29.9492672 4.45173147,30.8362672 C4.92473147,31.7232672 4.74473147,32.9832672 4.28473147,33.0302672 C3.82473147,33.0772672 3.95773147,32.7572672 4.00373147,32.1172672 C4.05073147,31.4762672 3.40373147,30.2952672 3.16373147,30.1622672" id="Fill-28" fill="#000"/>
                            <g id="Group-3" transform="translate(1.100000, 24.500000)" fill="#6F3C00">
                                <path d="M0,0 C0.296309439,0.378315136 0.661816891,0.682469241 1.04506742,0.939685983 C1.43097942,1.19314774 1.84439319,1.39873338 2.27909865,1.54048421 C3.14762243,1.82961836 4.07114975,1.8859432 5,1.8502708 L4.30979418,1.97230794 C4.07647268,1.97981792 3.84226402,2.00985783 3.6071682,1.99671537 C3.13608943,1.99108289 2.66855926,1.89626942 2.2125621,1.76390606 C1.32363378,1.44379325 0.467530163,0.868341194 0,0" id="Fill-1"/>
                            </g>
                        </g>
                    </g>
                </g>
                <g id="Female Accesories" transform="translate(123.000000, 72.000000) scale(1 1)">
                    <g id="Female Accesories/Glasses 2" stroke="none" stroke-width="1" fill="none" fill-rule="evenodd">
                        <g id="Accesories" transform="translate(8.000000, 15.000000)" fill="#F90606">
                            <path d="M10.0980239,0.625 L5.09802389,0.625 C4.33863236,0.625 3.72302389,1.24060847 3.72302389,2 L3.72302389,5 C3.72302389,5.75939153 4.33863236,6.375 5.09802389,6.375 L10.0980239,6.375 C10.8574154,6.375 11.4730239,5.75939153 11.4730239,5 L11.4730239,2 C11.4730239,1.24060847 10.8574154,0.625 10.0980239,0.625 Z M5.09802389,1.375 L10.0980239,1.375 C10.4432019,1.375 10.7230239,1.65482203 10.7230239,2 L10.7230239,5 C10.7230239,5.34517797 10.4432019,5.625 10.0980239,5.625 L5.09802389,5.625 C4.75284592,5.625 4.47302389,5.34517797 4.47302389,5 L4.47302389,2 C4.47302389,1.65482203 4.75284592,1.375 5.09802389,1.375 Z" id="Rectangle" fill-rule="nonzero"/>
                            <path d="M18.0980239,0.625 L14.0980239,0.625 C13.3386324,0.625 12.7230239,1.24060847 12.7230239,2 L12.7230239,5 C12.7230239,5.75939153 13.3386324,6.375 14.0980239,6.375 L18.0980239,6.375 C18.8574154,6.375 19.4730239,5.75939153 19.4730239,5 L19.4730239,2 C19.4730239,1.24060847 18.8574154,0.625 18.0980239,0.625 Z M14.0980239,1.375 L18.0980239,1.375 C18.4432019,1.375 18.7230239,1.65482203 18.7230239,2 L18.7230239,5 C18.7230239,5.34517797 18.4432019,5.625 18.0980239,5.625 L14.0980239,5.625 C13.7528459,5.625 13.4730239,5.34517797 13.4730239,5 L13.4730239,2 C13.4730239,1.65482203 13.7528459,1.375 14.0980239,1.375 Z" id="Rectangle-Copy" fill-rule="nonzero"/>
                            <polygon id="Path-3" points="4.39934039 4.09027449 0 3.28173765 -9.89060421e-15 1.71349515 4.39934039 1.16932173"/>
                        </g>
                        <path d="M19.0822585,17.9887366 C20.019965,17.6145794 20.6866317,17.6145794 21.0822585,17.9887366 C21.2076007,16.6704211 21.2702717,16.0112634 21.2702717,16.0112634 L18.9017675,16.0112634 L19.0822585,17.9887366 Z" id="Path-2" fill="#F90606"/>
                    </g>
                </g>
            </g>
        </g>
    </g>
</svg>
