<svg viewBox="33.75 33.75 228.75 232.5" xmlns="http://www.w3.org/2000/svg" overflow="visible">
    <g id="Master/Spot Illustrations/Pitch Meeting" stroke="none" stroke-width="1" fill="none" fill-rule="evenodd">
        <g id="Background" transform="translate(27.000000, 11.000000)">
            <g id="Texture Backgrounds" opacity=".5" transform="scale(1 1)">
                <g id="Texture Backgrounds/Spots 3" stroke="none" stroke-width="1" fill="none" fill-rule="evenodd">
                    <g id="Group" transform="translate(22.000000, 26.000000)" fill="#FEDAD4">
                        <path d="M23.3376623,1.66233774 C20.2077128,-1.46761171 13.7139328,-0.0482160324 8.83226176,4.83226176 C3.95178397,9.71393282 2.53238829,16.2077128 5.66233774,19.3376623 C8.79228719,22.4676117 15.2860672,21.048216 20.1677382,16.1677382 C25.048216,11.2860672 26.4676117,4.79228719 23.3376623,1.66233774" id="Fill-38"/>
                        <path d="M19.3376623,139.662338 C16.2077128,136.532388 9.71393282,137.951784 4.83226176,142.832262 C-0.0482160324,147.713933 -1.46761171,154.207713 1.66233774,157.337662 C4.79228719,160.467612 11.2860672,159.048216 16.1677382,154.167738 C21.048216,149.286067 22.4676117,142.792287 19.3376623,139.662338" id="Fill-38-Copy-2"/>
                        <path d="M138.337662,145.662338 C135.207713,142.532388 128.713933,143.951784 123.832262,148.832262 C118.951784,153.713933 117.532388,160.207713 120.662338,163.337662 C123.792287,166.467612 130.286067,165.048216 135.167738,160.167738 C140.048216,155.286067 141.467612,148.792287 138.337662,145.662338" id="Fill-38-Copy-6"/>
                        <path d="M87.3376623,64.6623377 C84.2077128,61.5323883 77.7139328,62.951784 72.8322618,67.8322618 C67.951784,72.7139328 66.5323883,79.2077128 69.6623377,82.3376623 C72.7922872,85.4676117 79.2860672,84.048216 84.1677382,79.1677382 C89.048216,74.2860672 90.4676117,67.7922872 87.3376623,64.6623377" id="Fill-38-Copy-4"/>
                        <path d="M198.337662,69.6623377 C195.207713,66.5323883 188.713933,67.951784 183.832262,72.8322618 C178.951784,77.7139328 177.532388,84.2077128 180.662338,87.3376623 C183.792287,90.4676117 190.286067,89.048216 195.167738,84.1677382 C200.048216,79.2860672 201.467612,72.7922872 198.337662,69.6623377" id="Fill-38-Copy-9"/>
                        <path d="M199.337662,2.66233774 C196.207713,-0.467611713 189.713933,0.951783968 184.832262,5.83226176 C179.951784,10.7139328 178.532388,17.2077128 181.662338,20.3376623 C184.792287,23.4676117 191.286067,22.048216 196.167738,17.1677382 C201.048216,12.2860672 202.467612,5.79228719 199.337662,2.66233774" id="Fill-38-Copy-17"/>
                        <path d="M152.445887,14.5541126 C151.402571,13.5107961 149.237978,13.983928 147.610754,15.6107539 C145.983928,17.2379776 145.510796,19.4025709 146.554113,20.4458874 C147.597429,21.4892039 149.762022,21.016072 151.389246,19.3892461 C153.016072,17.7620224 153.489204,15.5974291 152.445887,14.5541126" id="Fill-38-Copy-11"/>
                        <path d="M101.445887,40.5541126 C100.402571,39.5107961 98.2379776,39.983928 96.6107539,41.6107539 C94.983928,43.2379776 94.5107961,45.4025709 95.5541126,46.4458874 C96.5974291,47.4892039 98.7620224,47.016072 100.389246,45.3892461 C102.016072,43.7620224 102.489204,41.5974291 101.445887,40.5541126" id="Fill-38-Copy-15"/>
                        <path d="M112.445887,99.5541126 C111.402571,98.5107961 109.237978,98.983928 107.610754,100.610754 C105.983928,102.237978 105.510796,104.402571 106.554113,105.445887 C107.597429,106.489204 109.762022,106.016072 111.389246,104.389246 C113.016072,102.762022 113.489204,100.597429 112.445887,99.5541126" id="Fill-38-Copy-16"/>
                        <path d="M54.4458874,116.554113 C53.4025709,115.510796 51.2379776,115.983928 49.6107539,117.610754 C47.983928,119.237978 47.5107961,121.402571 48.5541126,122.445887 C49.5974291,123.489204 51.7620224,123.016072 53.3892461,121.389246 C55.016072,119.762022 55.4892039,117.597429 54.4458874,116.554113" id="Fill-38-Copy-12"/>
                        <path d="M167.445887,112.554113 C166.402571,111.510796 164.237978,111.983928 162.610754,113.610754 C160.983928,115.237978 160.510796,117.402571 161.554113,118.445887 C162.597429,119.489204 164.762022,119.016072 166.389246,117.389246 C168.016072,115.762022 168.489204,113.597429 167.445887,112.554113" id="Fill-38-Copy-13"/>
                        <path d="M54.4458874,33.5541126 C53.4025709,32.5107961 51.2379776,32.983928 49.6107539,34.6107539 C47.983928,36.2379776 47.5107961,38.4025709 48.5541126,39.4458874 C49.5974291,40.4892039 51.7620224,40.016072 53.3892461,38.3892461 C55.016072,36.7620224 55.4892039,34.5974291 54.4458874,33.5541126" id="Fill-38-Copy-14"/>
                        <path d="M19.9709338,72.0290662 C18.033346,70.0914785 14.013387,70.970152 10.9914001,73.9914001 C7.97015198,77.013387 7.09147846,81.033346 9.02906622,82.9709338 C10.966654,84.9085215 14.986613,84.029848 18.0085999,81.0085999 C21.029848,77.986613 21.9085215,73.966654 19.9709338,72.0290662" id="Fill-38-Copy"/>
                        <path d="M83.9709338,2.02906622 C82.033346,0.0914784632 78.013387,0.97015198 74.9914001,3.99140014 C71.970152,7.01338699 71.0914785,11.033346 73.0290662,12.9709338 C74.966654,14.9085215 78.986613,14.029848 82.0085999,11.0085999 C85.029848,7.98661301 85.9085215,3.96665397 83.9709338,2.02906622" id="Fill-38-Copy-7"/>
                        <path d="M201.970934,150.029066 C200.033346,148.091478 196.013387,148.970152 192.9914,151.9914 C189.970152,155.013387 189.091478,159.033346 191.029066,160.970934 C192.966654,162.908522 196.986613,162.029848 200.0086,159.0086 C203.029848,155.986613 203.908522,151.966654 201.970934,150.029066" id="Fill-38-Copy-10"/>
                        <path d="M140.970934,69.0290662 C139.033346,67.0914785 135.013387,67.970152 131.9914,70.9914001 C128.970152,74.013387 128.091478,78.033346 130.029066,79.9709338 C131.966654,81.9085215 135.986613,81.029848 139.0086,78.0085999 C142.029848,74.986613 142.908522,70.966654 140.970934,69.0290662" id="Fill-38-Copy-5"/>
                        <path d="M76.9709338,149.029066 C75.033346,147.091478 71.013387,147.970152 67.9914001,150.9914 C64.970152,154.013387 64.0914785,158.033346 66.0290662,159.970934 C67.966654,161.908522 71.986613,161.029848 75.0085999,158.0086 C78.029848,154.986613 78.9085215,150.966654 76.9709338,149.029066" id="Fill-38-Copy-3"/>
                    </g>
                </g>
            </g>
            <g id="Chair-2" transform="translate(64.500000, 176.000000) scale(-1, 1) translate(-64.500000, -176.000000) translate(9.000000, 111.000000)">
                <path d="M99.650341,29.1784521 C107.540341,41.3946795 94.6566208,70.0809878 74.4875322,82.8156657 C54.3197384,95.5503435 31.5961748,94.6760185 23.7061744,82.4597911 C15.8148794,70.2435637 25.7686573,50.0175977 45.9364511,37.2842 C66.104245,24.5508022 91.759046,16.9622246 99.650341,29.1784521" id="Fill-1" fill="#B28A64"/>
                <path d="M11.7799272,126 C11.4343785,126 11.1056544,125.900536 10.8248152,125.706776 C9.60568856,124.864566 8.08630991,123.815678 19.6369525,101.627563 C25.0971386,91.1386832 30.9857015,80.7596007 31.0439401,80.6549702 C31.3972538,80.0362296 32.1841211,79.8179266 32.8092147,80.1679865 C33.4304258,80.5206299 33.6491438,81.3085876 33.2958301,81.9299117 C24.0617869,98.1915508 14.7604459,116.195739 12.9265792,122.217803 C17.2854099,117.221376 28.6859265,98.4124373 38.5748296,80.6640123 C38.9216725,80.04398 39.7072456,79.8140514 40.3349275,80.1641113 C40.958727,80.510296 41.183916,81.296962 40.8370731,81.9208695 C33.6439671,94.8291672 16.4558344,124.961446 12.2070097,125.950914 C12.0620605,125.983207 11.9196996,126 11.7799272,126 L11.7799272,126 Z" id="Fill-3" fill="#3A332D"/>
                <path d="M77.2939934,130 C68.9527861,130 58.9582413,92.6134113 57.0409256,85.1179708 C56.8653612,84.4364511 57.2708014,83.7396163 57.9477983,83.5634932 C58.6197429,83.3809889 59.3106333,83.7957715 59.4849348,84.4798437 C66.3736302,111.375623 73.9494269,127.447492 77.2939934,127.447492 C77.3571461,127.447492 77.5023973,127.447492 77.7360623,127.174373 C81.3572375,122.925723 78.6201999,93.8143665 76.0448332,76.4649677 C75.9412628,75.768133 76.4174341,75.1172434 77.1070615,75.0125905 C77.8206869,74.9155952 78.4395832,75.3890855 78.5431536,76.0859203 C79.2428854,80.7978505 85.2158669,122.308016 79.6483257,128.841161 C78.832393,129.799628 77.917942,130 77.2939934,130" id="Fill-5" fill="#3A332D"/>
                <g id="Group-9" transform="translate(79.000000, 72.000000)" fill="#3A332D">
                    <path d="M30.6847962,47.4932757 C29.8648731,47.4932757 28.1615654,47.4932757 0.525334615,7.40419459 C0.121719231,6.81781622 0.258796154,6.0083027 0.831219231,5.59576216 C1.40364231,5.18451892 2.19818077,5.32332973 2.60052692,5.90841081 C9.50514231,15.9248432 19.6209115,30.2924108 25.8414115,38.5574919 C20.7695654,29.1378162 11.5282962,13.1797622 5.04125769,2.2188973 C4.67825769,1.60527568 4.86991154,0.808735135 5.47025769,0.437708108 C6.07060385,0.0640864865 6.84991154,0.262572973 7.21291154,0.874897297 C33.0811038,44.5847351 32.3195654,45.9650595 31.8639115,46.7901405 C31.6392577,47.1974919 31.1429885,47.4932757 30.6847962,47.4932757" id="Fill-7"/>
                </g>
                <path d="M100.12985,12.7570996 C110.982487,29.7534058 98.228601,57.2970468 71.6486289,74.2752416 C45.0673635,91.2547301 14.7211086,91.239206 3.86976487,74.2428997 C-6.98157888,57.2465935 5.76972005,29.7042462 32.3522788,12.7247577 C58.9322509,-4.25343705 89.2785058,-4.2405003 100.12985,12.7570996" id="Fill-10" fill="#EABD91"/>
                <path d="M7.08234225,75 C6.73492051,75 6.40217855,74.7759458 6.24804074,74.3942237 C6.22357442,74.3333695 5.63271279,72.8618033 5.03084131,70.3045421 C4.90116982,69.7513217 5.19231903,69.1828878 5.68042211,69.0362844 C6.17953504,68.8855319 6.67497802,69.2188471 6.8034262,69.7706845 C7.36248162,72.1426168 7.9117505,73.5187525 7.91786708,73.5311999 C8.12705412,74.0526101 7.92276034,74.6694508 7.46279353,74.9059525 C7.33923861,74.9709559 7.20956712,75 7.08234225,75" id="Fill-12" fill="#CB9A6E"/>
                <path d="M77.0351895,4.16589161 C77.0055711,4.16589161 76.9746649,4.16459624 76.9437587,4.16200552 C74.4699758,3.92754475 71.9511213,3.87443485 69.1734275,4.02858309 C68.6415835,4.05967181 68.1844295,3.64904163 68.154811,3.1127612 C68.1251926,2.5751854 68.5321241,2.11792214 69.0652559,2.08812878 C71.8377986,1.93398054 74.5369392,1.98320435 77.1240448,2.22673266 C77.6546011,2.27725183 78.0447917,2.75135482 77.9958569,3.28504452 C77.9482099,3.78894087 77.5284008,4.16589161 77.0351895,4.16589161 M53.5876936,6.97294401 C53.1781866,6.97294401 52.798298,6.70868988 52.6669467,6.29546897 C52.505977,5.78380044 52.7867082,5.23715711 53.2953726,5.07523669 C55.888917,4.24620414 58.5082166,3.57650128 61.0798691,3.08296784 C61.6026988,2.97804341 62.1087877,3.32779151 62.2092328,3.8550044 C62.3096779,4.38221729 61.9671343,4.89129509 61.4430168,4.99103807 C58.9460543,5.47032251 56.4014446,6.12189028 53.8800147,6.92760629 C53.7821451,6.95869501 53.6842755,6.97294401 53.5876936,6.97294401 M39.0875396,13.3318827 C38.7488593,13.3318827 38.4191933,13.1518272 38.2414827,12.8318725 C37.9839311,12.3629509 38.1526274,11.7709699 38.6187957,11.5106019 C40.9985723,10.1841498 43.4131184,8.97816649 45.7941828,7.92892217 C46.2796675,7.71389185 46.851432,7.93669435 47.0664876,8.42893242 C47.2815432,8.91987513 47.058761,9.49242574 46.569413,9.70745606 C44.2424345,10.7333838 41.8819743,11.9108691 39.5562835,13.2101186 C39.4069036,13.2930218 39.2459338,13.3318827 39.0875396,13.3318827 M25.9112007,22.1571933 C25.6266062,22.1571933 25.3445873,22.0315431 25.1552869,21.7893101 C24.8230453,21.368317 24.8925842,20.7582009 25.3098178,20.4252925 C26.2370035,19.6843446 27.2015342,18.9472829 28.2046976,18.2154026 C29.3791328,17.3565767 30.5857619,16.5107044 31.7885278,15.7023977 C32.2328043,15.4057595 32.8328995,15.5262283 33.127796,15.9718333 C33.4239804,16.4174383 33.3042189,17.0210776 32.8599424,17.3190112 C31.6777806,18.1130689 30.4930434,18.9421014 29.3392123,19.7866784 C28.3579408,20.5030143 27.4165897,21.2232363 26.5125837,21.9460491 C26.3335853,22.088539 26.122393,22.1571933 25.9112007,22.1571933 M14.7167213,33.3802214 C14.51068,33.3802214 14.303351,33.3141579 14.1269282,33.1768494 C13.7045436,32.8478271 13.6285658,32.237711 13.9556564,31.8141271 C15.5447496,29.7493179 17.3424596,27.7155975 19.2998517,25.7686663 C19.681028,25.3917156 20.292713,25.3943063 20.6661628,25.7764385 C21.0409003,26.1572753 21.0383248,26.7725729 20.6584362,27.1495237 C18.7615689,29.0368681 17.0205202,31.0071158 15.4816495,33.0032707 C15.2923491,33.2506851 15.0064668,33.3802214 14.7167213,33.3802214 M7.16273341,47.3027868 C7.05971278,47.3027868 6.95540439,47.2859471 6.85367152,47.2509723 C6.34758266,47.0799843 6.0771535,46.5281595 6.2484253,46.0203771 C7.09577,43.4983046 8.19551525,40.996958 9.51417935,38.5824007 C9.77173093,38.1121838 10.3589485,37.9386051 10.8264047,38.1989731 C11.2938608,38.4580458 11.4638448,39.0487315 11.207581,39.5189484 C9.94171497,41.8324674 8.88961676,44.2301849 8.07704152,46.6421515 C7.94182694,47.0476002 7.56580164,47.3027868 7.16273341,47.3027868 M5.03149408,63 C4.52282971,63 4.09658184,62.5997327 4.06825117,62.0841781 C4.0244674,61.3082555 4,60.5025394 4,59.6709162 C4,57.7602552 4.13135131,55.8340499 4.38890289,53.9441148 C4.46230509,53.4130158 4.93877551,53.0308836 5.47834607,53.1137868 C6.00632681,53.1876226 6.37591333,53.6772699 6.30251113,54.2096642 C6.05654937,56.0102193 5.93163686,57.8483399 5.93163686,59.6709162 C5.93163686,60.4649739 5.95610426,61.2331244 5.99731251,61.9727769 C6.02693094,62.5090573 5.61999944,62.9689113 5.08815543,62.9987046 C5.06883906,63 5.05081045,63 5.03149408,63" id="Fill-14" fill="#CB9A6E"/>
                <path d="M88.9584862,7 C88.8086144,7 88.6545795,6.97233203 88.5102586,6.91098131 C88.4963816,6.90616949 87.1711266,6.36123074 84.7593015,5.77178265 C84.2056086,5.63705166 83.8836619,5.13902817 84.0390844,4.66025196 C84.1931193,4.18147575 84.7579138,3.89517239 85.3227083,4.03591816 C87.9301994,4.67107856 89.3525934,5.26052665 89.4108768,5.28458576 C89.9284895,5.50111771 90.1449709,6.03883872 89.8979601,6.48754105 C89.7189466,6.81113602 89.3456549,7 88.9584862,7" id="Fill-16" fill="#CB9A6E"/>
                <path d="M14.8984666,79 C14.5135056,79 14.1388297,78.8371289 13.9375333,78.5479736 C13.9022697,78.4972239 13.0662283,77.2922135 12.07297,75.2020338 C11.8555111,74.7464667 12.1405586,74.2342487 12.7091843,74.0595753 C13.27781,73.8825415 13.9154936,74.1138657 14.1314832,74.570613 C15.0615608,76.5274272 15.8520534,77.6710659 15.8594,77.6828681 C16.156202,78.1089296 15.9681294,78.6482927 15.4362367,78.8866983 C15.2657959,78.963413 15.080662,79 14.8984666,79" id="Fill-18" fill="#CB9A6E"/>
                <path d="M82.0337855,11.6406797 C81.9795947,11.6406797 81.9254039,11.6368285 81.8712131,11.6265585 C79.3461792,11.2016362 76.7230857,10.9667095 74.0741871,10.9256294 C73.5400205,10.9179268 73.1142355,10.4801671 73.121977,9.9486934 C73.1310088,9.42107095 73.5619548,9 74.0896701,9 L74.103863,9 C76.8495309,9.0436476 79.5732645,9.28756065 82.1937775,9.72917165 C82.7202025,9.81646685 83.0763136,10.314563 82.9859956,10.8383342 C82.9072898,11.3081877 82.496988,11.6406797 82.0337855,11.6406797 M58.2840159,12.8435562 C57.8530699,12.8435562 57.4582511,12.5547118 57.3472889,12.1195196 C57.2156827,11.6047347 57.527925,11.0796797 58.0453182,10.9487369 C60.7006682,10.2760504 63.3779524,9.77025175 66.0036264,9.44546226 C66.5532761,9.38255837 67.0190591,9.75484671 67.083572,10.2811854 C67.1493751,10.8100916 66.7739102,11.2914989 66.2436143,11.3556866 C63.696646,11.6702061 61.0993577,12.1605997 58.5240038,12.8140299 C58.4440078,12.8345699 58.3627216,12.8435562 58.2840159,12.8435562 M43.3712198,18.4317326 C43.0151087,18.4317326 42.6731905,18.2366022 42.5028765,17.8976914 C42.2654691,17.4214191 42.460298,16.8437303 42.9389835,16.606236 C45.3956338,15.390522 47.8832502,14.304467 50.3360297,13.3801649 C50.8276178,13.1901695 51.3940409,13.4405013 51.5824185,13.9398812 C51.7720863,14.4366936 51.5217764,14.9925586 51.0211564,15.1812703 C48.6290191,16.0824648 46.2007545,17.1428447 43.8008755,18.3315999 C43.662818,18.3996388 43.5157286,18.4317326 43.3712198,18.4317326 M29.7757766,26.7183577 C29.4828881,26.7183577 29.1912899,26.5861311 29.0003318,26.3345155 C28.6790577,25.9095933 28.765505,25.3062295 29.1925802,24.986575 C30.2363985,24.2047695 31.351181,23.4203964 32.5020907,22.6527122 C33.641388,21.8965817 34.7703633,21.1802476 35.8864361,20.4998586 C36.3444775,20.2187167 36.9392862,20.3650645 37.2179818,20.8182293 C37.4953872,21.2726778 37.3534588,21.8657717 36.8979979,22.1430623 C35.8012791,22.8093301 34.6955284,23.5141104 33.5768752,24.2548358 C32.4556414,25.0006963 31.3718251,25.7645293 30.3563925,26.5257947 C30.1822077,26.6554538 29.9770568,26.7183577 29.7757766,26.7183577 M18.5079579,37.887008 C18.3105485,37.887008 18.1118489,37.8266716 17.9402446,37.7047151 C17.5080083,37.3914794 17.411239,36.7893992 17.7247716,36.359342 C19.2653391,34.2475685 21.0536359,32.1884288 23.0419227,30.2371244 C23.4212584,29.8661198 24.0367113,29.8661198 24.4108859,30.2473944 C24.7863509,30.6261015 24.7811898,31.2358842 24.4005639,31.6094563 C22.4884023,33.486303 20.7697793,35.4645662 19.2924345,37.4903283 C19.1027666,37.7496464 18.8072976,37.887008 18.5079579,37.887008 M11.8966785,52.221393 C11.8257144,52.221393 11.7534599,52.2136905 11.6824958,52.1982854 C11.1599415,52.0814639 10.8335063,51.566679 10.9509198,51.0467591 C11.5470187,48.4137818 12.4347159,45.8231685 13.5856256,43.3493766 C13.8114206,42.8654018 14.3868755,42.6600013 14.870722,42.8808068 C15.3558588,43.1041798 15.5661708,43.6767336 15.3429563,44.1594247 C14.2475277,46.5099763 13.4062798,48.9696469 12.8385665,51.4703975 C12.7379264,51.9184273 12.3379466,52.221393 11.8966785,52.221393 M11.6476588,68 C11.1896174,68 10.781896,67.6739268 10.696739,67.210492 C10.2348269,64.6840662 10,62.1358167 10,59.6363498 L10.0038708,59.1202811 C10.0116123,58.5926587 10.4438486,58.1715877 10.9715639,58.1715877 L10.9857567,58.1715877 C11.5212136,58.1792902 11.9469986,58.61705 11.939257,59.1485237 L11.9353862,59.6363498 C11.9353862,62.0202789 12.159891,64.4529907 12.6011591,66.8651624 C12.6979284,67.3889336 12.3482686,67.8883135 11.8231338,67.9858787 C11.763782,67.994865 11.7057204,68 11.6476588,68" id="Fill-20" fill="#CB9A6E"/>
                <path d="M93.1157237,15 C92.9672846,15 92.8176673,14.9643753 92.679831,14.8897862 C92.6692282,14.8842199 91.5771404,14.3042059 89.582637,13.6195446 C89.1231826,13.4614602 88.8863868,12.9827538 89.0536754,12.5496916 C89.2186077,12.1155161 89.7275418,11.8939753 90.1858182,12.0498332 C92.3381854,12.7890448 93.506849,13.4135895 93.5551506,13.440308 C93.9780843,13.6685285 94.1253453,14.1772931 93.8838372,14.5780705 C93.721261,14.8474819 93.4232047,15 93.1157237,15" id="Fill-22" fill="#CB9A6E"/>
                <path d="M21.9011555,81 C21.5128663,81 21.1377642,80.8334184 20.9384913,80.5392424 C20.9033255,80.4896224 20.0857202,79.2810199 19.0761682,77.2099738 C18.8549166,76.7539419 19.1318474,76.2400201 19.697431,76.0604428 C20.260084,75.8844097 20.8989297,76.1053371 21.1231118,76.5613689 C22.0740541,78.5166349 22.8564936,79.6767988 22.865285,79.6886131 C23.155403,80.1174721 22.961991,80.656204 22.4286428,80.890127 C22.2616052,80.9657385 22.0799151,81 21.9011555,81" id="Fill-24" fill="#CB9A6E"/>
                <path d="M62.3612878,18.9407513 C61.909529,18.9407513 61.5078231,18.6211397 61.4179847,18.1610536 C61.3165956,17.6352409 61.6554147,17.1287595 62.1764774,17.025659 C64.7612564,16.5178889 67.3396183,16.1737908 69.8435427,16.0010975 C70.3325203,15.9766111 70.8330485,16.3645268 70.8689839,16.8993608 C70.9049192,17.4316173 70.5057801,17.8929922 69.9744501,17.9290774 C67.5513803,18.0966157 65.0525895,18.4304037 62.5486651,18.9227087 C62.4857782,18.9343075 62.4228913,18.9407513 62.3612878,18.9407513 M85.0390656,19.1546849 C84.9607779,19.1546849 84.8837735,19.1456636 84.8054858,19.1263323 C82.45557,18.5386592 79.981164,18.143011 77.4477212,17.94712 C76.9176747,17.9058797 76.5211023,17.4419274 76.5608879,16.9096709 C76.6019569,16.3761256 77.0511489,15.9959424 77.5953129,16.01914 C80.2352783,16.2240524 82.816207,16.6377432 85.2700786,17.2499026 C85.7860077,17.3787783 86.1004421,17.9033022 85.9708181,18.4213824 C85.863012,18.8608484 85.4702899,19.1546849 85.0390656,19.1546849 M47.8190184,23.4178918 C47.4404138,23.4178918 47.0823436,23.1923594 46.9296183,22.8199088 C46.7255568,22.326315 46.9604201,21.7605508 47.4519644,21.5569273 C49.8801679,20.5516971 52.3186386,19.6663213 54.6967893,18.9278637 C55.2101516,18.7757905 55.7453317,19.0567394 55.9019072,19.5657983 C56.0584827,20.0761459 55.7735666,20.6174237 55.2666214,20.7759407 C52.9423738,21.4963557 50.5603729,22.3611114 48.1860725,23.3444327 C48.0654323,23.3946942 47.9422254,23.4178918 47.8190184,23.4178918 M34.2957731,30.4093965 C33.9839056,30.4093965 33.6758882,30.2573232 33.4923612,29.9763743 C33.1971779,29.5317533 33.3191014,28.9324814 33.7631598,28.6373562 C35.3558662,27.5779982 37.0756298,26.5598805 38.8723977,25.6087781 C39.4062944,25.3265404 39.9376244,25.0494577 40.4663875,24.7826851 C40.9399642,24.5416876 41.5200635,24.7350011 41.758777,25.211841 C41.9987738,25.6873922 41.806263,26.2699102 41.3314029,26.509619 C40.8154738,26.7712366 40.2944111,27.0405867 39.7707816,27.3189581 C38.0292002,28.2404191 36.364623,29.2250292 34.8258197,30.2483019 C34.6615438,30.3578462 34.4767333,30.4093965 34.2957731,30.4093965 M23.2379501,40.8096625 C23.0428724,40.8096625 22.8465114,40.7503797 22.6758184,40.626659 C22.2445941,40.3147799 22.1470553,39.7103531 22.4576395,39.2773308 C23.9322725,37.2230528 25.6751374,35.2551214 27.6400315,33.4315308 C28.02762,33.0706789 28.6398045,33.091299 29.0004414,33.4856586 C29.3610784,33.8774406 29.3379771,34.4883112 28.9465384,34.8517406 C27.0766164,36.586407 25.4197397,38.4576816 24.0195441,40.4075704 C23.8321669,40.669188 23.5369836,40.8096625 23.2379501,40.8096625 M17.4228391,54.7991156 C17.3702195,54.7991156 17.3163164,54.7952494 17.2624134,54.7849393 C16.7387839,54.6973038 16.3845639,54.198555 16.4731189,53.6727423 C16.9081934,51.0604327 17.634601,48.5202933 18.6318072,46.1244948 C18.8371521,45.6296122 19.4018506,45.3989248 19.8908282,45.6038371 C20.3810891,45.8113269 20.6133855,46.3770911 20.409324,46.8693961 C19.4685877,49.1298752 18.7832491,51.5256738 18.3712759,53.992354 C18.2929881,54.4640389 17.8848651,54.7991156 17.4228391,54.7991156 M17.9490354,70 C17.5062605,70 17.1071213,69.6919872 17.0095825,69.2396336 C16.4410338,66.6350565 16.1022147,64.0291906 16.0008257,61.4967838 C15.9790078,60.9619498 16.3922644,60.5134625 16.9235943,60.4915536 C17.479309,60.4657785 17.9028328,60.8846244 17.9233673,61.4181696 C18.0209061,63.8384546 18.3456078,66.3309099 18.8897718,68.8272315 C19.0039949,69.3478891 18.675443,69.8633918 18.1556637,69.9780911 C18.0863598,69.9922675 18.0170559,70 17.9490354,70" id="Fill-26" fill="#CB9A6E"/>
                <path d="M96.0814802,24 C95.8869965,24 95.6912897,23.9333639 95.5249388,23.7960934 C95.5139303,23.7867644 94.4840229,22.9364874 92.5171688,21.8982965 C92.0621503,21.6570737 91.8713361,21.0600139 92.0915063,20.5629084 C92.3116765,20.0671356 92.8596558,19.8605636 93.3171206,20.0991209 C95.4711194,21.2359333 96.5952108,22.1701719 96.6416912,22.2088208 C97.0428903,22.5459996 97.1187267,23.1723793 96.8104884,23.6095123 C96.6294595,23.865395 96.3579162,24 96.0814802,24" id="Fill-28" fill="#CB9A6E"/>
                <path d="M29.9416345,82 C29.5843969,82 29.2342193,81.8457467 29.0351264,81.5671342 C28.9998263,81.5169121 28.1427385,80.3103883 27.0879698,78.2536776 C26.8549888,77.7992881 27.1006779,77.2707612 27.6372403,77.0746563 C28.1794507,76.8761598 28.7993214,77.0878097 29.0294784,77.5398077 C30.0235308,79.4757464 30.8410824,80.628461 30.8481425,80.6392228 C31.1488998,81.0637183 30.9893431,81.6149646 30.4894929,81.8708577 C30.3186401,81.9581483 30.1294313,82 29.9416345,82" id="Fill-30" fill="#CB9A6E"/>
                <path d="M62.1735744,26.164065 C61.7361651,26.164065 61.342241,25.8613905 61.241202,25.4112591 C61.1209784,24.8899862 61.444559,24.3687133 61.9599856,24.249713 C64.6790852,23.6159073 67.4020217,23.1955259 70.0520566,23.0002103 C70.5713202,22.9898625 71.0394249,23.362385 71.0790731,23.8965927 C71.1174423,24.4308004 70.7209602,24.8964536 70.1927438,24.935258 C67.638632,25.1228128 65.0154555,25.5289658 62.389721,26.1381954 C62.3168195,26.1563042 62.2451969,26.164065 62.1735744,26.164065 M86.0405155,26.612903 C85.9497083,26.612903 85.8576222,26.5999682 85.7642571,26.5702181 C83.2983944,25.8199991 80.7046344,25.3026066 78.0609943,25.0322691 C77.5340568,24.9779429 77.1490855,24.5032353 77.2028025,23.9703211 C77.2565194,23.4374069 77.7438086,23.0403082 78.2528404,23.1023953 C81.0192621,23.3856677 83.7319667,23.9276362 86.316774,24.7140727 C86.8232479,24.867997 87.1122961,25.4086721 86.9588191,25.9221841 C86.8334796,26.3425654 86.4523453,26.612903 86.0405155,26.612903 M47.1123719,31.775186 C46.759375,31.775186 46.4230047,31.5798704 46.2541801,31.2409783 C46.0150119,30.7623903 46.206858,30.1790303 46.6800786,29.9384429 C49.1689627,28.6721249 51.6795895,27.5610246 54.1428942,26.6323052 C54.6365783,26.4486309 55.1903742,26.7021532 55.3771044,27.2040238 C55.5612768,27.704601 55.3093188,28.2646783 54.8117978,28.4522331 C52.4149997,29.3550829 49.9683217,30.43902 47.5421073,31.6717075 C47.4026991,31.7415555 47.256896,31.775186 47.1123719,31.775186 M33.9427726,40.9951192 C33.6972095,40.9951192 33.4542044,40.9019886 33.2661951,40.7131403 C32.8901767,40.3354438 32.8888977,39.7210403 33.2623582,39.3420504 C35.1028024,37.4652093 37.2386896,35.6905533 39.6086291,34.065941 C40.0473174,33.7645599 40.6433194,33.8822667 40.9413205,34.3259307 C41.2393215,34.7683012 41.1242138,35.3723569 40.6855256,35.673738 C38.416625,37.2285023 36.3766609,38.921669 34.623187,40.7079664 C34.4364567,40.8994016 34.1883357,40.9951192 33.9427726,40.9951192 M25.9274401,54.8793452 C25.8468647,54.8793452 25.7650103,54.8689974 25.6857139,54.8483017 C25.1715662,54.7124861 24.8646123,54.1834524 24.9989046,53.6660599 C25.6946667,50.9600975 26.7664473,48.3576136 28.1848299,45.931043 C28.4546935,45.4718572 29.0404637,45.315346 29.4983366,45.5908575 C29.9549304,45.8624885 30.1058494,46.4574898 29.8359858,46.9192626 C28.5096894,49.1893219 27.5069734,51.6236533 26.8546965,54.1537023 C26.7421467,54.5908989 26.3533385,54.8793452 25.9274401,54.8793452 M25.9108134,71 C25.4746831,71 25.0782011,70.6960319 24.9771621,70.244607 C24.3466277,67.4377531 24.0179313,64.6554753 24,61.9727955 C23.9961887,61.4372943 24.4233662,61.0000977 24.9528616,60.9962173 L24.9592564,60.9962173 C25.4861939,60.9962173 25.9146503,61.4269465 25.9184872,61.9598607 C25.9351139,64.5028445 26.2471837,67.1454264 26.8483016,69.8151713 C26.9659673,70.3364442 26.6423867,70.8577171 26.1244021,70.9767173 C26.0540585,70.9922391 25.982436,71 25.9108134,71" id="Fill-32" fill="#CB9A6E"/>
                <path d="M97.0617658,32 C96.8492999,32 96.6343344,31.9261839 96.4593625,31.7772792 C96.4493641,31.7683703 95.41578,30.8914865 93.478591,29.7855185 C93.0261636,29.5271623 92.8674391,28.9455427 93.1198986,28.4848287 C93.3736078,28.0253875 93.9447662,27.8675738 94.3959437,28.1195666 C96.5043553,29.3235318 97.6204261,30.276777 97.6666687,30.3175031 C98.0628551,30.6560388 98.1128471,31.2580214 97.7791507,31.6601916 C97.5941804,31.8854579 97.3292229,32 97.0617658,32" id="Fill-34" fill="#CB9A6E"/>
                <path d="M36.8943027,82 C36.8943027,82 25.4273596,55.6957912 48.1422882,38.598705 C70.8585049,21.5016188 96,38.598705 96,38.598705" id="Fill-36" fill="#E8BB8F"/>
                <path d="M82.4378477,38.5621523 C75.7308132,31.8551178 61.8155703,34.8966799 51.3548466,45.3548466 C40.8966799,55.8155703 37.8551178,69.7308132 44.5621523,76.4378477 C51.2691868,83.1448822 65.1844297,80.1033201 75.6451534,69.6451534 C86.1033201,59.1844297 89.1448822,45.2691868 82.4378477,38.5621523" id="Fill-38" fill="#FEC1C7"/>
            </g>
            <g id="Board" transform="translate(128.000000, 28.000000)">
                <path d="M97.1806174,3.2523928 C97.1806174,3.2523928 106.807127,2.24550953 104.157644,25.3926373 C101.506565,48.5381668 95.3494271,75.0991083 106,88 L30.7329741,80.5618496 C30.7329741,80.5618496 25.686035,45.1818892 30.1188554,25.7714172 C35.8835956,0.529013276 24,0 24,0 L97.1806174,3.2523928 Z" id="Fill-1" fill="#D0C5BA"/>
                <path d="M81.7559471,113.999155 L1.15576529,111.056145 C0.512068232,111.034403 0,110.5219 0,109.897578 L0,106.160965 C0,105.502477 0.566646037,104.975996 1.24565814,105.000845 L81.8458399,107.943855 C82.489537,107.965597 83,108.4781 83,109.102422 L83,112.840588 C83,113.497523 82.4349592,114.024004 81.7559471,113.999155" id="Fill-13" fill="#EABD91"/>
                <path d="M51.46408,210 C51.3311581,210 51.1949541,209.988837 51.0587502,209.966511 C49.7180441,209.752816 48.8105649,208.520085 49.0337424,207.217186 L53.3315507,181.959759 L56.0786034,109.305188 C56.1278337,107.984746 57.3027977,106.943384 58.6270937,107.002389 C59.985851,107.050231 61.0475852,108.161762 60.9983549,109.480609 L58.2119179,182.591275 L53.8894945,207.998606 C53.6892911,209.169143 52.647249,210 51.46408,210" id="Fill-14" fill="#EABD91"/>
                <path d="M68.9911072,215 C68.2306165,215 67.502282,214.574169 67.1630356,213.851833 L53.9485058,185.707545 L33.6258806,212.687894 C32.9666815,213.561637 31.7077721,213.747741 30.8154416,213.102685 C29.9231111,212.454476 29.7333904,211.221142 30.3941973,210.344246 L54.7556227,178 L70.8159632,212.205286 C71.2790103,213.192583 70.8384724,214.364408 69.8287724,214.820205 C69.5586615,214.941645 69.2724727,215 68.9911072,215" id="Fill-15" fill="#EABD91"/>
                <polygon id="Fill-16" fill="#FFF6ED" points="21.7901465 9 4 105.124118 79.1248253 109 97 11.5812543"/>
                <polygon id="Fill-17" fill="#9C9B9A" points="96.9712141 13 22 10.7098912 22.0287859 10 97 12.2901088"/>
                <path d="M98,3.29534131 C98,3.29534131 91.6792369,7.59790732 96.5980382,13 L21.9964834,10.3880169 C21.9964834,10.3880169 18.3555202,4.48716991 24.992958,0 L98,3.29534131 Z" id="Fill-18" fill="#FFF6ED"/>
                <path d="M72.3994973,88 C72.3866779,88 72.3738586,88 72.3626417,87.9983964 L17.563189,84.6324455 C17.3933328,84.6244275 17.2330911,84.5394369 17.1273316,84.4031311 C17.0215721,84.2684289 16.9783068,84.0920332 17.0103551,83.9236555 L27.2978716,28.4921051 C27.3587634,28.1649713 27.6632226,27.9516928 27.9981277,28.0094223 C28.3250208,28.070359 28.5397447,28.3846641 28.4804552,28.7101944 L18.3163249,83.4746482 L72.4363529,86.7989056 C72.7664507,86.8197523 73.0196326,87.1035891 72.9988012,87.4355337 C72.9795722,87.7546496 72.7151734,88 72.3994973,88" id="Fill-19" fill="#9C9B9A"/>
                <path d="M40.2853618,78 C40.2380826,78 40.1891732,77.9953323 40.1418941,77.982885 C39.856589,77.9175368 39.6609512,77.6685912 39.6739937,77.3885275 L41.6271108,37.3394135 L25.2098412,69.030181 C25.0924585,69.2573438 24.8283475,69.3833724 24.5707578,69.3491424 C24.3082771,69.3118006 24.1012271,69.1173119 24.0588389,68.8668104 L22.007903,56.8614117 C21.9541026,56.5424502 22.1807163,56.2437156 22.5133005,56.1908146 C22.857297,56.1441374 23.1605355,56.357297 23.2143359,56.6731466 L24.9587727,66.8830257 L41.8260092,34.3240606 C41.9548041,34.076671 42.2466304,33.9537541 42.5270446,34.0159905 C42.8074587,34.0860064 42.9982055,34.3333961 42.985163,34.6087921 L41.0450884,74.4058487 L53.6930704,47.7857908 C53.7974105,47.5664075 54.022394,47.4123725 54.2881353,47.4450466 C54.5408341,47.4606057 54.7592962,47.6239762 54.8342907,47.8542508 L61.507169,68.4171526 L75.8881756,48.6555443 C76.0789224,48.3894837 76.4587857,48.3225796 76.7375696,48.5092888 C77.0147231,48.6928861 77.0831963,49.0554131 76.8908191,49.3199177 L61.7941044,70.0648609 C61.6620489,70.2484582 61.4484777,70.355816 61.1990395,70.3091387 C60.9691652,70.2749087 60.7784183,70.1193177 60.7083148,69.9061581 L54.1414069,49.6668855 L40.8429294,77.6576999 C40.7402196,77.8693036 40.5217574,78 40.2853618,78" id="Fill-20" fill="#9C9B9A"/>
            </g>
        </g>
        <g transform="translate(-42.000000, 8.000000) scale(1 1)" id="Master/Female Character/Sitting">
            <g id="Master/Female Character/Sitting" stroke="none" stroke-width="1" fill="none" fill-rule="evenodd">
                <g id="Female Sitting Lower" transform="translate(68.000000, 108.000000) scale(1 1)">
                    <g id="Female Sitting Lower/Jeans 4" stroke="none" stroke-width="1" fill="none" fill-rule="evenodd">
                        <g id="Group-22" transform="translate(41.000000, 31.000000)">
                            <path d="M17.4204,4.46 C17.4204,4.46 22.6834,0.858 28.3614,1.136 C34.0394,1.413 38.3514,3.213 39.9354,11.939 C39.9354,11.939 52.7364,14.293 65.4774,26.203 C78.2194,38.113 78.7734,38.529 77.1114,48.224 C75.4494,57.918 70.6024,69.69 70.6024,69.69 L68.9244,87.912 C68.9244,87.912 71.2714,94.376 74.3494,96.453 C77.4274,98.531 79.3784,99.531 77.7874,100.993 C76.1964,102.455 75.8114,100.686 72.7334,100.993 C69.6554,101.301 69.3474,99.686 69.3474,99.686 C69.3474,99.686 72.9644,108.381 79.3514,112.151 C79.3514,112.151 81.5054,114.152 79.3514,115.075 C77.1964,115.999 71.1944,115.922 68.3474,113.998 C65.5004,112.074 59.6514,107.149 57.7284,106.61 C55.8044,106.072 56.7284,103.225 56.7284,103.225 L59.4984,95.53 C59.4984,95.53 58.7284,94.529 56.5744,93.837 C54.4194,93.145 53.2654,90.221 53.4964,89.143 C53.7274,88.065 57.5744,82.603 57.6514,78.601 C57.6514,78.601 55.7274,73.138 53.1114,68.289 C50.4954,63.441 53.8804,51.668 55.8044,48.513 C55.8044,48.513 52.8034,48.975 47.1084,49.437 C41.4144,49.898 22.0744,51.286 10.7324,45.039 C-0.6106,38.791 0.5064,17.609 17.4204,4.46" id="Fill-1" fill="#a15122"/>
                            <path d="M32.7451,20.0899 C36.4661,20.9439 40.1421,22.0239 43.7361,23.3339 C47.3261,24.6519 50.8641,26.1429 54.2451,27.9569 C57.6171,29.7779 60.8781,31.8539 63.7831,34.3939 C66.6961,36.9049 69.1901,39.9979 70.7251,43.5769 L70.7511,43.6379 L70.7521,43.7049 C70.7791,48.0359 70.7631,52.3659 70.7391,56.6969 C70.7391,61.0279 70.6511,65.3599 70.6021,69.6909 C70.4901,65.3609 70.3391,61.0309 70.2761,56.6999 C70.1901,52.3709 70.1111,48.0409 70.0761,43.7099 L70.1021,43.8379 C68.6021,40.3899 66.1381,37.4249 63.2961,34.9469 C60.4681,32.4349 57.2621,30.3579 53.9351,28.5289 C50.5941,26.7209 47.1381,25.1109 43.5851,23.7329 C40.0351,22.3569 36.4341,21.0779 32.7451,20.0899" id="Fill-3" fill="#782001"/>
                            <path d="M57.6514,78.6007 C58.2754,79.9107 58.7564,81.2817 59.1784,82.6687 C59.5924,84.0607 59.9184,85.4797 60.1474,86.9177 C60.3324,88.3597 60.4854,89.8167 60.3994,91.2777 C60.3124,92.7317 60.0654,94.1917 59.4984,95.5307 C59.8674,94.1267 60.0074,92.6977 60.0144,91.2677 C60.0204,89.8367 59.8734,88.4077 59.6534,86.9927 C59.4684,85.5697 59.1404,84.1687 58.8094,82.7697 C58.4674,81.3717 58.0814,79.9827 57.6514,78.6007" id="Fill-5" fill="#000"/>
                            <path d="M68.9248,87.9122 C68.7988,89.8972 68.6908,91.8642 68.7098,93.8312 C68.7288,95.7982 68.8698,97.7522 69.3478,99.6852 C68.9168,98.7852 68.6538,97.8082 68.4708,96.8242 C68.2928,95.8372 68.2308,94.8352 68.2098,93.8362 C68.2068,92.8362 68.2568,91.8382 68.3788,90.8482 C68.4988,89.8582 68.6578,88.8732 68.9248,87.9122" id="Fill-7" fill="#000"/>
                            <path d="M55.4765,48.5606 C55.5435,47.9956 55.8055,47.5016 56.1185,47.0596 C56.4475,46.6276 56.8485,46.2376 57.3655,46.0056 C57.2495,46.2676 57.1025,46.4876 56.9635,46.7116 C56.8265,46.9376 56.6705,47.1446 56.5205,47.3566 C56.2035,47.7706 55.8885,48.1756 55.4765,48.5606" id="Fill-9" fill="#782001"/>
                            <path d="M27.9585,8.10929635e-06 C27.9585,8.10929635e-06 19.2085,1.5821 16.1645,4.2741 C13.1195,6.9671 -5.2795,19.2761 1.4815,35.6481 C8.2435,52.0201 34.6665,51.4651 53.4795,48.8141 C53.4795,48.8141 49.4705,64.8061 49.1115,73.7681 C48.7535,82.7301 47.3195,90.2591 47.3195,90.2591 C47.3195,90.2591 63.9475,91.9321 71.0995,90.7361 L71.0995,80.5791 C71.0995,80.5791 74.8035,80.8181 75.1625,79.9811 C75.1625,79.9811 78.8665,43.5351 78.1495,40.5481 C77.4325,37.5601 60.3935,15.8321 39.9355,11.9381 L38.5415,5.9051 C38.5415,5.9051 38.2575,-0.0269 27.9585,8.10929635e-06" id="Fill-11" fill="#C1EDFB"/>
                            <path d="M32.7451,20.0899 C36.4811,20.8889 40.1591,21.9759 43.7631,23.2649 C47.3571,24.5769 50.9121,26.0409 54.2981,27.8609 C57.6821,29.6739 60.9471,31.7579 63.8701,34.2949 C66.7791,36.8269 69.3151,39.9149 70.8291,43.5339 L70.8631,43.6129 L70.8641,43.6989 C70.9731,49.8449 71.0241,55.9909 71.0651,62.1379 C71.1241,68.2839 71.1241,74.4319 71.0991,80.5789 C70.8461,74.4369 70.6181,68.2929 70.4481,62.1499 C70.2611,56.0059 70.0831,49.8609 69.9641,43.7159 L69.9981,43.8809 C68.5321,40.4399 66.0351,37.5189 63.2211,35.0339 C60.3991,32.5339 57.2081,30.4469 53.8861,28.6239 C50.5531,26.8119 47.1051,25.1899 43.5621,23.7959 C40.0201,22.4009 36.4201,21.1319 32.7451,20.0899" id="Fill-13" fill="#AADBEB"/>
                            <g id="Group-17" transform="translate(55.000000, 96.245000)" fill="#131313">
                                <path d="M3.6221,0.3732 C3.6221,0.3732 4.0421,0.3112 4.0801,0.4472 C4.1161,0.5772 3.8321,1.1352 3.8321,1.1352 C4.4161,3.2762 6.0261,9.3492 6.2001,11.7752 C6.2321,12.2242 6.4691,12.6252 6.8421,12.8752 L13.2731,17.1772 C13.8481,17.5612 14.6201,17.4062 15.0021,16.8302 C16.0401,15.2672 18.1781,12.5512 20.4181,12.7092 C20.4181,12.7092 28.8121,17.3112 28.8121,17.8962 C28.8121,18.4802 23.5261,21.6202 13.9021,18.9182 C13.9021,18.9182 6.1781,13.4422 3.6221,11.8362 C1.0661,10.2292 -0.6859,9.4992 0.5561,6.5792 C1.7971,3.6582 3.6221,0.3732 3.6221,0.3732" id="Fill-15"/>
                            </g>
                            <path d="M69.25,99.4083 L69.689,100.4393 C69.689,100.4393 74.212,103.2083 80.459,100.6383 C80.459,100.6383 81.138,100.2333 80.595,99.9903 C80.052,99.7463 74.514,96.0983 74.065,96.2453 C73.617,96.3923 71.428,99.7183 69.25,99.4083" id="Fill-18" fill="#131313"/>
                            <path d="M51.7832,90.6397 C51.7832,90.6397 51.1932,92.0277 52.2642,92.4417 C53.3352,92.8567 59.3792,95.8617 59.3792,95.8617 L59.4982,95.5307 C59.1212,94.5827 58.0602,92.4567 57.7922,91.0087 L51.7832,90.6397 Z" id="Fill-20" fill="#131313"/>
                        </g>
                    </g>
                </g>
                <g id="Female Top" transform="translate(82.000000, 93.000000) scale(1 1)">
                    <g id="Female Top/Sleeveless 1" stroke="none" stroke-width="1" fill="none" fill-rule="evenodd">
                        <g id="Group-50" transform="translate(30.000000, 0.000000)">
                            <path d="M42.7858,28.3971 C42.7858,28.3971 45.6818,35.5821 46.6368,43.3241 C46.6368,43.3241 54.0028,42.0901 57.8658,39.9591 C57.8658,39.9591 59.4278,37.0971 60.9988,36.5921 C62.5698,36.0871 67.7868,34.7441 67.7868,35.6121 C67.7868,36.4801 66.4968,37.2101 66.4968,37.2101 C66.4968,37.2101 67.5628,37.5451 69.2458,37.2651 C70.9288,36.9851 72.9488,37.9071 72.9488,37.9071 C72.9488,37.9071 74.2388,38.1591 74.9118,38.5821 C75.5848,39.0041 75.3608,40.0141 72.6678,39.9021 C72.6678,39.9021 73.4528,40.2391 73.1728,40.7441 C72.8918,41.2491 70.2558,41.1921 68.5158,42.0901 C66.7768,42.9881 61.7838,42.2581 61.7838,42.2581 C61.7838,42.2581 52.0778,50.5051 46.5798,52.4691 C41.0818,54.4321 39.3428,50.0561 38.0528,43.1001 C36.7628,36.1431 35.5688,25.5871 42.7858,28.3971" id="Fill-1" fill="#a15122"/>
                            <path d="M61.0851,36.9362 C61.4091,36.5842 61.9131,36.4582 62.3811,36.4252 C62.8571,36.3902 63.3351,36.4982 63.7871,36.5732 C64.6931,36.7572 65.6001,36.9352 66.4971,37.2082 C65.5701,37.1402 64.6521,36.9752 63.7351,36.8172 C63.2771,36.7192 62.8411,36.6242 62.3861,36.6172 C61.9421,36.6192 61.4651,36.6612 61.0851,36.9362" id="Fill-3" fill="#000"/>
                            <path d="M68.2223,38.5817 C69.0553,38.2277 69.9473,38.0407 70.8423,37.9157 C71.2933,37.8717 71.7463,37.8437 72.1993,37.8557 C72.6533,37.8717 73.1043,37.9357 73.5413,38.0487 C71.7423,37.9597 69.9943,38.2637 68.2223,38.5817" id="Fill-5" fill="#000"/>
                            <path d="M61.4122,39.3259 C62.2612,38.8609 63.2292,38.6089 64.2172,38.5699 C64.7112,38.5429 65.2132,38.6029 65.7002,38.7149 C66.1692,38.8289 66.6362,38.9659 67.0972,39.1029 C67.5582,39.2529 67.9892,39.3879 68.4432,39.4289 C68.8982,39.4799 69.3792,39.4709 69.8492,39.4719 C70.3212,39.4719 70.7942,39.4139 71.2922,39.4199 C71.7932,39.4339 72.2842,39.6129 72.6682,39.9019 C71.7702,39.4319 70.8462,39.7599 69.8732,39.8569 C69.3852,39.9119 68.9032,39.9259 68.4022,39.8999 C67.8952,39.8709 67.4012,39.7189 66.9492,39.5809 C66.0272,39.2999 65.1412,38.9819 64.2152,38.9529 C63.2852,38.9129 62.3342,39.0549 61.4122,39.3259" id="Fill-7" fill="#000"/>
                            <g id="Group-11" transform="translate(0.000000, 0.190200)" fill="#a15122">
                                <path d="M37.4069,58.0575 C35.2089,57.7985 33.4539,57.7255 33.1819,57.8375 C32.9109,57.9515 32.0739,57.9785 31.2849,57.8945 C30.4959,57.8095 27.8199,59.6135 25.8189,60.3665 C23.8189,61.1205 23.7659,60.7335 23.7659,60.7335 C18.6269,58.0755 10.5169,53.6405 10.5169,53.6405 L9.7869,37.1075 L13.6439,44.6975 L14.0459,49.9575 C18.9229,54.6825 35.5369,51.5785 35.5369,51.5785 L36.8609,44.6135 C36.8609,44.6135 44.6389,32.0265 42.5309,27.3875 C40.4229,22.7485 32.6219,15.7915 27.1759,11.7555 C27.1759,11.7555 28.4519,3.6785 25.3109,1.5275 C22.1699,-0.6255 20.9979,2.7515 20.9979,2.7515 C20.9979,2.7515 20.6499,9.6795 17.8179,11.6835 C14.9859,13.6885 2.1099,19.7775 0.4729,29.3905 C-1.1641,39.0025 1.8859,57.5995 3.0169,58.3695 C4.1479,59.1385 21.1619,67.0885 26.2129,65.8735 C31.2639,64.6595 33.1819,63.1245 33.1819,63.1245 L33.8989,62.7005 C34.7709,62.1835 35.8309,62.0865 36.7819,62.4425 C37.3769,62.6635 37.8609,62.6995 37.9979,62.7505 C38.2499,62.8455 40.1919,63.4595 41.2959,62.7365 C41.5739,62.5545 41.2409,61.9575 40.7189,61.9345 C40.4539,61.9225 41.1579,61.8535 41.2759,61.5335 C41.3609,61.2995 40.8019,61.0585 40.4109,60.8325 C40.1709,60.6935 40.6679,60.5805 40.8839,60.3665 C40.8839,60.3665 40.3289,59.0045 37.4069,58.0575" id="Fill-9"/>
                            </g>
                            <path d="M33.4137,59.3288 C34.7877,59.7558 36.1347,60.2308 37.4767,60.7148 L39.5047,61.4358 C39.8427,61.5628 40.1787,61.6938 40.5137,61.8468 C40.6807,61.9248 40.8477,62.0028 41.0147,62.1018 C41.0987,62.1528 41.1827,62.2058 41.2677,62.2768 C41.3457,62.3598 41.4657,62.4158 41.5047,62.6688 C41.4767,62.9598 41.3537,62.9988 41.2717,63.0878 C41.1807,63.1648 41.0857,63.2168 40.9907,63.2608 C40.7997,63.3458 40.6057,63.4008 40.4137,63.4278 C40.0287,63.4888 39.6497,63.4758 39.2797,63.4358 C38.5417,63.3508 37.8297,63.1418 37.1617,62.8868 C35.8837,62.4038 34.3187,62.3908 33.1827,63.3148 C33.6617,62.7698 34.3717,62.4618 35.0927,62.3298 C35.8247,62.2208 36.5767,62.3118 37.2817,62.5208 C37.9687,62.7198 38.6367,62.9268 39.3267,62.9828 C39.6677,63.0148 40.0107,63.0168 40.3317,62.9568 C40.4947,62.9328 40.6457,62.8818 40.7807,62.8188 C40.8467,62.7868 40.9087,62.7488 40.9537,62.7098 C41.0037,62.6878 41.0247,62.5868 41.0057,62.6938 C41.0477,62.7688 40.8897,62.5768 40.7617,62.5188 C40.6227,62.4328 40.4667,62.3538 40.3117,62.2778 C39.9977,62.1268 39.6697,61.9908 39.3407,61.8588 C38.6837,61.5898 38.0027,61.3768 37.3467,61.0748 C36.0237,60.5138 34.7057,59.9448 33.4137,59.3288" id="Fill-12" fill="#000"/>
                            <path d="M32.6251,58.3551 C33.4621,58.0241 34.4061,58.1511 35.2651,58.3441 C36.1431,58.5431 36.9561,58.9051 37.7581,59.2711 C38.5531,59.6581 39.3281,60.0901 40.0581,60.5801 C40.4331,60.8261 40.7661,61.0651 41.1691,61.2801 C41.2681,61.3501 41.3831,61.4561 41.3981,61.6201 C41.4111,61.7881 41.2901,61.8951 41.1961,61.9581 C40.9911,62.0871 40.7631,62.1151 40.5441,62.1251 C40.7531,62.0641 40.9661,61.9851 41.1151,61.8521 C41.2841,61.7051 41.2231,61.5661 41.0421,61.4901 C40.6501,61.3371 40.2421,61.1071 39.8621,60.9111 C39.0901,60.5011 38.3271,60.0911 37.5431,59.7221 C36.7601,59.3511 35.9711,58.9871 35.1611,58.7121 C34.3501,58.4551 33.4951,58.2311 32.6251,58.3551" id="Fill-14" fill="#000"/>
                            <path d="M5.1251,21.1032 C5.1251,21.1032 4.9701,20.3662 5.8961,19.5122 C6.8211,18.6582 8.4581,17.1642 10.9491,18.3742 C13.4401,19.5832 19.6331,19.1542 24.6151,19.5112 C29.5981,19.8682 35.4711,19.4032 36.3881,19.1892 C36.3881,19.1892 38.0271,20.6022 37.7371,21.1762 C37.4471,21.7512 36.7871,23.4982 37.5691,24.7072 C38.3521,25.9172 44.6811,34.3142 37.8871,44.2102 C37.8871,44.2102 37.3501,48.4812 37.8871,50.1182 C38.4231,51.7552 35.7191,54.6672 24.4731,53.8162 C16.6951,53.2282 13.2751,51.0032 11.9061,49.6882 C11.3811,49.1842 11.1491,48.4572 11.2781,47.7422 C11.5191,46.4092 11.8671,44.0402 11.5191,43.0722 C11.0211,41.6862 10.0951,40.5142 10.5931,36.4182 C11.0921,32.3242 12.1591,29.4772 11.5191,26.9152 C10.8781,24.3522 8.2701,18.7902 5.1251,21.1032" id="Fill-16" fill="#FFE9DF"/>
                            <polygon id="Fill-18" fill="#3F3E3E" points="7.9723 19.4303 7.9723 20.7233 9.0253 20.7233 10.1333 20.3533 9.0523 18.8763"/>
                            <polygon id="Fill-20" fill="#3F3E3E" points="13.0411 22.2926 14.6101 20.9996 16.0881 22.9386 14.2411 23.7696"/>
                            <polygon id="Fill-22" fill="#3F3E3E" points="23.8434 22.7077 24.6284 23.4167 26.3204 22.7077 25.0814 20.9997"/>
                            <polygon id="Fill-24" fill="#3F3E3E" points="33.9064 23.4167 32.6604 24.6467 33.9064 26.1237 35.1534 24.7707"/>
                            <polygon id="Fill-26" fill="#3F3E3E" points="37.9493 29.6208 37.0793 30.9248 37.8873 32.1718 39.3533 31.4788"/>
                            <polygon id="Fill-28" fill="#3F3E3E" points="32.6603 32.5866 31.4603 33.2326 31.8293 35.0796 33.9063 34.8026"/>
                            <polygon id="Fill-30" fill="#3F3E3E" points="26.3204 30.3249 24.1604 30.8959 23.8434 29.2169 25.0814 28.7089"/>
                            <polygon id="Fill-32" fill="#3F3E3E" points="18.7194 32.5866 17.7034 30.8966 16.0884 30.8966 16.0884 32.1716"/>
                            <polygon id="Fill-34" fill="#3F3E3E" points="16.088 37.9069 17.934 40.2039 15.295 40.4359 14.565 39.1719 14.841 37.9069"/>
                            <polygon id="Fill-36" fill="#3F3E3E" points="15.295 46.0202 13.787 46.7582 13.91 48.3722 15.013 48.9122 16.25 48.0632"/>
                            <polygon id="Fill-38" fill="#3F3E3E" points="21.9503 50.3591 23.2603 49.2051 24.6743 50.7771 22.5173 51.7441"/>
                            <polygon id="Fill-40" fill="#3F3E3E" points="27.9401 46.4352 28.2961 48.0562 30.1681 47.4652 29.4701 45.7062"/>
                            <polygon id="Fill-42" fill="#3F3E3E" points="34.0787 40.7575 35.1527 42.7425 34.4137 43.2965 32.9587 43.1115 32.6327 42.0275"/>
                            <polygon id="Fill-44" fill="#3F3E3E" points="35.8605 48.0563 34.0785 49.8683 35.1525 50.9473 36.7685 49.5013 36.7685 48.9113"/>
                            <polygon id="Fill-46" fill="#3F3E3E" points="39.0309 35.944 38.2169 36.465 37.8769 37.907 38.4539 38.865 39.3539 38.221 39.9999 37.907"/>
                            <polygon id="Fill-48" fill="#3F3E3E" points="22.7184 40.7575 24.1604 39.9845 25.5254 41.6865 24.4124 42.6465 23.3124 42.6465"/>
                        </g>
                    </g>
                </g>
                <g id="Female Head" transform="translate(111.000000, 63.000000) scale(1 1)">
                    <g id="Female Head/Short Wavy 2" stroke="none" stroke-width="1" fill="none" fill-rule="evenodd">
                        <g id="Group-21" transform="translate(14.350000, 1.700000)">
                            <g id="Group-3" transform="translate(2.000000, 8.489300)" fill="#a15122">
                                <path d="M4.0624,21.9146 C4.0624,21.9146 5.1964,24.1826 7.6764,25.6706 C10.1564,27.1586 13.2744,29.4266 14.8334,28.9306 C16.3924,28.4346 20.5244,25.2686 21.5164,21.7266 C22.5084,18.1826 23.1244,12.2766 22.4874,9.3716 C21.8494,6.4656 18.2354,0.3716 11.7874,0.3716 C5.3374,0.3716 -0.4026,7.1736 1.1564,14.6856 C1.1564,14.6856 -0.6356,16.8836 0.8984,19.1506 C2.4324,21.4186 4.0624,21.9146 4.0624,21.9146" id="Fill-1"/>
                            </g>
                            <path d="M9.9101,25.6559 C9.9101,25.6559 12.7571,25.7269 13.5131,26.2759 C13.5131,26.2759 13.7901,26.3739 13.6831,26.0099 C13.6831,26.0099 14.0911,26.3019 14.1171,26.1429 C14.1441,25.9839 13.9401,24.4419 12.3371,24.2299 C10.7331,24.0169 9.5291,25.4879 9.9101,25.6559" id="Fill-4" fill="#000"/>
                            <path d="M22.3828,25.2487 C22.3828,25.2487 20.5758,25.2217 19.8448,25.7697 C19.8448,25.7697 19.5758,25.8677 19.6788,25.5047 C19.6788,25.5047 19.2838,25.7967 19.2588,25.6377 C19.2338,25.4777 19.9678,24.0257 21.5208,23.8127 C23.0718,23.6017 23.4808,24.9587 22.3828,25.2487" id="Fill-6" fill="#000"/>
                            <path d="M17.6523,30.5993 C17.6523,30.5993 17.4393,30.7763 17.6523,30.9533 C17.8643,31.1303 19.2643,30.6343 19.5833,30.1733 C19.9023,29.7123 19.7133,29.6603 19.2573,29.9253 C18.8033,30.1913 17.6523,30.5993 17.6523,30.5993" id="Fill-8" fill="#000"/>
                            <path d="M14.7822,32.0338 C14.7822,32.0338 14.6932,31.8748 15.4552,31.8748 C16.2172,31.8748 16.1462,32.0158 17.3862,32.0338 C18.6262,32.0518 19.1342,32.0338 18.6492,32.3528 C18.1662,32.6718 18.2012,32.6538 18.1122,32.9018 C18.0242,33.1498 16.9022,33.5938 16.0192,33.2918 C15.1362,32.9908 14.2342,32.1908 14.7822,32.0338" id="Fill-10" fill="#EE4E2F"/>
                            <path d="M9.4609,21.4752 C9.5969,21.4332 9.4139,21.7102 10.0279,21.6052 C10.6429,21.4982 12.3189,21.3092 13.8309,22.2542 C13.8309,22.2542 14.1019,22.0412 14.1199,21.6402 C14.1369,21.2642 11.5909,19.9772 9.4249,21.4042 C9.2769,21.5012 9.3229,21.5172 9.4609,21.4752" id="Fill-12" fill="#000"/>
                            <path d="M22.3828,21.6168 C22.3828,21.6168 21.4848,20.6478 19.9728,21.0968 C18.4608,21.5458 18.6018,22.2308 18.6498,22.4198 C18.6968,22.6088 19.7838,21.6868 20.9178,21.6988 C22.0518,21.7108 22.3828,21.9468 22.3828,21.6168" id="Fill-14" fill="#20180F"/>
                            <path d="M22.5742,21.6168 C22.5742,21.6168 21.6772,20.6478 20.1652,21.0968 C18.6532,21.5458 18.7942,22.2308 18.8422,22.4198 C18.8892,22.6088 19.9752,21.6868 21.1092,21.6988 C22.2442,21.7108 22.5742,21.9468 22.5742,21.6168" id="Fill-16" fill="#000"/>
                            <g id="Group-20" transform="translate(0.000000, 0.489300)" fill="#ee4e2f">
                                <path d="M5.2704,23.3014 C5.2704,23.3014 4.5334,22.6574 3.1564,22.6864 C3.1564,22.6864 2.7294,23.2694 2.5764,23.7194 C2.5764,23.7194 0.5454,17.0694 0.1724,16.3234 C-0.2006,15.5774 0.0614,14.4224 0.6574,13.1174 C1.2534,11.8134 1.5864,9.4274 2.2774,9.2794 C2.9684,9.1294 3.4534,8.3464 4.1994,8.1974 C4.9444,8.0484 5.2604,7.6754 5.2704,7.2284 C5.2804,6.7804 5.5034,7.0784 5.5034,6.2594 C5.5034,5.4394 5.7644,3.0534 7.0324,1.5254 C7.0324,1.5254 10.2374,0.4064 10.8714,0.5184 C10.8714,0.5184 11.8024,2.0464 12.8464,1.6374 C13.8904,1.2274 14.0774,0.7044 14.9714,0.7044 C15.8664,0.7044 16.4624,0.6304 17.0214,0.8544 C17.5814,1.0774 17.7604,0.9284 17.9504,1.7114 C18.1394,2.4934 19.8174,3.5744 22.0164,3.2774 C22.0164,3.2774 22.0904,4.0224 22.7994,3.8734 C22.7994,3.8734 23.6344,4.4724 23.3674,3.3374 C23.3674,3.3374 24.4694,4.2824 24.4854,4.6454 C24.5004,5.0074 24.3164,5.9524 24.7474,6.1734 C25.1784,6.3934 27.9664,7.7894 29.0784,7.9674 C29.0784,7.9674 29.2774,8.2784 28.7664,8.6554 C28.2554,9.0334 27.7454,9.4784 27.9664,9.7884 C28.1894,10.1004 29.3664,10.3224 29.7664,9.6334 C29.7664,9.6334 29.8324,9.8114 29.8994,10.1444 C29.8994,10.1444 30.5884,10.0114 30.6554,10.4334 C30.7214,10.8554 30.4994,12.0864 31.1664,12.1144 C31.8324,12.1444 32.5874,11.7214 32.6104,12.2774 C32.6324,12.8324 31.8994,12.8764 31.8544,13.3214 C31.8104,13.7654 30.2544,14.3654 29.7444,15.0094 C29.2334,15.6544 29.2334,16.5874 29.7444,16.6974 C30.2544,16.8094 30.3434,16.8094 30.3884,17.3644 C30.4324,17.9204 31.3884,18.5204 31.3884,18.5204 C31.3884,18.5204 32.7214,17.8754 33.2764,18.2534 C33.8324,18.6314 34.0764,19.2974 34.3424,19.4314 C34.6094,19.5644 34.3424,20.1424 33.8324,19.9864 C33.3214,19.8304 32.8324,19.5414 32.8994,20.5864 C32.8994,20.5864 31.8544,21.2084 31.8544,21.4754 C31.8544,21.7414 34.0644,21.0084 34.4484,22.2524 C34.4484,22.2524 33.3654,22.6744 33.1214,22.8524 C32.8764,23.0304 31.6764,22.6404 31.2994,23.3014 C30.9214,23.9634 31.5214,23.9184 30.6104,24.4294 C30.6104,24.4294 31.6324,24.9624 31.6324,25.6964 C31.6324,26.4294 31.7214,26.6734 31.7654,26.9624 C31.8104,27.2514 31.7654,27.4064 31.2104,27.4064 C30.6554,27.4064 28.2104,27.3404 27.2334,27.6734 C26.2554,28.0064 25.4124,28.1404 25.2344,28.4504 C25.0564,28.7624 23.5164,29.7264 23.5164,29.7264 C23.5164,29.7264 23.9904,26.8074 23.9904,25.6964 C23.9904,24.5854 24.3894,21.6974 24.3894,21.6974 C24.3894,21.6974 23.5674,21.3024 23.6124,20.4884 C23.6564,19.6754 24.3674,19.3634 24.3674,19.3634 C24.3674,19.3634 23.5004,19.3424 23.3454,18.5644 C23.1904,17.7864 23.3234,17.3204 22.8344,17.0094 C22.3454,16.6974 22.5744,16.0984 22.5744,16.0984 L20.2124,14.8994 C20.2124,14.8994 19.8874,15.6984 20.6944,15.8544 C21.5014,16.0094 21.8344,16.1794 21.8344,16.7944 C21.8344,17.4084 22.0024,18.0754 22.5744,18.1874 C23.1454,18.2974 22.5234,18.4754 22.0354,18.3424 C21.5454,18.2084 21.1354,17.8754 21.1294,17.3644 C21.1244,16.8544 21.3014,16.6014 20.3904,16.7944 C19.4794,16.9874 19.1464,16.7864 18.9914,16.4094 C18.8354,16.0314 18.9914,16.0984 18.2804,15.9654 C17.5694,15.8314 17.6134,15.3434 17.7024,14.9434 C17.7914,14.5434 17.2364,13.8764 15.7914,13.9214 C15.7914,13.9214 16.1244,14.2774 15.7914,14.8544 C15.4584,15.4324 16.3474,15.0094 16.8134,15.6984 C17.2804,16.3874 18.6554,16.4534 18.6234,16.6974 C18.5904,16.9434 15.9924,17.2534 15.5024,16.3874 C15.0144,15.5214 15.0694,15.9874 14.1204,15.8544 C13.1694,15.7204 13.5214,14.6544 13.5124,14.4324 C13.5034,14.2094 13.1484,14.5434 12.5924,14.4544 C12.0374,14.3654 11.5924,14.1884 11.6154,13.1884 C11.6154,13.1884 10.6814,13.2104 10.4824,12.7874 C10.2824,12.3654 10.1704,13.0104 10.2374,13.4094 C10.3044,13.8104 10.7924,14.4054 9.1934,15.1174 C9.1934,15.1174 8.7714,17.0984 9.1934,18.0754 C9.6154,19.0534 9.4164,19.5864 8.7714,19.9864 C8.1264,20.3864 7.8604,20.7484 8.2384,21.0114 C8.6164,21.2754 9.6734,21.7414 9.3334,22.4304 C8.9934,23.1184 8.5044,22.8404 8.2384,23.3014 C7.9714,23.7634 7.7054,23.0744 8.0384,22.6864 C8.3714,22.2964 8.9934,22.1444 8.3934,21.7654 C7.7934,21.3864 7.2834,21.8144 7.2834,21.2224 C7.2834,20.6304 8.3044,19.5414 8.7264,19.2534 C9.1494,18.9644 8.0604,18.2764 8.0604,18.2764 C8.0604,18.2764 7.5274,18.3864 7.3044,18.1424 C7.3044,18.1424 7.2834,20.3044 6.7714,21.0114 C6.7714,21.0114 7.9824,22.8524 6.5274,23.5634 C6.5274,23.5634 8.0274,24.1554 7.9384,24.7594 C7.8494,25.3634 6.8274,25.3454 7.1384,25.7984 C7.4494,26.2514 7.9384,26.9404 7.6264,27.3844 C7.3164,27.8284 6.9604,26.8284 6.9604,26.8284 C6.9604,26.8284 6.2494,26.3224 6.2494,25.7984 C6.2494,25.2744 7.3604,24.8964 7.1164,24.5854 C6.8724,24.2744 5.6944,24.2314 5.5824,23.7194 C5.4724,23.2074 5.2704,23.3014 5.2704,23.3014" id="Fill-18"/>
                            </g>
                        </g>
                        <path d="M18.5637315,27.6622672 C18.5637315,27.6622672 18.3907315,27.4622672 18.3967315,27.7822672 C18.4037315,28.1022672 18.3237315,28.2762672 18.2307315,28.2492672 C18.1367315,28.2232672 17.6967315,27.4552672 18.3567315,27.0952672 C19.0177315,26.7352672 19.3777315,27.4492672 19.8517315,28.3362672 C20.3247315,29.2232672 20.1447315,30.4832672 19.6847315,30.5302672 C19.2247315,30.5772672 19.3577315,30.2572672 19.4037315,29.6172672 C19.4507315,28.9762672 18.8037315,27.7952672 18.5637315,27.6622672" id="Fill-28" fill="#000"/>
                    </g>
                </g>
                <g id="Female Accesories" transform="translate(123.000000, 72.000000) scale(1 1)">
                    <g id="Female Accesories/Glasses 1" stroke="none" stroke-width="1" fill="none" fill-rule="evenodd">
                        <g id="Accesories" transform="translate(8.000000, 15.000000)" fill="#1E2214">
                            <path d="M10.0980239,0.625 L5.09802389,0.625 C4.33863236,0.625 3.72302389,1.24060847 3.72302389,2 L3.72302389,5 C3.72302389,5.75939153 4.33863236,6.375 5.09802389,6.375 L10.0980239,6.375 C10.8574154,6.375 11.4730239,5.75939153 11.4730239,5 L11.4730239,2 C11.4730239,1.24060847 10.8574154,0.625 10.0980239,0.625 Z M5.09802389,1.375 L10.0980239,1.375 C10.4432019,1.375 10.7230239,1.65482203 10.7230239,2 L10.7230239,5 C10.7230239,5.34517797 10.4432019,5.625 10.0980239,5.625 L5.09802389,5.625 C4.75284592,5.625 4.47302389,5.34517797 4.47302389,5 L4.47302389,2 C4.47302389,1.65482203 4.75284592,1.375 5.09802389,1.375 Z" id="Rectangle" fill-rule="nonzero"/>
                            <path d="M18.0980239,0.625 L14.0980239,0.625 C13.3386324,0.625 12.7230239,1.24060847 12.7230239,2 L12.7230239,5 C12.7230239,5.75939153 13.3386324,6.375 14.0980239,6.375 L18.0980239,6.375 C18.8574154,6.375 19.4730239,5.75939153 19.4730239,5 L19.4730239,2 C19.4730239,1.24060847 18.8574154,0.625 18.0980239,0.625 Z M14.0980239,1.375 L18.0980239,1.375 C18.4432019,1.375 18.7230239,1.65482203 18.7230239,2 L18.7230239,5 C18.7230239,5.34517797 18.4432019,5.625 18.0980239,5.625 L14.0980239,5.625 C13.7528459,5.625 13.4730239,5.34517797 13.4730239,5 L13.4730239,2 C13.4730239,1.65482203 13.7528459,1.375 14.0980239,1.375 Z" id="Rectangle-Copy" fill-rule="nonzero"/>
                            <path d="M11.0822585,2.98873658 C12.019965,2.61457941 12.6866317,2.61457941 13.0822585,2.98873658 C13.0241884,2.33708781 12.9951533,2.01126342 12.9951533,2.01126342 L11.0822585,2.01126342 L11.0822585,2.98873658 Z" id="Path-2"/>
                            <polygon id="Path-3" points="4.23948432 2.5 -9.89060421e-15 2.28173765 -9.89060421e-15 1.71349515 4.39934039 1.16932173"/>
                        </g>
                    </g>
                </g>
            </g>
        </g>
        <g id="Laptop" transform="translate(118.000000, 158.500000) scale(-1, 1) translate(-118.000000, -158.500000) translate(91.000000, 146.000000)">
            <path d="M52.6379637,23.5331079 L13.7678274,23.9998414 C12.7956449,24.0117823 12,23.3477644 12,22.5243613 L12,22.5046329 L54,22 L54,22.3639379 C54,23.0030357 53.3931522,23.5242821 52.6379637,23.5331079" id="Fill-24" fill="#807A74"/>
            <path d="M37.8285734,24.3581161 L8.58821309,24.9994898 C7.60619681,25.0206203 6.72751848,24.383597 6.42789956,23.4327232 L0.107163375,3.33572582 C-0.347156735,1.89387797 0.699063601,0.417226899 2.18859764,0.396096371 L30.6903056,0 C31.6350224,-0.0128415108 32.4849617,0.584406672 32.805982,1.48742604 L39.865982,21.3395579 C40.3820603,22.7888636 39.345012,24.3245558 37.8285734,24.3581161" id="Fill-21" fill="#BFBAB4"/>
        </g>
    </g>
</svg>
