<svg viewBox="33.962 40.512 179.075 136.069" xmlns="http://www.w3.org/2000/svg" overflow="visible">
    <g id="Master/Stickers/Plants 6" stroke="none" stroke-width="1" fill="none" fill-rule="evenodd">
        <g id="Group-57-Copy" transform="translate(124.000000, 107.500000) scale(-1, 1) translate(-124.000000, -107.500000) translate(36.000000, 41.000000)">
            <path d="M75.4928271,76.5325485 C77.4886711,77.0959683 76.0780681,80.1367011 74.6588587,78.3311576 C74.3455826,76.0514748 72.5253109,78.9145137 71.7326536,78.3744976 C70.6990147,72.0087216 67.8511287,80.7876676 65.9688903,79.3669831 C64.3500104,75.5981386 82.8823555,61.1667926 72.8084643,61.9174411 C70.4124188,62.6637555 69.0818561,64.4632314 68.168708,66.1578245 C62.3885924,77.2476582 66.8011375,75.142202 59.3634127,62.1896161 C61.2671673,57.3806121 67.7616212,47.1203057 58.3530113,53.0734851 C55.8941385,50.4392812 53.4430114,55.5802694 52.1769974,51.685739 C50.7311078,48.005308 46.7032726,39.5791494 46.2970465,46.8906038 C39.8499283,50.0570226 60.2937738,49.8533247 45.7677477,55.3271639 C42.5480615,61.3011466 50.5615601,52.9963399 57.6799842,63.8963445 C61.3472076,67.4788271 56.4277406,66.1326873 53.7356319,65.4435817 C53.443872,67.1841152 44.5602578,70.2794565 48.4331762,70.5967051 C52.6908046,75.0633233 53.5514531,67.2872644 55.454347,71.7876877 C54.6066082,73.4892153 50.9720894,73.0584159 55.1341858,75.176874 C61.8050727,78.3242232 61.4814688,68.2268751 63.6468605,78.1534637 C65.700368,82.7561694 60.2765608,75.9968664 61.4117563,80.0820928 C61.9513829,81.9509126 69.8349236,93.4793469 64.4670586,93.3987345 C63.626205,90.1560373 57.8400648,86.429666 55.3398808,89.2961722 C55.6557388,95.5787354 53.7433777,88.1519967 52.7260912,87.4455551 C50.9221718,87.6284498 53.461085,90.836475 53.4705521,91.6122606 C53.5643628,92.384579 52.3129799,95.4599839 54.1917756,93.6761104 C54.23739,92.6593545 55.8717616,92.1150043 56.1161858,93.2678478 C56.5241332,94.1935897 54.9534496,95.3022263 57.0301945,94.9026317 C59.9176704,94.3106076 64.0505047,95.5492642 67.6178929,96 C70.5922943,95.5353954 67.1600279,92.410583 68.7505064,91.160658 C71.2696247,90.360602 73.3713285,83.9228816 76.3560576,84.729872 C76.8268324,83.7685913 72.3187553,80.9168207 76.1847886,81.0702443 C79.1084117,84.7186036 80.9596667,75.254886 75.4928271,76.5325485" id="Fill-2750" fill="#FFB7B3"/>
            <path d="M62.5150611,55.4615 C62.5010611,55.4865 62.4880611,55.5135 62.4730611,55.5385 C62.5160611,55.5295 62.5440611,55.4965 62.5150611,55.4615" id="Fill-2752" fill="#FFB7B3"/>
            <path d="M66.5687202,68.4027551 C66.4577202,68.4187551 66.3817202,68.4657551 66.3927202,68.5937551 C66.5247202,68.5977551 66.6837202,68.6277551 66.5687202,68.4027551" id="Fill-2754" fill="#FFB7B3"/>
            <path d="M131.840392,29.3039338 C132.504593,-14.2833468 120.320098,-5.25773716 105.437342,30.2569593 C102.872094,38.9198826 102.442826,73.9965855 115.421943,65.7560749 C126.662392,59.0615256 133.116106,42.3009156 131.840392,29.3039338" id="Fill-2756" fill="#FFBCBB"/>
            <path d="M131.903814,50.6996655 C129.666407,53.6913364 132.270573,50.4835253 132.407208,51.2036462 C133.458043,52.2313511 133.000494,48.5174811 131.903814,50.6996655" id="Fill-2758" fill="#FFBCBB"/>
            <path d="M110.568519,68 C110.709713,68.0692821 110.995293,67.8512744 110.955408,68.286366 C110.943442,68.4203115 111.024809,68.3150027 111.050335,68.2762047 C111.129308,68.1524206 111.220247,68.2669671 111.304805,68.2531106 L111.307198,68.2558819 C111.309591,68.3491818 111.28566,68.4664995 111.371812,68.5126876 C111.469133,68.565342 111.53614,68.4323204 111.552094,68.3750471 C111.634259,68.096995 111.833686,68.1958374 111.991632,68.162582 C112.033911,68.3371729 111.904682,68.4267778 111.856022,68.5570282 C111.64064,69.1408454 111.331129,69.6738557 111.187541,70.3010898 C111.002473,71.1103048 110.63074,71.8391526 110.361912,72.6132647 C110.257412,72.9153347 110.344362,73.2811442 110.109836,73.5250172 C110.079523,73.4511163 110.046817,73.3781391 110.020492,73.3023907 C109.945508,73.0890018 109.837019,73.123181 109.786763,73.2940769 C109.711779,73.5499588 109.484432,73.6774379 109.423008,73.9370148 C109.414233,73.9795078 109.322497,74.0127633 109.328878,73.9952118 C109.448535,73.6506488 108.997031,73.5582726 109.083981,73.2368036 C109.280218,73.165674 109.225176,73.0114059 109.14381,72.8959357 C109.003413,72.6982507 108.993043,72.476548 109.002615,72.2428363 C109.273836,71.3837382 109.558619,70.520945 109.904824,69.7089587 C110.144137,69.1454642 110.225504,68.5025262 110.568519,68" id="Fill-2760" fill="#FFBCBB"/>
            <path d="M110.489138,73.5901268 C110.424138,73.5841268 110.362138,73.5521268 110.386138,73.4851268 C110.427138,73.3741268 110.536138,73.4211268 110.619138,73.4131268 C110.614138,73.5001268 110.575138,73.5631268 110.489138,73.5901268" id="Fill-2762" fill="#95B65B"/>
            <path d="M88.4530055,73.5190043 C88.4870055,73.4150043 88.5160055,73.5100043 88.5470055,73.5110043 C88.5190055,73.5500043 88.4520055,73.5150043 88.4530055,73.5190043" id="Fill-2764" fill="#5F753A"/>
            <path d="M143.182092,51.0446287 C143.701617,50.9836717 144.129411,50.6695739 144.618931,50.5298808 C145.091304,50.3944208 145.436797,49.9728016 145.982041,49.9778814 C146.060056,49.978728 146.257235,49.741673 146.414122,49.653624 C146.763901,49.4597469 147.137685,49.3065079 147.502038,49.1363363 L147.497752,49.1405694 C147.751513,48.7951464 148.185308,48.7646679 148.530801,48.5834902 C148.942306,48.3676009 149.418109,48.3134169 149.861334,48.1737238 C150.152817,48.0822883 150.480307,48.0331841 150.732354,48.1076871 C151.071845,48.2075888 151.351326,48.1398588 151.653954,48.0619693 C151.84256,48.0128651 152.398949,48.2236747 152.476964,48.3887665 C152.513828,48.4658094 152.531831,48.5225332 152.416953,48.5978829 C152.031167,48.8476372 151.629949,49.100778 151.413909,49.5198573 C151.281884,49.7738448 151.003261,49.8085564 150.83523,49.9939672 C150.789793,50.0430715 150.668913,50.0583107 150.722066,50.1548259 C150.741784,50.1903842 150.834373,50.1971572 150.893526,50.1996971 C151.739684,50.2344087 152.582412,50.1836112 153.424283,50.1014886 C154.105838,50.0354518 154.705093,49.7289736 155.341211,49.5291702 C155.683275,49.4208022 156.033911,49.3623851 156.383691,49.303968 C156.748901,49.2447042 157.095251,49.7052682 156.976086,50.0549242 C156.94951,50.1328137 156.892928,50.2064701 156.814056,50.1954639 C156.452275,50.1429732 156.471135,50.518028 156.277385,50.6543346 C156.195941,50.7119051 156.231948,50.7847148 156.327966,50.8177332 C156.460848,50.8634509 156.598873,50.9015491 156.685461,51.0260029 C156.782336,51.1394506 156.911789,51.2385057 156.952939,51.3841252 C157.041241,51.6897568 156.837203,51.7134623 156.610876,51.704996 C156.869781,51.7735727 156.897215,51.9022596 156.704322,52.077511 C156.658027,52.1206888 156.584299,52.1062962 156.521716,52.1130692 C156.03734,52.1130692 155.561538,52.023327 155.082306,51.9793025 C154.8234,51.9564436 154.557637,52.0190939 154.315877,51.8709345 C154.288444,51.8531554 154.246436,51.8463824 154.219859,51.8937934 C154.06726,52.1638667 153.75263,52.0741245 153.611175,52.0148607 C153.133657,51.8142106 152.676715,52.0123209 152.218059,52.0114742 C151.696819,52.0106276 151.178151,52.0427994 150.661198,51.9539037 L150.664627,51.9581369 C150.397148,51.7557935 150.187109,52.0478791 149.933348,52.0563454 C149.580139,52.0698913 149.216643,52.1325416 148.866006,52.0961367 C148.449358,52.0529589 148.056713,52.1418545 147.66664,52.2299034 C147.225987,52.3298052 146.784476,52.2976334 146.343823,52.3348849 C145.438512,52.4110812 144.535772,52.5431546 143.677613,52.8233875 C143.368984,52.9241358 143.051782,53.0020253 142.742296,53.1036203 C142.480819,53.1882828 142.217627,53.2323073 142.005873,53.467669 C141.840414,53.6505399 141.538643,53.6234479 141.289169,53.555718 C141.047409,53.4896812 140.823653,53.4532763 140.607613,53.6344541 C140.466158,53.7529815 140.270693,53.7148834 140.10009,53.7521349 C139.663723,53.8494968 139.269364,54.0619996 138.855287,54.2220117 C138.419778,54.3904901 137.994556,54.5860604 137.520467,54.6317781 C137.169831,54.6656431 136.932358,54.939103 136.627158,55.0686366 C136.559432,55.0136059 136.560289,54.9399496 136.556002,54.8629067 C136.555145,54.8146491 136.6203,54.763005 136.549144,54.7198271 C136.526854,54.7977166 136.399116,54.7545387 136.392258,54.851054 C136.370825,55.1744647 136.122207,55.2244155 135.872732,55.2506609 C135.724419,55.2659001 135.576106,55.2176425 135.420077,55.2582805 C135.288052,55.2929921 135.22204,55.1846242 135.16803,55.0737163 C135.137167,55.0085262 135.185176,54.8696797 135.09173,54.8891521 C135.036005,54.9018515 135.089158,55.0491642 135.132881,55.1253604 C135.28891,55.3912006 135.182604,55.4894091 134.910839,55.5774581 C134.711945,55.6418016 134.505335,55.7882677 134.554201,56.0693471 C133.935229,56.5129785 133.285394,56.9100456 132.65099,57.3282783 C131.833124,57.8675783 130.956104,58.3315287 130.250544,59.028301 C129.673579,59.0663991 129.491831,59.6649628 129.030603,59.8681528 C129.0186,59.8732326 129.007455,59.8783123 128.995453,59.8833921 C128.751122,60.0264717 128.481929,59.9968398 128.215308,59.998533 C128.095286,59.998533 128.018986,59.9460423 128.004412,59.8275148 C127.983836,59.6802021 128.036132,59.5523617 128.142437,59.45246 C128.223881,59.3762638 128.31647,59.344092 128.406486,59.4473803 C128.429634,59.4736256 128.432206,59.5125704 128.461354,59.5354292 C128.451066,59.5024109 128.434777,59.472779 128.425347,59.4406073 C128.395342,59.3347792 128.180159,59.2992209 128.305325,59.1349757 C128.733119,58.7666939 129.203778,58.4373568 129.609282,58.0639953 C130.027645,57.678781 130.443437,57.2952599 130.909809,56.970156 C131.435336,56.604414 131.946288,56.2191997 132.487246,55.8737768 C132.736721,55.7146113 132.96562,55.485176 133.213381,55.302305 C133.358265,55.1947837 133.197949,55.0974218 133.252817,54.9966734 C133.430278,54.6673364 133.532297,54.2745024 133.7792,54.0145886 C134.024389,53.7555214 134.107547,53.4261844 134.321873,53.1535712 C134.734235,52.6295104 135.117449,52.0580386 135.604397,51.6228734 C135.997041,51.2732174 136.291096,50.795721 136.807192,50.5679789 C136.91264,50.5214145 137.006943,50.3546294 137.104676,50.2428749 C137.216125,50.114188 137.390158,50.0379917 137.505893,50.1048751 C137.67221,50.2013903 137.650777,50.4011938 137.598482,50.5866046 C137.505036,50.9176349 137.308714,51.192788 137.130395,51.4764073 C136.873204,51.8853271 136.73775,52.3484309 136.52171,52.7759765 C136.481417,52.8580991 136.440267,52.9512278 136.495991,53.0282707 C136.582579,53.1459515 136.697457,53.0426633 136.770328,53.0087983 C137.298426,52.7607372 137.876248,52.7040134 138.432637,52.5702466 C138.687256,52.508443 138.869861,52.3856824 139.02589,52.1570937 C139.459685,51.5212784 139.842042,50.8549847 140.354709,50.2648872 C140.802221,49.7492926 141.338035,49.3573053 141.838699,48.9119807 C142.173905,48.6148154 142.51854,48.3252697 142.868319,48.04927 C143.437568,47.6005588 144.081402,47.2610622 144.772388,47.0350134 C145.045867,46.9452712 145.364784,47.0350134 145.561106,47.2246574 C145.793435,47.4490129 145.573108,47.6869145 145.401648,47.8376137 C145.017576,48.1754171 144.570064,48.4497235 144.209998,48.8095391 C144.044538,48.9763242 143.864505,49.1744344 143.777917,49.4377347 C143.715334,49.6299185 143.601313,49.8398815 143.41785,49.9795746 C143.39899,49.999047 143.3767,50.0117463 143.351838,50.0092065 C143.297828,50.0041267 143.202667,49.8246423 143.200953,50.0515377 C143.200095,50.1235008 143.110079,50.1641388 143.027778,50.1700652 C143.000344,50.1709118 142.979769,50.1590591 142.966052,50.1362002 C142.947191,50.1573658 142.984913,50.1658321 142.979769,50.1853044 C142.988342,50.2377952 142.994343,50.314838 142.961765,50.328384 C142.425094,50.5603592 142.84603,50.8041872 142.948906,51.043782 L142.948906,51.0446287 C143.026063,51.1335243 143.104078,51.1343709 143.182092,51.0446287" id="Fill-2766" fill="#BCE378"/>
            <path d="M93.0265754,75.1521179 C93.6256123,75.7501179 94.213788,74.9801179 94.862118,75.3391179 C95.6641757,75.8291179 92.6907138,76.2591179 93.0265754,75.1521179" id="Fill-2768" fill="#AED569"/>
            <path d="M106.249485,89.7663818 C106.292793,89.6933268 106.341299,89.6220112 106.374214,89.5463472 C106.364686,89.6463629 106.323109,89.7202876 106.249485,89.7663818 M103.32441,98.8521591 C103.310551,98.8234589 103.299291,98.7930194 103.285432,98.7651889 C103.327875,98.7895406 103.336536,98.8199801 103.32441,98.8521591 M101.7549,90.8004575 C101.702063,90.6804386 101.726316,90.6073837 101.783484,90.5560712 C101.779153,90.7004418 101.785216,90.8404638 101.80687,90.9735282 C101.793011,90.9126491 101.77742,90.8517699 101.7549,90.8004575 M99.6968668,89.2428212 C99.4976464,89.4828589 99.3114187,89.485468 99.0680233,89.4132828 C99.3157495,89.3271822 99.560011,89.2471697 99.8060049,89.1697662 C99.7739564,89.1932481 99.7358447,89.2175998 99.6968668,89.2428212 M133.540943,50.7698115 C124.007815,54.6521615 122.341293,78.7142081 110.203576,73.1115875 C92.0104253,63.2682997 69.884838,88.1478663 76.0554723,110 C79.6587625,101.585633 89.8960908,92.7129323 98.8202971,89.5054712 C98.7362781,89.599399 98.6895046,89.7455089 98.6522591,89.9133614 C103.78175,87.3747011 100.281535,90.1994934 102.010422,91.5283981 C102.498945,91.6588534 102.004358,91.7458237 101.830257,91.9145459 C101.861439,91.8806275 101.838053,91.8510576 101.816398,91.8180089 C99.7289153,93.2060534 103.959316,105.779336 103.560876,99.3957229 C103.77742,99.6375001 101.185822,88.0965538 104.903448,87.6930121 C105.495046,90.4377918 103.702929,94.8758813 104.111763,98.1746612 C104.492881,105.872394 106.921637,96.1212947 105.438744,93.8409359 C105.88136,94.514955 106.219168,93.3460754 105.954985,93.262584 C106.194915,92.9347064 106.118692,92.5937832 105.987033,92.1571927 C106.684305,91.2831422 106.412326,89.558523 106.731944,88.3957314 C106.923369,88.2844095 106.964079,87.6964909 106.731078,87.839122 C106.775253,87.6347421 106.845413,87.4390591 106.934629,87.2494641 C106.946756,87.2694672 106.951087,87.2894703 106.966678,87.3112129 C107.207475,86.6580667 109.269839,86.8259192 109.06802,86.3371466 C115.393699,84.0385241 104.091841,99.8166587 108.734542,101.520405 C109.037703,100.406317 110.812497,95.6403494 109.46646,95.3002959 C109.67954,95.0646067 110.162865,94.0774949 110.214836,95.008076 C111.762692,85.2691525 113.921201,86.2745281 118.253811,82.2408499 C118.149004,82.2982503 118.051126,82.3626082 117.95065,82.4252268 C118.104829,82.2460682 118.252079,82.0486458 118.392399,81.8338294 C118.301451,81.9355845 118.310112,82.0843036 118.296254,82.2243256 C118.446102,82.1016976 118.521459,81.9425421 118.52579,81.7494683 C118.467756,81.7694714 118.425314,81.7973019 118.394131,81.8312203 C118.454764,81.7399016 118.512797,81.6424949 118.570831,81.5424792 C118.581225,81.5763976 118.589021,81.6111857 118.599415,81.6459737 C118.881788,81.6181433 118.742334,81.3407083 118.854071,81.2128621 C118.821156,81.192859 118.796037,81.1876408 118.768319,81.1763346 C117.180619,63.7622905 140.050252,59.8007976 154.444356,57.7404735 C163.490693,55.6044852 171.435255,65.8643603 176,68.3734507 C175.268948,51.1898776 145.205728,38.7670535 133.540943,50.7698115" id="Fill-2770" fill="#FFBCBB"/>
            <path d="M114.499,88.5015 C114.5,88.5005 114.501,88.4995 114.501,88.4985 L114.5,88.4985 C114.5,88.5005 114.499,88.5005 114.499,88.5015" id="Fill-2772" fill="#FFBCBB"/>
            <path d="M126.995548,92.5487708 C125.346744,94.6565637 126.004344,89.539483 124.550288,89.6910237 C119.864995,85.4676885 115.924632,86.4165397 113.864501,89.3724439 C113.672373,88.9522629 113.605128,89.700495 113.564956,89.8055402 C113.107343,89.4456311 111.965057,92.1552816 112.389485,92.2784084 C105.465032,107.439364 126.412179,113.385613 131.481727,125 C149.571412,98.7085546 129.679221,71.4002369 126.995548,92.5487708" id="Fill-2774" fill="#FFBCBB"/>
            <path d="M128.4295,58.4987619 C128.4745,58.5387619 128.5215,58.5447619 128.5705,58.5037619 C128.5235,58.4577619 128.4815,58.4567619 128.4295,58.4987619" id="Fill-2776" fill="#FFBCBB"/>
            <path d="M97.5652086,89.0781849 C97.0753351,89.3939091 96.2840765,89.6107896 96.0003622,89.8008 C95.9610938,90.627057 99.1310368,88.5839661 97.5652086,89.0781849" id="Fill-2778" fill="#FFBCBB"/>
            <path d="M95,90.8640029 C95.3427077,90.6910029 95.6834532,90.5080029 96,90.2360029 C95.7168084,89.9450029 95.1026815,90.3300029 95,90.8640029" id="Fill-2780" fill="#FFBCBB"/>
            <path d="M109.335813,94.5009906 C109.433813,94.6639906 109.739813,94.6189906 109.646813,94.4009906 L109.335813,94.5009906 Z" id="Fill-2782" fill="#FFBCBB"/>
            <path d="M109.449655,95.603 C109.547655,95.561 109.592655,95.499 109.526655,95.397 C109.436655,95.442 109.433655,95.519 109.449655,95.603" id="Fill-2784" fill="#FFBCBB"/>
            <path d="M109.433562,95.4812677 C109.430562,95.5872677 109.623562,95.5372677 109.549562,95.4582677 C109.508562,95.4652677 109.432562,95.4742677 109.433562,95.4812677" id="Fill-2786" fill="#FFBCBB"/>
            <path d="M111.5985,85.5308984 C111.5875,85.5808984 111.5555,85.6158984 111.5105,85.5838984 C111.4655,85.5518984 111.4375,85.4958984 111.4015,85.4508984 C111.4345,85.4338984 111.4695,85.4018984 111.5015,85.4038984 C111.5735,85.4088984 111.5975,85.4648984 111.5985,85.5308984" id="Fill-2788" fill="#95B65B"/>
            <path d="M113.600107,57.5013655 C111.696615,72.5032849 111.219679,57.4204669 107.646486,53.1041313 C104.676901,47.1176296 113.077263,58.2398921 109.991208,50.1813406 C108.811195,47.7709081 106.255635,42.5472895 110.753795,46.1172696 C110.774199,42.3759235 107.869226,39.1965187 107.856473,35.6004423 C109.332339,34.6722823 110.179092,37.4350154 111.497679,38.1535348 C113.458982,34.9793493 108.699825,28.982409 109.870486,24.5573386 C114.288731,29.696579 116.774579,32.7515912 114.248774,23.9023204 C114.283631,22.5287827 115.525704,23.8866626 116.075753,24.6895601 C118.44598,21.2439726 119.22472,14.4441348 123.103118,11.1951397 C126.553039,7.01798464 122.620231,14.9999869 121.565191,16.677982 C120.607919,18.927487 123.973675,15.4418851 125.161339,15.1861409 C126.827639,16.878054 119.78072,20.5959133 119.407503,23.7013785 C121.562641,22.997647 124.899492,19.1319084 126.912654,20.3845329 C120.423436,25.3193519 117.767558,25.4863685 117.116341,33.8537269 C116.884249,36.3633255 124.178562,26.961682 128,26.8860026 C98.4979885,58.1798705 141.60585,24.6712927 116.67001,46.8105626 C111.16867,53.7043472 123.504391,43.8425382 125.147736,44.5184335 C121.885699,49.1174795 117.701246,53.7147858 113.600107,57.5013655" id="Fill-2790" fill="#FEF"/>
            <path d="M119.903284,91.8173331 C121.997286,90.8466056 125.726495,92.0289692 126.048516,94.6455607 C126.894254,91.9861172 135.115308,87.4481849 134.293809,91.8208312 C133.010919,91.2952391 129.415885,93.0460467 129.979422,94.1671932 C131.379174,94.6341918 136.923646,96.9962953 135.192351,98.5153526 C124.116391,97.5166402 133.840209,102.379023 136,106.589881 C127.286392,106.065164 132.696689,104.797971 131.174881,115.475098 C128.723367,118.327813 130.438215,108.707116 129.110311,106.901214 C122.411931,110.570738 123.155522,111.516104 125.575873,102.755945 C124.173524,103.002562 123.35289,105.195882 122.407603,106.14562 C118.843732,106.660718 126.479609,99.7939144 121.830216,103.105757 C114.987272,109.436474 120.242618,99.0120852 124.296446,97.5524959 C124.382145,96.5196769 120.814811,98.1428031 120.183754,97.810482 C119.574338,98.3841732 116.320369,100.928179 117.128019,98.3150854 C118.300105,94.923661 128.545909,93.968675 121.348916,93.0679099 C119.726692,92.5738009 118.445534,93.5497755 119.903284,91.8173331" id="Fill-2794" fill="#FEF"/>
            <path d="M132.537,26.5 C132.523,26.523 132.51,26.547 132.497,26.569 C132.485,26.546 132.463,26.522 132.463,26.5 C132.463,26.477 132.485,26.454 132.498,26.431 C132.511,26.453 132.523,26.477 132.537,26.5" id="Fill-2796" fill="#7EA535"/>
            <path d="M104.5185,98.5151909 C104.5085,98.5171909 104.4945,98.5251909 104.4895,98.5201909 C104.4815,98.5131909 104.4795,98.4991909 104.4745,98.4881909 C104.4925,98.4851909 104.5085,98.4811909 104.5255,98.4781909 C104.5235,98.4911909 104.5215,98.5021909 104.5185,98.5151909" id="Fill-2798" fill="#95B65B"/>
            <path d="M104.447,99.4998808 C104.48,99.4328808 104.515,99.4328808 104.553,99.4958808 L104.527,99.5228808 L104.492,99.5508808 L104.463,99.5178808 L104.447,99.4998808 Z" id="Fill-2800" fill="#95B65B"/>
            <path d="M96.8866129,66.3039084 C95.4722426,64.8234988 90.8854449,66.2609482 91.1731427,64.8810655 C91.5969369,64.3148497 92.1490754,63.4324465 91.2420523,63.1549234 C89.8793643,62.2561954 87.9507558,63.0664253 86.5286332,63.2777897 C88.0911592,58.1775509 94.3447087,54.9856057 92.2489944,49.2177649 C89.239366,47.794922 89.6907241,53.8566108 85.7671817,52.6348218 C85.8102502,55.297497 88.7759487,59.7069352 85.6732923,60.6701036 C86.1427392,57.8407427 79.5713441,51.9852631 80.4559715,57.3922379 C80.505931,59.3503653 83.7894752,68.6297754 80.7962129,66.6261102 C78.6229752,63.4264321 74.7356104,62.6273718 74,67.196622 C76.2197517,70.786379 81.4922002,74.0109741 79.5144936,78.3344918 C79.9098627,80.3776805 77.3679585,81.5212818 76.1224168,83.3556837 C76.7581082,83.7062392 76.6375163,83.7217049 76.6030615,84.4846786 C77.4153338,84.6281658 78.0251841,85.2768653 77.9493835,85.9255648 C79.1268769,86.5502066 79.9322583,83.0738646 80.1562146,81.8305955 C82.6447138,80.3768213 85.2176274,78.1291419 87.6087917,76.0258089 C92.1309866,72.9043185 93.0087231,72.747084 87.1961953,73.0572569 C85.4131585,73.2419859 82.4552123,75.7018888 82.610259,73.1517694 C82.972896,69.2853485 98.4689504,69.9220192 96.8866129,66.3039084" id="Fill-2802" fill="#FC9B98"/>
            <path d="M104.468,100.4455 C104.489,100.4465 104.511,100.4495 104.532,100.4515 C104.522,100.4865 104.51,100.5205 104.498,100.5545 C104.489,100.5185 104.479,100.4815 104.468,100.4455" id="Fill-2804" fill="#7FA637"/>
            <path d="M89.347055,80.4437615 C89.447055,80.4307615 89.556055,80.3877615 89.641055,80.4167615 C89.744055,80.5417615 89.299055,80.7277615 89.347055,80.4437615" id="Fill-2806" fill="#AED569"/>
            <path d="M101.5515,78.4625 C101.5255,78.4865 101.4985,78.5125 101.4735,78.5375 C101.4625,78.5225 101.4525,78.5075 101.4435,78.4915 C101.4805,78.4835 101.5185,78.4765 101.5565,78.4675 L101.5515,78.4625 Z" id="Fill-2808" fill="#7FA637"/>
            <path d="M104.519,79.4785 C104.504,79.4935 104.491,79.5075 104.477,79.5215 C104.48,79.5125 104.48,79.4995 104.486,79.4965 C104.497,79.4895 104.51,79.4875 104.523,79.4825 L104.519,79.4785 Z" id="Fill-2810" fill="#7FA637"/>
            <path d="M93.4859369,75.4923472 C93.4869369,75.4913472 93.4859369,75.4923472 93.4859369,75.4923472 C93.5229369,75.5133472 93.5239369,75.5133472 93.4859369,75.4923472" id="Fill-2812" fill="#BCE378"/>
            <path d="M85.8532048,82.463654 C85.8636145,82.4284787 85.8705542,82.3977003 85.8740241,82.3704395 C85.877494,82.3994591 85.8644819,82.4319962 85.8532048,82.463654 M86.4595663,81.7654248 C86.4127229,81.8595187 86.3745542,81.9615269 86.3554699,82.0776053 C86.2513735,81.9333867 86.1524819,81.7276114 86.4595663,81.7654248 M114,78.9777845 C111.525976,73.2846667 97.8477108,73.3251183 92.7868916,74.9352664 C106.056578,76.6447846 88.6950361,76.8883733 91.8170602,79.7314147 C91.3599036,81.4629175 86.8481928,80.1851757 85.7569157,81.9843909 C85.2494458,81.9114022 82.3651084,85.6610862 83.6897349,84.4290723 C84.6135904,84.8371054 86.4422169,83.9225484 87.7113253,84.4835939 C85.4186024,84.4923878 76.4992771,91.3673947 81.6789398,89.6728259 C86.3606747,85.9319358 85.4940723,88.4645553 83.7495904,90.5126356 C82.5377349,92.1948929 78.3808193,93.3354511 78,96.8327525 C78.9117108,97.3814868 80.0741205,94.1022721 81.3354217,93.6010244 C82.2853012,93.7654688 78.3166265,99.3565783 78.6575422,102 C80.2120482,99.8674991 82.5715663,94.4698537 83.300241,92.4340848 C83.1735904,93.6485111 84.1191325,91.9688918 84.3446747,91.5450298 C85.5955663,90.6005737 85.0525301,93.9281545 84.1434217,94.6932166 C87,96.792301 85.8228434,83.9014432 89.9641446,88.850604 C90.4213012,89.9551075 90.1766747,92.4859683 91.5333976,90.8098666 C93.5676145,88.5577698 88.5996145,85.1255427 91.621012,84.5557033 C95.3441928,81.2386751 101.012241,86.9124465 100.131759,84.6436414 C91.5403373,77.8750397 104.284337,79.2855681 108.10641,83.5699163 C108.02747,80.625746 103.824578,77.9779274 100.756337,78.2962636 C99.7006265,77.0959075 111.859952,75.7777141 114,78.9777845" id="Fill-2814" fill="#FEF"/>
            <path d="M81.5006667,93.4995556 C81.4976667,93.5015556 81.5006667,93.4995556 81.5006667,93.4995556 C81.4996667,93.4995556 81.4986667,93.5005556 81.5006667,93.4995556" id="Fill-2816" fill="#FEF"/>
            <path d="M113.5195,57.506 C113.5065,57.5 113.4935,57.495 113.4805,57.49 C113.4925,57.496 113.5035,57.503 113.5155,57.51 L113.5195,57.506 Z" id="Fill-2818" fill="#7EA535"/>
            <path d="M53.7533665,77 C52.8096346,84.1373001 59.6304037,72.069215 59.8157796,79.8956585 C61.0300362,81.5063517 55.9024853,80.785802 54.3458599,81.9720618 C51.6956053,82.3695755 51.0126414,78.4168716 53.7533665,77" id="Fill-2820" fill="#FFD9F4"/>
            <path d="M54.6679358,99.0924576 C55.7075999,97.5368712 55.6218544,97.6898037 55.8906335,99.2507968 C57.4051958,100.98017 60.6132315,97.4256475 62,100.26494 C61.1417206,102.107082 46.0035185,100.017777 54.6679358,99.0924576" id="Fill-2822" fill="#FFD9F4"/>
            <path d="M53.0264397,105 C53.0636615,106.384418 54.3381007,105.076688 55,106.095426 C54.7596772,107.137574 55.0631151,110.410129 53.5135588,109.957267 C52.0740492,109.44144 53.2942743,108.094155 52.3216546,107.169057 C49.6643475,106.026003 51.6023044,105.982412 53.0264397,105" id="Fill-2824" fill="#FFD9F4"/>
            <path d="M75,99 C74.4047717,97.4798412 73.1893345,99.6389305 73.110947,98.4778202 C73.4021006,96.906483 71.7447646,97.0776108 71.5819597,95.6622078 C70.9359088,94.8113667 69.2174132,96.3675103 70.4121768,94.6706261 C72.7190094,89.7726919 74.564131,97.0080402 75,99" id="Fill-2826" fill="#FFD9F4"/>
            <path d="M43.3526088,105.971125 C41.1615332,106.347104 41.0739984,102.950662 41,101.640267 C45.6501701,99.4183627 43.5619703,103.498042 43.3526088,105.971125" id="Fill-2828" fill="#FFD9F4"/>
            <path d="M71.6272638,100.957916 C68.712621,101.403136 66.8044131,98.1957341 68.8612033,97 C73.4130548,97.2235187 71.6936118,97.1090335 71.6272638,100.957916" id="Fill-2830" fill="#FFD9F4"/>
            <path d="M62,101.704371 C63.4542982,100.549902 61.6500211,99.6015555 62.9052085,98.1478462 C66.677788,96.7058895 64.7208885,106.401805 62,101.704371" id="Fill-2832" fill="#FFD9F4"/>
            <path d="M26.365564,133 C21.9814786,131.611417 29.6134816,128.126419 28.9599994,131.285709 C28.4271887,132.069514 27.4042664,132.757788 26.365564,133" id="Fill-2834" fill="#FFD9F4"/>
            <path d="M52.4632376,97 C50.952467,95.3728384 49.4491987,97.9922388 49,95.1895995 C49.5354749,92.2944245 57.1962353,95.3929947 52.4632376,97" id="Fill-2836" fill="#FFD9F4"/>
            <path d="M35.3201593,62.2244902 C37.7909527,60.8375178 37.3121647,66.3461351 35.3342932,65.9658671 C32.6771082,66.3873228 34.7053319,62.7771718 35.3201593,62.2244902" id="Fill-2838" fill="#FFD9F4"/>
            <path d="M64.1991827,92 C62.0061456,89.5412247 63.1848199,89.4985118 64.8383832,87.0360224 C65.3921037,86.5253251 67.4721173,91.6072274 64.1991827,92" id="Fill-2840" fill="#FFD9F4"/>
            <path d="M43.1664168,111.417738 C42.8455264,111.514422 42.116557,111.731031 42.7583377,112.035027 C45.169959,115.137274 38.5364275,114.218778 42.0500419,111.686407 C40.2082931,107.396995 46.0984736,106.285131 43.1664168,111.417738" id="Fill-2842" fill="#FFD9F4"/>
            <path d="M16.5214834,80.0051054 C18.4513508,80.0672485 18.6062838,83.2560109 16.3049396,82.9834799 C14.7284282,82.5305094 14.3315822,79.8680912 16.5214834,80.0051054" id="Fill-2844" fill="#FFD9F4"/>
            <path d="M71.0667322,100.671461 C70.8620152,99.4386032 71.1117249,97.1762365 72.046824,97 C73.6388171,97.256779 73.1858902,102.317399 71.0667322,100.671461" id="Fill-2846" fill="#FFD9F4"/>
            <path d="M27.0452989,113.717753 C26.7332109,112.790577 28.1022844,111.430559 29.0501734,112.254716 C31.8983113,113.16033 27.4745316,116.950491 27.0452989,113.717753" id="Fill-2848" fill="#FFD9F4"/>
            <path d="M39.9629252,99.677067 C40.4554649,104.632783 35.8157682,100.233591 39.3188879,99.4791365 C36.3774849,98.833999 39.4454817,96.391752 39.9629252,99.677067" id="Fill-2850" fill="#FFD9F4"/>
            <path d="M50.8563603,81.0633316 C50.5212014,82.152056 48.8871855,82.2432986 48.031184,81.5868163 C47.4694911,79.5678819 54.7315775,77.2087212 50.8563603,81.0633316" id="Fill-2852" fill="#FFD9F4"/>
            <path d="M17,92.0426442 C16.9225215,93.5168232 14.7372952,94.9378467 14.0366566,93.1996621 C13.6367676,91.384402 16.6326021,89.9350289 17,92.0426442" id="Fill-2854" fill="#FFD9F4"/>
            <path d="M32.5742124,91 C30.0465545,90.749079 30.8714928,87.2722646 32.8785491,88.1381882 C34.4785183,88.6457703 34.3571751,90.8950396 32.5742124,91" id="Fill-2856" fill="#FFD9F4"/>
            <path d="M9,126.582078 C9.5514196,123.822727 12.8565595,125.031689 11.7891868,127.466727 C10.9202575,128.234265 9.00168888,128.357683 9,126.582078" id="Fill-2858" fill="#FFD9F4"/>
            <path d="M64.9958177,111.224397 C65.1159531,113.022244 62.6125179,113.770975 62.0460337,111.95441 C61.5922918,110.026427 64.6335636,109.080708 64.9958177,111.224397" id="Fill-2860" fill="#FFD9F4"/>
            <path d="M58.0073911,81.0907726 C59.6412559,78.9521125 60.5892347,80.2224516 61,82.6230473 C59.4925834,82.6124931 57.8771111,84.1495651 58.0073911,81.0907726" id="Fill-2862" fill="#FFD9F4"/>
            <path d="M7.20790949,94 C4.04268345,93.4928492 7.98481365,89.2331508 8.98310257,91.8360953 C9.15675381,92.740867 7.95189398,93.8140754 7.20790949,94" id="Fill-2864" fill="#FFD9F4"/>
            <path d="M31,106.482021 C30.9974569,108.093549 28.4586041,108.638359 28,107.042096 C28.1059621,105.007887 30.7533201,103.955479 31,106.482021" id="Fill-2866" fill="#FFD9F4"/>
            <path d="M29.5502591,96.9990606 C26.9396859,97.066596 27.936533,93.4681738 30.2473231,94.0673336 C31.8555819,94.8336001 30.5334383,96.3557431 29.5502591,96.9990606" id="Fill-2868" fill="#FFD9F4"/>
            <path d="M56.654948,101.065542 C58.453762,100.54689 58.2763751,103.253883 57.1316753,104 C55.6904068,103.838677 55.7340606,101.958462 56.654948,101.065542" id="Fill-2870" fill="#FFD9F4"/>
            <path d="M33.2679746,82.7949617 C33.8981778,81.5858629 35.7089388,81.8010253 36,83.1348423 C35.5011607,85.6853745 32.0213055,85.6653815 33.2679746,82.7949617" id="Fill-2872" fill="#FFD9F4"/>
            <path d="M6.06863418,122.998671 C3.42774975,122.513082 6.36263226,118.900875 7.58535835,120.334079 C8.68147834,121.724257 7.4052208,123.047845 6.06863418,122.998671" id="Fill-2874" fill="#FFD9F4"/>
            <path d="M18.998891,124.845044 C19.0593112,126.302154 16.6333458,128.047483 16.0236503,126.20608 C15.7407736,124.502195 18.0706159,123.0027 18.998891,124.845044" id="Fill-2876" fill="#FFD9F4"/>
            <path d="M68.2334881,105 C69.3240685,105.250877 69.1029858,106.811446 68.4849432,107.689872 C66.7162816,109.14834 66.3998437,104.988581 68.2334881,105" id="Fill-2878" fill="#FFD9F4"/>
            <path d="M41,69.0879029 C41.0502589,67.3712438 43.1922023,65.8934242 44,68.1437404 C43.8894304,69.6448841 41.5199513,70.9351773 41,69.0879029" id="Fill-2880" fill="#FFD9F4"/>
            <path d="M39.9545969,100 C38.0413537,99.5430464 39.4738728,97.8940397 40.2055774,97 C43.102471,97.7335099 42.1014451,99.077351 39.9545969,100" id="Fill-2882" fill="#FFD9F4"/>
            <path d="M42.3346513,79 C41.5777374,77.5042477 40.4463598,79.3148952 40.0266409,78.0008133 C39.5856255,74.3381378 44.8006108,76.3284371 42.3346513,79" id="Fill-2884" fill="#FFD9F4"/>
            <path d="M38,110.671165 C37.9421386,111.582948 37.8221298,113.453523 36.7156201,112.89918 C35.0047802,111.855242 36.7377645,108.610783 38,110.671165" id="Fill-2886" fill="#FFD9F4"/>
            <path d="M63.4357585,120 C60.9369921,119.733096 62.0516379,116.399721 64.1033211,117.095229 C65.6742367,117.697224 65.0087156,119.937658 63.4357585,120" id="Fill-2888" fill="#FFD9F4"/>
            <path d="M46.964448,85 C49.0907522,85.8747824 47.5807384,89.0907564 45.6796566,87.6205969 C44.1276695,86.5714205 45.5250721,85.1659555 46.964448,85" id="Fill-2890" fill="#FFD9F4"/>
            <path d="M42.3842626,117.730972 C40.037084,118.985094 38.8624821,115.473749 41.5195126,115.001988 C42.8115747,114.928734 43.6256953,116.898798 42.3842626,117.730972" id="Fill-2892" fill="#FFD9F4"/>
            <path d="M25,91.0444998 C25.380937,89.8397971 27.5812601,89.5348003 28,90.8923488 C27.9621971,92.1998749 25.3315024,92.4715235 25,91.0444998" id="Fill-2894" fill="#FFD9F4"/>
            <path d="M44.3113734,109 C41.7988906,108.778779 43.3334934,104.76106 45.271178,106.385923 C47.1121591,107.427303 44.9629921,108.281274 44.3113734,109" id="Fill-2896" fill="#FFD9F4"/>
            <path d="M31.9968941,100 C31.2693283,101.004109 31.1784796,101.558515 32,102.335136 C29.6985006,104.692117 28.9926764,100.027118 31.9968941,100" id="Fill-2898" fill="#FFD9F4"/>
            <path d="M52.7008578,122.549487 C51.4296232,123.646919 49.4793188,122.605897 50.1290834,120.864363 C50.8182583,118.80078 53.973103,120.865389 52.7008578,122.549487" id="Fill-2900" fill="#FFD9F4"/>
            <path d="M57.9932323,116.646638 C57.8154198,119.290401 55.1758111,117.57962 56.2608303,115.602948 C56.8029771,114.242271 58.1050002,115.444928 57.9932323,116.646638" id="Fill-2902" fill="#FFD9F4"/>
            <path d="M1.19252778,100 C-1.39348976,99.2243377 0.762274946,95.6213215 2.60930174,97.5716377 C3.82715129,98.4905278 1.870311,99.338734 1.19252778,100" id="Fill-2904" fill="#FFD9F4"/>
            <path d="M49.7709565,127.367627 C49.2229176,129.152348 47.5497017,126.703695 48.1150616,125.621905 C48.9547874,123.988542 50.6051395,125.927407 49.7709565,127.367627" id="Fill-2906" fill="#FFD9F4"/>
            <path d="M45.6721503,80 C46.6136255,80.1866434 47.3476046,81.3454733 46.8273156,82.2366442 C44.4746598,84.7553045 42.4471846,80.2563783 45.6721503,80" id="Fill-2908" fill="#FFD9F4"/>
            <path d="M61.1026291,121.004632 C62.4463366,121.24633 62.1919068,124.01656 60.9305998,123.999925 C59.5449692,123.688751 59.7936165,120.870572 61.1026291,121.004632" id="Fill-2910" fill="#FFD9F4"/>
            <path d="M56.0291953,131.145651 C55.7464841,129.880562 57.6015153,129.617496 57.9496818,130.586025 C58.3744449,131.987183 55.9686143,132.645197 56.0291953,131.145651" id="Fill-2912" fill="#FFD9F4"/>
            <path d="M45.9936086,125.363559 C46.1087232,126.816486 44.6370052,127.562908 44.1459468,126.497162 C43.4020734,124.617138 45.7305937,122.582441 45.9936086,125.363559" id="Fill-2914" fill="#FFD9F4"/>
            <path d="M21.5220239,79 C22.4268818,79.1548156 23.7934651,80.2912875 22.4113876,80.8223815 C20.2411749,81.6964304 18.723782,79.0638701 21.5220239,79" id="Fill-2916" fill="#FFD9F4"/>
            <path d="M58.6941738,107.571439 C59.2012531,108.02661 59.1290374,110.590372 58.0874056,109.874712 C56.0614436,109.431424 57.2208182,105.5707 58.6941738,107.571439" id="Fill-2918" fill="#FFD9F4"/>
            <path d="M49.0805283,107.647724 C50.7790258,106.60307 51.7151643,106.766343 50.3327882,108.546097 C48.6447698,110.38126 46.7628869,105.945544 49.0805283,107.647724" id="Fill-2920" fill="#FFD9F4"/>
            <path d="M31,118.530924 C30.8369671,122.001422 27.6109355,118.417053 29.703672,117.021878 C30.2937646,116.856714 30.9862937,117.652784 31,118.530924" id="Fill-2922" fill="#FFD9F4"/>
            <path d="M44.9320344,113 C43.2926061,112.220501 43.9810018,109.773477 45.7168671,110.016953 C48.1626725,111.143735 46.6637959,112.30449 44.9320344,113" id="Fill-2924" fill="#FFD9F4"/>
            <path d="M27.9925061,97.8883846 C28.1829335,99.5267394 24.6778481,99.2196424 25.0240797,97.841488 C25.4079894,96.5987285 27.691081,96.8332114 27.9925061,97.8883846" id="Fill-2926" fill="#FFD9F4"/>
            <path d="M67.0025778,123.833007 C66.9348306,122.3063 68.218385,121.40874 68.9723458,122.447168 C69.2076398,124.295588 67.8891191,126.342937 67.0025778,123.833007" id="Fill-2928" fill="#FFD9F4"/>
            <path d="M27.9673699,72.6112938 C28.2074354,74.0827319 27.0768277,75.6711589 26.0856592,74.7039834 C25.6579976,72.7837516 26.9172632,71.0359777 27.9673699,72.6112938" id="Fill-2930" fill="#FFD9F4"/>
            <path d="M47.0001314,115.07309 C46.9821367,113.847166 48.8176026,113.546149 48.9946711,114.833404 C49.1155959,116.265881 47.1397708,116.418152 47.0001314,115.07309" id="Fill-2932" fill="#FFD9F4"/>
            <path d="M53.0602081,105 C52.4060857,103.992483 51.2564376,103.091401 52.682396,102 C54.0181307,102.049609 54.6496971,104.803367 53.0602081,105" id="Fill-2934" fill="#FFD9F4"/>
            <path d="M35.9994206,121 C37.4713109,121.112096 37.1835279,122.794963 36.0151587,123 C34.6376972,122.826179 34.6909071,121.101454 35.9994206,121" id="Fill-2936" fill="#FFD9F4"/>
            <path d="M56.6716217,84.4230027 C57.3787683,85.2104472 56.871801,86.9927757 55.8371581,87 C54.0976695,86.5820249 55.4137905,82.7428458 56.6716217,84.4230027" id="Fill-2938" fill="#FFD9F4"/>
            <path d="M15.0007921,110.123093 C14.945012,108.073716 17.85732,109.18367 16.7475898,110.639965 C16.2719911,111.419423 14.9795076,110.787104 15.0007921,110.123093" id="Fill-2940" fill="#FFD9F4"/>
            <path d="M34.0545811,107 C35.3865507,107.043916 35.2059965,108.986319 34.1662799,109 C32.6070875,109.002158 32.6529911,107.071274 34.0545811,107" id="Fill-2942" fill="#FFD9F4"/>
            <path d="M11.8624272,95.0093625 C12.4270619,95.862571 11.1445205,97.0344738 9.99745183,96.9992232 C7.46697885,96.038824 10.3732157,94.8841869 11.8624272,95.0093625" id="Fill-2944" fill="#FFD9F4"/>
            <path d="M34.8971203,70.0255393 C37.4096696,69.5924401 34.9739428,74.8459434 34.0272178,72.3005898 C33.8667942,71.3289323 34.4489887,70.6286017 34.8971203,70.0255393" id="Fill-2946" fill="#FFD9F4"/>
            <path d="M20.914467,99.3458095 C21.523374,101.642472 18.6690726,101.44774 19.032029,99.3790803 C18.9747201,97.6998845 21.2814031,97.3994689 20.914467,99.3458095" id="Fill-2948" fill="#FFD9F4"/>
            <path d="M35.5944121,99.3244622 C34.8436109,100.311316 33.9045828,100.287107 34.0078267,98.7833304 C34.2726088,96.9904756 37.0138406,98.7584099 35.5944121,99.3244622" id="Fill-2950" fill="#FFD9F4"/>
            <path d="M50.2011914,90.3245223 C48.9355656,87.6802591 54.1076753,87.164143 52.7802202,89.4396161 C51.3366011,89.1877363 50.9768674,92.3367096 50.2011914,90.3245223" id="Fill-2952" fill="#FFD9F4"/>
            <path d="M54,94.3789323 C54.0211073,93.3688543 55.2853606,92.2904198 55.8574406,93.6153744 C56.5561644,94.7687104 54.4847396,95.6428023 54,94.3789323" id="Fill-2954" fill="#FFD9F4"/>
            <path d="M52,83.1579037 C53.1348289,82.7581661 53.4590657,81.2329809 54.6050402,82.4827757 C56.2596613,83.5660717 52.1925156,84.9015747 52,83.1579037" id="Fill-2956" fill="#FFD9F4"/>
            <path d="M35.1469946,88.9994315 C33.3782288,88.9093402 33.8072622,86.7193687 35.3989919,87.030184 C36.1270727,87.4851455 36.3575386,89.0339666 35.1469946,88.9994315" id="Fill-2958" fill="#FFD9F4"/>
            <path d="M24.0004739,111.277137 C24.0215813,108.30139 27.7674427,111.374155 24.9517145,112 C24.6688752,111.580914 23.9793665,111.856064 24.0004739,111.277137" id="Fill-2960" fill="#FFD9F4"/>
            <path d="M33.9501994,92.9547649 C33.2861696,92.4942217 32.3508695,91.730373 31.7159638,92.997726 C29.0914652,93.117158 34.5734554,88.4730609 33.9501994,92.9547649" id="Fill-2962" fill="#FFD9F4"/>
            <path d="M33.0009228,112.121704 C32.992347,109.983714 35.9642448,111.297157 34.6763185,112.790761 C34.2171244,113.31255 32.9611623,112.771324 33.0009228,112.121704" id="Fill-2964" fill="#FFD9F4"/>
            <path d="M35.0316726,105.236878 C35.8869024,102.111427 37.8395271,105.745015 36.5980935,106.997568 C35.6969514,107.053216 34.821016,106.144591 35.0316726,105.236878" id="Fill-2966" fill="#FFD9F4"/>
            <path d="M37.1073545,94 C36.3895663,92.6057467 34.993613,91.5943869 37.1652652,91 C38.1779409,91.4520548 38.3951061,93.813565 37.1073545,94" id="Fill-2968" fill="#FFD9F4"/>
            <path d="M47.225268,90 C47.9340476,90.2099714 48.0175425,91.1638623 49,91.222308 C47.5982122,93.3573784 44.1804848,90.4697299 47.225268,90" id="Fill-2970" fill="#FFD9F4"/>
            <path d="M8.16299009,100.002238 C9.64967516,100.243979 8.95430344,102.460792 7.64474136,101.913385 C6.45490129,101.758348 7.07975183,99.9272913 8.16299009,100.002238" id="Fill-2972" fill="#FFD9F4"/>
            <path d="M47.9887917,128.70012 C48.1454675,129.992798 46.6169225,130.536561 46.0681749,129.319385 C45.6271897,128.058738 47.4492153,127.418119 47.9887917,128.70012" id="Fill-2974" fill="#FFD9F4"/>
            <path d="M41.9567088,129.722343 C42.3171638,131.123106 40.3171977,131.449064 40.0077373,130.314215 C39.860342,129.056702 41.8665951,128.408216 41.9567088,129.722343" id="Fill-2976" fill="#FFD9F4"/>
            <path d="M53,110.198733 C53.0008314,111.298864 51.3150069,111.142131 51.0072837,110.472454 C50.8692241,108.778387 52.7363557,108.364432 53,110.198733" id="Fill-2978" fill="#FFD9F4"/>
            <path d="M20.9836827,112.071158 C21.1340524,112.95699 20.2109696,113.115406 19.6195635,112.932743 C17.7158403,112.008924 20.7887058,109.623805 20.9836827,112.071158" id="Fill-2980" fill="#FFD9F4"/>
            <path d="M44,85.885193 C42.3443219,85.8655842 42.9299028,87.944115 41.78153,88 C39.5779225,86.1048113 42.5890571,83.6605768 44,85.885193" id="Fill-2982" fill="#FFD9F4"/>
            <path d="M49.6138038,101 C49.7781144,102.135386 50.3232634,102.44771 51,102.926299 C50.4889664,105.788649 47.8161351,102.150084 49.6138038,101" id="Fill-2984" fill="#FFD9F4"/>
            <path d="M34.7856232,117.885847 C33.0418192,117.146244 34.558557,115.185888 35.8821673,116.373125 C36.2482207,116.929503 35.7278269,118.421369 34.7856232,117.885847" id="Fill-2986" fill="#FFD9F4"/>
            <path d="M67,117.145641 C67.0336778,115.408983 68.912744,115.908501 69,116.922523 C68.9793341,118.276217 67.2602373,118.358637 67,117.145641" id="Fill-2988" fill="#FFD9F4"/>
            <path d="M60.2790468,112.961511 C59.3010867,113.194992 59.2705969,112.31596 59,111.679925 C59.6341877,109.816466 62.2456385,112.303518 60.2790468,112.961511" id="Fill-2990" fill="#FFD9F4"/>
            <path d="M45,99.9402569 C46.250634,99.1437846 46.3254327,98.2967196 46.9941329,99.9445935 C47.1168028,101.342395 45.2782511,101.362632 45,99.9402569" id="Fill-2992" fill="#FFD9F4"/>
            <path d="M45.3085052,95.7859692 C44.3839617,93.024015 45.72053,94.6197922 46.9063575,94 C47.3356099,94.8208284 46.2000293,96.6159735 45.3085052,95.7859692" id="Fill-2994" fill="#FFD9F4"/>
            <path d="M57.3167667,99.9920047 C58.1640958,99.4651302 57.70858,98.6003293 57,98.1234171 C57.1553291,94.6923741 61.2078484,100.238182 57.3167667,99.9920047" id="Fill-2996" fill="#FFD9F4"/>
            <path d="M64.0163187,129.118588 C63.8360259,125.87746 68.2098817,130.803878 64.5072457,129.88324 C64.3246115,129.498904 63.9132942,129.699112 64.0163187,129.118588" id="Fill-2998" fill="#FFD9F4"/>
            <path d="M17.224189,103.008059 C17.6514586,103.478544 18.0837846,103.576075 17.9860267,104.329007 C17.1247456,106.462967 14.4574708,102.806757 17.224189,103.008059" id="Fill-3000" fill="#FFD9F4"/>
            <path d="M71.0057597,128.018159 C70.9093475,127.033265 72.0456934,126.841402 72.7370597,127.110862 C73.8742296,128.557079 70.9513734,130.028877 71.0057597,128.018159" id="Fill-3002" fill="#FFD9F4"/>
            <path d="M41,91.4281137 C40.8218152,92.3477965 39.6901983,92.9406833 39.9078999,93.9918938 C37.9291868,94.2185263 39.598232,89.6029127 41,91.4281137" id="Fill-3004" fill="#FFD9F4"/>
            <path d="M51.3379073,76 C51.0525412,77.0353016 52.6665571,78.3721569 51.6728225,78.7572026 C49.7578417,80.0017255 49.2797847,76.0599178 51.3379073,76" id="Fill-3006" fill="#FFD9F4"/>
            <path d="M65.9892358,125.977856 C65.8963108,127.503028 63.6416567,127.224763 64.0492225,125.782366 C64.1242146,124.639368 66.1653042,124.786425 65.9892358,125.977856" id="Fill-3008" fill="#FFD9F4"/>
            <path d="M24.894398,123 C22.8003299,122.819466 24.9024268,120.129601 25.9417969,121.289223 C26.2264559,122.074404 25.4009449,122.920718 24.894398,123" id="Fill-3010" fill="#FFD9F4"/>
            <path d="M56,75.3914424 C58.3341896,73.8088944 60.7693921,77.5796243 57.1784835,76.9222042 C56.2663967,76.5693566 57.0606352,75.1737652 56,75.3914424" id="Fill-3012" fill="#FFD9F4"/>
            <path d="M71.0020045,108.04966 C70.9091048,105.724749 74.0834678,107.842624 72.608467,108.853196 C71.9397649,109.268965 71.1878037,108.738648 71.0020045,108.04966" id="Fill-3014" fill="#FFD9F4"/>
            <path d="M47.497888,112.58074 C46.5018722,112.168411 47.1332669,110.677444 48.2225149,111.06312 C49.6893074,111.447228 48.8714483,113.983911 47.497888,112.58074" id="Fill-3016" fill="#FFD9F4"/>
            <path d="M9.00058695,107.076815 C8.97703491,105.657173 11.3784702,105.57998 10.9484275,107.212568 C10.9911701,108.539934 8.96046126,107.977401 9.00058695,107.076815" id="Fill-3018" fill="#FFD9F4"/>
            <path d="M22.0221407,70 C19.5257533,69.6990893 22.3054376,66.7096601 22.9563988,68.6512312 C23.1944037,69.0505324 22.3977977,69.8007594 22.0221407,70" id="Fill-3020" fill="#FFD9F4"/>
            <path d="M43.1333601,62.6559753 C43.7306135,61.3335494 44.820824,62.2690954 45,63.1991703 C44.6719563,64.5856854 42.4380501,64.0206063 43.1333601,62.6559753" id="Fill-3022" fill="#FFD9F4"/>
            <path d="M19.3670778,119 C16.6084046,118.847364 18.665028,115.774006 19.9674693,117.551805 C20.1421129,117.87551 19.5660498,118.586335 19.3670778,119" id="Fill-3024" fill="#FFD9F4"/>
            <path d="M8,97.7960243 C7.99204911,96.3233665 10.7758574,97.1670504 9.78782956,98.1361922 C9.19620805,99.611376 8.43128326,98.9950321 8,97.7960243" id="Fill-3026" fill="#FFD9F4"/>
            <path d="M70,111.81171 C70.279476,110.527772 71.9973799,110.874617 72,112.100313 C71.4122271,113.317316 70.09869,113.373819 70,111.81171" id="Fill-3028" fill="#FFD9F4"/>
            <path d="M53.9191914,118.255559 C50.0890285,121.643115 53.0080332,112.023472 54,118.012104 C53.7682937,118.035635 53.0632799,118.261895 53.3955846,117.690816 C53.1828436,114.677946 51.2154015,119.85114 53.9191914,118.255559" id="Fill-3030" fill="#FFD9F4"/>
            <path d="M69.8776194,96.775189 C69.167832,97.2510073 68.1826726,96.9518401 68,96.0638359 C68.5216619,94.2507878 70.5083396,94.932699 69.8776194,96.775189" id="Fill-3032" fill="#FFD9F4"/>
            <path d="M37.7780783,107.393399 C38.7037435,108.929583 36.4615555,109.735554 36.0316122,108.095316 C35.853343,107.324029 36.4281896,106.488849 37.7780783,107.393399" id="Fill-3034" fill="#FFD9F4"/>
            <path d="M59.209606,98.5959078 C58.0824185,97.3069297 61.9398179,94.6176395 60.4430767,96.8673526 C59.6844678,99.2495148 62.8495635,99.3214979 59.209606,98.5959078" id="Fill-3036" fill="#FFD9F4"/>
            <path d="M66.9920451,96.5163206 C66.5561691,96.2436288 66.0511064,96.3939079 65.6690422,97 C63.5396303,96.8935109 67.1919177,92.8897199 66.9920451,96.5163206" id="Fill-3038" fill="#FFD9F4"/>
            <path d="M65.878943,130.044553 C67.0015669,129.632034 67.5467856,132.227419 66.2339692,131.939395 C64.8704347,132.419435 64.4754194,129.885242 65.878943,130.044553" id="Fill-3040" fill="#FFD9F4"/>
            <path d="M49.1790133,98.567609 C48.4331756,97.2063169 50.2090512,96.8250459 51,97.0689137 C49.771473,97.1489897 50.3962625,100.079044 49.1790133,98.567609" id="Fill-3042" fill="#FFD9F4"/>
            <path d="M52.0662255,118.267845 C51.5720159,116.519262 54.0266586,116.709701 53.39608,118.045513 C52.8075399,118.56945 53.851327,118.13481 54,118.348941 C53.6944513,118.865589 51.9544644,119.548074 52.0662255,118.267845" id="Fill-3044" fill="#FFD9F4"/>
            <path d="M52.3142119,114.768494 C51.3237567,113.106001 52.9441105,114.39396 53.4733285,113.014359 C54.7554991,112.765334 53.4320237,115.852252 52.3142119,114.768494" id="Fill-3046" fill="#FFD9F4"/>
            <path d="M43.4800136,100 C42.7925245,99.3195361 42.743002,97.4862475 44,98.1378081 C43.7902576,98.7555108 44.302233,99.9248517 43.4800136,100" id="Fill-3048" fill="#FFD9F4"/>
            <path d="M22.4893651,85 C21.5943613,84.6109169 22.0232946,82.1248181 23,83.3241797 C22.9028246,83.9029501 22.9808125,84.6960522 22.4893651,85" id="Fill-3050" fill="#FFD9F4"/>
            <path d="M47.7252444,82.0251046 C48.1433014,81.7669412 49.7037148,83.5751742 48.6290165,84 C48.4402856,81.7582268 45.7396522,84.1644838 47.7252444,82.0251046" id="Fill-3052" fill="#FFD9F4"/>
            <path d="M64.7981803,108 C64.3563623,106.819099 63.2716231,106.216882 62,107.011637 C62.643937,105.120484 65.8229948,106.12917 64.7981803,108" id="Fill-3054" fill="#FFD9F4"/>
            <path d="M64.247853,100.995843 C63.4981375,100.152786 64.7196252,99.9625425 64.3926761,99.030501 C65.3654776,98.7037111 65.05974,101.113211 64.247853,100.995843" id="Fill-3056" fill="#FFD9F4"/>
            <path d="M1,100 C1.71338402,99.073956 4.12245038,98.3819469 2.098997,97.306304 C1.38358344,95.8883278 5.18795994,99.8448945 1,100" id="Fill-3058" fill="#FFD9F4"/>
            <path d="M70.0537955,111.540637 C70.3523713,113.470596 72.1180326,112.602381 71.5927894,111 C73.1943122,112.680502 69.5183914,114.237608 70.0537955,111.540637" id="Fill-3060" fill="#FFD9F4"/>
            <path d="M64,100.920463 C64.3338993,100.850813 64.6926714,100.178541 64.6700597,99.7901682 C64.4959497,97.2752056 65.8828,101.631345 64,100.920463" id="Fill-3062" fill="#FFD9F4"/>
            <path d="M51,105.77563 C51.3427173,105.156514 52.4077648,105.292982 52.9857929,105 C53.1497725,105.569772 51.8576133,106.40477 51,105.77563" id="Fill-3064" fill="#FFD9F4"/>
            <path d="M61.7435376,115 C61.6589586,114.207254 61.1344427,114.129912 61,113.44351 C61.4285756,112.032034 62.4839192,114.386642 61.7435376,115" id="Fill-3066" fill="#FFD9F4"/>
            <path d="M58.2725108,77.2860023 C60.6774542,78.1230023 56.3816251,77.8480023 56,77.2550023 C56.7804899,77.1790023 57.5641144,77.1400023 58.2725108,77.2860023" id="Fill-3068" fill="#FFD9F4"/>
            <path d="M12.2510907,99.9730896 C11.1713748,99.4080581 13.9183144,98.4023889 14,99.4711832 C13.1999002,99.4990325 13.4659019,100.137091 12.2510907,99.9730896" id="Fill-3070" fill="#FFD9F4"/>
            <path d="M67.0425796,124 C67.8617119,124.862475 68.6012621,125.26552 68.9236095,124.054296 C69.4991725,125.397781 66.6197499,125.246726 67.0425796,124" id="Fill-3072" fill="#FFD9F4"/>
            <path d="M36.2199822,108.095168 C36.7188696,111.144343 34.5548643,105.328291 37.995244,107.497096 C38.1161864,107.914208 35.8873905,106.75697 36.2199822,108.095168" id="Fill-3074" fill="#FFD9F4"/>
            <path d="M12,94.619 C11.3623047,94.8528413 10.6796875,95.0956003 10,94.9618352 C10.40625,94.4010123 11.9277344,93.3081013 12,94.619" id="Fill-3076" fill="#FFD9F4"/>
            <path d="M8.00011398,128 C8.85974487,128.992102 10.0146614,128.788361 10.9850244,128.365475 C11.2472847,129.213348 7.97777329,129.32397 8.00011398,128" id="Fill-3078" fill="#FFD9F4"/>
            <path d="M20.7333692,99 C20.7600981,98.6518458 20.0559302,97.6914844 19.4024551,98.35811 C17.6862764,98.1738295 22.0993073,97.3767233 20.7333692,99" id="Fill-3080" fill="#FFD9F4"/>
            <path d="M18.6251828,117 C17.7091634,117.892313 18.2131242,118.418323 19,118.94067 C18.0371284,119.397815 17.5145468,117.065202 18.6251828,117" id="Fill-3082" fill="#FFD9F4"/>
            <path d="M12,99.750353 C13.2118677,99.8354727 12.9216068,99.0608834 13.4716343,99.2055869 C14.7636909,98.294806 13.4580813,100.765897 12,99.750353" id="Fill-3084" fill="#FFD9F4"/>
            <path d="M22,85.9456495 C22.5636746,85.3109724 22.3571442,84.7031737 22.7440504,84 C23.3428983,84.4569328 22.807182,86.3418892 22,85.9456495" id="Fill-3086" fill="#FFD9F4"/>
            <path d="M66.8267861,95.7854654 C65.8494488,95.5714654 65.0017497,95.5864654 64,95.4754654 C64.5833719,94.8344654 67.7696093,95.5464654 66.8267861,95.7854654" id="Fill-3088" fill="#FFD9F4"/>
            <path d="M79.0126436,104 C78.8925793,103.205717 79.6689955,102.711997 79.5956229,102 C80.6828724,102.012126 79.2607767,103.35903 79.0126436,104" id="Fill-3090" fill="#FFD9F4"/>
            <path d="M55,82.8848652 C54.4617782,82.8948652 51.9762632,82.4828652 53.4730881,82.4688652 C54.213561,82.5958652 54.9974928,81.3578652 55,82.8848652" id="Fill-3092" fill="#FFD9F4"/>
            <path d="M47.6177087,128 C46.7407087,127.197413 47.3187087,127.615044 47.2937087,126.794077 C47.0447087,124.663034 48.4157087,127.433288 47.6177087,128" id="Fill-3094" fill="#FFD9F4"/>
            <path d="M59.3890538,112 C59.6540538,112.594249 59.6750538,112.965784 59.9250538,113.684918 C60.3260538,114.723552 58.2010538,112.940807 59.3890538,112" id="Fill-3096" fill="#FFD9F4"/>
            <path d="M43.1034802,113.995159 C43.0894802,113.341276 43.9854802,112.491586 43.5484802,112.446677 C42.8794802,110.827236 44.9624802,114.143361 43.1034802,113.995159" id="Fill-3098" fill="#FFD9F4"/>
            <path d="M39,94 C39.5786013,94.1487653 39.8266587,94.3035111 40,94.9972508 C39.6150628,95.04659 39.1326958,94.4208787 39,94" id="Fill-3100" fill="#FFD9F4"/>
            <path d="M66,129.73543 C65.4109157,129.98543 64.0703654,130.10743 64,129.09043 C64.4772215,129.44243 65.5543527,129.33443 66,129.73543" id="Fill-3102" fill="#FFD9F4"/>
            <path d="M19,119 C19.3260168,118.650677 18.9663404,118.110086 19.8386037,118 C20.3473438,118.269373 19.5385528,118.939729 19,119" id="Fill-3104" fill="#FFD9F4"/>
            <path d="M43.052408,112 C42.7951537,111.206384 43.5792573,111.313112 43.3770611,110.407295 C44.6642822,109.009801 43.6523517,111.626909 43.052408,112" id="Fill-3106" fill="#FFD9F4"/>
            <path d="M41.0157736,114 C41.4075769,114.571232 42.3571485,114.549232 43,114.774739 C42.6817255,115.371901 40.809893,114.666307 41.0157736,114" id="Fill-3108" fill="#FFD9F4"/>
            <path d="M21.6166795,83 C21.6086795,83.6536857 21.6376795,84.2165044 21.8126795,85 C20.9566795,84.9258229 21.0676795,83.4172462 21.6166795,83" id="Fill-3110" fill="#FFD9F4"/>
            <path d="M44.9067081,63 C44.5464702,62.9568432 44.5345506,62.6418906 44.6126904,62.3508118 C42.8479221,62.4178426 45.519245,61.1763965 44.9067081,63" id="Fill-3112" fill="#FFD9F4"/>
            <path d="M26.5755185,73 C27.2295185,73.0332378 26.3765185,73.1894556 26.6865185,73.4274384 C27.0455185,74.6738569 25.4585185,73.5823267 26.5755185,73" id="Fill-3114" fill="#FFD9F4"/>
            <path d="M12.1055621,98.2953359 C12.157714,97.7804226 12.6977385,98.0860063 12.9812092,98.1299282 C13.1898168,98.9868709 11.5815197,99.4858975 12.1055621,98.2953359" id="Fill-3116" fill="#FFD9F4"/>
            <path d="M12.1180218,98 C12.0750896,98.8641368 12.2216193,98.2936536 13,98.3578903 C12.2206859,99.316088 11.772697,99.2059679 12.1180218,98" id="Fill-3118" fill="#FFD9F4"/>
            <path d="M43.9780736,105 C44.1282718,105.409739 43.4737657,106.441317 43.0221765,105.789178 C42.8331854,105.588785 43.912424,105.353271 43.9780736,105" id="Fill-3120" fill="#FFD9F4"/>
            <path d="M32.6369219,83 C32.9309219,83.4480052 32.7199219,83.6586004 32.6409219,84 C32.2739219,83.7272727 31.8959219,83.2315239 32.6369219,83" id="Fill-3122" fill="#FFD9F4"/>
            <path d="M41.0755904,111 C41.2455904,111.072864 42.7895904,111.98304 41.4255904,112 C42.5495904,111.677136 40.6665904,111.596734 41.0755904,111" id="Fill-3124" fill="#FFD9F4"/>
            <path d="M26,74.1895573 C26.3240059,74.5195573 26.7201767,74.1605573 27,74.3685573 C26.7938144,75.0315573 26.0515464,74.9295573 26,74.1895573" id="Fill-3126" fill="#FFD9F4"/>
            <path d="M43.0000605,108.690114 C42.9893365,108.089114 44.4087301,108.120114 43.8832557,108.739114 C43.5676647,108.263114 43.3378654,108.928114 43.0000605,108.690114" id="Fill-3128" fill="#FFD9F4"/>
            <path d="M23,83.7765135 C22.6207612,83.4835135 22.3958478,83.5995135 22,83.6755135 C22.2435986,82.9385135 22.8103806,83.1975135 23,83.7765135" id="Fill-3130" fill="#FFD9F4"/>
            <path d="M67.3658318,96.9857573 C66.5538318,96.3287573 67.8118318,95.4677573 67.9058318,96.4767573 C67.3518318,96.0837573 67.5438318,96.6657573 67.3658318,96.9857573" id="Fill-3132" fill="#FFD9F4"/>
            <path d="M20.3178606,101 C20.7418606,100.57739 20.0098606,100.167678 20.4688606,100 C20.8388606,100.147193 20.7108606,100.807284 20.3178606,101" id="Fill-3134" fill="#FFD9F4"/>
            <path d="M41.7230862,112 C41.7300862,112.389599 41.5440862,112.708029 41.2830862,113 C41.2510862,112.601277 41.3310862,112.243613 41.7230862,112" id="Fill-3136" fill="#FFD9F4"/>
            <path d="M44.7369896,109.995 C44.6499896,109.619 44.3439896,109.358 44.2159896,109.005 C44.6649896,109.118 44.8879896,109.545 44.7369896,109.995" id="Fill-3138" fill="#FFD9F4"/>
            <path d="M13.8179544,98.9148217 C13.3229544,98.8668217 12.9299544,97.6768217 13.3589544,98.2328217 C13.7579544,98.4068217 13.8529544,98.4838217 13.8179544,98.9148217" id="Fill-3140" fill="#FFD9F4"/>
            <path d="M42.0542414,106.438997 C41.9422414,105.952997 42.8902414,106.933997 42.7732414,106.352997 C43.3722414,106.456997 42.3212414,107.026997 42.0542414,106.438997" id="Fill-3142" fill="#FFD9F4"/>
            <path d="M19.706,117.844587 C19.274,117.932587 19.31,117.407587 19.294,117.145587 C19.698,117.221587 19.705,117.531587 19.706,117.844587" id="Fill-3144" fill="#FFD9F4"/>
            <path d="M51.8505,87.6415082 C51.5565,87.8155082 51.3625,87.6025082 51.1495,87.4615082 C51.4175,87.1965082 51.5705,87.2355082 51.8505,87.6415082" id="Fill-3146" fill="#FFD9F4"/>
            <path d="M54.7835,102.828 C54.5105,102.682 54.2395,102.534 54.2165,102.172 C54.6095,102.215 54.7705,102.457 54.7835,102.828" id="Fill-3148" fill="#FFD9F4"/>
            <path d="M12.6160437,98.1485 C12.8830437,98.3885 12.5420437,98.6435 12.3400437,98.8515 C12.2060437,98.5875 12.3290437,98.1985 12.6160437,98.1485" id="Fill-3150" fill="#FFD9F4"/>
            <path d="M44.093,108.367536 C44.433,108.254536 44.647,108.515536 44.907,108.639536 C44.578,108.721536 44.336,108.544536 44.093,108.367536" id="Fill-3152" fill="#FFD9F4"/>
            <path d="M42.5384788,62.324 C42.6944788,62.452 42.6824788,62.518 42.4714788,62.676 C42.2984788,62.569 42.3184788,62.46 42.5384788,62.324" id="Fill-3154" fill="#FFD9F4"/>
            <path d="M54.5465684,103.817 C54.3755684,103.607 54.2615684,103.396 54.5435684,103.183 C54.4645684,103.395 54.7645684,103.604 54.5465684,103.817" id="Fill-3156" fill="#FFD9F4"/>
            <path d="M12.6887749,98.4416876 C12.6677749,98.6036876 12.5507749,98.6916876 12.4157749,98.6586876 C12.1407749,98.4646876 12.4707749,98.1756876 12.6887749,98.4416876" id="Fill-3158" fill="#FFD9F4"/>
            <path d="M43.6673779,61.3135085 C43.7633779,61.6415085 43.4773779,61.6065085 43.3133779,61.6865085 C43.3493779,61.4855085 43.4163779,61.3115085 43.6673779,61.3135085" id="Fill-3160" fill="#FFD9F4"/>
            <path d="M0.292,99.3265 C0.504,99.3535 0.701,99.3985 0.708,99.6735 C0.531,99.6025 0.349,99.5395 0.292,99.3265" id="Fill-3162" fill="#FFD9F4"/>
            <path d="M67.4994278,96.3213902 C67.5714278,96.4213902 67.6334278,96.5253902 67.6364278,96.6533902 C67.3954278,96.7753902 67.2364278,96.4203902 67.4994278,96.3213902" id="Fill-3164" fill="#FFD9F4"/>
            <path d="M46.4080688,114.34158 C46.5490688,114.36958 46.6510688,114.45458 46.6430688,114.59758 C46.5120688,114.77858 46.2440688,114.51458 46.4080688,114.34158" id="Fill-3166" fill="#FFD9F4"/>
            <path d="M45.3301675,91.2746493 C45.5791675,91.3216493 45.5041675,91.6136493 45.6701675,91.7246493 C45.3371675,91.7396493 45.3271675,91.5116493 45.3301675,91.2746493" id="Fill-3168" fill="#FFD9F4"/>
            <path d="M39.3757685,101.637822 C39.3357685,101.430822 39.4217685,101.340822 39.6297685,101.363822 C39.6527685,101.554822 39.5777685,101.654822 39.3757685,101.637822" id="Fill-3170" fill="#FFD9F4"/>
            <path d="M63.4771296,128.362 C63.5661296,128.451 63.7941296,128.533 63.4891296,128.638 C63.2401296,128.556 63.4071296,128.457 63.4771296,128.362" id="Fill-3172" fill="#FFD9F4"/>
            <path d="M75.6702901,99.4602402 C75.7702901,99.7472402 75.2882901,99.6822402 75.3172901,99.4102402 C75.4512901,99.2962402 75.5652901,99.3732402 75.6702901,99.4602402" id="Fill-3174" fill="#FFD9F4"/>
            <path d="M45.3842095,100.359888 C45.5612095,100.370888 45.6012095,100.499888 45.6282095,100.639888 C45.4342095,100.644888 45.3352095,100.566888 45.3842095,100.359888" id="Fill-3176" fill="#FFD9F4"/>
            <path d="M32.5694441,82.322 C32.6944441,82.536 32.5284441,82.601 32.3864441,82.678 C32.4004441,82.535 32.3814441,82.375 32.5694441,82.322" id="Fill-3178" fill="#FFD9F4"/>
            <path d="M64.635,99.514494 C64.574,99.658494 64.401,99.579494 64.365,99.486494 C64.461,99.435494 64.564,99.321494 64.635,99.514494" id="Fill-3180" fill="#FFD9F4"/>
            <path d="M33.3685758,84.4332076 C33.6025758,84.3022076 33.6625758,84.3972076 33.6175758,84.6262076 C33.4995758,84.6072076 33.4045758,84.5582076 33.3685758,84.4332076" id="Fill-3182" fill="#FFD9F4"/>
            <path d="M77.644,64.6076831 C77.499,64.6306831 77.411,64.5606831 77.356,64.4346831 C77.567,64.2976831 77.582,64.4946831 77.644,64.6076831" id="Fill-3184" fill="#FFD9F4"/>
            <path d="M40.6440781,91.6348043 C40.4770781,91.6558043 40.3990781,91.4788043 40.3510781,91.3748043 C40.5280781,91.3268043 40.6780781,91.4348043 40.6440781,91.6348043" id="Fill-3186" fill="#FFD9F4"/>
            <path d="M53.641,87.4756372 C53.542,87.5626372 53.442,87.6976372 53.359,87.4626372 C53.458,87.3486372 53.549,87.4356372 53.641,87.4756372" id="Fill-3188" fill="#FFD9F4"/>
            <path d="M8.50438174,127.373 C8.64538174,127.473 8.52338174,127.546 8.47938174,127.627 C8.40838174,127.534 8.41038174,127.449 8.50438174,127.373" id="Fill-3190" fill="#FFD9F4"/>
            <path d="M40.5375792,91.5771357 C40.3905792,91.6571357 40.3875792,91.4561357 40.4675792,91.4091357 C40.5655792,91.3721357 40.6355792,91.5571357 40.5375792,91.5771357" id="Fill-3192" fill="#FFD9F4"/>
            <path d="M59.5747379,111.399 C59.5957379,111.52 59.5387379,111.584 59.4217379,111.601 C59.4127379,111.488 59.4847379,111.437 59.5747379,111.399" id="Fill-3194" fill="#FFD9F4"/>
            <path d="M59.597,111.421558 C59.583,111.536558 59.521,111.591558 59.403,111.579558 C59.426,111.476558 59.475,111.403558 59.597,111.421558" id="Fill-3196" fill="#FFD9F4"/>
            <path d="M41.594942,112.411221 C41.597942,112.541221 41.542942,112.608221 41.404942,112.584221 C41.421942,112.475221 41.473942,112.406221 41.594942,112.411221" id="Fill-3198" fill="#FFD9F4"/>
            <path d="M64.4418888,101.563 L64.5178888,101.437 C64.6128888,101.551 64.5198888,101.552 64.4418888,101.563" id="Fill-3200" fill="#FFD9F4"/>
            <path d="M67.4606783,96.4025 C67.5516783,96.4375 67.5846783,96.5035 67.5656783,96.5975 C67.4746783,96.5625 67.3776783,96.5315 67.4606783,96.4025" id="Fill-3202" fill="#FFD9F4"/>
            <path d="M46.5893463,89.5550697 C46.4533463,89.5970697 46.3193463,89.5100697 46.4933463,89.4340697 C46.5673463,89.4310697 46.5763463,89.4980697 46.5893463,89.5550697" id="Fill-3204" fill="#FFD9F4"/>
            <path d="M60.5503627,113.4155 C60.6363627,113.5735 60.5293627,113.5805 60.4183627,113.5845 C60.4203627,113.4955 60.4383627,113.4185 60.5503627,113.4155" id="Fill-3206" fill="#FFD9F4"/>
            <path d="M76.573,63.5481626 C76.524,63.5421626 76.475,63.5371626 76.427,63.5321626 C76.461,63.4121626 76.566,63.4341626 76.573,63.5481626" id="Fill-3208" fill="#FFD9F4"/>
            <path d="M35.5221467,62.4814817 C35.4541467,62.5294817 35.4571467,62.5304817 35.5271467,62.4864817 L35.5221467,62.4814817 Z" id="Fill-3210" fill="#FFD9F4"/>
            <path d="M43.5397527,62.4125 C43.5367527,62.4805 43.5337527,62.5505 43.4617527,62.5875 C43.4617527,62.5175 43.4427527,62.4395 43.5397527,62.4125" id="Fill-3212" fill="#FFD9F4"/>
            <path d="M45.4823614,124.496126 L45.5173614,124.491126 C45.5203614,124.524126 45.4983614,124.502126 45.4823614,124.496126" id="Fill-3214" fill="#FFD9F4"/>
            <path d="M43.5496877,100.586478 C43.4146877,100.565478 43.4136877,100.399478 43.5516877,100.414478 C43.5426877,100.470478 43.5526877,100.529478 43.5496877,100.586478" id="Fill-3216" fill="#FFD9F4"/>
            <path d="M47.4622705,100.5465 C47.4572705,100.4915 47.4872705,100.4645 47.5382705,100.4535 C47.5132705,100.4845 47.4872705,100.5155 47.4622705,100.5465" id="Fill-3218" fill="#FFD9F4"/>
            <path d="M43.4945522,100.513525 C43.5135522,100.479525 43.5135522,100.476525 43.4915522,100.510525 L43.4945522,100.513525 Z" id="Fill-3220" fill="#FFD9F4"/>
            <path d="M47.5041169,116.494 L47.4941169,116.506 C47.4951169,116.504 47.5111169,116.497 47.5041169,116.494" id="Fill-3222" fill="#FFD9F4"/>
            <path d="M35.5162313,101.481978 C35.5042313,101.492978 35.4672313,101.544978 35.4892313,101.499978 C35.4952313,101.490978 35.5242313,101.491978 35.5162313,101.481978" id="Fill-3224" fill="#FFD9F4"/>
            <path d="M17.4962083,102.5055 L17.5052083,102.4945 C17.5052083,102.4955 17.4902083,102.5035 17.4962083,102.5055" id="Fill-3226" fill="#FFD9F4"/>
            <path d="M53.5,87.4995 L53.5,87.5005 L53.5,87.4995 Z" id="Fill-3228" fill="#FFD9F4"/>
            <path d="M36.548,104.434 C36.541,104.496 36.521,104.548 36.452,104.566 C36.454,104.5 36.489,104.458 36.548,104.434" id="Fill-3230" fill="#FFD9F4"/>
            <path d="M76,93.2827741 C75.7460904,95.6240284 74.5047549,97.5516639 75.3987889,94.1944587 C74.3675853,92.3590257 71.312888,90.4908478 74.2284701,89.3396091 C76.2344529,88.0556676 72.8178615,90.6399229 76,93.2827741" id="Fill-3232" fill="#FFD9F4"/>
            <path d="M75.9274728,93 C73.2928957,91.348957 77.1210773,88.1872368 76.9970388,91.3543855 C76.1060882,91.1418981 75.9848849,92.2655999 75.9274728,93" id="Fill-3234" fill="#FFD9F4"/>
            <path d="M76.7032541,90 C74.418103,89.1526094 78.4501998,85.5169089 78.2556558,85.3431093 C80.4568666,83.6445702 77.1150553,88.7392481 76.7032541,90" id="Fill-3236" fill="#FFD9F4"/>
            <path d="M75.5058066,97.0160485 C76.4948066,96.7299537 75.6528066,100.389436 75.0978066,98.4099697 C74.9218066,98.0226522 75.1498066,97.4413245 75.5058066,97.0160485" id="Fill-3238" fill="#FFD9F4"/>
            <path d="M88.9952251,80.1754964 C89.0839473,80.6154964 87.9056284,81.2274964 88.0060825,80.4564964 C88.3470397,80.4394964 88.6689327,80.2874964 88.9952251,80.1754964" id="Fill-3240" fill="#FFD9F4"/>
            <path d="M76.465,90.5335 L76.535,90.4665 L76.465,90.5335 Z" id="Fill-3242" fill="#FFD9F4"/>
            <path d="M70.6284169,72 C75.9246838,75.1780574 80.6837131,76.274249 72.9054088,78.5304272 C70.7645171,80.2349154 72.4872589,76.7657383 70.5881241,76.5680643 C68.3379942,77.4800599 68.5949728,72.8230423 70.6284169,72" id="Fill-3244" fill="#FFD9F4"/>
            <path d="M75,89.5433599 C74.2149806,91.9102707 67.9543496,93.2962448 70.6852408,90.2519587 C74.5298019,92.137508 72.876787,82.6603242 75,89.5433599" id="Fill-3246" fill="#FFD9F4"/>
            <path d="M60.9763468,91.1792079 C61.3691076,93.1390698 56.7366698,93.8455032 57.0117967,91.6305403 C58.6246434,91.0205874 59.8330631,88.5676939 60.9763468,91.1792079" id="Fill-3248" fill="#FFD9F4"/>
            <path d="M53.8785448,72.942059 C54.0902519,71.9323901 53.6327425,71.6945488 53,71.6223635 C54.4486474,67.0469256 58.4369869,73.6796448 53.8785448,72.942059" id="Fill-3250" fill="#FFD9F4"/>
            <path d="M70.7357203,87 C69.5634441,86.4935158 69.9278002,84.6369604 70.8804546,84.0084218 C72.5510201,83.8191129 72.2262679,86.8829274 70.7357203,87" id="Fill-3252" fill="#FFD9F4"/>
            <path d="M72.0142465,81.9971975 C68.4881959,80.4362849 75.4236402,78.7864373 73.7283512,81.2822169 C72.9390352,81.2703122 72.9804296,82.0525193 72.0142465,81.9971975" id="Fill-3254" fill="#FFD9F4"/>
            <path d="M51.2660712,92.3357538 C52.1909441,92.7630295 55.2166241,90.9944857 53.463507,92.9140795 C54.190809,94.9630447 49.9141349,93.732267 51.2660712,92.3357538" id="Fill-3256" fill="#FFD9F4"/>
            <path d="M61.7379221,95 C60.5469689,94.3913677 60.8368828,91.8904068 62.3243389,92.0037315 C63.2303199,92.3700832 63.3983382,94.9394299 61.7379221,95" id="Fill-3258" fill="#FFD9F4"/>
            <path d="M60.4172599,78.0821288 C61.5182443,77.5879316 62.39195,79.4401827 61.8188123,80.536312 C60.3085614,81.9862866 59.4323853,79.7189099 60.4172599,78.0821288" id="Fill-3260" fill="#FFD9F4"/>
            <path d="M54.3155327,89.0018121 C55.3038759,88.951832 56.4794238,89.9446191 55.7968212,90.8813678 C54.5313496,91.430392 53.4408204,89.9484054 54.3155327,89.0018121" id="Fill-3262" fill="#FFD9F4"/>
            <path d="M69.7448296,76.9095316 C68.1706304,77.3973732 67.3127536,75.7846353 68.6893466,75.1158825 C70.3908498,74.5576865 70.0611895,76.1572813 69.7448296,76.9095316" id="Fill-3264" fill="#FFD9F4"/>
            <path d="M63.488556,90.4678111 C63.563556,90.4548111 63.498556,90.5928111 63.476556,90.5018111 C63.474556,90.4918111 63.484556,90.4798111 63.488556,90.4678111" id="Fill-3266" fill="#FFD9F4"/>
            <path d="M67.5108867,89.5033971 C67.4848867,89.4883971 67.4808867,89.4883971 67.5058867,89.5073971 L67.5108867,89.5033971 Z" id="Fill-3268" fill="#FFD9F4"/>
            <path d="M77.8827968,86 C77.8320345,85.575109 77.1505364,85.5684002 77,85.0480951 C77.2578957,84.7476897 78.356578,85.9508021 77.8827968,86" id="Fill-3270" fill="#FFD9F4"/>
            <path d="M79.4107159,78.691 C79.3917159,78.539 79.3847159,78.39 79.5567159,78.309 C79.6237159,78.481 79.6337159,78.63 79.4107159,78.691" id="Fill-3272" fill="#FFD9F4"/>
            <path d="M51.0171985,81 C50.7705951,79.7214215 53.26214,79.6585508 52.9772705,80.8711462 C52.3040715,80.3762728 51.6400847,80.5437205 51.0171985,81" id="Fill-3274" fill="#FFD9F4"/>
            <path d="M51.6826924,79.771089 C49.994988,80.9684525 51.8380026,77.0190751 52.8988185,78.2356597 C53.4212257,78.4663133 51.7542293,79.0881735 51.6826924,79.771089" id="Fill-3276" fill="#FFD9F4"/>
            <path d="M53.5498661,81.824 C53.3508661,81.613 53.3168661,81.398 53.5308661,81.176 C53.7188661,81.387 53.5308661,81.608 53.5498661,81.824" id="Fill-3278" fill="#FFD9F4"/>
            <path d="M52.5860022,81.5924899 C52.4790022,81.5794899 52.3970022,81.5394899 52.3970022,81.4134899 C52.5030022,81.3774899 52.6540022,81.5124899 52.5860022,81.5924899" id="Fill-3280" fill="#FFD9F4"/>
            <path d="M53.4705975,81.5535 C53.4695975,81.5185 53.4685975,81.4825 53.4675975,81.4465 C53.5005975,81.4815 53.5935975,81.5145 53.4705975,81.5535" id="Fill-3282" fill="#FFD9F4"/>
            <path d="M52,97.3994831 C52.7756268,96.8851512 53.2399247,96.668898 52.8713167,97.9998154 C52.7041964,98.0106698 52.1698158,97.5397555 52,97.3994831" id="Fill-3284" fill="#FFD9F4"/>
            <path d="M54.9169575,99.0254042 C55.3010234,100.097404 54.2418415,100.308404 54,99.4164042 C54.3408585,99.5184042 54.6127052,99.1694042 54.9169575,99.0254042" id="Fill-3286" fill="#FFD9F4"/>
            <path d="M51,92.2890989 C50.2925595,97.7068019 50.4883352,88.0445148 47.3663285,93.3368972 C45.7064916,91.5290188 50.1781206,89.6922202 51,92.2890989" id="Fill-3288" fill="#FFD9F4"/>
            <path d="M48.3985178,97.9336257 C46.8777672,98.5721777 46.4028921,94.3755638 47.9597923,95.0800058 C49.1001498,95.3144968 49.3860608,97.6603759 48.3985178,97.9336257" id="Fill-3290" fill="#FFD9F4"/>
            <path d="M48.4439119,97.5374997 C48.4349119,97.4874997 48.4569119,97.4504997 48.5059119,97.4544997 C48.6179119,97.4874997 48.5269119,97.5724997 48.4439119,97.5374997" id="Fill-3292" fill="#FFD9F4"/>
            <path d="M74.118546,94 C75.2997542,94.4453498 75.1087718,96.041316 74.6136589,96.8932221 C72.7521209,97.6551272 72.3881733,94.0931045 74.118546,94" id="Fill-3294" fill="#FFD9F4"/>
            <path d="M71.1819149,93.9851143 C70.5199659,94.1977375 71.9732103,92.0685104 71,91.6861878 C71.3043444,89.4840898 72.9761634,93.2194709 71.1819149,93.9851143" id="Fill-3296" fill="#FFD9F4"/>
            <path d="M42.5850734,106.596462 C42.4810734,106.599462 42.3680734,106.512462 42.4350734,106.403462 C42.5340734,106.425462 42.5450734,106.529462 42.5850734,106.596462" id="Fill-3298" fill="#FFD9F4"/>
            <path d="M52,103 C52.3544584,103.025234 53.1361658,103.525234 52.9795078,104 C52.603687,103.734579 52.1297571,103.602804 52,103" id="Fill-3300" fill="#FFD9F4"/>
            <path d="M59.4555,113.484117 C59.4855,113.479117 59.5155,113.479117 59.5445,113.485117 C59.5145,113.533117 59.4845,113.529117 59.4555,113.484117" id="Fill-3302" fill="#FFD9F4"/>
            <path d="M64.503,85.4725 C64.528,85.4945 64.526,85.5105 64.497,85.5275 C64.472,85.5045 64.474,85.4885 64.503,85.4725" id="Fill-3304" fill="#FFD9F4"/>
            <path d="M48.5076287,90.4725303 C48.5206287,90.5385303 48.5156287,90.5485303 48.4856287,90.4835303 L48.5076287,90.4725303 Z" id="Fill-3306" fill="#FFD9F4"/>
            <path d="M49.5066806,107.485932 C49.5086806,107.487932 49.5066806,107.485932 49.5066806,107.485932 C49.4876806,107.521932 49.4876806,107.524932 49.5066806,107.485932" id="Fill-3308" fill="#FFD9F4"/>
            <path d="M26.5142525,74.5068693 C26.5132525,74.5088693 26.5142525,74.5068693 26.5142525,74.5068693 C26.4772525,74.4878693 26.4752525,74.4868693 26.5142525,74.5068693" id="Fill-3310" fill="#FFD9F4"/>
            <path d="M26.4855619,74.4925694 C26.4865619,74.4905694 26.4855619,74.4925694 26.4855619,74.4925694 C26.5235619,74.5135694 26.5245619,74.5135694 26.4855619,74.4925694" id="Fill-3312" fill="#FFD9F4"/>
            <path d="M20.4857475,99.4929444 C20.4867475,99.4909444 20.4857475,99.4929444 20.4857475,99.4929444 C20.5227475,99.5129444 20.5247475,99.5129444 20.4857475,99.4929444" id="Fill-3314" fill="#FFD9F4"/>
            <path d="M20.5136881,99.5074306 C20.5126881,99.5094306 20.5136881,99.5074306 20.5136881,99.5074306 C20.4776881,99.4864306 20.4766881,99.4864306 20.5136881,99.5074306" id="Fill-3316" fill="#FFD9F4"/>
            <path d="M46.5110916,114.516912 C46.4730916,114.473912 46.4750916,114.471912 46.5160916,114.510912 L46.5110916,114.516912 Z" id="Fill-3318" fill="#FFD9F4"/>
            <path d="M58.513808,98.50825 C58.515808,98.50625 58.513808,98.50825 58.513808,98.50825 C58.474808,98.48625 58.476808,98.48625 58.513808,98.50825" id="Fill-3320" fill="#FFD9F4"/>
            <path d="M52.5195,117.519569 C52.5065,117.505569 52.4935,117.493569 52.4805,117.480569 C52.5045,117.478569 52.5155,117.498569 52.5195,117.519569" id="Fill-3322" fill="#FFD9F4"/>
            <path d="M36.3815065,108.449524 C36.4675065,108.477524 36.5795065,108.399524 36.6445065,108.515524 C36.5445065,108.529524 36.2705065,108.616524 36.3815065,108.449524" id="Fill-3324" fill="#FFD9F4"/>
            <path d="M65.5489507,130.567 C65.3539507,130.541 65.4099507,130.45 65.5309507,130.433 C65.6149507,130.44 65.5669507,130.54 65.5489507,130.567" id="Fill-3326" fill="#FFD9F4"/>
            <path d="M50.1260644,93 C49.8616006,92.1905357 48.7123986,92.462745 49.0674725,91.540099 C49.7488904,89.8860698 52.3316484,92.5136051 50.1260644,93" id="Fill-3328" fill="#FFD9F4"/>
            <path d="M51.4395,93.4822382 C51.5395,93.3992382 51.5355,93.5012382 51.5605,93.5492382 C51.5205,93.5272382 51.4795,93.5042382 51.4395,93.4822382" id="Fill-3330" fill="#FFD9F4"/>
            <path d="M51.462,93.4801882 C51.487,93.4891882 51.513,93.4901882 51.538,93.4821882 C51.512,93.5161882 51.485,93.5471882 51.462,93.4801882" id="Fill-3332" fill="#FFD9F4"/>
            <path d="M64.439,107.464449 C64.48,107.475449 64.52,107.485449 64.561,107.495449 C64.491,107.589449 64.473,107.492449 64.439,107.464449" id="Fill-3334" fill="#FFD9F4"/>
            <path d="M70.4792237,112.578032 C70.3382237,112.522032 70.3932237,112.405032 70.5182237,112.424032 C70.6852237,112.451032 70.5732237,112.504032 70.4792237,112.578032" id="Fill-3336" fill="#FFD9F4"/>
            <path d="M65.3900934,99.4201634 C65.4690934,99.4331634 65.5700934,99.3951634 65.6110934,99.4981634 C65.5640934,99.6531634 65.3720934,99.5651634 65.3900934,99.4201634" id="Fill-3338" fill="#FFD9F4"/>
            <path d="M13.3215,98.3148162 C13.5385,98.3388162 13.6525,98.4648162 13.6785,98.6768162 C13.3785,98.7358162 13.4065,98.4688162 13.3215,98.3148162" id="Fill-3340" fill="#FFD9F4"/>
            <path d="M35.5056113,107.474846 C35.4846113,107.485846 35.4946113,107.479846 35.5056113,107.474846 C35.5096113,107.528846 35.5006113,107.553846 35.5056113,107.474846" id="Fill-3342" fill="#FFD9F4"/>
            <path d="M54.4961526,81.479061 C54.5341526,81.528061 54.5281526,81.534061 54.4791526,81.497061 L54.4961526,81.479061 Z" id="Fill-3344" fill="#FFD9F4"/>
            <path d="M59.5321823,112.543232 C59.4371823,112.669232 59.4501823,112.327232 59.5301823,112.459232 C59.5391823,112.484232 59.5311823,112.515232 59.5321823,112.543232" id="Fill-3346" fill="#FFD9F4"/>
            <path d="M42.5445,114.5445 C42.5145,114.5155 42.4845,114.4845 42.4555,114.4555 C42.4845,114.4845 42.5145,114.5155 42.5445,114.5445" id="Fill-3348" fill="#FFD9F4"/>
            <path d="M36.4420336,103.63316 C37.9401983,102.53229 35.3681909,101.54416 35.0908407,100.434172 C34.473717,98.7099182 37.1895356,98.4131476 37.5609161,100.245996 C39.9235282,102.319245 37.5522242,103.056198 38.3408151,104.59642 C42.8329388,105.393888 36.822106,110.109058 36.4420336,103.63316" id="Fill-3350" fill="#FFF"/>
            <path d="M54.6010322,96 C58.8113077,98.372176 52.2397694,98.5423438 51.5722653,103 C47.4251439,101.012551 52.5643115,96.8952305 54.6010322,96" id="Fill-3352" fill="#FFF"/>
            <path d="M43.1721777,97.7874406 C44.8857649,95.844618 50.49795,97.7649179 48.6206741,100.63019 C47.7910061,101.740654 46.5956106,100.086708 46.5011388,99.1299858 C45.5470674,99.9584273 42.2106233,100.827997 43.1721777,97.7874406" id="Fill-3354" fill="#FFF"/>
            <path d="M51.1432206,105.374437 C50.2695419,107.695294 46.3996786,107.753146 48.7431051,104.090107 C49.576768,103.473012 50.4396091,104.891367 50.828096,104.757342 C51.5116996,100.726938 55.1598085,104.813266 51.1432206,105.374437" id="Fill-3356" fill="#FFF"/>
            <path d="M36,97.5154442 C36.7568635,95.0265224 39.0218127,96.2056628 41,96.8487537 C40.4208349,98.4408882 36.0977811,100.418203 36,97.5154442" id="Fill-3358" fill="#FFF"/>
            <path d="M59.911065,88.8270244 C56.7508019,90.1190339 57.9817087,83.6988451 60.2069638,85.2407015 C61.5677775,85.9221903 60.982395,88.0920664 59.911065,88.8270244" id="Fill-3360" fill="#FFF"/>
            <path d="M44,101.033346 C42.894304,101.08688 41.8642609,102.572657 40.3929093,101.754821 C38.5219553,99.0534082 43.9369559,97.5445704 44,101.033346" id="Fill-3362" fill="#FFF"/>
            <path d="M53.7976928,89.7491844 C51.9895021,88.971638 53.5980712,86.1411035 55.2314894,87.2572187 C57.0587311,88.0140194 55.2389442,90.8503627 53.7976928,89.7491844" id="Fill-3364" fill="#FFF"/>
            <path d="M43,109.076985 C42.6288926,109.658149 42.6981903,110.324472 42.0562747,110.810768 C38.2439893,112.188232 40.4305141,105.471971 43,109.076985" id="Fill-3366" fill="#FFF"/>
            <path d="M52.805981,81.651577 C53.6197971,83.0353488 51.686885,84.845401 50.4618109,83.5616411 C48.8903312,82.378713 51.7477828,79.7939781 52.805981,81.651577" id="Fill-3368" fill="#FFF"/>
            <path d="M34.9404059,127.158287 C35.518391,129.508504 31.6928982,129.663904 32.0523098,127.30951 C31.5429147,125.483977 34.9212007,125.693684 34.9404059,127.158287" id="Fill-3370" fill="#FFF"/>
            <path d="M47.2268805,70.2662736 C49.2194483,69.428582 50.4205532,70.7039774 51,72.1937582 C49.2961962,73.6140623 46.1265072,73.2686634 47.2268805,70.2662736" id="Fill-3372" fill="#FFF"/>
            <path d="M48.9828332,83.0356271 C49.2705493,85.3722938 45.8441843,85.7805823 46.0055279,83.4089195 C46.4744574,81.8978032 48.4264761,81.352222 48.9828332,83.0356271" id="Fill-3374" fill="#FFF"/>
            <path d="M60.7560235,114.103591 C62.1573643,114.965981 63.0218588,117.888269 59.7004805,116.733804 C58.3039159,116.398686 59.1722313,113.411835 60.7560235,114.103591" id="Fill-3376" fill="#FFF"/>
            <path d="M64.9368982,86.1872139 C62.7377887,88.8971978 60.1651345,83.9348918 63.8750901,84.2587756 C64.6221794,83.3004239 65.1957323,85.2437264 64.9368982,86.1872139" id="Fill-3378" fill="#FFF"/>
            <path d="M41.4594915,92.001851 C44.0465884,91.9034145 43.008358,95.7677908 41.0336475,94.8624738 C39.1540924,94.1406065 40.1697116,92.8393065 41.4594915,92.001851" id="Fill-3380" fill="#FFF"/>
            <path d="M42.3322779,74 C40.8188861,73.7781675 40.3531604,70.6977613 42.2238687,71.0241978 C44.5819846,71.2316022 44.5655064,73.7132409 42.3322779,74" id="Fill-3382" fill="#FFF"/>
            <path d="M34.8206604,92.7313464 C35.8554902,95.4012238 32.0775682,95.9068632 32,93.2098373 C32.5632506,92.0008842 33.9841583,91.4545223 34.8206604,92.7313464" id="Fill-3384" fill="#FFF"/>
            <path d="M41.8852526,85.643473 C40.4763103,84.5928388 40.7137012,82.662722 42.8529378,83.0507789 C44.9713347,84.1615704 43.8650205,86.9915044 41.8852526,85.643473" id="Fill-3386" fill="#FFF"/>
            <path d="M27.0095248,102.936831 C26.813997,100.78945 29.6902027,100.30636 30,102.102824 C29.8806519,103.876019 27.3980411,104.891533 27.0095248,102.936831" id="Fill-3388" fill="#FFF"/>
            <path d="M60.6656224,82.8079561 C59.7950482,81.7956264 59.4732056,79.9233518 61.6361477,80.0024272 C63.9400209,80.27672 63.1294173,83.8573524 60.6656224,82.8079561" id="Fill-3390" fill="#FFF"/>
            <path d="M19.2660465,110.987 C17.568138,110.908988 17.642267,108.483108 19.1045511,108 C21.1439828,108.123127 22.0114694,111.224794 19.2660465,110.987" id="Fill-3392" fill="#FFF"/>
            <path d="M47.9991303,93.3815425 C47.4360635,95.0875115 44.7752817,95.3729034 45.0152647,94.5741707 C44.8544994,92.4159514 48.0604852,90.676246 47.9991303,93.3815425" id="Fill-3394" fill="#FFF"/>
            <path d="M41.8961887,78.744739 C42.5050606,80.5825776 40.2900735,81.7581402 39.0378482,80.4326797 C38.6730695,79.0081959 41.044131,76.8469413 41.8961887,78.744739" id="Fill-3396" fill="#FFF"/>
            <path d="M29.1502009,97.127704 C29.9660414,95.0792649 32.6135819,96.111507 31.8696694,97.9192679 C31.2843924,99.8482592 28.3038155,98.9532928 29.1502009,97.127704" id="Fill-3398" fill="#FFF"/>
            <path d="M50.7120303,88 C48.0382913,87.8322415 48.7273785,83.7252661 51.1865333,85.4010754 C52.5677301,86.1324668 52.0428552,87.7390424 50.7120303,88" id="Fill-3400" fill="#FFF"/>
            <path d="M56.7147344,77.6808571 C57.4282572,78.5121482 56.6935106,79.4499013 55.7192387,79.9999551 C52.4457254,80.0168116 54.4559193,75.2757023 56.7147344,77.6808571" id="Fill-3402" fill="#FFF"/>
            <path d="M47,89.3816124 C47.5535016,87.1453414 48.9852469,88.1699112 49.9738711,88.7044244 C50.289015,91.2870435 47.6622822,91.9332152 47,89.3816124" id="Fill-3404" fill="#FFF"/>
            <path d="M64,107.300592 C63.9680937,109.077159 61.8294358,109.702579 61.0421018,107.993726 C60.608552,105.900217 63.6584153,105.125261 64,107.300592" id="Fill-3406" fill="#FFF"/>
            <path d="M31.9073763,100.29176 C34.3398035,98.9757818 34.6856803,102.510448 32.7664234,102.990259 C30.7537695,103.150488 30.4520253,101.29516 31.9073763,100.29176" id="Fill-3408" fill="#FFF"/>
            <path d="M43.7751271,105.711104 C41.7363803,104.558273 44.1934549,101.892527 45.7119366,103.504417 C46.7159232,104.615773 44.8579709,106.780984 43.7751271,105.711104" id="Fill-3410" fill="#FFF"/>
            <path d="M52.3540242,115 C47.4210602,110.260808 57.9920898,112.01899 52.2267396,114.272186 C51.75423,114.316729 52.6827664,114.693243 52.3540242,115" id="Fill-3412" fill="#FFF"/>
            <path d="M67.3384806,96.2350682 C69.1417719,98.2179345 66.8822143,100.092469 65.0482413,98.2411485 C64.7038146,97.1858768 66.2804574,95.347131 67.3384806,96.2350682" id="Fill-3414" fill="#FFF"/>
            <path d="M48.0031454,117.290405 C47.8598349,114.971982 52.6726781,116.178852 50.3797107,117.779173 C49.8651863,118.179074 47.9563704,118.047207 48.0031454,117.290405" id="Fill-3416" fill="#FFF"/>
            <path d="M68.2546661,100.277132 C69.3887923,99.1382133 70.7410197,101.814921 69.5154317,102.791705 C68.4460323,103.658079 67.5405606,101.626924 68.2546661,100.277132" id="Fill-3418" fill="#FFF"/>
            <path d="M54,77.6233203 C53.0533773,79.7283082 50.5630456,79.4006683 51.0664894,76.7686932 C52.516556,75.4640546 53.422384,75.8666965 54,77.6233203" id="Fill-3420" fill="#FFF"/>
            <path d="M37,93.2683522 C36.9191477,95.1581192 35.5291908,95.7326637 35.0201727,93.8152079 C34.7712882,92.076741 36.9057895,91.0463186 37,93.2683522" id="Fill-3422" fill="#FFF"/>
            <path d="M63,97.4932214 C62.758253,100.429531 58.7644741,98.5148547 60.3863585,96.4827258 C61.4326077,95.2707385 62.4521062,96.6184035 63,97.4932214" id="Fill-3424" fill="#FFF"/>
            <path d="M43.2060628,89.8472542 C44.3508329,88.3776959 45.4272584,88.8381445 44.8292442,91.0861035 C44.4839622,93.0868741 42.3353827,91.4021167 43.2060628,89.8472542" id="Fill-3426" fill="#FFF"/>
            <path d="M57,94.7707873 C58.0646774,93.4109047 60.054877,94.0720423 59.9988414,95.0528426 C58.7352374,96.3969302 57.9236543,96.3172026 57,94.7707873" id="Fill-3428" fill="#FFF"/>
            <path d="M83,114.924891 C82.8286271,116.247166 80.2580331,116.395962 80,115.113098 C80.429406,113.802083 82.5988315,113.537467 83,114.924891" id="Fill-3430" fill="#FFF"/>
            <path d="M45.8760022,110 C44.4867457,109.171373 44.8344505,107.532619 46.3237209,107 C47.1199259,108.485881 47.479351,109.497566 45.8760022,110" id="Fill-3432" fill="#FFF"/>
            <path d="M46.8879914,113.338483 C46.4525079,114.352208 45.3168498,114.116156 45.0070576,113.203268 C44.8436589,111.52875 47.5785544,111.62806 46.8879914,113.338483" id="Fill-3434" fill="#FFF"/>
            <path d="M23.9120981,116.977725 C22.4027005,117.091316 22.9376098,114.542945 24.2745048,115.072518 C25.4275484,115.198644 25.1317216,117.233894 23.9120981,116.977725" id="Fill-3436" fill="#FFF"/>
            <path d="M78,106.668544 C78.2456644,105.31554 78.9819242,102.630944 79.8677827,104.844487 C80.5153101,106.025179 78.6057277,107.723826 78,106.668544" id="Fill-3438" fill="#FFF"/>
            <path d="M51,72.4342568 C52.5107297,71.5733326 53.6143471,71.9808269 52.6200403,73.7612063 C51.6495577,74.6243532 51.3426469,72.9054683 51,72.4342568" id="Fill-3440" fill="#FFF"/>
            <path d="M56.7483813,81.4485466 C57.2657983,82.5629533 57.0022367,83.3048734 55.79941,82.8774298 C54.0358615,82.4370101 55.5724334,80.0150837 56.7483813,81.4485466" id="Fill-3442" fill="#FFF"/>
            <path d="M64.7118816,71.9996898 C64.0135548,71.4182374 63.5812982,70.5342351 64.6188861,70.0000779 C66.2764436,69.9854721 66.6010665,72.0289015 64.7118816,71.9996898" id="Fill-3444" fill="#FFF"/>
            <path d="M57.4917615,99.9021163 C56.114361,100.388658 55.8416164,98.9463577 56.0741332,98.1060986 C57.0042003,97.5488134 58.9109989,99.3412217 57.4917615,99.9021163" id="Fill-3446" fill="#FFF"/>
            <path d="M28.9786054,69.8439398 C29.2325567,71.5238845 27.144776,71.2403151 27,69.8439398 C27.2626537,68.6422869 28.5197525,68.7977688 28.9786054,69.8439398" id="Fill-3448" fill="#FFF"/>
            <path d="M49.117686,121.011523 C49.7740963,121.101911 50.2408938,121.72027 49.8669989,122.469566 C48.7993804,124.303525 46.6999337,120.774147 49.117686,121.011523" id="Fill-3450" fill="#FFF"/>
            <path d="M54.2727058,101.99412 C53.1866969,102.080799 53.2317041,101.192966 53,100.399387 C54.2243647,99.0739491 56.0204885,101.424392 54.2727058,101.99412" id="Fill-3452" fill="#FFF"/>
            <path d="M43.1022289,121.802998 C43.4968257,119.769148 46.3363939,122.139273 44.2296483,122.987108 C43.5971469,123.097612 42.6942559,122.480312 43.1022289,121.802998" id="Fill-3454" fill="#FFF"/>
            <path d="M28.9807821,69 C28.6363558,68.5874809 27.3765833,67.7551001 27.1992936,68.9425944 C26.2050652,68.1329089 29.2689755,67.2791678 28.9807821,69" id="Fill-3456" fill="#FFF"/>
            <path d="M50.0753224,99 C50.5535999,99.1513711 50.6553207,99.0776065 50.9762784,99.5117419 C51.2087832,100.300869 49.6450623,100.135668 50.0753224,99" id="Fill-3458" fill="#FFF"/>
            <path d="M76.0288636,93.0782575 C75.911123,92.2884657 76.1443966,91.1500515 76.8986725,91 C77.3166517,91.6172775 76.3254228,95.8250077 76.0288636,93.0782575" id="Fill-3460" fill="#FFF"/>
            <path d="M51.0080384,90.5912746 C51.34019,88.2954998 54.5044176,88.5667787 53.9306213,90.8713328 C53.648556,92.5209545 50.8305393,92.3067407 51.0080384,90.5912746" id="Fill-3462" fill="#FFF"/>
            <path d="M73.6303773,87.2852999 C74.6215187,88.3711284 73.4618738,90.0345608 72.0125543,89.9994532 C69.6393055,89.3131829 71.9633286,86.0239333 73.6303773,87.2852999" id="Fill-3464" fill="#FFF"/>
            <path d="M64.0935955,91.7765917 C65.3216401,89.9892425 68.091754,91.6103862 66.5397301,93.3849503 C65.5433578,94.9702958 63.5451835,93.1480008 64.0935955,91.7765917" id="Fill-3466" fill="#FFF"/>
            <path d="M67.0075863,89.1385732 C66.900492,88.2477885 67.9496371,87.3544168 68.7409977,87 C71.7803911,87.7881677 68.5580845,91.707448 67.0075863,89.1385732" id="Fill-3468" fill="#FFF"/>
            <path d="M57,71.719754 C57.0713939,70.9070614 56.9102274,70.2654619 57.7669547,70.1009492 C60.6283671,69.1229213 57.7089913,75.6713486 57,71.719754" id="Fill-3470" fill="#FFF"/>
            <path d="M62.8533023,75.2417743 C61.7668669,77.4917317 59.8764413,74.0617434 61.8836202,73.6069648 C62.4317318,71.9378474 63.3608648,74.1215827 62.8533023,75.2417743" id="Fill-3472" fill="#FFF"/>
            <path d="M65,82.6980819 C65.7818405,77.8594611 70.8791945,85.0172236 65.7182262,83.8743475 C65.3765557,84.0966264 65.0697705,83.0100355 65,82.6980819" id="Fill-3474" fill="#FFF"/>
            <path d="M69.4327245,91.0715499 C72.2138103,90.3608153 70.8599233,95.2154768 68.7262659,93.70795 C67.2552705,93.2391891 68.2911559,91.2284784 69.4327245,91.0715499" id="Fill-3476" fill="#FFF"/>
            <path d="M67.9922043,85.7538507 C68.209624,87.8042182 63.7945437,87.062298 65.3219623,85.4154165 C66.3853088,84.887591 67.6742966,84.7278435 67.9922043,85.7538507" id="Fill-3478" fill="#FFF"/>
            <path d="M76.9030673,83.021001 C76.778805,84.6090862 74.8726956,84.1147406 75.0067483,82.6131659 C75.1957778,80.1991118 77.494255,80.6254848 76.9030673,83.021001" id="Fill-3480" fill="#FFF"/>
            <path d="M67.8598038,78.6855354 C68.5608026,79.9855293 66.4216794,80.5600771 66.097233,79.287004 C65.5296254,78.0203069 67.6222007,77.4542605 67.8598038,78.6855354" id="Fill-3482" fill="#FFF"/>
            <path d="M75.0180366,77.6890446 C75.3022068,76.4404527 77.2683769,77.0600164 76.9690989,78.1884813 C76.6352889,79.6685906 74.7993334,78.89541 75.0180366,77.6890446" id="Fill-3484" fill="#FFF"/>
            <path d="M48.143525,93.3890259 C50.0058165,91.7955392 50.842629,95.6621199 48.8566662,94.899103 C47.9187502,94.7127006 47.8736146,93.950409 48.143525,93.3890259" id="Fill-3486" fill="#FFF"/>
            <path d="M69.1917042,95.2643851 C70.5279753,94.8335012 72.5092432,94.7451148 71.8796724,96.4528671 C70.8181756,97.6113608 68.2873591,96.7953645 69.1917042,95.2643851" id="Fill-3488" fill="#FFF"/>
            <path d="M73.924925,93.5360359 C73.0723933,94.7272367 71.6831385,93.4294976 72.0649938,91.847656 C72.8165578,89.8183531 74.3568846,91.8567878 73.924925,93.5360359" id="Fill-3490" fill="#FFF"/>
            <path d="M74.4684888,87.3224435 C76.6149072,86.1907334 78.0618734,88.3528805 76.0115786,88.9761001 C74.830486,89.1623578 73.1810468,88.2268202 74.4684888,87.3224435" id="Fill-3492" fill="#FFF"/>
            <path d="M75.4837933,95.5174546 C75.4957933,95.5064546 75.5307933,95.4554546 75.5107933,95.5014546 C75.5047933,95.5104546 75.4787933,95.5094546 75.4837933,95.5174546" id="Fill-3494" fill="#FFD9F4"/>
            <path d="M71.539,71.5285253 C71.51,71.5345253 71.483,71.5275253 71.461,71.5085253 C71.509,71.4275253 71.52,71.4915253 71.539,71.5285253" id="Fill-3496" fill="#FFD9F4"/>
            <path d="M69.464719,76.552 C69.388719,76.42 69.509719,76.466 69.559719,76.448 C69.526719,76.483 69.495719,76.517 69.464719,76.552" id="Fill-3498" fill="#FFD9F4"/>
            <path d="M70.8185,91.3938443 C70.8135,91.7508443 70.3865,91.5548443 70.1815,91.5568443 C70.2875,91.3858443 70.2875,91.3858443 70.8185,91.3938443" id="Fill-3500" fill="#FFD9F4"/>
            <path d="M69.5636021,91.6139706 C69.4356021,91.5909706 69.4046021,91.5019706 69.4096021,91.3869706 C69.5876021,91.3759706 69.6246021,91.4619706 69.5636021,91.6139706" id="Fill-3502" fill="#FFD9F4"/>
            <path d="M58.5176939,91.493084 C58.5036939,91.472084 58.5106939,91.483084 58.5176939,91.493084 C58.5106939,91.560084 58.4416939,91.473084 58.5176939,91.493084" id="Fill-3504" fill="#FFD9F4"/>
            <path d="M68.5059276,91.5173916 C68.5239276,91.5003916 68.5149276,91.5093916 68.5059276,91.5173916 C68.4539276,91.5073916 68.5099276,91.4443916 68.5059276,91.5173916" id="Fill-3506" fill="#FFD9F4"/>
            <path d="M70.4811418,93.4846709 C70.4921418,93.4956709 70.5471418,93.5316709 70.5001418,93.5116709 C70.4911418,93.5056709 70.4911418,93.4736709 70.4811418,93.4846709" id="Fill-3508" fill="#FFD9F4"/>
            <path d="M154.052201,50.9513193 C147.714822,50.3724085 137.373735,53.1458773 134.780573,54.6731412 C131.534299,57.807214 123.255117,62.1150173 131.644758,55.612656 C133.856573,54.3319816 135.004998,49.6025898 137.389515,49.4240554 C134.674497,57.0108802 142.3181,45.7994552 145.315402,46.0027369 C145.64678,47.2109369 142.526745,49.0378203 142.524992,49.5159741 C143.805793,51.4480336 155.425928,43.1417686 150.841871,49.1182491 C152.267321,50.3671055 157.207303,47.0332865 156.924141,49.0970371 C156.216676,50.868239 158.785292,50.9389457 154.052201,50.9513193" id="Fill-3510" fill="#FEF"/>
        </g>
    </g>
</svg>
