<svg viewBox="57.588 69.854 135.5 186.503" xmlns="http://www.w3.org/2000/svg" overflow="visible">
    <g id="Master/Male Character/Sitting Wheelchair" stroke="none" stroke-width="1" fill="none" fill-rule="evenodd">
        <g id="Head" transform="translate(110.000000, 70.000000) scale(1 1)">
            <g id="Head/Fade 1" stroke="none" stroke-width="1" fill="none" fill-rule="evenodd">
                <g id="Head">
                    <path d="M6.6001,24.8188 C6.6001,24.8188 7.8921,34.5038 1.2301,37.9608 C1.2301,37.9608 0.7761,47.3828 13.9101,47.3828 C27.0441,47.3828 20.3481,38.6928 20.3481,38.6928 C20.3481,38.6928 15.9071,35.2788 17.0411,31.0768 C18.1751,26.8758 13.9231,16.4158 6.6001,24.8188" id="Fill-22" fill="#db8c5c"/>
                    <path d="M2.581,16.4257 C2.074,16.1337 1.629,16.1337 1.12,16.3307 C-0.581,16.9927 0.316,19.1187 1.214,20.4417 C2.112,21.7637 2.395,24.5047 5.183,23.8897 C5.183,23.8897 5.324,25.7327 6.553,27.0557 C7.781,28.3787 13.309,32.2527 14.868,32.5827 C16.427,32.9137 18.505,33.4337 20.064,32.6307 C20.064,32.6307 20.962,31.6857 21.529,29.7007 C22.096,27.7167 22.521,27.3387 22.71,25.5437 C22.899,23.7487 23.891,19.7327 23.419,17.8897 C22.946,16.0477 25.958,2.0117 12.281,2.3867 C-1.796,2.7727 2.66,16.4707 2.581,16.4257" id="Fill-24" fill="#db8c5c"/>
                    <path d="M2.1992,19.0522 C2.1992,19.0522 2.0262,18.8522 2.0322,19.1722 C2.0392,19.4922 1.9592,19.6662 1.8662,19.6392 C1.7722,19.6132 1.3322,18.8452 1.9922,18.4852 C2.6532,18.1252 3.0132,18.8392 3.4872,19.7262 C3.9602,20.6132 3.7802,21.8732 3.3202,21.9202 C2.8602,21.9672 2.9932,21.6472 3.0392,21.0072 C3.0862,20.3662 2.4392,19.1852 2.1992,19.0522" id="Fill-28" fill="#000"/>
                    <path d="M10.8237,14.6127 C10.8237,14.6127 11.1247,14.4357 11.8517,14.4177 C12.5777,14.3997 15.5367,14.6477 15.5897,14.5417 C15.6427,14.4357 15.5367,13.8507 15.5367,13.8507 C15.5367,13.8507 15.0407,13.7797 15.0577,13.7087 C15.0757,13.6377 15.6427,13.3367 15.6427,13.2657 C15.6427,13.1957 11.8157,12.2567 10.8237,14.6127" id="Fill-42" fill="#000"/>
                    <path d="M23.4028,14.3647 C23.4028,14.3647 22.0388,14.2937 21.4188,14.4887 C20.7988,14.6837 20.4968,14.7367 20.4438,14.6477 C20.3908,14.5597 20.6388,14.2407 20.9048,14.0987 C21.1708,13.9567 20.6388,13.7447 21.2058,13.4967 C21.7728,13.2487 23.1728,13.3547 23.3668,13.7617 L23.4028,14.3647 Z" id="Fill-44" fill="#000"/>
                    <path d="M11.5502,18.1025 C11.5502,18.1025 13.0562,18.0315 13.8712,18.2265 C14.6862,18.4215 15.7312,18.2085 15.7312,18.2085 C15.7312,18.2085 14.9512,17.1635 13.9422,17.1635 C12.9322,17.1635 11.9402,17.5715 11.5502,18.1025" id="Fill-46" fill="#000"/>
                    <path d="M20.4262,18.3862 C20.4262,18.3862 22.1452,17.9072 22.9772,18.0322 C22.9772,18.0322 23.1722,17.7662 23.0842,17.5892 C22.9952,17.4112 22.3572,17.0042 21.6842,17.1992 C21.0102,17.3942 20.5862,17.9432 20.4262,18.3862" id="Fill-48" fill="#000"/>
                    <path d="M17.6626,23.7187 C17.6626,23.7187 18.1936,23.7547 18.5126,23.5947 C18.8316,23.4357 20.2316,23.3647 20.2316,23.3647 C20.2316,23.3647 19.3456,24.1087 18.9206,24.1267 C18.4956,24.1437 17.5736,23.9487 17.6626,23.7187" id="Fill-50" fill="#000"/>
                    <path d="M15.1821,26.2524 C15.1821,26.2524 17.5741,27.4574 20.0901,26.3764 C20.0901,26.3764 20.4791,26.1814 20.4791,26.5004 C20.4791,26.8194 19.4161,27.3684 17.7691,27.3864 C16.1211,27.4034 14.9341,26.9254 14.6861,26.5004 C14.4381,26.0754 15.1821,26.2524 15.1821,26.2524" id="Fill-52" fill="#000"/>
                    <path d="M9.30462005,7.35501875 C9.88943966,11.1334518 9.46070215,13.0226684 8.01840751,13.0226684 C6.57611288,13.0226684 5.94403711,15.3130776 6.12218022,19.8938959 C5.16431194,19.8358671 4.6853778,19.604134 4.6853778,19.1986966 C4.6853778,18.5905404 4.35721516,16.9023127 2.88498772,16.5874182 C1.41276027,16.2725237 1.92791277,7.01983024 3.09982025,7.01983024 C4.27172774,7.01983024 7.29888898,6.66907995 9.30462005,7.35501875 Z" id="Path-10" fill="#625252" opacity=".35"/>
                    <path d="M9.30462005,7.35501875 C9.71482911,4.74865112 14.4995136,6.86179832 18.1264656,6.94331672 C20.4555017,6.9956635 20.728498,4.67632199 22.30422,7.79408566 C22.30422,7.79408566 23.1641288,6.73141514 22.8153301,3.96064543 C22.5275302,1.67443508 19.6588385,0 15.7312,0 C14.303999,0.044637709 9.30462005,0.650957645 10.1398132,0.827098941 C12.4911028,1.32298324 8.21912551,2.51126461 5.84542209,2.8874108 C2.92875621,3.34959691 2,6.94331672 2.70042913,7.35501875 C2.70042913,7.35501875 4.01886162,6.95055992 5.48515277,6.94331672 C7.28627986,6.93441949 9.30462005,7.32469029 9.30462005,7.35501875 Z" id="Fill-26" fill="#110b05"/>
                </g>
            </g>
        </g>
        <g id="Facial Hair" transform="translate(115.000000, 90.000000) scale(1 1)" fill="#000">
            <g id="Facial Hair/None" stroke="none" stroke-width="1" fill="none" fill-rule="evenodd" fill-opacity="0"/>
        </g>
        <g id="Sitting Wheelchair" transform="translate(51.000000, 109.000000) scale(1 1)">
            <g id="Sitting Wheelchair/Jeans 1" stroke="none" stroke-width="1" fill="none" fill-rule="evenodd">
                <g id="Back-Wheelchair" transform="translate(36.000000, 6.000000)">
                    <g id="Group-3" transform="translate(81.295997, 125.116150) rotate(-7.000000) translate(-81.295997, -125.116150) translate(56.295997, 111.616150)" fill="#2E2E2E">
                        <path d="M34.2436,0.2624 L1.4916,11.5584 C1.4916,11.5584 0.1046,12.7464 1.4916,14.5314 C2.8786,16.3144 16.8496,26.2234 16.8496,26.2234 C16.8496,26.2234 17.8406,27.3134 20.2196,26.2234 C22.5976,25.1324 48.1616,14.8274 48.1616,14.8274 C48.1616,14.8274 49.5486,13.9364 49.2516,12.3514 C48.9536,10.7654 34.2436,0.2624 34.2436,0.2624" id="Fill-1"/>
                    </g>
                    <polygon id="Fill-4" fill="#A1A1A1" transform="translate(43.923700, 83.145545) rotate(-7.000000) translate(-43.923700, -83.145545)" points="80.1036996 78.9415451 79.9746996 77.9495451 46.0666996 82.3615451 75.3826996 63.5105451 74.8416996 62.6695451 45.7276996 81.3905451 65.8076996 51.9805451 64.9816996 51.4165451 44.8966996 80.8325451 52.0466996 45.1565451 51.0666996 44.9595451 43.9346996 80.5485451 37.0816996 44.8955451 36.0986996 45.0855451 42.9246996 80.5975451 24.1486996 50.4815451 23.3006996 51.0105451 42.2596996 81.4205451 13.4226996 61.9635451 12.8646996 62.7925451 41.0006996 81.7755451 8.94969958 72.4735451 8.66969958 73.4345451 41.4846996 82.9585451 7.74369958 87.3495451 7.87269958 88.3415451 41.7806996 83.9285451 12.4636996 102.780545 13.0046996 103.622545 42.1196996 84.9005451 22.0396996 114.310545 22.8656996 114.875545 42.9496996 85.4585451 35.7996996 121.134545 36.7806996 121.332545 43.9136996 85.7415451 50.7656996 121.395545 51.7486996 121.206545 44.9226996 85.6905451 63.6996996 115.809545 64.5466996 115.280545 45.5886996 84.8715451 74.4236996 104.327545 74.9826996 103.499545 46.8456996 84.5135451 78.8986996 93.8175451 79.1776996 92.8565451 46.3636996 83.3325451"/>
                    <path d="M44.6104734,40.9965802 C22.8494734,40.9965802 5.14547338,59.7955802 5.14547338,82.9035802 C5.14547338,106.01058 22.8494734,124.80958 44.6104734,124.80958 C66.3724734,124.80958 84.0764734,106.01058 84.0764734,82.9035802 C84.0764734,59.7955802 66.3724734,40.9965802 44.6104734,40.9965802 M44.6104734,43.4965802 C64.9934734,43.4965802 81.5764734,61.1745802 81.5764734,82.9035802 C81.5764734,104.63258 64.9934734,122.30958 44.6104734,122.30958 C24.2274734,122.30958 7.64547338,104.63258 7.64547338,82.9035802 C7.64547338,61.1745802 24.2274734,43.4965802 44.6104734,43.4965802" id="Fill-6" fill="#2E2E2E" transform="translate(44.610973, 82.903080) rotate(-7.000000) translate(-44.610973, -82.903080)"/>
                    <path d="M44.6104697,43.4965193 C24.1484697,43.4965193 7.50046965,61.1745193 7.50046965,82.9035193 C7.50046965,104.632519 24.1484697,122.309519 44.6104697,122.309519 C65.0734697,122.309519 81.7224697,104.632519 81.7224697,82.9035193 C81.7224697,61.1745193 65.0734697,43.4965193 44.6104697,43.4965193 M44.6104697,45.8475193 C63.7774697,45.8475193 79.3714697,62.4705193 79.3714697,82.9035193 C79.3714697,103.335519 63.7774697,119.958519 44.6104697,119.958519 C25.4434697,119.958519 9.85146965,103.335519 9.85146965,82.9035193 C9.85146965,62.4705193 25.4434697,45.8475193 44.6104697,45.8475193" id="Fill-8" fill="#A1A1A1" transform="translate(44.611470, 82.903019) rotate(-7.000000) translate(-44.611470, -82.903019)"/>
                    <polygon id="Fill-10" fill="#2E2E2E" transform="translate(61.713001, 62.408605) rotate(-7.000000) translate(-61.713001, -62.408605)" points="84.251501 80.4901046 39.174501 64.2301046 39.174501 44.3271046 84.251501 60.5881046"/>
                    <path d="M36.6279531,85.604 C35.7999531,85.604 35.1279531,84.932 35.1279531,84.104 L35.1279531,4 L28.0529531,4 C27.2249531,4 26.5529531,3.328 26.5529531,2.5 C26.5529531,1.671 27.2249531,1 28.0529531,1 L36.6279531,1 C37.4559531,1 38.1279531,1.671 38.1279531,2.5 L38.1279531,84.104 C38.1279531,84.932 37.4559531,85.604 36.6279531,85.604" id="Fill-12" fill="#A1A1A1" transform="translate(32.340453, 43.302000) rotate(-7.000000) translate(-32.340453, -43.302000)"/>
                    <path d="M24.6712793,5.07534889 L17.4942793,5.07534889 C16.6662793,5.07534889 15.9942793,4.40334889 15.9942793,3.57534889 C15.9942793,2.74634889 16.6662793,2.07534889 17.4942793,2.07534889 L24.6712793,2.07534889 C25.5002793,2.07534889 26.1712793,2.74634889 26.1712793,3.57534889 C26.1712793,4.40334889 25.5002793,5.07534889 24.6712793,5.07534889" id="Fill-14" fill="#2E2E2E" transform="translate(21.082779, 3.575349) rotate(-7.000000) translate(-21.082779, -3.575349)"/>
                    <path d="M85.6521587,117.975956 L85.6521587,117.975956 C84.8231587,117.975956 84.1521587,117.303956 84.1521587,116.475956 L84.1521587,58.6129557 C84.1521587,53.5669557 82.3061587,46.8329557 73.5141587,43.4159557 L40.1081587,32.4429557 L41.0441587,29.5929557 L74.5251587,40.5929557 C85.5211587,44.8649557 87.1521587,53.7149557 87.1521587,58.6129557 L87.1521587,116.475956 C87.1521587,117.303956 86.4801587,117.975956 85.6521587,117.975956" id="Fill-16" fill="#A1A1A1" transform="translate(63.630159, 73.784456) rotate(-7.000000) translate(-63.630159, -73.784456)"/>
                    <path d="M4.84738742,19.0897528 C4.84738742,19.0897528 2.94138742,19.1087528 3.00138742,20.6677528 C3.04238742,21.7217528 4.01738742,21.9087528 4.65338742,21.9217528 C4.54638742,23.5807528 4.43538742,25.5237528 4.43538742,26.4507528 C4.43538742,28.9077528 4.77838742,33.6627528 4.84738742,36.0687528 C4.87038742,36.8617528 4.86938742,38.4847528 4.86338742,39.8537528 C4.28638742,40.0087528 3.15238742,40.4367528 3.15238742,41.3987528 C3.15238742,42.6887528 4.84738742,42.1407528 4.84738742,42.1407528 L34.1553874,36.1917528 L34.1553874,13.1407528 L4.84738742,19.0897528 Z" id="Fill-18" fill="#2E2E2E" transform="translate(18.577694, 27.698567) rotate(-7.000000) translate(-18.577694, -27.698567)"/>
                </g>
                <g id="Lower" transform="translate(52.000000, 47.000000)">
                    <path d="M61.384973,70.8514213 C61.384973,70.8514213 61.420973,71.8434213 60.427973,73.8984213 C59.435973,75.9544213 59.081973,79.9934213 59.967973,80.7724213 C59.967973,80.7724213 59.683973,81.1624213 59.542973,81.2334213 C59.400973,81.3034213 59.471973,82.6854213 59.471973,82.6854213 C59.471973,82.6854213 63.829973,84.1384213 67.124973,83.2524213 C67.124973,83.2524213 67.372973,82.4374213 67.195973,81.7994213 C67.195973,81.7994213 69.676973,81.5874213 70.172973,81.8714213 C70.668973,82.1544213 70.809973,83.6424213 74.211973,83.7134213 C77.613973,83.7844213 86.613973,83.6074213 87.179973,81.0204213 L86.896973,80.8434213 C86.896973,80.8434213 86.861973,79.4254213 85.727973,79.0004213 C84.593973,78.5764213 75.274973,76.1304213 72.864973,70.8154213 C70.455973,65.5004213 61.774973,64.7914213 61.384973,70.8514213" id="Fill-21" fill="#7D6E4D"/>
                    <path d="M65.884973,80.5955213 C66.158973,79.8075213 66.514973,79.0525213 66.886973,78.3015213 C67.278973,77.5605213 67.797973,76.8975213 68.307973,76.2325213 C68.828973,75.5745213 69.408973,74.9525213 70.077973,74.4215213 C70.742973,73.8965213 71.511973,73.4335213 72.404973,73.2965213 C72.470973,73.2855213 72.537973,73.3055213 72.587973,73.3425213 C73.660973,74.1365213 74.722973,74.9395213 75.761973,75.7825213 C76.276973,76.2065213 76.802973,76.6305213 77.268973,77.1395213 C77.691973,77.5975213 78.234973,77.9975213 78.781973,78.1945213 L78.794973,78.1985213 C78.924973,78.2445213 78.992973,78.3885213 78.946973,78.5195213 C78.938973,78.5395213 78.927973,78.5605213 78.915973,78.5775213 C78.714973,78.8665213 78.517973,79.1695213 78.328973,79.4715213 C78.160973,79.7865213 77.940973,80.0705213 77.743973,80.3695213 C77.546973,80.6675213 77.362973,80.9745213 77.197973,81.2905213 C77.037973,81.6095213 76.881973,81.9355213 76.833973,82.2955213 C76.802973,81.5545213 77.123973,80.8535213 77.396973,80.1815213 C77.546973,79.8465213 77.691973,79.5055213 77.904973,79.2075213 C78.097973,78.8975213 78.295973,78.5935213 78.507973,78.2895213 L78.641973,78.6735213 C77.932973,78.4195213 77.384973,77.9895213 76.902973,77.4795213 C76.469973,77.0055213 75.956973,76.5905213 75.446973,76.1695213 C74.418973,75.3365213 73.358973,74.5335213 72.292973,73.7455213 L72.474973,73.7915213 C71.715973,73.9075213 71.011973,74.3195213 70.388973,74.8135213 C69.761973,75.3105213 69.202973,75.9065213 68.697973,76.5445213 C68.178973,77.1745213 67.745973,77.8685213 67.274973,78.5405213 C66.781973,79.1995213 66.327973,79.8915213 65.884973,80.5955213" id="Fill-23" fill="#040302"/>
                    <path d="M59.980173,80.7508213 C60.503173,80.9738213 61.066173,81.0968213 61.625173,81.1948213 C62.184173,81.2968213 62.750173,81.3548213 63.316173,81.3868213 C63.883173,81.4218213 64.451173,81.3838213 65.017173,81.4258213 C65.584173,81.4758213 66.152173,81.4888213 66.734173,81.5978213 C66.748173,81.6008213 66.757173,81.6128213 66.755173,81.6278213 C66.753173,81.6378213 66.746173,81.6448213 66.737173,81.6468213 C66.173173,81.8248213 65.594173,81.8848213 65.013173,81.9258213 C64.431173,81.9488213 63.851173,81.8748213 63.276173,81.7848213 C62.129173,81.6188213 60.977173,81.3548213 59.956173,80.7938213 C59.943173,80.7878213 59.939173,80.7718213 59.946173,80.7608213 C59.952173,80.7488213 59.968173,80.7458213 59.980173,80.7508213" id="Fill-25" fill="#040302"/>
                    <path d="M68.682773,80.9959213 C69.454773,80.9469213 70.230773,80.9329213 71.005773,81.0479213 C71.780773,81.2199213 72.493773,81.4499213 73.258773,81.5829213 C74.765773,81.8789213 76.295773,82.0529213 77.826773,82.0909213 C79.359773,82.1249213 80.885773,81.9919213 82.395773,81.7899213 C83.911773,81.5999213 85.398773,81.2439213 86.887773,80.8199213 C86.900773,80.8159213 86.914773,80.8229213 86.918773,80.8369213 C86.922773,80.8489213 86.916773,80.8609213 86.905773,80.8659213 C85.515773,81.5589213 84.004773,82.0009213 82.471773,82.2839213 C80.932773,82.5579213 79.361773,82.5799213 77.810773,82.4899213 C76.257773,82.4009213 74.716773,82.1749213 73.204773,81.8269213 C72.452773,81.6639213 71.701773,81.3879213 70.978773,81.1949213 C70.230773,81.0509213 69.453773,81.0299213 68.685773,81.0459213 C68.671773,81.0459213 68.660773,81.0359213 68.6597097,81.0219213 C68.658773,81.0089213 68.669773,80.9969213 68.682773,80.9959213" id="Fill-27" fill="#040302"/>
                    <path d="M77.046073,77.6209213 C77.001073,77.6209213 76.955073,77.6079213 76.913073,77.5819213 C76.796073,77.5089213 76.761073,77.3539213 76.835073,77.2379213 C76.862073,77.1949213 77.502073,76.1939213 78.543073,75.9239213 C78.680073,75.8929213 78.813073,75.9699213 78.848073,76.1029213 C78.882073,76.2369213 78.802073,76.3729213 78.669073,76.4079213 C77.822073,76.6269213 77.263073,77.4959213 77.258073,77.5049213 C77.210073,77.5799213 77.129073,77.6209213 77.046073,77.6209213" id="Fill-29" fill="#040302"/>
                    <path d="M75.486973,76.3797213 C75.443973,76.3797213 75.400973,76.3687213 75.360973,76.3457213 C75.241973,76.2757213 75.201973,76.1237213 75.271973,76.0047213 C75.294973,75.9647213 75.854973,75.0297213 77.116973,75.0297213 C77.255973,75.0297213 77.366973,75.1427213 77.366973,75.2797213 C77.366973,75.4177213 77.255973,75.5297213 77.116973,75.5297213 C76.148973,75.5297213 75.719973,76.2287213 75.702973,76.2577213 C75.655973,76.3357213 75.571973,76.3797213 75.486973,76.3797213" id="Fill-31" fill="#040302"/>
                    <path d="M74.317573,75.4236213 C74.274573,75.4236213 74.230573,75.4116213 74.190573,75.3886213 C74.071573,75.3186213 74.032573,75.1646213 74.103573,75.0456213 C74.168573,74.9356213 74.763573,73.9676213 75.487573,73.9676213 C75.625573,73.9676213 75.737573,74.0796213 75.737573,74.2176213 C75.737573,74.3556213 75.625573,74.4676213 75.487573,74.4676213 C75.153573,74.4676213 74.724573,74.9796213 74.532573,75.3016213 C74.485573,75.3796213 74.402573,75.4236213 74.317573,75.4236213" id="Fill-33" fill="#040302"/>
                    <path d="M72.901073,74.5379213 C72.846073,74.5379213 72.791073,74.5199213 72.745073,74.4829213 C72.637073,74.3959213 72.620073,74.2389213 72.706073,74.1319213 C72.742073,74.0859213 73.608073,73.0119213 74.338073,72.7429213 C74.466073,72.6929213 74.611073,72.7609213 74.659073,72.8919213 C74.707073,73.0199213 74.640073,73.1639213 74.511073,73.2119213 C74.013073,73.3949213 73.321073,74.1639213 73.096073,74.4439213 C73.047073,74.5059213 72.974073,74.5379213 72.901073,74.5379213" id="Fill-35" fill="#040302"/>
                    <path d="M72.777973,72.1443213 C71.792973,72.7773213 70.695973,73.7313213 70.966973,74.3263213 C71.057973,74.5273213 71.144973,74.5153213 71.186973,74.5093213 C71.651973,74.4463213 72.436973,73.3263213 72.777973,72.1443213 M71.158973,75.0113213 C70.965973,75.0113213 70.692973,74.9303213 70.511973,74.5333213 C69.902973,73.1923213 72.705973,71.5903213 73.027973,71.4123213 C73.110973,71.3663213 73.214973,71.3713213 73.291973,71.4253213 C73.370973,71.4803213 73.410973,71.5753213 73.395973,71.6693213 C73.175973,73.0693213 72.144973,74.8833213 71.254973,75.0043213 C71.225973,75.0083213 71.193973,75.0113213 71.158973,75.0113213" id="Fill-37" fill="#040302"/>
                    <path d="M74.114973,71.5340213 C75.262973,72.1310213 76.290973,72.5100213 76.500973,72.3870213 C76.496973,72.3830213 76.498973,72.3520213 76.484973,72.2930213 C76.323973,71.6330213 75.072973,71.5180213 74.114973,71.5340213 M76.400973,72.8900213 C75.527973,72.8900213 73.884973,72.0010213 73.129973,71.5640213 C73.036973,71.5110213 72.988973,71.4040213 73.009973,71.2990213 C73.030973,71.1940213 73.115973,71.1140213 73.221973,71.0990213 C73.566973,71.0520213 76.609973,70.6870213 76.969973,72.1750213 C77.057973,72.5320213 76.903973,72.7100213 76.803973,72.7840213 C76.705973,72.8580213 76.566973,72.8900213 76.400973,72.8900213" id="Fill-39" fill="#040302"/>
                    <path d="M72.191573,78.3650213 C72.074573,78.3650213 71.970573,78.2830213 71.946573,78.1640213 C71.620573,76.5310213 72.752573,72.2440213 72.800573,72.0620213 C72.836573,71.9300213 72.971573,71.8500213 73.107573,71.8860213 C73.240573,71.9210213 73.319573,72.0570213 73.284573,72.1910213 C73.272573,72.2340213 72.133573,76.5470213 72.437573,78.0660213 C72.463573,78.2010213 72.376573,78.3330213 72.240573,78.3600213 C72.224573,78.3630213 72.208573,78.3650213 72.191573,78.3650213" id="Fill-41" fill="#040302"/>
                    <path d="M52.503073,75.2566213 C52.503073,75.2566213 49.527073,77.1466213 49.102073,79.6506213 C48.676073,82.1536213 48.768073,84.4296213 48.676073,86.1226213 C48.381073,91.5796213 47.354073,96.2916213 56.283073,95.8556213 C66.871073,95.3366213 59.826073,87.2096213 59.779073,86.5006213 C59.732073,85.7916213 58.503073,80.1696213 58.125073,78.4696213 C57.747073,76.7686213 54.251073,73.2256213 52.503073,75.2566213" id="Fill-43" fill="#7D6E4D"/>
                    <path d="M48.664773,92.4295213 C48.738773,91.6595213 48.950773,90.9095213 49.219773,90.1835213 C49.485773,89.4545213 49.849773,88.7625213 50.267773,88.1055213 C51.107773,86.7995213 52.275773,85.6695213 53.660773,84.9895213 C53.092773,85.5125213 52.518773,86.0005213 52.037773,86.5825213 C51.548773,87.1535213 51.083773,87.7415213 50.686773,88.3775213 C49.864773,89.6335213 49.212773,90.9945213 48.664773,92.4295213" id="Fill-45" fill="#040302"/>
                    <path d="M59.778973,86.5008213 C59.183973,86.1258213 58.609973,85.8298213 58.009973,85.5458213 C57.413973,85.2548213 56.801973,85.0068213 56.175973,84.6698213 C56.531973,84.6458213 56.881973,84.6848213 57.225973,84.7578213 C57.571973,84.8248213 57.903973,84.9468213 58.224973,85.0948213 C58.540973,85.2538213 58.848973,85.4338213 59.114973,85.6728213 C59.380973,85.9068213 59.632973,86.1708213 59.778973,86.5008213" id="Fill-47" fill="#040302"/>
                    <path d="M52.384973,84.4598213 C52.284973,84.4598213 52.189973,84.3988213 52.151973,84.2998213 C52.101973,84.1708213 52.165973,84.0258213 52.294973,83.9768213 C52.398973,83.9368213 54.875973,82.9968213 57.335973,83.6128213 C57.469973,83.6468213 57.550973,83.7818213 57.517973,83.9158213 C57.483973,84.0488213 57.347973,84.1358213 57.214973,84.0978213 C54.913973,83.5228213 52.499973,84.4348213 52.474973,84.4428213 C52.445973,84.4548213 52.414973,84.4598213 52.384973,84.4598213" id="Fill-49" fill="#040302"/>
                    <path d="M52.242873,82.9002213 C52.124873,82.9002213 52.020873,82.8172213 51.997873,82.6972213 C51.971873,82.5612213 52.060873,82.4302213 52.196873,82.4052213 C52.319873,82.3802213 55.226873,81.8362213 56.980873,82.0112213 C57.117873,82.0262213 57.218873,82.1482213 57.203873,82.2862213 C57.190873,82.4232213 57.066873,82.5162213 56.929873,82.5092213 C55.251873,82.3372213 52.319873,82.8912213 52.289873,82.8952213 C52.273873,82.8992213 52.258873,82.9002213 52.242873,82.9002213" id="Fill-51" fill="#040302"/>
                    <path d="M53.316573,84.3865213 C53.173573,84.1705213 53.137573,83.9555213 53.091573,83.7405213 C53.059573,83.5245213 53.114573,83.3085213 53.141573,83.0935213 C53.186573,82.6615213 53.244573,82.2315213 53.316573,81.7995213 L53.366573,81.7995213 C53.439573,82.2315213 53.497573,82.6615213 53.541573,83.0935213 C53.568573,83.3085213 53.624573,83.5245213 53.591573,83.7405213 C53.545573,83.9555213 53.509573,84.1705213 53.366573,84.3865213 L53.316573,84.3865213 Z" id="Fill-53" fill="#040302"/>
                    <path d="M56.187673,84.1453213 C55.992673,83.9803213 55.901673,83.7833213 55.804673,83.5873213 C55.719673,83.3893213 55.722673,83.1673213 55.700673,82.9543213 C55.651673,82.5273213 55.612673,82.0933213 55.655673,81.6593213 L55.705673,81.6573213 C55.805673,82.0693213 55.956673,82.4643213 56.090673,82.8643213 C56.164673,83.0623213 56.268673,83.2513213 56.288673,83.4623213 C56.296673,83.6773213 56.316673,83.8893213 56.235673,84.1313213 L56.187673,84.1453213 Z" id="Fill-55" fill="#040302"/>
                    <path d="M4.32217299,31.9558213 C13.023173,36.3588213 30.322173,36.4648213 41.226173,32.5848213 C41.226173,32.5848213 38.081173,47.5768213 41.645173,56.9078213 C45.209173,66.2388213 48.460173,80.6028213 48.355173,81.2308213 C48.355173,81.2308213 54.855173,84.1668213 58.839173,79.2388213 C58.839173,79.2388213 54.750173,62.0458213 56.113173,50.1978213 C57.476173,38.3518213 58.000173,26.1898213 58.000173,26.1898213 L62.299173,26.0848213 C62.299173,26.0848213 58.315173,43.4878213 59.783173,54.8118213 C61.250173,66.1348213 60.307173,71.7958213 60.307173,71.7958213 C60.307173,71.7958213 69.218173,74.8358213 72.993173,71.3768213 C72.993173,71.3768213 72.993173,41.3918213 78.025173,26.1898213 C83.057173,10.9878213 78.759173,10.7778213 74.880173,9.41482128 C71.000173,8.05282128 48.263173,3.42282128 38.035173,4.05982128 C27.806173,4.69682128 6.41817299,-3.72917872 2.74917299,3.08482128 C2.74917299,3.08482128 -4.37982701,27.5528213 4.32217299,31.9558213 Z" id="Fill-57" fill="#69313B"/>
                    <path d="M15.330273,9.52032128 C18.862273,9.30632128 22.401273,9.18732128 25.940273,9.15832128 C29.480273,9.11132128 33.022273,9.14732128 36.561273,9.29732128 C40.100273,9.44232128 43.643273,9.64632128 47.166273,10.1023213 C48.927273,10.3293213 50.685273,10.5993213 52.428273,10.9793213 C54.164273,11.3683213 55.912273,11.8333213 57.512273,12.7363213 L57.574273,12.7713213 L57.601273,12.8183213 C58.219273,13.8743213 58.496273,14.9763213 58.709273,16.1033213 C58.911273,17.2283213 58.980273,18.3683213 58.963273,19.5003213 C58.956273,20.6353213 58.826273,21.7613213 58.679273,22.8793213 L58.386273,24.5453213 L58.000273,26.1903213 L58.278273,24.5263213 L58.487273,22.8563213 C58.580273,21.7393213 58.655273,20.6203213 58.607273,19.5033213 C58.577273,18.3893213 58.485273,17.2753213 58.255273,16.1903213 C58.028273,15.1223213 57.689273,14.0163213 57.141273,13.1413213 L57.230273,13.2233213 C55.711273,12.4373213 53.996273,11.9963213 52.288273,11.6253213 C50.571273,11.2693213 48.828273,11.0183213 47.080273,10.8103213 C43.579273,10.4213213 40.058273,10.1553213 36.531273,9.98132128 C29.476273,9.66632128 22.406273,9.53332128 15.330273,9.52032128" id="Fill-59" fill="#150711"/>
                    <path d="M22.144673,33.2137213 C23.915673,32.2477213 25.712673,31.3447213 27.509673,30.4427213 L32.918673,27.7807213 L38.343673,25.1617213 C39.250673,24.7317213 40.147673,24.2817213 41.034673,23.8157213 C41.930673,23.3617213 42.819673,22.9007213 43.637673,22.3107213 C42.154673,23.6967213 40.349673,24.6647213 38.611673,25.6727213 C36.856673,26.6697213 35.054673,27.5697213 33.245673,28.4547213 C31.430673,29.3257213 29.604673,30.1747213 27.751673,30.9627213 C25.901673,31.7577213 24.042673,32.5297213 22.144673,33.2137213" id="Fill-61" fill="#150711"/>
                    <path d="M51.180373,21.5398213 C49.855373,22.8288213 48.450373,24.0238213 47.021373,25.1918213 C45.598373,26.3678213 44.114373,27.4658213 42.609373,28.5368213 C41.097373,29.5958213 39.546373,30.6068213 37.928373,31.5088213 C36.315373,32.4058213 34.646373,33.2638213 32.849373,33.7288213 C34.533373,32.9728213 36.091373,32.0068213 37.631373,31.0138213 C39.161373,30.0068213 40.685373,28.9888213 42.179373,27.9228213 L46.673373,24.7358213 C48.169373,23.6668213 49.660373,22.5888213 51.180373,21.5398213" id="Fill-63" fill="#150711"/>
                    <path d="M51.841973,22.0125213 C50.955973,23.1355213 49.988973,24.1845213 48.994973,25.2055213 C48.006973,26.2335213 46.958973,27.2015213 45.887973,28.1465213 C44.799973,29.0715213 43.685973,29.9725213 42.492973,30.7695213 C41.296973,31.5395213 40.035973,32.3295213 38.612973,32.5955213 C39.269973,32.3045213 39.881973,31.9725213 40.453973,31.5555213 C41.040973,31.1685213 41.597973,30.7365213 42.152973,30.3035213 C43.245973,29.4115213 44.329973,28.5075213 45.396973,27.5795213 L48.600973,24.7885213 C49.672973,23.8585213 50.736973,22.9175213 51.841973,22.0125213" id="Fill-65" fill="#150711"/>
                    <path d="M54.581673,27.3035213 C53.480673,30.2915213 52.249673,33.2185213 51.095673,36.1765213 C50.484673,37.6425213 49.914673,39.1225213 49.335673,40.6005213 C48.760673,42.0785213 48.191673,43.5595213 47.684673,45.0675213 C47.991673,43.5025213 48.473673,41.9795213 48.974673,40.4685213 C49.479673,38.9575213 50.056673,37.4745213 50.631673,35.9915213 C51.843673,33.0485213 53.102673,30.1255213 54.581673,27.3035213" id="Fill-67" fill="#150711"/>
                    <path d="M73.479673,27.9656213 C71.755673,30.4146213 69.935673,32.7806213 68.195673,35.2066213 C67.296673,36.3976213 66.443673,37.6206213 65.588673,38.8406213 C64.736673,40.0656213 63.901673,41.2986213 63.180673,42.6116213 C63.714673,41.2066213 64.479673,39.9026213 65.267673,38.6296213 C66.061673,37.3576213 66.921673,36.1296213 67.792673,34.9116213 C68.694673,33.7166213 69.591673,32.5186213 70.541673,31.3606213 C71.489673,30.2026213 72.454673,29.0586213 73.479673,27.9656213" id="Fill-69" fill="#150711"/>
                    <path d="M61.668673,23.6190213 C62.186673,22.7670213 62.785673,21.9730213 63.410673,21.1990213 C64.032673,20.4220213 64.707673,19.6880213 65.418673,18.9890213 C66.138673,18.2990213 66.881673,17.6270213 67.709673,17.0590213 C68.529673,16.4900213 69.402673,15.9690213 70.361673,15.6820213 C69.487673,16.1590213 68.700673,16.7440213 67.942673,17.3650213 C67.189673,17.9900213 66.468673,18.6580213 65.768673,19.3470213 C64.355673,20.7140213 63.030673,22.1710213 61.668673,23.6190213" id="Fill-71" fill="#150711"/>
                    <path d="M74.802473,15.7762213 C73.846473,16.7972213 72.821473,17.7412213 71.772473,18.6592213 C70.720473,19.5792213 69.638473,20.4512213 68.444473,21.2312213 C67.272473,21.9182213 66.253473,22.8282213 65.190473,23.7172213 L62.046473,26.4542213 C62.887473,25.3362213 63.817473,24.2952213 64.796473,23.2972213 C65.769473,22.3032213 66.824473,21.3342213 68.046473,20.5962213 C69.189473,19.8732213 70.288473,19.0142213 71.413473,18.2112213 C72.531473,17.3902213 73.646473,16.5612213 74.802473,15.7762213" id="Fill-73" fill="#150711"/>
                    <path d="M62.897173,26.6424213 C64.033173,25.3564213 65.340173,24.2714213 66.708173,23.2664213 C67.398173,22.7744213 68.107173,22.3024213 68.852173,21.8854213 C69.589173,21.4634213 70.377173,21.0904213 71.212173,20.8784213 C70.501173,21.3554213 69.848173,21.8774213 69.171173,22.3754213 L67.147173,23.8744213 C65.777173,24.8504213 64.400173,25.8184213 62.897173,26.6424213" id="Fill-75" fill="#150711"/>
                </g>
                <g id="Front-Wheelchair" transform="translate(5.000000, 18.000000)">
                    <polygon id="Fill-74" fill="#2E2E2E" transform="translate(63.948110, 62.409089) rotate(-7.000000) translate(-63.948110, -62.409089)" points="86.4866096 80.4900887 41.4096096 64.2300887 41.4096096 44.3280887 86.4866096 60.5880887"/>
                    <path d="M38.8629016,85.604 C38.0349016,85.604 37.3629016,84.932 37.3629016,84.104 L37.3629016,4 L30.2879016,4 C29.4599016,4 28.7879016,3.328 28.7879016,2.5 C28.7879016,1.671 29.4599016,1 30.2879016,1 L38.8629016,1 C39.6909016,1 40.3629016,1.671 40.3629016,2.5 L40.3629016,84.104 C40.3629016,84.932 39.6909016,85.604 38.8629016,85.604" id="Fill-76" fill="#A1A1A1" transform="translate(34.575402, 43.302000) rotate(-7.000000) translate(-34.575402, -43.302000)"/>
                    <path d="M26.906724,5.07528796 L19.729724,5.07528796 C18.901724,5.07528796 18.229724,4.40328796 18.229724,3.57528796 C18.229724,2.74728796 18.901724,2.07528796 19.729724,2.07528796 L26.906724,2.07528796 C27.734724,2.07528796 28.406724,2.74728796 28.406724,3.57528796 C28.406724,4.40328796 27.734724,5.07528796 26.906724,5.07528796" id="Fill-78" fill="#2E2E2E" transform="translate(23.318224, 3.575288) rotate(-7.000000) translate(-23.318224, -3.575288)"/>
                    <path d="M87.8872064,117.975944 L87.8872064,117.975944 C87.0582064,117.975944 86.3872064,117.303944 86.3872064,116.475944 L86.3872064,58.6129435 C86.3872064,53.5669435 84.5412064,46.8329435 75.7492064,43.4159435 L42.3432064,32.4429435 L43.2792064,29.5929435 L76.7602064,40.5929435 C87.7562064,44.8649435 89.3872064,53.7149435 89.3872064,58.6129435 L89.3872064,116.475944 C89.3872064,117.303944 88.7162064,117.975944 87.8872064,117.975944" id="Fill-80" fill="#A1A1A1" transform="translate(65.865206, 73.784444) rotate(-7.000000) translate(-65.865206, -73.784444)"/>
                    <polygon id="Fill-82" fill="#A1A1A1" transform="translate(43.822194, 83.432426) rotate(-7.000000) translate(-43.822194, -83.432426)" points="80.0021944 79.2284255 79.8731944 78.2364255 45.9651944 82.6494255 75.2811944 63.7974255 74.7401944 62.9564255 45.6261944 81.6774255 65.7061944 52.2674255 64.8801944 51.7034255 44.7951944 81.1194255 51.9451944 45.4434255 50.9651944 45.2464255 43.8321944 80.8354255 36.9801944 45.1824255 35.9971944 45.3724255 42.8231944 80.8844255 24.0471944 50.7684255 23.1991944 51.2974255 42.1581944 81.7074255 13.3211944 62.2504255 12.7631944 63.0794255 40.8991944 82.0634255 8.84819438 72.7604255 8.56819438 73.7214255 41.3831944 83.2454255 7.64219438 87.6364255 7.77119438 88.6284255 41.6781944 84.2154255 12.3621944 103.067426 12.9031944 103.909426 42.0181944 85.1874255 21.9381944 114.597426 22.7641944 115.162426 42.8481944 85.7464255 35.6981944 121.421426 36.6791944 121.619426 43.8121944 86.0294255 50.6641944 121.682426 51.6471944 121.493426 44.8201944 85.9784255 63.5981944 116.096426 64.4451944 115.567426 45.4871944 85.1594255 74.3221944 104.614426 74.8811944 103.786426 46.7441944 84.8014255 78.7971944 94.1044255 79.0761944 93.1434255 46.2621944 83.6204255"/>
                    <g id="Group-86" transform="translate(44.500000, 82.828117) rotate(-7.000000) translate(-44.500000, -82.828117) translate(5.000000, 40.328117)" fill="#2E2E2E">
                        <path d="M39.4648,0.9538 C17.7038,0.9538 -0.0002,19.7538 -0.0002,42.8608 C-0.0002,65.9688 17.7038,84.7668 39.4648,84.7668 C61.2268,84.7668 78.9308,65.9688 78.9308,42.8608 C78.9308,19.7538 61.2268,0.9538 39.4648,0.9538 M39.4648,3.4538 C59.8478,3.4538 76.4308,21.1318 76.4308,42.8608 C76.4308,64.5898 59.8478,82.2668 39.4648,82.2668 C19.0818,82.2668 2.4998,64.5898 2.4998,42.8608 C2.4998,21.1318 19.0818,3.4538 39.4648,3.4538" id="Fill-84"/>
                    </g>
                    <path d="M44.5089682,43.7834606 C24.0459682,43.7834606 7.39896817,61.4614606 7.39896817,83.1904606 C7.39896817,104.919461 24.0459682,122.596461 44.5089682,122.596461 C64.9719682,122.596461 81.6199682,104.919461 81.6199682,83.1904606 C81.6199682,61.4614606 64.9719682,43.7834606 44.5089682,43.7834606 M44.5089682,46.1344606 C63.6759682,46.1344606 79.2699682,62.7574606 79.2699682,83.1904606 C79.2699682,103.623461 63.6759682,120.246461 44.5089682,120.246461 C25.3419682,120.246461 9.74896817,103.623461 9.74896817,83.1904606 C9.74896817,62.7574606 25.3419682,46.1344606 44.5089682,46.1344606" id="Fill-87" fill="#A1A1A1" transform="translate(44.509468, 83.189961) rotate(-7.000000) translate(-44.509468, -83.189961)"/>
                </g>
            </g>
        </g>
        <g id="Top Sitting" transform="translate(81.000000, 101.000000) scale(1 1)">
            <g id="Top Sitting/Sweater 5" stroke="none" stroke-width="1" fill="none" fill-rule="evenodd">
                <g id="Top">
                    <path d="M97.6242,53.2625 C93.2802,52.4545 89.8142,52.4205 84.3192,49.0845 C81.5082,47.3785 77.2232,44.6045 71.9322,42.7145 C67.6512,41.1855 66.1502,36.8185 64.0792,36.1665 C63.6402,36.0295 63.6632,46.3765 65.2702,48.8565 C66.9242,51.4075 67.0332,52.2185 69.2392,53.1085 C76.8032,56.1585 86.2342,55.8685 90.9762,57.9585 C91.7642,58.3065 91.5412,58.4495 92.1772,59.2645 C93.4772,60.9325 97.9312,59.9335 100.1172,61.1105 C100.5852,62.0765 100.6082,64.7565 102.3392,64.5635 L102.4662,64.4335 L102.4482,63.6175 C102.4482,63.6175 103.4582,63.9005 103.9862,63.6585 C103.9862,63.6585 104.1032,63.5485 104.1062,63.4355 C104.1092,63.3555 103.6732,62.5755 103.4152,62.1205 C104.8022,63.1985 105.7042,62.8695 106.0222,62.4955 C106.1762,62.3165 104.9262,60.7195 104.9262,60.7195 C107.4282,62.0315 107.4732,60.9255 107.3542,60.4375 C107.2362,59.9495 104.9922,57.6875 104.0832,56.5745 C103.2012,55.4925 101.9682,54.0695 97.6242,53.2625" id="Fill-116" fill="#db8c5c"/>
                    <path d="M8.1901,22.2567 C8.1901,22.2567 0.4261,45.5817 0.433095269,46.0827 C0.4411,46.5837 2.0101,59.5327 4.9401,66.0527 C7.2081,71.1017 6.9121,76.2767 6.9121,76.2767 C6.9121,76.2767 9.3641,76.2657 11.6421,75.4257 C12.7671,75.0117 14.6191,73.4777 14.5651,73.4587 C14.5651,73.4587 11.8021,70.3527 12.3101,62.0367 C12.6571,56.3487 11.8981,52.3287 11.6011,45.6777 C11.6011,45.6777 16.6381,36.5697 17.8061,29.7077 C18.9741,22.8467 13.6931,14.9577 8.1901,22.2567" id="Fill-118" fill="#db8c5c"/>
                    <path d="M102.4484,63.618 C101.9594,63.437 101.5984,63.019 101.3354,62.579 C101.2234,62.345 101.1154,62.107 101.0614,61.854 C100.9994,61.604 100.9854,61.346 100.9934,61.092 C101.2994,62.059 101.7004,62.927 102.4484,63.618" id="Fill-120" fill="#000"/>
                    <path d="M102.1754,60.7274 C102.6214,61.1884 103.0354,61.5914 103.4144,62.1214 C103.1034,62.0074 102.8624,61.7914 102.6354,61.5674 C102.4314,61.3244 102.2344,61.0544 102.1754,60.7274" id="Fill-122" fill="#000"/>
                    <path d="M100.1169,61.1102 C100.5219,61.0842 100.9249,61.0352 101.3079,60.9512 C101.6809,60.8822 102.0959,60.6412 101.9629,60.5122 C101.8969,60.2492 101.6279,59.9132 101.3669,59.6472 C101.0979,59.3722 100.7959,59.1192 100.4809,58.8972 C100.3249,58.7892 100.1589,58.6842 100.0029,58.6182 C99.8849,58.5612 99.6439,58.5222 99.4559,58.4662 C99.0609,58.3622 98.6709,58.2492 98.2819,58.1272 C97.8929,58.0042 97.5059,57.8742 97.1209,57.7182 C96.9289,57.6402 96.7379,57.5582 96.5429,57.4492 C96.4449,57.3882 96.3489,57.3402 96.2359,57.2182 C96.1899,57.1712 96.0769,57.0212 96.1479,56.8272 C96.2269,56.6622 96.3339,56.6492 96.4409,56.5942 C96.9499,56.5192 97.3229,56.5962 97.7419,56.6402 C98.1479,56.7002 98.5499,56.7672 98.9489,56.8472 C99.7479,57.0062 100.5369,57.1862 101.3269,57.4212 C101.5339,57.4912 101.6999,57.5252 101.9589,57.6672 C102.2059,57.8522 102.2699,57.9902 102.4219,58.1462 C102.6819,58.4532 102.9529,58.7442 103.2269,59.0312 C103.7219,59.6552 104.2729,60.2352 104.9269,60.7192 C104.1689,60.4112 103.5009,59.9052 102.8679,59.3802 C102.5789,59.0892 102.3109,58.7792 102.0439,58.4742 C101.9209,58.3392 101.7599,58.1252 101.6779,58.0802 C101.5819,58.0292 101.3559,57.9522 101.1799,57.8982 C100.4219,57.6722 99.6369,57.4932 98.8529,57.3382 C98.0919,57.1992 97.2209,57.0202 96.5649,57.0792 C96.5929,57.0792 96.5759,57.0822 96.6139,57.0092 C96.6469,56.9112 96.5899,56.8662 96.6119,56.8892 C96.6339,56.9172 96.7159,56.9732 96.7909,57.0142 C96.9479,57.1032 97.1279,57.1822 97.3089,57.2562 C97.6729,57.4022 98.0519,57.5292 98.4319,57.6492 C98.8129,57.7692 99.1979,57.8812 99.5829,57.9832 C99.7809,58.0442 99.9469,58.0542 100.1999,58.1582 C100.4139,58.2522 100.5909,58.3662 100.7659,58.4872 C101.1109,58.7292 101.4299,58.9972 101.7249,59.2982 C102.0059,59.6172 102.3189,59.8952 102.4579,60.4232 C102.4749,60.5702 102.4419,60.7632 102.3289,60.8852 C102.2259,61.0152 102.1009,61.0642 101.9909,61.1082 C101.7649,61.1862 101.5529,61.2052 101.3429,61.2142 C100.9239,61.2282 100.5169,61.1862 100.1169,61.1102" id="Fill-124" fill="#000"/>
                    <path d="M6.9098,76.2703 C6.9098,76.2703 6.9878,85.2543 6.9878,86.0633 C6.9878,86.8723 8.6048,91.6373 8.6918,92.0993 C8.7788,92.5613 9.7028,92.6483 9.8758,92.4743 C10.0488,92.3013 10.2798,91.6083 10.2798,91.6083 C10.2798,91.6083 10.7138,93.1393 11.0598,93.3123 C11.4068,93.4853 11.9268,93.8893 12.1578,93.8613 C12.3888,93.8323 12.6198,93.2543 12.4468,92.4463 C12.4468,92.4463 13.2548,93.9483 13.8618,94.2363 C14.4678,94.5253 15.2768,94.5253 15.2478,94.0923 C15.2188,93.6593 15.1608,93.3993 15.1608,93.3993 C15.1608,93.3993 16.4028,93.6873 16.5188,93.0813 C16.6338,92.4743 16.6338,89.5293 16.1148,87.6513 C15.5948,85.7743 16.2008,82.5683 15.6808,81.7313 C15.6808,81.7313 17.0098,85.6593 18.5118,85.5723 C20.0138,85.4853 19.8978,84.9083 19.8108,84.7633 C19.7238,84.6193 18.1938,82.8863 18.2808,81.5863 C18.3668,80.2873 18.1358,80.2293 18.0778,79.6803 C18.0198,79.1313 18.4248,79.1313 17.3558,77.7163 C16.2868,76.3013 14.5298,73.4953 14.5298,73.4953 L13.4958,74.2733 C12.1108,75.3153 10.4598,75.9453 8.7328,76.0903 L6.9098,76.2703 Z" id="Fill-126" fill="#db8c5c"/>
                    <path d="M15.1613,93.3992 C14.8163,92.5942 14.5283,91.7722 14.2523,90.9452 C13.9743,90.1182 13.7303,89.2862 13.5213,88.4282 C13.4753,88.2312 13.4223,87.9512 13.4253,87.7432 L13.3953,87.0932 L13.3443,85.7952 C13.3003,84.9292 13.2813,84.0642 13.1483,83.2032 C13.4843,84.0192 13.6033,84.9002 13.7273,85.7612 C13.7933,86.1942 13.8253,86.6292 13.8683,87.0642 L13.9133,87.7162 C13.9173,87.9452 13.9593,88.0912 14.0083,88.3182 C14.4073,89.9922 14.8623,91.6772 15.1613,93.3992" id="Fill-128" fill="#000"/>
                    <path d="M10.3136,83.5223 C10.5836,84.1983 10.7946,84.8923 10.9756,85.5953 C11.0706,85.9463 11.1476,86.3023 11.2116,86.6633 C11.2746,87.0293 11.3266,87.3833 11.3036,87.8013 L11.2946,87.7043 C11.5296,88.4813 11.7496,89.2633 11.9436,90.0523 C12.1336,90.8443 12.3206,91.6353 12.4466,92.4463 C12.1086,91.6993 11.8336,90.9333 11.5596,90.1673 C11.2916,89.3993 11.0476,88.6253 10.8206,87.8443 L10.8076,87.7983 L10.8126,87.7473 C10.8386,87.4433 10.7916,87.0783 10.7576,86.7303 L10.6156,85.6683 C10.5096,84.9573 10.3976,84.2453 10.3136,83.5223" id="Fill-130" fill="#000"/>
                    <path d="M8.1169,83.6287 C8.3699,84.2397 8.5679,84.8697 8.7319,85.5097 C8.9059,86.1497 9.0339,86.7957 9.0719,87.4837 L9.0599,87.4147 C9.2959,88.1217 9.5129,88.8337 9.7079,89.5547 C9.8959,90.2767 10.0819,90.9997 10.2069,91.7427 C9.8719,91.0677 9.5969,90.3737 9.3249,89.6787 C9.0579,88.9827 8.8159,88.2767 8.5909,87.5667 L8.5799,87.5347 L8.5779,87.4977 C8.5149,86.2387 8.2499,84.9387 8.1169,83.6287" id="Fill-132" fill="#000"/>
                    <g id="Group-136" fill="#B9D0FF">
                        <path d="M72.0029,40.8124 C72.2149,40.1394 71.1879,40.4574 71.0459,39.5014 C70.9049,38.5444 71.7899,38.4034 70.1959,37.1274 C68.6009,35.8524 66.8999,20.1904 61.8689,14.6274 C61.8689,14.6274 60.4869,13.2464 57.7229,11.5094 C54.9589,9.7734 51.5579,8.3204 50.6009,6.3364 C49.6439,4.3524 46.2437744,3.3358999 46.1027744,3.0168999 C46.1027744,3.0168999 46.7549,5.0964 46.0319,6.7824 C45.4079,8.2374 44.6839,9.7024 40.2189,9.3124 C36.5899,8.9964 33.8503228,5.42464309 34.2323228,2.51264309 C34.2423228,2.50064309 34.8518983,0.997224601 34.8518983,0.997224601 C34.8518983,0.997224601 33.4749,0.9034 32.0579,1.8954 C30.6399,2.8874 19.1599,8.8874 16.9869,10.3524 C14.8139,11.8164 9.5219,16.8724 7.2549,24.3364 C4.9869,31.8004 0.4989,42.5254 0.1679,44.6514 C-0.1631,46.7774 -0.0211,50.4154 0.7349,50.8874 C0.7349,50.8874 1.0179,51.2654 1.6209,50.9944 C2.2229,50.7224 3.4989,49.3404 7.0659,50.3794 C10.6329,51.4184 11.2699,51.8684 12.1209,51.1354 C12.9709,50.4034 11.6719,47.4154 11.6719,47.4154 C11.6719,47.4154 12.3099,45.9504 12.5699,45.5964 C12.8289,45.2424 11.8369,44.5564 12.8999,44.2494 C13.9629,43.9424 12.8999,43.8954 13.9159,42.1004 C14.9319,40.3044 17.3179,34.7064 17.4829,34.3994 C17.6479,34.0924 17.7899,37.1164 18.3809,38.3914 C18.9709,39.6664 25.9399,52.7184 24.2389,58.6004 C24.2389,58.6004 23.5659,59.4504 23.8489,60.1594 C24.1329,60.8684 31.9279,63.3124 38.8729,62.7464 C45.8179,62.1784 48.5459,62.5684 53.0459,60.9034 C57.5459,59.2384 59.9199,59.2024 59.9199,59.2024 C59.9199,59.2024 58.3249,53.3204 58.2549,49.1044 C58.1839,44.8874 58.7149,39.9264 58.7149,39.9264 C58.7149,39.9264 60.4509,43.0094 61.2309,43.7894 C62.0099,44.5684 63.6399,47.2264 64.2429,48.7854 C64.8449,50.3444 67.2189,52.5054 67.3959,52.0444 C67.5729,51.5834 66.4399,47.2964 69.1329,44.9224 C71.8249,42.5484 73.5969,43.8604 71.9669,41.7694 C71.9669,41.7694 71.7899,41.4864 72.0029,40.8124 Z" id="Fill-134"/>
                    </g>
                    <path d="M29.9655,3.9998 C30.4715,3.6078 31.0095,3.2588 31.5815,2.9598 C31.8665,2.8088 32.1495,2.6348 32.4745,2.5678 C32.7985,2.5158 33.1375,2.4708 33.4725,2.5788 L33.4775,2.6288 C33.1825,2.8058 32.9035,2.9128 32.6235,3.0458 C32.3435,3.1658 32.0385,3.2288 31.7415,3.3258 C31.1535,3.5348 30.5685,3.7758 29.9925,4.0428 L29.9655,3.9998 Z" id="Fill-137" fill="#5D74E0"/>
                    <path d="M30.8634,5.4178 C31.2814,5.0728 31.7084,4.7388 32.1434,4.4168 C32.3574,4.2518 32.5584,4.0628 32.8034,3.9478 C33.0564,3.8458 33.3034,3.7338 33.6044,3.7168 L33.6294,3.7598 C33.4734,4.0248 33.2634,4.1968 33.0594,4.3778 C32.8484,4.5478 32.5924,4.6408 32.3504,4.7598 C31.8714,5.0038 31.3844,5.2368 30.8894,5.4598 L30.8634,5.4178 Z" id="Fill-139" fill="#5D74E0"/>
                    <path d="M31.3795,7.5936 C31.7085,7.2006 32.0415,6.8156 32.3765,6.4356 C32.5405,6.2416 32.6815,6.0276 32.8805,5.8726 C33.0885,5.7256 33.2845,5.5766 33.5495,5.4706 L33.5895,5.5006 C33.5425,5.7936 33.3825,6.0106 33.2365,6.2246 C33.0785,6.4306 32.8555,6.5696 32.6525,6.7256 C32.2525,7.0436 31.8385,7.3456 31.4125,7.6306 L31.3795,7.5936 Z" id="Fill-141" fill="#5D74E0"/>
                    <path d="M34.3429,6.6844 C34.0579,7.0824 33.7919,7.4914 33.5439,7.9014 C33.4219,8.1094 33.3379,8.3364 33.1859,8.5184 C33.0229,8.6964 32.8819,8.8814 32.6479,9.0394 L32.6019,9.0184 C32.5779,8.7364 32.6669,8.4934 32.7599,8.2564 C32.8659,8.0254 33.0519,7.8464 33.2219,7.6634 C33.5529,7.2904 33.9149,6.9514 34.3079,6.6494 L34.3429,6.6844 Z" id="Fill-143" fill="#5D74E0"/>
                    <path d="M33.735,10.4383 C33.872,9.8923 34.079,9.3673 34.33,8.8623 C34.452,8.6073 34.559,8.3373 34.751,8.1253 C34.949,7.9203 35.154,7.7193 35.44,7.5953 L35.479,7.6273 C35.415,7.9333 35.277,8.1663 35.159,8.4153 C35.029,8.6533 34.837,8.8483 34.672,9.0683 C34.356,9.5103 34.05,9.9703 33.782,10.4553 L33.735,10.4383 Z" id="Fill-145" fill="#5D74E0"/>
                    <path d="M36.3805,8.6121 C36.2775,9.1451 36.1565,9.6741 36.0155,10.1981 C35.9495,10.4621 35.9085,10.7351 35.7785,10.9781 C35.6365,11.2131 35.5035,11.4641 35.2445,11.6401 L35.2015,11.6151 C35.1995,11.3181 35.2565,11.0631 35.3135,10.7981 C35.3785,10.5381 35.5225,10.3051 35.6395,10.0621 C35.8625,9.5731 36.0935,9.0831 36.3335,8.5961 L36.3805,8.6121 Z" id="Fill-147" fill="#5D74E0"/>
                    <path d="M37.3742,9.3621 C37.3982,9.9111 37.4002,10.4601 37.3732,11.0091 C37.3642,11.2851 37.3802,11.5661 37.2982,11.8361 C37.1982,12.0931 37.1202,12.3891 36.8492,12.5881 L36.8092,12.5571 C36.7992,12.2751 36.7962,12.0171 36.8062,11.7461 C36.8212,11.4801 36.9152,11.2221 36.9772,10.9581 L37.3242,9.3581 L37.3742,9.3621 Z" id="Fill-149" fill="#5D74E0"/>
                    <path d="M38.8859,9.784 C38.9669,10.313 39.0239,10.844 39.0519,11.378 C39.0709,11.644 39.1139,11.915 39.0609,12.181 C38.9949,12.445 38.9339,12.717 38.7439,12.955 L38.6949,12.946 C38.6009,12.664 38.5879,12.408 38.5629,12.144 C38.5489,11.885 38.6169,11.627 38.6519,11.365 L38.8359,9.786 L38.8859,9.784 Z" id="Fill-151" fill="#5D74E0"/>
                    <path d="M40.0197,10.0672 C40.1307,10.6132 40.2287,11.1592 40.3117,11.7062 C40.3587,11.9792 40.4347,12.2502 40.4207,12.5272 C40.3947,12.8062 40.3787,13.0852 40.2557,13.3742 L40.2067,13.3782 C40.0437,13.1152 39.9877,12.8422 39.9227,12.5702 C39.8707,12.2962 39.9067,12.0162 39.9137,11.7382 C39.9177,11.1822 39.9367,10.6272 39.9697,10.0702 L40.0197,10.0672 Z" id="Fill-153" fill="#5D74E0"/>
                    <path d="M41.4836,10.1102 C41.6706,10.5862 41.8486,11.0632 42.0196,11.5402 C42.1096,11.7772 42.2276,12.0062 42.2656,12.2552 C42.2926,12.5082 42.3236,12.7532 42.2856,13.0352 L42.2396,13.0552 C42.0066,12.8692 41.9006,12.6242 41.7846,12.3922 C41.6816,12.1552 41.6706,11.8932 41.6316,11.6412 C41.5466,11.1372 41.4816,10.6312 41.4356,10.1222 L41.4836,10.1102 Z" id="Fill-155" fill="#5D74E0"/>
                    <path d="M43.7023,9.9637 C43.9733,10.3907 44.2323,10.8247 44.4783,11.2677 C44.6063,11.4857 44.7613,11.6947 44.8333,11.9377 C44.8943,12.1837 44.9633,12.4267 44.9313,12.7057 L44.8853,12.7237 C44.6483,12.5457 44.5133,12.3317 44.3693,12.1207 C44.2363,11.9057 44.1863,11.6587 44.1093,11.4207 C43.9463,10.9497 43.7963,10.4717 43.6573,9.9847 L43.7023,9.9637 Z" id="Fill-157" fill="#5D74E0"/>
                    <path d="M45.3537,9.1561 L46.4107,10.2961 C46.5887,10.4821 46.7897,10.6491 46.9257,10.8631 C47.0577,11.0861 47.1827,11.2961 47.2847,11.5591 L47.2557,11.6001 C46.9527,11.5441 46.7467,11.3511 46.5427,11.1831 C46.3477,11.0031 46.2307,10.7611 46.0937,10.5401 C45.8117,10.1001 45.5527,9.6481 45.3127,9.1851 L45.3537,9.1561 Z" id="Fill-159" fill="#5D74E0"/>
                    <path d="M46.4342,8.0633 C46.8632,8.2683 47.2882,8.4773 47.7062,8.6893 C47.9192,8.7913 48.1452,8.8643 48.3282,9.0093 C48.5072,9.1653 48.6822,9.3063 48.8382,9.5253 L48.8202,9.5723 C48.5412,9.6123 48.3062,9.5203 48.0772,9.4413 C47.8532,9.3483 47.6792,9.1763 47.4932,9.0283 C47.1172,8.7373 46.7542,8.4293 46.4062,8.1053 L46.4342,8.0633 Z" id="Fill-161" fill="#5D74E0"/>
                    <path d="M47.047,6.3621 C47.478,6.5361 47.901,6.7221 48.317,6.9201 C48.527,7.0141 48.751,7.0841 48.931,7.2301 C49.105,7.3871 49.283,7.5371 49.409,7.7791 L49.384,7.8221 C49.116,7.8291 48.901,7.7421 48.68,7.6631 C48.466,7.5731 48.297,7.4061 48.114,7.2641 C47.742,6.9901 47.378,6.7031 47.021,6.4051 L47.047,6.3621 Z" id="Fill-163" fill="#5D74E0"/>
                    <path d="M47.1413,4.5672 C47.5563,4.7412 47.9663,4.9282 48.3703,5.1292 C48.5743,5.2242 48.7953,5.2962 48.9673,5.4432 C49.1323,5.5992 49.3023,5.7492 49.4103,5.9852 L49.3823,6.0262 C49.1123,6.0262 48.9043,5.9392 48.6913,5.8592 C48.4853,5.7692 48.3283,5.6052 48.1543,5.4652 C47.8023,5.1932 47.4563,4.9082 47.1163,4.6102 L47.1413,4.5672 Z" id="Fill-165" fill="#5D74E0"/>
                    <path d="M17.4831,34.3992 C17.5091,33.4722 17.6561,32.5512 17.8911,31.6492 C18.1221,30.7472 18.4631,29.8552 19.0171,29.0602 C19.6061,28.3062 20.1831,27.6272 20.7961,26.9302 C21.4051,26.2412 22.0201,25.5552 22.6801,24.9032 C22.1841,25.6832 21.6431,26.4302 21.0951,27.1722 C20.5601,27.9152 19.9581,28.6492 19.4231,29.3532 C18.9121,30.0642 18.5661,30.9102 18.2561,31.7612 C17.9521,32.6182 17.7121,33.5032 17.4831,34.3992" id="Fill-167" fill="#5D74E0"/>
                    <path d="M26.2941,25.116 C24.7331,26.372 23.1921,27.622 21.7291,28.958 C20.2651,30.295 18.8851,31.705 17.7191,33.337 C18.1271,32.418 18.6951,31.575 19.3171,30.782 C19.9451,29.992 20.6571,29.275 21.3921,28.589 C22.1401,27.916 22.9191,27.28 23.7401,26.702 C24.5591,26.122 25.3991,25.573 26.2941,25.116" id="Fill-169" fill="#5D74E0"/>
                    <path d="M4.7506,37.9422 C5.4046,37.5392 6.2276,37.4012 7.0146,37.5272 C7.4116,37.5832 7.7906,37.7272 8.1516,37.9002 C8.5066,38.0972 8.8186,38.3142 9.1296,38.5392 C9.7446,38.9962 10.3326,39.4842 10.8836,40.0112 C11.4366,40.5362 11.9716,41.0792 12.4516,41.6742 C11.2126,40.7822 10.0456,39.8272 8.8336,38.9422 C8.2296,38.4772 7.6416,38.0882 6.9366,37.9022 C6.2426,37.7152 5.4806,37.7322 4.7506,37.9422" id="Fill-171" fill="#5D74E0"/>
                    <path d="M10.609,41.0135 C11.006,41.2845 11.331,41.6245 11.656,41.9655 C11.952,42.3275 12.285,42.6785 12.451,43.1395 C12.297,42.9595 12.116,42.8105 11.955,42.6405 L11.471,42.1325 C11.169,41.7745 10.856,41.4255 10.609,41.0135" id="Fill-173" fill="#5D74E0"/>
                    <path d="M7.9162,42.8084 C8.5822,43.1374 9.2052,43.5234 9.8462,43.8774 C10.1582,44.0694 10.4792,44.2424 10.7982,44.4194 C11.1202,44.5924 11.4382,44.7704 11.7902,44.8874 C11.0362,44.8234 10.3692,44.4364 9.7212,44.0944 C9.0882,43.7104 8.4672,43.3084 7.9162,42.8084" id="Fill-175" fill="#5D74E0"/>
                    <path d="M8.152,45.3123 C6.781,45.2023 5.413,45.0373 4.046,44.8633 C3.36,44.7863 2.681,44.6733 1.999,44.5783 C1.907,44.5613 1.842,44.5613 1.729,44.5323 C1.673,44.5163 1.589,44.4903 1.504,44.3963 C1.388,44.2733 1.444,44.0573 1.495,44.0073 C1.703,43.7563 1.868,43.7363 2.049,43.6523 C2.402,43.5283 2.758,43.4643 3.114,43.4293 C4.541,43.3353 5.946,43.6413 7.234,44.1693 C8.524,44.7053 9.703,45.4583 10.751,46.3523 C9.582,45.6273 8.376,44.9733 7.097,44.5293 C5.825,44.0893 4.478,43.8013 3.158,43.9263 C2.831,43.9513 2.505,44.0043 2.208,44.1013 C2.075,44.1413 1.895,44.2413 1.886,44.2603 C1.881,44.2763 1.925,44.1613 1.864,44.1063 C1.838,44.0753 1.834,44.0853 1.861,44.0913 C1.913,44.1063 2.021,44.1203 2.098,44.1343 C2.772,44.2503 3.449,44.3513 4.12,44.4873 C5.465,44.7383 6.811,44.9983 8.152,45.3123" id="Fill-177" fill="#5D74E0"/>
                    <path d="M4.1364,45.5487 C5.4394,45.5827 6.7284,45.8147 7.9964,46.1097 C9.2584,46.4277 10.5054,46.8347 11.6724,47.4147 C10.4294,47.0277 9.1984,46.6417 7.9374,46.3517 C7.3124,46.1867 6.6784,46.0537 6.0464,45.9197 C5.4124,45.7897 4.7774,45.6587 4.1364,45.5487" id="Fill-179" fill="#5D74E0"/>
                    <path d="M1.1344,46.161 C1.2914,46.855 1.4344,47.55 1.5644,48.244 C1.6334,48.591 1.7314,48.932 1.7414,49.287 C1.7384,49.645 1.7464,50.001 1.6474,50.378 L1.5984,50.387 C1.4144,50.06 1.3364,49.714 1.2484,49.369 C1.1734,49.021 1.1844,48.659 1.1684,48.303 C1.1264,47.591 1.0984,46.879 1.0844,46.167 L1.1344,46.161 Z" id="Fill-181" fill="#5D74E0"/>
                    <path d="M2.1886,45.9178 C2.3426,46.5458 2.4846,47.1748 2.6176,47.8048 C2.6886,48.1178 2.7896,48.4278 2.8056,48.7478 C2.8116,49.0708 2.8176,49.3908 2.7556,49.7258 L2.7086,49.7408 C2.4866,49.4538 2.4076,49.1348 2.3116,48.8238 C2.2296,48.5088 2.2386,48.1828 2.2216,47.8588 C2.1756,47.2158 2.1496,46.5708 2.1396,45.9238 L2.1886,45.9178 Z" id="Fill-183" fill="#5D74E0"/>
                    <path d="M3.4054,45.9969 C3.6024,46.5489 3.7854,47.1039 3.9554,47.6639 C4.0444,47.9419 4.1624,48.2159 4.1934,48.5069 C4.2124,48.8009 4.2394,49.0919 4.1624,49.4039 L4.1134,49.4139 C3.9094,49.1579 3.8114,48.8819 3.7034,48.6069 C3.6094,48.3309 3.6004,48.0359 3.5634,47.7469 C3.4814,47.1709 3.4124,46.5909 3.3564,46.0079 L3.4054,45.9969 Z" id="Fill-185" fill="#5D74E0"/>
                    <path d="M5.2443,46.2684 C5.3883,46.7724 5.5173,47.2774 5.6343,47.7844 C5.6963,48.0364 5.7873,48.2844 5.7913,48.5444 C5.7823,48.8084 5.7823,49.0704 5.6773,49.3504 L5.6273,49.3594 C5.4503,49.1254 5.3783,48.8734 5.2973,48.6234 C5.2283,48.3714 5.2473,48.1054 5.2383,47.8434 C5.2103,47.3224 5.1953,46.7994 5.1953,46.2764 L5.2443,46.2684 Z" id="Fill-187" fill="#5D74E0"/>
                    <path d="M7.0021,46.5672 C7.1241,47.0782 7.2311,47.5942 7.3261,48.1142 C7.3771,48.3732 7.4581,48.6322 7.4501,48.8952 C7.4291,49.1582 7.4181,49.4202 7.3001,49.6792 L7.2501,49.6792 C7.0821,49.4212 7.0211,49.1652 6.9501,48.9092 C6.8931,48.6532 6.9241,48.3942 6.9261,48.1352 C6.9211,47.6182 6.9301,47.0982 6.9521,46.5722 L7.0021,46.5672 Z" id="Fill-189" fill="#5D74E0"/>
                    <path d="M8.841,47.3231 C8.993,47.8501 9.133,48.3791 9.262,48.9081 C9.332,49.1731 9.43,49.4311 9.443,49.7031 C9.446,49.9751 9.448,50.2551 9.378,50.5321 L9.336,50.5571 C9.114,50.3121 9.046,50.0501 8.95,49.7871 C8.872,49.5231 8.883,49.2451 8.867,48.9711 C8.825,48.4271 8.8,47.8801 8.791,47.3311 L8.841,47.3231 Z" id="Fill-191" fill="#5D74E0"/>
                    <path d="M10.7067,47.6746 C10.8547,48.2096 10.9897,48.7516 11.1107,49.2996 C11.1767,49.5716 11.2707,49.8456 11.2767,50.1226 C11.2687,50.4006 11.2717,50.6766 11.1667,50.9496 L11.1167,50.9496 C10.9357,50.6786 10.8607,50.4096 10.7767,50.1416 C10.7057,49.8736 10.7237,49.6026 10.7117,49.3296 C10.6807,48.7856 10.6627,48.2376 10.6577,47.6826 L10.7067,47.6746 Z" id="Fill-193" fill="#5D74E0"/>
                    <path d="M36.1442,57.2889 C37.3612,56.8119 38.6172,56.4479 39.8812,56.1229 C41.1462,55.7959 42.4302,55.5519 43.7162,55.3229 C46.2962,54.9239 48.9132,54.6829 51.5222,54.8089 C50.2252,54.9609 48.9322,55.0739 47.6452,55.2519 C46.3582,55.4159 45.0732,55.5869 43.7962,55.8159 C42.5132,56.0019 41.2402,56.2519 39.9652,56.4969 C38.6892,56.7419 37.4192,57.0109 36.1442,57.2889" id="Fill-195" fill="#5D74E0"/>
                    <path d="M35.5065,61.0448 C37.0945,60.4308 38.7205,59.9208 40.3565,59.4498 C41.9935,58.9788 43.6535,58.5928 45.3215,58.2378 C46.9955,57.9198 48.6805,57.6328 50.3845,57.5028 C52.0835,57.3758 53.8115,57.3208 55.4905,57.6438 C53.7915,57.5288 52.1005,57.6808 50.4235,57.8848 C48.7465,58.0928 47.0755,58.3728 45.4195,58.7278 C43.7545,59.0388 42.1045,59.4298 40.4535,59.8208 C38.8025,60.2128 37.1565,60.6268 35.5065,61.0448" id="Fill-197" fill="#5D74E0"/>
                    <path d="M60.8766,21.5721 C61.0126,23.1191 61.0326,24.6751 60.9626,26.2301 C60.9176,27.7831 60.6206,29.3551 60.2146,30.8471 C59.8006,32.3411 59.3966,33.8291 59.0956,35.3371 C58.7866,36.8431 58.6096,38.3781 58.7146,39.9261 C58.4016,38.4001 58.4826,36.8081 58.7166,35.2701 C58.9436,33.7241 59.3556,32.2191 59.7316,30.7191 C59.9336,29.9741 60.1446,29.2291 60.2806,28.4841 C60.4206,27.7331 60.4956,26.9681 60.5816,26.2021 C60.7296,24.6681 60.8066,23.1221 60.8766,21.5721" id="Fill-199" fill="#5D74E0"/>
                    <path d="M63.4987,43.4705 C64.2107,42.7955 65.0097,42.2175 65.8597,41.7145 C66.2887,41.4695 66.7307,41.2415 67.2047,41.0695 C67.6757,40.8995 68.1697,40.7515 68.7027,40.7434932 C68.8387,40.7425 68.9507,40.8515 68.9517456,40.9865 C68.9537,41.0885 68.8897,41.1775 68.8017,41.2165 C68.1037,41.5225 67.4177,41.9195 66.7697,42.3505 C66.1237,42.7925 65.5257,43.3025 64.9867,43.8955 C65.3767,43.1955 65.9297,42.5805 66.5537,42.0665 C67.1737,41.5375 67.8587,41.1085 68.6127,40.7635 L68.7117,41.2355 C67.8167,41.2895 66.9107,41.6655 66.0517,42.0775 C65.1807,42.4855 64.3447,42.9785 63.4987,43.4705" id="Fill-201" fill="#5D74E0"/>
                    <path d="M71.1169,42.0174 C70.1819,42.4934 69.3029,42.9884 68.4859,43.5814 C68.0709,43.8684 67.6829,44.1884 67.3009,44.5214 C66.9109,44.8484 66.5719,45.2274 66.1919,45.5964 C66.5999,44.6244 67.3309,43.7884 68.1959,43.1754 C69.0629,42.5674 70.0629,42.1204 71.1169,42.0174" id="Fill-203" fill="#5D74E0"/>
                    <path d="M64.7384,48.1414 C65.0604,48.6934 65.3924,49.2394 65.7364,49.7744 L66.2684,50.5604 C66.4364,50.8274 66.5934,51.0954 66.8114,51.3254 C66.8174,51.3294 66.8194,51.3364 66.8154,51.3424 C66.8124,51.3474 66.8044,51.3484 66.8004,51.3474 C66.4814,51.2234 66.2704,50.9474 66.0634,50.7044 C65.8734,50.4414 65.7124,50.1624 65.5644,49.8764 C65.2554,49.3134 64.9744,48.7384 64.7164,48.1534 C64.7134,48.1464 64.7164,48.1394 64.7224,48.1364 C64.7284,48.1334 64.7354,48.1364 64.7384,48.1414" id="Fill-205" fill="#5D74E0"/>
                    <path d="M65.0915,47.5496 C65.3895,47.8856 65.6915,48.2166 65.9985,48.5396 C66.1595,48.6946 66.3135,48.8546 66.4655,49.0126 C66.6085,49.1816 66.7445,49.3466 66.9045,49.5056 C66.9105,49.5096 66.9125,49.5186 66.9085,49.5246 C66.9055,49.5276 66.8995,49.5286 66.8955,49.5286 C66.6525,49.4886 66.4655,49.3296 66.2885,49.1896 C66.1235,49.0296 65.9795,48.8546 65.8465,48.6706 C65.5695,48.3146 65.3125,47.9446 65.0715,47.5646 C65.0675,47.5586 65.0695,47.5506 65.0755,47.5466 C65.0805,47.5436 65.0875,47.5446 65.0915,47.5496" id="Fill-207" fill="#5D74E0"/>
                    <path d="M66.0612,46.7489 C66.2082,46.9829 66.3692,47.2069 66.5392,47.4159 C66.7362,47.6119 66.8862,47.8019 67.0252,48.0659 C67.0292,48.0729 67.0272,48.0809 67.0202,48.0849 C67.0182,48.0869 67.0142,48.0869 67.0112,48.0869 C66.7032,48.0249 66.4942,47.7859 66.3752,47.5299 C66.2332,47.2839 66.1212,47.0259 66.0382,46.7589 C66.0362,46.7519 66.0402,46.7449 66.0462,46.7429 C66.0522,46.7409 66.0582,46.7439 66.0612,46.7489" id="Fill-209" fill="#5D74E0"/>
                    <path d="M66.8166,46.1092 L67.2046,46.5662 C67.3586,46.7022 67.4436,46.8702 67.4946,47.0722 L67.4976,47.0832 C67.4986,47.0882 67.4956,47.0942 67.4896,47.0952 C67.4886,47.0962 67.4876,47.0962 67.4866,47.0962 C67.3456,47.0932 67.2686,47.0052 67.1896,46.9412 C67.1256,46.8602 67.0746,46.7722 67.0376,46.6762 C66.9456,46.4972 66.8656,46.3112 66.7956,46.1222 C66.7926,46.1162 66.7956,46.1082 66.8026,46.1062 C66.8076,46.1042 66.8136,46.1052 66.8166,46.1092" id="Fill-211" fill="#5D74E0"/>
                    <path d="M67.028,45.2098 L67.506,45.6378 C67.687,45.7598 67.806,45.9218 67.896,46.1278 L67.899,46.1348 C67.902,46.1408 67.899,46.1468 67.893,46.1498 C67.892,46.1508 67.89,46.1508 67.889,46.1508 C67.746,46.1608 67.652,46.0828 67.559,46.0248 C67.479,45.9498 67.412,45.8638 67.357,45.7708 C67.231,45.5958 67.115,45.4138 67.008,45.2268 C67.005,45.2198 67.007,45.2118 67.013,45.2088 C67.018,45.2058 67.024,45.2068 67.028,45.2098" id="Fill-213" fill="#5D74E0"/>
                    <path d="M67.7365,44.7616 C67.8725,44.8666 67.9995,44.9816 68.1165,45.1086 C68.2535,45.2166 68.3545,45.3776 68.3055,45.5906 C68.3035,45.5996 68.2955,45.6046 68.2865,45.6026 C68.2855,45.6026 68.2835,45.6016 68.2825,45.6016 C68.0965,45.5076 68.0115,45.3886 67.9545,45.2236 L67.7175,44.7776 C67.7145,44.7716 67.7165,44.7636 67.7225,44.7606 C67.7275,44.7576 67.7325,44.7586 67.7365,44.7616" id="Fill-215" fill="#5D74E0"/>
                    <path d="M68.9875,43.8856 C69.0965,43.9386 69.1985,44.0026 69.2935,44.0756 C69.4065,44.1316 69.4855,44.2386 69.4385,44.4076 C69.4355,44.4176 69.4265,44.4226 69.4175,44.4216 C69.2465,44.3996 69.1815,44.3246 69.1435,44.2086 L68.9705,43.9046 C68.9665,43.8986 68.9685,43.8906 68.9755,43.8866 C68.9785,43.8846 68.9835,43.8846 68.9875,43.8856" id="Fill-217" fill="#5D74E0"/>
                    <path d="M70.0983,43.1307 C70.2243,43.2077 70.3443,43.2927 70.4573,43.3887 C70.5843,43.4657 70.6913,43.5957 70.6443,43.7957 C70.6413,43.8037 70.6333,43.8097 70.6253,43.8077 C70.6253,43.8077 70.6213,43.8057 70.6213,43.8057 C70.4463,43.7477 70.3613,43.6607 70.3063,43.5197 L70.0803,43.1487 C70.0773,43.1427 70.0783,43.1347 70.0843,43.1307 C70.0893,43.1277 70.0943,43.1277 70.0983,43.1307" id="Fill-219" fill="#5D74E0"/>
                    <path d="M71.0675,42.4227 C71.2035,42.5327 71.3325,42.6517 71.4515,42.7797 C71.5855,42.8907 71.7075,43.0517 71.6365,43.2787 C71.6345,43.2857 71.6285,43.2897 71.6215,43.2877 C71.6205,43.2877 71.6195,43.2867 71.6185,43.2867 L71.6125,43.2827 C71.4465,43.1797 71.3465,43.0677 71.2895,42.8967 L71.0475,42.4387 C71.0445,42.4327 71.0465,42.4247 71.0535,42.4217 C71.0585,42.4187 71.0635,42.4197 71.0675,42.4227" id="Fill-221" fill="#5D74E0"/>
                </g>
            </g>
        </g>
        <g id="Male Accesories" transform="translate(108.000000, 70.000000) scale(1 1)">
            <g id="Male Accesories/Glasses" stroke="none" stroke-width="1" fill="none" fill-rule="evenodd">
                <g id="Accesories" transform="translate(6.000000, 15.000000)" fill="#1E2214">
                    <path d="M12.0980239,0.625 L7.09802389,0.625 C6.33863236,0.625 5.72302389,1.24060847 5.72302389,2 L5.72302389,5 C5.72302389,5.75939153 6.33863236,6.375 7.09802389,6.375 L12.0980239,6.375 C12.8574154,6.375 13.4730239,5.75939153 13.4730239,5 L13.4730239,2 C13.4730239,1.24060847 12.8574154,0.625 12.0980239,0.625 Z M7.09802389,1.375 L12.0980239,1.375 C12.4432019,1.375 12.7230239,1.65482203 12.7230239,2 L12.7230239,5 C12.7230239,5.34517797 12.4432019,5.625 12.0980239,5.625 L7.09802389,5.625 C6.75284592,5.625 6.47302389,5.34517797 6.47302389,5 L6.47302389,2 C6.47302389,1.65482203 6.75284592,1.375 7.09802389,1.375 Z" id="Rectangle" fill-rule="nonzero"/>
                    <path d="M20.0980239,0.625 L16.0980239,0.625 C15.3386324,0.625 14.7230239,1.24060847 14.7230239,2 L14.7230239,5 C14.7230239,5.75939153 15.3386324,6.375 16.0980239,6.375 L20.0980239,6.375 C20.8574154,6.375 21.4730239,5.75939153 21.4730239,5 L21.4730239,2 C21.4730239,1.24060847 20.8574154,0.625 20.0980239,0.625 Z M16.0980239,1.375 L20.0980239,1.375 C20.4432019,1.375 20.7230239,1.65482203 20.7230239,2 L20.7230239,5 C20.7230239,5.34517797 20.4432019,5.625 20.0980239,5.625 L16.0980239,5.625 C15.7528459,5.625 15.4730239,5.34517797 15.4730239,5 L15.4730239,2 C15.4730239,1.65482203 15.7528459,1.375 16.0980239,1.375 Z" id="Rectangle-Copy" fill-rule="nonzero"/>
                    <path d="M13.0822585,2.98873658 C14.019965,2.61457941 14.6866317,2.61457941 15.0822585,2.98873658 C15.0241884,2.33708781 14.9951533,2.01126342 14.9951533,2.01126342 L13.0822585,2.01126342 L13.0822585,2.98873658 Z" id="Path-2"/>
                    <polygon id="Path-3" points="6.23948432 2.5 0 2.28173765 0 1.71349515 6.39934039 1.16932173"/>
                </g>
            </g>
        </g>
    </g>
</svg>
