<svg viewBox="108.4 69.854 84.688 186.503" xmlns="http://www.w3.org/2000/svg" overflow="visible">
    <g id="Master/Female Character/Sitting" stroke="none" stroke-width="1" fill="none" fill-rule="evenodd">
        <g id="Female Sitting Lower" transform="translate(68.000000, 108.000000) scale(1 1)">
            <g id="Female Sitting Lower/Skirt 2" stroke="none" stroke-width="1" fill="none" fill-rule="evenodd">
                <g id="Group-20" transform="translate(41.000000, 31.000000)">
                    <path d="M17.7327,4.215 C17.7327,4.215 22.9957,0.613 28.6737,0.891 C34.3517,1.168 38.6637,2.968 40.2467,11.694 C40.2467,11.694 53.0487,14.048 65.7897,25.958 C78.5307,37.868 79.0857,38.284 77.4227,47.979 C75.7617,57.673 70.9147,69.445 70.9147,69.445 L69.2367,87.667 C69.2367,87.667 71.5837,94.131 74.6617,96.208 C77.7397,98.286 79.6897,99.286 78.0997,100.748 C76.5087,102.21 76.1237,100.441 73.0457,100.748 C69.9677,101.056 69.6597,99.441 69.6597,99.441 C69.6597,99.441 73.2767,108.136 79.6637,111.906 C79.6637,111.906 81.8177,113.907 79.6637,114.83 C77.5087,115.754 71.5067,115.677 68.6597,113.753 C65.8127,111.829 59.9637,106.904 58.0407,106.365 C56.1167,105.827 57.0397,102.98 57.0397,102.98 L59.8107,95.285 C59.8107,95.285 59.0407,94.284 56.8857,93.592 C54.7317,92.9 53.5777,89.976 53.8077,88.898 C54.0387,87.82 57.8867,82.358 57.9637,78.356 C57.9637,78.356 56.0397,72.893 53.4237,68.044 C50.8067,63.196 54.1927,51.423 56.1167,48.268 C56.1167,48.268 53.1157,48.73 47.4207,49.192 C41.7267,49.653 22.3867,51.041 11.0447,44.794 C-0.2983,38.546 0.8187,17.364 17.7327,4.215" id="Fill-1" fill="#ffc280"/>
                    <path d="M33.0574,19.8449 C36.7784,20.6989 40.4544,21.7789 44.0484,23.0889 C47.6384,24.4069 51.1764,25.8979 54.5574,27.7119 C57.9294,29.5329 61.1904,31.6089 64.0954,34.1489 C67.0074,36.6599 69.5024,39.7529 71.0374,43.3319 L71.0634,43.3929 L71.0634,43.4599 C71.0914,47.7909 71.0754,52.1209 71.0514,56.4519 C71.0514,60.7829 70.9634,65.1149 70.9144,69.4459 C70.8024,65.1159 70.6514,60.7859 70.5884,56.4549 C70.5024,52.1259 70.4234,47.7959 70.3884,43.4649 L70.4144,43.5929 C68.9144,40.1449 66.4504,37.1799 63.6084,34.7019 C60.7804,32.1899 57.5744,30.1129 54.2474,28.2839 C50.9064,26.4759 47.4494,24.8659 43.8974,23.4879 C40.3464,22.1119 36.7464,20.8329 33.0574,19.8449" id="Fill-3" fill="#000"/>
                    <path d="M57.9636,78.3557 C58.5866,79.6657 59.0686,81.0367 59.4906,82.4237 C59.9046,83.8157 60.2306,85.2347 60.4596,86.6727 C60.6446,88.1147 60.7976,89.5717 60.7116,91.0327 C60.6246,92.4867 60.3776,93.9467 59.8106,95.2857 C60.1796,93.8817 60.3196,92.4527 60.3266,91.0227 C60.3326,89.5917 60.1856,88.1627 59.9656,86.7477 C59.7806,85.3247 59.4526,83.9237 59.1216,82.5247 C58.7796,81.1267 58.3936,79.7377 57.9636,78.3557" id="Fill-5" fill="#000"/>
                    <path d="M69.2366,87.6672 C69.1106,89.6522 69.0026,91.6192 69.0216,93.5862 C69.0406,95.5532 69.1826,97.5072 69.6596,99.4402 C69.2286,98.5402 68.9666,97.5632 68.7826,96.5792 C68.6056,95.5922 68.5436,94.5902 68.5226,93.5912 C68.5196,92.5912 68.5696,91.5932 68.6916,90.6032 C68.8116,89.6132 68.9696,88.6282 69.2366,87.6672" id="Fill-7" fill="#000"/>
                    <path d="M55.7888,48.3156 C55.8558,47.7506 56.1168,47.2566 56.4308,46.8146 C56.7598,46.3826 57.1608,45.9926 57.6778,45.7606 C57.5618,46.0226 57.4148,46.2426 57.2758,46.4666 C57.1388,46.6926 56.9828,46.8996 56.8328,47.1116 C56.5158,47.5256 56.2008,47.9306 55.7888,48.3156" id="Fill-9" fill="#703312"/>
                    <g id="Group-13" transform="translate(55.000000, 96.000000)" fill="#F90606">
                        <path d="M3.9343,0.3732 C3.9343,0.3732 4.3533,0.3112 4.3923,0.4472 C4.4283,0.5772 4.1443,1.1352 4.1443,1.1352 C4.7273,3.2762 6.3383,9.3492 6.5123,11.7752 C6.5443,12.2242 6.7813,12.6252 7.1543,12.8752 L13.5853,17.1772 C14.1593,17.5612 14.9323,17.4062 15.3143,16.8302 C16.3523,15.2672 18.4903,12.5512 20.7303,12.7092 C20.7303,12.7092 29.1243,17.3112 29.1243,17.8962 C29.1243,18.4802 23.8373,21.6202 14.2143,18.9182 C14.2143,18.9182 6.4893,13.4422 3.9343,11.8362 C1.3783,10.2292 -0.3737,9.4992 0.8673,6.5792 C2.1083,3.6582 3.9343,0.3732 3.9343,0.3732" id="Fill-11"/>
                    </g>
                    <path d="M69.5623,99.1633 L70.0013,100.1943 C70.0013,100.1943 74.5243,102.9633 80.7713,100.3933 C80.7713,100.3933 81.4493,99.9883 80.9073,99.7453 C80.3643,99.5013 74.8253,95.8533 74.3773,96.0003 C73.9293,96.1473 71.7403,99.4733 69.5623,99.1633" id="Fill-14" fill="#F90606"/>
                    <path d="M55.8718,84.2199 C55.8718,84.2199 50.7068,89.2169 52.5758,92.1969 C53.1858,93.1689 59.6908,95.6159 59.6908,95.6159 L59.8098,95.2849 C59.4328,94.3379 58.3718,92.2119 58.1038,90.7639 L55.8718,84.2199 Z" id="Fill-16" fill="#F90606"/>
                    <path d="M28.6736,0.8908 C28.6736,0.8908 21.6956,-0.4592 16.2706,4.1398 C10.8446,8.7388 -7.7264,25.9968 3.5896,39.1238 C14.9046,52.2518 37.8136,51.3508 54.0296,48.7778 C54.0296,48.7778 54.1526,49.3018 53.6546,49.8208 C53.6546,49.8208 66.1446,53.9008 70.9146,51.7878 C75.6836,49.6758 75.5916,50.1348 77.8416,49.1708 C77.8416,49.1708 80.4656,42.0438 76.7266,36.6158 C72.9876,31.1878 54.5496,13.5498 40.2466,11.6938 L38.7296,5.6158 C38.7296,5.6158 38.3306,0.5098 28.6736,0.8908" id="Fill-18" fill="#FF990A"/>
                </g>
            </g>
        </g>
        <g id="Female Top" transform="translate(82.000000, 93.000000) scale(1 1)">
            <g id="Female Top/Sweater 9" stroke="none" stroke-width="1" fill="none" fill-rule="evenodd">
                <g id="Group-139" transform="translate(28.000000, 0.000000)">
                    <path d="M44.6374,28.3971 C44.6374,28.3971 47.5334,35.5821 48.4884,43.3241 C48.4884,43.3241 55.8544,42.0901 59.7174,39.9591 C59.7174,39.9591 61.2794,37.0971 62.8504,36.5921 C64.4214,36.0871 69.6384,34.7441 69.6384,35.6121 C69.6384,36.4801 68.3484,37.2101 68.3484,37.2101 C68.3484,37.2101 69.4144,37.5451 71.0974,37.2651 C72.7804,36.9851 74.8004,37.9071 74.8004,37.9071 C74.8004,37.9071 76.0904,38.1591 76.7634,38.5821 C77.4364,39.0041 77.2124,40.0141 74.5194,39.9021 C74.5194,39.9021 75.3044,40.2391 75.0244,40.7441 C74.7434,41.2491 72.1074,41.1921 70.3674,42.0901 C68.6284,42.9881 63.6354,42.2581 63.6354,42.2581 C63.6354,42.2581 53.9294,50.5051 48.4314,52.4691 C42.9334,54.4321 41.1944,50.0561 39.9044,43.1001 C38.6144,36.1431 37.4204,25.5871 44.6374,28.3971" id="Fill-1" fill="#ffc280"/>
                    <path d="M62.9367,36.9362 C63.2607,36.5842 63.7647,36.4582 64.2327,36.4252 C64.7087,36.3902 65.1867,36.4982 65.6387,36.5732 C66.5447,36.7572 67.4517,36.9352 68.3487,37.2082 C67.4217,37.1402 66.5037,36.9752 65.5867,36.8172 C65.1287,36.7192 64.6927,36.6242 64.2377,36.6172 C63.7937,36.6192 63.3167,36.6612 62.9367,36.9362" id="Fill-3" fill="#000"/>
                    <path d="M70.0739,38.5817 C70.9069,38.2277 71.7989,38.0407 72.6939,37.9157 C73.1449,37.8717 73.5979,37.8437 74.0509,37.8557 C74.5049,37.8717 74.9559,37.9357 75.3929,38.0487 C73.5939,37.9597 71.8459,38.2637 70.0739,38.5817" id="Fill-5" fill="#000"/>
                    <path d="M63.2638,39.3259 C64.1128,38.8609 65.0808,38.6089 66.0688,38.5699 C66.5628,38.5429 67.0648,38.6029 67.5518,38.7149 C68.0208,38.8289 68.4878,38.9659 68.9488,39.1029 C69.4098,39.2529 69.8408,39.3879 70.2948,39.4289 C70.7498,39.4799 71.2308,39.4709 71.7008,39.4719 C72.1728,39.4719 72.6458,39.4139 73.1438,39.4199 C73.6448,39.4339 74.1358,39.6129 74.5198,39.9019 C73.6218,39.4319 72.6978,39.7599 71.7248,39.8569 C71.2368,39.9119 70.7548,39.9259 70.2538,39.8999 C69.7468,39.8709 69.2528,39.7189 68.8008,39.5809 C67.8788,39.2999 66.9928,38.9819 66.0668,38.9529 C65.1368,38.9129 64.1858,39.0549 63.2638,39.3259" id="Fill-7" fill="#000"/>
                    <g id="Group-11" transform="translate(1.000000, 0.190200)" fill="#ffc280">
                        <path d="M38.2585,58.0575 C36.0605,57.7985 34.3055,57.7255 34.0335,57.8375 C33.7625,57.9515 32.9255,57.9785 32.1365,57.8945 C31.3475,57.8095 28.6715,59.6135 26.6705,60.3665 C24.6705,61.1205 24.6175,60.7335 24.6175,60.7335 C19.4785,58.0755 11.3685,53.6405 11.3685,53.6405 L10.6385,37.1075 L14.4955,44.6975 L14.8975,49.9575 C19.7745,54.6825 36.3885,51.5785 36.3885,51.5785 L37.7125,44.6135 C37.7125,44.6135 45.4905,32.0265 43.3825,27.3875 C41.2745,22.7485 33.4735,15.7915 28.0275,11.7555 C28.0275,11.7555 29.3035,3.6785 26.1625,1.5275 C23.0215,-0.6255 21.8495,2.7515 21.8495,2.7515 C21.8495,2.7515 21.5015,9.6795 18.6695,11.6835 C15.8375,13.6885 2.9615,19.7775 1.3245,29.3905 C-0.3125,39.0025 2.7375,57.5995 3.8685,58.3695 C4.9995,59.1385 22.0135,67.0885 27.0645,65.8735 C32.1155,64.6595 34.0335,63.1245 34.0335,63.1245 L34.7505,62.7005 C35.6225,62.1835 36.6825,62.0865 37.6335,62.4425 C38.2285,62.6635 38.7125,62.6995 38.8495,62.7505 C39.1015,62.8455 41.0435,63.4595 42.1475,62.7365 C42.4255,62.5545 42.0925,61.9575 41.5705,61.9345 C41.3055,61.9225 42.0095,61.8535 42.1275,61.5335 C42.2125,61.2995 41.6535,61.0585 41.2625,60.8325 C41.0225,60.6935 41.5195,60.5805 41.7355,60.3665 C41.7355,60.3665 41.1805,59.0045 38.2585,58.0575" id="Fill-9"/>
                    </g>
                    <path d="M35.2653,59.3288 C36.6393,59.7558 37.9863,60.2308 39.3283,60.7148 L41.3563,61.4358 C41.6943,61.5628 42.0303,61.6938 42.3653,61.8468 C42.5323,61.9248 42.6993,62.0028 42.8663,62.1018 C42.9503,62.1528 43.0343,62.2058 43.1193,62.2768 C43.1973,62.3598 43.3173,62.4158 43.3563,62.6688 C43.3283,62.9598 43.2053,62.9988 43.1233,63.0878 C43.0323,63.1648 42.9373,63.2168 42.8423,63.2608 C42.6513,63.3458 42.4573,63.4008 42.2653,63.4278 C41.8803,63.4888 41.5013,63.4758 41.1313,63.4358 C40.3933,63.3508 39.6813,63.1418 39.0133,62.8868 C37.7353,62.4038 36.1703,62.3908 35.0343,63.3148 C35.5133,62.7698 36.2233,62.4618 36.9443,62.3298 C37.6763,62.2208 38.4283,62.3118 39.1333,62.5208 C39.8203,62.7198 40.4883,62.9268 41.1783,62.9828 C41.5193,63.0148 41.8623,63.0168 42.1833,62.9568 C42.3463,62.9328 42.4973,62.8818 42.6323,62.8188 C42.6983,62.7868 42.7603,62.7488 42.8053,62.7098 C42.8553,62.6878 42.8763,62.5868 42.8573,62.6938 C42.8993,62.7688 42.7413,62.5768 42.6133,62.5188 C42.4743,62.4328 42.3183,62.3538 42.1633,62.2778 C41.8493,62.1268 41.5213,61.9908 41.1923,61.8588 C40.5353,61.5898 39.8543,61.3768 39.1983,61.0748 C37.8753,60.5138 36.5573,59.9448 35.2653,59.3288" id="Fill-12" fill="#000"/>
                    <path d="M34.4767,58.3551 C35.3137,58.0241 36.2577,58.1511 37.1167,58.3441 C37.9947,58.5431 38.8077,58.9051 39.6097,59.2711 C40.4047,59.6581 41.1797,60.0901 41.9097,60.5801 C42.2847,60.8261 42.6177,61.0651 43.0207,61.2801 C43.1197,61.3501 43.2347,61.4561 43.2497,61.6201 C43.2627,61.7881 43.1417,61.8951 43.0477,61.9581 C42.8427,62.0871 42.6147,62.1151 42.3957,62.1251 C42.6047,62.0641 42.8177,61.9851 42.9667,61.8521 C43.1357,61.7051 43.0747,61.5661 42.8937,61.4901 C42.5017,61.3371 42.0937,61.1071 41.7137,60.9111 C40.9417,60.5011 40.1787,60.0911 39.3947,59.7221 C38.6117,59.3511 37.8227,58.9871 37.0127,58.7121 C36.2017,58.4551 35.3467,58.2311 34.4767,58.3551" id="Fill-14" fill="#000"/>
                    <g id="Group-18" transform="translate(0.000000, 12.190200)" fill="#F44">
                        <path d="M13.8825,3.289 C13.8825,3.289 14.6665,-0.01 16.8365,0.736 C19.0065,1.482 20.3615,3.877 24.8375,3.289 C29.3125,2.702 30.1935,-0.297 32.2275,0.627 C34.2615,1.55 34.0135,3.748 34.0135,3.748 C34.0135,3.748 42.0595,9.279 44.1615,13.348 C46.2635,17.416 48.7045,30.299 48.7045,30.299 C48.7045,30.299 51.2475,29.123 53.5695,30.017 C53.5695,30.017 55.0285,28.023 57.3725,28.822 C57.3725,28.822 57.5755,32.125 59.7165,33.213 C59.7165,33.213 58.8435,34.614 58.2085,34.718 C58.2085,34.718 57.9335,38.236 55.4065,39.716 C52.8805,41.194 43.4345,45.879 41.7165,40.455 C39.9995,35.031 39.9375,35.709 39.9375,35.709 C39.9375,35.709 38.0885,43.092 28.9665,43.006 C19.8455,42.92 15.3465,41.01 14.4845,38.852 C13.6215,36.695 12.6345,32.135 12.6345,32.135 L12.6345,40.393 C12.6345,40.393 20.4625,43.783 20.6475,45.693 C20.6475,45.693 22.7835,46.125 22.6395,47.173 C22.6395,47.173 21.6245,52.265 19.6875,52.522 C17.7505,52.781 16.1525,51.302 16.1525,51.302 C16.1525,51.302 5.9175,50.986 4.3145,47.139 C2.7125,43.29 -1.6985,34.376 0.6985,19.993 C3.0955,5.611 13.8825,3.289 13.8825,3.289" id="Fill-16"/>
                    </g>
                    <path d="M13.8825,15.4801 C15.3885,16.5921 17.0175,17.5231 18.7115,18.2771 C20.4085,19.0181 22.1925,19.5761 24.0245,19.7511 C25.8565,19.9741 27.7135,19.6721 29.4215,19.0171 C29.8395,18.8301 30.2785,18.6741 30.6855,18.4591 L31.8515,17.7081 C32.2655,17.4871 32.6015,17.1651 32.9515,16.8561 L34.0135,15.9371 C32.7605,17.3071 31.3635,18.6701 29.5695,19.3731 C27.8285,20.1281 25.8765,20.4411 23.9765,20.2481 C22.0815,20.0251 20.2455,19.4561 18.5495,18.6251 C16.8605,17.7851 15.2615,16.7541 13.8825,15.4801" id="Fill-19" fill="#9E2020"/>
                    <path d="M16.0944,17.0749 C15.9194,16.3279 15.9644,15.5579 16.1634,14.8119 C16.2814,14.4449 16.4344,14.0699 16.7144,13.7649 C16.9734,13.4529 17.4294,13.2479 17.8064,13.3809 C17.4274,13.4709 17.1824,13.7069 17.0204,13.9969 C16.8624,14.2909 16.7404,14.6139 16.6424,14.9529 C16.4424,15.6329 16.3084,16.3439 16.0944,17.0749" id="Fill-21" fill="#9E2020"/>
                    <path d="M18.359,18.3346 C18.29,17.9826 18.293,17.6336 18.317,17.2856 C18.334,16.9366 18.408,16.5936 18.499,16.2536 C18.6,15.9176 18.731,15.5826 18.931,15.2806 C19.125,14.9836 19.376,14.6846 19.724,14.5636 C19.51,14.8476 19.387,15.1466 19.275,15.4536 C19.171,15.7636 19.064,16.0716 18.979,16.3936 C18.785,17.0286 18.623,17.6776 18.359,18.3346" id="Fill-23" fill="#9E2020"/>
                    <path d="M22.2878,15.4801 C22.6278,16.1441 22.7798,16.8691 22.8268,17.6031 C22.8408,17.9711 22.8328,18.3451 22.7478,18.7131 C22.6688,19.0771 22.5478,19.4531 22.2878,19.7321 C22.3578,19.3671 22.3668,19.0221 22.3658,18.6731 C22.3568,18.3261 22.3518,17.9781 22.3278,17.6271 C22.3028,16.9251 22.2468,16.2221 22.2878,15.4801" id="Fill-25" fill="#9E2020"/>
                    <path d="M25.403,15.3864 C25.7,15.6934 25.918,16.0584 26.104,16.4384 C26.292,16.8194 26.424,17.2284 26.496,17.6544 C26.557,18.0804 26.574,18.5254 26.468,18.9524 C26.361,19.3794 26.154,19.7824 25.84,20.0704 C25.979,19.6654 26.066,19.2854 26.088,18.8974 C26.096,18.5084 26.068,18.1214 26.003,17.7364 C25.88,16.9574 25.634,16.1974 25.403,15.3864" id="Fill-27" fill="#9E2020"/>
                    <path d="M28.172,14.5641 C28.604,14.7341 28.971,15.0471 29.264,15.4211 C29.56,15.7961 29.749,16.2601 29.825,16.7401 C29.875,17.2331 29.862,17.6561 29.83,18.1181 C29.794,18.5701 29.746,19.0251 29.606,19.4661 C29.538,19.0121 29.49,18.5691 29.445,18.1231 C29.389,17.6881 29.382,17.2101 29.33,16.8101 C29.215,15.9901 28.793,15.2351 28.172,14.5641" id="Fill-29" fill="#9E2020"/>
                    <path d="M29.4128,13.6061 C29.9158,13.5741 30.4258,13.6841 30.8958,13.9111 C31.3718,14.1271 31.7898,14.5291 32.0168,15.0361 C32.2258,15.5631 32.2608,16.0531 32.2338,16.5791 C32.1898,17.0881 32.0538,17.6161 31.7138,17.9991 C31.8648,17.5241 31.8828,17.0441 31.8498,16.5781 C31.7938,16.1271 31.7278,15.6171 31.5588,15.2351 C31.2178,14.4271 30.3368,13.9421 29.4128,13.6061" id="Fill-31" fill="#9E2020"/>
                    <path d="M12.6349,44.3249 C12.5269,41.2589 12.6129,38.1899 12.6819,35.1239 L12.7789,32.8269 C12.7829,32.0709 12.8799,31.2649 13.1129,30.5299 C13.5309,29.0419 14.0749,27.6049 14.7039,26.2049 C14.2699,27.6759 13.8189,29.1399 13.4869,30.6229 C13.4059,30.9929 13.3389,31.3639 13.2839,31.7309 C13.2249,32.0899 13.2509,32.4889 13.2319,32.8659 L13.1799,35.1609 C13.0519,38.2159 12.9399,41.2689 12.6349,44.3249" id="Fill-33" fill="#9E2020"/>
                    <path d="M39.3722,24.7565 C40.1492,26.5995 40.8092,28.4875 41.3982,30.4025 C41.9762,32.3185 42.4522,34.2695 42.7332,36.2705 C42.8312,37.2715 42.8872,38.3115 42.6692,39.3265 C42.4522,40.3085 42.2132,41.2805 41.9182,42.2385 C41.3452,44.1565 40.6932,46.0485 39.9372,47.9005 C40.4972,45.9815 41.0552,44.0665 41.5472,42.1365 C41.7822,41.1695 42.0332,40.2065 42.2242,39.2345 C42.4122,38.2855 42.3452,37.3095 42.2372,36.3295 C42.0032,34.3685 41.5252,32.4325 41.0292,30.5055 C40.5202,28.5805 39.9552,26.6675 39.3722,24.7565" id="Fill-35" fill="#9E2020"/>
                    <path d="M17.8068,18.0592 C17.6458,18.6282 17.5458,19.2202 17.6638,19.7442 C17.7308,20.0032 17.8358,20.2312 18.0118,20.4222 C18.1998,20.6382 18.3928,20.8512 18.5998,21.0152 C18.6988,21.0972 18.8078,21.1712 18.8858,21.1932 C18.9698,21.2052 18.9278,21.2202 18.9888,21.1582 C19.0918,20.9972 19.0908,20.6972 19.1028,20.4132 C19.1038,19.8382 19.0558,19.2472 19.0418,18.6502 C19.2588,19.2102 19.4058,19.7882 19.4868,20.3912 C19.5208,20.6902 19.5678,21.0122 19.4028,21.3872 C19.3348,21.5972 18.9628,21.7602 18.7608,21.6652 C18.5528,21.6072 18.4168,21.5042 18.2858,21.4042 C18.0368,21.1922 17.8338,20.9622 17.6468,20.7222 C17.4448,20.4582 17.3028,20.1272 17.2848,19.8022 C17.2338,19.1482 17.4608,18.5462 17.8068,18.0592" id="Fill-37" fill="#9E2020"/>
                    <path d="M18.2018,20.9889 C17.9978,21.5329 17.8318,22.1069 17.8898,22.6239 C17.9298,22.8769 18.0168,23.0989 18.1948,23.2559 C18.3898,23.4429 18.6038,23.6159 18.8278,23.7239 C19.0558,23.8489 19.2628,23.8599 19.3268,23.7629 C19.4368,23.6499 19.4458,23.3579 19.4408,23.0889 C19.4158,22.5349 19.2978,21.9739 19.0418,21.4469 C19.4728,21.8599 19.7148,22.4499 19.8228,23.0449 C19.8688,23.3379 19.9358,23.6829 19.6988,24.0539 C19.5718,24.2419 19.3118,24.3319 19.1188,24.3149 C18.9178,24.3059 18.7518,24.2449 18.6038,24.1709 C18.3088,24.0139 18.0688,23.8109 17.8578,23.5859 C17.6158,23.3299 17.4918,22.9679 17.5078,22.6439 C17.5298,21.9909 17.8218,21.4379 18.2018,20.9889" id="Fill-39" fill="#9E2020"/>
                    <path d="M18.0216,23.4167 C17.7976,23.9917 17.7386,24.6197 17.9506,25.1317 C18.0596,25.3857 18.2196,25.6007 18.4176,25.8447 C18.6036,26.0797 18.7906,26.3197 18.9956,26.5127 C19.0916,26.6087 19.2036,26.7027 19.2786,26.7337 C19.3206,26.7507 19.3106,26.7397 19.2946,26.7497 C19.2946,26.7497 19.2866,26.7517 19.2826,26.7627 L19.3076,26.7027 C19.3846,26.4637 19.3956,26.1497 19.4156,25.8577 C19.4266,25.2637 19.4016,24.6537 19.1806,24.0747 C19.5916,24.5627 19.7326,25.2217 19.8006,25.8467 C19.8336,26.1677 19.8366,26.4777 19.7616,26.8357 C19.7476,26.8857 19.7316,26.9347 19.7036,26.9917 C19.6606,27.0687 19.6016,27.1317 19.5346,27.1697 C19.3836,27.2597 19.2026,27.2317 19.1046,27.1897 C18.8946,27.1037 18.7716,26.9847 18.6466,26.8707 C18.4116,26.6327 18.2206,26.3827 18.0386,26.1257 C17.8716,25.8777 17.6616,25.5877 17.5856,25.2487 C17.4096,24.5797 17.6186,23.8907 18.0216,23.4167" id="Fill-41" fill="#9E2020"/>
                    <path d="M18.0216,25.7009 C17.8816,26.2649 17.7636,26.8379 17.7976,27.3739 C17.8256,27.6409 17.8806,27.8829 18.0256,28.0749 C18.1736,28.2889 18.3566,28.4859 18.5636,28.6469 C18.7616,28.8139 19.0046,28.9539 19.2096,28.9979 C19.3196,29.0199 19.3616,29.0049 19.3746,28.9869 C19.3996,28.9699 19.4266,28.8119 19.4336,28.6869 C19.4466,28.1459 19.3396,27.5659 19.2676,26.9869 C19.5376,27.5119 19.7446,28.0589 19.8186,28.6769 C19.8236,28.8359 19.8646,28.9859 19.7446,29.2219 C19.6026,29.4639 19.3036,29.4959 19.1376,29.4659 C18.7726,29.4019 18.5026,29.2279 18.2516,29.0379 C18.0096,28.8349 17.7946,28.6009 17.6276,28.3289 C17.4496,28.0359 17.3846,27.6839 17.4156,27.3759 C17.4636,26.7499 17.6926,26.1889 18.0216,25.7009" id="Fill-43" fill="#9E2020"/>
                    <path d="M17.797,28.1559 C17.589,28.6959 17.496,29.2629 17.591,29.7799 C17.693,30.2839 17.973,30.7749 18.367,31.0539 C18.556,31.1969 18.799,31.2739 18.984,31.2429 C19.179,31.2089 19.211,31.1389 19.207,30.8319 C19.174,30.2949 19.028,29.7269 18.925,29.1579 C19.223,29.6619 19.464,30.1859 19.589,30.7889 C19.61,30.9439 19.658,31.0959 19.568,31.3259 C19.476,31.5409 19.266,31.6659 19.081,31.7069 C18.698,31.7849 18.353,31.6489 18.081,31.4639 C17.546,31.0629 17.242,30.4529 17.211,29.8219 C17.184,29.1939 17.411,28.5949 17.797,28.1559" id="Fill-45" fill="#9E2020"/>
                    <path d="M17.8561,30.9079 C17.6121,31.5759 17.4811,32.2799 17.5681,32.9369 C17.6761,33.5659 17.9731,34.2799 18.5411,34.3159 C18.6811,34.3359 18.8351,34.3269 18.9931,34.2999 C19.0721,34.2859 19.1521,34.2679 19.2321,34.2469 C19.3011,34.2129 19.2361,34.2589 19.2671,34.2259 C19.3331,34.0649 19.2211,33.6559 19.1361,33.3479 C18.9321,32.6869 18.6521,32.0319 18.3981,31.3639 C18.8351,31.9339 19.2041,32.5479 19.4971,33.2169 C19.5721,33.3839 19.6421,33.5539 19.6861,33.7429 C19.7301,33.9289 19.7851,34.1249 19.7071,34.4009 C19.6681,34.4739 19.6541,34.5529 19.5681,34.6029 C19.4991,34.6579 19.3881,34.7129 19.3601,34.7129 C19.2701,34.7389 19.1761,34.7619 19.0821,34.7799 C18.8911,34.8169 18.6871,34.8379 18.4751,34.8109 C18.0391,34.7669 17.6461,34.4389 17.4721,34.0829 C17.2941,33.7249 17.1931,33.3539 17.1871,32.9689 C17.1721,32.2069 17.4281,31.4849 17.8561,30.9079" id="Fill-47" fill="#9E2020"/>
                    <path d="M17.5675,33.7409 C17.3285,34.3189 17.1055,34.9229 17.1105,35.4939 C17.1255,35.7739 17.1925,36.0289 17.3735,36.1929 C17.5345,36.3429 17.8495,36.5169 18.0945,36.6209 C18.3475,36.7359 18.6445,36.8039 18.8125,36.7389 C18.9655,36.7019 18.9775,36.5109 18.8845,36.2029 C18.7025,35.6319 18.4275,35.0579 18.1935,34.4709 C18.6075,34.9569 18.9655,35.4719 19.2455,36.0679 C19.3105,36.2179 19.3865,36.3839 19.3805,36.6079 C19.3835,36.8269 19.2175,37.0869 19.0015,37.1739 C18.5675,37.3369 18.2125,37.1969 17.8975,37.0799 C17.5785,36.9209 17.3245,36.8029 17.0305,36.5169 C16.7635,36.2249 16.6805,35.8149 16.7285,35.4769 C16.8155,34.7889 17.1535,34.2199 17.5675,33.7409" id="Fill-49" fill="#9E2020"/>
                    <path d="M17.3854,36.5104 C17.2864,37.1884 17.2084,37.8754 17.3004,38.5114 C17.3624,38.8324 17.4534,39.0964 17.6634,39.3144 C17.8654,39.5414 18.1194,39.7344 18.3854,39.8164 C18.5124,39.8594 18.6494,39.8714 18.7234,39.8434 C18.7854,39.8124 18.8154,39.7894 18.8214,39.6644 C18.8184,39.4064 18.6944,39.0624 18.6024,38.7484 C18.3904,38.1084 18.1384,37.4714 17.9204,36.8164 C18.3244,37.3784 18.6654,37.9764 18.9604,38.6074 C19.1084,38.9304 19.2444,39.2324 19.2954,39.6574 C19.3294,39.8764 19.1664,40.2094 18.9004,40.2984 C18.6494,40.3904 18.4274,40.3484 18.2324,40.2914 C17.8464,40.1574 17.5414,39.9104 17.3034,39.6194 C17.0544,39.3234 16.9204,38.9074 16.9194,38.5494 C16.9024,37.8184 17.0904,37.1354 17.3854,36.5104" id="Fill-51" fill="#9E2020"/>
                    <path d="M17.3854,39.3464 C17.1024,39.9654 16.9464,40.6674 17.1544,41.2424 C17.2654,41.5344 17.4424,41.7484 17.6994,41.9744 C17.9414,42.1984 18.1934,42.4114 18.4654,42.5774 C18.5984,42.6634 18.7374,42.7384 18.8724,42.7924 C19.0024,42.8544 19.1604,42.8454 19.1604,42.8454 C19.1484,42.8554 19.1534,42.8704 19.1614,42.8254 C19.1614,42.7644 19.1534,42.6864 19.1424,42.6074 L19.0544,42.1164 C18.9194,41.4504 18.7554,40.7834 18.6364,40.1014 C18.9524,40.7194 19.2094,41.3574 19.4274,42.0184 C19.4844,42.1824 19.5344,42.3514 19.5734,42.5274 C19.5914,42.6174 19.6104,42.7084 19.6174,42.8204 C19.6234,42.9424 19.5774,43.1404 19.4144,43.2444 C19.1004,43.4044 18.8904,43.3024 18.7064,43.2514 C18.5214,43.1834 18.3554,43.0974 18.1984,43.0004 C17.8904,42.7994 17.6184,42.5654 17.3694,42.3114 C17.1304,42.0714 16.8564,41.7324 16.7874,41.3524 C16.6164,40.5854 16.9334,39.8594 17.3854,39.3464" id="Fill-53" fill="#9E2020"/>
                    <path d="M17.3673,41.9743 C17.1343,42.8553 17.1013,43.8423 17.5923,44.5363 C18.1013,45.2643 18.7143,45.9673 19.3333,46.6113 L18.9713,46.6403 C19.1193,46.4213 19.2373,46.1063 19.2763,45.8073 C19.3113,45.5013 19.3013,45.1843 19.2213,44.8703 C19.0503,44.2213 18.8513,43.5733 18.5963,42.9363 C19.0023,43.4933 19.3083,44.1203 19.5493,44.7693 C19.6753,45.1053 19.7463,45.4793 19.7163,45.8523 C19.6813,46.2293 19.5933,46.5843 19.3583,46.9333 L19.2033,47.1633 L18.9963,46.9613 C18.3123,46.2963 17.7313,45.5753 17.2313,44.7563 C16.7323,43.8393 16.9203,42.7723 17.3673,41.9743" id="Fill-55" fill="#9E2020"/>
                    <path d="M17.696,45.0641 C17.534,45.7641 17.448,46.4771 17.542,47.1491 C17.631,47.8161 17.972,48.4061 18.467,48.8411 C18.924,49.2771 19.734,49.5151 19.661,48.8141 C19.651,48.1501 19.41,47.4581 19.165,46.7871 C19.592,47.3691 19.942,48.0231 20.046,48.7931 C20.072,48.9721 20.074,49.2401 19.905,49.4531 C19.738,49.6731 19.453,49.7421 19.236,49.7271 C18.787,49.6901 18.434,49.4701 18.138,49.2181 C17.562,48.7071 17.164,47.9541 17.16,47.1821 C17.14,46.4241 17.342,45.6961 17.696,45.0641" id="Fill-57" fill="#9E2020"/>
                    <path d="M17.696,48.2956 C17.589,49.0176 17.5,49.7496 17.586,50.4336 C17.642,50.7826 17.73,51.0636 17.963,51.2986 C18.194,51.5646 18.443,51.8176 18.707,52.0446 C18.837,52.1586 18.972,52.2686 19.106,52.3536 C19.17,52.3966 19.244,52.4306 19.275,52.4386 C19.291,52.4466 19.272,52.4246 19.193,52.4796 C19.136,52.5456 19.157,52.5686 19.164,52.4976 C19.229,52.1516 19.242,51.8056 19.245,51.4536 C19.235,50.7516 19.072,50.0496 18.805,49.3646 C19.255,49.9496 19.535,50.6736 19.629,51.4256 C19.684,51.8016 19.673,52.1876 19.633,52.5636 C19.628,52.5946 19.633,52.5906 19.619,52.6506 C19.597,52.7156 19.591,52.7706 19.517,52.8326 C19.373,52.9576 19.245,52.9186 19.177,52.9106 C19.031,52.8766 18.942,52.8226 18.852,52.7706 C18.676,52.6636 18.525,52.5456 18.379,52.4216 C18.096,52.1656 17.835,51.8966 17.6,51.6016 C17.333,51.2936 17.195,50.8416 17.205,50.4656 C17.195,49.6916 17.392,48.9666 17.696,48.2956" id="Fill-59" fill="#9E2020"/>
                    <path d="M17.9103,51.5993 C17.8593,51.9683 17.8513,52.2413 17.8133,52.5503 C17.7633,52.8533 17.7223,53.1613 17.5583,53.5093 C17.4403,53.3533 17.3823,53.1853 17.3413,53.0133 C17.2983,52.8393 17.2983,52.6613 17.3173,52.4843 C17.3693,52.1453 17.5323,51.7433 17.9103,51.5993" id="Fill-61" fill="#9E2020"/>
                    <path d="M19.0597,52.6091 C19.0597,52.6091 19.5197,53.4421 19.3907,54.1211" id="Fill-63" fill="#F44"/>
                    <path d="M27.4132,19.7643 C27.7542,20.2433 27.9852,20.8213 27.9682,21.4633 C27.9652,21.7843 27.8422,22.1213 27.6252,22.3873 C27.4332,22.6173 27.2252,22.8373 26.9642,23.0343 C26.8272,23.1243 26.6782,23.2203 26.4562,23.2513 C26.2232,23.3033 25.9282,23.1003 25.8692,22.9183 C25.7122,22.5623 25.7442,22.2403 25.7752,21.9473 C25.8462,21.3523 25.9832,20.7843 26.1932,20.2333 C26.1882,20.8203 26.1482,21.4003 26.1602,21.9633 C26.1772,22.2423 26.1812,22.5273 26.2862,22.6973 C26.3472,22.7773 26.3402,22.7683 26.4002,22.7663 C26.4672,22.7563 26.5762,22.7003 26.6752,22.6263 C26.8822,22.4813 27.0802,22.2813 27.2692,22.0773 C27.4392,21.9053 27.5332,21.6763 27.5872,21.4213 C27.6772,20.9033 27.5692,20.3243 27.4132,19.7643" id="Fill-65" fill="#9E2020"/>
                    <path d="M27.0656,22.6276 C27.4356,23.0726 27.7276,23.6026 27.7836,24.2366 C27.8156,24.5506 27.7216,24.9206 27.4746,25.1856 C27.2536,25.4146 27.0106,25.5986 26.7036,25.7346 C26.4316,25.8616 25.9286,25.9306 25.6376,25.5646 C25.3916,25.2156 25.4396,24.8666 25.4796,24.5756 C25.5716,23.9886 25.7986,23.3966 26.2366,23.0016 C25.9736,23.5146 25.8736,24.0666 25.8616,24.6086 C25.8666,24.8706 25.8816,25.1506 26.0036,25.2636 C26.0886,25.3706 26.2866,25.3756 26.5126,25.2736 C26.7326,25.1886 26.9576,25.0236 27.1386,24.8536 C27.3006,24.7106 27.3736,24.4896 27.4006,24.2366 C27.4316,23.7246 27.2576,23.1656 27.0656,22.6276" id="Fill-67" fill="#9E2020"/>
                    <path d="M27.2824,25.0475 C27.6654,25.5135 27.9084,26.1615 27.7614,26.8295 C27.7034,27.1635 27.4884,27.4635 27.3184,27.6965 C27.1324,27.9435 26.9404,28.1835 26.6954,28.4085 C26.5624,28.5135 26.4404,28.6315 26.2004,28.6915 C26.0854,28.7225 25.9044,28.6995 25.7904,28.6045 C25.7334,28.5665 25.6844,28.4925 25.6504,28.4305 C25.6314,28.3835 25.6104,28.3305 25.5994,28.2865 C25.5244,27.9415 25.5194,27.6375 25.5484,27.3225 C25.6044,26.7135 25.7284,26.0625 26.1384,25.5895 C25.9184,26.1525 25.9114,26.7495 25.9324,27.3275 C25.9584,27.6125 25.9754,27.9155 26.0534,28.1515 L26.0814,28.2195 C26.0884,28.2185 26.0734,28.2165 26.0814,28.2195 C26.0814,28.2195 26.0674,28.2185 26.0964,28.2135 C26.1534,28.2035 26.2714,28.1185 26.3654,28.0325 C26.5704,27.8585 26.7594,27.6305 26.9464,27.4065 C27.1494,27.1725 27.2954,26.9755 27.3934,26.7245 C27.5824,26.2225 27.4884,25.6105 27.2824,25.0475" id="Fill-69" fill="#9E2020"/>
                    <path d="M27.3175,27.3083 C27.6415,27.7873 27.8735,28.3293 27.9455,28.9373 C27.9825,29.2393 27.9525,29.5773 27.7765,29.8903 C27.6105,30.1623 27.3895,30.3893 27.1385,30.5783 C26.8795,30.7543 26.5965,30.9093 26.2275,30.9323 C26.0535,30.9423 25.7895,30.8773 25.6605,30.6613 C25.5405,30.4423 25.5695,30.2813 25.5735,30.1273 C25.6335,29.5183 25.8325,28.9783 26.0975,28.4643 C26.0305,29.0323 25.9335,29.6023 25.9585,30.1293 C26.0065,30.4443 26.0045,30.4733 26.2055,30.4583 C26.4035,30.4393 26.6485,30.3233 26.8465,30.1713 C27.0545,30.0273 27.2365,29.8413 27.3785,29.6373 C27.5045,29.4613 27.5455,29.2103 27.5625,28.9513 C27.5765,28.4223 27.4535,27.8643 27.3175,27.3083" id="Fill-71" fill="#9E2020"/>
                    <path d="M27.5793,29.7614 C27.9543,30.1944 28.1933,30.7654 28.1943,31.3824 C28.1933,32.0014 27.9003,32.6334 27.3373,33.0024 C27.0543,33.1734 26.6913,33.2674 26.3313,33.1564 C26.1573,33.0984 25.9763,32.9774 25.8803,32.7844 C25.7803,32.5764 25.8123,32.4014 25.8313,32.2524 C25.9413,31.6544 26.1783,31.1394 26.4723,30.6464 C26.3733,31.2034 26.2323,31.7634 26.2153,32.2854 C26.2183,32.5724 26.2703,32.6434 26.4683,32.7024 C26.6523,32.7514 26.8893,32.7014 27.0763,32.5754 C27.4683,32.3344 27.7353,31.8504 27.8123,31.3564 C27.8863,30.8464 27.7743,30.2924 27.5793,29.7614" id="Fill-73" fill="#9E2020"/>
                    <path d="M27.5631,32.4801 C27.9781,33.0461 28.2481,33.7371 28.2651,34.4821 C28.2751,34.8591 28.1961,35.2321 28.0231,35.5861 C27.8691,35.9471 27.4471,36.2741 27.0141,36.2841 C26.8031,36.2941 26.6051,36.2591 26.4221,36.2101 C26.2361,36.1271 26.0901,36.1831 25.8261,35.8911 C25.6671,35.6031 25.7471,35.4071 25.7681,35.2131 C25.8081,35.0261 25.8711,34.8531 25.9421,34.6881 C26.2241,34.0271 26.5941,33.4311 27.0301,32.8791 C26.7761,33.5311 26.4951,34.1691 26.3051,34.8161 C26.2221,35.1101 26.1371,35.5321 26.2191,35.6281 C26.1711,35.6131 26.4111,35.7121 26.5451,35.7371 C26.6971,35.7751 26.8471,35.7941 26.9831,35.7851 C27.5241,35.7961 27.8121,35.0841 27.8821,34.4661 C27.9441,33.8201 27.7941,33.1351 27.5631,32.4801" id="Fill-75" fill="#9E2020"/>
                    <path d="M27.8942,35.3112 C28.2982,35.7852 28.6262,36.3352 28.7482,36.9962 C28.8112,37.3192 28.7752,37.7242 28.5192,38.0372 C28.2302,38.3402 27.9482,38.4372 27.6342,38.5732 C27.3172,38.6712 26.9532,38.7642 26.5572,38.6022 C26.3642,38.5202 26.1842,38.3222 26.1492,38.0992 C26.1032,37.8752 26.1752,37.6842 26.2372,37.5382 C26.5042,36.9392 26.8692,36.4452 27.2822,35.9752 C27.0472,36.5462 26.7642,37.1082 26.6012,37.6632 C26.5242,37.9562 26.5642,38.1062 26.7462,38.1682 C26.9292,38.2392 27.2132,38.1972 27.4682,38.1012 C27.7182,38.0122 28.0272,37.8682 28.1642,37.7262 C28.3222,37.5712 28.3702,37.3132 28.3682,37.0352 C28.3412,36.4702 28.1212,35.8832 27.8942,35.3112" id="Fill-77" fill="#9E2020"/>
                    <path d="M28.1183,38.07 C28.4133,38.675 28.6093,39.334 28.6183,40.044 C28.6303,40.39 28.5393,40.801 28.2763,41.107 C28.0383,41.393 27.7213,41.627 27.3323,41.729 C27.1373,41.773 26.9183,41.788 26.6913,41.699 C26.4563,41.622 26.2733,41.345 26.2703,41.114 C26.2793,40.666 26.4273,40.38 26.5653,40.06 C26.8513,39.443 27.1893,38.865 27.5903,38.323 C27.3743,38.959 27.1253,39.578 26.9243,40.199 C26.8393,40.5 26.7173,40.849 26.7423,41.068 C26.7493,41.249 26.9413,41.307 27.2143,41.243 C27.4733,41.185 27.7243,41.013 27.9193,40.798 C28.1173,40.608 28.1903,40.332 28.2363,40.019 C28.3053,39.397 28.2173,38.73 28.1183,38.07" id="Fill-79" fill="#9E2020"/>
                    <path d="M28.1623,40.8776 C28.5943,41.3846 28.9283,42.0606 28.8083,42.8166 C28.7623,43.1926 28.5013,43.5426 28.2513,43.7736 C27.9983,44.0146 27.7203,44.2306 27.4073,44.4086 C27.2463,44.4926 27.0783,44.5666 26.8913,44.6176 C26.7053,44.6566 26.4883,44.7226 26.2133,44.5666 C26.0793,44.4836 25.9923,44.3056 25.9963,44.1756 C25.9933,44.0526 26.0113,43.9646 26.0283,43.8756 C26.0613,43.6996 26.1093,43.5356 26.1643,43.3746 C26.3713,42.7296 26.6203,42.1076 26.9293,41.5066 C26.8173,42.1716 26.6623,42.8216 26.5373,43.4696 L26.4603,43.9446 C26.4513,44.0216 26.4443,44.0996 26.4513,44.1426 C26.4563,44.1816 26.4633,44.1616 26.4683,44.1686 C26.5483,44.2256 26.9283,44.1176 27.1673,43.9706 C27.4383,43.8256 27.6923,43.6336 27.9333,43.4256 C28.1833,43.2216 28.3423,43.0126 28.4353,42.7296 C28.6063,42.1626 28.4243,41.4846 28.1623,40.8776" id="Fill-81" fill="#9E2020"/>
                    <path d="M28.2209,43.4811 C28.4479,43.8701 28.5959,44.3071 28.6589,44.7671 C28.7099,45.2241 28.6729,45.7261 28.4369,46.1691 C28.1879,46.5861 27.9229,46.9301 27.6239,47.2811 C27.3269,47.6271 27.0179,47.9521 26.6669,48.2581 L26.4549,48.4431 L26.3089,48.2171 C26.0919,47.8811 25.9909,47.5411 25.9489,47.1741 C25.9009,46.8121 25.9629,46.4431 26.0769,46.1081 C26.3059,45.4671 26.6069,44.8561 27.0119,44.3171 C26.7589,44.9361 26.5649,45.5711 26.4089,46.2041 C26.3429,46.5071 26.3369,46.8171 26.3879,47.1141 C26.4339,47.4061 26.5579,47.7101 26.7039,47.9321 L26.3459,47.8921 C26.6569,47.6021 26.9649,47.2811 27.2579,46.9601 C27.5379,46.6351 27.8479,46.2941 28.0729,45.9571 C28.3009,45.6321 28.3909,45.2081 28.3939,44.7831 C28.4069,44.3531 28.3359,43.9141 28.2209,43.4811" id="Fill-83" fill="#9E2020"/>
                    <path d="M27.9416,46.5094 C28.2936,47.1234 28.5036,47.8254 28.5116,48.5664 C28.5426,49.3154 28.1666,50.0884 27.5656,50.5654 C27.2616,50.8014 26.8886,50.9924 26.4446,50.9804 C26.2296,50.9724 25.9776,50.8784 25.8206,50.6794 C25.6576,50.4834 25.6416,50.2304 25.6586,50.0414 C25.7346,49.2804 26.0796,48.6364 26.5066,48.0744 C26.2606,48.7274 26.0296,49.4064 26.0436,50.0494 C26.0116,50.6964 26.7976,50.5784 27.2546,50.1734 C27.7536,49.7794 28.0666,49.2004 28.1296,48.5454 C28.1986,47.8874 28.1006,47.1924 27.9416,46.5094" id="Fill-85" fill="#9E2020"/>
                    <path d="M27.9919,49.7077 C28.2949,50.3577 28.5019,51.0567 28.5189,51.8087 C28.5279,52.1727 28.4589,52.6157 28.1669,52.9397 C27.9299,53.2227 27.6639,53.4777 27.3749,53.7137 C27.2259,53.8277 27.0719,53.9357 26.8899,54.0287 C26.7969,54.0737 26.7049,54.1217 26.5499,54.1397 C26.4819,54.1427 26.3469,54.1527 26.2339,54.0327 C26.1309,53.9217 26.1339,53.7957 26.1299,53.7797 C26.0859,53.4157 26.0659,53.0397 26.1149,52.6727 C26.1889,51.9377 26.4549,51.2237 26.9049,50.6617 C26.6379,51.3257 26.4919,52.0107 26.4979,52.6927 C26.5089,53.0347 26.5289,53.3717 26.5969,53.7077 C26.6069,53.7757 26.6189,53.7487 26.5789,53.6987 C26.5229,53.6517 26.4939,53.6637 26.5089,53.6587 C26.5299,53.6567 26.6039,53.6307 26.6669,53.5947 C26.7999,53.5227 26.9359,53.4247 27.0669,53.3207 C27.3329,53.1147 27.5819,52.8777 27.8129,52.6277 C28.0289,52.4317 28.0889,52.1217 28.1369,51.7907 C28.1989,51.1217 28.0979,50.4107 27.9919,49.7077" id="Fill-87" fill="#9E2020"/>
                    <path d="M27.8297,52.9587 C28.2047,53.1097 28.3717,53.5027 28.4317,53.8457 C28.4547,54.0237 28.4577,54.2027 28.4187,54.3787 C28.3807,54.5537 28.3247,54.7247 28.2087,54.8827 C28.0417,54.5337 27.9927,54.2267 27.9377,53.9207 C27.8937,53.6087 27.8757,53.3317 27.8297,52.9587" id="Fill-89" fill="#9E2020"/>
                    <path d="M33.591,52.32 C33.976,52.46 34.176,52.836 34.271,53.179 C34.312,53.359 34.332,53.542 34.31,53.724 C34.29,53.907 34.251,54.087 34.151,54.259 C33.951,53.92 33.871,53.609 33.786,53.301 C33.712,52.986 33.662,52.699 33.591,52.32" id="Fill-91" fill="#9E2020"/>
                    <path d="M30.028,53.7526 C30.111,54.0596 30.096,54.2886 30.071,54.5196 C30.033,54.7516 29.983,54.9446 29.862,55.2396 C29.599,55.0456 29.545,54.7196 29.577,54.4496 C29.627,54.1776 29.749,53.9136 30.028,53.7526" id="Fill-93" fill="#9E2020"/>
                    <path d="M4.633,50.9587 C5.24,50.7017 5.876,50.5307 6.52,50.3977 C7.164,50.2617 7.822,50.1967 8.485,50.1777 C9.148,50.1727 9.823,50.2307 10.47,50.4337 C11.105,50.6257 11.764,50.9877 12.061,51.5997 C11.598,51.1247 10.986,50.9177 10.376,50.8067 C9.759,50.7047 9.128,50.6617 8.492,50.6777 C7.217,50.6947 5.939,50.8387 4.633,50.9587" id="Fill-95" fill="#9E2020"/>
                    <path d="M43.1662,48.4391 C43.3232,47.7991 43.5662,47.1871 43.8462,46.5921 C44.1222,45.9951 44.4642,45.4281 44.8452,44.8851 C45.2372,44.3511 45.6882,43.8451 46.2372,43.4481 C46.7702,43.0541 47.4562,42.7431 48.1242,42.8711 C47.4662,42.9581 46.9342,43.3241 46.4792,43.7471 C46.0302,44.1801 45.6172,44.6601 45.2492,45.1791 C44.5012,46.2101 43.8512,47.3211 43.1662,48.4391" id="Fill-97" fill="#9E2020"/>
                    <path d="M46.0031,50.777 C45.9151,50.124 45.9171,49.465 45.9591,48.809 C45.9971,48.152 46.1081,47.5 46.2641,46.855 C46.4331,46.215 46.6681,45.578 47.0331,45.007 C47.3851,44.446 47.9091,43.905 48.5771,43.78 C47.9971,44.101 47.6361,44.637 47.3681,45.196 C47.1081,45.764 46.9001,46.362 46.7481,46.98 C46.4291,48.214 46.2311,49.485 46.0031,50.777" id="Fill-99" fill="#9E2020"/>
                    <path d="M6.3874,53.5094 C7.2754,52.9864 8.2534,52.6554 9.2584,52.4504 C9.7634,52.3594 10.2774,52.2874 10.7984,52.3074 C11.3134,52.3224 11.8454,52.3814 12.3144,52.6094 C11.8004,52.5854 11.3094,52.6274 10.8184,52.6914 C10.3294,52.7604 9.8404,52.8414 9.3534,52.9414 C8.3744,53.1204 7.4034,53.3534 6.3874,53.5094" id="Fill-101" fill="#9E2020"/>
                    <path d="M16.1525,63.4919 C16.9365,62.5519 17.7625,61.6819 18.5405,60.7729 C18.9385,60.3269 19.3155,59.8649 19.6795,59.3959 C20.0395,58.9219 20.3805,58.4349 20.6475,57.8839 C20.5795,58.5009 20.3035,59.0749 20.0005,59.6089 C19.6965,60.1489 19.3165,60.6369 18.9175,61.1009 C18.5105,61.5589 18.0855,61.9999 17.6185,62.3939 C17.1565,62.7939 16.6795,63.1759 16.1525,63.4919" id="Fill-103" fill="#9E2020"/>
                    <path d="M19.9577,59.3288 C20.4677,59.3088 20.9337,59.4898 21.3507,59.7438 C21.7507,60.0128 22.1327,60.3958 22.2427,60.9018 L21.0797,60.1638 C20.7047,59.9148 20.3277,59.6728 19.9577,59.3288" id="Fill-105" fill="#9E2020"/>
                    <path d="M18.5973,61.0895 C19.1653,61.2855 19.6473,61.5735 20.1233,61.8665 C20.3563,62.0215 20.5913,62.1665 20.8153,62.3325 C21.0463,62.4915 21.2653,62.6485 21.5303,62.7845 C21.2283,62.8545 20.9183,62.7705 20.6423,62.6765 C20.3593,62.5825 20.1033,62.4395 19.8553,62.2885 C19.3733,61.9685 18.9273,61.5945 18.5973,61.0895" id="Fill-107" fill="#9E2020"/>
                    <path d="M17.0758,62.655 C17.6528,63.006 18.1858,63.313 18.7548,63.568 C19.0348,63.701 19.3238,63.815 19.6178,63.929 C19.9128,64.049 20.2198,64.131 20.5388,64.259 C19.8768,64.419 19.1658,64.302 18.5458,64.021 C18.2368,63.876 17.9428,63.694 17.6938,63.46 C17.4428,63.23 17.2148,62.97 17.0758,62.655" id="Fill-109" fill="#9E2020"/>
                    <path d="M53.5695,42.2067 C54.1695,43.2047 54.7645,44.1677 55.4975,45.0127 C55.8615,45.4337 56.2605,45.8177 56.7005,46.1547 C57.1515,46.4777 57.6515,46.7217 58.2085,46.9077 C57.6215,46.9297 57.0275,46.7617 56.4955,46.4797 C55.9635,46.1927 55.5155,45.7807 55.1195,45.3387 C54.7305,44.8877 54.4085,44.3877 54.1515,43.8587 C53.8945,43.3307 53.6765,42.7837 53.5695,42.2067" id="Fill-111" fill="#9E2020"/>
                    <path d="M54.152,43.4714 C54.399,42.8334 54.887,42.3204 55.468,41.9524 C56.053,41.6014 56.818,41.4314 57.462,41.6874 C57.129,41.7734 56.828,41.8424 56.543,41.9634 C56.262,42.0924 55.987,42.2184 55.726,42.3804 C55.195,42.6974 54.703,43.0774 54.152,43.4714" id="Fill-113" fill="#9E2020"/>
                    <path d="M54.9728,44.7624 C55.3858,44.3294 55.8488,44.0174 56.3178,43.7144 C56.5558,43.5724 56.7888,43.4244 57.0368,43.2974 C57.2808,43.1604 57.5198,43.0364 57.7648,42.8694 C57.6838,43.1674 57.4718,43.4004 57.2678,43.6054 C57.0608,43.8154 56.8228,43.9814 56.5818,44.1384 C56.0888,44.4324 55.5658,44.6754 54.9728,44.7624" id="Fill-115" fill="#9E2020"/>
                    <path d="M55.8888,45.776 C56.3048,45.459 56.7318,45.257 57.1628,45.059 C57.6028,44.873 58.0238,44.705 58.5238,44.557 C58.3978,44.791 58.2098,44.97 58.0128,45.13 C57.8148,45.293 57.5908,45.41 57.3648,45.517 C56.9028,45.707 56.4118,45.834 55.8888,45.776" id="Fill-117" fill="#9E2020"/>
                    <path d="M31.0797,18.9196 C30.8517,19.3416 30.7517,19.7856 30.9287,20.1846 C31.0817,20.5786 31.4147,20.8886 31.7707,21.1436 C32.5047,21.6406 33.3527,22.0116 34.1997,22.2946 L33.8847,22.4776 C33.9597,22.0986 33.9397,21.7156 33.8127,21.3506 C33.6837,20.9836 33.4327,20.6606 33.1577,20.3576 C32.5847,19.7646 31.8457,19.3116 31.0797,18.9196 M31.0797,18.9196 C31.9187,19.1296 32.7337,19.4986 33.4147,20.0876 C33.7537,20.3806 34.0607,20.7376 34.2447,21.1796 C34.4317,21.6196 34.4547,22.1186 34.3687,22.5866 L34.3187,22.8576 L34.0537,22.7696 C33.1467,22.4676 32.2827,22.0676 31.5287,21.4546 C31.1697,21.1366 30.8237,20.7516 30.6877,20.2606 C30.5557,19.7656 30.7737,19.2456 31.0797,18.9196" id="Fill-119" fill="#9E2020"/>
                    <path d="M32.4923,21.8698 C32.2643,22.2918 32.1633,22.7358 32.3403,23.1348 C32.4933,23.5288 32.8263,23.8388 33.1833,24.0938 C33.9173,24.5908 34.7643,24.9618 35.6113,25.2448 L35.2973,25.4278 C35.3723,25.0488 35.3513,24.6658 35.2253,24.3008 C35.0963,23.9338 34.8443,23.6108 34.5703,23.3078 C33.9973,22.7148 33.2573,22.2618 32.4923,21.8698 M32.4923,21.8698 C33.3303,22.0798 34.1453,22.4488 34.8263,23.0388 C35.1663,23.3308 35.4733,23.6888 35.6573,24.1298 C35.8433,24.5698 35.8673,25.0688 35.7813,25.5368 L35.7313,25.8078 L35.4663,25.7198 C34.5593,25.4178 33.6953,25.0178 32.9413,24.4048 C32.5823,24.0878 32.2363,23.7028 32.1003,23.2108 C31.9683,22.7158 32.1853,22.1958 32.4923,21.8698" id="Fill-121" fill="#9E2020"/>
                    <path d="M33.8346,24.7565 C33.6226,25.2345 33.5206,25.7065 33.6596,26.1705 C33.7746,26.6265 34.0856,27.0135 34.4476,27.3255 C35.1706,27.9565 36.0666,28.4285 36.9656,28.7815 L36.6376,28.9685 C36.7036,28.5385 36.7086,28.1015 36.5906,27.6805 C36.4686,27.2615 36.2516,26.8705 35.9826,26.5065 C35.4176,25.7955 34.6556,25.2245 33.8346,24.7565 M33.8346,24.7565 C34.7396,25.0465 35.5926,25.5445 36.2686,26.2645 C36.6046,26.6265 36.8706,27.0635 37.0356,27.5455 C37.2006,28.0345 37.1946,28.5595 37.1256,29.0625 L37.0846,29.3615 L36.7966,29.2485 C35.8296,28.8675 34.9126,28.3655 34.1726,27.6075 C33.8126,27.2305 33.4976,26.7625 33.4136,26.2225 C33.3326,25.6895 33.5396,25.1445 33.8346,24.7565" id="Fill-123" fill="#9E2020"/>
                    <path d="M34.609,28.0173 C34.381,28.4403 34.28,28.8843 34.457,29.2833 C34.611,29.6763 34.943,29.9863 35.3,30.2423 C36.034,30.7383 36.881,31.1093 37.729,31.3933 L37.414,31.5763 C37.489,31.1973 37.468,30.8143 37.342,30.4493 C37.213,30.0813 36.962,29.7593 36.687,29.4563 C36.114,28.8623 35.374,28.4093 34.609,28.0173 M34.609,28.0173 C35.447,28.2283 36.262,28.5973 36.943,29.1863 C37.283,29.4783 37.59,29.8363 37.774,30.2773 C37.96,30.7183 37.984,31.2173 37.898,31.6853 L37.848,31.9553 L37.583,31.8673 C36.676,31.5663 35.812,31.1653 35.058,30.5533 C34.699,30.2353 34.353,29.8503 34.217,29.3593 C34.085,28.8633 34.302,28.3433 34.609,28.0173" id="Fill-125" fill="#9E2020"/>
                    <path d="M35.5592,30.7585 C35.3002,31.2145 35.2132,31.7065 35.3382,32.1805 C35.4482,32.6475 35.6922,33.0825 36.0072,33.4605 C36.6302,34.2185 37.4022,34.8815 38.2162,35.4325 L37.8482,35.5505 C37.9202,35.3075 38.0122,35.0685 38.0782,34.8235 C38.1092,34.5755 38.1962,34.3285 38.1842,34.0815 C38.2452,33.5815 38.1162,33.0935 37.9172,32.6455 C37.4832,31.7435 36.5452,31.1265 35.5592,30.7585 M35.5592,30.7585 C36.0912,30.8315 36.6012,31.0315 37.0802,31.2965 C37.5482,31.5795 37.9722,31.9685 38.2602,32.4605 C38.5452,32.9485 38.6952,33.5355 38.6602,34.0995 C38.6512,34.6695 38.4942,35.2095 38.3122,35.7315 L38.2072,36.0325 L37.9442,35.8505 C37.0832,35.2505 36.2982,34.5575 35.7012,33.6835 C35.4052,33.2515 35.1692,32.7535 35.1012,32.2205 C35.0382,31.6895 35.2182,31.1305 35.5592,30.7585" id="Fill-127" fill="#9E2020"/>
                    <path d="M36.0548,34.3503 C35.7958,34.8073 35.7098,35.2983 35.8348,35.7723 C35.9448,36.2393 36.1888,36.6733 36.5038,37.0523 C37.1258,37.8093 37.8988,38.4733 38.7118,39.0243 L38.3488,39.1303 C38.5268,38.6733 38.7008,38.2023 38.6818,37.7193 C38.6928,37.2423 38.5758,36.7613 38.3298,36.3353 C37.8328,35.4803 36.9748,34.8323 36.0548,34.3503 M36.0548,34.3503 C36.5638,34.4853 37.0408,34.7263 37.4948,35.0073 C37.9368,35.3063 38.3438,35.6753 38.6588,36.1323 C38.9888,36.5813 39.1388,37.1583 39.1578,37.7163 C39.1868,38.2883 38.9998,38.8263 38.8038,39.3363 L38.6948,39.6203 L38.4398,39.4423 C37.5778,38.8433 36.7938,38.1503 36.1958,37.2763 C35.8998,36.8443 35.6648,36.3453 35.5958,35.8123 C35.5328,35.2813 35.7138,34.7223 36.0548,34.3503" id="Fill-129" fill="#9E2020"/>
                    <path d="M36.0548,37.3239 C35.8198,37.7549 35.6938,38.1849 35.7218,38.6439 C35.7368,39.0949 35.9058,39.5279 36.1168,39.9259 C36.5538,40.7179 37.1878,41.4239 37.8688,42.0149 L37.5308,42.0379 C37.8408,41.6539 38.1678,41.2649 38.2848,40.8049 C38.4358,40.3589 38.4088,39.8769 38.2148,39.4309 C38.0228,38.9849 37.6858,38.5919 37.3058,38.2509 C36.9338,37.8949 36.5048,37.5959 36.0548,37.3239 M36.0548,37.3239 C36.5558,37.4909 37.0238,37.7499 37.4668,38.0539 C37.8938,38.3749 38.2978,38.7589 38.5718,39.2579 C38.8488,39.7549 38.9088,40.3879 38.7458,40.9389 C38.5998,41.5069 38.2468,41.9569 37.8938,42.3749 L37.7368,42.5599 L37.5548,42.3969 C36.8218,41.7429 36.1768,40.9989 35.7838,40.0869 C35.5968,39.6349 35.4468,39.1449 35.4888,38.6419 C35.5278,38.1509 35.7468,37.6689 36.0548,37.3239" id="Fill-131" fill="#9E2020"/>
                    <path d="M36.3556,40.7135 C36.0166,41.0685 35.7826,41.4515 35.6906,41.9025 C35.5876,42.3425 35.6386,42.8045 35.7386,43.2425 C35.9546,44.1205 36.3836,44.9675 36.8886,45.7155 L36.5546,45.6505 C36.9536,45.3595 37.3716,45.0685 37.6046,44.6555 C37.8656,44.2645 37.9646,43.7905 37.8936,43.3115 C37.8236,42.8295 37.6006,42.3615 37.3236,41.9345 C37.0556,41.4945 36.7186,41.0945 36.3556,40.7135 M36.3556,40.7135 C36.7956,41.0055 37.1806,41.3775 37.5286,41.7855 C37.8576,42.2065 38.1486,42.6825 38.2836,43.2355 C38.4216,43.7875 38.3146,44.4145 38.0146,44.9035 C37.7256,45.4145 37.2686,45.7575 36.8176,46.0695 L36.6186,46.2075 L36.4846,46.0035 C35.9476,45.1815 35.5186,44.2945 35.3756,43.3115 C35.3136,42.8265 35.2946,42.3145 35.4656,41.8405 C35.6316,41.3755 35.9686,40.9675 36.3556,40.7135" id="Fill-133" fill="#9E2020"/>
                    <path d="M35.5358,44.3356 C35.1968,44.6896 34.9628,45.0726 34.8708,45.5236 C34.7678,45.9646 34.8188,46.4256 34.9198,46.8636 C35.1348,47.7416 35.5638,48.5896 36.0688,49.3366 L35.7348,49.2716 C36.1338,48.9816 36.5518,48.6896 36.7848,48.2766 C37.0458,47.8856 37.1448,47.4116 37.0738,46.9326 C37.0038,46.4506 36.7808,45.9836 36.5038,45.5556 C36.2358,45.1156 35.8988,44.7156 35.5358,44.3356 M35.5358,44.3356 C35.9758,44.6276 36.3608,44.9986 36.7088,45.4076 C37.0388,45.8286 37.3288,46.3036 37.4638,46.8566 C37.6018,47.4096 37.4948,48.0356 37.1948,48.5256 C36.9058,49.0356 36.4488,49.3786 35.9978,49.6906 L35.7988,49.8286 L35.6648,49.6246 C35.1278,48.8026 34.6988,47.9156 34.5558,46.9326 C34.4938,46.4476 34.4748,45.9366 34.6458,45.4616 C34.8118,44.9976 35.1488,44.5886 35.5358,44.3356" id="Fill-135" fill="#9E2020"/>
                    <path d="M34.9416,47.9616 C34.5226,48.2166 34.1976,48.5256 33.9916,48.9386 C33.7786,49.3366 33.7086,49.7946 33.6916,50.2446 C33.6726,51.1496 33.8686,52.0776 34.1626,52.9306 L33.8576,52.7806 C34.3176,52.6046 34.7966,52.4316 35.1286,52.0916 C35.4826,51.7806 35.6996,51.3496 35.7556,50.8676 C35.8126,50.3856 35.7176,49.8756 35.5606,49.3906 C35.4156,48.8976 35.1946,48.4226 34.9416,47.9616 M34.9416,47.9616 C35.2916,48.3576 35.5666,48.8156 35.7976,49.3006 C36.0066,49.7926 36.1646,50.3266 36.1516,50.8966 C36.1426,51.4656 35.8766,52.0426 35.4606,52.4386 C35.0486,52.8566 34.5186,53.0696 34.0036,53.2546 L33.7746,53.3366 L33.6976,53.1046 C33.3916,52.1706 33.2066,51.2036 33.3226,50.2166 C33.3886,49.7326 33.5036,49.2326 33.7906,48.8186 C34.0716,48.4136 34.5026,48.1066 34.9416,47.9616" id="Fill-137" fill="#9E2020"/>
                </g>
            </g>
        </g>
        <g id="Female Head" transform="translate(111.000000, 63.000000) scale(1 1)">
            <g id="Female Head/Pixie Cut 4" stroke="none" stroke-width="1" fill="none" fill-rule="evenodd">
                <g id="Group-41" transform="translate(15.000000, 7.400000)">
                    <g id="Group-3" transform="translate(1.000000, 2.753800)" fill="#ffc280">
                        <path d="M4.292,21.9148 C4.292,21.9148 5.426,24.1828 7.905,25.6708 C10.386,27.1588 13.504,29.4268 15.063,28.9308 C16.622,28.4348 20.754,25.2688 21.745,21.7258 C22.737,18.1828 23.354,12.2768 22.717,9.3718 C22.079,6.4658 18.465,0.3718 12.016,0.3718 C5.567,0.3718 -0.173,7.1738 1.386,14.6858 C1.386,14.6858 -0.406,16.8838 1.128,19.1508 C2.662,21.4188 4.292,21.9148 4.292,21.9148" id="Fill-1"/>
                    </g>
                    <path d="M9.1397,19.9205 C9.1397,19.9205 11.9867,19.9905 12.7427,20.5405 C12.7427,20.5405 13.0197,20.6385 12.9127,20.2745 C12.9127,20.2745 13.3207,20.5665 13.3467,20.4075 C13.3727,20.2485 13.1697,18.7065 11.5667,18.4945 C9.9627,18.2815 8.7587,19.7525 9.1397,19.9205" id="Fill-4" fill="#20180F"/>
                    <path d="M21.6113,19.5133 C21.6113,19.5133 19.8053,19.4863 19.0743,20.0343 C19.0743,20.0343 18.8053,20.1323 18.9083,19.7693 C18.9083,19.7693 18.5133,20.0613 18.4883,19.9023 C18.4633,19.7423 19.1973,18.2903 20.7493,18.0773 C22.3013,17.8653 22.7103,19.2233 21.6113,19.5133" id="Fill-6" fill="#20180F"/>
                    <path d="M16.8819,24.8629 C16.8819,24.8629 16.6689,25.0409 16.8819,25.2169 C17.0939,25.3949 18.4929,24.8989 18.8129,24.4379 C19.1319,23.9769 18.9429,23.9249 18.4869,24.1899 C18.0329,24.4559 16.8819,24.8629 16.8819,24.8629" id="Fill-8" fill="#20180F"/>
                    <path d="M14.0117,26.2984 C14.0117,26.2984 13.9227,26.1394 14.6847,26.1394 C15.4467,26.1394 15.3747,26.2804 16.6157,26.2984 C17.8557,26.3164 18.3637,26.2984 17.8787,26.6164 C17.3957,26.9364 17.4307,26.9184 17.3417,27.1664 C17.2537,27.4144 16.1317,27.8584 15.2487,27.5564 C14.3657,27.2554 13.4637,26.4554 14.0117,26.2984" id="Fill-10" fill="#EE4E2F"/>
                    <path d="M8.6904,15.7389 C8.8264,15.6979 8.6434,15.9749 9.2574,15.8699 C9.8714,15.7629 11.5484,15.5739 13.0604,16.5189 C13.0604,16.5189 13.3304,16.3059 13.3484,15.9049 C13.3664,15.5289 10.8204,14.2419 8.6544,15.6689 C8.5064,15.7659 8.5524,15.7819 8.6904,15.7389" id="Fill-12" fill="#20180F"/>
                    <path d="M21.6113,15.8815 C21.6113,15.8815 20.7143,14.9125 19.2023,15.3605 C17.6903,15.8105 17.8313,16.4955 17.8793,16.6845 C17.9263,16.8735 19.0133,15.9515 20.1473,15.9635 C21.2813,15.9755 21.6113,16.2115 21.6113,15.8815" id="Fill-14" fill="#20180F"/>
                    <path d="M9.3311,19.9205 C9.3311,19.9205 12.1781,19.9905 12.9341,20.5405 C12.9341,20.5405 13.2111,20.6385 13.1041,20.2745 C13.1041,20.2745 13.5131,20.5665 13.5391,20.4075 C13.5651,20.2485 13.3611,18.7065 11.7591,18.4945 C10.1551,18.2815 8.9501,19.7525 9.3311,19.9205" id="Fill-16" fill="#000"/>
                    <path d="M21.8037,19.5133 C21.8037,19.5133 19.9977,19.4863 19.2667,20.0343 C19.2667,20.0343 18.9977,20.1323 19.1007,19.7693 C19.1007,19.7693 18.7057,20.0613 18.6807,19.9023 C18.6547,19.7423 19.3897,18.2903 20.9417,18.0773 C22.4937,17.8653 22.9027,19.2233 21.8037,19.5133" id="Fill-18" fill="#000"/>
                    <path d="M17.0733,24.8629 C17.0733,24.8629 16.8603,25.0409 17.0733,25.2169 C17.2863,25.3949 18.6853,24.8989 19.0053,24.4379 C19.3233,23.9769 19.1353,23.9249 18.6793,24.1899 C18.2243,24.4559 17.0733,24.8629 17.0733,24.8629" id="Fill-20" fill="#000"/>
                    <path d="M14.2031,26.2984 C14.2031,26.2984 14.1151,26.1394 14.8771,26.1394 C15.6391,26.1394 15.5671,26.2804 16.8071,26.2984 C18.0481,26.3164 18.5551,26.2984 18.0711,26.6164 C17.5871,26.9364 17.6231,26.9184 17.5341,27.1664 C17.4451,27.4144 16.3241,27.8584 15.4401,27.5564 C14.5571,27.2554 13.6551,26.4554 14.2031,26.2984" id="Fill-22" fill="#EE4E2F"/>
                    <path d="M8.8828,15.7389 C9.0178,15.6979 8.8348,15.9749 9.4488,15.8699 C10.0638,15.7629 11.7408,15.5739 13.2528,16.5189 C13.2528,16.5189 13.5228,16.3059 13.5408,15.9049 C13.5588,15.5289 11.0128,14.2419 8.8468,15.6689 C8.6988,15.7659 8.7438,15.7819 8.8828,15.7389" id="Fill-24" fill="#000"/>
                    <path d="M21.8037,15.8815 C21.8037,15.8815 20.9067,14.9125 19.3947,15.3605 C17.8827,15.8105 18.0237,16.4955 18.0717,16.6845 C18.1187,16.8735 19.2047,15.9515 20.3387,15.9635 C21.4727,15.9755 21.8037,16.2115 21.8037,15.8815" id="Fill-26" fill="#000"/>
                    <g id="Group-30" transform="translate(0.000000, 0.753800)" fill="#110b05">
                        <path d="M6.0078,20.919605 C6.0078,20.919605 5.4008,18.7216 4.3018,17.9246 C3.2018,17.1286 2.5578,17.2796 1.7988,17.6596 C1.7988,17.6596 -2.0462,11.4156 1.5068,4.9326 C5.0598,-1.5504 12.4148,0.1336 14.0348,1.5666 C14.0348,1.5666 28.0608,2.1906 24.0708,15.1546 C24.0708,15.1546 23.1978,10.4806 20.9538,8.3606 C20.9538,8.3606 19.8658,13.0956 17.7688,13.5036 C17.7688,13.5036 20.7108,10.3276 20.2448,7.4146 L19.7498,6.8906 C19.7498,6.8906 18.5838,12.8326 13.1368,13.8236 L13.1538,13.6476 L12.8328,13.4996 C12.8328,13.4996 14.7268,12.7706 15.4478,8.3356 C15.4478,8.3356 12.4858,13.0626 6.3648,14.7386 C6.3648,14.7386 5.9938,16.2206 6.0528,17.8966 C6.1118,19.5726 6.2738,20.9226 6.0078,20.919605" id="Fill-28"/>
                    </g>
                    <path d="M10.9971,1.9527 C9.8641,2.6007 8.7891,3.3327 7.7721,4.1277 C6.7661,4.9317 5.7901,5.7817 4.9791,6.7757 C4.1441,7.7477 3.4731,8.8417 2.9801,10.0197 C2.5131,11.2147 2.3481,12.4957 2.3401,13.8047 C2.1401,12.5157 2.2061,11.1627 2.6191,9.8897 C3.0551,8.6297 3.7651,7.4827 4.5991,6.4527 C5.4701,5.4517 6.4681,4.5737 7.5451,3.8197 C8.6281,3.0757 9.7721,2.4167 10.9971,1.9527" id="Fill-31" fill="#6F3C00"/>
                    <path d="M3.5078,17.2916 C2.7348,16.2166 2.5518,14.7906 2.7418,13.4786 C2.9398,12.1486 3.5218,10.9106 4.2398,9.8026 C4.9798,8.7206 5.7598,7.6606 6.6388,6.6856 C7.5228,5.7196 8.4688,4.7856 9.5888,4.1006 C8.5978,4.9486 7.7438,5.9296 6.9318,6.9346 C6.1258,7.9466 5.3548,8.9866 4.6558,10.0776 C3.9258,11.1306 3.3848,12.3026 3.1188,13.5446 C2.8668,14.7766 2.9218,16.1196 3.5078,17.2916" id="Fill-33" fill="#6F3C00"/>
                    <path d="M4.6416,14.3024 C6.4336,12.9654 8.0896,11.4864 9.5406,9.8244 C10.2836,9.0074 10.9206,8.1074 11.5296,7.1894 C12.1386,6.2654 12.6016,5.2614 13.0586,4.2384 C12.8006,5.3244 12.4146,6.3984 11.8606,7.3834 C11.3166,8.3724 10.6676,9.3094 9.9176,10.1544 C9.1676,10.9974 8.3556,11.7854 7.4676,12.4794 C6.5826,13.1724 5.6506,13.8104 4.6416,14.3024" id="Fill-35" fill="#6F3C00"/>
                    <path d="M14.0547,5.4059 C13.7267,6.3339 13.2867,7.2149 12.8087,8.0739 C12.3287,8.9329 11.7867,9.7599 11.1777,10.5379 C10.5587,11.3059 9.9027,12.0549 9.1347,12.6859 C8.3697,13.3159 7.5297,13.8689 6.5997,14.1999 C8.2737,13.1679 9.5937,11.7519 10.7837,10.2299 C11.9767,8.7079 13.0267,7.0749 14.0547,5.4059" id="Fill-37" fill="#6F3C00"/>
                    <path d="M18.3145,5.5084 C18.4115,6.3124 18.3755,7.1254 18.2825,7.9314 C18.1915,8.7374 18.0085,9.5384 17.7235,10.3084 C17.4255,11.0704 17.0605,11.8244 16.5075,12.4484 C15.9615,13.0714 15.2735,13.5714 14.5015,13.8214 C15.1835,13.3824 15.7515,12.8434 16.2045,12.2114 C16.6515,11.5754 16.9805,10.8644 17.2545,10.1354 C17.8035,8.6664 18.0855,7.1014 18.3145,5.5084" id="Fill-39" fill="#6F3C00"/>
                </g>
            </g>
        </g>
        <g id="Female Accesories" transform="translate(123.000000, 72.000000) scale(1 1)">
            <g id="Female Accesories/Glasses 2" stroke="none" stroke-width="1" fill="none" fill-rule="evenodd">
                <g id="Accesories" transform="translate(8.000000, 15.000000)" fill="#F90606">
                    <path d="M10.0980239,0.625 L5.09802389,0.625 C4.33863236,0.625 3.72302389,1.24060847 3.72302389,2 L3.72302389,5 C3.72302389,5.75939153 4.33863236,6.375 5.09802389,6.375 L10.0980239,6.375 C10.8574154,6.375 11.4730239,5.75939153 11.4730239,5 L11.4730239,2 C11.4730239,1.24060847 10.8574154,0.625 10.0980239,0.625 Z M5.09802389,1.375 L10.0980239,1.375 C10.4432019,1.375 10.7230239,1.65482203 10.7230239,2 L10.7230239,5 C10.7230239,5.34517797 10.4432019,5.625 10.0980239,5.625 L5.09802389,5.625 C4.75284592,5.625 4.47302389,5.34517797 4.47302389,5 L4.47302389,2 C4.47302389,1.65482203 4.75284592,1.375 5.09802389,1.375 Z" id="Rectangle" fill-rule="nonzero"/>
                    <path d="M18.0980239,0.625 L14.0980239,0.625 C13.3386324,0.625 12.7230239,1.24060847 12.7230239,2 L12.7230239,5 C12.7230239,5.75939153 13.3386324,6.375 14.0980239,6.375 L18.0980239,6.375 C18.8574154,6.375 19.4730239,5.75939153 19.4730239,5 L19.4730239,2 C19.4730239,1.24060847 18.8574154,0.625 18.0980239,0.625 Z M14.0980239,1.375 L18.0980239,1.375 C18.4432019,1.375 18.7230239,1.65482203 18.7230239,2 L18.7230239,5 C18.7230239,5.34517797 18.4432019,5.625 18.0980239,5.625 L14.0980239,5.625 C13.7528459,5.625 13.4730239,5.34517797 13.4730239,5 L13.4730239,2 C13.4730239,1.65482203 13.7528459,1.375 14.0980239,1.375 Z" id="Rectangle-Copy" fill-rule="nonzero"/>
                    <polygon id="Path-3" points="4.39934039 4.09027449 0 3.28173765 -9.89060421e-15 1.71349515 4.39934039 1.16932173"/>
                </g>
                <path d="M19.0822585,17.9887366 C20.019965,17.6145794 20.6866317,17.6145794 21.0822585,17.9887366 C21.2076007,16.6704211 21.2702717,16.0112634 21.2702717,16.0112634 L18.9017675,16.0112634 L19.0822585,17.9887366 Z" id="Path-2" fill="#F90606"/>
            </g>
        </g>
    </g>
</svg>
