<svg viewBox="135.2 90.242 551.2 508.261" xmlns="http://www.w3.org/2000/svg" overflow="visible">
    <g id="Master/Spot Illustration/Process" stroke="none" stroke-width="1" fill="none" fill-rule="evenodd">
        <path d="M586.099,574 L154.5,574 C154.224,574 154,573.776 154,573.5 C154,573.224 154.224,573 154.5,573 L586.099,573 C586.375,573 586.599,573.224 586.599,573.5 C586.599,573.776 586.375,574 586.099,574" id="Fill-32" fill="#000"/>
        <path d="M500.937,597 L401.5,597 C401.224,597 401,596.776 401,596.5 C401,596.224 401.224,596 401.5,596 L500.937,596 C501.213,596 501.437,596.224 501.437,596.5 C501.437,596.776 501.213,597 500.937,597" id="Fill-33" fill="#000"/>
        <g id="User Interface" transform="translate(116.000000, 56.240000) scale(1 1)">
            <g id="User Interface/Idea" stroke="none" stroke-width="1" fill="none" fill-rule="evenodd">
                <g id="Group-22" transform="translate(25.000000, 34.000000)">
                    <path d="M165.4123,141.246 C165.1363,141.246 164.9123,141.022 164.9123,140.746 L164.9123,117.781 C164.9123,109.623 158.2753,102.985 150.1163,102.985 L52.2813,102.985 C52.0053,102.985 51.7813,102.762 51.7813,102.485 C51.7813,102.209 52.0053,101.985 52.2813,101.985 L150.1163,101.985 C158.8263,101.985 165.9123,109.071 165.9123,117.781 L165.9123,140.746 C165.9123,141.022 165.6883,141.246 165.4123,141.246" id="Fill-1" fill="#B5B6B7"/>
                    <path d="M165.4123,269.6014 C165.1363,269.6014 164.9123,269.3774 164.9123,269.1014 L164.9123,246.1364 C164.9123,237.9784 158.2753,231.3404 150.1163,231.3404 L52.2813,231.3404 C52.0053,231.3404 51.7813,231.1174 51.7813,230.8404 C51.7813,230.5644 52.0053,230.3404 52.2813,230.3404 L150.1163,230.3404 C158.8263,230.3404 165.9123,237.4264 165.9123,246.1364 L165.9123,269.1014 C165.9123,269.3774 165.6883,269.6014 165.4123,269.6014" id="Fill-3" fill="#B5B6B7"/>
                    <path d="M25.987,206.1112 C25.711,206.1112 25.487,205.8872 25.487,205.6112 L25.487,182.6462 C25.487,173.9362 32.573,166.8502 41.283,166.8502 L139.117,166.8502 C139.394,166.8502 139.617,167.0742 139.617,167.3502 C139.617,167.6272 139.394,167.8502 139.117,167.8502 L41.283,167.8502 C33.124,167.8502 26.487,174.4882 26.487,182.6462 L26.487,205.6112 C26.487,205.8872 26.263,206.1112 25.987,206.1112" id="Fill-5" fill="#B5B6B7"/>
                    <path d="M25.987,333.0917 C25.711,333.0917 25.487,332.8677 25.487,332.5917 L25.487,309.6267 C25.487,300.9167 32.573,293.8307 41.283,293.8307 L139.117,293.8307 C139.394,293.8307 139.617,294.0547 139.617,294.3307 C139.617,294.6077 139.394,294.8307 139.117,294.8307 L41.283,294.8307 C33.124,294.8307 26.487,301.4687 26.487,309.6267 L26.487,332.5917 C26.487,332.8677 26.263,333.0917 25.987,333.0917" id="Fill-7" fill="#B5B6B7"/>
                    <g id="Group-11" transform="translate(0.000000, 0.494000)" fill="#F1EFEF">
                        <path d="M165.4123,140.252 C150.9743,140.252 139.2713,151.955 139.2713,166.393 C139.2713,180.829 150.9743,192.533 165.4123,192.533 C179.8493,192.533 191.5533,180.829 191.5533,166.393 C191.5533,151.955 179.8493,140.252 165.4123,140.252 M165.4123,267.696 C150.9743,267.696 139.2713,279.399 139.2713,293.837 C139.2713,308.274 150.9743,319.978 165.4123,319.978 C179.8493,319.978 191.5533,308.274 191.5533,293.837 C191.5533,279.399 179.8493,267.696 165.4123,267.696 M26.1413,203.295 C11.7043,203.295 0.0003,214.998 0.0003,229.436 C0.0003,243.873 11.7043,255.576 26.1413,255.576 C40.5783,255.576 52.2813,243.873 52.2813,229.436 C52.2813,214.998 40.5783,203.295 26.1413,203.295 M26.1413,330.739 C11.7043,330.739 0.0003,342.443 0.0003,356.88 C0.0003,371.317 11.7043,383.022 26.1413,383.022 C40.5783,383.022 52.2813,371.317 52.2813,356.88 C52.2813,342.443 40.5783,330.739 26.1413,330.739 M26.1413,75.851 C11.7043,75.851 0.0003,87.554 0.0003,101.991 C0.0003,116.428 11.7043,128.132 26.1413,128.132 C40.5783,128.132 52.2813,116.428 52.2813,101.991 C52.2813,87.554 40.5783,75.851 26.1413,75.851 M411.0823,309.651228 C400.0673,309.703 391.0633,300.839 391.038243,289.918 C391.0123,278.742 399.8093,269.887 410.9953,269.827719 C422.0733,269.77 431.0213,278.689 431.06042,289.829 C431.0983,300.703 422.1323,309.6 411.0823,309.651228 M466.8853,263.926 C466.2213,261.56 464.7303,260.593 462.2003,260.881 C457.6413,261.4 453.0653,261.794 448.4853,262.059 C447.5723,262.111 446.4283,261.561 445.7073,260.928 C443.7063,259.172 441.7643,257.32 440.0233,255.312 C439.2583,254.429 438.6133,253.06 438.6463,251.933 C438.7733,247.599 439.2273,243.274 439.4973,238.942 C439.6963,235.767 438.9943,234.725 435.9413,233.839 C429.8563,232.072 423.7613,230.338 417.6443,228.687 C414.2453,227.769 413.0583,228.359 411.4213,231.584 C409.5343,235.302 407.6673,239.033 405.9213,242.819 C405.2233,244.333 404.2903,245.143 402.6213,245.441 C400.0853,245.896 397.6173,246.752 395.0753,247.149 C393.9133,247.331 392.4373,247.166 391.4603,246.573 C387.8263,244.367 384.3493,241.902 380.7953,239.565 C377.9693,237.705 376.3683,237.868 373.9373,240.313 C369.5803,244.693 365.2433,249.094 360.9293,253.516 C358.6243,255.879 358.5083,257.177 360.3143,259.909 C362.6163,263.389 364.9053,266.88 367.3223,270.28 C368.3233,271.689 368.6793,272.907 368.0693,274.644 C367.2193,277.064 366.6253,279.602 366.2053,282.137 C365.9233,283.838 365.1033,284.741 363.6173,285.438 C359.7673,287.243 355.9953,289.215 352.1503,291.032 C349.8043,292.141 348.9663,293.892 349.6233,296.329 C351.3353,302.689 353.1203,309.029 354.8363,315.387 C355.5163,317.908 357.0673,318.897 359.6563,318.614 C363.1403,318.234 366.6413,318.007 370.1423,317.713 C371.9603,318.242 373.9993,316.603 375.7123,318.752 C377.5713,321.084 379.8893,323.046 381.8613,325.297 C382.4963,326.023 383.0273,327.166 382.9923,328.095 C382.8373,332.179 382.4823,336.256 382.1523,340.332 C381.8673,343.838 382.4323,344.906 385.7453,345.874 C391.5873,347.579 397.4543,349.201 403.3403,350.747 C406.6823,351.625 408.2363,350.863 409.8713,347.796 C411.7543,344.265 413.6593,340.74 415.3903,337.135 C416.1603,335.53 417.1623,334.812 418.9353,334.54 C421.3923,334.164 423.7573,333.193 426.2133,332.803 C427.4623,332.604 429.0453,332.746 430.0953,333.373 C433.6013,335.468 436.9253,337.865 440.3373,340.119 C443.5273,342.229 444.6443,342.135 447.3133,339.5 C451.7103,335.16 456.0903,330.803 460.4573,326.433 C462.9203,323.968 463.0543,322.773 461.1393,319.867 C458.7963,316.314 456.3053,312.855 454.0773,309.232 C453.4653,308.238 453.2063,306.744 453.4093,305.59 C453.8843,302.895 454.6013,300.219 455.5033,297.634 C455.8843,296.541 456.7823,295.346 457.7763,294.801 C461.7213,292.641 465.7983,290.721 469.8233,288.707 C471.9123,287.662 473.0883,286.148 472.3973,283.674 C470.5583,277.092 468.7333,270.505 466.8853,263.926 M413.3813,141.859392 C394.2423,141.949 378.5983,126.549 378.555205,107.574 C378.5113,88.156 393.7953,72.77 413.2293,72.6675091 C432.4763,72.567 448.0243,88.065 448.092509,107.419 C448.1583,126.314 432.5803,141.77 413.3813,141.859392 M519.9123,96.725 C516.7173,85.288 513.5463,73.845 510.3353,62.413 C509.1813,58.303 506.5923,56.622 502.1953,57.123 C494.2753,58.025 486.3233,58.709 478.3673,59.169 C476.7793,59.261 474.7933,58.304 473.5403,57.204 C470.0643,54.153 466.6893,50.938 463.6653,47.447 C462.3353,45.912 461.2153,43.534 461.2723,41.576 C461.4923,34.045 462.2823,26.533 462.7513,19.007 C463.0953,13.488 461.8753,11.678 456.5723,10.139 C446.0003,7.07 435.4103,4.056 424.7823,1.187 C418.8773,-0.407 416.8143,0.618 413.9713,6.221 C410.6913,12.682 407.4473,19.165 404.4143,25.742 C403.2013,28.372 401.5803,29.779 398.6813,30.298 C394.2743,31.087 389.9863,32.574 385.5693,33.266 C383.5503,33.581 380.9873,33.295 379.2883,32.264 C372.9743,28.431 366.9343,24.148 360.7583,20.086 C355.8483,16.856 353.0673,17.139 348.8433,21.387 C341.2743,28.998 333.7383,36.644 326.2433,44.327 C322.2383,48.433 322.0363,50.688 325.1753,55.435 C329.1743,61.481 333.1513,67.547 337.3503,73.453 C339.0893,75.9 339.7073,78.019 338.6483,81.035 C337.1713,85.24 336.1393,89.65 335.4103,94.054 C334.9203,97.009 333.4953,98.579 330.9133,99.79 C324.2243,102.927 317.6703,106.353 310.9903,109.51 C306.9123,111.436 305.4583,114.478 306.5993,118.712 C309.5743,129.762 312.6743,140.777 315.6563,151.825 C316.8393,156.205 319.5323,157.922 324.0313,157.432 C330.0843,156.773 336.1663,156.377 342.2493,155.866 C345.4083,156.784 348.9513,153.937 351.9273,157.671 C355.1583,161.724 359.1843,165.132 362.6113,169.043 C363.7143,170.303 364.6363,172.29 364.5753,173.903 C364.3063,180.999 363.6903,188.083 363.1163,195.165 C362.6213,201.257 363.6013,203.113 369.3603,204.794 C379.5093,207.757 389.7043,210.574 399.9293,213.262 C405.7363,214.787 408.4353,213.463 411.2763,208.134 C414.5483,201.998 417.8583,195.875 420.8653,189.609 C422.2023,186.823 423.9443,185.574 427.0253,185.102 C431.2943,184.448 435.4033,182.762 439.6703,182.083 C441.8403,181.737 444.5903,181.985 446.4143,183.075 C452.5063,186.715 458.2823,190.88 464.2093,194.797 C469.7523,198.459 471.6933,198.299 476.3303,193.721 C483.9703,186.18 491.5803,178.609 499.1673,171.017 C503.4473,166.732 503.6793,164.657 500.3513,159.609 C496.2813,153.436 491.9533,147.425 488.0813,141.131 C487.0193,139.404 486.5693,136.809 486.9223,134.803 C487.7473,130.12 488.9943,125.472 490.5593,120.981 C491.2213,119.082 492.7823,117.003 494.5103,116.057 C501.3633,112.303 508.4463,108.969 515.4403,105.471 C519.0713,103.655 521.1143,101.024 519.9123,96.725" id="Fill-9"/>
                    </g>
                    <path d="M397.5759,208.7274 C395.4299,238.0364 384.0419,263.7194 363.7269,285.0644 C354.7919,294.4524 346.3199,303.8794 340.8629,315.9504 C336.9809,324.5354 334.3799,333.4244 333.1269,342.3844 L300.7589,342.3844 L300.7589,323.9114 C300.7589,317.2614 295.3489,311.8524 288.6999,311.8524 L273.3599,311.8524 L273.3599,198.8154 C273.3599,198.4214 273.0399,198.1024 272.6469,198.1024 C272.2529,198.1024 271.9339,198.4214 271.9339,198.8154 L271.9339,311.8524 L256.3419,311.8524 C249.6929,311.8524 244.2829,317.2614 244.2829,323.9114 L244.2829,342.3844 L211.8919,342.3844 C211.3249,337.8314 210.4919,333.6754 209.3519,329.6994 C204.8439,313.9734 197.9169,301.7684 188.1749,292.3864 C170.8469,275.7004 159.4579,257.9844 153.3579,238.2264 C140.5779,196.8314 146.6599,158.6424 171.4359,124.7184 C193.6279,94.3314 223.8559,77.2924 261.2799,74.0784 C303.4929,70.4494 339.1399,84.8584 367.2189,116.9014 C389.9259,142.8144 400.1389,173.7084 397.5759,208.7274 L397.5759,208.7274 Z M273.3599,342.3844 L273.3599,313.2784 L288.6999,313.2784 C294.5629,313.2784 299.3329,318.0474 299.3329,323.9114 L299.3329,342.3844 L273.3599,342.3844 Z M245.7089,342.3844 L245.7089,323.9114 C245.7089,318.0474 250.4789,313.2784 256.3419,313.2784 L271.9339,313.2784 L271.9339,342.3844 L245.7089,342.3844 Z M368.2909,115.9614 C339.8969,83.5594 303.8499,68.9894 261.1579,72.6584 C223.3049,75.9094 192.7309,93.1424 170.2839,123.8764 C145.2289,158.1854 139.0759,196.7994 151.9959,238.6464 C158.1689,258.6414 169.6799,276.5554 187.1859,293.4144 C196.7429,302.6174 203.5449,314.6144 207.9809,330.0914 C209.1519,334.1764 209.9929,338.4584 210.5529,343.1814 C210.5949,343.5394 210.8989,343.8104 211.2609,343.8104 L271.9339,343.8104 L271.9339,361.9814 C271.9339,362.3744 272.2529,362.6944 272.6469,362.6944 C273.0399,362.6944 273.3599,362.3744 273.3599,361.9814 L273.3599,343.8104 L333.7499,343.8104 C334.1069,343.8104 334.4089,343.5454 334.4559,343.1914 C335.6559,334.1604 338.2479,325.1934 342.1609,316.5384 C347.5269,304.6694 355.9129,295.3434 364.7609,286.0464 C385.3079,264.4564 396.8269,238.4774 398.9979,208.8314 C401.5909,173.4174 391.2599,142.1714 368.2909,115.9614 L368.2909,115.9614 Z" id="Fill-14" fill="#000"/>
                    <path d="M305.8581,181.1112 C305.5881,180.7612 305.0011,180.7612 304.7311,181.1112 L283.1981,208.9192 L261.6691,181.1112 C261.3991,180.7612 260.8121,180.7632 260.5411,181.1112 L239.0131,208.9182 L217.4841,181.1112 C217.2431,180.7992 216.7951,180.7432 216.4831,180.9842 C216.1721,181.2252 216.1151,181.6732 216.3571,181.9842 L238.4491,210.5192 C238.7191,210.8672 239.3071,210.8672 239.5761,210.5192 L261.1051,182.7122 L282.6351,210.5192 C282.9041,210.8672 283.4921,210.8692 283.7621,210.5192 L305.2951,182.7122 L326.8271,210.5192 C326.9671,210.7012 327.1781,210.7962 327.3911,210.7962 C327.5441,210.7962 327.6971,210.7472 327.8271,210.6462 C328.1381,210.4052 328.1951,209.9582 327.9541,209.6462 L305.8581,181.1112 Z" id="Fill-16" fill="#000"/>
                    <path d="M211.2639,343.0975 L212.7529,386.4335 C213.4379,406.3465 228.2239,422.5385 247.3169,425.5645 C249.5069,437.6745 260.0809,446.8675 272.8219,446.8675 C285.6449,446.8675 296.2689,437.5525 298.3629,425.3265 C316.7899,421.7605 330.8899,405.8685 331.5579,386.4335 L333.0469,343.0975 L211.2639,343.0975 Z" id="Fill-18" fill="#F0BE91"/>
                </g>
            </g>
        </g>
        <g id="Side Decoration" transform="translate(355.000000, 55.994000) scale(1 1)">
            <g id="Side Decoration/Wavy Leaves Copy" stroke="none" stroke-width="1" fill="none" fill-rule="evenodd">
                <path d="M234.980996,515.403988 C234.980996,515.403988 290.172996,490.801988 277.584996,484.102988 C264.997996,477.403988 265.784996,476.223988 278.371996,464.028988 C290.959996,451.835988 285.059996,449.868988 276.011996,445.934988 C266.964996,442.000988 281.971996,434.527988 288.599996,431.380988 C295.227996,428.233988 317.314996,421.152988 302.760996,408.958988 C288.206996,396.764988 334.622996,400.697988 317.314996,383.783988 C300.006996,366.868988 278.105996,392.437988 278.105996,392.437988 C278.105996,392.437988 258.874996,368.944988 250.134996,412.749988 C250.134996,412.749988 227.830996,397.209988 234.980996,432.953988 C234.980996,432.953988 216.693996,430.199988 229.464996,471.109988 C229.464996,471.109988 215.146996,471.531988 221.937996,492.621988 C223.921996,498.784988 226.990996,504.545988 230.828996,509.760988 L234.980996,515.403988 Z" id="Fill-20" fill="#83BB9E"/>
                <path d="M234.980496,515.903988 C234.710496,515.903988 234.488496,515.688988 234.480496,515.417988 C234.476496,515.222988 234.029496,495.696988 240.795496,471.499988 C247.044496,449.153988 260.897496,418.125988 291.403496,397.213988 C291.631496,397.057988 291.942496,397.115988 292.099496,397.343988 C292.254496,397.571988 292.196496,397.882988 291.969496,398.038988 C261.720496,418.773988 247.973496,449.561988 241.767496,471.738988 C235.035496,495.796988 235.475496,515.196988 235.480496,515.389988 C235.488496,515.665988 235.270496,515.895988 234.994496,515.903988 L234.980496,515.903988 Z" id="Fill-21" fill="#000"/>
                <path d="M277.584996,484.602788 C277.505996,484.602788 277.424996,484.583788 277.350996,484.543788 C271.215996,481.279788 268.418996,479.398788 268.063996,476.885788 C267.640996,473.880788 270.998996,470.476788 278.023996,463.670788 C283.246996,458.611788 285.473996,455.133788 285.033996,452.725788 C284.569996,450.182788 281.085996,448.675788 276.675996,446.767788 L275.812996,446.393788 C273.762996,445.501788 272.711996,444.339788 272.688996,442.939788 C272.621996,438.885788 281.614996,434.143788 288.384996,430.928788 C288.634996,430.811788 288.932996,430.916788 289.050996,431.165788 C289.169996,431.415788 289.063996,431.713788 288.813996,431.831788 C278.734996,436.617788 273.645996,440.349788 273.688996,442.922788 C273.704996,443.895788 274.553996,444.755788 276.210996,445.476788 L277.072996,445.849788 C281.757996,447.876788 285.457996,449.477788 286.017996,452.545788 C286.529996,455.350788 284.278996,459.002788 278.719996,464.388788 C272.124996,470.777788 268.699996,474.228788 269.054996,476.745788 C269.346996,478.814788 272.113996,480.624788 277.819996,483.661788 C278.063996,483.790788 278.156996,484.093788 278.026996,484.337788 C277.936996,484.506788 277.763996,484.602788 277.584996,484.602788" id="Fill-22" fill="#000"/>
                <path d="M234.981396,515.903988 C234.827396,515.903988 234.676396,515.833988 234.578396,515.699988 L230.425396,510.056988 C226.415396,504.607988 223.399396,498.792988 221.461396,492.774988 C218.891396,484.793988 218.988396,478.763988 221.750396,474.853988 C224.018396,471.643988 227.398396,470.859988 228.805396,470.669988 C224.995396,458.290988 221.818396,442.368988 227.733396,435.469988 C230.103396,432.706988 233.060396,432.403988 234.364396,432.412988 C232.002396,420.199988 232.883396,412.647988 236.985396,409.960988 C242.091396,406.613988 250.082396,412.103988 250.420396,412.339988 C250.647396,412.497988 250.703396,412.808988 250.545396,413.035988 C250.387396,413.261988 250.075396,413.317988 249.849396,413.159988 C249.772396,413.106988 242.074396,407.819988 237.532396,410.797988 C233.788396,413.251988 233.075396,420.879988 235.471396,432.855988 C235.502396,433.014988 235.455396,433.179988 235.343396,433.297988 C235.231396,433.415988 235.068396,433.469988 234.907396,433.447988 C234.757396,433.426988 231.198396,432.949988 228.479396,436.136988 C225.336396,439.820988 223.040396,448.851988 229.942396,470.960988 C229.989396,471.109988 229.962396,471.271988 229.872396,471.399988 C229.782396,471.526988 229.636396,471.604988 229.481396,471.609988 C229.437396,471.610988 225.127396,471.793988 222.558396,475.442988 C219.997396,479.082988 219.947396,484.810988 222.413396,492.467988 C224.318396,498.382988 227.285396,504.101988 231.231396,509.464988 L235.383396,515.107988 C235.547396,515.329988 235.499396,515.642988 235.277396,515.806988 C235.188396,515.871988 235.084396,515.903988 234.981396,515.903988" id="Fill-23" fill="#000"/>
                <path d="M224.287096,515.403988 C223.951096,515.858988 221.945096,508.313988 202.739096,500.388988 C183.534096,492.464988 189.477096,481.426988 203.910096,481.992988 C218.344096,482.559988 178.439096,470.140988 184.665096,462.182988 C190.892096,454.224988 201.002096,461.899988 202.739096,459.918988 C204.476096,457.937988 177.024096,442.937988 195.420096,432.465988 C213.816096,421.994988 219.759096,441.737988 222.023096,454.224988 C222.023096,454.224988 250.890096,444.635988 233.060096,479.162988 C233.060096,479.162988 257.117096,470.986988 224.287096,515.403988" id="Fill-24" fill="#83BB9E"/>
                <path d="M224.287596,515.903988 C224.279596,515.903988 224.270596,515.903988 224.262596,515.903988 C223.986596,515.889988 223.774596,515.654988 223.787596,515.379988 C225.737596,475.557988 206.041596,444.191988 205.842596,443.879988 C205.693596,443.646988 205.761596,443.337988 205.994596,443.188988 C206.227596,443.039988 206.537596,443.108988 206.684596,443.340988 C206.886596,443.655988 226.752596,475.277988 224.786596,515.427988 C224.773596,515.695988 224.552596,515.903988 224.287596,515.903988" id="Fill-25" fill="#000"/>
                <path d="M214.400896,506.793688 C214.308896,506.793688 214.216896,506.768688 214.132896,506.715688 C210.888896,504.657688 206.990896,502.684688 202.547896,500.851688 C193.840896,497.258688 189.223896,492.457688 190.196896,488.006688 C191.110896,483.824688 196.627896,481.203688 203.929896,481.493688 C204.205896,481.504688 204.420896,481.736688 204.409896,482.012688 C204.399896,482.289688 204.175896,482.509688 203.890896,482.492688 C197.192896,482.226688 191.968896,484.585688 191.173896,488.219688 C190.313896,492.158688 194.707896,496.534688 202.929896,499.926688 C207.425896,501.781688 211.375896,503.781688 214.669896,505.871688 C214.901896,506.019688 214.971896,506.328688 214.823896,506.561688 C214.728896,506.711688 214.566896,506.793688 214.400896,506.793688" id="Fill-26" fill="#000"/>
                <path d="M227.949196,510.835188 C227.849196,510.835188 227.749196,510.805188 227.661196,510.744188 C227.436196,510.585188 227.382196,510.273188 227.541196,510.047188 C241.522196,490.211188 242.198196,483.023188 240.303196,480.486188 C238.389196,477.925188 233.272196,479.619188 233.221196,479.637188 C233.026196,479.701188 232.814196,479.644188 232.681196,479.489188 C232.549196,479.335188 232.523196,479.115188 232.616196,478.934188 C237.711196,469.068188 239.440196,461.947188 237.756196,457.768188 C237.043196,455.999188 235.689196,454.764188 233.730196,454.097188 C228.981196,452.481188 222.248196,454.676188 222.180196,454.699188 C221.918196,454.784188 221.635196,454.644188 221.548196,454.382188 C221.461196,454.120188 221.603196,453.837188 221.865196,453.750188 C222.154196,453.655188 228.981196,451.425188 234.052196,453.151188 C236.299196,453.916188 237.857196,455.343188 238.684196,457.395188 C240.421196,461.707188 238.851196,468.765188 234.017196,478.386188 C235.829196,477.979188 239.363196,477.559188 241.102196,479.885188 C244.150196,483.960188 239.863196,494.302188 228.358196,510.623188 C228.261196,510.761188 228.106196,510.835188 227.949196,510.835188" id="Fill-27" fill="#000"/>
                <path d="M230.263696,483.507088 C230.151696,483.507088 230.037696,483.469088 229.944696,483.392088 C229.732696,483.216088 229.702696,482.901088 229.878696,482.688088 C229.930696,482.625088 235.136696,476.275088 236.698696,469.660088 C236.762696,469.390088 237.029696,469.227088 237.299696,469.288088 C237.568696,469.351088 237.735696,469.621088 237.671696,469.889088 C236.054696,476.736088 230.868696,483.060088 230.648696,483.326088 C230.550696,483.445088 230.407696,483.507088 230.263696,483.507088" id="Fill-28" fill="#000"/>
                <path d="M222.023396,458.912288 C222.006396,458.912288 221.989396,458.911288 221.973396,458.910288 C221.698396,458.882288 221.498396,458.637288 221.525396,458.362288 C221.716396,456.460288 221.487396,453.945288 220.845396,450.885288 C220.788396,450.615288 220.961396,450.350288 221.231396,450.293288 C221.503396,450.238288 221.767396,450.410288 221.823396,450.680288 C222.487396,453.840288 222.721396,456.458288 222.520396,458.462288 C222.494396,458.720288 222.277396,458.912288 222.023396,458.912288" id="Fill-29" fill="#000"/>
                <path d="M237.185496,441.481688 C236.998496,441.481688 236.819496,441.377688 236.733496,441.197688 C234.865496,437.295688 233.294496,425.007688 233.228496,424.486688 C233.193496,424.212688 233.387496,423.961688 233.661496,423.927688 C233.940496,423.897688 234.185496,424.086688 234.220496,424.360688 C234.236496,424.486688 235.836496,437.008688 237.636496,440.765688 C237.755496,441.014688 237.649496,441.313688 237.400496,441.432688 C237.331496,441.465688 237.257496,441.481688 237.185496,441.481688" id="Fill-30" fill="#000"/>
                <path d="M274.338396,398.126688 C274.284396,398.126688 274.229396,398.117688 274.174396,398.099688 C273.913396,398.008688 273.775396,397.723688 273.865396,397.462688 C274.971396,394.270688 283.773396,386.356688 284.148396,386.021688 C284.352396,385.836688 284.669396,385.854688 284.854396,386.060688 C285.038396,386.265688 285.021396,386.581688 284.815396,386.766688 C284.725396,386.846688 275.832396,394.840688 274.811396,397.790688 C274.739396,397.997688 274.545396,398.126688 274.338396,398.126688" id="Fill-31" fill="#000"/>
            </g>
        </g>
        <g transform="translate(-12.792927, -178.006000) scale(1 1)" id="Master/Character/Standing">
            <defs>
                <polygon id="mastercharacterstanding-path-1" points="0 -0.000126433058 71.516 -0.000126433058 71.516 59.6565 0 59.6565"/>
            </defs>
            <g id="Master/Character/Standing" stroke="none" stroke-width="1" fill="none" fill-rule="evenodd">
                <g id="Lower Body/Standing" transform="translate(47.000000, 444.000000) scale(1 1)">
                    <g id="Lower Body/Standing/Walking Shoes" stroke="none" stroke-width="1" fill="none" fill-rule="evenodd">
                        <g id="Group" transform="translate(133.000041, 42.999700)">
                            <path d="M166.830759,260.6316 C160.833759,256.9566 133.184759,246.6776 132.555759,238.3066 C131.579759,225.3146 131.612759,204.5426 131.785759,189.6026 C123.730759,190.4516 114.457759,191.3366 104.595759,192.1006 L115.757759,238.5066 C116.297759,242.6936 117.024759,243.0946 112.472759,252.5926 C108.158759,261.5896 118.710759,263.0136 118.710759,263.0136 L166.113759,263.132605 C166.860759,263.1346 167.468759,262.5286 167.468759,261.7816 C167.468759,261.3116 167.231759,260.8766 166.830759,260.6316 M55.399759,260.6316 C49.403759,256.9566 21.522759,247.9376 24.290759,240.0126 C27.144759,231.8366 39.066759,209.7836 47.360759,194.0976 C37.158759,193.8576 27.610759,193.1716 19.429759,191.8656 L8.42575899,236.0166 C7.13275899,240.3586 4.72875899,242.5956 0.792758991,252.6106 C-2.85724101,261.8976 7.28075899,263.0136 7.28075899,263.0136 L54.683759,263.132605 C55.431759,263.1346 56.037759,262.5286 56.037759,261.7816 C56.037759,261.3116 55.800759,260.8766 55.399759,260.6316" id="Skin" fill="#f4d4b8"/>
                            <path d="M166.830759,260.6316 C165.091759,259.5666 148.762759,250.8816 144.040759,249.2326 C140.470759,256.9376 117.199759,253.3076 115.006759,246.9106 C114.977759,246.9816 112.251759,252.5396 112.223759,252.6106 C108.573759,261.8976 118.710759,263.0136 118.710759,263.0136 L166.114759,263.132605 C166.860759,263.1346 167.468759,262.5286 167.468759,261.7816 C167.468759,261.3116 167.231759,260.8766 166.830759,260.6316 M55.399759,260.6316 C53.660759,259.5666 37.544759,251.5736 32.822759,249.9246 C29.253759,257.6296 8.39875899,253.4806 3.35775899,246.6296 C3.32975899,246.6996 0.820758991,252.5396 0.792758991,252.6106 C-2.85724101,261.8976 7.28075899,263.0136 7.28075899,263.0136 L54.683759,263.132605 C55.431759,263.1346 56.037759,262.5286 56.037759,261.7816 C56.037759,261.3116 55.800759,260.8766 55.399759,260.6316" id="Shoes" fill="#53627B"/>
                            <path d="M121.552659,0.5004 C121.552659,0.5004 146.506479,97.1407679 144.540614,133.720932 C142.574749,170.301096 136.032259,232.3044 136.032259,232.3044 L104.595759,232.3044 C104.595759,232.3044 107.234659,150.6144 105.202659,135.7144 C103.170659,120.8144 88.948659,86.2744 88.948659,86.2744 L35.444659,232.5944 L6.99965899,228.5304 C6.99965899,228.5304 32.735659,127.5874 32.735659,99.1434 C32.735659,70.6974 35.444659,0.5004 35.444659,0.5004 L121.552659,0.5004 Z" id="Pants" fill="#F9E272"/>
                            <path d="M32.735759,99.643 C33.011759,99.643 33.235759,99.419 33.235759,99.143 C33.235759,72.264 35.687759,7.26 35.925759,1 L121.552759,1 C121.828759,1 122.052759,0.777 122.052759,0.5 C122.052759,0.224 121.828759,0 121.552759,0 L35.444759,0 C35.175759,0 34.955759,0.212 34.944759,0.481 C34.917759,1.183 32.235759,71.013 32.235759,99.143 C32.235759,99.419 32.459759,99.643 32.735759,99.643 L32.735759,99.643 Z M3.06265899,246.2271 C3.28265899,246.0631 3.59765899,246.1091 3.76065899,246.3341 C6.97565899,250.7021 17.622659,254.2341 25.251659,253.4691 C27.824659,253.2111 31.147659,252.3491 32.368659,249.7151 C32.477659,249.4801 32.742659,249.3651 32.987659,249.4531 C37.804659,251.1341 54.066659,259.2291 55.660659,260.2051 C55.896659,260.3491 55.970659,260.6571 55.826659,260.8921 C55.731659,261.0471 55.567659,261.1321 55.399659,261.1321 C55.310659,261.1321 55.220659,261.1081 55.139659,261.0581 C53.601659,260.1161 38.288659,252.4911 33.065659,250.5451 C31.833659,252.7271 29.179659,254.0801 25.352659,254.4651 C17.290659,255.2731 6.40365899,251.6121 2.95565899,246.9251 C2.79165899,246.7041 2.83965899,246.3901 3.06265899,246.2271 Z M115.030659,246.4141 C115.234659,246.4241 115.412659,246.5551 115.479659,246.7491 C116.533659,249.8241 123.595659,252.6471 131.221659,253.0421 C137.644659,253.3681 142.267659,251.8711 143.586659,249.0221 C143.702659,248.7711 144.001659,248.6621 144.250659,248.7781 C144.501659,248.8941 144.609659,249.1921 144.494659,249.4421 C143.125659,252.3961 138.850659,254.0871 132.902659,254.0871 C132.339659,254.0871 131.761659,254.0711 131.169659,254.0411 C124.643659,253.7031 117.244659,251.4061 115.015659,248.0361 C114.814659,248.4461 114.523659,249.0401 114.103659,249.9011 C113.421659,251.2941 112.727659,252.7121 112.680659,252.8141 C112.565659,253.0611 112.276659,253.1751 112.027659,253.0681 C111.778659,252.9621 111.658659,252.6781 111.758659,252.4261 C111.774659,252.3851 111.845659,252.2401 113.204659,249.4611 C113.860659,248.1201 114.505659,246.8031 114.550659,246.7071 C114.636659,246.5201 114.816659,246.4181 115.030659,246.4141 Z M122.823431,241.179266 L122.914659,241.1911 C123.183659,241.2551 123.350659,241.5231 123.287659,241.7931 L123.287659,241.7931 L122.906659,243.4211 C122.515659,245.0961 123.007659,246.8231 124.224659,248.0391 C124.419659,248.2341 124.419659,248.5501 124.224659,248.7461 C124.126659,248.8431 123.998659,248.8921 123.870659,248.8921 C123.742659,248.8921 123.614659,248.8431 123.517659,248.7461 C122.054659,247.2841 121.462659,245.2091 121.932659,243.1931 L121.932659,243.1931 L122.313659,241.5641 C122.376659,241.2961 122.638659,241.1311 122.914659,241.1911 Z M11.3935726,241.179267 L11.482659,241.1911 C11.752659,241.2551 11.919659,241.5231 11.856659,241.7921 L11.856659,241.7921 L11.477659,243.4201 C11.084659,245.0951 11.576659,246.8221 12.793659,248.0391 C12.988659,248.2341 12.988659,248.5501 12.793659,248.7461 C12.695659,248.8431 12.567659,248.8921 12.439659,248.8921 C12.312659,248.8921 12.184659,248.8431 12.086659,248.7461 C10.623659,247.2831 10.031659,245.2071 10.502659,243.1921 L10.502659,243.1921 L10.882659,241.5651 C10.945659,241.2961 11.214659,241.1311 11.482659,241.1911 Z M94.001759,47.601 L94.990759,47.744 C94.990759,47.744 92.109759,67.649 89.432759,86.138 C89.924759,87.337 103.706759,121.045 105.697759,135.647 C105.735759,135.92 105.543759,136.172 105.270759,136.209 C104.997759,136.244 104.744759,136.056 104.707759,135.782 C102.963759,122.997 91.3623438,93.6265676 88.4943438,86.4995676 C81.5845768,107.774746 78.1040267,118.587002 78.0526934,118.936335 C78.0446934,118.991002 64.3479748,155.98149 36.9625375,229.9078 C36.9265375,230.1558 36.7125375,230.3348 36.4685375,230.3348 C36.4445375,230.3348 35.9985375,230.337161 35.9735375,230.3348 C35.7005375,230.2948 35.9325375,230.0348 35.9735375,229.7618 L35.9735375,229.7618 L83.0273027,100.868708 C83.7205592,96.0818378 86.1771872,91.6782189 87.2509356,86.138 C90.7865569,67.8952565 94.001759,47.601 94.001759,47.601 L94.001759,47.601 Z" id="Fill-9" fill="#000"/>
                        </g>
                    </g>
                </g>
                <g id="Upper Body" transform="translate(8.000000, 189.000000) scale(1 1)">
                    <g id="Upper Body/Working" stroke="none" stroke-width="1" fill="none" fill-rule="evenodd">
                        <path d="M309.7378,252.8214 C308.6218,256.0324 300.0308,257.0394 293.4438,257.3364 C293.9308,241.0084 294.5558,225.9074 294.5558,225.9074 C294.5558,225.9074 311.5788,247.5314 309.7378,252.8214 M198.2368,241.5414 C203.6998,234.0044 212.6638,228.2084 212.6638,228.2084 C212.6638,228.2084 211.9008,235.3924 210.7778,245.0494 C203.5618,245.9244 194.8878,246.1614 198.2368,241.5414 M262.3508,184.2714 L251.3088,207.5054 L237.2768,184.7314 C237.2768,184.7314 229.8218,186.0084 219.6578,190.3464 L216.2998,191.8504 C203.0168,198.0834 186.3378,209.3414 175.3448,229.0614 C154.4878,266.4794 182.2178,277.9274 206.5728,277.8094 C206.0588,281.2844 205.5528,284.4534 205.0718,287.0964 C201.8518,304.8094 205.0718,305.5004 205.0718,305.5004 L292.9458,305.5004 C292.9458,305.5004 299.9722,306.397312 298.8222,297.195312 C298.5632,295.122312 298.7792,293.1504 298.8222,287.0964 C338.789062,291.005859 334.2758,259.1564 334.2758,259.1564 C325.5428,184.2714 262.3508,184.2714 262.3508,184.2714 Z" id="Sweater" fill="#94B1EB"/>
                        <polygon id="Laptop" fill="#F1EFEF" points="295.9927 215.0607 282.0797 252.2737 282.0207 252.2587 243.4967 252.2587 243.4967 253.2587 279.3647 259.5367 334.0617 259.5367 354.1477 215.0607"/>
                        <path d="M299.4468,259.5363 L278.9688,259.5363 L253.9818,255.1633 C262.2028,265.1363 276.6118,262.4843 276.6118,262.4843 C284.3618,268.7093 291.7418,274.2273 298.2168,278.0773 C298.6418,267.4183 299.5398,262.8073 299.4468,259.5363 L299.4468,259.5363 Z M275.9208,251.8843 C276.7008,251.9283 277.0218,250.9053 276.3588,250.4923 C274.3818,249.2623 271.2918,247.4883 267.6068,245.8423 C269.9868,245.8443 271.4088,245.6063 270.2888,244.8863 C265.6968,241.9293 251.0988,241.5413 251.0988,241.5413 C251.0658,241.5513 251.0408,241.5603 251.0088,241.5703 C250.0518,241.5433 249.0968,241.5463 248.1508,241.6213 C233.7388,242.7753 218.7178,247.9923 218.7178,247.9923 L217.7858,267.6603 C217.7858,267.6603 243.5718,253.5813 249.8138,252.0543 C254.6988,250.8573 269.6488,251.5333 275.9208,251.8843 L275.9208,251.8843 Z M262.3508,184.2713 L257.350561,182.2013 L257.350561,172.9993 L243.549561,172.9993 L243.549561,182.6613 L237.2768,184.7313 L251.3088,207.5053 L262.3508,184.2713 Z" id="Skin" fill="#f4d4b8"/>
                        <path d="M294.6851,287.8634 C294.5541,287.8634 294.4221,287.8494 294.2891,287.8234 C293.7061,287.7094 293.2561,287.3954 292.9531,286.8934 C291.8441,285.0614 293.0251,281.0724 293.9731,277.8664 C294.1291,277.3404 294.2751,276.8484 294.3941,276.4144 C294.4671,276.1474 294.7451,275.9934 295.0091,276.0644 C295.2761,276.1384 295.4321,276.4144 295.3591,276.6794 C295.2371,277.1204 295.0901,277.6174 294.9321,278.1504 C294.1341,280.8464 292.9281,284.9224 293.8081,286.3764 C293.9641,286.6344 294.1791,286.7824 294.4821,286.8424 C294.7971,286.9014 295.0791,286.8234 295.3711,286.5864 C297.6491,284.7334 299.0991,274.7884 299.2501,259.9824 C299.2531,259.7084 299.4771,259.4874 299.7501,259.4874 L299.7551,259.4874 C300.0321,259.4904 300.2531,259.7164 300.25013,259.9924 C300.1591,268.9984 299.4841,284.5294 296.0011,287.3624 C295.5911,287.6954 295.1501,287.8634 294.6851,287.8634" id="Fill-9" fill="#000"/>
                        <path d="M299.2779,287.8341 C298.1339,287.8341 296.9589,287.8181 295.7519,287.7871 C295.4749,287.7791 295.2569,287.5501 295.263736,287.2741 C295.2719,286.9991 295.5159,286.7791 295.7769,286.7871 C306.6269,287.0711 314.8199,286.0821 320.1729,283.8541 C320.4279,283.7521 320.7199,283.8681 320.8269,284.1231 C320.9319,284.3781 320.8119,284.6711 320.5569,284.7771 C315.6749,286.8091 308.5279,287.8341 299.2779,287.8341" id="Fill-11" fill="#000"/>
                        <path d="M280.9185,258.6349 C280.8915,258.6349 280.8625,258.6329 280.8355,258.6279 L246.6335,252.8529 C246.3605,252.8069 246.1775,252.5489 246.2235,252.2769 C246.2695,252.0039 246.5375,251.8229 246.7995,251.8659 L280.5895,257.5729 L296.0345,214.5349 C296.1065,214.3369 296.2945,214.2039 296.5055,214.2039 L354.6605,214.2039 C354.8305,214.2039 354.9885,214.2899 355.0805,214.4329 C355.1725,214.5749 355.1865,214.7549 355.1165,214.9099 L339.8015,248.8239 C339.6875,249.0759 339.3915,249.1869 339.1395,249.0739 C338.8885,248.9599 338.7755,248.6639 338.8895,248.4119 L353.8865,215.2039 L296.8565,215.2039 L281.3895,258.3039 C281.3165,258.5049 281.1265,258.6349 280.9185,258.6349" id="Fill-13" fill="#000"/>
                        <path d="M237.2368,257.8361 C237.0728,257.8361 236.9108,257.7551 236.8158,257.6061 C236.6668,257.3731 236.7348,257.0641 236.9668,256.9151 C241.6468,253.9221 249.3488,251.6681 249.6748,251.5731 C254.6538,250.3561 269.7068,251.0361 275.9488,251.3851 C276.1248,251.3931 276.1828,251.2791 276.2038,251.2101 C276.2218,251.1531 276.2468,251.0121 276.0938,250.9171 C271.3698,247.9791 259.1948,241.2471 248.1908,242.1201 C248.0638,242.1331 234.4678,243.5121 225.6658,246.3191 C225.3988,246.4011 225.1208,246.2571 225.0368,245.9951 C224.9528,245.7321 225.0978,245.4501 225.3608,245.3661 C234.2648,242.5261 247.9648,241.1391 248.1008,241.1251 C259.4268,240.2181 271.8138,247.0771 276.6228,250.0671 C277.1188,250.3761 277.3328,250.9561 277.1568,251.5121 C276.9818,252.0661 276.4608,252.4251 275.8918,252.3831 C269.6938,252.0371 254.7578,251.3581 249.9328,252.5391 C249.8748,252.5571 242.0628,254.8431 237.5068,257.7571 C237.4228,257.8111 237.3298,257.8361 237.2368,257.8361" id="Fill-15" fill="#000"/>
                        <path d="M273.6284,252.0822 C273.5004,252.0822 273.3724,252.0332 273.2744,251.9362 C267.0384,245.7022 256.7364,245.6232 256.6334,245.6232 C256.3574,245.6232 256.1334,245.3992 256.1334,245.1232 C256.1334,244.8472 256.3574,244.6232 256.6334,244.6232 C257.0714,244.6232 267.4474,244.6972 273.9824,251.2282 C274.1774,251.4242 274.1774,251.7402 273.9824,251.9362 C273.8844,252.0332 273.7564,252.0822 273.6284,252.0822" id="Fill-17" fill="#000"/>
                        <path d="M269.5611,252.0822 C269.3741,252.0822 269.1951,251.9772 269.1091,251.7962 C267.6761,248.7742 259.3251,248.3882 256.2291,248.5042 C255.9631,248.5062 255.7221,248.2972 255.7111,248.0212 C255.7021,247.7452 255.9171,247.5142 256.1941,247.5042 C256.6761,247.4912 268.0061,247.1362 270.0131,251.3682 C270.1311,251.6172 270.0251,251.9152 269.7751,252.0342 C269.7071,252.0662 269.6331,252.0822 269.5611,252.0822" id="Fill-19" fill="#000"/>
                        <path d="M267.6504,246.3431 C267.3274,246.3361 267.1194,246.1281 267.1194,245.8431 C267.1194,245.5661 267.3434,245.3431 267.6194,245.3431 L267.6474,245.3431 C268.8494,245.3431 269.5104,245.2771 269.8694,245.2141 C265.2834,242.4491 251.2294,242.0451 251.0854,242.0411 C250.8104,242.0331 250.5924,241.8041 250.599236,241.5271 C250.6074,241.2561 250.8284,241.0411 251.0994,241.0411 L251.1124,241.0411 C251.7144,241.0581 265.9034,241.4671 270.5594,244.4661 C271.0614,244.7891 271.2604,245.1411 271.1504,245.5131 C270.9964,246.0381 270.3724,246.3431 267.6504,246.3431 L267.6504,246.3431 Z" id="Fill-21" fill="#000"/>
                        <path d="M210.7788,245.549 C210.7628,245.549 210.7488,245.548 210.7338,245.547 C210.4588,245.523 210.2558,245.28 210.2798,245.005 C212.1458,223.895 213.3678,217.834 213.3808,217.776 C213.4348,217.504 213.7038,217.324 213.9698,217.387 C214.2408,217.443 214.4148,217.706 214.3588,217.977 C214.3468,218.035 213.1348,224.07 211.2758,245.093 C211.2528,245.353 211.0348,245.549 210.7788,245.549" id="Fill-23" fill="#000"/>
                        <path d="M220.8765,277.1867 C220.6475,277.1867 220.4245,277.1407 220.2075,277.0467 C215.7955,275.1547 217.5815,251.0167 217.9825,246.2157 L206.3075,246.3427 C194.0445,246.4947 186.5905,242.1567 186.2765,241.9717 C186.0395,241.8327 185.9605,241.5267 186.1005,241.2887 C186.2385,241.0487 186.5465,240.9707 186.7835,241.1097 C186.8575,241.1547 194.4095,245.4817 206.2955,245.3427 L218.5225,245.2097 C218.6715,245.2227 218.7995,245.2667 218.8955,245.3707 C218.9905,245.4737 219.0385,245.6137 219.0255,245.7537 C218.0545,256.8197 217.6225,274.8507 220.6025,276.1277 C221.2015,276.3907 222.0085,275.6777 222.5745,275.0347 C224.2705,273.1147 225.0635,269.4957 224.9355,264.2787 C224.9285,264.0017 225.1475,263.7727 225.4225,263.7657 L225.4355,263.7657 C225.7055,263.7657 225.9285,263.9817 225.9355,264.2527 C226.0695,269.7307 225.1915,273.5807 223.3245,275.6967 C222.4495,276.6877 221.6295,277.1867 220.8765,277.1867" id="Fill-25" fill="#000"/>
                        <path d="M207.5181,278.0636 C199.2581,278.0636 192.8911,276.9076 188.5181,275.7126 C181.4761,273.7886 178.0051,271.4086 177.8621,271.3076 C177.6351,271.1506 177.5791,270.8386 177.7371,270.6126 C177.8931,270.3866 178.2061,270.3316 178.4321,270.4866 C178.5701,270.5826 192.4941,279.9596 220.5441,276.1546 C220.8071,276.1046 221.0691,276.3076 221.1071,276.5826 C221.1441,276.8556 220.9531,277.1076 220.6791,277.1446 C215.8661,277.7986 211.4741,278.0636 207.5181,278.0636" id="Fill-27" fill="#000"/>
                        <path d="M272.3277,263.2902 C267.7267,263.2902 260.4197,262.3302 255.0207,257.0472 C254.8237,256.8532 254.8197,256.5372 255.0137,256.3402 C255.2057,256.1422 255.5217,256.1402 255.7207,256.3322 C263.7847,264.2242 276.3967,262.0182 276.5207,261.9922 C276.8037,261.9452 277.0537,262.1232 277.1027,262.3942 C277.1537,262.6652 276.9737,262.9262 276.7027,262.9762 C276.6547,262.9842 274.9207,263.2902 272.3277,263.2902" id="Fill-29" fill="#000"/>
                        <path d="M251.3091,208.005 C251.1361,208.005 250.9751,207.915 250.8831,207.768 L236.8511,184.994 C236.7061,184.759 236.7801,184.45 237.0141,184.306 C237.2491,184.163 237.5571,184.233 237.7031,184.469 L251.2521,206.46 L261.9001,184.057 C262.0181,183.807 262.3181,183.701 262.5661,183.82 C262.8151,183.939 262.9211,184.236 262.8021,184.486 L251.7601,207.72 C251.6821,207.885 251.5191,207.994 251.3361,208.004 C251.3271,208.005 251.3181,208.005 251.3091,208.005" id="Fill-31" fill="#000"/>
                    </g>
                </g>
                <g id="Hair" transform="translate(107.000000, 209.000000) scale(1 1)">
                    <g id="Hair/Side Tail" stroke="none" stroke-width="1" fill="none" fill-rule="evenodd">
                        <g id="Head" transform="translate(132.000000, 111.000000)">
                            <path d="M44.1789,24.3663 C44.5879,35.6913 33.3599,45.0883 22.4569,45.0883 C11.5539,45.0883 0.4939,36.9643 0.0189,25.3903 C-0.4461,14.0673 7.7449,1.3583 15.9329,0.2613 C32.6079,-1.9747 43.6789,10.5083 44.1789,24.3663" id="Fill-1" fill="#000"/>
                            <path d="M22.4567,44.088 C12.4757,44.088 1.4787,36.559 1.0177,25.35 C0.5797,14.678 8.3147,2.291 16.0657,1.252 C17.3127,1.085 18.5577,1 19.7657,1 C34.4247,1 42.7697,13.058 43.1797,24.402 C43.3447,28.984 41.4627,33.553 37.8807,37.268 C33.7607,41.538 27.9947,44.088 22.4567,44.088" id="Fill-4" fill="#f4d4b8"/>
                        </g>
                        <path d="M174.8031,113.3184 C161.0591,112.4594 172.6561,104.0124 159.4841,102.4374 C159.4841,102.4374 136.5781,98.1424 128.5601,116.4674 C120.5431,134.7934 132.4261,149.1094 132.4261,149.1094 C132.4261,149.1094 113.7031,150.8604 119.7601,164.8374 C124.8631,176.6114 137.0301,173.2754 129.1801,189.9574 C121.3301,206.6374 132.9081,211.7404 143.7021,211.7404 C143.7021,211.7404 130.9461,198.9844 141.5441,190.7424 C152.1411,182.4994 151.9451,170.7244 142.1321,164.4444 C132.3201,158.1644 140.4921,149.1094 140.4921,149.1094 C140.4921,149.1094 134.4301,133.7904 142.3041,129.6394 C150.1781,125.4874 150.8941,123.4834 150.8941,119.1884 C150.8941,119.1884 151.7531,126.7764 158.0531,126.7764 L183.9661,126.7764 C183.9661,126.7764 182.7531,113.8154 174.8031,113.3184" id="Hair" fill="#ad3409"/>
                        <path d="M138.9793,148.9605 L132.6893,148.9605 C132.1623,148.9605 131.7353,148.5335 131.7353,148.0055 C131.7353,147.4795 132.1623,147.0515 132.6893,147.0515 L138.9793,147.0515 C139.5063,147.0515 139.9333,147.4795 139.9333,148.0055 C139.9333,148.5335 139.5063,148.9605 138.9793,148.9605" id="Fill-6" fill="#71BD9C"/>
                        <path d="M138.9795,148.7419 L132.6895,148.7419 C132.4555,148.7419 132.2655,148.5519 132.2655,148.3169 C132.2655,148.0829 132.4555,147.8929 132.6895,147.8929 L138.9795,147.8929 C139.2135,147.8929 139.4035,148.0829 139.4035,148.3169 C139.4035,148.5519 139.2135,148.7419 138.9795,148.7419 M142.4305,164.2889 C139.7595,162.5799 138.2425,160.5069 137.9205,158.1279 C137.4435,154.6059 139.7085,151.3069 140.5765,150.1919 C140.6725,150.2899 141.0125,149.2069 140.9575,149.1489 C140.9415,149.1209 140.9175,149.1009 140.8965,149.0769 C140.3585,147.6389 135.5165,134.0949 142.5385,130.3929 C148.6435,127.1729 150.5815,125.1169 151.1625,122.3839 C152.0805,124.6969 154.0325,127.5869 158.0525,127.5869 L173.2265,127.5869 C173.5505,127.4689 173.9385,127.7269 174.2785,127.3349 C174.2095,127.1809 174.1465,127.0259 174.0755,126.8729 C173.9925,126.6989 173.8165,126.5869 173.6235,126.5869 L158.0525,126.5869 C152.2795,126.5869 151.4245,119.7339 151.3915,119.4429 C151.3615,119.1799 151.1305,118.9939 150.8655,118.999759 C150.6015,119.0149 150.3945,119.2339 150.3945,119.4989 C150.3945,123.6629 149.7125,125.4789 142.0715,129.5079 C135.9235,132.7489 137.7135,142.0949 139.1045,146.8459 C139.0625,146.8419 139.0215,146.8329 138.9795,146.8329 L132.6895,146.8329 C131.8715,146.8329 131.2055,147.4989 131.2055,148.3169 C131.2055,148.5649 131.2715,148.7949 131.3795,148.9999 C128.8075,149.3959 121.9665,150.8679 119.1815,155.5759 C117.5835,158.2769 117.6065,161.5719 119.2525,165.3679 C119.3735,165.6479 119.6995,165.7759 119.9805,165.6559 C120.2605,165.5339 120.3895,165.2089 120.2685,164.9279 C118.7715,161.4759 118.7265,158.5199 120.1325,156.1419 C123.1365,151.0599 131.8055,150.0429 132.3725,149.9799 C129.7775,152.2119 124.8315,158.0029 129.9385,166.7399 C131.8115,169.9429 133.3125,171.9819 134.5195,173.6199 C137.3675,177.4879 138.0445,178.4069 136.6435,185.9969 C136.5875,186.2979 136.7865,186.5859 137.0865,186.6419 C137.1215,186.6479 137.1545,186.6509 137.1875,186.6509 C137.4495,186.6509 137.6825,186.4649 137.7315,186.1979 C139.2195,178.1369 138.3365,176.9369 135.4105,172.9639 C134.2195,171.3459 132.7365,169.3339 130.8935,166.1809 C125.1215,156.3079 133.0455,150.7089 134.1835,149.9739 L135.4305,149.9739 C134.0835,151.9169 131.3155,156.7509 133.5295,161.1239 C133.6265,161.3159 133.8215,161.4279 134.0235,161.4279 C134.1075,161.4279 134.1925,161.4079 134.2725,161.3669 C134.5455,161.2289 134.6545,160.8969 134.5165,160.6239 C132.2815,156.2089 136.0575,150.9429 136.8015,149.9739 L139.3505,149.9739 C138.2475,151.4989 136.3455,154.7199 136.8225,158.2699 C137.1875,160.9889 138.8745,163.3269 141.8335,165.2219 C146.2035,168.0179 148.7215,172.0059 148.9255,176.4499 C149.1585,181.5309 146.4165,186.5609 141.2035,190.6159 C138.4715,192.7409 136.9905,195.3519 136.8015,198.3759 C136.3645,205.4099 143.0275,212.1589 143.3115,212.4429 C143.4195,212.5509 143.5615,212.6049 143.7025,212.6049 C143.8445,212.6049 143.9855,212.5509 144.0935,212.4429 C144.3105,212.2269 144.3105,211.8769 144.0945,211.6599 C144.0275,211.5949 137.4985,204.9749 137.9065,198.4409 C138.0755,195.7499 139.4135,193.4109 141.8835,191.4889 C147.3875,187.2089 150.2815,181.8489 150.0315,176.3989 C149.8105,171.5859 147.1115,167.2849 142.4305,164.2889" id="Fill-1" fill="#000"/>
                    </g>
                </g>
                <g id="Expression" transform="translate(204.000000, 312.000000) scale(1 1)">
                    <g id="Expression/Happy" stroke="none" stroke-width="1" fill="none" fill-rule="evenodd">
                        <path d="M65.5638,42.4847 C65.7318,42.7047 65.6888,43.0187 65.4678,43.1857 C63.3578,44.7897 61.4758,45.3127 59.9198,45.3127 C57.0168,45.3127 55.2448,43.4917 55.2178,43.4637 C55.0288,43.2627 55.0378,42.9477 55.2368,42.7577 C55.4378,42.5677 55.7538,42.5767 55.9438,42.7747 C56.0888,42.9257 59.5458,46.4277 64.8638,42.3897 C65.0828,42.2217 65.3978,42.2647 65.5638,42.4847 Z M61.1759,29.2677 C61.5959,29.7817 65.2429,34.3587 64.0529,36.8667 C63.5839,37.8557 62.4859,38.3567 60.7889,38.3567 C59.0919,38.3567 57.9939,37.8557 57.5249,36.8677 C56.3349,34.3597 59.9819,29.7817 60.4019,29.2677 C60.5909,29.0357 60.9859,29.0357 61.1759,29.2677 Z M60.7889,30.3977 C59.6359,31.9377 57.7339,34.9747 58.4289,36.4387 C58.7179,37.0477 59.5119,37.3567 60.7889,37.3567 C62.0659,37.3567 62.8599,37.0477 63.1489,36.4387 C63.8449,34.9747 61.9419,31.9377 60.7889,30.3977 Z M53.8972,27.8363 C54.5552,27.8363 55.0892,28.6193 55.0892,29.5843 C55.0892,30.5493 54.5552,31.3323 53.8972,31.3323 C53.2392,31.3323 52.7062,30.5493 52.7062,29.5843 C52.7062,28.6193 53.2392,27.8363 53.8972,27.8363 Z M67.769,27.8363 C68.428,27.8363 68.961,28.6193 68.961,29.5843 C68.961,30.5493 68.428,31.3323 67.769,31.3323 C67.112,31.3323 66.578,30.5493 66.578,29.5843 C66.578,28.6193 67.112,27.8363 67.769,27.8363 Z M55.0896,23.9998 C55.3656,23.9998 55.5896,24.2238 55.5896,24.4998 C55.5896,24.7758 55.3656,24.9998 55.0896,24.9998 C52.5666,24.9998 51.0876,26.4288 51.0726,26.4438 C50.9746,26.5398 50.8476,26.5878 50.7206,26.5878 C50.5916,26.5878 50.4636,26.5388 50.3666,26.4408 C50.1716,26.2448 50.1716,25.9298 50.3666,25.7348 C50.4376,25.6648 52.1356,23.9998 55.0896,23.9998 Z M66.5776,23.9998 C69.5316,23.9998 71.2296,25.6648 71.3006,25.7348 C71.4956,25.9298 71.4956,26.2448 71.3006,26.4408 C71.2036,26.5388 71.0746,26.5878 70.9466,26.5878 C70.8196,26.5878 70.6926,26.5398 70.5946,26.4438 C70.5806,26.4288 69.1006,24.9998 66.5776,24.9998 C66.3016,24.9998 66.0776,24.7758 66.0776,24.4998 C66.0776,24.2238 66.3016,23.9998 66.5776,23.9998 Z" id="Combined-Shape" fill="#000"/>
                        <path d="M51.4996066,33 C53.4327301,33 55,33.8954741 55,35 C55,36.1045259 53.4327301,37 51.4996066,37 C49.5664831,37 48,36.1045259 48,35 C48,33.8954741 49.5664831,33 51.4996066,33 Z M69.5,33 C71.4329063,33 73,33.8954741 73,35 C73,36.1045259 71.4329063,37 69.5,37 C67.5670937,37 66,36.1045259 66,35 C66,33.8954741 67.5670937,33 69.5,33 Z" id="Cheeks" fill="#E2A2B5"/>
                    </g>
                </g>
                <g id="Facial Hair" transform="translate(204.167262, 311.700000) scale(1 1)">
                    <g id="Facial Hair/Full Beard" stroke="none" stroke-width="1" fill="none" fill-rule="evenodd">
                        <path d="M49.6672616,45.9901 C49.6672616,43.4141 55.3657642,40.3009584 59.8849284,40.3009584 C64.4040926,40.3009584 69.6672616,41.8251834 69.6672616,44.4011834 C69.6672616,45.7389446 66.5704156,48.6516044 59.8849284,49.4012977 C53.1994412,50.150991 49.6672616,47.290908 49.6672616,45.9901 Z M47.7258758,44.0425193 C44.4942908,47.6714632 43.0628554,48.1872172 43.0628554,48.1872172 C65.8471694,70.7255535 74.2657333,44.9127904 74.2657333,44.0425193 C69.3437808,43.134869 67.8337858,38.9413572 60.9712699,38.9413572 C54.1087539,38.9413572 50.9574609,40.4135755 47.7258758,44.0425193 Z" id="Beard" fill="#ad3409"/>
                        <path d="M60.9514212,38.4417514 C64.5760205,38.2977513 66.6042105,39.0215418 69.3469303,40.9470717 L70.1435,41.5184356 C71.7499252,42.6733304 72.7421106,43.210779 74.097732,43.4994997 L74.3564087,43.5508101 L74.7657333,43.6262931 L74.7657333,44.0425193 C74.7657333,45.9086 71.1690402,52.3331251 67.0630725,55.3111907 C60.4966865,60.0738019 53.1785175,58.6452599 43.1827877,48.9122737 L42.1909284,47.9338247 L43.070709,47.7271612 C43.1183404,47.7159725 43.2330111,47.6797818 43.409524,47.6086723 C43.7188825,47.484045 44.0795103,47.3046359 44.4862174,47.0604148 C45.5843428,46.4010079 45.78623,45.4142435 47.0578079,44.0352278 L47.3524706,43.7100009 C50.8135352,39.8233605 53.5348457,38.7364011 60.9514212,38.4417514 Z M69.8734552,42.5535143 L69.0596784,41.9697788 C66.3288967,40.0054062 64.4916176,39.3018934 60.9911185,39.4409631 L60.1536797,39.4786009 C53.9008574,39.7948499 51.4394425,40.7703962 48.4874567,43.9479585 L48.0992811,44.3750378 C46.6523651,45.9998679 46.2715683,47.1547795 45.0010182,47.9177246 C44.788088,48.0455858 44.5899201,48.1560233 44.4074313,48.2506442 L44.2302028,48.3400523 L44.095,48.404 L44.2273384,48.5310561 C53.5052523,57.4232563 60.0388217,58.8322622 66.0294042,54.8133586 L66.2561533,54.6581371 L66.4759448,54.5016963 C68.6912042,52.8949649 70.5515801,50.6111729 72.0208873,47.9866508 C72.6990931,46.7752184 73.2930768,45.432202 73.5810796,44.6585474 L73.664,44.426 L73.6057533,44.4130563 C72.4125048,44.1221321 71.4525609,43.6367331 70.1743321,42.7623009 L69.8734552,42.5535143 Z M59.8849284,39.8009584 C65.2571339,39.8009584 70.1672616,41.6365081 70.1672616,44.4011834 C70.1672616,46.5794731 65.8428519,49.2363254 59.9406479,49.8981833 C54.0996259,50.5531805 49.1672616,48.3035378 49.1672616,45.9901 C49.1672616,43.0773939 55.0916679,39.8009584 59.8849284,39.8009584 Z M59.8849284,40.8009584 C55.5704985,40.8009584 50.1672616,43.7891662 50.1672616,45.9901 C50.1672616,46.4674746 51.0523315,47.3601484 52.476524,48.0097201 C54.3664632,48.871718 56.885963,49.2344601 59.8292089,48.904412 C65.2870104,48.2923882 69.1672616,45.9084202 69.1672616,44.4011834 C69.1672616,42.4571606 64.7368918,40.8009584 59.8849284,40.8009584 Z" id="Beard-Copy" fill="#000" fill-rule="nonzero"/>
                    </g>
                </g>
                <g id="Accesories" transform="translate(107.500000, 210.000000) scale(1 1)" fill="#000">
                    <g id="Accesories/Erign" stroke="none" stroke-width="1" fill="none" fill-rule="evenodd">
                        <path d="M134,147.1409 C134,149.1719 135.647,150.8199 137.679,150.8199 C139.71,150.8199 141.357,149.1719 141.357,147.1409 L134,147.1409 Z M137.679,142.2619 C139.132,142.2619 140.31,141.0839 140.31,139.6309 C140.31,138.1779 139.132,136.9999 137.679,136.9999 C136.226,136.9999 135.047,138.1779 135.047,139.6309 C135.047,141.0839 136.226,142.2619 137.679,142.2619 L137.679,142.2619 Z" id="Ering" fill="#83BB9E"/>
                        <path d="M138.1787,147.1409 L138.1787,139.7189 C138.1787,139.4429 137.9547,139.2189 137.6787,139.2189 C137.4027,139.2189 137.1787,139.4429 137.1787,139.7189 L137.1787,147.1409 L138.1787,147.1409 Z" id="Fill-4" fill="#000"/>
                    </g>
                </g>
            </g>
        </g>
    </g>
</svg>
