<svg viewBox="143.281 283.8 219.439 212.85" xmlns="http://www.w3.org/2000/svg" overflow="visible">
    <g id="Master/Stickers/Working Windows" stroke="none" stroke-width="1" fill="none" fill-rule="evenodd">
        <polygon id="Fill-1" fill="#F1EFEF" points="206 346 357 346 357 288 206 288"/>
        <path d="M357.224867,287.8231 C357.47268,287.8231 357.673803,288.024404 357.673803,288.272439 L357.673803,346.029602 C357.673803,346.277637 357.47268,346.478941 357.224867,346.478941 L206.237756,346.478941 C205.989943,346.478941 205.78882,346.277637 205.78882,346.029602 C205.78882,345.781567 205.989943,345.580263 206.237756,345.580263 L356.775931,345.580263 L356.775931,288.272439 C356.775931,288.024404 356.977054,287.8231 357.224867,287.8231 Z M267.630945,296.726396 C267.878757,296.726396 268.079881,296.926802 268.079881,297.175736 L268.079881,338.141093 C268.079881,338.389128 267.878757,338.590432 267.630945,338.590432 L216.000591,338.590432 C215.751881,338.590432 215.551655,338.389128 215.551655,338.141093 L215.551655,297.175736 C215.551655,296.926802 215.751881,296.726396 216.000591,296.726396 L267.630945,296.726396 Z M267.182009,297.625075 L216.449528,297.625075 L216.449528,337.691753 L267.182009,337.691753 L267.182009,297.625075 Z" id="Combined-Shape" fill="#000"/>
        <polygon id="Fill-8" fill="#F1EFEF" points="147.448936 443.955084 303.641911 443.955084 303.641911 340.600775 147.448936 340.600775"/>
        <polygon id="Fill-9" fill="#F1EFEF" points="255.915506 491 353.536677 491 353.536677 404.437498 255.915506 404.437498"/>
        <path d="M353.536677,456.115101 L353.536677,491 L255.915506,491 L255.915506,456.115101 L353.536677,456.115101 Z M303.641911,331.481885 L303.641911,340.600775 L147.448936,340.600775 L147.448936,331.481885 L303.641911,331.481885 Z" id="Interface-color" fill="#94B1EB"/>
        <path d="M333.362383,467.824881 C333.610196,467.824881 333.811319,468.025286 333.811319,468.27422 L333.811319,481.012088 C333.811319,481.260123 333.610196,481.461427 333.362383,481.461427 L276.090698,481.461427 C275.842885,481.461427 275.641762,481.260123 275.641762,481.012088 L275.641762,468.27422 C275.641762,468.025286 275.842885,467.824881 276.090698,467.824881 L333.362383,467.824881 Z M332.912549,468.723559 L276.539634,468.723559 L276.539634,480.562749 L332.912549,480.562749 L332.912549,468.723559 Z M353.537305,403.988428 C353.785118,403.988428 353.986241,404.188833 353.986241,404.437767 C353.986241,404.685803 353.785118,404.887107 353.537305,404.887107 L256.365071,404.887107 L256.365071,478.550878 C256.365071,478.798913 256.163948,479.000217 255.916135,479.000217 C255.668322,479.000217 255.467199,478.798913 255.467199,478.550878 L255.467199,404.437767 C255.467199,404.188833 255.668322,403.988428 255.916135,403.988428 L353.537305,403.988428 Z M353.536946,455.665313 C353.784759,455.665313 353.985882,455.866617 353.985882,456.114652 C353.985882,456.362687 353.784759,456.563991 353.536946,456.563991 L275.150895,456.563991 C274.903082,456.563991 274.701959,456.362687 274.701959,456.114652 C274.701959,455.866617 274.903082,455.665313 275.150895,455.665313 L353.536946,455.665313 Z M346.305751,444.519184 C346.553564,444.519184 346.754688,444.720488 346.754688,444.968523 C346.754688,445.216559 346.553564,445.417863 346.305751,445.417863 L289.613194,445.417863 C289.365381,445.417863 289.164258,445.216559 289.164258,444.968523 C289.164258,444.720488 289.365381,444.519184 289.613194,444.519184 L346.305751,444.519184 Z M271.680618,420.200407 C277.669427,420.200407 282.54218,425.077535 282.54218,431.072619 C282.54218,437.066804 277.669427,441.943931 271.680618,441.943931 C265.690912,441.943931 260.818159,437.066804 260.818159,431.072619 C260.818159,425.077535 265.690912,420.200407 271.680618,420.200407 Z M271.680618,421.099085 C266.186537,421.099085 261.716031,425.573605 261.716031,431.072619 C261.716031,436.571632 266.186537,441.045253 271.680618,441.045253 C277.174699,441.045253 281.644308,436.571632 281.644308,431.072619 C281.644308,425.573605 277.174699,421.099085 271.680618,421.099085 Z M346.305751,432.359796 C346.553564,432.359796 346.754688,432.5611 346.754688,432.809135 C346.754688,433.05717 346.553564,433.258474 346.305751,433.258474 L289.613194,433.258474 C289.365381,433.258474 289.164258,433.05717 289.164258,432.809135 C289.164258,432.5611 289.365381,432.359796 289.613194,432.359796 L346.305751,432.359796 Z M346.305751,420.200407 C346.553564,420.200407 346.754688,420.401711 346.754688,420.649746 C346.754688,420.897781 346.553564,421.099085 346.305751,421.099085 L289.613194,421.099085 C289.365381,421.099085 289.164258,420.897781 289.164258,420.649746 C289.164258,420.401711 289.365381,420.200407 289.613194,420.200407 L346.305751,420.200407 Z" id="Combined-Shape" fill="#000"/>
        <path d="M219.90454,352.745515 C220.153251,352.745515 220.353477,352.946819 220.353477,353.194855 L220.353477,432.808775 C220.353477,433.057709 220.153251,433.258115 219.90454,433.258115 L156.84966,433.258115 C156.600949,433.258115 156.400723,433.057709 156.400723,432.808775 L156.400723,353.194855 C156.400723,352.946819 156.600949,352.745515 156.84966,352.745515 L219.90454,352.745515 Z M219.456502,353.644194 L157.298596,353.644194 L157.298596,432.359436 L219.456502,432.359436 L219.456502,353.644194 Z M294.530751,377.932685 C294.778564,377.932685 294.979687,378.133989 294.979687,378.382025 C294.979687,378.63006 294.778564,378.831364 294.530751,378.831364 L228.582926,378.831364 C228.334215,378.831364 228.133989,378.63006 228.133989,378.382025 C228.133989,378.133989 228.334215,377.932685 228.582926,377.932685 L294.530751,377.932685 Z M294.530751,369.537052 C294.778564,369.537052 294.979687,369.738356 294.979687,369.986391 C294.979687,370.234426 294.778564,370.43573 294.530751,370.43573 L228.582926,370.43573 C228.334215,370.43573 228.133989,370.234426 228.133989,369.986391 C228.133989,369.738356 228.334215,369.537052 228.582926,369.537052 L294.530751,369.537052 Z M294.530751,361.141329 C294.778564,361.141329 294.979687,361.342633 294.979687,361.590668 C294.979687,361.838703 294.778564,362.040007 294.530751,362.040007 L228.582926,362.040007 C228.334215,362.040007 228.133989,361.838703 228.133989,361.590668 C228.133989,361.342633 228.334215,361.141329 228.582926,361.141329 L294.530751,361.141329 Z M294.530751,352.745605 C294.778564,352.745605 294.979687,352.946909 294.979687,353.194944 C294.979687,353.44298 294.778564,353.644284 294.530751,353.644284 L228.582926,353.644284 C228.334215,353.644284 228.133989,353.44298 228.133989,353.194944 C228.133989,352.946909 228.334215,352.745605 228.582926,352.745605 L294.530751,352.745605 Z M303.641911,331.032906 C303.889723,331.032906 304.090847,331.233311 304.090847,331.482245 L304.090847,340.601135 C304.090847,340.84917 303.889723,341.050474 303.641911,341.050474 L147.448936,341.050474 C147.201123,341.050474 147,340.84917 147,340.601135 C147,340.3531 147.201123,340.151796 147.448936,340.151796 L303.192974,340.151796 L303.192974,331.482245 C303.192974,331.233311 303.394098,331.032906 303.641911,331.032906 Z M167.832524,333.34853 C169.275405,333.34853 170.45072,334.524002 170.45072,335.969077 C170.45072,337.414152 169.275405,338.590522 167.832524,338.590522 C166.389643,338.590522 165.214328,337.414152 165.214328,335.969077 C165.214328,334.524002 166.389643,333.34853 167.832524,333.34853 Z M177.088331,333.34853 C178.531211,333.34853 179.706526,334.524002 179.706526,335.969077 C179.706526,337.414152 178.531211,338.590522 177.088331,338.590522 C175.64545,338.590522 174.470135,337.414152 174.470135,335.969077 C174.470135,334.524002 175.64545,333.34853 177.088331,333.34853 Z M186.344137,333.34853 C187.787018,333.34853 188.962333,334.524002 188.962333,335.969077 C188.962333,337.414152 187.787018,338.590522 186.344137,338.590522 C184.901257,338.590522 183.725942,337.414152 183.725942,335.969077 C183.725942,334.524002 184.901257,333.34853 186.344137,333.34853 Z M167.832524,334.247209 C166.883473,334.247209 166.1122,335.019174 166.1122,335.969077 C166.1122,336.91898 166.883473,337.691843 167.832524,337.691843 C168.781575,337.691843 169.552847,336.91898 169.552847,335.969077 C169.552847,335.019174 168.781575,334.247209 167.832524,334.247209 Z M177.088331,334.247209 C176.13928,334.247209 175.368007,335.019174 175.368007,335.969077 C175.368007,336.91898 176.13928,337.691843 177.088331,337.691843 C178.037382,337.691843 178.808654,336.91898 178.808654,335.969077 C178.808654,335.019174 178.037382,334.247209 177.088331,334.247209 Z M186.344137,334.247209 C185.395086,334.247209 184.623814,335.019174 184.623814,335.969077 C184.623814,336.91898 185.395086,337.691843 186.344137,337.691843 C187.293189,337.691843 188.064461,336.91898 188.064461,335.969077 C188.064461,335.019174 187.293189,334.247209 186.344137,334.247209 Z" id="Combined-Shape" fill="#000"/>
        <path d="M323.367268,370.59938 L337.255557,374.714428 C338.157021,374.981336 338.446136,376.117265 337.780813,376.783186 L334.051949,380.513699 L340.054764,386.521085 C340.756003,387.222953 340.756003,388.36068 340.054764,389.062548 C339.703696,389.413931 339.244883,389.589174 338.785173,389.589174 C338.325462,389.589174 337.866649,389.413931 337.515581,389.062548 L331.512949,383.054699 L328.002983,386.568895 C327.338557,387.234816 326.203647,386.94634 325.936979,386.044067 L321.825621,372.142411 C321.546383,371.198798 322.423604,370.319891 323.367268,370.59938 Z" id="Combined-Shape" fill="#000"/>
    </g>
</svg>
