<svg viewBox="166.644 375.5 216.543 384.887" xmlns="http://www.w3.org/2000/svg" xmlns:xlink="http://www.w3.org/1999/xlink" overflow="visible">
    <defs>
        <polygon id="mastercharactersitting-on-chair-path-1" points="0 0.0003 46.889 0.0003 46.889 52.9562 0 52.9562"/>
    </defs>
    <g id="Master/Character/Sitting on Chair" stroke="none" stroke-width="1" fill="none" fill-rule="evenodd">
        <g id="Lower Body/Sitting on Chair" transform="translate(71.000000, 393.000000) scale(1 1)">
            <g id="Lower Body/Sitting on Chair/Long Pants Blue" stroke="none" stroke-width="1" fill="none" fill-rule="evenodd">
                <g id="Group" transform="translate(136.000237, 172.000500)">
                    <path d="M171.995463,183.4617 C165.998463,179.7867 138.348463,169.5077 137.720463,161.1367 C136.744463,148.1447 136.777463,127.3727 136.950463,112.4327 C128.895463,113.2817 119.621463,114.1667 109.759463,114.9307 L120.922463,161.3367 C121.462463,165.5237 122.189463,165.9247 117.637463,175.4227 C116.646463,177.4877 116.446463,179.1507 116.715463,180.4927 C106.534463,175.7087 88.8334635,167.8157 88.3324635,161.1367 C87.3564635,148.1447 87.3904635,127.3727 87.5624635,112.4327 C79.5074635,113.2817 70.2344635,114.1667 60.3714635,114.9307 L71.5344635,161.3367 C72.0744635,165.5237 72.8014635,165.9247 68.2494635,175.4227 C63.9354635,184.4197 74.4884635,185.8437 74.4884635,185.8437 L121.891463,185.962706 C122.237463,185.9637 122.549463,185.8297 122.788463,185.6167 C123.441463,185.7837 123.875463,185.8437 123.875463,185.8437 L171.278463,185.962706 C172.026463,185.9647 172.632463,185.3587 172.632463,184.6117 C172.632463,184.1417 172.396463,183.7067 171.995463,183.4617" id="Skin" fill="#c3986a"/>
                    <path d="M171.995463,183.4617 C170.256463,182.3967 153.927463,173.7117 149.204463,172.0627 C145.635463,179.7677 122.364463,176.1377 120.171463,169.7407 C120.142463,169.8117 117.416463,175.3697 117.388463,175.4407 C116.625463,177.3807 116.470463,178.9597 116.692463,180.2497 C111.001463,177.2507 102.913463,173.1447 99.8174635,172.0627 C96.2474635,179.7677 72.9764635,176.1377 70.7834635,169.7407 C70.7554635,169.8117 68.0284635,175.3697 68.0004635,175.4407 C64.3504635,184.7277 74.4884635,185.8437 74.4884635,185.8437 L121.891463,185.962706 C122.227463,185.9637 122.532463,185.8367 122.769463,185.6337 C123.432463,185.7937 123.875463,185.8437 123.875463,185.8437 L171.279463,185.962706 C172.026463,185.9647 172.632463,185.3587 172.632463,184.6117 C172.632463,184.1417 172.396463,183.7067 171.995463,183.4617" id="Shoes" fill="#83BB9E"/>
                    <path d="M125.389783,162.106314 L141.36312,160.57927 C143.10512,160.31527 144.29312,158.67527 143.99912,156.93627 L135.628463,41.5715 C134.075463,30.1775 124.243463,21.6165 112.606463,21.8305 L96.2224635,22.1345 L94.3504635,0.4995 L6.65046348,0.4995 C6.65046348,0.4995 -3.29353652,37.0775 1.13746348,49.8745 C5.12746348,61.4015 13.5404635,69.4065 51.7264635,66.2475 L66.4175326,158.956314 C66.4145326,160.781314 67.9575326,162.227314 69.7795326,162.106314 L91.8164635,160.57927 C93.6434635,160.45727 94.9814635,158.81027 94.7284635,156.99727 L91.8164635,64.0445 L96.9244635,64.2575 L116.316084,160.52827 C116.518084,162.30427 118.153084,163.55727 119.920084,163.28927" id="Pants" fill="#53627B"/>
                    <path d="M94.7304635,53.759 L100.071214,82.8 C100.104214,83.052 100.814214,85.7823348 101.062214,85.7823348 C101.083214,85.7823348 100.609214,83.235 100.631214,83.232 C100.905214,83.196 101.098214,82.945 101.062214,82.671 L95.7224635,53.63 C95.6864635,53.356 95.4324635,53.157 95.1614635,53.198 C94.8874635,53.234 94.6944635,53.485 94.7304635,53.759 Z M122.869463,183.035 C121.104463,181.955 104.807463,173.275 99.9824635,171.591 C99.9594635,171.583 99.9364635,171.586 99.9134635,171.581 C99.8784635,171.574 99.8444635,171.565 99.8094635,171.566 C99.7764635,171.566 99.7464635,171.575 99.7144635,171.582 C99.6834635,171.588 99.6544635,171.593 99.6244635,171.605 C99.5944635,171.618 99.5684635,171.637 99.5404635,171.656 C99.5154635,171.674 99.4894635,171.689 99.4674635,171.712 C99.4434635,171.735 99.4264635,171.764 99.4074635,171.793 C99.3934635,171.814 99.3744635,171.829 99.3634635,171.852 C98.0444635,174.701 93.4214635,176.198 86.9984635,175.872 C79.3724635,175.477 72.3104635,172.654 71.2564635,169.579 C71.1894635,169.386 71.0124635,169.255 70.8074635,169.244 C70.5944635,169.248 70.4134635,169.35 70.3274635,169.537 C70.2824635,169.634 69.6384635,170.95 68.9814635,172.291 C67.6224635,175.07 67.5524635,175.216 67.5354635,175.257 C67.4354635,175.509 67.5564635,175.792 67.8054635,175.898 C68.0544635,176.006 68.3434635,175.891 68.4574635,175.644 C68.5044635,175.542 69.1984635,174.124 69.8804635,172.731 C70.3014635,171.87 70.5924635,171.276 70.7924635,170.866 C73.0214635,174.236 80.4204635,176.533 86.9464635,176.871 C87.5384635,176.901 88.1164635,176.917 88.6804635,176.917 C94.3454635,176.917 98.4874635,175.38 100.051463,172.68 C105.088463,174.592 120.524463,182.772 122.347463,183.888 C122.596463,184.041 122.744463,184.311 122.744463,184.612 C122.744463,184.888 122.968463,185.112 123.244463,185.112 C123.521463,185.112 123.744463,184.888 123.744463,184.612 C123.744463,183.96 123.417463,183.371 122.869463,183.035 L122.869463,183.035 Z M90.8114635,64.078 C90.8114635,64.08 90.8124635,64.082 90.8124635,64.083 L93.2942131,104.490448 C93.3162131,104.751448 93.5782131,105.835665 93.8352131,105.835665 C93.8492131,105.835665 94.2772131,105.835665 94.2912131,105.835665 C94.5662131,105.81222 94.3142131,104.680448 94.2912131,104.404448 L91.8064635,63.981 C91.8064635,63.979 91.8054635,63.978 91.8054635,63.976 C91.8044635,63.974 91.8054635,63.972 91.8054635,63.969 L88.9314635,37.684 C87.8654635,27.943 79.6754635,20.405 69.8814635,20.148 L37.2644635,19.295 C37.0354635,19.302 36.7584635,19.506 36.7501132,19.781 C36.7444635,20.057 36.9614635,20.287 37.2374635,20.295 L69.8544635,21.148 C79.1514635,21.391 86.9254635,28.547 87.9364635,37.793 L90.8114635,64.078 Z M95.6644635,21.479 L85.7364635,21.637 C85.4594635,21.641 85.2394635,21.869 85.2444635,22.145 C85.2484635,22.419 85.4714635,22.637 85.7444635,22.637 L85.7514635,22.637 L95.8724635,22.476 C95.9704635,22.577 96.1014635,22.642 96.2324635,22.635 L112.615463,22.332 C112.756463,22.329 112.894463,22.328 113.034463,22.328 C124.656463,22.328 134.396463,31.304 135.298463,42.938 C135.319463,43.2 135.537463,43.399 135.796463,43.399 C135.809463,43.399 135.822463,43.399 135.835463,43.398 C136.111463,43.377 136.317463,43.136 136.295463,42.861 C135.341463,30.559 124.926463,21.098 112.597463,21.332 L101.302463,21.541 C101.204463,21.447 101.077463,21.39 100.957463,21.395 L96.6664635,21.464 L94.8494635,0.457 C94.8264635,0.198 94.6104635,4.26325641e-14 94.3504635,4.26325641e-14 L6.64946348,4.26325641e-14 C6.37346348,4.26325641e-14 6.14946348,0.223 6.14946348,0.5 C6.14946348,0.776 6.37346348,1 6.64946348,1 L93.8924635,1 L95.6644635,21.479 Z M149.415463,171.608 C149.166463,171.492 148.867463,171.601 148.751463,171.852 C147.431463,174.701 142.808463,176.198 136.386463,175.872 C128.760463,175.477 121.698463,172.654 120.643463,169.579 C120.577463,169.386 120.399463,169.255 120.195463,169.244 C119.981463,169.248 119.801463,169.35 119.715463,169.537 C119.670463,169.634 119.025463,170.95 118.369463,172.291 C117.010463,175.07 116.939463,175.216 116.923463,175.257 C116.823463,175.509 116.943463,175.792 117.192463,175.898 C117.441463,176.006 117.730463,175.891 117.845463,175.644 C117.891463,175.542 118.586463,174.124 119.267463,172.731 C119.688463,171.87 119.979463,171.276 120.180463,170.866 C122.409463,174.236 129.807463,176.533 136.334463,176.871 C136.926463,176.901 137.504463,176.917 138.067463,176.917 C144.015463,176.917 148.290463,175.226 149.659463,172.272 C149.774463,172.022 149.666463,171.724 149.415463,171.608 L149.415463,171.608 Z M128.452463,164.623 C128.515463,164.353 128.348463,164.085 128.079463,164.021 C127.803463,163.961 127.541463,164.126 127.477463,164.394 L127.097463,166.023 C126.627463,168.039 127.219463,170.114 128.681463,171.576 C128.779463,171.674 128.907463,171.722 129.035463,171.722 C129.163463,171.722 129.291463,171.674 129.389463,171.576 C129.584463,171.381 129.584463,171.064 129.389463,170.869 C128.172463,169.653 127.680463,167.927 128.071463,166.251 L128.452463,164.623 Z M79.0644635,164.623 C79.1274635,164.353 78.9604635,164.085 78.6914635,164.021 C78.4154635,163.961 78.1534635,164.126 78.0904635,164.394 L77.7094635,166.023 C77.2394635,168.039 77.8314635,170.114 79.2944635,171.576 C79.3914635,171.674 79.5194635,171.722 79.6474635,171.722 C79.7754635,171.722 79.9034635,171.674 80.0014635,171.576 C80.1964635,171.381 80.1964635,171.064 80.0014635,170.869 C78.7844635,169.653 78.2924635,167.927 78.6834635,166.251 L79.0644635,164.623 Z" id="Fill-9" fill="#000"/>
                </g>
            </g>
        </g>
        <g id="Upper Body" transform="translate(8.000000, 265.000000) scale(1 1)">
            <g id="Upper Body/Yoga Hands" stroke="none" stroke-width="1" fill="none" fill-rule="evenodd">
                <path d="M258.9929,181.2968 L250.0569,208.1048 C249.8239,208.8048 248.8339,208.8048 248.5999,208.1048 C243.457211,190.2328 240.885867,181.2968 240.885867,181.2968 C240.885867,181.2968 228.780448,180.467168 219.086985,184.806501 C219.086985,184.806501 217.162956,198.397326 215.160587,216.345456 C211.948439,245.137385 203.500174,280.799086 203.500174,301.269521 C203.500174,302.529629 204.112174,304.614521 205.343174,304.614521 L293.208174,304.614521 C294.439174,304.614521 294.985016,303.526488 295.051174,302.269521 C295.954343,285.109943 286.853552,246.206445 283.6315,216.8463 C281.683564,199.09622 279.532354,184.65255 279.532354,184.65255 C269.817997,181.2968 258.9929,181.2968 258.9929,181.2968 Z" id="Top" fill="#94B1EB"/>
                <path d="M331.5045,259.0373 C322.2165,199.9843 279.6125,185.0163 279.6125,185.0163 L283.6315,216.8463 C289.5825,229.9903 306.3515,254.6003 306.3515,254.6003 C297.9755,251.3783 265.8575,246.7203 261.0255,246.3973 C256.1925,246.0753 256.1925,243.1773 256.1925,243.1773 C255.9755,228.5613 253.9375,222.5673 251.4145,219.7093 C250.7115,218.9123 249.4015,219.4343 249.4435,220.4963 C249.6665,226.1833 249.4185,239.7243 249.3315,247.5133 C249.2305,256.5013 254.6485,258.5113 254.6485,258.5113 C283.8045,279.3673 307.7155,276.8163 321.5695,273.5883 C328.1675,272.0503 332.5565,265.7293 331.5045,259.0373 L331.5045,259.0373 Z M249.3285,247.5133 C249.2405,239.7243 248.9925,226.1833 249.2155,220.4963 C249.2575,219.4343 247.9475,218.9123 247.2455,219.7093 C244.7235,222.5673 242.6855,228.5613 242.4665,243.1773 C242.4665,243.1773 242.4665,246.0753 237.6345,246.3973 C232.8025,246.7203 200.6845,251.3783 192.3085,254.6003 C192.3085,254.6003 209.0765,229.9903 215.0275,216.8463 L219.0465,185.0163 C219.0465,185.0163 176.4435,199.9843 167.1555,259.0373 C166.1035,265.7293 170.4915,272.0503 177.0905,273.5883 C190.9445,276.8163 214.8555,279.3673 244.0125,258.5113 C244.0125,258.5113 249.4295,256.5013 249.3285,247.5133 L249.3285,247.5133 Z M258.822754,181.712402 L257.338704,181.712402 L257.338704,173.0003 L243.808704,173.0003 L243.808704,182.0193 L241.07881,182.0193 L248.4495,208.1523 C248.7305,208.9923 249.9185,208.9893 250.1935,208.1483 L258.822754,181.712402 Z" id="Skin" fill="#c3986a"/>
                <path d="M205.402353,304.0383 L271.405625,304.556833 C271.681673,304.55924 271.900916,304.668532 271.896017,304.801415 C271.891947,304.934298 271.683666,305.039256 271.390677,305.0383 L271.390677,305.0383 L205.386408,304.51976 C205.111357,304.517835 204.891117,304.408062 204.896017,304.275179 C204.901083,304.14374 205.123316,304.0383 205.394381,304.0383 L205.394381,304.0383 L205.402353,304.0383 Z M251.79,219.3785 C251.972,219.5855 251.953,219.9015 251.746,220.0835 C251.538,220.2665 251.222,220.2465 251.04,220.0395 C250.768,219.7305 250.431,219.8315 250.335,219.8705 C250.239,219.9085 249.927,220.0665 249.944,220.4765 C249.949776,220.624221 249.955237,220.777105 249.960395,220.934925 C251.429158,221.494894 255.987738,224.431037 256.5992,239.4294 C256.6102,239.7054 256.3952,239.9384 256.1202,239.9504 L256.0992,239.9504 L256.0992,239.9504 C255.8312,239.9504 255.6112,239.7404 255.5992,239.4714 C255.062166,226.289377 251.459993,222.90082 249.990828,222.063426 C250.00373,222.675538 250.01368,223.342038 250.020766,224.051675 C253.511075,225.227283 254.036193,237.659617 254.106,240.1776 C254.114,240.4536 253.896,240.6836 253.62,240.6916 L253.606,240.6916 C253.336,240.6916 253.114,240.4766 253.106,240.2056 C252.958699,234.925283 251.995395,226.579893 250.028614,225.165904 C250.057991,230.176801 249.969074,236.897305 249.893,242.5985 C249.87,244.3825 249.848,246.0525 249.832,247.5175 C249.736,256.0115 254.616,257.9635 254.824,258.0425 C255.081,258.1405 255.211,258.4275 255.115,258.6855 C255.04,258.8865 254.85,259.0105 254.648,259.0105 C254.59,259.0105 254.532,259.0005 254.474,258.9795 C254.285593,258.909451 250.674906,257.501349 249.329849,252.134903 C247.984746,257.501349 244.374707,258.909451 244.1863,258.9795 C244.1283,259.0005 244.0703,259.0105 244.0123,259.0105 C243.8093,259.0105 243.6183,258.8855 243.5433,258.6845 C243.4483,258.4265 243.5783,258.1385 243.8363,258.0425 C244.0443,257.9635 248.9233,256.0115 248.8283,247.5175 L248.7673,242.6735 C248.691146,236.946593 248.601052,230.195035 248.630115,225.166778 C246.664785,226.579893 245.700601,234.925283 245.5533,240.2056 C245.5453,240.4766 245.3233,240.6916 245.0533,240.6916 L245.0393,240.6916 C244.7633,240.6836 244.5453,240.4536 244.5533,240.1776 C244.624091,237.659617 245.149225,225.227283 248.638841,224.05283 C248.646023,223.342013 248.656071,222.675374 248.669448,222.061028 C247.199922,222.900665 243.59826,226.289288 243.0601,239.4714 C243.0481,239.7404 242.8271,239.9504 242.5601,239.9504 L242.5391,239.9504 L242.5391,239.9504 C242.2641,239.9384 242.0491,239.7054 242.0601,239.4294 C242.672418,224.431037 247.231121,221.494894 248.701168,220.936531 C248.704971,220.777178 248.710477,220.624264 248.7163,220.4765 C248.7333,220.0655 248.4203,219.9085 248.3243,219.8695 C248.2293,219.8315 247.8943,219.7285 247.6203,220.0395 C247.4383,220.2465 247.1213,220.2675 246.9153,220.0835 C246.7073,219.9015 246.6883,219.5855 246.8703,219.3785 C247.3313,218.8545 248.0483,218.6835 248.6963,218.9415 C248.949439,219.042599 249.164804,219.199129 249.331565,219.394064 C249.494383,219.199596 249.709292,219.043427 249.962,218.9425 C250.613,218.6815 251.327,218.8545 251.79,219.3785 Z M215.2342,216.3898 C215.4862,216.5038 215.5972,216.7998 215.4832,217.0518 C214.7132,218.7538 213.7172,220.7418 212.5252,222.9618 C206.436599,234.294919 196.498757,249.264555 193.562396,253.635563 C197.783707,252.477976 201.381093,251.789713 201.6675,251.7355 C201.9335,251.6855 202.1995,251.8615 202.2515,252.1335 C202.3035,252.4045 202.1245,252.6665 201.8535,252.7175 C201.777193,252.732196 197.44621,253.561278 192.679999,254.931694 L192.7212,254.8818 C192.6242,255.0238 192.4672,255.0998 192.3082,255.0998 C192.262675,255.0998 192.217366,255.093758 192.173275,255.081372 C188.656657,256.112447 184.978228,257.432264 182.6475,258.9305 C182.5635,258.9845 182.4695,259.0105 182.3765,259.0105 C182.2125,259.0105 182.0515,258.9295 181.9555,258.7815 C181.8065,258.5485 181.8735,258.2395 182.1055,258.0905 C184.588008,256.494295 188.43997,255.117122 192.072801,254.056626 C193.619934,251.771018 204.963625,234.923365 211.6442,222.4888 C212.8262,220.2888 213.8112,218.3208 214.5732,216.6398 C214.6862,216.3878 214.9862,216.2768 215.2342,216.3898 Z M284.0862,216.6398 C284.8482,218.3208 285.8332,220.2888 287.0152,222.4888 C293.697645,234.9243 305.039709,251.771139 306.588119,254.058273 C310.219656,255.117122 314.071863,256.494295 316.5548,258.0905 C316.7868,258.2395 316.8538,258.5485 316.7048,258.7815 C316.6088,258.9295 316.4478,259.0105 316.2838,259.0105 C316.1908,259.0105 316.0968,258.9855 316.0128,258.9305 C313.681503,257.432165 310.0025,256.112273 306.485431,255.078754 C306.442034,255.093758 306.396725,255.0998 306.3512,255.0998 C306.212849,255.0998 306.076013,255.042258 305.978901,254.933763 C301.213695,253.561393 296.882112,252.732197 296.8058,252.7175 C296.5348,252.6665 296.3558,252.4045 296.4078,252.1335 C296.4588,251.8615 296.7218,251.6855 296.9918,251.7355 C297.278207,251.789713 300.875593,252.477976 305.09621,253.635073 C302.1609,249.264555 292.22365,234.294919 286.1342,222.9618 C284.9422,220.7418 283.9462,218.7538 283.1762,217.0518 C283.0622,216.7998 283.1732,216.5038 283.4252,216.3898 C283.6732,216.2768 283.9732,216.3868 284.0862,216.6398 Z" id="Combined-Shape" fill="#000"/>
            </g>
        </g>
        <g id="Hair" transform="translate(104.000000, 285.000000) scale(1 1)">
            <defs>
                <polygon id="hairshort-bieber-path-1" points="0 0.0003 46.889 0.0003 46.889 52.9562 0 52.9562"/>
            </defs>
            <g id="Hair/Short Bieber" stroke="none" stroke-width="1" fill="none" fill-rule="evenodd">
                <g id="Head" transform="translate(132.000000, 111.000000)">
                    <path d="M44.1789,24.3663 C44.5879,35.6913 33.3599,45.0883 22.4569,45.0883 C11.5539,45.0883 0.4939,36.9643 0.0189,25.3903 C-0.4461,14.0673 7.7449,1.3583 15.9329,0.2613 C32.6079,-1.9747 43.6789,10.5083 44.1789,24.3663" id="Fill-1" fill="#000"/>
                    <path d="M22.4567,44.088 C12.4757,44.088 1.4787,36.559 1.0177,25.35 C0.5797,14.678 8.3147,2.291 16.0657,1.252 C17.3127,1.085 18.5577,1 19.7657,1 C34.4247,1 42.7697,13.058 43.1797,24.402 C43.3447,28.984 41.4627,33.553 37.8807,37.268 C33.7607,41.538 27.9947,44.088 22.4567,44.088" id="Fill-4" fill="#c3986a"/>
                </g>
                <path d="M160.9833,116.9661 C160.9833,116.9661 165.2843,134.0361 181.2833,134.3811 C181.2833,134.3811 185.4953,107.6511 160.8943,104.0371 C160.8943,104.0371 160.7223,99.3931 164.1633,97.5001 C164.1633,97.5001 158.3143,97.1561 156.0773,103.3501 C156.0773,103.3501 149.7763,98.3611 146.3363,100.0801 C146.3363,100.0801 152.2923,103.5221 149.5403,105.2411 C149.5403,105.2411 132.0053,108.3641 128.7373,120.5781 C125.4683,132.7931 134.0523,143.7441 135.3943,149.4571 C135.3943,149.4571 135.7243,147.9551 135.3943,144.0981 C135.3943,144.0981 135.7443,144.5331 136.9843,146.9721 C136.9843,146.9721 145.4373,136.8181 142.0443,130.2571 C142.0443,130.2571 149.6293,128.8361 149.9733,122.6431 C149.9733,122.6431 150.8333,126.4281 158.4023,128.1491 C158.4023,128.1491 155.9083,125.2241 156.2093,123.5031 C156.2093,123.5031 158.5213,126.6801 164.9403,128.1491 C164.9403,128.1491 160.3643,121.1791 160.9833,116.9661" id="Hair" fill="#e7b460"/>
                <g id="Group-3" transform="translate(135.000000, 97.000000)">
                    <mask id="hairshort-bieber-mask-2" fill="#fff">
                        <use xlink:href="#hairshort-bieber-path-1"/>
                    </mask>
                    <g id="Clip-2"/>
                    <path d="M41.2484,37.1232 C42.8154,37.5602 44.5134,37.8412 46.3784,37.8812 C46.5834,37.8552 46.8074,37.7362 46.8704,37.5192 C46.9324,37.3002 46.8394,37.0662 46.6444,36.9512 C46.5504,36.8942 37.2404,31.2732 37.6204,22.8952 C37.6334,22.6202 37.4194,22.3862 37.1434,22.3742 C36.8954,22.3502 36.6344,22.5742 36.6214,22.8512 C36.3094,29.7272 41.8124,34.7012 44.5924,36.7652 C30.6324,35.2452 26.6144,20.0042 26.5744,19.8442 C26.5154,19.6122 26.2994,19.4372 26.0634,19.4672 C25.8254,19.4782 25.6294,19.6572 25.5944,19.8942 C25.0964,23.2802 27.7024,28.2042 28.9714,30.3572 C28.1354,30.1192 27.3904,29.8512 26.7144,29.5702 C25.2244,28.9282 23.4714,27.9382 21.9294,26.4532 C21.7924,26.3032 21.7224,26.2122 21.7184,26.2072 C21.6844,26.1612 21.6324,26.1392 21.5854,26.1072 C20.0994,24.5682 18.8534,22.5392 18.3124,19.8662 C18.2574,19.5962 17.9954,19.4212 17.7234,19.4762 C17.4524,19.5302 17.2774,19.7952 17.3314,20.0652 C17.9094,22.9152 19.2274,25.0832 20.8024,26.7302 C20.7684,27.8942 21.5614,29.3142 22.2394,30.3032 C16.3854,28.5822 15.5734,25.5602 15.5664,25.5322 C15.5614,25.5122 15.5494,25.4952 15.5424,25.4762 C15.5314,25.4442 15.5194,25.4152 15.5034,25.3872 C15.4934,25.3702 15.4814,25.3562 15.4704,25.3422 C15.3724,25.2112 15.2224,25.1232 15.0484,25.1442 C15.0464,25.1442 15.0444,25.1452 15.0424,25.1452 C15.0404,25.1452 15.0394,25.1442 15.0374,25.1442 C14.9734,25.1492 14.9144,25.1672 14.8594,25.1932 C14.8484,25.1992 14.8394,25.2102 14.8284,25.2172 C14.7864,25.2412 14.7464,25.2692 14.7134,25.3052 C14.6984,25.3212 14.6894,25.3412 14.6774,25.3582 C14.6544,25.3912 14.6324,25.4232 14.6174,25.4602 C14.6074,25.4832 14.6054,25.5102 14.5994,25.5352 C14.5934,25.5612 14.5814,25.5872 14.5804,25.6152 C14.4014,28.8262 12.0784,30.6802 10.0604,31.6912 C9.1804,32.1042 8.2694,32.4302 7.4134,32.6832 C7.1984,32.7372 7.0664,32.7642 7.0574,32.7662 C7.0164,32.7732 6.9834,32.7982 6.9464,32.8152 C5.0864,33.3222 3.6074,33.4852 3.5664,33.4892 C3.2914,33.5172 3.0914,33.7632 3.1194,34.0372 C3.1454,34.2952 3.3634,34.4862 3.6164,34.4862 C3.6334,34.4862 3.6504,34.4852 3.6674,34.4832 C3.8294,34.4672 5.1574,34.3222 6.8704,33.8882 C9.1564,39.1862 3.8374,46.8572 2.1774,49.0492 C1.2314,47.2312 0.9244,46.8282 0.8904,46.7842 C0.7524,46.6132 0.5194,46.5522 0.3134,46.6342 C0.1094,46.7152 -0.0176,46.9212 0.0014,47.1412 C0.3184,50.8422 0.0144,52.3372 0.0114,52.3522 C-0.0456,52.6212 0.1254,52.8872 0.3944,52.9452 C0.4304,52.9522 0.4654,52.9562 0.5004,52.9562 C0.7304,52.9562 0.9364,52.7982 0.9884,52.5642 C0.9994,52.5142 1.2064,51.5312 1.1294,49.2022 C1.2804,49.4882 1.4514,49.8182 1.6444,50.1982 C1.7214,50.3492 1.8674,50.4502 2.0344,50.4692 C2.2044,50.4872 2.3674,50.4212 2.4744,50.2922 C2.5254,50.2312 2.7394,49.9702 3.0554,49.5552 L3.6864,48.6942 C5.8644,45.6322 9.9954,38.8102 7.8644,33.6122 C10.9354,32.6912 14.6784,30.8612 15.4434,27.3552 C16.4714,28.7002 18.6874,30.5652 23.3974,31.6362 C23.6104,31.6872 23.8254,31.5932 23.9364,31.4072 C24.0484,31.2232 24.0284,30.9882 23.8894,30.8242 C23.2964,30.1302 22.5084,28.9962 22.0854,27.9922 C23.0234,28.7892 24.5814,29.8452 26.9044,30.7232 C26.9154,30.7272 26.9264,30.7312 26.9374,30.7362 C27.0404,30.7742 27.1374,30.8142 27.2434,30.8522 C28.8094,31.4382 29.9304,31.6362 29.9644,31.6422 C29.9924,31.6462 30.0194,31.6482 30.0464,31.6482 C30.1074,31.6482 30.1664,31.6372 30.2224,31.6162 C30.2284,31.6132 30.2324,31.6082 30.2394,31.6062 C30.3174,31.5722 30.3834,31.5182 30.4354,31.4502 C30.4414,31.4432 30.4514,31.4412 30.4564,31.4342 C30.4594,31.4302 30.4584,31.4242 30.4604,31.4202 C30.4984,31.3632 30.5274,31.3012 30.5394,31.2292 C30.5414,31.2132 30.5364,31.1982 30.5374,31.1822 C30.5394,31.1602 30.5364,31.1412 30.5354,31.1192 C30.5304,31.0392 30.5104,30.9652 30.4714,30.8982 C30.4664,30.8912 30.4684,30.8822 30.4634,30.8742 C30.4334,30.8272 28.3304,27.5962 27.2124,24.2892 C29.1644,28.4052 33.1224,34.3882 40.2114,36.8042 L41.2484,37.1232 Z M14.8724,7.1132 C14.8744,7.2822 14.8274,7.5382 14.3804,7.8172 C14.1464,7.9642 14.0754,8.2712 14.2224,8.5062 C14.3684,8.7412 14.6764,8.8122 14.9114,8.6652 C15.7194,8.1602 15.8794,7.5332 15.8724,7.0962 C15.8474,5.6442 13.8734,4.0822 12.6344,3.2432 C15.8804,2.8312 20.8174,6.6982 20.8734,6.7412 C20.9994,6.8422 21.1674,6.8782 21.3194,6.8302 C21.4744,6.7862 21.5984,6.6712 21.6534,6.5192 C23.0284,2.7112 25.8104,1.5202 27.5984,1.1542 C25.3974,3.4332 25.4944,6.8852 25.5004,7.0562 C25.5094,7.2972 25.6894,7.4972 25.9274,7.5322 C31.4314,8.3402 35.9014,10.4082 39.2134,13.6792 C39.3114,13.7752 39.4374,13.8232 39.5644,13.8232 C39.6934,13.8232 39.8224,13.7732 39.9204,13.6752 C40.1144,13.4782 40.1124,13.1612 39.9154,12.9682 C36.5374,9.6312 32.0284,7.4932 26.5084,6.6092 C26.5654,5.4842 26.9564,2.3422 29.5094,0.9382 C29.7054,0.8312 29.8054,0.6072 29.7564,0.3902 C29.7074,0.1732 29.5204,0.0142 29.2984,0.0012 C29.2394,0.0052 23.4554,-0.2728 20.9584,5.5562 C19.3154,4.3642 14.3254,1.0802 11.2174,2.6332 C11.0534,2.7152 10.9474,2.8812 10.9412119,3.0642 C10.9364,3.2492 11.0314,3.4212 11.1914,3.5132 C12.6044,4.3302 14.8534,6.0312 14.8724,7.1132 L14.8724,7.1132 Z" id="Fill-1" fill="#000" mask="url(#hairshort-bieber-mask-2)"/>
                </g>
            </g>
        </g>
        <g id="Expression" transform="translate(201.000000, 388.000000) scale(1 1)">
            <g id="Expression/Worry" stroke="none" stroke-width="1" fill="none" fill-rule="evenodd">
                <path d="M61.2702,44.1908 C59.3322,44.1908 58.1982,44.8298 57.5332,45.6178 L64.7552,45.6178 C64.1852,44.8338 63.1502,44.1908 61.2702,44.1908" id="Tougue" fill="#EC7068"/>
                <path d="M56.6682,45.6181 C56.8752,44.3311 57.7522,42.2291 61.2702,42.2291 C64.7092,42.2291 65.3292,44.3751 65.4302,45.6181 L56.6682,45.6181 Z M61.2702,41.2291 C56.6772,41.2291 55.8242,44.5081 55.6722,45.5141 C55.6302,45.7911 55.7112,46.0721 55.8932,46.2841 C56.0762,46.4961 56.3422,46.6181 56.6242,46.6181 L65.4302,46.6181 C65.6962,46.6181 65.9442,46.5131 66.1262,46.3201 C66.3082,46.1291 66.4042,45.8681 66.3912,45.6041 C66.3402,44.5781 65.8202,41.2291 61.2702,41.2291 L61.2702,41.2291 Z M61.7892,31.3971 C62.9422,32.9371 64.8442,35.9741 64.1492,37.4381 C63.8602,38.0481 63.0662,38.3561 61.7892,38.3561 C60.5122,38.3561 59.7182,38.0481 59.4292,37.4381 C58.7342,35.9741 60.6362,32.9371 61.7892,31.3971 L61.7892,31.3971 Z M61.7892,39.3561 C63.4862,39.3561 64.5852,38.8551 65.0532,37.8671 C66.2432,35.3591 62.5962,30.7811 62.1762,30.2671 C61.9872,30.0351 61.5912,30.0351 61.4022,30.2671 C60.9822,30.7811 57.3352,35.3591 58.5252,37.8671 C58.9942,38.8551 60.0922,39.3561 61.7892,39.3561 L61.7892,39.3561 Z M72.3012,25.7351 C72.2302,25.6641 70.5322,24.0001 67.5782,24.0001 C67.3012,24.0001 67.0782,24.2231 67.0782,24.5001 C67.0782,24.7761 67.3012,25.0001 67.5782,25.0001 C70.1012,25.0001 71.5812,26.4301 71.5952,26.4431 C71.6922,26.5401 71.8202,26.5881 71.9472,26.5881 C72.0762,26.5881 72.2042,26.5391 72.3012,26.4401 C72.4962,26.2451 72.4962,25.9301 72.3012,25.7351 L72.3012,25.7351 Z M68.7702,28.8371 C68.1112,28.8371 67.5782,29.6191 67.5782,30.5841 C67.5782,31.5501 68.1112,32.3321 68.7702,32.3321 C69.4282,32.3321 69.9612,31.5501 69.9612,30.5841 C69.9612,29.6191 69.4282,28.8371 68.7702,28.8371 L68.7702,28.8371 Z M56.5892,24.5001 C56.5892,24.2231 56.3652,24.0001 56.0892,24.0001 C53.1352,24.0001 51.4372,25.6641 51.3662,25.7351 C51.1712,25.9301 51.1712,26.2451 51.3662,26.4401 C51.4632,26.5391 51.5912,26.5881 51.7202,26.5881 C51.8472,26.5881 51.9752,26.5401 52.0722,26.4431 C52.0862,26.4301 53.5662,25.0001 56.0892,25.0001 C56.3652,25.0001 56.5892,24.7761 56.5892,24.5001 L56.5892,24.5001 Z M54.8972,28.8371 C54.2392,28.8371 53.7062,29.6191 53.7062,30.5841 C53.7062,31.5501 54.2392,32.3321 54.8972,32.3321 C55.5562,32.3321 56.0892,31.5501 56.0892,30.5841 C56.0892,29.6191 55.5562,28.8371 54.8972,28.8371 L54.8972,28.8371 Z" id="Fill-4" fill="#000"/>
                <path d="M52.4996066,34 C54.4327301,34 56,34.8954741 56,36 C56,37.1045259 54.4327301,38 52.4996066,38 C50.5664831,38 49,37.1045259 49,36 C49,34.8954741 50.5664831,34 52.4996066,34 Z M70.5,34 C72.4329063,34 74,34.8954741 74,36 C74,37.1045259 72.4329063,38 70.5,38 C68.5670937,38 67,37.1045259 67,36 C67,34.8954741 68.5670937,34 70.5,34 Z" id="Cheeks" fill="#E2A2B5"/>
            </g>
        </g>
        <g id="Facial Hair" transform="translate(201.000000, 387.000000) scale(1 1)" fill="#000">
            <g id="Facial Hair/None" stroke="none" stroke-width="1" fill="none" fill-rule="evenodd" fill-opacity="0"/>
        </g>
        <g id="Accesories" transform="translate(104.500000, 286.000000) scale(1 1)">
            <g id="Accesories/Cat Glases" stroke="none" stroke-width="1" fill="none" fill-rule="evenodd">
                <path d="M170.5664,130.6465 C170.2974,131.4325 169.9954,132.3475 169.8184,132.9115 C169.4214,134.1885 168.6624,135.2655 167.5854,136.0395 C166.5194,136.8085 165.1844,137.2005 163.8574,137.1605 C163.1904,137.1515 162.5374,136.9825 161.9114,136.7595 L161.4494,136.5655 C161.3124,136.5065 161.2084,136.4385 161.1034,136.3495 C160.8964,136.1775 160.7404,135.9465 160.6534,135.6915 C160.5474,135.2335 160.2594,133.7265 160.1384,132.7625 C160.0914,132.3895 160.3334,132.0485 160.7004,131.9665 C162.4964,131.5665 167.7334,130.4085 169.9194,129.9255 C170.3434,129.8315 170.7074,130.2355 170.5664,130.6465 M171.4384,128.5175 C168.0084,129.2285 159.3384,131.0585 158.9934,131.3845 C158.7784,131.5875 158.8384,131.9685 158.8964,132.2455 L159.0074,132.7745 L159.2304,133.8335 C159.3914,134.5635 159.4984,135.1915 159.7034,136.0035 C159.8434,136.4335 160.1014,136.8245 160.4444,137.1195 C160.6124,137.2665 160.8144,137.3965 161.0064,137.4835 L161.5394,137.7145 C162.2624,137.9895 163.0254,138.1785 163.8044,138.2185 C165.3624,138.3285 166.9364,137.9005 168.2744,137.0715 C169.6014,136.2395 170.6804,134.9235 171.2684,133.4855 C171.6254,132.7045 172.0924,130.8245 172.4084,129.5275 C172.5534,128.9345 172.0364,128.3935 171.4384,128.5175 M155.2794,135.6915 C155.1924,135.9465 155.0364,136.1775 154.8304,136.3495 C154.7244,136.4385 154.6214,136.5065 154.4834,136.5655 L154.0214,136.7595 C153.3964,136.9825 152.7424,137.1515 152.0764,137.1605 C150.7484,137.2005 149.4144,136.8085 148.3484,136.0395 C147.2714,135.2655 146.5124,134.1885 146.1144,132.9115 C145.9374,132.3475 145.6364,131.4325 145.3664,130.6465 C145.2264,130.2355 145.5894,129.8315 146.0134,129.9255 C148.1994,130.4085 153.4364,131.5665 155.2334,131.9665 C155.5994,132.0485 155.8414,132.3895 155.7954,132.7625 C155.6734,133.7265 155.3864,135.2335 155.2794,135.6915 M144.4954,128.5175 C143.8974,128.3935 143.3794,128.9345 143.5244,129.5275 C143.8404,130.8245 144.3074,132.7045 144.6654,133.4855 C145.2524,134.9235 146.3324,136.2395 147.6584,137.0715 C148.9964,137.9005 150.5704,138.3285 152.1294,138.2185 C152.9074,138.1785 153.6704,137.9895 154.3944,137.7145 L154.9274,137.4835 C155.1184,137.3965 155.3204,137.2665 155.4884,137.1195 C155.8324,136.8245 156.0894,136.4335 156.2304,136.0035 C156.4344,135.1915 156.5424,134.5635 156.7034,133.8335 L156.9254,132.7745 L157.0364,132.2455 C157.0944,131.9685 157.1544,131.5875 156.9404,131.3845 C156.5944,131.0585 147.9244,129.2285 144.4954,128.5175" id="Fill-1" fill="#EC7068"/>
                <path d="M159.1684,133.5396 L156.7644,133.5396 L156.7034,133.8336 C156.6494,134.0766 156.6014,134.3086 156.5544,134.5396 L159.3784,134.5396 C159.3314,134.3086 159.2834,134.0766 159.2304,133.8336 L159.1684,133.5396 Z M172.5604,128.4046 C172.2424,128.0756 171.7864,127.9356 171.3364,128.0276 C171.0654,128.0836 170.8924,128.3486 170.9484,128.6186 C171.0044,128.8896 171.2664,129.0606 171.5394,129.0066 C171.7004,128.9726 171.8034,129.0596 171.8404,129.0986 C171.8784,129.1386 171.9624,129.2476 171.9224,129.4096 C171.6784,130.4116 171.1704,132.4966 170.8054,133.2966 C170.2474,134.6616 169.2284,135.8826 168.0114,136.6466 C166.7334,137.4376 165.2484,137.8196 163.8394,137.7196 C163.5494,137.6986 163.3254,137.9076 163.3054,138.1836 C163.2864,138.4586 163.4934,138.6976 163.7694,138.7166 C163.9394,138.7286 164.1104,138.7346 164.2824,138.7346 C165.7434,138.7346 167.2364,138.3036 168.5404,137.4956 C169.9334,136.6216 171.0964,135.2286 171.7224,133.6936 C172.0714,132.9316 172.4924,131.2976 172.8944,129.6456 C173.0034,129.1986 172.8784,128.7346 172.5604,128.4046 L172.5604,128.4046 Z M152.0934,137.7196 C150.6774,137.8166 149.1994,137.4376 147.9234,136.6486 C146.7044,135.8826 145.6854,134.6616 145.1204,133.2776 C144.7644,132.5016 144.2544,130.4126 144.0104,129.4096 C143.9704,129.2476 144.0554,129.1376 144.0924,129.0986 C144.1304,129.0606 144.2334,128.9726 144.3934,129.0066 C144.6614,129.0606 144.9284,128.8896 144.9844,128.6186 C145.0404,128.3486 144.8674,128.0836 144.5964,128.0276 C144.1444,127.9356 143.6904,128.0756 143.3734,128.4036 C143.0544,128.7336 142.9294,129.1986 143.0384,129.6456 C143.4424,131.3006 143.8634,132.9356 144.2024,133.6746 C144.8364,135.2286 145.9994,136.6216 147.3954,137.4976 C148.6964,138.3036 150.1894,138.7356 151.6494,138.7356 C151.8214,138.7356 151.9934,138.7286 152.1644,138.7166 C152.4394,138.6976 152.6474,138.4586 152.6274,138.1836 C152.6074,137.9076 152.3664,137.6966 152.0934,137.7196 L152.0934,137.7196 Z" id="Fill-3" fill="#000"/>
            </g>
        </g>
    </g>
</svg>
