<svg viewBox="90 300 2070 1200" xmlns="http://www.w3.org/2000/svg" overflow="visible">
    <g id="Master/Backgrounds/Chart" stroke="none" stroke-width="1" fill="none" fill-rule="evenodd">
        <g id="Big Plants" transform="translate(532.000000, 806.000000) scale(-1, 1) translate(-532.000000, -806.000000) translate(0.000000, 126.000000) scale(1 1)">
            <g id="Big Plants/4" stroke="none" stroke-width="1" fill="none" fill-rule="evenodd">
                <g id="Plant" transform="translate(532.500000, 997.000000) scale(-1, 1) translate(-532.500000, -997.000000) translate(203.000000, 634.000000)" fill-rule="nonzero">
                    <path d="M212.1089,725.2965 C212.1089,725.2965 190.4069,683.2545 233.9129,616.9575 C326.0309,476.5875 177.0569,544.2915 144.1019,448.428 C117.2309,370.266 161.9684,291.294 117.0449,270.3705 C43.5089,236.1225 -33.1471,185.634 16.0904,128.5095 C50.6384,88.4265 169.6484,92.0415 216.3134,215.391 C245.5139,292.5795 360.5789,241.0875 462.6689,363.3705 C493.0739,399.7875 559.8434,553.9095 524.8064,725.2965 L212.1089,725.2965 Z" id="Assets-14" fill="#141414"/>
                    <g id="Assets-15" transform="translate(228.973012, 0.000674)">
                        <path d="M105.125188,725.295826 C105.125188,725.295826 55.4256879,663.702826 79.5306879,596.157826 C98.9736879,541.668826 151.145188,526.764826 152.894188,480.869326 C155.097688,422.996326 97.0326879,430.955326 87.8451879,359.498326 C80.7066879,303.969826 114.671188,252.900826 112.436188,223.367326 C109.053688,178.686826 32.6871879,155.499826 6.4656879,88.3073264 C-26.7803121,3.11632641 76.7226879,-16.3431736 122.825188,12.4658264 C180.693688,48.6293264 182.649688,102.585826 208.017688,135.059326 C236.828188,171.941326 327.012688,180.222826 339.960688,271.157326 C348.171688,328.830826 314.492188,378.942826 330.365188,427.770826 C342.156688,464.039326 412.550188,480.051826 427.365688,560.196826 C443.312188,646.467826 378.996688,725.295826 378.996688,725.295826 L105.125188,725.295826 Z" id="Fill-4" fill="#FFB500"/>
                        <path d="M249.240838,725.295826 L255.314338,725.295826 C257.493838,711.216826 276.600838,578.151826 248.370838,419.667826 C224.058838,283.179826 150.378838,155.583826 89.5328379,81.6848264 C88.4798379,80.4053264 86.5913379,80.2223264 85.3103379,81.2753264 C84.0308379,82.3283264 83.8478379,84.2198264 84.9008379,85.4993264 C118.221838,125.967826 151.218838,177.732826 177.813838,231.258826 C209.328838,294.683326 231.683338,360.198826 242.463838,420.719326 C271.433338,583.347826 250.263838,718.967326 249.240838,725.295826" id="Fill-6" fill="#070707"/>
                    </g>
                </g>
            </g>
        </g>
        <g id="Big Plants" transform="translate(1336.000000, 126.000000) scale(1 1)">
            <g id="Big Plants/3" stroke="none" stroke-width="1" fill="none" fill-rule="evenodd">
                <g id="Plant" transform="translate(266.000000, 680.000000)" fill-rule="nonzero">
                    <g id="Leaf" transform="translate(0.000019, 0.000000)">
                        <path d="M85.0729175,680 C85.0729175,680 -18.2061692,618.105738 2.82552094,506.112596 C15.3795915,439.260435 57.9625194,442.537708 82.6090625,391.924942 C98.3383687,359.623111 74.4391751,272.932354 123.495467,215.904012 C169.322571,162.628837 244.255335,167.457765 268.391323,155.885334 C300.739161,140.374776 313.058436,107.791009 322.304387,81.0299485 C356.78337,-18.7429057 436.443019,-16.0485037 449.409731,33.5894785 C465.043121,93.4341953 450.075151,129.50219 376.524184,188.151172 C321.258298,232.22039 402.173854,281.663416 354.040758,361.902606 C327.145173,406.738654 254.823135,430.043481 290.15038,488.017613 C338.526264,567.405992 329.440175,645.448669 304.776646,680 L85.0729175,680 Z" id="Assets-10" fill="#FF4B33"/>
                        <path d="M386.406275,84.5753413 C385.623542,83.8014543 384.361199,83.8084442 383.586443,84.5953125 C383.327194,84.8579348 357.243745,111.466666 323.282116,157.474498 C291.950868,199.923447 247.281255,268.077428 212.41026,351.699163 C181.433984,425.984326 147.117384,530.414135 156.607894,680 L160.604318,680 C151.109819,531.103144 185.263891,427.164628 216.0906,353.23795 C282.511211,193.957028 385.394206,88.4467734 386.426217,87.3992799 C387.198979,86.6154072 387.190005,85.3492283 386.406275,84.5753413" id="Assets-11" fill="#FFF"/>
                        <path d="M454.728602,314 C448.48621,314 442.130083,319.163661 442.130083,325.420251 C442.130083,326.461183 442.281728,327.463117 442.544114,328.421054 C389.696777,354.402351 342.564067,388.051144 302.31924,428.561488 C268.079362,463.028228 238.72106,502.506639 215.060426,545.895794 C194.009685,584.501262 181.458055,619.125992 174.636019,641.375533 C168.254951,662.184168 165.551277,676.375238 164.908781,680 L168.963293,680 C169.768409,675.598289 172.47308,662.045177 178.450094,642.549456 C185.218257,620.478903 197.671117,586.126156 218.561234,547.815668 C242.041291,504.756491 271.17412,465.58306 305.147622,431.384303 C345.071201,391.196938 391.831781,357.812127 444.267082,332.028818 C446.318283,334.882631 449.654476,336.747508 453.431637,336.747508 C459.67403,336.747508 464.908781,332.76377 464.908781,326.50818 C464.908781,320.25259 460.969998,314 454.728602,314" id="Assets-12" fill="#141414"/>
                        <path d="M521.335481,442.953 C515.078481,442.953 508.707481,448.117 508.707481,454.374 L508.707481,454.377 C489.337481,457.849 456.647481,465.101 397.233481,486.976 C318.151481,516.094 263.489481,566.93 231.560481,604.445 C196.958481,645.101 180.814481,679.387 180.654481,679.728 C180.613481,679.817 180.588481,679.908 180.561481,680 L184.973481,680 C188.352481,673.205 204.340481,642.578 234.694481,606.933 C266.304481,569.818 320.400481,519.529 398.616481,490.73 C457.727481,468.967 490.195481,461.762 509.425481,458.312 C511.026481,462.624 515.166481,465.702 520.035481,465.702 C526.292481,465.702 531.539481,461.719 531.539481,455.462 C531.539481,449.205 527.592481,442.953 521.335481,442.953" id="Assets-13" fill="#141414"/>
                    </g>
                </g>
            </g>
        </g>
        <g id="Screen" transform="translate(556.500000, 271.074400) scale(1 1)">
            <g id="Screen/Window" stroke="none" stroke-width="1" fill="none" fill-rule="evenodd">
                <g id="Window" transform="translate(119.000000, 29.000000)">
                    <path d="M996,0 C1025.82338,0 1050,24.1766235 1050,54 L1050,778 C1050,807.823376 1025.82338,832 996,832 L54,832 C24.1766235,832 0,807.823376 0,778 L0,54 C0,24.1766235 24.1766235,0 54,0 L996,0 Z M996,5 L54,5 C27.2086668,5 5.43927334,26.5014801 5,53.1896954 L5,54 L5,778 C5,804.791333 26.5014801,826.560727 53.1896954,827 L54,827 L996,827 C1022.79133,827 1044.56073,805.49852 1045,778.810305 L1045,778 L1045,54 C1045,27.2086668 1023.49852,5.43927334 996.810305,5 L996,5 Z" id="Frame" fill="#141414" fill-rule="nonzero"/>
                    <path d="M996,0 C1025.82338,0 1050,24.1766235 1050,54 L1050,126 L0,126 L0,54 C0,24.1766235 24.1766235,0 54,0 L996,0 Z M996,5 L54,5 C27.2086668,5 5.43927334,26.5014801 5,53.1896954 L5,54 L5,121 L1045,121 L1045,54 C1045,27.2086668 1023.49852,5.43927334 996.810305,5.0065646 L996,5 Z" id="Title" fill="#141414" fill-rule="nonzero"/>
                    <g id="Buttons" transform="translate(65.000000, 45.000000)">
                        <circle id="Btn" fill="#FF4B33" cx="20" cy="20" r="20"/>
                        <path d="M20,0 C31.045695,0 40,8.954305 40,20 C40,31.045695 31.045695,40 20,40 C8.954305,40 0,31.045695 0,20 C0,8.954305 8.954305,0 20,0 Z M20,4 C11.163444,4 4,11.163444 4,20 C4,28.836556 11.163444,36 20,36 C28.836556,36 36,28.836556 36,20 C36,11.163444 28.836556,4 20,4 Z" id="Btn" fill="#141414" fill-rule="nonzero"/>
                        <path d="M84,0 C95.045695,0 104,8.954305 104,20 C104,31.045695 95.045695,40 84,40 C72.954305,40 64,31.045695 64,20 C64,8.954305 72.954305,0 84,0 Z M84,4 C75.163444,4 68,11.163444 68,20 C68,28.836556 75.163444,36 84,36 C92.836556,36 100,28.836556 100,20 C100,11.163444 92.836556,4 84,4 Z" id="btn" fill="#141414" fill-rule="nonzero"/>
                        <path d="M148,0 C159.045695,0 168,8.954305 168,20 C168,31.045695 159.045695,40 148,40 C136.954305,40 128,31.045695 128,20 C128,8.954305 136.954305,0 148,0 Z M148,4 C139.163444,4 132,11.163444 132,20 C132,28.836556 139.163444,36 148,36 C156.836556,36 164,28.836556 164,20 C164,11.163444 156.836556,4 148,4 Z" id="btn" fill="#141414" fill-rule="nonzero"/>
                    </g>
                </g>
                <g id="Object" transform="translate(322.000000, 152.000000)"/>
            </g>
        </g>
        <line x1="93" y1="1486" x2="2133" y2="1486" id="Assets-68" stroke="#141414" stroke-width="4" stroke-linecap="round"/>
    </g>
</svg>
