<svg viewBox="210 210 2070 1440" xmlns="http://www.w3.org/2000/svg" overflow="visible">
    <g id="Master/Scenes/Small Talk" stroke="none" stroke-width="1" fill="none" fill-rule="evenodd">
        <g id="Master/Backgrounds/User Interface" transform="scale(1 1)">
            <g id="Master/Backgrounds/User Interface" stroke="none" stroke-width="1" fill="none" fill-rule="evenodd">
                <g id="Big Plants" transform="translate(532.000000, 729.000000) scale(-1, 1) translate(-532.000000, -729.000000) translate(0.000000, 49.000000) scale(1 1)">
                    <g id="Big Plants/3" stroke="none" stroke-width="1" fill="none" fill-rule="evenodd">
                        <g id="Plant" transform="translate(266.000000, 680.000000)" fill-rule="nonzero">
                            <g id="Leaf" transform="translate(0.000019, 0.000000)">
                                <path d="M85.0729175,680 C85.0729175,680 -18.2061692,618.105738 2.82552094,506.112596 C15.3795915,439.260435 57.9625194,442.537708 82.6090625,391.924942 C98.3383687,359.623111 74.4391751,272.932354 123.495467,215.904012 C169.322571,162.628837 244.255335,167.457765 268.391323,155.885334 C300.739161,140.374776 313.058436,107.791009 322.304387,81.0299485 C356.78337,-18.7429057 436.443019,-16.0485037 449.409731,33.5894785 C465.043121,93.4341953 450.075151,129.50219 376.524184,188.151172 C321.258298,232.22039 402.173854,281.663416 354.040758,361.902606 C327.145173,406.738654 254.823135,430.043481 290.15038,488.017613 C338.526264,567.405992 329.440175,645.448669 304.776646,680 L85.0729175,680 Z" id="Assets-10" fill="#FF4B33"/>
                                <path d="M386.406275,84.5753413 C385.623542,83.8014543 384.361199,83.8084442 383.586443,84.5953125 C383.327194,84.8579348 357.243745,111.466666 323.282116,157.474498 C291.950868,199.923447 247.281255,268.077428 212.41026,351.699163 C181.433984,425.984326 147.117384,530.414135 156.607894,680 L160.604318,680 C151.109819,531.103144 185.263891,427.164628 216.0906,353.23795 C282.511211,193.957028 385.394206,88.4467734 386.426217,87.3992799 C387.198979,86.6154072 387.190005,85.3492283 386.406275,84.5753413" id="Assets-11" fill="#FFF"/>
                                <path d="M454.728602,314 C448.48621,314 442.130083,319.163661 442.130083,325.420251 C442.130083,326.461183 442.281728,327.463117 442.544114,328.421054 C389.696777,354.402351 342.564067,388.051144 302.31924,428.561488 C268.079362,463.028228 238.72106,502.506639 215.060426,545.895794 C194.009685,584.501262 181.458055,619.125992 174.636019,641.375533 C168.254951,662.184168 165.551277,676.375238 164.908781,680 L168.963293,680 C169.768409,675.598289 172.47308,662.045177 178.450094,642.549456 C185.218257,620.478903 197.671117,586.126156 218.561234,547.815668 C242.041291,504.756491 271.17412,465.58306 305.147622,431.384303 C345.071201,391.196938 391.831781,357.812127 444.267082,332.028818 C446.318283,334.882631 449.654476,336.747508 453.431637,336.747508 C459.67403,336.747508 464.908781,332.76377 464.908781,326.50818 C464.908781,320.25259 460.969998,314 454.728602,314" id="Assets-12" fill="#141414"/>
                                <path d="M521.335481,442.953 C515.078481,442.953 508.707481,448.117 508.707481,454.374 L508.707481,454.377 C489.337481,457.849 456.647481,465.101 397.233481,486.976 C318.151481,516.094 263.489481,566.93 231.560481,604.445 C196.958481,645.101 180.814481,679.387 180.654481,679.728 C180.613481,679.817 180.588481,679.908 180.561481,680 L184.973481,680 C188.352481,673.205 204.340481,642.578 234.694481,606.933 C266.304481,569.818 320.400481,519.529 398.616481,490.73 C457.727481,468.967 490.195481,461.762 509.425481,458.312 C511.026481,462.624 515.166481,465.702 520.035481,465.702 C526.292481,465.702 531.539481,461.719 531.539481,455.462 C531.539481,449.205 527.592481,442.953 521.335481,442.953" id="Assets-13" fill="#141414"/>
                            </g>
                        </g>
                    </g>
                </g>
                <g id="Object" transform="translate(1684.590500, 52.418521) scale(1 1)">
                    <g id="Object/Abstract 1" stroke="none" stroke-width="1" fill="none" fill-rule="evenodd">
                        <path d="M578.8945,268.1415 C578.8945,320.6875 536.2975,363.2835 483.7525,363.2835 C431.2075,363.2835 388.6115,320.6875 388.6115,268.1415 C388.6115,215.5965 431.2075,172.9995 483.7525,172.9995 C536.2975,172.9995 578.8945,215.5965 578.8945,268.1415" id="Fill-1" fill="#141414"/>
                        <path d="M70,385.397 L353.868,385.397 L353.868,200.889 L70,200.889 L70,385.397 Z M355.868,389.397 L68,389.397 C66.896,389.397 66,388.502 66,387.397 L66,198.89 C66,197.785 66.896,196.89 68,196.89 L355.868,196.89 C356.973,196.89 357.868,197.785 357.868,198.89 L357.868,387.397 C357.868,388.502 356.973,389.397 355.868,389.397 L355.868,389.397 Z" id="Fill-4" fill="#141414"/>
                        <polygon id="Fill-6" fill="#FF4B33" points="430.3965 487.3867 144.3235 455.2907 165.3405 267.9587 451.4145 300.0547"/>
                    </g>
                </g>
                <g id="Object" transform="translate(148.000000, 0.000000) scale(1 1)">
                    <g id="Object/Cloud 2" stroke="none" stroke-width="1" fill="none" fill-rule="evenodd">
                        <path d="M112.295608,382.126044 C112.295608,382.126044 143.701062,359.536385 173.363221,297.93559 C203.027994,236.332181 236.866744,240.142862 248.348449,243.694794 C259.824926,247.246726 277.030494,288.084794 291.541403,324.879567 C306.052312,361.676953 324.366062,347.118999 334.914699,314.623658 C345.460721,282.125703 368.638449,302.862294 371.824471,315.684794 C375.010494,328.507294 380.514812,352.160703 402.336062,344.609908 C424.154699,337.053885 431.647994,342.330817 433.91663,354.131385 C436.182653,365.931953 449.44163,372.500022 496.913108,376.088544 C544.387199,379.679681 564.710835,399.284567 531.303335,405.225362 C497.898449,411.168772 4.80719866,408.30684 112.295608,382.126044" id="Fill-4" fill="#FFF"/>
                        <path d="M217.043799,245.020971 C228.674906,239.631 239.577409,239.411286 248.791939,242.261854 C254.554039,244.045206 261.305078,253.480603 269.559201,269.966179 L270.151345,271.155702 C276.256542,283.490003 282.686009,298.528405 290.91108,319.213195 L292.936822,324.329289 C299.529479,341.047231 306.908454,347.25935 314.154114,344.344754 C321.041314,341.57435 328.009815,330.77399 333.293042,314.756285 L333.487944,314.160657 C338.469369,298.810211 346.975338,293.242552 356.641116,296.748972 C364.181086,299.48422 371.442943,307.928814 373.280207,315.323086 L374.230942,319.102827 C375.060404,322.335059 375.591106,324.14807 376.408555,326.551614 C381.380964,341.171998 388.790607,347.53028 401.459674,343.32322 L401.845198,343.192497 C422.547454,336.023089 432.471359,339.631461 435.305985,353.427339 L435.389717,353.848513 C437.612188,365.42228 452.620951,371.144101 495.711854,374.492086 L497.026251,374.592817 C519.568668,376.298019 537.72405,381.785112 545.436589,388.655807 C549.426527,392.210233 550.462958,396.159924 547.898917,399.572501 C545.472708,402.801633 539.946456,405.211904 531.566089,406.70217 C514.077539,409.813739 383.000772,410.296489 275.47446,407.403047 L268.921808,407.221673 C206.556479,405.446556 157.083866,402.707427 127.539779,399.1051 L126.213153,398.941144 C110.243517,396.940372 100.515745,394.719524 97.1398668,392.056867 C94.5769738,390.035436 95.0736805,387.440253 98.1139621,385.500647 C100.541408,383.952012 104.916851,382.407193 111.366188,380.809741 L111.644,380.741 L111.712598,380.689903 C111.917682,380.534352 112.153642,380.351375 112.4196,380.140536 L112.624679,379.977176 C113.636062,379.167797 114.81295,378.173389 116.141608,376.987141 C119.953102,373.584176 124.20685,369.332124 128.793029,364.176416 C141.924286,349.414471 155.066601,330.38311 167.341353,306.644114 C168.605303,304.199674 169.854699,301.714266 171.088931,299.187568 L172.011752,297.284797 C185.47386,269.328684 200.757952,252.567995 217.043799,245.020971 Z M247.905143,245.127791 C239.358779,242.483924 229.212376,242.6884 218.305172,247.742907 C202.864009,254.898496 188.191904,270.890301 175.110617,297.768532 L174.714702,298.586358 C173.169104,301.796175 171.599197,304.9412 170.006191,308.022025 C157.615497,331.98525 144.330548,351.223158 131.034539,366.170315 C126.573931,371.184859 122.413649,375.367643 118.650317,378.766389 L118.139605,379.224999 C116.922604,380.311557 115.824946,381.245494 114.856318,382.031603 L114.07573,382.655152 C113.875262,382.81248 113.69174,382.954083 113.525535,383.080145 L113.171496,383.343755 L112.295,382.125 L112.650583,383.583437 L111.563414,383.852658 C105.877654,385.284629 101.991682,386.653622 99.9167012,387.912131 L99.7274777,388.029791 L99.4165499,388.230827 C98.27186,388.983983 98.3013363,389.152108 98.9977207,389.701368 C101.835134,391.939321 111.815705,394.165637 127.902882,396.127155 L129.692391,396.341411 C159.008444,399.788643 206.983757,402.431312 267.1427,404.16942 L269.007163,404.222887 C377.39812,407.30804 513.49513,406.870248 531.040713,403.748532 L531.916071,403.587858 C545.994837,400.920835 549.364528,396.172773 543.441047,390.895855 C536.403348,384.626339 519.127436,379.36002 497.514131,377.639703 L496.80004,377.584277 C451.800355,374.182605 435.391957,368.178956 432.526312,354.821596 L432.443605,354.414572 C430.166013,342.567424 422.503856,339.44585 403.974637,345.636765 L402.826571,346.027441 C394.800991,348.804529 388.24689,347.762353 383.098431,343.416839 C379.110019,340.050452 376.162679,334.934996 373.783099,328.139938 L373.568324,327.51758 C372.441376,324.204015 371.848224,322.000869 370.368736,316.046503 C368.766505,309.598149 362.193363,301.954441 355.618054,299.569139 C347.813425,296.737882 340.993509,301.115617 336.489067,314.637698 L336.341409,315.086797 C330.783062,332.209424 323.310901,343.895016 315.273692,347.128016 C306.013577,350.852935 297.268095,343.490398 290.145998,325.429879 L287.731384,319.33676 C279.852938,299.558873 273.633291,285.01829 267.756256,273.081224 L266.899601,271.35547 C259.048439,255.67677 252.544916,246.563786 247.905143,245.127791 Z" id="Fill-4-Copy" fill="#141414" fill-rule="nonzero"/>
                    </g>
                </g>
                <g id="Plant" transform="translate(1570.000000, 555.000000) scale(1 1)">
                    <g id="Plant/Plant 5" stroke="none" stroke-width="1" fill="none" fill-rule="evenodd">
                        <g id="Leaf" transform="translate(57.000000, 174.000000)">
                            <path d="M85.0729175,680 C85.0729175,680 -18.2061692,618.105738 2.82552094,506.112596 C15.3795915,439.260435 57.9625194,442.537708 82.6090625,391.924942 C98.3383687,359.623111 74.4391751,272.932354 123.495467,215.904012 C169.322571,162.628837 244.255335,167.457765 268.391323,155.885334 C300.739161,140.374776 313.058436,107.791009 322.304387,81.0299485 C356.78337,-18.7429057 436.443019,-16.0485037 449.409731,33.5894785 C465.043121,93.4341953 450.075151,129.50219 376.524184,188.151172 C321.258298,232.22039 402.173854,281.663416 354.040758,361.902606 C327.145173,406.738654 254.823135,430.043481 290.15038,488.017613 C338.526264,567.405992 329.440175,645.448669 304.776646,680 L85.0729175,680 Z" id="Fill-1" fill="#FF4B33"/>
                            <path d="M386.406275,84.5753413 C385.623542,83.8014543 384.361199,83.8084442 383.586443,84.5953125 C383.327194,84.8579348 357.243745,111.466666 323.282116,157.474498 C291.950868,199.923447 247.281255,268.077428 212.41026,351.699163 C181.433984,425.984326 147.117384,530.414135 156.607894,680 L160.604318,680 C151.109819,531.103144 185.263891,427.164628 216.0906,353.23795 C282.511211,193.957028 385.394206,88.4467734 386.426217,87.3992799 C387.198979,86.6154072 387.190005,85.3492283 386.406275,84.5753413" id="Fill-10" fill="#FFF"/>
                            <path d="M454.728602,314 C448.48621,314 442.130083,319.163661 442.130083,325.420251 C442.130083,326.461183 442.281728,327.463117 442.544114,328.421054 C389.696777,354.402351 342.564067,388.051144 302.31924,428.561488 C268.079362,463.028228 238.72106,502.506639 215.060426,545.895794 C194.009685,584.501262 181.458055,619.125992 174.636019,641.375533 C168.254951,662.184168 165.551277,676.375238 164.908781,680 L168.963293,680 C169.768409,675.598289 172.47308,662.045177 178.450094,642.549456 C185.218257,620.478903 197.671117,586.126156 218.561234,547.815668 C242.041291,504.756491 271.17412,465.58306 305.147622,431.384303 C345.071201,391.196938 391.831781,357.812127 444.267082,332.028818 C446.318283,334.882631 449.654476,336.747508 453.431637,336.747508 C459.67403,336.747508 464.908781,332.76377 464.908781,326.50818 C464.908781,320.25259 460.969998,314 454.728602,314" id="Fill-4" fill="#141414"/>
                            <path d="M521.335481,442.953 C515.078481,442.953 508.707481,448.117 508.707481,454.374 L508.707481,454.377 C489.337481,457.849 456.647481,465.101 397.233481,486.976 C318.151481,516.094 263.489481,566.93 231.560481,604.445 C196.958481,645.101 180.814481,679.387 180.654481,679.728 C180.613481,679.817 180.588481,679.908 180.561481,680 L184.973481,680 C188.352481,673.205 204.340481,642.578 234.694481,606.933 C266.304481,569.818 320.400481,519.529 398.616481,490.73 C457.727481,468.967 490.195481,461.762 509.425481,458.312 C511.026481,462.624 515.166481,465.702 520.035481,465.702 C526.292481,465.702 531.539481,461.719 531.539481,455.462 C531.539481,449.205 527.592481,442.953 521.335481,442.953" id="Fill-7" fill="#141414"/>
                        </g>
                    </g>
                </g>
                <g id="Screen" transform="translate(557.000000, 548.500000) scale(1 1)">
                    <g id="Screen/Window" stroke="none" stroke-width="1" fill="none" fill-rule="evenodd">
                        <g id="Window" transform="translate(119.000000, 29.000000)">
                            <path d="M996,0 C1025.82338,0 1050,24.1766235 1050,54 L1050,778 C1050,807.823376 1025.82338,832 996,832 L54,832 C24.1766235,832 0,807.823376 0,778 L0,54 C0,24.1766235 24.1766235,0 54,0 L996,0 Z M996,5 L54,5 C27.2086668,5 5.43927334,26.5014801 5,53.1896954 L5,54 L5,778 C5,804.791333 26.5014801,826.560727 53.1896954,827 L54,827 L996,827 C1022.79133,827 1044.56073,805.49852 1045,778.810305 L1045,778 L1045,54 C1045,27.2086668 1023.49852,5.43927334 996.810305,5 L996,5 Z" id="Frame" fill="#141414" fill-rule="nonzero"/>
                            <path d="M996,0 C1025.82338,0 1050,24.1766235 1050,54 L1050,126 L0,126 L0,54 C0,24.1766235 24.1766235,0 54,0 L996,0 Z M996,5 L54,5 C27.2086668,5 5.43927334,26.5014801 5,53.1896954 L5,54 L5,121 L1045,121 L1045,54 C1045,27.2086668 1023.49852,5.43927334 996.810305,5.0065646 L996,5 Z" id="Title" fill="#141414" fill-rule="nonzero"/>
                            <g id="Buttons" transform="translate(65.000000, 45.000000)">
                                <circle id="Btn" fill="#FF4B33" cx="20" cy="20" r="20"/>
                                <path d="M20,0 C31.045695,0 40,8.954305 40,20 C40,31.045695 31.045695,40 20,40 C8.954305,40 0,31.045695 0,20 C0,8.954305 8.954305,0 20,0 Z M20,4 C11.163444,4 4,11.163444 4,20 C4,28.836556 11.163444,36 20,36 C28.836556,36 36,28.836556 36,20 C36,11.163444 28.836556,4 20,4 Z" id="Btn" fill="#141414" fill-rule="nonzero"/>
                                <path d="M84,0 C95.045695,0 104,8.954305 104,20 C104,31.045695 95.045695,40 84,40 C72.954305,40 64,31.045695 64,20 C64,8.954305 72.954305,0 84,0 Z M84,4 C75.163444,4 68,11.163444 68,20 C68,28.836556 75.163444,36 84,36 C92.836556,36 100,28.836556 100,20 C100,11.163444 92.836556,4 84,4 Z" id="btn" fill="#141414" fill-rule="nonzero"/>
                                <path d="M148,0 C159.045695,0 168,8.954305 168,20 C168,31.045695 159.045695,40 148,40 C136.954305,40 128,31.045695 128,20 C128,8.954305 136.954305,0 148,0 Z M148,4 C139.163444,4 132,11.163444 132,20 C132,28.836556 139.163444,36 148,36 C156.836556,36 164,28.836556 164,20 C164,11.163444 156.836556,4 148,4 Z" id="btn" fill="#141414" fill-rule="nonzero"/>
                            </g>
                        </g>
                        <g id="Object" transform="translate(322.000000, 152.000000)"/>
                    </g>
                </g>
            </g>
        </g>
        <g transform="translate(1521.500000, 988.000000) scale(-1, 1) translate(-1521.500000, -988.000000) translate(940.000000, 338.000000) scale(1 1)" id="Master/Character/Standing">
            <g id="Master/Character/Standing" stroke="none" stroke-width="1" fill="none" fill-rule="evenodd">
                <g id="Lower Body" transform="translate(0.000000, 569.000000) scale(1 1)">
                    <g id="Lower Body/Half Pant" stroke="none" stroke-width="1" fill="none" fill-rule="evenodd">
                        <g id="Assets-50" transform="translate(569.857155, 276.459725)">
                            <g id="leg-2" transform="translate(0.000000, -0.000000)">
                                <path d="M2.12704462,2.12577455 L20.3270446,87.2987745 C1.35704462,210.290775 32.5170446,290.552775 42.7150446,408.406775 L109.942045,416.247775 L97.9420446,17.6437745" id="SKIN" fill="#FFF"/>
                                <path d="M109.942545,418.374775 C109.860545,418.374775 109.778545,418.369775 109.695545,418.359775 L42.4685446,410.519775 C41.4655446,410.401775 40.6835446,409.596775 40.5965446,408.590775 C37.3255446,370.790775 31.8975446,336.884775 26.6475446,304.095775 C15.6865446,235.635775 5.33254462,170.969775 18.1665446,87.3607745 L0.0475446223,2.56977455 C-0.198455378,1.42177455 0.534544622,0.29177455 1.68254462,0.0457745497 C2.83554462,-0.19422545 3.96154462,0.53277455 4.20654462,1.68177455 L22.4065446,86.8537745 C22.4615446,87.1067745 22.4685446,87.3667745 22.4285446,87.6227745 C9.60654462,170.756775 19.9235446,235.197775 30.8475446,303.423775 C36.0285446,335.787775 41.3845446,369.236775 44.6825446,406.495775 L107.742545,413.850775 L95.8175446,17.7077745 C95.7815446,16.5327745 96.7045446,15.5527745 97.8785446,15.5177745 C97.9005446,15.5177745 97.9215446,15.5167745 97.9435446,15.5167745 C99.0885446,15.5167745 100.033545,16.4277745 100.067545,17.5787745 L112.06855,416.183775 C112.086545,416.801775 111.835545,417.396775 111.379545,417.814775 C110.985545,418.176775 110.471545,418.374775 109.942545,418.374775" id="Fill-3" fill="#141414"/>
                            </g>
                            <g id="shoe-1" transform="translate(15.785968, 379.766067)">
                                <path d="M78.2858765,16.720808 C78.2858765,16.720808 86.3538765,5.21780796 94.2638765,0.831807957 C99.4288765,-2.03319204 158.381876,30.360808 168.994876,37.512808 C178.391876,43.845808 178.173876,54.260808 176.389876,59.313808 C175.564876,61.649808 172.626876,62.833808 167.656876,62.833808 C149.511876,62.833808 110.420876,62.920808 75.9328765,62.998808 C48.0258765,63.060808 18.9258765,63.114808 9.85187649,63.114808 C8.89287649,63.114808 8.02787649,62.741808 7.41387649,62.064808 C3.84187649,58.122808 2.32287649,15.877808 11.5998765,8.93780796 C20.1128765,2.56980796 78.2858765,16.720808 78.2858765,16.720808 Z" id="Fill-5" fill="#ffc81a"/>
                                <path d="M7.21707649,71.921208 L172.053076,71.921208 C183.389076,71.912208 183.779076,55.908208 172.053076,57.187208 C131.087076,61.654208 7.21707649,57.187208 7.21707649,57.187208 C-0.243923512,57.290208 2.49807649,67.202208 2.49807649,67.202208 C2.49807649,69.809208 4.61107649,71.921208 7.21707649,71.921208" id="Fill-7" fill="#FFF"/>
                                <path d="M7.14477649,59.185808 C5.69477649,59.207808 5.09977649,59.762808 4.78677649,60.178808 C3.51077649,61.872808 4.11477649,65.526808 4.42677649,66.672808 C4.47277649,66.843808 4.49777649,67.024808 4.49777649,67.202808 C4.49777649,68.701808 5.71777649,69.920808 7.21677649,69.920808 L172.053776,69.920808 C175.767776,69.917808 177.385776,67.910808 178.018776,66.712808 C178.984776,64.888808 178.930776,62.710808 177.881776,61.164808 C176.806776,59.580808 174.865776,58.888808 172.269776,59.174808 C131.629776,63.606808 8.38477649,59.229808 7.14477649,59.185808 M172.054776,73.920808 L7.21677649,73.920808 C3.60477649,73.920808 0.649776488,71.056808 0.503776488,67.479808 C0.177776488,66.168808 -0.873223512,61.056808 1.58277649,57.782808 C2.45377649,56.622808 4.13277649,55.229808 7.18877649,55.186808 C8.52577649,55.232808 131.481776,59.599808 171.836776,55.198808 C175.877776,54.760808 179.287776,56.114808 181.190776,58.918808 C183.061776,61.673808 183.203776,65.468808 181.553776,68.584808 C179.760776,71.972808 176.297776,73.917808 172.054776,73.920808" id="Fill-9" fill="#141414"/>
                            </g>
                        </g>
                        <g id="Assets-51" transform="translate(429.500000, 503.459725) scale(-1, 1) translate(-429.500000, -503.459725) translate(330.000000, 276.459725)">
                            <g id="leg-2" transform="translate(0.000000, -0.000000)">
                                <path d="M2.12704462,2.12577455 L20.3270446,87.2987745 C1.35704462,210.290775 32.5170446,290.552775 42.7150446,408.406775 L109.942045,416.247775 L97.9420446,17.6437745" id="SKIN" fill="#FFF"/>
                                <path d="M109.942545,418.374775 C109.860545,418.374775 109.778545,418.369775 109.695545,418.359775 L42.4685446,410.519775 C41.4655446,410.401775 40.6835446,409.596775 40.5965446,408.590775 C37.3255446,370.790775 31.8975446,336.884775 26.6475446,304.095775 C15.6865446,235.635775 5.33254462,170.969775 18.1665446,87.3607745 L0.0475446223,2.56977455 C-0.198455378,1.42177455 0.534544622,0.29177455 1.68254462,0.0457745497 C2.83554462,-0.19422545 3.96154462,0.53277455 4.20654462,1.68177455 L22.4065446,86.8537745 C22.4615446,87.1067745 22.4685446,87.3667745 22.4285446,87.6227745 C9.60654462,170.756775 19.9235446,235.197775 30.8475446,303.423775 C36.0285446,335.787775 41.3845446,369.236775 44.6825446,406.495775 L107.742545,413.850775 L95.8175446,17.7077745 C95.7815446,16.5327745 96.7045446,15.5527745 97.8785446,15.5177745 C97.9005446,15.5177745 97.9215446,15.5167745 97.9435446,15.5167745 C99.0885446,15.5167745 100.033545,16.4277745 100.067545,17.5787745 L112.06855,416.183775 C112.086545,416.801775 111.835545,417.396775 111.379545,417.814775 C110.985545,418.176775 110.471545,418.374775 109.942545,418.374775" id="Fill-3" fill="#141414"/>
                            </g>
                            <g id="shoe-1" transform="translate(15.785968, 379.766067)">
                                <path d="M11.5998765,8.93780796 C20.1128765,2.56980796 78.2858765,16.720808 78.2858765,16.720808 C78.2858765,16.720808 86.3538765,5.21780796 94.2638765,0.831807957 C99.4288765,-2.03319204 158.381876,30.360808 168.994876,37.512808 C178.391876,43.845808 178.173876,54.260808 176.389876,59.313808 C175.564876,61.649808 172.626876,62.833808 167.656876,62.833808 C149.511876,62.833808 110.420876,62.920808 75.9328765,62.998808 C48.0258765,63.060808 18.9258765,63.114808 9.85187649,63.114808 C8.89287649,63.114808 8.02787649,62.741808 7.41387649,62.064808 C3.84187649,58.122808 2.32287649,15.877808 11.5998765,8.93780796" id="Fill-5" fill="#ffc81a"/>
                                <path d="M7.21707649,71.921208 L172.053076,71.921208 C183.389076,71.912208 183.779076,55.908208 172.053076,57.187208 C131.087076,61.654208 7.21707649,57.187208 7.21707649,57.187208 C-0.243923512,57.290208 2.49807649,67.202208 2.49807649,67.202208 C2.49807649,69.809208 4.61107649,71.921208 7.21707649,71.921208" id="Fill-7" fill="#FFF"/>
                                <path d="M7.14477649,59.185808 C5.69477649,59.207808 5.09977649,59.762808 4.78677649,60.178808 C3.51077649,61.872808 4.11477649,65.526808 4.42677649,66.672808 C4.47277649,66.843808 4.49777649,67.024808 4.49777649,67.202808 C4.49777649,68.701808 5.71777649,69.920808 7.21677649,69.920808 L172.053776,69.920808 C175.767776,69.917808 177.385776,67.910808 178.018776,66.712808 C178.984776,64.888808 178.930776,62.710808 177.881776,61.164808 C176.806776,59.580808 174.865776,58.888808 172.269776,59.174808 C131.629776,63.606808 8.38477649,59.229808 7.14477649,59.185808 M172.054776,73.920808 L7.21677649,73.920808 C3.60477649,73.920808 0.649776488,71.056808 0.503776488,67.479808 C0.177776488,66.168808 -0.873223512,61.056808 1.58277649,57.782808 C2.45377649,56.622808 4.13277649,55.229808 7.18877649,55.186808 C8.52577649,55.232808 131.481776,59.599808 171.836776,55.198808 C175.877776,54.760808 179.287776,56.114808 181.190776,58.918808 C183.061776,61.673808 183.203776,65.468808 181.553776,68.584808 C179.760776,71.972808 176.297776,73.917808 172.054776,73.920808" id="Fill-9" fill="#141414"/>
                            </g>
                        </g>
                        <g id="pant" transform="translate(382.000000, 1.147000)">
                            <polygon fill="#141414" points="51.4129 1.0566 -0.0001 329.3076 153.3679 329.3076 164.1549 151.2486 178.8939 329.3076 328.4959 329.3076 269.9899 0.8526"/>
                            <path d="M174.555,25.1426 C178.846,28.1326 188.407,33.9646 204.357,39.5126 C210.062,41.4966 213.107,41.1936 213.982,40.3306 C214.573,39.7476 214.293,38.5486 214.073,37.8856 C212.347,32.6766 203.025,24.4966 190.011,22.6866 C185.368,22.0436 180.063,23.0996 174.555,25.1426 M158.952,21.0216 C155.966,21.0216 152.485,22.7096 149.583,24.1186 C137.579,29.9416 127.729,42.6306 126.825,48.7376 C129.246,47.8146 134.688,44.0776 139.566,40.7276 C147.524,35.2616 157.057,28.7136 166.617,24.1466 C164.913,22.9186 163.019,21.9806 160.889,21.3016 C160.277,21.1076 159.627,21.0216 158.952,21.0216 M155.176,69.3036 C154.935,69.3036 154.69,69.2596 154.452,69.1666 C153.423,68.7666 152.912,67.6086 153.312,66.5786 C158.103,54.2446 164.879,36.2796 167.482,28.2116 C158.291,32.7186 149.071,39.0516 141.83,44.0246 C130.958,51.4926 127.06,54.0016 124.375,52.5876 C123.77,52.2696 122.757,51.4576 122.757,49.5956 C122.757,41.2206 135.414,26.5456 147.837,20.5186 C152.034,18.4836 157.262,15.9486 162.102,17.4916 C165.459,18.5596 168.294,20.1786 170.723,22.3136 C177.635,19.4586 184.447,17.8716 190.561,18.7256 C204.59,20.6766 215.463,29.3606 217.87,36.6276 C219.062,40.2276 217.705,42.2786 216.79,43.1796 C214.355,45.5796 209.73,45.6156 203.043,43.2896 C191.549,39.2926 183.297,35.1776 177.821,31.9766 C181.939,40.3216 184.328,51.6866 186.843,65.4986 C187.04,66.5856 186.32,67.6266 185.233,67.8256 C184.155,68.0206 183.105,67.3036 182.907,66.2156 C179.604,48.0676 176.591,36.1876 171.406,29.0096 C168.056,39.6046 158.327,64.7156 157.041,68.0276 C156.733,68.8186 155.977,69.3026 155.176,69.3036" id="Fill-14" fill="#FFF"/>
                            <path d="M229.4027,27.7617 C229.3247,27.7617 229.2457,27.7577 229.1667,27.7477 C228.0697,27.6187 227.2847,26.6247 227.4137,25.5287 C227.9277,21.1607 226.6577,17.4777 226.6447,17.4417 C226.2797,16.4017 226.8237,15.2587 227.8627,14.8907 C228.9027,14.5237 230.0427,15.0617 230.4137,16.1007 C230.4797,16.2837 232.0137,20.6627 231.3867,25.9947 C231.2667,27.0127 230.4027,27.7617 229.4027,27.7617" id="Fill-16" fill="#FFF"/>
                            <path d="M250.0247,26.8027 C249.9467,26.8027 249.8677,26.7987 249.7887,26.7887 C248.6917,26.6597 247.9067,25.6657 248.0357,24.5697 C248.5497,20.2017 247.2797,16.5187 247.2667,16.4827 C246.9017,15.4427 247.4457,14.2997 248.4847,13.9317 C249.5257,13.5647 250.6647,14.1027 251.0357,15.1417 C251.1017,15.3247 252.6357,19.7037 252.0087,25.0357 C251.8887,26.0537 251.0247,26.8027 250.0247,26.8027" id="Fill-18" fill="#FFF"/>
                            <path d="M108.4413,29.0049 C107.4413,29.0049 106.5773,28.2559 106.4573,27.2379 C105.8303,21.9059 107.3643,17.5269 107.4303,17.3439 C107.8013,16.3049 108.9443,15.7619 109.9863,16.1329 C111.0243,16.5039 111.5663,17.6459 111.1983,18.6849 C111.1863,18.7209 109.9163,22.4039 110.4303,26.7719 C110.5593,27.8679 109.7743,28.8619 108.6773,28.9909 C108.5983,29.0009 108.5193,29.0049 108.4413,29.0049" id="Fill-20" fill="#FFF"/>
                            <path d="M72.0819,28.7207 C71.0819,28.7207 70.2179,27.9717 70.0979,26.9537 C69.4709,21.6217 71.0049,17.2427 71.0709,17.0597 C71.4419,16.0207 72.5839,15.4787 73.6269,15.8487 C74.6649,16.2197 75.2069,17.3617 74.8389,18.4007 C74.8269,18.4367 73.5569,22.1197 74.0709,26.4877 C74.1999,27.5837 73.4149,28.5777 72.3179,28.7067 C72.2389,28.7167 72.1599,28.7207 72.0819,28.7207" id="Fill-22" fill="#FFF"/>
                        </g>
                    </g>
                </g>
                <g id="Upper Body" transform="translate(272.000000, 187.000000) scale(1 1)">
                    <g id="Upper Body/Calling" stroke="none" stroke-width="1" fill="none" fill-rule="evenodd">
                        <g id="hand" transform="translate(64.145349, 457.620300)">
                            <path d="M81.6317507,22.7815 L20.9287507,0.6765 C9.21575069,53.6025 -4.54224931,118.7455 6.08375069,126.7355 C6.29275069,126.8915 6.51375069,127.0345 6.72575069,127.1885 C7.10875069,129.6515 17.5427507,133.9125 22.7917507,134.9505 C29.0927507,136.9195 35.0057507,137.7895 38.7227507,137.777622 C44.8987507,137.7565 49.0297507,133.1885 48.4247507,128.1085 C56.2877507,127.3815 57.2557507,123.6315 55.4417507,118.9145 C64.9977507,117.0995 61.2197507,109.6415 51.5697507,106.8185 C56.0387507,99.5945 61.7967507,96.9785 62.4367507,83.7935 C62.9487507,73.2295 71.6487507,49.5695 81.6317507,22.7815" id="SKIN" fill="#FFF"/>
                            <path d="M83.5164507,23.468 L79.4714507,21.994 C70.2124507,47.09 62.0234507,70.2 60.3104507,83.685 C59.8574507,93.039 55.2944507,98.743 50.8994507,104.47 C48.9894507,103.459 47.0534507,101.874 46.1924507,100.037 C45.7884507,99.218 44.7964507,98.875 43.9684507,99.275 C41.1434507,101.371 45.9314507,105.285 47.4964507,106.598 C50.7774507,109.614 56.6054507,109.574 59.1654507,113.093 C59.9404507,116.516 55.9434507,116.786 53.3114507,116.916 C46.8754507,115.526 40.2674507,113.648 34.6234507,110.239 C33.9724507,109.845 33.1184507,110.059 32.7214507,110.721 C31.6184507,113.225 38.0284507,115.818 39.8654507,116.779 C44.7764507,119.349 50.7164507,120.266 53.5844507,121.854 C54.5984507,122.959 53.6144507,124.169 52.4924507,125.064 C50.5314507,126.555 47.9954507,126.425 45.5854507,126.364 C38.3614507,125.852 31.2564507,123.737 24.5374507,120.927 C23.2614507,120.498 22.4524507,122.415 23.6474507,123.028 C30.9494507,126.833 38.8914507,129.799 47.2244507,130.359 C46.9844507,133.876 42.6904507,135.472 38.7174507,135.653 C29.3274507,135.534 15.5694507,131.327 7.35945069,125.029 C6.15445069,124.127 4.76745069,121.468 4.46245069,114.162 C4.20345069,83.757 15.1444507,37.378 23.0004507,1.43 L19.0724507,5.82645043e-13 C9.88845069,43.489 -0.65054931,93.649 0.0314506895,116.222 C0.25145069,123.534 2.18945069,126.835 4.65245069,128.308 C4.68345069,128.738 16.8044507,136.195 24.5834507,137.703 C35.0424507,140.594 50.1944507,142.436 51.4574507,130.095 C55.3984507,129.359 59.6004507,125.374 58.0664507,120.934 C62.2974507,120.207 65.0304507,115.359 63.1774507,111.303 C61.4584507,108.015 58.0714507,107.119 54.9644507,106.145 C59.3264507,100.503 64.0744507,94.028 64.5604507,83.899 C66.0644507,70.939 74.4954507,47.503 83.5164507,23.468" id="Fill-3" fill="#141414"/>
                        </g>
                        <g id="Assets-105" transform="translate(334.192526, 9.000366)">
                            <path d="M130.687074,145.175834 C123.714074,121.793834 112.365074,94.059834 94.9160738,61.203834 C84.9520738,38.709834 58.8950738,19.338834 57.8450738,28.173834 C55.5750738,47.290834 41.8020738,73.588834 41.8020738,73.588834 C47.3010738,88.946834 60.8110738,135.845834 61.7470738,164.287834 L130.687074,145.175834 Z" id="SKIN" fill="#FFF"/>
                            <path d="M62.2329738,164.152934 L62.2329738,164.152934 C63.1789738,163.890934 63.8269738,163.011934 63.7769738,162.031934 C62.2499738,131.972934 48.2869738,85.755934 44.1129738,73.746934 C46.5109738,69.036934 57.8669738,46.025934 59.9579738,28.424934 C59.9759738,28.266934 60.0039738,28.176934 60.0029738,28.152934 C60.1399738,28.113934 60.7609738,28.003934 62.2589738,28.549934 C69.9739738,31.363934 85.7749738,45.818934 92.9709738,62.065934 C92.9919738,62.111934 93.0139738,62.156934 93.0379738,62.201934 C108.907974,92.082934 120.603974,119.328934 128.088974,143.782934 C128.421974,144.870934 129.552974,145.489934 130.648974,145.185934 C131.785974,144.870934 132.446974,143.686934 132.101974,142.558934 C125.049974,119.465934 113.819974,92.271934 96.8299738,60.272934 C88.3789738,41.265934 67.6889738,22.688934 59.4629738,23.925934 C57.3889738,24.238934 55.9939738,25.731934 55.7339738,27.923934 C53.5359738,46.423934 40.0539738,72.342934 39.9179738,72.601934 C39.6429738,73.128934 39.5999738,73.745934 39.7989738,74.305934 C46.4039738,92.747934 58.1299738,135.503934 59.5709738,162.239934 C59.6429738,163.584934 60.9359738,164.512934 62.2329738,164.152934" id="Fill-7" fill="#141414"/>
                            <path d="M104.600174,62.175834 L83.8921738,91.214834 C81.2641738,94.897834 76.1481738,95.754834 72.4641738,93.127834 L3.43617376,43.901834 C-0.247826244,41.274834 -1.10382624,36.158834 1.52317376,32.474834 L22.2311738,3.43683396 C24.8581738,-0.247166041 29.9741738,-1.10416604 33.6581738,1.52283396 L102.686174,50.748834 C106.370174,53.375834 107.227174,58.491834 104.600174,62.175834" id="Fill-9" fill="#02BAD3"/>
                            <path d="M89.2476738,42.063034 C85.2306738,43.924034 82.2386738,49.961034 85.1986738,53.496034 C87.4676738,56.204034 92.7376738,55.858034 95.7926738,49.501034 C98.0336738,44.836034 92.8916738,40.376034 89.2476738,42.063034" id="SKIN" fill="#FFF"/>
                            <path d="M65.6733738,22.710034 C63.1873738,16.834034 56.6503738,16.453034 52.9933738,23.279034 C51.9613738,25.207034 50.8503738,28.759034 52.8193738,31.620034 C57.8363738,38.914034 67.4383738,26.883034 65.6733738,22.710034" id="SKIN" fill="#FFF"/>
                            <path d="M87.5747738,41.119234 C89.4277738,36.158234 82.9657738,30.651234 78.2407738,33.192234 C77.1497738,33.779234 76.1787738,34.597234 75.3487738,35.556234 C76.4117738,33.508234 76.8267738,31.561234 76.5327738,30.186234 C75.2887738,24.366234 66.5787738,21.317234 61.4037738,33.606234 C58.5807738,40.311234 65.1697738,45.067234 69.4157738,42.148234 C71.0567738,41.019234 72.4307738,39.706234 73.5237738,38.345234 C71.5177738,42.491234 71.7177738,47.550234 75.4257738,49.523234 C79.5767738,51.731234 84.8377738,48.451234 87.5747738,41.119234" id="SKIN" fill="#FFF"/>
                            <path d="M93.8755738,48.579634 C92.6495738,51.131634 90.9245738,52.722634 89.1415738,52.946634 C88.2045738,53.063634 87.3615738,52.766634 86.8295738,52.130634 C85.9965738,51.135634 86.0595738,49.861634 86.2585738,48.968634 C86.6315738,47.304634 87.7735738,45.614634 89.1465738,44.591634 C89.4685738,44.352634 89.8025738,44.149634 90.1425738,43.992634 C91.0235738,43.583634 92.2835738,43.950634 93.2045738,44.884634 C93.6985738,45.385634 94.7545738,46.749634 93.8755738,48.579634 M76.4245738,47.644634 C74.7445738,46.751634 74.3885738,44.950634 74.3845557,43.597634 C74.3815738,42.198634 74.7515738,40.752634 75.3705738,39.428634 C76.0275738,38.581634 76.5895738,37.718634 77.0565738,36.857634 C77.4605738,36.403634 77.8905738,35.983634 78.3555738,35.636634 C78.6435738,35.421634 78.9415738,35.230634 79.2485738,35.065634 C80.9465738,34.151634 82.8975738,35.003634 84.0525738,36.010634 C85.1515738,36.969634 86.2125738,38.687634 85.5815738,40.375634 C84.1815738,44.126634 81.9425738,46.897634 79.6045738,47.784634 C78.4735738,48.213634 77.4035738,48.166634 76.4245738,47.644634 M64.3575738,40.058634 C63.7715738,39.579634 61.9625738,37.759634 63.3635738,34.431634 C64.5615738,31.588634 66.0475738,29.485634 67.6275738,28.308634 C68.6895738,27.517634 69.7945738,27.144634 70.8825738,27.246634 C72.5935738,27.408634 74.0625738,28.799634 74.4525738,30.630634 C74.6215738,31.417634 74.3335738,32.839634 73.5115738,34.468634 C72.8475738,35.280634 72.2625738,36.172634 71.7735738,37.120634 C70.8475738,38.257634 69.6715738,39.389634 68.2105738,40.395634 C66.8345738,41.341634 65.2745738,40.805634 64.3575738,40.058634 M54.8675738,24.283634 C56.2285738,21.743634 58.1395738,20.275634 59.9775738,20.360634 C61.5275738,20.431634 62.8905738,21.589634 63.7145738,23.538634 C64.1115738,24.477634 62.2365738,29.212634 58.5615738,31.226634 C56.3655738,32.430634 55.3125738,31.491634 54.5705738,30.414634 C52.9725738,28.091634 54.5375738,24.899634 54.8675738,24.283634 M96.2325738,41.898634 C94.4965738,40.137634 92.1535738,39.345634 90.0005738,39.663634 C90.1085738,37.204634 88.9935738,34.676634 86.8485738,32.805634 C84.4415738,30.705634 81.4015738,29.977634 78.7285738,30.736634 C78.7115738,30.390634 78.6795738,30.053634 78.6125738,29.741634 C77.8245738,26.055634 74.8785738,23.351634 71.2815738,23.013634 C70.5155738,22.940634 69.3455738,22.965634 67.9835738,23.397634 C67.9415738,22.862634 67.8305738,22.351634 67.6325738,21.881634 C66.1655738,18.415634 63.3765738,16.259634 60.1715738,16.112634 C56.6555738,15.951634 53.2715738,18.255634 51.1175738,22.275634 L51.1185738,22.275634 C50.3675738,23.677634 48.1465738,28.579634 51.0665738,32.824634 C52.9585738,35.576634 55.7065738,36.600634 58.6625738,35.760634 C58.3475738,38.714634 59.4055738,41.510634 61.6725738,43.356634 C64.1925738,45.409634 67.5355738,45.693634 70.1635738,44.160634 C70.3295738,47.406634 71.8525738,50.030634 74.4265738,51.399634 C76.5055738,52.505634 78.8165738,52.631634 81.1115738,51.761634 C81.4095738,51.648634 81.7005738,51.495634 81.9915738,51.350634 C82.2025738,52.655634 82.7255738,53.853634 83.5685738,54.861634 C85.0255738,56.600634 87.3075738,57.462634 89.6705738,57.166634 C91.1065738,56.986634 92.4805738,56.404634 93.7295738,55.475634 C95.3005738,54.304634 96.6705738,52.583634 97.7095738,50.421634 C99.1085738,47.507634 98.5435738,44.241634 96.2325738,41.898634" id="Fill-17" fill="#141414"/>
                            <path d="M78.7163738,87.217334 C72.9003738,81.928334 65.3693738,83.993334 61.4883738,86.026334 C55.4923738,75.289334 44.7973738,70.240334 41.5793738,69.188334 C36.6743738,67.584334 26.5773738,72.279334 34.8653738,80.039334 C41.2913738,86.056334 46.0273738,88.673334 48.9983738,95.656334 L59.5543738,94.983334 C59.9073738,96.113334 60.3293738,97.224334 60.7813738,98.204334 C66.9713738,111.591334 84.2963738,104.621334 86.4873738,98.579334 C87.6593738,95.344334 84.7513738,92.706334 78.7163738,87.217334" id="SKIN" fill="#FFF"/>
                            <path d="M84.5776738,89.988834 C85.3956738,91.087834 86.1246738,92.165834 86.8006738,93.458834 C87.1576738,94.139834 86.8926738,94.972834 86.2126738,95.330834 C85.5626738,95.664834 84.7676738,95.433834 84.3936738,94.814834 L84.3486738,94.736834 C83.1506738,92.759834 81.5316738,90.786834 79.7366738,89.230834 C77.9556738,87.626834 75.9016738,86.375834 73.7286738,85.650834 C72.6396738,85.276834 71.5156738,85.040834 70.4706738,85.009834 C69.3906738,84.965834 68.2786738,85.095834 67.1716738,85.384834 C66.0946738,85.662834 65.0076738,86.060834 63.9656738,86.537834 C64.4126738,87.538834 64.8056738,88.568834 65.1506738,89.619834 C65.4266738,90.474834 64.9616738,91.406834 64.0986738,91.687834 C63.2516738,91.957834 62.3326738,91.493834 62.0416738,90.651834 C61.7506738,89.807834 61.4276738,88.988834 61.0676738,88.171834 C60.4926738,86.879834 59.8326738,85.625834 59.0886738,84.408834 C57.3066738,81.496834 55.0626738,78.853834 52.5036738,76.571834 C50.3676738,74.657834 47.9866738,72.951834 45.4996738,71.737834 C44.8916738,71.441834 44.2596738,71.177834 43.7096738,71.025834 C43.2226738,70.889834 42.5736738,70.823834 41.9396738,70.809834 C40.6476738,70.799834 39.2836738,70.992834 38.0156738,71.350834 C36.7576738,71.701834 35.5476738,72.253834 34.7426738,72.965834 C34.3496738,73.307834 34.0886738,73.677834 33.9616738,74.008834 C33.8426738,74.334834 33.8236738,74.659834 33.9266738,75.082834 C34.1256738,75.919834 34.8996738,76.975834 35.8306738,77.890834 C36.0676738,78.125834 36.3206738,78.348834 36.5736738,78.571834 L37.4116738,79.294834 L39.1186738,80.716834 C41.3986738,82.621834 43.8896738,84.493834 46.0756738,86.993834 C47.1516738,88.237834 48.1206738,89.622834 48.8996738,91.086834 C49.6656738,92.549834 50.2656738,94.059834 50.7866738,95.579834 C51.1676738,96.692834 50.5776738,97.892834 49.4646738,98.272834 C48.3566738,98.660834 47.1426738,98.069834 46.7626738,96.955834 L46.7646738,96.941834 L46.7366738,96.887834 C46.3036738,95.551834 45.7996738,94.256834 45.1826738,93.044834 C44.5616738,91.824834 43.8146738,90.721834 42.9386738,89.678834 C41.1786738,87.598834 38.8656738,85.766834 36.5446738,83.805834 L34.8056738,82.307834 L33.9376738,81.544834 C33.6356738,81.271834 33.3346738,80.984834 33.0346738,80.683834 C31.8836738,79.471834 30.6716738,78.079834 30.1426738,75.979834 C29.8886738,74.934834 29.9286738,73.682834 30.3636738,72.610834 C30.7936738,71.530834 31.5026738,70.690834 32.2446738,70.062834 C33.7506738,68.803834 35.3876738,68.171834 37.0186738,67.716834 C38.6536738,67.284834 40.3016738,67.067834 42.0246738,67.105834 C42.8926738,67.132834 43.7526738,67.215834 44.7196738,67.492834 C45.6166738,67.759834 46.3676738,68.098834 47.1056738,68.470834 C50.0136738,69.946834 52.5386738,71.830834 54.8636738,73.964834 C57.6846738,76.564834 60.1666738,79.578834 62.1096738,82.906834 C62.1696738,82.887834 62.2316738,82.853834 62.2916738,82.833834 C63.5836738,82.308834 64.9326738,81.876834 66.3406738,81.589834 C67.7386738,81.307834 69.2076738,81.186834 70.6966738,81.312834 C72.2206738,81.448834 73.6156738,81.831834 74.9256738,82.352834 C77.5906738,83.384834 79.9326738,85.007834 81.8746738,86.927834 C82.8646738,87.872834 83.7656738,88.898834 84.5776738,89.988834" id="Fill-21" fill="#141414"/>
                        </g>
                        <path d="M380.1463,160.2547 C380.1463,160.2547 378.0233,151.7657 369.7863,139.9707 C334.2913,89.1447 220.3633,85.6387 170.5863,127.5477 C119.4703,170.5827 91.5873,296.9297 64.0003,488.6947 C125.4453,507.9757 144.8673,510.9717 144.8673,510.9717 C158.7143,471.4237 171.2283,431.5417 181.6863,393.6927 C247.7163,391.8187 408.547,393.6927 420,393.6927 C416.139,368.2507 411.4693,338.9557 406.9533,309.4317 C426.5473,309.3517 460.6933,305.8437 475.1953,272.3187 C497.3903,221.0057 466.5573,131.9887 466.5573,131.9887 L380.1463,160.2547 Z" id="T-Shirt" fill="#ffc81a"/>
                        <path d="M349.8347,389.2968 C349.8347,389.2968 352.2257,156.1408 296.8227,105.9798 C281.5737,107.5848 245.3757,105.1328 245.3757,105.1328 C245.3757,105.1328 267.8567,144.1048 269.5947,245.0068 C271.3937,349.4348 266.6757,390.1698 266.6757,390.1698 L349.8347,389.2968 Z" id="BG" fill="#FFF"/>
                        <path d="M268.8865,389.1463 C269.2275,385.4643 269.9035,376.1803 270.5385,362.6093 C276.3945,363.2773 282.2095,363.7133 288.0635,364.0353 C294.7595,364.4133 301.4665,364.5873 308.1925,364.6173 C311.5515,364.6513 314.9225,364.5613 318.2915,364.5163 C321.6655,364.3883 325.0405,364.2963 328.4265,364.0533 C334.7695,363.6373 341.1245,363.0363 347.5515,361.8303 C347.8305,374.4813 347.8515,385.3583 347.8435,389.1463 L268.8865,389.1463 Z M314.3655,135.9613 C310.8205,137.4003 307.1595,138.6113 303.3555,139.5913 C302.2395,139.8313 301.1345,140.1003 300.0305,140.3703 L296.6375,141.0013 C295.5205,141.2543 294.3555,141.3843 293.2105,141.5663 L291.4875,141.8243 L289.7445,142.0313 C285.1035,142.6223 280.3735,142.9483 275.5955,143.1613 C273.2055,143.2473 270.8055,143.3423 268.3845,143.3883 L264.7175,143.4703 L262.8185,143.5213 L260.5585,143.6233 L260.5595,143.7013 C255.9885,124.1753 251.2005,112.5513 248.7465,107.3503 C258.0345,107.9083 283.2085,109.2323 296.1255,108.0573 C303.1045,114.6143 309.1415,124.2193 314.3655,135.9613 Z M289.4435,324.7283 C295.7645,324.9523 302.0905,325.0083 308.4255,324.9633 C311.5925,324.9483 314.7615,324.8513 317.9335,324.7793 C321.1055,324.6503 324.2805,324.5443 327.4595,324.3313 C333.6575,323.9473 339.8645,323.4053 346.1145,322.4173 C346.5825,331.6283 346.9245,340.2343 347.1745,348.0083 C340.8555,348.1733 334.3705,348.2173 327.8765,348.2643 L308.2185,348.2903 L288.4505,348.3283 C282.6765,348.3583 276.8645,348.4203 271.1005,348.5883 C271.3475,341.3233 271.5655,333.0363 271.7255,323.6793 C277.6495,324.2233 283.5315,324.5273 289.4435,324.7283 Z M326.0205,273.9313 C319.8815,273.9343 313.7135,273.9963 307.5465,274.1863 C301.3755,274.3673 295.1905,274.6063 289.0005,274.9823 C283.3295,275.3613 277.6235,275.7913 271.9605,276.5193 C271.9255,270.3163 271.8655,263.8293 271.7775,257.0563 C277.5295,257.7853 283.1685,258.1743 288.8895,258.4103 C295.0005,258.6693 301.1245,258.6843 307.2755,258.4843 C308.8105,258.4623 310.3485,258.3693 311.8905,258.2773 C313.4325,258.1813 314.9685,258.1173 316.5145,257.9943 C319.6015,257.7153 322.6935,257.4593 325.7955,257.0123 C330.7495,256.3313 335.7235,255.4623 340.7155,254.0393 C341.4705,260.8243 342.1465,267.5793 342.7505,274.2453 C337.1855,274.0073 331.6115,273.9393 326.0205,273.9313 Z M326.9015,307.6773 L317.5695,307.7433 L308.2165,307.8703 C301.9755,307.9893 295.7245,308.0873 289.4695,308.2953 C283.6225,308.4743 277.7465,308.7033 271.9145,309.0843 C271.9715,302.7853 272.0015,296.0833 271.9985,288.9683 C277.7045,289.8253 283.3715,290.2773 289.0725,290.6053 C295.3615,290.9153 301.6555,291.0113 307.9605,290.8673 C314.2675,290.7213 320.5745,290.3873 326.8945,289.6693 C332.5355,289.0233 338.1895,288.1813 343.8115,286.7583 C344.3785,293.9133 344.8655,300.9143 345.2855,307.6863 C339.2095,307.6313 333.0605,307.6343 326.9015,307.6773 Z M302.8635,224.8243 C308.7365,224.3203 314.6065,223.6963 320.4865,222.6793 C325.6855,221.7903 330.8915,220.7093 336.0735,219.0893 C337.1535,225.9673 338.1345,232.9203 339.0255,239.8853 C334.2235,240.5043 329.2265,240.9343 324.1905,241.2963 L319.8555,241.5773 L315.4895,241.7943 C312.5685,241.9423 309.6485,242.0763 306.7055,242.1673 C300.8345,242.4113 294.9265,242.5303 289.0075,242.6993 C283.2035,242.8483 277.3055,242.9963 271.5595,243.2443 C271.4395,237.1133 271.2455,231.2083 270.9835,225.5353 C275.7695,225.7533 280.4955,225.7753 285.2625,225.6943 C291.1285,225.5953 296.9905,225.3023 302.8635,224.8243 Z M263.1755,155.9663 L264.0935,156.0833 C265.3455,156.2483 266.6335,156.3603 267.9145,156.4953 C270.4875,156.7193 273.0835,156.8853 275.6905,156.9503 C280.9055,157.1083 286.1715,156.8783 291.4505,156.2583 C296.7245,155.5993 302.0205,154.6343 307.2195,152.9063 C311.2755,151.5683 315.2805,149.8443 319.0445,147.6023 C321.6225,154.6913 323.9695,162.3353 326.1075,170.3843 C321.6975,171.1493 317.3385,172.0543 313.0875,172.9003 C308.0525,173.9093 303.1555,174.7533 298.0555,175.4793 L282.5585,177.6783 C277.4065,178.4393 272.2355,179.2483 267.0905,180.2753 C265.9135,171.2983 264.5805,163.2153 263.1755,155.9663 Z M284.1155,191.3793 C289.4165,190.9613 294.7155,190.4093 300.0985,189.6613 C302.7855,189.2993 305.4995,188.8023 308.2115,188.2973 C310.9095,187.7173 313.6175,187.1293 316.2365,186.4023 C320.6435,185.2283 324.8925,183.9013 329.0915,182.4463 C330.9155,190.3633 332.5635,198.5763 334.0505,206.9653 C328.9965,207.7343 323.8065,208.3643 318.5835,208.9453 L314.3815,209.3913 L310.1545,209.7823 C307.3365,210.0683 304.5065,210.3013 301.6715,210.5443 C296.0045,211.0533 290.3055,211.4563 284.6045,211.9213 C279.8385,212.2933 275.0335,212.6823 270.2835,213.1143 C269.7925,205.7343 269.1905,198.7733 268.4995,192.2283 C273.7175,192.1153 278.9095,191.7973 284.1155,191.3793 Z M298.1655,104.4973 C297.7435,104.1153 297.1775,103.9273 296.6135,103.9913 C281.7115,105.5593 245.8715,103.1623 245.5105,103.1373 C244.7755,103.0893 244.0725,103.4483 243.6805,104.0743 C243.2895,104.6993 243.2755,105.4903 243.6425,106.1303 C243.8645,106.5183 265.8885,146.0043 267.5955,245.0413 C269.3695,348.0733 264.7365,390.5333 264.6895,390.9403 C264.6235,391.5103 264.8055,392.0823 265.1895,392.5073 C265.5695,392.9293 266.1095,393.1703 266.6765,393.1703 L266.6975,393.1703 L349.8555,393.1703 C350.9445,393.1593 351.8225,391.4053 351.8345,390.3173 C351.8405,389.7333 352.3615,330.1803 346.0955,266.2543 C337.6475,180.0663 321.5215,125.6443 298.1655,104.4973 Z" id="Strip" fill="#141414"/>
                        <g id="neck" transform="translate(241.773897, 64.640976)">
                            <path d="M5.76640257,2.00062353 L2.00040257,37.1636235 C2.00040257,37.1636235 9.42740257,53.2606235 32.2114026,54.3636235 C62.9494026,55.8506235 54.5164026,36.8056235 54.5164026,36.8056235 L53.6614026,5.04862353" id="SKIN" fill="#FFF"/>
                            <path d="M35.4861026,56.4454235 C34.4011026,56.4454235 33.2771026,56.4174235 32.1141026,56.3614235 C8.39210257,55.2134235 0.508102571,38.7044235 0.184102571,38.0024235 C0.0331025707,37.6744235 -0.0268974293,37.3104235 0.0111025707,36.9514235 L3.77810257,1.78742353 C3.89510257,0.689423529 4.88710257,-0.105576471 5.97910257,0.011423529 C7.07710257,0.129423529 7.87310257,1.11542353 7.75510257,2.21342353 L4.05210257,36.7874235 C5.44110257,39.3624235 12.9611026,51.4294235 32.3081026,52.3654235 C42.5591026,52.8584235 49.4241026,51.0294235 52.1631026,47.0674235 C54.9731026,43.0034235 52.7081026,37.6614235 52.6851026,37.6084235 C52.5831026,37.3734235 52.5241026,37.1144235 52.5171026,36.8594235 L51.6621026,5.10342353 C51.6321026,3.99942353 52.5031026,3.07942353 53.6081026,3.05042353 C54.7031026,3.00842353 55.6311026,3.89142353 55.6611026,4.99542353 L56.5061026,36.3934235 C57.1181026,38.0064235 59.0441026,44.1064235 55.4781026,49.3064235 C52.2251026,54.0494235 45.5071026,56.4454235 35.4861026,56.4454235" id="Fill-32" fill="#141414"/>
                        </g>
                    </g>
                </g>
                <g id="Head" transform="translate(439.000000, 92.000000) scale(1 1)">
                    <g id="Head/Short Hair 5" stroke="none" stroke-width="1" fill="none" fill-rule="evenodd">
                        <g id="Short-Hair" transform="translate(14.999828, 16.000363)">
                            <path d="M133.167572,80.6125368 C121.721572,30.4535368 89.1205715,26.8325368 65.5025715,31.1265368 C46.6795715,34.5485368 28.4005715,50.7315368 30.5325715,82.0385368 C23.8885715,75.6435368 14.4395715,79.5395368 12.6755715,86.8775368 C10.6175715,95.4445368 16.0515715,114.901537 30.0035715,112.438537 C31.3475715,135.433537 50.3535715,169.120537 88.0575715,168.811537 C129.127572,168.475537 143.312572,125.071537 133.167572,80.6125368" id="SKIN" fill="#FFF"/>
                            <path d="M59.2021715,16.8730368 C72.6571715,-1.85696315 88.7151715,-3.94896315 95.9601715,5.47003685 C101.812172,13.0770368 103.476172,13.9980368 109.352172,9.51803685 C124.490172,-2.02296315 132.759172,8.58203685 133.715172,23.3050368 C146.157172,26.0970368 144.453172,42.2910368 134.167172,50.9540368 C139.239172,59.4570368 142.399172,84.6710368 137.503172,93.9360368 C140.331172,117.903037 135.816172,139.567037 124.708172,153.612037 C98.8031715,186.344037 46.8871715,168.043037 34.4371715,136.163037 C22.4061715,132.155037 -2.3468285,104.936037 11.0071715,57.2830368 C9.0901715,55.5020368 -1.7188285,59.4600368 0.235171502,55.6050368 C0.796171502,54.4990368 9.3641715,52.4560368 12.0091715,51.6680368 C12.2451715,51.0920368 8.1021715,22.8720368 15.6091715,42.8330368 C34.5871715,14.6810368 48.2831715,32.0740368 59.2021715,16.8730368 Z M90.3541715,51.8730368 C84.3091715,49.4770368 76.7281715,59.9970368 60.4171715,56.9560368 C40.8431715,53.3060368 40.2791715,64.0550368 42.6811715,76.2180368 C46.3741715,94.9190368 33.6221715,89.1130368 29.6631715,83.8360368 C27.0371715,81.4670368 23.8511715,80.1150368 20.5891715,81.1500368 C10.2141715,84.8490368 13.9531715,99.8290368 20.0471715,107.166037 C24.5081715,113.056037 31.0401715,108.257037 31.9991715,112.321037 C39.1231715,182.435037 135.725172,188.722037 134.331172,108.610037 C134.471172,91.3660368 130.192172,70.3870368 121.872172,56.1410368 C112.664172,57.7860368 101.360172,56.2370368 90.3541715,51.8730368 Z M23.3804715,89.7820368 C24.4554715,89.6070368 25.9104715,90.2950368 26.3294715,92.8720368 C26.7494715,95.4490368 25.8174715,97.9800368 24.7424715,98.1550368 C23.6674715,98.3290368 22.4554715,96.3820368 22.0364715,93.8050368 C21.6174715,91.2280368 22.3054715,89.9570368 23.3804715,89.7820368 Z" id="ink" fill="#141414"/>
                        </g>
                    </g>
                </g>
                <g id="Face" transform="translate(499.000000, 178.000000) scale(1 1)">
                    <g id="Face/Love Face" stroke="none" stroke-width="1" fill="none" fill-rule="evenodd">
                        <g id="Love-Face" transform="translate(6.000576, 9.999600)">
                            <path d="M59.9193239,51.6179 C61.3413239,51.3349 62.6423239,51.8349 63.4013239,52.9499 C66.4813239,60.0089 56.7223239,71.5089 42.7043239,71.4439 C33.3903239,71.9309 22.7823239,65.9679 22.3023239,59.5469 C21.8643239,56.7729 22.9723239,54.3289 25.1913239,53.1689 C25.7223239,52.8899 25.8973239,52.9009 27.5093239,53.0209 C30.2833239,53.2229 36.7893239,53.6999 43.1823239,53.4719 C51.7173239,53.1719 59.8413239,51.6319 59.9193239,51.6179 Z M54.8443239,63.5239 C51.5413239,57.7579 32.7853239,58.1429 31.6493239,65.0079 C33.3223239,65.8839 35.3743239,66.5999 37.8283239,67.0159 C46.2453239,68.4379 51.6973239,65.9419 54.8443239,63.5239 Z M42.9670239,18.803 C43.5349785,23.3705 43.6245756,28.3225083 45.0579222,32.66839 L45.146,32.924 L45.2464925,32.9614984 C55.7970235,36.968642 53.1549239,48.70326 41.2920239,46.805 C37.4420239,46.277 37.7240239,42.34 41.7290239,43.508 L42.075352,43.5087493 C43.8929887,43.5153008 46.9252739,43.5216875 47.7840239,41.627 C48.0690239,40.615 47.9570239,39.485 47.0770239,38.733 C46.0470239,37.648 43.6300239,36.85 42.2270239,35.622 C39.8290239,30.431 40.4680239,24.49 40.1500239,18.92 C40.1090239,17.16 42.8660239,17.038 42.9670239,18.803 Z M21.9464239,3.6324 C22.2004239,5.2704 21.0774239,6.8044 19.4394239,7.0584 C14.7024239,7.5034 10.2734239,8.1034 6.3864239,10.6814 C5.1604239,11.5064 4.0084239,12.4654 2.7794239,13.4594 C1.4244239,14.6324 -0.655576095,12.9114 0.200423905,11.3704 C3.6574239,4.8554 11.7614239,2.0574 18.5144239,1.1264 C20.1544239,0.8684 21.6924239,1.9914 21.9464239,3.6324 Z M55.2809239,-6.03961325e-14 C62.4779239,0.558 71.3929239,2.833 74.1939239,10.364 C75.0619239,12.413 72.0269239,13.99 70.8439239,12.135 C68.3269239,8.323 64.6419239,6.478 60.2139239,6.304 C57.4659239,5.915 52.6459239,7.416 52.3109239,3.294 C52.2219239,1.565 53.5509239,0.09 55.2809239,-6.03961325e-14 Z" id="face" fill="#141414"/>
                            <path d="M26.3371511,14.5447616 C34.1014155,19.0807561 23.6535471,34.4345474 22.173705,35.3753942 C20.6938629,36.3136527 6.68835461,30.3812708 6.19638235,23.1029732 C5.75413069,16.5623409 13.7512968,14.9537129 16.2491028,16.6982266 C16.2491028,16.6982266 20.6454507,11.218797 26.3371511,14.5447616 Z M58.4191209,12.4883841 C58.4191209,12.4883841 63.6347778,9.37758444 67.1420259,14.6278323 C71.9250814,21.7873737 58.6989675,31.253411 57.0467726,31.4699543 C55.3957997,31.6864977 45.0219217,21.4248183 47.5833127,14.8468504 C49.8856317,8.93707342 56.996669,9.93564755 58.4191209,12.4883841 Z" id="love" fill="#ffc81a"/>
                        </g>
                    </g>
                </g>
                <g id="Accessories" transform="translate(491.000000, 176.000000) scale(1 1)" fill="#000">
                    <g id="Accessories/None" stroke="none" stroke-width="1" fill="none" fill-rule="evenodd" fill-opacity="0"/>
                </g>
                <g id="Facial Hair" transform="translate(501.000000, 234.000000) scale(1 1)" fill="#000">
                    <g id="Facial Hair/French Beard" stroke="none" stroke-width="1" fill="none" fill-rule="evenodd">
                        <path d="M52.9657,23.5962824 C51.5857,18.5782824 49.2897,20.9822824 48.6157,24.6202824 C48.0147,27.8672824 47.2167,30.2412824 39.8327,29.6042824 C35.9447,29.2692824 27.0677,25.5862824 27.8937,11.8282824 C30.9970774,10.8587741 38.0845153,10.8587741 46.8408735,10.7673395 C55.813708,10.6736445 66.4972468,7.92096048 68.2757,9.48128245 C69.6977,15.7632824 68.1447,27.0792824 61.4077,27.8882824 C58.1297,28.2822824 54.4477,28.9872824 52.9657,23.5962824 Z M48.9367,-0.929717555 C23.2057,-0.346717555 22.1337,8.24428245 21.0177,15.8292824 C19.8327,23.8892824 19.4777,35.6992824 21.0757,40.7312824 C22.3787,44.8332824 33.0097,53.3782824 50.1667,52.6632824 C67.3237,51.9482824 73.3207,48.2352824 76.3957,42.0842824 C78.5697,37.7372824 76.0247,11.6882824 75.6677,8.82828245 C75.3097,5.96928245 72.5477,-1.46471755 48.9367,-0.929717555 Z" id="French-Beard" fill="#141414"/>
                    </g>
                </g>
            </g>
        </g>
        <g transform="translate(368.000000, 338.000000) scale(1 1)" id="Master/Character/Standing">
            <g id="Master/Character/Standing" stroke="none" stroke-width="1" fill="none" fill-rule="evenodd">
                <g id="Lower Body" transform="translate(0.000000, 569.000000) scale(1 1)">
                    <g id="Lower Body/Jump" stroke="none" stroke-width="1" fill="none" fill-rule="evenodd">
                        <g id="Assets-52" transform="translate(-18.999768, 118.990295)">
                            <polygon id="SKIN" fill="#FFF" points="164.848568 41.1353336 109.744568 28.5883336 76.6825683 95.2213336 159.253568 117.262334"/>
                            <path d="M74.5775683,95.4908336 C74.6015683,95.4268336 74.6305683,95.3628336 74.6605683,95.3008336 L107.643568,27.4488336 C108.077568,26.5728336 109.053568,26.1068336 110.007568,26.3168336 L165.096568,38.4778336 C166.243568,38.7308336 166.967568,39.8668336 166.714568,41.0128336 C166.453568,42.1598336 165.325568,42.8838336 164.179568,42.6318336 L110.714568,30.8288336 L79.7765683,94.5568336 L160.324568,115.158834 C161.487568,115.324834 162.294568,116.402834 162.128568,117.564834 C161.961568,118.731834 160.882568,119.535834 159.722568,119.368834 L76.2645683,98.3498336 C75.5885683,98.2538336 75.0005683,97.8388336 74.6835683,97.2348336 C74.3985683,96.6928336 74.3625683,96.0578336 74.5775683,95.4908336" id="Fill-2" fill="#141414"/>
                            <path d="M120.777768,29.0074336 C121.532768,29.7364336 121.594768,30.9234336 120.922768,31.7284336 C120.280768,32.4944336 119.455768,33.4564336 118.483768,34.5894336 C112.526768,41.5294336 100.131768,55.9724336 91.3327683,71.3424336 C91.3247683,71.3564336 91.3177683,71.3684336 91.3097683,71.3824336 C86.1337683,80.4414336 84.0607683,89.8234336 85.4717683,97.8044336 C85.5837683,98.4384336 85.3817683,99.0864336 84.9327683,99.5504336 C62.9807683,122.017434 47.1197683,138.248434 29.6197683,146.995434 C26.5437683,148.532434 14.1947683,153.358434 9.96476833,148.886434 C8.00976833,146.819434 8.26876833,143.582434 10.7347683,139.267434 C19.7357683,123.513434 39.0417683,89.5224336 56.0737683,59.5314336 C69.8557683,35.2664336 81.7577683,14.3104336 86.2597683,6.43143356 C86.7357683,5.59943356 87.5417683,5.06343356 88.5307683,4.92243356 C94.2947683,4.10043356 113.002768,21.4914336 120.777768,29.0074336" id="Fill-4" fill="#ff4b33"/>
                            <path d="M78.4315683,2.37953356 L0.622568327,138.553534 C-0.670431673,140.816534 0.115568327,143.698534 2.37856833,144.991534 L3.73256833,145.766534 C5.99556833,147.059534 8.87856833,146.273534 10.1715683,144.009534 L87.9805683,7.83553356 C89.2735683,5.57253356 88.4875683,2.69053356 86.2245683,1.39753356 L84.8705683,0.62253356 C82.6075683,-0.67046644 79.7245683,0.11553356 78.4315683,2.37953356" id="Fill-6" fill="#141414"/>
                            <path d="M53.1180683,117.248634 C52.7230683,117.938634 52.7340683,118.822634 53.2180683,119.519634 C57.6470683,125.893634 52.9770683,130.608634 52.4280683,131.124634 C51.5790683,131.927634 51.5320683,133.269634 52.3280683,134.126634 C53.1260683,134.980634 54.4600683,135.036634 55.3200683,134.243634 C58.1260683,131.659634 62.0280683,124.746634 56.7100683,117.092634 C56.0390683,116.127634 54.7150683,115.889634 53.7500683,116.559634 C53.4820683,116.745634 53.2700683,116.982634 53.1180683,117.248634" id="Fill-8" fill="#141414"/>
                            <path d="M66.8826683,103.484034 C66.4876683,104.173034 66.4986683,105.057034 66.9826683,105.754034 C71.4116683,112.129034 66.7416683,116.843034 66.1936683,117.359034 C65.3426683,118.162034 65.2966683,119.505034 66.0926683,120.360034 C66.8916683,121.215034 68.2256683,121.270034 69.0856683,120.478034 C71.8916683,117.890034 75.7926683,110.978034 70.4746683,103.327034 C69.8046683,102.362034 68.4796683,102.124034 67.5146683,102.794034 C67.2466683,102.980034 67.0346683,103.217034 66.8826683,103.484034" id="Fill-10" fill="#141414"/>
                        </g>
                        <g id="Assets-53" transform="translate(963.407500, 297.340528)">
                            <polygon id="SKIN" fill="#FFF" points="36.515 1.27897692e-13 105.729 60.495 48.505 104.912 1.13686838e-13 68.125"/>
                            <path d="M107.9154,62.0634 C107.8664,62.1124 107.8144,62.1584 107.7604,62.2024 L50.3734,106.5654 C49.6134,107.1804 48.5324,107.1994 47.7534,106.6104 L2.7254,72.6214 C1.7884,71.9144 1.6024,70.5804 2.3104,69.6424 C3.0234,68.7094 4.3514,68.5204 5.2884,69.2264 L48.9874,102.2124 L102.8004,60.7484 L38.9824,4.8854 C37.9944,4.2514 37.7104,2.9344 38.3454,1.9474 C38.9824,0.9554 40.2974,0.6734 41.2834,1.3084 L107.5714,58.7614 C108.1454,59.1304 108.5084,59.7524 108.5454,60.4334 C108.5784,61.0444 108.3474,61.6374 107.9154,62.0634" id="Fill-14" fill="#141414"/>
                            <path d="M39.6839,101.2197 C39.3009,100.2427 39.7389,99.1377 40.6849,98.6857 C41.5879,98.2547 42.7379,97.7247 44.0939,97.0997 C52.3989,93.2677 69.6809,85.2957 84.0799,74.9837 C84.0919,74.9737 84.1039,74.9657 84.1169,74.9557 C92.5939,68.8737 98.3849,61.2057 100.4229,53.3627 C100.5849,52.7397 101.0379,52.2347 101.6399,51.9987 C130.9519,40.7097 152.1299,32.5527 171.6829,31.8837 C175.1199,31.7677 188.3559,32.5207 190.3399,38.3467 C191.2569,41.0407 189.6749,43.8747 185.6369,46.7727 C170.8949,57.3497 139.1919,80.2197 111.2219,100.3987 C88.5899,116.7257 69.0439,130.8247 61.6719,136.1157 C60.8939,136.6737 59.9369,136.8247 58.9789,136.5417 C53.3959,134.8897 43.6249,111.2897 39.6839,101.2197" id="Fill-16" fill="#ff4b33"/>
                            <path d="M67.1029,143.0576 L194.5349,51.6306 C196.6519,50.1116 197.1369,47.1626 195.6179,45.0456 L194.7079,43.7786 C193.1889,41.6606 190.2409,41.1756 188.1239,42.6946 L60.6919,134.1216 C58.5739,135.6416 58.0889,138.5896 59.6079,140.7066 L60.5179,141.9746 C62.0369,144.0926 64.9859,144.5776 67.1029,143.0576" id="Fill-18" fill="#141414"/>
                            <path d="M137.9349,49.1504 C138.5809,48.6864 138.9399,47.8794 138.7889,47.0454 C137.4149,39.4054 143.6239,37.0614 144.3379,36.8214 C145.4449,36.4444 146.0459,35.2434 145.6779,34.1324 C145.3089,33.0234 144.1189,32.4184 143.0059,32.7814 C139.3789,33.9624 132.9539,38.6244 134.6039,47.7974 C134.8119,48.9544 135.9159,49.7214 137.0729,49.5144 C137.3939,49.4564 137.6859,49.3294 137.9349,49.1504" id="Fill-21" fill="#141414"/>
                            <path d="M119.6898,55.9365 C120.3358,55.4725 120.6938,54.6655 120.5438,53.8315 C119.1698,46.1915 125.3788,43.8475 126.0918,43.6075 C127.1998,43.2315 127.8008,42.0295 127.4318,40.9195 C127.0628,39.8105 125.8728,39.2055 124.7608,39.5675 C121.1308,40.7515 114.7088,45.4135 116.3578,54.5835 C116.5658,55.7405 117.6708,56.5085 118.8278,56.2995 C119.1488,56.2425 119.4408,56.1155 119.6898,55.9365" id="Fill-23" fill="#141414"/>
                        </g>
                        <g id="Pant" transform="translate(104.894430, -3.212672)">
                            <path d="M717.06127,86.518 C654.11227,41.791 539.18927,0 539.18927,0 C539.18927,0 363.66327,2.98 324.44027,2.98 C319.01027,53.566 307.77627,114.851 284.39827,133.172 C248.87927,161.01 68.94627,157.705 37.93727,154.545 C31.39127,165.456 -7.40072998,255.66 1.25227002,327.479 C13.77627,344.821 338.19927,324.41 402.94327,279.407 C444.15227,250.762 464.06427,219.714 478.51227,179.134 C482.64127,166.183 486.43527,153.103 490.05127,139.973 C493.92927,125.828 497.64227,111.618 501.13927,97.381 L501.14227,97.371 C501.37727,96.411 502.34627,95.825 503.30627,96.06 C504.26027,96.294 504.84627,97.255 504.61927,98.21 C501.21727,112.532 497.61227,126.779 493.83127,140.997 C492.58127,145.672 491.30027,150.339 490.00027,155.003 C518.16027,168.072 587.83027,192.37 623.00827,224.734 C689.94827,286.319 795.27527,420.569 804.71927,424.616 C869.61627,396.927 900.74527,329.401 915.13327,302.837 C908.43927,287.839 792.08027,139.821 717.06127,86.518" id="Fill-25" fill="#141414"/>
                            <path d="M500.65847,108.2088 C500.99447,107.0828 502.17947,106.4428 503.30547,106.7788 C512.45647,109.5118 521.53347,112.3658 530.59747,115.3178 C539.65847,118.2668 548.69147,121.3058 557.67447,124.4998 C575.63847,130.8848 593.50647,137.6228 610.77347,146.0398 C615.04847,148.2538 619.33947,150.4278 623.42747,153.1308 C625.55347,154.3478 627.41147,155.9018 629.34547,157.3608 L629.34547,157.3608 L632.22847,159.5708 C633.18247,160.3128 634.06347,161.1138 634.98447,161.8818 L634.98447,161.8818 L640.45147,166.5388 C642.29347,168.0738 644.01347,169.7178 645.80047,171.3018 C649.34047,174.5028 652.90747,177.6758 656.35547,180.9628 C670.32547,193.9368 683.89047,207.2998 697.39847,220.7178 C724.34347,247.6248 750.79047,275.0088 776.84547,302.7648 C802.85147,330.5658 828.49747,358.7128 853.22047,387.6928 C853.75047,388.3138 853.67647,389.2478 853.05547,389.7768 C852.43447,390.3058 851.50147,390.2328 850.97247,389.6118 L850.97247,389.6118 C826.18547,360.7898 800.45147,332.7698 774.36147,305.1018 C748.22247,277.4778 721.68747,250.2208 694.67547,223.4618 C681.13647,210.1198 667.53647,196.8288 653.57347,183.9638 C650.12047,180.7008 646.56847,177.5638 643.03847,174.3988 C641.26147,172.8358 639.53347,171.1978 637.71447,169.6948 L637.71447,169.6948 L632.30047,165.1218 C631.39347,164.3698 630.50847,163.5728 629.58247,162.8588 L629.58247,162.8588 L626.79347,160.7408 C624.92647,159.3418 623.11947,157.8428 621.10547,156.6948 C617.25247,154.1418 613.04547,152.0058 608.87847,149.8468 C591.92847,141.5828 574.13047,134.8598 556.25547,128.5088 C547.31247,125.3308 538.31147,122.3018 529.28147,119.3618 C520.25547,116.4218 511.18247,113.5708 502.10347,110.8588 L502.10347,110.8588 L502.08847,110.8538 C500.96247,110.5178 500.32347,109.3338 500.65847,108.2088 Z M374.70517,32.2127719 C375.87417,32.2127719 376.82517,33.1567719 376.83117,34.3277719 C376.83617,35.1937719 376.86717,55.8737719 369.99017,83.4037719 C369.47617,85.4607719 368.90917,87.5927719 368.29417,89.7787719 C387.93617,91.6087719 410.63217,74.7507719 416.57017,38.5277719 C416.76017,37.3687719 417.85017,36.5827719 419.01317,36.7727719 C420.17217,36.9627719 420.95717,38.0567719 420.76717,39.2157719 C416.15617,67.3447719 398.01917,94.2137719 371.71017,94.2137719 C370.19417,94.2137719 368.65217,94.1237719 367.08217,93.9407719 C359.75517,118.200772 346.05317,148.643772 320.58217,172.733772 C295.43017,196.521772 236.97317,209.512772 146.83517,211.344772 C139.63317,211.491772 132.50317,211.556772 125.51917,211.556772 C67.66617,211.556772 19.56917,207.073772 19.03217,207.022772 C17.86317,206.912772 17.00417,205.874772 17.11517,204.705772 C17.22617,203.536772 18.26717,202.678772 19.43217,202.788772 C21.82517,203.014772 259.34817,224.794772 317.65917,169.643772 C371.26027,118.947392 372.551263,38.4766911 372.577698,34.4969522 L372.57817,34.3497719 C372.57217,33.1757719 373.51917,32.2187719 374.69417,32.2127719 L374.69417,32.2127719 Z" id="line" fill="#FFF" style="mix-blend-mode:soft-light"/>
                        </g>
                    </g>
                </g>
                <g id="Upper Body" transform="translate(272.000000, 187.000000) scale(1 1)">
                    <g id="Upper Body/Holding Document" stroke="none" stroke-width="1" fill="none" fill-rule="evenodd">
                        <g id="hand-1" transform="translate(401.999900, 100.999468)">
                            <path d="M19.092,24.9954324 C21.323,19.1414324 30.848,27.6354324 32.522,39.1524324 C34.409,28.7544324 38.786,3.6064324 46.461,2.0394324 C54.217,0.457432402 53.775,15.5884324 53.775,15.5884324 C56.975,8.5404324 60.338,-0.426567598 65.484,2.3804324 C71.028,5.4054324 66.696,18.6984324 66.696,18.6984324 C71.565,10.7174324 74.06,9.5884324 77.317,11.5504324 C82.53,14.6914324 77.338,26.9314324 77.338,26.9314324 C81.17,22.7434324 88.564,24.0974324 84.097,39.9904324 C79.17,57.5204324 69.797,94.8194324 71.536,135.035432 C71.785,140.780432 34.17,160.770432 4.68958206e-13,160.436432 C14.815,101.080432 16.205,32.5714324 19.092,24.9954324" id="SKIN" fill="#FFF"/>
                            <path d="M1.4358,145.661132 C10.9748,102.082132 13.5398,52.7891324 17.3098,24.3171324 C21.4518,16.8521324 28.6828,23.9471324 32.0948,31.1391324 C35.2798,15.1821324 39.3388,1.5451324 46.0808,0.172132402 C51.2128,-0.968867598 54.1578,3.7681324 55.0058,8.3081324 C59.7118,-3.9228676 71.2728,-2.0878676 70.1588,10.9091324 C72.6468,8.5971324 75.1898,8.0441324 78.2998,9.9171324 C82.5088,12.4531324 81.8128,18.6501324 80.6578,23.0371324 C86.4528,23.0871324 89.2928,27.2451324 85.9328,40.5061324 C77.1298,71.8211324 72.8648,101.412132 73.2538,128.459132 C61.6328,143.288132 77.5968,48.6381324 82.2628,39.4761324 C84.8588,29.8451324 83.5668,24.1821324 78.8968,28.0691324 C78.8968,28.0691324 73.0328,39.6081324 73.0328,39.6081324 C72.2788,41.1361324 69.8838,40.0361324 70.5508,38.4711324 C70.5558,38.4551324 75.5818,26.2041324 75.5828,26.1891324 C77.0618,22.6891324 79.1918,14.9051324 76.3318,13.1831324 C74.8908,12.3141324 73.3978,11.4191324 68.4258,19.5251324 L62.3738,36.7311324 C61.7728,38.5241324 58.9738,37.6061324 59.5458,35.8081324 C60.7508,29.0761324 70.3108,9.1921324 64.5718,4.0541324 C60.4268,2.5691324 57.8868,11.9491324 55.5498,16.2871324 C55.5498,16.2871324 49.8088,33.3081324 49.8088,33.3081324 C49.5618,34.0371324 48.7828,34.4561324 48.0338,34.2441324 C47.2598,34.0251324 46.8098,33.2211324 47.0288,32.4471324 L51.8728,15.3141324 C51.6728,11.4611324 51.6208,3.4181324 46.8428,3.9071324 C40.6118,5.1791324 36.0378,30.4391324 34.5348,38.7391324 C34.7348,40.5501324 35.6718,42.8701324 36.9168,44.1701324 C43.0218,48.2151324 48.6068,55.8601324 46.6968,63.5261324 C46.3818,64.7051324 44.5018,64.3041324 44.7398,63.0781324 C44.8188,62.6271324 45.0208,62.1431324 44.8588,61.7211324 C44.6638,61.2121324 44.1698,51.9441324 37.5738,48.6631324 C35.8188,47.7901324 33.6488,46.9911324 32.7808,45.2161324 C31.6598,43.4001324 31.0488,41.4941324 30.6358,39.4271324 C29.6578,31.6381324 22.9538,22.8921324 20.8728,25.6731324 C17.5988,54.0451324 14.5598,102.850132 5.1658,146.444132 C4.7168,148.826132 0.8748,148.107132 1.4358,145.661132" id="Fill-4" fill="#141414"/>
                        </g>
                        <g id="Assets-108" transform="translate(107.202677, 84.749517)">
                            <path d="M27.0858929,69.068816 C-6.75610715,140.657816 -6.23410715,233.845816 14.0698929,265.508816 C23.5768929,280.336816 43.4698929,285.267816 52.7948929,284.571816 L37.9038929,302.365816 L286.675893,307.365816 C286.675893,307.365816 281.839893,281.978816 280.021893,274.307816 C293.596893,277.669816 309.241893,277.682816 320.209893,268.085816 C355.570893,237.144816 367.657893,154.566816 370.149893,134.449816 C340.120893,126.627816 299.953893,115.170816 299.953893,115.170816 L292.400893,137.684816 C292.400893,137.684816 291.490323,83.3614826 270.797323,51.2504826 C252.601323,23.0144826 227.797323,6.25048255 180.797323,1.25048255 C133.797323,-3.74951745 57.9268929,3.82981597 27.0858929,69.068816 Z" id="t-shirt" fill="#ff4b33"/>
                            <path d="M275.558893,228.352916 L272.644893,205.467916 L269.589893,182.602916 L266.535893,159.737916 C265.481893,152.120916 264.441893,144.501916 263.313893,136.894916 C261.069893,121.679916 258.723893,106.478916 256.058893,91.320916 C255.968893,90.819916 255.506893,90.458916 254.990893,90.509916 C254.448893,90.561916 254.051893,91.044916 254.103893,91.587916 C255.595893,106.905916 257.406893,122.179916 259.319893,137.439916 C260.269893,145.070916 261.308893,152.689916 262.332893,160.310916 L265.513893,183.158916 L268.693893,206.006916 L272.015893,228.835916 C274.215893,244.056916 276.523893,259.263916 278.926893,274.456916 C279.018893,275.038916 279.554893,275.450916 280.144893,275.382916 C280.751893,275.312916 281.186893,274.764916 281.117893,274.158916 C279.363893,258.875916 277.514893,243.606916 275.558893,228.352916" id="Fill-40" fill="#141414"/>
                        </g>
                        <path d="M328.91237,397.571233 L194.41537,382.914233 C190.31337,382.467233 187.35037,378.778233 187.79737,374.675233 L209.28337,177.525233 C209.73037,173.423233 213.41837,170.460233 217.52137,170.906233 L352.01737,185.565233 C356.12037,186.012233 359.08337,189.700233 358.63637,193.802233 L337.14937,390.953233 C336.70337,395.055233 333.01437,398.018233 328.91237,397.571233" id="notebook" fill="#141414"/>
                        <g id="hand-2" transform="translate(229.564070, 216.379433)">
                            <path d="M9.20380059,119.9408 C28.7218006,113.1158 48.4168006,103.2178 67.2878006,91.5968003 C99.0058006,72.0668003 115.336801,55.9728003 121.994801,50.1288003 C124.396801,48.0208003 129.053801,43.1268003 127.574801,39.0388003 C126.519801,36.1238003 122.996801,34.5888003 120.514801,36.4478003 C120.514801,36.4478003 123.897801,34.0928003 125.975801,31.5368003 C127.942801,29.1178003 128.391801,25.9548003 127.049801,23.8998003 C124.981801,20.7328003 121.627801,20.9548003 118.753801,23.0178003 L121.684801,20.4968003 C124.634801,18.2058003 125.821801,14.5598003 123.718801,11.0018003 C122.152801,8.35180029 117.075801,7.85980029 113.705801,9.93680029 C112.491801,10.6858003 108.874801,12.9998003 108.874801,12.9998003 C111.362801,10.9628003 111.401801,6.47580029 109.339801,4.00880029 C107.451801,1.75180029 104.135801,1.23680029 101.709801,2.90480029 C90.5228006,10.5998003 76.9728006,18.3408003 68.4278006,22.9778003 C68.4278006,22.9778003 67.6528006,11.5358003 66.7918006,7.93980029 C65.9898006,4.58980029 60.1588006,0.188800291 57.6578006,5.20180029 C54.2658006,11.9988003 51.0188006,23.5318003 48.3348006,32.2378003 C31.0448006,41.4848003 23.0428006,45.9528003 1.50880059,52.7028003" id="SKIN" fill="#FFF"/>
                            <path d="M129.789701,39.7357003 C129.455701,37.4317003 128.020701,35.4957003 126.037701,34.4257003 C126.033701,34.4237003 126.028701,34.4237003 126.024701,34.4207003 C126.258701,34.1887003 126.493701,33.9637003 126.724701,33.7177003 C127.485701,32.9077003 128.330701,31.8477003 128.867701,30.6737003 C129.425701,29.5067003 129.782701,28.2117003 129.807701,26.8327003 C129.848701,25.4727003 129.495701,23.9547003 128.643701,22.7087003 C127.900701,21.6147003 126.811701,20.5377003 125.382701,19.9777003 C125.257701,19.9267003 125.126701,19.9037003 124.998701,19.8617003 C125.358701,19.3677003 125.691701,18.8467003 125.948701,18.2857003 C126.290701,17.5247003 126.537701,16.7117003 126.665701,15.8697003 C126.777701,15.0247003 126.762701,14.1677003 126.638701,13.3327003 C126.491701,12.5037003 126.247701,11.7027003 125.907701,10.9647003 C125.728701,10.5857003 125.561701,10.2747003 125.325701,9.87370029 C125.054701,9.44070029 124.727701,9.05770029 124.375701,8.73470029 C122.938701,7.43370029 121.272701,6.95670029 119.704701,6.76470029 C118.120701,6.59070029 116.549701,6.74670029 115.037701,7.21470029 C114.282701,7.44970029 113.542701,7.76770029 112.840701,8.18570029 L112.742701,8.24770029 C112.731701,7.46470029 112.628701,6.68470029 112.420701,5.92270029 C112.053701,4.48770029 111.226701,3.01070029 110.029701,1.96470029 C108.848701,0.900700291 107.331701,0.227700291 105.753701,0.0527002914 C104.176701,-0.141299709 102.525701,0.205700291 101.135701,1.00470029 L100.625701,1.32170029 L100.258701,1.57170029 L99.5257006,2.07070029 L98.0577006,3.06370029 C96.0937006,4.38170029 94.1027006,5.66770029 92.1047006,6.93970029 C84.9017006,11.4937003 77.5227006,15.8027003 70.0537006,19.9347003 C69.9427006,18.5607003 69.8427006,17.1857003 69.7107006,15.8087003 C69.4767006,13.4527003 69.2487006,11.1297003 68.8337006,8.69670029 C68.7867006,8.39670029 68.7157006,8.07270029 68.6467006,7.75470029 L68.5967006,7.51370029 L68.5117006,7.21070029 C68.4567006,7.00170029 68.3797006,6.82270029 68.3107006,6.62970029 C68.0097006,5.89270029 67.6207006,5.26370029 67.1857006,4.68870029 C66.3087006,3.54770029 65.2487006,2.60570029 63.9237006,1.90470029 C63.2597006,1.56070029 62.5197006,1.27970029 61.6827006,1.15470029 C60.8487006,1.03370029 59.8977006,1.09470029 59.0187006,1.43770029 C57.2247006,2.12170029 56.2177006,3.84070029 55.7627006,4.90370029 C53.6827006,9.30370029 52.1917006,13.7837003 50.7327006,18.2657003 C49.3687006,22.5127003 48.1137006,26.7737003 46.8247006,30.9987003 C39.5097006,34.9007003 32.2967006,38.9237003 24.8227006,42.2897003 C17.1317006,45.7787003 9.13270059,48.5957003 1.05270059,51.2487003 C0.269700594,51.5057003 -0.174299406,52.3437003 0.0647005942,53.1377003 C0.308700594,53.9437003 1.15870059,54.3997003 1.96470059,54.1567003 C10.1617006,51.6827003 18.3247006,48.9097003 26.2157006,45.4077003 C34.1177006,41.9247003 41.6637006,37.8387003 49.1857006,33.8287003 C49.5867006,33.6117003 49.9147006,33.2397003 50.0597006,32.7687003 C51.4457006,28.2827003 52.7677006,23.8057003 54.1997006,19.3837003 C55.6417006,14.9777003 57.1377006,10.5627003 59.0727006,6.50470029 C59.3347006,5.93570029 59.4987006,5.64670029 59.7237006,5.37070029 C59.9397006,5.10870029 60.1517006,4.95870029 60.3617006,4.86970029 C60.7617006,4.70370029 61.4557006,4.76970029 62.2147006,5.17870029 C62.9607006,5.56770029 63.6977006,6.21070029 64.2367006,6.92670029 C64.5067006,7.28370029 64.7307006,7.66370029 64.8717006,8.01070029 C64.8967006,8.09370029 64.9407006,8.18270029 64.9557006,8.25770029 L64.9897006,8.37670029 L65.0287006,8.56570029 C65.0807006,8.81970029 65.1377006,9.06570029 65.1797006,9.34470029 C65.8767006,13.7667003 66.2177006,18.5007003 66.5597006,23.1047003 L66.5607006,23.1267003 C66.5807006,23.3807003 66.6537006,23.6337003 66.7827006,23.8727003 C67.2757006,24.7807003 68.4127006,25.1177003 69.3207006,24.6247003 C77.7367006,20.0547003 86.0237006,15.2687003 94.1437006,10.1637003 C96.1687006,8.88070029 98.1877006,7.58370029 100.185701,6.24970029 L101.681701,5.24370029 L102.427701,4.73770029 L102.799701,4.48570029 L103.050701,4.33270029 C103.727701,3.95170029 104.524701,3.77370029 105.317701,3.87770029 C106.107701,3.96570029 106.873701,4.30570029 107.460701,4.84270029 C107.763701,5.11170029 108.010701,5.40870029 108.207701,5.75970029 C108.417701,6.10470029 108.580701,6.50670029 108.687701,6.92970029 C109.135701,8.49870029 108.771701,10.3767003 107.856701,11.2917003 C107.765701,11.3447003 107.674701,11.3997003 107.590701,11.4687003 C106.467701,12.3897003 105.249701,13.2957003 104.034701,14.1867003 C102.814701,15.0797003 101.579701,15.9617003 100.334701,16.8357003 C97.8487006,18.5827003 95.3287006,20.3067003 92.8057006,22.0037003 L92.7957006,22.0087003 C92.1547006,22.4417003 91.9547006,23.3047003 92.3527006,23.9797003 C92.7677006,24.6797003 93.6717006,24.9127003 94.3717006,24.4977003 C97.0167006,22.9327003 99.6367006,21.3517003 102.248701,19.7327003 C103.554701,18.9237003 104.855701,18.1037003 106.153701,17.2637003 C107.452701,16.4217003 108.741701,15.5757003 110.038701,14.6317003 C110.067701,14.6107003 110.104701,14.5827003 110.133701,14.5587003 C110.191701,14.5107003 110.238701,14.4547003 110.289701,14.4017003 L113.207701,12.5567003 L114.822701,11.5417003 C115.242701,11.2927003 115.706701,11.0907003 116.197701,10.9407003 C117.174701,10.6357003 118.253701,10.5357003 119.260701,10.6517003 C120.261701,10.7567003 121.208701,11.1257003 121.705701,11.6057003 C121.833701,11.7217003 121.931701,11.8417003 122.004701,11.9637003 C122.094701,12.1247003 122.241701,12.3877003 122.336701,12.5977003 C122.542701,13.0457003 122.672701,13.5017003 122.757701,13.9557003 C122.896701,14.8667003 122.767701,15.7747003 122.372701,16.6327003 C121.955701,17.5017003 121.351701,18.2437003 120.463701,18.9427003 L117.589701,21.4077003 C114.445701,23.7997003 111.127701,26.1197003 107.841701,28.4277003 L97.8947006,35.2947003 L97.8757006,35.3067003 C97.1907006,35.7817003 96.9977006,36.7157003 97.4497006,37.4247003 C97.9127006,38.1507003 98.8747006,38.3637003 99.6007006,37.9007003 L109.826701,31.3817003 C113.224701,29.1737003 116.605701,26.9927003 119.973701,24.6197003 C119.991701,24.6077003 120.015701,24.5897003 120.032701,24.5767003 C120.075701,24.5447003 120.108701,24.5047003 120.147701,24.4687003 C120.768701,24.0617003 121.418701,23.7497003 122.040701,23.5897003 C122.744701,23.4247003 123.373701,23.4447003 123.898701,23.6647003 C124.430701,23.8687003 124.913701,24.3127003 125.341701,24.9327003 C125.669701,25.4207003 125.837701,26.0297003 125.818701,26.7557003 C125.808701,27.4657003 125.607701,28.2407003 125.261701,28.9527003 C124.918701,29.6827003 124.451701,30.2847003 123.789701,30.9997003 C122.546701,32.3337003 121.001701,33.6207003 119.486701,34.7197003 C119.445701,34.7477003 119.400701,34.7677003 119.361701,34.7987003 L119.345701,34.8117003 L106.976701,44.4537003 L106.967701,44.4617003 C106.314701,44.9727003 106.166701,45.9117003 106.646701,46.5997003 C107.143701,47.3137003 108.124701,47.4897003 108.838701,46.9937003 L121.522701,38.1667003 C121.567701,38.1397003 121.614701,38.1197003 121.657701,38.0897003 C121.676701,38.0757003 121.693701,38.0607003 121.712701,38.0477003 L121.713701,38.0487003 C122.386701,37.5487003 123.268701,37.5027003 124.164701,37.9617003 C125.035701,38.4137003 125.708701,39.3697003 125.827701,40.2797003 C125.969701,41.2157003 125.593701,42.4597003 124.913701,43.6517003 C124.235701,44.8527003 123.298701,46.0167003 122.268701,47.0967003 C121.750701,47.6397003 121.208701,48.1577003 120.642701,48.6547003 L118.813701,50.2907003 L115.213701,53.5387003 C112.818701,55.6947003 110.399701,57.8097003 107.946701,59.8867003 C103.040701,64.0427003 98.0047006,68.0427003 92.8467006,71.8847003 C87.7037006,75.7497003 82.3587006,79.3397003 76.9867006,82.8787003 C75.6407006,83.7587003 74.3257006,84.6887003 73.0007006,85.6027003 C71.6767006,86.5177003 70.2887006,87.3367003 68.9307006,88.1997003 C66.2057006,89.9147003 63.4587006,91.5927003 60.6837006,93.2217003 C55.1417006,96.4947003 49.5187006,99.6297003 43.8047006,102.5787 C38.0957006,105.5377 32.2937006,108.3097 26.4237006,110.9177 C23.4837006,112.2087 20.5347006,113.4797 17.5507006,114.6617 C16.0647006,115.2687 14.5647006,115.8377 13.0657006,116.4097 C11.5697006,116.9917 10.0817006,117.5847 8.70070059,118.5017 L8.66270059,118.5267 C8.19070059,118.8407 7.90770059,119.4027 7.97670059,120.0047 C8.07470059,120.8617 8.84970059,121.4777 9.70670059,121.3797 C11.3657006,121.1897 12.9377006,120.7317 14.4657006,120.1597 C15.9947006,119.5897 17.5237006,119.0227 19.0387006,118.4177 C22.0807006,117.2397 25.0847006,115.9707 28.0807006,114.6837 C34.0577006,112.0787 39.9137006,109.2127 45.6927006,106.2137 C51.4717006,103.2097 57.1487006,100.0217 62.7417006,96.6967003 C68.3507006,93.3947003 73.7837006,89.8237003 79.3357006,86.4237003 C90.0897006,79.0937003 100.594701,71.3687003 110.532701,62.9387003 C113.017701,60.8337003 115.470701,58.6887003 117.885701,56.5147003 L121.492701,53.2607003 L123.282701,51.6607003 C123.931701,51.0897003 124.560701,50.4897003 125.159701,49.8617003 C126.356701,48.6007003 127.478701,47.2347003 128.397701,45.6167003 C129.282701,44.0177003 130.081701,42.0467003 129.789701,39.7357003" id="Fill-54" fill="#141414"/>
                        </g>
                        <g id="Assets-109" transform="translate(158.913572, 244.177211)">
                            <path d="M1.37429883,124.433022 C66.6102988,118.734022 127.082299,84.1120224 127.082299,84.1120224 L86.8332988,8.41102241 C86.8332988,8.41102241 43.9852988,25.0630224 15.6982988,28.0010224" id="Fill-56" fill="#ff4b33"/>
                            <line x1="30.026" y1="1.551" x2="29.522" y2="25.19" id="Fill-58" fill="#ff4b33"/>
                            <path d="M128.964199,83.1205224 L128.960199,83.1135224 L88.7111988,7.41252241 C88.2121988,6.47452241 87.0771988,6.03352241 86.0631988,6.42852241 L86.0631988,6.42852241 C80.3821988,8.65152241 74.5891988,10.7525224 68.7951988,12.7575224 C62.9901988,14.7545224 57.1531988,16.6585224 51.2771988,18.4155224 C45.4021988,20.1745224 39.4881988,21.8025224 33.5311988,23.1985224 C32.9041988,23.3465224 32.2741988,23.4795224 31.6451988,23.6215224 L31.6121988,1.58552241 C31.6101988,0.742522411 30.9451988,0.0395224106 30.0951988,0.00152241065 C29.2191988,-0.0364775894 28.4781988,0.641522411 28.4391988,1.51652241 L27.4221988,24.5275224 C23.4771988,25.3285224 19.5141988,26.0085224 15.5391988,26.4715224 L15.5251988,26.4735224 C14.6921988,26.5695224 14.0891988,27.3175224 14.1721988,28.1545224 C14.2571988,29.0005224 15.0111988,29.6175224 15.8571988,29.5325224 C22.0821988,28.9085224 28.2131988,27.8105224 34.2761988,26.4875224 C40.3401988,25.1675224 46.3421988,23.6165224 52.3011988,21.9345224 C58.2611988,20.2555224 64.1741988,18.4305224 70.0561988,16.5105224 C75.3421988,14.7745224 80.5851988,12.9705224 85.8251988,11.0445224 L124.214199,83.2455224 C115.238199,88.1825224 105.878199,92.6715224 96.4361988,96.8115224 C86.3331988,101.209522 76.0521988,105.212522 65.6101988,108.731522 C55.1681988,112.246522 44.5691988,115.313522 33.8271988,117.743522 C23.0941988,120.218522 12.2071988,121.991522 1.25519883,123.062522 L1.24119883,123.063522 C0.492198832,123.137522 -0.0598011677,123.800522 0.00519883232,124.551522 C0.0701988323,125.308522 0.737198832,125.869522 1.49419883,125.804522 C12.5941988,124.846522 23.6291988,123.174522 34.5031988,120.796522 C45.3891988,118.463522 56.1281988,115.486522 66.7111988,112.057522 C77.2951988,108.622522 87.7151988,104.699522 97.9671988,100.375522 C108.219199,96.0125224 118.275199,91.3415224 128.139199,85.9575224 C129.131199,85.3925224 129.504199,84.1365224 128.964199,83.1205224" id="Fill-60" fill="#141414"/>
                        </g>
                        <g id="neck" transform="translate(233.000107, 48.999715)">
                            <path d="M12.353793,1.94308464 C12.353793,1.94308464 14.0672434,20.8907008 13.115793,26.9240846 C11.999893,34.0002846 6.99989304,35.0002846 2.99989304,38.0002846 C9.61289304,56.5222846 33.567793,68.9110846 53.526793,71.9430846 C57.845793,72.5990846 73.464893,57.0412846 71.999893,40.0002846 C70.999893,35.0002846 70.888893,31.0872846 70.999893,27.0002846 L71.617793,4.59108464" id="SKIN" fill="#FFF"/>
                            <path d="M55.902793,70.4317846 C55.902793,70.4317846 35.999893,62.0002846 2.99989304,38.0002846 C-1.34110696,65.8692846 10.532793,140.657785 55.548793,75.9847846 C55.548793,75.9847846 78.067793,100.753785 85.288793,95.0427846 C103.442793,80.6847846 72.809793,40.2907846 72.809793,40.2907846 C70.372793,57.4207846 55.902793,70.4317846 55.902793,70.4317846 Z" id="Fill-3" fill="#FFC81A"/>
                            <path d="M57.028593,74.6348846 C56.185593,73.6748846 54.523593,73.8148846 53.858593,74.9148846 C18.768593,126.796885 1.03359304,84.8278846 4.00859304,39.8548846 C22.450593,55.3508846 41.294593,66.7688846 55.208593,72.3048846 C61.451593,71.4038846 71.636593,54.0178846 73.838593,45.2148846 C74.178593,45.7148846 81.134593,55.1708846 84.038593,63.1048846 C88.658593,73.3048846 92.408593,86.8548846 84.048593,93.4748846 C81.278593,95.6648846 70.168593,89.0848846 57.028593,74.6348846 Z M73.618593,4.64488464 C73.648593,3.54488464 72.778593,2.62488464 71.668593,2.59488464 C70.558593,2.55488464 69.648593,3.43488464 69.618593,4.53488464 L68.828593,33.5648846 C73.511593,46.6908846 58.543593,65.2248846 55.448593,68.0948846 C50.588593,66.0548846 31.979893,58.0702846 7.99989304,38.0002846 C10.999893,36.0002846 14.708593,34.4148846 15.108593,27.0348846 C15.438593,20.8848846 14.398593,2.60488464 14.348593,1.82488464 C14.231593,-0.74311536 10.167593,-0.54111536 10.358593,2.05488464 C10.368593,2.24488464 11.438593,20.8948846 11.118593,26.8148846 C10.557593,32.4928846 3.02259304,34.0998846 1.21459304,37.7168846 C-4.66040696,73.4018846 10.339593,139.667885 55.798593,79.1948846 C62.108593,85.8548846 79.128593,102.474885 86.528593,96.6148846 C105.998593,81.2148846 73.872593,37.9908846 73.751593,37.8688846 C71.070593,35.1748846 73.791593,8.53188464 73.618593,4.64488464 Z" id="Fill-7" fill="#141414"/>
                        </g>
                    </g>
                </g>
                <g id="Head" transform="translate(439.000000, 92.000000) scale(1 1)">
                    <g id="Head/Plain Hair" stroke="none" stroke-width="1" fill="none" fill-rule="evenodd">
                        <path d="M157.837018,107.1873 C157.437018,100.3193 153.857018,97.2413 150.161018,97.0853 C149.836018,94.9583 149.483018,92.8303 149.083018,90.7003 C139.153018,38.0093 106.305018,30.9203 78.8370179,37.7423 C60.6490179,42.2583 36.0880179,55.0433 41.1670179,102.7863 C30.2110179,100.0583 25.0800179,106.0643 25.4580179,114.4623 C25.7980179,122.0023 31.4800179,127.5013 42.6550179,128.1003 C45.9090179,153.6683 69.8450179,193.4003 116.132018,184.3053 C143.146018,178.9973 153.241018,149.9533 152.015018,116.3643 C157.006018,115.5283 158.089018,111.4933 157.837018,107.1873" id="SKIN" fill="#FFF"/>
                        <path d="M69.8415,13.7922 C135.6415,6.3922 152.7025,52.5722 151.9825,79.8122 C151.8415,84.9422 150.2825,93.9922 150.4925,95.3422 C157.7125,95.6222 158.2325,104.1522 158.3915,106.9922 C158.6115,110.6922 158.2715,115.8822 152.8225,118.2922 C152.7525,118.3222 152.6715,118.3422 152.5915,118.3612 C153.2615,150.1522 143.9415,180.5122 115.0825,186.1822 C110.3815,187.1112 105.8225,187.5722 101.4025,187.5722 C89.0025,187.5722 77.7125,183.9422 67.7215,176.7322 C57.0625,169.0392 49.7325,158.5492 45.1195,148.3282 C43.2315,148.1062 38.9895,145.3832 32.8265,128.7162 C32.7855,128.6062 32.7505,128.4912 32.7095,128.3812 C26.1865,125.9712 22.3205,121.1002 22.0215,114.4722 C21.7925,109.4322 23.3725,105.2622 26.4715,102.7222 C26.5405,102.6662 26.6195,102.6112 26.6905,102.5562 C24.5015,86.5072 22.2025,66.8302 27.1455,52.2252 C34.0115,31.9382 49.9625,16.0222 69.8415,13.7922 Z M130.5515,62.6112 C122.1415,59.4422 122.4625,68.0722 106.8515,71.7122 C91.9525,75.1822 87.4525,65.0522 72.3015,65.6722 C51.6915,66.5222 54.6415,91.2022 47.0515,100.2922 C44.9125,102.8422 43.0025,103.8562 41.1155,104.5472 C40.5885,104.7402 39.7925,104.7822 39.2425,104.6422 C37.6225,104.2422 36.1225,104.0422 34.7525,104.0422 C32.4025,104.0422 30.4525,104.6322 29.0115,105.8122 C26.9125,107.5322 25.8515,110.5422 26.0115,114.2922 C26.3325,121.2422 31.9125,125.5122 41.3225,126.0222 C42.2825,126.0722 43.0725,126.8022 43.2025,127.7622 C44.9025,141.1422 52.9625,161.1422 70.0615,173.4922 C82.6815,182.5922 97.5725,185.5522 114.3015,182.2622 C135.9125,178.0122 157.0915,151.5622 145.6715,90.9922 C144.4315,84.4022 142.8015,78.4022 140.7925,73.0022 C137.8725,66.8122 134.5515,64.1222 130.5515,62.6112 Z M35.6681,108.8715 C36.9311,108.8715 37.9531,110.6685 37.9531,112.8845 C37.9531,115.1005 36.9311,116.8975 35.6681,116.8975 C34.4061,116.8975 33.3841,115.1005 33.3841,112.8845 C33.3841,110.6685 34.4061,108.8715 35.6681,108.8715 Z M151.0915,99.3922 C151.7325,104.1722 152.1915,109.0322 152.4415,113.8822 C154.0025,112.6322 154.6015,110.5922 154.4025,107.2222 C154.0325,100.9522 152.4125,99.6622 151.0915,99.3922 Z" id="Combined-Shape" fill="#141414"/>
                    </g>
                </g>
                <g id="Face" transform="translate(499.000000, 178.000000) scale(1 1)">
                    <g id="Face/Awkward" stroke="none" stroke-width="1" fill="none" fill-rule="evenodd">
                        <path d="M52.0169,63.8556207 C59.0799,63.3330985 64.8219,65.4566146 67.3629,69.5329912 C68.8899,71.9819841 68.8409,74.6544123 67.2359,76.5069909 C65.6469,78.3419762 62.8549,79.0026061 59.5799,78.3164659 C54.7359,77.3030895 49.5579,78.1009475 44.6049,80.6211933 C43.4489,81.2096905 40.7899,81.9732414 38.1379,81.9732414 C36.4729,81.9732414 34.8119,81.6723953 33.5249,80.838471 C32.1709,79.9614431 30.7409,78.1994701 31.6199,74.7863623 C33.9179,65.870058 47.8129,64.1661431 52.0169,63.8556207 Z M50.6880887,28.2299967 L50.8137,28.2444 C51.4097,28.3444 51.8217,28.8844 51.7737,29.4764 L51.7737,29.4764 L51.7727,29.4954 C51.5297,32.4204 51.5147,35.4064 51.6717,38.3414 C51.7537,39.8064 51.8857,41.2684 52.1127,42.6654 C52.2277,43.3604 52.3687,44.0424 52.5507,44.6454 C52.6457,44.9334 52.7477,45.2224 52.8507,45.4114 L52.8507,45.4114 L52.8767,45.4574 C54.4247,46.1714 55.9237,47.1674 57.1367,48.5944 C57.7747,49.3424 58.3307,50.2074 58.7037,51.2014 C59.0637,52.2074 59.3307,53.2754 59.0577,54.6724 C58.7267,56.0914 57.7767,57.0844 56.9207,57.6844 C56.0387,58.3034 55.1487,58.6904 54.2617,58.9654 C53.3737,59.2344 52.4917,59.4074 51.6087,59.5134 C51.1677,59.5654 50.7257,59.6004 50.2817,59.6184 C49.8407,59.6174 49.3907,59.7144 48.9477,59.4154 C48.1627,58.8864 47.9547,57.8204 48.4837,57.0344 C48.5767,56.8964 48.6867,56.7764 48.8077,56.6744 L48.8077,56.6744 L48.9707,56.5414 C49.3257,56.2484 49.6737,56.3144 50.0277,56.2544 C50.3807,56.2114 50.7317,56.1554 51.0787,56.0864 C51.7727,55.9474 52.4507,55.7554 53.0727,55.5094 C53.6917,55.2644 54.2697,54.9764 54.6757,54.6504 C55.1007,54.3214 55.2507,54.0124 55.2637,53.8554 C55.2947,53.6764 55.2357,53.1104 55.0187,52.6404 C54.8087,52.1494 54.4977,51.6484 54.0987,51.1844 C53.2927,50.2564 52.1817,49.4764 50.9607,48.7914 L50.9607,48.7914 L50.7827,48.6934 C49.8447,48.0154 49.6587,47.4064 49.4237,46.9174 C49.2217,46.4174 49.1177,45.9794 49.0147,45.5404 C48.8347,44.6814 48.7447,43.8724 48.6797,43.0724 C48.5587,41.4764 48.5537,39.9244 48.5967,38.3794 C48.6937,35.2914 48.9657,32.2444 49.4797,29.1934 C49.5857,28.5624 50.1827,28.1374 50.8137,28.2444 Z M20.4212,32.2393 C17.7182,26.3593 28.4602,22.2603 29.8512,29.2053 C30.0382,30.1393 29.2082,32.1293 28.5922,32.9973 C26.5392,35.8933 21.8812,35.4163 20.4212,32.2393 Z M67.1829,26.524 C70.0099,22.86 75.2779,25.155 75.2889102,29.2 C75.2939,30.843 73.4619,32.509 71.8069,32.897 C67.9109,33.808 64.7339,29.698 67.1829,26.524 Z M11.1086,14.4822771 C15.1056,14.5323 18.6656,15.7163 22.2696,16.5203 C23.1656,16.7403 24.0586,16.9173 24.9466,17.0713 C25.8326,17.2553 26.7086,17.3683 27.5616,17.4543 C28.4116,17.5493 29.2466,17.5673 29.9706,17.5053 C30.7046,17.4203 31.2246,17.2703 31.6146,16.9953 L31.6146,16.9953 L31.9876,16.7333 C32.5916,16.3073 33.4276,16.4523 33.8536,17.0573 C34.1516,17.4813 34.1686,18.0203 33.9436,18.4513 C33.6076,19.0923 33.1046,19.7023 32.5366,20.0673 C31.9746,20.4833 31.3896,20.7293 30.8126,20.9303 C29.6616,21.3233 28.5556,21.4303 27.4846,21.4923 C25.3386,21.5763 23.3156,21.3033 21.3396,20.9293 C19.3706,20.5233 17.4416,20.0383 15.5936,19.3283 C13.7506,18.5983 11.9856,17.7013 10.3816,16.3593 C9.9306,15.9833 9.8706,15.3133 10.2476,14.8633 C10.4596,14.6093 10.7636,14.4803 11.0706,14.4822771 L11.0706,14.4822771 Z M77.4947,12.0669 C78.4807,11.7959 79.5007,12.3749 79.7717,13.3609 C79.9707,14.0849 79.7097,14.8279 79.1677,15.2779 C77.8697,16.3529 76.4897,17.1439 75.0227,17.8409 C73.5567,18.5249 72.0217,19.0699 70.4437,19.5519 C68.8557,20.0119 67.2217,20.3939 65.4457,20.5039 C64.5567,20.5459 63.6307,20.5459 62.6447,20.3249 C61.6837,20.1139 60.5397,19.6789 59.7457,18.7009 C59.2667,18.1099 59.3567,17.2419 59.9477,16.7629 C60.3597,16.4289 60.9067,16.3719 61.3627,16.5689 L61.3627,16.5689 L61.7707,16.7459 C62.0917,16.8849 62.5077,16.9759 63.0827,16.9599 C63.6457,16.9339 64.2917,16.8439 64.9487,16.6899 C65.6067,16.5439 66.2897,16.3479 66.9687,16.1129 C67.6517,15.8969 68.3387,15.6459 69.0227,15.3689 C70.4017,14.8499 71.7627,14.2179 73.1487,13.6329 C74.5317,13.0569 75.9657,12.4869 77.4197,12.0879 L77.4197,12.0879 Z" id="Awakward" fill="#141414"/>
                    </g>
                </g>
                <g id="Accessories" transform="translate(491.000000, 176.000000) scale(1 1)" fill="#000">
                    <g id="Accessories/Glasses" stroke="none" stroke-width="1" fill="none" fill-rule="evenodd">
                        <path d="M77.2051,44.2671 C67.8901,44.2671 60.8651,37.0141 60.8651,27.3961 C60.8651,17.8041 68.3521,10.0001 77.5561,10.0001 C87.1111,10.0001 94.5971,17.3391 94.5971,26.7081 C94.5971,36.2261 86.6321,44.2671 77.2051,44.2671 M25.2251,50.9541 C15.8881,50.9541 8.0001,41.9171 8.0001,31.2221 C8.0001,21.3761 16.2651,13.3671 26.4241,13.3671 C36.0901,13.3671 43.9541,21.9761 43.9541,32.5591 C43.9541,42.5301 35.3771,50.9541 25.2251,50.9541 M77.5561,6.0001 C68.7881,6.0001 61.2971,11.6771 58.2881,19.6551 C54.5741,19.3811 47.9351,20.2451 45.0411,20.9321 C41.3091,14.0241 34.3641,9.3671 26.4241,9.3671 C14.0591,9.3671 4.0001,19.1711 4.0001,31.2221 C4.0001,44.3081 13.5211,54.9541 25.2251,54.9541 C37.5451,54.9541 47.9541,44.6981 47.9541,32.5591 C47.9541,29.7721 47.4951,27.0991 46.6541,24.6211 C49.1291,24.1271 54.4851,23.5661 57.2161,23.5671 C56.9971,24.8111 56.8651,26.0871 56.8651,27.3961 C56.8651,39.1001 65.8001,48.2671 77.2051,48.2671 C88.8011,48.2671 98.5971,38.3941 98.5971,26.7081 C98.5971,15.0961 89.3541,6.0001 77.5561,6.0001" id="Glass" fill="#ff4b33"/>
                    </g>
                </g>
                <g id="Facial Hair" transform="translate(501.000000, 234.000000) scale(1 1)" fill="#000">
                    <g id="Facial Hair/Moustache" stroke="none" stroke-width="1" fill="none" fill-rule="evenodd">
                        <path d="M48.3210576,10.9823291 C48.3210576,10.9823291 59.0470576,13.6253291 71.4790576,14.3953291 C82.7780576,15.0953291 77.4180576,7.76932914 77.4180576,7.76932914 C77.4180576,7.76932914 71.1900576,-1.14367086 60.4680576,-2.81867086 C53.6240576,-3.88767086 50.8210576,0.117329137 48.6310576,0.156329137 C46.6630576,0.191329137 38.6410576,-6.42167086 25.1880576,0.719329137 C17.4840576,4.81032914 11.8130576,12.5773291 13.2130576,15.8763291 C14.1590576,18.1049958 25.8617243,16.4736625 48.3210576,10.9823291 Z" id="Moustache" fill="#141414"/>
                    </g>
                </g>
            </g>
        </g>
    </g>
</svg>
