<svg viewBox="394.705 81.25 568.506 975" xmlns="http://www.w3.org/2000/svg" overflow="visible">
    <g id="Master/Character/Sitting" stroke="none" stroke-width="1" fill="none" fill-rule="evenodd">
        <g id="Lower Body Sit" transform="translate(264.000000, 454.000000) scale(1 1)">
            <g id="Lower Body Sit/Sitting" stroke="none" stroke-width="1" fill="none" fill-rule="evenodd">
                <g id="Sitting" transform="translate(157.000018, 120.000100)">
                    <g id="Assets-38" transform="translate(362.715996, 369.687659)">
                        <polyline id="SKIN" fill="#FFF" points="1.9846 2.000841 15.5446 52.647841 86.0506 58.521841 82.1596 9.391841"/>
                        <path d="M86.052,60.520341 C85.996,60.520341 85.941,60.518341 85.885,60.513341 L15.378,54.641341 C14.834,54.596341 14.333,54.331341 13.989,53.907341 C13.647,53.483341 13.491,52.937341 13.56,52.396341 L0,1.749341 C0.14,0.651340996 1.16,-0.123659004 2.237,0.0163409959 C3.332,0.156340996 4.108,1.157341 3.969,2.252341 L17.791,50.829341 L84.643,56.396341 L80.259,8.768341 C80.603,7.719341 81.73,7.145341 82.782,7.491341 C83.832,7.834341 84.404,8.964341 84.06,10.014341 L87.951,59.143341 C87.681,59.970341 86.909,60.520341 86.052,60.520341" id="Fill-2" fill="#141414"/>
                        <path d="M12.6604,49.910941 C12.9184,48.893941 13.9184,48.250941 14.9514,48.434941 C15.9344,48.611941 17.1794,48.850941 18.6444,49.133941 C27.6264,50.861941 46.3154,54.458941 64.0264,54.472941 L64.0714,54.472941 C74.5054,54.472941 83.6814,51.618941 89.9094,46.433941 C90.4044,46.021941 91.0664,45.875941 91.6924,46.035941 C122.0904,53.949941 144.0534,59.667941 160.3294,70.522941 C163.1894,72.431941 173.5064,80.759941 171.7214,86.649941 C170.8964,89.373941 167.9584,90.754941 162.9884,90.754941 C144.8444,90.754941 105.7534,90.855941 71.2644,90.945941 C43.3574,91.018941 19.2574,91.081941 10.1834,91.081941 C9.2244,91.081941 8.3594,90.646941 7.7464,89.857941 C4.1734,85.261941 9.9924,60.389941 12.6604,49.910941" id="Fill-4" fill="#ff4b33"/>
                        <path d="M10.5481,99.889541 L167.3851,99.889541 C169.9911,99.889541 172.1041,97.776541 172.1041,95.169541 L172.1041,93.610541 C172.1041,91.003541 169.9911,88.891541 167.3851,88.891541 L10.5481,88.891541 C7.9431,88.891541 5.8291,91.003541 5.8291,93.610541 L5.8291,95.169541 C5.8291,97.776541 7.9431,99.889541 10.5481,99.889541" id="Fill-6" fill="#141414"/>
                        <path d="M122.844,64.878741 C123.639,64.878741 124.401,64.431741 124.765,63.665741 C128.102,56.657741 134.513,58.372741 135.234,58.593741 C136.352,58.932741 137.541,58.307741 137.889,57.191741 C138.236,56.073741 137.621,54.888741 136.507,54.534741 C132.871,53.380741 124.933,53.422741 120.925,61.837741 C120.42,62.898741 120.87,64.166741 121.931,64.671741 C122.226,64.812741 122.537,64.878741 122.844,64.878741" id="Fill-8" fill="#141414"/>
                        <path d="M104.0627,59.756741 C104.8577,59.756741 105.6207,59.309741 105.9847,58.543741 C109.3217,51.535741 115.7327,53.250741 116.4527,53.471741 C117.5717,53.811741 118.7607,53.185741 119.1077,52.069741 C119.4547,50.951741 118.8397,49.766741 117.7257,49.412741 C114.0857,48.259741 106.1497,48.302741 102.1447,56.715741 C101.6397,57.776741 102.0897,59.044741 103.1507,59.549741 C103.4457,59.690741 103.7557,59.756741 104.0627,59.756741" id="Fill-10" fill="#141414"/>
                    </g>
                    <g id="Assets-39" transform="translate(180.950396, 370.693559)">
                        <polyline id="SKIN" fill="#FFF" points="16.9084 2.000841 10.4684 52.647841 80.9744 58.521841 97.0834 9.391841"/>
                        <path d="M80.9758,60.520341 C80.9198,60.520341 80.8648,60.518341 80.8088,60.513341 L10.3018,54.641341 C9.7578,54.596341 9.2568,54.331341 8.9128,53.907341 C8.5708,53.483341 8.4148,52.937341 8.4838,52.396341 L14.9238,1.749341 C15.0638,0.651340996 16.0838,-0.123659004 17.1608,0.0163409959 C18.2558,0.156340996 19.0318,1.157341 18.8928,2.252341 L12.7148,50.829341 L79.5668,56.396341 L95.1828,8.768341 C95.5268,7.719341 96.6538,7.145341 97.7058,7.491341 C98.7558,7.834341 99.3278,8.964341 98.9838,10.014341 L82.8748,59.143341 C82.6048,59.970341 81.8328,60.520341 80.9758,60.520341" id="Fill-14" fill="#141414"/>
                        <path d="M7.5842,49.910941 C7.8422,48.893941 8.8422,48.250941 9.8752,48.434941 C10.8582,48.611941 12.1032,48.850941 13.5682,49.133941 C22.5502,50.861941 41.2392,54.458941 58.9502,54.472941 L58.9952,54.472941 C69.4292,54.472941 78.6052,51.618941 84.8332,46.433941 C85.3282,46.021941 85.9902,45.875941 86.6162,46.035941 C117.0142,53.949941 138.9772,59.667941 155.2532,70.522941 C158.1132,72.431941 168.4302,80.759941 166.6462,86.649941 C165.8202,89.373941 162.8822,90.754941 157.9122,90.754941 C139.7682,90.754941 100.6772,90.855941 66.1882,90.945941 C38.2812,91.018941 14.1812,91.081941 5.1072,91.081941 C4.1482,91.081941 3.2832,90.646941 2.6702,89.857941 C-0.9028,85.261941 4.9162,60.389941 7.5842,49.910941" id="Fill-16" fill="#ff4b33"/>
                        <path d="M5.4719,99.889441 L162.3089,99.889441 C164.9149,99.889441 167.0279,97.776441 167.0279,95.169441 L167.0279,93.610441 C167.0279,91.003441 164.9149,88.891441 162.3089,88.891441 L5.4719,88.891441 C2.8669,88.891441 0.7529,91.003441 0.7529,93.610441 L0.7529,95.169441 C0.7529,97.776441 2.8669,99.889441 5.4719,99.889441" id="Fill-18" fill="#141414"/>
                        <path d="M117.7678,64.878741 C118.5628,64.878741 119.3248,64.431741 119.6888,63.665741 C123.0258,56.657741 129.4368,58.372741 130.1578,58.593741 C131.2758,58.932741 132.4648,58.307741 132.8128,57.191741 C133.1598,56.073741 132.5448,54.888741 131.4308,54.534741 C127.7948,53.380741 119.8568,53.422741 115.8488,61.837741 C115.3438,62.898741 115.7938,64.166741 116.8548,64.671741 C117.1498,64.812741 117.4608,64.878741 117.7678,64.878741" id="Fill-21" fill="#141414"/>
                        <path d="M98.9865,59.756641 C99.7815,59.756641 100.5445,59.309641 100.9085,58.543641 C104.2455,51.535641 110.6565,53.250641 111.3765,53.471641 C112.4955,53.811641 113.6845,53.185641 114.0315,52.069641 C114.3785,50.951641 113.7635,49.766641 112.6495,49.412641 C109.0095,48.259641 101.0735,48.302641 97.0685,56.715641 C96.5635,57.776641 97.0135,59.044641 98.0745,59.549641 C98.3695,59.690641 98.6795,59.756641 98.9865,59.756641" id="Fill-23" fill="#141414"/>
                    </g>
                    <g id="Pant-2" transform="translate(195.005786, -0.000000)">
                        <path d="M120.05131,3.41060513e-13 L5.38530969,3.41060513e-13 C-24.9856903,3.41060513e-13 83.0103097,135.826 83.0103097,135.826 C83.5343097,148.396 84.9923097,375.136 84.9923097,375.136 C158.54531,390.252 218.33231,394.593 268.75731,386.561 C268.75731,386.561 242.32831,189.901 220.43831,76.945 C209.10231,18.45 160.94731,3.41060513e-13 120.05131,3.41060513e-13" id="Fill-25" fill="#141414"/>
                        <path d="M182.136449,374.710949 C183.237449,374.522949 184.254449,375.272949 184.431449,376.362949 L184.431449,376.362949 L186.356449,388.206949 C186.534449,389.297949 185.794449,390.324949 184.704449,390.501949 C184.595449,390.520949 184.487449,390.527949 184.381449,390.527949 C183.417449,390.527949 182.568449,389.830949 182.409449,388.849949 L182.409449,388.849949 L180.483449,377.005949 C180.306449,375.914949 181.046449,374.887949 182.136449,374.710949 Z M178.284849,351.021549 C179.374849,350.837549 180.402849,351.583549 180.579849,352.673549 L180.579849,352.673549 L182.504849,364.518549 C182.682849,365.609549 181.942849,366.636549 180.852849,366.813549 C180.743849,366.832549 180.635849,366.839549 180.529849,366.839549 C179.565849,366.839549 178.716849,366.142549 178.557849,365.161549 L178.557849,365.161549 L176.631849,353.316549 C176.454849,352.225549 177.194849,351.198549 178.284849,351.021549 Z M174.434249,327.333049 C175.522249,327.149049 176.552249,327.895049 176.729249,328.985049 L176.729249,328.985049 L178.653249,340.829049 C178.831249,341.920049 178.091249,342.947049 177.001249,343.124049 C176.892249,343.143049 176.784249,343.150049 176.678249,343.150049 C175.714249,343.150049 174.865249,342.453049 174.706249,341.472049 L174.706249,341.472049 L172.781249,329.628049 C172.604249,328.537049 173.344249,327.510049 174.434249,327.333049 Z M170.582749,303.643549 C171.673749,303.461549 172.700749,304.205549 172.877749,305.295549 L172.877749,305.295549 L174.802749,317.140549 C174.980749,318.231549 174.240749,319.258549 173.150749,319.435549 C173.041749,319.454549 172.933749,319.461549 172.827749,319.461549 C171.863749,319.461549 171.014749,318.764549 170.855749,317.783549 L170.855749,317.783549 L168.929749,305.938549 C168.752749,304.847549 169.492749,303.820549 170.582749,303.643549 Z M166.731149,279.955149 C167.821149,279.773149 168.849149,280.517149 169.026149,281.607149 L169.026149,281.607149 L170.951149,293.451149 C171.129149,294.542149 170.389149,295.569149 169.299149,295.746149 C169.190149,295.765149 169.082149,295.772149 168.976149,295.772149 C168.012149,295.772149 167.163149,295.075149 167.004149,294.094149 L167.004149,294.094149 L165.078149,282.250149 C164.901149,281.159149 165.641149,280.132149 166.731149,279.955149 Z M162.879549,256.265649 C163.968549,256.080649 164.997549,256.827649 165.174549,257.917649 L165.174549,257.917649 L167.099549,269.762649 C167.277549,270.853649 166.537549,271.880649 165.447549,272.057649 C165.338549,272.076649 165.230549,272.083649 165.124549,272.083649 C164.160549,272.083649 163.311549,271.386649 163.152549,270.405649 L163.152549,270.405649 L161.226549,258.560649 C161.049549,257.469649 161.789549,256.442649 162.879549,256.265649 Z M159.029049,232.577149 C160.128049,232.391149 161.147049,233.139149 161.324049,234.229149 L161.324049,234.229149 L163.249049,246.073149 C163.427049,247.164149 162.687049,248.191149 161.597049,248.368149 C161.488049,248.387149 161.380049,248.394149 161.274049,248.394149 C160.310049,248.394149 159.461049,247.697149 159.302049,246.716149 L159.302049,246.716149 L157.376049,234.872149 C157.199049,233.781149 157.939049,232.754149 159.029049,232.577149 Z M155.177449,208.887749 C156.266449,208.704749 157.295449,209.449749 157.472449,210.539749 L157.472449,210.539749 L159.397449,222.384749 C159.575449,223.475749 158.835449,224.502749 157.745449,224.679749 C157.636449,224.698749 157.528449,224.705749 157.422449,224.705749 C156.458449,224.705749 155.609449,224.008749 155.450449,223.027749 L155.450449,223.027749 L153.524449,211.182749 C153.347449,210.091749 154.087449,209.064749 155.177449,208.887749 Z M151.325849,185.199249 C152.424849,185.012249 153.443849,185.761249 153.620849,186.851249 L153.620849,186.851249 L155.545849,198.695249 C155.723849,199.786249 154.983849,200.813249 153.893849,200.990249 C153.784849,201.009249 153.676849,201.016249 153.570849,201.016249 C152.606849,201.016249 151.757849,200.319249 151.598849,199.338249 L151.598849,199.338249 L149.672849,187.494249 C149.495849,186.403249 150.235849,185.376249 151.325849,185.199249 Z M147.475249,161.509749 C148.575249,161.333749 149.593249,162.072749 149.770249,163.162749 L149.770249,163.162749 L151.695249,175.006749 C151.873249,176.097749 151.133249,177.124749 150.043249,177.301749 C149.934249,177.320749 149.826249,177.327749 149.719249,177.327749 C148.756249,177.327749 147.907249,176.630749 147.748249,175.649749 L147.748249,175.649749 L145.822249,163.803749 C145.645249,162.714749 146.385249,161.686749 147.475249,161.509749 Z M143.623749,137.820349 C144.720749,137.644349 145.741749,138.383349 145.918749,139.473349 L145.918749,139.473349 L147.843749,151.318349 C148.021749,152.408349 147.281749,153.436349 146.191749,153.613349 C146.082749,153.631349 145.974749,153.639349 145.867749,153.639349 C144.904749,153.639349 144.055749,152.942349 143.896749,151.960349 L143.896749,151.960349 L141.970749,140.115349 C141.793749,139.025349 142.533749,137.997349 143.623749,137.820349 Z" id="Combined-Shape" fill-opacity=".8" fill="#FFF" style="mix-blend-mode:overlay"/>
                    </g>
                    <g id="Pant-1" transform="translate(-0.000000, 0.000300)">
                        <path d="M237.452822,-2.84217094e-14 L5.76782227,-2.84217094e-14 C5.76782227,-2.84217094e-14 -17.6671777,83.554 29.9388223,129.256 C73.8158223,171.379 174.094822,156.308 195.089822,152.593 L198.537822,130.897 C198.710822,129.806 199.748822,129.064 200.826822,129.235 C201.916822,129.409 202.661822,130.434 202.488822,131.525 L198.931822,153.906 C197.256822,179.842 165.930822,393.136 165.930822,393.136 C225.760822,410.69 302.879822,412.324 342.942822,404.561 C342.942822,404.561 343.675822,204.292 335.644822,81.026 C332.187822,27.972 290.016822,-2.84217094e-14 237.452822,-2.84217094e-14 Z" id="Fill-1" fill="#0B379B"/>
                        <path d="M222.56232,393.961212 L222.712296,393.9694 C223.813296,394.0604 224.632296,395.0264 224.541296,396.1264 L224.541296,396.1264 L224.046296,402.1064 C223.958296,403.1504 223.084296,403.9394 222.055296,403.9394 C221.999296,403.9394 221.942296,403.9374 221.886296,403.9324 C220.785296,403.8404 219.968296,402.8724 220.060296,401.7724 L220.060296,401.7724 L220.555296,395.7984 C220.645296,394.6984 221.605296,393.8674 222.712296,393.9694 Z M224.438457,370.753572 L224.588296,370.7585 C225.690296,370.8475 226.511296,371.8115 226.423296,372.9115 C226.068296,377.3405 225.745296,381.3585 225.458296,384.8985 C225.373296,385.9445 224.498296,386.7365 223.467296,386.7365 C223.413296,386.7365 223.359296,386.7345 223.303296,386.7295 C222.202296,386.6405 221.382296,385.6755 221.472296,384.5735 C221.759296,381.0355 222.082296,377.0205 222.436296,372.5935 C222.523296,371.4925 223.482296,370.6825 224.588296,370.7585 Z M226.325417,346.788287 L226.474996,346.7927 C227.576996,346.8787 228.399996,347.8407 228.313996,348.9417 C227.988996,353.1187 227.674996,357.1227 227.374996,360.9267 C227.291996,361.9747 226.415996,362.7697 225.382996,362.7697 C225.329996,362.7697 225.277996,362.7677 225.223996,362.7637 C224.121996,362.6767 223.299996,361.7137 223.386996,360.6117 C223.686996,356.8107 223.999996,352.8067 224.325996,348.6317 C224.411996,347.5297 225.370996,346.7207 226.474996,346.7927 Z M228.160163,322.822796 L228.307996,322.8288 C229.409996,322.9118 230.234996,323.8728 230.151996,324.9738 C229.841996,329.0668 229.536996,333.0678 229.239996,336.9568 C229.159996,338.0068 228.282996,338.8048 227.246996,338.8048 C227.196996,338.8048 227.144996,338.8028 227.092996,338.7988 C225.991996,338.7148 225.166996,337.7528 225.250996,336.6518 C225.548996,332.7638 225.853996,328.7648 226.162996,324.6728 C226.245996,323.5698 227.217996,322.7438 228.307996,322.8288 Z M229.935339,298.860553 L230.085396,298.8649 C231.187396,298.9459 232.015396,299.9039 231.935396,301.0059 C231.638396,305.0549 231.343396,309.0559 231.049396,312.9909 C230.971396,314.0419 230.094396,314.8419 229.057396,314.8419 C229.007396,314.8419 228.956396,314.8399 228.905396,314.8359 C227.804396,314.7539 226.978396,313.7939 227.061396,312.6919 C227.355396,308.7599 227.649396,304.7619 227.944396,300.7149 C228.025396,299.6129 228.977396,298.7929 230.085396,298.8649 Z M231.651891,274.894883 L231.799196,274.8982 C232.902196,274.9752 233.732196,275.9312 233.654196,277.0332 C233.372196,281.0532 233.088196,285.0532 232.803196,289.0202 C232.727196,290.0732 231.849196,290.8772 230.810196,290.8772 C230.762196,290.8772 230.713196,290.8752 230.664196,290.8722 C229.563196,290.7932 228.734196,289.8352 228.813196,288.7332 C229.098196,284.7682 229.382196,280.7702 229.664196,276.7532 C229.742196,275.6522 230.713196,274.8342 231.799196,274.8982 Z M233.288745,250.914344 L233.439896,250.9216 C234.541896,250.9946 235.375896,251.9476 235.300896,253.0506 C235.033896,257.0476 234.761896,261.0516 234.486896,265.0476 C234.414896,266.1026 233.535896,266.9096 232.493896,266.9096 C232.447896,266.9096 232.400896,266.9076 232.353896,266.9046 C231.251896,266.8286 230.419896,265.8746 230.496896,264.7726 C230.771896,260.7786 231.043896,256.7776 231.310896,252.7826 C231.383896,251.6816 232.322896,250.8256 233.439896,250.9216 Z M234.839018,226.955355 L234.985796,226.9587 C236.088796,227.0277 236.925796,227.9777 236.856796,229.0797 C236.607796,233.0517 236.352796,237.0537 236.090796,241.0737 C236.021796,242.1317 235.141796,242.9437 234.096796,242.9437 C234.052796,242.9437 234.008796,242.9427 233.964796,242.9397 C232.862796,242.8677 232.027796,241.9167 232.098796,240.8137 C232.360796,236.7977 232.615796,232.7977 232.864796,228.8297 C232.933796,227.7287 233.903796,226.8937 234.985796,226.9587 Z M236.259743,202.969737 L236.410596,202.9714 C237.513596,203.0334 238.356596,203.9794 238.294596,205.0814 C238.070596,209.0244 237.835596,213.0294 237.592596,217.0824 C237.528596,218.1444 236.647596,218.9624 235.598596,218.9624 C235.557596,218.9624 235.516596,218.9614 235.475596,218.9584 C234.373596,218.8934 233.533596,217.9454 233.599596,216.8424 C233.843596,212.7944 234.076596,208.7934 234.300596,204.8554 C234.362596,203.7524 235.295596,202.9194 236.410596,202.9714 Z M237.662496,178.9733 C238.766496,179.0273 239.616496,179.9643 239.563496,181.0683 C239.374496,184.9693 239.171496,188.9783 238.954496,193.0773 C238.897496,194.1443 238.015496,194.9713 236.959496,194.9713 C236.923496,194.9713 236.888496,194.9703 236.851496,194.9683 C235.748496,194.9103 234.901496,193.9683 234.960496,192.8663 C235.177496,188.7733 235.380496,184.7703 235.567496,180.8743 C235.620496,179.7703 236.555496,178.9283 237.662496,178.9733 Z M238.48392,154.955325 L238.631296,154.9567 C239.735296,154.9937 240.600296,155.9187 240.564296,157.0217 C240.437296,160.8477 240.282296,164.8657 240.108296,169.0497 C240.063296,170.1247 239.177296,170.9657 238.110296,170.9657 C238.082296,170.9657 238.055296,170.9647 238.026296,170.9637 C236.922296,170.9177 236.065296,169.9847 236.111296,168.8817 C236.286296,164.7107 236.439296,160.7027 236.566296,156.8897 C236.603296,155.7857 237.543296,154.9047 238.631296,154.9567 Z M239.004296,130.9201 C240.106296,130.9201 241.000296,131.8111 241.004296,132.9131 L241.004296,132.9131 L241.007296,134.5451 C241.007296,137.6331 240.968296,141.1441 240.892296,144.9801 C240.869296,146.0711 239.979296,146.9401 238.893296,146.9401 L238.893296,146.9401 L238.852296,146.9401 C237.747296,146.9181 236.870296,146.0041 236.892296,144.9001 C236.968296,141.0901 237.007296,137.6071 237.007296,134.5451 L237.007296,134.5451 L237.004296,132.9271 C237.000296,131.8231 237.892296,130.9241 238.996296,130.9201 L238.996296,130.9201 Z M231.810196,109.5676 C232.495196,108.7016 233.753196,108.5566 234.619196,109.2416 C236.435196,110.6806 237.900196,112.1276 238.974196,113.5446 C239.569196,114.3606 240.205196,115.8296 240.602196,120.7726 C240.691196,121.8736 239.869196,122.8376 238.769196,122.9256 C238.714196,122.9306 238.660196,122.9326 238.607196,122.9326 C237.574196,122.9326 236.699196,122.1386 236.615196,121.0926 C236.277196,116.8846 235.803196,115.9976 235.749196,115.9106 C234.915196,114.8126 233.687196,113.6066 232.135196,112.3776 C231.270196,111.6916 231.123196,110.4336 231.810196,109.5676 Z M210.384296,98.7868 C210.803296,97.7658 211.971296,97.2758 212.994296,97.6968 C217.145296,99.4038 220.875296,101.0978 224.082296,102.7338 C225.066296,103.2358 225.456296,104.4398 224.954296,105.4238 C224.601296,106.1168 223.900296,106.5158 223.171296,106.5158 C222.865296,106.5158 222.555296,106.4458 222.264296,106.2968 C219.154296,104.7108 215.524296,103.0618 211.473296,101.3958 C210.451296,100.9758 209.964296,99.8078 210.384296,98.7868 Z M187.725096,90.7697 C188.066096,89.7187 189.192096,89.1447 190.244096,89.4837 C194.299096,90.7997 198.147096,92.1077 201.681096,93.3737 C202.721096,93.7457 203.262096,94.8907 202.890096,95.9307 C202.598096,96.7477 201.827096,97.2567 201.007096,97.2567 C200.784096,97.2567 200.556096,97.2197 200.333096,97.1397 C196.836096,95.8877 193.027096,94.5917 189.010096,93.2887 C187.959096,92.9477 187.384096,91.8197 187.725096,90.7697 Z M164.691896,83.8873 C164.993896,82.8253 166.098896,82.2073 167.162896,82.5103 C171.189896,83.6553 175.082896,84.7923 178.728896,85.8903 C179.786896,86.2083 180.385896,87.3243 180.067896,88.3823 C179.806896,89.2473 179.012896,89.8063 178.153896,89.8063 C177.961896,89.8063 177.767896,89.7783 177.576896,89.7203 C173.948896,88.6283 170.076896,87.4973 166.068896,86.3583 C165.005896,86.0563 164.389896,84.9503 164.691896,83.8873 Z M141.491596,77.6192 C141.771596,76.5502 142.862596,75.9142 143.933596,76.1912 C147.790596,77.2032 151.676596,78.2362 155.556596,79.2902 C156.622596,79.5802 157.252596,80.6782 156.962596,81.7442 C156.721596,82.6352 155.914596,83.2212 155.033596,83.2212 C154.860596,83.2212 154.683596,83.1982 154.508596,83.1502 C150.639596,82.1002 146.765596,81.0692 142.918596,80.0612 C141.850596,79.7802 141.211596,78.6872 141.491596,77.6192 Z M118.196596,71.6724 C118.465596,70.6004 119.550596,69.9484 120.624596,70.2214 C124.419596,71.1784 128.318596,72.1644 132.283596,73.1784 C133.353596,73.4514 133.999596,74.5414 133.725596,75.6114 C133.494596,76.5154 132.681596,77.1164 131.789596,77.1164 C131.625596,77.1164 131.458596,77.0954 131.292596,77.0534 C127.332596,76.0414 123.438596,75.0554 119.646596,74.1004 C118.575596,73.8304 117.926596,72.7434 118.196596,71.6724 Z M94.8852955,65.7778 C95.1592955,64.7078 96.2472955,64.0608 97.3192955,64.3378 C100.973296,65.2748 104.874296,66.2608 108.964296,67.2898 C110.035296,67.5598 110.685296,68.6458 110.416296,69.7168 C110.188296,70.6248 109.373296,71.2298 108.478296,71.2298 C108.316296,71.2298 108.152296,71.2098 107.988296,71.1688 C103.891296,70.1388 99.9852955,69.1508 96.3252955,68.2118 C95.2562955,67.9378 94.6102955,66.8478 94.8852955,65.7778 Z M71.7660955,59.1374 C72.1230955,58.0924 73.2590955,57.5344 74.3050955,57.8914 C77.0190955,58.8184 80.7540955,59.9284 85.7220955,61.2854 C86.7880955,61.5764 87.4150955,62.6764 87.1240955,63.7414 C86.8820955,64.6304 86.0760955,65.2154 85.1960955,65.2154 C85.0220955,65.2154 84.8450955,65.1924 84.6680955,65.1434 C79.6180955,63.7644 75.8060955,62.6304 73.0130955,61.6764 C71.9680955,61.3194 71.4090955,60.1824 71.7660955,59.1374 Z M78.2914955,4.644 C79.3904955,4.511 80.3874955,5.281 80.5264955,6.377 C80.5754955,6.765 81.7094955,16.012 79.8694955,26.34 C77.6034955,39.057 71.7584955,47.757 62.9034955,51.739 C63.3264955,52.076 63.7414955,52.424 64.1744955,52.739 C65.0684955,53.388 65.2664955,54.639 64.6174955,55.532 C64.2264955,56.071 63.6164955,56.357 62.9974955,56.357 C62.5904955,56.357 62.1794955,56.233 61.8244955,55.975 C58.5254955,53.58 55.5204955,50.625 52.8914955,47.192 C52.2204955,46.315 52.3874955,45.059 53.2644955,44.388 C54.1414955,43.717 55.3974955,43.883 56.0674955,44.76 C57.1654955,46.194 58.3424955,47.523 59.5734955,48.764 C80.6104955,41.317 76.6014955,7.225 76.5574955,6.878 C76.4194955,5.782 77.1964955,4.782 78.2914955,4.644 Z M43.8707955,22.4464 C44.9397955,22.1664 46.0327955,22.8004 46.3157955,23.8684 C47.3527955,27.7854 48.6577955,31.4804 50.1947955,34.8504 C50.6527955,35.8554 50.2107955,37.0424 49.2057955,37.5004 C48.9367955,37.6234 48.6537955,37.6814 48.3767955,37.6814 C47.6177955,37.6814 46.8917955,37.2464 46.5557955,36.5114 C44.9247955,32.9354 43.5427955,29.0264 42.4487955,24.8914 C42.1667955,23.8244 42.8027955,22.7294 43.8707955,22.4464 Z M41.6846955,4.6284 C42.7776955,4.6284 43.6706955,5.5074 43.6846955,6.6024 C43.6846955,6.6254 43.7176955,8.8664 44.1326955,12.3684 C44.2626955,13.4654 43.4786955,14.4604 42.3816955,14.5904 C42.3016955,14.5994 42.2226955,14.6034 42.1436955,14.6034 C41.1446955,14.6034 40.2806955,13.8564 40.1596955,12.8394 C39.7444834,9.33264242 39.6910803,7.04015115 39.6853033,6.69391418 L39.6846955,6.6514 C39.6716955,5.5474 40.5556955,4.6414 41.6596955,4.6284 L41.6596955,4.6284 Z" id="Combined-Shape" fill-opacity=".8" fill="#FFF" style="mix-blend-mode:overlay"/>
                    </g>
                </g>
            </g>
        </g>
        <g id="Upper Body" transform="translate(272.000000, 187.000000) scale(1 1)">
            <g id="Upper Body/Arms Crossed" stroke="none" stroke-width="1" fill="none" fill-rule="evenodd">
                <g id="T-Shirt" transform="translate(125.061247, 75.239887)">
                    <path d="M29.2759979,310.587013 C27.8869979,299.291013 17.6583529,224.870013 15.2753529,182.778013 C-1.6896471,186.355013 -4.0336471,109.182013 17.9023529,59.7550133 C52.8483529,-18.9849867 172.812353,5.63301326 172.812353,5.63301326 C172.812353,5.63301326 208.653353,3.95501326 244.035353,32.9120133 C259.850353,45.8560133 277.267353,74.7600133 285.930353,106.497013 C283.219353,115.274013 254.552353,154.619013 244.099353,161.313013 C260.256353,239.790013 273.042353,310.587013 273.042353,310.587013 C273.042353,310.587013 64.7529979,313.840013 29.2759979,310.587013 Z" id="Fill-1" fill="#ff4b33"/>
                    <path d="M270.675753,309.664213 C268.394753,296.653213 256.539753,231.656213 242.139753,161.716213 C241.972753,160.905213 242.323753,160.075213 243.020753,159.629213 C253.120753,153.161213 280.396753,115.548213 283.838753,106.431213 C275.620753,76.7412133 259.161753,47.8762133 242.768753,34.4602133 C208.444753,6.36921326 173.252753,7.61121326 172.904753,7.63121326 C172.736753,7.63521326 172.572753,7.62521326 172.410753,7.59221326 C172.112753,7.53221326 142.245753,1.53421326 108.580753,5.16521326 C88.9107529,7.28721326 71.8127529,12.2312133 57.7587529,19.8622133 C40.3067529,29.3392133 27.5117529,43.0342133 19.7307529,60.5672133 C11.2027529,79.7822133 5.5677529,105.438213 4.2727529,130.957213 C3.1167529,153.719213 5.7057529,172.549213 10.8687529,178.928213 C12.5637529,181.021213 13.9607529,181.014213 14.8627529,180.821213 C15.4347529,180.702213 16.0287529,180.836213 16.4907529,181.189213 C16.9547529,181.544213 17.2397529,182.082213 17.2727529,182.665213 C19.3307529,219.015213 27.7937529,277.359213 30.9797529,301.957213 C31.3307529,304.665213 31.6147529,306.863213 31.8177529,308.453213 C68.7177529,311.165213 248.199753,310.401213 270.675753,309.664213 Z M29.8527529,312.305213 C28.9157529,312.219213 28.1657529,311.492213 28.0507529,310.557213 C27.8637529,309.038213 27.5037529,306.255213 27.0127529,302.471213 C23.8787529,278.269213 15.6437529,221.692213 13.3947529,184.857213 C11.6657529,184.671213 9.6657529,183.800213 7.7587529,181.444213 C1.9227529,174.233213 -0.944247096,154.810213 0.277752904,130.755213 C1.5977529,104.764213 7.3557529,78.5902133 16.0747529,58.9442133 C30.6697529,26.0592133 62.5427529,6.08421326 108.248753,1.17821326 C140.889753,-2.32778674 170.009753,3.05221326 172.969753,3.62621326 C176.508753,3.50421326 210.884753,3.19721326 245.301753,31.3642133 C262.394753,45.3542133 279.497753,75.3352133 287.859753,105.970213 C287.959753,106.337213 287.953753,106.724213 287.840753,107.087213 C285.255753,115.455213 258.137753,153.297213 246.322753,162.196213 C262.177753,239.332213 274.885753,310.511213 275.012753,311.245213 C275.111753,311.815213 274.959753,312.400213 274.593753,312.849213 C274.228753,313.297213 273.687753,313.566213 273.109753,313.586213 C266.277753,313.815213 135.369753,313.186213 66.3587529,313.186213 C49.7177529,313.186213 36.6907529,312.932213 29.8527529,312.305213 Z" id="Fill-3" fill="#141414"/>
                </g>
                <g id="Neck" transform="translate(230.369805, 47.999770)">
                    <path d="M18.0946948,2.12593033 C18.0946948,2.12593033 16.7366948,36.5639303 2.50769479,41.4819303 C-1.36330521,60.8379303 24.8686948,74.0549303 44.8086948,73.1189303 C83.4096948,71.3069303 71.3956948,39.7559303 68.7416948,39.6699303 C68.8186948,35.7149303 70.9506948,6.13293033 70.9506948,6.13293033 L18.0946948,2.12593033 Z" id="SKIN" fill="#FFF"/>
                    <path d="M4.40669479,43.0048303 C3.71569479,48.0668303 5.28469479,52.8638303 9.08169479,57.2798303 C16.4496948,65.8508303 31.4296948,71.6278303 44.7096948,70.9948303 C57.9766948,70.3718303 66.5056948,65.9558303 69.3726948,58.2248303 C72.0666948,50.9638303 69.0996948,43.0898303 67.9016948,41.6248303 C67.1306948,41.2928303 66.5976948,40.5188303 66.6146948,39.6288303 C66.6816948,36.2428303 68.1856948,14.9838303 68.6786948,8.09283033 L20.0886948,4.40983033 C19.5236948,12.1098303 16.7476948,37.2578303 4.40669479,43.0048303 M42.7796948,75.2928303 C28.8506948,75.2928303 13.6116948,69.0728303 5.85669479,60.0528303 C0.956694787,54.3548303 -0.922305213,47.7878303 0.422694787,41.0658303 C0.570694787,40.3248303 1.09969479,39.7188303 1.81269479,39.4728303 C12.3476948,35.8318303 15.6036948,11.2178303 15.9696948,2.04183033 C15.9926948,1.46483033 16.2486948,0.921830328 16.6796948,0.537830328 C17.1116948,0.153830328 17.6846948,-0.0331696718 18.2556948,0.00483032817 L71.1116948,4.01183033 C72.2796948,4.10083033 73.1566948,5.11683033 73.0726948,6.28583033 C73.0526948,6.56183033 71.2046948,32.2198303 70.9066948,38.6698303 C73.2216948,41.1648303 74.6906948,47.2798303 74.7224094,51.6108303 C74.7666948,57.6788303 72.6856948,62.9738303 68.7026948,66.9228303 C63.6436948,71.9408303 55.6376948,74.7398303 44.9086948,75.2438303 C44.2036948,75.2758303 43.4926948,75.2928303 42.7796948,75.2928303" id="Fill-8" fill="#141414"/>
                </g>
                <g id="Hand" transform="translate(124.000008, 152.285658)">
                    <path d="M286.914192,29.1432416 L232.053192,36.8312416 L238.111192,72.2362416 C238.111192,72.2362416 159.159192,64.5892416 132.040192,55.6112416 C118.391192,51.0922416 100.749192,56.1232416 93.8381917,70.3272416 C90.1821917,77.8412416 92.5381917,97.3932416 92.5381917,97.3932416 C92.5381917,97.3932416 117.968192,97.0462416 125.233192,97.0462416 C125.976192,97.0462416 126.936192,97.2962416 128.082192,97.7442416 L91.5721917,98.1342416 L89.7421917,45.4382416 L3.79919171,46.5242416 C3.79919171,46.5242416 -12.5248083,160.019242 52.7971917,177.688242 C112.316192,193.788242 184.228192,139.299242 189.849192,134.943242 C217.777192,149.480242 250.978192,160.882242 282.243192,152.901242 C321.784192,142.808242 288.530192,33.6192416 286.914192,29.1432416" id="SKIN" fill="#FFF"/>
                    <path d="M294.148592,140.620342 C291.189592,146.205342 287.133592,149.588342 281.748592,150.963342 C233.417592,163.301342 180.871592,128.835342 149.474592,108.244342 C139.090592,101.433342 132.732592,97.3343416 128.547592,95.7753416 C128.537592,95.7633416 128.524592,95.7513416 128.514592,95.7393416 L128.447592,95.7403416 C127.200592,95.2843416 126.139592,95.0463416 125.232592,95.0463416 C119.172592,95.0463416 100.293592,95.2893416 94.3325917,95.3693416 C93.7245917,89.0713416 93.1215917,76.3723416 95.6365917,71.2023416 C100.897592,60.3923416 115.714592,52.3143416 131.412592,57.5103416 C158.356592,66.4303416 234.247592,73.8713416 237.881592,74.2243416 L250.947592,75.9653416 C251.037592,75.9773416 251.126592,75.9833416 251.214592,75.9833416 C252.201592,75.9833416 253.060592,75.2523416 253.194592,74.2473416 C253.340592,73.1523416 252.571592,72.1463416 251.476592,72.0003416 L239.835592,70.4483416 L234.372592,38.5253416 L285.533592,31.3563416 C287.250592,36.8483416 292.453592,54.9383416 296.021592,75.6503416 C301.247592,105.978342 300.598592,128.444342 294.148592,140.620342 M75.9495917,178.631342 C68.3005917,178.631342 60.7005917,177.754342 53.3195917,175.758342 C27.0995917,168.665342 11.1095917,144.958342 5.79459171,105.293342 C2.34259171,79.5283416 4.78559171,55.0393416 5.56359171,48.5023416 L87.8115917,47.4623416 L89.5735917,98.2033416 C89.6115917,99.2893416 90.5135917,100.123342 91.5935917,100.134342 L127.751592,99.7473416 C131.860592,101.478342 139.122592,106.237342 147.280592,111.588342 C158.075592,118.668342 171.332592,127.356342 186.077592,135.269342 C173.719592,144.336342 123.801592,178.634342 75.9495917,178.631342 M288.794592,28.4643416 C288.473592,27.5753416 287.574592,27.0343416 286.636592,27.1623416 L233.640592,34.5893416 L226.983592,1.60534157 C226.763592,0.522341568 225.705592,-0.179658432 224.627592,0.0403415676 C223.543592,0.259341568 222.843592,1.31334157 223.061592,2.39634157 L230.086592,37.2003416 L235.697592,69.9843416 C221.817592,68.5673416 156.502592,61.6023416 132.668592,53.7133416 C125.470592,51.3293416 117.115592,51.4573416 109.745592,54.0623416 C102.155592,56.7473416 96.0905917,61.8473416 92.5435917,68.4813416 L91.7525917,45.6903416 C91.7615917,45.6043416 91.7745917,45.5203416 91.7735917,45.4323416 L91.0725917,4.73134157 C91.0545917,3.62734157 90.1895917,2.72734157 89.0385917,2.76634157 C87.9345917,2.78534157 87.0545917,3.69634157 87.0735917,4.80034157 L87.7395917,43.4633416 L3.77359171,44.5243416 C2.78859171,44.5373416 1.95959171,45.2653416 1.81959171,46.2403416 C1.77759171,46.5263416 -2.25340829,75.2413416 1.81959171,105.745342 C7.27959171,146.622342 24.7265917,172.167342 52.2755917,179.619342 C60.0245917,181.715342 67.9705917,182.619342 75.9165917,182.619342 C101.411592,182.619342 126.877592,173.315342 145.618592,164.262342 C167.950592,153.473342 185.061592,141.065342 190.003592,137.339342 C211.527592,148.470342 235.950592,157.567342 260.436592,157.567342 C267.890592,157.567342 275.352592,156.724342 282.738592,154.839342 C289.186592,153.192342 294.214592,149.038342 297.682592,142.493342 C314.846592,110.095342 289.076592,29.2423416 288.794592,28.4643416" id="Fill-13" fill="#141414"/>
                </g>
            </g>
        </g>
        <g id="Head" transform="translate(439.000000, 92.000000) scale(1 1)">
            <g id="Head/Short Hair 4" stroke="none" stroke-width="1" fill="none" fill-rule="evenodd">
                <g id="Short-Hair" transform="translate(4.000076, -0.999876)">
                    <path d="M148.656724,91.1807762 C141.372724,46.6367762 119.609724,45.3307762 78.981724,48.3837762 C59.904724,49.8167762 36.092724,67.0937762 38.223724,98.4007762 C27.074724,94.1317762 20.822724,101.159776 21.199724,109.557776 C21.539724,117.097776 24.951724,127.030776 38.822724,127.030776 C40.166724,150.025776 55.176724,187.069776 102.317724,187.069776 C150.451724,187.069776 154.972724,129.807776 148.656724,91.1807762" id="SKIN" fill="#FFF"/>
                    <path d="M134.120624,171.340376 C114.076624,195.314376 68.521624,185.620376 53.235624,162.175376 C45.079624,152.308376 40.867624,133.557376 40.819624,126.914376 C40.812624,125.854376 39.881624,125.030376 38.822624,125.030376 C23.856624,125.935376 18.866624,107.491376 26.850624,100.631376 C30.598624,97.8083762 35.746624,98.7553762 39.558624,100.937376 C40.125624,101.262376 55.261624,100.025376 64.936624,71.0023762 C83.792624,81.9793762 119.158624,87.3553762 143.696624,78.2193762 C151.496624,107.091376 152.336624,149.278376 134.120624,171.340376 M42.971624,31.4713762 C52.315624,-1.92862383 106.582624,-10.0816238 126.499624,13.4813762 C148.543624,3.23737617 176.870624,6.21937617 180.716624,30.2633762 C182.976624,50.3173762 166.339624,67.3323762 147.377624,76.6643762 C155.704624,107.035376 156.648624,150.335376 137.170624,173.929376 C111.316624,204.847376 55.094624,183.990376 44.703624,155.778376 C33.897624,153.042376 28.481624,145.170376 24.224624,131.587376 C7.74362396,123.486376 -18.849376,64.6143762 20.356624,36.5423762 C27.497624,31.7913762 35.456624,30.0203762 42.971624,31.4713762 Z M32.783224,107.032276 C29.827224,106.929276 29.827224,115.161276 32.783224,115.058276 C35.739224,115.161276 35.739224,106.928276 32.783224,107.032276 Z" id="hair" fill="#141414"/>
                </g>
            </g>
        </g>
        <g id="Face" transform="translate(499.000000, 178.000000) scale(1 1)">
            <g id="Face/Surprise" stroke="none" stroke-width="1" fill="none" fill-rule="evenodd">
                <g id="Surprise" transform="translate(4.999909, 12.999750)">
                    <path d="M43.8859911,56.4708499 C48.2179911,55.8438499 52.0609911,57.6238499 52.4689911,60.4468499 C52.8779911,63.2688499 49.6969911,66.0648499 45.3649911,66.6918499 C41.0319911,67.3188499 37.1889911,65.5378499 36.7809911,62.7158499 C36.3729911,59.8938499 39.5529911,57.0968499 43.8859911,56.4708499 Z M44.7246891,29.3212148 L44.8514911,29.3259499 C45.4554911,29.3789499 45.9214911,29.8579499 45.9764911,30.4409499 L45.9764911,30.4409499 C46.1414911,32.1759499 46.3104911,33.9099499 46.5584911,35.5469499 C46.6214911,35.9529499 46.6954911,36.3509499 46.7824911,36.7149499 C46.8174911,36.8799499 46.8724911,37.0589499 46.9224911,37.1999499 C47.0954911,37.2899499 47.2684911,37.3789499 47.4394911,37.4849499 C47.9004911,37.7659499 48.3524911,38.1059499 48.7744911,38.5179499 C49.6154911,39.3089499 50.3624911,40.5279499 50.4424911,41.9329499 C50.5344911,43.3399499 49.9114911,44.6659499 49.0644911,45.5379499 C48.2094911,46.4299499 47.1484911,46.9729499 46.0774911,47.2519499 C45.5414911,47.3959499 44.9984911,47.4609499 44.4644911,47.4859499 C43.9324911,47.4879499 43.3884911,47.5619499 42.9044911,47.2329499 C42.2634911,46.7979499 42.0964911,45.9259499 42.5314911,45.2859499 C42.6354911,45.1319499 42.7644911,45.0059499 42.9104911,44.9089499 L42.9104911,44.9089499 L43.1774911,44.7329499 C43.5654911,44.4749499 43.8994911,44.6039499 44.2414911,44.5229499 C44.5794911,44.4759499 44.9094911,44.4089499 45.2104911,44.2949499 C45.8194911,44.0859499 46.3484911,43.7479499 46.6824911,43.3449499 C47.0274911,42.9439499 47.1534911,42.5249499 47.1074911,42.1709499 C47.0624911,41.8169499 46.8554911,41.4149499 46.4054911,41.0349499 C46.1904911,40.8439499 45.9294911,40.6649499 45.6354911,40.5039499 C45.4924911,40.4179499 45.3424911,40.3379499 45.1804911,40.2649499 L45.1804911,40.2649499 L45.0624911,40.2069499 L44.9724911,40.1629499 C44.8314911,40.0919499 44.6854911,40.0029499 44.5694911,39.9099499 C44.1584911,39.5599499 44.0454911,39.3089499 43.9154911,39.0839499 C43.5424911,38.2849499 43.5334911,37.8189499 43.4444911,37.2989499 C43.3834911,36.7999499 43.3504911,36.3269499 43.3284911,35.8609499 C43.2524911,34.0069499 43.3544911,32.2299499 43.5104911,30.4509499 C43.5694911,29.7699499 44.1694911,29.2659499 44.8514911,29.3259499 Z M13.1099911,24.6535499 C13.5179911,21.8315499 15.9169911,19.8425499 18.4679911,20.2115499 C21.0189911,20.5805499 22.7559911,23.1685499 22.3479911,25.9905499 C21.9399911,28.8125499 19.5409911,30.8015499 16.9889911,30.4325499 C14.4389911,30.0635499 12.7019911,27.4765499 13.1099911,24.6535499 Z M63.3205911,18.4855499 C65.8715911,18.1165499 68.2705911,20.1055499 68.6785911,22.9275499 C69.0875911,25.7505499 67.3505911,28.3375499 64.7995911,28.7065499 C62.2485911,29.0755499 59.8495911,27.0865499 59.4405911,24.2645499 C59.0325911,21.4415499 60.7695911,18.8545499 63.3205911,18.4855499 Z M17.8050911,0.974822564 C19.4640911,0.967849885 20.8140911,2.30684988 20.8211185,3.96484988 C20.8280911,5.62284988 19.4900911,6.97284988 17.8320911,6.97984988 C17.7600911,6.98084988 17.6820911,6.97784988 17.6120911,6.97284988 C14.9310911,6.78784988 12.1830911,7.52884988 9.68909113,9.04884988 C8.43709113,9.79884988 7.25709113,10.7388499 6.17309113,11.8148499 C5.09309113,12.8978499 4.08009113,14.0738499 2.97109113,15.2618499 L2.97109113,15.2618499 L2.93709113,15.2978499 C2.29709113,15.9828499 1.22309113,16.0198499 0.53809113,15.3798499 C0.0290911303,14.9048499 -0.12090887,14.1878499 0.0970911303,13.5708499 C0.70609113,11.8618499 1.65309113,10.2828499 2.80009113,8.84084988 C3.94209113,7.39284988 5.25709113,6.03984988 6.76609113,4.86184988 C8.27309113,3.68184988 9.99609113,2.71384988 11.8630911,2.02184988 C13.7300911,1.32884988 15.7560911,0.983849885 17.7790911,0.974822564 L17.7790911,0.974822564 Z M60.5518911,0.00144988493 C60.7348911,-0.00455011507 60.9328911,0.00844988493 61.1088911,0.0334498849 C62.8208911,0.288449885 64.5468911,0.568449885 66.2888911,0.965449885 C68.0288911,1.36644988 69.7828911,1.93344988 71.4998911,2.73044988 C73.2058911,3.53044988 74.8978911,4.58544988 76.2478911,5.99544988 C77.6078911,7.39044988 78.6128911,9.05344988 79.2448911,10.7564499 C79.6108911,11.7434499 79.1078911,12.8394499 78.1218911,13.2064499 C77.2798911,13.5184499 76.3578911,13.1984499 75.8778911,12.4854499 L75.8778911,12.4854499 L75.8588911,12.4564499 C74.1938911,9.98144988 72.2638911,8.19744988 69.6158911,7.25644988 C68.2998911,6.78844988 66.8448911,6.55744988 65.3518911,6.40544988 C63.8568911,6.25444988 62.3088911,6.22244988 60.7448911,6.27144988 C59.0138911,6.32444988 57.5668911,4.96444988 57.5138911,3.23344988 C57.4598911,1.50244988 58.8198911,0.0544498849 60.5518911,0.00144988493 Z" id="Face" fill="#141414"/>
                    <path d="M19.7138911,50.2317499 C22.1588911,49.0907499 23.9238911,52.8867499 21.4838911,54.0247499 C19.0378911,55.1657499 17.2738911,51.3707499 19.7138911,50.2317499 Z M10.2637911,53.8474499 C6.37179113,53.1874499 10.6667911,48.1584499 12.0087911,51.3684499 C12.8497911,52.6374499 11.8637911,54.4344499 10.2637911,53.8474499 Z M66.0674618,44.2542493 C68.5364618,44.2342493 68.5734618,48.0702493 66.0994618,48.0912493 C63.6304618,48.1122493 63.5944618,44.2762493 66.0674618,44.2542493 Z M15.5090911,43.1056499 C16.9890911,42.4156499 18.0580911,44.7136499 16.5800911,45.4026499 C15.0990911,46.0926499 14.0300911,43.7956499 15.5090911,43.1056499 Z M22.8534911,40.5694499 C24.8724911,39.6284499 26.3294911,42.7624499 24.3144911,43.7024499 C22.2944911,44.6434499 20.8374911,41.5104499 22.8534911,40.5694499 Z M71.5169401,41.1553999 C71.3609401,37.9693999 76.8989401,40.4373999 73.9389401,42.5173999 C72.8459401,43.6353999 71.3229401,42.5363999 71.5169401,41.1553999 Z M60.5171632,37.2932784 C62.5561632,37.2762784 62.5861632,40.4442784 60.5431632,40.4612784 C58.5051632,40.4792784 58.4751632,37.3112784 60.5171632,37.2932784 Z M67.9271744,34.2885996 C69.4221744,34.2755996 69.4451744,36.5995996 67.9471744,36.6115996 C66.4511744,36.6245996 66.4301744,34.3015996 67.9271744,34.2885996 Z" id="dots" fill="#ff4b33"/>
                </g>
            </g>
        </g>
        <g id="Accessories" transform="translate(491.000000, 176.000000) scale(1 1)" fill="#000">
            <g id="Accessories/None" stroke="none" stroke-width="1" fill="none" fill-rule="evenodd" fill-opacity="0"/>
        </g>
        <g id="Facial Hair" transform="translate(501.000000, 234.000000) scale(1 1)" fill="#000">
            <g id="Facial Hair/None" stroke="none" stroke-width="1" fill="none" fill-rule="evenodd" fill-opacity="0"/>
        </g>
    </g>
</svg>
