<svg viewBox="90 240 2070 1260" xmlns="http://www.w3.org/2000/svg" overflow="visible">
    <g id="Master/Backgrounds/Chart" stroke="none" stroke-width="1" fill="none" fill-rule="evenodd">
        <g id="Big Plants" transform="translate(532.000000, 806.000000) scale(-1, 1) translate(-532.000000, -806.000000) translate(0.000000, 126.000000) scale(1 1)">
            <g id="Big Plants/3" stroke="none" stroke-width="1" fill="none" fill-rule="evenodd">
                <g id="Plant" transform="translate(266.000000, 680.000000)" fill-rule="nonzero">
                    <g id="Leaf" transform="translate(0.000019, 0.000000)">
                        <path d="M85.0729175,680 C85.0729175,680 -18.2061692,618.105738 2.82552094,506.112596 C15.3795915,439.260435 57.9625194,442.537708 82.6090625,391.924942 C98.3383687,359.623111 74.4391751,272.932354 123.495467,215.904012 C169.322571,162.628837 244.255335,167.457765 268.391323,155.885334 C300.739161,140.374776 313.058436,107.791009 322.304387,81.0299485 C356.78337,-18.7429057 436.443019,-16.0485037 449.409731,33.5894785 C465.043121,93.4341953 450.075151,129.50219 376.524184,188.151172 C321.258298,232.22039 402.173854,281.663416 354.040758,361.902606 C327.145173,406.738654 254.823135,430.043481 290.15038,488.017613 C338.526264,567.405992 329.440175,645.448669 304.776646,680 L85.0729175,680 Z" id="Assets-10" fill="#FF4B33"/>
                        <path d="M386.406275,84.5753413 C385.623542,83.8014543 384.361199,83.8084442 383.586443,84.5953125 C383.327194,84.8579348 357.243745,111.466666 323.282116,157.474498 C291.950868,199.923447 247.281255,268.077428 212.41026,351.699163 C181.433984,425.984326 147.117384,530.414135 156.607894,680 L160.604318,680 C151.109819,531.103144 185.263891,427.164628 216.0906,353.23795 C282.511211,193.957028 385.394206,88.4467734 386.426217,87.3992799 C387.198979,86.6154072 387.190005,85.3492283 386.406275,84.5753413" id="Assets-11" fill="#FFF"/>
                        <path d="M454.728602,314 C448.48621,314 442.130083,319.163661 442.130083,325.420251 C442.130083,326.461183 442.281728,327.463117 442.544114,328.421054 C389.696777,354.402351 342.564067,388.051144 302.31924,428.561488 C268.079362,463.028228 238.72106,502.506639 215.060426,545.895794 C194.009685,584.501262 181.458055,619.125992 174.636019,641.375533 C168.254951,662.184168 165.551277,676.375238 164.908781,680 L168.963293,680 C169.768409,675.598289 172.47308,662.045177 178.450094,642.549456 C185.218257,620.478903 197.671117,586.126156 218.561234,547.815668 C242.041291,504.756491 271.17412,465.58306 305.147622,431.384303 C345.071201,391.196938 391.831781,357.812127 444.267082,332.028818 C446.318283,334.882631 449.654476,336.747508 453.431637,336.747508 C459.67403,336.747508 464.908781,332.76377 464.908781,326.50818 C464.908781,320.25259 460.969998,314 454.728602,314" id="Assets-12" fill="#141414"/>
                        <path d="M521.335481,442.953 C515.078481,442.953 508.707481,448.117 508.707481,454.374 L508.707481,454.377 C489.337481,457.849 456.647481,465.101 397.233481,486.976 C318.151481,516.094 263.489481,566.93 231.560481,604.445 C196.958481,645.101 180.814481,679.387 180.654481,679.728 C180.613481,679.817 180.588481,679.908 180.561481,680 L184.973481,680 C188.352481,673.205 204.340481,642.578 234.694481,606.933 C266.304481,569.818 320.400481,519.529 398.616481,490.73 C457.727481,468.967 490.195481,461.762 509.425481,458.312 C511.026481,462.624 515.166481,465.702 520.035481,465.702 C526.292481,465.702 531.539481,461.719 531.539481,455.462 C531.539481,449.205 527.592481,442.953 521.335481,442.953" id="Assets-13" fill="#141414"/>
                    </g>
                </g>
            </g>
        </g>
        <g id="Big Plants" transform="translate(1336.000000, 126.000000) scale(1 1)">
            <g id="Big Plants/3" stroke="none" stroke-width="1" fill="none" fill-rule="evenodd">
                <g id="Plant" transform="translate(266.000000, 680.000000)" fill-rule="nonzero">
                    <g id="Leaf" transform="translate(0.000019, 0.000000)">
                        <path d="M85.0729175,680 C85.0729175,680 -18.2061692,618.105738 2.82552094,506.112596 C15.3795915,439.260435 57.9625194,442.537708 82.6090625,391.924942 C98.3383687,359.623111 74.4391751,272.932354 123.495467,215.904012 C169.322571,162.628837 244.255335,167.457765 268.391323,155.885334 C300.739161,140.374776 313.058436,107.791009 322.304387,81.0299485 C356.78337,-18.7429057 436.443019,-16.0485037 449.409731,33.5894785 C465.043121,93.4341953 450.075151,129.50219 376.524184,188.151172 C321.258298,232.22039 402.173854,281.663416 354.040758,361.902606 C327.145173,406.738654 254.823135,430.043481 290.15038,488.017613 C338.526264,567.405992 329.440175,645.448669 304.776646,680 L85.0729175,680 Z" id="Assets-10" fill="#FF4B33"/>
                        <path d="M386.406275,84.5753413 C385.623542,83.8014543 384.361199,83.8084442 383.586443,84.5953125 C383.327194,84.8579348 357.243745,111.466666 323.282116,157.474498 C291.950868,199.923447 247.281255,268.077428 212.41026,351.699163 C181.433984,425.984326 147.117384,530.414135 156.607894,680 L160.604318,680 C151.109819,531.103144 185.263891,427.164628 216.0906,353.23795 C282.511211,193.957028 385.394206,88.4467734 386.426217,87.3992799 C387.198979,86.6154072 387.190005,85.3492283 386.406275,84.5753413" id="Assets-11" fill="#FFF"/>
                        <path d="M454.728602,314 C448.48621,314 442.130083,319.163661 442.130083,325.420251 C442.130083,326.461183 442.281728,327.463117 442.544114,328.421054 C389.696777,354.402351 342.564067,388.051144 302.31924,428.561488 C268.079362,463.028228 238.72106,502.506639 215.060426,545.895794 C194.009685,584.501262 181.458055,619.125992 174.636019,641.375533 C168.254951,662.184168 165.551277,676.375238 164.908781,680 L168.963293,680 C169.768409,675.598289 172.47308,662.045177 178.450094,642.549456 C185.218257,620.478903 197.671117,586.126156 218.561234,547.815668 C242.041291,504.756491 271.17412,465.58306 305.147622,431.384303 C345.071201,391.196938 391.831781,357.812127 444.267082,332.028818 C446.318283,334.882631 449.654476,336.747508 453.431637,336.747508 C459.67403,336.747508 464.908781,332.76377 464.908781,326.50818 C464.908781,320.25259 460.969998,314 454.728602,314" id="Assets-12" fill="#141414"/>
                        <path d="M521.335481,442.953 C515.078481,442.953 508.707481,448.117 508.707481,454.374 L508.707481,454.377 C489.337481,457.849 456.647481,465.101 397.233481,486.976 C318.151481,516.094 263.489481,566.93 231.560481,604.445 C196.958481,645.101 180.814481,679.387 180.654481,679.728 C180.613481,679.817 180.588481,679.908 180.561481,680 L184.973481,680 C188.352481,673.205 204.340481,642.578 234.694481,606.933 C266.304481,569.818 320.400481,519.529 398.616481,490.73 C457.727481,468.967 490.195481,461.762 509.425481,458.312 C511.026481,462.624 515.166481,465.702 520.035481,465.702 C526.292481,465.702 531.539481,461.719 531.539481,455.462 C531.539481,449.205 527.592481,442.953 521.335481,442.953" id="Assets-13" fill="#141414"/>
                    </g>
                </g>
            </g>
        </g>
        <g id="Screen" transform="translate(556.500000, 271.074400) scale(1 1)">
            <g id="Screen/Conference" stroke="none" stroke-width="1" fill="none" fill-rule="evenodd">
                <g id="Window" transform="translate(31.000000, 0.000000)" stroke="#141414">
                    <rect id="Frame" stroke-width="5" fill="#FFF" x="2.5" y="2.5" width="1045" height="827" rx="54"/>
                    <path d="M996,2.5 L54,2.5 C39.7786677,2.5 26.9036677,8.26433385 17.5840008,17.5840008 C8.26433385,26.9036677 2.5,39.7786677 2.5,54 L2.5,123.5 L1047.5,123.5 L1047.5,54 C1047.5,39.7786677 1041.73567,26.9036677 1032.416,17.5840008 C1023.09633,8.26433385 1010.22133,2.5 996,2.5 Z" id="Title" stroke-width="5" fill="#FFF"/>
                    <g id="Buttons" transform="translate(65.000000, 45.000000)" stroke-width="4">
                        <circle id="Assets-98" fill="#FF4B33" cx="20" cy="20" r="18"/>
                        <circle id="btn" fill="#FFF" cx="84" cy="20" r="18"/>
                        <circle id="btn" fill="#FFF" cx="148" cy="20" r="18"/>
                    </g>
                </g>
                <g id="Object" transform="translate(203.000000, 123.000000)"/>
                <rect id="Rectangle" fill="#FFF" x="679" y="268" width="607" height="620" rx="28"/>
                <g id="Chat-Window" transform="translate(679.000000, 266.000000)">
                    <g id="Border-Box" transform="translate(0.000300, 0.000200)" fill="#141414">
                        <path d="M24.885,4 C13.369,4 4,13.369 4,24.886 L4,597.121 C4,608.638 13.369,618.007 24.885,618.007 L582.746,618.007 C594.262,618.007 603.632,608.638 603.632,597.121 L603.632,24.886 C603.632,13.369 594.262,4 582.746,4 L24.885,4 Z M24.885,622.007 C11.163,622.007 0,610.843 0,597.121 L0,24.886 C0,11.164 11.163,0 24.885,0 L582.746,0 C596.468,0 607.632,11.164 607.632,24.886 L607.632,597.121 C607.632,610.843 596.468,622.007 582.746,622.007 L24.885,622.007 Z" id="Fill-1"/>
                        <path d="M604.6979,81.6201 L2.0049,81.6201 C0.9009,81.6201 0.0049,80.7241 0.0049,79.6201 C0.0049,78.5161 0.9009,77.6201 2.0049,77.6201 L604.6979,77.6201 C605.8019,77.6201 606.6979,78.5161 606.6979,79.6201 C606.6979,80.7241 605.8019,81.6201 604.6979,81.6201" id="Fill-18"/>
                    </g>
                    <g id="Button" transform="translate(30.090000, 27.355100)">
                        <path d="M51.117,4 C46.09,4 42,8.09 42,13.117 C42,18.145 46.09,22.234 51.117,22.234 C56.144,22.234 60.234,18.145 60.234,13.117 C60.234,8.09 56.144,4 51.117,4 M51.117,26.234 C43.884,26.234 38,20.35 38,13.117 C38,5.884 43.884,0 51.117,0 C58.35,0 64.234,5.884 64.234,13.117 C64.234,20.35 58.35,26.234 51.117,26.234" id="Fill-8" fill="#141414"/>
                        <path d="M88.9642,4 C83.9372,4 79.8462,8.09 79.8462,13.117 C79.8462,18.145 83.9372,22.234 88.9642,22.234 C93.9912,22.234 98.0812,18.145 98.0812,13.117 C98.0812,8.09 93.9912,4 88.9642,4 M88.9642,26.234 C81.7312,26.234 75.8462,20.35 75.8462,13.117 C75.8462,5.884 81.7312,0 88.9642,0 C96.1972,0 102.0812,5.884 102.0812,13.117 C102.0812,20.35 96.1972,26.234 88.9642,26.234" id="Fill-14" fill="#141414"/>
                        <g id="Active" transform="translate(0.152900, 0.000000)">
                            <path d="M24.2342,13.1172 C24.2342,19.2572 19.2562,24.2342 13.1172,24.2342 C6.9772,24.2342 2.0002,19.2572 2.0002,13.1172 C2.0002,6.9772 6.9772,2.0002 13.1172,2.0002 C19.2562,2.0002 24.2342,6.9772 24.2342,13.1172" id="Fill-4" fill="#FF4B33"/>
                            <path d="M13.117,4 C8.09,4 4,8.09 4,13.117 C4,18.145 8.09,22.234 13.117,22.234 C18.144,22.234 22.234,18.145 22.234,13.117 C22.234,8.09 18.144,4 13.117,4 M13.117,26.234 C5.884,26.234 1.88293825e-13,20.35 1.88293825e-13,13.117 C1.88293825e-13,5.884 5.884,1.98951966e-13 13.117,1.98951966e-13 C20.35,1.98951966e-13 26.234,5.884 26.234,13.117 C26.234,20.35 20.35,26.234 13.117,26.234" id="Fill-6" fill="#141414"/>
                        </g>
                    </g>
                </g>
                <path d="M968,681 L968,825 L931,825 L931,681 L968,681 Z M832,540 L832,825 L795,825 L795,540 L832,540 Z M903,619 L903,825 L866,825 L866,619 L903,619 Z M1040,724 L1040,825 L1003,825 L1003,724 L1040,724 Z M1111,747 L1111,825 L1074,825 L1074,747 L1111,747 Z M1172,729 L1172,825 L1135,825 L1135,729 L1172,729 Z" id="Graph" fill="#D3E2F2" fill-rule="nonzero"/>
                <polygon id="Up" fill="#02BAD3" fill-rule="nonzero" points="1085.23272 585.760062 967.917126 648.538541 828.417367 435.807244 842.625757 427.631255 797 398 799.93331 452.200129 811.889913 445.319074 961.527757 673.51313 1078.86824 610.72258 1154.06863 725 1170 714.57615"/>
            </g>
        </g>
        <line x1="93" y1="1486" x2="2133" y2="1486" id="Assets-68" stroke="#141414" stroke-width="4" stroke-linecap="round"/>
    </g>
</svg>
