<svg viewBox="695.275 387.99 6555.45 3084.021" xmlns="http://www.w3.org/2000/svg" xmlns:xlink="http://www.w3.org/1999/xlink" overflow="visible">
    <defs>
        <polygon id="masterscenealone-time-1-path-1" points="0 0.1068 43.9995 0.1068 43.9995 44.1068 0 44.1068"/>
        <polygon id="masterscenealone-time-1-path-3" points="-0.0005 0.107 43.9995 0.107 43.9995 44.1068 -0.0005 44.1068"/>
        <polygon id="masterscenealone-time-1-path-5" points="0 0.216 1141.521 0.216 1141.521 422.785934 0 422.785934"/>
        <polygon id="masterscenealone-time-1-path-7" points="0 0.974 166.34437 0.974 166.34437 155.077511 0 155.077511"/>
        <polygon id="masterscenealone-time-1-path-9" points="0.58787431 0.1508 87.7709 0.1508 87.7709 284 0.58787431 284"/>
        <polygon id="masterscenealone-time-1-path-11" points="0.721 0.6074 75.113 0.6074 75.113 75 0.721 75"/>
        <polygon id="masterscenealone-time-1-path-13" points="0 -2.27373675e-13 808.1899 -2.27373675e-13 808.1899 2431.88398 0 2431.88398"/>
    </defs>
    <g id="Master/Scene/Alone Time 1" stroke="none" stroke-width="1" fill="none" fill-rule="evenodd">
        <g id="Background" transform="translate(1152.000000, 431.000000)">
            <g id="Painting" transform="translate(2781.310000, 1.920000)">
                <g>
                    <polygon id="Fill-2" fill="#E93737" points="0 1209 1025 1209 1025 0 0 0"/>
                    <polygon id="Fill-3" fill="#EECCDC" points="28 1180 1000 1180 1000 28 28 28"/>
                    <polygon id="Fill-4" fill="#EC7070" points="617 776 1000 776 1000 322 617 322"/>
                    <polygon id="Fill-5" fill="#E93737" points="695.072 737 747 737 747 374 695.072 374"/>
                    <polygon id="Fill-7" fill="#E93737" points="616.9996 322 531.9996 479 533.4526 774.484 616.9996 776"/>
                    <polygon id="Fill-8" fill="#EC7070" points="27 1180 364 1180 364 730 27 730"/>
                    <polygon id="Fill-9" fill="#E93737" points="124 933 364 933 364 821 124 821"/>
                    <polygon id="Fill-10" fill="#E93737" points="124 1104 364 1104 364 985 124 985"/>
                    <polygon id="Fill-11" fill="#EC7070" points="534 1180 1000 1180 1000 726 534 726"/>
                    <polygon id="Fill-12" fill="#E93737" points="622.072 935 1000.232 935 1000.232 821 622.072 821"/>
                    <polygon id="Fill-13" fill="#E93737" points="623.072 1107 1001.232 1107 1001.232 993 623.072 993"/>
                    <polygon id="Fill-14" fill="#E93737" points="533.9996 726 448.9996 883 450.4526 1178.484 533.9996 1180"/>
                    <path d="M352.9996,270 C352.9996,329.647 304.6456,378 244.9996,378 C185.3526,378 136.9996,329.647 136.9996,270 C136.9996,210.353 185.3526,162 244.9996,162 C304.6456,162 352.9996,210.353 352.9996,270" id="Fill-16" fill="#FC7750"/>
                    <polygon id="Fill-6" fill="#E93737" points="820.072 737 872 737 872 374 820.072 374"/>
                    <polygon id="Fill-15" fill="#E93737" points="948.072 739 1000 739 1000 374 948.072 374"/>
                </g>
            </g>
            <g id="Painting/Horizontal" transform="translate(1922.000000, 0.000000) scale(1 1)">
                <g id="Painting/Horizontal/Painting 1" stroke="none" stroke-width="1" fill="none" fill-rule="evenodd">
                    <g id="Painting">
                        <polygon id="Fill-45" fill="#E93737" points="0 507 768 507 768 0 0 0"/>
                        <polygon id="Fill-46" fill="#EECCDC" points="23.979 482 741 482 741 28.742 23.979 28.742"/>
                        <path d="M302.8103,275.195 C299.1533,261.488 288.5263,250.307 275.6123,244.762 C261.8523,238.854 246.1863,239.724 232.8643,246.431 C225.5163,250.131 219.1653,255.651 214.6283,262.519 C213.4663,264.278 214.9653,267.309 217.2183,267.033 C224.3573,266.156 231.9563,265.1 238.9773,267.222 C244.1893,268.798 249.1643,272.46 250.1543,278.082 C251.1193,276.815 252.0833,275.549 253.0473,274.284 C244.7833,273.476 236.5193,272.669 228.2563,271.861 C221.0423,271.157 212.9563,269.506 206.6353,274.078 C203.8223,276.112 201.6793,278.825 199.4913,281.483 C196.9723,284.544 194.4913,287.634 192.0483,290.756 C187.1803,296.977 182.4563,303.308 177.8863,309.754 C175.9133,312.536 180.3103,315.879 182.5983,313.388 C194.4993,300.433 213.6253,295.131 230.6273,299.237 C230.3883,297.41 230.1493,295.582 229.9103,293.754 C214.7863,300.845 199.4103,307.563 184.5193,315.133 C178.2793,318.304 172.0603,322.106 167.4853,327.501 C163.0153,332.771 160.1863,339.126 158.6433,345.832 C156.8933,353.437 156.5823,361.293 156.397549,369.065 C156.3393,371.592 159.7693,373.12 161.5193,371.187 C171.5023,360.161 181.6263,348.926 194.0483,340.574 C205.9533,332.569 219.9003,327.344 234.3993,328.082 C233.8943,326.218 233.3903,324.355 232.8853,322.491 C224.4373,328.674 215.9903,334.858 207.5423,341.041 C200.1613,346.444 192.6813,351.765 185.7763,357.779 C173.3483,368.603 162.7213,382.691 162.5693,399.854 C162.4913,408.677 165.4773,417.228 171.5893,423.662 C172.8163,424.953 175.5023,424.813 176.3013,423.054 C184.6293,404.711 199.3053,390.008 217.1963,380.889 C215.9853,379.318 214.7733,377.748 213.5613,376.177 C206.1023,384.396 199.2573,393.183 193.1823,402.474 C190.2723,406.924 187.3223,411.487 184.9753,416.263 C183.1883,419.898 181.8133,423.955 181.8313,428.049 C181.8493,432.027 183.4233,435.816 186.8003,438.073 C190.6073,440.617 195.3863,440.309 199.3713,438.371 C203.6433,436.293 206.5393,432.556 208.2323,428.204 C210.0983,423.408 210.4353,418.194 212.1463,413.352 C215.5083,403.837 223.9883,396.61 233.4763,393.638 C232.2463,392.408 231.0163,391.178 229.7863,389.948 C222.6183,407 214.4503,423.626 205.4253,439.77 C204.2693,441.838 206.2493,445.216 208.8133,444.177 C216.1873,441.188 222.8313,437.031 229.1093,432.168 C235.2973,427.375 241.3583,422.196 246.9533,416.718 C252.0303,411.748 255.4253,406.006 256.8353,399.026 C258.0643,392.941 258.1383,386.715 258.8303,380.563 C259.4973,374.624 261.0443,368.216 266.0323,364.389 L261.6253,362.596 C265.4003,376.898 264.2073,392.241 258.1483,405.756 C256.8583,408.633 260.3773,412.108 262.8603,409.39 C270.5203,401.007 282.4563,396.886 293.6893,398.56 C296.0323,398.909 297.8193,397.278 297.3793,394.87 C295.7133,385.742 289.0413,379.007 284.1113,371.533 C280.2613,365.699 276.6603,356.475 282.2523,350.554 C280.6813,350.352 279.1113,350.15 277.5403,349.947 C285.7513,363.596 292.1893,378.177 296.6493,393.47 C297.3953,396.03 300.7303,396.324 302.1323,394.187 C305.3543,389.277 312.6413,388.824 317.6623,386.826 C323.1543,384.641 329.3693,380.4 329.0803,373.734 C328.9213,370.072 326.6963,367.074 324.6933,364.178 C322.2033,360.58 319.7133,356.982 317.2243,353.383 L302.7523,332.468 C301.3843,333.837 300.0163,335.205 298.6483,336.573 C315.9863,347.46 324.6733,366.849 332.4703,384.953 C333.5543,387.467 337.2723,386.472 337.9543,384.236 C339.9943,377.538 343.5183,371.345 348.2413,366.172 C350.6223,363.563 353.2583,361.234 356.1023,359.146 C358.8853,357.104 361.8363,355.123 364.1303,352.513 C369.0333,346.936 369.2243,339.747 365.1613,333.603 C361.0703,327.419 354.5083,322.959 348.0733,319.495 C340.3803,315.353 331.9823,312.611 323.3353,311.39 L323.3353,317.175 C338.3163,314.386 354.1983,318.121 366.3483,327.304 C367.9333,328.502 370.2853,327.197 370.7553,325.511 C373.7673,314.711 373.8083,302.495 368.9073,292.233 C363.4483,280.802 351.3903,275.086 339.0013,276.733 C324.3533,278.681 311.7573,288.229 300.2593,296.839 C289.1023,305.194 278.3133,314.229 269.2243,324.845 C259.4573,336.252 251.7003,349.528 248.9313,364.432 C248.4253,367.153 251.7663,369.75 253.9453,367.351 C261.9173,358.574 269.8903,349.797 277.8633,341.02 C285.3303,332.799 292.5953,324.317 300.4153,316.428 C307.2053,309.58 314.9613,303.518 324.5523,301.351 C333.5443,299.32 343.1043,300.787 351.5603,304.242 C369.8093,311.7 381.2423,328.648 388.6613,346.188 C396.9583,365.802 402.2393,386.966 404.6793,408.102 C407.4893,432.443 406.5333,457.174 401.7223,481.202 L407.5083,481.202 C397.8743,449.197 397.9923,415.574 399.9263,382.508 C401.8893,348.953 405.6883,315.307 403.2193,281.673 C401.9443,264.3 398.3763,247.428 394.5633,230.471 C390.8243,213.84 387.3243,196.998 387.9613,179.854 C388.5203,164.804 392.5343,149.622 401.9253,137.606 C410.2293,126.98 422.0813,119.116 435.5043,116.949 C439.1643,116.359 442.9953,116.191 446.2633,118.191 C449.3403,120.075 451.8073,123.054 454.1723,125.73 C459.1803,131.396 463.5703,137.584 467.3143,144.154 C474.6553,157.032 479.4793,171.471 480.9753,186.241 C481.3483,189.93 481.5153,193.634 481.5063,197.343 C483.3693,196.839 485.2323,196.334 487.0963,195.829 C475.2683,175.461 463.4403,155.092 451.6123,134.724 C442.8033,119.554 429.6863,98.19 443.5503,81.919 C453.3563,70.41 470.2923,66.78 484.7663,67.68 C501.2513,68.705 517.4573,76.355 529.7733,87.169 C543.5083,99.226 553.5083,116.025 555.2643,134.423 C556.9713,133.716 558.6783,133.008 560.3853,132.3 C539.1103,115.715 509.7463,110.58 484.0173,118.646 C481.4153,119.463 480.9183,123.899 484.0173,124.432 C503.0333,127.703 523.0883,131.409 539.7583,141.672 C547.3663,146.355 554.0873,152.62 558.3523,160.547 C562.5733,168.395 563.9353,177.779 562.4473,186.547 C560.6983,196.86 555.4813,206.142 547.4633,212.874 C549.0333,213.076 550.6043,213.278 552.1743,213.481 C541.5573,196.659 528.0793,181.769 512.4723,169.444 C511.2603,171.015 510.0493,172.586 508.8373,174.156 C519.2403,179.749 530.7573,190.431 530.3953,203.261 C530.2073,209.945 525.9333,215.038 521.5393,219.651 C516.4573,224.986 511.6923,230.444 507.9413,236.824 C503.7833,243.897 500.7943,251.665 499.1763,259.708 C500.8483,259.266 502.5193,258.825 504.1913,258.384 C486.7493,240.136 457.6823,235.318 434.7873,245.225 C436.1553,245.585 437.5233,245.943 438.8913,246.302 C428.4833,228.818 442.3743,208.761 449.1113,192.739 C451.0703,188.079 452.8143,183.245 453.5933,178.231 C454.2553,173.97 453.7823,169.403 450.3163,166.431 C444.3473,161.315 434.7303,163.236 429.7203,168.71 C423.2943,175.729 422.2823,186.732 421.2513,195.748 C420.0093,206.6 420.1033,217.594 421.5113,228.426 C421.7943,230.6 422.6753,233.164 422.4303,235.352 C422.3333,236.218 422.5223,236.089 421.5733,236.075 C420.4673,236.059 419.2143,235.402 418.1713,235.063 C412.6803,233.277 407.1893,231.49 401.6983,229.704 C398.2073,228.568 391.9393,227.741 391.5263,223.183 C391.3313,221.029 391.9653,218.816 392.4253,216.735 C392.9923,214.167 393.6213,211.612 394.3093,209.074 C400.1313,187.598 410.2293,167.49 423.6253,149.746 C425.1373,147.744 422.5903,144.364 420.2373,145.34 C398.0543,154.53 383.8023,174.09 373.1753,194.843 C370.1783,200.695 367.4223,206.665 364.7223,212.658 C365.5863,212.163 366.4493,211.668 367.3133,211.173 C353.5273,209.944 345.5793,194.332 348.7433,181.8 C352.9393,165.181 368.9633,154.721 382.7093,146.426 C391.7733,140.958 400.9603,135.686 409.1143,128.883 C411.1843,127.155 409.4273,123.775 406.9933,123.76 C381.1093,123.607 355.1693,133.637 336.8223,152.038 L341.0653,152.038 C332.3003,144.826 331.5533,132.861 335.6103,122.852 C340.4243,110.975 351.9393,103.649 363.1713,98.614 C370.4063,95.37 377.9953,92.957 385.5403,90.553 C389.2063,89.385 387.6393,83.591 383.9453,84.767 C369.5313,89.359 354.6553,94.2 342.7693,103.911 C332.7073,112.131 325.9023,124.883 327.3753,138.139 C328.1593,145.194 331.2913,151.729 336.8223,156.281 C338.0723,157.309 339.8303,157.519 341.0653,156.281 C358.3223,138.973 382.6553,129.616 406.9933,129.76 C406.2863,128.053 405.5793,126.346 404.8723,124.639 C389.6343,137.354 370.3493,144.367 356.1983,158.519 C349.8973,164.821 344.5583,172.592 342.6733,181.424 C341.0703,188.932 342.4293,196.814 346.2973,203.439 C350.7973,211.146 358.3753,216.376 367.3133,217.173 C368.2573,217.257 369.5103,216.56 369.9033,215.686 C378.8843,195.748 388.7803,174.8 406.0433,160.631 C410.7873,156.736 416.1603,153.475 421.8323,151.125 C420.7033,149.656 419.5743,148.187 418.4453,146.717 C406.1973,162.941 396.6823,181.198 390.5473,200.587 C389.0313,205.378 387.7243,210.234 386.6393,215.139 C385.6753,219.5 384.5073,224.519 387.1213,228.556 C389.7793,232.661 394.9673,233.819 399.3193,235.234 C404.8103,237.021 410.3003,238.807 415.7913,240.593 C418.0663,241.334 420.4283,242.298 422.8643,242.025 C425.3253,241.749 427.4073,240.137 428.1093,237.723 C428.6983,235.697 428.3033,233.618 427.9823,231.587 C427.5243,228.691 427.1593,225.785 426.9023,222.865 C425.9213,211.732 426.2893,200.442 428.1533,189.419 C429.3813,182.159 431.1253,170.942 440.0773,169.584 C442.8623,169.161 446.5403,169.788 447.6003,172.774 C448.3443,174.873 447.7403,177.337 447.2633,179.425 C446.6713,182.024 445.8693,184.572 444.9463,187.071 C441.0123,197.724 434.7803,207.428 431.5513,218.361 C428.5323,228.588 428.0963,239.899 433.7113,249.331 C434.6123,250.844 436.3143,251.056 437.8153,250.407 C458.2443,241.566 484.5223,246.488 499.9483,262.627 C501.4363,264.183 504.5153,263.526 504.9623,261.303 C506.4853,253.731 509.2063,246.512 513.1223,239.852 C517.1143,233.062 522.3843,227.686 527.6393,221.907 C532.4493,216.617 536.1803,210.596 536.3953,203.261 C536.5883,196.685 533.9493,190.199 530.1893,184.91 C525.4503,178.243 519.0563,172.841 511.8653,168.975 C509.0173,167.444 505.4423,171.485 508.2303,173.687 C523.4433,185.701 536.6413,200.107 546.9933,216.509 C548.0923,218.249 550.2033,218.378 551.7053,217.116 C567.0893,204.202 573.2983,181.493 565.8933,162.678 C558.2853,143.347 539.2533,132.633 520.4063,126.57 C509.0663,122.923 497.3333,120.663 485.6123,118.646 L485.6123,124.432 C509.1253,117.06 536.5723,121.286 556.1433,136.544 C557.9303,137.937 561.5403,137.318 561.2643,134.423 C557.8283,98.42 526.9323,68.098 491.6163,62.454 C475.2613,59.84 456.6673,62.743 443.5943,73.486 C437.2483,78.701 432.9393,86.011 431.8303,94.176 C430.3003,105.439 434.7193,116.394 439.8773,126.171 C446.3343,138.409 453.6773,150.229 460.6253,162.194 C467.7213,174.416 474.8183,186.636 481.9153,198.857 C483.4133,201.437 487.4973,200.312 487.5063,197.343 C487.5473,181.645 484.1433,166.167 477.8583,151.802 C474.7473,144.691 470.8983,137.899 466.4023,131.572 C461.9493,125.304 456.8863,118.526 450.6433,113.933 C444.1483,109.153 435.7283,110.324 428.4193,112.374 C421.5423,114.302 415.0693,117.622 409.3883,121.935 C397.5643,130.913 389.3133,143.599 385.2733,157.841 C375.2633,193.125 389.7783,228.583 395.1653,263.28 C400.5083,297.697 397.3003,332.751 394.9123,367.276 C392.5393,401.591 390.7543,436.531 398.4323,470.349 C399.3833,474.536 400.4843,478.685 401.7223,482.797 C402.5273,485.47 406.9003,485.832 407.5083,482.797 C416.4603,438.084 412.6493,390.771 395.9433,348.275 C388.6463,329.715 377.8613,311.346 359.7843,301.546 C351.1593,296.869 341.2543,294.107 331.3993,294.474 C321.0503,294.86 311.7843,298.924 303.7453,305.314 C294.1463,312.944 286.2803,322.84 278.0703,331.879 C268.6143,342.289 259.1583,352.698 249.7023,363.108 C251.3733,364.081 253.0453,365.054 254.7163,366.027 C259.3833,340.914 278.1973,321.793 297.4813,306.491 C302.5533,302.466 307.7773,298.618 313.0963,294.927 C318.7223,291.024 324.6683,287.302 331.1133,284.908 C337.2183,282.639 343.8593,281.48 350.2283,283.351 C354.8373,284.705 358.9023,287.586 361.6113,291.566 C367.9333,300.857 367.8883,313.45 364.9703,323.916 L369.3773,322.123 C355.9173,311.95 338.2253,308.32 321.7393,311.39 C318.9373,311.912 318.8153,316.763 321.7393,317.175 C328.8063,318.174 335.7573,320.131 342.1983,323.226 C348.2403,326.129 354.4973,329.866 358.8293,335.08 C360.7263,337.363 362.4353,340.343 362.1473,343.42 C361.8733,346.338 359.8283,348.562 357.7173,350.405 C355.4133,352.416 352.8283,354.079 350.4273,355.968 C347.7743,358.054 345.3173,360.38 343.1073,362.931 C338.1263,368.684 334.3863,375.357 332.1683,382.64 C333.9963,382.402 335.8233,382.163 337.6513,381.924 C329.3923,362.749 319.9953,342.895 301.6763,331.392 C299.2173,329.848 295.8433,333 297.5713,335.497 C302.0843,342.019 306.5973,348.541 311.1093,355.062 C313.4433,358.436 315.7773,361.809 318.1113,365.182 C319.7733,367.585 322.7913,370.671 323.0803,373.734 C323.5833,379.074 315.3353,381.392 311.5273,382.532 C305.9813,384.192 300.2803,386.086 296.9513,391.159 C298.7793,391.398 300.6073,391.636 302.4353,391.876 C297.8383,376.113 291.1843,360.987 282.7213,346.919 C281.7503,345.305 279.3563,344.886 278.0093,346.312 C271.3563,353.356 272.9163,363.503 277.0693,371.426 C281.5523,379.982 289.7943,386.604 291.5933,396.465 C292.8243,395.234 294.0543,394.005 295.2843,392.774 C281.9423,390.787 267.8273,395.068 258.6173,405.148 C260.1883,406.36 261.7583,407.572 263.3293,408.784 C270.0683,393.754 271.6233,376.963 267.4113,361.002 C266.9653,359.313 264.5663,358.009 263.0043,359.209 C252.7113,367.106 253.0363,379.885 251.8763,391.644 C251.2873,397.62 250.0763,403.638 246.3363,408.499 C243.9153,411.644 240.8413,414.267 237.8913,416.896 C235.0603,419.418 232.2233,421.932 229.3093,424.356 C222.6023,429.938 215.3483,435.095 207.2173,438.391 C208.3473,439.86 209.4763,441.33 210.6053,442.799 C219.8893,426.193 228.2003,409.08 235.5713,391.543 C236.4713,389.403 233.8763,387.228 231.8813,387.852 C223.6643,390.426 216.5033,395.438 211.3523,402.342 C208.8433,405.706 206.9483,409.538 205.7823,413.57 C204.4863,418.053 204.1653,422.919 202.1903,427.19 C200.6873,430.44 197.7363,433.34 194.0623,433.891 C190.9033,434.366 188.2733,432.333 187.8783,429.207 C187.4803,426.049 188.5943,422.592 189.9233,419.775 C191.9023,415.584 194.4693,411.596 196.9523,407.69 C203.1043,398.009 210.0963,388.912 217.8033,380.42 C220.1153,377.874 217.2303,374.147 214.1683,375.708 C195.4763,385.235 179.8233,400.856 171.1203,420.026 C172.6903,419.824 174.2613,419.622 175.8313,419.419 C165.8933,408.958 167.1193,392.601 173.8543,380.766 C182.0083,366.439 196.2243,356.722 209.2373,347.198 C218.1293,340.689 227.0213,334.18 235.9133,327.673 C238.2813,325.939 237.5273,322.241 234.3993,322.082 C219.1693,321.307 204.1933,326.681 191.6063,335.003 C178.4693,343.687 167.7773,355.346 157.2773,366.944 C158.9843,367.651 160.6913,368.358 162.3983,369.065 C162.6913,356.656 163.0923,342.677 171.1353,332.464 C175.3443,327.119 181.2643,323.529 187.2383,320.471 C193.9713,317.026 200.9083,313.955 207.7563,310.744 C216.1503,306.807 224.5443,302.871 232.9383,298.934 C235.2973,297.829 234.6113,294.029 232.2223,293.452 C213.2163,288.861 191.7003,294.619 178.3553,309.146 C179.9253,310.358 181.4963,311.57 183.0673,312.782 C187.3403,306.755 191.7383,300.816 196.2913,294.998 C198.5703,292.085 200.8843,289.198 203.2303,286.339 C205.2413,283.887 207.2103,281.125 209.7563,279.188 C212.4153,277.166 215.5723,276.856 218.8103,277.006 C222.5143,277.176 226.2183,277.663 229.9083,278.023 C237.6213,278.777 245.3343,279.53 253.0473,280.284 C255.1593,280.49 256.2443,278.213 255.9403,276.486 C254.6983,269.438 248.6943,264.5 242.3203,262.04 C234.3603,258.966 225.4663,260.02 217.2183,261.033 C218.0823,262.538 218.9453,264.043 219.8093,265.548 C226.7843,254.989 239.1313,248.241 251.6263,246.981 C264.4563,245.688 277.2853,250.115 286.5203,259.149 C291.5093,264.029 295.2213,270.03 297.0243,276.79 C298.0193,280.517 303.8083,278.936 302.8103,275.195" id="Fill-47" fill="#FFF"/>
                    </g>
                </g>
            </g>
            <g id="Painting/Vertical" transform="translate(2206.000000, 628.000000) scale(1 1)">
                <g id="Painting/Vertical/Painting 3" stroke="none" stroke-width="1" fill="none" fill-rule="evenodd">
                    <g id="Frame">
                        <polygon id="Fill-1" fill="#E93737" points="0 584 482.999 584 482.999 0 0 0"/>
                        <polygon id="Fill-2" fill="#204EB2" points="26.999 553.968 459.846 553.968 459.846 325 26.999 325"/>
                        <polygon id="Fill-3" fill="#FC7750" points="27.193 345.903 460.04 345.903 460.04 29 27.193 29"/>
                        <g id="Group-8" transform="translate(165.000000, 266.000000)">
                            <path d="M155.9995,78.678 C155.9995,79.114 155.9995,79.564 155.9865,80 L0.0135,80 C-0.0005,79.564 -0.0005,79.114 -0.0005,78.678 C-0.0005,35.606 34.9285,0.678 77.9995,0.678 C121.0715,0.678 155.9995,35.606 155.9995,78.678" id="Fill-4" fill="#F9C818"/>
                            <path d="M155.9868,80 C155.2858,122.464 120.6348,156.678 77.9998,156.678 C35.3648,156.678 0.7148,122.464 0.0128,80 L155.9868,80 Z" id="Fill-6" fill="#56ACF6"/>
                        </g>
                    </g>
                </g>
            </g>
            <rect id="Rectangle" fill="#EECCDC" x="1024" y="1032" width="696" height="79" rx="39.5"/>
            <g id="Small Objects" transform="translate(1123.000000, 102.000000) scale(1 1)">
                <defs>
                    <polygon id="small-objectsplant-1-path-1" points="0 0.1068 43.9995 0.1068 43.9995 44.1068 0 44.1068"/>
                    <polygon id="small-objectsplant-1-path-3" points="-0.0005 0.107 43.9995 0.107 43.9995 44.1068 -0.0005 44.1068"/>
                </defs>
                <g id="Small Objects/Plant 1" stroke="none" stroke-width="1" fill="none" fill-rule="evenodd">
                    <g id="Group-51" transform="translate(67.000000, 134.000000)">
                        <path d="M233.5005,541.057 L229.4805,365.321 C227.3905,273.916 256.5445,208.051 281.3705,168.892 C308.3135,126.395 335.3615,105.854 336.4995,105 L339.5005,108.999 C339.2285,109.204 311.9215,129.972 285.4675,171.77 C261.0695,210.317 232.4195,275.166 234.4795,365.207 L238.4985,540.943 L233.5005,541.057 Z" id="Fill-1" fill="#0A4343"/>
                        <path d="M146.4995,609.0409 L143.4995,426.0409 C141.9585,331.9909 109.2905,243.0699 82.1575,185.0359 C52.7215,122.0759 23.2645,80.8689 22.9705,80.4599 L27.0285,77.5399 C27.3245,77.9519 57.0085,119.4619 86.6395,182.8159 C114.0005,241.3159 146.9415,330.9849 148.4995,425.9589 L151.4995,608.9589 L146.4995,609.0409 Z" id="Fill-3" fill="#0A4343"/>
                        <path d="M168.231,447.0045 C167.795,447.0045 167.361,446.9055 166.955,446.7035 C165.005,445.7315 162.58,444.5235 163.501,396.9515 C164.351,352.9735 158.326,279.8555 124.786,181.2625 C104.703,122.2255 83.981,81.5435 83.775,81.1395 L88.224,78.8595 C88.433,79.2665 109.292,120.2085 129.492,179.5695 C148.146,234.3885 170.056,316.6175 168.499,397.0485 C168.106,417.3745 168.386,428.7165 168.801,435.0345 C171.684,419.2645 175.377,381.4625 176.748,335.2635 C177.966,294.2065 178.133,217.0425 165.561,161.5525 L136.561,33.5525 L141.438,32.4475 L170.438,160.4475 C183.298,217.2115 182.996,295.9685 181.67,337.8615 C180.826,364.5835 179.133,390.9315 176.907,412.0505 C173.58,443.6015 171.124,445.5305 170.074,446.3545 C169.527,446.7845 168.879,447.0045 168.231,447.0045" id="Fill-5" fill="#0A4343"/>
                        <path d="M203.9272,480.4139 L202.7222,479.3039 C201.7902,478.4349 201.6222,478.2789 201.7072,466.8519 C201.7632,459.3829 201.9862,449.3899 202.3362,438.7109 C202.6532,429.0519 203.1372,416.7319 203.8722,402.3669 C204.7312,246.6109 192.6352,42.3369 192.5042,40.1489 L197.4942,39.8509 C197.6072,41.7279 206.5232,192.2909 208.5222,333.4849 C213.9062,269.6179 224.0472,187.3689 242.6342,133.1889 C262.6822,74.7539 285.1652,42.7279 309.4612,38.0009 C327.5952,34.4729 339.3942,47.7929 339.8872,48.3609 L336.1122,51.6389 C335.6962,51.1629 325.6262,39.9119 310.3502,42.9219 C294.9562,45.9559 271.5332,64.3609 247.3652,134.8109 C223.0812,205.5929 212.7882,327.1279 208.8592,404.6989 C208.7952,414.7129 208.6782,424.5129 208.4992,434.0469 C208.2392,447.8519 207.9422,459.3059 207.6362,467.1689 C207.1742,479.0379 207.1082,479.0649 205.4202,479.7809 L203.9272,480.4139 Z" id="Fill-7" fill="#0A4343"/>
                        <path d="M198.519,489.3143 L178.123,328.4733 C158.003,169.8023 114.132,63.0193 113.691,61.9593 L118.308,60.0403 C118.751,61.1063 162.88,168.5123 183.084,327.8443 L200.228,463.0443 L228.505,39.8333 L233.494,40.1663 L203.494,489.1663 L198.519,489.3143 Z" id="Fill-9" fill="#0A4343"/>
                        <g id="Group-13" transform="translate(0.000000, 61.893000)">
                            <mask id="small-objectsplant-1-mask-2" fill="#fff">
                                <use xlink:href="#small-objectsplant-1-path-1"/>
                            </mask>
                            <g id="Clip-12"/>
                            <path d="M43.9995,22.1068 C43.9995,34.2568 34.1495,44.1068 21.9995,44.1068 C9.8505,44.1068 -0.0005,34.2568 -0.0005,22.1068 C-0.0005,9.9568 9.8505,0.1068 21.9995,0.1068 C34.1495,0.1068 43.9995,9.9568 43.9995,22.1068" id="Fill-11" fill="#56ACF6" mask="url(#small-objectsplant-1-mask-2)"/>
                        </g>
                        <path d="M105.9995,81.9998 C105.9995,94.1498 96.1495,103.9998 83.9995,103.9998 C71.8505,103.9998 61.9995,94.1498 61.9995,81.9998 C61.9995,69.8498 71.8505,59.9998 83.9995,59.9998 C96.1495,59.9998 105.9995,69.8498 105.9995,81.9998" id="Fill-14" fill="#56ACF6"/>
                        <path d="M134.9995,61.9998 C134.9995,74.1498 125.1495,83.9998 112.9995,83.9998 C100.8505,83.9998 90.9995,74.1498 90.9995,61.9998 C90.9995,49.8498 100.8505,39.9998 112.9995,39.9998 C125.1495,39.9998 134.9995,49.8498 134.9995,61.9998" id="Fill-16" fill="#56ACF6"/>
                        <path d="M160.9995,30.9998 C160.9995,43.1498 151.1495,52.9998 138.9995,52.9998 C126.8505,52.9998 116.9995,43.1498 116.9995,30.9998 C116.9995,18.8498 126.8505,8.9998 138.9995,8.9998 C151.1495,8.9998 160.9995,18.8498 160.9995,30.9998" id="Fill-18" fill="#56ACF6"/>
                        <path d="M215.9995,43.9998 C215.9995,56.1498 206.1495,65.9998 193.9995,65.9998 C181.8505,65.9998 171.9995,56.1498 171.9995,43.9998 C171.9995,31.8498 181.8505,21.9998 193.9995,21.9998 C206.1495,21.9998 215.9995,31.8498 215.9995,43.9998" id="Fill-20" fill="#56ACF6"/>
                        <g id="Group-24" transform="translate(213.000000, 0.893000)">
                            <mask id="small-objectsplant-1-mask-4" fill="#fff">
                                <use xlink:href="#small-objectsplant-1-path-3"/>
                            </mask>
                            <g id="Clip-23"/>
                            <path d="M43.9995,22.1068 C43.9995,34.2568 34.1495,44.1068 21.9995,44.1068 C9.8505,44.1068 -0.0005,34.2568 -0.0005,22.1068 C-0.0005,9.9568 9.8505,0.1068 21.9995,0.1068 C34.1495,0.1068 43.9995,9.9568 43.9995,22.1068" id="Fill-22" fill="#56ACF6" mask="url(#small-objectsplant-1-mask-4)"/>
                        </g>
                        <path d="M363.9995,46.9998 C363.9995,59.1498 354.1495,68.9998 341.9995,68.9998 C329.8505,68.9998 319.9995,59.1498 319.9995,46.9998 C319.9995,34.8498 329.8505,24.9998 341.9995,24.9998 C354.1495,24.9998 363.9995,34.8498 363.9995,46.9998" id="Fill-25" fill="#56ACF6"/>
                        <path d="M358.9995,104.9999 C358.9995,117.1499 349.1495,126.9999 336.9995,126.9999 C324.8505,126.9999 314.9995,117.1499 314.9995,104.9999 C314.9995,92.8499 324.8505,82.9999 336.9995,82.9999 C349.1495,82.9999 358.9995,92.8499 358.9995,104.9999" id="Fill-27" fill="#56ACF6"/>
                        <path d="M45.9995,109.9999 C45.9995,122.1499 36.1495,131.9999 23.9995,131.9999 C11.8505,131.9999 1.9995,122.1499 1.9995,109.9999 C1.9995,97.8499 11.8505,87.9999 23.9995,87.9999 C36.1495,87.9999 45.9995,97.8499 45.9995,109.9999" id="Fill-29" fill="#56ACF6"/>
                        <path d="M67.9995,55.9998 C67.9995,68.1498 58.1495,77.9998 45.9995,77.9998 C33.8505,77.9998 23.9995,68.1498 23.9995,55.9998 C23.9995,43.8498 33.8505,33.9998 45.9995,33.9998 C58.1495,33.9998 67.9995,43.8498 67.9995,55.9998" id="Fill-31" fill="#56ACF6"/>
                        <path d="M140.9995,92.9998 C140.9995,105.1498 131.1495,114.9998 118.9995,114.9998 C106.8505,114.9998 96.9995,105.1498 96.9995,92.9998 C96.9995,80.8498 106.8505,70.9998 118.9995,70.9998 C131.1495,70.9998 140.9995,80.8498 140.9995,92.9998" id="Fill-33" fill="#56ACF6"/>
                        <path d="M327.9995,63.9998 C327.9995,76.1498 318.1495,85.9998 305.9995,85.9998 C293.8505,85.9998 283.9995,76.1498 283.9995,63.9998 C283.9995,51.8498 293.8505,41.9998 305.9995,41.9998 C318.1495,41.9998 327.9995,51.8498 327.9995,63.9998" id="Fill-35" fill="#56ACF6"/>
                        <path d="M319.9995,113.9999 C319.9995,126.1499 310.1495,135.9999 297.9995,135.9999 C285.8505,135.9999 275.9995,126.1499 275.9995,113.9999 C275.9995,101.8499 285.8505,91.9999 297.9995,91.9999 C310.1495,91.9999 319.9995,101.8499 319.9995,113.9999" id="Fill-37" fill="#56ACF6"/>
                        <path d="M103.9995,112.9999 C103.9995,125.1499 94.1495,134.9999 81.9995,134.9999 C69.8505,134.9999 59.9995,125.1499 59.9995,112.9999 C59.9995,100.8499 69.8505,90.9999 81.9995,90.9999 C94.1495,90.9999 103.9995,100.8499 103.9995,112.9999" id="Fill-39" fill="#56ACF6"/>
                        <path d="M174.9995,54.9998 C174.9995,67.1498 165.1495,76.9998 152.9995,76.9998 C140.8505,76.9998 130.9995,67.1498 130.9995,54.9998 C130.9995,42.8498 140.8505,32.9998 152.9995,32.9998 C165.1495,32.9998 174.9995,42.8498 174.9995,54.9998" id="Fill-41" fill="#56ACF6"/>
                        <path d="M266.9995,56.9998 C266.9995,69.1498 257.1495,78.9998 244.9995,78.9998 C232.8505,78.9998 222.9995,69.1498 222.9995,56.9998 C222.9995,44.8498 232.8505,34.9998 244.9995,34.9998 C257.1495,34.9998 266.9995,44.8498 266.9995,56.9998" id="Fill-43" fill="#56ACF6"/>
                        <path d="M328.9995,28.9998 C328.9995,41.1498 319.1495,50.9998 306.9995,50.9998 C294.8505,50.9998 284.9995,41.1498 284.9995,28.9998 C284.9995,16.8498 294.8505,6.9998 306.9995,6.9998 C319.1495,6.9998 328.9995,16.8498 328.9995,28.9998" id="Fill-45" fill="#56ACF6"/>
                        <path d="M350.9995,135.9999 C350.9995,148.1499 341.1495,157.9999 328.9995,157.9999 C316.8505,157.9999 306.9995,148.1499 306.9995,135.9999 C306.9995,123.8499 316.8505,113.9999 328.9995,113.9999 C341.1495,113.9999 350.9995,123.8499 350.9995,135.9999" id="Fill-47" fill="#56ACF6"/>
                        <path d="M103.9995,367.9998 L104.9995,536.9998 C104.9995,536.9998 24.9995,601.9998 30.9995,657.9998 C36.9995,713.9998 122.7185,795.8928 122.7185,795.8928 L261.4015,794.6318 C261.4015,794.6318 353.9995,712.9998 351.9995,660.9998 C349.9995,608.9998 279.9995,539.9998 279.9995,539.9998 L278.9995,369.9998 L103.9995,367.9998 Z" id="Fill-49" fill="#1BC0D7"/>
                    </g>
                </g>
            </g>
            <g id="Tall Vase Plant" transform="translate(4012.000000, 650.000000) scale(1 1)">
                <g id="Tall Vase Plant/Plant 2" stroke="none" stroke-width="1" fill="none" fill-rule="evenodd">
                    <g id="Tall-Vase-Plant-3" transform="translate(0.000000, 130.000000)">
                        <path d="M811.817443,1109.99103 C811.817443,1109.99103 1196.75744,1033.14603 1336.00144,719.884028 C1475.24444,406.622028 1223.41944,430.323028 1060.70944,588.886028 C897.999443,747.449028 822.234443,924.913028 811.817443,1109.99103" id="Fill-29" fill="#F9C818"/>
                        <path d="M724.115343,1512.99783 C724.082343,1512.51083 720.973343,1463.39983 732.775343,1384.13983 C743.650343,1311.10383 769.780343,1196.62283 832.500343,1065.99783 C895.155343,935.511828 964.048343,835.615828 1010.81034,774.790828 C1061.52434,708.825828 1097.95634,673.212828 1098.31834,672.860828 L1103.89534,678.596828 C1103.53634,678.945828 1067.42134,714.262828 1017.03134,779.825828 C970.534343,840.321828 902.028343,939.678828 839.712343,1069.46083 C777.485343,1199.05783 751.539343,1312.59783 740.731343,1385.02583 C729.018343,1463.51783 732.065343,1511.98083 732.097343,1512.46083 L724.115343,1512.99783 Z" id="Fill-30" fill="#0A4343"/>
                        <path d="M721.235943,807.364328 C721.235943,807.364328 1059.81694,641.476328 1086.84394,303.682328 C1113.87094,-34.1116722 883.488943,48.5553278 782.530943,241.365328 C681.572943,434.175328 669.212943,624.799328 721.235943,807.364328" id="Fill-31" fill="#237978"/>
                        <path d="M659.676343,905.054728 C659.676343,905.054728 295.013343,609.803728 344.717343,226.480728 C394.421343,-156.843272 649.884343,10.5707278 723.810343,257.501728 C797.736343,504.432728 766.230343,719.798728 659.676343,905.054728" id="Fill-32" fill="#F9C818"/>
                        <path d="M625.411643,934.447028 C625.411643,934.447028 165.614643,840.967028 32.6806426,478.013028 C-100.254357,115.059028 203.649643,145.577028 383.254643,330.462028 C562.859643,515.346028 634.370643,720.922028 625.411643,934.447028" id="Fill-33" fill="#237978"/>
                        <path d="M681.122643,1562.08693 C680.936643,1560.02393 662.819643,1352.74693 682.367643,1092.42993 C693.851643,939.497928 715.895643,798.419928 747.886643,673.114928 C787.916643,516.321928 843.732643,383.890928 913.785643,279.499928 L920.427643,283.957928 C850.895643,387.573928 795.458643,519.146928 755.656643,675.021928 C723.780643,799.856928 701.809643,940.449928 690.354643,1092.89593 C670.842643,1352.58193 688.905643,1559.31393 689.090643,1561.37093 L681.122643,1562.08693 Z" id="Fill-34" fill="#0A4343"/>
                        <path d="M521.068943,1819.06403 L513.480943,1816.53103 C514.211943,1814.34003 586.995943,1593.91403 621.861943,1283.12203 C642.333943,1100.64503 645.921943,923.181028 632.526943,755.660028 C615.789943,546.350028 572.340943,352.066028 503.387943,178.204028 L510.824943,175.254028 C580.084943,349.890028 623.716943,544.991028 640.510943,755.140028 C653.940943,923.195028 650.333943,1101.20003 629.790943,1284.20903 C594.815943,1595.79203 521.801943,1816.86703 521.068943,1819.06403" id="Fill-35" fill="#0A4343"/>
                        <path d="M603.106943,2216.72903 L731.106943,2216.72903 C858.132435,2216.72903 961.106943,2113.75452 961.106943,1986.72903 L961.106943,1483.72903 L961.106943,1483.72903 L373.106943,1483.72903 L373.106943,1986.72903 C373.106943,2113.75452 476.08145,2216.72903 603.106943,2216.72903 Z" id="Fill-36" fill="#204EB2"/>
                        <path d="M639.113843,1031.96973 C635.217843,967.330728 609.652843,892.980728 563.129843,810.985728 C525.266843,744.254728 473.391843,672.151728 408.943843,596.679728 C307.352843,477.710728 201.322843,381.985728 160.451843,346.351728 C158.855843,344.960728 157.828843,344.064728 157.415843,343.688728 L162.797843,337.769728 C163.193843,338.129728 164.178843,338.987728 165.708843,340.321728 C206.713843,376.072728 313.091843,472.111728 415.027843,591.484728 C479.804843,667.343728 531.974843,739.865728 570.087843,807.037728 C617.218843,890.104728 643.128843,965.620728 647.098843,1031.48873 L639.113843,1031.96973 Z" id="Fill-38" fill="#0A4343"/>
                    </g>
                </g>
            </g>
            <g id="Tall Vase Plant" transform="translate(0.000000, 650.000000) scale(1 1)">
                <g id="Tall Vase Plant/Plant 3" stroke="none" stroke-width="1" fill="none" fill-rule="evenodd">
                    <g id="Tall-Vase-Plant-1" transform="translate(208.000000, 366.000000)">
                        <path d="M459.5239,1241.38957 C459.4669,1240.33157 453.5499,1134.06057 429.7739,998.727568 C415.8179,919.291568 398.5319,845.535568 378.3939,779.509568 C353.2579,697.088568 323.5909,626.574568 290.2199,569.923568 L297.1129,565.863568 C330.8119,623.069568 360.7389,694.183568 386.0629,777.230568 C406.2969,843.582568 423.6599,917.673568 437.6709,997.445568 C461.5199,1133.23057 467.4549,1239.89757 467.5129,1240.95957 L459.5239,1241.38957 Z" id="Fill-39" fill="#0A4343"/>
                        <path d="M373.9427,515.809768 C372.7607,564.948768 331.9667,603.825768 282.8277,602.642768 C233.6877,601.460768 194.8117,560.666768 195.9947,511.527768 C197.1767,462.388768 237.9707,423.511768 287.1097,424.694768 C336.2487,425.876768 375.1247,466.670768 373.9427,515.809768" id="Fill-40" fill="#F9C818"/>
                        <path d="M392.4426,624.394968 C392.4426,624.394968 245.9966,335.182968 385.6786,107.567968 C525.3616,-120.047032 639.0966,57.7049681 615.9076,234.276968 C592.7186,410.847968 511.9816,537.718968 392.4426,624.394968" id="Fill-41" fill="#237978"/>
                        <path d="M349.9814,678.666268 L344.6494,672.702268 C377.8614,643.010268 407.0814,597.440268 431.4964,537.260268 C451.3944,488.212268 468.2034,429.272268 481.4564,362.076268 C502.3554,256.112268 508.7684,157.698268 510.5554,120.304268 C510.6254,118.829268 510.6714,117.880268 510.6984,117.491268 L518.6794,118.039268 C518.6544,118.405268 518.6124,119.298268 518.5464,120.686268 C516.7504,158.256268 510.3074,257.139268 489.3054,363.624268 C475.9534,431.318268 458.9984,490.749268 438.9094,540.267268 C414.0314,601.589268 384.1114,648.153268 349.9814,678.666268" id="Fill-42" fill="#0A4343"/>
                        <path d="M588.8016,780.971868 C588.8016,780.971868 434.1656,1013.31787 378.2446,1303.16387 C322.3236,1593.00987 398.3576,1720.96987 398.3576,1720.96987 L461.2276,1690.06087 C461.2276,1690.06087 423.8246,1516.20287 460.5696,1314.80087 C497.3146,1113.39787 644.9136,820.051868 644.9136,820.051868 L588.8016,780.971868 Z" id="Fill-43" fill="#0A4343"/>
                        <path d="M484.1396,453.379568 C484.1396,453.379568 428.6346,525.997568 506.9886,607.910568 C585.3416,689.822568 483.2756,805.728568 595.6946,855.241568 C595.6946,855.241568 655.6016,886.205568 710.3196,810.715568 C765.0376,735.225568 771.5546,724.382568 847.2746,736.518568 C922.9946,748.653568 960.4576,668.497568 960.4576,668.497568 C960.4576,668.497568 868.1926,585.012568 702.3046,533.507568 C536.4156,482.003568 484.1396,453.379568 484.1396,453.379568" id="Fill-44" fill="#FC7750"/>
                        <path d="M484.1396,453.379568 C484.1396,453.379568 601.6436,565.215568 759.9806,611.020568 C918.3166,656.826568 960.4576,668.497568 960.4576,668.497568 C960.4576,668.497568 895.7146,588.880568 765.8176,532.065568 C635.9206,475.249568 549.1206,486.463568 484.1396,453.379568" id="Fill-45" fill="#FEA78D"/>
                        <path d="M320.2223,967.203568 C320.2223,967.203568 367.5513,1127.03957 479.0303,1263.62857 C590.5083,1400.21657 678.2793,1414.33957 678.2793,1414.33957 L688.1753,1373.68457 C688.1753,1373.68457 594.1493,1324.28057 515.8783,1230.33857 C437.6083,1136.39757 359.6183,956.437568 359.6183,956.437568 L320.2223,967.203568 Z" id="Fill-46" fill="#0A4343"/>
                        <path d="M121.9682,890.787568 C121.9682,890.787568 134.0142,944.032568 201.5622,939.465568 C269.1092,934.898568 283.1782,1026.06057 348.9112,993.473568 C348.9112,993.473568 386.0392,977.860568 372.3752,923.877568 C358.7112,869.893568 356.2342,862.755568 390.7832,832.685568 C425.3322,802.615568 402.9242,754.756568 402.9242,754.756568 C402.9242,754.756568 329.3302,765.099568 242.2162,821.438568 C155.1022,877.777568 121.9682,890.787568 121.9682,890.787568" id="Fill-47" fill="#EC7070"/>
                        <path d="M121.9682,890.787568 C121.9682,890.787568 218.2212,879.725568 299.8312,824.667568 C381.4422,769.609568 402.9242,754.755278 402.9242,754.755278 C402.9242,754.755278 341.6382,753.962568 265.8672,791.767568 C190.0962,829.572568 162.0102,873.660568 121.9682,890.787568" id="Fill-48" fill="#EECCDC"/>
                        <path d="M320,1980.69967 L586,1980.69967 C762.73112,1980.69967 906,1837.43079 906,1660.69967 L906,1139.69967 L906,1139.69967 L0,1139.69967 L0,1660.69967 C2.164332e-14,1837.43079 143.26888,1980.69967 320,1980.69967 Z" id="Fill-49" fill="#EC7070"/>
                    </g>
                </g>
            </g>
            <path d="M5947,2997 L4944,2997 C4897.608,2997 4860,2959.392 4860,2913 L4860,2885 C4860,2838.608 4897.608,2801 4944,2801 L5947,2801 C5993.392,2801 6031,2838.608 6031,2885 L6031,2913 C6031,2959.392 5993.392,2997 5947,2997" id="Object-1" fill="#E93737"/>
            <g id="Sofa" transform="translate(820.838267, 1386.920000)">
                <path d="M3620.65393,994 L247.288933,994 C199.340933,994 160.470933,955.131 160.470933,907.183 L160.470933,86.817 C160.470933,38.869 199.340933,0 247.288933,0 L3620.65393,0 C3668.60193,0 3707.47093,38.869 3707.47093,86.817 L3707.47093,907.183 C3707.47093,955.131 3668.60193,994 3620.65393,994" id="Fill-50" fill="#0A4343"/>
                <polygon id="Fill-51" fill="#237978" points="376.471733 1113 3429.47173 1113 3429.47173 788 376.471733 788"/>
                <polygon id="Fill-52" fill="#0A4343" points="273 1354.538 196 1609.538 257 1605.538 443.278 1354"/>
                <polygon id="Fill-53" fill="#0A4343" points="3589.278 1354.538 3666.278 1609.538 3605.278 1605.538 3419 1354"/>
                <path d="M461.471333,406 C461.471333,406 471.471333,395 585.471333,418 C699.471333,441 870.308333,382.639 894.890333,400.319 C919.471333,418 915.471333,758 980.471333,845 C1045.47133,932 817.471333,805 607.471333,894 C397.471333,983 567.471333,633 567.471333,633 L461.471333,406 Z" id="Fill-54" fill="#1BC0D7"/>
                <path d="M339.847733,306.1448 C339.847733,306.1448 305.305733,575.6878 514.604733,830.3148 C723.902733,1084.9408 640.393733,632.6578 519.106733,459.7448 C397.820733,286.8308 341.897733,238.3278 339.847733,306.1448" id="Fill-55" fill="#EECCDC"/>
                <path d="M3474.47133,694 C3472.44933,688.351 3464.47133,607 3469.47133,505 C3474.47133,403 3323.08033,520.521 3113.47133,483 C2995.12233,461.815 2812.92733,420.795 2845.47133,517 C2879.45933,617.473 2794.47133,793 2854.47133,802 C2914.47133,811 3231.47133,753 3370.47133,815 C3509.47133,877 3503.47133,775 3474.47133,694" id="Fill-56" fill="#1BC0D7"/>
                <path d="M3.04353319,616.7837 L261.576533,1327.3087 C268.721533,1346.9477 287.360533,1360.0417 308.258533,1360.1047 L3553.77353,1369.89293 C3575.11653,1369.9567 3594.13153,1356.4237 3601.06153,1336.2367 L3855.83453,594.0317 C3866.64053,562.5527 3844.14453,529.5297 3810.89453,528.0627 L3569.89853,517.4307 C3550.18653,516.5607 3531.81753,527.4027 3523.05253,545.0807 L3314.17053,966.3687 C3305.77653,983.2997 3288.52753,994.0257 3269.63053,994.0677 L593.174533,999.9307 C573.830533,999.9727 556.208533,988.8177 547.972533,971.3147 L359.389533,570.5757 C350.938533,552.6177 332.637533,541.3857 312.799533,541.9817 L48.3795332,549.9287 C14.4375332,550.9487 -8.56746681,584.8737 3.04353319,616.7837" id="Fill-57" fill="#165C5D"/>
            </g>
        </g>
        <g id="Pet" transform="translate(5768.214000, 2258.420000) scale(1 1)">
            <g id="Pet/Cat 2" stroke="none" stroke-width="1" fill="none" fill-rule="evenodd">
                <g id="Animal" transform="translate(332.000000, 597.000000)">
                    <path d="M648.2051,190.8197 C648.2051,190.8197 658.4661,156.3457 706.0721,130.9017 L704.0191,178.0977 L648.2051,190.8197 Z" id="Fill-1" fill="#EECCDC"/>
                    <path d="M703.9199,134.3619 C668.5029,154.2749 655.2259,179.1429 651.4089,188.0379 L702.0879,176.4869 L703.9199,134.3619 Z M645.3119,193.5309 L646.2879,190.2489 C646.7169,188.8089 657.3369,154.6819 705.1299,129.1369 L708.2229,127.4839 L705.9509,179.7079 L645.3119,193.5309 Z" id="Fill-3" fill="#EC7070"/>
                    <path d="M678.5752,188.7677 C678.5752,188.7677 686.5392,152.4257 704.5962,133.1367 L702.6532,184.7607 L678.5752,188.7677 Z" id="Fill-5" fill="#EC7070"/>
                    <path d="M716.3359,204.6298 C716.3359,204.6298 726.5959,170.1568 774.2019,144.7118 L771.7309,205.1158 L716.3359,204.6298 Z" id="Fill-7" fill="#EECCDC"/>
                    <path d="M719.207,202.6549 L769.811,203.0989 L772.059,148.1669 C735.587,168.6759 722.554,194.5449 719.207,202.6549 L719.207,202.6549 Z M773.649,207.1329 L713.661,206.6059 L714.419,204.0589 C714.848,202.6189 725.467,168.4919 773.26,142.9479 L776.344,141.2989 L773.649,207.1329 Z" id="Fill-9" fill="#EC7070"/>
                    <path d="M746.7051,202.5778 C746.7051,202.5778 754.6701,166.2358 772.7271,146.9468 L770.7841,198.5708 L746.7051,202.5778 Z" id="Fill-11" fill="#EC7070"/>
                    <path d="M827.1758,339.8773 C819.7418,360.4543 803.7398,363.3133 803.7398,363.3133 L694.5638,366.1713 L618.0908,275.4913 L599.5608,389.7003 L84.1388,389.7003 L74.3958,352.8853 C74.3958,352.8853 -10.0692,113.5813 110.1278,36.6943 C230.3168,-40.1837 350.5148,15.0433 425.2278,98.4173 C489.6308,170.2973 595.0698,205.1583 622.9458,213.4043 C635.5218,195.1963 656.9608,178.1203 693.4128,175.8283 C775.1548,170.6773 806.5988,232.9833 803.7398,280.4293 C803.7398,280.4293 802.0238,289.0053 811.7408,296.4313 C821.4588,303.8653 834.6108,319.3003 827.1758,339.8773" id="Fill-13" fill="#EECCDC"/>
                    <path d="M545.9434,249.452 C545.9434,249.452 640.9294,248.457 681.2124,296.199 C721.4944,343.941 721.3074,343.505 731.1154,343.505 C740.9234,343.505 771.6554,343.069 771.6554,343.069 L761.6364,391.945 L571.2454,389.606 L545.9434,249.452 Z" id="Fill-15" fill="#EECCDC"/>
                    <path d="M866.8125,392.609 L841.6655,392.609 C827.9425,392.609 816.8185,381.485 816.8185,367.763 C816.8185,354.041 827.9425,342.917 841.6655,342.917 L866.8125,342.917 C880.5345,342.917 891.6585,354.041 891.6585,367.763 C891.6585,381.485 880.5345,392.609 866.8125,392.609" id="Fill-17" fill="#FCEBEC"/>
                    <path d="M841.665,344.9166 C829.067,344.9166 818.818,355.1656 818.818,367.7626 C818.818,380.3606 829.067,390.6086 841.665,390.6086 L866.812,390.6086 C879.409,390.6086 889.658,380.3606 889.658,367.7626 C889.658,355.1656 879.409,344.9166 866.812,344.9166 L841.665,344.9166 Z M866.812,394.6086 L841.665,394.6086 C826.861,394.6086 814.818,382.5656 814.818,367.7626 C814.818,352.9596 826.861,340.9166 841.665,340.9166 L866.812,340.9166 C881.615,340.9166 893.658,352.9596 893.658,367.7626 C893.658,382.5656 881.615,394.6086 866.812,394.6086 L866.812,394.6086 Z" id="Fill-19" fill="#EC7070"/>
                    <path d="M856.7295,359.2894 C856.7295,359.2894 864.4665,362.7064 865.7555,371.5924 C867.0455,380.4774 866.4195,392.5634 866.4195,392.5634" id="Fill-21" fill="#FCEBEC"/>
                    <path d="M868.417,392.6666 L864.423,392.4596 C864.429,392.3406 865.022,380.4626 863.776,371.8796 C862.67,364.2496 856.189,361.2396 855.914,361.1156 L857.537,357.4596 C857.895,357.6176 866.304,361.4376 867.735,371.3046 C869.038,380.2816 868.443,392.1656 868.417,392.6666" id="Fill-23" fill="#EC7070"/>
                    <path d="M550.4541,250.3736 C550.4541,250.3736 635.9441,247.7516 674.7551,289.1856 C713.5661,330.6186 719.8601,344.2556 738.2171,342.6816 C756.5741,341.1086 785.9441,343.7306 785.9441,343.7306 L768.1121,360.5136" id="Fill-25" fill="#EECCDC"/>
                    <path d="M769.4834,361.9703 L766.7414,359.0573 L781.2854,345.3693 C772.3784,344.7173 752.1254,343.4973 738.3874,344.6743 C723.2354,345.9693 715.6744,337.4933 695.4184,314.8403 C689.5294,308.2553 682.2024,300.0613 673.2954,290.5523 C635.5574,250.2643 551.3614,252.3473 550.5154,252.3723 L550.3924,248.3743 C550.6114,248.3673 572.2684,247.7643 598.3904,252.2713 C622.6184,256.4503 655.7874,266.0103 676.2144,287.8183 C685.1534,297.3603 692.4984,305.5743 698.3994,312.1733 C718.2254,334.3453 724.9094,341.8163 738.0464,340.6893 C756.3634,339.1183 784.9154,341.6313 786.1224,341.7383 L790.5584,342.1353 L769.4834,361.9703 Z" id="Fill-27" fill="#EC7070"/>
                    <polygon id="Fill-29" fill="#EC7070" points="676.582 311.4618 676.514 307.4618 738.622 306.3978 682.614 272.5078 684.685 269.0848 752.565 310.1598"/>
                    <path d="M694.2139,339.9545 C694.3909,339.7955 694.7249,339.3195 694.7249,338.6585 L690.7249,338.6585 C690.7249,337.0785 690.7249,336.7505 718.1779,321.2825 C731.2509,313.9165 744.4949,306.6005 744.6269,306.5275 L746.5609,310.0295 C727.4459,320.5855 696.3319,338.0435 694.2139,339.9545" id="Fill-31" fill="#EC7070"/>
                    <path d="M820.9346,352.1913 C806.5396,372.8783 773.3276,345.7723 773.3276,345.7723 C773.3276,345.7723 768.3366,340.5203 773.0656,327.1153 C777.7926,313.7103 794.3526,311.8753 794.3526,311.8753 L825.3576,312.3993 L816.6976,317.9553 L827.0486,319.0883 C827.0486,319.0883 835.3296,331.4963 820.9346,352.1913" id="Fill-33" fill="#EC7070"/>
                    <path d="M791.2773,391.9454 L761.6363,391.9454 C747.9143,391.9454 736.7903,380.8214 736.7903,367.0994 C736.7903,353.3774 747.9143,342.2534 761.6363,342.2534 L791.2773,342.2534 C804.9993,342.2534 816.1233,353.3774 816.1233,367.0994 C816.1233,380.8214 804.9993,391.9454 791.2773,391.9454" id="Fill-35" fill="#FCEBEC"/>
                    <path d="M761.6367,344.253 C749.0387,344.253 738.7897,354.502 738.7897,367.099 C738.7897,379.697 749.0387,389.945 761.6367,389.945 L791.2777,389.945 C803.8737,389.945 814.1227,379.697 814.1227,367.099 C814.1227,354.502 803.8737,344.253 791.2777,344.253 L761.6367,344.253 Z M791.2777,393.945 L761.6367,393.945 C746.8327,393.945 734.7897,381.902 734.7897,367.099 C734.7897,352.296 746.8327,340.253 761.6367,340.253 L791.2777,340.253 C806.0797,340.253 818.1227,352.296 818.1227,367.099 C818.1227,381.902 806.0797,393.945 791.2777,393.945 L791.2777,393.945 Z" id="Fill-37" fill="#EC7070"/>
                    <path d="M779.0967,358.6258 C779.0967,358.6258 787.2987,362.0428 788.6657,370.9288 C790.0337,379.8138 789.3697,391.8998 789.3697,391.8998" id="Fill-39" fill="#FCEBEC"/>
                    <path d="M791.3672,392.0091 L787.3732,391.7901 C787.3802,391.6711 788.0082,379.8041 786.6892,371.2331 C785.5162,363.6121 778.6142,360.5941 778.3202,360.4691 L779.8662,356.7801 C780.2432,356.9371 789.1222,360.7431 790.6422,370.6241 C792.0252,379.6131 791.3942,391.5071 791.3672,392.0091" id="Fill-41" fill="#EC7070"/>
                    <path d="M804.2734,311.7579 C804.2734,311.7579 802.5664,331.5819 828.5554,335.4709 C828.5554,335.4709 831.1164,329.4009 828.4604,320.3899 C825.8044,311.3789 825.0454,311.9479 825.0454,311.9479 L804.2734,311.7579 Z" id="Fill-43" fill="#000"/>
                    <path d="M484.7031,343.5353 C484.2551,343.5283 439.6641,342.8193 418.1911,341.4343 C405.9851,340.6463 386.4481,306.9053 355.7221,251.4283 C335.1621,214.3063 313.9011,175.9203 296.5511,155.4723 C258.3911,110.4983 159.7801,101.7243 158.7891,101.6413 L159.1231,97.6553 C159.3751,97.6763 184.6331,99.8573 214.3441,107.6763 C241.8901,114.9253 279.0411,128.6523 299.6011,152.8843 C317.2081,173.6353 338.5661,212.1973 359.2211,249.4903 C382.9781,292.3843 407.5441,336.7393 418.4491,337.4423 C439.8241,338.8213 484.3181,339.5283 484.7651,339.5353 L484.7031,343.5353 Z" id="Fill-45" fill="#EC7070"/>
                    <path d="M402.5869,333.5004 C390.6949,345.5944 372.1489,355.1684 350.9379,362.7204 L323.1119,296.9384 C338.7079,292.5244 347.9599,289.2934 347.9599,289.2934 C348.4589,269.4104 370.1019,260.2164 370.1019,260.2164 C395.9219,245.2214 450.8869,284.3624 402.5869,333.5004" id="Fill-47" fill="#FCEBEC"/>
                    <path d="M325.835,298.2425 L352.042,360.1975 C374.258,352.1075 390.777,342.6585 401.161,332.0985 L401.16,332.0985 C429.639,303.1265 418.636,281.8635 412.584,274.0665 C402.082,260.5375 383.088,254.9875 371.106,261.9465 L370.884,262.0575 C370.681,262.1445 350.419,271.0115 349.959,289.3435 L349.925,290.7255 L348.619,291.1815 C348.53,291.2125 340.009,294.1775 325.835,298.2425 L325.835,298.2425 Z M349.831,365.2375 L320.388,295.6315 L322.567,295.0145 C334.659,291.5915 342.994,288.8585 346.03,287.8375 C346.636,279.6665 350.719,272.0715 357.901,265.7925 C363.165,261.1925 368.331,258.8115 369.199,258.4285 C382.826,250.6065 404.109,256.6255 415.743,271.6135 C429.69,289.5815 425.306,313.2405 404.014,334.9025 L404.013,334.9025 C392.927,346.1775 375.296,356.1705 351.608,364.6045 L349.831,365.2375 Z" id="Fill-49" fill="#EC7070"/>
                    <path d="M350.9375,362.7208 C285.9755,385.8688 196.0465,390.1318 196.0465,390.1318 L18.6525,389.3028 C18.6525,389.3028 2.0005,384.3038 2.0005,360.1498 C2.0005,336.0038 26.9825,330.1678 26.9825,330.1678 C26.9825,330.1678 103.8195,325.2968 187.6155,320.6708 C242.2755,317.6508 293.8575,305.2188 323.1125,296.9388 L350.9375,362.7208 Z" id="Fill-51" fill="#EECCDC"/>
                    <path d="M18.9834,387.3041 L196.0034,388.1311 C198.5554,388.0041 285.1134,383.4921 348.2664,361.5411 L321.9574,299.3421 C294.7274,306.9671 242.5884,319.6371 187.7254,322.6681 C106.8284,327.1331 31.4714,331.8881 27.2864,332.1531 C25.0994,332.7061 4.0004,338.6101 4.0004,360.1501 C4.0004,381.0921 16.9304,386.5681 18.9834,387.3041 L18.9834,387.3041 Z M196.0894,392.1321 L18.3544,391.3011 L18.0774,391.2181 C17.8864,391.1611 13.3674,389.7671 8.8944,385.1801 C4.8374,381.0201 0.0004,373.3001 0.0004,360.1501 C0.0004,334.7111 26.2614,328.2831 26.5274,328.2211 L26.8554,328.1721 C27.6244,328.1231 104.6594,323.2471 187.5044,318.6741 C243.1464,315.6001 296.0084,302.5311 322.5674,295.0141 L324.2664,294.5331 L353.6054,363.8931 L351.6084,364.6051 C287.1134,387.5871 197.0444,392.0861 196.1414,392.1291 L196.0894,392.1321 Z" id="Fill-53" fill="#EC7070"/>
                    <path d="M492.4951,387.3898 L462.8531,387.3898 C449.1321,387.3898 438.0081,376.2658 438.0081,362.5438 C438.0081,348.8218 449.1321,337.6978 462.8531,337.6978 L492.4951,337.6978 C506.2171,337.6978 517.3411,348.8218 517.3411,362.5438 C517.3411,376.2658 506.2171,387.3898 492.4951,387.3898" id="Fill-55" fill="#FCEBEC"/>
                    <path d="M462.8535,339.6974 C450.2565,339.6974 440.0075,349.9464 440.0075,362.5434 C440.0075,375.1414 450.2565,385.3894 462.8535,385.3894 L492.4955,385.3894 C505.0915,385.3894 515.3405,375.1414 515.3405,362.5434 C515.3405,349.9464 505.0915,339.6974 492.4955,339.6974 L462.8535,339.6974 Z M492.4955,389.3894 L462.8535,389.3894 C448.0505,389.3894 436.0075,377.3464 436.0075,362.5434 C436.0075,347.7404 448.0505,335.6974 462.8535,335.6974 L492.4955,335.6974 C507.2975,335.6974 519.3405,347.7404 519.3405,362.5434 C519.3405,377.3464 507.2975,389.3894 492.4955,389.3894 L492.4955,389.3894 Z" id="Fill-57" fill="#EC7070"/>
                    <path d="M480.3145,354.0702 C480.3145,354.0702 488.5165,357.4872 489.8835,366.3732 C491.2505,375.2582 490.5875,387.3442 490.5875,387.3442" id="Fill-59" fill="#FCEBEC"/>
                    <path d="M492.585,387.4532 L488.591,387.2342 C488.598,387.1162 489.225,375.2482 487.907,366.6772 C486.734,359.0562 479.832,356.0382 479.538,355.9132 L481.084,352.2242 C481.461,352.3812 490.34,356.1872 491.86,366.0692 C493.242,375.0572 492.612,386.9512 492.585,387.4532" id="Fill-61" fill="#EC7070"/>
                </g>
            </g>
        </g>
        <g transform="translate(3128.000000, 85.000000) scale(1 1)" id="Master/Character/Sitting On Floor">
            <defs>
                <polygon id="mastercharactersitting-on-floor-path-1" points="0 0.216 1141.521 0.216 1141.521 422.785934 0 422.785934"/>
            </defs>
            <g id="Master/Character/Sitting On Floor" stroke="none" stroke-width="1" fill="none" fill-rule="evenodd">
                <g id="Upper Body" transform="translate(911.000000, 1329.000000) scale(1 1)">
                    <g id="Upper Body/Coffee and Phone" stroke="none" stroke-width="1" fill="none" fill-rule="evenodd">
                        <path d="M724.954254,220 C724.954254,220 721.26343,301.153386 673.924004,329.799638 C630.972611,355.790794 721.968632,506.610475 819.857852,497.613536 C873.442212,492.688212 886,346.158072 886,346.158072 C886,346.158072 842.733964,337.796917 858.715877,271.819367 L724.954254,220 Z" id="Neck" fill="#7d4439"/>
                        <path d="M803.337113,302.515641 C739.876612,294.840687 694.077698,253.11575 687.664652,183.898064 C669.216286,186.83496 664.86504,138.764927 670.003065,123.322958 C675.146083,107.858975 691.933027,116.900812 691.933027,116.900812 C692.862251,114.457234 693.652358,111.898916 694.303348,109.225857 C722.02532,-4.48555283 799.669805,0.0243586862 799.669805,0.0243586862 C942.344355,7.45715716 908.914243,153.120195 900.762895,191.763142 C892.610548,230.410091 864.683894,309.927426 803.337113,302.515641 Z" id="Head" fill="#7d4439"/>
                        <g id="Group-31" transform="translate(252.000000, 332.000000)">
                            <path d="M124.228038,244 C11.2352329,423.00307 -24.4113903,531.60947 17.2881683,569.8192 C58.9877269,608.02893 138.53656,561.548058 255.934668,430.376584 C249.88449,401.088818 234.264802,369.134178 209.075603,334.512664 C183.886404,299.89115 155.603882,269.720262 124.228038,244 Z" id="Path" fill="#7d4439"/>
                            <g id="Group-3" transform="translate(61.000000, 0.170000)" fill="#F9C818">
                                <path d="M775.3187,371.0099 L692.8487,361.4099 C692.8487,361.4099 713.9487,645.2899 706.0187,645.2899 C701.759788,645.2899 602.695622,699 463.869422,699 C357.218623,699 226.3987,663.7299 220.8687,663.4299 C220.1887,663.3899 219.5287,662.9299 218.8987,662.0799 C220.6787,642.4999 222.0887,607.8799 223.5187,569.6499 C224.5187,542.8299 225.5387,514.2399 226.7087,487.8299 C227.7987,463.2599 229.0187,440.5799 230.4887,422.9599 C236.8887,346.1099 232.4587,275.9799 232.4587,275.9799 L200.8787,361.6799 L0.6787,288.7399 C0.6787,288.7399 67.5287,191.3099 147.2287,106.5709 C226.2987,22.4899 353.1187,1.1599 355.0987,0.8399 C355.1087,0.8299 355.1187,0.8299 355.1187,0.8299 C355.1187,0.8299 347.9987,116.8299 467.9687,125.7399 C567.7187,133.1499 572.8887,13.5899 572.8887,13.5899 C572.8887,13.5899 689.4887,44.0299 722.9387,72.5599 C756.3887,101.0899 903.9587,295.8799 903.9587,300.7999 C903.9587,305.7199 775.3187,371.0099 775.3187,371.0099 Z" id="Fill-1"/>
                            </g>
                            <path d="M287.7087,488.0002 C286.5387,514.4102 285.5187,543.0002 284.5187,569.8192 C284.2887,551.6492 285.0087,525.5202 287.7087,488.0002" id="Fill-4" fill="#F9C818"/>
                            <path d="M702.2694,404.5715 L597.3924,413.0945 C591.0714,413.6085 585.5294,408.9005 585.0154,402.5785 L568.2534,196.3425 C567.7404,190.0205 572.4484,184.4785 578.7704,183.9655 L683.6464,175.4415 C689.9684,174.9275 695.5104,179.6355 696.0244,185.9585 L712.7854,392.1935 C713.2994,398.5155 708.5914,404.0565 702.2694,404.5715" id="Fill-6" fill="#204EB2"/>
                            <path d="M712.9597,398.8557 L607.7047,407.4107 C601.4877,407.9167 596.0377,403.2857 595.5317,397.0677 L579.3497,197.9667 C578.8447,191.7507 583.4757,186.2997 589.6927,185.7947 L694.9477,177.2407 C701.1647,176.7347 706.6147,181.3657 707.1207,187.5837 L723.3027,386.6827 C723.8077,392.9007 719.1767,398.3507 712.9597,398.8557" id="Fill-8" fill="#1F9BEB"/>
                            <path d="M695.2557,199.9397 C695.7407,205.9117 691.2937,211.1457 685.3217,211.6307 C679.3507,212.1167 674.1157,207.6687 673.6307,201.6967 C673.1457,195.7257 677.5927,190.4917 683.5647,190.0057 C689.5357,189.5207 694.7707,193.9677 695.2557,199.9397" id="Fill-10" fill="#204EB2"/>
                            <g id="Group-14" transform="translate(597.000000, 271.170000)" fill="#7d4439">
                                <path d="M77.4915,120.4122 C77.4915,120.4122 24.8945,131.8762 24.5575,113.6692 C24.5575,113.6692 60.2965,98.8342 68.3885,99.5082 C76.4805,100.1832 113.9055,104.5652 113.9055,104.5652 L67.7135,81.6392 L21.8595,95.8002 C21.8595,95.8002 11.4075,96.4742 6.6875,89.0562 C1.9675,81.6392 7.3615,77.2562 7.3615,77.2562 L67.3765,57.3632 C67.3765,57.3632 69.3995,50.9572 54.2275,50.2822 C39.0545,49.6082 5.6755,47.2482 5.6755,47.2482 C5.6755,47.2482 -1.7415,40.8422 1.6295,29.3782 C5.0015,17.9152 23.8825,21.9612 23.8825,21.9612 C23.8825,21.9612 13.4305,11.8462 29.2775,0.7202 C29.2775,0.7202 77.8285,2.0682 95.6985,13.1942 C113.5675,24.3212 235.8865,99.4262 235.8865,99.4262 L331.0955,49.4172 C451.590946,196.91838 483.559113,284.305469 427,311.578469 C370.440887,338.851469 253.938054,275.12938 77.4915,120.4122 Z" id="Fill-12"/>
                            </g>
                            <path d="M727.306,325.2717 L679.503,298.1827 L619.978,291.8047 L620.404,287.8287 L680.341,294.2507 C680.613,294.2787 680.876,294.3637 681.114,294.4987 L729.278,321.7917 L727.306,325.2717 Z" id="Fill-15" fill="#000"/>
                            <polygon id="Fill-17" fill="#000" points="919.1846 425.2678 804.9306 353.4728 807.0586 350.0858 921.3126 421.8808"/>
                            <polygon id="Fill-17" fill="#000" transform="translate(144.427192, 377.066865) rotate(-64.000000) translate(-144.427192, -377.066865)" points="200.490192 414.657865 86.2361924 342.862865 88.3641924 339.475865 202.618192 411.270865"/>
                            <path d="M723.4331,347.2365 C723.1311,347.0325 693.1771,326.7545 685.3661,323.4995 C679.4071,321.0165 667.4941,325.5465 663.4071,327.5025 L661.6811,323.8925 C662.3471,323.5755 678.0911,316.1325 686.9041,319.8075 C695.0851,323.2155 724.4321,343.0815 725.6771,343.9255 L723.4331,347.2365 Z" id="Fill-19" fill="#000"/>
                            <polygon id="Fill-21" fill="#7d4439" points="713.1401 268.1242 742.6541 313.2642 714.5871 295.6132"/>
                            <polygon id="Fill-23" fill="#000" points="741.5894 314.9572 713.5224 297.3072 715.6514 293.9202 743.7184 311.5702"/>
                            <path d="M349.7,425.014 L314.555,424.325 C277.55,423.599 248.139,393.011 248.865,356.006 L251.062,244 L410.887,247.136 L408.507,368.469 C407.883,400.323 381.554,425.639 349.7,425.014" id="Fill-27" fill="#FFF"/>
                        </g>
                        <g id="Group" transform="translate(455.000000, 614.711100)">
                            <path d="M44.5615768,2.84217094e-14 C44.5615768,2.84217094e-14 30.1385768,9.272 25.5025768,14.938 C20.8665768,20.604 24.9875768,21.635 14.6855768,32.452 C4.38357684,43.27 -14.1604232,70.57 18.2905768,112.294 C50.7435768,154.018 61.5605768,150.411 74.9535768,143.2 C88.3455768,135.988 89.8915768,130.838 115.131577,128.262 C140.371577,125.687 164.581577,100.961 164.066577,94.78 L163.551577,88.599 C163.551577,88.599 186.730577,79.842 185.186577,70.055 C183.640577,60.268 176.944577,61.298 176.944577,61.298 C176.944577,61.298 181.580577,56.662 177.974577,48.42 C174.368577,40.179 157.370577,41.724 137.795577,44.3 C118.222577,46.875 67.7415768,57.177 64.6505768,55.117 C61.5605768,53.057 62.5905768,49.966 74.4375768,48.42 C86.2855768,46.875 134.190577,46.36 134.190577,32.967 C134.190577,19.574 119.767577,16.999 91.9515768,17.514 C64.1355768,18.029 58.9845768,16.483 52.2885768,19.06 L45.5915768,21.635 L44.5615768,2.84217094e-14 Z" id="Fill-12" fill="#7d4439"/>
                            <path d="M177.350177,61.2402 C177.350177,61.2402 178.830177,60.1722 167.807177,64.3812 C163.793177,65.9132 158.133177,67.5122 150.159177,69.0242 C120.282177,74.6902 73.4081768,84.9932 58.9851768,87.0532 C44.5611768,89.1142 56.4091768,92.2042 89.3761768,85.5082 C122.343177,78.8112 161.588177,69.8282 163.350177,69.2402 C166.350177,68.2402 175.350177,65.2402 177.350177,61.2402" id="Fill-14" fill="#000"/>
                            <path d="M152.733877,91.6895 C152.733877,91.6895 128.349877,100.2405 116.349877,103.2405 C103.608877,106.4255 94.0118768,110.7485 91.4368768,106.6275 C88.8608768,102.5065 85.7698768,101.4765 85.7698768,101.4765 L81.6498768,106.1125 C81.6498768,106.1125 82.3498768,111.2405 80.1038768,111.7785 C76.0968768,112.7395 68.2558768,114.3545 68.2558768,114.3545 C68.2558768,114.3545 68.3498768,117.2405 92.3498768,112.2405 C98.3048768,111.0005 109.349877,109.2405 116.349877,107.2405 C122.788877,105.4005 146.037877,99.4165 149.128877,96.8405 C152.218877,94.2645 152.733877,91.6895 152.733877,91.6895" id="Fill-16" fill="#000"/>
                            <path d="M77.0131768,89.1143 C77.0131768,89.1143 76.6331768,109.8573 82.4891768,109.5303 C88.3461768,109.2033 90.4061768,109.2033 91.4361768,107.6573 C92.4671768,106.1123 89.8911768,100.9613 89.8911768,95.2953 C89.8911768,89.6293 89.8911768,87.0533 85.2551768,87.5683 C80.6191768,88.0843 77.5281768,88.0843 77.0131768,89.1143" id="Fill-18" fill="#F9C818"/>
                        </g>
                    </g>
                </g>
                <g id="Lower Body/Sitting on Floor" transform="translate(1165.000000, 2270.000000) scale(-1, 1) translate(-1165.000000, -2270.000000) translate(0.000000, 1832.000000) scale(1 1)">
                    <defs>
                        <polygon id="lower-bodysitting-on-floorlegs-crossed-1-path-1" points="0 0.216 1141.521 0.216 1141.521 422.785934 0 422.785934"/>
                    </defs>
                    <g id="Lower Body/Sitting on Floor/Legs Crossed 1" stroke="none" stroke-width="1" fill="none" fill-rule="evenodd">
                        <g id="Group-46" transform="translate(69.000000, 357.000000)">
                            <path d="M583.8821,306.5582 C583.8821,306.5582 541.1281,325.1022 535.9771,317.8902 C530.8261,310.6792 575.1251,355.4942 575.1251,355.4942 L607.0621,337.4642 L583.8821,306.5582 Z" id="Fill-1" fill="#7d4439"/>
                            <path d="M583.8821,306.5582 C583.8821,306.5582 541.1281,325.1022 535.9771,317.8902 C530.8261,310.6792 575.1251,355.4942 575.1251,355.4942 L607.0621,337.4642 L583.8821,306.5582 Z" id="Stroke-3" stroke="#000" stroke-width="3"/>
                            <path d="M241.3362,329.2232 C241.3362,329.2232 178.4932,365.7952 228.4582,422.9722 C278.4232,480.1492 455.1052,441.0012 455.1052,441.0012 L459.7412,418.3362 C459.7412,418.3362 282.0292,332.3142 241.3362,329.2232" id="Fill-5" fill="#F0ECEC"/>
                            <path d="M241.3362,329.2232 C241.3362,329.2232 216.6112,334.3732 208.8842,362.7042 C201.1582,391.0362 218.1892,424.0292 243.1552,435.0902 C243.1552,435.0902 211.2912,364.3752 267.2642,335.2092 L241.3362,329.2232 Z" id="Fill-7" fill="#E0D3CC"/>
                            <path d="M261.5242,443.1266 C261.5242,443.1266 284.0902,397.2176 294.3922,398.2476 C304.6942,399.2776 416.2152,405.0666 427.4192,402.9446 L464.3772,417.8206 L457.8422,441.4046 C457.8422,441.4046 320.3452,473.5836 261.5242,443.1266" id="Fill-9" fill="#E7DADA"/>
                            <path d="M291.8167,356.524 C291.8167,356.524 283.5747,416.276 295.4217,416.276 C307.2697,416.276 310.3607,349.312 312.4207,372.492 C314.4817,395.671 316.0267,425.033 323.7537,416.276 C331.4797,407.519 315.5117,342.616 322.2077,360.644 C328.9037,378.673 333.0247,412.67 343.8427,412.155 C354.6597,411.64 339.7217,377.128 345.3877,376.097 C351.0537,375.067 362.3857,420.912 372.1727,415.246 C381.9607,409.58 363.9317,371.977 374.2337,385.884 C384.5357,399.793 387.6267,416.276 396.8987,414.215 C406.1707,412.155 395.8677,394.127 390.2017,385.37 C384.5357,376.613 297.4827,343.13 294.9067,347.252 C292.3317,351.373 291.8167,356.524 291.8167,356.524" id="Fill-11" fill="#F9F9F9"/>
                            <g id="Group-15" transform="translate(0.000000, 0.784000)">
                                <mask id="lower-bodysitting-on-floorlegs-crossed-1-mask-2" fill="#fff">
                                    <use xlink:href="#lower-bodysitting-on-floorlegs-crossed-1-path-1"/>
                                </mask>
                                <g id="Clip-14"/>
                                <path d="M424.7141,414.4617 C424.7141,414.4617 216.6111,354.1937 119.7711,277.4427 C22.9311,200.6917 -33.2159,126.0017 21.3851,42.0397 C75.9861,-41.9233 204.2481,21.9497 266.0611,49.2507 C327.8741,76.5517 530.5701,115.1607 627.2801,114.9157 C723.9911,114.6697 853.7981,107.4577 921.2771,87.3687 C988.7561,67.2797 1096.4131,36.8887 1129.3811,118.7907 C1162.3471,200.6917 1123.7141,281.0497 1067.0521,308.3497 C1010.3901,335.6497 835.7691,394.3727 746.1411,388.7067 L656.5121,383.0397 C656.5121,383.0397 617.8791,340.2867 628.1811,277.9587 L574.0951,317.1067 C574.0951,317.1067 543.1891,316.5917 531.8561,312.4707 C520.5241,308.3497 457.6811,459.2757 424.7141,414.4617" id="Fill-13" fill="#56ACF6" mask="url(#lower-bodysitting-on-floorlegs-crossed-1-mask-2)"/>
                            </g>
                            <path d="M479.8304,422.4576 C479.8304,422.4576 570.4894,455.9386 592.1234,469.8476 C613.7584,483.7556 658.5724,495.6026 680.2074,480.6646 C701.8414,465.7266 688.9644,391.5516 688.9644,391.5516 C688.9644,391.5516 616.3334,375.0666 608.0924,363.7346 C599.8504,352.4026 533.9164,314.8006 533.9164,314.8006 L479.8304,422.4576 Z" id="Fill-16" fill="#7d4439"/>
                            <path d="M681.1965,397.4195 C681.1965,397.4195 685.8735,385.3695 700.2965,387.9445 C714.7195,390.5215 849.1625,375.5825 887.7955,364.7655 C926.4275,353.9475 1008.3305,430.6985 972.7875,484.7845 C937.2455,538.8715 888.8255,513.1155 845.0415,509.5105 C801.2575,505.9045 716.2645,518.2675 697.2055,512.0855 C678.1465,505.9045 659.0875,494.5715 658.5725,481.1795 C658.0575,467.7865 681.1965,397.4195 681.1965,397.4195" id="Fill-18" fill="#F0ECEC"/>
                            <path d="M877.7664,371.8189 C877.7664,371.8189 934.6694,399.7929 944.9724,438.4249 C955.2744,477.0579 950.4914,507.9839 950.4914,507.9839 C950.4914,507.9839 1004.4904,482.5399 973.7014,422.1069 C942.9114,361.6739 894.5234,356.7079 877.7664,365.6299 C861.0094,374.5519 877.7664,371.8189 877.7664,371.8189" id="Fill-20" fill="#E0D3CC"/>
                            <path d="M871.4646,370.5123 C871.4646,370.5123 848.1316,407.5193 845.0416,434.3043 C845.0416,434.3043 847.1016,439.4553 821.3466,438.9413 C795.5906,438.4253 675.5176,412.0763 675.5176,412.0763 C675.5176,412.0763 649.6886,473.9503 659.0246,489.9273 C668.3596,505.9053 845.0416,475.5133 845.0416,475.5133 C845.0416,475.5133 852.2526,471.3923 856.8886,474.9983 C861.5246,478.6043 885.4606,511.6303 918.3066,518.2963 C918.3066,518.2963 867.1906,490.9663 863.0696,454.9083 C858.9486,418.8513 871.4646,370.5123 871.4646,370.5123" id="Fill-22" fill="#EEDFD9"/>
                            <path d="M701.8416,408.0348 C701.8416,408.0348 703.3866,443.0608 696.6906,462.6358 C689.9936,482.2098 684.4326,499.2828 695.9696,497.1848 C707.5076,495.0878 719.8706,417.3058 713.1746,410.6098 C706.4776,403.9138 702.3566,401.8528 701.8416,408.0348" id="Fill-24" fill="#FFF"/>
                            <path d="M720.9006,412.1549 C720.9006,412.1549 722.4456,447.1819 715.7496,466.7569 C709.0526,486.3309 703.4916,503.4029 715.0286,501.3049 C726.5666,499.2089 738.9296,421.4269 732.2326,414.7309 C725.5366,408.0349 721.4156,405.9739 720.9006,412.1549" id="Fill-26" fill="#FFF"/>
                            <path d="M788.3796,413.3853 C788.3796,413.3853 789.9246,445.4233 783.2286,463.3263 C776.5316,481.2303 770.9706,496.8463 782.5076,494.9273 C794.0456,493.0083 806.4086,421.8653 799.7116,415.7403 C793.0156,409.6153 788.8946,407.7313 788.3796,413.3853" id="Fill-28" fill="#FFF"/>
                            <path d="M814.135,417.2809 C814.135,417.2809 815.68,447.1849 808.984,463.8959 C802.287,480.6079 796.726,495.1829 808.263,493.3929 C819.801,491.6019 832.164,425.1969 825.467,419.4799 C818.771,413.7619 814.65,412.0039 814.135,417.2809" id="Fill-30" fill="#FFF"/>
                            <path d="M832.6423,415.1246 C832.6423,415.1246 838.4183,444.5056 834.1633,461.9986 C829.9083,479.4916 826.4733,494.7096 837.6393,491.2986 C848.8053,487.8876 851.6123,420.3986 844.1723,415.6906 C836.7313,410.9826 832.4023,409.8266 832.6423,415.1246" id="Fill-32" fill="#FFF"/>
                            <path d="M744.8552,414.4049 C744.8552,414.4049 742.8102,449.4069 734.1472,468.1939 C725.4832,486.9799 718.2052,503.3939 729.8972,502.4879 C741.5882,501.5819 761.8412,425.4719 755.8652,418.1269 C749.8882,410.7799 746.0002,408.3089 744.8552,414.4049" id="Fill-34" fill="#FFF"/>
                            <path d="M754.9553,413.7564 C754.9553,413.7564 761.9163,448.1194 758.3383,468.4954 C754.7593,488.8714 751.9143,506.6014 762.9873,502.7384 C774.0593,498.8764 774.2043,420.1184 766.5503,414.5424 C758.8953,408.9664 754.5053,407.5694 754.9553,413.7564" id="Fill-36" fill="#FFF"/>
                            <path d="M677.7112,409.7262 C677.7112,409.7262 710.0832,416.7912 703.3872,455.9392 C696.6902,495.0872 656.0132,484.0552 656.0132,484.0552 C656.0132,484.0552 646.3702,419.6602 677.7112,409.7262" id="Fill-38" fill="#FFF"/>
                            <polygon id="Stroke-40" fill="#000" fill-rule="nonzero" points="222.064539 67.357022 506.395 291.638 567.949 317.564 633.126623 276.966138 856.941623 135.370138 859.080177 138.750462 635.253319 280.353906 568.306142 322.054535 504.343936 295.114337 219.587261 70.497578"/>
                            <path d="M640.0286,255.5631 C640.0286,255.5631 593.6696,268.4401 580.7916,290.5901 C567.9136,312.7401 572.0346,350.8571 610.1526,366.8261 C648.2706,382.7941 663.7236,396.1871 653.9366,370.9471 C644.1496,345.7071 626.1206,299.3461 640.0286,255.5631" id="Fill-42" fill="#AFDEFF"/>
                            <path d="M505.0706,284.9234 C505.0706,284.9234 500.4346,336.4344 472.1036,376.6124 C443.7736,416.7914 418.5326,420.9114 427.8046,430.6984 C437.0766,440.4854 451.4996,445.1214 460.7716,457.4854 C470.0436,469.8474 469.5286,469.3314 491.1626,443.5764 C512.7976,417.8204 560.1876,360.6444 561.2176,309.6494 C561.2176,309.6494 509.1916,267.9254 505.0706,284.9234" id="Fill-44" fill="#AFDEFF"/>
                        </g>
                    </g>
                </g>
                <g id="Expression" transform="translate(1633.000000, 1412.000000) scale(1 1)" fill="#000">
                    <g id="Expression/Meditating" stroke="none" stroke-width="1" fill="none" fill-rule="evenodd">
                        <g id="Group-124" transform="translate(25.000000, 31.000000)" fill="#000" fill-rule="nonzero">
                            <path d="M104.685189,41.7608422 C105.799739,40.6260634 107.594825,40.5649295 108.78246,41.5890238 L109.323265,42.0922215 C109.679851,42.417346 110.098676,42.7830843 110.574652,43.1792057 C111.94412,44.3189167 113.484129,45.4610626 115.151599,46.5241767 C119.702796,49.4258418 124.295338,51.172265 128.558587,51.2424016 C132.874539,51.3130298 136.865025,49.9074098 140.437409,47.4948081 C141.67134,46.6614747 142.761501,45.768172 143.691014,44.8802215 L143.992411,44.5872953 C144.224631,44.3574693 144.409243,44.1644586 144.544403,44.0166431 L144.733887,43.8011958 C145.791956,42.526184 147.683292,42.3503175 148.958304,43.408387 C150.233316,44.4664564 150.409182,46.3577925 149.351113,47.6328042 L149.150042,47.8672558 C148.847545,48.210262 148.407828,48.6720596 147.83555,49.2187491 C146.672781,50.3295265 145.323752,51.4349517 143.795434,52.4670978 C139.27381,55.5207674 134.125278,57.3343007 128.460152,57.2415941 C122.909111,57.1502715 117.329711,55.028572 111.926036,51.5834002 C110.031541,50.3755444 108.290777,49.0845082 106.736552,47.7910371 L106.286566,47.4122537 C105.573365,46.8047902 105.045411,46.3196388 104.723342,46.0033113 C103.541281,44.8423217 103.524199,42.9429035 104.685189,41.7608422 Z" id="Stroke-110"/>
                            <path d="M38.7253835,117.884449 C39.5642128,116.527263 41.3095678,116.07235 42.6962173,116.818359 L43.3869917,117.21948 L43.8984869,117.502848 C44.2590401,117.698929 44.6584684,117.908937 45.0953445,118.130389 C46.9879034,119.089729 49.1612767,120.052834 51.576502,120.953225 C60.5558907,124.300723 70.2239338,125.866606 79.9973044,124.67862 C81.6420524,124.478696 83.1374551,125.649956 83.3373798,127.294704 C83.5373044,128.939452 82.3660437,130.434855 80.7212956,130.63478 C69.894657,131.950794 59.2949096,130.234008 49.4806187,126.57526 C46.8465621,125.593288 44.4687237,124.539577 42.3825599,123.482099 L41.6157512,123.086639 C40.7409474,122.627255 40.0965569,122.258685 39.7000485,122.013616 C38.290664,121.142525 37.8542916,119.293833 38.7253835,117.884449 Z" id="Stroke-112"/>
                            <path d="M98.9388073,21.5157268 L102.747593,22.7376732 L102.375135,23.9309532 C102.075892,24.9043293 101.742122,26.0179097 101.382468,27.2529166 C100.354215,30.7838089 99.3257634,34.5761133 98.3662837,38.478955 C97.2996742,42.8175645 96.3854385,47.0250163 95.6702376,50.9976992 L95.4631649,52.1740325 C93.7257688,62.2776329 93.4803733,69.9926374 95.0328764,74.1417647 L95.1244408,74.3771728 C104.002358,96.340079 91.9464166,107.47795 66.6424816,99.6786942 L65.8716485,99.4365483 L67.0907515,95.6268517 C89.8846425,102.920897 99.0260452,94.7026714 91.4159925,75.8763096 C89.3210345,70.6942966 89.6433125,61.8993486 91.7335247,50.288974 C92.4647551,46.2272527 93.3964651,41.9393815 94.4819426,37.5240234 C95.3476055,34.0027971 96.2678852,30.5727889 97.1943734,27.3381428 L97.5420029,26.1345115 C97.7507758,25.4176112 97.9510908,24.7405619 98.1413397,24.1068373 L98.6297394,22.5024497 L98.9388073,21.5157268 Z" id="Stroke-114"/>
                            <path d="M24.5912986,0.515294847 C27.6392394,0.103272361 30.4710762,-0.0333671966 33.0631806,0.158696725 C36.7115321,0.428668329 41.5437912,1.40832846 47.38095,2.94765852 C49.16614,3.41843493 51.0205155,3.93578045 52.9276851,4.49220122 C56.1314208,5.42689786 59.3319836,6.42632221 62.3826864,7.42579929 L64.3883843,8.09051311 L66.3809754,8.76899282 C69.2488284,9.77010581 70.7621202,12.9065224 69.7610072,15.7743754 C68.784922,18.5705321 65.7789638,20.079009 62.9711796,19.2247943 L62.6828368,19.1290737 L61.7501044,18.8096194 C60.9247361,18.529366 59.9876716,18.2164443 58.9579598,17.8790882 C56.0143005,16.9146808 52.9257075,15.9502208 49.8468536,15.0519587 C48.0274857,14.5211542 46.264248,14.0292349 44.57601,13.5840259 L43.4692061,13.2961425 C38.7383101,12.0831846 34.8659461,11.3221737 32.2508875,11.1286639 C30.4966745,10.9986842 28.4072689,11.0995005 26.0648822,11.4161458 C23.2480808,11.7969227 20.1879155,12.4702927 17.0440173,13.3532292 C15.4806567,13.7922855 13.9823806,14.2588747 12.5892526,14.7284835 L11.9016364,14.9634261 C11.4618938,15.1157145 11.0608605,15.2586308 10.7024987,15.389676 L9.97161227,15.6633149 C7.14357473,16.7719229 3.95229301,15.3780498 2.84368505,12.5500123 C1.7350771,9.72197473 3.12895018,6.53069301 5.95698773,5.42208505 L6.52985093,5.20370717 C6.98422439,5.03423142 7.580659,4.81888054 8.30194561,4.56908982 C10.0818577,3.95268364 12.0231675,3.33772818 14.0698269,2.76294164 C17.6714831,1.75144773 21.2151691,0.971682068 24.5912986,0.515294847 Z" id="Stroke-116"/>
                            <path d="M121.789545,16.5878801 L123.114219,16.5529702 C128.555995,16.4306526 133.021889,16.6000706 136.338056,17.1542512 C138.168033,17.4600991 140.074506,17.9728696 142.05661,18.6687631 C144.999596,19.7020115 148.057071,21.1185695 151.173952,22.8231086 C153.163457,23.9111153 155.079106,25.0624467 156.876125,26.2225048 L157.638883,26.7200477 C158.857885,27.5234673 159.765181,28.1586854 160.289098,28.5434618 C162.679021,30.2986767 163.193553,33.6589748 161.438338,36.0488977 C159.730562,38.3742281 156.503291,38.9241706 154.128755,37.3354869 L153.387738,36.810348 L152.775165,36.3869315 C152.451527,36.1659242 152.102331,35.9314768 151.729689,35.6858759 C149.947809,34.5114755 148.017701,33.3358642 146.02174,32.244327 C143.380044,30.7996542 140.834405,29.6202345 138.499485,28.8004711 C137.066648,28.2974188 135.746258,27.9422828 134.568033,27.7453637 C131.847034,27.2906445 127.508258,27.1586717 122.11249,27.3210227 C118.82153,27.420043 115.289632,27.6221963 111.690697,27.8970199 L110.130765,28.0203831 C109.109219,28.103955 108.126228,28.1898666 107.192238,28.2762012 L104.514558,28.5395365 C101.566608,28.8590654 98.9177923,26.7283087 98.5982635,23.7803582 C98.2867228,20.9061064 100.304485,18.31622 103.137903,17.8923638 L103.931548,17.8040918 L105.143479,17.6838888 L105.484548,17.6512271 C107.138496,17.4939444 108.952748,17.3368342 110.873097,17.1901915 C114.625356,16.9036597 118.316967,16.6923651 121.789545,16.5878801 Z" id="Stroke-118"/>
                            <path d="M17.7652887,31.9386422 C18.8798388,30.8038634 20.6749245,30.7427295 21.8625603,31.7668238 L22.403365,32.2700215 L22.8608172,32.6790108 C23.104155,32.8925979 23.3691663,33.1193328 23.6547521,33.3570057 C25.0242202,34.4967167 26.5642285,35.6388626 28.2316992,36.7019767 C32.782896,39.6036418 37.3754377,41.350065 41.6384215,41.4201973 C45.9543059,41.4904425 49.9447471,40.0848333 53.5171065,37.6725085 C54.7511834,36.8391674 55.8414724,35.9458579 56.7710952,35.0579011 L57.2061483,34.6315612 C57.4192767,34.4167948 57.5844234,34.2405199 57.6997444,34.1111159 L57.8140951,33.9788655 C58.8722365,32.7039134 60.7635824,32.5281537 62.0385345,33.5862951 C63.3134866,34.6444365 63.4892463,36.5357824 62.4311049,37.8107345 L62.2300134,38.0451828 C61.9274859,38.3881843 61.4877247,38.8499766 60.9153892,39.3966598 C59.7525044,40.5074237 58.403344,41.612835 56.8748828,42.6449665 C52.3534608,45.6981695 47.2052461,47.5115975 41.5402524,47.4193941 C35.9892107,47.3280715 30.409811,45.206372 25.0061361,41.7612002 C23.1116412,40.5533444 21.3708772,39.2623082 19.8166522,37.9688371 L19.3666664,37.5900537 C18.6534646,36.9825902 18.1255109,36.4974388 17.8034422,36.1811113 C16.6213809,35.0201217 16.604299,33.1207035 17.7652887,31.9386422 Z" id="Stroke-120"/>
                            <path d="M0.1850015,174.534088 L2.1419985,171.045512 L2.85620174,171.434727 L3.51128674,171.782909 C4.50308988,172.305335 5.6321651,172.880908 6.88714027,173.498006 L7.43266178,173.764985 C11.6537624,175.821142 16.3218862,177.878362 21.3004212,179.797989 C32.7483158,184.212076 44.0600582,187.224884 54.584272,188.202241 C59.3535856,188.645156 63.8735301,188.656119 68.1063644,188.201856 L68.9490919,188.10479 L69.4379081,192.07481 C64.6629697,192.662733 59.5745075,192.682884 54.2143935,192.185103 C43.2765951,191.169337 31.6251616,188.066055 19.8613669,183.530163 C14.7706849,181.567294 9.99959664,179.464698 5.68097489,177.361037 L4.04785364,176.55429 C3.35348222,176.206284 2.70158001,175.872883 2.09423579,175.556252 L0.962732129,174.958187 L0.1850015,174.534088 Z" id="Stroke-122"/>
                        </g>
                    </g>
                </g>
                <g id="Hairstyle" transform="translate(1142.000000, 1085.000000) scale(1 1)" fill="#000">
                    <defs>
                        <polygon id="hairstylefancy-bun-path-1" points="0 0.974 166.34437 0.974 166.34437 155.077511 0 155.077511"/>
                        <polygon id="hairstylefancy-bun-path-3" points="0.58787431 0.1508 87.7709 0.1508 87.7709 284 0.58787431 284"/>
                    </defs>
                    <g id="Hairstyle/Fancy Bun" stroke="none" stroke-width="1" fill="none" fill-rule="evenodd">
                        <g id="Group-9" transform="translate(401.000000, 115.000000)">
                            <path d="M59.2709,247.6778 C59.2709,247.6778 68.2709,212.6778 139.7709,179.1778 C198.6589,151.5878 265.7709,194.1778 272.7709,205.1778 C277.9349,213.2928 282.7709,110.1778 173.7709,86.1778 C81.3429,65.8268 6.2709,165.6778 37.2709,254.6778 C37.2709,254.6778 41.2709,244.6778 59.2709,247.6778" id="Fill-1" fill="#9b5120"/>
                            <g id="Group-5" transform="translate(0.000000, 0.027000)">
                                <mask id="hairstylefancy-bun-mask-2" fill="#fff">
                                    <use xlink:href="#hairstylefancy-bun-path-1"/>
                                </mask>
                                <g id="Clip-4"/>
                                <path d="M155.6107,25.8392 C178.1657,57.1482 164.0177,105.8922 124.0107,134.7132 C84.0057,163.5352 33.2887,161.5202 10.7337,130.2112 C-11.8213,98.9032 2.3267,50.1582 42.3327,21.3372 C82.3397,-7.4838 133.0547,-5.4688 155.6107,25.8392" id="Fill-3" fill="#9b5120" mask="url(#hairstylefancy-bun-mask-2)"/>
                            </g>
                            <g id="Group-8" transform="translate(54.000000, 172.027000)">
                                <mask id="hairstylefancy-bun-mask-4" fill="#fff">
                                    <use xlink:href="#hairstylefancy-bun-path-3"/>
                                </mask>
                                <g id="Clip-7"/>
                                <path d="M18.7709,19.1508 C18.7709,19.1508 -8.9411,84.1358 13.0829,125.6688 C35.1059,167.2018 -15.9441,246.0618 6.3649,284.0008 C6.3649,284.0008 4.9509,252.7268 25.0839,212.8698 C45.2169,173.0108 54.3189,156.4838 41.7359,125.7148 C29.1519,94.9478 66.4249,13.2038 87.7709,0.1508 L18.7709,19.1508 Z" id="Fill-6" fill="#9b5120" mask="url(#hairstylefancy-bun-mask-4)"/>
                            </g>
                        </g>
                    </g>
                </g>
                <g id="Accessories" transform="translate(1586.000000, 1445.000000) scale(1 1)">
                    <defs>
                        <polygon id="accessoriesdark-shades-and-earring-path-1" points="0.721 0.6074 75.113 0.6074 75.113 75 0.721 75"/>
                    </defs>
                    <g id="Accessories/Dark Shades and Earring" stroke="none" stroke-width="1" fill="none" fill-rule="evenodd">
                        <g id="Group-18" transform="translate(19.000000, -3.000000)">
                            <path d="M119.6934,37.1963 C119.6934,55.8063 104.6064,70.8923 85.9964,70.8923 C67.3864,70.8923 52.2994,55.8063 52.2994,37.1963 C52.2994,18.5863 67.3864,3.5003 85.9964,3.5003 C104.6064,3.5003 119.6934,18.5863 119.6934,37.1963" id="Fill-1" fill="#000"/>
                            <path d="M85.9961,7 C69.3461,7 55.8001,20.546 55.8001,37.196 C55.8001,53.847 69.3461,67.393 85.9961,67.393 C102.6461,67.393 116.1931,53.847 116.1931,37.196 C116.1931,20.546 102.6461,7 85.9961,7 M85.9961,74.393 C65.4861,74.393 48.8001,57.706 48.8001,37.196 C48.8001,16.687 65.4861,0 85.9961,0 C106.5071,0 123.1931,16.687 123.1931,37.196 C123.1931,57.706 106.5071,74.393 85.9961,74.393" id="Fill-3" fill="#000"/>
                            <path d="M213.6133,46.3037 C213.6133,64.9127 198.5273,79.9997 179.9173,79.9997 C161.3063,79.9997 146.2203,64.9127 146.2203,46.3037 C146.2203,27.6937 161.3063,12.6077 179.9173,12.6077 C198.5273,12.6077 213.6133,27.6937 213.6133,46.3037" id="Fill-5" fill="#000"/>
                            <g id="Group-9" transform="translate(142.000000, 8.500000)">
                                <mask id="accessoriesdark-shades-and-earring-mask-2" fill="#fff">
                                    <use xlink:href="#accessoriesdark-shades-and-earring-path-1"/>
                                </mask>
                                <g id="Clip-8"/>
                                <path d="M37.917,7.6074 C21.267,7.6074 7.721,21.1534 7.721,37.8034 C7.721,54.4544 21.267,68.0004 37.917,68.0004 C54.567,68.0004 68.113,54.4544 68.113,37.8034 C68.113,21.1534 54.567,7.6074 37.917,7.6074 M37.917,75.0004 C17.407,75.0004 0.721,58.3134 0.721,37.8034 C0.721,17.2944 17.407,0.6074 37.917,0.6074 C58.427,0.6074 75.113,17.2944 75.113,37.8034 C75.113,58.3134 58.427,75.0004 37.917,75.0004" id="Fill-7" fill="#000" mask="url(#accessoriesdark-shades-and-earring-mask-2)"/>
                            </g>
                            <line x1="1.3" y1="11.5" x2="51.3" y2="31.5" id="Fill-10" fill="#000"/>
                            <polygon id="Fill-12" fill="#000" points="50 34.75 0 14.75 2.6 8.25 52.6 28.25"/>
                            <line x1="119.08" y1="39.581" x2="145.3" y2="42.5" id="Fill-14" fill="#000"/>
                            <polygon id="Fill-16" fill="#000" points="144.9121 45.9785 118.6921 43.0595 119.4681 36.1025 145.6871 39.0215"/>
                        </g>
                        <g id="Group-5" transform="translate(1.000000, 55.000000)" fill="#FFF">
                            <path d="M21.5,11 C21.5,16.799 16.8,21.5 11,21.5 C5.201,21.5 0.5,16.799 0.5,11 C0.5,5.2 5.201,0.5 11,0.5 C16.8,0.5 21.5,5.2 21.5,11" id="Fill-1"/>
                        </g>
                    </g>
                </g>
                <g id="Facial Hair" transform="translate(1596.000000, 1446.000000) scale(1 1)">
                    <g id="Facial Hair/None" stroke="none" stroke-width="1" fill="none" fill-rule="evenodd" fill-opacity="0"/>
                </g>
            </g>
        </g>
        <g id="Big-Lamp" transform="translate(749.000000, 996.000000)">
            <mask id="masterscenealone-time-1-mask-14" fill="#fff">
                <use xlink:href="#masterscenealone-time-1-path-13"/>
            </mask>
            <g id="Clip-2"/>
            <path d="M423.35,268.343977 L485.02,207.313977 L405.22,126.654977 L108.26,422.703977 C108.26,422.703977 76.87,453.003977 65.96,483.363977 C55.05,513.723977 55.05,546.503977 55.05,546.503977 L54.27,2367.69398 L498.15,2367.93398 C515.63,2367.93398 529.79,2382.10398 529.79,2399.57398 L529.79,2400.24398 C529.79,2417.71398 515.63,2431.88398 498.15,2431.88398 L31.64,2431.88398 C14.17,2431.88398 1.13686838e-12,2417.71398 1.13686838e-12,2400.24398 L1.13686838e-12,2399.57398 C1.13686838e-12,2385.08398 10.96,2372.70398 24.31,2368.96398 L24.07,546.503977 C24.07,546.503977 24.93,501.793977 39.35,466.173977 C51.68,435.723977 76.44,409.953977 88.7,398.423977 C88.89,398.233977 89.08,398.063977 89.27,397.883977 L383.43,104.633977 L346.36,67.1739771 C340.42,61.1839771 340.47,51.5039771 346.47,45.5739771 L388.06,4.4139771 C394.06,-1.5160229 403.73,-1.4660229 409.67,4.5339771 L538.36,134.583977 C542.88,139.154977 543.93,145.864977 541.5,151.423977 L609.56,84.0839771 L808.19,284.803977 L621.98,469.073977 L423.35,268.343977 Z" id="Fill-1" fill="#0A4343" mask="url(#masterscenealone-time-1-mask-14)"/>
        </g>
    </g>
</svg>
