<svg viewBox="350.55 116.893 856.9 837.732" xmlns="http://www.w3.org/2000/svg" xmlns:xlink="http://www.w3.org/1999/xlink" overflow="visible">
    <defs>
        <polygon id="masterstickerspet-dog-1-path-1" points="0.738028712 0.439759466 779.924 0.439759466 779.924 696.4825 0.738028712 696.4825"/>
        <polygon id="masterstickerspet-dog-1-path-3" points="0.2817 0.0902 77.6184974 0.0902 77.6184974 118 0.2817 118"/>
    </defs>
    <g id="Master/Stickers/Pet Dog 1" stroke="none" stroke-width="1" fill="none" fill-rule="evenodd">
        <g id="Group-37" transform="translate(362.000000, 135.000000)">
            <path d="M78.9106,514.7535 C78.9106,514.7535 72.2586,564.8635 21.3696,526.6975 C-29.5194,488.5305 26.4586,456.3015 26.4586,456.3015 C26.4586,456.3015 -20.1904,418.9825 12.0396,389.2975 C44.2686,359.6125 93.4616,359.6125 93.4616,359.6125 C93.4616,359.6125 102.7916,301.9395 146.8936,340.9535 C190.9976,379.9685 153.6796,408.8055 153.6796,408.8055 C153.6796,408.8055 165.0566,413.5395 174.2106,428.9835 C183.3646,444.4275 78.9106,514.7535 78.9106,514.7535" id="Fill-1" fill="#56ACF6"/>
            <g id="Group-5" transform="translate(54.000000, 10.021000)">
                <mask id="masterstickerspet-dog-1-mask-2" fill="#fff">
                    <use xlink:href="#masterstickerspet-dog-1-path-1"/>
                </mask>
                <g id="Clip-4"/>
                <path d="M468.6226,318.2105 C468.6226,318.2105 399.0746,396.2395 302.3866,407.2655 C205.6976,418.2915 73.3876,364.0105 16.5616,514.1315 C-40.2644,664.2535 74.2356,694.7865 74.2356,694.7865 L254.0416,693.9385 L350.7296,667.6455 L406.7076,611.6685 C406.7076,611.6685 460.9886,634.5685 487.2816,693.0905 L751.9016,696.4825 C751.9016,696.4825 777.3466,662.5565 779.8916,604.0345 C782.4346,545.5135 638.2516,387.7585 643.3406,338.5655 C648.4296,289.3735 644.1876,213.0405 628.0736,164.6965 C611.9586,116.3525 587.3626,9.4865 540.7146,2.7015 C494.0666,-4.0845 472.8626,16.2715 441.4816,2.7015 C410.1006,-10.8695 400.7706,39.1715 421.1266,84.9705 C441.4816,130.7705 482.1926,281.7405 468.6226,318.2105" id="Fill-3" fill="#56ACF6" mask="url(#masterstickerspet-dog-1-mask-2)"/>
            </g>
            <path d="M519.6733,272.9296 C519.6733,272.9296 610.8293,323.9906 660.0223,312.1166 L665.1103,369.7906 C665.1103,369.7906 569.2703,374.0316 522.6223,328.2316 L519.6733,272.9296 Z" id="Fill-6" fill="#E93737"/>
            <path d="M614.2222,389.722 C614.2222,407.288 599.9822,421.527 582.4162,421.527 C564.8512,421.527 550.6112,407.288 550.6112,389.722 C550.6112,372.156 564.8512,357.917 582.4162,357.917 C599.9822,357.917 614.2222,372.156 614.2222,389.722" id="Fill-8" fill="#E93737"/>
            <path d="M620.1587,27.9886 C620.1587,27.9886 707.5177,125.5256 721.9357,183.1986 C736.3537,240.8726 766.3007,371.3106 711.4647,377.7596 C656.6297,384.2086 660.8697,389.2976 642.2107,303.6356 C623.5517,217.9726 595.5627,150.1216 606.5887,120.4366 C617.6147,90.7516 591.4647,21.8146 620.1587,27.9886" id="Fill-10" fill="#56ACF6"/>
            <path d="M505.6597,19.9313 C505.6597,30.9393 496.7357,39.8623 485.7277,39.8623 C474.7207,39.8623 465.7967,30.9393 465.7967,19.9313 C465.7967,8.9233 474.7207,0.0003 485.7277,0.0003 C496.7357,0.0003 505.6597,8.9233 505.6597,19.9313" id="Fill-12" fill="#204EB2"/>
            <path d="M408.9712,703.1112 L551.5192,706.0512 L532.8002,614.0562 L408.9712,614.9042 C408.9712,614.9042 384.3742,686.9962 408.9712,703.1112" id="Fill-14" fill="#56ACF6"/>
            <path d="M524.2368,110.158 C501.2628,110.158 484.5588,105.17 474.4468,95.259 C464.0908,85.109 464.8678,73.58 464.9068,73.094 L472.8818,73.721 L468.8938,73.408 L472.8838,73.688 C472.8628,74.033 472.4538,82.232 480.2168,89.712 C487.7948,97.012 504.7628,104.93 542.5848,101.189 L543.3718,109.15 C536.5758,109.822 530.1958,110.158 524.2368,110.158" id="Fill-16" fill="#204EB2"/>
            <path d="M305.7378,647.1503 C305.4178,570.1313 289.8218,520.1013 260.6368,502.4683 C235.2948,487.1563 207.5478,501.2613 207.2678,501.4053 L203.5578,494.3183 C204.8468,493.6423 235.4428,477.9683 264.6858,495.5673 C296.8958,514.9523 313.3998,565.9413 313.7378,647.1173 L305.7378,647.1503 Z" id="Fill-18" fill="#204EB2"/>
            <path d="M603.5776,651.5787 C587.9166,594.1517 569.9886,551.4127 557.7076,525.6707 C544.4006,497.7787 534.6726,483.2807 534.5756,483.1377 L541.2026,478.6567 C541.6066,479.2547 551.2786,493.6487 564.8226,522.0047 C577.2746,548.0767 595.4456,591.3547 611.2966,649.4737 L603.5776,651.5787 Z" id="Fill-20" fill="#204EB2"/>
            <path d="M664.731,644.9737 L662.097,637.4197 C663.608,636.8927 699.603,624.4837 743.757,621.9367 L744.218,629.9237 C701.23,632.4037 665.091,644.8487 664.731,644.9737" id="Fill-22" fill="#204EB2"/>
            <path d="M537.5952,704.6634 C511.3242,642.2704 402.3102,585.9494 401.2122,585.3874 L404.8552,578.2654 C405.1352,578.4084 433.2542,592.8624 464.3052,615.0414 C506.2822,645.0254 533.4202,674.1334 544.9682,701.5594 L537.5952,704.6634 Z" id="Fill-24" fill="#204EB2"/>
            <g id="Group-28" transform="translate(541.000000, 703.021000)">
                <mask id="masterstickerspet-dog-1-mask-4" fill="#fff">
                    <use xlink:href="#masterstickerspet-dog-1-path-3"/>
                </mask>
                <g id="Clip-27"/>
                <path d="M0.2817,0.0902 C0.2817,0.0902 16.3957,119.6782 47.7777,117.9822 C79.1587,116.2862 82.5197,68.3472 72.7817,1.1412 L0.2817,0.0902 Z" id="Fill-26" fill="#AEE2FF" mask="url(#masterstickerspet-dog-1-mask-4)"/>
            </g>
            <path d="M663.4146,641.1966 C663.4146,641.1966 686.0856,667.5106 679.5286,704.8076 L613.3736,703.9596 C613.3736,703.9596 570.1186,677.6666 607.4366,650.5266 L663.4146,641.1966 Z" id="Fill-29" fill="#AEE2FF"/>
            <path d="M308.8901,703.9593 L408.9711,703.1113 C408.9711,703.1113 430.1741,676.8183 388.6161,657.3113 C347.0561,637.8043 309.7381,645.4373 309.7381,645.4373 L308.8901,703.9593 Z" id="Fill-31" fill="#AEE2FF"/>
            <path d="M613.3052,19.7707 C613.3052,19.7707 715.9982,72.9407 719.3912,131.4627 C722.7842,189.9837 766.0392,203.5547 761.7982,285.8247 C757.5582,368.0947 729.4282,375.0967 704.9032,376.6847 C680.3772,378.2717 679.5292,240.0247 679.5292,240.0247 C679.5292,240.0247 564.0442,28.5157 613.3052,19.7707" id="Fill-33" fill="#56ACF6"/>
            <path d="M685.7915,384.8459 C680.3765,384.8459 674.4535,383.8369 668.7035,380.8829 C655.8895,374.2979 647.6115,359.9939 644.1015,338.3709 C639.5995,310.6439 631.7745,289.1899 624.8715,270.2609 C616.4665,247.2129 609.2065,227.3079 611.4305,204.6799 C615.2055,166.2639 608.7815,145.6079 608.7165,145.4039 L616.3355,142.9649 C616.6225,143.8629 623.3275,165.4169 619.3915,205.4619 C617.3465,226.2769 623.9835,244.4779 632.3875,267.5199 C639.4125,286.7819 647.3745,308.6139 651.9975,337.0889 C655.0785,356.0669 661.9305,368.4069 672.3595,373.7669 C686.5775,381.0719 703.0315,373.0739 703.1955,372.9919 L706.7505,380.1589 C706.1955,380.4339 697.1095,384.8459 685.7915,384.8459" id="Fill-35" fill="#204EB2"/>
        </g>
    </g>
</svg>
