<svg viewBox="346.763 618.59 3269.475 2721.795" xmlns="http://www.w3.org/2000/svg" xmlns:xlink="http://www.w3.org/1999/xlink" overflow="visible">
    <defs>
        <polygon id="masterspot-illustrationmidnight-chat-path-1" points="0.595791248 0.8986 1049.7514 0.8986 1049.7514 691 0.595791248 691"/>
        <polygon id="masterspot-illustrationmidnight-chat-path-3" points="0.000139166 0.824 77.7317814 0.824 77.7317814 24.5342 0.000139166 24.5342"/>
        <polygon id="masterspot-illustrationmidnight-chat-path-5" points="0.528516447 0.459695949 51.522 0.459695949 51.522 17.6481 0.528516447 17.6481"/>
        <polygon id="masterspot-illustrationmidnight-chat-path-7" points="0 280.06 382.454938 280.06 382.454938 519.503 0 519.503"/>
        <polygon id="masterspot-illustrationmidnight-chat-path-9" points="0 0.0722 432.2748 0.0722 432.2748 402 0 402"/>
    </defs>
    <g id="Master/Spot Illustration/Midnight Chat" stroke="none" stroke-width="1" fill="none" fill-rule="evenodd">
        <g id="Blobs" opacity=".5" transform="translate(1982.000000, 1300.000000) scale(-1, 1) translate(-1982.000000, -1300.000000) translate(859.000000, 0.000000) scale(1 1)">
            <g id="Blobs/4" stroke="none" stroke-width="1" fill="none" fill-rule="evenodd">
                <path d="M1545.64333,653.986522 C1656.09524,764.702828 1730.45583,911.852934 1788.63754,1074.92072 C1846.81925,1237.98851 1888.19983,1416.26652 1867.66511,1597.72807 C1847.13039,1779.54335 1764.36923,1963.8347 1633.38259,2052.26626 C1503.3978,2139.46331 1325.84227,2132.70816 1158.98101,2115.06011 L1153.92794,2114.52207 C985.605442,2096.48204 829.105966,2067.83021 685.985174,1983.9971 C543.175514,1900.16399 413.744536,1760.44213 381.386792,1597.37434 C349.660646,1435.58705 413.075975,1250.22503 485.593783,1089.33912 L487.79399,1084.47133 C560.910047,922.464721 642.426672,785.572675 752.878588,674.856368 C863.330504,564.140062 1002.71771,479.599497 1145.8385,474.293603 C1288.64816,468.98771 1434.88028,543.270216 1545.64333,653.986522 Z M1139.80518,947.749091 L1130.49088,948.756073 C1059.96597,956.606272 994.279141,969.329655 934.044219,1004.41236 C871.96962,1040.64531 815.710288,1101.03357 801.645455,1171.51202 C788.028886,1240.55613 814.731741,1319.53421 845.751422,1388.45358 L847.897117,1393.19045 C879.67823,1463.21025 915.11079,1522.37546 963.120556,1570.22742 C1011.13032,1618.07938 1071.71729,1654.6181 1133.92713,1656.91133 C1196.00173,1659.20455 1259.56396,1627.0994 1307.70896,1579.24744 C1354.94438,1532.16728 1386.99407,1469.84418 1412.10123,1400.72309 L1413.33045,1397.31825 C1438.6201,1326.8398 1456.60686,1249.78744 1447.6811,1171.35914 C1438.75534,1092.77796 1402.78182,1013.12661 1345.8463,974.906196 C1289.3892,937.247988 1212.28611,940.134516 1139.80518,947.749091 L1139.80518,947.749091 Z" id="Shape" fill="#FFF5F3" transform="translate(1123.000000, 1300.000000) rotate(62.000000) translate(-1123.000000, -1300.000000)"/>
            </g>
        </g>
        <ellipse id="Floor" fill="#D5ECFF" opacity=".5" transform="translate(1975.000000, 3206.000000) scale(-1, 1) translate(-1975.000000, -3206.000000)" cx="1975" cy="3206" rx="1602" ry="58"/>
        <g id="Bed" transform="translate(479.000000, 1732.000000)">
            <path d="M2926.23109,1457 L78.7689084,1457 C35.2660328,1457 0,1407.54919 0,1346.54972 L0,1165.45028 C0,1104.45081 35.2660328,1055 78.7689084,1055 L2926.23109,1055 C2969.73397,1055 3005,1104.45081 3005,1165.45028 L3005,1346.54972 C3005,1407.54919 2969.73397,1457 2926.23109,1457" id="Fill-6" fill="#3267C8"/>
            <polygon id="Fill-8" fill="#FCEBEC" points="134 717.845984 472.734547 494 2369.29878 495.098923 2850 707.149001 555.147659 881"/>
            <path d="M2813.6352,1065 L191.364799,1065 C134.278161,1065 88,1000.10359 88,920.050328 L88,842.949672 C88,762.896409 134.278161,698 191.364799,698 L2813.6352,698 C2870.72184,698 2917,762.896409 2917,842.949672 L2917,920.050328 C2917,1000.10359 2870.72184,1065 2813.6352,1065" id="Fill-10" fill="#FCEBEC"/>
            <path d="M2235.50631,534 L1512.49369,534 C1473.56076,534 1442,489.714465 1442,435.085644 L1442,98.9133569 C1442,44.2855351 1473.56076,0 1512.49369,0 L2235.50631,0 C2274.43853,0 2306,44.2855351 2306,98.9133569 L2306,435.085644 C2306,489.714465 2274.43853,534 2235.50631,534" id="Fill-12" fill="#DDB0C8"/>
            <path d="M1316.00954,534 L604.990459,534 C566.336021,534 535,490.06727 535,435.873209 L535,98.1257919 C535,43.9317306 566.336021,0 604.990459,0 L1316.00954,0 C1354.66469,0 1386,43.9317306 1386,98.1257919 L1386,435.873209 C1386,490.06727 1354.66469,534 1316.00954,534" id="Fill-14" fill="#DDB0C8"/>
            <path d="M1731.49074,600 L1100.50997,600 C1066.53883,600 1039,561.431145 1039,513.854665 L1039,221.145335 C1039,173.567856 1066.53883,135 1100.50997,135 L1731.49074,135 C1765.46117,135 1793,173.567856 1793,221.145335 L1793,513.854665 C1793,561.431145 1765.46117,600 1731.49074,600" id="Fill-16" fill="#EECCDC"/>
            <path d="M1992.23296,640 L1563.76633,640 C1539.04251,640 1519,611.892007 1519,577.220081 L1519,343.778918 C1519,309.106993 1539.04251,281 1563.76633,281 L1992.23296,281 C2016.95678,281 2037,309.106993 2037,343.778918 L2037,577.220081 C2037,611.892007 2016.95678,640 1992.23296,640" id="Fill-18" fill="#FFF"/>
            <path d="M1302.23302,646 L873.766982,646 C849.04248,646 829,617.892007 829,583.220081 L829,349.778918 C829,315.106993 849.04248,287 873.766982,287 L1302.23302,287 C1326.95681,287 1347,315.106993 1347,349.778918 L1347,583.220081 C1347,617.892007 1326.95681,646 1302.23302,646" id="Fill-20" fill="#FFF"/>
        </g>
        <g transform="translate(1006.000000, -138.000000) scale(1 1)" id="Master/Character/Sitting On Floor">
            <defs>
                <polygon id="mastercharactersitting-on-floor-path-1" points="0 0.216 1141.521 0.216 1141.521 422.785934 0 422.785934"/>
            </defs>
            <g id="Master/Character/Sitting On Floor" stroke="none" stroke-width="1" fill="none" fill-rule="evenodd">
                <g id="Upper Body" transform="translate(911.000000, 1329.000000) scale(1 1)">
                    <defs>
                        <polygon id="upper-bodyshrugg-path-1" points="0.595791248 0.8986 1049.7514 0.8986 1049.7514 691 0.595791248 691"/>
                    </defs>
                    <g id="Upper Body/Shrugg" stroke="none" stroke-width="1" fill="none" fill-rule="evenodd">
                        <path d="M724.954254,220 C724.954254,220 721.26343,301.153386 673.924004,329.799638 C630.972611,355.790794 721.968632,506.610475 819.857852,497.613536 C873.442212,492.688212 886,346.158072 886,346.158072 C886,346.158072 842.733964,337.796917 858.715877,271.819367 L724.954254,220 Z" id="Neck" fill="#7d4439"/>
                        <path d="M803.337113,302.515641 C739.876612,294.840687 694.077698,253.11575 687.664652,183.898064 C669.216286,186.83496 664.86504,138.764927 670.003065,123.322958 C675.146083,107.858975 691.933027,116.900812 691.933027,116.900812 C692.862251,114.457234 693.652358,111.898916 694.303348,109.225857 C722.02532,-4.48555283 799.669805,0.0243586862 799.669805,0.0243586862 C942.344355,7.45715716 908.914243,153.120195 900.762895,191.763142 C892.610548,230.410091 864.683894,309.927426 803.337113,302.515641 Z" id="Head" fill="#7d4439"/>
                        <g id="Group-63" transform="translate(47.000000, 138.000000)">
                            <path d="M1258.7513,201.8336 C1258.7513,201.8336 1250.7973,178.9426 1305.7513,144.8336 C1334.7513,126.8336 1364.2653,77.3426 1375.7223,89.3456 C1387.1793,101.3486 1346.0833,158.2976 1346.0833,158.2976 C1346.0833,158.2976 1380.8733,138.0336 1404.2853,112.5606 C1427.6983,87.0866 1448.7463,66.8046 1448.7463,66.8046 C1448.7463,66.8046 1464.3043,60.8976 1462.3133,74.9476 C1460.3223,88.9966 1455.5143,92.5856 1455.5143,92.5856 C1455.5143,92.5856 1466.5593,92.3346 1464.5283,102.9866 C1462.4973,113.6396 1460.0933,115.4346 1460.0933,115.4346 C1460.0933,115.4346 1468.1863,116.2446 1466.4093,125.5646 C1464.6323,134.8866 1458.2223,139.6726 1458.2223,139.6726 C1458.2223,139.6726 1463.9113,142.2776 1456.4853,152.3896 C1449.0593,162.5016 1408.1773,214.7226 1384.0983,229.2736 C1360.0193,243.8246 1300.7513,264.8336 1300.7513,264.8336 C1300.7513,264.8336 1250.7513,216.8336 1258.7513,201.8336" id="Fill-1" fill="#7d4439"/>
                            <path d="M1389.3605,189.2046 L1388.1415,186.4636 C1388.3185,186.3846 1406.1625,178.2786 1427.6675,155.7966 C1442.5535,140.2336 1450.1855,136.9166 1453.9655,136.8746 C1455.7585,136.8796 1456.5965,137.5566 1456.8115,137.7726 L1454.6905,139.8936 C1454.7715,139.9756 1454.8185,140.0036 1454.8195,140.0036 C1454.7705,139.9756 1449.5555,137.2546 1429.8355,157.8706 C1407.8835,180.8196 1390.1065,188.8726 1389.3605,189.2046" id="Fill-3" fill="#000"/>
                            <path d="M1384.0231,174.6197 L1382.4801,172.0477 C1382.5301,172.0167 1387.6531,168.9477 1401.5071,161.0307 C1410.9531,155.6337 1424.4281,141.5497 1434.2671,131.2657 C1438.8021,126.5247 1442.7191,122.4317 1445.2631,120.2047 C1453.7001,112.8227 1460.2241,113.8067 1460.4981,113.8537 L1460.0191,116.8147 C1459.9641,116.8117 1454.5151,116.0957 1447.2391,122.4627 C1444.7951,124.6007 1440.9211,128.6497 1436.4351,133.3387 C1426.4691,143.7557 1412.8191,158.0217 1402.9951,163.6367 C1389.1781,171.5317 1384.0731,174.5897 1384.0231,174.6197" id="Fill-5" fill="#000"/>
                            <path d="M1380.0028,162.6314 L1378.4998,160.0354 C1378.6888,159.9264 1397.5448,148.9634 1411.2748,137.1944 C1424.0718,126.2264 1436.0868,110.1104 1442.5428,101.4534 L1444.0518,99.4334 C1450.3208,91.0744 1454.7648,90.8334 1455.2518,90.8334 L1455.2998,93.8324 C1455.2658,93.8344 1451.7678,94.1454 1446.4508,101.2344 L1444.9478,103.2464 C1438.4228,111.9974 1426.2768,128.2864 1413.2278,139.4724 C1399.2838,151.4244 1380.1938,162.5214 1380.0028,162.6314" id="Fill-7" fill="#000"/>
                            <path d="M1314.0565,174.5992 L1312.4455,172.0682 C1312.9065,171.7752 1323.8255,164.8752 1332.0655,163.8452 C1339.4365,162.9232 1345.1355,157.3282 1345.1915,157.2722 L1347.3115,159.3942 C1347.0525,159.6542 1340.8515,165.7702 1332.4375,166.8222 C1324.8695,167.7682 1314.1635,174.5312 1314.0565,174.5992" id="Fill-9" fill="#000"/>
                            <path d="M1300.7513,264.8336 C1300.7513,264.8336 1289.7513,272.8336 1270.7513,311.8336 C1251.7513,350.8336 1182.7513,517.8336 1182.7513,517.8336 L1133.5593,344.2236 C1133.5593,344.2236 1230.1623,209.8666 1272.4563,172.3506 C1314.7513,134.8336 1300.7513,264.8336 1300.7513,264.8336" id="Fill-11" fill="#7d4439"/>
                            <g id="Group-15" transform="translate(0.000000, 0.156000)" fill="#7d4439">
                                <path d="M187.4494,174.9949 C187.4494,174.9949 199.9574,154.2389 153.2264,109.5209 C128.5664,85.9239 109.9034,31.4059 96.2154,40.7859 C82.5274,50.1659 110.9834,114.3709 110.9834,114.3709 C110.9834,114.3709 81.1254,87.3629 63.4754,57.6049 C45.8254,27.8489 29.4164,3.6579 29.4164,3.6579 C29.4164,3.6579 15.4124,-5.3311 14.4604,8.8259 C13.5084,22.9829 17.4724,27.4869 17.4724,27.4869 C17.4724,27.4869 6.7174,24.9619 6.5054,35.8049 C6.2944,46.6459 8.2754,48.8989 8.2754,48.8989 C8.2754,48.8989 0.1904,48.0209 0.0044,57.5089 C-0.1806,66.9949 5.1044,73.0019 5.1044,73.0019 C5.1044,73.0019 -0.9996,74.3759 4.1784,85.8039 C9.3574,97.2299 38.5804,156.7649 59.1374,175.9729 C79.6954,195.1809 133.3504,227.9699 133.3504,227.9699 C133.3504,227.9699 192.1814,191.3239 187.4494,174.9949" id="Fill-13"/>
                            </g>
                            <path d="M62.2594,135.8365 C61.5974,135.3575 45.8654,123.8095 29.1234,96.8225 C14.0844,72.5805 8.4224,74.1575 8.3654,74.1845 C8.3664,74.1835 8.4184,74.1655 8.5134,74.1035 L6.8764,71.5895 C7.1314,71.4245 8.1014,70.9105 9.8464,71.2985 C13.5374,72.1195 20.3194,76.9405 31.6734,95.2405 C48.1054,121.7295 63.8604,133.2915 64.0174,133.4045 L62.2594,135.8365 Z" id="Fill-16" fill="#000"/>
                            <path d="M70.4924,122.6675 C70.4494,122.6275 66.0854,118.5815 54.1954,108.0045 C45.7424,100.4835 35.3314,83.7075 27.7304,71.4585 C24.3084,65.9435 21.3534,61.1825 19.4034,58.5845 C13.6084,50.8675 8.1324,50.4245 8.0784,50.4225 L8.2064,47.4245 C8.4834,47.4375 15.0704,47.8175 21.8024,56.7835 C23.8324,59.4865 26.8204,64.3015 30.2794,69.8765 C37.7844,81.9695 48.0614,98.5315 56.1894,105.7625 C68.1104,116.3675 72.4904,120.4295 72.5334,120.4685 L70.4924,122.6675 Z" id="Fill-18" fill="#000"/>
                            <path d="M76.9001,111.7671 C76.7361,111.6201 60.3481,96.8211 49.1711,82.2481 C38.7111,68.6101 30.1891,50.1631 25.6101,40.2531 L24.5561,37.9751 C20.8161,29.9421 17.4581,28.9161 17.4251,28.9081 L18.0911,25.9831 C18.5671,26.0831 22.8661,27.2371 27.2751,36.7091 L28.3341,38.9951 C32.8631,48.7991 41.2941,67.0481 51.5521,80.4221 C62.5621,94.7791 78.7441,109.3911 78.9071,109.5371 L76.9001,111.7671 Z" id="Fill-20" fill="#000"/>
                            <path d="M138.9565,137.0884 C138.8655,136.9994 129.7865,128.1714 122.5765,125.6844 C114.5605,122.9194 109.7565,115.6544 109.5555,115.3474 L112.0675,113.7074 C112.1115,113.7744 116.5335,120.4264 123.5545,122.8484 C131.4045,125.5574 140.6645,134.5624 141.0545,134.9434 L138.9565,137.0884 Z" id="Fill-22" fill="#000"/>
                            <path d="M133.3503,228.1255 C133.3503,228.1255 142.4623,238.2245 153.0033,280.3065 C163.5443,322.3875 196.5893,500.0335 196.5893,500.0335 L280.5563,340.3155 C280.5563,340.3155 213.7653,188.9125 180.1243,143.4745 C146.4843,98.0355 133.3503,228.1255 133.3503,228.1255" id="Fill-24" fill="#7d4439"/>
                            <g id="Group-28" transform="translate(158.000000, 183.156000)">
                                <mask id="upper-bodyshrugg-mask-2" fill="#fff">
                                    <use xlink:href="#upper-bodyshrugg-path-1"/>
                                </mask>
                                <g id="Clip-27"/>
                                <path d="M469.7514,5.6776 C469.7514,5.6776 343.2524,34.9386 290.0014,125.3086 C236.7514,215.6776 197.7514,228.6776 197.7514,228.6776 C197.7514,228.6776 156.7514,123.6776 134.7514,127.6776 C112.7514,131.6776 -4.2486,314.6776 0.7514,331.6776 C5.7514,348.6776 101.4204,585.1956 204.5864,541.4366 C307.7514,497.6776 334.7514,421.6776 340.7514,438.6776 C346.7514,455.6776 317.7514,669.6776 342.7514,675.6776 C367.7514,681.6776 509.9654,693.0586 639.7514,690.6776 C748.7514,688.6776 814.7514,693.6776 819.7514,647.6776 C824.7514,601.6776 807.7514,441.6776 807.7514,441.6776 C807.7514,441.6776 862.7514,509.6776 910.7514,487.6776 C958.7514,465.6776 1049.7514,392.6776 1049.7514,392.6776 L979.7514,147.6776 L911.7514,212.6776 C911.7514,212.6776 835.7514,85.6776 790.7514,61.6776 C745.7514,37.6776 658.2414,0.8986 658.2414,0.8986 C658.2414,0.8986 607.7514,44.6776 585.7514,75.6776 C563.7514,106.6776 557.7514,122.6776 557.7514,122.6776 C557.7514,122.6776 508.7514,28.6776 469.7514,5.6776" id="Fill-26" fill="#F9C818" mask="url(#upper-bodyshrugg-mask-2)"/>
                            </g>
                            <g id="Pattern-1" transform="translate(196.166900, 247.704000)" fill="#FFE89D">
                                <path d="M338.5845,227.1296 L401.5845,307.1296 C401.5845,307.1296 410.5845,272.1296 392.5845,244.1296 C374.5845,216.1296 338.5845,227.1296 338.5845,227.1296" id="Fill-29"/>
                                <path d="M647.5845,2.1296 L710.5845,82.1296 C710.5845,82.1296 719.5845,47.1296 701.5845,19.1296 C683.5845,-8.8704 647.5845,2.1296 647.5845,2.1296" id="Fill-31"/>
                                <path d="M362.5845,508.1296 L425.5845,588.1296 C425.5845,588.1296 434.5845,553.1296 416.5845,525.1296 C398.5845,497.1296 362.5845,508.1296 362.5845,508.1296" id="Fill-33"/>
                                <path d="M641.5845,352.1296 L704.5845,432.1296 C704.5845,432.1296 713.5845,397.1296 695.5845,369.1296 C677.5845,341.1296 641.5845,352.1296 641.5845,352.1296" id="Fill-35"/>
                                <path d="M527.4991,519.9284 L595.4061,444.0494 C595.4061,444.0494 559.3771,441.2344 534.9101,463.8024 C510.4421,486.3704 527.4991,519.9284 527.4991,519.9284" id="Fill-37"/>
                                <path d="M490.4991,316.9284 L558.4061,241.0494 C558.4061,241.0494 522.3771,238.2344 497.9101,260.8024 C473.4421,283.3704 490.4991,316.9284 490.4991,316.9284" id="Fill-39"/>
                                <path d="M634.7566,177.3747 L610.5986,276.2957 C610.5986,276.2957 643.7056,261.8077 654.6576,230.3737 C665.6096,198.9407 634.7566,177.3747 634.7566,177.3747" id="Fill-41"/>
                                <path d="M776.7566,107.3747 L752.5986,206.2957 C752.5986,206.2957 785.7056,191.8077 796.6576,160.3737 C807.6096,128.9407 776.7566,107.3747 776.7566,107.3747" id="Fill-43"/>
                                <path d="M343.783,422.7839 L443.532,402.3099 C443.532,402.3099 416.275,378.5819 383.178,382.1269 C350.081,385.6719 343.783,422.7839 343.783,422.7839" id="Fill-45"/>
                                <path d="M266.3506,295.2009 L166.3786,275.8459 C166.3786,275.8459 182.4476,308.2149 214.3736,317.6379 C246.2986,327.0589 266.3506,295.2009 266.3506,295.2009" id="Fill-47"/>
                                <path d="M51.617,195.5153 L2.47268872e-12,283.2913 C2.47268872e-12,283.2913 35.877,278.9503 55.415,252.0003 C74.954,225.0513 51.617,195.5153 51.617,195.5153" id="Fill-49"/>
                                <path d="M72.7361,389.7887 L158.2441,445.0837 C158.2441,445.0837 155.4271,409.0547 129.3311,388.3907 C103.2361,367.7267 72.7361,389.7887 72.7361,389.7887" id="Fill-51"/>
                                <path d="M345.5608,96.2516 L419.1928,25.9136 C419.1928,25.9136 383.4938,20.2906 357.3368,40.8776 C331.1798,61.4636 345.5608,96.2516 345.5608,96.2516" id="Fill-53"/>
                                <path d="M206.1804,179.2634 L301.5804,143.6574 C301.5804,143.6574 270.9914,124.4134 238.8364,133.0194 C206.6814,141.6234 206.1804,179.2634 206.1804,179.2634" id="Fill-55"/>
                                <path d="M518.1805,143.2634 L613.5805,107.6574 C613.5805,107.6574 582.9915,88.4134 550.8365,97.0194 C518.6815,105.6234 518.1805,143.2634 518.1805,143.2634" id="Fill-57"/>
                                <path d="M785.1805,321.2634 L880.5805,285.6574 C880.5805,285.6574 849.9915,266.4134 817.8365,275.0194 C785.6815,283.6234 785.1805,321.2634 785.1805,321.2634" id="Fill-59"/>
                                <path d="M624.1805,591.2634 L719.5805,555.6574 C719.5805,555.6574 688.9915,536.4134 656.8365,545.0194 C624.6815,553.6234 624.1805,591.2634 624.1805,591.2634" id="Fill-61"/>
                            </g>
                        </g>
                    </g>
                </g>
                <g id="Lower Body/Sitting on Floor" transform="translate(1165.000000, 2270.000000) scale(-1, 1) translate(-1165.000000, -2270.000000) translate(0.000000, 1832.000000) scale(1 1)">
                    <g id="Lower Body/Sitting on Floor/Legs Crossed 3" stroke="none" stroke-width="1" fill="none" fill-rule="evenodd">
                        <g id="Group-46" transform="translate(69.000000, 357.000000)">
                            <path d="M583.8821,306.5582 C583.8821,306.5582 541.1281,325.1022 535.9771,317.8902 C530.8261,310.6792 575.1251,355.4942 575.1251,355.4942 L607.0621,337.4642 L583.8821,306.5582 Z" id="Fill-1" fill="#7d4439"/>
                            <path d="M583.8821,306.5582 C583.8821,306.5582 541.1281,325.1022 535.9771,317.8902 C530.8261,310.6792 575.1251,355.4942 575.1251,355.4942 L607.0621,337.4642 L583.8821,306.5582 Z" id="Stroke-3" stroke="#000" stroke-width="3"/>
                            <path d="M241.3362,329.2232 C241.3362,329.2232 178.4932,365.7952 228.4582,422.9722 C278.4232,480.1492 455.1052,441.0012 455.1052,441.0012 L459.7412,418.3362 C459.7412,418.3362 282.0292,332.3142 241.3362,329.2232" id="Fill-5" fill="#F0ECEC"/>
                            <path d="M241.3362,329.2232 C241.3362,329.2232 216.6112,334.3732 208.8842,362.7042 C201.1582,391.0362 218.1892,424.0292 243.1552,435.0902 C243.1552,435.0902 211.2912,364.3752 267.2642,335.2092 L241.3362,329.2232 Z" id="Fill-7" fill="#E0D3CC"/>
                            <path d="M261.5242,443.1266 C261.5242,443.1266 284.0902,397.2176 294.3922,398.2476 C304.6942,399.2776 416.2152,405.0666 427.4192,402.9446 L464.3772,417.8206 L457.8422,441.4046 C457.8422,441.4046 320.3452,473.5836 261.5242,443.1266" id="Fill-9" fill="#E7DADA"/>
                            <path d="M291.8167,356.524 C291.8167,356.524 283.5747,416.276 295.4217,416.276 C307.2697,416.276 310.3607,349.312 312.4207,372.492 C314.4817,395.671 316.0267,425.033 323.7537,416.276 C331.4797,407.519 315.5117,342.616 322.2077,360.644 C328.9037,378.673 333.0247,412.67 343.8427,412.155 C354.6597,411.64 339.7217,377.128 345.3877,376.097 C351.0537,375.067 362.3857,420.912 372.1727,415.246 C381.9607,409.58 363.9317,371.977 374.2337,385.884 C384.5357,399.793 387.6267,416.276 396.8987,414.215 C406.1707,412.155 395.8677,394.127 390.2017,385.37 C384.5357,376.613 297.4827,343.13 294.9067,347.252 C292.3317,351.373 291.8167,356.524 291.8167,356.524" id="Fill-11" fill="#F9F9F9"/>
                            <g id="Group-15" transform="translate(0.000000, 0.784000)" fill="#E93737">
                                <path d="M424.7141,414.4617 C424.7141,414.4617 216.6111,354.1937 119.7711,277.4427 C22.9311,200.6917 -33.2159,126.0017 21.3851,42.0397 C75.9861,-41.9233 204.2481,21.9497 266.0611,49.2507 C327.8741,76.5517 530.5701,115.1607 627.2801,114.9157 C723.9911,114.6697 853.7981,107.4577 921.2771,87.3687 C988.7561,67.2797 1096.4131,36.8887 1129.3811,118.7907 C1162.3471,200.6917 1123.7141,281.0497 1067.0521,308.3497 C1010.3901,335.6497 835.7691,394.3727 746.1411,388.7067 L656.5121,383.0397 C656.5121,383.0397 617.8791,340.2867 628.1811,277.9587 L574.0951,317.1067 C574.0951,317.1067 543.1891,316.5917 531.8561,312.4707 C520.5241,308.3497 457.6811,459.2757 424.7141,414.4617" id="Fill-13"/>
                            </g>
                            <path d="M479.8304,422.4576 C479.8304,422.4576 570.4894,455.9386 592.1234,469.8476 C613.7584,483.7556 658.5724,495.6026 680.2074,480.6646 C701.8414,465.7266 688.9644,391.5516 688.9644,391.5516 C688.9644,391.5516 616.3334,375.0666 608.0924,363.7346 C599.8504,352.4026 533.9164,314.8006 533.9164,314.8006 L479.8304,422.4576 Z" id="Fill-16" fill="#7d4439"/>
                            <path d="M681.1965,397.4195 C681.1965,397.4195 685.8735,385.3695 700.2965,387.9445 C714.7195,390.5215 849.1625,375.5825 887.7955,364.7655 C926.4275,353.9475 1008.3305,430.6985 972.7875,484.7845 C937.2455,538.8715 888.8255,513.1155 845.0415,509.5105 C801.2575,505.9045 716.2645,518.2675 697.2055,512.0855 C678.1465,505.9045 659.0875,494.5715 658.5725,481.1795 C658.0575,467.7865 681.1965,397.4195 681.1965,397.4195" id="Fill-18" fill="#F0ECEC"/>
                            <path d="M877.7664,371.8189 C877.7664,371.8189 934.6694,399.7929 944.9724,438.4249 C955.2744,477.0579 950.4914,507.9839 950.4914,507.9839 C950.4914,507.9839 1004.4904,482.5399 973.7014,422.1069 C942.9114,361.6739 894.5234,356.7079 877.7664,365.6299 C861.0094,374.5519 877.7664,371.8189 877.7664,371.8189" id="Fill-20" fill="#E0D3CC"/>
                            <path d="M871.4646,370.5123 C871.4646,370.5123 848.1316,407.5193 845.0416,434.3043 C845.0416,434.3043 847.1016,439.4553 821.3466,438.9413 C795.5906,438.4253 675.5176,412.0763 675.5176,412.0763 C675.5176,412.0763 649.6886,473.9503 659.0246,489.9273 C668.3596,505.9053 845.0416,475.5133 845.0416,475.5133 C845.0416,475.5133 852.2526,471.3923 856.8886,474.9983 C861.5246,478.6043 885.4606,511.6303 918.3066,518.2963 C918.3066,518.2963 867.1906,490.9663 863.0696,454.9083 C858.9486,418.8513 871.4646,370.5123 871.4646,370.5123" id="Fill-22" fill="#EEDFD9"/>
                            <path d="M701.8416,408.0348 C701.8416,408.0348 703.3866,443.0608 696.6906,462.6358 C689.9936,482.2098 684.4326,499.2828 695.9696,497.1848 C707.5076,495.0878 719.8706,417.3058 713.1746,410.6098 C706.4776,403.9138 702.3566,401.8528 701.8416,408.0348" id="Fill-24" fill="#FFF"/>
                            <path d="M720.9006,412.1549 C720.9006,412.1549 722.4456,447.1819 715.7496,466.7569 C709.0526,486.3309 703.4916,503.4029 715.0286,501.3049 C726.5666,499.2089 738.9296,421.4269 732.2326,414.7309 C725.5366,408.0349 721.4156,405.9739 720.9006,412.1549" id="Fill-26" fill="#FFF"/>
                            <path d="M788.3796,413.3853 C788.3796,413.3853 789.9246,445.4233 783.2286,463.3263 C776.5316,481.2303 770.9706,496.8463 782.5076,494.9273 C794.0456,493.0083 806.4086,421.8653 799.7116,415.7403 C793.0156,409.6153 788.8946,407.7313 788.3796,413.3853" id="Fill-28" fill="#FFF"/>
                            <path d="M814.135,417.2809 C814.135,417.2809 815.68,447.1849 808.984,463.8959 C802.287,480.6079 796.726,495.1829 808.263,493.3929 C819.801,491.6019 832.164,425.1969 825.467,419.4799 C818.771,413.7619 814.65,412.0039 814.135,417.2809" id="Fill-30" fill="#FFF"/>
                            <path d="M832.6423,415.1246 C832.6423,415.1246 838.4183,444.5056 834.1633,461.9986 C829.9083,479.4916 826.4733,494.7096 837.6393,491.2986 C848.8053,487.8876 851.6123,420.3986 844.1723,415.6906 C836.7313,410.9826 832.4023,409.8266 832.6423,415.1246" id="Fill-32" fill="#FFF"/>
                            <path d="M744.8552,414.4049 C744.8552,414.4049 742.8102,449.4069 734.1472,468.1939 C725.4832,486.9799 718.2052,503.3939 729.8972,502.4879 C741.5882,501.5819 761.8412,425.4719 755.8652,418.1269 C749.8882,410.7799 746.0002,408.3089 744.8552,414.4049" id="Fill-34" fill="#FFF"/>
                            <path d="M754.9553,413.7564 C754.9553,413.7564 761.9163,448.1194 758.3383,468.4954 C754.7593,488.8714 751.9143,506.6014 762.9873,502.7384 C774.0593,498.8764 774.2043,420.1184 766.5503,414.5424 C758.8953,408.9664 754.5053,407.5694 754.9553,413.7564" id="Fill-36" fill="#FFF"/>
                            <path d="M677.7112,409.7262 C677.7112,409.7262 710.0832,416.7912 703.3872,455.9392 C696.6902,495.0872 656.0132,484.0552 656.0132,484.0552 C656.0132,484.0552 646.3702,419.6602 677.7112,409.7262" id="Fill-38" fill="#FFF"/>
                            <polygon id="Stroke-40" fill="#000" fill-rule="nonzero" points="222.064539 67.357022 506.395 291.638 567.949 317.564 633.126623 276.966138 856.941623 135.370138 859.080177 138.750462 635.253319 280.353906 568.306142 322.054535 504.343936 295.114337 219.587261 70.497578"/>
                            <path d="M640.0286,255.5631 C640.0286,255.5631 593.6696,268.4401 580.7916,290.5901 C567.9136,312.7401 572.0346,350.8571 610.1526,366.8261 C648.2706,382.7941 663.7236,396.1871 653.9366,370.9471 C644.1496,345.7071 626.1206,299.3461 640.0286,255.5631" id="Fill-42" fill="#F0ECEC"/>
                            <path d="M505.0706,284.9234 C505.0706,284.9234 500.4346,336.4344 472.1036,376.6124 C443.7736,416.7914 418.5326,420.9114 427.8046,430.6984 C437.0766,440.4854 451.4996,445.1214 460.7716,457.4854 C470.0436,469.8474 469.5286,469.3314 491.1626,443.5764 C512.7976,417.8204 560.1876,360.6444 561.2176,309.6494 C561.2176,309.6494 509.1916,267.9254 505.0706,284.9234" id="Fill-44" fill="#F0ECEC"/>
                        </g>
                    </g>
                </g>
                <g id="Expression" transform="translate(1633.000000, 1412.000000) scale(1 1)" fill="#000">
                    <defs>
                        <polygon id="expressionmake-up-wink-path-1" points="0.000139166 0.824 77.7317814 0.824 77.7317814 24.5342 0.000139166 24.5342"/>
                        <polygon id="expressionmake-up-wink-path-3" points="0.528516447 0.459695949 51.522 0.459695949 51.522 17.6481 0.528516447 17.6481"/>
                    </defs>
                    <g id="Expression/Make Up Wink" stroke="none" stroke-width="1" fill="none" fill-rule="evenodd">
                        <g id="Group-19" transform="translate(21.000000, 25.000000)">
                            <path d="M128.2225,55.8772 C128.2225,59.1902 125.5365,61.8772 122.2225,61.8772 C118.9085,61.8772 116.2225,59.1902 116.2225,55.8772 C116.2225,52.5642 118.9085,49.8772 122.2225,49.8772 C125.5365,49.8772 128.2225,52.5642 128.2225,55.8772" id="Fill-3" fill="#000"/>
                            <path d="M38.7602967,127.4406 C38.7602967,127.4406 38.5224,143.3896 60.8994,146.2466 C83.2764,149.1026 93.2754,146.2466 92.7994,136.0096 C92.7994,136.0096 89.2284,124.8216 83.9904,124.3456 C78.7534,123.8696 73.2784,126.7256 73.2784,126.7256 C73.2784,126.7256 68.0414,119.8226 62.5664,120.5366 C57.0904,121.2516 46.1404,127.6776 38.7602967,127.4406" id="Fill-12" fill="#CE4129"/>
                            <g id="Group-7" transform="translate(0.000000, 0.176000)">
                                <mask id="expressionmake-up-wink-mask-2" fill="#fff">
                                    <use xlink:href="#expressionmake-up-wink-path-1"/>
                                </mask>
                                <g id="Clip-6"/>
                            </g>
                            <path d="M78.12,136.0759 C61.805,133.9009 42.292,131.0109 36.169,127.9499 C31.701,125.7149 30.056,126.2769 30.04,126.2839 C30.041,126.2839 31.473,121.1309 37.957,124.3709 C44.269,127.5279 70.145,130.9779 78.649,132.1119 C93.524,134.0939 94.866,133.3269 96.565,132.3579 L98.549,135.8299 C96.903,136.7719 95.349,137.3469 91.831,137.3469 C88.952,137.3469 84.758,136.9609 78.12,136.0759 Z" id="Fill-10" fill="#000"/>
                            <g id="Group-16" transform="translate(109.000000, 18.176000)">
                                <mask id="expressionmake-up-wink-mask-4" fill="#fff">
                                    <use xlink:href="#expressionmake-up-wink-path-3"/>
                                </mask>
                                <g id="Clip-15"/>
                                <path d="M0.5721,10.3701 C0.5721,10.3701 1.2001,4.0961 8.8551,1.3351 C16.5101,-1.4259 43.2401,3.0921 45.2481,4.5981 C47.2551,6.1031 50.8951,9.7431 51.5221,17.6481 C51.5221,17.6481 48.6271,11.6261 43.3571,10.6221 C38.0861,9.6181 21.6551,14.1351 11.2391,14.0101 C0.8231,13.8841 0.3211,12.6291 0.5721,10.3701" id="Fill-14" fill="#000" mask="url(#expressionmake-up-wink-mask-4)"/>
                            </g>
                            <path d="M65.4615,198.176 C51.6075,198.176 37.2855,194.136 27.0135,190.404 C13.8545,185.623 4.3075,180.297 4.2125,180.244 L5.6805,177.627 C6.0515,177.836 43.1465,198.389 72.7935,194.746 L73.1605,197.723 C70.6315,198.034 68.0535,198.176 65.4615,198.176" id="Fill-17" fill="#000"/>
                        </g>
                        <g id="Group-124" transform="translate(25.000000, 52.000000)" fill="#000" fill-rule="nonzero">
                            <path d="M98.9388073,0.515726772 L102.747593,1.73767323 L102.375135,2.93095324 C102.075892,3.9043293 101.742122,5.01790967 101.382468,6.25291663 C100.354215,9.78380887 99.3257634,13.5761133 98.3662837,17.478955 C97.2996742,21.8175645 96.3854385,26.0250163 95.6702376,29.9976992 L95.4631649,31.1740325 C93.7257688,41.2776329 93.4803733,48.9926374 95.0328764,53.1417647 L95.1244408,53.3771728 C104.002358,75.340079 91.9464166,86.4779502 66.6424816,78.6786942 L65.8716485,78.4365483 L67.0907515,74.6268517 C89.8846425,81.9208968 99.0260452,73.7026714 91.4159925,54.8763096 C89.3210345,49.6942966 89.6433125,40.8993486 91.7335247,29.288974 C92.4647551,25.2272527 93.3964651,20.9393815 94.4819426,16.5240234 C95.3476055,13.0027971 96.2678852,9.57278889 97.1943734,6.33814281 L97.5420029,5.13451153 C97.7507758,4.41761123 97.9510908,3.74056192 98.1413397,3.10683734 L98.6297394,1.50244969 L98.9388073,0.515726772 Z" id="Stroke-114"/>
                            <path d="M0.1850015,153.534088 L2.1419985,150.045512 L2.85620174,150.434727 L3.51128674,150.782909 C4.50308988,151.305335 5.6321651,151.880908 6.88714027,152.498006 L7.43266178,152.764985 C11.6537624,154.821142 16.3218862,156.878362 21.3004212,158.797989 C32.7483158,163.212076 44.0600582,166.224884 54.584272,167.202241 C59.3535856,167.645156 63.8735301,167.656119 68.1063644,167.201856 L68.9490919,167.10479 L69.4379081,171.07481 C64.6629697,171.662733 59.5745075,171.682884 54.2143935,171.185103 C43.2765951,170.169337 31.6251616,167.066055 19.8613669,162.530163 C14.7706849,160.567294 9.99959664,158.464698 5.68097489,156.361037 L4.04785364,155.55429 C3.35348222,155.206284 2.70158001,154.872883 2.09423579,154.556252 L0.962732129,153.958187 L0.1850015,153.534088 Z" id="Stroke-122"/>
                        </g>
                        <g id="Group-16" transform="translate(90.000000, 52.000000)" fill="#000">
                            <path d="M15.8252,81.1664 C11.7822,81.1664 6.7382,80.3754 0.4432,78.3614 L1.6612,74.5514 C13.3852,78.3024 22.0452,77.9964 26.0462,73.6874 C29.4492,70.0204 29.4282,63.3134 25.9872,54.8014 C23.6522,49.0264 24.2292,38.0734 27.7022,22.2454 C30.2432,10.6624 33.4772,0.5414 33.5102,0.4404 L37.3182,1.6624 C33.8112,12.5954 25.6062,43.1874 29.6952,53.3024 C34.8932,66.1604 32.1742,72.9644 28.9772,76.4084 C26.6972,78.8664 22.7182,81.1664 15.8252,81.1664" id="Fill-5"/>
                        </g>
                        <path d="M25,55.4906 C25,55.4906 40.26,46.2806 51.897,44.1856 C59.082,42.8926 98.756,48.4916 97.492,56.5816 C96.26,64.4636 92.346,63.4026 76.686,60.7116 C61.026,58.0196 53.873,56.2246 44.82,57.2036 C35.766,58.1816 25.245,60.1396 25,55.4906" id="Fill-7" fill="#000"/>
                        <path d="M78.6362,79.1289 C77.9112,79.1289 77.1852,78.8679 76.6092,78.3389 C76.5712,78.3049 71.6242,73.9129 64.4832,74.1789 C57.0942,74.4519 52.1892,78.0669 52.1402,78.1029 C50.8182,79.0929 48.9392,78.8329 47.9442,77.5169 C46.9472,76.1999 47.1962,74.3309 48.5082,73.3279 C48.7642,73.1319 54.8862,68.5299 64.2612,68.1829 C73.9102,67.8359 80.3942,73.6699 80.6652,73.9189 C81.8862,75.0389 81.9682,76.9369 80.8472,78.1569 C80.2562,78.8019 79.4472,79.1289 78.6362,79.1289" id="Fill-12" fill="#000"/>
                    </g>
                </g>
                <g id="Hairstyle" transform="translate(1142.000000, 1085.000000) scale(1 1)" fill="#000">
                    <g id="Hairstyle/Double Bun" stroke="none" stroke-width="1" fill="none" fill-rule="evenodd">
                        <g id="Group-13" transform="translate(413.000000, 182.000000)">
                            <path d="M185.4792,97.481 C185.4792,97.481 100.3482,99.373 75.7552,165.585 C51.1622,231.798 73.1162,253.966 54.1612,294.684 C35.2072,335.401 0.1062,338.911 0.1062,338.911 C0.1062,338.911 47.8432,309.426 48.5452,273.624 C49.2472,237.82 46.8652,183.377 47.3542,181.464 C47.8432,179.552 28.9122,174.451 25.3902,187.883 C25.3902,187.883 14.2412,108.021 57.1422,61.883 C118.1362,-3.715 273.0272,24.528 267.5532,143.585 C263.6322,228.863 270.8322,258.974 270.8322,258.974 C270.8322,258.974 264.7822,224.521 261.8492,191.767 C258.9162,159.013 251.6222,116.46 198.0442,98.473 C198.0442,98.473 176.2302,78.573 169.7242,77.042 C163.2182,75.511 187.8392,89.217 185.4792,97.481" id="Fill-1" fill="#000"/>
                            <path d="M185.4792,97.481 C185.4792,97.481 100.3482,99.373 75.7552,165.585 C51.1622,231.798 73.1162,253.966 54.1612,294.684 C35.2072,335.401 0.1062,338.911 0.1062,338.911 C0.1062,338.911 47.8432,309.426 48.5452,273.624 C49.2472,237.82 46.8652,183.377 47.3542,181.464 C47.8432,179.552 28.9122,174.451 25.3902,187.883 C25.3902,187.883 14.2412,108.021 57.1422,61.883 C118.1362,-3.715 273.0272,24.528 267.5532,143.585 C263.6322,228.863 270.8322,258.974 270.8322,258.974 C270.8322,258.974 264.7822,224.521 261.8492,191.767 C258.9162,159.013 251.6222,116.46 198.0442,98.473 C198.0442,98.473 176.2302,78.573 169.7242,77.042 C163.2182,75.511 187.8392,89.217 185.4792,97.481 Z" id="Stroke-3" fill="#711515"/>
                            <path d="M100.244394,84.06 C100.244394,84.06 62.7173936,106.576 34.1973936,70.55 C5.67739356,34.525 49.2083936,1.42108547e-14 86.7343936,1.42108547e-14 C124.261394,1.42108547e-14 137.771394,22.516 134.768394,46.534 C131.766394,70.55 116.756394,78.056 100.244394,84.06 Z" id="Stroke-7" fill="#711515"/>
                            <path d="M249.634659,6.11821636 C249.634659,6.11821636 291.853659,13.0142164 294.121659,56.4672164 C296.387659,99.9192164 242.696659,97.9632164 213.112659,74.8762164 C183.528659,51.7882164 185.513659,27.2862164 201.358659,11.8622164 C217.202659,-3.56078364 233.248659,0.277216362 249.634659,6.11821636 Z" id="Stroke-11" fill="#711515"/>
                        </g>
                    </g>
                </g>
                <g id="Accessories" transform="translate(1586.000000, 1445.000000) scale(1 1)">
                    <g id="Accessories/None" stroke="none" stroke-width="1" fill="none" fill-rule="evenodd" fill-opacity="0"/>
                </g>
                <g id="Facial Hair" transform="translate(1596.000000, 1446.000000) scale(1 1)">
                    <g id="Facial Hair/None" stroke="none" stroke-width="1" fill="none" fill-rule="evenodd" fill-opacity="0"/>
                </g>
            </g>
        </g>
        <g transform="translate(40.000000, 620.977700) scale(1 1)" id="Master/Character/Sitting On Chair">
            <defs>
                <polygon id="mastercharactersitting-on-chair-path-1" points="0 280.06 382.454938 280.06 382.454938 519.503 0 519.503"/>
            </defs>
            <g id="Master/Character/Sitting On Chair" stroke="none" stroke-width="1" fill="none" fill-rule="evenodd">
                <g id="Lower Body/Sitting On Chair" transform="translate(876.000000, 1607.000000) scale(1 1)">
                    <defs>
                        <polygon id="lower-bodysitting-on-chair5-path-1" points="0 280.06 382.454938 280.06 382.454938 519.503 0 519.503"/>
                    </defs>
                    <g id="Lower Body/Sitting On Chair/5" stroke="none" stroke-width="1" fill="none" fill-rule="evenodd">
                        <g id="Group-68">
                            <g id="Group-3" transform="translate(895.533816, 840.477907) rotate(-4.000000) translate(-895.533816, -840.477907) translate(704.033816, 580.477907)">
                                <polygon id="Fill-2" fill="#56ACF6" points="90.9983376 401.8251 156.753338 473.6121 264.736338 472.4061 258.101338 443.4491 129.606338 390.9661"/>
                                <path d="M76.0960053,0.9638 C74.7380053,10.5148 88.0788376,204.960923 88.0788376,204.960923 C88.0788376,204.960923 121.781585,210.464215 189.187079,221.4708 L229.667856,0.9638 L76.0960053,0.9638 Z" id="Fill-34" fill="#7d4439"/>
                                <path d="M66.2981376,309.6757 C66.7611376,306.4187 85.3031376,199.4197 85.3031376,199.4197 C85.3031376,199.4197 82.6941376,194.3977 84.4551376,182.0237 C86.2151376,169.6497 95.0471376,158.9447 147.152138,171.0077 C199.258138,183.0707 201.588138,190.0457 200.847138,195.2567 C200.106138,200.4667 192.485138,212.0077 191.280138,220.4747 C190.075138,228.9417 182.962138,311.6517 182.962138,311.6517 L66.2981376,309.6757 Z" id="Fill-36" fill="#E4F9FF"/>
                                <path d="M65.3538376,305.3369 L49.7058376,390.8379 L120.300838,382.5059 L184.204838,414.0519 L281.627838,457.5109 L365.732838,454.6729 L363.718838,432.9509 C363.718838,432.9509 291.447838,388.4759 274.290838,376.3389 C257.132838,364.2009 251.280838,344.7449 251.280838,344.7449 L225.951838,302.0589 C225.951838,302.0589 198.906838,256.5119 175.147838,251.0879 C151.389838,245.6639 130.555838,248.4249 134.454838,258.3819 C138.352838,268.3399 148.495838,286.1359 148.495838,286.1359 L105.213838,274.2559 L78.2138376,303.1209 L71.1208376,309.8799 L73.4148376,315.1509" id="Fill-38" fill="#F4F0F1"/>
                                <path d="M71.2034376,318.3789 C71.2034376,318.3789 69.7594376,326.0259 93.7554376,335.5079 C117.751438,344.9899 143.249438,358.9689 147.939438,346.0709 C152.630438,333.1739 147.424438,319.5819 147.424438,319.5819 L168.776438,337.6109 C168.776438,337.6109 177.884438,356.3989 164.799438,373.0999 C151.715438,389.8009 121.926438,388.4199 121.926438,388.4199 L110.123438,376.0319 C110.123438,376.0319 72.2724376,351.0149 64.9164376,334.9759 C57.5594376,318.9369 71.2034376,318.3789 71.2034376,318.3789" id="Fill-40" fill="#F9C818"/>
                                <mask id="lower-bodysitting-on-chair5-mask-2" fill="#fff">
                                    <use xlink:href="#lower-bodysitting-on-chair5-path-1"/>
                                </mask>
                                <g id="Clip-43"/>
                                <path d="M64.9085376,286.331 C64.9085376,286.331 31.3285376,352.55 33.9245376,351.751 C36.5205376,350.952 55.0565376,318.708 54.8405376,331.528 C54.6225376,344.35 45.0835376,360.107 45.8275376,374.428 C45.8275376,374.428 56.5795376,409.639 64.4535376,410.759 C72.3285376,411.879 110.743538,404.674 110.743538,404.674 C110.743538,404.674 129.508538,383.549 163.529538,409.4 C197.551538,435.252 241.914538,462.266 241.914538,462.266 C241.914538,462.266 235.982538,466.574 235.461538,470.931 C234.940538,475.286 237.320538,481.436 237.320538,481.436 L99.2415376,451.568 L27.7065376,395.481 L18.3445376,395.813 C18.3445376,395.813 9.35653757,400.523 7.50253757,415.896 C5.64853757,431.269 6.07053757,435.321 3.41853757,439.935 C0.765537573,444.548 -5.84346243,453.588 11.9545376,459.446 C29.7515376,465.305 163.510538,507.286 223.092538,516.427 C282.674538,525.566 345.363538,512.858 363.147538,497.756 C380.932538,482.653 384.418538,469.841 381.569538,457.126 C378.720538,444.411 372.410538,428.883 355.019538,430.531 C337.628538,432.181 327.611538,434.347 300.046538,423.377 C272.479538,412.407 261.270538,412.675 261.814538,419.137 C262.357538,425.598 282.696538,433.145 282.696538,433.145 C282.696538,433.145 310.131538,441.304 309.741538,444.041 C309.351538,446.778 308.217538,449.143 283.076538,445.435 C257.935538,441.726 228.038538,434.084 189.995538,407.129 C151.951538,380.174 140.828538,369.877 114.528538,370.977 C88.2285376,372.078 64.0025376,382.431 58.7035376,363.521 C53.4045376,344.612 73.1145376,321.413 73.4145376,315.151 C73.7135376,308.89 65.3535376,305.337 65.3535376,305.337 L65.4135376,280.06" id="Fill-42" fill="#15023F" mask="url(#lower-bodysitting-on-chair5-mask-2)"/>
                                <path d="M69.5901376,270.9257 C69.5901376,270.9257 68.5511376,272.1127 65.4131376,280.0607 C62.2761376,288.0077 59.6341376,312.9947 68.4221376,312.7857 C77.2111376,312.5757 85.2481376,295.8367 93.6731376,286.6347 C102.099138,277.4327 112.061138,275.3827 120.086138,280.5387 C128.111138,285.6947 160.487138,285.9557 160.487138,285.9557 C160.487138,285.9557 152.876138,270.6797 124.261138,268.4007 C124.261138,268.4007 104.491138,260.2807 91.3821376,277.8477 C78.2731376,295.4127 69.7971376,313.1857 70.0111376,297.6547 C70.1951376,284.2817 74.9591376,276.4167 74.3971376,271.6527 C73.8341376,266.8867 69.5901376,270.9257 69.5901376,270.9257" id="Fill-45" fill="#451989" mask="url(#lower-bodysitting-on-chair5-mask-2)"/>
                                <path d="M282.480838,380.5556 C282.480838,380.5556 267.059838,381.7456 223.004838,374.4696 C178.952838,367.1836 190.188838,347.7626 172.480838,341.1726 C154.770838,334.5936 152.876838,333.6376 144.174838,316.1276 C135.484838,298.6186 109.480838,312.2126 97.8038376,308.5216 C86.1198376,304.8196 123.980838,274.6106 123.980838,274.6106 C123.980838,274.6106 143.584838,270.7836 160.486838,285.9536 C165.242838,290.2266 174.417838,304.9756 177.261838,308.4806 C180.096838,311.9856 198.271838,320.0546 213.401838,342.0036 C228.529838,363.9626 252.276838,359.7046 256.826838,361.3016 C261.365838,362.9076 225.290838,304.5756 225.290838,304.5756 L225.751838,299.0556 C225.751838,299.0556 248.139838,337.5116 259.207838,354.7216 C270.283838,371.9326 280.058838,376.7066 281.812838,377.7946 C283.555838,378.8906 282.480838,380.5556 282.480838,380.5556" id="Fill-47" fill="#E263AB" mask="url(#lower-bodysitting-on-chair5-mask-2)"/>
                                <path d="M47.9388376,319.0849 C47.9388376,319.0849 14.8268376,382.1459 15.3848376,397.1789 C15.9428376,412.2129 48.6158376,404.8479 60.0978376,434.4289 C71.5808376,464.0099 90.8508376,477.9679 175.142838,498.8099 C259.433838,519.6499 333.662838,492.6929 334.367838,487.7349 C335.072838,482.7769 335.184838,473.0979 335.184838,473.0979 C335.184838,473.0979 210.898838,484.5049 162.362838,446.4079 C113.826838,408.3119 112.816838,397.6299 93.3428376,401.1829 C73.8688376,404.7359 63.0638376,397.7199 49.7138376,378.9599 C49.7138376,378.9599 48.8828376,369.9889 55.8918376,347.3809 C62.9018376,324.7719 60.4598376,291.6389 47.9388376,319.0849" id="Fill-49" fill="#FFF" mask="url(#lower-bodysitting-on-chair5-mask-2)"/>
                                <path d="M125.258138,271.3183 C125.258138,271.3183 115.626138,259.2483 133.734138,248.2053 C151.841138,237.1623 182.016138,248.4253 190.580138,258.8843 C190.580138,258.8843 173.504138,248.9983 151.350138,249.7383 C129.196138,250.4783 133.921138,257.1483 142.943138,273.5093 L123.237138,269.5723" id="Fill-51" fill="#451989" mask="url(#lower-bodysitting-on-chair5-mask-2)"/>
                                <path d="M153.778638,286.0683 C155.877638,289.9953 153.476638,295.3693 148.418638,298.0733 C143.359638,300.7783 137.556638,299.7873 135.458638,295.8613 C133.359638,291.9353 135.759638,286.5603 140.818638,283.8563 C145.877638,281.1523 151.679638,282.1423 153.778638,286.0683" id="Fill-53" fill="#1F003C" mask="url(#lower-bodysitting-on-chair5-mask-2)"/>
                                <path d="M138.640938,292.0087 C138.640938,292.0087 140.350938,284.0397 156.223938,279.8147 C172.095938,275.5887 201.986938,269.0347 216.679938,282.2187 C231.372938,295.4027 229.600938,300.7687 229.600938,300.7687 C229.600938,300.7687 218.723938,293.1707 210.148938,289.6457 C201.573938,286.1207 189.750938,284.1517 177.729938,285.6117 C165.707938,287.0707 153.607938,290.1037 149.674938,291.4167 C145.742938,292.7307 141.651938,300.2167 138.640938,292.0087" id="Fill-55" fill="#E8D9F3" mask="url(#lower-bodysitting-on-chair5-mask-2)"/>
                                <path d="M173.357738,304.8457 C175.456738,308.7727 173.056738,314.1467 167.997738,316.8507 C162.938738,319.5557 157.135738,318.5647 155.038738,314.6387 C152.939738,310.7127 155.338738,305.3377 160.397738,302.6337 C165.457738,299.9297 171.258738,300.9197 173.357738,304.8457" id="Fill-57" fill="#1F003C" mask="url(#lower-bodysitting-on-chair5-mask-2)"/>
                                <path d="M158.221038,310.7861 C158.221038,310.7861 159.908038,302.8141 175.197038,298.5061 C190.486038,294.1971 219.269038,287.4861 233.328038,300.5791 C247.388038,313.6731 245.655038,319.0451 245.655038,319.0451 C245.655038,319.0451 235.235038,311.5121 227.006038,308.0361 C218.779038,304.5601 207.419038,302.6571 195.850038,304.1811 C184.280038,305.7051 172.625038,308.8011 168.835038,310.1351 C165.046038,311.4691 161.072038,318.9721 158.221038,310.7861" id="Fill-59" fill="#E8D9F3" mask="url(#lower-bodysitting-on-chair5-mask-2)"/>
                                <path d="M195.223938,322.2109 C197.322938,326.1369 194.922938,331.5109 189.863938,334.2159 C184.804938,336.9199 179.002938,335.9289 176.904938,332.0029 C174.805938,328.0769 177.204938,322.7019 182.263938,319.9979 C187.323938,317.2939 193.124938,318.2839 195.223938,322.2109" id="Fill-61" fill="#1F003C" mask="url(#lower-bodysitting-on-chair5-mask-2)"/>
                                <path d="M180.039438,328.4824 C180.039438,328.4824 181.499438,321.3134 193.727438,317.2284 C205.954438,313.1444 236.445438,308.7414 247.441438,320.2704 C258.436438,331.7994 250.674438,338.6684 250.674438,338.6684 C250.674438,338.6684 241.307438,328.0074 234.810438,325.0134 C228.314438,322.0184 219.304438,320.4784 210.076438,322.0124 C200.849438,323.5474 191.529438,326.4934 188.495438,327.7434 C185.460438,328.9944 182.188438,335.7764 180.039438,328.4824" id="Fill-63" fill="#E8D9F3" mask="url(#lower-bodysitting-on-chair5-mask-2)"/>
                            </g>
                            <g id="Group-67" transform="translate(0.000000, 0.060000)">
                                <g id="Group-44" transform="translate(651.000000, 860.000000)"/>
                                <path d="M3.1806,0.942 C3.1806,0.942 -3,188.499 30.4226,177.385 C30.4226,177.385 212.4216,195.445 256.8796,202.391 C279.246794,205.886094 322.024268,232.656066 455.898754,254.990308 C589.773239,277.324549 717.4166,300.348138 717.4166,309.322 C717.4166,327.384 746.5776,459.14 753.5236,620.3 C753.5236,620.3 795.2036,670.314 920.2406,625.857 C920.2406,625.857 929.3036,310.758 866.7846,188.499 C747.405502,30.118 369.004392,0.942 369.004392,0.942 L3.1806,0.942 Z" id="Fill-65" fill="#165C5D"/>
                                <g id="Group-2" transform="translate(320.000000, 556.940000)">
                                    <path d="M43.3374466,13.506658 C43.3374466,23.152658 55.2845449,269.8996 55.2845449,269.8996 L152.715994,278.852034 L206.575491,-2.84217094e-14 L43.3374466,13.506658 Z" id="Fill-4" fill="#7d4439"/>
                                    <g id="Group" transform="translate(0.000000, 210.544663)">
                                        <polygon id="Fill-1" fill="#56ACF6" points="74.7025449 113.497237 140.457545 185.285237 248.440545 184.079237 241.805545 155.122237 113.310545 102.639237"/>
                                        <polygon id="Fill-3" fill="#56ACF6" points="74.9691449 226.772637 140.724145 298.560637 248.707145 297.354637 242.072145 268.397637 113.577145 215.914637"/>
                                        <path d="M46.1420449,149.748137 C46.1420449,146.459137 49.4310449,37.9151369 49.4310449,37.9151369 C49.4310449,37.9151369 46.1420449,33.3101369 46.1420449,20.8111369 C46.1420449,8.31113686 53.3780449,-3.52886314 106.663045,1.07513686 C159.949045,5.68113686 163.238045,12.2591369 163.238045,17.5211369 C163.238045,22.7841369 157.318045,35.2831369 157.318045,43.8351369 C157.318045,52.3881369 161.922045,135.275137 161.922045,135.275137 L46.1420449,149.748137 Z" id="Fill-6" fill="#E4F9FF"/>
                                        <path d="M44.5961449,145.585137 L41.1451449,232.438137 L109.864145,214.247137 L177.572145,236.481137 L280.145145,265.787137 L363.012145,251.134137 L357.959145,229.911137 C357.959145,229.911137 280.145145,196.058137 261.450145,186.457137 C242.754145,176.856137 234.220145,158.418137 234.220145,158.418137 L203.132145,119.725137 C203.132145,119.725137 169.943145,78.4391369 145.658145,76.4161369 C121.372145,74.3921369 101.134145,80.0591369 106.396145,89.3681369 C111.658145,98.6771369 124.205145,114.867137 124.205145,114.867137 L79.6831449,109.200137 L57.0161449,141.581137 L50.9451449,149.272137 L53.9581449,154.167137" id="Fill-8" fill="#F4F0F1"/>
                                        <path d="M52.2250449,157.673937 C52.2250449,157.673937 51.8710449,165.447937 76.9630449,171.455937 C102.056045,177.464937 129.269045,187.712937 132.096045,174.282937 C134.923045,160.854937 127.855045,148.130937 127.855045,148.130937 L151.534045,162.974937 C151.534045,162.974937 163.196045,180.291937 152.594045,198.668937 C141.992045,217.046937 112.305045,219.873937 112.305045,219.873937 L98.8750449,209.271937 C98.8750449,209.271937 57.8790449,189.833937 48.3370449,174.989937 C38.7950449,160.147937 52.2250449,157.673937 52.2250449,157.673937" id="Fill-10" fill="#F9C818"/>
                                        <path d="M41.4789449,126.831237 C41.4789449,126.831237 17.5589449,197.119237 20.0169449,195.963237 C22.4749449,194.807237 36.2859449,160.272237 37.8749449,172.996237 C39.4659449,185.720237 32.2419449,202.664237 34.9949449,216.737237 C34.9949449,216.737237 50.5969449,250.083237 58.5509449,250.083237 C66.5049449,250.083237 103.522945,237.540237 103.522945,237.540237 C103.522945,237.540237 119.124945,213.983237 156.448945,234.787237 C193.771945,255.590237 241.496945,276.087237 241.496945,276.087237 C241.496945,276.087237 236.230945,281.187237 236.328945,285.573237 C236.425945,289.960237 239.647945,295.714237 239.647945,295.714237 L98.7389449,285.587237 L20.0179449,240.134237 L10.7959449,241.780237 C10.7959449,241.780237 2.56194485,247.709237 2.89094485,263.189237 C3.21994485,278.670237 4.20794485,282.623237 2.23194485,287.563237 C0.25594485,292.504237 -5.01405515,302.386237 13.4309449,305.679237 C31.8749449,308.973237 170.212945,331.699237 230.488945,332.358237 C290.763945,333.018237 351.039945,311.607237 366.519945,294.151237 C381.999945,276.694237 383.647945,263.519237 379.036945,251.332237 C374.424945,239.145237 365.991945,224.660237 349.005945,228.741237 C332.019945,232.823237 322.408945,236.378237 293.572945,229.399237 C264.736945,222.421237 253.675945,224.265237 255.123945,230.585237 C256.572945,236.905237 277.771945,241.514237 277.771945,241.514237 C277.771945,241.514237 306.081945,245.727237 306.081945,248.492237 C306.081945,251.257237 305.290945,253.759237 279.877945,253.627237 C254.465945,253.495237 223.790945,250.141237 182.330945,228.811237 C140.869945,207.481237 128.407945,198.854237 102.524945,203.647237 C76.6419449,208.440237 54.1149449,222.101237 46.2069449,204.127237 C38.2969449,186.152237 54.5429449,160.409237 53.9579449,154.167237 C53.3739449,147.926237 44.5959449,145.585237 44.5959449,145.585237 L41.0959449,120.553237" id="Fill-12" fill="#15023F"/>
                                        <path d="M43.9447449,110.920037 C43.9447449,110.920037 43.0837449,112.243037 41.0957449,120.553037 C39.1087449,128.862037 40.0117449,153.973037 48.6837449,152.527037 C57.3547449,151.083037 62.9557449,133.379037 70.0007449,123.082037 C77.0457449,112.785037 86.6207449,109.353037 95.2917449,113.327037 C103.962745,117.301037 136.052745,113.001037 136.052745,113.001037 C136.052745,113.001037 126.366745,98.9480369 97.7157449,100.722037 C97.7157449,100.722037 76.9997449,95.4680369 66.4947449,114.704037 C55.9887449,133.941037 50.1007449,152.731037 48.1257449,137.325037 C46.4247449,124.059037 50.0337449,115.602037 48.8057449,110.963037 C47.5787449,106.324037 43.9447449,110.920037 43.9447449,110.920037" id="Fill-14" fill="#451989"/>
                                        <path d="M270.152745,189.478637 C270.152745,189.478637 255.051745,192.829637 210.412745,191.829637 C165.772745,190.819637 174.162745,170.008637 155.702745,165.978637 C137.242745,161.958637 135.232745,161.279637 124.152745,145.168637 C113.082745,129.058637 89.2527449,146.178637 77.1727449,144.168637 C65.0827449,142.148637 98.3127449,106.909637 98.3127449,106.909637 C98.3127449,106.909637 117.182745,100.359637 136.051745,112.999637 C141.362745,116.558637 152.522745,129.869637 155.832745,132.938637 C159.132745,136.008637 178.261745,141.438637 196.332745,161.039637 C214.402745,180.648637 237.312745,173.088637 242.042745,174.029637 C246.761745,174.978637 202.832745,122.308637 202.832745,122.308637 L202.511745,116.779637 C202.511745,116.779637 230.091745,151.699637 243.472745,167.178637 C256.862745,182.659637 267.212745,186.008637 269.102745,186.838637 C270.982745,187.678637 270.152745,189.478637 270.152745,189.478637" id="Fill-16" fill="#E263AB"/>
                                        <path d="M29.2904449,161.648537 C29.2904449,161.648537 5.38944485,228.743537 8.05944485,243.548537 C10.7284449,258.354537 42.0384449,246.461537 57.5714449,274.130537 C73.1054449,301.799537 94.1494449,312.905537 180.536445,321.669537 C266.922445,330.432537 336.615445,293.291537 336.615445,288.283537 C336.615445,283.275537 335.363445,273.676537 335.363445,273.676537 C335.363445,273.676537 213.922445,302.472537 160.504445,271.589537 C107.087445,240.708537 104.583445,230.275537 85.8044449,236.535537 C67.0234449,242.794537 55.3394449,237.370537 39.4804449,220.676537 C39.4804449,220.676537 37.3944449,211.913537 41.1494449,188.543537 C44.9054449,165.172537 37.8224449,132.712537 29.2904449,161.648537" id="Fill-18" fill="#FFF"/>
                                        <path d="M99.1137449,103.470837 C99.1137449,103.470837 87.8777449,92.8768369 104.249745,79.3938369 C120.621745,65.9108369 152.081745,72.8128369 162.033745,81.9618369 C162.033745,81.9618369 143.734745,74.5778369 121.905745,78.4308369 C100.076745,82.2838369 105.694745,88.2218369 116.929745,103.149837 L96.8667449,102.025837" id="Fill-20" fill="#451989"/>
                                        <path d="M129.426245,114.057737 C132.057245,117.648737 130.438245,123.307737 125.810245,126.697737 C121.183245,130.086737 115.299245,129.923737 112.668245,126.331737 C110.037245,122.741737 111.656245,117.081737 116.284245,113.692737 C120.912245,110.302737 126.796245,110.465737 129.426245,114.057737" id="Fill-22" fill="#1F003C"/>
                                        <path d="M115.276745,122.070437 C115.276745,122.070437 115.846745,113.939437 130.965745,107.520437 C146.086745,101.102437 174.755745,90.4044369 191.159745,101.387437 C207.561745,112.371437 206.563745,117.933437 206.563745,117.933437 C206.563745,117.933437 194.724745,111.942437 185.738745,109.660437 C176.753745,107.378437 164.771745,107.092437 153.075745,110.231437 C141.379745,113.369437 129.825745,118.076437 126.116745,119.930437 C122.408745,121.784437 119.413745,129.772437 115.276745,122.070437" id="Fill-24" fill="#E8D9F3"/>
                                        <path d="M151.455545,129.890737 C154.085545,133.481737 152.466545,139.140737 147.839545,142.530737 C143.211545,145.919737 137.327545,145.756737 134.696545,142.164737 C132.066545,138.574737 133.684545,132.914737 138.312545,129.525737 C142.940545,126.135737 148.824545,126.298737 151.455545,129.890737" id="Fill-26" fill="#1F003C"/>
                                        <path d="M137.305145,137.903437 C137.305145,137.903437 137.854145,129.772437 152.383145,123.354437 C166.912145,116.935437 194.464145,106.237437 210.227145,117.220437 C225.991145,128.204437 225.031145,133.766437 225.031145,133.766437 C225.031145,133.766437 213.654145,127.775437 205.019145,125.493437 C196.383145,123.211437 184.869145,122.925437 173.629145,126.064437 C162.389145,129.202437 151.286145,133.909437 147.723145,135.763437 C144.159145,137.617437 141.281145,145.605437 137.305145,137.903437" id="Fill-28" fill="#E8D9F3"/>
                                        <path d="M175.549245,144.002137 C178.179245,147.594137 176.560245,153.253137 171.933245,156.643137 C167.305245,160.032137 161.421245,159.868137 158.790245,156.277137 C156.160245,152.687137 157.778245,147.027137 162.406245,143.638137 C167.034245,140.248137 172.918245,140.411137 175.549245,144.002137" id="Fill-30" fill="#1F003C"/>
                                        <path d="M161.398845,152.349737 C161.398845,152.349737 161.834845,145.046737 173.364845,139.281737 C184.894845,133.515737 214.462845,124.862737 226.972845,134.728737 C239.481845,144.593737 232.763845,152.487737 232.763845,152.487737 C232.763845,152.487737 221.988845,143.252737 215.135845,141.203737 C208.282845,139.153737 199.144845,138.896737 190.224845,141.715737 C181.305845,144.534737 172.494845,148.761737 169.666845,150.427737 C166.837845,152.093737 164.553845,159.268737 161.398845,152.349737" id="Fill-32" fill="#E8D9F3"/>
                                    </g>
                                </g>
                                <path d="M99.0982643,254.988308 C232.97275,277.322549 360.616111,300.346138 360.616111,309.32 C360.616111,327.382 349.777111,459.138 356.723111,620.298 C356.723111,620.298 398.403111,670.312 523.440111,625.855 C523.440111,625.855 572.503111,310.756 509.984111,188.497 C390.605013,30.116 12.2039025,0.94 12.2039025,0.94 C-19.1161799,155.416044 9.84860739,240.098814 99.0982643,254.988308 Z" id="Fill-65-Copy" fill="#165C5D"/>
                            </g>
                        </g>
                        <path d="M403.52493,93.5948494 C488.227813,125.237804 531.934804,183.580029 534.436517,268.392491 L534.499713,270.970668 L531.500287,271.029332 C529.855315,186.924029 487.756828,129.110371 404.995437,97.3593261 L402.47507,96.4051506 L403.52493,93.5948494 Z" id="Path-9" fill="#000" fill-rule="nonzero"/>
                    </g>
                </g>
                <g id="Upper Body" transform="translate(333.000000, 655.000000) scale(1 1)">
                    <defs>
                        <polygon id="upper-bodyholding-object-path-1" points="0 0.0722 432.2748 0.0722 432.2748 402 0 402"/>
                        <polygon id="upper-bodyholding-object-path-3" points="0.1793 0.152 98.6603 0.152 98.6603 35.3681 0.1793 35.3681"/>
                    </defs>
                    <g id="Upper Body/Holding Object" stroke="none" stroke-width="1" fill="none" fill-rule="evenodd">
                        <g id="Arm-Holding" transform="translate(223.162589, 630.116710)">
                            <path d="M-1.79056769e-12,152.777518 C9.58208754,264.768033 43.4359399,320.76329 101.561557,320.76329 C159.687174,320.76329 214.90463,235.040027 267.213925,63.5935002 L143.05206,0 L84.8477069,127.187 L-1.79056769e-12,152.777518 Z" id="Path-3" fill="#7d4439"/>
                            <path d="M103.837411,185.353613 L106.759494,184.88329 L107.55848,187.270658 C116.041777,212.508206 123.270211,230.458729 129.228486,241.098898 L129.414268,241.429024 C135.560066,252.295235 138.702215,262.890441 138.833141,273.210625 L138.837411,273.88329 L135.837987,273.88329 C135.837987,263.839313 132.898146,253.507835 127.010891,242.88484 L126.246352,241.519483 C120.261042,230.727318 113.063594,212.81146 104.639184,187.749303 L103.837411,185.353613 Z" id="Path-4" fill="#000" fill-rule="nonzero"/>
                        </g>
                        <path d="M724.954254,220 C724.954254,220 721.26343,301.153386 673.924004,329.799638 C630.972611,355.790794 721.968632,506.610475 819.857852,497.613536 C873.442212,492.688212 886,346.158072 886,346.158072 C886,346.158072 842.733964,337.796917 858.715877,271.819367 L724.954254,220 Z" id="Neck" fill="#7d4439"/>
                        <path d="M803.337113,302.515641 C739.876612,294.840687 694.077698,253.11575 687.664652,183.898064 C669.216286,186.83496 664.86504,138.764927 670.003065,123.322958 C675.146083,107.858975 691.933027,116.900812 691.933027,116.900812 C692.862251,114.457234 693.652358,111.898916 694.303348,109.225857 C722.02532,-4.48555283 799.669805,0.0243586862 799.669805,0.0243586862 C942.344355,7.45715716 908.914243,153.120195 900.762895,191.763142 C892.610548,230.410091 864.683894,309.927426 803.337113,302.515641 Z" id="Head" fill="#7d4439"/>
                        <g id="Group-8" transform="translate(851.500000, 742.500000) scale(-1, 1) translate(-851.500000, -742.500000) translate(276.000000, 333.000000)">
                            <g id="Group-3" transform="translate(0.000000, 416.880000)">
                                <mask id="upper-bodyholding-object-mask-2" fill="#fff">
                                    <use xlink:href="#upper-bodyholding-object-path-1"/>
                                </mask>
                                <g id="Clip-2"/>
                                <path d="M302.8708,0.0722 C302.8708,0.0722 295.3408,130.7362 269.7778,149.9082 C244.2148,169.0812 108.581674,227.619914 108.581674,227.619914 C108.581674,227.619914 91.1255253,326.082585 119.403525,315.253585 C147.681525,304.422585 403.3378,259.8862 406.2458,242.4332 C409.1548,224.9802 432.2748,23.2442 432.2748,23.2442 L302.8708,0.0722 Z" id="Fill-1" fill="#7d4439" mask="url(#upper-bodyholding-object-mask-2)"/>
                            </g>
                            <path d="M973.4128,86.4831 C1016.0648,154.0161 1013.0718,220.6541 1043.2838,241.9801 C1073.4948,263.3061 1085.9348,293.5181 1094.8208,332.6141 C1103.7058,371.7121 1150.73751,424.30371 1150.73751,424.30371 L960.9104,484.326901 C960.9104,484.326901 897.648525,342.549943 897.648525,342.549943 C897.648525,342.549943 919.0598,664.3351 904.8428,666.1121 C890.6258,667.8901 408.4218,654.9661 408.4218,637.1941 C408.4218,619.4231 426.6118,448.1301 426.6118,448.1301 L293.3258,417.9181 C293.3258,417.9181 304.5228,151.9991 418.3848,62.6491 C418.3848,62.6491 480.0598,17.5791 555.9678,0.9751 C555.9678,0.9751 578.1068,49.2071 647.6898,50.7891 C717.2718,52.3701 739.8358,27.5021 757.2028,0.0001 C757.2028,0.0001 930.7618,18.9521 973.4128,86.4831 Z" id="Fill-4" fill="#1BC0D7"/>
                        </g>
                        <g id="Object" transform="translate(292.000000, 538.500000) scale(-1, 1) translate(-292.000000, -538.500000) translate(-85.000000, 262.000000) scale(1 1)">
                            <g id="Object/Pie" stroke="none" stroke-width="1" fill="none" fill-rule="evenodd">
                                <g id="Cake" transform="translate(136.000000, 312.000000)">
                                    <polygon id="Fill-67" fill="#FC7750" points="457.1702 161.2381 420.1802 240.9471 54.9402 240.9471 22.0902 161.2381"/>
                                    <line x1="79.515" y1="168.96" x2="105.624" y2="228.243" id="Fill-68" fill="#E93737"/>
                                    <polygon id="Fill-69" fill="#E93737" points="103.1478 229.3331 77.0388 170.0501 81.9908 167.8701 108.0998 227.1521"/>
                                    <line x1="111.458" y1="172.207" x2="137.567" y2="231.49" id="Fill-70" fill="#E93737"/>
                                    <polygon id="Fill-71" fill="#E93737" points="135.0904 232.5796 108.9814 173.2966 113.9334 171.1166 140.0424 230.3986"/>
                                    <line x1="406.682" y1="170.259" x2="380.573" y2="229.542" id="Fill-72" fill="#E93737"/>
                                    <polygon id="Fill-73" fill="#E93737" points="383.0494 230.6317 378.0974 228.4507 404.2064 169.1687 409.1584 171.3487"/>
                                    <line x1="374.74" y1="173.505" x2="348.631" y2="232.788" id="Fill-74" fill="#E93737"/>
                                    <polygon id="Fill-75" fill="#E93737" points="351.1067 233.8782 346.1547 231.6972 372.2637 172.4152 377.2157 174.5952"/>
                                    <line x1="236.653" y1="171.999" x2="236.43" y2="229.809" id="Fill-76" fill="#E93737"/>
                                    <polygon id="Fill-77" fill="#E93737" points="239.1356 229.8194 233.7256 229.7984 233.9486 171.9884 239.3586 172.0094"/>
                                    <path d="M481.16,133.626 L481.16,151.058 C481.16,156.948 475.3,161.728 468.08,161.728 L12.42,161.728 C5.56,161.728 1.8189894e-12,157.185 1.8189894e-12,151.589 C1.8189894e-12,132.19 9.64,114.627 25.22,101.918 C40.8,89.201 62.33,81.337 86.11,81.337 L112.2,81.337 C135.93,33.641 193.29,-4.54747351e-13 260.28,-4.54747351e-13 C327.27,-4.54747351e-13 384.63,33.641 408.36,81.337 L417.06,81.337 C452.46,81.337 481.16,104.749 481.16,133.626" id="Fill-78" fill="#F9C818"/>
                                    <path d="M415.3401,141.7283 C415.3201,141.8083 415.3001,141.8783 415.2801,141.9583 L105.6001,143.2383 C105.4701,142.7383 105.3401,142.2283 105.2201,141.7283 L415.3401,141.7283 Z" id="Fill-79" fill="#F9C818"/>
                                </g>
                            </g>
                        </g>
                        <g id="Group" transform="translate(1402.500000, 1049.125521) scale(-1, 1) translate(-1402.500000, -1049.125521) translate(1266.000000, 925.125521)">
                            <path d="M229.449746,184.150439 C229.449746,184.150439 241.957746,163.394439 195.226746,118.676439 C170.566746,95.0794391 151.903746,40.5614391 138.215746,49.9414391 C124.527746,59.3214391 152.983746,123.526439 152.983746,123.526439 C152.983746,123.526439 123.125746,96.5184391 105.475746,66.7604391 C87.825746,37.0044391 71.416746,12.8134391 71.416746,12.8134391 C71.416746,12.8134391 57.412746,3.82443913 56.460746,17.9814391 C55.508746,32.1384391 59.472746,36.6424391 59.472746,36.6424391 C59.472746,36.6424391 48.717746,34.1174391 48.505746,44.9604391 C48.294746,55.8014391 50.275746,58.0544391 50.275746,58.0544391 C50.275746,58.0544391 42.190746,57.1764391 42.004746,66.6644391 C41.819746,76.1504391 47.104746,82.1574391 47.104746,82.1574391 C47.104746,82.1574391 41.000746,83.5314391 46.178746,94.9594391 C51.357746,106.385439 80.580746,165.920439 101.137746,185.128439 C121.695746,204.336439 175.350746,237.125439 175.350746,237.125439 C175.350746,237.125439 234.181746,200.479439 229.449746,184.150439" id="Fill-13" fill="#7d4439" transform="translate(136.485175, 123.562720) rotate(-73.000000) translate(-136.485175, -123.562720)"/>
                            <path d="M135.453671,209.125288 C134.791671,208.646288 119.059671,197.098288 102.317671,170.111288 C87.2786706,145.869288 81.6166706,147.446288 81.5596706,147.473288 C81.5606706,147.472288 81.6126706,147.454288 81.7076706,147.392288 L80.0706706,144.878288 C80.3256706,144.713288 81.2956706,144.199288 83.0406706,144.587288 C86.7316706,145.408288 93.5136706,150.229288 104.867671,168.529288 C121.299671,195.018288 137.054671,206.580288 137.211671,206.693288 L135.453671,209.125288 Z" id="Fill-16" fill="#995B5D" transform="translate(108.641171, 176.785429) rotate(-73.000000) translate(-108.641171, -176.785429)"/>
                            <path d="M122.603869,204.365799 C122.560869,204.325799 118.196869,200.279799 106.306869,189.702799 C97.8538691,182.181799 87.4428691,165.405799 79.8418691,153.156799 C76.4198691,147.641799 73.4648691,142.880799 71.5148691,140.282799 C65.7198691,132.565799 60.2438691,132.122799 60.1898691,132.120799 L60.3178691,129.122799 C60.5948691,129.135799 67.1818691,129.515799 73.9138691,138.481799 C75.9438691,141.184799 78.9318691,145.999799 82.3908691,151.574799 C89.8958691,163.667799 100.172869,180.229799 108.300869,187.460799 C120.221869,198.065799 124.601869,202.127799 124.644869,202.166799 L122.603869,204.365799 Z" id="Fill-18" fill="#995B5D" transform="translate(92.417369, 166.744299) rotate(-73.000000) translate(-92.417369, -166.744299)"/>
                            <path d="M107.985161,197.391638 C107.821161,197.244638 91.4331606,182.445638 80.2561606,167.872638 C69.7961606,154.234638 61.2741606,135.787638 56.6951606,125.877638 L55.6411606,123.599638 C51.9011606,115.566638 48.5431606,114.540638 48.5101606,114.532638 L49.1761606,111.607638 C49.6521606,111.707638 53.9511606,112.861638 58.3601606,122.333638 L59.4191606,124.619638 C63.9481606,134.423638 72.3791606,152.672638 82.6371606,166.046638 C93.6471606,180.403638 109.829161,195.015638 109.992161,195.161638 L107.985161,197.391638 Z" id="Fill-20" fill="#995B5D" transform="translate(79.251161, 154.499638) rotate(-73.000000) translate(-79.251161, -154.499638)"/>
                            <path d="M169.508915,108.947509 C169.417915,108.858509 160.338915,100.030509 153.128915,97.5435089 C145.112915,94.7785089 140.308915,87.5135089 140.107915,87.2065089 L142.619915,85.5665089 C142.663915,85.6335089 147.085915,92.2855089 154.106915,94.7075089 C161.956915,97.4165089 171.216915,106.421509 171.606915,106.802509 L169.508915,108.947509 Z" id="Fill-22" fill="#995B5D" transform="translate(155.857415, 97.257009) rotate(-73.000000) translate(-155.857415, -97.257009)"/>
                        </g>
                        <g id="Group" transform="translate(1402.500000, 1049.125521) scale(-1, 1) translate(-1402.500000, -1049.125521) translate(1266.000000, 925.125521)">
                            <path d="M229.449746,184.150439 C229.449746,184.150439 241.957746,163.394439 195.226746,118.676439 C170.566746,95.0794391 151.903746,40.5614391 138.215746,49.9414391 C124.527746,59.3214391 152.983746,123.526439 152.983746,123.526439 C152.983746,123.526439 123.125746,96.5184391 105.475746,66.7604391 C87.825746,37.0044391 71.416746,12.8134391 71.416746,12.8134391 C71.416746,12.8134391 57.412746,3.82443913 56.460746,17.9814391 C55.508746,32.1384391 59.472746,36.6424391 59.472746,36.6424391 C59.472746,36.6424391 48.717746,34.1174391 48.505746,44.9604391 C48.294746,55.8014391 50.275746,58.0544391 50.275746,58.0544391 C50.275746,58.0544391 42.190746,57.1764391 42.004746,66.6644391 C41.819746,76.1504391 47.104746,82.1574391 47.104746,82.1574391 C47.104746,82.1574391 41.000746,83.5314391 46.178746,94.9594391 C51.357746,106.385439 80.580746,165.920439 101.137746,185.128439 C121.695746,204.336439 175.350746,237.125439 175.350746,237.125439 C175.350746,237.125439 234.181746,200.479439 229.449746,184.150439" id="Fill-13" fill="#7d4439" transform="translate(136.485175, 123.562720) rotate(-73.000000) translate(-136.485175, -123.562720)"/>
                            <path d="M135.453671,209.125288 C134.791671,208.646288 119.059671,197.098288 102.317671,170.111288 C87.2786706,145.869288 81.6166706,147.446288 81.5596706,147.473288 C81.5606706,147.472288 81.6126706,147.454288 81.7076706,147.392288 L80.0706706,144.878288 C80.3256706,144.713288 81.2956706,144.199288 83.0406706,144.587288 C86.7316706,145.408288 93.5136706,150.229288 104.867671,168.529288 C121.299671,195.018288 137.054671,206.580288 137.211671,206.693288 L135.453671,209.125288 Z" id="Fill-16" fill="#995B5D" transform="translate(108.641171, 176.785429) rotate(-73.000000) translate(-108.641171, -176.785429)"/>
                            <path d="M122.603869,204.365799 C122.560869,204.325799 118.196869,200.279799 106.306869,189.702799 C97.8538691,182.181799 87.4428691,165.405799 79.8418691,153.156799 C76.4198691,147.641799 73.4648691,142.880799 71.5148691,140.282799 C65.7198691,132.565799 60.2438691,132.122799 60.1898691,132.120799 L60.3178691,129.122799 C60.5948691,129.135799 67.1818691,129.515799 73.9138691,138.481799 C75.9438691,141.184799 78.9318691,145.999799 82.3908691,151.574799 C89.8958691,163.667799 100.172869,180.229799 108.300869,187.460799 C120.221869,198.065799 124.601869,202.127799 124.644869,202.166799 L122.603869,204.365799 Z" id="Fill-18" fill="#995B5D" transform="translate(92.417369, 166.744299) rotate(-73.000000) translate(-92.417369, -166.744299)"/>
                            <path d="M107.985161,197.391638 C107.821161,197.244638 91.4331606,182.445638 80.2561606,167.872638 C69.7961606,154.234638 61.2741606,135.787638 56.6951606,125.877638 L55.6411606,123.599638 C51.9011606,115.566638 48.5431606,114.540638 48.5101606,114.532638 L49.1761606,111.607638 C49.6521606,111.707638 53.9511606,112.861638 58.3601606,122.333638 L59.4191606,124.619638 C63.9481606,134.423638 72.3791606,152.672638 82.6371606,166.046638 C93.6471606,180.403638 109.829161,195.015638 109.992161,195.161638 L107.985161,197.391638 Z" id="Fill-20" fill="#995B5D" transform="translate(79.251161, 154.499638) rotate(-73.000000) translate(-79.251161, -154.499638)"/>
                            <path d="M169.508915,108.947509 C169.417915,108.858509 160.338915,100.030509 153.128915,97.5435089 C145.112915,94.7785089 140.308915,87.5135089 140.107915,87.2065089 L142.619915,85.5665089 C142.663915,85.6335089 147.085915,92.2855089 154.106915,94.7075089 C161.956915,97.4165089 171.216915,106.421509 171.606915,106.802509 L169.508915,108.947509 Z" id="Fill-22" fill="#995B5D" transform="translate(155.857415, 97.257009) rotate(-73.000000) translate(-155.857415, -97.257009)"/>
                        </g>
                        <g id="Group-2" transform="translate(269.000000, 780.000000) rotate(-72.000000) translate(-269.000000, -780.000000) translate(176.000000, 708.000000)">
                            <path d="M34.8019558,0.721228206 C34.8019558,0.721228206 30.1385768,5.272 25.5025768,10.938 C20.8665768,16.604 24.9875768,17.635 14.6855768,28.452 C4.38357684,39.27 -14.1604232,66.57 18.2905768,108.294 C50.7435768,150.018 61.5605768,146.411 74.9535768,139.2 C88.3455768,131.988 89.8915768,126.838 115.131577,124.262 C140.371577,121.687 164.581577,96.961 164.066577,90.78 L163.551577,84.599 C163.551577,84.599 186.730577,75.842 185.186577,66.055 C183.640577,56.268 176.944577,57.298 176.944577,57.298 C176.944577,57.298 181.580577,52.662 177.974577,44.42 C174.368577,36.179 157.370577,37.724 137.795577,40.3 C118.222577,42.875 67.7415768,53.177 64.6505768,51.117 C61.5605768,49.057 62.5905768,45.966 74.4375768,44.42 C86.2855768,42.875 134.190577,42.36 134.190577,28.967 C134.190577,15.574 119.767577,12.999 91.9515768,13.514 C64.1355768,14.029 58.9845768,12.483 52.2885768,15.06 L39.9277765,16.4968824 C36.5105627,5.9797796 34.8019558,0.721228206 34.8019558,0.721228206 Z" id="Fill-12" fill="#7d4439"/>
                            <path d="M177.350177,57.2402 C177.350177,57.2402 178.830177,56.1722 167.807177,60.3812 C163.793177,61.9132 158.133177,63.5122 150.159177,65.0242 C120.282177,70.6902 73.4081768,80.9932 58.9851768,83.0532 C44.5611768,85.1142 56.4091768,88.2042 89.3761768,81.5082 C122.343177,74.8112 161.588177,65.8282 163.350177,65.2402 C166.350177,64.2402 175.350177,61.2402 177.350177,57.2402" id="Fill-14" fill="#000"/>
                            <path d="M116.349877,99.2405 C103.608877,102.4255 82.3498768,107.2405 80.1038768,107.7785 C76.0968768,108.7395 68.2558768,110.3545 68.2558768,110.3545 C68.2558768,110.3545 68.3498768,113.2405 92.3498768,108.2405 C98.3048768,107.0005 109.349877,105.2405 116.349877,103.2405 C122.788877,101.4005 146.037877,95.4165 149.128877,92.8405 C152.218877,90.2645 152.733877,87.6895 152.733877,87.6895 C152.733877,87.6895 128.349877,96.2405 116.349877,99.2405 Z" id="Fill-16" fill="#000"/>
                        </g>
                    </g>
                </g>
                <g id="Expression" transform="translate(1055.000000, 738.000000) scale(1 1)" fill="#000">
                    <g id="Expression/Holding Laughter" stroke="none" stroke-width="1" fill="none" fill-rule="evenodd">
                        <g id="Group-16" transform="translate(23.000000, 29.000000)" fill="#000">
                            <path d="M42.1189,122.5775 C42.1189,122.5775 58.2689,147.5775 80.2119,133.1175 L42.1189,122.5775 Z" id="Fill-1" transform="translate(61.165400, 130.098393) rotate(10.000000) translate(-61.165400, -130.098393)"/>
                            <g id="Group-9" transform="translate(0.000000, 0.515000)">
                                <path d="M2,22.9756 C2,22.9756 17.26,13.7656 28.897,11.6706 C36.082,10.3776 75.756,15.9766 74.492,24.0666 C73.26,31.9486 69.346,30.8876 53.686,28.1966 C38.026,25.5046 30.873,23.7096 21.82,24.6886 C12.766,25.6666 2.245,27.6246 2,22.9756" id="Fill-7" transform="translate(38.260773, 20.833940) rotate(-19.000000) translate(-38.260773, -20.833940)"/>
                            </g>
                            <path d="M163.977136,33.4844194 C163.977136,33.4844194 161.362136,25.4834194 157.059136,21.6384194 C152.756136,17.7954194 120.372136,9.49541944 114.895136,14.6284194 C106.193136,22.7844194 112.446136,25.7074194 129.915136,27.5194194 C143.964136,28.9774194 149.514136,29.4634194 156.025136,32.2914194 C164.921136,36.1554194 163.780136,34.9744194 163.977136,33.4844194" id="Fill-10" transform="translate(137.488568, 23.947836) rotate(28.000000) translate(-137.488568, -23.947836)"/>
                        </g>
                        <g id="Group-124" transform="translate(25.000000, 52.000000)" fill="#000" fill-rule="nonzero">
                            <path d="M98.9388073,0.515726772 L102.747593,1.73767323 L102.375135,2.93095324 C102.075892,3.9043293 101.742122,5.01790967 101.382468,6.25291663 C100.354215,9.78380887 99.3257634,13.5761133 98.3662837,17.478955 C97.2996742,21.8175645 96.3854385,26.0250163 95.6702376,29.9976992 L95.4631649,31.1740325 C93.7257688,41.2776329 93.4803733,48.9926374 95.0328764,53.1417647 L95.1244408,53.3771728 C104.002358,75.340079 91.9464166,86.4779502 66.6424816,78.6786942 L65.8716485,78.4365483 L67.0907515,74.6268517 C89.8846425,81.9208968 99.0260452,73.7026714 91.4159925,54.8763096 C89.3210345,49.6942966 89.6433125,40.8993486 91.7335247,29.288974 C92.4647551,25.2272527 93.3964651,20.9393815 94.4819426,16.5240234 C95.3476055,13.0027971 96.2678852,9.57278889 97.1943734,6.33814281 L97.5420029,5.13451153 C97.7507758,4.41761123 97.9510908,3.74056192 98.1413397,3.10683734 L98.6297394,1.50244969 L98.9388073,0.515726772 Z" id="Stroke-114"/>
                            <path d="M0.1850015,153.534088 L2.1419985,150.045512 L2.85620174,150.434727 L3.51128674,150.782909 C4.50308988,151.305335 5.6321651,151.880908 6.88714027,152.498006 L7.43266178,152.764985 C11.6537624,154.821142 16.3218862,156.878362 21.3004212,158.797989 C32.7483158,163.212076 44.0600582,166.224884 54.584272,167.202241 C59.3535856,167.645156 63.8735301,167.656119 68.1063644,167.201856 L68.9490919,167.10479 L69.4379081,171.07481 C64.6629697,171.662733 59.5745075,171.682884 54.2143935,171.185103 C43.2765951,170.169337 31.6251616,167.066055 19.8613669,162.530163 C14.7706849,160.567294 9.99959664,158.464698 5.68097489,156.361037 L4.04785364,155.55429 C3.35348222,155.206284 2.70158001,154.872883 2.09423579,154.556252 L0.962732129,153.958187 L0.1850015,153.534088 Z" id="Stroke-122"/>
                        </g>
                        <path d="M78.6362,79.1289 C77.9112,79.1289 77.1852,78.8679 76.6092,78.3389 C76.5712,78.3049 71.6242,73.9129 64.4832,74.1789 C57.0942,74.4519 52.1892,78.0669 52.1402,78.1029 C50.8182,79.0929 48.9392,78.8329 47.9442,77.5169 C46.9472,76.1999 47.1962,74.3309 48.5082,73.3279 C48.7642,73.1319 54.8862,68.5299 64.2612,68.1829 C73.9102,67.8359 80.3942,73.6699 80.6652,73.9189 C81.8862,75.0389 81.9682,76.9369 80.8472,78.1569 C80.2562,78.8019 79.4472,79.1289 78.6362,79.1289" id="Fill-12" fill="#000"/>
                        <path d="M162.7539,88.2724 C162.0289,88.2724 161.3029,88.0114 160.7269,87.4824 C160.6889,87.4484 155.7419,83.0504 148.5999,83.3224 C141.2309,83.5944 136.3169,87.2014 136.2699,87.2374 C134.9529,88.2444 133.0699,87.9924 132.0639,86.6764 C131.0579,85.3604 131.3089,83.4774 132.6249,82.4714 C132.8809,82.2754 139.0039,77.6724 148.3789,77.3264 C158.0239,76.9814 164.5119,82.8134 164.7829,83.0624 C166.0039,84.1824 166.0859,86.0804 164.9649,87.3004 C164.3739,87.9454 163.5649,88.2724 162.7539,88.2724" id="Fill-14" fill="#000"/>
                    </g>
                </g>
                <g id="Hairstyle" transform="translate(564.000000, 411.000000) scale(1 1)">
                    <g id="Hairstyle/Wavy Short" stroke="none" stroke-width="1" fill="none" fill-rule="evenodd">
                        <path d="M687.077448,401.040627 C687.077448,382.303627 682.899448,358.579627 694.142448,349.211627 C705.384448,339.842627 729.742448,323.916627 715.689448,304.241627 C701.636448,284.567627 717.563448,246.156627 693.205448,241.473627 C668.846448,236.788627 667.819448,229.080627 661.261448,211.279627 C654.704448,193.479627 626.850448,207.551627 615.414448,198.565627 C604.626448,190.090627 591.728448,175.479627 561.861448,190.475627 C545.777448,198.550627 518.325448,167.166627 498.338448,211.493627 C485.520448,239.922627 471.958448,215.026627 453.410448,229.797627 C431.362448,247.353627 452.818448,273.014627 433.144448,286.129627 C413.470448,299.245627 430.604448,314.284627 423.526448,329.065627 C411.848448,353.453627 431.822448,439.149627 444.937448,446.643627 C458.054448,454.139627 464.838448,466.752627 464.838448,466.752627 C464.838448,466.752627 458.789448,446.209627 457.298448,427.470627 C457.298448,427.470627 447.160448,430.000627 441.627448,411.893627 C436.094448,393.786627 434.128448,362.926627 446.100448,359.450627 C458.072448,355.975627 460.310448,365.709627 460.310448,365.709627 C460.310448,365.709627 464.241448,380.626627 461.965448,392.004627 C459.689448,403.383627 467.085448,410.210627 471.067448,393.142627 C475.050448,376.074627 494.962448,375.506627 490.979448,352.180627 C486.997448,328.854627 494.962448,315.200627 510.892448,308.374627 C526.821448,301.547627 531.373448,266.843627 545.026448,270.256627 C558.681448,273.670627 574.041448,258.878627 595.091448,269.118627 C616.141448,279.359627 614.434448,293.582627 632.640448,296.995627 C650.845448,300.409627 660.516448,311.787627 660.516448,321.459627 C660.516448,331.130627 673.032448,334.544627 676.446448,348.197627 C679.859448,361.851627 676.868448,402.336627 669.727448,436.330627 C669.727448,436.330627 687.077448,419.777627 687.077448,401.040627 Z" id="Fill-1" fill="#c38741"/>
                    </g>
                </g>
                <g id="Accessories" transform="translate(1008.000000, 771.000000) scale(1 1)" fill="#000">
                    <g id="Accessories/None" stroke="none" stroke-width="1" fill="none" fill-rule="evenodd" fill-opacity="0"/>
                </g>
                <g id="Facial Hair" transform="translate(1018.000000, 772.000000) scale(1 1)">
                    <g id="Facial Hair/Goatee" stroke="none" stroke-width="1" fill="none" fill-rule="evenodd">
                        <path d="M118.312831,145.74 C120.213054,142.497394 122.718719,141.07125 125.829826,141.461568 C130.496486,142.047046 135.480363,154.935776 143.293079,162.082425 C148.501557,166.846857 155.245062,170.86903 163.523595,174.148944 C153.220087,198.594301 138.788703,210.835168 120.229443,210.871546 C98.5965623,210.913084 79.6861412,203.887566 64.9266788,174.588765 C52.9097585,150.734146 73.4724184,169.931644 100.472011,159.359301 C106.633949,156.946445 111.58201,151.984975 118.312831,145.74 Z" id="Path-11" fill="#c38741"/>
                    </g>
                </g>
            </g>
        </g>
    </g>
</svg>
