<svg viewBox="564.775 155.857 428.45 935.143" xmlns="http://www.w3.org/2000/svg" xmlns:xlink="http://www.w3.org/1999/xlink" overflow="visible">
    <defs>
        <path d="M28.559,8.356 C1.23,24.313 -7.989,59.403 7.968,86.732 L7.968,86.732 L45.121,150.361 C61.077,177.69 96.167,186.907 123.497,170.951 L123.497,170.951 C150.824,154.994 160.043,119.904 144.086,92.576 L144.086,92.576 L106.934,28.947 C96.282,10.704 77.101,0.531 57.397,0.529 L57.397,0.529 C47.585,0.529 37.645,3.051 28.559,8.356 L28.559,8.356 Z" id="masterstickerssmall-plant-2-path-1"/>
        <path d="M28.559,8.356 C1.23,24.313 -7.989,59.403 7.968,86.732 L7.968,86.732 L45.121,150.361 C61.077,177.69 96.167,186.907 123.497,170.951 L123.497,170.951 C150.824,154.994 160.043,119.904 144.086,92.576 L144.086,92.576 L106.934,28.947 C96.282,10.704 77.101,0.531 57.397,0.529 L57.397,0.529 C47.585,0.529 37.645,3.051 28.559,8.356 L28.559,8.356 Z" id="masterstickerssmall-plant-2-path-3"/>
        <path d="M28.559,8.356 C1.23,24.313 -7.989,59.403 7.968,86.732 L7.968,86.732 L45.121,150.361 C61.077,177.69 96.167,186.907 123.497,170.951 L123.497,170.951 C150.824,154.994 160.043,119.904 144.086,92.576 L144.086,92.576 L106.934,28.947 C96.282,10.704 77.101,0.531 57.397,0.529 L57.397,0.529 C47.585,0.529 37.645,3.051 28.559,8.356 L28.559,8.356 Z" id="masterstickerssmall-plant-2-path-5"/>
        <path d="M0.447,75.826 L0.447,651.65 C0.447,693.357 34.258,727.168 75.965,727.168 L75.965,727.168 C117.672,727.168 151.482,693.357 151.482,651.65 L151.482,651.65 L151.482,75.826 C151.482,34.118 117.672,0.308 75.965,0.308 L75.965,0.308 C34.258,0.308 0.447,34.118 0.447,75.826 L0.447,75.826 Z" id="masterstickerssmall-plant-2-path-9"/>
        <path d="M0.447,75.826 L0.447,651.65 C0.447,693.357 34.258,727.168 75.965,727.168 L75.965,727.168 C117.672,727.168 151.482,693.357 151.482,651.65 L151.482,651.65 L151.482,75.826 C151.482,34.118 117.672,0.308 75.965,0.308 L75.965,0.308 C34.258,0.308 0.447,34.118 0.447,75.826 L0.447,75.826 Z" id="masterstickerssmall-plant-2-path-11"/>
        <path d="M0.447,75.826 L0.447,651.65 C0.447,693.357 34.258,727.168 75.965,727.168 L75.965,727.168 C117.672,727.168 151.482,693.357 151.482,651.65 L151.482,651.65 L151.482,75.826 C151.482,34.118 117.672,0.308 75.965,0.308 L75.965,0.308 C34.258,0.308 0.447,34.118 0.447,75.826 L0.447,75.826 Z" id="masterstickerssmall-plant-2-path-13"/>
        <path d="M90.942,8.652 L27.814,46.65 C0.701,62.97 -8.049,98.179 8.271,125.292 L8.271,125.292 L8.271,125.293 C24.59,152.406 59.8,161.155 86.913,144.836 L86.913,144.836 L150.041,106.838 C177.154,90.518 185.904,55.308 169.585,28.195 L169.585,28.195 C158.83,10.327 139.876,0.434 120.438,0.435999697 L120.438,0.435999697 C110.379,0.435999697 100.187,3.087 90.942,8.652" id="masterstickerssmall-plant-2-path-17"/>
        <path d="M90.942,8.652 L27.814,46.65 C0.701,62.97 -8.049,98.179 8.271,125.292 L8.271,125.292 L8.271,125.293 C24.59,152.406 59.8,161.155 86.913,144.836 L86.913,144.836 L150.041,106.838 C177.154,90.518 185.904,55.308 169.585,28.195 L169.585,28.195 C158.83,10.327 139.876,0.434 120.438,0.435999697 L120.438,0.435999697 C110.379,0.435999697 100.187,3.087 90.942,8.652 L90.942,8.652 Z" id="masterstickerssmall-plant-2-path-19"/>
        <path d="M90.942,8.652 L27.814,46.65 C0.701,62.97 -8.049,98.179 8.271,125.292 L8.271,125.292 L8.271,125.293 C24.59,152.406 59.8,161.155 86.913,144.836 L86.913,144.836 L150.041,106.838 C177.154,90.518 185.904,55.308 169.585,28.195 L169.585,28.195 C158.83,10.327 139.876,0.434 120.438,0.435999697 L120.438,0.435999697 C110.379,0.435999697 100.187,3.087 90.942,8.652" id="masterstickerssmall-plant-2-path-21"/>
        <path d="M90.942,8.652 L27.814,46.65 C0.701,62.97 -8.049,98.179 8.271,125.292 L8.271,125.292 L8.271,125.293 C24.59,152.406 59.8,161.155 86.913,144.836 L86.913,144.836 L150.041,106.838 C177.154,90.518 185.904,55.308 169.585,28.195 L169.585,28.195 C158.83,10.327 139.876,0.434 120.438,0.435999697 L120.438,0.435999697 C110.379,0.435999697 100.187,3.087 90.942,8.652 L90.942,8.652 Z" id="masterstickerssmall-plant-2-path-23"/>
        <path d="M90.942,8.652 L27.814,46.65 C0.701,62.97 -8.049,98.179 8.271,125.292 L8.271,125.292 L8.271,125.293 C24.59,152.406 59.8,161.155 86.913,144.836 L86.913,144.836 L150.041,106.838 C177.154,90.518 185.904,55.308 169.585,28.195 L169.585,28.195 C158.83,10.327 139.876,0.434 120.438,0.435999697 L120.438,0.435999697 C110.379,0.435999697 100.187,3.087 90.942,8.652" id="masterstickerssmall-plant-2-path-25"/>
        <path d="M90.942,8.652 L27.814,46.65 C0.701,62.97 -8.049,98.179 8.271,125.292 L8.271,125.292 L8.271,125.293 C24.59,152.406 59.8,161.155 86.913,144.836 L86.913,144.836 L150.041,106.838 C177.154,90.518 185.904,55.308 169.585,28.195 L169.585,28.195 C158.83,10.327 139.876,0.434 120.438,0.435999697 L120.438,0.435999697 C110.379,0.435999697 100.187,3.087 90.942,8.652 L90.942,8.652 Z" id="masterstickerssmall-plant-2-path-27"/>
        <polygon id="masterstickerssmall-plant-2-path-7" points="0 0.980190514 38.2086238 0.980190514 38.2086238 15.5044 0 15.5044"/>
        <polygon id="masterstickerssmall-plant-2-path-15" points="0.59098705 0.529 37.6686084 0.529 37.6686084 40.5845 0.59098705 40.5845"/>
        <polygon id="masterstickerssmall-plant-2-path-29" points="0.7123 0.6973 336.0893 0.6973 336.0893 260 0.7123 260"/>
    </defs>
    <g id="Master/Stickers/Small Plant 2" stroke="none" stroke-width="1" fill="none" fill-rule="evenodd">
        <g id="Group-109" transform="translate(580.000000, 161.000000)">
            <g id="Group-9" transform="translate(12.000000, 173.471000)">
                <path d="M137.3002,228.6592 C136.6132,228.6592 135.9302,228.3822 135.4312,227.8362 L103.4182,192.8452 C102.4742,191.8132 102.5452,190.2112 103.5762,189.2672 C104.6112,188.3232 106.2122,188.3952 107.1552,189.4262 L139.1672,224.4172 C140.1122,225.4492 140.0402,227.0512 139.0092,227.9952 C138.5232,228.4392 137.9102,228.6592 137.3002,228.6592" id="Fill-1" fill="#0A4343"/>
                <path d="M138.7894,41.0493 C138.1024,41.0493 137.4194,40.7723 136.9204,40.2263 L104.9074,5.2353 C103.9634,4.2033 104.0344,2.6013 105.0654,1.6573 C106.1004,0.7133 107.7014,0.7853 108.6444,1.8163 L140.6564,36.8073 C141.6014,37.8393 141.5294,39.4413 140.4984,40.3853 C140.0124,40.8293 139.3994,41.0493 138.7894,41.0493" id="Fill-3" fill="#0A4343"/>
                <path d="M135.8119,308.0723 C135.1249,308.0723 134.4419,307.7953 133.9429,307.2493 L101.9299,272.2583 C100.9859,271.2263 101.0569,269.6243 102.0879,268.6803 C103.1229,267.7363 104.7239,267.8083 105.6669,268.8393 L137.6789,303.8303 C138.6239,304.8623 138.5519,306.4643 137.5209,307.4083 C137.0349,307.8523 136.4219,308.0723 135.8119,308.0723" id="Fill-5" fill="#0A4343"/>
                <path d="M123.2474,208.9912 L123.2474,208.9912 C150.5764,193.0342 159.7944,157.9442 143.8384,130.6162 L107.4914,68.3672 C91.5344,41.0392 56.4444,31.8212 29.1164,47.7772 L29.1164,47.7782 C1.7874,63.7342 -7.4306,98.8242 8.5254,126.1532 L44.8724,188.4012 C60.8294,215.7292 95.9194,224.9482 123.2474,208.9912" id="Fill-7" fill="#237978"/>
            </g>
            <g id="Group-19" transform="translate(12.000000, 211.471000)">
                <g id="Group-12">
                    <mask id="masterstickerssmall-plant-2-mask-2" fill="#fff">
                        <use xlink:href="#masterstickerssmall-plant-2-path-1"/>
                    </mask>
                    <g id="Clip-11"/>
                    <polygon id="Fill-10" fill="#0A4343" mask="url(#masterstickerssmall-plant-2-mask-2)" points="149.2094 157.939 57.4424 -6.01 59.4014 -7.106 151.1684 156.842"/>
                </g>
                <g id="Group-15">
                    <mask id="masterstickerssmall-plant-2-mask-4" fill="#fff">
                        <use xlink:href="#masterstickerssmall-plant-2-path-3"/>
                    </mask>
                    <g id="Clip-14"/>
                    <polygon id="Fill-13" fill="#0A4343" mask="url(#masterstickerssmall-plant-2-mask-4)" points="124.9603 177.5073 29.5133 7.2563 31.5093 6.1363 126.9563 176.3883"/>
                </g>
                <g id="Group-18">
                    <mask id="masterstickerssmall-plant-2-mask-6" fill="#fff">
                        <use xlink:href="#masterstickerssmall-plant-2-path-5"/>
                    </mask>
                    <g id="Clip-17"/>
                    <polygon id="Fill-16" fill="#0A4343" mask="url(#masterstickerssmall-plant-2-mask-6)" points="96.7221 192.981 1.2751 22.73 3.2711 21.61 98.7181 191.862"/>
                </g>
            </g>
            <g id="Group-35" transform="translate(0.000000, 15.471000)">
                <path d="M75.7797,348.4438 C75.5907,348.4438 75.3977,348.4158 75.2087,348.3568 L40.8447,337.6768 C39.8317,337.3618 39.2647,336.2848 39.5807,335.2718 C39.8947,334.2568 40.9757,333.6918 41.9857,334.0068 L76.3487,344.6868 C77.3627,345.0018 77.9287,346.0778 77.6137,347.0918 C77.3577,347.9158 76.5987,348.4438 75.7797,348.4438" id="Fill-20" fill="#0A4343"/>
                <path d="M151.2377,315.8086 C151.1027,315.8086 150.9667,315.7946 150.8307,315.7656 C149.7937,315.5416 149.1337,314.5186 149.3577,313.4816 L156.9457,278.3066 C157.1707,277.2676 158.1917,276.6116 159.2297,276.8326 C160.2667,277.0566 160.9267,278.0796 160.7037,279.1166 L153.1137,314.2916 C152.9197,315.1926 152.1237,315.8086 151.2377,315.8086" id="Fill-22" fill="#0A4343"/>
                <path d="M86.8422,248.0933 C86.7072,248.0933 86.5712,248.0793 86.4352,248.0503 C85.3982,247.8263 84.7382,246.8033 84.9612,245.7663 L92.5512,210.5913 C92.7752,209.5523 93.7962,208.8963 94.8342,209.1173 C95.8712,209.3413 96.5312,210.3643 96.3072,211.4013 L88.7192,246.5763 C88.5242,247.4773 87.7282,248.0933 86.8422,248.0933" id="Fill-24" fill="#0A4343"/>
                <path d="M49.2601,222.9395 C49.1251,222.9395 48.9891,222.9255 48.8531,222.8965 C47.8161,222.6725 47.1561,221.6495 47.3801,220.6125 L54.9701,185.4365 C55.1941,184.3985 56.2231,183.7425 57.2531,183.9635 C58.2901,184.1875 58.9501,185.2095 58.7261,186.2475 L51.1361,221.4225 C50.9421,222.3235 50.1461,222.9395 49.2601,222.9395" id="Fill-26" fill="#0A4343"/>
                <path d="M95.7641,297.5273 C95.5751,297.5273 95.3821,297.4993 95.1931,297.4403 L60.8291,286.7593 C59.8161,286.4443 59.2491,285.3683 59.5651,284.3543 C59.8801,283.3403 60.9591,282.7753 61.9701,283.0893 L96.3331,293.7703 C97.3471,294.0853 97.9131,295.1613 97.5981,296.1753 C97.3421,296.9993 96.5831,297.5273 95.7641,297.5273" id="Fill-28" fill="#0A4343"/>
                <g id="Group-32" transform="translate(0.000000, 246.000000)">
                    <mask id="masterstickerssmall-plant-2-mask-8" fill="#fff">
                        <use xlink:href="#masterstickerssmall-plant-2-path-7"/>
                    </mask>
                    <g id="Clip-31"/>
                    <path d="M36.2875,15.5044 C36.0985,15.5044 35.9055,15.4764 35.7165,15.4174 L1.3515,4.7374 C0.3385,4.4224 -0.2285,3.3454 0.0875,2.3324 C0.4015,1.3174 1.4825,0.7524 2.4925,1.0674 L36.8565,11.7474 C37.8705,12.0624 38.4365,13.1384 38.1215,14.1524 C37.8655,14.9764 37.1065,15.5044 36.2875,15.5044" id="Fill-30" fill="#0A4343" mask="url(#masterstickerssmall-plant-2-mask-8)"/>
                </g>
                <path d="M204.2748,727.1562 L204.2748,727.1562 C162.5678,727.1562 128.7568,693.3452 128.7568,651.6382 L128.7568,75.8142 C128.7568,34.1072 162.5678,0.2962 204.2748,0.2962 C245.9828,0.2962 279.7938,34.1072 279.7938,75.8142 L279.7938,651.6382 C279.7938,693.3452 245.9828,727.1562 204.2748,727.1562" id="Fill-33" fill="#237978"/>
            </g>
            <g id="Group-45" transform="translate(127.000000, 14.471000)">
                <g id="Group-38">
                    <mask id="masterstickerssmall-plant-2-mask-10" fill="#fff">
                        <use xlink:href="#masterstickerssmall-plant-2-path-9"/>
                    </mask>
                    <g id="Clip-37"/>
                    <polygon id="Fill-36" fill="#0A4343" mask="url(#masterstickerssmall-plant-2-mask-10)" points="35.0424 731.0054 30.5334 5.8054 35.5984 5.7744 40.1064 730.9744"/>
                </g>
                <g id="Group-41">
                    <mask id="masterstickerssmall-plant-2-mask-12" fill="#fff">
                        <use xlink:href="#masterstickerssmall-plant-2-path-11"/>
                    </mask>
                    <g id="Clip-40"/>
                    <polygon id="Fill-39" fill="#0A4343" mask="url(#masterstickerssmall-plant-2-mask-12)" points="75.5668 749.0381 71.0588 -4.3379 76.2208 -4.3699 80.7288 749.0071"/>
                </g>
                <g id="Group-44">
                    <mask id="masterstickerssmall-plant-2-mask-14" fill="#fff">
                        <use xlink:href="#masterstickerssmall-plant-2-path-13"/>
                    </mask>
                    <g id="Clip-43"/>
                    <polygon id="Fill-42" fill="#0A4343" mask="url(#masterstickerssmall-plant-2-mask-14)" points="117.9886 745.6567 113.4806 -7.7193 118.6426 -7.7503 123.1506 745.6257"/>
                </g>
            </g>
            <g id="Group-69" transform="translate(144.000000, 0.471000)">
                <path d="M35.0804,94.1875 C34.3934,94.1875 33.7104,93.9105 33.2114,93.3645 L1.1974,58.3735 C0.2534,57.3415 0.3244,55.7395 1.3554,54.7955 C2.3894,53.8515 3.9914,53.9235 4.9344,54.9545 L36.9474,89.9455 C37.8924,90.9775 37.8204,92.5795 36.7894,93.5235 C36.3034,93.9675 35.6904,94.1875 35.0804,94.1875" id="Fill-46" fill="#0A4343"/>
                <g id="Group-50" transform="translate(26.000000, 0.000000)">
                    <mask id="masterstickerssmall-plant-2-mask-16" fill="#fff">
                        <use xlink:href="#masterstickerssmall-plant-2-path-15"/>
                    </mask>
                    <g id="Clip-49"/>
                    <path d="M35.1371,40.5845 C34.4501,40.5845 33.7671,40.3075 33.2681,39.7615 L1.2551,4.7705 C0.3111,3.7385 0.3821,2.1365 1.4131,1.1925 C2.4481,0.2485 4.0501,0.3205 4.9911,1.3515 L37.0041,36.3425 C37.9491,37.3745 37.8771,38.9765 36.8461,39.9205 C36.3601,40.3645 35.7471,40.5845 35.1371,40.5845" id="Fill-48" fill="#0A4343" mask="url(#masterstickerssmall-plant-2-mask-16)"/>
                </g>
                <path d="M56.0531,374.4751 C55.3661,374.4751 54.6831,374.1981 54.1841,373.6521 L22.1711,338.6611 C21.2271,337.6291 21.2981,336.0271 22.3291,335.0831 C23.3641,334.1391 24.9651,334.2111 25.9071,335.2421 L57.9201,370.2331 C58.8651,371.2651 58.7931,372.8671 57.7621,373.8111 C57.2761,374.2551 56.6631,374.4751 56.0531,374.4751" id="Fill-51" fill="#0A4343"/>
                <path d="M88.3256,435.6548 C87.7156,435.6548 87.1026,435.4348 86.6166,434.9908 C85.5856,434.0468 85.5136,432.4448 86.4586,431.4128 L118.4716,396.4218 C119.4146,395.3908 121.0156,395.3188 122.0506,396.2628 C123.0816,397.2068 123.1526,398.8088 122.2086,399.8408 L90.1946,434.8318 C89.6956,435.3778 89.0126,435.6548 88.3256,435.6548" id="Fill-53" fill="#0A4343"/>
                <path d="M105.3724,198.8848 C104.7624,198.8848 104.1494,198.6648 103.6634,198.2208 C102.6324,197.2768 102.5604,195.6748 103.5054,194.6428 L135.5184,159.6518 C136.4594,158.6208 138.0614,158.5488 139.0964,159.4928 C140.1274,160.4368 140.1984,162.0388 139.2544,163.0708 L107.2414,198.0618 C106.7424,198.6078 106.0594,198.8848 105.3724,198.8848" id="Fill-55" fill="#0A4343"/>
                <path d="M58.5463,128.1826 C57.9363,128.1826 57.3233,127.9626 56.8373,127.5186 C55.8063,126.5746 55.7343,124.9726 56.6793,123.9406 L88.6923,88.9496 C89.6353,87.9176 91.2363,87.8456 92.2713,88.7906 C93.3023,89.7346 93.3733,91.3366 92.4293,92.3686 L60.4153,127.3596 C59.9163,127.9056 59.2333,128.1826 58.5463,128.1826" id="Fill-57" fill="#0A4343"/>
                <path d="M55.9672,266.8506 C55.3572,266.8506 54.7442,266.6306 54.2582,266.1866 C53.2272,265.2426 53.1552,263.6406 54.1002,262.6086 L86.1132,227.6176 C87.0552,226.5856 88.6562,226.5136 89.6912,227.4576 C90.7222,228.4026 90.7932,230.0046 89.8492,231.0366 L57.8362,266.0276 C57.3372,266.5736 56.6542,266.8506 55.9672,266.8506" id="Fill-59" fill="#0A4343"/>
                <path d="M112.3802,328.9048 C111.7702,328.9048 111.1572,328.6848 110.6712,328.2408 C109.6402,327.2968 109.5682,325.6948 110.5132,324.6628 L142.5262,289.6718 C143.4682,288.6408 145.0692,288.5688 146.1042,289.5128 C147.1352,290.4568 147.2062,292.0588 146.2622,293.0908 L114.2492,328.0818 C113.7502,328.6278 113.0672,328.9048 112.3802,328.9048" id="Fill-61" fill="#0A4343"/>
                <path d="M72.7513,572.4966 C72.7513,572.4966 83.6113,626.7996 135.3803,652.1406 L135.7413,605.4396 L72.7513,572.4966 Z" id="Fill-63" fill="#0A4343"/>
                <path d="M77.5316,580.502 L77.5316,580.502 C61.2126,553.389 69.9616,518.179 97.0746,501.859 L158.8326,464.686 C185.9456,448.366 221.1556,457.116 237.4756,484.229 C253.7956,511.342 245.0466,546.552 217.9326,562.872 L156.1756,600.045 C129.0616,616.365 93.8516,607.615 77.5316,580.502" id="Fill-65" fill="#237978"/>
                <path d="M77.2709,581.293 L77.2709,581.293 C60.9509,554.179 69.7009,518.97 96.8139,502.65 L159.9419,464.652 C187.0549,448.332 222.2649,457.082 238.5839,484.195 C254.9049,511.309 246.1549,546.518 219.0419,562.838 L155.9139,600.836 C128.7999,617.156 93.5899,608.406 77.2709,581.293" id="Fill-67" fill="#237978"/>
            </g>
            <g id="Group-88" transform="translate(213.000000, 456.471000)">
                <g id="Group-72">
                    <mask id="masterstickerssmall-plant-2-mask-18" fill="#fff">
                        <use xlink:href="#masterstickerssmall-plant-2-path-17"/>
                    </mask>
                    <g id="Clip-71"/>
                    <line x1="150.54" y1=".78" x2="-8.642" y2="100.587" id="Fill-70" fill="#F52936" mask="url(#masterstickerssmall-plant-2-mask-18)"/>
                </g>
                <g id="Group-75">
                    <mask id="masterstickerssmall-plant-2-mask-20" fill="#fff">
                        <use xlink:href="#masterstickerssmall-plant-2-path-19"/>
                    </mask>
                    <g id="Clip-74"/>
                    <polygon id="Fill-73" fill="#0A4343" mask="url(#masterstickerssmall-plant-2-mask-20)" points="-8.0446 101.5381 -9.2376 99.6361 149.9434 -0.1709 151.1374 1.7311"/>
                </g>
                <g id="Group-78">
                    <mask id="masterstickerssmall-plant-2-mask-22" fill="#fff">
                        <use xlink:href="#masterstickerssmall-plant-2-path-21"/>
                    </mask>
                    <g id="Clip-77"/>
                    <line x1="168.668" y1="25.802" x2="3.232" y2="129.373" id="Fill-76" fill="#F52936" mask="url(#masterstickerssmall-plant-2-mask-22)"/>
                </g>
                <g id="Group-81">
                    <mask id="masterstickerssmall-plant-2-mask-24" fill="#fff">
                        <use xlink:href="#masterstickerssmall-plant-2-path-23"/>
                    </mask>
                    <g id="Clip-80"/>
                    <polygon id="Fill-79" fill="#0A4343" mask="url(#masterstickerssmall-plant-2-mask-24)" points="3.8402 130.3428 2.6252 128.4028 168.0612 24.8318 169.2762 26.7718"/>
                </g>
                <g id="Group-84">
                    <mask id="masterstickerssmall-plant-2-mask-26" fill="#fff">
                        <use xlink:href="#masterstickerssmall-plant-2-path-25"/>
                    </mask>
                    <g id="Clip-83"/>
                    <line x1="186.018" y1="52.928" x2="20.582" y2="156.499" id="Fill-82" fill="#F52936" mask="url(#masterstickerssmall-plant-2-mask-26)"/>
                </g>
                <g id="Group-87">
                    <mask id="masterstickerssmall-plant-2-mask-28" fill="#fff">
                        <use xlink:href="#masterstickerssmall-plant-2-path-27"/>
                    </mask>
                    <g id="Clip-86"/>
                    <polygon id="Fill-85" fill="#0A4343" mask="url(#masterstickerssmall-plant-2-mask-28)" points="21.1898 157.4688 19.9748 155.5288 185.4108 51.9578 186.6258 53.8978"/>
                </g>
            </g>
            <g id="Group-108" transform="translate(28.000000, 251.471000)">
                <path d="M290.7426,350.0654 C290.6166,350.0654 290.4886,350.0534 290.3606,350.0274 L255.0876,342.9074 C254.0466,342.6974 253.3736,341.6844 253.5836,340.6434 C253.7936,339.6044 254.8126,338.9324 255.8466,339.1404 L291.1206,346.2594 C292.1616,346.4694 292.8346,347.4834 292.6246,348.5234 C292.4396,349.4354 291.6386,350.0654 290.7426,350.0654" id="Fill-89" fill="#0A4343"/>
                <path d="M136.9965,248.9941 C136.8155,248.9941 136.6325,248.9681 136.4495,248.9141 C135.4325,248.6131 134.8515,247.5431 135.1525,246.5261 L145.3735,212.0231 C145.6755,211.0061 146.7395,210.4241 147.7625,210.7271 C148.7795,211.0281 149.3595,212.0981 149.0595,213.1151 L138.8385,247.6181 C138.5905,248.4531 137.8255,248.9941 136.9965,248.9941" id="Fill-91" fill="#0A4343"/>
                <path d="M293.9154,249.5962 C293.7344,249.5962 293.5514,249.5702 293.3684,249.5162 C292.3514,249.2152 291.7704,248.1452 292.0714,247.1282 L302.2924,212.6252 C302.5944,211.6072 303.6564,211.0262 304.6814,211.3282 C305.6984,211.6302 306.2784,212.6992 305.9784,213.7172 L295.7574,248.2202 C295.5094,249.0552 294.7444,249.5962 293.9154,249.5962" id="Fill-93" fill="#0A4343"/>
                <path d="M338.9584,245.5605 C338.7774,245.5605 338.5944,245.5345 338.4114,245.4805 C337.3944,245.1795 336.8134,244.1095 337.1144,243.0925 L347.3344,208.5895 C347.6364,207.5725 348.7034,206.9895 349.7234,207.2935 C350.7404,207.5945 351.3204,208.6645 351.0204,209.6815 L340.8004,244.1845 C340.5524,245.0195 339.7874,245.5605 338.9584,245.5605" id="Fill-95" fill="#0A4343"/>
                <path d="M297.641,295.8042 C297.515,295.8042 297.387,295.7922 297.259,295.7662 L261.986,288.6462 C260.945,288.4362 260.272,287.4232 260.482,286.3822 C260.693,285.3432 261.709,284.6702 262.745,284.8792 L298.019,291.9982 C299.06,292.2082 299.733,293.2222 299.523,294.2622 C299.338,295.1742 298.537,295.8042 297.641,295.8042" id="Fill-97" fill="#0A4343"/>
                <path d="M367.1088,292.7388 C366.9828,292.7388 366.8548,292.7268 366.7268,292.7008 L331.4538,285.5818 C330.4128,285.3718 329.7398,284.3578 329.9498,283.3178 C330.1598,282.2778 331.1778,281.6058 332.2128,281.8138 L367.4868,288.9328 C368.5278,289.1428 369.2008,290.1568 368.9908,291.1968 C368.8058,292.1088 368.0048,292.7388 367.1088,292.7388" id="Fill-99" fill="#0A4343"/>
                <path d="M97.7396,0.9751 L77.9266,138.7541 C77.9266,138.7541 86.3716,140.4931 100.7776,134.0351 L100.7776,5.6161 L97.7396,0.9751 Z" id="Fill-101" fill="#0A4343"/>
                <g id="Group-105" transform="translate(11.000000, 418.000000)">
                    <mask id="masterstickerssmall-plant-2-mask-30" fill="#fff">
                        <use xlink:href="#masterstickerssmall-plant-2-path-29"/>
                    </mask>
                    <g id="Clip-104"/>
                    <polygon id="Fill-103" fill="#F9DC4A" mask="url(#masterstickerssmall-plant-2-mask-30)" points="0.7123 0.6973 31.0443 259.9973 309.3673 260.0003 336.0893 0.9333"/>
                </g>
                <polygon id="Fill-106" fill="#F9C818" points="0.1 414.4956 9.5 485.8226 350.652 486.9286 360.052 413.9426"/>
            </g>
        </g>
    </g>
</svg>
