<svg viewBox="0 387.99 7946 3084.021" xmlns="http://www.w3.org/2000/svg" xmlns:xlink="http://www.w3.org/1999/xlink" overflow="visible">
    <defs>
        <path d="M93.974,96.793 C60.909,129.859 0,353.482 0,353.482 L0,353.482 C0,353.482 107.896,377.845 180.987,361.313 L180.987,361.313 L187.078,337.82 L151.061,674.939 C151.061,674.939 407.503,721.041 629.367,649.006 L629.367,649.006 L642.334,352.227 C642.334,352.227 727.333,359.431 784.961,347.905 L784.961,347.905 C784.961,347.905 728.774,131.802 674.028,88.582 L674.028,88.582 C619.283,45.362 483.635,9.766 483.635,9.766 L483.635,9.766 C483.635,9.766 474.786,55.091 387.616,51.078 L387.616,51.078 C323.951,48.147 298.756,12.626 289.15,0.575 L289.15,0.575 C289.15,0.575 127.04,63.728 93.974,96.793" id="masterscenemovie-night-path-1"/>
        <path d="M93.974,96.793 C60.909,129.859 0,353.482 0,353.482 L0,353.482 C0,353.482 107.896,377.845 180.987,361.313 L180.987,361.313 L187.078,337.82 L151.061,674.939 C151.061,674.939 407.503,721.041 629.367,649.006 L629.367,649.006 L642.334,352.227 C642.334,352.227 727.333,359.431 784.961,347.905 L784.961,347.905 C784.961,347.905 728.774,131.802 674.028,88.582 L674.028,88.582 C619.283,45.362 483.635,9.766 483.635,9.766 L483.635,9.766 C483.635,9.766 474.786,55.091 387.616,51.078 L387.616,51.078 C323.951,48.147 298.756,12.626 289.15,0.575 L289.15,0.575 C289.15,0.575 127.04,63.728 93.974,96.793" id="masterscenemovie-night-path-3"/>
        <path d="M93.974,96.793 C60.909,129.859 0,353.482 0,353.482 L0,353.482 C0,353.482 107.896,377.845 180.987,361.313 L180.987,361.313 L187.078,337.82 L151.061,674.939 C151.061,674.939 407.503,721.041 629.367,649.006 L629.367,649.006 L642.334,352.227 C642.334,352.227 727.333,359.431 784.961,347.905 L784.961,347.905 C784.961,347.905 728.774,131.802 674.028,88.582 L674.028,88.582 C619.283,45.362 483.635,9.766 483.635,9.766 L483.635,9.766 C483.635,9.766 474.786,55.091 387.616,51.078 L387.616,51.078 C323.951,48.147 298.756,12.626 289.15,0.575 L289.15,0.575 C289.15,0.575 127.04,63.728 93.974,96.793" id="masterscenemovie-night-path-5"/>
        <path d="M93.974,96.793 C60.909,129.859 0,353.482 0,353.482 L0,353.482 C0,353.482 107.896,377.845 180.987,361.313 L180.987,361.313 L187.078,337.82 L151.061,674.939 C151.061,674.939 407.503,721.041 629.367,649.006 L629.367,649.006 L642.334,352.227 C642.334,352.227 727.333,359.431 784.961,347.905 L784.961,347.905 C784.961,347.905 728.774,131.802 674.028,88.582 L674.028,88.582 C619.283,45.362 483.635,9.766 483.635,9.766 L483.635,9.766 C483.635,9.766 474.786,55.091 387.616,51.078 L387.616,51.078 C323.951,48.147 298.756,12.626 289.15,0.575 L289.15,0.575 C289.15,0.575 127.04,63.728 93.974,96.793" id="masterscenemovie-night-path-7"/>
        <path d="M93.974,96.793 C60.909,129.859 0,353.482 0,353.482 L0,353.482 C0,353.482 107.896,377.845 180.987,361.313 L180.987,361.313 L187.078,337.82 L151.061,674.939 C151.061,674.939 407.503,721.041 629.367,649.006 L629.367,649.006 L642.334,352.227 C642.334,352.227 727.333,359.431 784.961,347.905 L784.961,347.905 C784.961,347.905 728.774,131.802 674.028,88.582 L674.028,88.582 C619.283,45.362 483.635,9.766 483.635,9.766 L483.635,9.766 C483.635,9.766 474.786,55.091 387.616,51.078 L387.616,51.078 C323.951,48.147 298.756,12.626 289.15,0.575 L289.15,0.575 C289.15,0.575 127.04,63.728 93.974,96.793" id="masterscenemovie-night-path-9"/>
        <path d="M93.974,96.793 C60.909,129.859 0,353.482 0,353.482 L0,353.482 C0,353.482 107.896,377.845 180.987,361.313 L180.987,361.313 L187.078,337.82 L151.061,674.939 C151.061,674.939 407.503,721.041 629.367,649.006 L629.367,649.006 L642.334,352.227 C642.334,352.227 727.333,359.431 784.961,347.905 L784.961,347.905 C784.961,347.905 728.774,131.802 674.028,88.582 L674.028,88.582 C619.283,45.362 483.635,9.766 483.635,9.766 L483.635,9.766 C483.635,9.766 474.786,55.091 387.616,51.078 L387.616,51.078 C323.951,48.147 298.756,12.626 289.15,0.575 L289.15,0.575 C289.15,0.575 127.04,63.728 93.974,96.793" id="masterscenemovie-night-path-11"/>
        <path d="M93.974,96.793 C60.909,129.859 0,353.482 0,353.482 L0,353.482 C0,353.482 107.896,377.845 180.987,361.313 L180.987,361.313 L187.078,337.82 L151.061,674.939 C151.061,674.939 407.503,721.041 629.367,649.006 L629.367,649.006 L642.334,352.227 C642.334,352.227 727.333,359.431 784.961,347.905 L784.961,347.905 C784.961,347.905 728.774,131.802 674.028,88.582 L674.028,88.582 C619.283,45.362 483.635,9.766 483.635,9.766 L483.635,9.766 C483.635,9.766 474.786,55.091 387.616,51.078 L387.616,51.078 C323.951,48.147 298.756,12.626 289.15,0.575 L289.15,0.575 C289.15,0.575 127.04,63.728 93.974,96.793" id="masterscenemovie-night-path-13"/>
        <path d="M93.974,96.793 C60.909,129.859 0,353.482 0,353.482 L0,353.482 C0,353.482 107.896,377.845 180.987,361.313 L180.987,361.313 L187.078,337.82 L151.061,674.939 C151.061,674.939 407.503,721.041 629.367,649.006 L629.367,649.006 L642.334,352.227 C642.334,352.227 727.333,359.431 784.961,347.905 L784.961,347.905 C784.961,347.905 728.774,131.802 674.028,88.582 L674.028,88.582 C619.283,45.362 483.635,9.766 483.635,9.766 L483.635,9.766 C483.635,9.766 474.786,55.091 387.616,51.078 L387.616,51.078 C323.951,48.147 298.756,12.626 289.15,0.575 L289.15,0.575 C289.15,0.575 127.04,63.728 93.974,96.793" id="masterscenemovie-night-path-15"/>
        <path d="M93.974,96.793 C60.909,129.859 0,353.482 0,353.482 L0,353.482 C0,353.482 107.896,377.845 180.987,361.313 L180.987,361.313 L187.078,337.82 L151.061,674.939 C151.061,674.939 407.503,721.041 629.367,649.006 L629.367,649.006 L642.334,352.227 C642.334,352.227 727.333,359.431 784.961,347.905 L784.961,347.905 C784.961,347.905 728.774,131.802 674.028,88.582 L674.028,88.582 C619.283,45.362 483.635,9.766 483.635,9.766 L483.635,9.766 C483.635,9.766 474.786,55.091 387.616,51.078 L387.616,51.078 C323.951,48.147 298.756,12.626 289.15,0.575 L289.15,0.575 C289.15,0.575 127.04,63.728 93.974,96.793" id="masterscenemovie-night-path-17"/>
        <path d="M93.974,96.793 C60.909,129.859 0,353.482 0,353.482 L0,353.482 C0,353.482 107.896,377.845 180.987,361.313 L180.987,361.313 L187.078,337.82 L151.061,674.939 C151.061,674.939 407.503,721.041 629.367,649.006 L629.367,649.006 L642.334,352.227 C642.334,352.227 727.333,359.431 784.961,347.905 L784.961,347.905 C784.961,347.905 728.774,131.802 674.028,88.582 L674.028,88.582 C619.283,45.362 483.635,9.766 483.635,9.766 L483.635,9.766 C483.635,9.766 474.786,55.091 387.616,51.078 L387.616,51.078 C323.951,48.147 298.756,12.626 289.15,0.575 L289.15,0.575 C289.15,0.575 127.04,63.728 93.974,96.793" id="masterscenemovie-night-path-19"/>
        <path d="M93.974,96.793 C60.909,129.859 0,353.482 0,353.482 L0,353.482 C0,353.482 107.896,377.845 180.987,361.313 L180.987,361.313 L187.078,337.82 L151.061,674.939 C151.061,674.939 407.503,721.041 629.367,649.006 L629.367,649.006 L642.334,352.227 C642.334,352.227 727.333,359.431 784.961,347.905 L784.961,347.905 C784.961,347.905 728.774,131.802 674.028,88.582 L674.028,88.582 C619.283,45.362 483.635,9.766 483.635,9.766 L483.635,9.766 C483.635,9.766 474.786,55.091 387.616,51.078 L387.616,51.078 C323.951,48.147 298.756,12.626 289.15,0.575 L289.15,0.575 C289.15,0.575 127.04,63.728 93.974,96.793" id="masterscenemovie-night-path-21"/>
        <path d="M93.974,96.793 C60.909,129.859 0,353.482 0,353.482 L0,353.482 C0,353.482 107.896,377.845 180.987,361.313 L180.987,361.313 L187.078,337.82 L151.061,674.939 C151.061,674.939 407.503,721.041 629.367,649.006 L629.367,649.006 L642.334,352.227 C642.334,352.227 727.333,359.431 784.961,347.905 L784.961,347.905 C784.961,347.905 728.774,131.802 674.028,88.582 L674.028,88.582 C619.283,45.362 483.635,9.766 483.635,9.766 L483.635,9.766 C483.635,9.766 474.786,55.091 387.616,51.078 L387.616,51.078 C323.951,48.147 298.756,12.626 289.15,0.575 L289.15,0.575 C289.15,0.575 127.04,63.728 93.974,96.793" id="masterscenemovie-night-path-23"/>
        <path d="M93.974,96.793 C60.909,129.859 0,353.482 0,353.482 L0,353.482 C0,353.482 107.896,377.845 180.987,361.313 L180.987,361.313 L187.078,337.82 L151.061,674.939 C151.061,674.939 407.503,721.041 629.367,649.006 L629.367,649.006 L642.334,352.227 C642.334,352.227 727.333,359.431 784.961,347.905 L784.961,347.905 C784.961,347.905 728.774,131.802 674.028,88.582 L674.028,88.582 C619.283,45.362 483.635,9.766 483.635,9.766 L483.635,9.766 C483.635,9.766 474.786,55.091 387.616,51.078 L387.616,51.078 C323.951,48.147 298.756,12.626 289.15,0.575 L289.15,0.575 C289.15,0.575 127.04,63.728 93.974,96.793" id="masterscenemovie-night-path-25"/>
        <path d="M93.974,96.793 C60.909,129.859 0,353.482 0,353.482 L0,353.482 C0,353.482 107.896,377.845 180.987,361.313 L180.987,361.313 L187.078,337.82 L151.061,674.939 C151.061,674.939 407.503,721.041 629.367,649.006 L629.367,649.006 L642.334,352.227 C642.334,352.227 727.333,359.431 784.961,347.905 L784.961,347.905 C784.961,347.905 728.774,131.802 674.028,88.582 L674.028,88.582 C619.283,45.362 483.635,9.766 483.635,9.766 L483.635,9.766 C483.635,9.766 474.786,55.091 387.616,51.078 L387.616,51.078 C323.951,48.147 298.756,12.626 289.15,0.575 L289.15,0.575 C289.15,0.575 127.04,63.728 93.974,96.793" id="masterscenemovie-night-path-27"/>
        <path d="M93.974,96.793 C60.909,129.859 0,353.482 0,353.482 L0,353.482 C0,353.482 107.896,377.845 180.987,361.313 L180.987,361.313 L187.078,337.82 L151.061,674.939 C151.061,674.939 407.503,721.041 629.367,649.006 L629.367,649.006 L642.334,352.227 C642.334,352.227 727.333,359.431 784.961,347.905 L784.961,347.905 C784.961,347.905 728.774,131.802 674.028,88.582 L674.028,88.582 C619.283,45.362 483.635,9.766 483.635,9.766 L483.635,9.766 C483.635,9.766 474.786,55.091 387.616,51.078 L387.616,51.078 C323.951,48.147 298.756,12.626 289.15,0.575 L289.15,0.575 C289.15,0.575 127.04,63.728 93.974,96.793" id="masterscenemovie-night-path-29"/>
        <path d="M93.974,96.793 C60.909,129.859 0,353.482 0,353.482 L0,353.482 C0,353.482 107.896,377.845 180.987,361.313 L180.987,361.313 L187.078,337.82 L151.061,674.939 C151.061,674.939 407.503,721.041 629.367,649.006 L629.367,649.006 L642.334,352.227 C642.334,352.227 727.333,359.431 784.961,347.905 L784.961,347.905 C784.961,347.905 728.774,131.802 674.028,88.582 L674.028,88.582 C619.283,45.362 483.635,9.766 483.635,9.766 L483.635,9.766 C483.635,9.766 474.786,55.091 387.616,51.078 L387.616,51.078 C323.951,48.147 298.756,12.626 289.15,0.575 L289.15,0.575 C289.15,0.575 127.04,63.728 93.974,96.793" id="masterscenemovie-night-path-31"/>
        <path d="M93.974,96.793 C60.909,129.859 0,353.482 0,353.482 L0,353.482 C0,353.482 107.896,377.845 180.987,361.313 L180.987,361.313 L187.078,337.82 L151.061,674.939 C151.061,674.939 407.503,721.041 629.367,649.006 L629.367,649.006 L642.334,352.227 C642.334,352.227 727.333,359.431 784.961,347.905 L784.961,347.905 C784.961,347.905 728.774,131.802 674.028,88.582 L674.028,88.582 C619.283,45.362 483.635,9.766 483.635,9.766 L483.635,9.766 C483.635,9.766 474.786,55.091 387.616,51.078 L387.616,51.078 C323.951,48.147 298.756,12.626 289.15,0.575 L289.15,0.575 C289.15,0.575 127.04,63.728 93.974,96.793" id="masterscenemovie-night-path-33"/>
        <path d="M93.974,96.793 C60.909,129.859 0,353.482 0,353.482 L0,353.482 C0,353.482 107.896,377.845 180.987,361.313 L180.987,361.313 L187.078,337.82 L151.061,674.939 C151.061,674.939 407.503,721.041 629.367,649.006 L629.367,649.006 L642.334,352.227 C642.334,352.227 727.333,359.431 784.961,347.905 L784.961,347.905 C784.961,347.905 728.774,131.802 674.028,88.582 L674.028,88.582 C619.283,45.362 483.635,9.766 483.635,9.766 L483.635,9.766 C483.635,9.766 474.786,55.091 387.616,51.078 L387.616,51.078 C323.951,48.147 298.756,12.626 289.15,0.575 L289.15,0.575 C289.15,0.575 127.04,63.728 93.974,96.793" id="masterscenemovie-night-path-35"/>
        <path d="M93.974,96.793 C60.909,129.859 0,353.482 0,353.482 L0,353.482 C0,353.482 107.896,377.845 180.987,361.313 L180.987,361.313 L187.078,337.82 L151.061,674.939 C151.061,674.939 407.503,721.041 629.367,649.006 L629.367,649.006 L642.334,352.227 C642.334,352.227 727.333,359.431 784.961,347.905 L784.961,347.905 C784.961,347.905 728.774,131.802 674.028,88.582 L674.028,88.582 C619.283,45.362 483.635,9.766 483.635,9.766 L483.635,9.766 C483.635,9.766 474.786,55.091 387.616,51.078 L387.616,51.078 C323.951,48.147 298.756,12.626 289.15,0.575 L289.15,0.575 C289.15,0.575 127.04,63.728 93.974,96.793" id="masterscenemovie-night-path-37"/>
        <path d="M93.974,96.793 C60.909,129.859 0,353.482 0,353.482 L0,353.482 C0,353.482 107.896,377.845 180.987,361.313 L180.987,361.313 L187.078,337.82 L151.061,674.939 C151.061,674.939 407.503,721.041 629.367,649.006 L629.367,649.006 L642.334,352.227 C642.334,352.227 727.333,359.431 784.961,347.905 L784.961,347.905 C784.961,347.905 728.774,131.802 674.028,88.582 L674.028,88.582 C619.283,45.362 483.635,9.766 483.635,9.766 L483.635,9.766 C483.635,9.766 474.786,55.091 387.616,51.078 L387.616,51.078 C323.951,48.147 298.756,12.626 289.15,0.575 L289.15,0.575 C289.15,0.575 127.04,63.728 93.974,96.793" id="masterscenemovie-night-path-39"/>
        <path d="M93.974,96.793 C60.909,129.859 0,353.482 0,353.482 L0,353.482 C0,353.482 107.896,377.845 180.987,361.313 L180.987,361.313 L187.078,337.82 L151.061,674.939 C151.061,674.939 407.503,721.041 629.367,649.006 L629.367,649.006 L642.334,352.227 C642.334,352.227 727.333,359.431 784.961,347.905 L784.961,347.905 C784.961,347.905 728.774,131.802 674.028,88.582 L674.028,88.582 C619.283,45.362 483.635,9.766 483.635,9.766 L483.635,9.766 C483.635,9.766 474.786,55.091 387.616,51.078 L387.616,51.078 C323.951,48.147 298.756,12.626 289.15,0.575 L289.15,0.575 C289.15,0.575 127.04,63.728 93.974,96.793" id="masterscenemovie-night-path-41"/>
        <path d="M93.974,96.793 C60.909,129.859 0,353.482 0,353.482 L0,353.482 C0,353.482 107.896,377.845 180.987,361.313 L180.987,361.313 L187.078,337.82 L151.061,674.939 C151.061,674.939 407.503,721.041 629.367,649.006 L629.367,649.006 L642.334,352.227 C642.334,352.227 727.333,359.431 784.961,347.905 L784.961,347.905 C784.961,347.905 728.774,131.802 674.028,88.582 L674.028,88.582 C619.283,45.362 483.635,9.766 483.635,9.766 L483.635,9.766 C483.635,9.766 474.786,55.091 387.616,51.078 L387.616,51.078 C323.951,48.147 298.756,12.626 289.15,0.575 L289.15,0.575 C289.15,0.575 127.04,63.728 93.974,96.793" id="masterscenemovie-night-path-43"/>
        <path d="M93.974,96.793 C60.909,129.859 0,353.482 0,353.482 L0,353.482 C0,353.482 107.896,377.845 180.987,361.313 L180.987,361.313 L187.078,337.82 L151.061,674.939 C151.061,674.939 407.503,721.041 629.367,649.006 L629.367,649.006 L642.334,352.227 C642.334,352.227 727.333,359.431 784.961,347.905 L784.961,347.905 C784.961,347.905 728.774,131.802 674.028,88.582 L674.028,88.582 C619.283,45.362 483.635,9.766 483.635,9.766 L483.635,9.766 C483.635,9.766 474.786,55.091 387.616,51.078 L387.616,51.078 C323.951,48.147 298.756,12.626 289.15,0.575 L289.15,0.575 C289.15,0.575 127.04,63.728 93.974,96.793" id="masterscenemovie-night-path-45"/>
        <path d="M93.974,96.793 C60.909,129.859 0,353.482 0,353.482 L0,353.482 C0,353.482 107.896,377.845 180.987,361.313 L180.987,361.313 L187.078,337.82 L151.061,674.939 C151.061,674.939 407.503,721.041 629.367,649.006 L629.367,649.006 L642.334,352.227 C642.334,352.227 727.333,359.431 784.961,347.905 L784.961,347.905 C784.961,347.905 728.774,131.802 674.028,88.582 L674.028,88.582 C619.283,45.362 483.635,9.766 483.635,9.766 L483.635,9.766 C483.635,9.766 474.786,55.091 387.616,51.078 L387.616,51.078 C323.951,48.147 298.756,12.626 289.15,0.575 L289.15,0.575 C289.15,0.575 127.04,63.728 93.974,96.793" id="masterscenemovie-night-path-47"/>
        <path d="M93.974,96.793 C60.909,129.859 0,353.482 0,353.482 L0,353.482 C0,353.482 107.896,377.845 180.987,361.313 L180.987,361.313 L187.078,337.82 L151.061,674.939 C151.061,674.939 407.503,721.041 629.367,649.006 L629.367,649.006 L642.334,352.227 C642.334,352.227 727.333,359.431 784.961,347.905 L784.961,347.905 C784.961,347.905 728.774,131.802 674.028,88.582 L674.028,88.582 C619.283,45.362 483.635,9.766 483.635,9.766 L483.635,9.766 C483.635,9.766 474.786,55.091 387.616,51.078 L387.616,51.078 C323.951,48.147 298.756,12.626 289.15,0.575 L289.15,0.575 C289.15,0.575 127.04,63.728 93.974,96.793" id="masterscenemovie-night-path-49"/>
        <polygon id="masterscenemovie-night-path-51" points="0 0.0722 432.2748 0.0722 432.2748 402 0 402"/>
        <polygon id="masterscenemovie-night-path-53" points="0.0002 0.5766 635.257 0.5766 635.257 364.999817 0.0002 364.999817"/>
        <polygon id="masterscenemovie-night-path-55" points="0 365.424 635.257 365.424 635.257 1 0 1"/>
        <polygon id="masterscenemovie-night-path-57" points="0 0.000226663446 267.056737 0.000226663446 267.056737 209.265844 0 209.265844"/>
        <polygon id="masterscenemovie-night-path-59" points="0.721 0.6074 75.113 0.6074 75.113 75 0.721 75"/>
        <polygon id="masterscenemovie-night-path-61" points="0.738028712 0.439759466 779.924 0.439759466 779.924 696.4825 0.738028712 696.4825"/>
        <polygon id="masterscenemovie-night-path-63" points="0.2817 0.0902 77.6184974 0.0902 77.6184974 118 0.2817 118"/>
    </defs>
    <g id="Master/Scene/Movie Night" stroke="none" stroke-width="1" fill="none" fill-rule="evenodd">
        <g id="Bedroom" transform="translate(-1.000000, 486.000000)">
            <polygon id="Wall-Paint" fill="#E59ABE" opacity=".12" points="0 2367.348 7951.215 2367.348 7951.215 2328.348 0 2328.348"/>
            <path d="M4990.3906,1739.4265 C4990.3906,2397.3755 4457.0176,2930.7485 3799.0686,2930.7485 C3141.1196,2930.7485 2607.7466,2397.3755 2607.7466,1739.4265 C2607.7466,1081.4775 3141.1196,548.1045 3799.0686,548.1045 C4457.0176,548.1045 4990.3906,1081.4775 4990.3906,1739.4265" id="Header" fill="#F8DEE2"/>
            <g id="Bed" transform="translate(1806.434000, 1486.122700)">
                <path d="M4105.399,1457.5118 L110.51,1457.5118 C49.477,1457.5118 -4.54747351e-13,1408.0338 -4.54747351e-13,1347.0008 L-4.54747351e-13,1165.8018 C-4.54747351e-13,1104.7688 49.477,1055.2908 110.51,1055.2908 L4105.399,1055.2908 C4166.432,1055.2908 4215.909,1104.7688 4215.909,1165.8018 L4215.909,1347.0008 C4215.909,1408.0338 4166.432,1457.5118 4105.399,1457.5118" id="Fill-6" fill="#3267C8"/>
                <polygon id="Fill-8" fill="#FCEBEC" points="188.2931 718.003 663.5681 494.345 3324.6181 495.443 3999.0851 707.315 779.2011 881.02"/>
                <path d="M3947.9093,1065.1661 L268.9353,1065.1661 C188.8443,1065.1661 123.9173,1000.2391 123.9173,920.1481 L123.9173,843.0111 C123.9173,762.9201 188.8443,697.9931 268.9353,697.9931 L3947.9093,697.9931 C4028.0003,697.9931 4092.9273,762.9201 4092.9273,843.0111 L4092.9273,920.1481 C4092.9273,1000.2391 4028.0003,1065.1661 3947.9093,1065.1661" id="Fill-10" fill="#FCEBEC"/>
                <path d="M3136.7857,534.295 L2121.7287,534.295 C2067.0697,534.295 2022.7607,489.985 2022.7607,435.326 L2022.7607,98.968 C2022.7607,44.31 2067.0697,-9.09494702e-13 2121.7287,-9.09494702e-13 L3136.7857,-9.09494702e-13 C3191.4437,-9.09494702e-13 3235.7537,44.31 3235.7537,98.968 L3235.7537,435.326 C3235.7537,489.985 3191.4437,534.295 3136.7857,534.295" id="Fill-12" fill="#DDB0C8"/>
                <path d="M1846.2826,534.295 L848.8916,534.295 C794.6686,534.295 750.7116,490.338 750.7116,436.114 L750.7116,98.18 C750.7116,43.956 794.6686,-9.09494702e-13 848.8916,-9.09494702e-13 L1846.2826,-9.09494702e-13 C1900.5066,-9.09494702e-13 1944.4626,43.956 1944.4626,98.18 L1944.4626,436.114 C1944.4626,490.338 1900.5066,534.295 1846.2826,534.295" id="Fill-14" fill="#DDB0C8"/>
                <path d="M2429.336,599.753 L1544.711,599.753 C1497.084,599.753 1458.475,561.144 1458.475,513.518 L1458.475,220.504 C1458.475,172.877 1497.084,134.269 1544.711,134.269 L2429.336,134.269 C2476.962,134.269 2515.571,172.877 2515.571,220.504 L2515.571,513.518 C2515.571,561.144 2476.962,599.753 2429.336,599.753" id="Fill-16" fill="#EECCDC"/>
                <path d="M2794.6676,640.3224 L2193.8846,640.3224 C2159.2176,640.3224 2131.1146,612.2184 2131.1146,577.5514 L2131.1146,344.1434 C2131.1146,309.4764 2159.2176,281.3734 2193.8846,281.3734 L2794.6676,281.3734 C2829.3346,281.3734 2857.4386,309.4764 2857.4386,344.1434 L2857.4386,577.5514 C2857.4386,612.2184 2829.3346,640.3224 2794.6676,640.3224" id="Fill-18" fill="#FFF"/>
                <path d="M1826.9862,645.7247 L1226.2032,645.7247 C1191.5352,645.7247 1163.4322,617.6207 1163.4322,582.9537 L1163.4322,349.5457 C1163.4322,314.8787 1191.5352,286.7757 1226.2032,286.7757 L1826.9862,286.7757 C1861.6532,286.7757 1889.7572,314.8787 1889.7572,349.5457 L1889.7572,582.9537 C1889.7572,617.6207 1861.6532,645.7247 1826.9862,645.7247" id="Fill-20" fill="#FFF"/>
            </g>
            <g id="Window" transform="translate(5282.126000, 0.169700)">
                <polygon id="Fill-22" fill="#204EB2" points="65.16 1741.3273 1112.608 1741.3273 1112.608 0.1783 65.16 0.1783"/>
                <line x1="598.636" y1=".059" x2="603.879" y2="1792.189" id="Fill-24" fill="#FC7750"/>
                <polygon id="Fill-25" fill="#EECCDC" points="583.6499 1792.249 578.4069 0.118 618.8649 -1.13686838e-13 624.1069 1792.13"/>
                <line x1="65.223" y1="871.529" x2="1113.876" y2="871.72" id="Fill-26" fill="#FC7750"/>
                <polygon id="Fill-27" fill="#EECCDC" points="1113.872 892.2275 65.219 892.0365 65.227 851.0225 1113.88 851.2135"/>
                <path d="M1016.9507,1742.0371 L716.0457,1742.0371 C710.0727,1742.0371 705.2297,1737.1941 705.2297,1731.2221 L705.2297,1671.6741 C705.2297,1665.7011 710.0727,1660.8581 716.0457,1660.8581 L1016.9507,1660.8581 C1022.9247,1660.8581 1027.7667,1665.7011 1027.7667,1671.6741 L1027.7667,1731.2221 C1027.7667,1737.1941 1022.9247,1742.0371 1016.9507,1742.0371" id="Fill-28" fill="#EECCDC"/>
                <path d="M1021.98,1660.3359 L742.739,1660.3359 C736.733,1660.3359 731.864,1655.4679 731.864,1649.4619 L731.864,1633.4249 C731.864,1627.4189 736.733,1622.5499 742.739,1622.5499 L1021.98,1622.5499 C1027.986,1622.5499 1032.855,1627.4189 1032.855,1633.4249 L1032.855,1649.4619 C1032.855,1655.4679 1027.986,1660.3359 1021.98,1660.3359" id="Fill-29" fill="#F6CBC3"/>
                <path d="M1005.3667,1586.2363 L732.8777,1586.2363 C725.0067,1586.2363 718.6267,1579.8563 718.6267,1571.9863 L718.6267,1535.6003 C718.6267,1527.7293 725.0067,1521.3493 732.8777,1521.3493 L1005.3667,1521.3493 C1013.2377,1521.3493 1019.6167,1527.7293 1019.6167,1535.6003 L1019.6167,1571.9863 C1019.6167,1579.8563 1013.2377,1586.2363 1005.3667,1586.2363" id="Fill-30" fill="#F6CBC3"/>
                <path d="M1013.6982,1468.4404 L735.1932,1468.4404 C728.9842,1468.4404 723.9502,1463.4074 723.9502,1457.1984 L723.9502,1439.2984 C723.9502,1433.0894 728.9842,1428.0564 735.1932,1428.0564 L1013.6982,1428.0564 C1019.9072,1428.0564 1024.9412,1433.0894 1024.9412,1439.2984 L1024.9412,1457.1984 C1024.9412,1463.4074 1019.9072,1468.4404 1013.6982,1468.4404" id="Fill-31" fill="#F6CBC3"/>
                <path d="M995.5049,1624.0127 L716.2639,1624.0127 C710.2579,1624.0127 705.3889,1619.1447 705.3889,1613.1377 L705.3889,1597.1017 C705.3889,1591.0957 710.2579,1586.2267 716.2639,1586.2267 L995.5049,1586.2267 C1001.5109,1586.2267 1006.3799,1591.0957 1006.3799,1597.1017 L1006.3799,1613.1377 C1006.3799,1619.1447 1001.5109,1624.0127 995.5049,1624.0127" id="Fill-32" fill="#EECCDC"/>
                <path d="M1002.771,1520.8545 L727.112,1520.8545 C720.117,1520.8545 714.446,1515.1835 714.446,1508.1885 L714.446,1482.2625 C714.446,1475.2675 720.117,1469.5965 727.112,1469.5965 L1002.771,1469.5965 C1009.766,1469.5965 1015.437,1475.2675 1015.437,1482.2625 L1015.437,1508.1885 C1015.437,1515.1835 1009.766,1520.8545 1002.771,1520.8545" id="Fill-33" fill="#EECCDC"/>
                <polygon id="Fill-34" fill="#EECCDC" points="-9.09494702e-13 1854.8513 1195.026 1854.8513 1195.026 1742.3073 -9.09494702e-13 1742.3073"/>
            </g>
            <g id="Tall Vase Plant" transform="translate(6095.000000, 17.000000) scale(1 1)">
                <defs>
                    <polygon id="tall-vase-plantplant-6-path-1" points="0.707388507 0.033 535.211993 0.033 535.211993 874.164744 0.707388507 874.164744"/>
                    <polygon id="tall-vase-plantplant-6-path-3" points="0 0.1738 333.4923 0.1738 333.4923 611.1738 0 611.1738"/>
                </defs>
                <g id="Tall Vase Plant/Plant 6" stroke="none" stroke-width="1" fill="none" fill-rule="evenodd">
                    <g id="Group-21" transform="translate(74.000000, 632.000000)">
                        <g id="Group-3" transform="translate(227.000000, 0.970000)">
                            <mask id="tall-vase-plantplant-6-mask-2" fill="#fff">
                                <use xlink:href="#tall-vase-plantplant-6-path-1"/>
                            </mask>
                            <g id="Clip-2"/>
                            <path d="M64.5263,677.1738 C64.5263,677.1738 17.5263,591.1738 45.5263,487.1738 C73.5263,383.1738 -25.4737,288.1738 7.5263,207.1738 C40.5263,126.1738 101.5263,6.1738 101.5263,6.1738 C101.5263,6.1738 255.5263,-27.8262 311.5263,64.1738 C367.5263,156.1738 476.5263,175.1738 468.5263,273.1738 C460.5263,371.1738 458.5263,400.1738 515.5263,451.1738 C572.5263,502.1738 483.5263,733.1738 523.5263,847.1738 C563.5263,961.1738 64.5263,677.1738 64.5263,677.1738" id="Fill-1" fill="#E93737" mask="url(#tall-vase-plantplant-6-mask-2)"/>
                        </g>
                        <path d="M328.5263,7.1438 C328.5263,7.1438 440.5263,108.1438 483.5263,339.1438 C526.5263,570.1438 569.1273,618.9518 553.8273,806.0478 C547.5263,818.1438 291.5263,678.1438 291.5263,678.1438 C291.5263,678.1438 248.5263,611.1438 253.5263,545.1438 C258.5263,479.1438 286.5663,415.7898 242.0463,328.4668 C197.5263,241.1438 216.5263,190.1438 328.5263,7.1438" id="Fill-4" fill="#EC7070"/>
                        <path d="M719.5263,611.1438 C719.5263,611.1438 776.5263,618.1438 776.5263,695.1438 L776.5263,1106.1438 L590.5263,1110.1438 C590.5263,1110.1438 532.5263,993.1438 432.5263,955.1438 C332.5263,917.1438 567.5263,630.1438 567.5263,630.1438 C567.5263,630.1438 687.5263,592.1438 719.5263,611.1438" id="Fill-6" fill="#0A4343"/>
                        <path d="M92.5263,595.1438 C92.5263,595.1438 45.5263,626.1438 58.5263,692.1438 C71.5263,758.1438 88.5263,776.1438 49.5263,840.1438 C10.5263,904.1438 -13.4737,1058.1438 110.5263,1206.1438 C110.5263,1206.1438 242.5263,1232.1438 309.5263,1140.1438 C376.5263,1048.1438 367.5263,1016.1438 479.5263,975.1438 C591.5263,934.1438 522.5263,706.1438 595.5263,660.1438 C668.5263,614.1438 698.5263,605.1438 698.5263,605.1438 L92.5263,595.1438 Z" id="Fill-8" fill="#1BC0D7"/>
                        <g id="Group-12" transform="translate(0.000000, 594.970000)">
                            <mask id="tall-vase-plantplant-6-mask-4" fill="#fff">
                                <use xlink:href="#tall-vase-plantplant-6-path-3"/>
                            </mask>
                            <g id="Clip-11"/>
                            <path d="M92.5263,0.1738 C92.5263,0.1738 38.5263,22.1738 58.5263,97.1738 C78.5263,172.1738 57.5263,169.1738 9.5263,301.1738 C-38.4737,433.1738 110.5263,611.1738 110.5263,611.1738 C110.5263,611.1738 119.5263,439.1738 190.5263,341.1738 C261.5263,243.1738 241.4583,37.4268 333.4923,5.8008 L92.5263,0.1738 Z" id="Fill-10" fill="#237978" mask="url(#tall-vase-plantplant-6-mask-4)"/>
                        </g>
                        <path d="M566.0224,1105.367 L809.1954,1103.4913 C835.7294,1103.289 858.8714,1121.478 864.9424,1147.309 L963.6244,1567.188 C981.2654,1642.25 924.3094,1714.144 847.2024,1714.144 L567.5864,1714.144 C494.7504,1714.144 438.8284,1649.587 449.2154,1577.494 L510.2244,1154.079 C514.2294,1126.284 537.9404,1105.584 566.0224,1105.367" id="Fill-13" fill="#FC7750"/>
                        <path d="M780.5263,826.1438 C780.5263,826.1438 655.5263,1038.1438 746.5263,1146.1438 C837.5263,1254.1438 913.5263,1231.1438 944.5263,1355.1438 C975.5263,1479.1438 1210.5263,1396.1438 1210.5263,1396.1438 C1210.5263,1396.1438 1233.5263,1275.1438 1186.5263,1195.1438 C1139.5263,1115.1438 1082.5263,1124.1438 1081.5263,1009.1438 C1080.5263,894.1438 1018.5263,822.1438 1018.5263,822.1438 L780.5263,826.1438 Z" id="Fill-15" fill="#237978"/>
                        <path d="M892.1562,822.9285 C892.1562,822.9285 856.5262,972.1435 915.5262,1090.1435 C974.5262,1208.1435 1150.5262,1250.1435 1210.5262,1396.1435 C1210.5262,1396.1435 1254.5262,1281.1435 1205.5262,1208.1435 C1156.5262,1135.1435 1106.5262,1121.1435 1097.5262,1025.1435 C1088.5262,929.1435 1018.5262,822.1435 1018.5262,822.1435 L892.1562,822.9285 Z" id="Fill-17" fill="#1BC0D7"/>
                        <path d="M599.7734,1105.0149 L557.4054,1105.0149 C557.4054,1105.0149 515.9374,1104.9199 507.7324,1160.5319 C499.5264,1216.1439 446.5264,1586.1439 446.5264,1586.1439 C446.5264,1586.1439 440.5264,1639.1439 468.5264,1668.1439 C496.5264,1697.1439 517.1274,1713.7959 560.3274,1714.9699 C560.3274,1714.9699 520.5264,1663.1439 524.5264,1575.1439 C528.5264,1487.1439 571.5264,1194.1439 571.5264,1194.1439 C571.5264,1194.1439 581.0194,1111.8859 599.7734,1105.0149" id="Fill-19" fill="#FEA78D"/>
                    </g>
                </g>
            </g>
            <g id="Painting/Horizontal" transform="translate(1543.000000, 718.000000) scale(1 1)">
                <g id="Painting/Horizontal/Painting 3" stroke="none" stroke-width="1" fill="none" fill-rule="evenodd">
                    <g id="Group-17">
                        <polygon id="Fill-1" fill="#E93737" points="0 507 768 507 768 0 0 0"/>
                        <polygon id="Fill-2" fill="#FFF" points="23.979 482 741 482 741 28.742 23.979 28.742"/>
                        <polygon id="Fill-3" fill="#FC7750" points="117.48 397.113 646.219 397.113 646.219 121.139 117.48 121.139"/>
                        <g id="Group-16" transform="translate(117.000000, 194.000000)">
                            <path d="M0.4042,20.2884 C0.4042,20.2884 64.2262,1.5394 141.6082,23.3034 C218.9912,45.0674 284.8862,48.6944 342.9242,30.5584 C400.9612,12.4214 474.1112,28.7444 474.1112,28.7444 L405.7972,92.2224 L215.9682,145.4224 L102.9182,130.9134 L0.1202,49.7714 L0.4042,20.2884 Z" id="Fill-4" fill="#237978"/>
                            <path d="M527.7928,10.0428 C527.7928,10.0428 486.8528,-19.4002 405.4298,23.3908 C318.0048,69.3368 270.1458,166.9718 270.1458,166.9718 L517.7898,178.7658 L529.1418,130.6058 L529.2188,10.2918 C529.2188,10.2918 528.9858,10.0248 527.7928,10.0428" id="Fill-6" fill="#0A4343"/>
                            <path d="M20.1425,89.6756 C20.1425,89.6756 64.8465,67.0136 156.8285,88.2806 C277.4735,116.1756 338.4935,40.3976 404.6735,60.1876 C455.8795,75.4986 528.8015,92.0576 528.8015,92.0576 L475.3385,191.9546 L107.5795,139.4176 L0.7745,92.1476 L20.1425,89.6756 Z" id="Fill-8" fill="#1BC0D7"/>
                            <path d="M381.9052,154.2635 C381.9052,154.2635 514.0092,86.3175 529.1872,102.3565 L529.2182,203.1135 L381.9052,154.2635 Z" id="Fill-10" fill="#0A4343"/>
                            <path d="M102.8593,202.1815 C102.8593,202.1815 295.7543,64.8585 394.6323,97.3465 C493.5113,129.8355 529.2183,203.1135 529.2183,203.1135 L102.8593,202.1815 Z" id="Fill-12" fill="#237978"/>
                            <path d="M0.1327,49.5221 C0.1327,49.5221 94.2717,73.8411 170.3667,133.4621 C246.4627,193.0831 276.2737,202.4971 276.2737,202.4971 L0.4797,203.1131 L0.1327,49.5221 Z" id="Fill-14" fill="#0A4343"/>
                        </g>
                    </g>
                </g>
            </g>
        </g>
        <g transform="translate(2619.000000, 98.000000) scale(1 1)" id="Master/Character/Sitting On Floor">
            <defs>
                <polygon id="mastercharactersitting-on-floor-path-1" points="0 0.216 1141.521 0.216 1141.521 422.785934 0 422.785934"/>
            </defs>
            <g id="Master/Character/Sitting On Floor" stroke="none" stroke-width="1" fill="none" fill-rule="evenodd">
                <g id="Upper Body" transform="translate(911.000000, 1329.000000) scale(1 1)">
                    <defs>
                        <polygon id="upper-bodywith-laptop-path-1" points="0.1808 0.1553 298.703924 0.1553 298.703924 343 0.1808 343"/>
                        <polygon id="upper-bodywith-laptop-path-3" points="0.550418291 0.388 141.311628 0.388 141.311628 92.088834 0.550418291 92.088834"/>
                    </defs>
                    <g id="Upper Body/With Laptop" stroke="none" stroke-width="1" fill="none" fill-rule="evenodd">
                        <path d="M724.954254,220 C724.954254,220 721.26343,301.153386 673.924004,329.799638 C630.972611,355.790794 721.968632,506.610475 819.857852,497.613536 C873.442212,492.688212 886,346.158072 886,346.158072 C886,346.158072 842.733964,337.796917 858.715877,271.819367 L724.954254,220 Z" id="Neck" fill="#ecafa3"/>
                        <path d="M803.337113,302.515641 C739.876612,294.840687 694.077698,253.11575 687.664652,183.898064 C669.216286,186.83496 664.86504,138.764927 670.003065,123.322958 C675.146083,107.858975 691.933027,116.900812 691.933027,116.900812 C692.862251,114.457234 693.652358,111.898916 694.303348,109.225857 C722.02532,-4.48555283 799.669805,0.0243586862 799.669805,0.0243586862 C942.344355,7.45715716 908.914243,153.120195 900.762895,191.763142 C892.610548,230.410091 864.683894,309.927426 803.337113,302.515641 Z" id="Head" fill="#ecafa3"/>
                        <g id="Group-25" transform="translate(266.000000, 320.000000)">
                            <g id="Group-19" transform="translate(0.000000, 0.612000)">
                                <path d="M105.050047,289.936251 C33.5168788,376.727653 8.92577071,446.699768 31.2767231,499.852598 C64.8031518,579.581843 146.951413,496.522302 192.490195,395.604271 C222.849383,328.325583 260.283957,276.925705 304.793918,241.404634 L105.050047,289.936251 Z" id="Path" fill="#ecafa3" transform="translate(164.044509, 386.561708) rotate(-10.000000) translate(-164.044509, -386.561708)"/>
                                <g id="Group-3" transform="translate(695.000000, 361.000000)">
                                    <mask id="upper-bodywith-laptop-mask-2" fill="#fff">
                                        <use xlink:href="#upper-bodywith-laptop-path-1"/>
                                    </mask>
                                    <g id="Clip-2"/>
                                </g>
                                <path d="M280.8551,41.1066 C363.7551,15.4706 389.3011,14.0266 389.3011,14.0266 L476.8081,32.8846 C476.8081,32.8846 524.7691,95.9186 528.8791,152.1006 C528.8791,152.1006 530.2491,78.1046 561.7671,27.4036 C561.7671,27.4036 700.4791,26.1286 752.7731,80.7306 C835.3711,166.9736 833.813167,318.3006 833.813167,318.3006 L697.5221,332.3166 L752.7731,255.388 C752.7731,255.388 756.263179,568.804637 748.041179,649.652637 C644,764.422821 270,675.591107 270,675.591107 C270,675.591107 278.1151,416.25183 279.4851,345.3136 C280.8551,274.37537 254.6201,283.9566 218.4531,371.8906 C188.8861,443.7816 94.8851,294.7296 94.8851,294.7296 C94.8851,294.7296 152.5811,80.7726 280.8551,41.1066 Z" id="Fill-4" fill="#1BC0D7"/>
                                <path d="M704.0424,431.7121 C704.0424,431.7121 771.3394,407.5801 839.7714,421.8301 C839.7714,421.8301 838.8854,399.4921 839.5874,369.9961 C840.1634,345.7711 853.4304,308.2791 805.5564,312.3171 C749.8404,317.0161 725.9594,317.5081 701.7344,328.4671 C701.7344,328.4671 695.9674,408.6411 704.0424,431.7121" id="Fill-6" fill="#FCEBEC"/>
                                <path d="M63.9394,341.7921 L93.2847063,249.4471 C93.2847063,249.4471 201.904517,226.7581 244.9394,320.6421 L212.685338,404.2371 C212.685338,404.2371 152.370466,315.2971 63.9394,341.7921" id="Fill-10" fill="#237978"/>
                                <g id="Group-14" transform="translate(338.000000, 0.000000)">
                                    <mask id="upper-bodywith-laptop-mask-4" fill="#fff">
                                        <use xlink:href="#upper-bodywith-laptop-path-3"/>
                                    </mask>
                                    <g id="Clip-13"/>
                                    <path d="M52.6986,0.4875 C52.6986,0.4875 -2.7084,19.2415 0.7016,24.3555 C4.1106,29.4695 102.4766,94.8915 109.8506,91.9955 C117.2246,89.0985 144.8776,36.6905 140.9276,31.4235 C136.9766,26.1565 57.4346,-1.4785 52.6986,0.4875" id="Fill-12" fill="#237978" mask="url(#upper-bodywith-laptop-mask-4)"/>
                                </g>
                                <path d="M650.6088,23.2834 C650.6088,23.2834 698.2988,57.1534 693.5648,61.0734 C688.8308,64.9934 575.8238,99.4234 569.5908,94.5314 C563.3598,89.6394 551.9168,31.4994 557.2118,27.5884 C562.5088,23.6774 646.6358,20.0404 650.6088,23.2834" id="Fill-15" fill="#237978"/>
                                <path d="M123.259851,445.031349 C166.893554,466.002349 153.233851,474.731349 174.524851,487.829349 C195.815851,500.928349 228.449851,535.078349 239.694851,527.258349 C250.938851,519.438349 247.765851,512.512349 236.068851,502.885349 C224.372851,493.257349 188.169851,461.709349 192.145851,456.921349 C196.122851,452.133349 257.341851,520.465349 275.349851,508.401349 C293.357851,496.336349 254.631851,465.557349 235.864851,452.620349 C217.098851,439.684349 206.592851,428.138349 212.609851,426.196349 C218.626851,424.255349 289.502851,499.367349 303.228851,487.951349 C316.956851,476.535349 291.560851,450.435349 272.692851,437.256349 C253.825851,424.077349 224.797851,402.906349 224.797851,402.906349 C224.797851,402.906349 262.223851,418.298349 291.053851,445.811349 C319.883851,473.323349 326.829851,471.564349 330.441851,465.221349 C334.053851,458.878349 304.306851,424.060349 304.306851,424.060349 C304.306851,424.060349 305.316851,383.621349 266.957851,370.249349 C228.598851,356.878349 199.545851,336.218349 159.169851,339.440349 C118.793851,342.660349 106.355352,366.565153 106.355352,366.565153 C106.355352,366.565153 79.6261472,424.060349 123.259851,445.031349 Z" id="Fill-8" fill="#ecafa3" transform="translate(214.499157, 433.756203) rotate(30.000000) translate(-214.499157, -433.756203)"/>
                                <path d="M662.9867,209.88 L572.1647,209.88 C568.4677,209.88 565.4707,206.884 565.4707,203.188 L565.4707,195.319 C565.4707,191.624 568.4677,188.627 572.1647,188.627 L662.9867,188.627 C666.6827,188.627 669.6787,191.624 669.6787,195.319 L669.6787,203.188 C669.6787,206.884 666.6827,209.88 662.9867,209.88" id="Fill-17" fill="#237978"/>
                            </g>
                            <g id="Group-24" transform="translate(397.000000, 175.000000)">
                                <path d="M185.2874,372.4279 L2.5724,321.7809 C2.5724,321.7809 -8.7866,309.7899 24.6594,306.6349 C58.1044,303.4799 407.5584,294.1429 407.5584,294.1429 L185.2874,372.4279 Z" id="Fill-20" fill="#204EB2"/>
                                <path d="M703.3129,371.8791 L190.8269,371.8791 C181.3339,371.8791 173.6369,364.1841 173.6369,354.6901 L220.1609,17.2031 C220.1609,7.7101 227.8559,0.0141 237.3489,0.0141 L749.8349,0.0141 C759.3289,0.0141 767.0249,7.7101 767.0249,17.2031 L720.5009,354.6901 C720.5009,364.1841 712.8059,371.8791 703.3129,371.8791" id="Fill-22" fill="#3267C8"/>
                            </g>
                            <g id="Group-2" transform="translate(893.239277, 513.555823) scale(-1, 1) rotate(-72.000000) translate(-893.239277, -513.555823) translate(800.239277, 441.555823)">
                                <path d="M34.8019558,0.721228206 C34.8019558,0.721228206 30.1385768,5.272 25.5025768,10.938 C20.8665768,16.604 24.9875768,17.635 14.6855768,28.452 C4.38357684,39.27 -14.1604232,66.57 18.2905768,108.294 C50.7435768,150.018 61.5605768,146.411 74.9535768,139.2 C88.3455768,131.988 89.8915768,126.838 115.131577,124.262 C140.371577,121.687 164.581577,96.961 164.066577,90.78 L163.551577,84.599 C163.551577,84.599 186.730577,75.842 185.186577,66.055 C183.640577,56.268 176.944577,57.298 176.944577,57.298 C176.944577,57.298 181.580577,52.662 177.974577,44.42 C174.368577,36.179 157.370577,37.724 137.795577,40.3 C118.222577,42.875 67.7415768,53.177 64.6505768,51.117 C61.5605768,49.057 62.5905768,45.966 74.4375768,44.42 C86.2855768,42.875 134.190577,42.36 134.190577,28.967 C134.190577,15.574 119.767577,12.999 91.9515768,13.514 C64.1355768,14.029 58.9845768,12.483 52.2885768,15.06 L39.9277765,16.4968824 C36.5105627,5.9797796 34.8019558,0.721228206 34.8019558,0.721228206 Z" id="Fill-12" fill="#ecafa3"/>
                                <path d="M177.350177,57.2402 C177.350177,57.2402 178.830177,56.1722 167.807177,60.3812 C163.793177,61.9132 158.133177,63.5122 150.159177,65.0242 C120.282177,70.6902 73.4081768,80.9932 58.9851768,83.0532 C44.5611768,85.1142 56.4091768,88.2042 89.3761768,81.5082 C122.343177,74.8112 161.588177,65.8282 163.350177,65.2402 C166.350177,64.2402 175.350177,61.2402 177.350177,57.2402" id="Fill-14" fill="#000"/>
                                <path d="M116.349877,99.2405 C103.608877,102.4255 82.3498768,107.2405 80.1038768,107.7785 C76.0968768,108.7395 68.2558768,110.3545 68.2558768,110.3545 C68.2558768,110.3545 68.3498768,113.2405 92.3498768,108.2405 C98.3048768,107.0005 109.349877,105.2405 116.349877,103.2405 C122.788877,101.4005 146.037877,95.4165 149.128877,92.8405 C152.218877,90.2645 152.733877,87.6895 152.733877,87.6895 C152.733877,87.6895 128.349877,96.2405 116.349877,99.2405 Z" id="Fill-16" fill="#000"/>
                            </g>
                        </g>
                    </g>
                </g>
                <g id="Lower Body/Sitting on Floor" transform="translate(1165.000000, 2270.000000) scale(-1, 1) translate(-1165.000000, -2270.000000) translate(0.000000, 1832.000000) scale(1 1)">
                    <defs>
                        <polygon id="lower-bodysitting-on-floorlegs-crossed-1-path-1" points="0 0.216 1141.521 0.216 1141.521 422.785934 0 422.785934"/>
                    </defs>
                    <g id="Lower Body/Sitting on Floor/Legs Crossed 1" stroke="none" stroke-width="1" fill="none" fill-rule="evenodd">
                        <g id="Group-46" transform="translate(69.000000, 357.000000)">
                            <path d="M583.8821,306.5582 C583.8821,306.5582 541.1281,325.1022 535.9771,317.8902 C530.8261,310.6792 575.1251,355.4942 575.1251,355.4942 L607.0621,337.4642 L583.8821,306.5582 Z" id="Fill-1" fill="#ecafa3"/>
                            <path d="M583.8821,306.5582 C583.8821,306.5582 541.1281,325.1022 535.9771,317.8902 C530.8261,310.6792 575.1251,355.4942 575.1251,355.4942 L607.0621,337.4642 L583.8821,306.5582 Z" id="Stroke-3" stroke="#000" stroke-width="3"/>
                            <path d="M241.3362,329.2232 C241.3362,329.2232 178.4932,365.7952 228.4582,422.9722 C278.4232,480.1492 455.1052,441.0012 455.1052,441.0012 L459.7412,418.3362 C459.7412,418.3362 282.0292,332.3142 241.3362,329.2232" id="Fill-5" fill="#F0ECEC"/>
                            <path d="M241.3362,329.2232 C241.3362,329.2232 216.6112,334.3732 208.8842,362.7042 C201.1582,391.0362 218.1892,424.0292 243.1552,435.0902 C243.1552,435.0902 211.2912,364.3752 267.2642,335.2092 L241.3362,329.2232 Z" id="Fill-7" fill="#E0D3CC"/>
                            <path d="M261.5242,443.1266 C261.5242,443.1266 284.0902,397.2176 294.3922,398.2476 C304.6942,399.2776 416.2152,405.0666 427.4192,402.9446 L464.3772,417.8206 L457.8422,441.4046 C457.8422,441.4046 320.3452,473.5836 261.5242,443.1266" id="Fill-9" fill="#E7DADA"/>
                            <path d="M291.8167,356.524 C291.8167,356.524 283.5747,416.276 295.4217,416.276 C307.2697,416.276 310.3607,349.312 312.4207,372.492 C314.4817,395.671 316.0267,425.033 323.7537,416.276 C331.4797,407.519 315.5117,342.616 322.2077,360.644 C328.9037,378.673 333.0247,412.67 343.8427,412.155 C354.6597,411.64 339.7217,377.128 345.3877,376.097 C351.0537,375.067 362.3857,420.912 372.1727,415.246 C381.9607,409.58 363.9317,371.977 374.2337,385.884 C384.5357,399.793 387.6267,416.276 396.8987,414.215 C406.1707,412.155 395.8677,394.127 390.2017,385.37 C384.5357,376.613 297.4827,343.13 294.9067,347.252 C292.3317,351.373 291.8167,356.524 291.8167,356.524" id="Fill-11" fill="#F9F9F9"/>
                            <g id="Group-15" transform="translate(0.000000, 0.784000)">
                                <mask id="lower-bodysitting-on-floorlegs-crossed-1-mask-2" fill="#fff">
                                    <use xlink:href="#lower-bodysitting-on-floorlegs-crossed-1-path-1"/>
                                </mask>
                                <g id="Clip-14"/>
                                <path d="M424.7141,414.4617 C424.7141,414.4617 216.6111,354.1937 119.7711,277.4427 C22.9311,200.6917 -33.2159,126.0017 21.3851,42.0397 C75.9861,-41.9233 204.2481,21.9497 266.0611,49.2507 C327.8741,76.5517 530.5701,115.1607 627.2801,114.9157 C723.9911,114.6697 853.7981,107.4577 921.2771,87.3687 C988.7561,67.2797 1096.4131,36.8887 1129.3811,118.7907 C1162.3471,200.6917 1123.7141,281.0497 1067.0521,308.3497 C1010.3901,335.6497 835.7691,394.3727 746.1411,388.7067 L656.5121,383.0397 C656.5121,383.0397 617.8791,340.2867 628.1811,277.9587 L574.0951,317.1067 C574.0951,317.1067 543.1891,316.5917 531.8561,312.4707 C520.5241,308.3497 457.6811,459.2757 424.7141,414.4617" id="Fill-13" fill="#56ACF6" mask="url(#lower-bodysitting-on-floorlegs-crossed-1-mask-2)"/>
                            </g>
                            <path d="M479.8304,422.4576 C479.8304,422.4576 570.4894,455.9386 592.1234,469.8476 C613.7584,483.7556 658.5724,495.6026 680.2074,480.6646 C701.8414,465.7266 688.9644,391.5516 688.9644,391.5516 C688.9644,391.5516 616.3334,375.0666 608.0924,363.7346 C599.8504,352.4026 533.9164,314.8006 533.9164,314.8006 L479.8304,422.4576 Z" id="Fill-16" fill="#ecafa3"/>
                            <path d="M681.1965,397.4195 C681.1965,397.4195 685.8735,385.3695 700.2965,387.9445 C714.7195,390.5215 849.1625,375.5825 887.7955,364.7655 C926.4275,353.9475 1008.3305,430.6985 972.7875,484.7845 C937.2455,538.8715 888.8255,513.1155 845.0415,509.5105 C801.2575,505.9045 716.2645,518.2675 697.2055,512.0855 C678.1465,505.9045 659.0875,494.5715 658.5725,481.1795 C658.0575,467.7865 681.1965,397.4195 681.1965,397.4195" id="Fill-18" fill="#F0ECEC"/>
                            <path d="M877.7664,371.8189 C877.7664,371.8189 934.6694,399.7929 944.9724,438.4249 C955.2744,477.0579 950.4914,507.9839 950.4914,507.9839 C950.4914,507.9839 1004.4904,482.5399 973.7014,422.1069 C942.9114,361.6739 894.5234,356.7079 877.7664,365.6299 C861.0094,374.5519 877.7664,371.8189 877.7664,371.8189" id="Fill-20" fill="#E0D3CC"/>
                            <path d="M871.4646,370.5123 C871.4646,370.5123 848.1316,407.5193 845.0416,434.3043 C845.0416,434.3043 847.1016,439.4553 821.3466,438.9413 C795.5906,438.4253 675.5176,412.0763 675.5176,412.0763 C675.5176,412.0763 649.6886,473.9503 659.0246,489.9273 C668.3596,505.9053 845.0416,475.5133 845.0416,475.5133 C845.0416,475.5133 852.2526,471.3923 856.8886,474.9983 C861.5246,478.6043 885.4606,511.6303 918.3066,518.2963 C918.3066,518.2963 867.1906,490.9663 863.0696,454.9083 C858.9486,418.8513 871.4646,370.5123 871.4646,370.5123" id="Fill-22" fill="#EEDFD9"/>
                            <path d="M701.8416,408.0348 C701.8416,408.0348 703.3866,443.0608 696.6906,462.6358 C689.9936,482.2098 684.4326,499.2828 695.9696,497.1848 C707.5076,495.0878 719.8706,417.3058 713.1746,410.6098 C706.4776,403.9138 702.3566,401.8528 701.8416,408.0348" id="Fill-24" fill="#FFF"/>
                            <path d="M720.9006,412.1549 C720.9006,412.1549 722.4456,447.1819 715.7496,466.7569 C709.0526,486.3309 703.4916,503.4029 715.0286,501.3049 C726.5666,499.2089 738.9296,421.4269 732.2326,414.7309 C725.5366,408.0349 721.4156,405.9739 720.9006,412.1549" id="Fill-26" fill="#FFF"/>
                            <path d="M788.3796,413.3853 C788.3796,413.3853 789.9246,445.4233 783.2286,463.3263 C776.5316,481.2303 770.9706,496.8463 782.5076,494.9273 C794.0456,493.0083 806.4086,421.8653 799.7116,415.7403 C793.0156,409.6153 788.8946,407.7313 788.3796,413.3853" id="Fill-28" fill="#FFF"/>
                            <path d="M814.135,417.2809 C814.135,417.2809 815.68,447.1849 808.984,463.8959 C802.287,480.6079 796.726,495.1829 808.263,493.3929 C819.801,491.6019 832.164,425.1969 825.467,419.4799 C818.771,413.7619 814.65,412.0039 814.135,417.2809" id="Fill-30" fill="#FFF"/>
                            <path d="M832.6423,415.1246 C832.6423,415.1246 838.4183,444.5056 834.1633,461.9986 C829.9083,479.4916 826.4733,494.7096 837.6393,491.2986 C848.8053,487.8876 851.6123,420.3986 844.1723,415.6906 C836.7313,410.9826 832.4023,409.8266 832.6423,415.1246" id="Fill-32" fill="#FFF"/>
                            <path d="M744.8552,414.4049 C744.8552,414.4049 742.8102,449.4069 734.1472,468.1939 C725.4832,486.9799 718.2052,503.3939 729.8972,502.4879 C741.5882,501.5819 761.8412,425.4719 755.8652,418.1269 C749.8882,410.7799 746.0002,408.3089 744.8552,414.4049" id="Fill-34" fill="#FFF"/>
                            <path d="M754.9553,413.7564 C754.9553,413.7564 761.9163,448.1194 758.3383,468.4954 C754.7593,488.8714 751.9143,506.6014 762.9873,502.7384 C774.0593,498.8764 774.2043,420.1184 766.5503,414.5424 C758.8953,408.9664 754.5053,407.5694 754.9553,413.7564" id="Fill-36" fill="#FFF"/>
                            <path d="M677.7112,409.7262 C677.7112,409.7262 710.0832,416.7912 703.3872,455.9392 C696.6902,495.0872 656.0132,484.0552 656.0132,484.0552 C656.0132,484.0552 646.3702,419.6602 677.7112,409.7262" id="Fill-38" fill="#FFF"/>
                            <polygon id="Stroke-40" fill="#000" fill-rule="nonzero" points="222.064539 67.357022 506.395 291.638 567.949 317.564 633.126623 276.966138 856.941623 135.370138 859.080177 138.750462 635.253319 280.353906 568.306142 322.054535 504.343936 295.114337 219.587261 70.497578"/>
                            <path d="M640.0286,255.5631 C640.0286,255.5631 593.6696,268.4401 580.7916,290.5901 C567.9136,312.7401 572.0346,350.8571 610.1526,366.8261 C648.2706,382.7941 663.7236,396.1871 653.9366,370.9471 C644.1496,345.7071 626.1206,299.3461 640.0286,255.5631" id="Fill-42" fill="#AFDEFF"/>
                            <path d="M505.0706,284.9234 C505.0706,284.9234 500.4346,336.4344 472.1036,376.6124 C443.7736,416.7914 418.5326,420.9114 427.8046,430.6984 C437.0766,440.4854 451.4996,445.1214 460.7716,457.4854 C470.0436,469.8474 469.5286,469.3314 491.1626,443.5764 C512.7976,417.8204 560.1876,360.6444 561.2176,309.6494 C561.2176,309.6494 509.1916,267.9254 505.0706,284.9234" id="Fill-44" fill="#AFDEFF"/>
                        </g>
                    </g>
                </g>
                <g id="Expression" transform="translate(1633.000000, 1412.000000) scale(1 1)" fill="#000">
                    <defs>
                        <polygon id="expressionsmile-path-1" points="0.0345903013 0.044 67.6399607 0.044 67.6399607 19.4316 0.0345903013 19.4316"/>
                    </defs>
                    <g id="Expression/Smile" stroke="none" stroke-width="1" fill="none" fill-rule="evenodd">
                        <g id="Group-124" transform="translate(25.000000, 52.000000)" fill="#000" fill-rule="nonzero">
                            <path d="M98.9388073,0.515726772 L102.747593,1.73767323 L102.375135,2.93095324 C102.075892,3.9043293 101.742122,5.01790967 101.382468,6.25291663 C100.354215,9.78380887 99.3257634,13.5761133 98.3662837,17.478955 C97.2996742,21.8175645 96.3854385,26.0250163 95.6702376,29.9976992 L95.4631649,31.1740325 C93.7257688,41.2776329 93.4803733,48.9926374 95.0328764,53.1417647 L95.1244408,53.3771728 C104.002358,75.340079 91.9464166,86.4779502 66.6424816,78.6786942 L65.8716485,78.4365483 L67.0907515,74.6268517 C89.8846425,81.9208968 99.0260452,73.7026714 91.4159925,54.8763096 C89.3210345,49.6942966 89.6433125,40.8993486 91.7335247,29.288974 C92.4647551,25.2272527 93.3964651,20.9393815 94.4819426,16.5240234 C95.3476055,13.0027971 96.2678852,9.57278889 97.1943734,6.33814281 L97.5420029,5.13451153 C97.7507758,4.41761123 97.9510908,3.74056192 98.1413397,3.10683734 L98.6297394,1.50244969 L98.9388073,0.515726772 Z" id="Stroke-114"/>
                            <path d="M0.1850015,153.534088 L2.1419985,150.045512 L2.85620174,150.434727 L3.51128674,150.782909 C4.50308988,151.305335 5.6321651,151.880908 6.88714027,152.498006 L7.43266178,152.764985 C11.6537624,154.821142 16.3218862,156.878362 21.3004212,158.797989 C32.7483158,163.212076 44.0600582,166.224884 54.584272,167.202241 C59.3535856,167.645156 63.8735301,167.656119 68.1063644,167.201856 L68.9490919,167.10479 L69.4379081,171.07481 C64.6629697,171.662733 59.5745075,171.682884 54.2143935,171.185103 C43.2765951,170.169337 31.6251616,167.066055 19.8613669,162.530163 C14.7706849,160.567294 9.99959664,158.464698 5.68097489,156.361037 L4.04785364,155.55429 C3.35348222,155.206284 2.70158001,154.872883 2.09423579,154.556252 L0.962732129,153.958187 L0.1850015,153.534088 Z" id="Stroke-122"/>
                        </g>
                        <g id="Group-16" transform="translate(27.000000, 30.000000)">
                            <path d="M71.0371,131.9951 C52.1661,131.9951 37.9381,123.3511 37.2701,122.9381 C35.8611,122.0681 35.4251,120.2191 36.2961,118.8091 C37.1651,117.4011 39.0141,116.9631 40.4241,117.8341 C40.7061,118.0061 57.4191,128.0481 77.5681,125.6031 C79.2011,125.4051 80.7071,126.5751 80.9081,128.2201 C81.1081,129.8641 79.9361,131.3601 78.2911,131.5591 C75.8141,131.8611 73.3881,131.9951 71.0371,131.9951" id="Fill-3" fill="#000"/>
                            <path d="M78.8252,103.1664 C74.7822,103.1664 69.7382,102.3754 63.4432,100.3614 L64.6612,96.5514 C76.3852,100.3024 85.0452,99.9964 89.0462,95.6874 C92.4492,92.0204 92.4282,85.3134 88.9872,76.8014 C86.6522,71.0264 87.2292,60.0734 90.7022,44.2454 C93.2432,32.6624 96.4772,22.5414 96.5102,22.4404 L100.3182,23.6624 C96.8112,34.5954 88.6062,65.1874 92.6952,75.3024 C97.8932,88.1604 95.1742,94.9644 91.9772,98.4084 C89.6972,100.8664 85.7182,103.1664 78.8252,103.1664" id="Fill-5" fill="#000"/>
                            <g id="Group-9" transform="translate(0.000000, 0.956000)">
                                <mask id="expressionsmile-mask-2" fill="#fff">
                                    <use xlink:href="#expressionsmile-path-1"/>
                                </mask>
                                <g id="Clip-8"/>
                                <path d="M62.1387,19.4316 C61.5377,19.4316 60.9257,19.3316 60.3267,19.1226 C54.4907,17.0866 37.6337,11.6746 29.8217,11.0966 C22.4657,10.5516 11.2427,14.1856 7.5387,15.6326 C4.7097,16.7366 1.5207,15.3416 0.4147,12.5146 C-0.6923,9.6866 0.7007,6.4986 3.5277,5.3896 C4.1637,5.1406 19.2597,-0.7164 30.6337,0.1266 C41.4887,0.9306 63.0387,8.4186 63.9507,8.7376 C66.8187,9.7386 68.3317,12.8746 67.3317,15.7426 C66.5397,18.0106 64.4127,19.4316 62.1387,19.4316" id="Fill-7" fill="#000" mask="url(#expressionsmile-mask-2)"/>
                            </g>
                            <path d="M154.6772,39.1645 C153.5752,39.1645 152.4632,38.8265 151.5062,38.1245 C148.4472,35.8845 139.0022,29.8175 132.1372,28.6695 C124.8122,27.4455 107.9602,28.8295 102.0842,29.4645 C99.1372,29.7795 96.4882,27.6525 96.1692,24.7055 C95.8492,21.7575 97.9802,19.1085 100.9272,18.7895 C101.8492,18.6895 123.6282,16.3615 133.9072,18.0795 C144.7152,19.8855 157.3282,29.0775 157.8602,29.4685 C160.2492,31.2235 160.7642,34.5835 159.0092,36.9735 C157.9572,38.4055 156.3282,39.1645 154.6772,39.1645" id="Fill-10" fill="#000"/>
                        </g>
                        <g id="Group-19" transform="translate(63.000000, 68.000000)" fill="#000">
                            <path d="M12.5215,6.6586 C12.5215,9.9056 9.8885,12.5386 6.6415,12.5386 C3.3945,12.5386 0.7615,9.9056 0.7615,6.6586 C0.7615,3.4106 3.3945,0.7786 6.6415,0.7786 C9.8885,0.7786 12.5215,3.4106 12.5215,6.6586" id="Fill-10"/>
                            <path d="M87.7615,13.3383 C87.7615,16.5863 85.1285,19.2183 81.8815,19.2183 C78.6345,19.2183 76.0015,16.5863 76.0015,13.3383 C76.0015,10.0913 78.6345,7.4583 81.8815,7.4583 C85.1285,7.4583 87.7615,10.0913 87.7615,13.3383" id="Fill-12"/>
                        </g>
                    </g>
                </g>
                <g id="Hairstyle" transform="translate(1142.000000, 1085.000000) scale(1 1)" fill="#000">
                    <defs>
                        <polygon id="hairstylefancy-bun-path-1" points="0 0.974 166.34437 0.974 166.34437 155.077511 0 155.077511"/>
                        <polygon id="hairstylefancy-bun-path-3" points="0.58787431 0.1508 87.7709 0.1508 87.7709 284 0.58787431 284"/>
                    </defs>
                    <g id="Hairstyle/Fancy Bun" stroke="none" stroke-width="1" fill="none" fill-rule="evenodd">
                        <g id="Group-9" transform="translate(401.000000, 115.000000)">
                            <path d="M59.2709,247.6778 C59.2709,247.6778 68.2709,212.6778 139.7709,179.1778 C198.6589,151.5878 265.7709,194.1778 272.7709,205.1778 C277.9349,213.2928 282.7709,110.1778 173.7709,86.1778 C81.3429,65.8268 6.2709,165.6778 37.2709,254.6778 C37.2709,254.6778 41.2709,244.6778 59.2709,247.6778" id="Fill-1" fill="#9b5120"/>
                            <g id="Group-5" transform="translate(0.000000, 0.027000)">
                                <mask id="hairstylefancy-bun-mask-2" fill="#fff">
                                    <use xlink:href="#hairstylefancy-bun-path-1"/>
                                </mask>
                                <g id="Clip-4"/>
                                <path d="M155.6107,25.8392 C178.1657,57.1482 164.0177,105.8922 124.0107,134.7132 C84.0057,163.5352 33.2887,161.5202 10.7337,130.2112 C-11.8213,98.9032 2.3267,50.1582 42.3327,21.3372 C82.3397,-7.4838 133.0547,-5.4688 155.6107,25.8392" id="Fill-3" fill="#9b5120" mask="url(#hairstylefancy-bun-mask-2)"/>
                            </g>
                            <g id="Group-8" transform="translate(54.000000, 172.027000)">
                                <mask id="hairstylefancy-bun-mask-4" fill="#fff">
                                    <use xlink:href="#hairstylefancy-bun-path-3"/>
                                </mask>
                                <g id="Clip-7"/>
                                <path d="M18.7709,19.1508 C18.7709,19.1508 -8.9411,84.1358 13.0829,125.6688 C35.1059,167.2018 -15.9441,246.0618 6.3649,284.0008 C6.3649,284.0008 4.9509,252.7268 25.0839,212.8698 C45.2169,173.0108 54.3189,156.4838 41.7359,125.7148 C29.1519,94.9478 66.4249,13.2038 87.7709,0.1508 L18.7709,19.1508 Z" id="Fill-6" fill="#9b5120" mask="url(#hairstylefancy-bun-mask-4)"/>
                            </g>
                        </g>
                    </g>
                </g>
                <g id="Accessories" transform="translate(1586.000000, 1445.000000) scale(1 1)">
                    <g id="Accessories/None" stroke="none" stroke-width="1" fill="none" fill-rule="evenodd" fill-opacity="0"/>
                </g>
                <g id="Facial Hair" transform="translate(1596.000000, 1446.000000) scale(1 1)">
                    <g id="Facial Hair/None" stroke="none" stroke-width="1" fill="none" fill-rule="evenodd" fill-opacity="0"/>
                </g>
            </g>
        </g>
        <g transform="translate(-114.000000, 624.000000) scale(1 1)" id="Master/Character/Standing">
            <defs>
                <polygon id="mastercharacterstanding-path-1" points="0.0001 0.000131119082 485.023 0.000131119082 485.023 527.3 0.0001 527.3"/>
            </defs>
            <g id="Master/Character/Standing" stroke="none" stroke-width="1" fill="none" fill-rule="evenodd">
                <g id="Lower Body/Standing" transform="translate(503.000000, 1151.000000) scale(1 1)">
                    <defs>
                        <polygon id="lower-bodystandingyoga-pose-path-1" points="0.799884371 0.5342 960.911 0.5342 960.911 1289.69417 0.799884371 1289.69417"/>
                    </defs>
                    <g id="Lower Body/Standing/Yoga Pose" stroke="none" stroke-width="1" fill="none" fill-rule="evenodd">
                        <path d="M873.5,0.5 L422.505208,0.5 L424.494845,192.5 L873.5,192.5 L873.5,0.5 Z" id="Rectangle" stroke="#979797" fill="#FC7750"/>
                        <g id="Group-109" transform="translate(298.000000, 99.000000)">
                            <path d="M553.7065,733.4568 C553.7065,733.4568 508.5265,745.9198 453.9995,749.0358 C399.4715,752.1518 391.6815,769.2888 407.2615,876.7858 C422.8405,984.2828 421.2825,1158.7708 452.4415,1130.7288 C483.5995,1102.6858 468.0205,951.5658 539.6855,872.1118 C611.3495,792.6578 602.0025,822.2588 602.0025,822.2588 L553.7065,733.4568 Z" id="Fill-96" fill="#7d4439"/>
                            <path d="M253.0398,1251.7655 C253.0398,1251.7655 263.8988,1297.1755 233.2958,1312.9715 C202.6928,1328.7665 148.3978,1366.2795 71.3958,1393.9205 C-5.6052,1421.5625 -22.3872,1448.2165 33.8828,1455.1265 C90.1528,1462.0365 151.3588,1456.1145 204.6678,1441.3065 C257.9758,1426.4985 351.7588,1471.9095 408.0288,1425.5115 C464.2988,1379.1135 385.3238,1305.0745 388.2848,1287.3045 C391.2468,1269.5355 253.0398,1251.7655 253.0398,1251.7655" id="Fill-98" fill="#7d4439"/>
                            <g id="Group-102" transform="translate(124.000000, 0.000000)">
                                <mask id="lower-bodystandingyoga-pose-mask-2" fill="#fff">
                                    <use xlink:href="#lower-bodystandingyoga-pose-path-1"/>
                                </mask>
                                <g id="Clip-101"/>
                                <path d="M0.8203,24.7802 C0.8203,24.7802 -0.9787,308.8502 29.1983,644.5692 C59.3753,980.2882 97.0963,1248.1082 97.0963,1248.1082 C97.0963,1248.1082 232.8923,1316.0062 330.9673,1278.2852 C330.9673,1278.2852 241.4153,244.9012 305.5413,256.2172 C369.6673,267.5342 674.0173,387.2312 665.8283,395.4202 C552.7743,508.4732 410.1823,716.2392 410.1823,716.2392 L455.4473,923.7062 C455.4473,923.7062 960.9113,425.7862 960.9113,327.7112 C960.9113,229.6352 451.4103,0.5342 451.4103,0.5342 C451.4103,0.5342 272.7903,68.7462 0.8203,24.7802" id="Fill-100" fill="#FC7750" mask="url(#lower-bodystandingyoga-pose-mask-2)"/>
                            </g>
                            <path d="M913.857471,324.160504 L914.827529,328.041096 C891.312393,333.919332 866.71855,345.155924 842.043937,360.191686 C828.850456,368.231286 816.472313,376.847505 805.269922,385.462686 L803.725175,386.656597 C800.935377,388.823652 798.378953,390.869185 796.073588,392.764719 L794.841121,393.783599 C793.918301,394.55073 793.098809,395.241934 792.386396,395.851164 L791.153979,396.9175 L788.503021,393.9221 L789.278533,393.247417 L790.103884,392.540526 C790.536597,392.17211 791.004176,391.777201 791.505927,391.356924 L792.284096,390.707625 C795.340418,388.166936 798.871012,385.337673 802.831442,382.29191 C814.142268,373.593338 826.63723,364.895804 839.96249,356.775902 C864.545004,341.796261 889.082692,330.52388 912.678471,324.459382 L913.857471,324.160504 Z" id="Stroke-103" fill="#000" fill-rule="nonzero"/>
                            <path d="M592.706241,7.01879171 L593.346559,10.9672083 L592.863648,11.0568091 L592.306535,11.1707958 C592.107481,11.2130085 591.895123,11.2594967 591.669602,11.3104354 L591.321464,11.3902032 C589.599333,11.790215 587.576114,12.3364988 585.269292,13.0509409 C578.644731,15.1026233 571.09561,18.0896264 562.761476,22.1872928 C539.16536,33.7888578 514.141526,51.7840569 488.76608,77.5328606 L487.848744,78.4669191 L484.990056,75.6690809 C510.99809,49.0953958 536.711043,30.5382393 560.996574,18.5977072 C569.520518,14.4067173 577.264108,11.3427673 584.085914,9.22999662 C586.485321,8.48688015 588.601378,7.91552911 590.416449,7.49392966 L591.182153,7.32084357 C591.572215,7.23531397 591.903139,7.16718133 592.173652,7.11485264 L592.706241,7.01879171 Z" id="Stroke-105" fill="#000" fill-rule="nonzero"/>
                            <path d="M414.4663,157.7227 C414.4663,184.566978 417.646256,208.659961 422.942934,229.636049 L423.450829,231.612265 C425.068761,237.798094 426.77489,243.297073 428.48351,248.079565 L428.753301,248.828736 C429.443295,250.729538 430.082722,252.372454 430.654939,253.751726 L431.086773,254.770771 L431.355056,255.374913 L427.727544,257.060487 L427.518922,256.595443 L427.200863,255.858316 L426.960278,255.284526 C426.365259,253.850292 425.704051,252.151413 424.993362,250.193601 C422.969841,244.619191 420.949025,238.077855 419.064666,230.615351 C413.785455,209.70844 410.582099,185.77908 410.469377,159.176404 L410.4663,157.7227 L414.4663,157.7227 Z" id="Stroke-107" fill="#000" fill-rule="nonzero"/>
                        </g>
                    </g>
                </g>
                <g id="Upper Body" transform="translate(376.000000, 277.000000) scale(1 1)">
                    <defs>
                        <polygon id="upper-bodywith-laptop-path-1" points="0.1808 0.1553 298.703924 0.1553 298.703924 343 0.1808 343"/>
                        <polygon id="upper-bodywith-laptop-path-3" points="0.550418291 0.388 141.311628 0.388 141.311628 92.088834 0.550418291 92.088834"/>
                    </defs>
                    <g id="Upper Body/With Laptop" stroke="none" stroke-width="1" fill="none" fill-rule="evenodd">
                        <path d="M724.954254,220 C724.954254,220 721.26343,301.153386 673.924004,329.799638 C630.972611,355.790794 721.968632,506.610475 819.857852,497.613536 C873.442212,492.688212 886,346.158072 886,346.158072 C886,346.158072 842.733964,337.796917 858.715877,271.819367 L724.954254,220 Z" id="Neck" fill="#7d4439"/>
                        <path d="M803.337113,302.515641 C739.876612,294.840687 694.077698,253.11575 687.664652,183.898064 C669.216286,186.83496 664.86504,138.764927 670.003065,123.322958 C675.146083,107.858975 691.933027,116.900812 691.933027,116.900812 C692.862251,114.457234 693.652358,111.898916 694.303348,109.225857 C722.02532,-4.48555283 799.669805,0.0243586862 799.669805,0.0243586862 C942.344355,7.45715716 908.914243,153.120195 900.762895,191.763142 C892.610548,230.410091 864.683894,309.927426 803.337113,302.515641 Z" id="Head" fill="#7d4439"/>
                        <g id="Group-25" transform="translate(266.000000, 320.000000)">
                            <g id="Group-19" transform="translate(0.000000, 0.612000)">
                                <path d="M105.050047,289.936251 C33.5168788,376.727653 8.92577071,446.699768 31.2767231,499.852598 C64.8031518,579.581843 146.951413,496.522302 192.490195,395.604271 C222.849383,328.325583 260.283957,276.925705 304.793918,241.404634 L105.050047,289.936251 Z" id="Path" fill="#7d4439" transform="translate(164.044509, 386.561708) rotate(-10.000000) translate(-164.044509, -386.561708)"/>
                                <g id="Group-3" transform="translate(695.000000, 361.000000)">
                                    <mask id="upper-bodywith-laptop-mask-2" fill="#fff">
                                        <use xlink:href="#upper-bodywith-laptop-path-1"/>
                                    </mask>
                                    <g id="Clip-2"/>
                                </g>
                                <path d="M280.8551,41.1066 C363.7551,15.4706 389.3011,14.0266 389.3011,14.0266 L476.8081,32.8846 C476.8081,32.8846 524.7691,95.9186 528.8791,152.1006 C528.8791,152.1006 530.2491,78.1046 561.7671,27.4036 C561.7671,27.4036 700.4791,26.1286 752.7731,80.7306 C835.3711,166.9736 833.813167,318.3006 833.813167,318.3006 L697.5221,332.3166 L752.7731,255.388 C752.7731,255.388 756.263179,568.804637 748.041179,649.652637 C644,764.422821 270,675.591107 270,675.591107 C270,675.591107 278.1151,416.25183 279.4851,345.3136 C280.8551,274.37537 254.6201,283.9566 218.4531,371.8906 C188.8861,443.7816 94.8851,294.7296 94.8851,294.7296 C94.8851,294.7296 152.5811,80.7726 280.8551,41.1066 Z" id="Fill-4" fill="#1BC0D7"/>
                                <path d="M704.0424,431.7121 C704.0424,431.7121 771.3394,407.5801 839.7714,421.8301 C839.7714,421.8301 838.8854,399.4921 839.5874,369.9961 C840.1634,345.7711 853.4304,308.2791 805.5564,312.3171 C749.8404,317.0161 725.9594,317.5081 701.7344,328.4671 C701.7344,328.4671 695.9674,408.6411 704.0424,431.7121" id="Fill-6" fill="#FCEBEC"/>
                                <path d="M63.9394,341.7921 L93.2847063,249.4471 C93.2847063,249.4471 201.904517,226.7581 244.9394,320.6421 L212.685338,404.2371 C212.685338,404.2371 152.370466,315.2971 63.9394,341.7921" id="Fill-10" fill="#237978"/>
                                <g id="Group-14" transform="translate(338.000000, 0.000000)">
                                    <mask id="upper-bodywith-laptop-mask-4" fill="#fff">
                                        <use xlink:href="#upper-bodywith-laptop-path-3"/>
                                    </mask>
                                    <g id="Clip-13"/>
                                    <path d="M52.6986,0.4875 C52.6986,0.4875 -2.7084,19.2415 0.7016,24.3555 C4.1106,29.4695 102.4766,94.8915 109.8506,91.9955 C117.2246,89.0985 144.8776,36.6905 140.9276,31.4235 C136.9766,26.1565 57.4346,-1.4785 52.6986,0.4875" id="Fill-12" fill="#237978" mask="url(#upper-bodywith-laptop-mask-4)"/>
                                </g>
                                <path d="M650.6088,23.2834 C650.6088,23.2834 698.2988,57.1534 693.5648,61.0734 C688.8308,64.9934 575.8238,99.4234 569.5908,94.5314 C563.3598,89.6394 551.9168,31.4994 557.2118,27.5884 C562.5088,23.6774 646.6358,20.0404 650.6088,23.2834" id="Fill-15" fill="#237978"/>
                                <path d="M123.259851,445.031349 C166.893554,466.002349 153.233851,474.731349 174.524851,487.829349 C195.815851,500.928349 228.449851,535.078349 239.694851,527.258349 C250.938851,519.438349 247.765851,512.512349 236.068851,502.885349 C224.372851,493.257349 188.169851,461.709349 192.145851,456.921349 C196.122851,452.133349 257.341851,520.465349 275.349851,508.401349 C293.357851,496.336349 254.631851,465.557349 235.864851,452.620349 C217.098851,439.684349 206.592851,428.138349 212.609851,426.196349 C218.626851,424.255349 289.502851,499.367349 303.228851,487.951349 C316.956851,476.535349 291.560851,450.435349 272.692851,437.256349 C253.825851,424.077349 224.797851,402.906349 224.797851,402.906349 C224.797851,402.906349 262.223851,418.298349 291.053851,445.811349 C319.883851,473.323349 326.829851,471.564349 330.441851,465.221349 C334.053851,458.878349 304.306851,424.060349 304.306851,424.060349 C304.306851,424.060349 305.316851,383.621349 266.957851,370.249349 C228.598851,356.878349 199.545851,336.218349 159.169851,339.440349 C118.793851,342.660349 106.355352,366.565153 106.355352,366.565153 C106.355352,366.565153 79.6261472,424.060349 123.259851,445.031349 Z" id="Fill-8" fill="#7d4439" transform="translate(214.499157, 433.756203) rotate(30.000000) translate(-214.499157, -433.756203)"/>
                                <path d="M662.9867,209.88 L572.1647,209.88 C568.4677,209.88 565.4707,206.884 565.4707,203.188 L565.4707,195.319 C565.4707,191.624 568.4677,188.627 572.1647,188.627 L662.9867,188.627 C666.6827,188.627 669.6787,191.624 669.6787,195.319 L669.6787,203.188 C669.6787,206.884 666.6827,209.88 662.9867,209.88" id="Fill-17" fill="#237978"/>
                            </g>
                            <g id="Group-24" transform="translate(397.000000, 175.000000)">
                                <path d="M185.2874,372.4279 L2.5724,321.7809 C2.5724,321.7809 -8.7866,309.7899 24.6594,306.6349 C58.1044,303.4799 407.5584,294.1429 407.5584,294.1429 L185.2874,372.4279 Z" id="Fill-20" fill="#204EB2"/>
                                <path d="M703.3129,371.8791 L190.8269,371.8791 C181.3339,371.8791 173.6369,364.1841 173.6369,354.6901 L220.1609,17.2031 C220.1609,7.7101 227.8559,0.0141 237.3489,0.0141 L749.8349,0.0141 C759.3289,0.0141 767.0249,7.7101 767.0249,17.2031 L720.5009,354.6901 C720.5009,364.1841 712.8059,371.8791 703.3129,371.8791" id="Fill-22" fill="#3267C8"/>
                            </g>
                            <g id="Group-2" transform="translate(893.239277, 513.555823) scale(-1, 1) rotate(-72.000000) translate(-893.239277, -513.555823) translate(800.239277, 441.555823)">
                                <path d="M34.8019558,0.721228206 C34.8019558,0.721228206 30.1385768,5.272 25.5025768,10.938 C20.8665768,16.604 24.9875768,17.635 14.6855768,28.452 C4.38357684,39.27 -14.1604232,66.57 18.2905768,108.294 C50.7435768,150.018 61.5605768,146.411 74.9535768,139.2 C88.3455768,131.988 89.8915768,126.838 115.131577,124.262 C140.371577,121.687 164.581577,96.961 164.066577,90.78 L163.551577,84.599 C163.551577,84.599 186.730577,75.842 185.186577,66.055 C183.640577,56.268 176.944577,57.298 176.944577,57.298 C176.944577,57.298 181.580577,52.662 177.974577,44.42 C174.368577,36.179 157.370577,37.724 137.795577,40.3 C118.222577,42.875 67.7415768,53.177 64.6505768,51.117 C61.5605768,49.057 62.5905768,45.966 74.4375768,44.42 C86.2855768,42.875 134.190577,42.36 134.190577,28.967 C134.190577,15.574 119.767577,12.999 91.9515768,13.514 C64.1355768,14.029 58.9845768,12.483 52.2885768,15.06 L39.9277765,16.4968824 C36.5105627,5.9797796 34.8019558,0.721228206 34.8019558,0.721228206 Z" id="Fill-12" fill="#7d4439"/>
                                <path d="M177.350177,57.2402 C177.350177,57.2402 178.830177,56.1722 167.807177,60.3812 C163.793177,61.9132 158.133177,63.5122 150.159177,65.0242 C120.282177,70.6902 73.4081768,80.9932 58.9851768,83.0532 C44.5611768,85.1142 56.4091768,88.2042 89.3761768,81.5082 C122.343177,74.8112 161.588177,65.8282 163.350177,65.2402 C166.350177,64.2402 175.350177,61.2402 177.350177,57.2402" id="Fill-14" fill="#000"/>
                                <path d="M116.349877,99.2405 C103.608877,102.4255 82.3498768,107.2405 80.1038768,107.7785 C76.0968768,108.7395 68.2558768,110.3545 68.2558768,110.3545 C68.2558768,110.3545 68.3498768,113.2405 92.3498768,108.2405 C98.3048768,107.0005 109.349877,105.2405 116.349877,103.2405 C122.788877,101.4005 146.037877,95.4165 149.128877,92.8405 C152.218877,90.2645 152.733877,87.6895 152.733877,87.6895 C152.733877,87.6895 128.349877,96.2405 116.349877,99.2405 Z" id="Fill-16" fill="#000"/>
                            </g>
                        </g>
                    </g>
                </g>
                <g id="Expression" transform="translate(1098.000000, 360.000000) scale(1 1)" fill="#000">
                    <g id="Expression/Meditating" stroke="none" stroke-width="1" fill="none" fill-rule="evenodd">
                        <g id="Group-124" transform="translate(25.000000, 31.000000)" fill="#000" fill-rule="nonzero">
                            <path d="M104.685189,41.7608422 C105.799739,40.6260634 107.594825,40.5649295 108.78246,41.5890238 L109.323265,42.0922215 C109.679851,42.417346 110.098676,42.7830843 110.574652,43.1792057 C111.94412,44.3189167 113.484129,45.4610626 115.151599,46.5241767 C119.702796,49.4258418 124.295338,51.172265 128.558587,51.2424016 C132.874539,51.3130298 136.865025,49.9074098 140.437409,47.4948081 C141.67134,46.6614747 142.761501,45.768172 143.691014,44.8802215 L143.992411,44.5872953 C144.224631,44.3574693 144.409243,44.1644586 144.544403,44.0166431 L144.733887,43.8011958 C145.791956,42.526184 147.683292,42.3503175 148.958304,43.408387 C150.233316,44.4664564 150.409182,46.3577925 149.351113,47.6328042 L149.150042,47.8672558 C148.847545,48.210262 148.407828,48.6720596 147.83555,49.2187491 C146.672781,50.3295265 145.323752,51.4349517 143.795434,52.4670978 C139.27381,55.5207674 134.125278,57.3343007 128.460152,57.2415941 C122.909111,57.1502715 117.329711,55.028572 111.926036,51.5834002 C110.031541,50.3755444 108.290777,49.0845082 106.736552,47.7910371 L106.286566,47.4122537 C105.573365,46.8047902 105.045411,46.3196388 104.723342,46.0033113 C103.541281,44.8423217 103.524199,42.9429035 104.685189,41.7608422 Z" id="Stroke-110"/>
                            <path d="M38.7253835,117.884449 C39.5642128,116.527263 41.3095678,116.07235 42.6962173,116.818359 L43.3869917,117.21948 L43.8984869,117.502848 C44.2590401,117.698929 44.6584684,117.908937 45.0953445,118.130389 C46.9879034,119.089729 49.1612767,120.052834 51.576502,120.953225 C60.5558907,124.300723 70.2239338,125.866606 79.9973044,124.67862 C81.6420524,124.478696 83.1374551,125.649956 83.3373798,127.294704 C83.5373044,128.939452 82.3660437,130.434855 80.7212956,130.63478 C69.894657,131.950794 59.2949096,130.234008 49.4806187,126.57526 C46.8465621,125.593288 44.4687237,124.539577 42.3825599,123.482099 L41.6157512,123.086639 C40.7409474,122.627255 40.0965569,122.258685 39.7000485,122.013616 C38.290664,121.142525 37.8542916,119.293833 38.7253835,117.884449 Z" id="Stroke-112"/>
                            <path d="M98.9388073,21.5157268 L102.747593,22.7376732 L102.375135,23.9309532 C102.075892,24.9043293 101.742122,26.0179097 101.382468,27.2529166 C100.354215,30.7838089 99.3257634,34.5761133 98.3662837,38.478955 C97.2996742,42.8175645 96.3854385,47.0250163 95.6702376,50.9976992 L95.4631649,52.1740325 C93.7257688,62.2776329 93.4803733,69.9926374 95.0328764,74.1417647 L95.1244408,74.3771728 C104.002358,96.340079 91.9464166,107.47795 66.6424816,99.6786942 L65.8716485,99.4365483 L67.0907515,95.6268517 C89.8846425,102.920897 99.0260452,94.7026714 91.4159925,75.8763096 C89.3210345,70.6942966 89.6433125,61.8993486 91.7335247,50.288974 C92.4647551,46.2272527 93.3964651,41.9393815 94.4819426,37.5240234 C95.3476055,34.0027971 96.2678852,30.5727889 97.1943734,27.3381428 L97.5420029,26.1345115 C97.7507758,25.4176112 97.9510908,24.7405619 98.1413397,24.1068373 L98.6297394,22.5024497 L98.9388073,21.5157268 Z" id="Stroke-114"/>
                            <path d="M24.5912986,0.515294847 C27.6392394,0.103272361 30.4710762,-0.0333671966 33.0631806,0.158696725 C36.7115321,0.428668329 41.5437912,1.40832846 47.38095,2.94765852 C49.16614,3.41843493 51.0205155,3.93578045 52.9276851,4.49220122 C56.1314208,5.42689786 59.3319836,6.42632221 62.3826864,7.42579929 L64.3883843,8.09051311 L66.3809754,8.76899282 C69.2488284,9.77010581 70.7621202,12.9065224 69.7610072,15.7743754 C68.784922,18.5705321 65.7789638,20.079009 62.9711796,19.2247943 L62.6828368,19.1290737 L61.7501044,18.8096194 C60.9247361,18.529366 59.9876716,18.2164443 58.9579598,17.8790882 C56.0143005,16.9146808 52.9257075,15.9502208 49.8468536,15.0519587 C48.0274857,14.5211542 46.264248,14.0292349 44.57601,13.5840259 L43.4692061,13.2961425 C38.7383101,12.0831846 34.8659461,11.3221737 32.2508875,11.1286639 C30.4966745,10.9986842 28.4072689,11.0995005 26.0648822,11.4161458 C23.2480808,11.7969227 20.1879155,12.4702927 17.0440173,13.3532292 C15.4806567,13.7922855 13.9823806,14.2588747 12.5892526,14.7284835 L11.9016364,14.9634261 C11.4618938,15.1157145 11.0608605,15.2586308 10.7024987,15.389676 L9.97161227,15.6633149 C7.14357473,16.7719229 3.95229301,15.3780498 2.84368505,12.5500123 C1.7350771,9.72197473 3.12895018,6.53069301 5.95698773,5.42208505 L6.52985093,5.20370717 C6.98422439,5.03423142 7.580659,4.81888054 8.30194561,4.56908982 C10.0818577,3.95268364 12.0231675,3.33772818 14.0698269,2.76294164 C17.6714831,1.75144773 21.2151691,0.971682068 24.5912986,0.515294847 Z" id="Stroke-116"/>
                            <path d="M121.789545,16.5878801 L123.114219,16.5529702 C128.555995,16.4306526 133.021889,16.6000706 136.338056,17.1542512 C138.168033,17.4600991 140.074506,17.9728696 142.05661,18.6687631 C144.999596,19.7020115 148.057071,21.1185695 151.173952,22.8231086 C153.163457,23.9111153 155.079106,25.0624467 156.876125,26.2225048 L157.638883,26.7200477 C158.857885,27.5234673 159.765181,28.1586854 160.289098,28.5434618 C162.679021,30.2986767 163.193553,33.6589748 161.438338,36.0488977 C159.730562,38.3742281 156.503291,38.9241706 154.128755,37.3354869 L153.387738,36.810348 L152.775165,36.3869315 C152.451527,36.1659242 152.102331,35.9314768 151.729689,35.6858759 C149.947809,34.5114755 148.017701,33.3358642 146.02174,32.244327 C143.380044,30.7996542 140.834405,29.6202345 138.499485,28.8004711 C137.066648,28.2974188 135.746258,27.9422828 134.568033,27.7453637 C131.847034,27.2906445 127.508258,27.1586717 122.11249,27.3210227 C118.82153,27.420043 115.289632,27.6221963 111.690697,27.8970199 L110.130765,28.0203831 C109.109219,28.103955 108.126228,28.1898666 107.192238,28.2762012 L104.514558,28.5395365 C101.566608,28.8590654 98.9177923,26.7283087 98.5982635,23.7803582 C98.2867228,20.9061064 100.304485,18.31622 103.137903,17.8923638 L103.931548,17.8040918 L105.143479,17.6838888 L105.484548,17.6512271 C107.138496,17.4939444 108.952748,17.3368342 110.873097,17.1901915 C114.625356,16.9036597 118.316967,16.6923651 121.789545,16.5878801 Z" id="Stroke-118"/>
                            <path d="M17.7652887,31.9386422 C18.8798388,30.8038634 20.6749245,30.7427295 21.8625603,31.7668238 L22.403365,32.2700215 L22.8608172,32.6790108 C23.104155,32.8925979 23.3691663,33.1193328 23.6547521,33.3570057 C25.0242202,34.4967167 26.5642285,35.6388626 28.2316992,36.7019767 C32.782896,39.6036418 37.3754377,41.350065 41.6384215,41.4201973 C45.9543059,41.4904425 49.9447471,40.0848333 53.5171065,37.6725085 C54.7511834,36.8391674 55.8414724,35.9458579 56.7710952,35.0579011 L57.2061483,34.6315612 C57.4192767,34.4167948 57.5844234,34.2405199 57.6997444,34.1111159 L57.8140951,33.9788655 C58.8722365,32.7039134 60.7635824,32.5281537 62.0385345,33.5862951 C63.3134866,34.6444365 63.4892463,36.5357824 62.4311049,37.8107345 L62.2300134,38.0451828 C61.9274859,38.3881843 61.4877247,38.8499766 60.9153892,39.3966598 C59.7525044,40.5074237 58.403344,41.612835 56.8748828,42.6449665 C52.3534608,45.6981695 47.2052461,47.5115975 41.5402524,47.4193941 C35.9892107,47.3280715 30.409811,45.206372 25.0061361,41.7612002 C23.1116412,40.5533444 21.3708772,39.2623082 19.8166522,37.9688371 L19.3666664,37.5900537 C18.6534646,36.9825902 18.1255109,36.4974388 17.8034422,36.1811113 C16.6213809,35.0201217 16.604299,33.1207035 17.7652887,31.9386422 Z" id="Stroke-120"/>
                            <path d="M0.1850015,174.534088 L2.1419985,171.045512 L2.85620174,171.434727 L3.51128674,171.782909 C4.50308988,172.305335 5.6321651,172.880908 6.88714027,173.498006 L7.43266178,173.764985 C11.6537624,175.821142 16.3218862,177.878362 21.3004212,179.797989 C32.7483158,184.212076 44.0600582,187.224884 54.584272,188.202241 C59.3535856,188.645156 63.8735301,188.656119 68.1063644,188.201856 L68.9490919,188.10479 L69.4379081,192.07481 C64.6629697,192.662733 59.5745075,192.682884 54.2143935,192.185103 C43.2765951,191.169337 31.6251616,188.066055 19.8613669,183.530163 C14.7706849,181.567294 9.99959664,179.464698 5.68097489,177.361037 L4.04785364,176.55429 C3.35348222,176.206284 2.70158001,175.872883 2.09423579,175.556252 L0.962732129,174.958187 L0.1850015,174.534088 Z" id="Stroke-122"/>
                        </g>
                    </g>
                </g>
                <g id="Hairstyle" transform="translate(607.000000, 33.000000) scale(1 1)">
                    <g id="Hairstyle/Bob" stroke="none" stroke-width="1" fill="none" fill-rule="evenodd">
                        <path d="M359,546.688025 C359,546.688025 368.956,407.470025 401.03,324.865025 C441.336,221.054025 509.651,178.826025 568.391,198.822025 C568.391,198.822025 652.125,188.824025 678.37,262.560025 C704.615,336.296025 694.617,571.252025 694.617,571.252025 L628.379,566.253025 C628.379,566.253025 619.006,541.258025 623.38,522.512025 C623.38,522.512025 660.596,483.244025 671.063,424.277025 C685.12,345.101025 639.956,344.072025 601.838,327.200025 C563.72,310.328025 541.521,288.180025 541.521,288.180025 C541.521,288.180025 479.09,373.059025 489.759,552.915025 L359,546.688025 Z" id="Fill-1" fill="#ffc943"/>
                    </g>
                </g>
                <g id="Accessories" transform="translate(1051.000000, 393.000000) scale(1 1)" fill="#000">
                    <g id="Accessories/None" stroke="none" stroke-width="1" fill="none" fill-rule="evenodd" fill-opacity="0"/>
                </g>
                <g id="Facial Hair" transform="translate(1061.000000, 394.000000) scale(1 1)">
                    <g id="Facial Hair/None" stroke="none" stroke-width="1" fill="none" fill-rule="evenodd" fill-opacity="0"/>
                </g>
            </g>
        </g>
        <g id="Pet" transform="translate(5913.000000, 2466.467700) scale(1 1)">
            <defs>
                <polygon id="petcat-3-path-1" points="0 0.793997108 261.239057 0.793997108 261.239057 411.6245 0 411.6245"/>
            </defs>
            <g id="Pet/Cat 3" stroke="none" stroke-width="1" fill="none" fill-rule="evenodd">
                <g id="Animal" transform="translate(403.000000, 502.000000)">
                    <polygon id="Fill-1" fill="#ecafa3" points="521.6938 84.2598 513.1558 4.9768 555.3408 56.5328"/>
                    <polygon id="Fill-2" fill="#FC7750" points="584.2314 45.4671 513.1564 4.9761 555.6534 56.3971"/>
                    <polygon id="Fill-3" fill="#ecafa3" points="701.5959 -0.0001 631.8289 42.0569 674.3019 60.7719"/>
                    <polygon id="Fill-4" fill="#FC7750" points="674.5829 60.9979 698.8809 82.3479 701.5959 -0.0001"/>
                    <g id="Group-36" transform="translate(0.000000, 39.417000)">
                        <path d="M611.1626,442.8631 L611.1626,442.8631 C548.4126,442.8631 497.5446,391.9941 497.5446,329.2451 L497.5446,114.5631 C497.5446,51.8141 548.4126,0.9451 611.1626,0.9451 L611.1626,0.9451 C673.9116,0.9451 724.7806,51.8141 724.7806,114.5631 L724.7806,329.2451 C724.7806,391.9941 673.9116,442.8631 611.1626,442.8631" id="Fill-5" fill="#FC7750"/>
                        <path d="M608.6172,443.6253 L174.5362,443.6253 L174.5362,443.6253 C174.5362,307.4793 284.9042,197.1103 421.0502,197.1103 L608.6172,197.1103 L608.6172,443.6253 Z" id="Fill-7" fill="#FC7750"/>
                        <polyline id="Stroke-9" stroke="#E93737" stroke-width="3" points="488.3721 80.5457 572.9721 120.6067 485.8741 156.0887"/>
                        <line x1="492.909" y1="114.1" x2="573.633" y2="120.859" id="Stroke-11" stroke="#E93737" stroke-width="3"/>
                        <polyline id="Stroke-13" stroke="#E93737" stroke-width="3" points="745.8184 84.961 657.9504 117.229 741.4934 160.422"/>
                        <line x1="738.275" y1="117.97" x2="657.271" y2="117.422" id="Stroke-15" stroke="#E93737" stroke-width="3"/>
                        <path d="M619.9546,171.7391 L604.9596,172.1481 C590.0536,172.5541 577.6406,160.8011 577.2336,145.8941 C576.8276,130.9881 588.5806,118.5751 603.4876,118.1681 L618.4816,117.7591 C633.3886,117.3521 645.8016,129.1061 646.2076,144.0121 C646.6146,158.9191 634.8606,171.3321 619.9546,171.7391" id="Fill-17" fill="#FCEBEC"/>
                        <polygon id="Fill-19" fill="#E93737" points="598.1924 118.0843 612.7794 131.5383 626.2524 117.8293"/>
                        <polyline id="Stroke-21" stroke="#E93737" stroke-width="3" stroke-linecap="round" points="596.5449 141.4847 613.2659 131.0247 625.5889 142.6927"/>
                        <g id="Group-25" transform="translate(0.000000, 32.000000)">
                            <mask id="petcat-3-mask-2" fill="#fff">
                                <use xlink:href="#petcat-3-path-1"/>
                            </mask>
                            <g id="Clip-24"/>
                            <path d="M186.9585,365.5125 C186.9585,365.5125 -4.9925,329.9155 58.6715,141.1465 C58.6715,141.1465 90.0975,53.8595 201.8745,49.3085 C289.0295,45.7605 281.0735,-13.1125 172.3435,3.8595 C62.1495,21.0605 -10.5835,101.8685 1.2605,232.1565 C13.1045,362.4445 139.0545,405.2845 174.5365,411.6245 L186.9585,365.5125 Z" id="Fill-23" fill="#FC7750" mask="url(#petcat-3-mask-2)"/>
                        </g>
                        <path d="M719.4839,228.5203 L501.8239,228.5203 C495.6779,228.5203 490.6959,223.5393 490.6959,217.3933 L490.6959,207.2343 C490.6959,201.0893 495.6779,196.1073 501.8239,196.1073 L719.4839,196.1073 C725.6299,196.1073 730.6109,201.0893 730.6109,207.2343 L730.6109,217.3933 C730.6109,223.5393 725.6299,228.5203 719.4839,228.5203" id="Fill-26" fill="#E93737"/>
                        <path d="M711.4658,449.9661 L647.0518,449.9661 C624.2208,449.9661 605.7128,431.4581 605.7128,408.6271 L605.7128,405.5731 C605.7128,382.7421 624.2208,364.2341 647.0518,364.2341 L711.4658,364.2341 C734.2968,364.2341 752.8048,382.7421 752.8048,405.5731 L752.8048,408.6271 C752.8048,431.4581 734.2968,449.9661 711.4658,449.9661" id="Fill-28" fill="#ecafa3"/>
                        <path d="M564.8032,448.0496 L500.3892,448.0496 C477.5582,448.0496 459.0502,429.5416 459.0502,406.7096 L459.0502,403.6556 C459.0502,380.8246 477.5582,362.3166 500.3892,362.3166 L564.8032,362.3166 C587.6342,362.3166 606.1422,380.8246 606.1422,403.6556 L606.1422,406.7096 C606.1422,429.5416 587.6342,448.0496 564.8032,448.0496" id="Fill-32" fill="#ecafa3"/>
                    </g>
                </g>
            </g>
        </g>
    </g>
</svg>
