<svg viewBox="623.14 236.95 1083.721 2471.05" xmlns="http://www.w3.org/2000/svg" xmlns:xlink="http://www.w3.org/1999/xlink" overflow="visible">
    <defs>
        <polygon id="mastercharacterstanding-path-1" points="0.0001 0.000131119082 485.023 0.000131119082 485.023 527.3 0.0001 527.3"/>
    </defs>
    <g id="Master/Character/Standing" stroke="none" stroke-width="1" fill="none" fill-rule="evenodd">
        <g id="Lower Body/Standing" transform="translate(503.000000, 1151.000000) scale(1 1)">
            <g id="Lower Body/Standing/Pijamas with Socks" stroke="none" stroke-width="1" fill="none" fill-rule="evenodd">
                <g id="Group-14" transform="translate(396.000000, -1.000000)">
                    <polygon id="Fill-1" fill="#ecafa3" points="74.978 1433.748 191.732 1433.748 191.732 1289.977 74.978 1289.977"/>
                    <polygon id="Fill-2" fill="#ecafa3" points="618.6499 1404.5708 496.3369 1412.0968 489.0609 1293.8268 611.3729 1286.3008"/>
                    <g id="Group-13" transform="translate(0.000000, 0.010000)">
                        <g id="Group-5" transform="translate(439.000000, 1397.000000)" fill="#FEE1E6">
                            <path d="M3.3638,148.0686 C-12.5162,129.0656 50.9938,105.9926 58.2938,56.2276 C58.4138,55.3866 58.5738,54.5626 58.7638,53.7716 L56.5438,17.1226 L54.5738,17.2056 C52.7538,17.2816 51.0738,16.7266 49.8238,15.7756 C48.5738,14.8256 47.7538,13.4706 47.6538,11.9406 C47.4738,8.8866 50.2638,6.2796 53.9038,6.1196 L178.2538,0.7946 C180.0738,0.7186 181.7538,1.2656 183.0038,2.2156 C184.2538,3.1666 185.0738,4.5206 185.1638,6.0516 C185.3538,9.1056 182.5538,11.7206 178.9238,11.8736 L177.0138,11.9576 L178.9038,43.0896 L179.0338,45.2426 C178.9038,48.8596 178.8638,56.9096 180.2838,67.1796 C182.8138,85.3246 189.9438,110.3756 209.3438,130.0496 C243.8138,164.9926 19.2438,167.0706 3.3638,148.0686" id="Fill-3"/>
                        </g>
                        <path d="M619.3638,1464.1799 L619.2838,1464.1799 C617.8638,1453.9089 617.9038,1445.8599 618.0338,1442.2429 L619.3638,1464.1799 Z" id="Fill-6" fill="#FFF"/>
                        <path d="M249.354,1536.7903 C233.484,1556.9033 8.904,1554.7053 43.374,1517.7183 C63.284,1496.3573 70.274,1468.9953 72.624,1449.6913 L71.834,1404.6203 L69.864,1404.6463 C68.044,1404.6743 66.384,1404.0323 65.174,1402.9813 C63.964,1401.9393 63.194,1400.4803 63.174,1398.8593 C63.114,1395.6183 66.014,1392.9473 69.654,1392.9023 L194.154,1391.15653 C195.974,1391.1313 197.634,1391.7633 198.844,1392.8133 C200.044,1393.8553 200.814,1395.3073 200.844,1396.9273 C200.904,1400.1683 197.994,1402.8493 194.354,1402.9013 L192.444,1402.9293 L192.984,1433.4953 C193.634,1435.3653 194.124,1437.3873 194.424,1439.5683 C201.724,1492.2533 265.234,1516.6763 249.354,1536.7903" id="Fill-8" fill="#FEE1E6"/>
                        <g id="Group-12" fill="#E93737">
                            <path d="M35.1796,0.99 C35.1796,0.99 -7.102,318.523249 2,561.252249 C11.103,803.979249 32.1196,1256.8035 32.1196,1256.8035 C32.1196,1256.8035 4.3576,1283.6985 25.1796,1307.1235 C36.3956,1319.7415 215.4746,1308.4475 215.4746,1308.4475 C215.4746,1308.4475 227.4376,1277.9965 210.0366,1251.8945 C210.0366,1251.8945 261.1756,367.6115 261.8566,381.5055 C265.8326,462.6305 356.5946,926.8855 444.1686,1253.6015 C444.1686,1253.6015 434.0636,1295.7055 445.8526,1305.8095 C457.6416,1315.9145 636.8806,1314.3615 640.2486,1300.8875 C643.6176,1287.4155 623.4076,1240.2605 623.4076,1240.2605 C623.4076,1240.2605 556.9868,336.286422 472,0.99 L35.1796,0.99 Z" id="Fill-10"/>
                        </g>
                    </g>
                </g>
            </g>
        </g>
        <g id="Upper Body" transform="translate(376.000000, 277.000000) scale(1 1)">
            <g id="Upper Body/Coffee and Phone" stroke="none" stroke-width="1" fill="none" fill-rule="evenodd">
                <path d="M724.954254,220 C724.954254,220 721.26343,301.153386 673.924004,329.799638 C630.972611,355.790794 721.968632,506.610475 819.857852,497.613536 C873.442212,492.688212 886,346.158072 886,346.158072 C886,346.158072 842.733964,337.796917 858.715877,271.819367 L724.954254,220 Z" id="Neck" fill="#ecafa3"/>
                <path d="M803.337113,302.515641 C739.876612,294.840687 694.077698,253.11575 687.664652,183.898064 C669.216286,186.83496 664.86504,138.764927 670.003065,123.322958 C675.146083,107.858975 691.933027,116.900812 691.933027,116.900812 C692.862251,114.457234 693.652358,111.898916 694.303348,109.225857 C722.02532,-4.48555283 799.669805,0.0243586862 799.669805,0.0243586862 C942.344355,7.45715716 908.914243,153.120195 900.762895,191.763142 C892.610548,230.410091 864.683894,309.927426 803.337113,302.515641 Z" id="Head" fill="#ecafa3"/>
                <g id="Group-31" transform="translate(252.000000, 332.000000)">
                    <path d="M124.228038,244 C11.2352329,423.00307 -24.4113903,531.60947 17.2881683,569.8192 C58.9877269,608.02893 138.53656,561.548058 255.934668,430.376584 C249.88449,401.088818 234.264802,369.134178 209.075603,334.512664 C183.886404,299.89115 155.603882,269.720262 124.228038,244 Z" id="Path" fill="#ecafa3"/>
                    <g id="Group-3" transform="translate(61.000000, 0.170000)" fill="#F9C818">
                        <path d="M775.3187,371.0099 L692.8487,361.4099 C692.8487,361.4099 713.9487,645.2899 706.0187,645.2899 C701.759788,645.2899 602.695622,699 463.869422,699 C357.218623,699 226.3987,663.7299 220.8687,663.4299 C220.1887,663.3899 219.5287,662.9299 218.8987,662.0799 C220.6787,642.4999 222.0887,607.8799 223.5187,569.6499 C224.5187,542.8299 225.5387,514.2399 226.7087,487.8299 C227.7987,463.2599 229.0187,440.5799 230.4887,422.9599 C236.8887,346.1099 232.4587,275.9799 232.4587,275.9799 L200.8787,361.6799 L0.6787,288.7399 C0.6787,288.7399 67.5287,191.3099 147.2287,106.5709 C226.2987,22.4899 353.1187,1.1599 355.0987,0.8399 C355.1087,0.8299 355.1187,0.8299 355.1187,0.8299 C355.1187,0.8299 347.9987,116.8299 467.9687,125.7399 C567.7187,133.1499 572.8887,13.5899 572.8887,13.5899 C572.8887,13.5899 689.4887,44.0299 722.9387,72.5599 C756.3887,101.0899 903.9587,295.8799 903.9587,300.7999 C903.9587,305.7199 775.3187,371.0099 775.3187,371.0099 Z" id="Fill-1"/>
                    </g>
                    <path d="M287.7087,488.0002 C286.5387,514.4102 285.5187,543.0002 284.5187,569.8192 C284.2887,551.6492 285.0087,525.5202 287.7087,488.0002" id="Fill-4" fill="#F9C818"/>
                    <path d="M702.2694,404.5715 L597.3924,413.0945 C591.0714,413.6085 585.5294,408.9005 585.0154,402.5785 L568.2534,196.3425 C567.7404,190.0205 572.4484,184.4785 578.7704,183.9655 L683.6464,175.4415 C689.9684,174.9275 695.5104,179.6355 696.0244,185.9585 L712.7854,392.1935 C713.2994,398.5155 708.5914,404.0565 702.2694,404.5715" id="Fill-6" fill="#204EB2"/>
                    <path d="M712.9597,398.8557 L607.7047,407.4107 C601.4877,407.9167 596.0377,403.2857 595.5317,397.0677 L579.3497,197.9667 C578.8447,191.7507 583.4757,186.2997 589.6927,185.7947 L694.9477,177.2407 C701.1647,176.7347 706.6147,181.3657 707.1207,187.5837 L723.3027,386.6827 C723.8077,392.9007 719.1767,398.3507 712.9597,398.8557" id="Fill-8" fill="#1F9BEB"/>
                    <path d="M695.2557,199.9397 C695.7407,205.9117 691.2937,211.1457 685.3217,211.6307 C679.3507,212.1167 674.1157,207.6687 673.6307,201.6967 C673.1457,195.7257 677.5927,190.4917 683.5647,190.0057 C689.5357,189.5207 694.7707,193.9677 695.2557,199.9397" id="Fill-10" fill="#204EB2"/>
                    <g id="Group-14" transform="translate(597.000000, 271.170000)" fill="#ecafa3">
                        <path d="M77.4915,120.4122 C77.4915,120.4122 24.8945,131.8762 24.5575,113.6692 C24.5575,113.6692 60.2965,98.8342 68.3885,99.5082 C76.4805,100.1832 113.9055,104.5652 113.9055,104.5652 L67.7135,81.6392 L21.8595,95.8002 C21.8595,95.8002 11.4075,96.4742 6.6875,89.0562 C1.9675,81.6392 7.3615,77.2562 7.3615,77.2562 L67.3765,57.3632 C67.3765,57.3632 69.3995,50.9572 54.2275,50.2822 C39.0545,49.6082 5.6755,47.2482 5.6755,47.2482 C5.6755,47.2482 -1.7415,40.8422 1.6295,29.3782 C5.0015,17.9152 23.8825,21.9612 23.8825,21.9612 C23.8825,21.9612 13.4305,11.8462 29.2775,0.7202 C29.2775,0.7202 77.8285,2.0682 95.6985,13.1942 C113.5675,24.3212 235.8865,99.4262 235.8865,99.4262 L331.0955,49.4172 C451.590946,196.91838 483.559113,284.305469 427,311.578469 C370.440887,338.851469 253.938054,275.12938 77.4915,120.4122 Z" id="Fill-12"/>
                    </g>
                    <path d="M727.306,325.2717 L679.503,298.1827 L619.978,291.8047 L620.404,287.8287 L680.341,294.2507 C680.613,294.2787 680.876,294.3637 681.114,294.4987 L729.278,321.7917 L727.306,325.2717 Z" id="Fill-15" fill="#000"/>
                    <polygon id="Fill-17" fill="#000" points="919.1846 425.2678 804.9306 353.4728 807.0586 350.0858 921.3126 421.8808"/>
                    <polygon id="Fill-17" fill="#000" transform="translate(144.427192, 377.066865) rotate(-64.000000) translate(-144.427192, -377.066865)" points="200.490192 414.657865 86.2361924 342.862865 88.3641924 339.475865 202.618192 411.270865"/>
                    <path d="M723.4331,347.2365 C723.1311,347.0325 693.1771,326.7545 685.3661,323.4995 C679.4071,321.0165 667.4941,325.5465 663.4071,327.5025 L661.6811,323.8925 C662.3471,323.5755 678.0911,316.1325 686.9041,319.8075 C695.0851,323.2155 724.4321,343.0815 725.6771,343.9255 L723.4331,347.2365 Z" id="Fill-19" fill="#000"/>
                    <polygon id="Fill-21" fill="#ecafa3" points="713.1401 268.1242 742.6541 313.2642 714.5871 295.6132"/>
                    <polygon id="Fill-23" fill="#000" points="741.5894 314.9572 713.5224 297.3072 715.6514 293.9202 743.7184 311.5702"/>
                    <path d="M349.7,425.014 L314.555,424.325 C277.55,423.599 248.139,393.011 248.865,356.006 L251.062,244 L410.887,247.136 L408.507,368.469 C407.883,400.323 381.554,425.639 349.7,425.014" id="Fill-27" fill="#FFF"/>
                </g>
                <g id="Group" transform="translate(455.000000, 614.711100)">
                    <path d="M44.5615768,2.84217094e-14 C44.5615768,2.84217094e-14 30.1385768,9.272 25.5025768,14.938 C20.8665768,20.604 24.9875768,21.635 14.6855768,32.452 C4.38357684,43.27 -14.1604232,70.57 18.2905768,112.294 C50.7435768,154.018 61.5605768,150.411 74.9535768,143.2 C88.3455768,135.988 89.8915768,130.838 115.131577,128.262 C140.371577,125.687 164.581577,100.961 164.066577,94.78 L163.551577,88.599 C163.551577,88.599 186.730577,79.842 185.186577,70.055 C183.640577,60.268 176.944577,61.298 176.944577,61.298 C176.944577,61.298 181.580577,56.662 177.974577,48.42 C174.368577,40.179 157.370577,41.724 137.795577,44.3 C118.222577,46.875 67.7415768,57.177 64.6505768,55.117 C61.5605768,53.057 62.5905768,49.966 74.4375768,48.42 C86.2855768,46.875 134.190577,46.36 134.190577,32.967 C134.190577,19.574 119.767577,16.999 91.9515768,17.514 C64.1355768,18.029 58.9845768,16.483 52.2885768,19.06 L45.5915768,21.635 L44.5615768,2.84217094e-14 Z" id="Fill-12" fill="#ecafa3"/>
                    <path d="M177.350177,61.2402 C177.350177,61.2402 178.830177,60.1722 167.807177,64.3812 C163.793177,65.9132 158.133177,67.5122 150.159177,69.0242 C120.282177,74.6902 73.4081768,84.9932 58.9851768,87.0532 C44.5611768,89.1142 56.4091768,92.2042 89.3761768,85.5082 C122.343177,78.8112 161.588177,69.8282 163.350177,69.2402 C166.350177,68.2402 175.350177,65.2402 177.350177,61.2402" id="Fill-14" fill="#000"/>
                    <path d="M152.733877,91.6895 C152.733877,91.6895 128.349877,100.2405 116.349877,103.2405 C103.608877,106.4255 94.0118768,110.7485 91.4368768,106.6275 C88.8608768,102.5065 85.7698768,101.4765 85.7698768,101.4765 L81.6498768,106.1125 C81.6498768,106.1125 82.3498768,111.2405 80.1038768,111.7785 C76.0968768,112.7395 68.2558768,114.3545 68.2558768,114.3545 C68.2558768,114.3545 68.3498768,117.2405 92.3498768,112.2405 C98.3048768,111.0005 109.349877,109.2405 116.349877,107.2405 C122.788877,105.4005 146.037877,99.4165 149.128877,96.8405 C152.218877,94.2645 152.733877,91.6895 152.733877,91.6895" id="Fill-16" fill="#000"/>
                    <path d="M77.0131768,89.1143 C77.0131768,89.1143 76.6331768,109.8573 82.4891768,109.5303 C88.3461768,109.2033 90.4061768,109.2033 91.4361768,107.6573 C92.4671768,106.1123 89.8911768,100.9613 89.8911768,95.2953 C89.8911768,89.6293 89.8911768,87.0533 85.2551768,87.5683 C80.6191768,88.0843 77.5281768,88.0843 77.0131768,89.1143" id="Fill-18" fill="#F9C818"/>
                </g>
            </g>
        </g>
        <g id="Expression" transform="translate(1098.000000, 360.000000) scale(1 1)" fill="#000">
            <g id="Expression/Meditating" stroke="none" stroke-width="1" fill="none" fill-rule="evenodd">
                <g id="Group-124" transform="translate(25.000000, 31.000000)" fill="#000" fill-rule="nonzero">
                    <path d="M104.685189,41.7608422 C105.799739,40.6260634 107.594825,40.5649295 108.78246,41.5890238 L109.323265,42.0922215 C109.679851,42.417346 110.098676,42.7830843 110.574652,43.1792057 C111.94412,44.3189167 113.484129,45.4610626 115.151599,46.5241767 C119.702796,49.4258418 124.295338,51.172265 128.558587,51.2424016 C132.874539,51.3130298 136.865025,49.9074098 140.437409,47.4948081 C141.67134,46.6614747 142.761501,45.768172 143.691014,44.8802215 L143.992411,44.5872953 C144.224631,44.3574693 144.409243,44.1644586 144.544403,44.0166431 L144.733887,43.8011958 C145.791956,42.526184 147.683292,42.3503175 148.958304,43.408387 C150.233316,44.4664564 150.409182,46.3577925 149.351113,47.6328042 L149.150042,47.8672558 C148.847545,48.210262 148.407828,48.6720596 147.83555,49.2187491 C146.672781,50.3295265 145.323752,51.4349517 143.795434,52.4670978 C139.27381,55.5207674 134.125278,57.3343007 128.460152,57.2415941 C122.909111,57.1502715 117.329711,55.028572 111.926036,51.5834002 C110.031541,50.3755444 108.290777,49.0845082 106.736552,47.7910371 L106.286566,47.4122537 C105.573365,46.8047902 105.045411,46.3196388 104.723342,46.0033113 C103.541281,44.8423217 103.524199,42.9429035 104.685189,41.7608422 Z" id="Stroke-110"/>
                    <path d="M38.7253835,117.884449 C39.5642128,116.527263 41.3095678,116.07235 42.6962173,116.818359 L43.3869917,117.21948 L43.8984869,117.502848 C44.2590401,117.698929 44.6584684,117.908937 45.0953445,118.130389 C46.9879034,119.089729 49.1612767,120.052834 51.576502,120.953225 C60.5558907,124.300723 70.2239338,125.866606 79.9973044,124.67862 C81.6420524,124.478696 83.1374551,125.649956 83.3373798,127.294704 C83.5373044,128.939452 82.3660437,130.434855 80.7212956,130.63478 C69.894657,131.950794 59.2949096,130.234008 49.4806187,126.57526 C46.8465621,125.593288 44.4687237,124.539577 42.3825599,123.482099 L41.6157512,123.086639 C40.7409474,122.627255 40.0965569,122.258685 39.7000485,122.013616 C38.290664,121.142525 37.8542916,119.293833 38.7253835,117.884449 Z" id="Stroke-112"/>
                    <path d="M98.9388073,21.5157268 L102.747593,22.7376732 L102.375135,23.9309532 C102.075892,24.9043293 101.742122,26.0179097 101.382468,27.2529166 C100.354215,30.7838089 99.3257634,34.5761133 98.3662837,38.478955 C97.2996742,42.8175645 96.3854385,47.0250163 95.6702376,50.9976992 L95.4631649,52.1740325 C93.7257688,62.2776329 93.4803733,69.9926374 95.0328764,74.1417647 L95.1244408,74.3771728 C104.002358,96.340079 91.9464166,107.47795 66.6424816,99.6786942 L65.8716485,99.4365483 L67.0907515,95.6268517 C89.8846425,102.920897 99.0260452,94.7026714 91.4159925,75.8763096 C89.3210345,70.6942966 89.6433125,61.8993486 91.7335247,50.288974 C92.4647551,46.2272527 93.3964651,41.9393815 94.4819426,37.5240234 C95.3476055,34.0027971 96.2678852,30.5727889 97.1943734,27.3381428 L97.5420029,26.1345115 C97.7507758,25.4176112 97.9510908,24.7405619 98.1413397,24.1068373 L98.6297394,22.5024497 L98.9388073,21.5157268 Z" id="Stroke-114"/>
                    <path d="M24.5912986,0.515294847 C27.6392394,0.103272361 30.4710762,-0.0333671966 33.0631806,0.158696725 C36.7115321,0.428668329 41.5437912,1.40832846 47.38095,2.94765852 C49.16614,3.41843493 51.0205155,3.93578045 52.9276851,4.49220122 C56.1314208,5.42689786 59.3319836,6.42632221 62.3826864,7.42579929 L64.3883843,8.09051311 L66.3809754,8.76899282 C69.2488284,9.77010581 70.7621202,12.9065224 69.7610072,15.7743754 C68.784922,18.5705321 65.7789638,20.079009 62.9711796,19.2247943 L62.6828368,19.1290737 L61.7501044,18.8096194 C60.9247361,18.529366 59.9876716,18.2164443 58.9579598,17.8790882 C56.0143005,16.9146808 52.9257075,15.9502208 49.8468536,15.0519587 C48.0274857,14.5211542 46.264248,14.0292349 44.57601,13.5840259 L43.4692061,13.2961425 C38.7383101,12.0831846 34.8659461,11.3221737 32.2508875,11.1286639 C30.4966745,10.9986842 28.4072689,11.0995005 26.0648822,11.4161458 C23.2480808,11.7969227 20.1879155,12.4702927 17.0440173,13.3532292 C15.4806567,13.7922855 13.9823806,14.2588747 12.5892526,14.7284835 L11.9016364,14.9634261 C11.4618938,15.1157145 11.0608605,15.2586308 10.7024987,15.389676 L9.97161227,15.6633149 C7.14357473,16.7719229 3.95229301,15.3780498 2.84368505,12.5500123 C1.7350771,9.72197473 3.12895018,6.53069301 5.95698773,5.42208505 L6.52985093,5.20370717 C6.98422439,5.03423142 7.580659,4.81888054 8.30194561,4.56908982 C10.0818577,3.95268364 12.0231675,3.33772818 14.0698269,2.76294164 C17.6714831,1.75144773 21.2151691,0.971682068 24.5912986,0.515294847 Z" id="Stroke-116"/>
                    <path d="M121.789545,16.5878801 L123.114219,16.5529702 C128.555995,16.4306526 133.021889,16.6000706 136.338056,17.1542512 C138.168033,17.4600991 140.074506,17.9728696 142.05661,18.6687631 C144.999596,19.7020115 148.057071,21.1185695 151.173952,22.8231086 C153.163457,23.9111153 155.079106,25.0624467 156.876125,26.2225048 L157.638883,26.7200477 C158.857885,27.5234673 159.765181,28.1586854 160.289098,28.5434618 C162.679021,30.2986767 163.193553,33.6589748 161.438338,36.0488977 C159.730562,38.3742281 156.503291,38.9241706 154.128755,37.3354869 L153.387738,36.810348 L152.775165,36.3869315 C152.451527,36.1659242 152.102331,35.9314768 151.729689,35.6858759 C149.947809,34.5114755 148.017701,33.3358642 146.02174,32.244327 C143.380044,30.7996542 140.834405,29.6202345 138.499485,28.8004711 C137.066648,28.2974188 135.746258,27.9422828 134.568033,27.7453637 C131.847034,27.2906445 127.508258,27.1586717 122.11249,27.3210227 C118.82153,27.420043 115.289632,27.6221963 111.690697,27.8970199 L110.130765,28.0203831 C109.109219,28.103955 108.126228,28.1898666 107.192238,28.2762012 L104.514558,28.5395365 C101.566608,28.8590654 98.9177923,26.7283087 98.5982635,23.7803582 C98.2867228,20.9061064 100.304485,18.31622 103.137903,17.8923638 L103.931548,17.8040918 L105.143479,17.6838888 L105.484548,17.6512271 C107.138496,17.4939444 108.952748,17.3368342 110.873097,17.1901915 C114.625356,16.9036597 118.316967,16.6923651 121.789545,16.5878801 Z" id="Stroke-118"/>
                    <path d="M17.7652887,31.9386422 C18.8798388,30.8038634 20.6749245,30.7427295 21.8625603,31.7668238 L22.403365,32.2700215 L22.8608172,32.6790108 C23.104155,32.8925979 23.3691663,33.1193328 23.6547521,33.3570057 C25.0242202,34.4967167 26.5642285,35.6388626 28.2316992,36.7019767 C32.782896,39.6036418 37.3754377,41.350065 41.6384215,41.4201973 C45.9543059,41.4904425 49.9447471,40.0848333 53.5171065,37.6725085 C54.7511834,36.8391674 55.8414724,35.9458579 56.7710952,35.0579011 L57.2061483,34.6315612 C57.4192767,34.4167948 57.5844234,34.2405199 57.6997444,34.1111159 L57.8140951,33.9788655 C58.8722365,32.7039134 60.7635824,32.5281537 62.0385345,33.5862951 C63.3134866,34.6444365 63.4892463,36.5357824 62.4311049,37.8107345 L62.2300134,38.0451828 C61.9274859,38.3881843 61.4877247,38.8499766 60.9153892,39.3966598 C59.7525044,40.5074237 58.403344,41.612835 56.8748828,42.6449665 C52.3534608,45.6981695 47.2052461,47.5115975 41.5402524,47.4193941 C35.9892107,47.3280715 30.409811,45.206372 25.0061361,41.7612002 C23.1116412,40.5533444 21.3708772,39.2623082 19.8166522,37.9688371 L19.3666664,37.5900537 C18.6534646,36.9825902 18.1255109,36.4974388 17.8034422,36.1811113 C16.6213809,35.0201217 16.604299,33.1207035 17.7652887,31.9386422 Z" id="Stroke-120"/>
                    <path d="M0.1850015,174.534088 L2.1419985,171.045512 L2.85620174,171.434727 L3.51128674,171.782909 C4.50308988,172.305335 5.6321651,172.880908 6.88714027,173.498006 L7.43266178,173.764985 C11.6537624,175.821142 16.3218862,177.878362 21.3004212,179.797989 C32.7483158,184.212076 44.0600582,187.224884 54.584272,188.202241 C59.3535856,188.645156 63.8735301,188.656119 68.1063644,188.201856 L68.9490919,188.10479 L69.4379081,192.07481 C64.6629697,192.662733 59.5745075,192.682884 54.2143935,192.185103 C43.2765951,191.169337 31.6251616,188.066055 19.8613669,183.530163 C14.7706849,181.567294 9.99959664,179.464698 5.68097489,177.361037 L4.04785364,176.55429 C3.35348222,176.206284 2.70158001,175.872883 2.09423579,175.556252 L0.962732129,174.958187 L0.1850015,174.534088 Z" id="Stroke-122"/>
                </g>
            </g>
        </g>
        <g id="Hairstyle" transform="translate(607.000000, 33.000000) scale(1 1)">
            <defs>
                <polygon id="hairstylelong-hair-path-1" points="0.0001 0.000131119082 485.023 0.000131119082 485.023 527.3 0.0001 527.3"/>
            </defs>
            <g id="Hairstyle/Long Hair" stroke="none" stroke-width="1" fill="none" fill-rule="evenodd">
                <g id="Group-3" transform="translate(281.000000, 219.000000)">
                    <mask id="hairstylelong-hair-mask-2" fill="#fff">
                        <use xlink:href="#hairstylelong-hair-path-1"/>
                    </mask>
                    <g id="Clip-2"/>
                    <path d="M329.1161,48.9996 C329.1161,48.9996 273.1991,131.8406 222.8041,167.0476 C141.1891,224.0646 242.5111,267.8466 213.6981,416.7156 C213.6981,416.7156 175.2801,492.3506 213.6981,519.9626 C213.6981,519.9626 154.8711,481.5446 117.6541,499.5536 C80.4371,517.5616 72.0331,473.1416 40.8191,480.3446 C9.6041,487.5476 0.0001,465.9376 0.0001,465.9376 C0.0001,465.9376 45.6211,423.9186 45.6211,375.8956 C45.6211,327.8746 33.6151,300.2616 62.4291,264.2446 C91.2421,228.2286 66.0301,197.0146 109.2501,158.5966 C152.4701,120.1796 178.8821,-71.9094 340.9571,28.9376 C340.9571,28.9376 434.5891,44.1986 417.7811,154.6486 C400.9741,265.1006 441.8031,307.4646 437.0011,379.4976 C432.1981,451.5306 485.0231,482.7456 485.0231,482.7456 C485.0231,482.7456 464.6131,489.9486 444.2041,509.1576 C423.7951,528.3666 385.3771,495.9516 374.5721,516.3606 C363.7671,536.7706 330.1521,522.3636 330.1521,522.3636 C330.1521,522.3636 351.7621,451.5306 344.5581,407.1106 C337.3551,362.6896 320.5371,345.0916 330.0811,318.7156 C330.0811,318.7156 365.1441,299.4906 382.4901,236.7296 C399.8361,173.9696 393.3171,64.8776 329.1161,48.9996" id="Fill-1" fill="#878787" mask="url(#hairstylelong-hair-mask-2)"/>
                </g>
            </g>
        </g>
        <g id="Accessories" transform="translate(1051.000000, 393.000000) scale(1 1)" fill="#000">
            <g id="Accessories/Glasses" stroke="none" stroke-width="1" fill="none" fill-rule="evenodd">
                <g id="Group-136" transform="translate(21.000000, 0.000000)" fill="#000" fill-rule="nonzero">
                    <path d="M85.2331,-3.5185 C64.1379939,-3.5185 47.0361,13.5830433 47.0361,34.6775 C47.0361,55.7726319 64.1376692,72.8735 85.2331,72.8735 C106.328381,72.8735 123.4291,55.7727814 123.4291,34.6775 C123.4291,13.5828939 106.328057,-3.5185 85.2331,-3.5185 Z M85.2331,5.4815 C101.357453,5.4815 114.4291,18.5534154 114.4291,34.6775 C114.4291,50.8022186 101.357819,63.8735 85.2331,63.8735 C69.1081493,63.8735 56.0361,50.8019866 56.0361,34.6775 C56.0361,18.5536474 69.1085154,5.4815 85.2331,5.4815 Z" id="Stroke-128"/>
                    <path d="M179.1536,5.5889 C158.058169,5.5889 140.9566,22.6897681 140.9566,43.7849 C140.9566,64.8800319 158.058169,81.9809 179.1536,81.9809 C200.248881,81.9809 217.3496,64.8801814 217.3496,43.7849 C217.3496,22.6896186 200.248881,5.5889 179.1536,5.5889 Z M179.1536,14.5889 C195.278319,14.5889 208.3496,27.6601814 208.3496,43.7849 C208.3496,59.9096186 195.278319,72.9809 179.1536,72.9809 C163.028649,72.9809 149.9566,59.9093866 149.9566,43.7849 C149.9566,27.6604134 163.028649,14.5889 179.1536,14.5889 Z" id="Stroke-130"/>
                    <path d="M-3.64184511,7.30994196 C-2.74598214,5.07028454 -0.252551778,3.94709164 2.00319591,4.726899 L2.20755804,4.80305489 L52.207558,24.8030549 C54.5150839,25.7260652 55.6374554,28.3449322 54.7144451,30.652458 C53.8185821,32.8921155 51.3251518,34.0153084 49.0694041,33.235501 L48.865042,33.1593451 L-1.13495804,13.1593451 C-3.44248387,12.2363348 -4.56485544,9.61746778 -3.64184511,7.30994196 Z" id="Stroke-132"/>
                    <path d="M114.843511,36.5654718 C115.110544,34.1660118 117.218034,32.4181733 119.60255,32.5722482 L119.813628,32.5908106 L146.033628,35.5088106 C148.503661,35.7836983 150.283177,38.0088957 150.008289,40.4789282 C149.741256,42.8783882 147.633766,44.6262267 145.24925,44.4721518 L145.038172,44.4535894 L118.818172,41.5355894 C116.348139,41.2607017 114.568623,39.0355043 114.843511,36.5654718 Z" id="Stroke-134"/>
                </g>
            </g>
        </g>
        <g id="Facial Hair" transform="translate(1061.000000, 394.000000) scale(1 1)">
            <g id="Facial Hair/Beard" stroke="none" stroke-width="1" fill="none" fill-rule="evenodd">
                <path d="M140.312831,147.74 L123.312831,145.74 C123.312831,145.74 95.3128308,169.74 83.3128308,149.74 C68.7878308,125.532 96.3128308,117.74 113.312831,114.74 C130.312831,111.74 139.312831,107.74 139.312831,107.74 C145.312831,113.74 142.271819,111.952813 152.60342,120.525843 C163.609304,129.658386 170.296179,157.398687 158.549179,161.990048 C146.802179,166.581408 140.312831,147.74 140.312831,147.74 Z M210.312831,93.74 C193.312831,153.74 181.312831,117.74 161.312831,103.74 C150.290831,96.025 97.3128308,83.74 82.3128308,106.74 C67.3128308,129.74 64.3128308,128.74 42.3128308,108.74 C20.3128308,88.74 14.9288308,69.919 14.3128308,45.74 C13.1468308,0 7.14883082,1.98 6.35883082,0 C6.07883082,4.13 -1.62716918,82.511 0.312830822,107.74 C2.31283082,133.74 41.3128308,214.74 115.312831,210.74 C189.312831,206.74 207.312831,139.74 211.312831,93.74" id="Fill-137" fill="#878787"/>
            </g>
        </g>
    </g>
</svg>
