<svg viewBox="0 40.55 2500 1341.284" xmlns="http://www.w3.org/2000/svg" overflow="visible">
    <g id="Master/Composition/Town" stroke="none" stroke-width="1" fill="none" fill-rule="evenodd">
        <g id="bg">
            <g id="Sky" transform="scale(1 1)">
                <g id="Sky/Invasion" stroke="none" stroke-width="1" fill="none" fill-rule="evenodd">
                    <g id="UFO" transform="translate(2147.000000, 161.000000)">
                        <path d="M81.5,78 C126.511207,78 163,70.3500444 163,55.4383562 C163,40.5266679 132.385081,24 81.5,24 C30.614919,24 0,40.5266679 0,55.4383562 C0,70.3500444 36.4887929,78 81.5,78 Z" id="I-WANT-TO-BELIEVE" fill="#CECCFF"/>
                        <ellipse id="I-WANT-TO-BELIEVE" fill="#E8E7FF" cx="82" cy="37.5" rx="51" ry="11.5"/>
                        <path d="M81.9992985,0 C102.71888,0 119.566319,15.4893333 120.000001,34.7504207 C108.901957,36.8134624 95.8996885,38 81.9992985,38 C68.0996953,38 55.0981119,36.8135968 44.0000922,34.751068 C44.4316942,15.4898698 61.2793577,0 81.9992985,0 Z" id="I-WANT-TO-BELIEVE" fill="#A39FFF"/>
                    </g>
                    <g id="UFO" transform="translate(264.000000, 454.000000)">
                        <path d="M81.5,78 C126.511207,78 163,70.3500444 163,55.4383562 C163,40.5266679 132.385081,24 81.5,24 C30.614919,24 0,40.5266679 0,55.4383562 C0,70.3500444 36.4887929,78 81.5,78 Z" id="I-WANT-TO-BELIEVE" fill="#CECCFF"/>
                        <ellipse id="I-WANT-TO-BELIEVE" fill="#E8E7FF" cx="82" cy="37.5" rx="51" ry="11.5"/>
                        <path d="M81.9992985,0 C102.71888,0 119.566319,15.4893333 120.000001,34.7504207 C108.901957,36.8134624 95.8996885,38 81.9992985,38 C68.0996953,38 55.0981119,36.8135968 44.0000922,34.751068 C44.4316942,15.4898698 61.2793577,0 81.9992985,0 Z" id="I-WANT-TO-BELIEVE" fill="#A39FFF"/>
                    </g>
                    <g id="UFO" transform="translate(2029.000000, 145.000000)">
                        <path d="M51,48 C79.1665222,48 102,43.3250271 102,34.2123288 C102,25.0996304 82.8421979,15 51,15 C19.1578021,15 0,25.0996304 0,34.2123288 C0,43.3250271 22.8334778,48 51,48 Z" id="I-WANT-TO-BELIEVE" fill="#E8E7FF"/>
                        <ellipse id="I-WANT-TO-BELIEVE" fill="#FFF" cx="51" cy="23" rx="32" ry="7"/>
                        <path d="M50.9996346,0 C64.085382,0 74.7256718,9.37474302 74.9999895,21.032441 C67.990396,22.2818623 59.77862,23 50.9996346,23 C42.221017,23 34.0095612,22.2819225 27.0003343,21.0335636 C27.2729884,9.37527965 37.9135127,0 50.9996346,0 Z" id="I-WANT-TO-BELIEVE" fill="#CECCFF"/>
                    </g>
                    <g id="UFO" transform="translate(146.000000, 438.000000)">
                        <path d="M51,48 C79.1665222,48 102,43.3250271 102,34.2123288 C102,25.0996304 82.8421979,15 51,15 C19.1578021,15 0,25.0996304 0,34.2123288 C0,43.3250271 22.8334778,48 51,48 Z" id="I-WANT-TO-BELIEVE" fill="#E8E7FF"/>
                        <ellipse id="I-WANT-TO-BELIEVE" fill="#FFF" cx="51" cy="23" rx="32" ry="7"/>
                        <path d="M50.9996346,0 C64.085382,0 74.7256718,9.37474302 74.9999895,21.032441 C67.990396,22.2818623 59.77862,23 50.9996346,23 C42.221017,23 34.0095612,22.2819225 27.0003343,21.0335636 C27.2729884,9.37527965 37.9135127,0 50.9996346,0 Z" id="I-WANT-TO-BELIEVE" fill="#CECCFF"/>
                    </g>
                    <g id="UFO" transform="translate(1927.000000, 200.000000)">
                        <path d="M43.5,41 C67.5243866,41 87,37.0333564 87,29.3013699 C87,21.5693834 70.6595218,13 43.5,13 C16.3404782,13 0,21.5693834 0,29.3013699 C0,37.0333564 19.4756134,41 43.5,41 Z" id="I-WANT-TO-BELIEVE" fill="#E8E7FF"/>
                        <ellipse id="I-WANT-TO-BELIEVE" fill="#FFF" cx="43.5" cy="20" rx="27.5" ry="6"/>
                        <path d="M43.4996879,0 C54.6770847,0 63.7656577,8.15193226 63.9999902,18.2890452 C58.0127398,19.3755226 50.9984633,20 43.4996879,20 C36.0012805,20 28.9873245,19.3755839 23.000274,18.2900533 C23.2337181,8.15193226 32.3222911,0 43.4996879,0 Z" id="I-WANT-TO-BELIEVE" fill="#CECCFF"/>
                    </g>
                    <g id="UFO" transform="translate(2143.000000, 108.000000)">
                        <path d="M23,22 C35.7025492,22 46,19.8750123 46,15.7328767 C46,11.5907411 37.3602069,7 23,7 C8.6397931,7 0,11.5907411 0,15.7328767 C0,19.8750123 10.2974508,22 23,22 Z" id="I-WANT-TO-BELIEVE" fill="#E8E7FF"/>
                        <ellipse id="I-WANT-TO-BELIEVE" fill="#FFF" cx="23.5" cy="11" rx="14.5" ry="3"/>
                        <path d="M22.9998325,0 C29.0764282,0 34.0024822,4.60240617 34.0024822,10.2797619 L33.9995065,10.0595314 C30.7869453,10.656572 27.0233634,11 22.9998325,11 C18.9761665,11 15.2124669,10.6565489 11.9998349,10.0594713 C12.1249637,4.4839728 17.0019307,0 22.9998325,0 Z" id="I-WANT-TO-BELIEVE" fill="#CECCFF"/>
                    </g>
                    <g id="UFO" transform="translate(260.000000, 401.000000)">
                        <path d="M23,22 C35.7025492,22 46,19.8750123 46,15.7328767 C46,11.5907411 37.3602069,7 23,7 C8.6397931,7 0,11.5907411 0,15.7328767 C0,19.8750123 10.2974508,22 23,22 Z" id="I-WANT-TO-BELIEVE" fill="#E8E7FF"/>
                        <ellipse id="I-WANT-TO-BELIEVE" fill="#FFF" cx="23.5" cy="11" rx="14.5" ry="3"/>
                        <path d="M22.9998325,0 C29.0764282,0 34.0024822,4.60240617 34.0024822,10.2797619 L33.9995065,10.0595314 C30.7869453,10.656572 27.0233634,11 22.9998325,11 C18.9761665,11 15.2124669,10.6565489 11.9998349,10.0594713 C12.1249637,4.4839728 17.0019307,0 22.9998325,0 Z" id="I-WANT-TO-BELIEVE" fill="#CECCFF"/>
                    </g>
                    <g id="UFO" transform="translate(2311.000000, 139.000000)">
                        <path d="M23,22 C35.7025492,22 46,19.8750123 46,15.7328767 C46,11.5907411 37.3602069,7 23,7 C8.6397931,7 0,11.5907411 0,15.7328767 C0,19.8750123 10.2974508,22 23,22 Z" id="I-WANT-TO-BELIEVE" fill="#E8E7FF"/>
                        <ellipse id="I-WANT-TO-BELIEVE" fill="#FFF" cx="23.5" cy="11" rx="14.5" ry="3"/>
                        <path d="M22.9998325,0 C29.0764282,0 34.0024822,4.60240617 34.0024822,10.2797619 L33.9995065,10.0595314 C30.7869453,10.656572 27.0233634,11 22.9998325,11 C18.9761665,11 15.2124669,10.6565489 11.9998349,10.0594713 C12.1249637,4.4839728 17.0019307,0 22.9998325,0 Z" id="I-WANT-TO-BELIEVE" fill="#CECCFF"/>
                    </g>
                    <g id="UFO" transform="translate(2288.000000, 274.000000)">
                        <path d="M23,22 C35.7025492,22 46,19.8750123 46,15.7328767 C46,11.5907411 37.3602069,7 23,7 C8.6397931,7 0,11.5907411 0,15.7328767 C0,19.8750123 10.2974508,22 23,22 Z" id="I-WANT-TO-BELIEVE" fill="#E8E7FF"/>
                        <ellipse id="I-WANT-TO-BELIEVE" fill="#FFF" cx="23.5" cy="11" rx="14.5" ry="3"/>
                        <path d="M22.9998325,0 C29.0764282,0 34.0024822,4.60240617 34.0024822,10.2797619 L33.9995065,10.0595314 C30.7869453,10.656572 27.0233634,11 22.9998325,11 C18.9761665,11 15.2124669,10.6565489 11.9998349,10.0594713 C12.1249637,4.4839728 17.0019307,0 22.9998325,0 Z" id="I-WANT-TO-BELIEVE" fill="#CECCFF"/>
                    </g>
                    <g id="UFO" transform="translate(2288.000000, 68.000000)">
                        <path d="M23,22 C35.7025492,22 46,19.8750123 46,15.7328767 C46,11.5907411 37.3602069,7 23,7 C8.6397931,7 0,11.5907411 0,15.7328767 C0,19.8750123 10.2974508,22 23,22 Z" id="I-WANT-TO-BELIEVE" fill="#E8E7FF"/>
                        <ellipse id="I-WANT-TO-BELIEVE" fill="#FFF" cx="23.5" cy="11" rx="14.5" ry="3"/>
                        <path d="M22.9998325,0 C29.0764282,0 34.0024822,4.60240617 34.0024822,10.2797619 L33.9995065,10.0595314 C30.7869453,10.656572 27.0233634,11 22.9998325,11 C18.9761665,11 15.2124669,10.6565489 11.9998349,10.0594713 C12.1249637,4.4839728 17.0019307,0 22.9998325,0 Z" id="I-WANT-TO-BELIEVE" fill="#CECCFF"/>
                    </g>
                    <path d="M799.5,534 C829.765783,534 855.101234,553.327107 861.586577,579.23673 C870.007023,575.474486 879.469091,573.364437 889.469431,573.364437 C914.608213,573.364437 936.34557,586.698161 946.705062,606.062583 C950.016787,605.182001 953.520991,604.710192 957.145552,604.710192 C975.587316,604.710192 990.913281,616.924252 993.999808,632.999001 L605.000192,632.999001 C608.086719,616.924252 623.412684,604.710192 641.854448,604.710192 C647.559876,604.710192 652.967081,605.879238 657.8059,607.969976 C667.355718,586.801891 690.126093,571.906495 716.696276,571.906495 C724.363104,571.906495 731.713556,573.146702 738.521363,575.419953 C746.431756,551.451961 770.739886,534 799.5,534 Z" id="Cloud" fill="#E8E7FF"/>
                    <path d="M278.02347,509 C309.32973,509 337.284596,523.455264 355.670058,546.101743 C365.476913,538.945268 377.537592,534.7263 390.576421,534.7263 C416.778342,534.7263 439.030285,551.763382 447.012054,575.440941 C452.514894,573.749035 458.358564,572.839338 464.413143,572.839338 C497.322056,572.839338 524,599.714804 524,632.867372 C524,633.918048 523.973205,634.962419 523.920265,635.99983 L105,635.999752 C106.337424,608.25761 129.088338,586.178901 156.958111,586.178901 C165.025495,586.178901 172.663964,588.028903 179.478295,591.330759 C188.168693,544.468899 228.984421,509 278.02347,509 Z" id="Cloud" fill="#E8E7FF" transform="translate(314.500000, 572.500000) scale(-1, 1) translate(-314.500000, -572.500000)"/>
                    <path d="M560.911154,479 C599.613032,479 634.171858,496.843336 656.900924,524.797878 C669.025838,515.964872 683.935761,510.756989 700.054905,510.756989 C732.44689,510.756989 759.955762,531.787625 769.823376,561.015361 C776.626698,558.927284 783.850816,557.804379 791.335661,557.804379 C832.019352,557.804379 865,590.979918 865,631.904019 C865,633.278068 864.96282,634.643383 864.889418,635.999 L347.000045,635.998204 C348.539539,601.646099 376.71361,574.270966 411.243926,574.270966 C421.217337,574.270966 430.660491,576.554684 439.084777,580.630625 C449.828206,522.783289 500.286649,479 560.911154,479 Z" id="Cloud" fill="#CECCFF" transform="translate(606.000000, 557.500000) scale(-1, 1) translate(-606.000000, -557.500000)"/>
                    <g id="UFO" transform="translate(1974.000000, 255.000000)">
                        <path d="M120,114 C186.27417,114 240,102.950064 240,81.4109589 C240,59.8718537 194.922819,36 120,36 C45.0771814,36 0,59.8718537 0,81.4109589 C0,102.950064 53.72583,114 120,114 Z" id="I-WANT-TO-BELIEVE" fill="#CECCFF"/>
                        <ellipse id="I-WANT-TO-BELIEVE" fill="#E8E7FF" cx="120" cy="54" rx="75" ry="17"/>
                        <path d="M119.999374,0 C150.533416,0 175.361131,22.826595 176.000018,51.2115364 C159.644123,54.2515087 140.483483,56 119.999374,56 C99.5156841,56 80.3554094,54.2515803 64.0004394,51.2120064 C64.6376171,22.826595 89.4653317,0 119.999374,0 Z" id="I-WANT-TO-BELIEVE" fill="#A39FFF"/>
                    </g>
                </g>
            </g>
            <g id="Horizon" transform="translate(0.000000, 591.000000) scale(1 1)">
                <g id="Horizon/Hills" stroke="none" stroke-width="1" fill="none" fill-rule="evenodd">
                    <path d="M1680,660 C1680,660 1461.2911,340 1191.5,340 C921.7089,340 703,660 703,660 C703,660 1680,660 1680,660 Z" id="Hill" fill="#2EE17C"/>
                    <path d="M2500,660 C2500,660 2178.54045,280 1782,280 C1385.45955,280 1064,660 1064,660 C1064,660 2500,660 2500,660 Z" id="Hill" fill="#00D745"/>
                    <path d="M1204,660 C1204,660 935.146992,411 603.5,411 C271.853008,411 3,660 3,660 C3,660 1204,660 1204,660 Z" id="Hill" fill="#02A837"/>
                    <path d="M2191.9005,363.196234 L2203,418 L2203,418 L2171,418 L2182.0995,363.196234 C2182.64764,360.489761 2185.28603,358.740091 2187.99251,359.288238 C2189.96217,359.687157 2191.50158,361.226571 2191.9005,363.196234 Z" id="Tree" fill="#00D745"/>
                    <path d="M1361.9005,384.196234 L1373,439 L1373,439 L1341,439 L1352.0995,384.196234 C1352.64764,381.489761 1355.28603,379.740091 1357.99251,380.288238 C1359.96217,380.687157 1361.50158,382.226571 1361.9005,384.196234 Z" id="Tree" fill="#00D745"/>
                    <path d="M1027.9005,501.196234 L1039,556 L1039,556 L1007,556 L1018.0995,501.196234 C1018.64764,498.489761 1021.28603,496.740091 1023.99251,497.288238 C1025.96217,497.687157 1027.50158,499.226571 1027.9005,501.196234 Z" id="Tree" fill="#02A837"/>
                    <path d="M1111.39667,341.710172 L1116,364 L1116,364 L1097,364 L1101.60333,341.710172 C1102.16184,339.005818 1104.80691,337.266266 1107.51127,337.824774 C1109.46576,338.228419 1110.99302,339.755682 1111.39667,341.710172 Z" id="Tree" fill="#2EE17C"/>
                    <path d="M976.40175,466.360214 L988,524 L988,524 L955,524 L966.59825,466.360214 C967.142983,463.653052 969.779166,461.900058 972.486328,462.444792 C974.460987,462.842132 976.00441,464.385555 976.40175,466.360214 Z" id="Tree" fill="#02A837"/>
                    <path d="M1048.89902,363.005199 L1054,388 L1054,388 L1034,388 L1039.10098,363.005199 C1039.65315,360.299545 1042.29415,358.553805 1044.9998,359.105979 C1046.96357,359.506748 1048.49825,361.041434 1048.89902,363.005199 Z" id="Tree" fill="#2EE17C"/>
                    <path d="M445.40175,391.360214 L457,449 L457,449 L424,449 L435.59825,391.360214 C436.142983,388.653052 438.779166,386.900058 441.486328,387.444792 C443.460987,387.842132 445.00441,389.385555 445.40175,391.360214 Z" id="Tree" fill="#02A837"/>
                    <path d="M177.40175,524.360214 L189,582 L189,582 L156,582 L167.59825,524.360214 C168.142983,521.653052 170.779166,519.900058 173.486328,520.444792 C175.460987,520.842132 177.00441,522.385555 177.40175,524.360214 Z" id="Tree" fill="#02A837"/>
                    <path d="M1002.3877,461.670589 L1021,548 L1021,548 L974,548 L992.612304,461.670589 C993.194285,458.971189 995.854369,457.254682 998.553769,457.836663 C1000.47387,458.25063 1001.97373,459.750485 1002.3877,461.670589 Z" id="Tree" fill="#02A837"/>
                    <path d="M1078.38901,471.81539 L1105,596 L1105,596 L1042,596 L1068.61099,471.81539 C1069.18959,469.115263 1071.84752,467.395424 1074.54765,467.974023 C1076.47271,468.386536 1077.9765,469.89033 1078.38901,471.81539 Z" id="Tree" fill="#02A837"/>
                    <path d="M1095.8845,330.329143 L1105,372 L1105,372 L1077,372 L1086.1155,330.329143 C1086.70561,327.631508 1089.37085,325.92302 1092.06848,326.513128 C1093.97668,326.930545 1095.46708,328.420948 1095.8845,330.329143 Z" id="Tree" fill="#2EE17C"/>
                    <path d="M471.387696,362.670589 L490,449 L490,449 L443,449 L461.612304,362.670589 C462.194285,359.971189 464.854369,358.254682 467.553769,358.836663 C469.473874,359.25063 470.973728,360.750485 471.387696,362.670589 Z" id="Tree" fill="#02A837"/>
                    <path d="M1659.9005,259.196234 L1671,314 L1671,314 L1639,314 L1650.0995,259.196234 C1650.64764,256.489761 1653.28603,254.740091 1655.99251,255.288238 C1657.96217,255.687157 1659.50158,257.226571 1659.9005,259.196234 Z" id="Tree" fill="#00D745"/>
                    <path d="M1415.40175,349.360214 L1427,407 L1427,407 L1394,407 L1405.59825,349.360214 C1406.14298,346.653052 1408.77917,344.900058 1411.48633,345.444792 C1413.46099,345.842132 1415.00441,347.385555 1415.40175,349.360214 Z" id="Tree" fill="#00D745"/>
                    <path d="M1711.40175,248.360214 L1723,306 L1723,306 L1690,306 L1701.59825,248.360214 C1702.14298,245.653052 1704.77917,243.900058 1707.48633,244.444792 C1709.46099,244.842132 1711.00441,246.385555 1711.40175,248.360214 Z" id="Tree" fill="#00D745"/>
                    <path d="M1390.3877,344.670589 L1409,431 L1409,431 L1362,431 L1380.6123,344.670589 C1381.19428,341.971189 1383.85437,340.254682 1386.55377,340.836663 C1388.47387,341.25063 1389.97373,342.750485 1390.3877,344.670589 Z" id="Tree" fill="#00D745"/>
                    <path d="M1686.3877,227.670589 L1705,314 L1705,314 L1658,314 L1676.6123,227.670589 C1677.19428,224.971189 1679.85437,223.254682 1682.55377,223.836663 C1684.47387,224.25063 1685.97373,225.750485 1686.3877,227.670589 Z" id="Tree" fill="#00D745"/>
                    <path d="M2122.40175,320.360214 L2134,378 L2134,378 L2101,378 L2112.59825,320.360214 C2113.14298,317.653052 2115.77917,315.900058 2118.48633,316.444792 C2120.46099,316.842132 2122.00441,318.385555 2122.40175,320.360214 Z" id="Tree" fill="#00D745"/>
                    <path d="M2155.3877,315.670589 L2174,402 L2174,402 L2127,402 L2145.6123,315.670589 C2146.19428,312.971189 2148.85437,311.254682 2151.55377,311.836663 C2153.47387,312.25063 2154.97373,313.750485 2155.3877,315.670589 Z" id="Tree" fill="#00D745"/>
                    <path d="M2367.88588,453.475056 L2393,569 L2393,569 L2333,569 L2358.11412,453.475056 C2358.70073,450.776658 2361.36375,449.064715 2364.06215,449.651323 C2365.97547,450.067263 2367.46994,451.561733 2367.88588,453.475056 Z" id="Tree" fill="#00D745"/>
                    <path d="M119.389012,497.81539 L146,622 L146,622 L83,622 L109.610988,497.81539 C110.189587,495.115263 112.847519,493.395424 115.547645,493.974023 C117.472705,494.386536 118.976499,495.89033 119.389012,497.81539 Z" id="Tree" fill="#02A837"/>
                </g>
            </g>
            <g id="Street" transform="translate(0.000000, 1250.000000)">
                <rect id="Rectangle" fill="#E8E7FF" x="0" y="0" width="2500" height="110"/>
                <rect id="Rectangle" fill="#A39FFF" x="0" y="0" width="2500" height="16"/>
            </g>
        </g>
        <g id="Left" transform="translate(80.000000, 1097.000000)">
            <g id="Tree/Medium" transform="translate(39.000000, 17.000000) scale(1 1)">
                <g id="Tree/Medium/3" stroke="none" stroke-width="1" fill="none" fill-rule="evenodd">
                    <path d="M48,104.000002 C74.509668,104.000002 112,103.07209 112,72.1441441 C112,41.2161982 90.509668,10.3773267 48,10.3773267 C5.49033201,10.3773267 -16,41.2161982 -16,72.1441441 C-16,103.07209 21.490332,104.000002 48,104.000002 Z" id="Oval" fill="#2EE17C"/>
                    <rect id="Rectangle" fill="#02A837" x="47" y="64" width="4" height="72"/>
                </g>
            </g>
            <g id="Building/Small" transform="translate(98.000000, 0.000000) scale(0.9695945945945946 0.96875)">
                <g id="Building/Small/6" stroke="none" stroke-width="1" fill="none" fill-rule="evenodd">
                    <g id="Group-2" transform="translate(8.000000, -28.000000)">
                        <g id="Group">
                            <polygon id="Triangle" fill="#5628D2" points="185.5 0 283 80 88 80 97.5 0"/>
                            <polygon id="Triangle" fill="#7364FF" points="97.5 0 195 80 0 80"/>
                        </g>
                        <rect id="Rectangle" fill="#E8E7FF" x="0" y="80" width="195" height="108"/>
                        <rect id="Rectangle" fill="#CECCFF" x="195" y="80" width="88" height="108"/>
                        <path d="M39,88 C51.7025492,88 62,98.2974508 62,111 L62,161 L62,161 L16,161 L16,111 C16,98.2974508 26.2974508,88 39,88 Z" id="Rectangle" fill="#FFC30D"/>
                        <path d="M156,88 C168.702549,88 179,98.2974508 179,111 L179,161 L179,161 L133,161 L133,111 C133,98.2974508 143.297451,88 156,88 Z" id="Rectangle" fill="#7364FF"/>
                        <path d="M239,88 C251.702549,88 262,98.2974508 262,111 L262,155 L262,155 L216,155 L216,111 C216,98.2974508 226.297451,88 239,88 Z" id="Rectangle" fill="#5628D2"/>
                        <rect id="Rectangle" fill="#A39FFF" x="0" y="172" width="195" height="16"/>
                        <rect id="Rectangle-Copy" fill="#7364FF" x="195" y="172" width="88" height="16"/>
                        <path d="M97.5,108 C108.269553,108 117,116.730447 117,127.5 L117,188 L117,188 L78,188 L78,127.5 C78,116.730447 86.7304474,108 97.5,108 Z" id="Rectangle" fill="#7364FF"/>
                        <rect id="Rectangle-Copy-5" fill="#FFF" x="12" y="157" width="53" height="7"/>
                        <rect id="Rectangle-Copy-6" fill="#FFF" x="130" y="157" width="53" height="7"/>
                        <rect id="Rectangle-Copy-7" fill="#A39FFF" x="213" y="157" width="53" height="7"/>
                    </g>
                </g>
            </g>
            <g id="Tree/Medium" transform="translate(341.000000, 17.000000) scale(1 1)">
                <g id="Tree/Medium/6" stroke="none" stroke-width="1" fill="none" fill-rule="evenodd">
                    <rect id="Rectangle" fill="#02A837" x="46" y="14" width="6" height="122"/>
                    <polygon id="Triangle" fill="#0CC647" points="48 12 109 114 -13 114"/>
                    <polygon id="Triangle" fill="#0CC647" points="49 -14 99 70 -1 70"/>
                    <polygon id="Triangle" fill="#0CC647" points="48 -33 83 27 13 27"/>
                </g>
            </g>
            <g id="Tree/Medium" transform="translate(0.000000, 17.000000) scale(1 1)">
                <g id="Tree/Medium/5" stroke="none" stroke-width="1" fill="none" fill-rule="evenodd">
                    <rect id="Rectangle" fill="#02A837" x="46" y="14" width="6" height="122"/>
                    <polygon id="Triangle" fill="#02A837" points="48 -39 101 114 -5 114"/>
                </g>
            </g>
            <g id="Tree/Small" transform="translate(295.000000, 73.000000) scale(1 1)">
                <g id="Tree/Small/2" stroke="none" stroke-width="1" fill="none" fill-rule="evenodd">
                    <g id="Group" transform="translate(8.000000, 43.000000)">
                        <circle id="Oval" fill="#02A837" cx="50.5" cy="20.5" r="13.5"/>
                        <path d="M32,0 C43.045695,0 52,8.954305 52,20 C52,20.6756748 51.9664941,21.3435238 51.9010532,22.0019763 L52,22 C58.627417,22 64,27.372583 64,34 C64,35.0362344 63.8686559,36.0417918 63.6217076,37.0009322 L1.60874853,37.0005801 C0.578218935,34.8860425 0,32.5105464 0,30 C0,22.252481 5.50656915,15.7910902 12.8194031,14.3161319 C15.2678387,6.0393621 22.928635,0 32,0 Z" id="Combined-Shape" fill="#00D745"/>
                    </g>
                </g>
            </g>
            <g id="Tree/Small" transform="translate(341.000000, 73.000000) scale(1 1)">
                <g id="Tree/Small/2" stroke="none" stroke-width="1" fill="none" fill-rule="evenodd">
                    <g id="Group" transform="translate(8.000000, 43.000000)">
                        <circle id="Oval" fill="#02A837" cx="50.5" cy="20.5" r="13.5"/>
                        <path d="M32,0 C43.045695,0 52,8.954305 52,20 C52,20.6756748 51.9664941,21.3435238 51.9010532,22.0019763 L52,22 C58.627417,22 64,27.372583 64,34 C64,35.0362344 63.8686559,36.0417918 63.6217076,37.0009322 L1.60874853,37.0005801 C0.578218935,34.8860425 0,32.5105464 0,30 C0,22.252481 5.50656915,15.7910902 12.8194031,14.3161319 C15.2678387,6.0393621 22.928635,0 32,0 Z" id="Combined-Shape" fill="#00D745"/>
                    </g>
                </g>
            </g>
            <g id="Tree/Small" transform="translate(72.000000, 73.000000) scale(1 1)">
                <g id="Tree/Small/4" stroke="none" stroke-width="1" fill="none" fill-rule="evenodd">
                    <path d="M40.5,80 C54.0309764,80 65,79.4563316 65,63.7162162 C65,47.9761008 54.0309764,23 40.5,23 C26.9690236,23 16,47.9761008 16,63.7162162 C16,79.4563316 26.9690236,80 40.5,80 Z" id="Oval" fill="#00D745"/>
                </g>
            </g>
        </g>
        <g id="Building/Wide" transform="translate(495.000000, 920.000000) scale(1 1)">
            <g id="Building/Wide/2" stroke="none" stroke-width="1" fill="none" fill-rule="evenodd">
                <polygon id="Triangle-Copy" fill="#7364FF" points="349.307692 -41 473 24 458.274725 24 339 -41"/>
                <rect id="Rectangle-Copy-9" fill="#5628D2" x="441" y="0" width="81" height="332"/>
                <rect id="Rectangle" fill="#CECCFF" x="0" y="50" width="688" height="282"/>
                <rect id="Rectangle" fill="#7364FF" x="688" y="46" width="104" height="286"/>
                <path d="M716,62 C724.836556,62 732,69.163444 732,78 L732,110 L732,110 L700,110 L700,78 C700,69.163444 707.163444,62 716,62 Z" id="Rectangle" fill="#5628D2"/>
                <path d="M716,148 C724.836556,148 732,155.163444 732,164 L732,196 L732,196 L700,196 L700,164 C700,155.163444 707.163444,148 716,148 Z" id="Rectangle" fill="#5628D2"/>
                <path d="M764,62 C772.836556,62 780,69.163444 780,78 L780,110 L780,110 L748,110 L748,78 C748,69.163444 755.163444,62 764,62 Z" id="Rectangle" fill="#5628D2"/>
                <path d="M764,148 C772.836556,148 780,155.163444 780,164 L780,196 L780,196 L748,196 L748,164 C748,155.163444 755.163444,148 764,148 Z" id="Rectangle" fill="#5628D2"/>
                <rect id="Rectangle" fill="#7364FF" x="696" y="46" width="104" height="8"/>
                <rect id="Rectangle" fill="#7364FF" x="696" y="108" width="104" height="8"/>
                <rect id="Rectangle" fill="#7364FF" x="696" y="196" width="104" height="8"/>
                <rect id="Rectangle" fill="#7364FF" x="24" y="236" width="32" height="64"/>
                <polygon id="Triangle" fill="#A39FFF" points="339 -41 459 24 219 24"/>
                <polygon id="Triangle-Copy-2" fill="#E8E7FF" points="339 -23 401 10 277 10"/>
                <rect id="Rectangle" fill="#7364FF" x="72" y="236" width="80" height="64"/>
                <path d="M40,62 C48.836556,62 56,69.163444 56,78 L56,110 L56,110 L24,110 L24,78 C24,69.163444 31.163444,62 40,62 Z" id="Rectangle" fill="#7364FF"/>
                <path d="M40,148 C48.836556,148 56,155.163444 56,164 L56,196 L56,196 L24,196 L24,164 C24,155.163444 31.163444,148 40,148 Z" id="Rectangle" fill="#FFC30D"/>
                <path d="M136,62 C144.836556,62 152,69.163444 152,78 L152,110 L152,110 L120,110 L120,78 C120,69.163444 127.163444,62 136,62 Z" id="Rectangle" fill="#FFC30D"/>
                <path d="M136,148 C144.836556,148 152,155.163444 152,164 L152,196 L152,196 L120,196 L120,164 C120,155.163444 127.163444,148 136,148 Z" id="Rectangle" fill="#7364FF"/>
                <path d="M88,62 C96.836556,62 104,69.163444 104,78 L104,110 L104,110 L72,110 L72,78 C72,69.163444 79.163444,62 88,62 Z" id="Rectangle" fill="#7364FF"/>
                <path d="M88,148 C96.836556,148 104,155.163444 104,164 L104,196 L104,196 L72,196 L72,164 C72,155.163444 79.163444,148 88,148 Z" id="Rectangle" fill="#7364FF"/>
                <rect id="Rectangle" fill="#A39FFF" x="0" y="108" width="244" height="8"/>
                <rect id="Rectangle" fill="#A39FFF" x="0" y="196" width="244" height="8"/>
                <rect id="Rectangle" fill="#7364FF" x="516" y="236" width="80" height="64"/>
                <rect id="Rectangle" fill="#7364FF" x="612" y="236" width="32" height="64"/>
                <rect id="Rectangle" fill="#FFC30D" x="713" y="236" width="54" height="64"/>
                <path d="M580,62 C588.836556,62 596,69.163444 596,78 L596,110 L596,110 L564,110 L564,78 C564,69.163444 571.163444,62 580,62 Z" id="Rectangle" fill="#FFC30D"/>
                <path d="M580,148 C588.836556,148 596,155.163444 596,164 L596,196 L596,196 L564,196 L564,164 C564,155.163444 571.163444,148 580,148 Z" id="Rectangle" fill="#7364FF"/>
                <path d="M532,62 C540.836556,62 548,69.163444 548,78 L548,110 L548,110 L516,110 L516,78 C516,69.163444 523.163444,62 532,62 Z" id="Rectangle" fill="#7364FF"/>
                <path d="M532,148 C540.836556,148 548,155.163444 548,164 L548,196 L548,196 L516,196 L516,164 C516,155.163444 523.163444,148 532,148 Z" id="Rectangle" fill="#7364FF"/>
                <path d="M628,62 C636.836556,62 644,69.163444 644,78 L644,110 L644,110 L612,110 L612,78 C612,69.163444 619.163444,62 628,62 Z" id="Rectangle" fill="#7364FF"/>
                <path d="M628,148 C636.836556,148 644,155.163444 644,164 L644,196 L644,196 L612,196 L612,164 C612,155.163444 619.163444,148 628,148 Z" id="Rectangle" fill="#7364FF"/>
                <rect id="Rectangle" fill="#A39FFF" x="444" y="108" width="244" height="8"/>
                <rect id="Rectangle-Copy-10" fill="#7364FF" x="202" y="0" width="332" height="8"/>
                <rect id="Rectangle" fill="#CECCFF" x="255" y="1" width="186" height="332"/>
                <rect id="Rectangle" fill="#A39FFF" x="444" y="196" width="244" height="8"/>
                <rect id="Rectangle" fill="#A39FFF" x="420" y="46" width="24" height="286"/>
                <rect id="Rectangle" fill="#7364FF" x="428" y="188" width="16" height="24"/>
                <path d="M344,231 C363.882251,231 380,247.117749 380,267 L380,332 L380,332 L308,332 L308,267 C308,247.117749 324.117749,231 344,231 Z" id="Rectangle" fill="#7364FF"/>
                <rect id="Rectangle" fill="#E8E7FF" x="187" y="0" width="81" height="332"/>
                <rect id="Rectangle-Copy-7" fill="#E8E7FF" x="421" y="0" width="81" height="332"/>
                <rect id="Rectangle" fill="#A39FFF" x="260" y="4" width="8" height="328"/>
                <path d="M224,60 C232.836556,60 240,67.163444 240,76 L240,108 L240,108 L208,108 L208,76 C208,67.163444 215.163444,60 224,60 Z" id="Rectangle-Copy-11" fill="#7364FF"/>
                <path d="M224,148 C232.836556,148 240,155.163444 240,164 L240,196 L240,196 L208,196 L208,164 C208,155.163444 215.163444,148 224,148 Z" id="Rectangle-Copy-13" fill="#7364FF"/>
                <path d="M457,60 C465.836556,60 473,67.163444 473,76 L473,108 L473,108 L441,108 L441,76 C441,67.163444 448.163444,60 457,60 Z" id="Rectangle-Copy-12" fill="#7364FF"/>
                <path d="M457,148 C465.836556,148 473,155.163444 473,164 L473,196 L473,196 L441,196 L441,164 C441,155.163444 448.163444,148 457,148 Z" id="Rectangle-Copy-14" fill="#7364FF"/>
                <rect id="Rectangle-Copy-8" fill="#A39FFF" x="179" y="0" width="332" height="8"/>
                <rect id="Rectangle" fill="#A39FFF" x="284" y="62" width="32" height="134"/>
                <rect id="Rectangle" fill="#A39FFF" x="328" y="62" width="32" height="134"/>
                <rect id="Rectangle" fill="#A39FFF" x="494" y="8" width="8" height="324"/>
                <rect id="Rectangle" fill="#A39FFF" x="372" y="62" width="32" height="134"/>
                <path d="M300,73 C306.075132,73 311,77.9248678 311,84 L311,121 L311,121 L289,121 L289,84 C289,77.9248678 293.924868,73 300,73 Z" id="Rectangle-Copy" fill="#7364FF"/>
                <path d="M300,132 C306.075132,132 311,136.924868 311,143 L311,180 L311,180 L289,180 L289,143 C289,136.924868 293.924868,132 300,132 Z" id="Rectangle-Copy-4" fill="#7364FF"/>
                <path d="M344,73 C350.075132,73 355,77.9248678 355,84 L355,121 L355,121 L333,121 L333,84 C333,77.9248678 337.924868,73 344,73 Z" id="Rectangle-Copy-2" fill="#7364FF"/>
                <path d="M344,132 C350.075132,132 355,136.924868 355,143 L355,180 L355,180 L333,180 L333,143 C333,136.924868 337.924868,132 344,132 Z" id="Rectangle-Copy-5" fill="#7364FF"/>
                <path d="M388,73 C394.075132,73 399,77.9248678 399,84 L399,121 L399,121 L377,121 L377,84 C377,77.9248678 381.924868,73 388,73 Z" id="Rectangle-Copy-3" fill="#7364FF"/>
                <rect id="Rectangle" fill="#A39FFF" x="0" y="46" width="696" height="8"/>
                <path d="M388,132 C394.075132,132 399,136.924868 399,143 L399,180 L399,180 L377,180 L377,143 C377,136.924868 381.924868,132 388,132 Z" id="Rectangle-Copy-6" fill="#7364FF"/>
                <rect id="Rectangle" fill="#A39FFF" x="244" y="188" width="192" height="24"/>
            </g>
        </g>
        <g id="Building/Wide" transform="translate(1206.000000, 920.000000) scale(1 1)">
            <g id="Building/Wide/1" stroke="none" stroke-width="1" fill="none" fill-rule="evenodd">
                <rect id="Rectangle" fill="#7364FF" x="444" y="14" width="11" height="22"/>
                <rect id="Rectangle" fill="#CECCFF" x="0" y="36" width="688" height="296"/>
                <rect id="Rectangle" fill="#7364FF" x="688" y="36" width="104" height="296"/>
                <path d="M716,62 C724.836556,62 732,69.163444 732,78 L732,110 L732,110 L700,110 L700,78 C700,69.163444 707.163444,62 716,62 Z" id="Rectangle" fill="#5628D2"/>
                <path d="M716,148 C724.836556,148 732,155.163444 732,164 L732,196 L732,196 L700,196 L700,164 C700,155.163444 707.163444,148 716,148 Z" id="Rectangle" fill="#5628D2"/>
                <path d="M764,62 C772.836556,62 780,69.163444 780,78 L780,110 L780,110 L748,110 L748,78 C748,69.163444 755.163444,62 764,62 Z" id="Rectangle" fill="#5628D2"/>
                <path d="M764,148 C772.836556,148 780,155.163444 780,164 L780,196 L780,196 L748,196 L748,164 C748,155.163444 755.163444,148 764,148 Z" id="Rectangle" fill="#5628D2"/>
                <rect id="Rectangle" fill="#7364FF" x="696" y="28" width="104" height="8"/>
                <rect id="Rectangle" fill="#7364FF" x="696" y="108" width="104" height="8"/>
                <rect id="Rectangle" fill="#7364FF" x="696" y="196" width="104" height="8"/>
                <rect id="Rectangle" fill="#7364FF" x="24" y="236" width="80" height="64"/>
                <rect id="Rectangle" fill="#7364FF" x="120" y="236" width="80" height="64"/>
                <path d="M40,62 C48.836556,62 56,69.163444 56,78 L56,110 L56,110 L24,110 L24,78 C24,69.163444 31.163444,62 40,62 Z" id="Rectangle" fill="#7364FF"/>
                <path d="M40,148 C48.836556,148 56,155.163444 56,164 L56,196 L56,196 L24,196 L24,164 C24,155.163444 31.163444,148 40,148 Z" id="Rectangle" fill="#FFC30D"/>
                <path d="M136,62 C144.836556,62 152,69.163444 152,78 L152,110 L152,110 L120,110 L120,78 C120,69.163444 127.163444,62 136,62 Z" id="Rectangle" fill="#FFC30D"/>
                <path d="M136,148 C144.836556,148 152,155.163444 152,164 L152,196 L152,196 L120,196 L120,164 C120,155.163444 127.163444,148 136,148 Z" id="Rectangle" fill="#7364FF"/>
                <path d="M88,62 C96.836556,62 104,69.163444 104,78 L104,110 L104,110 L72,110 L72,78 C72,69.163444 79.163444,62 88,62 Z" id="Rectangle" fill="#7364FF"/>
                <path d="M88,148 C96.836556,148 104,155.163444 104,164 L104,196 L104,196 L72,196 L72,164 C72,155.163444 79.163444,148 88,148 Z" id="Rectangle" fill="#7364FF"/>
                <path d="M184,62 C192.836556,62 200,69.163444 200,78 L200,110 L200,110 L168,110 L168,78 C168,69.163444 175.163444,62 184,62 Z" id="Rectangle" fill="#7364FF"/>
                <path d="M184,148 C192.836556,148 200,155.163444 200,164 L200,196 L200,196 L168,196 L168,164 C168,155.163444 175.163444,148 184,148 Z" id="Rectangle" fill="#7364FF"/>
                <rect id="Rectangle" fill="#A39FFF" x="0" y="108" width="244" height="8"/>
                <rect id="Rectangle" fill="#A39FFF" x="0" y="196" width="244" height="8"/>
                <rect id="Rectangle" fill="#7364FF" x="468" y="236" width="80" height="64"/>
                <rect id="Rectangle" fill="#7364FF" x="564" y="236" width="80" height="64"/>
                <rect id="Rectangle" fill="#FFC30D" x="713" y="236" width="54" height="64"/>
                <g id="Group" transform="translate(312.000000, -16.000000)">
                    <path d="M44.1589923,0 C55.1168783,0 64,8.954305 64,20 L64,30 L24.3179846,30 L24.3179846,20 C24.3179846,16.222207 18.5439718,3.01395126 20.349783,0 L44.1589923,0 Z" id="Rectangle" fill="#7364FF"/>
                    <path d="M20,0 C31.045695,-2.02906125e-15 40,8.954305 40,20 L40,30 L40,30 L0,30 L0,20 C-1.3527075e-15,8.954305 8.954305,2.02906125e-15 20,0 Z" id="Rectangle" fill="#A39FFF"/>
                    <circle id="Oval" fill="#7364FF" cx="20" cy="16" r="8"/>
                </g>
                <path d="M484,62 C492.836556,62 500,69.163444 500,78 L500,110 L500,110 L468,110 L468,78 C468,69.163444 475.163444,62 484,62 Z" id="Rectangle" fill="#7364FF"/>
                <path d="M484,148 C492.836556,148 500,155.163444 500,164 L500,196 L500,196 L468,196 L468,164 C468,155.163444 475.163444,148 484,148 Z" id="Rectangle" fill="#FFC30D"/>
                <path d="M580,62 C588.836556,62 596,69.163444 596,78 L596,110 L596,110 L564,110 L564,78 C564,69.163444 571.163444,62 580,62 Z" id="Rectangle" fill="#FFC30D"/>
                <path d="M580,148 C588.836556,148 596,155.163444 596,164 L596,196 L596,196 L564,196 L564,164 C564,155.163444 571.163444,148 580,148 Z" id="Rectangle" fill="#7364FF"/>
                <path d="M532,62 C540.836556,62 548,69.163444 548,78 L548,110 L548,110 L516,110 L516,78 C516,69.163444 523.163444,62 532,62 Z" id="Rectangle" fill="#7364FF"/>
                <path d="M532,148 C540.836556,148 548,155.163444 548,164 L548,196 L548,196 L516,196 L516,164 C516,155.163444 523.163444,148 532,148 Z" id="Rectangle" fill="#7364FF"/>
                <path d="M628,62 C636.836556,62 644,69.163444 644,78 L644,110 L644,110 L612,110 L612,78 C612,69.163444 619.163444,62 628,62 Z" id="Rectangle" fill="#7364FF"/>
                <path d="M628,148 C636.836556,148 644,155.163444 644,164 L644,196 L644,196 L612,196 L612,164 C612,155.163444 619.163444,148 628,148 Z" id="Rectangle" fill="#7364FF"/>
                <rect id="Rectangle" fill="#A39FFF" x="444" y="108" width="244" height="8"/>
                <rect id="Rectangle" fill="#A39FFF" x="0" y="28" width="696" height="8"/>
                <rect id="Rectangle" fill="#E8E7FF" x="246" y="22" width="186" height="311"/>
                <rect id="Rectangle" fill="#A39FFF" x="244" y="14" width="192" height="8"/>
                <rect id="Rectangle" fill="#A39FFF" x="444" y="196" width="244" height="8"/>
                <rect id="Rectangle" fill="#A39FFF" x="420" y="22" width="24" height="310"/>
                <rect id="Rectangle" fill="#7364FF" x="436" y="14" width="8" height="318"/>
                <rect id="Rectangle" fill="#7364FF" x="428" y="188" width="16" height="24"/>
                <path d="M344,236 C363.882251,236 380,252.117749 380,272 L380,332 L380,332 L308,332 L308,272 C308,252.117749 324.117749,236 344,236 Z" id="Rectangle" fill="#7364FF"/>
                <rect id="Rectangle" fill="#A39FFF" x="244" y="22" width="24" height="310"/>
                <rect id="Rectangle" fill="#7364FF" x="260" y="22" width="8" height="310"/>
                <path d="M300,62 C308.836556,62 316,69.163444 316,78 L316,196 L316,196 L284,196 L284,78 C284,69.163444 291.163444,62 300,62 Z" id="Rectangle" fill="#7364FF"/>
                <path d="M344,62 C352.836556,62 360,69.163444 360,78 L360,196 L360,196 L328,196 L328,78 C328,69.163444 335.163444,62 344,62 Z" id="Rectangle" fill="#7364FF"/>
                <path d="M388,62 C396.836556,62 404,69.163444 404,78 L404,196 L404,196 L372,196 L372,78 C372,69.163444 379.163444,62 388,62 Z" id="Rectangle" fill="#7364FF"/>
                <rect id="Rectangle" fill="#CECCFF" x="236" y="188" width="192" height="24"/>
            </g>
        </g>
        <g id="Right" transform="translate(1939.000000, 1097.000000)">
            <g id="Tree/Medium" transform="translate(0.000000, 17.000000) scale(1 1)">
                <g id="Tree/Medium/6" stroke="none" stroke-width="1" fill="none" fill-rule="evenodd">
                    <rect id="Rectangle" fill="#02A837" x="46" y="14" width="6" height="122"/>
                    <polygon id="Triangle" fill="#0CC647" points="48 12 109 114 -13 114"/>
                    <polygon id="Triangle" fill="#0CC647" points="49 -14 99 70 -1 70"/>
                    <polygon id="Triangle" fill="#0CC647" points="48 -33 83 27 13 27"/>
                </g>
            </g>
            <g id="Building/Small" transform="translate(66.000000, 0.000000) scale(0.9695945945945946 0.96875)">
                <g id="Building/Small/4" stroke="none" stroke-width="1" fill="none" fill-rule="evenodd">
                    <g id="Group-3" transform="translate(3.000000, 0.000000)">
                        <rect id="Rectangle" fill="#E8E7FF" x="5" y="52" width="195" height="108"/>
                        <rect id="Rectangle" fill="#CECCFF" x="200" y="52" width="88" height="108"/>
                        <polygon id="Rectangle-Copy" fill="#5628D2" points="200 124 288 124 295 160 200 160"/>
                        <polygon id="Rectangle" fill="#7364FF" points="5 124 200 124 205 160 0 160"/>
                        <rect id="Rectangle" fill="#FFE38E" x="83" y="76" width="39" height="84"/>
                        <rect id="Rectangle-Copy-2" fill="#FFE38E" x="12" y="59" width="54" height="61"/>
                        <rect id="Rectangle" fill="#5628D2" x="83" y="76" width="6" height="84"/>
                        <rect id="Rectangle-Copy-3" fill="#FFE38E" x="139" y="59" width="54" height="61"/>
                        <rect id="Rectangle-Copy-5" fill="#FFC30D" x="211" y="59" width="66" height="61"/>
                        <g id="Group-2" transform="translate(62.000000, 52.000000)">
                            <g id="Group">
                                <path d="M29,0 L70,0 L70,0 L70,29 L0,29 C-1.96142588e-15,12.9837423 12.9837423,-6.10574862e-16 29,0 Z" id="Rectangle" fill="#7364FF"/>
                                <path d="M70,0 L70,0 L70,0 L70,29 L45,29 L45,25 C45,11.1928813 56.1928813,2.53632657e-15 70,0 Z" id="Rectangle-Copy-4" fill="#5628D2"/>
                            </g>
                            <ellipse id="Oval" fill="#7364FF" cx="5.5" cy="29" rx="5.5" ry="6"/>
                            <circle id="Oval-Copy" fill="#7364FF" cx="17" cy="29" r="6"/>
                            <ellipse id="Oval-Copy-4" fill="#5628D2" cx="51.5" cy="29" rx="6.5" ry="6"/>
                            <circle id="Oval-Copy-2" fill="#7364FF" cx="29" cy="29" r="6"/>
                            <circle id="Oval-Copy-5" fill="#5628D2" cx="64" cy="29" r="6"/>
                            <ellipse id="Oval-Copy-3" fill="#7364FF" cx="39.5" cy="29" rx="5.5" ry="6"/>
                        </g>
                        <ellipse id="Oval-Copy-6" fill="#7364FF" cx="246.5" cy="81" rx="11.5" ry="11"/>
                        <rect id="Rectangle" fill="#7364FF" x="231" y="82" width="31" height="10" rx="5"/>
                        <polygon id="Rectangle" fill="#A39FFF" points="235 92 258 92 255 103 238 103"/>
                        <polygon id="Rectangle" fill="#7364FF" points="25 0 180 0 200 52 5 52"/>
                        <polygon id="Rectangle-Copy-6" fill="#5628D2" points="180 0 268 0 288 52 200 52"/>
                    </g>
                </g>
            </g>
            <g id="Tree/Medium" transform="translate(327.000000, 17.000000) scale(1 1)">
                <g id="Tree/Medium/3" stroke="none" stroke-width="1" fill="none" fill-rule="evenodd">
                    <path d="M48,104.000002 C74.509668,104.000002 112,103.07209 112,72.1441441 C112,41.2161982 90.509668,10.3773267 48,10.3773267 C5.49033201,10.3773267 -16,41.2161982 -16,72.1441441 C-16,103.07209 21.490332,104.000002 48,104.000002 Z" id="Oval" fill="#2EE17C"/>
                    <rect id="Rectangle" fill="#02A837" x="47" y="64" width="4" height="72"/>
                </g>
            </g>
            <g id="Tree/Small" transform="translate(401.000000, 73.000000) scale(1 1)">
                <g id="Tree/Small/1" stroke="none" stroke-width="1" fill="none" fill-rule="evenodd">
                    <circle id="Oval" fill="#00D745" cx="58" cy="62" r="14"/>
                    <path d="M32,43 C38.3259398,43 43.5086123,47.8949093 43.9670354,54.1037459 C45.4975132,53.3951663 47.2026086,53 49,53 C55.627417,53 61,58.372583 61,65 C61,65.5684111 60.9604798,66.1275918 60.8840371,66.6749442 C62.673726,65.610715 64.7655429,65 67,65 C73.627417,65 79,70.372583 79,77 C79,78.0362344 78.8686559,79.0417918 78.6217076,80.0009322 L2.60874853,80.0005801 C1.57821894,77.8860425 1,75.5105464 1,73 C1,64.163444 8.163444,57 17,57 C18.1049225,57 19.1836859,57.1120004 20.2255567,57.3252675 C20.0775021,56.5738849 20,55.7959932 20,55 C20,48.372583 25.372583,43 32,43 Z" id="Combined-Shape" fill="#02A837"/>
                </g>
            </g>
        </g>
        <g id="Cars" transform="translate(33.000000, 1167.000000)">
            <g id="Transport" transform="translate(2115.000000, 0.000000) scale(1 1)">
                <g id="Transport/SUV" stroke="none" stroke-width="1" fill="none" fill-rule="evenodd">
                    <g id="Group" transform="translate(56.000000, 38.000000)">
                        <path d="M17,32 L200.048387,32 C204.466665,32 208.048387,35.581722 208.048387,40 L208.048387,68 C208.048387,70.209139 206.257526,72 204.048387,72 L21.0435513,72 C18.8363017,72 17.0462243,70.2120867 17.0435542,68.0048387 L17,32 L17,32 Z" id="Rectangle" fill="#A39FFF"/>
                        <path d="M35.4176131,0 L135.170134,0 C138.295611,2.97857303e-15 141.134881,1.82016185 142.439667,4.66025581 L155,32 L155,32 L17,32 L28.0090072,4.98129847 C29.2363113,1.96920475 32.1650781,2.37383782e-15 35.4176131,0 Z" id="Rectangle" fill="#CECCFF"/>
                        <path d="M136.80242,7 C137.258466,7 137.685626,7.15427188 138.027265,7.41893832 C138.368903,7.68360476 138.625019,8.05866575 138.738975,8.50024396 L138.738975,8.50024396 L150.255041,32 L105,32 L105,7 Z M101,32 L31.0230422,32 C30.6744946,32 30.3286132,31.9392608 30.0009195,31.820508 C28.443196,31.2560053 27.6380314,29.5356009 28.2025342,27.9778774 L28.2025342,27.9778774 L35.261025,8.50024396 C35.3749807,8.05866575 35.6310967,7.68360476 35.9727352,7.41893832 C36.3143736,7.15427188 36.7415345,7 37.1975797,7 L37.1975797,7 L101,7 L101,32 Z" id="Combined-Shape" fill="#5628D2"/>
                        <circle id="Oval" fill="#370EA3" cx="45.5" cy="77.5" r="18.5"/>
                        <circle id="Oval" fill="#E8E7FF" cx="45.5" cy="77.5" r="9.5"/>
                        <circle id="Oval" fill="#370EA3" cx="174.5" cy="77.5" r="18.5"/>
                        <circle id="Oval" fill="#E8E7FF" cx="174.5" cy="77.5" r="9.5"/>
                        <rect id="Rectangle" fill="#5628D2" x="0" y="32" width="17" height="37" rx="3"/>
                    </g>
                </g>
            </g>
            <g id="Transport" transform="translate(1022.000000, 0.000000) scale(1 1)">
                <g id="Transport/Sedan" stroke="none" stroke-width="1" fill="none" fill-rule="evenodd">
                    <g id="Group" transform="translate(37.000000, 54.000000)">
                        <path d="M0,28 L181,28 L230.630362,32.6564276 C237.755695,33.3249418 243.416362,38.9339796 244.150132,46.052889 L245.545434,59.5898795 C245.771937,61.7873761 244.174132,63.7524163 241.976635,63.9789196 C241.840379,63.9929639 241.703492,64 241.566515,64 L4.18282744,64 C1.98260471,64 0.195458644,62.2230317 0.182892676,60.0228449 L0,28 L0,28 Z" id="Rectangle" fill="#7364FF"/>
                        <path d="M9.05087575,0 L157.088115,0 C157.687135,-4.32888575e-15 158.254617,0.268498049 158.634499,0.731655718 L181,28 L181,28 L0,28 L5.13385422,3.1894802 C5.51818937,1.33209308 7.15414161,1.23660283e-15 9.05087575,0 Z" id="Rectangle" fill="#A39FFF"/>
                        <path d="M155.702026,4 C156.27278,4 156.807384,4.14810101 157.234954,4.40218079 C157.520001,4.57156731 164.10835,12.437507 177,28 L177,28 L129,28 L129,4 Z M124,28 L86.0553508,28 C85.7578425,28 85.461989,27.9557457 85.1775027,27.86869 C83.5931689,27.3838679 82.7018386,25.7064856 83.1866608,24.1221518 L83.1866608,24.1221518 L88.9035167,5.4402342 C89.0461355,5.01631912 89.3666722,4.65626057 89.7942426,4.40218079 C90.2218131,4.14810101 90.7564172,4 91.327171,4 L91.327171,4 L124,4 L124,28 Z" id="Combined-Shape" fill="#5628D2"/>
                        <path d="M8.01103666,4 C7.53745148,4 7.09386157,4.14810101 6.73908334,4.40218079 C6.3843051,4.65626057 6.11833853,5.01631912 6,5.4402342 L10.0991462,25.5978289 C10.3833955,26.9956282 11.6125679,28 13.0389762,28 L82.6487843,28 C83.2010691,28 83.6487843,27.5522847 83.6487843,27 C83.6487843,26.9009653 83.6340729,26.8024799 83.6051318,26.7077682 L77.1063967,5.4402342 L77.1063967,5.4402342 C76.9880582,5.01631912 76.7220916,4.65626057 76.3673133,4.40218079 C76.0125351,4.14810101 75.5689452,4 75.09536,4 L8.01103666,4 Z" id="Combined-Shape-Copy" fill="#5628D2" transform="translate(44.824392, 16.000000) scale(1, -1) translate(-44.824392, -16.000000)"/>
                        <circle id="Oval" fill="#370EA3" cx="55" cy="64" r="16"/>
                        <circle id="Oval" fill="#E8E7FF" cx="55" cy="64" r="8"/>
                        <circle id="Oval" fill="#370EA3" cx="198" cy="64" r="16"/>
                        <circle id="Oval" fill="#E8E7FF" cx="198" cy="64" r="8"/>
                    </g>
                </g>
            </g>
            <g id="Transport" transform="scale(1 1)">
                <g id="Transport/Sedan" stroke="none" stroke-width="1" fill="none" fill-rule="evenodd">
                    <g id="Group" transform="translate(37.000000, 54.000000)">
                        <path d="M0,28 L181,28 L230.630362,32.6564276 C237.755695,33.3249418 243.416362,38.9339796 244.150132,46.052889 L245.545434,59.5898795 C245.771937,61.7873761 244.174132,63.7524163 241.976635,63.9789196 C241.840379,63.9929639 241.703492,64 241.566515,64 L4.18282744,64 C1.98260471,64 0.195458644,62.2230317 0.182892676,60.0228449 L0,28 L0,28 Z" id="Rectangle" fill="#7364FF"/>
                        <path d="M9.05087575,0 L157.088115,0 C157.687135,-4.32888575e-15 158.254617,0.268498049 158.634499,0.731655718 L181,28 L181,28 L0,28 L5.13385422,3.1894802 C5.51818937,1.33209308 7.15414161,1.23660283e-15 9.05087575,0 Z" id="Rectangle" fill="#A39FFF"/>
                        <path d="M155.702026,4 C156.27278,4 156.807384,4.14810101 157.234954,4.40218079 C157.520001,4.57156731 164.10835,12.437507 177,28 L177,28 L129,28 L129,4 Z M124,28 L86.0553508,28 C85.7578425,28 85.461989,27.9557457 85.1775027,27.86869 C83.5931689,27.3838679 82.7018386,25.7064856 83.1866608,24.1221518 L83.1866608,24.1221518 L88.9035167,5.4402342 C89.0461355,5.01631912 89.3666722,4.65626057 89.7942426,4.40218079 C90.2218131,4.14810101 90.7564172,4 91.327171,4 L91.327171,4 L124,4 L124,28 Z" id="Combined-Shape" fill="#5628D2"/>
                        <path d="M8.01103666,4 C7.53745148,4 7.09386157,4.14810101 6.73908334,4.40218079 C6.3843051,4.65626057 6.11833853,5.01631912 6,5.4402342 L10.0991462,25.5978289 C10.3833955,26.9956282 11.6125679,28 13.0389762,28 L82.6487843,28 C83.2010691,28 83.6487843,27.5522847 83.6487843,27 C83.6487843,26.9009653 83.6340729,26.8024799 83.6051318,26.7077682 L77.1063967,5.4402342 L77.1063967,5.4402342 C76.9880582,5.01631912 76.7220916,4.65626057 76.3673133,4.40218079 C76.0125351,4.14810101 75.5689452,4 75.09536,4 L8.01103666,4 Z" id="Combined-Shape-Copy" fill="#5628D2" transform="translate(44.824392, 16.000000) scale(1, -1) translate(-44.824392, -16.000000)"/>
                        <circle id="Oval" fill="#370EA3" cx="55" cy="64" r="16"/>
                        <circle id="Oval" fill="#E8E7FF" cx="55" cy="64" r="8"/>
                        <circle id="Oval" fill="#370EA3" cx="198" cy="64" r="16"/>
                        <circle id="Oval" fill="#E8E7FF" cx="198" cy="64" r="8"/>
                    </g>
                </g>
            </g>
        </g>
    </g>
</svg>
