<svg viewBox="0 71.743 2500 1310.092" xmlns="http://www.w3.org/2000/svg" overflow="visible">
    <g id="Master/Composition/Isolated" stroke="none" stroke-width="1" fill="none" fill-rule="evenodd">
        <g id="bg">
            <g id="Sky" transform="scale(1 1)">
                <g id="Sky/Sunny" stroke="none" stroke-width="1" fill="none" fill-rule="evenodd">
                    <circle id="Sun" fill="#FFE38E" cx="266.5" cy="231.5" r="131.5"/>
                    <path d="M230.02347,490 C261.32973,490 289.284596,504.455264 307.670058,527.101743 C317.476913,519.945268 329.537592,515.7263 342.576421,515.7263 C368.778342,515.7263 391.030285,532.763382 399.012054,556.440941 C404.514894,554.749035 410.358564,553.839338 416.413143,553.839338 C449.322056,553.839338 476,580.714804 476,613.867372 C476,614.918048 475.973205,615.962419 475.920265,616.99983 L57,616.999752 C58.3374237,589.25761 81.0883376,567.178901 108.958111,567.178901 C117.025495,567.178901 124.663964,569.028903 131.478295,572.330759 C140.168693,525.468899 180.984421,490 230.02347,490 Z" id="Cloud" fill="#E8E7FF" transform="translate(266.500000, 553.500000) scale(-1, 1) translate(-266.500000, -553.500000)"/>
                    <path d="M444.09406,512 C482.897992,512 514.354794,543.450442 514.354794,582.246528 C540.207913,582.246528 562.799722,596.207035 575,617 L316,617 C322.979169,588.938007 346.834687,567.544381 376.170482,564.212891 C384.132634,534.154982 411.525537,512 444.09406,512 Z" id="Cloud" fill="#CECCFF"/>
                    <path d="M2234.5,340 C2264.76578,340 2290.10123,359.327107 2296.58658,385.23673 C2305.00702,381.474486 2314.46909,379.364437 2324.46943,379.364437 C2349.60821,379.364437 2371.34557,392.698161 2381.70506,412.062583 C2385.01679,411.182001 2388.52099,410.710192 2392.14555,410.710192 C2410.58732,410.710192 2425.91328,422.924252 2428.99981,438.999001 L2040.00019,438.999001 C2043.08672,422.924252 2058.41268,410.710192 2076.85445,410.710192 C2082.55988,410.710192 2087.96708,411.879238 2092.8059,413.969976 C2102.35572,392.801891 2125.12609,377.906495 2151.69628,377.906495 C2159.3631,377.906495 2166.71356,379.146702 2173.52136,381.419953 C2181.43176,357.451961 2205.73989,340 2234.5,340 Z" id="Cloud" fill="#E8E7FF"/>
                    <path d="M1713.02347,315 C1744.32973,315 1772.2846,329.455264 1790.67006,352.101743 C1800.47691,344.945268 1812.53759,340.7263 1825.57642,340.7263 C1851.77834,340.7263 1874.03028,357.763382 1882.01205,381.440941 C1887.51489,379.749035 1893.35856,378.839338 1899.41314,378.839338 C1932.32206,378.839338 1959,405.714804 1959,438.867372 C1959,439.918048 1958.9732,440.962419 1958.92027,441.99983 L1540,441.999752 C1541.33742,414.25761 1564.08834,392.178901 1591.95811,392.178901 C1600.0255,392.178901 1607.66396,394.028903 1614.47829,397.330759 C1623.16869,350.468899 1663.98442,315 1713.02347,315 Z" id="Cloud" fill="#E8E7FF" transform="translate(1749.500000, 378.500000) scale(-1, 1) translate(-1749.500000, -378.500000)"/>
                    <path d="M1995.91115,285 C2034.61303,285 2069.17186,302.843336 2091.90092,330.797878 C2104.02584,321.964872 2118.93576,316.756989 2135.05491,316.756989 C2167.44689,316.756989 2194.95576,337.787625 2204.82338,367.015361 C2211.6267,364.927284 2218.85082,363.804379 2226.33566,363.804379 C2267.01935,363.804379 2300,396.979918 2300,437.904019 C2300,439.278068 2299.96282,440.643383 2299.88942,441.999 L1782.00004,441.998204 C1783.53954,407.646099 1811.71361,380.270966 1846.24393,380.270966 C1856.21734,380.270966 1865.66049,382.554684 1874.08478,386.630625 C1884.82821,328.783289 1935.28665,285 1995.91115,285 Z" id="Cloud" fill="#CECCFF" transform="translate(2041.000000, 363.500000) scale(-1, 1) translate(-2041.000000, -363.500000)"/>
                </g>
            </g>
            <g id="Horizon" transform="translate(0.000000, 537.000000) scale(1 1)">
                <g id="Horizon/Canyon" stroke="none" stroke-width="1" fill="none" fill-rule="evenodd">
                    <path d="M714.424092,505.555556 L714.424,533.723 L961,660 L266,660 L574.506,502.007 L574.506601,483.555556 C574.506601,465.080689 585.892983,449.265254 602.030943,442.744054 L602.031353,431.480015 C602.031353,412.478138 617.435417,397.074074 636.437294,397.074074 L636.437294,358 C636.437294,353.581722 640.019016,350 644.437294,350 L662.843234,350 C667.261512,350 670.843234,353.581722 670.843234,358 L670.844173,443.461169 C696.258733,452.639113 714.424092,476.975961 714.424092,505.555556 Z" id="Rock" fill="#FFE38E" transform="translate(613.500000, 505.000000) scale(-1, 1) translate(-613.500000, -505.000000)"/>
                    <path d="M2385.97606,206 C2389.30299,206 2392,208.689899 2392,212.008058 L2392,212.008058 L2392,380 L2391,380 L2391.0015,410.639929 C2435.13651,421.007938 2468,460.70289 2468,508.08907 L2468,618.983077 C2468,622.821942 2466.86483,626.395136 2464.91249,629.384006 L2500,660 L1873,660 L2042,570.943 L2042,492.073948 C2042,454.306945 2075.65184,423.619232 2117.42141,423.009254 L2118.68961,423 L2220.87359,423 C2225.05214,423 2229.11361,423.451501 2233.00114,424.303294 L2233,371.915749 C2233,347.109466 2253.14258,327 2277.98971,327 L2277.98971,327 L2312,327 L2312,288.713396 C2312,266.999624 2329.55223,249.356021 2351.33853,249.00532 L2352,249 L2352,249 L2352,212.008058 C2352,208.689899 2354.69701,206 2358.02394,206 L2358.02394,206 Z" id="Rock" fill="#FFE38E"/>
                    <path d="M1766,319 C1774.28427,319 1781,333.954305 1781,345 C1781,356.045695 1774.28427,359 1766,359 C1765.77221,359 1765.5456,358.997766 1765.32029,358.993192 C1767.59784,362.315898 1769,366.476021 1769,370 C1769,374.438019 1766.77612,376.828265 1763.38196,378.006612 C1770.38504,378.207617 1776,383.948087 1776,391 L1776,391 L1776.97606,391 C1780.30299,391 1783,393.689899 1783,397.008058 L1783,397.008058 L1783,434 C1805.09139,434 1823,451.780293 1823,473.713396 L1823,473.713396 L1823,512 L1832.01029,512 C1856.60895,512 1876.59668,525.015567 1876.99397,541.170839 L1877,541.661344 L1877,601.162 L1992,660 L1646,660 C1673.94636,596.155924 1704.5414,558.219048 1737.78511,546.18937 C1739.50285,541.44332 1741.24102,537.192642 1743.00025,533.435787 L1743,397.008058 C1743,393.689899 1745.69701,391 1749.02394,391 L1749.02394,391 L1750,391 C1750,385.540008 1753.36602,380.866191 1758.13615,378.940459 C1757.44139,378.981301 1756.72768,379 1756,379 C1748.8203,379 1743,377.179702 1743,370 C1743,363.832885 1747.29434,355.71748 1753.05587,353.551043 C1751.74935,351.476518 1751,348.689684 1751,345 C1751,333.954305 1757.71573,319 1766,319 Z" id="Rock" fill="#FFE38E"/>
                    <path d="M273,90 C282.388841,90 290,97.6111593 290,107 L290,173 L305,173 C328.195959,173 347,191.804041 347,215 L347,337 L364,337 C413.755333,337 454.184207,376.93132 454.987809,426.495149 L455,428 L455,484.064 L800,660 L0,660 L152.68533,528.834509 C151.602769,526.445775 151,523.79328 151,521 L151,521 L151,437 C151,397.164843 174.292111,362.76985 208.000092,346.691262 L207.999745,258.757542 C207.352641,256.959509 207,255.020936 207,253 L207,107 C207,97.6111593 214.611159,90 224,90 L273,90 Z" id="Rock" fill="#FFC30D"/>
                </g>
            </g>
            <rect id="Field" fill="#0CC647" x="0" y="1197" width="2500" height="163"/>
        </g>
        <g id="Trees" transform="translate(1554.000000, 1062.000000) scale(1 1)">
            <g id="Trees/Group of Trees" stroke="none" stroke-width="1" fill="none" fill-rule="evenodd">
                <g id="Tree/Medium" transform="scale(1 1)">
                    <g id="Tree/Medium/7" stroke="none" stroke-width="1" fill="none" fill-rule="evenodd">
                        <rect id="Rectangle" fill="#02A837" x="47" y="40" width="4" height="96"/>
                        <polygon id="Triangle" fill="#02A837" points="48 34 96 115 0 115"/>
                        <polygon id="Triangle" fill="#02A837" points="49 13 89 80 9 80"/>
                        <polygon id="Triangle" fill="#02A837" points="48 -2 76 45 20 45"/>
                    </g>
                </g>
                <g id="Tree/Medium" transform="translate(36.000000, 0.000000) scale(1 1)">
                    <g id="Tree/Medium/5" stroke="none" stroke-width="1" fill="none" fill-rule="evenodd">
                        <rect id="Rectangle" fill="#02A837" x="46" y="14" width="6" height="122"/>
                        <polygon id="Triangle" fill="#02A837" points="48 -39 101 114 -5 114"/>
                    </g>
                </g>
                <g id="Tree/Small" transform="translate(60.000000, 56.000000) scale(1 1)">
                    <g id="Tree/Small/1" stroke="none" stroke-width="1" fill="none" fill-rule="evenodd">
                        <circle id="Oval" fill="#00D745" cx="58" cy="62" r="14"/>
                        <path d="M32,43 C38.3259398,43 43.5086123,47.8949093 43.9670354,54.1037459 C45.4975132,53.3951663 47.2026086,53 49,53 C55.627417,53 61,58.372583 61,65 C61,65.5684111 60.9604798,66.1275918 60.8840371,66.6749442 C62.673726,65.610715 64.7655429,65 67,65 C73.627417,65 79,70.372583 79,77 C79,78.0362344 78.8686559,79.0417918 78.6217076,80.0009322 L2.60874853,80.0005801 C1.57821894,77.8860425 1,75.5105464 1,73 C1,64.163444 8.163444,57 17,57 C18.1049225,57 19.1836859,57.1120004 20.2255567,57.3252675 C20.0775021,56.5738849 20,55.7959932 20,55 C20,48.372583 25.372583,43 32,43 Z" id="Combined-Shape" fill="#02A837"/>
                    </g>
                </g>
                <g id="Tree/Medium" transform="translate(356.000000, 0.000000) scale(1 1)">
                    <g id="Tree/Medium/9" stroke="none" stroke-width="1" fill="none" fill-rule="evenodd">
                        <path d="M48,112 C74.509668,112 96,103.07209 96,72.1441441 C96,41.2161982 74.509668,0 48,0 C21.490332,0 0,41.2161982 0,72.1441441 C0,103.07209 21.490332,112 48,112 Z" id="Oval" fill="#00D745"/>
                        <rect id="Rectangle" fill="#02A837" x="47" y="40" width="4" height="96"/>
                    </g>
                </g>
                <g id="Tree/Medium" transform="translate(232.000000, 0.000000) scale(1 1)">
                    <g id="Tree/Medium/3" stroke="none" stroke-width="1" fill="none" fill-rule="evenodd">
                        <path d="M48,104.000002 C74.509668,104.000002 112,103.07209 112,72.1441441 C112,41.2161982 90.509668,10.3773267 48,10.3773267 C5.49033201,10.3773267 -16,41.2161982 -16,72.1441441 C-16,103.07209 21.490332,104.000002 48,104.000002 Z" id="Oval" fill="#2EE17C"/>
                        <rect id="Rectangle" fill="#02A837" x="47" y="64" width="4" height="72"/>
                    </g>
                </g>
                <g id="Tree/Medium" transform="translate(174.000000, 0.000000) scale(1 1)">
                    <g id="Tree/Medium/2" stroke="none" stroke-width="1" fill="none" fill-rule="evenodd">
                        <rect id="Rectangle" fill="#02A837" x="24" y="0" width="48" height="112" rx="24"/>
                        <rect id="Rectangle" fill="#0CC647" x="47" y="40" width="4" height="96"/>
                    </g>
                </g>
                <g id="Tree/Medium" transform="translate(464.000000, 0.000000) scale(1 1)">
                    <g id="Tree/Medium/5" stroke="none" stroke-width="1" fill="none" fill-rule="evenodd">
                        <rect id="Rectangle" fill="#02A837" x="46" y="14" width="6" height="122"/>
                        <polygon id="Triangle" fill="#02A837" points="48 -39 101 114 -5 114"/>
                    </g>
                </g>
                <g id="Tree/Medium" transform="translate(132.000000, 0.000000) scale(1 1)">
                    <g id="Tree/Medium/4" stroke="none" stroke-width="1" fill="none" fill-rule="evenodd">
                        <rect id="Rectangle" fill="#02A837" x="46" y="14" width="6" height="122"/>
                        <polygon id="Triangle" fill="#0CC647" points="48 -15 93 114 3 114"/>
                    </g>
                </g>
                <g id="Tree/Medium" transform="translate(306.000000, 0.000000) scale(1 1)">
                    <g id="Tree/Medium/4" stroke="none" stroke-width="1" fill="none" fill-rule="evenodd">
                        <rect id="Rectangle" fill="#02A837" x="46" y="14" width="6" height="122"/>
                        <polygon id="Triangle" fill="#0CC647" points="48 -15 93 114 3 114"/>
                    </g>
                </g>
                <g id="Tree/Small" transform="translate(538.000000, 56.000000) scale(1 1)">
                    <g id="Tree/Small/2" stroke="none" stroke-width="1" fill="none" fill-rule="evenodd">
                        <g id="Group" transform="translate(8.000000, 43.000000)">
                            <circle id="Oval" fill="#02A837" cx="50.5" cy="20.5" r="13.5"/>
                            <path d="M32,0 C43.045695,0 52,8.954305 52,20 C52,20.6756748 51.9664941,21.3435238 51.9010532,22.0019763 L52,22 C58.627417,22 64,27.372583 64,34 C64,35.0362344 63.8686559,36.0417918 63.6217076,37.0009322 L1.60874853,37.0005801 C0.578218935,34.8860425 0,32.5105464 0,30 C0,22.252481 5.50656915,15.7910902 12.8194031,14.3161319 C15.2678387,6.0393621 22.928635,0 32,0 Z" id="Combined-Shape" fill="#00D745"/>
                        </g>
                    </g>
                </g>
                <g id="Tree/Small" transform="translate(406.000000, 56.000000) scale(1 1)">
                    <g id="Tree/Small/2" stroke="none" stroke-width="1" fill="none" fill-rule="evenodd">
                        <g id="Group" transform="translate(8.000000, 43.000000)">
                            <circle id="Oval" fill="#02A837" cx="50.5" cy="20.5" r="13.5"/>
                            <path d="M32,0 C43.045695,0 52,8.954305 52,20 C52,20.6756748 51.9664941,21.3435238 51.9010532,22.0019763 L52,22 C58.627417,22 64,27.372583 64,34 C64,35.0362344 63.8686559,36.0417918 63.6217076,37.0009322 L1.60874853,37.0005801 C0.578218935,34.8860425 0,32.5105464 0,30 C0,22.252481 5.50656915,15.7910902 12.8194031,14.3161319 C15.2678387,6.0393621 22.928635,0 32,0 Z" id="Combined-Shape" fill="#00D745"/>
                        </g>
                    </g>
                </g>
                <g id="Tree/Small" transform="translate(100.000000, 56.000000) scale(1 1)">
                    <g id="Tree/Small/2" stroke="none" stroke-width="1" fill="none" fill-rule="evenodd">
                        <g id="Group" transform="translate(8.000000, 43.000000)">
                            <circle id="Oval" fill="#02A837" cx="50.5" cy="20.5" r="13.5"/>
                            <path d="M32,0 C43.045695,0 52,8.954305 52,20 C52,20.6756748 51.9664941,21.3435238 51.9010532,22.0019763 L52,22 C58.627417,22 64,27.372583 64,34 C64,35.0362344 63.8686559,36.0417918 63.6217076,37.0009322 L1.60874853,37.0005801 C0.578218935,34.8860425 0,32.5105464 0,30 C0,22.252481 5.50656915,15.7910902 12.8194031,14.3161319 C15.2678387,6.0393621 22.928635,0 32,0 Z" id="Combined-Shape" fill="#00D745"/>
                        </g>
                    </g>
                </g>
                <g id="Tree/Small" transform="translate(296.000000, 56.000000) scale(1 1)">
                    <g id="Tree/Small/4" stroke="none" stroke-width="1" fill="none" fill-rule="evenodd">
                        <path d="M40.5,80 C54.0309764,80 65,79.4563316 65,63.7162162 C65,47.9761008 54.0309764,23 40.5,23 C26.9690236,23 16,47.9761008 16,63.7162162 C16,79.4563316 26.9690236,80 40.5,80 Z" id="Oval" fill="#00D745"/>
                    </g>
                </g>
                <g id="Tree/Small" transform="translate(420.000000, 56.000000) scale(1 1)">
                    <g id="Tree/Small/4" stroke="none" stroke-width="1" fill="none" fill-rule="evenodd">
                        <path d="M40.5,80 C54.0309764,80 65,79.4563316 65,63.7162162 C65,47.9761008 54.0309764,23 40.5,23 C26.9690236,23 16,47.9761008 16,63.7162162 C16,79.4563316 26.9690236,80 40.5,80 Z" id="Oval" fill="#00D745"/>
                    </g>
                </g>
                <g id="Tree/Small" transform="translate(494.000000, 56.000000) scale(1 1)">
                    <g id="Tree/Small/4" stroke="none" stroke-width="1" fill="none" fill-rule="evenodd">
                        <path d="M40.5,80 C54.0309764,80 65,79.4563316 65,63.7162162 C65,47.9761008 54.0309764,23 40.5,23 C26.9690236,23 16,47.9761008 16,63.7162162 C16,79.4563316 26.9690236,80 40.5,80 Z" id="Oval" fill="#00D745"/>
                    </g>
                </g>
                <g id="Tree/Small" transform="translate(222.000000, 56.000000) scale(1 1)">
                    <g id="Tree/Small/3" stroke="none" stroke-width="1" fill="none" fill-rule="evenodd">
                        <circle id="Oval" fill="#02A837" cx="19.5" cy="64.5" r="10.5"/>
                        <path d="M27,80 C27,72.544742 20.9206881,67 13.4648439,67 C6.00899981,67 0,72.544742 0,80" id="Path" fill="#02A837"/>
                        <path d="M39.1538462,55 C42.2672566,55 45.1976115,55.7986987 47.7583753,57.2060038 C49.5659667,56.3826459 51.5690004,55.925 53.6769231,55.925 C59.83465,55.925 65.0972983,59.83036 67.2099361,65.3431512 C67.8258947,65.232575 68.4601956,65.175 69.1076923,65.175 C75.1233477,65.175 80,70.1446393 80,76.275 C80,77.5819121 79.7783629,78.8360709 79.3713029,80.0005719 L22.1525441,80.001022 C21.4074917,77.9785138 21,75.7877517 21,73.5 C21,63.2827321 29.1277538,55 39.1538462,55 Z" id="Combined-Shape" fill="#00D745"/>
                    </g>
                </g>
                <g id="Tree/Small" transform="translate(160.000000, 56.000000) scale(1 1)">
                    <g id="Tree/Small/4" stroke="none" stroke-width="1" fill="none" fill-rule="evenodd">
                        <path d="M40.5,80 C54.0309764,80 65,79.4563316 65,63.7162162 C65,47.9761008 54.0309764,23 40.5,23 C26.9690236,23 16,47.9761008 16,63.7162162 C16,79.4563316 26.9690236,80 40.5,80 Z" id="Oval" fill="#00D745"/>
                    </g>
                </g>
                <g id="Tree/Small" transform="translate(0.000000, 56.000000) scale(1 1)">
                    <g id="Tree/Small/2" stroke="none" stroke-width="1" fill="none" fill-rule="evenodd">
                        <g id="Group" transform="translate(8.000000, 43.000000)">
                            <circle id="Oval" fill="#02A837" cx="50.5" cy="20.5" r="13.5"/>
                            <path d="M32,0 C43.045695,0 52,8.954305 52,20 C52,20.6756748 51.9664941,21.3435238 51.9010532,22.0019763 L52,22 C58.627417,22 64,27.372583 64,34 C64,35.0362344 63.8686559,36.0417918 63.6217076,37.0009322 L1.60874853,37.0005801 C0.578218935,34.8860425 0,32.5105464 0,30 C0,22.252481 5.50656915,15.7910902 12.8194031,14.3161319 C15.2678387,6.0393621 22.928635,0 32,0 Z" id="Combined-Shape" fill="#00D745"/>
                        </g>
                    </g>
                </g>
            </g>
        </g>
        <g id="Left" transform="translate(248.000000, 1043.000000)">
            <g id="Tree/Medium" transform="translate(31.000000, 13.000000) scale(1.0416666666666667 1.0441176470588236)">
                <g id="Tree/Medium/6" stroke="none" stroke-width="1" fill="none" fill-rule="evenodd">
                    <rect id="Rectangle" fill="#02A837" x="46" y="14" width="6" height="122"/>
                    <polygon id="Triangle" fill="#0CC647" points="48 12 109 114 -13 114"/>
                    <polygon id="Triangle" fill="#0CC647" points="49 -14 99 70 -1 70"/>
                    <polygon id="Triangle" fill="#0CC647" points="48 -33 83 27 13 27"/>
                </g>
            </g>
            <g id="Building/Small" transform="translate(98.000000, 0.000000) scale(0.9695945945945946 0.96875)">
                <g id="Building/Small/6" stroke="none" stroke-width="1" fill="none" fill-rule="evenodd">
                    <g id="Group-2" transform="translate(8.000000, -28.000000)">
                        <g id="Group">
                            <polygon id="Triangle" fill="#5628D2" points="185.5 0 283 80 88 80 97.5 0"/>
                            <polygon id="Triangle" fill="#7364FF" points="97.5 0 195 80 0 80"/>
                        </g>
                        <rect id="Rectangle" fill="#E8E7FF" x="0" y="80" width="195" height="108"/>
                        <rect id="Rectangle" fill="#CECCFF" x="195" y="80" width="88" height="108"/>
                        <path d="M39,88 C51.7025492,88 62,98.2974508 62,111 L62,161 L62,161 L16,161 L16,111 C16,98.2974508 26.2974508,88 39,88 Z" id="Rectangle" fill="#FFC30D"/>
                        <path d="M156,88 C168.702549,88 179,98.2974508 179,111 L179,161 L179,161 L133,161 L133,111 C133,98.2974508 143.297451,88 156,88 Z" id="Rectangle" fill="#7364FF"/>
                        <path d="M239,88 C251.702549,88 262,98.2974508 262,111 L262,155 L262,155 L216,155 L216,111 C216,98.2974508 226.297451,88 239,88 Z" id="Rectangle" fill="#5628D2"/>
                        <rect id="Rectangle" fill="#A39FFF" x="0" y="172" width="195" height="16"/>
                        <rect id="Rectangle-Copy" fill="#7364FF" x="195" y="172" width="88" height="16"/>
                        <path d="M97.5,108 C108.269553,108 117,116.730447 117,127.5 L117,188 L117,188 L78,188 L78,127.5 C78,116.730447 86.7304474,108 97.5,108 Z" id="Rectangle" fill="#7364FF"/>
                        <rect id="Rectangle-Copy-5" fill="#FFF" x="12" y="157" width="53" height="7"/>
                        <rect id="Rectangle-Copy-6" fill="#FFF" x="130" y="157" width="53" height="7"/>
                        <rect id="Rectangle-Copy-7" fill="#A39FFF" x="213" y="157" width="53" height="7"/>
                    </g>
                </g>
            </g>
            <g id="Tree/Medium" transform="translate(341.000000, 19.000000) scale(1 1)">
                <g id="Tree/Medium/8" stroke="none" stroke-width="1" fill="none" fill-rule="evenodd">
                    <path d="M48,112 C67.882251,112 84,104.347506 84,77.8378378 C84,51.3281698 67.882251,16 48,16 C28.117749,16 12,51.3281698 12,77.8378378 C12,104.347506 28.117749,112 48,112 Z" id="Oval" fill="#0CC647"/>
                    <rect id="Rectangle" fill="#02A837" x="47" y="56" width="4" height="80"/>
                </g>
            </g>
            <g id="Tree/Medium" transform="translate(0.000000, 42.000000) scale(0.8333333333333334 0.8308823529411765)">
                <g id="Tree/Medium/6" stroke="none" stroke-width="1" fill="none" fill-rule="evenodd">
                    <rect id="Rectangle" fill="#02A837" x="46" y="14" width="6" height="122"/>
                    <polygon id="Triangle" fill="#0CC647" points="48 12 109 114 -13 114"/>
                    <polygon id="Triangle" fill="#0CC647" points="49 -14 99 70 -1 70"/>
                    <polygon id="Triangle" fill="#0CC647" points="48 -33 83 27 13 27"/>
                </g>
            </g>
            <g id="Tree/Small" transform="translate(295.000000, 75.000000) scale(1 1)">
                <g id="Tree/Small/4" stroke="none" stroke-width="1" fill="none" fill-rule="evenodd">
                    <path d="M40.5,80 C54.0309764,80 65,79.4563316 65,63.7162162 C65,47.9761008 54.0309764,23 40.5,23 C26.9690236,23 16,47.9761008 16,63.7162162 C16,79.4563316 26.9690236,80 40.5,80 Z" id="Oval" fill="#00D745"/>
                </g>
            </g>
            <g id="Tree/Small" transform="translate(341.000000, 75.000000) scale(1 1)">
                <g id="Tree/Small/2" stroke="none" stroke-width="1" fill="none" fill-rule="evenodd">
                    <g id="Group" transform="translate(8.000000, 43.000000)">
                        <circle id="Oval" fill="#02A837" cx="50.5" cy="20.5" r="13.5"/>
                        <path d="M32,0 C43.045695,0 52,8.954305 52,20 C52,20.6756748 51.9664941,21.3435238 51.9010532,22.0019763 L52,22 C58.627417,22 64,27.372583 64,34 C64,35.0362344 63.8686559,36.0417918 63.6217076,37.0009322 L1.60874853,37.0005801 C0.578218935,34.8860425 0,32.5105464 0,30 C0,22.252481 5.50656915,15.7910902 12.8194031,14.3161319 C15.2678387,6.0393621 22.928635,0 32,0 Z" id="Combined-Shape" fill="#00D745"/>
                    </g>
                </g>
            </g>
            <g id="Tree/Small" transform="translate(72.000000, 75.000000) scale(1 1)">
                <g id="Tree/Small/4" stroke="none" stroke-width="1" fill="none" fill-rule="evenodd">
                    <path d="M40.5,80 C54.0309764,80 65,79.4563316 65,63.7162162 C65,47.9761008 54.0309764,23 40.5,23 C26.9690236,23 16,47.9761008 16,63.7162162 C16,79.4563316 26.9690236,80 40.5,80 Z" id="Oval" fill="#00D745"/>
                </g>
            </g>
        </g>
        <g id="Transport" transform="translate(613.000000, 1071.000000) scale(1 1)">
            <g id="Transport/SUV" stroke="none" stroke-width="1" fill="none" fill-rule="evenodd">
                <g id="Group" transform="translate(56.000000, 38.000000)">
                    <path d="M17,32 L200.048387,32 C204.466665,32 208.048387,35.581722 208.048387,40 L208.048387,68 C208.048387,70.209139 206.257526,72 204.048387,72 L21.0435513,72 C18.8363017,72 17.0462243,70.2120867 17.0435542,68.0048387 L17,32 L17,32 Z" id="Rectangle" fill="#A39FFF"/>
                    <path d="M35.4176131,0 L135.170134,0 C138.295611,2.97857303e-15 141.134881,1.82016185 142.439667,4.66025581 L155,32 L155,32 L17,32 L28.0090072,4.98129847 C29.2363113,1.96920475 32.1650781,2.37383782e-15 35.4176131,0 Z" id="Rectangle" fill="#CECCFF"/>
                    <path d="M136.80242,7 C137.258466,7 137.685626,7.15427188 138.027265,7.41893832 C138.368903,7.68360476 138.625019,8.05866575 138.738975,8.50024396 L138.738975,8.50024396 L150.255041,32 L105,32 L105,7 Z M101,32 L31.0230422,32 C30.6744946,32 30.3286132,31.9392608 30.0009195,31.820508 C28.443196,31.2560053 27.6380314,29.5356009 28.2025342,27.9778774 L28.2025342,27.9778774 L35.261025,8.50024396 C35.3749807,8.05866575 35.6310967,7.68360476 35.9727352,7.41893832 C36.3143736,7.15427188 36.7415345,7 37.1975797,7 L37.1975797,7 L101,7 L101,32 Z" id="Combined-Shape" fill="#5628D2"/>
                    <circle id="Oval" fill="#370EA3" cx="45.5" cy="77.5" r="18.5"/>
                    <circle id="Oval" fill="#E8E7FF" cx="45.5" cy="77.5" r="9.5"/>
                    <circle id="Oval" fill="#370EA3" cx="174.5" cy="77.5" r="18.5"/>
                    <circle id="Oval" fill="#E8E7FF" cx="174.5" cy="77.5" r="9.5"/>
                    <rect id="Rectangle" fill="#5628D2" x="0" y="32" width="17" height="37" rx="3"/>
                </g>
            </g>
        </g>
        <g id="Hill" transform="translate(1696.000000, 989.000000)" fill="#00902E">
            <path d="M803.991904,55 L804,371 L3.63797881e-12,371 L0.941086457,370.270596 C21.1542299,354.696232 364.630378,94.5305261 803.991904,55 Z" id="Path"/>
            <path d="M581.866483,54.6338882 L602,140 L602,140 L552,140 L572.133517,54.6338882 C572.767405,51.9462038 575.460071,50.2812728 578.147755,50.9151606 C579.99177,51.3500698 581.431574,52.7898733 581.866483,54.6338882 Z" id="Tree"/>
            <path d="M542.842465,18.831807 L574,140 L574,140 L502,140 L533.157535,18.831807 C533.845243,16.1573876 536.570786,14.5468397 539.245205,15.2345476 C541.010278,15.6884235 542.388589,17.0667338 542.842465,18.831807 Z" id="Tree"/>
            <path d="M219.350713,145.40285 L262,316 L262,316 L167,316 L209.649287,145.40285 C210.319031,142.723875 213.033704,141.095072 215.712678,141.764816 C217.504104,142.212672 218.902856,143.611424 219.350713,145.40285 Z" id="Tree"/>
        </g>
    </g>
</svg>
