<svg viewBox="383.2 712.392 191.6 179.595" xmlns="http://www.w3.org/2000/svg" overflow="visible">
    <g id="Master/Stickers/Plant 7" stroke="none" stroke-width="1" fill="none" fill-rule="evenodd">
        <g id="Pot-Copy" transform="translate(390.000000, 717.000000)">
            <path d="M20.5425314,95.4668 C19.0105314,85.0638 17.0065314,74.6758 15.8715314,64.2498 C62.4665314,78.0048 113.685531,75.8878 160.466531,64.7378 C157.617531,87.6268 153.425531,110.3898 149.998531,133.1848 C148.844531,141.4908 147.307531,149.7358 146.135531,158.0298 C145.000531,162.5928 139.522531,162.7518 135.814531,163.9858 C102.466531,170.1908 64.3845314,171.8738 32.0875314,160.3688 C28.0875314,156.2018 29.3515314,145.6898 27.4645314,139.8288 C25.2165314,125.0278 22.8245314,110.2538 20.5425314,95.4668" id="Fill-236" fill="#C98869"/>
            <path d="M90.4893314,-2.91322522e-13 C116.209331,1.592 155.197331,0.241 175.330331,17.808 C178.153331,20.813 176.175331,24.568 175.547331,28.01 C173.495331,37.79 171.867331,47.687 169.543331,57.352 C130.538331,76.333 50.1263314,78.58 11.1033314,58.806 C5.91033137,56.672 5.58033137,51.35 4.61433137,46.549 C3.00033137,39.323 1.93233137,31.903 0.141331373,24.731 C-3.75866863,1.509 74.2163314,0.141 90.4893314,-2.91322522e-13" id="Fill-238" fill="#C88869"/>
            <path d="M6.28183137,54.5166 C43.1608314,79.9286 129.077831,73.8816 169.542831,57.3516 C167.966831,61.4116 162.697831,61.2686 160.466831,64.7386 C124.215831,75.2366 85.5618314,76.8116 48.2348314,72.1096 C37.4318314,69.8836 8.24983137,67.1776 6.28183137,54.5166" id="Fill-240" fill="#74503F"/>
            <path d="M169.940031,56.2061 C169.450031,55.7421 169.609031,55.3831 170.122031,55.0811 C170.581031,55.5401 170.457031,55.9041 169.940031,56.2061" id="Fill-242" fill="#DDB5A2"/>
            <path d="M88.8208314,3.3301 C114.861831,4.0291 143.360831,3.2771 166.823831,16.0081 C184.689831,33.8511 132.481831,39.0751 122.166831,40.7201 C96.1328314,43.4051 69.8248314,43.2641 43.8308314,40.2111 C29.8458314,39.5471 -17.8731686,28.2541 13.9378314,13.0571 C37.7818314,4.5591 63.7078314,3.2981 88.8208314,3.3301" id="Fill-244" fill="#724E3C"/>
            <path d="M84.8804314,39.6524 C75.1464314,40.1994 -16.3105686,34.5424 31.3914314,23.8464 C67.4744314,17.8874 124.123431,13.9774 158.486431,26.2404 C166.905431,36.0584 91.7504314,39.6164 84.8934314,39.8474 C84.8894314,39.7824 84.8844314,39.7164 84.8804314,39.6524" id="Fill-246" fill="#C88768"/>
            <path d="M88.7920314,5.6309 C113.895031,6.7369 140.639031,6.1999 163.678031,17.5039 C167.417031,19.5959 169.535031,23.2049 165.113031,26.1339 C164.041031,27.0289 163.415031,26.9629 162.570031,25.7759 C160.994031,23.5619 158.706031,22.4569 156.287031,21.6039 C118.699031,12.2449 54.5750314,12.3769 17.9770314,25.1529 C11.8430314,28.2999 15.7380314,33.5609 6.35503137,24.6209 C7.37703137,7.5719 73.9140314,6.0989 88.7910314,5.6929 C88.7920314,5.6729 88.7920314,5.6519 88.7920314,5.6309" id="Fill-248" fill="#C78768"/>
        </g>
    </g>
</svg>
