<svg viewBox="383.2 676.473 191.6 215.514" xmlns="http://www.w3.org/2000/svg" xmlns:xlink="http://www.w3.org/1999/xlink" overflow="visible">
    <defs>
        <polygon id="masterstickersframe-path-1" points="0 0.561 179.400464 0.561 179.400464 205.999927 0 205.999927"/>
    </defs>
    <g id="Master/Stickers/Frame" stroke="none" stroke-width="1" fill="none" fill-rule="evenodd">
        <g id="Artwork" transform="translate(388.000000, 679.000000)">
            <g id="Group-3" transform="translate(0.000000, 0.439000)">
                <mask id="masterstickersframe-mask-2" fill="#fff">
                    <use xlink:href="#masterstickersframe-path-1"/>
                </mask>
                <g id="Clip-2"/>
                <path d="M179.1357,102.2039 C179.1357,134.0579 179.1337,165.9129 179.1397,197.7679 C179.1407,199.5819 179.1567,201.3979 179.2487,203.2099 C179.3047,204.2949 178.9227,204.9729 177.8547,205.1729 C176.5697,205.4139 175.2757,205.7839 173.9847,205.7889 C148.3487,205.8919 122.7127,205.999927 97.0767,205.999927 C66.7707,205.999927 36.4647,205.8979 6.1577,205.7989 C4.5957,205.7939 3.0287,205.4219 1.4757,205.1479 C0.4917,204.9749 0.1497,204.3409 0.1497,203.2939 C0.1667,178.4379 0.1617,153.5829 0.1367,128.7269 C0.1007,92.5559 0.0427,56.3839 -0.000152842473,20.2119 C-0.0053,14.8519 0.0217,9.4929 0.0397,4.1339 C0.0407,3.8169 0.1007,3.5019 0.1247,3.1849 C0.2827,1.1439 0.2827,1.1469 2.4037,1.1369 C23.5467,1.0289 44.6907,0.9339 65.8337,0.8059 C73.9097,0.7569 81.9857,0.5359 90.0607,0.5629 C107.7547,0.6249 125.4487,0.7979 143.1437,0.9199 C154.6677,0.9989 166.1927,1.0809 177.7167,1.1169 C178.8157,1.1209 179.2837,1.2619 179.2827,2.5549 C179.2717,12.5499 179.3797,22.5459 179.3897,32.5409 C179.4097,55.7619 179.3957,78.9829 179.3957,102.2039 L179.1357,102.2039 Z" id="Fill-1" fill="#423F3D" mask="url(#masterstickersframe-mask-2)"/>
            </g>
            <path d="M14.8818,103.139 C14.8818,80.009 14.9028,56.879 14.8648,33.75 C14.8568,28.435 14.5678,23.121 14.5498,17.806 C14.5390323,14.825 14.2808,15.348 17.0138,15.33 C39.9718,15.18 62.9298,14.938 85.8878,14.9448514 C111.8848,14.953 137.8818,15.194 163.8788,15.311 C164.7938,15.315 165.1968,15.549 165.1658,16.524 C165.0608,19.837 164.9528,23.152 164.9418,26.466 C164.8448,52.277 164.7508,78.086 164.6948,103.897 C164.6368,131.207 164.6208,158.518 164.5838,185.828 C164.5828,187.146 164.5158,188.465 164.5608,189.781 C164.5908,190.633 164.2578,190.923 163.4468,190.854 C162.9068,190.808 162.3598,190.844 161.8148,190.847 C139.8098,190.929 117.8038,191.082 95.7988,191.07712 C69.3478,191.071 42.8968,190.918 16.4448,190.877 C15.1058,190.875 15.1568,190.234 15.1558,189.295 C15.1368,168.664 15.0958,148.035 15.0678,127.404 C15.0568,119.316 15.0668,111.227 15.0668,103.139 L14.8818,103.139 Z" id="Fill-4" fill="#FDFDFD"/>
            <path d="M167.1289,90.5091 C167.1269,68.9701 167.1249,47.4321 167.1269,25.8931 C167.1269,25.5381 167.1879,25.1841 167.2199,24.8291 C167.2789,25.1841 167.3899,25.5381 167.3899,25.8931 C167.3969,47.4321 167.3939,68.9711 167.3919,90.5101 C167.3039,90.6311 167.2159,90.6311 167.1289,90.5091" id="Fill-6" fill="#4D4B48"/>
            <path d="M12.749,165.7552 C12.75,173.5672 12.75,181.3792 12.75,189.1912 C12.75,189.5542 12.757,189.9182 12.736,190.2802 C12.731,190.3722 12.635,190.4592 12.58,190.5492 C12.548,190.4682 12.492,190.3882 12.488,190.3062 C12.474,190.0332 12.477,189.7612 12.477,189.4882 C12.477,173.6832 12.477,157.8782 12.485,142.0722 C12.485,141.7102 12.59,141.3482 12.646,140.9862 C12.68,141.3402 12.743,141.6932 12.744,142.0472 C12.75,149.9492 12.748,157.8532 12.749,165.7552" id="Fill-8" fill="#4C4A47"/>
            <path d="M167.1289,90.5091 C167.2159,90.5071 167.3039,90.5080098 167.3919,90.5101 C167.3939,101.6411 167.3959,112.7711 167.3979,123.9021 C167.3979,124.2191 167.3999,124.5371 167.3869,124.8551 C167.3839,124.9381 167.3309,125.0191 167.3009,125.1011 C167.2439,125.0191 167.1439,124.9401 167.1379,124.8541 C167.1149,124.5371 167.1229,124.2191 167.1229,123.9011 C167.1249,112.7701 167.1269,101.6401 167.1289,90.5091" id="Fill-10" fill="#565351"/>
            <path d="M31.3516,193.5813 C27.6346,193.5813 23.9186,193.5833 20.2026,193.5763 C19.9876,193.5763 19.7716,193.5003 19.5566,193.4603 C19.7556,193.4083 19.9556,193.3103 20.1536,193.3103 C27.6316,193.3053 35.1106,193.3063 42.5886,193.3133 C42.8036,193.3133 43.0186,193.3893 43.2346,193.4293 C42.9906,193.4783 42.7466,193.5703 42.5006,193.5713 C38.7856,193.5803 35.0686,193.5773 31.3516,193.5773 L31.3516,193.5813 Z" id="Fill-12" fill="#4F4C4A"/>
            <path d="M148.3691,193.5774 C144.7441,193.5774 141.1181,193.5804 137.4931,193.5714 C137.3061,193.5704 137.1191,193.4744 136.9321,193.4234 C137.1011,193.3854 137.2711,193.3134 137.4401,193.3134 C144.7821,193.3064 152.1241,193.3054 159.4661,193.3114 C159.6541,193.3114 159.8421,193.4144 160.0291,193.4694 C159.8131,193.5064 159.5981,193.5764 159.3821,193.5764 C155.7111,193.5834 152.0401,193.5814 148.3691,193.5814 L148.3691,193.5774 Z" id="Fill-14" fill="#4F4C4A"/>
            <path d="M49.2344,12.5218 C52.1344,12.5218 55.0344,12.5208 57.9344,12.5268 C58.1064,12.5268 58.2784,12.5868 58.4514,12.6198 C58.2744,12.6758 58.0984,12.7838 57.9224,12.7838 C52.0314,12.7928 46.1414,12.7938 40.2514,12.7908 C40.0794,12.7908 39.9074,12.7268 39.7354,12.6938 C39.9114,12.6348 40.0874,12.5268 40.2624,12.5258 C43.2544,12.5148 46.2444,12.5178 49.2344,12.5178 L49.2344,12.5218 Z" id="Fill-16" fill="#504D4B"/>
            <path d="M131.0537,12.5179 C133.9077,12.5179 136.7607,12.5149 139.6147,12.5259 C139.7877,12.5269 139.9617,12.6359 140.1357,12.6959 C139.9637,12.7289 139.7917,12.7899 139.6197,12.7899 C133.9127,12.7939 128.2057,12.7929 122.4987,12.7839 C122.3267,12.7839 122.1557,12.6799 121.9827,12.6239 C122.1537,12.5899 122.3237,12.5269 122.4937,12.5269 C125.3477,12.5209 128.2007,12.5229 131.0537,12.5229 L131.0537,12.5179 Z" id="Fill-18" fill="#504E4C"/>
            <path d="M44.3135,193.5882 C44.1975,193.5402 44.1195,193.5082 44.0405,193.4752 C44.1765,193.4252 44.3105,193.3562 44.4515,193.3332 C44.5085,193.3242 44.5825,193.4162 44.6485,193.4622 C44.5285,193.5072 44.4085,193.5522 44.3135,193.5882" id="Fill-20" fill="#4F4C4A"/>
            <path d="M135.125,193.5579 L134.92,193.4349 C134.992,193.3989 135.066,193.3339 135.138,193.3359 C135.207,193.3389 135.275,193.4109 135.344,193.4519 C135.271,193.4869 135.198,193.5229 135.125,193.5579" id="Fill-22" fill="#4F4C4A"/>
            <path d="M70.96,124.7063 C70.96,124.8343 70.954,125.0163 70.961,125.1963 C71.066,127.8543 71.21,130.5133 71.25,133.1733 C71.258,133.7053 70.806,134.2273 70.688,134.7813 C70.252,136.8093 69.381,138.7633 69.661,140.9193 C69.695,141.1863 69.434,141.4863 69.33,141.7793 C69.104,142.4263 68.887,143.0763 68.676,143.7283 C68.579,144.0253 68.584,144.3863 68.412,144.6223 C66.473,147.2863 65.114,150.2813 63.535,153.1493 C62.701,154.6653 61.891,156.1963 61.144,157.7563 C60.497,159.1063 59.881,160.4813 59.404,161.8973 C59.205,162.4883 59.542,163.2493 59.381,163.8663 C59.164,164.7043 58.902,165.4353 58.941,166.3893 C58.994,167.6903 58.387,169.0193 58.075,170.3383 C58.007,170.6293 57.975,170.9323 57.955,171.2313 C57.915,171.8513 57.881,172.4713 57.87,173.0913 C57.861,173.5623 57.894,174.0353 57.903,174.5073 C57.918,175.3083 57.975,176.1123 57.909,176.9063 C57.895,177.0883 57.419,177.4013 57.218,177.3593 C56.878,177.2873 56.455,177.0473 56.308,176.7563 C56.093,176.3303 56,175.7933 56.015,175.3093 C56.06,173.9003 56.184,172.4933 56.277,171.0863 C56.293,170.8603 56.399,170.6013 56.322,170.4153 C55.329,168.0263 56.315,165.6763 56.457,163.3133 C56.478,162.9823 56.785,162.6783 56.894,162.3403 C57.012,161.9713 57.215,161.5153 57.098,161.2043 C56.755,160.2973 56.937,159.5553 57.669,159.0243 C58.33,158.5463 58.546,157.9973 58.598,157.1963 C58.64,156.5533 59.041,155.9333 59.286,155.3043 C59.691,154.2643 60.098,153.2243 60.508,152.1853 C60.574,152.0173 60.631,151.8283 60.748,151.7003 C62.607,149.6603 63.485,147.0143 64.985,144.7393 C66.073,143.0903 66.328,140.8933 66.973,138.9463 C67.448,137.5093 67.961,136.0823 68.44,134.6453 C68.563,134.2793 68.685,133.8943 68.694,133.5153 C68.737,131.9083 68.736,130.3013 68.754,128.6933 C68.755,128.6033 68.819,128.4693 68.781,128.4323 C67.316,127.0313 68.786,125.3803 68.428,123.8143 C68.147,122.5923 68.818,121.1373 69.125,119.7983 C69.254,119.2323 69.606,118.7163 69.727,118.1493 C70.078,116.5123 70.869,115.2193 72.382,114.4263 C72.462,114.3843 72.564,114.3553 72.614,114.2893 C73.63,112.9523 74.645,111.6153 75.648,110.2683 C76.185,109.5503 76.748,108.8433 77.201,108.0733 C77.436,107.6763 77.526,107.1573 77.564,106.6853 C77.734,104.4823 77.698,102.2923 78.181,100.0803 C78.44,98.8853 78.473,97.6313 79.106,96.5373 C79.61,95.6633 80.23,94.8543 80.77,94.0003 C80.933,93.7423 81.1,93.4253 81.098,93.1373 C81.091,92.0173 81.61,91.2363 82.523,90.6663 C82.953,90.3963 83.166,90.1963 82.414,90.1483 C82.261,90.1403 81.985,89.8993 81.997,89.7903 C82.11,88.7433 81.343,88.4543 80.617,88.2073 C73.437,85.7663 70.001,80.2513 68.344,73.2663 C68.271,72.9563 68.199,72.6463 68.136,72.3353 C67.856,70.9683 67.64,69.6583 65.962,69.1193 C65.253,68.8913 64.759,67.9933 64.165,67.4003 C64.038,67.2733 63.923,67.0753 63.773,67.0393 C62.002,66.6193 61.446,64.9363 60.397,63.7753 C60.253,63.6173 60.258,63.1623 60.381,62.9553 C60.782,62.2813 60.632,61.8163 60.104,61.2763 C59.828,60.9953 59.688,60.4693 59.688,60.0533 C59.684,58.6593 59.716,57.2623 59.841,55.8753 C59.948,54.6913 60.328,53.5263 60.365,52.3463 C60.448,49.7503 61.587,47.4733 62.656,45.2633 C63.359,43.8103 64.899,42.7603 66.077,41.5413 C66.377,41.2313 66.708,40.9473 67.053,40.6893 C67.472,40.3773 67.899,40.0633 68.362,39.8263 C68.836,39.5843 69.398,39.5033 69.847,39.2273 C70.797,38.6433 71.725,38.1633 72.858,37.8743 C74.083,37.5623 75.483,37.2363 76.337,35.9913 C76.583,35.6313 77.179,35.4753 77.644,35.3073 C79.787,34.5323 81.941,33.7863 84.091,33.0293 C84.176,32.9993 84.293,32.9873 84.336,32.9263 C85.359,31.4543 87.244,31.6823 88.56,30.7813 C88.798,30.6183 89.238,30.4793 89.445,30.5913 C90.524,31.1693 91.564,31.8223 92.605,32.4713 C92.899,32.6543 93.125,32.9513 93.423,33.1263 C94.591,33.8113 95.779,34.4583 96.95,35.1363 C98.177,35.8453 99.319,35.6053 100.185,34.4903 C100.481,34.1103 100.887,33.8183 101.231,33.4753 C101.662,33.0423 102.16,32.6483 102.49,32.1463 C103.134,31.1683 104.005,30.8613 105.042,31.3753 C105.93,31.8133 106.825,32.2373 107.704,32.6923 C107.98,32.8353 108.228,33.0443 108.464,33.2493 C109.534,34.1783 110.714,35.0153 111.626,36.0803 C112.517,37.1223 113.138,38.3963 113.862,39.5793 C114.043,39.8743 114.102,40.2623 114.322,40.5143 C115.481,41.8453 116.148,43.2683 115.963,45.1393 C115.848,46.3033 116.234,47.5143 116.375,48.7073 C116.418,49.0643 116.543,49.5363 116.375,49.7753 C115.361,51.2223 115.651,52.9253 115.341,54.5053 C115.289,54.7693 115.229,55.0753 115.062,55.2653 C114.282,56.1453 114.246,57.2253 113.961,58.2903 C113.573,59.7373 112.449,60.9883 111.624,62.3123 C111.512,62.4923 111.16,62.6053 111.155,62.7573 C111.112,64.3143 109.717,65.0023 109.012,66.1273 C108.825,66.4253 108.379,66.7003 108.03,66.7293 C106.348,66.8723 106.027,68.2563 106.847,69.5053 C107.648,70.7273 108.466,71.8843 108.361,73.4493 C108.345,73.7033 108.611,73.9963 108.79,74.2393 C109.386,75.0533 109.996,75.8523 109.708,76.9643 C109.686,77.0493 109.676,77.1603 109.711,77.2333 C110.301,78.4363 110.898,79.6363 111.495,80.8363 C111.614,81.0753 111.835,81.3103 111.841,81.5533 C111.894,83.5513 112.906,85.2993 113.292,87.1643 C113.633,88.8123 114.604,90.3813 114.158,92.2773 C113.955,93.1403 114.796,94.2043 114.985,95.2103 C115.435,97.6023 115.833,100.0053 116.146,102.4183 C116.34,103.9263 116.324,105.4613 116.439,106.9813 C116.465,107.3323 116.628,107.6743 116.746,108.0143 C116.835,108.2693 117.1,108.5663 117.033,108.7553 C116.584,110.0273 116.802,111.3473 116.66,112.6293 C116.494,114.1283 116.118,115.5093 116.712,117.0613 C117.104,118.0883 116.988,119.3733 116.864,120.5183 C116.672,122.3023 115.834,124.1363 116.099,125.8173 C116.353,127.4313 116.023,128.8143 115.845,130.3103 C115.645,131.9863 114.751,133.2293 113.742,134.4743 C113.285,135.0393 113.013,135.7553 112.659,136.4033 C112.552,136.6013 112.51,136.8773 112.349,136.9943 C110.73,138.1743 109.944,139.9343 109.038,141.6213 C108.859,141.9533 108.463,142.1833 108.138,142.4193 C107.554,142.8433 106.86,143.1713 106.937,144.0743 C106.943,144.1573 106.91,144.2913 106.852,144.3253 C105.489,145.1033 105.581,146.7783 104.702,147.8273 C103.514,149.2453 102.193,150.5533 100.96,151.9353 C100.481,152.4713 100.095,153.0883 99.652,153.6573 C99.218,154.2163 98.731,154.7363 98.332,155.3183 C98.05,155.7303 97.905,156.2353 97.648,156.6683 C96.284,158.9743 94.907,161.2723 93.522,163.5653 C93.3839958,163.7923 93.174,163.9843 92.968,164.1573 C91.465,165.4263 92.533,168.0063 93.971,168.7293 C94.599,169.0453 95.066,169.6823 95.605,170.1773 C96.05,170.5873 96.481,171.0163 96.936,171.4163 C98.377,172.6843 100.15,173.4973 101.394,175.0763 C102.383,176.3323 103.737,177.3103 104.988,178.3413 C105.46,178.7293 105.883,179.0833 105.522,179.6683 C105.107,180.3393 104.505,180.1153 103.996,179.7343 C102.492,178.6093 101.097,177.3043 99.481,176.3773 C98.243,175.6683 97.314,174.4093 95.722,174.2323 C95.341,174.1893 94.809,173.4283 94.76,172.9543 C94.683,172.2063 94.449,172.0903 93.773,172.1183 C92.964,172.1523 92.416,171.6623 92.179,170.8813 C91.924,170.0413 91.697,169.1913 91.454,168.3473 C91.404,168.1753 91.383,167.9053 91.27,167.8543 C90.014,167.2903 90.827,166.0623 90.435,165.2203 C90.354,165.0473 90.618,164.4953 90.809,164.4453 C92.404,164.0253 92.494,162.4053 93.232,161.3533 C94.582,159.4343 95.673,157.3293 96.836,155.2803 C97.952,153.3123 99,151.3053 100.12,149.3393 C101.137,147.5563 102.297,145.9043 103.829,144.4753 C104.644,143.7163 104.994,142.4723 105.606,141.4783 C106.59,139.8813 107.662,138.3363 108.612,136.7193 C109.418,135.3473 110.113,133.9103 110.837,132.4923 C111.227,131.7273 111.721,130.9733 111.903,130.1543 C112.251,128.5893 112.398,126.9793 112.655,125.3933 C112.739,124.8723 112.903,124.3643 113.041,123.8533 C113.099,123.6393 113.25,123.4273 113.239,123.2203 C113.106,120.4753 113.462,117.7893 114.016,115.1023 C114.215,114.1373 113.832,113.0673 113.881,112.0543 C113.955,110.5083 114.17,108.9693 114.334,107.4283 C114.362,107.1653 114.544,106.8663 114.466,106.6533 C113.797,104.8213 114.477,102.8043 113.919,101.0803 C113.33,99.2633 113.824,97.1383 112.379,95.5873 C112.32,95.5243 112.257,95.4123 112.273,95.3423 C112.792,93.1503 110.914,91.3863 111.192,89.2023 C111.268,88.6123 110.569,87.9523 110.551,87.3153 C110.493,85.2833 109.021,83.7403 108.779,81.7843 C108.71,81.2193 108.469,80.6703 108.277,80.1233 C107.849,78.9023 107.399,77.6893 106.966,76.4703 C106.846,76.1333 106.57,75.7093 106.677,75.4563 C107.253,74.0803 106.067,73.3543 105.656,72.3443 C105.437,71.8083 105.355,71.2143 105.212,70.6463 C105.13,70.3173 105.106,69.9543 104.937,69.6803 C104.889,69.6023 104.424,69.8313 104.149,69.8323 C103.695,69.8333 103.047,69.9253 102.839,69.6783 C102.615,69.4113 102.646,68.7053 102.849,68.3553 C103.154,67.8303 103.645,67.3493 104.165,67.0213 C106.236,65.7153 106.389,63.6193 106.327,61.5493 C106.292,60.3633 105.667,59.2083 105.497,58.0123 C105.271,56.4183 104.041,55.6523 103.046,54.6823 C102.953,54.5923 102.551,54.6323 102.484,54.7353 C102.137,55.2753 101.767,55.8283 101.578,56.4313 C101.474,56.7673 101.799,57.2193 101.758,57.6013 C101.729,57.8783 101.417,58.1263 101.231,58.3873 C101.044,58.1813 100.733,57.9963 100.692,57.7643 C100.476,56.5463 100.242,55.3203 100.178,54.0893 C100.113,52.8333 101.36,51.9963 102.618,52.2253 C105.069,52.6703 106.632,53.9533 107.61,56.3523 C108.164,57.7103 108.285,59.0173 108.453,60.3843 C108.487,60.6543 108.629,60.9113 108.721,61.1753 C108.895,60.9873 109.121,60.8263 109.233,60.6073 C110.058,59.0083 110.883996,57.4093 111.647,55.7803 C111.821,55.4083 111.806,54.9193 111.789,54.4873 C111.746,53.3903 111.868,52.4183 112.965,51.7923 C113.195,51.6613 113.319,51.1253 113.287,50.7973 C113.212,50.0383 113.005,49.2943 112.864,48.5423 C112.824,48.3223 112.726,48.0033 112.83,47.8843 C114.3,46.2083 112.405,44.6913 112.59,43.0503 C112.666,42.3703 112.123,41.6593 111.273,41.1863 C110.385,40.6933 109.801,39.6693 109.041,38.9203 C108.362,38.2503 107.628,37.6363 106.911,37.0063 C106.479,36.6263 105.969,36.3163 105.603,35.8833 C104.811,34.9453 104.337,34.8323 103.271,35.4193 C102.717,35.7253 102.085,35.9053 101.573,36.2663 C101.097,36.6013 100.655,37.0473 100.337,37.5353 C99.777,38.3933 98.876,38.6743 97.711,38.3093 C97.035,38.0973 96.307,38.0533 95.628,37.8463 C95.004,37.6553 94.299,37.4773 93.835,37.0633 C93.083,36.3933 92.595,35.4173 91.822,34.7813 C90.706,33.8613 89.456,33.0163 87.932,33.0143 C87.473,33.0133 87.041,33.6093 86.549,33.7253 C84.044,34.3143 82.074,36.0513 79.685,36.8723 C79.515,36.9313 79.365,37.0783 79.195,37.1003 C75.824,37.5303 73.613,40.0343 70.933,41.7003 C69.837,42.3813 68.824,43.1323 67.814,43.9363 C66.442,45.0273 66.23,46.5783 65.452,47.8773 C64.324,49.7633 63.201,51.7993 63.225,54.0103 C63.241,55.5583 62.129,56.9263 62.817,58.5663 C63.092,59.2213 62.714,60.1533 62.622,60.9583 C62.501,62.0233 62.368,63.0823 63.74,63.4953 C63.898,63.5423 64.113,63.7053 64.138,63.8443 C64.408,65.3523 65.915,65.8913 66.63,67.0493 C66.739,67.2273 67.044,67.2833 67.259,67.3953 C67.319,67.1863 67.498,66.9073 67.422,66.7773 C66.392,65.0153 68.246,64.3693 68.779,63.2233 C68.981,62.7893 69.299,62.4113 69.552,62.0003 C70.271,60.8343 71.122,59.7243 71.662,58.4783 C72.284,57.0483 73.614,56.2643 74.396,54.9433 C75.714,52.7173 77.48,50.7983 79.62,49.2113 C82.347,47.1903 85.486,46.4623 88.682,45.8163 C89.751,45.6013 90.221,46.6043 90.886,47.1463 C91.393,47.5613 91.872,47.8383 92.505,48.0923 C93.738,48.5883 94.987,49.4323 95.815,50.4643 C97.283,52.2933 98.459,54.3613 99.708,56.3593 C99.854,56.5913 99.693,57.0153 99.676,57.3493 C99.323,57.2393 98.818,57.2393 98.646,57.0003 C97.816,55.8453 97.13,54.5853 96.28,53.4463 C95.942,52.9933 95.209,52.8473 94.838,52.4073 C93.529,50.8543 91.76,50.2453 89.889,49.8243 C88.785,49.5753 88.042,48.8883 87.91,47.7413 C87.857,47.2823 87.878,47.1163 87.319,47.2973 C84.314,48.2673 81.141,48.9113 78.925,51.4353 C77.938,52.5603 77.097,53.8153 76.215,55.0303 C74.906,56.8353 74.788,59.0933 73.943,61.0663 C73.475,62.1603 72.706,63.1443 71.967,64.0943 C71.65,64.5003 71.559,64.6333 71.962,65.0253 C73.443,66.4693 74.572,68.1983 75.829,69.8243 C77.065,71.4223 78.074,73.0833 78.75,74.9173 C79.504,76.9623 79.981,79.1093 80.539,81.2243 C80.686,81.7793 80.712,82.3743 80.727,82.9523 C80.731,83.1073 80.478,83.4093 80.36,83.4003 C80.038,83.3783 79.513,83.3033 79.444,83.1123 C79.035,81.9793 78.564,80.9253 78.48,79.6103 C78.359,77.7403 77.571,75.8863 76.898,74.0883 C76.461,72.9193 75.793,71.8153 75.094,70.7723 C74.528,69.9283 73.777,69.2033 73.08,68.4523 C72.53,67.8603 71.981,67.2523 71.352,66.7533 C70.613,66.1683 70.038,66.3623 70.107,67.2543 C70.198,68.4283 69.731,69.6683 70.737,70.8143 C71.403,71.5743 71.814,72.0873 72.912,71.8133 C73.792,71.5963 74.39,72.1863 74.525,73.0703 C74.658,73.9363 74.182,74.4103 73.352,74.6103 C71.964,74.9443 71.791,75.3843 72.483,76.6743 C73.144,77.9053 74.15,79.0793 74.371,80.3873 C74.644,82.0073 75.545,82.5513 76.79,83.2413 C78.084,83.9593 79.115,85.1433 80.293,86.0833 C80.602,86.3303 81.027,86.4303 81.399,86.5973 C81.989,86.8613 82.811,86.9673 83.122,87.4223 C83.843,88.4733 84.747,88.2643 85.747,88.2703 C87.304,88.2813 88.887,88.3433 90.406,88.6443 C91.583,88.8783 92.882,88.4583 93.566,87.4763 C94.161,86.6223 94.942,85.8473 95.785,85.2333 C96.813,84.4863 97.49,83.6423 97.658,82.3533 C97.719,81.8893 98.055,81.4533 98.29,81.0183 C99.049,79.6143 99.899,78.2533 100.56,76.8043 C100.995,75.8463 101.167,74.7673 101.452,73.7403 C101.489,73.6093 101.469,73.4533 101.533,73.3423 C101.817,72.8533 101.564,71.7643 102.471,72.0383 C102.848,72.1523 103.158,73.2553 103.101,73.8723 C103.007,74.8963 102.54,75.8823 102.325,76.9033 C102.069,78.1183 101.877,79.3513 101.727,80.5843 C101.551,82.0183 100.885,83.0993 99.762,84.0073 C99.279,84.3953 99.065,85.1063 98.695,85.6473 C98.223,86.3403 97.718,87.0103 97.219,87.6833 C97.17,87.7473 97.029,87.7453 96.984,87.8103 C96.656,88.2823 96.217,88.7253 96.053,89.2513 C95.815,90.0183 96.696,89.7323 97.009,90.0313 C97.833,90.8213 98.757,91.5073 99.616,92.2633 C99.752,92.3823 99.866,92.7713 99.806,92.8243 C99.55,93.0473 99.065,93.4113 98.95,93.3283 C97.786,92.4883 96.442,93.1833 95.208,92.8033 C93.505,92.2783 91.726,91.9973 89.973,91.6403 C87.735,91.1843 86.182,92.1173 84.757,93.8523 C83.305,95.6203 82.426,97.5053 82.156,99.7503 C82.025,100.8463 81.743,101.9273 81.484,103.0053 C81.392,103.3933 81.236,103.8073 80.988,104.1093 C80.423,104.8003 80.449,105.4473 80.566,106.3353 C80.733,107.5993 81.077,108.9543 80.439,110.2543 C80.257,110.6243 80.254,111.1503 80.335,111.5723 C80.762,113.7953 80.428,115.9313 79.865,118.0923 C79.463,119.6383 79.368,121.2623 79.055,122.8353 C78.827,123.9743 78.447,125.0823 78.17,126.2123 C78.025,126.7973 77.872,127.3993 77.871,127.9953 C77.87,128.8873 78.116,129.7643 77.454,130.5863 C77.211,130.8903 77.253,131.4543 77.234,131.9013 C77.175,133.3903 76.809,134.7293 76.178,136.1313 C75.536,137.5533 75.799,139.2943 74.718,140.7263 C74.143,141.4883 73.983,142.7003 73.958,143.7183 C73.911,145.6093 73.122,147.3233 73.157,149.3103 C73.2,151.6923 73.178,154.4183 71.284,156.4573 C71.134,156.6193 70.917,156.8743 70.955,157.0293 C71.355,158.6433 70.011,159.7833 69.852,161.2373 C69.827,161.4553 69.746,161.7093 69.603,161.8633 C68.708,162.8263 68.422,163.9453 68.586,165.2343 C68.622,165.5193 68.516,165.9493 68.314,166.1143 C67.405,166.8543 66.995,167.7643 66.756,168.9193 C66.645,169.4583 66.524,169.9343 66.515,170.5153 C66.498,171.5753 66.179,172.6283 66.03,173.6893 C65.767,175.5743 65.564,177.4683 65.273,179.3483 C65.21,179.7603 64.8839958,180.1323 64.679,180.5223 C64.342,180.2203 63.744,179.9413 63.715,179.6113 C63.601,178.3463 63.61,177.0603 63.687,175.7903 C63.766,174.4713 63.969,173.1583 64.133,171.8453 C64.22,171.1473 64.342,170.4553 64.443,169.7603 C64.485,169.4733 64.546,169.1823 64.538,168.8943 C64.53,168.6283 64.306,168.2723 64.412,168.1143 C65.161,167.0003 64.704,165.7593 64.87,164.5903 C64.932,164.1603 65.195,163.7603 65.355,163.3423 C65.523,162.8973 65.838,162.4383 65.812,162.0023 C65.724,160.4993 66.573,159.4383 67.327,158.3073 C68.389,156.7113 69.294,155.0523 69.413,153.0673 C69.437,152.6813 69.546,152.1893 69.803,151.9443 C71.387,150.4393 71.227,148.3173 71.767,146.4613 C72.16,145.1043 72.276,143.6653 72.476,142.2573 C72.526,141.8983 72.41,141.5183 72.395,141.1473 C72.38,140.7973 72.342,140.4343 72.41,140.0963 C72.655,138.8893 72.939,137.6883 73.214,136.4873 C73.273,136.2273 73.289,135.9193 73.44,135.7233 C74.38,134.5023 74.396,133.0513 74.52,131.6243 C74.543,131.3553 74.471,130.9963 74.616,130.8333 C75.882,129.4173 75.632,127.5153 76.205,125.8783 C76.579,124.8103 76.376,123.5543 76.607,122.4183 C77.151,119.7553 77.423,117.0713 77.465,114.3593 C77.468,114.1813 77.42,114.0023 77.391,113.8243 C77.341,113.5133 77.287,113.2023 77.235,112.8913 C77.033,113.1113 76.836,113.3353 76.629,113.5513 C76.44,113.7463 76.275,113.9973 76.045,114.1113 C74.277,114.9913 73.857,117.0033 72.572,118.2423 C70.645,120.1013 71.316,122.4763 70.96,124.7063" id="Fill-24" fill="#67615C"/>
            <path d="M97.665,115.9759 C98.092,116.0539 98.38,116.0539 98.617,116.1639 C98.873,116.2829 99.3,116.5719 99.27,116.6659 C99.175,116.9679 98.91,117.4409 98.699,117.4469 C96.979,117.4969 96.148,118.8539 95.113,119.8609 C94.726,120.2389 94.623,120.9129 94.397,121.4549 C94.363,121.5369 94.4,121.6669 94.349,121.7179 C93.152,122.9039 93.296,124.6389 92.582,126.0179 C91.973,127.1949 91.295,128.3359 90.726,129.5309 C90.526,129.9499 90.555,130.4779 90.491,130.9569 C90.479,131.0409 90.566,131.1479 90.541,131.2199 C90.09,132.4839 89.629,133.7439 89.169,135.0039 C89.035,135.3719 88.875,135.7309 88.766,136.1059 C88.544,136.8609 88.334,137.6199 88.149,138.3839 C88.079,138.6739 88.069,138.9849 88.071,139.2859 C88.084,140.6649 88.122,142.0449 88.12,143.4259 C88.12,143.6849 88.023,143.9709 87.892,144.1979 C87.382,145.0709 87.623,145.8979 87.686,146.8479 C87.793,148.4379 88.686,150.1869 87.342,151.7929 C86.978,152.2279 87.271,153.1839 87.193,153.8929 C87.016,155.5009 86.795,157.1059 86.591,158.7109 C86.494,159.4749 86.397,160.2379 86.295,160.9999 C86.247,161.3579 86.294,161.7829 86.115,162.0589 C84.956,163.8629 84.27,165.8709 83.468,167.8339 C83.268,168.3249 82.595,168.5999 82.284,169.0699 C81.718,169.9269 81.219,170.8359 80.766,171.7609 C79.385,174.5819 78.04,177.4219 76.68,180.2539 C76.563,180.4969 76.503,180.8359 76.309,180.9599 C75.846,181.2549 75.318,181.4469 74.817,181.6799 C74.894,181.1579 74.9,180.6119 75.061,180.1179 C75.337,179.2739 75.699,178.4579 76.043,177.6389 C77.064,175.2049 78.073,172.7659 79.132,170.3479 C79.564,169.3599 80.148,168.4399 80.596,167.4569 C81.373,165.7489 82.503,164.0659 82.719,162.2799 C82.895,160.8139 83.332,159.5159 83.674,158.1349 C84.064,156.5579 84.008,154.8689 84.12,153.2259 C84.133,153.0519 84.007,152.7279 83.901,152.7079 C82.832,152.5109 83.118,151.5679 83.411,151.2549 C84.404,150.1939 83.759,148.8629 84.197,147.7099 C84.711,146.3649 84.326,144.7609 85.26,143.4829 C85.379,143.3199 85.445,142.9969 85.365,142.8289 C84.885,141.8179 85.155,140.8499 85.465,139.8809 C85.607,139.4319 85.785,138.9939 85.97,138.5599 C86.018,138.4459 86.219,138.3779 86.233,138.2729 C86.422,136.9689 86.519,135.6489 86.782,134.3619 C87.05,133.0529 87.45,131.7689 87.846,130.4909 C88.172,129.4359 88.613,128.4159 88.935,127.3609 C89.314,126.1149 89.601,124.8399 89.965,123.5889 C90.191,122.8089 90.441,122.0279 90.767,121.2849 C91.011,120.7259 91.381,120.2199 91.719,119.7069 C91.837,119.5279 92.143,119.4119 92.167,119.2399 C92.441,117.3069 94.04,117.2219 95.435,116.8079 C96.243,116.5689 97.019,116.2199 97.665,115.9759" id="Fill-26" fill="#67615B"/>
            <path d="M96.0029,64.0091 C95.9739,64.3731 95.9879,64.4341 95.9639,64.4601 C94.7909,65.7891 94.7779,67.8191 93.2479,68.9431 C92.7799,69.2861 92.3249,69.6901 91.9829,70.1541 C91.0109,71.4711 89.5549,71.8831 88.1039,72.1171 C87.5279,72.2101 86.8349,71.6251 86.2189,71.3041 C86.1739,71.2801 86.2549,70.8261 86.3909,70.6711 C88.0589,68.7711 89.6229,66.7501 91.4819,65.0571 C92.4499,64.1741 93.9319,63.8321 95.2229,63.3611 C95.4129,63.2911 95.8349,63.8621 96.0029,64.0091" id="Fill-28" fill="#68625C"/>
            <path d="M96.1016,56.1351 C95.9336,56.2351 95.7766,56.3641 95.5956,56.4281 C94.2616,56.8981 92.8966,57.2891 91.5986,57.8421 C90.9016,58.1391 90.1646,58.5891 89.7176,59.1781 C88.7406,60.4651 86.9926,61.0501 86.5736,62.8701 C86.3946,63.6451 85.7656,64.3221 85.3166,65.0261 C84.9036,65.6731 84.4066,66.2421 83.5566,65.7161 C82.7766,65.2321 82.9876,64.5171 83.3636,63.9301 C85.1206,61.1861 87.1376,58.7851 90.3086,57.4711 C91.8446,56.8341 93.2146,55.7921 94.9556,55.7101 C95.3266,55.6931 95.7036,55.8251 96.0776,55.8891 C96.0846,55.9711 96.0926,56.0531 96.1016,56.1351" id="Fill-30" fill="#69635E"/>
            <path d="M88.4873,83.0794 C88.8903,83.1174 89.3113,83.0954 89.6933,83.2064 C90.3373,83.3934 91.1573,83.5914 91.0243,84.4644 C90.9083,85.2254 90.7393,86.1324 89.6483,86.2194 C89.4333,86.2364 89.0973,86.2444 89.0323,86.3684 C88.3323,87.7104 86.9253,86.9564 85.9153,87.4124 C85.3543,87.6654 84.7553,87.1644 84.5593,86.4104 C84.3573,85.6274 84.1353,84.8124 84.9813,84.3524 C86.0603,83.7664 87.2223,83.3324 88.3483,82.8324 C88.3943,82.9144 88.4413,82.9974 88.4873,83.0794" id="Fill-32" fill="#68625C"/>
            <path d="M77.3184,112.2425 C77.3344,112.2145 77.3484,112.1845 77.3634,112.1565 C77.4094,112.1845 77.4544,112.2135 77.5004,112.2415 C77.4694,112.2705 77.4404,112.3225 77.4104,112.3225 C77.3804,112.3225 77.3484,112.2715 77.3184,112.2425" id="Fill-34" fill="#FDFDFD"/>
        </g>
    </g>
</svg>
