<svg viewBox="225.75 379.787 451.5 474.734" xmlns="http://www.w3.org/2000/svg" xmlns:xlink="http://www.w3.org/1999/xlink" overflow="visible">
    <defs>
        <polygon id="masterfemale-charactersitting-on-the-floor-path-1" points="0.55075295 0.056 35.2163759 0.056 35.2163759 32.5642082 0.55075295 32.5642082"/>
        <polygon id="masterfemale-charactersitting-on-the-floor-path-3" points="0.4156 0.3131 1.4156 0.3131 1.4156 1 0.4156 1"/>
        <polygon id="masterfemale-charactersitting-on-the-floor-path-5" points="0.27 0.214 25.427 0.214 25.427 20.1440549 0.27 20.1440549"/>
        <polygon id="masterfemale-charactersitting-on-the-floor-path-7" points="0.535923554 0.163567806 19.5585 0.163567806 19.5585 8 0.535923554 8"/>
        <polygon id="masterfemale-charactersitting-on-the-floor-path-9" points="0.6081 0.5002 2.5091 0.5002 2.5091 1 0.6081 1"/>
        <polygon id="masterfemale-charactersitting-on-the-floor-path-11" points="0.0636 0.129 20.2206 0.129 20.2206 38.8679939 0.0636 38.8679939"/>
        <polygon id="masterfemale-charactersitting-on-the-floor-path-13" points="0.749806646 0.56647221 90.226 0.56647221 90.226 61.8828957 0.749806646 61.8828957"/>
        <polygon id="masterfemale-charactersitting-on-the-floor-path-15" points="0.7593 0.907 2.3563 0.907 2.3563 1.79978259 0.7593 1.79978259"/>
    </defs>
    <g id="Master/Female Character/Sitting on the Floor" stroke="none" stroke-width="1" fill="none" fill-rule="evenodd">
        <g id="Sitting Lower" transform="translate(206.000000, 486.000000) scale(1 1)">
            <defs>
                <polygon id="sitting-lowerplaying-2-path-1" points="0.000452851894 0.3008 128.286 0.3008 128.286 68 0.000452851894 68"/>
                <polygon id="sitting-lowerplaying-2-path-3" points="0.55075295 0.056 35.2163759 0.056 35.2163759 32.5642082 0.55075295 32.5642082"/>
                <polygon id="sitting-lowerplaying-2-path-5" points="0.037 0.772 24.049 0.772 24.049 20.8288 0.037 20.8288"/>
            </defs>
            <g id="Sitting Lower/Playing 2" stroke="none" stroke-width="1" fill="none" fill-rule="evenodd">
                <g id="Body" transform="translate(29.000000, 0.000000)">
                    <g id="Group-7-Copy" transform="translate(118.000000, 0.000000)">
                        <g id="Group-11">
                            <g id="Group-3" transform="translate(0.000000, 18.943800)">
                                <mask id="sitting-lowerplaying-2-mask-2" fill="#fff">
                                    <use xlink:href="#sitting-lowerplaying-2-path-1"/>
                                </mask>
                                <g id="Clip-2"/>
                                <path d="M116.9112,17.3148 C105.1592,14.3868 93.1822,12.1068 82.9062,4.8498 C80.6102,9.8458 81.7552,17.0828 83.3102,22.3368 C79.9472,20.0768 81.6242,15.0218 80.3362,11.7168 C65.6632,14.7098 56.1872,14.7918 47.1582,0.3008 C36.8359,7.5608066 20.4317668,9.50562777 8.76476684,12.6326278 C-18.5601314,32.0392602 30.8552,82.8958 96.0712,64.7458 C136.0672,53.7458 133.5152,19.1458 116.9112,17.3148 Z" id="Fill-1" fill="#ffc2ab" mask="url(#sitting-lowerplaying-2-mask-2)"/>
                            </g>
                            <g id="Group-6" transform="translate(47.000000, 0.943800)">
                                <mask id="sitting-lowerplaying-2-mask-4" fill="#fff">
                                    <use xlink:href="#sitting-lowerplaying-2-path-3"/>
                                </mask>
                                <g id="Clip-5"/>
                                <path d="M33.0341,29.717 C26.0271,31.555 19.9071,34.521 12.8111,30.725 C6.2911,26.843 0.2811,23.953 0.5601,18.279 C0.6921,15.607 2.3011,10.803 4.9071,2.311 C7.7441,-6.933 23.6531,15.301 33.8271,14.204 C37.1421,13.652 33.5511,27.542 33.0341,29.717" id="Fill-4" fill="#ffc2ab" mask="url(#sitting-lowerplaying-2-mask-4)"/>
                            </g>
                            <path d="M82.1986,16.2189 L83.6446,16.2779 C83.2226,24.8979 80.9156,34.3119 84.5036,42.8519 C76.7426,37.7959 80.3466,24.0949 82.1986,16.2189" id="Fill-7" fill="#37231F"/>
                            <path d="M86.6957,14.6325 C86.4227,14.9855 86.1507,15.3385 85.8777,15.6905 C78.5667,19.2005 63.9687,18.0475 59.7507,11.8695 C63.8207,11.8705 68.0847,13.7895 72.2387,14.3375 C77.0307,15.9635 82.1347,13.2835 86.6957,14.6325" id="Fill-9" fill="#3E2C26"/>
                        </g>
                    </g>
                    <g id="Group-190" transform="translate(0.000000, 23.000000)">
                        <g id="Group-3" transform="translate(1.000000, 9.228000)" fill="#ffc2ab">
                            <path d="M306.8619,168.4977 C304.1459,172.3937 300.5029,176.0757 297.7869,180.2247 C295.1679,183.6057 294.3079,188.8117 290.4999,191.0047 C283.8149,192.6607 276.5219,197.5357 269.7179,194.0597 C267.3089,192.0967 257.0979,193.0497 256.9489,190.6017 C260.5069,183.5927 269.9309,188.2667 275.7239,185.3127 C281.4059,181.4537 285.2569,178.1477 283.4149,170.7707 C283.4009,170.4107 283.4329,169.8987 282.8109,169.9117 C275.7949,173.0687 262.7279,165.2717 253.9989,165.6937 C252.9789,165.5887 252.8269,165.0547 253.0179,164.1977 C258.0589,137.1107 264.7059,110.1787 265.2069,82.4697 C264.4229,79.6777 265.4399,79.9947 266.8799,81.9187 C279.1519,96.3677 289.9569,112.5977 300.9949,127.5337 C308.8719,116.0197 327.1289,123.6507 332.1899,134.4207 C326.1809,127.9577 315.6449,121.4507 306.6009,124.6167 C303.3419,126.3857 302.0469,129.7037 300.4519,132.8627 C295.9049,139.7147 291.5579,146.8597 286.1809,153.0727 C280.9079,158.8307 272.1579,149.8407 267.4229,154.3537 C266.5089,157.0737 259.6569,163.3387 265.6899,163.8947 C269.2559,164.7377 276.8479,157.5037 277.0219,160.3097 C279.7419,162.6777 284.6179,163.3997 284.9559,167.7867 C285.1999,171.9477 287.2099,177.2537 284.3509,180.8077 C271.1219,195.2277 267.0129,182.1377 257.4499,190.6457 C262.5359,191.5047 267.9939,190.3937 272.8769,193.0107 C277.8949,194.0677 282.9149,190.5817 287.9569,190.1817 C294.2779,186.9647 295.1499,177.3387 301.0919,173.0207 C312.9009,159.1547 334.5269,156.0817 341.9479,137.7147 C332.4029,114.0477 316.8339,92.5577 304.7309,69.8857 C294.0459,51.8837 282.1339,33.6417 264.9519,21.1847 C257.6289,16.7047 250.6379,11.3307 242.9519,7.5087 C242.8199,11.7147 241.4169,16.0207 238.0179,20.4657 C222.0179,42.4657 196.0179,40.4657 173.0179,37.4657 C150.8569,35.2497 133.6169,19.9317 124.5029,0.3907 C118.2739,2.2567 112.2379,4.4677 106.9449,7.9517 C76.6629,29.2687 62.0619,129.0377 66.4339,164.2777 C68.1439,167.7717 71.0129,169.6807 74.6909,170.7747 C78.1789,172.9417 81.0939,176.7667 85.3279,177.2717 C97.1889,179.3207 108.3009,183.7437 119.2909,188.3347 C133.2039,191.1607 147.6089,187.4187 161.6359,190.0167 C170.0879,189.8627 178.3709,190.8487 185.8269,194.9627 C200.2089,202.9917 198.7909,207.6787 216.8839,206.6367 C220.7549,207.4767 224.8899,208.0977 227.0159,203.9627 C227.3509,202.3017 233.8609,198.0077 230.8789,197.5267 C223.3999,196.5667 214.8779,195.9367 208.4219,191.9717 C207.2109,187.8037 207.9099,183.2287 208.7099,179.0167 C213.5789,171.2387 219.0439,169.4777 227.5339,172.7017 C231.8419,173.7817 238.7319,174.1037 241.7369,170.3237 C243.4779,167.3817 229.7829,166.9747 227.9819,165.8787 C224.0869,164.0637 220.0209,159.7067 215.4739,161.5027 C208.5659,164.6467 201.2859,166.8517 194.2679,169.7227 C186.2469,172.6717 177.9789,167.9657 170.1129,166.7117 C156.7049,163.0557 143.1739,160.2477 130.6999,154.0917 C109.9079,146.2557 103.6899,134.4517 83.9319,154.5477 C82.1089,157.1847 80.0949,160.3817 77.7729,162.3317 C77.3969,162.1037 77.6839,161.7497 77.8409,161.5127 C79.5569,158.5907 81.2999,155.6387 83.4449,153.0677 C85.1529,152.1707 86.2099,150.7217 87.3419,149.2227 C97.2019,141.8207 99.2139,141.5227 110.7549,142.7997 C113.9939,122.4167 114.8429,100.8777 120.4919,81.1907 C124.7619,95.9317 129.1639,110.8897 133.8749,125.5847 C135.6809,131.3887 137.6019,137.1567 139.1889,143.0307 C141.2359,147.9107 140.8159,155.3767 144.5939,158.8587 C154.1539,161.3987 163.7729,163.4667 173.2849,166.0277 C180.1149,167.2737 186.6549,170.9907 193.6459,168.3857 C233.2729,154.6627 206.8129,159.1897 237.9519,166.6277 C241.2389,166.4127 245.9999,170.3137 241.9479,173.0237 C239.7939,174.3807 237.2929,174.4247 234.9849,175.1757 C230.0039,175.3117 225.0129,173.5067 220.1099,172.3487 C215.2049,172.7067 212.1869,177.2287 210.1909,181.2347 C208.4459,183.8137 209.5659,186.7507 209.0629,189.5617 C210.2199,193.0087 216.9009,193.4807 219.9949,194.7927 C224.3759,195.8437 229.0479,197.8527 233.6239,197.1847 C234.3299,196.7417 234.5109,197.4667 233.9389,197.7767 C223.8809,206.1197 231.5829,210.1767 216.1689,208.5097 C211.1929,207.8007 205.9049,209.1017 201.1799,207.1767 C194.2079,202.3267 187.5929,197.1937 180.1069,193.0757 C162.9239,190.3597 145.0149,192.0157 127.6819,190.6037 C125.4379,190.8057 127.9459,193.4327 129.2569,192.7947 C139.2129,197.0577 149.1399,203.1337 158.6259,208.8157 C163.2939,211.3417 167.3519,214.4627 171.6489,217.4637 C174.1729,218.9697 177.3179,219.8897 179.1329,222.4537 C182.2739,224.1067 184.5799,227.2097 188.0619,228.3387 C188.5389,228.4577 188.9029,228.7197 189.0849,229.1597 C189.7459,230.7667 191.3049,231.5227 192.6179,232.1667 C197.1049,234.5997 200.5049,238.4377 205.0689,240.6457 C207.1979,242.2477 209.3649,243.7357 211.2509,245.6317 C215.1729,247.9577 219.4719,249.5517 223.0729,252.4657 C230.5699,256.9077 239.1269,259.7457 246.8429,263.2797 C252.9289,258.2237 258.9989,252.8297 263.8739,246.7117 C265.7259,245.8877 266.5069,244.2907 267.6619,242.8047 C270.3579,240.6167 272.1969,237.6817 274.8299,235.5427 C282.9749,226.4007 291.2209,217.1917 300.8419,209.2647 C333.8019,179.4067 362.6919,169.5097 407.0159,172.4287 C412.3899,172.7677 393.3919,173.8117 389.2359,173.8997 C368.6069,172.9237 348.0099,179.2207 330.7519,190.0417 C323.8789,193.4747 318.3489,198.8397 312.2899,203.6457 C309.6729,205.7567 306.5039,207.3357 303.9529,209.4007 C303.1819,211.3647 301.1619,211.8697 299.6489,212.9427 C291.2369,220.5497 283.8529,229.1027 275.5669,236.5987 C272.8309,240.8937 268.8429,244.2237 265.4129,248.0327 C264.3319,249.8507 262.4799,250.8177 261.0029,252.2347 C259.9379,253.3797 259.5529,255.2247 257.6379,255.4927 C246.5439,266.5997 234.5609,277.5927 220.9479,285.4157 C207.9019,290.4727 192.9709,290.9157 178.9709,289.5867 C162.5479,287.3647 144.0479,289.6597 130.0479,279.1337 C123.4309,272.5477 111.1459,276.5057 119.5419,285.7797 C120.0169,287.4807 130.7499,291.5037 124.8019,290.5787 C119.7469,289.2917 116.8169,285.9477 115.6829,280.9757 C115.2529,278.4827 112.1969,278.9597 110.4309,277.8987 C100.3259,273.9967 91.1019,268.4627 82.1499,262.4647 C58.9159,246.9527 41.1799,224.4737 17.2309,209.9507 C11.8449,205.9417 26.3249,213.8267 28.6749,215.9047 C56.5879,237.3727 80.2689,265.4667 114.2469,277.8347 C115.1479,278.1817 115.8239,278.0667 116.3299,277.1967 C124.9949,266.9107 134.8109,284.2097 144.5979,284.4187 C158.1949,287.5727 172.1669,287.2557 185.9619,288.5527 C193.7379,288.8057 201.7739,288.4887 209.3529,286.0947 C221.5669,286.6937 222.9199,282.1247 231.9259,275.5317 C234.0899,273.9727 236.5169,272.9607 237.9869,270.5277 C239.7019,269.4927 247.6219,263.8127 242.1569,263.3367 C224.4299,258.1607 209.6459,246.8817 194.3689,236.8767 C192.7719,235.8097 191.7979,233.9007 189.7239,233.4767 C188.1249,231.9217 186.9879,229.6767 184.4759,229.2217 C181.5449,227.1437 178.6579,224.5767 175.2829,222.9327 C167.6189,215.7287 157.5409,212.2187 149.2059,205.8507 C134.6989,196.8887 118.7759,190.1737 103.0889,183.5697 C81.5619,178.1437 60.8149,169.7467 38.5279,167.3257 C50.0149,167.9307 62.0759,170.4827 73.0009,174.0707 C73.7139,174.3127 75.1349,174.7047 75.4439,173.7997 C75.6969,173.0037 74.7339,172.7957 74.1279,172.5397 C68.8179,170.8277 65.0999,167.5987 64.3169,161.9087 C44.0709,159.0457 13.4899,154.1097 3.7909,177.3837 C1.9149,182.5187 -0.5601,189.2257 2.2639,194.3757 C16.7499,219.1037 30.3309,245.0047 51.0949,265.1937 C69.7899,281.6527 92.6409,292.9307 116.3399,300.2207 C117.0819,300.4317 117.0959,300.6417 116.5089,301.1237 C112.0859,305.1107 121.1249,308.8187 124.3719,309.5217 C128.3289,311.5297 120.7629,310.2217 119.4199,309.8787 C117.7929,310.9087 115.8859,312.2677 116.8689,314.3197 C119.5689,316.0697 121.3879,318.9477 124.8909,319.3337 C130.0519,321.0357 123.7639,320.8867 122.0299,320.3387 C112.5449,329.8017 137.6029,328.8447 142.7629,329.7787 C154.6159,330.9757 167.5409,332.7407 178.4999,326.9467 C188.7529,320.5947 201.5129,327.5807 211.5629,321.0707 C218.6429,316.3817 225.6709,311.8027 233.6139,308.6397 C272.2319,291.9937 315.6649,291.4767 354.6859,276.9727 C353.4459,277.8767 351.0039,278.0087 350.6139,279.6847 C381.8209,267.0187 402.0139,238.7257 420.1269,211.6577 C423.1369,206.1727 428.6039,201.3137 429.7279,195.1157 C428.9609,187.2597 428.4719,178.6787 421.3569,173.8307 C388.5219,150.1397 343.5249,160.4877 306.8619,168.4977 Z" id="Fill-1"/>
                        </g>
                        <path d="M144.5156,167.3771 C159.0216,170.7451 173.3196,175.5231 187.9146,178.0271 C197.5556,178.1941 206.1446,172.5041 215.1196,169.8061 C218.0926,167.8201 221.9246,168.2551 224.7156,170.4091 C227.0916,172.2041 230.2796,172.5581 232.5696,174.4051 C235.6966,175.8181 240.0506,174.3691 242.9136,176.6061 C244.6846,178.2361 245.1616,177.7731 244.8426,180.4151 C244.4376,182.7901 240.9326,183.6201 238.8756,184.0021 C236.9946,184.2851 235.0676,185.3451 233.1146,184.7211 C230.9386,183.4761 228.3146,184.3771 225.9926,183.2091 C224.9846,182.8431 223.7346,182.7451 222.7566,182.5551 C221.0256,181.1511 219.4406,182.3401 217.8526,182.8141 C214.1206,185.8231 209.9476,190.6281 210.7336,195.7711 C211.2646,197.0721 209.5006,199.3861 211.0876,200.1041 C217.8906,202.7821 228.0366,207.0651 235.2656,205.7821 C238.1446,206.0401 229.3736,212.0191 229.5236,213.8831 C228.1466,216.7441 226.9476,219.4711 223.1826,218.3831 C220.3526,217.5781 217.1066,218.6361 214.1996,217.7221 C208.0296,218.3701 200.0956,217.9791 196.2516,212.0171 C193.4786,211.5581 191.8096,209.3321 189.7686,207.5821 C187.8536,206.7211 185.5816,205.9701 184.0746,204.4311 C183.7226,203.7011 183.2206,203.2871 182.3686,203.3551 C179.5756,201.2831 176.2286,202.3281 173.0176,201.9311 C158.0656,200.3781 142.8446,201.0151 127.9866,200.3181 C128.6876,202.5941 132.0556,200.8831 133.3296,202.8361 C136.3116,205.0281 140.0366,205.9891 143.0096,208.2071 C145.2636,208.6531 146.5546,211.0421 148.9976,211.1151 C149.3796,211.1261 149.8156,211.5141 150.1106,211.8341 C156.2586,216.3331 163.9266,218.8361 169.5296,224.2701 C172.1886,226.9241 176.8946,227.3121 179.3626,230.1121 C180.4306,231.5671 181.7256,232.3391 183.1896,233.0991 C185.0416,234.4211 186.6856,236.6351 188.9486,237.1971 C190.2656,237.4291 190.7446,239.2041 191.8486,239.8271 C197.1796,242.7741 201.4556,247.1141 206.7216,249.8951 C212.6906,255.3931 220.2196,258.6461 227.1436,262.9601 C229.5016,265.2931 233.4226,264.6831 235.7116,266.9401 C239.0656,269.4111 243.8806,269.4031 247.2216,272.0341 C247.7366,272.7391 247.7166,272.3071 248.0826,271.9401 C253.6496,267.0851 259.4886,262.3451 263.8086,256.5281 C265.3836,255.1021 267.2516,254.3481 267.8396,252.1691 C289.4746,229.1591 311.4966,206.1641 340.3946,191.1031 C362.2026,180.8331 386.8306,180.1461 410.3756,181.7311 C394.7546,185.2861 377.5006,181.2631 361.9566,186.5481 C359.0766,187.3541 354.6486,188.1781 352.2976,189.8281 C351.3236,190.6881 349.6676,189.9261 348.7556,191.0711 C343.0646,193.8821 336.6916,195.5401 331.8016,199.7121 C324.1536,203.3801 317.8186,210.3891 310.6616,215.3421 C308.9496,216.6271 306.4356,217.2271 305.1366,218.9321 C304.5916,220.7781 302.7416,221.0851 301.5076,222.1101 C294.9536,227.8021 289.0986,233.8131 283.3046,240.2161 C281.1966,241.3521 280.0786,243.4031 278.4666,244.9651 C277.1916,245.1491 276.8086,246.0831 276.3156,247.0871 C275.4676,248.5341 273.6266,249.1411 273.0046,250.8541 C272.6166,251.7961 271.2526,252.6161 270.4336,253.2091 C268.8346,256.0181 265.8796,257.9131 263.7146,260.4011 C262.6396,261.3561 261.4496,262.1671 261.0496,263.6921 C260.9546,264.0541 260.4146,264.5831 260.1196,264.5591 C254.0696,268.8291 248.6166,275.0471 242.8046,280.0401 C241.3996,281.5721 239.5956,282.5121 237.8196,283.3841 C237.6386,285.1311 235.7096,285.2131 234.9336,286.4081 C229.8316,289.9201 224.9986,293.9521 219.3426,296.2451 C218.3426,296.5451 217.2316,296.6931 216.2936,297.0701 C210.9266,296.7121 205.9426,299.6781 200.5136,299.5201 C200.2076,299.5751 199.8176,299.8231 199.6206,299.7121 C197.5936,298.6041 195.7116,300.8521 193.7086,299.7921 C193.1836,299.5501 192.1196,300.2071 191.6216,300.0291 C190.5506,299.3161 189.5526,299.9391 188.5136,300.0241 C176.2736,298.1061 163.6036,298.7141 151.3686,296.5211 C146.9946,295.5571 142.6716,294.3221 138.3786,293.0321 C133.1816,291.4931 129.7746,286.5201 124.3836,285.3471 C113.3476,284.4591 118.8706,296.1251 125.7696,298.1791 C126.6846,298.6691 127.9196,298.9231 128.3986,299.9171 C122.5536,301.1951 116.9946,295.4621 116.2416,289.7481 C114.0106,287.1761 109.3976,287.1591 106.4256,285.3381 C71.2746,269.8961 47.3096,238.0471 15.7476,217.4581 C36.0776,224.9731 50.4046,243.5911 67.1446,256.8541 C81.6456,269.3401 97.9876,279.8001 115.7716,286.9441 C116.2846,287.1641 116.5416,287.0911 116.8606,286.5951 C119.2076,282.9421 122.2546,281.8181 126.3056,283.4191 C140.4416,293.3331 153.7576,295.9551 170.8736,296.3651 C180.7046,296.9631 190.3116,298.0791 199.9266,297.0081 C202.9456,296.9101 206.1366,296.3851 208.9976,295.4951 C212.7806,294.1291 216.9216,295.4491 220.7606,294.0661 C226.2676,289.8251 231.7256,285.1841 237.3836,281.2181 C238.1266,279.2181 248.4686,273.6831 243.2606,272.8631 C238.2556,272.1391 233.9336,268.7671 229.0266,267.3291 C224.0856,265.5201 219.8026,261.9721 215.1086,259.7541 C210.4576,257.4691 207.1766,253.7491 202.5826,251.2631 C199.5556,248.4061 195.4886,247.0961 192.6246,243.9681 C191.6336,243.0911 190.2616,243.3931 189.6256,242.0301 C188.4776,239.2391 185.0606,239.5451 183.6046,237.2811 C183.4756,236.9481 183.0836,236.6071 182.7376,236.4911 C180.9886,236.0971 179.9286,234.9101 178.7166,233.7481 C176.2816,233.1541 174.9666,231.0301 173.2156,229.5981 C171.8076,229.7311 171.2556,228.4781 170.2936,227.8931 C169.1096,227.1711 168.2416,225.8211 166.5846,225.8981 C164.7266,225.1471 163.7306,222.9471 161.3636,222.8531 C160.3546,222.6981 159.3406,220.9781 158.5426,220.3221 C156.5436,220.4871 155.6116,218.7381 154.1696,217.9281 C149.0496,215.3271 144.7226,211.8121 139.7016,209.2691 C124.5646,201.9611 109.7166,194.7541 93.6126,189.6581 C75.3516,186.1501 57.1306,178.2521 38.3846,176.5571 C50.8846,175.2031 64.1566,181.3301 76.3106,183.0291 C71.1046,180.2661 65.3326,178.0771 65.3176,171.1371 C65.5936,171.0781 65.8696,171.0211 66.1466,170.9621 C72.5676,181.3911 73.2486,176.6331 82.1446,184.6011 C91.4536,188.2341 101.9036,189.0171 111.0366,193.4081 C112.5226,194.4041 114.2766,194.5161 115.9096,195.0261 C117.9566,196.6481 120.3786,197.5071 123.0186,197.6131 C125.6746,198.5261 128.6306,197.7511 131.2816,198.7971 C133.4526,197.9981 136.0546,198.1791 138.4126,198.2391 C151.3536,197.6491 164.7716,198.4041 177.7316,200.1171 C185.5606,202.0381 191.8466,207.5141 198.5886,211.2461 C201.5496,212.8311 204.0666,215.9541 207.4646,215.4661 C211.6736,214.7911 215.8786,215.7431 220.1516,215.8441 C221.7676,215.8721 223.0436,216.5411 224.6716,215.9551 C227.7946,213.8171 229.6986,209.7681 232.7196,207.2821 C227.6356,206.7061 222.3306,206.1531 217.4386,204.7001 C214.8706,203.3081 210.4506,203.4781 208.9166,201.0521 C207.5866,198.2481 208.9476,195.3561 208.7256,192.5171 C208.2316,188.5461 210.7506,185.9171 213.3136,183.3181 C221.1816,174.4761 233.5716,187.3071 242.1496,179.8831 C243.0246,178.7411 242.9326,178.6181 241.5356,178.1901 C240.8806,178.0151 239.9866,177.2391 239.3416,177.2731 C238.4446,177.8711 237.8736,177.5191 237.2096,176.8901 C235.3726,177.8711 234.1406,175.7091 232.4126,175.9731 C230.9386,175.9711 228.8916,176.1561 227.9936,174.6851 C225.0026,173.7941 222.5516,171.2391 219.5426,170.4781 C210.7236,172.5081 202.5136,177.4271 193.6566,179.7241 C185.9096,182.0691 178.6746,177.0381 171.2796,176.4821 C160.2456,172.5771 148.0506,171.6641 137.7736,165.9651 C139.9336,165.4411 142.5146,166.5271 144.5156,167.3771" id="Fill-4" fill="#34221C"/>
                        <path d="M347.0707,290.8771 C349.6757,295.9941 347.4967,299.2351 341.8687,300.0991 C338.0927,301.1101 334.5377,298.0211 331.0997,298.2851 C331.6137,299.9471 334.7237,299.6881 336.1117,300.5821 C339.0737,303.2091 339.3227,308.6851 334.2387,308.2691 C331.7087,307.5751 329.4487,306.1771 326.9347,305.4451 C326.4357,305.3011 325.6087,304.8571 325.4667,305.3051 C326.8407,307.3811 331.0397,307.2101 332.9117,309.0951 C336.3287,311.2731 334.2157,316.0481 330.4167,315.8531 C327.3427,314.8511 323.8307,312.2461 320.7497,312.4891 C322.0367,314.3491 325.5057,314.4401 327.4097,315.6721 C329.1077,317.9391 329.9297,322.0071 326.0187,322.1391 C322.9707,322.3851 320.4207,320.9581 317.7717,319.7301 C317.2527,319.5981 316.5177,318.9931 316.2317,319.6671 C317.1217,321.1921 320.2417,321.4051 321.7157,322.7111 L321.6877,322.6981 C323.9197,324.5621 324.2337,329.3801 320.5447,329.5701 C314.0557,330.1631 309.7717,323.7931 303.0677,324.9601 C282.8817,326.5151 264.8337,311.2031 244.8527,315.9261 C277.0717,303.7371 313.8337,300.0891 347.0707,290.8771" id="Fill-6" fill="#ffc2ab"/>
                        <path d="M347.0707,290.8771 C313.4067,300.5711 278.0647,304.5751 244.8527,315.9261 L244.8577,315.9221 C237.4717,317.8301 230.2277,320.5751 223.2377,323.7681 C222.7497,323.7491 222.9107,323.4541 222.9907,323.1931 C263.7597,301.2321 311.7537,301.5401 354.6637,286.3921 C354.7877,286.5381 354.8317,286.7061 354.7987,286.8951 C353.5057,287.7061 352.2147,288.6021 350.8797,289.2461 L350.8837,289.2431 C350.7017,289.3431 350.4587,289.3041 350.3177,289.4951 L350.3237,289.4911 C349.6957,289.8151 349.0137,289.9671 348.4167,290.3231 L348.4247,290.3191 C348.2477,290.4361 348.0077,290.4031 347.8497,290.5651 L347.8597,290.5611 C347.6547,290.8191 347.2387,290.5481 347.0627,290.8781 L347.0707,290.8771 Z" id="Fill-8" fill="#35231D"/>
                        <path d="M307.8622,177.7257 C304.7032,183.3187 299.8622,187.7777 296.7682,193.5437 C294.9472,196.2127 294.2582,200.0277 290.6452,200.8797 C272.5202,207.2007 275.3372,204.1247 257.3732,200.6627 C257.1772,200.4807 257.2412,200.0327 257.5432,200.0607 C262.5362,200.0237 268.2622,199.5357 273.0012,201.6097 C278.4662,203.3237 284.1652,199.6797 289.6352,198.9507 C295.1042,194.3667 296.7842,186.0077 302.6782,181.3687 C314.9652,166.9987 333.3412,166.6047 342.9482,146.9427 C344.4062,152.2747 335.9262,160.2797 332.2582,163.9957 C324.9532,168.4897 317.6992,173.2957 309.4112,175.8337 C308.4662,176.1127 307.7922,176.6147 307.8622,177.7257" id="Fill-10" fill="#36251F"/>
                        <path d="M116.3354,313.5616 C119.5744,316.1376 122.8814,317.9296 126.9164,319.1486 C128.4114,321.8806 115.8534,319.2976 116.3354,313.5616" id="Fill-12" fill="#372520"/>
                        <path d="M117.8686,323.548 C118.3346,323.693 118.9926,323.69 119.2356,324.006 C121.4636,327.508 125.4516,327.656 128.6816,329.566 C124.4996,331.724 118.8956,327.91 117.8686,323.548" id="Fill-14" fill="#372520"/>
                        <path d="M327.4096,315.672 C325.1596,314.416 321.5416,314.357 320.1176,312.259 C323.4006,311.72 327.5836,314.22 330.4176,315.853 C329.4146,315.792 328.4116,315.733 327.4096,315.672" id="Fill-16" fill="#36251F"/>
                        <path d="M332.912,309.0949 C330.324,307.6919 326.533,307.4729 324.715,305.1329 C327.798,304.3819 331.139,307.5029 334.239,308.2689 C333.591,308.3709 332.183,308.0729 332.912,309.0949" id="Fill-18" fill="#392620"/>
                        <path d="M336.1113,300.5812 C334.3303,299.6972 331.2523,300.1032 330.4733,298.0802 C333.1173,297.4132 336.0473,299.2432 338.5253,300.1972 L336.1113,300.5812 Z" id="Fill-20" fill="#372520"/>
                        <path d="M321.7158,322.7111 C319.8168,321.5531 316.7958,321.3801 315.6158,319.4941 C317.6798,318.5641 320.1258,320.6371 321.8948,321.7001 C321.0228,321.8931 321.7978,322.3781 321.7158,322.7111" id="Fill-22" fill="#392620"/>
                        <path d="M222.9911,323.1935 C223.0731,323.3835 223.1551,323.5755 223.2371,323.7665 C222.2021,324.3505 221.1681,324.9335 220.1331,325.5165 C220.2221,324.2675 222.1311,323.9875 222.9911,323.1935" id="Fill-24" fill="#533B33"/>
                        <path d="M347.0624,290.8781 C347.3284,290.7731 347.5934,290.6661 347.8594,290.5611 C347.5934,290.6661 347.3284,290.7731 347.0624,290.8781" id="Fill-26" fill="#B77C67"/>
                        <path d="M243.9926,316.1691 C244.2816,316.0871 244.5696,316.0041 244.8576,315.9221 C244.5696,316.0041 244.2816,316.0871 243.9926,316.1691" id="Fill-28" fill="#B77C67"/>
                        <path d="M350.8798,289.2462 C351.0818,289.1572 351.2828,289.0682 351.4838,288.9792 C351.2828,289.0682 351.0818,289.1572 350.8798,289.2462" id="Fill-30" fill="#B77C67"/>
                        <path d="M350.3173,289.4952 L350.8843,289.2432 L350.3173,289.4952 Z" id="Fill-32" fill="#B77C67"/>
                        <path d="M349.7299,289.7589 C349.9279,289.6699 350.1259,289.5799 350.3239,289.4909 C350.1259,289.5799 349.9279,289.6699 349.7299,289.7589" id="Fill-34" fill="#B77C67"/>
                        <path d="M348.4164,290.3234 C348.6204,290.2404 348.8234,290.1564 349.0274,290.0724 C348.8234,290.1564 348.6204,290.2404 348.4164,290.3234" id="Fill-36" fill="#B77C67"/>
                        <path d="M347.85,290.5646 C348.041,290.4836 348.233,290.4016 348.424,290.3196 C348.233,290.4016 348.041,290.4836 347.85,290.5646" id="Fill-38" fill="#B77C67"/>
                        <path d="M243.1664,316.4132 C243.3804,316.3492 243.5944,316.2842 243.8094,316.2192 C243.5954,316.2842 243.3804,316.3492 243.1664,316.4132" id="Fill-40" fill="#B77C67"/>
                        <path d="M349.166,290.0031 L349.592,289.8301 L349.166,290.0031 Z" id="Fill-42" fill="#B77C67"/>
                        <path d="M321.9643,322.9913 L321.6873,322.6983 L321.9643,322.9913 Z" id="Fill-44" fill="#392620"/>
                        <path d="M283.5412,177.514 C283.3042,176.82 283.4282,176.025 282.9262,175.402 C280.8172,173.534 277.4737,170.262611 274.4247,172.993611 C271.5417,175.757611 260.8372,176.988 263.5602,169.984 C266.2722,166.752 267.8062,159.479 273.1982,160.993 C277.4102,161.532 282.8462,165.649 286.2542,161.528 C292.1722,153.98 299.7832,146.129 301.9232,136.685 C309.4992,124.309 330.1242,133.028 333.7172,144.666 C326.9212,136.744 309.3392,126.316 302.9522,139.711 C298.3282,146.253 290.4532,164.391 282.1452,164.513 C277.7802,165.156 271.3732,159.817 268.4132,164.242 C267.4152,166.785 261.1562,172.527 266.9892,172.758 C269.7882,173.685 278.5392,166.458 278.1502,168.602 C277.8462,169.309 278.2842,169.551 278.8002,169.84 C286.8422,172.324 287.5192,180.379 287.0342,187.656 C285.0392,192.22 279.6402,195.681 275.1762,197.589 C266.6862,197.598 265.6642,195.655 257.5432,200.061 C259.9222,193.286 268.6722,196.287 274.1342,194.992 C278.0212,194.309 280.4882,190.5 283.5522,188.257 C285.1802,185.789 284.1382,181.847 283.8242,179.107 C283.4972,178.692 283.8432,178.147 283.5732,177.712 C283.5502,177.648 283.5392,177.581 283.5412,177.514 Z" id="Fill-46" fill="#392822"/>
                        <path d="M111.4677,152.2228 C111.8777,153.0148 112.2877,153.8058 112.6967,154.5968 C109.5567,153.4628 106.5307,153.2108 103.3947,152.7228 C98.6397,154.0258 93.5237,156.3778 89.7117,159.7028 C84.7067,162.6608 83.0197,169.2008 78.4047,172.1328 C78.0697,169.4518 81.2037,167.1708 82.2697,164.7098 C83.1807,162.1798 85.8627,161.2998 87.2847,159.2478 C93.6577,152.9138 102.6307,148.6688 111.4677,152.2228" id="Fill-48" fill="#36231E"/>
                        <path d="M125.1547,311.2365 C121.0187,310.7255 115.0077,308.3905 115.6777,303.1745 C118.8357,307.6215 122.3057,308.3405 126.8017,310.6565 C126.2507,310.9705 125.8367,311.2185 125.1547,311.2365" id="Fill-50" fill="#36231E"/>
                        <path d="M201.7734,330.0714 C200.8414,329.5164 197.8664,329.4414 196.8664,327.9614 C198.2244,327.3984 199.7674,327.9884 201.2054,327.9984 C204.1184,328.4224 206.2844,326.3904 208.9894,325.8394 C207.7284,328.8824 205.5914,329.9684 201.7734,330.0714" id="Fill-52" fill="#36231E"/>
                        <path d="M92.8217,43.1027 C92.3907,43.8647 92.4297,45.3457 91.5437,45.7637 C91.4437,44.7967 92.1467,43.4407 92.8037,42.7607 C92.8087,42.8427 92.8127,42.9247 92.8217,43.1027" id="Fill-54" fill="#D6B5A9"/>
                        <path d="M354.7983,286.8947 C354.7533,286.7267 354.7093,286.5597 354.6643,286.3917 C355.2973,285.9917 356.0563,285.8677 356.7563,285.6137 C356.1073,286.0467 355.5723,286.7087 354.7983,286.8947" id="Fill-56" fill="#533B33"/>
                        <polygon id="Fill-58" fill="#392822" points="257.3793 200.1027 257.3733 200.6627 256.9343 200.4597"/>
                        <path d="M112.6606,154.5714 C112.8406,154.5974 113.0206,154.6254 113.2006,154.6524 C113.0206,154.6254 112.8406,154.5974 112.6606,154.5714" id="Fill-60" fill="#36231E"/>
                        <path d="M137.4648,165.6124 C137.5698,165.7524 137.6748,165.8924 137.7808,166.0324 C137.6748,165.8924 137.5698,165.7524 137.4648,165.6124" id="Fill-62" fill="#34221C"/>
                        <path d="M78.3129,183.8185 C77.7499,184.1095 77.5859,183.9125 77.0749,183.8235 C77.4039,183.2835 77.6749,183.6705 78.3129,183.8185" id="Fill-64" fill="#B77C67"/>
                        <path d="M143.4189,167.2374 C143.6249,167.2804 143.8309,167.3224 144.0369,167.3654 C143.8309,167.3224 143.6249,167.2804 143.4189,167.2374" id="Fill-66" fill="#B77C67"/>
                        <path d="M321.329,321.8693 C321.278,321.8403 321.225,321.8093 321.173,321.7793 C321.247,321.6543 321.323,321.7353 321.418,321.7853 C321.391,321.8113 321.363,321.8383 321.329,321.8693" id="Fill-68" fill="#B77C67"/>
                        <path d="M283.2226,176.1232 C283.3286,176.5872 283.4346,177.0502 283.5406,177.5142 C283.4346,177.0502 283.3286,176.5872 283.2226,176.1232" id="Fill-70" fill="#B77C67"/>
                        <path d="M283.5732,177.712 C283.6572,178.18 283.7422,178.649 283.8272,179.116 C283.7422,178.649 283.6572,178.18 283.5732,177.712" id="Fill-72" fill="#B77C67"/>
                        <path d="M282.6982,175.0128 L282.9272,175.4028 L282.6982,175.0128 Z" id="Fill-74" fill="#B77C67"/>
                        <path d="M282.9911,175.5431 C283.0501,175.6791 283.1101,175.8141 283.1691,175.9501 C283.1101,175.8141 283.0501,175.6791 282.9911,175.5431" id="Fill-76" fill="#B77C67"/>
                        <g id="Group-80" transform="translate(0.000000, 164.228000)" fill="#392822">
                            <path d="M288.3696,36.6547 C296.5826,31.7527 300.051366,21.2267693 306.282366,14.0517693 C310.364366,6.83876929 329.6206,7.6685 337.5346,5.7475 C368.7326,1.7745 434.1796,-3.1695 432.9756,42.4885 C432.8996,46.8775 428.2416,49.5795 426.3306,53.3105 C421.8016,59.7355 417.3426,66.2085 412.8246,72.6415 C404.0296,85.8775 393.9636,98.1705 382.5406,109.2265 C354.6576,136.4515 312.8096,140.8585 276.2316,148.0495 C274.1476,144.2125 274.0266,139.5295 270.9536,136.2205 C268.5536,130.2555 264.4726,125.1975 260.8896,119.9525 C258.1226,117.8635 256.4256,114.6155 253.4046,112.7845 C246.8766,109.3695 260.5646,103.1885 261.7226,99.1485 C268.4186,92.0025 276.6946,85.1835 281.7866,76.8665 C285.0416,74.7355 286.2136,70.6005 289.7856,68.7585 C292.7776,65.1065 296.4786,61.9845 299.6346,58.3645 C327.7656,30.3425 366.9946,15.2395 406.7756,17.1995 C385.8186,14.4425 363.8026,18.5535 344.3406,25.7865 C330.0616,31.4825 317.3126,40.7085 305.1076,49.9915 C304.0276,50.6485 303.6996,52.2335 302.1896,52.2425 C300.7726,52.2045 301.6376,50.3095 302.2316,49.8945 C315.3446,29.3745 336.9736,15.0795 361.3286,11.8915 C365.2186,9.6255 349.3576,13.4555 348.1996,13.5015 C325.6676,19.5205 306.9836,36.1255 297.1776,57.2035 C291.0156,63.9765 284.4176,70.6095 278.5636,77.6495 C272.8726,84.1095 266.7486,90.0425 261.6876,96.9205 C259.0166,99.3535 255.8736,101.0825 254.0646,104.3865 C248.6616,108.5505 243.3156,113.1505 238.8506,118.2985 C230.849132,126.445859 221.449435,131.988867 210.979335,134.137927 C189.734666,138.498542 164.89623,132.279248 144.0836,129.2505 C132.741706,125.293944 125.3916,114.6445 116.8196,123.5885 C108.0906,121.7575 100.8136,115.3915 92.9016,111.9025 C90.9506,109.0055 87.2666,108.5625 84.7126,106.3895 C83.8836,105.0945 82.7626,104.5755 81.3506,104.2155 C80.7816,102.1485 78.6936,101.9425 77.2806,100.9205 C75.7456,99.9325 74.6426,98.4325 73.0766,97.5155 C54.2356,84.0135 38.7636,65.3795 17.7826,54.4855 C37.0076,67.1215 52.6586,83.9165 70.0586,98.4155 C79.0126,104.4785 87.8446,111.7965 97.4096,116.8515 C100.2946,117.0365 101.4516,120.1225 104.3026,120.5935 C107.0146,121.1825 109.3776,122.6855 111.6526,124.0885 C113.8206,123.8515 116.3146,125.6055 117.8686,126.5495 C117.8596,131.8495 125.3996,134.1785 117.3866,137.2085 C111.7466,142.3225 127.089199,147.991339 112.794199,144.463339 C73.0481985,135.071339 35.5616,107.3125 15.9396,72.1845 C10.2406,59.3485 -1.0894,46.6205 0.0846,32.0275 C3.6346,-0.8615 36.8266,-1.3075 62.6676,2.5015 C64.2596,2.6985 64.7006,3.5075 65.1136,5.2095 C67.0406,14.5475 70.1726,14.1395 76.8096,18.7425 C72.4586,19.2135 68.0126,16.9055 63.7066,16.3315 C55.5666,15.4915 47.2896,12.9755 39.1376,12.8125 C57.9446,16.8245 76.6066,20.4455 95.2606,24.9075 C105.0066,28.4065 114.6146,32.2035 124.1546,36.1785 C133.9206,40.7355 142.9406,47.6375 152.7466,52.2825 C179.7306,70.8415 206.3666,92.7395 237.1296,105.2645 C239.8936,105.3345 242.8176,107.7835 245.3686,107.3555 C245.3536,105.8285 241.8156,105.0465 240.4696,104.5985 C236.9426,103.2465 233.7516,100.7385 230.1376,99.5615 C228.6396,99.8735 227.7836,98.9125 226.6966,98.1515 C224.9466,96.5565 222.1816,96.6235 220.3536,95.2115 C206.7866,86.1825 192.5726,77.7005 179.4716,67.9125 C170.0046,60.5635 159.5276,54.5625 149.9206,47.9055 C144.2126,44.0165 132.838149,40.5775 127.677149,36.1785 C144.212149,35.7975 165.961936,33.4175 181.997936,38.0545 C197.487936,45.5235 200.112625,53.5595 219.106625,53.3105 C226.455625,54.7525 230.2186,47.0935 234.9796,42.9655 C228.4486,42.0175 206.5026,40.8215 209.7056,30.7235 C213.2776,14.6225 223.3116,19.4765 235.2566,20.4325 C239.0446,20.2655 243.2836,18.9475 245.5406,15.6925 C245.6616,15.3615 246.3666,15.2235 246.8216,15.0405 C248.5826,14.1655 250.8186,13.8455 252.3166,12.6055 C252.9836,11.2615 254.2196,11.1695 255.4446,11.1945 C261.3486,11.4075 267.2316,12.4605 272.7766,14.4845 C260.4006,25.3915 252.4946,40.8505 251.5686,57.6635 C251.4726,67.4945 248.3786,79.3545 253.4866,88.1295 C250.3396,73.4595 250.929617,49.6127 258.498617,36.1547 L264.8436,37.8995 C265.0496,40.5005 262.8596,42.9305 263.2966,45.7515 C263.4046,48.6305 261.9246,51.2905 262.2726,54.1895 C262.4076,62.0475 261.6436,70.9685 264.3956,78.2325 C262.8476,65.3375 261.5196,50.2635 267.5956,38.3815 C274.6606,42.3185 281.0686,38.5277 288.3696,36.6547 Z" id="Fill-78"/>
                        </g>
                        <path d="M273.0615,312.8058 C237.8295,319.5378 254.9755,316.8478 232.6575,289.7638 C233.4035,288.5058 235.4765,288.8688 235.9885,287.2208 C238.5045,285.7998 239.9675,282.8508 242.6785,281.4508 C244.1975,281.0118 248.6725,275.4028 249.9145,276.4848 C251.0835,277.3428 252.0195,278.5208 253.0365,279.4608 C259.1295,283.3288 262.5075,290.5458 266.2585,296.4898 C266.8415,297.6448 268.2295,298.4068 268.3915,299.7368 C269.3845,304.1608 273.4945,308.0578 273.0615,312.8058" id="Fill-81" fill="#392822"/>
                        <path d="M273.0615,312.8058 C269.7445,301.5388 263.7275,291.1728 256.0525,282.4528 C255.3205,280.7128 253.7245,280.1838 252.2205,279.3658 C251.2655,278.7778 249.6945,275.2868 248.7435,276.9798 C245.7165,279.6268 241.7945,282.0158 238.8975,285.0918 C238.4735,286.3228 237.5115,286.9078 236.3295,287.1678 C235.8495,289.0968 233.9545,289.0078 232.6575,289.7638 C231.9345,289.4808 231.2105,289.1978 230.4875,288.9128 C236.7645,283.2428 243.1095,278.0268 249.3335,272.2318 C250.5285,271.2298 251.3955,269.5478 252.8065,268.8708 C253.9565,268.6578 254.4325,267.9108 254.8295,266.9198 C256.2545,264.6818 258.9255,263.3538 260.8975,261.6598 C266.7545,253.9958 273.3515,246.7068 280.3075,239.9188 C280.8475,237.2138 283.4605,236.3718 284.9585,234.4808 C286.8675,229.9688 292.1555,227.9318 294.3305,223.9818 C294.3045,223.7448 294.5965,223.3088 294.8275,223.2378 C296.7205,222.6478 296.9885,220.8078 297.8255,219.4218 C300.8565,213.3698 304.6945,207.7188 308.8945,202.2988 C322.4675,187.1998 342.3685,175.2958 362.8575,175.368466 C355.0135,179.1028 343.6345,178.9518 335.9805,184.4608 C320.6915,190.8678 308.1425,203.9108 300.4625,218.4108 C300.8625,217.5358 301.1485,216.5728 302.2005,216.2678 C303.3795,216.0298 303.8055,215.1218 304.3985,214.2378 C306.2595,213.5588 307.4115,211.9178 309.0055,210.8748 C312.5725,208.1928 315.9295,205.3638 319.7335,202.9218 C320.5745,202.1758 321.8305,202.6708 322.3255,201.4778 C322.4915,201.1878 322.8425,200.8588 323.1485,200.8148 C324.6215,200.6038 325.4925,199.5468 326.5165,198.6588 C328.8665,196.9938 331.7375,196.3528 334.0875,194.5608 C336.6035,192.3008 340.1725,191.9658 342.9885,190.0678 C346.4995,189.9868 349.2925,187.5938 352.5175,186.3568 C354.4155,185.6518 356.4605,185.8278 358.3045,184.8728 C359.4185,184.4638 360.9415,184.7458 362.0585,184.5338 C363.3895,183.1288 365.2295,183.4498 366.8535,183.1028 C369.5585,183.4258 371.4895,181.5528 374.0555,181.8948 C380.1175,181.3868 386.2625,179.6598 392.3915,180.5098 C397.4075,180.3018 403.2215,179.4758 407.8075,181.6598 C384.0155,181.0578 359.9775,185.1858 338.2955,195.0838 C332.8755,198.0488 327.9915,202.0578 322.4815,204.6168 C319.8365,206.4728 317.2945,208.9118 314.2385,209.9788 C314.0425,211.1478 313.1915,211.4408 312.2075,211.6708 C310.3265,213.1648 308.8835,215.2738 306.7705,216.4408 C304.5795,218.5768 302.1415,220.5898 300.1055,222.6658 C298.6085,223.6528 298.0965,225.5918 296.2935,226.1898 C296.2115,227.9088 294.4945,228.0318 293.6165,228.9658 C292.4545,230.1868 291.4925,231.7118 290.4915,233.0218 C287.2195,234.2378 285.9685,237.8128 283.6195,240.1078 C282.6035,241.0188 281.3925,241.7438 281.2865,243.3038 C274.9665,250.1188 268.8785,256.9938 262.1515,263.2398 C261.3425,266.6788 247.9195,274.3138 253.1455,276.4968 C255.0135,276.8328 255.1935,278.7258 256.5295,279.5858 C258.0595,280.0648 258.7155,281.3278 259.4235,282.5848 C260.2275,283.7828 261.8915,283.8708 262.1645,285.4798 C267.8685,293.8218 274.0325,302.2258 276.2315,312.2778 C275.1745,312.4528 274.1185,312.6288 273.0615,312.8058" id="Fill-83" fill="#000"/>
                        <path d="M132.1025,201.3273 C143.1625,208.1063 154.4195,214.0983 165.0045,221.6313 C168.5695,223.1243 170.7695,226.4553 174.2525,227.8493 C176.2805,229.5003 178.3575,231.6133 180.9565,232.4413 C193.9775,242.8513 208.5955,251.4093 222.4745,260.1273 C230.0165,263.2263 237.0605,267.1183 244.7295,270.1723 C245.4555,270.3183 245.9205,271.2793 245.905852,271.7993 C245.6695,272.4823 245.0125,272.3283 244.4045,272.1033 C240.8505,270.2493 236.7575,270.1673 233.4385,268.1733 C230.6515,267.7393 228.9775,265.3693 226.2505,265.1323 C223.7805,264.1263 221.3995,262.6873 219.2115,261.0983 C216.8795,259.8953 214.1265,259.7013 212.4925,257.2813 C204.9355,254.0803 198.7385,248.6583 191.8275,244.3883 C181.6675,237.1473 170.8765,230.4013 161.2955,222.4913 C159.7405,221.4053 157.6585,221.4163 156.4855,219.5983 C155.3725,218.7233 153.6085,219.0143 153.3005,217.2273 C151.4025,216.0103 149.0025,215.2303 147.1705,213.7073 C130.4935,203.5733 113.0645,195.1013 94.3805,189.2903 C89.3975,188.3613 84.4605,186.7963 79.4775,186.2133 C78.3575,184.8633 76.9145,185.3063 75.5195,185.4793 C73.8185,185.0883 72.1505,184.4293 70.4435,184.0183 C67.1775,182.5853 63.4705,182.9293 60.3395,181.6773 C53.1015,180.1953 45.1265,179.1223 38.2375,176.9053 C41.1745,175.8063 44.8435,177.7073 48.0045,177.7693 C52.3165,178.5553 56.9215,178.3193 60.9585,180.0373 C61.0635,180.1123 61.2375,180.2413 61.2985,180.2063 C62.9125,179.2793 64.4775,180.2443 65.8165,180.7093 C70.9025,182.1273 76.3505,182.3493 80.8725,185.1873 C99.0525,185.8293 115.1975,196.2653 132.1025,201.3273" id="Fill-85" fill="#000"/>
                        <path d="M116.5092,290.7775 C114.7642,289.6845 113.1252,288.3685 111.0222,288.5075 C109.0722,286.8725 106.8762,285.9115 104.5322,285.1695 C101.3052,284.8885 100.0522,281.4895 96.9392,281.2665 C94.1992,280.6925 92.9312,278.1795 90.2802,277.1975 C86.6002,275.0235 83.2742,272.1285 79.8182,269.7285 C76.0182,267.0135 71.9572,265.1765 68.8512,261.7105 C66.6182,261.0075 66.0622,258.3765 63.8362,257.4935 C62.7132,256.7825 61.1312,256.7185 60.8542,254.9075 C56.8552,252.0005 53.4622,247.8435 49.3872,244.9535 C46.2572,240.9375 41.3722,238.5475 37.8782,234.7955 C32.0182,228.2455 24.0202,223.9315 17.1602,218.4365 C28.2872,222.2915 36.5172,231.6035 45.8032,238.3535 C50.7682,243.7095 57.2812,247.3705 62.0582,252.8355 C62.2512,253.0595 62.4352,253.4465 62.6542,253.4695 C64.5612,253.6765 65.2752,255.3165 66.3962,256.4695 C71.1192,258.9925 74.5642,263.6945 79.5182,265.9175 C81.3362,266.0515 80.7502,268.7285 82.5362,268.4915 C83.3602,268.3785 83.7212,268.8745 84.2112,269.5255 C86.3392,272.6505 91.2422,272.6555 93.2832,276.1065 C101.1062,279.6565 108.4982,285.0435 116.8192,287.8165 C116.7162,288.8035 116.6132,289.7905 116.5092,290.7775" id="Fill-87" fill="#000"/>
                        <path d="M259.0766,201.2745 C255.4076,207.8435 254.3746,215.2855 253.5946,222.6165 C251.1946,232.5695 252.3246,243.4615 253.8526,253.1015 C247.0966,244.5175 251.3956,226.4105 252.0336,215.7325 C253.3106,208.0205 255.0296,199.4625 260.2936,193.7105 C260.5136,191.5805 262.5276,190.4245 263.1556,188.4385 C266.0376,184.6265 268.8426,181.3085 272.7766,178.7125 C273.4226,178.9635 274.0686,179.2155 274.7136,179.4685 C270.9306,185.4715 264.5066,190.7745 260.9596,197.4155 C259.7046,198.5185 256.3196,199.8585 259.0766,201.2745" id="Fill-89" fill="#000"/>
                        <path d="M280.0981,180.8009 C285.8141,179.3719 284.3201,183.6279 284.4371,187.5339 C283.2581,190.9159 279.1971,192.5829 276.7761,195.1289 C275.0151,196.7459 272.4191,195.8639 270.2421,196.0649 C270.6641,192.1949 273.6521,188.3629 276.0591,185.3739 C276.7561,184.8299 277.3201,184.2079 277.5531,183.3329 C277.9471,182.1269 279.4811,181.9029 280.0981,180.8009" id="Fill-91" fill="#FDE9D6"/>
                        <path d="M260.9589,197.4142 C264.0619,190.5642 270.2269,185.3062 274.7139,179.4692 C275.6809,179.7812 276.8399,179.7282 277.3739,180.8632 C274.2859,185.9072 270.0279,190.6562 267.8219,196.1632 C265.5239,196.5332 263.1719,196.6542 260.9589,197.4142" id="Fill-93" fill="#FDE9D6"/>
                        <path d="M267.5956,202.6095 C262.2986,215.3525 263.1016,229.9205 264.8146,243.3695 C259.7346,235.6535 261.7146,211.1865 264.8436,202.1275 C265.7616,202.2885 266.6786,202.4485 267.5956,202.6095" id="Fill-95" fill="#000"/>
                        <path d="M267.8222,196.1632 C269.4142,190.3822 273.8202,185.4882 277.3742,180.8632 C278.2822,180.8432 279.1902,180.8212 280.0982,180.8012 C279.6442,182.5012 277.7252,182.5732 277.4882,184.3922 C274.2452,187.6322 271.7372,191.6852 270.2422,196.0642 C269.4352,196.0972 268.6292,196.1302 267.8222,196.1632" id="Fill-97" fill="#C1AE9C"/>
                        <path d="M225.6497,10.1974 C239.4097,12.3124 253.7917,12.0314 265.5997,20.6944 C270.5887,22.9264 265.1207,29.1314 268.1407,32.6304 C270.8017,38.0674 276.7537,34.0874 281.2507,33.7724 C285.6487,37.0974 310.7507,63.2704 302.2897,66.8974 C289.7427,74.2054 277.3877,81.9294 264.6227,88.8194 C262.7067,75.5124 258.6557,62.6124 253.9717,50.0324 C252.0797,44.6234 250.3777,39.1624 248.1407,33.9614 C248.8757,32.0114 249.1537,30.0704 248.4027,28.0244 C247.9337,26.5154 247.3287,25.1934 246.0727,24.1704 C245.3387,21.9674 245.4717,22.2594 243.4447,23.1204 C241.5047,21.1274 240.4607,17.9104 238.5447,16.2074 C239.1677,18.4054 240.8077,20.5294 241.3657,22.8904 C241.7737,24.3964 239.4457,25.0164 238.4427,25.5704 C236.0597,26.4884 235.3237,28.8254 233.7237,30.4614 C232.4427,31.3334 231.3557,32.3114 231.6497,34.1034 C231.7197,34.5324 231.3547,34.8394 231.0597,35.1274 C229.3597,36.6664 231.5627,38.2514 231.5387,40.0004 C232.3057,45.4134 237.8827,43.3234 241.4407,42.7734 C242.8287,40.9254 245.4337,40.4324 246.4987,38.2264 C246.7217,37.7644 246.9757,37.3224 247.6237,37.4944 C248.8637,38.5374 248.8047,40.7154 249.5417,42.1364 C250.1357,44.6914 251.7207,46.7884 251.9347,49.4124 C253.2627,54.0294 255.5307,58.3164 256.2077,63.0344 C267.9447,93.2594 263.5397,126.2134 259.8287,157.6494 C259.6777,160.0764 261.9197,163.3474 259.4557,165.1004 C258.1527,170.5944 255.7827,176.6274 249.3267,177.6204 C245.4877,179.5514 242.1727,176.4264 238.5367,175.3234 C233.7317,173.8354 228.6557,172.9534 223.9607,171.1974 C223.7757,167.5884 228.5187,166.5444 230.3737,164.2534 C231.2527,162.9514 233.4057,163.3564 233.7997,161.4954 C234.1407,159.3824 236.3287,158.0714 236.2257,155.9114 C236.9287,148.2564 242.9787,141.7664 243.7897,133.8354 C241.7557,139.2044 239.5047,144.9434 236.6397,149.9224 C229.3897,144.8724 225.4017,143.3334 218.9907,150.8264 C217.5957,151.2074 216.7707,152.1394 216.3007,153.4634 C215.3577,155.0914 213.7887,156.3274 213.2627,158.2384 C212.2977,160.1414 214.1697,161.5514 214.0667,163.4194 C214.2317,166.0444 218.7247,166.8804 220.9707,166.7464 C221.5627,166.6154 222.1857,167.0254 222.7147,167.3964 C222.8977,168.6794 222.2267,169.7944 220.8667,170.4674 C215.6407,168.3864 193.299866,180.4115 186.398866,178.7125 C181.206866,175.0805 144.813543,171.1174 140.802543,165.1004 C131.765543,142.9524 126.1127,118.0704 120.8607,94.7924 C134.0547,95.6664 134.2007,103.6034 136.1567,86.8624 C137.4287,65.1384 145.2637,41.0064 133.2347,21.1254 C136.1007,19.0824 140.7607,21.5454 143.8577,19.6474 C145.7247,18.5214 148.0947,17.9374 148.8147,15.3794 C149.0837,14.4214 150.1307,13.9204 150.8007,13.1924 C152.2807,11.9454 152.0427,9.4904 154.0497,8.7964 C157.9287,16.3404 163.8447,22.9574 171.5367,26.7294 C169.3717,29.1014 165.6547,29.5974 164.0667,33.0084 C161.0677,37.0194 159.8227,45.0994 166.2757,46.2934 C170.6097,46.8644 174.3187,45.4604 177.7647,43.1284 C179.6127,42.4774 179.4037,40.1194 181.0347,39.3164 C184.7827,37.5504 182.8787,33.2624 184.5587,30.2824 C190.1487,30.6844 195.4017,29.4974 200.3637,26.9354 C201.2647,27.6674 199.3267,28.7484 200.1967,29.7054 C203.2667,37.0284 213.6467,34.1704 216.3317,28.4964 C216.4667,25.8944 219.8007,26.4714 220.2847,22.9454 C220.6817,21.5034 221.6877,19.7184 220.6527,18.4284 C220.1777,14.4894 216.4637,14.1734 214.1577,12.3204 C215.7617,4.9974 220.7387,10.0434 225.6497,10.1974 Z" id="Fill-101" fill="#476240"/>
                        <path d="M119.1855,93.7199 C116.1055,93.2659 113.0325,92.7649 109.9485,92.3439 C109.3165,91.5259 109.9865,90.5999 109.7205,89.7149 C108.4375,87.0929 108.2535,82.7639 105.1235,81.7469 C100.2675,77.5759 95.4385,86.1249 92.2315,89.3499 C84.8115,88.1279 75.4365,87.3149 69.2605,84.0039 C71.2605,71.4219 74.0945,58.9279 78.0575,46.8199 C78.8815,47.0279 78.7085,47.7339 78.6735,48.2539 C78.7875,51.0529 80.8355,55.2899 83.9345,55.0349 C86.5995,54.9079 88.4935,52.8919 90.9625,52.3669 C95.9225,50.8829 100.9745,46.9469 102.1005,41.7059 C104.8215,36.6059 101.8615,28.0849 95.2355,29.8049 C88.6695,31.8949 84.3955,37.5229 80.5285,42.8639 C80.2985,43.2389 79.9215,43.4159 79.4855,43.0989 C85.4365,30.3419 92.6495,15.1319 106.8865,10.2659 C112.4045,7.7169 118.0655,9.5199 123.7165,8.9989 C127.5015,7.9479 131.2635,6.8109 135.0335,5.7039 C134.6025,7.2719 134.5195,9.0479 132.5595,9.6759 C132.2135,9.7859 131.8945,10.0739 131.8185,10.4269 C131.4315,12.2029 130.0825,13.7249 130.4455,15.7069 C130.5375,16.0639 130.5075,17.4309 129.8535,17.2109 C127.0005,14.1939 122.7015,11.1449 118.7635,10.6119 C132.5065,16.6259 137.3495,32.1289 138.3975,46.0039 C138.4775,48.8289 139.0185,51.8669 138.6045,54.5609 C137.0225,55.2289 136.0155,52.9259 134.3105,53.5859 C130.5895,53.4309 123.9285,56.3389 122.3485,59.8749 C119.9945,61.0669 120.6875,64.2049 118.6645,65.6249 C118.2585,65.9109 118.1955,66.5019 118.2595,67.0139 C117.1235,71.5739 121.9685,76.7069 126.7425,75.4659 C129.1735,74.9519 131.5695,74.3369 133.7775,73.1229 C134.4325,72.7629 135.1565,72.0879 135.9905,72.8679 C135.8315,79.7609 134.3835,86.8239 133.7755,93.7349 C133.5005,95.5159 133.1625,95.8349 131.4655,95.4409 C127.3915,94.6489 123.1965,94.3529 119.1855,93.7199" id="Fill-103" fill="#476240"/>
                        <path d="M79.4853,43.0988 C84.8733,37.4058 95.7873,21.2458 102.8933,33.6548 C104.8083,37.9708 102.0073,46.8698 97.3853,48.9038 C95.2913,50.8188 93.1603,52.6938 90.1523,52.8998 C87.2973,54.3938 82.6983,57.4608 80.3963,53.6018 C78.7743,51.4938 78.3343,49.3308 78.0573,46.8198 C78.5333,45.5788 79.0093,44.3388 79.4853,43.0988" id="Fill-105" fill="#6E8169"/>
                        <path d="M184.559,30.2824 C183.84,37.6554 184.277,36.3854 179.718,41.7454 C179.107,42.9714 176.99,43.8824 175.691,44.5274 C173.465,47.1104 169.351,46.6744 166.287,46.6244 C162.499,46.6324 161.074,42.0404 161.14,38.8814 C162.238,33.2454 166.357,29.0434 171.537,26.7294 C175.578,28.7954 180.025,30.1434 184.559,30.2824" id="Fill-107" fill="#6E8169"/>
                        <g id="Group-111" transform="translate(130.000000, 0.228000)">
                            <mask id="sitting-lowerplaying-2-mask-6" fill="#fff">
                                <use xlink:href="#sitting-lowerplaying-2-path-5"/>
                            </mask>
                            <g id="Clip-110"/>
                            <path d="M0.037,16.9958 C0.198,14.0168 0.288,9.6138 3.628,8.4428 C4.205,7.7168 4.542,6.3588 5.033,5.4758 C9.92,3.8688 14.841,2.3628 19.733,0.7718 C22.677,0.9528 22.532,6.3868 24.049,8.5678 C17.485,19.3318 15.849,20.6658 3.317,20.8288 C1.742,19.9628 0.964,18.4158 0.037,16.9958" id="Fill-109" fill="#6E8169" mask="url(#sitting-lowerplaying-2-mask-6)"/>
                        </g>
                        <path d="M214.1577,12.3204 C216.2617,12.9554 218.8707,14.0884 220.0967,15.8774 C220.5887,17.8044 222.2707,19.5254 221.0127,21.7874 C220.1947,23.2834 220.3667,25.6384 218.5107,26.3884 C215.5207,27.5204 217.9897,29.5814 213.4047,32.4014 C210.8407,34.0344 207.0177,35.1634 204.0767,34.1324 C201.5257,32.7914 198.3687,29.9194 200.3637,26.9354 C206.3767,23.5494 211.1607,18.5484 214.1577,12.3204" id="Fill-112" fill="#6E8169"/>
                        <path d="M130.037,17.2238 C146.304,34.2718 138.884,59.9608 136.918,80.9538 C137.266,85.1908 135.834,89.1488 135.514,93.3698 C134.954,94.6488 135.785,97.6388 134.063,97.7698 C129.512,97.4658 125.317,95.5698 120.861,94.7918 C120.751,93.7348 119.785,94.0138 119.185,93.7198 C139.402,94.1598 131.111,101.6768 135.825,72.7288 C135.404,62.6718 140.567,52.5978 137.54,42.4168 C137.484,42.1558 137.232,41.8378 137.314,41.6608 C138.198,39.7588 136.603,38.1338 136.753,36.3008 C136.789,34.2638 134.751,32.6808 135.03,30.4348 C132.482,22.2438 126.529,13.5888 118.126,11.1408 C117.658,7.3228 129.543,15.5998 130.037,17.2238" id="Fill-114" fill="#B0C3AB"/>
                        <path d="M248.3647,33.7843 C256.9737,57.4543 268.4567,82.9603 263.8567,108.3883 C262.5057,98.3873 263.1207,88.3803 260.7607,78.5153 C259.5437,72.4823 256.3387,66.7193 255.5907,60.7343 C250.9757,45.2203 243.4297,30.5583 238.2437,15.4663 C242.9907,20.5223 246.0017,27.5423 248.3647,33.7843" id="Fill-116" fill="#B0C3AB"/>
                        <path d="M92.2319,89.3497 C93.9939,85.2737 97.8399,82.4087 101.5069,80.1717 C103.0249,79.0657 104.4869,81.2367 105.9439,81.6127 C108.7519,83.9267 110.3779,88.7187 109.9489,92.3437 C104.0319,91.4097 98.1199,90.4537 92.2319,89.3497" id="Fill-118" fill="#6E8169"/>
                        <path d="M184.0453,174.5616 C184.7493,175.3426 185.4533,176.1246 186.1563,176.9066 C183.2903,175.6296 178.5663,176.1726 176.7443,173.5626 C176.5363,172.6106 175.9743,171.9576 175.3083,171.3286 C174.4823,170.5476 173.7133,169.7276 173.4113,168.5726 C172.7173,167.1776 170.6723,166.3276 171.5173,164.4216 C171.3663,163.6456 171.0713,162.9936 170.3073,162.5876 C169.0353,161.3856 169.2183,159.1706 168.6803,157.5716 C165.7033,150.7726 163.0683,143.2296 163.4083,135.9256 C165.6863,139.8136 166.3833,144.9246 168.1903,149.2586 C168.6583,150.7066 169.9443,151.9356 169.3723,153.6776 C170.4503,156.4116 172.5963,158.9316 173.4063,161.7786 C175.5603,164.2236 176.6433,167.4996 179.5643,169.3446 C180.8823,171.1316 183.4803,172.0916 184.0453,174.5616" id="Fill-120" fill="#B0C3AB"/>
                        <path d="M281.2504,33.7726 C278.2794,34.7816 270.4904,37.8706 268.7334,34.1336 C265.3754,30.8766 267.5074,26.4476 267.7334,22.3626 C272.2634,26.0716 277.4104,29.4006 281.2504,33.7726" id="Fill-122" fill="#6E8169"/>
                        <path d="M236.6264,149.8107 C239.3894,144.2557 241.6094,138.4117 243.9714,132.7487 C242.3344,144.4427 235.9674,156.2507 228.7604,165.5587 C228.1184,165.8177 227.7694,166.5447 227.3774,166.9377 C225.6274,167.7297 224.5834,169.5427 223.9604,171.1977 C222.8644,171.2297 221.6454,171.7857 220.8664,170.4677 C222.2674,167.9787 224.0014,165.8707 226.1694,164.0677 C229.9324,159.5737 232.7744,154.0867 236.6264,149.8107" id="Fill-124" fill="#B0C3AB"/>
                        <path d="M171.517,164.422 C171.448,166.211 172.641,167.021 173.687,168.234 C174.538,170.314 176.634,171.473 177.131,173.689 C177.155,174.084 177.719,174.445 178.036,174.822 C174.071,174.772 169.709,172.935 165.705,172.054 C167.803,169.516 168.203,165.716 171.517,164.422" id="Fill-126" fill="#6E8169"/>
                        <path d="M263.8564,108.3878 C264.0294,107.8508 264.2024,107.3148 264.3744,106.7778 C264.2964,111.3268 263.8934,115.8588 263.5364,120.3928 C262.7524,116.4978 262.8194,112.1748 263.8564,108.3878" id="Fill-128" fill="#B85867"/>
                        <path d="M264.5781,103.4962 C264.6041,102.2292 264.6301,100.9632 264.6561,99.6962 C264.6301,100.9632 264.6041,102.2292 264.5781,103.4962" id="Fill-130" fill="#B85867"/>
                        <path d="M264.6552,92.9034 C264.6352,92.1794 264.6142,91.4564 264.5942,90.7334 C264.6142,91.4564 264.6352,92.1794 264.6552,92.9034" id="Fill-132" fill="#B85867"/>
                        <path d="M163.6078,95.2921 C158.7718,93.7491 154.8728,94.3301 155.0458,87.7831 C155.1558,83.9631 156.5978,81.0181 158.8758,78.0641 C160.2538,75.3721 162.1608,73.3541 164.7168,71.8451 C165.5398,70.8581 166.3328,69.9511 167.8318,69.9751 C169.8268,69.6551 171.5078,67.9071 173.0698,66.6971 C174.9218,65.1741 178.1738,66.7691 179.7728,67.9661 C181.8118,72.1881 181.0528,78.0741 178.5768,81.8771 C176.9798,88.2361 169.4898,93.6301 163.6078,95.2921" id="Fill-134" fill="#6E8169"/>
                        <path d="M236.3808,73.8126 C234.6688,79.2326 233.0328,84.4876 229.1448,88.5976 C227.3138,89.7176 224.9698,90.0376 223.3398,91.5926 C219.6038,93.5096 214.4388,90.4386 212.8788,86.9956 C210.6988,83.4536 213.1358,80.4466 214.5058,77.5356 C214.9338,74.6426 217.9168,73.6696 219.1878,71.3586 C219.6728,70.4776 221.0528,70.0876 222.0268,69.4766 C223.2328,68.6706 224.1488,67.5846 225.6668,67.2866 C227.9168,66.1546 229.7458,68.0966 232.0288,68.4636 C233.3758,68.9526 234.6108,69.5366 234.7548,71.2706 C235.1028,72.0186 236.1028,72.9956 236.3808,73.8126" id="Fill-136" fill="#6E8169"/>
                        <path d="M155.7661,121.0255 C159.4831,121.2835 161.3361,126.2085 162.4531,129.2755 C162.5031,132.5495 161.1511,135.5685 160.1001,138.6015 C160.1751,140.5395 158.1011,140.6475 157.1941,141.9385 C156.3011,143.1875 155.2181,144.0125 153.6101,143.9705 C153.4071,143.9645 153.0831,143.9635 153.0161,144.0785 C152.2971,145.3185 151.0151,145.5515 149.8341,145.5755 C147.5161,145.4055 144.4241,145.9815 143.3711,143.3115 C143.0831,140.8535 140.3661,139.1155 140.8631,136.6555 C140.7971,129.5735 147.9931,120.1915 155.7661,121.0255" id="Fill-138" fill="#6E8169"/>
                        <path d="M286.351,53.3283 C285.873,54.8303 284.382,55.5833 284.494,57.1573 C284.132,58.7583 282.987,60.6543 281.361,61.4403 C279.946,64.0573 277.861,65.5483 275.222,66.7253 C274.199,67.2593 273.593,68.3183 272.295,68.1613 C267.898,71.1573 258.923,62.1573 263.185,58.4983 C265.435,55.6723 266.435,51.0893 270.262,49.3493 C270.45,49.2403 270.79,49.2263 270.846,49.0853 C271.487,47.4573 272.891,47.7493 274.186,47.6633 C277.127,46.9183 283.936,45.0473 284.481,49.4983 C284.581,51.0653 285.88,51.8093 286.351,53.3283" id="Fill-140" fill="#6E8169"/>
                        <path d="M205.5331,114.9454 C205.6071,115.8064 205.4511,116.6914 204.5811,117.3604 C204.1921,118.4914 205.1911,119.7874 204.3161,120.9674 C202.9281,123.2994 202.9191,126.8274 200.2531,128.1234 C198.5691,128.8554 197.4691,131.2374 195.8541,131.7934 C193.1971,132.9324 190.7571,131.2134 188.1111,130.7914 C184.2771,130.7044 186.2951,127.9794 184.9921,126.0964 C181.8871,121.0294 187.2941,114.2634 191.9111,111.8094 C195.9161,109.9564 205.3221,108.4954 205.5331,114.9454" id="Fill-142" fill="#6E8169"/>
                        <path d="M236.6264,149.8107 C232.3634,155.9857 229.0624,163.0747 222.7394,167.5797 C218.9684,166.8467 213.4014,166.9487 213.4274,161.8477 C210.7554,157.9127 215.5104,154.7717 217.0014,151.5437 C221.0854,149.4197 224.1534,143.1677 229.5594,145.7857 C232.2494,146.5197 234.6574,147.7077 236.6264,149.8107" id="Fill-144" fill="#6E8169"/>
                        <path d="M251.4648,124.1456 C245.9738,125.9386 240.0438,118.4986 242.5158,113.4636 C242.2148,109.9006 245.7428,108.2206 247.2078,105.3976 C247.9408,103.5276 250.3458,104.8126 250.8938,103.0416 C250.8418,101.4416 259.2988,99.6716 259.9608,101.1536 C262.1248,102.8826 261.5198,106.3156 259.2558,107.7546 C258.4948,109.5336 258.0818,111.9076 257.9048,113.8386 C259.1308,116.1846 255.5338,117.5336 256.7978,118.6016 C258.7918,120.3106 256.7098,121.7726 255.0628,122.4476 C254.3628,123.9586 253.2168,124.4816 251.4648,124.1456" id="Fill-146" fill="#6E8169"/>
                        <path d="M241.2729,23.6642 C243.5049,28.2312 245.8859,32.7302 247.4189,37.5982 C246.3899,38.7312 246.0949,40.3102 244.3579,40.7612 C242.8199,41.4002 242.1299,43.8902 240.0599,43.2792 C236.8019,44.5372 231.7659,44.9692 231.1119,39.8932 C230.3309,36.8752 229.1419,36.8012 231.3409,33.9302 C230.5559,31.0432 234.3679,30.4052 235.1119,28.0372 C236.5209,25.5902 239.1409,25.0382 241.2729,23.6642" id="Fill-148" fill="#6E8169"/>
                        <path d="M184.0453,174.5616 C183.2863,173.3506 182.6843,172.1666 181.0483,171.9426 C181.0763,170.0056 179.0813,169.8126 178.1943,168.6576 C177.6083,167.8936 176.7833,167.3126 176.0643,166.6516 C176.0003,164.6216 173.7243,163.7046 173.4063,161.7786 C175.4443,158.9456 178.6113,159.4486 181.6213,158.7886 C186.3263,158.5826 185.4733,164.9416 186.3303,168.1206 C186.7863,170.5016 184.8483,172.4436 184.0453,174.5616" id="Fill-150" fill="#6E8169"/>
                        <path d="M248.3647,33.7843 C246.2157,30.4053 245.1857,26.5003 243.4397,22.9583 C244.6477,22.2843 246.3387,21.3763 246.1367,23.5923 C247.0377,25.2453 248.9057,26.8163 249.1077,28.8113 C248.8827,30.3373 249.4467,32.7303 248.3647,33.7843" id="Fill-152" fill="#6E8169"/>
                        <path d="M227.9638,166.0743 C230.9128,161.7943 234.3928,157.9293 236.5818,153.2173 C237.2398,157.3493 235.1878,158.3893 234.0808,161.8303 C233.6048,163.6063 231.4988,163.4113 230.5168,164.6983 C229.8718,165.6223 229.1618,166.2533 227.9638,166.0743" id="Fill-154" fill="#6E8169"/>
                        <path d="M138.4745,54.5675 C137.8285,60.6665 136.6035,66.6865 135.8245,72.7295 C131.1045,74.4355 124.3915,78.6505 120.2595,73.8015 C117.7265,71.0355 116.4455,68.3485 118.8135,64.8835 C120.6255,63.7865 119.3545,61.3025 121.3025,60.3705 C121.6965,60.0835 122.1235,59.4205 122.2115,58.9375 C126.2655,55.1365 133.0605,51.0875 138.4745,54.5675" id="Fill-156" fill="#6E8169"/>
                        <path d="M232.7626,207.9767 L231.1266,207.9767 C224.6116,206.3607 217.1016,206.2287 211.4386,201.6757 C207.9786,197.3827 209.6396,188.4777 214.1856,185.2447 C214.9256,184.5727 215.6346,184.9597 215.9116,185.8037 C217.1806,187.8617 220.4936,187.9227 221.8116,185.9067 C223.1926,184.5847 221.2496,183.0037 222.2466,181.7297 C228.0736,180.8117 233.8956,184.8167 239.8336,182.2937 C245.0636,179.4167 241.3376,183.0787 244.2486,183.8047 C246.4636,184.5437 250.4776,181.6767 248.5206,179.4117 C246.9096,177.7957 246.0876,179.6427 244.5916,179.5097 C240.9466,176.3757 235.4216,176.7687 231.0426,175.0857 C221.5516,174.7567 234.2206,169.1327 237.6266,170.4577 C243.9296,170.4607 253.4266,178.5567 257.6296,170.8127 C258.8926,166.5807 264.4796,161.7457 268.7826,164.0357 C271.1586,167.3987 262.2866,171.9587 267.7076,174.0857 C270.5086,175.3637 272.0276,172.6127 274.3536,172.0447 C276.2836,174.2897 278.8426,174.4567 280.5016,171.7827 C288.6666,171.4327 287.8766,180.7427 288.3696,186.3087 L288.3696,187.1217 C286.0006,195.0867 276.0716,197.7447 268.5596,198.4877 C255.6326,198.5267 245.5956,208.7967 232.7626,207.9767" id="Fill-158" fill="#7D7D7D"/>
                        <path d="M226.7172,197.1574 C224.6442,197.2694 208.1432,193.8934 212.4272,191.2554 C228.9332,201.1804 244.9072,187.5364 261.3702,186.0224 C269.2962,184.8614 279.8652,185.3234 284.8002,177.8924 C285.4322,176.0934 287.5212,177.2784 286.5012,178.8914 C280.5702,189.0514 265.9552,187.0324 255.8502,189.0394 C245.9522,191.1554 237.3122,197.4784 226.7642,196.8804 C226.7492,196.9724 226.7332,197.0644 226.7172,197.1574" id="Fill-160" fill="#332420"/>
                        <path d="M244.267,180.0265 C244.346,179.7925 244.629,179.7285 244.754,179.5215 L244.738,179.5355 C245.975,177.2345 250.039,178.3195 249.531,180.9795 C249.532,184.4385 240.754,186.4235 242.85,181.4275 L242.837,181.4365 C242.945,181.3555 243.027,181.2455 243.138,181.1675 L243.121,181.1795 C243.36,180.9385 243.723,180.8535 243.921,180.5595 L243.881,180.6085 C244.125,180.4905 244.054,180.1655 244.267,180.0265" id="Fill-162" fill="#17B9BA"/>
                        <path d="M273.2885,182.7531 C268.8675,182.4521 269.3985,177.3031 273.3765,176.5521 C278.1495,176.5861 279.1975,182.5741 273.2885,182.7531" id="Fill-164" fill="#332420"/>
                        <path d="M218.3217,183.3409 C219.5737,182.9109 220.8257,182.4809 222.0777,182.0499 C225.7787,187.2739 215.9047,190.5699 215.3267,184.9549 L215.3077,184.9579 C216.5207,184.8029 217.3327,183.9099 218.3217,183.3409" id="Fill-166" fill="#F88395"/>
                        <path d="M261.0078,179.1603 C253.3478,177.9483 259.3008,170.8353 264.1858,173.6453 C266.8918,175.6163 263.8728,179.2063 261.0078,179.1603" id="Fill-168" fill="#332420"/>
                        <path d="M233.6078,190.6603 C227.4318,190.1403 233.0948,183.1983 236.6318,186.5093 C238.9198,188.3303 235.6488,190.7953 233.6078,190.6603" id="Fill-170" fill="#F99A3C"/>
                        <path d="M274.4247,172.1808 C274.7077,171.9938 274.9907,171.8048 275.2737,171.6178 C277.0277,172.0978 278.9567,171.0678 280.5337,171.8598 L280.5517,171.8918 C280.4777,174.9208 274.9247,175.2298 274.4247,172.1808" id="Fill-172" fill="#352723"/>
                        <path d="M280.5341,171.8595 C278.6871,171.8095 276.8921,172.9885 275.2741,171.6175 C276.0881,170.1815 279.4051,171.0145 280.5341,171.8595" id="Fill-174" fill="#858484"/>
                        <path d="M218.3217,183.3409 C217.6327,184.6429 216.9097,185.8679 215.3077,184.9579 C216.3127,184.4189 217.3167,183.8799 218.3217,183.3409" id="Fill-176" fill="#928687"/>
                        <path d="M243.9208,180.5597 C243.6538,180.7667 243.3868,180.9727 243.1208,181.1797 C243.3868,180.9727 243.6538,180.7667 243.9208,180.5597" id="Fill-178" fill="#7D7D7D"/>
                        <path d="M244.267,180.0265 C244.139,180.2205 244.01,180.4155 243.881,180.6085 C244.01,180.4155 244.139,180.2205 244.267,180.0265" id="Fill-180" fill="#7D7D7D"/>
                        <path d="M244.7543,179.5216 C244.6313,179.6306 244.5083,179.7396 244.3853,179.8486 C244.5083,179.7396 244.6313,179.6306 244.7543,179.5216" id="Fill-182" fill="#7D7D7D"/>
                        <path d="M243.1376,181.1671 L242.8376,181.4371 L243.1376,181.1671 Z" id="Fill-184" fill="#7D7D7D"/>
                        <path d="M273.6298,181.0236 C273.0218,180.4846 272.5828,180.0966 272.1448,179.7086 C273.3238,177.6786 274.1638,178.4276 275.5378,179.6456 C274.9758,180.0516 274.4138,180.4576 273.6298,181.0236" id="Fill-186" fill="#767474"/>
                        <path d="M261.0078,177.1105 C260.4278,176.7045 259.8698,176.3115 259.3108,175.9205 C261.6138,172.2295 266.0738,175.8365 261.0078,177.1105" id="Fill-188" fill="#777676"/>
                    </g>
                </g>
            </g>
        </g>
        <g id="Head" transform="translate(319.000000, 306.000000) scale(1 1)">
            <defs>
                <polygon id="headred-hair-path-1" points="0.4156 0.3131 1.4156 0.3131 1.4156 1 0.4156 1"/>
            </defs>
            <g id="Head/Red Hair" stroke="none" stroke-width="1" fill="none" fill-rule="evenodd">
                <g id="Hair" transform="translate(23.000000, 74.000000)">
                    <g id="Group-41" transform="translate(35.000000, 15.000000)">
                        <path d="M60.6017,107.6598 C60.5307,107.1668 60.4597,106.6748 60.3897,106.1818 C60.6067,106.1558 60.8247,106.1288 61.0427,106.1018 C60.8957,106.6208 60.7487,107.1408 60.6017,107.6598" id="Fill-3" fill="#9A5B56"/>
                        <path d="M63.4405,104.5373 C63.1675,104.8903 62.8955,105.2433 62.6225,105.5953 C55.3115,109.1053 40.7145,107.9523 36.4955,101.7743 C40.5655,101.7753 44.8295,103.6943 48.9845,104.2423 C53.7755,105.8683 58.8795,103.1883 63.4405,104.5373" id="Fill-5" fill="#3E2C26"/>
                        <g id="Group-11" transform="translate(51.000000, 106.660000)">
                            <mask id="headred-hair-mask-2" fill="#fff">
                                <use xlink:href="#headred-hair-path-1"/>
                            </mask>
                            <g id="Clip-10"/>
                            <path d="M0.4396,0.7811 C0.7566,0.8021 1.0736,0.8241 1.3916,0.8451 C1.0736,0.8241 0.7566,0.8021 0.4396,0.7811" id="Fill-9" fill="#815747" mask="url(#headred-hair-mask-2)"/>
                        </g>
                        <path d="M88.6632,53.2453 C88.6632,82.1033 73.4412,85.0333 49.9682,79.2543 C28.1632,73.8863 1.4722,82.1033 1.4722,53.2453 C1.4722,24.3873 20.9912,0.9933 45.0682,0.9933 C69.1452,0.9933 88.6632,24.3873 88.6632,53.2453" id="Fill-12" fill="#B87D67"/>
                        <path d="M36.461,101.862 C34.016,100.198 30.579,99.534 28.392,97.325 C14.278,83.068 16.654,77.664 9.79,75.145 C2.016,72.291 -1.295,60.254 1.472,52.735 C6.353,42.696 11.377,57.155 13.281,50.682 C16.208,-14.616 97.369,-2.406 87.895,60.73 C75.846,59.314 68.714,72.908 80.716,78.892 C81.532,79.191 82.914,78.867 82.865,80.432 C76.832,101.587 56.475,111.353 36.461,101.862" id="Fill-14" fill="#B87D67"/>
                        <path d="M82.8653,80.4323 C68.0773,77.1333 73.6253,56.6163 87.8943,60.7303 C87.7203,67.5343 86.1863,74.4643 82.8653,80.4323" id="Fill-16" fill="#B8664E"/>
                        <path d="M34.6656,80.8044 C20.0346,81.2294 22.1466,59.7604 34.3806,60.2194 C47.9706,59.8734 49.0166,81.0854 34.6656,80.8044" id="Fill-18" fill="#B8664E"/>
                    </g>
                    <g id="Group-29">
                        <path d="M53.055593,7.268517 C49.8450646,7.266136 48.2398004,9.12580459 48.2398004,12.8475228 C48.2398004,18.4301 37.3538836,47.652686 31.8139909,56.3434084 C26.2740982,65.0341309 19.1649934,90.448978 22.7195458,105.775389 C25.0892474,115.992996 25.0892474,133.466897 22.7195458,158.19709 L26.2740982,223.022865 L31.8139909,223.022865 L46.8832131,202.883672 L40,149.801041 L40.9948,130.971996 L42.5145,109.71268 L35,77.3679711 L35,67.0781844 L40,62.0158449 L44.2344411,67.0781844 L50.8264888,48.9646066 L59.7347218,24.2187171 L86.9156,15 L53.055593,7.268517 Z" id="Path" fill="#ae6b28"/>
                        <g id="Group-3" transform="translate(0.000000, 8.760000)" fill="#fd9b3a">
                            <path d="M26.2947,215.3699 C26.3347,215.1699 26.3747,214.9799 26.4247,214.7899 C20.8947,215.1899 15.9247,215.7299 12.2547,216.1799 C-9.4853,184.2499 0.7337,179.7499 19.3647,149.9399 C26.0647,132.9999 -0.8463,119.3399 10.9347,102.8699 C29.6247,75.0199 11.3847,32.5099 39.2147,7.2099 C43.4447,1.8799 48.3847,0.5799 53.6347,0.9899 C59.7337,1.4399 66.2547,4.1899 72.5737,5.5499 C74.9147,6.4899 69.3647,6.7799 68.7247,7.2399 C49.7047,12.6599 47.3747,31.7799 43.6447,48.4399 C43.0447,51.1199 42.4037,53.7399 41.6447,56.2199 C41.6447,56.2299 41.6447,56.2399 41.6347,56.2499 C41.5847,56.4499 41.5237,56.6399 41.4647,56.8399 C40.0547,59.1999 37.9147,60.8699 35.7947,62.5199 L35.7847,62.5299 C35.7847,62.5299 35.7737,62.5299 35.7737,62.5399 C35.1347,63.0299 34.4947,63.5299 33.8747,64.0399 C33.8747,64.0499 33.8647,64.0599 33.8547,64.0599 C32.0947,65.5299 30.5237,67.1399 29.6047,69.3399 C29.4147,69.7699 29.2547,70.2299 29.1347,70.7199 C29.1247,70.7599 29.1147,70.7999 29.0947,70.8499 C28.9037,71.6099 28.7847,72.4399 28.7547,73.3399 C28.4247,74.4399 28.2147,75.5099 28.0947,76.5599 L28.0947,76.5799 C27.7647,79.5999 28.2247,82.4399 29.0947,85.1899 C31.4547,92.6599 36.8547,99.4999 37.5947,107.6399 C37.5447,108.6299 37.4647,109.5899 37.3747,110.5099 C36.7737,116.4999 35.4147,121.1199 33.8047,125.0299 C32.6847,127.7699 31.4447,130.1499 30.2547,132.4199 C29.5237,133.8099 28.8237,135.1599 28.1847,136.5099 C28.1847,136.5199 28.1747,136.5299 28.1747,136.5399 C24.7047,143.8499 23.1247,151.3399 29.9947,167.3399 C30.1747,167.7499 30.3647,168.1599 30.5447,168.5799 C31.0237,169.6799 31.5547,170.8199 32.1247,171.9999 C32.1347,172.0199 32.1447,172.0399 32.1537,172.0599 C32.7947,173.3899 33.4837,174.7699 34.2337,176.2099 C38.0947,183.0599 39.1647,188.2799 38.7047,192.5799 C38.4247,195.3199 37.5147,197.6899 36.3047,199.8499 C33.3547,205.1399 28.6147,209.2399 26.8947,214.7599" id="Fill-1"/>
                        </g>
                        <g id="Group-6" transform="translate(40.000000, 0.760000)" fill="#fd9b3a">
                            <path d="M77.6648,228.7601 C75.0848,224.8501 72.2048,221.0901 71.5348,216.3801 C73.2048,200.1001 91.7048,186.4001 82.6248,168.9601 C79.1348,160.5201 70.3848,152.3701 74.4038,142.5001 C76.5638,133.6001 87.6848,128.3501 85.6538,118.3101 C86.3138,110.7601 78.8238,104.9401 80.6438,97.2101 C81.0238,96.4601 80.9674609,94.7180879 81.8874609,92.5880879 C82.8074609,90.4580879 83.6632,87.332377 83.6632,87.322377 C91.2142,59.142377 80.6148,15.7601 47.7948,17.8001 L47.7848,17.8001 C47.3848,17.8201 46.9838,17.8501 46.5738,17.8901 C46.3848,17.8401 46.1948,17.8001 46.0148,17.7601 C45.9148,17.7301 45.8138,17.7101 45.7148,17.6901 L45.6948,17.6901 C44.8748,17.5201 44.0738,17.3901 43.2848,17.3101 C43.2738,17.3001 43.2738,17.3001 43.2648,17.3001 C30.1148,15.9101 20.6648,26.5901 16.1038,38.8301 C15.5348,40.0101 15.0548,41.3301 14.6348,42.7501 C14.5848,42.9101 14.5448,43.0701 14.5048,43.2301 C14.0348,44.8701 13.6348,46.6301 13.2448,48.4401 C13.2248,48.5401 13.1948,48.6401 13.1848,48.7301 C13.1748,48.7801 13.1648,48.8301 13.1438,48.8801 C11.2948,57.4601 9.5048,66.8901 1.6248,69.0901 C1.6038,69.1001 1.5948,69.1101 1.5738,69.1101 C1.2048,69.2101 0.8238,69.2901 0.4348,69.3601 C0.9748,68.6101 1.4548,67.8401 1.8848,67.0501 L1.8938,67.0401 C7.2338,57.4001 5.4448,45.3201 10.0638,35.4001 C10.0638,35.3901 10.0738,35.3801 10.0738,35.3701 C10.1648,35.1701 10.2548,34.9801 10.3538,34.7801 C10.4038,34.6201 10.4748,34.4501 10.5348,34.2901 C10.5348,34.2801 10.5448,34.2801 10.5448,34.2701 C10.5548,34.2501 10.5638,34.2201 10.5738,34.2001 C10.5738,34.1901 10.5848,34.1801 10.5848,34.1701 C15.3938,21.4301 28.4348,12.8001 42.0948,15.4701 C32.0048,11.6201 20.9248,10.6701 10.8138,7.1501 C13.9838,3.0201 18.8748,0.6901 23.9448,0.2401 C61.0148,1.2201 91.3238,31.6701 90.1648,69.1301 C90.7648,84.5401 101.6948,98.9301 93.0148,114.2701 C86.6648,125.2201 83.9348,137.6101 94.4648,146.9101 C119.1748,170.2201 84.5738,181.7401 96.0048,205.8201 C99.2248,213.3301 103.2738,220.6801 103.9348,228.9801 C103.9838,229.3301 104.0238,229.6701 104.0548,230.0001 C95.1748,229.3501 85.2148,228.7701 77.9948,228.7601" id="Fill-4"/>
                        </g>
                        <path d="M28.2546,223.4302 C30.7946,216.4202 37.4836,211.3302 39.7946,204.2302 C39.8046,204.2102 39.8146,204.1902 39.8146,204.1702 C39.9346,203.8202 40.0346,203.4702 40.1246,203.1102 C40.1146,203.0002 40.1046,202.8802 40.0946,202.7702 L40.0946,202.7602 C39.7246,198.0902 38.3646,193.4102 36.6446,188.7302 C36.6346,188.7202 36.6346,188.7002 36.6246,188.6902 C34.2746,182.3302 31.2446,175.9702 29.0736,169.6202 C29.0646,169.6002 29.0646,169.5802 29.0546,169.5602 C26.2746,161.4402 24.9146,153.3402 28.1746,145.3002 C28.1746,145.2902 28.1846,145.2802 28.1846,145.2702 C28.7246,143.9102 29.4146,142.5402 30.2546,141.1802 C30.8236,140.2402 31.4646,139.3102 32.1846,138.3802 C34.5146,135.1602 36.1346,132.1802 37.1746,129.3802 L37.1746,129.3702 C39.1346,124.1302 39.1146,119.5302 38.1646,115.1802 C36.7246,108.6302 33.1646,102.6402 31.0346,95.8802 C31.0346,95.8702 31.0246,95.8602 31.0246,95.8502 C30.3646,93.7702 29.8446,91.6102 29.5546,89.3502 C29.5446,89.3202 29.5446,89.2902 29.5446,89.2602 L29.5446,89.2402 C29.3846,87.8902 29.3046,86.5102 29.3346,85.0802 C29.7146,81.2002 30.9546,75.8902 33.8546,72.8202 C33.8646,72.8202 33.8746,72.8102 33.8746,72.8002 C34.4446,72.2002 35.0736,71.7002 35.7746,71.3002 C35.7746,71.2902 35.7846,71.2902 35.7846,71.2902 L35.7946,71.2802 C36.5946,70.8302 37.4746,70.5202 38.4646,70.4102 C38.4746,70.4002 38.4746,70.4002 38.4836,70.4002 L38.4946,70.4002 C38.5246,70.4002 38.5446,70.3902 38.5736,70.3902 C37.2146,77.1202 36.4146,84.8302 41.6536,90.4602 C42.0346,90.9202 42.3146,91.4402 42.5246,92.0002 C43.5146,94.6302 43.0146,98.0902 45.0646,100.3802 C46.2246,102.3402 47.4836,104.2902 48.5446,106.3302 C48.8446,106.9202 49.1346,107.5202 49.3946,108.1202 C49.4036,108.1302 49.4036,108.1402 49.4036,108.1402 C50.4646,110.5802 51.1146,113.1602 50.8746,116.0102 C49.6146,119.9002 45.5546,122.9302 44.6846,127.2502 C37.7546,136.5102 59.6946,154.6102 60.6846,169.9602 C60.6946,170.1302 60.6946,170.3002 60.7046,170.4702 C60.7946,170.7002 60.8846,170.9302 60.9646,171.1602 C62.9346,176.5802 62.2946,181.7302 60.7546,186.7802 C60.3646,188.0902 59.9036,189.4002 59.4146,190.7102 L59.4146,190.7202 C56.2146,199.2602 51.7446,207.6202 54.5146,216.6302 C55.2336,219.1902 56.1846,221.7102 57.1746,224.2202" id="Fill-7" fill="#fd9b3a"/>
                        <path d="M108.1043,208.8501 C112.0663,200.4201 118.1743,194.0701 113.0743,184.3901 C109.0843,176.2501 100.8653,170.4401 98.6953,161.5501 C96.5243,153.7701 97.9553,146.8701 100.7143,140.3101 C101.7543,137.8101 102.9953,135.3601 104.2943,132.9301 C104.3143,132.8901 104.3443,132.8501 104.3653,132.8101 C107.1653,127.5901 110.2543,122.4501 112.3943,117.0801 C113.3343,113.6701 113.3443,110.1801 112.6343,106.6601 L112.6343,106.6501 C116.4043,99.9101 119.4243,92.9401 120.3143,85.1001 C127.0243,59.2901 111.8843,32.5601 86.6253,26.9101 C86.4453,26.8701 86.2543,26.8401 86.0743,26.8101 C65.5143,23.5501 66.6043,69.9301 45.4743,69.7701 C45.3843,69.7701 45.2943,69.7701 45.1953,69.7601 C45.1343,69.7701 45.0743,69.7601 45.0043,69.7601 C59.5243,55.8701 54.1153,25.2001 77.4153,18.8501 C79.8653,18.5601 82.2053,18.4301 84.4343,18.4301 C84.8543,18.4301 85.2853,18.4401 85.6953,18.4501 L85.7143,18.4501 C85.8543,18.4501 85.9953,18.4601 86.1253,18.4701 C86.6953,18.4801 87.2343,18.5101 87.7853,18.5601 L87.7943,18.5601 C90.5143,18.7501 93.0443,19.1601 95.4243,19.7901 C95.4643,19.8101 95.4953,19.8101 95.5353,19.8201 C98.0643,20.5001 100.4043,21.4101 102.5743,22.5401 C117.9843,30.5701 124.3753,49.5201 125.5843,71.4601 C126.177633,74.7467667 125.649533,79.7709583 124,86.532675 C121.989533,91.4179394 120.7343,95.0472383 120.2343,97.4205716 C119.4543,101.170572 119.0843,104.0201 121.0543,107.8201 C126.1443,115.5901 125.3043,121.3101 122.6153,126.6601 C121.1653,129.5601 119.1543,132.3501 117.2543,135.3001 C117.2343,135.3401 117.2053,135.3901 117.1653,135.4301 C115.0643,138.7101 113.1043,142.1801 112.1743,146.2201 C111.9553,153.5101 115.5443,159.6101 118.8043,165.7301 C118.9153,165.9201 119.0243,166.1201 119.1253,166.3101 C119.3043,166.6301 119.4743,166.9601 119.6443,167.2901 C119.8443,167.6701 120.0443,168.0501 120.2343,168.4301 C120.3653,168.6901 120.4843,168.9401 120.6153,169.2001 C124.0043,176.1401 126.0043,183.3801 120.7053,192.6401 C120.2243,193.3501 119.7643,194.0301 119.3243,194.7101 C119.3143,194.7201 119.3043,194.7301 119.3043,194.7501 C116.8943,198.4301 115.0743,201.6501 113.7243,204.5101 C113.7143,204.5201 113.7053,204.5401 113.7053,204.5501 C106.9843,218.8501 112.1743,223.9301 116.3243,229.5301 C116.1343,229.5301 115.9553,229.5301 115.7743,229.5401 C114.1343,229.5701 112.6843,229.6401 111.4953,229.7501 C102.2543,230.6501 100.1083,221.9561 108.1953,209.4601" id="Fill-11" fill="#fd9b3a"/>
                        <path d="M117.6648,229.5201 C117.2048,229.5201 116.7548,229.5201 116.3238,229.5301 C116.1348,229.5301 115.9548,229.5301 115.7738,229.5401 C114.7548,228.0501 113.5548,226.4801 112.1948,224.7801 C108.1538,217.4401 110.2848,210.9401 113.7048,204.5501 C113.7048,204.5401 113.7148,204.5201 113.7248,204.5101 C115.4648,201.2601 117.5348,198.0401 119.3048,194.7501 C119.3048,194.7301 119.3138,194.7201 119.3238,194.7101 C121.5348,190.5701 123.2548,186.3301 123.2048,181.7901 C123.7738,177.3001 122.4948,173.1801 120.6148,169.2001 C120.4838,168.9401 120.3648,168.6901 120.2338,168.4301 C120.0448,168.0501 119.8448,167.6701 119.6438,167.2901 C119.4748,166.9601 119.3048,166.6301 119.1248,166.3101 C119.0238,166.1201 118.9148,165.9201 118.8048,165.7301 C114.2548,157.4201 108.5738,149.4801 113.6848,139.8301 C114.9838,138.2701 116.1348,136.8101 117.1648,135.4301 C117.2048,135.3901 117.2338,135.3401 117.2548,135.3001 C119.7648,131.9401 121.4838,129.1101 122.6148,126.6601 C129.2148,112.4201 115.8138,111.4001 119.8048,96.5201 C119.9348,96.0301 120.0848,95.5301 120.2548,95.0101 C121.5638,91.8801 122.6038,88.8201 123.3648,85.7801 C126.0848,75.1001 125.5638,64.6701 122.5048,52.6601 C120.9148,41.4601 113.0638,28.4501 102.5738,22.5401 C100.3348,21.2801 97.9748,20.3501 95.5348,19.8201 C95.4948,19.8101 95.4648,19.8101 95.4248,19.7901 C91.9948,19.0701 88.3848,19.1601 84.7148,20.3001 C84.2338,20.4601 83.6538,20.4301 84.1248,19.6801 C79.4648,16.5701 69.6348,21.6601 66.2848,26.4401 C54.4948,37.7301 57.8748,59.1001 45.1948,69.7601 C45.1848,69.7801 45.1648,69.7901 45.1538,69.8001 C45.2648,69.7901 45.3748,69.7801 45.4748,69.7701 C67.8748,67.7501 63.9248,22.9301 87.6438,26.6001 C87.1038,26.6501 86.5848,26.7101 86.0738,26.8101 C82.6438,27.4001 79.8448,28.9701 77.4648,31.1601 C77.4648,31.1601 77.4648,31.1701 77.4548,31.1701 C74.6148,33.7901 72.3648,37.3101 70.3648,41.1801 C63.0448,55.3201 58.9748,74.0601 40.9948,70.1601 C41.1848,70.0701 41.3848,69.9801 41.5738,69.8701 C41.5948,69.8701 41.6038,69.8601 41.6248,69.8501 C48.8848,66.1001 51.1348,58.0601 53.1438,49.6401 C53.1648,49.5901 53.1748,49.5401 53.1848,49.4901 C53.1948,49.4001 53.2248,49.3001 53.2448,49.2001 C53.6538,47.4701 54.0638,45.7201 54.5048,43.9901 C54.5448,43.8301 54.5848,43.6701 54.6348,43.5101 C56.1038,37.8001 58.0048,32.3801 61.8448,28.4901 C66.0048,21.6701 74.9448,15.9601 83.2648,18.0601 C83.2738,18.0601 83.2738,18.0601 83.2848,18.0701 C83.6348,18.1601 83.9838,18.2601 84.3348,18.3801 C84.3648,18.4001 84.4038,18.4201 84.4348,18.4301 C85.0448,18.7901 85.5448,18.7301 86.0148,18.5201 C86.0548,18.5001 86.0948,18.4901 86.1248,18.4701 C86.9248,18.0701 87.6538,17.2701 88.6748,17.2601 C117.7848,18.5201 127.8238,51.4801 126.9748,75.8801 C127.2548,80.2101 125.6748,84.5401 124.0638,88.8201 C124.0638,88.8301 124.0548,88.8301 124.0548,88.8401 C123.1948,91.1301 122.3138,93.4101 121.7048,95.6601 C120.4348,100.3001 120.2848,104.8601 123.6348,109.2901 C123.6248,111.6601 125.8238,113.3301 125.6948,115.7401 C129.6848,127.5401 116.5738,134.4301 114.2738,144.9701 C111.3238,155.7001 121.8938,163.6601 124.4648,173.2701 C129.5638,189.6001 114.0848,200.9601 112.2248,215.5701 C111.5348,220.9201 114.9548,225.1501 117.9838,229.5201 L117.9948,229.5201" id="Fill-13" fill="#ae6b28"/>
                        <path d="M56.8845,224.17 C53.2945,214.42 50.5345,205.77 59.4145,190.72 L59.4145,190.71 C59.9645,189.39 60.4045,188.08 60.7545,186.78 C62.2145,181.4 62.0645,176.17 60.9645,171.16 C60.8745,170.76 60.7845,170.36 60.6845,169.96 C55.8945,150.79 37.7945,135.12 44.2945,127.23 C47.3745,119.39 52.7645,116.92 49.4045,108.14 C49.4045,108.14 49.4045,108.13 49.3945,108.12 C49.2145,107.63 48.9945,107.11 48.7445,106.57 C48.6745,106.49 48.6045,106.41 48.5445,106.33 C45.2245,102.43 42.6345,97.26 42.5245,92 C42.5145,91.96 42.5145,91.93 42.5145,91.89 C43.3545,91.75 44.0945,91.82 44.4845,92.73 C44.4645,92.96 44.4645,93.18 44.4645,93.4 C44.4745,100.51 52.5245,106.01 52.6545,113.48 C52.3845,122 40.1345,130.02 46.8345,138.43 C58.3845,153.91 69.6245,175.48 59.8945,194.62 C57.4145,199.14 55.2245,203.95 55.0845,209.01 C55.0145,210.83 55.2245,212.69 55.7845,214.57 C55.8545,214.88 55.9345,215.19 56.0145,215.5 C56.0245,215.53 56.0245,215.55 56.0345,215.58 C56.8145,218.61 57.8945,221.59 59.0045,224.56 C58.9545,224.55 58.9045,224.54 58.8445,224.53 C58.3045,224.42 57.7445,224.31 57.1745,224.22" id="Fill-15" fill="#ae6b28"/>
                        <path d="M78.3289,29.8868 C75.6879,33.7858 73.0489,37.6848 70.4079,41.5838 C70.0089,39.3618 72.7839,37.7758 73.2409,35.7768 C74.7359,33.6728 75.6789,30.6988 78.3289,29.8868" id="Fill-17" fill="#D7633B"/>
                        <path d="M98.739,120.1343 C98.466,120.4873 98.193,120.8403 97.921,121.1923 C90.609,124.7023 76.012,123.5483 71.794,117.3713 C75.863,117.3723 80.127,119.2913 84.282,119.8393 C89.074,121.4653 94.177,118.7853 98.739,120.1343" id="Fill-19" fill="#3E2C26"/>
                        <path d="M86.7381,123.0381 C87.0541,123.0591 87.3721,123.0811 87.6891,123.1021 C87.3721,123.0811 87.0541,123.0591 86.7381,123.0381" id="Fill-21" fill="#815747"/>
                        <path d="M112.8201,107.7173 C112.7631,107.3603 112.7041,107.0033 112.6321,106.6453 C114.7161,102.9243 116.5541,99.1253 117.9471,95.1543 C117.5331,94.5933 116.6201,94.7103 116.0141,94.4893 C104.4971,88.7473 110.6011,76.0063 121.7591,76.2363 C123.4101,53.4463 108.9941,31.9143 86.6201,26.9053 C65.3311,22.7033 66.8161,70.6283 45.0091,69.7643 C45.6111,69.1883 46.1681,68.5733 46.7051,67.9423 C44.2621,67.2023 40.4751,60.7103 36.7701,68.3323 C34.0041,75.8503 37.8721,91.5713 46.0761,92.6963 C54.9301,93.9103 49.1361,103.5033 63.6901,112.9223 C86.1181,127.4373 103.6081,121.4773 112.8201,107.7173" id="Fill-23" fill="#ffc2ab"/>
                        <path d="M118.1638,96.0293 C103.3758,92.7303 108.9238,72.2133 123.1918,76.3273 C123.0188,83.1313 121.4838,90.0613 118.1638,96.0293" id="Fill-25" fill="#F69973"/>
                        <path d="M69.9636,96.4014 C55.3316,96.8264 57.4446,75.3574 69.6786,75.8164 C83.2686,75.4704 84.3146,96.6824 69.9636,96.4014" id="Fill-27" fill="#F69973"/>
                    </g>
                </g>
                <path d="M65.3527479,146 C63.389033,146 62.3421139,148.008975 62.0536627,151.765144 L62,152.575505 C63.0598968,153.990987 63.6593354,153.778069 63.7983156,151.936753 C64.006786,149.174779 64.5947998,147.913985 65.3527479,147.913985 L65.4141205,147.917476 L65.483042,147.929339 C66.1790092,148.101005 67.0743876,149.862666 67.8839938,153.105759 L67.9617838,153.427 L67.8071112,153.48521 C66.566199,153.992935 65.9250381,155.277124 65.9250381,157.142463 C65.9250381,159.578792 67.0309422,161 69.0435344,161 L69.5435344,161 C69.705043,159.748636 69.4955698,159.109642 68.9151146,159.083019 C68.0444318,159.043084 67.6767677,158.524343 67.6767677,157.142463 C67.6767677,155.705169 68.0752727,155.178773 69.0563842,155.16319 L70.1485906,155.145843 L69.8206976,153.643969 L69.6554993,152.931029 C68.5433444,148.295165 67.2095102,146 65.3527479,146 Z" id="Path-16" fill="#33241F" fill-rule="nonzero"/>
                <path d="M59.0536204,144.005191 C58.8902376,144.493244 59.1101024,145.045611 59.5787383,145.246546 C60.0790732,145.461073 60.6276147,145.181421 60.8004789,144.665046 C61.9410123,141.258074 63.5101167,139.781456 65.5839424,139.986391 C67.6382382,140.189395 69.5787346,143.280631 71.1809899,149.285622 C71.3207654,149.809478 71.8455357,150.127887 72.3579687,149.952767 C72.8428954,149.787046 73.0980913,149.248357 72.9647033,148.74844 C71.1423611,141.918599 68.8071695,138.329897 65.7565674,138.028438 C62.7240841,137.728769 60.4604852,139.802642 59.0536204,144.005191 Z" id="Path-14" fill="#33241F" fill-rule="nonzero"/>
            </g>
        </g>
        <g id="Female Face" transform="translate(401.000000, 424.000000) scale(1 1)">
            <defs>
                <polygon id="female-facesurprised-path-1" points="0 0.2999 20.2765458 0.2999 20.2765458 6.71026647 0 6.71026647"/>
            </defs>
            <g id="Female Face/Surprised" stroke="none" stroke-width="1" fill="none" fill-rule="evenodd">
                <g id="Face" transform="translate(9.000000, 4.000000)">
                    <path d="M29.9922,42.8319 C29.6902,42.6949 29.4002,42.5639 29.1112,42.4339 C29.3442,42.0919 29.4992,41.6169 29.8222,41.4299 C31.4432,40.4899 32.6492,39.1939 33.5922,37.5799 C34.1982,36.5419 34.2302,35.6699 33.6082,34.6089 C31.9652,31.8049 30.4312,28.8999 30.0332,25.6349 C29.4332,20.7219 29.1062,15.7719 30.6442,10.9479 C31.1692,9.3039 31.8232,7.6599 32.6942,6.1779 C34.5022,3.0979 37.4592,1.5959 40.8742,1.1359 C42.8432,0.8699 44.8742,1.0859 46.8762,1.0359 C47.7362,1.0139 48.0602,1.4949 48.2432,2.2049 C48.4202,2.8909 48.7832,3.5999 48.6922,4.2469 C48.6582,4.4949 47.6052,4.6439 47.0022,4.7609 C45.1062,5.1289 43.2092,5.5059 41.3002,5.7939 C39.0192,6.1389 36.9732,7.0729 35.1162,8.3479 C34.2482,8.9419 33.3812,9.8419 33.0042,10.7979 C30.6832,16.6749 30.4932,22.6719 32.6112,28.6449 C33.2392,30.4159 34.2252,32.0739 35.1642,33.7169 C36.6342,36.2889 36.5782,37.7759 34.5042,39.8869 C33.5492,40.8579 32.3752,41.6219 31.2582,42.4199 C30.9272,42.6569 30.4522,42.6899 29.9922,42.8319" id="Fill-1" fill="#34241F"/>
                    <g id="Group-5" transform="translate(0.000000, 0.956100)">
                        <mask id="female-facesurprised-mask-2" fill="#fff">
                            <use xlink:href="#female-facesurprised-path-1"/>
                        </mask>
                        <g id="Clip-4"/>
                        <path d="M11.8047,0.5369 C14.0867,0.5839 16.2757,1.0609 18.3537,1.9999 C18.8157,2.2089 19.2817,2.4699 19.6497,2.8089 C20.2897,3.3999 20.4997,4.1259 19.9957,4.9369 C19.7457,5.3389 19.4687,5.7299 19.2627,6.1539 C18.9817,6.7289 18.5827,6.7759 18.0007,6.6579 C15.3687,6.1219 12.7417,5.5229 10.0847,5.1569 C6.9847,4.7299 3.8577,4.5419 0.8567,5.8289 C0.6027,5.9369 0.2867,5.9009 -0.0003,5.9319 C0.1427,5.6589 0.2167,5.2869 0.4407,5.1269 C2.2667,3.8249 3.9907,2.2639 6.0067,1.3779 C7.7487,0.6129 9.8337,0.6289 11.7667,0.2999 C11.7797,0.3789 11.7927,0.4579 11.8047,0.5369" id="Fill-3" fill="#32231E" mask="url(#female-facesurprised-mask-2)"/>
                    </g>
                    <path d="M14.4835,23.2386 C14.4665,25.5136 13.0575,26.9536 10.9905,26.8076 C8.9885,26.6666 7.5125,24.5176 7.8795,22.2566 C8.1705,20.4656 9.3235,19.4136 10.9395,18.8016 C11.7395,18.4986 12.4095,18.8296 12.9865,19.3756 C14.0935,20.4246 14.4795,21.7586 14.4835,23.2386" id="Fill-6" fill="#33231E"/>
                    <path d="M40.0152,21.0414 C40.1852,19.7324 40.6292,18.6804 41.6782,17.9284 C42.8712,17.0714 44.1212,17.2994 44.9582,18.5224 C46.1172,20.2144 45.7722,22.9244 44.2252,24.2904 C43.0552,25.3224 41.5572,25.1204 40.8572,23.7164 C40.4442,22.8914 40.2872,21.9374 40.0152,21.0414" id="Fill-8" fill="#33231E"/>
                    <path d="M28.5635,53.3431 C28.2895,53.3191 28.0125,53.3391 27.7365,53.3391 C27.7295,53.3771 27.7235,53.4161 27.7165,53.4541 C27.1895,53.3401 26.6625,53.2251 26.1365,53.1111 C26.5225,52.6461 26.8545,52.1111 27.3165,51.7391 C27.6235,51.4921 28.1675,51.3041 28.5145,51.4051 C28.9095,51.5191 29.4185,51.9411 29.4905,52.3051 C29.5915,52.8251 29.3475,53.4121 28.5635,53.3431 M32.0955,49.1371 C30.9285,48.0061 27.7745,47.5111 26.0535,48.3401 C23.6925,49.4761 22.1135,51.3501 21.4415,53.8921 C21.3115,54.3841 21.4225,55.2061 21.7565,55.5111 C23.4385,57.0521 25.5215,57.7441 27.4285,57.9561 C30.1475,57.9311 31.0995,57.1921 31.7185,54.9131 C32.0385,53.7361 32.3735,52.5631 32.7185,51.3931 C32.9815,50.5041 32.7565,49.7791 32.0955,49.1371" id="Fill-10" fill="#940F40"/>
                </g>
            </g>
        </g>
        <g id="Head Accesories" transform="translate(360.000000, 361.000000) scale(1 1)">
            <g id="Head Accesories/None" stroke="none" stroke-width="1" fill="none" fill-rule="evenodd" fill-opacity="0"/>
        </g>
        <g id="Face Accesories" transform="translate(381.500000, 429.000000) scale(1 1)">
            <g id="Face Accesories/None" stroke="none" stroke-width="1" fill="none" fill-rule="evenodd" fill-opacity="0"/>
        </g>
    </g>
</svg>
