<svg viewBox="383.2 293.338 191.6 598.649" xmlns="http://www.w3.org/2000/svg" xmlns:xlink="http://www.w3.org/1999/xlink" overflow="visible">
    <defs>
        <polygon id="masterstickersplant-1-path-1" points="0 0.877166669 174.862 0.877166669 174.862 416.999852 0 416.999852"/>
        <polygon id="masterstickersplant-1-path-3" points="0.44628095 0.952 103.847043 0.952 103.847043 330.659974 0.44628095 330.659974"/>
    </defs>
    <g id="Master/Stickers/Plant 1" stroke="none" stroke-width="1" fill="none" fill-rule="evenodd">
        <g id="Plant" transform="translate(391.000000, 298.000000)">
            <g id="Group" transform="translate(18.000000, 141.000000)">
                <ellipse id="Oval" fill="#D5B291" cx="69" cy="20.5" rx="69" ry="20.5"/>
                <path d="M130.680032,14.806703 C131.294889,13.8890839 132.537206,13.6436468 133.454825,14.2585038 C134.372444,14.8733607 134.617882,16.115678 134.003025,17.033297 C127.230424,27.1407979 107.07172,31.6373475 73.3229256,31.0664588 L72.2960748,31.0476086 C38.239162,30.373739 15.4660724,26.1655542 3.81008198,18.2473737 C2.89639659,17.6266864 2.65887475,16.3828315 3.27956209,15.4691461 C3.90024944,14.5554607 5.14410431,14.3179389 6.0577897,14.9386263 C16.8849731,22.2937792 39.0463531,26.3889276 72.3752056,27.0483914 C105.393938,27.7017189 124.898958,23.4344394 130.680032,14.806703 Z" id="Path-15" fill="#BF9F82" fill-rule="nonzero"/>
            </g>
            <g id="Group-3" transform="translate(0.000000, 170.048000)">
                <mask id="masterstickersplant-1-mask-2" fill="#fff">
                    <use xlink:href="#masterstickersplant-1-path-1"/>
                </mask>
                <g id="Clip-2"/>
                <path d="M85.3601,144.1385 C85.3601,101.0705 85.3581,58.0005 85.3671,14.9315 C85.3671,12.5705 85.3881,10.2035 85.5431,7.8495 C85.6401,6.3515 86.1831,6.0795 87.7071,6.1125 C88.7431,6.1335 89.2241,6.6595 89.3111,7.5765 C89.4221,8.7495 89.4771,9.9335 89.4781,11.1135 C89.5061,30.1035 89.5341,49.0935 89.5361,68.0835 C89.5421,138.1395 89.5401,208.1945 89.5391,278.2495 C89.5391,282.1635 89.4261,281.6665 92.8571,281.6755 C113.1121,281.7235 133.3681,281.7565 153.6231,281.7945 C153.9861,281.7955 154.3501,281.8075 154.7141,281.7985 C156.5441,281.7575 156.6011,281.7495 156.4111,280.0065 C155.9861,276.1235 155.5061,272.2465 155.0351,268.3685 C153.1031,252.4985 151.1631,236.6295 149.2311,220.7595 C147.1341,203.5355 145.0361,186.3135 142.9531,169.0895 C141.2411,154.9305 139.5591,140.7695 137.8461,126.6115 C135.9261,110.7395 133.9761,94.8715 132.0571,78.9995 C130.5311,66.3745 129.0191,53.7485 127.5231,41.1195 C126.1231,29.3035 124.7451,17.4855 123.3751,5.6645 C123.2391,4.4955 123.1121,3.3015 123.2161,2.1395 C123.2581,1.6635 123.8831,0.9465 124.3211,0.8835 C124.7571,0.8225 125.5241,1.3355 125.7301,1.7865 C126.0981,2.5915 126.2171,3.5315 126.3311,4.4275 C128.1751,19.0275 130.0171,33.6255 131.8291,48.2285 C133.7521,63.7345 135.6441,79.2425 137.5441,94.7495 C139.2881,108.9955 141.0211,123.2425 142.7641,137.4895 C144.4751,151.4645 146.1961,165.4385 147.9081,179.4135 C149.6541,193.6595 151.3911,207.9075 153.1381,222.1535 C155.0401,237.6605 156.9551,253.1675 158.8511,268.6765 C160.5821,282.8325 162.2961,296.9915 164.0171,311.1485 C165.9471,327.0195 167.8751,342.8905 169.8071,358.7605 C171.4641,372.3765 173.1291,385.9925 174.7831,399.6095 C174.8481,400.1475 174.8811,400.6985 174.8511,401.2395 C174.7961,402.2525 174.3151,403.0225 173.2561,403.1355 C172.1701,403.2505 171.6221,402.4985 171.3261,401.5675 C171.1901,401.1385 171.1311,400.6805 171.0761,400.2315 C169.6161,388.2395 168.1671,376.2435 166.7051,364.2515 C164.6061,347.0295 162.4971,329.8075 160.3951,312.5845 C159.4161,304.5605 158.4431,296.5345 157.4691,288.5075 C157.3921,287.8765 157.3081,287.2455 157.2561,286.6125 C157.1631,285.4885 156.5731,285.0415 155.4561,285.1515 C154.7351,285.2215 154.0041,285.1795 153.2771,285.1845 C138.3811,285.2865 123.4851,285.3885 108.5891,285.4895 C103.0481,285.5265 97.5081,285.5545 91.9681,285.6005 C89.5851,285.6185 89.5461,285.6335 89.5411,288.0075 C89.5171,298.9105 89.5141,309.8145 89.5121,320.7185 C89.5051,351.5205 89.5021,382.3235 89.4961,413.1255 C89.4961,413.6705 89.5221,414.2175 89.4881,414.7605 C89.3701,416.6075 88.6211,417.2025 86.8761,416.9415 C86.0331,416.8155 85.5381,416.3545 85.4491,415.5485 C85.3591,414.7405 85.3761,413.9175 85.3761,413.1005 C85.3621,371.8505 85.3531,330.6005 85.3371,289.3505 C85.3361,284.9935 85.6301,285.6325 81.5181,285.6015 C61.5361,285.4525 41.5541,285.3215 21.5721,285.1845 C21.1181,285.1805 20.6641,285.1715 20.2101,285.1715 C17.8191,285.1695 17.8001,285.1675 17.5231,287.4455 C16.1931,298.3555 14.8811,309.2685 13.5471,320.1785 C11.4561,337.3105 9.3471,354.4405 7.2561,371.5725 C6.1111,380.9505 4.9931,390.3305 3.8451,399.7075 C3.7471,400.5115 3.6921,401.4025 3.2981,402.0625 C2.9911,402.5785 2.1561,403.1205 1.6171,403.0655 C1.0721,403.0075 0.3921,402.3145 0.1571,401.7425 C-0.0979,401.1215 0.0141,400.3105 0.1001,399.5985 C1.7621,385.8915 3.4511,372.1885 5.1201,358.4815 C6.8441,344.3255 8.5511,330.1655 10.2711,316.0075 C12.1871,300.2265 14.1011,284.4455 16.0281,268.6655 C17.9221,253.1575 19.8341,237.6495 21.7351,222.1415 C23.8471,204.9195 25.9571,187.6995 28.0661,170.4775 C29.9651,154.9685 31.8631,139.4605 33.7601,123.9515 C35.8691,106.7315 37.9691,89.5095 40.0861,72.2885 C42.1581,55.4305 44.2411,38.5725 46.3321,21.7155 C47.0471,15.9475 47.7931,10.1815 48.5481,4.4175 C48.6661,3.5205 48.7781,2.5805 49.1461,1.7765 C49.3511,1.3265 50.1211,0.8195 50.5581,0.8825 C50.9991,0.9465 51.6011,1.6455 51.6721,2.1335 C51.8131,3.1045 51.7011,4.1275 51.5841,5.1165 C49.3501,23.9675 47.1081,42.8195 44.8521,61.6685 C42.5961,80.5185 40.3311,99.3675 38.0551,118.2155 C35.4211,140.0395 32.7691,161.8625 30.1281,183.6855 C27.7261,203.5255 25.3351,223.3665 22.9261,243.2045 C21.5241,254.7475 20.1041,266.2875 18.6791,277.8275 C18.1871,281.8095 18.1701,281.8005 22.0591,281.7925 C42.0431,281.7525 62.0251,281.7225 82.0081,281.6745 C85.4341,281.6665 85.3321,282.1665 85.3321,278.2525 C85.3301,233.5475 85.3301,188.8435 85.3301,144.1385 L85.3601,144.1385 Z" id="Fill-1" fill="#433E3B" mask="url(#masterstickersplant-1-mask-2)"/>
            </g>
            <g id="Group-298" transform="translate(16.000000, 0.048000)">
                <path d="M71.2849,83.3221 C73.7749,83.3221 76.2709,83.2041 78.7529,83.3461 C83.4209,83.6151 88.0979,83.8811 92.7379,84.4341 C97.1009,84.9541 101.4309,85.7831 105.7529,86.6041 C107.1499,86.8701 108.4979,87.4791 109.8189,88.0481 C110.7359,88.4431 111.5789,89.0261 111.5589,90.2321 C111.5569,90.3191 111.5729,90.4341 111.6289,90.4881 C113.5639,92.4061 112.4889,94.6761 112.2229,96.7571 C111.6759,101.0281 110.8879,105.2691 110.1809,109.5201 C109.5319,113.4191 108.8659,117.3141 108.1949,121.2091 C107.4169,125.7201 106.6249,130.2311 105.8369,134.7421 C105.1649,138.5911 104.4859,142.4381 103.8169,146.2881 C103.4319,148.4991 102.9449,150.7011 102.7189,152.9281 C102.5229,154.8531 101.2249,155.9151 99.9119,156.8721 C95.1299,160.3561 89.6229,161.8471 83.8329,162.7051 C77.7189,163.6101 71.5839,163.6351 65.4619,163.3961 C59.9849,163.1831 54.5279,162.4471 49.3229,160.5121 C46.3859,159.4221 43.6799,157.9521 41.2929,155.8811 C40.2549,154.9781 39.8009,153.8611 39.5859,152.6081 C38.6379,147.0761 37.7509,141.5331 36.7929,136.0031 C35.9489,131.1361 35.0069,126.2881 34.1689,121.4211 C33.3769,116.8191 32.6699,112.2021 31.9119,107.5941 C31.3139,103.9631 30.6759,100.3371 30.0969,96.7021 C29.9129,95.5511 29.8469,94.3781 29.7519,93.2131 C29.6779,92.2961 29.7599,91.4711 30.5249,90.7441 C30.9259,90.3641 30.8349,89.4481 31.2429,89.0971 C32.0459,88.4101 32.9779,87.7141 33.9719,87.4361 C36.9999,86.5931 40.0589,85.8251 43.1489,85.2591 C46.4139,84.6631 49.7239,84.3131 53.0199,83.8951 C54.2679,83.7371 55.5299,83.6421 56.7879,83.6041 C61.6189,83.4551 66.4509,83.3401 71.2819,83.2121 C71.2829,83.2491 71.2839,83.2851 71.2849,83.3221" id="Fill-5" fill="#CBF5F6"/>
                <path d="M73.7546,96.0867 C76.5156,96.0867 79.2866,96.2367 82.0356,96.0527 C86.6586,95.7407 91.2766,95.2927 95.8786,94.7477 C98.1926,94.4747 100.4846,93.9297 102.7516,93.3657 C103.6246,93.1487 104.4006,92.5417 105.2216,92.1117 C104.4166,91.6927 103.6126,91.2727 102.8066,90.8577 C102.6466,90.7747 102.4726,90.7187 102.3076,90.6447 C101.1826,90.1407 100.8016,89.5127 101.1276,88.7037 C101.4986,87.7847 102.4526,87.4337 103.5146,87.9117 C104.6636,88.4297 105.8456,88.9217 106.8936,89.6077 C109.1196,91.0667 109.1056,93.4577 106.8906,94.8857 C104.4156,96.4817 101.6086,97.2767 98.7496,97.6677 C93.7146,98.3557 88.6496,98.8287 83.5926,99.3477 C81.9796,99.5127 80.3526,99.5417 78.7316,99.6187 C76.8846,99.7057 75.0336,99.8817 73.1896,99.8357 C68.4066,99.7177 63.6136,99.6597 58.8496,99.2787 C52.7956,98.7957 46.7316,98.2177 40.8456,96.5867 C39.2896,96.1547 37.7636,95.5407 36.3106,94.8337 C35.0176,94.2047 34.0416,93.2427 34.0718817,91.5757 C34.1046,89.9237 35.2306,89.1177 36.4526,88.5957 C37.9746,87.9457 39.6246,87.5867 41.2336,87.1577 C42.0146,86.9497 42.8246,86.8427 43.6276,86.7397 C44.2516,86.6587 44.8996,86.5597 45.5086,86.6497 C45.9436,86.7157 46.3346,87.0837 46.7456,87.3167 C46.4386,87.6067 46.1796,88.0317 45.8166,88.1607 C44.1166,88.7657 42.3826,89.2727 40.6726,89.8477 C39.9896,90.0777 39.3166,90.3567 38.6806,90.6907 C38.3886,90.8427 38.1946,91.1837 37.9576,91.4397 C38.2456,91.6927 38.4926,92.0747 38.8276,92.1797 C40.8066,92.7977 42.7716,93.5677 44.8036,93.8817 C49.2916,94.5727 53.8056,95.1687 58.3296,95.5337 C63.4556,95.9487 68.6056,96.0677 73.7446,96.3157 C73.7476,96.2387 73.7506,96.1627 73.7546,96.0867" id="Fill-7" fill="#9ABEBF"/>
                <g id="Group-11" transform="translate(33.000000, 0.000000)">
                    <mask id="masterstickersplant-1-mask-4" fill="#fff">
                        <use xlink:href="#masterstickersplant-1-path-3"/>
                    </mask>
                    <g id="Clip-10"/>
                    <path d="M78.239,99.7615 C78.287,100.1195 78.287,100.4935 78.392,100.8345 C78.657,101.6925 78.756,102.7625 79.335,103.3055 C79.754,103.6985 80.838,103.4075 81.624,103.3745 C83.55,103.2955 84.987,104.0745 85.8,105.8255 C86.176,106.6395 86.547,107.5205 86.624,108.3975 C87.066,113.3815 86.094,118.0125 82.55,121.7435 C81.522,122.8255 80.995,123.8305 81.052,125.3065 C81.122,127.1185 80.961,128.9385 80.968,130.7545 C80.974,132.4515 81.098,132.5235 82.666,132.1895 C82.754,132.1705 82.838,132.1295 82.926,132.1105 C87.553,131.1075 90.494,133.8055 89.582,138.4935 C88.488,144.1115 85.858,149.0235 81.129,152.3455 C78.932,153.8885 79.135,155.7545 79.063,157.7825 C79.059,157.8955 79.647,158.1975 79.778,158.1155 C80.391,157.7385 80.91,157.2095 81.516,156.8185 C84.718,154.7495 87.974,155.1365 90.649,157.8455 C92.315,159.5325 93.231,161.6135 93.543,163.8915 C94.21,168.7765 93.585,173.4945 91.252,177.9085 C90.998,178.3905 90.718,178.8605 90.411,179.3085 C87.706,183.2605 84.657,184.0615 80.343,181.9655 C79.078,181.3515 78.913,181.4075 78.996,182.7255 C79.15,185.1705 79.39,187.6125 79.62,190.0525 C79.684,190.7425 80.03,191.1695 80.796,191.3155 C82.471,191.6355 84.128,192.0525 85.793,192.4285 C88.207,192.9745 89.874,194.7495 89.84,197.2195 C89.817,198.9105 89.507,200.6625 88.966,202.2665 C88.003,205.1265 86.472,207.7225 84.292,209.8585 C83.439,210.6925 83.056,211.5625 83.262,212.7675 C83.567,214.5555 83.772,216.3625 83.994,218.1635 C84.133,219.2885 84.697,219.9015 85.829,220.2075 C88.484,220.9265 90.946,222.0915 93.024,223.9365 C95.381,226.0285 96.673,228.6665 96.757,231.8265 C96.892,236.9585 93.529,240.6885 88.42,241.1245 C87.788,241.1795 87.149,241.1575 86.513,241.1525 C85.748,241.1465 85.33,241.4985 85.292,242.2755 C85.184,244.4505 85.076,246.6265 84.969,248.8035 C84.922,249.8005 85.475,250.2945 86.385,250.4865 C86.474,250.5045 86.566,250.5105 86.654,250.5325 C90.895,251.6185 92.265,254.0905 90.782,258.1825 C89.666,261.2605 87.709,263.7575 84.949,265.5175 C83.595,266.3815 82.878,267.4375 82.799,269.0305 C82.749,270.0225 82.445,271.0035 82.41,271.9945 C82.386,272.6735 82.419,273.5235 82.794,274.0175 C84.072,275.6985 83.871,277.4005 83.184,279.1745 C82.988,279.6815 82.829,280.2415 82.497,280.6515 C79.916,283.8235 80.615,287.7235 80.085,291.3475 C79.961,292.1995 80.318,292.5935 81.268,292.7345 C86.525,293.5115 89.262,297.1045 90.689,301.7885 C91.806,305.4585 88.962,308.3215 85.175,307.5645 C84.026,307.3345 82.935,306.8285 81.812,306.4725 C80.664,306.1085 80.389,306.2415 80.488,307.3345 C80.807,310.8605 81.175,314.3825 81.613,317.8945 C81.661,318.2735 82.243,318.7005 82.673,318.8955 C83.678,319.3505 84.235,320.0025 84.366,321.1405 C84.457,321.9295 84.864,322.6765 85.077,323.4565 C85.704,325.7635 84.793,328.3605 82.891,329.7615 C80.29,331.6785 76.97,330.3905 76.438,327.2015 C76.022,324.7065 76.764,322.4615 78.529,320.7095 C79.582,319.6645 79.701,318.6985 79.451,317.3165 C78.757,313.4755 78.208,309.6075 77.707,305.7365 C77.538,304.4285 77.179,303.3385 76.312,302.2995 C75.577,301.4175 75.014,300.3185 74.644,299.2245 C74.039,297.4335 74.417,295.7065 76.036,294.6315 C77.107,293.9195 77.423,293.0975 77.418,291.9255 C77.413,290.6555 77.552,289.3855 77.585,288.1155 C77.626,286.5725 77.507,286.3455 76.13,286.7385 C72.609,287.7405 69.594,285.0115 70.781,280.7115 C71.257,278.9875 72.028,277.2865 72.968,275.7635 C74.188,273.7885 75.912,272.3255 78.394,272.0345 C78.848,271.9815 79.538,271.6495 79.637,271.3055 C79.909,270.3755 79.945,269.3705 80.008,268.3925 C80.014,268.2825 79.602,268.0485 79.378,268.0385 C78.748,268.0125 78.108,268.1385 77.48,268.0895 C73.592,267.7865 71.089,264.8285 71.748,261.0095 C72.654,255.7575 75.475,251.7385 80.397,249.5585 C81.928,248.8805 82.471,248.1485 82.401,246.5975 C82.34,245.2405 82.395,243.8675 82.523,242.5145 C82.671,240.9545 82.185,240.0165 80.627,239.4015 C77.981,238.3575 75.697,236.6985 73.808,234.5415 C72.282,232.7975 71.245,230.8145 70.864,228.5045 C70.189,224.4085 72.09,221.3295 76.102,220.2385 C77.407,219.8825 78.779,219.7555 80.13,219.6015 C81.007,219.5005 81.486,219.1515 81.361,218.2245 C81.179,216.8755 81.005,215.5255 80.779,214.1845 C80.656,213.4565 80.181,213.4015 79.575,213.6805 C78.26,214.2855 76.979,215.0165 75.606,215.4385 C70.439,217.0255 67.433,213.1445 67.17,209.5495 C67.018,207.5035 67.469,205.5845 68.26,203.7165 C69.926,199.7845 72.467,196.5005 75.754,193.8225 C76.878,192.9075 77.231,191.9675 77.087,190.5455 C76.738,187.1155 76.508,183.6695 76.343,180.2245 C76.287,179.0375 75.814,178.1975 75.088,177.3275 C72.686,174.4555 70.539,171.3855 69.476,167.7585 C68.976,166.0515 68.715,164.1835 68.807,162.4125 C68.978,159.1345 71.34,157.1845 74.622,157.2355 C75.286,157.2455 76.098,157.7485 76.414,156.6625 C76.772,155.4345 76.58,154.0945 75.755,153.7245 C72.034,152.0595 70.843,148.5225 69.468,145.1985 C68.148,142.0095 68.055,138.6545 68.996,135.3075 C69.192,134.6105 69.413,133.9125 69.698,133.2475 C71.171,129.8135 73.229,128.5855 76.972,129.0425 C78.068,129.1775 78.504,128.8825 78.471,127.8095 C78.457,127.3565 78.489,126.9025 78.491,126.4475 C78.497,124.4205 78.457,124.5325 76.439,123.8385 C75.187,123.4075 73.875,122.7845 72.93,121.8895 C68.563,117.7455 66.615,112.4545 66.187,106.5595 C66.118,105.5995 66.367,104.5575 66.699,103.6375 C67.541,101.3075 69.648,100.1105 72.094,100.4845 C72.805,100.5925 73.492,100.8645 74.189,101.0625 C75.76,101.5085 76.103,101.1515 75.724,99.4905 C75.514,98.5665 75.129,97.8255 74.187,97.4005 C70.597,95.7775 67.439,93.5015 64.484,90.9165 C63.473,90.0325 63.309,90.1145 62.897,91.4015 C62.372,93.0425 61.927,94.7145 61.309,96.3215 C60.455,98.5435 59.195,100.5185 57.467,102.2035 C54.885,104.7215 51.897,105.4825 48.454,104.5265 C47.581,104.2835 46.741,103.9195 45.864,103.6915 C45.383,103.5655 44.856,103.6065 44.35,103.5725 C44.31,104.2835 44.176,105.0115 44.284,105.7005 C44.318,105.9205 45.01,106.2145 45.374,106.1795 C49.542,105.7825 52.662,109.3985 52.15,114.4025 C51.864,117.1965 50.673,119.6375 48.75,121.6795 C47.881,122.6015 46.923,123.4495 45.933,124.2425 C45.231,124.8055 44.876,125.4215 44.937,126.3305 C45.197,130.1355 45.406,133.9445 45.686,137.7475 C45.773,138.9225 46.031,139.0045 47.022,138.4105 C50.757,136.1755 53.884,136.8775 56.354,140.4615 C58.224,143.1745 58.526,146.2085 58.127,149.3375 C57.801,151.8885 56.878,154.2635 55.356,156.3665 C53.721,158.6255 51.604,160.0945 48.714,159.9795 C46.788,159.9025 46.793,160.4095 46.824,162.0455 C46.858,163.7725 46.833,165.4985 46.885,167.2245 C46.955,169.4925 47.07,169.5485 49.213,169.1575 C50.098,168.9965 51.013,168.8585 51.907,168.8955 C55.052,169.0245 57.473,171.1995 57.642,174.3575 C57.743,176.2225 57.552,178.1945 57.032,179.9855 C55.566,185.0405 52.36,188.9795 48.316,192.2155 C47.135,193.1605 46.615,194.0965 46.547,195.6115 C46.352,199.8705 45.96,204.1225 45.649,208.3775 C45.61,208.9205 45.49,209.4895 45.61,209.9975 C45.67,210.2535 46.172,210.4365 46.505,210.5775 C46.619,210.6265 46.824,210.4405 46.995,210.3785 C50.398,209.1475 52.644,209.8725 54.179,213.1055 C57.101,219.2605 56.836,225.4775 53.699,231.4535 C51.744,235.1775 48.913,235.9255 44.974,234.2455 C44.641,234.1045 44.308,233.8085 43.989,233.8255 C43.655,233.8445 43.087,234.1165 43.051,234.3455 C42.647,236.9465 42.305,239.5575 42.024,242.1735 C42.002,242.3795 42.614,242.8995 42.835,242.8495 C44.985,242.3585 46.832,242.8405 48.255,244.5215 C49.927,246.4965 50.559,248.8295 50.158,251.3865 C49.621,254.8035 48.122,257.8915 45.813,260.3375 C43.707,262.5705 43.277,264.6525 44.475,267.3735 C45.166,268.9425 45.534,270.6535 46.03,272.3055 C46.276,273.1235 46.508,273.4895 47.517,272.9675 C50.252,271.5575 51.92,272.0705 53.33,274.7395 C55.762,279.3455 55.611,284.0335 53.258,288.5935 C51.685,291.6415 48.75,292.3815 45.899,290.3995 C41.616,287.4215 39.063,283.1685 37.923,278.1335 C37.348,275.5965 38.613,273.5535 41.019,272.4095 C42.646,271.6375 42.646,271.6375 42.109,269.8505 C42.031,269.5895 41.964,269.3235 41.871,269.0685 C41.471,267.9665 41.342,266.5355 40.562,265.8875 C40.049,265.4605 38.593,266.1425 37.566,266.3645 C35.712,266.7655 34.146,266.2195 32.857,264.8945 C32.357,264.3805 31.912,263.7775 31.583,263.1405 C28.958,258.0605 28.012,252.6755 29.044,247.0415 C29.297,245.6605 29.979,244.2765 30.763,243.0915 C32.289,240.7875 34.545,239.6635 37.316,240.2395 C39.003,240.5895 39.204,240.1315 39.333,238.6895 C39.51,236.7005 39.741,234.7105 40.095,232.7475 C40.309,231.5625 40.096,230.7095 39.255,229.8025 C36.89,227.2525 35.069,224.3185 33.715,221.1155 C32.637,218.5705 31.933,215.9495 32.777,213.1695 C32.987,212.4775 33.242,211.7935 33.537,211.1335 C34.891,208.1125 38.243,206.3275 41.131,207.6305 C42.116,208.0745 42.653,207.9325 42.746,206.7445 C43.01,203.3965 43.342,200.0535 43.584,196.7035 C43.664,195.5905 43.439,195.4875 42.284,195.8475 C40.985,196.2515 39.715,196.7795 38.392,197.0695 C31.484,198.5885 25.927,194.3945 25.669,187.3655 C25.409,180.3045 28.002,174.2255 32.537,168.9335 C33.291,168.0525 34.272,167.3245 35.258,166.6965 C37.553,165.2295 40.023,164.4315 42.756,165.3715 C43.724,165.7055 44.121,165.4085 44.071,164.4105 C44.008,163.1425 43.861,161.8675 43.922,160.6045 C43.985,159.2515 43.441,158.4305 42.301,157.7555 C38.863,155.7195 36.383,152.7055 34.176,149.4535 C32.764,147.3735 31.973,145.0985 32.198,142.5215 C32.56,138.3585 35.715,136.0465 39.799,136.9145 C40.692,137.1045 41.753,138.1225 42.476,137.1985 C42.918,136.6335 42.63,135.4625 42.592,134.5675 C42.501,132.3905 42.41,130.2115 42.227,128.0415 C42.119,126.7625 41.937,126.6955 40.659,127.0255 C39.956,127.2065 39.272,127.4735 38.563,127.6185 C34.318,128.4855 30.106,126.1385 28.999,121.9365 C27.532,116.3785 28.473,111.0785 31.844,106.3945 C34.04,103.3425 36.595,102.7895 39.959,104.1835 C40.498,104.4075 41.116,105.0695 41.599,104.2635 C42.074,103.4705 42.2,102.5455 41.578,101.7135 C41.422,101.5045 41.146,101.3875 40.935,101.2165 C38.544,99.2775 36.142,97.3485 33.771,95.3845 C33.189,94.9025 32.787,94.5925 32.449,95.5895 C32.156,96.4555 31.531,96.9395 30.569,96.7825 C29.573,96.6205 29.256,95.8235 29.176,94.9955 C28.8,91.0845 27.817,87.3175 26.618,83.5925 C26.426,82.9955 26.336,82.3405 26.338,81.7125 C26.356,76.4905 24.868,71.4845 24.215,66.3605 C24.016,64.8065 23.279,64.2485 21.841,63.9435 C16.059,62.7155 10.828,60.2665 6.293,56.4505 C4.983,55.3485 3.863,54.0225 2.635,52.8215 C2.339,52.5325 1.956,52.3305 1.613,52.0895 C1.508,52.0015 1.402,51.9145 1.295,51.8285 C-0.063,49.5805 0.338,47.4115 1.586,45.2815 C1.899,44.7505 2.319,44.3045 2.748,43.8675 C3.074,43.5495 3.391,43.2115 3.889,43.1725 C4.846,42.6655 5.782,42.1095 6.766,41.6605 C9.648,40.3495 12.713,39.7945 15.792,40.4705 C21.181,41.6535 26.563,42.9255 31.858,44.4705 C36.054,45.6945 39.483,48.2405 41.874,51.9875 C42.551,53.0495 43.018,54.2445 43.583,55.3795 C45.081,58.9545 43.315,62.7355 39.243,64.5145 C36.634,65.6555 33.873,66.0455 31.03,65.9335 C29.858,65.8865 28.847,66.0285 28.969,67.6615 C29.106,69.5075 29.71,69.9255 31.268,68.8945 C34.428,66.8035 37.741,66.1635 41.287,67.6835 C42.862,68.3585 43.241,67.8985 43.46,66.2815 C43.95,62.6375 43.52,58.8545 45.019,55.3575 C45.788,51.3505 46.393,47.3035 47.362,43.3445 C49.014,36.5865 52.075,30.3935 55.57,24.4175 C56.487,22.8495 56.986,22.5235 55.008,20.8545 C53.289,19.4055 51.739,17.6965 50.372,15.9065 C48.535,13.5005 47.963,10.7855 49.71,8.0435 C51.423,5.3565 53.959,4.1285 57.132,4.4895 C58.123,4.6015 58.805,4.6935 59.319,3.6015 C60.237,1.6545 62.031,0.9795 64.035,0.951635935 C65.384,0.9375 66.781,1.0205 68.08,1.3585 C78.247,4.0005 86.708,9.3455 93.163,17.6745 C94.306,19.1505 95.18,20.9355 95.783,22.7125 C97.485,27.7325 95.222,31.6355 89.994,32.6615 C86.681,33.3125 83.301,33.1975 79.977,32.5195 C73.604,31.2185 67.681,28.7085 61.957,25.6895 C59.299,24.2865 59.527,23.6415 57.728,26.9175 C53.184,35.1975 50.133,43.9915 48.968,53.3925 C48.501,57.1745 48.131,60.9705 47.737,64.7615 C47.672,65.3905 47.649,66.0375 47.734,66.6595 C47.771,66.9395 48.078,67.3325 48.338,67.4055 C49.624,67.7635 51.382,66.8135 51.732,65.5175 C52.663,62.0805 53.841,58.7555 55.811,55.7605 C56.278,55.0515 56.193,54.4755 55.71,53.7835 C54.83,52.5205 53.942,51.2395 53.267,49.8635 C51.085,45.4175 53.36,41.3085 58.297,40.8105 C59.533,40.6865 60.832,40.8695 62.065,41.1075 C63.121,41.3115 64.152,41.7315 65.141,42.1745 C65.934,42.5305 66.475,42.3775 67.075,41.7965 C67.921,40.9795 68.789,40.1595 69.757,39.5015 C72.279,37.7835 75.048,37.1615 78.051,37.9825 C86.3,40.2345 91.028,48.2005 89.852,55.5565 C88.778,62.2775 83.214,66.3265 76.496,65.3605 C70.968,64.5645 66.144,62.1165 61.552,59.1035 C61.097,58.8045 60.674,58.4585 60.23,58.1425 C59.481,57.6065 58.874,57.7715 58.436,58.5535 C56.913,61.2725 55.932,64.1855 55.336,67.2385 C55.177,68.0485 55.431,68.6305 56.091,69.1155 C58.177,70.6515 59.769,72.6075 60.916,74.9285 C61.26,75.6255 61.718,75.8655 62.426,75.3785 C62.874,75.0715 63.35,74.8025 63.822,74.5315 C65.498,73.5655 67.218,73.4265 69.059,74.0925 C69.78,74.3535 70.695,74.5825 71.377,74.3665 C76.457,72.7545 81.298,73.7005 85.959,75.7665 C92.007,78.4475 97.451,82.0345 101.328,87.5515 C102.301,88.9345 103.057,90.5555 103.538,92.1785 C104.487,95.3855 103.212,98.1575 100.241,99.7195 C96.554,101.6575 92.569,101.9065 88.562,101.2995 C85.253,100.7975 81.995,99.9605 78.715,99.2725 C78.405,99.2885 78.185,99.3925 78.239,99.7615" id="Fill-9" fill="#92A95C" mask="url(#masterstickersplant-1-mask-4)"/>
                </g>
                <path d="M36.8894,43.1727 C36.7574,43.4257 36.6254,43.6777 36.4934,43.9307 C35.6894,43.8317 35.2214,44.4167 34.6734,44.8357 C33.5774,45.5127 32.7054,46.4477 31.7944,47.3267 C31.4764,47.6867 31.5324,48.0487 31.7994,48.4147 C32.6624,49.7167 33.5464,50.9927 34.6324,52.1157 L34.6134,52.0897 C34.5934,52.5607 34.4104,53.1067 34.5834,53.4887 C35.2824,55.0207 36.0904,56.5027 36.8594,58.0027 C37.3594,58.7397 37.7924,59.5157 38.1534,60.3317 C38.6424,61.3537 39.1314,62.3737 39.6204,63.3957 C39.8234,63.8387 40.1284,64.2287 40.2834,64.6947 C40.7024,65.5317 41.3044,66.0727 42.3174,65.9437 C43.9114,65.6227 45.5084,65.6537 47.1054,65.9217 C48.8164,66.0827 50.1314,66.8827 51.0364,68.3477 C52.0804,69.8757 52.2424,71.5617 51.9224,73.3317 C51.8034,73.8767 51.6844,74.4207 51.5654,74.9657 C51.4674,76.0397 50.9654,76.9757 50.5514,77.9427 C50.3874,78.4007 50.2244,78.8597 50.0614,79.3187 C49.9324,79.7917 49.6304,80.1817 49.4334,80.6217 C49.2034,81.1837 49.0674,81.8107 48.7254,82.2927 C47.7924,83.6087 47.6844,84.9997 48.1134,86.4907 C48.2054,86.8537 48.2684,87.2217 48.3224,87.5907 L48.6064,88.6867 C48.7284,89.0357 48.7904,89.3977 48.8104,89.7667 C48.9304,90.3147 49.0504,90.8617 49.1714,91.4097 C49.4294,92.0637 49.1264,92.6507 48.9564,93.2547 C47.9324,94.6117 47.5564,94.6057 46.4864,93.2097 C46.3464,92.7447 46.0304,92.3507 45.9524,91.8617 C45.7874,91.1877 45.6244,90.5127 45.4604,89.8377 C45.2404,89.3487 44.8604,89.2537 44.3814,89.4007 C42.1514,92.8557 39.6364,96.0817 36.7014,98.9707 C35.7174,100.1157 34.6524,101.1807 33.5074,102.1657 C32.6524,102.9097 31.7964,103.6537 30.9414,104.3997 C30.7014,105.4977 30.8304,106.6107 30.8084,107.7187 C30.8424,108.0787 30.9084,108.4407 30.9054,108.8007 C30.8794,111.3567 31.3554,113.6187 34.0404,114.7807 C34.4924,114.9767 34.7844,115.5397 35.1504,115.9337 C35.6394,116.4307 36.2224,116.4657 36.8514,116.2807 L38.2344,115.7747 C38.6844,115.6247 39.0774,115.3207 39.5694,115.2827 C39.9374,115.1837 40.3044,115.0837 40.6724,114.9837 C42.4404,114.5947 44.1064,114.7937 45.6264,115.8387 C45.7924,115.8537 45.9274,115.9247 46.0344,116.0517 C46.6374,116.4557 47.1404,116.9587 47.5394,117.5667 C47.9034,118.4807 48.2664,119.3937 48.6294,120.3067 C48.8574,121.5467 48.8764,122.7847 48.6134,124.0237 C48.5304,124.3887 48.4484,124.7547 48.3654,125.1207 C48.2924,125.6207 47.9314,126.0247 47.8914,126.5347 C46.7544,130.5477 44.2714,133.4897 40.7064,135.5717 C39.9844,136.0747 39.2364,136.5287 38.3874,136.7957 C37.7694,136.9777 37.1514,137.1597 36.5334,137.3417 C36.0554,137.3797 35.6614,137.7327 35.1664,137.7027 L32.4394,137.6937 C32.0974,137.7197 31.8444,137.8847 31.6704,138.1777 C31.5694,140.7377 31.4664,143.2977 31.3644,145.8577 C31.7804,146.4177 32.3764,146.4387 32.9934,146.4017 C33.2664,146.3577 33.5404,146.3127 33.8154,146.2677 C35.1344,145.7377 36.4934,145.8347 37.8564,146.0107 C39.4494,146.2097 40.4344,147.2247 41.2134,148.5147 C41.8274,149.3727 42.1484,150.3437 42.3144,151.3747 C43.0484,153.5497 42.8134,155.7147 42.2504,157.8767 C42.2414,158.2337 42.1834,158.5817 42.0714,158.9207 C41.9664,159.2857 41.8634,159.6507 41.7584,160.0157 C41.6344,161.0727 41.2074,162.0217 40.7104,162.9447 C39.7344,165.9807 37.9564,168.4627 35.3524,170.2737 C34.4164,170.9237 33.2374,171.2247 32.1684,171.6847 C31.6944,171.7297 31.3004,172.0787 30.8064,172.0517 C29.8584,172.1417 29.1554,172.3797 29.1104,173.5937 C29.0494,175.2637 28.7994,176.9267 28.6304,178.5927 C28.6054,179.3097 28.6604,180.0317 28.4944,180.7397 C28.3554,182.7517 28.2144,184.7627 28.0744,186.7737 C28.0824,187.7417 28.0944,188.7117 28.0754,189.6807 C28.0494,190.8827 28.6804,191.2297 29.7554,191.0677 C31.8434,190.2077 33.6534,191.0277 35.2824,192.1817 C37.5494,193.7867 39.1444,195.9017 39.3794,198.8107 C39.5764,200.2327 39.6434,201.6527 39.3274,203.0687 C39.2344,203.4387 39.1424,203.8077 39.0504,204.1767 C39.0144,204.6727 38.6934,205.0687 38.5764,205.5367 C38.4174,205.9897 38.2594,206.4427 38.1004,206.8957 C37.9514,207.3597 37.6534,207.7457 37.4224,208.1667 C35.5714,211.7177 33.1464,214.6207 29.0254,215.6087 C28.8084,215.9637 28.6074,216.3227 28.6414,216.7607 C28.7724,217.8617 28.9034,218.9647 29.0344,220.0667 C29.1724,220.5917 29.1604,221.1327 29.1934,221.6697 C29.3284,222.5857 29.4644,223.5027 29.6004,224.4197 C29.6734,224.7707 29.7104,225.1247 29.7224,225.4817 L29.9304,227.3677 C29.9424,227.8757 30.2964,228.2987 30.2894,228.8117 C32.0924,228.5917 33.8944,228.3717 35.6974,228.1517 C36.1864,228.1767 36.5724,228.5007 37.0324,228.6107 C38.4464,229.0977 39.5724,229.9107 40.1394,231.3567 C40.7034,232.2407 41.0774,233.1957 41.2054,234.2417 C41.9154,235.8777 41.4084,237.4957 41.1354,239.1177 C41.1814,239.6067 40.8554,239.9947 40.7754,240.4497 C40.1494,244.1527 38.4914,247.2957 35.5644,249.6757 C34.8664,250.2437 34.4014,250.7767 34.4754,251.6887 C34.5674,252.0327 34.6154,252.3847 34.6264,252.7407 C34.8034,253.6557 34.9814,254.5707 35.1584,255.4857 C35.7164,256.1797 36.5964,255.9177 37.2924,256.2037 C37.6604,256.2937 38.0274,256.3837 38.3934,256.4737 C39.4574,256.6267 40.4074,257.1087 41.3814,257.5187 C45.0594,258.8727 47.6824,261.2807 48.9164,265.0737 C49.0634,265.5257 49.3674,265.9197 49.4024,266.4117 C49.5034,266.7777 49.6054,267.1457 49.7064,267.5117 C49.8844,268.0277 49.8714,268.5697 49.9174,269.1047 C49.9104,270.0097 49.9024,270.9147 49.8934,271.8187 C49.7854,272.8387 49.5034,273.7887 48.8074,274.5747 C48.0384,275.8217 46.9164,276.4587 45.4614,276.5257 C44.7744,276.7657 44.0814,276.7507 43.3874,276.5637 L41.7464,276.2237 C41.2524,276.2177 40.8664,275.9057 40.4234,275.7547 C40.3344,275.7417 40.2424,275.7417 40.1584,275.7147 C37.3054,274.8107 37.3424,274.8307 37.5694,277.6867 C37.7444,279.9137 37.7104,282.1587 37.7694,284.3957 C37.9184,284.8357 38.1294,285.2187 38.6304,285.3377 C38.9274,285.3707 39.2254,285.4037 39.5234,285.4377 C40.3984,285.5137 41.0844,285.9587 41.6974,286.5477 C41.9224,286.8417 42.1474,287.1367 42.3714,287.4307 C42.5184,287.8757 42.8264,288.2587 42.8724,288.7417 C42.8444,289.6457 42.8154,290.5487 42.7854,291.4517 C42.8064,291.9307 42.5184,292.3087 42.3674,292.7297 C41.3694,294.4137 40.6104,296.3177 39.3114,297.7227 C37.9464,299.1997 37.1134,300.6947 37.0304,302.6677 C37.0034,303.2937 36.8684,303.9147 36.7844,304.5387 C36.7874,304.8947 36.7554,305.2467 36.6814,305.5957 C36.5474,306.5117 36.4134,307.4287 36.2804,308.3447 C36.2574,308.7037 36.2214,309.0627 36.1594,309.4167 C36.0054,310.3347 35.8524,311.2527 35.6994,312.1697 C35.6904,312.5957 35.8674,312.9627 36.0554,313.3267 C36.4704,313.5677 36.8864,313.8087 37.3024,314.0487 C37.7204,314.2637 38.0974,314.5307 38.3754,314.9197 C39.9154,316.1217 40.8464,317.7047 41.2874,319.5917 C41.4314,320.0397 41.7324,320.4347 41.7424,320.9287 C41.8524,321.4797 41.9614,322.0297 42.0714,322.5807 C42.3284,323.6367 42.2974,324.6947 42.1034,325.7557 C41.9574,327.4717 41.5244,329.0527 40.0494,330.1477 C39.4394,330.7867 38.6724,331.1517 37.8434,331.4087 C36.9664,331.4007 36.0894,331.3927 35.2124,331.3847 C34.7284,331.2897 34.3354,330.9767 33.8764,330.8217 C33.5944,330.6897 33.3114,330.5567 33.0294,330.4237 C32.5434,330.2667 32.1544,330.3177 32.0064,330.8947 C31.8004,331.9067 31.5954,332.9207 31.3894,333.9337 C31.3424,334.5177 31.3364,335.0977 31.5324,335.6617 C32.2284,336.4997 32.9254,337.3387 33.6214,338.1777 C34.5434,340.2177 34.0104,342.1337 33.1204,344.0187 C32.4584,346.2167 31.1654,347.9597 29.3174,349.3037 C28.6024,349.6987 28.5524,350.8257 27.5534,350.9087 C23.8304,352.6937 21.7274,351.5687 20.8364,347.3187 C20.3134,346.0007 20.3834,344.6477 20.6044,343.2857 C20.7224,342.7387 20.8404,342.1927 20.9594,341.6467 C20.9694,341.1517 21.2744,340.7567 21.4114,340.3047 C21.5724,339.8467 21.7334,339.3887 21.8934,338.9307 C22.0314,338.4687 22.3144,338.0857 22.5744,337.6907 C23.7504,335.2247 25.5864,333.6827 28.4094,333.5197 C28.5234,333.1357 28.6714,332.7627 28.7904,332.3807 C28.9114,331.8327 29.0324,331.2847 29.1534,330.7377 C29.1454,330.2347 29.4844,329.8237 29.5254,329.3337 C29.6754,328.3187 29.4664,327.4717 28.6514,326.7337 C28.0114,326.1567 27.5324,325.4007 26.9814,324.7247 C26.6484,324.3867 26.3744,324.0067 26.1884,323.5677 C26.0604,323.2757 25.9324,322.9837 25.8044,322.6907 C25.6174,322.2627 25.3204,321.8787 25.2804,321.3917 C25.1844,321.0247 25.0874,320.6567 24.9924,320.2887 C24.7404,319.2337 24.7504,318.1777 24.9814,317.1207 C25.0734,316.7567 25.1654,316.3927 25.2574,316.0277 C25.3224,315.5407 25.6224,315.1497 25.7874,314.7017 C27.4484,311.6967 28.3374,311.2537 31.9054,311.6517 C32.3514,311.6357 32.6914,311.4017 33.0054,311.1147 C33.1814,310.0117 33.3584,308.9077 33.5344,307.8047 C33.5404,307.4467 33.5764,307.0937 33.6514,306.7427 C33.7944,305.6437 33.9394,304.5427 34.0834,303.4427 C33.9694,302.5747 33.5014,302.4217 32.7484,302.7417 C32.0864,303.0247 31.4774,303.4347 30.7574,303.5787 C30.1364,303.7737 29.5144,303.9677 28.8934,304.1617 C28.3964,304.2267 27.9934,304.5707 27.4934,304.6267 C27.1254,304.7187 26.7584,304.8107 26.3904,304.9007 C24.4854,305.2067 22.6124,305.3087 20.9754,303.9987 C20.5814,303.5127 20.1894,303.0257 19.7954,302.5387 C19.6244,302.0997 19.3304,301.7067 19.2804,301.2197 C18.7594,299.9677 18.8384,298.7237 19.3254,297.4837 C19.3324,296.9817 19.6674,296.5727 19.7264,296.0857 L20.2564,294.2227 C20.3964,293.7437 20.7274,293.3527 20.8694,292.8747 C21.1764,292.2327 21.4824,291.5897 21.7884,290.9477 C22.0024,290.5097 22.3014,290.1287 22.5914,289.7407 C22.6184,289.5657 22.7014,289.4207 22.8404,289.3087 C23.0814,288.8947 23.3624,288.5127 23.7324,288.2027 C24.6354,286.8637 25.8624,285.9367 27.3574,285.3507 C28.2824,284.8817 29.2104,284.4217 30.2684,284.3347 L32.4334,284.3347 C33.2394,284.2137 34.0004,285.1807 34.8314,284.4327 C34.8034,283.1247 34.7744,281.8177 34.7454,280.5097 C34.5624,279.6197 34.6534,278.7187 34.6294,277.8207 C34.5814,277.0077 34.5324,276.1927 34.4864,275.3797 C34.3744,273.4297 33.8074,271.8067 32.2784,270.3507 C30.8014,268.9447 29.7934,267.0457 28.5794,265.3637 C27.7224,264.1907 27.1704,262.8897 26.9464,261.4517 C26.6574,259.5237 26.8314,257.8067 28.9774,256.9847 C29.3994,256.8377 29.7774,256.5487 30.2564,256.5767 C31.3344,256.5187 32.2524,256.3177 31.9044,254.8677 C31.7994,254.4367 31.7324,253.9917 31.6954,253.5487 C31.5654,251.9917 30.8294,251.0807 29.1734,251.1137 C28.6874,251.1277 28.3074,250.8117 27.8654,250.6917 C23.4774,249.1807 20.6714,246.0237 18.7584,241.9377 C18.2794,241.2037 17.7974,240.4707 17.5754,239.6067 C17.3794,238.9897 17.1834,238.3737 16.9874,237.7577 C16.9524,237.2497 16.5944,236.8437 16.5404,236.3417 C16.4574,235.9717 16.3754,235.6017 16.2934,235.2307 C15.9974,234.1797 16.0514,233.1227 16.2394,232.0647 C16.3364,231.7017 16.4344,231.3407 16.5324,230.9797 C16.5984,230.5017 16.8714,230.1217 17.1154,229.7277 C17.8424,227.9697 19.2204,227.0517 21.0294,226.6877 C22.0404,226.4847 23.0264,226.5707 23.9864,226.9497 L25.8614,227.6357 C26.3184,227.6477 26.7624,227.6307 26.9644,227.1077 C26.8404,226.3697 26.7164,225.6317 26.5924,224.8947 C26.4444,224.3697 26.4564,223.8277 26.4164,223.2927 L26.0274,220.5387 C25.9004,220.0117 25.9104,219.4707 25.8824,218.9337 C25.5404,217.5697 25.1994,216.2057 24.8574,214.8427 C24.4174,214.6507 24.0364,214.3687 23.6814,214.0517 C22.4164,212.7847 21.1514,211.5187 19.8864,210.2507 C19.5644,209.8947 19.2794,209.5107 19.0604,209.0807 C18.5754,208.0717 18.0894,207.0647 17.6044,206.0567 C17.4524,205.5907 17.1364,205.1957 17.0204,204.7147 C16.6614,203.5377 16.3024,202.3607 15.9444,201.1857 C15.7204,200.5777 15.4854,199.9737 15.5314,199.3077 C15.5354,198.4007 15.5404,197.4917 15.5454,196.5847 C15.5174,196.0907 15.8644,195.6977 15.9134,195.2257 C16.1244,193.5277 17.0904,192.2607 18.3654,191.2517 C20.1854,189.8117 22.1484,189.3377 24.2294,190.7867 C24.5094,190.9527 24.7354,190.9077 24.8994,190.6167 C25.0534,188.2437 25.2074,185.8707 25.3624,183.4987 C25.3654,182.9617 25.3564,182.4237 25.4754,181.8947 C25.6144,180.2497 25.7524,178.6057 25.8914,176.9597 C25.9104,176.4217 25.9014,175.8807 26.0044,175.3487 C26.3264,172.8977 25.7424,171.0207 23.5704,169.3827 C21.9994,168.1987 21.0734,166.1607 19.8594,164.5027 C19.5804,164.1107 19.2874,163.7287 19.0974,163.2807 C18.6024,162.2717 18.1064,161.2607 17.6114,160.2507 C17.4484,159.7807 17.1214,159.3917 16.9664,158.9187 C16.8134,158.4607 16.6594,158.0027 16.5054,157.5447 C16.3694,157.0877 16.0594,156.6927 16.0244,156.1987 C15.9184,155.8347 15.8134,155.4707 15.7074,155.1057 C15.6054,154.7637 15.5514,154.4137 15.5364,154.0577 C15.1824,152.6217 14.8324,151.1867 15.4834,149.7387 C15.6414,148.7007 15.9914,147.7357 16.5714,146.8577 C17.4524,144.9067 18.9224,143.7017 21.0464,143.3267 C21.9224,143.1067 22.7994,143.1167 23.6784,143.3117 C24.9494,143.8927 26.2204,144.4747 27.4924,145.0567 C27.9514,145.2617 28.3224,145.1657 28.5944,144.7337 C28.6034,144.3897 28.6134,144.0457 28.6214,143.7017 C28.6764,142.4407 28.5344,141.1727 28.7454,139.9157 C28.7224,139.3957 28.6154,138.8607 28.6924,138.3557 C28.9344,136.7807 28.2384,135.6907 27.0244,134.8237 C26.4124,134.4007 25.8864,133.8847 25.4064,133.3187 C25.2154,133.1277 25.0244,132.9377 24.8334,132.7457 C24.4514,132.4377 24.1284,132.0707 23.8324,131.6807 C23.2314,130.8167 22.6284,129.9507 22.0274,129.0867 C21.1994,127.8827 20.6194,126.5757 20.3964,125.1227 L20.0854,123.4737 C19.8394,122.4187 19.8334,121.3637 20.0924,120.3107 C20.2034,119.7597 20.3154,119.2097 20.4274,118.6597 C20.4204,118.1687 20.7114,117.7877 20.9004,117.3687 C21.7324,114.7517 23.5634,113.2307 26.1554,112.4937 C28.1694,111.9217 28.1584,111.8927 28.1574,109.8357 C28.1574,109.2997 28.1884,108.7637 28.2054,108.2277 C28.1434,107.0787 27.9434,106.0297 26.4974,105.8937 C25.0004,105.8807 23.9644,105.0997 23.1734,103.9047 C22.8234,103.5707 22.5354,103.1887 22.2884,102.7727 C22.1534,102.6547 22.0744,102.5077 22.0504,102.3297 C21.2774,101.2947 20.7304,100.1397 20.2564,98.9447 L19.7644,97.5917 C19.6494,97.1027 19.3104,96.7077 19.1884,96.2217 C19.0094,95.5987 18.8304,94.9747 18.6524,94.3517 C18.3674,93.3517 17.7234,92.4607 17.7454,91.3667 C17.6724,90.9157 17.5994,90.4637 17.5254,90.0117 C17.4964,89.5167 17.1514,89.1047 17.1564,88.6017 L16.7894,86.4097 C16.5914,85.7077 16.6634,84.9837 16.6134,84.2687 L16.6164,79.3727 C16.6454,78.8357 16.6344,78.2947 16.7804,77.7697 C16.8974,77.2257 17.0144,76.6807 17.1314,76.1367 C17.2214,75.0557 17.7594,74.1227 18.1294,73.1357 C18.9334,70.3487 20.7004,68.2287 22.9324,66.5087 C25.0734,64.8597 27.5174,64.0957 30.2544,64.6237 C30.7464,64.6197 31.1354,64.9537 31.6004,65.0357 C33.4364,65.3157 34.6134,66.5857 35.8424,67.8037 C36.1094,68.0687 36.5694,68.1377 36.9394,68.2967 C37.0554,67.8917 37.2604,67.4857 37.2574,67.0817 C37.2554,66.7467 37.0364,66.3967 36.8624,66.0807 C34.2774,61.4017 31.6864,56.7257 29.0844,52.0557 C28.8664,51.6627 28.5364,51.3327 28.2874,50.9537 C27.6794,50.0257 27.0584,49.9057 26.0524,50.5447 C23.9174,51.9007 21.6814,53.0977 19.4874,54.3597 C18.3814,55.0217 17.2744,55.6807 16.0394,56.0847 C15.5774,56.2527 15.1164,56.4207 14.6544,56.5887 C14.2044,56.7417 13.8114,57.0457 13.3214,57.0927 C12.2324,57.3807 11.1434,57.6687 10.0544,57.9557 C9.7114,58.0487 9.3624,58.0917 9.0064,58.0937 C7.7344,58.0997 6.4614,58.1047 5.1894,58.1097 C4.7024,58.1257 4.3194,57.8107 3.8704,57.6987 C3.5974,57.5867 3.3234,57.4757 3.0484,57.3637 C2.4274,56.9947 1.9324,56.4977 1.5514,55.8867 C1.4384,55.6207 1.3254,55.3557 1.2114,55.0887 C1.1274,54.6017 0.7934,54.1987 0.7384,53.7007 C-0.0206,51.8807 0.5504,50.0857 0.8454,48.2857 C0.8004,47.7927 1.1554,47.3967 1.1804,46.9187 C1.3924,45.9377 1.6044,44.9547 1.8154,43.9737 C1.8794,43.4757 2.2244,43.0717 2.2924,42.5747 L2.8524,40.7057 C2.9644,40.2217 3.2864,39.8267 3.4244,39.3537 C4.9294,34.9057 7.7654,31.2877 10.6714,27.7137 C13.0804,24.7527 15.7844,22.1347 19.2584,20.4297 C19.6574,20.1697 20.0394,19.8827 20.4994,19.7327 C21.4814,19.3767 22.4634,19.0227 23.4454,18.6677 C23.9454,18.6177 24.3514,18.2697 24.8524,18.2227 C25.2204,18.1327 25.5874,18.0417 25.9554,17.9517 C26.4674,17.7617 27.0044,17.7717 27.5374,17.7527 C28.5064,17.7317 29.4904,17.5967 30.4424,17.7117 C32.6234,17.9767 34.2704,18.9867 34.7904,21.3087 C35.1254,22.0607 35.0834,22.9217 35.4724,23.6587 C36.2334,23.3027 36.9934,22.9447 37.7544,22.5887 C38.1764,22.3607 38.5664,22.0697 39.0314,21.9217 C39.4894,21.7637 39.9464,21.6057 40.4044,21.4467 C40.8404,21.3277 41.2144,21.0057 41.7014,21.0547 C42.4274,21.0367 43.1544,21.0207 43.8794,21.0027 C44.3684,21.0057 44.7534,21.3277 45.2084,21.4357 C47.5544,23.0057 47.9174,24.0197 47.1974,26.9897 C47.1834,27.4847 46.8794,27.8787 46.7414,28.3297 C46.1044,31.0257 44.4234,33.1537 42.8434,35.3117 C41.7364,36.8227 40.3654,38.1417 39.2164,39.6267 C38.3554,40.7417 37.6594,41.9857 36.8894,43.1727" id="Fill-12" fill="#92A95C"/>
                <path d="M34.698,356.365 C34.791,356.735 34.883,357.105 34.975,357.476 C35.167,357.987 35.156,358.523 35.177,359.056 C35.198,360.196 35.299,361.341 35.22,362.473 C35.114,364.024 34.522,365.367 33.103,366.205 C32.722,366.446 32.347,366.699 31.881,366.747 C28.618,366.853 27.539,365.936 26.615,362.27 C26.384,360.733 26.264,359.201 26.842,357.703 C26.879,357.429 26.917,357.157 26.954,356.884 C27.003,356.347 26.989,355.803 27.152,355.282 C27.447,354.18 27.742,353.079 28.038,351.976 C28.168,351.36 28.53,350.957 29.14,350.784 C31.457,350.463 32.125,350.868 33.595,353.482 C34.176,354.362 34.515,355.334 34.698,356.365" id="Fill-14" fill="#94AA5E"/>
                <path d="M29.7556,191.0681 C29.3506,191.7301 28.6766,191.8931 28.1256,191.5231 C27.7776,191.2891 27.5476,190.6091 27.5726,190.1461 C27.6346,189.0151 27.1056,187.7711 28.0736,186.7731 C28.1576,187.6491 28.3016,188.5251 28.3116,189.4031 C28.3226,190.4131 28.9336,190.8091 29.7556,191.0681" id="Fill-16" fill="#A6B879"/>
                <path d="M33.1208,344.0184 C33.2878,342.0714 33.4548,340.1244 33.6218,338.1774 C35.1428,340.2694 34.3978,342.1664 33.1208,344.0184" id="Fill-18" fill="#A6B879"/>
                <path d="M20.9753,303.9988 C22.7813,304.2998 24.5853,304.6008 26.3903,304.9008 C24.3923,305.7608 22.5493,305.6858 20.9753,303.9988" id="Fill-20" fill="#A6B879"/>
                <path d="M47.1052,65.9217 C45.5122,66.4767 43.9162,66.4517 42.3172,65.9437 C43.9102,65.1467 45.5052,65.1417 47.1052,65.9217" id="Fill-22" fill="#A6B879"/>
                <path d="M45.6267,115.8387 C43.9757,115.5537 42.3237,115.2697 40.6727,114.9847 C42.5287,114.0767 44.1747,114.3977 45.6267,115.8387" id="Fill-24" fill="#A6B879"/>
                <path d="M51.9226,73.3318 C51.6276,71.6698 51.3316,70.0088 51.0366,68.3478 C52.5106,69.7998 52.7206,71.4768 51.9226,73.3318" id="Fill-26" fill="#A6B879"/>
                <path d="M39.3269,203.0691 C38.8039,201.6421 38.7389,200.2221 39.3799,198.8101 C40.0859,200.2391 40.1129,201.6591 39.3269,203.0691" id="Fill-28" fill="#A6B879"/>
                <path d="M26.8416,357.7029 C26.7656,359.2249 26.6906,360.7479 26.6146,362.2699 C25.8916,360.7089 25.7366,359.1749 26.8416,357.7029" id="Fill-30" fill="#A6B879"/>
                <path d="M33.5076,102.1658 C34.0656,100.5948 35.1306,99.5298 36.7006,98.9708 C36.0576,100.4558 34.9956,101.5238 33.5076,102.1658" id="Fill-32" fill="#A6B879"/>
                <path d="M30.7576,303.5789 C31.6266,303.0289 32.4676,302.4229 33.3846,301.9679 C33.6306,301.8459 34.1066,302.1859 34.4776,302.3149 C34.3456,302.6899 34.2146,303.0659 34.0836,303.441909 C33.6256,302.8779 33.1176,302.8649 32.4666,303.1569 C31.9396,303.3929 31.3306,303.4449 30.7576,303.5789" id="Fill-34" fill="#A6B879"/>
                <path d="M37.8562,146.0105 C36.5502,146.7485 35.1752,146.3845 33.8152,146.2675 C35.1052,145.2765 36.4552,145.2385 37.8562,146.0105" id="Fill-36" fill="#A6B879"/>
                <path d="M28.7458,139.9158 C29.3458,141.1988 29.4748,142.4668 28.6218,143.7018 C28.1428,142.4228 28.2048,141.1618 28.7458,139.9158" id="Fill-38" fill="#A6B879"/>
                <path d="M48.613,124.0232 C48.071,122.7822 48.054,121.5432 48.63,120.3062 C49.319,121.5482 49.306,122.7872 48.613,124.0232" id="Fill-40" fill="#A6B879"/>
                <path d="M20.6042,343.2859 C20.6812,344.6309 20.7592,345.9749 20.8362,347.3189 C19.7872,346.0309 19.9492,344.6729 20.6042,343.2859" id="Fill-42" fill="#A6B879"/>
                <path d="M26.4978,105.8933 C28.4998,105.5003 28.8918,106.0363 28.2058,108.2273 C27.7968,107.3313 27.5498,106.3183 26.4978,105.8933" id="Fill-44" fill="#A6B879"/>
                <path d="M20.3962,125.1228 C20.9402,126.4438 21.4832,127.7658 22.0272,129.0868 C20.7272,128.0768 20.3072,126.7048 20.3962,125.1228" id="Fill-46" fill="#A6B879"/>
                <path d="M26.946,261.4519 C27.491,262.7559 28.036,264.0589 28.58,265.3639 C27.306,264.3649 26.79,263.0489 26.946,261.4519" id="Fill-48" fill="#A6B879"/>
                <path d="M20.0925,120.3103 C20.6575,121.3663 20.6665,122.4193 20.0855,123.4733 C19.4295,122.4173 19.4235,121.3633 20.0925,120.3103" id="Fill-50" fill="#A6B879"/>
                <path d="M42.1033,325.7556 C41.4713,324.7036 41.5033,323.6456 42.0713,322.5806 C42.7493,323.6326 42.7173,324.6916 42.1033,325.7556" id="Fill-52" fill="#A6B879"/>
                <path d="M24.9812,317.1209 C25.5692,318.1749 25.5572,319.2309 24.9922,320.2889 C24.2822,319.2349 24.3002,318.1799 24.9812,317.1209" id="Fill-54" fill="#A6B879"/>
                <path d="M16.239,232.0642 C16.869,233.1092 16.818,234.1662 16.294,235.2302 C15.576,234.1872 15.593,233.1302 16.239,232.0642" id="Fill-56" fill="#A6B879"/>
                <path d="M20.2566,98.9451 C21.3676,99.8011 21.8326,101.0011 22.0506,102.3301 C20.8946,101.4981 20.3576,100.3381 20.2566,98.9451" id="Fill-58" fill="#A6B879"/>
                <path d="M30.8083,107.7185 C30.0203,106.5785 29.8963,105.4655 30.9413,104.3995 C30.8963,105.5055 30.8523,106.6125 30.8083,107.7185" id="Fill-60" fill="#A6B879"/>
                <path d="M29.1404,350.784 C28.7724,351.181 28.4054,351.579 28.0374,351.976 C27.8754,351.621 27.7144,351.264 27.5534,350.909 L29.3174,349.304 C29.2574,349.797 29.1994,350.29 29.1404,350.784" id="Fill-62" fill="#A6B879"/>
                <path d="M34.6296,277.8211 C35.3946,278.6861 35.3466,279.5861 34.7456,280.5091 C34.2206,279.6341 34.1646,278.7391 34.6296,277.8211" id="Fill-64" fill="#A6B879"/>
                <path d="M23.9861,226.95 C23.0011,226.863 22.0141,226.775 21.0291,226.687 C22.0841,225.997 23.0711,226.071 23.9861,226.95" id="Fill-66" fill="#A6B879"/>
                <path d="M23.6785,143.3113 C22.8045,143.8843 21.9275,143.8783 21.0465,143.3273 C21.9195,142.6563 22.7975,142.6783 23.6785,143.3113" id="Fill-68" fill="#A6B879"/>
                <path d="M34.698,356.365 C34.331,355.404 33.963,354.443 33.595,353.482 C34.607,354.197 34.855,355.204 34.698,356.365" id="Fill-70" fill="#A6B879"/>
                <path d="M18.1296,73.1356 C17.7976,74.1356 17.4646,75.1366 17.1316,76.1366 C16.9176,74.9536 17.2376,73.9496 18.1296,73.1356" id="Fill-72" fill="#A6B879"/>
                <path d="M50.5515,77.9422 C50.8895,76.9502 51.2275,75.9582 51.5655,74.9652 C51.7655,76.1412 51.4395,77.1372 50.5515,77.9422" id="Fill-74" fill="#A6B879"/>
                <path d="M40.7107,162.9451 C41.0597,161.9681 41.4087,160.9921 41.7587,160.0151 C41.9407,161.1821 41.6427,162.1761 40.7107,162.9451" id="Fill-76" fill="#A6B879"/>
                <path d="M41.3816,257.5183 C40.2536,257.5453 39.1956,257.3743 38.3936,256.4733 C39.5726,256.2963 40.5826,256.6043 41.3816,257.5183" id="Fill-78" fill="#A6B879"/>
                <path d="M34.8318,284.4324 C35.2058,284.9084 35.0458,285.3834 34.5108,285.2754 C33.7848,285.1274 33.1228,284.6624 32.4338,284.3344 C33.2328,284.3674 34.0318,284.3994 34.8318,284.4324" id="Fill-80" fill="#A6B879"/>
                <path d="M17.7458,91.367 C18.0478,92.362 18.3498,93.356 18.6518,94.351 C17.8518,93.508 17.4188,92.554 17.7458,91.367" id="Fill-82" fill="#A6B879"/>
                <path d="M42.3142,151.3748 C41.9472,150.4208 41.5802,149.4678 41.2132,148.5148 C42.2712,149.2018 42.5052,150.2058 42.3142,151.3748" id="Fill-84" fill="#A6B879"/>
                <path d="M30.2683,284.3347 C29.2973,284.6727 28.3283,285.0117 27.3573,285.3507 C28.1193,284.4127 29.0703,284.0217 30.2683,284.3347" id="Fill-86" fill="#A6B879"/>
                <path d="M16.571,146.8572 C16.209,147.8172 15.845,148.7782 15.483,149.7392 C15.271,148.5612 15.537,147.5642 16.571,146.8572" id="Fill-88" fill="#A6B879"/>
                <path d="M48.8074,274.575 C49.1694,273.657 49.5314,272.738 49.8934,271.819 C50.2074,273.005 49.9134,273.95 48.8074,274.575" id="Fill-90" fill="#A6B879"/>
                <path d="M41.2058,234.242 L40.1398,231.356 C41.1668,232.07 41.4318,233.065 41.2058,234.242" id="Fill-92" fill="#A6B879"/>
                <path d="M43.3875,276.5633 C44.0685,276.0063 44.7605,276.0233 45.4615,276.5253 C44.7815,277.1603 44.0885,277.1183 43.3875,276.5633" id="Fill-94" fill="#A6B879"/>
                <path d="M41.697,286.5476 L39.523,285.4376 C40.612,285.0936 41.27,285.5956 41.697,286.5476" id="Fill-96" fill="#A6B879"/>
                <path d="M16.613,84.2683 C17.387,84.9233 17.378,85.6423 16.79,86.4103 C16.217,85.7383 16.174,85.0233 16.613,84.2683" id="Fill-98" fill="#A6B879"/>
                <path d="M37.8435,331.409 C38.5785,330.988 39.3145,330.568 40.0495,330.147 C39.6525,331.158 38.9115,331.57 37.8435,331.409" id="Fill-100" fill="#A6B879"/>
                <path d="M17.575,239.6062 C18.453,240.1372 18.756,240.9612 18.759,241.9372 C17.907,241.3922 17.434,240.6552 17.575,239.6062" id="Fill-102" fill="#A6B879"/>
                <path d="M28.4949,180.74 C27.8789,179.982 27.8729,179.263 28.6309,178.593 C28.5859,179.308 28.5409,180.024 28.4949,180.74" id="Fill-104" fill="#A6B879"/>
                <path d="M35.4724,23.659 C34.0124,23.233 34.7994,22.155 34.7904,21.308 C35.0174,22.092 35.2444,22.876 35.4724,23.659" id="Fill-106" fill="#A6B879"/>
                <path d="M37.2927,256.2039 C35.8817,256.7569 35.6507,256.6799 35.1577,255.4859 C35.8687,255.7249 36.5807,255.9649 37.2927,256.2039" id="Fill-108" fill="#A6B879"/>
                <path d="M38.3875,136.7957 C38.8945,135.8817 39.7335,135.5997 40.7065,135.5717 C40.1835,136.4527 39.4345,136.9067 38.3875,136.7957" id="Fill-110" fill="#A6B879"/>
                <path d="M25.406,133.3191 C26.344,133.3921 26.887,133.8901 27.024,134.8241 C26.109,134.7271 25.605,134.1861 25.406,133.3191" id="Fill-112" fill="#A6B879"/>
                <path d="M47.5398,117.5662 C46.6598,117.4372 46.1568,116.9332 46.0338,116.0512 C46.9468,116.1472 47.4538,116.6472 47.5398,117.5662" id="Fill-114" fill="#A6B879"/>
                <path d="M36.8513,116.281 C35.8383,117.257 35.7153,117.231 35.1503,115.933 C35.7163,116.049 36.2843,116.165 36.8513,116.281" id="Fill-116" fill="#A6B879"/>
                <path d="M49.9177,269.1043 C49.2377,268.6543 49.1657,268.1243 49.7067,267.5113 C50.2637,267.9783 50.3157,268.5113 49.9177,269.1043" id="Fill-118" fill="#A6B879"/>
                <path d="M27.5378,17.7527 C27.0848,18.4107 26.5588,18.4797 25.9558,17.9517 L27.5378,17.7527 Z" id="Fill-120" fill="#A6B879"/>
                <path d="M35.1765,359.0564 C34.5125,358.6054 34.4485,358.0774 34.9755,357.4764 C35.5415,357.9394 35.5645,358.4714 35.1765,359.0564" id="Fill-122" fill="#A6B879"/>
                <path d="M32.9929,146.4021 C31.8549,147.2001 31.7279,147.1571 31.3639,145.8571 L32.9929,146.4021 Z" id="Fill-124" fill="#A6B879"/>
                <path d="M48.9568,93.2547 C49.0278,92.6407 49.1008,92.0257 49.1718,91.4097 C49.8138,92.1087 49.5788,92.7037 48.9568,93.2547" id="Fill-126" fill="#A6B879"/>
                <path d="M26.9646,227.1072 C27.0156,227.4352 27.0656,227.7642 27.1156,228.0932 C26.6966,227.9402 26.2786,227.7882 25.8606,227.6352 C26.2296,227.4592 26.5966,227.2832 26.9646,227.1072" id="Fill-128" fill="#A6B879"/>
                <path d="M27.1521,355.282 C27.7071,355.892 27.6461,356.427 26.9541,356.884 C27.0201,356.349 27.0861,355.816 27.1521,355.282" id="Fill-130" fill="#A6B879"/>
                <path d="M26.4167,223.2928 C27.0977,223.7588 27.1647,224.2908 26.5927,224.8948 C26.5337,224.3598 26.4757,223.8258 26.4167,223.2928" id="Fill-132" fill="#A6B879"/>
                <path d="M29.1931,221.6697 C28.5151,221.1967 28.4521,220.6637 29.0341,220.0657 C29.0871,220.6007 29.1401,221.1347 29.1931,221.6697" id="Fill-134" fill="#A6B879"/>
                <path d="M16.78,77.7693 C17.351,78.3683 17.292,78.9013 16.616,79.3733 C16.671,78.8383 16.725,78.3043 16.78,77.7693" id="Fill-136" fill="#A6B879"/>
                <path d="M25.8826,218.9334 C26.5586,219.4124 26.6166,219.9464 26.0276,220.5384 C25.9786,220.0034 25.9306,219.4684 25.8826,218.9334" id="Fill-138" fill="#A6B879"/>
                <path d="M15.531,199.3074 C16.249,199.8054 16.085,200.4974 15.944,201.1854 C15.326,200.6644 15.049,200.0704 15.531,199.3074" id="Fill-140" fill="#A6B879"/>
                <path d="M26.0046,175.3484 C26.6116,175.9304 26.5676,176.4674 25.8916,176.9594 C25.9296,176.4224 25.9666,175.8854 26.0046,175.3484" id="Fill-142" fill="#A6B879"/>
                <path d="M31.532,335.6619 C30.578,335.1599 30.569,334.5809 31.389,333.9329 C31.437,334.5099 31.484,335.0859 31.532,335.6619" id="Fill-144" fill="#A6B879"/>
                <path d="M25.4753,181.8943 C26.0673,182.4733 26.0233,183.0073 25.3623,183.4983 C25.4003,182.9633 25.4373,182.4293 25.4753,181.8943" id="Fill-146" fill="#A6B879"/>
                <path d="M39.031,21.9217 C38.605,22.1447 38.179,22.3657 37.755,22.5887 C38.179,22.3657 38.605,22.1447 39.031,21.9217" id="Fill-148" fill="#A6B879"/>
                <path d="M24.8992,190.617 C24.9422,190.883 24.9852,191.148 25.0282,191.415 C24.7622,191.205 24.4962,190.996 24.2292,190.787 C24.4532,190.73 24.6752,190.674 24.8992,190.617" id="Fill-150" fill="#A6B879"/>
                <path d="M15.9138,195.2254 C15.7908,195.6784 15.6678,196.1314 15.5458,196.5844 C15.0978,195.9774 15.4638,195.5904 15.9138,195.2254" id="Fill-152" fill="#A6B879"/>
                <path d="M30.8064,172.0515 C31.2604,171.9295 31.7144,171.8065 32.1684,171.6845 C31.8014,172.1315 31.4154,172.5055 30.8064,172.0515" id="Fill-154" fill="#A6B879"/>
                <path d="M38.5769,205.5369 C38.7349,205.0839 38.8919,204.6299 39.0509,204.1769 C38.8919,204.6299 38.7349,205.0839 38.5769,205.5369" id="Fill-156" fill="#A6B879"/>
                <path d="M17.0203,204.7146 C17.2143,205.1616 17.4103,205.6096 17.6043,206.0566 C17.4103,205.6096 17.2143,205.1616 17.0203,204.7146" id="Fill-158" fill="#A6B879"/>
                <path d="M37.4226,208.1668 C37.6486,207.7428 37.8746,207.3188 38.1006,206.8958 C37.8746,207.3188 37.6486,207.7428 37.4226,208.1668" id="Fill-160" fill="#A6B879"/>
                <path d="M19.0603,209.0808 C19.3353,209.4708 19.6113,209.8608 19.8863,210.2508 C19.6113,209.8608 19.3353,209.4708 19.0603,209.0808" id="Fill-162" fill="#A6B879"/>
                <path d="M23.6814,214.0515 C24.0744,214.3155 24.4654,214.5785 24.8574,214.8425 C24.4654,214.5785 24.0744,214.3155 23.6814,214.0515" id="Fill-164" fill="#A6B879"/>
                <path d="M28.6414,216.7605 C27.8164,216.0595 28.3164,215.7995 29.0254,215.6095 L28.6414,216.7605 Z" id="Fill-166" fill="#A6B879"/>
                <path d="M19.0974,163.281 L19.8594,164.503 L19.0974,163.281 Z" id="Fill-168" fill="#A6B879"/>
                <path d="M16.9666,158.9187 C17.6296,159.1457 17.7616,159.6297 17.6116,160.2507 C17.3966,159.8067 17.1816,159.3627 16.9666,158.9187" id="Fill-170" fill="#A6B879"/>
                <path d="M42.071,158.9207 C41.588,158.4797 41.743,158.1477 42.251,157.8767 C42.19,158.2247 42.131,158.5717 42.071,158.9207" id="Fill-172" fill="#A6B879"/>
                <path d="M29.7224,225.4812 C29.2094,225.1812 29.0914,224.8362 29.6004,224.4192 C29.6414,224.7742 29.6814,225.1272 29.7224,225.4812" id="Fill-174" fill="#A6B879"/>
                <path d="M16.0242,156.199 C16.1852,156.647 16.3452,157.096 16.5052,157.545 C16.3452,157.096 16.1852,156.647 16.0242,156.199" id="Fill-176" fill="#A6B879"/>
                <path d="M15.5369,154.0574 C16.0339,154.3344 16.1849,154.6684 15.7079,155.1054 C15.6509,154.7564 15.5939,154.4074 15.5369,154.0574" id="Fill-178" fill="#A6B879"/>
                <path d="M30.2898,228.8113 C30.1698,228.3313 30.0498,227.8493 29.9308,227.3683 C30.0498,227.8493 30.1698,228.3313 30.2898,228.8113" id="Fill-180" fill="#A6B879"/>
                <path d="M37.032,228.6111 C36.587,228.4591 36.142,228.3051 35.697,228.1521 C36.342,227.7251 36.697,228.1391 37.032,228.6111" id="Fill-182" fill="#A6B879"/>
                <path d="M17.115,229.7273 C16.921,230.1443 16.726,230.5613 16.532,230.9793 C16.726,230.5613 16.921,230.1443 17.115,229.7273" id="Fill-184" fill="#A6B879"/>
                <path d="M28.5945,144.7332 L28.1145,145.7092 C27.9075,145.4912 27.6985,145.2742 27.4915,145.0562 C27.8595,144.9492 28.2265,144.8402 28.5945,144.7332" id="Fill-186" fill="#A6B879"/>
                <path d="M35.1667,137.7029 C35.6217,137.5829 36.0777,137.4629 36.5327,137.3419 C36.1637,137.7889 35.7767,138.1679 35.1667,137.7029" id="Fill-188" fill="#A6B879"/>
                <path d="M16.5408,236.3416 C16.6888,236.8146 16.8388,237.2856 16.9868,237.7576 C16.8388,237.2856 16.6888,236.8146 16.5408,236.3416" id="Fill-190" fill="#A6B879"/>
                <path d="M40.7751,240.45 C40.8951,240.006 41.0151,239.561 41.1351,239.118 C41.5951,239.719 41.2181,240.093 40.7751,240.45" id="Fill-192" fill="#A6B879"/>
                <path d="M31.6707,138.1775 C31.6727,137.9085 31.6737,137.6405 31.6757,137.3725 C31.9297,137.4805 32.1847,137.5875 32.4397,137.6945 C32.1837,137.8555 31.9277,138.0165 31.6707,138.1775" id="Fill-194" fill="#A6B879"/>
                <path d="M27.865,250.6912 C28.301,250.8322 28.737,250.9732 29.174,251.1142 C28.548,251.5592 28.197,251.1542 27.865,250.6912" id="Fill-196" fill="#A6B879"/>
                <path d="M34.6267,252.741 C34.1257,252.455 33.9857,252.117 34.4757,251.688 C34.5257,252.039 34.5767,252.39 34.6267,252.741" id="Fill-198" fill="#A6B879"/>
                <path d="M23.8337,131.6805 C24.1667,132.0355 24.4997,132.3905 24.8337,132.7455 C24.4997,132.3905 24.1667,132.0355 23.8337,131.6805" id="Fill-200" fill="#A6B879"/>
                <path d="M30.2566,256.5769 C29.8296,256.7139 29.4026,256.8489 28.9776,256.9849 C29.2926,256.5039 29.6416,256.1229 30.2566,256.5769" id="Fill-202" fill="#A6B879"/>
                <path d="M47.8914,126.5349 C47.6764,125.9379 47.7314,125.4319 48.3654,125.1209 C48.2064,125.5919 48.0484,126.0629 47.8914,126.5349" id="Fill-204" fill="#A6B879"/>
                <path d="M20.9001,117.3689 C20.7421,117.7989 20.5851,118.2289 20.4271,118.6599 C20.5851,118.2289 20.7421,117.7989 20.9001,117.3689" id="Fill-206" fill="#A6B879"/>
                <path d="M39.5691,115.283 C39.1251,115.447 38.6791,115.61 38.2341,115.774 C38.6791,115.61 39.1251,115.447 39.5691,115.283" id="Fill-208" fill="#A6B879"/>
                <path d="M49.4021,266.4119 C49.2401,265.9659 49.0781,265.5199 48.9171,265.0739 C49.0781,265.5199 49.2401,265.9659 49.4021,266.4119" id="Fill-210" fill="#A6B879"/>
                <path d="M46.741,28.3299 C46.892,27.8839 47.045,27.4369 47.197,26.9899 C47.045,27.4369 46.892,27.8839 46.741,28.3299" id="Fill-212" fill="#A6B879"/>
                <path d="M22.2888,102.7722 C22.5838,103.1492 22.8788,103.5272 23.1738,103.9052 C22.8788,103.5272 22.5838,103.1492 22.2888,102.7722" id="Fill-214" fill="#A6B879"/>
                <path d="M45.2087,21.4354 C44.7657,21.2904 44.3227,21.1464 43.8797,21.0024 C44.5107,20.5694 44.8737,20.9584 45.2087,21.4354" id="Fill-216" fill="#A6B879"/>
                <path d="M40.4236,275.7547 C40.8636,275.9107 41.3056,276.0667 41.7466,276.2237 C41.3056,276.0667 40.8636,275.9107 40.4236,275.7547" id="Fill-218" fill="#A6B879"/>
                <path d="M31.8806,366.7469 C32.2886,366.5659 32.6956,366.3859 33.1036,366.2049 C32.8536,366.7409 32.5456,367.1459 31.8806,366.7469" id="Fill-220" fill="#A6B879"/>
                <path d="M19.1882,96.2215 C19.8412,96.4845 19.9402,96.9805 19.7642,97.5915 C19.5722,97.1345 19.3792,96.6785 19.1882,96.2215" id="Fill-222" fill="#A6B879"/>
                <path d="M45.9519,91.8621 C46.1299,92.3111 46.3079,92.7601 46.4859,93.2101 C46.3079,92.7601 46.1309,92.3111 45.9519,91.8621" id="Fill-224" fill="#A6B879"/>
                <path d="M48.8103,89.7664 C48.3463,89.4814 48.0783,89.1594 48.6063,88.6864 C48.6733,89.0464 48.7423,89.4064 48.8103,89.7664" id="Fill-226" fill="#A6B879"/>
                <path d="M38.6306,285.3377 C37.9626,285.3717 37.1406,285.5467 37.7696,284.3957 C38.0566,284.7097 38.3436,285.0247 38.6306,285.3377" id="Fill-228" fill="#A6B879"/>
                <path d="M44.3816,89.4012 C44.6016,89.2042 44.8196,89.0062 45.0386,88.8092 L45.4606,89.8382 C45.1016,89.6922 44.7406,89.5472 44.3816,89.4012" id="Fill-230" fill="#A6B879"/>
                <path d="M42.8728,288.742 C42.7058,288.305 42.5388,287.868 42.3718,287.43 C42.8708,287.741 43.2938,288.08 42.8728,288.742" id="Fill-232" fill="#A6B879"/>
                <path d="M23.7322,288.2029 C23.4352,288.5709 23.1372,288.9399 22.8402,289.3079 C23.1372,288.9399 23.4352,288.5709 23.7322,288.2029" id="Fill-234" fill="#A6B879"/>
                <path d="M22.5916,289.741 L21.7886,290.948 L22.5916,289.741 Z" id="Fill-236" fill="#A6B879"/>
                <path d="M42.3669,292.7293 L42.7859,291.4523 C43.2339,292.0713 42.8349,292.4123 42.3669,292.7293" id="Fill-238" fill="#A6B879"/>
                <path d="M20.8699,292.8748 C21.0289,293.4898 20.9139,293.9788 20.2569,294.2228 C20.4609,293.7728 20.6659,293.3238 20.8699,292.8748" id="Fill-240" fill="#A6B879"/>
                <path d="M19.7273,296.0857 C19.5923,296.5517 19.4583,297.0177 19.3253,297.4827 C19.4583,297.0177 19.5923,296.5517 19.7273,296.0857" id="Fill-242" fill="#A6B879"/>
                <path d="M19.28,301.2195 C19.452,301.6595 19.624,302.0995 19.796,302.5385 C19.624,302.0995 19.452,301.6595 19.28,301.2195" id="Fill-244" fill="#A6B879"/>
                <path d="M17.156,88.6013 C17.279,89.0713 17.402,89.5413 17.525,90.0113 C17.402,89.5413 17.279,89.0713 17.156,88.6013" id="Fill-246" fill="#A6B879"/>
                <path d="M41.7019,21.0545 L40.4039,21.4475 C40.7369,20.9875 41.0939,20.6035 41.7019,21.0545" id="Fill-248" fill="#A6B879"/>
                <path d="M27.4929,304.6267 C27.9599,304.4717 28.4269,304.3167 28.8929,304.1617 C28.4269,304.3167 27.9599,304.4717 27.4929,304.6267" id="Fill-250" fill="#A6B879"/>
                <path d="M36.6814,305.5955 C36.1824,305.1915 36.2814,304.8455 36.7844,304.5385 C36.7494,304.8905 36.7154,305.2425 36.6814,305.5955" id="Fill-252" fill="#A6B879"/>
                <path d="M33.6511,306.743 C34.1541,307.157 34.0431,307.503 33.5341,307.805 C33.5731,307.451 33.6121,307.097 33.6511,306.743" id="Fill-254" fill="#A6B879"/>
                <path d="M36.1589,309.4168 C35.6359,308.9958 35.7559,308.6468 36.2799,308.3448 C36.2399,308.7018 36.1989,309.0598 36.1589,309.4168" id="Fill-256" fill="#A6B879"/>
                <path d="M33.0056,311.115 C32.9176,311.867 32.7456,312.446 31.9046,311.652 C32.2716,311.473 32.6386,311.294 33.0056,311.115" id="Fill-258" fill="#A6B879"/>
                <path d="M36.0554,313.3269 C35.3854,313.1109 34.9014,312.8379 35.6994,312.1699 C35.8174,312.5559 35.9364,312.9409 36.0554,313.3269" id="Fill-260" fill="#A6B879"/>
                <path d="M38.3757,314.9197 C38.0177,314.6297 37.6597,314.3387 37.3027,314.0487 C37.6597,314.3387 38.0177,314.6297 38.3757,314.9197" id="Fill-262" fill="#A6B879"/>
                <path d="M25.7878,314.7019 C25.6108,315.1439 25.4338,315.5859 25.2578,316.0279 C25.4338,315.5859 25.6108,315.1439 25.7878,314.7019" id="Fill-264" fill="#A6B879"/>
                <path d="M48.322,87.5906 C47.818,87.3066 47.523,86.9836 48.113,86.4906 C48.182,86.8576 48.252,87.2246 48.322,87.5906" id="Fill-266" fill="#A6B879"/>
                <path d="M41.7419,320.9285 C41.5909,320.4825 41.4389,320.0365 41.2879,319.5915 C41.4389,320.0365 41.5909,320.4825 41.7419,320.9285" id="Fill-268" fill="#A6B879"/>
                <path d="M25.28,321.3914 C25.455,321.8254 25.63,322.2574 25.804,322.6904 C25.63,322.2574 25.455,321.8254 25.28,321.3914" id="Fill-270" fill="#A6B879"/>
                <path d="M49.4333,80.6219 C49.6423,80.1869 49.8523,79.7539 50.0613,79.3189 C49.8523,79.7539 49.6423,80.1869 49.4333,80.6219" id="Fill-272" fill="#A6B879"/>
                <path d="M26.1882,323.5681 C26.4532,323.9541 26.7172,324.3391 26.9812,324.7241 C26.7172,324.3391 26.4532,323.9541 26.1882,323.5681" id="Fill-274" fill="#A6B879"/>
                <path d="M29.5251,329.3338 C29.4011,329.8018 29.2771,330.2708 29.1531,330.7378 C29.2771,330.2708 29.4011,329.8018 29.5251,329.3338" id="Fill-276" fill="#A6B879"/>
                <path d="M32.0066,330.8943 C32.1246,330.5403 32.2436,330.1873 32.3616,329.8323 C32.5846,330.0303 32.8076,330.2273 33.0286,330.4233 C32.6886,330.5813 32.3476,330.7373 32.0066,330.8943" id="Fill-278" fill="#A6B879"/>
                <path d="M33.8767,330.8221 C34.3217,331.0101 34.7677,331.1971 35.2127,331.3851 C34.7677,331.1971 34.3217,331.0101 33.8767,330.8221" id="Fill-280" fill="#A6B879"/>
                <path d="M28.7908,332.3807 C29.4028,333.0087 28.9288,333.2717 28.4088,333.5197 C28.5358,333.1407 28.6638,332.7607 28.7908,332.3807" id="Fill-282" fill="#A6B879"/>
                <path d="M22.574,337.6902 C22.347,338.1032 22.121,338.5172 21.893,338.9302 C22.121,338.5172 22.347,338.1032 22.574,337.6902" id="Fill-284" fill="#A6B879"/>
                <path d="M20.4998,19.7322 C20.0858,19.9642 19.6728,20.1972 19.2588,20.4292 C19.6728,20.1972 20.0858,19.9642 20.4998,19.7322" id="Fill-286" fill="#A6B879"/>
                <path d="M21.4119,340.3045 C21.2609,340.7515 21.1099,341.1995 20.9589,341.6465 C21.1099,341.1995 21.2609,340.7515 21.4119,340.3045" id="Fill-288" fill="#A6B879"/>
                <path d="M31.6003,65.0359 C31.1523,64.8979 30.7043,64.7619 30.2543,64.6239 C30.8733,64.2029 31.2493,64.5789 31.6003,65.0359" id="Fill-290" fill="#A6B879"/>
                <path d="M40.283,64.6951 C40.062,64.2611 39.842,63.8291 39.621,63.3951 C39.842,63.8291 40.062,64.2621 40.283,64.6951" id="Fill-292" fill="#A6B879"/>
                <path d="M24.8523,18.2225 C24.3833,18.3705 23.9153,18.5195 23.4453,18.6675 C23.9153,18.5195 24.3833,18.3705 24.8523,18.2225" id="Fill-294" fill="#A6B879"/>
                <path d="M111.239,99.7615 C111.235,99.5335 111.231,99.3075 111.227,99.0795 C111.389,99.1445 111.552,99.2075 111.715,99.2725 C111.555,99.4355 111.397,99.5985 111.239,99.7615" id="Fill-296" fill="#FFF"/>
            </g>
        </g>
    </g>
</svg>
