<svg viewBox="167.65 41.905 622.7 850.081" xmlns="http://www.w3.org/2000/svg" xmlns:xlink="http://www.w3.org/1999/xlink" overflow="visible">
    <defs>
        <polygon id="masterstickerskitchen-path-1" points="0 0.0277696839 289.0176 0.0277696839 289.0176 500 0 500"/>
        <polygon id="masterstickerskitchen-path-3" points="0.454123275 0.0398938204 284.984 0.0398938204 284.984 498.135099 0.454123275 498.135099"/>
    </defs>
    <g id="Master/Stickers/Kitchen" stroke="none" stroke-width="1" fill="none" fill-rule="evenodd">
        <g id="Scene" transform="translate(170.000000, 49.000000)">
            <g id="Kitchen" transform="translate(0.000000, 190.000434)">
                <g id="Group-3" transform="translate(0.000000, 146.522566)">
                    <mask id="masterstickerskitchen-mask-2" fill="#fff">
                        <use xlink:href="#masterstickerskitchen-path-1"/>
                    </mask>
                    <g id="Clip-2"/>
                    <path d="M288.8736,336.612 C288.8736,389.094 288.8596,441.578 288.9226,494.061 C288.9256,496.347 287.1066,497.274 286.2576,498.898 C286.1946,499.018 285.8786,499.04 285.6786,499.047 C282.2166,499.155 278.7516,499.342 275.2916,499.291 C274.4396,499.278 273.5416,498.56 272.7666,498.021 C270.9166,496.735 270.3536,494.979 270.4436,492.68 C270.6376,487.757 270.5386,482.819 270.4876,477.888 C270.4556,474.733 270.3306,471.579 270.1786,468.427 C270.0636,466.078 269.3366,465.444 266.8166,465.415 C256.8706,465.298 246.9236,465.169 236.9766,465.102 C218.1066,464.975 199.2376,464.878 180.3686,464.786 C157.5576,464.675 134.7446,464.512 111.9336,464.506 C93.2706,464.501 74.6086,464.674 55.9476,464.801 C46.1556,464.868 36.3646,464.971 26.5736,465.132 C24.4726,465.166 22.3636,465.442 20.2836,465.773 C19.8046,465.849 19.2046,466.541 19.0596,467.061 C18.7846,468.039 18.7246,469.095 18.7086,470.122 C18.5846,478.311 18.5066,486.501 18.3606,494.689 C18.3506,495.29 18.0306,495.961 17.6676,496.464 C16.9436,497.465 16.1346,498.415 15.2696,499.298 C14.9256,499.649 14.3446,499.952 13.8656,499.96 C10.5986,500.017 7.3296,499.979 4.0616,500.000166 C3.3796,500.000166 2.9246,499.901 2.6596,499.133 C2.4306,498.469 2.0436,497.727 1.5006,497.328 C0.0246,496.245 -0.0004,494.797 -0.0004,493.19 C0.0236,403.954 -0.0124,314.716 0.0416,225.48 C0.0846,154.269 0.2426,83.059 0.3166,11.848 C0.3216,7.166 2.5976,4.09 6.5306,1.971 C8.3416,0.996 10.2506,0.647 12.3286,0.642 C35.5556,0.586 58.7816,0.469 82.0086,0.358 C101.5006,0.263 120.9926,0.109 140.4836,0.062 C161.2606,0.012 182.0356,0.018 202.8106,0.072 C225.2086,0.129 247.6046,0.258 270.0026,0.383 C272.8946,0.4 275.7976,0.453 278.6746,0.718 C280.9266,0.926 282.8656,2.052 284.6606,3.447 C287.6136,5.74 288.5916,8.756 288.5886,12.409 C288.5476,66.605 288.5046,120.801 288.5806,174.998 C288.6566,228.869 288.8666,282.74 289.0176,336.611 C288.9696,336.612 288.9216,336.612 288.8736,336.612" id="Fill-1" fill="#FEEAD7" mask="url(#masterstickerskitchen-mask-2)"/>
                </g>
                <path d="M118.0338,79.2869663 C118.7078,78.9559663 119.4368,78.7039663 120.0478,78.2799663 C122.9818,76.2429663 125.8548,74.1139663 128.8118,72.1099663 C130.3418,71.0739663 132.1268,71.0839663 133.6748,71.9529663 C135.1558,72.7849663 135.2008,74.4049663 135.1148,75.9649663 C135.0348,77.3939663 134.0458,78.1649663 133.0468,78.9039663 C129.8838,81.2459663 126.6968,83.5559663 123.5168,85.8739663 C121.7608,87.1549663 119.9558,88.3779663 118.2608,89.7369663 C117.7158,90.1739663 117.2328,90.9159663 117.0928,91.5959663 C114.6788,103.194966 112.3388,114.809966 109.9428,126.413966 C109.3068,129.491966 109.2458,129.447966 106.0168,129.506966 C103.4818,129.553966 100.9488,129.688966 98.4148,129.785966 C97.9528,130.224966 97.3778,130.209966 96.8058,130.167966 C89.9758,129.665966 83.1378,130.024966 76.3038,129.965966 C75.7928,129.961966 75.2658,130.110966 74.7898,129.800966 C71.0198,129.799966 67.2508,129.798966 63.4808,129.797966 C62.7968,130.199966 62.0658,129.931966 61.3588,129.930966 C55.3778,129.923966 49.3958,129.942966 43.4158,129.917966 C42.2088,129.912966 40.9788,130.587966 39.7898,129.838966 C37.4128,129.718966 35.0358,129.578966 32.6578,129.487966 C31.4278,129.441966 30.7628,129.075966 30.4828,127.663966 C28.4908,117.610966 26.3808,107.582966 24.3098,97.5469663 C23.9018,95.5689663 23.4378,93.5999663 23.1318,91.6069663 C22.9798,90.6259663 22.4918,90.0579663 21.7348,89.5139663 C16.8128,85.9769663 11.9058,82.4189663 7.0148,78.8389663 C4.9728,77.3439663 4.3788,75.2589663 5.5158,73.1309663 C5.8838,72.4429663 6.7188,71.7249663 7.4538,71.5739663 C8.9648,71.2649663 10.5088,71.3499663 11.8918,72.3729663 C14.8068,74.5279663 17.7778,76.6099663 20.7438,78.6969663 C21.1458,78.9799663 21.6488,79.1199663 22.1058,79.3259663 C22.7958,79.8209663 23.5708,80.0539663 24.4098,80.1629663 C25.3888,80.2889663 26.3688,80.3519663 27.3548,80.3519663 C56.3288,80.3509663 85.3028,80.3489663 114.2758,80.3609663 C115.6508,80.3619663 116.9698,80.3099663 118.0338,79.2869663" id="Fill-4" fill="#FE8396"/>
                <path d="M22.7125,78.3699663 C24.0115,76.3989663 25.0865,74.2239663 26.6505,72.4919663 C32.7455,65.7339663 40.6295,61.9329663 49.1945,59.3689663 C54.5315,57.7719663 60.0005,56.9969663 65.5665,56.8749663 C65.9265,56.8659663 66.2855,56.7949663 66.6455,56.7519663 C68.9355,56.7379663 71.2255,56.7159663 73.5155,56.7609663 C77.6725,57.2139663 81.8825,57.3899663 85.9755,58.1759663 C94.6725,59.8459663 102.7065,63.1819663 109.6875,68.7739663 C112.5365,71.0569663 114.9955,73.7009663 116.8605,76.8599663 C117.1965,77.4299663 117.4075,78.0739663 117.6765,78.6839663 C117.3185,78.9669663 116.8995,78.9219663 116.4845,78.9209663 C86.2245,78.8099663 55.9625,78.9049663 25.7015,78.8609663 C24.6915,78.8589663 23.6105,79.1179663 22.7125,78.3699663" id="Fill-6" fill="#FE8396"/>
                <path d="M237.2203,129.268366 C240.3803,129.268366 243.5423,129.199366 246.6993,129.289366 C249.5653,129.371366 249.7413,129.551366 250.2613,132.288366 C250.9973,136.157366 251.6793,140.036366 252.3413,143.917366 C252.6343,145.634366 252.2543,145.943366 250.4953,145.891366 C249.2053,145.853366 247.9093,145.979366 246.6163,146.023366 C245.5963,146.058366 244.7943,145.680366 244.3233,144.737366 C240.9793,138.054366 235.3023,134.558366 228.2623,132.866366 C227.4573,132.672366 226.6303,132.210366 226.0343,131.641366 C225.6883,131.311366 225.5113,130.340366 225.7473,129.980366 C226.0463,129.526366 226.8383,129.187366 227.4273,129.169366 C230.0683,129.092366 232.7123,129.148366 235.3553,129.155366 C235.9773,129.156366 236.5983,129.155366 237.2203,129.155366 L237.2203,129.268366 Z" id="Fill-8" fill="#514B45"/>
                <path d="M203.1959,129.191266 C206.2029,129.191266 209.2099,129.183266 212.2169,129.196266 C213.1809,129.200266 214.3069,128.998266 214.6109,130.330266 C214.8169,131.237266 213.8129,132.326266 212.5689,132.710266 C211.0839,133.167266 209.6139,133.678266 208.1219,134.113266 C202.8379,135.652266 199.0679,139.085266 196.4529,143.772266 C195.4279,145.608266 194.2269,146.309266 192.2119,145.980266 C191.2559,145.825266 190.2419,145.837266 189.2779,145.963266 C188.1869,146.106266 187.8649,145.578266 187.8139,144.673266 C187.7939,144.315266 187.8409,143.946266 187.9039,143.590266 C188.6329,139.560266 189.4159,135.540266 190.0839,131.500266 C190.3109,130.127266 191.0099,129.459266 192.3189,129.408266 C194.6989,129.315266 197.0819,129.268266 199.4639,129.222266 C200.7079,129.199266 201.9519,129.218266 203.1959,129.218266 L203.1959,129.191266 Z" id="Fill-10" fill="#504A44"/>
                <path d="M39.7896,129.838766 C47.2316,129.743766 54.6746,129.645766 62.1176,129.56669 C62.5706,129.562766 63.0256,129.716766 63.4806,129.797766 C63.6936,131.128766 63.0726,132.239766 61.8476,132.640766 C60.3696,133.122766 58.8886,133.599766 57.3946,134.031766 C51.8916,135.623766 47.9886,139.178766 45.2896,144.096766 C44.4616,145.605766 43.4336,146.163766 41.7916,146.024766 C40.5626,145.918766 39.3106,146.079766 38.0846,145.954766 C37.6586,145.911766 37.1446,145.437766 36.9296,145.025766 C36.7416,144.666766 36.8616,144.108766 36.9426,143.654766 C37.6796,139.518766 38.4266,135.383766 39.2036,131.254766 C39.2966,130.763766 39.5896,130.309766 39.7896,129.838766" id="Fill-12" fill="#4F4943"/>
                <path d="M74.7896,129.800666 C75.5006,129.717666 76.2106,129.567666 76.9216,129.564666 C81.8726,129.544666 86.8246,129.533666 91.7756,129.568666 C93.9896,129.583666 96.2016,129.709666 98.4146,129.785666 C98.6486,130.351666 98.9866,130.896666 99.1006,131.485666 C99.8606,135.454666 100.5806,139.432666 101.2946,143.410666 C101.3856,143.915666 101.5246,144.502666 101.3536,144.939666 C101.1866,145.368666 100.6756,145.922666 100.2756,145.955666 C98.7916,146.081666 97.2896,146.000666 95.7956,146.025666 C94.7936,146.041666 93.9076,145.802666 93.4356,144.849666 C90.0066,137.921666 84.1046,134.423666 76.8516,132.702666 C76.0556,132.513666 75.3336,131.772666 74.7286,131.141666 C74.5156,130.918666 74.7566,130.259666 74.7896,129.800666" id="Fill-14" fill="#4F4943"/>
                <path d="M22.7125,78.3699663 C45.8795,78.3749663 69.0475,78.3789663 92.2145,78.3839663 C99.8855,78.3859663 107.5565,78.3839663 115.2275,78.4089663 C116.0435,78.4119663 116.8595,78.5889663 117.6765,78.6839663 C117.7955,78.8859663 117.9145,79.0869663 118.0335,79.2869663 C118.1425,80.1849663 117.7015,80.6499663 116.8435,80.7419663 C116.3305,80.7969663 115.8125,80.8179663 115.2955,80.8179663 C85.7335,80.8199663 56.1715,80.8219663 26.6095,80.8069663 C25.3745,80.8059663 24.1405,80.6069663 22.9025,80.5509663 C22.0155,80.5109663 22.1575,79.8719663 22.1065,79.3259663 C22.3085,79.0079663 22.5105,78.6889663 22.7125,78.3699663" id="Fill-16" fill="#BC5666"/>
                <path d="M71.0045,145.785066 C68.2555,145.785066 65.5065,145.784066 62.7575,145.787066 C62.4485,145.787066 62.1315,145.768066 61.8315,145.826066 C60.0065,146.176066 59.6995,145.997066 59.5855,144.222066 C59.4755,142.514066 59.4675,140.799066 59.4095,139.088066 C59.3645,137.740066 59.9525,136.906066 61.3285,136.730066 C62.1495,136.626066 62.9725,136.503066 63.7965,136.483066 C68.5155,136.376066 73.2335,136.293066 77.9535,136.208066 C79.8095,136.175066 80.7075,136.984066 80.8345,138.891066 C80.9545,140.702066 81.0055,142.518066 81.0725,144.332066 C81.1105,145.369066 80.6115,145.852066 79.5565,145.811066 C78.1075,145.755066 76.6555,145.733066 75.2055,145.718066 C73.8055,145.702066 72.4045,145.714066 71.0045,145.714066 L71.0045,145.785066 Z" id="Fill-18" fill="#504A44"/>
                <path d="M222.0406,145.779166 C219.2396,145.779166 216.4386,145.780166 213.6386,145.779166 C213.4316,145.779166 213.2206,145.755166 213.0176,145.781166 C210.7226,146.083166 210.6466,146.041166 210.5096,143.676166 C210.4246,142.226166 210.3816,140.772166 210.37752,139.319166 C210.3716,137.466166 210.6996,137.065166 212.5166,136.674166 C213.1186,136.544166 213.7486,136.502166 214.3676,136.488166 C219.2426,136.384166 224.1166,136.291166 228.9916,136.208166 C230.6986,136.178166 231.6456,136.976166 231.7716,138.661166 C231.9166,140.573166 231.9706,142.493166 232.0326,144.411166 C232.0626,145.368166 231.5606,145.824166 230.5916,145.819166 C227.7406,145.805166 224.8916,145.814166 222.0406,145.814166 L222.0406,145.779166 Z" id="Fill-20" fill="#504A44"/>
                <path d="M73.5152,56.7605663 L66.6452,56.7515663 C66.2482,54.0805663 65.7732,51.4455663 64.3502,49.0675663 C63.7932,48.1355663 64.2032,47.4435663 65.3442,47.1645663 C68.5112,46.3905663 71.6862,46.3835663 74.8542,47.1635663 C75.9112,47.4245663 76.4012,48.1545663 75.9092,48.9495663 C74.4232,51.3575663 73.9782,54.0555663 73.5152,56.7605663" id="Fill-22" fill="#090707"/>
                <path d="M264.2027,301.073066 C264.2027,318.360066 264.2367,335.646066 264.1927,352.933066 C264.1507,370.057066 264.0267,387.181066 263.9537,404.306066 C263.9487,405.275066 263.5667,405.991066 263.0887,406.837066 C261.9777,408.801066 260.8677,410.886066 260.3937,413.062066 C259.6007,416.709066 256.9847,418.535066 254.1587,420.171066 C251.4217,421.755066 248.4447,422.848066 245.2787,423.293066 C244.4107,423.414066 243.5287,423.484066 242.6527,423.489066 C226.0087,423.585066 209.3627,423.673066 192.7187,423.749066 C186.7007,423.776066 180.6827,423.751066 174.6657,423.777066 C156.2597,423.858066 137.8527,424.034066 119.4467,424.020855 C98.1367,424.005066 76.8247,423.836066 55.5147,423.711066 C52.3557,423.692066 49.1667,423.802066 46.0477,423.410066 C38.8627,422.505066 32.6317,419.648066 28.8837,413.093066 C27.2317,410.206066 26.1537,407.037066 26.1627,403.503066 C26.2247,378.793066 26.1937,354.083066 26.1407,329.373066 C26.0847,302.904066 25.8757,276.435066 25.9457,249.967066 C25.9657,242.252066 29.1847,235.733066 35.1807,230.719066 C36.0147,230.022066 36.8357,229.304066 37.7187,228.673066 C39.6297,227.303056 41.5907,226.330066 44.1277,226.333066 C76.0297,226.377066 107.9317,226.303056 139.8347,226.303056 C175.4587,226.303056 211.0827,226.359066 246.7067,226.359066 C248.3537,226.359066 249.7687,226.868066 251.0787,227.732066 C254.9247,230.269066 258.3607,233.292066 260.6817,237.303056 C261.8287,239.288066 262.4087,241.600066 263.2487,243.763066 C264.2247,246.276066 264.3027,248.887066 264.296088,251.550066 C264.2507,268.057066 264.2727,284.565066 264.2727,301.073066 L264.2027,301.073066 Z" id="Fill-24" fill="#AFA092"/>
                <path d="M93.0425,439.446166 C109.0185,439.446166 124.9935,439.448166 140.9695,439.445166 C175.4995,439.438166 210.0305,439.456166 244.5615,439.384138 C248.6955,439.376166 251.8965,441.050166 254.8035,443.741166 C256.8455,445.632166 258.3785,447.875166 259.8725,450.195166 C262.1145,453.678166 262.9335,457.538166 262.9445,461.550166 C263.0005,480.756166 262.9925,499.961166 262.9475,519.167166 C262.9175,532.551166 262.9275,545.940166 262.6305,559.320166 C262.5315,563.772166 260.6995,567.837166 257.7205,571.299166 C255.9115,573.400166 254.0695,575.469166 251.4105,576.441166 C247.5985,577.834166 243.8995,579.563166 239.6015,579.225166 C235.8895,578.933166 232.1365,579.171166 228.4015,579.154166 C206.0535,579.053166 183.7045,578.954166 161.3565,578.841166 C151.2485,578.789166 141.1405,578.627166 131.0325,578.650166 C108.9955,578.700166 86.9585,578.825166 64.9215,578.943166 C58.9105,578.975166 52.9005,579.100166 46.8915,579.156166 C46.1225,579.163166 45.3035,579.145166 44.5935,578.895166 C41.6725,577.864166 38.6225,577.039166 35.9315,575.566166 C33.1055,574.021166 31.0425,571.433166 29.3485,568.659166 C27.2555,565.232166 26.2015,561.504166 26.1995,557.469166 C26.1905,536.655166 26.1875,515.841166 26.1395,495.027166 C26.1145,484.353166 26.0175,473.680166 25.9188698,463.008166 C25.8915,459.762166 26.2435,456.567166 27.4525,453.563166 C29.0945,449.485166 31.4745,445.873166 34.9575,443.086166 C35.7995,442.412166 36.5995,441.671166 37.5015,441.091166 C39.5755,439.757166 41.9155,439.414166 44.3395,439.415166 C60.5735,439.424166 76.8085,439.420166 93.0425,439.420166 L93.0425,439.446166 Z" id="Fill-26" fill="#AFA093"/>
                <path d="M272.0425,180.553566 C271.9855,191.596566 263.1935,199.548566 253.4645,198.531566 C246.0245,197.751566 239.8365,191.995566 238.4845,184.595566 C236.8155,175.458566 242.9595,166.651566 252.1845,164.990566 C254.4355,164.584566 256.6385,164.350566 258.8175,165.580566 C260.0025,166.249566 261.5275,166.290566 262.7705,166.886566 C268.9735,169.860566 271.6595,175.087566 272.0425,180.553566" id="Fill-28" fill="#AEA092"/>
                <path d="M232.196009,181.656066 C232.1629,191.552066 223.5219,199.438066 213.7009,198.535066 C206.2739,197.851066 199.9669,191.982066 198.6359,184.517066 C197.0179,175.433066 203.1139,166.687066 212.2669,164.999066 C214.5689,164.574066 216.7419,164.608066 219.0679,165.544066 C221.3139,166.447066 223.6809,166.989066 225.6699,168.492066 C229.7529,171.579066 232.2149,176.499066 232.196009,181.656066" id="Fill-30" fill="#AEA092"/>
                <path d="M91.1921202,181.611166 C91.227,190.886166 83.614,198.532166 74.305,198.569299 C65.097,198.606166 57.313,190.886166 57.3657309,181.628166 C57.391,177.155166 58.981,173.214166 62.139,169.992166 C65.453,166.611166 69.763,164.989166 74.24,164.796166 C83.453,164.396166 91.156,172.323166 91.1921202,181.611166" id="Fill-32" fill="#AEA092"/>
                <path d="M51.3511192,181.708866 C51.3651,190.953866 43.7071,198.554866 34.3671,198.569888 C25.1981,198.584866 17.4351,190.799866 17.5271,181.529866 C17.5711,177.058866 19.1721,173.108866 22.3721,169.926866 C25.7531,166.561866 30.0841,164.930866 34.6511,164.778866 C43.7121,164.478866 51.3371,172.459866 51.3511192,181.708866" id="Fill-34" fill="#AEA092"/>
                <path d="M145.2398,228.826966 C178.2278,228.826966 211.2158,228.840966 244.2028,228.805966 C247.8828,228.803966 251.0238,229.827966 253.4488,232.679966 C255.2218,234.764966 257.1978,236.722966 258.6768,239.000966 C260.0698,241.147966 261.1368,243.600966 261.1728,246.262966 C261.3148,256.939966 261.4548,267.618966 261.4858,278.297966 C261.5298,293.090966 261.4998,307.883966 261.4558,322.676966 C261.3748,350.022966 261.2438,377.370966 261.1768,404.718966 C261.1648,409.265966 259.0388,412.712966 255.9558,415.761966 C253.1958,418.489966 249.6108,419.557966 246.0638,420.698966 C245.6838,420.820966 245.2408,420.755966 244.8268,420.756966 C241.1968,420.760966 237.5658,420.757966 233.9348,420.762966 C176.0578,420.832966 118.1808,420.909966 60.3038,420.965966 C55.1758,420.970966 50.0318,421.040966 44.9248,420.674966 C42.0758,420.470966 39.2508,419.413966 36.8528,417.750966 C33.7998,415.632966 31.1188,413.065966 29.8838,409.428966 C29.3598,407.887966 29.0028,406.204966 28.9988,404.586966 C28.9268,371.678966 28.9428,338.770966 28.8848,305.862966 C28.8508,287.235966 28.6838,268.607966 28.6437466,249.980966 C28.6318,244.042966 30.6438,238.834966 34.8438,234.548966 C35.4968,233.881966 36.1978,233.257966 36.8158,232.559966 C39.2588,229.805966 42.3508,228.803966 45.9678,228.806966 C66.7648,228.829966 87.5638,228.786966 108.3628,228.773966 C120.6558,228.765966 132.9478,228.771966 145.2398,228.771966 L145.2398,228.826966 Z" id="Fill-36" fill="#FEEAD7"/>
                <path d="M28.5836,515.526166 C28.5836,501.252166 28.6006,486.978166 28.5726,472.704166 C28.5646,468.505166 28.2336,464.300166 28.4006,460.112166 C28.6876,452.903166 31.9656,447.246166 38.0196,443.292166 C39.5946,442.262166 41.3816,441.825166 43.3286,441.825166 C110.7056,441.851166 178.0816,441.851166 245.4586,441.832166 C248.6076,441.831166 251.1806,443.047166 253.4386,445.100166 C257.0846,448.415166 259.3666,452.518166 260.3596,457.334166 C260.5246,458.136166 260.553691,458.978166 260.553691,459.802166 C260.553691,468.211166 260.5476,476.620166 260.5206,485.028166 C260.4416,509.521166 260.2156,534.015166 260.3436,558.507166 C260.3906,567.391166 251.8466,576.937166 242.2226,576.458166 C238.8076,576.287166 235.3766,576.420166 231.9536,576.405166 C208.6716,576.303166 185.3896,576.212166 162.1066,576.089166 C151.8976,576.037166 141.6876,575.829166 131.4796,575.854166 C107.6286,575.913166 83.7776,576.062166 59.9266,576.197166 C55.6276,576.220166 51.3296,576.339166 47.0316,576.432166 C39.9076,576.589166 34.8286,573.170166 31.1056,567.356166 C29.3476,564.610166 28.6426,561.579166 28.6436,558.348166 C28.6476,544.074166 28.6456,529.800166 28.6456,515.526166 L28.5836,515.526166 Z" id="Fill-38" fill="#FEEAD7"/>
                <path d="M269.2486,181.445166 C269.5756,188.730166 263.8536,195.027166 256.6926,195.749166 C249.0396,196.519166 242.2816,191.474166 241.0236,183.991166 C239.3626,174.095166 247.6346,167.063166 254.7726,167.372166 C255.7946,167.416166 256.8276,167.155166 257.8506,167.192166 C258.5416,167.217166 259.2646,167.425166 259.9026,167.709166 C264.7446,169.857166 267.9176,173.434166 269.1126,178.663166 C269.1706,178.914166 269.2346,179.170166 269.2416,179.424166 C269.2606,180.097166 269.2486,180.771166 269.2486,181.445166" id="Fill-40" fill="#FDE9D6"/>
                <path d="M229.5367,181.492066 C229.7237,188.663066 224.0377,195.087066 216.8007,195.752066 C209.0997,196.459066 202.3657,191.388066 201.1677,183.941066 C199.5677,174.001066 207.8757,167.028066 214.9857,167.371066 C216.0057,167.420066 217.0397,167.143066 218.0607,167.182066 C218.7537,167.210066 219.4737,167.437066 220.1127,167.725066 C224.8787,169.876066 228.0707,173.385066 229.2247,178.570066 C229.4357,179.520066 229.4377,180.516066 229.5367,181.492066" id="Fill-42" fill="#FDE9D6"/>
                <path d="M88.482,181.672666 C88.874,189.151666 81.956,195.896666 74.262,195.837666 C66.38,195.777666 59.841,189.117666 60.051,181.278666 C60.221,174.923666 66.134,167.093666 71.12,167.152666 C76.012,167.212666 80.897,167.577666 84.542,171.542666 C87.167,174.398666 88.655,177.717666 88.482,181.672666" id="Fill-44" fill="#FDE9D6"/>
                <path d="M48.6412,181.697166 C48.9722,188.323166 43.5722,194.761166 36.2602,195.754166 C29.4422,196.678166 22.6842,192.220166 20.7392,185.551166 C18.8282,178.996166 21.8762,171.880166 28.0402,168.510166 C32.0822,166.301166 38.8892,167.085166 42.9642,170.031166 C46.2162,172.384166 48.9882,177.240166 48.6412,181.697166" id="Fill-46" fill="#FDE9D6"/>
                <path d="M145.1812,248.295766 L203.5052,248.295766 C203.9202,248.295766 204.3342,248.299766 204.7492,248.302766 C207.9012,248.329766 208.8932,249.078766 209.4562,251.853766 C210.0032,254.542766 208.7182,257.617766 206.5582,258.494766 C205.8722,258.773766 205.0362,258.754766 204.2702,258.751766 C186.5382,258.688766 168.8072,258.541766 151.0762,258.546766 C129.4072,258.553766 107.7372,258.655766 86.0682,258.803766 C83.7132,258.818766 82.2022,257.939766 81.2332,255.929766 C80.1742,253.736766 80.3382,251.555766 81.7032,249.585766 C82.1162,248.991766 83.0142,248.643766 83.7602,248.400766 C84.3752,248.199766 85.0952,248.303766 85.7682,248.302766 C104.4852,248.266766 123.2022,248.233766 141.9182,248.200766 C143.0052,248.198766 144.0932,248.199766 145.1812,248.199766 L145.1812,248.295766 Z" id="Fill-48" fill="#4D4740"/>
                <path d="M144.191,460.420766 C163.902,460.420766 183.613,460.419766 203.324,460.422766 C203.998,460.422766 204.672,460.449766 205.346,460.469766 C206.563,460.504766 207.42,461.134766 207.921,462.191766 C208.94,464.340766 209.026,466.501766 207.733,468.585766 C206.803,470.083766 205.587,470.898766 203.657,470.884766 C185.761,470.759766 167.864,470.660766 149.967,470.664766 C128.287,470.669766 106.605,470.744766 84.925,470.896766 C82.138,470.915766 80.896,469.469766 80.154,467.706766 C79.218,465.486766 79.499,463.331766 80.979,461.397766 C81.736,460.407766 82.872,460.434766 83.968,460.429766 C89.623,460.407766 95.277,460.384766 100.931,460.375766 C114.367,460.353766 127.802,460.339766 141.237,460.322766 C142.222,460.320766 143.207,460.322766 144.191,460.322766 L144.191,460.420766 Z" id="Fill-50" fill="#4D4740"/>
                <path d="M256.2623,171.296766 C256.1543,171.939766 256.0843,172.717766 255.8663,173.452766 C255.7893,173.714766 255.3563,174.028766 255.0833,174.031775 C254.8093,174.033766 254.3033,173.688766 254.2923,173.475766 C254.2213,172.051766 254.2213,170.620766 254.2913,169.196766 C254.3023,168.986766 254.8413,168.611766 255.0823,168.650766 C255.4123,168.701766 255.8503,169.020766 255.9583,169.325766 C256.1603,169.896766 256.1593,170.539766 256.2623,171.296766" id="Fill-52" fill="#514B45"/>
                <path d="M215.8599,170.892466 C215.7689,171.357466 215.7139,172.036466 215.4859,172.651466 C215.3709,172.962466 214.9349,173.368466 214.6659,173.352466 C214.3759,173.336466 213.9119,172.905466 213.8709,172.606466 C213.7249,171.549466 213.6269,170.461466 213.7239,169.406466 C213.7609,169.007466 214.3819,168.663466 214.7369,168.294466 C215.0809,168.683466 215.5099,169.028466 215.7379,169.475466 C215.9099,169.811466 215.8199,170.280466 215.8599,170.892466" id="Fill-54" fill="#514B45"/>
                <path d="M73.0504,170.689266 C73.2364,169.694266 72.9464,168.383266 74.1964,168.352266 C75.6054,168.318266 75.3264,169.697266 75.3764,170.606266 C75.4124,171.260266 75.2804,171.949266 75.0834,172.580266 C74.9824,172.904266 74.5044,173.400266 74.3224,173.350266 C73.9624,173.253266 73.5464,172.886266 73.4124,172.533266 C73.1814,171.918266 73.1474,171.231266 73.0504,170.689266" id="Fill-56" fill="#514B45"/>
                <path d="M32.7134,171.318266 C32.7914,170.559266 32.7664,169.965266 32.9394,169.437266 C33.0454,169.111266 33.4334,168.700266 33.7344,168.664266 C34.0314,168.629266 34.6504,169.004266 34.6624,169.222266 C34.7364,170.643266 34.7184,172.073266 34.6374,173.494266 C34.6244,173.700266 34.1084,174.037266 33.8384,174.025266 C33.5594,174.012266 33.1294,173.694266 33.0564,173.429266 C32.8534,172.689266 32.7994,171.907266 32.7134,171.318266" id="Fill-58" fill="#514B45"/>
                <g id="Group-62" transform="translate(333.000000, 146.522566)">
                    <mask id="masterstickerskitchen-mask-4" fill="#fff">
                        <use xlink:href="#masterstickerskitchen-path-3"/>
                    </mask>
                    <g id="Clip-61"/>
                    <path d="M142.939,0.0759 C186.414,0.0759 229.889,0.0999 273.364,0.0398938204 C277.863,0.0339 283.921,4.3979 284.355,9.8259 C284.495,11.5739 284.654,13.3279 284.655,15.0799 C284.672,68.0269 284.64,120.9739 284.681,173.9219 C284.762,279.9079 284.881,385.8929 284.984003,491.8789 C284.987,495.3549 282.424,498.0219 278.919,498.0949 C276.119,498.1519 273.315,498.1529 270.516,498.0679 C269.948,498.0509 269.339,497.6069 268.849,497.2299 C268.41,496.8919 268.15,496.3309 267.738,495.9469 C265.944,494.2779 265.724,492.0589 265.703,489.8469 C265.643,483.7219 265.679,477.5959 265.692,471.4709 C265.694,470.6669 265.776,469.8639 265.821,469.0599 C265.011,469.0879 264.202,469.1389 263.392,469.1389 C236.674,469.1469 209.957,469.1119 183.239,469.1629 C157.208,469.2139 131.177,469.4319 105.146,469.4289 C77.351,469.4239 49.557,469.2439 21.762,469.1439 C19.552,469.1369 19.769,468.9769 19.765,471.1649 C19.761,473.6559 19.731,476.1489 19.781,478.6389 C19.813,480.2369 20.097,481.8369 20.041,483.4289 C19.923,486.7259 19.668,490.0199 19.429,493.3129 C19.402,493.6879 19.177,494.0879 18.944,494.4009 C18.205,495.3939 17.494,496.4299 16.617,497.2909 C16.162,497.7359 15.385,498.0499 14.743,498.0709 C12.152,498.1569 9.556,498.1189 6.961,498.1029 C4.113,498.0869 2.092,496.6199 0.665,494.2929 C0.377,493.8229 0.468,493.0889 0.467,492.4759 C0.46,466.5739 0.463,440.6719 0.464,414.7679 C0.466,373.6039 0.438,332.4399 0.476,291.2759 C0.56,199.2549 0.665,107.2319 0.838,15.2099 C0.844,12.1769 0.69,8.9809 2.392,6.1519 C4.666,2.3729 7.87,0.0929 12.358,0.0909 C55.885,0.0659 99.412,0.0759 142.939,0.0759" id="Fill-60" fill="#FEEAD7" mask="url(#masterstickerskitchen-mask-4)"/>
                </g>
                <path d="M478.8638,34.4666663 C478.8688,35.7116663 478.8728,36.9566663 478.8778,38.2016663 C479.3138,38.9226663 479.1358,39.7216663 479.1358,40.4856663 C479.1468,62.5816663 479.1438,84.6796663 479.1448,106.776666 C479.1448,107.294666 479.1648,107.815666 479.1438,108.331666 C479.1098,109.185666 479.4908,109.547666 480.3478,109.542666 C483.5098,109.522666 486.6758,109.625666 489.8338,109.482666 C490.7918,109.438666 491.6698,109.780666 492.5988,109.716666 C493.0848,109.712666 493.5708,109.711666 494.0388,109.870666 C495.1818,110.363666 495.9738,111.180666 495.7958,112.479666 C495.6148,113.790666 494.5848,114.276666 493.3818,114.545666 C492.5668,114.728666 491.7658,114.842666 490.9318,114.838666 C487.5108,114.824666 484.0908,114.808666 480.6708,114.845666 C479.1508,114.861666 478.9908,115.184666 479.7638,116.391666 C479.9578,116.507666 480.1518,116.624666 480.3448,116.741666 C481.2298,117.523666 482.0848,118.333666 482.8298,119.253666 C482.8398,119.340666 482.8598,119.424666 482.8898,119.506666 C483.0858,119.727666 483.3208,119.914666 483.4498,120.190666 C483.8018,120.992666 484.1548,121.796666 484.5078,122.599666 C485.2348,123.869666 485.7658,125.212666 486.0038,126.664666 C486.0248,126.866666 486.0478,127.069666 486.0688,127.271666 C486.7858,129.290666 487.0628,131.395666 487.2668,133.512666 C487.2798,133.717666 487.2928,133.921666 487.3038,134.125666 C487.6458,134.607666 487.5138,135.166666 487.5618,135.695666 C487.5818,136.002666 487.6018,136.309666 487.6218,136.615666 C488.0318,137.308666 487.7798,138.079666 487.8848,138.808666 C487.8978,139.116666 487.9118,139.424666 487.9258,139.733666 C488.3128,140.317666 488.1118,140.985666 488.1908,141.612666 C488.1898,142.447666 488.1878,143.282666 488.1868,144.116666 C488.1738,144.365666 488.0518,144.564666 487.8898,144.742666 C487.7808,144.856666 487.6718,144.968666 487.5608,145.080666 C487.3788,145.234666 487.1818,145.364666 486.9418,145.408666 C486.6238,145.398666 486.3048,145.388666 485.9868,145.377666 C485.2858,145.134666 484.5768,144.941666 483.8228,145.069666 C483.6198,145.087666 483.4178,145.105666 483.2148,145.122666 C482.8358,145.400666 482.3838,145.335666 481.9578,145.391666 C481.7538,145.404666 481.5498,145.417666 481.3448,145.431666 C480.3968,145.783666 479.4508,145.790666 478.5038,145.426666 C477.8848,145.407666 477.2668,145.390666 476.6488,145.371666 C476.0308,145.347666 475.4128,145.346666 474.7948,145.372666 C474.1758,145.389666 473.5568,145.406666 472.9388,145.423666 C471.9928,145.792666 471.0458,145.781666 470.0968,145.433666 C469.8928,145.422666 469.6878,145.411666 469.4828,145.402666 C469.0598,145.331666 468.6058,145.401666 468.2268,145.126666 C468.0248,145.108666 467.8218,145.090666 467.6188,145.072666 C466.7698,144.992666 465.9358,145.016666 465.1518,145.409666 C464.6138,145.189666 464.0758,144.968666 463.5368,144.748666 C462.8838,143.865666 462.7488,142.925666 463.2178,141.916666 C463.2258,141.710666 463.2348,141.505666 463.2448,141.299666 C463.3528,140.571666 463.0998,139.800666 463.5078,139.107666 C463.5248,138.696666 463.5438,138.285666 463.5608,137.874666 C463.6218,137.347666 463.4868,136.786666 463.8188,136.304666 C463.8328,135.996666 463.8458,135.688666 463.8598,135.380666 C463.9398,134.856666 463.7938,134.291666 464.1398,133.814666 C464.1508,133.610666 464.1628,133.405666 464.1748,133.201666 C464.2238,132.774666 464.1628,132.323666 464.4298,131.940666 C464.4538,131.634666 464.4768,131.329666 464.5018,131.024666 C464.5308,130.592666 464.4698,130.140666 464.7748,129.769666 C464.7888,129.564666 464.8018,129.360666 464.8158,129.155666 C465.1468,127.337666 465.4568,125.513666 466.3358,123.852666 C466.3768,123.572666 466.4178,123.293666 466.4598,123.013666 C466.9918,122.180666 467.2998,121.219666 467.9188,120.435666 C467.9488,120.349666 467.9678,120.261666 467.9758,120.171666 C468.3758,119.637666 468.6598,119.015666 469.1878,118.578666 C469.6048,118.162666 470.0208,117.747666 470.4378,117.331666 C470.7558,117.024666 471.0318,116.671666 471.4178,116.438666 C471.6078,116.318666 471.7988,116.196666 471.9888,116.076666 C472.5248,114.726666 471.4678,114.864666 470.7608,114.853666 C467.9638,114.805666 465.1638,114.839666 462.3648,114.831666 C460.8168,114.826666 459.2648,114.929666 457.7408,114.496666 C456.4698,114.136666 455.5368,113.230666 455.516536,112.219666 C455.4978,111.184666 456.5048,110.043666 457.7828,109.799666 C459.2568,109.518666 460.7388,109.442666 462.2568,109.506666 C464.9988,109.622666 467.7498,109.545666 470.4968,109.537666 C472.2798,109.531666 472.2958,109.518666 472.2968,107.692666 C472.3008,91.8216663 472.2988,75.9516663 472.2988,60.0826663 C472.2988,51.0586663 472.2958,42.0346663 472.3038,33.0106663 C472.3038,32.3466663 472.1728,31.6546663 472.5518,31.0336663 C472.5598,29.7896663 472.5698,28.5466663 472.5798,27.3036663 C472.7098,26.4736663 472.4148,25.5986663 472.8428,24.7996663 C473.3008,12.6206663 483.6588,2.24366632 495.2138,0.311666321 C501.8658,-0.801333679 507.8448,1.13866632 513.2038,4.98166632 C520.5828,10.2726663 524.9478,17.6416663 527.3948,26.2726663 C528.7328,30.9916663 529.4418,35.7886663 529.1778,40.6866663 C528.9648,44.6626663 528.5608,48.6306663 526.9558,52.3556663 C526.4268,53.5816663 525.7958,54.7146663 524.3248,54.9616663 C522.4808,55.2706663 520.8108,53.9626663 520.9388,52.0676663 C521.1028,49.6546663 521.5528,47.2596663 521.8848,44.8576663 C522.8458,37.9086663 522.1548,31.1546663 519.5808,24.6056663 C517.4268,19.1236663 514.1348,14.4896663 509.3988,10.9636663 C502.3258,5.69666632 492.4168,5.85666632 485.8768,12.5076663 C481.9348,16.5166663 479.5918,21.1736663 478.8378,26.6946663 C478.8458,29.2846663 478.7978,31.8756663 478.8638,34.4666663" id="Fill-63" fill="#C2B3A3"/>
                <path d="M462.2047,109.865066 C460.7657,109.894066 459.3227,110.029066 457.8907,110.186066 C456.7607,110.310066 455.8227,111.254066 455.8047,112.153066" id="Fill-65" fill="#F8E8D8"/>
                <path d="M455.6255,110.826066 C455.8285,110.437066 455.9705,109.865066 455.8405,109.478066 C455.2245,107.642066 454.2745,105.891066 453.8765,104.017066 C453.2895,101.263066 452.8595,98.4390663 452.7505,95.6300663 C452.6375,92.7030663 453.2535,89.8690663 455.6115,87.7330663 C455.9055,87.4670663 455.9475,86.9210663 456.1055,86.5040663 C456.4595,86.2800663 456.8005,86.4690663 457.1465,86.5340663 C459.2015,86.9230663 460.3935,85.8870663 460.3385,83.7630663 C460.3265,83.3150663 460.1025,82.8430663 460.4845,82.4380663 C461.5915,83.4090663 461.7835,84.4530663 460.8465,85.9460663 C460.2705,86.8630663 460.3565,87.2820663 461.1575,88.0450663 C463.1225,89.9160663 463.4295,92.5020663 463.5535,95.0420663 C463.7675,99.4180663 462.9335,103.665066 461.7025,107.843066 C461.3045,109.193066 461.3085,109.223066 462.7345,109.229066" id="Fill-67" fill="#F8E8D8"/>
                <path d="M494.0894,110.156066 C493.6724,110.135066 493.2544,110.115066 492.8374,110.094066 C491.6334,109.920066 490.6884,109.345066 490.0534,108.291066 C489.9504,108.081066 489.8484,107.872066 489.7464,107.662066 C489.7364,107.413066 489.6114,107.220066 489.4444,107.049066 C489.4404,106.839066 489.4364,106.628066 489.4324,106.418066 C489.4244,106.167066 489.3004,105.973066 489.1294,105.802066 L489.1174,105.173066 C489.1124,104.922066 488.9894,104.728066 488.8184,104.557066 C488.8154,104.243066 488.8104,103.929066 488.8064,103.616066 C488.8034,103.275066 488.7844,102.940066 488.5064,102.688066 C488.5034,102.478066 488.5004,102.267066 488.4964,102.057066 C488.4604,101.630066 488.5784,101.165066 488.1974,100.820066 C488.1944,100.506066 488.1914,100.190066 488.1884,99.8760663 C488.0654,99.1550663 488.4244,98.3680663 487.8854,97.7060663 C487.8854,96.9770663 487.8854,96.2500663 487.8844,95.5210663 C488.4244,94.8580663 488.0674,94.0710663 488.1854,93.3490663 C488.1874,93.1390663 488.1894,92.9290663 488.1914,92.7190663 C488.7334,90.5180663 489.8464,88.6500663 491.4674,87.0780663 C491.6504,86.9420663 491.8544,86.9020663 492.0744,86.9370663 C492.3854,87.0440663 492.6804,87.2250663 493.0344,87.1570663 C493.3184,87.1280663 493.5974,87.1410663 493.8744,87.2080663 C494.5194,87.3740663 495.1894,87.4870663 495.6474,88.0470663 C495.9574,88.3590663 496.2684,88.6710663 496.5784,88.9820663 C496.7834,89.1880663 496.9854,89.3970663 497.1884,89.6050663 C497.1934,89.8090663 497.1984,90.0130663 497.2044,90.2180663 C497.4024,90.4300663 497.6054,90.6390663 497.8054,90.8500663 C497.8134,91.2620663 497.8204,91.6740663 497.8284,92.0860663 C498.2364,92.4040663 498.0224,93.0180663 498.4204,93.3420663 C498.4254,94.1750663 498.4294,95.0080663 498.4344,95.8420663 C498.4454,96.4600663 498.4474,97.0780663 498.4324,97.6970663 C498.4284,98.3220663 498.4244,98.9480663 498.4204,99.5740663 C498.0394,99.9190663 498.1574,100.384066 498.1204,100.811066 C498.1154,101.126066 498.1104,101.440066 498.1064,101.754066 C497.9394,101.926066 497.8154,102.119066 497.8084,102.368066 C497.8034,102.579066 497.7984,102.790066 497.7944,103.000066 C497.6274,103.172066 497.5034,103.365066 497.4974,103.615066 C497.4934,103.825066 497.4884,104.036066 497.4844,104.246066 C497.2864,104.457066 497.0884,104.667066 496.8954,104.882066 C496.8854,105.396066 496.8754,105.911066 496.8654,106.427066 C496.5684,106.677066 496.5774,107.122066 496.2694,107.365066 C496.1614,107.779066 496.0544,108.192066 495.9464,108.605066 C495.3144,109.106066 494.9454,109.924066 494.0894,110.156066" id="Fill-69" fill="#F9E8D8"/>
                <path d="M492.2193,87.1209663 C492.0313,87.0889663 491.8413,87.0569663 491.6523,87.0239663 C491.2893,86.8939663 491.2053,86.5309663 491.0103,86.2599663 C490.5833,85.7109663 490.3723,85.0949663 490.3543,84.3939663 C490.3223,83.1739663 490.6513,82.0879663 491.7693,81.5009663 C492.7743,80.9739663 493.8723,80.9649663 494.8373,81.6869663 C495.9083,82.4889663 496.4283,83.5659663 496.2183,84.9269663 C496.1473,85.3909663 495.9763,85.8249663 495.6273,86.1649663 C495.4243,86.3779663 495.2213,86.5909663 495.0183,86.8049663 C494.8093,87.4239663 494.2843,87.4089663 493.7743,87.4209663 C493.4643,87.4209663 493.1553,87.4199663 492.8453,87.4199663 C492.5893,87.4189663 492.3873,87.3069663 492.2193,87.1209663" id="Fill-71" fill="#C6B7A9"/>
                <path d="M460.4849,82.4383663 C460.5569,83.2993663 460.8419,84.2083663 460.6629,85.0123663 C460.1939,87.1123663 458.4429,87.6313663 456.1059,86.5033663 C456.0009,86.3963663 455.8959,86.2883663 455.7909,86.1803663 C455.0539,85.3173663 454.9849,84.3743663 455.4479,83.3643663 C455.4749,83.1763663 455.5029,82.9893663 455.5299,82.8003663 C455.6779,82.5413663 455.9089,82.3503663 456.1069,82.1323663 C456.2129,82.0273663 456.3189,81.9213663 456.4239,81.8173663 C457.3919,81.0323663 458.4309,80.9703663 459.5289,81.5093663 C459.8469,81.8193663 460.1669,82.1283663 460.4849,82.4383663" id="Fill-73" fill="#C4B5A6"/>
                <path d="M478.5035,145.426666 C479.4505,145.428666 480.3985,145.429666 481.3455,145.431666 C480.4425,146.188666 479.3945,146.186666 478.5035,145.426666" id="Fill-75" fill="#F8E8D8"/>
                <path d="M470.0972,145.433466 C471.0442,145.430466 471.9922,145.426466 472.9392,145.423466 C472.0532,146.186466 471.0032,146.190466 470.0972,145.433466" id="Fill-77" fill="#F8E8D8"/>
                <path d="M474.7945,145.372866 C475.4125,145.371866 476.0305,145.371866 476.6485,145.371866 C476.0305,145.371866 475.4125,145.371866 474.7945,145.372866" id="Fill-79" fill="#F8E8D8"/>
                <path d="M475.8023,259.419766 C509.8823,259.419766 543.9623,259.398766 578.0423,259.450766 C581.7413,259.456766 584.7103,261.257766 587.2413,263.968766 C588.6683,265.497766 589.4083,267.320766 590.2633,269.125766 C590.4353,269.488766 590.5363,269.914766 590.5573,270.316766 C590.6633,272.385766 590.8023,274.454766 590.8053,276.523766 C590.8503,310.780766 590.8523,345.036766 590.9123,379.292766 C590.9853,420.029766 591.0973,460.766766 591.217357,501.503766 C591.2243,504.071766 590.5853,506.480766 589.3343,508.619766 C588.3853,510.243766 586.8373,511.505766 585.6773,513.021766 C584.9233,514.006766 584.0013,514.555766 582.9093,515.110766 C580.8173,516.173766 578.6653,516.258766 576.4223,516.258766 C545.0903,516.256766 513.7583,516.276766 482.4273,516.308766 C480.9833,516.309766 479.5313,516.408766 478.0993,516.587766 C477.7033,516.636766 477.2733,517.072766 477.0163,517.441766 C476.1963,518.617766 475.1993,518.689766 474.5123,517.430766 C474.1163,516.707766 473.6633,516.539766 472.9193,516.534766 C462.3453,516.464766 451.7713,516.316766 441.1973,516.293766 C418.6323,516.244766 396.0673,516.233766 373.5023,516.279766 C371.1443,516.284766 369.1533,515.391766 367.1883,514.396766 C366.3253,513.960766 365.7743,512.932766 365.0433,512.213766 C361.7743,508.994766 360.2523,505.126766 360.265217,500.514766 C360.3233,478.352766 360.2783,456.189766 360.3223,434.025766 C360.4063,391.160766 360.5123,348.295766 360.6373,305.431766 C360.6703,294.122766 360.7793,282.814766 360.9183,271.506766 C360.9503,268.948766 362.0233,266.716766 363.7133,264.795766 C364.3273,264.097766 364.8723,263.317766 365.5713,262.716766 C368.1703,260.479766 371.1743,259.398766 374.6503,259.399766 C407.4863,259.405766 440.3223,259.368766 473.1573,259.343766 L475.8013,259.343766 C475.8013,259.368766 475.8013,259.394766 475.8023,259.419766" id="Fill-81" fill="#AEA093"/>
                <path d="M414.5777,165.997866 C429.2057,165.997866 443.8347,165.978866 458.4627,166.008866 C463.3327,166.018866 468.2007,166.185866 473.0707,166.221866 C478.2447,166.257866 483.4197,166.230866 488.5937,166.217866 C519.3997,166.136866 550.2057,166.077866 581.0127,165.933699 C584.6097,165.915866 587.1697,167.352866 589.4007,170.055866 C592.0227,173.230866 593.0547,176.803866 593.0457,180.826866 C593.0167,193.283866 593.0977,205.740866 592.9957,218.196866 C592.9567,222.930866 591.1457,227.080866 587.7877,230.464866 C585.5617,232.706866 582.6217,233.382866 579.6567,233.392866 C557.1437,233.459866 534.6317,233.445866 512.1177,233.407866 C501.6457,233.390866 491.1757,233.224866 480.7037,233.190866 C469.0997,233.153866 457.4967,233.169866 445.8927,233.200866 C421.5707,233.264866 397.2487,233.367866 372.9277,233.401866 C371.2437,233.404866 369.5407,233.060866 367.8787,232.719866 C364.5457,232.035866 362.5677,229.618866 361.0137,226.865866 C359.2547,223.753866 358.427453,220.362866 358.4337,216.755866 C358.4577,204.661866 358.3937,192.567866 358.4547,180.475866 C358.4747,176.199866 359.8937,172.482866 362.8947,169.229866 C365.1507,166.783866 367.6597,165.926866 370.8487,165.940866 C385.4247,166.010866 400.0017,165.971866 414.5777,165.971866 L414.5777,165.997866 Z" id="Fill-83" fill="#AEA093"/>
                <path d="M477.2134,387.661966 L477.2134,263.411966 C477.2134,261.831966 477.2134,261.82493 478.8684,261.82493 C509.1614,261.833966 539.4534,261.845966 569.7464,261.854966 C572.8454,261.855966 575.9454,261.923966 579.0424,261.836966 C581.7214,261.761966 583.7464,263.011966 585.3484,264.911966 C587.1854,267.091966 588.1954,269.598966 588.1904,272.595966 C588.1394,300.258966 588.1394,327.921966 588.1854,355.584966 C588.2634,403.117966 588.3864,450.651966 588.4884,498.185966 C588.4934,500.248966 588.6144,502.319966 588.4634,504.370966 C588.1314,508.881966 583.1864,513.662966 578.5684,513.644023 C545.3194,513.514966 512.0704,513.569966 478.8214,513.563966 C477.2254,513.562966 477.2214,513.549966 477.2214,511.755966 C477.2204,470.390966 477.2214,429.025966 477.2214,387.661966 L477.2134,387.661966 Z" id="Fill-85" fill="#FEEAD7"/>
                <path d="M422.3394,261.823622 C439.1474,261.823622 455.9544,261.823622 472.7614,261.823622 C474.5944,261.823622 474.6714,261.939066 474.4314,263.784066 C474.3184,264.653066 474.2414,265.534066 474.2414,266.410066 C474.2354,347.900066 474.2404,429.389066 474.2384,510.879066 C474.2384,514.035066 474.5654,513.561066 471.6434,513.563066 C438.7544,513.578066 405.8654,513.512066 372.9784,513.63612 C367.4474,513.657066 362.9144,507.484066 362.928368,503.303066 C363.0314,470.034066 363.0024,436.762066 363.0564,403.492066 C363.1244,360.004066 363.2464,316.514066 363.3004,273.025066 C363.3054,268.579066 365.1224,265.217066 368.7504,262.836066 C369.6384,262.253066 370.8524,261.900066 371.9174,261.897066 C388.7244,261.840066 405.5314,261.857066 422.3394,261.857066 L422.3394,261.823622 Z" id="Fill-87" fill="#FEEAD7"/>
                <path d="M475.6959,168.637566 C510.7579,168.637566 545.8199,168.636566 580.8829,168.642566 C581.7609,168.642566 582.6549,168.630566 583.5149,168.777566 C585.4589,169.108566 586.7309,170.375566 587.6029,172.053566 C589.0709,174.879566 590.0679,177.785566 590.04529,181.083566 C589.9549,194.005566 590.0389,206.928566 589.9919,219.850566 C589.9809,222.930566 589.0319,225.842566 586.9769,228.132566 C585.1009,230.224566 582.4539,230.948566 579.6649,230.951581 C578.5319,230.953566 577.3979,230.747566 576.2639,230.746566 C549.6569,230.717566 523.0489,230.721566 496.4409,230.676566 C485.2959,230.658566 474.1509,230.463566 463.0069,230.482566 C433.4609,230.530566 403.9159,230.650566 374.3699,230.741566 C372.8829,230.746566 371.3679,230.946566 369.9169,230.721566 C366.1749,230.141566 363.6279,228.065566 362.4589,224.351566 C361.7689,222.159566 361.4109,219.979566 361.424505,217.659566 C361.4959,205.049566 361.4019,192.438566 361.5069,179.827566 C361.5339,176.508566 362.8419,173.474566 364.8219,170.789566 C365.9509,169.257566 367.5359,168.626566 369.4209,168.633509 C374.0889,168.650566 378.7559,168.647566 383.4239,168.647566 C414.1809,168.648566 444.9379,168.647566 475.6959,168.647566 L475.6959,168.637566 Z" id="Fill-89" fill="#FEEAD7"/>
                <path d="M499.888227,278.279166 C499.8762,282.375166 496.5572,285.702166 492.4712,285.713188 C488.4162,285.723166 485.0502,282.349166 485.053198,278.278166 C485.0572,274.278166 488.6882,270.783166 492.8792,270.745166 C496.5542,270.713166 499.8992,274.308166 499.888227,278.279166" id="Fill-91" fill="#4D4640"/>
                <path d="M466.4898,278.386566 C466.4238,282.479566 463.0328,285.782566 458.9688,285.710566 C454.8858,285.639566 451.5868,282.268566 451.6588,278.172566 C451.7358,273.843566 455.1278,270.769566 458.7778,270.779542 C463.0458,270.789566 466.5528,274.386566 466.4898,278.386566" id="Fill-93" fill="#4D4640"/>
                <path d="M475.7359,210.11319 C470.3349,210.100166 465.8239,205.592166 465.819897,200.200166 C465.8159,194.852166 470.4039,190.341166 475.8179,190.369037 C481.2439,190.397166 485.8129,194.957166 485.7479,200.278166 C485.6809,205.662166 481.1369,210.125166 475.7359,210.11319" id="Fill-95" fill="#4C4640"/>
            </g>
            <g id="Shelf">
                <path d="M43.7219821,109.884799 C74.5439091,109.874799 105.366499,109.866799 136.188426,109.845799 C136.582304,109.844799 136.976845,109.666799 137.370059,109.572799 C137.584239,109.248799 137.855444,109.213799 138.135933,109.223799 C149.996692,109.635799 161.860103,109.265799 173.722189,109.410799 C175.472757,109.433799 177.221998,109.612799 178.966598,109.240799 C179.276926,109.175799 179.587917,109.198799 179.837903,109.556799 C180.196637,109.655799 180.555371,109.838799 180.914104,109.839799 C195.917265,109.851799 210.921089,109.873799 225.92425,109.837799 C245.15596,109.791799 264.388333,109.694799 283.620043,109.642799 C284.182347,109.640799 284.979386,109.609799 285.260537,110.110799 C285.9727,111.380799 286.912304,112.921799 286.946785,114.398799 C287.084709,120.298799 286.920261,126.215799 286.839364,132.125799 C286.834059,132.534799 286.642425,132.985799 286.465379,133.334799 C285.346077,135.554799 283.990713,136.480799 282.004084,136.468799 C260.841444,136.346799 239.678805,136.397799 218.515503,136.425799 C146.978289,136.518799 75.4417381,136.616799 3.9045243,136.765811 C2.70432449,136.768799 2.01669619,136.186799 1.26607399,134.813799 C0.29464154,133.036799 -0.0349160894,131.227799 0.00288025845,128.988799 C0.0870931738,124.061799 0.0333825742,119.128799 0.0420027939,114.197799 C0.0459813568,111.803799 1.29193465,109.924799 2.87009794,109.921799 C6.51777705,109.913799 10.1654562,109.920799 13.8131353,109.889799 C14.2017083,109.886799 14.5909443,109.668799 14.9801804,109.550799 C15.5703339,109.305799 16.1352898,109.701799 16.7181493,109.700799 C25.3900903,109.690799 34.0613682,109.770799 42.731983,109.654799 C43.0721501,109.649799 43.4229268,109.508799 43.7219821,109.884799" id="Fill-1" fill="#D5B18E"/>
                <g id="Group" transform="translate(161.097897, 20.391238)">
                    <path d="M80.1128466,89.1654614 C79.0408466,89.2894614 77.9678466,89.5204614 76.8958466,89.5214614 C60.3248466,89.5445 43.7548466,89.5594614 27.1838466,89.5204614 C23.4778466,89.5134614 19.7728466,89.3004614 16.0678466,89.1814614 C13.7168466,88.0624614 12.3598466,86.2984614 11.8338466,83.6634614 C8.96384665,69.2804614 5.98584665,54.9204614 3.05684665,40.5504614 C2.87284665,39.6424614 2.79284665,38.7114614 2.66484665,37.7914614 C3.30484665,37.1904614 4.11684665,37.3064614 4.87984665,37.3064614 C22.0458466,37.2944614 39.2168466,37.0534614 56.3758466,37.3854614 C67.7828466,37.6054614 79.1858466,37.4354614 90.5888466,37.6174614 C91.4988466,37.6324614 92.4748466,37.4084614 93.2608466,38.1244614 C92.7888466,40.8724614 92.3688466,43.6314614 91.8338466,46.3664614 C90.9198466,51.0404614 89.9258466,55.6984614 88.9898466,60.3684614 C88.9028466,60.7994614 88.9808466,61.2634614 88.9828466,61.7124614 C89.4228466,61.5994614 89.8828466,61.5354614 90.2988466,61.3644614 C98.5908466,57.9754614 106.875847,54.5704614 115.165847,51.1764614 C115.737847,50.9424614 116.332847,50.7654614 116.916847,50.5614614 C117.736847,50.8954614 117.933847,51.7044614 118.236847,52.3934614 C119.753847,55.8524614 121.378847,59.2624614 122.940847,62.7004614 C123.210847,63.2944614 123.664847,63.8874614 123.157847,64.5784614 C113.445847,68.0114614 103.736847,71.4524614 94.0198466,74.8694614 C91.4818466,75.7624614 88.8998466,76.5324614 86.3808466,77.4744614 C85.8808466,77.6604614 85.3748466,78.3154614 85.2208466,78.8544614 C84.7978466,80.3444614 84.4558466,81.8734614 84.2678466,83.4094614 C83.9358466,86.1274614 82.4368466,87.9254614 80.1128466,89.1654614" id="Fill-5" fill="#6F826A"/>
                    <path d="M1.05524665,36.2719614 C-0.294753353,35.0689614 -0.186753353,33.6129614 0.474246647,32.1679614 C3.24324665,26.1189614 7.51724665,21.3279614 12.9682466,17.5799614 C19.4482466,13.1259614 26.7302466,10.6379614 34.3762466,9.15696145 C37.6282466,8.52596145 40.9332466,8.16696145 44.2132466,7.68496145 C44.4622466,7.29196145 44.8682466,7.18696145 45.2812466,7.16696145 C47.1322466,7.07996145 48.9852466,7.08096145 50.8352466,7.16696145 C51.3702466,7.19096145 51.8442466,7.37396145 52.1152466,7.88996145 C56.2562466,8.52096145 60.4392466,8.95996145 64.5322466,9.82396145 C71.9152466,11.3809614 78.7892466,14.2359614 84.8302466,18.8529614 C89.5242466,22.4409614 93.2012466,26.8789614 95.6422466,32.2919614 C96.1522466,33.4249614 96.3572466,34.5629614 95.4642466,35.6309614 C94.4802466,36.2739614 93.3682466,36.1319614 92.2862466,36.1319614 C64.8322466,36.1359614 37.3792466,36.1319614 9.92524665,36.1399614 C6.96824665,36.1409614 4.00924665,36.0389614 1.05524665,36.2719614" id="Fill-11" fill="#6F826A"/>
                    <path d="M123.157747,64.5785614 C122.555747,63.1005614 122.000747,61.6015614 121.344747,60.1485614 C119.894747,56.9405614 118.394747,53.7555614 116.916747,50.5605614 C121.834747,48.5165614 126.746747,46.4545614 131.673747,44.4315614 C142.837747,39.8455614 154.007747,35.2735614 165.178747,30.7095614 C167.455747,29.7795614 169.345747,30.1455614 170.758747,32.1255614 C173.350747,35.7605614 175.173747,39.7155614 175.181753,44.3365614 C175.183747,45.7115614 174.675747,46.4075614 173.408747,46.8445614 C167.973747,48.7195614 162.556747,50.6485614 157.138747,52.5715614 C146.009747,56.5205614 134.882747,60.4785614 123.753747,64.4305614 C123.561747,64.4985614 123.356747,64.5295614 123.157747,64.5785614" id="Fill-23" fill="#D5B28E"/>
                    <path d="M1.05524665,36.2719614 C1.64324665,36.0629614 2.22824665,35.6779614 2.81824665,35.6709614 C7.84324665,35.6129614 12.8692466,35.6139614 17.8962466,35.6149614 C43.7522466,35.6179614 69.6082466,35.6259614 95.4642466,35.6309614 C95.1682466,35.9639614 94.8722466,36.2959614 94.5772466,36.6289614 C94.1382466,37.1269614 93.7002466,37.6259614 93.2612466,38.1249614 C83.8832466,38.1079614 74.5052466,38.1089614 65.1272466,38.0709614 C44.3062466,37.9879614 23.4862466,37.8859614 2.66424665,37.7919614 C2.12724665,37.2859614 1.59124665,36.7789614 1.05524665,36.2719614" id="Fill-39" fill="#333C30"/>
                    <path d="M52.1148466,7.89006145 C50.5518466,7.79506145 48.9898466,7.66706145 47.4258466,7.61806145 C46.3558466,7.58306145 45.2838466,7.65906145 44.2138466,7.68506145 C43.5988466,6.09106145 42.9468466,4.51106145 42.3898466,2.89906145 C42.1938466,2.32806145 42.0738466,1.63906145 42.2098466,1.07506145 C42.3118466,0.647061447 42.8718466,0.0180614471 43.2358466,0.0130614471 C46.4288466,-0.0309385529 49.6238466,0.0470614471 52.8178466,0.0870614471 C54.0828466,0.103061447 54.1268466,1.00706145 53.9178466,1.83306145 C53.5508466,3.28406145 53.0068466,4.68806145 52.5598466,6.11906145 C52.3798466,6.70006145 52.2608466,7.29906145 52.1148466,7.89006145" id="Fill-45" fill="#D5B28E"/>
                </g>
                <path d="M65.9363437,109.884799 C64.6543437,109.983799 63.3723437,110.166799 62.0883437,110.168799 C49.9713437,110.188799 37.8543437,110.191799 25.7373437,110.145799 C24.6873437,110.141799 23.6393437,109.757799 22.5913437,109.550799 C22.4453437,108.905799 22.1743437,108.261799 22.1713437,107.615799 C22.0823437,85.9957995 22.0333437,64.3747995 21.9452142,42.7537995 C21.9153437,35.1137995 27.1013437,27.5517995 34.2053437,25.3857995 C35.1313437,25.1027995 35.4083437,24.6327995 35.3853437,23.7177995 C35.3323437,21.6457995 35.3823437,19.5707995 35.3543437,17.4967995 C35.3493437,17.1087995 35.3003437,16.5397995 35.0523437,16.3627995 C33.2533437,15.0817995 33.5803437,13.3257995 33.8623437,11.5627995 C33.9113437,11.2557995 33.9833437,10.9517995 34.0443437,10.6477995 C34.5713437,9.98379947 35.3323437,10.0547995 36.0433437,10.0527995 C41.5773437,10.0337995 47.1103437,10.0317995 52.6433437,10.0527995 C53.3063437,10.0557995 54.0043437,9.99979947 54.5403437,10.5377901 C54.7123437,11.6547995 54.9773437,12.7677995 55.0193437,13.8887995 C55.0403437,14.4577995 54.8323437,15.3107995 54.4293437,15.5707995 C53.1543437,16.3897995 53.3553437,17.5417995 53.3703437,18.7237995 C53.3923437,20.4327995 53.3803437,22.1437995 53.3323437,23.8527995 C53.3093437,24.6237995 53.5123437,25.0497995 54.3213437,25.3267995 C61.5193437,27.7967995 65.2963437,33.1337995 66.6543437,40.3777995 C66.9173437,41.7827995 66.8033437,43.2667995 66.7983437,44.7137995 C66.7263437,65.6027995 66.6503437,86.4897995 66.5373437,107.377799 C66.5323437,108.214799 66.1453437,109.048799 65.9363437,109.884799" id="Fill-9" fill="#76754D"/>
                <path d="M105.559344,83.1543995 C106.315344,80.9643995 107.212344,78.8093995 107.797344,76.5743995 C109.140344,71.4333995 108.658344,66.2133995 108.258344,60.9993995 C107.980344,57.3583995 107.089344,53.8843995 105.879344,50.4553995 C105.061344,48.1363995 104.978344,45.7203995 105.584344,43.3083995 C106.034344,42.9533995 106.557344,43.0333995 107.075344,43.0423995 C115.567344,43.1823995 124.060344,43.2653995 132.552344,42.9973995 C133.018344,42.9823995 133.491344,42.9273995 133.876344,43.2823995 C134.435344,45.8203995 134.370344,48.3523995 133.442344,50.7713995 C130.804344,57.6533995 130.611344,64.8263995 130.886344,72.0353995 C131.015344,75.4103995 131.886344,78.6753995 133.342344,81.7563995 C133.561344,82.2173995 133.713344,82.7123995 133.897344,83.1913995 C133.252344,83.7873995 132.442344,83.6833995 131.679344,83.6683995 C127.848344,83.5903995 124.010344,83.5503995 120.184344,83.5123995 C116.105344,83.4703995 112.004344,83.6573995 107.913344,83.6683995 C107.104344,83.6713995 106.233344,83.8283995 105.559344,83.1543995" id="Fill-21" fill="#BC936B"/>
                <path d="M134.649244,85.0302995 C136.669244,89.0282995 138.156244,93.2122995 138.553244,97.6872995 C138.836244,100.879299 138.873244,104.095299 138.949244,107.302299 C138.998244,109.342299 138.347244,109.964299 136.253244,109.993299 C133.352244,110.033299 130.450244,110.033299 127.548244,110.032554 C119.577244,110.028299 111.605244,110.023299 103.633244,110.001299 C100.954244,109.993299 100.372244,109.366299 100.353244,106.682299 C100.303244,99.4682995 101.120244,92.4192995 104.288244,85.8122995 C104.421244,85.5352995 104.587244,85.2722995 104.737244,85.0022995 C105.344244,84.4772995 106.091244,84.5472995 106.808244,84.5462995 C115.345244,84.5342995 123.882244,84.5362995 132.420244,84.5422995 C133.197244,84.5422995 133.981244,84.5242995 134.649244,85.0302995" id="Fill-25" fill="#BC936B"/>
                <path d="M105.427544,41.7734995 C100.149544,38.1674995 99.5155437,30.8674995 104.089544,26.0324995 C106.955544,23.0024995 110.582544,21.4844995 114.640544,20.8634995 C115.355544,20.7534995 116.065544,20.6124995 116.778544,20.4854995 C118.766544,19.8674995 120.752544,19.8274995 122.736544,20.5134995 C123.994544,20.7394995 125.273544,20.8924995 126.510544,21.2054995 C131.313544,22.4154995 135.370544,24.6824995 137.542544,29.4144995 C139.491544,33.6624995 137.834544,39.3124995 133.988544,41.7704995 C133.624544,42.0144995 133.216544,42.0204995 132.797544,42.0154995 C124.072544,41.9124995 115.345544,41.8964995 106.619544,42.0254995 C106.197544,42.0314995 105.796544,41.9944995 105.427544,41.7734995" id="Fill-27" fill="#BC936B"/>
                <path d="M54.5398437,10.5380995 C51.1238437,10.5260995 47.7068437,10.4920995 44.2908437,10.5110995 C40.8748437,10.5280995 37.4598437,10.6000995 34.0448437,10.6470995 C33.4468437,9.13609947 32.9078437,7.63409947 33.8608437,6.04309947 C33.9768437,5.85109947 33.8778437,5.40609947 33.7228437,5.19409947 C32.0118437,2.86509947 33.6588437,0.50509947 36.6248437,0.30909947 C40.3388437,0.0610994704 44.0678437,-0.00290052959 47.7918437,-3.97903932e-13 C49.5288437,0.00209947041 51.2638437,0.38809947 53.0058437,0.52609947 C55.0718437,0.69109947 56.0308437,2.52509947 55.2288437,4.70009947 C54.9158437,5.55109947 54.8288437,6.23009947 55.2478437,7.04809947 C55.9218437,8.36309947 55.0668437,9.43209947 54.5398437,10.5380995" id="Fill-37" fill="#FDE9D6"/>
                <path d="M105.427544,41.7734995 C106.453544,41.6724995 107.479544,41.4884995 108.505544,41.4844995 C116.077544,41.4614995 123.651544,41.4624995 131.224544,41.4874995 C132.146544,41.4904995 133.067544,41.6714995 133.988544,41.7704995 C133.950544,42.2744995 133.913544,42.7784995 133.875544,43.2824995 C129.031544,43.4024995 124.186544,43.5694995 119.340544,43.6274995 C115.314544,43.6744995 111.285544,43.6034995 107.258544,43.5584995 C106.699544,43.5524995 106.142544,43.3964995 105.584544,43.3084995 C105.531544,42.7964995 105.480544,42.2854995 105.427544,41.7734995" id="Fill-47" fill="#74593E"/>
                <path d="M134.649244,85.0302995 C124.678244,85.0202995 114.708244,85.0112995 104.737244,85.0022995 C105.011244,84.3862995 105.285244,83.7702995 105.559244,83.1542995 C109.437244,83.1522995 113.315244,83.1442995 117.194244,83.1502995 C122.761244,83.1582995 128.329244,83.1772995 133.897244,83.1912995 C134.147244,83.8042995 134.398244,84.4172995 134.649244,85.0302995" id="Fill-49" fill="#74593E"/>
                <path d="M122.736144,20.5136995 C120.750144,20.5036995 118.763144,20.4936995 116.778144,20.4856995 C116.667144,19.7796995 116.675144,19.0266995 116.419144,18.3796995 C116.015144,17.3676995 116.352144,16.8306995 117.321144,16.7576995 C118.851144,16.6436995 120.398144,16.5666995 121.924144,16.6676995 C122.818144,16.7276995 123.174144,17.4486995 122.994144,18.3866995 C122.859144,19.0856995 122.818144,19.8036995 122.736144,20.5136995" id="Fill-51" fill="#FDE9D6"/>
                <path d="M56.4675437,63.5459995 C56.4675437,69.5619995 56.4745437,75.5769995 56.4635437,81.5929995 C56.4605437,83.4179995 56.2145437,83.5309995 54.3705437,83.5229995 C47.5795437,83.4889995 40.7875437,83.4759995 33.9965437,83.5739995 C32.7025437,83.5929995 32.3035437,83.0779995 32.2245437,82.0129995 C32.1665437,81.2389995 32.2055437,80.4579995 32.2035437,79.6809995 C32.1725437,68.8419995 32.1285437,58.0039995 32.1195123,47.1649995 C32.1165437,43.3059995 32.3205437,43.1549995 36.1585437,43.1617957 C42.0105437,43.1709995 47.8615437,43.1579995 53.7125437,43.1669995 C56.0935437,43.1699995 56.4825437,43.5089995 56.4925437,45.8189995 C56.5215437,51.7279995 56.5025437,57.6369995 56.5025437,63.5459995 L56.4675437,63.5459995 Z" id="Fill-62" fill="#FDE9D6"/>
            </g>
        </g>
    </g>
</svg>
