<svg viewBox="67.725 185.141 767.55 462.852" xmlns="http://www.w3.org/2000/svg" xmlns:xlink="http://www.w3.org/1999/xlink" overflow="visible">
    <defs>
        <polygon id="masterfemale-characterrelaxing-path-1" points="0.4156 0.3131 1.4156 0.3131 1.4156 1 0.4156 1"/>
        <polygon id="masterfemale-characterrelaxing-path-3" points="0.27 0.214 25.427 0.214 25.427 20.1440549 0.27 20.1440549"/>
        <polygon id="masterfemale-characterrelaxing-path-5" points="0.535923554 0.163567806 19.5585 0.163567806 19.5585 8 0.535923554 8"/>
        <polygon id="masterfemale-characterrelaxing-path-7" points="0.6081 0.5002 2.5091 0.5002 2.5091 1 0.6081 1"/>
        <polygon id="masterfemale-characterrelaxing-path-9" points="0.0636 0.129 20.2206 0.129 20.2206 38.8679939 0.0636 38.8679939"/>
        <polygon id="masterfemale-characterrelaxing-path-11" points="0.749806646 0.56647221 90.226 0.56647221 90.226 61.8828957 0.749806646 61.8828957"/>
        <polygon id="masterfemale-characterrelaxing-path-13" points="0.7593 0.907 2.3563 0.907 2.3563 1.79978259 0.7593 1.79978259"/>
    </defs>
    <g id="Master/Female Character/Relaxing" stroke="none" stroke-width="1" fill="none" fill-rule="evenodd">
        <g id="Female Relaxing" transform="translate(29.000000, 227.000000) scale(1 1)">
            <g id="Female Relaxing/Relaxed 2" stroke="none" stroke-width="1" fill="none" fill-rule="evenodd">
                <g id="Body" transform="translate(49.000000, 58.000000)">
                    <path d="M488.029691,245.37188 C511.106909,240.298627 534.309975,233.90966 558.134307,234.868315 C588.800535,235.157152 619.157459,242.200875 649.890156,240.211799 C676.315648,240.365077 686.636985,228.945386 703.328729,210.752203 C712.579468,201.800916 720.464487,191.442656 729.4848,182.433779 C733.088317,180.201937 738.406738,182.284044 737.655193,187.237686 C737.127871,192.165634 732.721407,194.981351 730.919648,199.242139 C733.169852,197.708468 733.427753,194.182177 736.421525,193.745377 C737.586065,194.113069 738.898611,194.310647 738.925198,195.963043 C739.51899,200.906939 735.313705,204.456266 733.252274,208.488465 C734.847535,207.094783 736.002326,204.944454 737.33171,203.197256 C737.85017,202.413144 738.206445,201.280832 739.557099,201.624601 C740.895345,202.004696 742.315127,202.282015 742.549099,204.035415 C742.176871,208.164188 737.787246,209.814812 736.544715,213.411097 C738.816189,212.001467 739.369212,208.507958 742.452497,208.277597 C743.667554,209.249542 744.294137,210.552852 744.788667,211.998809 C742.817634,214.240396 740.759748,216.406673 739.116629,218.920263 C740.913956,217.555819 742.290312,215.300942 744.60344,214.415825 C752.503525,219.117842 740.972449,225.054947 738.966852,229.803923 C733.538535,238.532823 725.437269,244.652445 715.277231,246.456347 C713.981525,241.084512 718.050326,235.149178 713.303539,230.481715 C711.87844,228.351764 706.613193,227.227426 706.468734,230.75992 C705.89444,245.206197 696.080042,256.834985 686.887795,266.91947 C668.201089,269.279781 649.639345,273.579553 633.406682,283.468232 C617.181108,287.17261 600.936923,292.05803 584.13617,293.038835 C545.223331,295.984794 504.72498,290.460566 467.925862,306.450261 C416.614302,328.478064 364.220625,346.505565 307.646478,344.858486 C292.924881,345.405149 278.177582,346.848448 264.231459,352.495831 C249.572786,357.379478 233.738051,355.323952 218.632705,354.449467 C161.934483,349.034217 117.188307,296.45792 138.927279,239.684627 C141.485013,233.743092 148.581265,212.689891 154.578558,211.870338 C156.147231,225.11874 161.556938,237.723903 160.805393,251.262027 C160.872748,256.088084 163.263866,260.041429 166.402099,253.813715 C168.039013,252.36067 166.693677,248.573008 168.992625,248.115831 C170.458492,248.187597 170.292762,249.685828 170.358345,250.742829 C170.647265,254.155712 169.123791,266.675819 175.422411,262.099614 C176.586952,260.884904 176.999061,259.345031 177.227715,257.70947 C177.368629,256.701198 177.046032,255.050575 178.464928,255.046145 C181.292971,255.640653 178.225639,263.146869 182.525753,263.34622 C188.876663,261.556494 187.058065,243.252561 192.812525,236.633233 C198.289587,221.075908 184.924847,200.03777 181.468449,184.243882 C176.595814,160.783412 155.779435,155.682693 134.8248,153.788419 C127.642582,145.981848 121.759615,137.079291 116.208108,128.061553 C115.577094,127.022272 114.935445,125.992737 115.453904,124.698287 C116.257738,123.491551 117.4338,123.955816 118.469833,124.115297 C121.139236,124.552982 123.861814,124.754105 126.521468,125.092558 C109.339625,117.576595 94.0082835,133.544139 79.1794494,139.85248 C68.7827811,137.759741 57.9217148,134.943138 47.367293,137.283958 C34.0300276,140.781011 19.4422551,143.504584 8.73539724,152.688004 C51.4715442,127.146312 77.8279091,141.963825 121.271288,150.887646 C138.715464,157.498999 163.086615,153.40035 174.938516,170.563112 C178.530511,183.296745 200.545994,233.129978 189.339288,240.761121 C187.083767,240.828457 188.325411,231.569727 187.092629,229.560272 C186.963236,239.683741 189.62998,253.913833 182.268738,261.700913 C179.469942,259.695002 180.720449,252.830252 180.372151,249.393447 C179.689734,228.82046 173.824492,225.782356 176.641013,249.283582 C177.186061,251.848561 175.77071,265.967903 172.005895,259.825245 C170.290103,251.191147 171.672663,242.110503 169.008577,233.510959 C168.748018,232.276757 168.814487,230.121998 167.11908,230.257556 C164.330919,236.918526 168.667369,246.288893 165.750701,253.599302 C163.85234,259.411481 160.831094,252.790382 161.517942,249.738102 C161.994748,242.160119 160.170833,234.891351 158.180302,227.731562 C155.237047,216.077966 152.616388,204.37564 155.121833,192.495227 C154.881658,189.468641 158.088132,183.884165 153.364388,183.263963 C134.846956,180.665317 116.224061,182.976012 97.8599517,185.605669 C77.1401745,188.657949 54.8029802,191.804145 34.7673925,184.691314 C24.9370418,181.840157 16.3377006,176.290235 7.33511288,171.625429 C-6.40983025,164.433744 2.26041146,149.501051 8.37291857,140.122711 C12.5418664,134.055363 16.9953025,127.293389 23.4782645,123.638627 C39.0843451,114.754676 52.9941318,103.589268 66.5884115,91.9817439 C108.0129,49.8780008 148.007857,70.1851869 164.998269,50.6550253 C167.789975,44.8667685 177.230374,59.9323615 186.349061,58.4748868 C190.759956,59.3573457 195.153127,57.1680325 199.355753,57.7510224 C200.984691,63.3363846 197.811009,69.8228118 202.806833,74.5522952 C203.053212,74.819868 203.400625,75.3364077 203.709042,75.0945289 C200.257075,69.8715419 200.245554,63.8706444 201.33299,57.912275 C203.02308,56.5655506 204.097222,57.9760672 205.273283,58.8195419 C214.521364,65.4486155 223.714497,72.1405953 234.139525,76.9134929 C255.255459,84.9566271 274.804492,88.0806732 286.747677,110.024307 C306.69907,141.722832 318.723791,177.508489 332.757653,212.038679 C336.339013,217.847314 330.688246,223.017141 325.867013,225.546679 C297.096487,242.921196 261.445956,243.144468 232.184445,258.767357 C226.51152,268.012797 232.037326,281.293095 227.683151,291.618572 C218.552056,305.847779 230.696421,320.54568 225.000454,326.230275 C219.561502,323.361398 220.009061,309.288128 216.68117,303.692134 C216.146757,301.217527 214.071146,301.710145 214.481483,304.088177 C212.683269,312.561908 220.469914,323.122177 215.279113,330.426385 C213.910734,330.576119 213.68208,329.147882 213.362141,328.109487 C209.862317,319.384131 208.71107,309.682399 205.485099,301.058933 C207.519056,308.71134 208.436331,316.657014 210.804407,324.227908 C211.520502,329.798209 207.351554,332.535072 205.80681,325.812082 C202.572862,318.100312 203.713473,308.08848 199.658852,300.977421 C201.300198,307.136027 202.920274,314.058367 203.460004,320.622763 C203.449369,323.892113 199.883961,325.536535 198.83552,321.789629 C193.809563,309.631897 192.873677,296.006945 199.772293,284.587253 C207.309013,272.440154 207.315217,255.376624 220.721611,247.582457 C232.449435,239.851196 242.087468,229.262575 253.284426,220.748087 C265.731004,212.216766 274.240833,198.651175 288.192274,192.264867 C300.022904,188.144953 314.995312,189.360549 323.321686,199.125187 C312.042307,185.619845 298.440051,186.509392 283.214174,192.271069 C278.254686,185.679207 276.380255,176.74121 271.501416,170.448818 C269.939833,177.656451 269.541018,185.598581 268.323302,193.041891 C268.087558,194.847565 268.880757,196.097715 270.527421,196.93233 C274.099032,198.037175 275.27598,201.240962 271.7088,203.367369 C264.59571,209.127274 258.126928,215.624333 250.815317,221.180457 C244.822454,225.735398 239.432246,231.066477 233.745141,236.018347 C226.033829,244.375126 212.217985,248.57478 208.89098,260.083072 C199.721776,282.248206 185.469009,300.272162 199.029611,324.330685 C201.139786,327.375877 203.943013,322.553363 205.376089,327.455617 C206.387307,329.890353 207.901032,334.043048 210.583729,330.597383 C213.11399,328.268968 215.276454,335.462425 217.435374,329.749478 C220.547904,324.085262 213.109558,311.953224 216.448971,308.896515 C217.83153,308.636916 218.372146,310.400061 218.507743,311.734382 C219.059881,317.194818 221.403141,322.178584 222.641241,327.455617 C222.865464,330.064009 225.884051,330.261588 226.499113,327.669144 C230.749596,318.41573 221.752326,308.045952 226.114478,298.726973 C239.070653,261.045271 213.658151,259.938653 264.523037,248.64123 C305.550483,233.464001 349.106416,232.832281 392.160729,237.977299 C424.188246,240.481144 456.051805,248.904373 488.029691,245.37188 L242.657811,-5.68434189e-14" id="Fill-99" fill="#eb9c6d"/>
                    <path d="M713.909827,250.008687 C723.276666,280.667931 707.367486,280.42871 706.498069,303.113042 C709.876476,332.386577 705.434562,340.483758 676.594021,326.887158 C635.065841,311.533613 594.299841,334.410208 552.851424,337.492612 C526.472903,341.364445 502.375604,328.580309 476.728244,325.885088 C455.170069,323.962462 434.865946,332.751611 413.316633,333.16183 C407.882998,332.848185 399.203007,336.769634 394.82313,334.413752 C395.767879,331.172753 411.384595,329.216459 415.292097,327.249533 C442.493064,318.905158 467.576765,304.556341 495.702097,299.087045 C524.235107,293.110069 553.679187,297.173279 582.509979,294.523244 C596.527002,293.080831 610.17623,289.68301 623.984097,287.11183 C637.882363,286.177983 666.854069,290.152592 675.722832,278.652274 C686.003401,268.75828 696.7076,258.726069 703.218922,245.566269 C705.614472,241.789238 706.557448,237.410612 707.238093,233.010722 C707.429524,231.77209 707.074135,230.137414 708.769543,229.764407 C718.694723,230.875455 711.985765,243.900583 713.909827,250.008687" id="Fill-101" fill="#eb9c6d"/>
                    <path d="M166.987825,49.3099843 C168.544977,44.1374995 170.015275,38.9579266 170.757958,33.5976092 C178.463953,30.3167405 191.970493,38.448475 199.847536,40.9966193 C204.116631,42.5081402 203.311024,48.277791 202.189024,51.7792744 C199.345915,52.9550002 201.784892,56.4733177 199.46556,57.81384 C187.634043,61.8761633 175.661612,57.8847203 166.987825,49.3099843" id="Fill-103" fill="#eb9c6d"/>
                    <path d="M713.909827,250.008687 C710.172486,244.423325 717.969765,234.43187 710.191097,230.449287 C708.405292,229.832629 708.161571,229.963758 708.060538,231.87398 C707.892149,239.640681 703.684206,245.652211 700.407718,252.188254 C695.686633,256.970898 692.476614,266.426321 686.142543,268.262119 C685.696756,267.341562 686.194832,266.821478 686.927765,266.39974 C690.114742,262.343619 693.575571,258.465585 696.378799,254.159611 C700.990874,247.3303 705.764249,239.98445 705.776656,231.418575 C705.842239,230.345625 705.060562,228.819042 706.670889,228.235166 C710.663472,226.156603 715.053097,229.836173 715.946443,233.69826 C717.613491,237.770329 715.268457,242.128577 715.27732,246.455816 C713.691808,247.205374 714.198747,248.760309 713.909827,250.008687" id="Fill-105" fill="#3B2720"/>
                    <path d="M739.556744,201.624601 C736.298867,203.432933 735.692668,209.306246 731.898607,209.730641 C733.890024,205.129629 738.164436,201.180714 738.924844,195.963043 C741.171502,197.397481 739.905929,199.745389 739.556744,201.624601" id="Fill-107" fill="#3B2720"/>
                    <path d="M736.421968,193.746618 C733.905002,195.881885 732.827314,199.637651 729.557916,200.708829 C731.285229,195.762274 735.723599,192.196999 737.655637,187.237155 C738.369073,189.620502 737.223144,191.651221 736.421968,193.746618" id="Fill-109" fill="#3B2720"/>
                    <path d="M742.452674,208.27742 C729.386603,222.582822 737.824646,209.631232 742.54839,204.035238 C744.008053,205.236658 742.97202,206.905887 742.452674,208.27742" id="Fill-111" fill="#3B2720"/>
                    <path d="M744.603351,214.41547 C734.277583,226.672434 737.215522,217.206379 744.788579,211.998454 C744.727427,212.804717 744.664503,213.610094 744.603351,214.41547" id="Fill-113" fill="#3B2720"/>
                    <path d="M739.60345,201.258593 C739.714232,200.98216 739.825014,200.703955 739.935796,200.426637 C739.825014,200.703955 739.714232,200.98216 739.60345,201.258593" id="Fill-115" fill="#B87D67"/>
                    <path d="M434.381784,240.843253 C436.19595,241.671666 438.010116,242.499192 439.825168,243.327605 C440.002419,243.67669 440.024575,244.036407 439.891637,244.405871 C394.535718,238.990621 348.442433,231.479089 302.862291,238.794814 C284.878386,242.85005 267.552083,248.937775 249.56995,253.156035 C225.089789,260.707438 232.426215,260.277726 231.134054,283.103819 C229.83303,288.230231 228.850173,293.625103 227.042211,298.638107 C223.525547,305.313253 227.652841,313.266015 228.392865,320.284044 C229.19404,323.646425 226.613263,334.799429 222.392912,329.129897 C221.189376,326.623394 221.275343,323.689839 219.82277,321.197513 C219.071225,319.840156 218.528836,318.115109 218.630756,316.601816 C218.754831,314.737666 217.225154,313.286393 217.77286,311.383259 C217.835784,310.720529 216.958391,309.447343 216.184689,309.128381 C216.311424,315.397738 219.843154,321.680384 218.728244,328.212884 C217.669168,332.872373 214.338618,335.82542 211.747206,330.10007 C209.059192,337.314791 205.701168,330.823934 204.327471,326.766927 C202.61168,322.722324 201.206078,331.649689 196.679969,321.637856 C193.878514,312.357862 189.470277,301.598243 194.273784,292.296985 C198.97803,281.930751 202.347575,270.48891 208.283718,260.881094 C206.913566,252.319648 223.350955,244.773562 228.861694,239.042895 C238.057485,232.435086 245.095244,223.609611 254.609201,217.441259 C267.636277,207.576503 277.13694,192.151192 293.647002,187.983435 C303.357708,185.199614 322.352831,190.709666 324.38413,201.392203 C316.550514,190.765484 300.814154,188.046341 288.734485,192.958341 C272.89532,200.189011 262.737054,216.478174 247.863021,225.429461 C238.505931,234.913236 227.950623,243.349755 217.119689,251.048234 C210.184737,256.57512 209.483708,266.142179 205.476059,273.573972 C202.511533,281.026142 199.161485,288.267444 195.463139,295.478621 C193.819135,301.179164 196.368007,307.403334 196.851016,313.202223 C197.070808,317.102407 201.946988,330.421689 202.724234,319.21641 C201.35231,313.820653 201.487907,308.087328 199.269609,302.851051 C198.370945,301.18891 198.508315,296.382344 200.57595,300.159374 C203.741656,306.038003 204.329244,328.4397 209.143386,329.251279 C212.107912,323.174185 206.933064,316.714338 206.681367,310.367899 C205.730414,306.978052 202.084357,291.478318 207.128926,302.958257 C209.476618,312.074341 211.268628,321.638742 215.083959,330.08678 C218.089253,325.13048 215.448211,319.068448 214.29076,313.911911 C213.748372,311.932581 212.234647,298.615071 216.009211,300.914249 C219.638429,303.666174 221.84432,328.398944 225.540893,325.414887 C226.397016,312.999328 219.411547,302.919273 227.093613,290.829764 C231.337007,280.841853 225.695102,266.867816 231.474376,258.298396 C250.837296,246.727198 274.837993,245.044679 295.316708,237.493276 C308.395187,232.638866 325.016917,229.490898 333.407988,217.319876 C339.903357,223.121423 320.511192,231.430358 316.383898,233.991793 C355.567931,230.633842 395.820789,234.061787 434.381784,240.843253" id="Fill-117" fill="#3B2720"/>
                    <path d="M154.157853,211.942548 C154.395369,210.637465 154.632,209.334155 154.869516,208.029073 C156.93981,217.363999 158.596222,227.259766 161.181431,236.665572 C163.179052,242.67976 160.638156,250.264831 163.88008,255.509082 C168.797914,247.824779 163.782592,237.631315 166.070905,229.22049 C172.537028,223.942571 170.692729,259.237382 173.69182,261.307084 C178.422654,252.137841 173.963014,241.296709 175.6469,231.416891 C178.020293,226.477425 180.575369,240.217558 180.431796,241.941719 C182.375355,248.206646 180.067545,255.229991 182.179493,261.372649 C189.401592,251.695725 185.743128,237.957364 186.427317,226.916882 C189.811042,230.209269 187.771767,236.197763 189.056838,240.462095 C196.582038,230.437858 187.959654,217.149587 186.251838,206.319973 C185.957602,203.834735 184.567952,201.111162 183.655109,198.862487 C184.455398,196.841515 182.791895,195.571872 182.30091,193.957575 C174.395507,158.497082 161.896639,159.577119 129.703393,153.941255 C128.960711,150.236877 153.418715,156.219168 156.330066,156.979359 C180.671971,161.357985 182.646549,189.161641 189.951071,208.239942 C192.62136,217.092882 197.751009,227.357226 193.746019,236.46002 C189.193322,243.228196 188.686383,251.157035 186.866014,258.812986 C186.682559,262.677731 181.136369,267.716429 179.54554,261.831598 C178.706256,259.829232 178.865782,257.789653 179.028853,255.65793 C177.500947,254.067555 177.941417,259.562545 177.370668,260.438802 C176.917791,262.126637 175.850739,263.49374 174.077341,264.025341 C166.953616,265.207269 171.081796,252.276057 169.048725,248.523835 C168.867929,248.707237 168.515199,248.907474 168.531151,249.072271 C168.637502,252.677416 166.33235,256.96124 163.076246,258.218478 C157.791502,255.858167 160.628407,242.04361 159.227237,236.652282 C156.930947,228.484222 154.30763,220.381725 154.157853,211.942548" id="Fill-119" fill="#3B2720"/>
                    <path d="M631.35562,283.346318 C619.632226,291.385908 604.166174,291.192759 590.583416,294.276049 C562.508601,298.16826 534.347819,294.255671 506.124112,298.167374 C463.47925,303.824502 426.487814,329.896909 383.900558,335.977547 C400.275909,329.918173 417.674885,326.330748 433.856146,319.450935 C457.734539,309.463911 481.818544,298.209016 507.730894,295.427853 C526.254529,292.302921 545.395885,294.343386 564.117155,293.693059 C586.889501,292.489867 609.3038,289.418095 631.35562,283.346318" id="Fill-121" fill="#3B2720"/>
                    <path d="M85.0809389,142.333377 C86.0460716,142.776378 87.0112043,143.218493 87.9763371,143.661495 C79.325593,142.492857 70.8813465,139.72587 62.1836309,138.691019 C60.6610432,137.867922 59.7942849,139.113642 58.2530859,138.994918 C44.8989816,137.17684 32.4391096,143.918436 19.9109958,147.479281 C18.3378916,148.033919 16.8241664,148.932326 15.3671617,149.714667 C11.9639389,150.099192 10.2525788,153.545743 7.27298634,154.320996 C11.4224366,145.647027 23.9523228,143.839581 32.3265551,140.542765 C41.0996025,138.345478 50.4052897,134.17772 59.3715408,136.009088 C68.1747209,136.982805 77.4476167,137.1414 85.0809389,142.333377" id="Fill-123" fill="#3B2720"/>
                    <path d="M115.789175,124.863349 C106.954976,125.96022 98.8120565,131.113213 90.5530375,134.402056 C89.9539285,134.310798 89.6393077,133.979433 89.6729854,133.354801 C101.181019,127.203282 116.125952,116.958431 128.584938,125.758212 C124.426625,126.763825 119.965213,123.711545 115.789175,124.863349" id="Fill-125" fill="#3B2720"/>
                    <path d="M199.46423,57.8134856 C200.050932,56.1256501 199.238235,50.1158926 202.188581,51.77892 C202.099956,59.3719647 199.450937,67.5364813 204.187088,74.2639012 C204.59388,75.1649662 206.201548,76.0571711 205.1407,76.960894 C197.818453,74.6998147 198.81106,64.1253702 199.46423,57.8134856" id="Fill-127" fill="#3B2720"/>
                    <path d="M89.6732513,133.354801 C89.966602,133.704772 90.2599527,134.052971 90.5533034,134.402056 C87.1066541,136.603773 81.5693271,137.282451 85.0806731,142.333554 C83.4685735,141.406795 79.2047963,141.889666 79.5699337,139.368988 C83.1255925,137.680267 85.8499432,134.592547 89.6732513,133.354801" id="Fill-129" fill="#9B5B57"/>
                    <path d="M439.89146,244.405428 C439.869303,244.046596 439.846261,243.686879 439.824991,243.327162 C444.420228,244.169751 449.016351,245.013226 453.611588,245.854928 C449.517085,247.358475 444.25627,244.893615 439.89146,244.405428" id="Fill-131" fill="#9B5B57"/>
                    <path d="M122.80912,152.054334 C125.068186,152.300643 127.328138,152.547838 129.587205,152.794147 C129.625314,153.1769 129.664309,153.558767 129.703304,153.941521 C127.361816,153.471939 124.872323,153.541047 122.80912,152.054334" id="Fill-133" fill="#9B5B57"/>
                    <path d="M632.482494,283.198355 C632.090769,283.259489 631.699044,283.322396 631.308205,283.38353 C631.587375,282.610049 632.012778,282.7651 632.482494,283.198355" id="Fill-135" fill="#3B2720"/>
                    <path d="M121.922066,151.637293 C122.204782,151.795887 122.488383,151.953596 122.771985,152.111304 C122.488383,151.953596 122.204782,151.795887 121.922066,151.637293" id="Fill-137" fill="#9B5B57"/>
                    <path d="M434.381784,240.843253 C394.289338,235.763798 353.457756,231.539337 313.160585,234.586301 C318.881367,230.978497 332.96486,225.86183 334.502514,218.696725 C355.099102,216.675752 378.465239,217.404933 397.423139,224.671042 C410.085964,228.675775 423.62441,233.120852 434.381784,240.843253" id="Fill-139" fill="#eb9c6d"/>
                    <path d="M672.572547,309.278293 C671.716423,308.879592 669.696646,307.952833 669.046134,306.761159 C668.678338,306.290691 667.426945,306.244619 668.099613,305.329378 C670.566063,304.671078 673.857618,308.355078 675.926139,305.502149 C684.112485,297.678743 677.602935,310.058862 672.572547,309.278293" id="Fill-141" fill="#3B2720"/>
                    <path d="M680.591302,274.201616 C682.361155,272.185074 684.130121,270.166759 685.899974,268.14933 C686.258908,268.276915 686.616069,268.405385 686.974117,268.533856 C684.821401,270.299659 683.457453,273.775449 680.591302,274.201616" id="Fill-143" fill="#9B5B57"/>
                    <path d="M215.828769,307.152418 C216.165546,307.419105 216.107939,307.593647 215.832314,307.868308 C215.523897,307.668072 215.742802,307.435053 215.828769,307.152418" id="Fill-145" fill="#B87D67"/>
                    <path d="M179.161702,248.795661 C178.986224,249.951894 179.553428,251.565306 178.871011,252.495609 C177.864224,252.216518 177.64975,250.895487 177.764077,249.813678 C178.323304,245.969311 177.001011,241.735104 177.666589,237.983767 C178.878101,241.270838 178.769091,245.228613 179.500252,248.745158 C179.387698,248.761992 179.274257,248.778826 179.161702,248.795661" id="Fill-147" fill="#9B5B57"/>
                    <path d="M168.333605,243.437204 C168.348671,242.563605 168.213074,241.673172 168.569349,240.850075 C169.1206,242.42273 170.168155,244.756462 168.797117,246.120906 C168.17851,245.32882 168.332719,244.380797 168.341581,243.437204 L168.333605,243.437204 Z" id="Fill-149" fill="#B87D67"/>
                    <path d="M177.475689,254.900752 C177.688391,253.878305 178.122656,249.015035 179.2225,251.759872 C179.405955,256.686934 181.093386,262.081805 177.199177,266.00857 C169.591556,277.467246 165.771793,291.064732 163.626168,304.427427 C166.649187,289.866856 170.860675,274.559384 181.124405,263.326639 C185.133827,263.563202 186.511068,259.435315 187.47177,256.120778 C191.373955,251.383321 205.067495,238.965104 210.667746,239.945023 C211.413974,241.016201 210.566713,242.026244 209.759334,242.49051 C192.41885,255.981676 181.399144,276.776163 178.701381,298.562088 C178.548059,300.319918 175.293727,316.134183 176.717054,311.886686 C181.150106,278.699676 200.012291,238.067583 236.131651,232.586769 C228.097741,243.350818 212.720315,247.688689 208.336007,260.867981 C200.555566,287.112273 184.962779,294.72924 198.553514,323.563318 C199.440656,325.870469 199.737552,326.120322 202.1074,325.327349 C206.094665,324.345658 206.841779,337.405341 211.061244,330.374022 C212.107912,328.011938 212.649414,330.820567 213.463883,331.7553 C214.249106,332.816732 215.618372,332.269182 216.217481,331.309641 C221.118476,323.411811 214.966974,314.243453 215.392376,306.019575 C218.290433,311.256738 218.839026,318.717768 221.66441,324.489191 C228.995519,338.675869 227.098045,311.588989 225.789045,307.497427 C223.748883,299.302787 230.218552,292.615237 230.014713,284.525145 C231.420315,278.148582 228.679125,262.919078 233.439206,259.259 C250.494315,250.862351 269.553248,248.098022 287.3085,241.459202 C301.436305,235.872954 316.031168,234.258657 331.124993,234.784056 C336.01358,235.287306 341.784879,233.641113 346.136395,236.219381 C339.307793,241.698423 329.48985,243.622821 324.511751,251.534827 C314.757618,264.630836 306.191068,279.058507 303.136144,295.291852 C299.316381,311.619999 302.017689,328.308749 303.61295,344.721953 C303.612064,345.894134 304.236874,347.776891 302.578689,348.002821 C287.606282,349.324738 274.049225,356.626287 258.970466,357.726703 C227.230983,361.425765 193.668471,355.011104 166.87341,337.11739 C125.786585,310.803104 123.246575,248.835176 151.697163,212.249459 C156.519282,207.437577 155.189011,223.079072 157.16359,225.367618 C160.404628,234.979863 159.661059,245.241549 161.323675,255.062005 C161.815547,256.693136 163.121002,257.152085 164.685244,256.476065 C170.291699,253.16773 167.154353,244.654129 168.318007,239.166227 C168.544002,238.965104 168.773542,238.960674 169.006628,239.153823 C170.89258,246.730033 167.682561,257.491424 173.158737,263.356764 C176.959002,263.107797 177.536841,257.944172 177.475689,254.900752" id="Fill-151" fill="#FE8395"/>
                    <path d="M188.398971,249.467074 C190.065132,240.299602 197.997122,232.910338 194.129502,222.870153 C187.477265,204.852398 192.919762,214.685258 205.37343,214.439835 C226.02408,214.605518 248.741478,210.630023 264.554942,196.553209 C267.06925,193.461945 270.065682,197.681091 272.881317,198.497099 C278.58526,202.775607 243.761606,224.356866 239.683056,229.49834 C222.363843,231.774482 205.922023,237.394398 192.390667,248.760043 C191.372359,249.669082 189.243573,251.488046 188.398971,249.467074" id="Fill-153" fill="#FE8395"/>
                    <path d="M312.73013,233.656529 C322.079244,228.725037 330.553623,225.942988 336.086519,216.549586 C346.050694,216.173034 356.526239,215.42259 366.365453,217.26902 C364.510519,222.639969 361.22251,227.846122 359.032571,233.302128 C347.64241,234.159779 335.68859,233.622861 324.106998,234.085355 C320.450306,233.950682 316.059794,235.964567 312.73013,233.656529" id="Fill-155" fill="#FE8395"/>
                    <path d="M189.64097,250.107299 C203.593297,238.62736 221.432742,229.240159 239.681638,229.4971 C235.818448,233.950151 229.635927,233.829654 224.485008,236.097822 C219.885339,239.144786 214.896605,241.173732 210.569903,244.706226 C190.141704,261.682041 180.488605,288.092901 177.322012,313.880901 C177.216548,315.645819 175.079785,315.247117 175.274761,313.540676 C179.612984,280.412142 185.93642,262.987123 210.398856,240.065343 C201.636444,242.976748 194.532216,250.242858 187.472302,256.120601 C187.871117,254.078364 187.250738,251.233409 189.64097,250.107299" id="Fill-157" fill="#ED4C64"/>
                    <path d="M312.73013,233.656529 C327.724694,233.947138 343.675529,231.593029 359.032571,233.302128 C358.132135,235.369173 355.177358,234.433554 353.317107,235.002368 C347.84359,236.296818 342.753822,235.482581 337.246628,236.062913 C327.005055,234.833141 316.457723,237.078272 306.25869,235.668642 C308.416723,234.997938 310.572983,234.327233 312.73013,233.656529" id="Fill-159" fill="#ED4C64"/>
                    <path d="M181.124582,263.326462 C175.521672,272.030555 170.262629,280.930454 167.664127,291.205429 C165.963402,294.174425 165.201222,306.395949 163.021919,306.687444 C163.597099,290.850142 170.29099,273.924829 179.85635,260.980327 C180.279094,261.761781 180.701838,262.544122 181.124582,263.326462" id="Fill-161" fill="#FE8395"/>
                    <path d="M179.254316,244.143259 C179.359781,245.120521 179.248112,245.997663 178.669387,246.815444 C177.434833,244.112249 177.367477,240.277629 177.760089,237.345845 C179.150624,239.200249 178.796122,241.901672 179.400548,244.114907 C179.351804,244.124653 179.30306,244.133513 179.254316,244.143259" id="Fill-163" fill="#FE8395"/>
                    <path d="M169.006982,239.153468 C168.776556,239.157898 168.547015,239.162328 168.318361,239.166758 C167.935499,237.682704 167.609356,236.202193 167.658101,234.660548 C169.542281,235.29404 168.847456,237.643719 169.006982,239.153468" id="Fill-165" fill="#FE8395"/>
                    <path d="M132.797667,262.160039 C133.530601,262.997312 133.550984,263.805347 132.695747,264.576169 C131.925591,263.736239 131.903435,262.92909 132.797667,262.160039" id="Fill-167" fill="#C6E8E8"/>
                    <path d="M225.789665,307.496807 C226.370163,307.874244 226.409158,308.275604 225.844613,308.703543 C225.230438,308.327878 225.199419,307.926519 225.789665,307.496807" id="Fill-169" fill="#C6E8E8"/>
                    <path d="M228.810202,358.229067 C229.24624,357.674429 229.648601,357.720501 230.019942,358.298175 C229.581245,358.905087 229.178885,358.853699 228.810202,358.229067" id="Fill-171" fill="#D3EDED"/>
                    <path d="M254.802405,358.309516 C255.170201,357.722096 255.571675,357.67691 256.010372,358.234205 C255.645234,358.850863 255.244647,358.911112 254.802405,358.309516" id="Fill-173" fill="#D3EDED"/>
                    <path d="M234.853847,358.838194 C235.284568,358.285328 235.686928,358.320768 236.064473,358.895784 C235.630208,359.51067 235.227847,359.461054 234.853847,358.838194" id="Fill-175" fill="#D3EDED"/>
                    <path d="M346.623393,235.9884 C346.897246,235.892712 347.169327,235.796138 347.44318,235.700449 C347.169327,235.796138 346.897246,235.892712 346.623393,235.9884" id="Fill-177" fill="#7FB9B9"/>
                    <polygon id="Fill-179" fill="#93D4D4" points="211.588832 239.371425 211.65087 239.53445 211.489571 239.513186"/>
                    <path d="M207.471916,116.469621 C211.57022,109.785019 225.403523,85.1277142 226.766585,72.4959711 C232.032718,72.3453506 238.457187,77.2670966 244.048575,78.7812755 C253.819547,81.5181385 243.321846,82.8072727 250.889585,86.4115324 C257.166936,103.270395 266.734068,119.905986 271.130784,136.969515 C272.643623,151.86411 271.878784,166.806548 271.65722,181.763163 C272.285575,185.083902 269.980424,183.216208 268.791955,185.300087 C267.784282,187.13234 269.495642,190.67901 271.918665,190.045518 C273.065481,189.618465 273.136381,190.69673 273.052187,191.251368 C267.021215,216.393472 223.395267,225.452851 200.857779,223.430107 C198.032395,222.876355 193.567438,222.830283 192.93022,219.283613 C190.387552,206.924759 185.544163,195.283567 181.726173,183.322528 C178.733286,169.80744 168.851533,158.897201 154.83185,156.745099 C130.085812,153.802684 132.904993,152.773149 119.222974,132.35344 C130.192163,119.40185 137.548087,103.243815 131.376201,86.3105281 C129.86159,80.0199076 128.136936,73.5830966 124.730168,67.9791284 C123.783647,66.5340577 122.24422,65.2263174 122.8194,63.1450966 C129.632936,61.5582654 131.162996,60.6697357 131.712712,60.5080447 C133.316946,59.1075815 141.844656,59.1075815 142.385272,61.8471024 C157.499481,82.2759663 179.195029,100.483472 207.471916,116.469621 Z" id="Fill-181" fill="#2F1F1A"/>
                    <path d="M116.705741,128.767343 C113.266182,125.561785 106.619262,133.729846 103.910864,129.565632 C96.6878783,118.54287 88.8764186,107.94096 80.7689494,97.5543477 C79.1222859,95.8213261 78.8617266,93.7666854 78.3964423,91.5543362 C78.0844802,88.5286363 75.3060679,91.204365 73.9917503,89.4571673 C73.121447,87.8986882 68.9090726,85.8723996 71.3808404,84.2164602 C74.8886413,81.8658946 78.3299731,79.4107806 81.910447,77.1762813 C93.3307408,70.9964112 105.179983,61.4842842 118.803509,62.7973405 C129.274622,75.4042755 131.048907,93.8676897 130.342561,109.719167 C127.567693,116.666316 123.922523,125.513055 116.705741,128.767343" id="Fill-183" fill="#2F1F1A"/>
                    <path d="M255.342489,80.9248709 C273.585181,84.0427151 285.573565,100.960054 294.679845,115.749214 C296.169641,118.354949 296.236996,118.432917 293.742186,120.317445 C286.918902,125.424366 279.962679,130.356744 273.077356,135.38038 C271.340295,135.342282 271.312821,133.832533 271.233058,132.810972 C267.758935,115.914011 258.002143,101.134597 251.505001,85.2972952 C252.273385,83.2834106 252.31238,79.9998839 255.342489,80.9248709" id="Fill-185" fill="#2F1F1A"/>
                    <path d="M116.705741,128.767343 C122.703921,123.978498 127.23003,116.72302 129.59722,109.473745 C129.765608,107.226841 128.975954,104.898426 130.202532,102.742781 C129.48821,91.1060187 127.365627,79.547225 122.771276,68.9453145 C120.583111,67.5790981 119.898921,64.8856493 118.803509,62.7973405 C120.142641,62.9134069 121.480888,63.0294732 122.819134,63.1455396 C136.237935,86.2073087 140.666556,112.636775 119.222708,132.353883 C118.38431,131.157779 117.544139,129.963447 116.705741,128.767343" id="Fill-187" fill="#0D0907"/>
                    <path d="M146.178093,182.493407 C146.178093,182.493407 151.234183,182.821228 153.363856,183.264229 C158.216107,184.271614 155.567088,191.937311 156.140496,196.874119 C155.049515,201.638157 158.955245,208.961857 154.578913,211.870604" id="Fill-189" fill="#2F1F1A"/>
                    <path d="M251.733389,85.2649561 C260.242332,101.283002 268.334735,118.050607 273.077091,135.379937 C272.429238,135.909767 271.779612,136.440483 271.130873,136.969426 C264.701972,117.89467 254.633219,99.4401162 248.144053,80.94835 C249.991896,79.5608695 252.930721,83.6240787 251.733389,85.2649561" id="Fill-191" fill="#0D0907"/>
                    <path d="M271.7088,143.68143 C271.624606,143.197672 271.541298,142.714801 271.457103,142.231043 C271.868326,142.658097 272.299933,143.08072 271.7088,143.68143" id="Fill-195" fill="#FFC388"/>
                    <path d="M217.95791,156.976701 C218.585379,157.573867 218.138706,157.980542 217.707986,158.390761 C217.791294,157.918522 217.873716,157.448054 217.95791,156.976701" id="Fill-197" fill="#FDD1A3"/>
                    <path d="M222.822746,110.437273 C223.353613,110.887362 223.239286,111.279861 222.716395,111.636921 C222.751846,111.237333 222.787296,110.837746 222.822746,110.437273" id="Fill-199" fill="#FFC388"/>
                    <path d="M227.75866,72.0613867 C227.428086,72.2058051 227.097513,72.3511096 226.766939,72.4955281 C226.801503,72.178339 226.835181,71.86115 226.868859,71.543961 C227.164868,71.7158455 227.461764,71.8895021 227.75866,72.0613867" id="Fill-201" fill="#FFC388"/>
                    <path d="M225.249581,86.8612675 C225.776903,87.3140149 225.6546,87.7056282 225.13614,88.0600294 C225.174249,87.6595561 225.211472,87.2608548 225.249581,86.8612675" id="Fill-203" fill="#FFC388"/>
                    <path d="M244.047866,78.783402 C243.540042,78.5822793 243.032217,78.3820426 242.524393,78.18092 C243.032217,78.3820426 243.540042,78.5822793 244.047866,78.783402" id="Fill-205" fill="#FFC388"/>
                    <path d="M156.140673,196.874474 C156.168147,196.473115 156.195621,196.071755 156.222209,195.66951 C156.739782,196.108081 156.683062,196.507669 156.140673,196.874474" id="Fill-207" fill="#FDCB97"/>
                    <path d="M223.304869,209.825355 C222.337964,213.930207 217.824263,212.824475 217.414812,208.790504 C218.242575,205.554821 223.681528,205.521153 223.304869,209.825355" id="Fill-209" fill="#FFF8F2"/>
                    <path d="M188.729633,193.629843 C190.085604,188.588486 195.427955,192.720804 193.690893,195.930792 C192.212619,199.193055 188.189017,196.815023 188.729633,193.629843" id="Fill-211" fill="#FFF7EF"/>
                    <path d="M266.793713,144.077739 C267.055159,147.859199 261.789912,149.019863 261.464656,145.168409 C260.80351,141.029889 266.627983,140.15186 266.793713,144.077739" id="Fill-213" fill="#FFF7EF"/>
                    <path d="M252.334093,197.683483 C251.379596,205.444868 242.968141,195.345321 249.35007,194.609053 C251.755368,194.675503 252.381951,195.320513 252.334093,197.683483" id="Fill-215" fill="#FFF5EC"/>
                    <path d="M273.075407,187.345601 C272.120023,195.106987 263.709454,185.00744 270.090497,184.271171 C272.496682,184.337622 273.122378,184.983518 273.075407,187.345601" id="Fill-217" fill="#FFF5EC"/>
                    <path d="M251.13366,117.810854 C254.800101,118.225504 253.70912,123.596453 250.019636,123.644297 C246.14138,122.58198 247.510646,118.561299 251.13366,117.810854" id="Fill-219" fill="#FFF6EE"/>
                    <path d="M145.796383,114.747056 C149.455733,114.444044 149.884681,119.972702 146.424738,120.335077 C143.928155,120.374947 141.777212,114.740854 145.796383,114.747056" id="Fill-221" fill="#FFF6EE"/>
                    <path d="M194.570768,158.92954 C194.669143,161.715133 189.644072,162.055358 189.789418,158.836509 C189.716745,155.273006 194.966038,154.1593 194.570768,158.92954" id="Fill-223" fill="#FFF8F2"/>
                    <path d="M222.805464,179.45548 C223.252137,183.531979 218.110966,183.309592 217.84509,180.283007 C217.495019,176.96404 222.71418,175.704144 222.805464,179.45548" id="Fill-225" fill="#FFFAF5"/>
                    <path d="M172.501755,118.866438 C172.150798,114.698681 177.075722,116.730285 177.126238,119.211093 C176.660068,120.293789 177.316783,122.149079 175.523002,122.343114 C173.793916,122.553096 172.393632,120.512632 172.501755,118.866438" id="Fill-227" fill="#FFF6EE"/>
                    <path d="M137.518929,143.147613 C137.778602,146.300897 134.347906,146.96097 133.118669,144.60243 C131.637735,141.332193 137.549062,138.148785 137.518929,143.147613" id="Fill-229" fill="#FFF7EF"/>
                    <path d="M165.240394,144.819235 C163.219731,150.302707 159.100413,143.861466 161.926683,140.997018 C164.060788,140.041907 165.372447,141.863529 165.240394,144.819235" id="Fill-231" fill="#FFF8F2"/>
                    <path d="M248.547565,166.911274 C248.505911,171.561017 244.724257,170.416301 243.895608,166.862544 C243.175082,163.119181 248.496162,163.377008 248.547565,166.911274" id="Fill-233" fill="#FFF8F2"/>
                    <path d="M230.382775,101.225944 C225.875277,101.052287 228.94704,94.874189 232.208462,96.0454848 C234.308002,97.0626161 232.246571,100.965459 230.382775,101.225944" id="Fill-235" fill="#FFFAF5"/>
                    <path d="M231.763207,138.716713 C231.653311,140.602127 231.026729,140.8697 229.344615,141.085884 C223.622947,139.771942 231.406046,131.885631 231.763207,138.716713" id="Fill-237" fill="#FFF7EF"/>
                    <path d="M148.947643,84.3529933 C149.187818,87.8048605 144.223899,86.1533512 144.496865,83.7257033 C144.973671,80.1116975 148.912193,80.8010077 148.947643,84.3529933" id="Fill-239" fill="#FFF8F2"/>
                    <path d="M248.188365,81.7365382 L250.364124,86.1337705 C247.606982,87.1881139 245.778636,83.3047633 248.188365,81.7365382" id="Fill-241" fill="#FAEDE0"/>
                    <path d="M102.403609,81.7157171 C102.377907,85.8320865 97.2172389,87.2496911 96.717348,82.4546435 C96.6996655,78.7883636 102.214836,77.4637893 102.403609,81.7157171" id="Fill-243" fill="#FFF7EF"/>
                    <path d="M116.44527,103.884838 C120.080692,103.776746 120.916431,109.411724 117.421038,109.784732 C114.85001,109.83169 113.556962,104.115199 116.44527,103.884838" id="Fill-245" fill="#FFF6EE"/>
                    <path d="M288.37112,118.977189 C284.794192,118.970987 285.788571,114.515278 288.277177,114.193659 C291.908168,113.93849 291.150419,119.081737 288.37112,118.977189" id="Fill-247" fill="#FFF7EF"/>
                    <path d="M272.890179,101.855006 C273.056795,104.842607 268.337483,104.112541 268.68844,101.480226 C269.027876,98.6352712 273.235819,97.963681 272.890179,101.855006" id="Fill-249" fill="#FFF7EF"/>
                    <path d="M250.281082,82.0764975 C251.163793,80.6101627 251.890522,81.9595451 252.677518,82.2093979 C252.723603,83.2770314 253.466285,85.3219261 251.733655,85.2652219 C251.249759,84.2020184 250.765864,83.1388149 250.281082,82.0764975" id="Fill-251" fill="#FFF"/>
                    <path d="M204.05477,51.152959 C204.247088,51.0191725 204.439405,50.8845001 204.631723,50.7515996 C204.439405,50.8845001 204.247088,51.0191725 204.05477,51.152959" id="Fill-253" fill="#ffdde3"/>
                    <path d="M205.372899,46.6528617 L205.255913,47.3306539 C193.884363,52.5314908 180.28388,47.1437073 170.904633,39.8643076 C170.854117,39.5914187 170.802714,39.3194158 170.752197,39.0456409 C171.833429,38.0763538 172.61688,39.0908271 173.367538,39.5480045 C179.681226,43.3968011 186.772159,44.8693379 193.888794,46.1132859 C197.549031,46.8371503 202.001581,44.4892426 205.372899,46.6528617" id="Fill-356" fill="#57423B"/>
                </g>
            </g>
        </g>
        <g id="Head" transform="translate(161.000000, 140.000000) scale(1 1)">
            <defs>
                <polygon id="headpink-hair-path-1" points="0.4156 0.3131 1.4156 0.3131 1.4156 1 0.4156 1"/>
                <polygon id="headpink-hair-path-3" points="0.27 0.214 25.427 0.214 25.427 20.1440549 0.27 20.1440549"/>
            </defs>
            <g id="Head/Pink Hair" stroke="none" stroke-width="1" fill="none" fill-rule="evenodd">
                <g id="Hair" transform="translate(8.000000, 66.000000)">
                    <g id="Group-41" transform="translate(50.000000, 23.000000)">
                        <path d="M63.4405,104.5373 C63.1675,104.8903 62.8955,105.2433 62.6225,105.5953 C55.3115,109.1053 40.7145,107.9523 36.4955,101.7743 C40.5655,101.7753 44.8295,103.6943 48.9845,104.2423 C53.7755,105.8683 58.8795,103.1883 63.4405,104.5373" id="Fill-5" fill="#3E2C26"/>
                        <g id="Group-11" transform="translate(51.000000, 106.660000)">
                            <mask id="headpink-hair-mask-2" fill="#fff">
                                <use xlink:href="#headpink-hair-path-1"/>
                            </mask>
                            <g id="Clip-10"/>
                            <path d="M0.4396,0.7811 C0.7566,0.8021 1.0736,0.8241 1.3916,0.8451 C1.0736,0.8241 0.7566,0.8021 0.4396,0.7811" id="Fill-9" fill="#815747" mask="url(#headpink-hair-mask-2)"/>
                        </g>
                        <path d="M88.6632,53.2453 C88.6632,82.1033 73.4412,85.0333 49.9682,79.2543 C28.1632,73.8863 1.4722,82.1033 1.4722,53.2453 C1.4722,24.3873 20.9912,0.9933 45.0682,0.9933 C69.1452,0.9933 88.6632,24.3873 88.6632,53.2453" id="Fill-12" fill="#B87D67"/>
                        <path d="M36.461,101.862 C34.016,100.198 30.579,99.534 28.392,97.325 C14.278,83.068 16.654,77.664 9.79,75.145 C2.016,72.291 -1.295,60.254 1.472,52.735 C6.353,42.696 11.377,57.155 13.281,50.682 C16.208,-14.616 97.369,-2.406 87.895,60.73 C75.846,59.314 68.714,72.908 80.716,78.892 C81.532,79.191 82.914,78.867 82.865,80.432 C76.832,101.587 56.475,111.353 36.461,101.862" id="Fill-14" fill="#eb9c6d"/>
                        <path d="M82.8653,80.4323 C68.0773,77.1333 73.6253,56.6163 87.8943,60.7303 C87.7203,67.5343 86.1863,74.4643 82.8653,80.4323" id="Fill-16" fill="#F69973"/>
                        <path d="M34.6656,80.8044 C20.0346,81.2294 22.1466,59.7604 34.3806,60.2194 C47.9706,59.8734 49.0166,81.0854 34.6656,80.8044" id="Fill-18" fill="#F69973"/>
                    </g>
                    <g id="Group-38">
                        <path d="M151.1614,141.9296 C144.9324,140.2006 138.4874,138.8046 132.5024,136.4206 C127.9434,122.6656 157.2384,115.7556 139.2094,102.9776 C133.6854,99.6756 135.4904,93.5936 136.6014,88.5086 C139.7084,64.8816 133.1464,33.5476 104.6954,32.0026 C104.6604,30.2016 106.0134,28.5836 108.3324,27.8736 C126.5624,21.1246 146.4104,31.9496 150.3644,51.0606 C152.4524,63.1276 143.1474,74.5276 146.1024,86.5336 C147.2824,94.2196 154.8084,97.9336 159.0674,103.8196 C164.1784,115.5306 145.1854,122.1316 151.1614,141.9296" id="Fill-1" fill="#ffdde3"/>
                        <path d="M124.219,18.4535 C144.383,22.4155 162.555,42.1005 161.769,63.2235 C158.615,79.8465 153.486,88.2255 170.789,98.1485 C180.355,108.8255 162.936,118.8185 166.009,130.4695 C171.783,149.2095 175.555,149.4955 154.12,142.8085 C143.835,120.6125 178.271,111.5095 150.151,90.9205 C141.531,76.2865 158.97,58.9295 150.355,44.0985 C142.806,25.3545 115.941,17.7395 100.843,32.2335 C92.828,34.5795 96.027,26.8935 100.579,24.7575 C107.853,20.6435 115.632,17.6495 124.219,18.4535" id="Fill-3" fill="#ffdde3"/>
                        <path d="M13.0125,116.29 C-3.3935,116.826 -2.1375,98.904 5.0495,88.688 C10.0285,82.155 22.2215,83.312 23.3895,73.555 C23.1685,52.234 24.9295,19.155 52.1565,16.37 C73.0005,26.191 32.1915,21.553 32.3145,53.533 C44.1505,98.863 16.2435,82.891 13.0125,116.29" id="Fill-5" fill="#ffdde3"/>
                        <path d="M46.3704,124.5526 C25.4534,123.1676 19.7934,112.1436 33.6094,95.7376 C42.1974,87.5396 46.9664,75.4386 43.2674,63.7816 C32.4514,39.5516 68.6434,13.7506 68.8294,31.4816 C56.3904,41.5436 52.0524,57.7946 55.4264,73.0626 C47.1724,77.8706 52.0054,87.7836 54.4224,94.7446 C45.9204,102.6826 44.6874,114.0726 46.3704,124.5526" id="Fill-7" fill="#ffdde3"/>
                        <path d="M55.1751,72.8456 C50.7811,59.7486 55.1661,46.0126 63.3951,35.4906 C64.7871,34.0236 71.2681,30.1996 68.5231,28.5056 C56.4041,21.2436 43.2121,39.4616 42.3721,50.7836 C41.6951,60.9836 47.8791,71.2186 43.4561,80.9976 C40.1291,95.2326 19.8941,103.6476 29.5261,120.3846 C15.9141,116.5476 27.4021,96.9856 34.4661,90.9426 C52.4111,69.6566 22.6931,37.4576 60.4361,24.3506 C16.6651,35.1596 51.6061,71.1576 31.0761,91.6106 C22.7421,98.0926 15.4141,105.6806 16.2371,117.0436 C15.1621,116.7926 14.0871,116.5406 13.0121,116.2896 C11.7951,108.7746 15.5931,99.2386 21.8611,94.8906 C37.1281,83.1956 35.5671,75.1786 32.0971,58.1766 C28.8911,41.3576 42.7941,25.8976 58.3521,21.9056 C56.6851,19.6916 54.1961,18.2346 52.1541,16.3706 L52.2701,15.4876 C55.7281,14.6776 58.7781,18.8966 61.9561,20.2056 C62.8561,20.8936 63.3141,20.6636 63.4051,19.5286 C64.1441,10.8386 73.4041,-0.1034 82.5701,5.0456 C82.7611,6.1296 81.9841,6.4976 81.2181,6.4506 C79.1051,6.3236 77.4811,7.5796 75.6911,8.2876 C64.3301,15.8006 62.2871,23.3666 75.7661,29.6516 C76.6781,30.2586 77.2101,30.4646 77.3211,28.9796 C78.1991,19.7606 88.1211,5.7246 98.2021,10.1546 C90.4901,15.1676 75.6831,23.5216 82.2581,35.0016 C81.7691,36.2486 80.6401,36.3146 79.5591,36.4706 C64.3341,24.5416 56.1021,53.9406 56.8001,65.7856 C56.7641,67.9376 59.8441,75.4456 55.1751,72.8456" id="Fill-9" fill="#ff6fa3"/>
                        <path d="M78.5218,121.8876 C83.0938,140.0306 67.2248,128.9256 57.3248,127.5996 C52.6038,118.6376 54.7998,106.8826 61.1638,99.2516 C71.0868,99.1596 77.2288,113.1396 78.5218,121.8876" id="Fill-11" fill="#ffdde3"/>
                        <path d="M100.9339,31.5912 C117.0409,15.4632 147.0619,26.7602 152.2949,47.7642 C157.6649,61.7122 142.1379,77.9232 151.1089,90.8982 C179.2779,115.6612 145.2279,116.7962 154.1209,142.8092 C153.1339,142.5152 152.1479,142.2222 151.1619,141.9292 C151.1319,141.5022 151.2769,140.8902 151.0479,140.6762 C149.0209,138.7872 150.5769,136.0912 149.4809,134.0162 C148.2829,118.1562 170.6629,109.4412 151.5209,96.8352 C147.8679,95.0922 148.2399,90.9382 145.7009,88.5232 C144.7409,87.3042 145.3479,85.3382 144.9669,83.9462 C143.9429,72.1432 152.1979,61.3832 149.4989,49.6412 C146.5169,40.6902 140.6879,31.8592 131.2399,28.7902 C123.2459,25.8412 110.2819,24.9422 104.6189,31.7502 C103.3439,32.7582 102.1069,32.9302 100.9339,31.5912" id="Fill-13" fill="#ff6fa3"/>
                        <path d="M16.2366,117.0434 C16.3446,115.3714 14.1496,114.5084 15.8846,112.9654 C16.2666,111.0144 16.1816,108.9084 17.1236,107.0234 C18.9766,98.9614 27.1066,95.4994 32.2426,89.5974 C43.2896,77.8144 33.8636,62.4854 35.6476,49.1154 C37.2046,36.4324 48.8966,23.0284 62.0936,24.1754 C50.7316,28.2024 38.7236,39.2804 39.7026,52.3414 C39.4546,61.3894 43.5916,70.8684 41.5496,80.3014 C37.0296,93.1944 18.1886,102.9324 25.9636,119.3404 C22.5806,119.1694 19.3736,118.2544 16.2366,117.0434" id="Fill-15" fill="#ffdde3"/>
                        <path d="M82.0765,34.9579 C73.9255,25.5119 89.3235,13.2349 98.2025,10.1539 C104.5705,12.0839 112.1145,13.3729 117.6005,16.7249 C108.8995,19.5529 97.4625,22.2669 94.1445,32.2259 C90.2125,33.5329 86.3735,35.2609 82.0765,34.9579" id="Fill-17" fill="#ffdde3"/>
                        <path d="M129.9368,135.8324 C96.5018,126.3484 120.0318,134.1614 134.6038,100.1654 C156.4758,116.7294 128.4608,119.0754 129.9368,135.8324" id="Fill-19" fill="#ffdde3"/>
                        <path d="M93.928,8.954 C85.579,13.329 77.645,20.625 77.956,30.898 C76.578,32.449 72.91,27.891 70.881,27.231 C67.223,25.416 63.928,22.692 65.981,18.413 C68.287,10.466 76.078,6.812 82.57,5.045 C86.298,6.379 90.713,6.601 93.928,8.954" id="Fill-21" fill="#ffdde3"/>
                        <g id="Group-25" transform="translate(52.000000, 0.786000)">
                            <mask id="headpink-hair-mask-4" fill="#fff">
                                <use xlink:href="#headpink-hair-path-3"/>
                            </mask>
                            <g id="Clip-24"/>
                            <path d="M25.427,2.8116 C1.448,12.8486 23.286,28.5196 0.27,14.7016 C0.427,2.7886 15.897,-3.7404 25.427,2.8116" id="Fill-23" fill="#ffdde3" mask="url(#headpink-hair-mask-4)"/>
                        </g>
                        <path d="M54.8777,126.9975 L48.5857,125.2865 C43.1727,119.5235 50.0457,88.4385 59.5437,98.9625 C53.6327,107.7735 52.8947,117.0125 54.8777,126.9975" id="Fill-26" fill="#ffdde3"/>
                        <path d="M129.9368,135.8324 C125.0908,119.0514 155.9018,119.2954 135.0598,101.0104 C134.1298,99.6654 133.4868,97.7584 135.6238,97.1684 C159.6728,121.6254 133.0408,115.0004 132.5018,136.4204 C131.6478,136.2244 130.7918,136.0284 129.9368,135.8324" id="Fill-28" fill="#ff6fa3"/>
                        <path d="M94.0804,31.9184 C96.4934,21.2294 114.2444,13.7554 124.2194,18.4534 C117.1064,19.7724 110.1474,19.8614 103.7454,23.9314 C99.6714,25.1854 97.2094,27.9944 95.7554,31.8544 C95.2144,32.3454 94.6554,32.3504 94.0804,31.9184" id="Fill-30" fill="#ff6fa3"/>
                        <path d="M54.8777,126.9975 C51.0857,120.7295 53.4897,98.2805 61.4627,99.2125 C55.6227,107.5395 53.9177,117.7455 57.3247,127.5995 C56.5087,127.3985 55.6937,127.1985 54.8777,126.9975" id="Fill-32" fill="#ff6fa3"/>
                        <path d="M55.2586,96.1317 C48.4246,104.3407 45.3926,114.7917 48.5866,125.2867 C47.8476,125.0417 47.1086,124.7977 46.3706,124.5527 C42.8596,114.2937 45.6816,101.4307 54.2316,94.6447 C55.3646,94.5937 55.4216,95.2867 55.2586,96.1317" id="Fill-34" fill="#ff6fa3"/>
                        <path d="M63.4136,75.4273 C54.7859995,79.3408531 55.3366,58.0283 56.8756,53.6803 C59.0526,45.2153 63.9146,37.3713 70.9556,31.8653 C73.8436,30.6613 76.7806,35.0493 79.5716,36.0243 C68.8966,46.4983 64.8516,60.9243 63.4136,75.4273 Z" id="Fill-36" fill="#ffdde3"/>
                    </g>
                </g>
                <path d="M58.5536736,144.5048 C58.3902909,144.992853 58.6101556,145.54522 59.0787915,145.746156 C59.5791264,145.960682 60.127668,145.68103 60.3005322,145.164655 C61.4410656,141.757684 63.01017,140.281066 65.0839956,140.486 C67.1382915,140.689005 69.0787879,143.78024 70.6810432,149.785232 C70.8208187,150.309087 71.345589,150.627497 71.858022,150.452376 C72.3429487,150.286655 72.5981446,149.747966 72.4647566,149.248049 C70.6424143,142.418208 68.3072228,138.829506 65.2566207,138.528047 C62.2241374,138.228378 59.9605384,140.302251 58.5536736,144.5048 Z" id="Path-14" fill="#33241F" fill-rule="nonzero"/>
                <path d="M64.8229641,144 C62.8592492,144 61.8123301,146.008975 61.5238789,149.765144 L61.4702162,150.575505 C62.530113,151.990987 63.1295515,151.778069 63.2685318,149.936753 C63.4770022,147.174779 64.065016,145.913985 64.8229641,145.913985 L64.8843367,145.917476 L64.9532582,145.929339 C65.6492254,146.101005 66.5446038,147.862666 67.35421,151.105759 L67.432,151.427 L67.2773274,151.48521 C66.0364152,151.992935 65.3952543,153.277124 65.3952543,155.142463 C65.3952543,157.578792 66.5011584,159 68.5137506,159 L69.0137506,159 C69.1752592,157.748636 68.9657859,157.109642 68.3853307,157.083019 C67.5146479,157.043084 67.1469839,156.524343 67.1469839,155.142463 C67.1469839,153.705169 67.5454889,153.178773 68.5266003,153.16319 L69.6188068,153.145843 L69.2909138,151.643969 L69.1257155,150.931029 C68.0135606,146.295165 66.6797264,144 64.8229641,144 Z" id="Path-16" fill="#33241F" fill-rule="nonzero"/>
            </g>
        </g>
        <g id="Female Face" transform="translate(245.000000, 256.000000) scale(1 1)">
            <defs>
                <polygon id="female-facesmiley-path-1" points="0.535923554 0.163567806 19.5585 0.163567806 19.5585 8 0.535923554 8"/>
                <polygon id="female-facesmiley-path-3" points="0.6081 0.5002 2.5091 0.5002 2.5091 1 0.6081 1"/>
                <polygon id="female-facesmiley-path-5" points="0.0636 0.129 20.2206 0.129 20.2206 38.8679939 0.0636 38.8679939"/>
            </defs>
            <g id="Female Face/Smiley" stroke="none" stroke-width="1" fill="none" fill-rule="evenodd">
                <g id="Face" transform="translate(8.000000, 7.000000)">
                    <g id="Group-3" transform="translate(15.000000, 43.871300)">
                        <mask id="female-facesmiley-mask-2" fill="#fff">
                            <use xlink:href="#female-facesmiley-path-1"/>
                        </mask>
                        <g id="Clip-2"/>
                        <path d="M9.6575,8.0002 C9.3875,7.8382 9.1365,7.6152 8.8455,7.5242 C6.2865,6.7292 3.8915,5.6312 1.9405,3.7462 C1.4685,3.2892 1.0695,2.7232 0.7515,2.1452 C0.2735,1.2752 0.6045,0.6802 1.6045,0.6002 C3.3775,0.4562 5.1545,0.3222 6.9315,0.2802 C10.2525,0.2032 13.5755,0.1892 16.8985,0.1642 C17.3695,0.1602 17.8575,0.1722 18.3095,0.2882 C18.7455,0.3992 19.1435,0.6532 19.5585,0.8452 C19.3505,1.2582 19.2385,1.7802 18.9155,2.0622 C18.2735,2.6232 17.5375,3.0882 16.8005,3.5252 C16.2985,3.8222 15.8865,4.0732 15.9005,4.7652 C15.9435,6.8652 15.8185,7.0022 13.8805,7.6132 C13.6435,7.6872 13.4405,7.8682 13.2225,8.0002 L12.5095,8.0002 C11.8755,7.8002 11.2415,7.8002 10.6085,8.0002 L9.6575,8.0002 Z" id="Fill-1" fill="#940F40" mask="url(#female-facesmiley-mask-2)"/>
                    </g>
                    <g id="Group-6" transform="translate(25.000000, 50.871300)">
                        <mask id="female-facesmiley-mask-4" fill="#fff">
                            <use xlink:href="#female-facesmiley-path-3"/>
                        </mask>
                        <g id="Clip-5"/>
                        <path d="M0.6081,1.0002 L2.5091,1.0002 L0.6081,1.0002 Z" id="Fill-4" fill="#CF94AA" mask="url(#female-facesmiley-mask-4)"/>
                    </g>
                    <g id="Group-9" transform="translate(30.000000, 0.871300)">
                        <mask id="female-facesmiley-mask-6" fill="#fff">
                            <use xlink:href="#female-facesmiley-path-5"/>
                        </mask>
                        <g id="Clip-8"/>
                        <path d="M13.2336,0.1921 C15.9156,-0.1569 18.0316,0.9631 19.8326,2.7911 C20.1326,3.0961 20.2206,3.6931 20.2206,4.1551 C20.2206,4.2801 19.5236,4.5381 19.1656,4.5071 C16.0736,4.2441 12.9736,4.2091 10.0106,5.1851 C8.1596,5.7951 6.3386,6.6531 4.6976,7.7021 C3.1336,8.7011 2.2126,10.2651 2.0956,12.2621 C1.7286,18.5241 2.5596,24.4811 6.0566,29.8811 C7.7056,32.4281 7.5256,33.9651 5.4056,36.1271 C4.5326,37.0181 3.4926,37.7671 2.4476,38.4581 C1.9926,38.7581 1.3376,38.7831 0.7636,38.8641 C0.5446,38.8951 0.2966,38.7331 0.0636,38.6581 C0.1526,38.4051 0.1916,38.1111 0.3486,37.9091 C0.5096,37.7011 0.7736,37.5591 1.0136,37.4281 C2.6016,36.5671 3.6676,35.2301 4.5706,33.7031 C5.1576,32.7101 5.1696,31.8561 4.5716,30.8381 C2.9076,28.0011 1.4806,25.0451 0.9286,21.7591 C0.3566,18.3481 0.1256,14.9031 0.6026,11.4721 C1.1036,7.8701 2.3126,4.5771 5.3606,2.2341 C6.5236,1.3421 7.7366,0.7051 9.2186,0.5931 C10.5596,0.4931 11.8956,0.3281 13.2336,0.1921" id="Fill-7" fill="#342520" mask="url(#female-facesmiley-mask-6)"/>
                    </g>
                    <path d="M8.5813,1.3954 C11.7143,1.3334 14.8313,1.3914 17.7743,2.6424 C18.2453,2.8424 18.7273,3.0374 19.1583,3.3074 C20.3143,4.0334 20.5133,4.9154 19.8333,6.1074 C19.6973,6.3474 19.5203,6.5674 19.4053,6.8164 C19.0683,7.5414 18.5853,7.6634 17.7883,7.5164 C14.4533,6.9004 11.1103,6.3154 7.7513,5.8484 C5.3733,5.5184 3.0213,5.8004 0.7753,6.7384 C0.5423,6.8364 0.2593,6.8164 0.0003,6.8514 C0.1283,6.5774 0.1833,6.2074 0.3963,6.0434 C1.8623,4.9104 3.3023,3.7244 4.8693,2.7474 C5.9853,2.0514 7.2883,1.6544 8.5083,1.1244 C8.5323,1.2144 8.5573,1.3044 8.5813,1.3954" id="Fill-10" fill="#32231E"/>
                    <path d="M15.4245,20.2944 C15.4105,22.5704 14.0075,24.0144 11.9435,23.8744 C9.9365,23.7374 8.4555,21.6004 8.8175,19.3364 C9.1035,17.5464 10.2535,16.4924 11.8685,15.8764 C12.6675,15.5704 13.3395,15.8934 13.9175,16.4384 C15.0275,17.4824 15.4195,18.8154 15.4245,20.2944" id="Fill-12" fill="#33231E"/>
                    <path d="M40.9597,18.1972 C41.1107,16.8402 41.5577,15.7512 42.6527,14.9802 C43.7727,14.1922 44.9537,14.3632 45.7897,15.4282 C47.1067,17.1052 46.7367,20.1302 45.0527,21.4532 C43.9057,22.3542 42.5147,22.1522 41.8447,20.8542 C41.4207,20.0352 41.2467,19.0872 40.9597,18.1972" id="Fill-14" fill="#33231E"/>
                </g>
            </g>
        </g>
        <g id="Head Accesories" transform="translate(202.500000, 193.000000) scale(1 1)">
            <defs>
                <polygon id="head-accesorieshat-1-path-1" points="0.749806646 0.56647221 90.226 0.56647221 90.226 61.8828957 0.749806646 61.8828957"/>
                <polygon id="head-accesorieshat-1-path-3" points="0.7593 0.907 2.3563 0.907 2.3563 1.79978259 0.7593 1.79978259"/>
            </defs>
            <g id="Head Accesories/Hat 1" stroke="none" stroke-width="1" fill="none" fill-rule="evenodd">
                <g id="Hat">
                    <g id="Group-14" transform="translate(0.000000, 6.000000)">
                        <mask id="head-accesorieshat-1-mask-2" fill="#fff">
                            <use xlink:href="#head-accesorieshat-1-path-1"/>
                        </mask>
                        <g id="Clip-13"/>
                        <path d="M49.8206,0.5674 C119.6996,0.2964 87.8856,59.4824 37.5976,60.7974 C-0.2864,69.4514 -13.4444,24.0084 19.6226,7.8724 C39.5166,-2.2516 28.5516,11.3614 38.9206,14.4804 C44.5996,6.3604 25.1806,1.5914 49.8206,0.5674" id="Fill-12" fill="#FC9CBE" mask="url(#head-accesorieshat-1-mask-2)"/>
                    </g>
                    <path d="M31.015,9.6118 C30.111,7.1178 26.152,1.1758 31.356,1.6018 C33.588,2.6948 41.231,18.1928 38.565,19.4718 C34.175,19.5728 34.324,11.9318 31.015,9.6118" id="Fill-15" fill="#FC9CBE"/>
                    <path d="M31.015,9.6118 C34.139,11.1808 34.937,15.8918 37.069,18.6998 C42.006,20.8028 35.453,10.4258 35.143,8.5498 C35.333,8.3288 35.551,8.2958 35.798,8.4488 C36.394,8.4538 36.99,8.4578 37.586,8.4628 C36.991,12.2678 44.965,19.7218 38.62,21.2688076 C33.326,21.2778 33.867,13.2908 30.764,10.0338 C30.848,9.8938 30.931,9.7528 31.015,9.6118" id="Fill-17" fill="#ff6fa3"/>
                    <path d="M35.7982,8.4488 L35.1432,8.5498 C34.6522,7.9558 33.7542,7.4458 34.7302,6.5488 L35.7982,8.4488 Z" id="Fill-19" fill="#FE8BB5"/>
                    <g id="Group-23" transform="translate(29.000000, 0.000000)">
                        <mask id="head-accesorieshat-1-mask-4" fill="#fff">
                            <use xlink:href="#head-accesorieshat-1-path-3"/>
                        </mask>
                        <g id="Clip-22"/>
                        <path d="M2.3563,1.6026 C1.8243,1.6326 1.2923,1.6626 0.7593,1.6926 C1.6443,0.6606 1.6443,0.6606 2.3563,1.6026" id="Fill-21" fill="#FCBAD1" mask="url(#head-accesorieshat-1-mask-4)"/>
                    </g>
                    <path d="M42.6575,59.9746 C27.7095,60.3586 7.9855,52.9966 5.6025,36.4576 C13.2655,55.2776 36.8465,60.4106 55.0235,55.4886 C61.5505,54.0106 67.2225,50.5296 72.3055,46.2516 C72.9105,45.8146 73.3285,46.5006 73.2555,47.0116 C66.3605,55.9806 53.6065,59.4356 42.6575,59.9746" id="Fill-24" fill="#ff6fa3"/>
                </g>
            </g>
        </g>
        <g id="Face Accesories" transform="translate(224.000000, 261.000000) scale(1 1)">
            <g id="Face Accesories/Trendy Glasses" stroke="none" stroke-width="1" fill="none" fill-rule="evenodd">
                <g id="Glasses" transform="translate(7.000000, 3.000000)" fill="#13BDBE">
                    <path d="M17.764,1.261 C28.253,2.788 39.806,7.349 44.803,17.338 C45.131,18.155 45.431,18.519 46.369,17.962 C48.369,16.089 51.147,17.666 53.096,16.49 C58.597,8.794 66.742,1.384 76.331,0 C91.844,1.812 64.115,52.805 50.737,18.941 C48.74,18.706 45.761,19.512 45.536,21.755 C42.378,34.839 26.114,31.322 19.951,23.019 C14.776,18.313 5.568,22.024 -1.66267e-12,18.282 C4.461,15.621 10.779,19.089 15.848,18.362 C13.702,12.932 6.723,1.199 17.71,1.554 C17.728,1.456 17.746,1.359 17.764,1.261" id="Fill-1"/>
                </g>
            </g>
        </g>
    </g>
</svg>
