<svg viewBox="287.4 413.068 383.2 478.919" xmlns="http://www.w3.org/2000/svg" xmlns:xlink="http://www.w3.org/1999/xlink" overflow="visible">
    <defs>
        <polygon id="masterstickerstv-path-1" points="0.0221136363 0.497078682 24.7892598 0.497078682 24.7892598 25 0.0221136363 25"/>
        <polygon id="masterstickerstv-path-3" points="0 0.65 370.348 0.65 370.348 313.857222 0 313.857222"/>
    </defs>
    <g id="Master/Stickers/TV" stroke="none" stroke-width="1" fill="none" fill-rule="evenodd">
        <g id="TV" transform="translate(293.000000, 423.000000)">
            <path d="M186.4305,358.4825 C187.1115,358.3005 187.7845,358.0025 188.4735,357.9575 C191.3635,357.7675 194.2575,357.6555 197.1505,357.5135 C197.3685,357.3285 197.6205,357.2485 197.9075,357.2665 C198.3325,357.2805 198.7585,357.2915 199.1875,357.2915 C201.5215,357.2685 203.8515,357.2735 206.1855,357.2475 C223.0845,357.2505 239.9805,357.2515 256.8745,357.2405 C266.4225,357.3025 275.9705,357.1645 285.5195,357.3055 C286.0685,357.3505 286.5495,357.5785 287.0125,357.8565 C289.1915,357.8835 291.3695,357.8975 293.5475,357.9405 C296.2835,357.9945 297.1885,358.8155 297.2705,361.4445 C297.3475,363.8945 297.3885,366.3495 297.3085,368.7975 C297.2845,369.5415 296.8935,370.3215 296.5045,370.9885 C296.1485,371.5985 295.4645,371.8655 294.9515,371.1555 C293.9095,369.7095 292.4125,369.9835 290.9845,369.9825 C263.8275,369.9685 236.6725,369.9635 209.5175,369.9465 C203.2505,369.9425 196.9825,369.9575 190.7185,369.8285 C189.1005,369.7945 188.1495,370.2235 187.8195,371.8185 C187.3885,372.0125 186.9585,372.0095 186.5305,371.8115 C185.5245,371.0615 185.6405,369.9735 185.6555,368.9165 C185.5485,368.4955 185.6915,368.1005 185.7825,367.7015 C185.8615,365.3785 185.9395,363.0555 186.0175,360.7335 C186.1205,359.9765 186.0175,359.1825 186.4305,358.4825" id="Fill-1" fill="#FF8396"/>
            <path d="M286.8465,346.0928 C287.0455,346.9338 287.4385,347.7798 287.4095,348.6128 C287.3195,351.3658 287.0765,354.1148 286.8925,356.8648 C286.7065,357.0938 286.4905,357.2868 286.2405,357.4478 C285.9695,357.5888 285.6865,357.6838 285.3825,357.7348 C285.0615,357.7378 284.7455,357.7368 284.4255,357.7338 C275.2245,357.7358 266.0295,357.7358 256.8315,357.7348 C239.9235,357.7348 223.0165,357.7358 206.1125,357.7358 C204.1345,357.7318 202.1545,357.7408 200.1755,357.7308 C199.1335,357.4188 197.9655,357.5898 197.0165,356.9148 C196.8775,356.5438 196.7385,356.1718 196.5985,355.8008 C196.3445,352.7338 196.3535,349.6658 196.5935,346.5978 C196.2725,345.3108 196.5765,344.4768 198.0785,344.3608 C199.1495,344.2788 200.2105,343.9528 201.2755,343.953798 C226.6595,343.9668 252.0445,344.0048 277.4295,344.0548 C280.0565,344.0598 282.6845,344.1638 285.3115,344.2218 C286.2005,344.5358 286.5145,345.3218 286.8465,346.0928" id="Fill-3" fill="#14BDBE"/>
            <path d="M196.5936,346.5977 C196.7216,347.2797 196.9746,347.9647 196.9546,348.6417 C196.8866,351.0297 196.7256,353.4147 196.5986,355.8007 C195.9826,352.7337 196.0236,349.6657 196.5936,346.5977" id="Fill-5" fill="#53CECF"/>
            <path d="M286.8465,346.0928 C286.3345,345.4688 285.8235,344.8458 285.3115,344.2218 C286.6295,344.2348 286.6455,344.2528 286.8465,346.0928" id="Fill-7" fill="#8EDFE0"/>
            <path d="M186.4305,358.4825 C186.2925,359.2325 186.1555,359.9835 186.0175,360.7335 C185.3925,359.8425 185.2255,359.0375 186.4305,358.4825" id="Fill-9" fill="#FDD3D9"/>
            <path d="M197.0164,356.9151 C197.9194,357.0461 198.8234,357.1781 199.7264,357.3091 C199.3854,358.0191 198.7354,357.6261 198.2254,357.7311 C197.9374,357.7291 197.6624,357.6721 197.3974,357.5591 L197.1504,357.5141 C197.1054,357.3141 197.0614,357.1141 197.0164,356.9151" id="Fill-11" fill="#25C1C2"/>
            <path d="M185.782,367.7012 C185.74,368.1052 185.698,368.5112 185.655,368.9162 C184.809,368.4182 185.225,368.0522 185.782,367.7012" id="Fill-13" fill="#FFC6CF"/>
            <path d="M186.5301,371.8116 C186.9601,371.8136 187.3891,371.8166 187.8191,371.8186 C187.3841,372.7696 186.9541,372.7666 186.5301,371.8116" id="Fill-15" fill="#FFC6CF"/>
            <path d="M286.3934,356.9258 C286.5584,356.8928 286.7244,356.8718 286.8924,356.8648 C286.9324,357.1968 286.9724,357.5268 287.0124,357.8568 C286.6344,357.8928 286.2564,357.9278 285.8784,357.9638 C285.6804,357.8668 285.6154,357.7718 285.6814,357.6758 C285.7474,357.5808 285.8124,357.5328 285.8794,357.5328 L285.8204,357.3598 C286.0454,357.2598 286.2384,357.1178 286.3934,356.9258" id="Fill-17" fill="#FDD3D9"/>
            <path d="M205.702,357.5313 C206.514,357.5043 207.327,357.4543 208.139,357.4533 C223.42,357.4473 238.7,357.4453 253.981,357.4493 C254.974,357.4493 255.967,357.5023 256.96,357.5303 C257.135,357.6263 257.192,357.7203 257.133,357.8133 C257.074,357.9063 257.015,357.9533 256.955,357.9533 C245.928,357.9743 234.9,358.0093 223.873,358.0133 C217.817,358.0173 211.762,357.9733 205.706,357.9513 C205.53,357.8593 205.472,357.7663 205.529,357.6733 C205.586,357.5783 205.643,357.5313 205.702,357.5313" id="Fill-19" fill="#B9B3BC"/>
            <path d="M256.9549,357.9532 C256.9559,357.8112 256.9569,357.6712 256.9599,357.5302 C266.5999,357.5312 276.2399,357.5322 285.8799,357.5332 C285.8739,357.6772 285.8739,357.8202 285.8789,357.9642 C276.2369,357.9602 266.5969,357.9562 256.9549,357.9532" id="Fill-21" fill="#C9C0C7"/>
            <path d="M205.702,357.5313 C205.706,357.6713 205.707,357.8103 205.706,357.9513 C203.173,357.9483 200.639,357.9463 198.105,357.9443 C197.968,357.8553 197.917,357.7603 197.951,357.6563 C197.987,357.5503 198.025,357.4963 198.067,357.4963 C198.62,357.4333 199.174,357.3713 199.726,357.3093 C201.719,357.3833 203.711,357.4573 205.702,357.5313" id="Fill-23" fill="#C9C0C7"/>
            <path d="M198.0672,357.4961 C198.0782,357.6451 198.0902,357.7951 198.1052,357.9441 C197.8692,357.8151 197.6332,357.6871 197.3972,357.5581 C197.6212,357.5381 197.8442,357.5171 198.0672,357.4961" id="Fill-25" fill="#FFC6CF"/>
            <path d="M286.3934,356.9258 C286.2024,357.0708 286.0114,357.2148 285.8204,357.3598 C286.0114,357.2148 286.2024,357.0708 286.3934,356.9258" id="Fill-27" fill="#25C1C2"/>
            <path d="M38.0721,438.2813 C40.1701,437.9963 42.2601,437.4813 44.3841,438.0873 C45.7431,438.4743 47.1001,438.8673 48.4581,439.2583 C48.8211,439.3333 49.1371,439.4733 49.2791,439.8543 C53.4251,443.2103 55.1551,447.4693 54.1171,452.7673 C54.0271,452.9943 53.9081,453.2053 53.7631,453.4023 C52.7491,458.0383 48.7711,461.6013 43.9471,462.1953 C36.9551,463.0573 31.4471,459.0203 29.9951,451.9693 C29.5831,450.7473 29.6341,449.5153 29.9201,448.2793 C30.5961,443.2843 33.6861,440.2543 38.0721,438.2813" id="Fill-29" fill="#454545"/>
            <g id="Group-33" transform="translate(302.000000, 437.350000)">
                <mask id="masterstickerstv-mask-2" fill="#fff">
                    <use xlink:href="#masterstickerstv-path-1"/>
                </mask>
                <g id="Clip-32"/>
                <path d="M6.0447,1.9059 C9.3837,0.3309 12.8537,0.1719 16.4087,0.9579 C20.8987,2.8379 23.7317,6.0639 24.5367,10.9429 C24.8747,11.9909 24.8607,13.0429 24.5707,14.0969 C24.2767,16.5949 23.3387,18.8129 21.6867,20.7189 C17.0367,26.0839 8.7647,26.4619 3.7447,21.5399 C-1.3943,16.4989 -1.1853,8.1639 4.2027,3.3779 C4.5387,3.0789 4.8777,2.7829 5.2157,2.4859 C5.3747,2.1249 5.6857,1.9809 6.0447,1.9059" id="Fill-31" fill="#464646" mask="url(#masterstickerstv-mask-2)"/>
            </g>
            <path d="M21.5858,331.3243 C21.7408,331.8223 22.0288,332.3193 22.0318,332.8183 C22.0638,339.0783 22.0648,345.3383 22.0348,351.5963 C22.0318,352.0953 21.7428,352.5933 21.5878,353.0913 C21.4198,352.5063 21.1098,351.9223 21.1068,351.3363 C21.0668,345.2503 21.0648,339.1643 21.0978,333.0783 C21.1008,332.4923 21.4158,331.9083 21.5858,331.3243" id="Fill-34" fill="#DCC4AD"/>
            <path d="M334.9197,342.7393 C334.7697,342.4233 334.4917,342.1073 334.4887,341.7893 C334.4557,338.7983 334.4557,335.8053 334.4897,332.8153 C334.4937,332.4973 334.7727,332.1813 334.9237,331.8653 C335.6527,333.8353 335.6497,340.7773 334.9197,342.7393" id="Fill-36" fill="#DEC9B3"/>
            <path d="M29.9197,448.2794 C29.9437,449.5094 29.9697,450.7394 29.9947,451.9684 C29.2697,450.7544 29.3517,449.5214 29.9197,448.2794" id="Fill-38" fill="#8D8D8D"/>
            <path d="M326.5711,451.4473 C326.5591,450.3953 326.5481,449.3443 326.5371,448.2933 C327.2161,449.3373 327.1771,450.3893 326.5711,451.4473" id="Fill-40" fill="#8D8D8D"/>
            <path d="M49.2791,439.8545 C49.0051,439.6555 48.7311,439.4565 48.4581,439.2575 C48.7361,439.2415 49.0151,439.2255 49.2941,439.2085 C49.2891,439.4235 49.2841,439.6385 49.2791,439.8545" id="Fill-42" fill="#EADCCF"/>
            <path d="M308.0447,439.2559 L307.2157,439.8359 C307.2117,439.6289 307.2077,439.4219 307.2037,439.2159 C307.4837,439.2289 307.7647,439.2419 308.0447,439.2559" id="Fill-44" fill="#EADCCF"/>
            <path d="M53.7635,453.4024 C53.8815,453.1904 53.9985,452.9784 54.1175,452.7674 C53.9985,452.9784 53.8815,453.1904 53.7635,453.4024" id="Fill-46" fill="#DEC9B3"/>
            <path d="M308.9901,418.3555 C305.6391,420.6365 302.0021,422.0105 297.7631,421.7825 C293.1441,421.5335 288.5031,421.7285 283.8701,421.7035 C253.1811,421.5315 222.4921,421.3705 191.8021,421.1625 C184.5501,421.1135 177.2901,420.6175 170.0461,420.8155 C140.0891,421.6315 110.1261,421.0255 80.1681,421.3505 C72.6381,421.4315 65.1091,421.5515 57.5821,421.7465 C53.1291,421.8615 49.5211,419.9585 46.1751,417.3285 C42.8661,414.7285 41.5051,411.3045 41.5669501,407.1005 C41.6851,399.5655 41.6011,392.0265 41.6031,384.4895 C41.6031,383.8535 41.6151,383.2175 41.6311,382.5835 C41.6511,381.8055 42.0801,381.4455 42.8341,381.4345 C43.5601,381.4235 44.2871,381.4135 45.0131,381.4135 C89.5181,381.4125 134.0221,381.4125 178.5271,381.4125 C222.7601,381.4125 266.9921,381.4105 311.2241,381.4165 C315.2491,381.4175 314.8781,381.0085 314.8851,385.0525 C314.8971,392.5005 314.7921,399.9485 314.923474,407.3925 C315.0061,412.2495 312.8041,415.7585 308.9901,418.3555 M41.8921,344.5715 C42.0351,340.8705 43.0291,337.2345 45.3841,334.1455 C47.2341,331.7175 49.3621,329.6495 52.3281,328.7005 C53.4261,328.3485 54.6191,328.1455 55.7711,328.1345 C61.6741,328.0805 67.5781,328.1095 73.4811,328.1095 L73.4811,328.1365 C79.1121,328.1365 84.7431,328.1155 90.3741,328.1405 C119.4081,328.2695 148.4421,328.4665 177.4751,328.5315 C203.2691,328.5875 229.0631,328.5405 254.8561,328.4645 C269.7221,328.4215 284.5911,328.3405 299.4531,328.0475 C304.3271,327.9515 307.7931,330.1015 310.6851,333.5725 C312.5081,335.7575 313.6791,338.3565 314.1111,341.1855 C314.4791,343.5995 314.7891,346.0445 314.8291,348.4825 C314.9331,354.8365 314.8871,361.1955 314.8771,367.5515 C314.8731,369.8985 314.8391,369.9615 312.4111,369.9175 C308.5141,369.8445 304.6201,369.5695 300.7241,369.5695 C215.7141,369.5615 130.7041,369.5795 45.6941,369.5915 C44.7861,369.5915 43.8781,369.5785 42.9691,369.5805 C42.0851,369.5825 41.6191,369.1675 41.6269987,368.2635 C41.6901,360.3655 41.5881,352.4595 41.8921,344.5715 M334.9201,342.7395 C335.0311,339.1155 335.0231,335.4905 334.9241,331.8655 C334.5971,326.7825 332.6101,322.3485 329.1601,318.7095 C324.8021,314.1155 319.4071,311.625361 312.9431,311.6285 C265.3631,311.6625 217.7841,311.6855 170.2041,311.6855 C127.9821,311.6865 85.7601,311.6545 43.5371,311.6445 C42.2681,311.6445 40.9491,311.5375 39.7391,311.8295 C29.6831,314.2585 22.9221,320.7845 21.5861,331.3245 C21.4731,338.5795 21.4691,345.8345 21.5881,353.0905 C21.5691,353.8165 21.5341,354.5425 21.5341,355.2695 C21.5301,376.6185 21.5161,397.9675 21.5611,419.3165 C21.5641,420.6445 21.7871,422.0825 22.3281,423.2785 C24.2201,427.4575 26.7321,431.2625 30.5591,433.9175 C32.9311,435.5625 35.5591,436.8385 38.0721,438.2815 C41.5951,438.7165 45.1921,438.5705 48.6361,439.6215 C48.8881,439.5385 49.1081,439.4015 49.2941,439.2095 C61.5421,439.0705 73.7901,438.8375 86.0391,438.8125 C119.2721,438.7435 152.5071,438.7065 185.7401,438.7635 C215.7861,438.8145 245.8331,439.0105 275.8791,439.1335 C286.3201,439.1755 296.7621,439.1885 307.2041,439.2145 C307.3901,439.4055 307.6101,439.5425 307.8631,439.6255 C310.0711,439.2735 312.2311,438.6695 314.4691,438.4825 C315.7821,438.3735 317.1351,439.1995 318.4091,438.3075 C319.6981,437.6455 320.9831,436.9755 322.2771,436.3215 C327.9591,433.4465 331.6731,428.7595 334.2311,423.0935 C334.7681,421.9055 334.9281,420.4585 334.9311,419.1285 C334.9721,401.3685 334.9581,383.6075 334.9511,365.8465 C334.9481,358.1445 334.9301,350.4425 334.9201,342.7395" id="Fill-48" fill="#D0B192"/>
            <path d="M33.3826,450.2335 C33.0186,444.2075 38.2686,440.6865 42.4356,440.9235 C47.4756,441.2105 51.1086,444.5135 51.1337387,449.8375 C51.1576,455.0455 48.0656,458.3995 42.4016,458.8875 C37.4586,459.3135 32.9776,454.3565 33.3826,450.2335" id="Fill-50" fill="#FCFCFC"/>
            <path d="M323.087754,449.9727 C323.1047,454.9637 319.1227,458.9147 314.0987,458.892791 C309.3227,458.8707 305.1817,454.8387 305.2307,450.0247 C305.2777,445.2817 308.6117,441.1617 314.1687,440.9287 C319.1167,440.7217 323.0707,444.9567 323.087754,449.9727" id="Fill-52" fill="#FCFCFC"/>
            <path d="M110.2654,397.8077 C109.6544,394.8347 111.8734,392.9327 113.0354,390.6427 C113.2174,390.2807 113.9134,390.0477 114.3994,389.9957 C115.7494,389.8487 117.1144,389.7727 118.4734,389.7667 C135.0934,389.7057 151.7134,389.6207 168.3334,389.623623 C195.3074,389.6277 222.2804,389.6877 249.2524,389.7397 C251.4304,389.7437 253.6074,389.8617 255.7844,389.9437 C256.6494,389.9767 257.3154,390.2387 257.6694,391.1887 C257.9494,391.9377 258.4614,392.6187 258.9524,393.2677 C259.8144,394.4107 260.0964,395.6657 260.1044,397.0867 C260.1464,404.7147 260.2574,412.3417 260.3244,419.9697 C260.3454,422.3917 260.3204,422.4327 257.9974,422.6047 C256.0994,422.7447 254.1924,422.843731 252.2884,422.8427 C233.0354,422.8267 213.7804,422.7567 194.5264,422.7597 C169.3694,422.7637 144.2124,422.8277 119.0554,422.843731 C116.7884,422.8457 114.5184,422.7507 112.2564,422.5987 C110.0854,422.4527 109.9944,422.3307 110.009049,420.1477 C110.0634,413.2457 110.1474,406.3447 110.2194,399.4437 C110.2404,398.8987 110.2354,398.3527 110.2654,397.8077" id="Fill-54" fill="#6F6E6D"/>
            <path d="M110.2654,397.8077 C110.7724,398.3677 110.7464,398.9117 110.2194,399.4437 C109.6434,398.8817 109.6864,398.3367 110.2654,397.8077" id="Fill-56" fill="#BEBDBD"/>
            <g id="Group-60" transform="translate(0.000000, 0.350000)">
                <mask id="masterstickerstv-mask-4" fill="#fff">
                    <use xlink:href="#masterstickerstv-path-3"/>
                </mask>
                <g id="Clip-59"/>
                <path d="M239.4656,294.4499 C239.3126,294.8559 238.8576,295.3039 238.4456,295.4219 C237.8576,295.5909 237.1866,295.4799 236.5516,295.4799 C202.3116,295.4809 168.0716,295.4809 133.8326,295.4809 C133.4696,295.4809 133.1056,295.4909 132.7426,295.4779 C130.9066,295.4149 130.8436,295.4139 130.8376,293.6689 C130.8116,284.8599 130.8096,276.0519 130.8266,267.2429 C130.8296,265.4079 130.9476,265.2609 132.8786,265.2329 C137.6016,265.1669 142.3236,265.1949 147.0466,265.1649 C148.0396,265.1579 149.0316,265.0599 150.0256,265.0049 C151.0596,264.0829 152.3286,264.2149 153.5696,264.2079 C174.6456,264.0739 195.7206,264.0609 216.7956,264.2039 C218.0416,264.2049 219.3186,264.0709 220.3556,264.9999 C223.9816,265.0619 227.6076,265.1349 231.2336,265.1839 C233.5036,265.2149 235.7746,265.2189 238.0446,265.2199 C239.0326,265.2209 239.5876,265.6199 239.5356,266.6779 C239.5136,267.1309 239.5376,267.5859 239.5376,268.0399 C239.5366,276.3039 239.5346,284.5669 239.5316,292.8309 C239.5306,293.3759 239.6476,293.9709 239.4656,294.4499 M370.3256,246.4499 C370.3116,180.3189 370.2986,114.1879 370.2796,48.0559 C370.2776,37.5189 370.2506,26.9819 370.2296,16.4449 C370.2266,15.2829 370.3086,14.1939 369.2646,13.2139 C365.4926,9.6699 361.8066,6.0329 358.1446,2.3739 C357.1726,1.4029 356.1536,0.9759 354.7746,0.9779 C350.3236,0.9869 345.8736,0.8279 341.4226,0.8269 C289.3656,0.8139 237.3086,0.8179 185.2506,0.8179 L185.2506,0.6599 C171.8966,0.6599 158.5416,0.6339 145.1876,0.6649 C102.3066,0.7649 59.4266,0.8999 16.5456,0.9609 C14.4766,0.9639 12.9536,1.5179 11.5266,3.0249 C8.7176,5.9909 5.8796,8.9619 2.7786,11.6079 C0.6996,13.3829 0.0676,15.2789 0.0696,17.9349 C0.1136,73.4369 0.0696,128.9399 0.0476,184.4429 C0.0386,205.5179 0.0566,226.5929 -0.000440174808,247.6679 C-0.0054,249.5169 0.4556,250.9179 1.7806,252.2559 C5.4226,255.9329 8.9946,259.6859 12.4636,263.5279 C13.8116,265.0199 15.2466,265.5099 17.2226,265.5009 C35.9386,265.4219 54.6536,265.4419 73.3686,265.4249 C87.9956,265.4099 102.6226,265.3819 117.2496,265.3609 C120.4036,265.3559 120.1626,265.1889 120.1536,268.3479 C120.1316,276.4329 120.1106,284.5179 120.0956,292.6019 C120.0906,295.5779 120.2836,295.4709 117.3306,295.4659 C109.4266,295.4499 101.5226,295.4339 93.6176,295.4319 C87.1676,295.4299 80.7176,295.4279 74.2676,295.4679 C71.2636,295.4859 70.9866,295.6159 70.0996,298.3439 C68.7516,302.4849 67.5296,306.6689 66.3306,310.8559 C65.8256,312.6159 66.1216,312.9689 67.9256,313.0379 C71.3746,313.1689 74.8246,313.3189 78.2756,313.3399 C111.5226,313.5309 144.7696,313.7209 178.0166,313.8539 C186.0966,313.8869 194.1786,313.6639 202.2596,313.6349 C230.7866,313.5329 259.3146,313.4769 287.8416,313.3699 C292.6536,313.3519 297.4676,313.1789 302.2786,313.0429 C304.2786,312.9859 304.5286,312.6689 303.9856,310.7399 C302.9516,307.0709 301.9036,303.4039 300.7526,299.7709 C299.3876,295.4649 299.3376,295.4529 294.8766,295.4509 C281.1576,295.4419 267.4406,295.4569 253.7216,295.4619 C252.9936,295.4629 252.2676,295.4419 251.5406,295.4589 C250.6016,295.4799 250.2526,294.9809 250.2746,294.1079 C250.2856,293.6549 250.2716,293.1999 250.2706,292.7459 C250.2446,284.4789 250.2186,276.2139 250.1966,267.9469 C250.1906,265.3859 250.1976,265.3859 252.6896,265.3589 C252.8706,265.3569 253.0526,265.3599 253.2346,265.3609 C267.9516,265.3829 282.6696,265.4119 297.3886,265.4259 C316.1036,265.4429 334.8196,265.4289 353.5336,265.4939 C355.2156,265.4999 356.4396,265.0689 357.5906,263.8179 C361.4036,259.6749 365.2986,255.6059 369.2046,251.5509 C370.0266,250.6979 370.4226,249.7979 370.3366,248.6299 C370.2826,247.9069 370.3266,247.1779 370.3256,246.4499" id="Fill-58" fill="#6F6E6D" mask="url(#masterstickerstv-mask-4)"/>
            </g>
            <path d="M220.3553,265.3497 L217.0423,265.4167 C215.8533,263.8027 216.2193,261.9267 216.2183,260.1427 C216.1993,217.3787 216.2053,174.6147 216.2033,131.8507 C216.2033,126.3117 216.2473,120.7727 216.1813,115.2357 C216.1473,112.3687 215.8193,111.9767 213.0873,111.9957 C203.8293,112.0587 194.5783,111.5607 185.3293,111.5197 C175.9923,111.4787 166.6493,112.1687 157.2993,111.9567 C155.1363,111.9087 154.0683,112.7227 154.1803,114.9597 C154.2353,116.0447 154.1793,117.1377 154.1793,118.2277 C154.1793,165.5317 154.1833,212.8347 154.1653,260.1397 C154.1643,261.9227 154.5333,263.7997 153.3383,265.4117 C152.2343,265.3927 151.1293,265.3737 150.0253,265.3547 C150.0343,255.0947 150.0553,244.8347 150.0503,234.5757 C150.0313,195.2587 150.0013,155.9417 149.980791,116.6247 C149.980791,114.5377 149.9733,112.4467 150.0663,110.3617 C150.1373,108.7817 150.3953,108.5317 151.9913,108.3047 C153.4203,108.1017 154.8663,107.8877 156.3043,107.8857 C175.5563,107.8587 194.8083,107.8577 214.0613,107.8867 C215.5903,107.8887 217.1183,108.1757 218.6483,108.3057 C219.7563,108.3997 220.2713,109.0377 220.3043,110.0827 C220.3563,111.7167 220.3843,113.3517 220.3843,114.9857 C220.3763,142.4077 220.3653,169.8287 220.3493,197.2507 C220.3363,219.3157 220.3183,241.3797 220.3053,263.4447 C220.3043,264.0797 220.3373,264.7147 220.3553,265.3497" id="Fill-61" fill="#262626"/>
            <path d="M153.3387,265.4122 C153.3087,215.1882 153.2767,164.9662 153.2457,114.7432 C153.2457,114.5612 153.2447,114.3802 153.2427,114.1982 C153.2057,110.9572 153.0297,111.1052 156.3417,111.0972 C161.7917,111.0832 167.2417,111.1002 172.6917,111.0202 C178.2207,110.9382 183.7487,110.6172 189.2767,110.6452 C197.8027,110.6882 206.3277,110.9362 214.8537,111.1032 C217.1027,111.1472 217.1317,111.1562 217.130719,113.3862 C217.1247,123.0132 217.0887,132.6392 217.0837,142.2662 C217.0667,183.3162 217.0557,224.3662 217.0417,265.4172 C210.4187,265.4602 203.7957,265.5342 197.1727,265.5392 C183.0117,265.5482 168.8507,265.5212 154.6907,265.5042 C154.2387,265.5032 153.7887,265.4432 153.3387,265.4122" id="Fill-63" fill="#6F6E6D"/>
        </g>
    </g>
</svg>
