<svg viewBox="72 124.468 600 382.979" xmlns="http://www.w3.org/2000/svg" overflow="visible">
    <g id="Master/Stickers/Table" stroke="none" stroke-width="1" fill="none" fill-rule="evenodd">
        <path d="M366.340781,128 C411.44593,128 460.936478,132.866138 498.960591,140.990691 C595.256833,161.566159 666.124422,200.169306 666.124422,250.453823 C666.124422,267.521328 669.961006,286.118321 657.66346,303.358367 C643.33078,323.451488 610.674293,341.741217 579.86447,354.232236 C576.13083,355.745941 572.28299,357.182713 568.327699,358.545544 L590.586271,428.128435 L614.970001,496.368376 L604.195086,499.194116 L595.342438,483.587914 L572.206432,436.925994 L541.191505,366.388727 C499.957415,376.315754 450.528961,380.287915 398.502125,380.785004 C392.309157,380.844175 375.572943,380.793457 367.933347,380.78591 L366.340781,380.785004 C304.020576,380.785004 246.981248,370.60178 200.172418,355.094889 L131.039275,498.98643 L120.374878,491.08267 L141.544857,428.491101 L174.229809,345.548647 C167.826838,342.940454 161.675732,340.23353 155.793213,337.444294 C108.219544,314.886918 78,287.45764 78,254.166615 C78,229.416285 90.0196031,200.356486 117.836497,180.828215 C168.850129,145.015157 263.230805,128 366.340781,128 Z" id="Fill" fill="#FFF"/>
        <path d="M389.722063,126.87275 C447.479063,129.59675 504.278063,138.19275 559.220063,156.96675 C581.982063,164.74475 603.908063,174.34475 624.090063,187.58875 C635.236063,194.90275 645.556063,203.21175 654.009063,213.61975 C663.060063,224.76275 669.080063,237.08375 669.108063,251.86675 C669.116063,255.63675 670.350063,259.38775 670.710063,263.17675 C671.961063,276.33075 668.627063,288.39975 661.693063,299.53575 C654.366063,311.30275 644.477063,320.59575 633.343063,328.66075 C615.827063,341.35075 596.383063,350.25175 576.189063,357.66875 C574.507063,358.28675 572.839063,358.93975 570.783063,359.72375 C571.410063,361.95575 571.897063,364.02975 572.572063,366.04175 C582.337063,395.13475 592.002063,424.26275 601.975063,453.28375 C605.868063,464.61175 610.511063,475.68175 614.707063,486.90775 C615.591063,489.27375 616.222063,491.77975 616.597063,494.27775 C617.137063,497.86875 616.165063,499.13775 612.652063,500.29975 C605.454063,502.68175 601.387063,501.22575 597.808063,494.35275 C594.202063,487.42775 590.964063,480.30875 587.616063,473.25175 C575.855063,448.46875 564.095063,423.68575 552.378063,398.88175 C548.509063,390.68975 544.727063,382.45575 541.014063,374.19175 C540.369063,372.75675 541.014063,374.19175 538.339063,369.57375 C424.418063,394.54175 313.565063,390.34275 201.690063,358.02275 C200.979063,359.41475 200.130063,360.97075 199.376063,362.56975 C181.250063,401.02275 163.174063,439.49775 144.980063,477.91675 C141.951063,484.31375 138.556063,490.54975 135.066063,496.71075 C132.498063,501.24275 130.964063,501.54875 126.148063,499.38075 C124.826063,498.78575 123.556063,498.06675 122.290063,497.35575 C119.027063,495.51675 117.745063,492.73175 118.634063,489.09575 C119.538063,485.39375 120.482063,481.69375 121.591063,478.05075 C130.487063,448.82875 141.185063,420.26875 153.037063,392.12475 C159.307063,377.23775 165.403063,362.27875 171.792063,346.83375 C170.083063,346.05575 168.332063,345.22875 166.558063,344.45375 C145.998063,335.48675 126.309063,325.02075 108.862063,310.73875 C99.5290625,303.09975 91.1440625,294.56175 84.6130625,284.33875 C77.4960625,273.19875 73.0640625,261.19175 74.1680625,247.79975 C74.6250625,242.25275 75.7230625,236.61075 77.5170625,231.34875 C85.4930625,207.96475 100.035063,189.78875 121.153063,176.71275 C137.313063,166.70775 154.472063,159.00675 172.323063,152.69475 C199.658063,143.03075 227.862063,137.12175 256.488063,132.88675 C300.705063,126.34575 345.162063,124.77175 389.722063,126.87275 Z M567.204063,364.22475 C560.573063,368.62575 554.289063,372.79675 547.578063,377.25075 C549.955063,382.69475 552.271063,388.37375 554.881063,393.91275 C566.477063,418.52275 578.151063,443.09475 589.810063,467.67375 C593.619063,475.70275 597.348063,483.77275 601.341063,491.70975 C604.187063,497.36675 605.344063,497.66375 612.652063,495.47675 C611.468063,491.56175 610.579063,487.88175 609.253063,484.36775 C603.619063,469.44075 597.448063,454.70375 592.232063,439.63475 C584.228063,416.50775 576.852063,393.16275 569.201063,369.91375 C568.590063,368.05875 567.910063,366.22675 567.204063,364.22475 Z M172.988063,355.95375 C172.456063,357.00675 172.000063,357.77975 171.660063,358.60075 C158.519063,390.25775 144.851063,421.70875 133.913063,454.23175 C130.273063,465.05575 126.913063,475.97775 123.599063,486.90675 C121.990063,492.21775 122.463063,492.90075 127.560063,495.20575 C128.351063,495.56475 129.210063,495.77275 130.470063,496.19475 C133.125063,491.29975 135.929063,486.64475 138.251063,481.75975 C147.909063,461.44575 157.396063,441.05275 166.993063,420.71075 C175.739063,402.17275 184.554063,383.66675 193.314063,365.13575 C194.121063,363.42775 194.759063,361.63975 195.585063,359.61975 C187.582063,358.32175 180.327063,357.14475 172.988063,355.95375 Z M80.1930625,238.46875 C77.7210625,245.64075 77.9750625,251.94375 78.9450625,258.21475 C81.0450625,271.79375 87.8720625,283.03175 96.7710625,293.16475 C106.086063,303.76975 117.121063,312.32375 128.971063,319.87575 C149.303063,332.83375 171.219063,342.43975 193.945063,350.26475 C248.833063,369.16275 305.595063,377.83075 363.353063,380.43975 C392.581063,381.76075 421.836063,381.29075 451.035063,378.71675 C476.397063,376.48075 501.558063,372.99575 526.397063,367.41375 C554.459063,361.10675 581.803063,352.61675 607.474063,339.36675 C622.412063,331.65675 636.359063,322.53275 647.968063,310.20275 C655.535063,302.16675 661.571063,293.17175 664.616063,282.42475 C665.781063,278.31375 666.959063,274.16975 666.054063,268.84475 C665.328063,270.20175 664.984063,270.76675 664.712063,271.36475 C660.675063,280.27275 654.768063,287.81275 647.753063,294.53375 C637.561063,304.29975 625.844063,311.89475 613.376063,318.36275 C591.335063,329.80075 567.964063,337.63775 543.936063,343.61875 C509.291063,352.24375 474.082063,356.93475 438.466063,359.11975 C411.216063,360.79175 383.969063,360.88975 356.743063,359.57875 C328.071063,358.19875 299.540063,355.08375 271.250063,350.05775 C238.295063,344.20275 205.923063,336.15875 174.720063,323.86375 C153.009063,315.30875 132.149063,305.10875 113.745063,290.53375 C96.9840625,277.25875 83.3270625,261.82075 80.1930625,238.46875 Z M382.587063,347.17175 C374.544063,347.92075 366.660063,350.44175 358.729063,352.27275 C357.294063,352.60375 355.992063,353.50475 354.627063,354.14275 C391.344063,357.04275 427.753063,356.51875 464.124063,352.21375 C460.116063,348.60575 455.445063,347.25975 450.540063,346.92275 C427.887063,345.36575 405.200063,345.06475 382.587063,347.17175 Z M300.476063,331.69575 C291.760063,334.22175 284.312063,338.74175 278.138063,346.72375 C301.405063,350.82175 324.078063,353.10675 345.626063,354.60275 C349.988063,352.08275 352.732063,349.82775 355.875063,348.82075 C362.418063,346.72575 369.081063,344.60975 375.856063,343.70675 C400.813063,340.37875 425.898063,341.05975 450.934063,342.71575 C455.668063,343.02775 461.016063,344.31875 464.766063,346.99775 C467.052063,348.63175 471.954063,351.22275 471.954063,351.22275 C471.954063,351.22275 480.161063,351.46475 484.767063,350.39975 C485.646063,350.19575 486.577063,350.22675 487.473063,350.08775 C495.114063,348.90275 502.750063,347.70475 511.162063,346.38975 C510.097063,345.01075 509.674063,344.27375 509.079063,343.72275 C505.078063,340.01075 500.093063,338.33075 494.940063,337.07875 C482.856063,334.14175 470.505063,333.36175 458.157063,333.27575 C438.170063,333.13875 418.179063,333.37875 398.193063,333.63675 C376.168063,333.91975 354.274063,332.23775 332.396063,329.93275 C321.703063,328.80575 310.956063,328.65875 300.476063,331.69575 Z M305.281063,131.75575 C303.869063,134.52175 304.052063,134.31575 301.519063,138.37775 C291.980063,153.67375 276.608063,164.58575 258.901063,167.96375 C236.822063,172.17675 214.836063,170.48775 193.176063,164.99875 C187.443063,163.54575 178.859063,159.63875 173.543063,156.99475 C173.543063,156.99475 171.240063,157.60375 166.694063,159.03775 C160.745063,160.91475 158.884063,161.92175 148.233063,167.16075 C146.575063,167.97675 145.131063,168.59375 143.255063,169.72475 C147.853063,173.46875 152.727063,175.54075 157.865063,176.61675 C166.028063,178.32575 174.255063,179.97075 182.539063,180.82375 C211.134063,183.76875 239.799063,184.91775 268.536063,183.12175 C287.012063,181.96775 303.576063,177.17675 314.748063,160.74675 C318.436063,155.32375 324.168063,151.99075 330.554063,150.75075 C338.901063,149.12975 347.371063,147.60375 355.836063,147.27975 C365.974063,146.89375 376.190063,147.46575 386.321063,148.25975 C401.164063,149.42175 415.967063,151.11375 430.775063,152.69475 C432.151063,152.84175 433.440063,153.80775 435.071063,154.52675 C432.405063,157.94175 429.573063,156.79975 426.995063,156.57675 C407.635063,154.90375 388.298063,152.95275 368.919063,151.56275 C358.224063,150.79475 347.530063,151.35775 336.910063,153.52675 C327.941063,155.35775 320.667063,159.29875 315.213063,166.81375 C307.438063,177.52675 296.512063,183.15875 283.669063,185.48275 C269.110063,188.11875 254.365063,188.64775 239.676063,188.30875 C220.980063,187.87775 202.262063,186.90575 183.640063,185.20875 C167.797063,183.76475 151.638063,182.47875 138.291063,171.72575 C117.724063,182.92475 98.8050625,195.40875 88.4520625,217.85975 C89.4710625,217.72575 90.1500625,217.63675 90.8290625,217.54675 C99.6350625,216.38175 108.415063,214.48375 117.249063,214.18975 C143.766063,213.30775 170.311063,213.27375 196.832063,212.47475 C214.256063,211.94975 231.684063,211.01375 249.060063,209.63275 C265.532063,208.32275 281.938063,206.19575 298.372063,204.42275 C298.400063,204.41975 298.428063,204.41675 298.455063,204.41375 C301.163063,204.12475 301.732063,208.22275 299.036063,208.60675 L298.981063,208.61375 C292.096063,209.56775 285.188063,210.34975 278.269063,211.02675 C261.509063,212.66575 244.767063,214.93275 227.964063,215.61275 C196.554063,216.88475 165.103063,217.17375 133.671063,217.93375 C117.755063,218.31775 101.765063,218.17275 86.3420625,223.45775 C82.5570625,237.38875 85.4580625,250.12175 92.8570625,262.08075 C98.5680625,271.31175 106.080063,278.92975 114.453063,285.73175 C129.092063,297.62475 145.478063,306.58375 162.649063,314.19175 C193.863063,328.02275 226.555063,336.97575 259.955063,343.56475 C264.716063,344.50475 269.510063,345.27275 273.479063,345.97675 C275.726063,343.14875 277.186063,340.82775 279.108063,338.98875 C284.290063,334.03075 290.307063,330.38875 297.185063,328.16675 C308.863063,324.39475 320.794063,324.62075 332.811063,325.58875 C348.742063,326.87275 364.662063,328.56475 380.621063,329.14075 C396.412063,329.71075 412.246063,329.04775 428.062063,329.04675 C441.682063,329.04675 455.322063,328.81575 468.916063,329.45175 C477.947063,329.87475 486.975063,331.30575 495.893063,332.90575 C504.111063,334.38075 511.327063,338.12175 516.265063,345.06575 C541.869063,342.02275 597.964063,324.38775 610.259063,315.06775 C602.921063,315.61875 594.403063,316.26375 587.574063,316.76975 C567.981063,318.21975 548.618063,321.32375 529.303063,324.80175 C520.843063,326.32475 512.392063,327.13675 503.940063,324.53775 C487.757063,319.56475 471.171063,316.43075 454.467063,313.83975 C449.624063,313.08975 444.791063,312.22375 440.012063,311.15075 C439.832063,311.11075 439.663063,311.02275 439.502063,310.89775 C438.149063,309.85775 438.745063,307.56875 440.426063,307.27575 C440.559063,307.25375 440.690063,307.24475 440.819063,307.25575 C443.887063,307.49575 446.945063,308.03575 449.969063,308.64475 C466.157063,311.90075 482.503063,314.56275 498.455063,318.73175 C509.499063,321.61675 520.091063,322.18075 531.239063,320.09975 C548.910063,316.80175 566.670063,313.97575 584.654063,312.75375 C595.705063,312.00375 606.727063,310.79575 617.755063,309.72675 C619.154063,309.59075 620.694063,309.34775 621.861063,308.64575 C634.096063,301.28875 645.299063,292.69375 653.931063,281.13275 C654.938063,279.78575 655.703063,278.25675 657.144063,275.88175 C647.984063,276.23075 640.034063,276.65675 632.079063,276.81475 C603.748063,277.37675 575.416063,277.84475 547.084063,278.33275 C545.253063,278.36375 543.421063,278.30675 541.596063,278.16175 C539.637063,278.00575 539.177063,275.26075 541.013063,274.56275 C542.559063,273.97375 544.140063,274.06975 545.677063,274.04375 C574.389063,273.54475 603.103063,273.09675 631.814063,272.53475 C641.057063,272.35475 650.294063,271.88275 659.423063,271.54775 C667.323063,260.34675 667.212063,235.25975 655.420063,222.93075 C653.508063,223.31675 650.757063,222.81275 649.067063,222.78275 C640.709063,222.63775 632.357063,222.28075 624.000063,222.05375 C601.473063,221.44175 578.944063,220.67875 556.434063,222.52675 C548.618063,223.16875 540.965063,224.58275 533.557063,227.23775 C528.123063,229.18475 523.653063,232.34375 519.862063,236.74775 C514.528063,242.94075 508.868063,248.85175 503.356063,254.89275 C489.278063,270.32075 471.296063,276.90075 450.912063,277.94175 C432.123063,278.90175 413.501063,277.35775 395.088063,273.60375 C385.615063,271.67075 376.360063,268.84575 368.445063,263.03375 C365.273063,260.70475 362.291063,257.87975 359.925063,254.74975 C357.112063,251.02475 356.041063,246.50575 357.609063,241.85075 C357.926063,240.90775 359.248063,239.73275 360.160063,239.68675 C361.730063,239.60675 362.093063,241.07875 361.771063,242.47275 C360.180063,249.35075 363.734063,253.97575 368.645063,257.88175 C374.267063,262.35475 380.705063,265.34575 387.609063,267.17175 C411.024063,273.36875 434.805063,275.44775 458.903063,272.71375 C473.596063,271.04675 486.663063,265.51575 497.131063,254.80875 C504.396063,247.37975 511.417063,239.70375 518.321063,231.93875 C521.675063,228.16575 525.978063,225.36175 530.782063,223.80875 C536.499063,221.95875 542.300063,220.10575 548.206063,219.25875 C571.883063,215.86475 595.720063,217.13675 619.514063,217.56775 C630.150063,217.76075 640.781063,218.19675 652.502063,218.55575 C646.842063,211.35975 641.102063,205.67575 634.661063,200.70375 C633.794063,200.03475 632.293063,200.01775 631.079063,199.99175 C605.278063,199.44375 579.476063,198.93775 553.673063,198.42575 C545.680063,198.26775 537.684063,198.16875 529.692063,197.95275 C519.461063,197.67575 509.623063,194.94675 499.613063,193.24175 C484.233063,190.62375 468.694063,188.78675 453.159063,187.27875 C431.468063,185.17375 409.772063,182.84675 387.924063,182.98775 C386.119063,182.99975 384.286063,182.92375 382.511063,182.62275 C380.846063,182.33975 379.967063,181.29275 380.866063,179.02275 C382.030063,178.89575 383.409063,178.61175 384.786063,178.61775 C390.239063,178.64375 395.713063,178.47275 401.140063,178.89075 C424.683063,180.70475 448.237063,182.44275 471.735063,184.74075 C483.208063,185.86275 494.591063,187.73875 505.857063,190.18475 C516.853063,192.57175 527.880063,193.79175 539.081063,194.01275 C563.246063,194.48975 587.412063,194.98475 611.578063,195.43575 C616.387063,195.52475 623.150063,195.65675 627.959063,195.65675 C625.745063,193.55575 624.755063,193.12975 623.898063,192.59575 C618.809063,189.42875 613.764063,186.18175 608.568063,183.19875 C602.666063,179.81175 593.534063,175.94375 593.534063,175.94375 C584.315063,176.06175 571.032063,175.31375 561.790063,174.68375 C538.590063,173.10275 515.379063,171.65875 492.173063,170.15675 C491.270063,170.09775 490.256063,170.22575 489.499063,169.85175 C488.818063,169.51575 488.001063,168.60175 488.012063,167.95575 C488.024063,167.29675 488.877063,166.24275 489.531063,166.09175 C490.913063,165.77175 492.412063,165.81975 493.853063,165.90475 C505.097063,166.57175 516.342063,167.21975 527.578063,167.99875 C540.989063,168.92675 554.390063,169.97875 567.795063,170.97775 C574.693063,171.49175 581.590063,172.00575 588.488063,172.51975 C497.428063,135.22675 402.313063,126.72975 305.281063,131.75575 Z M272.625963,292.75975 C299.133963,293.15975 325.641963,293.64475 352.146963,294.21675 C365.579963,294.50575 379.008963,294.98275 392.437963,295.41775 C392.451963,295.41775 392.464963,295.41875 392.478963,295.41875 C395.147963,295.51675 395.174963,299.51475 392.509963,299.68975 C391.945963,299.72675 391.375963,299.71075 390.819963,299.69875 C382.468963,299.52875 374.122963,299.16875 365.771963,299.00475 C339.443963,298.48875 313.113963,298.04375 286.785963,297.53575 C282.065963,297.44475 277.346963,297.25075 272.635963,296.96675 C271.122963,296.87575 268.845963,297.00175 269.332963,294.57975 C269.497963,293.75875 271.484963,292.74275 272.625963,292.75975 Z M327.470163,281.07665 C326.984163,281.12765 326.484163,281.14265 325.995163,281.16365 C321.457163,281.36265 316.913163,281.49865 312.371163,281.55065 C278.752163,281.93965 245.132163,282.24965 211.513163,282.69765 C198.796163,282.86765 186.082163,283.35965 173.366163,283.64265 C172.247163,283.66765 171.126163,283.59465 170.002163,283.50265 C167.593163,283.30365 167.556163,279.73065 169.968163,279.55865 L170.021163,279.55565 C172.975163,279.35565 177.815163,279.15665 180.776163,279.11565 C215.528163,278.62665 250.281163,278.18365 285.033163,277.68365 C298.295163,277.49165 311.555163,277.13565 324.817163,276.97565 C325.529163,276.96665 326.295163,276.84265 327.054163,276.79665 C329.814163,276.63065 330.220163,280.79065 327.470163,281.07665 Z M114.016763,251.82975 C133.133763,252.24875 151.584763,252.64575 170.033763,253.10475 L170.062763,253.10575 C171.833763,253.16075 172.370763,255.54575 170.792763,256.35075 C169.235763,257.14375 167.497763,257.19175 165.768763,257.20275 C160.509763,257.23675 155.247763,257.29575 149.991763,257.15975 C138.574763,256.86675 127.159763,256.47975 115.744763,256.07875 C115.071763,256.05575 114.364763,256.07475 113.672763,256.00375 C111.047763,255.73675 111.378763,251.77175 114.016763,251.82975 Z M432.816763,212.34545 C446.448763,212.98545 460.044763,213.70845 473.307763,217.10845 C477.484763,218.18045 481.697763,219.67845 485.428763,221.80045 C492.978763,226.09245 493.142763,233.37745 485.875763,238.25245 C482.754763,240.34645 479.199763,242.04345 475.602763,243.13945 C450.739763,250.71345 425.439763,253.03545 399.718763,248.54545 C396.010763,247.89845 392.361763,246.54545 388.885763,245.05345 C386.012763,243.81945 383.430763,241.78545 383.562763,238.14945 C383.706763,234.18545 386.803763,232.60145 389.932763,231.56245 C393.012763,230.53845 396.255763,229.73745 399.479763,229.46845 C408.157763,228.74345 416.860763,228.29145 425.560763,227.89145 L425.609763,227.88945 C428.116763,227.78545 428.530763,231.51645 426.048763,231.88745 C424.900763,232.05845 423.799763,232.04145 422.716763,232.12845 C413.676763,232.84845 404.635763,233.58345 395.619763,234.54545 C392.811763,234.84545 389.860763,235.44045 387.969763,238.21445 C389.470763,241.52645 392.615763,242.41545 395.500763,243.00945 C402.064763,244.36045 408.696763,245.78545 415.360763,246.17945 C434.543763,247.31245 453.451763,245.19345 471.925763,239.80245 C475.213763,238.84245 478.392763,237.40545 481.474763,235.89045 C483.905763,234.69645 486.556763,233.20245 486.561763,230.04245 C486.567763,226.78645 483.790763,225.32045 481.273763,224.49845 C475.260763,222.53545 469.197763,220.40545 462.984763,219.43145 C443.732763,216.41245 424.332763,216.06745 404.849763,216.59145 C380.562763,217.24345 356.904763,222.03445 333.133763,226.23345 C304.727763,231.25145 276.136763,234.24445 247.264763,234.29545 C237.474763,234.31245 227.687763,234.38045 217.900763,234.62145 C216.167763,234.66445 214.388763,234.66045 212.730763,234.65545 C211.388763,234.65045 210.286763,233.42145 210.605763,232.11745 C210.898763,230.91445 212.058763,230.58045 213.411763,230.48445 C216.491763,230.26445 219.579763,230.09745 222.666763,230.05645 C230.661763,229.94745 238.657763,229.82145 246.651763,229.87845 C273.250763,230.06845 299.598763,227.42545 325.799763,223.06145 C342.630763,220.25945 359.407763,217.09745 376.292763,214.68045 C395.021763,212.00045 413.885763,211.45745 432.816763,212.34545 Z M300.411063,132.38775 C294.095063,132.98375 287.761063,133.42375 281.467063,134.19175 C281.042063,134.24375 279.753063,134.26375 279.753063,134.26375 C279.753063,134.26375 279.097063,135.81175 278.609063,136.31075 C271.056063,144.04475 262.281063,149.47875 251.445063,151.33075 C240.908063,153.13075 230.454063,152.47075 220.046063,150.52975 C218.173063,150.18075 216.835063,149.47775 214.765063,148.05775 C213.609063,147.26575 211.909063,145.89975 211.909063,145.89975 C210.882063,145.69575 209.660063,146.25775 208.405063,146.62675 C200.227063,149.02775 191.996063,151.24475 183.799063,153.57875 C182.519063,153.94275 181.308063,154.54575 179.437063,155.28775 C181.064063,156.17275 181.957063,156.80675 182.949063,157.16975 C186.011063,158.29175 189.060063,159.50175 192.205063,160.33775 C212.439063,165.71675 232.973063,167.27375 253.748063,164.56375 C270.163063,162.42075 283.572063,154.68475 294.012063,141.88075 C296.413063,138.93575 298.179063,135.47175 300.411063,132.38775 Z M272.245063,134.62775 C253.336063,137.87675 235.097063,141.01075 216.835063,144.14875 C231.482063,151.44875 264.061063,148.81275 272.245063,134.62775 Z" id="Stroke" fill="#000"/>
    </g>
</svg>
