<svg viewBox="40 220.213 544 175.532" xmlns="http://www.w3.org/2000/svg" overflow="visible">
    <g id="Master/Stickers/Laptop" stroke="none" stroke-width="1" fill="none" fill-rule="evenodd">
        <polygon id="Fill" fill="#FFF" points="49.6990826 377.544984 49.4617188 391.122084 134.599705 389.671202 346.966512 378.935906 386.484259 287.493503 414.203625 316.723338 414.099744 322.665287 387.789258 324.481592 383.359393 328.987846 396.034114 377.928952 402.79734 381.785369 481.78996 379.423464 494.95838 357.996905 502.716535 373.340314 527.757815 380.224569 540.46891 373.998244 545.273968 370.432374 563.950194 367.404179 575.461719 351.633145 564.484045 336.868175 541.207719 331.73875 503.455343 331.08082 508.180447 298.751827 496.388513 276.193932 477.300088 263.908237 424.334669 312.62377 426.178916 288.185282 419.464769 262.900311 413.146173 262.790193 412.873958 278.36079 418.654184 309.265379 404.227612 299.974472 391.175698 274.360334 403.715325 233.410741 272.390986 231.122084 182.197804 234.204295 142.509294 351.854593 139.209893 356.257435 105.366611 362.765882 64.3458819 370.081978"/>
        <path d="M276.89033,326.49457 C278.972587,327.332417 281.298448,327.363842 283.402773,326.580708 C286.311891,325.499732 289.162759,324.490313 291.509596,322.786469 C296.632418,319.065104 297.232192,312.227247 293.749639,306.956325 C289.995327,301.277623 285.742588,299.890687 279.33698,303.401223 C275.524423,305.490171 271.942652,308.481858 269.139142,311.814522 C265.594632,316.028291 266.283083,320.110741 270.748649,323.431601 C272.503831,324.737783 274.604571,325.575954 276.89033,326.49457 M404.507371,228.525772 C407.496528,228.7756 409.595602,231.560845 409.087834,234.52449 C406.76429,248.129675 400.024291,260.46259 396.266136,273.817287 C401.5959,281.109192 410.357142,294.997424 416.094681,302.847712 C412.347656,286.96702 411.169832,279.15463 410.877762,270.908349 C410.772235,267.950985 411.566656,264.717483 412.817136,262.012324 C414.808886,257.706456 419.413879,257.003947 422.272534,260.758285 C424.567873,263.773947 426.35393,267.545078 427.170578,271.246787 C428.741387,278.346459 428.643027,279.921329 429.734354,287.128444 C430.147396,289.856463 429.781911,303.64561 429.152518,305.98638 C431.500435,303.959732 436.074885,298.652005 437.605741,297.183979 C448.531682,286.707635 459.363883,276.129283 470.363946,265.73144 C476.481163,259.950334 478.722561,259.524666 485.892046,263.982723 C503.459098,274.907002 514.600879,289.666 512.658853,311.688884 C512.219034,316.673477 510.972873,322.043932 510.453873,327.945917 C513.380698,328.324367 517.409839,328.572274 520.653178,328.735434 C531.83328,329.295005 543.017325,329.805232 554.206359,330.117894 C566.764359,330.469892 575.687381,337.296416 577.236292,348.033746 C578.819479,359.014108 571.899002,369.064693 560.127806,372.711906 C558.007176,373.368218 550.291194,373.386407 548.081589,373.579462 C548.081589,373.579462 546.251811,375.314042 543.190484,378.404516 C540.993245,380.625269 537.436883,382.419273 534.346476,382.674162 C521.181006,383.759982 508.428386,382.024108 500.76616,372.342821 C500.111478,371.454311 498.644697,369.251442 497.55595,365.603662 C495.317666,369.469774 492.593614,375.303931 490.484393,378.837212 C488.82906,381.610969 486.786592,383.173523 483.094068,383.235691 C455.945657,383.694486 428.801261,384.452919 401.656209,385.072366 C401.642347,385.072124 401.628459,385.073425 401.614597,385.073183 C399.230509,385.111865 397.070893,383.676704 395.854225,381.620264 C386.854215,366.406064 383.932041,349.608641 382.682367,332.408047 C381.935489,322.149508 383.33423,321.012715 393.848393,320.357761 C399.701611,319.992049 405.542687,319.439282 413.039283,318.838203 C408.49586,313.806776 404.660755,309.680238 400.963317,305.434113 C397.140575,301.04065 393.452339,296.532179 389.126645,291.384108 C384.016699,304.509836 379.34529,316.784665 374.461221,328.973941 C368.725095,343.285463 362.739587,357.496893 356.991247,371.802025 C354.196725,378.760645 349.295784,382.472188 341.792013,382.778207 C328.369465,383.322172 314.949108,383.917133 301.526076,384.488884 C263.216671,386.117901 224.906373,387.709843 186.597673,389.386741 C144.378827,391.236277 102.163227,393.164621 59.9453278,395.048144 C57.9887143,395.134436 56.0258549,395.137234 54.0662644,395.12928 C46.7701602,395.100752 45.6849194,394.076561 45.4831623,387.099613 C45.1843971,376.765511 47.5266072,372.417891 57.6446564,369.830456 C75.511421,365.261232 93.5977722,361.528142 111.648452,357.720311 C120.655999,355.820717 129.791574,354.530213 139.485384,352.857236 C145.558574,334.76995 151.800975,316.785988 157.62357,298.668077 C162.857874,282.389801 167.724524,265.99084 172.560424,249.588254 C173.556117,246.210026 174.355581,242.775871 175.144286,239.251967 C176.215353,234.468325 180.258493,230.91321 185.132413,230.514963 C223.113117,227.416345 371.45893,225.765467 404.507371,228.525772 Z M130.492793,379.232028 C104.724515,380.944065 78.7131677,380.693864 53.441561,382.372878 C53.2162998,383.185807 52.4739064,387.763637 52.2486452,388.576565 C52.2486452,388.576565 55.0313666,388.384249 56.5089558,388.379157 C60.9740675,388.364446 65.4352915,387.866346 69.9020695,387.667909 C89.1769994,386.806086 108.452634,385.992144 127.724807,385.111743 C128.447969,385.078041 129.120654,385.023384 129.120654,385.023384 L130.492793,379.232028 Z M184.501069,236.586389 C168.16473,286.492616 152.150649,335.413118 135.942992,384.920109 C206.728382,381.864452 277.347269,378.815153 347.708674,375.776802 C349.658892,371.467121 351.285667,368.211088 352.634012,364.842104 C361.795466,341.944619 370.820785,318.990713 380.063304,296.127071 C381.415812,292.78441 384.414653,286.653938 384.932538,283.375461 C384.932538,283.375461 380.269768,276.796247 376.898365,271.436297 C373.626061,265.253496 380.961734,263.279939 388.455497,267.16614 C389.12731,267.514493 391.436132,269.404698 391.436132,269.404698 C395.124088,258.835985 398.689029,246.311763 402.762979,234.636448 C328.674346,234.252736 256.265976,233.109288 184.501069,236.586389 Z M502.324201,324.125824 C481.375777,324.388641 459.836348,324.616436 441.558489,324.845571 C437.434973,329.739614 434.955765,334.609856 430.997567,336.829211 C427.087574,339.023156 421.685268,338.535098 416.520186,339.284964 C416.414183,340.94463 416.3569,343.167221 416.113549,345.369578 C415.719705,348.955964 415.555355,352.634372 414.566527,356.060589 C414.153365,357.487902 411.874905,359.242446 410.429471,359.258908 C408.970203,359.273584 406.703788,357.601847 406.183483,356.164417 C405.06658,353.070498 404.440417,349.665505 404.343952,346.365495 C404.159356,339.994157 404.481862,333.610052 404.606403,326.475118 C399.262964,326.851272 394.675382,327.174222 389.32889,327.548779 C389.739076,344.209705 392.358358,359.647612 399.511856,374.201109 L402.432406,378.293154 C423.37925,377.767802 451.414194,377.359997 472.360711,376.765152 C476.201957,376.656167 480.032351,376.198012 483.560631,375.924516 C491.234391,359.08351 498.753662,342.619672 502.324201,324.125824 Z M136.166884,360.618938 C110.159409,364.383621 82.75955,369.98008 58.3072649,376.972953 C81.7201528,375.332526 108.849566,373.755427 132.358108,372.107405 C133.670459,368.152556 134.678842,365.106544 136.166884,360.618938 Z M508.414086,334.032907 C505.70634,341.757401 502.881411,352.399856 500.793378,359.309041 C500.793378,359.309041 501.404659,360.653866 502.253992,362.483079 C507.259298,373.269932 524.185963,380.015344 535.176963,375.43265 C537.804458,374.335835 540.230827,371.963121 541.940762,369.591799 C546.273231,363.583432 548.948878,345.429121 547.026537,336.932025 C534.691686,336.241118 521.638606,334.771771 508.414086,334.032907 Z M555.182699,338.175377 L555.325366,340.858529 C560.868911,341.904951 565.881864,343.33896 565.154243,353.249032 C564.306545,358.29908 556.626857,361.710422 552.220711,362.407137 L550.435478,367.150518 C560.650417,368.80967 569.236129,361.773014 570.542113,353.063584 C571.790588,344.736103 565.671045,338.911261 555.182699,338.175377 Z M554.616988,345.341215 C554.297362,348.206229 553.435427,354.424958 553.117341,357.289999 C553.75025,357.748853 557.570182,356.654322 559.092675,354.341495 C560.615168,352.028668 561.053433,349.516248 559.128971,347.319288 C557.891853,345.904862 554.646185,345.080761 554.616988,345.341215 Z M299.071645,302.767476 C304.342571,310.35813 303.682361,320.046993 297.419942,326.659163 C292.695683,331.645992 286.73294,333.524377 278.215309,333.571473 C276.700153,333.168191 273.277505,332.77323 270.322124,331.379652 C259.547408,326.296164 256.928192,315.419604 264.708794,306.471429 C268.087343,302.58675 272.574909,299.248032 277.198105,296.967893 C286.421153,292.421102 293.432484,294.646909 299.071645,302.767476 Z M477.136194,267.968238 C460.308489,284.50431 443.098319,301.415113 425.905388,318.309232 C452.325886,317.979794 478.755625,317.650516 504.960387,317.323489 C508.649624,294.32431 497.979641,275.396594 477.136194,267.968238 Z M418.541874,268.918907 C413.283637,268.827124 419.925691,294.586928 424.685658,306.719094 C423.60665,293.951675 424.042374,270.489591 418.541874,268.918907 Z" id="Stroke" fill="#000"/>
    </g>
</svg>
