<svg viewBox="56 236.17 512 159.574" xmlns="http://www.w3.org/2000/svg" overflow="visible">
    <g id="Master/Stickers/Cat and Books" stroke="none" stroke-width="1" fill="none" fill-rule="evenodd">
        <path d="M222.126628,241 L224.849999,259.881172 L206.060784,262.923226 L213.628017,269.635484 L216.386361,283.659584 L206.060784,296.976483 L224.849999,296.976483 L227.895568,327.633501 L206.060784,329.428802 L216.386361,345.595016 L208.58054,359.94503 L230,359.94503 L227.085196,387 L75.9204521,387 L68.7770592,381.841608 L66,372.357504 L72.7121879,365.437019 L99.1629758,363.33037 L94.2476202,336.592725 L81.2217556,325.338311 L79.6985515,312.172077 L87.4716355,303.953853 L108.796689,300.951157 L103.203981,269.635484 L83.749175,267.189346 L81.2217556,256.838534 L83.749175,250.160813 L101.224408,246.487723 L137.436054,241 L222.126628,241 Z M526.623942,244.167454 L548.047386,245.670648 L558.626334,257.94759 L558.119391,265.197205 L533.503269,260.96504 L523.087333,271.075523 L519.678878,287.152118 L522.429552,304.355069 L537.534889,336.106661 L532.261256,354.427048 L510.300753,370.85652 L481.618064,377.948422 L464.553077,378.573301 L458.676136,381.430679 L435.97136,383.500984 L387.397948,383.889689 L384.177328,376.203407 L367.186585,386.737644 L337.68099,384.667359 L309.737006,382.706645 L307.113122,367.526393 L315.542165,339.220769 L332.072912,324.760668 L325.003811,318.295525 L321.276006,308.33547 L312.930578,284.048496 L308.675837,262.840643 L331.910637,269.253541 L353.975612,267.652694 L372.398389,254.186645 L372.94583,275.019044 L382.590037,288.936211 L379.778609,302.712941 L368.293799,313.085675 L388.363681,316.131122 C386.339854,322.328328 389.856744,324.778461 398.914351,323.481521 C407.971959,322.18458 417.92053,323.848868 428.760065,328.474383 L428.760065,328.474383 L466.378854,352.374222 L467.720891,367.868867 L480.993105,366.704633 L506.039533,360.677925 L519.272096,349.663135 L521.744063,338.069106 L519.521368,322.245524 L508.452136,298.896038 L505.758522,269.859632 L511.454725,255.810231 L526.623942,244.167454 Z" id="Fill" fill="#FFF"/>
        <path d="M543.165487,241.933531 C550.836728,243.9093 557.050762,248.314945 560.422264,255.833126 C561.761658,258.820436 562.46253,262.074637 559.922894,264.860081 C557.493421,267.528069 554.42944,267.742352 551.093609,266.692826 C548.277889,265.80619 545.410578,265.05471 542.531229,264.39762 C533.177239,262.26473 527.470306,265.575576 524.252588,274.714463 C521.77779,281.743565 522.081405,288.909815 523.809191,295.868193 C525.401316,302.278351 527.890889,308.490061 530.305628,314.663888 C532.006383,319.015138 534.315454,323.123234 536.225461,327.397966 C540.338093,336.603218 539.035359,345.144099 532.955206,353.092427 C526.038696,362.134562 517.124062,368.512002 506.771643,373.017613 C494.89243,378.187828 482.808277,378.299209 470.176292,380.471438 C467.278701,380.969444 462.030497,380.655511 462.030497,380.655511 C461.306319,380.747717 459.830543,382.626678 459.103754,382.717342 C435.961396,385.569469 412.430391,385.348399 389.260174,385.352542 C382.734844,385.379202 383.381287,386.456978 381.617826,379.211773 C372.587039,389.135915 360.089831,390.838694 348.750551,390.736876 C344.501149,390.699573 339.797863,389.591156 336.166512,387.48023 C335.325367,386.990153 334.782978,386.115556 333.980512,385.849935 C333.980512,385.849935 329.003274,385.646099 326.426638,385.811474 C315.64238,386.50079 305.956569,385.341897 295.1581,385.554066 C291.567367,385.62268 286.753079,386.334929 283.256408,385.233343 C279.932657,384.186021 276.538919,382.506644 276.910751,378.180605 C277.266151,374.050681 280.601628,372.500386 284.08063,371.794076 C287.184495,371.164927 290.40879,371.107421 293.586656,370.877974 C295.524036,370.73728 297.473621,370.752529 300.222257,370.674005 C300.828054,350.658074 311.947045,334.548477 328.20473,322.418337 C322.937296,322.437727 311.091226,317.861364 307.361547,312.607753 C300.603322,315.284585 294.063493,317.929073 287.480308,320.454893 C285.143548,321.349911 282.071551,324.322602 280.375263,320.996074 C278.48791,317.291588 282.681333,316.224383 285.162884,315.105494 C291.189975,312.387059 297.352182,309.971927 303.86371,307.265601 C303.436736,305.556964 302.769573,303.103697 302.319276,301.300919 C295.715289,300.780625 285.721461,302.704712 277.35239,303.962882 C274.477023,304.395781 272.976141,300.568672 275.410637,298.975781 C276.238318,298.433705 277.241357,298.163735 278.201057,297.988686 C283.996347,296.932822 289.879246,296.33475 295.73885,295.661585 C297.912198,295.412231 300.119896,295.468657 302.180646,295.391007 C303.229155,284.809378 309.387115,280.783191 309.387115,280.783191 C308.177621,276.89075 306.436284,272.536663 305.505969,268.014815 C303.891595,260.173281 307.170126,257.182382 314.800068,259.126693 C316.70057,259.610582 320.053084,260.907515 321.695604,261.912097 C324.527124,263.641949 329.974716,267.03353 329.974716,267.03353 C338.596725,266.182132 345.09419,265.387597 351.041033,265.585771 C351.041033,265.585771 351.890245,265.57169 353.817818,263.78282 C357.818555,260.066974 361.933828,256.384985 366.423368,253.29919 C371.46557,249.833027 374.754267,251.362213 375.922373,257.246161 C376.398842,259.646641 375.672577,270.188223 375.20249,272.498025 C381.520282,278.782888 381.96182,281.81897 383.087195,284.523308 C392.778481,281.424414 400.010144,281.930101 408.559211,282.491178 C408.74724,282.504327 409.017989,282.598083 409.312292,282.879867 C410.774717,284.282708 409.728927,286.738633 407.704038,286.828313 C407.037254,286.857872 406.324491,286.825716 405.603018,286.918112 C397.816275,286.185869 396.115284,286.445126 390.539323,287.377562 C389.349621,287.575981 383.808911,289.306738 383.808911,289.306738 C384.073717,291.584942 384.050675,295.316372 384.050675,295.316372 C391.387734,295.345113 401.027113,293.70778 408.410074,297.240138 C409.193956,297.616015 409.666611,298.43812 409.549304,299.299237 C409.548641,299.308714 409.546626,299.318096 409.546058,299.326219 C409.422542,300.237238 408.656236,300.931893 407.738698,300.931673 C405.627599,300.932338 403.862947,300.255244 401.019584,299.763922 C395.994012,299.47372 393.194513,299.521478 388.074272,299.710332 C385.711179,300.029404 383.319171,299.926079 383.319171,299.926079 C381.677741,304.251768 374.097817,310.961977 372.510117,311.195145 C379.450821,314.014997 388.868109,311.452002 396.208908,312.671387 C398.811715,313.103714 399.047828,316.861428 396.491315,317.516608 C394.647643,317.988999 392.388159,318.537068 389.869191,318.830275 C395.066895,319.769199 401.116924,319.230429 410.745526,316.211499 C412.837135,315.55646 415.027931,315.213096 417.201939,314.818222 C418.171298,314.641127 419.146686,315.097058 419.638901,315.95046 L419.647424,315.96466 C418.821811,317.274168 418.296839,319.241383 417.119803,319.783517 C408.766724,323.631719 399.969278,326.039434 390.717325,325.59654 C386.258694,325.382714 385.458925,323.834388 385.487262,318.744252 C382.167585,319.524283 377.23369,318.622852 367.442207,315.126141 C359.408258,319.523147 349.478101,322.189044 339.140617,323.506833 C337.962438,323.657082 336.617783,323.933093 335.727432,324.632679 C330.703594,328.574919 325.797351,332.662787 320.494953,336.992319 C325.85684,347.169212 316.583029,362.376625 309.088565,365.493092 C315.896003,366.136448 315.345109,376.891638 316.154621,381.119346 C321.329758,381.078538 334.716572,381.116746 334.716572,381.116746 C334.716572,381.116746 336.373099,377.6832 338.389863,377.048776 C334.810882,372.050582 332.289833,369.146616 331.745975,363.685881 C331.560418,361.829513 333.910915,360.543649 335.772682,360.628942 C336.870187,360.679839 337.569851,361.210359 337.763881,362.576202 C338.577381,368.302031 343.439416,373.924597 343.439416,373.924597 C351.968001,374.350919 355.212199,370.529113 358.38593,366.412606 C360.158959,364.112289 361.975028,362.382283 362.499883,360.669462 C363.16467,358.510679 365.769156,356.547392 368.206743,357.845647 C369.293124,358.424977 369.017139,360.738828 368.42932,361.933001 C366.292374,366.268935 364.390672,366.832499 360.855573,370.790413 C359.248265,372.237081 356.420608,375.078569 355.50027,375.954276 C358.136008,378.326168 362.0665,381.194009 364.568059,383.443602 C371.476782,381.219436 378.998845,375.861538 380.275151,373.336024 C379.688392,362.559781 385.634866,362.568828 391.000686,361.900587 C395.842665,361.297748 400.783447,361.478628 406.345406,361.290733 C407.958666,358.203794 409.579421,354.348731 411.887678,350.96484 C413.318796,348.869167 415.677973,347.30366 417.874879,345.900942 C418.509624,345.493662 420.491346,346.157367 421.0068,346.911722 C421.493887,347.624641 421.292609,349.686594 420.660936,350.147145 C415.955953,353.572949 414.285845,358.716976 412.238407,363.755712 C410.545449,367.924068 409.080089,368.176674 403.993211,367.849534 C399.381329,367.552888 394.650072,367.485972 390.110361,368.198375 C386.113492,368.827497 384.869682,370.020088 386.126904,378.334785 L386.185772,378.717654 C386.185772,378.717654 386.443659,378.937032 391.464155,378.988803 C391.852599,377.146724 391.958362,375.109382 392.761661,373.399706 C393.256551,372.348683 394.401481,372.32399 395.59236,372.069876 C396.120867,371.957185 397.757415,372.638926 398.012149,373.622649 C398.426312,375.222916 398.270182,376.969684 398.339411,378.351287 C405.706346,378.866434 412.750907,379.734518 419.7959,379.760522 C429.394401,379.79639 438.993269,379.146624 448.594131,378.876558 C452.524884,378.76642 455.496401,377.405624 457.9224,374.068058 C461.604399,369.000775 464.384671,363.707185 465.022051,357.469254 C455.306193,352.813296 445.730928,348.440617 436.380343,343.634705 C432.724688,341.754714 429.179202,339.290637 426.282528,336.393054 C422.57671,332.683849 422.718644,329.798762 425.655162,324.11749 C439.079348,324.748742 451.666785,328.151192 462.264988,337.15967 C468.485314,342.447319 471.125754,349.436866 470.977954,357.518414 C470.938261,359.680094 470.693548,361.838322 470.480166,364.889827 C483.821323,362.33457 496.784112,360.699719 508.091838,353.768588 C515.116022,349.465585 518.760575,342.542767 517.610976,334.275266 C516.81387,328.528816 514.842223,322.84172 512.6868,317.41114 C509.782424,310.094318 505.796296,303.201133 503.005873,295.848745 C499.466861,286.527154 497.774919,276.878976 500.605339,266.883139 C505.903968,248.163994 524.404525,237.103545 543.165487,241.933531 Z M208.653792,237.49332 C211.045732,237.617047 213.440268,237.664771 215.834573,237.618608 C224.965542,237.439485 225.811741,237.682316 226.032779,246.010046 C226.126337,249.531959 226.192557,253.056042 226.274182,257.215166 C226.320484,259.585565 224.595959,261.619908 222.252238,261.972985 C221.282352,262.118753 220.314102,262.260554 219.346326,262.395585 C217.159723,262.69843 213.010172,263.099367 210.767795,263.383347 C217.350663,268.637848 217.713302,273.579828 218.209018,278.348815 C218.708158,283.14661 215.473381,291.440833 213.225826,292.693082 L224.896004,293.330923 C226.715418,293.458149 228.21101,294.814334 228.525751,296.611714 C229.145898,300.165008 229.775023,303.512143 230.082756,306.887141 C230.551871,312.03655 230.735359,317.227207 230.731197,322.3993 C230.72795,327.266718 229.075102,329.092485 224.282929,329.663435 C220.631181,330.099182 214.143146,330.195111 209.530109,330.439839 C221.364103,337.638281 219.754781,346.559053 214.300301,356.057136 C219.175791,355.713764 224.090373,356.016612 227.705129,355.857167 C230.921766,355.714778 232.647179,355.844954 232.496382,359.420523 C232.331929,363.308038 231.557428,376.386184 231.557428,376.386184 L231.063672,381.386637 C230.37872,388.67422 229.836985,387.245971 222.743176,387.470955 C214.378282,387.736299 206.005392,387.882725 197.636396,387.915146 C167.594715,388.036022 137.552709,388.064365 107.511597,388.177118 C98.6490056,388.211755 89.7728449,388.148853 80.9297266,388.624274 C74.2083653,388.985498 69.6922872,385.70531 66.0846573,380.805785 C62.3157522,375.685475 62.9447406,369.120452 67.4654784,364.616542 C72.269661,359.830435 77.8966721,358.790013 84.9266506,358.85578 C88.7059281,358.890139 95.5190557,358.382963 95.5190557,358.382963 C95.5190557,358.382963 94.7014135,343.521505 92.4500726,335.88575 C92.4500726,335.88575 87.6694512,333.939338 84.9177414,332.215067 C72.3976366,324.370054 74.9831646,308.137172 83.7105064,302.124836 C85.9770349,300.562374 89.0090966,299.85202 91.7965765,299.373523 C95.877296,298.673917 100.053311,298.536035 105.059066,298.079332 C103.58894,289.030292 102.199431,280.480729 100.755536,271.600858 C97.1085921,271.345839 93.9133801,271.337357 90.7903416,270.86049 C83.2207575,269.705372 78.1208539,264.549128 77.3484009,257.536474 C76.6970209,251.611114 81.0188947,246.277035 86.8855273,245.250648 C99.8751299,242.979627 112.928016,240.911655 126.033765,239.526238 C153.502209,236.625627 181.063084,236.057829 208.653792,237.49332 Z M219.517638,360.642046 C178.677183,362.106953 137.838824,363.619622 97.000561,365.130937 C90.6032558,365.367894 84.1970747,365.47907 77.81721,365.952602 C73.4869745,366.274244 70.3372596,369.017027 69.7204589,372.297446 C69.099154,375.603397 71.1541351,379.24342 75.2019565,380.997105 C77.3854287,381.944283 79.9097807,382.507168 82.2880568,382.534708 C90.6547287,382.632726 99.0259128,382.374625 107.395004,382.34085 C143.835359,382.196702 180.276743,382.096159 216.716976,381.934317 C218.918491,381.923649 226.101268,381.689921 226.101268,381.689921 L226.490011,377.433086 C221.546951,377.751327 216.535416,378.018525 212.692673,378.191957 C209.350449,378.341889 205.895747,379.283894 202.590986,378.139949 C201.332744,377.705052 200.527716,376.329135 200.942494,375.063002 C200.992704,374.908702 201.061908,374.793823 201.162968,374.728787 C205.811415,371.761579 221.662761,373.023742 226.859226,372.697373 L226.855974,369.964026 C221.725326,369.83517 214.07535,370.354571 208.979797,370.579162 L205.292327,370.741009 C200.374552,370.952096 195.453172,371.125144 190.540126,371.029734 C190.272787,371.023284 190.008747,370.891904 189.746234,370.680365 C188.138948,369.385753 188.477587,366.836845 190.24708,365.772918 C190.391779,365.686445 190.537642,365.602775 190.687184,365.524803 C191.267104,365.221165 192.140129,365.508045 192.876848,365.469773 C200.745629,365.067705 208.618144,364.709432 216.480998,364.217162 C219.729138,364.013035 223.367647,364.583086 226.606478,364.220497 C226.546351,363.525191 226.852193,361.34811 226.790714,360.652709 C224.625002,360.501267 221.674905,360.564343 219.517638,360.642046 Z M516.482615,282.178644 L516.48715,282.153138 C515.826207,286.045388 515.927472,290.156909 509.257983,295.958069 C511.522059,300.69018 514.661229,307.351365 516.931724,312.516544 C519.00554,317.228548 521.317218,321.94086 522.557124,326.895209 C526.591859,343.007397 520.081202,355.868092 504.842697,362.151596 C499.86812,364.203551 494.618715,365.675789 489.392494,367.010883 C482.728226,368.71341 475.13982,369.65477 468.397603,371.033504 L465.368364,375.591377 C481.117658,376.699473 505.560774,369.378117 518.066234,359.567707 C521.523802,356.854613 524.667828,353.648883 527.560394,350.326257 C533.082495,343.982315 534.325028,336.846638 530.547503,329.089197 C528.932284,325.769698 527.387446,322.415668 525.770874,319.096075 C521.10527,309.517488 517.352384,299.67758 516.829432,288.863624 C516.807592,288.385008 516.126047,285.008027 516.452368,282.402732 L516.482615,282.178644 Z M325.43549,353.156492 C325.907658,353.363672 326.229334,353.915394 326.460964,354.530197 C326.903564,355.705299 326.912545,356.996983 326.646081,358.223136 C325.737575,362.393237 327.281789,365.077976 328.920892,367.708135 C329.826872,369.157824 331.182627,370.376426 331.836574,371.91187 C332.213722,372.798061 331.976055,374.545916 331.326683,375.104505 C330.655696,375.680628 328.957347,375.688292 328.043311,375.248844 C322.937612,372.797817 318.96581,362.094823 320.916647,356.547441 C321.689849,354.352749 322.747501,351.977979 325.43549,353.156492 Z M172.892117,331.952371 C158.381846,332.29271 143.866788,332.662644 129.369374,333.343991 C119.093005,333.826664 108.840589,334.841582 98.0310099,335.659729 C98.7156406,338.368619 99.3293024,340.77053 99.8998641,343.030662 C99.8998641,343.030662 103.073114,342.614512 104.503684,342.490075 C118.226088,341.286543 131.941875,339.983236 145.674412,338.906933 C145.94635,338.886497 146.224361,338.856961 146.506525,338.826356 C150.093993,338.435089 151.026297,343.803268 147.485354,344.501166 C147.18758,344.560609 146.888048,344.606325 146.586851,344.63696 C134.104935,345.887783 121.593918,346.85496 109.098784,347.983779 C106.518767,348.21694 103.963293,348.721183 101.172336,349.132776 C101.445418,352.867227 101.657018,355.770232 101.853343,358.464023 C101.853343,358.464023 103.303162,358.355897 103.528066,358.347136 C127.367894,357.5926 150.657662,357.414518 174.494026,356.53458 C176.335283,356.466069 178.351449,355.684677 179.920442,354.669309 C185.298159,351.187155 187.511647,345.523345 185.958929,340.046482 C184.298324,334.187954 180.654455,331.770054 172.892117,331.952371 Z M188.735968,332.369179 C194.328036,340.965014 192.073505,348.187736 188.961907,355.67295 C193.164572,355.65937 196.58903,355.655313 200.013366,355.633562 C201.053785,355.626049 202.097478,355.610603 203.130618,355.512792 C209.047674,354.951119 213.162131,349.356298 212.275364,343.472976 C211.430821,337.860614 207.472455,333.680722 201.400691,332.741898 C197.846362,332.192698 194.160604,332.492744 188.735968,332.369179 Z M99.2932676,304.934082 C96.2245809,305.235105 94.0535327,305.471015 91.8778709,305.656267 C86.825121,306.085195 83.9581676,308.944343 82.7183413,313.728012 C81.4122086,318.760087 82.5854712,323.190088 86.8023886,326.102446 C91.9374633,329.64767 96.559277,329.25799 104.865261,329.076955 C99.1734978,322.101233 97.764554,313.810154 99.2932676,304.934082 Z M221.481532,298.401948 C207.947084,298.492181 191.333873,298.930347 177.819643,299.50903 C155.951667,300.446346 134.103625,301.876173 112.260209,303.298161 C106.130178,303.698014 103.984121,306.803475 104.602721,313.314252 C104.832264,315.727394 105.415759,318.113591 106.388755,320.333842 C108.984187,326.256379 112.920008,328.328736 119.669346,328.072862 C135.401702,327.479231 151.134315,326.86249 166.872112,326.424329 C174.247382,326.217665 180.049677,326.675098 189.206753,325.636643 C190.246642,325.46176 208.998733,324.722854 219.01642,324.207128 C220.88005,324.110252 222.938869,324.235173 225.139458,323.848959 C224.79157,321.709152 224.316322,319.485615 224.058413,317.905798 C218.893111,318.000351 214.16269,318.582422 208.582862,318.773149 C207.652229,318.804664 206.860591,318.073169 206.803125,317.145414 C206.800771,317.120761 206.79977,317.096204 206.798768,317.071646 C206.685486,315.15367 208.073975,313.512123 209.974546,313.236893 C212.4369,312.878507 221.839155,312.493881 223.618557,312.74619 C223.642414,312.405028 223.207484,309.799306 223.207484,309.799306 C220.696195,309.788313 212.242136,311.270454 209.730847,311.259461 C206.572382,311.678005 203.416961,312.130773 200.252246,312.502626 C197.567232,312.818233 194.859563,313.302311 192.186189,313.179311 C191.91517,313.167162 191.649359,313.080553 191.38425,312.945017 C189.667996,312.061799 189.28991,309.615142 190.698086,308.294675 C190.898867,308.10601 191.114489,307.957835 191.351647,307.871025 C193.38989,307.123827 195.670997,306.966356 197.869127,306.751385 C206.166281,305.938491 214.46905,305.200813 222.660205,304.445807 L221.481532,298.401948 Z M331.260732,271.736701 C339.95941,292.708003 339.921815,299.893926 326.478902,316.889916 C338.914679,320.71166 354.760459,318.301613 368.057332,308.662181 C370.021854,307.239132 378.358653,300.532873 378.439458,299.280118 C374.675339,296.48241 378.682611,295.297435 379.760633,295.10209 C379.760633,295.10209 379.563566,290.883197 379.293704,289.590957 C375.05219,289.732422 373.669531,285.614284 377.79929,285.088162 C376.839842,282.479774 375.767864,278.409208 366.989513,273.934444 C358.104311,268.654992 339.849207,268.390636 331.260732,271.736701 Z M344.573222,297.493165 C345.678962,297.562426 345.923611,298.808022 346.790266,300.061778 C347.31224,300.8207 347.792058,302.980643 348.217366,304.48104 C349.413175,304.564727 350.563831,304.302424 351.259083,304.254489 C353.380296,304.109084 355.648805,304.32634 355.424999,306.945845 C355.327389,308.089945 353.394115,309.611661 352.022313,310.004054 C348.736266,310.945423 345.305155,311.531088 341.895989,311.802667 C340.736866,311.894323 339.168556,311.577781 338.370597,310.585956 C338.002693,310.131671 338.076336,307.365613 338.774265,307.104277 C340.046042,306.625978 342.796166,306.389903 343.192266,305.604082 C343.192266,305.604082 342.332644,303.043438 342.012858,301.686469 C341.531764,299.642073 341.934178,297.326202 344.573222,297.493165 Z M322.323279,295.313919 C321.918647,295.774022 321.617985,296.244115 321.573962,296.737597 C321.45328,298.074631 321.699705,299.663168 322.790515,300.567951 C324.032805,301.600325 326.542861,301.492874 327.428816,300.020252 C327.730397,299.517572 327.795399,298.899037 327.719204,298.316884 C327.635189,297.671603 327.319776,296.953003 326.866901,296.31458 C325.750784,294.741413 323.789508,293.64924 322.323279,295.313919 Z M358.099843,291.872875 C358.401531,292.302119 358.710672,292.741408 359.031042,293.195088 C360.188601,294.83788 359.752832,297.203114 357.981884,298.152562 C357.649994,298.33068 357.351591,298.418632 357.077622,298.37089 C353.992832,297.832582 353.604138,295.166131 354.060055,292.707076 C354.146987,292.241088 354.522485,291.827945 354.995975,291.432544 C355.948649,290.638058 357.385034,290.8583 358.099843,291.872875 Z M176.989775,265.246877 C155.596761,265.787507 134.245827,266.970485 113.148493,270.902955 C111.118319,271.282039 107.20548,271.621984 107.20548,271.621984 C107.299764,272.35369 107.397396,275.214716 107.491774,275.945068 L107.532261,275.936954 C107.930563,275.857313 111.168508,275.213982 112.817414,275.015534 C118.182883,274.371756 123.51346,273.44937 128.870013,272.719261 C131.303231,272.388768 133.7829,271.977175 136.200908,272.155781 C136.448362,272.174445 136.689919,272.257998 136.928257,272.387581 C138.60251,273.288268 138.733304,275.694505 137.292553,276.93651 C137.094355,277.10767 136.883955,277.258931 136.656889,277.376376 C135.408323,278.027785 133.814438,278.057815 132.358276,278.256647 C126.757341,279.021364 121.13963,279.676072 115.550695,280.521894 C113.325012,280.858737 108.658399,281.403096 108.658399,281.403096 C108.737314,282.062985 109.169733,284.19918 109.248743,284.857715 C109.248743,284.857715 113.640684,284.178512 115.831238,283.935803 C122.181015,283.231613 128.503989,282.230334 134.866903,281.727048 C135.185401,281.701704 135.512775,281.802141 135.847117,281.97789 C137.782109,282.998842 138.104429,285.834766 136.210351,286.930794 C136.092774,286.998757 135.970543,287.055511 135.843942,287.096994 C132.340748,288.246476 128.371775,288.047844 124.892928,289.062984 C120.976801,290.208078 114.245508,290.380867 113.663012,290.371425 C112.843032,290.35626 110.218619,290.621688 110.218619,290.621688 L110.844722,296.033756 C141.309724,295.146626 171.526273,294.352317 200.99981,293.452995 C202.649508,293.40238 204.562988,293.37021 205.879823,292.558962 C210.231203,289.874358 213.463033,281.680601 212.338573,277.05811 C210.539126,269.647137 206.532476,265.885605 199.107281,265.503788 C191.748464,265.125254 184.356862,265.060048 176.989775,265.246877 Z M508.769214,263.077485 C510.698961,265.96187 512.643307,268.248684 513.862573,270.873881 C514.996939,273.313563 515.672337,274.774286 516.439941,281.370306 C516.835143,278.381851 517.494802,276.957346 517.770296,276.050153 C522.806911,259.483945 531.156489,254.947117 547.830875,259.699217 C548.730521,259.955308 549.636118,260.184607 550.578618,260.411045 C552.629273,260.905434 554.377943,258.797955 553.47969,256.889029 C550.912376,251.43917 545.860903,248.117462 539.236145,247.194385 C525.830661,245.323722 515.066842,250.891636 508.769214,263.077485 Z M310.506329,263.53356 C311.616019,267.492486 312.680945,271.294552 313.978242,275.914164 C317.491508,273.570923 320.24071,271.734754 324.188804,269.102215 C318.686446,266.863177 314.759615,265.26488 310.506329,263.53356 Z M369.877451,257.439737 C366.858351,259.908684 361.788551,263.264082 357.90587,266.438567 C361.045028,267.443051 363.659043,268.278851 365.292436,268.714132 C366.817678,269.121444 369.163355,270.06228 370.733506,270.391106 C370.247836,264.545355 372.085355,258.445763 369.877451,257.439737 Z M106.482804,247.276754 C99.3407092,248.658816 93.7901761,249.402569 88.4658855,250.934871 C86.454356,251.513882 84.779131,253.970687 84.5926463,255.704449 C84.3509656,257.955398 84.7045073,260.86969 86.4429445,262.465968 C88.2438785,264.121033 91.2340558,264.787234 93.8131771,265.208381 C97.5858494,265.823185 104.529289,265.57136 109.739982,265.935727 C100.244988,260.745597 102.220865,249.071084 106.482804,247.276754 Z M133.519979,244.653446 C128.617787,245.106507 123.663201,245.336874 118.843993,246.255566 C113.596326,247.255853 108.784793,252.574738 109.479827,256.942729 C110.183153,261.367077 116.982906,263.519982 121.391415,263.478622 C128.525835,263.411568 135.592394,262.04055 142.678157,261.191922 C165.890465,258.408627 200.791778,258.540502 211.592421,258.025108 C214.081113,257.639994 220.995794,257.410647 220.995794,257.410647 L220.683445,252.974185 C217.239373,253.044892 208.946943,253.984638 205.503711,254.101659 C203.00058,254.187827 199.248193,255.65455 199.072219,251.658884 C198.90519,247.90464 202.883464,248.59232 205.338407,248.320483 C210.138751,247.788197 214.980697,247.63294 219.806381,247.321456 L219.505176,243.580957 C219.505176,243.580957 217.55229,243.554593 216.184457,243.501119 C188.611192,242.438247 161.044973,242.110503 133.519979,244.653446 Z" id="Stroke" fill="#000"/>
    </g>
</svg>
