<svg viewBox="136 -3.191 368 606.383" xmlns="http://www.w3.org/2000/svg" overflow="visible">
    <g id="Master/Stickers/Chair" stroke="none" stroke-width="1" fill="none" fill-rule="evenodd">
        <g id="Group" transform="translate(140.000000, -3.000000)">
            <path d="M152.964521,4.95071176 C154.840203,6.65431654 156.798827,8.31895324 158.393706,10.2693559 C163.365213,16.3493765 163.580062,22.0966696 159.322054,28.7991804 C156.656927,32.9967427 156.810819,33.1156453 160.217425,36.3669825 C169.351007,45.0858419 170.93989,53.8346768 162.055134,63.343889 C161.935218,63.4727834 161.815302,63.602677 161.697385,63.7335698 C159.936622,65.6879692 160.105504,68.7164889 162.104099,70.4280872 C165.727553,73.5325447 168.35071,77.1865521 170.435245,81.3381521 C173.65898,87.760892 173.719937,93.8778823 169.297045,99.7420796 C167.444347,102.198068 165.428763,104.52816 163.544087,106.960168 C163.485129,107.036106 163.427169,107.112044 163.370209,107.18998 C162.222016,108.7527 162.488829,110.936911 163.969788,112.188886 C168.265769,115.825907 170.808982,120.442127 171.754318,125.931631 C172.753616,131.74487 169.23209,136.101302 166.541981,140.970315 C165.706568,142.481077 166.056322,144.353544 167.337422,145.510596 C172.131053,149.837053 175.415745,155.165689 177.790077,161.175767 C180.296316,167.522569 180.284324,173.489682 177.360379,179.811504 C174.093674,186.872721 172.796586,189.282748 179.513866,195.350778 C186.630865,201.781512 187.038578,210.027758 182.288916,218.320966 C175.927386,229.426871 175.620601,230.054357 163.094403,232.854064 C149.646853,235.858603 136.034418,238.124747 122.504925,240.77058 C121.219828,241.022374 119.833802,241.081326 118.509732,241.509975 C116.410208,242.191417 117.025775,245.32585 119.228227,245.180968 L119.385117,245.170976 C122.996579,244.93417 126.594052,244.50752 130.15355,243.851057 C144.918175,241.127288 159.828698,239.045993 174.107664,234.110035 C178.498579,232.592278 180.720018,233.365645 183.203273,237.190512 C186.662842,242.519148 185.679533,247.927719 183.417123,253.325298 C182.678642,255.085856 181.78527,256.781468 181.160708,258.090396 C181.638373,258.9397 181.689337,259.182501 181.823243,259.242452 C182.961443,259.751036 184.115632,260.231642 185.267822,260.71025 C191.763258,263.40904 195.675509,269.649929 195.296775,276.685167 C194.914044,283.798341 192.483752,289.277854 184.799152,291.317184 C180.081467,292.570158 175.516674,294.42364 170.9269,296.125246 L170.878933,296.142232 C168.333722,297.092454 169.63181,300.954291 172.22099,300.131965 C172.382876,300.081006 172.542764,300.02705 172.701652,299.973095 C178.364673,298.046672 184.258532,296.536909 189.544817,293.848111 C194.22253,291.470058 197.940917,292.227438 201.582358,295.063116 C204.130568,297.046492 206.790699,299.211718 208.505494,301.872539 C212.095971,307.443976 213.731821,313.360131 206.395976,318.897596 C196.660817,326.246577 186.682828,333.128941 175.66557,338.432597 L175.357786,338.582474 L175.357786,338.582474 C172.906508,339.811468 174.586328,343.58138 177.111554,342.513255 C177.547248,342.328407 177.971949,342.124574 178.390655,341.911748 C191.237627,335.411072 203.404078,327.893229 213.773792,317.748537 C214.921985,316.625457 216.141128,315.293548 217.579118,314.805947 C221.502361,313.473039 225.515541,312.32298 229.57269,311.490662 C234.757047,310.426534 240.093297,312.531809 243.270065,316.764343 C243.955583,317.675597 244.627112,318.595843 245.306634,319.514091 C246.456826,319.431159 247.375181,319.47912 248.236575,319.278284 C250.530963,318.744721 252.787377,318.048291 255.080766,317.518725 C257.897786,316.869257 260.718804,315.951009 263.5708,315.814121 C268.818113,315.563327 272.36562,318.169192 274.300261,323.100154 C273.781625,323.542792 273.214024,323.989426 272.690392,324.480024 C264.882878,331.802027 257.041388,339.087061 249.31082,346.488 C249.124951,346.665854 248.938082,346.845707 248.753212,347.031555 C246.884525,348.907019 249.551651,351.813638 251.579226,350.110034 C251.927981,349.816274 252.265744,349.51552 252.590516,349.201777 C257.943754,344.028015 263.01619,338.547503 268.562293,333.592561 C273.001174,329.626809 277.623925,325.618092 282.803286,322.7994 C288.31841,319.797859 294.484078,317.837464 300.546818,316.026947 C309.698387,313.294185 317.889631,316.422623 323.947374,324.378107 C320.116067,329.399995 316.094892,334.318966 312.475436,339.516709 C310.054137,342.993862 306.935329,346.018385 304.410103,349.655406 C302.838208,351.917553 306.159873,354.408513 307.894654,352.270264 C308.174458,351.926546 308.44227,351.576832 308.709082,351.239109 C313.663601,344.973241 318.490209,338.604456 323.300829,332.22668 C325.114554,329.822649 326.749405,327.284727 328.96285,324.092342 C335.945943,323.331964 343.739467,323.121137 351.266178,325.476208 C357.9235,327.560501 359.082685,331.51826 354.714755,336.909844 C339.628356,355.528596 324.739818,374.328199 309.03885,392.418384 C300.865594,401.836671 291.371265,410.161852 282.053812,418.512014 C275.208622,424.647989 266.724584,427.517638 257.482079,427.354772 C237.604047,427.00306 217.811954,425.931937 198.216723,421.816308 C197.393093,421.643294 196.568692,421.474499 195.743566,421.309725 L193.827361,463.148123 L226.883402,484.909306 L292.42876,539.829607 C293.9534,545.657136 301.497211,549.883659 315.060195,552.509176 C335.40467,556.447451 333.370549,608.914038 305.505371,601.404754 C286.928585,596.398565 280.023865,583.994897 284.791211,564.193751 L284.791211,564.193751 L248.213945,529.690152 L203.535865,490.618548 L217.651558,528.569509 L224.58013,531.309196 C232.899855,541.590681 233.667612,551.228934 226.883402,560.223955 C220.099191,569.218976 210.975007,570.542241 199.510849,564.193751 L199.510849,564.193751 L193.827361,551.389349 L195.983846,539.829607 L175.027174,472.410144 L137.83391,507.520618 L80.5832643,552.509176 L85.4997372,560.223955 C85.4426447,581.71846 78.0122024,590.218718 63.2084103,585.724729 C41.002722,578.983746 43.9168822,562.940776 43.9168822,554.155069 C43.9168822,548.29793 50.7673739,543.522776 64.4683573,539.829607 L64.4683573,539.829607 L162.00178,460.800934 L163.779269,416.543863 C163.656909,416.530097 163.534546,416.516362 163.41218,416.502659 C144.554431,414.390389 126.434164,409.796152 109.137318,402.143419 C88.9195248,393.200743 74.9943099,378.554738 68.9205778,356.968417 C68.3319914,354.875131 67.5175636,352.829806 67.0948607,350.704547 C61.9974425,325.085528 56.958983,299.455519 51.8945417,273.830505 C43.701299,232.360468 35.7748687,190.835476 27.2118858,149.442376 C21.1161692,119.975509 14.2509932,90.6685107 7.740568,61.2875731 C6.58837763,56.0898299 5.59507561,50.8521195 4.75566545,45.5954246 C3.21374893,35.9233458 3.50454459,34.2457198 10.7124797,32.1264554 C12.9728913,31.4619996 15.2662798,30.8934652 17.5706606,30.4038662 C60.1597339,21.362271 102.754803,12.3506514 145.337881,3.28707424 C148.210862,2.67557505 150.769064,2.95734428 152.964521,4.95071176 Z" id="Fill-2" fill="#FFF"/>
            <path d="M334.348342,52.5902876 C334.340373,56.62898 336.199067,61.3820873 340.607969,59.5675733 C344.861979,57.817007 347.265291,53.1987892 347.483138,48.7284503 C347.573074,46.8489896 346.956508,44.2461213 344.918939,43.6416163 C340.80583,42.4206163 336.490862,45.3572113 334.933956,49.1031435 C334.554223,50.0173947 334.351365,51.2653726 334.348342,52.5902876 M213.873823,0.1681202 C257.369259,9.33261467 300.853703,18.551065 344.332152,27.7964931 C347.345035,28.4379678 350.358917,29.1763631 353.272869,30.1635546 C359.211696,32.1739081 361.590025,35.3882756 360.877526,41.7051023 C360.04611,49.0850583 358.819971,56.4530241 357.236084,63.7110799 C349.379605,99.7006052 340.873582,135.553243 333.502761,171.639689 C324.75191,214.4836 316.988366,257.528348 308.664215,300.461187 C305.279593,317.914892 301.595182,335.310646 297.930757,352.708397 C297.223254,356.067646 295.994118,359.319982 294.965841,362.608289 C288.759202,382.465027 275.790315,396.426593 257.447204,405.755952 C245.550564,411.806997 232.851487,415.51496 219.985528,418.727329 C213.872823,420.254079 207.699162,421.541025 201.021854,423.055784 L201.021854,461.338431 C201.585458,461.825033 202.69168,463.061021 204.042731,463.908327 C219.82664,473.801225 233.199243,486.731635 247.483206,498.495001 C264.305385,512.347656 281.899023,527.556201 298.580301,541.582713 C298.580301,541.582713 301.408314,541.694621 303.415903,542.115277 C316.741539,544.911987 323.040113,557.464706 318.801092,570.459064 C315.296555,581.199268 305.179664,588.943925 293.97054,589.467497 C279.065014,590.162927 269.367828,576.525096 274.401291,561.900074 C274.989877,560.189475 276.392892,557.151962 277.313245,555.018709 C275.727359,553.352074 272.147875,550.303571 270.244212,548.709876 C263.560908,543.115458 258.496467,539.709247 251.393458,534.696353 C229.466866,519.221027 210.256365,500.727173 191.376631,481.827651 C190.36834,480.819477 189.280104,479.890238 187.714205,478.451416 C186.910769,480.731549 186.246236,482.551059 185.627671,484.386556 C179.714826,501.923193 173.868934,519.481813 167.833175,536.975486 C166.995763,539.403498 167.007755,539.827151 167.215609,540.351721 C168.868447,544.508317 169.824775,552.259969 168.828475,556.588424 C166.361209,567.309643 156.115409,573.607486 145.072169,571.329351 C132.245182,568.683518 123.848082,554.506129 127.725358,542.004368 C129.557071,536.100203 134.666481,530.647669 141.92538,528.951058 C141.92538,528.951058 143.3194,526.847781 144.271731,524.11402 C146.540137,517.603352 149.091344,511.192602 151.492657,504.728896 C152.042271,503.249108 152.448985,501.716363 152.587887,499.993774 C126.772028,520.985582 102.583025,543.645024 78.0392716,566.050674 C78.7467745,569.004255 79.6471418,571.754003 80.0428637,574.576692 C82.1503828,589.639356 73.4075263,602.085163 59.0516139,604.643068 C45.687005,607.026116 31.650868,597.203161 28.6030097,583.335518 C25.3632862,568.593592 33.0988505,555.058677 46.8731715,551.397675 C47.9214349,551.118903 54.1050898,549.350352 57.1609425,549.660098 C57.2504073,549.564966 58.178447,548.587147 61.2810473,545.648383 C88.7557413,519.628693 118.029171,495.792215 148.88349,473.887154 C154.204751,470.110248 159.407096,466.167477 164.735352,462.248686 C163.761036,451.356606 162.798712,440.58243 161.788422,429.278688 C157.511428,429.632398 153.757066,429.998099 149.995709,430.243897 C134.42465,431.258067 118.859588,432.410123 103.274539,433.164505 C93.4814206,433.638117 84.6216463,430.417755 76.9690237,424.365711 C71.9945192,420.430934 67.215877,416.204395 62.6760671,411.774024 C40.4277007,390.066801 21.1652361,365.83165 2.45638252,341.219806 C-2.18335721,335.113807 -0.0288711328,326.084202 7.05415174,323.14361 C9.30956689,322.207377 11.876763,321.723773 14.6977807,321.594879 L17.6633062,321.46023 C22.1133467,321.263514 26.5695295,321.110639 31.0083195,321.274141 C33.1947831,321.354076 34.6617523,320.918432 36.3945347,319.638481 C39.4314008,317.396317 42.6421446,315.227094 46.0867242,313.735315 C51.4679429,311.404224 57.1219699,311.819884 62.5991212,313.74131 C69.0755703,316.015448 75.5000559,318.437464 82.3872164,320.955402 C89.0375433,311.635035 98.0961779,311.607058 107.962245,315.258068 C109.149411,315.696709 110.400532,315.967487 111.632666,316.273237 C111.972427,316.357168 112.350162,316.286226 113.74818,316.286226 C113.827124,316.152336 114.167885,315.250075 114.774458,314.589616 C120.2656,308.603518 126.991873,307.198669 134.641498,309.373887 C137.759307,310.260161 140.873119,311.160424 144.419627,312.177591 C146.020502,300.753947 152.944637,293.951518 163.212422,289.511154 C159.384112,276.825544 159.768842,265.319966 173.563148,258.057914 C169.433051,247.749356 169.223198,238.137229 179.558935,230.582416 C178.109954,228.088458 176.795877,225.771356 175.430836,223.485228 C168.400776,211.714868 167.978073,201.792994 177.924084,192.434658 C178.837442,191.575362 180.596206,190.516229 181.893295,189.517047 C169.880736,172.156266 177.736216,158.119761 189.604876,144.205157 C187.62127,138.942467 183.417224,133.868622 184.497465,127.317987 C185.530739,121.044125 188.391729,115.666529 192.818618,111.092276 C190.844005,108.176663 188.893376,105.393942 187.036681,102.559264 C183.422221,97.0387852 182.684739,90.1164544 185.092047,83.9734854 C187.409419,78.0603281 190.927947,73.02745 195.350839,68.6550309 C185.546728,52.5102531 185.865504,48.1168512 197.761145,33.8515342 C197.706184,33.5128116 197.735163,33.1291258 197.582271,32.8413615 C190.66713,19.8280192 195.890459,5.79251394 209.755717,0.418914804 C210.984853,-0.0576948624 212.565742,-0.107653947 213.873823,0.1681202 Z M53.8862436,554.43019 C41.5838882,554.426195 31.9866321,564.555899 32.0026009,577.888979 C32.5752185,585.916405 36.3105937,593.21143 44.394913,597.800672 C57.4507388,605.212602 72.6330705,597.893596 75.8438143,583.218614 C77.7694612,574.412826 71.8426259,561.419467 63.541459,557.542642 C60.4816091,556.112813 57.1129762,554.431191 53.8862436,554.43019 Z M299.655545,546.474707 C290.595911,546.443732 280.115276,552.960395 277.572063,567.114803 C276.05413,575.563883 281.360401,583.18764 289.781484,584.783333 C302.533523,587.198355 315.631319,576.013515 315.749237,562.608493 C315.828181,553.594875 307.61795,545.900177 299.655545,546.474707 Z M142.490982,533.537302 C137.207695,534.759301 134.115867,537.570999 132.260171,542.106284 C127.788314,553.02734 136.180417,566.303467 148.063067,567.348611 C157.371526,568.16794 164.679391,561.654275 165.016154,550.790172 C164.362614,546.408761 162.57387,540.980207 158.076031,536.943513 C153.606172,532.931798 148.572709,532.130454 142.490982,533.537302 Z M164.586456,467.993981 C128.49082,493.303253 93.6702879,520.467006 61.8886204,551.074939 C69.353375,553.66282 73.7612777,557.951308 76.1166226,561.809148 C77.9313474,560.156502 79.8450027,558.492864 81.6717191,556.737302 C104.69654,534.604428 129.925812,514.874587 152.230139,491.946364 C158.537707,485.463673 165.284965,479.409632 171.815377,473.142764 C172.184117,472.789054 172.416954,472.29346 172.506891,472.163566 C169.878737,470.779699 167.326531,469.434801 164.586456,467.993981 Z M200.179446,466.509197 C196.803818,468.692409 192.180067,471.363221 188.558611,473.704304 C189.188169,474.863355 191.752367,475.900505 193.047457,477.161473 C204.988067,488.794945 216.529956,500.919016 229.216042,511.688196 C245.62751,525.619786 262.982315,538.440287 279.883439,551.702425 C280.481019,549.947862 290.719824,542.490969 293.428921,543.209381 C290.942668,540.977209 288.333501,538.499238 285.586431,536.188131 C262.280808,516.57919 239.012158,496.927285 215.578625,477.471219 C210.489201,473.246679 204.78421,469.759535 200.179446,466.509197 Z M196.609954,427.278326 C186.76687,432.149337 177.402451,436.783541 167.172639,441.846395 C167.81119,448.236162 168.477722,455.260409 169.222199,462.274665 C169.697865,466.746003 170.386381,467.54335 175.036113,467.576323 C179.741807,467.608297 184.452497,467.180647 189.15819,466.908869 C194.027768,466.6271 195.03606,466.226428 195.499734,461.337432 C196.352135,452.335804 196.578976,443.273227 196.958709,434.231631 C197.054641,431.960491 196.741861,429.672365 196.609954,427.278326 Z M207.692167,6.53590512 C205.816485,8.2395099 203.857861,9.9041466 202.262982,11.8545493 C197.291475,17.9345699 197.076626,23.6818629 201.334634,30.3843737 C203.999761,34.581936 203.845869,34.7008386 200.439263,37.9521759 C191.305681,46.6710353 189.716798,55.4198702 198.601554,64.9290823 C198.72147,65.0579768 198.841386,65.1878704 198.959303,65.3187632 C200.720066,67.2731626 200.551184,70.3016823 198.552589,72.0132805 C194.929135,75.1177381 192.305978,78.7717455 190.221443,82.9233454 C186.997708,89.3460853 186.936751,95.4630757 191.359643,101.327273 C193.212341,103.783262 195.227925,106.113353 197.112601,108.545362 C197.171559,108.621299 197.229518,108.697237 197.286478,108.775173 C198.434672,110.337893 198.167859,112.522105 196.6869,113.774079 C192.390918,117.411101 189.847706,122.02732 188.90237,127.516824 C187.903072,133.330063 191.424598,137.686496 194.114707,142.555508 C194.95012,144.066271 194.600366,145.938737 193.319266,147.09579 C188.525635,151.422246 185.240943,156.750882 182.866611,162.76096 C180.360372,169.107762 180.372364,175.074875 183.296309,181.396698 C186.563014,188.457915 187.860102,190.867941 181.142822,196.935972 C174.025823,203.366705 173.61811,211.612951 178.367772,219.906159 C184.729302,231.012064 185.036087,231.63955 197.562285,234.439257 C211.009835,237.443796 224.62227,239.709941 238.151763,242.355774 C239.43686,242.607567 240.822886,242.666519 242.146956,243.095168 C244.24648,243.77661 243.630913,246.911043 241.428461,246.766162 L241.271571,246.75617 C237.660109,246.519364 234.062636,246.092713 230.503138,245.436251 C215.738513,242.712482 200.82799,240.631186 186.549024,235.695228 C182.158109,234.177472 179.93667,234.950838 177.453415,238.775706 C173.993846,244.104342 174.977155,249.512912 177.239565,254.910492 C177.978046,256.67105 178.871418,258.366661 179.49598,259.675589 C179.018315,260.524894 178.967351,260.767695 178.833445,260.827646 C177.695245,261.336229 176.541056,261.816835 175.388866,262.295443 C168.89343,264.994233 164.981179,271.235122 165.359913,278.27036 C165.742644,285.383535 168.172936,290.863047 175.857536,292.902377 C180.575221,294.155351 185.140014,296.008833 189.729788,297.710439 L189.777755,297.727425 C192.322966,298.677647 191.024878,302.539484 188.435698,301.717158 C188.273812,301.6662 188.113924,301.612244 187.955036,301.558288 C182.292015,299.631866 176.398156,298.122102 171.111871,295.433304 C166.434158,293.055252 162.715771,293.812632 159.07433,296.648309 C156.52612,298.631685 153.865989,300.796912 152.151194,303.457732 C148.560717,309.02917 146.924867,314.945324 154.260712,320.482789 C163.995871,327.831771 173.97386,334.714134 184.991118,340.017791 C185.094046,340.06775 185.195974,340.11671 185.298902,340.167668 C187.750179,341.396661 186.07036,345.166574 183.545134,344.098449 C183.10944,343.9136 182.684739,343.709767 182.266033,343.496941 C169.41906,336.996265 157.25261,329.478422 146.882896,319.33373 C145.734703,318.21065 144.51556,316.878741 143.07757,316.39114 C139.154327,315.058232 135.141147,313.908174 131.083998,313.075855 C125.899641,312.011727 120.563391,314.117003 117.386623,318.349536 C116.701105,319.26079 116.029576,320.181036 115.350054,321.099284 C114.199862,321.016352 113.281507,321.064313 112.420113,320.863478 C110.125725,320.329914 107.869311,319.633485 105.575922,319.103919 C102.758902,318.45445 99.9378838,317.536202 97.0858878,317.399315 C91.8385751,317.14852 88.2910678,319.754386 86.3564273,324.685347 C86.8750628,325.127985 87.442664,325.574619 87.966296,326.065217 C95.7738098,333.387221 103.6153,340.672255 111.345868,348.073193 C111.531737,348.251048 111.718606,348.4309 111.903476,348.616748 C113.772163,350.492212 111.105037,353.398832 109.077462,351.695227 C108.728707,351.401468 108.390944,351.100714 108.066172,350.786971 C102.712934,345.613208 97.6404981,340.132696 92.0943953,335.177754 C87.6555144,331.212002 83.0327628,327.203285 77.8534022,324.384594 C72.3382776,321.383052 66.1726101,319.422658 60.1098703,317.61214 C50.958301,314.879378 42.7670568,318.007816 36.7093135,325.963301 C40.5406213,330.985188 44.5617957,335.90416 48.1812524,341.101903 C50.602551,344.579055 53.7213594,347.603578 56.246585,351.240599 C57.8184804,353.502747 54.4968145,355.993707 52.7620335,353.855458 C52.4822301,353.511739 52.2144183,353.162026 51.9476058,352.824302 C46.9930873,346.558434 42.1664789,340.18965 37.3558592,333.811873 C35.5421337,331.407842 33.9072825,328.86992 31.6938378,325.677535 C24.7107447,324.917158 16.9172211,324.70633 9.39051002,327.061402 C2.73318801,329.145695 1.57400255,333.103453 5.94193328,338.495038 C21.0283323,357.113789 35.9168704,375.913393 51.6178375,394.003577 C59.7910943,403.421864 69.2854228,411.747046 78.6028756,420.097207 C85.4480656,426.233182 93.932104,429.102832 103.174609,428.939965 C123.052641,428.588253 142.844734,427.51713 162.439965,423.401501 C173.931889,420.987478 185.573709,419.394782 197.244508,418.087853 C216.102257,415.975583 234.222524,411.381345 251.51937,403.728613 C271.737163,394.785937 285.662378,380.139931 291.73611,358.55361 C292.324697,356.460324 293.139124,354.415 293.561827,352.28974 C298.659245,326.670721 303.697705,301.040712 308.762146,275.415698 C316.955389,233.945661 324.881819,192.420669 333.444802,151.02757 C339.540519,121.560702 346.405695,92.2537041 352.91612,62.8727664 C354.06831,57.6750233 355.061612,52.4373128 355.901023,47.180618 C357.442939,37.5085392 357.152143,35.8309131 349.944208,33.7116488 C347.683797,33.0471929 345.390408,32.4786586 343.086027,31.9890595 C300.496954,22.9474644 257.901885,13.9358447 215.318807,4.8722676 C212.445826,4.26076841 209.887624,4.54253764 207.692167,6.53590512 Z M347.776931,40.1384853 C350.657907,42.1608291 352.043933,45.4621254 351.319442,48.8303669 C350.349124,53.351664 349.637624,56.4501264 346.610751,59.9652476 C344.39131,62.5421372 340.091332,64.4605661 336.470876,64.5115243 C335.584499,64.5235145 334.348367,64.1378304 334.348367,64.1378304 C333.20617,64.487544 331.48338,65.8484294 330.578017,66.4949 C322.172923,72.4939868 318.928203,82.5457547 322.237877,92.3657123 C323.117259,94.9745757 322.300833,96.4024064 320.431147,97.9471413 C314.988971,102.441461 311.213624,108.164773 308.630439,114.683435 C305.807422,121.806601 306.007282,128.41319 311.63133,134.374308 C314.603242,137.524728 314.425367,139.172379 311.077719,142.786419 C306.516924,147.708388 303.371134,153.280824 302.080042,159.89141 C301.101729,164.895312 301.839211,169.13484 306.32306,172.426145 C309.457857,174.72726 309.51082,175.906294 307.221429,179.300515 C302.805532,185.848152 299.685724,192.954332 297.650154,200.544117 C295.725507,207.718241 295.79246,214.478704 301.412511,220.350895 C303.86179,222.910799 303.554006,223.82505 301.247627,226.977468 C298.144807,231.220993 294.856118,235.352609 292.065079,239.793972 C288.146832,246.031863 285.784492,253.036127 285.481705,260.616918 C285.320818,264.617642 286.413051,268.50246 288.068887,272.147475 C289.127143,274.475568 288.52057,277.178355 286.630898,278.914932 C284.049711,281.287989 282.03113,284.456394 280.367299,287.596822 C278.30275,291.491632 278.954292,295.172618 282.324923,298.448935 C285.611614,301.644318 285.458721,302.383712 281.655394,305.074508 C277.107589,308.291873 273.507119,312.287601 271.02986,317.261527 C268.900357,321.536027 268.350743,325.791542 270.818009,330.260881 C272.647723,333.574168 272.417885,334.058771 269.148182,336.473793 C262.757673,341.191929 258.897385,347.063121 259.45999,355.407287 C259.582904,357.223799 258.801453,359.350058 257.80915,360.943753 C255.428823,364.764623 252.57283,368.286739 250.112558,372.061647 C248.775498,374.111968 247.412456,375.230052 244.783303,374.615556 C235.288975,372.395374 228.209949,376.451052 222.382044,383.537249 C221.691529,384.37856 221.057975,385.266833 220.402435,386.13712 C219.083362,387.886687 217.422529,388.024574 215.57183,387.137301 C214.918289,386.823558 214.315712,386.408897 213.677161,386.065179 C203.550277,380.588664 195.573882,382.181359 187.993209,391.161005 C187.645453,391.572668 187.318683,392.009311 187.017894,392.455945 C183.672245,397.424875 183.670246,398.777767 175.537961,395.589379 C168.940597,393.001498 162.145372,392.393996 155.269203,394.468297 C150.370645,395.946086 146.547332,398.678848 144.357871,403.561849 C142.656066,407.35874 141.661765,407.611533 137.511681,406.461475 C133.321626,405.299426 129.187531,403.798655 124.923527,403.061259 C117.812524,401.833265 110.786461,402.22994 104.392953,406.175709 C100.92539,408.315956 98.0184326,410.990765 96.4665231,414.881579 C95.8699423,416.378353 95.4552337,418.428674 93.2258003,417.356552 C91.3281337,416.4433 91.8707524,414.607803 92.5552714,413.054075 C95.8969233,405.481277 102.070585,401.3017 109.767177,399.268366 C117.147991,397.318962 124.526806,397.999405 131.810687,400.132658 C133.821274,400.721176 135.885824,401.126844 137.924391,401.618441 C138.214188,401.114853 138.188206,401.159817 138.477003,400.656229 C133.234687,395.193703 128.029344,389.695206 122.733066,384.284637 C120.32176,381.820655 117.623656,379.630449 115.272309,377.115508 L115.061457,376.887695 C113.17778,374.858357 116.140698,371.945742 118.109315,373.893147 C118.364136,374.14594 118.611962,374.401731 118.859788,374.648529 C125.671002,381.444963 132.40427,388.317334 139.161522,395.166725 C140.033909,396.051001 140.879315,396.962254 141.898599,398.030379 C153.607371,386.12513 167.006955,387.617907 181.208976,392.854618 C186.913967,384.695301 192.631949,378.057737 206.568156,378.365485 C205.363003,377.175459 203.510305,376.190266 202.609938,375.626728 C197.535503,372.44933 192.373131,369.409819 187.309689,366.212438 L186.788056,365.880709 C184.454695,364.400921 186.543228,360.826848 188.956532,362.172746 C189.25732,362.340609 189.550115,362.514466 189.837912,362.678332 C198.984485,367.904052 208.054112,373.264662 215.929578,380.372841 C216.461205,380.854446 217.056786,381.264111 217.930172,381.94855 C225.055166,372.819027 234.045848,367.892062 245.904515,370.149214 C247.827164,366.95383 249.581931,364.037219 251.413644,360.990714 C248.992346,358.684603 245.355901,359.068289 242.398979,357.412645 C240.982974,356.619294 241.363706,354.481045 242.96558,354.218261 C247.177621,353.526827 250.914995,356.242603 255.083066,356.597312 C254.272635,346.319729 258.692529,338.644016 266.697904,332.768827 C261.362653,319.776468 268.633544,311.192498 277.242495,302.474638 C274.467445,301.51942 271.996181,300.748052 269.584876,299.817813 C267.047658,298.837616 264.535424,297.780482 262.081148,296.612439 C260.673138,295.942987 258.650559,295.29152 259.499962,293.160266 C260.384341,290.936087 262.230044,292.036186 263.695014,292.584737 C265.560703,293.284164 267.350446,294.183428 269.201145,294.92582 C270.865975,295.594272 272.567779,296.166804 275.012062,297.059073 C274.010766,287.690745 277.625226,280.557587 284.140647,274.858255 C283.365192,272.285362 282.583741,270.070176 282.036126,267.797038 C280.506201,261.440244 281.136758,255.188364 283.147345,249.024412 C285.596624,241.514563 289.446919,234.770086 294.287517,228.563169 C295.506661,227.000449 296.734798,225.444723 297.85601,224.015894 C297.760077,223.431372 297.823033,222.979742 297.62817,222.761921 C291.516465,215.950499 291.047794,207.989019 293.424124,199.756761 C295.174894,193.691728 297.647157,187.834525 299.997505,181.335848 C298.460585,181.038092 296.796754,180.541498 295.104943,180.414602 C270.81701,178.600088 248.425744,170.337855 226.545119,160.33105 C224.070857,159.198977 221.589601,158.052916 219.249246,156.678042 C218.480786,156.226412 218.149019,155.028393 217.617392,154.172094 C218.668654,153.730456 219.765883,152.850177 220.760184,152.953093 C222.137216,153.095976 223.490265,153.879334 224.762372,154.559777 C244.855253,165.331955 266.599973,170.848437 288.863329,174.691289 C293.229261,175.444672 297.592195,176.829538 302.676622,175.465655 C295.523649,168.571302 296.426015,160.712738 299.635759,153.083985 C301.848205,147.824293 305.34175,143.10216 308.538503,137.672607 C308.641431,138.062288 308.65742,137.625645 308.447567,137.401829 C301.141701,129.58523 301.009794,120.742472 305.243819,111.637929 C307.51822,106.747934 310.657015,102.25861 313.498018,97.4315635 C313.375105,97.3316453 313.024351,96.8070749 312.593654,96.730138 C293.442111,93.3199308 274.813202,87.8424168 256.231259,82.2539936 C245.124064,78.9137292 234.19974,74.9579689 223.220455,71.2000466 C221.526645,70.6205212 219.842828,69.7931987 218.424825,68.7230751 C217.816253,68.2644507 217.629384,66.8436144 217.787273,65.9553419 C217.857224,65.565661 219.25724,65.3548337 220.077663,65.1869711 C220.373456,65.1270202 220.744195,65.4297723 221.07896,65.5706569 C242.898628,74.7121702 265.703603,80.7452293 288.495587,86.7782883 C296.728802,88.9575036 305.108913,90.5791755 313.431065,92.4156714 C314.451349,92.6404873 315.525594,92.6175061 316.990564,92.7454014 C314.06562,78.7098962 319.873538,68.6381447 330.847827,60.6147157 C330.027403,55.589831 328.991132,50.1682711 332.122931,45.7698733 C333.676839,43.5886597 335.436603,41.6552431 337.562109,40.0555532 C340.731882,37.6685082 344.792029,38.0442005 347.776931,40.1384853 Z M201.698278,195.303309 C210.29224,198.084031 218.906187,200.801805 227.490155,203.613503 C229.064049,204.12908 230.575986,204.831505 232.099916,205.499958 C232.737468,205.779729 233.114203,206.445184 233.012275,207.13362 C232.953316,207.533293 232.638537,207.847036 232.237819,207.900991 C230.762855,208.098829 229.223937,208.510492 227.924849,208.121811 C218.583413,205.319106 209.284947,202.360529 200.041443,199.24508 C198.199737,198.624589 194.947022,197.847225 196.111204,195.163423 C197.32735,192.357721 199.779627,194.682817 201.698278,195.303309 Z M220.686336,118.438259 C236.215424,124.608206 252.208186,128.994614 268.800527,131.116876 C269.87677,131.254763 271.064935,131.190815 271.990285,131.647441 C272.995579,132.144035 273.755045,133.13922 274.620437,133.916583 C273.666108,134.523086 272.733763,135.167559 271.742459,135.709115 C271.473648,135.856994 271.033957,135.694127 270.672211,135.675143 C270.633239,135.860991 270.594266,136.047838 270.555294,136.233685 C260.662245,134.132406 250.710238,132.268932 240.897134,129.842919 C234.774436,128.329159 228.855595,125.98308 222.85781,123.973726 C221.488772,123.515102 220.12473,122.998525 218.839633,122.348057 C217.29372,121.564699 214.997333,120.866271 216.05459,118.556163 C217.219772,116.00825 219.175397,117.837751 220.686336,118.438259 Z" id="Stroke" fill="#000" transform="translate(180.500000, 302.500000) scale(-1, 1) translate(-180.500000, -302.500000)"/>
        </g>
    </g>
</svg>
