<svg viewBox="9.613 144.15 636.855 636.663" xmlns="http://www.w3.org/2000/svg" overflow="visible">
    <g id="Master/Character/Sitting On Chair" stroke="none" stroke-width="1" fill="none" fill-rule="evenodd">
        <g id="Head" transform="translate(66.000000, 125.000000) scale(1 1)">
            <g id="Head/Bun" stroke="none" stroke-width="1" fill="none" fill-rule="evenodd">
                <path d="M166.042028,93.4929922 C152.038102,90.2889935 138.645219,90.2889935 125.863378,93.4929922 C106.690616,98.2989901 105.478339,103.088865 89.845308,124.028616 C83.3386064,129.380158 77.5050063,127.744316 76.1799874,134.355897 C74.8549685,140.967478 81.7937147,150.761559 98.591512,150.664369 C100.765501,153.425833 103.06111,170.784789 105.478339,202.741239 L129.649443,204.581187 L126.999923,176.320518 C151.653543,178.614363 166.812971,171.443045 172.478207,154.806564 C180.367155,131.639952 178.221762,111.202095 166.042028,93.4929922 Z" id="Fill" fill="#FFF"/>
                <path d="M82.0086,21.0525 C93.5686,21.7835 103.1436,29.7845 105.1316,41.2615 C106.4566,48.9125 105.0026,56.0775 101.1606,62.7825 C100.2696,64.3375 99.2976,65.8455 98.0736,67.8495 C99.6706,67.8495 100.8376,67.9965 101.9556,67.8275 C116.9426,65.5625 131.2866,67.8705 145.0286,74.0345 C151.707732,77.0301111 157.397364,81.2494825 162.061601,86.6797282 C164.243935,88.4063144 168.072734,92.3708898 169.436123,94.1952343 C176.225123,103.278234 180.224123,113.457234 180.628123,124.914234 C180.891123,132.374234 180.730123,139.767234 178.867123,147.086234 C174.625123,163.767234 162.295123,171.602234 147.038123,175.766234 C141.958123,177.152234 136.370123,176.674234 130.589123,177.079234 C130.687123,178.247234 130.760123,179.823234 130.960123,181.381234 C131.788123,187.833234 132.658123,194.280234 133.510123,200.729234 C133.547123,201.016234 133.572123,201.304234 133.584123,201.593234 C133.650123,203.209234 133.662123,205.044234 131.542123,205.0107 C130.733123,204.997234 129.453123,203.192234 129.250123,202.052234 C128.423123,197.409234 127.621123,190.949234 127.170123,186.253234 C126.347123,182.392234 126.789123,182.069234 125.415123,180.625234 C124.938123,180.124234 123.641123,178.595234 123.277123,178.007234 C120.670123,173.787234 119.899123,173.326234 117.896123,168.941234 C117.848123,168.724234 117.833123,168.499234 117.841123,168.269234 C117.902123,166.620234 119.408123,165.444234 121.028123,165.758234 C121.526123,165.854234 121.966123,166.012234 122.280123,166.305234 C130.748123,174.220234 140.494123,173.792234 150.318123,170.231234 C164.462123,165.104234 174.028123,155.821234 175.737123,139.967234 C177.067123,127.639234 176.641123,115.580234 170.493123,104.473234 C169.40913,102.514091 168.268427,100.716039 166.936794,98.9498766 C166.238791,99.535816 165.284582,100.215684 164.0526,101.0975 C151.0166,110.4285 136.6126,116.7705 121.0016,120.1425 C113.2156,121.8245 105.2326,122.6145 97.3236,123.6985 C96.5160747,123.809377 95.6749707,123.857966 94.8411669,123.827528 C94.6165611,123.998899 94.3824062,124.131534 94.1610232,124.202334 C91.7770232,124.961334 89.7240232,125.154334 87.4560232,126.132334 C85.5210232,126.966334 83.7130232,128.428334 82.2630232,129.995334 C77.6800232,134.952334 78.7490232,140.713334 85.0590232,143.026334 C89.0680232,144.496334 93.5220232,144.874334 97.8180232,145.407334 C102.797023,146.024334 103.657023,146.449334 104.137023,151.095334 C105.686023,166.096334 107.126023,181.108334 108.551023,196.121334 C108.739023,198.100334 108.743023,200.127334 108.527023,202.098334 C108.456023,202.749334 107.455023,203.723334 106.818023,203.773334 C106.135023,203.826334 104.993023,203.116334 104.743023,202.470334 C104.302023,201.330334 104.371023,199.988334 104.250023,198.729334 L103.131841,187.058783 C102.794787,187.788414 102.428953,188.501456 102.0286,189.190264 C99.2046,194.052264 96.4816,199.057264 93.0116,203.445264 C77.8306,222.639264 65.1153081,226.704403 43.3693081,238.078403 C35.7073081,242.086403 21.8112055,246.341403 13.0062055,245.650403 C9.95620552,245.411403 6.78820552,245.072403 3.94920552,244.031403 C-9.26579448,239.184403 -20.9884,225.8925 -26.1214,212.9965 C-30.8374,201.1445 -26.3904,187.1535 -15.9634,178.7265 C-8.5864,172.7655 0.0906,169.6255 9.1846,167.4765 C15.5436,165.9735 21.9976,164.8185 28.2746,163.0355 C45.9366,158.0195 55.3056,146.7555 57.3556,128.4065 C58.0816,121.9095 58.4796,115.3745 59.2986,108.8905 C60.4807333,99.5361 63.7107244,90.9876496 69.8065267,83.6835719 L70.1509371,83.2755254 L70.2139459,83.1875 C57.3409459,82.6525 44.1686,68.3545 47.5346,49.3005 C50.6416,31.7155 67.1646,20.1145 82.0086,21.0525 Z" id="Stroke" fill="#000"/>
            </g>
        </g>
        <g id="Bottom/Sitting On Chair" transform="translate(89.000000, 467.000000) scale(1 1)">
            <g id="Bottom/Sitting On Chair/Skirt" stroke="none" stroke-width="1" fill="none" fill-rule="evenodd">
                <path d="M47.6691401,54.3383571 C36.6741548,132.698254 79.9989226,177.719586 177.643443,189.402355 C223.565882,189.402355 243.069064,166.142052 278.916296,143.833185 C289.243907,137.405985 304.272639,128.524062 324.002491,117.187415 C325.669239,148.22671 324.529192,185.999503 320.58235,230.505794 C316.635508,275.012084 313.713748,301.498686 311.817069,309.965598 L420.963563,312 C432.468924,294.162982 428.507884,281.527882 409.080442,274.094699 C395.131347,273.40179 380.630985,273.055335 365.579357,273.055335 L388.156799,176.384044 C418.780205,204.153877 438.638447,226.316761 447.731526,242.872696 C450.391879,242.093067 482.497046,235.021298 544.047027,221.657389 C559.812373,193.441946 552.138736,180.612542 521.026118,183.169179 C489.913499,185.725815 471.070924,187.80354 464.498392,189.402355 L400.056891,57.5143168 C379.990564,33.4634804 358.131167,21.9822699 334.4787,23.0706851 C310.826233,24.1591004 270.134429,31.6271957 212.403286,45.4749711 L172.707918,42.9248604 L157.033783,31.8326301 L47.6691401,54.3383571 Z" id="Fill" fill="#FFF"/>
                <path d="M396.78441,51.6053462 C403.123255,58.4184359 408.145962,66.7869159 412.414164,75.1393815 C422.007874,93.912161 430.871063,113.06428 439.811202,132.164352 C447.903896,149.455807 455.701784,166.885386 463.642578,184.245903 C464.163237,185.383921 464.797821,186.469891 465.707224,188.206443 C474.811256,187.353681 484.01822,186.639042 493.188208,185.598112 C505.986817,184.144813 518.664505,181.249225 531.637001,181.972872 C535.930186,182.212086 540.323306,182.979772 544.392638,184.339987 C550.016951,186.221669 553.125912,190.592576 553.821456,196.585933 C554.492017,202.356091 553.206859,207.778938 551.08625,213.083679 C546.686134,224.088516 546.743097,224.38378 535.215654,226.177383 C514.18844,229.450308 493.529984,234.286631 473.012435,239.841596 C466.356799,241.644207 459.558256,242.917345 452.910614,244.743978 C449.5768,245.659797 447.251324,244.740975 445.288611,242.189695 C441.076372,236.714801 436.575323,231.43308 432.741837,225.702959 C425.901321,215.479821 416.971176,207.18841 408.508724,198.46161 C403.448042,193.242945 398.136524,188.268499 392.923941,183.198968 C392.060507,182.359217 391.127119,181.591531 390.161752,180.733764 C386.548121,188.107355 370.049938,258.353142 368.582899,272.575855 C370.789453,272.443737 372.910063,272.260573 375.03467,272.197517 C384.458491,271.914263 393.888309,271.327739 403.303137,271.515907 C410.531398,271.660036 417.131071,274.374462 422.799355,279.028622 C428.132858,283.406535 430.896047,289.019552 429.393032,295.87468 C428.316738,300.783067 426.313051,305.495279 424.63715,310.264542 C423.582841,313.265224 421.351304,314.01089 418.237346,314 C390.802332,313.902794 363.367319,314.008888 335.931306,313.946833 C329.397589,313.93282 322.862874,313.557485 316.332155,313.274232 C310.809776,313.034017 309.829418,312.462506 310.077256,306.78343 C310.520965,296.625351 311.479337,286.481284 312.490674,276.359236 C313.338118,267.878656 314.812152,259.460132 315.578649,250.974547 C317.80419,226.341529 320.080698,201.70651 321.813562,177.034458 C322.95981,160.714871 323.230633,144.332228 323.819247,127.974607 C323.888201,126.056893 323.485466,124.123164 323.182664,120.950328 C314.41841,125.71859 306.466623,129.386869 299.21138,134.125104 C282.636246,144.94978 266.299957,156.151792 250.0646,167.483921 L247.412871,169.339763 C237.250051,176.457444 227.053127,183.501998 214.795723,186.514931 C207.247671,188.371591 199.48576,189.47758 191.758826,190.430431 C186.378353,191.094024 180.894948,190.979922 175.456514,191.115043 C152.724417,191.677546 131.870089,184.374018 111.449477,175.50409 C100.424705,170.714809 90.1634322,164.498252 80.4298136,157.426932 C70.5602841,150.255522 62.8373473,141.24647 56.9262227,130.558917 C44.3604608,107.838609 39.8983862,83.5949393 42.900418,57.8869609 C43.0473217,56.6298373 43.0673086,55.2065651 43.6918991,54.200666 C44.1086009,53.530062 44.9498187,53.1242103 45.7577246,52.6971547 C46.3222238,51.9692864 46.8281335,50.9863308 47.5217883,50.8281516 C49.9881713,50.2646479 52.5444953,50.1075074 55.0588469,49.7461845 C75.1616675,46.8566017 95.3634231,44.5135074 115.325336,40.8552376 C127.756186,38.5772014 139.855254,34.4224878 152.038267,30.8823235 C158.985712,28.8635191 158.883779,28.6903643 163.129995,34.2173044 C164.448131,35.9318369 166.118036,37.3721243 167.524114,39.0266031 C167.638705,39.1611335 167.748248,39.3000043 167.853076,39.4410449 L167.806529,39.4344676 C172.654351,40.105067 177.456203,41.1269804 182.267049,42.0628169 C202.164004,45.9302737 221.672215,43.5901821 241.00554,38.395539 C251.524643,35.5690126 262.098711,32.9326562 272.559853,29.9009464 C291.907168,24.2949356 311.833105,23.0818513 331.739054,21.2872472 C359.442892,18.7910161 379.351839,32.8706007 396.78441,51.6053462 Z M314.659252,303.10214 L314.302486,308.437909 C320.100685,309.583933 412.149337,310.887098 419.815311,309.924238 C420.421914,309.84817 420.562821,306.963591 421.142441,306.674333 C384.361555,304.13206 349.949116,304.382284 314.659252,303.10214 Z M317.495393,273.372567 C316.557008,282.039313 315.691575,290.045469 314.786169,298.411948 C351.202294,299.915291 386.022466,301.351575 422.417605,302.853918 C422.417605,302.853918 424.525223,297.123796 424.864001,294.458414 C425.372668,290.453834 424.269391,286.863625 421.349306,283.991058 C415.156366,277.898612 407.565342,275.745688 399.796436,275.695643 C396.013916,281.561887 392.801022,286.834599 389.270337,291.885114 C387.737342,294.079075 385.672695,295.955752 383.626037,297.717327 C380.550054,300.364693 376.462733,298.972449 375.608294,294.993892 C375.288503,293.502559 375.451396,291.949171 375.725217,290.447829 C376.234883,287.657335 377.126298,284.936903 378.360489,282.383621 C379.540715,279.945442 381.548399,278.190874 382.791584,275.843776 C381.30256,275.983901 378.377478,276.068977 378.377478,276.068977 C377.808851,276.567422 376.202904,279.819329 375.700233,280.436881 C371.233162,285.922784 365.947627,293.781809 359.477869,296.967657 C356.388894,298.489016 352.188648,297.550177 351.830882,293.591639 C351.54407,290.406792 352.82523,287.15989 354.25929,284.38541 C355.183684,282.598813 357.677049,277.712446 360.029507,277.464224 C345.652932,278.979578 330.706731,278.454109 317.495393,273.372567 Z M386.96285,275.843776 C385.17802,278.347013 383.322236,281.123495 381.932148,283.853935 C380.859851,285.960818 379.865503,289.436925 380.181296,292.800932 C380.254248,293.576626 381.171646,293.925938 381.729281,293.384454 C387.061785,288.204824 390.487539,281.351699 394.156134,275.498467 L394.112995,275.494171 C393.560869,275.440028 387.879224,274.90789 386.96285,275.843776 Z M370.470662,277.464224 C363.314354,277.885601 356.727672,285.343266 357.164385,292.52969 C361.986224,290.073494 368.769777,282.394631 370.470662,277.464224 Z M324.60673,252.440858 C322.824899,252.546952 320.402487,252.584986 320.402487,252.584986 C319.562038,255.630709 319.121327,258.765511 318.736579,261.896309 C318.677618,262.376738 317.69826,269.019676 317.874144,269.078729 C324.472818,271.311725 331.305339,273.140359 338.229799,274.005132 C345.075311,274.859896 352.086714,274.244346 358.887256,273.278483 C360.439238,273.057285 361.925264,272.355658 363.373315,271.898249 C364.544547,266.365304 364.947283,264.55969 366.014583,259.400078 C366.120514,258.88762 367.029918,255.25137 367.375691,253.680966 C367.464633,253.268597 359.324969,252.783164 358.609438,252.750134 C352.699313,252.472886 346.779194,252.263699 340.863073,252.166612 C335.443626,252.077533 330.018183,252.11957 324.60673,252.440858 Z M321.371851,242.476952 L321.365845,242.526976 C321.242794,243.52519 320.897221,246.449326 320.770246,248.608432 C336.564891,246.589628 352.899182,246.8949 368.030262,248.875671 L368.70482,245.86498 C359.177066,244.729965 346.441416,242.944369 336.881683,242.18469 C331.751047,241.777326 326.543461,242.347836 321.371851,242.476952 Z M316.687023,108.45516 C312.030076,109.93248 307.151274,110.812267 302.638233,112.624887 C293.059932,116.473838 283.872833,121.004935 275.234823,126.480607 C264.168248,135.844123 252.887332,145.094889 240.873626,154.481299 C239.777345,155.338065 235.930867,157.839301 235.930867,157.839301 C234.67469,162.121128 231.498772,173.730504 230.664319,174.210934 C233.05775,172.757635 241.150445,167.982367 242.573512,166.966459 C250.399381,161.379465 252.943713,159.395692 260.812554,153.870753 C278.810754,141.229454 297.043801,128.959487 316.875799,119.294849 C318.017051,118.738351 319.117329,118.078762 320.292559,117.60734 C324.810597,115.795721 327.134073,116.994793 328.062465,121.912188 C328.564136,124.570564 328.771,127.339039 328.697049,130.046459 C328.382255,141.495692 328.245345,152.964944 327.430879,164.38315 C325.778962,187.593896 323.725308,210.776617 321.857533,233.973351 C321.760596,235.165416 321.753601,237.866831 321.753601,237.866831 C338.046919,235.994157 353.809585,239.400202 369.429345,241.231839 C374.194956,222.090635 378.80732,203.439462 383.488277,184.863245 C382.900553,184.363731 382.367478,183.718359 381.859295,183.14592 C364.313798,163.361236 349.100772,141.905058 335.939401,118.970559 C334.860108,117.090879 333.674885,115.202191 332.204849,113.630786 C328.006601,109.144776 323.162777,106.400323 316.687023,108.45516 Z M546.919981,211.411184 C512.532526,216.068347 478.351935,225.06639 446.336924,236.364488 C447.546131,239.828584 450.310319,240.847495 453.423278,239.943687 C457.595542,238.730603 461.921706,238.060004 466.126949,236.951012 C489.27977,230.842553 512.431592,224.647015 536.240982,221.720399 C541.471553,221.077825 543.720079,221.081828 545.104172,216.509742 C545.104172,216.509742 546.492261,212.984591 546.919981,211.411184 Z M518.164833,186.942313 C517.308395,189.519617 516.529905,191.918762 515.712441,194.302893 C514.888981,196.710044 514.083509,199.125203 513.16711,201.496322 C511.775022,205.100544 509.957214,208.45254 506.710343,210.751595 C501.501757,214.439891 496.253198,212.433098 495.570646,206.121456 C495.168909,202.401131 495.931409,198.55169 496.215223,194.764305 C496.330148,193.222927 496.558998,191.691558 496.785849,189.721798 C492.83344,190.244265 489.497627,190.684658 486.145825,191.128055 C485.315369,194.117727 484.681785,196.766094 483.838338,199.346401 C482.713075,202.790479 481.675755,206.300616 480.131768,209.559529 C478.759667,212.45812 476.418202,214.68411 472.794578,214.030526 C469.373821,213.414975 467.211238,210.92575 466.782519,207.726891 C465.834141,200.774677 466.465727,201.015893 466.543676,197.409669 C466.571658,196.136531 466.983388,194.37796 467.088319,192.665429 C464.321133,196.250633 463.247837,199.015104 459.726146,202.304044 C455.96661,205.814182 448.406567,209.852791 443.3219,210.711559 C438.664953,211.497261 433.886086,211.568325 428.615542,211.99971 C433.763167,219.149101 438.613987,225.88312 443.50478,232.676191 C445.10673,232.196763 446.299948,231.844448 447.491167,231.479122 C462.756159,226.799939 477.862256,221.479183 493.331114,217.611727 C510.20805,213.392956 527.424762,210.54541 544.475584,207.010251 C545.913641,206.711984 548.281089,206.512806 548.281089,206.512806 C552.040624,196.384753 547.883349,189.639725 540.433234,187.593896 C533.150009,185.593108 525.75086,185.852339 518.164833,186.942313 Z M480.798331,191.642515 C477.766318,191.819673 475.493808,191.952792 473.413172,192.074901 C470.578031,198.842951 470.185289,203.835413 472.381849,207.373575 C473.18732,208.670735 475.11006,208.6317 475.90254,207.326533 C478.718694,202.690389 479.346283,197.308579 480.798331,191.642515 Z M513.008214,187.375701 C508.714029,187.997256 505.734982,188.42664 502.399169,188.910072 C501.475774,194.55712 498.918451,199.967956 500.682295,206.095433 C501.060047,207.404603 502.706967,207.879027 503.732295,206.981225 C509.64342,201.809602 510.194059,194.482053 513.008214,187.375701 Z M447.014479,159.658927 C430.23448,165.719344 414.257955,172.87474 398.033591,182.269137 C406.254202,189.859921 411.881513,195.103608 419.387592,201.955733 C421.062494,203.714305 423.837674,206.874129 424.83602,207.285497 C433.597276,207.049286 452.294018,205.536934 459.718151,194.147754 C460.331749,193.207914 461.406044,191.505392 461.53496,190.606589 C461.682863,189.585676 460.346739,186.50192 460.346739,186.50192 C456.554225,178.441715 452.918609,171.884855 449.257009,163.762595 C448.67639,162.476445 447.906894,161.277374 447.014479,159.658927 Z M223.280798,46.7572507 L222.681506,46.8559762 C219.098152,47.4292385 215.488769,47.8760129 211.844658,48.1542616 C211.024426,48.2168893 210.205245,48.2689922 209.387068,48.3110245 C209.390748,48.3161687 209.393904,48.3225919 209.397062,48.3290178 C208.388723,50.8272508 207.413363,53.1383165 206.51795,55.4814108 C201.797045,67.8534692 197.449895,80.3826681 192.31726,92.5805708 C178.908051,124.451057 160.181328,153.108672 138.61147,179.976687 C138.399089,180.241471 138.183837,180.547761 137.960002,180.860309 C147.461999,183.6373 157.260464,185.639803 167.338836,186.872251 C170.824104,187.298205 174.35804,187.330084 177.914241,187.17747 C178.205984,185.782329 179.328868,184.20326 179.761392,183.266528 C198.748943,142.120751 211.097847,98.8240514 221.375109,54.8507471 C221.912757,52.5506912 222.374454,50.2326193 222.904107,47.9295607 C222.99777,47.5216403 223.119331,47.1176006 223.280798,46.7572507 Z M262.368534,37.2034735 C259.646319,37.9261194 256.675267,38.8149139 254.463716,39.4164515 C245.700087,41.801083 236.936848,44.1833686 228.038102,45.9064712 L227.88784,45.9357787 L227.88784,45.9357787 C226.31687,52.5677064 224.506057,60.7410119 223.077993,66.752385 C215.802763,97.3817622 207.070488,127.574749 195.676957,156.939997 C191.99637,166.423473 187.807117,175.711775 183.770763,185.054126 C183.563966,185.532629 183.309635,186.18756 182.993161,186.85716 C187.367472,186.514003 191.757195,186.042768 196.112971,185.829319 C198.46443,185.713215 200.800898,185.283831 203.152356,185.095663 C205.939529,184.872463 210.659435,183.679397 212.808026,182.37323 C212.808026,182.37323 214.066201,180.152244 215.195461,177.917247 C218.383371,171.617616 222.38075,161.480555 224.343463,154.779566 C227.863156,142.761824 230.079703,134.353308 232.772937,122.105361 C235.233324,110.918362 237.02415,99.5762237 239.72338,88.45128 C244.191451,65.8340642 254.68657,48.1952983 260.677643,39.7137172 C260.989438,39.3043513 261.853871,38.4315712 262.368534,37.2034735 Z M442.20863,148.621061 C424.140476,155.506215 408.195929,164.992694 391.228053,175.383982 C392.788031,176.878318 394.768732,179.329509 395.004577,179.555711 C417.082103,167.499935 428.615542,161.386471 444.970819,154.692488 C444.255288,153.121083 443.38286,151.203369 442.20863,148.621061 Z M197.000087,48.2321092 L197.299493,47.5900573 C196.421069,49.4527222 195.619595,51.2643415 194.72718,53.0309205 C183.824328,74.6012005 169.408779,93.6362144 153.080484,111.34204 C136.30748,129.531298 118.146387,146.224219 99.3367182,162.240534 C98.8936534,162.618034 98.4243387,163.121158 97.92947,163.537583 C109.211037,170.183313 121.042083,175.487404 133.38655,179.458047 C133.839651,178.665415 134.615679,177.91326 135.165729,177.251251 C148.303116,161.4191 159.554739,144.276778 170.1388,126.686055 C183.871797,103.860653 193.747322,79.3037037 202.244751,54.1412129 C202.894058,52.216833 203.578258,50.2795093 204.443366,48.446337 C201.955185,48.4560722 199.474012,48.3803828 197.000087,48.2321092 Z M316.266198,26.9352956 C304.12316,27.9552072 292.018096,29.6327066 280.154873,32.4642375 C274.015898,33.9285463 267.195369,35.7601835 267.195369,35.7601835 C265.823269,39.0210982 260.807557,45.4408363 259.451446,47.7859324 C256.006705,53.7382527 253.368434,58.1171667 250.610243,64.9843047 C245.135832,77.0200625 243.851674,91.7312117 242.572512,104.85294 C241.164435,119.303857 241.593154,133.941941 238.342286,148.212696 C237.979523,149.835146 237.772659,151.244406 237.772659,151.244406 C239.040828,150.311572 241.090484,148.444904 242.023872,147.652195 C266.671713,126.731496 291.300566,105.787776 315.962398,84.8830906 C317.137627,83.8851987 319.007401,82.3218013 319.007401,82.3218013 C319.007401,82.3218013 319.138316,79.64641 318.890478,78.3822801 C318.571687,76.7538245 318.561694,74.8761462 320.904158,74.7180049 C323.135695,74.5668698 323.228634,76.4605624 323.739299,78.0239598 C324.406861,80.0707893 325.011465,82.2457333 326.185695,84.0023034 C336.072214,98.8065357 345.863794,113.682833 356.12007,128.228834 C365.326035,141.285504 375.068647,153.962836 384.615389,166.776289 C385.777627,168.337684 387.189701,169.711913 388.267994,170.926999 C405.679579,161.657714 422.591491,152.653666 439.78322,143.501485 C435.274176,133.609644 430.835087,123.263396 425.890329,113.164369 L422.920414,107.096489 C416.481928,93.9490562 409.99375,80.8146542 402.952367,67.9929939 C392.495222,48.9499728 371.584931,31.1190351 350.075033,26.2957239 C339.239137,23.8665527 327.209024,26.0154734 316.266198,26.9352956 Z M186.610508,47.2131241 C185.943938,48.4525282 183.781356,51.4141754 182.691071,52.3540154 C173.340201,60.4132189 164.409057,69.0519404 154.485562,76.3344497 C127.93297,95.821868 99.5785597,112.399686 69.8580445,126.601379 C67.4156458,127.768423 64.8563237,128.690246 62.1161202,129.823259 C61.8951629,129.671764 61.6468313,129.531068 61.3959724,129.393665 L61.7580549,130.037451 L61.7580549,130.037451 C66.6688354,138.687182 72.9437215,146.199897 80.8965077,152.168232 C85.2569401,155.440402 89.7114776,158.489255 94.2577207,161.315359 C94.6267895,160.293796 95.8199314,159.454231 96.6994472,158.663337 C106.82281,149.562202 117.324925,140.849415 127.012574,131.305884 C138.512035,119.979761 149.514821,108.125165 160.369705,96.1704796 C173.017413,82.2430309 182.824983,66.3218001 191.46232,49.6579056 C191.768394,49.0674307 192.065325,48.4588552 192.389792,47.8724508 C190.45988,47.6912751 188.533529,47.4688548 186.610508,47.2131241 Z M166.239273,43.4971115 L165.032793,44.2534598 C161.370083,46.5515439 157.856816,48.7611222 154.310777,50.9172312 C123.385052,69.7240411 91.0182718,85.6452719 57.5122385,99.2714513 C55.1657768,100.226305 52.7333715,100.986985 50.3059629,101.718639 C50.2180042,101.745111 50.1292391,101.771186 50.0399383,101.796457 C52.3319412,110.402464 55.6854542,118.729862 59.9799737,126.803297 C60.2242773,126.278695 60.6069964,125.776064 60.9888592,125.536428 C62.3459695,124.686668 64.0358616,124.394407 65.5009011,123.687775 C101.410359,106.365292 135.837788,86.6246473 166.624604,61.0237646 C171.365496,57.0802398 175.726637,52.6773044 180.256667,48.4805532 C180.916019,47.8705323 181.476809,47.0732944 182.176171,46.5655252 C177.108539,45.7650532 172.060547,44.7647087 167.021044,43.6802626 C166.770179,43.6262565 166.503747,43.5676494 166.239273,43.4971115 Z M157.285827,33.9730861 C152.563922,35.4574129 148.094852,36.8606671 143.625782,38.267925 C123.484987,44.6176004 102.855511,48.5491145 81.8962522,50.909224 C71.8018701,52.0452394 61.7294736,53.3824347 51.6440857,54.6095315 C50.3909072,54.7616674 49.062778,55.0619358 47.8815524,54.7936961 C47.8157097,54.7787466 47.7509297,54.7591079 47.6870958,54.7352945 C47.7433683,54.9542031 47.7714852,55.1721279 47.7592326,55.387727 C47.4364442,61.0047476 46.5969946,66.6017504 46.4790719,72.2177701 C46.2962128,80.909484 47.165559,89.3321857 48.9883484,97.5058505 L48.9578468,97.5178839 C80.9238897,85.8414473 111.174058,70.5367676 140.732679,53.7978059 C146.731746,50.4007696 152.527946,46.6444121 158.395099,43.0171699 C159.605306,42.2685008 160.715578,41.3576867 162.110663,40.3497858 C160.46774,38.1788453 158.962727,36.1890668 157.285827,33.9730861 Z" id="Stroke" fill="#000"/>
            </g>
        </g>
        <g id="Body" transform="translate(-101.000000, 239.000000) scale(1 1)">
            <g id="Body/Puffy Top" stroke="none" stroke-width="1" fill="none" fill-rule="evenodd">
                <path d="M410.833588,128.65121 C412.500429,128.471187 413.928579,128.301165 415.358726,128.165147 C431.169244,126.654952 442.995922,133.344817 449.556423,147.859695 C454.086554,157.878991 454.680784,168.188324 450.725908,178.600671 C450.339408,179.617803 449.932935,180.629934 449.607357,181.667068 C449.509484,181.980108 449.652299,182.369159 449.717215,183.07825 C464.366237,187.876871 472.787327,197.413104 471.128476,213.782222 C487.580163,223.935535 495.163339,237.750322 489.779314,257.626893 C491.436167,257.772912 492.967184,257.878926 494.493207,258.047947 C503.479565,259.043076 510.135942,263.427643 514.132764,271.648707 C517.212774,277.983526 516.805302,283.929295 512.135351,289.399003 C511.437256,290.215108 510.80108,291.084221 509.943191,292.172361 C510.915931,292.69943 511.635998,293.226498 512.440956,293.506534 C525.140503,297.913104 532.076518,311.016799 528.498153,323.976475 C525.25136,335.740997 517.141865,342.123822 505.577847,344.717158 C501.60799,345.607273 499.726427,348.617662 500.938857,352.139118 C501.400259,353.481291 502.259146,354.739454 503.145997,355.872601 C506.94907,360.73623 510.955879,365.443839 514.641105,370.392479 C517.435485,374.143964 520.124002,378.030467 522.33314,382.139998 C522.973311,383.330152 523.375789,384.39329 524.240669,384.903356 C524.240669,384.903356 525.864565,385.208395 526.773388,385.382418 C536.640605,387.268662 539.861432,390.770115 539.992263,400.869421 C540.096128,408.833451 539.129381,415.923368 538.587083,423.881398 C538.429288,426.189696 538.011828,429.423114 537.143953,431.592395 C535.485102,435.738931 532.091498,437.424149 527.571354,436.724059 C523.632457,436.11498 519.691562,435.528904 515.473027,434.889821 C512.485897,438.849334 508.195456,439.005354 503.701278,435.488899 C503.265842,435.10685 501.614981,435.409889 500.56534,435.488899 C496.660399,435.780937 493.75017,432.538517 491.707815,431.200344 C490.213751,431.043324 485.607718,432.500512 483.021069,429.926179 C481.156485,428.070939 479.999983,426.478734 478.742612,423.489347 C478.378084,423.365331 475.556739,422.319195 474.002752,421.870137 C467.515157,419.992895 464.071618,415.615328 463.166791,408.996472 C462.057228,400.85942 461.321181,393.471464 462.434739,384.269274 C462.602522,382.262014 463.07491,379.740688 464.161502,379.13861 C465.532725,378.380512 467.988544,378.545533 467.988544,378.545533 C468.600751,376.426259 468.698624,373.448874 469.147043,371.397609 C469.563504,369.488362 469.625423,367.501105 470.002934,364.184676 C467.636001,365.742877 466.26278,366.688 464.84961,367.568114 C458.902315,371.267592 452.562528,372.72278 445.596553,371.166579 C435.975018,369.017301 429.533363,361.336308 429.236747,351.397022 C429.171831,349.238743 429.227759,347.076463 429.227759,344.762164 C427.684758,344.388115 426.492303,343.96406 425.26689,343.825042 C418.028268,343.003936 412.614282,339.253451 409.209692,333.011644 C407.059478,329.071134 405.233843,324.78558 404.204177,320.432017 C401.290951,308.107422 401.787308,295.913845 407.524875,283.922294 C402.454444,281.286953 397.559785,278.742624 392.243672,275.979267 C386.47115,280.188811 379.905656,281.307956 373.137424,277.353445 C372.636074,277.585475 372.211623,277.650483 372.003893,277.897515 C362.242538,289.489014 343.443892,287.723786 332.540018,278.464588 C329.376117,275.777241 326.454902,272.799856 323.033334,269.59044 C321.778959,270.565567 320.212988,271.731717 318.702944,272.965877 C307.800069,281.87903 295.1944,286.616643 281.282423,287.591769 C274.694957,288.053829 268.095506,286.67665 262.564672,282.922165 C258.987306,280.494851 256.270825,280.775887 252.70145,282.642129 C246.226837,286.026566 239.245881,287.486755 232.257934,284.380353 C228.699544,282.797149 225.574593,280.235817 221.739561,277.789501 C214.582832,288.228851 203.890684,293.352514 190.836596,291.043215 C177.044464,288.6029 170.967337,278.266563 168.334747,265.119862 C166.615974,265.922966 165.197811,266.662062 163.721723,267.258139 C161.374764,268.205261 159.045781,269.2814 156.607939,269.911482 C145.65413,272.741848 137.135166,268.336278 133.037475,257.842921 C130.502759,251.355082 130.402888,244.731225 132.034774,238.025358 C132.628005,235.589042 133.204259,233.148727 133.811472,230.613399 C132.684932,230.015321 131.933905,229.54026 131.12695,229.204217 C129.787685,228.646144 128.383504,228.243092 127.056224,227.661017 C113.656583,221.780256 111.105887,209.577678 121.019045,198.681269 C122.340333,197.229081 123.854372,195.953916 125.498242,194.388713 C124.81313,193.394585 124.25685,192.502469 123.618677,191.673362 C118.819894,185.437555 118.502305,179.777823 122.700866,173.10496 C125.754909,168.249332 129.981434,164.556855 134.651384,161.327437 C136.107498,160.321307 137.548631,159.294174 139.84965,157.675965 C138.669179,157.01988 137.963094,156.753845 137.408812,156.300787 C131.248792,151.264135 131.356652,143.576141 137.304946,137.793393 C141.684273,133.536842 146.88154,130.565458 152.474294,128.364173 C163.172435,124.155629 174.19915,121.311261 185.802118,121.251253 C186.864741,121.246253 187.927365,121.065229 188.991985,120.964216 C189.186733,120.255124 189.475359,119.743058 189.439406,119.253995 C189.004969,113.249218 192.481465,109.803772 197.295229,107.335453 C205.057173,103.353938 213.345435,103.249925 221.749548,104.283058 C222.808176,104.414075 223.849827,104.689111 225.182101,104.953145 C228.094328,97.6682028 234.157473,96.1320041 241.057534,95.9209768 C248.031499,95.7079492 254.787747,96.8761003 261.490064,98.605324 C262.832325,98.9503686 264.192563,99.2224038 265.609727,99.5434453 C264.922617,88.4540109 269.141152,82.0131778 280.562356,88.9640769 C289.810375,79.9519112 291.596061,79.8228945 300.41963,87.7869246 C301.364406,87.2048494 302.32616,86.3847433 303.43772,85.9716898 C306.281037,84.9165534 309.148322,83.4163593 312.082521,83.2143332 C319.779549,82.6852648 324.299694,88.2869893 322.683787,95.7949605 C322.235368,97.8762297 321.611177,99.9184938 320.946038,102.43782 C324.571342,101.994762 327.747227,101.347679 330.936096,101.28067 C335.084722,101.193659 339.283282,101.269669 343.389962,101.813739 C349.307296,102.59684 353.722576,105.940273 356.296242,110.680886 C363.269208,109.348714 369.794754,107.984537 376.364244,106.881394 C382.771942,105.806255 388.991885,107.007411 395.101969,108.979666 C402.657181,111.418981 407.375069,116.439631 409.122805,124.223638 C409.360497,125.282775 409.62815,126.337911 409.943741,127.377046 C410.043612,127.705088 410.347219,127.970122 410.833588,128.65121" id="Fill" fill="#FFF"/>
                <path d="M299.856255,87.7869246 C300.802252,87.2048494 301.766268,86.3847433 302.880443,85.9716898 C305.730447,84.9155532 308.604476,83.4163593 311.546578,83.2143332 C319.26171,82.6852648 323.792486,88.2869893 322.172779,95.7949605 C321.723305,97.8752295 321.097645,99.9184938 320.430943,102.43782 C324.063772,101.994762 327.248128,101.347679 330.444498,101.28067 C334.602881,101.193659 338.811317,101.269669 342.926655,101.812739 C348.857907,102.59684 353.284573,105.940273 355.863291,110.680886 C362.85366,109.348714 369.394555,107.984537 375.979496,106.881394 C382.402266,105.806255 388.636838,107.007411 394.761293,108.979666 C402.334276,111.417981 407.063261,116.439631 408.815107,124.223638 C409.053359,125.282775 409.321641,126.337911 409.636974,127.377046 C409.73808,127.705088 410.0414,127.970122 410.529915,128.65121 C412.199675,128.471187 413.631184,128.301165 415.065696,128.165147 C430.913401,126.654952 442.767897,133.344817 449.343828,147.858695 C453.883614,157.878991 454.480243,168.188324 450.516064,178.600671 C450.127655,179.617803 449.721226,180.629934 449.394882,181.667068 C449.295778,181.980108 449.43993,182.369159 449.503997,183.07825 C464.187475,187.876871 472.629373,197.413104 470.966621,213.782222 C487.456002,223.935535 495.058015,237.750322 489.661327,257.626893 C491.322077,257.772912 492.856695,257.878926 494.385306,258.047947 C503.392801,259.042076 510.064834,263.427643 514.071057,271.647707 C517.158311,277.982526 516.750882,283.929295 512.068946,289.399003 C511.37021,290.215108 510.731537,291.084221 509.872631,292.172361 C510.847659,292.69943 511.568419,293.226498 512.37627,293.505534 C525.105688,297.913104 532.058017,311.016799 528.471236,323.976475 C525.216805,335.739997 517.088237,342.123822 505.497019,344.717158 C501.516823,345.607273 499.631836,348.617662 500.846116,352.139118 C501.308604,353.481291 502.170512,354.739454 503.058448,355.872601 C506.871468,360.73623 510.887701,365.443839 514.581595,370.392479 C517.382547,374.143964 520.076387,378.030467 522.290721,382.139998 C522.933398,383.330152 523.335823,384.39329 524.202736,384.903356 C524.202736,384.903356 525.830452,385.208395 526.742413,385.382418 C536.631838,387.268662 539.861242,390.770115 539.99238,400.869421 C540.095489,408.833451 539.127468,415.923368 538.583895,423.881398 C538.424728,426.189696 538.006287,429.423114 537.13637,431.592395 C535.473617,435.738931 532.073032,437.424149 527.541256,436.724059 C523.594095,436.11498 519.64293,435.528904 515.415474,434.889821 C512.421318,438.849334 508.120785,439.005354 503.616036,435.488899 C503.178575,435.10685 501.524832,435.409889 500.471722,435.488899 C496.557596,435.780937 493.641522,432.538517 491.593363,431.200344 C490.096786,431.042324 485.479919,432.499512 482.887186,429.926179 C481.018216,428.070939 479.858994,426.478734 478.598666,423.489347 C478.23328,423.365331 475.404298,422.319195 473.847658,421.870137 C467.344803,419.992895 463.892164,415.615328 462.986209,408.996472 C461.874036,400.85942 461.135258,393.471464 462.252435,384.269274 C462.420612,382.262014 462.893111,379.740688 463.98326,379.13861 C465.356707,378.380512 467.817301,378.545533 467.817301,378.545533 C468.43295,376.426259 468.531053,373.448874 468.979526,371.397609 C469.396966,369.488362 469.460033,367.501105 469.838432,364.184676 C467.465931,365.741877 466.08948,366.688 464.672987,367.568114 C458.711703,371.267592 452.357005,372.72278 445.373643,371.166579 C435.730479,369.017301 429.272672,361.336308 428.975358,351.397022 C428.911291,349.238743 428.96735,347.076463 428.96735,344.761164 C427.420719,344.388115 426.224458,343.96406 424.997165,343.825042 C417.741517,343.003936 412.314796,339.253451 408.901198,333.011644 C406.745926,329.071134 404.915997,324.78558 403.884911,320.432017 C400.964833,308.107422 401.462357,295.913845 407.213419,283.922294 C402.131062,281.286953 397.22489,278.742624 391.895272,275.979267 C386.110174,280.188811 379.529237,281.307956 372.745086,277.353445 C372.242557,277.585475 371.817108,277.650483 371.608889,277.897515 C361.823574,289.489014 342.981713,287.723786 332.053193,278.464588 C328.879848,275.777241 325.951762,272.799856 322.522147,269.59044 C321.264821,270.565567 319.695167,271.731717 318.181571,272.965877 C307.254053,281.87803 294.618734,286.616643 280.674035,287.591769 C274.070074,288.053829 267.456102,286.67665 261.911257,282.922165 C258.326479,280.494851 255.603609,280.775887 252.025837,282.642129 C245.534995,286.026566 238.538621,287.486755 231.534237,284.380353 C227.967478,282.797149 224.835176,280.235817 220.991124,277.789501 C213.817562,288.228851 203.100265,293.352514 190.015473,291.043215 C176.1909,288.6029 170.09948,278.266563 167.460698,265.119862 C165.736881,265.922966 164.316384,266.662062 162.836824,267.258139 C160.484344,268.205261 158.149884,269.2814 155.706308,269.911482 C144.725733,272.741848 136.187733,268.336278 132.079403,257.842921 C129.538725,251.355082 129.43962,244.731225 131.075345,238.025358 C131.66897,235.589042 132.24758,233.148727 132.856222,230.613399 C131.72603,230.015321 130.974238,229.54026 130.164384,229.204217 C128.82297,228.646144 127.415487,228.243092 126.085084,227.661017 C112.652926,221.780256 110.097232,209.577678 120.032705,198.680268 C121.357101,197.229081 122.875701,195.953916 124.523438,194.388713 C123.836714,193.394585 123.279127,192.502469 122.639452,191.673362 C117.829382,185.437555 117.511047,179.777823 121.718482,173.10496 C124.779708,168.249332 129.017175,164.556855 133.698109,161.327437 C135.157648,160.321307 136.60217,159.294174 138.9076,157.675965 C137.725354,157.01988 137.017608,156.753845 136.462023,156.299787 C130.286513,151.264135 130.394627,143.576141 136.357913,137.793393 C140.74754,133.536842 145.957031,130.564458 151.56294,128.364173 C162.285243,124.155629 173.337893,121.311261 184.968152,121.251253 C186.034276,121.246253 187.099399,121.064229 188.166524,120.964216 C188.36173,120.255124 188.651035,119.743058 188.614997,119.252995 C188.178536,113.249218 191.664211,109.803772 196.488296,107.335453 C204.269498,103.352938 212.576254,103.249925 221.001134,104.283058 C222.063254,104.414075 223.107355,104.688111 224.441761,104.953145 C227.360838,97.6682028 233.437243,96.1320041 240.354535,95.9209768 C247.344903,95.7079492 254.116041,96.8751002 260.834122,98.6043238 C262.17954,98.9503686 263.543978,99.2224038 264.964476,99.5434453 C264.27575,88.4540109 268.504207,82.0131778 279.951273,88.9640769 C289.222045,79.9519112 291.011932,79.8228945 299.856255,87.7869246 Z M506.028579,423.378332 C505.380897,425.282579 505.42194,427.567874 505.721255,429.603138 C506.014564,431.600396 506.046598,434.318748 509.914676,434.728801 C510.66847,434.808811 511.384225,434.316747 511.510358,433.569651 C512.096976,430.104202 511.01984,425.748639 510.091862,423.908401 C509.037751,421.819131 506.697284,421.414078 506.028579,423.378332 Z M497.900011,355.978615 C493.896791,356.741713 490.373077,357.4138 486.435927,358.164897 L486.045307,358.746647 C483.039611,363.220074 479.743623,367.945787 473.498289,369.156319 C472.875633,372.436743 472.346075,375.853185 471.721416,379.149612 C473.482272,379.632674 474.78865,379.673679 476.171107,379.922712 C483.325648,381.210878 490.504215,382.372028 497.641739,383.744206 C499.211393,384.046245 502.05439,383.743206 501.521829,386.389548 C501.024304,388.866869 498.558705,387.773727 496.889946,387.496691 C489.001631,386.190522 481.131335,384.772339 473.247025,383.439166 C471.722417,383.181133 469.901498,382.954104 468.045542,382.732075 C467.280736,382.641063 466.583,383.186134 466.479891,383.949232 C466.226624,385.833476 466.121514,387.478689 466.139533,389.036891 C466.2036,394.836641 466.196593,400.666395 466.79122,406.42514 C467.684161,415.074258 470.029633,417.115522 478.834915,418.924756 C481.355572,411.056739 486.092565,408.156364 493.187043,416.885493 C497.034098,415.270284 499.925146,417.455566 502.512873,419.997895 C503.247648,419.600844 503.71414,419.318807 504.205658,419.087778 C509.602346,416.55845 512.960887,418.092649 514.22622,423.703375 C514.544556,425.116557 514.8709,425.83665 515.08913,427.417855 C515.476538,428.495994 515.74382,430.581264 516.071165,430.744285 C520.237557,431.580393 525.46807,433.073587 529.809647,432.294486 C530.575454,432.158468 531.16908,431.545389 531.29321,430.77829 L531.295213,430.768288 C533.087101,419.893882 533.23726,409.501538 532.404382,398.630131 L532.401379,398.593127 C532.209176,396.045797 530.75164,393.733498 528.481246,392.558346 C527.411118,392.004274 526.313962,391.66323 524.635192,392.103287 C524.635192,394.653617 524.887458,397.359967 524.57613,399.999308 C524.129659,403.758795 523.830344,407.690303 522.459899,411.149751 C520.255576,416.71147 513.671636,417.114522 510.291072,412.161882 C509.395128,410.850712 508.806507,409.226502 508.46715,407.6623 C507.430057,402.87068 506.502078,398.052057 505.724258,393.213431 L505.720254,393.183427 C505.409927,391.146163 508.190858,390.172037 509.180902,391.980271 C510.064834,393.598481 510.081852,395.274697 510.418206,396.794894 C511.201031,400.337352 511.764626,403.929817 512.547451,407.472275 C513.000929,409.526541 514.113101,411.694821 516.405517,411.207758 C517.687869,410.936723 519.264531,408.873456 519.493773,407.425269 C520.200518,402.968693 520.681024,398.413103 520.59193,393.909521 C520.43977,386.216526 517.770957,379.473654 512.382277,373.695906 C508.054715,369.054306 504.295753,363.882637 500.287528,358.943998 C499.401594,357.852857 498.524669,356.754715 497.900011,355.978615 Z M495.377352,420.88701 C494.599532,421.204051 493.880774,422.466214 493.742629,423.406336 C493.434304,425.504608 494.092998,428.654015 495.503485,430.219217 C496.670715,431.515385 498.351487,431.727412 500.378624,431.984446 C501.076359,432.073457 501.687003,431.504384 501.652967,430.803293 C501.471776,427.181824 500.544799,424.181436 498.132256,421.775125 C497.494584,421.138043 496.081094,420.601973 495.377352,420.88701 Z M523.621324,420.279732 C526.559421,420.41775 529.100099,423.168105 528.981974,426.081482 C528.894882,428.22776 526.859737,429.877973 524.423169,429.77496 C521.499087,429.651944 518.84629,426.755569 519.100558,423.963208 C519.314784,421.610904 521.09466,420.160716 523.621324,420.279732 Z M483.842193,416.515445 C482.646933,419.676854 481.840082,422.488217 483.723067,425.4486 C485.071489,427.567874 487.107635,428.444988 489.860537,427.45586 C489.564224,423.236314 490.475185,418.841746 486.388877,415.752346 C485.510952,415.08826 484.231603,415.486312 483.842193,416.515445 Z M286.376046,88.1799755 C285.366982,89.2101087 284.595168,90.4712719 283.720246,91.6304218 C281.364763,94.7518255 280.705068,94.8698408 277.526718,92.8295769 C276.216336,91.9884681 274.889938,91.1723625 273.600579,90.3782598 C272.732664,89.8441907 271.597468,90.0152129 270.934769,90.789313 C267.669327,94.6118074 270.250047,98.6463293 270.986824,102.650847 C271.284137,104.268056 269.840616,105.701242 268.229918,105.367199 C268.03271,105.326193 267.839506,105.280187 267.648305,105.22618 C262.587971,103.782994 257.600714,102.021766 252.476312,100.876618 C246.964502,99.6454585 241.311543,99.0963875 235.690619,100.403557 C232.615377,101.118649 229.790399,102.160784 228.922484,105.835259 C227.844348,110.398849 227.75125,110.332841 223.305564,109.079679 C215.148966,106.780381 207.078459,107.092422 199.282241,110.449856 C193.368007,112.996185 192.418005,115.029448 193.373012,121.427276 C193.824488,124.458668 193.069692,125.395789 190.028486,125.462798 C189.123533,125.482801 188.214574,125.281774 187.307618,125.279774 C172.27277,125.237769 158.095827,128.642209 145.082109,136.235191 C142.315192,137.8504 139.748487,140.098691 137.682309,142.553008 C134.76123,146.022457 135.234729,149.60192 138.540213,152.740326 C139.971722,154.100502 141.769617,155.067627 143.257185,156.376797 C144.713721,157.657962 144.594595,159.589212 142.985899,160.674352 C142.06593,161.295433 140.980786,161.65848 140.001754,162.197549 C134.191629,165.394963 129.020178,169.368477 125.300257,174.939198 C122.565374,179.034727 121.096826,184.07738 125.863851,189.395067 C127.569649,191.299314 128.473602,193.920653 129.266438,195.350838 C125.718698,199.336353 122.225015,202.162719 120.166846,205.801189 C115.894342,213.356167 117.870425,218.852878 125.599573,222.902401 C128.000103,224.159564 130.639886,224.953667 133.145527,226.016804 C136.571138,227.470992 137.292898,228.729155 136.576143,232.344623 C135.940473,235.551038 135.132621,238.723448 134.402852,241.91086 C133.308699,246.683477 133.967393,251.310076 135.640156,255.82866 C139.070772,265.091859 146.042121,268.655319 155.569163,265.831954 C158.156891,265.064855 160.586452,263.740684 163.050049,262.590535 C164.365435,261.977456 165.550685,261.078339 166.880086,260.503265 C169.798162,259.240102 171.279724,260.096212 171.830304,263.288625 C171.983465,264.17774 171.907385,265.10486 172.004488,266.007977 C173.526091,280.060795 185.192389,289.237982 199.159111,287.21772 C206.514865,286.153583 212.778467,282.849155 216.656555,276.369317 C219.438487,271.722716 221.512674,266.644059 223.779063,261.70142 C226.041447,256.766782 227.344821,255.937674 232.022752,258.573015 C242.837152,264.663803 262.277644,258.340985 264.046508,242.024875 C264.513,237.719318 264.521008,233.358754 264.631124,229.021193 C264.736235,224.809648 264.993506,224.629625 268.983712,223.621494 C271.77065,222.918404 274.579611,221.982282 277.11128,220.64611 C282.947431,217.567711 284.974568,213.30616 284.06561,206.648299 C283.722248,204.134974 283.139634,201.647652 282.562025,199.173332 C280.853224,191.855386 280.924299,191.819381 287.530262,188.314928 C290.988908,186.47969 293.421472,183.013242 293.589649,179.104736 C293.795867,174.308116 290.301183,172.157838 286.469144,170.752656 C284.441006,170.00756 282.233679,169.752527 280.110441,169.262463 C276.896053,168.521367 276.500636,167.783272 277.616813,164.792885 C278.200428,163.227683 279.04732,160.571339 279.947269,157.979004 C276.733882,158.297045 273.789778,158.844116 272.343254,159.910254 C267.486134,163.486716 263.420849,162.500589 259.370579,158.852117 C259.313519,158.80011 259.246449,158.753104 259.179378,158.717099 C254.584534,156.277784 250.933686,156.915866 247.795378,160.916384 C246.568084,162.480586 245.475933,164.197808 244.611021,165.985039 C243.278617,168.734395 241.25148,169.487492 238.363436,168.980427 C235.508426,168.478362 232.610372,167.987298 229.72433,167.947293 C224.477799,167.874284 219.722787,169.674517 217.460402,174.584152 C214.885688,180.168874 211.148749,183.168262 204.966232,182.990239 C204.608856,182.979238 204.247475,183.097253 203.889097,183.161261 C199.301261,183.969366 196.518327,186.811733 195.007735,191.065283 C194.892614,191.388325 194.786502,191.716368 194.674384,192.078414 C194.222908,193.537603 192.250829,193.963658 191.368899,192.716497 C191.253778,192.554476 191.172693,192.389455 191.134652,192.215432 C190.883388,191.084286 191.210733,189.674103 191.693241,188.556959 C194.122802,182.927231 198.362271,179.698813 204.554799,178.968719 C207.695109,178.597671 210.908496,178.689683 212.664347,174.793179 C217.102024,164.941904 225.956358,162.825631 234.921808,164.216811 C236.688671,164.490846 238.455533,164.75388 240.166336,165.013914 C243.497848,160.632347 245.35881,155.425674 251.163929,153.805464 C257.221314,152.115245 261.5719,155.755716 265.155677,157.583953 C270.861692,156.340792 275.402478,155.351664 280.302644,154.283526 C280.986364,150.741068 281.409811,146.731549 282.588053,142.957061 C283.761289,139.196574 285.346961,135.45409 287.446174,132.142662 C288.402181,130.632467 291.011932,129.461315 292.898921,129.41931 C295.486649,129.363302 296.898137,131.776615 297.477748,134.169924 C297.986284,136.271196 298.069371,138.475481 298.329646,140.63576 C298.44777,141.621888 298.537865,142.610016 298.640974,143.597144 C301.623117,140.582754 303.648252,137.243322 305.674388,133.90389 C308.310166,129.558328 310.599579,124.947731 313.668815,120.933212 C317.399747,116.888689 321.281839,116.039579 324.521254,122.261384 C324.67842,122.561423 325.001761,122.77345 324.931687,122.702441 C327.265146,122.396401 329.5926,121.401273 331.265363,122.062358 C333.028221,122.757448 334.166421,125.034743 335.596929,126.642951 C339.528073,125.989866 343.73751,126.829975 343.754528,132.840752 C343.760534,134.647986 343.550312,136.45522 343.444201,138.171442 C348.495525,142.620017 349.829932,145.220353 349.048108,151.629182 C348.660699,154.797592 347.773764,157.902994 346.332245,160.752363 C340.400993,172.477879 330.216257,178.181617 317.568926,179.963847 C311.812858,180.774952 306.030763,181.409034 300.245665,181.99411 C298.21953,182.199137 296.970213,183.029244 296.05725,184.873483 C294.319419,188.385937 291.785748,191.158295 287.978735,192.608483 C287.1869,192.909522 286.573253,193.680622 285.730365,194.352709 C286.021672,195.823899 286.251915,197.237082 286.583264,198.627262 C288.162929,205.251118 289.229053,211.828969 285.995645,218.339811 C285.559185,219.217925 285.740376,220.476088 285.846487,221.536225 C286.839534,231.408502 281.224615,240.043619 271.281134,242.224901 C271.00184,242.286909 270.80263,242.710964 270.409215,243.136019 C270.059847,251.80914 267.459105,259.802174 260.136387,265.419901 C252.907767,270.965618 245.035469,274.203037 237.885933,270.759592 C234.519384,273.99201 231.957684,276.450328 229.40199,278.902645 C233.110899,281.747013 238.468547,282.840154 244.229619,281.271951 C247.185735,280.467847 250.141851,279.333701 252.789642,277.813504 C256.039068,275.949263 258.609777,276.055277 261.779118,278.204555 C268.824545,282.985173 276.666811,284.499369 285.18479,283.125191 C297.351615,281.161937 308.117964,276.362316 317.514869,268.399286 C318.36076,267.682194 319.253702,267.019108 320.150647,266.385026 C322.185792,264.94584 324.982741,265.267881 326.638486,267.131122 C329.133115,269.937485 331.389494,272.529821 333.945188,274.783112 C344.884719,284.423359 358.419986,284.224333 369.103248,274.444068 C371.16442,272.556824 373.017373,272.055759 375.355838,273.803985 C378.495147,276.149289 381.790621,276.781371 385.620658,274.366058 C378.063693,264.625798 379.599311,254.5875 384.299266,244.250163 C378.073703,237.514291 376.689244,228.985188 376.819381,220.42008 C376.918485,213.970246 378.638298,207.529413 379.829554,201.119584 C379.907636,200.69953 380.001736,200.255472 380.151894,199.835418 C380.876658,197.815156 383.948896,198.674268 383.635566,200.797542 C383.524449,201.55464 383.420339,202.315739 383.338253,203.078837 C382.893784,207.19337 381.848682,211.37491 382.231085,215.416433 C382.88978,222.389335 386.521608,227.973057 392.143534,232.334621 C399.219993,237.827332 398.978739,237.870338 395.840431,246.445447 C394.228732,250.848016 392.895327,255.44161 392.184577,260.064208 C390.96329,268.003235 394.196698,273.341926 401.49339,276.641352 C403.148134,277.389449 404.86194,278.006529 406.54071,278.699619 C412.177652,281.024919 412.581077,281.752013 410.163529,287.147711 C405.34545,297.905103 404.955039,308.93653 407.847087,320.197986 C410.740137,331.463444 416.274971,339.980545 429.369774,340.446605 C432.095647,340.543618 433.277893,341.964802 433.125733,344.65715 C433.002603,346.834432 432.865459,349.020715 432.938536,351.196996 C433.212825,359.263039 438.145024,365.235812 446.003307,367.247072 C452.277921,368.85328 457.90285,367.246072 463.08231,363.760621 C465.793167,361.935385 468.2908,359.796108 470.906557,357.828854 C471.937644,357.052753 472.994759,356.402669 474.04887,356.909735 C474.766626,357.25578 475.172054,358.059884 475.114994,358.853986 C475.002875,360.446192 474.297131,361.97639 474.044866,364.113667 C477.668685,362.099406 479.028118,361.850374 482.447723,356.669704 C483.862214,354.527427 485.362796,353.332272 488.172758,353.423284 C494.372292,353.62531 495.995003,352.447158 497.207281,346.496388 C497.861971,343.278972 499.430624,341.811782 502.47183,341.223706 C504.962455,340.742644 507.437064,340.067556 509.828585,339.223447 C517.215371,336.61711 521.907317,331.36043 524.303843,323.999478 C527.961699,312.758024 521.874282,300.491437 511.084909,297.277022 C506.284849,295.846837 505.011507,291.399261 508.301976,287.626773 C512.791708,282.478107 513.217157,278.232558 509.850608,272.209779 C505.632161,264.664803 497.816923,260.973326 489.150789,262.379508 C488.73435,262.447517 488.31691,262.504524 487.883453,262.556531 C485.591036,262.829566 483.817166,260.580275 484.601994,258.410994 C484.808211,257.839921 485.004418,257.29385 485.199624,256.747779 C487.038562,251.580111 488.544149,246.47145 487.137667,240.799716 C484.785187,231.31649 479.992134,223.674501 471.252923,219.054904 C467.588059,217.117653 466.482895,214.61733 466.927363,210.708824 C467.186636,208.419528 466.954392,205.96221 466.404812,203.710919 C464.347644,195.28983 458.312282,190.636228 450.575126,187.816863 C443.821007,185.355545 443.432597,184.821476 446.213529,178.649677 C450.442987,169.267464 450.209741,159.828243 446.164477,150.630053 C442.2964,141.833915 436.333114,134.670989 426.351592,132.687732 C421.98499,131.82062 417.301052,132.168665 412.795303,132.471704 C407.197402,132.848753 406.763945,132.762742 405.379486,127.217025 C405.202299,126.511934 405.026113,125.806842 404.875955,125.09575 C403.655669,119.294 400.305137,115.341489 394.722252,113.252219 C388.66787,110.985925 382.484352,109.981795 376.00252,110.723891 C369.563733,111.459987 363.302133,112.765156 357.378889,115.601522 C355.859287,116.328616 353.957282,115.89356 353.104383,114.442372 C353.040316,114.333358 352.983256,114.221344 352.937207,114.105329 C350.571714,108.355585 345.917808,105.933272 340.136714,105.3792 C336.722115,105.052158 333.193395,104.807126 329.831852,105.305191 C325.737536,105.913269 321.720302,107.044416 317.461813,108.113554 C315.502748,108.605617 313.781934,106.729375 314.447636,104.825128 C314.586782,104.427077 314.758964,104.018024 314.942157,103.60297 C316.111389,100.946627 317.402751,98.2952839 318.145533,95.5109237 C319.615083,89.9902096 316.559862,86.51376 310.9039,87.1728452 C309.153055,87.3768716 307.372177,88.0579597 305.801522,88.8900673 C303.630233,90.0382158 301.542032,92.7225631 299.609995,92.5545413 C297.620899,92.3815189 295.88607,89.5441519 293.99808,87.9219421 C291.167096,85.4896275 288.965775,85.5346333 286.376046,88.1799755 Z M317.728093,122.497414 C316.487786,123.9306 315.246478,125.278774 314.318499,126.816973 C311.787832,131.014516 309.61354,135.425087 307.101892,139.635631 C305.152838,142.903054 303.021591,146.076464 300.76221,149.13786 C299.54793,150.783073 298.206516,153.509426 295.764942,152.07124 C294.584698,151.37615 294.31141,148.664799 294.160251,146.822561 C293.954033,144.305235 294.365467,141.742904 294.307406,139.205576 C294.265362,137.352336 294.257353,135.388082 292.289279,133.834881 C291.805769,133.453832 291.079003,133.580848 290.730636,134.088914 C284.229783,143.583142 285.242851,154.886604 282.406862,165.557984 C290.392279,166.817147 296.112308,170.412612 298.308624,178.025597 C303.790402,177.515531 308.884772,177.2765 313.897055,176.5034 C318.185576,175.841314 322.546172,175.006206 326.581426,173.476008 C336.206571,169.827536 342.458161,162.842633 345.066911,152.824337 C345.953846,149.415896 345.637513,146.141473 342.469173,142.864049 C341.060688,145.045331 339.880444,146.786556 338.788293,148.580788 C336.239606,152.76933 333.830066,157.046883 331.164256,161.157415 C330.481537,162.210551 329.606614,163.112668 328.531481,163.072663 C327.139013,163.021656 326.426262,161.339438 327.206084,160.186289 C328.007929,159.002136 328.799764,157.842986 329.447447,156.609827 C332.563732,150.665058 335.756097,144.748292 338.553045,138.652504 C339.506049,136.577236 340.685292,134.21593 339.736292,131.802618 C339.325859,130.757483 338.014477,130.404437 337.132548,131.102527 C334.887181,132.877757 333.639866,135.289069 332.311466,137.635372 C329.088068,143.324108 325.87368,149.017845 322.60123,154.677577 C321.78537,156.088759 320.965506,157.611956 319.770246,158.651091 C319.6321,158.771106 319.480941,158.87612 319.319771,158.969132 C317.620981,159.95726 315.384623,158.464067 315.820082,156.549819 C315.850114,156.421802 315.889155,156.297786 315.940209,156.178771 C316.717028,154.379538 318.192583,152.895346 319.232679,151.191126 C322.351967,146.079465 325.514301,140.987806 328.43538,135.76213 C329.76378,133.385823 330.872949,130.846494 330.451505,127.632079 C330.322369,126.649951 329.165149,126.183891 328.374316,126.780968 C325.430212,129.006256 324.096807,132.002644 322.537163,134.771002 C319.505967,140.149698 316.609915,145.605403 313.628772,151.012103 C313.016127,152.124246 312.49758,153.46442 311.541572,154.15951 C310.538515,154.888604 308.817701,155.583694 307.846678,155.197644 C306.007739,154.466549 306.793567,152.816336 307.62144,151.543171 C309.307217,148.953836 311.281298,146.522522 312.700794,143.79817 C315.374613,138.668506 317.911287,133.449831 320.146643,128.117141 C320.829362,126.48693 321.330891,124.488672 319.949435,122.602428 C319.408865,121.864332 318.326724,121.805325 317.728093,122.497414 Z" id="Stroke" fill="#000"/>
            </g>
        </g>
        <g id="Face" transform="translate(195.000000, 236.000000) scale(1 1)" fill="#000">
            <g id="Face/Smile" stroke="none" stroke-width="1" fill="none" fill-rule="evenodd">
                <path d="M10.7342,34.9264 C11.8452,35.8024 12.5262,37.2014 13.5402,38.2294 C17.7942,42.5384 21.1822,42.7674 26.0072,39.1414 C27.1662,38.2714 28.1702,37.0864 29.4552,36.5374 C30.1972,36.2194 31.5272,36.6604 32.2562,37.2074 C32.5912,37.4604 32.4232,39.0534 31.9612,39.5854 C28.7942,43.2414 25.1052,46.0714 21.1732,46.1834 C15.3042,46.0914 8.5252,41.4164 7.2362,37.1764 C6.9842,36.3474 7.3132,34.7714 7.9042,34.4104 C8.5382,34.0234 10.0302,34.3724 10.7342,34.9264 Z M27.8689,11.0959 C29.0199,15.6489 30.1869,20.2019 31.1709,24.7919 C32.1349,29.2889 30.7839,30.8189 26.1689,30.5989 C24.1899,30.5049 22.1919,30.2639 20.2709,29.8059 C19.6339,29.6529 18.7869,28.5999 18.8029,27.9779 C18.8209,27.3179 19.6549,26.2549 20.2969,26.1139 C22.1859,25.6999 24.1569,25.6549 26.6209,25.4139 C25.5299,20.7949 24.4219,16.4859 23.5269,12.1319 C23.1629,10.3629 21.7969,7.7539 24.5809,7.0949 C27.2989,6.4499 27.4029,9.2489 27.8689,11.0959 Z M11.1513452,18.6999638 C12.2687564,22.2848354 10.454079,26.3141157 7.36997876,27.0954776 C5.20707056,27.6428606 3.38352499,26.4024463 2.60377214,23.8536388 C1.54995691,20.4107375 3.28559823,16.0368947 6.0719023,15.1130989 C8.20745996,14.4050301 10.2647214,15.8582679 11.1513452,18.6999638 Z M41.5476,15.3579 C44.0486,15.3779 46.2016,18.1629 46.0496,21.1819 C45.8886,24.4019 43.6766,26.8499 41.1566,26.5989 C38.7616,26.3589 37.3146,24.1149 37.4456,20.8429 C37.5776,17.5539 39.2336,15.3389 41.5476,15.3579 Z" id="Stroke" fill="#000"/>
            </g>
        </g>
    </g>
</svg>
