<svg viewBox="127.75 122.427 740.95 663.146" xmlns="http://www.w3.org/2000/svg" overflow="visible">
    <g id="Master/Scenes/Life Management" stroke="none" stroke-width="1" fill="none" fill-rule="evenodd">
        <g id="Background" transform="translate(271.000000, 173.000000) scale(1 1)" fill="#000">
            <g id="Background/1" stroke="none" stroke-width="1" fill="none" fill-rule="evenodd">
                <path d="M401.585261,21.6222798 C324.480555,-31.52887 222.870403,16.932234 174.632994,129.863439 L174.597201,129.946864 C172.326687,135.265262 168.470358,139.362296 163.383595,141.797362 C138.79467,153.568592 115.027495,169.312662 93.1803724,188.9839 C-8.18826819,280.256634 -29.8672135,421.434904 44.7573226,504.313847 C119.381859,587.192791 262.052375,580.389274 363.421016,489.11654 C415.428222,442.289041 446.459628,382.324815 454.270845,323.837497 C454.584993,321.484187 455.157405,319.254112 455.993441,317.193644 C501.367798,205.348682 477.522035,73.9680571 401.585261,21.6222798" id="Fill-3" fill-opacity=".04" fill="#000"/>
            </g>
        </g>
        <g id="Group-80" transform="translate(166.000000, 126.000000)">
            <g id="Group-5" transform="translate(283.000000, 0.365000)" fill="#000">
                <path d="M2.5495,16.7233 C2.5895,16.6613 2.6295,16.5983 2.6705,16.5363 C5.9475,11.5983 11.3405,11.9543 16.5625,11.7083 C23.0745,11.4013 29.5775,10.7453 35.7435,8.4963 C45.7635,4.8423 55.8365,-0.4627 66.8455,0.8343 C75.2385,1.8223 80.0965,7.6023 79.8925,16.0433 C79.8825,16.4523 79.8625,16.8593 79.8335,17.2663 C79.8095,17.6193 83.8305,20.3813 84.2535,20.7803 C86.1595,22.5823 88.0225,24.6983 89.2535,27.0293 C95.0555,38.0123 89.7195,51.1243 83.7055,60.7313 C83.4085,61.2043 80.1945,65.8423 80.2535,65.9013 C77.8675,63.5673 76.6875,62.8743 73.2385,57.0523 C75.9425,54.9303 76.9835,51.2693 76.6505,49.1133 C76.2045,46.2333 74.5915,43.8293 67.7265,45.7853 C66.5465,44.4723 65.1205,40.7203 64.0275,37.5943 C63.3595,35.6873 63.0905,33.9603 62.9885,32.6103 C55.1125,36.7183 48.2015,38.7773 43.4675,39.8783 C29.1005,43.2233 5.9755,45.4113 1.2425,26.7403 C0.3925,23.3843 0.7015,19.6433 2.5495,16.7233" id="Fill-3"/>
            </g>
            <path d="M364.435037,59.7555908 C365.263212,59.7765124 365.917998,60.4644626 365.898009,61.2926372 C365.798635,65.2971808 365.026153,69.3996853 363.401475,73.469783 C360.725469,80.1863905 356.659733,84.9575749 351.977425,88.537547 L351.787,88.68 L351.788,109.5146 C351.788,109.922317 351.622182,110.310115 351.332633,110.591062 L351.218335,110.691238 L335.888335,122.812238 C335.366898,123.224524 334.642412,123.241308 334.105371,122.869786 L333.984944,122.777161 L319.764944,110.656161 C319.467748,110.402834 319.28255,110.045014 319.245064,109.660073 L319.238,109.5146 L319.238,95.8676 C319.238,95.0391729 319.909573,94.3676 320.738,94.3676 C321.517696,94.3676 322.158449,94.9624881 322.231133,95.72314 L322.238,95.8676 L322.237,108.821 L334.993,119.694 L348.787,108.788 L348.788,87.9256 C348.788,87.4984718 348.969895,87.0943254 349.283482,86.8116069 L349.407152,86.7114717 C354.008437,83.3732489 358.025848,78.8568363 360.614889,72.358506 C362.101361,68.6346351 362.807976,64.881941 362.898457,61.2185628 C362.918912,60.3903883 363.606863,59.7356023 364.435037,59.7555908 Z" id="Stroke-6" fill="#000" fill-rule="nonzero"/>
            <path d="M349.875676,108.072746 C350.625928,107.8605 351.404421,108.2585 351.681423,108.97064 L351.727354,109.107776 L358.705354,133.773776 C359.057531,135.018658 357.782795,136.073138 356.643791,135.549291 L356.526519,135.489413 L334.962,123.357 L313.657068,135.485686 C312.50921,136.139105 311.162661,135.100893 311.450807,133.854102 L311.485139,133.728783 L319.305139,109.062783 C319.555499,108.273092 320.398626,107.835879 321.188317,108.086239 C321.931555,108.321872 322.362565,109.082586 322.201973,109.829637 L322.164861,109.969417 L315.502,130.982 L334.215932,120.330514 C334.62787,120.096019 335.123331,120.071423 335.552927,120.257104 L335.693481,120.326787 L354.828,131.091 L348.840646,109.924424 C348.6284,109.174172 349.0264,108.395679 349.73854,108.118677 L349.875676,108.072746 Z" id="Stroke-8" fill="#000" fill-rule="nonzero"/>
            <path d="M320.069264,104.542519 C320.810806,104.173186 321.711348,104.474921 322.080681,105.216464 C322.450014,105.958006 322.148279,106.858548 321.406736,107.227881 L319.135508,108.342405 C316.89909,109.426703 313.987083,110.807516 310.070702,112.643404 L281.281878,126.076962 L280.019,126.679 L279.395267,127.55533 C277.080829,130.735928 271.931636,137.255497 262.119209,149.499154 L243.661961,172.518727 L240.919,175.972 L241.541903,176.73789 C244.310042,180.124623 247.166349,183.493099 250.115305,186.843295 L251.597525,188.516869 C255.33936,192.71295 259.141644,196.775984 263.002913,200.716112 L263.479,201.199 L275.345723,186.329376 C276.255268,185.190018 278.091265,185.886706 278.016,187.34264 L270.617,330.865 L360.118,330.8652 C360.897696,330.8652 361.538449,331.460088 361.611133,332.22074 L361.618,332.3652 C361.618,333.144896 361.023112,333.785649 360.26246,333.858333 L360.118,333.8652 L269.038,333.8652 C268.179282,333.8652 267.495838,333.145669 267.539983,332.288086 L274.779,191.849 L264.768324,204.391216 C264.208537,205.090983 263.164092,205.147016 262.53265,204.511157 C258.06317,200.010415 253.671033,195.349617 249.358122,190.513135 C245.351816,186.017278 241.513058,181.488797 237.830839,176.927398 C237.390793,176.382284 237.386676,175.605168 237.820922,175.055422 L245.286994,165.682561 L264.786105,141.363472 C272.548123,131.640778 276.378716,126.72042 277.767041,124.660008 C277.916578,124.438081 278.122763,124.260198 278.364214,124.144809 L285.527602,120.767657 L308.780094,109.935118 C314.168617,107.409182 317.649062,105.747926 320.069264,104.542519 Z" id="Stroke-10" fill="#000" fill-rule="nonzero"/>
            <path d="M348.918655,103.162166 C349.237153,102.450488 350.041886,102.108638 350.765872,102.353013 L350.900534,102.405755 L395.002534,122.142755 C395.269624,122.262286 395.494916,122.456844 395.651914,122.701299 L395.7246,122.827568 L427.5126,184.830568 C427.822318,185.43468 427.685858,186.16493 427.195244,186.617169 L427.084725,186.709675 L424.173893,188.91905 L424.055248,189.019278 L399.15577,207.938881 C398.485108,208.44889 397.536569,208.302928 397.045132,207.641571 L396.963303,207.51954 L383.968,185.971 L389.1678,278.2249 C389.1678,279.053327 388.496227,279.7249 387.6678,279.7249 C386.888104,279.7249 386.247351,279.130012 386.174667,278.36936 L380.633179,180.104356 C380.547763,178.589704 382.484354,177.945002 383.338488,179.128885 L383.415297,179.24526 L398.669,204.539 L422.126,186.717 L422.240875,186.620125 L424.269,185.08 L393.296,124.666 L349.675066,105.144045 C348.963388,104.825547 348.621538,104.020814 348.865913,103.296828 L348.918655,103.162166 Z" id="Stroke-12" fill="#000" fill-rule="nonzero"/>
            <path d="M423.1486,186.3146 C423.782103,186.3146 424.323882,186.707319 424.543764,187.262585 L424.561,187.313 L438.416154,220.577529 C439.931519,224.213313 439.727519,228.331179 437.875507,231.792387 L437.691137,232.125255 L378.411205,335.598136 C375.29425,341.039922 368.58783,343.239164 362.871071,340.744313 L362.581264,340.613404 L361.549231,340.130856 C359.047279,338.963186 357.936998,336.029861 359.001264,333.511223 L359.095003,333.302343 L365.543,319.744 L361.1206,319.7446 C358.622503,319.7446 356.583727,317.776078 356.472389,315.305554 L356.4676,315.0926 C356.4676,313.25472 357.548372,311.597145 359.213292,310.847521 L359.415855,310.761971 L373.911,305.051 L386.27,277.664 L386.300137,277.588122 L410.452,224.015 L399.584023,205.50398 C399.189299,204.831583 399.377938,203.977843 399.997116,203.530078 L400.11822,203.451023 C400.790617,203.056299 401.644357,203.244938 402.092122,203.864116 L402.171177,203.98522 L413.431177,223.16622 C413.650081,223.539115 413.696166,223.985788 413.563292,224.391908 L413.505063,224.542078 L389.06,278.765 L389.034825,278.832606 L376.394825,306.841606 C376.254213,307.153188 376.012088,307.406011 375.710242,307.560269 L375.577345,307.620229 L360.516692,313.552698 C359.883375,313.802871 359.4676,314.41335 359.4676,315.0926 C359.4676,315.956823 360.131835,316.666252 360.977975,316.738535 L361.1206,316.7446 L367.9176,316.7446 C368.975707,316.7446 369.686928,317.803431 369.323301,318.768761 L369.272197,318.888857 L361.804291,334.590658 C361.323541,335.601854 361.71637,336.801892 362.67776,337.340451 L362.818936,337.412796 L363.851486,337.895586 C368.131613,339.895117 373.21405,338.349222 375.66684,334.345297 L375.808063,334.106945 L435.088108,230.633867 C436.590804,228.011285 436.836459,224.859143 435.770732,222.042858 L435.646918,221.731364 L421.763918,188.401364 C421.706824,188.264293 421.670505,188.119763 421.655913,187.972542 L421.6486,187.8146 C421.6486,186.986173 422.320173,186.3146 423.1486,186.3146 Z" id="Stroke-14" fill="#000" fill-rule="nonzero"/>
            <path d="M157.523007,121.947585 C157.800925,121.391846 158.389444,121.069455 158.998779,121.124469 L159.139632,121.14393 L194.916596,127.817029 C197.364842,128.246199 199.505664,129.706382 200.800518,131.817812 L200.951806,132.074286 L232.07,187.02 L240.736887,178.353893 C241.286035,177.80469 242.155095,177.770324 242.74428,178.250823 L242.858207,178.353787 C243.40741,178.902935 243.441776,179.771995 242.961277,180.36118 L242.858313,180.475107 L232.798313,190.536107 C232.132321,191.202166 231.037441,191.091261 230.510698,190.338831 L230.432394,190.214714 L198.341737,133.55332 C197.552468,132.16124 196.212705,131.172231 194.645771,130.821564 L194.382568,130.76907 L159.7,124.3 L158.088,127.525 L189.788629,141.115847 C190.097935,141.248446 190.352333,141.480571 190.512825,141.773255 L190.575744,141.902285 L219.835521,209.992765 C224.110542,219.930837 237.027615,222.411737 244.682807,214.860696 L244.913157,214.628804 L259.663157,199.487804 C260.241232,198.894405 261.190898,198.881983 261.784296,199.460057 C262.340607,200.002002 262.386295,200.870541 261.913514,201.465937 L261.812043,201.581196 L247.062476,216.721751 C238.039009,225.992097 222.556116,223.237434 217.237498,211.535068 L217.079456,211.177715 L188.056,143.637 L155.443571,129.656153 C154.69442,129.334992 154.34653,128.480816 154.635376,127.736638 L154.693007,127.606585 L157.523007,121.947585 Z" id="Stroke-16" fill="#000" fill-rule="nonzero"/>
            <path d="M383.717958,321.804631 L383.862454,321.810702 C384.63903,321.880383 385.224054,322.530154 385.228469,323.294258 L385.222398,323.438754 L359.461398,610.538754 C359.396342,611.26379 358.822634,611.829922 358.111376,611.897856 L357.9674,611.9047 L331.5374,611.9047 C330.779662,611.9047 330.14911,611.341699 330.050714,610.604786 L330.038599,610.464672 L320.719,377.566 L297.043,473.068 L285.622249,610.528901 C285.561442,611.260755 284.982116,611.833702 284.26365,611.898576 L284.1274,611.9047 L256.7474,611.9047 C255.967704,611.9047 255.326951,611.309812 255.254267,610.54916 L255.2474,610.4047 L255.2474,467.6357 L255.261131,467.433203 L273.691131,332.162203 C273.802967,331.34136 274.559053,330.766595 275.379897,330.878431 C276.152455,330.983688 276.707034,331.659631 276.676367,332.423132 L276.663669,332.567197 L258.247,467.735 L258.247,608.904 L282.746,608.904 L294.063551,472.700499 C294.066867,472.660586 294.071779,472.620837 294.078272,472.581349 L294.102474,472.463758 L320.341474,366.623758 C320.74675,364.989001 323.083431,365.177721 323.283968,366.775596 L323.296201,366.924728 L332.978,608.904 L356.596,608.904 L382.234402,323.170646 C382.299728,322.442606 382.874899,321.882922 383.576142,321.812168 L383.717958,321.804631 Z" id="Stroke-18" fill="#000" fill-rule="nonzero"/>
            <path d="M352.3874,608.9047 C353.167096,608.9047 353.807849,609.499588 353.880533,610.26024 L353.8874,610.4047 L353.887,627.573 L364.498174,642.766831 C364.644758,642.976717 364.734692,643.219892 364.760599,643.472902 L364.7684,643.6257 L364.7684,654.8647 C364.7684,655.644396 364.173512,656.285149 363.41286,656.357833 L363.2684,656.3647 L323.7684,656.3647 C322.988704,656.3647 322.347951,655.769812 322.275267,655.00916 L322.2684,654.8647 L322.2684,643.6257 C322.2684,643.311009 322.367325,643.005684 322.549115,642.751999 L322.64684,642.629656 L335.457,628.204 L335.4574,610.4047 C335.4574,609.625004 336.052288,608.984251 336.81294,608.911567 L336.9574,608.9047 C337.737096,608.9047 338.377849,609.499588 338.450533,610.26024 L338.4574,610.4047 L338.4574,628.7747 C338.4574,629.089391 338.358475,629.394716 338.176685,629.648401 L338.07896,629.770744 L325.268,644.194 L325.268,653.364 L361.768,653.364 L361.768,644.097 L351.157626,628.904569 C351.011042,628.694683 350.921108,628.451508 350.895201,628.198498 L350.8874,628.0457 L350.8874,610.4047 C350.8874,609.576273 351.558973,608.9047 352.3874,608.9047 Z" id="Stroke-20" fill="#000" fill-rule="nonzero"/>
            <path d="M363.2663,642.1294 C364.094727,642.1294 364.7663,642.800973 364.7663,643.6294 C364.7663,644.409096 364.171412,645.049849 363.41076,645.122533 L363.2663,645.1294 L323.7653,645.1294 C322.936873,645.1294 322.2653,644.457827 322.2653,643.6294 C322.2653,642.849704 322.860188,642.208951 323.62084,642.136267 L323.7653,642.1294 L363.2663,642.1294 Z" id="Stroke-22" fill="#000" fill-rule="nonzero"/>
            <path d="M277.1999,608.9047 C277.979596,608.9047 278.620349,609.499588 278.693033,610.26024 L278.6999,610.4047 L278.699,627.573 L289.309711,642.766884 C289.456275,642.976762 289.546197,643.219921 289.5721,643.472913 L289.5799,643.6257 L289.5799,654.8647 C289.5799,655.644396 288.985012,656.285149 288.22436,656.357833 L288.0799,656.3647 L248.5799,656.3647 C247.800204,656.3647 247.159451,655.769812 247.086767,655.00916 L247.0799,654.8647 L247.0799,643.6257 C247.0799,643.328206 247.168327,643.038603 247.332264,642.792987 L247.420465,642.674012 L259.269,628.238 L259.2699,610.4047 C259.2699,609.625004 259.864788,608.984251 260.62544,608.911567 L260.7699,608.9047 C261.549596,608.9047 262.190349,609.499588 262.263033,610.26024 L262.2699,610.4047 L262.2699,628.7747 C262.2699,629.072194 262.181473,629.361797 262.017536,629.607413 L261.929335,629.726388 L250.079,644.163 L250.079,653.364 L286.579,653.364 L286.579,644.096 L275.970089,628.904516 C275.823525,628.694638 275.733603,628.451479 275.7077,628.198487 L275.6999,628.0457 L275.6999,610.4047 C275.6999,609.576273 276.371473,608.9047 277.1999,608.9047 Z" id="Stroke-24" fill="#000" fill-rule="nonzero"/>
            <path d="M288.0788,642.1294 C288.907227,642.1294 289.5788,642.800973 289.5788,643.6294 C289.5788,644.409096 288.983912,645.049849 288.22326,645.122533 L288.0788,645.1294 L248.5778,645.1294 C247.749373,645.1294 247.0778,644.457827 247.0778,643.6294 C247.0778,642.849704 247.672688,642.208951 248.43334,642.136267 L248.5778,642.1294 L288.0788,642.1294 Z" id="Stroke-26" fill="#000" fill-rule="nonzero"/>
            <path d="M303.481843,36.8983363 C303.698981,36.0988724 304.5231,35.6268043 305.322564,35.8439426 C306.122028,36.061081 306.594096,36.8851999 306.376957,37.6846637 C302.29832,52.7014652 302.118679,67.4598898 306.729952,79.2906633 C309.071557,85.2970769 313.02246,90.2692822 317.963087,93.0695617 C323.157425,96.0139022 330.235146,95.8518132 337.574859,93.2478321 C338.355607,92.9708388 339.213075,93.3792121 339.490068,94.1599593 C339.767061,94.9407066 339.358688,95.7981746 338.577941,96.0751679 C330.495916,98.942506 322.560933,99.1242273 316.483763,95.6794663 C310.899918,92.5146193 306.513133,86.9938576 303.934809,80.3802382 C299.061084,67.876114 299.248426,52.4850062 303.481843,36.8983363 Z" id="Stroke-28" fill="#000" fill-rule="nonzero"/>
            <polygon id="Fill-40" fill="#000" points="644.3474 413.5044 375.6344 413.5044 382.2154 347.9254 644.3474 347.9254"/>
            <path d="M160.0495,122.2944 C160.0495,131.3574 152.7025,138.7034 143.6405,138.7034 C134.5775,138.7034 127.2315,131.3574 127.2315,122.2944 C127.2315,113.2314 134.5775,105.8854 143.6405,105.8854 C152.7025,105.8854 160.0495,113.2314 160.0495,122.2944" id="Fill-42" fill="#000"/>
            <path d="M144.303,126.5 C145.082696,126.5 145.723449,127.094888 145.796133,127.85554 L145.803,128 L145.803,262.562789 C145.803,263.342485 145.208112,263.983238 144.44746,264.055922 L144.303,264.062789 L73.729,264.062789 C72.9493039,264.062789 72.3085513,263.467901 72.2358666,262.707249 L72.229,262.562789 L72.229,186.969789 C72.229,186.141362 72.9005729,185.469789 73.729,185.469789 C74.5086961,185.469789 75.1494487,186.064677 75.2221334,186.825329 L75.229,186.969789 L75.228,261.062 L142.802,261.062 L142.803,128 C142.803,127.220304 143.397888,126.579551 144.15854,126.506867 L144.303,126.5 Z" id="Stroke-46" fill="#000" fill-rule="nonzero"/>
            <polygon id="Fill-45" fill="#000" points="57 178.854 74.457 149 91.674 178.854"/>
            <path d="M141.9753,67.6978 C142.754996,67.6978 143.395749,68.2926881 143.468433,69.05334 L143.4753,69.1978 L143.4753,91.4448 C143.4753,92.2732271 142.803727,92.9448 141.9753,92.9448 C141.195604,92.9448 140.554851,92.3499119 140.482167,91.58926 L140.4753,91.4448 L140.4753,69.1978 C140.4753,68.3693729 141.146873,67.6978 141.9753,67.6978 Z" id="Stroke-47" fill="#000" fill-rule="nonzero"/>
            <path d="M175.08314,79.3659398 C175.668926,78.7801534 176.618674,78.7801534 177.20446,79.3659398 C177.753635,79.9151146 177.787958,80.784177 177.30743,81.3733378 L177.20446,81.4872602 L159.13846,99.5532602 C158.552674,100.139047 157.602926,100.139047 157.01714,99.5532602 C156.467965,99.0040854 156.433642,98.135023 156.91417,97.5458622 L157.01714,97.4319398 L175.08314,79.3659398 Z" id="Stroke-48" fill="#000" fill-rule="nonzero"/>
            <path d="M552.0462,78.9262 C552.825896,78.9262 553.466649,79.5210881 553.539333,80.28174 L553.5462,80.4262 L553.5462,121.6352 C553.5462,122.414896 552.951312,123.055649 552.19066,123.128333 L552.0462,123.1352 L423.7282,123.1352 C422.899773,123.1352 422.2282,122.463627 422.2282,121.6352 C422.2282,120.855504 422.823088,120.214751 423.58374,120.142067 L423.7282,120.1352 L550.546,120.135 L550.546,81.926 L383.7282,81.9262 C382.948504,81.9262 382.307751,81.3313119 382.235067,80.57066 L382.2282,80.4262 C382.2282,79.6465039 382.823088,79.0057513 383.58374,78.9330666 L383.7282,78.9262 L552.0462,78.9262 Z" id="Stroke-49" fill="#000" fill-rule="nonzero"/>
            <path d="M552.0466,120.1351 C552.826296,120.1351 553.467049,120.729988 553.539733,121.49064 L553.5466,121.6351 L553.5466,278.2251 C553.5466,279.004796 552.951712,279.645549 552.19106,279.718233 L552.0466,279.7251 L428.5456,279.7251 C427.717173,279.7251 427.0456,279.053527 427.0456,278.2251 C427.0456,277.445404 427.640488,276.804651 428.40114,276.731967 L428.5456,276.7251 L550.546,276.725 L550.5466,121.6351 C550.5466,120.855404 551.141488,120.214651 551.90214,120.141967 L552.0466,120.1351 Z" id="Stroke-50" fill="#000" fill-rule="nonzero"/>
            <path d="M521.98884,93.0306398 C522.538015,92.481465 523.407077,92.4471416 523.996238,92.9276696 L524.11016,93.0306398 L536.88816,105.80864 C537.473947,106.394426 537.473947,107.344174 536.88816,107.92996 C536.338985,108.479135 535.469923,108.513458 534.880762,108.03293 L534.76684,107.92996 L521.98884,95.1519602 C521.403053,94.5661737 521.403053,93.6164263 521.98884,93.0306398 Z" id="Stroke-51" fill="#000" fill-rule="nonzero"/>
            <path d="M534.76714,93.0306398 C535.352926,92.4448534 536.302674,92.4448534 536.88846,93.0306398 C537.437635,93.5798146 537.471958,94.448877 536.99143,95.0380378 L536.88846,95.1519602 L524.11046,107.92996 C523.524674,108.515747 522.574926,108.515747 521.98914,107.92996 C521.439965,107.380785 521.405642,106.511723 521.88617,105.922562 L521.98914,105.80864 L534.76714,93.0306398 Z" id="Stroke-52" fill="#000" fill-rule="nonzero"/>
            <path d="M505.8542,164.8716 C505.8542,168.5116 502.9032,171.4626 499.2632,171.4626 C495.6232,171.4626 492.6712,168.5116 492.6712,164.8716 C492.6712,161.2306 495.6232,158.2796 499.2632,158.2796 C502.9032,158.2796 505.8542,161.2306 505.8542,164.8716" id="Fill-53" fill="#000"/>
            <path d="M472.6071,164.8716 C472.6071,168.5116 469.6561,171.4626 466.0161,171.4626 C462.3761,171.4626 459.4241,168.5116 459.4241,164.8716 C459.4241,161.2306 462.3761,158.2796 466.0161,158.2796 C469.6561,158.2796 472.6071,161.2306 472.6071,164.8716" id="Fill-54" fill="#000"/>
            <path d="M439.36,164.8716 C439.36,168.5116 436.409,171.4626 432.769,171.4626 C429.129,171.4626 426.177,168.5116 426.177,164.8716 C426.177,161.2306 429.129,158.2796 432.769,158.2796 C436.409,158.2796 439.36,161.2306 439.36,164.8716" id="Fill-55" fill="#000"/>
            <path d="M505.8542,197.5913 C505.8542,201.2323 502.9032,204.1823 499.2632,204.1823 C495.6232,204.1823 492.6712,201.2323 492.6712,197.5913 C492.6712,193.9503 495.6232,191.0003 499.2632,191.0003 C502.9032,191.0003 505.8542,193.9503 505.8542,197.5913" id="Fill-56" fill="#000"/>
            <path d="M472.6071,197.5913 C472.6071,201.2323 469.6561,204.1823 466.0161,204.1823 C462.3761,204.1823 459.4241,201.2323 459.4241,197.5913 C459.4241,193.9503 462.3761,191.0003 466.0161,191.0003 C469.6561,191.0003 472.6071,193.9503 472.6071,197.5913" id="Fill-57" fill="#000"/>
            <path d="M439.36,197.5913 C439.36,201.2323 436.409,204.1823 432.769,204.1823 C429.129,204.1823 426.177,201.2323 426.177,197.5913 C426.177,193.9503 429.129,191.0003 432.769,191.0003 C436.409,191.0003 439.36,193.9503 439.36,197.5913" id="Fill-58" fill="#000"/>
            <path d="M505.8542,230.311 C505.8542,233.952 502.9032,236.903 499.2632,236.903 C495.6232,236.903 492.6712,233.952 492.6712,230.311 C492.6712,226.671 495.6232,223.72 499.2632,223.72 C502.9032,223.72 505.8542,226.671 505.8542,230.311" id="Fill-59" fill="#000"/>
            <path d="M472.6071,230.311 C472.6071,233.952 469.6561,236.903 466.0161,236.903 C462.3761,236.903 459.4241,233.952 459.4241,230.311 C459.4241,226.671 462.3761,223.72 466.0161,223.72 C469.6561,223.72 472.6071,226.671 472.6071,230.311" id="Fill-60" fill="#000"/>
            <path d="M657.1599,159.9624 C661.250877,159.9624 664.636399,161.132343 667.674282,163.381932 C669.848284,164.991808 671.314763,166.564347 674.233553,170.152483 L675.142961,171.268166 C680.566568,177.852066 683.628588,179.9624 689.5699,179.9624 C690.398327,179.9624 691.0699,180.633973 691.0699,181.4624 C691.0699,182.290827 690.398327,182.9624 689.5699,182.9624 C685.478923,182.9624 682.093401,181.792457 679.055518,179.542868 L678.629511,179.220782 C676.67953,177.714362 675.220451,176.121244 672.496247,172.772317 L671.586839,171.656634 C666.163232,165.072734 663.101212,162.9624 657.1599,162.9624 C651.218588,162.9624 648.156568,165.072734 642.732961,171.656634 L641.258519,173.463678 C638.706088,176.570291 637.293351,178.040317 635.264282,179.542868 C632.226399,181.792457 628.840877,182.9624 624.7499,182.9624 C620.659352,182.9624 617.274184,181.792435 614.236634,179.542815 L613.810678,179.220728 C611.860928,177.7143 610.402026,176.12118 607.678154,172.772247 L607.38139,172.406638 C601.568794,165.231923 598.504371,162.9624 592.3439,162.9624 C586.292984,162.9624 583.228657,165.151706 577.61432,172.026979 L576.443725,173.463676 C573.891408,176.570436 572.478749,178.040509 570.449925,179.543005 C567.412423,181.792502 564.02733,182.9624 559.9369,182.9624 C555.846349,182.9624 552.461177,181.792432 549.423646,179.542812 L548.997687,179.220721 C547.047921,177.714266 545.588945,176.121037 542.865245,172.772217 L542.25936,172.026498 L541.656803,171.294972 C536.41886,164.995231 533.361777,162.9624 527.5319,162.9624 C526.703473,162.9624 526.0319,162.290827 526.0319,161.4624 C526.0319,160.633973 526.703473,159.9624 527.5319,159.9624 C531.622115,159.9624 535.007031,161.132309 538.044366,163.381821 L538.470298,163.703897 C540.35031,165.15648 541.774006,166.689748 544.315386,169.799986 L544.899175,170.517717 C550.711867,177.692772 553.776412,179.9624 559.9369,179.9624 C565.877203,179.9624 568.938871,177.852122 574.361641,171.268634 L576.132787,169.101455 C578.500701,166.238751 579.881091,164.825315 581.830088,163.381961 C584.867786,161.132356 588.253134,159.9624 592.3439,159.9624 C596.434448,159.9624 599.819616,161.132365 602.857166,163.381985 C605.030912,164.991869 606.497211,166.564411 609.415646,170.152553 L610.324939,171.268232 C615.747842,177.852091 618.809446,179.9624 624.7499,179.9624 C630.691212,179.9624 633.753232,177.852066 639.176839,171.268166 L640.920474,169.134457 C643.305408,166.249466 644.688916,164.83082 646.645518,163.381932 C649.683401,161.132343 653.068923,159.9624 657.1599,159.9624 Z" id="Stroke-61" fill="#000" fill-rule="nonzero"/>
            <path d="M657.1599,195.0913 C661.250877,195.0913 664.636399,196.261243 667.674282,198.510832 L668.100289,198.832918 C669.841343,200.177936 671.191054,201.592069 673.399326,204.263357 L675.142961,206.397066 C680.566568,212.980966 683.628588,215.0913 689.5699,215.0913 C690.398327,215.0913 691.0699,215.762873 691.0699,216.5913 C691.0699,217.419727 690.398327,218.0913 689.5699,218.0913 C685.478923,218.0913 682.093401,216.921357 679.055518,214.671768 L678.629511,214.349682 C676.67953,212.843262 675.220451,211.250144 672.496247,207.901217 L672.199447,207.535609 C666.386098,200.36085 663.321261,198.0913 657.1599,198.0913 C651.108564,198.0913 648.044147,200.280518 642.429187,207.155924 L641.258519,208.592578 C638.706088,211.699191 637.293351,213.169217 635.264282,214.671768 C632.226399,216.921357 628.840877,218.0913 624.7499,218.0913 C620.659352,218.0913 617.274184,216.921335 614.236634,214.671715 L613.810678,214.349628 C611.860928,212.8432 610.402026,211.25008 607.678154,207.901147 L607.38139,207.535538 C601.568794,200.360823 598.504371,198.0913 592.3439,198.0913 C586.292984,198.0913 583.228657,200.280606 577.61432,207.155879 L576.443725,208.592576 C573.891408,211.699336 572.478749,213.169409 570.449925,214.671905 C567.412423,216.921402 564.02733,218.0913 559.9369,218.0913 C555.846349,218.0913 552.461177,216.921332 549.423646,214.671712 L548.997687,214.349621 C547.047921,212.843166 545.588945,211.249937 542.865245,207.901117 L542.25936,207.155398 L541.656803,206.423872 C536.41886,200.124131 533.361777,198.0913 527.5319,198.0913 C526.703473,198.0913 526.0319,197.419727 526.0319,196.5913 C526.0319,195.762873 526.703473,195.0913 527.5319,195.0913 C531.622115,195.0913 535.007031,196.261209 538.044366,198.510721 L538.470298,198.832797 C540.35031,200.28538 541.774006,201.818648 544.315386,204.928886 L544.899175,205.646617 C550.711867,212.821672 553.776412,215.0913 559.9369,215.0913 C565.877203,215.0913 568.938871,212.981022 574.361641,206.397534 L576.132787,204.230355 C578.500701,201.367651 579.881091,199.954215 581.830088,198.510861 C584.867786,196.261256 588.253134,195.0913 592.3439,195.0913 C596.434448,195.0913 599.819616,196.261265 602.857166,198.510885 L603.283122,198.832972 C605.232872,200.3394 606.691774,201.93252 609.415646,205.281453 L610.324939,206.397132 C615.747842,212.980991 618.809446,215.0913 624.7499,215.0913 C630.691212,215.0913 633.753232,212.980966 639.176839,206.397066 L640.920474,204.263357 C643.305408,201.378366 644.688916,199.95972 646.645518,198.510832 C649.683401,196.261243 653.068923,195.0913 657.1599,195.0913 Z" id="Stroke-62" fill="#000" fill-rule="nonzero"/>
            <path d="M684.6697,653.3647 C685.498127,653.3647 686.1697,654.036273 686.1697,654.8647 C686.1697,655.644396 685.574812,656.285149 684.81416,656.357833 L684.6697,656.3647 L0.4997,656.3647 C-0.328727125,656.3647 -1.0003,655.693127 -1.0003,654.8647 C-1.0003,654.085004 -0.405411917,653.444251 0.355239989,653.371567 L0.4997,653.3647 L684.6697,653.3647 Z" id="Stroke-63" fill="#000" fill-rule="nonzero"/>
            <polygon id="Fill-74" fill="#000" points="248.578 654.865 288.079 654.865 288.079 643.63 248.578 643.63"/>
            <polygon id="Fill-75" fill="#000" points="323.767 654.865 363.268 654.865 363.268 643.63 323.767 643.63"/>
            <path d="M440.069651,371.695441 C440.628348,371.09287 441.558395,371.05747 442.160726,371.589205 L442.269652,371.695552 L456.001593,386.5093 L469.735617,371.695478 C470.29428,371.092902 471.2243,371.057456 471.826653,371.589141 L471.935583,371.695478 L485.6696,386.5093 L499.40672,371.695367 C499.965431,371.092861 500.895428,371.057495 501.497731,371.58921 L501.606652,371.695552 L515.3386,386.5093 L529.07572,371.695367 C529.634431,371.092861 530.564428,371.057495 531.166731,371.58921 L531.275652,371.695552 L545.0076,386.5083 L558.750925,371.695145 C559.309553,371.092973 560.239141,371.057566 560.841393,371.588913 L560.950309,371.695182 L575.792309,387.695182 C576.355704,388.302535 576.32007,389.251614 575.712718,389.815009 C575.143325,390.343192 574.273586,390.344884 573.70287,389.84259 L573.592891,389.735418 L559.8496,374.9203 L546.107275,389.735455 C545.548519,390.337765 544.618671,390.37303 544.016454,389.841377 L543.907548,389.735048 L530.1746,374.9203 L516.43848,389.735233 C515.879769,390.337739 514.949772,390.373105 514.347469,389.84139 L514.238548,389.735048 L500.5056,374.9203 L486.76948,389.735233 C486.210794,390.337711 485.280849,390.373106 484.67854,389.841452 L484.569617,389.735122 L470.8356,374.9203 L457.101583,389.735122 C456.542894,390.337726 455.612822,390.373143 455.010477,389.841397 L454.901548,389.735048 L441.1686,374.9213 L427.434549,389.735159 C426.875865,390.337717 425.945844,390.373131 425.343509,389.841426 L425.234582,389.735085 L410.401582,373.735085 C409.838371,373.127562 409.874292,372.178494 410.481815,371.615282 C411.051368,371.087272 411.921106,371.085842 412.491671,371.58831 L412.601618,371.695515 L426.3346,386.5093 L440.069651,371.695441 Z M608.8629,387.1206 C609.691327,387.1206 610.3629,387.792173 610.3629,388.6206 C610.3629,389.400296 609.768012,390.041049 609.00736,390.113733 L608.8629,390.1206 L589.0349,390.1206 C588.206473,390.1206 587.5349,389.449027 587.5349,388.6206 C587.5349,387.840904 588.129788,387.200151 588.89044,387.127467 L589.0349,387.1206 L608.8629,387.1206 Z" id="Combined-Shape" stroke="#FFF" stroke-width="3" stroke-linecap="round" stroke-linejoin="round"/>
            <path d="M321.0241,95.9506 C323.1601,96.4466 326.3981,96.9356 330.2991,96.5256 C333.7821,96.1596 336.5701,95.2056 338.4721,94.3846 C337.6861,96.1016 335.5811,100.0876 331.0181,103.1126 C326.7751,105.9266 322.6281,106.4366 320.7381,106.5536 C320.8341,103.0186 320.9281,99.4846 321.0241,95.9506" id="Fill-78" fill="#000"/>
            <path d="M337.87764,93.0074226 C335.548755,94.0126879 332.993462,94.7342126 330.14234,95.0338137 C326.982174,95.3659511 324.072357,95.1185248 321.363387,94.4894757 C320.439196,94.2748694 319.550417,94.9614364 319.524653,95.909868 L319.238653,106.51288 C319.214735,107.393596 319.951421,108.105171 320.83078,108.050734 C324.438312,107.827411 328.159593,106.808295 331.847156,104.362666 C335.786152,101.751344 338.24908,98.4755135 339.835985,95.0089529 C340.40783,93.7597698 339.138997,92.4629567 337.87764,93.0074226 Z M335.147,97.137 L335.061104,97.2575078 C333.821792,98.9410394 332.234446,100.506552 330.189277,101.862379 L329.772786,102.131525 C327.272747,103.704992 324.754296,104.537862 322.283,104.89 L322.475,97.77 L322.850744,97.8324755 C325.238961,98.2056497 327.765591,98.3001369 330.455888,98.0173833 C331.937166,97.8617279 333.346605,97.6038083 334.69211,97.2592528 L335.147,97.137 Z" id="Stroke-79" fill="#000" fill-rule="nonzero"/>
            <g id="Group" transform="translate(462.000000, 423.000000)" fill="#000">
                <path d="M125.0425,96.627 C125.0425,105.69 117.6955,113.037 108.6335,113.037 C99.5705,113.037 92.2245,105.69 92.2245,96.627 C92.2245,87.564 99.5705,80.218 108.6335,80.218 C117.6955,80.218 125.0425,87.564 125.0425,96.627" id="Fill-41"/>
                <polygon id="Fill-43" points="114.569 207.9136 146.707 207.9136 146.707 175.7756 114.569 175.7756"/>
                <polygon id="Fill-44" points="0 35.9576 125.043 35.9576 125.043 14.0756 0 14.0756"/>
                <polygon id="Fill-45" points="20.689 111.3428 38.146 81.4888 55.363 111.3428"/>
                <path d="M145.3023,-0.933788995 C146.081996,-0.933788995 146.722749,-0.338900912 146.795433,0.421750994 L146.8023,0.566211005 L146.8023,135.129 C146.8023,135.908696 146.207412,136.549449 145.44676,136.622133 L145.3023,136.629 L74.7283,136.629 C73.9486039,136.629 73.3078513,136.034112 73.2351666,135.27346 L73.2283,135.129 L73.228,61.036 L2.499,61.036 L2.499,190.346 L130.6373,190.346 C131.416996,190.346 132.057749,190.940888 132.130433,191.70154 L132.1373,191.846 C132.1373,192.625696 131.542412,193.266449 130.78176,193.339133 L130.6373,193.346 L0.9993,193.346 C0.219603883,193.346 -0.421148678,192.751112 -0.493833422,191.99046 L-0.5007,191.846 L-0.5007,59.536 C-0.5007,58.7563039 0.0941880833,58.1155513 0.854839989,58.0428666 L0.9993,58.036 L74.7283,58.036 C75.5079961,58.036 76.1487487,58.6308881 76.2214334,59.39154 L76.2283,59.536 L76.228,133.629 L143.802,133.629 L143.8023,0.566211005 C143.8023,-0.213485113 144.397188,-0.854237673 145.15784,-0.926922417 L145.3023,-0.933788995 Z" id="Stroke-46" fill-rule="nonzero"/>
            </g>
        </g>
        <g id="Element" transform="translate(132.000000, 379.000000) scale(1 1)" fill="#000">
            <g id="Element/Shapes" stroke="none" stroke-width="1" fill="none" fill-rule="evenodd">
                <g id="Group" transform="translate(-3.000000, 237.000000)" fill="#000">
                    <path d="M257.279,92.8796 L257.279,165.8486 L0,165.8486 C2.217,163.3996 21.96,135.3656 47.421,135.3656 C73.146,135.3656 86.55,151.4126 108.09,134.5016 C115.538,128.6546 126.984,120.4846 136.215,120.4846 C145.125,120.4846 153.486,124.4716 161.989,127.1096 C170.97,129.8986 179.425,129.8376 188.356,126.5556 C195.539,123.9156 202.28,119.8316 208.996,115.8016 C224.374,106.5716 240.259,96.8566 257.279,92.8796" id="Fill-30"/>
                    <path d="M197.2591,42.2897 C220.495914,42.2897 239.3301,61.1296587 239.3301,84.3697 C239.3301,107.609741 220.495914,126.4497 197.2591,126.4497 C183.959362,126.4497 171.692582,120.241281 163.786161,109.869038 C163.283947,109.210196 163.41092,108.268975 164.069762,107.766761 C164.728604,107.264547 165.669825,107.39152 166.172039,108.050362 C173.516811,117.685791 184.905316,123.4497 197.2591,123.4497 C218.838853,123.4497 236.3301,105.953093 236.3301,84.3697 C236.3301,62.7863072 218.838853,45.2897 197.2591,45.2897 C177.659986,45.2897 161.169916,59.7949608 158.545318,79.022571 C158.433275,79.8433864 157.677044,80.4179604 156.856229,80.3059178 C156.035414,80.1938753 155.46084,79.4376444 155.572882,78.616829 C158.399689,57.9078499 176.154929,42.2897 197.2591,42.2897 Z" id="Stroke-32" fill-rule="nonzero"/>
                    <path d="M36.7993965,98.4770693 C36.9830131,97.7808685 37.6318138,97.3201239 38.3375617,97.3620926 L38.4793496,97.3772684 L57.728682,100.358165 L83.888682,104.397165 C84.7074082,104.523573 85.2686429,105.289756 85.1422348,106.108482 C85.0232625,106.879048 84.3375695,107.421524 83.5747341,107.377292 L83.430918,107.362035 L57.2702504,103.322932 L39.356,100.548 L27.080047,147.092724 L24.150047,158.183724 C23.9384537,158.984673 23.1176257,159.46244 22.3166764,159.250847 C21.5628418,159.0517 21.0952859,158.312886 21.2192945,157.558899 L21.249553,157.417476 L24.1793965,146.327069 L36.7993965,98.4770693 Z" id="Stroke-34" fill-rule="nonzero"/>
                    <path d="M89.963364,-1.18025966 C90.4353945,-1.55049654 91.0779432,-1.60126701 91.5982887,-1.32180804 L91.7256598,-1.24505729 L149.63566,37.6649427 C150.133494,37.99944 150.380286,38.5946977 150.275401,39.1758217 L150.241794,39.3206492 L138.881794,79.2306492 C138.654999,80.0274273 137.825229,80.4894897 137.028451,80.2626944 C136.278542,80.0492401 135.825129,79.3016626 135.963462,78.5501718 L135.996406,78.4093508 L147.058,39.547 L90.956,1.853 L37.773,43.567 L58.604,100.493 L83.888982,104.397565 C84.6595478,104.516537 85.2020243,105.202231 85.1577915,105.965066 L85.1425348,106.108882 C85.0235625,106.879448 84.3378695,107.421924 83.5750341,107.377692 L83.431218,107.362435 L57.271218,103.323435 C56.7802869,103.247637 56.3621329,102.934598 56.1490823,102.492775 L56.0914525,102.356473 L34.5814525,43.5754728 C34.3753435,43.0122327 34.5255994,42.3856135 34.952045,41.9771487 L35.064364,41.8797403 L89.963364,-1.18025966 Z" id="Stroke-36" fill-rule="nonzero"/>
                    <path d="M164.9786,77.3165 L83.6606,77.3165 C82.8321729,77.3165 82.1606,77.9880729 82.1606,78.8165 L82.1606,149.4305 C82.1606,150.258927 82.8321729,150.9305 83.6606,150.9305 L164.9786,150.9305 C165.807027,150.9305 166.4786,150.258927 166.4786,149.4305 L166.4786,78.8165 C166.4786,77.9880729 165.807027,77.3165 164.9786,77.3165 Z M163.478,80.316 L163.478,147.93 L85.16,147.93 L85.16,80.316 L163.478,80.316 Z" id="Stroke-38" fill-rule="nonzero"/>
                </g>
            </g>
        </g>
    </g>
</svg>
