<svg viewBox="0 261.469 535.087 421.725" xmlns="http://www.w3.org/2000/svg" xmlns:xlink="http://www.w3.org/1999/xlink" overflow="visible">
    <defs>
        <polygon id="mastercharactersitting-on-wheelchair-path-1" points="0.2149 0.191865428 385.0909 0.191865428 385.0909 48 0.2149 48"/>
    </defs>
    <g id="Master/Character/Sitting On Wheelchair" stroke="none" stroke-width="1" fill="none" fill-rule="evenodd">
        <g id="Head" transform="translate(232.700000, 335.600000) scale(1 1)" fill="#000">
            <g id="Head/Ponytail 1" stroke="none" stroke-width="1" fill="none" fill-rule="evenodd">
                <path d="M140.421393,55.3199881 C140.4561,53.4859881 137.3431,53.7749881 135.5881,50.9469881 C133.7431,47.9779881 137.1181,43.5719881 136.2021,39.3739881 C135.3171,35.3229881 129.3191,29.9239881 119.2691,32.8829881 C115.4211,34.0149881 112.9571,36.3409881 111.4051,39.2219881 C105.7701,32.4019881 97.1301,29.8799881 90.3091,37.7159881 C83.7151,45.2909881 84.3661,65.5409881 89.1501,65.2079881 C90.3091,65.1269881 91.1211,62.0729881 91.1211,62.0729881 C91.1211,62.0729881 91.7381,65.5389881 93.2071,65.5409881 C94.7421,65.5419881 95.4681,62.0749881 95.4681,62.0749881 C95.4681,62.0749881 96.4031,65.4919881 97.9171,65.2909881 C99.8001,65.0409881 100.5981,61.3739881 100.6691,54.5409881 C100.7451,47.5889881 101.9601,42.5739881 109.4071,45.4049881 C108.5331,50.6319881 109.1461,56.2059881 109.4561,59.6949881 C109.8121,63.7009881 109.7761,68.2799881 109.7351,72.3889881 L126.5811,72.3889881 C126.8721,66.8629881 133.1321,69.1309881 135.1201,66.5909881 C136.7691,64.4879881 135.1301,59.6599881 135.4991,57.4879881 C138.8101,57.3619881 140.4011,56.3449881 140.421393,55.3199881" id="Fill-33" fill="#000"/>
            </g>
        </g>
        <g id="Sitting Pose" transform="translate(-0.000000, 264.000000) scale(1 1)">
            <defs>
                <polygon id="sitting-posewheelchair-with-rainbow-flag-path-1" points="0.2149 0.191865428 385.0909 0.191865428 385.0909 48 0.2149 48"/>
            </defs>
            <g id="Sitting Pose/Wheelchair with Rainbow Flag" stroke="none" stroke-width="1" fill="none" fill-rule="evenodd">
                <g id="Group-68">
                    <path d="M70.7627,195.5293 C127.4397,113.3683 222.5167,205.6613 279.3167,83.8143 L292.8257,104.2683 C235.4727,224.7933 131.9087,137.1683 88.4527,216.3213" id="Fill-5" fill="#33F"/>
                    <path d="M53.0718,174.7383 C122.9718,89.5663 209.5618,186.5293 265.8058,63.3603 L279.3168,83.8143 C222.5168,205.6613 127.4398,113.3683 70.7628,195.5293" id="Fill-7" fill="#33DF33"/>
                    <path d="M0,112.3652 C109.562,18.1652 170.694,129.1342 225.275,1.9992 L238.785,22.4532 C183.649,148.2662 114.032,41.9652 17.691,133.1562" id="Fill-9" fill="#F33"/>
                    <path d="M17.6909,133.1562 C114.0319,41.9652 183.6489,148.2662 238.7849,22.4532 L252.2949,42.9082 C196.6059,167.3982 118.5019,65.7672 35.3799,153.9462" id="Fill-11" fill="#FF8D00"/>
                    <path d="M35.3804,153.9463 C118.5024,65.7673 196.6054,167.3983 252.2954,42.9083 L265.8054,63.3603 C209.5614,186.5293 122.9714,89.5663 53.0714,174.7383" id="Fill-13" fill="#FFF000"/>
                    <path d="M106.1436,237.1103 C136.3796,160.9693 248.4286,243.9253 306.3356,124.7213 L292.8266,104.2683 C235.4726,224.7933 131.9096,137.1683 88.4536,216.3213" id="Fill-15" fill="#B633FF"/>
                    <g id="Group-19" transform="translate(220.000000, 388.549000)">
                        <mask id="sitting-posewheelchair-with-rainbow-flag-mask-2" fill="#fff">
                            <use xlink:href="#sitting-posewheelchair-with-rainbow-flag-path-1"/>
                        </mask>
                        <g id="Clip-18"/>
                    </g>
                    <path d="M418.6635,243.9784 C418.894333,243.779233 419.650861,243.830846 420.027412,243.857752 L422.997308,244.083387 C435.071214,244.97066 446.578071,245.402114 458.5195,247.8814 L463.159139,248.827979 C473.857909,251.031838 486.9435,254.236162 492.4185,263.8374 C497.44198,272.64466 504.597548,314.569393 505.695892,326.60256 L505.7555,327.3014 C505.7775,327.575554 505.780169,328.14111 505.768353,328.937486 L505.7605,329.3944 L505.9505,329.3694 L506.235314,332.158959 C508.396036,353.996104 507.8185,364.42996 510.8905,370.7074 C515.2685,379.6444 526.8295,375.6144 531.9005,381.8094 L530.84961,381.963428 C521.316491,383.325033 509.792071,383.965043 499.2505,379.3384 C499.9715,380.5054 500.7365,381.5954 501.5635,382.5654 C508.0205,390.1384 518.2195,383.3654 524.6695,388.1094 C514.61301,392.358869 504.91637,394.811008 494.447801,393.445719 L493.7925,393.3554 L495.2615,397.9904 L486.0935,401.2364 C482.9955,395.8544 479.8955,390.2904 476.8765,384.6104 L466.750347,368.959441 C464.987639,366.25649 463.557238,364.102056 462.7545,362.9924 C458.2525,356.7694 453.9355,350.4824 450.5125,343.6744 L449.121894,340.882078 C444.073472,330.675292 433.602426,308.934463 431.8435,304.6064 L431.410155,304.53287 C423.969045,303.331251 392.484663,300.938788 383.1325,299.6134 C371.6015,297.9794 360.9805,291.9294 352.9995,283.6624 C346.8415,277.2844 343.8695,267.9654 342.2375,259.6584 C351.0935,264.8494 359.1655,273.0004 370.1995,271.8814 C374.6075,271.4354 378.2135,268.9124 382.6985,269.1194 C387.2415,269.3294 391.9175,270.0734 396.5345,269.6184 C400.7495,269.2034 402.7115,266.5584 405.8275,264.0694 C410.8275,260.0744 415.1705,250.3574 418.0135,246.0204 C418.5445,245.2094 418.2425,244.3404 418.6635,243.9784 Z M422.4727,264.2285 C436.4937,268.0825 456.2377,264.3175 464.8467,278.3255 C469.7917,286.3735 471.7267,296.3855 474.0207,305.4695 C479.0107,325.2345 485.6087,344.4195 492.6877,363.5295 C493.3247,365.2485 496.1277,362.7775 495.5467,361.2085 C488.3317,341.7335 481.7877,322.2035 476.6707,302.0815 L475.545369,297.623796 C473.45573,289.394624 471.093854,280.952808 466.3757,273.9365 C462.6187,268.3475 457.3547,266.4995 450.9797,265.1895 C442.1187,263.3675 433.0287,263.4195 424.2617,261.0095 C422.6397,260.5645 420.6597,263.7305 422.4727,264.2285 Z" id="Shape" fill="#33F"/>
                    <path d="M365.8076,288.6279 C350.2196,288.6279 335.5346,295.1749 323.3366,307.5619 C300.1916,331.0659 304.9516,354.1959 309.8486,365.8919 C319.0606,387.8899 342.5496,403.8569 365.7016,403.8569 C380.6636,403.8569 394.2916,397.3829 405.1116,385.1339 C422.5556,365.3849 427.3456,342.4939 418.2536,322.3319 C409.1626,302.1729 388.0856,288.6279 365.8076,288.6279 M365.7016,410.1369 C340.1276,410.1369 314.2036,392.5489 304.0566,368.3159 C294.6976,345.9659 300.0936,322.2149 318.8626,303.1549 C332.2666,289.5429 348.4996,282.3479 365.8076,282.3479 C390.5126,282.3479 413.8896,297.3789 423.9786,319.7499 C434.1306,342.2629 428.9696,367.6089 409.8186,389.2919 C397.7726,402.9289 382.5166,410.1369 365.7016,410.1369" id="Fill-24" fill="#000"/>
                    <path d="M367.1846,344.9609 C356.4846,334.5179 344.4416,325.7319 332.9066,316.2659 C331.5376,315.1419 329.1306,318.0179 330.4966,319.1389 C342.0316,328.6059 354.0746,337.3909 364.7746,347.8339 C366.0236,349.0529 368.4596,346.2069 367.1846,344.9609" id="Fill-26" fill="#000"/>
                    <path d="M364.5498,347.5586 C375.1578,361.2146 385.7668,374.8726 396.3738,388.5296 C397.5618,390.0586 400.2458,387.5116 399.2338,386.2086 C388.6248,372.5506 378.0168,358.8946 367.4088,345.2366 C366.2218,343.7066 363.5368,346.2536 364.5498,347.5586" id="Fill-28" fill="#000"/>
                    <path d="M412.5957,363.0928 C401.0467,358.4828 389.4977,353.8708 377.9487,349.2598 C376.3917,348.6388 374.3757,351.7668 376.1587,352.4788 C387.7077,357.0898 399.2567,361.7008 410.8067,366.3118 C412.3627,366.9338 414.3787,363.8048 412.5957,363.0928" id="Fill-30" fill="#000"/>
                    <path d="M364.9737,345.5537 C354.5477,357.4337 344.1217,369.3127 333.6967,381.1927 C332.1607,382.9427 334.1807,384.6177 335.7057,382.8797 C346.1327,370.9997 356.5587,359.1207 366.9857,347.2407 C368.5207,345.4917 366.4987,343.8157 364.9737,345.5537" id="Fill-32" fill="#000"/>
                    <path d="M364.416,346.8164 C360.546,365.8064 356.675,384.7974 352.804,403.7884 C352.351,406.0124 355.604,404.5504 355.931,402.9504 C359.801,383.9594 363.672,364.9684 367.543,345.9784 C367.996,343.7534 364.742,345.2164 364.416,346.8164" id="Fill-34" fill="#000"/>
                    <path d="M349.4453,350.5068 C335.5283,354.5068 321.6113,358.5068 307.6953,362.5068 C306.0883,362.9688 305.1973,366.3678 307.4123,365.7318 C321.3293,361.7318 335.2463,357.7318 349.1623,353.7318 C350.7693,353.2698 351.6603,349.8698 349.4453,350.5068" id="Fill-36" fill="#000"/>
                    <path d="M366.1983,345.2598 C348.5323,340.5938 330.8653,335.9258 313.1983,331.2598 C311.5723,330.8298 309.5953,333.9998 311.4093,334.4788 C329.0753,339.1448 346.7423,343.8128 364.4093,348.4788 C366.0353,348.9078 368.0113,345.7388 366.1983,345.2598" id="Fill-38" fill="#000"/>
                    <path d="M425.8369,338.9531 C406.0629,340.8791 386.2869,342.8051 366.5129,344.7311 C364.9019,344.8891 363.4059,348.2621 365.4459,348.0631 C385.2209,346.1371 404.9959,344.2111 424.7709,342.2851 C426.3809,342.1291 427.8769,338.7541 425.8369,338.9531" id="Fill-40" fill="#000"/>
                    <path d="M407.544,318.666 C393.603,327.426 379.661,336.185 365.72,344.943 C364.205,345.895 364.162,349.156 366.239,347.852 L408.064,321.572 C409.578,320.621 409.621,317.36 407.544,318.666" id="Fill-42" fill="#000"/>
                    <path d="M364.4317,347.2119 C369.2097,366.2749 373.9887,385.3379 378.7667,404.3999 C379.2807,406.4489 382.2627,404.3679 381.8627,402.7719 C377.0837,383.7089 372.3057,364.6469 367.5277,345.5829 C367.0137,343.5329 364.0317,345.6149 364.4317,347.2119" id="Fill-44" fill="#000"/>
                    <path d="M350.3399,296.3818 C353.9939,308.6698 357.6489,320.9568 361.3039,333.2448 C361.9069,335.2778 364.8689,333.1938 364.3999,331.6158 C360.7449,319.3278 357.0909,307.0408 353.4359,294.7528 C352.8309,292.7208 349.8699,294.8048 350.3399,296.3818" id="Fill-46" fill="#000"/>
                    <path d="M378.5576,306.6152 C374.0646,319.6992 369.5716,332.7822 365.0776,345.8652 C364.2786,348.1932 367.4406,347.5902 368.0306,345.8732 C372.5236,332.7892 377.0166,319.7062 381.5106,306.6232 C382.3096,304.2952 379.1476,304.8982 378.5576,306.6152" id="Fill-48" fill="#000"/>
                    <path d="M315.4893,244.9551 C319.8873,258.9711 327.0253,271.8911 331.2743,285.9551 C332.0923,288.6601 336.0383,285.8831 335.4033,283.7831 C331.1513,269.7111 324.0153,256.7951 319.6183,242.7831 C318.7703,240.0851 314.8333,242.8631 315.4893,244.9551" id="Fill-50" fill="#000"/>
                    <path d="M272.9483,188.7012 C280.5183,188.6212 288.4193,187.3412 295.7153,189.9212 C298.8843,191.0412 302.8933,184.7562 299.2953,183.4832 C291.4953,180.7262 283.1693,181.9512 275.0813,182.0372 C271.8043,182.0722 268.7693,188.7452 272.9483,188.7012" id="Fill-52" fill="#000"/>
                    <path d="M467.9209,395.8213 C459.0609,378.7013 449.7799,362.5333 436.4459,348.4543 C434.8599,346.7793 431.5949,350.5553 433.2319,352.2843 C446.3509,366.1343 455.3989,382.0863 464.1079,398.9173 C465.2709,401.1603 468.9519,397.8143 467.9209,395.8213" id="Fill-54" fill="#000"/>
                    <path d="M407.7627,267.1308 C414.9737,256.4168 421.1887,244.4598 421.6187,231.2958 C422.0527,218.0738 412.6817,206.2678 407.6167,194.6048 C404.7297,187.9538 402.3667,181.0978 400.4117,174.1188 C399.2647,170.0218 398.5917,165.8278 396.8557,161.9228 C393.9897,155.4748 388.4487,150.8648 382.2927,147.7078 C371.5587,142.2028 358.4557,141.6308 346.6607,141.9198 C336.7067,142.1638 326.5297,143.9018 317.6667,148.6108 C303.2297,156.2808 298.6747,171.3088 297.5537,186.6038 C296.5897,199.7518 298.0547,213.4628 302.7997,225.8008 C307.4427,237.8758 317.5127,246.0058 327.9717,252.9768 C333.4307,256.6148 339.1127,259.9078 344.6747,263.3828 C349.0697,266.1268 352.9017,268.7868 357.8937,270.3568 C365.2177,272.6588 377.7017,275.1908 383.8547,269.0468 C385.5117,267.3918 383.4577,265.7468 381.8427,267.3598 C378.7747,270.4248 371.7437,269.3258 367.9207,268.8888 C362.6347,268.2828 356.8347,266.8438 352.3227,263.9328 C342.6287,257.6798 332.4987,252.0048 323.2537,245.0858 C312.9767,237.3928 306.4107,228.0558 303.1537,215.6148 C299.9077,203.2208 299.7127,189.8518 301.6297,177.2338 C302.7807,169.6508 305.5327,162.5738 310.8697,156.9608 C317.7827,149.6938 328.3647,146.9508 337.9717,145.7878 C356.6647,143.5258 385.3307,144.7518 394.2797,164.8798 C397.1587,171.3568 398.0737,178.8578 400.3687,185.5878 C403.3417,194.3018 407.1877,202.6788 411.3677,210.8708 C413.6747,215.3928 416.2977,219.6388 417.6317,224.5818 C418.8607,229.1368 418.6027,233.9358 417.8797,238.5438 C416.3007,248.6068 410.7817,257.9488 405.1827,266.2678 C403.7967,268.3258 406.6337,268.8078 407.7627,267.1308" id="Fill-56" fill="#33F"/>
                    <path d="M335.2578,180.1807 C340.3338,196.7347 331.8428,220.8217 348.5288,232.2397 C360.7368,240.5937 381.3198,240.7427 389.1688,254.6547 C390.1068,256.3167 392.8548,253.7967 392.0288,252.3337 C384.9518,239.7917 367.1968,237.4917 355.2548,231.7957 C346.4858,227.6147 342.6108,221.1737 341.2408,211.5707 C339.6718,200.5527 341.6668,189.3547 338.3538,178.5517 C337.7328,176.5247 334.7758,178.6077 335.2578,180.1807" id="Fill-58" fill="#33F"/>
                    <path d="M375.5918,177.8476 C378.0078,190.6836 380.1028,203.7736 384.5658,216.0996 C388.8098,227.8256 396.1688,238.2416 398.9248,250.5136 C399.3858,252.5706 402.3808,250.4906 402.0208,248.8846 C399.4518,237.4436 393.0328,227.5936 388.5858,216.8696 C383.2598,204.0296 381.2428,189.7956 378.6878,176.2186 C378.2998,174.1586 375.2878,176.2346 375.5918,177.8476" id="Fill-60" fill="#33F"/>
                    <path d="M390.1172,256.8691 C394.2702,255.2441 398.3582,255.8831 402.3602,257.6261 C405.7682,259.1121 408.7432,262.3041 409.9352,266.1191 C410.8152,268.9321 410.1972,269.7121 407.8672,270.6191 C406.7202,271.0661 406.3902,270.4631 405.5622,271.3701 C404.8502,272.1491 405.0932,273.4191 404.6792,274.3751 C403.5732,276.9271 402.7082,276.2691 400.6302,276.0501 C397.8882,275.7591 398.6062,276.8881 396.3112,277.8131 C393.5182,278.9401 389.9272,275.4651 387.6172,274.0631 C385.6862,272.8921 383.2612,271.3241 382.1732,269.3131 C379.6262,264.6091 386.2902,258.3661 390.1172,256.8691" id="Fill-62" fill="#000"/>
                    <path d="M395.3672,256.8691 C398.3302,251.1731 410.1282,253.3631 412.8732,258.3821 C414.4232,261.2171 413.7672,265.9631 410.3602,267.0691 C407.8212,267.8941 402.4442,267.0591 400.3672,265.3691" id="Fill-64" fill="#000"/>
                    <path d="M224.6475,3.7812 C245.1275,34.4812 265.6085,65.1812 286.0875,95.8812 C320.9955,148.2082 355.9035,200.5352 390.8105,252.8612 L425.9815,305.5842 C427.4085,307.7212 431.0295,304.3412 429.7935,302.4882 C409.3135,271.7892 388.8335,241.0882 368.3535,210.3882 C333.4465,158.0612 298.5385,105.7342 263.6305,53.4072 C251.9075,35.8342 240.1835,18.2602 228.4605,0.6852 C227.0335,-1.4518 223.4125,1.9282 224.6475,3.7812" id="Fill-66" fill="#000"/>
                </g>
            </g>
        </g>
    </g>
</svg>
