<svg viewBox="525.028 243.774 1326.388 1135.766" xmlns="http://www.w3.org/2000/svg" xmlns:xlink="http://www.w3.org/1999/xlink" overflow="visible">
    <defs>
        <path d="M52.3136,35.579135 C24.2816,81.676135 4.8836,207.462135 2.2606,277.621135 C-0.3234,346.744135 -2.5224,369.424135 24.0216,375.641135 L20.9416,395.273135 C20.9416,395.273135 56.8156,403.737135 69.2736,403.737135 L71.7646,381.221135 C71.7646,381.221135 106.2666,390.699135 102.8016,283.649135 C99.3756,177.776135 99.183,197.520663 99.183,197.520663 C99.183,197.520663 215.052691,200.84399 264.887691,195.23699 C264.887691,195.23699 271.3276,255.415135 342.3426,228.005135 C413.3576,200.596135 464.4386,149.515135 464.4386,149.515135 C464.4386,149.515135 487.5286,127.397135 476.3156,106.217135 L498.1186,90.644135 C498.1186,90.644135 483.2306,63.754135 470.0866,50.153135 L445.1696,65.726135 C445.1696,65.726135 422.6146,34.117135 354.3786,106.794135 L319.2936,143.286135 C319.2936,143.286135 301.6456,4.00813497 195.6906,1.57413497 C181.7536,1.25413497 80.3456,-10.518865 52.3136,35.579135 Z" id="mastersceneui-presentation-path-1"/>
    </defs>
    <g id="Master/Scene/UI Presentation" stroke="none" stroke-width="1" fill="none" fill-rule="evenodd">
        <g id="Background/Sky" transform="translate(741.853827, 1175.500000) scale(-1, 1) translate(-741.853827, -1175.500000) translate(507.353827, 977.000000) scale(1 1)">
            <g id="Background/Sky/Stars" stroke="none" stroke-width="1" fill="none" fill-rule="evenodd">
                <path d="M342.5,241 C343.328427,241 344,241.671573 344,242.5 L343.999,314.879 L372.43934,286.43934 C373.025126,285.853553 373.974874,285.853553 374.56066,286.43934 C375.146447,287.025126 375.146447,287.974874 374.56066,288.56066 L346.12,317 L419.5,317 C420.328427,317 421,317.671573 421,318.5 C421,319.328427 420.328427,320 419.5,320 L346.121,320 L374.56066,348.43934 C375.146447,349.025126 375.146447,349.974874 374.56066,350.56066 C373.974874,351.146447 373.025126,351.146447 372.43934,350.56066 L343.999,322.12 L344,395.5 C344,396.328427 343.328427,397 342.5,397 C341.671573,397 341,396.328427 341,395.5 L340.999,322.121 L312.56066,350.56066 C311.974874,351.146447 311.025126,351.146447 310.43934,350.56066 C309.853553,349.974874 309.853553,349.025126 310.43934,348.43934 L338.878,320 L266.5,320 C265.671573,320 265,319.328427 265,318.5 C265,317.671573 265.671573,317 266.5,317 L338.879,317 L310.43934,288.56066 C309.853553,287.974874 309.853553,287.025126 310.43934,286.43934 C311.025126,285.853553 311.974874,285.853553 312.56066,286.43934 L340.999,314.878 L341,242.5 C341,241.671573 341.671573,241 342.5,241 Z M99.0498,7.10542736e-14 C99.8782271,7.10542736e-14 100.5498,0.671572875 100.5498,1.5 L100.549,47.428 L118.138753,29.8396267 C118.724547,29.2538475 119.674294,29.2538593 120.260073,29.839653 C120.845853,30.4254467 120.845841,31.3751942 120.260047,31.9609733 L102.671,49.549 L148.599,49.5498 C149.427427,49.5498 150.099,50.2213729 150.099,51.0498 C150.099,51.8782271 149.427427,52.5498 148.599,52.5498 L102.672,52.549 L120.260047,70.1377267 C120.845841,70.7235058 120.845853,71.6732533 120.260073,72.259047 C119.674294,72.8448407 118.724547,72.8448525 118.138753,72.2590733 L100.549,54.67 L100.5498,100.599 C100.5498,101.427427 99.8782271,102.099 99.0498,102.099 C98.2213729,102.099 97.5498,101.427427 97.5498,100.599 L97.549,54.67 L79.961047,72.2589733 C79.3752533,72.8447525 78.4255058,72.8447407 77.8397267,72.258947 C77.2539475,71.6731533 77.2539593,70.7234058 77.839753,70.1376267 L95.427,52.549 L49.5,52.5498 C48.6715729,52.5498 48,51.8782271 48,51.0498 C48,50.2213729 48.6715729,49.5498 49.5,49.5498 L95.427,49.549 L77.839753,31.9610733 C77.2539593,31.3752942 77.2539475,30.4255467 77.8397267,29.839753 C78.4255058,29.2539593 79.3752533,29.2539475 79.961047,29.8397267 L97.549,47.427 L97.5498,1.5 C97.5498,0.671572875 98.2213729,7.10542736e-14 99.0498,7.10542736e-14 Z" id="Stars" fill="#CDB1AA"/>
            </g>
        </g>
        <g id="Object/UI" transform="translate(507.353827, 188.000000) scale(1.8409090909090908 1.8406708595387842)">
            <defs>
                <polygon id="objectuipatterns-path-1" points="155 135 49 168.451494 49 24 155 -1.13686838e-13"/>
            </defs>
            <g id="Object/UI/Patterns" stroke="none" stroke-width="1" fill="none" fill-rule="evenodd">
                <g id="UI-Simple" transform="translate(19.000000, 44.000000)">
                    <polygon id="Fill-1" fill="#E3D4C5" points="0 65.4471 0 366.8841 328.506 251.3791 328.506 10.6551"/>
                    <polygon id="Fill-2" fill="#CDB1AA" points="131.1559 170.4854 35.5109 187.6464 35.5109 110.4224 131.1559 94.8614"/>
                    <polygon id="Fill-3" fill="#CDB1AA" points="131.1561 0 35.5111 1.737 35.5111 92.785 131.1561 76.577"/>
                    <polygon id="Fill-4" fill="#CDB1AA" points="131.1559 260.1026 35.5109 280.6006 35.5109 207.7096 131.1559 187.8156"/>
                    <polygon id="Fill-5" fill="#CDB1AA" points="35.5113 303.9579 35.5113 389.2859 131.8873 353.5339 131.1563 284.1079"/>
                    <polygon id="Fill-6" fill="#94C0E9" points="344.2203 205.0069 176.2573 258.1579 176.2573 84.1309 344.2203 48.9829"/>
                    <polygon id="Fill-6-Copy" fill="#FFF" points="216 121.83607 184 132 184 98.7212621 216 92"/>
                    <polygon id="Fill-6-Copy-2" fill="#FFF" points="216 159.586965 184 170 184 135.905642 216 126"/>
                    <polygon id="Fill-6-Copy-3" fill="#FFF" points="216 197.586965 184 208 184 173.905642 216 164"/>
                    <polygon id="Fill-6-Copy-4" fill="#FFF" points="216 235.586965 184 246 184 211.905642 216 202"/>
                    <path d="M176.242426,92.3178397 C176.242426,92.3178397 174.071061,81.3592132 179.513426,79.9700098 L339.1753,45.7109 C341.4743,45.2169 345.299085,44.1732177 344.2203,55.1182537 C344.7103,57.4142537 176.242426,92.3178397 176.242426,92.3178397 Z" id="Fill-7" fill="#3973B0"/>
                </g>
                <g id="Group" transform="translate(201.000000, 106.000000)">
                    <path d="M6,23.0003848 C6,24.6571758 4.65657861,26 3,26 C1.34265196,26 0,24.6571758 0,23.0003848 C0,21.3435937 1.34265196,20 3,20 C4.65657861,20 6,21.3435937 6,23.0003848" id="Fill-24" fill="#F4F0F0"/>
                    <path d="M15,21.0003848 C15,22.6571758 13.6571758,24 12.0003848,24 C10.3428242,24 9,22.6571758 9,21.0003848 C9,19.3435937 10.3428242,18 12.0003848,18 C13.6571758,18 15,19.3435937 15,21.0003848" id="Fill-26" fill="#F4F0F0"/>
                    <path d="M23,19.0003848 C23,20.6571758 21.657348,22 20.0007694,22 C18.3434214,22 17,20.6571758 17,19.0003848 C17,17.3435937 18.3434214,16 20.0007694,16 C21.657348,16 23,17.3435937 23,19.0003848" id="Fill-28" fill="#F4F0F0"/>
                    <mask id="objectuipatterns-mask-2" fill="#fff">
                        <use xlink:href="#objectuipatterns-path-1"/>
                    </mask>
                    <use id="Fill-6-Copy-5" fill="#FFF" xlink:href="#objectuipatterns-path-1"/>
                    <g mask="url(#objectuipatterns-mask-2)">
                        <g transform="translate(20.000000, -25.000000)" id="Patterns"/>
                    </g>
                </g>
            </g>
        </g>
        <g id="Object/Floating" transform="translate(850.353827, 1135.500000) scale(-1, 1) translate(-850.353827, -1135.500000) translate(652.353827, 897.000000) scale(1 1)">
            <g id="Object/Floating/Abstract" stroke="none" stroke-width="1" fill="none" fill-rule="evenodd">
                <g id="Abstract" transform="translate(198.500000, 238.500000) rotate(10.000000) translate(-198.500000, -238.500000) translate(164.000000, 189.000000)">
                    <polygon id="Lightest" fill="#F2B08F" points="41.8572 0 0.0002 48.269 40.8422 63.88"/>
                    <path d="M41.8572,2.80664381e-13 L68.3882,41.003 L40.8422,63.88 L40.8424,63.8807 L30.5334,98.1297 L0.0004,48.2687 L40.8422,63.88 L41.8572,2.80664381e-13 Z" id="Darkest" fill="#E58857"/>
                    <polygon id="Dark" fill="#333" points="40.842 63.8802 30.533 98.1292 68.388 41.0032"/>
                </g>
            </g>
        </g>
        <g transform="translate(1356.207654, 876.000000) scale(-1, 1) translate(-1356.207654, -876.000000) translate(871.707654, 378.000000) scale(1 1)" id="Master/Character/Standing">
            <defs>
                <path d="M109.349893,53.900161 C113.481551,52.981688 144.970514,5.75600247 146.214144,3.88880036 C163.157042,7.1710553 179.732671,12.3563028 194.5425,20.2265561 L194.534447,20.342795 C194.273846,24.1150757 187.81006,118.481216 192.9335,124.393556 L192.941093,124.461309 C193.187039,126.661869 199.30416,181.841416 196.1515,198.396556 C192.9335,215.288556 179.5055,194.246556 179.5055,194.246556 L179.493372,194.278417 C179.199722,195.046486 173.626713,209.436596 168.5975,208.598556 C163.4305,207.737556 153.3835,197.403556 153.3835,197.403556 L153.374748,197.427811 C153.092349,198.206414 146.00353,217.45697 136.1595,215.488556 C126.1125,213.478556 123.8155,199.700556 123.8155,199.700556 C123.8155,199.700556 117.2135,215.488556 106.8795,214.914556 C96.5455,214.339556 94.5365,201.708556 94.5365,201.708556 C94.5365,201.708556 89.6555,215.488556 82.1925,216.349556 C74.7285,217.210556 64.3945,208.598556 59.2275,197.977556 C59.2275,197.977556 50.9025,219.219556 42.2905,213.191556 C41.3568107,212.537941 40.5007296,211.820191 39.716404,211.0599 C38.9866857,200.963205 35.9000145,191.098032 30.4518,182.371756 C26.2618,175.660756 20.3978,169.075756 12.1968,163.637756 C8.56443049,161.228971 4.79906388,158.622963 0.984865847,155.901702 C7.45275655,123.762488 15.5945,89.4685561 15.5945,89.4685561 C15.5945,89.4685561 15.7187488,88.7027664 15.9150545,87.2866042 L15.9209033,87.2444839 C15.9621048,86.9466774 16.0064153,86.6206568 16.0533622,86.2674675 L16.061829,86.2036969 C16.1839431,85.2828267 16.3234572,84.1811093 16.4722231,82.9165641 L16.4762129,82.8821812 C16.5146429,82.5550785 16.5536843,82.2171401 16.593197,81.8686756 L16.6018125,81.7932123 C16.7332875,80.6308248 16.8698493,79.3525911 17.0063666,77.9698586 L17.0193919,77.8362484 C17.0468205,77.5570243 17.0742406,77.2735942 17.1016106,76.9860501 C17.128757,76.7024642 17.1557798,76.4140875 17.1827134,76.121777 C17.1986225,75.9473205 17.2146122,75.7720128 17.2305619,75.5953311 C17.2689523,75.1720346 17.3069484,74.7407762 17.3445977,74.301888 L17.384953,73.8245171 C17.40566,73.5783419 17.4262475,73.3298533 17.4466958,73.0790951 C17.854834,68.0780381 18.2074801,62.1723804 18.3471595,55.7119559 C18.3506244,55.5268887 18.3544335,55.3420453 18.3580655,55.1567582 C18.5346699,46.1832394 18.2952384,36.1692225 17.2242013,26.0345559 L17.2229827,26.0342045 C16.5169108,19.3418341 15.4469567,12.5964969 13.8945,6.06355607 C13.8945,6.06355607 33.2123494,1.99203002 60.8377697,0.000117687701 C62.7598027,2.37434943 105.22942,54.8149529 109.349893,53.900161 Z" id="mastercharacterstanding-path-1"/>
            </defs>
            <g id="Master/Character/Standing" stroke="none" stroke-width="1" fill="none" fill-rule="evenodd">
                <g id="Bottom/Standing" transform="translate(0.000000, 443.000000) scale(1 1)">
                    <defs>
                        <path d="M95.5391,0 C95.5391,0 75.9811896,0 54.2331,85.6104365 C54.2331,85.6104365 35.5791,240.953614 0.9351,340.532241 C0.9351,340.532241 166.7251,422.403883 329.2831,383.900905 C329.2831,383.900905 275.4191,98.2513511 259.4301,0 L95.5391,0 Z" id="bottomstandingskating-path-1"/>
                    </defs>
                    <g id="Bottom/Standing/Skating" stroke="none" stroke-width="1" fill="none" fill-rule="evenodd">
                        <g id="Skating" transform="translate(237.000000, 0.000000)">
                            <path d="M357.6934,478.223039 C349.7374,474.194376 344.1914,466.63129 342.7884,457.849542 L331.6934,384.036223 C300.6714,391.328273 269.5394,394.24589 239.4714,394.194074 L255.3994,505.298684 C256.4184,512.401407 262.5894,517.634783 269.7884,517.501259 L394.6834,515.18251 C391.3374,497.954819 371.2384,485.081631 357.6934,478.223039" id="Fill-1" fill="#c68e80"/>
                            <path d="M0.3989,479.1979 C-1.2591,485.538336 2.3939,492.054148 8.6819,493.971325 L125.4049,529.55868 C125.9479,511.716176 113.5419,496.637836 102.7259,486.942339 C93.7479,478.894978 90.7419,466.135385 95.0709,454.901364 L126.5409,373.239974 C88.7609,364.944495 56.9989,354.209698 35.2749,345.84646 L0.3989,479.1979 Z" id="Fill-3" fill="#c68e80"/>
                            <g id="Skirt" transform="translate(3.000000, 0.000000)">
                                <mask id="bottomstandingskating-mask-2" fill="#fff">
                                    <use xlink:href="#bottomstandingskating-path-1"/>
                                </mask>
                                <use fill="#E58857" xlink:href="#bottomstandingskating-path-1"/>
                                <g mask="url(#bottomstandingskating-mask-2)">
                                    <g transform="translate(80.000000, 0.000000)" id="Patterns"/>
                                </g>
                                <g mask="url(#bottomstandingskating-mask-2)">
                                    <g transform="translate(-200.000000, 0.000000)" id="Patterns"/>
                                </g>
                                <g mask="url(#bottomstandingskating-mask-2)">
                                    <g transform="translate(80.000000, 217.226950)" id="Patterns"/>
                                </g>
                                <g mask="url(#bottomstandingskating-mask-2)">
                                    <g transform="translate(-200.000000, 217.226950)" id="Patterns"/>
                                </g>
                            </g>
                            <g id="Roller-2" transform="translate(245.853100, 404.684678)">
                                <path d="M23.935,112.816581 L148.831,110.497832 C145.484,93.270141 125.386,80.396953 111.84,73.5383608 C103.885,69.5096977 98.338,61.9466126 96.935,53.1648644 L91.277,15.5178395 C88.013,8.19589628 82.102,0.329889186 71.715,0.00604166867 C52.122,-0.603788119 48.448,45.1553679 48.448,45.1553679 C24.092,10.0991232 7.206,24.1770239 5.68434189e-14,34.0229849 L9.546,100.614006 C10.565,107.71673 16.736,112.950105 23.935,112.816581" id="Fill-8" fill="#3973B0"/>
                                <path d="M137.1435,123.692775 C142.2615,126.404126 143.5765,133.915396 140.0805,140.47007 C136.5835,147.023747 129.6005,150.139658 124.4825,147.429304 C119.3635,144.718949 118.0495,137.20768 121.5455,130.652009 C125.0415,124.098332 132.0255,120.982421 137.1435,123.692775 Z M45.1463,123.400316 C50.6553,125.763905 52.9233,132.765986 50.2123,139.038664 C47.5013,145.312337 40.8373,148.482057 35.3293,146.117463 C29.8203,143.753884 27.5523,136.751802 30.2633,130.479125 C32.9743,124.205451 39.6383,121.036727 45.1463,123.400316 Z" id="Combined-Shape" fill="#010101"/>
                                <path d="M49.405356,44.8664234 L58.6737435,75.3935875 C59.2015029,75.1669866 59.7976131,74.9208868 60.4585131,74.6595449 C62.7206719,73.765012 65.2821363,72.8712861 68.0936984,72.0374452 C81.3620026,68.1023892 95.0910425,66.8493095 107.965675,69.9032641 C108.497729,70.0344922 108.825217,70.5688383 108.698009,71.1012438 C108.570094,71.636606 108.030857,71.9672752 107.482664,71.8371574 L107.49359,71.8398142 C95.0213279,68.8809014 81.6260901,70.1033724 68.6642268,73.9475456 C65.9114642,74.7639479 63.4054123,75.6383398 61.1962284,76.5119246 C60.4249587,76.8169103 59.746551,77.099676 59.1672579,77.3528603 C58.8229271,77.5033526 58.590142,77.6095652 58.4751463,77.6641328 C57.9225276,77.9263609 57.2652855,77.6368039 57.088044,77.0530258 L47.491044,45.4435152 C47.3311174,44.9167671 47.6300046,44.360567 48.1586273,44.2012075 C48.6872499,44.041848 49.2454294,44.3396753 49.405356,44.8664234 Z M118.331267,21.5837705 C120.572617,24.9177491 120.703089,28.7965356 119.043658,33.0225894 C117.356971,37.3180563 113.8955,41.8398614 109.183071,46.4256201 C106.818382,48.7267454 104.288179,50.8964549 101.758069,52.8711034 C100.872382,53.5623457 100.049493,54.1801867 99.310176,54.7164977 C99.0506411,54.9047678 98.8198307,55.0695722 98.6203443,55.20989 C98.529641,55.2736902 98.459493,55.32256 98.4109974,55.3560678 L98.3733905,55.3851662 C98.2904606,55.442711 98.1973654,55.4882254 98.0956778,55.5183184 C97.9692741,55.5581087 97.8416305,55.5701514 97.7180342,55.5588513 C97.6422775,55.5556588 97.5301469,55.5519699 97.3851877,55.5461231 C97.0690278,55.5333711 96.7034295,55.5143685 96.2924773,55.4878821 C95.1224047,55.4124694 93.8202796,55.2923107 92.4186921,55.1174701 C88.411355,54.6175763 84.4022348,53.7790472 80.6497292,52.5190629 C70.4920393,49.1084006 64.0172857,43.2692416 63.2158108,34.4285828 C62.727838,29.0460056 65.060957,26.9029359 69.2663758,28.3595415 C72.3521922,29.4283571 76.5462217,32.4082835 81.6387273,36.9072055 C83.0753708,38.1763935 84.5656252,39.5519004 86.0980921,41.0178632 C89.0451195,43.836999 92.0102353,46.8553177 94.848386,49.8734114 C95.5890264,50.6610096 96.2814909,51.4067457 96.9182174,52.1002539 L97.2919358,52.5086248 L97.3465937,52.3013116 C97.6224365,51.2449117 97.933413,50.0921856 98.2768286,48.864444 C99.4218926,44.7707384 100.691913,40.6764182 102.053491,36.8507598 C105.561748,26.9935257 109.001037,20.6483161 112.533139,19.151628 C114.650094,18.2545926 116.666792,19.107696 118.331267,21.5837705 Z M65.2076997,34.2492809 C65.923457,42.1444325 71.8008164,47.4448405 81.2883785,50.6304931 C84.9010547,51.8435266 88.7832008,52.6554983 92.66713,53.1399977 C93.6404775,53.2614176 94.563746,53.3556059 95.4247849,53.4260848 C94.7982023,52.7437819 94.117133,52.0104096 93.3889795,51.23609 C90.5732785,48.2418694 87.632057,45.2478737 84.7130228,42.4555162 C83.1987774,41.0069841 81.7277204,39.6491965 80.3119279,38.3984291 C75.4070719,34.0652843 71.3731658,31.1991282 68.6097213,30.2419705 C65.8640225,29.2909594 64.8431964,30.2286319 65.2076997,34.2492809 Z M113.315805,20.9855998 C110.541273,22.1612763 107.2282,28.2736264 103.938462,37.5168843 C102.593947,41.2945988 101.337007,45.3467497 100.203395,49.3995151 C99.9359179,50.355769 99.688357,51.2658959 99.4620483,52.1194743 C99.804142,51.860382 100.158931,51.5877332 100.524839,51.3021571 C103.001276,49.3693979 105.47762,47.2458742 107.78571,44.9998264 C112.312979,40.5942501 115.618377,36.2763266 117.181153,32.2964234 C118.618983,28.6347181 118.511264,25.4323156 116.669624,22.6929007 C115.495687,20.9465514 114.450936,20.504601 113.315805,20.9855998 Z" id="Combined-Shape" fill="#94C0E9"/>
                            </g>
                            <g id="Roller-1" transform="translate(-0.000428, 394.962534)">
                                <path d="M8.68202801,99.0089907 L125.405028,134.596345 C125.948028,116.753842 113.542028,101.675501 102.726028,91.9800048 C93.748028,83.9326431 90.743028,71.1720545 95.071028,59.9390297 L109.894028,21.4749126 C109.278028,12.7399978 106.158028,4.25220343 97.142028,1.11835591 C70.814028,-8.03407317 53.057028,41.9968807 53.057028,41.9968807 C53.057028,41.9968807 50.608028,15.761246 40.199028,9.05012896 C34.073028,5.10018569 25.179028,10.3106431 18.249028,15.987441 L0.399028007,84.2355651 C-1.25897199,90.5760013 2.39402801,97.0918134 8.68202801,99.0089907" id="Fill-11" fill="#3973B0"/>
                                <path d="M98.670828,140.44553 C101.543828,144.959466 99.125828,151.619764 93.269828,155.320593 C87.413828,159.021423 80.337828,158.360774 77.464828,153.847835 C74.591828,149.333898 77.009828,142.674597 82.865828,138.972771 C88.721828,135.272937 95.797828,135.93259 98.670828,140.44553 Z M25.878828,121.133356 C29.839828,125.521739 28.978828,132.730087 23.955828,137.232065 C18.931828,141.734044 11.647828,141.825718 7.68682801,137.435342 C3.72482801,133.045963 4.58682801,125.838612 9.60982801,121.336633 C14.633828,116.835651 21.917828,116.743977 25.878828,121.133356 Z" id="Combined-Shape" fill="#010101"/>
                                <path d="M53.1563477,41.0055034 C53.7059292,41.0598865 54.10721,41.5479167 54.0526334,42.0955493 L51.1912776,70.8069649 C51.6598677,70.8530606 52.1836171,70.908658 52.7587882,70.9744828 C54.8018329,71.2082971 57.0769553,71.5223691 59.5264841,71.9279671 C66.5274672,73.0872043 73.5298695,74.7480012 80.074637,77.0031001 C88.7814562,80.0031668 96.0064278,83.8324626 101.251328,88.6111927 C101.658914,88.9825527 101.68721,89.6128421 101.314529,90.0189834 C100.941847,90.4251246 100.309315,90.4533204 99.9017282,90.0819603 C94.8868052,85.5127668 87.8915802,81.8052386 79.4210277,78.8865812 C72.9933495,76.6718271 66.096703,75.0361129 59.1986371,73.8939169 C56.7834988,73.4940134 54.5414303,73.1845044 52.5305858,72.9543752 C51.8279954,72.873968 51.2049194,72.809253 50.6686176,72.7588466 C50.3488724,72.7287941 50.1303774,72.7102765 50.0203884,72.7019073 C49.4608202,72.6593295 49.0459653,72.1663468 49.1014227,71.6098767 L52.0624227,41.8986107 C52.1169993,41.3509781 52.6067662,40.9511203 53.1563477,41.0055034 Z M96.7856632,28.4808237 C97.7525856,31.2250843 97.9175368,35.8207827 97.448867,41.959301 C97.0831456,46.7494268 96.348339,52.240068 95.3706018,58.0335681 C95.0129705,60.1526824 94.6420229,62.1958764 94.2734882,64.1128874 C94.2305613,64.3361805 94.1886354,64.5527734 94.1477901,64.7624109 C95.5179687,63.7820111 97.0238257,62.732069 98.6328359,61.6442318 C103.287472,58.4972744 107.951489,55.6052718 112.34525,53.2426586 C118.008641,50.1973405 122.825157,48.2476029 126.559539,47.6721847 C131.282627,46.9444201 134.374691,48.4769569 135.030789,52.5496609 C136.200801,59.8129486 128.377204,64.1280499 114.751118,66.403293 C110.088262,67.1818827 105.024762,67.6642045 99.8962266,67.9120646 C98.076711,68.000001 96.3687756,68.0520367 94.814754,68.0757157 C94.1675744,68.085577 93.6257604,68.0895711 93.2017299,68.0898981 C92.7699027,68.39178 92.1164065,68.3340833 91.7809782,67.8175749 C91.7085081,67.705982 91.5770708,67.4973958 91.3950789,67.198782 C91.0943836,66.7053984 90.7600254,66.1360069 90.4004173,65.49755 C89.3747624,63.6765778 88.3496953,61.6634637 87.3925895,59.5132519 C85.1351163,54.4416648 83.6050967,49.4114696 83.1390595,44.6810798 C82.4454439,37.640714 84.172398,31.7747164 88.8671005,27.5938672 C92.543739,24.3191577 95.4654773,24.7339519 96.7856632,28.4808237 Z M126.865176,49.6416843 C123.408504,50.1743111 118.773897,52.0504113 113.295049,54.9964976 C108.968453,57.3229945 104.358915,60.1812164 99.7557543,63.2933717 C98.3339478,64.2546423 96.9935406,65.1859836 95.7578555,66.0648146 C97.0214283,66.0368391 98.3756789,65.9903015 99.7993373,65.9214967 C104.855503,65.6771342 109.844242,65.2019338 114.420584,64.4377899 C127.000198,62.3372837 133.963195,58.4968459 133.056068,52.8655188 C132.602077,50.0473832 130.617108,49.0635619 126.865176,49.6416843 Z M90.1998997,29.0797688 C86.0359124,32.7879916 84.4932228,38.0280929 85.1294912,44.4863711 C85.5718016,48.9759289 87.0428454,53.8122311 89.2208236,58.7052266 C90.1510147,60.7949725 91.1480513,62.7530379 92.1445003,64.5221573 C92.147649,64.5277476 92.1507957,64.5333324 92.1539403,64.5389115 C92.2040159,64.2827716 92.2558231,64.0156121 92.3092044,63.7379382 C92.6750133,61.835106 93.0432939,59.8066024 93.3982956,57.7030694 C94.3668421,51.964028 95.0941813,46.5291848 95.4546299,41.8081209 C95.9031441,35.9335956 95.7456271,31.5450201 94.8985912,29.1410141 C94.0921567,26.8522405 92.8921082,26.6818717 90.1998997,29.0797688 Z" id="Combined-Shape" fill="#94C0E9"/>
                            </g>
                        </g>
                    </g>
                </g>
                <g id="Head" transform="translate(268.000000, 82.000000) scale(1 1)">
                    <g id="Head/Pompadour" stroke="none" stroke-width="1" fill="none" fill-rule="evenodd">
                        <g id="Short-2" transform="translate(42.000000, 36.000000)">
                            <path d="M69.7058,14.5639 C38.1518,14.5639 12.5728,37.3239 12.5728,65.3989 C12.5728,71.1459 13.6608,76.6649 15.6368,81.8169 C15.4428,81.8109 15.2518,81.7929 15.0558,81.7929 C6.7408,81.7929 -0.0002,87.3379 -0.0002,94.1779 C-0.0002,101.0189 6.7408,106.5639 15.0558,106.5639 C19.6518,106.5639 23.7618,104.8669 26.5218,102.1939 C27.5178,101.2289 29.0588,101.1269 30.1128,102.0279 C37.8328,108.6379 47.6298,113.3399 58.5538,115.2639 C59.9578,115.5119 60.9498,116.7769 60.8678,118.1999 L59.3078,146 L85.7468,146 L84.5228,124.0629 C84.2258,118.8759 87.2628,114.0169 92.1198,112.1709 C112.5328,104.4179 126.8388,86.3949 126.8388,65.3989 C126.8388,37.3239 101.2598,14.5639 69.7058,14.5639 Z" id="Skin" fill="#c68e80"/>
                            <path d="M98.0886,0.5346 C16.8626,-5.6464 9.3586,43.7956 9.3586,43.7956 C9.3586,43.7956 5.5816,64.6576 15.6366,81.8166 C16.7556,83.7256 17.7206,85.1426 18.5556,86.1586 L20.8416,89.5586 C22.0286,91.3266 24.0476,92.3526 26.1746,92.2706 L29.6736,92.1376 C31.8806,91.9356 33.3656,89.7866 32.7746,87.6516 L28.7206,73.0296 C36.8176,64.0806 37.3006,41.1426 37.3006,41.1426 C40.0996,42.5426 43.5436,43.6246 47.3976,44.4276 C85.0676,55.6626 111.7346,51.7276 125.1796,47.9236 C133.2066,45.6516 140.1876,40.4616 144.2506,33.1766 C150.7126,21.5906 150.5466,4.5256 98.0886,0.5346" id="Hair" fill="#F2B08F"/>
                        </g>
                    </g>
                </g>
                <g id="Face" transform="translate(351.000000, 173.000000) scale(1 1)">
                    <g id="Face/Surprised" stroke="none" stroke-width="1" fill="none" fill-rule="evenodd">
                        <g id="Surprised" transform="translate(19.000000, 13.000000)" fill="#010101">
                            <path d="M15.2814991,13.397817 L1.42399134,3.6349389 C0.746758301,3.15781532 0.584537526,2.22202439 1.0616611,1.54479134 C1.53878468,0.867558301 2.47457561,0.705337526 3.15180866,1.1824611 L18.6418087,12.0954611 C19.4585528,12.6708729 19.4950822,13.8689247 18.7149121,14.4930276 L4.63291214,25.7580276 C3.98600579,26.2755251 3.04206996,26.1706185 2.52457244,25.5237121 C2.00707493,24.8768058 2.11198151,23.93287 2.75888786,23.4153724 L15.2814991,13.397817 Z" id="Stroke-1"/>
                            <path d="M47.0543961,4.13753915 C46.4884483,3.53256428 46.520086,2.58334391 47.1250609,2.01739611 C47.7300357,1.45144831 48.6792561,1.48308599 49.2452039,2.08806085 L59.4542039,13.0010609 C60.0126319,13.5979974 59.9902974,14.5321508 59.4039798,15.1017178 L47.0829798,27.0707178 C46.4887668,27.6479547 45.539119,27.6341928 44.9618822,27.0399798 C44.3846453,26.4457668 44.3984072,25.496119 44.9926202,24.9188822 L56.2577707,13.975567 L47.0543961,4.13753915 Z" id="Stroke-3"/>
                            <path d="M35.9203,29.8677 C35.9203,35.4477218 33.1824217,40.1687 29.3163,40.1687 C25.4493915,40.1687 22.7113,35.447993 22.7113,29.8677 C22.7113,24.287407 25.4493915,19.5667 29.3163,19.5667 C33.1824217,19.5667 35.9203,24.2876782 35.9203,29.8677 Z M32.9203,29.8677 C32.9203,25.7257929 31.0882195,22.5667 29.3163,22.5667 C27.5434765,22.5667 25.7113,25.7255309 25.7113,29.8677 C25.7113,34.0098691 27.5434765,37.1687 29.3163,37.1687 C31.0882195,37.1687 32.9203,34.0096071 32.9203,29.8677 Z" id="Stroke-5"/>
                        </g>
                    </g>
                </g>
                <g id="Body" transform="translate(87.000000, 44.000000) scale(1 1)">
                    <defs>
                        <path d="M157.909496,0.276579678 C160.742045,0.471846064 163.387482,0.718541623 165.776939,1.02156319 C214.992939,7.26256319 256.702,39.4749 276.325,90.5039 C278.584,96.3759 208.161,117.0109 207.581,108.7149 C207.304,104.7569 208.634,97.1649 206.762,87.1829 C204.891,77.2019 196.157,73.8749 196.157,73.8749 L196.157,73.8749 L193.661,99.4519 C193.661,99.4519 186.176,104.8589 166.42,105.6909 C146.665,106.5229 125.247,99.0359 125.247,99.0359 L125.247,99.0359 L122.959,84.4799 C122.959,84.4799 115.681,78.8649 109.235,90.9259 C102.788,102.9869 113.81,113.7999 113.81,113.7999 C113.81,113.7999 110.636,115.3659 109.814,121.7579 C108.633,130.9459 116.929,135.4269 116.929,135.4269 C114.849,137.0909 114.849,139.7939 114.849,139.7939 C113.602,151.8549 123.809,154.4679 123.809,154.4679 C123.684,165.8319 131.901,168.0749 131.901,168.0749 C143.13,171.8179 169.699,169.5279 169.699,169.5279 C173.442,175.9849 192.211,202.591 196.157,208.5 C171.541,211.518 118.094,212.158 69.895,199.497 C68.71,199.186 64.3920388,198.359501 63.1960388,198.032501 L63.1960388,198.032501 L70.882,114.5209 C70.882,114.5209 24.452,120.1009 -9.09494702e-13,87.8169 C12.558,42.6069 33.063489,24.8222018 47.8862319,16.8672 C68.7252212,7.15237242 69.895,6.81250847 90.0894217,2.7839 C94.0094841,2.00188224 100.170945,1.30390384 107.462771,0.768965039 C137.822888,22.0394277 158.000493,0.284693538 158.000493,0.284693538 L158.000493,0.284693538 Z" id="bodydrinking-path-1"/>
                    </defs>
                    <g id="Body/Drinking" stroke="none" stroke-width="1" fill="none" fill-rule="evenodd">
                        <g id="Body" transform="translate(154.000000, 210.000000)">
                            <path d="M69.1462,24.8672 L93.8462,102.5292 C90.0592,144.1862 74.6612,240.8532 74.6612,240.8532 C74.6612,240.8532 99.1772,329.9922 108.2582,352.4422 C117.3392,374.8922 110.1242,400.7112 97.4242,416.2802 C89.8552,425.5582 83.6232,430.4872 78.9812,431.7832 C75.4952,432.7542 72.2982,430.4462 71.4972,429.3762 C69.3872,426.5642 69.8932,422.8272 69.8932,422.8272 C69.8932,422.8272 67.3242,425.6762 61.7412,427.9072 C51.9302,431.8252 49.1212,422.3792 49.1212,422.3792 C49.1212,422.3792 43.3342,426.8792 38.1212,425.4192 C33.1874679,424.037414 32.9231608,418.920447 32.9090015,418.376166 L32.9082,418.3292 C32.9082,418.3292 22.8992,426.8792 15.6842,420.3362 C10.1472,415.3152 39.2372,365.9882 39.2372,365.9882 C39.2372,365.9882 36.2182,359.9782 23.8792,332.0362 C-5.1828,266.2262 0.4372,207.5522 0.4372,207.5522 C10.4262,68.9482 34.3872,41.8422 69.1462,24.8672 L69.1462,24.8672 Z M212.8547,81.8748 C212.8547,81.8748 221.5887,85.2018 223.4597,95.1828 C225.3317,105.1648 224.2787,116.7148 224.2787,116.7148 L292.1247,98.4248 C292.1247,98.4248 295.9197,94.0548 336.1967,243.1708 C340.0747,257.5268 346.0827,284.2108 305.1917,285.4088 C289.5947,285.8658 274.4387,280.1558 262.6967,269.8798 C244.5317,253.9818 212.2897,222.1998 186.3967,177.5278 C186.3967,177.5278 159.8277,179.8178 148.5987,176.0748 C148.5987,176.0748 140.3817,173.8318 140.5067,162.4678 C140.5067,162.4678 130.2997,159.8548 131.5467,147.7938 C131.5467,147.7938 131.5467,145.0908 133.6267,143.4268 C133.6267,143.4268 125.3307,138.9458 126.5117,129.7568 C127.3337,123.3658 130.5077,121.8008 130.5077,121.8008 L130.456618,121.74951 C129.65389,120.933762 119.74358,110.50532 125.9327,98.9258 C132.3787,86.8648 139.6567,92.4798 139.6567,92.4798 L141.9447,107.0358 C141.9447,107.0358 163.3627,114.5228 183.1187,113.6908 C202.8737,112.8588 210.3587,107.4518 210.3587,107.4518 L212.8547,81.8748 Z M174.698193,8.28469354 C174.698193,8.28469354 154.449,30.1166108 124,8.65761081 C124,8.65761081 152.327804,6.42339267 174.698193,8.28469354 Z" id="Skin" fill="#c68e80"/>
                            <g id="Tshirt" transform="translate(16.697700, 8.000000)">
                                <mask id="bodydrinking-mask-2" fill="#fff">
                                    <use xlink:href="#bodydrinking-path-1"/>
                                </mask>
                                <use fill="#F3705A" xlink:href="#bodydrinking-path-1"/>
                                <g mask="url(#bodydrinking-mask-2)">
                                    <g transform="translate(0.302300, 2.000000) scale(1 1)" id="Patterns">
                                        <g id="Patterns/Pattern 7" stroke="none" stroke-width="1" fill="none" fill-rule="evenodd">
                                            <path d="M128.5,180 C138.717268,180 147,188.282732 147,198.5 C147,208.717268 138.717268,217 128.5,217 C118.282732,217 110,208.717268 110,198.5 C110,188.282732 118.282732,180 128.5,180 Z M128.5,187 C122.148725,187 117,192.148725 117,198.5 C117,204.851275 122.148725,210 128.5,210 C134.851275,210 140,204.851275 140,198.5 C140,192.148725 134.851275,187 128.5,187 Z M221.5,162 C231.717268,162 240,170.282732 240,180.5 C240,190.717268 231.717268,199 221.5,199 C211.282732,199 203,190.717268 203,180.5 C203,170.282732 211.282732,162 221.5,162 Z M21.5,161 C31.7172679,161 40,169.282732 40,179.5 C40,189.717268 31.7172679,198 21.5,198 C11.2827321,198 3,189.717268 3,179.5 C3,169.282732 11.2827321,161 21.5,161 Z M221.5,169 C215.148725,169 210,174.148725 210,180.5 C210,186.851275 215.148725,192 221.5,192 C227.851275,192 233,186.851275 233,180.5 C233,174.148725 227.851275,169 221.5,169 Z M21.5,168 C15.1487254,168 10,173.148725 10,179.5 C10,185.851275 15.1487254,191 21.5,191 C27.8512746,191 33,185.851275 33,179.5 C33,173.148725 27.8512746,168 21.5,168 Z M110.5,109 C120.717268,109 129,117.282732 129,127.5 C129,137.717268 120.717268,146 110.5,146 C100.282732,146 92,137.717268 92,127.5 C92,117.282732 100.282732,109 110.5,109 Z M110.5,116 C104.148725,116 99,121.148725 99,127.5 C99,133.851275 104.148725,139 110.5,139 C116.851275,139 122,133.851275 122,127.5 C122,121.148725 116.851275,116 110.5,116 Z M183.5,100 C193.717268,100 202,108.282732 202,118.5 C202,128.717268 193.717268,137 183.5,137 C173.282732,137 165,128.717268 165,118.5 C165,108.282732 173.282732,100 183.5,100 Z M183.5,107 C177.148725,107 172,112.148725 172,118.5 C172,124.851275 177.148725,130 183.5,130 C189.851275,130 195,124.851275 195,118.5 C195,112.148725 189.851275,107 183.5,107 Z M44.5,81 C54.7172679,81 63,89.2827321 63,99.5 C63,109.717268 54.7172679,118 44.5,118 C34.2827321,118 26,109.717268 26,99.5 C26,89.2827321 34.2827321,81 44.5,81 Z M253.5,81 C263.717268,81 272,89.2827321 272,99.5 C272,109.717268 263.717268,118 253.5,118 C243.282732,118 235,109.717268 235,99.5 C235,89.2827321 243.282732,81 253.5,81 Z M44.5,88 C38.1487254,88 33,93.1487254 33,99.5 C33,105.851275 38.1487254,111 44.5,111 C50.8512746,111 56,105.851275 56,99.5 C56,93.1487254 50.8512746,88 44.5,88 Z M253.5,88 C247.148725,88 242,93.1487254 242,99.5 C242,105.851275 247.148725,111 253.5,111 C259.851275,111 265,105.851275 265,99.5 C265,93.1487254 259.851275,88 253.5,88 Z M192.5,28 C202.717268,28 211,36.2827321 211,46.5 C211,56.7172679 202.717268,65 192.5,65 C182.282732,65 174,56.7172679 174,46.5 C174,36.2827321 182.282732,28 192.5,28 Z M110.5,28 C120.717268,28 129,36.2827321 129,46.5 C129,56.7172679 120.717268,65 110.5,65 C100.282732,65 92,56.7172679 92,46.5 C92,36.2827321 100.282732,28 110.5,28 Z M192.5,35 C186.148725,35 181,40.1487254 181,46.5 C181,52.8512746 186.148725,58 192.5,58 C198.851275,58 204,52.8512746 204,46.5 C204,40.1487254 198.851275,35 192.5,35 Z M110.5,35 C104.148725,35 99,40.1487254 99,46.5 C99,52.8512746 104.148725,58 110.5,58 C116.851275,58 122,52.8512746 122,46.5 C122,40.1487254 116.851275,35 110.5,35 Z M40.5,9 C50.7172679,9 59,17.2827321 59,27.5 C59,37.7172679 50.7172679,46 40.5,46 C30.2827321,46 22,37.7172679 22,27.5 C22,17.2827321 30.2827321,9 40.5,9 Z M40.5,16 C34.1487254,16 29,21.1487254 29,27.5 C29,33.8512746 34.1487254,39 40.5,39 C46.8512746,39 52,33.8512746 52,27.5 C52,21.1487254 46.8512746,16 40.5,16 Z M258.5,2 C268.717268,2 277,10.2827321 277,20.5 C277,30.7172679 268.717268,39 258.5,39 C248.282732,39 240,30.7172679 240,20.5 C240,10.2827321 248.282732,2 258.5,2 Z M258.5,9 C252.148725,9 247,14.1487254 247,20.5 C247,26.8512746 252.148725,32 258.5,32 C264.851275,32 270,26.8512746 270,20.5 C270,14.1487254 264.851275,9 258.5,9 Z" id="Pattern" fill="#010101"/>
                                        </g>
                                    </g>
                                </g>
                            </g>
                            <g id="Drink" transform="translate(131.453900, 0.000500)">
                                <path d="M10.4907,107.0357 L4.0607,58.9627 L83.1037,58.9627 L78.9057,107.4517 C78.9057,107.4517 56.7127,124.5197 10.4907,107.0357" id="Fill-9" fill="#94C0E9"/>
                                <polygon id="Fill-11" fill="#3973B0" points="88.788 59.2339 1.42108547e-14 59.2339 2 47.3229 86.788 47.3229"/>
                                <path d="M54.415,-8.52651283e-14 L49.516,-8.52651283e-14 C48.073,-8.52651283e-14 46.888,1.137 46.827,2.577 L44.936,47.372 L55.222,47.372 L57.103,2.804 C57.168,1.275 55.946,-8.52651283e-14 54.415,-8.52651283e-14" id="Fill-13" fill="#2F6858"/>
                            </g>
                            <path d="M92.2819494,393.525633 C92.7840134,393.755742 93.0044764,394.349285 92.7743673,394.851349 C91.602988,397.407125 89.8821534,400.277471 87.6882758,403.411496 C86.1563595,405.599887 84.4138384,407.887858 82.4997462,410.246093 C79.8967993,413.453023 77.1100474,416.629505 74.3234355,419.634567 C73.3481374,420.686321 72.4422855,421.641773 71.628934,422.48318 C71.3438785,422.778068 71.0906166,423.037766 70.8720318,423.260052 C70.7402585,423.394057 70.6489401,423.486198 70.6009612,423.534252 C70.2107433,423.925082 69.5775785,423.925579 69.1867481,423.535361 C68.7959176,423.145143 68.7954209,422.511979 69.1856388,422.121148 C69.2300819,422.076635 69.3178311,421.988096 69.4459946,421.857762 C69.6606379,421.639484 69.9099205,421.383867 70.1909497,421.093144 C70.994983,420.261376 71.8913599,419.315918 72.8569235,418.274661 C75.6156307,415.299692 78.3741981,412.155336 80.9468824,408.985691 C82.8327601,406.662217 84.5470513,404.411313 86.0498268,402.26455 C88.1799477,399.221604 89.8416783,396.449843 90.9562327,394.018051 C91.1863419,393.515987 91.7798854,393.295524 92.2819494,393.525633 Z M72.4439485,391.601765 C72.9219703,391.878376 73.085246,392.490127 72.8086349,392.968149 C72.7728342,393.030017 72.703933,393.148276 72.6036399,393.319173 C72.4370806,393.602985 72.2425522,393.931918 72.0217623,394.302219 C71.3915536,395.359183 70.6768348,396.536516 69.8912468,397.804222 C67.6463046,401.426895 65.2822009,405.049932 62.9071976,408.434279 C61.3385472,410.669584 59.8157805,412.726754 58.3553789,414.568534 C54.984698,418.819456 52.0555655,421.794998 49.6329356,423.238383 C49.158477,423.521062 48.5446956,423.365594 48.2620166,422.891136 C47.9793376,422.416677 48.1348057,421.802896 48.6092644,421.520217 C50.7674835,420.234365 53.5583899,417.399239 56.7882507,413.325912 C58.222587,411.517004 59.7225703,409.490613 61.2700895,407.28542 C63.6209151,403.935526 65.9649101,400.343306 68.1912072,396.750721 C68.9705529,395.493087 69.6793794,394.325461 70.3039365,393.277976 C70.5223146,392.911719 70.7144876,392.586769 70.8787392,392.306889 C70.9769327,392.139571 71.0437797,392.024837 71.0775651,391.966451 C71.3541761,391.48843 71.9659268,391.325154 72.4439485,391.601765 Z M55.4393742,383.959029 C55.9277436,384.216932 56.1145737,384.821905 55.8566709,385.310274 C55.8207389,385.378316 55.7513847,385.508978 55.6504608,385.698091 C55.4826468,386.012544 55.2869718,386.3771 55.0652876,386.787589 C54.4323066,387.959673 53.7175411,389.265402 52.9357919,390.671445 C50.7018668,394.689351 48.3780669,398.707578 46.0821884,402.460251 C45.0461064,404.153753 44.0371123,405.757352 43.061388,407.256956 C39.0872925,413.364801 35.8501183,417.487214 33.4826833,419.147957 C33.0305517,419.465125 32.4069113,419.355715 32.0897434,418.903583 C31.7725755,418.451452 31.8819851,417.827811 32.3341167,417.510643 C34.4155964,416.050496 37.5550128,412.052574 41.3850022,406.166209 C42.3501007,404.682935 43.3493196,403.094872 44.3761465,401.416497 C46.6559651,397.690075 48.9663839,393.694986 51.1878016,389.699576 C51.9654224,388.300958 52.6762839,387.00236 53.305512,385.837226 C53.525601,385.42969 53.7197168,385.068039 53.8860017,384.756452 L53.9901859,384.560943 C54.0345894,384.477474 54.0673708,384.415634 54.0881291,384.376326 C54.3460318,383.887956 54.9510048,383.701126 55.4393742,383.959029 Z M58.3428005,233.496104 C61.3143341,234.067719 63.9241266,234.717656 66.1960396,235.432262 C69.3838871,236.434965 71.7736525,237.518465 73.4817462,238.615863 C74.5579222,239.307273 75.1809293,239.87735 75.4627768,240.255611 C75.7927611,240.698475 75.7012538,241.324992 75.2583894,241.654977 C74.8155251,241.984961 74.1890075,241.893454 73.8590232,241.450589 C73.7248258,241.270486 73.2799702,240.863425 72.4006925,240.298516 C70.8496966,239.302049 68.6212355,238.291683 65.5959464,237.340111 C63.399226,236.649156 60.863466,236.017656 57.9649995,235.460096 C57.422658,235.355769 57.0675769,234.831541 57.1719038,234.2892 C57.2762306,233.746858 57.8004589,233.391777 58.3428005,233.496104 Z M224.228498,115.716151 C224.780092,115.688536 225.249634,116.113304 225.277249,116.664898 L225.279069,116.701143 C225.280885,116.737051 225.283459,116.787053 225.293754,116.987062 C225.307413,117.25048 225.323564,117.556141 225.342124,117.900522 C225.395173,118.884804 225.456877,119.981713 225.526581,121.163049 C225.725707,124.537859 225.948955,127.912473 226.191007,131.060806 C226.337828,132.970487 226.487275,134.738185 226.638648,136.335771 C226.742501,136.419133 226.86477,136.517384 227.004929,136.630153 C227.572208,137.086572 228.230096,137.618069 228.971047,138.219297 C231.087495,139.936642 233.445595,141.868712 235.984989,143.972746 C243.240822,149.984621 250.496874,156.17069 257.270834,162.189433 C259.298736,163.991248 261.256554,165.75465 263.136423,167.474082 C271.064121,174.725192 277.407396,181.008822 281.771575,186.050415 C282.133037,186.467984 282.087554,187.099513 281.669985,187.460975 C281.252416,187.822437 280.620887,187.776954 280.259425,187.359385 C275.956039,182.388022 269.661873,176.153039 261.786587,168.949868 C259.914043,167.237136 257.963342,165.480144 255.942422,163.684532 C249.187513,157.682716 241.948349,151.511045 234.708966,145.5128 C232.175034,143.413292 229.822189,141.485526 227.710865,139.77234 C226.972097,139.172882 226.316356,138.64312 225.751196,138.188406 C225.412427,137.915841 225.179339,137.729025 225.059482,137.63331 C224.848167,137.464558 224.714207,137.217416 224.688152,136.948247 C224.521648,135.228106 224.357641,133.304963 224.196892,131.214119 C223.953825,128.052581 223.729826,124.666619 223.530053,121.280852 C223.460142,120.095987 223.398247,118.995709 223.345023,118.008156 C223.326388,117.662395 223.310165,117.355379 223.296437,117.090627 C223.282614,116.822092 223.282614,116.822092 223.279751,116.764902 C223.252136,116.213308 223.676904,115.743766 224.228498,115.716151 Z M140.855047,161.530472 C140.914813,161.552689 141.041766,161.597654 141.233661,161.662139 C141.55955,161.771651 141.945919,161.894243 142.390527,162.02669 C143.66799,162.407242 145.151643,162.788608 146.823519,163.145041 C151.339309,164.107776 156.35025,164.709436 161.732385,164.772869 C162.284632,164.779378 162.727039,165.232339 162.720601,165.784585 C162.714022,166.336832 162.261061,166.779239 161.708815,166.772731 C156.188201,166.707665 151.046579,166.090314 146.406504,165.101082 C144.681568,164.733338 143.146678,164.338801 141.819531,163.943449 C141.352525,163.804329 140.944138,163.674752 140.596585,163.557959 C140.384415,163.486661 140.237533,163.434638 140.158153,163.405128 C139.640481,163.212686 139.37683,162.637025 139.569272,162.119353 C139.761714,161.601681 140.337375,161.33803 140.855047,161.530472 Z M134.179179,142.593773 C134.275113,142.65736 134.519538,142.793412 134.924509,142.979148 C135.631315,143.303317 136.522456,143.63122 137.610046,143.939872 C143.099641,145.497786 150.97405,145.941496 161.592286,144.566579 C162.139998,144.495658 162.641499,144.882174 162.712421,145.429886 C162.783342,145.977598 162.396826,146.479099 161.849114,146.550021 C150.972757,147.958361 142.826862,147.499353 137.064021,145.863893 C135.016607,145.282849 133.716628,144.686628 133.074221,144.260827 C132.613877,143.955701 132.488047,143.335165 132.793173,142.874821 C133.098299,142.414477 133.718835,142.288647 134.179179,142.593773 Z M130.968726,120.912965 C131.05213,120.956308 131.231668,121.044277 131.506226,121.170555 C131.972857,121.385174 132.53229,121.625476 133.183414,121.885146 C135.055121,122.631589 137.280318,123.379785 139.850164,124.079262 C145.412469,125.593245 151.776172,126.662229 158.907212,127.088078 C159.458514,127.121001 159.878744,127.594609 159.845822,128.145912 C159.812899,128.697214 159.339291,129.117444 158.787988,129.084522 C151.517089,128.65032 145.01758,127.558523 139.324901,126.009054 C136.680717,125.289343 134.383647,124.516981 132.44255,123.742865 C131.759192,123.47034 131.168147,123.21646 130.670515,122.987583 C130.366515,122.847763 130.158135,122.745662 130.046474,122.687635 C129.556413,122.432962 129.365592,121.829235 129.620265,121.339174 C129.874938,120.849113 130.478665,120.658292 130.968726,120.912965 Z M138.204353,100.891082 C138.225275,101.162995 138.463802,101.790469 139.163107,102.681988 C140.428915,104.295723 142.661102,105.948755 146.11204,107.517862 C152.658257,110.49436 162.657719,112.74318 176.737098,113.941402 C177.287394,113.988235 177.695531,114.472303 177.648698,115.022598 C177.601865,115.572894 177.117797,115.981031 176.567502,115.934198 C162.277974,114.718092 152.063281,112.420868 145.284216,109.338496 C141.55682,107.643686 139.066732,105.799667 137.589464,103.916349 C136.642922,102.709637 136.261079,101.705153 136.210247,101.044518 C136.167877,100.493861 136.579925,100.013117 137.130582,99.9707472 C137.681239,99.928377 138.161983,100.340425 138.204353,100.891082 Z" id="Skin-Shadows" fill="#9b7368"/>
                        </g>
                    </g>
                </g>
            </g>
        </g>
    </g>
</svg>
