<svg viewBox="-19.284 150.15 1435.567 1522.95" xmlns="http://www.w3.org/2000/svg" xmlns:xlink="http://www.w3.org/1999/xlink" overflow="visible">
    <defs>
        <path d="M340.9275,43.6191 C340.4445,42.9811 339.9625,42.4641 339.4845,42.0831 C324.4345,30.0941 258.3685,18.6151 258.3685,18.6151 C258.3685,18.6151 255.5625,6.8811 251.9905,3.3091 C248.4205,-0.2609 194.9805,0.1721 192.6435,1.3401 C190.3065,2.5091 187.1905,15.3611 187.1905,15.3611 C173.2465,16.0251 160.8435,19.4071 147.7565,23.0701 C127.3275,26.8031 97.9925,37.3101 75.3955,66.3031 C36.8185,115.7971 -4.6685,201.6831 0.4265,243.8991 C5.5215,286.1151 57.7325,304.2921 108.8765,241.7161 C120.2725,227.7721 127.765962,218.629249 135.641962,207.822249 C133.650425,211.536328 131.8171,220.740781 135.641962,221.314679 C185.492568,228.794479 256.57517,225.837481 297.165356,221.314679 C300.548356,284.846679 319.8295,302.8301 336.6955,314.9341 C350.1475,324.5901 368.0355,324.8731 382.1145,316.1591 C395.8835,307.6361 412.0075,290.7931 412.2885,258.5841 C412.7785,202.2201 398.0745,156.6381 381.9005,97.8241 C374.2635,70.0531 357.0125,53.4321 340.9275,43.6191 Z" id="mastercompliving-room-path-1"/>
    </defs>
    <g id="Master/Comp/Living Room" stroke="none" stroke-width="1" fill="none" fill-rule="evenodd">
        <g id="Background" transform="translate(0.000000, 163.000000)">
            <g id="Abstract">
                <path d="M1073.87326,0.0149551211 L1242.60782,3.87947292 C1277.24054,4.67292927 1303.3745,35.6216794 1298.38875,69.9389137 L1242.74207,452.996518 C1237.35951,490.045891 1204.25381,516.606422 1166.95992,513.796223 L1005.13492,501.600908 C976.324,499.430019 955.378143,473.280543 959.523883,444.65584 L1016.9404,48.2102647 C1021.01902,20.0479988 1045.45421,-0.636212669 1073.87326,0.0149551211" id="Fill-1" fill="#CDB1AA"/>
                <polygon id="Fill-4" fill="#FFF5EE" points="128 224 531.489887 224 630 794 204.918598 794"/>
                <path d="M81,275 L81,177 L179,177 L179,275 L81,275 Z M89.3744523,266.625548 L170.625548,266.625548 L170.625548,185.374452 L89.3744523,185.374452 L89.3744523,266.625548 Z" id="Stroke-6" fill="#CDB1AA"/>
                <polygon id="Fill-8" fill="#FFF5EE" points="349 94 593 94 593 1 349 1"/>
                <polygon id="Fill-9" fill="#F4F0F0" points="372 539 622 539 622 289 372 289"/>
                <polygon id="Fill-10" fill="#E3D4C5" points="87 748 304 748 304 531 87 531"/>
                <polygon id="Fill-11" fill="#FFF5EE" points="697 199 872 199 872 115 697 115"/>
                <path d="M1075.75125,19.013178 L1234.98252,23.1983446 C1264.11148,23.9650324 1285.92929,50.1569039 1281.40442,78.9314065 L1222.27375,455.075728 C1218.32215,480.217356 1195.58217,498.013206 1170.218,495.816883 L1001.79665,481.231044 C984.866447,479.76584 972.724027,464.264125 975.360074,447.482951 L1037.69512,50.6904237 C1040.61978,32.0745338 1056.90752,18.5172022 1075.75125,19.013178" id="Fill-12" fill="#F4F0F0"/>
                <path d="M1175.22201,38 L1132.77799,38 C1121.30234,38 1112,28.6297779 1112,17.0703908 L1112,8 L1196,8 L1196,17.0703908 C1196,28.6297779 1186.69766,38 1175.22201,38" id="Fill-13" fill="#CDB1AA"/>
                <path d="M1088.14799,131.472547 L1088.14799,129 L1298.43481,129 C1309.66436,129 1318.32093,138.912058 1316.83326,150.066353 L1297.25047,296.863221 C1296.01892,306.101021 1288.15301,313 1278.85298,313 L1068.56517,313 C1057.3363,313 1048.67909,303.087633 1050.16672,291.93365 L1069.74956,145.135452 C1070.98232,135.898181 1078.84772,129 1088.14799,129 L1088.14799,131.472547 Z" id="Fill-14" fill="#FFF5EE"/>
                <path d="M1088.19583,131 L1088.19583,133.464392 C1081.37153,133.464392 1075.59987,138.512144 1074.69533,145.271055 L1055.12235,291.58492 C1054.03071,299.74686 1060.3832,307 1068.62283,307 L1278.80514,307 C1285.62903,307 1291.40099,301.951732 1292.30465,295.192349 L1311.87763,148.879473 C1312.96931,140.717177 1306.61741,133.464392 1298.37715,133.464392 L1088.19583,133.464392 L1088.19583,131 Z" id="Path" fill="#F4F0F0"/>
                <polygon id="Fill-15" fill="#E3D4C5" points="1148.87219 247 1084 244.847038 1095.15414 166 1159 167.018159"/>
                <path d="M1071.46006,426 L934.627754,426 C921.214937,426 911.372339,413.374993 914.625821,400.341545 L922.538303,368.642716 C924.832666,359.448816 933.078712,353 942.540236,353 L1079.37155,353 C1092.78536,353 1102.62697,365.625998 1099.37447,378.658455 L1091.46199,410.358276 C1089.16763,419.551184 1080.92059,426 1071.46006,426" id="Fill-16" fill="#E3D4C5"/>
                <path d="M1187.20636,181 C1184.88325,181 1183,179.209139 1183,177 C1183,174.790861 1184.88325,173 1187.20636,173 L1285.79364,173 C1288.11675,173 1290,174.790861 1290,177 C1290,179.209139 1288.11675,181 1285.79364,181 L1187.20636,181 Z" id="Stroke-17" fill="#E3D4C5"/>
                <path d="M1184.18385,213 C1181.87317,213 1180,211.209139 1180,209 C1180,206.790861 1181.87317,205 1184.18385,205 L1244.81615,205 C1247.12683,205 1249,206.790861 1249,209 C1249,211.209139 1247.12683,213 1244.81615,213 L1184.18385,213 Z" id="Stroke-18" fill="#E3D4C5"/>
                <path d="M1295.24228,277 L1190.7587,277 C1180.29526,277 1172.74096,266.82542 1175.61559,256.60477 C1177.5468,249.735251 1183.72688,245 1190.7587,245 L1295.24228,245 C1305.70474,245 1313.25904,255.17458 1310.3844,265.39523 C1308.45319,272.263748 1302.2741,277 1295.24228,277" id="Fill-19" fill="#CDB1AA"/>
                <path d="M1054.06642,387.619506 C1061.15284,387.619506 1067,391.802867 1067,397.14812 C1067,399.244633 1066.10472,400.484461 1064.36689,400.854257 C1063.23554,401.094997 1062.62804,401.049865 1059.13676,400.625968 C1057.20329,400.391214 1055.91383,400.285387 1054.50291,400.285387 C1053.09471,400.285387 1051.79756,400.388499 1049.71525,400.62677 C1046.12741,401.037313 1045.30108,401.093295 1044.05871,400.858768 C1042.16329,400.500961 1041.13383,399.265429 1041.13383,397.14812 C1041.13383,391.802992 1046.98083,387.619506 1054.06642,387.619506 Z M1004.06568,375.315607 L1014.55514,386.245978 C1015.15469,386.870729 1014.7092,387.905159 1013.84059,387.905159 L1011.42709,387.905159 L1011.42709,398.240666 C1011.42709,398.782801 1010.98496,399.222289 1010.43957,399.222289 L995.523046,399.222289 C994.977652,399.222289 994.535524,398.782801 994.535524,398.240666 L994.535524,387.905159 L991.888964,387.905159 C990.999261,387.905159 990.563286,386.827416 991.20532,386.21517 L1002.66749,375.284799 C1003.06185,374.908739 1003.68848,374.922546 1004.06568,375.315607 Z M1054.06642,389.582752 C1047.95817,389.582752 1043.10888,393.052386 1043.10888,397.14812 C1043.10888,398.322275 1043.46368,398.748107 1044.4272,398.929995 C1045.37715,399.10932 1046.18333,399.054704 1049.48939,398.676404 C1051.64144,398.430152 1053.00022,398.322141 1054.50291,398.322141 C1056.01186,398.322141 1057.36966,398.433577 1059.37622,398.677205 C1062.53198,399.060365 1063.14719,399.106071 1063.95345,398.934505 C1064.73099,398.769054 1065.02496,398.361949 1065.02496,397.14812 C1065.02496,393.052292 1060.17551,389.582752 1054.06642,389.582752 Z M1003.32014,377.383011 L994.34482,385.941913 L995.523046,385.941913 C996.068439,385.941913 996.510568,386.3814 996.510568,386.923536 L996.510568,397.259043 L1009.45205,397.259043 L1009.45205,386.923536 C1009.45205,386.3814 1009.89417,385.941913 1010.43957,385.941913 L1011.53379,385.941913 L1003.32014,377.383011 Z M959.102537,378.378901 C961.264214,378.378901 963.017075,380.121696 963.017075,382.270054 L963.017075,383.304685 L966.137645,383.304685 C966.683038,383.304685 967.125167,383.744172 967.125167,384.286308 L967.125167,396.086396 C967.125167,396.628532 966.683038,397.068019 966.137645,397.068019 L943.987522,397.068019 C943.442129,397.068019 943,396.628532 943,396.086396 L943,384.286308 C943,383.744172 943.442129,383.304685 943.987522,383.304685 L947.108092,383.304685 L947.108092,382.270054 C947.108092,380.121696 948.860952,378.378901 951.02263,378.378901 L959.102537,378.378901 Z M959.102537,380.342147 L951.02263,380.342147 C949.951842,380.342147 949.083137,381.205864 949.083137,382.270054 L949.083137,384.286308 C949.083137,384.828443 948.641008,385.26793 948.095614,385.26793 L944.975044,385.26793 L944.975044,395.104774 L965.150122,395.104774 L965.150122,385.26793 L962.029552,385.26793 C961.484159,385.26793 961.04203,384.828443 961.04203,384.286308 L961.04203,382.270054 C961.04203,381.205864 960.173325,380.342147 959.102537,380.342147 Z M955.062485,384.734615 C957.388475,384.734615 959.275254,386.609329 959.275254,388.921236 C959.275254,391.233927 957.388675,393.10884 955.062485,393.10884 C952.736389,393.10884 950.850703,391.234021 950.850703,388.921236 C950.850703,386.609235 952.736589,384.734615 955.062485,384.734615 Z M955.062485,386.69786 C953.827376,386.69786 952.825747,387.693506 952.825747,388.921236 C952.825747,390.149843 953.82727,391.145594 955.062485,391.145594 C956.297982,391.145594 957.30021,390.149563 957.30021,388.921236 C957.30021,387.693786 956.297876,386.69786 955.062485,386.69786 Z M1054.06711,373 C1058.04608,373 1061.29084,376.076509 1061.29084,379.894919 C1061.29084,383.712526 1058.04589,386.788857 1054.06711,386.788857 C1050.08767,386.788857 1046.84339,383.712824 1046.84339,379.894919 C1046.84339,376.076211 1050.08748,373 1054.06711,373 Z M1054.06711,374.963246 C1051.15798,374.963246 1048.81843,377.181725 1048.81843,379.894919 C1048.81843,382.607257 1051.15812,384.825611 1054.06711,384.825611 C1056.97548,384.825611 1059.31579,382.606908 1059.31579,379.894919 C1059.31579,377.182074 1056.97562,374.963246 1054.06711,374.963246 Z" id="Combined-Shape" fill="#F4F0F0"/>
                <polygon id="Fill-25" fill="#CDB1AA" points="134 522 103.986399 504.584288 0 504.584288 0 448 134 448"/>
                <path d="M608.999704,303 L608.999704,340.208421 C608.999704,342.531168 607.1238,344.414126 604.809754,344.414126 C602.495708,344.414126 600.619803,342.531168 600.619803,340.208421 L600.619197,317.533 L403.305197,515.588 L426.069238,515.58859 C428.383284,515.58859 430.259189,517.471548 430.259189,519.794295 C430.259189,522.117042 428.383284,524 426.069238,524 L389.000197,524 L389.000197,486.792568 C389.000197,484.469821 390.876102,482.586863 393.190148,482.586863 C395.504194,482.586863 397.380098,484.469821 397.380098,486.792568 L397.379197,509.641 L594.867197,311.411 L571.931649,311.41141 C569.617603,311.41141 567.741698,309.528452 567.741698,307.205705 C567.741698,304.882958 569.617603,303 571.931649,303 L608.999704,303 Z" id="Combined-Shape" fill="#CDB1AA"/>
                <path d="M469.400487,288.805147 C469.400487,291.1219 467.519974,293 465.200243,293 C462.880513,293 461,291.1219 461,288.805147 L461,155 L698.799757,155 C701.119487,155 703,156.8781 703,159.194853 C703,161.511606 701.119487,163.389705 698.799757,163.389705 L469.400487,163.389705 L469.400487,288.805147 Z" id="Stroke-29" fill="#FFF5EE"/>
                <path d="M925.602426,54.4069381 L592.198787,54.4069381 C589.879861,54.4069381 588,52.5249809 588,50.203469 C588,47.8819572 589.879861,46 592.198787,46 L934,46 L934,162.796531 C934,165.118043 932.120139,167 929.801213,167 C927.482287,167 925.602426,165.118043 925.602426,162.796531 L925.602426,54.4069381 Z" id="Stroke-30" fill="#FFF5EE"/>
                <path d="M912.572127,378.614428 C914.892448,378.614428 916.773439,380.491602 916.773439,382.807214 C916.773439,385.122826 914.892448,387 912.572127,387 L897,387 L897,159 L1062.79869,159 C1065.11901,159 1067,160.877174 1067,163.192786 C1067,165.508398 1065.11901,167.385572 1062.79869,167.385572 L905.402625,167.385572 L905.402625,378.614428 L912.572127,378.614428 Z" id="Stroke-31" fill="#FFF5EE"/>
                <path d="M139.198324,798 C136.879654,798 135,796.209139 135,794 C135,791.790861 136.879654,790 139.198324,790 L1391.80168,790 C1394.12035,790 1396,791.790861 1396,794 C1396,796.209139 1394.12035,798 1391.80168,798 L139.198324,798 Z" id="Stroke-32" fill="#FFF5EE"/>
            </g>
        </g>
        <g id="Background/Sky" transform="translate(184.000000, 680.000000) scale(0.908315565031983 0.906801007556675)">
            <g id="Background/Sky/Stars" stroke="none" stroke-width="1" fill="none" fill-rule="evenodd">
                <path d="M342.5,241 C343.328427,241 344,241.671573 344,242.5 L343.999,314.879 L372.43934,286.43934 C373.025126,285.853553 373.974874,285.853553 374.56066,286.43934 C375.146447,287.025126 375.146447,287.974874 374.56066,288.56066 L346.12,317 L419.5,317 C420.328427,317 421,317.671573 421,318.5 C421,319.328427 420.328427,320 419.5,320 L346.121,320 L374.56066,348.43934 C375.146447,349.025126 375.146447,349.974874 374.56066,350.56066 C373.974874,351.146447 373.025126,351.146447 372.43934,350.56066 L343.999,322.12 L344,395.5 C344,396.328427 343.328427,397 342.5,397 C341.671573,397 341,396.328427 341,395.5 L340.999,322.121 L312.56066,350.56066 C311.974874,351.146447 311.025126,351.146447 310.43934,350.56066 C309.853553,349.974874 309.853553,349.025126 310.43934,348.43934 L338.878,320 L266.5,320 C265.671573,320 265,319.328427 265,318.5 C265,317.671573 265.671573,317 266.5,317 L338.879,317 L310.43934,288.56066 C309.853553,287.974874 309.853553,287.025126 310.43934,286.43934 C311.025126,285.853553 311.974874,285.853553 312.56066,286.43934 L340.999,314.878 L341,242.5 C341,241.671573 341.671573,241 342.5,241 Z M99.0498,7.10542736e-14 C99.8782271,7.10542736e-14 100.5498,0.671572875 100.5498,1.5 L100.549,47.428 L118.138753,29.8396267 C118.724547,29.2538475 119.674294,29.2538593 120.260073,29.839653 C120.845853,30.4254467 120.845841,31.3751942 120.260047,31.9609733 L102.671,49.549 L148.599,49.5498 C149.427427,49.5498 150.099,50.2213729 150.099,51.0498 C150.099,51.8782271 149.427427,52.5498 148.599,52.5498 L102.672,52.549 L120.260047,70.1377267 C120.845841,70.7235058 120.845853,71.6732533 120.260073,72.259047 C119.674294,72.8448407 118.724547,72.8448525 118.138753,72.2590733 L100.549,54.67 L100.5498,100.599 C100.5498,101.427427 99.8782271,102.099 99.0498,102.099 C98.2213729,102.099 97.5498,101.427427 97.5498,100.599 L97.549,54.67 L79.961047,72.2589733 C79.3752533,72.8447525 78.4255058,72.8447407 77.8397267,72.258947 C77.2539475,71.6731533 77.2539593,70.7234058 77.839753,70.1376267 L95.427,52.549 L49.5,52.5498 C48.6715729,52.5498 48,51.8782271 48,51.0498 C48,50.2213729 48.6715729,49.5498 49.5,49.5498 L95.427,49.549 L77.839753,31.9610733 C77.2539593,31.3752942 77.2539475,30.4255467 77.8397267,29.839753 C78.4255058,29.2539593 79.3752533,29.2539475 79.961047,29.8397267 L97.549,47.427 L97.5498,1.5 C97.5498,0.671572875 98.2213729,7.10542736e-14 99.0498,7.10542736e-14 Z" id="Stars" fill="#CDB1AA"/>
            </g>
        </g>
        <path d="M1392.6522,1645.15056 L1353.35936,1644.69006 L1311.52693,1611.11402 L1353.0327,1611.60028 L1353.08546,1611.60028 C1355.49083,1611.60028 1357.45547,1609.65368 1357.4834,1607.22707 C1357.51134,1604.78329 1355.56532,1602.77894 1353.1359,1602.75084 L1300.33654,1602.13189 L1252.19428,1563.49033 L1287.17297,1563.89932 L1287.22496,1563.89932 C1289.6311,1563.89932 1291.59497,1561.95194 1291.6229,1559.5269 C1291.65084,1557.08311 1289.70482,1555.07876 1287.2754,1555.04988 L1241.00467,1554.50821 L1207.06727,1527.26992 L1242.38737,1527.68281 L1242.43935,1527.68281 C1244.8455,1527.68281 1246.80936,1525.73543 1246.8373,1523.3096 C1246.86523,1520.8666 1244.91921,1518.86147 1242.49057,1518.83337 L1195.87688,1518.28779 L1168.56433,1496.36479 L1202.87107,1496.76675 L1202.92305,1496.76675 C1205.3292,1496.76675 1207.29306,1494.81938 1207.321,1492.39355 C1207.34971,1489.94976 1205.40369,1487.94541 1202.97427,1487.91731 L1157.37394,1487.38266 L1126.6962,1462.75987 L1164.23311,1463.20008 L1164.28588,1463.20008 C1166.69124,1463.20008 1168.65511,1461.2527 1168.68382,1458.82687 C1168.71175,1456.38309 1166.76573,1454.37874 1164.33631,1454.35064 L1115.50659,1453.7793 L1087.38785,1431.20925 L1129.98534,1431.708 L1130.03811,1431.708 C1132.44347,1431.708 1134.40812,1429.76063 1134.43605,1427.33558 C1134.46398,1424.89179 1132.51796,1422.88666 1130.08854,1422.85856 L1056.71476,1422 L1056.662,1422 C1055.85349,1422 1055.09773,1422.22401 1054.44596,1422.60802 L345.554818,1422.60802 C344.902266,1422.22401 344.146515,1422 343.338001,1422 L343.286014,1422 L269.911458,1422.85856 C267.482037,1422.88666 265.536794,1424.89179 265.564727,1427.33558 C265.59266,1429.76141 267.556526,1431.708 269.962669,1431.708 L270.014656,1431.708 L290.28414,1431.47073 L266.737149,1453.98692 L235.664463,1454.35064 C233.235043,1454.37874 231.289023,1456.38309 231.316956,1458.82687 C231.34489,1461.25348 233.308755,1463.20008 235.714898,1463.20008 L235.766885,1463.20008 L257.367081,1462.94719 L231.679313,1487.51145 L197.025734,1487.91731 C194.596313,1487.94541 192.650294,1489.94976 192.678227,1492.39355 C192.706161,1494.82016 194.670802,1496.76675 197.076169,1496.76675 L197.128932,1496.76675 L222.308469,1496.47172 L199.436533,1518.34243 L157.509434,1518.83337 C155.080013,1518.86147 153.133994,1520.8666 153.161927,1523.3096 C153.190636,1525.73621 155.154502,1527.68281 157.559869,1527.68281 L157.612632,1527.68281 L190.065688,1527.30348 L161.647441,1554.47777 L112.724604,1555.04988 C110.295184,1555.07876 108.34994,1557.08311 108.377873,1559.5269 C108.405807,1561.95273 110.369672,1563.89932 112.775815,1563.89932 L112.827802,1563.89932 L152.277373,1563.43804 L111.963422,1601.9875 L46.8633281,1602.75084 C44.4339074,1602.77894 42.4886638,1604.78329 42.5165971,1607.22707 C42.5445304,1609.65368 44.5083962,1611.60028 46.9145391,1611.60028 L46.9665261,1611.60028 L102.592578,1610.94855 L67.562675,1644.44498 L7.34780386,1645.15056 C4.91838319,1645.17866 2.9723637,1647.18301 3,1649.62679 C3.02823029,1652.0534 4.99209605,1654 7.39823897,1654 L7.45022594,1654 L58.1926066,1653.40525 L57.9156015,1653.66984 L1364.40853,1653.66984 L1392.549,1654 L1392.60176,1654 C1395.00713,1654 1396.97099,1652.0534 1397,1649.62679 C1397.02764,1647.18301 1395.08162,1645.17866 1392.6522,1645.15056" id="Rug" fill="#FFF5EE" transform="translate(700.000000, 1538.000000) scale(-1, 1) translate(-700.000000, -1538.000000)"/>
        <g id="Sofa" transform="translate(748.000000, 1296.000000) scale(-1, 1) translate(-748.000000, -1296.000000) translate(239.000000, 1076.000000)">
            <path d="M516,236 L130,232.663951 L160.368803,23.3418395 C162.040709,11.8189666 171.915294,3.25418844 183.582097,3.20705103 L484.500254,2 C491.02657,1.97436333 497.661807,5.15940018 503.838306,9.82413414 C507.955972,12.9339568 511.054425,16.3625633 513.133663,20.1099537 L516,236 Z" id="Fill-4" fill="#78BFB1"/>
            <path d="M538.221254,0 C530.033738,0 522.443506,4.2701591 518.209995,11.2563205 L513,19.8552191 L515.862944,235 L889,231.676768 L861.770587,20.4649882 C860.262689,8.7631014 850.271746,0 838.439992,0 L538.221254,0 Z" id="Fill-6" fill="#78BFB1"/>
            <path d="M150.732974,97.7204423 L18.8971046,147.373375 C9.78897773,150.803779 3.68400864,159.465036 3.48936776,169.233162 L0,344.321231 C-0.14659505,351.830986 5.87394078,358 13.3529501,358 L1004.64564,358 C1012.39839,358 1018.52202,351.390916 1017.96476,343.624081 L1004.68297,158.665233 C1004.09904,150.529739 999.416109,143.257426 992.267723,139.385167 L867.864646,72 L887.933099,232.459533 L131.579956,232.459533 L150.732974,97.7204423 Z" id="Fill-8" fill="#78BFB1"/>
            <path d="M61.253045,357 L95,357 L71.6179843,434.413903 C70.6150977,437.732787 67.5904345,440 64.1621273,440 C57.4815514,440 52.2973035,434.095161 53.0779191,427.375457 L61.253045,357 Z" id="Fill-10" fill="#CDB1AA"/>
            <path d="M948.746955,357 L915,357 L938.382016,434.413903 C939.384902,437.732787 942.409565,440 945.837873,440 C952.518449,440 957.702696,434.095161 956.922081,427.375457 L948.746955,357 Z" id="Fill-16" fill="#CDB1AA"/>
            <path d="M254.089659,97 C258.557227,97 262.178439,101.253019 262.178439,106.50045 C262.178439,111.746981 258.557227,116 254.089659,116 C249.622091,116 246,111.746981 246,106.50045 C246,101.253019 249.622091,97 254.089659,97 Z M384.468841,97 C388.93641,97 392.557621,101.253019 392.557621,106.50045 C392.557621,111.746981 388.93641,116 384.468841,116 C380.001273,116 376.379182,111.746981 376.379182,106.50045 C376.379182,101.253019 380.001273,97 384.468841,97 Z M620.483711,97 C624.951279,97 628.572491,101.253019 628.572491,106.50045 C628.572491,111.746981 624.951279,116 620.483711,116 C616.017023,116 612.394052,111.746981 612.394052,106.50045 C612.394052,101.253019 616.017023,97 620.483711,97 Z M749.911661,97 C754.378592,97 758,101.253019 758,106.50045 C758,111.746981 754.378592,116 749.911661,116 C745.443849,116 741.821561,111.746981 741.821561,106.50045 C741.821561,101.253019 745.443849,97 749.911661,97 Z" id="Combined-Shape" fill="#2F6858"/>
            <path d="M50.4453782,216.974249 L166.806723,272.037478 L141.635521,277 L52.5095516,234.825306 L50.4453782,216.974249 Z M263.516736,177.909871 L266,199.180744 L217.201828,261.128043 L194.466387,265.566524 L263.516736,177.909871 Z M256.827134,121.695279 L259.323529,142.891963 L177.013823,246.51073 L46.7972215,185.987184 L44.7226891,168.366314 L172.556164,227.782511 L256.827134,121.695279 Z M247.502993,69.2918455 C249.897783,73.10332 251.505917,77.4858053 252.065773,82.2448203 L252.065773,82.2448203 L252.647059,87.1787794 L164.652365,197.918455 L41.0769134,140.500349 L39,122.863843 L160.189591,179.175449 Z M217.096819,55.2140384 C220.11717,54.8593949 223.084907,54.9549789 225.941176,55.430219 L225.941176,55.430219 L154.875095,145.515021 L46.6302521,94.8554964 C50.6823555,90.3308888 56.0444368,86.9613292 62.2126584,85.3783865 L62.2126584,85.3783865 L150.418138,126.659959 L204.905731,57.590239 Z M169.668067,64.527897 L142.708317,98.8283262 L99.0882353,78.3378636 L124.12065,73.4399572 L138.298567,80.1000452 L147.061589,68.9502096 L169.668067,64.527897 Z" id="Combined-Shape" fill="#5BA092"/>
            <path d="M240.280264,255.491594 L90.2268604,284.783461 C73.0214021,286.804358 57.4399714,274.453642 55.4243658,257.195417 L39.2160551,118.41709 C37.2004495,101.158865 49.5134025,85.5296476 66.7188608,83.5069697 L216.773153,54.2168835 C233.977723,52.1942056 249.560042,64.5458116 251.575647,81.804037 L267.783958,220.583255 C269.799564,237.84148 257.485723,253.469806 240.280264,255.491594" id="Fill-44" fill="#F4F0F0"/>
            <g id="Group-16" transform="translate(759.000000, 108.000000)">
                <path d="M100.574564,91.0920706 C92.1657374,91.0920706 85.3495922,84.0734824 85.3495922,75.4133882 C85.3495922,66.7552118 92.1657374,59.7366235 100.574564,59.7366235 C108.983391,59.7366235 115.798587,66.7552118 115.798587,75.4133882 C115.798587,84.0734824 108.983391,91.0920706 100.574564,91.0920706 M69.285067,149.343476 C62.3711006,151.724235 54.5691453,147.148729 51.8557933,139.122418 C49.1443408,131.096106 52.5490894,122.658459 59.4621061,120.276741 C66.3751229,117.895024 74.1789777,122.472447 76.8913799,130.498759 C79.6037821,138.525071 76.1980838,146.962718 69.285067,149.343476 M155.993615,134.745388 C160.49719,134.745388 164.590486,136.416618 167.63814,139.142553 C169.050374,135.316847 169.834844,131.173771 169.834844,126.825506 L169.834844,46.4262353 C169.834844,37.6309471 166.624788,29.5308059 161.27976,23.3109176 C159.881771,34.1513765 150.825235,42.5209471 139.854061,42.5209471 C127.914173,42.5209471 118.23557,32.6115059 118.23557,20.3874647 C118.23557,16.3824588 119.279313,12.6296235 121.095179,9.3888 L72.5302626,3.9772 C72.5397598,4.22074118 72.5606536,4.46140588 72.5606536,4.70878235 C72.5606536,12.6890706 67.1083073,19.1582529 60.3814358,19.1582529 C53.6545642,19.1582529 48.2012682,12.6890706 48.2012682,4.70878235 C48.2012682,3.53518235 48.3323296,2.39897647 48.555514,1.30495882 L38.7857374,0.217652941 C18.0903743,-2.08927647 9.49720664e-05,14.2701706 9.49720664e-05,35.2904588 L9.49720664e-05,44.2966882 C1.50730168,43.9409647 3.06389385,43.7501588 4.65847486,43.7501588 C17.9431676,43.7501588 28.713,56.6875647 28.713,72.6481412 C28.713,88.6068 17.9431676,101.544206 4.65847486,101.544206 C3.06389385,101.544206 1.50730168,101.3534 9.49720664e-05,100.998635 L9.49720664e-05,115.689729 C9.49720664e-05,133.680135 13.4054022,148.790235 31.116743,150.762535 L131.048251,161.899271 C135.06557,162.346082 138.982218,162.083365 142.690877,161.226176 C140.346966,158.436 138.94043,154.895065 138.94043,151.038676 C138.94043,142.040118 146.576184,134.745388 155.993615,134.745388" id="Fill-1" fill="#F3705A"/>
                <path d="M155.992855,134.745676 C160.49643,134.745676 164.590676,136.416905 167.63833,139.142841 C163.552631,150.220129 154.131402,158.582988 142.690117,161.226464 C140.347156,158.436288 138.94062,154.895352 138.94062,151.038005 C138.94062,142.039446 146.575425,134.745676 155.992855,134.745676 Z M59.4620112,120.277221 C66.3750279,117.895503 74.1788827,122.471968 76.8912849,130.498279 C79.6036872,138.524591 76.1979888,146.962238 69.2849721,149.342997 C62.3710056,151.724715 54.5690503,147.14825 51.8556983,139.121938 C49.1442458,131.095626 52.5489944,122.657979 59.4620112,120.277221 Z M4.65847486,43.7498712 C17.9431676,43.7498712 28.713,56.6872771 28.713,72.6478535 C28.713,88.6074712 17.9431676,101.544877 4.65847486,101.544877 C3.06389385,101.544877 1.50730168,101.353112 9.49720667e-05,100.998348 L9.49720667e-05,100.998348 L9.49720667e-05,44.2973594 C1.50730168,43.9416359 3.06389385,43.7498712 4.65847486,43.7498712 Z M100.574564,59.7364318 C108.983391,59.7364318 115.798587,66.75502 115.798587,75.4141553 C115.798587,84.0732906 108.983391,91.0918788 100.574564,91.0918788 C92.1657374,91.0918788 85.3495922,84.0732906 85.3495922,75.4141553 C85.3495922,66.75502 92.1657374,59.7364318 100.574564,59.7364318 Z M121.095559,9.38860824 L138.717626,11.3522788 C147.770363,12.36192 155.691983,16.8079847 161.28014,23.3107259 C159.882151,34.1511847 150.825615,42.5207553 139.854441,42.5207553 C127.914553,42.5207553 118.235,32.6113141 118.235,20.3872729 C118.235,16.3822671 119.279693,12.6294318 121.095559,9.38860824 L121.095559,9.38860824 Z M48.5552291,1.30553412 L72.5299777,3.97681647 C72.5404246,4.22131647 72.5603687,4.46198118 72.5603687,4.70935765 C72.5603687,12.6886871 67.1080223,19.1578694 60.3811508,19.1578694 C53.6542793,19.1578694 48.2009832,12.6886871 48.2009832,4.70935765 C48.2009832,3.53479882 48.3320447,2.39859294 48.5552291,1.30553412 L48.5552291,1.30553412 Z" id="Combined-Shape" fill="#E74B33"/>
            </g>
            <path d="M512.709428,19 C513.498237,19 514.137693,19.6377029 514.137693,20.4243494 L514.137,231.994 L776.564963,230.75327 C777.353763,230.749557 778,231.384229 778,232.170867 C778,232.957504 777.367307,233.598224 776.578507,233.601953 L269.435037,235.999984 C268.646237,236.003697 268,235.369025 268,234.582388 C268,233.79575 268.632693,233.155031 269.421493,233.151301 L511.281,232.007 L511.281163,20.4243494 C511.281163,19.6377029 511.920619,19 512.709428,19 Z" id="Combined-Shape" fill="#2F6858"/>
        </g>
        <g id="Object/Floor" transform="translate(359.000000, 1366.000000) scale(-1, 1) translate(-359.000000, -1366.000000) translate(196.000000, 1170.000000) scale(0.8232323232323232 0.8218029350104822)">
            <g id="Object/Floor/Dog" stroke="none" stroke-width="1" fill="none" fill-rule="evenodd">
                <g id="Dog" transform="translate(2.000000, 220.000000)">
                    <path d="M49.181,4.0708 C73.071,-3.7112 122.853,-8.6852 146.804,71.4768 C146.804,71.4768 214.656,71.1668 253.08,76.4488 C297.926,82.6128 299.076,103.0048 317.501,112.7368 C360.71,135.5578 392.419,138.0728 392.573541,143.0538 C393.039,158.5158 328.706,139.7718 320.826,137.1458 C320.826,137.1458 332.902,170.4728 316.51,246.2308 C315.924,248.9398 313.44,250.8188 310.675,250.6308 L302.719,250.0888 C299.794,249.8878 297.523,247.4578 297.523,244.5248 L297.523,202.2878 C297.523,200.1538 295.731,198.4598 293.602,198.5778 L293.476,198.5848 C291.598,198.6888 290.094,200.1808 289.975,202.0588 L287.253,244.9188 C287.067,247.8548 284.631,250.1408 281.689,250.1408 L275.566,250.1408 C272.572,250.1408 270.112,247.7768 269.994,244.7848 L267.351,177.5658 C267.351,177.5658 173.573,199.9908 135.654,198.7668 L130.036,251.1918 C129.748,253.8848 127.566,255.9808 124.864,256.1618 L121.982,256.3538 C119.279,256.5338 116.837,254.7448 116.194,252.1128 L104.994,206.2608 C104.568,204.5188 102.957,203.3288 101.166,203.4338 L100.612,203.4668 C98.737,203.5778 97.239,205.0698 97.121,206.9438 L94.36,251.1458 C94.19,253.8618 92.084,256.0578 89.378,256.3428 L83.737,256.9368 C80.827,257.2438 78.175,255.2478 77.663,252.3668 L52.069,108.2518 C52.069,108.2518 -5.416,64.3478 22.426,23.7158 C28.844,14.3498 38.386,7.5878 49.181,4.0708" id="Fill-1" fill="#9B7368"/>
                    <path d="M189.9339,147.5689 C188.9659,138.7109 179.0359,133.9189 171.3639,138.4529 C161.0929,144.5239 148.6969,155.2989 166.0339,165.6079 C183.5299,176.0099 191.3549,160.5719 189.9339,147.5689" id="Fill-4" fill="#F7D3BB"/>
                    <path d="M77.4779,21.4878 C76.5529,25.5708 73.6529,28.3938 71.0009,27.7938 C68.3489,27.1918 66.9489,23.3948 67.8739,19.3118 C68.7989,15.2288 71.6999,12.4058 74.3509,13.0068 C77.0029,13.6068 78.4039,17.4048 77.4779,21.4878" id="Fill-6" fill="#010101"/>
                    <path d="M51.6908,39.48 C51.3178,38.793 50.4578,38.538 49.7688,38.912 C49.7208,38.938 44.8298,41.551 40.1898,39.959 C37.5138,39.042 35.4048,36.859 33.9228,33.47 L33.6668,32.883 L40.5258,25.283 C41.3588,24.36 40.8328,22.881 39.6038,22.693 L31.0928,21.383 C29.9548,21.209 29.0248,22.283 29.3628,23.384 L32.1058,32.345 L31.4798,33.203 C31.4148,33.293 24.8308,42.132 15.5778,38.568 C14.8528,38.289 14.0268,38.651 13.7458,39.382 C13.4648,40.113 13.8298,40.933 14.5598,41.214 C22.9788,44.451 29.5058,39.36 32.2948,36.542 C34.0438,39.604 36.3828,41.651 39.2708,42.641 C40.6738,43.123 42.0788,43.306 43.4038,43.306 C47.5558,43.306 50.9368,41.502 51.1228,41.402 C51.8098,41.028 52.0648,40.167 51.6908,39.48" id="Fill-8" fill="#010101"/>
                    <path d="M100.098,95.441 C111.609,111.083 128.304,57.07 133.441,39.046 C126.083,25.992 117.739,17.003 109.097,10.974 C104.956,23.67 87.954,78.937 100.098,95.441" id="Fill-10" fill="#6D4038"/>
                    <path d="M217.8011,116.4175 C241.3211,153.2315 280.8661,103.5335 277.3921,82.4825 C271.0331,79.9415 263.1631,77.8345 253.0801,76.4485 C243.8631,75.1815 232.9511,74.2365 221.6911,73.5315 C211.3911,80.5315 203.1481,93.4825 217.8011,116.4175" id="Fill-12" fill="#F7D3BB"/>
                    <path d="M17.5003,62.9976 C10.2973,71.3096 -7.0707,94.5606 3.1343,115.5386 C12.7403,135.2856 24.1623,101.9246 29.1503,84.5266 C24.4543,78.1586 20.1433,70.8426 17.5003,62.9976" id="Fill-14" fill="#6D4038"/>
                </g>
            </g>
        </g>
        <g transform="translate(981.500000, 1232.500000) scale(-1, 1) translate(-981.500000, -1232.500000) translate(497.000000, 749.000000) scale(1 1)" id="Master/Character/Sitting">
            <defs>
                <path d="M275.684414,0.876652922 C298.838059,1.54914435 329.906472,9.13626937 355.7471,15.2297529 L355.731944,15.2730262 C397.943463,24.6870841 452.971125,41.5664426 466.9347,60.6071529 C489.4187,91.2671529 484.8307,126.127153 444.6317,165.644153 C415.2977,194.481153 386.9717,210.585153 372.4107,216.074153 C363.858947,207.086013 354.27259,195.452866 345.166172,184.184251 L345.5431,187.063753 C345.8052,205.151453 195.8084,217.517053 146.0664,197.369053 L149.907924,169.277823 C138.376043,183.58138 125.055547,200.37944 113.5941,212.425753 C99.0331,206.935753 70.7081,190.832753 41.3741,161.994753 C1.1741,122.477753 -11.4139,87.6187529 11.0701,56.9587529 C23.1971,40.4207529 69.0261,26.2177529 108.6751,16.6397529 C108.048715,16.8278037 108.709162,16.7365391 110.005927,16.5033439 C127.558487,12.2104677 191.200137,-1.57717031 275.684414,0.876652922 Z M162.310363,78.5613735 L87.8171,104.583753 C87.8171,104.583753 122.608609,134.324697 151.917069,154.584908 L162.310363,78.5613735 Z M332.466363,87.1363735 L341.108096,153.169863 C367.388419,133.830342 393.927617,109.395078 395.144211,108.27232 L395.1877,108.232153 L332.466363,87.1363735 Z" id="mastercharactersitting-path-1"/>
            </defs>
            <g id="Master/Character/Sitting" stroke="none" stroke-width="1" fill="none" fill-rule="evenodd">
                <g id="Bottom/Sitting" transform="translate(15.000000, 331.000000) scale(1 1)">
                    <g id="Bottom/Sitting/Legs up" stroke="none" stroke-width="1" fill="none" fill-rule="evenodd">
                        <g id="Legs-up" transform="translate(261.000000, 0.000000)">
                            <path d="M277.5869,486.2118 C277.5869,486.2118 253.0069,557.4538 219.6899,574.0488 C219.6899,574.0488 200.0669,582.4978 198.0729,558.0308 L204.3409,477.3028 L222.0639,460.7618 L277.5869,486.2118 Z" id="Shoe" fill="#F3705A"/>
                            <path d="M378.6569,32.8377 C380.755216,63.606156 368.492286,130.588264 365.841509,144.582849 C406.270064,167.020711 382.9614,232.804 382.9614,232.804 L288.9194,489.491 C224.9404,496.429 194.8784,427.054 194.8784,427.054 L295.0864,246.679 C241.482032,262.181667 213.711514,270.070333 211.774847,270.345 C209.229783,270.705952 68.143011,270.87 48,270 C-43.8717273,270 27.0674,109.766 27.0674,109.766 C27.0674,109.766 61.7446448,109.921509 131.099134,110.232528 L133.2114,110.242 C133.2114,110.242 276.9299,21.7877 303.4759,7.7777 C331.6679,-7.1023 376.3079,-1.6203 378.6569,32.8377 Z" id="Pants" fill="#3973B0"/>
                            <path d="M314.426893,236.4501 C314.685086,236.938315 314.498616,237.5434 314.0104,237.801593 L295.5534,247.562593 C295.065185,247.820786 294.4601,247.634316 294.201907,247.1461 C293.943714,246.657885 294.130184,246.0528 294.6184,245.794607 L313.0754,236.033607 C313.563615,235.775414 314.1687,235.961884 314.426893,236.4501 Z M308.964494,114.713196 C309.406325,115.044564 309.495872,115.671364 309.164504,116.113194 L292.969602,137.705141 L328.976588,136.221041 C343.254007,135.848098 354.924693,138.036494 364.158423,142.570057 C364.654178,142.813462 364.858748,143.412669 364.615343,143.908423 C364.371938,144.404178 363.772731,144.608748 363.276977,144.365343 C354.353745,139.984228 343.000715,137.855396 329.043904,138.219851 L179.501904,144.386851 C179.287523,144.395692 179.075982,144.335344 178.898533,144.214724 L158.205533,130.148724 C157.748781,129.838248 157.6302,129.216286 157.940676,128.759533 C158.251152,128.302781 158.873114,128.1842 159.329867,128.494676 L179.749617,142.374936 L290.390602,137.811141 L307.564496,114.913206 C307.895864,114.471375 308.522664,114.381828 308.964494,114.713196 Z" id="Pants-details" fill="#94C0E9"/>
                        </g>
                    </g>
                </g>
                <g id="Head" transform="translate(247.000000, 64.000000) scale(1 1)">
                    <g id="Head/Buns" stroke="none" stroke-width="1" fill="none" fill-rule="evenodd">
                        <g id="Buns" transform="translate(27.000000, 22.000000)">
                            <path d="M35.4491,120.8545 C40.0451,120.8545 44.1551,119.1565 46.9151,116.4835 C47.9131,115.5165 49.4561,115.4195 50.5131,116.3225 C58.2311,122.9305 68.0261,127.6305 78.9481,129.5545 C80.3511,129.8015 81.3431,131.0665 81.2611,132.4895 L79.7011,160 L106.1401,160 L104.9161,138.3525 C104.5871,132.6145 108.9481,127.1025 114.6151,126.1435 C134.2491,122.8215 146.2771,107.3665 146.0801,84.6945 C145.8051,53.1185 117.1561,33.6915 85.6021,33.6915 C54.0481,33.6915 32.9661,51.6145 32.9661,79.6885 C32.9661,84.9065 33.8621,89.9345 35.5061,94.6715 C35.7431,95.3555 35.2641,96.0695 34.5411,96.0815 C30.4321,96.1535 20.3401,96.9535 20.392892,108.4685 C20.4251,115.3085 27.1341,120.8545 35.4491,120.8545 Z" id="Skin" fill="#583318"/>
                            <path d="M132.7754,44.9803 C143.4384,42.3773 151.2944,33.4693 151.2944,22.8763 C151.2944,10.2423 140.1214,0.0003 126.3384,0.0003 C112.5564,0.0003 101.3824,10.2423 101.3824,22.8763 C101.3824,25.2653 101.7834,27.5673 102.5244,29.7323 C85.4174,25.8243 67.3114,28.1113 51.9224,37.1073 C51.2374,37.5073 50.5604,37.9263 49.8864,38.3543 C49.8994,38.0483 49.9114,37.7433 49.9114,37.4343 C49.9114,24.7993 38.7384,14.5573 24.9564,14.5573 C11.1724,14.5573 0.0004,24.7993 0.0004,37.4343 C0.0004,50.0683 11.1724,60.3103 24.9564,60.3103 C27.3774,60.3103 29.7144,59.9883 31.9274,59.3983 C28.7124,68.5443 29.0184,80.0993 35.5054,94.6713 C35.5054,94.6713 67.0684,89.4253 94.1044,52.5113 C94.1044,52.5113 134.1374,72.2683 144.5354,76.9473 C144.5354,76.9473 148.4014,59.7483 132.7754,44.9803" id="Hair" fill="#B9B3B8"/>
                        </g>
                    </g>
                </g>
                <g id="Face" transform="translate(321.000000, 155.000000) scale(1 1)">
                    <g id="Face/Smily" stroke="none" stroke-width="1" fill="none" fill-rule="evenodd">
                        <g id="Smily" transform="translate(13.000000, 18.000000)" fill="#010101">
                            <path d="M1.05649516,3.93721769 C0.78222078,3.15551118 1.1935758,2.29946954 1.97528231,2.02519516 C2.75698882,1.75092078 3.61303046,2.1622758 3.88730484,2.94398231 C3.95443822,3.13531843 4.11129503,3.51234544 4.36224828,4.01132878 C4.78655391,4.85499764 5.31398001,5.69944759 5.94517532,6.48154463 C7.69177242,8.64570585 9.85979491,9.9066 12.5349,9.9066 C15.247696,9.9066 17.4871559,8.71981606 19.3201512,6.69611706 C19.9779734,5.9698555 20.5334128,5.18701509 20.9855827,4.4056427 C21.2521108,3.9450687 21.4203636,3.59832448 21.4925387,3.42447028 C21.8101741,2.65935638 22.6879158,2.29660337 23.4530297,2.61423875 C24.2181436,2.93187412 24.5808966,3.80961583 24.2632613,4.57472972 C23.818517,5.6460211 22.9330873,7.1760881 21.5436488,8.71008294 C19.1835191,11.3157589 16.181604,12.9066 12.5349,12.9066 C8.85050509,12.9066 5.88215258,11.1802442 3.61062468,8.36565537 C2.28154356,6.7188269 1.45775654,5.08084853 1.05649516,3.93721769 Z" id="Stroke-1"/>
                            <path d="M41.667649,3.84170489 C41.2915956,3.10354816 41.5851384,2.2003024 42.3232951,1.82424902 C43.0614518,1.44819563 43.9646976,1.74173839 44.340751,2.47989511 C44.4343982,2.66371559 44.6393142,3.02063235 44.9504028,3.49171658 C45.4761391,4.28784392 46.0988474,5.08506198 46.8105906,5.82476375 C48.7799391,7.87147152 51.0162021,9.0688 53.4862,9.0688 C55.8733585,9.0688 57.8510201,7.78669003 59.4724092,5.56225372 C60.0658866,4.74804276 60.5644383,3.86748561 60.9674459,2.98697314 C61.2066955,2.46424801 61.3575328,2.06752729 61.4234349,1.86292318 C61.6774178,1.07439027 62.5225439,0.641051901 63.3110768,0.895034853 C64.0996097,1.14901781 64.5329481,1.9941439 64.2789651,2.78267682 C64.1788672,3.09344771 63.9867905,3.59863324 63.6952978,4.23550186 C63.2137351,5.28764564 62.6180603,6.33974474 61.8967408,7.32934628 C59.7615674,10.25866 56.9694165,12.0688 53.4862,12.0688 C50.0866979,12.0688 47.1344609,10.4881285 44.6488094,7.90483625 C43.1952428,6.39417115 42.2009075,4.88844016 41.667649,3.84170489 Z" id="Stroke-3"/>
                            <path d="M19.9769814,21.5937431 C19.5213227,20.9018858 19.7127995,19.9716402 20.4046569,19.5159814 C21.0965142,19.0603227 22.0267598,19.2517995 22.4824186,19.9436569 C22.5794652,20.0910093 22.8107214,20.3947591 23.1775569,20.8031172 C23.808245,21.5051936 24.5784234,22.2117201 25.4889575,22.8726046 C29.5049161,25.7874707 34.7248822,26.8630119 41.3448245,24.9875019 C42.1418808,24.7616862 42.9710824,25.2247681 43.1968981,26.0218245 C43.4227138,26.8188808 42.9596319,27.6480824 42.1625755,27.8738981 C34.6271949,30.0087629 28.4639838,28.738872 23.7267489,25.3004887 C21.8517721,23.9395916 20.6158346,22.563757 19.9769814,21.5937431 Z" id="Stroke-5"/>
                        </g>
                    </g>
                </g>
                <g id="Body" transform="translate(64.000000, 26.000000) scale(1 1)">
                    <defs>
                        <path d="M340.9275,43.6191 C340.4445,42.9811 339.9625,42.4641 339.4845,42.0831 C324.4345,30.0941 258.3685,18.6151 258.3685,18.6151 C258.3685,18.6151 255.5625,6.8811 251.9905,3.3091 C248.4205,-0.2609 194.9805,0.1721 192.6435,1.3401 C190.3065,2.5091 187.1905,15.3611 187.1905,15.3611 C173.2465,16.0251 160.8435,19.4071 147.7565,23.0701 C127.3275,26.8031 97.9925,37.3101 75.3955,66.3031 C36.8185,115.7971 -4.6685,201.6831 0.4265,243.8991 C5.5215,286.1151 57.7325,304.2921 108.8765,241.7161 C120.2725,227.7721 127.765962,218.629249 135.641962,207.822249 C133.650425,211.536328 131.8171,220.740781 135.641962,221.314679 C185.492568,228.794479 256.57517,225.837481 297.165356,221.314679 C300.548356,284.846679 319.8295,302.8301 336.6955,314.9341 C350.1475,324.5901 368.0355,324.8731 382.1145,316.1591 C395.8835,307.6361 412.0075,290.7931 412.2885,258.5841 C412.7785,202.2201 398.0745,156.6381 381.9005,97.8241 C374.2635,70.0531 357.0125,53.4321 340.9275,43.6191 Z" id="bodyphone-path-1"/>
                    </defs>
                    <g id="Body/Phone" stroke="none" stroke-width="1" fill="none" fill-rule="evenodd">
                        <g id="Body" transform="translate(86.000000, 200.000000)">
                            <g id="Jumper" transform="translate(0.000000, 2.000000)">
                                <mask id="bodyphone-mask-2" fill="#fff">
                                    <use xlink:href="#bodyphone-path-1"/>
                                </mask>
                                <use fill="#2F6858" xlink:href="#bodyphone-path-1"/>
                                <g mask="url(#bodyphone-mask-2)">
                                    <g transform="translate(-7.000000, 119.000000) scale(1 1)" id="Patterns">
                                        <g id="Patterns/Pattern 5" stroke="none" stroke-width="1" fill="none" fill-rule="evenodd">
                                            <path d="M217.409367,0.00415373877 C218.193368,-0.0520138171 218.880095,0.468018146 218.943213,1.16567764 C220.522991,18.6271511 221.066625,26.9584181 220.993599,36.9438787 C220.897282,50.1139055 219.405315,61.6622496 216.100929,72.5077376 C213.808823,80.0316099 212.222446,84.4649331 206.137501,100.858669 C202.245413,111.344527 199.838687,118.121655 197.828675,124.565722 C199.019469,127.204959 200.127964,129.907698 201.159563,132.686486 C210.223253,157.100519 213.617697,184.263479 211.288803,211.382108 C212.802176,212.884428 214.406526,214.363482 216.102552,215.821111 C216.668308,216.307343 216.683992,217.109639 216.137584,217.613089 C215.591176,218.116539 214.689589,218.130496 214.123833,217.644264 C213.033818,216.707463 211.980241,215.761671 210.962676,214.806753 L210.868326,215.711114 L210.868326,215.711114 L210.741154,216.852936 C210.660876,217.554932 209.963512,218.065438 209.183549,217.993185 C208.403587,217.920932 207.83638,217.293279 207.916658,216.591283 C208.081535,215.149513 208.230005,213.707101 208.362077,212.26448 C197.341979,201.055634 191.072092,188.614769 188.893799,174.73468 C186.746409,161.051515 188.517998,146.320758 193.674237,128.570792 C194.050716,127.274794 194.432342,125.998371 194.82765,124.715038 C190.260518,114.772235 184.494491,105.725197 177.258043,96.8014536 C170.538129,88.5146834 163.925244,81.6759885 151.360841,69.6964531 C153.216927,74.5999764 155.47429,80.2445116 158.27426,87.0919361 C164.660803,102.710449 167.249539,109.457881 169.878602,118.039712 C173.204791,128.898734 174.936338,135.615077 176.070363,143.435028 C177.610934,154.058422 177.295805,163.696296 174.681304,172.541685 C168.09568,194.822195 147.349686,210.484544 108.745172,217.968741 C107.981189,218.116853 107.216761,217.724422 107.037775,217.09222 C106.858789,216.460019 107.333023,215.82745 108.097006,215.679338 C145.700531,208.389201 165.601045,193.365154 171.921129,171.983021 C174.44579,163.441578 174.751932,154.078586 173.249064,143.715191 C172.133427,136.022033 170.422269,129.384774 167.124179,118.617491 C164.519575,110.115499 161.945088,103.405205 155.582637,87.8456097 C151.765434,78.5105091 148.949617,71.3944261 146.779651,65.3367013 C137.245658,56.1328858 128.903423,45.6277506 121.991642,34.203113 C114.322084,42.8441016 105.453206,50.9574017 95.5388715,58.3781915 C96.2960258,63.0294989 97.3236986,67.4975096 98.6481384,71.844519 C100.92116,79.3057426 102.500878,83.7204591 108.567091,100.063729 C113.414135,113.122378 115.970671,120.463564 118.325763,128.570792 C123.482002,146.320758 125.253591,161.051515 123.106201,174.73468 C120.573145,190.875316 112.507235,205.069763 97.876167,217.644264 C97.3104109,218.130496 96.4088238,218.116539 95.8624157,217.613089 C95.3160077,217.109639 95.3316924,216.307343 95.8974485,215.821111 C110.068921,203.641605 117.839866,189.966238 120.285272,174.384114 C122.3731,161.080474 120.638975,146.661233 115.568105,129.205143 C113.233215,121.167461 110.690807,113.86684 105.862499,100.858669 C99.777554,84.4649331 98.1911774,80.0316099 95.8990706,72.5077376 C94.6888231,68.5355244 93.7216983,64.4690283 92.9772202,60.2631068 C90.0707963,62.3661286 87.0773696,64.411245 84.0018927,66.3937683 C68.8384773,76.1687627 59.0978394,82.6859049 50.9680376,88.7677722 C55.4513047,105.671398 56.8169374,123.848498 55.5483001,143.948754 C54.2486244,164.540783 51.005716,182.776536 43.4376364,217.035098 C43.2965237,217.673876 42.5550711,218.097239 41.7815556,217.980706 C41.0080402,217.864174 40.4953764,217.251875 40.6364891,216.613097 C48.1834452,182.450155 51.4133746,164.287387 52.704782,143.826362 C53.9272805,124.457126 52.6814268,106.918327 48.5355376,90.6122942 C45.8326231,92.6872185 43.2761646,94.7445393 40.7090179,96.899686 C27.0175789,108.393793 16.9103671,120.08615 9.53250193,133.615586 C-4.47167987,159.295692 -9.13068987,188.083352 -4.33691919,216.621012 C-4.22599001,217.281381 -4.76497972,217.893261 -5.54078641,217.987685 C-6.3165931,218.082108 -7.03543456,217.623318 -7.14636375,216.962949 C-12.0166172,187.969982 -7.28117199,158.710035 6.95829276,132.598479 C14.4883573,118.789942 24.7955708,106.866216 38.7161622,95.1797332 C41.6890184,92.6839891 44.6443023,90.3203894 47.8180298,87.9139944 C46.380612,82.7054675 44.6382039,77.6217889 42.5780972,72.6425763 C40.7314403,68.1792141 38.6835997,63.8391359 35.3607136,57.1764476 C34.9715184,56.3960758 34.6862399,55.8257981 33.9431771,54.3417694 C27.4559075,41.385536 24.7784637,35.5181097 22.3769241,28.1507943 C19.1911314,18.3775886 18.1891577,9.59154975 19.6716983,1.00979985 C19.7827472,0.366988488 20.5037883,-0.0797711836 21.2821886,0.0119341969 C22.060589,0.103639577 22.6015842,0.699083048 22.4905353,1.34189441 C21.0676146,9.57853196 22.0340518,18.052961 25.1264244,27.5395775 C27.4852316,34.7758007 30.1344657,40.5814074 36.5744852,53.4432738 L36.8329598,53.9595223 C37.3910981,55.0743669 37.6523909,55.5969556 37.9935361,56.2809827 C41.3369831,62.9848976 43.4024922,67.3624212 45.2725425,71.8823253 C47.1957069,76.5305527 48.8457154,81.266323 50.2341551,86.1052434 C58.1948341,80.2173094 67.7723218,73.8257286 82.2885014,64.4679703 C85.8074666,62.1995643 89.2171298,59.8483187 92.5118662,57.4203384 C91.5377292,50.9856879 91.0595534,44.2117125 91.0064015,36.9438787 C90.9333747,26.9584181 91.4770087,18.6271511 93.0567867,1.16567764 C93.1199054,0.468018146 93.8066318,-0.0520138171 94.5906329,0.00415373877 C95.3746339,0.0603212946 95.9590245,0.671418859 95.8959057,1.36907835 C94.3226539,18.7584175 93.7823293,27.0389669 93.8546464,36.927384 C93.9026288,43.4883572 94.3013309,49.6320296 95.1025496,55.4760815 C104.655279,48.1855986 113.190797,40.2395466 120.565597,31.7954088 C115.035095,22.2784008 110.48823,12.1546487 107.057861,1.63806611 C106.836992,0.960939554 107.267827,0.250868216 108.020159,0.0520773892 C108.772491,-0.146713437 109.561427,0.24105429 109.782296,0.918180849 C113.034677,10.8891005 117.305786,20.5000329 122.476595,29.5626829 C130.139898,20.4483003 136.461581,10.7806593 141.266684,0.752040787 C141.562642,0.134352152 142.390832,-0.162161009 143.116497,0.0897601052 C143.331075,0.164252908 143.512662,0.278358283 143.654353,0.418106461 C144.013008,0.0644028749 144.609683,-0.0939108835 145.175514,0.0570050979 C145.922349,0.256197594 146.332642,0.918672054 146.091928,1.53668322 C140.949515,14.7393523 140.375321,28.5539847 143.625818,44.2023774 C144.978434,50.7140778 146.6243,56.5513246 149.26011,63.9822068 L149.885105,64.5788364 C164.877821,78.7757922 172.133954,86.1477071 179.551557,95.2948443 C186.204148,103.498593 191.642679,111.816272 196.064271,120.81588 C197.898453,115.184216 200.135735,108.9468 203.432909,100.063729 C209.499122,83.7204591 211.07884,79.3057426 213.351862,71.844519 C216.585959,61.2297285 218.050529,49.893446 218.145354,36.927384 C218.217671,27.0389669 217.677346,18.7584175 216.104094,1.36907835 C216.040976,0.671418859 216.625366,0.0603212946 217.409367,0.00415373877 Z M279.717811,11.011332 C280.496212,10.924254 281.217253,11.3484707 281.328302,11.9588466 C282.810842,20.1075725 281.808869,28.4502791 278.623076,37.7303414 C276.221536,44.7259115 273.544092,50.297275 267.056823,62.5997535 C266.31376,64.0089 266.028482,64.5504023 265.639286,65.2913975 C262.3164,71.6178951 260.26856,75.7389785 258.421903,79.9771252 C249.610762,100.198792 246.611279,122.235028 248.295218,147.569068 C249.586625,166.997656 252.816555,184.243955 260.363511,216.683078 C260.504624,217.289624 259.99196,217.871028 259.218444,217.98168 C258.444929,218.092332 257.703476,217.690331 257.562364,217.083786 C249.994284,184.553867 246.751376,167.238266 245.4517,147.685284 C243.750163,122.086494 246.787424,99.7727119 255.727457,79.2552355 C257.597508,74.9633999 259.663017,70.8067606 263.006464,64.4411166 C263.396344,63.6988172 263.681927,63.1567365 264.425515,61.7465949 C270.865534,49.5337217 273.514768,44.0210585 275.873576,37.1499657 C278.965948,28.1420318 279.932385,20.0952115 278.509465,12.2741841 C278.398416,11.6638082 278.939411,11.0984101 279.717811,11.011332 Z M196.577547,128.703258 L196.561838,128.759322 L196.561838,128.759322 L196.431895,129.205143 C191.361025,146.661233 189.6269,161.080474 191.714728,174.384114 C193.691808,186.982063 199.149935,198.333657 208.657208,208.656042 C210.541632,182.713032 207.125296,156.819777 198.466504,133.496379 C197.863853,131.873036 197.234535,130.276275 196.577547,128.703258 Z M141.466653,6.46459073 L141.105558,7.13769965 C136.442042,15.768877 130.67019,24.100328 123.903819,32.0096623 C129.822363,41.9582135 136.837464,51.2099265 144.785143,59.5074347 C143.087801,54.2676668 141.871707,49.6380466 140.825349,44.6007172 C137.959379,30.8034951 138.003707,18.3505618 141.466653,6.46459073 Z" id="Pattern" fill="#010101"/>
                                        </g>
                                    </g>
                                </g>
                                <g mask="url(#bodyphone-mask-2)">
                                    <g transform="translate(-7.000000, -99.000000) scale(1 1)" id="Patterns">
                                        <g id="Patterns/Pattern 5" stroke="none" stroke-width="1" fill="none" fill-rule="evenodd">
                                            <path d="M217.409367,0.00415373877 C218.193368,-0.0520138171 218.880095,0.468018146 218.943213,1.16567764 C220.522991,18.6271511 221.066625,26.9584181 220.993599,36.9438787 C220.897282,50.1139055 219.405315,61.6622496 216.100929,72.5077376 C213.808823,80.0316099 212.222446,84.4649331 206.137501,100.858669 C202.245413,111.344527 199.838687,118.121655 197.828675,124.565722 C199.019469,127.204959 200.127964,129.907698 201.159563,132.686486 C210.223253,157.100519 213.617697,184.263479 211.288803,211.382108 C212.802176,212.884428 214.406526,214.363482 216.102552,215.821111 C216.668308,216.307343 216.683992,217.109639 216.137584,217.613089 C215.591176,218.116539 214.689589,218.130496 214.123833,217.644264 C213.033818,216.707463 211.980241,215.761671 210.962676,214.806753 L210.868326,215.711114 L210.868326,215.711114 L210.741154,216.852936 C210.660876,217.554932 209.963512,218.065438 209.183549,217.993185 C208.403587,217.920932 207.83638,217.293279 207.916658,216.591283 C208.081535,215.149513 208.230005,213.707101 208.362077,212.26448 C197.341979,201.055634 191.072092,188.614769 188.893799,174.73468 C186.746409,161.051515 188.517998,146.320758 193.674237,128.570792 C194.050716,127.274794 194.432342,125.998371 194.82765,124.715038 C190.260518,114.772235 184.494491,105.725197 177.258043,96.8014536 C170.538129,88.5146834 163.925244,81.6759885 151.360841,69.6964531 C153.216927,74.5999764 155.47429,80.2445116 158.27426,87.0919361 C164.660803,102.710449 167.249539,109.457881 169.878602,118.039712 C173.204791,128.898734 174.936338,135.615077 176.070363,143.435028 C177.610934,154.058422 177.295805,163.696296 174.681304,172.541685 C168.09568,194.822195 147.349686,210.484544 108.745172,217.968741 C107.981189,218.116853 107.216761,217.724422 107.037775,217.09222 C106.858789,216.460019 107.333023,215.82745 108.097006,215.679338 C145.700531,208.389201 165.601045,193.365154 171.921129,171.983021 C174.44579,163.441578 174.751932,154.078586 173.249064,143.715191 C172.133427,136.022033 170.422269,129.384774 167.124179,118.617491 C164.519575,110.115499 161.945088,103.405205 155.582637,87.8456097 C151.765434,78.5105091 148.949617,71.3944261 146.779651,65.3367013 C137.245658,56.1328858 128.903423,45.6277506 121.991642,34.203113 C114.322084,42.8441016 105.453206,50.9574017 95.5388715,58.3781915 C96.2960258,63.0294989 97.3236986,67.4975096 98.6481384,71.844519 C100.92116,79.3057426 102.500878,83.7204591 108.567091,100.063729 C113.414135,113.122378 115.970671,120.463564 118.325763,128.570792 C123.482002,146.320758 125.253591,161.051515 123.106201,174.73468 C120.573145,190.875316 112.507235,205.069763 97.876167,217.644264 C97.3104109,218.130496 96.4088238,218.116539 95.8624157,217.613089 C95.3160077,217.109639 95.3316924,216.307343 95.8974485,215.821111 C110.068921,203.641605 117.839866,189.966238 120.285272,174.384114 C122.3731,161.080474 120.638975,146.661233 115.568105,129.205143 C113.233215,121.167461 110.690807,113.86684 105.862499,100.858669 C99.777554,84.4649331 98.1911774,80.0316099 95.8990706,72.5077376 C94.6888231,68.5355244 93.7216983,64.4690283 92.9772202,60.2631068 C90.0707963,62.3661286 87.0773696,64.411245 84.0018927,66.3937683 C68.8384773,76.1687627 59.0978394,82.6859049 50.9680376,88.7677722 C55.4513047,105.671398 56.8169374,123.848498 55.5483001,143.948754 C54.2486244,164.540783 51.005716,182.776536 43.4376364,217.035098 C43.2965237,217.673876 42.5550711,218.097239 41.7815556,217.980706 C41.0080402,217.864174 40.4953764,217.251875 40.6364891,216.613097 C48.1834452,182.450155 51.4133746,164.287387 52.704782,143.826362 C53.9272805,124.457126 52.6814268,106.918327 48.5355376,90.6122942 C45.8326231,92.6872185 43.2761646,94.7445393 40.7090179,96.899686 C27.0175789,108.393793 16.9103671,120.08615 9.53250193,133.615586 C-4.47167987,159.295692 -9.13068987,188.083352 -4.33691919,216.621012 C-4.22599001,217.281381 -4.76497972,217.893261 -5.54078641,217.987685 C-6.3165931,218.082108 -7.03543456,217.623318 -7.14636375,216.962949 C-12.0166172,187.969982 -7.28117199,158.710035 6.95829276,132.598479 C14.4883573,118.789942 24.7955708,106.866216 38.7161622,95.1797332 C41.6890184,92.6839891 44.6443023,90.3203894 47.8180298,87.9139944 C46.380612,82.7054675 44.6382039,77.6217889 42.5780972,72.6425763 C40.7314403,68.1792141 38.6835997,63.8391359 35.3607136,57.1764476 C34.9715184,56.3960758 34.6862399,55.8257981 33.9431771,54.3417694 C27.4559075,41.385536 24.7784637,35.5181097 22.3769241,28.1507943 C19.1911314,18.3775886 18.1891577,9.59154975 19.6716983,1.00979985 C19.7827472,0.366988488 20.5037883,-0.0797711836 21.2821886,0.0119341969 C22.060589,0.103639577 22.6015842,0.699083048 22.4905353,1.34189441 C21.0676146,9.57853196 22.0340518,18.052961 25.1264244,27.5395775 C27.4852316,34.7758007 30.1344657,40.5814074 36.5744852,53.4432738 L36.8329598,53.9595223 C37.3910981,55.0743669 37.6523909,55.5969556 37.9935361,56.2809827 C41.3369831,62.9848976 43.4024922,67.3624212 45.2725425,71.8823253 C47.1957069,76.5305527 48.8457154,81.266323 50.2341551,86.1052434 C58.1948341,80.2173094 67.7723218,73.8257286 82.2885014,64.4679703 C85.8074666,62.1995643 89.2171298,59.8483187 92.5118662,57.4203384 C91.5377292,50.9856879 91.0595534,44.2117125 91.0064015,36.9438787 C90.9333747,26.9584181 91.4770087,18.6271511 93.0567867,1.16567764 C93.1199054,0.468018146 93.8066318,-0.0520138171 94.5906329,0.00415373877 C95.3746339,0.0603212946 95.9590245,0.671418859 95.8959057,1.36907835 C94.3226539,18.7584175 93.7823293,27.0389669 93.8546464,36.927384 C93.9026288,43.4883572 94.3013309,49.6320296 95.1025496,55.4760815 C104.655279,48.1855986 113.190797,40.2395466 120.565597,31.7954088 C115.035095,22.2784008 110.48823,12.1546487 107.057861,1.63806611 C106.836992,0.960939554 107.267827,0.250868216 108.020159,0.0520773892 C108.772491,-0.146713437 109.561427,0.24105429 109.782296,0.918180849 C113.034677,10.8891005 117.305786,20.5000329 122.476595,29.5626829 C130.139898,20.4483003 136.461581,10.7806593 141.266684,0.752040787 C141.562642,0.134352152 142.390832,-0.162161009 143.116497,0.0897601052 C143.331075,0.164252908 143.512662,0.278358283 143.654353,0.418106461 C144.013008,0.0644028749 144.609683,-0.0939108835 145.175514,0.0570050979 C145.922349,0.256197594 146.332642,0.918672054 146.091928,1.53668322 C140.949515,14.7393523 140.375321,28.5539847 143.625818,44.2023774 C144.978434,50.7140778 146.6243,56.5513246 149.26011,63.9822068 L149.885105,64.5788364 C164.877821,78.7757922 172.133954,86.1477071 179.551557,95.2948443 C186.204148,103.498593 191.642679,111.816272 196.064271,120.81588 C197.898453,115.184216 200.135735,108.9468 203.432909,100.063729 C209.499122,83.7204591 211.07884,79.3057426 213.351862,71.844519 C216.585959,61.2297285 218.050529,49.893446 218.145354,36.927384 C218.217671,27.0389669 217.677346,18.7584175 216.104094,1.36907835 C216.040976,0.671418859 216.625366,0.0603212946 217.409367,0.00415373877 Z M279.717811,11.011332 C280.496212,10.924254 281.217253,11.3484707 281.328302,11.9588466 C282.810842,20.1075725 281.808869,28.4502791 278.623076,37.7303414 C276.221536,44.7259115 273.544092,50.297275 267.056823,62.5997535 C266.31376,64.0089 266.028482,64.5504023 265.639286,65.2913975 C262.3164,71.6178951 260.26856,75.7389785 258.421903,79.9771252 C249.610762,100.198792 246.611279,122.235028 248.295218,147.569068 C249.586625,166.997656 252.816555,184.243955 260.363511,216.683078 C260.504624,217.289624 259.99196,217.871028 259.218444,217.98168 C258.444929,218.092332 257.703476,217.690331 257.562364,217.083786 C249.994284,184.553867 246.751376,167.238266 245.4517,147.685284 C243.750163,122.086494 246.787424,99.7727119 255.727457,79.2552355 C257.597508,74.9633999 259.663017,70.8067606 263.006464,64.4411166 C263.396344,63.6988172 263.681927,63.1567365 264.425515,61.7465949 C270.865534,49.5337217 273.514768,44.0210585 275.873576,37.1499657 C278.965948,28.1420318 279.932385,20.0952115 278.509465,12.2741841 C278.398416,11.6638082 278.939411,11.0984101 279.717811,11.011332 Z M196.577547,128.703258 L196.561838,128.759322 L196.561838,128.759322 L196.431895,129.205143 C191.361025,146.661233 189.6269,161.080474 191.714728,174.384114 C193.691808,186.982063 199.149935,198.333657 208.657208,208.656042 C210.541632,182.713032 207.125296,156.819777 198.466504,133.496379 C197.863853,131.873036 197.234535,130.276275 196.577547,128.703258 Z M141.466653,6.46459073 L141.105558,7.13769965 C136.442042,15.768877 130.67019,24.100328 123.903819,32.0096623 C129.822363,41.9582135 136.837464,51.2099265 144.785143,59.5074347 C143.087801,54.2676668 141.871707,49.6380466 140.825349,44.6007172 C137.959379,30.8034951 138.003707,18.3505618 141.466653,6.46459073 Z" id="Pattern" fill="#010101"/>
                                        </g>
                                    </g>
                                </g>
                                <g mask="url(#bodyphone-mask-2)">
                                    <g transform="translate(272.000000, 119.000000) scale(1 1)" id="Patterns">
                                        <g id="Patterns/Pattern 5" stroke="none" stroke-width="1" fill="none" fill-rule="evenodd">
                                            <path d="M217.409367,0.00415373877 C218.193368,-0.0520138171 218.880095,0.468018146 218.943213,1.16567764 C220.522991,18.6271511 221.066625,26.9584181 220.993599,36.9438787 C220.897282,50.1139055 219.405315,61.6622496 216.100929,72.5077376 C213.808823,80.0316099 212.222446,84.4649331 206.137501,100.858669 C202.245413,111.344527 199.838687,118.121655 197.828675,124.565722 C199.019469,127.204959 200.127964,129.907698 201.159563,132.686486 C210.223253,157.100519 213.617697,184.263479 211.288803,211.382108 C212.802176,212.884428 214.406526,214.363482 216.102552,215.821111 C216.668308,216.307343 216.683992,217.109639 216.137584,217.613089 C215.591176,218.116539 214.689589,218.130496 214.123833,217.644264 C213.033818,216.707463 211.980241,215.761671 210.962676,214.806753 L210.868326,215.711114 L210.868326,215.711114 L210.741154,216.852936 C210.660876,217.554932 209.963512,218.065438 209.183549,217.993185 C208.403587,217.920932 207.83638,217.293279 207.916658,216.591283 C208.081535,215.149513 208.230005,213.707101 208.362077,212.26448 C197.341979,201.055634 191.072092,188.614769 188.893799,174.73468 C186.746409,161.051515 188.517998,146.320758 193.674237,128.570792 C194.050716,127.274794 194.432342,125.998371 194.82765,124.715038 C190.260518,114.772235 184.494491,105.725197 177.258043,96.8014536 C170.538129,88.5146834 163.925244,81.6759885 151.360841,69.6964531 C153.216927,74.5999764 155.47429,80.2445116 158.27426,87.0919361 C164.660803,102.710449 167.249539,109.457881 169.878602,118.039712 C173.204791,128.898734 174.936338,135.615077 176.070363,143.435028 C177.610934,154.058422 177.295805,163.696296 174.681304,172.541685 C168.09568,194.822195 147.349686,210.484544 108.745172,217.968741 C107.981189,218.116853 107.216761,217.724422 107.037775,217.09222 C106.858789,216.460019 107.333023,215.82745 108.097006,215.679338 C145.700531,208.389201 165.601045,193.365154 171.921129,171.983021 C174.44579,163.441578 174.751932,154.078586 173.249064,143.715191 C172.133427,136.022033 170.422269,129.384774 167.124179,118.617491 C164.519575,110.115499 161.945088,103.405205 155.582637,87.8456097 C151.765434,78.5105091 148.949617,71.3944261 146.779651,65.3367013 C137.245658,56.1328858 128.903423,45.6277506 121.991642,34.203113 C114.322084,42.8441016 105.453206,50.9574017 95.5388715,58.3781915 C96.2960258,63.0294989 97.3236986,67.4975096 98.6481384,71.844519 C100.92116,79.3057426 102.500878,83.7204591 108.567091,100.063729 C113.414135,113.122378 115.970671,120.463564 118.325763,128.570792 C123.482002,146.320758 125.253591,161.051515 123.106201,174.73468 C120.573145,190.875316 112.507235,205.069763 97.876167,217.644264 C97.3104109,218.130496 96.4088238,218.116539 95.8624157,217.613089 C95.3160077,217.109639 95.3316924,216.307343 95.8974485,215.821111 C110.068921,203.641605 117.839866,189.966238 120.285272,174.384114 C122.3731,161.080474 120.638975,146.661233 115.568105,129.205143 C113.233215,121.167461 110.690807,113.86684 105.862499,100.858669 C99.777554,84.4649331 98.1911774,80.0316099 95.8990706,72.5077376 C94.6888231,68.5355244 93.7216983,64.4690283 92.9772202,60.2631068 C90.0707963,62.3661286 87.0773696,64.411245 84.0018927,66.3937683 C68.8384773,76.1687627 59.0978394,82.6859049 50.9680376,88.7677722 C55.4513047,105.671398 56.8169374,123.848498 55.5483001,143.948754 C54.2486244,164.540783 51.005716,182.776536 43.4376364,217.035098 C43.2965237,217.673876 42.5550711,218.097239 41.7815556,217.980706 C41.0080402,217.864174 40.4953764,217.251875 40.6364891,216.613097 C48.1834452,182.450155 51.4133746,164.287387 52.704782,143.826362 C53.9272805,124.457126 52.6814268,106.918327 48.5355376,90.6122942 C45.8326231,92.6872185 43.2761646,94.7445393 40.7090179,96.899686 C27.0175789,108.393793 16.9103671,120.08615 9.53250193,133.615586 C-4.47167987,159.295692 -9.13068987,188.083352 -4.33691919,216.621012 C-4.22599001,217.281381 -4.76497972,217.893261 -5.54078641,217.987685 C-6.3165931,218.082108 -7.03543456,217.623318 -7.14636375,216.962949 C-12.0166172,187.969982 -7.28117199,158.710035 6.95829276,132.598479 C14.4883573,118.789942 24.7955708,106.866216 38.7161622,95.1797332 C41.6890184,92.6839891 44.6443023,90.3203894 47.8180298,87.9139944 C46.380612,82.7054675 44.6382039,77.6217889 42.5780972,72.6425763 C40.7314403,68.1792141 38.6835997,63.8391359 35.3607136,57.1764476 C34.9715184,56.3960758 34.6862399,55.8257981 33.9431771,54.3417694 C27.4559075,41.385536 24.7784637,35.5181097 22.3769241,28.1507943 C19.1911314,18.3775886 18.1891577,9.59154975 19.6716983,1.00979985 C19.7827472,0.366988488 20.5037883,-0.0797711836 21.2821886,0.0119341969 C22.060589,0.103639577 22.6015842,0.699083048 22.4905353,1.34189441 C21.0676146,9.57853196 22.0340518,18.052961 25.1264244,27.5395775 C27.4852316,34.7758007 30.1344657,40.5814074 36.5744852,53.4432738 L36.8329598,53.9595223 C37.3910981,55.0743669 37.6523909,55.5969556 37.9935361,56.2809827 C41.3369831,62.9848976 43.4024922,67.3624212 45.2725425,71.8823253 C47.1957069,76.5305527 48.8457154,81.266323 50.2341551,86.1052434 C58.1948341,80.2173094 67.7723218,73.8257286 82.2885014,64.4679703 C85.8074666,62.1995643 89.2171298,59.8483187 92.5118662,57.4203384 C91.5377292,50.9856879 91.0595534,44.2117125 91.0064015,36.9438787 C90.9333747,26.9584181 91.4770087,18.6271511 93.0567867,1.16567764 C93.1199054,0.468018146 93.8066318,-0.0520138171 94.5906329,0.00415373877 C95.3746339,0.0603212946 95.9590245,0.671418859 95.8959057,1.36907835 C94.3226539,18.7584175 93.7823293,27.0389669 93.8546464,36.927384 C93.9026288,43.4883572 94.3013309,49.6320296 95.1025496,55.4760815 C104.655279,48.1855986 113.190797,40.2395466 120.565597,31.7954088 C115.035095,22.2784008 110.48823,12.1546487 107.057861,1.63806611 C106.836992,0.960939554 107.267827,0.250868216 108.020159,0.0520773892 C108.772491,-0.146713437 109.561427,0.24105429 109.782296,0.918180849 C113.034677,10.8891005 117.305786,20.5000329 122.476595,29.5626829 C130.139898,20.4483003 136.461581,10.7806593 141.266684,0.752040787 C141.562642,0.134352152 142.390832,-0.162161009 143.116497,0.0897601052 C143.331075,0.164252908 143.512662,0.278358283 143.654353,0.418106461 C144.013008,0.0644028749 144.609683,-0.0939108835 145.175514,0.0570050979 C145.922349,0.256197594 146.332642,0.918672054 146.091928,1.53668322 C140.949515,14.7393523 140.375321,28.5539847 143.625818,44.2023774 C144.978434,50.7140778 146.6243,56.5513246 149.26011,63.9822068 L149.885105,64.5788364 C164.877821,78.7757922 172.133954,86.1477071 179.551557,95.2948443 C186.204148,103.498593 191.642679,111.816272 196.064271,120.81588 C197.898453,115.184216 200.135735,108.9468 203.432909,100.063729 C209.499122,83.7204591 211.07884,79.3057426 213.351862,71.844519 C216.585959,61.2297285 218.050529,49.893446 218.145354,36.927384 C218.217671,27.0389669 217.677346,18.7584175 216.104094,1.36907835 C216.040976,0.671418859 216.625366,0.0603212946 217.409367,0.00415373877 Z M279.717811,11.011332 C280.496212,10.924254 281.217253,11.3484707 281.328302,11.9588466 C282.810842,20.1075725 281.808869,28.4502791 278.623076,37.7303414 C276.221536,44.7259115 273.544092,50.297275 267.056823,62.5997535 C266.31376,64.0089 266.028482,64.5504023 265.639286,65.2913975 C262.3164,71.6178951 260.26856,75.7389785 258.421903,79.9771252 C249.610762,100.198792 246.611279,122.235028 248.295218,147.569068 C249.586625,166.997656 252.816555,184.243955 260.363511,216.683078 C260.504624,217.289624 259.99196,217.871028 259.218444,217.98168 C258.444929,218.092332 257.703476,217.690331 257.562364,217.083786 C249.994284,184.553867 246.751376,167.238266 245.4517,147.685284 C243.750163,122.086494 246.787424,99.7727119 255.727457,79.2552355 C257.597508,74.9633999 259.663017,70.8067606 263.006464,64.4411166 C263.396344,63.6988172 263.681927,63.1567365 264.425515,61.7465949 C270.865534,49.5337217 273.514768,44.0210585 275.873576,37.1499657 C278.965948,28.1420318 279.932385,20.0952115 278.509465,12.2741841 C278.398416,11.6638082 278.939411,11.0984101 279.717811,11.011332 Z M196.577547,128.703258 L196.561838,128.759322 L196.561838,128.759322 L196.431895,129.205143 C191.361025,146.661233 189.6269,161.080474 191.714728,174.384114 C193.691808,186.982063 199.149935,198.333657 208.657208,208.656042 C210.541632,182.713032 207.125296,156.819777 198.466504,133.496379 C197.863853,131.873036 197.234535,130.276275 196.577547,128.703258 Z M141.466653,6.46459073 L141.105558,7.13769965 C136.442042,15.768877 130.67019,24.100328 123.903819,32.0096623 C129.822363,41.9582135 136.837464,51.2099265 144.785143,59.5074347 C143.087801,54.2676668 141.871707,49.6380466 140.825349,44.6007172 C137.959379,30.8034951 138.003707,18.3505618 141.466653,6.46459073 Z" id="Pattern" fill="#010101"/>
                                        </g>
                                    </g>
                                </g>
                                <g mask="url(#bodyphone-mask-2)">
                                    <g transform="translate(272.000000, -99.000000) scale(1 1)" id="Patterns">
                                        <g id="Patterns/Pattern 5" stroke="none" stroke-width="1" fill="none" fill-rule="evenodd">
                                            <path d="M217.409367,0.00415373877 C218.193368,-0.0520138171 218.880095,0.468018146 218.943213,1.16567764 C220.522991,18.6271511 221.066625,26.9584181 220.993599,36.9438787 C220.897282,50.1139055 219.405315,61.6622496 216.100929,72.5077376 C213.808823,80.0316099 212.222446,84.4649331 206.137501,100.858669 C202.245413,111.344527 199.838687,118.121655 197.828675,124.565722 C199.019469,127.204959 200.127964,129.907698 201.159563,132.686486 C210.223253,157.100519 213.617697,184.263479 211.288803,211.382108 C212.802176,212.884428 214.406526,214.363482 216.102552,215.821111 C216.668308,216.307343 216.683992,217.109639 216.137584,217.613089 C215.591176,218.116539 214.689589,218.130496 214.123833,217.644264 C213.033818,216.707463 211.980241,215.761671 210.962676,214.806753 L210.868326,215.711114 L210.868326,215.711114 L210.741154,216.852936 C210.660876,217.554932 209.963512,218.065438 209.183549,217.993185 C208.403587,217.920932 207.83638,217.293279 207.916658,216.591283 C208.081535,215.149513 208.230005,213.707101 208.362077,212.26448 C197.341979,201.055634 191.072092,188.614769 188.893799,174.73468 C186.746409,161.051515 188.517998,146.320758 193.674237,128.570792 C194.050716,127.274794 194.432342,125.998371 194.82765,124.715038 C190.260518,114.772235 184.494491,105.725197 177.258043,96.8014536 C170.538129,88.5146834 163.925244,81.6759885 151.360841,69.6964531 C153.216927,74.5999764 155.47429,80.2445116 158.27426,87.0919361 C164.660803,102.710449 167.249539,109.457881 169.878602,118.039712 C173.204791,128.898734 174.936338,135.615077 176.070363,143.435028 C177.610934,154.058422 177.295805,163.696296 174.681304,172.541685 C168.09568,194.822195 147.349686,210.484544 108.745172,217.968741 C107.981189,218.116853 107.216761,217.724422 107.037775,217.09222 C106.858789,216.460019 107.333023,215.82745 108.097006,215.679338 C145.700531,208.389201 165.601045,193.365154 171.921129,171.983021 C174.44579,163.441578 174.751932,154.078586 173.249064,143.715191 C172.133427,136.022033 170.422269,129.384774 167.124179,118.617491 C164.519575,110.115499 161.945088,103.405205 155.582637,87.8456097 C151.765434,78.5105091 148.949617,71.3944261 146.779651,65.3367013 C137.245658,56.1328858 128.903423,45.6277506 121.991642,34.203113 C114.322084,42.8441016 105.453206,50.9574017 95.5388715,58.3781915 C96.2960258,63.0294989 97.3236986,67.4975096 98.6481384,71.844519 C100.92116,79.3057426 102.500878,83.7204591 108.567091,100.063729 C113.414135,113.122378 115.970671,120.463564 118.325763,128.570792 C123.482002,146.320758 125.253591,161.051515 123.106201,174.73468 C120.573145,190.875316 112.507235,205.069763 97.876167,217.644264 C97.3104109,218.130496 96.4088238,218.116539 95.8624157,217.613089 C95.3160077,217.109639 95.3316924,216.307343 95.8974485,215.821111 C110.068921,203.641605 117.839866,189.966238 120.285272,174.384114 C122.3731,161.080474 120.638975,146.661233 115.568105,129.205143 C113.233215,121.167461 110.690807,113.86684 105.862499,100.858669 C99.777554,84.4649331 98.1911774,80.0316099 95.8990706,72.5077376 C94.6888231,68.5355244 93.7216983,64.4690283 92.9772202,60.2631068 C90.0707963,62.3661286 87.0773696,64.411245 84.0018927,66.3937683 C68.8384773,76.1687627 59.0978394,82.6859049 50.9680376,88.7677722 C55.4513047,105.671398 56.8169374,123.848498 55.5483001,143.948754 C54.2486244,164.540783 51.005716,182.776536 43.4376364,217.035098 C43.2965237,217.673876 42.5550711,218.097239 41.7815556,217.980706 C41.0080402,217.864174 40.4953764,217.251875 40.6364891,216.613097 C48.1834452,182.450155 51.4133746,164.287387 52.704782,143.826362 C53.9272805,124.457126 52.6814268,106.918327 48.5355376,90.6122942 C45.8326231,92.6872185 43.2761646,94.7445393 40.7090179,96.899686 C27.0175789,108.393793 16.9103671,120.08615 9.53250193,133.615586 C-4.47167987,159.295692 -9.13068987,188.083352 -4.33691919,216.621012 C-4.22599001,217.281381 -4.76497972,217.893261 -5.54078641,217.987685 C-6.3165931,218.082108 -7.03543456,217.623318 -7.14636375,216.962949 C-12.0166172,187.969982 -7.28117199,158.710035 6.95829276,132.598479 C14.4883573,118.789942 24.7955708,106.866216 38.7161622,95.1797332 C41.6890184,92.6839891 44.6443023,90.3203894 47.8180298,87.9139944 C46.380612,82.7054675 44.6382039,77.6217889 42.5780972,72.6425763 C40.7314403,68.1792141 38.6835997,63.8391359 35.3607136,57.1764476 C34.9715184,56.3960758 34.6862399,55.8257981 33.9431771,54.3417694 C27.4559075,41.385536 24.7784637,35.5181097 22.3769241,28.1507943 C19.1911314,18.3775886 18.1891577,9.59154975 19.6716983,1.00979985 C19.7827472,0.366988488 20.5037883,-0.0797711836 21.2821886,0.0119341969 C22.060589,0.103639577 22.6015842,0.699083048 22.4905353,1.34189441 C21.0676146,9.57853196 22.0340518,18.052961 25.1264244,27.5395775 C27.4852316,34.7758007 30.1344657,40.5814074 36.5744852,53.4432738 L36.8329598,53.9595223 C37.3910981,55.0743669 37.6523909,55.5969556 37.9935361,56.2809827 C41.3369831,62.9848976 43.4024922,67.3624212 45.2725425,71.8823253 C47.1957069,76.5305527 48.8457154,81.266323 50.2341551,86.1052434 C58.1948341,80.2173094 67.7723218,73.8257286 82.2885014,64.4679703 C85.8074666,62.1995643 89.2171298,59.8483187 92.5118662,57.4203384 C91.5377292,50.9856879 91.0595534,44.2117125 91.0064015,36.9438787 C90.9333747,26.9584181 91.4770087,18.6271511 93.0567867,1.16567764 C93.1199054,0.468018146 93.8066318,-0.0520138171 94.5906329,0.00415373877 C95.3746339,0.0603212946 95.9590245,0.671418859 95.8959057,1.36907835 C94.3226539,18.7584175 93.7823293,27.0389669 93.8546464,36.927384 C93.9026288,43.4883572 94.3013309,49.6320296 95.1025496,55.4760815 C104.655279,48.1855986 113.190797,40.2395466 120.565597,31.7954088 C115.035095,22.2784008 110.48823,12.1546487 107.057861,1.63806611 C106.836992,0.960939554 107.267827,0.250868216 108.020159,0.0520773892 C108.772491,-0.146713437 109.561427,0.24105429 109.782296,0.918180849 C113.034677,10.8891005 117.305786,20.5000329 122.476595,29.5626829 C130.139898,20.4483003 136.461581,10.7806593 141.266684,0.752040787 C141.562642,0.134352152 142.390832,-0.162161009 143.116497,0.0897601052 C143.331075,0.164252908 143.512662,0.278358283 143.654353,0.418106461 C144.013008,0.0644028749 144.609683,-0.0939108835 145.175514,0.0570050979 C145.922349,0.256197594 146.332642,0.918672054 146.091928,1.53668322 C140.949515,14.7393523 140.375321,28.5539847 143.625818,44.2023774 C144.978434,50.7140778 146.6243,56.5513246 149.26011,63.9822068 L149.885105,64.5788364 C164.877821,78.7757922 172.133954,86.1477071 179.551557,95.2948443 C186.204148,103.498593 191.642679,111.816272 196.064271,120.81588 C197.898453,115.184216 200.135735,108.9468 203.432909,100.063729 C209.499122,83.7204591 211.07884,79.3057426 213.351862,71.844519 C216.585959,61.2297285 218.050529,49.893446 218.145354,36.927384 C218.217671,27.0389669 217.677346,18.7584175 216.104094,1.36907835 C216.040976,0.671418859 216.625366,0.0603212946 217.409367,0.00415373877 Z M279.717811,11.011332 C280.496212,10.924254 281.217253,11.3484707 281.328302,11.9588466 C282.810842,20.1075725 281.808869,28.4502791 278.623076,37.7303414 C276.221536,44.7259115 273.544092,50.297275 267.056823,62.5997535 C266.31376,64.0089 266.028482,64.5504023 265.639286,65.2913975 C262.3164,71.6178951 260.26856,75.7389785 258.421903,79.9771252 C249.610762,100.198792 246.611279,122.235028 248.295218,147.569068 C249.586625,166.997656 252.816555,184.243955 260.363511,216.683078 C260.504624,217.289624 259.99196,217.871028 259.218444,217.98168 C258.444929,218.092332 257.703476,217.690331 257.562364,217.083786 C249.994284,184.553867 246.751376,167.238266 245.4517,147.685284 C243.750163,122.086494 246.787424,99.7727119 255.727457,79.2552355 C257.597508,74.9633999 259.663017,70.8067606 263.006464,64.4411166 C263.396344,63.6988172 263.681927,63.1567365 264.425515,61.7465949 C270.865534,49.5337217 273.514768,44.0210585 275.873576,37.1499657 C278.965948,28.1420318 279.932385,20.0952115 278.509465,12.2741841 C278.398416,11.6638082 278.939411,11.0984101 279.717811,11.011332 Z M196.577547,128.703258 L196.561838,128.759322 L196.561838,128.759322 L196.431895,129.205143 C191.361025,146.661233 189.6269,161.080474 191.714728,174.384114 C193.691808,186.982063 199.149935,198.333657 208.657208,208.656042 C210.541632,182.713032 207.125296,156.819777 198.466504,133.496379 C197.863853,131.873036 197.234535,130.276275 196.577547,128.703258 Z M141.466653,6.46459073 L141.105558,7.13769965 C136.442042,15.768877 130.67019,24.100328 123.903819,32.0096623 C129.822363,41.9582135 136.837464,51.2099265 144.785143,59.5074347 C143.087801,54.2676668 141.871707,49.6380466 140.825349,44.6007172 C137.959379,30.8034951 138.003707,18.3505618 141.466653,6.46459073 Z" id="Pattern" fill="#010101"/>
                                        </g>
                                    </g>
                                </g>
                                <path d="M359.292146,121.442232 C363.237992,130.55999 367.002416,145.753659 370.545469,165.360065 C372.637931,176.939247 374.523771,189.342002 376.172581,201.74427 C376.749616,206.084692 377.255832,210.115212 377.687385,213.732673 C377.838466,214.999096 377.969434,216.12354 378.079808,217.093108 C378.118461,217.432655 378.151786,217.728645 378.17972,217.979463 C378.207754,218.232253 378.207754,218.232253 378.213505,218.284981 C378.273383,218.83401 377.876848,219.327627 377.327819,219.387505 C376.77879,219.447383 376.285173,219.050848 376.225295,218.501819 C376.219787,218.451313 376.219787,218.451313 376.19201,218.200841 C376.164254,217.951622 376.131111,217.657245 376.092643,217.319324 C375.982668,216.353265 375.852115,215.232382 375.701467,213.969587 C375.270938,210.360709 374.765831,206.339023 374.190025,202.007839 C372.545005,189.634088 370.663649,177.260825 368.577346,165.715723 C365.1618,146.814906 361.539537,132.047325 357.79131,123.025951 L297.306539,138.875068 C297.292459,139.463188 297.276801,140.148901 297.259957,140.926381 C297.211089,143.181964 297.162217,145.742737 297.116602,148.559938 C296.889508,162.585187 296.826285,177.150551 297.026891,190.758237 C297.201872,202.627783 297.570624,212.941484 298.162821,221.243529 C298.202117,221.794414 297.787391,222.272849 297.236506,222.312145 C296.685621,222.35144 296.207185,221.936715 296.16789,221.38583 C295.572601,213.040435 295.202598,202.691746 295.027108,190.787718 C294.826156,177.156545 294.889464,162.571751 295.116864,148.527559 C295.16254,145.706601 295.211481,143.142192 295.260426,140.88306 C295.27756,140.092203 295.293473,139.395945 295.307755,138.800378 C295.316331,138.44279 295.322461,138.198079 295.32574,138.072337 C295.337337,137.627505 295.641472,137.243852 296.071923,137.131059 L358.120923,120.872059 C358.598555,120.746902 359.096041,120.989087 359.292146,121.442232 Z M123.979588,112.811806 L170.241588,149.090806 C170.525866,149.313738 170.6678,149.672667 170.612875,150.029733 C169.550031,156.939345 162.295442,170.318343 151.216977,187.320025 C147.343572,193.264386 143.249617,199.253713 139.682664,204.265281 C138.292345,206.21868 137.093809,207.863939 136.320818,208.885752 C135.94953,209.376556 135.695205,209.699048 135.554821,209.853825 C135.471762,209.9454 135.413135,210.002678 135.31086,210.071145 C135.219967,210.131909 135.219967,210.131909 134.989571,210.214001 C134.554858,210.285024 134.554858,210.285024 133.944963,209.844755 C133.708854,209.036938 133.708854,209.036938 133.798782,208.905224 C133.845673,208.767604 133.905676,208.661983 134.036819,208.452619 C134.129152,208.305214 134.253613,208.190173 134.395427,208.110888 C134.4898,207.989337 134.60076,207.844428 134.725801,207.679137 L135.011293,207.299249 C135.767555,206.28709 136.83559,204.816349 138.053241,203.105549 C141.604874,198.115505 145.68347,192.148647 149.541323,186.228153 C160.127098,169.982582 167.224378,156.986567 168.536162,150.295036 L123.325542,114.840537 C123.228067,114.908774 123.120973,114.983998 123.004434,115.066161 C122.248101,115.59939 121.369937,116.231219 120.380104,116.958739 C117.54891,119.039647 114.392847,121.468485 110.993239,124.221925 C101.278306,132.090327 91.563022,140.978242 82.498124,150.697656 C76.1288601,157.526801 70.309881,164.532972 65.1640352,171.680003 C64.8413333,172.128202 64.2163951,172.229937 63.7681965,171.907235 C63.319998,171.584533 63.2182629,170.959595 63.5409648,170.511397 C68.7385746,163.29247 74.6110729,156.221861 81.0355216,149.333546 C90.1687324,139.540888 99.9514222,130.591307 109.734463,122.667743 C113.159145,119.893995 116.339924,117.446135 119.195639,115.347205 C120.196224,114.611782 121.085064,113.972271 121.85201,113.43156 C122.12108,113.241861 122.355867,113.077947 122.555102,112.940179 C122.67554,112.856899 122.757887,112.800488 122.800874,112.771309 C123.16077,112.527014 123.637307,112.543387 123.979588,112.811806 Z M203.316931,0.021805462 C203.857286,0.135977816 204.202775,0.666576767 204.088603,1.20693139 L200.978603,15.9259314 C200.86443,16.466286 200.333831,16.811775 199.793477,16.6976027 C199.253122,16.5834303 198.907633,16.0528313 199.021805,15.5124767 L202.131805,0.793476722 C202.245978,0.253122099 202.776577,-0.0923668919 203.316931,0.021805462 Z M243.14594,1.91362603 L246.253541,15.3168101 C246.378283,15.8548231 246.04326,16.3920917 245.505246,16.5168329 C244.967233,16.6415742 244.429965,16.3065511 244.305224,15.7685381 L241.197623,2.36535404 C241.072882,1.82734097 241.407905,1.29007244 241.945918,1.16533119 C242.483931,1.04058995 243.021199,1.37561296 243.14594,1.91362603 Z M215.955283,0.00101978533 C216.507015,-0.0236869967 216.974311,0.403551225 216.999018,0.955283062 L217.621018,14.8452831 C217.645724,15.3970149 217.218486,15.8643107 216.666754,15.8890175 C216.115022,15.9137243 215.647727,15.4864861 215.62302,14.9347542 L215.00102,1.04475423 C214.976313,0.493022397 215.403551,0.0257265674 215.955283,0.00101978533 Z M229.994506,0.894621698 L231.445506,14.5766217 C231.50375,15.1258266 231.105747,15.6182614 230.556542,15.6765056 C230.007337,15.7347497 229.514903,15.3367473 229.456659,14.7875424 L228.005659,1.1055424 C227.947414,0.55633746 228.345417,0.0639026831 228.894622,0.00565854 C229.443827,-0.0525856031 229.936261,0.34541676 229.994506,0.894621698 Z" id="Jumper-details" fill="#5BA092"/>
                            </g>
                            <path d="M266.8781,0.5897 L316.6921,22.1137 C319.4801,23.3187 320.7751,26.5467 319.5941,29.3447 L276.4891,131.4167 C275.2151,134.4337 272.0241,136.1667 268.8001,135.5937 L214.8001,125.9927 C210.3171,125.1957 207.7451,120.4327 209.5371,116.2467 L257.4451,4.3487 C259.0071,0.7007 263.2351,-0.9843 266.8781,0.5897" id="Phone" fill="#010101"/>
                            <path d="M225.79,45.9365 C239.555,45.9365 226.045,65.4675 200.483,75.6925 C200.483,75.6925 216.056,77.5865 205.747,95.4075 C205.747,95.4075 215.063,103.1805 204.373,115.0325 C204.373,115.0325 215.032,126.7825 192.996,142.3745 C187.856,146.0115 178.581,143.8115 180.542,136.1075 C180.565,136.0165 180.54,135.9185 180.54,135.8235 L169.624,151.8775 L123.362,115.5985 C123.362,115.5985 136.459,74.0285 154.964,63.3815 C154.964,63.3815 212.025,45.9365 225.79,45.9365 Z M304.9723,36.5947 C304.9723,26.4417 312.6643,17.5187 316.3563,25.5187 C318.5593,30.2917 328.9723,55.6717 333.2793,64.5947 C337.5873,73.5187 358.3743,123.8397 358.3743,123.8397 L358.3743,123.8397 L297.5993,139.5237 C297.5993,139.5237 278.8683,132.8887 265.5903,107.7057 C265.5903,107.7057 243.0433,88.5597 237.8893,78.0467 C232.2023,66.4457 240.8753,66.3167 240.8753,66.3167 C234.0863,50.2867 249.7023,54.5477 249.7023,54.5477 C243.5393,45.2167 248.7123,41.2177 252.5683,41.9957 C261.5403,43.8057 281.4523,59.2017 281.4523,59.2017 C274.7183,51.4557 262.6643,44.0377 259.0873,35.2947 C251.9963,17.9617 272.1663,28.2367 281.2803,36.1007 C289.4323,43.1337 309.8953,60.9017 309.8953,60.9017 C309.8953,60.9017 304.9723,46.7487 304.9723,36.5947 Z" id="Skin" fill="#583318"/>
                            <path d="M204.320525,76.3065969 C208.428582,77.9494807 210.066593,81.3959225 209.734616,85.915278 C209.582483,87.9863357 209.026936,90.1760866 208.197264,92.3780105 C207.855417,93.2852628 207.48934,94.133589 207.122711,94.9009151 C207.088582,94.9723433 207.055073,95.041749 207.022238,95.1090801 C209.924458,97.2305424 211.250574,99.9831787 211.164366,103.161597 C211.088898,105.94406 209.952142,108.854539 208.115278,111.751555 C207.459063,112.786508 206.757161,113.747352 206.054623,114.611536 C205.901099,114.800383 205.754166,114.976373 205.615181,115.1388 C208.44866,118.3927 208.531143,123.416808 206.309042,128.960838 C204.075311,134.533886 199.765422,139.845915 195.505216,142.202859 C191.216064,144.57529 187.0137,145.490061 183.95775,144.630304 C180.482243,143.652509 178.844714,140.549995 179.553891,135.954335 C179.970834,133.251627 181.062367,130.971558 182.618332,129.098609 C183.840633,127.627299 185.071543,126.692074 185.930542,126.230091 C186.416944,125.968497 187.023314,126.15074 187.284909,126.637142 C187.546503,127.123544 187.36426,127.729914 186.877858,127.991509 C186.733295,128.069257 186.447072,128.25042 186.066464,128.5396 C185.417432,129.032724 184.765574,129.643749 184.156722,130.376637 C182.822913,131.982172 181.88956,133.931825 181.530502,136.259309 C180.96553,139.920482 182.075279,142.023047 184.4994,142.705046 C186.966731,143.399202 190.666117,142.593919 194.537102,140.452786 C198.365614,138.334676 202.380756,133.385929 204.452608,128.216762 C206.686291,122.643833 206.304455,117.941845 203.066663,115.478617 C200.66451,113.65082 196.887721,113.078562 192.107061,113.583661 C189.276792,113.882693 186.237769,114.543044 183.145783,115.456548 C181.622032,115.906729 180.184955,116.389186 178.879438,116.871294 C178.423482,117.039672 178.01699,117.195787 177.665535,117.335556 C177.456753,117.418585 177.314061,117.477133 177.243019,117.507114 C176.734191,117.721853 176.147625,117.483447 175.932886,116.974619 C175.718147,116.465791 175.956553,115.879225 176.465381,115.664486 C176.54897,115.629209 176.704494,115.565397 176.926464,115.477122 C177.292929,115.331385 177.714799,115.169364 178.186599,114.995135 C179.531817,114.498365 181.010485,114.001945 182.579112,113.538506 C185.778914,112.593149 188.932206,111.907968 191.896921,111.594731 C197.054858,111.049771 201.251081,111.664956 204.141687,113.785337 C204.254908,113.651321 204.376231,113.505543 204.502736,113.34993 C205.158418,112.543384 205.814735,111.644942 206.426191,110.680583 C208.087289,108.060776 209.101158,105.464928 209.165101,103.107371 C209.243251,100.226038 207.897203,97.8419082 204.726175,95.9959717 C201.343154,94.0269791 196.448947,93.6826763 190.440508,94.7145917 C186.761726,95.3464019 182.823678,96.4659268 178.798284,97.9341414 C176.516051,98.7665586 174.34885,99.6587703 172.368418,100.550626 C171.676125,100.86239 171.057085,101.151607 170.520211,101.410755 C170.200187,101.565231 169.980041,101.67464 169.868668,101.731463 C169.376713,101.982459 168.774433,101.787123 168.523437,101.295168 C168.272441,100.803213 168.467777,100.200933 168.959732,99.9499369 C169.083929,99.8865714 169.317221,99.7706284 169.650799,99.6096103 C170.203264,99.342936 170.838321,99.0462359 171.547182,98.7270116 C173.570047,97.8160463 175.781937,96.9054365 178.11297,96.0552203 C182.242739,94.5489363 186.29202,93.3977895 190.101976,92.7434509 C196.303909,91.678304 201.48574,91.9901124 205.319102,94.0370493 C205.661313,93.3204027 206.005058,92.5238276 206.325712,91.6728212 C207.093208,89.6359075 207.60374,87.6235895 207.73999,85.7687592 C208.013624,82.0436593 206.777726,79.443279 203.577793,78.1635701 C200.464364,76.9181343 195.283317,76.9290649 188.67342,77.9747221 C185.671653,78.4495888 182.478665,79.1213069 179.195762,79.9392384 C176.790553,80.5384934 174.47764,81.1807347 172.341782,81.8228247 C171.594787,82.0473895 170.923594,82.2557902 170.338761,82.4426344 C169.98929,82.5542844 169.747211,82.6336151 169.623068,82.6752348 C169.099428,82.8507887 168.532619,82.5686089 168.357065,82.0449685 C168.181511,81.5213281 168.463691,80.9545191 168.987332,80.7789652 C169.120286,80.7343912 169.371373,80.6521087 169.730103,80.5375003 C170.325607,80.3472471 171.007727,80.1354535 171.76599,79.9075014 C173.930872,79.2566861 176.274118,78.606022 178.712246,77.9985653 C182.048023,77.1674601 185.296569,76.4840542 188.360915,75.9992879 C195.30397,74.9009265 200.777661,74.8893785 204.320525,76.3065969 Z M241.316534,65.4196604 C241.418562,65.4697839 241.610088,65.5664803 241.885158,65.7093473 C242.339701,65.9454305 242.865853,66.2268678 243.457661,66.5532602 C245.144303,67.4834724 247.021926,68.5886282 249.042929,69.8655944 C254.814723,73.5124899 260.58604,77.8081413 265.976009,82.7292055 C270.173657,86.5616765 273.969953,90.6272875 277.268598,94.9209757 C277.605063,95.3589364 277.522785,95.9867327 277.084824,96.323198 C276.646864,96.6596633 276.019067,96.5773849 275.682602,96.1394243 C272.459013,91.9434329 268.742196,87.9629387 264.627501,84.2062054 C259.331027,79.3705016 253.652584,75.1439774 247.974618,71.556367 C245.988205,70.3012561 244.144656,69.2161562 242.491784,68.3045687 C241.914762,67.9863312 241.40328,67.7127406 240.963311,67.4842273 C240.701673,67.3483363 240.523467,67.2583647 240.434666,67.2147396 C239.938969,66.9712185 239.734539,66.3719635 239.97806,65.8762661 C240.221581,65.3805687 240.820836,65.1761394 241.316534,65.4196604 Z M250.062017,53.614446 C250.1594,53.6519294 250.342437,53.7244123 250.605433,53.8316714 C251.040191,54.0089805 251.54349,54.220609 252.109636,54.4663369 C253.723407,55.1667709 255.520029,56.0008852 257.453998,56.9669782 C262.97882,59.726843 268.503835,62.9934742 273.665584,66.755362 C278.158448,70.0297658 282.16827,73.5360854 285.570223,77.2724586 C285.942044,77.6808305 285.912413,78.3133018 285.504041,78.6851228 C285.095669,79.0569437 284.463198,79.0273133 284.091377,78.6189414 C280.786608,74.9893046 276.877159,71.5707543 272.487626,68.3716584 C267.423335,64.6807982 261.991879,61.4694831 256.56023,58.7561623 C254.659434,57.8066403 252.895203,56.9875644 251.313337,56.3009777 C250.76101,56.0612483 250.271378,55.8553663 249.850162,55.6835797 C249.599574,55.5813814 249.428808,55.5137579 249.343583,55.480954 C248.828161,55.2825639 248.571156,54.7039049 248.769546,54.1884829 C248.967936,53.673061 249.546595,53.4160559 250.062017,53.614446 Z M280.579399,57.1188675 C282.315946,58.0902766 284.046699,59.2156123 285.75762,60.4646189 C287.872392,62.0084444 289.850823,63.6606962 291.639774,65.3133454 C292.266516,65.8923359 292.825306,66.4305306 293.30937,66.9144132 C293.602068,67.2070022 293.806305,67.418092 293.915265,67.534155 C294.293273,67.9368063 294.273296,68.569656 293.870645,68.9476645 C293.467994,69.325673 292.835144,69.3056962 292.457135,68.903045 C292.362308,68.8020361 292.172749,68.606116 291.895421,68.3288912 C291.429439,67.863084 290.889508,67.3430531 290.282633,66.782416 C288.546961,65.1789862 286.626514,63.5751591 284.578376,62.0799776 C282.929429,60.8762131 281.265423,59.7942764 279.603001,58.8643325 C279.121004,58.5947077 278.948843,57.985398 279.218468,57.5034012 C279.488092,57.0214044 280.097402,56.8492428 280.579399,57.1188675 Z" id="Skin-shadows" fill="#371d0a"/>
                        </g>
                    </g>
                </g>
            </g>
        </g>
        <g id="Short-Table" transform="translate(1130.000000, 1562.000000) scale(-1, 1) translate(-1130.000000, -1562.000000) translate(922.000000, 1470.000000)">
            <path d="M53.8813521,67 L88,67 L17.8058504,178.171516 C15.5155136,181.798327 11.5128174,184 7.20809874,184 C1.86787461,184 -1.61347333,178.415748 0.757762368,173.652763 L53.8813521,67 Z" id="Fill-12" fill="#E3D4C5"/>
            <path d="M312.118818,67 L278,67 L348.1936,178.171516 C350.483948,181.798327 354.486664,184 358.791404,184 C364.132554,184 367.613919,178.415748 365.241773,173.652763 L312.118818,67 Z" id="Fill-14" fill="#E3D4C5"/>
            <path d="M416,56.0003875 C416,86.9276171 323.09893,112 208.5,112 C93.9010704,112 1,86.9276171 1,56.0003875 C1,25.0723829 93.9010704,0 208.5,0 C323.09893,0 416,25.0723829 416,56.0003875" id="Fill-18" fill="#CDB1AA"/>
            <polygon id="Fill-28" fill="#E3D4C5" points="143.407892 36.9904961 211.010157 34 214 36.1437737 214 41.3814434 141.831109 88 71.2382247 85.5751833 71 79.3773388"/>
            <path d="M141.707326,84 L211,39.094125 L211,24 L141.707326,68.0702358 L71,65.7871212 C71,65.7871212 71,82.3010084 71,82.3010084 L141.707326,84 Z" id="Fill-30" fill="#F4F0F0"/>
            <polygon id="Fill-32" fill="#E3D4C5" points="143.312397 19 214 21.3300403 211.006652 26.6052173 211.006652 23.2241379 141.73348 68 71.2479036 66.7646464 70 64.6206897"/>
            <path d="M277,47 L316,47 L314.505098,71.7085133 C314.053793,79.1750487 307.845852,85 300.339928,85 L292.660838,85 C285.154915,85 278.946973,79.1750487 278.494902,71.7085133 L277,47 Z" id="Fill-20" fill="#F3705A"/>
            <path d="M312,76 L312.588398,71.1997477 C319.401177,70.6671505 327.521858,67.9682503 327.521858,58.1407998 C327.521858,54.936811 326.262133,54.1841449 325.846701,53.9373315 C323.185878,52.35253 317.205544,54.184909 314.061367,55.7154574 L312.043439,51.8489696 C313.101765,51.3308908 322.546934,46.8851939 328.190025,50.245829 C329.928366,51.2796942 332,53.4887884 332,58.1407998 C332,68.2372234 324.10678,75.0532454 312,76" id="Fill-22" fill="#F3705A"/>
            <path d="M316,46.9996286 C316,50.3136879 307.269683,53 296.500764,53 C285.731081,53 277,50.3136879 277,46.9996286 C277,43.6863121 285.731081,41 296.500764,41 C307.269683,41 316,43.6863121 316,46.9996286" id="Fill-72" fill="#E74B33"/>
            <path d="M328.163395,21.7021841 C328.625439,21.7021841 329,22.0764133 329,22.5380485 C329,26.2602917 327.619522,29.3177655 324.974218,32.0518823 C323.013597,34.0783282 321.083709,35.4347121 316.47429,38.2931968 C311.985586,41.0768214 310.12441,42.3849191 308.29422,44.2765823 C305.935695,46.7143257 304.738441,49.3660544 304.738441,52.6291695 C304.738441,52.8738566 304.187931,52.8738566 303.742802,52.9467017 C303.297672,53.0195468 303.06523,53.0908047 303.06523,52.6291695 C303.06523,48.9066577 304.44577,45.8489795 307.091188,43.1147065 C309.051892,41.0881463 310.98186,39.7316993 315.59142,36.8731269 C320.079986,34.0895884 321.941085,32.7815512 323.771194,30.889998 C326.129602,28.4524102 327.326789,25.8008877 327.326789,22.5380485 C327.326789,22.0764133 327.70135,21.7021841 328.163395,21.7021841 Z M300.578504,10.1449913 C306.183875,13.9575178 308.921468,17.673728 308.921468,23.0143888 C308.921468,26.684715 307.538644,29.6989124 304.89066,32.392467 C302.92945,34.3874291 300.99893,35.7227392 296.389576,38.5357179 C295.421387,39.126581 294.99284,39.3896041 294.463765,39.7199037 C287.656963,43.9698075 284.663359,47.2050286 284.663359,52.3137422 C284.663359,52.3719911 284.277009,52.2549245 283.796547,52.1452291 C283.316085,52.0355336 283,52.0355336 283,51.9657871 C283,46.3054562 286.459945,42.7458722 293.577085,38.3022055 C294.112603,37.9678835 294.544356,37.7028925 295.515008,37.1105267 C300.005083,34.3703408 301.866981,33.0824954 303.696952,31.2210319 C306.053142,28.8242922 307.248257,26.2192516 307.248257,23.0143888 C307.248257,18.3407832 304.831388,15.0599462 299.636923,11.5269005 C299.254981,11.2671204 299.156136,10.7471762 299.416146,10.3655725 C299.676156,9.98396879 300.196562,9.88521125 300.578504,10.1449913 Z" id="Combined-Shape" fill="#F4F0F0"/>
        </g>
    </g>
</svg>
