<svg viewBox="27.633 409.984 2100.114 969.556" xmlns="http://www.w3.org/2000/svg" xmlns:xlink="http://www.w3.org/1999/xlink" overflow="visible">
    <defs>
        <path d="M179.983583,9.27769636 L181.956861,20.13906 L282.571887,0.487769091 L248.831879,171 C248.831879,171 34.2644111,182.52079 24,169.014057 C-25.3329722,80.2433941 19.9056004,-2.27021273 19.9056004,9.27769636 L179.983583,9.27769636 Z" id="masterscenefeedback-path-3"/>
        <path d="M340.9275,43.6191 C340.4445,42.9811 339.9625,42.4641 339.4845,42.0831 C324.4345,30.0941 258.3685,18.6151 258.3685,18.6151 C258.3685,18.6151 255.5625,6.8811 251.9905,3.3091 C248.4205,-0.2609 194.9805,0.1721 192.6435,1.3401 C190.3065,2.5091 187.1905,15.3611 187.1905,15.3611 C173.2465,16.0251 160.8435,19.4071 147.7565,23.0701 C127.3275,26.8031 97.9925,37.3101 75.3955,66.3031 C36.8185,115.7971 -4.6685,201.6831 0.4265,243.8991 C5.5215,286.1151 57.7325,304.2921 108.8765,241.7161 C120.2725,227.7721 127.765962,218.629249 135.641962,207.822249 C133.650425,211.536328 131.8171,220.740781 135.641962,221.314679 C185.492568,228.794479 256.57517,225.837481 297.165356,221.314679 C300.548356,284.846679 319.8295,302.8301 336.6955,314.9341 C350.1475,324.5901 368.0355,324.8731 382.1145,316.1591 C395.8835,307.6361 412.0075,290.7931 412.2885,258.5841 C412.7785,202.2201 398.0745,156.6381 381.9005,97.8241 C374.2635,70.0531 357.0125,53.4321 340.9275,43.6191 Z" id="masterscenefeedback-path-5"/>
        <path d="M213.041571,1.01805387 L270.8354,161.130543 C270.8354,161.130543 232.2534,152.715309 138.5554,191.992846 C44.8574,231.2714 0.7634,144.29804 0.7634,144.29804 C0.7634,144.29804 28.4044,126.908662 60.0554,0.000101805387 L213.041571,1.01805387 Z" id="masterscenefeedback-path-7"/>
        <path d="M0.0517,15.5105 C0.0517,15.5105 44.4917,0.2615 118.5737,0.2394687 C169.6617,0.2245 208.4967,5.5925 237.8677,34.4405 L207.2647,101.0805 L227.0637,196.5115 C227.0637,196.5115 142.3247,229.7735 40.5587,198.0955 L33.8267,80.0945 L0.0517,15.5105 Z" id="masterscenefeedback-path-9"/>
        <polygon id="masterscenefeedback-path-1" points="337 197 231 230.451494 231 86 337 62"/>
    </defs>
    <g id="Master/Scene/Feedback" stroke="none" stroke-width="1" fill="none" fill-rule="evenodd">
        <g id="Study" transform="translate(1576.000000, 891.500000) scale(-1, 1) translate(-1576.000000, -891.500000) translate(1046.000000, 409.000000)">
            <polygon id="Fill-1" fill="#FFF5EE" points="365.0823 769.7214 0.0003 964.8534 850.1793 964.8534 1059.4463 769.7214"/>
            <path d="M131.0094,926.6397 C129.7614,932.7767 133.7254,938.7627 139.8614,940.0107 C140.6234,940.1657 141.3834,940.2407 142.1324,940.2407 C147.4114,940.2407 152.1394,936.5337 153.2324,931.1597 L238.7014,510.8327 C238.8064,510.3217 238.8614,509.8127 238.8944,509.3067 L216.3334,507.0327 L131.0094,926.6397 Z" id="Fill-2" fill="#5BA092"/>
            <path d="M314.7868,483.3321 L396.7448,930.5861 C397.7478,936.0551 402.5158,939.8831 407.8858,939.8831 C408.5628,939.8831 409.2518,939.8211 409.9418,939.6951 C416.1008,938.5661 420.1798,932.6581 419.0518,926.4981 L337.4918,481.4211 L314.8158,479.1361 C314.5548,480.4831 314.5248,481.8991 314.7868,483.3321" id="Fill-4" fill="#5BA092"/>
            <path d="M504.4294,797.0664 C503.3964,803.2434 507.5664,809.0874 513.7414,810.1214 C514.3754,810.2264 515.0044,810.2784 515.6264,810.2784 C521.0664,810.2784 525.8684,806.3514 526.7964,800.8084 L578.3134,492.8824 C578.4864,491.8484 578.5014,490.8264 578.3984,489.8314 L555.0974,494.2144 L504.4294,797.0664 Z" id="Fill-6" fill="#5BA092"/>
            <path d="M751.3844,806.6914 L660.0604,442.5654 C659.9364,442.0714 659.7714,441.5994 659.5884,441.1394 L637.735136,445.2514 C637.7294,446.1854 637.8254,447.1334 638.0644,448.0834 L729.3884,812.2094 C730.6794,817.3564 735.3004,820.7914 740.3774,820.7914 C741.2904,820.7914 742.2194,820.6804 743.1454,820.4484 C749.2184,818.9244 752.9074,812.7654 751.3844,806.6914" id="Fill-8" fill="#5BA092"/>
            <polygon id="Fill-10" fill="#5BA092" points="130.0221 533.8565 130.0221 504.4075 557.6561 469.7895 733.0861 440.3405 733.0861 469.7895 392.5571 533.8565"/>
            <polygon id="Fill-12" fill="#2F6858" points="130.0221 504.4073 557.6561 440.3413 733.0861 440.3413 392.5571 504.4073"/>
            <path d="M435.1012,472.917 L415.1322,472.917 L428.5852,432.185 L370.9122,432.185 L355.0752,477.866 L353.9372,480.657 C353.6252,481.421 353.4912,482.245 353.5432,483.068 C353.7272,485.944 356.1142,488.183 358.9952,488.183 L435.1012,488.183 C439.3172,488.183 442.7342,484.766 442.7342,480.55 C442.7342,476.334 439.3172,472.917 435.1012,472.917" id="Fill-14" fill="#B9B3B8"/>
            <path d="M233.8043,255.4092 L564.6853,239.4332 C572.7303,239.0462 579.4743,245.4472 579.5053,253.5032 L580.096397,408.8392 C580.1233,416.2012 574.4973,422.3522 567.1623,422.9802 L233.8043,451.5132 L233.8043,255.4092 Z" id="Fill-16" fill="#010101"/>
            <path d="M220.5582,255.4092 L233.8042,255.4092 L233.8042,451.5132 L220.5582,451.5132 C211.4962,451.5132 204.1522,444.1672 204.1522,435.1062 L204.1522,271.8152 C204.1522,262.7542 211.4962,255.4092 220.5582,255.4092" id="Fill-20" fill="#B9B3B8"/>
            <g id="UI" transform="translate(317.731352, 44.500000)">
                <g id="UI-Simple">
                    <polygon id="Fill-1" fill="#E3D4C5" points="0 65.4471 0 366.8841 328.506 251.3791 328.506 10.6551"/>
                    <polygon id="Fill-2" fill="#CDB1AA" points="131.1559 170.4854 35.5109 187.6464 35.5109 110.4224 131.1559 94.8614"/>
                    <polygon id="Fill-3" fill="#CDB1AA" points="131.1561 0 35.5111 1.737 35.5111 92.785 131.1561 76.577"/>
                    <polygon id="Fill-4" fill="#CDB1AA" points="131.1559 260.1026 35.5109 280.6006 35.5109 207.7096 131.1559 187.8156"/>
                    <polygon id="Fill-5" fill="#CDB1AA" points="35.5113 303.9579 35.5113 389.2859 131.8873 353.5339 131.1563 284.1079"/>
                    <polygon id="Fill-6" fill="#94C0E9" points="344.2203 205.0069 176.2573 258.1579 176.2573 84.1309 344.2203 48.9829"/>
                    <polygon id="Fill-6-Copy" fill="#FFF" points="216 121.83607 184 132 184 98.7212621 216 92"/>
                    <polygon id="Fill-6-Copy-2" fill="#FFF" points="216 159.586965 184 170 184 135.905642 216 126"/>
                    <polygon id="Fill-6-Copy-3" fill="#FFF" points="216 197.586965 184 208 184 173.905642 216 164"/>
                    <polygon id="Fill-6-Copy-4" fill="#FFF" points="216 235.586965 184 246 184 211.905642 216 202"/>
                    <path d="M176.242426,92.3178397 C176.242426,92.3178397 174.071061,81.3592132 179.513426,79.9700098 L339.1753,45.7109 C341.4743,45.2169 345.299085,44.1732177 344.2203,55.1182537 C344.7103,57.4142537 176.242426,92.3178397 176.242426,92.3178397 Z" id="Fill-7" fill="#3973B0"/>
                </g>
                <path d="M188,85.0003848 C188,86.6571758 186.656579,88 185,88 C183.342652,88 182,86.6571758 182,85.0003848 C182,83.3435937 183.342652,82 185,82 C186.656579,82 188,83.3435937 188,85.0003848" id="Fill-24" fill="#F4F0F0"/>
                <path d="M197,83.0003848 C197,84.6571758 195.657176,86 194.000385,86 C192.342824,86 191,84.6571758 191,83.0003848 C191,81.3435937 192.342824,80 194.000385,80 C195.657176,80 197,81.3435937 197,83.0003848" id="Fill-26" fill="#F4F0F0"/>
                <path d="M205,81.0003848 C205,82.6571758 203.657348,84 202.000769,84 C200.343421,84 199,82.6571758 199,81.0003848 C199,79.3435937 200.343421,78 202.000769,78 C203.657348,78 205,79.3435937 205,81.0003848" id="Fill-28" fill="#F4F0F0"/>
                <mask id="masterscenefeedback-mask-2" fill="#fff">
                    <use xlink:href="#masterscenefeedback-path-1"/>
                </mask>
                <use id="Fill-6-Copy-5" fill="#FFF" xlink:href="#masterscenefeedback-path-1"/>
                <g mask="url(#masterscenefeedback-mask-2)">
                    <g transform="translate(202.000000, 37.000000) scale(1 1)" id="Patterns">
                        <g id="Patterns/Pattern 5" stroke="none" stroke-width="1" fill="none" fill-rule="evenodd">
                            <path d="M217.409367,0.00415373877 C218.193368,-0.0520138171 218.880095,0.468018146 218.943213,1.16567764 C220.522991,18.6271511 221.066625,26.9584181 220.993599,36.9438787 C220.897282,50.1139055 219.405315,61.6622496 216.100929,72.5077376 C213.808823,80.0316099 212.222446,84.4649331 206.137501,100.858669 C202.245413,111.344527 199.838687,118.121655 197.828675,124.565722 C199.019469,127.204959 200.127964,129.907698 201.159563,132.686486 C210.223253,157.100519 213.617697,184.263479 211.288803,211.382108 C212.802176,212.884428 214.406526,214.363482 216.102552,215.821111 C216.668308,216.307343 216.683992,217.109639 216.137584,217.613089 C215.591176,218.116539 214.689589,218.130496 214.123833,217.644264 C213.033818,216.707463 211.980241,215.761671 210.962676,214.806753 L210.868326,215.711114 L210.868326,215.711114 L210.741154,216.852936 C210.660876,217.554932 209.963512,218.065438 209.183549,217.993185 C208.403587,217.920932 207.83638,217.293279 207.916658,216.591283 C208.081535,215.149513 208.230005,213.707101 208.362077,212.26448 C197.341979,201.055634 191.072092,188.614769 188.893799,174.73468 C186.746409,161.051515 188.517998,146.320758 193.674237,128.570792 C194.050716,127.274794 194.432342,125.998371 194.82765,124.715038 C190.260518,114.772235 184.494491,105.725197 177.258043,96.8014536 C170.538129,88.5146834 163.925244,81.6759885 151.360841,69.6964531 C153.216927,74.5999764 155.47429,80.2445116 158.27426,87.0919361 C164.660803,102.710449 167.249539,109.457881 169.878602,118.039712 C173.204791,128.898734 174.936338,135.615077 176.070363,143.435028 C177.610934,154.058422 177.295805,163.696296 174.681304,172.541685 C168.09568,194.822195 147.349686,210.484544 108.745172,217.968741 C107.981189,218.116853 107.216761,217.724422 107.037775,217.09222 C106.858789,216.460019 107.333023,215.82745 108.097006,215.679338 C145.700531,208.389201 165.601045,193.365154 171.921129,171.983021 C174.44579,163.441578 174.751932,154.078586 173.249064,143.715191 C172.133427,136.022033 170.422269,129.384774 167.124179,118.617491 C164.519575,110.115499 161.945088,103.405205 155.582637,87.8456097 C151.765434,78.5105091 148.949617,71.3944261 146.779651,65.3367013 C137.245658,56.1328858 128.903423,45.6277506 121.991642,34.203113 C114.322084,42.8441016 105.453206,50.9574017 95.5388715,58.3781915 C96.2960258,63.0294989 97.3236986,67.4975096 98.6481384,71.844519 C100.92116,79.3057426 102.500878,83.7204591 108.567091,100.063729 C113.414135,113.122378 115.970671,120.463564 118.325763,128.570792 C123.482002,146.320758 125.253591,161.051515 123.106201,174.73468 C120.573145,190.875316 112.507235,205.069763 97.876167,217.644264 C97.3104109,218.130496 96.4088238,218.116539 95.8624157,217.613089 C95.3160077,217.109639 95.3316924,216.307343 95.8974485,215.821111 C110.068921,203.641605 117.839866,189.966238 120.285272,174.384114 C122.3731,161.080474 120.638975,146.661233 115.568105,129.205143 C113.233215,121.167461 110.690807,113.86684 105.862499,100.858669 C99.777554,84.4649331 98.1911774,80.0316099 95.8990706,72.5077376 C94.6888231,68.5355244 93.7216983,64.4690283 92.9772202,60.2631068 C90.0707963,62.3661286 87.0773696,64.411245 84.0018927,66.3937683 C68.8384773,76.1687627 59.0978394,82.6859049 50.9680376,88.7677722 C55.4513047,105.671398 56.8169374,123.848498 55.5483001,143.948754 C54.2486244,164.540783 51.005716,182.776536 43.4376364,217.035098 C43.2965237,217.673876 42.5550711,218.097239 41.7815556,217.980706 C41.0080402,217.864174 40.4953764,217.251875 40.6364891,216.613097 C48.1834452,182.450155 51.4133746,164.287387 52.704782,143.826362 C53.9272805,124.457126 52.6814268,106.918327 48.5355376,90.6122942 C45.8326231,92.6872185 43.2761646,94.7445393 40.7090179,96.899686 C27.0175789,108.393793 16.9103671,120.08615 9.53250193,133.615586 C-4.47167987,159.295692 -9.13068987,188.083352 -4.33691919,216.621012 C-4.22599001,217.281381 -4.76497972,217.893261 -5.54078641,217.987685 C-6.3165931,218.082108 -7.03543456,217.623318 -7.14636375,216.962949 C-12.0166172,187.969982 -7.28117199,158.710035 6.95829276,132.598479 C14.4883573,118.789942 24.7955708,106.866216 38.7161622,95.1797332 C41.6890184,92.6839891 44.6443023,90.3203894 47.8180298,87.9139944 C46.380612,82.7054675 44.6382039,77.6217889 42.5780972,72.6425763 C40.7314403,68.1792141 38.6835997,63.8391359 35.3607136,57.1764476 C34.9715184,56.3960758 34.6862399,55.8257981 33.9431771,54.3417694 C27.4559075,41.385536 24.7784637,35.5181097 22.3769241,28.1507943 C19.1911314,18.3775886 18.1891577,9.59154975 19.6716983,1.00979985 C19.7827472,0.366988488 20.5037883,-0.0797711836 21.2821886,0.0119341969 C22.060589,0.103639577 22.6015842,0.699083048 22.4905353,1.34189441 C21.0676146,9.57853196 22.0340518,18.052961 25.1264244,27.5395775 C27.4852316,34.7758007 30.1344657,40.5814074 36.5744852,53.4432738 L36.8329598,53.9595223 C37.3910981,55.0743669 37.6523909,55.5969556 37.9935361,56.2809827 C41.3369831,62.9848976 43.4024922,67.3624212 45.2725425,71.8823253 C47.1957069,76.5305527 48.8457154,81.266323 50.2341551,86.1052434 C58.1948341,80.2173094 67.7723218,73.8257286 82.2885014,64.4679703 C85.8074666,62.1995643 89.2171298,59.8483187 92.5118662,57.4203384 C91.5377292,50.9856879 91.0595534,44.2117125 91.0064015,36.9438787 C90.9333747,26.9584181 91.4770087,18.6271511 93.0567867,1.16567764 C93.1199054,0.468018146 93.8066318,-0.0520138171 94.5906329,0.00415373877 C95.3746339,0.0603212946 95.9590245,0.671418859 95.8959057,1.36907835 C94.3226539,18.7584175 93.7823293,27.0389669 93.8546464,36.927384 C93.9026288,43.4883572 94.3013309,49.6320296 95.1025496,55.4760815 C104.655279,48.1855986 113.190797,40.2395466 120.565597,31.7954088 C115.035095,22.2784008 110.48823,12.1546487 107.057861,1.63806611 C106.836992,0.960939554 107.267827,0.250868216 108.020159,0.0520773892 C108.772491,-0.146713437 109.561427,0.24105429 109.782296,0.918180849 C113.034677,10.8891005 117.305786,20.5000329 122.476595,29.5626829 C130.139898,20.4483003 136.461581,10.7806593 141.266684,0.752040787 C141.562642,0.134352152 142.390832,-0.162161009 143.116497,0.0897601052 C143.331075,0.164252908 143.512662,0.278358283 143.654353,0.418106461 C144.013008,0.0644028749 144.609683,-0.0939108835 145.175514,0.0570050979 C145.922349,0.256197594 146.332642,0.918672054 146.091928,1.53668322 C140.949515,14.7393523 140.375321,28.5539847 143.625818,44.2023774 C144.978434,50.7140778 146.6243,56.5513246 149.26011,63.9822068 L149.885105,64.5788364 C164.877821,78.7757922 172.133954,86.1477071 179.551557,95.2948443 C186.204148,103.498593 191.642679,111.816272 196.064271,120.81588 C197.898453,115.184216 200.135735,108.9468 203.432909,100.063729 C209.499122,83.7204591 211.07884,79.3057426 213.351862,71.844519 C216.585959,61.2297285 218.050529,49.893446 218.145354,36.927384 C218.217671,27.0389669 217.677346,18.7584175 216.104094,1.36907835 C216.040976,0.671418859 216.625366,0.0603212946 217.409367,0.00415373877 Z M279.717811,11.011332 C280.496212,10.924254 281.217253,11.3484707 281.328302,11.9588466 C282.810842,20.1075725 281.808869,28.4502791 278.623076,37.7303414 C276.221536,44.7259115 273.544092,50.297275 267.056823,62.5997535 C266.31376,64.0089 266.028482,64.5504023 265.639286,65.2913975 C262.3164,71.6178951 260.26856,75.7389785 258.421903,79.9771252 C249.610762,100.198792 246.611279,122.235028 248.295218,147.569068 C249.586625,166.997656 252.816555,184.243955 260.363511,216.683078 C260.504624,217.289624 259.99196,217.871028 259.218444,217.98168 C258.444929,218.092332 257.703476,217.690331 257.562364,217.083786 C249.994284,184.553867 246.751376,167.238266 245.4517,147.685284 C243.750163,122.086494 246.787424,99.7727119 255.727457,79.2552355 C257.597508,74.9633999 259.663017,70.8067606 263.006464,64.4411166 C263.396344,63.6988172 263.681927,63.1567365 264.425515,61.7465949 C270.865534,49.5337217 273.514768,44.0210585 275.873576,37.1499657 C278.965948,28.1420318 279.932385,20.0952115 278.509465,12.2741841 C278.398416,11.6638082 278.939411,11.0984101 279.717811,11.011332 Z M196.577547,128.703258 L196.561838,128.759322 L196.561838,128.759322 L196.431895,129.205143 C191.361025,146.661233 189.6269,161.080474 191.714728,174.384114 C193.691808,186.982063 199.149935,198.333657 208.657208,208.656042 C210.541632,182.713032 207.125296,156.819777 198.466504,133.496379 C197.863853,131.873036 197.234535,130.276275 196.577547,128.703258 Z M141.466653,6.46459073 L141.105558,7.13769965 C136.442042,15.768877 130.67019,24.100328 123.903819,32.0096623 C129.822363,41.9582135 136.837464,51.2099265 144.785143,59.5074347 C143.087801,54.2676668 141.871707,49.6380466 140.825349,44.6007172 C137.959379,30.8034951 138.003707,18.3505618 141.466653,6.46459073 Z" id="Pattern" fill="#010101"/>
                        </g>
                    </g>
                </g>
            </g>
        </g>
        <g id="Object/Chair" transform="translate(794.000000, 752.000000) scale(1 1)">
            <g id="Object/Chair/Therapeutic Ball" stroke="none" stroke-width="1" fill="none" fill-rule="evenodd">
                <path d="M236,624 C366.339201,624 472,532.687357 472,420.047504 C472,355.436596 440.45198,284.4077 382.989014,260.474632 C325.526049,236.541563 145.090905,223.106412 89.8717183,259.884516 C34.652532,296.66262 0,355.09551 0,420.047504 C0,532.687357 105.660799,624 236,624 Z" id="Oval" fill="#7ACEBD"/>
            </g>
        </g>
        <g transform="translate(608.000000, 410.000000) scale(1 1)" id="Master/Character/Sitting">
            <defs>
                <path d="M275.684414,0.876652922 C298.838059,1.54914435 329.906472,9.13626937 355.7471,15.2297529 L355.731944,15.2730262 C397.943463,24.6870841 452.971125,41.5664426 466.9347,60.6071529 C489.4187,91.2671529 484.8307,126.127153 444.6317,165.644153 C415.2977,194.481153 386.9717,210.585153 372.4107,216.074153 C363.858947,207.086013 354.27259,195.452866 345.166172,184.184251 L345.5431,187.063753 C345.8052,205.151453 195.8084,217.517053 146.0664,197.369053 L149.907924,169.277823 C138.376043,183.58138 125.055547,200.37944 113.5941,212.425753 C99.0331,206.935753 70.7081,190.832753 41.3741,161.994753 C1.1741,122.477753 -11.4139,87.6187529 11.0701,56.9587529 C23.1971,40.4207529 69.0261,26.2177529 108.6751,16.6397529 C108.048715,16.8278037 108.709162,16.7365391 110.005927,16.5033439 C127.558487,12.2104677 191.200137,-1.57717031 275.684414,0.876652922 Z M162.310363,78.5613735 L87.8171,104.583753 C87.8171,104.583753 122.608609,134.324697 151.917069,154.584908 L162.310363,78.5613735 Z M332.466363,87.1363735 L341.108096,153.169863 C367.388419,133.830342 393.927617,109.395078 395.144211,108.27232 L395.1877,108.232153 L332.466363,87.1363735 Z" id="mastercharactersitting-path-1"/>
            </defs>
            <g id="Master/Character/Sitting" stroke="none" stroke-width="1" fill="none" fill-rule="evenodd">
                <g id="Bottom/Sitting" transform="translate(15.000000, 331.000000) scale(1 1)">
                    <g id="Bottom/Sitting/Legs up" stroke="none" stroke-width="1" fill="none" fill-rule="evenodd">
                        <g id="Legs-up" transform="translate(261.000000, 0.000000)">
                            <path d="M277.5869,486.2118 C277.5869,486.2118 253.0069,557.4538 219.6899,574.0488 C219.6899,574.0488 200.0669,582.4978 198.0729,558.0308 L204.3409,477.3028 L222.0639,460.7618 L277.5869,486.2118 Z" id="Shoe" fill="#F3705A"/>
                            <path d="M378.6569,32.8377 C380.755216,63.606156 368.492286,130.588264 365.841509,144.582849 C406.270064,167.020711 382.9614,232.804 382.9614,232.804 L288.9194,489.491 C224.9404,496.429 194.8784,427.054 194.8784,427.054 L295.0864,246.679 C241.482032,262.181667 213.711514,270.070333 211.774847,270.345 C209.229783,270.705952 68.143011,270.87 48,270 C-43.8717273,270 27.0674,109.766 27.0674,109.766 C27.0674,109.766 61.7446448,109.921509 131.099134,110.232528 L133.2114,110.242 C133.2114,110.242 276.9299,21.7877 303.4759,7.7777 C331.6679,-7.1023 376.3079,-1.6203 378.6569,32.8377 Z" id="Pants" fill="#3973B0"/>
                            <path d="M314.426893,236.4501 C314.685086,236.938315 314.498616,237.5434 314.0104,237.801593 L295.5534,247.562593 C295.065185,247.820786 294.4601,247.634316 294.201907,247.1461 C293.943714,246.657885 294.130184,246.0528 294.6184,245.794607 L313.0754,236.033607 C313.563615,235.775414 314.1687,235.961884 314.426893,236.4501 Z M308.964494,114.713196 C309.406325,115.044564 309.495872,115.671364 309.164504,116.113194 L292.969602,137.705141 L328.976588,136.221041 C343.254007,135.848098 354.924693,138.036494 364.158423,142.570057 C364.654178,142.813462 364.858748,143.412669 364.615343,143.908423 C364.371938,144.404178 363.772731,144.608748 363.276977,144.365343 C354.353745,139.984228 343.000715,137.855396 329.043904,138.219851 L179.501904,144.386851 C179.287523,144.395692 179.075982,144.335344 178.898533,144.214724 L158.205533,130.148724 C157.748781,129.838248 157.6302,129.216286 157.940676,128.759533 C158.251152,128.302781 158.873114,128.1842 159.329867,128.494676 L179.749617,142.374936 L290.390602,137.811141 L307.564496,114.913206 C307.895864,114.471375 308.522664,114.381828 308.964494,114.713196 Z" id="Pants-details" fill="#94C0E9"/>
                        </g>
                    </g>
                </g>
                <g id="Head" transform="translate(247.000000, 64.000000) scale(1 1)">
                    <g id="Head/Bald" stroke="none" stroke-width="1" fill="none" fill-rule="evenodd">
                        <g id="Shaved" transform="translate(38.000000, 51.000000)" fill="#8d574d">
                            <path d="M69.7059,0.0007 C38.1519,0.0007 12.5729,22.7597 12.5729,50.8347 C12.5729,56.5827 13.6609,62.1007 15.6369,67.2527 C15.4429,67.2477 15.2519,67.2287 15.0559,67.2287 C6.7409,67.2287 -0.0001,72.7737 -0.0001,79.6147 C-0.0001,86.4557 6.7409,92.0007 15.0559,92.0007 C19.6519,92.0007 23.7619,90.3017 26.5209,87.6297 C27.5179,86.6657 29.0589,86.5617 30.1129,87.4637 C37.8329,94.0747 47.6299,98.7767 58.5539,100.7007 C59.9579,100.9477 60.9499,102.2117 60.8679,103.6347 L59.3079,131 L85.7469,131 L84.5229,109.4997 C84.2259,104.3107 87.2629,99.4527 92.1209,97.6077 C112.5329,89.8537 126.8389,71.8307 126.8389,50.8347 C126.8389,22.7597 101.2599,0.0007 69.7059,0.0007 Z" id="Skin"/>
                        </g>
                    </g>
                </g>
                <g id="Face" transform="translate(321.000000, 155.000000) scale(1 1)">
                    <g id="Face/Sad" stroke="none" stroke-width="1" fill="none" fill-rule="evenodd">
                        <path d="M69.4244007,33.5503676 C72.4554435,34.600186 75.7642425,32.99335 76.8141695,29.9619938 C77.864015,26.9300782 76.2572336,23.6213917 73.2257993,22.5722324 L58.0637938,17.3222305 C55.031444,16.2722347 51.7231136,17.8785973 50.6739907,20.9107211 C49.6240636,23.9420776 51.230481,27.2505207 54.2624007,28.3003676 L69.4244007,33.5503676 Z" id="Path-Copy" fill="#F4F0F0"/>
                        <g id="Sad" transform="translate(11.000000, 14.000000)">
                            <path d="M58.4244007,19.5503676 C61.4554435,20.600186 64.7642425,18.99335 65.8141695,15.9619938 C66.864015,12.9300782 65.2572336,9.62139168 62.2257993,8.57223242 L47.0637938,3.32223051 C44.031444,2.27223468 40.7231136,3.87859732 39.6739907,6.91072112 C38.6240636,9.9420776 40.230481,13.2505207 43.2624007,14.3003676 L58.4244007,19.5503676 Z M42.2807938,17.1352305 C37.6831376,15.5432243 35.2469914,10.5259409 36.8390546,5.92932559 C38.4299416,1.33142118 43.4473374,-1.10477962 48.0454007,0.487367577 L63.2071893,5.73729438 C67.8043781,7.32835082 70.2410424,12.3459336 68.6489907,16.9437211 C67.0568149,21.5406618 62.0393448,23.9772714 57.4426789,22.3851907 L42.2807938,17.1352305 Z" id="Stroke-1" fill="#010101"/>
                            <path d="M25.5700529,15.9093051 C28.7384355,15.4037629 30.89733,12.4261892 30.3919372,9.25794801 C29.8864213,6.0897306 26.9090438,3.93122412 23.7404383,4.43588035 L7.89554801,6.96286285 C4.72744096,7.46836111 2.5688364,10.4456281 3.07347207,13.6133098 C3.57900456,16.7824262 6.55619414,18.9407965 9.72505289,18.4353051 L25.5700529,15.9093051 Z" id="Path-Copy-2" fill="#F4F0F0"/>
                            <path d="M25.5700529,15.9093051 C28.7384355,15.4037629 30.89733,12.4261892 30.3919372,9.25794801 C29.8864213,6.0897306 26.9090438,3.93122412 23.7404383,4.43588035 L7.89554801,6.96286285 C4.72744096,7.46836111 2.5688364,10.4456281 3.07347207,13.6133098 C3.57900456,16.7824262 6.55619414,18.9407965 9.72505289,18.4353051 L25.5700529,15.9093051 Z M26.042548,18.8718628 L10.1974902,21.3978721 C5.39250655,22.1643555 0.877443414,18.8910745 0.110879374,14.0855856 C-0.654428876,9.28161917 2.6189118,4.76684643 7.42296173,4.00031965 L23.2682721,1.47327018 C28.0730554,0.708023785 32.5879307,3.98116866 33.3544721,8.7853098 C34.1208974,13.5899293 30.8470464,18.1052645 26.042548,18.8718628 Z" id="Stroke-3" fill="#010101"/>
                            <path d="M17.6953,18.5552 C17.9263,18.5262 18.1643,18.5052 18.4143,18.5052 C18.4343,18.5052 18.4523,18.5082 18.4723,18.5082 C19.0513,18.2632 19.7193,18.1232 20.4773,18.1232 C20.5153,18.1232 20.5493,18.1312 20.5853,18.1332 C21.2053,17.8382 21.9313,17.6652 22.7693,17.6652 C22.9133,17.6652 23.0493,17.6762 23.1873,17.6852 C23.4913,17.1772 23.6763,16.5932 23.6763,15.9602 C23.6763,14.0132 22.0643,12.4352 20.0753,12.4352 C18.0863,12.4352 16.4743,14.0132 16.4743,15.9602 C16.4743,17.0022 16.9583,17.9132 17.6953,18.5552" id="Fill-5" fill="#010101"/>
                            <path d="M52.0854,19.0053 C52.9964,19.1103 53.7504,19.4363 54.3624,19.9013 C54.6114,19.9473 54.8484,20.0113 55.0744,20.0903 C55.9234,19.4483 56.4814,18.4593 56.4814,17.3263 C56.4814,15.3803 54.8694,13.8023 52.8804,13.8023 C50.8914,13.8023 49.2794,15.3803 49.2794,17.3263 C49.2794,17.4793 49.3064,17.6243 49.3284,17.7703 C50.4834,17.8853 51.4014,18.3443 52.0854,19.0053" id="Fill-7" fill="#010101"/>
                            <path d="M9.74640282,32.0983319 C9.18780442,32.7100993 8.23903549,32.7532012 7.62726812,32.1946028 C7.01550074,31.6360044 6.97239877,30.6872355 7.53099718,30.0754681 C8.06237725,29.4935098 9.06399446,28.6987231 10.569188,27.9286151 C17.1710103,24.5508994 26.6277244,25.0410998 39.0961856,31.8200805 C39.8239973,32.2157845 40.0932236,33.126574 39.6975195,33.8543856 C39.3018155,34.5821973 38.391026,34.8514236 37.6632144,34.4557195 C26.0293107,28.1304797 17.6137234,27.6942474 11.935628,30.5993532 C11.2465706,30.9518983 10.6725107,31.3251614 10.2098851,31.6922565 C9.95145429,31.8973222 9.79791875,32.0419125 9.74640282,32.0983319 Z" id="Stroke-9" fill="#010101"/>
                        </g>
                    </g>
                </g>
                <g id="Body" transform="translate(64.000000, 26.000000) scale(1 1)">
                    <defs>
                        <path d="M519.122,0.3127 L606.086,25.5707 C606.086,25.5707 527.526,152.3117 490.255,181.6307 C461.165,204.5147 367.085,249.5887 367.085,249.5887 L368.565,346.1477 C226.357,384.4337 149.018,346.2157 149.018,346.2157 L85.84,499.3537 C42.577,495.9197 -1.13686838e-13,454.7167 -1.13686838e-13,454.7167 C-1.13686838e-13,454.7167 120.009,188.0417 163.171,168.3357 C181.587535,159.928025 196.959567,154.858974 211.866039,152.017407 C211.328565,152.158068 211.0562,152.2391 211.0562,152.2391 C211.0562,152.2391 253.3372,180.2861 264.0352,179.4641 C268.9762,179.0831 284.7242,150.5351 284.7242,150.5351 C284.701439,150.53199 284.678682,150.528884 284.65593,150.525781 C289.399082,150.855862 294.34783,151.219193 299.54,151.5997 C307.118,152.1537 313.785,152.7337 319.628,153.3107 C344.885,155.8067 370.085,148.1437 389.647,131.9737 C433.245,95.9377 501.107,28.9247 519.122,0.3127 Z" id="bodyraised-arm-path-1"/>
                    </defs>
                    <g id="Body/Raised Arm" stroke="none" stroke-width="1" fill="none" fill-rule="evenodd">
                        <g id="Body" transform="translate(0.000000, 0.000000)">
                            <path d="M192.7998,314.7497 L217.1778,340.2197 C217.1778,340.2197 198.7518,391.0497 194.9868,413.0097 C191.2228,434.9697 122.2408,577.2937 122.2408,577.2937 L122.2408,577.2937 L114.6968,619.7127 C114.2608,622.1637 113.2318,624.5037 111.5518,626.3417 C109.8668,628.1847 107.5188,629.5507 104.8658,627.6407 C99.5618,623.8207 100.6908,597.8827 100.6908,597.8827 C100.6908,597.8827 78.3428,621.0627 64.9748,633.5817 C51.6068,646.1007 42.9098,645.0757 39.0878,641.4327 C35.238839,637.763453 43.0733659,629.600913 43.6896911,628.97044 L43.7278,628.9317 C32.4818,636.7827 24.5178,632.4057 24.5178,632.4057 C21.3358,630.8737 25.5398,621.9837 25.5398,621.9837 C22.2048,625.0397 14.8988,625.0947 12.1398,621.9107 C10.023,619.469208 16.0630821,610.17849 16.4367836,609.609065 L16.4548,609.5817 C10.8668,614.0607 -3.1382,612.9997 0.6368,606.5257 C2.9202,602.60766 61.7586748,514.926413 64.1113004,511.420731 L64.1838,511.3127 C91.2958,458.8677 161.1298,315.6717 161.1298,315.6717 L161.1298,315.6717 L192.7998,314.7497 Z M340.5712,220.5351 C340.5712,220.5351 324.8232,249.0831 319.8822,249.4641 C309.1842,250.2861 266.9032,222.2391 266.9032,222.2391 C266.9032,222.2391 294.0112,214.1741 340.5712,220.5351 Z M627.6161,29.1073 L682.7841,9.2373 L682.820841,9.22098326 C684.01297,8.6933736 713.81822,-4.36348 714.0201,8.9753 C714.0201,8.9753 733.9681,0.9333 735.6741,7.9443 C737.5301,15.5743 730.1051,19.9053 730.1051,19.9053 C730.1051,19.9053 742.5721,15.3203 744.5521,21.7553 C745.2271,23.9493 746.5771,30.5323 736.6431,34.9353 C736.6431,34.9353 746.9301,32.9073 746.3971,38.4643 C745.6191,46.5803 739.6381,49.6443 727.8841,54.1803 C710.2291,60.9953 679.8231,70.4373 679.8231,70.4373 L654.2691,93.7233 L587.5961,74.2293 L587.608234,74.1694673 C588.004644,72.2250344 598.11548,23.3845 618.1751,0.4133 C618.1751,0.4133 636.3171,-5.6967 627.6161,29.1073 Z" id="Skin" fill="#8d574d"/>
                            <path d="M71.6641974,596.620958 C72.1854669,596.803432 72.4601154,597.373928 72.2776419,597.895197 C71.3870851,600.439239 67.5086911,605.303584 61.3405082,612.009238 C60.6858035,612.720991 60.0097757,613.448237 59.3142595,614.189366 C56.4822028,617.207152 53.4492359,620.327156 50.4164388,623.372409 C49.3550734,624.438134 48.3694473,625.418487 47.484749,626.29128 C47.1749507,626.596909 46.8998426,626.867316 46.6625745,627.099724 C46.5199548,627.239422 46.4218206,627.335235 46.3703012,627.385384 C45.974543,627.770603 45.3414356,627.762059 44.9562164,627.366301 C44.5709971,626.970543 44.5795406,626.337436 44.9752988,625.952216 C45.0246565,625.904174 45.1219717,625.809161 45.2630689,625.670954 C45.4986623,625.440186 45.7720734,625.171447 46.0801474,624.867519 C46.9607984,623.998719 47.942276,623.022492 48.9993299,621.961097 C52.0191593,618.928864 55.0388189,615.82255 57.8558803,612.820743 C58.5469483,612.084354 59.2184547,611.361972 59.8685348,610.655246 C65.8016053,604.205191 69.6311285,599.402141 70.3899581,597.234403 C70.5724316,596.713133 71.142928,596.438485 71.6641974,596.620958 Z M54.8294573,587.257071 C55.3370781,587.474648 55.5722053,588.062536 55.3546288,588.570157 C53.9627333,591.817543 49.8389487,597.212508 43.6337967,604.248954 C42.7757911,605.221905 41.8841803,606.218792 40.9622314,607.236727 C37.7423278,610.791859 34.2939198,614.450412 30.8456889,618.009531 C29.6389216,619.255106 28.5182675,620.399393 27.5123677,621.416961 C27.2305759,621.702021 26.9740276,621.960694 26.7445565,622.191351 L26.4072935,622.529732 C26.3344365,622.602675 26.280165,622.656879 26.2452528,622.691658 C25.8539822,623.081435 25.2208184,623.080223 24.8310418,622.688953 C24.4412653,622.297682 24.4424765,621.664518 24.8337472,621.274742 L25.1609636,620.947237 L25.1609636,620.947237 C25.4288455,620.67845 25.7397276,620.365284 26.0900226,620.010926 C27.0913652,618.997968 28.2073525,617.858446 29.4092759,616.617871 C32.8430186,613.073706 36.2765842,609.4309 39.479856,605.894131 C40.3960316,604.882571 41.2817699,603.89225 42.1337534,602.926127 C48.1886937,596.060017 52.2402252,590.759577 53.5163712,587.782243 C53.7339478,587.274622 54.3218365,587.039495 54.8294573,587.257071 Z M36.4254057,583.21685 C36.9175188,583.467535 37.1132349,584.069692 36.8625497,584.561806 C35.306033,587.617361 33.598739,590.539076 31.7648502,593.324988 C28.5633135,598.188531 25.1325172,602.417642 21.6993713,605.994064 C20.4954212,607.248259 19.3760695,608.332113 18.3695988,609.243306 C18.015576,609.563815 17.7004037,609.840257 17.427615,610.072339 C17.2613127,610.213825 17.1444761,610.310348 17.0806373,610.361613 C16.6500138,610.707419 16.0205933,610.638661 15.6747872,610.208037 C15.3289811,609.777414 15.3977392,609.147993 15.8283627,608.802187 C15.8776105,608.762639 15.979879,608.678152 16.1316327,608.549044 C16.3889371,608.330135 16.6886729,608.067233 17.0273053,607.760657 C17.9998491,606.880179 19.085685,605.828778 20.2565525,604.609046 C23.6085993,601.117108 26.9629959,596.982174 30.0943058,592.225314 C31.8882527,589.50008 33.5582223,586.642238 35.0804503,583.653994 C35.3311354,583.161881 35.9332925,582.966165 36.4254057,583.21685 Z M674.188724,66.8831138 L680.223724,69.5211138 C680.729775,69.7423171 680.96069,70.3318732 680.739486,70.8379241 C680.518283,71.343975 679.928727,71.5748896 679.422676,71.3536862 L673.387676,68.7156862 C672.881625,68.4944829 672.65071,67.9049268 672.871914,67.3988759 C673.093117,66.892825 673.682673,66.6619104 674.188724,66.8831138 Z M627.625909,28.107299 C628.455694,28.1154882 629.849549,28.2878327 631.621824,28.7759659 C634.553371,29.5833942 637.481946,31.0123085 640.212543,33.2149786 C644.270522,36.4883977 647.52151,41.1842259 649.675606,47.5026126 C649.853821,48.0253532 649.574528,48.5935903 649.051787,48.7718056 C648.529047,48.9500209 647.96081,48.670728 647.782594,48.1479874 C645.749474,42.1844449 642.717909,37.8055577 638.956839,34.7716443 C636.451178,32.7504215 633.769476,31.4419616 631.090745,30.7041659 C630.157361,30.4470863 629.293282,30.2797152 628.521939,30.1843417 C628.069753,30.1284308 627.756665,30.108727 627.606291,30.1072519 C627.054032,30.1018343 626.610731,29.6497488 626.616099,29.0974906 C626.621566,28.5452324 627.073651,28.1019305 627.625909,28.107299 Z M740.430072,33.5707297 C740.616396,34.0906351 740.345976,34.6631475 739.82607,34.849472 C739.766894,34.8706796 739.653024,34.9110634 739.486859,34.9693458 C739.211199,35.0660332 738.888049,35.1780614 738.519807,35.3041527 C737.469155,35.6639115 736.266968,36.0645729 734.932423,36.4959172 C731.120866,37.727868 727.010566,38.9596777 722.754589,40.1095951 C717.465719,41.5385889 712.32449,42.7388001 707.469036,43.6356762 C701.868039,44.6702653 696.80624,45.2711892 692.40845,45.3668634 C691.856296,45.3788756 691.398949,44.941004 691.386695,44.3888499 C691.374924,43.8366958 691.812796,43.3793487 692.36495,43.3673366 C696.643001,43.2742672 701.60239,42.6855013 707.105751,41.6689469 C711.903445,40.7827399 716.993112,39.5945659 722.232918,38.1788288 C726.455451,37.0379472 730.53508,35.8153294 734.317325,34.5928528 C735.640611,34.1651474 736.831894,33.76812 737.871908,33.4120041 C738.235399,33.2875392 738.553865,33.1771349 738.824899,33.0820702 C738.986749,33.0253013 739.096362,32.9864275 739.15133,32.966728 C739.671235,32.7804035 740.243748,33.0508243 740.430072,33.5707297 Z M731.032638,19.530628 C731.239453,20.0427275 730.991972,20.625523 730.479872,20.8323382 C730.390591,20.8683948 730.21805,20.9371104 729.965286,21.0363079 C729.545876,21.2009057 729.052323,21.3916285 728.487665,21.6062993 C726.87655,22.2188108 725.017501,22.9009683 722.934799,23.6353553 C716.987069,25.7326008 710.436655,27.8295025 703.477532,29.7866902 C697.166923,31.5614896 690.817892,33.1348144 684.504792,34.4529891 C683.964166,34.5658717 683.434393,34.2191175 683.321511,33.678492 C683.208628,33.1378664 683.555383,32.6080934 684.096008,32.4952109 C690.362471,31.186774 696.667601,29.6243282 702.936058,27.8613836 C709.851302,25.9165364 716.360944,23.8326865 722.26971,21.7491803 C724.336783,21.0203042 726.18065,20.3437174 727.776938,19.736843 C728.334872,19.5247287 728.821787,19.3365708 729.234637,19.1745474 C729.481229,19.0777722 729.647674,19.0114843 729.730928,18.9778618 C730.243028,18.7710466 730.825823,19.0185285 731.032638,19.530628 Z M714.114306,8.94335071 C714.317574,9.45686854 714.066067,10.0379383 713.552549,10.2412063 C713.472395,10.272934 713.317797,10.3340017 713.09278,10.4226885 C712.718015,10.570396 712.282332,10.7417071 711.790376,10.9346558 C710.38506,11.4858315 708.81042,12.0999549 707.103611,12.7612993 C702.226839,14.6509224 697.26757,16.5405825 692.522765,18.3045597 C691.759058,18.5884835 691.005944,18.8672539 690.264209,19.1405379 C678.031135,23.6476836 669.941368,26.2978499 667.405943,26.4182739 C666.85428,26.444476 666.385828,26.0185059 666.359626,25.4668431 C666.333424,24.9151802 666.759394,24.4467282 667.311057,24.4205261 C669.530129,24.3151277 677.688686,21.6424263 689.572768,17.2638628 C690.31264,16.9912651 691.063924,16.713172 691.825829,16.4299183 C696.561153,14.6694658 701.512166,12.7829515 706.381011,10.8964001 C708.085168,10.2360833 709.657269,9.62295009 711.060119,9.07274154 C711.551022,8.8802057 711.985671,8.70930105 712.359418,8.56199493 C712.583508,8.47367348 712.737609,8.41280221 712.816451,8.38159372 C713.329969,8.17832571 713.911038,8.42983288 714.114306,8.94335071 Z" id="Skin-Shadows" fill="#D7A17C"/>
                            <g id="Tshirt" transform="translate(55.847000, 70.000000)">
                                <mask id="bodyraised-arm-mask-2" fill="#fff">
                                    <use xlink:href="#bodyraised-arm-path-1"/>
                                </mask>
                                <use id="Mask-2" fill="#010101" xlink:href="#bodyraised-arm-path-1"/>
                                <g mask="url(#bodyraised-arm-mask-2)">
                                    <g transform="translate(5.153000, 288.000000) scale(1 1)" id="Patterns">
                                        <g id="Patterns/Pattern 4" stroke="none" stroke-width="1" fill="none" fill-rule="evenodd">
                                            <path d="M44.0182254,93.5340618 C52.0762519,97.8410164 62.8281863,99.5580091 73.7432963,98.6961198 C84.9214172,86.0149568 98.2590604,74.9374286 113.525562,66.114744 C111.795813,50.5778981 112.596907,34.8919 115.921886,19.4921175 C119.566814,2.60622659 125.826132,-9.94555973 137.125727,-19.5201488 C141.682325,-23.3806561 146.282471,-25.6343501 151.410836,-25.8053688 C157.514804,-26.0092903 163.523098,-22.8919386 166.608532,-18.3025013 C169.049667,-14.671429 169.792206,-10.7934007 169.783037,-4.96317236 C169.750763,14.3555838 163.536422,33.5124984 152.079347,50.7359233 C169.215323,47.037986 187.016949,47.1020175 202.183477,51.3901057 C208.479788,39.2548243 216.994427,30.813456 229.101431,26.7877312 C243.703137,21.932588 262.357131,24.6509903 277.489768,32.7320135 C290.300029,39.5732087 299.218371,49.1243735 301.443832,59.4854 C304.070392,71.712639 297.233538,84.7957391 284.324539,94.4728077 C275.394203,101.166782 263.970886,106.32409 249.832614,110.488019 C253.172841,134.733065 249.125812,159.013945 237.759392,180.926682 C225.520642,204.524775 204.539835,221.735254 178.141554,225.962184 C153.639383,229.885425 126.269596,221.90624 105.733064,206.59389 C94.6043998,209.573522 82.9748652,210.950551 71.5300011,210.432991 C59.6847044,209.897381 48.2014373,207.31355 37.5830246,203.103165 C37.7137448,209.512773 38.6258562,214.810599 40.5947001,219.841804 C45.5275666,232.451976 58.634875,242.133846 75.7961417,245.229536 C76.8327059,245.416519 77.5208593,246.405268 77.3331755,247.437966 C77.1454917,248.470665 76.1530427,249.156252 75.1164785,248.969269 C56.7157903,245.650002 42.48382,235.137387 37.0404096,221.222083 C34.7134425,215.275726 33.7534971,209.080513 33.7509399,201.496814 C11.9881624,191.872732 -5.7205525,175.351613 -14.7688091,155.79636 C-23.4779655,136.975941 -23.3599294,118.176299 -12.4984613,103.540211 C-8.30374525,97.8880955 -2.707945,94.2154777 3.86147462,93.9654432 C11.1943751,93.6857725 17.0062161,97.2459731 23.47172,104.131127 C32.7503458,114.0124 41.5660698,124.123375 49.8991656,134.440352 C55.4065684,123.168154 62.2536876,112.490026 70.3416952,102.68498 C60.0251578,102.977926 50.0303579,101.060445 42.2147943,96.8830845 C33.1835805,92.0560845 27.4210711,84.8272679 24.3869137,75.4928301 C23.6714736,73.2918133 23.1126956,71.0115863 22.6958238,68.6269781 C15.4956378,70.2072486 8.0461095,70.6348461 0.515901309,69.7658747 C-0.530520844,69.6451196 -1.28055586,68.7020989 -1.15934878,67.6595789 C-1.03814171,66.617059 -0.091591195,65.8698209 0.954830958,65.990576 C8.14723448,66.8205654 15.2715334,66.3940787 22.161834,64.8488151 C21.6492564,60.1798774 21.6054316,55.1012565 21.9341307,49.4488013 C22.7130774,36.0528548 25.2621454,18.0540768 29.8335486,2.82171112 C37.0589335,-21.253983 48.0607288,-34.1763773 63.760381,-30.3293767 C72.7533757,-28.1242575 81.2667579,-18.4335411 83.2884367,-10.0552414 C87.1020447,5.75193498 79.291465,27.1526184 63.8974311,43.995379 C53.3378951,55.5486691 40.4043589,63.8209414 26.3890229,67.7097415 C28.3205825,79.565654 33.7073534,88.0231105 44.0182254,93.5340618 Z M75.6166802,102.344701 C66.2975055,113.125429 58.5574801,125.060813 52.5422838,137.740007 C56.7671237,143.058431 60.8642321,148.430475 64.8309404,153.852933 C66.2338928,155.770808 67.5143338,157.544148 69.7307156,160.630093 C70.5060141,161.709735 70.9066388,162.267578 71.2813341,162.788947 C85.85123,183.062175 94.1586138,192.850041 106.540183,202.426631 C119.611573,198.69858 131.905946,192.68579 142.195445,184.909797 C159.095899,172.137764 170.930261,155.019358 178.219156,134.610606 C179.934864,129.807456 181.302503,125.321446 182.711334,119.809936 C179.748704,119.753593 176.80406,119.629489 173.88046,119.436434 C155.326716,118.211448 140.287553,114.015541 130.487045,106.108456 C123.992784,100.868023 119.971152,94.3946889 117.316883,85.8457306 C107.074634,92.9865074 96.7217409,97.9691809 85.5639507,100.657476 C82.288734,101.446534 78.9523826,102.009491 75.6166802,102.344701 Z M132.887941,103.155032 C141.946863,110.463802 156.293061,114.466373 174.132732,115.644214 C177.279885,115.85203 180.452851,115.978291 183.6476,116.024513 C184.642745,111.876547 185.697839,107.103154 186.939871,101.266314 C187.066259,100.672218 187.066259,100.672218 187.192625,100.077941 C192.034489,77.3077942 194.845489,66.9961475 200.485065,54.8635529 C184.895127,50.6096228 166.3447,50.9616597 148.807022,55.4089399 C141.57849,65.22855 132.599673,74.3369562 122.05631,82.3838417 C121.568645,82.7560559 121.080972,83.1234088 120.593216,83.4858854 C123.041924,91.9878193 126.763539,98.2130503 132.887941,103.155032 Z M79.5166399,98.0000226 C81.2439957,97.71926 82.9642386,97.3737099 84.6672801,96.9634165 C95.7183966,94.3008231 105.992953,89.2573803 116.234936,81.9523263 C115.798927,80.1957113 115.407103,78.3584909 115.051708,76.434751 C114.669827,74.3673538 114.333295,72.2955549 114.042095,70.2203977 C101.015371,77.9311479 89.4554046,87.3362091 79.5166399,98.0000226 Z M181.813158,135.884738 C174.286716,156.958616 162.026111,174.693584 144.500902,187.937757 C134.569512,195.443119 122.856649,201.357261 110.371526,205.250336 C129.830472,218.861848 155.034987,225.812652 177.536217,222.209798 C202.642672,218.189717 222.652471,201.775753 234.370355,179.181965 C245.288412,158.133606 249.227766,134.838906 246.125812,111.540274 C244.330207,112.031643 242.493286,112.508705 240.614636,112.972471 C222.461805,117.453614 204.258379,119.82647 186.637569,119.845047 C185.119929,125.882014 183.667788,130.692674 181.813158,135.884738 Z M68.1796435,165.001465 C67.8045122,164.47949 67.4034403,163.921024 66.6283545,162.841678 C64.4180446,159.764188 63.1426757,157.997872 61.7480367,156.091361 C58.1911465,151.229122 54.5284064,146.407452 50.7617647,141.628709 C43.3409539,158.435912 38.907291,176.448615 37.7885672,194.742383 C37.6982764,196.218981 37.6343517,197.638424 37.5989416,199.007305 C48.2139241,203.396412 59.7680666,206.096698 71.7029708,206.636359 C81.7922612,207.092618 92.0402916,206.020427 101.934222,203.637615 C90.3976329,194.317503 82.0617035,184.317607 68.1796435,165.001465 Z M33.9808612,194.511273 C35.1677769,175.102406 39.9949994,156.004866 48.0905909,138.268706 C39.4756455,127.524248 30.3332954,117.001481 20.6859682,106.72756 C14.9069565,100.573455 9.94941352,97.5365783 4.00725378,97.7632073 C-1.24604488,97.9631498 -5.86501352,100.994657 -9.43105194,105.799669 C-19.369178,119.191531 -19.4781154,136.542012 -11.3044483,154.205242 C-2.85333004,172.46995 13.5764372,188.024304 33.8361044,197.362932 C33.8729331,196.433819 33.9213909,195.483838 33.9808612,194.511273 Z M282.030975,91.4358966 C293.863766,82.5655939 299.984539,70.8527947 297.713527,60.2807116 C295.758988,51.1810117 287.600615,42.4437407 275.687541,36.0816796 C261.418823,28.4620003 243.826246,25.8982756 230.309133,30.3927859 C219.464306,33.9988216 211.726365,41.5381068 205.885276,52.5391858 C208.577377,53.452293 211.172074,54.5081795 213.649129,55.7096784 C233.870467,65.5183273 245.285319,83.6154911 249.248616,106.695606 C262.750783,102.676391 273.618167,97.7419433 282.030975,91.4358966 Z M165.968355,-4.96931235 C165.97636,-10.1098725 165.359664,-13.3306681 163.439022,-16.1875327 C161.081805,-19.6937813 156.315844,-22.166559 151.53857,-22.0069597 C147.413646,-21.8694034 143.556999,-19.979963 139.597127,-16.6250227 C129.03151,-7.67236175 123.135269,4.15134575 119.651366,20.2912575 C116.527776,34.7582973 115.691061,49.481349 117.147017,64.084087 C121.4974,61.7183012 125.997011,59.5325951 130.640816,57.5411813 C135.756897,55.3472461 141.087074,53.5196659 146.522544,52.0736723 C159.096423,34.5762928 165.935142,14.8645954 165.968355,-4.96931235 Z M118.803466,75.7468525 C119.042111,77.0386287 119.297142,78.2865448 119.571099,79.4928339 C119.62619,79.450913 119.681283,79.408927 119.736377,79.366876 C128.549713,72.6403788 136.229625,65.1616249 142.664854,57.1480699 C139.083892,58.2702533 135.566762,59.5664434 132.149046,61.0320668 C127.12948,63.1846189 122.282419,65.5698882 117.614553,68.1690063 C117.941697,70.7002989 118.337991,73.2269045 118.803466,75.7468525 Z M190.924566,100.865596 C190.798184,101.459949 190.798184,101.459949 190.671698,102.054505 C189.509391,107.516679 188.50807,112.06114 187.564878,116.041241 C204.576826,115.941782 222.15382,113.614173 239.697148,109.283489 C241.700678,108.788895 243.654516,108.279216 245.559119,107.753298 C241.851877,85.5856315 231.092442,68.3978752 211.979227,59.1267373 C209.498949,57.9236751 206.8893,56.8741114 204.173443,55.9750685 C198.540728,67.9794751 195.772885,78.0650913 190.924566,100.865596 Z M61.0768202,41.4365737 C75.6921585,25.4457913 83.0597071,5.258996 79.5793261,-9.16697406 C77.8717115,-16.2437199 70.3567282,-24.7979667 62.8489833,-26.6388966 C49.8826769,-29.8161255 40.1953578,-18.4376774 33.4884438,3.91042063 C29.0171861,18.8090918 26.5058132,36.5417078 25.7425109,49.6686091 C25.4422644,54.8317811 25.4735803,59.567991 25.8964257,63.8956898 C38.9999593,60.1425496 51.1224904,52.3277018 61.0768202,41.4365737 Z" id="Pattern" fill="#010101"/>
                                        </g>
                                    </g>
                                </g>
                                <g mask="url(#bodyraised-arm-mask-2)">
                                    <g transform="translate(285.153000, 288.000000)" id="Patterns"/>
                                </g>
                                <g mask="url(#bodyraised-arm-mask-2)">
                                    <g transform="translate(5.153000, 70.000000)" id="Patterns"/>
                                </g>
                                <g mask="url(#bodyraised-arm-mask-2)">
                                    <g transform="translate(285.153000, 70.000000)" id="Patterns"/>
                                </g>
                                <g mask="url(#bodyraised-arm-mask-2)">
                                    <g transform="translate(285.153000, -148.000000)" id="Patterns"/>
                                </g>
                                <g mask="url(#bodyraised-arm-mask-2)">
                                    <g transform="translate(565.153000, -148.000000)" id="Patterns"/>
                                </g>
                                <path d="M139.005701,338.038171 C140.299117,339.155171 141.666109,340.272063 143.042757,341.312687 C144.0498,342.073922 145.02447,342.76525 145.952368,343.370193 C147.232967,344.20508 148.397977,344.858011 149.415063,345.298295 C149.921898,345.517698 150.154907,346.106429 149.935505,346.613263 C149.716102,347.120098 149.127371,347.353107 148.620537,347.133705 C147.487125,346.643064 146.227947,345.937357 144.860096,345.045586 C143.890611,344.413531 142.878741,343.695817 141.836729,342.908149 C140.422299,341.838965 139.022599,340.695348 137.698489,339.55184 C137.235041,339.151605 136.813887,338.779743 136.442751,338.445628 C136.218929,338.244132 136.06071,338.099236 135.97585,338.020329 C135.66432,337.730656 135.57015,337.275602 135.741126,336.886078 L172.576126,252.967078 C172.798101,252.461366 173.388009,252.231351 173.893722,252.453326 C174.399434,252.675301 174.629449,253.265209 174.407474,253.770922 L137.861428,337.031616 C138.202812,337.337967 138.586323,337.675994 139.005701,338.038171 Z" id="Tshirt-details" fill="#B9B3B8"/>
                            </g>
                        </g>
                    </g>
                </g>
            </g>
        </g>
        <g transform="translate(45.000000, 381.000000) scale(1 1)" id="Master/Character/Standing">
            <defs>
                <path d="M109.349893,53.900161 C113.481551,52.981688 144.970514,5.75600247 146.214144,3.88880036 C163.157042,7.1710553 179.732671,12.3563028 194.5425,20.2265561 L194.534447,20.342795 C194.273846,24.1150757 187.81006,118.481216 192.9335,124.393556 L192.941093,124.461309 C193.187039,126.661869 199.30416,181.841416 196.1515,198.396556 C192.9335,215.288556 179.5055,194.246556 179.5055,194.246556 L179.493372,194.278417 C179.199722,195.046486 173.626713,209.436596 168.5975,208.598556 C163.4305,207.737556 153.3835,197.403556 153.3835,197.403556 L153.374748,197.427811 C153.092349,198.206414 146.00353,217.45697 136.1595,215.488556 C126.1125,213.478556 123.8155,199.700556 123.8155,199.700556 C123.8155,199.700556 117.2135,215.488556 106.8795,214.914556 C96.5455,214.339556 94.5365,201.708556 94.5365,201.708556 C94.5365,201.708556 89.6555,215.488556 82.1925,216.349556 C74.7285,217.210556 64.3945,208.598556 59.2275,197.977556 C59.2275,197.977556 50.9025,219.219556 42.2905,213.191556 C41.3568107,212.537941 40.5007296,211.820191 39.716404,211.0599 C38.9866857,200.963205 35.9000145,191.098032 30.4518,182.371756 C26.2618,175.660756 20.3978,169.075756 12.1968,163.637756 C8.56443049,161.228971 4.79906388,158.622963 0.984865847,155.901702 C7.45275655,123.762488 15.5945,89.4685561 15.5945,89.4685561 C15.5945,89.4685561 15.7187488,88.7027664 15.9150545,87.2866042 L15.9209033,87.2444839 C15.9621048,86.9466774 16.0064153,86.6206568 16.0533622,86.2674675 L16.061829,86.2036969 C16.1839431,85.2828267 16.3234572,84.1811093 16.4722231,82.9165641 L16.4762129,82.8821812 C16.5146429,82.5550785 16.5536843,82.2171401 16.593197,81.8686756 L16.6018125,81.7932123 C16.7332875,80.6308248 16.8698493,79.3525911 17.0063666,77.9698586 L17.0193919,77.8362484 C17.0468205,77.5570243 17.0742406,77.2735942 17.1016106,76.9860501 C17.128757,76.7024642 17.1557798,76.4140875 17.1827134,76.121777 C17.1986225,75.9473205 17.2146122,75.7720128 17.2305619,75.5953311 C17.2689523,75.1720346 17.3069484,74.7407762 17.3445977,74.301888 L17.384953,73.8245171 C17.40566,73.5783419 17.4262475,73.3298533 17.4466958,73.0790951 C17.854834,68.0780381 18.2074801,62.1723804 18.3471595,55.7119559 C18.3506244,55.5268887 18.3544335,55.3420453 18.3580655,55.1567582 C18.5346699,46.1832394 18.2952384,36.1692225 17.2242013,26.0345559 L17.2229827,26.0342045 C16.5169108,19.3418341 15.4469567,12.5964969 13.8945,6.06355607 C13.8945,6.06355607 33.2123494,1.99203002 60.8377697,0.000117687701 C62.7598027,2.37434943 105.22942,54.8149529 109.349893,53.900161 Z" id="mastercharacterstanding-path-1"/>
            </defs>
            <g id="Master/Character/Standing" stroke="none" stroke-width="1" fill="none" fill-rule="evenodd">
                <g id="Bottom/Standing" transform="translate(0.000000, 443.000000) scale(1 1)">
                    <g id="Bottom/Standing/Simple" stroke="none" stroke-width="1" fill="none" fill-rule="evenodd">
                        <g id="Simple" transform="translate(275.000000, 0.000000)">
                            <path d="M218.739385,0 C218.739385,0 255.138,147.5697 260.097,509.5447 L173.552,506.9127 L157.097,506.4127 L150.602,72.4327 L136.62,72.1107 C136.62,72.1107 111.34,501.1537 111.34,508.8367 L0,509.5447 C0,509.5447 22.2237409,69.366 60.9477409,0 L218.739385,0 Z" id="Pants" fill="#5BA092"/>
                            <path d="M57.5644891,7.48237716 C57.7226219,7.48535413 58.0322136,7.49112722 58.4861314,7.49950701 C59.2427343,7.51347468 60.1297946,7.52967756 61.1403495,7.54792939 C64.0277328,7.60007897 67.3255425,7.65818915 70.9780749,7.72076975 C73.8403578,7.76981063 76.7590961,7.81885154 79.7250948,7.86764651 C79.9431964,7.58756695 80.303126,7.43357866 80.6770678,7.49573431 C80.9463053,7.54048627 81.172422,7.68891192 81.321355,7.89336691 C88.6787904,8.01393907 96.3153642,8.13232854 104.09153,8.24525906 C116.314871,8.42277435 128.172265,8.5762636 139.397533,8.69860763 C185.544363,9.20156123 215.328681,9.12363991 220.300218,8.26670677 C220.844477,8.17289404 221.361736,8.53805271 221.455548,9.08231149 C221.549361,9.62657027 221.184202,10.1438294 220.639944,10.2376422 C215.474535,11.1279927 185.885877,11.2054022 139.375737,10.6984889 C128.147879,10.5761166 116.288111,10.4225966 104.062487,10.2450482 C96.2868238,10.132125 88.650753,10.013745 81.2922576,9.8936 C81.2778478,9.99026606 81.2608192,10.0939326 81.2429815,10.2025922 C81.0312789,11.4921954 80.7813129,13.0247657 80.4944501,14.7952741 C79.6747568,19.8543949 78.7238743,25.8049223 77.6527351,32.6066241 C74.5921859,52.0410187 71.1817952,74.3973452 67.5090226,99.3537405 C57.0152067,170.658949 46.5213293,248.502326 36.7270618,330.308843 C29.6056691,389.790202 23.1206544,449.223563 17.417437,508.073659 C17.3641641,508.623368 16.8753504,509.02581 16.325641,508.977271 C15.7759315,508.919264 15.3734902,508.43045 15.426763,507.880741 C21.1314854,449.015117 27.6181225,389.566886 34.7412436,330.071091 C44.5377656,248.245743 55.0340197,170.384736 65.5303353,99.0625418 C69.2041087,74.0993463 72.6155108,51.7363897 75.6770834,32.2954964 C76.7486867,25.4908473 77.7000349,19.5374056 78.5201957,14.4753997 C78.8072817,12.7035138 79.0574712,11.1695733 79.2693976,9.87860669 L79.2715623,9.86044902 C76.4497004,9.81393325 73.6711341,9.76720477 70.943813,9.72047626 C67.2906459,9.65788479 63.9922197,9.59976374 61.104233,9.54760326 C60.0934085,9.52934657 59.2060819,9.51313882 58.4492157,9.49916629 C57.9950521,9.49078196 57.6853308,9.48500645 57.5268444,9.48202284 C56.9746575,9.47162754 56.5354486,9.01556455 56.5456631,8.46337764 C56.5562392,7.91119073 57.0123022,7.47198185 57.5644891,7.48237716 Z M163.428398,70.9889954 C163.980354,70.9699402 164.443249,71.4019417 164.462305,71.9538976 C164.48136,72.5058535 164.049358,72.9687495 163.497402,72.9878046 L150.636402,73.4318046 C150.084446,73.4508598 149.621551,73.0188583 149.602495,72.4669024 C149.58344,71.9149465 150.015442,71.4520505 150.567398,71.4329954 L163.428398,70.9889954 Z" id="Pants-details" fill="#2F6858"/>
                            <g id="Shoes" transform="translate(20.563600, 506.687200)">
                                <path d="M151.8171,-2.13162821e-14 L154.0301,42.819 L187.0071,42.819 L186.1061,37.263 L196.2101,42.819 L257.9341,42.819 C257.9341,42.819 260.3591,34.444 250.7761,29.207 C239.9211,23.274 238.2661,21.126 236.3391,15.716 C233.4051,7.477 234.5631,2.099 234.5631,2.099 L151.8171,-2.13162821e-14 Z" id="Fill-3" fill="#B9B3B8"/>
                                <path d="M153.4924,32.4092 L154.0314,42.8192 L187.0074,42.8192 L186.1064,37.2632 L196.2094,42.8192 L257.9344,42.8192 C257.9344,42.8192 259.7154,36.6452 254.1534,31.5842 L153.4924,32.4092 Z" id="Fill-5" fill="#010101"/>
                                <path d="M4.2454,1.6338 L0.0004,31.6408 L29.7804,36.0858 L31.1414,31.2618 L43.9334,42.1488 L97.9684,42.8198 C97.9684,42.8198 100.5164,34.2148 90.8114,29.2068 C84.0414,25.7148 81.3934,23.3078 80.3144,18.7218 C78.3104,10.2088 78.5984,2.0988 78.5984,2.0988 L4.2454,1.6338 Z" id="Fill-7" fill="#B9B3B8"/>
                                <path d="M1.801,19.8213 L-5.68434189e-14,31.6403 L29.78,36.0863 L31.141,31.2613 L43.933,42.1483 L97.968,42.8193 C97.968,42.8193 99.217,38.2203 96.885,34.8693 C96.885,34.8693 49.983,32.7713 44.431,30.6433 C35.689,27.2923 19.952,23.5043 19.952,23.5043 L1.801,19.8213 Z" id="Fill-9" fill="#010101"/>
                            </g>
                        </g>
                    </g>
                </g>
                <g id="Head" transform="translate(268.000000, 82.000000) scale(1 1)">
                    <g id="Head/Hat" stroke="none" stroke-width="1" fill="none" fill-rule="evenodd">
                        <g id="Hat" transform="translate(46.000000, 27.000000)">
                            <path d="M133.9736,46.882 C133.9736,46.882 144.0826,66.968 162.8866,73.159 C169.2526,75.255 175.1786,78.567 179.9086,83.314 C188.5706,92.007 198.7186,107.75 197.4856,133.219 C195.3746,176.852 185.5136,178.59 211.5616,188.816 C246.7176,202.617 239.0076,267.284 191.1516,276.785 C169.2926,281.125 147.0096,286.555 126.6126,295.629 C101.9976,306.579 75.2326,331.456 46.9896,318.679 C23.1896,307.912 14.0436,280.928 19.2626,256.673 C22.3486,242.33 28.9886,229.037 35.6246,215.952 C42.0826,203.217 46.5026,190.609 34.1286,180.03 C27.4316,174.306 18.7476,171.686 13.1276,164.61 C0.8116,149.102 15.0996,123.447 15.2136,106.124 C15.7556,23.857 39.5246,32.228 39.5246,32.228 L89.1076,17.451 L133.9736,46.882 Z" id="Hair" fill="#010101"/>
                            <path d="M141.656896,75.7552704 C141.879267,75.7457889 142.103267,75.7409 142.3286,75.7409 C150.1816,75.7409 156.5476,81.0879 156.5476,87.6849 C156.5476,94.2819 150.1816,99.6289 142.3286,99.6289 C139.2786,99.6289 136.4606,98.8149 134.1466,97.4399 C133.4216,97.0089 132.5036,97.2189 132.0286,97.9169 C123.7616,110.0489 109.5186,119.0739 92.5506,122.3259 C91.0776,122.6089 90.0456,123.9439 90.1316,125.4409 L90.1316,125.4409 L91.7526,153.6909 L65.3136,153.6909 L66.9356,125.4409 C67.0216,123.9439 65.9896,122.6099 64.5166,122.3259 C47.4506,119.0549 33.1426,109.9449 24.8976,97.7069 C24.4086,96.9809 23.4506,96.7879 22.7096,97.2539 C20.3406,98.7429 17.4056,99.6289 14.2196,99.6289 C6.3666,99.6289 -0.0004,94.2819 -0.0004,87.6849 C-0.0004,81.0879 6.3666,75.7409 14.2196,75.7409 C14.7276,75.7409 15.2276,75.7649 15.7206,75.8109 C16.2375649,75.8590866 16.7109999,75.6393697 17.0059522,75.2696487 C17.2048,75.0111 17.3248,74.6951 17.3178,74.3431 L17.3178,74.3431 C17.3248919,74.6965555 17.2068045,75.0178815 17.0059522,75.2696487 L16.9948,75.5901 C16.9948,75.5901 67.1758,69.7651 75.1238,42.2781 L75.1678698,42.3228749 C76.6016212,43.7750612 112.73134,80.03708 141.3248,75.7731 Z" id="Skin" fill="#583318"/>
                            <g transform="translate(17.417139, -0.000427)">
                                <path d="M142.250361,34.3380268 C132.470361,-1.92997324 77.4583607,-3.15197324 53.0083607,2.55302676 C28.5583607,8.25802676 -17.5256393,13.8760268 6.96136071,33.1150268 C29.7813607,51.0450268 152.030361,70.6050268 142.250361,34.3380268" id="Fill-8" fill="#2F6858"/>
                                <path d="M73.3665607,20.7564268 C74.1125607,21.2904268 75.1215607,21.2664268 75.8385607,20.6944268 C78.0175607,18.9534268 82.8125607,14.9124268 80.9805607,14.4534268 C78.6365607,13.8674268 71.7775607,14.2964268 71.6905607,17.4514268 C71.6445607,19.1224268 72.5265607,20.1544268 73.3665607,20.7564268" id="Fill-11" fill="#5BA092"/>
                            </g>
                        </g>
                    </g>
                </g>
                <g id="Face" transform="translate(351.000000, 173.000000) scale(1 1)">
                    <g id="Face/Surprised" stroke="none" stroke-width="1" fill="none" fill-rule="evenodd">
                        <g id="Surprised" transform="translate(19.000000, 13.000000)" fill="#010101">
                            <path d="M15.2814991,13.397817 L1.42399134,3.6349389 C0.746758301,3.15781532 0.584537526,2.22202439 1.0616611,1.54479134 C1.53878468,0.867558301 2.47457561,0.705337526 3.15180866,1.1824611 L18.6418087,12.0954611 C19.4585528,12.6708729 19.4950822,13.8689247 18.7149121,14.4930276 L4.63291214,25.7580276 C3.98600579,26.2755251 3.04206996,26.1706185 2.52457244,25.5237121 C2.00707493,24.8768058 2.11198151,23.93287 2.75888786,23.4153724 L15.2814991,13.397817 Z" id="Stroke-1"/>
                            <path d="M47.0543961,4.13753915 C46.4884483,3.53256428 46.520086,2.58334391 47.1250609,2.01739611 C47.7300357,1.45144831 48.6792561,1.48308599 49.2452039,2.08806085 L59.4542039,13.0010609 C60.0126319,13.5979974 59.9902974,14.5321508 59.4039798,15.1017178 L47.0829798,27.0707178 C46.4887668,27.6479547 45.539119,27.6341928 44.9618822,27.0399798 C44.3846453,26.4457668 44.3984072,25.496119 44.9926202,24.9188822 L56.2577707,13.975567 L47.0543961,4.13753915 Z" id="Stroke-3"/>
                            <path d="M35.9203,29.8677 C35.9203,35.4477218 33.1824217,40.1687 29.3163,40.1687 C25.4493915,40.1687 22.7113,35.447993 22.7113,29.8677 C22.7113,24.287407 25.4493915,19.5667 29.3163,19.5667 C33.1824217,19.5667 35.9203,24.2876782 35.9203,29.8677 Z M32.9203,29.8677 C32.9203,25.7257929 31.0882195,22.5667 29.3163,22.5667 C27.5434765,22.5667 25.7113,25.7255309 25.7113,29.8677 C25.7113,34.0098691 27.5434765,37.1687 29.3163,37.1687 C31.0882195,37.1687 32.9203,34.0096071 32.9203,29.8677 Z" id="Stroke-5"/>
                        </g>
                    </g>
                </g>
                <g id="Body" transform="translate(87.000000, 44.000000) scale(1 1)">
                    <defs>
                        <path d="M0.0517,15.5105 C0.0517,15.5105 44.4917,0.2615 118.5737,0.2394687 C169.6617,0.2245 208.4967,5.5925 237.8677,34.4405 L207.2647,101.0805 L227.0637,196.5115 C227.0637,196.5115 142.3247,229.7735 40.5587,198.0955 L33.8267,80.0945 L0.0517,15.5105 Z" id="bodydialogue-path-1"/>
                    </defs>
                    <g id="Body/Dialogue" stroke="none" stroke-width="1" fill="none" fill-rule="evenodd">
                        <g id="Body" transform="translate(51.000000, 218.000000)">
                            <g id="Tshirt" transform="translate(132.000000, 0.000000)">
                                <mask id="bodydialogue-mask-2" fill="#fff">
                                    <use xlink:href="#bodydialogue-path-1"/>
                                </mask>
                                <use fill="#F3705A" xlink:href="#bodydialogue-path-1"/>
                                <g mask="url(#bodydialogue-mask-2)">
                                    <g transform="translate(-16.000000, 0.000000) scale(1 1)" id="Patterns">
                                        <g id="Patterns/Pattern 6" stroke="none" stroke-width="1" fill="none" fill-rule="evenodd">
                                            <path d="M280,-1 L280,-5.70654635e-14 L281,-5.70654635e-14 L281,218 L278,218 L278,175.999 L234,175.999 L234,218 L231,218 L231,175.999 L187,175.999 L187,218 L184,218 L184,175.999 L140,175.999 L140,218 L137,218 L137,175.999 L93,175.999 L93,218 L90,218 L90,175.999 L46,175.999 L46,218 L43,218 L43,175.999 L-1.42108547e-14,176 L-1.40271577e-14,173 L43,172.999 L43,132.75 L-1.42108547e-14,132.75 L-1.40271577e-14,129.75 L43,129.75 L43,89 L-1.42108547e-14,89 L-1.40271577e-14,86 L43,86 L43,45.999 L-1.42108547e-14,46 L-1.40271577e-14,43 L43,42.999 L43,2 L-1.42108547e-14,2 L-1.40271577e-14,-1 L280,-1 Z M90,132.75 L46,132.75 L46,172.999 L90,172.999 L90,132.75 Z M137,132.75 L93,132.75 L93,172.999 L137,172.999 L137,132.75 Z M184,132.75 L140,132.75 L140,172.999 L184,172.999 L184,132.75 Z M231,132.75 L187,132.75 L187,172.999 L231,172.999 L231,132.75 Z M278,132.75 L234,132.75 L234,172.999 L278,172.999 L278,132.75 Z M90,89 L46,89 L46,129.75 L90,129.75 L90,89 Z M137,89 L93,89 L93,129.75 L137,129.75 L137,89 Z M184,89 L140,89 L140,129.75 L184,129.75 L184,89 Z M231,89 L187,89 L187,129.75 L231,129.75 L231,89 Z M278,89 L234,89 L234,129.75 L278,129.75 L278,89 Z M90,45.999 L46,45.999 L46,86 L90,86 L90,45.999 Z M137,45.999 L93,45.999 L93,86 L137,86 L137,45.999 Z M184,45.999 L140,45.999 L140,86 L184,86 L184,45.999 Z M231,45.999 L187,45.999 L187,86 L231,86 L231,45.999 Z M278,45.999 L234,45.999 L234,86 L278,86 L278,45.999 Z M90,2 L46,2 L46,42.999 L90,42.999 L90,2 Z M137,2 L93,2 L93,42.999 L137,42.999 L137,2 Z M184,2 L140,2 L140,42.999 L184,42.999 L184,2 Z M231,2 L187,2 L187,42.999 L231,42.999 L231,2 Z M278,2 L234,2 L234,42.999 L278,42.999 L278,2 Z" id="Pattern" fill="#010101"/>
                                        </g>
                                    </g>
                                </g>
                            </g>
                            <path d="M133.1567,15.1085 C132.482854,15.3466538 132.111493,15.4876716 132.058348,15.5079574 L132.0517,15.5105 L165.8267,80.0945 L166.0527,81.2115 L87.3867,108.6915 C87.3867,108.6915 126.9137,142.4805 157.1967,162.5625 C165.3977,168.0015 171.2617,174.5865 175.4517,181.2965 C184.400384,195.629395 186.978094,213.034809 183.214621,229.49366 L183.0607,230.1515 L176.8987,263.0105 C175.9717,267.9545 172.6687,272.2145 167.9867,274.0555 C166.1567,274.7745 164.4307,275.0315 163.3687,274.1805 C160.1807,271.6305 162.9337,245.7605 162.9337,245.7605 C162.9337,245.7605 149.5857,271.8035 138.7477,280.0915 C127.9097,288.3795 124.5117,285.0465 124.0487,283.6975 C122.7037,279.7815 135.9087,260.8085 139.0167,255.2985 C139.0167,255.2985 130.6477,261.7645 128.0907,265.1915 C125.1737,269.0975 124.8877,273.3165 117.5557,281.6045 C113.8907,285.7475 110.8897,284.8905 108.8047,282.9965 C106.565345,280.963274 105.783222,277.778123 106.537181,274.857616 L106.6177,274.5665 L109.3817,265.2045 C96.9497,279.2315 89.4607,271.2805 89.2997,269.3495 C88.9437,265.0855 101.0937,248.6295 101.0937,248.6295 C96.6317,248.9475 90.2557,244.4855 92.1687,240.6595 C92.8817,239.2355 126.0047,212.4935 126.0047,212.4935 C126.0047,212.4935 82.8617,200.7405 42.6627,161.2235 C2.4637,121.7055 -11.8443,91.7265 10.6397,61.0665 C25.4427,40.8805 90.4587,24.1705 133.1567,15.1085 Z M369.3132,33.8431 C390.01014,51.44332 417.009123,82.2131437 441.81227,121.030363 L442.5632,122.2091 L546.7502,165.5281 L603.1802,153.9141 C603.1802,153.9141 624.0842,149.7151 621.6452,157.5691 C620.7282,160.5191 618.5242,162.8931 615.7552,164.2651 C610.9802,166.6321 602.2412,170.8491 598.7822,171.7851 C607.7802,169.8051 625.0512,166.0761 629.3842,165.1131 C633.6762,164.1591 647.9912,159.2351 650.1282,161.1781 C652.7512,163.5621 652.4492,170.8901 648.0122,173.5411 C648.0122,173.5411 655.3742,171.6701 656.2892,174.7481 C657.7952,179.8101 654.3292,186.2111 645.5882,189.4441 C645.5882,189.4441 650.8902,188.6331 653.2512,190.8811 C654.5502,192.1171 654.3252,196.0261 653.6162,197.4451 C651.4702,201.7371 645.2282,204.2931 645.2282,204.2931 C645.2282,204.2931 652.7722,204.5321 653.0122,207.4061 C653.1592,209.1781 653.0272,213.1871 649.1802,215.6681 C642.9512,219.6841 629.0782,223.7571 612.8952,224.9401 C586.7162,226.8561 543.9942,223.5411 543.9942,223.5411 L543.885399,223.545975 C540.349227,223.698921 451.49982,227.1368 406.9892,188.5591 C406.9892,188.5591 353.56885,137.365537 341.482697,104.022946 L341.1292,103.0181 L339.9382,99.6161 L369.8672,34.4401 C369.6862,34.2361 369.4962,34.0451 369.3132,33.8431 Z M215.6782,1.4256 C260.8082,-2.2404 295.5542,2.3216 295.5542,2.3216 C295.5542,2.3216 287.6852,24.5046 257.7112,25.5746 C228.33668,26.62418 216.167726,2.4238836 215.692718,1.45545191 Z" id="Skin" fill="#583318"/>
                            <path d="M132.170671,239.654914 C132.491651,240.104348 132.387519,240.728891 131.938086,241.049871 C130.868732,241.81359 129.840413,242.436469 128.18191,243.363035 C122.564212,246.50151 120.592136,247.879439 117.196215,251.674812 C116.578615,252.365225 115.554301,254.171872 114.293243,256.747095 C114.047563,257.248801 113.794618,257.775965 113.535495,258.325654 C112.786791,259.913912 112.020035,261.6176 111.277404,263.321556 C111.017397,263.918138 110.779028,264.472028 110.567522,264.968912 C110.440844,265.266513 110.35144,265.478572 110.304526,265.590796 C110.091512,266.100348 109.505756,266.34074 108.996204,266.127726 C108.486652,265.914712 108.24626,265.328956 108.459274,264.819404 C108.507802,264.70332 108.598875,264.487303 108.727301,264.185596 C108.940968,263.683634 109.181583,263.124525 109.443966,262.522492 C110.193876,260.801834 110.96839,259.080908 111.726423,257.472859 C111.989623,256.91452 112.246829,256.378476 112.497042,255.867515 C113.844497,253.115858 114.918974,251.220737 115.705665,250.341299 C119.287076,246.338616 121.409295,244.855779 127.206463,241.617039 C128.805536,240.723675 129.780356,240.133202 130.775714,239.422329 C131.225148,239.101349 131.849691,239.205481 132.170671,239.654914 Z M146.24375,245.828631 C146.6828,246.163675 146.767112,246.791201 146.432069,247.23025 L139.812069,255.90525 C139.477025,256.3443 138.849499,256.428612 138.41045,256.093569 C137.9714,255.758525 137.887088,255.130999 138.222131,254.69195 L144.842131,246.01695 C145.177175,245.5779 145.804701,245.493588 146.24375,245.828631 Z M119.470759,231.701374 C119.895093,232.054869 119.952521,232.685424 119.599026,233.109759 C118.581235,234.331514 115.64731,237.090399 111.293895,240.9909 C111.048003,241.211114 111.048003,241.211114 110.801918,241.431128 C108.820885,243.201567 106.698987,245.072277 104.577175,246.925833 C103.834606,247.57452 103.145054,248.17476 102.526163,248.711847 C102.154664,249.034243 101.889147,249.264053 101.747266,249.38657 C101.329258,249.747524 100.697784,249.701273 100.33683,249.283266 C99.9758758,248.865258 100.022127,248.233784 100.440134,247.87283 C100.580811,247.751355 100.84509,247.522615 101.215305,247.201333 C101.832606,246.665626 102.520524,246.06681 103.261384,245.419614 C105.377942,243.570648 107.494413,241.704722 109.469191,239.939873 C109.714359,239.720679 109.714359,239.720679 109.95929,239.501325 C114.215692,235.687745 117.135979,232.941685 118.062374,231.829641 C118.415869,231.405307 119.046424,231.347879 119.470759,231.701374 Z M135.979859,208.921772 C136.16605,209.441725 135.895482,210.014168 135.375528,210.200359 L126.341528,213.435359 C125.821575,213.62155 125.249132,213.350982 125.062941,212.831028 C124.87675,212.311075 125.147318,211.738632 125.667272,211.552441 L134.701272,208.317441 C135.221225,208.13125 135.793668,208.401818 135.979859,208.921772 Z M646.177866,203.978528 C646.351379,204.502848 646.066992,205.068554 645.542672,205.242066 C645.446727,205.273817 645.266551,205.331571 645.007896,205.411611 C644.58026,205.543941 644.085693,205.691105 643.529936,205.849382 C641.945262,206.300692 640.185134,206.751676 638.295318,207.172548 C633.239569,208.298491 628.198684,209.006226 623.476502,209.091676 C619.803923,209.158133 616.461065,208.840507 613.521633,208.08198 C612.986867,207.943983 612.665222,207.3986 612.80322,206.863833 C612.941217,206.329067 613.4866,206.007422 614.021367,206.14542 C616.769098,206.854477 619.93627,207.15541 623.440317,207.092003 C628.011999,207.009276 632.925647,206.319406 637.860558,205.220374 C639.710638,204.808351 641.433377,204.366947 642.982127,203.925869 C643.523068,203.77181 644.003184,203.628947 644.416663,203.500998 C644.662677,203.42487 644.830499,203.371075 644.914328,203.343334 C645.438648,203.169821 646.004354,203.454208 646.177866,203.978528 Z M606.066524,169.74319 C606.189911,170.281515 605.853536,170.817938 605.31521,170.941324 L590.964696,174.230516 C590.981238,174.505604 590.997513,174.805716 591.013037,175.129337 C591.26816,180.447838 591.122125,186.360764 590.276757,191.960576 C589.625176,196.276724 588.595847,200.029557 587.123322,203.061475 C586.882043,203.558267 586.283717,203.765402 585.786925,203.524122 C585.290133,203.282843 585.082998,202.684517 585.324278,202.187725 C586.697027,199.361244 587.67531,195.794522 588.299165,191.662032 C589.12166,186.21373 589.264674,180.423116 589.015334,175.225165 C588.992588,174.750984 588.968251,174.329777 588.943963,173.96675 C588.929514,173.750772 588.918397,173.603342 588.912256,173.529663 C588.870927,173.03383 589.200412,172.583034 589.68539,172.471876 L604.86839,168.991876 C605.406715,168.868489 605.943138,169.204864 606.066524,169.74319 Z M646.545129,189.15477 C646.704922,189.683433 646.405893,190.241537 645.87723,190.401329 C645.736917,190.44374 645.470466,190.521721 645.086403,190.630187 C644.449581,190.810037 643.712246,191.010188 642.882915,191.225557 C640.516495,191.840092 637.884695,192.454339 635.055525,193.027581 C627.278544,194.603343 619.515288,195.575593 612.253412,195.646783 C611.641666,195.65278 611.035433,195.652235 610.4349,195.645028 C609.882655,195.638401 609.440345,195.185345 609.446898,194.6331 C609.453599,194.080855 609.906655,193.638545 610.4589,193.645172 C611.044762,193.652203 611.636465,193.652735 612.233806,193.646879 C619.353373,193.577084 626.996114,192.619927 634.658359,191.067413 C637.450518,190.50167 640.047399,189.895573 642.38021,189.289766 C643.19561,189.078015 643.919343,188.881555 644.542829,188.705472 C644.91495,188.600378 645.169721,188.525816 645.29857,188.486871 C645.827233,188.327078 646.385337,188.626107 646.545129,189.15477 Z M649.737444,172.110317 C650.073444,172.548635 649.9905,173.176343 649.552183,173.512344 C643.736782,177.970251 618.808033,184.723024 606.786509,185.333413 C606.234935,185.361419 605.765093,184.936984 605.737087,184.385409 C605.709081,183.833835 606.133516,183.363993 606.685091,183.335987 C618.339034,182.74426 642.901141,176.090804 648.335417,171.925056 C648.773735,171.589056 649.401443,171.672 649.737444,172.110317 Z M75.4764506,103.478957 L87.7164506,107.746957 C88.2379414,107.928798 88.5132827,108.49896 88.3314426,109.020451 C88.1496025,109.541941 87.5794402,109.817283 87.0579494,109.635443 L74.8179494,105.367443 C74.2964586,105.185602 74.0211173,104.61544 74.2029574,104.093949 C74.3847975,103.572459 74.9549598,103.297117 75.4764506,103.478957 Z" id="Skin-Shadows" fill="#D7A17C"/>
                        </g>
                    </g>
                </g>
            </g>
        </g>
    </g>
</svg>
