<svg viewBox="248.698 465.387 1713.251 914.153" xmlns="http://www.w3.org/2000/svg" xmlns:xlink="http://www.w3.org/1999/xlink" overflow="visible">
    <defs>
        <path d="M179.983583,9.27769636 L181.956861,20.13906 L282.571887,0.487769091 L248.831879,171 C248.831879,171 34.2644111,182.52079 24,169.014057 C-25.3329722,80.2433941 19.9056004,-2.27021273 19.9056004,9.27769636 L179.983583,9.27769636 Z" id="masterscenealone-time-path-1"/>
        <path d="M178.062052,0.147448979 C183.245309,0.698942918 188.669993,1.34545492 194.3869,2.07371017 C261.0429,10.5637102 303.3999,44.8787102 303.3999,44.8787102 C289.8349,93.9397102 257.3669,124.07771 257.3669,124.07771 L257.3669,124.07771 L263.4119,196.62071 C121.2049,234.90771 26.7829,189.42371 26.7829,189.42371 L26.7829,189.42371 L52.9799,133.57771 C22.7529,127.24471 0.1299,96.1457102 0.1299,96.1457102 C0.1299,96.1457102 14.8559,38.5157102 58.0189,18.8097102 C75.8223351,10.6815809 90.8189647,5.28934435 105.298114,2.0347215 C107.051744,2.95189508 123.615554,11.293313 144.1316,10.4313102 C164.1786,9.58831017 178.8116,0.248310166 178.8116,0.248310166 L178.8116,0.248310166 Z" id="masterscenealone-time-path-3"/>
    </defs>
    <g id="Master/Scene/Alone Time" stroke="none" stroke-width="1" fill="none" fill-rule="evenodd">
        <g id="Living-Room" transform="translate(267.000000, 768.000000)">
            <g id="Group-76">
                <path d="M1671.36549,570.340983 L1624.10712,569.7886 L1573.79432,529.513359 L1623.71423,530.096637 L1623.77769,530.096637 C1626.67068,530.096637 1629.0336,527.761651 1629.0672,524.850876 C1629.10079,521.919503 1626.76027,519.515235 1623.83835,519.48153 L1560.33539,518.73909 L1502.43363,472.387641 L1544.50328,472.878231 L1544.56581,472.878231 C1547.45973,472.878231 1549.82171,470.542308 1549.85531,467.633406 C1549.88891,464.702033 1547.54839,462.297765 1544.62647,462.263124 L1488.97564,461.613372 L1448.15837,428.940412 L1490.63864,429.435684 L1490.70116,429.435684 C1493.59509,429.435684 1495.95707,427.099761 1495.99067,424.189922 C1496.02426,421.259486 1493.68374,418.854282 1490.76276,418.820577 L1434.69944,418.166144 L1401.85003,391.86899 L1443.11151,392.351154 L1443.17403,392.351154 C1446.06795,392.351154 1448.42994,390.015231 1448.46354,387.105392 C1448.49806,384.17402 1446.15754,381.769751 1443.23563,381.736047 L1388.3911,381.094721 L1351.4943,351.559107 L1396.64078,352.087147 L1396.70424,352.087147 C1399.59723,352.087147 1401.95921,349.751224 1401.99374,346.841386 C1402.02734,343.910013 1399.68682,341.505745 1396.7649,341.47204 L1338.03631,340.786711 L1304.21727,313.713412 L1355.45023,314.311671 L1355.51369,314.311671 C1358.40668,314.311671 1360.76959,311.975748 1360.80319,309.066845 C1360.83679,306.135473 1358.49626,303.730268 1355.57435,303.696563 L1267.32607,302.666698 L1267.26261,302.666698 C1266.29019,302.666698 1265.38124,302.935399 1264.59733,303.39603 L411.998212,303.39603 C411.213372,302.935399 410.304414,302.666698 409.331996,302.666698 L409.26947,302.666698 L321.020262,303.696563 C318.098343,303.730268 315.758756,306.135473 315.792352,309.066845 C315.825948,311.976684 318.187933,314.311671 321.081854,314.311671 L321.14438,314.311671 L345.522939,314.027053 L317.20245,341.035751 L279.830641,341.47204 C276.908722,341.505745 274.568202,343.910013 274.601797,346.841386 C274.635393,349.752161 276.997378,352.087147 279.8913,352.087147 L279.953826,352.087147 L305.932861,351.783805 L275.037612,381.249201 L233.358983,381.736047 C230.437065,381.769751 228.096544,384.17402 228.13014,387.105392 C228.163736,390.016167 230.526654,392.351154 233.419642,392.351154 L233.483101,392.351154 L263.76709,391.997255 L236.258504,418.231681 L185.831851,418.820577 C182.909933,418.854282 180.569412,421.259486 180.603008,424.189922 C180.637537,427.100698 182.999522,429.435684 185.89251,429.435684 L185.955969,429.435684 L224.987981,428.980671 L190.808724,461.576859 L131.968141,462.263124 C129.046223,462.297765 126.706636,464.702033 126.740232,467.633406 C126.773828,470.543245 129.135813,472.878231 132.029734,472.878231 L132.09226,472.878231 L179.539135,472.324912 L131.052651,518.565886 L52.7553217,519.48153 C49.8334035,519.515235 47.4938159,521.919503 47.5274119,524.850876 C47.5610078,527.761651 49.9229928,530.096637 52.8169144,530.096637 L52.8794402,530.096637 L119.782128,529.314876 L77.650886,569.49462 L5.22912304,570.340983 C2.30720484,570.374688 -0.0333160267,572.778956 -7.72322037e-05,575.710329 C0.0338759599,578.621104 2.39586093,580.95609 5.28978247,580.95609 L5.35230835,580.95609 L66.3812967,580.242674 L66.0481364,580.56006 L1637.3962,580.56006 L1671.24137,580.95609 L1671.30483,580.95609 C1674.19781,580.95609 1676.5598,578.621104 1676.59469,575.710329 C1676.62792,572.778956 1674.2874,570.374688 1671.36549,570.340983" id="Fill-1" fill="#FFF5EE"/>
                <path d="M753,247.5 L349,244 L380.784965,24.3907174 C382.534836,12.3015509 392.869893,3.3158552 405.080744,3.26640122 L720.031354,2.00002945 C726.862006,1.97313287 733.806659,5.3146989 740.271181,10.208682 C744.580862,13.4713374 747.823802,17.0684434 750,21 L753,247.5 Z" id="Fill-4" fill="#78BFB1"/>
                <path d="M776.428655,0 C767.849183,0 759.895588,4.49729523 755.45941,11.8550609 L750,20.9113478 L753,247.5 L1144,244 L1115.46705,21.5535515 C1113.88697,9.22922381 1103.41773,0 1091.01957,0 L776.428655,0 Z" id="Fill-6" fill="#78BFB1"/>
                <path d="M369.136362,102.979485 L230.825253,155.062981 C221.269772,158.661307 214.864952,167.746541 214.660751,177.992828 L211,361.651641 C210.846205,369.529006 217.162445,376 225.008792,376 L1264.98973,376 C1273.12326,376 1279.54766,369.067394 1278.96303,360.920365 L1265.02889,166.907587 C1264.41629,158.373853 1259.50334,150.745552 1252.00386,146.683741 L1121.49061,76 L1142.54474,244.314196 L349.042626,244.314196 L369.136362,102.979485 Z" id="Fill-8" fill="#78BFB1"/>
                <path d="M276.646047,375 L312,375 L287.504555,455.211996 C286.453912,458.650839 283.285217,461 279.693657,461 C272.694959,461 267.263842,454.881733 268.08163,447.919148 L276.646047,375 Z" id="Fill-10" fill="#CDB1AA"/>
                <path d="M183.330504,483 L219,483 L145.615207,599.872619 C143.220764,603.685421 139.036127,606 134.53574,606 C128.952778,606 125.313187,600.129377 127.792206,595.122135 L183.330504,483 Z" id="Fill-12" fill="#E3D4C5"/>
                <path d="M455.669673,483 L420,483 L493.384218,599.872619 C495.778673,603.685421 499.963331,606 504.463741,606 C510.04767,606 513.687279,600.129377 511.207308,595.122135 L455.669673,483 Z" id="Fill-14" fill="#E3D4C5"/>
                <path d="M1208.35395,375 L1173,375 L1197.49545,455.211996 C1198.54609,458.650839 1201.71478,461 1205.30634,461 C1212.30504,461 1217.73616,454.881733 1216.91837,447.919148 L1208.35395,375 Z" id="Fill-16" fill="#CDB1AA"/>
                <path d="M570,452.500467 C570,489.778824 458.294857,520 320.5,520 C182.705143,520 71,489.778824 71,452.500467 C71,415.221176 182.705143,385 320.5,385 C458.294857,385 570,415.221176 570,452.500467" id="Fill-18" fill="#CDB1AA"/>
                <polygon id="Fill-28" fill="#E3D4C5" points="242.09201 430.012353 323.403825 426.436875 327 429 327 435.262228 240.195459 491 155.286536 488.100857 155 480.690631"/>
                <path d="M240.152655,485.297088 L323.403825,431.187688 L323.403825,413 L240.152655,466.102495 L155.201863,463.351453 C155.201863,463.351453 155.201863,483.249886 155.201863,483.249886 L240.152655,485.297088 Z" id="Fill-30" fill="#F4F0F0"/>
                <polygon id="Fill-32" fill="#E3D4C5" points="242.076699 408 327 410.758007 323.403825 417.002094 323.403825 413 240.179806 466 155.499218 464.537745 154 462"/>
                <path d="M478.500462,102 C483.194899,102 487,106.253019 487,111.50045 C487,116.746981 483.194899,121 478.500462,121 C473.806025,121 470,116.746981 470,111.50045 C470,106.253019 473.806025,102 478.500462,102 Z M615.500462,102 C620.194899,102 624,106.253019 624,111.50045 C624,116.746981 620.194899,121 615.500462,121 C610.806025,121 607,116.746981 607,111.50045 C607,106.253019 610.806025,102 615.500462,102 Z M863.500462,102 C868.194899,102 872,106.253019 872,111.50045 C872,116.746981 868.194899,121 863.500462,121 C858.80695,121 855,116.746981 855,111.50045 C855,106.253019 858.80695,102 863.500462,102 Z M999.500925,102 C1004.19469,102 1008,106.253019 1008,111.50045 C1008,116.746981 1004.19469,121 999.500925,121 C994.806232,121 991,116.746981 991,111.50045 C991,106.253019 994.806232,102 999.500925,102 Z" id="Combined-Shape" fill="#2F6858"/>
                <path d="M465.827702,268.086432 L307.911237,298.77315 C289.804183,300.89028 273.406258,287.951435 271.285031,269.871389 L254.227377,124.48457 C252.10615,106.404525 265.064323,90.0310594 283.171378,87.9120635 L441.088776,57.2272113 C459.194896,55.1082154 475.593756,68.0479931 477.714983,86.1280388 L494.772637,231.515791 C496.893864,249.595836 483.934756,265.968369 465.827702,268.086432" id="Fill-44" fill="#F4F0F0"/>
                <path d="M266,227 L388,284.791587 L361.609048,290 L268.164199,245.735569 L266,227 Z M489.396402,186 L492,208.324835 L440.837159,273.341595 L417,278 L489.396402,186 Z M482.382634,127 L485,149.24697 L398.701717,258 L262.17506,194.477539 L260,175.983564 L394.028049,238.343807 L482.382634,127 Z M472.606662,72 C475.117499,76.0003314 476.803561,80.5999669 477.390546,85.5947888 L477.390546,85.5947888 L478,90.7732234 L385.741246,207 L256.177557,146.736853 L254,128.226466 L381.062214,187.328286 Z M440.727061,57.2246439 C443.893773,56.852428 447.005321,56.9527481 450,57.4515362 L450,57.4515362 L375.490188,152 L262,98.8303183 C266.248461,94.0815185 271.870379,90.5449986 278.337501,88.8836219 L278.337501,88.8836219 L370.817255,132.210678 L427.945215,59.7185842 Z M391,67 L362.73383,103 L317,81.4942443 L343.245439,76.3536488 L358.110391,83.3437411 L367.298053,71.6414362 L391,67 Z" id="Combined-Shape" fill="#5BA092"/>
                <path d="M403,405 L450,405 L448.198452,434.910306 C447.654571,443.948743 440.173206,451 431.127606,451 L421.873318,451 C412.827718,451 405.346353,443.948743 404.801548,434.910306 L403,405 Z" id="Fill-20" fill="#F3705A"/>
                <path d="M445,441 L445.706077,435.133025 C453.881412,434.482073 463.626229,431.183417 463.626229,419.172089 C463.626229,415.256102 462.11456,414.336177 461.616041,414.034516 C458.423054,412.097537 451.246653,414.337111 447.473641,416.207781 L445.052127,411.482074 C446.322118,410.848867 457.65632,405.415237 464.42803,409.52268 C466.514039,410.786293 469,413.486297 469,419.172089 C469,431.512162 459.528136,439.842855 445,441" id="Fill-22" fill="#F3705A"/>
                <path d="M450,405.499536 C450,409.64211 439.478848,413 426.50092,413 C413.522072,413 403,409.64211 403,405.499536 C403,401.35789 413.522072,398 426.50092,398 C439.478848,398 450,401.35789 450,405.499536" id="Fill-72" fill="#E74B33"/>
                <path d="M465,375.000097 C465.552285,375.000097 466,375.447813 466,376.000097 C466,380.453263 464.349905,384.111122 461.187956,387.382127 C458.844414,389.806498 456.537606,391.42923 451.027938,394.849024 C445.66256,398.179259 443.437884,399.744223 441.250246,402.007344 C438.431086,404.923778 437,408.096217 437,412.000097 C437,412.292833 436.341972,412.292833 435.809906,412.379982 C435.27784,412.467132 435,412.552382 435,412.000097 C435,407.54661 436.650169,403.888507 439.812254,400.617315 C442.155896,398.192807 444.462799,396.57 449.972637,393.150101 C455.337849,389.819969 457.562433,388.255078 459.749975,385.992087 C462.568994,383.07584 464,379.903648 464,376.000097 C464,375.447813 464.447715,375.000097 465,375.000097 Z M432.0276,361.173463 C438.727737,365.73464 442,370.180589 442,376.569975 C442,380.961029 440.347101,384.567113 437.181949,387.789591 C434.837702,390.176296 432.530138,391.773816 427.020548,395.139168 C425.863264,395.846057 425.351019,396.160729 424.718613,396.555888 C416.582398,401.640329 413.004124,405.510839 413.004124,411.622731 C413.004124,411.692418 412.542317,411.552363 411.968018,411.421127 C411.393719,411.289891 411.0159,411.289891 411.0159,411.206449 C411.0159,404.434621 415.151595,400.176055 423.658758,394.859802 C424.298866,394.45983 424.814944,394.142804 425.975171,393.434118 C431.342187,390.155852 433.567726,388.615117 435.755101,386.388125 C438.571471,383.520747 440,380.404164 440,376.569975 C440,370.978631 437.1111,367.053549 430.902122,362.826732 C430.445585,362.51594 430.327434,361.893896 430.638226,361.437359 C430.949019,360.980821 431.571062,360.862671 432.0276,361.173463 Z" id="Combined-Shape" fill="#F4F0F0"/>
                <path d="M750.5,19.5 C751.328427,19.5 752,20.1715729 752,21 L752,243.806 L1027.60772,242.5 C1028.43614,242.496089 1029.11484,243.16447 1029.11484,243.992888 C1029.11484,244.821306 1028.45037,245.496055 1027.62195,245.499983 L495.007112,248.025379 C494.178694,248.029289 493.5,247.360908 493.5,246.532491 C493.5,245.704073 494.16447,245.029323 494.992888,245.025395 L749,243.82 L749,21 C749,20.1715729 749.671573,19.5 750.5,19.5 Z" id="Combined-Shape" fill="#2F6858"/>
                <g id="Group-16" transform="translate(1008.000000, 113.000000)">
                    <path d="M105.8991,95.004 C97.0451,95.004 89.8681,87.684 89.8681,78.652 C89.8681,69.622 97.0451,62.302 105.8991,62.302 C114.7531,62.302 121.9291,69.622 121.9291,78.652 C121.9291,87.684 114.7531,95.004 105.8991,95.004 M72.9531,155.757 C65.6731,158.24 57.4581,153.468 54.6011,145.097 C51.7461,136.726 55.3311,127.926 62.6101,125.442 C69.8891,122.958 78.1061,127.732 80.9621,136.103 C83.8181,144.474 80.2321,153.274 72.9531,155.757 M164.2521,140.532 C168.9941,140.532 173.3041,142.275 176.5131,145.118 C178.0001,141.128 178.8261,136.807 178.8261,132.272 L178.8261,48.42 C178.8261,39.247 175.4461,30.799 169.8181,24.312 C168.3461,35.618 158.8101,44.347 147.2581,44.347 C134.6861,44.347 124.4951,34.012 124.4951,21.263 C124.4951,17.086 125.5941,13.172 127.5061,9.792 L76.3701,4.148 C76.3801,4.402 76.4021,4.653 76.4021,4.911 C76.4021,13.234 70.6611,19.981 63.5781,19.981 C56.4951,19.981 50.7531,13.234 50.7531,4.911 C50.7531,3.687 50.8911,2.502 51.1261,1.361 L40.8391,0.227 C19.0481,-2.179 9.99999993e-05,14.883 9.99999993e-05,36.806 L9.99999993e-05,46.199 C1.5871,45.828 3.2261,45.629 4.9051,45.629 C18.8931,45.629 30.2331,59.122 30.2331,75.768 C30.2331,92.412 18.8931,105.905 4.9051,105.905 C3.2261,105.905 1.5871,105.706 9.99999993e-05,105.336 L9.99999993e-05,120.658 C9.99999993e-05,139.421 14.1151,155.18 32.7641,157.237 L137.9861,168.852 C142.2161,169.318 146.3401,169.044 150.2451,168.15 C147.7771,165.24 146.2961,161.547 146.2961,157.525 C146.2961,148.14 154.3361,140.532 164.2521,140.532" id="Fill-1" fill="#F3705A"/>
                    <path d="M164.2513,140.5323 C168.9933,140.5323 173.3043,142.2753 176.5133,145.1183 C172.2113,156.6713 162.2913,165.3933 150.2443,168.1503 C147.7773,165.2403 146.2963,161.5473 146.2963,157.5243 C146.2963,148.1393 154.3353,140.5323 164.2513,140.5323 Z M62.61,125.4425 C69.889,122.9585 78.106,127.7315 80.962,136.1025 C83.818,144.4735 80.232,153.2735 72.953,155.7565 C65.673,158.2405 57.458,153.4675 54.601,145.0965 C51.746,136.7255 55.331,127.9255 62.61,125.4425 Z M4.9051,45.6287 C18.8931,45.6287 30.2331,59.1217 30.2331,75.7677 C30.2331,92.4127 18.8931,105.9057 4.9051,105.9057 C3.2261,105.9057 1.5871,105.7057 9.99999994e-05,105.3357 L9.99999994e-05,105.3357 L9.99999994e-05,46.1997 C1.5871,45.8287 3.2261,45.6287 4.9051,45.6287 Z M105.8991,62.3018 C114.7531,62.3018 121.9291,69.6218 121.9291,78.6528 C121.9291,87.6838 114.7531,95.0038 105.8991,95.0038 C97.0451,95.0038 89.8681,87.6838 89.8681,78.6528 C89.8681,69.6218 97.0451,62.3018 105.8991,62.3018 Z M127.5065,9.7918 L146.0615,11.8398 C155.5935,12.8928 163.9345,17.5298 169.8185,24.3118 C168.3465,35.6178 158.8105,44.3468 147.2585,44.3468 C134.6865,44.3468 124.4945,34.0118 124.4945,21.2628 C124.4945,17.0858 125.5945,13.1718 127.5065,9.7918 L127.5065,9.7918 Z M51.1258,1.3616 L76.3698,4.1476 C76.3808,4.4026 76.4018,4.6536 76.4018,4.9116 C76.4018,13.2336 70.6608,19.9806 63.5778,19.9806 C56.4948,19.9806 50.7528,13.2336 50.7528,4.9116 C50.7528,3.6866 50.8908,2.5016 51.1258,1.3616 L51.1258,1.3616 Z" id="Combined-Shape" fill="#E74B33"/>
                </g>
                <path id="Path-2" stroke="#979797"/>
            </g>
            <rect id="Rectangle" fill="#E3D4C5" x="154" y="462" width="4" height="26"/>
            <g id="Object/Floor" transform="translate(1210.000000, 29.000000) scale(1 1)">
                <defs>
                    <path d="M0.2288,0 L157.5878,2.467 L139.6958,150.317 C138.4498,160.618 134.3088,170.429 127.4358,178.202 C118.4958,188.314 103.0808,197.81 77.1818,195.344 C51.0968,192.859 34.0198,181.742 23.4938,171.317 C14.3728,162.283 9.0308,150.118 8.2788,137.302 L0.2288,0 Z" id="objectfloorplant-2-path-1"/>
                </defs>
                <g id="Object/Floor/Plant 2" stroke="none" stroke-width="1" fill="none" fill-rule="evenodd">
                    <g id="Plant-2" transform="translate(58.000000, 0.000000)">
                        <path d="M24.6592,46.7744 C24.9622,46.8654 55.2902,56.3264 85.9432,90.2654 C103.9082,110.1574 118.5042,134.4604 129.3262,162.5004 C142.8322,197.4944 150.4632,238.4424 152.008059,284.2064 C152.0342,284.9884 151.4212,285.6444 150.6392,285.6714 L150.5902,285.6714 C149.8292,285.6714 149.2002,285.0674 149.1742,284.3024 C147.6412,238.8564 140.0732,198.2194 126.6822,163.5214 C115.9862,135.8064 101.5702,111.7994 83.8382,92.1654 C53.7092,58.8054 24.1342,49.5764 23.8392,49.4864 C23.0892,49.2604 22.6662,48.4694 22.8932,47.7204 C23.1202,46.9704 23.9162,46.5434 24.6592,46.7744 Z M231.5852,59.9691 C232.3512,60.1351 232.8352,60.8901 232.6692,61.6551 C220.5232,117.5321 159.2822,282.4751 158.6652,284.1351 C158.4532,284.7051 157.9122,285.0591 157.3372,285.0591 C157.1732,285.0591 157.0062,285.0301 156.8432,284.9691 C156.1092,284.6971 155.7352,283.8801 156.0092,283.1471 C156.6252,281.4901 217.7952,116.7341 229.9002,61.0531 C230.0652,60.2881 230.8162,59.7971 231.5852,59.9691 Z M33.5507,165.8888 C33.7227,165.9898 50.9527,176.1708 70.4047,195.5468 C88.3647,213.4358 111.9857,243.0728 122.5217,282.6638 C122.7227,283.4198 122.2727,284.1958 121.5157,284.3978 C121.3937,284.4298 121.2717,284.4458 121.1507,284.4458 C120.5237,284.4458 119.9507,284.0268 119.7817,283.3918 C99.9227,208.7678 32.7957,168.7308 32.1197,168.3348 C31.4437,167.9388 31.2167,167.0708 31.6127,166.3958 C32.0067,165.7188 32.8767,165.4938 33.5507,165.8888 Z" id="Combined-Shape" fill="#5BA092"/>
                        <path d="M130.2509,252.1354 C133.301866,252.780047 134.997644,253.898272 135.710079,255.310949 C136.1495,254.883775 136.637501,254.453278 137.1731,254.0201 C145.597286,247.205696 151.611694,258.383145 155.073017,268.40315 C161.004344,262.960212 170.14069,256.814107 171.344,269.1933 C171.41999,269.975062 171.431913,270.688296 171.386143,271.337977 C178.88709,267.686294 187.724946,265.97632 192.1411,274.5634 C202.1351,293.9964 158.5491,279.8384 158.5491,279.8384 C158.5491,279.8384 159.812031,278.735906 161.867409,277.213785 C160.379647,277.041394 158.860661,276.716916 157.427684,276.33087 C158.173312,279.253802 158.5491,281.2261 158.5491,281.2261 C158.5491,281.2261 151.248041,279.060848 144.322903,275.395262 C137.885143,276.99664 128.077996,278.051175 126.78809,270.118835 C122.824186,273.621565 119.0999,276.2124 119.0999,276.2124 L119.096687,276.180425 C118.994287,275.14335 116.57108,249.24538 130.2509,252.1354 Z M90.803,272.0408 C95.966,256.3168 118.847,278.2398 118.847,278.2398 C118.847,278.2398 84.445,291.4048 90.803,272.0408 Z M78.5492,256.1904 C76.7762,237.6894 109.2162,251.6284 109.2162,251.6284 C109.2162,251.6284 80.3232,274.6904 78.5492,256.1904 Z M167.1556,256.7964 C167.1556,256.7964 201.0246,222.3714 206.8546,247.9124 C211.4266,267.9414 167.1556,256.7964 167.1556,256.7964 Z M155.387796,222.722146 C161.174344,216.494192 167.83344,212.7328 169.4394,225.8116 C169.959947,230.048331 167.243041,232.457525 163.498746,233.800311 C166.70163,243.710695 167.1556,256.7964 167.1556,256.7964 C167.1556,256.7964 142.76879,246.105962 142.322159,234.572402 C138.251772,235.818603 131.302125,237.572154 125.838485,237.036755 C121.619888,244.817314 109.2162,251.6284 109.2162,251.6284 C109.2162,251.6284 109.637826,221.700415 119.513993,223.347282 C124.187102,217.89749 137.162311,226.775958 142.921978,231.181043 C143.81796,228.957593 145.7681,226.738188 149.1106,224.5924 C151.394615,223.126184 153.391863,222.677131 155.137998,222.99254 Z M90.2074,220.9624 C90.2074,220.9624 95.7834,251.1214 79.8164,242.5044 C63.8504,233.8874 90.2074,220.9624 90.2074,220.9624 Z M71.1996,198.6597 C71.1996,198.6597 80.8306,230.8467 63.8496,227.0447 C46.8696,223.2427 71.1996,198.6597 71.1996,198.6597 Z M217.4041,213.7653 C226.8251,237.9333 179.9261,222.0943 179.9261,222.0943 C179.9261,222.0943 211.0191,197.3863 217.4041,213.7653 Z M166.0451,188.2253 C181.0081,179.7273 179.0931,222.0943 179.0931,222.0943 C179.0931,222.0943 143.5581,200.9953 166.0451,188.2253 Z M103.3874,197.3924 C118.0864,198.9124 90.2074,220.9624 90.2074,220.9624 C90.2074,220.9624 78.9644,194.8654 103.3874,197.3924 Z M50.1644,179.398 C50.1644,179.398 64.8634,218.681 45.8554,211.332 C26.8484,203.982 50.1644,179.398 50.1644,179.398 Z M139.8138,200.8413 C139.8138,200.8413 110.1878,217.1363 110.1878,199.1493 C110.1878,181.1613 139.8138,200.8413 139.8138,200.8413 Z M156.7429,171.8506 C177.6929,178.6226 139.3909,199.9956 139.3909,199.9956 C139.3909,199.9956 135.7929,165.0786 156.7429,171.8506 Z M85.1386,170.2737 C101.8656,175.5967 71.1996,198.6597 71.1996,198.6597 C71.1996,198.6597 68.4116,164.9517 85.1386,170.2737 Z M33.2593124,167.475236 C31.5756414,162.481226 18.9602346,123.089048 41.0408,126.1757 C62.7121779,129.20528 38.1038689,162.015192 33.9987288,167.281374 C34.1295278,167.249204 34.1976,167.2329 34.1976,167.2329 C34.1976,167.2329 29.8886,207.5299 10.6276,190.2949 C-3.1928,177.9298 26.95522,169.14166 33.123028,167.507683 Z M193.2513,183.2281 C193.2513,183.2281 226.0103,153.8001 229.0643,180.4521 C231.0933,198.1581 193.2513,183.2281 193.2513,183.2281 Z M172.9853,157.1321 C186.3063,147.5641 193.2513,183.2281 193.2513,183.2281 C193.2513,183.2281 153.2743,171.2901 172.9853,157.1321 Z M62.3294,149.492 C84.6324,153.8 50.1644,179.398 50.1644,179.398 C50.1644,179.398 45.4064,146.222 62.3294,149.492 Z M129.4447,166.5601 C129.4447,166.5601 109.3407,188.7801 104.4737,169.9461 C101.0057,156.5221 129.4447,166.5601 129.4447,166.5601 Z M147.0077,135.6641 C164.5727,141.1661 129.4447,166.5601 129.4447,166.5601 C129.4447,166.5601 129.4447,130.1631 147.0077,135.6641 Z M117.806,139.6851 L117.790108,139.716812 C117.27272,140.743933 104.20738,166.28924 91.143,153.0171 C77.811,139.4741 117.806,139.6851 117.806,139.6851 Z M239.8911,137.4216 C249.8851,158.7976 205.4661,147.4156 205.4661,147.4156 C205.4661,147.4156 229.8971,116.0446 239.8911,137.4216 Z M177.4271,121.8746 C189.5201,107.7996 205.4661,147.4156 205.4661,147.4156 C205.4661,147.4156 160.4921,141.5856 177.4271,121.8746 Z M131.9834,104.5569 C149.7594,107.7319 116.7484,137.5689 116.7484,137.5689 C116.7484,137.5689 111.0224,100.8149 131.9834,104.5569 Z M99.6068,109.6363 C99.6068,109.6363 97.9148,144.1293 79.9268,131.2213 C65.1568,120.6203 99.6068,109.6363 99.6068,109.6363 Z M256.2695,104.9396 C260.4345,133.8116 218.0355,109.5826 218.0355,109.5826 C218.0355,109.5826 251.4405,71.4586 256.2695,104.9396 Z M82.6781,88.687 C82.6781,88.687 78.5951,126.573 62.9981,114.503 C45.2231,100.749 82.6781,88.687 82.6781,88.687 Z M110.3998,74.9323 C130.0798,77.8943 99.6068,109.6363 99.6068,109.6363 C99.6068,109.6363 90.3008,71.9063 110.3998,74.9323 Z M190.7532,79.3997 C209.9702,67.5117 218.2962,108.4077 218.2962,108.4077 C218.2962,108.4077 163.8242,96.0557 190.7532,79.3997 Z M53.264,63.2935 C53.264,63.2935 54.534,108.3665 34.854,97.3625 C15.173,86.3585 53.264,63.2935 53.264,63.2935 Z M82.2552,87.6284 C82.2552,87.6284 61.1382,49.0124 80.3502,48.6914 C105.7442,48.2684 82.2552,87.6284 82.2552,87.6284 Z M25.5423,48.6919 C25.5423,48.6919 24.2723,97.9979 3.5343,79.7989 C-11.3397,66.7459 25.5423,48.6919 25.5423,48.6919 Z M197.4155,29.7071 C225.4545,10.8291 230.4525,64.6861 230.4525,64.6861 C230.4525,64.6861 177.9485,42.8131 197.4155,29.7071 Z M277.3695,47.196 C290.9725,71.904 231.2845,61.354 231.2845,61.354 C231.2845,61.354 263.7655,22.488 277.3695,47.196 Z M53.264,63.2935 C53.264,63.2935 30.943,22.0035 54.956,21.1825 C79.715,20.3355 53.264,63.2935 53.264,63.2935 Z M25.5423,48.6919 L25.4444552,48.594186 C23.3646057,46.5062569 -10.92083,11.5535 14.3273,1.2909 C40.3553,-9.2901 25.5423,48.6919 25.5423,48.6919 Z" id="Combined-Shape" fill="#2F6858"/>
                        <g id="Base" transform="translate(51.000000, 280.998600)">
                            <mask id="objectfloorplant-2-mask-2" fill="#fff">
                                <use xlink:href="#objectfloorplant-2-path-1"/>
                            </mask>
                            <use id="Mask" fill="#E58857" xlink:href="#objectfloorplant-2-path-1"/>
                            <path d="M21.8821454,166.976155 C29.6034071,169.861751 37.7851393,172.227187 46.3965987,173.959199 C48.3643527,174.355249 50.3545312,174.717943 52.3667804,175.046212 C53.3957809,175.213799 54.4297732,175.372547 55.4694793,175.522127 C59.4296778,176.092158 63.4734845,176.528949 67.5975009,176.822705 C68.7118205,176.902078 69.8290063,176.970747 70.9490324,177.028605 C72.021164,177.083699 73.0951927,177.129149 74.1717983,177.164614 C74.1844544,177.165321 74.1977965,177.165759 74.211139,177.166195 L75.3194863,177.198609 C93.442461,177.67526 112.290864,175.323008 131.756413,169.705029 C131.852891,169.677185 131.94976,169.65693 132.046382,169.643911 L132.190939,169.630068 C132.192275,169.629987 132.193611,169.629907 132.194947,169.629828 C133.107002,169.575292 133.968339,170.156487 134.232571,171.072013 C134.381,171.586301 134.313772,172.111711 134.084271,172.551545 C134.077118,172.565375 134.069549,172.57948 134.061813,172.593494 L133.990248,172.712992 C133.829049,172.962389 133.612155,173.176802 133.351,173.335519 C133.203123,173.425705 133.040412,173.497984 132.865498,173.548467 L131.919,173.8174 L131.650013,173.89506 L131.650013,173.89506 L130.435922,174.233946 C113.045819,179.027668 96.126901,181.270215 79.7621296,181.258842 C79.3775376,181.258275 78.9935929,181.256765 78.6099548,181.254017 C77.1739056,181.244018 75.7428113,181.216385 74.3160652,181.171611 C72.3478645,181.109564 70.3874765,181.015158 68.4355168,180.888648 L67.3132991,180.812595 L67.3132991,180.812595 L66.158,180.7254 L66.0719918,180.719501 C66.0409249,180.717068 66.0098625,180.714627 65.9788046,180.712178 C63.9456447,180.552126 61.9322948,180.357864 59.9384034,180.130766 L58.7258362,179.988055 C57.5158767,179.841597 56.3131638,179.683038 55.1177678,179.512635 L53.9249337,179.338587 C42.0196812,177.555892 30.8484653,174.5976 20.4817546,170.723345 C19.4470795,170.336665 18.9217753,169.18443 19.3084549,168.149755 L19.3688074,168.005452 L19.3688074,168.005452 L19.3085549,168.149455 C19.3822082,167.952374 19.4836367,167.773773 19.6067376,167.616436 L19.7029314,167.502763 C19.8483931,167.343168 20.0177535,167.209621 20.2031277,167.105717 C20.4003391,166.994839 20.6163336,166.917644 20.8409914,166.878558 L20.9869881,166.858968 C21.0360243,166.85413 21.0853662,166.8511 21.1349182,166.84992 C21.3827785,166.843722 21.6357941,166.884088 21.8821454,166.976155 Z M8.66604521,127.059905 L8.768,127.1094 L9.48978463,127.461357 C13.8996504,129.59426 18.5661762,131.569941 23.4784347,133.348357 L24.4024602,133.679789 C26.4318599,134.399758 28.5025662,135.086054 30.6138229,135.735904 C34.5502808,136.947275 38.6273522,138.032138 42.8404675,138.972366 C43.1693811,139.046048 43.4998449,139.118728 43.831139,139.190513 C48.7498124,140.256011 53.8514019,141.124717 59.1283533,141.768233 C60.8227695,141.974864 62.5242807,142.156626 64.23279,142.313126 L65.2588346,142.404292 C67.6675083,142.610323 70.0900075,142.766153 72.5260622,142.87069 C72.8597618,142.884713 73.1928535,142.898036 73.5261975,142.910399 L74.5671489,142.946153 C76.3032635,143.000039 78.0461825,143.02788 79.7958092,143.029282 L80.8462894,143.026648 C100.121654,142.92558 120.206302,139.616064 140.971358,132.57629 C141.170613,132.508738 141.373113,132.47439 141.572842,132.470277 L141.722126,132.473114 C142.167557,132.497456 142.591353,132.671102 142.925007,132.960236 L143.032693,133.060545 C143.241211,133.270131 143.406283,133.529376 143.50761,133.828258 L143.50771,133.828558 C143.862355,134.874646 143.30183,136.010165 142.255742,136.36481 C121.239574,143.489717 100.880085,146.871695 81.3194144,147.023951 L80.2721863,147.028721 C79.9233989,147.029383 79.574867,147.029018 79.2265914,147.027629 L78.1826346,147.020693 C73.3449311,146.97292 68.5569905,146.727546 63.8209918,146.292437 C63.4507925,146.258137 63.0800126,146.22288 62.7095528,146.186463 L61.6908655,146.083603 C60.6728877,145.977517 59.6573408,145.862663 58.6442467,145.739117 C56.8288368,145.517731 55.0335791,145.270293 53.258763,144.997888 C52.0635499,144.814163 50.8768517,144.619268 49.6995243,144.413368 C45.7721585,143.726781 41.9497806,142.917621 38.2349236,141.998349 C37.2486136,141.754004 36.2698882,141.502173 35.2988037,141.242811 L34.2989888,140.972655 C30.3971392,139.904012 26.6203411,138.713738 22.9726474,137.417023 C21.6487785,136.946145 20.3412943,136.461271 19.051026,135.96309 L18.1458247,135.61056 C14.2351935,134.072193 10.4851352,132.411627 6.90115479,130.649495 C5.90991667,130.162134 5.50144359,128.963493 5.98880462,127.972255 L6.049,127.8594 L6.06306707,127.834348 C6.4317463,127.210996 7.09710711,126.853278 7.78694692,126.853953 C8.08269255,126.854542 8.38283432,126.920659 8.66604521,127.059905 Z M6.4772319,89.1655667 C20.7964789,96.5464164 38.2288465,102.329849 58.3338627,104.879187 C85.7169638,108.351394 114.933234,105.327189 145.579437,94.1650688 C146.617307,93.7870501 147.765112,94.3219659 148.143131,95.3598366 C148.52115,96.3977073 147.986234,97.5455125 146.948363,97.9235312 C115.692487,109.30771 85.8345579,112.398334 57.8306873,108.847413 C37.2332985,106.235641 19.3590591,100.305611 4.6445681,92.7210333 C3.66275309,92.2149572 3.27709052,91.0087831 3.78316665,90.0269681 C4.28924278,89.0451531 5.49541688,88.6594905 6.4772319,89.1655667 Z M2.72307192,41.4769231 L2.87081084,41.4783038 C3.16614839,41.4918004 3.46303683,41.5712595 3.73974434,41.7230186 C4.06442535,41.9010885 4.3910409,42.0784012 4.71958453,42.2549325 C6.75363398,43.3479025 8.86118408,44.4106663 11.0410716,45.4377167 C16.3287349,47.9290011 22.0428417,50.2104707 28.1607494,52.1993806 C33.807286,54.0350226 39.7974903,55.6213886 46.1143838,56.8938109 C49.6230524,57.6006297 53.2332532,58.2106549 56.9413269,58.7126816 C59.7940463,59.098904 62.6664881,59.4145888 65.5582001,59.6578897 C65.851002,59.6824488 66.1433012,59.7062852 66.4357967,59.7293811 L67.3933255,59.8023682 C69.9477973,59.9896811 72.5171483,60.1205223 75.1010695,60.1936294 L76.0704223,60.2182358 C76.717312,60.2328993 77.3651099,60.2439446 78.0138112,60.2513519 L78.9878401,60.2598319 C79.3126419,60.2617141 79.6376689,60.2626843 79.9629205,60.2627402 L80.9390487,60.260062 C103.412369,60.1375548 126.95232,55.6497666 151.36052,45.9869198 C151.605048,45.8901148 151.857237,45.8448712 152.105065,45.845986 L152.253442,45.8522762 C152.668774,45.8851675 153.064757,46.0476549 153.383251,46.314576 C153.430468,46.3543275 153.475753,46.3959949 153.519165,46.4398541 C153.584291,46.5054491 153.644939,46.5758315 153.700787,46.6508324 C153.79811,46.7819329 153.880749,46.926558 153.94555,47.0837619 C153.94926,47.0921218 153.95295,47.1012498 153.95658,47.1104196 C154.363161,48.1374374 153.860198,49.299599 152.83318,49.7061802 C126.289635,60.2143789 100.708189,64.7247998 76.3613557,64.2255309 C74.1948249,64.1810138 72.0379899,64.0969164 69.891124,63.973843 L68.9190816,63.9154959 C68.6162097,63.8964472 68.3135373,63.8766228 68.0110651,63.8560244 C66.0193964,63.7203238 64.0357098,63.5510797 62.0608593,63.3488214 C61.4811124,63.2895117 60.9027316,63.2273556 60.3251146,63.1623743 C59.973966,63.1228061 59.6225003,63.0821889 59.2713187,63.0405273 L58.3145559,62.9244176 C57.6769846,62.8452213 57.0403552,62.7625818 56.4046731,62.6765184 C51.9890048,62.0786923 47.7080167,61.3311268 43.5662909,60.4515233 C40.7952505,59.8629854 38.0867746,59.2154393 35.4419984,58.5140986 C33.79234,58.0766632 32.1671732,57.6181912 30.5671313,57.1400693 C30.2279508,57.038706 29.89003,56.9365101 29.5532405,56.8334441 C29.0711306,56.685912 28.5918004,56.5367348 28.1147932,56.3858139 C27.0406344,56.0459604 25.9778058,55.6971171 24.9268731,55.3398338 C23.7155652,54.9280261 22.5197689,54.5049003 21.3399465,54.0711839 C14.798249,51.6663988 8.74775713,48.9360808 3.21601528,45.9871342 C2.75127112,45.7393213 2.28989323,45.4898632 1.83219803,45.2389235 C1.82723256,45.2362657 1.82159383,45.2331737 1.81595566,45.2300814 C0.847479379,44.6989247 0.49296184,43.4832319 1.02411857,42.5147557 C1.37822306,41.8691048 2.03656578,41.4963245 2.72307192,41.4769231 Z M-2.79290394,5.27216639 C12.5918456,13.8223797 31.9883852,20.7814444 54.8086353,23.9122182 C86.7780402,28.29819 121.035163,24.3930034 157.03695,9.95037597 C158.148905,9.50429916 159.407182,10.0561206 159.847389,11.1829037 C160.287596,12.3096867 159.743036,13.5847416 158.63108,14.0308184 C121.925791,28.7556657 86.9197245,32.7462292 54.2275983,28.2611052 C30.8450316,25.0531856 10.9505392,17.915466 -4.87547185,9.12001771 C-5.9240445,8.53726401 -6.30788188,7.20347793 -5.73279663,6.14092313 C-5.15771138,5.07836833 -3.84147659,4.68941268 -2.79290394,5.27216639 Z" id="Combined-Shape" fill="#F4F0F0" mask="url(#objectfloorplant-2-mask-2)"/>
                        </g>
                    </g>
                </g>
            </g>
        </g>
        <g id="Background/Sky" transform="translate(1002.000000, 212.000000) scale(1 1)">
            <g id="Background/Sky/Wiggles" stroke="none" stroke-width="1" fill="none" fill-rule="evenodd">
                <path d="M400.300742,340 C408.451281,340 415.145129,343.036375 421.129948,348.853725 C425.565231,353.164898 428.534061,357.408682 434.791372,367.545859 C440.88594,377.419384 443.750177,381.513671 447.892559,385.540179 C453.230182,390.728493 459.03514,393.361702 466.17722,393.361702 C467.183914,393.361702 468,394.176163 468,395.180851 C468,396.185539 467.183914,397 466.17722,397 C458.027092,397 451.333557,393.96372 445.348976,388.146545 C440.913868,383.8355 437.945134,379.591839 431.687957,369.454879 C425.593258,359.581141 422.728928,355.486736 418.586378,351.460105 C413.248518,346.27161 407.443244,343.638298 400.300742,343.638298 C393.158662,343.638298 387.353704,346.271507 382.016081,351.459821 C377.873699,355.486329 375.009462,359.580616 368.91535,369.453403 C362.657583,379.591318 359.688753,383.835102 355.25347,388.146275 C349.268651,393.963625 342.574804,397 334.424264,397 C326.275203,397 319.582558,393.963676 313.59881,388.146452 C309.164349,383.835399 306.196054,379.59174 299.939799,369.454777 C293.846001,359.581042 290.982093,355.486635 286.840162,351.460011 C281.503139,346.271565 275.698821,343.638298 268.557508,343.638298 C261.41632,343.638298 255.612077,346.271474 250.275083,351.459751 C246.133166,355.486253 243.269245,359.580542 237.175809,369.453326 C230.918733,379.591244 227.950232,383.835026 223.515435,388.146205 C217.53124,393.963591 210.83806,397 202.688321,397 C194.539667,397 187.847331,393.963768 181.863845,388.14672 C177.429553,383.835773 174.461231,379.592019 168.205367,369.455503 L168.204455,369.454026 C162.111369,359.581262 159.247345,355.486649 155.105412,351.460009 C149.768415,346.271568 143.964095,343.638298 136.82278,343.638298 C135.816086,343.638298 135,342.823837 135,341.819149 C135,340.814461 135.816086,340 136.82278,340 C144.972255,340 151.665216,343.036424 157.64918,348.853821 C162.083821,353.165023 165.052336,357.409023 171.308468,367.545974 C177.402203,377.419788 180.266042,381.514165 184.407638,385.540558 C189.74416,390.728638 195.54785,393.361702 202.688321,393.361702 C209.829931,393.361702 215.634489,390.728423 220.971721,385.539966 C225.113806,381.51334 227.97782,377.418933 234.071387,367.545936 C240.328329,357.408235 243.296733,353.164576 247.731356,348.853525 C253.715312,343.036313 260.40818,340 268.557508,340 C276.70698,340 283.399937,343.03642 289.383924,348.853819 C293.81856,353.164999 296.786951,357.408781 303.04334,367.545961 C309.137007,377.419483 312.000822,381.513772 316.142585,385.540272 C321.47937,390.728538 327.283373,393.361702 334.424264,393.361702 C341.566766,393.361702 347.37204,390.72839 352.709901,385.539895 C356.85245,381.513264 359.71678,377.418859 365.811023,367.545859 C372.068656,357.408161 375.03739,353.1645 379.472498,348.853455 C385.457079,343.03628 392.150614,340 400.300742,340 Z M265.301957,258 C273.4525,258 280.146351,261.036379 286.131147,266.853728 C290.566436,271.164922 293.53539,275.408924 299.792444,285.545872 L299.793355,285.547348 C305.88708,295.41969 308.75134,299.514064 312.893555,303.540464 C318.230915,308.728594 324.03556,311.361702 331.17722,311.361702 C332.183914,311.361702 333,312.176163 333,313.180851 C333,314.185539 332.183914,315 331.17722,315 C323.027499,315 316.334273,311.963812 310.349955,306.146814 C305.915015,301.835874 302.946254,297.592118 296.689468,287.455605 C290.594569,277.58136 287.730124,273.48675 283.587572,269.460102 C278.249736,264.271612 272.444462,261.638298 265.301957,261.638298 C258.159877,261.638298 252.354919,264.271507 247.017296,269.459821 C242.874914,273.486329 240.010677,277.580616 233.916565,287.453403 C227.658799,297.591318 224.689968,301.835102 220.254686,306.146275 C214.269866,311.963625 207.576019,315 199.42548,315 C191.276418,315 184.583773,311.963676 178.600025,306.146452 C174.165564,301.835399 171.19727,297.59174 164.941014,287.454777 C158.847216,277.581042 155.983308,273.486635 151.841377,269.460011 C146.504355,264.271565 140.700036,261.638298 133.558723,261.638298 C126.417535,261.638298 120.613293,264.271474 115.276298,269.459751 C111.134381,273.486253 108.27046,277.580542 102.177024,287.453326 C95.9199481,297.591244 92.9514476,301.835026 88.51665,306.146205 C82.5324551,311.963591 75.839275,315 67.6895363,315 C59.5404749,315 52.8478299,311.963676 46.8640819,306.146452 C42.4296208,301.835399 39.4613264,297.59174 33.2050709,287.454777 L33.2046152,287.454039 C27.1112728,277.581042 24.2473646,273.486635 20.1054337,269.460011 C14.7684113,264.271565 8.96409248,261.638298 1.82277982,261.638298 C0.816086324,261.638298 4.54747351e-13,260.823837 4.54747351e-13,259.819149 C4.54747351e-13,258.814461 0.816086324,258 1.82277982,258 C9.97225171,258 16.6652093,261.03642 22.6491961,266.853819 C27.083832,271.164999 30.0522226,275.408781 36.3086123,285.545961 C42.4022787,295.419483 45.2660944,299.513772 49.4078572,303.540272 C54.7446418,308.728538 60.5486454,311.361702 67.6895363,311.361702 C74.8311463,311.361702 80.6357038,308.728423 85.9729357,303.539966 C90.1150213,299.51334 92.9790348,295.418933 99.0726026,285.545936 C105.329544,275.408235 108.297948,271.164576 112.732571,266.853525 C118.716527,261.036313 125.409395,258 133.558723,258 C141.708195,258 148.401153,261.03642 154.385139,266.853819 C158.819775,271.164999 161.788166,275.408781 168.044556,285.545961 C174.138222,295.419483 177.002038,299.513772 181.1438,303.540272 C186.480585,308.728538 192.284589,311.361702 199.42548,311.361702 C206.567982,311.361702 212.373255,308.72839 217.711116,303.539895 C221.853665,299.513264 224.717995,295.418859 230.812239,285.545859 C237.069871,275.408161 240.038605,271.1645 244.473713,266.853455 C250.458294,261.03628 257.151829,258 265.301957,258 Z" id="Wiggles" fill="#CDB1AA"/>
            </g>
        </g>
        <g transform="translate(571.000000, 410.000000) scale(1 1)" id="Master/Character/Sitting">
            <defs>
                <path d="M275.684414,0.876652922 C298.838059,1.54914435 329.906472,9.13626937 355.7471,15.2297529 L355.731944,15.2730262 C397.943463,24.6870841 452.971125,41.5664426 466.9347,60.6071529 C489.4187,91.2671529 484.8307,126.127153 444.6317,165.644153 C415.2977,194.481153 386.9717,210.585153 372.4107,216.074153 C363.858947,207.086013 354.27259,195.452866 345.166172,184.184251 L345.5431,187.063753 C345.8052,205.151453 195.8084,217.517053 146.0664,197.369053 L149.907924,169.277823 C138.376043,183.58138 125.055547,200.37944 113.5941,212.425753 C99.0331,206.935753 70.7081,190.832753 41.3741,161.994753 C1.1741,122.477753 -11.4139,87.6187529 11.0701,56.9587529 C23.1971,40.4207529 69.0261,26.2177529 108.6751,16.6397529 C108.048715,16.8278037 108.709162,16.7365391 110.005927,16.5033439 C127.558487,12.2104677 191.200137,-1.57717031 275.684414,0.876652922 Z M162.310363,78.5613735 L87.8171,104.583753 C87.8171,104.583753 122.608609,134.324697 151.917069,154.584908 L162.310363,78.5613735 Z M332.466363,87.1363735 L341.108096,153.169863 C367.388419,133.830342 393.927617,109.395078 395.144211,108.27232 L395.1877,108.232153 L332.466363,87.1363735 Z" id="mastercharactersitting-path-1"/>
            </defs>
            <g id="Master/Character/Sitting" stroke="none" stroke-width="1" fill="none" fill-rule="evenodd">
                <g id="Bottom/Sitting" transform="translate(15.000000, 331.000000) scale(1 1)">
                    <g id="Bottom/Sitting/Crossed" stroke="none" stroke-width="1" fill="none" fill-rule="evenodd">
                        <g id="Legs" transform="translate(246.000000, 109.000000)">
                            <path d="M75.5,14 L173,14 C174.104569,14 175,14.8954305 175,16 L175,161 C175,162.104569 174.104569,163 173,163 L75.5,163 C34.3547861,163 1,129.645214 1,88.5 C1,47.3547861 34.3547861,14 75.5,14 Z" id="Rectangle" fill="#010101"/>
                            <path d="M457.0754,373.4699 L349.2674,140.0609 C349.2674,116.8949 348.3064,104.4119 332.0364,90.2519 C312.8824,73.5799 232.9984,34.7589 211.8254,25.7489 C190.5404,16.6909 191.473654,1.0009 191.473654,1.0009 L23.6584,1.0009 C23.6584,1.0009 -73.0828187,163.32922 128.262581,163.32922 L215.1884,164.3289 L118.9084,355.6939 L220.4684,414.9369 L293.4544,257.9889 L336.2994,396.5969 L457.0754,373.4699 Z" id="Pants" fill="#010101"/>
                            <g id="Shoes" transform="translate(101.937905, 358.461700)">
                                <g id="Shoe-2" transform="translate(243.697495, 10.099725)">
                                    <path d="M13.003,73.5388746 L0,25.8578746 L100.484,6.80087455 L105.67,20.6968746 C108.867,29.2658746 116.969,35.0778746 126.113,35.2038746 C139.919,35.3938746 158.631,37.9318746 160.256,50.1138746 L25.186,80.8478746 C19.822,82.0678746 14.45,78.8448746 13.003,73.5388746" id="Fill-3" fill="#F3705A"/>
                                    <path d="M130.037179,27.0360105 C134.346143,26.9423929 137.005403,22.2954537 134.903908,18.5325084 C133.202681,15.4874923 129.19313,14.6633871 126.428547,16.7904476 L112.616869,27.4130477 L130.037179,27.0360105 Z M108.981253,27.6861015 L125.209107,15.2052141 C128.940955,12.3339428 134.353294,13.4463705 136.649975,17.5571878 C139.486665,22.636576 135.897107,28.9091682 130.080538,29.0355404 L109.612538,29.4785404 C108.646919,29.4994398 108.215653,28.2749264 108.981253,27.6861015 Z M118.717795,10.3078678 C120.671095,6.46595059 117.831762,1.92602561 113.522767,2.00092024 C110.034597,2.06220581 107.414341,5.20552846 107.98761,8.67928742 L110.191468,25.3852665 L118.717795,10.3078678 Z M108.59949,28.6095617 L106.00957,8.97304909 C105.242148,4.32715808 108.779259,0.0839528628 113.487822,0.00122556622 C119.304678,-0.0998772189 123.137286,6.02823497 120.47968,11.2532788 L110.46138,28.9709788 C109.988934,29.8065148 108.725026,29.5611739 108.59949,28.6095617 Z" id="Combined-Shape" fill="#B9B3B8"/>
                                </g>
                                <g id="Shoe-1">
                                    <path d="M22.249395,-8.52651283e-14 L107.839395,50.11 L102.704395,64.024 C99.537395,72.604 101.886395,82.294 108.734395,88.356 C119.074395,97.506 131.600395,111.638 124.884395,121.93 L5.46439497,58.108 C0.603394972,55.534 -1.36560503,49.587 0.999394972,44.621 L22.249395,-8.52651283e-14 Z" id="Fill-10" fill="#F3705A"/>
                                    <path d="M120.129739,68.9868288 C124.395554,68.3689154 126.468859,63.4334634 123.924124,59.9550914 C121.863331,57.1392705 117.783953,56.8094112 115.309433,59.247337 L103.531206,71.2017837 L120.129739,68.9868288 Z M125.538171,58.7740527 C128.973374,63.4695953 126.174564,70.132095 120.405369,70.9677132 L111.90715,72.1017675 L121.096141,72.6079217 C125.797636,72.8675839 129.172715,77.2405408 128.231824,81.8542362 C127.069126,87.5551348 120.256077,89.9675736 115.765212,86.2682682 L99.9632124,73.2522682 C99.2757649,72.6860224 99.6235099,71.6135319 100.438014,71.491593 L113.895253,57.8331678 C117.249827,54.5279928 122.756518,54.9732649 125.538171,58.7740527 Z M103.587601,73.6465363 L117.036799,84.7245496 C120.363708,87.4650581 125.410811,85.6779247 126.272163,81.4545786 C126.96917,78.0367743 124.468879,74.797245 120.985996,74.6048864 L103.587601,73.6465363 Z" id="Combined-Shape" fill="#B9B3B8"/>
                                </g>
                            </g>
                            <path d="M150.0579,0.0009 C150.361952,0.0009 150.649488,0.139232223 150.839246,0.376801658 C150.986043,0.560586298 151.229959,0.891412194 151.5386,1.35297095 C152.047339,2.1137667 152.554983,2.97181091 153.02891,3.91134482 C155.10121,8.01955972 155.889058,12.2722405 154.598975,16.3020346 C154.518389,16.5537581 154.429762,16.803416 154.333002,17.0509272 C167.694369,16.7435015 181.881896,16.2081202 196.917076,15.4233594 C197.46861,15.3945721 197.939053,15.818342 197.969225,16.369876 C197.996628,16.92141 197.572858,17.3918533 197.021324,17.4206406 C192.708004,17.6457742 188.464188,17.8504147 184.289301,18.0350498 C184.36813,18.1495871 184.451953,18.2698219 184.539855,18.3931285 C185.293054,19.449701 186.182943,20.507246 187.201495,21.4919638 C190.207402,24.39802 193.66855,26.0651334 197.543092,25.9099047 C200.81737,25.7784737 203.685106,25.4672815 206.14682,25.0317357 C207.307574,24.8263661 208.298696,24.6071299 209.120308,24.3890015 C209.603308,24.2607707 209.916971,24.1636003 210.061398,24.1124568 C210.582005,23.928103 211.153489,24.2006904 211.337843,24.7212978 C211.522197,25.2419053 211.24961,25.8133893 210.729002,25.9977432 C210.53408,26.0667675 210.168923,26.1798906 209.633506,26.3220373 C208.757759,26.554538 207.711679,26.7859309 206.495264,27.0011485 C203.945205,27.452325 200.987865,27.7732406 197.623232,27.9082984 C193.13112,28.0882693 189.177034,26.1837251 185.811365,22.9298579 C184.699029,21.854471 183.731586,20.7047609 182.911299,19.5540783 C182.484594,18.9555053 182.173362,18.466645 181.980117,18.1340795 C171.949347,18.563927 162.320589,18.8760401 153.085862,19.0786597 C152.974166,19.1248471 152.852431,19.1505737 152.726935,19.1528374 C152.65229,19.1541837 152.65229,19.1541837 152.299732,19.1602065 C151.951955,19.1660592 151.548511,19.1725797 151.094001,19.179601 C149.795632,19.1996584 148.348225,19.2197145 146.788576,19.2384331 C144.059284,19.2711894 141.328644,19.2959122 138.66372,19.3101652 C138.052144,19.316378 137.441317,19.3219781 136.83237,19.3270695 L136.835481,19.3022641 C136.029046,31.122948 144.037987,41.7805349 155.654435,44.3966178 C184.191351,50.8211903 215.233099,58.4860907 243.406083,66.5731409 C284.433489,78.3500508 311.753936,88.886615 320.317035,97.5752588 C332.87589,110.318286 341.170072,120.939515 346.022004,129.549904 C347.734519,132.588987 348.893162,135.165889 349.599931,137.294145 C350.035757,138.606526 350.223267,139.496449 350.264183,139.976227 C350.311112,140.526515 349.90306,141.010654 349.352773,141.057583 C348.802485,141.104512 348.318346,140.69646 348.271417,140.146173 C348.266397,140.087315 348.242473,139.926221 348.186602,139.661055 C348.087414,139.190312 347.930186,138.612031 347.701857,137.924473 C347.036828,135.921909 345.930799,133.462023 344.279596,130.531746 C339.520903,122.086822 331.33421,111.603239 318.892566,98.9791424 C310.684722,90.6509613 283.460636,80.1515601 242.854267,68.4955091 C214.725111,60.4210397 183.717539,52.7645778 155.215097,46.3477669 C142.696585,43.5285345 134.045417,32.0793773 134.828767,19.3411542 C119.758171,19.4410671 105.852577,19.2258541 93.0693437,18.7321663 C93.0584454,19.467346 93.0049126,20.3835987 92.8854732,21.427307 C92.6485699,23.4974621 92.2026316,25.5515543 91.4939644,27.4813411 C89.8804882,31.875033 87.121618,35.0660067 82.9813006,36.4463924 C71.838999,40.1601382 60.59179,39.1283183 50.1826208,35.1667242 C48.1432409,34.3905628 46.3061792,33.5584011 44.6995687,32.724931 C44.1941144,32.4627137 43.7434168,32.2166974 43.3500103,31.9917688 C41.5263951,40.7633809 40.4277904,49.3709565 40.3088921,57.4636904 C40.0408513,75.707712 44.8529583,89.2099298 55.8434174,96.4276234 C65.7940683,102.962183 80.6455681,108.105675 100.719754,112.395213 C116.622339,115.793345 133.723895,118.360484 161.22639,121.800602 C163.326159,122.06325 165.501912,122.333468 168.233381,122.67126 C169.325357,122.806301 173.992977,123.382739 175.220735,123.5346 C206.510387,127.404791 221.955935,129.649154 237.133665,132.921157 C256.851827,137.171984 269.998145,142.315348 277.00097,149.168838 C285.619539,157.604189 295.932039,178.007565 307.661559,208.466526 C314.246331,225.565718 321.159501,245.540639 328.291357,267.815362 C336.869544,294.607371 345.321492,323.310289 353.281289,352.012825 C356.067139,362.058427 358.592526,371.386596 360.811661,379.758302 C361.588427,382.68866 362.271452,385.290242 362.855011,387.533167 C363.0593,388.318356 363.236574,389.002674 363.38612,389.582384 C363.475908,389.930445 363.536534,390.166427 363.567285,390.286596 C363.704198,390.821641 363.381449,391.366371 362.846404,391.503285 C362.311359,391.640198 361.766629,391.317449 361.629715,390.782404 C361.599284,390.663482 361.53898,390.428756 361.449519,390.081961 C361.300316,389.503578 361.123388,388.820598 360.91945,388.036757 C360.336647,385.79674 359.654397,383.198109 358.878427,380.270755 C356.661173,371.906144 354.137762,362.585273 351.354026,352.547294 C343.400722,323.868169 334.955892,295.189426 326.386606,268.425219 C319.265627,246.184468 312.364567,226.244535 305.795166,209.18526 C294.171552,179.001312 283.940787,158.759649 275.602055,150.598186 C268.946602,144.08466 256.084602,139.052532 236.712189,134.876242 C221.613158,131.621205 206.204251,129.382167 174.975228,125.519474 C173.747713,125.367644 169.080122,124.791209 167.987918,124.65614 C165.255603,124.318244 163.078989,124.047918 160.978157,123.785138 C133.421749,120.338275 116.276215,117.764535 100.301821,114.351058 C80.0061126,110.014185 64.9475698,104.798988 54.7455669,98.0993663 C43.0716637,90.4328388 38.0320473,76.2922562 38.3091079,57.4343096 C38.5044973,44.135256 41.2901542,29.5356788 45.5842172,15.0844478 C44.7225467,14.9775489 43.870478,14.8686642 43.0267358,14.7580112 C35.3789133,13.7550335 29.0729303,12.6795929 24.0243621,11.6029784 C22.2523896,11.2251026 20.7631368,10.8736678 19.5460544,10.5575831 C19.1176669,10.4463279 18.7533685,10.3472516 18.4518409,10.2614678 C18.2677748,10.2091016 18.1438443,10.1722553 18.078731,10.1520425 C17.5512756,9.98830717 17.2564222,9.4279864 17.4201575,8.90053101 C17.5838928,8.37307561 18.1442136,8.07822222 18.671669,8.24195752 C18.7215569,8.25744398 18.8302667,8.28976493 18.9991183,8.33780273 C19.2857866,8.4193591 19.6352375,8.51439738 20.0487906,8.62179996 C21.2372528,8.93045178 22.6979663,9.27515191 24.4414859,9.64696001 C29.437181,10.7122993 35.690816,11.7788124 43.2867999,12.7749916 C44.2485053,12.9011149 45.2211106,13.0249341 46.2046597,13.1464117 C46.4378113,12.7702276 46.9025909,12.5827642 47.3456872,12.7181389 C47.6692722,12.8170005 47.9062238,13.0651 48.0041371,13.3639242 C66.5093984,15.5669178 88.7991342,16.9545144 115.15348,17.2877063 L115.1549,1.0009 C115.1549,0.44861525 115.602615,0.0009 116.1549,0.0009 L150.0579,0.0009 Z M215.29236,163.334687 L254.353425,167.405694 C261.325916,168.132834 267.210771,172.912225 269.351898,179.586817 L294.406898,257.683817 C294.575611,258.209701 294.286067,258.772784 293.760183,258.941498 C293.234299,259.110211 292.671216,258.820667 292.502502,258.294783 L267.447494,180.197756 C265.548656,174.27846 260.329572,170.039775 254.14604,169.394913 L238.679933,167.7829 L140.230785,367.20697 C139.986305,367.702195 139.386656,367.905464 138.89143,367.660985 C138.396205,367.416505 138.192936,366.816856 138.437415,366.32163 L236.558933,167.5619 L215.08504,165.323913 C214.53573,165.266663 214.136837,164.774949 214.194087,164.22564 C214.251337,163.67633 214.743051,163.277437 215.29236,163.334687 Z M47.5973967,15.3302504 L47.3576831,16.1397468 C46.0018382,20.7406875 44.8018605,25.3544895 43.793408,29.9315607 C43.8795717,29.9848661 44.0207297,30.0696083 44.215911,30.1825837 C44.614216,30.4131319 45.083649,30.6710708 45.6205625,30.9496083 C47.1614688,31.7489927 48.9290604,32.5496855 50.8940149,33.2975216 C60.9070348,37.1083465 71.6995479,38.0984525 82.3488145,34.5490359 C85.8411961,33.3846727 88.1954823,30.6616503 89.6165512,26.7919069 C90.2654123,25.0249793 90.6784157,23.1225928 90.8984419,21.1999161 C90.9794355,20.4921623 91.0293761,19.8208093 91.0540831,19.2001231 C91.0621193,18.998238 91.0670573,18.814457 91.0695535,18.6503483 C74.7485069,17.9786286 60.2883922,16.8457918 47.5973967,15.3302504 Z M149.556549,2.0009 L117.1549,2.0009 L117.1549,16.9789285 C120.276958,17.2149418 125.982807,17.3223843 133.523144,17.3240105 C135.203055,17.3243614 136.931,17.3194605 138.687611,17.3100076 C143.071879,17.2661565 147.551306,17.1960688 152.128441,17.0989386 L152.099521,17.1632727 C152.336443,16.6824702 152.534203,16.1920324 152.694202,15.6922479 C153.796675,12.2484863 153.10149,8.49598505 151.24323,4.81209242 C150.807958,3.94919083 150.341459,3.16069189 149.876056,2.46470297 C149.756409,2.28577641 149.649021,2.13069782 149.556549,2.0009 Z" id="Pants-details" fill="#B9B3B8"/>
                        </g>
                    </g>
                </g>
                <g id="Head" transform="translate(247.000000, 64.000000) scale(1 1)">
                    <g id="Head/Curly" stroke="none" stroke-width="1" fill="none" fill-rule="evenodd">
                        <g id="Curly" transform="translate(26.000000, 1.000000)">
                            <path d="M84.2285,49.5538 C52.6745,49.5538 27.0955,72.3128 27.0955,100.3878 C27.0955,106.1358 28.1835,111.6538 30.1595,116.8058 C29.9655,116.7998 29.7745,116.7818 29.5785,116.7818 C21.2635,116.7818 14.5225,122.3268 14.5225,129.1678 C14.5225,136.0078 21.2635,141.5528 29.5785,141.5528 C34.1745,141.5528 38.2845,139.8548 41.0445,137.1828 C42.0405,136.2178 43.5815,136.1158 44.6355,137.0168 C52.3555,143.6268 62.1525,148.3288 73.0765,150.2538 C74.4805,150.5008 75.4725,151.7648 75.3905,153.1888 L73.8305,181 L100.2695,181 L99.0455,159.0518 C98.7475,153.8638 101.7855,149.0058 106.6425,147.1598 C127.0555,139.4068 141.3615,121.3838 141.3615,100.3878 C141.3615,72.3128 115.7825,49.5538 84.2285,49.5538 Z" id="Skin" fill="#583318"/>
                            <path d="M41.0441,137.1827 C42.0401,136.2177 43.5821,136.1157 44.6351,137.0167 C51.8671,143.2087 60.9221,147.7267 71.0191,149.8547 C68.7001,151.9147 65.3131,152.9777 61.7381,152.4467 C58.7421,152.0017 56.1901,150.5257 54.4891,148.5027 C51.8371,151.0297 47.3781,152.3387 42.5871,151.6267 C36.0461,150.6547 31.1881,146.2637 31.0331,141.4857 C35.0361,141.1687 38.5801,139.5697 41.0441,137.1827 Z M57.3495,0.0003 C74.9785,0.0003 89.4865,12.3913 91.3345,28.3043 C96.5955,18.0523 106.5175,11.1353 117.9005,11.1353 C134.7825,11.1353 148.4675,26.3383 148.4675,45.0933 C148.4675,63.8463 134.7825,79.0503 117.9005,79.0503 C110.8015,79.0503 103.6295,73.0483 98.4405,68.5373 C95.1465,76.8193 85.3715,83.8823 72.2615,84.9713 C62.7395,85.7633 54.3855,80.1503 49.4275,77.1183 C49.6495,78.4183 49.7765,79.7543 49.7765,81.1253 C49.7765,92.7173 48.5555,101.2603 35.0925,106.7093 C36.0715,109.0003 36.6325,111.5393 36.6325,114.2253 C36.6325,124.1853 29.1255,132.2603 19.8655,132.2603 C10.6055,132.2603 3.0985,124.1853 3.0985,114.2253 C3.0985,105.9713 8.2585,99.0293 15.2955,96.8863 C-2.2385,90.1263 -5.4935,65.5443 9.6895,54.4313 C16.4695,49.4683 24.6765,49.0343 32.5855,51.0443 C23.3075,39.3053 21.0005,22.8213 31.4755,10.9713 C37.8435,3.7683 47.8435,0.0003 57.3495,0.0003 Z" id="Hair" fill="#B9B3B8"/>
                        </g>
                    </g>
                </g>
                <g id="Face" transform="translate(321.000000, 155.000000) scale(1 1)">
                    <g id="Face/Mask" stroke="none" stroke-width="1" fill="none" fill-rule="evenodd">
                        <g id="Mask" transform="translate(7.000000, 13.000000)">
                            <path d="M64.4514982,12.9442276 C66.8304774,13.0037758 68.8072848,11.1230555 68.8668209,8.74397338 C68.9257781,6.36505114 67.0449598,4.38832302 64.6663018,4.32937237 L48.6248306,3.93036062 C46.2464479,3.87082737 44.2699223,5.75127061 44.2109611,8.13035083 C44.1514264,10.5093813 46.0316564,12.4856829 48.4104982,12.5452276 L64.4514982,12.9442276 Z" id="Path-Copy-2" fill="#F4F0F0"/>
                            <path d="M64.4514982,12.9442276 C66.8304774,13.0037758 68.8072848,11.1230555 68.8668209,8.74397338 C68.9257781,6.36505114 67.0449598,4.38832302 64.6663018,4.32937237 L48.6248306,3.93036062 C46.2464479,3.87082737 44.2699223,5.75127061 44.2109611,8.13035083 C44.1514264,10.5093813 46.0316564,12.4856829 48.4104982,12.5452276 L64.4514982,12.9442276 Z M64.3769,15.9433 L48.3359,15.5443 C44.3009,15.4433 41.1109,12.0913 41.2119,8.0553 C41.3119,4.0203 44.6649,0.8303 48.6999,0.9313 L64.7409,1.3303 C68.7759,1.4303 71.9659,4.7833 71.8659,8.8183 C71.7649,12.8543 68.4119,16.0443 64.3769,15.9433 Z" id="Stroke-1" fill="#010101"/>
                            <path d="M64.7407,1.33 L58.0287,1.797 L56.7347,15.652 L64.3767,15.943 C68.4127,16.044 71.7647,12.854 71.8657,8.819 C71.9657,4.783 68.7757,1.431 64.7407,1.33" id="Fill-3" fill="#010101"/>
                            <path d="M32.7981919,9.39431403 C32.9833291,7.02172862 31.2103431,4.94829214 28.8375793,4.76259754 L12.840714,3.51360805 C10.4681286,3.32847092 8.39469214,5.10145692 8.20900805,7.47408597 C8.02390745,9.84620331 9.79726913,11.9196836 12.1698066,12.104817 L28.1666256,13.3548028 C30.5394043,13.5398792 32.6131105,11.766775 32.7981919,9.39431403 Z" id="Path-Copy" fill="#F4F0F0"/>
                            <path d="M32.7981919,9.39431403 C32.9833291,7.02172862 31.2103431,4.94829214 28.8375793,4.76259754 L12.840714,3.51360805 C10.4681286,3.32847092 8.39469214,5.10145692 8.20900805,7.47408597 C8.02390745,9.84620331 9.79726913,11.9196836 12.1698066,12.104817 L28.1666256,13.3548028 C30.5394043,13.5398792 32.6131105,11.766775 32.7981919,9.39431403 Z M27.9331,16.3457 L11.9361,15.0957 C7.9121,14.7817 4.9041,11.2647 5.2181,7.2407 C5.5331,3.2157 9.0501,0.2087 13.0741,0.5227 L29.0711,1.7717 C33.0961,2.0867 36.1031,5.6037 35.7891,9.6277 C35.4751,13.6527 31.9571,16.6597 27.9331,16.3457 Z" id="Stroke-5" fill="#010101"/>
                            <path d="M29.0713,1.7719 L21.1843,1.1559 L19.0813,16.0999 L27.9333,16.3459 C31.9573,16.6599 35.4743,13.6519 35.7893,9.6279 C36.1033,5.6039 33.0953,2.0859 29.0713,1.7719" id="Fill-7" fill="#010101"/>
                            <path d="M2.4792,38.1357 C-0.2228,36.0217 -0.7948,32.1657 1.1522,29.3407 C6.4402,21.6687 18.6522,8.2717 38.7472,9.7917 C58.7702,11.3057 69.5222,23.4157 74.0182,30.1817 C75.7502,32.7867 75.3962,36.2607 73.1362,38.4237 C64.0802,47.0837 37.9472,65.8907 2.4792,38.1357" id="Fill-9" fill="#B9B3B8"/>
                        </g>
                    </g>
                </g>
                <g id="Body" transform="translate(64.000000, 26.000000) scale(1 1)">
                    <defs>
                        <path d="M182.678662,-0.00403297353 C187.885095,0.54922035 193.335091,1.19850653 199.0802,1.93035429 C265.7362,10.4223543 308.0932,44.7363543 308.0932,44.7363543 C294.5282,93.7983543 262.0602,123.935354 262.0602,123.935354 L262.0602,123.935354 L268.1052,196.478354 C125.8982,234.765354 31.4772,189.282354 31.4772,189.282354 L31.4772,189.282354 L57.6732,133.435354 C27.4472,127.102354 0.6572,94.6133543 0.6572,94.6133543 C0.6572,94.6133543 19.5502,38.3743543 62.7122,18.6683543 C80.5156351,10.5398732 95.5122647,5.1472849 109.991414,1.89235379 C111.745044,2.8101392 128.308854,11.1515572 148.8249,10.2895543 C168.8719,9.44655429 183.5049,0.106554294 183.5049,0.106554294 L183.5049,0.106554294 Z" id="bodyselfie-path-1"/>
                        <path d="M58.5617694,133.89449 C58.308306,134.385178 57.7050521,134.577487 57.2143641,134.324024 C56.723676,134.07056 56.5313673,133.467306 56.7848306,132.976618 L72.1438306,103.242618 C72.397294,102.75193 73.0005479,102.559622 73.4912359,102.813085 C73.981924,103.066548 74.1742327,103.669802 73.9207694,104.16049 L58.5617694,133.89449 Z" id="bodyselfie-path-3"/>
                    </defs>
                    <g id="Body/Selfie" stroke="none" stroke-width="1" fill="none" fill-rule="evenodd">
                        <g id="Body" transform="translate(57.000000, 44.000000)">
                            <path d="M54.2514,101.2774 C54.2514,101.2774 64.0404,92.2774 67.6924,95.9294 C71.3304,99.5684 68.0624,107.8224 65.6984,110.3174 C65.6984,110.3174 77.7274,102.9314 78.2774,110.5954 C78.5664,114.6274 75.3974,120.3864 70.5014,127.5864 C70.5014,127.5864 80.8584,119.6094 82.7924,124.1344 C84.9814,129.2604 84.3244,134.2104 73.3814,151.2014 C68.4131316,158.915541 64.0391307,165.16844 60.7438864,169.696842 L90.0281,288.4943 L125.6611,227.6563 L172.1381,309.7793 L141.6801,366.1283 C135.3041,379.4373 115.1041,407.5293 103.7211,416.9213 C87.6831,430.1523 65.6791,439.8073 50.3051,412.8303 C23.4001,365.6203 10.2011,209.2663 10.2011,209.2663 C-1.12462,184.64673 0.0099987,140.442326 0.048111358,122.059484 L0.0481,120.4293 C0.0466695111,119.87171 0.298679605,119.308883 0.765975871,118.744768 C4.341375,106.912577 25.0194263,95.1650236 46.3994,86.7614 C73.8174,75.9874 54.2514,101.2774 54.2514,101.2774 Z M532.9083,16.1718 C532.9083,16.1718 538.1263,60.1778 537.9103,66.2198 C537.9103,66.2198 543.0893,58.2368 550.6413,58.6678 C558.1933,59.0998 560.7823,74.6348 560.7823,74.6348 C560.7823,74.6348 572.2183,75.4978 575.2393,93.4078 C575.2393,93.4078 583.6383,100.4878 572.7823,125.1588 C565.6613,141.3428 558.4083,147.7838 558.4083,147.7838 C558.4083,147.7838 542.3053,326.8628 518.2603,352.4428 C501.9573,369.7858 452.0993,376.1218 362.0603,298.8718 L385.9913,230.3188 L397.1533,213.8038 C397.1533,213.8038 437.8553,233.3788 464.6493,258.9368 L491.7903,138.3348 C491.7903,138.3348 466.5783,103.8768 476.4133,89.7398 C483.3183,79.8138 491.3583,80.5558 491.3583,80.5558 C491.3583,80.5558 481.3763,14.8658 487.2023,8.6078 C493.0283,2.3498 502.3753,18.5208 502.3753,18.5208 C502.3753,18.5208 512.420065,39.8853644 515.775819,65.3898422 L515.824991,65.7784984 L515.799562,65.5256627 C514.391824,51.8389804 511.21398,12.94456 519.3533,3.2128 C529.2783,-8.6552 532.9083,16.1718 532.9083,16.1718 Z M283.5049,175.0431 C283.5049,175.0431 268.8719,184.3831 248.8249,185.2261 C227.1189,186.1381 209.8369,176.7481 209.8369,176.7481 C209.8369,176.7481 236.9449,168.6831 283.5049,175.0431 Z" id="Skin" fill="#583318"/>
                            <path d="M90.8701697,287.9553 C91.0947415,288.306334 91.4555604,289.015589 91.905619,290.141821 C92.637347,291.972908 93.3645016,294.338955 94.0402246,297.29929 C95.9563707,305.693902 97.1028,317.177349 97.1028,332.2272 C97.1028,332.779485 96.6550847,333.2272 96.1028,333.2272 C95.5505153,333.2272 95.1028,332.779485 95.1028,332.2272 C95.1028,317.319676 93.9711043,305.98381 92.0903754,297.74436 C91.4371922,294.882773 90.7405186,292.615906 90.0484185,290.883985 C89.8103101,290.288139 89.5913511,289.803494 89.397542,289.422528 C89.2877081,289.20663 89.2150126,289.079341 89.1854303,289.0331 C88.887804,288.567872 89.0236719,287.949457 89.4888999,287.65183 C89.9541278,287.354204 90.5725433,287.490072 90.8701697,287.9553 Z M465.952594,257.960909 L469.965594,275.603909 C470.088086,276.142439 469.75082,276.678303 469.212291,276.800794 C468.673761,276.923286 468.137897,276.58602 468.015406,276.047491 L464.002406,258.404491 C463.879914,257.865961 464.21718,257.330097 464.755709,257.207606 C465.294239,257.085114 465.830103,257.42238 465.952594,257.960909 Z M71.2300871,126.901153 C71.6083175,127.303596 71.5886895,127.936457 71.1862468,128.314687 C71.1310998,128.366516 71.1310998,128.366516 70.8673963,128.614893 C70.6070221,128.860277 70.3049337,129.145404 69.9646091,129.467143 C68.9920614,130.386576 67.9082868,131.414862 66.7411143,132.526927 C63.4065394,135.704061 60.0720603,138.915645 56.9605461,141.960831 C56.650671,142.264101 56.3442513,142.564513 56.0414303,142.861939 C50.204603,148.594775 45.9819585,152.94243 44.0272772,155.307984 C43.6754808,155.733727 43.04516,155.793674 42.6194163,155.441877 C42.1936725,155.090081 42.1337264,154.45976 42.4855228,154.034016 C44.5005975,151.595374 48.7510792,147.219058 54.6399847,141.435072 C54.9436638,141.136803 55.2509328,140.835558 55.5616496,140.531465 C58.6802676,137.479327 62.0209302,134.261786 65.3614969,131.078943 C66.5306239,129.965016 67.6162704,128.934954 68.590639,128.0138 C68.931735,127.691332 69.2345814,127.405489 69.4957026,127.159402 C69.7604479,126.910043 69.7604479,126.910043 69.8165532,126.857313 C70.218996,126.479082 70.8518567,126.49871 71.2300871,126.901153 Z M66.4624584,109.67249 C66.8186324,110.094578 66.7651984,110.725484 66.3431102,111.081658 C66.2863452,111.129559 66.2863452,111.129559 66.0164877,111.357336 C65.6471873,111.669088 65.6471873,111.669088 65.0932087,112.136861 C64.0988683,112.976534 62.9908791,113.912596 61.7976564,114.921193 C58.38848,117.80287 54.9793176,120.688444 51.7975263,123.387039 L51.685806,123.481796 C43.9927494,130.006901 38.8824748,134.375739 37.5958612,135.545351 C37.1871977,135.916851 36.5547499,135.886725 36.1832494,135.478061 C35.8117489,135.069398 35.8418754,134.43695 36.2505388,134.065449 C37.5635118,132.871875 42.6653707,128.510233 50.3921204,121.956549 L50.50388,121.861759 C53.6866186,119.162361 57.0965953,116.276097 60.5065581,113.393755 C61.700034,112.384945 62.8082651,111.448678 63.8028403,110.608807 C64.3569718,110.140904 64.3569718,110.140904 64.7264115,109.829035 C64.9964025,109.601145 64.9964025,109.601145 65.0532898,109.553142 C65.4753781,109.196968 66.1062843,109.250402 66.4624584,109.67249 Z M538.550448,65.451715 C538.97465,65.8053694 539.031839,66.4359463 538.678185,66.8601479 C538.642307,66.9031825 538.571281,66.9890314 538.467453,67.115547 C538.293449,67.3275738 538.09133,67.5759813 537.863445,67.8586208 C537.211324,68.6674266 536.48425,69.5874447 535.701018,70.6014613 C533.463059,73.4988469 531.225153,76.5665585 529.137995,79.6659977 C527.533767,82.0482847 526.08316,84.3557893 524.823105,86.5539037 C521.811265,91.8079301 520.019639,96.2062614 519.743822,99.3993882 C519.72137,99.6593094 519.708743,99.9097192 519.706191,100.150679 C519.738287,100.185905 519.766351,100.22532 519.791821,100.267276 C519.994209,100.60067 519.978676,101.005348 519.785815,101.315298 C520.130377,103.498448 521.628559,104.657047 524.568506,104.862211 C529.259196,105.188558 532.529838,103.38126 539.239426,95.686053 C539.266216,95.6392058 539.299532,95.5799264 539.339597,95.5092564 C539.462409,95.2926259 539.607359,95.0421216 539.773817,94.7605524 C540.247676,93.959004 540.79993,93.0670744 541.425594,92.1072076 C543.212731,89.3654539 545.232704,86.6236244 547.447273,84.0606907 C551.591349,79.2647294 555.928747,75.6548038 560.383648,73.7177412 C560.890126,73.4975166 561.479234,73.7295705 561.699459,74.2360481 C561.919683,74.7425257 561.68763,75.3316342 561.181152,75.5518588 C557.046772,77.3495538 552.925801,80.7793517 548.96059,85.3683116 C546.809896,87.8573212 544.842131,90.528288 543.101084,93.1993306 C542.491882,94.1339426 541.954921,95.0011718 541.495466,95.7783556 C541.221479,96.2418153 541.035322,96.5701786 540.942206,96.7408157 L540.952354,96.7211525 C540.911091,96.8009436 540.830883,96.9600509 540.717303,97.1918437 C540.526335,97.5815712 540.313097,98.0308001 540.083164,98.5328799 C539.42516,99.969689 538.766822,101.538829 538.152733,103.186641 C537.126656,105.939956 536.330828,108.628059 535.854578,111.138054 C534.76948,116.856881 535.451299,121.013598 538.226608,123.070451 C540.571362,124.808574 544.895669,121.419441 550.962843,113.08897 C556.611406,105.335474 565.623472,97.2571818 570.069414,95.5268885 C570.584095,95.3265827 571.163706,95.5814337 571.364011,96.0961142 C571.564317,96.6107946 571.309466,97.1904056 570.794786,97.3907115 C566.763613,98.959583 558.022725,106.794795 552.579437,114.266521 C545.792903,123.584701 540.819805,127.482317 537.035673,124.677209 C533.477024,122.039803 532.676452,117.159105 533.889636,110.765223 C534.389194,108.132384 535.215986,105.339697 536.278643,102.488224 C536.429217,102.084182 536.582332,101.68484 536.737386,101.290899 C532.019955,105.88882 528.728222,107.156451 524.429484,106.857374 C520.883069,106.609887 518.745177,105.060115 518.003352,102.481663 C516.978085,103.053861 515.784294,103.678406 514.443661,104.348387 C513.760731,104.68968 513.04389,105.040621 512.296939,105.399816 C510.15769,106.42854 507.867644,107.479697 505.577867,108.497346 C505.365826,108.591583 505.157788,108.68375 504.954104,108.773714 C506.092965,109.183104 507.346887,109.680549 508.702667,110.273656 C513.559066,112.398162 518.743557,115.308859 524.04536,119.126705 C524.493536,119.449439 524.595228,120.074384 524.272495,120.52256 C523.949761,120.970736 523.324816,121.072428 522.87664,120.749695 C517.693318,117.017166 512.631872,114.17555 507.901083,112.105994 C506.250219,111.383798 504.760356,110.810007 503.457693,110.369764 C503.004742,110.216687 502.608399,110.091414 502.271941,109.992087 C502.074344,109.933753 501.943175,109.89764 501.881714,109.881887 C500.955839,109.644574 500.858645,108.368022 501.737919,107.993269 C501.888046,107.929284 502.1712,107.80757 502.568342,107.635203 C503.231145,107.347535 503.969919,107.023344 504.76561,106.669714 C507.038441,105.659596 509.311002,104.616465 511.430187,103.597389 C512.168316,103.242437 512.876101,102.89593 513.549592,102.559353 C515.176514,101.7463 516.577618,101.004187 517.710606,100.349799 C517.703508,99.9891009 517.717786,99.6145806 517.751242,99.2272722 C518.058339,95.6720188 519.942663,91.0461185 523.087977,85.5592521 C523.652741,84.574045 524.254185,83.5686307 524.889236,82.5457456 C522.077043,82.5885939 516.499773,82.4997636 508.759272,82.3106132 C507.108085,82.270264 505.389573,82.2259622 503.619777,82.1783456 C500.554197,82.0958657 497.481822,82.0074976 494.550811,81.9191294 C493.524943,81.8882 492.590003,81.8594793 491.764515,81.8337033 C491.269137,81.8182351 490.920268,81.8071838 490.736433,81.8012857 C490.184432,81.7835755 489.751304,81.3217335 489.769014,80.7697327 C489.786725,80.217732 490.248567,79.784604 490.800567,79.8023143 C490.983845,79.8081945 491.332144,79.8192277 491.826935,79.8346776 C492.651727,79.8604319 493.585954,79.8891307 494.611083,79.9200377 C497.540064,80.0083448 500.610324,80.096652 503.673568,80.1790691 C505.441785,80.2266432 507.158665,80.270903 508.80813,80.3112101 C518.130724,80.5390213 524.483242,80.6204625 526.187941,80.5041329 C526.604745,79.8587716 527.036226,79.2064995 527.479067,78.548878 C529.592596,75.4102764 531.855425,72.3084008 534.118202,69.3788845 C534.910227,68.3534853 535.645892,67.422596 536.306485,66.6032815 C536.53805,66.3160789 536.74381,66.0631957 536.921426,65.846768 C537.028571,65.716211 537.10288,65.6263932 537.142015,65.5794521 C537.495669,65.1552505 538.126246,65.0980606 538.550448,65.451715 Z M55.1632976,100.868095 C55.3893505,101.371998 55.1641084,101.963745 54.6602051,102.189798 C54.6008807,102.216411 54.4829254,102.270074 54.3102582,102.349796 C54.0205776,102.483545 53.6840056,102.641379 53.3044633,102.822303 C52.2180869,103.34017 51.0067391,103.938547 49.7018233,104.609459 C45.97418,106.525997 42.2470402,108.637693 38.7728249,110.87932 C31.4463406,115.606503 26.2587499,120.25852 24.1839043,124.494152 C24.1252628,124.613864 24.0692337,124.733066 24.0158274,124.851752 C23.7891966,125.355395 23.1971921,125.579958 22.6935485,125.353327 C22.1899049,125.126697 21.9653417,124.534692 22.1919726,124.031048 C22.2543741,123.892373 22.3196642,123.753467 22.3878208,123.614331 C24.6672243,118.961111 30.0769781,114.109867 37.6885034,109.198771 C41.2231413,106.918157 45.005487,104.775184 48.7873293,102.83078 C50.1107335,102.150362 51.3399685,101.543149 52.4438586,101.016934 C52.8309096,100.83243 53.1748848,100.671125 53.4718828,100.533997 C53.6512227,100.451194 53.7757612,100.394536 53.8415949,100.365002 C54.3454982,100.138949 54.9372446,100.364192 55.1632976,100.868095 Z" id="Skin-Shadows" fill="#9B7368"/>
                            <g id="Tshirt" transform="translate(100.000000, 174.936546)">
                                <mask id="bodyselfie-mask-2" fill="#fff">
                                    <use xlink:href="#bodyselfie-path-1"/>
                                </mask>
                                <use fill="#5BA092" xlink:href="#bodyselfie-path-1"/>
                                <g mask="url(#bodyselfie-mask-2)">
                                    <g transform="translate(-96.000000, 1.063454) scale(1 1)" id="Patterns">
                                        <g id="Patterns/Pattern 7" stroke="none" stroke-width="1" fill="none" fill-rule="evenodd">
                                            <path d="M128.5,180 C138.717268,180 147,188.282732 147,198.5 C147,208.717268 138.717268,217 128.5,217 C118.282732,217 110,208.717268 110,198.5 C110,188.282732 118.282732,180 128.5,180 Z M128.5,187 C122.148725,187 117,192.148725 117,198.5 C117,204.851275 122.148725,210 128.5,210 C134.851275,210 140,204.851275 140,198.5 C140,192.148725 134.851275,187 128.5,187 Z M221.5,162 C231.717268,162 240,170.282732 240,180.5 C240,190.717268 231.717268,199 221.5,199 C211.282732,199 203,190.717268 203,180.5 C203,170.282732 211.282732,162 221.5,162 Z M21.5,161 C31.7172679,161 40,169.282732 40,179.5 C40,189.717268 31.7172679,198 21.5,198 C11.2827321,198 3,189.717268 3,179.5 C3,169.282732 11.2827321,161 21.5,161 Z M221.5,169 C215.148725,169 210,174.148725 210,180.5 C210,186.851275 215.148725,192 221.5,192 C227.851275,192 233,186.851275 233,180.5 C233,174.148725 227.851275,169 221.5,169 Z M21.5,168 C15.1487254,168 10,173.148725 10,179.5 C10,185.851275 15.1487254,191 21.5,191 C27.8512746,191 33,185.851275 33,179.5 C33,173.148725 27.8512746,168 21.5,168 Z M110.5,109 C120.717268,109 129,117.282732 129,127.5 C129,137.717268 120.717268,146 110.5,146 C100.282732,146 92,137.717268 92,127.5 C92,117.282732 100.282732,109 110.5,109 Z M110.5,116 C104.148725,116 99,121.148725 99,127.5 C99,133.851275 104.148725,139 110.5,139 C116.851275,139 122,133.851275 122,127.5 C122,121.148725 116.851275,116 110.5,116 Z M183.5,100 C193.717268,100 202,108.282732 202,118.5 C202,128.717268 193.717268,137 183.5,137 C173.282732,137 165,128.717268 165,118.5 C165,108.282732 173.282732,100 183.5,100 Z M183.5,107 C177.148725,107 172,112.148725 172,118.5 C172,124.851275 177.148725,130 183.5,130 C189.851275,130 195,124.851275 195,118.5 C195,112.148725 189.851275,107 183.5,107 Z M44.5,81 C54.7172679,81 63,89.2827321 63,99.5 C63,109.717268 54.7172679,118 44.5,118 C34.2827321,118 26,109.717268 26,99.5 C26,89.2827321 34.2827321,81 44.5,81 Z M253.5,81 C263.717268,81 272,89.2827321 272,99.5 C272,109.717268 263.717268,118 253.5,118 C243.282732,118 235,109.717268 235,99.5 C235,89.2827321 243.282732,81 253.5,81 Z M44.5,88 C38.1487254,88 33,93.1487254 33,99.5 C33,105.851275 38.1487254,111 44.5,111 C50.8512746,111 56,105.851275 56,99.5 C56,93.1487254 50.8512746,88 44.5,88 Z M253.5,88 C247.148725,88 242,93.1487254 242,99.5 C242,105.851275 247.148725,111 253.5,111 C259.851275,111 265,105.851275 265,99.5 C265,93.1487254 259.851275,88 253.5,88 Z M192.5,28 C202.717268,28 211,36.2827321 211,46.5 C211,56.7172679 202.717268,65 192.5,65 C182.282732,65 174,56.7172679 174,46.5 C174,36.2827321 182.282732,28 192.5,28 Z M110.5,28 C120.717268,28 129,36.2827321 129,46.5 C129,56.7172679 120.717268,65 110.5,65 C100.282732,65 92,56.7172679 92,46.5 C92,36.2827321 100.282732,28 110.5,28 Z M192.5,35 C186.148725,35 181,40.1487254 181,46.5 C181,52.8512746 186.148725,58 192.5,58 C198.851275,58 204,52.8512746 204,46.5 C204,40.1487254 198.851275,35 192.5,35 Z M110.5,35 C104.148725,35 99,40.1487254 99,46.5 C99,52.8512746 104.148725,58 110.5,58 C116.851275,58 122,52.8512746 122,46.5 C122,40.1487254 116.851275,35 110.5,35 Z M40.5,9 C50.7172679,9 59,17.2827321 59,27.5 C59,37.7172679 50.7172679,46 40.5,46 C30.2827321,46 22,37.7172679 22,27.5 C22,17.2827321 30.2827321,9 40.5,9 Z M40.5,16 C34.1487254,16 29,21.1487254 29,27.5 C29,33.8512746 34.1487254,39 40.5,39 C46.8512746,39 52,33.8512746 52,27.5 C52,21.1487254 46.8512746,16 40.5,16 Z M258.5,2 C268.717268,2 277,10.2827321 277,20.5 C277,30.7172679 268.717268,39 258.5,39 C248.282732,39 240,30.7172679 240,20.5 C240,10.2827321 248.282732,2 258.5,2 Z M258.5,9 C252.148725,9 247,14.1487254 247,20.5 C247,26.8512746 252.148725,32 258.5,32 C264.851275,32 270,26.8512746 270,20.5 C270,14.1487254 264.851275,9 258.5,9 Z" id="Pattern" fill="#010101"/>
                                        </g>
                                    </g>
                                </g>
                                <g mask="url(#bodyselfie-mask-2)">
                                    <g transform="translate(184.000000, 1.063454) scale(1 1)" id="Patterns">
                                        <g id="Patterns/Pattern 7" stroke="none" stroke-width="1" fill="none" fill-rule="evenodd">
                                            <path d="M128.5,180 C138.717268,180 147,188.282732 147,198.5 C147,208.717268 138.717268,217 128.5,217 C118.282732,217 110,208.717268 110,198.5 C110,188.282732 118.282732,180 128.5,180 Z M128.5,187 C122.148725,187 117,192.148725 117,198.5 C117,204.851275 122.148725,210 128.5,210 C134.851275,210 140,204.851275 140,198.5 C140,192.148725 134.851275,187 128.5,187 Z M221.5,162 C231.717268,162 240,170.282732 240,180.5 C240,190.717268 231.717268,199 221.5,199 C211.282732,199 203,190.717268 203,180.5 C203,170.282732 211.282732,162 221.5,162 Z M21.5,161 C31.7172679,161 40,169.282732 40,179.5 C40,189.717268 31.7172679,198 21.5,198 C11.2827321,198 3,189.717268 3,179.5 C3,169.282732 11.2827321,161 21.5,161 Z M221.5,169 C215.148725,169 210,174.148725 210,180.5 C210,186.851275 215.148725,192 221.5,192 C227.851275,192 233,186.851275 233,180.5 C233,174.148725 227.851275,169 221.5,169 Z M21.5,168 C15.1487254,168 10,173.148725 10,179.5 C10,185.851275 15.1487254,191 21.5,191 C27.8512746,191 33,185.851275 33,179.5 C33,173.148725 27.8512746,168 21.5,168 Z M110.5,109 C120.717268,109 129,117.282732 129,127.5 C129,137.717268 120.717268,146 110.5,146 C100.282732,146 92,137.717268 92,127.5 C92,117.282732 100.282732,109 110.5,109 Z M110.5,116 C104.148725,116 99,121.148725 99,127.5 C99,133.851275 104.148725,139 110.5,139 C116.851275,139 122,133.851275 122,127.5 C122,121.148725 116.851275,116 110.5,116 Z M183.5,100 C193.717268,100 202,108.282732 202,118.5 C202,128.717268 193.717268,137 183.5,137 C173.282732,137 165,128.717268 165,118.5 C165,108.282732 173.282732,100 183.5,100 Z M183.5,107 C177.148725,107 172,112.148725 172,118.5 C172,124.851275 177.148725,130 183.5,130 C189.851275,130 195,124.851275 195,118.5 C195,112.148725 189.851275,107 183.5,107 Z M44.5,81 C54.7172679,81 63,89.2827321 63,99.5 C63,109.717268 54.7172679,118 44.5,118 C34.2827321,118 26,109.717268 26,99.5 C26,89.2827321 34.2827321,81 44.5,81 Z M253.5,81 C263.717268,81 272,89.2827321 272,99.5 C272,109.717268 263.717268,118 253.5,118 C243.282732,118 235,109.717268 235,99.5 C235,89.2827321 243.282732,81 253.5,81 Z M44.5,88 C38.1487254,88 33,93.1487254 33,99.5 C33,105.851275 38.1487254,111 44.5,111 C50.8512746,111 56,105.851275 56,99.5 C56,93.1487254 50.8512746,88 44.5,88 Z M253.5,88 C247.148725,88 242,93.1487254 242,99.5 C242,105.851275 247.148725,111 253.5,111 C259.851275,111 265,105.851275 265,99.5 C265,93.1487254 259.851275,88 253.5,88 Z M192.5,28 C202.717268,28 211,36.2827321 211,46.5 C211,56.7172679 202.717268,65 192.5,65 C182.282732,65 174,56.7172679 174,46.5 C174,36.2827321 182.282732,28 192.5,28 Z M110.5,28 C120.717268,28 129,36.2827321 129,46.5 C129,56.7172679 120.717268,65 110.5,65 C100.282732,65 92,56.7172679 92,46.5 C92,36.2827321 100.282732,28 110.5,28 Z M192.5,35 C186.148725,35 181,40.1487254 181,46.5 C181,52.8512746 186.148725,58 192.5,58 C198.851275,58 204,52.8512746 204,46.5 C204,40.1487254 198.851275,35 192.5,35 Z M110.5,35 C104.148725,35 99,40.1487254 99,46.5 C99,52.8512746 104.148725,58 110.5,58 C116.851275,58 122,52.8512746 122,46.5 C122,40.1487254 116.851275,35 110.5,35 Z M40.5,9 C50.7172679,9 59,17.2827321 59,27.5 C59,37.7172679 50.7172679,46 40.5,46 C30.2827321,46 22,37.7172679 22,27.5 C22,17.2827321 30.2827321,9 40.5,9 Z M40.5,16 C34.1487254,16 29,21.1487254 29,27.5 C29,33.8512746 34.1487254,39 40.5,39 C46.8512746,39 52,33.8512746 52,27.5 C52,21.1487254 46.8512746,16 40.5,16 Z M258.5,2 C268.717268,2 277,10.2827321 277,20.5 C277,30.7172679 268.717268,39 258.5,39 C248.282732,39 240,30.7172679 240,20.5 C240,10.2827321 248.282732,2 258.5,2 Z M258.5,9 C252.148725,9 247,14.1487254 247,20.5 C247,26.8512746 252.148725,32 258.5,32 C264.851275,32 270,26.8512746 270,20.5 C270,14.1487254 264.851275,9 258.5,9 Z" id="Pattern" fill="#010101"/>
                                        </g>
                                    </g>
                                </g>
                                <mask id="bodyselfie-mask-4" fill="#fff">
                                    <use xlink:href="#bodyselfie-path-3"/>
                                </mask>
                                <use id="Tshirt-detail" fill="#2F6858" xlink:href="#bodyselfie-path-3"/>
                            </g>
                            <g id="Phone" transform="translate(36.179261, 21.763091)">
                                <path d="M8.07553868,47.7252093 L71.6355387,50.3422093 C75.4635387,50.4992093 78.6035387,53.4302093 79.0235387,57.2402093 L90.7995387,164.051209 C91.2915387,168.516209 87.8995387,172.463209 83.4115387,172.648209 L26.6025387,174.991209 C24.6545387,175.071209 22.9385387,173.717209 22.5655387,171.803209 L19.2784304,154.969444 C21.8214979,151.715092 28.6265633,142.753451 37.2021387,129.438309 C47.9262787,112.787129 48.7717443,107.700126 46.741004,102.678756 L46.6131387,102.371309 C44.6791387,97.8463093 34.3221387,105.823309 34.3221387,105.823309 C39.2181387,98.6233093 42.3871387,92.8643093 42.0981387,88.8323093 C41.5481387,81.1683093 29.5191387,88.5543093 29.5191387,88.5543093 C31.8831387,86.0593093 35.1511387,77.8053093 31.5131387,74.1663093 C27.8611387,70.5143093 18.0721387,79.5143093 18.0721387,79.5143093 C18.0721387,79.5143093 37.6381387,54.2243093 10.2201387,64.9983093 C7.57683585,66.0372873 4.94426225,67.1273789 2.35341496,68.2624244 L0.146538683,56.9572093 C-0.813461317,52.0412093 3.07053868,47.5192093 8.07553868,47.7252093 Z" fill="#010101"/>
                                <path d="M40.0563003,3.47647157 C38.5065522,5.52196701 36.4156027,8.59476071 33.9224503,12.4506224 C33.6190628,12.9198358 33.3108059,13.3989883 32.9980327,13.8874506 C31.1322058,16.8013396 29.1827172,19.9245801 27.2667218,23.0479848 C26.5960482,24.1412991 25.977509,25.1564715 25.4257124,26.0674046 C25.2326523,26.3861177 25.0617493,26.6689952 24.9148286,26.9127759 C24.766234,27.159566 24.766234,27.159566 24.7354367,27.2108966 C24.3642332,27.8295829 23.4799658,27.863535 23.0624153,27.2751334 C23.0314524,27.2315012 22.9698127,27.1452529 22.8790733,27.0192355 C22.7270638,26.808127 22.5491017,26.5629333 22.3467651,26.2865026 C21.7678438,25.4955846 21.1103078,24.6138149 20.3868061,23.664 C18.3200096,20.9507045 16.1403793,18.2377119 13.9500757,15.7082511 C12.4395068,13.9637784 10.976054,12.3684098 9.57887534,10.9556028 C7.46561908,8.81870846 5.54831359,7.14444248 3.88302217,6.01628165 C2.57582211,5.13060153 2.07830868,5.48810658 1.68255088,7.65076504 C1.28174864,9.84098938 1.35591699,13.3128042 1.81742823,17.6766849 C2.02667016,19.6551996 2.30902432,21.7554505 2.64636778,23.9175979 C2.91502319,25.6395005 3.20294066,27.3022078 3.49079684,28.8428188 C3.59147927,29.3816728 3.68492037,29.8665716 3.76870473,30.2896764 C3.81879234,30.542615 3.85440109,30.7181337 3.87311588,30.8084019 C3.98523378,31.3491865 3.63773073,31.8784686 3.09694609,31.9905865 C2.55616146,32.1027044 2.02687938,31.7552013 1.91476148,31.2144167 C1.89486324,31.1184404 1.85807254,30.9370958 1.80680093,30.6781779 C1.72165325,30.2481885 1.62685579,29.7562511 1.52481977,29.2101527 C1.23348039,27.6508995 0.942202292,25.9687848 0.670275169,24.2259126 C0.328158431,22.0331717 0.0415079307,19.9009632 -0.171480162,17.887026 C-0.651829649,13.3450178 -0.729276284,9.71974709 -0.284779848,7.29075143 C0.337025593,3.89283282 2.26732497,2.50575111 5.00480734,4.36050448 C6.79446185,5.57291577 8.8036584,7.3274246 11.0009323,9.54927641 C12.4314698,10.9958153 13.9242059,12.6231069 15.4620146,14.3990372 C17.6824418,16.9632862 19.8874282,19.7078397 21.9778042,22.4520903 C22.6439526,23.3266116 23.2550415,24.1444153 23.8016179,24.888379 C24.3331379,24.0115099 24.9240471,23.0420507 25.5619208,22.0022059 C27.4841497,18.8686396 29.4401859,15.7349092 31.3137362,12.8089586 C31.6280747,12.3180516 31.9379278,11.8364179 32.2429491,11.3646778 C34.7609595,7.47037128 36.8754715,4.36295089 38.4621649,2.26869169 C39.386243,1.04901104 40.1250569,0.180361367 40.6899305,-0.32962095 C41.0840282,-0.685422405 41.4210299,-0.904029056 41.8046656,-0.976706519 C42.5742924,-1.12250765 43.1533846,-0.60649003 43.2643172,0.1133962 C43.4934164,1.6029833 43.2951016,6.46299968 42.7912529,13.872229 C42.7126651,15.0278836 42.627705,16.2266238 42.5373122,17.4594409 C42.3579344,19.9058734 42.1657681,22.3719698 41.9736014,24.7349029 C41.9456108,25.0790828 41.9184516,25.4108065 41.892239,25.7289664 C42.2745707,25.4722701 42.6781046,25.20292 43.1004122,24.9228338 C45.344165,23.4347141 47.6596014,21.9464888 49.9224441,20.5564745 C50.6847776,20.0881899 51.4298702,19.6381231 52.1549003,19.2085207 C55.7545964,17.0755912 58.7202123,15.5261448 60.865422,14.7222646 C62.1960576,14.223632 63.2215063,14.0022548 64.0038458,14.1122303 C65.2286477,14.284404 65.8151982,15.2639996 65.5371372,16.5427368 C65.1442056,18.3511325 64.6058003,21.1393648 63.9594313,24.6728371 C63.8823842,25.0940264 63.8040878,25.5242724 63.7246338,25.9629954 C63.2579104,28.5401141 62.7705129,31.3018925 62.2916136,34.0637517 C62.2456732,34.3286948 62.2007123,34.5884498 62.1568058,34.8425424 C63.2711958,33.8363013 64.4168822,32.8375041 65.5505776,31.8957275 C66.1275874,31.4163974 66.6899489,30.9616573 67.2344623,30.5352479 C69.0807768,29.0893958 70.6630901,28.0127499 71.9263051,27.3890428 C73.7793648,26.4741022 75.238317,26.4031757 75.847998,27.8657517 C76.4329721,29.269509 76.305298,31.6511987 75.6871936,34.8824935 C75.4996318,35.8630192 75.2700345,36.8945246 75.0076383,37.9570352 C74.7450377,39.0203737 74.463918,40.0579696 74.1827202,41.028681 C74.0842042,41.3687639 73.9926386,41.6764411 73.9103311,41.9465274 C73.8606094,42.1096855 73.8247822,42.2248048 73.8051586,42.2866869 C73.6382153,42.8131358 73.0761098,43.1045725 72.549661,42.9376292 C72.0232122,42.7706859 71.7317754,42.2085804 71.8987188,41.6821316 C71.9161223,41.6272504 71.9497208,41.5192924 71.9971952,41.3635084 C72.0768811,41.1020246 72.1658225,40.8031654 72.2616987,40.4721953 C72.535907,39.525612 72.8101934,38.5132374 73.0659718,37.4775238 C73.3203483,36.4474869 73.5423835,35.4499559 73.7228098,34.5067326 C74.2429905,31.7873584 74.3693523,29.7177704 74.0460706,28.7532927 C73.7833443,28.7712562 73.3564343,28.9134246 72.8117485,29.1823609 C71.6988325,29.7318586 70.2146327,30.7417456 68.4675603,32.109881 C67.9388666,32.5239019 67.3913502,32.9666378 66.8285667,33.43415 C65.5478451,34.4980634 64.2475202,35.6397385 62.9963369,36.7815915 C62.5583232,37.1813309 62.1579061,37.5523874 61.8035823,37.885123 C61.5917305,38.0840671 61.4428613,38.225506 61.3654485,38.2998177 C60.6701124,38.9672996 59.5258908,38.3615475 59.6870088,37.41125 C59.7183383,37.2264637 59.7772744,36.8804227 59.8601792,36.3961542 C59.9983141,35.5892721 60.1531396,34.690232 60.3210188,33.7220557 C60.8007053,30.9556566 61.2889326,28.1891766 61.7566467,25.6065874 C61.8363067,25.1667269 61.9148136,24.7353242 61.9920767,24.312954 C62.6421518,20.7592214 63.1839129,17.953611 63.5827742,16.1179252 C63.5854047,16.1058278 63.5878024,16.0944572 63.590002,16.0837989 C63.191888,16.081343 62.4904363,16.249132 61.56723,16.5950875 C59.5601184,17.3472178 56.6799577,18.8520165 53.174426,20.9291507 C52.4588469,21.353153 51.7228154,21.7977465 50.9692707,22.2606324 C48.7281473,23.637305 46.4316037,25.1133871 44.2058416,26.5895749 C43.4267452,27.1062934 42.7122877,27.5860229 42.0781685,28.0163869 C41.6983292,28.2741763 41.4301399,28.4579032 41.2892819,28.5552008 C40.5933966,29.0358836 39.6521332,28.4893552 39.724618,27.6467056 C39.7373583,27.4985976 39.7612959,27.2171062 39.7948306,26.8176139 C39.85075,26.1514582 39.9130674,25.3980539 39.9801827,24.5727871 C40.171946,22.2148137 40.3637097,19.7538833 40.5426667,17.3131892 C40.6328109,16.0837628 40.7175231,14.8885198 40.7958613,13.7365367 C41.1700817,8.23352608 41.3748337,4.06024719 41.3605439,1.85328415 C40.9936645,2.2724939 40.5559574,2.8169797 40.0563003,3.47647157 Z" id="Stroke-25" fill="#F3705A"/>
                            </g>
                        </g>
                    </g>
                </g>
            </g>
        </g>
    </g>
</svg>
