<svg viewBox="221.065 465.387 1602.718 941.855" xmlns="http://www.w3.org/2000/svg" xmlns:xlink="http://www.w3.org/1999/xlink" overflow="visible">
    <defs>
        <path d="M0.253066667,0 L174.301658,2.7307673 L154.512021,166.388629 C153.13387,177.790994 148.553673,188.650969 140.951718,197.255044 C131.063536,208.448201 114.013612,218.959497 85.3677485,216.229836 C56.5161576,213.479145 37.6279606,201.173535 25.9855667,189.633912 C15.8971879,179.634013 9.98861212,166.168352 9.15685455,151.982088 L0.253066667,0 Z" id="masterscenewatering-plants-path-1"/>
        <path d="M109.349893,53.900161 C113.481551,52.981688 144.970514,5.75600247 146.214144,3.88880036 C163.157042,7.1710553 179.732671,12.3563028 194.5425,20.2265561 L194.534447,20.342795 C194.273846,24.1150757 187.81006,118.481216 192.9335,124.393556 L192.941093,124.461309 C193.187039,126.661869 199.30416,181.841416 196.1515,198.396556 C192.9335,215.288556 179.5055,194.246556 179.5055,194.246556 L179.493372,194.278417 C179.199722,195.046486 173.626713,209.436596 168.5975,208.598556 C163.4305,207.737556 153.3835,197.403556 153.3835,197.403556 L153.374748,197.427811 C153.092349,198.206414 146.00353,217.45697 136.1595,215.488556 C126.1125,213.478556 123.8155,199.700556 123.8155,199.700556 C123.8155,199.700556 117.2135,215.488556 106.8795,214.914556 C96.5455,214.339556 94.5365,201.708556 94.5365,201.708556 C94.5365,201.708556 89.6555,215.488556 82.1925,216.349556 C74.7285,217.210556 64.3945,208.598556 59.2275,197.977556 C59.2275,197.977556 50.9025,219.219556 42.2905,213.191556 C41.3568107,212.537941 40.5007296,211.820191 39.716404,211.0599 C38.9866857,200.963205 35.9000145,191.098032 30.4518,182.371756 C26.2618,175.660756 20.3978,169.075756 12.1968,163.637756 C8.56443049,161.228971 4.79906388,158.622963 0.984865847,155.901702 C7.45275655,123.762488 15.5945,89.4685561 15.5945,89.4685561 C15.5945,89.4685561 15.7187488,88.7027664 15.9150545,87.2866042 L15.9209033,87.2444839 C15.9621048,86.9466774 16.0064153,86.6206568 16.0533622,86.2674675 L16.061829,86.2036969 C16.1839431,85.2828267 16.3234572,84.1811093 16.4722231,82.9165641 L16.4762129,82.8821812 C16.5146429,82.5550785 16.5536843,82.2171401 16.593197,81.8686756 L16.6018125,81.7932123 C16.7332875,80.6308248 16.8698493,79.3525911 17.0063666,77.9698586 L17.0193919,77.8362484 C17.0468205,77.5570243 17.0742406,77.2735942 17.1016106,76.9860501 C17.128757,76.7024642 17.1557798,76.4140875 17.1827134,76.121777 C17.1986225,75.9473205 17.2146122,75.7720128 17.2305619,75.5953311 C17.2689523,75.1720346 17.3069484,74.7407762 17.3445977,74.301888 L17.384953,73.8245171 C17.40566,73.5783419 17.4262475,73.3298533 17.4466958,73.0790951 C17.854834,68.0780381 18.2074801,62.1723804 18.3471595,55.7119559 C18.3506244,55.5268887 18.3544335,55.3420453 18.3580655,55.1567582 C18.5346699,46.1832394 18.2952384,36.1692225 17.2242013,26.0345559 L17.2229827,26.0342045 C16.5169108,19.3418341 15.4469567,12.5964969 13.8945,6.06355607 C13.8945,6.06355607 33.2123494,1.99203002 60.8377697,0.000117687701 C62.7598027,2.37434943 105.22942,54.8149529 109.349893,53.900161 Z" id="masterscenewatering-plants-path-3"/>
    </defs>
    <g id="Master/Scene/Watering Plants" stroke="none" stroke-width="1" fill="none" fill-rule="evenodd">
        <g id="Background/Ground" transform="translate(566.707654, 0.000000) scale(0.9641125121241513 0.9642105263157895)">
            <g id="Background/Ground/Big Bush" stroke="none" stroke-width="1" fill="none" fill-rule="evenodd">
                <path d="M1,1425 L1014.78472,1425 C1014.78472,1425 1119.22759,944.470808 780.835017,1085.14738 C780.835017,1085.14738 805.410986,894.709053 637.400198,853.937061 C537.166324,829.611293 482.826393,916.614347 482.826393,916.614347 C482.826393,916.614347 475.863401,645.011108 278.119651,721.617124 C80.3758999,798.22314 175.069781,1002.97027 175.069781,1002.97027 C175.069781,1002.97027 78.0409029,1018.73036 88.7308894,1131.11139 C94.2728824,1189.36481 152.789809,1228.6095 152.789809,1228.6095 C152.789809,1228.6095 9.35498947,1217.46732 1,1425" id="Dust-Big" fill="#FFF5EE"/>
            </g>
        </g>
        <g id="Object/Floor" transform="translate(785.353827, 1110.000000) scale(-1, 1) translate(-785.353827, -1110.000000) translate(566.353827, 846.000000) scale(1.106060606060606 1.1069182389937107)">
            <g id="Object/Floor/Dog" stroke="none" stroke-width="1" fill="none" fill-rule="evenodd">
                <g id="Dog" transform="translate(2.000000, 220.000000)">
                    <path d="M49.181,4.0708 C73.071,-3.7112 122.853,-8.6852 146.804,71.4768 C146.804,71.4768 214.656,71.1668 253.08,76.4488 C297.926,82.6128 299.076,103.0048 317.501,112.7368 C360.71,135.5578 392.419,138.0728 392.573541,143.0538 C393.039,158.5158 328.706,139.7718 320.826,137.1458 C320.826,137.1458 332.902,170.4728 316.51,246.2308 C315.924,248.9398 313.44,250.8188 310.675,250.6308 L302.719,250.0888 C299.794,249.8878 297.523,247.4578 297.523,244.5248 L297.523,202.2878 C297.523,200.1538 295.731,198.4598 293.602,198.5778 L293.476,198.5848 C291.598,198.6888 290.094,200.1808 289.975,202.0588 L287.253,244.9188 C287.067,247.8548 284.631,250.1408 281.689,250.1408 L275.566,250.1408 C272.572,250.1408 270.112,247.7768 269.994,244.7848 L267.351,177.5658 C267.351,177.5658 173.573,199.9908 135.654,198.7668 L130.036,251.1918 C129.748,253.8848 127.566,255.9808 124.864,256.1618 L121.982,256.3538 C119.279,256.5338 116.837,254.7448 116.194,252.1128 L104.994,206.2608 C104.568,204.5188 102.957,203.3288 101.166,203.4338 L100.612,203.4668 C98.737,203.5778 97.239,205.0698 97.121,206.9438 L94.36,251.1458 C94.19,253.8618 92.084,256.0578 89.378,256.3428 L83.737,256.9368 C80.827,257.2438 78.175,255.2478 77.663,252.3668 L52.069,108.2518 C52.069,108.2518 -5.416,64.3478 22.426,23.7158 C28.844,14.3498 38.386,7.5878 49.181,4.0708" id="Fill-1" fill="#9B7368"/>
                    <path d="M189.9339,147.5689 C188.9659,138.7109 179.0359,133.9189 171.3639,138.4529 C161.0929,144.5239 148.6969,155.2989 166.0339,165.6079 C183.5299,176.0099 191.3549,160.5719 189.9339,147.5689" id="Fill-4" fill="#F7D3BB"/>
                    <path d="M77.4779,21.4878 C76.5529,25.5708 73.6529,28.3938 71.0009,27.7938 C68.3489,27.1918 66.9489,23.3948 67.8739,19.3118 C68.7989,15.2288 71.6999,12.4058 74.3509,13.0068 C77.0029,13.6068 78.4039,17.4048 77.4779,21.4878" id="Fill-6" fill="#010101"/>
                    <path d="M51.6908,39.48 C51.3178,38.793 50.4578,38.538 49.7688,38.912 C49.7208,38.938 44.8298,41.551 40.1898,39.959 C37.5138,39.042 35.4048,36.859 33.9228,33.47 L33.6668,32.883 L40.5258,25.283 C41.3588,24.36 40.8328,22.881 39.6038,22.693 L31.0928,21.383 C29.9548,21.209 29.0248,22.283 29.3628,23.384 L32.1058,32.345 L31.4798,33.203 C31.4148,33.293 24.8308,42.132 15.5778,38.568 C14.8528,38.289 14.0268,38.651 13.7458,39.382 C13.4648,40.113 13.8298,40.933 14.5598,41.214 C22.9788,44.451 29.5058,39.36 32.2948,36.542 C34.0438,39.604 36.3828,41.651 39.2708,42.641 C40.6738,43.123 42.0788,43.306 43.4038,43.306 C47.5558,43.306 50.9368,41.502 51.1228,41.402 C51.8098,41.028 52.0648,40.167 51.6908,39.48" id="Fill-8" fill="#010101"/>
                    <path d="M100.098,95.441 C111.609,111.083 128.304,57.07 133.441,39.046 C126.083,25.992 117.739,17.003 109.097,10.974 C104.956,23.67 87.954,78.937 100.098,95.441" id="Fill-10" fill="#6D4038"/>
                    <path d="M217.8011,116.4175 C241.3211,153.2315 280.8661,103.5335 277.3921,82.4825 C271.0331,79.9415 263.1631,77.8345 253.0801,76.4485 C243.8631,75.1815 232.9511,74.2365 221.6911,73.5315 C211.3911,80.5315 203.1481,93.4825 217.8011,116.4175" id="Fill-12" fill="#F7D3BB"/>
                    <path d="M17.5003,62.9976 C10.2973,71.3096 -7.0707,94.5606 3.1343,115.5386 C12.7403,135.2856 24.1623,101.9246 29.1503,84.5266 C24.4543,78.1586 20.1433,70.8426 17.5003,62.9976" id="Fill-14" fill="#6D4038"/>
                </g>
            </g>
        </g>
        <g id="Background/Sky" transform="translate(417.207654, 993.500000) scale(-1, 1) translate(-417.207654, -993.500000) translate(182.707654, 795.000000) scale(1 1)">
            <g id="Background/Sky/Stars" stroke="none" stroke-width="1" fill="none" fill-rule="evenodd">
                <path d="M342.5,241 C343.328427,241 344,241.671573 344,242.5 L343.999,314.879 L372.43934,286.43934 C373.025126,285.853553 373.974874,285.853553 374.56066,286.43934 C375.146447,287.025126 375.146447,287.974874 374.56066,288.56066 L346.12,317 L419.5,317 C420.328427,317 421,317.671573 421,318.5 C421,319.328427 420.328427,320 419.5,320 L346.121,320 L374.56066,348.43934 C375.146447,349.025126 375.146447,349.974874 374.56066,350.56066 C373.974874,351.146447 373.025126,351.146447 372.43934,350.56066 L343.999,322.12 L344,395.5 C344,396.328427 343.328427,397 342.5,397 C341.671573,397 341,396.328427 341,395.5 L340.999,322.121 L312.56066,350.56066 C311.974874,351.146447 311.025126,351.146447 310.43934,350.56066 C309.853553,349.974874 309.853553,349.025126 310.43934,348.43934 L338.878,320 L266.5,320 C265.671573,320 265,319.328427 265,318.5 C265,317.671573 265.671573,317 266.5,317 L338.879,317 L310.43934,288.56066 C309.853553,287.974874 309.853553,287.025126 310.43934,286.43934 C311.025126,285.853553 311.974874,285.853553 312.56066,286.43934 L340.999,314.878 L341,242.5 C341,241.671573 341.671573,241 342.5,241 Z M99.0498,7.10542736e-14 C99.8782271,7.10542736e-14 100.5498,0.671572875 100.5498,1.5 L100.549,47.428 L118.138753,29.8396267 C118.724547,29.2538475 119.674294,29.2538593 120.260073,29.839653 C120.845853,30.4254467 120.845841,31.3751942 120.260047,31.9609733 L102.671,49.549 L148.599,49.5498 C149.427427,49.5498 150.099,50.2213729 150.099,51.0498 C150.099,51.8782271 149.427427,52.5498 148.599,52.5498 L102.672,52.549 L120.260047,70.1377267 C120.845841,70.7235058 120.845853,71.6732533 120.260073,72.259047 C119.674294,72.8448407 118.724547,72.8448525 118.138753,72.2590733 L100.549,54.67 L100.5498,100.599 C100.5498,101.427427 99.8782271,102.099 99.0498,102.099 C98.2213729,102.099 97.5498,101.427427 97.5498,100.599 L97.549,54.67 L79.961047,72.2589733 C79.3752533,72.8447525 78.4255058,72.8447407 77.8397267,72.258947 C77.2539475,71.6731533 77.2539593,70.7234058 77.839753,70.1376267 L95.427,52.549 L49.5,52.5498 C48.6715729,52.5498 48,51.8782271 48,51.0498 C48,50.2213729 48.6715729,49.5498 49.5,49.5498 L95.427,49.549 L77.839753,31.9610733 C77.2539593,31.3752942 77.2539475,30.4255467 77.8397267,29.839753 C78.4255058,29.2539593 79.3752533,29.2539475 79.961047,29.8397267 L97.549,47.427 L97.5498,1.5 C97.5498,0.671572875 98.2213729,7.10542736e-14 99.0498,7.10542736e-14 Z" id="Stars" fill="#CDB1AA"/>
            </g>
        </g>
        <g id="Character" transform="translate(1457.853827, 899.500000) scale(-1, 1) translate(-1457.853827, -899.500000) translate(973.353827, 425.000000)">
            <g id="Bottom/Standing" transform="translate(0.000000, 399.000000) scale(1 1)">
                <defs>
                    <path d="M213.041571,1.01805387 L270.8354,161.130543 C270.8354,161.130543 232.2534,152.715309 138.5554,191.992846 C44.8574,231.2714 0.7634,144.29804 0.7634,144.29804 C0.7634,144.29804 28.4044,126.908662 60.0554,0.000101805387 L213.041571,1.01805387 Z" id="bottomstandingskirt-path-1"/>
                </defs>
                <g id="Bottom/Standing/Skirt" stroke="none" stroke-width="1" fill="none" fill-rule="evenodd">
                    <g id="Skirt" transform="translate(258.000000, -1.000000)">
                        <path d="M266.400455,146.10052 C266.400455,146.10052 407.911216,482.694019 428.740297,502.75309 C447.082488,520.419262 474.596275,528.202787 476.788179,539.346941 C478.981082,550.490079 464.145736,567.151925 432.354138,560.46523 C408.914171,555.535088 386.786147,539.526866 376.778588,531.456681 C373.209746,528.579918 370.312873,524.945844 368.270963,520.806558 L194.139641,167.868367 L266.400455,146.10052 Z M60.0590528,157.741957 L125.975146,180.287446 L119.199445,549.772616 L0.0256997597,551.04937 C-0.8302625,532.769217 19.8998235,525.760283 31.6563051,523.59407 C38.8699871,522.265473 44.2707489,516.135833 44.7157293,508.696909 C49.7565071,424.411812 60.0590528,157.741957 60.0590528,157.741957 L60.0590528,157.741957 Z" id="Skin" fill="#8D574D"/>
                        <g id="Shoes" transform="translate(-0.000000, 464.599653)">
                            <path d="M44.7167589,43.5496966 C44.2717589,50.9734293 38.8707589,57.0924032 31.6567589,58.4184683 C19.9007589,60.5805531 -0.831241132,67.5761301 0.0257588678,85.8214471 L119.203759,84.5471259 L120.004759,24.8021591 C107.244759,24.8762239 83.7587589,37.7158217 71.0087589,37.8406159 C58.9827589,37.958308 57.2897589,31.8819468 45.3067589,31.8646988 C45.3067589,31.8646988 45.1557589,36.2223497 44.7167589,43.5496966" id="Fill-4" fill="#5BA092"/>
                            <path d="M43.7953869,32.8892276 C44.3632918,35.520208 44.7270805,38.3291326 44.9290773,41.1365551 C44.9997024,42.1181272 45.0451248,43.0299998 45.0703914,43.849381 C45.0792651,44.1371515 45.0849817,44.3931602 45.0881675,44.6145482 C45.0901033,44.7490722 45.0907589,44.843219 45.0907589,44.8941258 L45.0898434,44.9391567 C45.0891293,44.9562596 45.0880011,44.9733472 45.0864584,44.9904008 L45.0907589,44.8941258 C45.0907589,44.9454994 45.0871675,44.9955815 45.0802693,45.0442116 C45.0545345,45.225224 44.9811057,45.4008707 44.8594945,45.5473285 C44.8508092,45.5552207 44.8434793,45.5637228 44.8360178,45.5720914 C44.8197221,45.592845 44.801407,45.6118066 44.7821895,45.6301379 C44.7763503,45.6335966 44.7707701,45.6388379 44.7651343,45.6440129 C44.7463878,45.6631307 44.7255805,45.6806192 44.7038525,45.6973892 C44.6961532,45.7019819 44.6892176,45.7072532 44.6822183,45.7124328 C44.662922,45.7277429 44.6418293,45.7420014 44.6199705,45.7556016 C44.5870716,45.7757644 44.5536011,45.7943181 44.5192,45.8109258 C44.5168677,45.8119968 44.5151092,45.8128345 44.5133466,45.8136683 C44.4690698,45.8346116 44.3865287,45.8733822 44.265422,45.9298405 C44.0645761,46.0234721 43.8300132,46.1319514 43.5637644,46.2540431 C42.8041499,46.6023739 41.9422185,46.9903033 40.9942037,47.4079523 C38.2860449,48.6010346 35.429033,49.7940895 32.5524903,50.9081947 C30.5475015,51.6847409 28.6022728,52.3954252 26.7402898,53.0257537 C20.6973121,55.0714549 15.873985,56.1665245 12.6322739,56.029737 C8.21415677,55.8433097 6.57154637,53.193013 8.67754705,48.6147947 C11.5933197,42.2744478 17.7427988,39.6336556 26.015702,39.8581679 C29.8100923,39.9611411 33.8442758,40.6622184 37.8990852,41.7727252 C36.8355299,40.9670303 35.7902351,40.1342932 34.7817429,39.2848673 C32.2958548,37.1910705 30.2183271,35.1495909 28.6800381,33.2061232 C24.5268556,27.9590107 24.5269177,23.5081923 30.1603395,21.1359752 C37.3354288,18.1138061 41.6962333,23.1643035 43.7953869,32.8892276 Z M10.4899254,49.4728766 C8.99433324,52.7241326 9.70787656,53.8754108 12.7153809,54.0023157 C15.6435963,54.125875 20.2830154,53.0725592 26.1072794,51.100898 C27.9407217,50.4802313 29.8595229,49.7792022 31.8392169,49.0124528 C34.6854251,47.9100964 37.5153064,46.728371 40.1976239,45.5466731 C40.6337596,45.354533 41.0513868,45.168794 41.4488669,44.9904504 C40.3284363,44.6024493 39.1113447,44.2177526 37.8206894,43.8547031 C33.7571141,42.7116568 29.7156974,41.988479 25.9622249,41.8866163 C18.4022179,41.6814508 13.0076651,43.9980523 10.4899254,49.4728766 Z M30.9270959,23.0101028 C26.8058859,24.7455321 26.8058461,27.5975644 30.2394426,31.9355551 C31.6815486,33.7575055 33.6681636,35.7096499 36.0592308,37.7235816 C37.9312052,39.3002954 39.9405554,40.8234761 41.9502288,42.2340563 C42.3273484,42.4987547 42.6899352,42.7492006 43.035367,42.9842812 C43.0104796,42.4481443 42.9772173,41.8795884 42.9343852,41.2842927 C42.7388131,38.5661623 42.3869777,35.8495339 41.8416895,33.3233317 C39.9714277,24.6588133 36.515465,20.656265 30.9270959,23.0101028 Z" id="Combined-Shape" fill="#010101"/>
                            <path d="M476.809059,74.140812 C474.617059,63.0178953 447.102059,55.2502176 428.758059,37.6177111 C425.945059,34.9138369 420.927059,26.4379776 414.356059,13.8134723 C414.350059,14.2690218 414.129059,22.8788066 397.699059,29.6846558 C382.861059,35.8310235 366.270059,34.9645663 358.569059,36.0197367 L368.288059,55.6367753 C370.330059,59.7671587 373.226059,63.394307 376.794059,66.2655881 C386.803059,74.3214084 408.931059,90.2991236 432.372059,95.2188557 C464.165059,101.893823 479.002059,85.2637286 476.809059,74.140812" id="Fill-13" fill="#5BA092"/>
                            <path d="M435.38053,1.4184911 C441.443888,5.24597103 439.522023,11.9887967 432.013146,20.4584185 C429.599705,23.180654 426.643594,26.0432404 423.263348,28.9918219 C419.892673,31.9320542 416.284547,34.8004141 412.676732,37.4825428 C411.414125,38.4211918 410.241432,39.2697462 409.188476,40.0137652 C408.819433,40.2745308 408.491543,40.5037201 408.208536,40.6995246 C408.037895,40.8175859 407.919615,40.8986337 407.857428,40.9408577 L407.84634,40.9485929 C407.798298,40.9805184 407.747546,41.008377 407.694625,41.0316871 C407.426492,41.151638 407.144057,41.1371073 406.903981,41.0296876 C406.855566,41.0077239 406.758157,40.9647084 406.618389,40.9019257 C406.387594,40.7982546 406.120487,40.6761043 405.820077,40.5361126 C404.964001,40.1371783 404.011013,39.6745967 402.985166,39.1534334 C400.053566,37.6640859 397.121453,36.0019503 394.380056,34.2059673 C386.049481,28.7483228 381.166378,23.2522051 381.565645,17.8168297 C381.712451,15.8182935 382.595348,13.9208302 384.229076,12.1596112 C387.689789,8.42915659 391.485005,8.59317005 395.085006,11.996851 C397.847476,14.6086746 400.485038,19.058821 402.99533,24.8520813 C404.415933,28.1305535 405.707117,31.637395 406.845811,35.1434985 C407.006379,35.6378983 407.159252,36.1181177 407.304229,36.5822681 C407.588379,35.6664206 407.899578,34.6955365 408.236053,33.6789276 C409.75881,29.0781476 411.485307,24.4766318 413.384002,20.1764456 C420.318826,4.47037845 427.702502,-3.4287795 435.38053,1.4184911 Z M385.685471,13.550341 C384.354103,14.9856053 383.671385,16.4528564 383.560113,17.9676429 C383.236171,22.3775952 387.72634,27.4314504 395.464967,32.5012895 C398.139272,34.2533181 401.009697,35.8804849 403.880635,37.3390139 C404.526398,37.6670823 405.142352,37.9712914 405.722051,38.2502424 C405.488731,37.4789009 405.229738,36.6513386 404.946278,35.7785481 C403.826175,32.3296875 402.556611,28.8815649 401.164453,25.6687372 C398.75493,20.1080338 396.236931,15.8596148 393.721512,13.4813698 C390.881865,10.7965788 388.341942,10.6868139 385.685471,13.550341 Z M415.209224,21.0060327 C413.339807,25.2399083 411.635594,29.7820301 410.132009,34.3248877 C409.747817,35.4856649 409.39709,36.585753 409.081483,37.6102882 C409.83827,37.0664987 410.645789,36.4767882 411.494634,35.8457387 C415.063454,33.1926004 418.631963,30.3557344 421.959482,27.4531472 C425.279641,24.5569798 428.176155,21.752104 430.526186,19.1013912 C437.304564,11.4557343 438.858493,6.00380846 434.323946,3.14138695 C428.278222,-0.675381786 421.652768,6.41262051 415.209224,21.0060327 Z" id="Combined-Shape" fill="#010101"/>
                        </g>
                        <g transform="translate(9.000000, 0.000000)">
                            <mask id="bottomstandingskirt-mask-2" fill="#fff">
                                <use xlink:href="#bottomstandingskirt-path-1"/>
                            </mask>
                            <use fill="#F3705A" xlink:href="#bottomstandingskirt-path-1"/>
                            <g mask="url(#bottomstandingskirt-mask-2)">
                                <g transform="translate(-4.000000, 0.000000)" id="Patterns"/>
                            </g>
                        </g>
                    </g>
                </g>
            </g>
            <g id="Head" transform="translate(268.000000, 38.000000) scale(1 1)">
                <g id="Head/Hat" stroke="none" stroke-width="1" fill="none" fill-rule="evenodd">
                    <g id="Hat" transform="translate(46.000000, 27.000000)">
                        <path d="M133.9736,46.882 C133.9736,46.882 144.0826,66.968 162.8866,73.159 C169.2526,75.255 175.1786,78.567 179.9086,83.314 C188.5706,92.007 198.7186,107.75 197.4856,133.219 C195.3746,176.852 185.5136,178.59 211.5616,188.816 C246.7176,202.617 239.0076,267.284 191.1516,276.785 C169.2926,281.125 147.0096,286.555 126.6126,295.629 C101.9976,306.579 75.2326,331.456 46.9896,318.679 C23.1896,307.912 14.0436,280.928 19.2626,256.673 C22.3486,242.33 28.9886,229.037 35.6246,215.952 C42.0826,203.217 46.5026,190.609 34.1286,180.03 C27.4316,174.306 18.7476,171.686 13.1276,164.61 C0.8116,149.102 15.0996,123.447 15.2136,106.124 C15.7556,23.857 39.5246,32.228 39.5246,32.228 L89.1076,17.451 L133.9736,46.882 Z" id="Hair" fill="#010101"/>
                        <path d="M141.656896,75.7552704 C141.879267,75.7457889 142.103267,75.7409 142.3286,75.7409 C150.1816,75.7409 156.5476,81.0879 156.5476,87.6849 C156.5476,94.2819 150.1816,99.6289 142.3286,99.6289 C139.2786,99.6289 136.4606,98.8149 134.1466,97.4399 C133.4216,97.0089 132.5036,97.2189 132.0286,97.9169 C123.7616,110.0489 109.5186,119.0739 92.5506,122.3259 C91.0776,122.6089 90.0456,123.9439 90.1316,125.4409 L90.1316,125.4409 L91.7526,153.6909 L65.3136,153.6909 L66.9356,125.4409 C67.0216,123.9439 65.9896,122.6099 64.5166,122.3259 C47.4506,119.0549 33.1426,109.9449 24.8976,97.7069 C24.4086,96.9809 23.4506,96.7879 22.7096,97.2539 C20.3406,98.7429 17.4056,99.6289 14.2196,99.6289 C6.3666,99.6289 -0.0004,94.2819 -0.0004,87.6849 C-0.0004,81.0879 6.3666,75.7409 14.2196,75.7409 C14.7276,75.7409 15.2276,75.7649 15.7206,75.8109 C16.2375649,75.8590866 16.7109999,75.6393697 17.0059522,75.2696487 C17.2048,75.0111 17.3248,74.6951 17.3178,74.3431 L17.3178,74.3431 C17.3248919,74.6965555 17.2068045,75.0178815 17.0059522,75.2696487 L16.9948,75.5901 C16.9948,75.5901 67.1758,69.7651 75.1238,42.2781 L75.1678698,42.3228749 C76.6016212,43.7750612 112.73134,80.03708 141.3248,75.7731 Z" id="Skin" fill="#8D574D"/>
                        <g transform="translate(17.417139, -0.000427)">
                            <path d="M142.250361,34.3380268 C132.470361,-1.92997324 77.4583607,-3.15197324 53.0083607,2.55302676 C28.5583607,8.25802676 -17.5256393,13.8760268 6.96136071,33.1150268 C29.7813607,51.0450268 152.030361,70.6050268 142.250361,34.3380268" id="Fill-8" fill="#2F6858"/>
                            <path d="M73.3665607,20.7564268 C74.1125607,21.2904268 75.1215607,21.2664268 75.8385607,20.6944268 C78.0175607,18.9534268 82.8125607,14.9124268 80.9805607,14.4534268 C78.6365607,13.8674268 71.7775607,14.2964268 71.6905607,17.4514268 C71.6445607,19.1224268 72.5265607,20.1544268 73.3665607,20.7564268" id="Fill-11" fill="#5BA092"/>
                        </g>
                    </g>
                </g>
            </g>
            <g id="Face" transform="translate(351.000000, 129.000000) scale(1 1)">
                <g id="Face/Blushing" stroke="none" stroke-width="1" fill="none" fill-rule="evenodd">
                    <g id="Super-Happy" transform="translate(-4.000000, 0.000000)">
                        <g id="Surprised" transform="translate(19.000000, 13.000000)" fill="#010101">
                            <path d="M15.2816,13.3978 L1.4241,3.6349 C0.7468,3.1578 0.5846,2.222 1.0617,1.5448 C1.5389,0.8676 2.4746,0.7053 3.1519,1.1825 L18.6419,12.0955 C19.4586,12.6709 19.4951,13.8689 18.715,14.493 L4.633,25.758 C3.9861,26.2755 3.0421,26.1706 2.5246,25.5237 C2.0071,24.8768 2.112,23.9329 2.759,23.4154 L15.2816,13.3978 Z" id="Stroke-1"/>
                            <path d="M56.8044,2.5247 C57.3704,1.9198 57.3388,0.9705 56.7338,0.4046 C56.1288,-0.1613 55.1796,-0.1297 54.6136,0.4753 L44.4046,11.3883 C43.8462,11.9852 43.8685,12.9194 44.4549,13.4889 L56.7759,25.4579 C57.3701,26.0352 58.3197,26.0214 58.897,25.4272 C59.4742,24.833 59.4604,23.8833 58.8662,23.3061 L47.6011,12.3628 L56.8044,2.5247 Z" id="Stroke-3"/>
                        </g>
                        <path d="M37.9216,44.0808 C37.2823,43.5539 37.1912,42.6086 37.7181,41.9693 C38.2449,41.33 39.1903,41.2389 39.8296,41.7657 C39.9658,41.878 40.2762,42.1001 40.7471,42.3822 C41.5567,42.8673 42.5009,43.3155 43.5657,43.6787 C48.2622,45.2809 53.5674,44.7705 59.3408,41.0277 C60.0359,40.577 60.9647,40.7752 61.4154,41.4703 C61.866,42.1655 61.6679,43.0943 60.9727,43.5449 C54.401,47.8054 48.1372,48.4079 42.5971,46.5181 C40.4044,45.7701 38.8179,44.8195 37.9216,44.0808 Z" id="Stroke-5" fill="#010101"/>
                        <circle id="Ellipse-96" fill="#F3705A" fill-rule="nonzero" cx="23" cy="42" r="9"/>
                        <circle id="Ellipse-97" fill="#F3705A" fill-rule="nonzero" cx="75" cy="42" r="9"/>
                    </g>
                </g>
            </g>
            <g id="Body" transform="translate(143.000000, 217.000000)">
                <g transform="translate(0.000000, 0.000000)">
                    <path d="M158.9348,8.4779 C166.98548,42.5636 161.945944,82.3583825 160.807099,90.2893593 L160.7738,90.5199 L87.3868,112.0029 C87.3868,112.0029 126.9138,145.7929 157.1968,165.8749 C165.3978,171.3129 171.2618,177.8979 175.4518,184.6089 C184.400484,198.941795 186.978194,216.347209 183.214721,232.80606 L183.0608,233.4639 L176.8988,266.3219 C175.9718,271.2679 172.6688,275.5259 167.9868,277.3669 C166.1568,278.0869 164.4308,278.3429 163.3688,277.4929 C160.1808,274.9419 162.9338,249.0719 162.9338,249.0719 C162.9338,249.0719 149.5858,275.1149 138.7478,283.4029 C127.9098,291.6909 124.5118,288.3579 124.0488,287.0099 C122.7038,283.0939 135.9088,264.1199 139.0168,258.6109 C139.0168,258.6109 130.6478,265.0769 128.0908,268.5029 C125.1738,272.4099 124.8878,276.6279 117.5558,284.9159 C113.8908,289.0599 110.8898,288.2019 108.8048,286.3099 C106.565445,284.274739 105.783322,281.090462 106.537281,278.169107 L106.6178,277.8779 L109.3818,268.5179 C96.9498,282.5429 89.4608,274.5939 89.2998,272.6609 C88.9438,268.3969 101.0938,251.9409 101.0938,251.9409 C96.6318,252.2599 90.2558,247.7979 92.1688,243.9729 C92.8818,242.5469 126.0048,215.8069 126.0048,215.8069 C126.0048,215.8069 82.8618,204.0529 42.6628,164.5349 C2.4638,125.0179 -11.8452,95.0389 10.6398,64.3789 C24.7108,45.1899 113.5148,18.8209 158.9348,8.4779 Z M339.5344,22.5753 C359.5254,34.2013 402.9234,71.5643 448.6324,140.4413 C448.6324,140.4413 550.4534,75.6463 561.2524,72.5613 C572.0514,69.4753 656.9744,77.3643 662.0034,83.7343 C666.93182,89.9769 657.833598,93.2144084 647.368708,95.8656886 L646.7264,96.0273 C643.196883,96.9099259 638.530936,97.5389898 633.85823,97.9858013 C635.737654,101.470212 638.570283,109.115667 634.823,119.2702 C634.823,119.2702 641.37,125.1462 636.501,138.2412 C636.501,138.2412 646.407,139.5842 631.465,176.3502 C631.465,176.3502 628.835,183.2182 627.268,184.0732 C625.421,185.0812 618.37,181.3872 617.699,174.5042 C617.027,167.6212 620.049,161.4092 620.049,161.4092 C620.049,161.4092 614.216,169.6532 611.319,168.9642 C610.371,168.7382 607.638,166.8282 606.644,163.4102 C605.7,160.1672 607.4,154.0092 607.972,150.6572 C607.972,150.6572 604.193,154.8222 601.177,153.9172 C599.071,153.2852 596.356,149.1902 597.054,143.7822 C597.171839,142.869308 597.333217,141.979397 597.527034,141.118589 C590.028926,142.90689 582.485161,144.343322 579.5224,143.7513 C579.5224,143.7513 493.6884,238.9733 443.0594,233.9443 C404.3154,230.0953 360.9904,158.3103 338.0264,127.4693 C337.9674,126.9303 337.9344,126.6303 337.9344,126.6303 C332.8024,120.7103 339.2914,26.0913 339.5344,22.5753 Z M291.252009,6.0690715 C291.252009,6.0690715 258.564893,55.2003049 254.349893,56.1373049 C250.133893,57.0733049 205.77,2.1513 205.77,2.1513 C270.741125,-1.95431116 291.252009,6.0690715 291.252009,6.0690715 Z" id="Skin" fill="#8D574D"/>
                    <g id="Watercan" transform="translate(593.635845, 74.543813)">
                        <path d="M13.7597549,11.2210866 C36.1987549,-6.66691339 76.9037549,1.30908661 93.6777549,4.95208661 L93.6777549,4.95208661 L229.676755,24.7210866 C231.118755,24.9200866 231.800755,26.6310866 230.864755,27.7450866 C229.338755,29.5640866 226.564755,31.8990866 221.779755,33.3070866 C214.847755,35.3460866 149.854755,37.1460866 149.854755,37.1460866 L149.854755,37.1460866 L118.882755,127.245087 L44.0207549,99.9370866 C43.8420547,99.9063922 41.9433088,99.6409131 39.0302027,98.7907428 C41.2914374,92.9933655 42.8898282,88.153108 43.986608,84.1114462 L77.7907549,14.1960866 C73.8047549,13.4830866 69.2957549,12.8140866 64.5417549,12.3630866 C44.6457549,10.4700866 29.5277549,13.1460866 20.8197549,20.0940866 C18.4229047,22.0063884 16.4837608,24.252472 14.9956316,26.8509676 C12.7439573,22.0837981 10.6982927,17.9148691 9.40689774,15.3125552 C10.722724,13.8503916 12.1734094,12.4857377 13.7597549,11.2210866 Z M26.4131549,86.8653866 C26.4131549,86.8653866 25.3799593,88.9892154 24.6561563,92.1291779 C24.1230152,91.7781666 23.587699,91.4106555 23.0517549,91.0270866 C23.0450995,91.0223247 23.0384431,91.0175597 23.0317857,91.0127917 C24.8992624,89.0050282 26.4131549,86.8653866 26.4131549,86.8653866 Z M14.3361549,76.1133866 C14.0744407,77.647068 13.5765856,79.768171 13.2038871,81.9287148 C12.3884934,80.9584964 11.5867413,79.9332508 10.8061805,78.8508941 C12.7464562,77.8654626 14.3361549,76.1133866 14.3361549,76.1133866 Z M8.15347967,56.0872509 C7.00356283,57.997232 5.08505124,61.6260881 4.00434038,66.0904505 C1.98416713,60.7046586 0.562990263,54.4618286 0.0897548583,47.2430866 C0.052692102,46.677942 0.0228047509,46.1175348 8.69040434e-05,45.5618802 C2.08695532,49.3128846 4.76563799,53.0665956 8.15347967,56.0872509 Z" id="Fill-18" fill="#F3705A"/>
                        <path d="M93.6781549,4.95218661 C93.6781549,4.95218661 94.3011549,17.4561866 116.838155,20.2291866 C139.161155,22.9771866 146.545155,12.6741866 146.545155,12.6741866 L93.6781549,4.95218661 Z" id="Fill-24" fill="#E74B33"/>
                    </g>
                    <path d="M132.170583,242.966492 C132.491631,243.415876 132.387593,244.040436 131.938208,244.361483 C130.868237,245.125888 129.839385,245.749162 128.179764,246.676367 C122.563015,249.814361 120.591382,251.191982 117.196215,254.986512 C116.578625,255.676914 115.55431,257.483667 114.293255,260.059068 C114.04756,260.560842 113.794598,261.08808 113.535458,261.637848 C112.786763,263.22621 112.020018,264.93001 111.277399,266.634078 C111.017396,267.2307 110.779031,267.784626 110.567529,268.281543 C110.440853,268.579163 110.351451,268.791237 110.304537,268.903468 C110.091539,269.413027 109.50579,269.653436 108.996232,269.440437 C108.486673,269.227439 108.246264,268.64169 108.459263,268.132132 C108.507789,268.016041 108.59886,267.800009 108.727284,267.498282 C108.940947,266.996288 109.181559,266.437142 109.443937,265.83507 C110.193835,264.114299 110.968337,262.39326 111.726361,260.785106 C111.989579,260.226688 112.246801,259.690569 112.497029,259.179539 C113.844488,256.427679 114.918964,254.532448 115.705665,253.652999 C119.286321,249.65116 121.408088,248.168638 127.204306,244.930377 C128.804418,244.036418 129.779704,243.445594 130.775592,242.734117 C131.224976,242.413069 131.849536,242.517107 132.170583,242.966492 Z M146.24375,249.141331 C146.6828,249.476375 146.767112,250.103901 146.432069,250.54295 L139.812069,259.21795 C139.477025,259.657 138.849499,259.741312 138.41045,259.406269 C137.9714,259.071225 137.887088,258.443699 138.222131,258.00465 L144.842131,249.32965 C145.177175,248.8906 145.804701,248.806288 146.24375,249.141331 Z M119.470884,235.014079 C119.895161,235.367643 119.952485,235.998208 119.598921,236.422484 C118.581117,237.64385 115.646975,240.402659 111.293275,244.303235 C111.047685,244.523168 111.047685,244.523168 110.801903,244.742903 C108.820873,246.513268 106.698978,248.38393 104.57717,250.237458 C103.834602,250.886135 103.145051,251.486368 102.526161,252.023451 C102.154663,252.345844 101.889147,252.575654 101.747266,252.69817 C101.329258,253.059124 100.697784,253.012873 100.33683,252.594866 C99.9758758,252.176858 100.022127,251.545384 100.440134,251.18443 C100.580811,251.062954 100.845092,250.834214 101.215307,250.512934 C101.832609,249.977229 102.520528,249.378417 103.261389,248.73123 C105.37795,246.882287 107.494424,245.016403 109.469206,243.251622 C109.714074,243.032705 109.714074,243.032705 109.958705,242.81363 C114.215467,238.999903 117.136003,236.253887 118.062479,235.142116 C118.416043,234.717839 119.046608,234.660515 119.470884,235.014079 Z M136.025734,212.560439 C136.195927,213.085846 135.907968,213.649742 135.382561,213.819934 L126.312561,216.757934 C125.787154,216.928127 125.223258,216.640168 125.053066,216.114761 C124.882873,215.589354 125.170832,215.025458 125.696239,214.855266 L134.766239,211.917266 C135.291646,211.747073 135.855542,212.035032 136.025734,212.560439 Z M602.518948,86.5732591 C602.556872,86.6481134 602.629963,86.7928702 602.735878,87.0033903 C602.91216,87.3537729 603.116578,87.761636 603.346788,88.222841 C604.00428,89.5400632 604.736808,91.0209549 605.525635,92.6324187 C607.779518,97.2367861 610.033462,101.965779 612.13773,106.555083 C612.718383,107.821459 613.280618,109.062172 613.82251,110.273828 C619.319243,122.564375 622.261462,130.701339 621.775286,133.620648 C621.648202,134.382914 621.425604,135.041914 621.117072,135.602211 L621.35415,135.331311 L621.35415,135.331311 C623.661467,132.68637 625.753709,130.124128 627.580025,127.681662 C629.993974,124.453311 631.897122,121.495786 633.207573,118.874686 C636.689614,111.910604 636.58082,106.060046 634.341022,101.404139 C634.002293,100.700016 633.640963,100.090695 633.282298,99.579695 L633.242083,99.5237489 C631.11494,99.8274732 628.981674,100.093442 626.848489,100.32352 C623.297333,100.706535 619.999234,100.960757 617.037992,101.1109 C616.000215,101.163518 615.078192,101.199364 614.282412,101.221519 C613.802658,101.234876 613.47017,101.2407 613.295437,101.242101 C612.743169,101.246397 612.291959,100.802205 612.287599,100.249937 C612.283303,99.6976691 612.727495,99.2464589 613.279763,99.2421307 C613.441372,99.2408642 613.760544,99.2352734 614.226751,99.2222937 C615.007571,99.2005549 615.914404,99.1652994 616.936717,99.1134655 C619.861449,98.965174 623.122007,98.7138459 626.63402,98.3350524 C628.749903,98.1068406 630.865707,97.8429329 632.975073,97.5415249 L632.908569,97.5946502 C633.196932,97.3319613 633.597138,97.269508 633.938392,97.3993328 C641.500574,96.2784084 648.967422,94.6691299 656.04503,92.4899676 C656.379052,92.3871239 656.711741,92.2831226 657.043077,92.177958 C657.569483,92.010879 658.131663,92.302171 658.298742,92.8285768 C658.465821,93.3549826 658.174529,93.9171631 657.648123,94.084242 C657.31127,94.1911578 656.973074,94.2968805 656.633556,94.4014165 C649.824919,96.497764 642.673083,98.0719761 635.425075,99.1983484 C635.658786,99.5879573 635.901713,100.034887 636.143318,100.537116 C638.447923,105.327738 638.730848,111.224775 635.809819,118.020216 C640.102188,122.031108 640.83931,129.766319 638.160359,136.847664 C637.231027,139.303181 634.513042,143.732514 630.449983,149.648837 C630.038915,150.247403 629.616384,150.857665 629.183277,151.478553 C627.17028,154.36432 625.014452,157.358817 622.858738,160.28914 C622.104312,161.314653 621.403719,162.258987 620.774865,163.100468 C620.554654,163.395135 620.359101,163.655949 620.190445,163.8802 C620.089065,164.014999 620.019308,164.107483 619.982678,164.155916 C619.649531,164.596406 619.022374,164.683425 618.581884,164.350278 C618.141394,164.017131 618.054375,163.389974 618.387522,162.949484 C618.422595,162.903111 618.491763,162.811408 618.592048,162.678066 C618.7595,162.455416 618.953834,162.196228 619.172805,161.903219 C619.798756,161.065623 620.496376,160.125297 621.247716,159.103979 C623.394192,156.186213 625.540554,153.204864 627.542935,150.334316 C627.973313,149.71734 628.393076,149.111075 628.801325,148.516614 C632.765315,142.74455 635.439447,138.386681 636.289793,136.139863 C638.602904,130.025551 638.10316,123.463238 634.90628,119.94866 L634.996441,119.769086 C633.626108,122.509961 631.66144,125.563087 629.181765,128.879338 C627.323126,131.365033 625.199713,133.965447 622.86128,136.646057 C619.752942,140.209231 616.4249,143.734964 613.09703,147.067665 C611.932314,148.234072 610.850567,149.293279 609.879342,150.225712 C609.539012,150.552449 609.23667,150.840125 608.975762,151.086292 C608.818563,151.23461 608.709702,151.336507 608.652625,151.389532 C608.248004,151.765431 607.615267,151.742147 607.239368,151.337525 C606.863469,150.932904 606.886753,150.300167 607.291375,149.924268 C607.344733,149.874697 607.44984,149.776315 607.603241,149.631581 C607.859998,149.389331 608.158148,149.105643 608.494234,148.78298 C609.455626,147.859987 610.527367,146.810578 611.681791,145.654478 C614.422499,142.909791 617.163089,140.033253 619.77626,137.115975 C618.565047,137.972327 616.89343,138.253855 614.905825,138.030442 C612.606101,137.771945 610.246647,136.948149 607.840856,135.837166 C601.68987,132.998366 596.721636,127.691009 592.794802,120.648684 C590.695314,116.883494 589.025783,112.857215 587.740189,108.831697 C587.290248,107.422818 586.92015,106.113703 586.624502,104.937189 C586.520631,104.52384 586.433389,104.156052 586.362111,103.837937 C586.318767,103.644492 586.290071,103.508989 586.275364,103.435542 C586.166928,102.894007 586.518023,102.367101 587.059558,102.258664 C587.601093,102.150228 588.127999,102.501323 588.236436,103.042858 C588.248202,103.101618 588.273751,103.222266 588.313721,103.400652 C588.381299,103.702257 588.46458,104.053344 588.564196,104.449761 C588.849941,105.586867 589.208675,106.855785 589.64539,108.22325 C590.893099,112.130141 592.51281,116.036272 594.541595,119.674664 C598.279757,126.378629 602.965758,131.384488 608.67915,134.021329 C610.90435,135.048916 613.097236,135.814556 615.129225,136.042958 C617.875787,136.351681 619.423661,135.564173 619.802486,133.291924 C620.188005,130.97702 617.221111,122.771815 611.996782,111.090353 C611.457507,109.884551 610.897841,108.649508 610.319726,107.388667 C608.223194,102.816234 605.976281,98.1019944 603.729307,93.5117389 C602.942834,91.9050846 602.212584,90.4288 601.557326,89.1160509 L601.294748,88.590762 C601.211446,88.4243718 601.13242,88.2667761 601.057819,88.1182402 L600.949254,87.9022643 C600.844192,87.69344 600.771943,87.5503509 600.734852,87.4771409 C600.485252,86.9844764 600.682295,86.3827522 601.174959,86.1331521 C601.667624,85.8835521 602.269348,86.0805947 602.518948,86.5732591 Z M449.446911,139.860691 C449.767628,140.310312 449.66313,140.934795 449.213509,141.255511 C449.145298,141.304166 449.010433,141.403337 448.818508,141.549297 C448.494679,141.795573 448.132816,142.081285 447.742537,142.402659 C446.62659,143.321585 445.510583,144.338898 444.47189,145.423022 C442.14788,147.848682 440.563199,150.240771 440.046596,152.410065 C439.918651,152.947325 439.379395,153.279141 438.842135,153.151196 C438.304875,153.023251 437.973059,152.483995 438.101004,151.946735 C438.717126,149.359547 440.4798,146.698777 443.027741,144.039392 C444.125353,142.893771 445.298245,141.824603 446.471197,140.858737 C446.882034,140.520434 447.264063,140.2188 447.607828,139.957363 C447.816461,139.798696 447.967709,139.687479 448.052091,139.627289 C448.501712,139.306572 449.126195,139.41107 449.446911,139.860691 Z M572.071433,131.52628 C572.094506,131.613073 572.145232,131.788313 572.224625,132.039194 C572.359156,132.464311 572.524437,132.939796 572.721395,133.452786 C573.284268,134.918825 573.985414,136.384371 574.829704,137.74583 C576.281445,140.086833 577.997908,141.861494 579.972694,142.858522 C580.465707,143.107433 580.66359,143.708881 580.414678,144.201894 C580.165767,144.694907 579.564319,144.89279 579.071306,144.643878 C576.724237,143.458894 574.759534,141.427575 573.130002,138.799877 C572.213587,137.322112 571.459368,135.745633 570.854282,134.169648 C570.642454,133.617929 570.464073,133.104755 570.317826,132.642615 C570.228751,132.361142 570.169408,132.156129 570.138567,132.04012 C569.996674,131.506374 570.314334,130.958661 570.84808,130.816767 C571.381826,130.674874 571.929539,130.992534 572.071433,131.52628 Z M81.0620823,103.889543 L88.1120823,111.314543 C88.4923618,111.71505 88.475964,112.348003 88.0754569,112.728282 C87.6749498,113.108562 87.0419972,113.092164 86.6617177,112.691657 L79.6117177,105.266657 C79.2314382,104.86615 79.247836,104.233197 79.6483431,103.852918 C80.0488502,103.472638 80.6818028,103.489036 81.0620823,103.889543 Z" id="Skin-Shadows" fill="#C68E80"/>
                    <g id="Shirt" transform="translate(145.000000, 2.237144)">
                        <mask id="masterscenewatering-plants-mask-4" fill="#fff">
                            <use xlink:href="#masterscenewatering-plants-path-3"/>
                        </mask>
                        <use fill="#94C0E9" xlink:href="#masterscenewatering-plants-path-3"/>
                        <g mask="url(#masterscenewatering-plants-mask-4)">
                            <g transform="translate(-33.000000, 0.762856) scale(1 1)" id="Patterns">
                                <g id="Patterns/Pattern 4" stroke="none" stroke-width="1" fill="none" fill-rule="evenodd">
                                    <path d="M44.0182254,93.5340618 C52.0762519,97.8410164 62.8281863,99.5580091 73.7432963,98.6961198 C84.9214172,86.0149568 98.2590604,74.9374286 113.525562,66.114744 C111.795813,50.5778981 112.596907,34.8919 115.921886,19.4921175 C119.566814,2.60622659 125.826132,-9.94555973 137.125727,-19.5201488 C141.682325,-23.3806561 146.282471,-25.6343501 151.410836,-25.8053688 C157.514804,-26.0092903 163.523098,-22.8919386 166.608532,-18.3025013 C169.049667,-14.671429 169.792206,-10.7934007 169.783037,-4.96317236 C169.750763,14.3555838 163.536422,33.5124984 152.079347,50.7359233 C169.215323,47.037986 187.016949,47.1020175 202.183477,51.3901057 C208.479788,39.2548243 216.994427,30.813456 229.101431,26.7877312 C243.703137,21.932588 262.357131,24.6509903 277.489768,32.7320135 C290.300029,39.5732087 299.218371,49.1243735 301.443832,59.4854 C304.070392,71.712639 297.233538,84.7957391 284.324539,94.4728077 C275.394203,101.166782 263.970886,106.32409 249.832614,110.488019 C253.172841,134.733065 249.125812,159.013945 237.759392,180.926682 C225.520642,204.524775 204.539835,221.735254 178.141554,225.962184 C153.639383,229.885425 126.269596,221.90624 105.733064,206.59389 C94.6043998,209.573522 82.9748652,210.950551 71.5300011,210.432991 C59.6847044,209.897381 48.2014373,207.31355 37.5830246,203.103165 C37.7137448,209.512773 38.6258562,214.810599 40.5947001,219.841804 C45.5275666,232.451976 58.634875,242.133846 75.7961417,245.229536 C76.8327059,245.416519 77.5208593,246.405268 77.3331755,247.437966 C77.1454917,248.470665 76.1530427,249.156252 75.1164785,248.969269 C56.7157903,245.650002 42.48382,235.137387 37.0404096,221.222083 C34.7134425,215.275726 33.7534971,209.080513 33.7509399,201.496814 C11.9881624,191.872732 -5.7205525,175.351613 -14.7688091,155.79636 C-23.4779655,136.975941 -23.3599294,118.176299 -12.4984613,103.540211 C-8.30374525,97.8880955 -2.707945,94.2154777 3.86147462,93.9654432 C11.1943751,93.6857725 17.0062161,97.2459731 23.47172,104.131127 C32.7503458,114.0124 41.5660698,124.123375 49.8991656,134.440352 C55.4065684,123.168154 62.2536876,112.490026 70.3416952,102.68498 C60.0251578,102.977926 50.0303579,101.060445 42.2147943,96.8830845 C33.1835805,92.0560845 27.4210711,84.8272679 24.3869137,75.4928301 C23.6714736,73.2918133 23.1126956,71.0115863 22.6958238,68.6269781 C15.4956378,70.2072486 8.0461095,70.6348461 0.515901309,69.7658747 C-0.530520844,69.6451196 -1.28055586,68.7020989 -1.15934878,67.6595789 C-1.03814171,66.617059 -0.091591195,65.8698209 0.954830958,65.990576 C8.14723448,66.8205654 15.2715334,66.3940787 22.161834,64.8488151 C21.6492564,60.1798774 21.6054316,55.1012565 21.9341307,49.4488013 C22.7130774,36.0528548 25.2621454,18.0540768 29.8335486,2.82171112 C37.0589335,-21.253983 48.0607288,-34.1763773 63.760381,-30.3293767 C72.7533757,-28.1242575 81.2667579,-18.4335411 83.2884367,-10.0552414 C87.1020447,5.75193498 79.291465,27.1526184 63.8974311,43.995379 C53.3378951,55.5486691 40.4043589,63.8209414 26.3890229,67.7097415 C28.3205825,79.565654 33.7073534,88.0231105 44.0182254,93.5340618 Z M75.6166802,102.344701 C66.2975055,113.125429 58.5574801,125.060813 52.5422838,137.740007 C56.7671237,143.058431 60.8642321,148.430475 64.8309404,153.852933 C66.2338928,155.770808 67.5143338,157.544148 69.7307156,160.630093 C70.5060141,161.709735 70.9066388,162.267578 71.2813341,162.788947 C85.85123,183.062175 94.1586138,192.850041 106.540183,202.426631 C119.611573,198.69858 131.905946,192.68579 142.195445,184.909797 C159.095899,172.137764 170.930261,155.019358 178.219156,134.610606 C179.934864,129.807456 181.302503,125.321446 182.711334,119.809936 C179.748704,119.753593 176.80406,119.629489 173.88046,119.436434 C155.326716,118.211448 140.287553,114.015541 130.487045,106.108456 C123.992784,100.868023 119.971152,94.3946889 117.316883,85.8457306 C107.074634,92.9865074 96.7217409,97.9691809 85.5639507,100.657476 C82.288734,101.446534 78.9523826,102.009491 75.6166802,102.344701 Z M132.887941,103.155032 C141.946863,110.463802 156.293061,114.466373 174.132732,115.644214 C177.279885,115.85203 180.452851,115.978291 183.6476,116.024513 C184.642745,111.876547 185.697839,107.103154 186.939871,101.266314 C187.066259,100.672218 187.066259,100.672218 187.192625,100.077941 C192.034489,77.3077942 194.845489,66.9961475 200.485065,54.8635529 C184.895127,50.6096228 166.3447,50.9616597 148.807022,55.4089399 C141.57849,65.22855 132.599673,74.3369562 122.05631,82.3838417 C121.568645,82.7560559 121.080972,83.1234088 120.593216,83.4858854 C123.041924,91.9878193 126.763539,98.2130503 132.887941,103.155032 Z M79.5166399,98.0000226 C81.2439957,97.71926 82.9642386,97.3737099 84.6672801,96.9634165 C95.7183966,94.3008231 105.992953,89.2573803 116.234936,81.9523263 C115.798927,80.1957113 115.407103,78.3584909 115.051708,76.434751 C114.669827,74.3673538 114.333295,72.2955549 114.042095,70.2203977 C101.015371,77.9311479 89.4554046,87.3362091 79.5166399,98.0000226 Z M181.813158,135.884738 C174.286716,156.958616 162.026111,174.693584 144.500902,187.937757 C134.569512,195.443119 122.856649,201.357261 110.371526,205.250336 C129.830472,218.861848 155.034987,225.812652 177.536217,222.209798 C202.642672,218.189717 222.652471,201.775753 234.370355,179.181965 C245.288412,158.133606 249.227766,134.838906 246.125812,111.540274 C244.330207,112.031643 242.493286,112.508705 240.614636,112.972471 C222.461805,117.453614 204.258379,119.82647 186.637569,119.845047 C185.119929,125.882014 183.667788,130.692674 181.813158,135.884738 Z M68.1796435,165.001465 C67.8045122,164.47949 67.4034403,163.921024 66.6283545,162.841678 C64.4180446,159.764188 63.1426757,157.997872 61.7480367,156.091361 C58.1911465,151.229122 54.5284064,146.407452 50.7617647,141.628709 C43.3409539,158.435912 38.907291,176.448615 37.7885672,194.742383 C37.6982764,196.218981 37.6343517,197.638424 37.5989416,199.007305 C48.2139241,203.396412 59.7680666,206.096698 71.7029708,206.636359 C81.7922612,207.092618 92.0402916,206.020427 101.934222,203.637615 C90.3976329,194.317503 82.0617035,184.317607 68.1796435,165.001465 Z M33.9808612,194.511273 C35.1677769,175.102406 39.9949994,156.004866 48.0905909,138.268706 C39.4756455,127.524248 30.3332954,117.001481 20.6859682,106.72756 C14.9069565,100.573455 9.94941352,97.5365783 4.00725378,97.7632073 C-1.24604488,97.9631498 -5.86501352,100.994657 -9.43105194,105.799669 C-19.369178,119.191531 -19.4781154,136.542012 -11.3044483,154.205242 C-2.85333004,172.46995 13.5764372,188.024304 33.8361044,197.362932 C33.8729331,196.433819 33.9213909,195.483838 33.9808612,194.511273 Z M282.030975,91.4358966 C293.863766,82.5655939 299.984539,70.8527947 297.713527,60.2807116 C295.758988,51.1810117 287.600615,42.4437407 275.687541,36.0816796 C261.418823,28.4620003 243.826246,25.8982756 230.309133,30.3927859 C219.464306,33.9988216 211.726365,41.5381068 205.885276,52.5391858 C208.577377,53.452293 211.172074,54.5081795 213.649129,55.7096784 C233.870467,65.5183273 245.285319,83.6154911 249.248616,106.695606 C262.750783,102.676391 273.618167,97.7419433 282.030975,91.4358966 Z M165.968355,-4.96931235 C165.97636,-10.1098725 165.359664,-13.3306681 163.439022,-16.1875327 C161.081805,-19.6937813 156.315844,-22.166559 151.53857,-22.0069597 C147.413646,-21.8694034 143.556999,-19.979963 139.597127,-16.6250227 C129.03151,-7.67236175 123.135269,4.15134575 119.651366,20.2912575 C116.527776,34.7582973 115.691061,49.481349 117.147017,64.084087 C121.4974,61.7183012 125.997011,59.5325951 130.640816,57.5411813 C135.756897,55.3472461 141.087074,53.5196659 146.522544,52.0736723 C159.096423,34.5762928 165.935142,14.8645954 165.968355,-4.96931235 Z M118.803466,75.7468525 C119.042111,77.0386287 119.297142,78.2865448 119.571099,79.4928339 C119.62619,79.450913 119.681283,79.408927 119.736377,79.366876 C128.549713,72.6403788 136.229625,65.1616249 142.664854,57.1480699 C139.083892,58.2702533 135.566762,59.5664434 132.149046,61.0320668 C127.12948,63.1846189 122.282419,65.5698882 117.614553,68.1690063 C117.941697,70.7002989 118.337991,73.2269045 118.803466,75.7468525 Z M190.924566,100.865596 C190.798184,101.459949 190.798184,101.459949 190.671698,102.054505 C189.509391,107.516679 188.50807,112.06114 187.564878,116.041241 C204.576826,115.941782 222.15382,113.614173 239.697148,109.283489 C241.700678,108.788895 243.654516,108.279216 245.559119,107.753298 C241.851877,85.5856315 231.092442,68.3978752 211.979227,59.1267373 C209.498949,57.9236751 206.8893,56.8741114 204.173443,55.9750685 C198.540728,67.9794751 195.772885,78.0650913 190.924566,100.865596 Z M61.0768202,41.4365737 C75.6921585,25.4457913 83.0597071,5.258996 79.5793261,-9.16697406 C77.8717115,-16.2437199 70.3567282,-24.7979667 62.8489833,-26.6388966 C49.8826769,-29.8161255 40.1953578,-18.4376774 33.4884438,3.91042063 C29.0171861,18.8090918 26.5058132,36.5417078 25.7425109,49.6686091 C25.4422644,54.8317811 25.4735803,59.567991 25.8964257,63.8956898 C38.9999593,60.1425496 51.1224904,52.3277018 61.0768202,41.4365737 Z" id="Pattern" fill="#010101"/>
                                </g>
                            </g>
                        </g>
                    </g>
                </g>
            </g>
        </g>
    </g>
</svg>
