<svg viewBox="386.863 271.476 1602.718 1108.065" xmlns="http://www.w3.org/2000/svg" xmlns:xlink="http://www.w3.org/1999/xlink" overflow="visible">
    <defs>
        <path d="M0.0517,15.5105 C0.0517,15.5105 44.4917,0.2615 118.5737,0.2394687 C169.6617,0.2245 208.4967,5.5925 237.8677,34.4405 L207.2647,101.0805 L227.0637,196.5115 C227.0637,196.5115 142.3247,229.7735 40.5587,198.0955 L33.8267,80.0945 L0.0517,15.5105 Z" id="masterscenediscussion-path-1"/>
        <path d="M52.3136,35.579135 C24.2816,81.676135 4.8836,207.462135 2.2606,277.621135 C-0.3234,346.744135 -2.5224,369.424135 24.0216,375.641135 L20.9416,395.273135 C20.9416,395.273135 56.8156,403.737135 69.2736,403.737135 L71.7646,381.221135 C71.7646,381.221135 106.2666,390.699135 102.8016,283.649135 C99.3756,177.776135 99.183,197.520663 99.183,197.520663 C99.183,197.520663 215.052691,200.84399 264.887691,195.23699 C264.887691,195.23699 271.3276,255.415135 342.3426,228.005135 C413.3576,200.596135 464.4386,149.515135 464.4386,149.515135 C464.4386,149.515135 487.5286,127.397135 476.3156,106.217135 L498.1186,90.644135 C498.1186,90.644135 483.2306,63.754135 470.0866,50.153135 L445.1696,65.726135 C445.1696,65.726135 422.6146,34.117135 354.3786,106.794135 L319.2936,143.286135 C319.2936,143.286135 301.6456,4.00813497 195.6906,1.57413497 C181.7536,1.25413497 80.3456,-10.518865 52.3136,35.579135 Z" id="masterscenediscussion-path-3"/>
    </defs>
    <g id="Master/Scene/Discussion" stroke="none" stroke-width="1" fill="none" fill-rule="evenodd">
        <g id="Background" transform="translate(398.000000, 283.000000)">
            <g id="Abstract">
                <path d="M1087.9735,0.0148 L1258.9165,3.9258 C1294.0025,4.7288 1320.4785,36.0498 1315.4275,70.7798 L1259.0525,458.4448 C1253.5995,495.9398 1220.0605,522.8198 1182.2785,519.9758 L1018.3355,507.6338 C989.1475,505.4368 967.9275,478.9728 972.1275,450.0038 L1030.2955,48.7898 C1034.4275,20.2888 1059.1825,-0.6442 1087.9735,0.0148" id="Fill-1" fill="#CDB1AA"/>
                <polygon id="Fill-4" fill="#FFF5EE" points="129.4999 227.3449 538.1379 227.3449 637.9049 804.0839 207.3999 804.0839"/>
                <path d="M81.515,278.876 L81.515,179.36 L181.031,179.36 L181.031,278.876 L81.515,278.876 Z M90.019,270.372 L172.527,270.372 L172.527,187.864 L90.019,187.864 L90.019,270.372 Z" id="Stroke-6" fill="#CDB1AA"/>
                <polygon id="Fill-8" fill="#FFF5EE" points="353.636 94.777 601.005 94.777 601.005 0.476 353.636 0.476"/>
                <polygon id="Fill-9" fill="#F4F0F0" points="376.869 545.781 629.705 545.781 629.705 292.945 376.869 292.945"/>
                <polygon id="Fill-10" fill="#E3D4C5" points="88.499 757.617 308.535 757.617 308.535 537.581 88.499 537.581"/>
                <polygon id="Fill-11" fill="#FFF5EE" points="705.997 201.823 883.665 201.823 883.665 117.089 705.997 117.089"/>
                <path d="M1089.5458,19.1105 L1250.6468,23.3465 C1280.1178,24.1225 1302.1918,50.6325 1297.6138,79.7565 L1237.7888,460.4695 C1233.7908,485.9165 1210.7838,503.9285 1185.1218,501.7055 L1014.7228,486.9425 C997.5938,485.4595 985.3088,469.7695 987.9758,452.7845 L1051.0428,51.1725 C1054.0018,32.3305 1070.4808,18.6085 1089.5458,19.1105" id="Fill-12" fill="#F4F0F0"/>
                <path d="M1190.495,38.2726 L1147.432,38.2726 C1135.789,38.2726 1126.351,28.8346 1126.351,17.1916 L1126.351,8.0556 L1211.576,8.0556 L1211.576,17.1916 C1211.576,28.8346 1202.138,38.2726 1190.495,38.2726" id="Fill-13" fill="#CDB1AA"/>
                <path d="M1102.4091,132.9728 L1102.4091,130.4728 L1315.4791,130.4728 C1326.85727,130.4728 1335.62842,140.494914 1334.12106,151.773058 L1314.27908,300.199851 C1313.03124,309.54022 1305.06122,316.5158 1295.6381,316.5158 L1082.5671,316.5158 C1071.18961,316.5158 1062.41782,306.493373 1063.92514,295.215544 L1083.76716,146.787409 C1085.01624,137.447573 1092.98573,130.4728 1102.4091,130.4728 L1102.4091,132.9728 Z" id="Fill-14" fill="#FFF5EE"/>
                <path d="M1102.4091,132.9728 L1102.4091,135.4728 C1095.49101,135.4728 1089.64003,140.593486 1088.72306,147.450056 L1068.88107,295.877989 C1067.77443,304.15786 1074.21422,311.5158 1082.5671,311.5158 L1295.6381,311.5158 C1302.55577,311.5158 1308.40706,306.39459 1309.32314,299.537542 L1329.16513,151.110611 C1330.27182,142.830379 1323.83262,135.4728 1315.4791,135.4728 L1102.4091,135.4728 L1102.4091,132.9728 Z" id="Path" fill="#F4F0F0"/>
                <polygon id="Fill-15" fill="#E3D4C5" points="1164.1268 250.3361 1098.0748 248.1581 1109.4318 168.3941 1174.4388 169.4241"/>
                <path d="M1084.9022,430.7736 L946.6602,430.7736 C933.1092,430.7736 923.1652,418.0386 926.4522,404.8916 L934.4462,372.9166 C936.7642,363.6426 945.0952,357.1376 954.6542,357.1376 L1092.8952,357.1376 C1106.4472,357.1376 1116.3902,369.8736 1113.1042,383.0196 L1105.1102,414.9956 C1102.7922,424.2686 1094.4602,430.7736 1084.9022,430.7736" id="Fill-16" fill="#E3D4C5"/>
                <path d="M1202.4071,183.0286 C1200.05879,183.0286 1198.1551,181.124915 1198.1551,178.7766 C1198.1551,176.428285 1200.05879,174.5246 1202.4071,174.5246 L1302.0641,174.5246 C1304.41241,174.5246 1306.3161,176.428285 1306.3161,178.7766 C1306.3161,181.124915 1304.41241,183.0286 1302.0641,183.0286 L1202.4071,183.0286 Z" id="Stroke-17" fill="#E3D4C5"/>
                <path d="M1199.3641,215.7405 C1197.01579,215.7405 1195.1121,213.836815 1195.1121,211.4885 C1195.1121,209.140185 1197.01579,207.2365 1199.3641,207.2365 L1260.9841,207.2365 C1263.33241,207.2365 1265.2361,209.140185 1265.2361,211.4885 C1265.2361,213.836815 1263.33241,215.7405 1260.9841,215.7405 L1199.3641,215.7405 Z" id="Stroke-18" fill="#E3D4C5"/>
                <path d="M1311.8387,279.8449 L1205.8517,279.8449 C1195.2377,279.8449 1187.5747,269.6859 1190.4907,259.4809 C1192.4497,252.6219 1198.7187,247.8939 1205.8517,247.8939 L1311.8387,247.8939 C1322.4517,247.8939 1330.1147,258.0529 1327.1987,268.2579 C1325.2397,275.1159 1318.9717,279.8449 1311.8387,279.8449" id="Fill-19" fill="#CDB1AA"/>
                <path d="M1067.6861,392.6213 C1074.86206,392.6213 1080.7831,396.882978 1080.7831,402.3283 C1080.7831,404.464062 1079.87651,405.727101 1078.11671,406.10382 C1076.97107,406.349068 1076.3559,406.303091 1072.8205,405.871257 C1070.86261,405.632108 1069.55685,405.5243 1068.1281,405.5243 C1066.70211,405.5243 1065.38857,405.629343 1063.27995,405.872074 C1059.64678,406.290303 1058.81,406.347333 1057.55193,406.108415 C1055.63256,405.74391 1054.5901,404.485248 1054.5901,402.3283 C1054.5901,396.883105 1060.51098,392.6213 1067.6861,392.6213 Z M1017.05358,380.087058 L1027.67558,391.222058 C1028.2827,391.858505 1027.83158,392.9123 1026.952,392.9123 L1024.508,392.9123 L1024.508,403.4413 C1024.508,403.993585 1024.06028,404.4413 1023.508,404.4413 L1008.403,404.4413 C1007.85072,404.4413 1007.403,403.993585 1007.403,403.4413 L1007.403,392.9123 L1004.723,392.9123 C1003.82205,392.9123 1003.38057,391.814381 1004.03072,391.190673 L1015.63772,380.055673 C1016.03706,379.672573 1016.67161,379.686639 1017.05358,380.087058 Z M1067.6861,394.6213 C1061.50067,394.6213 1056.5901,398.155889 1056.5901,402.3283 C1056.5901,403.524437 1056.94939,403.958241 1057.92508,404.143534 C1058.88703,404.326216 1059.7034,404.270577 1063.05124,403.885195 C1065.23048,403.634334 1066.60642,403.5243 1068.1281,403.5243 C1069.65612,403.5243 1071.03108,403.637822 1073.06299,403.886012 C1076.25863,404.276345 1076.88161,404.322906 1077.69806,404.148129 C1078.48542,403.97958 1078.7831,403.564854 1078.7831,402.3283 C1078.7831,398.155794 1073.87238,394.6213 1067.6861,394.6213 Z M1016.29862,382.193166 L1007.20989,390.9123 L1008.403,390.9123 C1008.95528,390.9123 1009.403,391.360015 1009.403,391.9123 L1009.403,402.4413 L1022.508,402.4413 L1022.508,391.9123 C1022.508,391.360015 1022.95572,390.9123 1023.508,390.9123 L1024.61605,390.9123 L1016.29862,382.193166 Z M971.5223,383.2077 C973.711292,383.2077 975.4863,384.983122 975.4863,387.1717 L975.4863,388.2257 L978.6463,388.2257 C979.198585,388.2257 979.6463,388.673415 979.6463,389.2257 L979.6463,401.2467 C979.6463,401.798985 979.198585,402.2467 978.6463,402.2467 L956.2163,402.2467 C955.664015,402.2467 955.2163,401.798985 955.2163,401.2467 L955.2163,389.2257 C955.2163,388.673415 955.664015,388.2257 956.2163,388.2257 L959.3763,388.2257 L959.3763,387.1717 C959.3763,384.983122 961.151308,383.2077 963.3403,383.2077 L971.5223,383.2077 Z M971.5223,385.2077 L963.3403,385.2077 C962.255982,385.2077 961.3763,386.087587 961.3763,387.1717 L961.3763,389.2257 C961.3763,389.777985 960.928585,390.2257 960.3763,390.2257 L957.2163,390.2257 L957.2163,400.2467 L977.6463,400.2467 L977.6463,390.2257 L974.4863,390.2257 C973.934015,390.2257 973.4863,389.777985 973.4863,389.2257 L973.4863,387.1717 C973.4863,386.087587 972.606618,385.2077 971.5223,385.2077 Z M967.4312,389.6824 C969.786581,389.6824 971.6972,391.592211 971.6972,393.9474 C971.6972,396.303387 969.786783,398.2134 967.4312,398.2134 C965.075713,398.2134 963.1662,396.303483 963.1662,393.9474 C963.1662,391.592115 965.075915,389.6824 967.4312,389.6824 Z M967.4312,391.6824 C966.180485,391.6824 965.1662,392.696685 965.1662,393.9474 C965.1662,395.199008 966.180377,396.2134 967.4312,396.2134 C968.682308,396.2134 969.6972,395.198723 969.6972,393.9474 C969.6972,392.69697 968.682201,391.6824 967.4312,391.6824 Z M1067.6868,377.7281 C1071.71604,377.7281 1075.0018,380.862205 1075.0018,384.7521 C1075.0018,388.641176 1071.71585,391.7751 1067.6868,391.7751 C1063.65707,391.7751 1060.3718,388.64148 1060.3718,384.7521 C1060.3718,380.861901 1063.65688,377.7281 1067.6868,377.7281 Z M1067.6868,379.7281 C1064.74091,379.7281 1062.3718,381.988112 1062.3718,384.7521 C1062.3718,387.515216 1064.74105,389.7751 1067.6868,389.7751 C1070.63192,389.7751 1073.0018,387.514861 1073.0018,384.7521 C1073.0018,381.988467 1070.63206,379.7281 1067.6868,379.7281 Z" id="Combined-Shape" fill="#F4F0F0"/>
                <polygon id="Fill-25" fill="#CDB1AA" points="135.8681 528.8283 105.4361 511.1803 9.99999993e-05 511.1803 9.99999993e-05 453.8413 135.8681 453.8413"/>
                <path d="M616.6101,307.0314 L616.6101,344.6494 C616.6101,346.997715 614.706415,348.9014 612.3581,348.9014 C610.009785,348.9014 608.1061,346.997715 608.1061,344.6494 L608.1054,321.7244 L407.8694,521.9594 L430.9706,521.9601 C433.318915,521.9601 435.2226,523.863785 435.2226,526.2121 C435.2226,528.560415 433.318915,530.4641 430.9706,530.4641 L393.3526,530.4641 L393.3526,492.8471 C393.3526,490.498785 395.256285,488.5951 397.6046,488.5951 C399.952915,488.5951 401.8566,490.498785 401.8566,492.8471 L401.8564,515.9464 L602.2684,315.5354 L578.9931,315.5354 C576.644785,315.5354 574.7411,313.631715 574.7411,311.2834 C574.7411,308.935085 576.644785,307.0314 578.9931,307.0314 L616.6101,307.0314 Z" id="Combined-Shape" fill="#CDB1AA"/>
                <path d="M475.4097,292.0852 C475.4097,294.433515 473.506015,296.3372 471.1577,296.3372 C468.809385,296.3372 466.9057,294.433515 466.9057,292.0852 L466.9057,156.4572 L707.6357,156.4572 C709.984015,156.4572 711.8877,158.360885 711.8877,160.7092 C711.8877,163.057515 709.984015,164.9612 707.6357,164.9612 L475.4097,164.9612 L475.4097,292.0852 Z" id="Stroke-29" fill="#FFF5EE"/>
                <path d="M937.6368,55.5618 L600.0078,55.5618 C597.659485,55.5618 595.7558,53.6581148 595.7558,51.3098 C595.7558,48.9614852 597.659485,47.0578 600.0078,47.0578 L946.1408,47.0578 L946.1408,165.2028 C946.1408,167.551115 944.237115,169.4548 941.8888,169.4548 C939.540485,169.4548 937.6368,167.551115 937.6368,165.2028 L937.6368,55.5618 Z" id="Stroke-30" fill="#FFF5EE"/>
                <path d="M924.0849,383.6663 C926.433215,383.6663 928.3369,385.569985 928.3369,387.9183 C928.3369,390.266615 926.433215,392.1703 924.0849,392.1703 L908.3249,392.1703 L908.3249,160.9503 L1076.1239,160.9503 C1078.47221,160.9503 1080.3759,162.853985 1080.3759,165.2023 C1080.3759,167.550615 1078.47221,169.4543 1076.1239,169.4543 L916.8289,169.4543 L916.8289,383.6663 L924.0849,383.6663 Z" id="Stroke-31" fill="#FFF5EE"/>
                <path d="M141.286,808.3361 C138.937685,808.3361 137.034,806.432415 137.034,804.0841 C137.034,801.735785 138.937685,799.8321 141.286,799.8321 L1409.904,799.8321 C1412.25231,799.8321 1414.156,801.735785 1414.156,804.0841 C1414.156,806.432415 1412.25231,808.3361 1409.904,808.3361 L141.286,808.3361 Z" id="Stroke-32" fill="#FFF5EE"/>
            </g>
        </g>
        <g transform="translate(1495.500000, 879.000000) scale(-1, 1) translate(-1495.500000, -879.000000) translate(1011.000000, 381.000000) scale(1 1)" id="Master/Character/Standing">
            <defs>
                <path d="M109.349893,53.900161 C113.481551,52.981688 144.970514,5.75600247 146.214144,3.88880036 C163.157042,7.1710553 179.732671,12.3563028 194.5425,20.2265561 L194.534447,20.342795 C194.273846,24.1150757 187.81006,118.481216 192.9335,124.393556 L192.941093,124.461309 C193.187039,126.661869 199.30416,181.841416 196.1515,198.396556 C192.9335,215.288556 179.5055,194.246556 179.5055,194.246556 L179.493372,194.278417 C179.199722,195.046486 173.626713,209.436596 168.5975,208.598556 C163.4305,207.737556 153.3835,197.403556 153.3835,197.403556 L153.374748,197.427811 C153.092349,198.206414 146.00353,217.45697 136.1595,215.488556 C126.1125,213.478556 123.8155,199.700556 123.8155,199.700556 C123.8155,199.700556 117.2135,215.488556 106.8795,214.914556 C96.5455,214.339556 94.5365,201.708556 94.5365,201.708556 C94.5365,201.708556 89.6555,215.488556 82.1925,216.349556 C74.7285,217.210556 64.3945,208.598556 59.2275,197.977556 C59.2275,197.977556 50.9025,219.219556 42.2905,213.191556 C41.3568107,212.537941 40.5007296,211.820191 39.716404,211.0599 C38.9866857,200.963205 35.9000145,191.098032 30.4518,182.371756 C26.2618,175.660756 20.3978,169.075756 12.1968,163.637756 C8.56443049,161.228971 4.79906388,158.622963 0.984865847,155.901702 C7.45275655,123.762488 15.5945,89.4685561 15.5945,89.4685561 C15.5945,89.4685561 15.7187488,88.7027664 15.9150545,87.2866042 L15.9209033,87.2444839 C15.9621048,86.9466774 16.0064153,86.6206568 16.0533622,86.2674675 L16.061829,86.2036969 C16.1839431,85.2828267 16.3234572,84.1811093 16.4722231,82.9165641 L16.4762129,82.8821812 C16.5146429,82.5550785 16.5536843,82.2171401 16.593197,81.8686756 L16.6018125,81.7932123 C16.7332875,80.6308248 16.8698493,79.3525911 17.0063666,77.9698586 L17.0193919,77.8362484 C17.0468205,77.5570243 17.0742406,77.2735942 17.1016106,76.9860501 C17.128757,76.7024642 17.1557798,76.4140875 17.1827134,76.121777 C17.1986225,75.9473205 17.2146122,75.7720128 17.2305619,75.5953311 C17.2689523,75.1720346 17.3069484,74.7407762 17.3445977,74.301888 L17.384953,73.8245171 C17.40566,73.5783419 17.4262475,73.3298533 17.4466958,73.0790951 C17.854834,68.0780381 18.2074801,62.1723804 18.3471595,55.7119559 C18.3506244,55.5268887 18.3544335,55.3420453 18.3580655,55.1567582 C18.5346699,46.1832394 18.2952384,36.1692225 17.2242013,26.0345559 L17.2229827,26.0342045 C16.5169108,19.3418341 15.4469567,12.5964969 13.8945,6.06355607 C13.8945,6.06355607 33.2123494,1.99203002 60.8377697,0.000117687701 C62.7598027,2.37434943 105.22942,54.8149529 109.349893,53.900161 Z" id="mastercharacterstanding-path-1"/>
            </defs>
            <g id="Master/Character/Standing" stroke="none" stroke-width="1" fill="none" fill-rule="evenodd">
                <g id="Bottom/Standing" transform="translate(0.000000, 443.000000) scale(1 1)">
                    <g id="Bottom/Standing/Jumping" stroke="none" stroke-width="1" fill="none" fill-rule="evenodd">
                        <g id="Jumping" transform="translate(222.000000, -3.000000)">
                            <path d="M183.4947,372.7777 L341.4717,115.3517 L211.2787,90.8507 L132.9987,508.0877 C132.9987,508.0877 57.7597,517.9667 -0.0003,483.0067 C-0.0003,483.0067 91.960382,28.84 110.201382,3 L229.5567,0.0007 C229.5567,0.0007 402.1787,1.2077 452.7327,42.5637 C502.3277,83.1357 321.9447,410.9987 321.9447,410.9987" id="Pants" fill="#94C0E9"/>
                            <path d="M139.946635,2.0310171 C140.481789,2.16750202 140.804975,2.71197332 140.66849,3.2471278 C140.648032,3.32734363 140.60837,3.48112459 140.550315,3.70357318 C140.453825,4.07329106 140.340568,4.50187079 140.211355,4.98441638 C139.842451,6.36208144 139.419473,7.89676938 138.948893,9.54934103 C137.604085,14.2720138 136.146845,18.9951887 134.628352,23.4069637 C132.504329,29.5780289 130.433974,34.6312441 128.469414,38.1944042 C127.852044,39.31414 127.247302,40.2818237 126.653996,41.0909754 C125.382845,42.8243112 123.525533,44.2995177 121.163419,45.5457456 L22.5270643,494.086172 C22.4084492,494.625568 21.8750252,494.966679 21.3356284,494.848064 C20.7962316,494.729449 20.4551206,494.196025 20.5737357,493.656628 L118.880159,46.6160292 C116.813044,47.4786089 114.456064,48.2082882 111.84738,48.8187402 C108.315093,49.6453223 104.540144,50.1986014 100.766632,50.5316952 C99.4468745,50.6481923 98.220973,50.7289187 97.1197853,50.78027 C96.7333968,50.7982884 96.389848,50.8113493 96.0930054,50.8202478 C95.9132364,50.8256368 95.7879449,50.8284502 95.7210017,50.8296025 C95.1687825,50.8379875 94.7142247,50.397221 94.7055975,49.8450017 C94.6972125,49.2927825 95.137979,48.8382247 95.6901983,48.8297186 C95.7475827,48.8288347 95.8631758,48.826239 96.033078,48.8211458 C96.319021,48.8125741 96.6515033,48.7999338 97.0266211,48.7824411 C98.1011657,48.7323322 99.2996516,48.6534111 100.590773,48.5394418 C104.276915,48.2140603 107.96162,47.6740079 111.391676,46.8713487 C114.483251,46.1478966 117.184765,45.2526746 119.416705,44.1814287 C119.531351,43.6512316 120.064775,43.3101206 120.604172,43.4287357 C120.660147,43.4410448 120.713987,43.457821 120.765399,43.4786073 C122.613774,42.4371301 124.058956,41.2476125 125.041161,39.9082831 C125.579279,39.1743956 126.139509,38.2779389 126.717984,37.2287474 C128.615369,33.7874245 130.647503,28.8274951 132.737236,22.7560587 C134.242687,18.3821725 135.689702,13.6921391 137.025359,9.00160348 C137.492943,7.35955219 137.913142,5.83494741 138.279419,4.46709335 C138.407518,3.98870726 138.519695,3.56421498 138.615133,3.19852596 C138.672235,2.9797304 138.71097,2.82954317 138.730524,2.7528722 C138.867009,2.21771773 139.41148,1.89453219 139.946635,2.0310171 Z M302.7814,422.7202 C250.8304,439.1312 222.9664,429.2072 201.1934,414.2552 C185.0404,403.1622 159.5084,363.1952 225.3804,349.3512 C325.4554,328.3172 354.7054,406.3182 302.7814,422.7202 Z M356.483248,101.566514 C356.856805,101.973298 356.82987,102.60589 356.423086,102.979448 L342.148086,116.088448 C341.741302,116.462005 341.10871,116.43507 340.735152,116.028286 C340.361595,115.621502 340.38853,114.98891 340.795314,114.615352 L355.070314,101.506352 C355.477098,101.132795 356.10969,101.15973 356.483248,101.566514 Z M214.863902,74.6826178 C215.403088,74.8021884 215.743253,75.336216 215.623682,75.8754018 L212.254682,91.0674018 C212.135112,91.6065876 211.601084,91.9467528 211.061898,91.8271822 C210.522712,91.7076116 210.182547,91.173584 210.302118,90.6343982 L213.671118,75.4423982 C213.790688,74.9032124 214.324716,74.5630472 214.863902,74.6826178 Z" id="Pants-detials" fill="#3973B0"/>
                            <path d="M8.3904,487.7164 C49.8174,509.2624 97.6234,510.1444 120.0804,509.0964 C123.4104,512.2394 128.0324,516.0824 134.3624,520.7894 C156.7504,537.4364 150.5554,547.3874 142.7604,552.5084 C137.9534,555.6674 132.1344,556.9184 126.4094,556.3564 C44.2234,548.2884 35.7794,511.6044 35.7794,511.6044 C35.7794,511.6044 16.4924,541.3024 5.7764,529.6684 C-2.0826,521.1354 4.3834,498.9454 8.3904,487.7164 Z M241.5928,346.7279 C273.5858,343.1169 296.9618,350.3589 311.2748,361.7409 C301.8828,373.2529 291.6528,393.1829 284.5328,427.6499 C283.8518,430.9479 283.1958,434.3629 282.5748,437.9319 C266.7538,528.8999 241.5558,517.2339 229.5988,498.8389 C216.7508,479.0729 219.2498,447.2599 223.0398,425.8129 C225.3868,412.5309 228.2298,403.2209 228.2298,403.2209 C228.2298,403.2209 196.8188,408.7369 196.5508,397.8869 C196.1908,383.2739 229.6128,356.0199 241.5928,346.7279 Z" id="Shoes" fill="#010101"/>
                            <path d="M282.4175,408.8792 C284.6675,409.3992 286.8255,409.5812 288.9115,409.5042 C295.5185,385.9012 303.6715,371.0612 311.2745,361.7402 C296.9615,350.3582 273.5855,343.1162 241.5925,346.7282 C240.6515,347.4572 239.5665,348.3092 238.3875,349.2452 C245.9695,388.6592 256.5315,400.9142 282.4175,408.8792" id="Skin" fill="#8d574d"/>
                        </g>
                    </g>
                </g>
                <g id="Head" transform="translate(268.000000, 82.000000) scale(1 1)">
                    <g id="Head/Bald" stroke="none" stroke-width="1" fill="none" fill-rule="evenodd">
                        <g id="Shaved" transform="translate(38.000000, 51.000000)" fill="#8d574d">
                            <path d="M69.7059,0.0007 C38.1519,0.0007 12.5729,22.7597 12.5729,50.8347 C12.5729,56.5827 13.6609,62.1007 15.6369,67.2527 C15.4429,67.2477 15.2519,67.2287 15.0559,67.2287 C6.7409,67.2287 -0.0001,72.7737 -0.0001,79.6147 C-0.0001,86.4557 6.7409,92.0007 15.0559,92.0007 C19.6519,92.0007 23.7619,90.3017 26.5209,87.6297 C27.5179,86.6657 29.0589,86.5617 30.1129,87.4637 C37.8329,94.0747 47.6299,98.7767 58.5539,100.7007 C59.9579,100.9477 60.9499,102.2117 60.8679,103.6347 L59.3079,131 L85.7469,131 L84.5229,109.4997 C84.2259,104.3107 87.2629,99.4527 92.1209,97.6077 C112.5329,89.8537 126.8389,71.8307 126.8389,50.8347 C126.8389,22.7597 101.2599,0.0007 69.7059,0.0007 Z" id="Skin"/>
                        </g>
                    </g>
                </g>
                <g id="Face" transform="translate(351.000000, 173.000000) scale(1 1)">
                    <g id="Face/Cheerful" stroke="none" stroke-width="1" fill="none" fill-rule="evenodd">
                        <g id="Cheerful" transform="translate(12.000000, 12.000000)">
                            <path d="M3.41426017,9.96066017 C2.82847373,10.5464466 1.87872627,10.5464466 1.29293983,9.96066017 C0.707153391,9.37487373 0.707153391,8.42512627 1.29293983,7.83933983 C2.04348099,7.08879866 3.37261673,6.01031723 5.19203814,4.93833041 C12.2507284,0.779413257 20.1250405,0.627714623 27.7455086,7.13316609 C28.3755738,7.67104097 28.4503088,8.61784345 27.9124339,9.24790862 C27.374559,9.87797379 26.4277566,9.95270878 25.7976914,9.41483391 C19.2619387,3.83538381 12.7612458,3.96061967 6.71493346,7.5230528 C5.79152187,8.06711865 4.96472488,8.65004929 4.24920893,9.23063007 C3.82875379,9.57179392 3.54583917,9.82908117 3.41426017,9.96066017 Z" id="Stroke-1" fill="#010101"/>
                            <path d="M46.6653305,9.65928923 C46.2459866,10.3737416 45.3268632,10.6129744 44.6124108,10.1936305 C43.8979584,9.77428663 43.6587256,8.85516316 44.0780695,8.14071077 C44.6198455,7.21766597 45.6258406,5.8996619 47.0952444,4.5829044 C53.0319091,-0.737040705 60.7079796,-0.737040705 69.2843602,7.83933983 C69.8701466,8.42512627 69.8701466,9.37487373 69.2843602,9.96066017 C68.6985737,10.5464466 67.7488263,10.5464466 67.1630398,9.96066017 C59.7394204,2.53704071 53.873565,2.53704071 49.0973408,6.8170956 C48.3907882,7.45024919 47.7749963,8.13118394 47.2568022,8.81009566 C46.9521722,9.2092066 46.7534398,9.50917401 46.6653305,9.65928923 Z" id="Stroke-3" fill="#010101"/>
                            <path d="M12.099,19.4361 L50.079,19.4361 C50.9414872,19.4361 51.626313,20.1616928 51.5764957,21.0227401 C51.5391182,21.6687773 51.3957638,22.7410851 51.0763169,24.1016148 C50.5468086,26.3567996 49.6976687,28.6130659 48.4517679,30.7295166 C44.7933145,36.9442465 38.5532386,40.6431881 29.3391579,40.4969105 C21.4748125,40.3718931 16.1958472,36.6605177 13.1668732,30.6424782 C12.1036356,28.5300117 11.3977821,26.2815365 10.9762362,24.0352699 C10.7224275,22.6828146 10.6187022,21.6187392 10.5996674,20.9808398 C10.5744354,20.13526 11.2530438,19.4361 12.099,19.4361 Z" id="Stroke-5" fill="#E74B33"/>
                            <path d="M16.8843897,31.7946649 C17.4718294,31.6318118 18.1353215,31.4697044 18.8631547,31.3187494 C22.4375383,30.5774107 26.1484661,30.361851 29.6615816,31.0008452 C33.6851307,31.7326813 37.0671531,33.543451 39.5231789,36.6335892 C40.1258164,37.3918195 39.8625951,38.5139017 38.9856425,38.9250454 C38.511601,39.1472914 37.689624,39.4588241 36.5747009,39.7643191 C30.7404005,41.362949 23.5552242,41 18.2273208,36.9073308 C17.3669842,36.2464567 16.4704105,35.3649364 15.5817063,34.5538203 C14.7358745,33.7818335 15.0321627,32.3850069 16.1185584,32.0228751 C16.2656747,31.9738363 16.5249027,31.8943238 16.8843897,31.7946649 Z" id="Stroke-7" fill="#F3705A"/>
                        </g>
                    </g>
                </g>
                <g id="Body" transform="translate(87.000000, 44.000000) scale(1 1)">
                    <defs>
                        <path d="M18.0849,9.6994 C18.0849,9.6994 32.9029,11.2134 25.3719,21.6244 C25.3719,21.6244 41.3199,21.1814 30.0239,33.3644 C30.0239,33.3644 43.5359,35.5794 35.5609,45.9904 C35.5609,45.9904 50.1809,47.5414 39.9909,57.2874 C39.9909,57.2874 53.9459,56.4014 46.8589,66.8124 C46.8589,66.8124 61.2569,69.6914 54.6109,77.6664 L54.6109,77.6664 L138.4369,74.5414 L138.4369,143.3594 L142.5789,156.7764 L148.7519,174.8114 C137.614663,181.561685 129.043005,186.230222 123.036926,188.817011 C116.610976,191.584637 106.53459,194.947722 92.8077684,198.906267 C66.1372394,202.739267 38.2380593,202.930917 35.5148176,202.9405 L35.2979,202.941004 C35.2979,202.941004 37.3409,158.8434 36.8839,137.8254 C36.5019,120.2434 35.2979,90.4764 35.2979,90.4764 C22.8019,88.0954 29.5809,75.4514 29.5809,75.4514 C16.7329,75.6724 26.0369,63.9324 26.0369,63.9324 C10.3089,65.4834 20.0559,53.3004 20.0559,53.3004 C4.3289,53.3004 13.8539,42.6674 13.8539,42.6674 C-3.6451,40.8954 10.7529,29.3774 10.7529,29.3774 C-6.5251,29.1554 4.1299,16.4044 4.1299,16.4044 L4.1299,16.4044 L10.7349,12.9774 Z M144.5631,0.7582 L154.7051,3.6042 L164.1411,7.0882 C168.6671,8.7552 164.6171,13.0432 164.6171,13.0432 C177.0401,17.7352 166.7611,24.0022 166.7611,24.0022 C179.3871,30.4342 165.0941,37.8192 165.0941,37.8192 C179.6261,48.0632 162.8431,48.4312 162.8431,48.4312 C162.8431,48.4312 171.6881,52.5752 168.8421,54.9202 C163.1721,59.5922 143.4661,63.9672 141.5521,62.1052 C134.2851,55.0372 145.0831,51.1592 145.0831,51.1592 C128.4071,41.6312 145.3211,37.3422 145.3211,37.3422 C128.6451,28.2902 146.0361,25.4312 146.0361,25.4312 C131.0271,16.8552 146.9891,12.3292 146.9891,12.3292 C132.6951,7.8022 144.5631,0.7582 144.5631,0.7582 L144.5631,0.7582 Z" id="bodyreading-path-1"/>
                    </defs>
                    <g id="Body/Reading" stroke="none" stroke-width="1" fill="none" fill-rule="evenodd">
                        <g id="Body" transform="translate(163.000000, 217.000000)">
                            <path d="M82.7169,220.5702 C79.0629,221.8992 80.9859,205.7962 81.6719,193.2832 C81.7829,191.2652 83.5319,189.7352 85.5469,189.8912 L162.3979,195.8372 M320.0599,233.1762 C304.7629,172.3132 284.9739,112.8302 257.6219,55.9562 C225.4999,-10.8378 123.2159,0.5812 119.8409,0.9772 C119.7779,0.9842 119.7329,0.9882 119.6709,0.9922 C116.7509,1.1812 38.6379,6.6882 13.2989,56.8502 C-12.5251,107.9702 5.9209,228.3692 13.2989,254.1932 C19.0649,274.3732 43.7009,312.5432 106.0519,286.8672 C144.3299,271.1052 211.2889,227.9262 235.6999,201.6762 L239.2899,201.8482 C251.7899,228.4632 255.9899,252.2032 274.9189,321.6092 L289.1899,371.7752 C289.1899,371.7752 289.9249,372.4142 286.2539,379.2772 C284.7509,382.0882 279.3109,389.0122 276.7579,398.3492 C275.6289,402.4772 280.7639,405.7732 284.6499,402.5012 C291.7599,396.5132 294.7249,388.7212 294.7249,388.7212 C297.7999,401.0212 299.2409,417.5682 305.8979,431.5092 C309.4239,438.8932 316.3389,441.1372 319.0329,439.5052 C320.6129,438.5472 319.8439,436.6032 319.6049,434.4442 C319.3659,432.2832 318.6579,429.9072 318.3609,428.0842 C317.7509,424.3542 318.9919,430.3602 318.2979,427.6452 C318.3419,427.9592 318.4279,428.2622 318.5519,428.5542 C319.3749,430.4922 325.1969,437.8382 329.4069,435.0742 C329.5969,434.9492 329.9609,434.6072 330.1099,434.3312 C330.8069,433.0342 329.7559,426.6182 330.1909,428.0242 C331.5649,432.4642 336.9479,432.2072 338.1009,430.9652 C338.2149,430.8412 339.1379,430.4692 339.2459,430.2012 C339.7969,428.8272 340.2889,428.2912 341.7419,428.0122 C346.0859,427.1782 351.0019,427.9012 351.1839,411.9882 C351.9299,346.6422 335.9889,296.5562 320.0599,233.1762" id="Skin" fill="#8d574d"/>
                            <g id="Tshirt" transform="translate(45.000000, 5.000000)">
                                <mask id="bodyreading-mask-2" fill="#fff">
                                    <use xlink:href="#bodyreading-path-1"/>
                                </mask>
                                <use fill="#F2B08F" xlink:href="#bodyreading-path-1"/>
                                <g mask="url(#bodyreading-mask-2)">
                                    <g transform="translate(-7.000000, -4.000000) scale(1 1)" id="Patterns">
                                        <g id="Patterns/Pattern 6" stroke="none" stroke-width="1" fill="none" fill-rule="evenodd">
                                            <path d="M280,-1 L280,-5.70654635e-14 L281,-5.70654635e-14 L281,218 L278,218 L278,175.999 L234,175.999 L234,218 L231,218 L231,175.999 L187,175.999 L187,218 L184,218 L184,175.999 L140,175.999 L140,218 L137,218 L137,175.999 L93,175.999 L93,218 L90,218 L90,175.999 L46,175.999 L46,218 L43,218 L43,175.999 L-1.42108547e-14,176 L-1.40271577e-14,173 L43,172.999 L43,132.75 L-1.42108547e-14,132.75 L-1.40271577e-14,129.75 L43,129.75 L43,89 L-1.42108547e-14,89 L-1.40271577e-14,86 L43,86 L43,45.999 L-1.42108547e-14,46 L-1.40271577e-14,43 L43,42.999 L43,2 L-1.42108547e-14,2 L-1.40271577e-14,-1 L280,-1 Z M90,132.75 L46,132.75 L46,172.999 L90,172.999 L90,132.75 Z M137,132.75 L93,132.75 L93,172.999 L137,172.999 L137,132.75 Z M184,132.75 L140,132.75 L140,172.999 L184,172.999 L184,132.75 Z M231,132.75 L187,132.75 L187,172.999 L231,172.999 L231,132.75 Z M278,132.75 L234,132.75 L234,172.999 L278,172.999 L278,132.75 Z M90,89 L46,89 L46,129.75 L90,129.75 L90,89 Z M137,89 L93,89 L93,129.75 L137,129.75 L137,89 Z M184,89 L140,89 L140,129.75 L184,129.75 L184,89 Z M231,89 L187,89 L187,129.75 L231,129.75 L231,89 Z M278,89 L234,89 L234,129.75 L278,129.75 L278,89 Z M90,45.999 L46,45.999 L46,86 L90,86 L90,45.999 Z M137,45.999 L93,45.999 L93,86 L137,86 L137,45.999 Z M184,45.999 L140,45.999 L140,86 L184,86 L184,45.999 Z M231,45.999 L187,45.999 L187,86 L231,86 L231,45.999 Z M278,45.999 L234,45.999 L234,86 L278,86 L278,45.999 Z M90,2 L46,2 L46,42.999 L90,42.999 L90,2 Z M137,2 L93,2 L93,42.999 L137,42.999 L137,2 Z M184,2 L140,2 L140,42.999 L184,42.999 L184,2 Z M231,2 L187,2 L187,42.999 L231,42.999 L231,2 Z M278,2 L234,2 L234,42.999 L278,42.999 L278,2 Z" id="Pattern" fill="#010101"/>
                                        </g>
                                    </g>
                                </g>
                            </g>
                            <g id="Book" transform="translate(93.100200, 45.103900)">
                                <path d="M1.77635684e-14,8.0415 L58.574,26.5205 L58.574,124.8395 L1.77635684e-14,106.3615 L1.77635684e-14,8.0415 Z M127.6066,8.0415 L127.4696,31.9105 C125.0636,32.8015 123.7576,33.6515 123.7576,33.6515 C114.5396,45.9685 119.6806,84.7155 119.6806,84.7155 C119.6806,84.7155 106.5946,52.6775 101.9806,51.4765 C84.3336,46.8795 100.6676,89.1485 106.7846,103.1235 L106.7846,103.1235 L109.7176,110.8085 L94.9776,116.6545 L69.0326,124.8395 L69.0326,26.5195 L127.6066,8.0415 Z" id="Combined-Shape" fill="#94C0E9"/>
                                <path d="M69.0332,124.8393 C69.0332,124.8393 67.0222,126.2673 63.5142,126.2673 C60.4942,126.2673 58.5742,124.8393 58.5742,124.8393 L58.5742,26.5203 C58.5742,26.5203 62.5522,27.5783 63.7142,27.5783 C65.1672,27.5783 69.0332,26.5203 69.0332,26.5203 L69.0332,124.8393 Z" id="Fill-10" fill="#3973B0"/>
                                <polyline id="Stroke-14" stroke="#FFF" stroke-width="2" stroke-linecap="round" stroke-linejoin="round" points="20.2275 1.77635684e-15 63.7135 27.578 8.5415 3.652"/>
                                <polyline id="Stroke-16" stroke="#FFF" stroke-width="2" stroke-linecap="round" stroke-linejoin="round" points="106.5625 1.77635684e-15 63.0755 27.578 118.2485 3.652"/>
                            </g>
                            <path d="M289.779604,369.698682 C290.048347,369.77972 290.272135,369.96946 290.403746,370.22485 C290.979911,371.342895 289.219143,375.449046 283.104432,386.267212 C277.428735,396.307366 276.795297,401.06602 278.994823,402.713293 C279.931729,403.414004 281.28526,403.434382 282.396976,402.774474 C285.627155,400.854597 289.534066,396.344662 293.842167,388.251225 C294.292588,387.405039 295.560374,387.61616 295.712267,388.562647 C295.727103,388.655097 295.756706,388.83608 295.800693,389.099685 C295.874199,389.540196 295.961323,390.051523 296.061681,390.627752 C296.348623,392.275295 296.683905,394.11161 297.064441,396.089367 C298.151446,401.738841 299.382623,407.387715 300.732679,412.655927 C303.476572,423.363189 306.360197,431.103981 309.193575,434.446318 C313.197561,439.167758 316.486038,439.909733 318.844336,438.382732 C318.897373,438.348386 318.970702,437.958156 318.893508,437.264543 C318.862041,436.981805 318.810798,436.678581 318.736539,436.313482 C318.710525,436.185584 318.705812,436.16339 318.637883,435.846014 L316.585968,425.740218 C315.497094,421.970103 314.454123,417.007558 313.459274,411.105047 C312.63761,406.230053 311.898666,401.010182 311.253679,395.790775 C311.027977,393.964337 310.830117,392.268239 310.661543,390.745792 C310.602509,390.212641 310.551343,389.739173 310.508225,389.330803 C310.4823,389.085276 310.464789,388.915695 310.455871,388.827476 C310.400324,388.277992 310.800739,387.787517 311.350224,387.731971 C311.899708,387.676424 312.390183,388.076839 312.445729,388.626324 C312.454353,388.711636 312.471561,388.87827 312.497169,389.120799 C312.539937,389.525855 312.59074,389.995961 312.649394,390.525686 C312.817071,392.040028 313.013957,393.727781 313.238581,395.545491 C313.880236,400.737933 314.615231,405.929911 315.431458,410.772642 C316.327957,416.091638 317.263415,420.632503 318.220954,424.166359 C318.299512,424.273883 318.3556,424.400671 318.383917,424.540186 L318.533604,425.281508 C318.845475,426.355233 319.159473,427.320541 319.475023,428.169636 C319.553761,428.35881 319.722373,428.713687 319.979411,429.177934 C320.411342,429.95806 320.929258,430.738492 321.529406,431.462813 C323.446843,433.776977 325.709403,434.973591 328.343339,434.571284 C329.229327,434.436443 329.575493,433.900455 329.516127,431.542463 C329.5017,430.978292 329.277948,429.650011 328.824107,427.401324 L328.857703,427.487715 C328.806277,427.374845 328.777587,427.257412 328.769707,427.140565 C328.70699,426.824254 328.63832,426.490338 328.565293,426.138752 C328.325428,424.983938 326.921777,418.408089 326.504173,416.398435 C326.221587,415.038537 325.964651,413.776473 325.725232,412.568218 C324.245023,405.098168 323.4498,399.75177 323.4498,396.3669 C323.4498,395.814615 323.897515,395.3669 324.4498,395.3669 C325.002085,395.3669 325.4498,395.814615 325.4498,396.3669 C325.4498,399.576584 326.232462,404.838534 327.687087,412.179471 C327.92522,413.381239 328.180945,414.637351 328.462342,415.99153 C328.878471,417.994084 330.282147,424.570046 330.523498,425.732017 C330.597034,426.086053 330.66621,426.422152 330.731117,426.741081 L330.74038,426.78844 C330.805507,426.91809 330.902683,427.09926 331.030565,427.317979 C331.332171,427.833817 331.687174,428.349851 332.089696,428.827437 C333.863158,430.93162 335.797968,431.558202 338.103322,430.038472 C338.200269,429.929755 338.339267,429.750069 338.480183,429.518649 C338.679423,429.191445 338.820632,428.850841 338.881753,428.515639 C338.908609,428.367566 338.703418,426.573011 338.308338,423.728025 C338.061756,421.95237 336.953332,414.270011 336.835797,413.444657 C336.737844,412.756815 336.645402,412.103523 336.556779,411.472414 C335.659581,405.08315 335.104887,400.604614 334.88052,397.623142 C334.839075,397.072414 335.251931,396.592364 335.802658,396.55092 C336.353386,396.509475 336.833436,396.922331 336.87488,397.473058 C337.094966,400.397627 337.646086,404.84731 338.537348,411.194297 C338.625781,411.82406 338.718043,412.476079 338.815821,413.162689 C338.932694,413.983392 340.041879,421.671035 340.289328,423.452928 C340.769386,426.909845 340.938065,428.385069 340.84948,428.873481 C340.740169,429.472976 340.506709,430.036092 340.188413,430.558818 C339.924302,430.992557 339.657331,431.316682 339.459807,431.514207 L339.314961,431.63406 C336.401161,433.615193 333.713133,433.135064 331.489239,431.091167 C331.50409,431.242947 331.51252,431.375842 331.515483,431.491731 C331.598002,434.769345 330.645655,436.243917 328.644789,436.548435 C325.245066,437.067709 322.37553,435.575437 320.065815,432.830414 L320.595716,435.437633 C320.663346,435.75334 320.668382,435.777051 320.69641,435.914855 C320.781599,436.333689 320.842106,436.691728 320.881236,437.043324 C321.036192,438.435649 320.841411,439.472198 319.931413,440.061501 C316.670235,442.173118 312.284758,441.183629 307.668104,435.73974 C304.566954,432.08153 301.616446,424.161199 298.795283,413.152413 C297.434036,407.840531 296.194563,402.153592 295.100465,396.467252 C294.772963,394.765127 294.47873,393.166879 294.219663,391.702014 C290.28121,398.553642 286.62282,402.589411 283.41834,404.494014 C281.634991,405.552599 279.40702,405.519056 277.796452,404.314514 C274.479661,401.830496 275.2406,396.113999 281.36334,385.283037 C284.671106,379.430928 286.739108,375.419878 287.801331,372.942751 C288.183897,372.050599 288.407211,371.422464 288.500649,371.030664 L288.514791,370.968584 L288.514791,370.968584 L288.52536,370.916875 L288.52536,370.916875 C288.47808,370.742476 288.477472,370.553138 288.533482,370.367396 C288.692928,369.838629 289.250836,369.539235 289.779604,369.698682 Z M236.248837,74.2511015 C238.035111,74.5327267 239.343621,76.643811 240.562783,80.0884636 C240.967468,81.2318704 241.328838,82.4496707 241.64366,83.6683429 C244.338012,81.3410146 246.993798,81.0614894 249.284378,83.0330201 C250.029928,83.6746015 250.755082,84.5995205 251.467354,85.7411321 C251.926942,86.4777462 252.354257,87.2620238 252.739972,88.0457702 C252.874845,88.3198232 252.995099,88.5746695 253.099387,88.8041296 C253.147854,88.910769 253.185358,88.9952509 253.21128,89.0548048 C253.236162,89.1003344 253.270757,89.1644368 253.314593,89.2468476 C253.415212,89.4360082 253.531399,89.6597092 253.661853,89.917222 C254.032424,90.6487217 254.444421,91.5066815 254.887427,92.485278 C256.149867,95.2739951 257.411078,98.4749621 258.587612,102.04167 C262.332915,113.3957 264.393877,125.784887 263.8902,138.720231 C263.234799,155.552121 258.2486,171.934773 248.057047,187.356386 C245.231331,191.632192 242.017655,195.809936 238.379304,199.907586 C238.264354,200.028307 238.041579,200.258945 237.714833,200.592179 C237.172286,201.145498 236.53349,201.786754 235.802297,202.508627 C233.715471,204.568852 231.305381,206.863578 228.602816,209.334242 C220.88285,216.391771 212.363486,223.448936 203.289983,230.037352 C199.410451,232.854342 195.50279,235.52948 191.578157,238.041269 C191.112985,238.338982 190.494544,238.20323 190.196831,237.738057 C189.899118,237.272885 190.03487,236.654444 190.500043,236.356731 C194.390737,233.866663 198.266185,231.213577 202.114864,228.418989 C211.123114,221.877955 219.585664,214.867853 227.253353,207.858115 C229.936466,205.405235 232.328081,203.128099 234.397183,201.085371 C235.120565,200.37121 235.751724,199.737621 236.286786,199.191935 C236.606605,198.865765 236.822599,198.642148 236.907254,198.554128 C240.459401,194.552667 243.615262,190.450082 246.38849,186.2537 C256.372021,171.146861 261.250136,155.11933 261.891715,138.642414 C262.385354,125.964861 260.363164,113.808751 256.688279,102.668195 C255.534755,99.1712437 254.299477,96.0360947 253.065426,93.3100895 C252.634661,92.3585332 252.235298,91.5268824 251.877727,90.821045 C251.66521,90.4015406 251.515237,90.1195965 251.438205,89.9811142 L251.392185,89.8871176 C251.312998,89.7013431 251.160082,89.364889 250.945513,88.9288993 C250.587356,88.2011477 250.191128,87.4739274 249.770534,86.7998102 C249.155841,85.8145978 248.544664,85.0350531 247.97975,84.5489181 C246.371206,83.1644238 244.523806,83.503545 242.231121,85.8574043 C242.298284,86.0519127 242.375955,86.2840115 242.463453,86.5548342 C242.812436,87.634995 243.199883,88.9758902 243.61606,90.5937627 C244.799714,95.1951687 245.981288,101.099087 247.082783,108.435547 C247.862673,113.629976 248.574513,119.372383 249.203182,125.687947 C249.257888,126.237515 248.856722,126.727377 248.307153,126.782082 C247.757585,126.836788 247.267723,126.435622 247.213018,125.886053 C246.587588,119.603029 245.87983,113.893551 245.104951,108.732499 C244.01336,101.462008 242.845199,95.6251068 241.679119,91.0920166 C241.272889,89.5128154 240.896673,88.2107899 240.560316,87.1697067 C240.361578,86.5545767 240.222379,86.1678463 240.152574,85.9932678 L240.143178,85.9691396 C240.135207,85.947525 240.127937,85.9255079 240.1214,85.9031095 L240.152574,85.9932678 C240.133588,85.9457846 240.118446,85.8974088 240.107073,85.8485509 C240.105418,85.841244 240.103694,85.8334238 240.102059,85.8255627 C240.086468,85.7506134 240.054701,85.6047284 240.00742,85.3981412 C239.927954,85.050925 239.834269,84.6633044 239.727053,84.2455666 C239.421104,83.0535151 239.069001,81.8622335 238.677388,80.7557595 C237.723374,78.0602624 236.657225,76.3401925 235.937351,76.2266967 C234.002889,75.9216842 232.409391,76.6592505 231.089232,78.1261151 C230.684955,78.575318 230.339374,79.0600149 230.054682,79.5439258 C229.886773,79.8293314 229.779493,80.0442079 229.732942,80.1518466 L229.657864,80.2931829 C229.622174,80.3490607 229.540834,80.4957124 229.428133,80.7345577 C229.229401,81.1557288 229.027923,81.671957 228.837978,82.284829 C228.121622,84.5962038 227.784407,87.4828136 228.01915,90.9685854 L232.501409,126.202829 C232.571091,126.7507 232.183442,127.251326 231.635571,127.321009 C231.0877,127.390691 230.587074,127.003042 230.517391,126.455171 L226.390098,94.0029648 C226.336134,93.9010745 226.299006,93.7880518 226.282874,93.6670775 C226.166877,92.7971952 226.08211,91.95588 226.026567,91.1429985 L224.834885,81.7644612 C224.631688,78.8878011 222.770312,77.7370677 220.049414,78.3045884 C219.893416,78.3365996 219.581573,78.5010961 219.164406,78.7928509 C216.872466,80.3994785 215.201651,82.8213388 214.42167,85.6215347 C211.18405,97.2353109 210.320695,113.333586 214.041334,128.426652 C214.32689,129.585035 212.70939,130.180287 212.175933,129.113133 L200.994492,106.736255 C200.968077,106.668932 200.912341,106.533552 200.828359,106.339961 C200.686174,106.012202 200.517824,105.64568 200.324451,105.25029 C199.771949,104.120594 199.132279,102.991307 198.416514,101.942546 C195.917768,98.2813032 193.253583,96.6215785 190.543002,97.7305595 C188.518484,98.5586936 187.814413,102.295155 188.40937,108.061874 C188.825506,112.095344 189.74504,116.327311 190.814594,120.218802 C191.663155,123.303954 193.651774,129.006562 196.458606,136.546131 C196.649264,137.058268 196.843058,137.577132 197.039825,138.102334 C198.507218,142.019039 200.079704,146.129214 201.652224,150.181452 C202.202628,151.599794 202.713704,152.909535 203.172329,154.07928 C203.332816,154.488611 203.475273,154.851177 203.598059,155.163055 C203.722417,155.478683 203.722417,155.478683 203.748429,155.544513 C203.951386,156.058154 203.699527,156.639071 203.185887,156.842029 C202.672246,157.044986 202.091329,156.793127 201.888371,156.279487 C201.861922,156.212549 201.861922,156.212549 201.73709,155.895718 C201.613965,155.58298 201.471165,155.21954 201.310329,154.809318 C200.850885,153.637485 200.338971,152.325594 199.787694,150.905005 C198.212552,146.846011 196.637376,142.728803 195.166951,138.804006 C194.969705,138.277523 194.775426,137.757361 194.584277,137.243907 C191.756395,129.647795 189.755829,123.910929 188.886156,120.749017 C187.78972,116.759717 186.849842,112.43412 186.41993,108.267126 C185.73533,101.631524 186.571451,97.1942767 189.785736,95.8794659 C193.632988,94.305438 197.099598,96.4650545 200.068455,100.81512 C200.84329,101.950432 201.529127,103.161223 202.12109,104.371605 C202.328279,104.795243 202.509251,105.189247 202.663151,105.54401 C202.75682,105.759933 202.821512,105.917062 202.819867,105.923867 L210.643093,121.573829 C208.626325,108.397981 209.692853,95.1366092 212.495073,85.0846701 C213.397121,81.8462404 215.338326,79.0324478 218.017282,77.154527 C218.642132,76.7175232 219.156663,76.4461091 219.644214,76.3460679 C223.470348,75.5480113 226.53457,77.4423648 226.824409,81.5678292 L226.865779,81.8964338 C226.886094,81.8281285 226.90671,81.7602372 226.927623,81.6927596 C227.285113,80.5392936 227.652601,79.740242 227.928545,79.2868878 C228.224726,78.6256255 228.774288,77.708593 229.602634,76.7881961 C231.338608,74.8593089 233.5664,73.8281535 236.248837,74.2511015 Z M84.003,221.9716 C84.5552847,221.9716 85.003,222.419315 85.003,222.9716 C85.003,223.523885 84.5552847,223.9716 84.003,223.9716 C83.9526209,223.9716 83.8283581,223.976259 83.6316584,223.991159 C83.2875467,224.017226 82.8739306,224.064703 82.392248,224.139184 C80.9947816,224.355269 79.3426206,224.746547 77.4472426,225.357937 C71.9856457,227.119678 65.6922786,230.301758 58.6607088,235.26555 C58.20952,235.584057 57.5855577,235.476498 57.2670502,235.025309 C56.9485427,234.57412 57.0561023,233.950158 57.5072912,233.63165 C64.7014714,228.553067 71.1761043,225.279335 76.8332574,223.454513 C78.8294419,222.810606 80.5847184,222.394908 82.086627,222.162673 C83.0073696,222.020301 83.650294,221.9716 84.003,221.9716 Z M193.844694,178.815252 L200.564694,179.444252 C201.114575,179.495722 201.518618,179.983213 201.467148,180.533094 C201.415678,181.082975 200.928187,181.487018 200.378306,181.435548 L193.658306,180.806548 C193.108425,180.755078 192.704382,180.267587 192.755852,179.717706 C192.807322,179.167825 193.294813,178.763782 193.844694,178.815252 Z" id="Skin-Shadows" fill="#371D0A"/>
                        </g>
                    </g>
                </g>
            </g>
        </g>
        <g transform="translate(398.000000, 381.000000) scale(1 1)" id="Master/Character/Standing">
            <defs>
                <path d="M109.349893,53.900161 C113.481551,52.981688 144.970514,5.75600247 146.214144,3.88880036 C163.157042,7.1710553 179.732671,12.3563028 194.5425,20.2265561 L194.534447,20.342795 C194.273846,24.1150757 187.81006,118.481216 192.9335,124.393556 L192.941093,124.461309 C193.187039,126.661869 199.30416,181.841416 196.1515,198.396556 C192.9335,215.288556 179.5055,194.246556 179.5055,194.246556 L179.493372,194.278417 C179.199722,195.046486 173.626713,209.436596 168.5975,208.598556 C163.4305,207.737556 153.3835,197.403556 153.3835,197.403556 L153.374748,197.427811 C153.092349,198.206414 146.00353,217.45697 136.1595,215.488556 C126.1125,213.478556 123.8155,199.700556 123.8155,199.700556 C123.8155,199.700556 117.2135,215.488556 106.8795,214.914556 C96.5455,214.339556 94.5365,201.708556 94.5365,201.708556 C94.5365,201.708556 89.6555,215.488556 82.1925,216.349556 C74.7285,217.210556 64.3945,208.598556 59.2275,197.977556 C59.2275,197.977556 50.9025,219.219556 42.2905,213.191556 C41.3568107,212.537941 40.5007296,211.820191 39.716404,211.0599 C38.9866857,200.963205 35.9000145,191.098032 30.4518,182.371756 C26.2618,175.660756 20.3978,169.075756 12.1968,163.637756 C8.56443049,161.228971 4.79906388,158.622963 0.984865847,155.901702 C7.45275655,123.762488 15.5945,89.4685561 15.5945,89.4685561 C15.5945,89.4685561 15.7187488,88.7027664 15.9150545,87.2866042 L15.9209033,87.2444839 C15.9621048,86.9466774 16.0064153,86.6206568 16.0533622,86.2674675 L16.061829,86.2036969 C16.1839431,85.2828267 16.3234572,84.1811093 16.4722231,82.9165641 L16.4762129,82.8821812 C16.5146429,82.5550785 16.5536843,82.2171401 16.593197,81.8686756 L16.6018125,81.7932123 C16.7332875,80.6308248 16.8698493,79.3525911 17.0063666,77.9698586 L17.0193919,77.8362484 C17.0468205,77.5570243 17.0742406,77.2735942 17.1016106,76.9860501 C17.128757,76.7024642 17.1557798,76.4140875 17.1827134,76.121777 C17.1986225,75.9473205 17.2146122,75.7720128 17.2305619,75.5953311 C17.2689523,75.1720346 17.3069484,74.7407762 17.3445977,74.301888 L17.384953,73.8245171 C17.40566,73.5783419 17.4262475,73.3298533 17.4466958,73.0790951 C17.854834,68.0780381 18.2074801,62.1723804 18.3471595,55.7119559 C18.3506244,55.5268887 18.3544335,55.3420453 18.3580655,55.1567582 C18.5346699,46.1832394 18.2952384,36.1692225 17.2242013,26.0345559 L17.2229827,26.0342045 C16.5169108,19.3418341 15.4469567,12.5964969 13.8945,6.06355607 C13.8945,6.06355607 33.2123494,1.99203002 60.8377697,0.000117687701 C62.7598027,2.37434943 105.22942,54.8149529 109.349893,53.900161 Z" id="mastercharacterstanding-path-1"/>
            </defs>
            <g id="Master/Character/Standing" stroke="none" stroke-width="1" fill="none" fill-rule="evenodd">
                <g id="Bottom/Standing" transform="translate(0.000000, 443.000000) scale(1 1)">
                    <defs>
                        <path d="M95.5391,0 C95.5391,0 75.9811896,0 54.2331,85.6104365 C54.2331,85.6104365 35.5791,240.953614 0.9351,340.532241 C0.9351,340.532241 166.7251,422.403883 329.2831,383.900905 C329.2831,383.900905 275.4191,98.2513511 259.4301,0 L95.5391,0 Z" id="bottomstandingskating-path-1"/>
                    </defs>
                    <g id="Bottom/Standing/Skating" stroke="none" stroke-width="1" fill="none" fill-rule="evenodd">
                        <g id="Skating" transform="translate(237.000000, 0.000000)">
                            <path d="M357.6934,478.223039 C349.7374,474.194376 344.1914,466.63129 342.7884,457.849542 L331.6934,384.036223 C300.6714,391.328273 269.5394,394.24589 239.4714,394.194074 L255.3994,505.298684 C256.4184,512.401407 262.5894,517.634783 269.7884,517.501259 L394.6834,515.18251 C391.3374,497.954819 371.2384,485.081631 357.6934,478.223039" id="Fill-1" fill="#583318"/>
                            <path d="M0.3989,479.1979 C-1.2591,485.538336 2.3939,492.054148 8.6819,493.971325 L125.4049,529.55868 C125.9479,511.716176 113.5419,496.637836 102.7259,486.942339 C93.7479,478.894978 90.7419,466.135385 95.0709,454.901364 L126.5409,373.239974 C88.7609,364.944495 56.9989,354.209698 35.2749,345.84646 L0.3989,479.1979 Z" id="Fill-3" fill="#583318"/>
                            <g id="Skirt" transform="translate(3.000000, 0.000000)">
                                <mask id="bottomstandingskating-mask-2" fill="#fff">
                                    <use xlink:href="#bottomstandingskating-path-1"/>
                                </mask>
                                <use fill="#E58857" xlink:href="#bottomstandingskating-path-1"/>
                                <g mask="url(#bottomstandingskating-mask-2)">
                                    <g transform="translate(80.000000, 0.000000)" id="Patterns"/>
                                </g>
                                <g mask="url(#bottomstandingskating-mask-2)">
                                    <g transform="translate(-200.000000, 0.000000)" id="Patterns"/>
                                </g>
                                <g mask="url(#bottomstandingskating-mask-2)">
                                    <g transform="translate(80.000000, 217.226950)" id="Patterns"/>
                                </g>
                                <g mask="url(#bottomstandingskating-mask-2)">
                                    <g transform="translate(-200.000000, 217.226950)" id="Patterns"/>
                                </g>
                            </g>
                            <g id="Roller-2" transform="translate(245.853100, 404.684678)">
                                <path d="M23.935,112.816581 L148.831,110.497832 C145.484,93.270141 125.386,80.396953 111.84,73.5383608 C103.885,69.5096977 98.338,61.9466126 96.935,53.1648644 L91.277,15.5178395 C88.013,8.19589628 82.102,0.329889186 71.715,0.00604166867 C52.122,-0.603788119 48.448,45.1553679 48.448,45.1553679 C24.092,10.0991232 7.206,24.1770239 5.68434189e-14,34.0229849 L9.546,100.614006 C10.565,107.71673 16.736,112.950105 23.935,112.816581" id="Fill-8" fill="#3973B0"/>
                                <path d="M137.1435,123.692775 C142.2615,126.404126 143.5765,133.915396 140.0805,140.47007 C136.5835,147.023747 129.6005,150.139658 124.4825,147.429304 C119.3635,144.718949 118.0495,137.20768 121.5455,130.652009 C125.0415,124.098332 132.0255,120.982421 137.1435,123.692775 Z M45.1463,123.400316 C50.6553,125.763905 52.9233,132.765986 50.2123,139.038664 C47.5013,145.312337 40.8373,148.482057 35.3293,146.117463 C29.8203,143.753884 27.5523,136.751802 30.2633,130.479125 C32.9743,124.205451 39.6383,121.036727 45.1463,123.400316 Z" id="Combined-Shape" fill="#010101"/>
                                <path d="M49.405356,44.8664234 L58.6737435,75.3935875 C59.2015029,75.1669866 59.7976131,74.9208868 60.4585131,74.6595449 C62.7206719,73.765012 65.2821363,72.8712861 68.0936984,72.0374452 C81.3620026,68.1023892 95.0910425,66.8493095 107.965675,69.9032641 C108.497729,70.0344922 108.825217,70.5688383 108.698009,71.1012438 C108.570094,71.636606 108.030857,71.9672752 107.482664,71.8371574 L107.49359,71.8398142 C95.0213279,68.8809014 81.6260901,70.1033724 68.6642268,73.9475456 C65.9114642,74.7639479 63.4054123,75.6383398 61.1962284,76.5119246 C60.4249587,76.8169103 59.746551,77.099676 59.1672579,77.3528603 C58.8229271,77.5033526 58.590142,77.6095652 58.4751463,77.6641328 C57.9225276,77.9263609 57.2652855,77.6368039 57.088044,77.0530258 L47.491044,45.4435152 C47.3311174,44.9167671 47.6300046,44.360567 48.1586273,44.2012075 C48.6872499,44.041848 49.2454294,44.3396753 49.405356,44.8664234 Z M118.331267,21.5837705 C120.572617,24.9177491 120.703089,28.7965356 119.043658,33.0225894 C117.356971,37.3180563 113.8955,41.8398614 109.183071,46.4256201 C106.818382,48.7267454 104.288179,50.8964549 101.758069,52.8711034 C100.872382,53.5623457 100.049493,54.1801867 99.310176,54.7164977 C99.0506411,54.9047678 98.8198307,55.0695722 98.6203443,55.20989 C98.529641,55.2736902 98.459493,55.32256 98.4109974,55.3560678 L98.3733905,55.3851662 C98.2904606,55.442711 98.1973654,55.4882254 98.0956778,55.5183184 C97.9692741,55.5581087 97.8416305,55.5701514 97.7180342,55.5588513 C97.6422775,55.5556588 97.5301469,55.5519699 97.3851877,55.5461231 C97.0690278,55.5333711 96.7034295,55.5143685 96.2924773,55.4878821 C95.1224047,55.4124694 93.8202796,55.2923107 92.4186921,55.1174701 C88.411355,54.6175763 84.4022348,53.7790472 80.6497292,52.5190629 C70.4920393,49.1084006 64.0172857,43.2692416 63.2158108,34.4285828 C62.727838,29.0460056 65.060957,26.9029359 69.2663758,28.3595415 C72.3521922,29.4283571 76.5462217,32.4082835 81.6387273,36.9072055 C83.0753708,38.1763935 84.5656252,39.5519004 86.0980921,41.0178632 C89.0451195,43.836999 92.0102353,46.8553177 94.848386,49.8734114 C95.5890264,50.6610096 96.2814909,51.4067457 96.9182174,52.1002539 L97.2919358,52.5086248 L97.3465937,52.3013116 C97.6224365,51.2449117 97.933413,50.0921856 98.2768286,48.864444 C99.4218926,44.7707384 100.691913,40.6764182 102.053491,36.8507598 C105.561748,26.9935257 109.001037,20.6483161 112.533139,19.151628 C114.650094,18.2545926 116.666792,19.107696 118.331267,21.5837705 Z M65.2076997,34.2492809 C65.923457,42.1444325 71.8008164,47.4448405 81.2883785,50.6304931 C84.9010547,51.8435266 88.7832008,52.6554983 92.66713,53.1399977 C93.6404775,53.2614176 94.563746,53.3556059 95.4247849,53.4260848 C94.7982023,52.7437819 94.117133,52.0104096 93.3889795,51.23609 C90.5732785,48.2418694 87.632057,45.2478737 84.7130228,42.4555162 C83.1987774,41.0069841 81.7277204,39.6491965 80.3119279,38.3984291 C75.4070719,34.0652843 71.3731658,31.1991282 68.6097213,30.2419705 C65.8640225,29.2909594 64.8431964,30.2286319 65.2076997,34.2492809 Z M113.315805,20.9855998 C110.541273,22.1612763 107.2282,28.2736264 103.938462,37.5168843 C102.593947,41.2945988 101.337007,45.3467497 100.203395,49.3995151 C99.9359179,50.355769 99.688357,51.2658959 99.4620483,52.1194743 C99.804142,51.860382 100.158931,51.5877332 100.524839,51.3021571 C103.001276,49.3693979 105.47762,47.2458742 107.78571,44.9998264 C112.312979,40.5942501 115.618377,36.2763266 117.181153,32.2964234 C118.618983,28.6347181 118.511264,25.4323156 116.669624,22.6929007 C115.495687,20.9465514 114.450936,20.504601 113.315805,20.9855998 Z" id="Combined-Shape" fill="#94C0E9"/>
                            </g>
                            <g id="Roller-1" transform="translate(-0.000428, 394.962534)">
                                <path d="M8.68202801,99.0089907 L125.405028,134.596345 C125.948028,116.753842 113.542028,101.675501 102.726028,91.9800048 C93.748028,83.9326431 90.743028,71.1720545 95.071028,59.9390297 L109.894028,21.4749126 C109.278028,12.7399978 106.158028,4.25220343 97.142028,1.11835591 C70.814028,-8.03407317 53.057028,41.9968807 53.057028,41.9968807 C53.057028,41.9968807 50.608028,15.761246 40.199028,9.05012896 C34.073028,5.10018569 25.179028,10.3106431 18.249028,15.987441 L0.399028007,84.2355651 C-1.25897199,90.5760013 2.39402801,97.0918134 8.68202801,99.0089907" id="Fill-11" fill="#3973B0"/>
                                <path d="M98.670828,140.44553 C101.543828,144.959466 99.125828,151.619764 93.269828,155.320593 C87.413828,159.021423 80.337828,158.360774 77.464828,153.847835 C74.591828,149.333898 77.009828,142.674597 82.865828,138.972771 C88.721828,135.272937 95.797828,135.93259 98.670828,140.44553 Z M25.878828,121.133356 C29.839828,125.521739 28.978828,132.730087 23.955828,137.232065 C18.931828,141.734044 11.647828,141.825718 7.68682801,137.435342 C3.72482801,133.045963 4.58682801,125.838612 9.60982801,121.336633 C14.633828,116.835651 21.917828,116.743977 25.878828,121.133356 Z" id="Combined-Shape" fill="#010101"/>
                                <path d="M53.1563477,41.0055034 C53.7059292,41.0598865 54.10721,41.5479167 54.0526334,42.0955493 L51.1912776,70.8069649 C51.6598677,70.8530606 52.1836171,70.908658 52.7587882,70.9744828 C54.8018329,71.2082971 57.0769553,71.5223691 59.5264841,71.9279671 C66.5274672,73.0872043 73.5298695,74.7480012 80.074637,77.0031001 C88.7814562,80.0031668 96.0064278,83.8324626 101.251328,88.6111927 C101.658914,88.9825527 101.68721,89.6128421 101.314529,90.0189834 C100.941847,90.4251246 100.309315,90.4533204 99.9017282,90.0819603 C94.8868052,85.5127668 87.8915802,81.8052386 79.4210277,78.8865812 C72.9933495,76.6718271 66.096703,75.0361129 59.1986371,73.8939169 C56.7834988,73.4940134 54.5414303,73.1845044 52.5305858,72.9543752 C51.8279954,72.873968 51.2049194,72.809253 50.6686176,72.7588466 C50.3488724,72.7287941 50.1303774,72.7102765 50.0203884,72.7019073 C49.4608202,72.6593295 49.0459653,72.1663468 49.1014227,71.6098767 L52.0624227,41.8986107 C52.1169993,41.3509781 52.6067662,40.9511203 53.1563477,41.0055034 Z M96.7856632,28.4808237 C97.7525856,31.2250843 97.9175368,35.8207827 97.448867,41.959301 C97.0831456,46.7494268 96.348339,52.240068 95.3706018,58.0335681 C95.0129705,60.1526824 94.6420229,62.1958764 94.2734882,64.1128874 C94.2305613,64.3361805 94.1886354,64.5527734 94.1477901,64.7624109 C95.5179687,63.7820111 97.0238257,62.732069 98.6328359,61.6442318 C103.287472,58.4972744 107.951489,55.6052718 112.34525,53.2426586 C118.008641,50.1973405 122.825157,48.2476029 126.559539,47.6721847 C131.282627,46.9444201 134.374691,48.4769569 135.030789,52.5496609 C136.200801,59.8129486 128.377204,64.1280499 114.751118,66.403293 C110.088262,67.1818827 105.024762,67.6642045 99.8962266,67.9120646 C98.076711,68.000001 96.3687756,68.0520367 94.814754,68.0757157 C94.1675744,68.085577 93.6257604,68.0895711 93.2017299,68.0898981 C92.7699027,68.39178 92.1164065,68.3340833 91.7809782,67.8175749 C91.7085081,67.705982 91.5770708,67.4973958 91.3950789,67.198782 C91.0943836,66.7053984 90.7600254,66.1360069 90.4004173,65.49755 C89.3747624,63.6765778 88.3496953,61.6634637 87.3925895,59.5132519 C85.1351163,54.4416648 83.6050967,49.4114696 83.1390595,44.6810798 C82.4454439,37.640714 84.172398,31.7747164 88.8671005,27.5938672 C92.543739,24.3191577 95.4654773,24.7339519 96.7856632,28.4808237 Z M126.865176,49.6416843 C123.408504,50.1743111 118.773897,52.0504113 113.295049,54.9964976 C108.968453,57.3229945 104.358915,60.1812164 99.7557543,63.2933717 C98.3339478,64.2546423 96.9935406,65.1859836 95.7578555,66.0648146 C97.0214283,66.0368391 98.3756789,65.9903015 99.7993373,65.9214967 C104.855503,65.6771342 109.844242,65.2019338 114.420584,64.4377899 C127.000198,62.3372837 133.963195,58.4968459 133.056068,52.8655188 C132.602077,50.0473832 130.617108,49.0635619 126.865176,49.6416843 Z M90.1998997,29.0797688 C86.0359124,32.7879916 84.4932228,38.0280929 85.1294912,44.4863711 C85.5718016,48.9759289 87.0428454,53.8122311 89.2208236,58.7052266 C90.1510147,60.7949725 91.1480513,62.7530379 92.1445003,64.5221573 C92.147649,64.5277476 92.1507957,64.5333324 92.1539403,64.5389115 C92.2040159,64.2827716 92.2558231,64.0156121 92.3092044,63.7379382 C92.6750133,61.835106 93.0432939,59.8066024 93.3982956,57.7030694 C94.3668421,51.964028 95.0941813,46.5291848 95.4546299,41.8081209 C95.9031441,35.9335956 95.7456271,31.5450201 94.8985912,29.1410141 C94.0921567,26.8522405 92.8921082,26.6818717 90.1998997,29.0797688 Z" id="Combined-Shape" fill="#94C0E9"/>
                            </g>
                        </g>
                    </g>
                </g>
                <g id="Head" transform="translate(268.000000, 82.000000) scale(1 1)">
                    <g id="Head/Hat" stroke="none" stroke-width="1" fill="none" fill-rule="evenodd">
                        <g id="Hat" transform="translate(46.000000, 27.000000)">
                            <path d="M133.9736,46.882 C133.9736,46.882 144.0826,66.968 162.8866,73.159 C169.2526,75.255 175.1786,78.567 179.9086,83.314 C188.5706,92.007 198.7186,107.75 197.4856,133.219 C195.3746,176.852 185.5136,178.59 211.5616,188.816 C246.7176,202.617 239.0076,267.284 191.1516,276.785 C169.2926,281.125 147.0096,286.555 126.6126,295.629 C101.9976,306.579 75.2326,331.456 46.9896,318.679 C23.1896,307.912 14.0436,280.928 19.2626,256.673 C22.3486,242.33 28.9886,229.037 35.6246,215.952 C42.0826,203.217 46.5026,190.609 34.1286,180.03 C27.4316,174.306 18.7476,171.686 13.1276,164.61 C0.8116,149.102 15.0996,123.447 15.2136,106.124 C15.7556,23.857 39.5246,32.228 39.5246,32.228 L89.1076,17.451 L133.9736,46.882 Z" id="Hair" fill="#010101"/>
                            <path d="M141.656896,75.7552704 C141.879267,75.7457889 142.103267,75.7409 142.3286,75.7409 C150.1816,75.7409 156.5476,81.0879 156.5476,87.6849 C156.5476,94.2819 150.1816,99.6289 142.3286,99.6289 C139.2786,99.6289 136.4606,98.8149 134.1466,97.4399 C133.4216,97.0089 132.5036,97.2189 132.0286,97.9169 C123.7616,110.0489 109.5186,119.0739 92.5506,122.3259 C91.0776,122.6089 90.0456,123.9439 90.1316,125.4409 L90.1316,125.4409 L91.7526,153.6909 L65.3136,153.6909 L66.9356,125.4409 C67.0216,123.9439 65.9896,122.6099 64.5166,122.3259 C47.4506,119.0549 33.1426,109.9449 24.8976,97.7069 C24.4086,96.9809 23.4506,96.7879 22.7096,97.2539 C20.3406,98.7429 17.4056,99.6289 14.2196,99.6289 C6.3666,99.6289 -0.0004,94.2819 -0.0004,87.6849 C-0.0004,81.0879 6.3666,75.7409 14.2196,75.7409 C14.7276,75.7409 15.2276,75.7649 15.7206,75.8109 C16.2375649,75.8590866 16.7109999,75.6393697 17.0059522,75.2696487 C17.2048,75.0111 17.3248,74.6951 17.3178,74.3431 L17.3178,74.3431 C17.3248919,74.6965555 17.2068045,75.0178815 17.0059522,75.2696487 L16.9948,75.5901 C16.9948,75.5901 67.1758,69.7651 75.1238,42.2781 L75.1678698,42.3228749 C76.6016212,43.7750612 112.73134,80.03708 141.3248,75.7731 Z" id="Skin" fill="#583318"/>
                            <g transform="translate(17.417139, -0.000427)">
                                <path d="M142.250361,34.3380268 C132.470361,-1.92997324 77.4583607,-3.15197324 53.0083607,2.55302676 C28.5583607,8.25802676 -17.5256393,13.8760268 6.96136071,33.1150268 C29.7813607,51.0450268 152.030361,70.6050268 142.250361,34.3380268" id="Fill-8" fill="#2F6858"/>
                                <path d="M73.3665607,20.7564268 C74.1125607,21.2904268 75.1215607,21.2664268 75.8385607,20.6944268 C78.0175607,18.9534268 82.8125607,14.9124268 80.9805607,14.4534268 C78.6365607,13.8674268 71.7775607,14.2964268 71.6905607,17.4514268 C71.6445607,19.1224268 72.5265607,20.1544268 73.3665607,20.7564268" id="Fill-11" fill="#5BA092"/>
                            </g>
                        </g>
                    </g>
                </g>
                <g id="Face" transform="translate(351.000000, 173.000000) scale(1 1)">
                    <g id="Face/Side Look" stroke="none" stroke-width="1" fill="none" fill-rule="evenodd">
                        <g id="Side-Look" transform="translate(11.000000, 15.000000)">
                            <path d="M66.6175815,8.38051004 C66.2932501,5.18807166 63.4437023,2.86301367 60.2522472,3.18724514 L44.2881422,4.80625578 C41.0966357,5.1296978 38.7717554,7.97957493 39.0952558,11.1716578 C39.4187333,14.3635141 42.2688236,16.6888142 45.4605528,16.3645549 L61.4244162,14.7455687 C64.616097,14.4212466 66.9410275,11.5712615 66.6175815,8.38051004 Z" id="Path-Copy-2" fill="#F4F0F0"/>
                            <path d="M66.6175815,8.38051004 C66.2932501,5.18807166 63.4437023,2.86301367 60.2522472,3.18724514 L44.2881422,4.80625578 C41.0966357,5.1296978 38.7717554,7.97957493 39.0952558,11.1716578 C39.4187333,14.3635141 42.2688236,16.6888142 45.4605528,16.3645549 L61.4244162,14.7455687 C64.616097,14.4212466 66.9410275,11.5712615 66.6175815,8.38051004 Z M61.72751,17.7302185 L45.76351,19.3492185 C40.923297,19.8409533 36.6010992,16.3146065 36.1105442,11.4741422 C35.6200008,6.63379259 39.1455967,2.31205838 43.9855528,1.82155486 L59.94929,0.202581537 C64.7891629,-0.289118701 69.1104548,3.23679314 69.602252,8.07762048 C70.0928121,12.9169296 66.5673307,17.2385235 61.72751,17.7302185 Z" id="Stroke-8" fill="#010101"/>
                            <path d="M60.1006,1.6945 L55.2306,2.4925 L53.9576,16.9095 L61.5756,16.2375 C65.5916,15.8305 68.5176,12.2445 68.1096,8.2285 C67.7026,4.2125 64.1166,1.2875 60.1006,1.6945" id="Fill-10" fill="#010101"/>
                            <path d="M24.4086427,16.171343 C27.607543,16.4121546 30.39654,14.014212 30.6381323,10.8154993 C30.8789546,7.61645695 28.481012,4.82745998 25.2821643,4.58585756 L9.28129935,3.37986773 C6.08207877,3.13903199 3.29347257,5.53709569 3.05266773,8.73670065 C2.81184153,11.9357945 5.20977386,14.7245337 8.40864269,14.965343 L24.4086427,16.171343 Z" id="Path-Copy" fill="#F4F0F0"/>
                            <path d="M24.4086427,16.171343 C27.607543,16.4121546 30.39654,14.014212 30.6381323,10.8154993 C30.8789546,7.61645695 28.481012,4.82745998 25.2821643,4.58585756 L9.28129935,3.37986773 C6.08207877,3.13903199 3.29347257,5.53709569 3.05266773,8.73670065 C2.81184153,11.9357945 5.20977386,14.7245337 8.40864269,14.965343 L24.4086427,16.171343 Z M24.1832993,19.1628677 L8.18329935,17.9568677 C3.3323015,17.591687 -0.304062267,13.3626809 0.0611301796,8.51152716 C0.426281818,3.65971034 4.65511516,0.0231223841 9.50663568,0.388342444 L25.5078702,1.59436014 C30.3587969,1.96074069 33.9948447,6.189752 33.6296399,11.0410702 C33.2632593,15.8919969 29.034248,19.5280447 24.1832993,19.1628677 Z" id="Stroke-12" fill="#010101"/>
                            <path d="M25.3945,3.0905 L17.5065,2.4955 L17.6655,17.0915 L24.2955,17.6675 C28.3215,17.9705 31.8305,14.9535 32.1335,10.9275 C32.4365,6.9035 29.4195,3.3935 25.3945,3.0905" id="Fill-14" fill="#010101"/>
                        </g>
                    </g>
                </g>
                <g id="Body" transform="translate(87.000000, 44.000000) scale(1 1)">
                    <defs>
                        <path d="M18.0849,9.6994 C18.0849,9.6994 32.9029,11.2134 25.3719,21.6244 C25.3719,21.6244 41.3199,21.1814 30.0239,33.3644 C30.0239,33.3644 43.5359,35.5794 35.5609,45.9904 C35.5609,45.9904 50.1809,47.5414 39.9909,57.2874 C39.9909,57.2874 53.9459,56.4014 46.8589,66.8124 C46.8589,66.8124 61.2569,69.6914 54.6109,77.6664 L54.6109,77.6664 L138.4369,74.5414 L138.4369,143.3594 L142.5789,156.7764 L148.7519,174.8114 C137.614663,181.561685 129.043005,186.230222 123.036926,188.817011 C116.610976,191.584637 106.53459,194.947722 92.8077684,198.906267 C66.1372394,202.739267 38.2380593,202.930917 35.5148176,202.9405 L35.2979,202.941004 C35.2979,202.941004 37.3409,158.8434 36.8839,137.8254 C36.5019,120.2434 35.2979,90.4764 35.2979,90.4764 C22.8019,88.0954 29.5809,75.4514 29.5809,75.4514 C16.7329,75.6724 26.0369,63.9324 26.0369,63.9324 C10.3089,65.4834 20.0559,53.3004 20.0559,53.3004 C4.3289,53.3004 13.8539,42.6674 13.8539,42.6674 C-3.6451,40.8954 10.7529,29.3774 10.7529,29.3774 C-6.5251,29.1554 4.1299,16.4044 4.1299,16.4044 L4.1299,16.4044 L10.7349,12.9774 Z M144.5631,0.7582 L154.7051,3.6042 L164.1411,7.0882 C168.6671,8.7552 164.6171,13.0432 164.6171,13.0432 C177.0401,17.7352 166.7611,24.0022 166.7611,24.0022 C179.3871,30.4342 165.0941,37.8192 165.0941,37.8192 C179.6261,48.0632 162.8431,48.4312 162.8431,48.4312 C162.8431,48.4312 171.6881,52.5752 168.8421,54.9202 C163.1721,59.5922 143.4661,63.9672 141.5521,62.1052 C134.2851,55.0372 145.0831,51.1592 145.0831,51.1592 C128.4071,41.6312 145.3211,37.3422 145.3211,37.3422 C128.6451,28.2902 146.0361,25.4312 146.0361,25.4312 C131.0271,16.8552 146.9891,12.3292 146.9891,12.3292 C132.6951,7.8022 144.5631,0.7582 144.5631,0.7582 L144.5631,0.7582 Z" id="bodyreading-path-1"/>
                    </defs>
                    <g id="Body/Reading" stroke="none" stroke-width="1" fill="none" fill-rule="evenodd">
                        <g id="Body" transform="translate(163.000000, 217.000000)">
                            <path d="M82.7169,220.5702 C79.0629,221.8992 80.9859,205.7962 81.6719,193.2832 C81.7829,191.2652 83.5319,189.7352 85.5469,189.8912 L162.3979,195.8372 M320.0599,233.1762 C304.7629,172.3132 284.9739,112.8302 257.6219,55.9562 C225.4999,-10.8378 123.2159,0.5812 119.8409,0.9772 C119.7779,0.9842 119.7329,0.9882 119.6709,0.9922 C116.7509,1.1812 38.6379,6.6882 13.2989,56.8502 C-12.5251,107.9702 5.9209,228.3692 13.2989,254.1932 C19.0649,274.3732 43.7009,312.5432 106.0519,286.8672 C144.3299,271.1052 211.2889,227.9262 235.6999,201.6762 L239.2899,201.8482 C251.7899,228.4632 255.9899,252.2032 274.9189,321.6092 L289.1899,371.7752 C289.1899,371.7752 289.9249,372.4142 286.2539,379.2772 C284.7509,382.0882 279.3109,389.0122 276.7579,398.3492 C275.6289,402.4772 280.7639,405.7732 284.6499,402.5012 C291.7599,396.5132 294.7249,388.7212 294.7249,388.7212 C297.7999,401.0212 299.2409,417.5682 305.8979,431.5092 C309.4239,438.8932 316.3389,441.1372 319.0329,439.5052 C320.6129,438.5472 319.8439,436.6032 319.6049,434.4442 C319.3659,432.2832 318.6579,429.9072 318.3609,428.0842 C317.7509,424.3542 318.9919,430.3602 318.2979,427.6452 C318.3419,427.9592 318.4279,428.2622 318.5519,428.5542 C319.3749,430.4922 325.1969,437.8382 329.4069,435.0742 C329.5969,434.9492 329.9609,434.6072 330.1099,434.3312 C330.8069,433.0342 329.7559,426.6182 330.1909,428.0242 C331.5649,432.4642 336.9479,432.2072 338.1009,430.9652 C338.2149,430.8412 339.1379,430.4692 339.2459,430.2012 C339.7969,428.8272 340.2889,428.2912 341.7419,428.0122 C346.0859,427.1782 351.0019,427.9012 351.1839,411.9882 C351.9299,346.6422 335.9889,296.5562 320.0599,233.1762" id="Skin" fill="#583318"/>
                            <g id="Tshirt" transform="translate(45.000000, 5.000000)">
                                <mask id="bodyreading-mask-2" fill="#fff">
                                    <use xlink:href="#bodyreading-path-1"/>
                                </mask>
                                <use fill="#F2B08F" xlink:href="#bodyreading-path-1"/>
                                <g mask="url(#bodyreading-mask-2)">
                                    <g transform="translate(-7.000000, -4.000000) scale(1 1)" id="Patterns">
                                        <g id="Patterns/Pattern 7" stroke="none" stroke-width="1" fill="none" fill-rule="evenodd">
                                            <path d="M128.5,180 C138.717268,180 147,188.282732 147,198.5 C147,208.717268 138.717268,217 128.5,217 C118.282732,217 110,208.717268 110,198.5 C110,188.282732 118.282732,180 128.5,180 Z M128.5,187 C122.148725,187 117,192.148725 117,198.5 C117,204.851275 122.148725,210 128.5,210 C134.851275,210 140,204.851275 140,198.5 C140,192.148725 134.851275,187 128.5,187 Z M221.5,162 C231.717268,162 240,170.282732 240,180.5 C240,190.717268 231.717268,199 221.5,199 C211.282732,199 203,190.717268 203,180.5 C203,170.282732 211.282732,162 221.5,162 Z M21.5,161 C31.7172679,161 40,169.282732 40,179.5 C40,189.717268 31.7172679,198 21.5,198 C11.2827321,198 3,189.717268 3,179.5 C3,169.282732 11.2827321,161 21.5,161 Z M221.5,169 C215.148725,169 210,174.148725 210,180.5 C210,186.851275 215.148725,192 221.5,192 C227.851275,192 233,186.851275 233,180.5 C233,174.148725 227.851275,169 221.5,169 Z M21.5,168 C15.1487254,168 10,173.148725 10,179.5 C10,185.851275 15.1487254,191 21.5,191 C27.8512746,191 33,185.851275 33,179.5 C33,173.148725 27.8512746,168 21.5,168 Z M110.5,109 C120.717268,109 129,117.282732 129,127.5 C129,137.717268 120.717268,146 110.5,146 C100.282732,146 92,137.717268 92,127.5 C92,117.282732 100.282732,109 110.5,109 Z M110.5,116 C104.148725,116 99,121.148725 99,127.5 C99,133.851275 104.148725,139 110.5,139 C116.851275,139 122,133.851275 122,127.5 C122,121.148725 116.851275,116 110.5,116 Z M183.5,100 C193.717268,100 202,108.282732 202,118.5 C202,128.717268 193.717268,137 183.5,137 C173.282732,137 165,128.717268 165,118.5 C165,108.282732 173.282732,100 183.5,100 Z M183.5,107 C177.148725,107 172,112.148725 172,118.5 C172,124.851275 177.148725,130 183.5,130 C189.851275,130 195,124.851275 195,118.5 C195,112.148725 189.851275,107 183.5,107 Z M44.5,81 C54.7172679,81 63,89.2827321 63,99.5 C63,109.717268 54.7172679,118 44.5,118 C34.2827321,118 26,109.717268 26,99.5 C26,89.2827321 34.2827321,81 44.5,81 Z M253.5,81 C263.717268,81 272,89.2827321 272,99.5 C272,109.717268 263.717268,118 253.5,118 C243.282732,118 235,109.717268 235,99.5 C235,89.2827321 243.282732,81 253.5,81 Z M44.5,88 C38.1487254,88 33,93.1487254 33,99.5 C33,105.851275 38.1487254,111 44.5,111 C50.8512746,111 56,105.851275 56,99.5 C56,93.1487254 50.8512746,88 44.5,88 Z M253.5,88 C247.148725,88 242,93.1487254 242,99.5 C242,105.851275 247.148725,111 253.5,111 C259.851275,111 265,105.851275 265,99.5 C265,93.1487254 259.851275,88 253.5,88 Z M192.5,28 C202.717268,28 211,36.2827321 211,46.5 C211,56.7172679 202.717268,65 192.5,65 C182.282732,65 174,56.7172679 174,46.5 C174,36.2827321 182.282732,28 192.5,28 Z M110.5,28 C120.717268,28 129,36.2827321 129,46.5 C129,56.7172679 120.717268,65 110.5,65 C100.282732,65 92,56.7172679 92,46.5 C92,36.2827321 100.282732,28 110.5,28 Z M192.5,35 C186.148725,35 181,40.1487254 181,46.5 C181,52.8512746 186.148725,58 192.5,58 C198.851275,58 204,52.8512746 204,46.5 C204,40.1487254 198.851275,35 192.5,35 Z M110.5,35 C104.148725,35 99,40.1487254 99,46.5 C99,52.8512746 104.148725,58 110.5,58 C116.851275,58 122,52.8512746 122,46.5 C122,40.1487254 116.851275,35 110.5,35 Z M40.5,9 C50.7172679,9 59,17.2827321 59,27.5 C59,37.7172679 50.7172679,46 40.5,46 C30.2827321,46 22,37.7172679 22,27.5 C22,17.2827321 30.2827321,9 40.5,9 Z M40.5,16 C34.1487254,16 29,21.1487254 29,27.5 C29,33.8512746 34.1487254,39 40.5,39 C46.8512746,39 52,33.8512746 52,27.5 C52,21.1487254 46.8512746,16 40.5,16 Z M258.5,2 C268.717268,2 277,10.2827321 277,20.5 C277,30.7172679 268.717268,39 258.5,39 C248.282732,39 240,30.7172679 240,20.5 C240,10.2827321 248.282732,2 258.5,2 Z M258.5,9 C252.148725,9 247,14.1487254 247,20.5 C247,26.8512746 252.148725,32 258.5,32 C264.851275,32 270,26.8512746 270,20.5 C270,14.1487254 264.851275,9 258.5,9 Z" id="Pattern" fill="#010101"/>
                                        </g>
                                    </g>
                                </g>
                            </g>
                            <g id="Book" transform="translate(93.100200, 45.103900)">
                                <path d="M1.77635684e-14,8.0415 L58.574,26.5205 L58.574,124.8395 L1.77635684e-14,106.3615 L1.77635684e-14,8.0415 Z M127.6066,8.0415 L127.4696,31.9105 C125.0636,32.8015 123.7576,33.6515 123.7576,33.6515 C114.5396,45.9685 119.6806,84.7155 119.6806,84.7155 C119.6806,84.7155 106.5946,52.6775 101.9806,51.4765 C84.3336,46.8795 100.6676,89.1485 106.7846,103.1235 L106.7846,103.1235 L109.7176,110.8085 L94.9776,116.6545 L69.0326,124.8395 L69.0326,26.5195 L127.6066,8.0415 Z" id="Combined-Shape" fill="#94C0E9"/>
                                <path d="M69.0332,124.8393 C69.0332,124.8393 67.0222,126.2673 63.5142,126.2673 C60.4942,126.2673 58.5742,124.8393 58.5742,124.8393 L58.5742,26.5203 C58.5742,26.5203 62.5522,27.5783 63.7142,27.5783 C65.1672,27.5783 69.0332,26.5203 69.0332,26.5203 L69.0332,124.8393 Z" id="Fill-10" fill="#3973B0"/>
                                <polyline id="Stroke-14" stroke="#FFF" stroke-width="2" stroke-linecap="round" stroke-linejoin="round" points="20.2275 1.77635684e-15 63.7135 27.578 8.5415 3.652"/>
                                <polyline id="Stroke-16" stroke="#FFF" stroke-width="2" stroke-linecap="round" stroke-linejoin="round" points="106.5625 1.77635684e-15 63.0755 27.578 118.2485 3.652"/>
                            </g>
                            <path d="M289.779604,369.698682 C290.048347,369.77972 290.272135,369.96946 290.403746,370.22485 C290.979911,371.342895 289.219143,375.449046 283.104432,386.267212 C277.428735,396.307366 276.795297,401.06602 278.994823,402.713293 C279.931729,403.414004 281.28526,403.434382 282.396976,402.774474 C285.627155,400.854597 289.534066,396.344662 293.842167,388.251225 C294.292588,387.405039 295.560374,387.61616 295.712267,388.562647 C295.727103,388.655097 295.756706,388.83608 295.800693,389.099685 C295.874199,389.540196 295.961323,390.051523 296.061681,390.627752 C296.348623,392.275295 296.683905,394.11161 297.064441,396.089367 C298.151446,401.738841 299.382623,407.387715 300.732679,412.655927 C303.476572,423.363189 306.360197,431.103981 309.193575,434.446318 C313.197561,439.167758 316.486038,439.909733 318.844336,438.382732 C318.897373,438.348386 318.970702,437.958156 318.893508,437.264543 C318.862041,436.981805 318.810798,436.678581 318.736539,436.313482 C318.710525,436.185584 318.705812,436.16339 318.637883,435.846014 L316.585968,425.740218 C315.497094,421.970103 314.454123,417.007558 313.459274,411.105047 C312.63761,406.230053 311.898666,401.010182 311.253679,395.790775 C311.027977,393.964337 310.830117,392.268239 310.661543,390.745792 C310.602509,390.212641 310.551343,389.739173 310.508225,389.330803 C310.4823,389.085276 310.464789,388.915695 310.455871,388.827476 C310.400324,388.277992 310.800739,387.787517 311.350224,387.731971 C311.899708,387.676424 312.390183,388.076839 312.445729,388.626324 C312.454353,388.711636 312.471561,388.87827 312.497169,389.120799 C312.539937,389.525855 312.59074,389.995961 312.649394,390.525686 C312.817071,392.040028 313.013957,393.727781 313.238581,395.545491 C313.880236,400.737933 314.615231,405.929911 315.431458,410.772642 C316.327957,416.091638 317.263415,420.632503 318.220954,424.166359 C318.299512,424.273883 318.3556,424.400671 318.383917,424.540186 L318.533604,425.281508 C318.845475,426.355233 319.159473,427.320541 319.475023,428.169636 C319.553761,428.35881 319.722373,428.713687 319.979411,429.177934 C320.411342,429.95806 320.929258,430.738492 321.529406,431.462813 C323.446843,433.776977 325.709403,434.973591 328.343339,434.571284 C329.229327,434.436443 329.575493,433.900455 329.516127,431.542463 C329.5017,430.978292 329.277948,429.650011 328.824107,427.401324 L328.857703,427.487715 C328.806277,427.374845 328.777587,427.257412 328.769707,427.140565 C328.70699,426.824254 328.63832,426.490338 328.565293,426.138752 C328.325428,424.983938 326.921777,418.408089 326.504173,416.398435 C326.221587,415.038537 325.964651,413.776473 325.725232,412.568218 C324.245023,405.098168 323.4498,399.75177 323.4498,396.3669 C323.4498,395.814615 323.897515,395.3669 324.4498,395.3669 C325.002085,395.3669 325.4498,395.814615 325.4498,396.3669 C325.4498,399.576584 326.232462,404.838534 327.687087,412.179471 C327.92522,413.381239 328.180945,414.637351 328.462342,415.99153 C328.878471,417.994084 330.282147,424.570046 330.523498,425.732017 C330.597034,426.086053 330.66621,426.422152 330.731117,426.741081 L330.74038,426.78844 C330.805507,426.91809 330.902683,427.09926 331.030565,427.317979 C331.332171,427.833817 331.687174,428.349851 332.089696,428.827437 C333.863158,430.93162 335.797968,431.558202 338.103322,430.038472 C338.200269,429.929755 338.339267,429.750069 338.480183,429.518649 C338.679423,429.191445 338.820632,428.850841 338.881753,428.515639 C338.908609,428.367566 338.703418,426.573011 338.308338,423.728025 C338.061756,421.95237 336.953332,414.270011 336.835797,413.444657 C336.737844,412.756815 336.645402,412.103523 336.556779,411.472414 C335.659581,405.08315 335.104887,400.604614 334.88052,397.623142 C334.839075,397.072414 335.251931,396.592364 335.802658,396.55092 C336.353386,396.509475 336.833436,396.922331 336.87488,397.473058 C337.094966,400.397627 337.646086,404.84731 338.537348,411.194297 C338.625781,411.82406 338.718043,412.476079 338.815821,413.162689 C338.932694,413.983392 340.041879,421.671035 340.289328,423.452928 C340.769386,426.909845 340.938065,428.385069 340.84948,428.873481 C340.740169,429.472976 340.506709,430.036092 340.188413,430.558818 C339.924302,430.992557 339.657331,431.316682 339.459807,431.514207 L339.314961,431.63406 C336.401161,433.615193 333.713133,433.135064 331.489239,431.091167 C331.50409,431.242947 331.51252,431.375842 331.515483,431.491731 C331.598002,434.769345 330.645655,436.243917 328.644789,436.548435 C325.245066,437.067709 322.37553,435.575437 320.065815,432.830414 L320.595716,435.437633 C320.663346,435.75334 320.668382,435.777051 320.69641,435.914855 C320.781599,436.333689 320.842106,436.691728 320.881236,437.043324 C321.036192,438.435649 320.841411,439.472198 319.931413,440.061501 C316.670235,442.173118 312.284758,441.183629 307.668104,435.73974 C304.566954,432.08153 301.616446,424.161199 298.795283,413.152413 C297.434036,407.840531 296.194563,402.153592 295.100465,396.467252 C294.772963,394.765127 294.47873,393.166879 294.219663,391.702014 C290.28121,398.553642 286.62282,402.589411 283.41834,404.494014 C281.634991,405.552599 279.40702,405.519056 277.796452,404.314514 C274.479661,401.830496 275.2406,396.113999 281.36334,385.283037 C284.671106,379.430928 286.739108,375.419878 287.801331,372.942751 C288.183897,372.050599 288.407211,371.422464 288.500649,371.030664 L288.514791,370.968584 L288.514791,370.968584 L288.52536,370.916875 L288.52536,370.916875 C288.47808,370.742476 288.477472,370.553138 288.533482,370.367396 C288.692928,369.838629 289.250836,369.539235 289.779604,369.698682 Z M236.248837,74.2511015 C238.035111,74.5327267 239.343621,76.643811 240.562783,80.0884636 C240.967468,81.2318704 241.328838,82.4496707 241.64366,83.6683429 C244.338012,81.3410146 246.993798,81.0614894 249.284378,83.0330201 C250.029928,83.6746015 250.755082,84.5995205 251.467354,85.7411321 C251.926942,86.4777462 252.354257,87.2620238 252.739972,88.0457702 C252.874845,88.3198232 252.995099,88.5746695 253.099387,88.8041296 C253.147854,88.910769 253.185358,88.9952509 253.21128,89.0548048 C253.236162,89.1003344 253.270757,89.1644368 253.314593,89.2468476 C253.415212,89.4360082 253.531399,89.6597092 253.661853,89.917222 C254.032424,90.6487217 254.444421,91.5066815 254.887427,92.485278 C256.149867,95.2739951 257.411078,98.4749621 258.587612,102.04167 C262.332915,113.3957 264.393877,125.784887 263.8902,138.720231 C263.234799,155.552121 258.2486,171.934773 248.057047,187.356386 C245.231331,191.632192 242.017655,195.809936 238.379304,199.907586 C238.264354,200.028307 238.041579,200.258945 237.714833,200.592179 C237.172286,201.145498 236.53349,201.786754 235.802297,202.508627 C233.715471,204.568852 231.305381,206.863578 228.602816,209.334242 C220.88285,216.391771 212.363486,223.448936 203.289983,230.037352 C199.410451,232.854342 195.50279,235.52948 191.578157,238.041269 C191.112985,238.338982 190.494544,238.20323 190.196831,237.738057 C189.899118,237.272885 190.03487,236.654444 190.500043,236.356731 C194.390737,233.866663 198.266185,231.213577 202.114864,228.418989 C211.123114,221.877955 219.585664,214.867853 227.253353,207.858115 C229.936466,205.405235 232.328081,203.128099 234.397183,201.085371 C235.120565,200.37121 235.751724,199.737621 236.286786,199.191935 C236.606605,198.865765 236.822599,198.642148 236.907254,198.554128 C240.459401,194.552667 243.615262,190.450082 246.38849,186.2537 C256.372021,171.146861 261.250136,155.11933 261.891715,138.642414 C262.385354,125.964861 260.363164,113.808751 256.688279,102.668195 C255.534755,99.1712437 254.299477,96.0360947 253.065426,93.3100895 C252.634661,92.3585332 252.235298,91.5268824 251.877727,90.821045 C251.66521,90.4015406 251.515237,90.1195965 251.438205,89.9811142 L251.392185,89.8871176 C251.312998,89.7013431 251.160082,89.364889 250.945513,88.9288993 C250.587356,88.2011477 250.191128,87.4739274 249.770534,86.7998102 C249.155841,85.8145978 248.544664,85.0350531 247.97975,84.5489181 C246.371206,83.1644238 244.523806,83.503545 242.231121,85.8574043 C242.298284,86.0519127 242.375955,86.2840115 242.463453,86.5548342 C242.812436,87.634995 243.199883,88.9758902 243.61606,90.5937627 C244.799714,95.1951687 245.981288,101.099087 247.082783,108.435547 C247.862673,113.629976 248.574513,119.372383 249.203182,125.687947 C249.257888,126.237515 248.856722,126.727377 248.307153,126.782082 C247.757585,126.836788 247.267723,126.435622 247.213018,125.886053 C246.587588,119.603029 245.87983,113.893551 245.104951,108.732499 C244.01336,101.462008 242.845199,95.6251068 241.679119,91.0920166 C241.272889,89.5128154 240.896673,88.2107899 240.560316,87.1697067 C240.361578,86.5545767 240.222379,86.1678463 240.152574,85.9932678 L240.143178,85.9691396 C240.135207,85.947525 240.127937,85.9255079 240.1214,85.9031095 L240.152574,85.9932678 C240.133588,85.9457846 240.118446,85.8974088 240.107073,85.8485509 C240.105418,85.841244 240.103694,85.8334238 240.102059,85.8255627 C240.086468,85.7506134 240.054701,85.6047284 240.00742,85.3981412 C239.927954,85.050925 239.834269,84.6633044 239.727053,84.2455666 C239.421104,83.0535151 239.069001,81.8622335 238.677388,80.7557595 C237.723374,78.0602624 236.657225,76.3401925 235.937351,76.2266967 C234.002889,75.9216842 232.409391,76.6592505 231.089232,78.1261151 C230.684955,78.575318 230.339374,79.0600149 230.054682,79.5439258 C229.886773,79.8293314 229.779493,80.0442079 229.732942,80.1518466 L229.657864,80.2931829 C229.622174,80.3490607 229.540834,80.4957124 229.428133,80.7345577 C229.229401,81.1557288 229.027923,81.671957 228.837978,82.284829 C228.121622,84.5962038 227.784407,87.4828136 228.01915,90.9685854 L232.501409,126.202829 C232.571091,126.7507 232.183442,127.251326 231.635571,127.321009 C231.0877,127.390691 230.587074,127.003042 230.517391,126.455171 L226.390098,94.0029648 C226.336134,93.9010745 226.299006,93.7880518 226.282874,93.6670775 C226.166877,92.7971952 226.08211,91.95588 226.026567,91.1429985 L224.834885,81.7644612 C224.631688,78.8878011 222.770312,77.7370677 220.049414,78.3045884 C219.893416,78.3365996 219.581573,78.5010961 219.164406,78.7928509 C216.872466,80.3994785 215.201651,82.8213388 214.42167,85.6215347 C211.18405,97.2353109 210.320695,113.333586 214.041334,128.426652 C214.32689,129.585035 212.70939,130.180287 212.175933,129.113133 L200.994492,106.736255 C200.968077,106.668932 200.912341,106.533552 200.828359,106.339961 C200.686174,106.012202 200.517824,105.64568 200.324451,105.25029 C199.771949,104.120594 199.132279,102.991307 198.416514,101.942546 C195.917768,98.2813032 193.253583,96.6215785 190.543002,97.7305595 C188.518484,98.5586936 187.814413,102.295155 188.40937,108.061874 C188.825506,112.095344 189.74504,116.327311 190.814594,120.218802 C191.663155,123.303954 193.651774,129.006562 196.458606,136.546131 C196.649264,137.058268 196.843058,137.577132 197.039825,138.102334 C198.507218,142.019039 200.079704,146.129214 201.652224,150.181452 C202.202628,151.599794 202.713704,152.909535 203.172329,154.07928 C203.332816,154.488611 203.475273,154.851177 203.598059,155.163055 C203.722417,155.478683 203.722417,155.478683 203.748429,155.544513 C203.951386,156.058154 203.699527,156.639071 203.185887,156.842029 C202.672246,157.044986 202.091329,156.793127 201.888371,156.279487 C201.861922,156.212549 201.861922,156.212549 201.73709,155.895718 C201.613965,155.58298 201.471165,155.21954 201.310329,154.809318 C200.850885,153.637485 200.338971,152.325594 199.787694,150.905005 C198.212552,146.846011 196.637376,142.728803 195.166951,138.804006 C194.969705,138.277523 194.775426,137.757361 194.584277,137.243907 C191.756395,129.647795 189.755829,123.910929 188.886156,120.749017 C187.78972,116.759717 186.849842,112.43412 186.41993,108.267126 C185.73533,101.631524 186.571451,97.1942767 189.785736,95.8794659 C193.632988,94.305438 197.099598,96.4650545 200.068455,100.81512 C200.84329,101.950432 201.529127,103.161223 202.12109,104.371605 C202.328279,104.795243 202.509251,105.189247 202.663151,105.54401 C202.75682,105.759933 202.821512,105.917062 202.819867,105.923867 L210.643093,121.573829 C208.626325,108.397981 209.692853,95.1366092 212.495073,85.0846701 C213.397121,81.8462404 215.338326,79.0324478 218.017282,77.154527 C218.642132,76.7175232 219.156663,76.4461091 219.644214,76.3460679 C223.470348,75.5480113 226.53457,77.4423648 226.824409,81.5678292 L226.865779,81.8964338 C226.886094,81.8281285 226.90671,81.7602372 226.927623,81.6927596 C227.285113,80.5392936 227.652601,79.740242 227.928545,79.2868878 C228.224726,78.6256255 228.774288,77.708593 229.602634,76.7881961 C231.338608,74.8593089 233.5664,73.8281535 236.248837,74.2511015 Z M84.003,221.9716 C84.5552847,221.9716 85.003,222.419315 85.003,222.9716 C85.003,223.523885 84.5552847,223.9716 84.003,223.9716 C83.9526209,223.9716 83.8283581,223.976259 83.6316584,223.991159 C83.2875467,224.017226 82.8739306,224.064703 82.392248,224.139184 C80.9947816,224.355269 79.3426206,224.746547 77.4472426,225.357937 C71.9856457,227.119678 65.6922786,230.301758 58.6607088,235.26555 C58.20952,235.584057 57.5855577,235.476498 57.2670502,235.025309 C56.9485427,234.57412 57.0561023,233.950158 57.5072912,233.63165 C64.7014714,228.553067 71.1761043,225.279335 76.8332574,223.454513 C78.8294419,222.810606 80.5847184,222.394908 82.086627,222.162673 C83.0073696,222.020301 83.650294,221.9716 84.003,221.9716 Z M193.844694,178.815252 L200.564694,179.444252 C201.114575,179.495722 201.518618,179.983213 201.467148,180.533094 C201.415678,181.082975 200.928187,181.487018 200.378306,181.435548 L193.658306,180.806548 C193.108425,180.755078 192.704382,180.267587 192.755852,179.717706 C192.807322,179.167825 193.294813,178.763782 193.844694,178.815252 Z" id="Skin-Shadows" fill="#371D0A"/>
                        </g>
                    </g>
                </g>
            </g>
        </g>
    </g>
</svg>
