<svg viewBox="303.964 354.581 1657.985 1024.96" xmlns="http://www.w3.org/2000/svg" xmlns:xlink="http://www.w3.org/1999/xlink" overflow="visible">
    <defs>
        <path d="M179.983583,9.27769636 L181.956861,20.13906 L282.571887,0.487769091 L248.831879,171 C248.831879,171 34.2644111,182.52079 24,169.014057 C-25.3329722,80.2433941 19.9056004,-2.27021273 19.9056004,9.27769636 L179.983583,9.27769636 Z" id="masterscenestudy-path-3"/>
        <path d="M275.684414,0.876652922 C298.838059,1.54914435 329.906472,9.13626937 355.7471,15.2297529 L355.731944,15.2730262 C397.943463,24.6870841 452.971125,41.5664426 466.9347,60.6071529 C489.4187,91.2671529 484.8307,126.127153 444.6317,165.644153 C415.2977,194.481153 386.9717,210.585153 372.4107,216.074153 C363.858947,207.086013 354.27259,195.452866 345.166172,184.184251 L345.5431,187.063753 C345.8052,205.151453 195.8084,217.517053 146.0664,197.369053 L149.907924,169.277823 C138.376043,183.58138 125.055547,200.37944 113.5941,212.425753 C99.0331,206.935753 70.7081,190.832753 41.3741,161.994753 C1.1741,122.477753 -11.4139,87.6187529 11.0701,56.9587529 C23.1971,40.4207529 69.0261,26.2177529 108.6751,16.6397529 C108.048715,16.8278037 108.709162,16.7365391 110.005927,16.5033439 C127.558487,12.2104677 191.200137,-1.57717031 275.684414,0.876652922 Z M162.310363,78.5613735 L87.8171,104.583753 C87.8171,104.583753 122.608609,134.324697 151.917069,154.584908 L162.310363,78.5613735 Z M332.466363,87.1363735 L341.108096,153.169863 C367.388419,133.830342 393.927617,109.395078 395.144211,108.27232 L395.1877,108.232153 L332.466363,87.1363735 Z" id="masterscenestudy-path-5"/>
        <polygon id="masterscenestudy-path-1" points="370.382075 216.481709 253.882075 253.241286 253.882075 94.5047056 370.382075 68.1312994"/>
    </defs>
    <g id="Master/Scene/Study" stroke="none" stroke-width="1" fill="none" fill-rule="evenodd">
        <g id="Desk" transform="translate(365.354157, 576.662185)">
            <polygon id="Fill-1" fill="#FFF5EE" points="401.245783 582.747738 3.06954462e-12 797.176717 934.394844 797.176717 1164.39112 582.747738"/>
            <path d="M143.986417,755.183991 C142.614794,761.927891 146.971454,768.505858 153.715266,769.877275 C154.552747,770.047603 155.38803,770.13002 156.211223,770.13002 C162.013143,770.13002 167.209483,766.056428 168.410751,760.150982 L262.34602,298.257036 C262.461421,297.695502 262.521869,297.136166 262.558138,296.580127 L237.762322,294.081247 L143.986417,755.183991 Z" id="Fill-2" fill="#5BA092"/>
            <path d="M345.968182,268.036849 L436.044663,759.520658 C437.147017,765.530498 442.387318,769.737056 448.289252,769.737056 C449.033314,769.737056 449.790564,769.668925 450.548913,769.530465 C457.318002,768.289816 461.801054,761.797562 460.561318,755.028388 L370.922262,265.936866 L346.000054,263.425898 C345.7132,264.906106 345.680229,266.462137 345.968182,268.036849" id="Fill-4" fill="#5BA092"/>
            <path d="M554.396133,612.796938 C553.260808,619.584793 557.843874,626.006718 564.630549,627.142972 C565.32735,627.258356 566.018657,627.315498 566.70227,627.315498 C572.681138,627.315498 577.958808,623.000149 578.978733,616.908991 L635.598832,278.531596 C635.788968,277.395342 635.805454,276.272275 635.692251,275.178877 L610.083133,279.99532 L554.396133,612.796938 Z" id="Fill-6" fill="#5BA092"/>
            <path d="M825.813657,623.373773 L725.443412,223.238651 C725.307129,222.695799 725.125784,222.177122 724.924657,221.671632 L700.906683,226.190275 C700.900379,227.21664 701.005888,228.25839 701.268563,229.302337 L801.638808,629.437458 C803.05769,635.093455 808.136431,638.868149 813.716341,638.868149 C814.71978,638.868149 815.740803,638.746172 816.75853,638.491229 C823.4331,636.816518 827.48752,630.048442 825.813657,623.373773" id="Fill-8" fill="#5BA092"/>
            <polygon id="Fill-10" fill="#5BA092" points="142.901318 323.557704 142.901318 291.196436 612.89529 253.154995 805.70279 220.793727 805.70279 253.154995 431.442143 323.557704"/>
            <polygon id="Fill-12" fill="#2F6858" points="142.901318 291.196216 612.89529 220.794606 805.70279 220.794606 431.442143 291.196216"/>
            <path d="M478.200517,256.59178 L456.253456,256.59178 L471.039065,211.831714 L407.653173,211.831714 L390.247414,262.030196 L388.996687,265.097203 C388.653782,265.936757 388.506508,266.842243 388.563659,267.746632 C388.765885,270.907045 391.389333,273.367464 394.555716,273.367464 L478.200517,273.367464 C482.83414,273.367464 486.589617,269.61255 486.589617,264.979622 C486.589617,260.346693 482.83414,256.59178 478.200517,256.59178" id="Fill-14" fill="#B9B3B8"/>
            <path d="M256.96383,17.5742145 L620.620778,0.0183171091 C629.462689,-0.406954066 636.874726,6.62705315 636.908797,15.4797265 L637.558446,186.177203 C637.588014,194.267245 631.404722,201.026529 623.343142,201.716633 L256.96383,233.071317 L256.96383,17.5742145 Z" id="Fill-16" fill="#010101"/>
            <path d="M242.405617,17.5742145 L256.96372,17.5742145 L256.96372,233.071317 L242.405617,233.071317 C232.445966,233.071317 224.374494,224.998857 224.374494,215.041797 L224.374494,35.6026354 C224.374494,25.6455757 232.445966,17.5742145 242.405617,17.5742145" id="Fill-20" fill="#B9B3B8"/>
        </g>
        <g id="UI" transform="translate(714.558567, 362.469983)">
            <g id="UI-Simple">
                <polygon id="Fill-1" fill="#E3D4C5" points="0 71.9192897 0 403.165975 361.046689 276.238463 361.046689 11.7088034"/>
                <polygon id="Fill-2" fill="#CDB1AA" points="144.147758 187.345029 39.0284892 206.203114 39.0284892 121.342284 144.147758 104.242426"/>
                <polygon id="Fill-3" fill="#CDB1AA" points="144.147978 0 39.028709 1.90877527 39.028709 101.960687 144.147978 84.149847"/>
                <polygon id="Fill-4" fill="#CDB1AA" points="144.147758 285.824647 39.0284892 308.349734 39.0284892 228.250402 144.147758 206.389046"/>
                <polygon id="Fill-5" fill="#CDB1AA" points="39.0289288 334.016882 39.0289288 427.783132 144.951608 388.495548 144.148198 312.203877"/>
                <polygon id="Fill-6" fill="#94C0E9" points="378.317594 225.280427 193.71675 283.687632 193.71675 92.4507667 378.317594 53.8269133"/>
                <polygon id="Fill-6-Copy" fill="#FFF" points="237.396226 133.884674 202.226415 145.053734 202.226415 108.483998 237.396226 101.098057"/>
                <polygon id="Fill-6-Copy-2" fill="#FFF" points="237.396226 175.368827 202.226415 186.811627 202.226415 149.345613 237.396226 138.460383"/>
                <polygon id="Fill-6-Copy-3" fill="#FFF" points="237.396226 217.126721 202.226415 228.56952 202.226415 191.103506 237.396226 180.218276"/>
                <polygon id="Fill-6-Copy-4" fill="#FFF" points="237.396226 258.884614 202.226415 270.327414 202.226415 232.861399 237.396226 221.976169"/>
                <path d="M193.700402,101.447329 C193.700402,101.447329 191.313949,89.4049824 197.295416,87.878398 L372.772853,50.2313389 C375.299584,49.6884863 379.503239,48.5415922 378.317594,60.5690039 C378.856132,63.0920598 193.700402,101.447329 193.700402,101.447329 Z" id="Fill-7" fill="#3973B0"/>
            </g>
            <path d="M206.622642,93.4062365 C206.622642,95.2268708 205.146145,96.7024894 203.325472,96.7024894 C201.503952,96.7024894 200.028302,95.2268708 200.028302,93.4062365 C200.028302,91.5856021 201.503952,90.1091379 203.325472,90.1091379 C205.146145,90.1091379 206.622642,91.5856021 206.622642,93.4062365" id="Fill-24" fill="#F4F0F0"/>
            <path d="M216.514151,91.2084526 C216.514151,93.0290869 215.038311,94.5047056 213.217404,94.5047056 C211.395651,94.5047056 209.919811,93.0290869 209.919811,91.2084526 C209.919811,89.3878183 211.395651,87.911354 213.217404,87.911354 C215.038311,87.911354 216.514151,89.3878183 216.514151,91.2084526" id="Fill-26" fill="#F4F0F0"/>
            <path d="M225.306604,89.0106688 C225.306604,90.8313031 223.830953,92.3069217 222.01028,92.3069217 C220.18876,92.3069217 218.712264,90.8313031 218.712264,89.0106688 C218.712264,87.1900344 220.18876,85.7135702 222.01028,85.7135702 C223.830953,85.7135702 225.306604,87.1900344 225.306604,89.0106688" id="Fill-28" fill="#F4F0F0"/>
            <mask id="masterscenestudy-mask-2" fill="#fff">
                <use xlink:href="#masterscenestudy-path-1"/>
            </mask>
            <use id="Fill-6-Copy-5" fill="#FFF" xlink:href="#masterscenestudy-path-1"/>
            <g mask="url(#masterscenestudy-mask-2)">
                <g transform="translate(222.009434, 40.659001) scale(1.0990571428571427 1.0988899082568806)" id="Patterns">
                    <g id="Patterns/Pattern 1" stroke="none" stroke-width="1" fill="none" fill-rule="evenodd">
                        <path d="M176.183223,210.972596 C177.478972,210.499975 179.042462,211.526153 179.514007,212.823113 C179.986551,214.118075 179.640885,216.442213 178.345136,216.913835 C177.049387,217.385457 175.292083,215.826706 174.820538,214.531744 C174.348994,213.234783 174.886475,211.444218 176.183223,210.972596 Z M148.992273,213.026151 C149.530753,211.756168 151.071266,211.259566 152.34104,211.799134 C153.610814,212.337702 154.129314,213.707604 153.589835,214.978586 C153.051354,216.247569 151.123216,217.265753 149.853442,216.727184 C148.583667,216.188616 148.452794,214.296133 148.992273,213.026151 Z M258.630828,212.026552 C259.169308,210.75657 260.70982,210.259968 261.979595,210.799535 C263.249369,211.338104 263.767868,212.709005 263.228389,213.978987 C262.689909,215.248969 260.76177,216.266154 259.491996,215.727585 C258.222222,215.189017 258.091348,213.296534 258.630828,212.026552 Z M72.0281744,207.974599 C73.3239235,207.502977 74.8874141,208.528156 75.3589589,209.825116 C75.8305036,211.121077 75.4868354,213.444216 74.1900873,213.916837 C72.8943382,214.38746 71.1370347,212.829708 70.66549,211.533747 C70.1939452,210.236786 70.7314263,208.446221 72.0281744,207.974599 Z M3.07427736,208.284459 C4.25613639,207.573029 5.98646592,208.281461 6.69777922,209.464513 C7.40809348,210.646566 7.51299221,212.993685 6.33013414,213.704115 C5.14827511,214.414546 3.12522817,213.220503 2.41591294,212.037451 C1.70559868,210.854399 1.89241833,208.99489 3.07427736,208.284459 Z M44.8372247,210.028153 C45.3757048,208.758171 46.9162176,208.261569 48.1859917,208.801137 C49.4557659,209.339705 49.9742653,210.710606 49.4347862,211.980589 C48.896306,213.250571 46.9681674,214.267755 45.6983933,213.729187 C44.4286191,213.190619 44.2977455,211.298136 44.8372247,210.028153 Z M200.381961,204.673345 C201.287087,203.63218 203.151288,203.771068 204.192283,204.676343 C205.233278,205.581617 206.058481,207.779855 205.153355,208.821021 C204.248229,209.862186 201.956441,209.351596 200.915446,208.446321 C199.874451,207.542046 199.476835,205.714511 200.381961,204.673345 Z M96.2272126,201.675348 C97.1323388,200.634183 98.9965391,200.77407 100.037534,201.678346 C101.078529,202.58362 101.903732,204.781858 100.997607,205.823024 C100.09348,206.864189 97.8016926,206.354598 96.7606976,205.448324 C95.7197025,204.544049 95.3220864,202.716514 96.2272126,201.675348 Z M128.292956,199.095716 C129.661635,198.92785 130.954387,200.277768 131.123224,201.64767 C131.290063,203.017572 130.43289,205.202821 129.063213,205.371686 C127.693535,205.539551 126.332848,203.626085 126.165011,202.257182 C125.996174,200.88728 126.923278,199.263581 128.292956,199.095716 Z M237.931711,198.096516 C239.300389,197.928651 240.593141,199.278569 240.760979,200.648471 C240.928817,202.018373 240.070646,204.203622 238.701967,204.372486 C237.332289,204.540352 235.971603,202.626885 235.803765,201.257983 C235.634928,199.888081 236.562033,198.264382 237.931711,198.096516 Z M165.085537,199.716018 C165.625016,198.446036 167.164529,197.949434 168.434304,198.489002 C169.704078,199.028569 170.222577,200.399471 169.684097,201.668454 C169.144618,202.938436 167.216479,203.95662 165.946705,203.417052 C164.676931,202.878484 164.546057,200.986001 165.085537,199.716018 Z M274.723891,198.716819 C275.26337,197.446837 276.802884,196.950235 278.072658,197.489803 C279.342432,198.02937 279.860932,199.400272 279.322452,200.669254 C278.782973,201.939237 276.854834,202.957421 275.58506,202.417853 C274.315286,201.879285 274.185411,199.986801 274.723891,198.716819 Z M24.1372085,196.097519 C25.5068862,195.929653 26.7996382,197.28057 26.9674762,198.650472 C27.1353141,200.019375 26.2771426,202.205623 24.908464,202.374488 C23.5387863,202.542353 22.1780999,200.627888 22.0102619,199.258985 C21.8414249,197.889083 22.7685299,196.265384 24.1372085,196.097519 Z M60.9302884,196.718421 C61.4697675,195.448439 63.0092813,194.951837 64.2790554,195.491404 C65.5488296,196.030972 66.067329,197.401873 65.5288489,198.670856 C64.9893697,199.940838 63.0612311,200.959022 61.791457,200.419455 C60.5216828,199.880886 60.3918082,197.988403 60.9302884,196.718421 Z M143.297071,190.417971 C144.676739,190.417971 145.79466,191.91577 145.79466,193.295664 C145.79466,194.675558 144.676739,196.739904 143.297071,196.739904 C141.917403,196.739904 140.799482,194.675558 140.799482,193.295664 C140.799482,191.91577 141.917403,190.417971 143.297071,190.417971 Z M192.099058,190.652982 C193.394807,190.180361 194.958297,191.206539 195.429842,192.503499 C195.902386,193.798461 195.557719,196.122599 194.261969,196.594221 C192.965221,197.065843 191.207918,195.508091 190.736373,194.21213 C190.264828,192.915169 190.803308,191.124604 192.099058,190.652982 Z M252.935326,189.418472 C254.314994,189.418472 255.432915,190.916271 255.432915,192.296165 C255.432915,193.676059 254.314994,195.740405 252.935326,195.740405 C251.556657,195.740405 250.437737,193.676059 250.437737,192.296165 C250.437737,190.916271 251.556657,189.418472 252.935326,189.418472 Z M108.229625,189.049567 C109.411484,188.338138 111.141814,189.04657 111.852128,190.229622 C112.562442,191.411674 112.66834,193.758793 111.485482,194.469224 C110.302624,195.179654 108.280576,193.985611 107.571261,192.80256 C106.859948,191.619508 107.046767,189.759998 108.229625,189.049567 Z M39.1417231,187.420373 C40.5213912,187.420373 41.6393119,188.918173 41.6393119,190.298067 C41.6393119,191.677961 40.5213912,193.742306 39.1417231,193.742306 C37.7630541,193.742306 36.6441343,191.677961 36.6441343,190.298067 C36.6441343,188.918173 37.7630541,187.420373 39.1417231,187.420373 Z M217.86808,188.050568 C219.049939,187.339138 220.780269,188.047571 221.490583,189.230622 C222.200897,190.412675 222.305796,192.759794 221.123937,193.470224 C219.942078,194.180655 217.919031,192.985613 217.208717,191.80356 C216.498402,190.620508 216.685222,188.760999 217.86808,188.050568 Z M87.944209,187.655385 C89.2399581,187.182764 90.8034487,188.208941 91.2749935,189.505902 C91.7475373,190.800864 91.40287,193.125001 90.1061219,193.596623 C88.8103728,194.068245 87.0530693,192.510494 86.5815246,191.214532 C86.1099798,189.917572 86.6484599,188.127007 87.944209,187.655385 Z M8.03337593,186.025782 C8.26415314,184.386096 9.84262927,182.792373 11.4820466,183.022189 C13.1214639,183.252005 14.1994232,185.220427 13.969645,186.860113 C13.7388678,188.4988 12.0654833,190.766982 10.426066,190.537166 C8.78664872,190.305352 7.80259872,187.664468 8.03337593,186.025782 Z M166.274888,183.966941 C167.377824,183.966941 168.272959,185.387802 168.272959,186.695754 C168.272959,188.003706 167.377824,189.962136 166.274888,189.962136 C165.171953,189.962136 164.276817,188.003706 164.276817,186.695754 C164.276817,185.387802 165.171953,183.966941 166.274888,183.966941 Z M275.913143,182.967742 C277.017077,182.967742 277.911214,184.388603 277.911214,185.696555 C277.911214,187.004507 277.017077,188.962937 275.913143,188.962937 C274.810208,188.962937 273.915072,187.004507 273.915072,185.696555 C273.915072,184.388603 274.810208,182.967742 275.913143,182.967742 Z M119.252884,182.635009 C119.482662,180.995323 121.062137,179.4016 122.701554,179.631416 C124.340971,179.862231 125.418931,181.829654 125.188154,183.46934 C124.958375,185.109026 123.284991,187.376209 121.645574,187.146393 C120.006156,186.914579 119.023105,184.274694 119.252884,182.635009 Z M62.1195403,180.969344 C63.2234745,180.969344 64.1176113,182.390205 64.1176113,183.698157 C64.1176113,185.006108 63.2234745,186.964539 62.1195403,186.964539 C61.016605,186.964539 60.1214692,185.006108 60.1214692,183.698157 C60.1214692,182.390205 61.016605,180.969344 62.1195403,180.969344 Z M228.891638,181.635809 C229.121416,179.996124 230.700891,178.402401 232.340309,178.632217 C233.978727,178.863032 235.057685,180.830455 234.826908,182.470141 C234.59713,184.109827 232.923745,186.377009 231.284328,186.147194 C229.644911,185.915379 228.660861,183.275495 228.891638,181.635809 Z M26.9980711,176 C28.1020053,176 28.9961421,177.420861 28.9961421,178.728813 C28.9961421,180.036765 28.1020053,181.995195 26.9980711,181.995195 C25.8951358,181.995195 25,180.036765 25,178.728813 C25,177.420861 25.8951358,176 26.9980711,176 Z M143.275892,172.181787 C144.181018,171.140621 146.045218,171.27951 147.086213,172.184784 C148.127208,173.090059 148.952411,175.288297 148.047285,176.330462 C147.142159,177.370628 144.850372,176.860037 143.809377,175.954763 C142.768382,175.050488 142.370765,173.222952 143.275892,172.181787 Z M201.090577,170.6685 C202.386326,170.196878 203.949817,171.222056 204.421362,172.519016 C204.892906,173.814978 204.549238,176.138116 203.25249,176.610737 C201.955742,177.08136 200.199437,175.524608 199.727893,174.227647 C199.255349,172.930687 199.793829,171.140122 201.090577,170.6685 Z M252.914846,171.182288 C253.819972,170.141122 255.684172,170.28101 256.725167,171.185285 C257.766162,172.09056 258.591366,174.288798 257.68524,175.330963 C256.781113,176.371129 254.489326,175.861537 253.448331,174.955264 C252.407336,174.050989 252.00972,172.223453 252.914846,171.182288 Z M39.1212429,169.18389 C40.0263691,168.142724 41.8905694,168.282612 42.9315644,169.186887 C43.9725594,170.092162 44.7977628,172.2904 43.8916375,173.332564 C42.9875104,174.372731 40.6957229,173.863139 39.6547279,172.956866 C38.6137328,172.05259 38.2161167,170.225055 39.1212429,169.18389 Z M96.9355288,167.671402 C98.2312779,167.198781 99.7947685,168.224958 100.266313,169.521919 C100.738857,170.816881 100.393191,173.141018 99.0974417,173.61264 C97.8016926,174.084262 96.0443891,172.52651 95.5728443,171.230549 C95.1012995,169.933589 95.6387807,168.143024 96.9355288,167.671402 Z M176.764761,162.82029 C177.867697,162.82029 178.762832,164.240152 178.762832,165.549103 C178.762832,166.857054 177.867697,168.815485 176.764761,168.815485 C175.661826,168.815485 174.76669,166.857054 174.76669,165.549103 C174.76669,164.240152 175.661826,162.82029 176.764761,162.82029 Z M8.50375149,163.729023 C9.40887768,162.687857 11.273078,162.827745 12.314073,163.73202 C13.355068,164.637295 14.1802714,166.835533 13.2741461,167.876698 C12.370019,168.917864 10.0782315,168.408272 9.03723647,167.501999 C7.99624145,166.597724 7.59862531,164.770188 8.50375149,163.729023 Z M122.45719,162.706981 C123.362316,161.665815 125.226517,161.804704 126.267512,162.709978 C127.308507,163.615253 128.13371,165.813491 127.228584,166.854656 C126.323458,167.895822 124.03167,167.385231 122.990675,166.479957 C121.94968,165.575681 121.552064,163.748146 122.45719,162.706981 Z M232.096444,161.707781 C233.000571,160.666616 234.86577,160.805505 235.906765,161.710779 C236.94776,162.616054 237.771965,164.814292 236.866839,165.855457 C235.961712,166.896623 233.669925,166.386032 232.62893,165.480758 C231.587935,164.576482 231.190319,162.748947 232.096444,161.707781 Z M72.6094133,159.822193 C73.7133475,159.822193 74.6074843,161.243054 74.6074843,162.551006 C74.6074843,163.858957 73.7133475,165.817388 72.6094133,165.817388 C71.5064781,165.817388 70.6113422,163.858957 70.6113422,162.551006 C70.6113422,161.243054 71.5064781,159.822193 72.6094133,159.822193 Z M150.990344,158.069697 C151.528824,156.800714 153.069337,156.303113 154.339111,156.842681 C155.608885,157.382248 156.127385,158.75215 155.587906,160.022133 C155.049425,161.292115 153.121287,162.309299 151.851513,161.770731 C150.581739,161.232163 150.450865,159.340679 150.990344,158.069697 Z M260.628899,157.070598 C261.167379,155.800616 262.707892,155.304014 263.977666,155.843582 C265.24744,156.38215 265.765939,157.753051 265.22646,159.023033 C264.68798,160.293015 262.759841,161.3102 261.490067,160.771632 C260.220293,160.233063 260.089419,158.34058 260.628899,157.070598 Z M46.8344965,155.0722 C47.3739757,153.802218 48.9144885,153.305616 50.1842626,153.845183 C51.4540368,154.383752 51.9725362,155.754653 51.433057,157.024635 C50.8935778,158.294617 48.9664383,159.311802 47.6966641,158.773233 C46.42689,158.234665 46.2960163,156.342182 46.8344965,155.0722 Z M94.3252487,150.134857 C95.6949265,149.966992 96.9876784,151.317909 97.1555164,152.686812 C97.3233544,154.056714 96.4651828,156.242961 95.0955051,156.410827 C93.7268265,156.578692 92.365141,154.665226 92.1973031,153.295324 C92.0294651,151.926421 92.9565701,150.302722 94.3252487,150.134857 Z M277.14885,149.135058 C278.517529,148.967193 279.810281,150.319109 279.979118,151.688012 C280.146956,153.056915 279.288784,155.243163 277.919107,155.412027 C276.550428,155.579893 275.188742,153.666427 275.020905,152.296524 C274.853067,150.927622 275.780172,149.303923 277.14885,149.135058 Z M203.964503,149.135758 C205.333181,148.967892 206.625933,150.31881 206.793771,151.687712 C206.961609,153.057614 206.103438,155.243862 204.734759,155.411728 C203.365081,155.579593 202.004395,153.666127 201.836557,152.296225 C201.66772,150.927322 202.594825,149.303623 203.964503,149.135758 Z M27.5037515,149.729383 C28.4088777,148.688218 30.273078,148.827106 31.314073,149.732381 C32.355068,150.637655 33.1802714,152.835894 32.2751452,153.877059 C31.370019,154.918225 29.0782315,154.408633 28.0372365,153.502359 C26.9962414,152.598084 26.5986253,150.770549 27.5037515,149.729383 Z M63.3556469,147.137359 C64.7243256,146.969494 66.0170776,148.320411 66.1849155,149.689314 C66.3527535,151.059216 65.495581,153.245464 64.1259033,153.413329 C62.7562256,153.581195 61.3955392,151.667728 61.2277012,150.297826 C61.0588642,148.928924 61.9859692,147.305225 63.3556469,147.137359 Z M172.994401,146.13816 C174.36308,145.970295 175.655832,147.321212 175.82367,148.690115 C175.991508,150.060017 175.133336,152.246265 173.764658,152.41413 C172.39498,152.581996 171.034294,150.668529 170.866456,149.298627 C170.697619,147.929724 171.624724,146.306026 172.994401,146.13816 Z M123.861335,144.522056 C125.230013,144.35419 126.522765,145.706107 126.690603,147.075009 C126.85944,148.443912 126.001269,150.63016 124.631591,150.798025 C123.262912,150.96689 121.901227,149.053424 121.733389,147.683522 C121.565551,146.31362 122.492656,144.69092 123.861335,144.522056 Z M233.499589,143.522856 C234.869267,143.354991 236.16102,144.706907 236.329857,146.07581 C236.497695,147.444713 235.639523,149.630961 234.270845,149.798826 C232.901167,149.967691 231.539482,148.054225 231.371644,146.684323 C231.203806,145.314421 232.130911,143.691721 233.499589,143.522856 Z M251.892832,142.082511 C252.432312,140.812529 253.971825,140.315927 255.2416,140.855494 C256.511374,141.395062 257.029873,142.764964 256.491393,144.034946 C255.951914,145.304928 254.023775,146.323112 252.754001,145.783545 C251.484227,145.244976 251.353353,143.352493 251.892832,142.082511 Z M15.138396,140.841406 C15.6768762,139.571423 17.217389,139.074821 18.4871631,139.614389 C19.7569373,140.152957 20.2754367,141.523859 19.7359575,142.793841 C19.1974774,144.063823 17.2693388,145.082007 15.9995646,144.542439 C14.7297905,144.002872 14.5989168,142.111388 15.138396,140.841406 Z M38.0992295,140.084113 C38.6387087,138.81413 40.1782225,138.317528 41.4479966,138.857096 C42.7177708,139.396664 43.2362702,140.766566 42.6977901,142.036548 C42.1583109,143.30653 40.2301723,144.324714 38.9603982,143.785146 C37.690624,143.246578 37.5597504,141.354095 38.0992295,140.084113 Z M147.737584,139.084913 C148.277063,137.814931 149.816577,137.318329 151.086351,137.857897 C152.356126,138.397464 152.874625,139.767366 152.336145,141.037349 C151.796666,142.307331 149.868527,143.325515 148.598753,142.785947 C147.328979,142.247379 147.198105,140.354896 147.737584,139.084913 Z M104.252465,133.034663 C105.549213,132.563041 107.111705,133.588219 107.583249,134.885179 C108.055793,136.181141 107.711126,138.504279 106.414378,138.975901 C105.118629,139.447523 103.361325,137.889771 102.889781,136.59381 C102.418236,135.296849 102.955717,133.506285 104.252465,133.034663 Z M77.0615152,135.088217 C77.6009944,133.818235 79.1405081,133.321633 80.4102823,133.8612 C81.6800565,134.399768 82.1985559,135.77067 81.6600757,137.040652 C81.1205966,138.310634 79.192458,139.328818 77.9226838,138.78925 C76.6529097,138.249683 76.5230351,136.358199 77.0615152,135.088217 Z M213.89052,132.035663 C215.187268,131.564041 216.750759,132.58922 217.222303,133.885181 C217.693848,135.182141 217.349181,137.505279 216.053432,137.976901 C214.757683,138.448523 213.000379,136.890772 212.528835,135.594811 C212.05729,134.29785 212.594771,132.507285 213.89052,132.035663 Z M186.70027,134.089018 C187.23875,132.819035 188.779263,132.322433 190.049037,132.862001 C191.318811,133.400569 191.83731,134.771471 191.297831,136.041453 C190.759351,137.311435 188.831212,138.329619 187.561438,137.790051 C186.291664,137.250484 186.16079,135.359 186.70027,134.089018 Z M128.451503,126.735411 C129.356629,125.694246 131.22083,125.833134 132.261825,126.738409 C133.30282,127.643683 134.128023,129.842921 133.222897,130.884086 C132.317771,131.925252 130.025983,131.414661 128.984988,130.509387 C127.943993,129.604112 127.546377,127.776577 128.451503,126.735411 Z M238.090257,125.736212 C238.995384,124.695047 240.859584,124.833935 241.900579,125.73921 C242.941574,126.644484 243.766777,128.843722 242.860652,129.884887 C241.956525,130.926053 239.664737,130.415462 238.623742,129.510187 C237.582747,128.604913 237.185131,126.777378 238.090257,125.736212 Z M6.40213004,125.853418 C6.94160922,124.583436 8.48112297,124.086834 9.75089713,124.626402 C11.0206713,125.16497 11.5391707,126.535871 11.0006906,127.805853 C10.4612114,129.075836 8.53307282,130.094019 7.26329866,129.554452 C5.99352451,129.014884 5.86364989,127.1234 6.40213004,125.853418 Z M270.155502,123.15648 C271.525179,122.988614 272.817931,124.339532 272.985769,125.708434 C273.153607,127.078336 272.295436,129.264584 270.925758,129.43245 C269.557079,129.600315 268.196393,127.686849 268.027556,126.316947 C267.859718,124.948044 268.786823,123.324345 270.155502,123.15648 Z M56.3623982,121.158181 C57.7310769,120.990316 59.0238289,122.341233 59.1916668,123.710136 C59.3595048,125.080038 58.5023323,127.266286 57.1326546,127.434151 C55.7629769,127.602017 54.4022905,125.68855 54.2344525,124.318648 C54.0656155,122.949745 54.9927205,121.326047 56.3623982,121.158181 Z M166.000853,120.158283 C167.369532,119.990417 168.662284,121.342334 168.830121,122.711237 C168.998958,124.080139 168.139788,126.266387 166.771109,126.435252 C165.402431,126.603117 164.040745,124.689651 163.872907,123.319749 C163.705069,121.950846 164.632174,120.327147 166.000853,120.158283 Z M93.1548786,121.779084 C93.6943578,120.509102 95.2338716,120.0125 96.5036457,120.552067 C97.7734199,121.090636 98.2919193,122.461537 97.7534392,123.731519 C97.21396,125.001501 95.2858214,126.019685 94.0160472,125.480117 C92.7462731,124.94055 92.6163985,123.049066 93.1548786,121.779084 Z M202.793333,120.779785 C203.332812,119.509803 204.872326,119.013201 206.1421,119.552768 C207.411875,120.092336 207.930374,121.462238 207.391894,122.73222 C206.852415,124.002202 204.924276,125.020386 203.654502,124.480818 C202.384728,123.94225 202.254853,122.049767 202.793333,120.779785 Z M18.9342315,115.615424 C20.0371667,115.615424 20.9323026,117.036285 20.9323026,118.344237 C20.9323026,119.652188 20.0371667,121.610619 18.9342315,121.610619 C17.8302972,121.610619 16.9361604,119.652188 16.9361604,118.344237 C16.9361604,117.036285 17.8302972,115.615424 18.9342315,115.615424 Z M71.3665132,112.479937 C72.7461813,112.479937 73.864102,113.977736 73.864102,115.35763 C73.864102,116.737524 72.7461813,118.802869 71.3665132,118.802869 C69.9868451,118.802869 68.8689244,116.737524 68.8689244,115.35763 C68.8689244,113.977736 69.9868451,112.479937 71.3665132,112.479937 Z M250.092171,113.109932 C251.275029,112.399501 253.005358,113.107934 253.715673,114.290985 C254.425987,115.473038 254.530886,117.820157 253.348028,118.529588 C252.166169,119.240019 250.144121,118.045976 249.433806,116.863923 C248.723492,115.680871 248.910312,113.821362 250.092171,113.109932 Z M120.168,112.714749 C121.464748,112.243127 123.028239,113.268305 123.499784,114.565266 C123.971328,115.862226 123.626661,118.184365 122.330912,118.656986 C121.034164,119.128608 119.277859,117.570857 118.806315,116.273896 C118.333771,114.977935 118.872251,113.186371 120.168,112.714749 Z M181.004768,111.480938 C182.384436,111.480938 183.502357,112.978737 183.502357,114.358631 C183.502357,115.738525 182.384436,117.80387 181.004768,117.80387 C179.626099,117.80387 178.507179,115.738525 178.507179,114.358631 C178.507179,112.978737 179.626099,111.480938 181.004768,111.480938 Z M229.807354,111.71555 C231.103103,111.243928 232.666594,112.269106 233.138138,113.566066 C233.610682,114.863027 233.265016,117.185166 231.969267,117.657787 C230.673518,118.129409 228.916214,116.571657 228.444669,115.274697 C227.973125,113.978736 228.510606,112.187172 229.807354,111.71555 Z M36.2985679,111.111534 C37.481426,110.401103 39.2117555,111.109535 39.9220698,112.292587 C40.632384,113.47464 40.7372828,115.821758 39.5544247,116.53119 C38.3725657,117.24162 36.3505178,116.047577 35.6402035,114.865525 C34.9298892,113.682473 35.1167089,111.822963 36.2985679,111.111534 Z M145.937322,110.112834 C147.119181,109.402403 148.849511,110.110836 149.560824,111.292888 C150.271138,112.474941 150.376037,114.82206 149.193179,115.53249 C148.01132,116.242921 145.988273,115.048878 145.278958,113.866825 C144.568644,112.683773 144.755463,110.823265 145.937322,110.112834 Z M94.3443303,106.029407 C95.4472655,106.029407 96.3424014,107.450268 96.3424014,108.75822 C96.3424014,110.067171 95.4472655,112.024602 94.3443303,112.024602 C93.2413951,112.024602 92.3462593,110.067171 92.3462593,108.75822 C92.3462593,107.450268 93.2413951,106.029407 94.3443303,106.029407 Z M261.115529,106.695973 C261.346306,105.056287 262.924782,103.462564 264.564199,103.69238 C266.203617,103.923195 267.282575,105.890618 267.051798,107.530304 C266.821021,109.168991 265.147636,111.436173 263.508219,111.206358 C261.869801,110.976542 260.885751,108.334659 261.115529,106.695973 Z M203.982585,105.030208 C205.086519,105.030208 205.980656,106.451069 205.980656,107.759021 C205.980656,109.067972 205.086519,111.025403 203.982585,111.025403 C202.87965,111.025403 201.984514,109.067972 201.984514,107.759021 C201.984514,106.451069 202.87965,105.030208 203.982585,105.030208 Z M47.3219259,104.697574 C47.5527031,103.057888 49.1311793,101.464166 50.7705966,101.693982 C52.4100139,101.924797 53.4889722,103.89222 53.258195,105.531906 C53.0274178,107.170592 51.3540333,109.437775 49.714616,109.207959 C48.0761977,108.978144 47.0921478,106.336261 47.3219259,104.697574 Z M9.67996561,102.930091 C11.0486443,102.762225 12.3413963,104.113143 12.5102333,105.482046 C12.6770722,106.851948 11.8198997,109.038195 10.450222,109.206061 C9.08154332,109.373926 7.7198579,107.46046 7.55201993,106.091557 C7.38318293,104.721655 8.3102879,103.097956 9.67996561,102.930091 Z M156.96148,103.698175 C157.191258,102.058489 158.770733,100.464767 160.409151,100.694583 C162.048568,100.925398 163.126528,102.892821 162.89675,104.532507 C162.666971,106.172192 160.992588,108.439375 159.35417,108.20856 C157.714752,107.978745 156.730702,105.337861 156.96148,103.698175 Z M274.300157,99.442629 C274.838638,98.1726469 276.37915,97.6760449 277.648924,98.2156124 C278.918699,98.7541808 279.437198,100.125082 278.897719,101.395064 C278.359239,102.665046 276.4311,103.68323 275.161326,103.143663 C273.891552,102.604095 273.760678,100.712611 274.300157,99.442629 Z M71.3453336,94.2437529 C72.2504598,93.2025874 74.1146601,93.3424753 75.1556551,94.2477497 C76.1966502,95.1520249 77.0218535,97.3512623 76.1167273,98.3924278 C75.2116011,99.4335933 72.9198136,98.9230025 71.8788186,98.0177281 C70.8378236,97.1124537 70.4402074,95.2859176 71.3453336,94.2437529 Z M129.159819,92.7309654 C130.455568,92.2593434 132.019059,93.2845217 132.490604,94.5814822 C132.963148,95.8774435 132.61848,98.2005816 131.322731,98.6732028 C130.025983,99.1448248 128.26868,97.5860741 127.797135,96.2901128 C127.32559,94.9941515 127.86407,93.2025874 129.159819,92.7309654 Z M180.984288,93.2447536 C181.889414,92.2035881 183.753614,92.3434759 184.794609,93.2477512 C185.835604,94.1530256 186.660808,96.352263 185.754682,97.3934285 C184.850555,98.434594 182.558768,97.9240032 181.517773,97.0187288 C180.476778,96.1134544 180.079162,94.2859191 180.984288,93.2447536 Z M238.798574,91.7317662 C240.094323,91.2601442 241.657813,92.2853225 242.129358,93.5822831 C242.601902,94.8782444 242.256236,97.2013824 240.960487,97.6740036 C239.664737,98.1456256 237.907434,96.5868749 237.435889,95.2909136 C236.964344,93.9949523 237.501826,92.2033882 238.798574,91.7317662 Z M23.385734,90.8814477 C23.9252132,89.6114656 25.4647269,89.1148636 26.7345011,89.6544312 C28.0042753,90.1929995 28.5227747,91.5639008 27.9842945,92.8338829 C27.4448154,94.103865 25.5166768,95.122049 24.2469026,94.5824814 C22.9771285,94.0429139 22.8472539,92.1514299 23.385734,90.8814477 Z M264.320335,86.767445 C265.225461,85.7262795 267.089661,85.8651682 268.130656,86.7704426 C269.171651,87.6757171 269.996855,89.8749544 269.091729,90.9161199 C268.186602,91.9572855 265.894815,91.4466947 264.85382,90.5414203 C263.812825,89.6361458 263.415209,87.8086106 264.320335,86.767445 Z M104.834203,84.882256 C105.937139,84.882256 106.832274,86.3031172 106.832274,87.6110689 C106.832274,88.9190206 105.937139,90.8774509 104.834203,90.8774509 C103.731268,90.8774509 102.836132,88.9190206 102.836132,87.6110689 C102.836132,86.3031172 103.731268,84.882256 104.834203,84.882256 Z M214.472458,83.8830568 C215.576392,83.8830568 216.470529,85.303918 216.470529,86.6118697 C216.470529,87.9198214 215.576392,89.8782518 214.472458,89.8782518 C213.369523,89.8782518 212.474387,87.9198214 212.474387,86.6118697 C212.474387,85.303918 213.369523,83.8830568 214.472458,83.8830568 Z M50.5266321,84.7689468 C51.4317583,83.7277813 53.2959586,83.86667 54.3369536,84.7719444 C55.3779486,85.6772188 56.203152,87.8764562 55.2980258,88.9176217 C54.3928996,89.9587872 52.1011121,89.4481965 51.0601171,88.542922 C50.019122,87.6376476 49.6215059,85.8101123 50.5266321,84.7689468 Z M160.165486,83.7698476 C161.070613,82.728682 162.934813,82.8675707 163.975808,83.7728452 C165.016803,84.6781196 165.842006,86.8773569 164.935881,87.9185225 C164.031754,88.959688 161.739966,88.4490972 160.698971,87.5438228 C159.657976,86.6385483 159.26036,84.8110131 160.165486,83.7698476 Z M39.3958778,78.9493112 C40.7645564,78.7814457 42.0573084,80.132363 42.2251464,81.5012658 C42.3929843,82.8711678 41.5348128,85.0574156 40.1661341,85.2252811 C38.7964564,85.3931465 37.4357701,83.4796801 37.2679321,82.1107773 C37.0990951,80.7408752 38.0262,79.1171766 39.3958778,78.9493112 Z M79.0595863,80.132263 C79.5990655,78.8622809 81.1385792,78.3656789 82.4083534,78.9052465 C83.6781275,79.4438148 84.196627,80.8147161 83.6581468,82.0846982 C83.1186676,83.3546803 81.1905291,84.3728643 79.9207549,83.8332967 C78.6509807,83.2937292 78.5211061,81.4022452 79.0595863,80.132263 Z M188.698341,79.1330639 C189.236821,77.8630818 190.777334,77.3664798 192.047108,77.9060473 C193.316882,78.4446157 193.835381,79.8155169 193.295902,81.085499 C192.757422,82.3554812 190.829283,83.3736651 189.559509,82.8340976 C188.289735,82.29453 188.158861,80.403046 188.698341,79.1330639 Z M127.566158,75.9517137 C128.934837,75.7838482 130.227588,77.1347655 130.396426,78.5036683 C130.563264,79.8735704 129.706092,82.0598181 128.336414,82.2276836 C126.966737,82.395549 125.60605,80.4820827 125.438212,79.1131798 C125.269375,77.7432778 126.19648,76.1195791 127.566158,75.9517137 Z M236.188793,74.195821 C237.557472,74.0279555 238.850224,75.3788728 239.019061,76.7477757 C239.1859,78.1176777 238.328727,80.3039255 236.95905,80.4717909 C235.589372,80.6396564 234.228685,78.72619 234.060847,77.3562879 C233.89201,75.9873851 234.819115,74.3636865 236.188793,74.195821 Z M23.5037515,74.7293833 C24.4088777,73.6882178 26.273078,73.8271065 27.314073,74.7323809 C28.355068,75.6376554 29.1802714,77.8368927 28.2751452,78.8780582 C27.370019,79.9192238 25.0782315,79.408633 24.0372365,78.5033586 C22.9962414,77.5980841 22.5986253,75.7705489 23.5037515,74.7293833 Z M4.29971509,75.442629 C4.83919427,74.1726469 6.37870802,73.6760449 7.64848218,74.2156124 C8.91825633,74.7541808 9.43675577,76.125082 8.89827562,77.3950641 C8.35879644,78.6650463 6.43065787,79.6832302 5.16088371,79.1436627 C3.89110956,78.6040951 3.76123494,76.7126111 4.29971509,75.442629 Z M96.5960565,72.9541162 C97.9647352,72.7862508 99.2574871,74.137168 99.4263241,75.5060709 C99.5931631,76.8759729 98.7359906,79.0622207 97.3663129,79.2300861 C95.9966352,79.3979516 94.6359488,77.4844852 94.4681108,76.1155823 C94.2992738,74.7456803 95.2263788,73.1219817 96.5960565,72.9541162 Z M205.218692,71.1982235 C206.58737,71.0303581 207.880122,72.3812753 208.048959,73.7501782 C208.215798,75.1200802 207.358626,77.306328 205.988948,77.4741934 C204.619271,77.6420589 203.258584,75.7285925 203.090746,74.3586905 C202.921909,72.9897876 203.849014,71.366089 205.218692,71.1982235 Z M157.101544,70.3399115 C158.471222,70.1710468 159.763974,71.5219641 159.931812,72.8918661 C160.09965,74.260769 159.241478,76.4470167 157.871801,76.6158814 C156.503122,76.7837468 155.141437,74.8692812 154.973599,73.5003784 C154.805761,72.1314755 155.732866,70.5077769 157.101544,70.3399115 Z M265.724379,68.5829197 C267.093058,68.4150542 268.38581,69.7669707 268.553648,71.1358735 C268.722485,72.5047764 267.864314,74.6910241 266.494636,74.8588896 C265.125957,75.0277542 263.764272,73.1142878 263.596434,71.7443858 C263.428596,70.3744838 264.355701,68.7517843 265.724379,68.5829197 Z M53.1017461,66.900668 C53.6402262,65.6306858 55.180739,65.1340839 56.4505132,65.6736514 C57.7202873,66.2122197 58.2387867,67.583121 57.6993076,68.8531031 C57.1608274,70.1230852 55.2326888,71.1412692 53.9629147,70.6017016 C52.6931405,70.0621341 52.5622669,68.1706501 53.1017461,66.900668 Z M71.3394393,65.9014688 C71.8789185,64.6314867 73.4184323,64.1348847 74.6882064,64.6744522 C75.9579806,65.2130206 76.47648,66.5839218 75.9379999,67.853904 C75.3985207,69.1238861 73.4703821,70.14207 72.200608,69.6025025 C70.9308338,69.0629349 70.8009592,67.1714509 71.3394393,65.9014688 Z M179.962274,64.1449766 C180.501754,62.8749945 182.041267,62.3783925 183.311042,62.91796 C184.580816,63.4575276 185.099315,64.8274296 184.560835,66.0974118 C184.021356,67.3673939 182.093217,68.3855778 180.823443,67.8460103 C179.553669,67.3074419 179.422795,65.4149587 179.962274,64.1449766 Z M137.493174,58.8521188 C138.788923,58.3804967 140.352414,59.4056751 140.823959,60.7016364 C141.296503,61.9985969 140.950836,64.3217349 139.655087,64.7933569 C138.359338,65.2649789 136.602035,63.7072275 136.13049,62.4102669 C135.658945,61.1143056 136.197425,59.3237408 137.493174,58.8521188 Z M110.301825,60.905473 C110.841304,59.6354909 112.380818,59.1388889 113.650592,59.6784565 C114.920366,60.2170248 115.438866,61.587926 114.900385,62.8579082 C114.360906,64.1278903 112.432768,65.1460742 111.162994,64.6065067 C109.893219,64.0669392 109.763345,62.1754551 110.301825,60.905473 Z M16.3001574,60.442629 C16.8396366,59.1726469 18.3791503,58.6760449 19.6489245,59.2156124 C20.9186986,59.75518 21.4371981,61.125082 20.8987179,62.3950641 C20.3592387,63.6650463 18.4311001,64.6832302 17.161326,64.1436627 C15.8915518,63.6050943 15.7606782,61.7126111 16.3001574,60.442629 Z M246.11581,57.0957265 C247.411559,56.6241045 248.975049,57.6492828 249.446594,58.9452441 C249.919138,60.2422046 249.573472,62.5653427 248.277722,63.0369647 C246.981973,63.5085867 245.22467,61.9508352 244.753125,60.6548739 C244.28158,59.3579134 244.819061,57.5673485 246.11581,57.0957265 Z M218.92456,59.1490807 C219.464039,57.8790986 221.003553,57.3824966 222.273327,57.9220642 C223.543101,58.4606325 224.061601,59.8315338 223.523121,61.1015159 C222.983641,62.371498 221.055503,63.389682 219.785729,62.8501144 C218.515955,62.3105469 218.38608,60.4190629 218.92456,59.1490807 Z M32.4022295,52.9699332 C33.7709081,52.8020678 35.0636601,54.152985 35.2314981,55.5228871 C35.4003351,56.8917899 34.5411645,59.0780377 33.1724858,59.2459031 C31.8038072,59.4147678 30.4421217,57.5013014 30.2742838,56.1313994 C30.1064458,54.7614973 31.0335508,53.1377987 32.4022295,52.9699332 Z M161.691913,52.5527676 C162.597039,51.5116021 164.461239,51.6504907 165.502234,52.5557652 C166.543229,53.4610396 167.368433,55.6592778 166.463306,56.7004433 C165.55818,57.742608 163.266393,57.2320172 162.225398,56.3257436 C161.184403,55.4214684 160.786787,53.5939331 161.691913,52.5527676 Z M270.314548,50.7962754 C271.219674,49.7551099 273.083875,49.8939985 274.12487,50.799273 C275.165865,51.7045474 275.991068,53.9037848 275.085942,54.9449503 C274.180816,55.9861158 271.889028,55.475525 270.848033,54.5702506 C269.807038,53.6649762 269.409422,51.8374409 270.314548,50.7962754 Z M89.6024082,46.9747383 C90.9710869,46.8068728 92.2638388,48.1577901 92.4326758,49.5276921 C92.6005138,50.896595 91.7423423,53.0828427 90.3726646,53.2507082 C89.0039859,53.4195729 87.6423005,51.5061065 87.4744625,50.1362044 C87.3066246,48.7663024 88.2337295,47.1426038 89.6024082,46.9747383 Z M198.225044,45.218346 C199.593722,45.0504806 200.886474,46.402397 201.055311,47.7712999 C201.223149,49.1402027 200.364978,51.3264505 198.9953,51.4953151 C197.626621,51.6631806 196.264936,49.7497142 196.097098,48.3798121 C195.92926,47.0109093 196.856365,45.3872107 198.225044,45.218346 Z M126.395388,47.5962402 C126.933868,46.326258 128.474381,45.8296561 129.744155,46.3692236 C131.013929,46.9077919 131.532429,48.2786932 130.99295,49.5486753 C130.454469,50.8186574 128.526331,51.8358422 127.256557,51.2972738 C125.986783,50.7587055 125.855909,48.8662223 126.395388,47.5962402 Z M47.406744,44.2923882 C48.7854131,44.2923882 49.9043329,45.7901877 49.9043329,47.1700817 C49.9043329,48.5499758 48.7854131,50.6153204 47.406744,50.6153204 C46.027076,50.6153204 44.9091552,48.5499758 44.9091552,47.1700817 C44.9091552,45.7901877 46.027076,44.2923882 47.406744,44.2923882 Z M235.018023,45.8398479 C235.557503,44.5698658 237.097016,44.0732638 238.366791,44.6128313 C239.636565,45.1523989 240.155064,46.5223009 239.616584,47.792283 C239.077105,49.0622652 237.148966,50.0804491 235.879192,49.5408816 C234.609418,49.0023132 234.478544,47.10983 235.018023,45.8398479 Z M12.3392983,42.9244845 C13.5211573,42.2130547 15.2514868,42.9224861 15.9618011,44.1045387 C16.6721154,45.2865913 16.7770141,47.6337101 15.5951551,48.3441407 C14.412297,49.0545713 12.3902491,47.8605283 11.6799348,46.6774765 C10.9696206,45.4954239 11.1564402,43.6349151 12.3392983,42.9244845 Z M104.606823,38.2971932 C105.986491,38.2971932 107.104412,39.7949927 107.104412,41.1748868 C107.104412,42.5547808 105.986491,44.6201255 104.606823,44.6201255 C103.227155,44.6201255 102.109234,42.5547808 102.109234,41.1748868 C102.109234,39.7949927 103.227155,38.2971932 104.606823,38.2971932 Z M153.40841,38.532005 C154.705158,38.060383 156.268648,39.0855613 156.740193,40.3825219 C157.211738,41.6794824 156.867071,44.0016212 155.571322,44.4742424 C154.275572,44.9458644 152.518269,43.3881129 152.046724,42.0911524 C151.57418,40.7941919 152.112661,39.003627 153.40841,38.532005 Z M213.229558,36.5410008 C214.609226,36.5410008 215.727147,38.0388003 215.727147,39.4186943 C215.727147,40.7985884 214.609226,42.863933 213.229558,42.863933 C211.84989,42.863933 210.731969,40.7985884 210.731969,39.4186943 C210.731969,38.0388003 211.84989,36.5410008 213.229558,36.5410008 Z M262.031045,36.7756127 C263.327793,36.3039907 264.891284,37.3291691 265.362828,38.6261296 C265.834373,39.9230901 265.489706,42.2452289 264.193957,42.7178501 C262.897209,43.1894721 261.140904,41.6317206 260.66936,40.3347601 C260.196816,39.0387988 260.735296,37.2472347 262.031045,36.7756127 Z M23.3625564,36.5090264 C23.5923346,34.8703398 25.1718097,33.2766171 26.811227,33.5064329 C28.4496453,33.7362487 29.5286037,35.7046711 29.2978265,37.3433577 C29.0680483,38.9830435 27.3946638,41.2502264 25.7552465,41.0204106 C24.1158292,40.7895956 23.1317792,38.1487122 23.3625564,36.5090264 Z M178.162112,35.1728973 C179.343971,34.4624667 181.074301,35.1708989 181.784615,36.3529515 C182.494929,37.5350041 182.600827,39.8821229 181.417969,40.5925535 C180.235111,41.3029841 178.213063,40.1089411 177.503748,38.9268885 C176.792435,37.7438367 176.979254,35.8833279 178.162112,35.1728973 Z M127.58464,31.8466632 C128.687575,31.8466632 129.582711,33.2675244 129.582711,34.5754761 C129.582711,35.8834278 128.687575,37.8418582 127.58464,37.8418582 C126.481705,37.8418582 125.586569,35.8834278 125.586569,34.5754761 C125.586569,33.2675244 126.481705,31.8466632 127.58464,31.8466632 Z M236.207375,30.0902709 C237.31031,30.0902709 238.205446,31.5111321 238.205446,32.8190838 C238.205446,34.1280347 237.31031,36.0854659 236.207375,36.0854659 C235.10444,36.0854659 234.209304,34.1280347 234.209304,32.8190838 C234.209304,31.5111321 235.10444,30.0902709 236.207375,30.0902709 Z M80.5627351,30.5138315 C80.7925133,28.8751448 82.3719885,27.2814222 84.0114058,27.511238 C85.6508231,27.7410538 86.7287824,29.7094761 86.4980052,31.3481628 C86.268227,32.9878486 84.5948425,35.2550315 82.9554252,35.0252157 C81.3160079,34.7944006 80.332957,32.1535173 80.5627351,30.5138315 Z M189.18537,28.7584384 C189.415149,27.1187526 190.994624,25.5250299 192.634041,25.7548457 C194.273458,25.9856607 195.351418,27.9530839 195.120641,29.5927697 C194.890862,31.2314563 193.217478,33.4986392 191.578061,33.2688234 C189.938643,33.0390076 188.955592,30.397125 189.18537,28.7584384 Z M47.3855645,26.0562042 C48.2906907,25.0150387 50.154891,25.1539273 51.195886,26.0592018 C52.236881,26.9644762 53.0620844,29.1637136 52.1569582,30.2048791 C51.251832,31.2460446 48.9600445,30.7354538 47.9190495,29.8301794 C46.8780544,28.924905 46.4804383,27.0973697 47.3855645,26.0562042 Z M5.31908005,25.421598 C5.85855924,24.1516159 7.39807299,23.6550139 8.66784714,24.1945815 C9.9376213,24.7331498 10.4561207,26.1040511 9.91764059,27.3740332 C9.3781614,28.6440153 7.45002283,29.6621993 6.18024868,29.1226317 C4.91047452,28.5830642 4.7805999,26.6915802 5.31908005,25.421598 Z M104.585743,20.0610092 C105.490869,19.0198437 107.35507,19.1587324 108.396065,20.0640068 C109.43706,20.9692813 110.262263,23.1685186 109.357137,24.2096841 C108.452011,25.2508497 106.160223,24.7402589 105.119228,23.8349845 C104.078233,22.92971 103.680617,21.1021748 104.585743,20.0610092 Z M162.400429,18.5482217 C163.696178,18.0765997 165.259668,19.101778 165.731213,20.3987386 C166.202758,21.6946999 165.85909,24.0178379 164.562342,24.4904591 C163.266593,24.9610819 161.509289,23.4033304 161.037744,22.1073691 C160.5652,20.8104086 161.103681,19.0198437 162.400429,18.5482217 Z M213.208379,18.304617 C214.113505,17.2634514 215.977705,17.4033393 217.0187,18.3086138 C218.059695,19.212889 218.884898,21.4121263 217.979772,22.4532919 C217.074646,23.4944574 214.782859,22.9838666 213.741864,22.0785922 C212.700868,21.1733177 212.303252,19.3467817 213.208379,18.304617 Z M271.022365,16.7916296 C272.319113,16.3200076 273.882603,17.3451859 274.354148,18.6421464 C274.825693,19.9391069 274.481026,22.2612458 273.185277,22.733867 C271.888529,23.205489 270.132224,21.6477375 269.660679,20.350777 C269.188135,19.0548157 269.726616,17.2632516 271.022365,16.7916296 Z M34.5163263,16.509551 C35.6192615,16.509551 36.5143974,17.9304122 36.5143974,19.2383639 C36.5143974,20.5473148 35.6192615,22.504746 34.5163263,22.504746 C33.4133911,22.504746 32.5182553,20.5473148 32.5182553,19.2383639 C32.5182553,17.9304122 33.4133911,16.509551 34.5163263,16.509551 Z M138.074513,10.6995123 C139.177448,10.6995123 140.072584,12.1203735 140.072584,13.4283252 C140.072584,14.7362769 139.177448,16.6947073 138.074513,16.6947073 C136.971578,16.6947073 136.076442,14.7362769 136.076442,13.4283252 C136.076442,12.1203735 136.971578,10.6995123 138.074513,10.6995123 Z M55.0998171,11.9447143 C55.6382973,10.6747322 57.1788101,10.1781302 58.4485842,10.7176978 C59.7183584,11.2562661 60.2368578,12.6271674 59.6973786,13.8971495 C59.1588985,15.1671316 57.2307599,16.1853155 55.9609857,15.645748 C54.6912116,15.1061805 54.5603379,13.2146965 55.0998171,11.9447143 Z M83.7669418,10.5867028 C84.672068,9.54553723 86.5362683,9.68442591 87.5772633,10.5897003 C88.6182583,11.4939756 89.4434616,13.6932129 88.5383355,14.7343785 C87.6332093,15.775544 85.3414218,15.2649532 84.3004267,14.3596788 C83.2594317,13.4544043 82.8618156,11.6278683 83.7669418,10.5867028 Z M246.697248,8.94312006 C247.800183,8.94312006 248.695319,10.3639813 248.695319,11.671933 C248.695319,12.9798847 247.800183,14.938315 246.697248,14.938315 C245.594313,14.938315 244.699177,12.9798847 244.699177,11.671933 C244.699177,10.3639813 245.594313,8.94312006 246.697248,8.94312006 Z M192.389677,8.82981087 C193.294803,7.78864535 195.159003,7.92753404 196.199998,8.83280847 C197.240994,9.73808291 198.066197,11.9373203 197.161071,12.9784858 C196.255944,14.0196513 193.964157,13.5090605 192.923162,12.6037861 C191.882167,11.6985117 191.484551,9.8709764 192.389677,8.82981087 Z M38.4912889,6.72276756 C39.3964151,5.68160204 41.2606154,5.82049073 42.3016104,6.72576516 C43.3426054,7.6300404 44.1678087,9.82927774 43.2626825,10.8704433 C42.3575564,11.9116088 40.0657689,11.401018 39.0247738,10.4957436 C37.9837788,9.59046915 37.5861627,7.76393309 38.4912889,6.72276756 Z M112.299896,5.94951938 C112.839375,4.67953726 114.378889,4.18293527 115.648663,4.72250282 C116.918437,5.26107116 117.436937,6.63197241 116.898456,7.90195454 C116.358977,9.17193667 114.430839,10.1901206 113.161065,9.65055306 C111.89129,9.11098552 111.761416,7.21950151 112.299896,5.94951938 Z M11.5173296,4.72389704 C12.4224558,3.68273152 14.2866561,3.8226194 15.3276511,4.72789383 C16.3686461,5.63216907 17.1938495,7.83140642 16.2887233,8.87257194 C15.3835971,9.91373746 13.0918096,9.40314669 12.0508146,8.49787225 C11.0098196,7.59259782 10.6122034,5.76606176 11.5173296,4.72389704 Z M220.922631,4.19312711 C221.46211,2.92314498 223.001624,2.426543 224.271398,2.96611054 C225.541172,3.50467889 226.059672,4.87558013 225.521192,6.14556226 C224.981713,7.41554439 223.053574,8.43372833 221.7838,7.89416078 C220.514026,7.35459324 220.384151,5.46310923 220.922631,4.19312711 Z M159.790848,1.01177691 C161.159527,0.843911452 162.452279,2.19482871 162.620117,3.56373156 C162.787955,4.9336336 161.929783,7.11988136 160.561104,7.28774682 C159.191427,7.45561227 157.83074,5.54214589 157.661903,4.17324304 C157.494065,2.803341 158.42117,1.17964237 159.790848,1.01177691 Z M128.820747,-1.98582056 C130.189425,-2.15368602 131.482177,-0.802768759 131.650015,0.566134086 C131.817853,1.93603613 130.959682,4.12228389 129.591003,4.29014934 C128.221325,4.4580148 126.860639,2.54454842 126.691802,1.17564557 C126.523964,-0.194256473 127.451069,-1.8179551 128.820747,-1.98582056 Z" id="Pattern" fill="#010101"/>
                    </g>
                </g>
            </g>
        </g>
        <g id="Dog" transform="translate(1530.353827, 1091.000000)">
            <path d="M54.0615573,4.48263191 C80.3223206,-4.08665214 135.044519,-9.56385837 161.372336,78.707916 C161.372336,78.707916 235.95774,78.3665541 278.194809,84.1829198 C327.491176,90.9705152 328.755298,113.425519 349.008733,124.142079 C396.505649,149.271819 431.361344,152.041254 431.53122,157.526169 C432.04287,174.552418 361.325679,153.912138 352.663695,151.020472 C352.663695,151.020472 365.938076,187.719075 347.919389,271.141309 C347.275237,274.124371 344.544733,276.193465 341.505344,275.986445 L332.759817,275.389612 C329.54455,275.168278 327.048183,272.492441 327.048183,269.262718 L327.048183,222.752714 C327.048183,220.402823 325.078351,218.537445 322.738076,218.667383 L322.599573,218.675091 C320.535206,218.789612 318.881954,220.432554 318.751145,222.500546 L315.759023,269.696577 C315.554565,272.929605 312.876824,275.446873 309.64287,275.446873 L302.912244,275.446873 C299.62113,275.446873 296.917008,272.843714 296.787298,269.549021 L293.882015,195.529655 C293.882015,195.529655 190.797802,220.223332 149.115847,218.875504 L142.940336,276.6042 C142.623756,279.569644 140.225221,281.87769 137.255084,282.077002 L134.087084,282.288426 C131.115847,282.486636 128.431511,280.516647 127.724702,277.618375 L115.413252,227.127651 C114.944977,225.209418 113.174107,223.899029 111.205374,224.014651 L110.596397,224.05099 C108.535328,224.173219 106.888672,225.816161 106.758962,227.879749 L103.723969,276.553546 C103.537099,279.544317 101.222107,281.96248 98.2475725,282.276313 L92.0467786,282.930406 C88.848,283.268465 85.9328244,281.070535 85.3700153,277.898072 L57.2361527,119.203344 C57.2361527,119.203344 -5.95346565,70.8576942 24.6514809,26.1150638 C31.7063817,15.8015307 42.1952977,8.35543735 54.0615573,4.48263191" id="Fill-1" fill="#9B7368"/>
            <path d="M208.782302,162.498049 C207.718241,152.743909 196.802821,147.467116 188.369478,152.459808 C177.079218,159.144995 163.453081,171.010073 182.510547,182.362007 C201.742791,193.816349 210.344318,176.816528 208.782302,162.498049" id="Fill-4" fill="#F7D3BB"/>
            <path d="M85.1665466,23.661663 C84.1497527,28.1577292 80.9619664,31.2663245 78.0467908,30.6056241 C75.1316153,29.9427214 73.592684,25.7615891 74.6094779,21.265523 C75.6262718,16.7694568 78.8151573,13.6608615 81.7292336,14.322663 C84.6444092,14.9833634 86.1844397,19.1655969 85.1665466,23.661663" id="Fill-6" fill="#010101"/>
            <path d="M56.8204214,43.4740856 C56.4104061,42.7175837 55.4650626,42.436786 54.7076885,42.8486226 C54.6549252,42.8772529 49.2785588,45.7546031 44.1781008,44.0015447 C41.2365435,42.9917743 38.9182534,40.5879261 37.2891847,36.85607 L37.0077802,36.2096848 L44.5474443,27.8408132 C45.4631084,26.8244358 44.8849099,25.1958093 43.5339481,24.9887899 L34.178345,23.5462607 C32.9274137,23.3546576 31.9051237,24.5373113 32.2766656,25.7496965 L35.2918718,35.6172568 L34.6037496,36.5620584 C34.5322992,36.6611634 27.2949252,46.3943813 17.1236885,42.469821 C16.326742,42.1625953 15.4187725,42.5612179 15.109887,43.3661712 C14.8010015,44.1711245 15.2022229,45.0740817 16.0046656,45.3835097 C25.2591389,48.9479883 32.4338565,43.3419455 35.4996275,40.238856 C37.4221924,43.6106304 39.9933069,45.8647198 43.1679023,46.9548755 C44.7101313,47.4856381 46.2545588,47.6871518 47.7110473,47.6871518 C52.2750779,47.6871518 55.9915969,45.7006459 56.196055,45.5905292 C56.9512305,45.1786926 57.2315359,44.2305875 56.8204214,43.4740856" id="Fill-8" fill="#010101"/>
            <path d="M110.031389,105.09651 C122.684702,122.320969 141.036458,62.8436187 146.683237,42.996179 C138.595053,28.6215409 129.423023,18.7231479 119.92342,12.0842101 C115.371481,26.0646304 96.6822595,86.9228444 110.031389,105.09651" id="Fill-10" fill="#6D4038"/>
            <path d="M239.41495,128.195146 C265.268995,168.733519 308.738308,114.007706 304.91956,90.8270331 C297.929515,88.0289669 289.278522,85.7088074 278.194919,84.1825895 C268.063255,82.7874105 256.068385,81.7468074 243.69098,80.9704844 C232.368843,88.6786556 223.307835,102.939874 239.41495,128.195146" id="Fill-12" fill="#F7D3BB"/>
            <path d="M19.236971,69.3708981 C11.3191695,78.5238008 -7.77237252,104.127042 3.4453374,127.22733 C14.0046046,148.972081 26.5600855,112.236038 32.0430779,93.0779292 C26.8810626,86.0656957 22.1422534,78.0095556 19.236971,69.3708981" id="Fill-14" fill="#6D4038"/>
        </g>
        <g id="Object/Floor" transform="translate(318.353827, 898.000000) scale(1 1)">
            <g id="Object/Floor/Dog" stroke="none" stroke-width="1" fill="none" fill-rule="evenodd">
                <g id="Dog" transform="translate(2.000000, 220.000000)">
                    <path d="M49.181,4.0708 C73.071,-3.7112 122.853,-8.6852 146.804,71.4768 C146.804,71.4768 214.656,71.1668 253.08,76.4488 C297.926,82.6128 299.076,103.0048 317.501,112.7368 C360.71,135.5578 392.419,138.0728 392.573541,143.0538 C393.039,158.5158 328.706,139.7718 320.826,137.1458 C320.826,137.1458 332.902,170.4728 316.51,246.2308 C315.924,248.9398 313.44,250.8188 310.675,250.6308 L302.719,250.0888 C299.794,249.8878 297.523,247.4578 297.523,244.5248 L297.523,202.2878 C297.523,200.1538 295.731,198.4598 293.602,198.5778 L293.476,198.5848 C291.598,198.6888 290.094,200.1808 289.975,202.0588 L287.253,244.9188 C287.067,247.8548 284.631,250.1408 281.689,250.1408 L275.566,250.1408 C272.572,250.1408 270.112,247.7768 269.994,244.7848 L267.351,177.5658 C267.351,177.5658 173.573,199.9908 135.654,198.7668 L130.036,251.1918 C129.748,253.8848 127.566,255.9808 124.864,256.1618 L121.982,256.3538 C119.279,256.5338 116.837,254.7448 116.194,252.1128 L104.994,206.2608 C104.568,204.5188 102.957,203.3288 101.166,203.4338 L100.612,203.4668 C98.737,203.5778 97.239,205.0698 97.121,206.9438 L94.36,251.1458 C94.19,253.8618 92.084,256.0578 89.378,256.3428 L83.737,256.9368 C80.827,257.2438 78.175,255.2478 77.663,252.3668 L52.069,108.2518 C52.069,108.2518 -5.416,64.3478 22.426,23.7158 C28.844,14.3498 38.386,7.5878 49.181,4.0708" id="Fill-1" fill="#9B7368"/>
                    <path d="M189.9339,147.5689 C188.9659,138.7109 179.0359,133.9189 171.3639,138.4529 C161.0929,144.5239 148.6969,155.2989 166.0339,165.6079 C183.5299,176.0099 191.3549,160.5719 189.9339,147.5689" id="Fill-4" fill="#F7D3BB"/>
                    <path d="M77.4779,21.4878 C76.5529,25.5708 73.6529,28.3938 71.0009,27.7938 C68.3489,27.1918 66.9489,23.3948 67.8739,19.3118 C68.7989,15.2288 71.6999,12.4058 74.3509,13.0068 C77.0029,13.6068 78.4039,17.4048 77.4779,21.4878" id="Fill-6" fill="#010101"/>
                    <path d="M51.6908,39.48 C51.3178,38.793 50.4578,38.538 49.7688,38.912 C49.7208,38.938 44.8298,41.551 40.1898,39.959 C37.5138,39.042 35.4048,36.859 33.9228,33.47 L33.6668,32.883 L40.5258,25.283 C41.3588,24.36 40.8328,22.881 39.6038,22.693 L31.0928,21.383 C29.9548,21.209 29.0248,22.283 29.3628,23.384 L32.1058,32.345 L31.4798,33.203 C31.4148,33.293 24.8308,42.132 15.5778,38.568 C14.8528,38.289 14.0268,38.651 13.7458,39.382 C13.4648,40.113 13.8298,40.933 14.5598,41.214 C22.9788,44.451 29.5058,39.36 32.2948,36.542 C34.0438,39.604 36.3828,41.651 39.2708,42.641 C40.6738,43.123 42.0788,43.306 43.4038,43.306 C47.5558,43.306 50.9368,41.502 51.1228,41.402 C51.8098,41.028 52.0648,40.167 51.6908,39.48" id="Fill-8" fill="#010101"/>
                    <path d="M100.098,95.441 C111.609,111.083 128.304,57.07 133.441,39.046 C126.083,25.992 117.739,17.003 109.097,10.974 C104.956,23.67 87.954,78.937 100.098,95.441" id="Fill-10" fill="#6D4038"/>
                    <path d="M217.8011,116.4175 C241.3211,153.2315 280.8661,103.5335 277.3921,82.4825 C271.0331,79.9415 263.1631,77.8345 253.0801,76.4485 C243.8631,75.1815 232.9511,74.2365 221.6911,73.5315 C211.3911,80.5315 203.1481,93.4825 217.8011,116.4175" id="Fill-12" fill="#F7D3BB"/>
                    <path d="M17.5003,62.9976 C10.2973,71.3096 -7.0707,94.5606 3.1343,115.5386 C12.7403,135.2856 24.1623,101.9246 29.1503,84.5266 C24.4543,78.1586 20.1433,70.8426 17.5003,62.9976" id="Fill-14" fill="#6D4038"/>
                </g>
            </g>
        </g>
        <g id="Object/Chair" transform="translate(1244.353827, 1059.000000) scale(-1, 1) translate(-1244.353827, -1059.000000) translate(1008.353827, 747.000000) scale(1 1)">
            <g id="Object/Chair/High Chair" stroke="none" stroke-width="1" fill="none" fill-rule="evenodd">
                <g id="Chair" transform="translate(184.000000, 312.000000) scale(-1, 1) translate(-184.000000, -312.000000)" fill="#5BA092">
                    <path d="M172.887218,278.882317 C177.370491,277.49025 182.133394,279.996168 183.52546,284.479441 L183.52546,284.479441 L285.52546,612.979441 C286.917527,617.462713 284.411609,622.225617 279.928336,623.617683 C275.445064,625.00975 270.68216,622.503832 269.290094,618.020559 L269.290094,618.020559 L215.876734,445.999734 L70.0297335,445.999734 L16.6176833,618.020559 C15.2256169,622.503832 10.4627135,625.00975 5.97944082,623.617683 C1.49616815,622.225617 -1.00974965,617.462713 0.382316747,612.979441 L102.382317,284.479441 C103.774383,279.996168 108.537287,277.49025 113.020559,278.882317 C117.503832,280.274383 120.00975,285.037287 118.617683,289.520559 L75.3077335,428.999734 L210.598734,428.999734 L167.290094,289.520559 C165.923807,285.12031 168.31247,280.450691 172.640194,278.963099 Z" id="Combined-Shape"/>
                    <path d="M248.747203,260.065637 C247.606383,264.619329 242.990069,267.386009 238.436377,266.245189 C233.882685,265.104369 231.116005,260.488055 232.256825,255.934363 L291.756825,18.4343631 C292.897644,13.8806709 297.513959,11.1139911 302.067651,12.2548108 C306.621343,13.3956306 309.388023,18.0119446 308.247203,22.5656369 L248.747203,260.065637 Z" id="Path-4-Copy-3"/>
                    <path d="M288.747203,260.065637 C287.606383,264.619329 282.990069,267.386009 278.436377,266.245189 C273.882685,265.104369 271.116005,260.488055 272.256825,255.934363 L331.756825,18.4343631 C332.897644,13.8806709 337.513959,11.1139911 342.067651,12.2548108 C346.621343,13.3956306 349.388023,18.0119446 348.247203,22.5656369 L288.747203,260.065637 Z" id="Path-4-Copy-7"/>
                    <path d="M210.729371,260.135756 C209.549825,264.679571 204.910125,267.40685 200.36631,266.227305 C195.822495,265.047759 193.095215,260.408059 194.274761,255.864244 L251.774761,34.3642437 C252.954307,29.8204287 257.594007,27.0931495 262.137822,28.2726952 C266.681637,29.4522408 269.408916,34.0919413 268.229371,38.6357563 L210.729371,260.135756 Z" id="Path-4-Copy-4"/>
                    <path d="M171.7013,259.743496 C170.463431,264.27177 165.789049,266.93917 161.260775,265.7013 C156.732502,264.463431 154.065102,259.789049 155.302971,255.260775 L213.802971,41.2607752 C215.04084,36.7325016 219.715222,34.0651017 224.243496,35.3029709 C228.77177,36.5408401 231.43917,41.2152225 230.2013,45.7434962 L171.7013,259.743496 Z" id="Path-4-Copy-5"/>
                    <path d="M208.04866,55.7404495 C201.289833,57.1466484 194.670772,52.8074862 193.264573,46.0486596 C191.858374,39.289833 196.197537,32.6707721 202.956363,31.2645733 L351.956363,0.264573308 C358.71519,-1.14162551 365.334251,3.19753663 366.74045,9.95636323 C368.146648,16.7151898 363.807486,23.3342507 357.04866,24.7404495 L208.04866,55.7404495 Z" id="Path-4-Copy-6"/>
                </g>
                <path d="M361.962292,300 L86.0387061,300 C76.6281238,300 69,290.597199 69,279 C69,267.402801 76.6281238,258 86.0387061,258 L361.962292,258 C371.371876,258 379,267.402801 379,279 C379,290.597199 371.371876,300 361.962292,300" id="Fill-39" fill="#78BFB1"/>
            </g>
        </g>
        <g transform="translate(1237.853827, 890.500000) scale(-1, 1) translate(-1237.853827, -890.500000) translate(753.353827, 407.000000) scale(1 1)" id="Master/Character/Sitting">
            <defs>
                <path d="M275.684414,0.876652922 C298.838059,1.54914435 329.906472,9.13626937 355.7471,15.2297529 L355.731944,15.2730262 C397.943463,24.6870841 452.971125,41.5664426 466.9347,60.6071529 C489.4187,91.2671529 484.8307,126.127153 444.6317,165.644153 C415.2977,194.481153 386.9717,210.585153 372.4107,216.074153 C363.858947,207.086013 354.27259,195.452866 345.166172,184.184251 L345.5431,187.063753 C345.8052,205.151453 195.8084,217.517053 146.0664,197.369053 L149.907924,169.277823 C138.376043,183.58138 125.055547,200.37944 113.5941,212.425753 C99.0331,206.935753 70.7081,190.832753 41.3741,161.994753 C1.1741,122.477753 -11.4139,87.6187529 11.0701,56.9587529 C23.1971,40.4207529 69.0261,26.2177529 108.6751,16.6397529 C108.048715,16.8278037 108.709162,16.7365391 110.005927,16.5033439 C127.558487,12.2104677 191.200137,-1.57717031 275.684414,0.876652922 Z M162.310363,78.5613735 L87.8171,104.583753 C87.8171,104.583753 122.608609,134.324697 151.917069,154.584908 L162.310363,78.5613735 Z M332.466363,87.1363735 L341.108096,153.169863 C367.388419,133.830342 393.927617,109.395078 395.144211,108.27232 L395.1877,108.232153 L332.466363,87.1363735 Z" id="mastercharactersitting-path-1"/>
            </defs>
            <g id="Master/Character/Sitting" stroke="none" stroke-width="1" fill="none" fill-rule="evenodd">
                <g id="Bottom/Sitting" transform="translate(15.000000, 331.000000) scale(1 1)">
                    <g id="Bottom/Sitting/Crossed 2" stroke="none" stroke-width="1" fill="none" fill-rule="evenodd">
                        <g id="Crossed-2" transform="translate(65.000000, 110.000000)">
                            <path d="M391,1.27329258e-11 L390.997181,10.5384946 C495.782485,19.8364681 658.933713,135.817305 559.020137,202 C495.735188,243.919914 467.03552,256.218825 428.053462,264.342361 L433.7133,307.3983 C418.7113,314.5763 407.1923,304.6803 399.6803,293.7943 C391.592301,282.075585 378.324742,275.081413 364.160606,275.246339 C354.385891,276.873514 343.720753,278.715149 331.9524,280.8944 L207.3214,297.2714 C183.8134,300.3604 161.0514,307.6044 140.0384,318.5884 C124.0334,326.9544 105.9864,335.5164 98.0924,336.1484 C82.3804,337.4054 81.7514,324.2074 81.7514,324.2074 L120.742214,261.014568 C115.140248,259.565605 109.761285,257.993605 104.6483,256.2893 C-63.2741842,173.510753 -28.4914464,92.2600912 208.996513,12.537314 L209,1.27329258e-11 L391,1.27329258e-11 Z M302.482523,166.892858 L301.670242,166.931682 C301.148326,167.009127 300.594729,167.057489 300.008662,167.075931 C257.903962,168.400884 201.2083,174.2053 201.2083,174.2053 L201.2083,174.2053 L306.449591,197.282008 C365.990085,182.982394 417.698345,169.388862 414.5854,166.2764 C411.68265,163.3728 327.632313,166.030283 302.482523,166.892858 Z" id="Pants" fill="#010101"/>
                            <path d="M165.0741,229.5837 C159.8881,256.8617 155.4651,284.6597 152.7191,312.5137 C148.4301,314.3917 144.1981,316.4137 140.0381,318.5877 C124.0331,326.9547 105.9861,335.5167 98.0921,336.1487 C82.69434,337.38056 81.7822932,324.729838 81.7519704,324.223316 L81.7511,324.2077 L131.3351,243.8467 C134.5841,238.5817 139.8561,234.8917 145.9171,233.6487 C150.5951,232.6887 157.1241,231.3037 165.0741,229.5837 Z M427.296427,258.594457 L433.7131,307.3986 C418.7111,314.5766 407.1921,304.6796 399.6801,293.7946 C391.3041,281.6586 377.3731,274.5886 362.6451,275.2916 C361.731028,275.335075 360.796899,275.378598 359.843446,275.422064 C385.256117,270.13175 407.613986,264.563476 427.296427,258.594457 Z" id="Shoes" fill="#2F6858"/>
                            <path d="M165.0744,229.5832 C159.8874,256.8612 155.4654,284.6592 152.7194,312.5142 C170.0954,304.9052 188.4684,299.7492 207.3214,297.2712 L243.8774,292.4682 C235.6014,267.5102 226.9904,242.6442 217.6254,217.9292 C197.2734,222.5262 178.9934,226.5692 165.0744,229.5832" id="Skin" fill="#f7d3bb"/>
                            <path d="M306.344594,197.306556 C306.473467,197.843594 306.142583,198.383422 305.605544,198.512294 C278.468119,205.024424 248.053045,212.079783 217.845568,218.904317 C217.30686,219.026023 216.771489,218.687976 216.649783,218.149268 C216.528077,217.61056 216.866124,217.075189 217.404832,216.953483 C247.604145,210.130794 278.010734,203.077403 305.138856,196.567506 C305.675894,196.438633 306.215722,196.769517 306.344594,197.306556 Z M164.980418,165.392645 L201.418418,173.227645 C201.958362,173.343746 202.301955,173.875574 202.185855,174.415518 C202.069754,174.955462 201.537926,175.299055 200.997982,175.182955 L164.559982,167.347955 C164.020038,167.231854 163.676445,166.700026 163.792545,166.160082 C163.908646,165.620138 164.440474,165.276545 164.980418,165.392645 Z M436.218831,161.02051 C436.34922,161.557182 436.019862,162.097942 435.48319,162.228331 L414.82119,167.248331 C414.284518,167.37872 413.743758,167.049362 413.613369,166.51269 C413.48298,165.976018 413.812338,165.435258 414.34901,165.304869 L435.01101,160.284869 C435.547682,160.15448 436.088442,160.483838 436.218831,161.02051 Z" id="Pants-details" fill="#B9B3B8"/>
                        </g>
                    </g>
                </g>
                <g id="Head" transform="translate(247.000000, 64.000000) scale(1 1)">
                    <g id="Head/Shaved" stroke="none" stroke-width="1" fill="none" fill-rule="evenodd">
                        <g id="Shaved" transform="translate(38.000000, 51.000000)">
                            <path d="M69.7059,0.0007 C38.1519,0.0007 12.5729,22.7597 12.5729,50.8347 C12.5729,56.5827 13.6609,62.1007 15.6369,67.2527 C15.4429,67.2477 15.2519,67.2287 15.0559,67.2287 C6.7409,67.2287 -0.0001,72.7737 -0.0001,79.6147 C-0.0001,86.4557 6.7409,92.0007 15.0559,92.0007 C19.6519,92.0007 23.7619,90.3017 26.5209,87.6297 C27.5179,86.6657 29.0589,86.5617 30.1129,87.4637 C37.8329,94.0747 47.6299,98.7767 58.5539,100.7007 C59.9579,100.9477 60.9499,102.2117 60.8679,103.6347 L59.3079,131 L85.7469,131 L84.5229,109.4997 C84.2259,104.3107 87.2629,99.4527 92.1209,97.6077 C112.5329,89.8537 126.8389,71.8307 126.8389,50.8347 C126.8389,22.7597 101.2599,0.0007 69.7059,0.0007 Z" id="Skin" fill="#f7d3bb"/>
                            <path d="M69.7062,0.0002 C38.1522,0.0002 12.5732,22.7592 12.5732,50.8342 C12.5732,56.5822 13.6612,62.1012 15.6372,67.2532 L20.8412,74.9952 C22.0292,76.7632 24.0472,77.7882 26.1752,77.7072 L29.6732,77.5722 C31.8802,77.3722 33.3662,75.2222 32.7742,73.0872 L28.7202,58.4662 C36.8172,49.5162 37.3002,26.5792 37.3002,26.5792 C60.5372,38.1972 127.9202,28.1272 110.0042,14.8032 C99.6732,5.6562 85.4332,0.0002 69.7062,0.0002" id="Hair" fill="#010101"/>
                        </g>
                    </g>
                </g>
                <g id="Face" transform="translate(321.000000, 155.000000) scale(1 1)">
                    <g id="Face/Side Look" stroke="none" stroke-width="1" fill="none" fill-rule="evenodd">
                        <g id="Side-Look" transform="translate(11.000000, 15.000000)">
                            <path d="M66.6175815,8.38051004 C66.2932501,5.18807166 63.4437023,2.86301367 60.2522472,3.18724514 L44.2881422,4.80625578 C41.0966357,5.1296978 38.7717554,7.97957493 39.0952558,11.1716578 C39.4187333,14.3635141 42.2688236,16.6888142 45.4605528,16.3645549 L61.4244162,14.7455687 C64.616097,14.4212466 66.9410275,11.5712615 66.6175815,8.38051004 Z" id="Path-Copy-2" fill="#F4F0F0"/>
                            <path d="M66.6175815,8.38051004 C66.2932501,5.18807166 63.4437023,2.86301367 60.2522472,3.18724514 L44.2881422,4.80625578 C41.0966357,5.1296978 38.7717554,7.97957493 39.0952558,11.1716578 C39.4187333,14.3635141 42.2688236,16.6888142 45.4605528,16.3645549 L61.4244162,14.7455687 C64.616097,14.4212466 66.9410275,11.5712615 66.6175815,8.38051004 Z M61.72751,17.7302185 L45.76351,19.3492185 C40.923297,19.8409533 36.6010992,16.3146065 36.1105442,11.4741422 C35.6200008,6.63379259 39.1455967,2.31205838 43.9855528,1.82155486 L59.94929,0.202581537 C64.7891629,-0.289118701 69.1104548,3.23679314 69.602252,8.07762048 C70.0928121,12.9169296 66.5673307,17.2385235 61.72751,17.7302185 Z" id="Stroke-8" fill="#010101"/>
                            <path d="M60.1006,1.6945 L55.2306,2.4925 L53.9576,16.9095 L61.5756,16.2375 C65.5916,15.8305 68.5176,12.2445 68.1096,8.2285 C67.7026,4.2125 64.1166,1.2875 60.1006,1.6945" id="Fill-10" fill="#010101"/>
                            <path d="M24.4086427,16.171343 C27.607543,16.4121546 30.39654,14.014212 30.6381323,10.8154993 C30.8789546,7.61645695 28.481012,4.82745998 25.2821643,4.58585756 L9.28129935,3.37986773 C6.08207877,3.13903199 3.29347257,5.53709569 3.05266773,8.73670065 C2.81184153,11.9357945 5.20977386,14.7245337 8.40864269,14.965343 L24.4086427,16.171343 Z" id="Path-Copy" fill="#F4F0F0"/>
                            <path d="M24.4086427,16.171343 C27.607543,16.4121546 30.39654,14.014212 30.6381323,10.8154993 C30.8789546,7.61645695 28.481012,4.82745998 25.2821643,4.58585756 L9.28129935,3.37986773 C6.08207877,3.13903199 3.29347257,5.53709569 3.05266773,8.73670065 C2.81184153,11.9357945 5.20977386,14.7245337 8.40864269,14.965343 L24.4086427,16.171343 Z M24.1832993,19.1628677 L8.18329935,17.9568677 C3.3323015,17.591687 -0.304062267,13.3626809 0.0611301796,8.51152716 C0.426281818,3.65971034 4.65511516,0.0231223841 9.50663568,0.388342444 L25.5078702,1.59436014 C30.3587969,1.96074069 33.9948447,6.189752 33.6296399,11.0410702 C33.2632593,15.8919969 29.034248,19.5280447 24.1832993,19.1628677 Z" id="Stroke-12" fill="#010101"/>
                            <path d="M25.3945,3.0905 L17.5065,2.4955 L17.6655,17.0915 L24.2955,17.6675 C28.3215,17.9705 31.8305,14.9535 32.1335,10.9275 C32.4365,6.9035 29.4195,3.3935 25.3945,3.0905" id="Fill-14" fill="#010101"/>
                        </g>
                    </g>
                </g>
                <g id="Body" transform="translate(64.000000, 26.000000) scale(1 1)">
                    <defs>
                        <path d="M182.678662,-0.00403297353 C187.885095,0.54922035 193.335091,1.19850653 199.0802,1.93035429 C265.7362,10.4223543 308.0932,44.7363543 308.0932,44.7363543 C294.5282,93.7983543 262.0602,123.935354 262.0602,123.935354 L262.0602,123.935354 L268.1052,196.478354 C125.8982,234.765354 31.4772,189.282354 31.4772,189.282354 L31.4772,189.282354 L57.6732,133.435354 C27.4472,127.102354 0.6572,94.6133543 0.6572,94.6133543 C0.6572,94.6133543 19.5502,38.3743543 62.7122,18.6683543 C80.5156351,10.5398732 95.5122647,5.1472849 109.991414,1.89235379 C111.745044,2.8101392 128.308854,11.1515572 148.8249,10.2895543 C168.8719,9.44655429 183.5049,0.106554294 183.5049,0.106554294 L183.5049,0.106554294 Z" id="bodyselfie-path-1"/>
                        <path d="M58.5617694,133.89449 C58.308306,134.385178 57.7050521,134.577487 57.2143641,134.324024 C56.723676,134.07056 56.5313673,133.467306 56.7848306,132.976618 L72.1438306,103.242618 C72.397294,102.75193 73.0005479,102.559622 73.4912359,102.813085 C73.981924,103.066548 74.1742327,103.669802 73.9207694,104.16049 L58.5617694,133.89449 Z" id="bodyselfie-path-3"/>
                    </defs>
                    <g id="Body/Selfie" stroke="none" stroke-width="1" fill="none" fill-rule="evenodd">
                        <g id="Body" transform="translate(57.000000, 44.000000)">
                            <path d="M54.2514,101.2774 C54.2514,101.2774 64.0404,92.2774 67.6924,95.9294 C71.3304,99.5684 68.0624,107.8224 65.6984,110.3174 C65.6984,110.3174 77.7274,102.9314 78.2774,110.5954 C78.5664,114.6274 75.3974,120.3864 70.5014,127.5864 C70.5014,127.5864 80.8584,119.6094 82.7924,124.1344 C84.9814,129.2604 84.3244,134.2104 73.3814,151.2014 C68.4131316,158.915541 64.0391307,165.16844 60.7438864,169.696842 L90.0281,288.4943 L125.6611,227.6563 L172.1381,309.7793 L141.6801,366.1283 C135.3041,379.4373 115.1041,407.5293 103.7211,416.9213 C87.6831,430.1523 65.6791,439.8073 50.3051,412.8303 C23.4001,365.6203 10.2011,209.2663 10.2011,209.2663 C-1.12462,184.64673 0.0099987,140.442326 0.048111358,122.059484 L0.0481,120.4293 C0.0466695111,119.87171 0.298679605,119.308883 0.765975871,118.744768 C4.341375,106.912577 25.0194263,95.1650236 46.3994,86.7614 C73.8174,75.9874 54.2514,101.2774 54.2514,101.2774 Z M532.9083,16.1718 C532.9083,16.1718 538.1263,60.1778 537.9103,66.2198 C537.9103,66.2198 543.0893,58.2368 550.6413,58.6678 C558.1933,59.0998 560.7823,74.6348 560.7823,74.6348 C560.7823,74.6348 572.2183,75.4978 575.2393,93.4078 C575.2393,93.4078 583.6383,100.4878 572.7823,125.1588 C565.6613,141.3428 558.4083,147.7838 558.4083,147.7838 C558.4083,147.7838 542.3053,326.8628 518.2603,352.4428 C501.9573,369.7858 452.0993,376.1218 362.0603,298.8718 L385.9913,230.3188 L397.1533,213.8038 C397.1533,213.8038 437.8553,233.3788 464.6493,258.9368 L491.7903,138.3348 C491.7903,138.3348 466.5783,103.8768 476.4133,89.7398 C483.3183,79.8138 491.3583,80.5558 491.3583,80.5558 C491.3583,80.5558 481.3763,14.8658 487.2023,8.6078 C493.0283,2.3498 502.3753,18.5208 502.3753,18.5208 C502.3753,18.5208 512.420065,39.8853644 515.775819,65.3898422 L515.824991,65.7784984 L515.799562,65.5256627 C514.391824,51.8389804 511.21398,12.94456 519.3533,3.2128 C529.2783,-8.6552 532.9083,16.1718 532.9083,16.1718 Z M283.5049,175.0431 C283.5049,175.0431 268.8719,184.3831 248.8249,185.2261 C227.1189,186.1381 209.8369,176.7481 209.8369,176.7481 C209.8369,176.7481 236.9449,168.6831 283.5049,175.0431 Z" id="Skin" fill="#f7d3bb"/>
                            <path d="M90.8701697,287.9553 C91.0947415,288.306334 91.4555604,289.015589 91.905619,290.141821 C92.637347,291.972908 93.3645016,294.338955 94.0402246,297.29929 C95.9563707,305.693902 97.1028,317.177349 97.1028,332.2272 C97.1028,332.779485 96.6550847,333.2272 96.1028,333.2272 C95.5505153,333.2272 95.1028,332.779485 95.1028,332.2272 C95.1028,317.319676 93.9711043,305.98381 92.0903754,297.74436 C91.4371922,294.882773 90.7405186,292.615906 90.0484185,290.883985 C89.8103101,290.288139 89.5913511,289.803494 89.397542,289.422528 C89.2877081,289.20663 89.2150126,289.079341 89.1854303,289.0331 C88.887804,288.567872 89.0236719,287.949457 89.4888999,287.65183 C89.9541278,287.354204 90.5725433,287.490072 90.8701697,287.9553 Z M465.952594,257.960909 L469.965594,275.603909 C470.088086,276.142439 469.75082,276.678303 469.212291,276.800794 C468.673761,276.923286 468.137897,276.58602 468.015406,276.047491 L464.002406,258.404491 C463.879914,257.865961 464.21718,257.330097 464.755709,257.207606 C465.294239,257.085114 465.830103,257.42238 465.952594,257.960909 Z M71.2300871,126.901153 C71.6083175,127.303596 71.5886895,127.936457 71.1862468,128.314687 C71.1310998,128.366516 71.1310998,128.366516 70.8673963,128.614893 C70.6070221,128.860277 70.3049337,129.145404 69.9646091,129.467143 C68.9920614,130.386576 67.9082868,131.414862 66.7411143,132.526927 C63.4065394,135.704061 60.0720603,138.915645 56.9605461,141.960831 C56.650671,142.264101 56.3442513,142.564513 56.0414303,142.861939 C50.204603,148.594775 45.9819585,152.94243 44.0272772,155.307984 C43.6754808,155.733727 43.04516,155.793674 42.6194163,155.441877 C42.1936725,155.090081 42.1337264,154.45976 42.4855228,154.034016 C44.5005975,151.595374 48.7510792,147.219058 54.6399847,141.435072 C54.9436638,141.136803 55.2509328,140.835558 55.5616496,140.531465 C58.6802676,137.479327 62.0209302,134.261786 65.3614969,131.078943 C66.5306239,129.965016 67.6162704,128.934954 68.590639,128.0138 C68.931735,127.691332 69.2345814,127.405489 69.4957026,127.159402 C69.7604479,126.910043 69.7604479,126.910043 69.8165532,126.857313 C70.218996,126.479082 70.8518567,126.49871 71.2300871,126.901153 Z M66.4624584,109.67249 C66.8186324,110.094578 66.7651984,110.725484 66.3431102,111.081658 C66.2863452,111.129559 66.2863452,111.129559 66.0164877,111.357336 C65.6471873,111.669088 65.6471873,111.669088 65.0932087,112.136861 C64.0988683,112.976534 62.9908791,113.912596 61.7976564,114.921193 C58.38848,117.80287 54.9793176,120.688444 51.7975263,123.387039 L51.685806,123.481796 C43.9927494,130.006901 38.8824748,134.375739 37.5958612,135.545351 C37.1871977,135.916851 36.5547499,135.886725 36.1832494,135.478061 C35.8117489,135.069398 35.8418754,134.43695 36.2505388,134.065449 C37.5635118,132.871875 42.6653707,128.510233 50.3921204,121.956549 L50.50388,121.861759 C53.6866186,119.162361 57.0965953,116.276097 60.5065581,113.393755 C61.700034,112.384945 62.8082651,111.448678 63.8028403,110.608807 C64.3569718,110.140904 64.3569718,110.140904 64.7264115,109.829035 C64.9964025,109.601145 64.9964025,109.601145 65.0532898,109.553142 C65.4753781,109.196968 66.1062843,109.250402 66.4624584,109.67249 Z M538.550448,65.451715 C538.97465,65.8053694 539.031839,66.4359463 538.678185,66.8601479 C538.642307,66.9031825 538.571281,66.9890314 538.467453,67.115547 C538.293449,67.3275738 538.09133,67.5759813 537.863445,67.8586208 C537.211324,68.6674266 536.48425,69.5874447 535.701018,70.6014613 C533.463059,73.4988469 531.225153,76.5665585 529.137995,79.6659977 C527.533767,82.0482847 526.08316,84.3557893 524.823105,86.5539037 C521.811265,91.8079301 520.019639,96.2062614 519.743822,99.3993882 C519.72137,99.6593094 519.708743,99.9097192 519.706191,100.150679 C519.738287,100.185905 519.766351,100.22532 519.791821,100.267276 C519.994209,100.60067 519.978676,101.005348 519.785815,101.315298 C520.130377,103.498448 521.628559,104.657047 524.568506,104.862211 C529.259196,105.188558 532.529838,103.38126 539.239426,95.686053 C539.266216,95.6392058 539.299532,95.5799264 539.339597,95.5092564 C539.462409,95.2926259 539.607359,95.0421216 539.773817,94.7605524 C540.247676,93.959004 540.79993,93.0670744 541.425594,92.1072076 C543.212731,89.3654539 545.232704,86.6236244 547.447273,84.0606907 C551.591349,79.2647294 555.928747,75.6548038 560.383648,73.7177412 C560.890126,73.4975166 561.479234,73.7295705 561.699459,74.2360481 C561.919683,74.7425257 561.68763,75.3316342 561.181152,75.5518588 C557.046772,77.3495538 552.925801,80.7793517 548.96059,85.3683116 C546.809896,87.8573212 544.842131,90.528288 543.101084,93.1993306 C542.491882,94.1339426 541.954921,95.0011718 541.495466,95.7783556 C541.221479,96.2418153 541.035322,96.5701786 540.942206,96.7408157 L540.952354,96.7211525 C540.911091,96.8009436 540.830883,96.9600509 540.717303,97.1918437 C540.526335,97.5815712 540.313097,98.0308001 540.083164,98.5328799 C539.42516,99.969689 538.766822,101.538829 538.152733,103.186641 C537.126656,105.939956 536.330828,108.628059 535.854578,111.138054 C534.76948,116.856881 535.451299,121.013598 538.226608,123.070451 C540.571362,124.808574 544.895669,121.419441 550.962843,113.08897 C556.611406,105.335474 565.623472,97.2571818 570.069414,95.5268885 C570.584095,95.3265827 571.163706,95.5814337 571.364011,96.0961142 C571.564317,96.6107946 571.309466,97.1904056 570.794786,97.3907115 C566.763613,98.959583 558.022725,106.794795 552.579437,114.266521 C545.792903,123.584701 540.819805,127.482317 537.035673,124.677209 C533.477024,122.039803 532.676452,117.159105 533.889636,110.765223 C534.389194,108.132384 535.215986,105.339697 536.278643,102.488224 C536.429217,102.084182 536.582332,101.68484 536.737386,101.290899 C532.019955,105.88882 528.728222,107.156451 524.429484,106.857374 C520.883069,106.609887 518.745177,105.060115 518.003352,102.481663 C516.978085,103.053861 515.784294,103.678406 514.443661,104.348387 C513.760731,104.68968 513.04389,105.040621 512.296939,105.399816 C510.15769,106.42854 507.867644,107.479697 505.577867,108.497346 C505.365826,108.591583 505.157788,108.68375 504.954104,108.773714 C506.092965,109.183104 507.346887,109.680549 508.702667,110.273656 C513.559066,112.398162 518.743557,115.308859 524.04536,119.126705 C524.493536,119.449439 524.595228,120.074384 524.272495,120.52256 C523.949761,120.970736 523.324816,121.072428 522.87664,120.749695 C517.693318,117.017166 512.631872,114.17555 507.901083,112.105994 C506.250219,111.383798 504.760356,110.810007 503.457693,110.369764 C503.004742,110.216687 502.608399,110.091414 502.271941,109.992087 C502.074344,109.933753 501.943175,109.89764 501.881714,109.881887 C500.955839,109.644574 500.858645,108.368022 501.737919,107.993269 C501.888046,107.929284 502.1712,107.80757 502.568342,107.635203 C503.231145,107.347535 503.969919,107.023344 504.76561,106.669714 C507.038441,105.659596 509.311002,104.616465 511.430187,103.597389 C512.168316,103.242437 512.876101,102.89593 513.549592,102.559353 C515.176514,101.7463 516.577618,101.004187 517.710606,100.349799 C517.703508,99.9891009 517.717786,99.6145806 517.751242,99.2272722 C518.058339,95.6720188 519.942663,91.0461185 523.087977,85.5592521 C523.652741,84.574045 524.254185,83.5686307 524.889236,82.5457456 C522.077043,82.5885939 516.499773,82.4997636 508.759272,82.3106132 C507.108085,82.270264 505.389573,82.2259622 503.619777,82.1783456 C500.554197,82.0958657 497.481822,82.0074976 494.550811,81.9191294 C493.524943,81.8882 492.590003,81.8594793 491.764515,81.8337033 C491.269137,81.8182351 490.920268,81.8071838 490.736433,81.8012857 C490.184432,81.7835755 489.751304,81.3217335 489.769014,80.7697327 C489.786725,80.217732 490.248567,79.784604 490.800567,79.8023143 C490.983845,79.8081945 491.332144,79.8192277 491.826935,79.8346776 C492.651727,79.8604319 493.585954,79.8891307 494.611083,79.9200377 C497.540064,80.0083448 500.610324,80.096652 503.673568,80.1790691 C505.441785,80.2266432 507.158665,80.270903 508.80813,80.3112101 C518.130724,80.5390213 524.483242,80.6204625 526.187941,80.5041329 C526.604745,79.8587716 527.036226,79.2064995 527.479067,78.548878 C529.592596,75.4102764 531.855425,72.3084008 534.118202,69.3788845 C534.910227,68.3534853 535.645892,67.422596 536.306485,66.6032815 C536.53805,66.3160789 536.74381,66.0631957 536.921426,65.846768 C537.028571,65.716211 537.10288,65.6263932 537.142015,65.5794521 C537.495669,65.1552505 538.126246,65.0980606 538.550448,65.451715 Z M55.1632976,100.868095 C55.3893505,101.371998 55.1641084,101.963745 54.6602051,102.189798 C54.6008807,102.216411 54.4829254,102.270074 54.3102582,102.349796 C54.0205776,102.483545 53.6840056,102.641379 53.3044633,102.822303 C52.2180869,103.34017 51.0067391,103.938547 49.7018233,104.609459 C45.97418,106.525997 42.2470402,108.637693 38.7728249,110.87932 C31.4463406,115.606503 26.2587499,120.25852 24.1839043,124.494152 C24.1252628,124.613864 24.0692337,124.733066 24.0158274,124.851752 C23.7891966,125.355395 23.1971921,125.579958 22.6935485,125.353327 C22.1899049,125.126697 21.9653417,124.534692 22.1919726,124.031048 C22.2543741,123.892373 22.3196642,123.753467 22.3878208,123.614331 C24.6672243,118.961111 30.0769781,114.109867 37.6885034,109.198771 C41.2231413,106.918157 45.005487,104.775184 48.7873293,102.83078 C50.1107335,102.150362 51.3399685,101.543149 52.4438586,101.016934 C52.8309096,100.83243 53.1748848,100.671125 53.4718828,100.533997 C53.6512227,100.451194 53.7757612,100.394536 53.8415949,100.365002 C54.3454982,100.138949 54.9372446,100.364192 55.1632976,100.868095 Z" id="Skin-Shadows" fill="#9B7368"/>
                            <g id="Tshirt" transform="translate(100.000000, 174.936546)">
                                <mask id="bodyselfie-mask-2" fill="#fff">
                                    <use xlink:href="#bodyselfie-path-1"/>
                                </mask>
                                <use fill="#5BA092" xlink:href="#bodyselfie-path-1"/>
                                <g mask="url(#bodyselfie-mask-2)">
                                    <g transform="translate(-96.000000, 1.063454) scale(1 1)" id="Patterns">
                                        <g id="Patterns/Pattern 6" stroke="none" stroke-width="1" fill="none" fill-rule="evenodd">
                                            <path d="M280,-1 L280,-5.70654635e-14 L281,-5.70654635e-14 L281,218 L278,218 L278,175.999 L234,175.999 L234,218 L231,218 L231,175.999 L187,175.999 L187,218 L184,218 L184,175.999 L140,175.999 L140,218 L137,218 L137,175.999 L93,175.999 L93,218 L90,218 L90,175.999 L46,175.999 L46,218 L43,218 L43,175.999 L-1.42108547e-14,176 L-1.40271577e-14,173 L43,172.999 L43,132.75 L-1.42108547e-14,132.75 L-1.40271577e-14,129.75 L43,129.75 L43,89 L-1.42108547e-14,89 L-1.40271577e-14,86 L43,86 L43,45.999 L-1.42108547e-14,46 L-1.40271577e-14,43 L43,42.999 L43,2 L-1.42108547e-14,2 L-1.40271577e-14,-1 L280,-1 Z M90,132.75 L46,132.75 L46,172.999 L90,172.999 L90,132.75 Z M137,132.75 L93,132.75 L93,172.999 L137,172.999 L137,132.75 Z M184,132.75 L140,132.75 L140,172.999 L184,172.999 L184,132.75 Z M231,132.75 L187,132.75 L187,172.999 L231,172.999 L231,132.75 Z M278,132.75 L234,132.75 L234,172.999 L278,172.999 L278,132.75 Z M90,89 L46,89 L46,129.75 L90,129.75 L90,89 Z M137,89 L93,89 L93,129.75 L137,129.75 L137,89 Z M184,89 L140,89 L140,129.75 L184,129.75 L184,89 Z M231,89 L187,89 L187,129.75 L231,129.75 L231,89 Z M278,89 L234,89 L234,129.75 L278,129.75 L278,89 Z M90,45.999 L46,45.999 L46,86 L90,86 L90,45.999 Z M137,45.999 L93,45.999 L93,86 L137,86 L137,45.999 Z M184,45.999 L140,45.999 L140,86 L184,86 L184,45.999 Z M231,45.999 L187,45.999 L187,86 L231,86 L231,45.999 Z M278,45.999 L234,45.999 L234,86 L278,86 L278,45.999 Z M90,2 L46,2 L46,42.999 L90,42.999 L90,2 Z M137,2 L93,2 L93,42.999 L137,42.999 L137,2 Z M184,2 L140,2 L140,42.999 L184,42.999 L184,2 Z M231,2 L187,2 L187,42.999 L231,42.999 L231,2 Z M278,2 L234,2 L234,42.999 L278,42.999 L278,2 Z" id="Pattern" fill="#010101"/>
                                        </g>
                                    </g>
                                </g>
                                <g mask="url(#bodyselfie-mask-2)">
                                    <g transform="translate(184.000000, 1.063454)" id="Patterns"/>
                                </g>
                                <mask id="bodyselfie-mask-4" fill="#fff">
                                    <use xlink:href="#bodyselfie-path-3"/>
                                </mask>
                                <use id="Tshirt-detail" fill="#2F6858" xlink:href="#bodyselfie-path-3"/>
                            </g>
                            <g id="Phone" transform="translate(36.179261, 21.763091)">
                                <path d="M8.07553868,47.7252093 L71.6355387,50.3422093 C75.4635387,50.4992093 78.6035387,53.4302093 79.0235387,57.2402093 L90.7995387,164.051209 C91.2915387,168.516209 87.8995387,172.463209 83.4115387,172.648209 L26.6025387,174.991209 C24.6545387,175.071209 22.9385387,173.717209 22.5655387,171.803209 L19.2784304,154.969444 C21.8214979,151.715092 28.6265633,142.753451 37.2021387,129.438309 C47.9262787,112.787129 48.7717443,107.700126 46.741004,102.678756 L46.6131387,102.371309 C44.6791387,97.8463093 34.3221387,105.823309 34.3221387,105.823309 C39.2181387,98.6233093 42.3871387,92.8643093 42.0981387,88.8323093 C41.5481387,81.1683093 29.5191387,88.5543093 29.5191387,88.5543093 C31.8831387,86.0593093 35.1511387,77.8053093 31.5131387,74.1663093 C27.8611387,70.5143093 18.0721387,79.5143093 18.0721387,79.5143093 C18.0721387,79.5143093 37.6381387,54.2243093 10.2201387,64.9983093 C7.57683585,66.0372873 4.94426225,67.1273789 2.35341496,68.2624244 L0.146538683,56.9572093 C-0.813461317,52.0412093 3.07053868,47.5192093 8.07553868,47.7252093 Z" fill="#010101"/>
                                <path d="M40.0563003,3.47647157 C38.5065522,5.52196701 36.4156027,8.59476071 33.9224503,12.4506224 C33.6190628,12.9198358 33.3108059,13.3989883 32.9980327,13.8874506 C31.1322058,16.8013396 29.1827172,19.9245801 27.2667218,23.0479848 C26.5960482,24.1412991 25.977509,25.1564715 25.4257124,26.0674046 C25.2326523,26.3861177 25.0617493,26.6689952 24.9148286,26.9127759 C24.766234,27.159566 24.766234,27.159566 24.7354367,27.2108966 C24.3642332,27.8295829 23.4799658,27.863535 23.0624153,27.2751334 C23.0314524,27.2315012 22.9698127,27.1452529 22.8790733,27.0192355 C22.7270638,26.808127 22.5491017,26.5629333 22.3467651,26.2865026 C21.7678438,25.4955846 21.1103078,24.6138149 20.3868061,23.664 C18.3200096,20.9507045 16.1403793,18.2377119 13.9500757,15.7082511 C12.4395068,13.9637784 10.976054,12.3684098 9.57887534,10.9556028 C7.46561908,8.81870846 5.54831359,7.14444248 3.88302217,6.01628165 C2.57582211,5.13060153 2.07830868,5.48810658 1.68255088,7.65076504 C1.28174864,9.84098938 1.35591699,13.3128042 1.81742823,17.6766849 C2.02667016,19.6551996 2.30902432,21.7554505 2.64636778,23.9175979 C2.91502319,25.6395005 3.20294066,27.3022078 3.49079684,28.8428188 C3.59147927,29.3816728 3.68492037,29.8665716 3.76870473,30.2896764 C3.81879234,30.542615 3.85440109,30.7181337 3.87311588,30.8084019 C3.98523378,31.3491865 3.63773073,31.8784686 3.09694609,31.9905865 C2.55616146,32.1027044 2.02687938,31.7552013 1.91476148,31.2144167 C1.89486324,31.1184404 1.85807254,30.9370958 1.80680093,30.6781779 C1.72165325,30.2481885 1.62685579,29.7562511 1.52481977,29.2101527 C1.23348039,27.6508995 0.942202292,25.9687848 0.670275169,24.2259126 C0.328158431,22.0331717 0.0415079307,19.9009632 -0.171480162,17.887026 C-0.651829649,13.3450178 -0.729276284,9.71974709 -0.284779848,7.29075143 C0.337025593,3.89283282 2.26732497,2.50575111 5.00480734,4.36050448 C6.79446185,5.57291577 8.8036584,7.3274246 11.0009323,9.54927641 C12.4314698,10.9958153 13.9242059,12.6231069 15.4620146,14.3990372 C17.6824418,16.9632862 19.8874282,19.7078397 21.9778042,22.4520903 C22.6439526,23.3266116 23.2550415,24.1444153 23.8016179,24.888379 C24.3331379,24.0115099 24.9240471,23.0420507 25.5619208,22.0022059 C27.4841497,18.8686396 29.4401859,15.7349092 31.3137362,12.8089586 C31.6280747,12.3180516 31.9379278,11.8364179 32.2429491,11.3646778 C34.7609595,7.47037128 36.8754715,4.36295089 38.4621649,2.26869169 C39.386243,1.04901104 40.1250569,0.180361367 40.6899305,-0.32962095 C41.0840282,-0.685422405 41.4210299,-0.904029056 41.8046656,-0.976706519 C42.5742924,-1.12250765 43.1533846,-0.60649003 43.2643172,0.1133962 C43.4934164,1.6029833 43.2951016,6.46299968 42.7912529,13.872229 C42.7126651,15.0278836 42.627705,16.2266238 42.5373122,17.4594409 C42.3579344,19.9058734 42.1657681,22.3719698 41.9736014,24.7349029 C41.9456108,25.0790828 41.9184516,25.4108065 41.892239,25.7289664 C42.2745707,25.4722701 42.6781046,25.20292 43.1004122,24.9228338 C45.344165,23.4347141 47.6596014,21.9464888 49.9224441,20.5564745 C50.6847776,20.0881899 51.4298702,19.6381231 52.1549003,19.2085207 C55.7545964,17.0755912 58.7202123,15.5261448 60.865422,14.7222646 C62.1960576,14.223632 63.2215063,14.0022548 64.0038458,14.1122303 C65.2286477,14.284404 65.8151982,15.2639996 65.5371372,16.5427368 C65.1442056,18.3511325 64.6058003,21.1393648 63.9594313,24.6728371 C63.8823842,25.0940264 63.8040878,25.5242724 63.7246338,25.9629954 C63.2579104,28.5401141 62.7705129,31.3018925 62.2916136,34.0637517 C62.2456732,34.3286948 62.2007123,34.5884498 62.1568058,34.8425424 C63.2711958,33.8363013 64.4168822,32.8375041 65.5505776,31.8957275 C66.1275874,31.4163974 66.6899489,30.9616573 67.2344623,30.5352479 C69.0807768,29.0893958 70.6630901,28.0127499 71.9263051,27.3890428 C73.7793648,26.4741022 75.238317,26.4031757 75.847998,27.8657517 C76.4329721,29.269509 76.305298,31.6511987 75.6871936,34.8824935 C75.4996318,35.8630192 75.2700345,36.8945246 75.0076383,37.9570352 C74.7450377,39.0203737 74.463918,40.0579696 74.1827202,41.028681 C74.0842042,41.3687639 73.9926386,41.6764411 73.9103311,41.9465274 C73.8606094,42.1096855 73.8247822,42.2248048 73.8051586,42.2866869 C73.6382153,42.8131358 73.0761098,43.1045725 72.549661,42.9376292 C72.0232122,42.7706859 71.7317754,42.2085804 71.8987188,41.6821316 C71.9161223,41.6272504 71.9497208,41.5192924 71.9971952,41.3635084 C72.0768811,41.1020246 72.1658225,40.8031654 72.2616987,40.4721953 C72.535907,39.525612 72.8101934,38.5132374 73.0659718,37.4775238 C73.3203483,36.4474869 73.5423835,35.4499559 73.7228098,34.5067326 C74.2429905,31.7873584 74.3693523,29.7177704 74.0460706,28.7532927 C73.7833443,28.7712562 73.3564343,28.9134246 72.8117485,29.1823609 C71.6988325,29.7318586 70.2146327,30.7417456 68.4675603,32.109881 C67.9388666,32.5239019 67.3913502,32.9666378 66.8285667,33.43415 C65.5478451,34.4980634 64.2475202,35.6397385 62.9963369,36.7815915 C62.5583232,37.1813309 62.1579061,37.5523874 61.8035823,37.885123 C61.5917305,38.0840671 61.4428613,38.225506 61.3654485,38.2998177 C60.6701124,38.9672996 59.5258908,38.3615475 59.6870088,37.41125 C59.7183383,37.2264637 59.7772744,36.8804227 59.8601792,36.3961542 C59.9983141,35.5892721 60.1531396,34.690232 60.3210188,33.7220557 C60.8007053,30.9556566 61.2889326,28.1891766 61.7566467,25.6065874 C61.8363067,25.1667269 61.9148136,24.7353242 61.9920767,24.312954 C62.6421518,20.7592214 63.1839129,17.953611 63.5827742,16.1179252 C63.5854047,16.1058278 63.5878024,16.0944572 63.590002,16.0837989 C63.191888,16.081343 62.4904363,16.249132 61.56723,16.5950875 C59.5601184,17.3472178 56.6799577,18.8520165 53.174426,20.9291507 C52.4588469,21.353153 51.7228154,21.7977465 50.9692707,22.2606324 C48.7281473,23.637305 46.4316037,25.1133871 44.2058416,26.5895749 C43.4267452,27.1062934 42.7122877,27.5860229 42.0781685,28.0163869 C41.6983292,28.2741763 41.4301399,28.4579032 41.2892819,28.5552008 C40.5933966,29.0358836 39.6521332,28.4893552 39.724618,27.6467056 C39.7373583,27.4985976 39.7612959,27.2171062 39.7948306,26.8176139 C39.85075,26.1514582 39.9130674,25.3980539 39.9801827,24.5727871 C40.171946,22.2148137 40.3637097,19.7538833 40.5426667,17.3131892 C40.6328109,16.0837628 40.7175231,14.8885198 40.7958613,13.7365367 C41.1700817,8.23352608 41.3748337,4.06024719 41.3605439,1.85328415 C40.9936645,2.2724939 40.5559574,2.8169797 40.0563003,3.47647157 Z" id="Stroke-25" fill="#F3705A"/>
                            </g>
                        </g>
                    </g>
                </g>
            </g>
        </g>
    </g>
</svg>
